<svg width="100" height="100" viewBox="0 0 100 100" fill="none" xmlns="http://www.w3.org/2000/svg">
<path d="M86.5459 71.8747C87.1344 70.8178 87.5 69.6272 87.5 68.5578V31.4416C87.5 30.3723 87.1347 29.1818 86.5459 28.125L50 50L86.5459 71.8747Z" fill="#7F3A86"/>
<path d="M53.2483 92.9478L84.2533 74.3897C85.1464 73.855 85.9583 72.9319 86.5468 71.875L50.0008 50L13.4551 71.875C14.0436 72.9319 14.8556 73.8553 15.7485 74.3897L46.7533 92.9478C48.5393 94.0172 51.4624 94.0172 53.2483 92.9478Z" fill="#662579"/>
<path d="M86.5459 28.1249C85.9575 27.0678 85.1453 26.1447 84.2525 25.61L53.2475 7.05194C51.4616 5.98269 48.5384 5.98269 46.7525 7.05194L15.7476 25.61C13.9613 26.679 12.5 29.3034 12.5 31.4416V68.5581C12.5 69.6272 12.8654 70.8181 13.4542 71.875L50 50L86.5459 28.1249Z" fill="#9A5196"/>
<path d="M50.1203 75C36.2691 75 25 63.785 25 50C25 36.215 36.2691 25 50.1203 25C58.8931 25 67.0856 29.6115 71.6219 37.0681L60.8641 43.5203C58.5912 39.8 54.4997 37.5 50.1203 37.5C43.1944 37.5 37.5603 43.1075 37.5603 50C37.5603 56.8925 43.1944 62.5 50.1203 62.5C54.4881 62.5 58.5691 60.2128 60.8459 56.51L71.6266 62.9247C67.0912 70.3856 58.8959 75 50.1203 75Z" fill="white"/>
<path fill-rule="evenodd" clip-rule="evenodd" d="M78.1253 40.625V43.7419H71.8747V40.625H68.7503V43.7419H65.625V46.875H68.7503V53.1088H65.625V56.25H68.7503V59.375H71.8747L71.875 56.25H78.1253V59.375H81.2497V56.25H84.375V53.125H81.2497V46.875H84.375V43.7419H81.2497V40.625H78.1253ZM78.1253 53.125V46.875H71.8747V53.1088L78.1253 53.125Z" fill="white"/>
</svg>
