<svg width="200" height="100" viewBox="0 0 200 100" fill="none" xmlns="http://www.w3.org/2000/svg">
<path d="M29.7331 17.875H39.7898V64.425C34.6315 65.405 30.8431 65.7967 26.7281 65.7967C14.4498 65.7967 8.0498 60.2467 8.0498 49.6017C8.0498 39.3483 14.8415 32.6883 25.3548 32.6883C26.9881 32.6883 28.2281 32.8183 29.7298 33.21L29.7331 17.875ZM29.7331 41.3083C28.5581 40.9167 27.5781 40.7867 26.3381 40.7867C21.2448 40.7867 18.3048 43.92 18.3048 49.4067C18.3048 54.7617 21.1131 57.7 26.2715 57.7C27.4302 57.6978 28.5871 57.6109 29.7331 57.44V41.3083ZM55.7898 33.4083V56.7217C55.7898 64.755 55.2015 68.605 53.4565 71.9383C51.8231 75.1383 49.6681 77.1633 45.2281 79.3833L35.8898 74.9417C40.3315 72.8517 42.4848 71.025 43.8565 68.215C45.2931 65.3417 45.7515 62.0117 45.7515 53.26V33.4267L55.7898 33.4083ZM45.7331 17.9333H55.7898V28.2667H45.7331V17.9333ZM61.8631 35.6933C66.3048 33.6033 70.5298 32.69 75.1865 32.69C80.3448 32.69 83.7415 34.0617 85.2431 36.74C86.0765 38.24 86.3531 40.2017 86.3531 44.3817V64.8333C81.8465 65.4867 76.1648 65.9433 71.9865 65.9433C63.5631 65.9433 59.7748 63.0033 59.7748 56.4733C59.7748 49.42 64.8031 46.14 77.1465 45.11V42.89C77.1465 41.0617 76.2298 40.39 73.6848 40.39C69.9631 40.39 65.7848 41.435 61.8648 43.46V35.6883L61.8631 35.6933ZM77.6015 51.6933C70.9398 52.3467 68.7681 53.3933 68.7681 56.0033C68.7681 57.9617 70.0098 58.8767 72.7681 58.8767C74.2681 58.8767 75.6415 58.7467 77.6015 58.42V51.6933ZM91.2681 34.9767C97.2098 33.41 102.108 32.6933 107.071 32.6933C112.23 32.6933 115.955 33.8683 118.175 36.155C120.265 38.31 120.916 40.66 120.916 45.6883V65.41H110.86V46.0767C110.86 42.2233 109.553 40.7867 105.96 40.7867C104.588 40.7867 103.348 40.9167 101.323 41.5033V65.4033H91.2498L91.2681 34.9767ZM124.81 70.8933C128.336 72.7217 131.863 73.57 135.585 73.57C142.18 73.57 144.988 70.8933 144.988 64.4933V64.2967C143.03 65.275 141.071 65.6683 138.458 65.6683C129.625 65.6683 124.025 59.8567 124.025 50.6483C124.025 39.2183 132.32 32.755 147.011 32.755C151.321 32.755 155.306 33.2117 160.138 34.1917L156.695 41.4467C154.016 40.925 156.478 41.3767 154.456 41.18V42.225L154.586 46.4683L154.653 51.955C154.72 53.3267 154.72 54.6983 154.786 56.0683V58.8117C154.786 67.4317 154.07 71.4783 151.913 74.8117C148.78 79.7117 143.358 82.145 135.651 82.145C131.735 82.145 128.338 81.5567 124.811 80.185V70.9117L124.81 70.8933ZM144.81 40.8533H143.765C141.806 40.7867 139.521 41.31 137.953 42.29C135.536 43.6617 134.296 46.1433 134.296 49.67C134.296 54.6983 136.796 57.57 141.22 57.57C142.591 57.57 143.72 57.3083 145.006 56.9167V53.455C145.006 52.28 144.94 50.955 144.94 49.6017L144.873 44.965L144.806 41.635V40.8517L144.81 40.8533ZM175.75 32.56C185.806 32.56 191.945 38.8933 191.945 49.1483C191.945 59.6483 185.545 66.2583 175.356 66.2583C165.3 66.2583 159.095 59.925 159.095 49.7367C159.095 39.1567 165.495 32.5617 175.748 32.5617L175.75 32.56ZM175.553 58.16C179.406 58.16 181.693 54.96 181.693 49.41C181.693 43.91 179.473 40.66 175.62 40.66C171.62 40.66 169.35 43.86 169.35 49.41C169.35 54.96 171.636 58.16 175.553 58.16Z" fill="#092E20"/>
</svg>
