<svg width="200" height="100" viewBox="0 0 200 100" fill="none" xmlns="http://www.w3.org/2000/svg">
<g clip-path="url(#clip0_51_2350)">
<mask id="mask0_51_2350" style="mask-type:luminance" maskUnits="userSpaceOnUse" x="47" y="35" width="21" height="36">
<path d="M47.4724 37.2452C51.4105 49.2933 52.9044 70.7866 64.4254 70.7866C65.302 70.7866 66.1883 70.7006 67.0786 70.5313C56.605 68.0897 55.3624 46.8298 48.9717 35.821C48.4619 36.2853 47.9617 36.7601 47.4717 37.2452" fill="white"/>
</mask>
<g mask="url(#mask0_51_2350)">
<mask id="mask1_51_2350" style="mask-type:luminance" maskUnits="userSpaceOnUse" x="47" y="35" width="21" height="36">
<path d="M67.0388 70.7939H47.4326V35.8283H67.0388V70.7939Z" fill="white"/>
</mask>
<g mask="url(#mask1_51_2350)">
<mask id="mask2_51_2350" style="mask-type:luminance" maskUnits="userSpaceOnUse" x="47" y="35" width="21" height="36">
<path d="M67.0388 35.8276V70.7939H47.4326V35.8283L67.0388 35.8276Z" fill="white"/>
</mask>
<g mask="url(#mask2_51_2350)">
<path d="M67.0388 70.7939H47.4326V35.8283H67.0388V70.7939Z" fill="url(#paint0_linear_51_2350)"/>
</g>
</g>
</g>
<mask id="mask3_51_2350" style="mask-type:luminance" maskUnits="userSpaceOnUse" x="48" y="34" width="22" height="37">
<path d="M48.9727 35.821C55.3633 46.8298 56.6046 68.0897 67.0795 70.5312C67.9009 70.3797 68.727 70.1516 69.5532 69.8622C60.1515 65.2556 57.5529 44.6136 50.2959 34.6746C49.8562 35.0406 49.4083 35.4222 48.9733 35.8203" fill="white"/>
</mask>
<g mask="url(#mask3_51_2350)">
<mask id="mask4_51_2350" style="mask-type:luminance" maskUnits="userSpaceOnUse" x="49" y="34" width="21" height="37">
<path d="M69.6156 70.5781H49.0371V34.7215H69.6156V70.5781Z" fill="white"/>
</mask>
<g mask="url(#mask4_51_2350)">
<mask id="mask5_51_2350" style="mask-type:luminance" maskUnits="userSpaceOnUse" x="49" y="34" width="21" height="37">
<path d="M69.6156 34.7215V70.5781H49.0371V34.7215H69.6156Z" fill="white"/>
</mask>
<g mask="url(#mask5_51_2350)">
<path d="M69.6156 70.5781H49.0371V34.7215H69.6156V70.5781Z" fill="url(#paint1_linear_51_2350)"/>
</g>
</g>
</g>
<path d="M58.1811 29.2739C57.3061 29.2739 56.4169 29.3591 55.5265 29.5295C53.1953 29.9687 50.8269 30.9715 48.4395 32.4916C49.0922 33.1362 49.7121 33.8714 50.2949 34.6765C52.7228 32.6555 55.1344 31.172 57.5393 30.2768C58.4167 29.949 59.3208 29.6978 60.2414 29.5257C59.5676 29.3563 58.8753 29.2719 58.1806 29.2745" fill="#14559A"/>
<path d="M76.6874 68.1658C76.2341 67.7321 75.8037 67.259 75.3798 66.7456C73.4299 68.1275 71.4842 69.1762 69.5518 69.8568C70.2383 70.1933 70.9593 70.4413 71.7235 70.5969C72.3156 70.7193 72.9252 70.7805 73.5806 70.7805C75.7474 70.7805 77.4609 70.5221 78.9204 69.8246C78.1174 69.3898 77.3801 68.8272 76.6918 68.1603" fill="#1969BC"/>
<mask id="mask6_51_2350" style="mask-type:luminance" maskUnits="userSpaceOnUse" x="57" y="29" width="20" height="38">
<path d="M57.5391 30.2773C67.0042 35.2274 67.8262 57.6465 75.3796 66.7505C75.8849 66.3941 76.3867 66.0158 76.8817 65.6171C72.1549 55.1435 70.8017 32.1481 60.236 29.5242C59.3334 29.6922 58.4335 29.9339 57.5322 30.2773" fill="white"/>
</mask>
<g mask="url(#mask6_51_2350)">
<mask id="mask7_51_2350" style="mask-type:luminance" maskUnits="userSpaceOnUse" x="57" y="29" width="20" height="38">
<path d="M76.9374 66.7969H57.5879V29.5686H76.9374V66.7969Z" fill="white"/>
</mask>
<g mask="url(#mask7_51_2350)">
<mask id="mask8_51_2350" style="mask-type:luminance" maskUnits="userSpaceOnUse" x="57" y="29" width="20" height="38">
<path d="M76.9374 29.5686V66.7969H57.5879V29.5686H76.9374Z" fill="white"/>
</mask>
<g mask="url(#mask8_51_2350)">
<path d="M76.9374 66.7969H57.5879V29.5686H76.9374V66.7969Z" fill="url(#paint2_linear_51_2350)"/>
</g>
</g>
</g>
<mask id="mask9_51_2350" style="mask-type:luminance" maskUnits="userSpaceOnUse" x="50" y="30" width="26" height="40">
<path d="M50.2949 34.6758C57.5527 44.614 60.1506 65.2635 69.5522 69.8633C71.4844 69.1819 73.429 68.1345 75.3796 66.7519C67.8262 57.6473 67.0042 35.2288 57.539 30.2788C55.1357 31.1718 52.7228 32.6602 50.3017 34.6758" fill="white"/>
</mask>
<g mask="url(#mask9_51_2350)">
<mask id="mask10_51_2350" style="mask-type:luminance" maskUnits="userSpaceOnUse" x="50" y="30" width="26" height="40">
<path d="M75.3679 69.8735H50.2832V30.287H75.3679V69.8735Z" fill="white"/>
</mask>
<g mask="url(#mask10_51_2350)">
<mask id="mask11_51_2350" style="mask-type:luminance" maskUnits="userSpaceOnUse" x="50" y="30" width="26" height="40">
<path d="M75.3679 30.2874V69.874H50.2832V30.2874H75.3679Z" fill="white"/>
</mask>
<g mask="url(#mask11_51_2350)">
<path d="M75.3679 69.8735H50.2832V30.287H75.3679V69.8735Z" fill="url(#paint3_linear_51_2350)"/>
</g>
</g>
</g>
<path d="M47.2465 33.2856L46.2393 34.0274C46.6806 34.9909 47.0886 36.073 47.4704 37.25L48.9725 35.8261C48.4356 34.9052 47.867 34.0531 47.2465 33.2916" fill="#2B74B1"/>
<path d="M48.4394 32.4909L47.2471 33.2856C47.8654 34.0476 48.4356 34.8997 48.9731 35.82L50.2949 34.6741C49.7105 33.8701 49.0922 33.1338 48.4394 32.4893" fill="#125A9E"/>
<path d="M42.8277 36.9564C43.966 35.8706 45.1054 34.8945 46.2394 34.0287L45.42 32.4595C44.5046 33.5705 43.6689 35.0359 42.8223 36.957" fill="#0D82CA"/>
<path d="M43.6498 30.2516C44.3053 30.8 44.8897 31.5543 45.425 32.4583L45.9412 31.8793C45.1983 31.1856 44.3954 30.6154 43.5215 30.186L43.6291 30.2374C43.6345 30.2439 43.6416 30.2483 43.6482 30.251" fill="#0D82CA"/>
<mask id="mask12_51_2350" style="mask-type:luminance" maskUnits="userSpaceOnUse" x="16" y="30" width="22" height="32">
<path d="M16.1055 61.8462C25.234 44.2562 29.5593 33.1224 37.1919 30.1114C29.3224 33.192 20.4642 44.8099 16.1055 61.8462Z" fill="white"/>
</mask>
<g mask="url(#mask12_51_2350)">
<mask id="mask13_51_2350" style="mask-type:luminance" maskUnits="userSpaceOnUse" x="16" y="30" width="22" height="32">
<path d="M16.0947 30.1333H37.1818V61.8701H16.0947V30.134V30.1333Z" fill="white"/>
</mask>
<g mask="url(#mask13_51_2350)">
<mask id="mask14_51_2350" style="mask-type:luminance" maskUnits="userSpaceOnUse" x="16" y="30" width="22" height="32">
<path d="M16.0947 61.8687V30.1338H37.1818V61.8687H16.0947Z" fill="white"/>
</mask>
<g mask="url(#mask14_51_2350)">
<path d="M16.0947 30.1333H37.1818V61.8701H16.0947V30.134V30.1333Z" fill="url(#paint4_linear_51_2350)"/>
</g>
</g>
</g>
<path d="M45.941 31.8794L45.4248 32.4584C45.7116 32.9374 45.9781 33.4607 46.2441 34.0276L47.2513 33.2859C46.8384 32.7757 46.4025 32.3038 45.941 31.8794Z" fill="#127BCA"/>
<mask id="mask15_51_2350" style="mask-type:luminance" maskUnits="userSpaceOnUse" x="0" y="32" width="47" height="56">
<mask id="mask16_51_2350" style="mask-type:luminance" maskUnits="userSpaceOnUse" x="-23" y="13" width="94" height="95">
<path d="M-22.5303 13.2944H70.0714V107.106H-22.5303V13.2944Z" fill="white"/>
</mask>
<g mask="url(#mask16_51_2350)">
<mask id="mask17_51_2350" style="mask-type:luminance" maskUnits="userSpaceOnUse" x="-24" y="12" width="95" height="96">
<path d="M-23.2129 12.6115H70.7543V107.789H-23.2129V12.6115Z" fill="white"/>
</mask>
<g mask="url(#mask17_51_2350)">
<mask id="mask18_51_2350" style="mask-type:luminance" maskUnits="userSpaceOnUse" x="0" y="32" width="47" height="56">
<path d="M0.630859 87.3267H46.8525V32.89H0.630859V87.3267Z" fill="white"/>
</mask>
<g mask="url(#mask18_51_2350)">
<mask id="mask19_51_2350" style="mask-type:luminance" maskUnits="userSpaceOnUse" x="-23" y="13" width="94" height="95">
<path d="M-22.5303 13.2939H70.0714V107.105H-22.5303V13.2939Z" fill="white"/>
</mask>
<g mask="url(#mask19_51_2350)">
<mask id="mask20_51_2350" style="mask-type:luminance" maskUnits="userSpaceOnUse" x="0" y="32" width="47" height="56">
<path d="M0.630859 87.3267H46.8525V32.89H0.630859V87.3267Z" fill="white"/>
</mask>
<g mask="url(#mask20_51_2350)">
<mask id="mask21_51_2350" style="mask-type:luminance" maskUnits="userSpaceOnUse" x="0" y="32" width="47" height="56">
<path d="M0.640625 74.9446L22.7662 87.3203L46.8677 45.2622L24.7442 32.8823L0.646766 74.9439L0.640625 74.9446Z" fill="white"/>
</mask>
<g mask="url(#mask21_51_2350)">
<mask id="mask22_51_2350" style="mask-type:luminance" maskUnits="userSpaceOnUse" x="-23" y="13" width="94" height="95">
<path d="M70.0724 45.9529L35.8701 107.111L-22.5293 74.4521L11.6723 13.2936L70.0724 45.9529Z" fill="white"/>
</mask>
<g mask="url(#mask22_51_2350)">
<mask id="mask23_51_2350" style="mask-type:luminance" maskUnits="userSpaceOnUse" x="-23" y="13" width="94" height="95">
<path d="M70.0724 45.9529L35.8708 107.111L-22.5293 74.4521L11.6723 13.2936L70.0724 45.9529Z" fill="white"/>
</mask>
<g mask="url(#mask23_51_2350)">
<path d="M70.0724 45.9529L35.8701 107.111L-22.5293 74.4521L11.6723 13.2936L70.0724 45.9529Z" fill="url(#paint5_linear_51_2350)"/>
</g>
</g>
</g>
</g>
</g>
</g>
</g>
</g>
</mask>
<g mask="url(#mask15_51_2350)">
<mask id="mask24_51_2350" style="mask-type:luminance" maskUnits="userSpaceOnUse" x="19" y="47" width="21" height="25">
<path d="M19.5186 47.3204H39.1289V71.8726H19.5186V47.3136V47.3204Z" fill="white"/>
</mask>
<g mask="url(#mask24_51_2350)">
<mask id="mask25_51_2350" style="mask-type:luminance" maskUnits="userSpaceOnUse" x="19" y="47" width="21" height="25">
<path d="M19.5254 71.8726H39.1207V47.3136H19.5254V71.8726Z" fill="white"/>
</mask>
<g mask="url(#mask25_51_2350)">
<mask id="mask26_51_2350" style="mask-type:luminance" maskUnits="userSpaceOnUse" x="19" y="47" width="21" height="25">
<path d="M20.2498 71.8164L20.0846 71.8355C20.0709 71.8382 20.0627 71.8382 20.0525 71.8403L19.9118 71.8539C19.905 71.8539 19.8961 71.856 19.8893 71.856L19.5527 71.8799H19.5186C28.7577 71.6204 32.9813 66.9954 35.0753 60.2866L39.1241 47.3141C35.2542 52.7605 31.3665 59.2515 27.4577 66.527C25.5733 70.033 22.7057 71.4975 20.2498 71.8096" fill="white"/>
</mask>
<g mask="url(#mask26_51_2350)">
<mask id="mask27_51_2350" style="mask-type:luminance" maskUnits="userSpaceOnUse" x="19" y="47" width="21" height="25">
<path d="M19.5244 47.3214H39.1293V71.8804H19.5244V47.3214Z" fill="white"/>
</mask>
<g mask="url(#mask27_51_2350)">
<mask id="mask28_51_2350" style="mask-type:luminance" maskUnits="userSpaceOnUse" x="19" y="47" width="21" height="25">
<path d="M19.5234 71.8809V47.3219H39.1283V71.8809H19.5234Z" fill="white"/>
</mask>
<g mask="url(#mask28_51_2350)">
<path d="M19.5244 47.3214H39.1293V71.8804H19.5244V47.3214Z" fill="url(#paint6_linear_51_2350)"/>
</g>
</g>
</g>
</g>
</g>
</g>
<mask id="mask29_51_2350" style="mask-type:luminance" maskUnits="userSpaceOnUse" x="20" y="36" width="23" height="36">
<path d="M20.25 71.8135V71.8169C22.7066 71.5042 25.5742 70.0417 27.4579 66.5344C31.3667 59.2629 35.2564 52.7678 39.1209 47.3214C40.5287 42.9053 41.6881 39.5263 42.8283 36.9557C35.1226 44.2899 27.3856 56.4868 20.25 71.8135Z" fill="white"/>
</mask>
<g mask="url(#mask29_51_2350)">
<mask id="mask30_51_2350" style="mask-type:luminance" maskUnits="userSpaceOnUse" x="20" y="37" width="23" height="35">
<path d="M20.2988 37.0063H42.8764V71.8682H20.2988V37.0063Z" fill="white"/>
</mask>
<g mask="url(#mask30_51_2350)">
<mask id="mask31_51_2350" style="mask-type:luminance" maskUnits="userSpaceOnUse" x="20" y="37" width="23" height="35">
<path d="M20.2988 71.8682V37.0063H42.8764V71.8682H20.2988Z" fill="white"/>
</mask>
<g mask="url(#mask31_51_2350)">
<path d="M20.2988 37.0063H42.8764V71.8682H20.2988V37.0063Z" fill="url(#paint7_linear_51_2350)"/>
</g>
</g>
</g>
<path d="M16.1057 61.8472C14.4671 64.9961 12.6854 68.3514 10.6982 71.8958L14.1814 71.8947C14.6419 68.3738 15.2952 65.0152 16.1057 61.8472Z" fill="#05A1E6"/>
<mask id="mask32_51_2350" style="mask-type:luminance" maskUnits="userSpaceOnUse" x="14" y="29" width="32" height="43">
<path d="M40.1488 29.3503C40.1215 29.3558 40.101 29.3572 40.0805 29.3592C40.0395 29.3674 39.9952 29.3749 39.9522 29.3783L39.875 29.3865L39.7384 29.4104C39.7166 29.4118 39.6954 29.4159 39.6784 29.4172L39.3814 29.4698C39.3691 29.4719 39.3568 29.4753 39.3472 29.4753L39.2107 29.5026L39.1383 29.5231L38.9983 29.5504L38.9328 29.5661L38.4433 29.6931C38.4296 29.6985 38.4071 29.7026 38.3866 29.7101C38.3388 29.7217 38.291 29.7388 38.2391 29.7552L38.1722 29.7736L38.0254 29.818C38.0077 29.8228 37.9913 29.8317 37.9742 29.8317L37.6349 29.9491L37.471 30.0078L37.4055 30.0351C37.3563 30.0488 37.3058 30.0693 37.2689 30.0863C37.2532 30.0945 37.2334 30.1014 37.2211 30.1102C29.5878 33.1226 25.2632 44.2557 16.1347 61.845C15.2911 65.1523 14.6483 68.5077 14.21 71.8926H14.6995L19.2487 71.8857H19.2918L19.5819 71.8789L19.9185 71.855C19.9254 71.855 19.9342 71.853 19.939 71.853C19.9868 71.8461 20.0346 71.8427 20.0797 71.8393C20.092 71.8373 20.0988 71.8373 20.1138 71.8345C20.1636 71.8298 20.2231 71.8236 20.279 71.8154V71.812C27.4139 56.4854 35.151 44.2885 42.8566 36.9543C43.7046 35.0336 44.539 33.5677 45.4545 32.4583C44.9186 31.5529 44.3334 30.7991 43.6794 30.2488C43.6725 30.2454 43.6657 30.2434 43.6602 30.2365C43.6247 30.2215 43.5886 30.2045 43.5524 30.1853C43.5169 30.166 43.4809 30.1475 43.4445 30.13C43.4103 30.1164 43.3721 30.098 43.3393 30.0788C43.2966 30.065 43.2554 30.0467 43.2164 30.0242C43.1823 30.0133 43.1529 29.9969 43.1209 29.9832C43.0525 29.957 42.9849 29.929 42.9181 29.8993L42.832 29.8651C42.781 29.848 42.7308 29.8282 42.6818 29.8057C42.6559 29.7989 42.6286 29.788 42.5999 29.7798C42.5275 29.7559 42.4593 29.7299 42.3923 29.7074C42.3807 29.704 42.3766 29.704 42.3739 29.7006C42.292 29.6753 42.2135 29.6548 42.1315 29.6323C42.1124 29.6234 42.0974 29.62 42.0769 29.6146C42.0045 29.5954 41.9404 29.5749 41.8748 29.5572C41.8577 29.5551 41.8407 29.5504 41.827 29.5463C41.6593 29.5022 41.4898 29.4651 41.319 29.435C41.3033 29.4336 41.2829 29.4282 41.2658 29.4241L41.0459 29.3899C41.0323 29.3831 41.0186 29.3831 41.0029 29.3804L40.7414 29.3462C40.7278 29.3442 40.7128 29.3408 40.6957 29.3408C40.6274 29.3298 40.5619 29.3251 40.4963 29.3189C40.385 29.3271 40.2806 29.3373 40.1754 29.3476" fill="white"/>
</mask>
<g mask="url(#mask32_51_2350)">
<mask id="mask33_51_2350" style="mask-type:luminance" maskUnits="userSpaceOnUse" x="6" y="23" width="47" height="55">
<path d="M15.0321 77.2327L6.80957 30.6L44.3916 23.9738L52.6141 70.6065L15.0321 77.2334V77.2327Z" fill="white"/>
</mask>
<g mask="url(#mask33_51_2350)">
<mask id="mask34_51_2350" style="mask-type:luminance" maskUnits="userSpaceOnUse" x="6" y="23" width="47" height="55">
<path d="M15.0321 77.2329L6.80957 30.6002L44.3909 23.9734L52.6134 70.606L15.0314 77.2329H15.0321Z" fill="white"/>
</mask>
<g mask="url(#mask34_51_2350)">
<path d="M15.0321 77.2327L6.80957 30.6L44.3916 23.9738L52.6141 70.6065L15.0321 77.2334V77.2327Z" fill="url(#paint8_linear_51_2350)"/>
</g>
</g>
</g>
<mask id="mask35_51_2350" style="mask-type:luminance" maskUnits="userSpaceOnUse" x="87" y="29" width="15" height="25">
<path d="M92.0909 39.7857L87.6748 53.8711C92.4951 47.2387 97.2417 38.8981 101.76 29.2691C96.4893 30.9262 93.6763 34.7148 92.0902 39.785" fill="white"/>
</mask>
<g mask="url(#mask35_51_2350)">
<mask id="mask36_51_2350" style="mask-type:luminance" maskUnits="userSpaceOnUse" x="87" y="29" width="15" height="25">
<path d="M87.7012 29.2634H101.787V53.8647H87.7012V29.2634Z" fill="white"/>
</mask>
<g mask="url(#mask36_51_2350)">
<mask id="mask37_51_2350" style="mask-type:luminance" maskUnits="userSpaceOnUse" x="87" y="29" width="15" height="25">
<path d="M87.7012 53.8647V29.2628H101.787V53.8647H87.7012Z" fill="white"/>
</mask>
<g mask="url(#mask37_51_2350)">
<path d="M87.7012 29.2634H101.787V53.8647H87.7012V29.2634Z" fill="url(#paint9_linear_51_2350)"/>
</g>
</g>
</g>
<mask id="mask38_51_2350" style="mask-type:luminance" maskUnits="userSpaceOnUse" x="75" y="24" width="62" height="22">
<mask id="mask39_51_2350" style="mask-type:luminance" maskUnits="userSpaceOnUse" x="75" y="24" width="62" height="22">
<path d="M75.001 24.6084H136.105V45.9092H75.001V24.6084Z" fill="white"/>
</mask>
<g mask="url(#mask39_51_2350)">
<mask id="mask40_51_2350" style="mask-type:luminance" maskUnits="userSpaceOnUse" x="74" y="23" width="63" height="24">
<path d="M74.335 23.9255H136.787V46.5762H74.335V23.9248V23.9255Z" fill="white"/>
</mask>
<g mask="url(#mask40_51_2350)">
<mask id="mask41_51_2350" style="mask-type:luminance" maskUnits="userSpaceOnUse" x="75" y="24" width="62" height="22">
<path d="M75.001 45.9092H136.095V24.6234H75.001V45.9092Z" fill="white"/>
</mask>
<g mask="url(#mask41_51_2350)">
<mask id="mask42_51_2350" style="mask-type:luminance" maskUnits="userSpaceOnUse" x="75" y="24" width="62" height="22">
<path d="M75.001 24.6084H136.105V45.9092H75.001V24.6084Z" fill="white"/>
</mask>
<g mask="url(#mask42_51_2350)">
<mask id="mask43_51_2350" style="mask-type:luminance" maskUnits="userSpaceOnUse" x="75" y="24" width="62" height="22">
<path d="M75.001 45.9092H136.095V24.6234H75.001V45.9092Z" fill="white"/>
</mask>
<g mask="url(#mask43_51_2350)">
<mask id="mask44_51_2350" style="mask-type:luminance" maskUnits="userSpaceOnUse" x="75" y="24" width="62" height="22">
<path d="M75.001 24.6234H136.089V45.9092H75.001V24.6234Z" fill="white"/>
</mask>
<g mask="url(#mask44_51_2350)">
<mask id="mask45_51_2350" style="mask-type:luminance" maskUnits="userSpaceOnUse" x="75" y="24" width="62" height="22">
<path d="M136.104 45.8936H75.0176V24.6078H136.104V45.8936Z" fill="white"/>
</mask>
<g mask="url(#mask45_51_2350)">
<mask id="mask46_51_2350" style="mask-type:luminance" maskUnits="userSpaceOnUse" x="75" y="24" width="62" height="22">
<path d="M136.104 24.6084V45.8936H75.0176V24.6078H136.104V24.6084Z" fill="white"/>
</mask>
<g mask="url(#mask46_51_2350)">
<path d="M136.104 45.8936H75.0176V24.6078H136.104V45.8936Z" fill="url(#paint10_linear_51_2350)"/>
</g>
</g>
</g>
</g>
</g>
</g>
</g>
</g>
</mask>
<g mask="url(#mask38_51_2350)">
<mask id="mask47_51_2350" style="mask-type:luminance" maskUnits="userSpaceOnUse" x="79" y="23" width="42" height="52">
<path d="M79.9922 23.8634H120.07V74.1338H79.9922V23.8634Z" fill="white"/>
</mask>
<g mask="url(#mask47_51_2350)">
<mask id="mask48_51_2350" style="mask-type:luminance" maskUnits="userSpaceOnUse" x="87" y="28" width="27" height="42">
<path d="M87.0898 69.7642H113.005V28.356H87.0898V69.7642Z" fill="white"/>
</mask>
<g mask="url(#mask48_51_2350)">
<mask id="mask49_51_2350" style="mask-type:luminance" maskUnits="userSpaceOnUse" x="87" y="28" width="27" height="42">
<path d="M87.8274 69.4125L87.0928 69.7642C96.4671 65.5836 107.649 49 113.004 28.356H111.911C99.6119 50.3273 95.656 65.034 87.8213 69.4125" fill="white"/>
</mask>
<g mask="url(#mask49_51_2350)">
<mask id="mask50_51_2350" style="mask-type:luminance" maskUnits="userSpaceOnUse" x="79" y="23" width="42" height="52">
<path d="M120.063 29.5425L112.201 74.127L79.9912 68.4477L87.8539 23.8633L120.063 29.5425Z" fill="white"/>
</mask>
<g mask="url(#mask50_51_2350)">
<mask id="mask51_51_2350" style="mask-type:luminance" maskUnits="userSpaceOnUse" x="79" y="23" width="42" height="52">
<path d="M120.063 29.5425L112.201 74.127L79.9912 68.4477L87.8539 23.8633L120.063 29.5425Z" fill="white"/>
</mask>
<g mask="url(#mask51_51_2350)">
<path d="M120.063 29.5425L112.201 74.127L79.9912 68.4477L87.8539 23.8633L120.063 29.5425Z" fill="url(#paint11_linear_51_2350)"/>
</g>
</g>
</g>
</g>
</g>
</g>
<path d="M81.7012 67.5683C83.7408 65.0776 85.4034 60.8455 87.6691 53.8721C85.0539 57.4661 82.4255 60.5533 79.7851 63.0735C79.7818 63.0812 79.7818 63.0877 79.7764 63.0965C80.3515 64.817 80.9824 66.3404 81.7012 67.5683Z" fill="#079AE1"/>
<path d="M81.7013 67.568C81.0076 68.4163 80.2729 69.0592 79.4536 69.5377L78.9102 69.8299C79.7972 70.3098 80.7677 70.6157 81.7696 70.7312H81.7767L82.2437 70.7727H82.2732L82.4917 70.7836H82.5222L82.7533 70.7869L83.0018 70.7836L83.0783 70.7781L83.2531 70.7727L83.3394 70.7617L83.5032 70.7508C83.512 70.7508 83.5169 70.7508 83.5224 70.7454C83.5442 70.7454 83.5644 70.7421 83.5857 70.7421L83.7682 70.7229C83.7736 70.7229 83.7763 70.7208 83.7845 70.7208C83.8009 70.7169 83.8211 70.7142 83.8392 70.712L84.0358 70.6836C84.0555 70.6836 84.0724 70.6782 84.0937 70.6754L84.3138 70.6394H84.3258C84.3313 70.6356 84.3406 70.6356 84.3455 70.6339L84.7841 70.5411C83.5748 70.1041 82.5627 69.0526 81.6898 67.5664" fill="#1969BC"/>
<path d="M64.4248 70.7864C65.3153 70.7848 66.2038 70.6995 67.0783 70.5314C67.8998 70.3795 68.7257 70.1517 69.5526 69.8628C70.2421 70.2011 70.9719 70.4504 71.7244 70.6045C72.3164 70.7247 72.926 70.787 73.5815 70.787H64.4248V70.7864Z" fill="#1E5CB3"/>
<path d="M73.5759 70.7864C75.7427 70.7864 77.4578 70.5314 78.9156 69.8306C79.8023 70.3112 80.773 70.6171 81.775 70.7318H81.7821L82.2492 70.7733H82.2786L82.4971 70.7843H82.5277L82.7588 70.7875H73.5693L73.5759 70.7864Z" fill="#1E5CB3"/>
<path d="M82.7658 70.7864L83.0143 70.7831L83.0908 70.7776L83.2656 70.7722L83.3513 70.7613L83.5152 70.7503C83.5239 70.7503 83.5272 70.7503 83.5343 70.7471C83.5561 70.7471 83.5763 70.7416 83.5998 70.7416L83.7801 70.7225C83.7856 70.7225 83.7883 70.7203 83.7965 70.7203C83.8129 70.7165 83.8336 70.7137 83.8511 70.7115L84.0477 70.6826C84.0673 70.6822 84.0867 70.6794 84.1056 70.6744L84.3252 70.6384H84.3361C84.3443 70.6345 84.3525 70.6345 84.358 70.6329L84.7971 70.54C85.2265 70.6979 85.6806 70.7775 86.1381 70.7749L82.7598 70.7837L82.7658 70.7864Z" fill="#1D60B5"/>
<path d="M79.7825 63.097C79.7825 63.0932 79.7792 63.0882 79.7792 63.085L76.8843 65.6177L75.374 66.7517L76.6817 68.1718C77.3699 68.8382 78.1018 69.4008 78.9102 69.8361L79.4537 69.5439C80.273 69.0654 81.0082 68.422 81.7013 67.5743C80.9836 66.3453 80.3522 64.8241 79.7765 63.103" fill="#175FAB"/>
<mask id="mask52_51_2350" style="mask-type:luminance" maskUnits="userSpaceOnUse" x="81" y="28" width="31" height="43">
<path d="M108.482 28.356H103.923C103.769 28.356 103.619 28.3595 103.469 28.3615L103.04 28.3663H103.03L102.165 28.4073L101.755 29.2689C97.235 38.8972 92.4884 47.2392 87.6695 53.8709C85.4027 60.8446 83.7409 65.0771 81.7021 67.5671C82.5747 69.0535 83.5866 70.0988 84.7951 70.5439C84.8306 70.5323 84.8579 70.5276 84.8886 70.5214C84.8954 70.5166 84.9023 70.5166 84.9091 70.5166C84.9296 70.5132 84.9521 70.5043 84.974 70.503C85.0238 70.4914 85.0764 70.4804 85.1242 70.4634L85.2156 70.4395C85.26 70.4272 85.3085 70.4156 85.3508 70.4053C85.3781 70.3931 85.4055 70.3869 85.4355 70.3801C85.5058 70.3576 85.5686 70.3425 85.6362 70.3207C85.6663 70.307 85.6997 70.2961 85.7359 70.2879C85.7735 70.2743 85.8131 70.2633 85.8472 70.2469C85.8882 70.2347 85.9278 70.2265 85.9633 70.2108C85.9947 70.2026 86.0288 70.1882 86.0589 70.1746C86.1374 70.1473 86.2145 70.1234 86.2958 70.0926C86.3163 70.0858 86.3367 70.0735 86.3593 70.0694C86.4071 70.0489 86.4569 70.0353 86.4958 70.0121C86.5149 70.0053 86.5354 69.9964 86.5641 69.9895C86.7343 69.9208 86.9032 69.8488 87.0707 69.7738C87.0721 69.7738 87.081 69.7704 87.0864 69.767C87.3302 69.6591 87.5753 69.5403 87.819 69.4153C95.6558 65.0375 99.6117 50.3308 111.911 28.3588H108.475L108.482 28.356Z" fill="white"/>
</mask>
<g mask="url(#mask52_51_2350)">
<mask id="mask53_51_2350" style="mask-type:luminance" maskUnits="userSpaceOnUse" x="81" y="28" width="31" height="43">
<path d="M111.898 70.5479H81.6855V28.3531H111.898V70.5479Z" fill="white"/>
</mask>
<g mask="url(#mask53_51_2350)">
<mask id="mask54_51_2350" style="mask-type:luminance" maskUnits="userSpaceOnUse" x="81" y="28" width="31" height="43">
<path d="M111.898 28.36V70.5547H81.6855V28.36H111.898Z" fill="white"/>
</mask>
<g mask="url(#mask54_51_2350)">
<path d="M111.898 70.5479H81.6855V28.3531H111.898V70.5479Z" fill="url(#paint12_linear_51_2350)"/>
</g>
</g>
</g>
<mask id="mask55_51_2350" style="mask-type:luminance" maskUnits="userSpaceOnUse" x="31" y="27" width="27" height="7">
<mask id="mask56_51_2350" style="mask-type:luminance" maskUnits="userSpaceOnUse" x="31" y="27" width="27" height="7">
<path d="M31.5908 27.5693H57.5262V33.5503H31.5908V27.5693Z" fill="white"/>
</mask>
<g mask="url(#mask56_51_2350)">
<mask id="mask57_51_2350" style="mask-type:luminance" maskUnits="userSpaceOnUse" x="30" y="26" width="29" height="9">
<path d="M30.9082 26.8919H58.2023V34.2329H30.9082V26.8919Z" fill="white"/>
</mask>
<g mask="url(#mask57_51_2350)">
<mask id="mask58_51_2350" style="mask-type:luminance" maskUnits="userSpaceOnUse" x="31" y="27" width="27" height="7">
<path d="M31.5928 33.5454H57.5241V27.5692H31.5928V33.5454Z" fill="white"/>
</mask>
<g mask="url(#mask58_51_2350)">
<mask id="mask59_51_2350" style="mask-type:luminance" maskUnits="userSpaceOnUse" x="31" y="27" width="27" height="7">
<path d="M31.5918 27.5693H57.5272V33.5503H31.5918V27.5693Z" fill="white"/>
</mask>
<g mask="url(#mask59_51_2350)">
<mask id="mask60_51_2350" style="mask-type:luminance" maskUnits="userSpaceOnUse" x="31" y="27" width="27" height="7">
<path d="M31.5928 33.5454H57.5241V27.5692H31.5928V33.5454Z" fill="white"/>
</mask>
<g mask="url(#mask60_51_2350)">
<mask id="mask61_51_2350" style="mask-type:luminance" maskUnits="userSpaceOnUse" x="31" y="27" width="27" height="7">
<path d="M57.5272 33.5454H31.5986V27.5692H57.5272V33.5454Z" fill="white"/>
</mask>
<g mask="url(#mask61_51_2350)">
<mask id="mask62_51_2350" style="mask-type:luminance" maskUnits="userSpaceOnUse" x="31" y="27" width="27" height="7">
<path d="M31.5918 27.5746H57.5204V33.5508H31.5918V27.5746Z" fill="white"/>
</mask>
<g mask="url(#mask62_51_2350)">
<mask id="mask63_51_2350" style="mask-type:luminance" maskUnits="userSpaceOnUse" x="31" y="27" width="27" height="7">
<path d="M31.5918 33.5503V27.5748H57.5204V33.5503H31.5918Z" fill="white"/>
</mask>
<g mask="url(#mask63_51_2350)">
<path d="M31.5918 27.5746H57.5204V33.5508H31.5918V27.5746Z" fill="url(#paint13_linear_51_2350)"/>
</g>
</g>
</g>
</g>
</g>
</g>
</g>
</g>
</mask>
<g mask="url(#mask55_51_2350)">
<mask id="mask64_51_2350" style="mask-type:luminance" maskUnits="userSpaceOnUse" x="38" y="24" width="22" height="13">
<path d="M38.8564 24.3519H59.3939V36.7563H38.8564V24.3519Z" fill="white"/>
</mask>
<g mask="url(#mask64_51_2350)">
<mask id="mask65_51_2350" style="mask-type:luminance" maskUnits="userSpaceOnUse" x="39" y="29" width="20" height="5">
<path d="M39.5156 33.2852H58.1871V29.2733H39.5156V33.2852Z" fill="white"/>
</mask>
<g mask="url(#mask65_51_2350)">
<path d="M40.4625 29.3208L40.5198 29.3276C40.5675 29.3296 40.6149 29.3349 40.6619 29.3433C40.6789 29.3433 40.694 29.3467 40.7076 29.3488L40.9691 29.3829C40.9841 29.3863 40.9985 29.3863 41.0121 29.3911L41.232 29.4273C41.2497 29.4329 41.268 29.4366 41.2866 29.4382L41.7932 29.5495L41.8396 29.5604L42.0445 29.6178C42.0649 29.6233 42.0806 29.6267 42.0991 29.6355L42.3415 29.7038C42.3442 29.7079 42.3483 29.7079 42.3578 29.7107L42.5627 29.783L42.6446 29.8103L42.7948 29.8786C42.8221 29.8854 42.8515 29.8964 42.8808 29.908L43.0816 29.9919L43.1792 30.0343L43.3021 30.0862C43.3362 30.1053 43.3752 30.1217 43.4086 30.1374L43.5165 30.192C44.3891 30.6208 45.1927 31.1902 45.9355 31.8853C46.2019 31.6049 46.4882 31.3443 46.7924 31.1055C45.1674 29.9537 43.324 29.2962 41.1992 29.2962C40.9515 29.2955 40.7038 29.306 40.457 29.3276" fill="#7DCBEC"/>
<path d="M45.9411 31.8787C46.3965 32.3033 46.8328 32.7751 47.2383 33.2852L48.4305 32.4904C47.9102 31.9702 47.3606 31.5031 46.7905 31.099C46.4941 31.3311 46.2087 31.5905 45.9336 31.8787" fill="#5EC5ED"/>
<mask id="mask66_51_2350" style="mask-type:luminance" maskUnits="userSpaceOnUse" x="39" y="29" width="15" height="3">
<path d="M40.4622 29.3212L41.2044 29.2898C43.3291 29.2898 45.1644 29.9473 46.7976 31.0991C48.5147 29.7473 50.589 29.2734 53.4702 29.2734H39.5166C39.8375 29.2734 40.1529 29.2912 40.4622 29.3212Z" fill="white"/>
</mask>
<g mask="url(#mask66_51_2350)">
<mask id="mask67_51_2350" style="mask-type:luminance" maskUnits="userSpaceOnUse" x="38" y="24" width="17" height="13">
<path d="M41.5513 24.3519L54.1039 29.558L51.409 36.0552L38.8564 30.8484L41.5513 24.3519Z" fill="white"/>
</mask>
<g mask="url(#mask67_51_2350)">
<mask id="mask68_51_2350" style="mask-type:luminance" maskUnits="userSpaceOnUse" x="38" y="24" width="17" height="13">
<path d="M41.5513 24.3518L54.1039 29.5585L51.409 36.0557L38.8564 30.8489L41.5513 24.3518Z" fill="white"/>
</mask>
<g mask="url(#mask68_51_2350)">
<path d="M41.5513 24.3519L54.1039 29.558L51.409 36.0552L38.8564 30.8484L41.5513 24.3519Z" fill="url(#paint14_linear_51_2350)"/>
</g>
</g>
</g>
<mask id="mask69_51_2350" style="mask-type:luminance" maskUnits="userSpaceOnUse" x="46" y="29" width="13" height="4">
<path d="M53.4705 29.2731C50.5892 29.2731 48.515 29.7462 46.7979 31.0988C47.368 31.503 47.9176 31.97 48.4379 32.4902C50.8255 30.9704 53.1919 29.9654 55.5249 29.527C56.4159 29.3591 57.3042 29.2744 58.1795 29.2744H53.4705V29.2731Z" fill="white"/>
</mask>
<g mask="url(#mask69_51_2350)">
<mask id="mask70_51_2350" style="mask-type:luminance" maskUnits="userSpaceOnUse" x="45" y="24" width="15" height="13">
<path d="M45.5928 29.8001L56.2439 24.9729L59.3941 31.9214L48.743 36.7485L45.5928 29.8001Z" fill="white"/>
</mask>
<g mask="url(#mask70_51_2350)">
<mask id="mask71_51_2350" style="mask-type:luminance" maskUnits="userSpaceOnUse" x="45" y="24" width="15" height="13">
<path d="M45.5928 29.8001L56.2439 24.9716L59.3935 31.92L48.7424 36.7485L45.5928 29.8001Z" fill="white"/>
</mask>
<g mask="url(#mask71_51_2350)">
<path d="M45.5928 29.8001L56.2439 24.9729L59.3941 31.9214L48.743 36.7485L45.5928 29.8001Z" fill="url(#paint15_linear_51_2350)"/>
</g>
</g>
</g>
</g>
</g>
</g>
<mask id="mask72_51_2350" style="mask-type:luminance" maskUnits="userSpaceOnUse" x="60" y="31" width="63" height="35">
<mask id="mask73_51_2350" style="mask-type:luminance" maskUnits="userSpaceOnUse" x="60" y="31" width="63" height="35">
<path d="M60.9355 31.6013H122.043V65.1475H60.9355V31.6013Z" fill="white"/>
</mask>
<g mask="url(#mask73_51_2350)">
<mask id="mask74_51_2350" style="mask-type:luminance" maskUnits="userSpaceOnUse" x="60" y="30" width="63" height="36">
<path d="M60.2744 30.9436H122.727V65.8301H60.2744V30.9436Z" fill="white"/>
</mask>
<g mask="url(#mask74_51_2350)">
<mask id="mask75_51_2350" style="mask-type:luminance" maskUnits="userSpaceOnUse" x="60" y="31" width="63" height="35">
<path d="M60.9355 65.1221H122.031V31.6012H60.9355V65.1221Z" fill="white"/>
</mask>
<g mask="url(#mask75_51_2350)">
<mask id="mask76_51_2350" style="mask-type:luminance" maskUnits="userSpaceOnUse" x="60" y="31" width="63" height="35">
<path d="M60.9355 31.6013H122.043V65.1475H60.9355V31.6013Z" fill="white"/>
</mask>
<g mask="url(#mask76_51_2350)">
<mask id="mask77_51_2350" style="mask-type:luminance" maskUnits="userSpaceOnUse" x="60" y="31" width="63" height="35">
<path d="M60.9355 65.1221H122.031V31.6012H60.9355V65.1221Z" fill="white"/>
</mask>
<g mask="url(#mask77_51_2350)">
<mask id="mask78_51_2350" style="mask-type:luminance" maskUnits="userSpaceOnUse" x="60" y="31" width="63" height="35">
<path d="M122.027 65.1221H60.9404V31.6012H122.027V65.1221Z" fill="white"/>
</mask>
<g mask="url(#mask78_51_2350)">
<mask id="mask79_51_2350" style="mask-type:luminance" maskUnits="userSpaceOnUse" x="60" y="31" width="63" height="35">
<path d="M60.957 31.6265H122.044V65.1475H60.957V31.6272V31.6265Z" fill="white"/>
</mask>
<g mask="url(#mask79_51_2350)">
<mask id="mask80_51_2350" style="mask-type:luminance" maskUnits="userSpaceOnUse" x="60" y="31" width="63" height="35">
<path d="M60.958 65.1475V31.6272H122.045V65.1475H60.958Z" fill="white"/>
</mask>
<g mask="url(#mask80_51_2350)">
<path d="M60.957 31.6265H122.044V65.1475H60.957V31.6272V31.6265Z" fill="url(#paint16_linear_51_2350)"/>
</g>
</g>
</g>
</g>
</g>
</g>
</g>
</g>
</mask>
<g mask="url(#mask72_51_2350)">
<mask id="mask81_51_2350" style="mask-type:luminance" maskUnits="userSpaceOnUse" x="79" y="28" width="24" height="36">
<path d="M79.793 28.3978H102.261V63.0732H79.793V28.3978Z" fill="white"/>
</mask>
<g mask="url(#mask81_51_2350)">
<mask id="mask82_51_2350" style="mask-type:luminance" maskUnits="userSpaceOnUse" x="79" y="28" width="24" height="36">
<path d="M79.7939 63.0732H102.156V28.408H79.7939V63.0732Z" fill="white"/>
</mask>
<g mask="url(#mask82_51_2350)">
<mask id="mask83_51_2350" style="mask-type:luminance" maskUnits="userSpaceOnUse" x="79" y="28" width="24" height="36">
<path d="M87.6679 53.8751L92.0875 39.7856C93.6715 34.714 96.4797 30.9254 101.754 29.2697L102.159 28.408C93.5561 28.9221 89.5462 33.2966 87.5239 39.7706C83.9885 51.0757 81.8474 58.4045 79.7861 63.0732C82.4195 60.5552 85.0516 57.465 87.6679 53.8751Z" fill="white"/>
</mask>
<g mask="url(#mask83_51_2350)">
<mask id="mask84_51_2350" style="mask-type:luminance" maskUnits="userSpaceOnUse" x="79" y="28" width="24" height="36">
<path d="M102.261 63.063H79.8867V28.3978H102.261V63.063Z" fill="white"/>
</mask>
<g mask="url(#mask84_51_2350)">
<mask id="mask85_51_2350" style="mask-type:luminance" maskUnits="userSpaceOnUse" x="79" y="28" width="24" height="36">
<path d="M102.261 28.3987V63.0625H79.8867V28.3987H102.261Z" fill="white"/>
</mask>
<g mask="url(#mask85_51_2350)">
<path d="M102.261 63.063H79.8867V28.3978H102.261V63.063Z" fill="url(#paint17_linear_51_2350)"/>
</g>
</g>
</g>
</g>
</g>
</g>
<path d="M100.567 70.1222L100.433 70.4592H100.42C100.401 70.3843 100.366 70.2735 100.297 70.1293L99.4568 68.2175H99.0329V70.9579H99.3388V69.1226L99.3252 68.5857H99.3317C99.3612 68.7168 99.3891 68.8113 99.4153 68.8697L100.352 70.9589H100.508L101.441 68.8539C101.467 68.7992 101.494 68.7118 101.527 68.5807H101.532L101.507 69.1128V70.9535H101.827V68.2131H101.423L100.565 70.1183L100.567 70.1222ZM96.7012 68.5087H97.491V70.9579H97.8187V68.5087H98.6053V68.217H96.7044V68.5087H96.7012ZM116.613 67.012C116.326 67.007 116.042 67.0621 115.778 67.1739C115.514 67.2857 115.276 67.4516 115.081 67.6609C114.661 68.0952 114.452 68.6168 114.452 69.234C114.452 69.8349 114.66 70.3565 115.081 70.7962C115.501 71.2359 116.011 71.4555 116.613 71.4555C116.906 71.4603 117.198 71.4042 117.469 71.2907C117.739 71.1772 117.984 71.0088 118.186 70.7962C118.62 70.357 118.842 69.8365 118.842 69.234C118.842 68.6316 118.626 68.1088 118.186 67.6697C117.984 67.4568 117.74 67.2883 117.469 67.1751C117.198 67.0619 116.906 67.0063 116.613 67.012ZM170.641 45.7972H178.776V71.0016H182.08V45.7972H190.2V42.8095H170.646V45.7972H170.641ZM155.893 58.1634H166.075V55.1757H155.893V45.7972H166.883V42.8095H152.6V71.0016H167.541V68.0138H155.907V58.1629L155.893 58.1634ZM143.065 62.6664L143.263 66.8105H143.186C142.99 66.4281 142.607 65.8044 142.039 64.9261L127.925 42.8046H123.651V70.9966H126.955V50.6388L126.798 46.7679H126.918C127.167 47.4097 127.46 47.9979 127.8 48.5376L142.35 71.0087H146.359V42.8166H143.081V62.673L143.065 62.6664ZM182.105 37.172C182.105 38.6818 182.774 39.4372 184.115 39.4372C184.593 39.4372 184.978 39.3552 185.27 39.1886V38.1399C185.045 38.3054 184.78 38.3884 184.475 38.3884C184.065 38.3884 183.774 38.2792 183.597 38.0596C183.421 37.8411 183.336 37.4774 183.336 36.9672V32.6358H185.269V31.5941H183.336V29.3219L182.104 29.7206V31.5941H180.786V32.6358H182.104V37.178L182.105 37.172ZM177.08 39.2668H178.309V32.6303H180.109V31.5887H178.309V30.4056C178.309 29.3208 178.736 28.7779 179.597 28.7779C179.882 28.7735 180.163 28.8432 180.413 28.98V27.8701C180.198 27.7827 179.902 27.7368 179.523 27.7368C178.868 27.7368 178.321 27.9427 177.865 28.3595C177.338 28.8374 177.08 29.5065 177.08 30.3444V31.5898H175.769V32.6314H177.08V39.2679V39.2668ZM168.7 35.4706C168.7 34.4907 168.94 33.7358 169.424 33.2005C169.885 32.7008 170.497 32.4506 171.262 32.4506C172.035 32.4506 172.639 32.6975 173.068 33.1923C173.513 33.708 173.735 34.4574 173.735 35.4416C173.735 36.3811 173.527 37.1043 173.112 37.6167C172.688 38.141 172.072 38.4032 171.262 38.4032C170.482 38.4032 169.861 38.1443 169.392 37.6265C168.93 37.1109 168.7 36.3899 168.7 35.4711M173.96 38.342C174.649 37.6046 174.998 36.6215 174.998 35.3925C174.998 34.1488 174.673 33.1694 174.033 32.4593C173.388 31.7526 172.497 31.3964 171.357 31.3964C170.191 31.3964 169.26 31.7378 168.568 32.4151C167.819 33.147 167.442 34.1772 167.442 35.5121C167.442 36.6832 167.773 37.6249 168.433 38.3377C169.106 39.0772 170.017 39.4465 171.177 39.4465C172.346 39.4465 173.277 39.0761 173.965 38.3377M165.524 38.7724C165.75 38.5808 165.931 38.3409 166.054 38.0704C166.176 37.7999 166.236 37.5054 166.23 37.2086C166.23 36.6373 166.041 36.1676 165.665 35.7994C165.378 35.5072 164.905 35.2226 164.248 34.9495C163.665 34.701 163.277 34.4869 163.101 34.3104C162.897 34.122 162.793 33.8571 162.793 33.5184C162.79 33.3696 162.822 33.2221 162.886 33.0877C162.95 32.9533 163.045 32.8358 163.162 32.7445C163.406 32.5462 163.733 32.4468 164.146 32.4468C164.803 32.4468 165.382 32.6281 165.893 32.9941V31.7558C165.409 31.5155 164.863 31.3964 164.252 31.3964C163.456 31.3964 162.807 31.6067 162.302 32.0322C161.797 32.4577 161.545 32.9853 161.545 33.6162C161.545 34.1859 161.709 34.654 162.033 35.0036C162.303 35.304 162.761 35.5919 163.399 35.8742C164.023 36.1484 164.444 36.3822 164.658 36.5843C164.873 36.7864 164.982 37.0213 164.982 37.3261C164.982 38.0405 164.495 38.3994 163.521 38.3994C162.792 38.3994 162.128 38.1536 161.525 37.6642V38.986C162.071 39.2952 162.702 39.4481 163.437 39.4481C164.323 39.4481 165.028 39.2296 165.542 38.7735M154.584 33.2022C155.043 32.7024 155.655 32.4522 156.419 32.4522C157.195 32.4522 157.796 32.6991 158.222 33.194C158.659 33.7096 158.888 34.459 158.888 35.4433C158.888 36.3828 158.681 37.1059 158.266 37.6183C157.842 38.1426 157.228 38.4048 156.416 38.4048C155.634 38.4048 155.012 38.1459 154.55 37.6281C154.084 37.1125 153.853 36.3915 153.853 35.4728C153.853 34.4929 154.096 33.738 154.58 33.2027M156.324 39.4536C157.493 39.4536 158.423 39.0832 159.11 38.3448C159.797 37.6063 160.148 36.6242 160.148 35.3952C160.148 34.1515 159.82 33.1721 159.186 32.4621C158.542 31.7553 157.648 31.3991 156.502 31.3991C155.339 31.3991 154.41 31.7405 153.717 32.4178C152.966 33.1497 152.592 34.1799 152.592 35.5148C152.592 36.6859 152.922 37.6276 153.575 38.3404C154.248 39.08 155.159 39.4492 156.318 39.4492M150.109 31.8656C149.735 32.1715 149.458 32.6014 149.277 33.1634H149.246V31.5794H148.018V39.2591H149.246V35.3428C149.246 34.4525 149.437 33.756 149.825 33.2508C150.165 32.8018 150.59 32.5779 151.083 32.5779C151.494 32.5779 151.806 32.6582 152.023 32.8237V31.5488C151.856 31.48 151.613 31.4396 151.287 31.4396C150.852 31.4396 150.459 31.5794 150.11 31.8591M144.055 39.4366C144.867 39.4366 145.569 39.2575 146.158 38.8904V37.7215C145.568 38.1618 144.941 38.377 144.268 38.377C143.473 38.377 142.848 38.1175 142.369 37.5975C141.891 37.0775 141.659 36.3697 141.659 35.4755C141.659 34.5459 141.92 33.8003 142.433 33.2432C142.926 32.698 143.562 32.4249 144.344 32.4249C145 32.4249 145.602 32.6237 146.174 33.0258V31.7695C145.658 31.5117 145.065 31.3795 144.398 31.3795C143.178 31.3795 142.213 31.7618 141.487 32.5413C140.762 33.3158 140.402 34.3328 140.402 35.5908C140.402 36.7116 140.733 37.6281 141.385 38.3355C142.062 39.0652 142.947 39.4301 144.049 39.4301M137.263 39.2454H138.49V31.5657H137.263V39.2454ZM137.891 29.618C138.116 29.618 138.309 29.5399 138.465 29.3842C138.621 29.2285 138.701 29.0401 138.701 28.8145C138.703 28.709 138.683 28.6044 138.642 28.5071C138.602 28.4098 138.541 28.322 138.465 28.2492C138.39 28.1745 138.3 28.1157 138.202 28.0765C138.103 28.0373 137.998 28.0183 137.892 28.0208C137.673 28.0208 137.482 28.0957 137.325 28.2492C137.249 28.322 137.189 28.4099 137.149 28.5072C137.108 28.6045 137.089 28.7092 137.091 28.8145C137.091 29.051 137.17 29.2422 137.325 29.3924C137.48 29.5426 137.672 29.618 137.892 29.618M124.857 32.0393L124.799 29.9419H124.826C124.935 30.4466 125.045 30.8158 125.146 31.0452L128.821 39.2471H129.436L133.103 30.9851C133.198 30.7694 133.307 30.4225 133.425 29.9473H133.454L133.349 32.0311V39.252H134.605V28.4999H133.021L129.653 35.9666C129.522 36.256 129.353 36.6963 129.137 37.2846H129.085C129.007 36.9918 128.846 36.5625 128.597 35.9977L125.297 28.4993H123.633V39.2515H124.849V32.0448L124.857 32.0393ZM186.899 30.7142C187.243 30.3679 187.675 30.1953 188.194 30.1953C188.43 30.1905 188.666 30.2336 188.886 30.322C189.105 30.4104 189.305 30.5423 189.473 30.7098C189.821 31.0539 189.995 31.4854 189.995 31.9989C189.995 32.5123 189.821 32.9482 189.469 33.2907C189.118 33.6403 188.691 33.8129 188.193 33.8129C187.69 33.8129 187.263 33.6424 186.915 33.2972C186.563 32.952 186.384 32.5161 186.384 31.9989C186.384 31.4909 186.555 31.0616 186.897 30.7137M188.183 34.0199C188.764 34.0199 189.25 33.8232 189.646 33.4343C190.042 33.0454 190.247 32.5631 190.247 31.9869C190.247 31.4013 190.048 30.9163 189.649 30.5339C189.26 30.1603 188.779 29.9713 188.204 29.9713C187.62 29.9713 187.131 30.168 186.738 30.5613C186.546 30.7491 186.395 30.9742 186.294 31.2227C186.192 31.4711 186.143 31.7377 186.149 32.006C186.149 32.5888 186.34 33.0695 186.727 33.4518C187.114 33.8303 187.601 34.0215 188.188 34.0215M187.759 30.9846H188.083C188.301 30.9846 188.467 31.0228 188.561 31.0938C188.645 31.1648 188.687 31.2697 188.687 31.4193C188.687 31.717 188.509 31.8656 188.149 31.8656H187.759V30.9791V30.9846ZM187.759 32.1819H187.998C188.166 32.1819 188.326 32.337 188.462 32.6516L188.746 33.2743H189.183L188.842 32.5817C188.7 32.2955 188.555 32.1354 188.405 32.101V32.0901C188.612 32.0464 188.776 31.9612 188.896 31.8345C189.017 31.7078 189.071 31.5586 189.071 31.3789C189.074 31.2864 189.057 31.1943 189.02 31.1093C188.983 31.0243 188.928 30.9485 188.858 30.8873C188.69 30.7399 188.446 30.6689 188.119 30.6689H187.387V33.2716H187.753V32.1791L187.759 32.1819Z" fill="#231F20"/>
</g>
<defs>
<linearGradient id="paint0_linear_51_2350" x1="3598.61" y1="-14408.1" x2="3598.61" y2="-11737.5" gradientUnits="userSpaceOnUse">
<stop stop-color="#0994DC"/>
<stop offset="0.11" stop-color="#0994DC"/>
<stop offset="0.35" stop-color="#66CEF5"/>
<stop offset="0.45" stop-color="#66CEF5"/>
<stop offset="0.846" stop-color="#127BCA"/>
<stop offset="1" stop-color="#127BCA"/>
</linearGradient>
<linearGradient id="paint1_linear_51_2350" x1="3839.34" y1="-14844.5" x2="3839.34" y2="-12036" gradientUnits="userSpaceOnUse">
<stop stop-color="#0E76BC"/>
<stop offset="0.176" stop-color="#0E76BC"/>
<stop offset="0.36" stop-color="#36AEE8"/>
<stop offset="0.52" stop-color="#36AEE8"/>
<stop offset="0.846" stop-color="#00ADEF"/>
<stop offset="1" stop-color="#00ADEF"/>
</linearGradient>
<linearGradient id="paint2_linear_51_2350" x1="3846.47" y1="-15714.3" x2="3846.47" y2="-12686.8" gradientUnits="userSpaceOnUse">
<stop stop-color="#166AB8"/>
<stop offset="0.099" stop-color="#166AB8"/>
<stop offset="0.4" stop-color="#36AEE8"/>
<stop offset="0.516" stop-color="#36AEE8"/>
<stop offset="0.846" stop-color="#0798DD"/>
<stop offset="1" stop-color="#0798DD"/>
</linearGradient>
<linearGradient id="paint3_linear_51_2350" x1="4799.14" y1="-16696" x2="4799.14" y2="-13272.8" gradientUnits="userSpaceOnUse">
<stop stop-color="#124379"/>
<stop offset="0.11" stop-color="#124379"/>
<stop offset="0.39" stop-color="#1487CB"/>
<stop offset="0.52" stop-color="#1487CB"/>
<stop offset="0.78" stop-color="#165197"/>
<stop offset="1" stop-color="#165197"/>
</linearGradient>
<linearGradient id="paint4_linear_51_2350" x1="2890.54" y1="-11193.6" x2="2890.54" y2="-13166.5" gradientUnits="userSpaceOnUse">
<stop stop-color="#318ED5"/>
<stop offset="0.675" stop-color="#38A7E4"/>
<stop offset="1" stop-color="#38A7E4"/>
</linearGradient>
<linearGradient id="paint5_linear_51_2350" x1="13532" y1="-36847.7" x2="8033.55" y2="-27143" gradientUnits="userSpaceOnUse">
<stop stop-color="#231F20"/>
<stop offset="0.129" stop-color="white"/>
<stop offset="0.4" stop-color="white"/>
<stop offset="1" stop-color="white"/>
</linearGradient>
<linearGradient id="paint6_linear_51_2350" x1="2769.1" y1="-8633.36" x2="2769.1" y2="-10117.3" gradientUnits="userSpaceOnUse">
<stop stop-color="#05A1E6"/>
<stop offset="1" stop-color="#05A1E6"/>
</linearGradient>
<linearGradient id="paint7_linear_51_2350" x1="3261.6" y1="-12175.3" x2="3261.6" y2="-13955.4" gradientUnits="userSpaceOnUse">
<stop stop-color="#1959A6"/>
<stop offset="0.154" stop-color="#1959A6"/>
<stop offset="0.484" stop-color="#05A1E6"/>
<stop offset="0.5" stop-color="#05A1E6"/>
<stop offset="0.918" stop-color="#7EC5EA"/>
<stop offset="1" stop-color="#7EC5EA"/>
</linearGradient>
<linearGradient id="paint8_linear_51_2350" x1="6662.8" y1="-18811.3" x2="6064.55" y2="-21729" gradientUnits="userSpaceOnUse">
<stop stop-color="#165096"/>
<stop offset="0.104" stop-color="#165096"/>
<stop offset="1" stop-color="#0D82CA"/>
</linearGradient>
<linearGradient id="paint9_linear_51_2350" x1="3412.74" y1="-9441.33" x2="3412.74" y2="-10153.1" gradientUnits="userSpaceOnUse">
<stop stop-color="#05A1E6"/>
<stop offset="0.649" stop-color="#05A1E6"/>
<stop offset="0.874" stop-color="#0495D6"/>
<stop offset="1" stop-color="#0495D6"/>
</linearGradient>
<linearGradient id="paint10_linear_51_2350" x1="15463.1" y1="-8905.32" x2="15463.1" y2="-8241.71" gradientUnits="userSpaceOnUse">
<stop stop-color="#231F20"/>
<stop offset="1" stop-color="white"/>
</linearGradient>
<linearGradient id="paint11_linear_51_2350" x1="10081.7" y1="-20918.5" x2="9352.64" y2="-17622" gradientUnits="userSpaceOnUse">
<stop stop-color="#38A7E4"/>
<stop offset="0.357" stop-color="#38A7E4"/>
<stop offset="0.962" stop-color="#0E88D3"/>
<stop offset="1" stop-color="#0E88D3"/>
</linearGradient>
<linearGradient id="paint12_linear_51_2350" x1="7304.32" y1="-17449.3" x2="7304.32" y2="-14785.9" gradientUnits="userSpaceOnUse">
<stop stop-color="#168CD4"/>
<stop offset="0.5" stop-color="#1C87CC"/>
<stop offset="1" stop-color="#154B8D"/>
</linearGradient>
<linearGradient id="paint13_linear_51_2350" x1="4246.41" y1="-2401.33" x2="4246.41" y2="-2453.64" gradientUnits="userSpaceOnUse">
<stop stop-color="white"/>
<stop offset="0.363" stop-color="white"/>
<stop offset="1" stop-color="#918F90"/>
</linearGradient>
<linearGradient id="paint14_linear_51_2350" x1="2456.54" y1="-4838.36" x2="2657.63" y2="-4729.68" gradientUnits="userSpaceOnUse">
<stop stop-color="#97D6EE"/>
<stop offset="0.703" stop-color="#55C1EA"/>
<stop offset="1" stop-color="#55C1EA"/>
</linearGradient>
<linearGradient id="paint15_linear_51_2350" x1="2350.37" y1="-4783.08" x2="2499.36" y2="-4862.24" gradientUnits="userSpaceOnUse">
<stop stop-color="#7ACCEC"/>
<stop offset="0.335" stop-color="#7ACCEC"/>
<stop offset="0.841" stop-color="#3FB7ED"/>
<stop offset="1" stop-color="#3FB7ED"/>
</linearGradient>
<linearGradient id="paint16_linear_51_2350" x1="14191.1" y1="-12040.9" x2="14191.1" y2="-13686.7" gradientUnits="userSpaceOnUse">
<stop stop-color="#231F20"/>
<stop offset="1" stop-color="white"/>
</linearGradient>
<linearGradient id="paint17_linear_51_2350" x1="5241.33" y1="-14210.1" x2="5241.33" y2="-12070" gradientUnits="userSpaceOnUse">
<stop stop-color="#1DA7E7"/>
<stop offset="1" stop-color="#37ABE7"/>
</linearGradient>
<clipPath id="clip0_51_2350">
<rect width="200" height="100" fill="white"/>
</clipPath>
</defs>
</svg>
