<svg width="97" height="100" viewBox="0 0 97 100" fill="none" xmlns="http://www.w3.org/2000/svg">
<path fill-rule="evenodd" clip-rule="evenodd" d="M95.4346 22.2382C95.47 22.3693 95.4881 22.5044 95.4885 22.6401V43.7401C95.4885 44.011 95.417 44.277 95.2813 44.5113C95.1455 44.7457 94.9503 44.94 94.7154 45.0748L77.0058 55.2709V75.4805C77.0058 76.0305 76.7135 76.5382 76.2365 76.8151L39.2692 98.0959C39.1846 98.144 39.0923 98.1748 39 98.2074C38.9654 98.219 38.9327 98.2401 38.8962 98.2498C38.6377 98.3178 38.3661 98.3178 38.1077 98.2498C38.0654 98.2382 38.0269 98.2151 37.9865 98.1998C37.9019 98.169 37.8135 98.1421 37.7327 98.0959L0.773077 76.8151C0.538283 76.6803 0.343194 76.4859 0.20747 76.2516C0.0717469 76.0172 0.000186037 75.7513 0 75.4805L0 12.1805C0 12.0421 0.0192308 11.9074 0.0538462 11.7767C0.0653846 11.7324 0.0923077 11.6921 0.107692 11.6478C0.136538 11.5671 0.163462 11.4844 0.205769 11.4094C0.234615 11.3594 0.276923 11.319 0.311538 11.2728C0.355769 11.2113 0.396154 11.1478 0.448077 11.094C0.492308 11.0498 0.55 11.0171 0.6 10.9786C0.655769 10.9324 0.705769 10.8824 0.769231 10.8459L19.2519 0.205522C19.4859 0.0708688 19.7512 0 20.0212 0C20.2911 0 20.5564 0.0708688 20.7904 0.205522L39.2712 10.8459H39.275C39.3365 10.8844 39.3885 10.9324 39.4442 10.9767C39.4942 11.0151 39.55 11.0498 39.5942 11.0921C39.6481 11.1478 39.6865 11.2113 39.7327 11.2728C39.7654 11.319 39.8096 11.3594 39.8365 11.4094C39.8808 11.4863 39.9058 11.5671 39.9365 11.6478C39.9519 11.6921 39.9788 11.7324 39.9904 11.7786C40.0258 11.9097 40.0439 12.0448 40.0442 12.1805V51.7171L55.4442 42.8498V22.6382C55.4442 22.5036 55.4635 22.3671 55.4981 22.2382C55.5115 22.1921 55.5365 22.1517 55.5519 22.1074C55.5827 22.0267 55.6096 21.944 55.6519 21.869C55.6808 21.819 55.7231 21.7786 55.7558 21.7324C55.8019 21.6709 55.8404 21.6074 55.8942 21.5536C55.9385 21.5094 55.9942 21.4767 56.0442 21.4382C56.1019 21.3921 56.1519 21.3421 56.2135 21.3055L74.6981 10.6651C74.932 10.5303 75.1973 10.4593 75.4673 10.4593C75.7373 10.4593 76.0026 10.5303 76.2365 10.6651L94.7173 21.3055C94.7827 21.344 94.8327 21.3921 94.8904 21.4363C94.9385 21.4748 94.9942 21.5094 95.0385 21.5517C95.0923 21.6074 95.1308 21.6709 95.1769 21.7324C95.2115 21.7786 95.2539 21.819 95.2808 21.869C95.325 21.944 95.35 22.0267 95.3808 22.1074C95.3981 22.1517 95.4231 22.1921 95.4346 22.2382ZM92.4077 42.8498V25.3036L85.9404 29.0267L77.0058 34.1709V51.7171L92.4096 42.8498H92.4077ZM73.9269 74.5901V57.0324L65.1385 62.0517L40.0423 76.3748V94.0978L73.9269 74.5901ZM3.08077 14.844V74.5901L36.9615 94.0959V76.3767L19.2615 66.3594L19.2558 66.3555L19.2481 66.3517C19.1885 66.3171 19.1385 66.2671 19.0827 66.2248C19.0346 66.1863 18.9788 66.1555 18.9365 66.1132L18.9327 66.1074C18.8827 66.0594 18.8481 65.9998 18.8058 65.9459C18.7673 65.894 18.7212 65.8498 18.6904 65.7959L18.6885 65.7901C18.6538 65.7324 18.6327 65.6632 18.6077 65.5978C18.5827 65.5401 18.55 65.4863 18.5346 65.4248C18.5154 65.3517 18.5115 65.2728 18.5038 65.1978C18.4962 65.1401 18.4808 65.0824 18.4808 65.0248V65.0209V23.7113L9.54808 18.5651L3.08077 14.844ZM20.0231 3.31706L4.625 12.1805L20.0192 21.044L35.4154 12.1786L20.0192 3.31706H20.0231ZM28.0308 58.6324L36.9635 53.4901V14.844L30.4962 18.5671L21.5615 23.7113V62.3574L28.0308 58.6324ZM75.4673 13.7767L60.0712 22.6401L75.4673 31.5036L90.8615 22.6382L75.4673 13.7767ZM73.9269 34.1709L64.9923 29.0267L58.525 25.3036V42.8498L67.4577 47.9921L73.9269 51.7171V34.1709ZM38.5 73.7113L61.0827 60.819L72.3712 54.3767L56.9865 45.519L39.2731 55.7171L23.1288 65.0113L38.5 73.7113Z" fill="#FF2D20"/>
</svg>
