<svg width="100" height="100" viewBox="0 0 100 100" fill="none" xmlns="http://www.w3.org/2000/svg">
<g clip-path="url(#clip0_51_2243)">
<path d="M0 49.9998C0 64.5259 22.3863 76.3018 49.9999 76.3018C77.6136 76.3018 100 64.5259 100 49.9998C100 35.4741 77.6136 23.6979 49.9999 23.6979C22.3863 23.6982 0 35.4741 0 49.9998Z" fill="url(#paint0_radial_51_2243)"/>
<path d="M49.9999 74.3491C76.535 74.3491 98.0468 63.4476 98.0468 50C98.0468 36.5527 76.535 25.6509 49.9999 25.6509C23.4648 25.6509 1.95312 36.5527 1.95312 50C1.95312 63.4478 23.4648 74.3491 49.9999 74.3491Z" fill="#777BB3"/>
<path d="M27.1648 53.0189C29.3466 53.0189 30.9755 52.6166 32.0061 51.8234C33.0256 51.0383 33.7298 49.6783 34.0989 47.781C34.4431 46.0076 34.3121 44.7693 33.7093 44.1012C33.0931 43.4188 31.7611 43.0727 29.7499 43.0727H26.2631L24.3301 53.0192L27.1648 53.0189ZM15.7602 65.271C15.5984 65.271 15.4446 65.1986 15.3417 65.0735C15.2386 64.9486 15.1968 64.7841 15.2278 64.625L20.3509 38.2668C20.4005 38.0121 20.6237 37.8278 20.8835 37.8278H31.9249C35.3949 37.8278 37.9778 38.7701 39.6011 40.6286C41.2332 42.4968 41.7372 45.1086 41.099 48.3906C40.8394 49.7276 40.3926 50.9696 39.7715 52.0815C39.1497 53.1947 38.3276 54.2245 37.3281 55.1433C36.1316 56.2631 34.7775 57.0751 33.3069 57.553C31.8596 58.0245 30.001 58.2635 27.7825 58.2635H23.3115L22.0346 64.832C21.985 65.0869 21.7618 65.271 21.5022 65.271H15.7602Z" fill="black"/>
<path d="M26.7112 43.6149H29.7507C32.1777 43.6149 33.021 44.1475 33.3075 44.4648C33.7827 44.9918 33.8724 46.103 33.5671 47.6779C33.2239 49.441 32.5876 50.6913 31.6759 51.3933C30.7424 52.1119 29.2247 52.4761 27.1653 52.4761H24.9891L26.7112 43.6149ZM31.925 37.2853H20.8836C20.3642 37.2853 19.9176 37.6534 19.8186 38.1633L14.6957 64.5216C14.6339 64.8396 14.7175 65.1687 14.9233 65.4187C15.1294 65.6688 15.4366 65.8135 15.7607 65.8135H21.5025C22.0222 65.8135 22.4685 65.4454 22.5678 64.9355L23.7591 58.8058H27.7828C30.0582 58.8058 31.9736 58.5577 33.4757 58.0686C35.0202 57.5667 36.4414 56.7159 37.699 55.5396C38.7393 54.5827 39.5961 53.5084 40.2453 52.3463C40.8947 51.1841 41.3614 49.8878 41.6319 48.4941C42.3039 45.0392 41.7581 42.2727 40.0099 40.2718C38.2788 38.2901 35.5585 37.2853 31.925 37.2853ZM23.6726 53.5612H27.1653C29.4804 53.5612 31.2046 53.1251 32.3376 52.253C33.4708 51.3806 34.2349 49.9245 34.6321 47.8844C35.0119 45.9255 34.8389 44.5433 34.1129 43.7378C33.3859 42.9324 31.932 42.5298 29.7507 42.5298H25.8165L23.6726 53.5612ZM31.925 38.3703C35.2466 38.3703 37.6697 39.242 39.1927 40.9855C40.7156 42.7291 41.1744 45.1627 40.5667 48.287C40.3166 49.5742 39.8935 50.7509 39.2981 51.8169C38.7019 52.8836 37.9234 53.8592 36.9613 54.7438C35.8146 55.8168 34.5411 56.5814 33.1396 57.0368C31.738 57.4934 29.9529 57.7207 27.7828 57.7207H22.8645L21.5025 64.7284H15.7607L20.8836 38.3703H31.925Z" fill="white"/>
<path d="M54.2644 58.2632C54.1024 58.2632 53.9488 58.1908 53.8459 58.0657C53.7428 57.9408 53.701 57.7763 53.7318 57.6171L55.9979 45.9547C56.2135 44.8457 56.1602 44.0495 55.8483 43.7132C55.6574 43.5076 55.0838 43.1627 53.3876 43.1627H49.2821L46.433 57.8242C46.3833 58.0791 46.1602 58.2632 45.9003 58.2632H40.2038C40.0417 58.2632 39.8882 58.1908 39.7851 58.0657C39.6819 57.9408 39.6401 57.7763 39.6712 57.6171L44.794 31.2588C44.8437 31.0041 45.0668 30.8198 45.3267 30.8198H51.0232C51.1853 30.8198 51.3388 30.8921 51.4419 31.017C51.5451 31.1422 51.5869 31.3064 51.5558 31.4658L50.3195 37.8275H54.7362C58.1008 37.8275 60.3824 38.4207 61.7111 39.6409C63.0658 40.8858 63.4882 42.8765 62.9675 45.558L60.584 57.8237C60.5344 58.0786 60.3112 58.2627 60.0514 58.2627H54.2644V58.2632Z" fill="black"/>
<path d="M51.0228 30.2774H45.3262C44.8066 30.2774 44.3602 30.6456 44.261 31.1555L39.1381 57.5138C39.0763 57.8318 39.1599 58.1608 39.3659 58.4109C39.572 58.661 39.8792 58.8057 40.2034 58.8057H45.8999C46.4193 58.8057 46.8659 58.4375 46.9652 57.9277L49.729 43.7052H53.3872C55.0804 43.7052 55.4358 44.067 55.45 44.0824C55.5526 44.1929 55.6878 44.7047 55.4649 45.8511L53.1987 57.5136C53.1369 57.8316 53.2205 58.1606 53.4265 58.4107C53.6326 58.6607 53.9399 58.8054 54.264 58.8054H60.051C60.5704 58.8054 61.017 58.4373 61.1162 57.9274L63.4995 45.6617C64.0587 42.7825 63.5804 40.6227 62.0778 39.2416C60.644 37.9248 58.2424 37.2849 54.7357 37.2849H50.9771L52.088 31.5693C52.1496 31.2513 52.0663 30.922 51.8602 30.6722C51.6539 30.4224 51.3469 30.2774 51.0228 30.2774ZM51.0228 31.3625L49.6608 38.3702H54.7357C57.929 38.3702 60.1314 38.9275 61.3435 40.0409C62.5557 41.1548 62.9189 42.9599 62.4345 45.4551L60.051 57.7206H54.264L56.5301 46.0584C56.788 44.7316 56.6932 43.8267 56.2456 43.3442C55.7976 42.8617 54.8448 42.6202 53.3874 42.6202H48.8346L45.9002 57.7206H40.2036L45.3265 31.3625H51.0228Z" fill="white"/>
<path d="M71.9813 53.0189C74.1631 53.0189 75.792 52.6166 76.8226 51.8234C77.8421 51.0385 78.5463 49.6785 78.9157 47.781C79.2598 46.0076 79.1288 44.7693 78.526 44.1012C77.9098 43.4188 76.5779 43.0727 74.5669 43.0727H71.0801L69.1471 53.0192L71.9813 53.0189ZM60.5767 65.271C60.4149 65.271 60.2611 65.1986 60.1582 65.0735C60.0551 64.9486 60.0133 64.7841 60.0441 64.625L65.167 38.2666C65.2166 38.0119 65.4397 37.8276 65.6998 37.8276H76.7409C80.2112 37.8276 82.7939 38.7699 84.4174 40.6283C86.0495 42.4965 86.5533 45.1081 85.9153 48.3903C85.6552 49.7274 85.2086 50.9694 84.5875 52.0813C83.9657 53.1945 83.1437 54.2243 82.1442 55.1431C80.9477 56.2628 79.5935 57.0749 78.123 57.5527C76.6757 58.0242 74.817 58.2633 72.5985 58.2633H68.1275L66.8514 64.832C66.8017 65.0869 66.5786 65.271 66.3185 65.271H60.5767Z" fill="black"/>
<path d="M71.5266 43.6149H74.5661C76.9934 43.6149 77.8364 44.1475 78.1229 44.4648C78.5983 44.9918 78.688 46.103 78.3825 47.6776C78.0393 49.441 77.4028 50.6913 76.4913 51.3933C75.5578 52.1119 74.0401 52.4761 71.9808 52.4761H69.8046L71.5266 43.6149ZM76.7404 37.2853H65.699C65.1796 37.2853 64.733 37.6534 64.634 38.1633L59.5112 64.5216C59.4493 64.8396 59.5329 65.1687 59.7387 65.4187C59.9448 65.6688 60.252 65.8135 60.5762 65.8135H66.3179C66.8374 65.8135 67.2839 65.4454 67.3832 64.9355L68.5743 58.8058H72.598C74.8734 58.8058 76.7888 58.5577 78.2908 58.0686C79.8354 57.5667 81.2568 56.7156 82.5147 55.5392C83.555 54.5824 84.4115 53.5084 85.0607 52.3463C85.7102 51.1841 86.1768 49.8878 86.4474 48.4941C87.1193 45.039 86.5735 42.2725 84.8253 40.2715C83.0942 38.2901 80.3742 37.2853 76.7404 37.2853ZM68.4883 53.5612H71.9808C74.2958 53.5612 76.02 53.1251 77.153 52.253C78.2864 51.3806 79.0503 49.9245 79.4475 47.8844C79.8276 45.9255 79.6545 44.5433 78.9283 43.7378C78.2014 42.9324 76.7475 42.5298 74.5661 42.5298H70.632L68.4883 53.5612ZM76.7404 38.3703C80.062 38.3703 82.4851 39.242 84.0082 40.9855C85.5312 42.7291 85.9896 45.1627 85.3821 48.287C85.1321 49.5742 84.709 50.7509 84.1135 51.8169C83.5173 52.8836 82.7388 53.8592 81.7767 54.7438C80.6301 55.8168 79.3566 56.5814 77.955 57.0368C76.5534 57.4934 74.7683 57.7207 72.5982 57.7207H67.6799L66.3182 64.7284H60.5764L65.6993 38.3703H76.7404Z" fill="white"/>
</g>
<defs>
<radialGradient id="paint0_radial_51_2243" cx="0" cy="0" r="1" gradientUnits="userSpaceOnUse" gradientTransform="translate(30.0374 33.0044) scale(82.0881 82.0881)">
<stop stop-color="#AEB2D5"/>
<stop offset="0.3" stop-color="#AEB2D5"/>
<stop offset="0.75" stop-color="#484C89"/>
<stop offset="1" stop-color="#484C89"/>
</radialGradient>
<clipPath id="clip0_51_2243">
<rect width="100" height="100" fill="white"/>
</clipPath>
</defs>
</svg>
