<svg width="100" height="100" viewBox="0 0 100 100" fill="none" xmlns="http://www.w3.org/2000/svg">
<path d="M42.7963 61.8425C42.7963 61.8425 47.2044 61.4647 47.2044 55.772C47.2044 50.0793 41.8644 49.5503 41.8644 49.5503H32.2422V67.51H37.0785V63.1775L41.2598 67.51H48.4135L42.7963 61.8425ZM40.9324 58.1649H37.0785V54.0591H40.9576C40.9576 54.0591 42.0407 54.4621 42.0407 56.0994C42.0407 57.7367 40.9324 58.1649 40.9324 58.1649ZM59.144 49.6762H54.2321C50.7309 49.6762 49.547 52.85 49.547 54.3614V67.51H54.4588V64.3614H59.0684V67.51H63.8291V54.3614C63.8291 50.5327 60.353 49.6762 59.144 49.6762ZM59.0684 59.2732H54.4336V54.9155C54.4336 54.9155 54.4336 53.9332 55.9701 53.9332H57.6578C59.018 53.9332 59.0432 54.9155 59.0432 54.9155V59.2732H59.0684ZM66.0709 49.6762H71.1843V67.51H66.0709V49.6762ZM78.3631 62.9004V49.6762H73.2749V62.9004V67.51H78.3631H85.2397V62.9004H78.3631ZM86.9273 62.9508V67.51H95.1641C96.8518 67.51 99.7485 66.2757 99.8492 62.8249V61.0616C99.8492 58.1145 97.4311 56.3765 95.1641 56.3765H91.0583V54.2606H99.1943V49.6762H91.3858C89.3707 49.6762 86.6754 51.3387 86.6754 54.4369V56.0238C86.6754 59.1221 89.3455 60.709 91.3858 60.709C97.0533 60.7342 90.0256 60.709 95.2649 60.709V62.9256L86.9273 62.9508Z" fill="#CC0000"/>
<path d="M1.76322 67.4848H21.6625C21.6625 67.4848 17.8589 50.1297 30.4534 43.102C33.199 41.767 41.9395 36.7796 56.2469 47.3589C56.7003 46.9811 57.1285 46.6788 57.1285 46.6788C57.1285 46.6788 44.0302 33.6058 29.4458 35.0667C22.1159 35.7216 13.0982 42.3967 7.80856 51.2128C2.51889 60.0289 1.76322 67.4848 1.76322 67.4848ZM43.2242 36.4773L43.3249 34.7896C43.0982 34.6637 42.4685 34.3614 40.8816 33.908L40.7809 35.5705C41.6121 35.8476 42.4181 36.1498 43.2242 36.4773ZM40.8312 41.8173L40.7305 43.4042C41.5617 43.4294 42.3929 43.5302 43.2242 43.7065L43.3249 42.1448C42.4685 41.9685 41.6373 41.8677 40.8312 41.8173ZM31.5113 33.9584H31.7632L31.2594 32.4219C30.4786 32.4219 29.6725 32.4723 28.8413 32.573L29.3199 34.0592C30.0504 33.9836 30.7809 33.9584 31.5113 33.9584ZM32.7204 43.2279L33.2997 44.966C34.0302 44.6133 34.7607 44.311 35.4912 44.0843L34.937 42.4219C34.0806 42.6738 33.3501 42.9508 32.7204 43.2279ZM21.2846 36.6032L20.1511 34.8652C19.5214 35.1927 18.8665 35.5453 18.1864 35.9483L19.3451 37.7115C20 37.3085 20.6297 36.9307 21.2846 36.6032ZM26.4484 47.9382L27.6574 49.7518C28.0856 49.1221 28.5894 48.5428 29.1436 47.9634L28.0101 46.2506C27.4307 46.7796 26.9018 47.3589 26.4484 47.9382ZM22.796 56.0491L24.8363 57.6612C24.937 56.6788 25.1134 55.6964 25.3652 54.7141L23.5516 53.2783C23.2242 54.2103 22.9975 55.1423 22.796 56.0491ZM11.7632 44.0843L9.97481 42.5226C9.3199 43.1524 8.69018 43.7821 8.11083 44.4118L10.0504 46.0743C10.5793 45.3942 11.1587 44.7141 11.7632 44.0843ZM4.15617 55.3438L1.25945 54.2859C0.780856 55.369 0.251889 56.6284 0 57.3085L2.89673 58.3665C3.22418 57.51 3.75315 56.2758 4.15617 55.3438ZM22.4181 62.4471C22.4685 63.7821 22.5945 64.8652 22.7204 65.6209L25.7431 66.704C25.5164 65.7216 25.2897 64.6133 25.1385 63.4294L22.4181 62.4471Z" fill="#CC0000"/>
</svg>
