<svg width="200" height="100" viewBox="0 0 200 100" fill="none" xmlns="http://www.w3.org/2000/svg">
<path d="M12.5088 41.8391C12.5088 41.8391 53.3127 45.9195 53.3127 52.7202V36.3986C53.3127 36.3986 53.3127 29.598 12.5088 25.5176V41.8391Z" fill="url(#paint0_linear_51_2317)"/>
<path d="M12.5088 63.6013C12.5088 63.6013 53.3127 67.6817 53.3127 74.4824V58.1608C53.3127 58.1608 53.3127 51.3602 12.5088 47.2798V63.6013Z" fill="url(#paint1_linear_51_2317)"/>
<path d="M53.3127 14.6367V30.9583C53.3127 30.9583 53.3127 37.7589 12.5088 41.8393V25.5178C12.5088 25.5178 53.3127 21.4374 53.3127 14.6367Z" fill="url(#paint2_linear_51_2317)"/>
<path d="M12.5088 47.28C12.5088 47.28 53.3127 43.1996 53.3127 36.3989V52.7205C53.3127 52.7205 53.3127 59.5211 12.5088 63.6015V47.28Z" fill="url(#paint3_linear_51_2317)"/>
<path d="M12.5088 85.3632V69.0417C12.5088 69.0417 53.3127 64.9613 53.3127 58.1606V74.4822C53.3127 74.4822 53.3127 81.2828 12.5088 85.3632Z" fill="url(#paint4_linear_51_2317)"/>
<path d="M69.0645 66.4699L70.7378 59.0799C72.7244 59.6383 74.5711 60.4399 76.5244 60.6833C78.4778 60.9266 80.4994 60.7883 82.4511 60.5783C83.5678 60.4733 84.3345 59.6016 84.4728 58.3816C84.5778 57.2149 83.9844 56.3599 83.0061 55.8716L79.2794 54.1666L74.3295 51.7966C71.0878 49.8799 69.1345 47.0899 69.3461 43.1516C69.5545 39.1766 71.5794 36.3516 74.9961 34.5416C78.2728 32.7983 81.8295 32.4149 85.4545 32.8333C87.7878 33.1116 90.0544 33.8449 92.4611 34.4366L90.5111 41.8266C88.4545 41.1983 86.5028 40.5716 84.4778 40.3599C83.0828 40.2199 81.5495 40.3599 80.2245 40.7766C78.2378 41.4049 77.9911 43.5999 79.7361 44.7516C80.9561 45.5516 82.4195 46.0416 83.7795 46.6349C85.5578 47.4716 87.4395 48.1016 89.0795 49.1449C95.7378 53.2583 95.3545 62.7749 88.4528 66.5066C84.8628 68.4233 80.9928 68.8766 77.0195 68.5283C74.3528 68.2499 71.7195 67.6916 69.0695 66.4716L69.0645 66.4699ZM144.469 67.9699H136.381L135.719 65.7366C133.698 67.7583 131.361 68.5249 128.713 68.5249C124.634 68.5249 121.636 66.3633 120.624 62.7033C119.578 58.8699 121.218 54.9983 124.668 52.9766C127.491 51.3383 130.594 50.9549 133.768 50.7099C134.151 50.6766 134.501 50.6766 134.884 50.6399C134.709 49.1733 133.873 48.5133 132.096 48.3733C129.203 48.1299 126.518 48.7566 123.729 50.1516L122.021 44.1183C124.254 43.4899 126.344 42.6183 128.538 42.3749C131.221 42.0966 134.011 42.0966 136.661 42.5499C141.088 43.3499 143.808 46.9083 144.016 51.7166C144.156 55.0633 144.121 58.4449 144.121 61.7916C144.154 63.8133 144.154 66.3249 144.471 67.9616L144.469 67.9699ZM135.231 56.4649C133.523 56.2549 132.024 56.5349 130.594 57.3366C129.618 57.8949 129.061 58.8366 129.304 59.9166C129.479 60.6133 129.933 61.4833 130.524 61.8333C132.338 62.8799 134.883 61.5549 135.161 59.4633C135.336 58.4866 135.231 57.5133 135.231 56.4633V56.4649ZM187.488 67.9349H179.399L178.738 65.7016C176.716 67.7233 174.379 68.4899 171.731 68.4899C167.653 68.4899 164.654 66.3283 163.643 62.6683C162.596 58.8349 164.236 54.9633 167.686 52.9416C170.509 51.3033 173.613 50.9199 176.786 50.6749C177.169 50.6416 177.519 50.6416 177.903 50.6049C177.728 49.1383 176.891 48.4783 175.114 48.3383C172.221 48.0949 169.536 48.7216 166.748 50.1166L165.039 44.0833C167.273 43.4549 169.363 42.5833 171.556 42.3399C174.239 42.0616 177.029 42.0616 179.679 42.5149C184.106 43.3149 186.826 46.8733 187.034 51.6816C187.174 55.0283 187.139 58.4099 187.139 61.7566C187.139 63.8133 187.173 66.2899 187.489 67.9266L187.488 67.9349ZM178.249 56.4299C176.541 56.2199 175.043 56.4999 173.613 57.3016C172.636 57.8599 172.079 58.8016 172.323 59.8816C172.498 60.5783 172.951 61.4483 173.543 61.7983C175.356 62.8449 177.901 61.5199 178.179 59.4283C178.354 58.4866 178.249 57.4783 178.249 56.4283V56.4299ZM116.546 49.6999C113.199 49.0383 110.063 48.4099 107.726 51.5499C106.259 53.5366 106.259 57.0583 107.726 58.9749C110.096 62.1466 113.376 61.5199 116.826 60.9249C117.139 62.9816 117.733 67.6533 117.733 67.6533C117.733 67.6533 117.699 67.6533 117.316 67.7933C111.041 69.5016 103.686 68.2816 100.373 64.4099C96.9561 60.4349 96.5395 55.7649 98.0728 50.9183C99.5728 46.1416 103.163 43.4933 107.906 42.4816C110.913 41.8122 114.038 41.8958 117.004 42.7249C117.261 42.7918 117.516 42.8618 117.771 42.9349L116.551 49.6983L116.546 49.6999ZM150.046 31.3633H159.041V67.8966H150.046V31.3633Z" fill="#231F20"/>
<defs>
<linearGradient id="paint0_linear_51_2317" x1="12.5784" y1="39.0231" x2="53.2387" y2="39.0231" gradientUnits="userSpaceOnUse">
<stop stop-color="#656565"/>
<stop offset="1" stop-color="#010101"/>
</linearGradient>
<linearGradient id="paint1_linear_51_2317" x1="12.5784" y1="60.8321" x2="53.2387" y2="60.8321" gradientUnits="userSpaceOnUse">
<stop stop-color="#656565"/>
<stop offset="1" stop-color="#010101"/>
</linearGradient>
<linearGradient id="paint2_linear_51_2317" x1="12.5784" y1="28.2522" x2="53.2387" y2="28.2522" gradientUnits="userSpaceOnUse">
<stop stop-color="#9F1C20"/>
<stop offset="1" stop-color="#ED2224"/>
</linearGradient>
<linearGradient id="paint3_linear_51_2317" x1="12.5784" y1="50.0709" x2="53.2387" y2="50.0709" gradientUnits="userSpaceOnUse">
<stop stop-color="#9F1C20"/>
<stop offset="1" stop-color="#ED2224"/>
</linearGradient>
<linearGradient id="paint4_linear_51_2317" x1="12.5784" y1="71.8816" x2="53.2387" y2="71.8816" gradientUnits="userSpaceOnUse">
<stop stop-color="#9F1C20"/>
<stop offset="1" stop-color="#ED2224"/>
</linearGradient>
</defs>
</svg>
