<svg width="200" height="100" viewBox="0 0 200 100" fill="none" xmlns="http://www.w3.org/2000/svg">
<path d="M36.7079 79.0056C52.7273 79.0056 65.7136 66.0193 65.7136 49.9999C65.7136 33.9804 52.7273 20.9941 36.7079 20.9941C20.6885 20.9941 7.70215 33.9804 7.70215 49.9999C7.70215 66.0193 20.6885 79.0056 36.7079 79.0056Z" fill="#1A171B"/>
<path d="M49.3885 31.7262C46.4401 31.8289 43.8695 33.4516 41.9564 35.7011C39.8379 38.1647 38.427 41.0847 37.4093 44.0659C35.5922 42.5764 34.1901 40.6479 31.2941 39.8071C30.1443 39.4531 28.9262 39.3812 27.7428 39.5975C26.5594 39.8138 25.4455 40.3119 24.4953 41.0498C23.4644 41.8207 22.7524 42.9848 22.4161 44.079C21.5425 46.9247 23.3334 49.456 24.1502 50.3645L25.9323 52.2733C26.2993 52.6446 27.1838 53.6274 26.7513 55.0252C26.284 56.5474 24.4472 57.5368 22.5646 56.9537C21.7238 56.6981 20.516 56.0713 20.7868 55.189C20.896 54.8286 21.1581 54.5556 21.2957 54.2455C21.4224 53.9769 21.4835 53.7759 21.5228 53.6558C21.8679 52.5332 21.3962 51.0721 20.195 50.7009C19.0724 50.3558 17.9236 50.6288 17.4781 52.0768C16.9758 53.7191 17.7576 56.6981 21.9662 57.9736C26.8977 59.4893 31.0669 56.803 31.6588 53.2998C32.0301 51.1071 31.0407 49.4778 29.228 47.403L27.7494 45.7694C26.8758 44.8958 26.5482 43.3495 27.4743 42.1789C28.2561 41.1895 29.37 40.768 31.1936 41.2616C33.8581 41.9823 35.0418 43.8322 37.0249 45.3238C36.2081 48.0058 35.6708 50.6965 35.1903 53.112L34.8955 54.9116C33.4803 62.3372 32.3992 66.4147 29.5884 68.7538C29.0205 69.1557 28.2124 69.7585 26.9938 69.8021C26.3539 69.824 26.1486 69.3828 26.142 69.1906C26.1267 68.7429 26.5046 68.5354 26.7535 68.3345C27.1292 68.1292 27.697 67.7885 27.6577 66.703C27.614 65.4188 26.5526 64.3006 25.0151 64.3552C23.8619 64.3945 22.106 65.48 22.1715 67.4653C22.2414 69.5182 24.1524 71.0536 27.0353 70.9553C28.575 70.9029 32.0148 70.2782 35.4065 66.2444C39.353 61.623 40.456 56.329 41.2881 52.4502L42.2141 47.3309L43.8783 47.4489C48.7923 47.5515 51.2515 45.0072 51.2886 43.1551C51.3104 42.0347 50.5526 40.9318 49.489 40.9558C48.7246 40.9777 47.7702 41.4844 47.5409 42.5371C47.3159 43.5701 49.1046 44.5027 47.7068 45.4068C46.7131 46.0489 44.9332 46.5032 42.4259 46.1341L42.8846 43.6138C43.815 38.8352 44.9594 32.9558 49.3165 32.8161C49.6331 32.8008 50.795 32.8314 50.8234 33.5979C50.8321 33.8535 50.7688 33.919 50.4674 34.5065C50.1617 34.9433 50.0459 35.3539 50.0612 35.8016C50.1049 37.0246 51.0309 37.824 52.3719 37.7759C54.1693 37.717 54.6869 35.9698 54.6563 35.0678C54.5843 32.958 52.3588 31.6236 49.4147 31.7219L49.3885 31.7262Z" fill="white"/>
<path d="M150.807 45.2834C155.693 45.2834 158.973 48.8168 158.973 53.7034C158.973 58.3084 155.63 62.1234 150.807 62.1234C145.948 62.1234 142.607 58.3068 142.607 53.7034C142.607 48.8168 145.885 45.2834 150.807 45.2834ZM150.807 59.7284C154.273 59.7284 155.818 56.5751 155.818 53.7034C155.818 50.6451 153.958 47.6818 150.807 47.6818C147.62 47.6818 145.76 50.6484 145.76 53.7034C145.76 56.5751 147.305 59.7284 150.807 59.7284ZM142.2 46.7784V45.6584H137.942V44.1284C137.942 41.9534 138.258 40.2951 140.808 40.2951L140.955 40.3001C141.675 40.3451 142.263 39.7668 142.305 39.0601L142.355 38.0884C141.755 37.9934 141.122 37.8984 140.372 37.8984C135.988 37.8984 134.978 40.4534 134.978 44.3651V45.6418H131.191V46.8918C131.288 47.5384 131.858 48.0368 132.518 48.0368L134.977 48.0401V61.7268H136.613C137.293 61.7268 137.85 61.2184 137.94 60.5651V48.0418H140.906C141.606 48.0184 142.168 47.4584 142.2 46.7618V46.7784ZM102.717 45.6584C102.077 45.6618 101.471 46.0918 101.206 46.6718L97.1265 58.9684H97.0632L93.0732 46.6784C92.8132 46.0951 92.2065 45.6784 91.5765 45.6784L89.4932 45.6751L94.9498 60.6868C95.1398 61.2234 95.5165 62.0434 95.5165 62.3901C95.5165 62.7068 94.6332 66.3618 91.9832 66.3618C91.9165 66.3618 91.8498 66.3551 91.7865 66.3501C91.1115 66.3134 90.5998 66.7834 90.4865 67.5118L90.4032 68.5368C90.9365 68.6318 91.4782 68.7584 92.4232 68.7584C96.3332 68.7584 97.4998 65.1951 98.6032 62.1034L104.532 45.6701H102.717V45.6584ZM83.8715 48.9251C81.4215 47.6751 78.7448 46.8218 78.6982 44.3018C78.7065 41.6251 81.1648 40.9218 83.0598 40.9251C83.9032 40.9234 84.5598 41.0051 85.2048 41.1468C85.9015 41.1868 86.4715 40.6551 86.5515 39.9851L86.6065 39.0134C85.4053 38.7138 84.1728 38.5577 82.9348 38.5484C78.8132 38.5734 75.7515 40.6484 75.7432 44.6034C75.7498 48.0634 78.0815 49.4034 80.5882 50.6201C83.0482 51.7868 85.7415 52.7801 85.7648 55.6334C85.7482 58.6134 82.8748 59.7118 80.8948 59.7168C79.7365 59.7134 78.4782 59.4234 77.4182 59.0901C76.7515 58.9801 76.2082 59.5668 76.1232 60.3401L76.0332 61.2068C77.4898 61.6768 78.9832 62.0868 80.4865 62.0868H80.5032C85.1198 62.0534 88.7082 60.2118 88.7198 55.4318C88.7132 51.7434 86.3648 50.1951 83.8865 48.9251H83.8715ZM128.705 61.7584H128.708C129.348 61.7584 129.882 61.3084 130.018 60.7084V51.4334C130.018 47.9334 128.535 45.2668 124.435 45.2668C122.985 45.2668 120.558 46.0884 119.455 48.3884C118.601 46.2118 116.743 45.2668 114.882 45.2668C112.515 45.2668 110.908 46.1168 109.775 47.9801H109.708V46.9801C109.7 46.2434 109.101 45.6501 108.365 45.6501L106.931 45.6468V61.7301H108.54C108.896 61.7288 109.237 61.5867 109.489 61.3347C109.741 61.0828 109.884 60.7414 109.885 60.3851C109.885 60.3651 109.891 60.3584 109.895 60.3434V53.6268C109.895 50.6318 111.095 47.6668 114.12 47.6668C116.517 47.6668 116.992 50.1568 116.992 52.1434V61.7301H118.625C119.318 61.7284 119.896 61.1968 119.958 60.5068V53.6268C119.958 50.6318 121.158 47.6668 124.185 47.6668C126.582 47.6668 127.055 50.1568 127.055 52.1434V61.7301H128.722L128.705 61.7584ZM174.513 61.7584H174.518C175.235 61.7568 175.825 61.1918 175.857 60.4751V52.2034C175.857 47.8834 173.995 45.2968 169.832 45.2968C167.593 45.2968 165.452 46.4018 164.565 48.2301H164.501V47.0301C164.5 46.6684 164.358 46.3268 164.106 46.0734C163.855 45.8201 163.511 45.6784 163.156 45.6784L161.631 45.6751V61.7584H163.265C163.965 61.7568 164.543 61.2168 164.598 60.5201V54.3168C164.598 50.4068 166.115 47.6951 169.487 47.6951C172.073 47.8518 172.892 49.6784 172.892 53.4334V61.7584H174.513ZM190.473 45.6751C189.833 45.6784 189.227 46.1084 188.965 46.6884L184.887 58.9851H184.82L180.833 46.6834C180.572 46.1001 179.963 45.6834 179.333 45.6834L177.25 45.6801L182.707 60.6918C182.897 61.2284 183.277 62.0484 183.277 62.3951C183.277 62.7118 182.393 66.3668 179.743 66.3668C179.677 66.3668 179.61 66.3601 179.546 66.3551C178.871 66.3184 178.36 66.7884 178.247 67.5168L178.167 68.5418C178.7 68.6368 179.242 68.7634 180.187 68.7634C184.097 68.7634 185.265 65.2001 186.37 62.1084L192.298 45.6751H190.473Z" fill="#1A171B"/>
</svg>
