<svg width="61" height="60" viewBox="0 0 61 60" fill="none" xmlns="http://www.w3.org/2000/svg">
<path d="M48.3125 30C47.795 30 47.375 29.58 47.375 29.0625V3.75H26.2006L19.25 10.7006V29.0625C19.25 29.58 18.83 30 18.3125 30C17.795 30 17.375 29.58 17.375 29.0625V10.3125C17.375 10.0631 17.4744 9.825 17.6487 9.64875L25.1487 2.14875C25.325 1.97438 25.5631 1.875 25.8125 1.875H48.3125C48.83 1.875 49.25 2.295 49.25 2.8125V29.0625C49.25 29.58 48.83 30 48.3125 30Z" fill="#B10043"/>
<path d="M13.0475 37.8749C12.8338 37.8749 12.6181 37.8018 12.4419 37.6518C12.0481 37.3162 11.9994 36.7237 12.335 36.3299L12.8 35.7843C16.6719 31.9049 22.4338 31.0499 27.1925 33.6018C27.6481 33.8456 27.8206 34.4137 27.575 34.8712C27.3313 35.3268 26.7631 35.4974 26.3056 35.2537C22.2838 33.0974 17.4088 33.8193 14.1763 37.0537L13.7638 37.5431C13.5781 37.7624 13.3138 37.8749 13.0475 37.8749Z" fill="#B10043"/>
<path d="M40.6664 41.2499H26.8008C26.2833 41.2499 25.8633 40.8299 25.8633 40.3124C25.8633 39.7949 26.2833 39.3749 26.8008 39.3749H39.667C39.5902 38.863 39.4233 38.2368 39.0483 37.6536C38.1858 36.3074 36.5039 35.6249 34.0533 35.6249C34.0514 35.6249 34.0477 35.6249 34.0458 35.6249H27.0483C26.5308 35.6249 26.1108 35.2049 26.1108 34.6874C26.1108 34.1699 26.5308 33.7499 27.0483 33.7499H34.0458H34.0533C37.1845 33.7499 39.397 34.723 40.627 36.6411C41.6039 38.1636 41.6039 39.7818 41.6039 40.3124C41.6039 40.8299 41.1839 41.2499 40.6664 41.2499Z" fill="#B10043"/>
<path d="M53.9847 32.9475C53.4466 32.2594 51.4029 30.1875 47.6097 32.4581C46.0291 33.4087 44.8872 34.4194 43.8822 35.31C43.3029 35.8237 42.7966 36.2719 42.2847 36.6394L39.9522 37.3481C40.3047 37.9631 40.4866 38.5875 40.5747 39.1181L42.9747 38.3887C43.0685 38.3606 43.1566 38.3175 43.2372 38.2612C43.8785 37.815 44.4841 37.2806 45.1254 36.7125C46.0704 35.8744 47.1429 34.9256 48.5754 34.0631C50.0941 33.1556 51.3447 33.0544 52.1979 33.7762C52.886 34.3575 53.0247 35.2294 53.0022 35.3531L45.6616 42.6919L35.7522 46.2544C34.8316 46.5862 33.2547 46.875 32.3754 46.875H23.0004C21.761 46.875 20.2122 47.43 19.2541 48.2081L17.9135 48.8381C17.876 48.855 17.8516 48.8869 17.8179 48.9094L19.2091 50.3025L20.1616 49.8544C20.2404 49.8169 20.3135 49.77 20.3791 49.7119C20.9772 49.1906 22.1772 48.75 23.0004 48.75H32.3754C33.4647 48.75 35.2629 48.4237 36.3841 48.0225L46.4922 44.3887C46.6216 44.3419 46.7397 44.2669 46.8372 44.1694L54.326 36.6825C55.1229 35.8837 54.9691 34.2094 53.9847 32.9475Z" fill="#B10043"/>
<path d="M15.9427 57.8512C15.579 58.2149 14.9827 58.2168 14.6171 57.8512C14.2515 57.4837 14.2515 56.8893 14.6171 56.5255L20.019 51.1124L9.41209 40.5055L4.01022 45.9168C3.64459 46.2824 3.05022 46.2824 2.68459 45.9168C2.31709 45.553 2.31897 44.9568 2.68459 44.5912L8.66022 38.608C9.02584 38.2424 9.73834 38.1787 10.104 38.5462L22.0365 50.4787C22.4021 50.8443 22.2858 51.4987 21.9183 51.8643L15.9427 57.8512Z" fill="#B10043"/>
<path d="M33.3125 30C31.7619 30 30.5 28.7381 30.5 27.1875C30.5 25.6369 31.7619 24.375 33.3125 24.375C34.8631 24.375 36.125 25.6369 36.125 27.1875C36.125 28.7381 34.8631 30 33.3125 30ZM33.3125 26.25C32.7969 26.25 32.375 26.6719 32.375 27.1875C32.375 27.7031 32.7969 28.125 33.3125 28.125C33.8281 28.125 34.25 27.7031 34.25 27.1875C34.25 26.6719 33.8281 26.25 33.3125 26.25Z" fill="#B10043"/>
<path d="M25.8125 30C24.2619 30 23 28.7381 23 27.1875C23 25.6369 24.2619 24.375 25.8125 24.375C27.3631 24.375 28.625 25.6369 28.625 27.1875C28.625 28.7381 27.3631 30 25.8125 30ZM25.8125 26.25C25.2969 26.25 24.875 26.6719 24.875 27.1875C24.875 27.7031 25.2969 28.125 25.8125 28.125C26.3281 28.125 26.75 27.7031 26.75 27.1875C26.75 26.6719 26.3281 26.25 25.8125 26.25Z" fill="#B10043"/>
<path d="M33.3125 15C31.7619 15 30.5 13.7381 30.5 12.1875C30.5 10.6369 31.7619 9.375 33.3125 9.375C34.8631 9.375 36.125 10.6369 36.125 12.1875C36.125 13.7381 34.8631 15 33.3125 15ZM33.3125 11.25C32.7969 11.25 32.375 11.6719 32.375 12.1875C32.375 12.7031 32.7969 13.125 33.3125 13.125C33.8281 13.125 34.25 12.7031 34.25 12.1875C34.25 11.6719 33.8281 11.25 33.3125 11.25Z" fill="#B10043"/>
<path d="M40.8125 15C40.295 15 39.875 14.58 39.875 14.0625V11.25C39.3575 11.25 38.9375 10.83 38.9375 10.3125C38.9375 9.795 39.3575 9.375 39.875 9.375H40.8125C41.33 9.375 41.75 9.795 41.75 10.3125V14.0625C41.75 14.58 41.33 15 40.8125 15Z" fill="#B10043"/>
<path d="M38.9375 22.5C37.3869 22.5 36.125 21.2381 36.125 19.6875C36.125 18.1369 37.3869 16.875 38.9375 16.875C40.4881 16.875 41.75 18.1369 41.75 19.6875C41.75 21.2381 40.4881 22.5 38.9375 22.5ZM38.9375 18.75C38.4219 18.75 38 19.1719 38 19.6875C38 20.2031 38.4219 20.625 38.9375 20.625C39.4531 20.625 39.875 20.2031 39.875 19.6875C39.875 19.1719 39.4531 18.75 38.9375 18.75Z" fill="#B10043"/>
<path d="M25.8125 22.5C25.295 22.5 24.875 22.08 24.875 21.5625V18.75C24.3575 18.75 23.9375 18.33 23.9375 17.8125C23.9375 17.295 24.3575 16.875 24.875 16.875H25.8125C26.33 16.875 26.75 17.295 26.75 17.8125V21.5625C26.75 22.08 26.33 22.5 25.8125 22.5Z" fill="#B10043"/>
<path d="M40.8125 30C40.295 30 39.875 29.58 39.875 29.0625V26.25C39.3575 26.25 38.9375 25.83 38.9375 25.3125C38.9375 24.795 39.3575 24.375 39.875 24.375H40.8125C41.33 24.375 41.75 24.795 41.75 25.3125V29.0625C41.75 29.58 41.33 30 40.8125 30Z" fill="#B10043"/>
<path d="M31.4375 22.5C30.92 22.5 30.5 22.08 30.5 21.5625V18.75C29.9825 18.75 29.5625 18.33 29.5625 17.8125C29.5625 17.295 29.9825 16.875 30.5 16.875H31.4375C31.955 16.875 32.375 17.295 32.375 17.8125V21.5625C32.375 22.08 31.955 22.5 31.4375 22.5Z" fill="#B10043"/>
<path d="M25.8128 11.25H18.3128C17.9341 11.25 17.591 11.0212 17.4466 10.6706C17.3003 10.32 17.381 9.91873 17.6491 9.64873L25.1491 2.14873C25.5147 1.78311 26.1091 1.78311 26.4747 2.14873C26.8403 2.51436 26.8403 3.10873 26.4747 3.47436L20.576 9.37498H24.8753V7.49998C24.8753 6.98248 25.2953 6.56248 25.8128 6.56248C26.3303 6.56248 26.7503 6.98248 26.7503 7.49998V10.3125C26.7503 10.83 26.3303 11.25 25.8128 11.25Z" fill="#B10043"/>
</svg>
