<svg width="61" height="60" viewBox="0 0 61 60" fill="none" xmlns="http://www.w3.org/2000/svg">
<g clip-path="url(#clip0_24_3226)">
<path d="M36.3605 37.8104C37.1031 37.8104 37.7977 37.5176 38.3163 36.9861L42.923 32.2629C43.9744 31.1848 43.9526 29.4523 42.8744 28.4008C41.7962 27.3495 40.0633 27.3713 39.0119 28.4493L36.3094 31.2199L35.836 30.7595C34.7562 29.71 33.0235 29.734 31.9734 30.8137C30.9236 31.8933 30.9479 33.6258 32.0276 34.6757L34.4565 37.0373C34.9692 37.5358 35.6454 37.8104 36.3605 37.8104ZM33.2364 32.0416C33.6095 31.6579 34.2251 31.6499 34.6082 32.0225L35.712 33.0958C36.0603 33.4346 36.6172 33.427 36.9565 33.0793L40.2729 29.6792C40.6465 29.2961 41.2619 29.2887 41.6446 29.6618C42.0276 30.0353 42.0352 30.6506 41.662 31.0334L37.0552 35.7564C36.6992 36.1372 36.0507 36.1452 35.6845 35.7747L33.2556 33.4131C32.8723 33.0402 32.8635 32.4249 33.2364 32.0416Z" fill="#B10043"/>
<path d="M29.5527 38.4097C29.2597 38.0214 28.7077 37.9441 28.3191 38.2371C27.9307 38.53 27.8536 39.0822 28.1465 39.4705C28.4672 39.8955 28.822 40.3031 29.2008 40.6818C31.3663 42.8471 34.2455 44.0395 37.3079 44.0395C40.3704 44.0395 43.2495 42.8471 45.415 40.6818C47.5806 38.5167 48.7731 35.6378 48.7731 32.5758C48.7731 29.5137 47.5805 26.635 45.415 24.4699C40.9446 20.0002 33.6711 20.0003 29.2008 24.4699C26.1531 27.5171 25.0746 31.9624 26.3863 36.071C26.5342 36.5343 27.0301 36.7898 27.4931 36.6421C27.9565 36.4942 28.2123 35.9987 28.0643 35.5354C26.954 32.0575 27.8667 28.2946 30.4465 25.7153C34.2298 21.9324 40.3861 21.9324 44.1694 25.7153C46.0022 27.5479 47.0117 29.9844 47.0117 32.576C47.0117 35.1676 46.0022 37.604 44.1694 39.4366C42.3367 41.269 39.8999 42.2784 37.3079 42.2784C34.7161 42.2784 32.2792 41.2692 30.4464 39.4366C30.1251 39.115 29.8243 38.7697 29.5527 38.4097Z" fill="#B10043"/>
<path d="M59.2884 48.6646L53.732 43.1088C53.3879 42.765 52.8303 42.7649 52.4862 43.1088L52.4523 43.1428L50.3139 41.0048C51.7514 38.7888 52.6078 36.2284 52.7763 33.5562C52.8069 33.0708 52.4381 32.6525 51.9527 32.6218C51.4677 32.5923 51.0491 32.96 51.0182 33.4453C50.8079 36.7815 49.3886 39.9221 47.0219 42.2885C44.3472 44.963 40.8348 46.3017 37.3213 46.3051C37.3168 46.305 37.3125 46.3044 37.3079 46.3044H37.2379C33.7434 46.2868 30.2543 44.9486 27.5939 42.2885C24.9991 39.6942 23.5701 36.2448 23.5701 32.5758C23.5701 28.9068 24.9991 25.4573 27.5939 22.863C32.9502 17.5073 41.6656 17.5073 47.0219 22.863C49.0169 24.8578 50.3334 27.3739 50.8292 30.1397C50.9151 30.6184 51.3731 30.9364 51.8516 30.8511C52.3304 30.7654 52.6489 30.3077 52.5631 29.8289C52.0034 26.7074 50.5181 23.8679 48.2675 21.6176C47.1523 20.5025 45.9078 19.594 44.5821 18.8905V11.7929C44.5814 11.5611 44.4877 11.3343 44.3241 11.1702L33.4105 0.25793C33.2463 0.0945703 33.0195 0.000585937 32.7875 0H3.14234C1.68547 0 0.500117 1.18512 0.500117 2.64188V10.0438C0.500117 10.5301 0.894336 10.9245 1.3809 10.9245C1.86734 10.9245 2.26168 10.5302 2.26168 10.0438V2.64188C2.26168 2.15625 2.65672 1.76121 3.14246 1.76121H31.9071V10.0317C31.9071 11.4885 33.0924 12.6736 34.5493 12.6736H42.8209V18.0929C41.1024 17.4418 39.2907 17.1074 37.4761 17.0878C37.4674 17.0866 37.4589 17.0849 37.4499 17.0849H17.7859C17.2994 17.0849 16.9051 17.4792 16.9051 17.9655C16.9051 18.4519 17.2994 18.8462 17.7859 18.8462H30.117C28.8607 19.5032 27.6764 20.3441 26.6039 21.3687H17.7859C17.2994 21.3687 16.9051 21.763 16.9051 22.2493C16.9051 22.7357 17.2994 23.13 17.7859 23.13H25.0187C23.581 24.9922 22.5985 27.137 22.1282 29.4265H17.786C17.2995 29.4265 16.9052 29.8208 16.9052 30.3071C16.9052 30.7935 17.2995 31.1878 17.786 31.1878H21.871C21.8305 31.6468 21.809 32.1097 21.809 32.576C21.809 32.9585 21.823 33.3389 21.8503 33.7166H17.7861C17.2997 33.7166 16.9053 34.1109 16.9053 34.5973C16.9053 35.0836 17.2997 35.4779 17.7861 35.4779H22.0798C22.529 37.8616 23.5305 40.0952 25.0214 42.0252H17.7861C17.2997 42.0252 16.9053 42.4194 16.9053 42.9059C16.9053 43.3923 17.2997 43.7865 17.7861 43.7865H26.6074C27.6784 44.8092 28.8608 45.6488 30.1149 46.3049H17.7856C17.2992 46.3049 16.9048 46.6992 16.9048 47.1855C16.9048 47.6719 17.2992 48.0662 17.7856 48.0662H37.3079C39.1784 48.066 41.0491 47.73 42.8206 47.0589V57.3586C42.8206 57.8441 42.4256 58.2393 41.9398 58.2393H3.14234C2.65672 58.2393 2.26156 57.8442 2.26156 57.3586V13.5668C2.26156 13.0805 1.86723 12.6861 1.38078 12.6861C0.894336 12.6861 0.5 13.0804 0.5 13.5668V57.3586C0.500117 58.8149 1.68547 60 3.14234 60H41.94C43.3968 60 44.5822 58.8149 44.5822 57.3581V46.2608C44.9752 46.0522 45.361 45.8254 45.7385 45.5807L47.8763 47.7182C47.5064 48.0411 47.4866 48.6566 47.8422 48.9976L53.3988 54.5535C54.9488 56.1689 57.7384 56.1688 59.2883 54.5535C60.9041 53.0036 60.9039 50.2144 59.2884 48.6646ZM34.5492 10.9124C34.0636 10.9124 33.6684 10.5173 33.6684 10.0317V3.00668L41.5752 10.9124H34.5492ZM47.1752 44.5263C47.551 44.2157 47.9159 43.8854 48.2675 43.534C48.617 43.1845 48.9477 42.8197 49.2598 42.4418L51.2066 44.3882L49.1218 46.4726L47.1752 44.5263ZM58.0428 53.308C57.1484 54.2402 55.5389 54.24 54.6444 53.308L49.7105 48.3749L53.1091 44.9768L58.0429 49.9099C58.975 50.8044 58.9752 52.4136 58.0428 53.308Z" fill="#B10043"/>
<path d="M8.49299 24.0004H12.3461C13.4324 24.0004 14.3163 23.1168 14.3163 22.0307V18.1781C14.3163 17.0918 13.4326 16.2083 12.3461 16.2083H8.49299C7.40678 16.2083 6.52295 17.0918 6.52295 18.1781V22.0307C6.52295 23.1168 7.40678 24.0004 8.49299 24.0004ZM8.28451 18.1781C8.28451 18.0631 8.37814 17.9696 8.49299 17.9696H12.3461C12.4612 17.9696 12.5547 18.0631 12.5547 18.1781V22.0307C12.5547 22.1457 12.4611 22.2392 12.3461 22.2392H8.49299C8.37803 22.2392 8.28451 22.1457 8.28451 22.0307V18.1781Z" fill="#B10043"/>
<path d="M6.52295 34.3784C6.52295 35.4645 7.40666 36.3481 8.49299 36.3481H12.3461C13.4324 36.3481 14.3163 35.4645 14.3163 34.3784V30.5257C14.3163 29.4396 13.4326 28.556 12.3461 28.556H8.49299C7.40678 28.556 6.52295 29.4396 6.52295 30.5257V34.3784ZM8.28451 30.5257C8.28451 30.4108 8.37814 30.3172 8.49299 30.3172H12.3461C12.4612 30.3172 12.5547 30.4108 12.5547 30.5257V34.3784C12.5547 34.4933 12.4611 34.5869 12.3461 34.5869H8.49299C8.37803 34.5869 8.28451 34.4933 8.28451 34.3784V30.5257Z" fill="#B10043"/>
<path d="M6.52295 46.977C6.52295 48.0631 7.40666 48.9467 8.49299 48.9467H12.3461C13.4324 48.9467 14.3163 48.0631 14.3163 46.977V43.1243C14.3163 42.0381 13.4326 41.1545 12.3461 41.1545H8.49299C7.40678 41.1545 6.52295 42.0381 6.52295 43.1243V46.977ZM8.28451 43.1243C8.28451 43.0094 8.37814 42.9159 8.49299 42.9159H12.3461C12.4612 42.9159 12.5547 43.0094 12.5547 43.1243V46.977C12.5547 47.092 12.4611 47.1855 12.3461 47.1855H8.49299C8.37803 47.1855 8.28451 47.092 8.28451 46.977V43.1243Z" fill="#B10043"/>
</g>
<defs>
<clipPath id="clip0_24_3226">
<rect width="60" height="60" fill="white" transform="translate(0.5)"/>
</clipPath>
</defs>
</svg>
