<svg width="60" height="60" viewBox="0 0 60 60" fill="none" xmlns="http://www.w3.org/2000/svg">
<g clip-path="url(#clip0_24_3403)">
<path d="M35.8605 37.8104C36.6031 37.8104 37.2977 37.5176 37.8163 36.9861L42.423 32.2629C43.4744 31.1848 43.4526 29.4523 42.3744 28.4008C41.2962 27.3495 39.5633 27.3713 38.5119 28.4493L35.8094 31.2199L35.336 30.7595C34.2562 29.71 32.5235 29.734 31.4734 30.8137C30.4236 31.8933 30.4479 33.6258 31.5276 34.6757L33.9565 37.0373C34.4692 37.5358 35.1454 37.8104 35.8605 37.8104ZM32.7364 32.0416C33.1095 31.6579 33.7251 31.6499 34.1082 32.0225L35.212 33.0958C35.5603 33.4346 36.1172 33.427 36.4565 33.0793L39.7729 29.6792C40.1465 29.2961 40.7619 29.2887 41.1446 29.6618C41.5276 30.0353 41.5352 30.6506 41.162 31.0334L36.5552 35.7564C36.1992 36.1372 35.5507 36.1452 35.1845 35.7747L32.7556 33.4131C32.3723 33.0402 32.3635 32.4249 32.7364 32.0416Z" fill="#B10043"/>
<path d="M29.0527 38.4097C28.7597 38.0214 28.2077 37.9441 27.8191 38.2371C27.4307 38.53 27.3536 39.0822 27.6465 39.4705C27.9672 39.8955 28.322 40.3031 28.7008 40.6818C30.8663 42.8471 33.7455 44.0395 36.8079 44.0395C39.8704 44.0395 42.7495 42.8471 44.915 40.6818C47.0806 38.5167 48.2731 35.6378 48.2731 32.5758C48.2731 29.5137 47.0805 26.635 44.915 24.4699C40.4446 20.0002 33.1711 20.0003 28.7008 24.4699C25.6531 27.5171 24.5746 31.9624 25.8863 36.071C26.0342 36.5343 26.5301 36.7898 26.9931 36.6421C27.4565 36.4942 27.7123 35.9987 27.5643 35.5354C26.454 32.0575 27.3667 28.2946 29.9465 25.7153C33.7298 21.9324 39.8861 21.9324 43.6694 25.7153C45.5022 27.5479 46.5117 29.9844 46.5117 32.576C46.5117 35.1676 45.5022 37.604 43.6694 39.4366C41.8367 41.269 39.3999 42.2784 36.8079 42.2784C34.2161 42.2784 31.7792 41.2692 29.9464 39.4366C29.6251 39.115 29.3243 38.7697 29.0527 38.4097Z" fill="#B10043"/>
<path d="M58.7884 48.6646L53.232 43.1088C52.8879 42.765 52.3303 42.7649 51.9862 43.1088L51.9523 43.1428L49.8139 41.0048C51.2514 38.7888 52.1078 36.2284 52.2763 33.5562C52.3069 33.0708 51.9381 32.6525 51.4527 32.6218C50.9677 32.5923 50.5491 32.96 50.5182 33.4453C50.3079 36.7815 48.8886 39.9221 46.5219 42.2885C43.8472 44.963 40.3348 46.3017 36.8213 46.3051C36.8168 46.305 36.8125 46.3044 36.8079 46.3044H36.7379C33.2434 46.2868 29.7543 44.9486 27.0939 42.2885C24.4991 39.6942 23.0701 36.2448 23.0701 32.5758C23.0701 28.9068 24.4991 25.4573 27.0939 22.863C32.4502 17.5073 41.1656 17.5073 46.5219 22.863C48.5169 24.8578 49.8334 27.3739 50.3292 30.1397C50.4151 30.6184 50.8731 30.9364 51.3516 30.8511C51.8304 30.7654 52.1489 30.3077 52.0631 29.8289C51.5034 26.7074 50.0181 23.8679 47.7675 21.6176C46.6523 20.5025 45.4078 19.594 44.0821 18.8905V11.7929C44.0814 11.5611 43.9877 11.3343 43.8241 11.1702L32.9105 0.25793C32.7463 0.0945703 32.5195 0.000585937 32.2875 0H2.64234C1.18547 0 0.000117188 1.18512 0.000117188 2.64188V10.0438C0.000117188 10.5301 0.394336 10.9245 0.880898 10.9245C1.36734 10.9245 1.76168 10.5302 1.76168 10.0438V2.64188C1.76168 2.15625 2.15672 1.76121 2.64246 1.76121H31.4071V10.0317C31.4071 11.4885 32.5924 12.6736 34.0493 12.6736H42.3209V18.0929C40.6024 17.4418 38.7907 17.1074 36.9761 17.0878C36.9674 17.0866 36.9589 17.0849 36.9499 17.0849H17.2859C16.7994 17.0849 16.4051 17.4792 16.4051 17.9655C16.4051 18.4519 16.7994 18.8462 17.2859 18.8462H29.617C28.3607 19.5032 27.1764 20.3441 26.1039 21.3687H17.2859C16.7994 21.3687 16.4051 21.763 16.4051 22.2493C16.4051 22.7357 16.7994 23.13 17.2859 23.13H24.5187C23.081 24.9922 22.0985 27.137 21.6282 29.4265H17.286C16.7995 29.4265 16.4052 29.8208 16.4052 30.3071C16.4052 30.7935 16.7995 31.1878 17.286 31.1878H21.371C21.3305 31.6468 21.309 32.1097 21.309 32.576C21.309 32.9585 21.323 33.3389 21.3503 33.7166H17.2861C16.7997 33.7166 16.4053 34.1109 16.4053 34.5973C16.4053 35.0836 16.7997 35.4779 17.2861 35.4779H21.5798C22.029 37.8616 23.0305 40.0952 24.5214 42.0252H17.2861C16.7997 42.0252 16.4053 42.4194 16.4053 42.9059C16.4053 43.3923 16.7997 43.7865 17.2861 43.7865H26.1074C27.1784 44.8092 28.3608 45.6488 29.6149 46.3049H17.2856C16.7992 46.3049 16.4048 46.6992 16.4048 47.1855C16.4048 47.6719 16.7992 48.0662 17.2856 48.0662H36.8079C38.6784 48.066 40.5491 47.73 42.3206 47.0589V57.3586C42.3206 57.8441 41.9256 58.2393 41.4398 58.2393H2.64234C2.15672 58.2393 1.76156 57.8442 1.76156 57.3586V13.5668C1.76156 13.0805 1.36723 12.6861 0.880781 12.6861C0.394336 12.6861 0 13.0804 0 13.5668V57.3586C0.000117188 58.8149 1.18547 60 2.64234 60H41.44C42.8968 60 44.0822 58.8149 44.0822 57.3581V46.2608C44.4752 46.0522 44.861 45.8254 45.2385 45.5807L47.3763 47.7182C47.0064 48.0411 46.9866 48.6566 47.3422 48.9976L52.8988 54.5535C54.4488 56.1689 57.2384 56.1688 58.7883 54.5535C60.4041 53.0036 60.4039 50.2144 58.7884 48.6646ZM34.0492 10.9124C33.5636 10.9124 33.1684 10.5173 33.1684 10.0317V3.00668L41.0752 10.9124H34.0492ZM46.6752 44.5263C47.051 44.2157 47.4159 43.8854 47.7675 43.534C48.117 43.1845 48.4477 42.8197 48.7598 42.4418L50.7066 44.3882L48.6218 46.4726L46.6752 44.5263ZM57.5428 53.308C56.6484 54.2402 55.0389 54.24 54.1444 53.308L49.2105 48.3749L52.6091 44.9768L57.5429 49.9099C58.475 50.8044 58.4752 52.4136 57.5428 53.308Z" fill="#B10043"/>
<path d="M7.99299 24.0004H11.8461C12.9324 24.0004 13.8163 23.1168 13.8163 22.0307V18.1781C13.8163 17.0918 12.9326 16.2083 11.8461 16.2083H7.99299C6.90678 16.2083 6.02295 17.0918 6.02295 18.1781V22.0307C6.02295 23.1168 6.90678 24.0004 7.99299 24.0004ZM7.78451 18.1781C7.78451 18.0631 7.87814 17.9696 7.99299 17.9696H11.8461C11.9612 17.9696 12.0547 18.0631 12.0547 18.1781V22.0307C12.0547 22.1457 11.9611 22.2392 11.8461 22.2392H7.99299C7.87803 22.2392 7.78451 22.1457 7.78451 22.0307V18.1781Z" fill="#B10043"/>
<path d="M6.02295 34.3784C6.02295 35.4645 6.90666 36.3481 7.99299 36.3481H11.8461C12.9324 36.3481 13.8163 35.4645 13.8163 34.3784V30.5257C13.8163 29.4396 12.9326 28.556 11.8461 28.556H7.99299C6.90678 28.556 6.02295 29.4396 6.02295 30.5257V34.3784ZM7.78451 30.5257C7.78451 30.4108 7.87814 30.3172 7.99299 30.3172H11.8461C11.9612 30.3172 12.0547 30.4108 12.0547 30.5257V34.3784C12.0547 34.4933 11.9611 34.5869 11.8461 34.5869H7.99299C7.87803 34.5869 7.78451 34.4933 7.78451 34.3784V30.5257Z" fill="#B10043"/>
<path d="M6.02295 46.977C6.02295 48.0631 6.90666 48.9467 7.99299 48.9467H11.8461C12.9324 48.9467 13.8163 48.0631 13.8163 46.977V43.1243C13.8163 42.0381 12.9326 41.1545 11.8461 41.1545H7.99299C6.90678 41.1545 6.02295 42.0381 6.02295 43.1243V46.977ZM7.78451 43.1243C7.78451 43.0094 7.87814 42.9159 7.99299 42.9159H11.8461C11.9612 42.9159 12.0547 43.0094 12.0547 43.1243V46.977C12.0547 47.092 11.9611 47.1855 11.8461 47.1855H7.99299C7.87803 47.1855 7.78451 47.092 7.78451 46.977V43.1243Z" fill="#B10043"/>
</g>
<defs>
<clipPath id="clip0_24_3403">
<rect width="60" height="60" fill="white"/>
</clipPath>
</defs>
</svg>
