<svg width="60" height="60" viewBox="0 0 60 60" fill="none" xmlns="http://www.w3.org/2000/svg">
<mask id="mask0_24_3579" style="mask-type:luminance" maskUnits="userSpaceOnUse" x="0" y="0" width="60" height="60">
<path d="M0 3.8147e-06H60V60H0V3.8147e-06Z" fill="white"/>
</mask>
<g mask="url(#mask0_24_3579)">
<path d="M13.2408 33.7469C13.2408 35.6687 11.9456 37.2266 10.3477 37.2266C8.74986 37.2266 7.45459 35.6687 7.45459 33.7469C7.45459 31.8253 8.74986 30.2674 10.3477 30.2674C11.9456 30.2674 13.2408 31.8253 13.2408 33.7469Z" stroke="#0195FF" stroke-width="2" stroke-miterlimit="10" stroke-linecap="round" stroke-linejoin="round"/>
<path d="M15.5251 43.3038C14.538 41.4546 12.5905 40.1959 10.348 40.1959C7.84393 40.1959 5.70771 41.7654 4.86572 43.9738" stroke="#0195FF" stroke-width="2" stroke-miterlimit="10" stroke-linecap="round" stroke-linejoin="round"/>
<path d="M15.4535 44.4598C13.9802 45.4048 12.228 45.9529 10.3478 45.9529C5.11828 45.9529 0.878906 41.7134 0.878906 36.4839C0.878906 31.2543 5.11828 27.015 10.3478 27.015C14.4152 27.015 17.8836 29.5796 19.2244 33.1799" stroke="#0195FF" stroke-width="2" stroke-miterlimit="10" stroke-linecap="round" stroke-linejoin="round"/>
<path d="M52.5452 33.7469C52.5452 35.6687 51.2498 37.2266 49.652 37.2266C48.0542 37.2266 46.7588 35.6687 46.7588 33.7469C46.7588 31.8253 48.0542 30.2674 49.652 30.2674C51.2498 30.2674 52.5452 31.8253 52.5452 33.7469Z" stroke="#0195FF" stroke-width="2" stroke-miterlimit="10" stroke-linecap="round" stroke-linejoin="round"/>
<path d="M55.1439 43.9998C54.3089 41.7778 52.1657 40.196 49.652 40.196C47.6526 40.196 45.8879 41.1964 44.8291 42.7238" stroke="#0195FF" stroke-width="2" stroke-miterlimit="10" stroke-linecap="round" stroke-linejoin="round"/>
<path d="M40.748 33.2534C42.0773 29.587 45.6048 26.9808 49.7266 27.0131C54.956 27.0541 59.162 31.3267 59.1211 36.5561C59.08 41.7854 54.8075 45.9914 49.5781 45.9504C47.8163 45.9366 46.1707 45.4425 44.7644 44.5934" stroke="#0195FF" stroke-width="2" stroke-miterlimit="10" stroke-linecap="round" stroke-linejoin="round"/>
<path d="M34.5323 38.9391C34.5323 41.8662 32.5593 44.2391 30.1256 44.2391C27.6917 44.2391 25.7188 41.8662 25.7188 38.9391C25.7188 36.0119 27.6917 33.6391 30.1256 33.6391C32.5593 33.6391 34.5323 36.0119 34.5323 38.9391Z" stroke="#0195FF" stroke-width="2" stroke-miterlimit="10" stroke-linecap="round" stroke-linejoin="round"/>
<path d="M38.4911 54.5558C37.2192 51.1713 33.9549 48.7619 30.1258 48.7619C26.3116 48.7619 23.0579 51.1525 21.7754 54.5164" stroke="#0195FF" stroke-width="2" stroke-miterlimit="10" stroke-linecap="round" stroke-linejoin="round"/>
<path d="M44.5488 43.1079C44.5488 51.0735 38.0914 57.5308 30.126 57.5308C22.1604 57.5308 15.7031 51.0735 15.7031 43.1079C15.7031 35.1424 22.1604 28.6851 30.126 28.6851C38.0914 28.6851 44.5488 35.1424 44.5488 43.1079Z" stroke="#0195FF" stroke-width="2" stroke-miterlimit="10" stroke-linecap="round" stroke-linejoin="round"/>
<path d="M12.0389 6.29471L12.9178 8.07561C12.992 8.22585 13.1353 8.33003 13.3011 8.35417L15.2665 8.63975C15.6841 8.70046 15.8509 9.21374 15.5487 9.50835L14.1266 10.8944C14.0066 11.0115 13.9519 11.18 13.9801 11.3453L14.3158 13.3026C14.3872 13.7187 13.9506 14.0359 13.577 13.8394L11.8192 12.9153C11.6708 12.8373 11.4936 12.8373 11.3453 12.9153L9.58744 13.8394C9.21385 14.0359 8.77721 13.7187 8.84858 13.3026L9.18432 11.3453C9.21268 11.18 9.15783 11.0115 9.03783 10.8944L7.61576 9.50835C7.31354 9.21374 7.48029 8.70046 7.89795 8.63975L9.8633 8.35417C10.0291 8.33003 10.1726 8.22585 10.2467 8.07561L11.1256 6.29471C11.3123 5.91632 11.8521 5.91632 12.0389 6.29471Z" stroke="#0195FF" stroke-width="2" stroke-miterlimit="10" stroke-linecap="round" stroke-linejoin="round"/>
<path d="M24.4012 6.29471L25.2801 8.07561C25.3543 8.22585 25.4976 8.33003 25.6635 8.35417L27.6288 8.63975C28.0465 8.70046 28.2133 9.21374 27.9111 9.50835L26.4889 10.8944C26.369 11.0115 26.3142 11.18 26.3425 11.3453L26.6783 13.3026C26.7496 13.7187 26.3129 14.0359 25.9393 13.8394L24.1815 12.9153C24.0332 12.8373 23.8559 12.8373 23.7077 12.9153L21.9499 13.8394C21.5763 14.0359 21.1395 13.7187 21.2109 13.3026L21.5466 11.3453C21.575 11.18 21.5203 11.0115 21.4003 10.8944L19.9781 9.50835C19.6758 9.21374 19.8426 8.70046 20.2604 8.63975L22.2256 8.35417C22.3915 8.33003 22.5349 8.22585 22.609 8.07561L23.4879 6.29471C23.6747 5.91632 24.2144 5.91632 24.4012 6.29471Z" stroke="#0195FF" stroke-width="2" stroke-miterlimit="10" stroke-linecap="round" stroke-linejoin="round"/>
<path d="M36.7635 6.29471L37.6424 8.07561C37.7166 8.22585 37.8599 8.33003 38.0258 8.35417L39.9911 8.63975C40.4087 8.70046 40.5756 9.21374 40.2734 9.50835L38.8512 10.8944C38.7312 11.0115 38.6765 11.18 38.7047 11.3453L39.0404 13.3026C39.1118 13.7187 38.6752 14.0359 38.3016 13.8394L36.5438 12.9153C36.3954 12.8373 36.2182 12.8373 36.0699 12.9153L34.3121 13.8394C33.9385 14.0359 33.5018 13.7187 33.5732 13.3026L33.9089 11.3453C33.9373 11.18 33.8826 11.0115 33.7624 10.8944L32.3404 9.50835C32.0381 9.21374 32.2049 8.70046 32.6226 8.63975L34.5879 8.35417C34.7537 8.33003 34.8972 8.22585 34.9713 8.07561L35.8503 6.29471C36.0371 5.91632 36.5767 5.91632 36.7635 6.29471Z" stroke="#0195FF" stroke-width="2" stroke-miterlimit="10" stroke-linecap="round" stroke-linejoin="round"/>
<path d="M49.1263 6.29471L50.0052 8.07561C50.0794 8.22585 50.2227 8.33003 50.3885 8.35417L52.3539 8.63975C52.7715 8.70046 52.9383 9.21374 52.6362 9.50835L51.214 10.8944C51.094 11.0115 51.0393 11.18 51.0675 11.3453L51.4032 13.3026C51.4746 13.7187 51.038 14.0359 50.6644 13.8394L48.9066 12.9153C48.7582 12.8373 48.581 12.8373 48.4327 12.9153L46.6748 13.8394C46.3013 14.0359 45.8646 13.7187 45.936 13.3026L46.2717 11.3453C46.3001 11.18 46.2454 11.0115 46.1252 10.8944L44.7032 9.50835C44.4009 9.21374 44.5677 8.70046 44.9854 8.63975L46.9507 8.35417C47.1165 8.33003 47.26 8.22585 47.3341 8.07561L48.213 6.29471C48.3997 5.91632 48.9395 5.91632 49.1263 6.29471Z" stroke="#0195FF" stroke-width="2" stroke-miterlimit="10" stroke-linecap="round" stroke-linejoin="round"/>
<path d="M50.408 18.4757H56.6406C57.5347 18.4757 58.2597 17.7508 58.2597 16.8566V4.08825C58.2597 3.19399 57.5347 2.46919 56.6405 2.46919H8.78955" stroke="#0195FF" stroke-width="2" stroke-miterlimit="10" stroke-linecap="round" stroke-linejoin="round"/>
<path d="M5.27389 2.46914H3.61088C2.71662 2.46914 1.9917 3.19406 1.9917 4.0882V16.8566C1.9917 17.7509 2.71662 18.4757 3.61088 18.4757H24.9638C25.4437 18.4757 25.8873 18.7318 26.1273 19.1475L29.2864 24.6192C29.6593 25.2653 30.5919 25.2653 30.9649 24.6192L34.124 19.1475C34.364 18.7318 34.8075 18.4757 35.2875 18.4757H46.8923" stroke="#0195FF" stroke-width="2" stroke-miterlimit="10" stroke-linecap="round" stroke-linejoin="round"/>
</g>
</svg>
