<svg width="60" height="60" viewBox="0 0 60 60" fill="none" xmlns="http://www.w3.org/2000/svg">
<g clip-path="url(#clip0_24_3616)">
<path d="M59.1458 15.7555C59.1457 15.7555 59.1457 15.7555 59.1455 15.7555L59.1436 15.7535L55.2707 15.2009C54.7264 15.1234 54.348 14.6193 54.4255 14.0749C54.4627 13.8134 54.6025 13.5774 54.8138 13.4189L57.9439 11.0713C58.3838 10.7414 58.4729 10.1174 58.143 9.67745L54.5589 4.89866C54.229 4.45874 53.605 4.36963 53.1651 4.69955L50.036 7.04713C49.5979 7.37953 48.9734 7.29391 48.641 6.85585C48.4796 6.64317 48.4104 6.37449 48.449 6.11028L49.0026 2.23747C49.0806 1.69314 48.7026 1.18875 48.1584 1.1106C48.1581 1.1106 48.1577 1.11047 48.1573 1.11047L42.2475 0.266218C41.7033 0.188065 41.1987 0.565888 41.1205 1.11022C41.1205 1.11035 41.1205 1.11035 41.1205 1.11047L40.567 4.98329C40.4895 5.52762 39.9853 5.90607 39.441 5.82854C39.1794 5.79133 38.9434 5.65157 38.7849 5.44026L36.4383 2.31015C36.1084 1.87022 35.4844 1.78112 35.0445 2.11103L32.0528 4.35607C30.6993 4.21221 29.3343 4.21221 27.9808 4.35607C19.1169 5.3692 12.1659 12.4381 11.3019 21.3178C11.275 21.5996 11.265 21.8793 11.2511 22.1591H10.9524C10.48 22.1599 10.0732 22.4927 9.97872 22.9555L9.29077 26.227L6.535 24.3265C6.13951 24.0535 5.60538 24.1022 5.26564 24.4419L2.27889 27.4287C1.93965 27.7683 1.89111 28.3017 2.1634 28.6971L4.05501 31.4478L0.78253 32.1358C0.324811 32.2361 -0.000993307 32.6419 2.27544e-06 33.1105V37.0928C-0.00024662 37.5637 0.329664 37.9704 0.790495 38.0675L4.06297 38.7554L2.17137 41.5062C1.89908 41.9016 1.94761 42.435 2.28685 42.7746L5.2736 45.7613C5.61334 46.1011 6.14747 46.1497 6.54297 45.8768L9.29376 43.9802L9.98171 47.2527C10.0762 47.7155 10.483 48.0483 10.9554 48.0492H14.9377C15.4086 48.0494 15.8153 47.7195 15.9124 47.2587L16.6003 43.9862L19.3511 45.8778C19.7465 46.1501 20.2799 46.1016 20.6195 45.7623L22.1656 44.2112V47.0486C22.1701 48.465 22.9289 49.7715 24.1568 50.4774V56.0089C24.1568 58.2082 25.9398 59.9912 28.1391 59.9912H32.1215C34.3208 59.9912 36.1038 58.2082 36.1038 56.0089V50.4774C37.3317 49.7715 38.0905 48.465 38.095 47.0486V43.1081C38.122 41.4501 38.9894 39.9194 40.3977 39.0441C41.2239 38.5081 42.0075 37.9089 42.7413 37.2521L41.4132 35.7687C40.7568 36.3571 40.0554 36.8933 39.3155 37.3726C37.3387 38.6133 36.1286 40.7742 36.1038 43.1081V47.0486C36.1038 48.1484 35.2124 49.0398 34.1126 49.0398H26.148C25.0482 49.0398 24.1568 48.1484 24.1568 47.0486V43.0255C24.1338 40.7358 22.9427 38.6165 20.9988 37.4064C13.108 32.4482 10.7305 22.032 15.6888 14.1411C18.7651 9.24525 24.134 6.26535 29.9162 6.24469C29.9014 6.28016 29.8884 6.31637 29.8774 6.35321C29.8405 6.61455 29.9089 6.87999 30.0676 7.09093L32.4142 10.22C32.6616 10.5403 32.6853 10.9801 32.4739 11.3251C32.2703 11.6724 31.8767 11.8618 31.4783 11.804L27.6055 11.2505C27.0612 11.1724 26.5568 11.5504 26.4786 12.0946C26.4786 12.095 26.4785 12.0954 26.4785 12.0957L25.6333 18.0085C25.5552 18.5527 25.9332 19.0572 26.4774 19.1354C26.4778 19.1354 26.4781 19.1355 26.4785 19.1355L30.3513 19.689C30.8957 19.7666 31.2741 20.2707 31.1966 20.815C31.1594 21.0766 31.0196 21.3126 30.8083 21.4711L27.6792 23.8177C27.2393 24.1476 27.1501 24.7716 27.4801 25.2115L31.0642 29.9903C31.3941 30.4302 32.0181 30.5193 32.458 30.1894L35.5881 27.8428C36.0284 27.5136 36.6524 27.6035 36.9816 28.044C37.1392 28.2546 37.207 28.5192 37.1701 28.7797L36.6175 32.6525C36.5394 33.1967 36.9172 33.7014 37.4615 33.7795C37.4616 33.7795 37.4616 33.7795 37.4618 33.7795L43.3755 34.6248C43.4221 34.6307 43.469 34.6337 43.5159 34.6337C44.0116 34.6343 44.4321 34.2702 44.5025 33.7795L45.0551 29.9067C45.1326 29.3624 45.6367 28.9839 46.1811 29.0614C46.4427 29.0986 46.6786 29.2384 46.8372 29.4497L49.1847 32.5788C49.5147 33.0188 50.1386 33.1079 50.5786 32.7779L55.3574 29.1939C55.7973 28.8639 55.8864 28.24 55.5565 27.8L53.2099 24.6709C52.9636 24.3502 52.9398 23.9112 53.1502 23.5658C53.3494 23.214 53.7466 23.0234 54.1457 23.0879L58.0185 23.6405C58.5628 23.7186 59.0674 23.3407 59.1455 22.7965C59.1455 22.7964 59.1455 22.7964 59.1455 22.7962L59.9898 16.8825C60.068 16.3381 59.6901 15.8336 59.1458 15.7555ZM26.148 51.0309H34.1126V53.0221H26.148V51.0309ZM26.148 55.0133H34.1126V56.0089C34.1126 57.1086 33.2212 58 32.1215 58H28.1391C27.0394 58 26.148 57.1086 26.148 56.0089V55.0133ZM18.2221 37.8445C18.7657 38.289 19.3337 38.7029 19.9236 39.084C20.8643 39.6785 21.5724 40.5778 21.9297 41.6317L19.7942 43.7632L17.7263 42.3375C16.8209 41.7135 15.581 41.9418 14.9569 42.8473C14.8073 43.0644 14.7023 43.3091 14.648 43.5671L14.1263 46.053H11.7598L11.2381 43.5711C11.0116 42.495 9.9557 41.8061 8.8796 42.0326C8.62162 42.0869 8.37695 42.1919 8.15979 42.3415L6.09097 43.7632L4.27702 41.9532L5.7017 39.8864C6.3263 38.9813 6.09881 37.7413 5.19371 37.1167C4.97642 36.9667 4.73151 36.8615 4.47315 36.8071L1.99117 36.2844V33.9189L4.47315 33.3962C5.54888 33.1681 6.23608 32.1112 6.00797 31.0353C5.95383 30.7801 5.85017 30.538 5.7027 30.3228L4.27702 28.25L6.09097 26.4401L8.16079 27.8657C9.06664 28.4891 10.3065 28.2601 10.9299 27.3543C11.0792 27.1374 11.184 26.8929 11.2381 26.6352L11.4124 25.8069C11.5719 26.954 11.8361 28.084 12.2019 29.1829C8.92602 29.5734 6.58702 32.5457 6.97754 35.8216C7.36806 39.0974 10.3404 41.4364 13.6162 41.0459C15.5882 40.8107 17.3144 39.6109 18.2221 37.8445ZM16.676 36.4417C15.9326 38.5081 13.6548 39.5806 11.5883 38.8373C9.52187 38.0939 8.44938 35.8161 9.19271 33.7496C9.76144 32.1688 11.2624 31.1158 12.9424 31.1193C12.9554 31.1193 12.9673 31.1193 12.9803 31.1193C13.8958 33.0934 15.1462 34.8941 16.676 36.4417ZM57.3097 21.5259L54.4225 21.1137C52.7895 20.8805 51.2767 22.0153 51.0435 23.6482C50.9315 24.4324 51.1356 25.2289 51.611 25.8626L53.3602 28.1953L50.1744 30.5847L48.4241 28.253C47.4345 26.9333 45.5624 26.6656 44.2428 27.6552C43.6091 28.1303 43.1901 28.8378 43.0778 29.622L42.6746 32.5131L38.7331 31.9496L39.1453 29.0624C39.3791 27.4296 38.2449 25.9163 36.612 25.6826C35.8274 25.5702 35.0304 25.7743 34.3964 26.2499L32.0637 27.9992L29.6743 24.8133L32.006 23.0631C33.3257 22.0734 33.5934 20.2014 32.6038 18.8817C32.1287 18.248 31.4212 17.829 30.6371 17.7168L27.7499 17.3046L28.3134 13.3631L31.2006 13.7753C32.8334 14.0091 34.3467 12.8749 34.5804 11.242C34.6928 10.4574 34.4887 9.66041 34.0131 9.02634L32.2579 6.6917L35.4437 4.30231L37.194 6.63496C38.1836 7.95473 40.0556 8.22241 41.3753 7.2328C42.009 6.75766 42.428 6.05018 42.5402 5.26603L42.9524 2.37884L46.8939 2.94135L46.4817 5.82854C46.2485 7.46154 47.3832 8.97433 49.0162 9.20754C49.8004 9.31954 50.597 9.11545 51.2307 8.64006L53.5633 6.89082L55.9527 10.0767L53.6201 11.8269C52.3003 12.8165 52.0326 14.6886 53.0222 16.0082C53.4974 16.6419 54.2048 17.0609 54.989 17.1732L57.8762 17.5854L57.3097 21.5259Z" fill="#0195FF"/>
<path d="M42.8099 9.47937C38.4111 9.47937 34.8452 13.0453 34.8452 17.444C34.8452 21.8428 38.4111 25.4087 42.8099 25.4087C47.2086 25.4087 50.7745 21.8428 50.7745 17.444C50.7696 13.0473 47.2066 9.48422 42.8099 9.47937ZM42.8099 23.4175C39.5108 23.4175 36.8364 20.7431 36.8364 17.444C36.8364 14.1449 39.5108 11.4705 42.8099 11.4705C46.109 11.4705 48.7834 14.1449 48.7834 17.444C48.7795 20.7415 46.1074 23.4137 42.8099 23.4175Z" fill="#0195FF"/>
<path d="M31.1259 44.0619H29.1348V47.0486H31.1259V44.0619Z" fill="#0195FF"/>
<path d="M25.7755 34.2842C19.6296 31.8834 16.5937 24.9549 18.9947 18.809C19.9251 16.4276 21.5948 14.4074 23.7584 13.0455L22.6942 11.361C16.1811 15.4641 14.2274 24.0703 18.3305 30.5834C19.9196 33.1058 22.2756 35.0523 25.0527 36.137C27.5108 37.0788 29.134 39.4384 29.1346 42.0707H31.1257C31.1289 38.617 29.0005 35.5196 25.7755 34.2842Z" fill="#0195FF"/>
<path d="M56.0155 37.0928H49.0464V39.0839H56.0155V37.0928Z" fill="#0195FF"/>
<path d="M48.6881 42.3006L47.4136 43.8304L53.3875 48.8075L54.662 47.2777L48.6881 42.3006Z" fill="#0195FF"/>
<path d="M45.0639 45.0574H43.0728V52.0264H45.0639V45.0574Z" fill="#0195FF"/>
<path d="M8.98071 15.2191L1.0166 17.21L1.49922 19.1406L9.46332 17.1498L8.98071 15.2191Z" fill="#0195FF"/>
<path d="M3.8271 5.42088L2.67041 7.04028L9.63893 12.0177L10.7956 10.3983L3.8271 5.42088Z" fill="#0195FF"/>
<path d="M13.1297 0.00825346L11.2007 0.501465L13.2369 8.46551L15.1659 7.97229L13.1297 0.00825346Z" fill="#0195FF"/>
</g>
<defs>
<clipPath id="clip0_24_3616">
<rect width="60" height="60" fill="white"/>
</clipPath>
</defs>
</svg>
