<svg width="60" height="60" viewBox="0 0 60 60" fill="none" xmlns="http://www.w3.org/2000/svg">
<path d="M19.4761 15.432C19.5481 14.928 20.0041 14.58 20.5081 14.64C21.0121 14.712 21.3601 15.168 21.2881 15.672L20.7961 19.296C20.7361 19.8 20.2681 20.148 19.7641 20.088C19.2601 20.016 18.9121 19.56 18.9721 19.056L19.4761 15.432ZM10.5961 17.208C10.4041 16.74 10.6321 16.2 11.1001 16.008C11.5681 15.816 12.1081 16.044 12.3001 16.512L13.6801 19.896C13.8721 20.364 13.6441 20.904 13.1761 21.096C12.7081 21.288 12.1681 21.06 11.9761 20.592L10.5961 17.208ZM3.80414 23.184C3.40814 22.872 3.32414 22.296 3.63614 21.9C3.94814 21.504 4.52414 21.42 4.92014 21.732L7.81214 23.976C8.20814 24.288 8.29214 24.864 7.98014 25.26C7.66814 25.656 7.09214 25.728 6.69614 25.428L3.80414 23.184ZM21.7441 46.296L25.2121 49.764C26.8081 51.36 26.8081 53.952 25.2121 55.548C23.6161 57.144 21.0241 57.144 19.4281 55.548L15.9481 52.08L15.0001 53.028C13.4041 54.624 10.8121 54.624 9.21614 53.028C7.62014 51.432 7.62014 48.84 9.21614 47.244L10.1761 46.284L9.33614 45.444C5.84414 41.952 4.83614 37.392 6.61214 33.06C8.68814 28.02 14.1721 24.816 19.5841 26.016C21.6001 26.46 23.6041 27.528 25.4281 29.352L26.2681 30.192L30.7921 25.668C30.2761 25.152 29.8921 24.78 29.3761 24.204C26.3521 20.772 25.5361 16.344 27.3241 12.252C27.7081 11.364 28.2001 10.536 28.7881 9.76797L27.1201 8.09997C26.6281 7.60797 26.8201 6.73197 27.5761 6.55197L39.7921 3.27597C40.4761 3.09597 41.1001 3.71997 40.9081 4.41597L37.6321 16.656C37.4521 17.34 36.5881 17.556 36.0961 17.064L34.7281 15.696C34.3321 16.836 34.7041 17.964 35.5561 18.864L36.5761 19.884L43.4761 12.984L41.3881 10.896C40.8961 10.404 41.0881 9.52797 41.8441 9.34797L55.3921 5.71197C56.0761 5.53197 56.7001 6.15597 56.5081 6.85197L52.8721 20.436C52.6921 21.12 51.8281 21.336 51.3361 20.844L49.2481 18.768L42.3601 25.68L43.2001 26.52C46.6921 30.012 47.7001 34.572 45.9241 38.904C43.8481 43.944 38.3641 47.148 32.9521 45.948C30.9361 45.504 28.9321 44.436 27.1081 42.612L26.2681 41.772L21.7441 46.296ZM17.2561 50.784L20.7241 54.252C22.1401 55.668 24.5761 54.66 24.5761 52.656C24.5761 52.08 24.3601 51.504 23.9161 51.06L20.4481 47.592L17.2561 50.784ZM27.5641 31.5L30.7561 34.692L48.6241 16.836C48.9841 16.476 49.5601 16.476 49.9201 16.836L51.5281 18.444L54.3481 7.91997L43.8241 10.74L45.4321 12.348C45.7921 12.708 45.7921 13.284 45.4321 13.644L27.5641 31.5ZM32.0521 35.988C32.8801 36.816 33.5641 37.62 34.6441 37.908C36.0121 38.256 37.3081 37.488 38.0401 36.408C39.0001 35.004 38.6161 33.516 37.4161 32.316L36.5761 31.476L32.0521 35.988ZM37.8721 30.168C39.0241 31.32 39.7921 31.98 40.2481 33.564C40.5361 34.56 40.4161 35.628 40.0681 36.48C39.5161 37.8 38.3881 38.928 37.0681 39.48C35.1601 40.272 33.1321 39.66 31.5961 38.124L24.1201 30.66C21.1681 27.696 17.4001 26.82 13.7401 28.332C9.55214 30.06 6.78014 34.668 7.78814 39.216C8.16014 40.896 9.06014 42.588 10.6321 44.16L11.4721 45L14.6641 41.808L13.8241 40.968C11.6161 38.76 11.5681 35.808 13.6801 33.696C15.7801 31.596 18.7321 31.632 20.9401 33.84L28.4041 41.304C31.3561 44.268 35.1241 45.144 38.7841 43.632C42.9721 41.904 45.7441 37.296 44.7361 32.748C44.3641 31.068 43.4641 29.376 41.8921 27.804L41.0521 26.964L37.8721 30.168ZM24.9601 40.476L21.7681 37.284L10.5001 48.54C9.08414 49.956 10.0921 52.392 12.0961 52.392C12.6721 52.392 13.2481 52.176 13.6921 51.732L24.9601 40.476ZM20.4721 35.988C19.6441 35.172 18.9601 34.356 17.8801 34.08C16.5121 33.732 15.2161 34.5 14.4841 35.58C13.5481 36.96 13.8841 38.448 15.1081 39.672L15.9481 40.512L20.4721 35.988ZM35.2681 21.192C34.3321 20.256 33.5041 19.548 33.0121 18.252C32.5801 17.124 32.6281 15.996 33.0601 14.916C33.2041 14.544 33.5881 13.824 33.8641 13.56C34.2241 13.2 34.8001 13.2 35.1601 13.56L36.2641 14.652L38.7241 5.47197L29.5441 7.93197L30.6841 9.07197C31.0201 9.40797 31.0441 9.95997 30.7201 10.332C28.4641 12.864 27.5881 16.368 28.7401 19.644C29.2321 21.048 30.1081 22.404 31.2601 23.544L32.1001 24.384L35.2681 21.192Z" fill="#353535"/>
</svg>
