<svg width="60" height="60" viewBox="0 0 60 60" fill="none" xmlns="http://www.w3.org/2000/svg">
<mask id="mask0_24_3704" style="mask-type:luminance" maskUnits="userSpaceOnUse" x="0" y="0" width="60" height="60">
<path d="M0 3.8147e-06H60V60H0V3.8147e-06Z" fill="white"/>
</mask>
<g mask="url(#mask0_24_3704)">
<path d="M1.17188 18.2023H19.558H54.553" stroke="#353535" stroke-width="2" stroke-miterlimit="10" stroke-linecap="round" stroke-linejoin="round"/>
<path d="M10.958 13.2155C12.4927 13.2155 13.7449 11.9672 13.7449 10.4333C13.7449 8.89944 12.4927 7.65116 10.958 7.65116C9.4267 7.65116 8.17432 8.89944 8.17432 10.4333C8.17432 11.9672 9.4267 13.2155 10.958 13.2155Z" stroke="#353535" stroke-width="2" stroke-miterlimit="10" stroke-linecap="round" stroke-linejoin="round"/>
<path d="M35.1504 7.65116H45.634C47.1653 7.65116 48.4176 8.90284 48.4176 10.4333C48.4176 11.9639 47.1653 13.2155 45.634 13.2155H35.1504C33.6191 13.2155 32.3667 11.9639 32.3667 10.4333C32.3667 8.90284 33.6191 7.65116 35.1504 7.65116Z" stroke="#353535" stroke-width="2" stroke-miterlimit="10" stroke-linecap="round" stroke-linejoin="round"/>
<path d="M21.2353 13.2155C22.77 13.2155 24.0223 11.9672 24.0223 10.4333C24.0223 8.89944 22.77 7.65116 21.2353 7.65116C19.704 7.65116 18.4517 8.89944 18.4517 10.4333C18.4517 11.9672 19.704 13.2155 21.2353 13.2155Z" stroke="#353535" stroke-width="2" stroke-miterlimit="10" stroke-linecap="round" stroke-linejoin="round"/>
<path d="M19.0333 27.2161L16.688 37.0302" stroke="#353535" stroke-width="2" stroke-miterlimit="10" stroke-linecap="round" stroke-linejoin="round"/>
<path d="M24.4346 36.1437L27.753 32.4185C27.8991 32.2559 27.8991 31.9903 27.753 31.8277L24.4346 28.1025" stroke="#353535" stroke-width="2" stroke-miterlimit="10" stroke-linecap="round" stroke-linejoin="round"/>
<path d="M11.287 36.1437L7.96857 32.4185C7.82232 32.2559 7.82232 31.9903 7.96857 31.8277L11.287 28.1025" stroke="#353535" stroke-width="2" stroke-miterlimit="10" stroke-linecap="round" stroke-linejoin="round"/>
<path d="M47.4047 32.3953C48.6869 32.6809 49.8861 33.1855 50.9657 33.8627L51.9257 32.9066C52.4937 32.3356 53.4271 32.3356 53.9985 32.9066L55.5099 34.4173C56.0812 34.9883 56.0812 35.9213 55.5099 36.489L54.5532 37.4484C55.2276 38.5175 55.7258 39.7062 56.0149 40.9744H57.3601C58.1674 40.9744 58.8283 41.6351 58.8283 42.4385V44.58C58.8283 45.3833 58.1674 46.044 57.3601 46.044H56.0082C55.7191 47.3057 55.2209 48.4876 54.5532 49.55L55.5099 50.5062C56.0812 51.0772 56.0812 52.0102 55.5099 52.5779L53.9985 54.0919C53.4271 54.6629 52.4937 54.6629 51.9257 54.0919L50.9657 53.1356C49.8994 53.8063 48.7135 54.3043 47.4446 54.5932V55.9543C47.4446 56.7612 46.7835 57.4219 45.9797 57.4219H43.8372C43.0332 57.4219 42.3722 56.7612 42.3722 55.9543V54.5899C41.1099 54.3043 39.9241 53.803 38.8577 53.1356L37.9011 54.0919C37.3297 54.6629 36.3964 54.6629 35.8283 54.0919L34.3136 52.5779C33.7455 52.0102 33.7455 51.0772 34.3136 50.5062L35.2735 49.55C34.6026 48.4876 34.1043 47.3057 33.8153 46.044H32.4567C31.6496 46.044 30.9917 45.3833 30.9917 44.58V42.4385C30.9917 41.6351 31.6496 40.9744 32.4567 40.9744H33.8121C34.0976 39.7194 34.5894 38.5441 35.2503 37.485L34.287 36.5189C33.7157 35.9511 33.7157 35.0182 34.287 34.4472L35.7984 32.9365C36.3698 32.3654 37.3032 32.3654 37.8712 32.9365L38.8245 33.8861C39.8876 33.2121 41.0701 32.7107 42.3324 32.4152V31.0641C42.3324 30.2572 42.9901 29.5965 43.7972 29.5965H45.9365C46.7437 29.5965 47.4047 30.2572 47.4047 31.0641V32.3953Z" stroke="#353535" stroke-width="2" stroke-miterlimit="10" stroke-linecap="round" stroke-linejoin="round"/>
<path d="M44.9101 37.4716C48.2451 37.4716 50.9491 40.1742 50.9491 43.5108C50.9491 46.8442 48.2451 49.5466 44.9101 49.5466C41.5718 49.5466 38.8677 46.8442 38.8677 43.5108C38.8677 40.1742 41.5718 37.4716 44.9101 37.4716Z" stroke="#353535" stroke-width="2" stroke-miterlimit="10" stroke-linecap="round" stroke-linejoin="round"/>
<path d="M12.4726 46.0439H5.53664C3.13852 46.0439 1.17188 43.6968 1.17188 40.8316V7.79043C1.17188 4.92203 3.135 2.57805 5.53664 2.57805H10.5925H50.1882C52.5899 2.57805 54.553 4.92532 54.553 7.79043V33.4611M32.4565 46.0439H22.9462" stroke="#353535" stroke-width="2" stroke-miterlimit="10" stroke-linecap="round" stroke-linejoin="round"/>
<path d="M17.7212 46.0439H17.7444" stroke="#353535" stroke-width="2" stroke-miterlimit="10" stroke-linecap="round" stroke-linejoin="round"/>
</g>
</svg>
