<svg width="60" height="60" viewBox="0 0 60 60" fill="none" xmlns="http://www.w3.org/2000/svg">
<path d="M20.5078 9.375C21.4786 9.375 22.2656 8.588 22.2656 7.61719C22.2656 6.64637 21.4786 5.85938 20.5078 5.85938C19.537 5.85938 18.75 6.64637 18.75 7.61719C18.75 8.588 19.537 9.375 20.5078 9.375Z" fill="#353535"/>
<path d="M54.4922 49.2188C55.463 49.2188 56.25 48.4318 56.25 47.4609C56.25 46.4901 55.463 45.7031 54.4922 45.7031C53.5214 45.7031 52.7344 46.4901 52.7344 47.4609C52.7344 48.4318 53.5214 49.2188 54.4922 49.2188Z" fill="#353535"/>
<path d="M5.85938 9.375C6.50658 9.375 7.03125 8.85033 7.03125 8.20312C7.03125 7.55592 6.50658 7.03125 5.85938 7.03125C5.21217 7.03125 4.6875 7.55592 4.6875 8.20312C4.6875 8.85033 5.21217 9.375 5.85938 9.375Z" fill="#353535"/>
<path d="M29.2969 14.0625C29.9441 14.0625 30.4688 13.5378 30.4688 12.8906C30.4688 12.2434 29.9441 11.7188 29.2969 11.7188C28.6497 11.7188 28.125 12.2434 28.125 12.8906C28.125 13.5378 28.6497 14.0625 29.2969 14.0625Z" fill="#353535"/>
<path d="M31.6406 48.0469C32.2878 48.0469 32.8125 47.5222 32.8125 46.875C32.8125 46.2278 32.2878 45.7031 31.6406 45.7031C30.9934 45.7031 30.4688 46.2278 30.4688 46.875C30.4688 47.5222 30.9934 48.0469 31.6406 48.0469Z" fill="#353535"/>
<path d="M44.5312 57.4219C45.1785 57.4219 45.7031 56.8972 45.7031 56.25C45.7031 55.6028 45.1785 55.0781 44.5312 55.0781C43.884 55.0781 43.3594 55.6028 43.3594 56.25C43.3594 56.8972 43.884 57.4219 44.5312 57.4219Z" fill="#353535"/>
<path d="M20.2852 58.5938H6.66797C3.64453 58.5938 1.17188 56.1211 1.17188 53.0977V24.2461C1.17188 21.2109 3.64453 18.75 6.66797 18.75H20.2734C23.3086 18.75 25.7695 21.2227 25.7695 24.2461V53.0859C25.7812 56.1211 23.3086 58.5938 20.2852 58.5938ZM6.66797 21.0938C4.93359 21.0938 3.51562 22.5117 3.51562 24.2461V53.0859C3.51562 54.832 4.93359 56.2383 6.66797 56.2383H20.2734C22.0195 56.2383 23.4258 54.8203 23.4258 53.0859V24.2461C23.4258 22.5 22.0078 21.0938 20.2734 21.0938H6.66797Z" fill="#353535"/>
<path d="M24.6094 28.125H2.34375C1.69922 28.125 1.17188 27.5977 1.17188 26.9531C1.17188 26.3086 1.69922 25.7812 2.34375 25.7812H24.6094C25.2539 25.7812 25.7812 26.3086 25.7812 26.9531C25.7812 27.5977 25.2539 28.125 24.6094 28.125Z" fill="#353535"/>
<path d="M24.6094 51.5625H2.34375C1.69922 51.5625 1.17188 51.0352 1.17188 50.3906C1.17188 49.7461 1.69922 49.2188 2.34375 49.2188H24.6094C25.2539 49.2188 25.7812 49.7461 25.7812 50.3906C25.7812 51.0352 25.2539 51.5625 24.6094 51.5625Z" fill="#353535"/>
<path d="M53.0977 41.0156H39.4805C36.4453 41.0156 33.9844 38.543 33.9844 35.5195V6.66797C33.9844 3.63281 36.457 1.17188 39.4805 1.17188H53.0859C56.1211 1.17188 58.582 3.64453 58.582 6.66797V35.5078C58.5938 38.543 56.1211 41.0156 53.0977 41.0156ZM39.4805 3.51562C37.7461 3.51562 36.3281 4.93359 36.3281 6.66797V35.5078C36.3281 37.2539 37.7461 38.6602 39.4805 38.6602H53.0859C54.832 38.6602 56.2383 37.2422 56.2383 35.5078V6.66797C56.2383 4.92188 54.8203 3.51562 53.0859 3.51562H39.4805Z" fill="#353535"/>
<path d="M57.4219 10.5469H35.1562C34.5117 10.5469 33.9844 10.0195 33.9844 9.375C33.9844 8.73047 34.5117 8.20312 35.1562 8.20312H57.4219C58.0664 8.20312 58.5938 8.73047 58.5938 9.375C58.5938 10.0195 58.0664 10.5469 57.4219 10.5469Z" fill="#353535"/>
<path d="M57.4219 33.9844H35.1562C34.5117 33.9844 33.9844 33.457 33.9844 32.8125C33.9844 32.168 34.5117 31.6406 35.1562 31.6406H57.4219C58.0664 31.6406 58.5938 32.168 58.5938 32.8125C58.5938 33.457 58.0664 33.9844 57.4219 33.9844Z" fill="#353535"/>
<path d="M25.4062 41.0156H16.4062C15.7617 41.0156 15.2344 40.4883 15.2344 39.8438C15.2344 39.1992 15.7617 38.6719 16.4062 38.6719H25.4062C26.9062 38.6719 28.125 37.4531 28.125 35.9531V26.168C28.125 23.3789 30.3984 21.1055 33.1875 21.1055H48.0469C48.6914 21.1055 49.2188 21.6328 49.2188 22.2773C49.2188 22.9219 48.6914 23.4492 48.0469 23.4492H33.1875C31.6875 23.4492 30.4688 24.668 30.4688 26.168V35.9531C30.4688 38.7422 28.1953 41.0156 25.4062 41.0156Z" fill="#353535"/>
<path d="M44.8711 25.4414C44.4141 24.9844 44.4141 24.2461 44.8711 23.7891L46.3828 22.2773L44.8711 20.7656C44.4141 20.3086 44.4141 19.5703 44.8711 19.1133C45.3281 18.6563 46.0664 18.6563 46.5234 19.1133L48.8672 21.457C49.3242 21.9141 49.3242 22.6523 48.8672 23.1094L46.5234 25.4531C46.0781 25.8984 45.3281 25.8984 44.8711 25.4414Z" fill="#353535"/>
<path d="M12.8906 44.5312C10.3008 44.5312 8.20312 42.4336 8.20312 39.8438C8.20312 37.2539 10.3008 35.1562 12.8906 35.1562C15.4805 35.1562 17.5781 37.2539 17.5781 39.8438C17.5781 42.4336 15.4805 44.5312 12.8906 44.5312ZM12.8906 37.5C11.6016 37.5 10.5469 38.5547 10.5469 39.8438C10.5469 41.1328 11.6016 42.1875 12.8906 42.1875C14.1797 42.1875 15.2344 41.1328 15.2344 39.8438C15.2344 38.5547 14.1797 37.5 12.8906 37.5Z" fill="#353535"/>
</svg>
