<svg width="61" height="60" viewBox="0 0 61 60" fill="none" xmlns="http://www.w3.org/2000/svg">
<g clip-path="url(#clip0_24_3085)">
<path d="M51.8812 17.909C52.5662 18.2391 53.3841 18.1099 53.934 17.5848C54.4839 17.0596 54.6505 16.2485 54.3522 15.549C50.1835 6.10021 40.8298 0.0032959 30.5022 0.0032959C20.1747 0.0032959 10.8209 6.10021 6.65222 15.549C6.35392 16.2485 6.52055 17.0596 7.07044 17.5848C7.62033 18.1099 8.43822 18.2391 9.12322 17.909C9.22322 17.86 9.33922 17.817 9.44922 17.772L15.8922 23.828C15.6399 24.1669 15.5025 24.5775 15.5002 25V28C15.5002 29.1046 16.3957 30 17.5002 30H18.5002V38C18.5002 39.6569 19.8434 41 21.5002 41H23.5802C23.8328 42.7423 24.7325 44.3255 26.1002 45.434C23.3424 46.4424 21.5061 49.0636 21.5002 52V57C21.5002 58.6569 22.8434 60 24.5002 60H36.5002C38.1571 60 39.5002 58.6569 39.5002 57V52C39.4944 49.0636 37.658 46.4424 34.9002 45.434C36.2679 44.3255 37.1677 42.7423 37.4202 41H39.5002C41.1571 41 42.5002 39.6569 42.5002 38V30H43.5002C44.6048 30 45.5002 29.1046 45.5002 28V25C45.4995 24.5851 45.3687 24.1808 45.1262 23.844L51.5772 17.781C51.6792 17.823 51.7852 17.864 51.8812 17.909ZM52.3332 15.923C50.4581 15.247 48.4714 14.9337 46.4792 15C44.0855 14.9191 41.7072 15.4125 39.5432 16.439C39.1002 8.67903 36.5112 4.50003 34.2622 2.30903C42.1798 3.5483 48.9578 8.65459 52.3332 15.923ZM33.5002 23H25.4882L23.5812 18.521C24.3002 18.077 26.4482 17 30.5002 17C34.5522 17 36.7002 18.075 37.4192 18.521L35.5122 23H33.5002ZM32.5002 28H28.5002V25H32.5002V28ZM30.5002 2.06703C31.7912 2.62803 36.8302 5.51703 37.5202 16.323C35.3034 15.3797 32.9084 14.9283 30.5002 15C28.0941 14.928 25.7009 15.378 23.4852 16.319C24.1772 5.50603 29.2242 2.62203 30.5002 2.06703ZM26.7452 2.30703C24.5002 4.50003 21.9102 8.67903 21.4642 16.443C19.2986 15.4135 16.9177 14.9187 14.5212 15C12.7578 14.9619 10.9994 15.2012 9.31022 15.709L9.27922 15.719C9.07922 15.787 8.85622 15.845 8.66722 15.919C12.0449 8.6486 18.8273 3.54262 26.7482 2.30703H26.7452ZM14.5212 17C18.8412 17 20.8712 18.364 21.2352 18.639C21.3262 18.6978 21.4223 18.7483 21.5222 18.79L23.3152 23H17.9262L11.7432 17.187C12.6636 17.0583 13.5919 16.9958 14.5212 17ZM17.5002 25H26.5002V28H17.5002V25ZM32.5002 47C35.2603 47.0033 37.4969 49.24 37.5002 52V57C37.5002 57.5523 37.0525 58 36.5002 58C35.9479 58 35.5002 57.5523 35.5002 57V52C35.5002 51.4477 35.0525 51 34.5002 51C33.9479 51 33.5002 51.4477 33.5002 52V57C33.5035 57.3415 33.5658 57.6798 33.6842 58H27.3162C27.4347 57.6798 27.4969 57.3415 27.5002 57V52C27.5002 51.4477 27.0525 51 26.5002 51C25.9479 51 25.5002 51.4477 25.5002 52V57C25.5002 57.5523 25.0525 58 24.5002 58C23.9479 58 23.5002 57.5523 23.5002 57V52C23.5035 49.24 25.7402 47.0033 28.5002 47H32.5002ZM30.5002 45C27.7388 45 25.5002 42.7615 25.5002 40C25.5002 37.2386 27.7388 35 30.5002 35C33.2616 35 35.5002 37.2386 35.5002 40C35.4969 42.7601 33.2603 44.9967 30.5002 45ZM40.5002 38C40.5002 38.5523 40.0525 39 39.5002 39H37.4202C36.9259 35.5582 33.9773 33.0029 30.5002 33.0029C27.0231 33.0029 24.0745 35.5582 23.5802 39H21.5002C20.9479 39 20.5002 38.5523 20.5002 38V30H40.5002V38ZM41.5002 28H34.5002V25H43.5002V28H41.5002ZM43.1002 23H37.6852L39.4782 18.789C39.5786 18.7475 39.675 18.697 39.7662 18.638C40.1292 18.364 42.1592 17 46.4792 17C47.418 16.9954 48.3558 17.0592 49.2852 17.191L43.1002 23Z" fill="#B10043"/>
<path d="M3.5 60H15.5C17.1569 60 18.5 58.6569 18.5 57V52C18.4942 49.0636 16.6578 46.4424 13.9 45.434C16.2056 43.5686 17.0854 40.4527 16.096 37.6569C15.1066 34.8611 12.4627 32.9922 9.497 32.9922C6.53128 32.9922 3.88743 34.8611 2.89803 37.6569C1.90863 40.4527 2.78843 43.5686 5.094 45.434C2.33855 46.4444 0.504908 49.0652 0.5 52V57C0.5 58.6569 1.84315 60 3.5 60ZM4.5 40C4.5 37.2386 6.73858 35 9.5 35C12.2614 35 14.5 37.2386 14.5 40C14.5 42.7614 12.2614 45 9.5 45C6.73995 44.9967 4.50331 42.7601 4.5 40ZM2.5 52C2.50331 49.24 4.73995 47.0033 7.5 47H11.5C14.2601 47.0033 16.4967 49.24 16.5 52V57C16.5 57.5523 16.0523 58 15.5 58C14.9477 58 14.5 57.5523 14.5 57V52C14.5 51.4477 14.0523 51 13.5 51C12.9477 51 12.5 51.4477 12.5 52V57C12.5033 57.3415 12.5656 57.6798 12.684 58H6.316C6.43444 57.6798 6.49669 57.3415 6.5 57V52C6.5 51.4477 6.05228 51 5.5 51C4.94772 51 4.5 51.4477 4.5 52V57C4.5 57.5523 4.05228 58 3.5 58C2.94772 58 2.5 57.5523 2.5 57V52Z" fill="#B10043"/>
<path d="M55.9 45.434C58.2056 43.5686 59.0854 40.4527 58.096 37.6569C57.1066 34.8611 54.4627 32.9922 51.497 32.9922C48.5313 32.9922 45.8874 34.8611 44.898 37.6569C43.9086 40.4527 44.7884 43.5686 47.094 45.434C44.3386 46.4444 42.5049 49.0652 42.5 52V57C42.5 58.6569 43.8431 60 45.5 60H57.5C59.1569 60 60.5 58.6569 60.5 57V52C60.4942 49.0636 58.6578 46.4424 55.9 45.434ZM46.5 40C46.5 37.2386 48.7386 35 51.5 35C54.2614 35 56.5 37.2386 56.5 40C56.5 42.7614 54.2614 45 51.5 45C48.7399 44.9967 46.5033 42.7601 46.5 40ZM58.5 57C58.5 57.5523 58.0523 58 57.5 58C56.9477 58 56.5 57.5523 56.5 57V52C56.5 51.4477 56.0523 51 55.5 51C54.9477 51 54.5 51.4477 54.5 52V57C54.5033 57.3415 54.5656 57.6798 54.684 58H48.316C48.4344 57.6798 48.4967 57.3415 48.5 57V52C48.5 51.4477 48.0523 51 47.5 51C46.9477 51 46.5 51.4477 46.5 52V57C46.5 57.5523 46.0523 58 45.5 58C44.9477 58 44.5 57.5523 44.5 57V52C44.5033 49.24 46.7399 47.0033 49.5 47H53.5C56.2601 47.0033 58.4967 49.24 58.5 52V57Z" fill="#B10043"/>
</g>
<defs>
<clipPath id="clip0_24_3085">
<rect width="60" height="60" fill="white" transform="translate(0.5)"/>
</clipPath>
</defs>
</svg>
