<svg width="60" height="60" viewBox="0 0 60 60" fill="none" xmlns="http://www.w3.org/2000/svg">
<g clip-path="url(#clip0_22_1744)">
<path d="M51 26C49.535 26.0009 48.0923 26.3595 46.7973 27.0445C45.5023 27.7296 44.3941 28.7204 43.569 29.931C39.744 29.542 34 27.537 34 19V12H35.43C35.912 11.9997 36.3839 11.8627 36.7911 11.6047C37.1983 11.3468 37.5238 10.9786 37.73 10.543C37.9484 10.0991 38.0361 9.60228 37.983 9.11044C37.9299 8.6186 37.7381 8.15198 37.43 7.76496L31.992 0.969962C31.7552 0.668062 31.4529 0.423949 31.1078 0.256079C30.7628 0.0882091 30.3842 0.000976563 30.0005 0.000976562C29.6168 0.000976563 29.2381 0.0882091 28.8931 0.256079C28.5481 0.423949 28.2458 0.668062 28.009 0.969962L22.567 7.76996C22.2583 8.15613 22.0662 8.6223 22.013 9.11379C21.9599 9.60529 22.048 10.1018 22.267 10.545C22.4736 10.9807 22.7998 11.3488 23.2075 11.6064C23.6152 11.864 24.0877 12.0005 24.57 12H26V19C26 27.536 20.256 29.541 16.431 29.93C15.2841 28.249 13.6014 27.0063 11.6575 26.4046C9.7135 25.803 7.62301 25.8779 5.72709 26.6171C3.83116 27.3563 2.24171 28.7162 1.21807 30.475C0.194426 32.2337 -0.202982 34.2874 0.0906849 36.3011C0.384352 38.3147 1.35176 40.1694 2.83506 41.5625C4.31837 42.9556 6.23001 43.805 8.25809 43.9719C10.2862 44.1389 12.311 43.6136 14.0021 42.4818C15.6933 41.35 16.951 39.6785 17.57 37.74C20.5689 37.2673 23.4384 36.1825 26 34.553V42.953C24.1817 43.8551 22.7217 45.3454 21.8571 47.1819C20.9926 49.0184 20.7743 51.0932 21.2376 53.0694C21.7009 55.0457 22.8186 56.8073 24.4093 58.0682C26 59.3291 27.9702 60.0152 30 60.0152C32.0298 60.0152 34 59.3291 35.5907 58.0682C37.1814 56.8073 38.2991 55.0457 38.7624 53.0694C39.2257 51.0932 39.0074 49.0184 38.1428 47.1819C37.2783 45.3454 35.8183 43.8551 34 42.953V34.553C36.5615 36.1828 39.431 37.268 42.43 37.741C42.9361 39.3237 43.8704 40.7355 45.1296 41.8198C46.3888 42.9041 47.9236 43.6187 49.5639 43.8843C51.2042 44.1499 52.8861 43.9561 54.4231 43.3246C55.9601 42.693 57.2922 41.6483 58.2719 40.3061C59.2516 38.9639 59.8406 37.3767 59.9736 35.7203C60.1066 34.064 59.7784 32.4031 59.0254 30.9218C58.2725 29.4405 57.1241 28.1966 55.7076 27.3278C54.2911 26.4591 52.6617 25.9995 51 26ZM8.99998 42C7.61551 42 6.26213 41.5894 5.11099 40.8203C3.95984 40.0511 3.06264 38.9578 2.53282 37.6787C2.00301 36.3997 1.86439 34.9922 2.13448 33.6343C2.40458 32.2765 3.07126 31.0292 4.05023 30.0502C5.0292 29.0713 6.27648 28.4046 7.63435 28.1345C8.99221 27.8644 10.3997 28.003 11.6788 28.5328C12.9578 29.0626 14.0511 29.9598 14.8203 31.111C15.5894 32.2621 16 33.6155 16 35C15.9976 36.8558 15.2593 38.6348 13.9471 39.9471C12.6349 41.2593 10.8558 41.9976 8.99998 42ZM37 51C37 52.3844 36.5894 53.7378 35.8203 54.889C35.0511 56.0401 33.9578 56.9373 32.6788 57.4671C31.3997 57.9969 29.9922 58.1356 28.6343 57.8655C27.2765 57.5954 26.0292 56.9287 25.0502 55.9497C24.0713 54.9707 23.4046 53.7235 23.1345 52.3656C22.8644 51.0077 23.003 49.6003 23.5328 48.3212C24.0626 47.0421 24.9598 45.9489 26.111 45.1797C27.2621 44.4105 28.6155 44 30 44C31.8558 44.0023 33.6349 44.7406 34.9471 46.0529C36.2593 47.3651 36.9976 49.1442 37 51ZM33.641 31.8C33.4949 31.6779 33.317 31.6002 33.1282 31.5758C32.9394 31.5514 32.7475 31.5813 32.5752 31.6622C32.4029 31.7431 32.2572 31.8715 32.1553 32.0323C32.0534 32.1931 31.9995 32.3796 32 32.57V42.232C30.6846 41.9226 29.3154 41.9226 28 42.232V32.57C27.9999 32.3799 27.9456 32.1937 27.8435 32.0334C27.7414 31.873 27.5956 31.7451 27.4234 31.6646C27.2512 31.5841 27.0596 31.5543 26.8711 31.5789C26.6825 31.6034 26.5049 31.6811 26.359 31.803C23.9209 33.7523 21.0381 35.0677 17.968 35.632C17.983 35.423 18 35.213 18 35C17.998 33.911 17.797 32.8316 17.407 31.815C21.087 31.225 28 28.81 28 19V11C28 10.7347 27.8946 10.4804 27.7071 10.2929C27.5196 10.1053 27.2652 9.99996 27 9.99996H24.57C24.4639 10.0003 24.3601 9.96958 24.2713 9.91166C24.1824 9.85374 24.1125 9.77112 24.07 9.67396C24.017 9.56936 23.995 9.45186 24.0063 9.33517C24.0176 9.21848 24.0619 9.10743 24.134 9.01496L29.575 2.21496C29.6244 2.14778 29.689 2.09316 29.7634 2.05552C29.8378 2.01787 29.9201 1.99826 30.0035 1.99826C30.0869 1.99826 30.1691 2.01787 30.2436 2.05552C30.318 2.09316 30.3825 2.14778 30.432 2.21496L35.871 9.01496C35.9435 9.10779 35.9881 9.21931 35.9996 9.33653C36.0111 9.45374 35.989 9.57181 35.936 9.67696C35.8935 9.77412 35.8235 9.85674 35.7347 9.91466C35.6459 9.97258 35.542 10.0033 35.436 10.003H33C32.7348 10.003 32.4804 10.1083 32.2929 10.2959C32.1053 10.4834 32 10.7377 32 11.003V19.003C32 28.812 38.913 31.228 42.593 31.817C42.2032 32.833 42.0022 33.9117 42 35C42 35.213 42.017 35.422 42.032 35.632C38.9616 35.0668 36.0788 33.7503 33.641 31.8ZM51 42C49.6155 42 48.2621 41.5894 47.111 40.8203C45.9598 40.0511 45.0626 38.9578 44.5328 37.6787C44.003 36.3997 43.8644 34.9922 44.1345 33.6343C44.4046 32.2765 45.0713 31.0292 46.0502 30.0502C47.0292 29.0713 48.2765 28.4046 49.6344 28.1345C50.9922 27.8644 52.3997 28.003 53.6788 28.5328C54.9578 29.0626 56.0511 29.9598 56.8203 31.111C57.5894 32.2621 58 33.6155 58 35C57.9976 36.8558 57.2593 38.6348 55.9471 39.9471C54.6349 41.2593 52.8558 41.9976 51 42Z" fill="#C73E9B"/>
</g>
<defs>
<clipPath id="clip0_22_1744">
<rect width="60" height="60" fill="white"/>
</clipPath>
</defs>
</svg>
