<svg width="60" height="60" viewBox="0 0 60 60" fill="none" xmlns="http://www.w3.org/2000/svg">
<g clip-path="url(#clip0_22_2062)">
<path d="M2.48587 24.7535C1.25947 24.9524 0.310764 25.9357 0.155872 27.1685C-0.0500596 29.0357 -0.0521328 30.9198 0.14985 32.7875C0.290625 34.0394 1.24515 35.0457 2.48785 35.2524L5.66981 35.7734C6.28069 38.3754 7.31193 40.8604 8.72274 43.1303L6.84982 45.7463C6.10349 46.7582 6.12156 48.1431 6.89385 49.1353C7.48992 49.8646 8.1242 50.5619 8.79382 51.2244C9.40787 51.8394 10.0868 52.4574 10.9018 53.1423C11.8861 53.8993 13.252 53.9151 14.2538 53.1813L16.8827 51.2953C19.1504 52.706 21.6329 53.7375 24.2326 54.3493L24.7547 57.5363C24.9531 58.7631 25.9366 59.7123 27.1697 59.8672C27.7397 59.9312 28.3187 59.9762 28.9016 60.0002H28.9866C29.5078 59.9998 30.009 59.7993 30.3866 59.4402C30.7792 59.065 31.0007 58.5453 30.9995 58.0022V49.9883C30.9936 48.9175 30.1484 48.0396 29.0785 47.9933C19.5073 47.4936 12.0029 39.5873 12.0029 30.003C12.0029 20.4187 19.5073 12.5124 29.0785 12.0126C30.15 11.9656 30.9958 11.0853 30.9995 10.0127V2.00277C31.0011 1.45911 30.7791 0.938853 30.3855 0.563814C29.9926 0.17831 29.4562 -0.025153 28.9065 0.00278489C28.3245 0.0257868 27.7475 0.067743 27.1555 0.127765C25.923 0.286607 24.9444 1.24163 24.7555 2.46971L24.2345 5.65365C21.6348 6.26591 19.1523 7.29774 16.8846 8.70866L14.2556 6.82665C13.2446 6.08733 11.8655 6.10934 10.8787 6.88065C10.1537 7.47416 9.45979 8.10459 8.79975 8.76967C8.11946 9.43465 7.47906 10.1392 6.8818 10.8796C6.11879 11.8652 6.09925 13.2366 6.83383 14.2436L8.7188 16.8756C7.30916 19.1454 6.27931 21.6301 5.66981 24.2316L2.48587 24.7535ZM7.47887 25.3115C8.06023 22.4871 9.17558 19.7997 10.7649 17.3936C10.9926 17.0476 10.9834 16.597 10.7419 16.2606L8.46094 13.0757C8.25007 12.7974 8.24395 12.4145 8.44593 12.1296C8.99403 11.4503 9.58211 10.8042 10.2069 10.1946C10.8138 9.58154 11.4513 8.99939 12.1169 8.4506C12.4033 8.23223 12.8004 8.23223 13.0869 8.4506L16.2669 10.7326C16.6037 10.9736 17.0543 10.9819 17.3999 10.7537C19.8039 9.16376 22.4898 8.04802 25.3128 7.46665C25.7187 7.38304 26.0309 7.05765 26.0979 6.64865L26.7268 2.79766C26.772 2.45224 27.0373 2.17681 27.3808 2.11866C27.9098 2.06368 28.4458 2.02468 28.9999 2.00267L28.9778 10.0135C18.3315 10.5573 9.98005 19.351 9.98597 30.0113C9.9918 40.6715 18.3529 49.4561 28.9999 49.9881L28.9858 58.002C28.4488 57.98 27.9169 57.938 27.3919 57.879C27.0468 57.8286 26.7763 57.5565 26.7279 57.211L26.0979 53.358C26.0309 52.949 25.7188 52.6237 25.3128 52.54C22.4898 51.9581 19.8039 50.8422 17.3999 49.252C17.0541 49.024 16.6036 49.0328 16.2669 49.274L13.0839 51.558C12.8124 51.7691 12.4353 51.7793 12.1529 51.583C11.4179 50.964 10.7809 50.3831 10.2069 49.81C9.59376 49.2041 9.012 48.5674 8.4639 47.902C8.24819 47.6139 8.24819 47.2182 8.4639 46.93L10.7429 43.748C10.9841 43.4114 10.9929 42.9608 10.7649 42.615C9.17548 40.2094 8.06013 37.5222 7.47887 34.6981C7.39535 34.2926 7.07046 33.9804 6.66185 33.9131L2.81185 33.2821C2.45349 33.2229 2.17836 32.9322 2.13887 32.5711C1.9516 30.8511 1.95357 29.1157 2.14489 27.3962C2.19465 27.0507 2.46633 26.7795 2.81185 26.7302L6.66077 26.1002C7.07095 26.033 7.39663 25.719 7.47887 25.3115Z" fill="#CC0444"/>
<path d="M56.9995 27.0023C55.7328 27.0075 54.6059 27.8079 54.1835 29.0022H30.9998V26.0022H46.9996C48.6565 26.0022 49.9996 24.6591 49.9996 23.0023V17.8184C51.3771 17.3314 52.2034 15.9227 51.9563 14.4827C51.7092 13.0427 50.4606 11.99 48.9995 11.99C47.5385 11.99 46.2898 13.0427 46.0427 14.4827C45.7956 15.9227 46.6219 17.3314 47.9995 17.8184V23.0023C47.9995 23.5545 47.5518 24.0023 46.9994 24.0023H30.9998V21.0023H41.9996C42.5519 21.0023 42.9996 20.5546 42.9996 20.0023C42.9996 19.4499 42.5519 19.0022 41.9996 19.0022H30.9998V17.0023H36.9997C38.6566 17.0023 39.9998 15.6592 39.9998 14.0022V7.81848C41.3773 7.33149 42.2036 5.92284 41.9565 4.48281C41.7094 3.04277 40.4608 1.99011 38.9997 1.99011C37.5386 1.99011 36.29 3.04277 36.0429 4.48281C35.7958 5.92284 36.6221 7.33149 37.9997 7.81848V14.0024C37.9997 14.5547 37.552 15.0025 36.9996 15.0025H30.7357C30.3917 14.3631 29.7051 13.9844 28.9808 14.0345C20.5539 14.5683 13.9923 21.5586 13.9923 30.0024C13.9923 38.4461 20.5539 45.4364 28.9808 45.9702H29.0977C29.7809 45.976 30.4112 45.6034 30.7357 45.0023H36.9996C37.5519 45.0023 37.9997 45.45 37.9997 46.0023V52.1863C36.6221 52.6733 35.7958 54.0819 36.0429 55.5219C36.29 56.962 37.5386 58.0146 38.9997 58.0146C40.4608 58.0146 41.7094 56.962 41.9565 55.5219C42.2036 54.0819 41.3773 52.6733 39.9998 52.1863V46.0023C39.9998 44.3455 38.6567 43.0023 36.9997 43.0023H30.9998V41.0023H41.9996C42.5519 41.0023 42.9996 40.5546 42.9996 40.0024C42.9996 39.4501 42.5519 39.0023 41.9996 39.0023H30.9998V36.0024H46.9996C47.5519 36.0024 47.9997 36.4501 47.9997 37.0024V42.1863C46.6221 42.6733 45.7958 44.0819 46.0429 45.5219C46.29 46.962 47.5386 48.0146 48.9997 48.0146C50.4608 48.0146 51.7094 46.962 51.9565 45.5219C52.2036 44.0819 51.3773 42.6733 49.9998 42.1863V37.0024C49.9998 35.3455 48.6567 34.0024 46.9998 34.0024H30.9998V31.0022H54.1835C54.6945 32.4368 56.2007 33.2595 57.684 32.9141C59.1671 32.5688 60.1551 31.1655 59.98 29.6527C59.8048 28.1401 58.5223 26.9996 56.9995 27.0023ZM48.9996 14.0024C49.5519 14.0024 49.9996 14.4501 49.9996 15.0025C49.9996 15.5548 49.5519 16.0025 48.9996 16.0025C48.4474 16.0025 47.9997 15.5548 47.9997 15.0025C47.9997 14.4501 48.4473 14.0024 48.9996 14.0024ZM38.9997 4.00253C39.552 4.00253 39.9998 4.45023 39.9998 5.00257C39.9998 5.55491 39.5521 6.00251 38.9997 6.00251C38.4474 6.00251 37.9998 5.55481 37.9998 5.00257C37.9998 4.45033 38.4474 4.00253 38.9997 4.00253ZM38.9997 56.002C38.4475 56.002 37.9998 55.5543 37.9998 55.002C37.9998 54.4496 38.4475 54.0019 38.9997 54.0019C39.552 54.0019 39.9998 54.4496 39.9998 55.002C39.9998 55.5543 39.552 56.002 38.9997 56.002ZM48.9996 46.0021C48.4474 46.0021 47.9997 45.5544 47.9997 45.0021C47.9997 44.4497 48.4474 44.0021 48.9996 44.0021C49.5519 44.0021 49.9996 44.4498 49.9996 45.0021C49.9996 45.5543 49.5519 46.0021 48.9996 46.0021ZM15.9999 30.0023C16.0083 22.6617 21.6786 16.571 28.9998 16.0384V43.9662C21.6786 43.4335 16.0083 37.3427 15.9999 30.0023ZM56.9995 31.0022C56.4473 31.0022 55.9995 30.5545 55.9995 30.0022C55.9995 29.4498 56.4472 29.0022 56.9995 29.0022C57.5519 29.0022 57.9996 29.4499 57.9996 30.0022C57.9996 30.5544 57.5518 31.0022 56.9995 31.0022Z" fill="#CC0444"/>
</g>
<defs>
<clipPath id="clip0_22_2062">
<rect width="60" height="60" fill="white"/>
</clipPath>
</defs>
</svg>
