<svg width="60" height="60" viewBox="0 0 60 60" fill="none" xmlns="http://www.w3.org/2000/svg">
<path d="M14.052 55.236C14.2805 55.9863 14.7435 56.6435 15.3731 57.1111C16.0028 57.5787 16.7657 57.8321 17.55 57.834C17.9054 57.8343 18.2589 57.7838 18.6 57.684L42.372 50.526L46.65 49.968C47.1257 49.9066 47.5846 49.752 48.0005 49.513C48.4164 49.274 48.781 48.9554 49.0736 48.5753C49.3662 48.1952 49.581 47.7612 49.7056 47.298C49.8302 46.8348 49.8623 46.3516 49.8 45.876L47.544 28.656L54.648 17.76L56.4 15.114L57.24 13.8C57.8296 12.8978 58.0366 11.7982 57.8155 10.7433C57.5944 9.68846 56.9633 8.7646 56.061 8.17503C55.1587 7.58545 54.0592 7.37845 53.0043 7.59955C51.9494 7.82066 51.0256 8.45176 50.436 9.35403L49.572 10.68L47.844 13.32L45.906 16.284L44.46 5.27403C44.3979 4.79886 44.2427 4.34058 44.0034 3.92539C43.7641 3.51019 43.4454 3.14621 43.0654 2.85425C42.6854 2.56228 42.2516 2.34804 41.7887 2.22378C41.3259 2.09951 40.8431 2.06766 40.368 2.13003L15.12 5.44803C14.2015 5.56664 13.3629 6.03127 12.7753 6.74711C12.1877 7.46294 11.8954 8.37603 11.958 9.30003L4.698 11.484C3.7721 11.7629 2.99479 12.3979 2.53689 13.2496C2.07898 14.1013 1.97795 15.0999 2.256 16.026L14.052 55.236ZM50.586 12.414L52.482 13.65L54.372 14.886L53.628 16.026L49.842 13.554L50.586 12.414ZM51.942 10.332C52.2706 9.82918 52.7855 9.47746 53.3734 9.35425C53.9614 9.23104 54.5741 9.34642 55.077 9.67503C55.5798 10.0036 55.9316 10.5185 56.0548 11.1065C56.178 11.6944 56.0626 12.3072 55.734 12.81L55.362 13.38L51.6 10.902L51.942 10.332ZM48.858 15.06L50.754 16.296L52.644 17.532L41.094 35.22L39.198 33.984L37.308 32.748L48.858 15.06ZM35.058 39.246L35.418 38.094C36.0214 38.2501 36.5569 38.6 36.942 39.09L36.03 39.882C35.9316 39.9714 35.8064 40.0256 35.6739 40.0361C35.5414 40.0466 35.4092 40.0129 35.2979 39.9401C35.1867 39.8673 35.1028 39.7597 35.0594 39.634C35.016 39.5084 35.0155 39.372 35.058 39.246ZM38.298 37.908C37.6938 37.1628 36.8713 36.6256 35.946 36.372L36.546 34.41L39.84 36.564L38.298 37.908ZM14.124 7.93803C14.2725 7.74502 14.4575 7.58316 14.6686 7.46168C14.8796 7.3402 15.1125 7.26148 15.354 7.23003L40.602 3.91803C40.6839 3.91208 40.7661 3.91208 40.848 3.91803C41.2906 3.92702 41.7154 4.09408 42.0455 4.389C42.3756 4.68393 42.5893 5.08724 42.648 5.52603L44.4 18.6L39.804 25.626L30.768 26.826C30.5293 26.8411 30.3064 26.9505 30.1483 27.1299C29.9902 27.3094 29.9099 27.5443 29.925 27.783C29.9401 28.0217 30.0494 28.2446 30.2289 28.4027C30.4084 28.5608 30.6433 28.6411 30.882 28.626H31.002L38.508 27.6L35.31 32.502C35.3089 32.522 35.3089 32.542 35.31 32.562C35.2871 32.5996 35.2689 32.6399 35.256 32.682L34.698 34.482L21.906 36.204C21.7878 36.2119 21.6723 36.243 21.5662 36.2955C21.46 36.348 21.3652 36.4209 21.2872 36.5101C21.2092 36.5992 21.1495 36.7028 21.1115 36.815C21.0736 36.9273 21.0581 37.0458 21.066 37.164C21.0739 37.2822 21.105 37.3977 21.1575 37.5039C21.21 37.6101 21.2829 37.7048 21.372 37.7828C21.4612 37.8609 21.5648 37.9205 21.677 37.9585C21.7892 37.9964 21.9078 38.0119 22.026 38.004H22.14L34.062 36.444L33.354 38.736C33.1998 39.2338 33.2119 39.7683 33.3883 40.2586C33.5647 40.749 33.896 41.1686 34.332 41.454C34.7221 41.7111 35.1788 41.8487 35.646 41.85C36.2252 41.8463 36.7836 41.6332 37.218 41.25L41.946 37.158L41.994 37.104C42.0306 37.0702 42.0629 37.0319 42.09 36.99L46.002 30.99L48 46.11C48.0323 46.3509 48.0165 46.5958 47.9537 46.8306C47.8909 47.0654 47.7822 47.2854 47.634 47.478C47.4905 47.6688 47.3105 47.829 47.1045 47.9496C46.8985 48.0701 46.6706 48.1484 46.434 48.18L21.162 51.498C20.9213 51.5292 20.6768 51.5126 20.4425 51.4493C20.2082 51.3859 19.9886 51.277 19.7964 51.1288C19.6042 50.9806 19.443 50.796 19.3222 50.5855C19.2013 50.375 19.1231 50.1428 19.092 49.902L13.758 9.30603C13.6942 8.81956 13.8258 8.32764 14.124 7.93803ZM5.22 13.2L12.18 11.106L17.304 50.136C17.4199 51.0105 17.8482 51.8136 18.5098 52.3969C19.1715 52.9803 20.0219 53.3046 20.904 53.31C21.0647 53.31 21.2251 53.2979 21.384 53.274L31.272 51.978L18.072 55.95C17.605 56.0901 17.1014 56.0393 16.6718 55.8087C16.2421 55.5782 15.9214 55.1867 15.78 54.72L3.978 15.51C3.9078 15.2768 3.88424 15.032 3.90867 14.7897C3.9331 14.5474 4.00504 14.3122 4.12038 14.0977C4.23572 13.8832 4.3922 13.6935 4.58088 13.5395C4.76955 13.3854 4.98673 13.2701 5.22 13.2ZM23.364 12.24C23.3333 12.0038 23.3976 11.765 23.5427 11.5761C23.6878 11.3871 23.9018 11.2634 24.138 11.232L38.538 9.33603C38.6562 9.32066 38.7762 9.32873 38.8913 9.35976C39.0064 9.3908 39.1142 9.44419 39.2087 9.5169C39.3031 9.58961 39.3823 9.68021 39.4417 9.78352C39.5011 9.88683 39.5396 10.0008 39.555 10.119C39.5704 10.2372 39.5623 10.3573 39.5313 10.4723C39.5002 10.5874 39.4468 10.6953 39.3741 10.7897C39.3014 10.8841 39.2108 10.9633 39.1075 11.0227C39.0042 11.0822 38.8902 11.1207 38.772 11.136L24.372 13.026H24.258C24.0392 13.0251 23.8281 12.9449 23.6638 12.8005C23.4995 12.656 23.393 12.4569 23.364 12.24ZM19.008 21.036C18.9929 20.9177 19.0015 20.7976 19.0333 20.6826C19.0651 20.5676 19.1194 20.4601 19.1931 20.3663C19.2668 20.2725 19.3584 20.1943 19.4626 20.1362C19.5668 20.0782 19.6815 20.0414 19.8 20.028L39.6 17.4C39.8387 17.369 40.0799 17.4341 40.2707 17.5809C40.4614 17.7277 40.586 17.9443 40.617 18.183C40.648 18.4217 40.583 18.663 40.4361 18.8537C40.2893 19.0444 40.0727 19.169 39.834 19.2L20.016 21.816H19.902C19.6841 21.8153 19.4738 21.736 19.3096 21.5927C19.1454 21.4495 19.0383 21.2518 19.008 21.036ZM25.734 28.38C25.7509 28.4979 25.7442 28.618 25.7143 28.7333C25.6845 28.8486 25.632 28.9568 25.56 29.0517C25.4881 29.1466 25.3979 29.2262 25.2949 29.286C25.1919 29.3458 25.0781 29.3846 24.96 29.4L21.078 29.91H20.964C20.7253 29.9259 20.4901 29.8464 20.31 29.6888C20.13 29.5313 20.0199 29.3087 20.004 29.07C19.9881 28.8313 20.0676 28.5961 20.2252 28.4161C20.3827 28.236 20.6053 28.1259 20.844 28.11L24.726 27.6C24.8434 27.5849 24.9627 27.5931 25.0769 27.6241C25.1912 27.6551 25.2982 27.7084 25.3919 27.7809C25.4855 27.8533 25.5639 27.9435 25.6226 28.0464C25.6813 28.1492 25.7192 28.2626 25.734 28.38ZM22.2 45.3C22.1693 45.0638 22.2336 44.825 22.3787 44.6361C22.5238 44.4471 22.7378 44.3234 22.974 44.292L29.88 43.386C29.9982 43.3703 30.1183 43.3779 30.2335 43.4086C30.3488 43.4393 30.4568 43.4923 30.5515 43.5648C30.6463 43.6372 30.7258 43.7276 30.7856 43.8307C30.8454 43.9339 30.8842 44.0478 30.9 44.166C30.9158 44.2842 30.9081 44.4044 30.8774 44.5196C30.8467 44.6348 30.7937 44.7429 30.7212 44.8376C30.6488 44.9323 30.5584 45.0118 30.4553 45.0716C30.3521 45.1314 30.2382 45.1703 30.12 45.186L23.202 46.074H23.088C22.8717 46.0733 22.6629 45.9946 22.4998 45.8525C22.3367 45.7103 22.2303 45.5142 22.2 45.3Z" fill="white"/>
</svg>
