<svg width="60" height="60" viewBox="0 0 60 60" fill="none" xmlns="http://www.w3.org/2000/svg">
<path fill-rule="evenodd" clip-rule="evenodd" d="M54.2406 46.7744V3.33374C54.2406 2.81562 53.8206 2.39624 53.3031 2.39624H1.25C0.7325 2.39624 0.3125 2.81562 0.3125 3.33374V46.7744C0.3125 47.2919 0.7325 47.7119 1.25 47.7119H44.4125C44.93 47.7119 45.35 47.2919 45.35 46.7744C45.35 46.2569 44.93 45.8369 44.4125 45.8369H2.1875V4.27124H52.3656V46.7744C52.3656 47.2919 52.7856 47.7119 53.3031 47.7119C53.8206 47.7119 54.2406 47.2919 54.2406 46.7744Z" fill="white"/>
<path fill-rule="evenodd" clip-rule="evenodd" d="M26.827 38.1013H34.802C35.3195 38.1013 35.7395 37.6813 35.7395 37.1638C35.7395 36.6463 35.3195 36.2263 34.802 36.2263H26.827C26.3101 36.2263 25.8895 36.6463 25.8895 37.1638C25.8895 37.6813 26.3101 38.1013 26.827 38.1013ZM23.292 24.3788V34.5613C23.292 35.0788 23.712 35.4988 24.2295 35.4988C24.747 35.4988 25.167 35.0788 25.167 34.5613V24.3788C25.167 23.8613 24.747 23.4413 24.2295 23.4413C23.712 23.4413 23.292 23.8613 23.292 24.3788ZM40.5501 33.0838V24.3788C40.5501 23.8613 40.1301 23.4413 39.6126 23.4413C39.0951 23.4413 38.6751 23.8613 38.6751 24.3788V33.0838C38.6751 33.6013 39.0951 34.0213 39.6126 34.0213C40.1301 34.0213 40.5501 33.6013 40.5501 33.0838ZM36.8601 20.8431H27.2764C26.7595 20.8431 26.3389 21.2631 26.3389 21.7806C26.3389 22.2981 26.7595 22.7181 27.2764 22.7181H36.8601C37.3776 22.7181 37.7976 22.2981 37.7976 21.7806C37.7976 21.2631 37.3776 20.8431 36.8601 20.8431Z" fill="white"/>
<path fill-rule="evenodd" clip-rule="evenodd" d="M24.2295 18.2456C22.2782 18.2456 20.6938 19.8294 20.6938 21.7806C20.6938 23.7319 22.2782 25.3162 24.2295 25.3162C26.1807 25.3162 27.7645 23.7319 27.7645 21.7806C27.7645 19.8294 26.1807 18.2456 24.2295 18.2456ZM24.2295 20.1206C25.1457 20.1206 25.8895 20.8644 25.8895 21.7806C25.8895 22.6969 25.1457 23.4412 24.2295 23.4412C23.3132 23.4412 22.5688 22.6969 22.5688 21.7806C22.5688 20.8644 23.3132 20.1206 24.2295 20.1206Z" fill="white"/>
<path fill-rule="evenodd" clip-rule="evenodd" d="M24.2295 33.6288C22.2782 33.6288 20.6938 35.2125 20.6938 37.1638C20.6938 39.115 22.2782 40.6994 24.2295 40.6994C26.1807 40.6994 27.7645 39.115 27.7645 37.1638C27.7645 35.2125 26.1807 33.6288 24.2295 33.6288ZM24.2295 35.5038C25.1457 35.5038 25.8895 36.2475 25.8895 37.1638C25.8895 38.08 25.1457 38.8244 24.2295 38.8244C23.3132 38.8244 22.5688 38.08 22.5688 37.1638C22.5688 36.2475 23.3132 35.5038 24.2295 35.5038Z" fill="white"/>
<path fill-rule="evenodd" clip-rule="evenodd" d="M39.6125 18.2456C37.6613 18.2456 36.0769 19.8294 36.0769 21.7806C36.0769 23.7319 37.6613 25.3162 39.6125 25.3162C41.5638 25.3162 43.1475 23.7319 43.1475 21.7806C43.1475 19.8294 41.5638 18.2456 39.6125 18.2456ZM39.6125 20.1206C40.5288 20.1206 41.2725 20.8644 41.2725 21.7806C41.2725 22.6969 40.5288 23.4412 39.6125 23.4412C38.6963 23.4412 37.9519 22.6969 37.9519 21.7806C37.9519 20.8644 38.6963 20.1206 39.6125 20.1206Z" fill="white"/>
<path fill-rule="evenodd" clip-rule="evenodd" d="M11.0774 46.7743V8.15247C11.0774 7.63497 10.6574 7.21497 10.1399 7.21497C9.62239 7.21497 9.20239 7.63497 9.20239 8.15247V46.7743C9.20239 47.2918 9.62239 47.7118 10.1399 47.7118C10.6574 47.7118 11.0774 47.2918 11.0774 46.7743Z" fill="white"/>
<path fill-rule="evenodd" clip-rule="evenodd" d="M1.25 9.08997H53.3031C53.8206 9.08997 54.2406 8.66997 54.2406 8.15247C54.2406 7.63497 53.8206 7.21497 53.3031 7.21497H1.25C0.7325 7.21497 0.3125 7.63497 0.3125 8.15247C0.3125 8.66997 0.7325 9.08997 1.25 9.08997Z" fill="white"/>
<path fill-rule="evenodd" clip-rule="evenodd" d="M53.6419 57.3294C54.0081 57.6957 54.6012 57.6957 54.9675 57.3294L59.4131 52.8844C59.7787 52.5182 59.7787 51.9244 59.4131 51.5582L39.8987 32.0444C39.7675 31.9132 39.6006 31.8238 39.4187 31.7875L33.8681 30.6825C33.5612 30.6213 33.2437 30.7175 33.0225 30.9388C32.8012 31.1607 32.705 31.4782 32.7656 31.785L33.8712 37.3357C33.9075 37.5175 33.9969 37.6844 34.1275 37.8157L53.6419 57.3294ZM54.3044 55.3407L35.6544 36.6907L34.8787 32.7957L38.7737 33.5713L57.4244 52.2213L54.3044 55.3407Z" fill="white"/>
<path fill-rule="evenodd" clip-rule="evenodd" d="M4.55444 14.6919H6.83569C7.35319 14.6919 7.77319 14.2719 7.77319 13.7544C7.77319 13.2369 7.35319 12.8169 6.83569 12.8169H4.55444C4.03694 12.8169 3.61694 13.2369 3.61694 13.7544C3.61694 14.2719 4.03694 14.6919 4.55444 14.6919Z" fill="white"/>
<path fill-rule="evenodd" clip-rule="evenodd" d="M4.55444 25.9912H6.83569C7.35319 25.9912 7.77319 25.5712 7.77319 25.0537C7.77319 24.5362 7.35319 24.1162 6.83569 24.1162H4.55444C4.03694 24.1162 3.61694 24.5362 3.61694 25.0537C3.61694 25.5712 4.03694 25.9912 4.55444 25.9912Z" fill="white"/>
<path fill-rule="evenodd" clip-rule="evenodd" d="M4.55444 37.2913H6.83569C7.35319 37.2913 7.77319 36.8713 7.77319 36.3538C7.77319 35.8363 7.35319 35.4163 6.83569 35.4163H4.55444C4.03694 35.4163 3.61694 35.8363 3.61694 36.3538C3.61694 36.8713 4.03694 37.2913 4.55444 37.2913Z" fill="white"/>
<path fill-rule="evenodd" clip-rule="evenodd" d="M4.55444 20.3412H6.83569C7.35319 20.3412 7.77319 19.9212 7.77319 19.4037C7.77319 18.8868 7.35319 18.4662 6.83569 18.4662H4.55444C4.03694 18.4662 3.61694 18.8868 3.61694 19.4037C3.61694 19.9212 4.03694 20.3412 4.55444 20.3412Z" fill="white"/>
<path fill-rule="evenodd" clip-rule="evenodd" d="M4.55444 31.6412H6.83569C7.35319 31.6412 7.77319 31.2212 7.77319 30.7037C7.77319 30.1862 7.35319 29.7662 6.83569 29.7662H4.55444C4.03694 29.7662 3.61694 30.1862 3.61694 30.7037C3.61694 31.2212 4.03694 31.6412 4.55444 31.6412Z" fill="white"/>
</svg>
