<svg width="60" height="60" viewBox="0 0 60 60" fill="none" xmlns="http://www.w3.org/2000/svg">
<g clip-path="url(#clip0_22_2245)">
<path d="M60 10V8H20C18.896 8.00146 18.0015 8.896 18 10H14V7C14 3.13379 10.8662 0 7 0C3.13379 0 0 3.13379 0 7V25C0 28.8662 3.13379 32 7 32C10.8662 32 14 28.8662 14 25V12H18C18.0015 13.104 18.896 13.9985 20 14H60V12H25V10H60ZM2 7C2 4.23877 4.23877 2 7 2C9.76123 2 12 4.23877 12 7V12H2V7ZM12 25C12 27.7612 9.76123 30 7 30C4.23877 30 2 27.7612 2 25V14H12V25ZM23 12H20V10H23V12Z" fill="white"/>
<path d="M4 24H6V26H4V24Z" fill="white"/>
<path d="M8 24H10V26H8V24Z" fill="white"/>
<path d="M4 20H6V22H4V20Z" fill="white"/>
<path d="M8 20H10V22H8V20Z" fill="white"/>
<path d="M4 16H6V18H4V16Z" fill="white"/>
<path d="M8 16H10V18H8V16Z" fill="white"/>
<path d="M54 19V57C53.9995 57.5522 53.5522 57.9995 53 58H43C42.4478 57.9995 42.0005 57.5522 42 57V54C43.6562 53.998 44.998 52.6562 45 51V47H46C47.6562 46.998 48.998 45.6562 49 44V36C50.104 35.9985 50.9985 35.104 51 34V33C51 23.6113 43.3887 16 34 16C24.6113 16 17 23.6113 17 33V34C17.0015 35.104 17.896 35.9985 19 36V44C19.002 45.6562 20.3438 46.998 22 47H23V51C23.002 52.6562 24.3438 53.998 26 54H28C29.6562 53.998 30.998 52.6562 31 51V41C30.998 39.3438 29.6562 38.002 28 38H26C24.3438 38.002 23.002 39.3438 23 41V45H22C21.4478 44.9995 21.0005 44.5522 21 44V36H22C23.6562 35.998 24.998 34.6562 25 33C25 28.0293 29.0293 24 34 24C38.9707 24 43 28.0293 43 33C43.002 34.6562 44.3438 35.998 46 36H47V44C46.9995 44.5522 46.5522 44.9995 46 45H45V41C44.998 39.3438 43.6562 38.002 42 38H40C38.3438 38.002 37.002 39.3438 37 41V51C37.002 52.6562 38.3438 53.998 40 54V57C40.002 58.6562 41.3438 59.998 43 60H53C54.6562 59.998 55.998 58.6562 56 57V19C56.0005 18.4478 56.4478 18.0005 57 18H60V16H57C55.3438 16.002 54.002 17.3438 54 19ZM25 41C25.0005 40.4478 25.4478 40.0005 26 40H28C28.5522 40.0005 28.9995 40.4478 29 41V51C28.9995 51.5522 28.5522 51.9995 28 52H26C25.4478 51.9995 25.0005 51.5522 25 51V41ZM45 33C45 26.9248 40.0752 22 34 22C27.9248 22 23 26.9248 23 33C22.9995 33.5522 22.5522 33.9995 22 34H19V33C19 24.7158 25.7158 18 34 18C42.2842 18 49 24.7158 49 33V34H46C45.4478 33.9995 45.0005 33.5522 45 33ZM39 51V41C39.0005 40.4478 39.4478 40.0005 40 40H42C42.5522 40.0005 42.9995 40.4478 43 41V51C42.9995 51.5522 42.5522 51.9995 42 52H40C39.4478 51.9995 39.0005 51.5522 39 51Z" fill="white"/>
</g>
<defs>
<clipPath id="clip0_22_2245">
<rect width="60" height="60" fill="white"/>
</clipPath>
</defs>
</svg>
