<svg width="60" height="60" viewBox="0 0 60 60" fill="none" xmlns="http://www.w3.org/2000/svg">
<g clip-path="url(#clip0_22_2254)">
<path d="M59 40H1C0.448 40 0 39.552 0 39V4.001C0 1.795 1.795 0 4.001 0H55.999C58.205 0 60 1.795 60 4.001V39C60 39.552 59.552 40 59 40ZM2 38H58V4.001C58 2.897 57.103 2 55.999 2H4.001C2.897 2 2 2.897 2 4.001V38Z" fill="white"/>
<path d="M55.999 48H4.001C1.795 48 0 46.205 0 43.999V39C0 38.448 0.448 38 1 38H59C59.552 38 60 38.448 60 39V43.999C60 46.205 58.205 48 55.999 48ZM2 40V43.999C2 45.103 2.897 46 4.001 46H55.999C57.103 46 58 45.103 58 43.999V40H2Z" fill="white"/>
<path d="M55 40H5C4.448 40 4 39.552 4 39V5C4 4.448 4.448 4 5 4H55C55.552 4 56 4.448 56 5V39C56 39.552 55.552 40 55 40ZM6 38H54V6H6V38Z" fill="white"/>
<path d="M45 60H15C14.448 60 14 59.552 14 59V56.998C14 55.345 15.345 54 16.998 54H43.002C44.655 54 46 55.345 46 56.998V59C46 59.552 45.552 60 45 60ZM16 58H44V56.998C44 56.448 43.552 56 43.002 56H16.998C16.448 56 16 56.448 16 56.998V58Z" fill="white"/>
<path d="M41 56H19C18.448 56 18 55.552 18 55C18 54.448 18.448 54 19 54C22.318 54 24 51.645 24 47C24 46.448 24.448 46 25 46H35C35.552 46 36 46.448 36 47C36 51.645 37.682 54 41 54C41.552 54 42 54.448 42 55C42 55.552 41.552 56 41 56ZM23.871 54H36.13C34.898 52.636 34.173 50.605 34.028 48H25.973C25.827 50.605 25.103 52.636 23.871 54Z" fill="white"/>
<path d="M47 28H13C12.448 28 12 27.552 12 27V17C12 16.448 12.448 16 13 16H47C47.552 16 48 16.448 48 17V27C48 27.552 47.552 28 47 28ZM14 26H46V18H14V26Z" fill="white"/>
<path d="M47 18H13C12.448 18 12 17.552 12 17V9C12 8.448 12.448 8 13 8H47C47.552 8 48 8.448 48 9V17C48 17.552 47.552 18 47 18ZM14 16H46V10H14V16Z" fill="white"/>
<path d="M19 14H17C16.448 14 16 13.552 16 13C16 12.448 16.448 12 17 12H19C19.552 12 20 12.448 20 13C20 13.552 19.552 14 19 14Z" fill="white"/>
<path d="M43 14H41C40.448 14 40 13.552 40 13C40 12.448 40.448 12 41 12H43C43.552 12 44 12.448 44 13C44 13.552 43.552 14 43 14Z" fill="white"/>
<path d="M37 14H35C34.448 14 34 13.552 34 13C34 12.448 34.448 12 35 12H37C37.552 12 38 12.448 38 13C38 13.552 37.552 14 37 14Z" fill="white"/>
<path d="M31 14H29C28.448 14 28 13.552 28 13C28 12.448 28.448 12 29 12H31C31.552 12 32 12.448 32 13C32 13.552 31.552 14 31 14Z" fill="white"/>
<path d="M25 14H23C22.448 14 22 13.552 22 13C22 12.448 22.448 12 23 12H25C25.552 12 26 12.448 26 13C26 13.552 25.552 14 25 14Z" fill="white"/>
<path d="M47 36H13C12.448 36 12 35.552 12 35V27C12 26.448 12.448 26 13 26H47C47.552 26 48 26.448 48 27V35C48 35.552 47.552 36 47 36ZM14 34H46V28H14V34Z" fill="white"/>
<path d="M19 32H17C16.448 32 16 31.552 16 31C16 30.448 16.448 30 17 30H19C19.552 30 20 30.448 20 31C20 31.552 19.552 32 19 32Z" fill="white"/>
<path d="M43 32H41C40.448 32 40 31.552 40 31C40 30.448 40.448 30 41 30H43C43.552 30 44 30.448 44 31C44 31.552 43.552 32 43 32Z" fill="white"/>
<path d="M37 32H35C34.448 32 34 31.552 34 31C34 30.448 34.448 30 35 30H37C37.552 30 38 30.448 38 31C38 31.552 37.552 32 37 32Z" fill="white"/>
<path d="M31 32H29C28.448 32 28 31.552 28 31C28 30.448 28.448 30 29 30H31C31.552 30 32 30.448 32 31C32 31.552 31.552 32 31 32Z" fill="white"/>
<path d="M25 32H23C22.448 32 22 31.552 22 31C22 30.448 22.448 30 23 30H25C25.552 30 26 30.448 26 31C26 31.552 25.552 32 25 32Z" fill="white"/>
<path d="M35 44H25C24.448 44 24 43.552 24 43C24 42.448 24.448 42 25 42H35C35.552 42 36 42.448 36 43C36 43.552 35.552 44 35 44Z" fill="white"/>
</g>
<defs>
<clipPath id="clip0_22_2254">
<rect width="60" height="60" fill="white"/>
</clipPath>
</defs>
</svg>
