<svg width="60" height="60" viewBox="0 0 60 60" fill="none" xmlns="http://www.w3.org/2000/svg">
<g clip-path="url(#clip0_22_2275)">
<path d="M11.0591 37.4261V26.1046C11.0591 25.3195 11.6954 24.6843 12.4806 24.6843H19.1099C19.8938 24.6843 20.5302 25.3195 20.5302 26.1046V40.0593C20.5302 45.273 24.6927 49.5996 29.9063 49.65C35.1716 49.7015 39.47 45.4335 39.47 40.18V26.1046C39.47 25.3195 40.1063 24.6843 40.8903 24.6843H47.5196C48.3048 24.6843 48.9411 25.3195 48.9411 26.1046V27.9878" stroke="#C73E9B" stroke-width="2" stroke-miterlimit="10" stroke-linecap="round" stroke-linejoin="round"/>
<path d="M48.9412 32.0895V40.1801C48.9412 45.4102 46.8212 50.1457 43.3935 53.5735C39.9658 57.0012 35.2302 59.1211 30.0001 59.1211C19.9923 59.1211 11.7962 51.3598 11.1072 41.5266" stroke="#C73E9B" stroke-width="2" stroke-miterlimit="10" stroke-linecap="round" stroke-linejoin="round"/>
<path d="M39.4705 34.7352H48.9407" stroke="#C73E9B" stroke-width="2" stroke-miterlimit="10" stroke-linecap="round" stroke-linejoin="round"/>
<path d="M11.0596 34.7352H20.5298" stroke="#C73E9B" stroke-width="2" stroke-miterlimit="10" stroke-linecap="round" stroke-linejoin="round"/>
<path d="M41.3643 8.45508C43.4564 8.45508 45.1523 6.75909 45.1523 4.66699C45.1523 2.57489 43.4564 0.878906 41.3643 0.878906C39.2722 0.878906 37.5762 2.57489 37.5762 4.66699C37.5762 6.75909 39.2722 8.45508 41.3643 8.45508Z" stroke="#C73E9B" stroke-width="2" stroke-miterlimit="10" stroke-linecap="round" stroke-linejoin="round"/>
<path d="M37.1028 15.5578H48.4672V12.2432C48.4672 10.1514 46.7708 8.45508 44.6791 8.45508H38.0499C37.1538 8.45508 36.331 8.76527 35.6824 9.28605" stroke="#C73E9B" stroke-width="2" stroke-miterlimit="10" stroke-linecap="round" stroke-linejoin="round"/>
<path d="M22.4238 4.66699C22.4238 6.75914 20.7279 8.45508 18.6357 8.45508C16.5436 8.45508 14.8477 6.75914 14.8477 4.66699C14.8477 2.57484 16.5436 0.878906 18.6357 0.878906C20.7279 0.878906 22.4238 2.57484 22.4238 4.66699Z" stroke="#C73E9B" stroke-width="2" stroke-miterlimit="10" stroke-linecap="round" stroke-linejoin="round"/>
<path d="M22.8975 15.5578H11.5332V12.2432C11.5332 10.1514 13.2296 8.45508 15.3213 8.45508H21.9505C22.8466 8.45508 23.6694 8.76527 24.318 9.28605" stroke="#C73E9B" stroke-width="2" stroke-miterlimit="10" stroke-linecap="round" stroke-linejoin="round"/>
<path d="M30 8.45508C32.0921 8.45508 33.7881 6.75909 33.7881 4.66699C33.7881 2.57489 32.0921 0.878906 30 0.878906C27.9079 0.878906 26.2119 2.57489 26.2119 4.66699C26.2119 6.75909 27.9079 8.45508 30 8.45508Z" stroke="#C73E9B" stroke-width="2" stroke-miterlimit="10" stroke-linecap="round" stroke-linejoin="round"/>
<path d="M32.1271 17.925H37.1029V12.2437C37.1029 10.1508 35.4072 8.45508 33.3143 8.45508H26.6861C24.5932 8.45508 22.8975 10.1508 22.8975 12.2437V17.925H28.0256" stroke="#C73E9B" stroke-width="2" stroke-miterlimit="10" stroke-linecap="round" stroke-linejoin="round"/>
<path d="M26.2119 30.2367V25.2648" stroke="#C73E9B" stroke-width="2" stroke-miterlimit="10" stroke-linecap="round" stroke-linejoin="round"/>
<path d="M30 21.7135V30.2367" stroke="#C73E9B" stroke-width="2" stroke-miterlimit="10" stroke-linecap="round" stroke-linejoin="round"/>
<path d="M33.7881 25.2648V30.2367" stroke="#C73E9B" stroke-width="2" stroke-miterlimit="10" stroke-linecap="round" stroke-linejoin="round"/>
</g>
<defs>
<clipPath id="clip0_22_2275">
<rect width="60" height="60" fill="white"/>
</clipPath>
</defs>
</svg>
