<svg width="60" height="60" viewBox="0 0 60 60" fill="none" xmlns="http://www.w3.org/2000/svg">
<g clip-path="url(#clip0_22_1820)">
<path d="M40.5793 24.9533C39.5565 22.8131 37.9033 21.0318 35.8603 19.8497C33.7946 18.6571 32.6368 16.4585 32.6368 14.2333C32.6368 13.0915 32.6368 11.1849 32.6368 9.58986L35.9501 10.8564C37.7217 11.5337 39.1618 9.3126 37.8208 7.9715L31.2431 1.39377C30.5566 0.707285 29.4437 0.707285 28.7572 1.39377L22.1794 7.9715C20.8383 9.3126 22.2785 11.5335 24.0501 10.8564L27.3635 9.58986C27.3635 11.1541 27.3635 13.0297 27.3635 14.2362C27.3635 18.2813 29.4682 22.2494 33.2233 24.4175C35.1492 25.5319 36.4453 27.6145 36.4453 29.9999C36.4453 31.1742 36.1313 32.275 35.5826 33.2231" stroke="#C73E9B" stroke-width="2" stroke-miterlimit="10" stroke-linecap="round" stroke-linejoin="round"/>
<path d="M32.6149 45.0498C32.383 41.2572 30.3108 37.6228 26.777 35.5826C24.8508 34.4681 23.5547 32.3854 23.5547 30C23.5547 28.8258 23.8686 27.7249 24.4173 26.7767" stroke="#C73E9B" stroke-width="2" stroke-miterlimit="10" stroke-linecap="round" stroke-linejoin="round"/>
<path d="M18.4248 31.8387C18.985 35.3929 21.1429 38.4161 24.1398 40.1503C26.2055 41.3429 27.3633 43.5416 27.3633 45.7667C27.3633 46.9085 27.3633 48.8151 27.3633 50.4101L24.0499 49.1436C22.2784 48.4664 20.8383 50.6874 22.1793 52.0285L28.757 58.6062C29.4435 59.2927 30.5564 59.2927 31.2429 58.6062L37.8206 52.0285C39.1617 50.6874 37.7216 48.4665 35.95 49.1436L32.6366 50.4101C32.6366 48.8459 32.6366 49.7828 32.6366 48.5763" stroke="#C73E9B" stroke-width="2" stroke-miterlimit="10" stroke-linecap="round" stroke-linejoin="round"/>
<path d="M31.8792 41.5688C35.4159 40.9988 38.4229 38.846 40.1505 35.8601C41.3431 33.7945 43.5418 32.6367 45.7669 32.6367C46.9087 32.6367 48.8153 32.6367 50.4104 32.6367L49.1438 35.95C48.4666 37.7215 50.6876 39.1617 52.0287 37.8206L58.6065 31.2428C59.2929 30.5563 59.2929 29.4434 58.6065 28.7569L52.0287 22.1792C50.6876 20.8381 48.4666 22.2782 49.1438 24.0499L50.4104 27.3632C48.8461 27.3632 46.9706 27.3632 45.764 27.3632C41.7189 27.3632 37.7508 29.4679 35.5827 33.2231C34.8862 34.4269 33.8115 35.3847 32.521 35.9336" stroke="#C73E9B" stroke-width="2" stroke-miterlimit="10" stroke-linecap="round" stroke-linejoin="round"/>
<path d="M17.6613 26.3893C16.6292 27.0254 15.4352 27.3631 14.2333 27.3631C13.0915 27.3631 11.1849 27.3631 9.58986 27.3631L10.8564 24.0497C11.5337 22.2782 9.3126 20.8381 7.9715 22.1792L1.39377 28.7569C0.707285 29.4434 0.707285 30.5563 1.39377 31.2428L7.9715 37.8206C9.3126 39.1617 11.5337 37.7215 10.8564 35.9499L9.58986 32.6365C11.1541 32.6365 13.0297 32.6365 14.2362 32.6365C18.2813 32.6365 22.2494 30.5319 24.4175 26.7767C25.5319 24.8507 27.6146 23.5546 30.0001 23.5546C31.1743 23.5546 32.2751 23.8686 33.2233 24.4172" stroke="#C73E9B" stroke-width="2" stroke-miterlimit="10" stroke-linecap="round" stroke-linejoin="round"/>
<path d="M28.1324 18.4293C24.7382 18.973 21.8309 20.9742 20.0725 23.7708" stroke="#C73E9B" stroke-width="2" stroke-miterlimit="10" stroke-linecap="round" stroke-linejoin="round"/>
</g>
<defs>
<clipPath id="clip0_22_1820">
<rect width="60" height="60" fill="white"/>
</clipPath>
</defs>
</svg>
