<svg width="60" height="60" viewBox="0 0 60 60" fill="none" xmlns="http://www.w3.org/2000/svg">
<g clip-path="url(#clip0_22_1828)">
<path d="M52.9656 30.947V30.2439" stroke="#C73E9B" stroke-width="2" stroke-linecap="round" stroke-linejoin="round"/>
<path d="M52.9656 26.8939V19.3564" stroke="#C73E9B" stroke-width="2" stroke-linecap="round" stroke-linejoin="round" stroke-dasharray="10.72 28.59"/>
<path d="M52.9656 17.6815V16.9784" stroke="#C73E9B" stroke-width="2" stroke-linecap="round" stroke-linejoin="round"/>
<path d="M7.03455 30.947V30.2439" stroke="#C73E9B" stroke-width="2" stroke-linecap="round" stroke-linejoin="round"/>
<path d="M7.03455 26.8939V19.3564" stroke="#C73E9B" stroke-width="2" stroke-linecap="round" stroke-linejoin="round" stroke-dasharray="10.72 28.59"/>
<path d="M7.03455 17.6815V16.9784" stroke="#C73E9B" stroke-width="2" stroke-linecap="round" stroke-linejoin="round"/>
<path d="M50.5979 33.3147H49.8948" stroke="#C73E9B" stroke-width="2" stroke-linecap="round" stroke-linejoin="round"/>
<path d="M46.1499 33.3147H11.9778" stroke="#C73E9B" stroke-width="2" stroke-linecap="round" stroke-linejoin="round" stroke-dasharray="11.98 31.96"/>
<path d="M10.1053 33.3147H9.40222" stroke="#C73E9B" stroke-width="2" stroke-linecap="round" stroke-linejoin="round"/>
<path d="M50.5979 14.6108H49.8948" stroke="#C73E9B" stroke-width="2" stroke-linecap="round" stroke-linejoin="round"/>
<path d="M46.1499 14.6108H11.9778" stroke="#C73E9B" stroke-width="2" stroke-linecap="round" stroke-linejoin="round" stroke-dasharray="11.98 31.96"/>
<path d="M10.1053 14.6108H9.40222" stroke="#C73E9B" stroke-width="2" stroke-linecap="round" stroke-linejoin="round"/>
<path d="M18.9727 0.878906H57.4641C58.3793 0.878906 59.1211 1.6207 59.1211 2.53594V18.1236" stroke="#C73E9B" stroke-width="2" stroke-miterlimit="10" stroke-linecap="round" stroke-linejoin="round"/>
<path d="M0.878906 36.8566V2.53594C0.878906 1.6207 1.6207 0.878906 2.53594 0.878906H14.8711" stroke="#C73E9B" stroke-width="2" stroke-miterlimit="10" stroke-linecap="round" stroke-linejoin="round"/>
<path d="M0.878906 40.9583V47.0461C0.878906 47.9614 1.6207 48.7043 2.53594 48.7043H40.2422" stroke="#C73E9B" stroke-width="2" stroke-miterlimit="10" stroke-linecap="round" stroke-linejoin="round"/>
<path d="M59.1211 22.2256V47.0461C59.1211 47.9614 58.3793 48.7043 57.464 48.7043H52.7014" stroke="#C73E9B" stroke-width="2" stroke-miterlimit="10" stroke-linecap="round" stroke-linejoin="round"/>
<path d="M0.878906 8.45508H59.1211" stroke="#C73E9B" stroke-width="2" stroke-miterlimit="10" stroke-linecap="round" stroke-linejoin="round"/>
<path d="M26.1025 27.7509L29.0933 20.1747L32.0841 27.7509" stroke="#C73E9B" stroke-width="2" stroke-miterlimit="10" stroke-linecap="round" stroke-linejoin="round"/>
<path d="M26.9897 25.8905H31.2112" stroke="#C73E9B" stroke-width="2" stroke-miterlimit="10" stroke-linecap="round" stroke-linejoin="round"/>
<path d="M35.0981 27.7509V20.1887L40.4071 27.7509V20.1747" stroke="#C73E9B" stroke-width="2" stroke-miterlimit="10" stroke-linecap="round" stroke-linejoin="round"/>
<path d="M48.5898 23.9628C48.5898 26.0502 47.4311 27.7021 45.593 27.7342C44.9812 27.7449 43.3999 27.7509 43.3999 27.7509L43.3845 20.1747C43.3845 20.1747 44.8072 20.1747 45.5302 20.1747C47.5463 20.1747 48.5898 21.8752 48.5898 23.9628Z" stroke="#C73E9B" stroke-width="2" stroke-miterlimit="10" stroke-linecap="round" stroke-linejoin="round"/>
<path d="M15.3543 21.918C15.3543 22.8808 14.5739 23.6612 13.6111 23.6612C13.1335 23.6612 11.4104 23.669 11.4104 23.669V20.1747C11.4104 20.1747 13.0469 20.1747 13.6111 20.1747C14.5739 20.1747 15.3543 20.9552 15.3543 21.918Z" stroke="#C73E9B" stroke-width="2" stroke-miterlimit="10" stroke-linecap="round" stroke-linejoin="round"/>
<path d="M16.0346 25.7025C16.0346 26.8288 15.1216 27.7418 13.9953 27.7418C13.4368 27.7418 11.4103 27.7508 11.4103 27.7508V23.6632C11.4103 23.6632 13.3353 23.6632 13.9953 23.6632C15.1216 23.6632 16.0346 24.5762 16.0346 25.7025Z" stroke="#C73E9B" stroke-width="2" stroke-miterlimit="10" stroke-linecap="round" stroke-linejoin="round"/>
<path d="M19.9408 24.1349L23.1233 27.7508" stroke="#C73E9B" stroke-width="2" stroke-miterlimit="10" stroke-linecap="round" stroke-linejoin="round"/>
<path d="M19.0272 24.1213V27.7509" stroke="#C73E9B" stroke-width="2" stroke-miterlimit="10" stroke-linecap="round" stroke-linejoin="round"/>
<path d="M23.1233 22.1435C23.1233 23.2309 22.1697 24.1125 21.0428 24.1125C20.484 24.1125 19.0271 24.1212 19.0271 24.1212L19.0296 20.1746C19.0296 20.1746 20.3825 20.1746 21.0428 20.1746C22.1698 20.1747 23.1233 21.0562 23.1233 22.1435Z" stroke="#C73E9B" stroke-width="2" stroke-miterlimit="10" stroke-linecap="round" stroke-linejoin="round"/>
<path d="M54.6228 16.9784H51.3082C50.9159 16.9784 50.5979 16.6603 50.5979 16.2681V12.9534C50.5979 12.5612 50.9159 12.2432 51.3082 12.2432H54.6228C55.015 12.2432 55.3331 12.5612 55.3331 12.9534V16.2681C55.3331 16.6604 55.015 16.9784 54.6228 16.9784Z" stroke="#C73E9B" stroke-width="2" stroke-miterlimit="10" stroke-linecap="round" stroke-linejoin="round"/>
<path d="M8.69191 16.9784H5.37727C4.98504 16.9784 4.66699 16.6603 4.66699 16.2681V12.9534C4.66699 12.5612 4.98504 12.2432 5.37727 12.2432H8.69191C9.08414 12.2432 9.40219 12.5612 9.40219 12.9534V16.2681C9.40219 16.6604 9.08414 16.9784 8.69191 16.9784Z" stroke="#C73E9B" stroke-width="2" stroke-miterlimit="10" stroke-linecap="round" stroke-linejoin="round"/>
<path d="M54.6228 35.6822H51.3082C50.9159 35.6822 50.5979 35.3642 50.5979 34.9719V31.6573C50.5979 31.2651 50.9159 30.947 51.3082 30.947H54.6228C55.015 30.947 55.3331 31.2651 55.3331 31.6573V34.9719C55.3331 35.3642 55.015 35.6822 54.6228 35.6822Z" stroke="#C73E9B" stroke-width="2" stroke-miterlimit="10" stroke-linecap="round" stroke-linejoin="round"/>
<path d="M8.69191 35.6822H5.37727C4.98504 35.6822 4.66699 35.3642 4.66699 34.9719V31.6573C4.66699 31.2651 4.98504 30.947 5.37727 30.947H8.69191C9.08414 30.947 9.40219 31.2651 9.40219 31.6573V34.9719C9.40219 35.3642 9.08414 35.6822 8.69191 35.6822Z" stroke="#C73E9B" stroke-width="2" stroke-miterlimit="10" stroke-linecap="round" stroke-linejoin="round"/>
<path d="M48.6652 40.3598L37.9018 36.2646C37.4347 36.0869 36.9068 36.1999 36.5533 36.5534C36.1999 36.9068 36.0869 37.4347 36.2646 37.9019L40.3597 48.6653C40.6068 49.3149 41.2329 49.7412 41.9278 49.7331L46.7301 49.6777L49.6777 46.7301L49.7332 41.9277C49.7411 41.2329 49.3147 40.6069 48.6652 40.3598ZM45.2587 45.2588C44.519 45.9985 43.3199 45.9985 42.5802 45.2588C41.8405 44.5191 41.8405 43.3199 42.5802 42.5802C43.3199 41.8405 44.5192 41.8405 45.2587 42.5802C45.9984 43.3199 45.9984 44.5191 45.2587 45.2588Z" stroke="#C73E9B" stroke-width="2" stroke-miterlimit="10" stroke-linecap="round" stroke-linejoin="round"/>
<path d="M36.5535 36.5533L42.5803 42.5802" stroke="#C73E9B" stroke-width="2" stroke-miterlimit="10" stroke-linecap="round" stroke-linejoin="round"/>
<path d="M49.074 52.3563L52.8253 59.1211" stroke="#C73E9B" stroke-width="2" stroke-miterlimit="10" stroke-linecap="round" stroke-linejoin="round"/>
<path d="M59.1212 52.8251L52.3564 49.0739" stroke="#C73E9B" stroke-width="2" stroke-miterlimit="10" stroke-linecap="round" stroke-linejoin="round"/>
<path d="M46.5628 49.8451L49.8452 46.5627C50.2151 46.1928 50.8147 46.1928 51.1845 46.5627L52.3564 47.7345C52.7263 48.1044 52.7263 48.704 52.3564 49.0739L49.074 52.3563C48.7042 52.7261 48.1045 52.7261 47.7347 52.3563L46.5628 51.1844C46.1929 50.8146 46.1929 50.2149 46.5628 49.8451Z" stroke="#C73E9B" stroke-width="2" stroke-miterlimit="10" stroke-linecap="round" stroke-linejoin="round"/>
</g>
<defs>
<clipPath id="clip0_22_1828">
<rect width="60" height="60" fill="white"/>
</clipPath>
</defs>
</svg>
