<?xml version="1.0" encoding="UTF-8"?>
<svg id="Layer_2" data-name="Layer 2" xmlns="http://www.w3.org/2000/svg" viewBox="0 0 682.18 419.38">
  <g id="Plant">
    <g>
      <path d="m605.14,317.47l-130.28-36.09c-3.35-.93-5.31-4.4-4.39-7.74l22.29-80.48c.93-3.35,4.39-5.31,7.74-4.39l130.28,36.09c3.35.93,5.31,4.4,4.39,7.73l-22.29,80.48c-.93,3.35-4.39,5.31-7.74,4.39h0Z" fill="#dedede"/>
      <path d="m490.65,249.83l-2.19,7.91-.81-.22,1.99-7.19-1.86-.52.19-.73,2.67.75h0Z" fill="#fff"/>
      <path d="m496.8,259.27l-.19.73-5.54-1.54.16-.58,4.18-2.31c1.13-.64,1.45-1.12,1.61-1.65.25-.91-.23-1.66-1.44-2-.93-.25-1.71-.18-2.4.28l-.44-.66c.81-.56,1.91-.69,3.11-.35,1.6.44,2.4,1.54,2.03,2.86-.2.75-.64,1.37-1.99,2.11l-3.42,1.9,4.35,1.2h0Z" fill="#fff"/>
      <path d="m505.5,260.22l-1.59-.44-.58,2.07-.81-.22.58-2.08-4.46-1.23.17-.59,5.64-4.08.9.26-5.45,3.98,3.44.95.51-1.83.79.21-.51,1.83,1.59.44-.2.73h0Z" fill="#fff"/>
      <path d="m517.61,263.58l-1.58-.44-.58,2.07-.81-.22.58-2.08-4.47-1.23.17-.59,5.64-4.08.9.25-5.45,3.98,3.44.95.51-1.83.79.21-.51,1.83,1.57.44-.19.72h0Z" fill="#fff"/>
      <path d="m524.59,265.24c-.37,1.34-1.6,2.13-3.53,1.6-1.14-.31-2.11-1.01-2.56-1.8l.58-.54c.36.68,1.16,1.3,2.17,1.59,1.34.37,2.23-.09,2.51-1.05.28-1.02-.18-1.82-2.18-2.38l-1.68-.47,1.51-3.85,4.33,1.19-.2.73-3.61-1-.97,2.45,1.02.28c2.38.66,3.02,1.85,2.64,3.25h-.02Z" fill="#fff"/>
      <path d="m532.41,267.37c-.41,1.48-1.84,2.1-3.37,1.68-2.09-.58-2.84-2.35-2.14-4.85.75-2.69,2.61-3.68,4.75-3.08.71.2,1.34.51,1.75.95l-.51.57c-.33-.38-.84-.64-1.43-.79-1.7-.47-3.1.32-3.7,2.47-.05.18-.1.41-.15.66.64-.76,1.69-.99,2.79-.69,1.57.43,2.41,1.67,2.01,3.11v-.03Zm-.81-.19c.28-1.04-.29-1.92-1.52-2.25-1.2-.33-2.24.19-2.51,1.16-.24.87.25,1.89,1.62,2.27,1.14.31,2.11-.13,2.41-1.18h0Z" fill="#fff"/>
      <path d="m543.21,270.46c-.36,1.32-1.61,2.07-3.52,1.55-1.14-.31-2.12-1.02-2.56-1.8l.58-.54c.36.67,1.16,1.31,2.19,1.59,1.31.36,2.2-.05,2.48-1.03.26-.95-.23-1.75-1.7-2.16l-.57-.16.17-.6,2.96-2.13-4.04-1.12.2-.73,5.08,1.41-.16.58-3.02,2.19c1.68.56,2.27,1.68,1.92,2.95h0Z" fill="#fff"/>
      <path d="m551.15,272.56c-.41,1.48-1.83,2.1-3.37,1.68-2.1-.58-2.84-2.36-2.14-4.86.75-2.69,2.61-3.68,4.75-3.08.72.2,1.34.51,1.75.95l-.51.57c-.33-.38-.84-.63-1.43-.79-1.7-.47-3.1.32-3.7,2.47-.05.18-.1.41-.15.66.64-.76,1.69-.99,2.79-.69,1.57.43,2.41,1.67,2.01,3.11v-.02Zm-.8-.19c.28-1.04-.29-1.92-1.52-2.25-1.21-.33-2.24.19-2.51,1.16-.24.87.25,1.89,1.62,2.27,1.14.31,2.11-.13,2.41-1.18h0Z" fill="#fff"/>
      <path d="m559.97,269.04l-.16.58-5.33,6.41-.88-.24,5.25-6.29-4.06-1.12-.41,1.48-.8-.22.61-2.2,5.8,1.61h0Z" fill="#fff"/>
      <path d="m571.26,272.16l-.16.58-5.34,6.41-.88-.24,5.25-6.29-4.06-1.12-.41,1.48-.8-.22.61-2.2,5.8,1.6h0Z" fill="#fff"/>
      <path d="m577.46,280.02c-.39,1.4-1.81,1.94-3.7,1.42-1.9-.53-2.81-1.71-2.42-3.11.26-.95.99-1.47,2.06-1.52-.71-.54-.99-1.26-.76-2.08.35-1.29,1.67-1.78,3.35-1.32,1.67.46,2.57,1.58,2.21,2.86-.23.82-.84,1.3-1.74,1.39.9.61,1.26,1.43,1.01,2.37h0Zm-.83-.24c.26-.97-.4-1.81-1.8-2.2-1.4-.39-2.39,0-2.66.97-.27.98.38,1.82,1.78,2.21,1.4.39,2.41,0,2.68-.97h0Zm-1.63-2.85c1.23.34,2.11,0,2.36-.87.25-.89-.38-1.66-1.56-1.98-1.2-.33-2.11,0-2.35.88-.24.87.32,1.63,1.56,1.97Z" fill="#fff"/>
      <path d="m585.65,280.34c-.75,2.69-2.61,3.68-4.75,3.08-.72-.19-1.34-.51-1.75-.95l.51-.57c.33.38.84.64,1.43.79,1.7.47,3.1-.32,3.7-2.47.05-.18.1-.41.15-.66-.64.76-1.69.99-2.79.69-1.57-.43-2.41-1.66-2.01-3.11.41-1.48,1.83-2.1,3.37-1.68,2.1.58,2.84,2.36,2.14,4.85v.02Zm-.69-1.88c.24-.87-.25-1.89-1.62-2.27-1.14-.31-2.11.13-2.41,1.19-.28,1.04.29,1.92,1.52,2.25,1.2.33,2.24-.19,2.51-1.16h0Z" fill="#fff"/>
      <path d="m594.74,278.67l-2.19,7.91-.81-.23,1.99-7.18-1.86-.52.2-.72,2.67.74h0Z" fill="#fff"/>
      <path d="m600.88,288.1l-.19.72-5.54-1.54.16-.58,4.18-2.31c1.13-.64,1.45-1.12,1.61-1.66.25-.91-.24-1.65-1.44-1.99-.93-.26-1.71-.18-2.4.28l-.44-.66c.81-.56,1.91-.69,3.11-.35,1.61.44,2.4,1.54,2.03,2.86-.21.75-.64,1.37-1.99,2.11l-3.42,1.9,4.35,1.2h0Z" fill="#fff"/>
      <path d="m608.4,288.52c-.36,1.32-1.61,2.08-3.52,1.55-1.13-.31-2.12-1.02-2.56-1.8l.58-.54c.36.68,1.16,1.31,2.19,1.6,1.31.36,2.2-.05,2.48-1.03.26-.95-.24-1.75-1.69-2.16l-.57-.16.17-.6,2.95-2.13-4.04-1.12.19-.73,5.08,1.41-.16.58-3.01,2.19c1.68.56,2.27,1.68,1.92,2.95h0Z" fill="#fff"/>
      <path d="m545.42,279.81l-.95,3.43,63.32,17.54.95-3.43-63.32-17.54Z" fill="#fff"/>
      <path d="m574.36,295.2l-.95,3.43,32.48,8.99.95-3.43-32.47-8.99Z" fill="#fff"/>
      <g fill="none" opacity=".5">
        <path d="m497.93,223.1l17.2,4.76c2.59.72,4.1,3.39,3.38,5.98l-2.9,10.48c-.72,2.58-3.39,4.1-5.97,3.38l-17.2-4.76c-2.59-.72-4.1-3.39-3.38-5.98l2.9-10.48c.72-2.59,3.39-4.1,5.97-3.38Z" fill="#f4f4f4"/>
      </g>
      <path d="m489.25,236.19l.35-1.27,13.67,3.79c1.58.44,3.22-.49,3.66-2.08.44-1.58-.51-3.24-2.07-3.65l-13.67-3.79.35-1.27,13.68,3.79c2.28.64,3.62,3.01,2.99,5.28-.63,2.28-3,3.62-5.28,3l-13.68-3.79h0Z" fill="#dedede"/>
      <path d="m507.76,236.19l-.36,1.27,9.38,2.61.36-1.27-9.38-2.61Z" fill="#dedede"/>
      <path d="m569.2,225.33l-68.32-18.93-1.63,5.87,68.32,18.93,1.63-5.87Z" fill="#fff"/>
      <path d="m616.27,234.13l-7.81-2.16c-1.64-.45-3.34.51-3.79,2.15l-2.17,7.81c-.45,1.64.51,3.34,2.15,3.8l7.81,2.16c1.64.45,3.34-.51,3.8-2.15l2.16-7.81c.46-1.64-.51-3.34-2.15-3.8Z" fill="#fff"/>
      <path d="m628.75,86.46l-15.79-59.84c-.42-1.66-1.52-3.08-3.02-3.9l-25.88-14c-2.79-1.51-6.28-.64-8.03,2.02l-16.22,24.55c-.95,1.43-1.25,3.2-.83,4.87l15.79,59.84c.82,3.28,4.15,5.28,7.43,4.45l42.09-10.55c3.28-.82,5.28-4.15,4.46-7.43h0Zm-43.6-57.03c-3.12.57-6.12-1.52-6.69-4.64-.57-3.12,1.51-6.12,4.64-6.69,3.12-.57,6.12,1.52,6.69,4.64.57,3.12-1.52,6.12-4.64,6.69Z" fill="#dedede"/>
      <path d="m571.27,60.64c-1.55-5.83,1.18-10.33,6.16-11.65,5.01-1.33,9.61,1.22,11.16,7.06,1.56,5.88-1.18,10.33-6.21,11.66-4.97,1.31-9.55-1.18-11.11-7.07h0Zm11.48-3.04c-.91-3.43-2.47-4.45-4.11-4.02-1.55.41-2.49,2.1-1.58,5.53.91,3.43,2.57,4.43,4.11,4.02,1.65-.43,2.49-2.1,1.59-5.53h0Zm14.76-13.46l6.95-1.84-14.12,39.87-6.95,1.84,14.12-39.87h0Zm1.8,26.11c-1.55-5.83,1.14-10.32,6.16-11.65,5.01-1.33,9.61,1.22,11.16,7.06,1.56,5.88-1.18,10.33-6.21,11.66-5.01,1.33-9.55-1.18-11.11-7.07h0Zm11.48-3.04c-.91-3.43-2.52-4.44-4.11-4.02-1.59.42-2.49,2.1-1.58,5.53.91,3.43,2.51,4.44,4.11,4.02,1.6-.42,2.49-2.1,1.58-5.53h0Z" fill="#fff"/>
      <path d="m113.33,311.31l-32.11-69.21c-.87-1.93-2.51-3.42-4.52-4.08l-34.44-11.39c-3.72-1.23-7.75.59-9.31,4.18l-14.38,33.31c-.84,1.95-.82,4.15.04,6.09l32.11,69.21c1.7,3.81,6.18,5.5,9.99,3.8l48.81-21.91c3.81-1.7,5.5-6.18,3.8-9.98h.02Zm-65.25-59.8c-3.67,1.36-7.75-.51-9.11-4.19-1.36-3.67.51-7.75,4.19-9.11,3.67-1.36,7.75.51,9.11,4.19,1.36,3.67-.51,7.75-4.19,9.11Z" fill="#dedede"/>
      <path d="m37.99,292.4c-3.14-6.75-.79-12.8,4.95-15.47,5.81-2.69,11.93-.6,15.08,6.16,3.16,6.8.79,12.8-5.01,15.49-5.75,2.67-11.86.63-15.02-6.18Zm13.27-6.17c-1.84-3.96-3.96-4.87-5.86-3.99-1.78.83-2.56,3.09-.72,7.05,1.84,3.96,4.07,4.83,5.86,3.99,1.9-.88,2.56-3.09.72-7.05Zm15.01-19.53l8.04-3.73-8.52,51.45-8.04,3.74,8.52-51.44h0Zm7.83,31.3c-3.13-6.74-.85-12.77,4.95-15.47,5.81-2.69,11.93-.6,15.08,6.16,3.16,6.8.79,12.79-5.01,15.49-5.81,2.7-11.86.63-15.02-6.18Zm13.27-6.18c-1.84-3.96-4.01-4.85-5.85-3.99-1.84.85-2.56,3.09-.72,7.05,1.84,3.96,4.01,4.85,5.86,3.99,1.84-.85,2.56-3.09.72-7.05h0Z" fill="#fff"/>
      <path d="m104.23,117.68c26.95,0,48.79-21.84,48.79-48.79s-21.84-48.79-48.79-48.79-48.79,21.84-48.79,48.79,21.84,48.79,48.79,48.79Z" fill="#dedede"/>
      <path d="m102.92,114.57c26.95,0,48.79-21.84,48.79-48.79s-21.84-48.79-48.79-48.79-48.79,21.84-48.79,48.79,21.84,48.79,48.79,48.79Z" fill="#e9e9e9"/>
      <path d="m102.92,103.73c20.96,0,37.95-16.99,37.95-37.95s-16.99-37.95-37.95-37.95-37.95,16.99-37.95,37.95,16.99,37.95,37.95,37.95Z" fill="#fff"/>
      <path d="m127.6,75.99c5.64-13.63-.83-29.25-14.45-34.89-13.63-5.64-29.25.83-34.89,14.45-5.64,13.63.83,29.25,14.45,34.89,13.63,5.64,29.25-.83,34.89-14.45Z" fill="#e9e9e9"/>
      <path d="m117.01,65.78c0,7.78-6.3,14.09-14.09,14.09s-14.09-6.3-14.09-14.09,6.3-14.09,14.09-14.09,14.09,6.3,14.09,14.09Z" fill="#fff"/>
      <path d="m140.67,26.26l-1.33-10.41,10.59-11.34.76,11.23-10.02,10.51Z" fill="#e9e9e9"/>
      <path d="m163.41,17.97l-10.75-.87-10.78,10.36,10.78,1.16,10.75-10.64Z" fill="#e9e9e9"/>
      <path d="m152.29,13.57c-1.67,1.69-3.35,3.4-5.02,5.09-4.02,4.07-8.05,8.15-12.07,12.23-4.85,4.91-9.69,9.82-14.54,14.73-4.21,4.27-8.42,8.54-12.63,12.8-2.05,2.08-4.18,4.08-6.15,6.24-.03.03-.06.06-.09.09-1.18,1.2.67,3.06,1.86,1.86,1.67-1.69,3.35-3.4,5.02-5.09,4.02-4.07,8.05-8.15,12.07-12.23,4.85-4.91,9.69-9.82,14.54-14.73,4.21-4.27,8.42-8.54,12.63-12.8,2.05-2.08,4.18-4.08,6.15-6.24.03-.03.06-.06.09-.09,1.18-1.2-.67-3.06-1.86-1.86h0Z" fill="#dedede"/>
      <path d="m422.6,14.68c.36-1.52.15-3.13-.43-4.57-.57-1.41-1.51-2.7-2.8-3.51-1.37-.86-3.1-1.13-4.67-.72-.93.24-1.8.72-2.5,1.37-.16-.86-.5-1.68-1.01-2.4-.94-1.31-2.45-2.21-4.05-2.43-1.51-.21-3.06.2-4.41.91-1.37.73-2.56,1.84-3.26,3.24-.86,1.74-1.23,3.87-.86,5.78.4,2.02,1.53,3.94,2.82,5.54,2.18,2.68,5.09,6.11,5.09,6.11,0,0,3.93-1.19,7.33-1.87,2.02-.4,4.11-1.16,5.71-2.46,1.51-1.23,2.58-3.09,3.03-4.99h0Z" fill="#960044"/>
      <path d="m665.42,310.61c.36-1.52.15-3.13-.43-4.57-.57-1.41-1.51-2.7-2.8-3.52-1.37-.86-3.1-1.12-4.67-.73-.93.25-1.8.73-2.51,1.37-.16-.86-.5-1.68-1.01-2.4-.94-1.31-2.45-2.21-4.05-2.43-1.51-.21-3.06.19-4.4.91-1.37.73-2.57,1.84-3.26,3.24-.86,1.74-1.23,3.87-.86,5.78.4,2.02,1.53,3.94,2.82,5.54,2.18,2.68,5.09,6.11,5.09,6.11,0,0,3.94-1.19,7.33-1.87,2.02-.4,4.11-1.15,5.71-2.46,1.51-1.23,2.59-3.09,3.03-4.99h0Z" fill="#e1be46"/>
      <path d="m142.17,158.97c-.58-1.01-1.53-1.77-2.58-2.26-1.04-.48-2.21-.7-3.33-.47-1.18.23-2.26.98-2.91,2.01-.38.61-.61,1.31-.66,2.04-.53-.38-1.14-.66-1.78-.78-1.18-.23-2.47.05-3.45.75-.92.67-1.57,1.67-1.92,2.76-.36,1.11-.45,2.32-.11,3.44.42,1.39,1.31,2.73,2.5,3.58,1.25.89,2.85,1.36,4.38,1.57,2.56.34,5.9.71,5.9.71,0,0,1.53-2.67,3.02-4.78.89-1.25,1.64-2.74,1.84-4.27.19-1.45-.19-3.01-.91-4.27v-.03Z" fill="#5ca2dd"/>
      <path d="m682.18,418.73c0,.14-152.73.25-341.07.25s-341.11-.12-341.11-.25,152.69-.26,341.11-.26,341.07.12,341.07.26Z" fill="#2e353a"/>
      <path d="m53.38,362.33c-.1.03-.12-2.65-1.36-6.5-.63-1.9-1.61-4.09-3.12-5.97-1.49-1.89-3.68-3.29-6.09-3.3-2.41,0-4.6,1.37-6.11,3.25-1.53,1.87-2.51,4.05-3.14,5.95-1.25,3.85-1.27,6.53-1.38,6.5,0,0,0-.17,0-.47,0-.31.04-.76.11-1.35.14-1.16.39-2.86,1.01-4.82.61-1.96,1.59-4.2,3.14-6.16,1.54-1.96,3.84-3.44,6.36-3.43,2.53,0,4.82,1.51,6.34,3.48,1.56,1.97,2.53,4.22,3.12,6.18.62,1.97.86,3.66,1,4.83.07.59.1,1.04.1,1.35,0,.31,0,.47,0,.47h.02Z" fill="#2e353a"/>
      <path d="m57.04,362.33c-.1.03-.12-2.65-1.36-6.5-.63-1.9-1.61-4.09-3.12-5.97-1.49-1.89-3.68-3.29-6.09-3.3-2.41,0-4.6,1.37-6.11,3.25-1.53,1.87-2.51,4.05-3.14,5.95-1.25,3.85-1.27,6.53-1.38,6.5,0,0,0-.17,0-.47,0-.31.04-.76.11-1.35.14-1.16.39-2.86,1.01-4.82.61-1.96,1.59-4.2,3.14-6.16,1.54-1.96,3.84-3.44,6.36-3.43,2.53,0,4.82,1.51,6.34,3.48,1.56,1.97,2.53,4.22,3.12,6.18.62,1.97.86,3.66,1,4.83.07.59.1,1.04.1,1.35,0,.31,0,.47,0,.47h.02Z" fill="#2e353a"/>
      <path d="m19.9,359.51l41.31-.33.9,58.71H15.75l4.15-58.38Z" fill="#960044"/>
      <path d="m61.21,359.18h5.19l4.46,58.71h-8.75l-.9-58.71Z" fill="#e0715f"/>
      <path d="m54.18,379.12h-27.05v5.93h27.05v-5.93Z" fill="#fff"/>
      <path d="m61.21,359.18h5.19l4.46,58.71h-8.75l-.9-58.71Z"/>
      <path d="m70.15,310s4.27-7.95,6-7.95c0,0,6.06,2.69,9.44,11.28h3s1.66-6.84,9.71-10.53c0,0,4.47,8.28,4.63,8.21.16-.08-3.88,3.92-10.33,4.2-6.46.26-15.83-.44-15.83-.44,0,0-5.67-2.47-6.61-4.76h0Z" fill="#3b3b3b"/>
      <g fill="none" opacity=".3">
        <path d="m90.11,314.47s6.79-3.82,12.25-3.4c0,0-6.38,5.26-12.25,3.4Z" fill="#3b3b3b"/>
      </g>
      <g fill="none" opacity=".3">
        <path d="m70.82,309.96s8.73.59,13.25,4.82c0,0-8.36.88-13.25-4.82Z" fill="#3b3b3b"/>
      </g>
      <path d="m53.51,313.36l.35,54.14,61.69.09v-54.13l-62.05-.1Z" fill="#e1be46"/>
      <path d="m92.21,313.44s.1.08.25.23c.18.19.41.42.7.72.62.66,1.48,1.56,2.53,2.65,2.13,2.28,5.03,5.4,8.24,8.83,3.18,3.46,6.07,6.59,8.18,8.89,1.02,1.12,1.85,2.05,2.46,2.71.26.3.49.56.66.74.15.18.23.27.22.28,0,0-.1-.08-.25-.24-.18-.19-.41-.42-.69-.71-.62-.66-1.48-1.56-2.53-2.65-2.13-2.28-5.03-5.39-8.24-8.83-3.18-3.46-6.07-6.59-8.18-8.89-1.02-1.13-1.85-2.05-2.46-2.71-.26-.3-.49-.56-.66-.74-.15-.18-.23-.26-.22-.27Z" fill="#fff"/>
      <path d="m103.94,313.36s.2.15.5.45c.35.35.78.79,1.29,1.31,1.09,1.12,2.57,2.67,4.19,4.41,1.62,1.74,3.04,3.35,4.08,4.51.48.55.89,1.02,1.21,1.39.28.33.43.52.41.54-.02,0-.2-.15-.5-.46-.34-.35-.77-.8-1.28-1.33-1.07-1.12-2.54-2.71-4.14-4.46-1.62-1.73-3.08-3.31-4.13-4.46-.49-.55-.9-1.01-1.22-1.38-.28-.33-.44-.52-.42-.53h0Z" fill="#fff"/>
      <path d="m79.91,313.44s.04.03.1.09c.08.08.17.17.28.29.25.26.61.63,1.06,1.1.92.98,2.23,2.37,3.84,4.07,3.24,3.48,7.68,8.24,12.59,13.52,4.89,5.3,9.31,10.08,12.53,13.58,1.58,1.73,2.87,3.14,3.77,4.14.43.48.76.86,1.02,1.13.11.12.19.21.25.3.06.07.09.11.08.11,0,0-.04-.03-.1-.09-.08-.08-.17-.17-.28-.28-.25-.26-.61-.64-1.06-1.1-.92-.98-2.23-2.37-3.84-4.07-3.24-3.48-7.68-8.24-12.59-13.52-4.89-5.3-9.31-10.08-12.53-13.58-1.58-1.73-2.87-3.14-3.77-4.14-.43-.48-.76-.86-1.02-1.14-.11-.12-.19-.21-.25-.3-.06-.07-.09-.11-.08-.11Z" fill="#fff"/>
      <path d="m67.57,313.44c.05-.06.78.64,2.03,1.96,1.24,1.32,3.02,3.26,5.2,5.68,4.35,4.83,10.3,11.54,16.84,18.99,6.54,7.45,12.43,14.21,16.69,19.13,2.11,2.45,3.83,4.44,5.02,5.83.58.68,1.03,1.21,1.35,1.59.15.18.25.31.34.42.08.1.12.15.11.15,0,0-.05-.04-.14-.13-.1-.1-.22-.23-.37-.4-.33-.37-.8-.89-1.39-1.56-1.21-1.37-2.95-3.34-5.09-5.77-4.3-4.89-10.22-11.63-16.75-19.07-6.55-7.43-12.47-14.16-16.78-19.04-2.15-2.43-3.91-4.39-5.13-5.74-.61-.68-1.09-1.19-1.42-1.54-.17-.18-.29-.3-.38-.38-.09-.09-.14-.11-.14-.12h0Z" fill="#fff"/>
      <path d="m54.13,313.36c.05-.06.79.65,2.06,1.97,1.26,1.33,3.07,3.28,5.28,5.71,4.42,4.85,10.47,11.6,17.11,19.09,6.65,7.49,12.64,14.29,16.97,19.23,2.14,2.47,3.89,4.46,5.11,5.85.59.69,1.05,1.22,1.38,1.61.15.18.26.31.35.42.08.1.12.15.12.15,0,0-.05-.04-.14-.13-.1-.1-.22-.23-.37-.4-.33-.37-.81-.9-1.42-1.57-1.23-1.38-3-3.36-5.18-5.79-4.37-4.92-10.38-11.69-17.02-19.17-6.65-7.47-12.68-14.23-17.04-19.14-2.19-2.44-3.96-4.42-5.21-5.77-.62-.68-1.11-1.19-1.44-1.55-.17-.18-.29-.3-.39-.39-.09-.09-.14-.11-.15-.12h0Z" fill="#fff"/>
      <path d="m53.51,329.5c.11-.13,2.09,1.93,5.18,5.34,3.09,3.41,7.3,8.17,11.92,13.45,4.62,5.29,8.78,10.1,11.77,13.59,1.48,1.73,2.68,3.15,3.53,4.15.4.48.71.86.95,1.14.1.12.18.21.24.3.05.07.08.11.08.11,0,0-.04-.03-.1-.09-.07-.08-.16-.17-.26-.28-.24-.28-.57-.64-.99-1.11-.87-.99-2.09-2.38-3.6-4.09-3.04-3.48-7.21-8.25-11.84-13.54-4.62-5.27-8.81-10.03-11.86-13.51-1.53-1.72-2.77-3.1-3.64-4.05-.43-.47-.77-.84-1.02-1.08-.23-.25-.38-.34-.38-.34h0Z" fill="#fff"/>
      <path d="m53.72,344.43c.06-.05,4.7,5.1,10.37,11.5,5.67,6.41,10.21,11.64,10.15,11.7-.06.05-4.7-5.1-10.37-11.5-5.67-6.4-10.21-11.64-10.15-11.7Z" fill="#fff"/>
      <path d="m88.42,313.36l-.09,54.23h4.61s.09-54.23.09-54.23h-4.61Z" fill="#fff"/>
      <path d="m53.63,341.99h61.82v-3.67h-61.82v3.67Z" fill="#fff"/>
      <path d="m59.34,313.34l-.04,54.17h3.27s.1-54.16.1-54.16h-3.33Z" fill="#fff"/>
      <g fill="none" opacity=".3">
        <path d="m69.81,313.38l-.09,54.21-15.86-.1-.35-54.15,16.3.03Z"/>
      </g>
      <path d="m69.72,366.99c-.08,0-.15-11.96-.15-26.71s.07-26.72.15-26.72.15,11.96.15,26.72-.07,26.71-.15,26.71Z" fill="#4d5a64"/>
      <path d="m462.99,336.53s-14.39.83-15.56,3.35c0,0-.19,10.59,10,21.26l-2.01,4.34v7.06c4.72-9.17,10.01-23.23,10.01-23.23,0,0,.23-9.88-2.45-12.78h0Z" fill="#4d5a64"/>
      <g fill="none" opacity=".3">
        <path d="m462.48,337.47s-5.02,13.04-1.95,22.44c0,0,6.9-11.52,1.95-22.44Z"/>
      </g>
      <path d="m485.1,354.09s-6.68-12.78-9.45-12.8c0,0-9.73,4.19-15.27,17.86l-4.78-.05s-2.54-10.98-15.32-17c0,0-7.29,13.15-7.55,13.02-.25-.13,6.12,6.34,16.43,6.88,10.31.54,25.3-.42,25.3-.42,0,0,9.09-3.85,10.64-7.48h0Z" fill="#4d5a64"/>
      <g fill="none" opacity=".3">
        <path d="m453.12,360.88s-10.79-6.23-19.5-5.65c0,0,10.1,8.51,19.5,5.65Z"/>
      </g>
      <g fill="none" opacity=".3">
        <path d="m484.04,354.01s-13.96.78-21.25,7.45c0,0,13.34,1.55,21.25-7.45Z"/>
      </g>
      <path d="m506.09,361.54l-3.82,57.31-88.45-.83-.69-57.34,92.96.86Z" fill="#e1be46"/>
      <g fill="none" opacity=".3">
        <path d="m489.3,361.38l-.53,57.34,13.51.13,3.82-57.31-16.8-.16Z"/>
      </g>
      <path d="m499.44,361.48l-2.79,57.31-3.06-.03.53-57.33,5.33.05Z" fill="#4d5a64"/>
      <path d="m448.27,361.02l-.54,57.33,7.37.07.54-57.33-7.37-.07Z" fill="#4d5a64"/>
      <path d="m504.1,385.93h-90.66v5.56h90.66v-5.56Z" fill="#4d5a64"/>
      <path d="m379.94,111.52l-164.89,31.57c-2.97.57-5.83-1.38-6.4-4.35l-19.28-100.68c-.57-2.97,1.38-5.83,4.35-6.4L358.6.1c2.97-.57,5.83,1.38,6.4,4.35l19.28,100.68c.57,2.97-1.38,5.83-4.35,6.4h0Z" fill="#960044"/>
      <path d="m222.15,52.62c.27,1.43-.7,2.47-2.87,2.88l-4.27.81-1.58-8.24,4.03-.77c2.07-.39,3.29.26,3.53,1.55.16.82-.15,1.54-.74,2.03.98.12,1.7.71,1.9,1.75h0Zm-6.54-3.48l.37,1.95,1.9-.36c.93-.18,1.37-.61,1.25-1.25-.13-.65-.7-.87-1.63-.7l-1.9.36Zm4.58,3.64c-.14-.69-.72-.92-1.71-.73l-2.22.43.39,2.04,2.22-.43c.99-.19,1.46-.6,1.32-1.3Z" fill="#fff"/>
      <path d="m229.11,51.79l-3.83.73-.39,1.91-1.96.37,2.09-8.95,1.89-.36,5.27,7.54-2.01.38-1.07-1.62h0Zm-.88-1.33l-1.91-2.91-.7,3.41,2.61-.5Z" fill="#fff"/>
      <path d="m239.01,43.17l1.58,8.24-1.57.3-5.07-4.22.96,5-1.89.36-1.58-8.24,1.58-.3,5.06,4.22-.96-5,1.89-.36Z" fill="#fff"/>
      <path d="m244.93,47.23l-.88,1.37.4,2.09-1.9.36-1.58-8.24,1.9-.36.73,3.85,2.92-4.55,2.12-.4-2.71,4.33,4.49,3.88-2.22.43-3.26-2.73h-.02Z" fill="#fff"/>
      <path d="m227.16,87.2l-1.52.29.38,1.99-.77.15-.38-1.99-4.27.82-.11-.56,3.05-5.79.86-.17-2.94,5.63,3.29-.63-.33-1.75.75-.15.33,1.75,1.52-.29.14.7h0Z" fill="#fff"/>
      <path d="m232.69,85.94c.24,1.26-.49,2.42-2.32,2.76-1.1.21-2.21.03-2.91-.45l.26-.69c.59.41,1.53.62,2.52.43,1.25-.24,1.83-.96,1.65-1.9-.18-.91-.93-1.38-2.33-1.12l-.54.11-.11-.58,1.6-3.02-3.87.74-.14-.7,4.87-.93.11.55-1.62,3.1c1.63-.23,2.61.48,2.85,1.68h-.02Z" fill="#fff"/>
      <path d="m238.8,84.72c.24,1.28-.46,2.47-2.31,2.82-1.09.21-2.2.03-2.9-.45l.26-.69c.59.41,1.52.62,2.49.43,1.28-.24,1.85-1.01,1.67-1.92-.19-.97-.91-1.46-2.83-1.1l-1.62.31-.33-3.87,4.14-.79.14.7-3.46.67.21,2.46.97-.19c2.28-.44,3.32.29,3.57,1.63v-.02Z" fill="#fff"/>
      <path d="m245.46,83.41c.27,1.42-.67,2.54-2.14,2.82-2.01.38-3.37-.8-3.83-3.19-.49-2.57.66-4.18,2.71-4.57.69-.13,1.34-.14,1.87.07l-.2.69c-.44-.19-.98-.19-1.54-.08-1.63.31-2.48,1.57-2.09,3.61.03.18.09.39.15.61.22-.9,1.02-1.54,2.07-1.74,1.51-.28,2.72.4,2.99,1.78h0Zm-.76.17c-.19-1-1.05-1.49-2.21-1.27-1.16.23-1.81,1.09-1.62,2.03.16.83,1,1.49,2.31,1.24,1.1-.21,1.72-.99,1.54-2h0Z" fill="#fff"/>
      <path d="m262.24,82.54l-2.26-2.04-1.36,2.72-.86.17,1.69-3.35-2.67-2.36.86-.17,2.13,1.9,1.28-2.56.84-.16-1.61,3.18,2.83,2.49-.88.17h0Z" fill="#fff"/>
      <path d="m268.02,81.43l-2.26-2.04-1.36,2.72-.86.17,1.69-3.35-2.67-2.36.86-.17,2.13,1.9,1.28-2.56.84-.16-1.62,3.18,2.83,2.49-.88.17h0Z" fill="#fff"/>
      <path d="m273.79,80.33l-2.26-2.04-1.36,2.73-.86.17,1.69-3.35-2.67-2.36.86-.17,2.13,1.9,1.28-2.56.84-.17-1.62,3.18,2.83,2.49-.88.17h0Z" fill="#fff"/>
      <path d="m279.56,79.23l-2.26-2.04-1.36,2.73-.86.17,1.69-3.35-2.67-2.36.86-.17,2.13,1.9,1.28-2.56.84-.17-1.61,3.18,2.83,2.49-.88.17h0Z" fill="#fff"/>
      <path d="m299.49,75.41l-2.26-2.04-1.36,2.73-.86.17,1.69-3.35-2.67-2.36.86-.17,2.13,1.9,1.28-2.56.84-.16-1.62,3.18,2.83,2.49-.88.17h0Z" fill="#fff"/>
      <path d="m305.27,74.3l-2.26-2.04-1.36,2.73-.86.17,1.69-3.35-2.67-2.36.86-.17,2.13,1.9,1.28-2.56.84-.17-1.62,3.18,2.83,2.49-.88.17h0Z" fill="#fff"/>
      <path d="m311.04,73.2l-2.26-2.04-1.36,2.73-.86.17,1.69-3.35-2.67-2.36.86-.17,2.13,1.9,1.28-2.56.84-.17-1.61,3.18,2.83,2.49-.88.17h0Z" fill="#fff"/>
      <path d="m316.81,72.09l-2.26-2.04-1.36,2.73-.86.17,1.69-3.35-2.67-2.36.86-.17,2.14,1.9,1.28-2.56.84-.16-1.62,3.18,2.83,2.49-.88.17h0Z" fill="#fff"/>
      <path d="m333.27,61.1l1.45,7.57-.77.15-1.31-6.87-1.78.34-.14-.7,2.56-.49h0Z" fill="#fff"/>
      <path d="m341.11,65.19c.24,1.26-.49,2.42-2.32,2.76-1.1.21-2.21.03-2.91-.45l.26-.69c.59.41,1.53.62,2.52.43,1.25-.24,1.83-.96,1.65-1.9-.18-.91-.93-1.38-2.33-1.12l-.54.11-.11-.58,1.6-3.02-3.87.74-.14-.69,4.86-.93.11.55-1.63,3.1c1.64-.22,2.62.48,2.85,1.68h-.02Z" fill="#fff"/>
      <path d="m348.68,63.93l-1.52.29.38,1.99-.77.15-.38-1.99-4.27.82-.11-.56,3.05-5.79.86-.17-2.94,5.63,3.29-.63-.33-1.75.75-.15.33,1.75,1.52-.29.14.69h0Z" fill="#fff"/>
      <path d="m354.76,64.11l.14.69-5.31,1.02-.11-.55,2.55-3.68c.7-1.01.75-1.55.66-2.07-.17-.87-.89-1.3-2.05-1.08-.89.17-1.52.57-1.9,1.24l-.65-.37c.45-.8,1.32-1.37,2.48-1.6,1.54-.29,2.65.29,2.9,1.57.14.72.04,1.42-.79,2.6l-2.08,3.02,4.16-.79v-.02Z" fill="#fff"/>
      <path d="m220.1,106.89c-.21-1.09.48-2.03,1.61-2.24.63-.12,1.18,0,1.61.35l-.44.6c-.29-.23-.63-.31-.99-.24-.68.13-1.07.7-.93,1.38.13.69.7,1.07,1.38.93.36-.07.64-.27.82-.61l.64.39c-.26.48-.73.81-1.37.93-1.12.22-2.1-.4-2.31-1.5h0Z" fill="#fff"/>
      <path d="m226.62,106.72l-1.67.32-.18.83-.85.17.92-3.92.82-.16,2.31,3.3-.88.17-.47-.71Zm-.38-.59l-.83-1.27-.3,1.49,1.15-.22h0Z" fill="#fff"/>
      <path d="m230.64,106.75l-.89-.87h-.04l-.72.15.2,1.01-.83.16-.7-3.61,1.57-.3c.97-.19,1.66.2,1.82,1.01.11.54-.1.99-.53,1.28l1.04,1.01-.9.18h0Zm-1.34-2.78l-.69.13.24,1.26.69-.13c.51-.1.72-.38.65-.77-.08-.4-.38-.58-.89-.48h0Z" fill="#fff"/>
      <path d="m231.79,106.16l.17-.69c.34.17.83.23,1.26.15.5-.1.67-.29.62-.52-.13-.68-2.14.19-2.4-1.16-.12-.62.28-1.22,1.3-1.42.45-.09.94-.07,1.31.08l-.14.69c-.37-.13-.73-.16-1.06-.09-.5.1-.65.31-.61.55.13.67,2.14-.2,2.4,1.13.12.61-.28,1.21-1.32,1.41-.57.11-1.18.05-1.55-.14h0Z" fill="#fff"/>
      <path d="m239.52,101.3l.69,3.61-.83.16-.28-1.48-1.64.31.28,1.48-.83.16-.7-3.61.83-.16.27,1.42,1.64-.31-.27-1.42.83-.16Z" fill="#fff"/>
      <path d="m240.5,102.99c-.21-1.08.48-2.03,1.62-2.24,1.14-.22,2.12.41,2.33,1.49.21,1.08-.48,2.03-1.62,2.24-1.15.22-2.12-.41-2.33-1.49Zm3.1-.6c-.13-.69-.71-1.07-1.35-.94-.65.13-1.04.69-.91,1.37.13.69.7,1.07,1.35.94.65-.13,1.04-.69.91-1.37Z" fill="#fff"/>
      <path d="m244.74,100.3l.83-.16.56,2.93,1.81-.34.13.69-2.64.51-.7-3.61h0Z" fill="#fff"/>
      <path d="m247.86,99.71l1.65-.31c1.18-.23,2.12.33,2.34,1.42.2,1.1-.46,1.96-1.65,2.18l-1.64.31-.7-3.61h0Zm2.16,2.62c.72-.14,1.11-.66.97-1.35-.14-.7-.69-1.03-1.4-.89l-.76.15.43,2.24.76-.15h0Z" fill="#fff"/>
      <path d="m255.49,101.29l.13.67-2.8.54-.7-3.61,2.73-.52.13.68-1.9.36.15.78,1.67-.32.13.65-1.68.32.16.83,1.97-.37h0Z" fill="#fff"/>
      <path d="m258.59,101.39l-.89-.87h-.04l-.72.15.19,1.01-.83.16-.7-3.61,1.57-.3c.97-.19,1.66.2,1.82,1.01.11.54-.1.99-.53,1.28l1.04,1.01-.9.18h0Zm-1.34-2.78l-.69.13.24,1.26.69-.13c.51-.1.72-.38.65-.77-.08-.4-.38-.58-.89-.48h0Z" fill="#fff"/>
      <path d="m222.77,117.57l50.69-9.71c.8-.15,1.56.37,1.72,1.17l.34,1.75c.15.8-.37,1.57-1.17,1.72l-50.69,9.71c-.8.15-1.57-.37-1.72-1.17l-.34-1.75c-.15-.8.37-1.57,1.17-1.72Z" fill="#fff"/>
      <path d="m335.13,96.05l26.87-5.15c.8-.15,1.57.37,1.72,1.17l.34,1.75c.15.8-.37,1.57-1.17,1.72l-26.88,5.15c-.8.15-1.57-.37-1.72-1.17l-.34-1.75c-.15-.8.37-1.57,1.17-1.72h0Z" fill="#fff"/>
      <g fill="none" opacity=".2">
        <path d="m358.16.19l-164,31.41c-3.21.62-5.32,3.72-4.71,6.93l5.64,29.43c11.75,5.24,26.22,3.79,38.35-1.27,14.29-5.96,26.3-16.15,38.98-25.04,12.67-8.89,26.94-16.82,42.43-17.12,14.61-.28,28.35,6.22,42.38,10.29,4.53,1.31,9.33,2.32,14.14,2.77l-6.26-32.69c-.62-3.21-3.72-5.32-6.93-4.71h-.02Z" fill="#fff"/>
      </g>
      <path d="m493.31,54.02c-11.94,0-21.62-9.68-21.62-21.62s9.68-21.62,21.62-21.62,21.62,9.68,21.62,21.62-9.68,21.62-21.62,21.62Z" fill="#5ca2dd"/>
      <path d="m481.36,41.37c2.33,1.5,5.1,2.37,8.07,2.37,9.78,0,15.3-8.25,14.97-15.66,1.03-.74,1.92-1.66,2.62-2.72-.94.42-1.96.7-3.02.83,1.09-.65,1.92-1.68,2.31-2.92-1.02.61-2.14,1.04-3.34,1.28-.96-1.03-2.33-1.66-3.85-1.66-3.4,0-5.89,3.17-5.13,6.46-4.38-.22-8.25-2.32-10.86-5.5-1.38,2.37-.72,5.46,1.62,7.03-.86-.03-1.67-.26-2.39-.66-.06,2.44,1.69,4.72,4.22,5.23-.75.21-1.56.24-2.38.09.67,2.1,2.61,3.61,4.91,3.66-2.21,1.73-5,2.51-7.79,2.18h.03Z" fill="#fff"/>
      <path d="m60.99,189.25c-11.94,0-21.62-9.68-21.62-21.62s9.68-21.62,21.62-21.62,21.62,9.68,21.62,21.62-9.68,21.62-21.62,21.62Z" fill="#5ca2dd"/>
      <path d="m57.7,180.7h5.26v-13.18h3.67l.39-4.42h-4.06v-2.52c0-1.04.21-1.45,1.21-1.45h2.85v-4.58h-3.64c-3.92,0-5.68,1.72-5.68,5.02v3.51h-2.74v4.46h2.74v13.14Z" fill="#fff"/>
      <path d="m627.23,202.53c-11.38,0-20.59-9.22-20.59-20.59s9.22-20.59,20.59-20.59,20.59,9.22,20.59,20.59-9.22,20.59-20.59,20.59Z" fill="#5ca2dd"/>
      <path d="m627.23,172.69c3.01,0,3.37,0,4.56.07,1.1.05,1.69.23,2.09.39.53.21.9.45,1.3.84.39.39.64.77.84,1.3.16.4.34,1,.39,2.09.06,1.19.07,1.55.07,4.56s0,3.37-.07,4.56c-.05,1.1-.23,1.69-.39,2.09-.2.53-.45.9-.84,1.3-.39.39-.77.64-1.3.84-.4.16-1,.34-2.09.39-1.19.06-1.55.07-4.56.07s-3.37,0-4.56-.07c-1.1-.05-1.69-.23-2.1-.39-.53-.21-.9-.45-1.3-.84-.39-.39-.64-.77-.84-1.3-.16-.4-.34-1-.39-2.09-.06-1.19-.07-1.55-.07-4.56s0-3.37.07-4.56c.05-1.1.23-1.7.39-2.09.21-.53.45-.9.84-1.3.39-.39.77-.64,1.3-.84.4-.16,1-.34,2.1-.39,1.19-.06,1.55-.07,4.56-.07Zm0-2.04c-3.06,0-3.45,0-4.65.07-1.2.06-2.03.24-2.74.53-.75.28-1.37.68-2,1.3-.63.63-1.02,1.25-1.3,2-.29.71-.47,1.54-.53,2.74s-.07,1.59-.07,4.65,0,3.45.07,4.65c.06,1.2.24,2.03.53,2.74.28.74.67,1.37,1.3,2,.63.63,1.25,1.02,2,1.3.72.27,1.54.47,2.74.53,1.2.06,1.59.07,4.65.07s3.45,0,4.65-.07c1.2-.06,2.03-.24,2.74-.53.75-.28,1.37-.68,2-1.3.63-.63,1.02-1.25,1.3-2,.27-.71.47-1.54.53-2.74.06-1.2.07-1.59.07-4.65s0-3.45-.07-4.65c-.06-1.2-.25-2.03-.53-2.74-.28-.74-.68-1.37-1.3-2-.63-.63-1.25-1.02-2-1.3-.72-.27-1.54-.47-2.74-.53-1.2-.06-1.59-.07-4.65-.07Z" fill="#fff"/>
      <path d="m627.23,176.15c-3.2,0-5.79,2.59-5.79,5.8s2.59,5.8,5.79,5.8,5.79-2.59,5.79-5.8-2.59-5.8-5.79-5.8Zm0,9.56c-2.07,0-3.76-1.68-3.76-3.76s1.68-3.76,3.76-3.76,3.76,1.68,3.76,3.76-1.68,3.76-3.76,3.76Z" fill="#fff"/>
      <path d="m634.61,175.92c0,.74-.61,1.35-1.35,1.35s-1.35-.61-1.35-1.35.61-1.35,1.35-1.35,1.35.61,1.35,1.35Z" fill="#fff"/>
      <path d="m162.49,128.09l-4.13-6.64c.47-4.14-.16-8.47-2.07-12.51-5.47-11.65-19.36-16.64-31.03-11.16-11.66,5.48-16.68,19.36-11.21,31.01,5.47,11.65,19.36,16.64,31.03,11.16,4.87-2.29,8.58-6.05,10.85-10.49l6.56-1.37h0Z" fill="#f9f9f9"/>
      <path d="m162.49,128.09s-.14.04-.41.1c-.28.07-.7.16-1.24.27-1.12.24-2.76.61-4.88,1.07-.03,0-.06,0-.07-.04v-.03l.11.03c-1.33,2.61-3.63,5.91-7.48,8.61-.96.67-2.01,1.28-3.14,1.84-.57.27-1.17.49-1.77.75-.6.27-1.23.45-1.88.64-2.58.76-5.48,1.13-8.5.87-3.02-.24-6.14-1.11-9.06-2.66-2.92-1.55-5.64-3.78-7.78-6.62-2.1-2.86-3.63-6.29-4.29-9.98-.22-.91-.23-1.86-.33-2.81-.06-.47,0-.95-.02-1.43.02-.48-.02-.96.04-1.43.12-.95.16-1.92.39-2.86.1-.47.19-.95.3-1.42.15-.46.28-.93.43-1.4,1.14-3.63,3.25-6.85,5.84-9.42,2.59-2.57,5.74-4.46,9.04-5.54,3.29-1.1,6.72-1.41,9.93-1.06,3.22.35,6.23,1.35,8.83,2.79,2.6,1.44,4.79,3.3,6.51,5.34.89,1,1.58,2.09,2.26,3.14.58,1.11,1.18,2.15,1.61,3.24,1.74,4.33,1.88,8.38,1.53,11.38v-.04c1.32,2.17,2.35,3.85,3.04,4.97.33.56.6.98.77,1.27.18.28.25.42.25.42,0,0-.1-.15-.28-.43-.19-.29-.45-.71-.8-1.26-.7-1.12-1.74-2.76-3.09-4.9,0,0,0-.03,0-.04.33-2.99.17-7-1.58-11.29-.41-1.08-1.03-2.11-1.6-3.21-.69-1.04-1.37-2.11-2.25-3.1-1.71-2.01-3.88-3.85-6.46-5.27-2.57-1.42-5.55-2.41-8.74-2.74-3.18-.34-6.56-.03-9.82,1.06-3.26,1.07-6.36,2.94-8.92,5.48-2.56,2.54-4.64,5.72-5.77,9.31-.15.46-.28.92-.42,1.38-.11.47-.2.94-.29,1.41-.23.93-.27,1.89-.39,2.83-.05.47-.02.94-.04,1.42,0,.47-.04.94.02,1.41.1.93.12,1.87.33,2.77.65,3.65,2.15,7.04,4.23,9.86,2.11,2.8,4.8,5.02,7.68,6.55,2.89,1.54,5.98,2.4,8.96,2.65,2.99.25,5.85-.1,8.42-.84.65-.19,1.28-.35,1.87-.63.6-.25,1.19-.47,1.76-.73,1.13-.54,2.17-1.15,3.12-1.81,3.83-2.64,6.14-5.91,7.48-8.51,0-.03.05-.04.08-.03.02,0,.04.04.03.07l-.07-.06c2.11-.43,3.75-.76,4.86-.99.55-.11.97-.2,1.26-.25.28-.06.44-.09.44-.09h-.05Z" fill="#2e353a"/>
      <path d="m141.87,120.97h-12.42c-.22,0-.38-.17-.38-.38s.17-.38.38-.38h12.1l1.35-7.62h-14.63c-.22,0-.38-.17-.38-.38s.17-.38.38-.38h15.08c.12,0,.22.05.29.14.07.09.1.2.08.31l-1.49,8.38c-.03.19-.19.31-.37.31h0Z" fill="#960044"/>
      <path d="m141.46,123.91l-11.84-.04c-.19,0-.35-.15-.37-.33l-1.69-13.17h-3.47c-.21,0-.38-.17-.38-.38s.17-.38.38-.38h3.8c.2,0,.35.15.38.33l1.69,13.17,11.5.04c.21,0,.38.18.38.38s-.17.38-.38.38h0Z" fill="#960044"/>
      <path d="m131.55,128.12c-1.02,0-1.85-.83-1.85-1.85s.83-1.85,1.85-1.85,1.85.83,1.85,1.85-.83,1.85-1.85,1.85Zm0-2.95c-.6,0-1.1.49-1.1,1.1s.49,1.1,1.1,1.1,1.1-.49,1.1-1.1-.49-1.1-1.1-1.1h0Z" fill="#960044"/>
      <path d="m139.72,128.12c-1.02,0-1.85-.83-1.85-1.85s.83-1.85,1.85-1.85,1.85.83,1.85,1.85-.83,1.85-1.85,1.85Zm0-2.95c-.6,0-1.1.49-1.1,1.1s.49,1.1,1.1,1.1,1.1-.49,1.1-1.1-.49-1.1-1.1-1.1h0Z" fill="#960044"/>
      <path d="m133.28,120.97c-.2,0-.36-.16-.38-.35l-.51-8.11c0-.21.15-.39.35-.4.22,0,.39.15.4.35l.51,8.11c0,.21-.15.39-.35.4h-.02Z" fill="#960044"/>
      <path d="m137.82,120.97h-.02c-.21,0-.37-.2-.36-.4l.45-8.11c0-.21.19-.37.4-.36.21,0,.37.2.36.4l-.45,8.11c0,.21-.18.36-.38.36Z" fill="#960044"/>
      <path d="m128.73,116.92c-.21,0-.38-.17-.38-.38s.17-.38.38-.38l13.88-.14c.21,0,.38.17.38.38s-.17.38-.38.38l-13.88.14Z" fill="#960044"/>
      <path d="m623.77,279.13h-33.64c-1.63,0-2.94,1.31-2.94,2.94v33.64c0,1.63,1.31,2.94,2.94,2.94h4.22l4.21,4.74,4.09-4.74h21.12c1.63,0,2.94-1.31,2.94-2.94v-33.64c0-1.62-1.31-2.94-2.94-2.94h0Z" fill="#f9f9f9"/>
      <path d="m623.77,279.13s.45-.1,1.23.22c.38.17.83.45,1.2.95.37.49.64,1.2.6,2.01.02,3.17.04,7.73.08,13.42,0,5.73.02,12.59.04,20.29-.1,1.04-.75,2.01-1.71,2.49-.47.24-1.03.35-1.55.34h-7.75c-4.25,0-8.67,0-13.24,0l.19-.09c-1.29,1.5-2.68,3.11-4.09,4.74l-.19.21-.2-.21c-1.34-1.51-2.76-3.11-4.21-4.74l.19.09h-4.09c-.72.02-1.47-.19-2.04-.65-.58-.44-1.01-1.08-1.17-1.78-.17-.74-.07-1.38-.1-2.05v-7.81c0-5.12,0-10.06.02-14.76,0-2.35,0-4.65,0-6.87.02-1.12-.03-2.18.04-3.32.14-1.16.98-2.16,2.04-2.54.52-.21,1.12-.19,1.6-.19h4.49c1.94,0,3.81,0,5.58.02,7.1.03,12.84.06,16.85.08,1.97.02,3.51.04,4.58.05.51,0,.9.02,1.19.03.27,0,.4.02.4.03s-.14.02-.4.03c-.29,0-.68,0-1.19.03-1.08,0-2.61.03-4.58.05-4,.02-9.76.05-16.85.08-1.78,0-3.64,0-5.58.02h-4.49c-.53,0-1,0-1.46.18-.91.32-1.64,1.19-1.75,2.2-.05,1.02,0,2.16-.02,3.26,0,2.23,0,4.52,0,6.87,0,4.71,0,9.64.02,14.76v7.81c.02.65-.06,1.35.08,1.92.14.59.5,1.13.99,1.5.49.37,1.1.56,1.73.54h4.21l.08.09c1.44,1.62,2.87,3.23,4.21,4.74h-.38c1.41-1.63,2.8-3.23,4.09-4.73l.08-.09h.12c4.57,0,9,0,13.24,0h7.75c.48,0,.93-.08,1.34-.28.82-.4,1.39-1.24,1.49-2.13.03-7.7.05-14.54.07-20.26.03-5.69.06-10.26.08-13.42.05-.78-.18-1.45-.53-1.93-.34-.49-.76-.77-1.13-.95-.74-.33-1.2-.27-1.19-.3l-.02.04Z" fill="#2e353a"/>
      <path d="m613.96,301.55h-12.42c-.21,0-.38-.17-.38-.38s.17-.38.38-.38h12.1l1.35-7.62h-14.63c-.2,0-.38-.17-.38-.38s.17-.38.38-.38h15.08c.12,0,.21.05.29.14.07.09.1.2.08.31l-1.49,8.38c-.03.19-.19.31-.37.31h0Z" fill="#2e353a"/>
      <path d="m613.54,304.48l-11.83-.04c-.19,0-.35-.15-.37-.33l-1.69-13.17h-3.47c-.2,0-.38-.17-.38-.38s.17-.38.38-.38h3.8c.2,0,.35.15.38.33l1.69,13.17,11.5.04c.21,0,.38.18.38.38s-.17.38-.38.38h0Z" fill="#2e353a"/>
      <path d="m603.65,308.69c-1.02,0-1.85-.83-1.85-1.85s.83-1.85,1.85-1.85,1.85.83,1.85,1.85-.83,1.85-1.85,1.85Zm0-2.95c-.6,0-1.1.49-1.1,1.1s.49,1.1,1.1,1.1,1.1-.49,1.1-1.1-.49-1.1-1.1-1.1Z" fill="#2e353a"/>
      <path d="m611.81,308.69c-1.02,0-1.85-.83-1.85-1.85s.83-1.85,1.85-1.85,1.85.83,1.85,1.85-.83,1.85-1.85,1.85Zm0-2.95c-.6,0-1.1.49-1.1,1.1s.49,1.1,1.1,1.1,1.1-.49,1.1-1.1-.49-1.1-1.1-1.1Z" fill="#2e353a"/>
      <path d="m605.37,301.55c-.2,0-.36-.16-.38-.35l-.51-8.1c0-.21.15-.39.35-.4.22,0,.39.15.4.35l.51,8.11c0,.2-.15.39-.35.4h-.02Z" fill="#2e353a"/>
      <path d="m609.91,301.55h-.02c-.2,0-.37-.19-.36-.4l.45-8.11c0-.21.19-.37.4-.36.21,0,.37.19.36.4l-.45,8.1c0,.21-.18.36-.38.36Z" fill="#2e353a"/>
      <path d="m600.82,297.5c-.2,0-.38-.17-.38-.38s.17-.38.38-.38l13.87-.14c.2,0,.38.17.38.38s-.17.38-.38.38l-13.87.14Z" fill="#2e353a"/>
      <path d="m163.6,195.38l-34.34,36.55,16.31,12.51,31.42-32.25-13.39-16.82Z" fill="#eebd9c"/>
      <path d="m210.23,98.31c.45-3.7-2.03-4.42-4-4.15-2.21-1.93-5.8-2.04-8.12-.24-1.68-1.11-3.96-1.26-5.78-.39-1.82.87-3.11,2.74-3.3,4.76-2-.42-4.21.57-5.24,2.34-1.03,1.76-.78,4.18.57,5.71-2.22.61-3.79,3.04-3.41,5.32.38,2.28,2.64,4.07,4.95,3.93l24.06-13.26c1.49-1.32.02-2.03.25-4h0Z" fill="#2e353a"/>
      <path d="m185.2,116.19c1.33-10.33,10.38-17.9,20.78-17.4l1.04.05c11.11,1.18,16.32,11.29,14.82,22.37l-3.4,37.04-.67,7.03-25.97,3.92.97-14.69s-10.63-2.18-10.25-12.9c.19-5.18,1.43-15.81,2.67-25.41Z" fill="#eebd9c"/>
      <path d="m192.69,154.49s6.82.74,14.23-3.44c0,0-3.67,7.55-14.31,6.07l.08-2.64h0Z" fill="#e6986e"/>
      <path d="m187.67,126.93c-.07.8.56,1.53,1.4,1.62.84.09,1.58-.5,1.64-1.3.07-.8-.56-1.53-1.4-1.62-.84-.09-1.58.5-1.64,1.3Z" fill="#2e353a"/>
      <path d="m187.1,122.09c.18.21,1.38-.6,3.03-.51,1.64.06,2.81.97,3.01.77.09-.09-.09-.45-.59-.86-.5-.41-1.36-.82-2.39-.86-1.03-.04-1.91.29-2.42.66-.53.36-.71.71-.63.81h0Z" fill="#2e353a"/>
      <path d="m201.53,128.04c-.07.8.56,1.53,1.4,1.62.84.09,1.58-.5,1.64-1.3.07-.8-.56-1.53-1.4-1.62-.84-.09-1.58.5-1.64,1.3Z" fill="#2e353a"/>
      <path d="m202.86,122.62c.18.21,1.38-.6,3.03-.51,1.64.06,2.81.97,3.01.77.09-.09-.08-.45-.59-.86-.5-.41-1.36-.82-2.39-.86-1.03-.04-1.91.29-2.42.66-.52.36-.71.71-.63.81h0Z" fill="#2e353a"/>
      <path d="m196.85,134.56c0-.1-1-.32-2.65-.61-.42-.06-.81-.17-.87-.46-.09-.31.12-.75.34-1.23.44-1,.91-2.05,1.4-3.14,1.95-4.47,3.38-8.16,3.19-8.24-.19-.08-1.91,3.49-3.85,7.96-.47,1.11-.92,2.15-1.34,3.16-.19.47-.48,1-.29,1.63.1.32.39.56.67.65.26.1.5.11.7.14,1.66.17,2.7.23,2.71.14h0Z" fill="#2e353a"/>
      <path d="m201.65,135.93c-.26-.03-.35,1.76-1.95,2.96-1.59,1.19-3.49.91-3.51,1.16-.03.11.41.37,1.21.43.78.07,1.95-.14,2.93-.86.97-.73,1.42-1.75,1.52-2.49.11-.74-.08-1.19-.2-1.19h0Z" fill="#2e353a"/>
      <path d="m203.07,117.92c.18.44,1.62.12,3.33.24,1.72.07,3.14.54,3.34.12.09-.2-.19-.61-.77-1-.58-.39-1.49-.74-2.53-.79-1.03-.05-1.96.2-2.56.53-.61.33-.9.7-.82.91h0Z" fill="#2e353a"/>
      <path d="m187.7,117.59c.23.41,1.42.17,2.77.33,1.36.11,2.47.58,2.78.23.14-.18,0-.57-.45-.99-.45-.41-1.23-.81-2.17-.9-.93-.09-1.78.14-2.3.46-.53.32-.73.69-.64.88h0Z" fill="#2e353a"/>
      <path d="m186.46,111.33s3.15-6.57,6.46-7.98c4-1.7,5.49,2.67,9.27,1.81,3.78-.86,7.61-2.51,11.29.57,4.02,3.36,1.96,5.48,1.99,10.25.12,19.32,3.38,24.94,4.82,15.91.16-.99,2.96-1.64,3.56-5.82.79-5.42,1.32-12.03.29-15.96-.87-3.31-2.61-5.65-5.83-8.29-5.07-4.17-12.3-4.6-17.22-4.35-4.93.25-14.66,5.45-14.62,13.87h0Z" fill="#2e353a"/>
      <path d="m219.61,131.56c.15-1.65,1.63-2.89,3.28-2.65,1.99.28,4.16,1.53,3.83,5.65-.59,7.31-7.81,5.22-7.8,5,0-.15.43-4.94.7-8.01h0Z" fill="#eebd9c"/>
      <path d="m220.72,136.94s.12.1.32.22c.21.12.56.21.95.1.79-.23,1.55-1.4,1.68-2.71.07-.67-.02-1.31-.22-1.85-.18-.55-.5-.95-.88-1.06-.38-.12-.68.09-.78.28-.12.2-.08.34-.12.35-.02.02-.15-.14-.07-.43.04-.15.14-.31.32-.43.19-.13.45-.18.71-.13.56.09,1.03.65,1.24,1.24.24.6.36,1.33.27,2.08-.17,1.47-1.03,2.79-2.11,3.01-.53.1-.94-.1-1.15-.28-.22-.2-.23-.36-.22-.37h.03Z" fill="#e6986e"/>
      <path d="m220.15,117.36c-.98.61-2.02,1.22-3.17,1.28-1.16.06-2.43-.67-2.56-1.81-.06-.52.09-1.1-.23-1.51-.38-.49-1.13-.38-1.74-.34-2.14.13-4.25-1.49-4.69-3.58-.58.78-1.85.69-2.64.12-.79-.57-1.28-1.46-1.89-2.23-.61-.76-1.48-1.47-2.46-1.38-.55.05-1.07.35-1.61.27-.96-.13-1.37-1.28-1.47-2.24-.1-.96-.16-2.09-.95-2.64-.73-.52-1.72-.28-2.61-.2-.89.09-2.03-.18-2.21-1.05-.1-.46.12-.93.39-1.31,1.22-1.74,3.75-2.42,5.69-1.53.83-2.39,3.19-4.16,5.71-4.31,2.53-.15,5.06,1.35,6.17,3.62,1.62-1.33,3.9-1.81,5.91-1.24,2.02.56,3.71,2.15,4.41,4.13,1.8-.38,3.8.4,4.86,1.92,1.06,1.51,1.12,3.66.14,5.22,1.28.81,2.35,2.17,2.3,3.69-.05,1.52-1.6,2.96-3.03,2.49.54,1.2-.02,2.79-1.19,3.4-1.17.61-2.78.14-3.46-1" fill="#2e353a"/>
      <path d="m224.98,114.75s.11.63-.53,1.39c-.31.36-.83.72-1.51.8-.67.08-1.47-.12-2.06-.7l.31-.03c-.39.62-.9,1.23-1.55,1.75-.42.33-.87.62-1.37.76-.49.17-1.04.16-1.48.07-.92-.15-1.71-.69-2.06-1.31-.36-.62-.46-1.17-.52-1.56-.06-.38-.05-.59-.03-.6.03,0,.09.2.19.56.11.35.25.89.61,1.43.65,1.09,2.88,1.73,4.4.31.61-.49,1.1-1.07,1.48-1.64l.14-.21.18.18c.48.49,1.17.7,1.74.65.59-.04,1.05-.33,1.36-.64.62-.64.65-1.23.7-1.21h0Z" fill="#4d5a64"/>
      <path d="m100.71,257.37l-1.88,23.74s-24.59,5.58-25.36,9.93l45.73,5.78,4.45-36.87-22.93-2.59h0Z" fill="#4d5a64"/>
      <path d="m112.93,280.8c.87.35,1.37,1.43,1.06,2.3-.31.88-1.4,1.4-2.28,1.07-.87-.33-1.52-1.61-1.11-2.45.41-.84,1.72-1.38,2.49-.85" fill="#dedede"/>
      <path d="m119.19,296.82l.35-2.94-44.49-4.72s-1.57.73-1.85,2.1l45.98,5.56h0Z" fill="#2e353a"/>
      <path d="m98.39,281.21c-.02.22,1.1.46,2.12,1.31,1.05.83,1.51,1.87,1.72,1.8.22-.02.03-1.41-1.23-2.42-1.25-1.03-2.65-.91-2.62-.7h0Z" fill="#2e353a"/>
      <path d="m93.3,282.66c-.08.22.86.72,1.52,1.75.69,1.03.76,2.07.99,2.09.21.06.52-1.24-.32-2.53-.83-1.29-2.14-1.54-2.17-1.32h0Z" fill="#2e353a"/>
      <path d="m89.88,288.14c.2.07.65-1.02.21-2.32-.43-1.3-1.44-1.92-1.56-1.74-.15.17.46.91.8,1.99.37,1.07.32,2.03.55,2.08h0Z" fill="#2e353a"/>
      <path d="m99.42,275.8c.07.21,1.15.03,2.41.25,1.27.2,2.21.75,2.35.57.15-.15-.72-1.1-2.22-1.35-1.49-.26-2.63.33-2.55.52h0Z" fill="#2e353a"/>
      <path d="m99.19,270.62c0,.09.86.33,2.32.25.72-.04,1.59-.18,2.51-.46.46-.15.94-.32,1.41-.55.23-.11.5-.22.76-.46.27-.2.49-.79.24-1.18-.2-.38-.6-.59-.93-.63-.34-.05-.63,0-.88.02-.53.07-1.03.18-1.5.32-.93.3-1.7.73-2.3,1.15-1.18.87-1.65,1.68-1.58,1.72.1.09.69-.56,1.88-1.25.59-.34,1.33-.69,2.2-.93.43-.12.89-.2,1.38-.25.51-.07.92-.03,1.02.2.04.09.04.12-.08.25-.12.12-.33.23-.56.34-.44.21-.88.4-1.3.56-.85.3-1.65.49-2.34.6-1.37.22-2.24.18-2.25.3v-.02Z" fill="#2e353a"/>
      <path d="m194.08,237.01s-55.56-40.41-66.95-45.99c-4.52-2.22-8.7-2.09-12.22-1.01-.73.23-1.46.5-2.19.83-6.73,3.01-11.21,9.53-12.16,16.83l-9.01,69.34,32.82,3.78,8.3-44.76,27.66,31.05,31.18.09,2.56-30.15h0Z" fill="#2e353a"/>
      <path d="m125.63,218.16s.72.79,1.65,2.24c.93,1.45,2.09,3.53,3.1,5.96,1.02,2.43,1.69,4.72,2.07,6.4.38,1.68.5,2.74.44,2.75-.08.02-.32-1.02-.79-2.66-.47-1.64-1.18-3.89-2.19-6.29-1.01-2.4-2.09-4.49-2.95-5.98-.84-1.49-1.41-2.39-1.34-2.43h0Z" fill="#4d5a64"/>
      <path d="m92.62,330.51l.8,23.8s-23.8,8.32-24.08,12.74l46.09.59.26-37.14-23.07.02h0Z" fill="#4d5a64"/>
      <path d="m107.41,352.42c.9.25,1.52,1.26,1.31,2.17-.22.91-1.23,1.55-2.14,1.32-.9-.23-1.68-1.43-1.37-2.31.31-.88,1.56-1.57,2.38-1.13" fill="#dedede"/>
      <path d="m115.44,367.63l.02-2.96-44.74.33s-1.47.9-1.6,2.29l46.31.34h0Z" fill="#2e353a"/>
      <path d="m93.01,354.46c0,.22,1.15.33,2.26,1.07,1.14.71,1.71,1.69,1.92,1.6.21-.04-.13-1.4-1.5-2.27-1.36-.87-2.73-.61-2.68-.4h0Z" fill="#2e353a"/>
      <path d="m88.13,356.47c-.05.23.93.61,1.7,1.58.8.94.99,1.98,1.21,1.97.22.04.37-1.29-.61-2.48-.97-1.18-2.31-1.28-2.31-1.07h0Z" fill="#2e353a"/>
      <path d="m85.35,362.3c.21.05.53-1.09-.06-2.33-.57-1.25-1.64-1.74-1.74-1.56-.13.19.56.85,1.02,1.89.49,1.02.55,1.98.77,2h0Z" fill="#2e353a"/>
      <path d="m93.43,348.97c.1.2,1.14-.11,2.42,0,1.28.06,2.28.5,2.41.3.13-.17-.84-1.01-2.36-1.1-1.52-.1-2.58.63-2.47.8Z" fill="#2e353a"/>
      <path d="m92.61,343.85c0,.1.89.23,2.33,0,.71-.12,1.56-.35,2.44-.74.44-.2.89-.43,1.34-.71.22-.14.47-.27.7-.55.25-.24.4-.84.11-1.2-.23-.36-.66-.51-1-.52-.34,0-.62.06-.87.12-.52.13-1.01.29-1.45.49-.89.4-1.62.91-2.15,1.41-1.08,1-1.45,1.85-1.37,1.89.11.08.63-.64,1.73-1.46.55-.41,1.25-.83,2.09-1.16.42-.17.86-.3,1.34-.41.49-.13.91-.13,1.04.09.05.09.05.12-.05.26-.11.14-.3.26-.52.4-.41.26-.82.5-1.23.71-.81.4-1.59.67-2.25.86-1.33.37-2.21.43-2.21.55v-.02Z" fill="#2e353a"/>
      <path d="m184.67,255.04l-68.92,2.74-8.69.97c-3.23.36-6.4,1.25-9.27,2.79-5.99,3.22-8.25,7.51-9.34,15.97l-.25,69.3,30.27.65.1-57.55s82.82,6.57,92.07,4.86c9.25-1.7,15.28-17.3,15.28-17.3l-41.25-22.44h0Z" fill="#2e353a"/>
      <path d="m184.67,255.04s.24.12.71.36c.48.25,1.18.63,2.1,1.12,1.86,1,4.6,2.48,8.14,4.38,7.11,3.85,17.43,9.43,30.37,16.43l.13.07-.05.13c-1.38,3.37-3.17,6.76-5.52,10-1.17,1.61-2.55,3.15-4.14,4.5-1.6,1.32-3.48,2.5-5.65,2.92-4.34.52-8.79.25-13.4.18-4.61-.15-9.37-.36-14.26-.61-19.57-1.03-41.31-2.56-64.53-4.35l.26-.24c-.03,16-.05,32.97-.08,50.44,0,2.39,0,4.76,0,7.12v.27h-.26c-10.31-.23-20.42-.44-30.27-.66h-.24v-.25c.1-24.96.2-48.34.28-69.3v-.03c.46-3.41,1.13-6.81,2.73-9.77,1.58-2.99,4.3-5.11,7.11-6.55,2.84-1.46,5.89-2.26,8.9-2.61,3-.33,5.91-.65,8.75-.97,21.28-.81,38.51-1.47,50.44-1.92,5.94-.21,10.56-.38,13.72-.5,1.56-.05,2.75-.09,3.56-.12.8-.02,1.21-.02,1.21-.02,0,0-.42.03-1.22.08-.81.04-2.01.1-3.57.17-3.15.14-7.77.33-13.73.6-11.91.5-29.13,1.2-50.4,2.09h0c-2.84.32-5.76.65-8.75.99-2.97.34-5.97,1.14-8.76,2.58-2.77,1.43-5.39,3.48-6.92,6.39-1.56,2.88-2.21,6.24-2.67,9.62v-.03c-.07,20.97-.14,44.35-.23,69.3l-.24-.25c9.85.22,19.96.43,30.27.65l-.26.25c0-2.36,0-4.74,0-7.13.03-17.46.07-34.43.1-50.43v-.26l.26.02c23.22,1.8,44.96,3.36,64.51,4.4,4.89.27,9.64.48,14.25.64,4.59.09,9.09.36,13.32-.14,2.09-.39,3.93-1.53,5.49-2.82,1.57-1.31,2.93-2.83,4.09-4.43,2.34-3.19,4.14-6.57,5.51-9.9l.07.2c-12.89-7.05-23.18-12.68-30.26-16.55-3.52-1.94-6.26-3.44-8.11-4.45-.91-.51-1.62-.9-2.09-1.16-.47-.27-.7-.41-.7-.41l.03-.02Z" fill="#4d5a64"/>
      <path d="m112.61,280.93c.08-.1,1.99,1.57,3.68,4.15,1.7,2.58,2.47,4.99,2.35,5.03-.15.06-1.11-2.22-2.77-4.75-1.65-2.54-3.37-4.33-3.26-4.44h0Z" fill="#4d5a64"/>
      <path d="m219.1,159.77s19.4,5.54,19.51,21.83c.07,10.16-1.91,58.94-3.02,76.73-1,16.09-6.4,30.81-14.9,34.32-8.5,3.52-23.87,2.16-23.87,2.16,0,0-23.26-17.71-25.29-39.01l-8.95-.19s5.21-5.77,6.12-9.97c.91-4.2,19.85-83.31,19.85-83.31l4.76-1.19s.26,8.07,7.27,6.53c9.76-2.14,18.5-7.91,18.5-7.91h0Z" fill="#e1be46"/>
      <g fill="none" opacity=".3">
        <path d="m168.71,245.64s19.39,9.74,26.27,11.46c6.63,1.67,8.25.19,11.24-3.59,2.98-3.78,6.11-8.85,6.11-8.85l5.05,2.74,11.06-41.69-24.15,15.93-9.15,21.72-24.78-5.93-1.64,8.19h0Z"/>
      </g>
      <path d="m150.58,214.12s-4.14-4.22-6.91-4.75c-1.27-.24-7.24-.35-7.24-.35l-4.68,2.66,2.95,2.09c2.09-.41,3.27-1.01,3.27-1.01l2.77.1,9.84,1.24h0Z" fill="#eebd9c"/>
      <path d="m139.13,214.29l-9.55-7.56c-.33-.26-.75-.41-1.18-.4l-13.24.15c-.54,0-.98.43-1,.96-.02.52.06,1.13.45,1.44.76.62,20.26,16.41,20.26,16.41l16.1-1.35-11.85-9.65h0Z" fill="#dedede"/>
      <path d="m144.23,211.89l-8.67,2.77-12.39,1.48s-.13,2.51,2.4,2.83c1.49.2,4.09.43,4.09.43,0,0,.58,2.28,2.49,2.83,0,0,.8,1.62,1.82,2.24.12.08.24.14.37.18,1.18.37,3.48,3.64,5.05,4.11.78.23,11.36,2.65,11.36,2.65l5.43,2.12-.27-12.76-5.59-7-6.08-1.88h0Z" fill="#eebd9c"/>
      <path d="m141.54,218.86s-.69.13-1.78.32c-1.1.2-2.63.4-4.34.48-1.7.08-3.25,0-4.36-.1-1.12-.1-1.8-.22-1.8-.18,0,.02.17.06.47.13.3.07.75.15,1.31.22,1.12.15,2.67.24,4.39.17,1.71-.08,3.26-.3,4.36-.55.55-.12.99-.24,1.29-.32.3-.09.47-.15.46-.17h0Z" fill="#e6986e"/>
      <path d="m139.81,222.34s-.04.32.07.85c.07.25.18.58.44.84.26.27.69.41,1.11.39.42,0,.8-.15,1.12-.29.31-.15.58-.31.81-.43.45-.25.75-.35.74-.38,0-.03-.34.02-.82.23-.48.2-1.1.62-1.86.65-.37.02-.72-.1-.95-.31-.23-.22-.35-.5-.43-.73-.15-.49-.2-.81-.23-.8h0Z" fill="#e6986e"/>
      <path d="m133.43,223.06s.35.14.93.25c.59.12,1.4.25,2.31.33.91.08,1.73.1,2.34.08.6-.02.97-.06.97-.09,0-.07-1.48-.06-3.28-.23-1.8-.16-3.25-.43-3.27-.36h0Z" fill="#e6986e"/>
      <path d="m139.88,226.76s.54.5,1.4.65c.86.16,1.56-.07,1.54-.13,0-.07-.69.05-1.5-.11-.81-.14-1.41-.48-1.44-.42h0Z" fill="#e6986e"/>
      <path d="m136.78,226.54c0,.07.4.19.92.26.52.08.95.1.96.03,0-.07-.4-.19-.92-.26-.52-.08-.95-.1-.96-.03Z" fill="#e6986e"/>
      <path d="m135.56,214.66c.03.09,1.85-.46,4.05-1.26,1.11-.4,2.09-.78,2.8-1.09.7-.3,1.14-.53,1.12-.56,0-.03-.46.14-1.17.4-.79.29-1.75.64-2.82,1.03-1.06.39-2.03.74-2.82,1.03-.72.27-1.17.42-1.16.45h0Z" fill="#e6986e"/>
      <path d="m114.74,207.65h.24c.19,0,.42-.02.7-.04.62-.03,1.51-.09,2.6-.13,2.19-.09,5.24-.13,8.59.04.83.05,1.67.03,2.32.45.32.2.62.46.91.7.29.24.58.48.86.71,1.12.92,2.12,1.75,2.99,2.46.83.68,1.52,1.23,2.03,1.64.23.18.41.32.56.44.13.1.2.15.21.14,0,0-.06-.07-.18-.18-.14-.13-.31-.28-.53-.47-.49-.42-1.16-1-1.98-1.69-.85-.71-1.85-1.56-2.96-2.5-.27-.23-.57-.47-.85-.71-.29-.24-.58-.51-.93-.72-.35-.23-.76-.34-1.18-.4-.42-.06-.83-.07-1.25-.09-3.36-.17-6.41-.1-8.61.03-1.1.07-1.99.14-2.6.2-.28.03-.52.06-.7.08-.16.02-.24.04-.24.05h0Z" fill="#2e353a"/>
      <path d="m122.87,209.43c.11-.18.39-.24.66-.2h-.03s.07,0,.1.02c0,0,.03,0,.04,0,.2.06.38.17.49.33.15.21.15.52-.03.69-.1.1-.24.14-.38.15-.27.03-.56-.05-.75-.24-.19-.2-.24-.52-.1-.75h0Z" fill="#fff"/>
      <path d="m152.16,217.48l41.28,7.85,13.61-41.13,23.58,10.76s-21.56,54.83-27.54,55.94c-5.98,1.11-51.84-19.28-51.84-19.28l.89-14.13h0Z" fill="#eebd9c"/>
      <path d="m221.7,164.69s-9.95-4.42-16.37,13.73c-3.39,9.55-14.74,41.48-14.74,41.48.71.31,31.26,16.77,31.26,16.77,0,0,12-35.28,14.34-45.3l-14.49-26.68Z" fill="#e1be46"/>
      <path d="m188.96,162.23s-3.52.76-5.74,2.93c-.79.77-26.42,29.53-26.17,30.12.25.6,21.1,18.79,21.1,18.79l10.81-51.84h0Z" fill="#e1be46"/>
      <path d="m183.71,177.19s0,.16-.05.46c-.06.35-.14.77-.23,1.28-.23,1.19-.55,2.78-.93,4.71-.84,4.04-1.98,9.49-3.23,15.5-1.28,6.01-2.45,11.44-3.32,15.48-.42,1.92-.76,3.49-1.02,4.69-.24,1.11-.37,1.71-.41,1.71-.02,0,0-.16.03-.46.04-.29.09-.73.19-1.29.19-1.12.48-2.73.86-4.72.76-3.97,1.89-9.47,3.17-15.51,1.28-6.05,2.48-11.51,3.38-15.47.44-1.91.81-3.49,1.09-4.67.13-.5.24-.92.32-1.26.08-.28.13-.44.15-.43v-.02Z" fill="#2e353a"/>
      <path d="m236.17,191.37s0,.08-.04.23c-.04.17-.09.38-.15.66-.13.58-.33,1.43-.64,2.54-.58,2.2-1.51,5.4-2.73,9.42-2.46,8.03-6.11,19.33-10.56,32.54l-.09.26-.24-.14c-7.56-4.04-15.85-8.49-24.53-13.14-2.3-1.23-4.57-2.46-6.72-3.6l-.21-.12.07-.21c3.2-8.97,6.22-17.45,8.96-25.11,1.37-3.83,2.67-7.46,3.88-10.85,1.22-3.38,2.28-6.56,3.57-9.33,1.24-2.79,2.86-5.09,4.55-6.82,1.7-1.73,3.58-2.78,5.24-3.21,1.65-.44,3.01-.34,3.87-.19.44.07.76.19.98.25.22.08.31.13.31.14,0,0-.11-.03-.33-.09-.22-.06-.54-.15-.98-.21-.86-.13-2.19-.2-3.81.26-1.61.45-3.44,1.5-5.09,3.22-1.64,1.72-3.21,4-4.43,6.78-1.25,2.75-2.29,5.93-3.49,9.32-1.19,3.4-2.48,7.03-3.84,10.87-2.72,7.67-5.73,16.15-8.91,25.13l-.14-.31c2.14,1.16,4.42,2.37,6.73,3.6,8.68,4.67,16.98,9.12,24.54,13.19l-.33.14c4.48-13.19,8.2-24.47,10.74-32.47,1.26-4,2.24-7.19,2.86-9.37.32-1.09.55-1.94.7-2.51.08-.26.14-.48.19-.65.04-.15.07-.22.08-.22v-.02Z" fill="#2e353a"/>
      <path d="m274.81,293.02H115.44v125.71h159.37v-125.71Z" fill="#5e5e5e"/>
      <g fill="none" opacity=".3">
        <path d="m214.76,307.8v-5.85h9.66v5.85c0,2.51-1.85,4.58-4.22,4.89v5.1h2.14c.75,0,1.37.44,1.37.98h-8.25c0-.54.62-.98,1.37-.98h2.14v-5.1c-2.37-.31-4.22-2.39-4.22-4.89Z" fill-rule="evenodd"/>
        <path d="m196.27,307.39c.75-3.12,3.52-5.46,6.8-5.46s6.05,2.34,6.8,5.46h-6.16v9.18c.06.71.65,1.28,1.36,1.28s1.3-.57,1.36-1.28h1.31c-.06,1.46-1.23,2.62-2.67,2.62s-2.61-1.16-2.67-2.62v-9.18h-6.15,0Z" fill-rule="evenodd"/>
      </g>
      <g fill="none" opacity=".3">
        <path d="m235.27,418.73h39.53v-125.71h-39.53v125.71Z"/>
      </g>
      <path d="m235.2,417.48c-.22,0-.4-27.88-.4-62.26s.18-62.26.4-62.26.4,27.87.4,62.26-.18,62.26-.4,62.26Z" fill="#2e353a"/>
      <path d="m261.29,389.75h-12.22v14.13h12.22v-14.13Z" fill="#fff"/>
      <g fill="none" opacity=".3">
        <path d="m182.16,293.35h-18.1v26.82h18.1v-26.82Z"/>
      </g>
      <g fill="none" opacity=".3">
        <path d="m182.16,391.54h-18.1v26.82h18.1v-26.82Z"/>
      </g>
      <path d="m116.59,293.09c0,.19,35.34.33,78.93.33s78.94-.15,78.94-.33-35.34-.33-78.94-.33-78.93.15-78.93.33h0Z" fill="#2e353a"/>
      <path d="m188.65,363.53h-26.79c-.27,0-.49-.21-.49-.49s.22-.49.49-.49h26.38l3.03-17.51h-31.93c-.27,0-.49-.21-.49-.49s.22-.49.49-.49h32.52c.15,0,.28.07.37.18.1.11.14.25.11.4l-3.2,18.48c-.04.23-.24.4-.48.4h0Z" fill="#dedede"/>
      <path d="m187.76,370l-25.52-.09c-.24,0-.45-.19-.48-.43l-3.68-29.35h-7.76c-.27,0-.49-.21-.49-.49s.22-.49.49-.49h8.19c.24,0,.45.19.49.43l3.68,29.36,25.09.09c.27,0,.49.22.49.49s-.22.49-.49.49h0Z" fill="#dedede"/>
      <path d="m166.4,379.28c-2.02,0-3.67-1.67-3.67-3.74s1.64-3.74,3.67-3.74,3.66,1.67,3.66,3.74-1.64,3.74-3.66,3.74Zm0-6.5c-1.48,0-2.69,1.23-2.69,2.76s1.2,2.76,2.69,2.76,2.68-1.23,2.68-2.76-1.2-2.76-2.68-2.76Z" fill="#dedede"/>
      <path d="m184.02,379.28c-2.02,0-3.67-1.67-3.67-3.74s1.64-3.74,3.67-3.74,3.66,1.67,3.66,3.74-1.64,3.74-3.66,3.74Zm0-6.5c-1.48,0-2.69,1.23-2.69,2.76s1.2,2.76,2.69,2.76,2.68-1.23,2.68-2.76-1.2-2.76-2.68-2.76Z" fill="#dedede"/>
      <path d="m170.12,363.53c-.25,0-.47-.19-.49-.46l-1.09-17.89c-.02-.27.19-.5.46-.52.27-.02.5.19.52.46l1.09,17.89c.02.27-.19.5-.46.52h-.03Z" fill="#dedede"/>
      <path d="m179.92,363.53h-.03c-.27,0-.48-.24-.46-.52l.98-17.89c0-.27.24-.49.52-.46.27,0,.48.24.46.52l-.98,17.89c0,.26-.23.46-.49.46Z" fill="#dedede"/>
      <path d="m160.31,354.58c-.26,0-.49-.21-.49-.49s.22-.49.49-.49l29.93-.3c.26,0,.49.21.49.49s-.22.49-.49.49l-29.93.3Z" fill="#dedede"/>
      <path d="m118.3,367.74H50.84v50.99h67.46v-50.99Z" fill="#5ca2dd"/>
      <g fill="none" opacity=".3">
        <path d="m92.88,373.73v-2.38h4.09v2.38c0,1.02-.78,1.86-1.78,1.99v2.06h.91c.32,0,.58.18.58.4h-3.49c0-.21.26-.4.58-.4h.91v-2.06c-1-.13-1.78-.97-1.78-1.99h0Z" fill-rule="evenodd"/>
        <path d="m85.06,373.56c.32-1.27,1.5-2.21,2.88-2.21s2.56.95,2.88,2.21h-2.6v3.73c.02.29.27.52.58.52s.55-.22.58-.52h.56c-.02.59-.52,1.07-1.14,1.07s-1.11-.47-1.14-1.07v-3.73h-2.6,0Z" fill-rule="evenodd"/>
      </g>
      <g fill="none" opacity=".3">
        <path d="m101.58,418.73h16.73v-50.99h-16.73v50.99Z"/>
      </g>
      <path d="m101.54,418.22c-.1,0-.17-11.31-.17-25.26s.08-25.26.17-25.26.17,11.31.17,25.26-.08,25.26-.17,25.26Z" fill="#2e353a"/>
      <path d="m112.58,406.98h-5.17v5.73h5.17v-5.73Z" fill="#fff"/>
      <g fill="none" opacity=".3">
        <path d="m79.09,367.86h-7.67v10.89h7.67v-10.89Z"/>
      </g>
      <g fill="none" opacity=".3">
        <path d="m79.09,407.7h-7.67v10.89h7.67v-10.89Z"/>
      </g>
      <path d="m51.33,367.77c0,.08,14.96.14,33.41.14s33.42-.06,33.42-.14-14.96-.14-33.42-.14-33.41.06-33.41.14Z" fill="#2e353a"/>
      <path d="m81.83,396.63h-11.35c-.27,0-.49-.21-.49-.49s.22-.49.49-.49h10.94l1.17-6.52h-13.18c-.27,0-.49-.21-.49-.49s.22-.49.49-.49h13.76c.15,0,.28.07.37.18.09.11.13.25.11.4l-1.35,7.5c-.04.24-.24.4-.48.4h0Z" fill="#dedede"/>
      <path d="m81.46,399.25l-10.81-.04c-.24,0-.45-.19-.48-.43l-1.53-11.66h-3.04c-.27,0-.49-.21-.49-.49s.22-.49.49-.49h3.47c.24,0,.45.19.49.43l1.53,11.66,10.38.04c.27,0,.49.22.49.49s-.22.49-.49.49Z" fill="#dedede"/>
      <path d="m72.41,403.02c-1.01,0-1.83-.81-1.83-1.81s.82-1.81,1.83-1.81,1.83.81,1.83,1.81-.82,1.81-1.83,1.81Zm0-2.63c-.47,0-.85.37-.85.83s.38.83.85.83.85-.37.85-.83-.38-.83-.85-.83Z" fill="#dedede"/>
      <path d="m79.87,403.02c-1.01,0-1.83-.81-1.83-1.81s.82-1.81,1.83-1.81,1.83.81,1.83,1.81-.82,1.81-1.83,1.81Zm0-2.63c-.47,0-.85.37-.85.83s.38.83.85.83.85-.37.85-.83-.38-.83-.85-.83Z" fill="#dedede"/>
      <path d="m73.99,396.63c-.25,0-.47-.19-.49-.46l-.46-7.26c-.02-.27.19-.5.46-.52.25-.03.5.19.52.46l.46,7.26c.02.27-.19.5-.46.52h-.03Z" fill="#dedede"/>
      <path d="m78.14,396.63h-.03c-.27-.02-.48-.24-.46-.52l.41-7.26c.02-.27.25-.49.52-.46.27.02.48.24.46.52l-.41,7.26c-.02.26-.23.46-.49.46Z" fill="#dedede"/>
      <path d="m69.84,393c-.26,0-.49-.21-.49-.49s.22-.49.49-.49l12.67-.12c.26,0,.49.22.49.49s-.22.49-.49.49l-12.67.12Z" fill="#dedede"/>
      <path d="m590.83,360.49l-16.34-6.59-12.48-32.59-16.63,8.57s1.61,3.22,5.04,11.18c1.33,3.07,5.73,11.65,7.52,15.82,3.38,7.88,11.02,13.09,19.6,13.31l15.33.4-2.05-10.1h0Z" fill="#9e7362"/>
      <path d="m598.95,354.19l2.47-2.6c.48-.3,1.03-.46,1.59-.44l7.82.23c1.48.15,2.81.95,3.61,2.19l2.84,4.84s1.91,3.31,1.67,4.11c-.37,1.21-1.65.97-1.65.97,0,0-.27,1.53-.78,1.84-.85.52-1.9.12-1.9.12-.28.59-.89.98-1.54.93-.13,0-.26-.03-.4-.08-.93-.28-1.35-2.07-1.35-2.07l-3.96-.73s-5.7,3.81-7.69,6.3c-2,2.5-7.26.59-7.26.59l-1.97-9.4,8.51-6.8h0Z" fill="#9e7362"/>
      <path d="m604.71,355.3c0,.06.63.18,1.71.28,1.08.12,2.61.17,4.32.38l-.19-.14c.28.61.63,1.24,1.02,1.87,1.21,1.94,2.64,3.46,3.76,4.45,1.12.99,1.93,1.45,1.96,1.4.05-.06-.69-.62-1.72-1.65s-2.4-2.56-3.58-4.46c-.38-.61-.72-1.22-1-1.81l-.06-.12h-.13c-1.76-.21-3.29-.19-4.37-.22-1.08-.02-1.72-.04-1.73.02h0Z" fill="#65463c"/>
      <path d="m604.53,359.03s.53.25,1.47.39c.94.14,2.31.18,3.83-.14l-.27-.16c.16.46.34.94.57,1.42.82,1.73,1.99,3.05,2.94,3.86.95.81,1.65,1.14,1.67,1.1.04-.07-.58-.5-1.44-1.36-.86-.85-1.94-2.15-2.73-3.82-.21-.46-.4-.92-.56-1.36l-.07-.2-.2.05c-2.93.66-5.18.07-5.2.21h0Z" fill="#65463c"/>
      <path d="m594.6,360.97c2.32-1.08,4.65-2.16,6.97-3.24.97-.45,1.97-.91,3.03-.9,1.14,0,2.21.55,3.23,1.07,1.25.65,2.51,1.29,3.75,1.94.2.11.42.24.5.45.1.28-.11.58-.32.79-1.87,1.9-5.24,2.04-7.26.29-.6,1.64-1.22,3.31-2.35,4.64-1.12,1.33-2.88,2.27-4.59,1.96" fill="#9e7362"/>
      <path d="m597.56,367.98s.06.03.19.06c.13.03.31.06.57.07.5,0,1.25-.08,2.09-.51.84-.41,1.75-1.16,2.47-2.25.73-1.08,1.28-2.43,1.83-3.89l-.35.09c1.03.91,2.53,1.39,4.06,1.27.76-.06,1.55-.26,2.26-.64.35-.2.69-.42,1.01-.7.15-.14.31-.26.45-.46.13-.18.27-.44.19-.76-.06-.25-.26-.42-.42-.52-.17-.1-.31-.17-.45-.25-.29-.15-.58-.3-.87-.45-.58-.29-1.14-.59-1.7-.88-1.12-.56-2.17-1.2-3.36-1.47-1.2-.3-2.38.08-3.31.5-.94.43-1.79.85-2.59,1.22-1.51.74-2.76,1.34-3.71,1.81-.87.44-1.35.7-1.33.73,0,.03.52-.17,1.41-.55.97-.43,2.24-.99,3.78-1.68.8-.36,1.67-.75,2.59-1.16.92-.39,1.98-.71,3.05-.43,1.08.24,2.11.88,3.24,1.45.56.29,1.12.59,1.69.88.28.15.58.3.87.45.29.15.61.3.62.45.06.18-.21.5-.5.73-.27.25-.59.45-.91.64-.66.34-1.37.53-2.07.59-1.41.12-2.79-.31-3.74-1.12l-.24-.2-.11.29c-.52,1.47-1.04,2.79-1.71,3.84-.67,1.06-1.51,1.79-2.29,2.22-1.61.88-2.75.53-2.73.62h.03Z" fill="#65463c"/>
      <path d="m503.9,269.68c-.06-5.24-.89-10.45-.68-15.68.19-5.23,1.58-10.68,5.23-14.43,3.65-3.75,9.98-5.18,14.25-2.15l.87,4.45c-1.68,20.18-1.45,40.69-3.13,60.86-.22,2.65-2.37,5.05-3.57,7.42-1.2,2.37-3.62,4.33-6.27,4.16-3.48-.21-5.76-3.74-6.83-7.04-3.92-11.99.3-24.98.16-37.6h0Z" fill="#2e353a"/>
      <path d="m516.48,242.55c.76-1.29,1.55-2.6,2.66-3.6,1.12-1,2.64-1.65,4.12-1.38.69.13,1.4.53,1.63,1.19.24.67-.26,1.56-.97,1.5l-.15.13c-1.57,1.39-3.16,2.74-4.78,4.06-.41.33-.83.68-1.33.82-.5.16-1.12.08-1.46-.31-.58-.66-.16-1.66.28-2.42h-.02Z" fill="#e0715f"/>
      <path d="m513.52,247.68c5.22-6.37,12.22-10.04,20.45-10.18,4.65-.08,6.57.89,9.92,1.79,3.35.9,6.36,2.7,8.36,5.53,2.37,3.37,4.37,7.14,4.81,11.23.46,4.2.14,8.31-.66,11.71-.97,4.11-3.8,10.41-6.27,13.83l-7.13.86c-5.92.2-11.94.39-17.7-.96-5.78-1.35-11.38-4.45-14.47-9.52-4.3-7.03-2.52-17.92,2.7-24.3h0Z" fill="#2e353a"/>
      <path d="m523.07,247.61l14.3-5.69,3.74.43c8.41.03,14.2,9.3,14.26,16.11.06,7.57-.17,16.8-1.36,22.38-2.42,11.21-11.98,12.15-11.98,12.15,0,0,.19,5.97.26,9.74l-21.9-1.58-1.1-49.7c.07-2.06,1.71-3.74,3.78-3.84h0Z" fill="#9e7362"/>
      <path d="m537.19,278.22c.08-.59.4-1.12.82-1.47.84-.72,2.06-.78,2.96-.17.9.62,1.41,1.89,1.24,3.06-.5.7-1.27,1.15-2.12,1.23-.14,0-.26.02-.4,0-.65-.02-1.3-.23-1.8-.72-.49-.48-.8-1.23-.7-1.96h0Z" fill="#65463c"/>
      <path d="m551.58,268.04c-.02.76-.68,1.39-1.48,1.39s-1.44-.63-1.42-1.39c.02-.76.68-1.39,1.48-1.39s1.44.63,1.43,1.39h0Z" fill="#2e353a"/>
      <path d="m552.81,262.25c-.19.18-1.24-.69-2.81-.77-1.56-.11-2.75.64-2.91.44-.08-.09.13-.42.64-.75.51-.33,1.37-.64,2.34-.59.97.06,1.77.46,2.22.85.46.39.61.75.51.82h0Z" fill="#2e353a"/>
      <path d="m542.78,274.49c0-.09.98-.21,2.56-.32.4-.02.78-.08.86-.34.11-.28-.03-.73-.2-1.19-.32-.99-.66-2.02-1.01-3.1-1.4-4.42-2.39-8.03-2.21-8.09.18-.06,1.46,3.48,2.86,7.89.33,1.09.66,2.12.96,3.11.13.46.35.99.12,1.58-.13.29-.43.49-.69.55-.26.07-.48.06-.69.06-1.59,0-2.56-.05-2.56-.14h0Z" fill="#2e353a"/>
      <path d="m542.04,292.98s-7.64.07-14.93-4.87c0,0,3.6,8.06,14.98,7.63l-.06-2.75h0Z" fill="#65463c"/>
      <path d="m538.13,275.32c.25,0,.17,1.69,1.55,2.98,1.38,1.28,3.2,1.19,3.2,1.43.02.11-.42.3-1.18.28-.75-.02-1.83-.31-2.67-1.1-.84-.78-1.18-1.79-1.19-2.49-.03-.72.19-1.13.3-1.11h0Z" fill="#2e353a"/>
      <path d="m552.27,256.78c-.28.36-1.47.05-2.87.09-1.4,0-2.59.34-2.87-.02-.13-.18.05-.54.55-.89.5-.35,1.34-.67,2.31-.68.97,0,1.81.27,2.31.62.51.34.68.71.57.88h0Z" fill="#2e353a"/>
      <path d="m534.54,267.65c-.04.76.58,1.43,1.37,1.49.8.06,1.48-.52,1.52-1.28.04-.76-.58-1.43-1.37-1.49-.8-.06-1.48.52-1.52,1.28Z" fill="#2e353a"/>
      <path d="m531.68,261.65c.18.2,1.29-.61,2.86-.57,1.57,0,2.69.83,2.87.65.09-.09-.09-.43-.59-.8-.49-.37-1.32-.74-2.29-.75-.97,0-1.8.33-2.27.7-.49.36-.66.71-.57.78h0Z" fill="#2e353a"/>
      <path d="m532.62,256.65c.3.36,1.52,0,2.97.02,1.45-.04,2.67.28,2.97-.08.13-.18-.06-.54-.59-.88-.52-.34-1.4-.64-2.4-.63-1,0-1.87.31-2.38.68-.52.35-.7.71-.56.89h0Z" fill="#2e353a"/>
      <path d="m521.24,270.46c.05-.84-.82-2.88-1.64-3.05-2.2-.47-6.22-.51-6.56,5.13-.47,7.7,7.36,6.6,7.39,6.37.02-.18.67-5.54.81-8.45Z" fill="#9e7362"/>
      <path d="m518.47,275.96s-.14.09-.37.18c-.22.09-.62.14-1.01-.04-.79-.35-1.4-1.68-1.35-3.07.02-.71.21-1.36.49-1.9.27-.55.65-.92,1.08-.97.41-.07.69.19.77.42.09.22.03.37.07.39.02.02.18-.12.13-.44-.02-.16-.1-.34-.27-.5-.18-.16-.44-.25-.74-.24-.6,0-1.16.52-1.48,1.11-.34.59-.57,1.33-.6,2.12-.05,1.56.66,3.05,1.75,3.44.53.18,1,.04,1.24-.13.25-.18.3-.34.27-.36h0Z" fill="#65463c"/>
      <path d="m519.27,267.42l1.96,2.04c8.46-8.1,24.98-28.36,24.06-27.16,0,0-5.79-2.38-12.08-1.31-6.28,1.07-18.22,4.22-18.03,11.64.19,7.42,4.09,14.8,4.09,14.8h0Z" fill="#2e353a"/>
      <path d="m508.07,265.72s.03-.16.12-.45c.09-.28.25-.71.53-1.21.54-1.02,1.56-2.39,3.22-3.62,1.64-1.27,3.91-2.31,6.49-3.12,2.58-.84,5.48-1.49,8.34-2.72,2.87-1.17,5.43-2.7,7.62-4.27,2.17-1.59,3.97-3.22,5.37-4.7,1.4-1.48,2.42-2.78,3.11-3.69.31-.43.57-.78.77-1.07.18-.24.27-.36.29-.36,0,0-.07.15-.23.4-.16.25-.39.64-.71,1.11-.66.94-1.65,2.28-3.02,3.79-1.39,1.51-3.18,3.19-5.37,4.81-2.19,1.6-4.78,3.14-7.67,4.34-2.89,1.24-5.81,1.88-8.38,2.7-2.58.79-4.81,1.78-6.43,3-1.66,1.18-2.68,2.5-3.25,3.48-.57.99-.73,1.6-.77,1.58l-.03.02Z" fill="#4d5a64"/>
      <path d="m510.31,266.93s-.08-.63.3-1.68c.36-1.05,1.27-2.47,2.9-3.63,1.61-1.21,3.91-1.95,6.43-2.53,2.54-.56,5.29-1.27,8-2.54,2.7-1.25,5.13-2.77,7.12-4.4,2.02-1.62,3.63-3.3,4.89-4.8,1.26-1.49,2.11-2.84,2.72-3.74.26-.44.48-.79.66-1.08.16-.24.23-.37.25-.36,0,0-.05.15-.19.4-.16.29-.35.67-.59,1.12-.57.94-1.39,2.31-2.64,3.84-1.23,1.54-2.85,3.25-4.87,4.9-2.01,1.67-4.46,3.21-7.2,4.48-2.73,1.27-5.55,2-8.08,2.54-2.53.56-4.77,1.25-6.35,2.4-1.61,1.11-2.52,2.46-2.92,3.46-.41,1.01-.39,1.63-.44,1.62h0Z" fill="#4d5a64"/>
      <path d="m519.53,280.47s-.66-.14-1.79-.44c-1.14-.31-2.74-1.01-4.32-2.41-1.6-1.38-3.01-3.53-4-6.13-1-2.61-1.6-5.67-1.68-8.89-.03-1.61.09-3.18.37-4.68.3-1.49.74-2.89,1.28-4.18,1.11-2.57,2.56-4.66,3.99-6.22,2.87-3.14,5.26-4.4,5.18-4.51,0-.02-.16.06-.43.23-.26.17-.67.39-1.16.73-.99.68-2.37,1.74-3.85,3.31-1.48,1.56-3.01,3.66-4.16,6.28-.56,1.31-1.02,2.74-1.34,4.27-.29,1.53-.42,3.14-.39,4.79.08,3.28.7,6.39,1.74,9.06,1.05,2.65,2.54,4.85,4.21,6.24,1.66,1.41,3.33,2.06,4.5,2.33.58.16,1.06.17,1.36.22.31.04.48.05.48.03h0Z" fill="#4d5a64"/>
      <path d="m509.72,375.3l45.59,6.62c17.12,4.85,35.16,6.27,54.03,4.63l-68.62,32.01-27.55.43s-8.39.03-9.86-7.32c-1.49-7.46-3.09-29.6-3.09-29.6,0,0,5.44-4.73,9.49-6.76h0Z" fill="#2e353a"/>
      <g fill="none" opacity=".3">
        <path d="m509.85,394.49c-.74,4.56-1.02,9.2-.8,13.81-2.82-3.04-4.1-7.44-3.38-11.52.4-2.25,1.34-4.73.16-6.69-.79-1.31-2.88-2.83-2.57-4.33,0,0,1.83,0,3.49-.07,1.33-.05,4.1-.14,4.1-.14-1.4,3.6-1.29,5.83-.74,9.06"/>
      </g>
      <path d="m542.22,300.85l-22.15-2.39-4.05,3.69,15.81,9.29,6.98,3.61,6.89-2.09,2.18-4.11-5.66-8.01Z" fill="#9e7362"/>
      <path d="m572.08,327.82s-6.94-13.32-8.66-16.24c-2.93-4.96-8.4-7.77-8.4-7.77l-12.8-2.96s1.33,6.41-6.64,6.85c-10.13.57-16.42-9.15-16.42-9.15,0,0-11.56,1.18-14.75,2.53-3.19,1.34-12.22,5.12-13.54,17.12l-3.09,19.6,24.42,1.86-.33,26.09,10.38,8.49s29.79,10.26,31.7,10.93c.9.32.68-12.34,2.81-23.19l4.02-9.76c1.61-3.91,2.61-8.05,2.85-12.27.16-2.78.08-4.87.08-4.87,0,0,6.26-2.15,8.39-7.25h0Z" fill="#5ca2dd"/>
      <path d="m552.84,374.92l-40.94-12.29.29-22.97-20.85-1.59s1.67,11.9,1.91,18.01c.35,8.78,4.57,21.05,7.4,23.65,2.83,2.6,53.27,5.43,53.27,5.43l-1.09-10.25h0Z" fill="#9e7362"/>
      <path d="m576.05,382.15c-.34.56-.98.89-1.62.78-.13-.02-.26-.06-.4-.12-.9-.36-.67-2.23-.67-2.23l-4.35-1.07s-6.02,3.26-8.25,5.55c-2.23,2.29-7.28-.1-7.28-.1l-1.08-9.54,8.69-6.72s-.53.4.14-.93c.67-1.33,3.18-.62,3.18-.62.45-.65,2.14-.76,2.14-.76l7.06,1.37c1.46.28,2.7,1.21,3.4,2.52l2.64,5s1.32,3.55,1.01,4.34c-.48,1.17-1.73.81-1.73.81,0,0-.53,2.23-1.12,2.26-.6.03-1.73-.56-1.73-.56h0Z" fill="#9e7362"/>
      <path d="m561.41,374.22c0,.08.96.06,2.48.24,1.51.19,3.59.62,5.73,1.54,1.07.45,2.05.98,2.9,1.52.82.55,1.69,1.02,1.92,1.67.12.31.03.63-.15.84-.17.21-.38.35-.58.41-.38.13-.62,0-.64.04-.02,0,.21.21.68.13.22-.04.5-.18.73-.42.23-.23.39-.67.25-1.11-.12-.43-.45-.77-.81-1.07-.37-.29-.75-.58-1.19-.85-.86-.57-1.85-1.12-2.95-1.58-2.18-.94-4.34-1.33-5.87-1.44-1.55-.11-2.51.03-2.51.08h0Z" fill="#65463c"/>
      <path d="m560.56,378.72c0,.14,2.91.23,6.45.73,3.55.47,6.38,1.14,6.41,1.01.02-.06-.68-.3-1.82-.6-1.14-.3-2.74-.63-4.53-.87-1.79-.24-3.42-.34-4.6-.36-1.18-.02-1.91.03-1.91.09h0Z" fill="#65463c"/>
      <path d="m576.03,381.96s.08-.26.15-.75c.07-.49.16-1.19.17-2.08,0-.44,0-.93-.09-1.46-.07-.53-.27-1.1-.58-1.61-.57-1.02-1.38-2.09-2.46-2.94-1.08-.83-2.15-1.56-3.27-1.99-1.11-.43-2.16-.6-3.04-.71-.88-.1-1.59-.14-2.08-.16-.49-.02-.76,0-.76.02,0,.07,1.08.19,2.8.45.86.15,1.88.34,2.93.77,1.04.42,2.1,1.14,3.14,1.95,1.04.81,1.8,1.8,2.38,2.8.62.95.67,2,.71,2.86.04,1.74-.09,2.83,0,2.84h.02Z" fill="#65463c"/>
      <path d="m566.74,368.24c0,.07,1.06.18,2.74.51,1.62.38,4.23.7,5.55,3.07,1.46,2.18,2.68,4.23,3.16,5.86.52,1.63.37,2.72.47,2.72.02,0,.09-.26.1-.75.02-.49-.03-1.2-.25-2.05-.42-1.72-1.63-3.84-3.09-6.04-.37-.55-.78-1.08-1.27-1.51-.49-.44-1.08-.71-1.62-.92-1.1-.4-2.12-.58-2.99-.71-1.72-.25-2.8-.25-2.8-.19h0Z" fill="#65463c"/>
      <path d="m562.43,383.67s.17-.09.45-.29c.32-.22.75-.51,1.26-.86,1.12-.74,2.77-1.77,4.93-2.86h-.1c1.3.33,2.76.71,4.35,1.11l-.14-.2c-.04.36-.05.72,0,1.09.05.36.13.76.42,1.1.15.17.37.27.57.31.19.07.4.1.62.09.42-.03.84-.21,1.14-.52.08-.08.15-.16.21-.25l.05-.07.02-.03v-.02h0c.06-.02-.51.14-.26.08l.14.07c.18.09.36.17.56.24.19.08.38.15.6.2.11.03.2.05.32.06.11,0,.23.03.41-.05.27-.16.37-.36.48-.55.11-.2.19-.39.26-.59.16-.4.27-.8.38-1.22l-.27.16c.57.15,1.25.06,1.68-.43.2-.22.36-.52.37-.86,0-.31-.04-.59-.09-.86-.22-1.11-.58-2.17-.97-3.27v-.03c-.45-.85-.93-1.75-1.41-2.67-.3-.57-.6-1.13-.89-1.69-.3-.54-.56-1.15-1-1.65-.42-.5-.94-.9-1.52-1.18-.57-.3-1.21-.41-1.79-.52-2.34-.45-4.57-.87-6.66-1.27h-.05c-.42.04-.81.11-1.21.21-.38.12-.78.25-1.08.64l.25-.06c-.74-.37-1.61-.44-2.3-.05-.7.38-1.06,1.07-1.27,1.71l.06-.09c-2.49,1.92-4.53,3.49-5.99,4.6-.68.53-1.21.95-1.62,1.27-.36.29-.56.46-.55.47s.21-.12.61-.39c.42-.3.98-.71,1.68-1.2,1.48-1.09,3.54-2.61,6.08-4.48l.04-.03.02-.06c.19-.57.55-1.19,1.12-1.49.56-.31,1.32-.24,1.94.07l.15.08.1-.14c.17-.22.52-.38.87-.48.35-.1.75-.17,1.12-.2h-.05c2.08.41,4.32.85,6.65,1.31.6.12,1.15.21,1.68.49.52.25.99.63,1.37,1.08.39.44.64,1.01.94,1.57.29.56.6,1.12.89,1.69.48.91.96,1.82,1.41,2.67v-.03c.37,1.07.72,2.14.95,3.19.05.26.1.53.09.76,0,.2-.11.41-.25.59-.28.34-.81.41-1.23.31l-.21-.05-.05.22c-.1.4-.21.8-.35,1.17-.14.35-.33.78-.54.92,0,0-.09.02-.18,0-.09,0-.18-.03-.27-.05-.19-.05-.36-.11-.54-.18-.18-.07-.35-.15-.53-.23l-.13-.06c.24-.07-.32.09-.27.08v.02l-.02.03-.04.05c-.05.07-.11.14-.17.19-.23.25-.56.39-.89.42-.17.02-.32,0-.48-.07-.18-.04-.28-.1-.39-.19-.38-.47-.38-1.25-.34-1.88v-.17l-.14-.04c-1.6-.37-3.06-.73-4.37-1.03h-.11c-2.16,1.14-3.8,2.23-4.89,3-.55.39-.96.72-1.23.93-.27.22-.4.34-.4.36l-.02-.05Z" fill="#65463c"/>
      <path d="m583.71,389.6s28.89-9.08,37.96-12.02c15.62-5.06,25.84.06,29.08,5.65,4.18,7.25-5.85,21.39-9.71,24.64-11.45,9.63-31.09,10.92-31.09,10.92l-70.59-.14,20.62-27.95,23.76-1.12h-.02Z" fill="#2e353a"/>
      <path d="m579.39,402.7c11.7,1.38,23.74-.27,34.66-4.72,1.91-.78,3.79-1.65,5.79-2.15,1.94-.49,3.97-.64,5.96-.42,1.57.17,3.25.65,4.21,1.91,1.41,1.86.69,4.49-.1,6.7-.92,2.58-1.87,5.21-3.66,7.28-2.09,2.41-5.14,3.79-8.18,4.75-5.96,1.88-12.26,2.42-18.5,2.66l-21.46-1.18,1.29-14.82h0Z" fill="#dedede"/>
      <path d="m620.81,395.84s-.15.19-.33.58c-.18.39-.39.97-.57,1.71-.36,1.48-.48,3.67.24,5.92.72,2.25,2.1,3.96,3.26,4.95.58.5,1.09.85,1.46,1.06.37.21.59.3.61.27.04-.07-.77-.54-1.85-1.58-1.07-1.03-2.35-2.7-3.05-4.86-.69-2.15-.63-4.27-.36-5.72.26-1.47.66-2.32.59-2.36v.02Z" fill="#2e353a"/>
      <path d="m509.99,387.83c1.67-4.75,1.96-11.74,12.3-15.1,10.34-3.36,18.17,3.07,23.48,5.3,5.31,2.23,34.37,18.17,34.37,18.17,0,0,5.47,9.76,3.92,14.07-1.56,4.31-8.63,8.57-8.63,8.57h-32.49c-8.38,0-23.98-.28-23.98-.28-2.87-4.5-5.59-10.62-5.59-10.62l-.28-1.4c0-1.12-4.75-13.97-3.07-18.73v.02Z" fill="#2e353a"/>
      <path d="m527.99,412.51s.02.19.24.44c.2.25.57.6,1.07.96,1.01.74,2.58,1.65,4.59,2.58,1.02.46,2.13.94,3.4,1.33,1.25.39,2.63.68,4.09.88,2.93.42,6.18.32,9.54.37,6.76.11,12.88.36,17.33.31,2.22-.02,4.01-.11,5.26-.23.62-.06,1.1-.13,1.42-.19.32-.06.49-.1.49-.12,0-.05-.69.08-1.92.14-1.23.08-3.02.12-5.24.09-4.43-.03-10.54-.33-17.32-.45-3.39-.05-6.61.06-9.5-.33-1.44-.19-2.8-.46-4.04-.83-1.23-.37-2.36-.83-3.37-1.26-2.03-.88-3.6-1.74-4.62-2.43-.51-.34-.88-.65-1.11-.88-.22-.23-.28-.39-.3-.38v.02Z" fill="#2e353a"/>
      <path d="m575.41,418.85s.16-.07.43-.22c.27-.16.69-.41,1.21-.75,1.04-.69,2.57-1.74,4.27-3.4.83-.84,1.73-1.83,2.42-3.11.72-1.29.75-2.99.48-4.62-.58-3.32-2.03-6.87-3.92-10.6l-.02-.05-.05-.03c-5.32-2.93-11.42-6.26-18.1-9.84-3.34-1.79-6.81-3.64-10.43-5.5-1.81-.93-3.63-1.88-5.55-2.74-1.91-.81-3.73-1.87-5.64-2.84-2.69-1.38-5.48-2.61-8.4-3.16-1.45-.31-2.92-.4-4.38-.4-1.45.07-2.89.24-4.26.62-2.73.73-5.32,1.87-7.44,3.55-1.05.86-1.95,1.85-2.7,2.93-.74,1.09-1.29,2.26-1.74,3.44-.45,1.17-.78,2.37-1.12,3.53-.3,1.16-.77,2.24-.93,3.45-.23,2.36.16,4.58.56,6.65.42,2.07.93,4,1.44,5.8.26.9.52,1.77.76,2.61.23.83.52,1.66.64,2.41v.03c.11.53.2.97.28,1.4h0c1.17,3.67,2.61,6.37,3.73,8.11,1.14,1.73,1.98,2.49,1.98,2.49,0,0-.04-.06-.12-.17-.1-.12-.22-.27-.38-.47-.33-.42-.8-1.06-1.36-1.92-1.09-1.74-2.48-4.45-3.6-8.09-.53-.43-.42-.86-.27-1.39v.03c-.13-.86-.39-1.64-.63-2.49-.23-.84-.49-1.71-.74-2.61-.5-1.8-1-3.74-1.4-5.8-.39-2.06-.75-4.27-.52-6.53.15-1.1.63-2.22.93-3.39.33-1.15.67-2.34,1.12-3.49.45-1.15,1-2.29,1.71-3.35.73-1.04,1.62-2,2.63-2.83,2.07-1.64,4.6-2.75,7.28-3.46,1.34-.37,2.74-.53,4.16-.6,1.42,0,2.86.09,4.28.4,2.86.55,5.6,1.74,8.28,3.12,1.89.96,3.73,2.03,5.67,2.85,1.89.85,3.72,1.8,5.53,2.72,3.6,1.86,7.09,3.7,10.43,5.48,6.66,3.59,12.79,6.89,18.13,9.78l-.07-.07c1.9,3.68,3.37,7.22,3.95,10.47.28,1.63.26,3.21-.41,4.47-.65,1.25-1.53,2.25-2.34,3.08-1.67,1.65-3.17,2.73-4.19,3.46-.5.34-.89.61-1.18.79-.26.18-.4.27-.4.27h-.02Z" fill="#2e353a"/>
      <path d="m522.52,406.79s-9.68,1.16-8.82,5.89c.86,4.74,4.02,6.34,4.02,6.34l26.31.06s-15.71-1.1-21.52-12.29Z" fill="#dedede"/>
      <path d="m521.58,404.49s.02.54.29,1.34c.27.8.77,1.89,1.57,2.94,1.63,2.11,3.68,2.94,3.7,2.84.09-.13-1.8-1.11-3.35-3.11-1.54-2.01-2.07-4.05-2.22-4h0Z" fill="#2e353a"/>
      <path d="m524.95,406.35c-.13,0,.02,1.63.93,3.37.89,1.74,2.03,2.87,2.11,2.79.11-.09-.85-1.31-1.7-3-.88-1.67-1.21-3.18-1.34-3.16Z" fill="#2e353a"/>
      <path d="m512.59,417.69c.07-.04-.55-1.23-1.31-3.27-.76-2.03-1.6-4.93-1.98-8.22-.37-3.29-.21-6.29.07-8.45.28-2.15.62-3.47.54-3.49-.03,0-.14.31-.3.9-.18.59-.37,1.45-.55,2.54-.37,2.15-.58,5.21-.21,8.55.38,3.34,1.28,6.26,2.13,8.28.42,1.01.8,1.81,1.11,2.34.29.54.47.82.5.81h0Z" fill="#4d5a64"/>
      <g fill="none" opacity=".3">
        <path d="m518.07,404.23c.07-.64.32-1.39.95-1.52.76-.16,1.29.73,1.61,1.44,3.34,7.71,14.31,13.72,22.68,14.51-3.45.03-8.76-.38-12.15-.99-3.39-.62-6.72-1.92-9.27-4.24-2.54-2.32-4.18-5.78-3.81-9.19h0Z"/>
      </g>
      <path d="m582.18,393.74c.05.12,2.14-.68,4.66-1.77,2.52-1.09,4.52-2.06,4.47-2.18-.05-.12-2.13.68-4.66,1.77-2.52,1.1-4.53,2.07-4.47,2.18Z" fill="#2e353a"/>
      <g fill="none" opacity=".2">
        <path d="m572.79,389.67c12.53-2.4,25.11-4.52,37.73-6.39l9.4,2.98c-2.63,4.9-7.84,8.02-13.26,9.31-5.41,1.29-11.06.98-16.61.47-6.1-.56-12.36-1.41-17.68-4.47-.4-.24-.86-.59-.81-1.05.06-.53.7-.75,1.21-.85h0Z"/>
      </g>
      <path d="m634.49,352.35l-15.79,34.93c-.66,1.45-2.09,2.38-3.67,2.41l-46.05.6-5.81-3.12,9.1-.67,14.15-33.96c.45-1.09,1.51-1.79,2.68-1.8l44.12-.33c1.01,0,1.69,1.04,1.27,1.96h0Z" fill="#dedede"/>
      <path d="m634.49,352.35s.09-.13.14-.42c.05-.28,0-.78-.43-1.2-.21-.19-.53-.37-.89-.38h-4.04c-4.37,0-10.66.04-18.48.06-3.92.02-8.21.04-12.83.07-2.31,0-4.71.03-7.18.04-.63,0-1.25,0-1.88.02-.68.05-1.33.32-1.85.77-.54.43-.83,1.12-1.06,1.7-.25.6-.5,1.19-.75,1.8-4.03,9.65-8.49,20.31-13.2,31.6l.21-.16c-2.8.2-5.78.42-8.78.65-.11,0-.21.02-.31.02l-.88.07.78.42c2,1.08,3.96,2.13,5.8,3.12l.06.03h.07c12.45-.18,24.24-.33,34.92-.48,2.67-.04,5.27-.08,7.79-.11,1.27-.03,2.49,0,3.75-.08,1.28-.14,2.46-.88,3.12-1.93,2.05-4.33,3.77-8.32,5.43-11.98,3.26-7.3,5.89-13.19,7.72-17.27.89-2.02,1.59-3.59,2.07-4.69.22-.52.4-.93.53-1.22.12-.27.17-.42.17-.42,0,0-.08.14-.2.4-.14.29-.32.69-.57,1.2-.5,1.08-1.22,2.64-2.15,4.65-1.86,4.07-4.54,9.94-7.86,17.21-1.67,3.62-3.45,7.69-5.46,11.9-.61.94-1.67,1.61-2.82,1.73-1.17.06-2.46.04-3.71.06-2.53.03-5.12.06-7.79.09-10.68.13-22.47.27-34.92.43l.13.03c-1.84-.99-3.81-2.05-5.8-3.12l-.11.48c.1,0,.21-.02.31-.02,3.01-.22,5.98-.44,8.78-.65h.16l.06-.16c4.69-11.29,9.14-21.96,13.15-31.62.25-.61.5-1.2.74-1.8.24-.62.47-1.14.93-1.54.44-.39,1.01-.63,1.59-.68.63,0,1.24-.02,1.85-.02,2.47-.02,4.86-.05,7.18-.07,4.62-.05,8.92-.09,12.83-.13,7.81-.09,14.11-.17,18.47-.22,1.09-.02,2.05-.03,2.89-.05.41,0,.8,0,1.15-.02.34,0,.63.16.83.33.41.38.48.85.45,1.12-.03.28-.11.42-.09.43v-.03Z" fill="#2e353a"/>
      <path d="m573.62,390.2s.09-.13.21-.38c.15-.3.31-.68.53-1.12.46-1.05,1.09-2.47,1.85-4.18,1.54-3.54,3.63-8.45,5.88-13.9,2.25-5.44,4.24-10.41,5.61-14.01.69-1.8,1.23-3.27,1.59-4.29.16-.47.29-.86.4-1.17.09-.28.13-.41.11-.42,0,0-.08.13-.19.39-.13.31-.28.68-.48,1.14-.43,1.07-1.02,2.5-1.72,4.24-1.49,3.63-3.51,8.54-5.74,13.96-2.23,5.41-4.26,10.32-5.76,13.95-.71,1.74-1.28,3.17-1.71,4.24-.18.46-.32.84-.45,1.16-.1.26-.15.41-.13.42v-.03Z" fill="#2e353a"/>
      <path d="m602.19,369.28c0,1.24,1.01,2.26,2.26,2.26s2.26-1.01,2.26-2.26-1.01-2.26-2.26-2.26-2.26,1.01-2.26,2.26Z" fill="#fff"/>
      <path d="m557.36,313.1c-.07.04.6,1.28,1.53,3.35.93,2.06,2.09,4.98,3.03,8.31.93,3.33,1.45,6.42,1.72,8.67.27,2.25.35,3.66.43,3.65.03,0,.05-.35.05-.99s-.04-1.57-.13-2.7c-.19-2.27-.66-5.41-1.6-8.77-.94-3.36-2.16-6.28-3.18-8.33-.51-1.02-.95-1.83-1.28-2.38-.33-.55-.53-.84-.56-.82h0Z" fill="#2e353a"/>
      <path d="m487.78,337.8s.18.04.51.08c.38.04.86.09,1.47.15,1.33.11,3.18.26,5.47.46,4.72.35,11.24.84,18.72,1.41l.24.02.02-.24c.16-2.49.32-5.11.49-7.81.27-4.7.49-9.17.57-13.26.21-4.1-.79-7.85-2.4-10.51-1.59-2.7-3.7-4.28-5.25-5.04-.78-.37-1.41-.62-1.86-.72-.44-.13-.66-.18-.67-.17-.02.07.93.25,2.45,1.06,1.49.81,3.51,2.38,5.03,5.05,1.54,2.63,2.48,6.28,2.25,10.33-.1,4.07-.33,8.55-.61,13.24-.17,2.69-.32,5.32-.48,7.8l.25-.22c-7.48-.5-14.01-.93-18.73-1.24-2.29-.14-4.15-.24-5.48-.31-.61-.03-1.1-.05-1.47-.07-.33,0-.51,0-.51,0l-.02.02Z" fill="#2e353a"/>
      <path d="m533.68,353.76s.3-.08.82-.3c.26-.11.57-.25.91-.46.34-.21.75-.41,1.16-.72.84-.56,1.76-1.33,2.69-2.29.91-.98,1.81-2.14,2.59-3.47.75-1.35,1.29-2.72,1.66-4,.34-1.29.54-2.47.59-3.48.05-.5.02-.96.02-1.36s-.03-.74-.08-1.02c-.07-.56-.13-.86-.16-.86-.1,0,.06,1.24-.13,3.2-.09.98-.31,2.13-.67,3.39-.39,1.24-.93,2.58-1.67,3.89-.75,1.3-1.62,2.45-2.49,3.42-.89.95-1.76,1.73-2.57,2.31-1.59,1.17-2.73,1.66-2.68,1.75h0Z" fill="#2e353a"/>
      <path d="m402.72,65.98l-123.61-.07c-14.87,0-26.94,11.68-26.94,26.11l-.06,300.53c0,14.42,12.04,26.11,26.91,26.12l123.61.07c14.87,0,26.94-11.68,26.94-26.11l.06-300.53c0-14.42-12.04-26.11-26.91-26.12h0Z" fill="#4d5a64"/>
      <path d="m279.15,406.45c-10.42,0-18.85-8.19-18.85-18.3l.06-293.34c0-10.1,8.45-18.29,18.86-18.29h20.98l8.43.02,70,.04h23.97c10.42.02,18.85,8.2,18.85,18.31l-.06,293.34c0,10.1-8.45,18.29-18.86,18.29" fill="#fff"/>
      <path d="m254.13,108.02h-4.02c-.73,0-1.31.59-1.31,1.31v36.43c0,.72.59,1.31,1.31,1.31h4.02c.72,0,1.31-.59,1.31-1.31v-36.43c0-.72-.59-1.31-1.31-1.31Z" fill="#4d5a64"/>
      <path d="m254.13,154.14h-4.02c-.73,0-1.31.59-1.31,1.31v36.43c0,.72.59,1.31,1.31,1.31h4.02c.72,0,1.31-.59,1.31-1.31v-36.43c0-.72-.59-1.31-1.31-1.31Z" fill="#4d5a64"/>
      <path d="m431.65,139.94h-4.02c-.73,0-1.31.59-1.31,1.31v64.83c0,.72.59,1.31,1.31,1.31h4.02c.72,0,1.31-.59,1.31-1.31v-64.83c0-.72-.59-1.31-1.31-1.31Z" fill="#4d5a64"/>
      <path d="m453.71,48.15h-50c-2.08,0-3.76,1.68-3.76,3.76v50c0,2.08,1.68,3.76,3.76,3.76h50c2.08,0,3.76-1.68,3.76-3.76v-50c0-2.08-1.68-3.76-3.76-3.76Z" fill="#e0715f"/>
      <path d="m453.71,48.15h-50c-2.08,0-3.76,1.68-3.76,3.76v50c0,2.08,1.68,3.76,3.76,3.76h50c2.08,0,3.76-1.68,3.76-3.76v-50c0-2.08-1.68-3.76-3.76-3.76Z" fill="#b18820"/>
      <path d="m443.64,48.15h-50c-2.08,0-3.76,1.68-3.76,3.76v50c0,2.08,1.68,3.76,3.76,3.76h50c2.07,0,3.76-1.68,3.76-3.76v-50c0-2.08-1.68-3.76-3.76-3.76Z" fill="#e1be46"/>
      <path d="m429.28,81.6h-18.99c-.27,0-.49-.22-.49-.49s.22-.49.49-.49h18.59l2.09-11.84h-22.47c-.28,0-.49-.22-.49-.49s.21-.49.49-.49h23.05c.15,0,.28.07.37.18.1.11.14.25.11.4l-2.27,12.81c-.04.23-.25.4-.48.4h0Z" fill="#fff"/>
      <path d="m428.66,86.08l-18.09-.06c-.24,0-.45-.19-.48-.43l-2.59-20.22h-5.39c-.27,0-.49-.22-.49-.49s.21-.49.49-.49h5.81c.25,0,.45.19.49.43l2.59,20.22,17.66.06c.27,0,.49.23.49.49s-.22.49-.49.49h0Z" fill="#fff"/>
      <path d="m413.51,92.51c-1.51,0-2.74-1.23-2.74-2.74s1.23-2.74,2.74-2.74,2.74,1.23,2.74,2.74-1.23,2.74-2.74,2.74Zm0-4.5c-.97,0-1.76.79-1.76,1.76s.79,1.76,1.76,1.76,1.76-.79,1.76-1.76-.79-1.76-1.76-1.76Z" fill="#fff"/>
      <path d="m426.01,92.51c-1.51,0-2.74-1.23-2.74-2.74s1.23-2.74,2.74-2.74,2.74,1.23,2.74,2.74-1.23,2.74-2.74,2.74Zm0-4.5c-.97,0-1.76.79-1.76,1.76s.79,1.76,1.76,1.76,1.76-.79,1.76-1.76-.79-1.76-1.76-1.76Z" fill="#fff"/>
      <path d="m416.16,81.6c-.25,0-.47-.2-.49-.46l-.77-12.4c-.02-.27.19-.5.46-.52.29,0,.5.19.52.46l.77,12.4c.02.27-.19.5-.46.52h-.03Z" fill="#fff"/>
      <path d="m423.1,81.6h-.03c-.27-.02-.48-.24-.46-.52l.7-12.4c.02-.26.22-.47.52-.46.27.02.48.24.46.52l-.69,12.4c0,.26-.24.46-.49.46Z" fill="#fff"/>
      <path d="m409.21,75.39c-.26,0-.49-.22-.49-.49s.21-.49.49-.49l21.22-.21c.31,0,.49.22.49.49s-.21.49-.49.49l-21.22.21Z" fill="#fff"/>
      <path d="m433.34,72.48c3.25,0,5.89-2.64,5.89-5.89s-2.64-5.89-5.89-5.89-5.89,2.64-5.89,5.89,2.64,5.89,5.89,5.89Z" fill="#fff"/>
      <path d="m435.26,66.76c.26.29.4.65.4,1.08,0,.33-.09.64-.27.92-.18.28-.44.51-.79.68-.35.17-.79.25-1.31.25-.4,0-.79-.05-1.18-.16-.39-.11-.72-.25-.99-.45l.52-1.01c.21.17.47.29.75.38.28.09.58.14.88.14.33,0,.6-.06.78-.2.19-.13.28-.31.28-.54,0-.47-.35-.7-1.07-.7h-.61v-.87l1.17-1.33h-2.43v-1.06h3.99v.85l-1.29,1.47c.5.08.88.26,1.14.56h0Z" fill="#e0715f"/>
      <path d="m250.07,226.25l-90.87,101.87,22.84,20.68,79.27-111.78-11.24-10.77Z" fill="#960044"/>
      <path d="m182.04,348.79l67.81,2.27,43.98-103.21-32.53-10.84-79.27,111.78Z" fill="#e0715f"/>
      <path d="m182.04,348.79s-.03-.6,0-1.68c.05-1.17.12-2.71.2-4.59.19-3.89.49-9.26.85-15.27l.26.27c-.41.02-.85.03-1.29.05-6.31.22-12.02.39-16.16.5-2.01.04-3.66.07-4.89.09h-1.33c-.3,0-.47-.02-.47-.04s.16-.04.46-.07c.36-.03.8-.06,1.33-.1,1.23-.07,2.89-.15,4.89-.26,4.13-.19,9.85-.42,16.15-.64.44-.02.88-.03,1.29-.05h.28l-.02.27c-.37,6.01-.72,11.39-1.01,15.26-.15,1.88-.26,3.42-.35,4.58-.1,1.08-.17,1.67-.2,1.66h0Z" fill="#2e353a"/>
      <path d="m255.52,231.43c.11.09-15.96,21.6-35.89,48.07-19.93,26.47-36.18,47.85-36.3,47.77-.12-.08,15.96-21.61,35.89-48.08,19.93-26.46,36.18-47.85,36.29-47.76h0Z" fill="#2e353a"/>
      <path d="m182.04,348.79l67.81,2.27,43.98-103.21-32.53-10.84-79.27,111.78Z" fill="#6a0035"/>
      <path d="m187.6,363.78l33.09,23.4,42.09-137.82-2.79-1.38-72.39,115.8Z" fill="#4d5a64"/>
      <path d="m220.69,387.18l47.88-16.51,26.73-117.12-32.53-4.19-42.09,137.82Z" fill="#4d5a64"/>
      <g fill="none" opacity=".3">
        <path d="m220.69,387.18l47.88-16.51,26.73-117.12-32.53-4.19-42.09,137.82Z"/>
      </g>
      <path d="m220.69,387.18s-.09-.18-.22-.52c-.14-.4-.31-.9-.53-1.52-.46-1.39-1.09-3.29-1.85-5.61-1.54-4.82-3.61-11.36-5.91-18.58-.35-1.12-.7-2.21-1.02-3.26l.3.17c-6.56,1.73-12.36,3.27-16.62,4.39-2.05.52-3.72.94-4.95,1.25-.54.13-.99.23-1.34.31-.3.07-.47.1-.47.08s.15-.08.45-.17c.35-.11.78-.23,1.32-.4,1.22-.35,2.88-.82,4.91-1.4,4.25-1.17,10.04-2.76,16.58-4.55l.23-.07.07.23c.33,1.04.68,2.14,1.03,3.26,2.24,7.25,4.28,13.8,5.78,18.62.71,2.34,1.27,4.26,1.69,5.66.18.63.32,1.13.44,1.55.1.35.14.55.12.55h-.02Z" fill="#2e353a"/>
      <path d="m261.48,248.94c.13.06-10.99,24.43-24.81,54.44-13.83,30.02-25.14,54.29-25.27,54.24-.13-.06,10.97-24.44,24.81-54.45,13.82-30.01,25.14-54.28,25.27-54.22h0Z" fill="#2e353a"/>
      <path d="m272.88,245.43l-33.83,103.09,36.18,9,.5-111.75-2.85-.34Z" fill="#e1be46"/>
      <path d="m275.22,357.52l31.88-10.31-4.6-100.34-26.77-1.1-.5,111.75Z" fill="#e0715f"/>
      <path d="m275.22,357.52l31.88-10.31-4.6-100.34-26.77-1.1-.5,111.75Z" fill="#b18820"/>
      <path d="m275.22,357.52s-.14-.09-.36-.28c-.26-.24-.59-.54-.97-.89-.88-.85-2.06-1.99-3.49-3.36-2.93-2.86-6.94-6.82-11.36-11.23-.49-.49-.98-.98-1.44-1.44l.28.05c-5.26,2.35-9.97,4.43-13.36,5.88-1.64.7-3,1.27-4.01,1.71-.95.39-1.48.6-1.49.56,0-.04.49-.29,1.41-.74,1-.47,2.33-1.1,3.95-1.85,3.36-1.55,8.04-3.67,13.29-6.04l.16-.07.13.13c.46.46.95.94,1.44,1.44,4.41,4.41,8.39,8.41,11.25,11.33,1.38,1.42,2.52,2.6,3.37,3.48.35.38.66.7.9.96.21.22.3.35.28.36h.02Z" fill="#2e353a"/>
      <path d="m274.26,245.59c.14.02-3.43,21.21-7.98,47.31-4.55,26.11-8.35,47.25-8.49,47.24-.14-.02,3.44-21.2,7.98-47.31,4.54-26.1,8.34-47.25,8.49-47.22h0Z" fill="#2e353a"/>
      <path d="m250.07,226.25l37.42,13.24-9.31,4.01-16.87-6.48-11.24-10.77Z" fill="#2e353a"/>
      <path d="m259.98,247.98l11.6,1.38-.42,1.09-8.39-1.09-2.79-1.38Z" fill="#2e353a"/>
      <path d="m309.72,223.16s-.18.02-.52,0c-.39-.03-.88-.06-1.47-.1-.64-.05-1.41-.11-2.32-.13-.9-.03-1.94-.1-3.08-.08-1.13,0-2.39,0-3.73.07-1.34.03-2.76.17-4.27.28-2.99.31-6.27.8-9.66,1.57-3.39.78-6.55,1.77-9.39,2.79-1.4.55-2.75,1.04-3.96,1.6-1.23.51-2.36,1.06-3.39,1.56-1.04.48-1.93.99-2.73,1.41-.8.41-1.49.8-2.04,1.13-.52.29-.94.53-1.28.72-.29.16-.46.23-.47.22,0-.02.13-.12.41-.31.33-.22.73-.48,1.23-.8.54-.35,1.2-.76,2-1.2.79-.44,1.68-.98,2.71-1.48,1.02-.52,2.15-1.09,3.38-1.62,1.22-.58,2.56-1.09,3.97-1.64,2.84-1.05,6.03-2.06,9.44-2.85,3.42-.76,6.72-1.24,9.73-1.54,1.51-.11,2.95-.23,4.3-.24,1.35-.06,2.6-.04,3.75,0,1.15,0,2.18.1,3.09.16.91.05,1.68.14,2.32.22.59.08,1.07.14,1.46.19.33.05.51.09.51.1h0Z" fill="#2e353a"/>
      <path d="m310.24,222.39s-.17.07-.5.15c-.38.09-.86.2-1.44.32-.63.13-1.39.29-2.27.53-.88.23-1.89.45-2.98.81-1.1.32-2.29.69-3.54,1.16-1.27.42-2.6.99-3.98,1.56-2.76,1.21-5.73,2.71-8.69,4.52-2.96,1.84-5.62,3.83-7.94,5.75-1.13.99-2.23,1.92-3.18,2.87-.99.91-1.85,1.82-2.62,2.65-.8.81-1.46,1.62-2.05,2.29-.61.68-1.1,1.28-1.49,1.79-.37.46-.69.83-.93,1.14-.22.25-.34.39-.35.38,0,0,.08-.16.27-.44.22-.32.51-.73.85-1.2.37-.53.84-1.16,1.43-1.85.59-.7,1.21-1.53,2.01-2.36.77-.85,1.62-1.78,2.61-2.71.94-.97,2.04-1.91,3.17-2.92,2.32-1.96,5-3.96,7.98-5.82,2.99-1.83,5.99-3.32,8.78-4.52,1.41-.56,2.74-1.12,4.03-1.53,1.27-.46,2.48-.8,3.58-1.11,1.1-.33,2.12-.54,3.01-.74.88-.22,1.65-.35,2.29-.45.59-.09,1.07-.17,1.46-.23.33-.05.51-.06.51-.05h0Z" fill="#2e353a"/>
      <path d="m400.23,262.42c.13.05-.44,1.92-1.27,4.17-.83,2.25-1.61,4.04-1.75,4-.13-.05.44-1.92,1.27-4.17.83-2.25,1.62-4.04,1.75-3.99Z" fill="#2e353a"/>
      <path d="m430.43,252.28c4.63-1.94,5.7-8.55,3.24-12.92-2.46-4.38-7.25-6.87-11.95-8.61-4.71-1.73-9.69-3.02-13.76-5.96-7.24-5.25-10.05-14.66-11.46-23.49-2.1-13.16-2.14-26.57-4.22-39.74-2.07-13.16-6.47-26.49-15.76-36.03-9.97-10.23-25.24-14.99-39.26-12.24-11.41.43-22.86,7.47-34.33,21.47-11.77,15.92-14.34,40.83-13.68,65.98.48,18.12,4.35,47.5,15.33,61.91,13.02,17.07,47.02,14,66.53,22.97,19.51,8.97,44.06,9.45,61.27-3.39,5.55-4.14,10.42-10.09,10.7-17.01.29-6.92-5.85-14.17-12.67-12.94h0Z" fill="#2e353a"/>
      <path d="m302.93,134.77c8.9-12.65,21.52-20.48,36.92-21.85,8.69-.77,12.42.77,18.82,2.01,6.39,1.23,12.29,4.18,16.41,9.22,4.89,5.98,9.14,12.77,10.54,20.36,1.44,7.81.16,14.57.14,22.51-.02,7.94-4.09,19.02-8.27,25.78l-14.61,3.08c-11.07,1.18-22.29,2.37-33.28.63-10.99-1.74-21.92-6.79-28.4-15.85-9-12.58-7.15-33.22,1.75-45.86v-.02Z" fill="#2e353a"/>
      <path d="m365.54,231.52c-.65-7.04-1.53-15.86-1.53-15.83,0,0,16.25-3,19.24-24.33,1.49-10.6.65-27.94-.5-42.1-1.03-12.75-13.16-29.32-28.9-28.22l-7.06-.3-26.01,12.6c-3.86.48-6.71,3.83-6.56,7.7l7.48,92.28,17.47,27.55,26.37-17.37-.04-11.97h.02Z" fill="#eebd9c"/>
      <path d="m376.79,166.75c.08,1.44-1.08,2.69-2.58,2.8-1.5.11-2.78-.97-2.86-2.41-.08-1.44,1.08-2.69,2.58-2.8,1.5-.11,2.78.97,2.86,2.41h0Z" fill="#2e353a"/>
      <path d="m378.48,156.71c-.33.36-2.43-1.13-5.37-1.07-2.94.02-5.06,1.57-5.38,1.21-.16-.16.18-.8,1.1-1.51.91-.7,2.48-1.38,4.3-1.41,1.83-.02,3.38.63,4.28,1.29.91.68,1.23,1.31,1.07,1.48h0Z" fill="#2e353a"/>
      <path d="m361.36,181c-.02-.17,1.8-.51,4.75-.95.74-.09,1.46-.25,1.58-.76.17-.55-.16-1.35-.54-2.21-.74-1.8-1.51-3.69-2.32-5.67-3.22-8.07-5.57-14.71-5.25-14.84.32-.13,3.2,6.31,6.42,14.38.77,1.99,1.52,3.89,2.22,5.7.3.84.8,1.8.44,2.94-.2.57-.74.98-1.21,1.12-.48.16-.9.17-1.27.2-2.98.22-4.82.25-4.84.09l.02.02Z" fill="#2e353a"/>
      <path d="m364.01,215.69s-14.29,1.17-28.62-7.09c0,0,7.85,14.61,29.1,12.24l-.48-5.15h0Z" fill="#e6986e"/>
      <path d="m376.73,146.54c-.48.72-2.74.28-5.35.55-2.63.18-4.79,1-5.38.36-.26-.31,0-1.02.91-1.75.88-.73,2.42-1.43,4.23-1.58,1.8-.15,3.43.27,4.41.84,1,.58,1.38,1.22,1.17,1.58h0Z" fill="#2e353a"/>
      <path d="m344.19,168.84c.03,1.44,1.27,2.6,2.78,2.6s2.7-1.16,2.67-2.61c-.03-1.44-1.27-2.6-2.77-2.6s-2.7,1.17-2.67,2.61h0Z" fill="#2e353a"/>
      <path d="m338.84,158.46c.35.33,2.34-1.3,5.27-1.46,2.93-.2,5.16,1.19,5.46.81.15-.17-.23-.79-1.2-1.42-.96-.63-2.56-1.2-4.39-1.1-1.82.11-3.33.87-4.17,1.61-.86.74-1.13,1.4-.96,1.55h0Z" fill="#2e353a"/>
      <path d="m339.92,148.96c.62.64,2.84-.19,5.55-.36,2.71-.26,5.04.17,5.54-.56.21-.35-.19-1-1.22-1.58-1.03-.58-2.71-1-4.58-.84-1.87.16-3.46.85-4.36,1.59-.92.73-1.2,1.44-.93,1.75h0Z" fill="#2e353a"/>
      <path d="m320.47,176.38c-.03-1.59-1.93-5.29-3.5-5.5-4.19-.58-11.71-.11-11.59,10.5.17,14.5,14.68,11.35,14.71,10.93.02-.32.49-10.47.38-15.93h0Z" fill="#eebd9c"/>
      <path d="m316.03,187.05c-.07-.05-.25.18-.68.38-.41.2-1.12.33-1.89.06-1.54-.55-2.86-2.97-2.96-5.58-.05-1.32.2-2.57.67-3.62.43-1.07,1.11-1.81,1.88-1.96.76-.19,1.31.26,1.5.68.19.4.11.7.19.71.04.04.31-.24.19-.84-.06-.28-.24-.63-.58-.9-.35-.27-.86-.42-1.4-.35-1.12.09-2.11,1.13-2.61,2.28-.56,1.16-.89,2.57-.83,4.05.13,2.92,1.66,5.64,3.76,6.22,1.02.25,1.87-.06,2.31-.41.44-.36.52-.69.47-.71h0Z" fill="#e6986e"/>
      <path d="m316.38,170.96l3.94,3.53c21.75-12.59,42.93-56.53,41.36-54.14,0,0-11.18-3.67-22.81-.81-11.63,2.87-33.54,10.39-32.19,24.25,1.35,13.86,9.68,27.16,9.68,27.16h0Z" fill="#2e353a"/>
      <path d="m358.85,187.38c-1.84-.94-3.68-1.89-5.52-2.83-.58-.29-1.21-.6-1.83-.44-.56.14-.97.61-1.28,1.09-1.12,1.75-1.33,4.07-.46,5.95.87,1.88,2.86,3.22,4.93,3.23,2.07,0,5.33-1.69,6.53-5.63l-2.37-1.37h0Z" fill="#e6986e"/>
      <path d="m356.35,194.08s-.33.21-1.02.32c-.68.11-1.7.18-2.9-.24-.29-.11-.6-.25-.89-.45-.29-.22-.54-.44-.8-.69-.52-.51-1.03-1.12-1.4-1.88-.38-.74-.53-1.69-.4-2.57.1-.9.38-1.81.83-2.64.22-.42.48-.81.77-1.18.31-.39.76-.68,1.22-.79.46-.11.93-.16,1.4-.02.45.14.81.37,1.15.59,1.34.85,2.6,1.57,3.64,2.17,1.05.61,1.89,1.12,2.46,1.5.57.37.86.61.84.64s-.35-.15-.95-.46c-.7-.37-1.54-.82-2.53-1.35-1.07-.57-2.35-1.24-3.72-2.09-.34-.21-.68-.42-1.04-.52-.34-.1-.75-.06-1.13.03-.38.1-.72.31-.96.63-.26.33-.51.71-.72,1.11-.81,1.57-1.14,3.42-.46,4.79.32.69.79,1.28,1.27,1.78.48.52.97.9,1.52,1.11,1.1.43,2.09.43,2.75.38.67-.05,1.03-.17,1.04-.13h0Z" fill="#2e353a"/>
      <path d="m410.62,406.65s-8.61-47.96-9.05-50.85l-1.32-8.59c.41-2.71,6.61-25.68,7.06-36.08.86-20.14-3.79-32.7-14.53-52.36l.62-24.56-28.24-6.7c4.14,14.42-22.7,15.46-45.41.92l-33.25,10.77,7.89,37.99.9,84-15.5,46.3,130.84-.83h0Z" fill="#960044"/>
      <g fill="none" opacity=".3">
        <path d="m343.52,272.75c-6.61,1.99-13.23,3.96-19.83,5.95l-29.18,84.81c2.77,2.01,8.44,3.66,11.7,2.61s6.08-3.13,8.7-5.34c12.52-10.47,18.58-27.03,23.76-42.51,5.18-15.48,9.41-29.85,4.86-45.53h0Z"/>
      </g>
      <path d="m287.21,239.48s-17.31,3.51-20.64,26.61c-3.33,23.09,1.84,61.1,7.07,77.94,5.23,16.84,17.19,19.9,27.69,17.7,17.71-3.72,33.66-52.81,42.34-89.72l-26.24-7.24-15.99,33.14-1.12-18.56" fill="#960044"/>
      <path d="m300.33,279.35s.05.41.11,1.21c.06.82.14,2.02.24,3.57.2,3.16.5,7.79.89,13.76l-.21-.04c3.95-8.24,9.39-19.57,15.92-33.17l.07-.14.16.04c7.89,2.16,16.75,4.6,26.25,7.2l.21.06-.05.21c-2.84,12.02-6.3,25.07-10.82,38.66-2.26,6.78-4.79,13.71-7.78,20.63-3.01,6.89-6.38,13.87-10.97,20.24-1.71,2.35-3.6,4.57-5.78,6.47-2.17,1.87-4.7,3.51-7.57,3.98-2.79.55-5.65.71-8.43.36-2.78-.34-5.49-1.21-7.88-2.6-2.39-1.39-4.45-3.27-6.12-5.41-1.63-2.17-2.92-4.53-3.93-6.98-.48-1.23-.91-2.48-1.31-3.72-.35-1.25-.75-2.5-1.05-3.74-.66-2.5-1.2-4.97-1.73-7.43-2.01-9.85-3.3-19.33-4.12-28.21-.82-8.9-1.19-17.22-1-24.83.22-7.58.8-14.51,2.62-20.3,1.74-5.82,4.87-10.21,7.88-13.19.75-.76,1.55-1.37,2.25-2,.77-.54,1.46-1.11,2.16-1.52.7-.43,1.34-.83,1.96-1.14.61-.33,1.18-.59,1.69-.81,1.03-.45,1.84-.7,2.39-.87.55-.16.84-.2.84-.2,0,0-.28.08-.83.24-.54.18-1.35.45-2.37.91-2.01.93-4.98,2.5-7.98,5.5-2.97,2.99-6.04,7.35-7.74,13.14-1.78,5.75-2.33,12.66-2.53,20.22-.17,7.58.21,15.9,1.06,24.78.84,8.88,2.14,18.34,4.16,28.16.53,2.45,1.09,4.92,1.73,7.41.3,1.24.7,2.48,1.05,3.72.4,1.23.82,2.46,1.3,3.67,1.01,2.41,2.27,4.73,3.87,6.86,1.64,2.08,3.64,3.92,5.98,5.27,2.33,1.36,4.96,2.21,7.69,2.54,2.73.33,5.53.18,8.27-.36,2.75-.46,5.2-2.04,7.33-3.87,2.14-1.86,4-4.06,5.7-6.38,4.54-6.32,7.91-13.28,10.92-20.15,2.99-6.89,5.51-13.8,7.77-20.58,4.52-13.56,8-26.6,10.86-38.61l.16.26c-9.49-2.62-18.35-5.07-26.23-7.25l.21-.1c-6.58,13.58-12.06,24.88-16.05,33.11l-.19.4-.03-.45c-.33-5.97-.6-10.61-.77-13.77-.08-1.57-.15-2.76-.19-3.58-.04-.8-.04-1.22-.04-1.22v.02Z" fill="#2e353a"/>
      <path d="m313.37,224.16c-.39-.92-1.63-1.04-2.62-1-4.28.16-8.59.46-12.72,1.58-1.68.45-3.52,1.21-4.17,2.84-.69,1.74.3,3.66,1.26,5.27l12.73-4.17c1.65-.29,3.22-1.03,4.5-2.11.72-.61,1.38-1.55,1.01-2.41h0Z" fill="#eebd9c"/>
      <path d="m323.71,227.87c-.32-.89-.7-1.79-1.32-2.51-.63-.71-1.56-1.22-2.51-1.13-1.35.15-2.32,1.51-2.48,2.86-.16,1.35.28,2.69.72,3.98l7.93,4.96c-.69-2.75-1.38-5.51-2.36-8.16h0Z" fill="#e6986e"/>
      <path d="m299.21,228.33c.6-.2,11.77-1.19,16.97,0,5.19,1.19,19.56,10.15,22.15,16.15,2.59,6,2.44,9.92,2.59,12.19.22,3.08.22,14.23.22,14.23l-22.7-6.45,3.55-7.64s-13-6.94-17.39-8.73c-4.4-1.79-11.04-6.44-11.72-8.36-.9-2.58,1.05-2.5,1.38-4.66,1.01-6.55,4.94-6.74,4.94-6.74h0Z" fill="#eebd9c"/>
      <path d="m329.74,252.13c.05.15-1.97.77-4.15,2.11-2.2,1.31-3.69,2.79-3.8,2.68-.1-.08,1.26-1.76,3.54-3.12,2.26-1.37,4.4-1.79,4.42-1.67Z" fill="#e6986e"/>
      <path d="m340.84,261.85s-.05-.21-.1-.62c-.05-.41-.09-1.01-.13-1.78-.09-1.55-.08-3.8-.29-6.55-.13-1.37-.3-2.88-.74-4.43-.21-.77-.53-1.54-.86-2.35-.33-.79-.69-1.61-1.17-2.37-.46-.77-1.1-1.43-1.76-2.12-.67-.69-1.37-1.36-2.1-2.02-1.48-1.32-3.09-2.59-4.81-3.83-3.4-2.5-6.83-4.6-10.16-6.11-1.67-.72-3.27-1.39-4.87-1.61-1.6-.26-3.1-.35-4.48-.38-2.76-.06-5,.08-6.54.22-.77.08-1.37.15-1.77.2-.4.06-.62.08-.62.06s.2-.07.61-.17c.4-.09,1-.19,1.76-.29,1.54-.2,3.79-.4,6.57-.38,1.39.02,2.92.08,4.54.33,1.65.21,3.31.87,4.99,1.6,3.38,1.5,6.85,3.61,10.27,6.12,1.71,1.24,3.35,2.53,4.84,3.88.74.67,1.46,1.35,2.12,2.05.67.69,1.33,1.4,1.81,2.21.49.8.85,1.63,1.17,2.45.32.8.65,1.6.85,2.41.44,1.59.6,3.12.69,4.51.18,2.78.11,5.02.14,6.57,0,.73.02,1.32.03,1.78,0,.41,0,.63,0,.63h0Z" fill="#e6986e"/>
      <path d="m301.55,297.97c.05.1-1.52.86-3.73,2.57-1.12.84-2.34,1.97-3.6,3.31-1.23,1.37-2.49,2.97-3.6,4.78-1.1,1.82-1.95,3.67-2.59,5.4-.62,1.73-1.06,3.35-1.3,4.72-.51,2.75-.5,4.49-.61,4.49-.04,0-.05-.43-.05-1.22,0-.39,0-.88.07-1.44.06-.56.09-1.2.22-1.89.21-1.4.61-3.04,1.21-4.82.64-1.76,1.49-3.64,2.61-5.5,1.13-1.84,2.42-3.47,3.69-4.84,1.3-1.34,2.58-2.46,3.73-3.28.56-.44,1.12-.75,1.59-1.06.47-.31.89-.54,1.25-.72.7-.36,1.1-.54,1.12-.51h0Z" fill="#2e353a"/>
      <path d="m409.79,406.31c0,.14-29.71.25-66.34.25s-66.35-.12-66.35-.25,29.7-.25,66.35-.25,66.34.12,66.34.25Z" fill="#2e353a"/>
      <path d="m495.95,210.06s-1.98,8.8-6.85,15.65l-5.53,4.41-.15,19.29-23.39-7.47,1.01-20.06.52-16.62,13.61-13.16,20.78,17.95h0Z" fill="#eebd9c"/>
      <path d="m429.12,175.24l12.05,25.12,6.3-1.63,40.27,34.53,11.88-22.44s-23.98-11.03-28.28-19.85c-4.3-8.82-.25-8.57-.25-8.57l-9.97-15.46-31.99,8.31h0Z" fill="#2e353a"/>
      <path d="m444.69,141.76s12.63-3.71,32.84-18.02c14.77-10.47,26.33-22.94,31.47-28.88,2.47-2.86,6.75-3.3,9.63-.87,4.44,3.75,10.57,13.15,17.25,37.05,11.77,42.14,3.33,50.16-.21,49.53-3.55-.64-26.85-8.34-42.19-9-15.33-.66-38.71,3.91-38.71,3.91l-10.09-33.73h0Z" fill="#dedede"/>
      <path d="m444.69,141.76s.04.19.14.56c.12.41.27.97.48,1.68.44,1.54,1.09,3.75,1.91,6.6,1.71,5.84,4.19,14.3,7.31,24.96l.07.23.24-.05c6.65-1.21,14.25-2.39,22.65-3.2,4.2-.39,8.6-.7,13.19-.68,4.57,0,9.29.6,14.13,1.46,9.69,1.7,19.7,4.64,30.29,7.53l.52.12.61.02c.41.02.76-.17,1.14-.26.32-.2.67-.38.97-.6l.8-.78c.89-1.16,1.6-2.47,1.98-3.86.84-2.75,1.19-5.65,1.21-8.54.12-5.8-.66-11.64-1.68-17.47-.24-1.29-.49-2.58-.73-3.88-.26-1.28-.58-2.55-.85-3.82-.55-2.55-1.2-5.04-1.86-7.52-1.26-4.96-2.73-9.8-4.31-14.51-1.59-4.7-3.32-9.27-5.39-13.58-2.07-4.3-4.43-8.44-7.7-11.71-.82-.78-1.76-1.59-2.89-1.98-1.1-.41-2.29-.58-3.44-.42-1.14.15-2.26.54-3.2,1.19-.97.63-1.69,1.54-2.38,2.33-2.83,3.22-5.68,6.25-8.52,9.09-5.68,5.7-11.31,10.64-16.67,14.85-10.83,8.32-20.38,13.96-27.16,17.42-3.4,1.73-6.11,2.92-7.96,3.68-.93.38-1.65.65-2.12.83-.47.18-.75.27-.73.28.02,0,.25-.04.75-.2.49-.16,1.21-.39,2.15-.75,1.88-.7,4.62-1.85,8.05-3.54,6.84-3.38,16.46-8.95,27.38-17.23,5.41-4.2,11.09-9.13,16.81-14.83,2.86-2.85,5.74-5.87,8.59-9.09.72-.82,1.37-1.63,2.23-2.18.85-.58,1.85-.93,2.88-1.06,2.09-.27,4.18.57,5.69,2.19,3.14,3.15,5.47,7.24,7.52,11.49,2.05,4.27,3.76,8.82,5.34,13.5,1.57,4.69,3.02,9.51,4.28,14.46.67,2.47,1.31,4.95,1.85,7.49.28,1.26.59,2.53.85,3.8.25,1.28.49,2.56.73,3.85,1.02,5.81,1.78,11.6,1.68,17.3,0,2.84-.36,5.67-1.17,8.29-.36,1.33-1.02,2.54-1.81,3.57l-.69.68c-.25.18-.53.32-.78.49-.6.18-1.07.31-1.75.08-10.48-2.85-20.61-5.79-30.33-7.47-4.85-.86-9.63-1.44-14.25-1.43-4.61,0-9.04.32-13.25.73-8.43.85-16.04,2.08-22.69,3.34l.31.19c-3.22-10.55-5.79-18.93-7.56-24.71-.89-2.86-1.58-5.08-2.06-6.62-.24-.72-.41-1.3-.55-1.71-.13-.39-.19-.59-.2-.6l-.04-.02Z" fill="#2e353a"/>
      <path d="m411.72,177.45l8.21-1.25-4.72-10.9-6.9,3.69,3.42,8.46Z" fill="#e1be46"/>
      <path d="m414.11,164.2l3.67,8.49,2.01,4.63c2.75,6.35,9.93,9.41,16.33,6.96l33.32-9.12-13.54-42.22-33.73,12.46c-6.47,2.92-10.86,10.59-8.07,18.81h0Z" fill="#960044"/>
      <g fill="none" opacity=".3">
        <path d="m533.13,133.31c6.12,22.47,7.06,41.81,2.11,43.19-4.94,1.38-13.92-15.71-20.04-38.19-6.12-22.47-7.06-41.81-2.11-43.19,4.95-1.38,13.92,15.71,20.04,38.19Z"/>
      </g>
      <path d="m512.09,125.11s11.9-5.09,15.54,10.69c3.64,15.78-8.16,16.41-8.16,16.41-3.54-8.08-6.03-17.07-7.39-27.1h0Z" fill="#fff"/>
      <path d="m449.24,149.36c.07.22-5.65,2.33-12.78,4.73-7.13,2.39-12.96,4.15-13.03,3.94-.07-.22,5.65-2.33,12.78-4.73,7.13-2.39,12.96-4.15,13.03-3.94Z" fill="#2e353a"/>
      <path d="m450.71,154.01c.07.22-5.65,2.33-12.78,4.72-7.13,2.39-12.96,4.15-13.03,3.94-.07-.22,5.65-2.33,12.78-4.73,7.13-2.39,12.96-4.15,13.03-3.94h0Z" fill="#2e353a"/>
      <path d="m452.18,158.66c.07.22-5.65,2.33-12.78,4.73-7.13,2.39-12.96,4.15-13.03,3.94-.07-.22,5.65-2.33,12.77-4.73,7.13-2.39,12.96-4.15,13.03-3.94Z" fill="#2e353a"/>
      <path d="m453.66,163.31c.07.22-5.65,2.33-12.77,4.73-7.13,2.39-12.96,4.15-13.03,3.94-.07-.22,5.65-2.33,12.77-4.73,7.13-2.39,12.96-4.15,13.03-3.94Z" fill="#2e353a"/>
      <path d="m467.52,203.37l3.81-10.01c1.01-2.64,4.09-3.97,6.55-2.61,1.07.6,1.86,1.62,1.87,3.37,0,0,6.9-2.21,6.1,4.51,0,0,5.09-.5,4.87,4.28,0,0,6.21-1.38,5.72,4.81-.5,6.19-8.15,9.37-10.21,8.62,0,0-2.17-.61-1.23-4.1,0,0-5.16,6.94-8.36,5.5-3.2-1.44-.42-4.55-.42-4.55,0,0-2.04,2.04-3.96,1.19-1.93-.84.43-7.76.43-7.76,0,0-2.08,1-3.76.33-1.68-.67-1.4-3.57-1.4-3.57h0Z" fill="#eebd9c"/>
      <path d="m484.99,212.23c.21.09,1.32-2.06,3.11-4.44,1.81-2.39,3.08-4.53,2.87-4.66-.18-.11-1.68,1.76-3.52,4.18-1.84,2.45-2.67,4.85-2.47,4.92h0Z" fill="#e6986e"/>
      <path d="m485.54,198.38c-.16-.14-2.91,2.88-5.59,7.13-2.7,4.24-4.26,8.03-4.06,8.12.22.11,2.07-3.49,4.75-7.68,2.65-4.2,5.09-7.41,4.91-7.57h0Z" fill="#e6986e"/>
      <path d="m472.27,207.35c.24.05.84-3.41,2.95-7.07,2.07-3.68,4.72-5.94,4.55-6.13-.1-.18-3.08,1.88-5.25,5.73-2.19,3.82-2.45,7.48-2.25,7.47h0Z" fill="#e6986e"/>
      <path d="m451.03,204.21l2.61-2.95c.88-.99,2.18-1.47,3.48-1.28,3.5.51,9.1,2.09,10.02,2.8,1.52,1.17.66,4.26-4.8,4.33-5.47.07-.56.04-.56.04,0,0,11.91,4.69,8.96,15.34l-9.06-.22s-10.46-11.97-11.25-14.19c-.78-2.22.58-3.88.58-3.88h.02Z" fill="#eebd9c"/>
      <path d="m459.61,206.69c-.02.14,1.23.3,3.04,1.11,1.8.78,4.17,2.33,5.88,4.83,1.71,2.5,2.33,5.28,2.43,7.26.11,2.01-.17,3.25-.04,3.28.08.03.57-1.19.61-3.29.05-2.07-.51-5.05-2.34-7.71-1.83-2.66-4.41-4.23-6.34-4.89-1.96-.7-3.25-.65-3.26-.57h0Z" fill="#e6986e"/>
      <path d="m554.32,145.3c-.05.15,6.82,2.67,15.35,5.66,8.53,2.99,15.48,5.29,15.53,5.15.05-.15-6.82-2.67-15.35-5.66-8.53-2.99-15.48-5.29-15.53-5.14h0Z" fill="#2e353a"/>
      <path d="m551.55,129.16c.02.15,10.99-1.38,24.49-3.42,13.51-2.04,24.45-3.81,24.43-3.96-.02-.15-11,1.38-24.5,3.42-13.51,2.04-24.45,3.81-24.42,3.96h0Z" fill="#2e353a"/>
      <path d="m549.11,112.61c.1.11,3.94-3.32,8.59-7.67,4.64-4.35,8.32-7.95,8.22-8.07-.1-.11-3.95,3.32-8.59,7.67-4.64,4.35-8.32,7.95-8.21,8.07Z" fill="#2e353a"/>
      <path d="m510.73,97.56s-.07.27-.12.81c-.05.64-.11,1.41-.17,2.35-.08,1.02-.14,2.27-.15,3.72s-.08,3.1,0,4.93c.06,3.66.38,8.01.99,12.8.66,4.79,1.62,10.02,3.01,15.44,1.43,5.39,3.15,10.44,4.92,14.93,1.82,4.47,3.66,8.42,5.39,11.63.81,1.63,1.68,3.03,2.4,4.3.71,1.26,1.38,2.31,1.94,3.16.52.78.94,1.42,1.29,1.96.3.44.47.67.5.65.03-.02-.1-.27-.35-.74-.31-.55-.7-1.22-1.16-2.04-.52-.87-1.14-1.95-1.81-3.23-.68-1.27-1.5-2.69-2.28-4.34-1.66-3.23-3.43-7.18-5.2-11.64-1.72-4.48-3.41-9.49-4.83-14.85-1.38-5.36-2.36-10.56-3.05-15.32-.64-4.77-1.02-9.08-1.16-12.72-.13-1.82-.11-3.47-.14-4.9-.04-1.45-.03-2.69,0-3.71,0-.94,0-1.71,0-2.35,0-.54-.03-.82-.06-.82v-.02Z" fill="#2e353a"/>
      <path d="m456.28,234.35l-1.56,9.47-3.86,31.11-31.61-22.58s-9-8.06-17.45-14.17c-5.51-3.98-19.7-6.93-19.7-6.93l22.48,69.61s34.51,15.28,43.09,18.2c8.96,3.05,32.17,7.03,35.09-17.35,2.65-22.17,1.88-62.54,1.88-62.54l-28.36-4.83h0Z" fill="#960044"/>
      <path d="m456.62,297.85s-.23-.26-.56-.78c-.33-.52-.77-1.29-1.27-2.28-1-1.97-2.17-4.81-3-8.08-.82-3.28-1.12-6.33-1.17-8.54-.03-1.11,0-2,.04-2.61.04-.62.09-.95.12-.95.09,0,.06,1.36.19,3.54s.5,5.19,1.31,8.43c.81,3.23,1.92,6.06,2.83,8.05.91,1.99,1.57,3.17,1.51,3.22Z" fill="#2e353a"/>
      <path d="m405.4,324.38s0-.21.06-.62c.07-.46.16-1.04.27-1.76.26-1.53.55-3.74.85-6.48.55-5.48.9-13.16-.41-21.49-.66-4.16-1.64-8.05-2.72-11.53-.57-1.73-1.11-3.38-1.71-4.88-.55-1.53-1.15-2.91-1.69-4.19-1.1-2.53-2.05-4.56-2.73-5.94-.31-.66-.57-1.2-.77-1.61-.17-.37-.25-.57-.23-.58.02,0,.13.18.33.53.22.4.51.92.85,1.57.75,1.36,1.74,3.37,2.89,5.88.56,1.27,1.18,2.65,1.75,4.18.62,1.51,1.17,3.16,1.76,4.89,1.11,3.5,2.11,7.41,2.77,11.6,1.32,8.38.9,16.11.26,21.61-.35,2.75-.7,4.96-1.02,6.48-.15.72-.26,1.29-.35,1.74-.09.4-.14.61-.16.61h0Z" fill="#2e353a"/>
    </g>
  </g>
</svg>