<?xml version="1.0" encoding="UTF-8"?>
<svg id="Layer_2" data-name="Layer 2" xmlns="http://www.w3.org/2000/svg" viewBox="0 0 458.5 442.74">
  <g id="Plant">
    <g>
      <g>
        <path d="m17.63,261.38s9-2.96,13.32,17.82c4.32,20.78,4.96,32.27,4.96,32.27,0,0,1.41,4.49,4.72,2.71,3.31-1.78,8.84-7.89,12.95-5.39,4.27,2.59,4.38,8.17,1.42,15.52-2.96,7.35-8.84,23.69-9.37,25.17-.52,1.45-.26,3.87,2.18,3.02,2.45-.85,17.91-10.82,22.2-3.2,4.29,7.62-7.31,26.74-8.54,28.86-1.23,2.11-1.05,3.21-.12,4.07.93.86,5.81-2.98,10.33-5.64,4.51-2.65,10.21-4.94,12.32-.34s-1.14,20.44-22.86,41.68l-10.71,9.18-13.44-4.48C8.85,411.28-.19,397.88,0,392.82c.19-5.06,6.33-5.12,11.52-4.39,5.19.73,11.16,2.42,11.69,1.27.53-1.15.28-2.23-1.66-3.72-1.94-1.49-19.96-14.74-18.9-23.42s19.16-5.37,21.75-5.51c2.59-.15,1.9-2.48.87-3.62-1.05-1.17-12.72-14.03-18.26-19.69-5.54-5.67-7.56-10.87-4.6-14.89,2.85-3.88,10.29-.34,14.03.04,3.74.39,3.33-4.31,3.33-4.31,0,0-3.78-10.86-7.72-31.72-3.94-20.86,5.76-21.53,5.76-21.53" fill="#f5f5f5"/>
        <path d="m50.54,424.14c-2.95-15.31-7.2-36.42-11.98-59.73-4.77-23.3-9.08-44.4-12.11-59.69-1.51-7.63-2.73-13.81-3.58-18.11-.42-2.12-.75-3.78-.98-4.92-.11-.55-.2-.97-.27-1.28-.06-.29-.11-.43-.11-.43,0,0,.01.15.06.44.05.31.13.74.22,1.29.21,1.15.51,2.81.89,4.94.78,4.29,1.95,10.49,3.42,18.14,2.95,15.31,7.2,36.42,11.97,59.72,4.78,23.31,9.08,44.41,12.11,59.7" fill="#e0e0e0"/>
        <path d="m46.19,317.64s-.24.28-.6.82c-.36.55-.86,1.35-1.47,2.35-1.21,2.01-2.82,4.82-4.53,7.96-1.67,3.09-3.18,5.89-4.34,8.05-.52.95-.96,1.77-1.33,2.43-.32.57-.48.9-.45.92.03.02.24-.28.61-.82.36-.55.86-1.35,1.46-2.36,1.19-2.02,2.76-4.85,4.47-7.99,1.69-3.08,3.22-5.86,4.4-8.02.53-.95.97-1.76,1.34-2.43.31-.58.47-.9.44-.92Z" fill="#e0e0e0"/>
        <path d="m32.16,340.08c.07-.11-5.58-3.68-12.62-7.96-7.04-4.28-12.8-7.66-12.87-7.55-.07.11,5.58,3.68,12.62,7.96,7.04,4.28,12.8,7.66,12.87,7.55Z" fill="#e0e0e0"/>
        <path d="m41.1,375.53s-.35-.15-.99-.33c-.75-.2-1.66-.45-2.73-.74-2.3-.63-5.48-1.51-8.96-2.6-3.48-1.09-6.59-2.18-8.84-2.99-1.05-.37-1.94-.69-2.67-.95-.63-.22-.99-.33-1-.3-.01.03.32.2.93.47.61.27,1.5.65,2.61,1.1,2.22.89,5.33,2.04,8.82,3.13,3.48,1.1,6.69,1.93,9.02,2.47,1.17.27,2.11.47,2.77.59.66.12,1.02.18,1.03.15Z" fill="#e0e0e0"/>
        <path d="m58.27,358.03s-.29.19-.75.61c-.46.41-1.11,1.03-1.91,1.79-1.6,1.53-3.78,3.66-6.17,6.03-2.39,2.38-4.54,4.55-6.07,6.13-.77.79-1.38,1.44-1.8,1.9s-.64.72-.61.74c.02.02.29-.19.75-.61.46-.41,1.11-1.03,1.91-1.79,1.6-1.53,3.78-3.66,6.17-6.03,2.39-2.38,4.54-4.55,6.07-6.13.77-.79,1.38-1.44,1.8-1.9.42-.46.64-.72.61-.74Z" fill="#e0e0e0"/>
        <path d="m70.14,388.33s-.36.26-.95.79c-.65.6-1.47,1.37-2.45,2.29-2.06,1.95-4.88,4.66-7.97,7.67-3.09,3.02-5.88,5.77-7.87,7.77-.94.96-1.73,1.76-2.35,2.4-.55.57-.84.9-.81.93.02.02.36-.26.95-.79.65-.6,1.47-1.37,2.45-2.29,2.06-1.95,4.88-4.66,7.97-7.67,3.09-3.02,5.87-5.77,7.87-7.77.94-.96,1.73-1.76,2.35-2.4.55-.57.84-.9.81-.93Z" fill="#e0e0e0"/>
        <path d="m48.12,409.5s-.43-.19-1.24-.45c-.9-.28-2.05-.64-3.43-1.07-2.89-.9-6.89-2.16-11.26-3.67-4.37-1.5-8.3-2.96-11.13-4.04-1.35-.51-2.48-.94-3.36-1.27-.8-.3-1.24-.44-1.25-.41-.01.03.41.24,1.18.59.77.35,1.9.84,3.3,1.41,2.81,1.16,6.72,2.67,11.1,4.18,4.38,1.51,8.4,2.72,11.32,3.54,1.46.41,2.65.72,3.47.92.82.2,1.28.3,1.29.26Z" fill="#e0e0e0"/>
      </g>
      <g>
        <rect x="333.65" y="21.68" width="93.63" height="135.71" fill="#e0e0e0"/>
        <rect x="328.96" y="21.68" width="93.63" height="135.71" fill="#f5f5f5"/>
        <g>
          <rect x="340.6" y="36.38" width="70.36" height="106.31" fill="#fff"/>
          <path d="m410.96,142.69s0-.18-.01-.52c0-.35,0-.85-.01-1.51,0-1.34-.02-3.29-.03-5.83-.01-5.1-.04-12.52-.06-21.9-.03-18.75-.07-45.29-.11-76.55l.23.23c-21.5,0-45.32.01-70.35.02h0l.25-.25c-.02,40.11-.04,77.08-.05,106.31l-.2-.2c21.43.04,38.99.08,51.21.11,6.11.02,10.89.04,14.15.05,1.62.01,2.86.02,3.71.02.84,0,1.28.02,1.28.02,0,0-.41.01-1.24.02-.84,0-2.07.01-3.68.02-3.25.01-8.01.03-14.1.05-12.25.03-29.86.06-51.34.11h-.2s0-.2,0-.2c-.01-29.23-.03-66.21-.05-106.31v-.25s.25,0,.25,0h0c25.04,0,48.86.01,70.35.02h.23v.23c-.05,31.32-.09,57.92-.12,76.71-.03,9.36-.05,16.76-.06,21.85-.01,2.52-.02,4.46-.03,5.78,0,.64-.01,1.14-.01,1.48,0,.33-.01.49-.01.49Z" fill="#e0e0e0"/>
        </g>
        <path d="m422.85,21.68c.05.04-.58.97-1.67,2.42-1.09,1.45-2.63,3.43-4.39,5.57-1.76,2.14-3.41,4.03-4.63,5.38-1.22,1.35-2.01,2.15-2.06,2.1-.05-.05.64-.93,1.79-2.34,1.26-1.52,2.8-3.4,4.51-5.47,1.71-2.07,3.25-3.95,4.5-5.47,1.16-1.4,1.9-2.25,1.95-2.2Z" fill="#e0e0e0"/>
        <g>
          <path d="m411.32,142.35c3.49,5.56,7.62,10.72,12.27,15.35" fill="#fff"/>
          <path d="m423.59,157.7s-.88-.68-2.14-1.95c-1.26-1.27-2.93-3.09-4.63-5.22-1.7-2.13-3.12-4.16-4.08-5.67-.96-1.51-1.48-2.48-1.43-2.52.06-.04.69.87,1.73,2.31,1.03,1.45,2.48,3.43,4.17,5.55,1.69,2.12,3.31,3.97,4.49,5.29,1.19,1.33,1.93,2.14,1.88,2.19Z" fill="#e0e0e0"/>
        </g>
        <g>
          <path d="m328.95,157.28c4.09-5.04,8.18-10.09,12.26-15.13" fill="#fff"/>
          <path d="m341.21,142.15c.11.09-2.55,3.55-5.93,7.73-3.39,4.18-6.22,7.49-6.33,7.41-.11-.09,2.55-3.55,5.93-7.73,3.39-4.18,6.22-7.49,6.33-7.4Z" fill="#e0e0e0"/>
        </g>
        <path d="m328.96,21.68c.11-.09,2.78,3.1,5.95,7.12,3.18,4.02,5.66,7.35,5.55,7.43-.11.09-2.77-3.1-5.95-7.12-3.18-4.02-5.66-7.34-5.55-7.43Z" fill="#e0e0e0"/>
        <rect x="365.48" y="57.96" width="23.56" height="66.89" fill="#e0e0e0"/>
      </g>
      <g>
        <polygon points="133.37 0 133.37 74.77 25.97 74.77 22.1 .52 133.37 0" fill="#e0e0e0"/>
        <g>
          <rect x="38.76" y="-16.13" width="74.09" height="107.4" transform="translate(38.23 113.37) rotate(-90)" fill="#fff"/>
          <path d="m130.01,75.13H21.6V.01h108.42v75.11Zm-107.4-1.02h106.38V1.03H22.61v73.08Z" fill="#e0e0e0"/>
        </g>
        <g>
          <rect x="33.74" y="9.73" width="84.13" height="55.68" fill="#fff"/>
          <path d="m117.87,9.73s-.14,0-.41.01c-.28,0-.68,0-1.2.01-1.07,0-2.61.02-4.62.03-4.04.02-9.92.04-17.34.07-14.84.03-35.84.07-60.56.12l.24-.24c0,17.01.01,35.86.02,55.68h0s-.27-.26-.27-.26c31.74.02,61,.04,84.13.05l-.21.21c.05-16.95.08-30.84.11-40.51.02-4.84.04-8.61.05-11.2.01-1.28.02-2.26.02-2.94,0-.67.02-1.02.02-1.02,0,0,.02.32.02.98,0,.67.01,1.64.02,2.9.01,2.58.03,6.34.05,11.16.03,9.71.06,23.65.11,40.65v.21s-.21,0-.21,0c-23.13.01-52.4.03-84.13.05h-.27s0-.27,0-.27h0c0-19.82.02-38.67.02-55.68v-.24h.24c24.79.05,45.85.09,60.72.12,7.4.03,13.25.05,17.28.07,1.99.01,3.52.02,4.57.03.5,0,.89.01,1.17.01.26,0,.39.01.39.01Z" fill="#e0e0e0"/>
        </g>
        <path d="m22.1.31c.04-.06.75.4,1.85,1.2,1.1.79,2.59,1.92,4.21,3.21,1.62,1.29,3.04,2.52,4.04,3.43,1,.92,1.59,1.52,1.54,1.57-.1.11-2.68-2.02-5.91-4.59C24.6,2.56,22.01.44,22.1.31Z" fill="#e0e0e0"/>
        <path d="m129.5.52c.09.11-2.44,2.27-5.65,4.81-3.21,2.54-5.89,4.51-5.98,4.39-.09-.11,2.44-2.27,5.65-4.81,3.21-2.54,5.89-4.51,5.98-4.39Z" fill="#e0e0e0"/>
        <g>
          <path d="m129.42,74.63c-3.99-3.24-7.98-6.47-11.97-9.71" fill="#fff"/>
          <path d="m117.44,64.92c.09-.11,2.85,1.97,6.15,4.65,3.31,2.68,5.91,4.95,5.82,5.06s-2.85-1.97-6.15-4.65c-3.31-2.68-5.91-4.94-5.82-5.06Z" fill="#e0e0e0"/>
        </g>
        <path d="m22.1,74.62c-.09-.11,2.41-2.25,5.59-4.76,3.18-2.51,5.83-4.46,5.92-4.34.09.11-2.41,2.25-5.59,4.76-3.18,2.51-5.83,4.46-5.92,4.34Z" fill="#e0e0e0"/>
        <rect x="67.97" y="9.93" width="18.64" height="52.94" transform="translate(40.89 113.69) rotate(-90)" fill="#e0e0e0"/>
      </g>
      <g>
        <g>
          <path d="m384.66,248.28c-15.09,14.3-38.95,13.64-53.29-1.49-14.34-15.13-13.73-38.98,1.37-53.29,15.09-14.3,38.95-13.64,53.28,1.49,14.34,15.13,13.73,38.98-1.36,53.29Z" fill="#ebebeb"/>
          <path d="m378.49,241.76c-11.5,10.9-29.68,10.39-40.61-1.14-10.93-11.53-10.46-29.71,1.04-40.61,11.5-10.9,29.68-10.39,40.61,1.13,10.92,11.53,10.46,29.71-1.04,40.61Z" fill="#f5f5f5"/>
          <path d="m379.14,241.14c-.12-.12.71-1.08,1.99-2.93,1.26-1.85,2.96-4.66,4.11-8.47.57-1.9,1.01-4.04,1.17-6.36.15-2.32.05-4.82-.45-7.37-.25-1.28-.57-2.58-1.03-3.86-.45-1.29-.97-2.58-1.64-3.83-.66-1.25-1.4-2.49-2.27-3.66-.87-1.17-1.84-2.3-2.9-3.36-1.07-1.05-2.21-2.01-3.39-2.87-1.18-.86-2.43-1.59-3.68-2.24-1.26-.65-2.55-1.17-3.84-1.6-1.29-.44-2.59-.76-3.87-.99-2.56-.48-5.06-.55-7.38-.38-2.32.19-4.45.64-6.35,1.23-3.8,1.19-6.59,2.91-8.43,4.19-1.84,1.3-2.79,2.14-2.91,2.01-.09-.09.65-1.14,2.38-2.69,1.73-1.53,4.51-3.54,8.46-4.99,1.97-.72,4.21-1.29,6.67-1.58,2.46-.26,5.13-.26,7.89.2,1.38.22,2.78.54,4.18.99,1.4.45,2.8.99,4.16,1.68,1.36.69,2.71,1.47,3.99,2.39,1.28.92,2.51,1.95,3.66,3.08,1.14,1.15,2.18,2.36,3.12,3.64.93,1.27,1.73,2.61,2.43,3.97.7,1.35,1.26,2.75,1.71,4.14.47,1.39.79,2.79,1.03,4.17.48,2.76.51,5.43.27,7.89-.26,2.46-.81,4.71-1.51,6.69-1.41,3.96-3.4,6.76-4.91,8.5-1.53,1.74-2.58,2.5-2.67,2.41Z" fill="#e0e0e0"/>
        </g>
        <path d="m348.49,235.05l-3.59,3.5-3.12-3.2,3.49-3.4c-2.9-3.36-4.88-7.37-5.22-10.47l5.62-2.05c.38,2.76,1.76,5.9,3.79,8.43l5.35-5.22c-2.6-4.4-5.29-9.52-.71-13.99,3.39-3.31,8.71-3.69,14.22.81l3.55-3.47,3.12,3.2-3.49,3.4c2.15,2.59,3.79,5.55,4.39,8.4l-5.5,2.24c-.67-2.54-1.74-4.73-3.11-6.52l-5.44,5.31c2.63,4.36,5.26,9.43.75,13.83-3.33,3.25-8.58,3.63-14.1-.81Zm11.03-17.01l4.54-4.44c-2.04-1.32-3.62-1.09-4.68-.06-1.12,1.09-.79,2.65.14,4.49Zm-2.34,13.03c1.12-1.09.82-2.61-.04-4.46l-4.42,4.31c1.91,1.26,3.43,1.15,4.46.15Z" fill="#e0e0e0"/>
      </g>
      <g>
        <g>
          <path d="m236.82,293.02c7.15,20.63-3.82,43.16-24.5,50.32-20.68,7.16-43.23-3.75-50.38-24.38-7.15-20.63,3.82-43.16,24.5-50.32,20.68-7.16,43.23,3.75,50.38,24.38Z" fill="#ebebeb"/>
          <path d="m227.92,296.11c5.45,15.72-2.91,32.89-18.67,38.35-15.75,5.46-32.94-2.86-38.39-18.58-5.45-15.72,2.91-32.89,18.67-38.35,15.76-5.46,32.94,2.86,38.39,18.58Z" fill="#f5f5f5"/>
          <path d="m227.6,295.21c-.17.07-.73-1.14-1.94-3.17-1.22-2.01-3.17-4.85-6.32-7.6-1.57-1.37-3.43-2.71-5.57-3.88-2.15-1.14-4.58-2.14-7.25-2.76-1.33-.32-2.71-.57-4.14-.69-1.42-.13-2.89-.18-4.37-.09-1.48.09-2.99.26-4.48.59-1.5.32-2.99.76-4.47,1.31-1.47.57-2.88,1.24-4.21,2-1.34.76-2.57,1.63-3.74,2.55-1.17.92-2.22,1.93-3.2,2.98-.98,1.04-1.85,2.15-2.62,3.27-1.57,2.24-2.72,4.6-3.56,6.89-.82,2.3-1.31,4.54-1.57,6.6-.51,4.15-.07,7.57.36,9.88.45,2.32.84,3.59.67,3.66-.13.05-.81-1.12-1.54-3.44-.71-2.31-1.44-5.85-1.12-10.25.16-2.19.59-4.59,1.38-7.07.81-2.47,1.97-5.02,3.61-7.47.81-1.22,1.72-2.43,2.76-3.57,1.03-1.14,2.16-2.25,3.4-3.25,1.25-1.01,2.58-1.96,4.01-2.78,1.43-.83,2.95-1.55,4.54-2.17,1.59-.6,3.21-1.06,4.83-1.41,1.62-.34,3.25-.52,4.85-.6,1.6-.09,3.18,0,4.71.15,1.53.16,3.01.45,4.43.82,2.84.73,5.41,1.86,7.67,3.16,2.24,1.31,4.16,2.82,5.74,4.34,3.18,3.07,4.99,6.18,6.01,8.38,1,2.22,1.27,3.54,1.15,3.59Z" fill="#e0e0e0"/>
        </g>
        <path d="m208.51,321.89l1.79,4.94-4.41,1.6-1.74-4.81c-4.47,1.32-9.16,1.47-12.27.46l.47-6.27c2.8.83,6.41.87,9.7.03l-2.67-7.37c-5.33.59-11.4.94-13.69-5.37-1.7-4.68.24-9.93,6.93-13.25l-1.78-4.9,4.41-1.6,1.75,4.81c3.41-.94,6.95-1.22,9.94-.56l-.24,6.23c-2.72-.46-5.28-.38-7.59.15l2.72,7.51c5.32-.63,11.29-.95,13.55,5.27,1.67,4.59-.25,9.78-6.88,13.13Zm-11.49-17.91l-2.27-6.27c-2.15,1.38-2.61,2.99-2.08,4.45.56,1.54,2.19,1.9,4.36,1.82Zm11.45,7.89c-.56-1.55-2.14-1.92-4.28-1.89l2.21,6.09c2.03-1.29,2.59-2.79,2.07-4.2Z" fill="#e0e0e0"/>
      </g>
      <g>
        <g>
          <path d="m86.31,195.18c.23,18.32-14.47,33.36-32.84,33.59-18.36.23-33.44-14.44-33.66-32.76-.23-18.32,14.47-33.36,32.84-33.59,18.36-.23,33.44,14.44,33.67,32.76Z" fill="#ebebeb"/>
          <path d="m78.4,195.28c.17,13.96-11.03,25.42-25.02,25.6-13.99.17-25.48-11-25.65-24.96-.17-13.96,11.03-25.42,25.02-25.6,13.99-.17,25.48,11,25.66,24.96Z" fill="#f5f5f5"/>
          <path d="m78.39,194.48c-.15,0-.28-1.1-.71-3.04-.44-1.92-1.24-4.7-3.02-7.73-.89-1.51-2.01-3.07-3.41-4.56-1.41-1.48-3.08-2.92-5.04-4.12-.97-.61-2.01-1.17-3.11-1.64-1.1-.48-2.25-.91-3.46-1.23-1.2-.32-2.45-.58-3.73-.72-1.28-.14-2.59-.19-3.91-.14-1.32.07-2.62.23-3.88.48-1.26.25-2.48.62-3.65,1.04-1.17.42-2.28.95-3.34,1.53-1.06.57-2.04,1.22-2.96,1.91-1.84,1.37-3.38,2.95-4.66,4.55-1.26,1.61-2.25,3.27-3,4.84-1.5,3.17-2.06,6.01-2.33,7.96-.26,1.97-.28,3.08-.44,3.09-.11,0-.35-1.1-.32-3.15.04-2.03.4-5.04,1.83-8.46.71-1.7,1.68-3.5,2.97-5.26,1.3-1.75,2.9-3.48,4.85-4.99.97-.76,2.01-1.48,3.14-2.11,1.12-.64,2.31-1.22,3.57-1.69,1.26-.47,2.57-.88,3.93-1.15,1.36-.28,2.76-.46,4.19-.53,1.43-.05,2.84,0,4.22.16,1.38.16,2.72.45,4.02.8,1.3.36,2.53.83,3.71,1.37,1.18.53,2.28,1.16,3.31,1.83,2.07,1.34,3.82,2.92,5.27,4.55,1.44,1.64,2.56,3.35,3.42,4.98,1.72,3.28,2.34,6.25,2.56,8.27.21,2.03.08,3.16-.04,3.16Z" fill="#e0e0e0"/>
        </g>
        <path d="m56.12,210.67l.12,4.41-3.94.11-.12-4.29c-3.91-.13-7.68-1.25-9.89-2.89l2.04-4.87c2.01,1.41,4.87,2.39,7.72,2.59l-.18-6.58c-4.4-.94-9.33-2.27-9.48-7.91-.11-4.18,2.82-7.84,9.03-8.72l-.12-4.37,3.94-.11.12,4.3c2.96.16,5.86.87,8.06,2.19l-1.84,4.9c-2.04-1.09-4.11-1.7-6.08-1.89l.18,6.7c4.4.91,9.25,2.24,9.4,7.79.11,4.1-2.79,7.72-8.95,8.64Zm-4.41-17.31l-.15-5.59c-2.07.53-2.87,1.69-2.84,2.99.04,1.38,1.24,2.1,2.99,2.6Zm7.03,9.31c-.04-1.38-1.2-2.1-2.91-2.64l.15,5.44c1.96-.49,2.8-1.53,2.76-2.79Z" fill="#e0e0e0"/>
      </g>
      <path d="m243.8,51.91c2.36-4.23,3.71-9.1,3.71-14.3,0-16.11-12.91-29.18-28.84-29.18-2.66,0-5.23.37-7.67,1.05,12.2,3.4,21.17,14.7,21.17,28.13s-8.97,24.73-21.17,28.13c2.44.68,5.01,1.05,7.67,1.05,5.61,0,10.85-1.63,15.28-4.43l13.57,5.25-3.71-15.69Z" fill="#ebebeb"/>
      <path d="m431.32,427.11c0,.14-95.09.26-212.36.26s-212.38-.12-212.38-.26,95.07-.26,212.38-.26,212.36.12,212.36.26Z" fill="#263238"/>
      <g>
        <g>
          <path d="m121.04,395l.82,24.89,6.32,19.5c.46,1.41-.37,2.9-1.81,3.26h0c-.8.2-1.65,0-2.27-.53-4-3.43-18.64-16.11-18.59-17.93.05-2.11-2.6-26.19-2.6-26.19l18.14-2.99Z" fill="#393838"/>
          <path d="m126.37,442.64l-20.96-20.14.06,1.05c.05.91.42,1.77,1.05,2.44,1.68,1.77,6.43,6.55,17.51,16.13.64.56,1.53.76,2.35.53h0Z" fill="#e0e0e0"/>
          <path d="m110.06,414.2c.65.4.9,1.33.53,1.99-.37.66-1.31.93-1.97.55-.65-.38-1-1.49-.55-2.11.44-.62,1.57-.87,2.11-.34" fill="#fff"/>
          <path d="m120.08,432.1c.14.06.63-1.27,2.07-2.06,1.42-.83,2.81-.55,2.83-.71.02-.06-.31-.24-.89-.29-.58-.05-1.42.08-2.21.52-.79.45-1.33,1.09-1.59,1.62-.26.53-.28.9-.22.91Z" fill="#fff"/>
          <path d="m122.04,435.33c.12.1.88-.75,2.14-1.19,1.26-.47,2.38-.29,2.41-.45.06-.13-1.16-.59-2.6-.07-1.44.51-2.09,1.65-1.96,1.71Z" fill="#fff"/>
          <path d="m116.54,428.01c.12.11,1.27-1.21,3.18-2.06,1.89-.89,3.64-.9,3.64-1.07.03-.13-1.83-.38-3.87.57-2.04.92-3.08,2.5-2.95,2.56Z" fill="#fff"/>
          <path d="m115.66,420.47c.07.15,1.42-.51,3.2-.67,1.78-.19,3.22.19,3.27.03.06-.13-1.41-.77-3.32-.57-1.92.18-3.23,1.1-3.15,1.21Z" fill="#fff"/>
          <path d="m115.24,413.17c.09.14,1.42-.77,3.31-.79,1.89-.06,3.26.79,3.34.64.04-.05-.25-.35-.84-.65-.59-.3-1.49-.56-2.51-.54-1.02.02-1.91.32-2.49.65-.58.32-.85.63-.81.69Z" fill="#fff"/>
          <path d="m118.43,411s.07-.34-.02-.94c-.09-.6-.31-1.48-.88-2.42-.29-.45-.61-1.03-1.32-1.31-.35-.15-.86-.05-1.14.29-.27.34-.34.75-.33,1.14.11,1.58,1.55,3.03,3.34,3.16,1.79.1,3.35-1.01,3.98-2.41.13-.36.22-.8,0-1.21-.21-.41-.73-.55-1.08-.47-.73.15-1.17.6-1.59.94-.82.74-1.31,1.49-1.59,2.03-.28.54-.36.87-.33.88.09.06.56-1.26,2.17-2.61.41-.31.88-.71,1.41-.79.26-.04.49.05.59.25.11.2.07.51-.05.79-.53,1.15-1.96,2.16-3.48,2.05-1.51-.09-2.77-1.37-2.87-2.64-.02-.31.04-.62.2-.81.15-.19.39-.25.63-.17.49.17.85.67,1.14,1.09,1.15,1.77,1.12,3.19,1.23,3.16Z" fill="#fff"/>
        </g>
        <g>
          <g>
            <path d="m169.48,398.7l-1.29,18.61s18.48,7.56,18.58,11.02l-36.17-1.2.82-29.08,18.06.65Z" fill="#393838"/>
            <path d="m157.06,415.36c-.71.17-1.22.94-1.08,1.65.14.71.92,1.24,1.63,1.08.71-.16,1.35-1.06,1.13-1.76-.22-.69-1.17-1.26-1.82-.94" fill="#e0e0e0"/>
            <path d="m150.6,427.12l.2-2.93,34.61,2.25s1.59.75,1.37,1.88l-36.17-1.2Z" fill="#e0e0e0"/>
            <path d="m168.79,417.14c-.01.18-.9.23-1.79.77-.9.52-1.38,1.27-1.54,1.19-.16-.04.14-1.09,1.22-1.72,1.08-.64,2.14-.4,2.1-.24Z" fill="#fff"/>
            <path d="m172.53,418.83c.03.17-.74.45-1.36,1.17-.65.71-.82,1.51-1,1.5-.17.02-.25-1.02.54-1.91.79-.9,1.83-.94,1.83-.77Z" fill="#fff"/>
            <path d="m174.53,423.45c-.16.03-.38-.86.11-1.81.48-.96,1.32-1.31,1.39-1.16.09.15-.46.65-.85,1.44-.41.78-.48,1.52-.66,1.53Z" fill="#fff"/>
            <path d="m168.61,412.87c-.08.16-.88-.11-1.88-.08-1,.01-1.79.32-1.88.17-.1-.13.68-.76,1.86-.78,1.18-.03,1.99.56,1.9.69Z" fill="#fff"/>
          </g>
          <path d="m168.8,409.11c0,.07-.7.16-1.81-.07-.55-.11-1.2-.32-1.88-.65-.34-.16-.68-.36-1.02-.59-.16-.11-.36-.23-.53-.44-.19-.19-.29-.66-.05-.94.19-.27.53-.38.79-.38.27,0,.48.06.68.12.4.11.77.26,1.11.42.68.34,1.23.75,1.63,1.15.81.81,1.08,1.47,1.02,1.51-.08.06-.47-.51-1.3-1.18-.42-.33-.95-.68-1.59-.96-.32-.14-.66-.26-1.03-.36-.38-.11-.71-.13-.81.04-.04.06-.04.09.03.2.08.11.23.21.39.32.31.22.63.41.94.58.62.33,1.22.57,1.73.73,1.03.32,1.71.39,1.7.49Z" fill="#263238"/>
          <path d="m168.56,409.35c-.06.03-.39-.62-.42-1.77-.01-.57.07-1.25.31-1.98.12-.36.29-.73.5-1.08.22-.35.5-.82,1.19-.88.36,0,.65.29.74.53.11.25.13.46.16.67.05.42.03.84-.04,1.22-.14.77-.48,1.4-.84,1.85-.74.91-1.48,1.1-1.5,1.04-.06-.09.57-.41,1.14-1.29.28-.44.54-1.01.63-1.68.05-.33.05-.69,0-1.05-.04-.39-.18-.7-.32-.67-.18,0-.5.27-.65.57-.2.32-.36.65-.48.97-.25.65-.37,1.27-.41,1.8-.08,1.06.08,1.73-.02,1.75Z" fill="#263238"/>
        </g>
        <g>
          <polygon points="95.12 215.05 100.46 415.1 129 414.24 135.8 208.23 95.12 215.05" fill="#263238"/>
          <path d="m154.43,207.89s21.18,84.8,21.83,99.26c.65,14.46-4.53,104.84-4.53,104.84h-27.94l2.33-102.92-21.22-87.1,5.14-13.64,24.38-.45Z" fill="#263238"/>
          <path d="m137.19,218.31s.01.09.01.27c0,.21,0,.47-.02.79-.03.74-.07,1.76-.11,3.05-.12,2.69-.3,6.5-.51,11.2-.49,9.49-1.15,22.54-1.89,36.95-.8,14.41-1.52,27.46-2.04,36.95-.28,4.7-.52,8.51-.68,11.2-.09,1.29-.16,2.31-.21,3.04-.03.32-.05.58-.07.79-.02.18-.03.27-.04.27s-.01-.09-.01-.27c0-.21,0-.47.02-.79.03-.74.07-1.75.11-3.05.12-2.69.3-6.5.51-11.2.49-9.49,1.15-22.54,1.89-36.96.8-14.41,1.52-27.45,2.04-36.94.28-4.7.52-8.51.68-11.19.09-1.29.16-2.31.21-3.04.03-.32.05-.58.07-.79.02-.18.03-.27.04-.27Z" fill="#455a64"/>
        </g>
        <g>
          <path d="m134.05,99.15s10.36,51.44,10.52,65.93c.15,14.49,5.24,42.81,5.24,42.81h-44.9l-.97-78.37-3.2-23.38,6.74-9.61,26.57,2.62Z" fill="#f5f5f5"/>
          <g>
            <path d="m134.6,100.67s10.71,3.15,13.54,7.11c2.23,3.13,5.25,62.29,5.25,62.29l4.6,52.11-4.49-.42-6.34-19.51-12.55-101.59Z" fill="#efc037"/>
            <path d="m148.14,107.77l30.24,27.75,37.21-12.06,7.41,15.62-39.7,18.02c-5.67,2.42-9.23,1.09-13.17-2.07l-20.83-16.68-1.16-30.59Z" fill="#efc037"/>
            <g>
              <g>
                <path d="m208.67,128.45c.21.4.06.89-.34,1.1-.4.21-.89.06-1.1-.34-.21-.4-.06-.89.34-1.1s.89-.06,1.1.34Z" fill="#263238"/>
                <path d="m207.95,129.67c-.08,0-.16-.01-.24-.04-.22-.07-.39-.21-.5-.41-.11-.2-.13-.43-.06-.64.07-.21.21-.39.41-.5.2-.11.43-.13.64-.06.21.07.39.21.5.41.11.2.13.43.06.64-.06.21-.21.39-.41.5-.12.07-.26.1-.4.1Zm0-1.63c-.13,0-.25.03-.37.09-.19.1-.32.27-.38.47-.06.2-.04.42.06.6.1.19.27.32.47.38.2.06.42.04.6-.06.19-.1.32-.27.38-.47.06-.2.04-.42-.06-.6-.14-.27-.42-.42-.7-.42Z" fill="#263238"/>
              </g>
              <g>
                <path d="m211.78,127.7c.21.4.06.89-.34,1.1-.4.21-.89.06-1.1-.34s-.06-.89.34-1.1c.4-.21.89-.06,1.1.34Z" fill="#263238"/>
                <path d="m211.07,128.93c-.08,0-.16-.01-.24-.04-.22-.06-.39-.21-.5-.41-.22-.41-.06-.92.35-1.14.2-.1.43-.13.64-.06.21.07.39.21.5.41.11.2.13.43.06.64-.07.21-.21.39-.41.5-.12.07-.26.1-.4.1Zm0-1.63c-.13,0-.26.03-.37.09-.38.21-.53.69-.32,1.07.1.19.27.32.47.38.2.06.42.04.6-.06.38-.21.53-.69.33-1.07-.1-.19-.27-.32-.47-.38-.08-.02-.15-.03-.23-.03Z" fill="#263238"/>
              </g>
              <g>
                <path d="m214.75,127.11c.21.4.06.89-.34,1.1-.4.21-.89.06-1.1-.34-.21-.4-.06-.89.34-1.1s.89-.06,1.1.34Z" fill="#263238"/>
                <path d="m214.04,128.33c-.08,0-.16-.01-.25-.04-.21-.07-.39-.21-.5-.41-.11-.2-.13-.43-.06-.64.06-.22.21-.39.41-.5.41-.22.92-.06,1.14.35h0c.22.41.06.92-.35,1.14-.12.07-.26.1-.39.1Zm0-1.63c-.13,0-.25.03-.37.09-.19.1-.32.27-.38.47-.06.2-.04.42.06.6.1.19.27.32.47.38.2.06.42.04.6-.06.38-.21.53-.69.33-1.07h0c-.14-.27-.42-.42-.7-.42Z" fill="#263238"/>
              </g>
            </g>
            <polygon points="215.96 124.25 218.84 123.19 225.45 137.11 222.64 138.31 215.96 124.25" fill="#e0e0e0"/>
            <path d="m149.11,118.74s.09.55.17,1.56c.11,1.09.26,2.52.43,4.24.42,3.67.97,8.56,1.58,13.98.6,5.46,1.09,10.42,1.31,14.02.12,1.8.17,3.26.18,4.27,0,1.01-.02,1.57-.05,1.57-.04,0-.09-.56-.15-1.56-.07-1-.18-2.45-.35-4.25-.32-3.58-.86-8.53-1.46-13.99-.6-5.46-1.14-10.41-1.43-14-.15-1.8-.23-3.25-.27-4.26-.02-1.01,0-1.57.03-1.57Z" fill="#263238"/>
            <path d="m155.72,125.68c.14.04-.71,3.38-1.89,7.46-1.18,4.08-2.26,7.35-2.39,7.31s.71-3.38,1.89-7.46c1.18-4.08,2.26-7.35,2.39-7.31Z" fill="#263238"/>
            <path d="m178.06,144.9c-.06.03-.37-.45-.67-1.32-.3-.87-.54-2.14-.45-3.55.09-1.41.49-2.65.89-3.47.4-.83.78-1.26.83-1.23.15.07-1.05,2.02-1.2,4.73-.19,2.71.76,4.79.6,4.85Z" fill="#263238"/>
          </g>
          <g>
            <polygon points="174.6 177.04 178.47 177.34 176.94 193.49 173.2 193.06 174.6 177.04" fill="#e0e0e0"/>
            <g>
              <path d="m107.49,97.65l-20.87,13.3c-4.9,3.44-6.95,9.69-5.06,15.37l16.01,50.29-5.77,45.7,45.73-1.94-1.11-20.03-3.88-35.84c-.72-6.65-2.37-13.16-4.91-19.34l-20.14-47.52Z" fill="#efc037"/>
              <path d="m85.69,129.09l20.87,43.68c1.69,3.53,4.88,6.1,8.68,7l57.92,13.72,1.48-16.86-44.21-16.63-22.24-42.69c-3.38-6.49-11.55-8.79-17.82-5.01h0c-5.76,3.47-7.81,10.83-4.68,16.78Z" fill="#efc037"/>
              <path d="m174.64,176.62s-.08-.01-.24-.06c-.18-.06-.4-.14-.68-.23-.63-.23-1.51-.54-2.62-.94-2.31-.85-5.61-2.06-9.7-3.57-8.25-3.08-19.71-7.37-32.69-12.22l-.09-.04-.05-.09c-1.23-2.45-2.53-5.01-3.85-7.62-3.63-7.06-7.24-13.71-10.62-19.71-1.69-3-3.32-5.83-4.86-8.48-.77-1.32-1.52-2.59-2.24-3.82-.35-.62-.72-1.21-1.1-1.76-.35-.58-.78-1.08-1.18-1.58-1.65-1.99-3.67-3.28-5.56-4.03-1.9-.75-3.69-.98-5.13-.91-2.93.1-4.27,1.24-4.29,1.15,0,0,.08-.07.24-.17.17-.11.41-.28.77-.42.7-.32,1.8-.68,3.27-.76,1.46-.09,3.29.1,5.25.85,1.94.74,4.03,2.05,5.73,4.07.42.51.86,1.02,1.22,1.6.4.57.77,1.16,1.12,1.77.73,1.22,1.49,2.49,2.27,3.8,1.56,2.64,3.2,5.46,4.9,8.46,3.4,5.99,7.03,12.63,10.66,19.7,1.34,2.6,2.63,5.18,3.84,7.63l-.14-.13c12.95,4.91,24.39,9.25,32.63,12.38,4.07,1.57,7.35,2.83,9.64,3.71,1.1.43,1.97.78,2.59,1.02.27.11.49.2.67.28.15.06.22.1.22.11Z" fill="#263238"/>
              <g>
                <g>
                  <path d="m164.8,187.14c0,.45-.37.82-.82.82s-.82-.37-.82-.82.37-.82.82-.82.82.37.82.82Z" fill="#263238"/>
                  <path d="m163.98,187.98c-.46,0-.84-.38-.84-.84s.38-.84.84-.84.84.38.84.84-.38.84-.84.84Zm0-1.63c-.44,0-.79.35-.79.79s.35.79.79.79.79-.35.79-.79-.35-.79-.79-.79Z" fill="#263238"/>
                </g>
                <g>
                  <path d="m167.9,187.95c0,.45-.37.82-.82.82s-.82-.37-.82-.82.37-.82.82-.82.82.37.82.82Z" fill="#263238"/>
                  <path d="m167.08,188.79c-.46,0-.84-.38-.84-.84s.38-.84.84-.84.84.38.84.84-.38.84-.84.84Zm0-1.63c-.44,0-.79.36-.79.79s.35.79.79.79.79-.36.79-.79-.36-.79-.79-.79Z" fill="#263238"/>
                </g>
                <g>
                  <circle cx="169.98" cy="188.82" r=".82" fill="#263238"/>
                  <path d="m169.98,189.66c-.46,0-.84-.38-.84-.84s.38-.84.84-.84.84.38.84.84-.38.84-.84.84Zm0-1.63c-.44,0-.79.35-.79.79s.35.79.79.79.79-.35.79-.79-.35-.79-.79-.79Z" fill="#263238"/>
                </g>
              </g>
              <path d="m173.16,193.49s-.1,0-.28-.04c-.21-.05-.48-.11-.81-.18-.75-.18-1.79-.43-3.12-.75-2.74-.68-6.65-1.64-11.45-2.82-9.67-2.37-23.02-5.73-37.82-9.16-1.85-.44-3.69-.79-5.49-1.28-1.79-.49-3.57-1.22-4.95-2.47-1.38-1.25-2.26-2.85-3.03-4.39-.74-1.56-1.47-3.08-2.18-4.57-2.82-5.94-5.35-11.3-7.49-15.81-2.1-4.48-3.81-8.12-5.01-10.68-.57-1.24-1.02-2.21-1.34-2.91-.14-.31-.25-.56-.34-.76-.07-.17-.11-.26-.1-.27,0,0,.06.08.15.25.1.19.23.44.38.74.34.69.82,1.65,1.43,2.87,1.24,2.54,2.99,6.16,5.16,10.61,2.17,4.5,4.74,9.84,7.59,15.76.72,1.48,1.45,3,2.2,4.55.77,1.53,1.63,3.07,2.93,4.24,1.3,1.17,2.99,1.87,4.75,2.35,1.77.48,3.62.83,5.47,1.28,14.81,3.43,28.14,6.84,37.79,9.31,4.79,1.25,8.68,2.27,11.41,2.98,1.32.36,2.35.64,3.1.84.33.1.59.17.8.23.18.06.27.09.27.1Z" fill="#263238"/>
              <path d="m126.38,190.75s-.23.24-.69.58c-.46.35-1.15.83-2.01,1.41-1.72,1.14-4.18,2.69-7.19,3.74-3.02,1.06-6,1.19-8.06.81-1.03-.18-1.84-.45-2.38-.68-.54-.23-.81-.4-.8-.43.04-.09,1.2.49,3.23.75,2.02.28,4.89.09,7.84-.94,2.95-1.03,5.4-2.5,7.17-3.56,1.76-1.07,2.85-1.74,2.89-1.68Z" fill="#263238"/>
              <path d="m128.92,196.55s.07.12.14.38c.09.25.17.63.27,1.12.18.99.27,2.46-.04,4.24-.33,1.77-1.09,3.85-2.6,5.73-1.49,1.89-3.77,3.43-6.44,4.19-2.67.74-5.43.6-7.68-.24-2.26-.82-4-2.21-5.19-3.55-1.19-1.36-1.87-2.67-2.23-3.61-.18-.47-.3-.84-.35-1.1-.06-.26-.09-.39-.07-.4.12-.07.53,2.24,2.93,4.85,1.2,1.27,2.9,2.58,5.08,3.35,2.17.79,4.81.9,7.38.19,2.56-.73,4.76-2.19,6.21-3.99,1.47-1.79,2.25-3.79,2.61-5.49.69-3.48-.15-5.67,0-5.67Z" fill="#263238"/>
            </g>
          </g>
        </g>
        <g>
          <g>
            <g>
              <g>
                <path d="m109.74,57.84l.13,37.26c.02,6.34,5.34,11.37,11.67,11.03h0c5.91-.31,10.53-5.21,10.5-11.13-.01-2.8-.02-5.14,0-5.43,0,0,9.48-.93,10.13-10.32.31-4.54.2-13.94,0-22.44-.21-9.13-7.42-16.56-16.54-17.08l-.91-.05c-9.81.01-15.28,8.35-14.99,18.16Z" fill="#b78876"/>
                <path d="m132.06,89.44s-5.97.14-12.05-4.18c0,0,2.51,6.93,11.94,6.62l.12-2.44Z" fill="#aa6550"/>
              </g>
              <g>
                <g>
                  <g>
                    <path d="m139.85,62.34c-.02.71-.63,1.28-1.37,1.28-.74,0-1.33-.58-1.31-1.29.02-.71.63-1.28,1.37-1.28.74,0,1.33.58,1.32,1.29Z" fill="#263238"/>
                    <path d="m140.11,60.76c-.18.17-1.15-.64-2.59-.72-1.44-.1-2.54.58-2.69.4-.07-.08.11-.39.6-.7.47-.31,1.27-.59,2.17-.53.9.06,1.64.43,2.05.79.42.37.56.69.47.76Z" fill="#263238"/>
                  </g>
                  <g>
                    <path d="m125.81,62.23c-.02.71-.63,1.28-1.37,1.28-.74,0-1.33-.58-1.31-1.29.02-.71.63-1.28,1.37-1.28.74,0,1.33.58,1.32,1.29Z" fill="#263238"/>
                    <path d="m125.74,60.43c-.18.17-1.15-.64-2.6-.72-1.44-.1-2.54.58-2.69.4-.07-.08.11-.39.6-.7.47-.31,1.27-.59,2.17-.54.9.06,1.64.43,2.05.79.42.37.56.69.47.76Z" fill="#263238"/>
                  </g>
                  <path d="m130.31,71.78c0-.08.9-.19,2.37-.29.37-.02.72-.07.8-.32.1-.26-.03-.67-.18-1.11-.3-.91-.61-1.87-.93-2.87-1.29-4.08-2.2-7.43-2.03-7.48.17-.05,1.34,3.22,2.63,7.3.31,1.01.6,1.97.88,2.88.12.43.33.92.11,1.46-.11.27-.4.45-.64.5-.24.06-.45.05-.63.05-1.47,0-2.38-.05-2.38-.13Z" fill="#263238"/>
                </g>
                <path d="m126.32,57.43c-.16.38-1.6.12-3.3.22-1.71.07-3.1.49-3.31.13-.09-.17.17-.53.74-.88.57-.35,1.46-.66,2.49-.71,1.02-.05,1.95.16,2.55.45.61.29.9.61.83.8Z" fill="#263238"/>
                <path d="m139.99,57.31c-.27.31-1.25-.08-2.44-.17-1.19-.13-2.22.09-2.44-.26-.09-.17.09-.49.55-.78.45-.28,1.2-.5,2.02-.42.82.07,1.52.41,1.91.77.4.36.52.71.4.86Z" fill="#263238"/>
              </g>
              <g>
                <path d="m110.11,64.84c-.16-.08-6.35-2.28-6.51,4.16-.16,6.44,6.33,5.27,6.35,5.09.02-.18.16-9.24.16-9.24Z" fill="#b78876"/>
                <path d="m108.04,71.6s-.11.08-.31.16c-.19.08-.51.13-.84,0-.67-.27-1.22-1.36-1.22-2.52,0-.59.13-1.14.35-1.6.21-.47.52-.79.86-.84.34-.07.58.14.65.32.08.18.04.31.07.32.02.02.14-.1.1-.37-.02-.13-.1-.28-.24-.41-.15-.13-.38-.2-.62-.18-.5.02-.96.47-1.2.97-.27.5-.44,1.13-.43,1.78,0,1.3.64,2.53,1.57,2.82.45.13.83,0,1.03-.14.2-.15.24-.3.22-.31Z" fill="#aa6550"/>
              </g>
            </g>
            <path d="m106.55,64.42c.99-.18,2.64.82,3,1.76.37.94.4,1.99.76,2.93.36.94,1.26,1.83,2.25,1.65.69-.12,1.21-.73,1.42-1.39.22-.66.18-1.38.14-2.07-.21-3.02-.67-6.03-.62-9.06.05-3.03.66-6.14,2.39-8.63,1.73-2.48,4.76-4.21,7.76-3.8,1.99.27,3.76,1.42,5.73,1.81,2.33.46,4.87-.22,6.65-1.81.06-.05.18-.14.32-.23.65-.42.98-1.23.73-1.97-.08-.25-.19-.48-.34-.64-3.73-3.86-10.76-5.28-16.03-4.27-5.27,1.01-10.36,4.4-12.87,9.15-2.51,4.74-2.24,11.56-1.29,16.56" fill="#263238"/>
          </g>
          <path d="m126.9,72.92c.23-.01.24,1.55,1.58,2.66,1.34,1.11,3,.94,3.02,1.16.02.1-.37.3-1.08.32-.69.02-1.7-.2-2.52-.88-.82-.68-1.17-1.59-1.22-2.23-.06-.65.11-1.04.22-1.03Z" fill="#263238"/>
        </g>
        <g>
          <g>
            <path d="m216.76,125.83s7.05-6.19,8.38-6.65c1.34-.45,11.94-.65,12.66-.12.72.53,11.46,6.42,9.68,7.32-1.78.9-9.23-3.32-9.23-3.32l-1.25.17s6.5,3.47,7.66,4.81c1.07,1.23.05,2.7-1.17,2.14-1.21-.56-6.79-3.78-7.23-3.66-.44.12,5.94,3.86,6.53,4.55.79.93.28,2.73-.94,2.21-.72-.31-6.61-4.21-6.61-4.21,0,0,4.44,3.74,4.76,4.36.52,1-.48,1.91-1.5,1.28-.7-.43-3.73-3.41-4.67-3.98,0,0-1.04-.07-2.57,1.56-1.53,1.63-7.57,3.87-7.57,3.87l-6.91-10.32Z" fill="#b78876"/>
            <path d="m247.45,126.41c0,.07-.88.12-2.28-.14-.69-.14-1.51-.36-2.39-.71-.84-.4-1.75-.86-2.7-1.35-.7-.36-1.38-.71-2.02-1.05l.13.03c-3.16.03-5.45-.03-5.45-.16,0-.13,2.28-.28,5.45-.39h.06s.07.03.07.03c.64.32,1.31.66,2.01,1.01.93.48,1.81.94,2.65,1.37.83.37,1.61.62,2.27.8,1.33.36,2.19.45,2.19.53Z" fill="#aa6550"/>
          </g>
          <g>
            <path d="m219.38,127.62c.47.89,1.67,1.12,2.65.91.98-.21,1.87-.74,2.83-1.02,2.89-.83,6.09.71,8.94-.26.4-.14.84-.43.79-.84-.04-.39-.48-.58-.85-.7-3.16-1.01-6.32-2.01-9.48-3.02" fill="#b78876"/>
            <path d="m224.27,122.69s.39.04,1.06.22,1.63.45,2.82.8c1.23.37,2.63.8,4.16,1.26.39.12.79.25,1.2.37.37.15.92.17,1.28.76.16.3.06.72-.15.93-.2.22-.44.35-.68.44-.47.16-.94.27-1.43.32-1.97.2-3.75-.26-5.35-.29-.8-.03-1.56.03-2.23.21-.67.18-1.29.48-1.88.69-1.18.49-2.34.4-2.97.02-.65-.37-.75-.83-.72-.82.05-.04.21.35.82.63.61.28,1.61.31,2.72-.2.56-.23,1.17-.55,1.9-.77.73-.22,1.54-.3,2.37-.28,1.67.01,3.46.44,5.27.25.45-.04.89-.15,1.29-.28.39-.14.65-.42.53-.61-.1-.22-.54-.36-.94-.49-.41-.13-.8-.26-1.2-.39-1.52-.51-2.9-.97-4.13-1.38-1.17-.4-2.12-.73-2.77-.98-.65-.24-1-.39-.99-.43Z" fill="#aa6550"/>
          </g>
        </g>
        <path d="m176.73,177.43l11.69-1.16s15.46,10.59,13.98,12.92c-1.48,2.33-4.02,0-4.02,0,0,0,2.75,3.39-1.69,4.45,0,0-1.06,2.33-2.75,2.12h-1.06s-.96,2.96-2.39,2.33c-1.43-.64-5.74-4.45-5.74-4.45l-11.99-1.06,3.98-15.15Z" fill="#b78876"/>
        <path d="m184,189.49s-2.99,1.15-3.62,2.35c-.62,1.2-.98,4.04.95,4.55.74.2,3.4-.11,3.4-.11l-.74-3.15s1.12-1.29,1.79-1.85c.64-.53-.06-2.6-1.78-1.8Z" fill="#ffbe9d"/>
        <path d="m187.37,191.09s-2.99,1.15-3.62,2.35c-.62,1.2-.21,3.22,1.72,3.74.74.2,3.09-.11,3.09-.11l-.31-.61c-.61-1.18-.87-2.14.2-2.92.06-.04.66-.6.7-.64.59-.55-.06-2.6-1.78-1.8Z" fill="#ffbe9d"/>
        <path d="m188.09,196.96c-.55-.5-.6-1.4-.24-2.06.36-.65,1.04-1.08,1.76-1.28.47-.13,1.05-.15,1.37.22.2.24.23.59.19.9-.11.83-.65,1.53-1.17,2.19-.28.35-.62.73-1.07.72-.46-.01-.78-.43-1.04-.81" fill="#ffbe9d"/>
        <g>
          <g>
            <polygon points="124.91 102.71 127.53 101.71 129.81 105.78 128.54 110.13 125.86 110.79 123.19 107.42 124.91 102.71" fill="#efc037"/>
            <path d="m125.86,110.79s3.4,18.71,6.24,31.87c0,0,2.33,10.96,3.27,13.48,1.05,2.82,4.29,7.04,4.29,7.04l3.29,1.27-2.01-18.49-12.39-35.84-2.68.66Z" fill="#efc037"/>
            <g fill="none" opacity=".4">
              <polygon points="124.91 102.71 127.53 101.71 129.81 105.78 128.54 110.13 125.86 110.79 123.19 107.42 124.91 102.71"/>
            </g>
            <g fill="none" opacity=".4">
              <path d="m125.86,110.79s3.4,18.71,6.24,31.87c0,0,2.66,10.85,3.27,13.48.35,1.55,4.29,7.04,4.29,7.04l3.29,1.27-2.01-18.49-12.39-35.84-2.68.66Z"/>
            </g>
          </g>
          <g>
            <polygon points="109.13 91.34 124.91 102.71 121.5 112.09 107.14 97.31 109.13 91.34" fill="#f5f5f5"/>
            <polygon points="127.53 101.71 131.94 91.88 134.44 99.99 130.97 108.52 127.53 101.71" fill="#f5f5f5"/>
            <path d="m124.91,102.71s-.04.26-.18.72c-.18.54-.39,1.19-.64,1.96-.56,1.67-1.39,4.03-2.37,6.78l-.14.38-.27-.3c-1.14-1.26-2.38-2.63-3.68-4.06-2.86-3.17-5.42-6.06-7.26-8.17-.86-1-1.58-1.84-2.16-2.52-.5-.6-.76-.95-.74-.97.03-.02.34.27.89.83.61.65,1.37,1.45,2.28,2.41,1.91,2.05,4.52,4.9,7.37,8.07,1.29,1.44,2.52,2.81,3.65,4.08l-.41.08c1.02-2.74,1.9-5.07,2.54-6.72.3-.75.56-1.38.77-1.91.19-.44.3-.68.33-.67Z" fill="#263238"/>
            <path d="m134.44,99.99c.07.03-.22.9-.74,2.3-.52,1.4-1.26,3.31-2.12,5.42-.13.31-.25.62-.37.91l-.26.63-.22-.64c-1.34-3.84-3.28-6.38-3.15-6.46.05-.04.59.55,1.32,1.64.73,1.09,1.62,2.7,2.32,4.65h-.48c.12-.3.24-.61.37-.92.85-2.1,1.66-4,2.26-5.36.6-1.36,1.01-2.19,1.08-2.16Z" fill="#263238"/>
          </g>
        </g>
      </g>
      <g>
        <g>
          <path d="m334.99,396.1l6.08,24.14,10.32,17.71c.74,1.28.25,2.92-1.07,3.57h0c-.74.37-1.61.36-2.34-.04-4.63-2.5-21.63-11.78-21.98-13.57-.4-2.08-8.11-25.04-8.11-25.04l17.09-6.77Z" fill="#455a64"/>
          <g fill="none" opacity=".6">
            <path d="m350.32,441.53l-24.76-15.23.28,1.02c.24.88.79,1.65,1.54,2.16,2.02,1.37,7.68,5.03,20.53,12.04.75.41,1.65.41,2.41.02h0Z" fill="#fff"/>
          </g>
          <g fill="none" opacity=".6">
            <path d="m328.34,417.19c.72.25,1.16,1.1.94,1.83-.22.73-1.09,1.19-1.81.95-.72-.24-1.29-1.25-.99-1.94.3-.7,1.35-1.18,1.99-.78" fill="#fff"/>
          </g>
          <path d="m341.94,432.56c.15.03.35-1.38,1.59-2.45,1.21-1.11,2.63-1.14,2.62-1.29,0-.06-.35-.17-.93-.09-.58.07-1.37.38-2.05.97-.67.6-1.07,1.35-1.21,1.92-.14.57-.08.94-.02.94Z" fill="#263238"/>
          <path d="m344.53,435.3c.14.07.7-.92,1.84-1.62,1.13-.72,2.26-.79,2.26-.95.04-.14-1.26-.33-2.55.49-1.3.8-1.69,2.05-1.55,2.08Z" fill="#263238"/>
          <path d="m337.62,429.32c.14.08.99-1.45,2.67-2.69,1.66-1.27,3.37-1.65,3.33-1.81,0-.14-1.87.02-3.66,1.38-1.8,1.34-2.48,3.09-2.34,3.13Z" fill="#263238"/>
          <path d="m335.15,422.13c.1.13,1.28-.79,2.98-1.33,1.7-.56,3.19-.5,3.2-.67.03-.14-1.54-.45-3.37.15-1.83.58-2.92,1.76-2.82,1.85Z" fill="#263238"/>
          <path d="m333.19,415.09c.11.12,1.22-1.05,3.07-1.47,1.84-.46,3.36.08,3.4-.08.03-.06-.32-.29-.96-.46-.64-.17-1.58-.23-2.57,0-.99.24-1.8.72-2.29,1.16-.5.44-.7.8-.65.84Z" fill="#263238"/>
          <path d="m335.84,412.29s0-.35-.22-.92c-.21-.57-.62-1.38-1.38-2.18-.38-.37-.81-.87-1.57-1-.38-.07-.86.13-1.05.53-.2.39-.18.81-.08,1.19.45,1.52,2.16,2.63,3.94,2.37,1.77-.29,3.06-1.7,3.38-3.2.06-.38.04-.83-.26-1.18-.3-.36-.83-.39-1.16-.23-.68.3-1.02.84-1.35,1.26-.64.89-.96,1.73-1.12,2.32-.16.59-.17.93-.14.93.1.04.28-1.35,1.57-3.02.33-.39.71-.88,1.21-1.07.24-.09.49-.05.63.12.15.17.18.48.12.79-.28,1.24-1.46,2.52-2.96,2.74-1.49.23-3-.75-3.37-1.97-.08-.29-.09-.61.02-.83.11-.22.33-.33.58-.3.52.06.97.48,1.34.83,1.5,1.48,1.77,2.88,1.87,2.82Z" fill="#263238"/>
        </g>
        <g>
          <g>
            <path d="m259.58,400.61l1.29,18.61s-18.48,7.56-18.58,11.02l36.17-1.2-.82-29.08-18.06.65Z" fill="#455a64"/>
            <path d="m272,417.28c.71.17,1.22.94,1.08,1.65-.14.71-.92,1.24-1.63,1.08-.71-.16-1.35-1.06-1.13-1.76.22-.69,1.17-1.26,1.82-.94" fill="#e0e0e0"/>
            <path d="m278.46,429.03l-.2-2.93-34.61,2.25s-1.59.75-1.37,1.88l36.17-1.2Z" fill="#e0e0e0"/>
            <path d="m260.28,419.05c.01.18.9.23,1.79.77.9.52,1.38,1.27,1.54,1.19.16-.04-.14-1.09-1.22-1.72-1.08-.64-2.14-.4-2.1-.24Z" fill="#263238"/>
            <path d="m256.54,420.75c-.03.17.74.45,1.36,1.17.65.71.82,1.51,1,1.5.17.02.25-1.02-.54-1.91-.79-.9-1.83-.94-1.83-.77Z" fill="#263238"/>
            <path d="m254.53,425.36c.16.03.38-.86-.11-1.81-.48-.96-1.32-1.31-1.39-1.16-.09.15.46.65.85,1.44.4.78.48,1.52.66,1.53Z" fill="#263238"/>
            <path d="m260.46,414.78c.08.16.88-.11,1.88-.08,1,.01,1.79.32,1.88.17.1-.13-.68-.76-1.86-.78-1.18-.03-1.99.56-1.9.69Z" fill="#263238"/>
          </g>
          <path d="m260.27,411.02c0,.07.7.16,1.81-.07.55-.11,1.2-.32,1.88-.65.34-.16.68-.36,1.02-.59.16-.11.36-.23.53-.44.19-.19.29-.66.05-.94-.19-.27-.53-.38-.79-.38-.27,0-.48.06-.68.12-.4.11-.77.26-1.11.42-.68.34-1.23.75-1.63,1.15-.81.81-1.08,1.47-1.02,1.51.08.06.47-.51,1.3-1.18.42-.33.95-.68,1.59-.96.32-.14.66-.26,1.03-.36.38-.11.71-.13.81.04.04.06.04.09-.03.2-.08.11-.23.21-.39.32-.31.22-.63.41-.94.58-.62.33-1.22.57-1.73.73-1.03.32-1.71.39-1.7.49Z" fill="#263238"/>
          <path d="m260.5,411.26c.06.03.39-.62.42-1.77.01-.57-.07-1.25-.31-1.98-.12-.36-.29-.73-.5-1.08-.22-.35-.5-.82-1.19-.88-.36,0-.65.29-.74.53-.11.25-.13.46-.16.67-.05.42-.03.84.04,1.22.14.77.48,1.4.84,1.85.74.91,1.48,1.1,1.49,1.04.06-.09-.57-.41-1.14-1.29-.28-.44-.54-1.01-.63-1.68-.05-.33-.05-.69,0-1.05.04-.39.18-.7.32-.67.18,0,.5.27.65.57.2.32.36.65.48.97.25.65.37,1.27.41,1.8.08,1.06-.08,1.73.02,1.75Z" fill="#263238"/>
        </g>
        <g>
          <polygon points="249.71 198.18 255.53 414.73 284.06 413.88 281.87 228.01 318.23 419.04 344 412.32 310.73 198.59 249.71 198.18" fill="#263238"/>
          <path d="m265.35,415.02c-.14,0-.26-44.89-.26-100.25s.12-100.26.26-100.26.26,44.88.26,100.26-.12,100.25-.26,100.25Z" fill="#455a64"/>
          <path d="m326.37,418.98c-.14.02-6.81-43.02-14.89-96.12-8.08-53.12-14.52-96.18-14.37-96.21.14-.02,6.81,43.01,14.89,96.13,8.08,53.1,14.51,96.18,14.37,96.2Z" fill="#455a64"/>
        </g>
        <g>
          <path d="m290.6,62.76c.85-2.31,1.95-4.48,2.41-6.89.34-1.8.88-4.5.16-6.18-.72-1.68-2.47-3.29-4.67-2.84-.55-3.56-2.44-6.44-6.04-8.19-3.24-1.57-6.42-2.34-10.01-2.6-1.08-.08-2.77,0-3.75.47-.98.48-1.88,1.45-2.25,2.43-1.89-1.49-4.6-1.93-7.35-1.18-2.75.75-5.89,2.23-7.1,4.82-.75,1.6-1.02,3.58-.22,6.1.54,1.68,2.31,4.32,3.97,3.71" fill="#263238"/>
          <g>
            <g>
              <g>
                <path d="m276.69,109.46h0c-6.96-.14-12.43-6.01-12.08-12.97.17-3.46.33-6.24.33-6.24,0,0-9.42-1.22-9.77-10.6-.35-9.37.73-30.95.73-30.95h0c10.74-4.94,23.31-3.68,32.85,3.29l1.42,1.03-.88,44.32c-.14,6.83-5.78,12.25-12.61,12.11Z" fill="#ffbe9d"/>
                <path d="m264.92,90.12s5.94.33,12.14-3.78c0,0-2.89,7.28-12.27,6.67l.13-2.88Z" fill="#eb996e"/>
              </g>
              <g>
                <path d="m289.26,62.78c.16-.07,6.4-2.07,6.35,4.35-.04,6.42-6.48,5.05-6.49,4.86,0-.18.13-9.21.13-9.21Z" fill="#ffbe9d"/>
                <path d="m291.1,69.58s.11.08.3.17c.18.09.5.15.84.02.68-.24,1.26-1.32,1.3-2.47.02-.58-.1-1.14-.3-1.6-.19-.47-.49-.8-.83-.86-.34-.08-.58.12-.66.3-.09.18-.05.31-.08.32-.02.02-.14-.11-.08-.37.03-.13.1-.28.26-.4.15-.12.38-.19.62-.16.49.04.94.5,1.16,1,.25.51.4,1.14.38,1.79-.05,1.29-.72,2.5-1.65,2.76-.45.11-.83-.02-1.02-.18-.2-.16-.23-.3-.21-.31Z" fill="#eb996e"/>
              </g>
              <g>
                <g>
                  <g>
                    <path d="m258.34,63.35c0,.71.59,1.3,1.33,1.32.74.02,1.34-.53,1.35-1.24,0-.71-.59-1.3-1.32-1.32-.74-.02-1.34.54-1.35,1.24Z" fill="#263238"/>
                    <path d="m258.01,61.86c.17.17,1.17-.61,2.61-.64,1.44-.05,2.51.66,2.67.48.07-.08-.1-.39-.57-.71-.46-.32-1.24-.63-2.14-.6-.9.03-1.64.38-2.07.73-.43.35-.58.67-.49.75Z" fill="#263238"/>
                  </g>
                  <g>
                    <path d="m272.46,63.34c0,.71.59,1.3,1.32,1.32.74.02,1.34-.53,1.35-1.24,0-.71-.59-1.3-1.32-1.32-.74-.02-1.34.54-1.35,1.24Z" fill="#263238"/>
                    <path d="m272.18,61.77c.17.17,1.17-.61,2.61-.64,1.44-.05,2.52.66,2.67.48.07-.08-.1-.39-.57-.71-.46-.32-1.24-.63-2.14-.6-.9.03-1.64.38-2.07.73-.43.35-.58.67-.49.75Z" fill="#263238"/>
                  </g>
                  <path d="m267.22,72.59c0-.08-.89-.21-2.35-.36-.37-.03-.72-.09-.79-.34-.09-.26.05-.66.22-1.1.32-.9.66-1.84,1.02-2.83,1.41-4.03,2.42-7.34,2.26-7.39-.16-.06-1.44,3.16-2.85,7.19-.34.99-.66,1.94-.97,2.85-.13.42-.36.9-.15,1.45.11.27.38.47.62.52.24.07.44.06.63.07,1.46.04,2.37.03,2.37-.06Z" fill="#263238"/>
                  <path d="m271.49,73.48c-.23,0-.2,1.56-1.51,2.7-1.31,1.15-2.98,1.01-2.99,1.23-.02.1.38.29,1.08.3.69,0,1.69-.24,2.5-.94.8-.7,1.13-1.62,1.17-2.26.04-.66-.14-1.04-.25-1.03Z" fill="#263238"/>
                </g>
                <path d="m271.67,56.13c.15.39,1.59.17,3.28.33,1.7.13,3.08.59,3.29.23.1-.17-.15-.53-.71-.9-.56-.36-1.44-.7-2.45-.79-1.02-.09-1.94.1-2.55.36-.61.27-.92.58-.85.77Z" fill="#263238"/>
                <path d="m258.44,57.67c.26.32,1.25-.04,2.44-.09,1.19-.09,2.21.16,2.43-.18.1-.17-.07-.49-.52-.79-.44-.3-1.18-.53-2-.49-.82.05-1.52.36-1.93.71-.41.35-.54.69-.43.84Z" fill="#263238"/>
              </g>
            </g>
            <path d="m290.67,53.78c-.06,2.74.63,5.76.22,8.46-.06.41-1.09,1.52-1.17,1.92-.49,2.39-1.45,3.43-2.92,1.02-.57-.93-.98-3.54-1.22-4.6-.64-2.87-1.28-5.74-1.92-8.62-2.21,1.1-4.62,1.96-7.09,1.87-2.47-.09-5-1.27-6.18-3.44-1.12,1.97-3.17,3.39-5.4,3.74-2.24.35-4.62-.37-6.29-1.9-.8,1.36-2.79,1.78-4.15,1-1.37-.79-2.02-2.57-1.63-4.1.59-2.3,3.01-3.61,5.27-4.34,8.85-2.85,18.77-1.04,26.9,3.46,1.19.66,2.36,1.38,3.3,2.36.94.98,2.24,2.12,2.31,3.48" fill="#263238"/>
          </g>
          <path d="m283.93,53.03c.02.09.61-.12,1.46.23.42.17.88.46,1.34.86.46.4.91.92,1.46,1.43.54.51,1.16.95,1.82,1.15.66.2,1.29.16,1.78.02.99-.28,1.39-.82,1.34-.86-.05-.07-.52.33-1.42.48-.44.07-.99.07-1.54-.13-.55-.19-1.09-.58-1.6-1.07-.52-.48-.99-1-1.51-1.42-.51-.41-1.05-.7-1.54-.84-1.01-.3-1.63.09-1.58.13Z" fill="#455a64"/>
          <path d="m285.02,55.83c.01.08.48.01,1.02.45.26.21.52.54.82.93.29.39.71.83,1.22,1.13,1.03.64,2.17.74,2.92.62.77-.12,1.17-.4,1.14-.46-.03-.08-.47.06-1.18.07-.7.01-1.7-.13-2.6-.7-.92-.52-1.37-1.49-2.11-1.91-.72-.44-1.29-.2-1.24-.13Z" fill="#455a64"/>
          <path d="m260.29,37.59s-.3-.08-.82.08c-.51.15-1.23.56-1.81,1.36-1.15,1.61-1.41,4.47-.52,7.23.9,2.81,2.95,4.75,4.59,5.65.82.47,1.55.73,2.05.88.51.14.8.17.81.14.03-.1-1.11-.35-2.66-1.34-1.53-.96-3.42-2.83-4.27-5.49-.85-2.62-.64-5.34.32-6.84.48-.75,1.11-1.17,1.56-1.38.46-.2.75-.23.75-.28Z" fill="#455a64"/>
          <path d="m252.52,41.49c-.06,0-.12.7.08,1.81.2,1.1.71,2.6,1.66,4.04.96,1.44,2.15,2.49,3.09,3.1.94.61,1.61.83,1.64.77.1-.15-2.44-1.38-4.27-4.17-1.87-2.77-2.03-5.58-2.2-5.55Z" fill="#455a64"/>
        </g>
        <path d="m200.81,172.17l-13.72.69c-1.75.09-3.12,1.55-3.08,3.3.06,3.13.59,7.43,3.04,7.02l1.56-6.83,11.39,10.05c1.15,1.04,2.57,1.74,4.1,2.01l2.68-.28-5.96-15.96Z" fill="#ffbe9d"/>
        <g>
          <polygon points="266.42 98.68 259.25 101.05 255.69 160.61 255.69 213.43 299.72 218.31 300.23 142.13 297.39 104.21 290.66 96.17 266.42 98.68" fill="#e0e0e0"/>
          <polygon points="264.22 101.53 264.22 95.76 290.38 92.12 289.33 105.41 283.32 115.84 273.49 116.38 266.39 112 264.22 101.53" fill="#e0e0e0"/>
          <path d="m266.56,100.86c-.14,0-.21-1.19-.15-2.64.06-1.45.23-2.62.37-2.62.14,0,.21,1.19.15,2.64-.06,1.45-.23,2.62-.37,2.62Z" fill="#263238"/>
          <path d="m273.1,100.38c-.14,0-.18-1.33-.09-2.95.09-1.62.29-2.93.43-2.92.14,0,.18,1.33.09,2.95-.09,1.62-.29,2.93-.43,2.92Z" fill="#263238"/>
          <path d="m279.43,99.72c-.14-.01-.16-1.41-.03-3.12.13-1.71.34-3.09.49-3.08.14.01.16,1.41.03,3.12-.13,1.71-.34,3.09-.49,3.08Z" fill="#263238"/>
          <path d="m285.51,98.72c-.14,0-.31-1.32-.23-2.95.07-1.64.36-2.94.5-2.92.15.02.09,1.33.02,2.94-.08,1.61-.14,2.92-.29,2.93Z" fill="#263238"/>
          <path d="m282.6,123.9s-.09.36-.35.98c-.25.62-.65,1.5-1.16,2.57-1.02,2.15-2.53,5.08-4.39,8.21-1.86,3.13-3.71,5.86-5.11,7.78-.7.96-1.29,1.73-1.71,2.24-.42.52-.66.79-.69.77-.06-.05.78-1.26,2.1-3.23,1.32-1.97,3.12-4.72,4.97-7.83,1.85-3.11,3.41-6,4.51-8.11,1.1-2.11,1.76-3.42,1.83-3.39Z" fill="#263238"/>
        </g>
        <g>
          <path d="m290.53,95.25l7.1,3.42,13.72,3.35c6.02,1.05,10.16,6.65,9.38,12.71l-7.18,56.01,8.57,54.3-34-1.01-1.99-20.2v-56l4.41-52.58Z" fill="#5ca3de"/>
          <path d="m286.12,160.74s.02-.24.1-.69c.1-.5.23-1.16.39-1.97.37-1.76.88-4.22,1.51-7.22,1.34-6.14,3.17-14.52,5.19-23.77.57-2.55,1.12-5.03,1.65-7.42l.06.23c-.8-.84-1.59-1.66-2.36-2.46l-.13-.14.1-.16c1.41-2.34,2.73-4.55,3.96-6.58v.2c-1.8-4.34-3.3-7.96-4.37-10.56-.49-1.23-.89-2.22-1.18-2.96-.27-.68-.4-1.05-.38-1.06s.19.34.5,1.01c.32.72.75,1.7,1.29,2.91,1.11,2.58,2.66,6.17,4.53,10.49l.04.1-.06.1c-1.21,2.04-2.51,4.25-3.91,6.61l-.03-.3c.77.8,1.56,1.62,2.37,2.45l.09.1-.03.13c-.53,2.38-1.07,4.87-1.64,7.42-2.08,9.24-3.96,17.61-5.34,23.74-.7,2.99-1.27,5.43-1.68,7.18-.2.8-.36,1.45-.48,1.95-.12.44-.18.68-.2.67Z" fill="#263238"/>
        </g>
        <g>
          <path d="m201.39,169.91l30.08-16.77,14.58-39.31c2.04-5.49,6.26-9.89,11.67-12.14l3.87-1.61.02,103.5.78,24.52-16.3-4.88,8.31-49.28-2.87-24.26-2.86,11.73c-1.02,4.2-3.7,7.8-7.43,9.98l-31.31,16.26-8.53-17.74Z" fill="#5ca3de"/>
          <polygon points="201.75 170.68 199.22 171.43 206.34 188.41 209.66 187.12 201.75 170.68" fill="#e0e0e0"/>
          <path d="m236.91,160.12c-.15.05-.67-1.93-2.25-3.81-1.55-1.9-3.4-2.77-3.33-2.91.02-.13,2.08.57,3.73,2.58,1.67,1.99,1.98,4.14,1.85,4.14Z" fill="#263238"/>
          <path d="m205,170.13c.03.07-.15.2-.17.49-.03.3.18.63.57.51.4-.11.39-.5.21-.73-.17-.23-.4-.25-.41-.33-.03-.06.28-.22.66.06.17.14.36.38.34.73,0,.35-.31.68-.66.77-.34.11-.77,0-.97-.3-.2-.28-.18-.59-.11-.8.17-.45.52-.48.52-.41Z" fill="#263238"/>
          <path d="m207.42,169.11c.03.07-.15.2-.17.49-.03.3.18.63.57.51.4-.11.39-.5.21-.73-.17-.23-.4-.25-.41-.33-.03-.06.28-.22.66.06.17.14.36.38.34.73,0,.35-.31.68-.66.77-.34.11-.77,0-.97-.3-.2-.28-.18-.59-.1-.8.17-.45.52-.48.52-.41Z" fill="#263238"/>
          <path d="m261.58,162.34s-.06-.22-.13-.64c-.07-.48-.16-1.09-.28-1.84-.23-1.67-.54-3.97-.92-6.79-.74-5.8-1.74-13.7-2.85-22.44-.15-1.24-.3-2.46-.45-3.67v-.07s.02-.06.02-.06c.76-1.93,1.49-3.8,2.2-5.59v.19c-.76-1.74-1.48-3.39-2.17-4.96l-.03-.08.02-.08c1.33-4.82,2.45-8.87,3.26-11.78.4-1.38.72-2.48.95-3.31.23-.76.36-1.17.39-1.16.02,0-.06.42-.25,1.2-.21.83-.48,1.95-.83,3.34-.76,2.93-1.82,6.99-3.08,11.83v-.15c.68,1.56,1.42,3.21,2.19,4.94l.04.09-.04.1c-.7,1.79-1.43,3.66-2.18,5.59l.02-.13c.15,1.2.3,2.43.45,3.67,1.05,8.74,2,16.65,2.7,22.46.31,2.83.57,5.14.76,6.81.07.76.13,1.38.18,1.86.04.42.05.65.03.65Z" fill="#263238"/>
          <path d="m254.34,174.22s-.05-.17-.1-.49c-.05-.38-.12-.85-.19-1.41-.16-1.31-.38-3.07-.64-5.21-.53-4.4-1.28-10.47-2.18-17.17-.9-6.7-1.78-12.76-2.43-17.14-.31-2.13-.57-3.89-.76-5.19-.07-.56-.13-1.03-.18-1.42-.04-.32-.05-.5-.03-.5.02,0,.06.16.13.48.08.38.17.84.28,1.4.23,1.22.55,2.98.92,5.17.74,4.37,1.68,10.42,2.58,17.13.9,6.7,1.59,12.79,2.03,17.2.22,2.21.38,3.99.48,5.23.04.57.07,1.04.1,1.42.02.33.02.5,0,.5Z" fill="#263238"/>
          <path d="m250.19,211.01s.17.38.7.84c.51.44,1.54.9,2.74.61,1.2-.28,2.37-1.4,2.98-2.93.63-1.54.7-3.43.84-5.38.12-1.94.08-3.83-.56-5.36-.61-1.54-1.8-2.57-2.73-3.44-.95-.87-1.69-1.65-2.08-2.27-.4-.62-.52-1.01-.49-1.02.04-.02.22.34.66.9.43.57,1.18,1.28,2.16,2.11.95.84,2.23,1.87,2.92,3.53.7,1.64.76,3.61.63,5.58-.14,1.95-.22,3.89-.92,5.53-.67,1.63-1.98,2.84-3.34,3.1-1.37.27-2.45-.3-2.96-.82-.27-.27-.41-.53-.49-.7-.07-.18-.09-.28-.07-.29Z" fill="#263238"/>
          <path d="m239.01,172.17s.97-11.47,10.08-12.53c0,0,.17,9.35-10.08,12.53Z" fill="#263238"/>
        </g>
        <g>
          <g>
            <path d="m287.69,215.12c.6.4,26.45,17.3,26.45,17.3l2.98-2.39,1.41-38.77-25.19-19.09-3.47,1.19-2.19,41.76Z" fill="#b00043"/>
            <polygon points="293.06 172.72 294.1 214.69 288.54 214.69 290.4 173.55 293.06 172.72" fill="#e0e0e0"/>
            <path d="m301.39,224.32s.59,1.86,2.98,2.03c.07,0,.15.06.22.18.54.92,1.45,1.57,2.51,1.57.82,0,1.81-.19,2.84-.82,1.38-.84,3.84-6.36,3.84-6.36l5.83-12.99-9.81-2.65-12.46,3.88c0,.23-2.92,12.02-2.92,12.02,0,0,2.36.66,3.5-1.86,1.14-2.52,2.2-4.12,2.2-4.12l.93,5.31-3.54,1.21s-.43,1.96,1.52,2.69l2.36-.1Z" fill="#ffbe9d"/>
          </g>
          <path d="m305.79,133.1l16.33,30.06-13.29,39.45,14.78,8.32,18.78-43.88c1.39-3.25,1.33-6.95-.16-10.16l-23.04-49.49-13.4,25.7Z" fill="#5ca3de"/>
          <polygon points="308.83 202.61 307.45 205.66 321.39 213.18 322.85 210.5 308.83 202.61" fill="#e0e0e0"/>
          <path d="m308.83,202.61s0-.07.04-.2c.05-.16.1-.35.17-.58.17-.54.41-1.29.71-2.23.65-1.98,1.57-4.79,2.71-8.29,2.36-7.08,5.65-16.94,9.41-28.23l.02.21c-1.9-3.23-3.85-6.64-5.83-10.16-3.6-6.43-6.91-12.63-9.73-18.36-1.4-2.87-2.7-5.62-3.8-8.24-1.2-2.62-1.5-5.37-1.36-7.79.16-2.43.64-4.61,1.46-6.37.81-1.77,1.88-3.09,2.88-4,1.01-.91,1.95-1.43,2.6-1.72.65-.29,1.02-.36,1.02-.36.05.08-1.51.4-3.49,2.23-.96.92-1.99,2.24-2.76,3.98-.77,1.73-1.23,3.89-1.36,6.27-.11,2.38.2,5.05,1.39,7.6,1.11,2.6,2.43,5.33,3.83,8.2,2.85,5.71,6.16,11.89,9.76,18.31,1.97,3.52,3.92,6.93,5.81,10.16l.06.1-.04.11c-3.83,11.26-7.18,21.1-9.58,28.17-1.21,3.48-2.17,6.28-2.86,8.24-.33.93-.6,1.67-.79,2.21-.09.23-.16.41-.21.57-.05.13-.08.19-.09.19Z" fill="#263238"/>
          <path d="m333.16,162.87c-.04.07-.62-.24-1.61-.57-.98-.33-2.4-.63-3.98-.58-1.58.05-2.98.44-3.94.83-.97.39-1.52.74-1.57.67-.03-.05.46-.51,1.42-1,.96-.5,2.42-.96,4.08-1.02,1.66-.05,3.15.33,4.13.76.99.43,1.51.86,1.48.91Z" fill="#263238"/>
          <polygon points="302.52 125.94 314.25 165.21 315.91 152.3 302.52 125.94" fill="#263238"/>
          <path d="m321.9,203.08c.03.07-.15.2-.17.49-.03.3.18.63.57.51.4-.11.39-.5.21-.73-.17-.23-.4-.25-.41-.33-.03-.06.28-.22.66.06.17.14.36.38.34.73,0,.35-.31.68-.66.77-.34.11-.77,0-.97-.3-.2-.28-.18-.59-.11-.8.17-.45.52-.48.52-.41Z" fill="#263238"/>
          <path d="m323.08,200.25c.03.07-.15.2-.17.49-.03.3.18.63.57.51.4-.11.39-.5.21-.73-.17-.23-.4-.25-.41-.33-.03-.06.28-.22.66.06.17.14.36.38.34.73,0,.35-.31.68-.66.77-.34.11-.77,0-.97-.3-.2-.28-.18-.59-.11-.8.17-.45.52-.48.52-.41Z" fill="#263238"/>
          <path d="m339.13,150.24c-1.75.92-2.36,3.5-2.16,5.47.2,1.97.92,3.88.87,5.86-.04,1.41-.47,2.78-.75,4.16-.28,1.38-.41,2.87.13,4.17.54,1.31,1.92,2.35,3.31,2.09l1.39-2.8c2.2-4.44,2.13-9.68-.2-14.06l-2.59-4.89Z" fill="#263238"/>
        </g>
      </g>
      <g>
        <path d="m424.75,361.34c.9-3.12,2.83-6.13,5.8-7.41,3.1-1.34,6.69-.58,9.86.58,3.17,1.15,6.29,2.69,9.65,2.9,3.37.21,7.17-1.39,8.18-4.61.95-3.03-.88-6.26-3.16-8.45-4.8-4.62-12.02-6.58-18.5-5.03-6.48,1.56-12.02,6.58-14.2,12.88" fill="#176ca5"/>
        <g>
          <path d="m398.07,374.86c-4.94-4.69-4.69-12.86-2.23-19.22,2.46-6.35,7.84-11.23,13.85-14.45,11.65-6.23,26.21-6.7,38.23-1.24-5.91.2-11.62,3.55-14.67,8.62-2.71,4.5-3.31,9.95-5.55,14.7-2.49,5.29-7.07,9.56-12.51,11.69-5.45,2.13-11.71,2.09-17.13-.11" fill="#5ca3de"/>
          <path d="m395.69,346.66c-5.47-6.46-6.2-16.82-5.39-25.25.81-8.42,2.76-16.9,1.43-25.26-.79-4.95-2.71-9.68-3.36-14.65-.65-4.97.27-10.59,4.12-13.8,4.43-3.69,11.4-2.82,16,.64,4.61,3.46,7.27,8.9,9.22,14.33,4.28,11.91,5.86,25.12,2.34,37.28-3.52,12.16-11.78,23.03-23.89,26.7" fill="#b00043"/>
          <path d="m393.07,399.64s-.02-.26-.02-.74c0-.49,0-1.21.04-2.13.07-1.85.25-4.53.66-7.82.42-3.29,1.07-7.19,2.1-11.45,1.02-4.27,2.76-8.83,5.23-13.26,2.47-4.43,5.49-8.26,8.54-11.42,3.06-3.16,6.19-5.61,8.95-7.45,1.37-.95,2.69-1.66,3.83-2.33,1.17-.61,2.19-1.12,3.02-1.52.83-.35,1.48-.62,1.97-.83.45-.18.69-.27.7-.26,0,.01-.22.13-.66.34-.48.22-1.12.52-1.93.9-.82.43-1.82.95-2.97,1.58-1.12.68-2.42,1.41-3.77,2.37-2.73,1.86-5.81,4.32-8.83,7.47-3.01,3.15-5.99,6.95-8.45,11.35-5.03,8.8-6.41,18.05-7.41,24.53-.45,3.27-.68,5.94-.8,7.79-.05.89-.09,1.6-.13,2.13-.03.49-.05.74-.07.74Z" fill="#263238"/>
          <g>
            <path d="m345.89,321.19c-10.12,6.11-10.09,11.67-8.4,16.91,1.69,5.25,7.9,8.89,13.05,6.93,2.91-1.11,5.02-3.64,6.82-6.18,1.8-2.54,3.49-5.26,6.02-7.09,2.52-1.83,6.18-2.52,8.72-.71" fill="#efc037"/>
            <g fill="none" opacity=".5">
              <path d="m345.89,321.19c-10.12,6.11-10.09,11.67-8.4,16.91,1.69,5.25,7.9,8.89,13.05,6.93,2.91-1.11,5.02-3.64,6.82-6.18,1.8-2.54,3.49-5.26,6.02-7.09,2.52-1.83,6.18-2.52,8.72-.71"/>
            </g>
            <path d="m338.31,327.89c2.65-3.66,9.18-4.72,13.31-2.89,4.13,1.82,7.15,5.44,9.86,9.06,2.71,3.61,5.34,7.43,9.09,9.94,3.75,2.51,8.99,3.42,12.72.89,2.45-1.66,3.88-4.55,4.32-7.48.45-2.93.02-5.92-.59-8.82-.89-4.24-2.35-8.68-5.75-11.37-3.79-3.01-9.04-3.15-13.87-2.99-5.54.18-11.17.6-16.37,2.52-5.2,1.92-10.51,6.07-12.72,11.16" fill="#efc037"/>
            <path d="m384.66,391.54s-.02-.08-.03-.22c0-.17-.02-.39-.03-.65-.02-.61-.05-1.45-.09-2.51-.06-2.22-.15-5.37-.27-9.24-.12-3.9-.28-8.54-.56-13.69-.29-5.15-.67-10.81-1.45-16.7-.4-2.94-.86-5.82-1.68-8.48-.82-2.67-1.91-5.15-3.1-7.42-1.2-2.27-2.52-4.33-3.91-6.14-1.4-1.8-2.85-3.37-4.27-4.69-2.87-2.62-5.62-4.23-7.58-5.16-.49-.23-.92-.45-1.31-.61-.38-.15-.71-.28-.99-.38-.25-.1-.44-.18-.61-.24-.14-.06-.2-.09-.2-.1,0,0,.08.01.22.05.17.05.37.12.62.2.28.1.62.21,1.01.34.4.15.83.36,1.34.57,1.99.89,4.79,2.47,7.72,5.09,1.45,1.32,2.92,2.89,4.35,4.7,1.42,1.81,2.76,3.89,3.98,6.18,1.21,2.29,2.32,4.79,3.16,7.48.83,2.71,1.3,5.6,1.7,8.55.78,5.91,1.15,11.58,1.42,16.74.26,5.16.38,9.8.47,13.7.08,3.9.11,7.06.12,9.24,0,1.06,0,1.9,0,2.51,0,.27,0,.48-.01.65,0,.15-.01.22-.02.22Z" fill="#263238"/>
          </g>
          <path d="m388.3,396.11s-.57-1.5-1.11-4.35c-.53-2.84-.92-7.05-.46-12.21.43-5.16,1.75-11.22,3.86-17.72,2.08-6.51,4.9-13.47,7.31-20.96,1.19-3.75,2.21-7.45,2.91-11.09.71-3.64,1.15-7.19,1.44-10.58.57-6.79.49-12.94.32-18.09-.17-5.15-.45-9.32-.62-12.2-.08-1.42-.15-2.53-.2-3.32-.02-.36-.03-.65-.04-.86,0-.19,0-.29,0-.3,0,0,.02.1.04.29.02.22.05.5.09.86.07.79.16,1.9.28,3.31.22,2.88.55,7.04.76,12.2.21,5.16.32,11.32-.23,18.14-.27,3.41-.71,6.97-1.42,10.63-.69,3.66-1.71,7.39-2.91,11.14-2.42,7.51-5.25,14.46-7.34,20.95-2.12,6.47-3.46,12.49-3.93,17.62-.5,5.13-.15,9.31.32,12.15.25,1.42.48,2.51.68,3.25.09.35.15.63.2.84.04.19.06.29.05.29Z" fill="#263238"/>
          <polygon points="413.39 400.68 365.87 400.68 364.78 391.54 413.39 391.54 413.39 400.68" fill="#455a64"/>
          <polygon points="370.97 399.64 376.91 427.08 402.73 427.08 408.29 399.64 370.97 399.64" fill="#455a64"/>
          <path d="m413.39,400.68c0,.13-10.45.2-23.33.16-12.89-.04-23.33-.17-23.33-.29,0-.12,10.45-.2,23.34-.16,12.89.04,23.33.17,23.33.29Z" fill="#455a64"/>
          <path d="m405.23,414.23c-.06.09-1.4-1.29-4.18-2.4-1.38-.55-3.13-.98-5.09-1.02-1.97-.06-4.1.41-6.26,1.15-2.17.73-4.19,1.58-6.16,2.05-1.98.43-3.82.4-5.32.16-1.51-.24-2.67-.68-3.42-1.08-.37-.21-.65-.38-.82-.52-.18-.13-.27-.21-.26-.22.03-.04.41.24,1.16.59.76.34,1.91.73,3.39.92,1.47.19,3.27.19,5.18-.25,1.9-.48,3.92-1.34,6.11-2.08,2.18-.75,4.39-1.23,6.41-1.14,2.02.07,3.8.54,5.2,1.14,1.41.58,2.43,1.29,3.1,1.81.33.26.58.48.74.64.16.15.24.24.23.25Z" fill="#263238"/>
          <path d="m404.87,416.06c-.06.09-1.35-1.25-4.02-2.37-1.33-.55-3.01-.97-4.91-1.01-1.9-.05-3.97.38-6.05,1.09-2.09.7-4.06,1.51-5.93,2.02-1.87.51-3.64.69-5.12.57-1.48-.1-2.63-.52-3.35-.9-.36-.2-.63-.37-.8-.51-.17-.13-.26-.2-.25-.22.03-.04.39.23,1.12.56.73.32,1.86.68,3.3.74,1.43.07,3.15-.13,4.98-.66,1.84-.52,3.79-1.34,5.9-2.04,2.11-.72,4.25-1.15,6.21-1.08,1.95.06,3.68.53,5.02,1.13,1.35.59,2.33,1.29,2.97,1.79.32.25.56.47.71.62.15.15.23.23.22.25Z" fill="#fff"/>
          <path d="m405.7,412.41c-.06.09-1.45-1.31-4.3-2.53-1.41-.6-3.19-1.13-5.22-1.25-2.02-.14-4.23.38-6.46,1.14-2.24.75-4.32,1.66-6.38,2.08-2.06.37-3.95.26-5.5,0-1.55-.27-2.75-.71-3.53-1.12-.38-.21-.68-.39-.86-.53-.18-.14-.28-.22-.27-.23.03-.04.42.24,1.2.6.79.35,1.98.74,3.5.96,1.52.21,3.38.28,5.37-.1,1.97-.42,4.06-1.34,6.31-2.1,2.24-.77,4.53-1.3,6.63-1.13,2.09.15,3.9.73,5.32,1.38,1.43.64,2.48,1.37,3.17,1.91.34.27.6.49.76.66.17.16.25.25.24.26Z" fill="#fff"/>
        </g>
        <path d="m413.81,400.72c0,.12-10.69.23-23.87.23s-23.88-.1-23.88-.23,10.69-.23,23.88-.23,23.87.1,23.87.23Z" fill="#263238"/>
      </g>
      <g>
        <path d="m50.66,390.28c1.71,2.44,5.03,1.63,6.57.14,1.54-1.49,2.19-3.65,2.78-5.71,1.35-4.71,2.72-9.64,1.71-14.43-.3-1.43-.84-2.86-1.84-3.92-1.01-1.06-2.55-1.69-3.97-1.32-1.67.44-2.72,2.08-3.47,3.64-2.21,4.59-3.38,9.67-3.4,14.76,0,2.38.27,4.87,1.61,6.84" fill="#5ca3de"/>
        <g fill="none" opacity=".2">
          <path d="m50.66,390.28c1.71,2.44,5.03,1.63,6.57.14,1.54-1.49,2.19-3.65,2.78-5.71,1.35-4.71,2.72-9.64,1.71-14.43-.3-1.43-.84-2.86-1.84-3.92-1.01-1.06-2.55-1.69-3.97-1.32-1.67.44-2.72,2.08-3.47,3.64-2.21,4.59-3.38,9.67-3.4,14.76,0,2.38.27,4.87,1.61,6.84"/>
        </g>
        <path d="m57.07,402.65c2.79-1.44,6.09-1.63,9.19-1.12,1.67.28,3.41.77,4.54,2.03,1.13,1.25,1.35,3.46.05,4.53-.78.64-1.86.74-2.86.73-2.43-.03-5.12-.46-7.07,1.01-1.11.83-1.84,2.22-3.17,2.63-1.3.4-2.76-.36-3.44-1.53-.69-1.17-.71-2.63-.39-3.95,0,0,.34-2.87,3.15-4.32Z" fill="#efc037"/>
        <path d="m45.97,393.79c1.86-2.2,2.21-5.41,1.38-8.17-.83-2.76-2.69-5.11-4.84-7.02-2.52-2.25-5.48-4-8.67-5.12-1.25-.44-2.58-.79-3.9-.66-1.32.13-2.65.8-3.27,1.98-.91,1.74-.04,3.85.91,5.57,1.67,3.03,3.57,5.94,5.69,8.67,1.71,2.2,3.66,4.37,6.26,5.37,2.6.99,5.3.88,6.68-.93" fill="#b00043"/>
        <path d="m50.55,427.11s.08-.39.15-1.11c.08-.81.18-1.82.29-3.03.14-1.27.33-2.79.68-4.44.35-1.65.9-3.43,1.61-5.24.73-1.8,1.63-3.43,2.68-4.74,1.04-1.31,2.25-2.26,3.38-2.81,1.13-.56,2.15-.79,2.85-.89.71-.07,1.1-.13,1.1-.16,0-.03-.4-.04-1.12-.02-.72.05-1.78.23-2.97.77-1.2.53-2.48,1.5-3.57,2.84-1.1,1.33-2.03,3.01-2.77,4.84-.72,1.84-1.27,3.64-1.6,5.33-.34,1.68-.49,3.21-.59,4.5-.1,1.29-.13,2.33-.15,3.05-.02.72,0,1.12.02,1.12Z" fill="#263238"/>
        <path d="m50.76,424.78s.03-.18.03-.51c0-.39,0-.87,0-1.47,0-1.28,0-3.13.07-5.41.11-4.56.51-10.87,1.27-17.79.76-6.93,1.78-13.16,2.7-17.63.22-1.12.44-2.13.65-3.01.2-.89.37-1.65.53-2.27.14-.58.25-1.05.34-1.43.07-.33.11-.5.09-.51-.02,0-.08.16-.18.48-.11.37-.25.84-.43,1.41-.19.61-.38,1.37-.61,2.25-.23.88-.47,1.89-.71,3.01-1.01,4.47-2.07,10.71-2.84,17.65-.76,6.94-1.1,13.26-1.13,17.84-.03,2.29.02,4.14.08,5.42.04.6.07,1.08.09,1.47.03.34.05.51.06.51Z" fill="#263238"/>
        <path d="m50.79,412.59s.03-.55-.01-1.54c-.06-.99-.19-2.42-.47-4.17-.29-1.75-.71-3.82-1.35-6.07-.62-2.26-1.46-4.7-2.54-7.18-2.11-4.99-4.97-9.08-7.45-11.6-.58-.67-1.23-1.16-1.75-1.63-.27-.23-.51-.45-.75-.63-.24-.17-.47-.32-.68-.47-.82-.56-1.28-.86-1.29-.83-.07.1,1.83,1.22,4.24,3.78,2.4,2.56,5.18,6.61,7.27,11.56,1.07,2.46,1.92,4.88,2.55,7.12.67,2.23,1.11,4.28,1.44,6.01.32,1.73.5,3.15.61,4.12.09.98.16,1.52.19,1.52Z" fill="#263238"/>
      </g>
      <g>
        <path d="m198.24,8.44s.17-.02.51-.01c.38,0,.87.02,1.5.04.66,0,1.47.09,2.43.24.48.07,1,.12,1.54.24.54.13,1.12.28,1.72.43,2.41.67,5.34,1.73,8.32,3.72,2.98,1.96,6.03,4.79,8.43,8.62,2.4,3.79,4.21,8.57,4.43,13.89.33,5.28-.89,11.08-3.94,16.22-2.96,5.2-7.91,9.55-13.9,12.09-3,1.27-6.29,1.96-9.64,2.12-3.35.24-6.79-.23-10.08-1.25l-.3-.09h.24c-5.77,2-11.41,3.95-16.85,5.84l-.69.24.22-.69c1.51-4.85,2.97-9.54,4.37-14.04l.07.34c-3.23-3.64-5.42-7.93-6.49-12.28-1.09-4.35-1.05-8.72-.27-12.67.79-3.96,2.37-7.48,4.35-10.39,1.98-2.91,4.33-5.21,6.67-6.96,1.15-.92,2.38-1.59,3.5-2.27,1.19-.56,2.27-1.16,3.36-1.52,1.08-.39,2.07-.77,3.03-.96.95-.24,1.8-.47,2.6-.54.79-.1,1.48-.22,2.09-.28.6-.02,1.11-.04,1.53-.05.38,0,.69-.01.94-.02.21,0,.32,0,.32.01s-.11.03-.32.05c-.24.02-.55.05-.93.08-.42.03-.93.06-1.52.11-.6.07-1.29.21-2.07.33-.79.09-1.63.34-2.56.59-.95.21-1.92.6-2.98,1-1.07.37-2.13.99-3.29,1.55-1.1.69-2.3,1.35-3.42,2.27-2.29,1.75-4.58,4.03-6.5,6.9-1.92,2.87-3.45,6.33-4.2,10.21-.74,3.87-.76,8.15.32,12.4,1.06,4.24,3.22,8.43,6.38,11.97l.13.15-.06.19c-1.39,4.5-2.84,9.19-4.34,14.05l-.47-.45c5.44-1.89,11.08-3.85,16.85-5.85l.12-.04.12.04.29.09c3.21,1,6.56,1.45,9.82,1.23,3.26-.16,6.47-.83,9.4-2.06,5.83-2.47,10.68-6.7,13.58-11.77,3-5.01,4.21-10.67,3.92-15.84-.19-5.21-1.93-9.9-4.26-13.64-2.33-3.77-5.3-6.59-8.22-8.55-2.91-2-5.8-3.09-8.17-3.79-.6-.16-1.17-.31-1.7-.45-.54-.12-1.05-.18-1.52-.27-.94-.17-1.74-.29-2.4-.31-.62-.05-1.12-.08-1.49-.11-.34-.03-.51-.05-.51-.06Z" fill="#b00043"/>
        <polygon points="181.3 39.18 185.73 34.75 194.28 42.35 211.06 26.2 215.18 30.63 193.65 50.9 181.3 39.18" fill="#b00043"/>
      </g>
    </g>
  </g>
</svg>