<?xml version="1.0" encoding="UTF-8"?>
<svg id="Layer_2" data-name="Layer 2" xmlns="http://www.w3.org/2000/svg" viewBox="0 0 676.94 413.36">
  <g id="Plant">
    <g>
      <g>
        <g>
          <path d="m270.2,90.52h0c-19.05,10.48-42.98,3.53-53.45-15.52h0c-10.48-19.05-3.53-42.98,15.52-53.45h0c19.05-10.48,42.98-3.53,53.45,15.52h0c10.48,19.05,3.53,42.98-15.52,53.45Z" fill="#fff"/>
          <path d="m270.2,90.52s.18-.13.53-.36c.37-.24.9-.57,1.58-1.01.35-.22.74-.47,1.17-.73.42-.29.84-.65,1.32-1.01.47-.37.99-.77,1.53-1.19.56-.4,1.05-.96,1.63-1.48,2.33-2.07,4.79-5.05,7.05-8.85,2.23-3.81,4.13-8.58,4.93-14.09.1-.69.19-1.39.29-2.09.05-.71.07-1.43.1-2.16.01-.73.1-1.46.05-2.21-.04-.74-.08-1.49-.13-2.25-.02-.38-.05-.76-.07-1.14-.06-.38-.12-.76-.18-1.14-.12-.77-.24-1.54-.36-2.32-.14-.77-.38-1.54-.57-2.32-.22-.77-.35-1.58-.67-2.33-.58-1.53-1.07-3.12-1.88-4.61-.38-.75-.72-1.54-1.14-2.28-.45-.73-.91-1.46-1.37-2.2-.24-.37-.44-.75-.7-1.1l-.8-1.05c-.55-.69-1.06-1.42-1.64-2.1-1.24-1.29-2.41-2.68-3.86-3.83-1.34-1.27-2.89-2.29-4.42-3.39-.79-.51-1.63-.95-2.45-1.43-.42-.23-.81-.5-1.25-.69l-1.31-.59c-1.72-.87-3.59-1.43-5.44-2.07-1.91-.45-3.82-.98-5.82-1.17l-1.49-.21-1.51-.07-1.51-.06c-.51-.03-1.01-.04-1.52,0-1.01.06-2.03.11-3.06.17-1.01.15-2.03.31-3.05.47-4.05.77-8.04,2.18-11.78,4.18-3.69,2.09-7.01,4.7-9.84,7.71-.68.78-1.35,1.55-2.03,2.33-.59.83-1.19,1.67-1.78,2.49l-.44.62-.38.66-.76,1.31-.75,1.31-.62,1.37c-.9,1.79-1.48,3.69-2.13,5.54-.45,1.91-.98,3.79-1.17,5.71l-.2,1.42c-.07.47-.06.95-.09,1.43-.03.95-.11,1.9-.1,2.84.1,1.88.14,3.74.49,5.55.2,1.83.75,3.57,1.17,5.31.26.85.6,1.68.89,2.51l.45,1.24c.16.41.37.79.56,1.19.38.78.76,1.56,1.13,2.33.4.76.88,1.46,1.32,2.19.82,1.48,1.91,2.75,2.89,4.06.47.68,1.08,1.22,1.61,1.82.56.58,1.07,1.19,1.65,1.72.59.52,1.18,1.03,1.77,1.54l.87.76.93.67c.62.44,1.23.88,1.83,1.31.6.45,1.27.76,1.89,1.14.63.36,1.25.74,1.88,1.07.65.3,1.29.59,1.92.88,5.09,2.27,10.13,3.22,14.54,3.38,4.42.13,8.25-.35,11.25-1.21.75-.21,1.48-.32,2.13-.58.65-.23,1.26-.45,1.82-.66.56-.21,1.09-.38,1.56-.57.46-.22.87-.41,1.24-.59.73-.34,1.3-.61,1.69-.79.38-.18.59-.26.59-.26,0,0-.19.11-.56.3-.39.2-.95.48-1.67.84-.37.18-.78.39-1.24.62-.47.2-.99.38-1.56.6-.57.21-1.17.44-1.82.68-.64.27-1.38.39-2.13.61-3,.89-6.86,1.41-11.31,1.31-4.45-.13-9.54-1.06-14.68-3.33-.64-.29-1.29-.58-1.94-.88-.64-.33-1.26-.71-1.9-1.07-.63-.38-1.31-.7-1.91-1.15-.61-.43-1.23-.87-1.86-1.32l-.94-.67-.88-.77c-.59-.51-1.19-1.03-1.79-1.55-.59-.54-1.11-1.15-1.68-1.74-.54-.61-1.16-1.15-1.63-1.83-1-1.32-2.09-2.6-2.93-4.1-.44-.73-.93-1.44-1.34-2.21-.38-.78-.76-1.57-1.15-2.36-.19-.4-.4-.79-.56-1.2l-.46-1.25c-.3-.84-.64-1.68-.91-2.54-.43-1.76-.99-3.52-1.2-5.37-.36-1.83-.4-3.72-.51-5.62,0-.95.07-1.91.1-2.87.03-.48.02-.97.09-1.45l.2-1.44c.19-1.94.72-3.84,1.18-5.78.65-1.88,1.24-3.8,2.15-5.62l.63-1.39.76-1.33.76-1.33.38-.67.44-.63c.6-.84,1.2-1.68,1.8-2.53.68-.78,1.37-1.57,2.05-2.36,2.86-3.05,6.23-5.7,9.97-7.82,3.79-2.02,7.83-3.45,11.94-4.23,1.03-.16,2.06-.31,3.09-.47,1.04-.06,2.07-.11,3.1-.17.51-.05,1.03-.04,1.54,0l1.53.07,1.53.07,1.51.21c2.02.2,3.96.73,5.89,1.19,1.88.65,3.77,1.22,5.51,2.1l1.33.6c.44.2.84.47,1.27.7.83.49,1.68.94,2.48,1.45,1.55,1.11,3.12,2.15,4.47,3.44,1.46,1.16,2.64,2.58,3.89,3.89.59.69,1.11,1.43,1.66,2.13l.81,1.06c.26.36.47.75.71,1.12.46.75.92,1.49,1.38,2.23.43.75.77,1.55,1.15,2.31.81,1.51,1.31,3.12,1.89,4.67.32.76.45,1.58.67,2.36.19.79.43,1.56.57,2.34.12.79.24,1.57.36,2.34.06.39.12.77.17,1.15.02.39.04.77.07,1.15.04.77.08,1.52.12,2.27.06.75-.04,1.49-.06,2.23-.04.73-.05,1.46-.11,2.18-.1.71-.2,1.42-.3,2.11-.84,5.56-2.77,10.36-5.05,14.18-2.3,3.81-4.8,6.79-7.16,8.85-.59.52-1.08,1.07-1.66,1.47-.55.42-1.07.81-1.55,1.18-.48.36-.92.71-1.34.99-.43.26-.83.5-1.18.72-.7.42-1.23.74-1.61.96-.36.21-.56.31-.56.31Z" fill="#e0e0e0"/>
        </g>
        <path d="m254.03,54.03c2.26-2.85,2.68-7.03.74-10.61-2.55-4.69-8.19-6.55-12.59-4.16-4.4,2.39-5.89,8.13-3.34,12.82,1.97,3.61,5.76,5.52,9.41,5.13-11.21,8.57-3.35,21.55-3.35,21.55l28.98-15.77s-6.73-13.79-19.85-8.96Z" fill="#e0e0e0"/>
      </g>
      <g>
        <g>
          <path d="m30.07,30.59h0c-7.75-4.57-10.33-14.57-5.75-22.32h0C28.89.51,38.88-2.06,46.63,2.51h0c7.75,4.57,10.33,14.57,5.75,22.32h0c-4.57,7.75-14.57,10.33-22.32,5.75Z" fill="#fff"/>
          <path d="m30.07,30.59c.04-.08,1.24.76,3.71,1.49,1.23.38,2.8.62,4.62.61,1.82-.02,3.9-.35,6.02-1.23,2.1-.88,4.27-2.27,6.02-4.32,1.73-2.04,3.16-4.65,3.67-7.63.3-1.48.35-3.04.18-4.61-.05-.79-.25-1.57-.41-2.35-.24-.77-.46-1.55-.8-2.3-1.26-3.03-3.6-5.71-6.58-7.5-3.01-1.74-6.49-2.5-9.75-2.14-.82.06-1.61.25-2.4.41-.77.24-1.54.45-2.26.78-1.46.61-2.8,1.41-3.95,2.38-2.37,1.89-3.95,4.41-4.9,6.9-.95,2.52-1.12,5.09-.87,7.36.26,2.28.97,4.27,1.83,5.87.87,1.6,1.84,2.86,2.77,3.75,1.83,1.81,3.15,2.46,3.1,2.53,0,0-.08-.03-.23-.12-.18-.11-.39-.24-.66-.41-.3-.17-.65-.41-1.03-.73-.39-.31-.86-.66-1.31-1.13-.96-.88-1.97-2.14-2.89-3.75-.9-1.62-1.66-3.63-1.94-5.96-.28-2.32-.12-4.95.83-7.55.96-2.57,2.58-5.17,5.01-7.13,1.18-1.01,2.56-1.84,4.06-2.47.74-.35,1.53-.56,2.33-.81.81-.17,1.63-.37,2.48-.43,3.37-.38,6.96.4,10.07,2.19,3.08,1.85,5.49,4.62,6.78,7.75.36.77.58,1.58.82,2.37.17.81.36,1.61.42,2.43.17,1.62.11,3.23-.2,4.75-.54,3.07-2.03,5.74-3.82,7.83-1.81,2.09-4.05,3.5-6.21,4.38-2.17.88-4.31,1.19-6.16,1.18-1.85-.02-3.45-.29-4.68-.71-.63-.17-1.16-.4-1.62-.6-.47-.18-.84-.38-1.14-.55-.28-.16-.5-.28-.68-.38-.15-.09-.23-.14-.22-.15Z" fill="#e0e0e0"/>
        </g>
        <path d="m39.65,17.12c1.49.2,3.07-.53,3.94-1.98,1.13-1.9.61-4.3-1.18-5.36-1.78-1.06-4.14-.38-5.27,1.52-.87,1.46-.75,3.22.16,4.44-5.42-2.19-8.38,3.35-8.38,3.35l11.74,7s3.49-5.31-1-8.96Z" fill="#e0e0e0"/>
      </g>
      <g>
        <path d="m671.81,318.48c-26.85-9.47-50.26,1.91-50.26,1.91,20.11,13.25,50.26-1.91,50.26-1.91Z" fill="#e0e0e0"/>
        <path d="m599.23,296.7c-2.27,17.32,7.79,30.83,7.79,30.83,5.48-13.49-7.79-30.83-7.79-30.83Z" fill="#e0e0e0"/>
        <path d="m610.63,333.91c18.48,9.94,37.9,4.51,37.9,4.51-12.81-11.88-37.9-4.51-37.9-4.51Z" fill="#e0e0e0"/>
        <path d="m631.78,307.09c-.29-.26-10.77,10.72-23.42,24.52-12.65,13.81-22.67,25.21-22.38,25.47.29.26,10.77-10.71,23.42-24.52,12.64-13.8,22.67-25.21,22.38-25.47Z" fill="#e0e0e0"/>
        <path d="m667,275.96s-31.76,6.74-39.36,34.74c0,0,27.18-5.38,39.36-34.74Z" fill="#e0e0e0"/>
        <path d="m626.29,271.32s-18.42,20.87-9.34,44.03c0,0,15.96-17.59,9.34-44.03Z" fill="#e0e0e0"/>
      </g>
      <g>
        <path d="m65.91,242.57c-6.65,30.56,8.96,54.54,8.96,54.54,11.69-23.74-8.96-54.54-8.96-54.54Z" fill="#e0e0e0"/>
        <path d="m52.11,324.68c19.19.11,32.54-12.72,32.54-12.72-15.45-4.13-32.54,12.72-32.54,12.72Z" fill="#e0e0e0"/>
        <path d="m91.11,307.16c8.31-21.51-.27-41.93-.27-41.93-11.2,15.59.27,41.93.27,41.93Z" fill="#e0e0e0"/>
        <path d="m58.98,287.77c-.25.35,13.16,10.28,29.94,22.17,16.78,11.9,30.59,21.26,30.83,20.91s-13.15-10.28-29.94-22.17c-16.78-11.9-30.58-21.26-30.83-20.91Z" fill="#e0e0e0"/>
        <path d="m20.22,253.64s11.7,33.71,43.26,38.15c0,0-9.59-28.9-43.26-38.15Z" fill="#e0e0e0"/>
        <path d="m20.74,298.65s25.28,17.22,49.28,4.15c0,0-21.36-14.99-49.28-4.15Z" fill="#e0e0e0"/>
      </g>
      <polygon points="676.94 84.69 623.04 98.16 637.51 111.57 600.02 132.36 663.94 119.57 649.01 105.74 676.94 84.69" fill="#e0e0e0"/>
      <polygon points="428.87 2.33 417.68 31.07 428.4 28.81 425.79 52.47 440.5 19.41 429.45 21.73 428.87 2.33" fill="#e0e0e0"/>
      <polygon points="652.66 239.13 622.54 232.47 626.41 242.71 602.63 243.75 637.55 253.24 633.56 242.67 652.66 239.13" fill="#e0e0e0"/>
      <g>
        <g>
          <g>
            <g>
              <path d="m655.39,365.64c4.91,20.77-7.95,41.58-28.72,46.49-20.77,4.91-41.58-7.95-46.49-28.72-4.91-20.77,7.95-41.58,28.72-46.49,20.77-4.91,41.58,7.95,46.49,28.72Z" fill="#efc037"/>
              <g fill="none" opacity=".1">
                <path d="m608.9,336.93c-20.77,4.91-33.62,25.72-28.72,46.49,0,0,26.7-5.06,30.54-17.21,3.84-12.14-1.83-29.28-1.83-29.28Z" fill="#fff"/>
              </g>
              <path d="m645.63,367.32c3.73,15.79-6.04,31.61-21.83,35.34-15.79,3.73-31.61-6.04-35.34-21.83-3.73-15.79,6.04-31.61,21.83-35.34,15.79-3.73,31.61,6.04,35.34,21.83Z" fill="#efc037"/>
              <g fill="none" opacity=".2">
                <path d="m645.63,367.32c3.73,15.79-6.04,31.61-21.83,35.34-15.79,3.73-31.61-6.04-35.34-21.83-3.73-15.79,6.04-31.61,21.83-35.34,15.79-3.73,31.61,6.04,35.34,21.83Z"/>
              </g>
              <path d="m646.72,368.32c3.68,15.58-5.96,31.19-21.54,34.87-15.58,3.68-31.19-5.96-34.87-21.54-3.68-15.58,5.96-31.19,21.54-34.87,15.58-3.68,31.19,5.96,34.87,21.54Z" fill="#efc037"/>
              <g fill="none" opacity=".2">
                <path d="m646.72,368.32c3.68,15.58-5.96,31.19-21.54,34.87-15.58,3.68-31.19-5.96-34.87-21.54-3.68-15.58,5.96-31.19,21.54-34.87,15.58-3.68,31.19,5.96,34.87,21.54Z" fill="#fff"/>
              </g>
            </g>
            <g>
              <path d="m619.07,372.28l-1.71-7.22s.02,0,.03,0c1.29-.15,2.66-.12,4.07.09,1.2.3,2.06.71,2.06.71l.04-.25.5-2.86.11-.66-1.6-1.05-.55.42c-1.76-.42-3.71-.61-5.58-.27l-.94-3.97-1.47-.7.24,1-1.7.4.95,4.04c-5.45,1.85-7.34,5.66-6.48,9.31,1.17,4.97,5.73,5.25,9.93,5.28l1.69,7.15c-2.78.39-5.7-.01-7.79-1.03l-.76,3.99c2.24,1.17,5.91,1.51,9.46.9l.71,3-1.39.35,1.62.62,2.93-.69-.95-4c5.48-1.9,7.41-5.68,6.55-9.32-1.17-4.97-5.8-5.2-9.99-5.22Zm-3.11-.06c-2.22-.12-3.94-.54-4.35-2.26-.37-1.57.4-3.11,2.84-4.11l1.5,6.36Zm1.4-7.16h0s0,0,0,0c0,0,0,0,0,0Zm4.22,17.87l-1.5-6.33c2.29.1,4.06.55,4.47,2.3.36,1.54-.46,3.01-2.97,4.02Z" fill="#b00043"/>
              <g fill="none" opacity=".3">
                <path d="m619.07,372.28l-1.71-7.22s.02,0,.03,0c1.29-.15,2.66-.12,4.07.09,1.2.3,2.06.71,2.06.71l.04-.25.5-2.86.11-.66-1.6-1.05-.55.42c-1.76-.42-3.71-.61-5.58-.27l-.94-3.97-1.47-.7.24,1-1.7.4.95,4.04c-5.45,1.85-7.34,5.66-6.48,9.31,1.17,4.97,5.73,5.25,9.93,5.28l1.69,7.15c-2.78.39-5.7-.01-7.79-1.03l-.76,3.99c2.24,1.17,5.91,1.51,9.46.9l.71,3-1.39.35,1.62.62,2.93-.69-.95-4c5.48-1.9,7.41-5.68,6.55-9.32-1.17-4.97-5.8-5.2-9.99-5.22Zm-3.11-.06c-2.22-.12-3.94-.54-4.35-2.26-.37-1.57.4-3.11,2.84-4.11l1.5,6.36Zm1.4-7.16h0s0,0,0,0c0,0,0,0,0,0Zm4.22,17.87l-1.5-6.33c2.29.1,4.06.55,4.47,2.3.36,1.54-.46,3.01-2.97,4.02Z"/>
              </g>
              <path d="m621.06,386.13l.95,4.01-2.93.69-.94-3.97c-3.55.61-7.22.27-9.46-.9l.76-3.99c2.09,1.02,5.02,1.42,7.79,1.03l-1.69-7.15c-4.2-.03-8.76-.31-9.93-5.28-.86-3.65,1.03-7.45,6.48-9.31l-.95-4.04,2.93-.69.94,3.97c2.68-.48,5.55-.33,7.77.47l-.61,3.96c-2.16-.66-4.3-.79-6.25-.56l1.71,7.22c4.2.03,8.82.26,9.99,5.23.86,3.65-1.08,7.43-6.55,9.33Zm-6.55-14.61l-1.5-6.36c-2.45.99-3.21,2.53-2.84,4.11.41,1.72,2.13,2.14,4.35,2.26Zm8.6,6.69c-.41-1.75-2.18-2.2-4.47-2.3l1.5,6.33c2.52-1.01,3.34-2.49,2.97-4.03Z" fill="#b00043"/>
            </g>
          </g>
          <path d="m624.73,403.59s.08-.03.23-.08c.16-.05.39-.12.67-.21.3-.09.66-.2,1.09-.33.43-.13.93-.26,1.47-.5.54-.22,1.14-.47,1.8-.74.33-.12.66-.3,1-.48.34-.18.69-.37,1.06-.56.36-.2.76-.37,1.12-.63.37-.24.75-.5,1.14-.76.39-.27.81-.51,1.19-.82.38-.31.78-.63,1.18-.96,1.63-1.3,3.19-2.99,4.72-4.9.35-.51.7-1.02,1.06-1.54.18-.26.37-.52.54-.79.16-.28.31-.56.47-.85.31-.57.66-1.14.94-1.74.27-.61.54-1.24.81-1.87l.21-.47c.06-.16.11-.33.17-.49.11-.33.22-.66.33-1,.11-.34.22-.67.33-1.01.12-.34.17-.69.25-1.04.15-.7.33-1.41.45-2.13.09-.73.18-1.47.27-2.21.23-2.99.03-6.11-.66-9.21-.77-3.09-1.99-5.97-3.53-8.53-.41-.62-.82-1.24-1.23-1.86-.43-.59-.91-1.14-1.36-1.71-.23-.27-.44-.57-.69-.82-.25-.25-.5-.51-.75-.76-.25-.25-.49-.5-.74-.75-.12-.12-.24-.25-.37-.37l-.4-.33c-.53-.44-1.05-.88-1.57-1.31-.53-.41-1.09-.76-1.63-1.14-.27-.18-.54-.37-.8-.55-.27-.17-.56-.31-.83-.47-.55-.31-1.1-.61-1.63-.9-2.22-1.02-4.37-1.84-6.41-2.27-.51-.11-1.01-.22-1.49-.33-.49-.1-.97-.13-1.43-.2-.47-.06-.92-.11-1.36-.17-.44-.07-.87-.04-1.28-.06-.41,0-.81-.02-1.2-.03-.39,0-.76-.03-1.11.01-.71.05-1.35.1-1.94.15-.59.02-1.09.13-1.54.21-.44.08-.81.14-1.12.19-.29.05-.52.09-.69.11-.16.02-.24.03-.24.03,0,0,.08-.02.23-.06.17-.03.4-.08.69-.14.31-.06.68-.13,1.12-.22.44-.08.95-.2,1.54-.23.59-.05,1.23-.11,1.94-.17.35-.05.73-.03,1.11-.03.39,0,.79.01,1.21.02.42.02.85-.02,1.29.05.44.05.9.1,1.37.16.47.06.96.09,1.45.19.49.1.99.21,1.5.32,2.06.42,4.23,1.23,6.47,2.25.54.3,1.09.6,1.65.91.28.16.57.3.84.47.27.18.54.37.81.55.54.38,1.11.73,1.64,1.14.52.43,1.05.87,1.58,1.31l.4.33c.13.12.25.25.37.37.25.25.5.5.75.75.25.25.5.51.76.76.26.25.47.55.7.83.45.57.94,1.12,1.38,1.72.41.62.82,1.24,1.24,1.87,1.56,2.59,2.79,5.5,3.57,8.62.7,3.13.9,6.29.66,9.3-.09.75-.18,1.49-.27,2.23-.13.73-.31,1.44-.46,2.15-.09.35-.14.71-.26,1.05-.11.34-.22.68-.33,1.02-.11.34-.22.67-.33,1.01-.06.17-.11.34-.17.5l-.21.48c-.28.64-.55,1.26-.83,1.88-.29.61-.65,1.18-.96,1.76-.16.29-.32.57-.48.86-.17.27-.36.53-.54.8-.36.52-.72,1.04-1.07,1.55-1.55,1.92-3.12,3.61-4.78,4.91-.41.33-.81.65-1.2.96-.39.31-.82.55-1.21.81-.4.26-.78.51-1.15.75-.37.25-.77.42-1.13.62-.37.19-.73.38-1.07.55-.34.18-.67.36-1.01.48-.66.26-1.27.5-1.81.72-.54.24-1.05.36-1.48.48-.43.12-.8.22-1.1.3-.29.08-.51.14-.68.18-.15.04-.23.06-.23.05Z" fill="#263238"/>
          <path d="m589.93,399.74s-.09-.08-.24-.25c-.17-.2-.39-.44-.66-.75-.29-.33-.63-.73-.99-1.23-.37-.5-.81-1.04-1.22-1.7-.21-.33-.44-.67-.67-1.02-.23-.36-.44-.75-.67-1.14-.48-.78-.9-1.66-1.36-2.58-.87-1.86-1.7-3.97-2.35-6.26-.63-2.29-1.01-4.53-1.23-6.57-.08-1.03-.17-2-.16-2.91,0-.46-.03-.9-.01-1.32.02-.42.03-.83.05-1.22.01-.78.11-1.48.17-2.09.05-.62.13-1.14.21-1.57.07-.4.13-.73.17-.98.04-.22.07-.34.08-.34,0,0,0,.12-.02.35-.03.26-.07.58-.12.99-.06.43-.13.95-.16,1.57-.04.61-.12,1.31-.12,2.08,0,.39-.02.79-.03,1.21,0,.42.02.86.03,1.31,0,.91.11,1.88.19,2.89.23,2.03.62,4.25,1.24,6.52.64,2.27,1.46,4.36,2.31,6.22.45.91.87,1.79,1.33,2.57.23.39.43.78.65,1.14.23.35.44.7.65,1.02.4.66.83,1.22,1.18,1.72.35.51.68.92.95,1.26.25.32.46.58.61.79.14.18.21.28.2.29Z" fill="#fff"/>
          <path d="m608.76,372.98s-.46-.13-1.03-.63c-.56-.49-1.21-1.37-1.44-2.51-.23-1.15.04-2.21.37-2.88.33-.68.69-.99.71-.97.04.03-.25.39-.52,1.06-.27.66-.49,1.67-.27,2.74.21,1.07.8,1.92,1.3,2.42.51.51.91.73.88.78Z" fill="#fff"/>
          <path d="m612.55,360.53c-.08.02-.26-.49-.42-1.14-.15-.65-.22-1.19-.14-1.21.08-.02.26.49.42,1.14.15.65.21,1.19.14,1.21Z" fill="#fff"/>
          <path d="m612.7,344.14s-.33.08-.93.18c-.3.05-.67.11-1.09.2-.42.09-.9.17-1.43.32-.53.13-1.1.28-1.7.48-.61.17-1.25.42-1.92.66-1.33.52-2.76,1.18-4.2,1.99-1.43.83-2.72,1.73-3.84,2.61-.55.46-1.08.88-1.54,1.32-.48.42-.89.84-1.27,1.23-.39.38-.7.75-1,1.07-.29.31-.53.6-.72.84-.39.47-.61.72-.62.71s.18-.29.54-.78c.18-.25.4-.54.69-.87.28-.33.59-.72.97-1.1.37-.4.78-.83,1.26-1.26.46-.45.99-.89,1.54-1.35,1.13-.9,2.42-1.82,3.87-2.66,1.45-.82,2.9-1.48,4.25-1.99.68-.24,1.32-.48,1.94-.64.61-.19,1.19-.33,1.73-.45.53-.13,1.02-.2,1.44-.28.43-.08.8-.12,1.1-.15.61-.06.94-.09.94-.07Z" fill="#fff"/>
          <path d="m630.79,409.11s-.22.14-.63.34c-.41.21-1.02.47-1.79.76-1.53.59-3.73,1.22-6.22,1.55-2.49.32-4.78.27-6.41.09-.82-.09-1.48-.18-1.92-.28-.45-.09-.7-.15-.69-.17,0-.02.26,0,.71.06.45.06,1.11.13,1.92.19,1.63.12,3.89.14,6.36-.17,2.47-.32,4.65-.92,6.19-1.46.77-.27,1.39-.5,1.81-.67.42-.17.66-.26.67-.24Z" fill="#fff"/>
        </g>
        <path d="m655.39,365.64s-.06-.2-.17-.6c-.12-.4-.25-1-.5-1.77-.47-1.55-1.28-3.8-2.68-6.53-.72-1.35-1.57-2.84-2.66-4.35-1.08-1.52-2.34-3.12-3.87-4.67-3.03-3.11-7.05-6.17-12.06-8.4-2.5-1.12-5.25-2.01-8.18-2.59-2.93-.58-6.05-.86-9.27-.68-3.21.16-6.52.71-9.79,1.75-1.64.49-3.25,1.16-4.86,1.89-1.59.76-3.15,1.63-4.67,2.61-6.05,3.96-11.27,9.91-14.33,17.19-.78,1.81-1.39,3.7-1.89,5.64-.5,1.94-.84,3.93-1.01,5.96-.38,4.05-.06,8.21.88,12.28.98,4.06,2.56,7.92,4.71,11.38.52.87,1.11,1.7,1.69,2.53.61.8,1.22,1.6,1.88,2.35,1.31,1.51,2.71,2.93,4.22,4.2,5.99,5.13,13.33,8.12,20.51,8.95,1.8.2,3.59.28,5.35.25,1.76-.06,3.5-.19,5.19-.48,3.39-.53,6.6-1.52,9.54-2.82,2.95-1.28,5.62-2.93,7.98-4.76,2.36-1.83,4.42-3.85,6.16-5.97,3.48-4.24,5.7-8.77,7.02-12.91.67-2.07,1.09-4.06,1.37-5.9.3-1.84.39-3.55.43-5.08.03-3.07-.25-5.44-.53-7.04-.11-.8-.27-1.4-.34-1.81-.08-.41-.11-.62-.11-.62,0,0,.22.82.51,2.41.29,1.59.6,3.97.58,7.05-.04,1.54-.12,3.25-.41,5.1-.27,1.85-.68,3.85-1.35,5.93-1.31,4.16-3.52,8.72-7.02,12.99-1.74,2.14-3.8,4.18-6.18,6.02-2.37,1.84-5.05,3.5-8.02,4.8-2.96,1.31-6.19,2.31-9.6,2.85-1.7.3-3.45.43-5.22.49-1.78.04-3.58-.04-5.39-.24-7.23-.83-14.63-3.83-20.66-9-1.52-1.27-2.93-2.71-4.25-4.23-.67-.75-1.28-1.56-1.9-2.37-.58-.83-1.18-1.66-1.7-2.54-2.17-3.48-3.76-7.37-4.75-11.46-.94-4.1-1.27-8.29-.88-12.37.17-2.04.52-4.05,1.02-6,.5-1.95,1.12-3.86,1.91-5.68,3.09-7.32,8.35-13.32,14.45-17.3,1.53-.99,3.1-1.87,4.71-2.63,1.61-.73,3.24-1.4,4.89-1.9,3.29-1.05,6.62-1.6,9.86-1.75,3.24-.17,6.37.12,9.32.7,2.95.59,5.71,1.48,8.22,2.62,5.03,2.26,9.06,5.34,12.09,8.48,1.53,1.56,2.79,3.17,3.86,4.7,1.09,1.53,1.93,3.02,2.65,4.38,1.39,2.74,2.19,5.01,2.64,6.56.45,1.55.62,2.39.62,2.39Z" fill="#263238"/>
      </g>
      <g>
        <g>
          <g>
            <g>
              <circle cx="67.02" cy="363.29" r="46.51" transform="translate(-266.33 204.08) rotate(-54.02)" fill="#efc037"/>
              <g fill="none" opacity=".1">
                <path d="m37.01,327.76c-19.62,16.58-22.09,45.92-5.51,65.54,0,0,25.91-19.97,23.42-35.1-2.49-15.13-17.91-30.44-17.91-30.44Z" fill="#fff"/>
              </g>
              <path d="m92.99,340.38c12.6,14.92,10.73,37.22-4.19,49.83-14.92,12.6-37.22,10.73-49.83-4.19-12.6-14.92-10.73-37.22,4.19-49.83,14.92-12.6,37.22-10.73,49.83,4.19Z" fill="#efc037"/>
              <g fill="none" opacity=".2">
                <path d="m92.99,340.38c12.6,14.92,10.73,37.22-4.19,49.83-14.92,12.6-37.22,10.73-49.83-4.19-12.6-14.92-10.73-37.22,4.19-49.83,14.92-12.6,37.22-10.73,49.83,4.19Z"/>
              </g>
              <path d="m94.7,340.87c12.43,14.72,10.58,36.72-4.13,49.16-14.72,12.43-36.72,10.58-49.16-4.13-12.43-14.72-10.58-36.72,4.13-49.16,14.72-12.43,36.72-10.58,49.16,4.13Z" fill="#efc037"/>
              <g fill="none" opacity=".2">
                <path d="m94.7,340.87c12.43,14.72,10.58,36.72-4.13,49.16-14.72,12.43-36.72,10.58-49.16-4.13-12.43-14.72-10.58-36.72,4.13-49.16,14.72-12.43,36.72-10.58,49.16,4.13Z" fill="#fff"/>
              </g>
            </g>
            <g>
              <path d="m67.17,360.17l-5.76-6.82s.02-.02.03-.03c1.3-.86,2.79-1.58,4.42-2.12,1.46-.33,2.6-.36,2.6-.36l-.09-.29-1.02-3.34-.23-.77-2.29-.25-.36.76c-2.12.51-4.31,1.36-6.14,2.75l-3.17-3.75-1.96.05.79.94-1.6,1.35,3.22,3.82c-4.84,4.96-4.8,10.08-1.89,13.52,3.97,4.69,9.01,2.51,13.53.26l5.71,6.76c-2.77,1.93-6.13,3.09-8.92,3.14l1.36,4.69c3.04.04,7.16-1.59,10.64-4.19l2.39,2.83-1.3,1.14,2.07-.22,2.77-2.34-3.2-3.78c4.85-5.02,4.87-10.13,1.96-13.58-3.97-4.69-9.05-2.42-13.57-.17Zm-3.37,1.63c-2.44,1.08-4.52,1.56-5.89-.06-1.26-1.49-1.27-3.56.82-5.96l5.08,6.01Zm-2.4-8.45h0s0,0,0,0c0,0,0,0,0,0Zm14.27,16.89l-5.05-5.98c2.51-1.14,4.65-1.62,6.05.04,1.23,1.45,1.15,3.49-1,5.94Z" fill="#b00043"/>
              <g fill="none" opacity=".3">
                <path d="m67.17,360.17l-5.76-6.82s.02-.02.03-.03c1.3-.86,2.79-1.58,4.42-2.12,1.46-.33,2.6-.36,2.6-.36l-.09-.29-1.02-3.34-.23-.77-2.29-.25-.36.76c-2.12.51-4.31,1.36-6.14,2.75l-3.17-3.75-1.96.05.79.94-1.6,1.35,3.22,3.82c-4.84,4.96-4.8,10.08-1.89,13.52,3.97,4.69,9.01,2.51,13.53.26l5.71,6.76c-2.77,1.93-6.13,3.09-8.92,3.14l1.36,4.69c3.04.04,7.16-1.59,10.64-4.19l2.39,2.83-1.3,1.14,2.07-.22,2.77-2.34-3.2-3.78c4.85-5.02,4.87-10.13,1.96-13.58-3.97-4.69-9.05-2.42-13.57-.17Zm-3.37,1.63c-2.44,1.08-4.52,1.56-5.89-.06-1.26-1.49-1.27-3.56.82-5.96l5.08,6.01Zm-2.4-8.45h0s0,0,0,0c0,0,0,0,0,0Zm14.27,16.89l-5.05-5.98c2.51-1.14,4.65-1.62,6.05.04,1.23,1.45,1.15,3.49-1,5.94Z"/>
              </g>
              <path d="m76.85,373.96l3.2,3.78-2.77,2.34-3.17-3.75c-3.48,2.59-7.6,4.22-10.65,4.19l-1.36-4.7c2.8-.05,6.16-1.21,8.92-3.14l-5.71-6.76c-4.52,2.26-9.57,4.44-13.53-.26-2.91-3.45-2.95-8.56,1.89-13.52l-3.22-3.82,2.77-2.34,3.17,3.75c2.61-1.98,5.78-3.37,8.6-3.73l1.5,4.58c-2.67.47-5.05,1.49-7.01,2.8l5.76,6.82c4.52-2.26,9.61-4.53,13.57.17,2.91,3.45,2.89,8.56-1.96,13.58Zm-14.98-12.12l-5.08-6.01c-2.08,2.4-2.07,4.47-.81,5.96,1.37,1.62,3.45,1.14,5.89.06Zm12.88,2.49c-1.4-1.66-3.54-1.18-6.05-.04l5.05,5.98c2.15-2.46,2.23-4.49,1-5.94Z" fill="#b00043"/>
            </g>
          </g>
          <path d="m90.3,390.7s.06-.08.2-.21c.15-.14.35-.34.6-.59.27-.26.6-.58.99-.95.39-.38.86-.79,1.3-1.34.46-.53.97-1.12,1.53-1.77.29-.31.54-.68.81-1.06.27-.38.54-.77.83-1.18.27-.42.61-.81.86-1.28.26-.46.53-.94.81-1.43.27-.5.59-.99.84-1.53.24-.55.49-1.11.75-1.68,1.05-2.28,1.79-4.94,2.4-7.83.1-.73.2-1.47.3-2.23.05-.38.11-.76.14-1.14.01-.39.03-.78.04-1.17.02-.78.08-1.58.06-2.39-.05-.81-.1-1.62-.14-2.45l-.04-.62c-.02-.21-.06-.41-.09-.62-.06-.41-.13-.83-.19-1.25-.07-.42-.13-.84-.2-1.26-.05-.43-.2-.84-.3-1.26-.23-.84-.41-1.69-.67-2.54-.3-.83-.61-1.67-.92-2.52-1.38-3.33-3.29-6.57-5.73-9.53-2.51-2.89-5.38-5.32-8.44-7.24-.78-.45-1.56-.89-2.33-1.33-.79-.4-1.6-.73-2.39-1.09-.4-.17-.78-.38-1.19-.5-.41-.14-.81-.27-1.21-.41-.4-.13-.8-.27-1.2-.4-.2-.06-.4-.14-.6-.19l-.61-.14c-.81-.19-1.61-.37-2.39-.55-.79-.15-1.59-.22-2.36-.34-.39-.05-.78-.1-1.16-.15-.39-.03-.77-.03-1.15-.05-.76-.03-1.51-.05-2.25-.08-2.94.11-5.69.4-8.12,1.06-.61.16-1.2.31-1.78.46-.58.15-1.11.39-1.65.57-.53.19-1.05.38-1.55.56-.51.17-.95.44-1.41.64-.45.22-.88.42-1.3.62-.42.2-.83.38-1.18.62-.73.44-1.4.85-2,1.21-.62.34-1.1.74-1.54,1.06-.43.32-.8.59-1.1.82-.29.21-.51.38-.68.5-.15.11-.24.17-.24.16,0,0,.07-.07.22-.19.16-.13.38-.3.66-.52.3-.23.66-.51,1.08-.85.43-.33.91-.74,1.52-1.09.6-.37,1.27-.79,1.99-1.24.36-.24.76-.43,1.18-.63.42-.21.85-.42,1.3-.64.46-.21.9-.48,1.41-.65.5-.19,1.02-.38,1.55-.58.54-.19,1.07-.43,1.65-.59.58-.15,1.18-.31,1.79-.47,2.44-.67,5.21-.98,8.17-1.11.74.02,1.5.05,2.27.07.38.02.77.02,1.16.05.39.05.78.1,1.17.15.78.11,1.59.18,2.39.33.79.18,1.6.36,2.41.55l.61.14c.2.06.4.13.6.19.4.13.81.27,1.21.4.41.13.82.27,1.23.41.42.12.8.34,1.2.5.8.36,1.62.69,2.42,1.1.78.44,1.56.89,2.35,1.34,3.09,1.93,5.99,4.38,8.52,7.31,2.46,2.98,4.39,6.26,5.78,9.62.31.86.62,1.7.92,2.54.26.85.45,1.72.68,2.56.1.43.24.84.3,1.27.07.43.13.85.2,1.28.06.42.13.84.19,1.26.03.21.07.42.09.63l.04.63c.05.83.09,1.66.14,2.47.02.81-.05,1.62-.07,2.41-.02.4-.03.79-.05,1.18-.04.39-.1.77-.15,1.15-.1.76-.21,1.51-.31,2.25-.62,2.9-1.38,5.58-2.45,7.87-.26.58-.52,1.14-.76,1.68-.25.54-.58,1.03-.85,1.53-.28.49-.56.97-.83,1.43-.26.47-.6.87-.88,1.28-.29.41-.58.8-.85,1.18-.27.38-.52.75-.82,1.06-.57.64-1.09,1.23-1.56,1.76-.45.55-.93.95-1.33,1.32-.4.36-.74.67-1.01.93-.27.24-.47.43-.63.56-.14.13-.22.19-.22.18Z" fill="#263238"/>
          <path d="m50.85,405.52s-.14-.04-.4-.13c-.29-.12-.66-.27-1.12-.45-.49-.19-1.07-.44-1.74-.78-.66-.33-1.44-.68-2.24-1.16-.41-.23-.83-.48-1.28-.73-.44-.26-.88-.56-1.34-.86-.94-.58-1.87-1.29-2.87-2.03-1.95-1.52-3.99-3.34-5.93-5.44-1.92-2.12-3.55-4.31-4.89-6.39-.64-1.06-1.27-2.05-1.76-3.04-.25-.49-.52-.95-.73-1.41-.21-.46-.42-.91-.61-1.33-.41-.84-.69-1.64-.96-2.33-.28-.69-.48-1.3-.63-1.8-.14-.47-.26-.85-.35-1.15-.08-.26-.11-.4-.1-.41.01,0,.07.13.17.39.11.29.24.67.41,1.13.17.49.38,1.09.68,1.77.29.68.58,1.47,1,2.3.2.42.41.86.63,1.32.22.46.49.91.75,1.39.5.97,1.13,1.96,1.78,3,1.35,2.05,2.97,4.22,4.88,6.32,1.93,2.08,3.94,3.89,5.87,5.42.99.73,1.91,1.45,2.83,2.04.46.3.89.61,1.32.87.44.26.86.51,1.26.74.79.49,1.55.85,2.2,1.2.65.36,1.23.62,1.7.83.45.21.81.38,1.09.51.25.12.38.19.37.2Z" fill="#fff"/>
          <path d="m56.48,366.54s-.56.11-1.44-.12c-.87-.22-2.05-.81-2.92-1.91-.87-1.11-1.16-2.39-1.17-3.29-.01-.91.2-1.44.23-1.43.06.01-.06.55.02,1.42.07.86.38,2.05,1.2,3.09.81,1.03,1.9,1.63,2.72,1.89.82.28,1.38.29,1.37.35Z" fill="#fff"/>
          <path d="m53.78,351.11c-.07.06-.55-.39-1.07-1-.52-.61-.88-1.16-.81-1.22.07-.06.55.39,1.07,1,.52.61.88,1.16.81,1.22Z" fill="#fff"/>
          <path d="m45.02,333.44s-.31.27-.9.7c-.3.21-.66.48-1.06.81-.4.33-.88.68-1.36,1.12-.49.43-1.03.9-1.57,1.44-.56.52-1.11,1.13-1.7,1.76-1.14,1.29-2.32,2.77-3.42,4.43-1.08,1.67-1.98,3.34-2.7,4.9-.34.79-.68,1.53-.93,2.26-.28.71-.5,1.39-.7,2.01-.21.62-.35,1.19-.49,1.69-.14.5-.24.93-.32,1.29-.16.71-.26,1.1-.29,1.1-.02,0,.03-.4.15-1.13.06-.36.14-.8.26-1.31.12-.51.24-1.09.44-1.71.18-.63.39-1.32.66-2.04.24-.73.58-1.49.91-2.29.72-1.58,1.61-3.28,2.7-4.96,1.11-1.67,2.31-3.16,3.47-4.45.6-.63,1.16-1.23,1.74-1.75.55-.54,1.1-1,1.61-1.42.49-.43.98-.77,1.4-1.09.41-.32.79-.57,1.1-.76.62-.4.96-.61.97-.59Z" fill="#fff"/>
          <path d="m99.81,393.32s-.16.27-.49.71c-.33.44-.84,1.06-1.5,1.79-1.33,1.47-3.34,3.35-5.83,5.05-2.5,1.7-4.99,2.89-6.83,3.59-.92.35-1.68.6-2.22.75-.53.15-.83.22-.84.2,0-.02.28-.14.79-.33.52-.18,1.26-.47,2.17-.85,1.81-.75,4.25-1.96,6.73-3.65,2.47-1.69,4.49-3.52,5.85-4.94.68-.71,1.22-1.29,1.58-1.71.36-.41.57-.64.59-.62Z" fill="#fff"/>
        </g>
        <path d="m102.55,333.27s-.18-.18-.51-.55c-.35-.36-.81-.94-1.5-1.62-1.34-1.4-3.44-3.38-6.43-5.55-1.51-1.05-3.23-2.19-5.22-3.22-1.98-1.05-4.21-2.07-6.69-2.91-4.95-1.69-10.92-2.79-17.52-2.46-3.29.16-6.73.7-10.19,1.68-3.46.98-6.96,2.38-10.32,4.31-3.36,1.92-6.62,4.31-9.56,7.21-1.5,1.42-2.86,3.02-4.18,4.67-1.3,1.68-2.5,3.47-3.59,5.35-4.34,7.54-6.7,16.78-6.03,26.25.14,2.37.52,4.73,1.04,7.08.52,2.35,1.24,4.68,2.16,6.95,1.8,4.55,4.41,8.85,7.63,12.7,3.26,3.82,7.06,7.11,11.25,9.65,1.04.65,2.12,1.22,3.19,1.79,1.1.52,2.18,1.06,3.3,1.5,2.23.91,4.5,1.67,6.81,2.21,9.23,2.25,18.74,1.46,26.9-1.56,2.04-.77,4-1.65,5.88-2.65,1.85-1.03,3.65-2.11,5.31-3.35,3.35-2.41,6.25-5.22,8.71-8.22,2.47-2.99,4.43-6.21,5.98-9.45,1.54-3.25,2.65-6.54,3.35-9.76,1.43-6.45,1.34-12.52.5-17.68-.41-2.59-1.05-4.95-1.75-7.08-.68-2.14-1.52-4.02-2.3-5.69-1.64-3.31-3.24-5.71-4.4-7.27-.56-.8-1.05-1.35-1.35-1.75-.31-.39-.46-.6-.46-.6,0,0,.68.76,1.86,2.31,1.18,1.55,2.8,3.94,4.46,7.25.8,1.67,1.64,3.55,2.34,5.7.71,2.14,1.36,4.51,1.78,7.1.86,5.18.97,11.28-.46,17.77-.7,3.24-1.81,6.55-3.35,9.83-1.54,3.27-3.51,6.51-6,9.52-2.47,3.02-5.38,5.85-8.75,8.28-1.66,1.25-3.47,2.34-5.34,3.37-1.88,1.01-3.86,1.9-5.91,2.67-8.21,3.05-17.79,3.85-27.09,1.59-2.33-.54-4.62-1.31-6.86-2.22-1.13-.45-2.22-.98-3.33-1.51-1.08-.58-2.17-1.15-3.21-1.8-4.22-2.55-8.05-5.87-11.34-9.72-3.24-3.88-5.87-8.21-7.68-12.8-.93-2.28-1.65-4.63-2.17-7-.52-2.37-.9-4.75-1.04-7.14-.67-9.54,1.72-18.85,6.09-26.43,1.11-1.89,2.31-3.69,3.62-5.38,1.33-1.67,2.71-3.27,4.22-4.7,2.96-2.92,6.24-5.32,9.63-7.25,3.38-1.94,6.91-3.34,10.39-4.32,3.48-.98,6.94-1.52,10.25-1.66,6.63-.32,12.63.8,17.6,2.52,2.49.85,4.72,1.88,6.71,2.94,2,1.05,3.71,2.19,5.22,3.26,2.99,2.19,5.07,4.19,6.4,5.61,1.33,1.42,1.97,2.22,1.97,2.22Z" fill="#263238"/>
      </g>
      <g>
        <g>
          <g>
            <g>
              <g>
                <g>
                  <g>
                    <rect x="508.86" y="303.58" width="85.53" height="15.53" transform="translate(1103.25 622.69) rotate(180)" fill="#efc037"/>
                    <path d="m586.01,319.22c.2,0,.36-3.45.36-7.7s-.16-7.7-.36-7.7-.36,3.45-.36,7.7.16,7.7.36,7.7Z" fill="#263238"/>
                    <path d="m590.69,319.22c.2,0,.36-3.45.36-7.7s-.16-7.7-.36-7.7-.36,3.45-.36,7.7.16,7.7.36,7.7Z" fill="#263238"/>
                    <path d="m575.73,319.22c.2,0,.36-3.45.36-7.7s-.16-7.7-.36-7.7-.36,3.45-.36,7.7.16,7.7.36,7.7Z" fill="#263238"/>
                    <path d="m580.41,319.22c.2,0,.36-3.45.36-7.7s-.16-7.7-.36-7.7-.36,3.45-.36,7.7.16,7.7.36,7.7Z" fill="#263238"/>
                    <path d="m565.45,319.22c.2,0,.36-3.45.36-7.7s-.16-7.7-.36-7.7-.36,3.45-.36,7.7.16,7.7.36,7.7Z" fill="#263238"/>
                    <path d="m570.13,319.22c.2,0,.36-3.45.36-7.7s-.16-7.7-.36-7.7-.36,3.45-.36,7.7.16,7.7.36,7.7Z" fill="#263238"/>
                    <path d="m555.18,319.22c.2,0,.36-3.45.36-7.7s-.16-7.7-.36-7.7-.36,3.45-.36,7.7.16,7.7.36,7.7Z" fill="#263238"/>
                    <path d="m559.85,319.22c.2,0,.36-3.45.36-7.7s-.16-7.7-.36-7.7-.36,3.45-.36,7.7.16,7.7.36,7.7Z" fill="#263238"/>
                    <path d="m544.9,319.22c.2,0,.36-3.45.36-7.7s-.16-7.7-.36-7.7-.36,3.45-.36,7.7.16,7.7.36,7.7Z" fill="#263238"/>
                    <path d="m549.58,319.22c.2,0,.36-3.45.36-7.7s-.16-7.7-.36-7.7-.36,3.45-.36,7.7.16,7.7.36,7.7Z" fill="#263238"/>
                    <path d="m534.62,319.22c.2,0,.36-3.45.36-7.7s-.16-7.7-.36-7.7-.36,3.45-.36,7.7.16,7.7.36,7.7Z" fill="#263238"/>
                    <path d="m539.3,319.22c.2,0,.36-3.45.36-7.7s-.16-7.7-.36-7.7-.36,3.45-.36,7.7.16,7.7.36,7.7Z" fill="#263238"/>
                    <path d="m524.34,319.22c.2,0,.36-3.45.36-7.7s-.16-7.7-.36-7.7-.36,3.45-.36,7.7.16,7.7.36,7.7Z" fill="#263238"/>
                    <path d="m529.02,319.22c.2,0,.36-3.45.36-7.7s-.16-7.7-.36-7.7-.36,3.45-.36,7.7.16,7.7.36,7.7Z" fill="#263238"/>
                    <path d="m514.07,319.22c.2,0,.36-3.45.36-7.7s-.16-7.7-.36-7.7-.36,3.45-.36,7.7.16,7.7.36,7.7Z" fill="#263238"/>
                    <path d="m518.74,319.22c.2,0,.36-3.45.36-7.7s-.16-7.7-.36-7.7-.36,3.45-.36,7.7.16,7.7.36,7.7Z" fill="#263238"/>
                  </g>
                  <path d="m508.86,303.58c0,.2,19.24.36,42.96.36s42.97-.16,42.97-.36-19.23-.36-42.97-.36-42.96.16-42.96.36Z" fill="#263238"/>
                </g>
                <g>
                  <g>
                    <rect x="514.45" y="319.36" width="85.53" height="15.53" transform="translate(1114.44 654.25) rotate(180)" fill="#efc037"/>
                    <path d="m591.61,335c.2,0,.36-3.45.36-7.7s-.16-7.7-.36-7.7-.36,3.45-.36,7.7.16,7.7.36,7.7Z" fill="#263238"/>
                    <path d="m596.29,335c.2,0,.36-3.45.36-7.7s-.16-7.7-.36-7.7-.36,3.45-.36,7.7.16,7.7.36,7.7Z" fill="#263238"/>
                    <path d="m581.33,335c.2,0,.36-3.45.36-7.7s-.16-7.7-.36-7.7-.36,3.45-.36,7.7.16,7.7.36,7.7Z" fill="#263238"/>
                    <path d="m586.01,335c.2,0,.36-3.45.36-7.7s-.16-7.7-.36-7.7-.36,3.45-.36,7.7.16,7.7.36,7.7Z" fill="#263238"/>
                    <path d="m571.05,335c.2,0,.36-3.45.36-7.7s-.16-7.7-.36-7.7-.36,3.45-.36,7.7.16,7.7.36,7.7Z" fill="#263238"/>
                    <path d="m575.73,335c.2,0,.36-3.45.36-7.7s-.16-7.7-.36-7.7-.36,3.45-.36,7.7.16,7.7.36,7.7Z" fill="#263238"/>
                    <path d="m560.77,335c.2,0,.36-3.45.36-7.7s-.16-7.7-.36-7.7-.36,3.45-.36,7.7.16,7.7.36,7.7Z" fill="#263238"/>
                    <path d="m565.45,335c.2,0,.36-3.45.36-7.7s-.16-7.7-.36-7.7-.36,3.45-.36,7.7.16,7.7.36,7.7Z" fill="#263238"/>
                    <path d="m550.5,335c.2,0,.36-3.45.36-7.7s-.16-7.7-.36-7.7-.36,3.45-.36,7.7.16,7.7.36,7.7Z" fill="#263238"/>
                    <path d="m555.18,335c.2,0,.36-3.45.36-7.7s-.16-7.7-.36-7.7-.36,3.45-.36,7.7.16,7.7.36,7.7Z" fill="#263238"/>
                    <path d="m540.22,335c.2,0,.36-3.45.36-7.7s-.16-7.7-.36-7.7-.36,3.45-.36,7.7.16,7.7.36,7.7Z" fill="#263238"/>
                    <path d="m544.9,335c.2,0,.36-3.45.36-7.7s-.16-7.7-.36-7.7-.36,3.45-.36,7.7.16,7.7.36,7.7Z" fill="#263238"/>
                    <path d="m529.94,335c.2,0,.36-3.45.36-7.7s-.16-7.7-.36-7.7-.36,3.45-.36,7.7.16,7.7.36,7.7Z" fill="#263238"/>
                    <path d="m534.62,335c.2,0,.36-3.45.36-7.7s-.16-7.7-.36-7.7-.36,3.45-.36,7.7.16,7.7.36,7.7Z" fill="#263238"/>
                    <path d="m519.66,335c.2,0,.36-3.45.36-7.7s-.16-7.7-.36-7.7-.36,3.45-.36,7.7.16,7.7.36,7.7Z" fill="#263238"/>
                    <path d="m524.34,335c.2,0,.36-3.45.36-7.7s-.16-7.7-.36-7.7-.36,3.45-.36,7.7.16,7.7.36,7.7Z" fill="#263238"/>
                  </g>
                  <path d="m514.45,319.36c0,.2,19.24.36,42.96.36s42.97-.16,42.97-.36-19.23-.36-42.97-.36-42.96.16-42.96.36Z" fill="#263238"/>
                </g>
                <g>
                  <g>
                    <rect x="507.46" y="335" width="85.53" height="15.53" transform="translate(1100.46 685.53) rotate(180)" fill="#efc037"/>
                    <path d="m584.62,350.64c.2,0,.36-3.45.36-7.7s-.16-7.7-.36-7.7-.36,3.45-.36,7.7.16,7.7.36,7.7Z" fill="#263238"/>
                    <path d="m589.3,350.64c.2,0,.36-3.45.36-7.7s-.16-7.7-.36-7.7-.36,3.45-.36,7.7.16,7.7.36,7.7Z" fill="#263238"/>
                    <path d="m574.34,350.64c.2,0,.36-3.45.36-7.7s-.16-7.7-.36-7.7-.36,3.45-.36,7.7.16,7.7.36,7.7Z" fill="#263238"/>
                    <path d="m579.02,350.64c.2,0,.36-3.45.36-7.7s-.16-7.7-.36-7.7-.36,3.45-.36,7.7.16,7.7.36,7.7Z" fill="#263238"/>
                    <path d="m564.06,350.64c.2,0,.36-3.45.36-7.7s-.16-7.7-.36-7.7-.36,3.45-.36,7.7.16,7.7.36,7.7Z" fill="#263238"/>
                    <path d="m568.74,350.64c.2,0,.36-3.45.36-7.7s-.16-7.7-.36-7.7-.36,3.45-.36,7.7.16,7.7.36,7.7Z" fill="#263238"/>
                    <path d="m553.78,350.64c.2,0,.36-3.45.36-7.7s-.16-7.7-.36-7.7-.36,3.45-.36,7.7.16,7.7.36,7.7Z" fill="#263238"/>
                    <path d="m558.46,350.64c.2,0,.36-3.45.36-7.7s-.16-7.7-.36-7.7-.36,3.45-.36,7.7.16,7.7.36,7.7Z" fill="#263238"/>
                    <path d="m543.51,350.64c.2,0,.36-3.45.36-7.7s-.16-7.7-.36-7.7-.36,3.45-.36,7.7.16,7.7.36,7.7Z" fill="#263238"/>
                    <path d="m548.19,350.64c.2,0,.36-3.45.36-7.7s-.16-7.7-.36-7.7-.36,3.45-.36,7.7.16,7.7.36,7.7Z" fill="#263238"/>
                    <path d="m533.23,350.64c.2,0,.36-3.45.36-7.7s-.16-7.7-.36-7.7-.36,3.45-.36,7.7.16,7.7.36,7.7Z" fill="#263238"/>
                    <path d="m537.91,350.64c.2,0,.36-3.45.36-7.7s-.16-7.7-.36-7.7-.36,3.45-.36,7.7.16,7.7.36,7.7Z" fill="#263238"/>
                    <path d="m522.95,350.64c.2,0,.36-3.45.36-7.7s-.16-7.7-.36-7.7-.36,3.45-.36,7.7.16,7.7.36,7.7Z" fill="#263238"/>
                    <path d="m527.63,350.64c.2,0,.36-3.45.36-7.7s-.16-7.7-.36-7.7-.36,3.45-.36,7.7.16,7.7.36,7.7Z" fill="#263238"/>
                    <path d="m512.67,350.64c.2,0,.36-3.45.36-7.7s-.16-7.7-.36-7.7-.36,3.45-.36,7.7.16,7.7.36,7.7Z" fill="#263238"/>
                    <path d="m517.35,350.64c.2,0,.36-3.45.36-7.7s-.16-7.7-.36-7.7-.36,3.45-.36,7.7.16,7.7.36,7.7Z" fill="#263238"/>
                  </g>
                  <path d="m507.46,335c0,.2,19.28.36,43.07.36s43.07-.16,43.07-.36-19.28-.36-43.07-.36-43.07.16-43.07.36Z" fill="#263238"/>
                </g>
                <g>
                  <g>
                    <rect x="514.17" y="350.41" width="85.53" height="15.53" transform="translate(1113.87 716.34) rotate(180)" fill="#efc037"/>
                    <path d="m591.32,366.05c.2,0,.36-3.45.36-7.7s-.16-7.7-.36-7.7-.36,3.45-.36,7.7.16,7.7.36,7.7Z" fill="#263238"/>
                    <path d="m596,366.05c.2,0,.36-3.45.36-7.7s-.16-7.7-.36-7.7-.36,3.45-.36,7.7.16,7.7.36,7.7Z" fill="#263238"/>
                    <path d="m581.04,366.05c.2,0,.36-3.45.36-7.7s-.16-7.7-.36-7.7-.36,3.45-.36,7.7.16,7.7.36,7.7Z" fill="#263238"/>
                    <path d="m585.72,366.05c.2,0,.36-3.45.36-7.7s-.16-7.7-.36-7.7-.36,3.45-.36,7.7.16,7.7.36,7.7Z" fill="#263238"/>
                    <path d="m570.77,366.05c.2,0,.36-3.45.36-7.7s-.16-7.7-.36-7.7-.36,3.45-.36,7.7.16,7.7.36,7.7Z" fill="#263238"/>
                    <path d="m575.45,366.05c.2,0,.36-3.45.36-7.7s-.16-7.7-.36-7.7-.36,3.45-.36,7.7.16,7.7.36,7.7Z" fill="#263238"/>
                    <path d="m560.49,366.05c.2,0,.36-3.45.36-7.7s-.16-7.7-.36-7.7-.36,3.45-.36,7.7.16,7.7.36,7.7Z" fill="#263238"/>
                    <path d="m565.17,366.05c.2,0,.36-3.45.36-7.7s-.16-7.7-.36-7.7-.36,3.45-.36,7.7.16,7.7.36,7.7Z" fill="#263238"/>
                    <path d="m550.21,366.05c.2,0,.36-3.45.36-7.7s-.16-7.7-.36-7.7-.36,3.45-.36,7.7.16,7.7.36,7.7Z" fill="#263238"/>
                    <path d="m554.89,366.05c.2,0,.36-3.45.36-7.7s-.16-7.7-.36-7.7-.36,3.45-.36,7.7.16,7.7.36,7.7Z" fill="#263238"/>
                    <path d="m539.93,366.05c.2,0,.36-3.45.36-7.7s-.16-7.7-.36-7.7-.36,3.45-.36,7.7.16,7.7.36,7.7Z" fill="#263238"/>
                    <path d="m544.61,366.05c.2,0,.36-3.45.36-7.7s-.16-7.7-.36-7.7-.36,3.45-.36,7.7.16,7.7.36,7.7Z" fill="#263238"/>
                    <path d="m529.66,366.05c.2,0,.36-3.45.36-7.7s-.16-7.7-.36-7.7-.36,3.45-.36,7.7.16,7.7.36,7.7Z" fill="#263238"/>
                    <path d="m534.34,366.05c.2,0,.36-3.45.36-7.7s-.16-7.7-.36-7.7-.36,3.45-.36,7.7.16,7.7.36,7.7Z" fill="#263238"/>
                    <path d="m519.38,366.05c.2,0,.36-3.45.36-7.7s-.16-7.7-.36-7.7-.36,3.45-.36,7.7.16,7.7.36,7.7Z" fill="#263238"/>
                    <path d="m524.06,366.05c.2,0,.36-3.45.36-7.7s-.16-7.7-.36-7.7-.36,3.45-.36,7.7.16,7.7.36,7.7Z" fill="#263238"/>
                  </g>
                  <path d="m514.17,350.41c0,.2,19.24.36,42.96.36s42.97-.16,42.97-.36-19.23-.36-42.97-.36-42.96.16-42.96.36Z" fill="#263238"/>
                </g>
                <g>
                  <g>
                    <rect x="505.6" y="366.16" width="85.53" height="15.53" transform="translate(1096.73 747.86) rotate(180)" fill="#efc037"/>
                    <path d="m582.75,381.8c.2,0,.36-3.45.36-7.7s-.16-7.7-.36-7.7-.36,3.45-.36,7.7.16,7.7.36,7.7Z" fill="#263238"/>
                    <path d="m587.43,381.8c.2,0,.36-3.45.36-7.7s-.16-7.7-.36-7.7-.36,3.45-.36,7.7.16,7.7.36,7.7Z" fill="#263238"/>
                    <path d="m572.47,381.8c.2,0,.36-3.45.36-7.7s-.16-7.7-.36-7.7-.36,3.45-.36,7.7.16,7.7.36,7.7Z" fill="#263238"/>
                    <path d="m577.15,381.8c.2,0,.36-3.45.36-7.7s-.16-7.7-.36-7.7-.36,3.45-.36,7.7.16,7.7.36,7.7Z" fill="#263238"/>
                    <path d="m562.2,381.8c.2,0,.36-3.45.36-7.7s-.16-7.7-.36-7.7-.36,3.45-.36,7.7.16,7.7.36,7.7Z" fill="#263238"/>
                    <path d="m566.87,381.8c.2,0,.36-3.45.36-7.7s-.16-7.7-.36-7.7-.36,3.45-.36,7.7.16,7.7.36,7.7Z" fill="#263238"/>
                    <path d="m551.92,381.8c.2,0,.36-3.45.36-7.7s-.16-7.7-.36-7.7-.36,3.45-.36,7.7.16,7.7.36,7.7Z" fill="#263238"/>
                    <path d="m556.6,381.8c.2,0,.36-3.45.36-7.7s-.16-7.7-.36-7.7-.36,3.45-.36,7.7.16,7.7.36,7.7Z" fill="#263238"/>
                    <path d="m541.64,381.8c.2,0,.36-3.45.36-7.7s-.16-7.7-.36-7.7-.36,3.45-.36,7.7.16,7.7.36,7.7Z" fill="#263238"/>
                    <path d="m546.32,381.8c.2,0,.36-3.45.36-7.7s-.16-7.7-.36-7.7-.36,3.45-.36,7.7.16,7.7.36,7.7Z" fill="#263238"/>
                    <path d="m531.36,381.8c.2,0,.36-3.45.36-7.7s-.16-7.7-.36-7.7-.36,3.45-.36,7.7.16,7.7.36,7.7Z" fill="#263238"/>
                    <path d="m536.04,381.8c.2,0,.36-3.45.36-7.7s-.16-7.7-.36-7.7-.36,3.45-.36,7.7.16,7.7.36,7.7Z" fill="#263238"/>
                    <path d="m521.09,381.8c.2,0,.36-3.45.36-7.7s-.16-7.7-.36-7.7-.36,3.45-.36,7.7.16,7.7.36,7.7Z" fill="#263238"/>
                    <path d="m525.76,381.8c.2,0,.36-3.45.36-7.7s-.16-7.7-.36-7.7-.36,3.45-.36,7.7.16,7.7.36,7.7Z" fill="#263238"/>
                    <path d="m510.81,381.8c.2,0,.36-3.45.36-7.7s-.16-7.7-.36-7.7-.36,3.45-.36,7.7.16,7.7.36,7.7Z" fill="#263238"/>
                    <path d="m515.49,381.8c.2,0,.36-3.45.36-7.7s-.16-7.7-.36-7.7-.36,3.45-.36,7.7.16,7.7.36,7.7Z" fill="#263238"/>
                  </g>
                  <path d="m505.6,366.16c0,.2,19.24.36,42.96.36s42.97-.16,42.97-.36-19.23-.36-42.97-.36-42.96.16-42.96.36Z" fill="#263238"/>
                </g>
                <g>
                  <g>
                    <rect x="510.96" y="381.87" width="85.53" height="15.53" transform="translate(1107.46 779.28) rotate(180)" fill="#efc037"/>
                    <path d="m588.11,397.51c.2,0,.36-3.45.36-7.7s-.16-7.7-.36-7.7-.36,3.45-.36,7.7.16,7.7.36,7.7Z" fill="#263238"/>
                    <path d="m592.79,397.51c.2,0,.36-3.45.36-7.7s-.16-7.7-.36-7.7-.36,3.45-.36,7.7.16,7.7.36,7.7Z" fill="#263238"/>
                    <path d="m577.84,397.51c.2,0,.36-3.45.36-7.7s-.16-7.7-.36-7.7-.36,3.45-.36,7.7.16,7.7.36,7.7Z" fill="#263238"/>
                    <path d="m582.51,397.51c.2,0,.36-3.45.36-7.7s-.16-7.7-.36-7.7-.36,3.45-.36,7.7.16,7.7.36,7.7Z" fill="#263238"/>
                    <path d="m567.56,397.51c.2,0,.36-3.45.36-7.7s-.16-7.7-.36-7.7-.36,3.45-.36,7.7.16,7.7.36,7.7Z" fill="#263238"/>
                    <path d="m572.24,397.51c.2,0,.36-3.45.36-7.7s-.16-7.7-.36-7.7-.36,3.45-.36,7.7.16,7.7.36,7.7Z" fill="#263238"/>
                    <path d="m557.28,397.51c.2,0,.36-3.45.36-7.7s-.16-7.7-.36-7.7-.36,3.45-.36,7.7.16,7.7.36,7.7Z" fill="#263238"/>
                    <path d="m561.96,397.51c.2,0,.36-3.45.36-7.7s-.16-7.7-.36-7.7-.36,3.45-.36,7.7.16,7.7.36,7.7Z" fill="#263238"/>
                    <path d="m547,397.51c.2,0,.36-3.45.36-7.7s-.16-7.7-.36-7.7-.36,3.45-.36,7.7.16,7.7.36,7.7Z" fill="#263238"/>
                    <path d="m551.68,397.51c.2,0,.36-3.45.36-7.7s-.16-7.7-.36-7.7-.36,3.45-.36,7.7.16,7.7.36,7.7Z" fill="#263238"/>
                    <path d="m536.73,397.51c.2,0,.36-3.45.36-7.7s-.16-7.7-.36-7.7-.36,3.45-.36,7.7.16,7.7.36,7.7Z" fill="#263238"/>
                    <path d="m541.4,397.51c.2,0,.36-3.45.36-7.7s-.16-7.7-.36-7.7-.36,3.45-.36,7.7.16,7.7.36,7.7Z" fill="#263238"/>
                    <path d="m526.45,397.51c.2,0,.36-3.45.36-7.7s-.16-7.7-.36-7.7-.36,3.45-.36,7.7.16,7.7.36,7.7Z" fill="#263238"/>
                    <path d="m531.13,397.51c.2,0,.36-3.45.36-7.7s-.16-7.7-.36-7.7-.36,3.45-.36,7.7.16,7.7.36,7.7Z" fill="#263238"/>
                    <path d="m516.17,397.51c.2,0,.36-3.45.36-7.7s-.16-7.7-.36-7.7-.36,3.45-.36,7.7.16,7.7.36,7.7Z" fill="#263238"/>
                    <path d="m520.85,397.51c.2,0,.36-3.45.36-7.7s-.16-7.7-.36-7.7-.36,3.45-.36,7.7.16,7.7.36,7.7Z" fill="#263238"/>
                  </g>
                  <path d="m510.96,381.87c0,.2,19.28.36,43.07.36s43.07-.16,43.07-.36-19.28-.36-43.07-.36-43.07.16-43.07.36Z" fill="#263238"/>
                </g>
                <g>
                  <g>
                    <rect x="517.67" y="397.28" width="85.53" height="15.53" transform="translate(1120.87 810.1) rotate(180)" fill="#efc037"/>
                    <path d="m594.82,412.92c.2,0,.36-3.45.36-7.7s-.16-7.7-.36-7.7-.36,3.45-.36,7.7.16,7.7.36,7.7Z" fill="#263238"/>
                    <path d="m599.5,412.92c.2,0,.36-3.45.36-7.7s-.16-7.7-.36-7.7-.36,3.45-.36,7.7.16,7.7.36,7.7Z" fill="#263238"/>
                    <path d="m584.54,412.92c.2,0,.36-3.45.36-7.7s-.16-7.7-.36-7.7-.36,3.45-.36,7.7.16,7.7.36,7.7Z" fill="#263238"/>
                    <path d="m589.22,412.92c.2,0,.36-3.45.36-7.7s-.16-7.7-.36-7.7-.36,3.45-.36,7.7.16,7.7.36,7.7Z" fill="#263238"/>
                    <path d="m574.26,412.92c.2,0,.36-3.45.36-7.7s-.16-7.7-.36-7.7-.36,3.45-.36,7.7.16,7.7.36,7.7Z" fill="#263238"/>
                    <path d="m578.94,412.92c.2,0,.36-3.45.36-7.7s-.16-7.7-.36-7.7-.36,3.45-.36,7.7.16,7.7.36,7.7Z" fill="#263238"/>
                    <path d="m563.99,412.92c.2,0,.36-3.45.36-7.7s-.16-7.7-.36-7.7-.36,3.45-.36,7.7.16,7.7.36,7.7Z" fill="#263238"/>
                    <path d="m568.66,412.92c.2,0,.36-3.45.36-7.7s-.16-7.7-.36-7.7-.36,3.45-.36,7.7.16,7.7.36,7.7Z" fill="#263238"/>
                    <path d="m553.71,412.92c.2,0,.36-3.45.36-7.7s-.16-7.7-.36-7.7-.36,3.45-.36,7.7.16,7.7.36,7.7Z" fill="#263238"/>
                    <path d="m558.39,412.92c.2,0,.36-3.45.36-7.7s-.16-7.7-.36-7.7-.36,3.45-.36,7.7.16,7.7.36,7.7Z" fill="#263238"/>
                    <path d="m543.43,412.92c.2,0,.36-3.45.36-7.7s-.16-7.7-.36-7.7-.36,3.45-.36,7.7.16,7.7.36,7.7Z" fill="#263238"/>
                    <path d="m548.11,412.92c.2,0,.36-3.45.36-7.7s-.16-7.7-.36-7.7-.36,3.45-.36,7.7.16,7.7.36,7.7Z" fill="#263238"/>
                    <path d="m533.15,412.92c.2,0,.36-3.45.36-7.7s-.16-7.7-.36-7.7-.36,3.45-.36,7.7.16,7.7.36,7.7Z" fill="#263238"/>
                    <path d="m537.83,412.92c.2,0,.36-3.45.36-7.7s-.16-7.7-.36-7.7-.36,3.45-.36,7.7.16,7.7.36,7.7Z" fill="#263238"/>
                    <path d="m522.88,412.92c.2,0,.36-3.45.36-7.7s-.16-7.7-.36-7.7-.36,3.45-.36,7.7.16,7.7.36,7.7Z" fill="#263238"/>
                    <path d="m527.55,412.92c.2,0,.36-3.45.36-7.7s-.16-7.7-.36-7.7-.36,3.45-.36,7.7.16,7.7.36,7.7Z" fill="#263238"/>
                  </g>
                  <path d="m517.67,397.28c0,.2,19.24.36,42.96.36s42.97-.16,42.97-.36-19.23-.36-42.97-.36-42.96.16-42.96.36Z" fill="#263238"/>
                </g>
              </g>
              <g fill="none" opacity=".3">
                <path d="m593,335c-12.77,3.14-26.39,3.75-39.51,2.87-13.13-.87-26.38-2.8-39.53-2.64l79.05-.23Z"/>
              </g>
              <g fill="none" opacity=".3">
                <path d="m592.23,319.53c-12.77,3.14-26.39,3.75-39.51,2.87-13.13-.87-26.38-2.8-39.53-2.64l79.05-.23Z"/>
              </g>
              <g fill="none" opacity=".3">
                <path d="m588.09,350.56c-12.77,3.14-26.39,3.75-39.51,2.87-13.13-.87-26.38-2.8-39.53-2.64l79.05-.23Z"/>
              </g>
              <g fill="none" opacity=".3">
                <path d="m591.44,366.07c-12.77,3.14-26.39,3.75-39.51,2.87-13.13-.87-26.38-2.8-39.53-2.64l79.05-.23Z"/>
              </g>
              <g fill="none" opacity=".3">
                <path d="m590.42,381.51c-12.77,3.14-26.39,3.75-39.51,2.87-13.13-.87-26.38-2.8-39.53-2.64l79.05-.23Z"/>
              </g>
              <g fill="none" opacity=".3">
                <path d="m594.6,397.25c-12.77,3.14-26.39,3.75-39.51,2.87-13.13-.87-26.38-2.8-39.53-2.64l79.05-.23Z"/>
              </g>
            </g>
            <path d="m592.82,314.2c.2,0,.36-1.9.36-4.25s-.16-4.25-.36-4.25-.36,1.9-.36,4.25.16,4.25.36,4.25Z" fill="#fff"/>
            <path d="m598.22,330.8c.2,0,.36-2.04.36-4.56s-.16-4.56-.36-4.56-.36,2.04-.36,4.56.16,4.56.36,4.56Z" fill="#fff"/>
            <path d="m590.54,346.77c.2,0,.36-1.81.36-4.05s-.16-4.05-.36-4.05-.36,1.81-.36,4.05.16,4.05.36,4.05Z" fill="#fff"/>
            <path d="m598.42,361.5c.2,0,.36-1.63.36-3.63s-.16-3.63-.36-3.63-.36,1.63-.36,3.63.16,3.63.36,3.63Z" fill="#fff"/>
            <path d="m567.1,320.63c0,.2,6.32.36,14.11.36s14.11-.16,14.11-.36-6.32-.36-14.11-.36-14.11.16-14.11.36Z" fill="#fff"/>
            <path d="m557.97,305.7c0,.2,6.36.36,14.21.36s14.21-.16,14.21-.36-6.36-.36-14.21-.36-14.21.16-14.21.36Z" fill="#fff"/>
            <path d="m544.28,305.9c0,.2,2.09.36,4.67.36s4.67-.16,4.67-.36-2.09-.36-4.67-.36-4.67.16-4.67.36Z" fill="#fff"/>
          </g>
          <path d="m589.92,381.14c.14,0,.26-2.66.26-5.94s-.12-5.94-.26-5.94-.26,2.66-.26,5.94.12,5.94.26,5.94Z" fill="#fff"/>
          <path d="m524.92,364.33c0,.14,15.55.26,34.74.26s34.74-.12,34.74-.26-15.55-.26-34.74-.26-34.74.12-34.74.26Z" fill="#fff"/>
          <path d="m538.82,395.7c0,.14,12.29.26,27.45.26s27.46-.12,27.46-.26-12.29-.26-27.46-.26-27.45.12-27.45.26Z" fill="#fff"/>
          <path d="m602.02,409.82c.14,0,.26-1.51.26-3.36s-.12-3.36-.26-3.36-.26,1.51-.26,3.36.12,3.36.26,3.36Z" fill="#fff"/>
          <path d="m541.51,411.17c0,.14,12.74.26,28.46.26s28.46-.12,28.46-.26-12.74-.26-28.46-.26-28.46.12-28.46.26Z" fill="#fff"/>
        </g>
        <path d="m603.2,412.81s.02-.1.03-.28c0-.22.02-.49.03-.82.01-.77.03-1.82.06-3.14.02-2.77.05-6.68.09-11.43v-.21s-.21,0-.21,0c-1.87.01-3.93.03-6.1.04l.23.23c0-4.67.02-9.93.03-15.51v-.26s-.26,0-.26,0c-1.26,0-2.6,0-3.96,0-.57,0-1.14,0-1.7,0l.26.26c0-5.63-.02-10.96-.02-15.76l-.24.24c2.98-.01,5.75-.02,8.26-.03h.21s0-.2,0-.2c-.04-4.72-.07-8.59-.09-11.34-.02-1.31-.04-2.35-.05-3.11-.01-.33-.02-.59-.03-.81-.01-.18-.02-.28-.03-.28s-.02.09-.03.28c0,.22-.02.49-.03.81-.01.76-.03,1.8-.05,3.11-.02,2.75-.05,6.61-.09,11.34l.2-.2c-2.51-.01-5.28-.02-8.26-.03h-.24s0,.24,0,.24c0,4.8-.02,10.13-.02,15.76v.26s.26,0,.26,0c.56,0,1.13,0,1.7,0,1.36,0,2.7,0,3.96,0l-.26-.26c.01,5.58.02,10.84.03,15.51v.23s.23,0,.23,0c2.17-.03,4.23-.06,6.1-.09l-.21-.2c.04,4.76.07,8.66.09,11.43.02,1.32.04,2.37.06,3.14.01.33.02.6.03.82.01.19.02.28.03.28Z" fill="#263238"/>
      </g>
      <g>
        <g>
          <g>
            <path d="m118.29,131.7h373.16c12.71,0,23.03,10.32,23.03,23.03v224.01c0,17.03-13.83,30.86-30.86,30.86H125.1c-17.03,0-30.86-13.83-30.86-30.86v-223c0-13.27,10.77-24.04,24.04-24.04Z" fill="#263238"/>
            <path d="m76.67,389.05h455.29v10.59c0,7.57-6.15,13.72-13.72,13.72H90.4c-7.57,0-13.72-6.15-13.72-13.72v-10.59h0Z" fill="#263238"/>
            <rect x="105.53" y="142.74" width="396.5" height="234.68" rx="15.37" ry="15.37" fill="#fff"/>
            <polygon points="262.94 389.05 268.59 398.03 348.09 398.03 353.33 389.05 262.94 389.05" fill="#455a64"/>
          </g>
          <rect x="94.32" y="388.96" width="420.23" height="1.34" fill="#455a64"/>
        </g>
        <rect x="139.06" y="303.74" width="35.89" height="73.68" fill="#ebebeb"/>
        <rect x="195.61" y="266.77" width="35.89" height="110.65" fill="#ebebeb"/>
        <rect x="254.15" y="266.77" width="35.89" height="110.65" fill="#ebebeb"/>
        <rect x="374.18" y="212.97" width="35.89" height="164.45" fill="#ebebeb"/>
        <rect x="429.09" y="177.52" width="35.89" height="199.91" fill="#ebebeb"/>
        <g>
          <g>
            <path d="m213.72,296.68l41.88-60.3,78.7-61.36,42.43,112.52s-48.1,30.79-60.61,33.89c-12.51,3.09-21.64,2.77-35.5,23.03l-66.9-47.77Z" fill="#ffbe9d"/>
            <path d="m393.14,156.59c1.18-.06,15.59,10.34,7.47,18.8-8.62,9-39.39,35.27-39.39,35.27,0,0-15.6-1.46-12.24-10.44,3.4-9.08,44.16-43.63,44.16-43.63Z" fill="#ffbe9d"/>
            <path d="m405.43,310.46c-7.39.39-14.89-.14-22.36-1.61-24.16-4.75-44.86-18.74-58.28-39.39-12.84-19.76-17.43-43.38-12.91-66.51,4.51-23.13,17.65-43.29,36.98-56.77l79.54-55.46,24.46,35.08-79.54,55.46c-10.18,7.09-17.09,17.71-19.46,29.88-2.38,12.18.04,24.61,6.8,35.01,7.06,10.87,17.96,18.23,30.68,20.73,12.58,2.47,25.31-.13,35.89-7.33l78.96-60.03,25.88,34.04-79.75,60.62-.39.27c-13.98,9.69-29.97,15.12-46.49,15.99Z" fill="#b00043"/>
            <polygon points="491.7 248.02 499.62 258.24 532.06 233.58 525.16 224.54 491.7 248.02" fill="#e0e0e0"/>
            <polygon points="412.82 140.09 419.4 149.14 452.85 125.81 446.27 116.6 412.82 140.09" fill="#e0e0e0"/>
            <g fill="none" opacity=".3">
              <path d="m405.51,310.57c-7.39.39-14.89-.14-22.36-1.61-24.16-4.75-44.86-18.74-58.28-39.39-12.84-19.76-17.43-43.38-12.91-66.51,4.51-23.13,17.65-43.29,36.98-56.77l79.54-55.46,24.46,35.08-79.54,55.46c-10.18,7.09-17.09,17.71-19.46,29.88-2.38,12.18.04,24.61,6.8,35.01,7.06,10.87,17.96,18.23,30.68,20.73,12.58,2.47,25.31-.13,35.89-7.33l78.96-60.03,25.88,34.04-79.75,60.62-.39.27c-13.98,9.69-29.97,15.12-46.49,15.99Z"/>
            </g>
            <path d="m398.79,301.35c-7.39.39-14.89-.14-22.36-1.61-24.16-4.75-44.86-18.74-58.28-39.39-12.84-19.76-17.43-43.38-12.91-66.51,4.51-23.13,17.65-43.29,36.98-56.77l79.54-55.46,24.46,35.08-79.54,55.46c-10.18,7.09-17.09,17.71-19.46,29.88-2.38,12.18.04,24.61,6.8,35.01,7.06,10.87,17.96,18.23,30.68,20.73,12.58,2.47,25.31-.13,35.89-7.33l78.96-60.03,25.9,34.44-79.77,60.23-.39.27c-13.98,9.69-29.97,15.12-46.49,15.99Z" fill="#b00043"/>
            <path d="m361.15,226.87l2.56-1.96c5.79-6.35,4.76-12.45-1.17-16.39-1.17-.78-2.41-1.3-3.71-1.4-6.46-.49-22.87,2.03-29.75,5.16s-10.14,11.05-5.56,16.63c4.58,5.57,10.5,4.43,20.02,3.38,9.51-1.05,17.6-5.41,17.6-5.41Z" fill="#ffbe9d"/>
            <path d="m339.4,238.75s-9.56,6.88-5.66,14.61c3.91,7.73,8.54,7.12,16.94,5.76,8.4-1.36,21.32-13.94,21.32-13.94,0,0,5.23-7.84,1-13.35-5.72-7.45-10.43-4.37-15.34-2.63-4.91,1.74-18.26,9.54-18.26,9.54Z" fill="#ffbe9d"/>
            <path d="m359.94,257.41s-6.88,12.51,2.07,16.85c7.95,3.84,15-3.72,19.28-9.77,4.28-6.04,8.06-11.19,1.99-15.84-5.74-4.4-8.85-4.87-12.58-2.22-5.56,3.95-10.76,10.98-10.76,10.98Z" fill="#ffbe9d"/>
            <path d="m237.56,263.45s17.48-47.71,23.19-59.71c5.71-12,40.32-39.65,40.32-39.65l36.18-16.52s13.51,15.86-2.95,27.45c-16.45,11.59-31.37,19.33-31.37,19.33l-3.41,22.88s10.61,54.6-32.5,87.57l-29.47-41.35Z" fill="#ffbe9d"/>
            <path d="m304.05,194.29s-.02.09-.07.26c-.07.2-.16.44-.26.75-.25.65-.58,1.62-.98,2.88-.79,2.52-1.7,6.25-2.28,10.95-.58,4.69-.79,10.33-.65,16.59.11,6.26.55,13.14.52,20.38-.04,7.24-.66,14.18-2.31,20.26-1.63,6.08-4.2,11.24-6.99,15.09-2.81,3.86-5.75,6.42-7.95,7.91-.55.36-1.05.68-1.48.96-.44.27-.83.45-1.13.62-.29.15-.52.27-.71.37-.16.08-.24.12-.25.11s.07-.06.22-.16c.18-.11.4-.24.68-.41.3-.18.68-.38,1.1-.66.43-.29.91-.62,1.45-.99,2.15-1.53,5.03-4.11,7.77-7.96,2.72-3.85,5.23-8.97,6.82-15,1.61-6.03,2.21-12.93,2.25-20.14.03-7.22-.39-14.1-.48-20.37-.11-6.27.14-11.93.77-16.64.63-4.71,1.6-8.45,2.45-10.96.43-1.26.79-2.22,1.07-2.86.13-.3.23-.54.31-.73.07-.16.11-.25.12-.24Z" fill="#eb996e"/>
            <polygon points="387.55 105.59 412.82 140.09 446.27 116.6 421.93 81.3 387.55 105.59" fill="#e0e0e0"/>
            <polygon points="465.89 215.83 492.82 249.39 525.43 224.86 499.69 190.34 465.89 215.83" fill="#e0e0e0"/>
            <path d="m354.82,207.11s.42-.07,1.21-.11c.21-.01.42-.02.66-.03.25.02.51.03.79.05.29.02.59.04.91.07.32.06.66.13,1.01.19,1.41.3,3.11.91,4.66,2.17,1.55,1.23,2.92,3.07,3.62,5.36h0s0,.04,0,.04c.14,1.63-.14,3.38-.83,5.02-1.15,2.76-3.14,4.91-5.21,6.4-2.08,1.49-4.2,2.43-5.99,3.1-1.8.67-3.29,1.09-4.32,1.38-1.03.28-1.61.41-1.62.38-.01-.04.55-.23,1.56-.57,1.01-.35,2.48-.82,4.24-1.53,1.76-.71,3.83-1.67,5.84-3.15,1.99-1.47,3.9-3.57,5.01-6.21.66-1.57.92-3.23.8-4.78v.04c-.63-2.13-1.93-3.95-3.4-5.14-1.47-1.22-3.09-1.86-4.45-2.19-.34-.08-.67-.15-.98-.22-.31-.03-.61-.07-.89-.1-.27-.03-.53-.06-.77-.09-.23,0-.45,0-.65,0-.78-.01-1.21-.03-1.21-.06Z" fill="#eb996e"/>
            <path d="m373.57,242.51s-.14.3-.48.79c-.33.49-.84,1.18-1.5,2.01-1.31,1.66-3.25,3.86-5.67,6.02-2.42,2.16-4.87,3.81-6.75,4.79-.94.5-1.72.86-2.28,1.06-.55.21-.87.31-.88.28-.03-.08,1.17-.6,2.98-1.66,1.81-1.05,4.19-2.73,6.58-4.86,2.39-2.14,4.35-4.28,5.73-5.87,1.38-1.59,2.2-2.61,2.26-2.56Z" fill="#eb996e"/>
          </g>
          <polygon points="123.88 377.42 212.61 286.72 292.23 351.18 271.73 377.56 123.88 377.42" fill="#b00043"/>
        </g>
        <path d="m168.94,163.64c2.39-1.45,4.94-2.54,7.56-3.29l1.56-7.49,12.65-.22,1.82,7.43c2.65.65,5.23,1.66,7.68,3.02l6.39-4.19,9.1,8.79-3.96,6.54c1.45,2.39,2.54,4.94,3.29,7.57l7.49,1.56.22,12.65-7.43,1.82c-.65,2.65-1.66,5.23-3.02,7.68l4.19,6.39-8.79,9.1-6.54-3.96c-2.39,1.45-4.94,2.54-7.57,3.29l-1.56,7.49-12.65.22-1.82-7.43c-2.65-.65-5.23-1.66-7.68-3.02l-6.39,4.19-9.1-8.79,3.96-6.54c-1.45-2.39-2.54-4.94-3.29-7.57l-7.49-1.56-.22-12.65,7.43-1.82c.65-2.65,1.66-5.23,3.02-7.68l-4.19-6.39,8.79-9.1,6.54,3.96h0Zm6.74,16.85c-5.21,5.39-5.06,13.99.34,19.19,5.39,5.21,13.99,5.06,19.19-.34,5.21-5.39,5.06-13.99-.34-19.19-5.39-5.21-13.99-5.06-19.19.34Z" fill="#e0e0e0"/>
        <path d="m144.99,237.94c1.74-1.05,3.59-1.85,5.51-2.39l1.13-5.45,9.21-.16,1.33,5.41c1.93.48,3.81,1.21,5.59,2.2l4.65-3.05,6.63,6.4-2.88,4.76c1.05,1.74,1.85,3.6,2.39,5.51l5.45,1.13.16,9.21-5.41,1.33c-.48,1.93-1.21,3.81-2.2,5.59l3.05,4.65-6.4,6.63-4.76-2.88c-1.74,1.05-3.6,1.85-5.51,2.39l-1.13,5.45-9.21.16-1.33-5.41c-1.93-.48-3.81-1.21-5.59-2.2l-4.65,3.05-6.63-6.4,2.88-4.76c-1.05-1.74-1.85-3.6-2.39-5.51l-5.45-1.13-.16-9.21,5.41-1.33c.48-1.93,1.21-3.81,2.2-5.59l-3.05-4.65,6.4-6.63,4.76,2.89h0Zm4.91,12.27c-3.79,3.93-3.68,10.18.25,13.97,3.93,3.79,10.18,3.68,13.97-.25,3.79-3.93,3.68-10.18-.25-13.97-3.93-3.79-10.18-3.68-13.97.25Z" fill="#ebebeb"/>
        <path d="m238.77,161.91c1.18-.71,2.43-1.25,3.72-1.62l.77-3.68,6.22-.11.89,3.65c1.3.32,2.57.82,3.77,1.48l3.14-2.06,4.47,4.32-1.95,3.21c.71,1.18,1.25,2.43,1.61,3.72l3.68.77.11,6.22-3.65.89c-.32,1.3-.82,2.57-1.48,3.77l2.06,3.14-4.32,4.47-3.21-1.95c-1.18.71-2.43,1.25-3.72,1.61l-.77,3.68-6.22.11-.89-3.65c-1.3-.32-2.57-.82-3.77-1.48l-3.14,2.06-4.47-4.32,1.95-3.21c-.71-1.18-1.25-2.43-1.62-3.72l-3.68-.77-.11-6.22,3.65-.89c.32-1.3.82-2.57,1.48-3.77l-2.06-3.14,4.32-4.47,3.21,1.95h0Zm3.31,8.28c-2.56,2.65-2.48,6.87.17,9.43,2.65,2.56,6.87,2.48,9.43-.17,2.56-2.65,2.48-6.87-.17-9.43-2.65-2.56-6.87-2.48-9.43.17Z" fill="#ebebeb"/>
        <rect x="313.14" y="327.28" width="35.89" height="50.14" fill="#ebebeb"/>
      </g>
      <g>
        <path d="m156.03,232.84c-3.93-2.75-9.52-2.9-13.6-.35-1.34-4.77-5.2-8.76-9.93-10.24-4.73-1.48-10.18-.41-14,2.76-4.08-3.94-10.48-5.27-15.8-3.3-5.32,1.98-9.29,7.17-9.81,12.82-5.98.32-12.15,4.26-13.4,10.97h81.52c1-4.7-1.05-9.9-4.98-12.65Z" fill="#fff"/>
        <path d="m156.03,232.84s.27.17.78.55c.48.4,1.19,1.02,1.94,2,.74.97,1.53,2.3,2.07,4.01.52,1.71.8,3.82.33,6.12l-.02.11h-.11c-16.65.03-46.93.07-81.52.12h-.33s.07-.31.07-.31c.03-.12.06-.26.09-.39.65-3.14,2.56-5.9,5.06-7.74,2.49-1.85,5.5-2.88,8.49-3.05l-.24.23c.62-6.32,5.27-11.64,10.81-13.29,5.58-1.67,11.53.09,15.21,3.64h-.29c2.4-1.96,5.27-3.06,8.06-3.35,2.8-.31,5.53.16,7.81,1.23,4.61,2.16,7.36,6.16,8.33,9.73l-.2-.08c2-1.22,4.08-1.69,5.86-1.78,1.79-.08,3.31.21,4.48.57,1.17.37,2,.83,2.54,1.14.53.34.78.54.78.54,0,0-.07-.03-.21-.11-.15-.09-.35-.21-.61-.36-.55-.29-1.38-.72-2.55-1.07-1.16-.34-2.66-.6-4.43-.5-1.75.11-3.79.59-5.73,1.8l-.15.1-.05-.17c-.98-3.49-3.7-7.4-8.22-9.47-2.23-1.02-4.89-1.47-7.62-1.16-2.72.29-5.51,1.38-7.83,3.28l-.15.12-.14-.13c-3.57-3.43-9.37-5.12-14.76-3.49-5.35,1.6-9.85,6.78-10.44,12.88l-.02.22h-.22c-2.89.17-5.8,1.18-8.21,2.96-2.41,1.77-4.23,4.42-4.86,7.43-.03.13-.06.26-.09.38l-.26-.31c34.59.05,64.87.1,81.52.12l-.13.11c.47-2.24.23-4.32-.27-6-.51-1.69-1.27-3.01-1.98-3.99-.72-.98-1.41-1.61-1.87-2.03-.23-.19-.41-.33-.55-.45-.12-.1-.18-.15-.18-.16Z" fill="#263238"/>
      </g>
      <g>
        <path d="m290,342.43c-3.85-2.69-9.31-2.84-13.3-.34-1.31-4.67-5.09-8.57-9.71-10.01-4.63-1.45-9.96-.4-13.69,2.69-3.99-3.85-10.25-5.16-15.45-3.22-5.2,1.93-9.09,7.01-9.6,12.53-5.85.31-11.88,4.16-13.1,10.73h79.73c.98-4.59-1.03-9.68-4.87-12.38Z" fill="#fff"/>
        <path d="m290,342.43s.27.17.76.54c.47.4,1.17,1,1.9,1.96.72.95,1.5,2.25,2.02,3.93.51,1.67.78,3.74.33,5.99l-.02.11h-.11c-16.28.03-45.89.07-79.73.12h-.33s.07-.31.07-.31c.03-.12.06-.25.09-.39.64-3.07,2.51-5.78,4.95-7.57,2.44-1.81,5.38-2.82,8.31-2.98l-.24.23c.61-6.19,5.15-11.39,10.58-13,5.46-1.63,11.28.09,14.88,3.56h-.29c2.35-1.92,5.15-3,7.89-3.28,2.74-.3,5.41.16,7.64,1.2,4.51,2.11,7.2,6.02,8.15,9.52l-.2-.08c1.95-1.2,3.99-1.65,5.74-1.74,1.76-.08,3.24.2,4.38.56,1.15.36,1.95.81,2.49,1.12.52.34.76.53.76.53,0,0-.07-.03-.21-.11-.15-.09-.34-.21-.59-.36-.54-.28-1.35-.71-2.49-1.04-1.14-.33-2.6-.58-4.33-.48-1.71.11-3.71.58-5.6,1.76l-.15.1-.05-.17c-.96-3.42-3.62-7.23-8.03-9.26-2.18-1-4.78-1.44-7.45-1.13-2.66.29-5.39,1.35-7.65,3.2l-.15.12-.14-.13c-3.49-3.35-9.16-5-14.43-3.41-5.23,1.56-9.63,6.63-10.21,12.59l-.02.22h-.22c-2.83.17-5.67,1.15-8.02,2.9-2.35,1.73-4.14,4.32-4.75,7.27-.03.13-.06.25-.09.37l-.26-.31c33.83.05,63.44.1,79.73.12l-.13.11c.46-2.19.22-4.22-.26-5.87-.5-1.66-1.24-2.95-1.94-3.9-.71-.96-1.38-1.57-1.83-1.99-.23-.18-.4-.33-.54-.44-.12-.1-.18-.15-.18-.16Z" fill="#263238"/>
      </g>
      <g>
        <path d="m467.7,339.6c-3.85-2.69-9.31-2.84-13.3-.34-1.31-4.67-5.09-8.57-9.71-10.01-4.63-1.45-9.96-.4-13.69,2.69-3.99-3.85-10.25-5.16-15.45-3.22-5.2,1.93-9.09,7.01-9.6,12.53-5.85.31-11.88,4.16-13.1,10.73h79.73c.98-4.59-1.03-9.68-4.87-12.38Z" fill="#fff"/>
        <path d="m467.7,339.6s.27.17.76.54c.47.4,1.17,1,1.9,1.96.72.95,1.5,2.25,2.02,3.93.51,1.67.78,3.74.33,5.99l-.02.11h-.11c-16.28.03-45.89.07-79.73.12h-.33s.07-.31.07-.31c.03-.12.06-.25.09-.39.64-3.07,2.51-5.78,4.95-7.57,2.44-1.81,5.38-2.82,8.31-2.98l-.24.23c.61-6.19,5.15-11.39,10.58-13,5.46-1.63,11.28.09,14.88,3.56h-.29c2.35-1.92,5.15-3,7.89-3.28,2.74-.3,5.41.16,7.64,1.2,4.51,2.11,7.2,6.02,8.15,9.52l-.2-.08c1.95-1.2,3.99-1.65,5.74-1.74,1.76-.08,3.24.2,4.38.56,1.15.36,1.95.81,2.49,1.12.52.34.76.53.76.53,0,0-.07-.03-.21-.11-.15-.09-.34-.21-.59-.36-.54-.28-1.35-.71-2.49-1.04-1.14-.33-2.6-.58-4.33-.48-1.71.11-3.71.58-5.6,1.76l-.15.1-.05-.17c-.96-3.42-3.62-7.23-8.03-9.26-2.18-1-4.78-1.44-7.45-1.13-2.66.29-5.39,1.35-7.65,3.2l-.15.12-.14-.13c-3.49-3.35-9.16-5-14.43-3.41-5.23,1.56-9.63,6.63-10.21,12.59l-.02.22h-.22c-2.83.17-5.67,1.15-8.02,2.9-2.35,1.73-4.14,4.32-4.75,7.27-.03.13-.06.25-.09.37l-.26-.31c33.83.05,63.44.1,79.73.12l-.13.11c.46-2.19.22-4.22-.26-5.87-.5-1.66-1.24-2.95-1.94-3.9-.71-.96-1.38-1.57-1.83-1.98-.23-.18-.4-.33-.54-.44-.12-.1-.18-.15-.18-.16Z" fill="#263238"/>
      </g>
      <g>
        <path d="m236.31,203.3c-2.51-1.76-6.08-1.85-8.68-.23-.85-3.05-3.32-5.59-6.34-6.54-3.02-.94-6.5-.26-8.94,1.76-2.61-2.51-6.69-3.37-10.09-2.1-3.4,1.26-5.93,4.58-6.26,8.18-3.82.2-7.76,2.72-8.55,7.01h52.05c.64-3-.67-6.32-3.18-8.08Z" fill="#fff"/>
        <path d="m236.31,203.3s.77.38,1.76,1.61c.48.62.99,1.47,1.33,2.57.34,1.09.52,2.45.22,3.93l-.02.11h-.11c-10.59.08-29.94.12-52.05.13h-.33l.07-.31c.02-.08.04-.17.06-.25.42-2.02,1.65-3.81,3.26-5,1.61-1.19,3.54-1.86,5.47-1.96l-.24.23c.41-4.08,3.39-7.5,6.97-8.56,3.6-1.07,7.42.06,9.79,2.35h-.29c3.12-2.55,7.3-2.74,10.21-1.36,2.96,1.39,4.72,3.96,5.34,6.26l-.2-.08c1.29-.78,2.63-1.08,3.77-1.13,1.15-.05,2.12.14,2.87.38,1.5.5,2.11,1.1,2.11,1.1-.02.05-.67-.51-2.16-.96-.74-.21-1.69-.37-2.82-.3-1.11.08-2.41.38-3.64,1.15l-.15.1-.05-.17c-.63-2.22-2.36-4.69-5.23-6-2.8-1.31-6.82-1.08-9.78,1.35l-.15.12-.14-.13c-2.26-2.17-5.94-3.23-9.34-2.2-3.38,1.01-6.23,4.29-6.6,8.15l-.02.22h-.22c-1.83.11-3.67.75-5.19,1.88-1.52,1.12-2.67,2.79-3.07,4.69-.02.08-.04.16-.06.24l-.26-.31c22.1,0,41.45.05,52.05.12l-.13.11c.3-1.42.15-2.74-.16-3.81-.32-1.08-.8-1.92-1.25-2.54-.93-1.24-1.68-1.66-1.64-1.7Z" fill="#263238"/>
      </g>
      <g>
        <g>
          <path d="m478.83,186.98h0c-9.74,8.3-24.37,7.14-32.67-2.6h0c-8.3-9.74-7.14-24.37,2.6-32.67h0c9.74-8.31,24.37-7.14,32.67,2.6h0c8.3,9.74,7.14,24.37-2.6,32.67Z" fill="#fff"/>
          <path d="m478.83,186.98s.08-.1.26-.28c.19-.19.45-.45.78-.77.18-.17.37-.36.58-.57.2-.22.41-.48.64-.74.46-.54,1-1.15,1.5-1.92,1.09-1.47,2.15-3.48,2.99-5.94.83-2.46,1.35-5.43,1.15-8.69-.2-3.25-1.07-6.82-3.02-10.14-1.95-3.28-4.8-6.43-8.59-8.51-.92-.57-1.93-.97-2.94-1.42-1.04-.35-2.09-.76-3.2-.97-1.09-.29-2.23-.39-3.37-.54-1.15-.03-2.31-.11-3.48.02-2.33.19-4.7.65-6.93,1.6-2.24.92-4.36,2.2-6.27,3.79-1.87,1.64-3.47,3.53-4.74,5.59-1.29,2.05-2.12,4.32-2.68,6.59-.31,1.13-.42,2.29-.57,3.43-.03,1.15-.11,2.29,0,3.41.03,1.13.27,2.23.45,3.31.28,1.07.52,2.13.94,3.13,1.45,4.07,4.12,7.38,7.05,9.83,2.97,2.45,6.36,3.87,9.53,4.59,3.19.71,6.21.66,8.76.23,2.56-.44,4.71-1.17,6.33-2.01.84-.37,1.53-.81,2.13-1.17.3-.19.59-.34.83-.51.24-.18.45-.34.65-.48.37-.27.67-.49.89-.65.2-.14.31-.22.31-.21,0,0-.09.09-.28.25-.21.17-.5.4-.86.69-.19.15-.41.32-.64.51-.24.17-.53.34-.82.54-.6.38-1.28.84-2.13,1.22-1.63.88-3.79,1.64-6.38,2.12-2.58.46-5.64.53-8.89-.16-3.23-.7-6.69-2.13-9.73-4.61-3-2.48-5.73-5.84-7.23-9.99-.43-1.02-.68-2.11-.97-3.19-.19-1.11-.44-2.23-.47-3.38-.12-1.15-.04-2.31-.01-3.49.15-1.17.26-2.35.57-3.51.57-2.32,1.41-4.64,2.73-6.74,1.29-2.11,2.93-4.04,4.84-5.72,1.96-1.62,4.13-2.93,6.41-3.88,2.28-.97,4.71-1.44,7.09-1.63,1.19-.12,2.38-.05,3.56-.01,1.17.15,2.33.26,3.44.56,1.13.21,2.2.64,3.27.99,1.03.46,2.06.88,3,1.46,3.87,2.14,6.76,5.36,8.73,8.72,1.97,3.39,2.83,7.03,3.01,10.33.17,3.32-.38,6.32-1.24,8.8-.88,2.48-1.98,4.49-3.1,5.96-.51.77-1.07,1.37-1.55,1.91-.24.26-.45.52-.66.73-.22.2-.42.38-.6.55-.35.31-.62.56-.82.74-.19.16-.29.24-.29.24Z" fill="#263238"/>
        </g>
        <path d="m465.17,167.85c.97-1.91.71-4.37-.84-6.21-2.03-2.4-5.5-2.81-7.76-.9-2.25,1.9-2.43,5.39-.4,7.79,1.56,1.85,3.98,2.5,6.04,1.84-5.45,6.27.63,12.83.63,12.83l14.84-12.54s-5.52-7.16-12.52-2.81Z" fill="#5ca3de"/>
      </g>
      <g>
        <g>
          <circle cx="562.55" cy="252.54" r="14.23" transform="translate(-13.8 471.75) rotate(-45)" fill="#fff"/>
          <path d="m576.78,252.54c-.08,0,0-1.27-.54-3.45-.55-2.14-1.97-5.28-5.19-7.72-1.59-1.19-3.6-2.2-5.91-2.6-2.3-.39-4.89-.31-7.35.63-1.24.43-2.44,1.08-3.54,1.91-1.11.81-2.12,1.81-2.95,2.97-1.72,2.29-2.69,5.23-2.72,8.26.03,3.03,1,5.97,2.71,8.26.83,1.16,1.84,2.16,2.95,2.97,1.1.82,2.3,1.48,3.54,1.91,2.47.94,5.06,1.02,7.35.63,2.31-.4,4.32-1.41,5.91-2.6,3.22-2.43,4.64-5.58,5.19-7.72.55-2.18.46-3.46.54-3.45,0,0,.01.08.01.23,0,.18,0,.41,0,.68,0,.3-.01.67-.09,1.1-.06.43-.11.94-.27,1.49-.23,1.11-.73,2.44-1.54,3.84-.81,1.4-2,2.87-3.62,4.12-1.62,1.24-3.68,2.3-6.06,2.73-2.36.42-5.04.36-7.6-.6-1.29-.44-2.53-1.11-3.67-1.96-1.15-.83-2.2-1.87-3.07-3.07-1.79-2.37-2.8-5.42-2.82-8.56.03-3.14,1.04-6.19,2.83-8.56.87-1.2,1.91-2.24,3.07-3.07,1.14-.85,2.38-1.52,3.67-1.96,2.56-.96,5.23-1.02,7.6-.6,2.38.44,4.44,1.49,6.06,2.73,1.63,1.25,2.81,2.72,3.62,4.12.81,1.41,1.31,2.73,1.54,3.84.16.55.21,1.05.27,1.49.07.43.09.8.09,1.1,0,.27,0,.5,0,.68,0,.15,0,.23-.01.23Z" fill="#263238"/>
        </g>
        <path d="m556.41,251.77c.04-.77.37-1.52.85-2.13.47-.6,1.1-1.08,1.83-1.29.78-.22,1.64-.11,2.34.31.41.25.76.6,1.01,1.01.2-.39.48-.74.82-1.01.64-.5,1.48-.72,2.28-.6.75.11,1.44.52,1.98,1.05.55.55.97,1.24,1.11,2.01.17.96.05,2.02-.4,2.89-.47.91-1.28,1.67-2.12,2.26-1.42.98-3.29,2.22-3.29,2.22,0,0-1.72-1.12-3.25-1.92-.91-.47-1.81-1.13-2.39-1.97-.55-.8-.8-1.84-.75-2.81Z" fill="#b00043"/>
      </g>
      <g>
        <g>
          <circle cx="26.88" cy="207.06" r="26.62" transform="translate(-87.04 32.08) rotate(-25.67)" fill="#fff"/>
          <path d="m53.51,207.06s-.03-.15-.05-.43c-.02-.31-.05-.73-.09-1.26-.02-.28-.04-.59-.06-.93-.04-.34-.11-.71-.17-1.11-.13-.8-.25-1.73-.56-2.74-.47-2.05-1.44-4.48-2.96-7.05-1.53-2.56-3.74-5.23-6.74-7.5-2.99-2.24-6.77-4.15-11.12-4.92-4.33-.74-9.21-.61-13.86,1.16-1.18.38-2.3.96-3.44,1.51-1.08.66-2.23,1.26-3.23,2.08-1.07.74-2.01,1.66-2.99,2.54-.89.98-1.82,1.94-2.58,3.06-1.57,2.18-2.94,4.6-3.77,7.26-.86,2.65-1.32,5.46-1.36,8.32.04,2.86.5,5.67,1.36,8.32.83,2.66,2.2,5.09,3.77,7.27.76,1.11,1.7,2.08,2.58,3.06.98.89,1.92,1.81,2.99,2.54,1.01.82,2.15,1.42,3.23,2.08,1.14.55,2.26,1.13,3.44,1.51,4.65,1.77,9.54,1.9,13.86,1.16,4.36-.77,8.13-2.68,11.12-4.92,3-2.27,5.21-4.94,6.74-7.5,1.52-2.57,2.48-4.99,2.96-7.05.31-1.01.43-1.94.56-2.74.06-.4.14-.77.17-1.11.02-.34.04-.65.06-.93.04-.54.07-.95.09-1.26.02-.28.04-.43.05-.43s.01.15,0,.43c0,.31-.02.73-.04,1.27-.01.28-.02.59-.03.94-.03.34-.1.71-.15,1.12-.11.81-.22,1.75-.52,2.77-.45,2.08-1.39,4.53-2.9,7.14-1.52,2.6-3.74,5.32-6.76,7.64-3.02,2.3-6.84,4.25-11.27,5.06-4.39.77-9.36.65-14.11-1.13-1.21-.38-2.34-.98-3.51-1.53-1.11-.66-2.27-1.28-3.3-2.11-1.09-.75-2.05-1.68-3.05-2.59-.91-1-1.86-1.98-2.64-3.11-1.6-2.22-3-4.69-3.85-7.41-.88-2.7-1.35-5.57-1.39-8.48.04-2.92.51-5.78,1.39-8.48.85-2.71,2.25-5.18,3.85-7.4.78-1.13,1.73-2.11,2.64-3.11,1-.9,1.96-1.84,3.05-2.59,1.03-.83,2.19-1.45,3.3-2.11,1.17-.56,2.3-1.15,3.51-1.53,4.74-1.79,9.71-1.91,14.1-1.13,4.42.8,8.25,2.76,11.27,5.06,3.03,2.32,5.24,5.04,6.77,7.64,1.51,2.61,2.46,5.07,2.9,7.15.3,1.02.4,1.96.52,2.77.05.4.12.78.15,1.12.01.34.02.65.03.94.02.54.03.96.04,1.27,0,.29,0,.43,0,.43Z" fill="#263238"/>
        </g>
        <path d="m15.4,205.63c.07-1.45.69-2.84,1.58-3.98.88-1.12,2.06-2.03,3.43-2.42,1.45-.41,3.07-.2,4.37.58.77.46,1.42,1.12,1.89,1.88.37-.73.89-1.38,1.53-1.88,1.19-.93,2.77-1.35,4.26-1.12,1.41.21,2.69.97,3.7,1.97,1.03,1.02,1.82,2.32,2.07,3.75.32,1.79.09,3.78-.74,5.4-.88,1.7-2.4,3.13-3.98,4.22-2.66,1.84-6.16,4.15-6.16,4.15,0,0-3.22-2.1-6.08-3.59-1.7-.89-3.38-2.11-4.47-3.69-1.03-1.5-1.5-3.45-1.41-5.26Z" fill="#5ca3de"/>
      </g>
      <g>
        <g>
          <path d="m342.2,89.56h0c-7.01-4.14-9.34-13.18-5.21-20.19h0c4.14-7.01,13.18-9.34,20.19-5.21h0c7.01,4.14,9.34,13.18,5.21,20.19h0c-4.14,7.01-13.18,9.34-20.19,5.21Z" fill="#fff"/>
          <path d="m342.2,89.56c.04-.07,1.13.68,3.36,1.34,2.2.64,5.76,1.02,9.62-.57,1.9-.8,3.86-2.06,5.44-3.91,1.56-1.85,2.86-4.2,3.32-6.89.27-1.34.32-2.75.16-4.16-.13-1.42-.5-2.85-1.1-4.2-1.14-2.74-3.25-5.16-5.94-6.78-2.72-1.57-5.86-2.26-8.81-1.93-1.48.13-2.9.5-4.21,1.07-1.31.55-2.53,1.27-3.57,2.15-2.14,1.71-3.57,3.98-4.43,6.24-.86,2.28-1.01,4.6-.79,6.65.48,4.15,2.54,7.08,4.16,8.69,1.66,1.64,2.84,2.23,2.79,2.3,0,0-.08-.03-.21-.11-.16-.1-.36-.22-.6-.37-.27-.16-.59-.37-.94-.66-.36-.28-.78-.59-1.19-1.02-.87-.79-1.79-1.94-2.62-3.4-.82-1.46-1.51-3.29-1.76-5.4-.25-2.1-.11-4.49.75-6.84.87-2.33,2.33-4.68,4.53-6.46,1.07-.91,2.32-1.67,3.68-2.24,1.35-.59,2.83-.98,4.35-1.12,3.05-.35,6.31.36,9.12,1.99,2.79,1.68,4.98,4.19,6.15,7.03.62,1.4.99,2.88,1.12,4.35.16,1.46.1,2.92-.18,4.3-.49,2.78-1.84,5.2-3.46,7.09-1.64,1.89-3.67,3.17-5.62,3.96-1.97.79-3.9,1.08-5.58,1.07-1.68-.02-3.12-.27-4.24-.65-.57-.15-1.05-.37-1.47-.54-.42-.16-.76-.34-1.03-.5-.25-.14-.45-.26-.61-.35-.14-.08-.2-.13-.2-.13Z" fill="#263238"/>
        </g>
        <path d="m350.88,77.38c1.35.18,2.78-.48,3.56-1.79,1.02-1.72.55-3.89-1.06-4.85-1.61-.96-3.75-.35-4.77,1.37-.79,1.32-.68,2.91.15,4.01-4.9-1.98-7.59,3.04-7.59,3.04l10.62,6.33s3.16-4.8-.9-8.11Z" fill="#393838"/>
      </g>
      <g>
        <g>
          <circle cx="585.33" cy="48.36" r="35.63" transform="translate(41.13 269.27) rotate(-26.82)" fill="#fff"/>
          <g>
            <path d="m599.99,37.02c-.09-2.53-1.25-5.01-3.14-6.71-2.07-1.86-4.9-2.73-7.69-2.82-2.78-.09-5.55.53-8.21,1.33-1.5.45-3.01.98-4.23,1.95-2.24,1.77-4.79,4.93-5.61,7.67-.66,2.21-1.13,8.02-.66,10.28.17.8.83,1.65,1.69,2.45.55,2.25,1.49,4.41,2.79,6.33.87-1.38,1.75-2.77,2.62-4.15l22.43-16.33Z" fill="#263238"/>
            <path d="m599.35,33.95l-4.23-1.83c1.06,6.32-1.39,19.63-1.44,26.03,2.19-1.98,7.66-8.28,8.14-11.19.47-2.91,2.9-12.26-2.47-13.01Z" fill="#263238"/>
            <path d="m576.15,38.59c1.03-3.3,3.85-5.55,7.31-5.61l10.78-.2c4.51.56,6.17,6.66,5.42,11.14-.84,4.98-1.86,10.2-3.29,13.72-2.89,7.09-8.75,6.71-8.75,6.71,0-.01-.83,3.5-1.34,5.65l-4.18,9.12-12-9.27,5.98-31.18c.03-.13,0,.08.05-.08Z" fill="#ffbe9d"/>
            <path d="m595.84,49.41c-.1.5-.61.83-1.13.74-.53-.09-.87-.58-.77-1.08.1-.5.61-.83,1.13-.74.53.09.87.58.78,1.08Z" fill="#263238"/>
            <path d="m597.88,46.55c-.15.1-.74-.6-1.75-.83-1.01-.25-1.88.1-1.96-.05-.04-.07.13-.26.51-.42.37-.16.97-.26,1.6-.11.63.15,1.11.51,1.36.82.26.31.31.56.24.6Z" fill="#263238"/>
            <path d="m586.77,47c-.1.5-.61.83-1.13.74-.53-.09-.87-.58-.77-1.08.1-.5.61-.83,1.13-.74.53.09.87.58.78,1.08Z" fill="#263238"/>
            <path d="m588.24,44.27c-.15.1-.74-.6-1.75-.83-1.01-.25-1.88.1-1.96-.05-.04-.07.13-.26.51-.42.37-.16.97-.26,1.6-.11.63.15,1.11.51,1.36.82.26.31.31.56.24.6Z" fill="#263238"/>
            <path d="m589.53,53c0-.06.67-.02,1.72.09.27.03.52.04.61-.13.1-.17.06-.48,0-.81-.1-.68-.2-1.4-.31-2.15-.41-3.06-.64-5.55-.52-5.57.12-.02.56,2.45.96,5.51.09.75.19,1.47.27,2.16.03.32.12.69-.1,1.05-.12.18-.34.27-.52.28-.18.01-.32-.02-.45-.04-1.04-.18-1.68-.33-1.67-.39Z" fill="#263238"/>
            <path d="m578.48,59.44s1.2,5.62,8.73,6.65l.41-1.73s-4.92-.82-9.14-4.92Z" fill="#eb996e"/>
            <path d="m588.78,40.53c-.16.25-1.15-.11-2.37-.25-1.22-.16-2.27-.03-2.37-.32-.04-.13.19-.36.64-.53.45-.18,1.12-.29,1.86-.2.73.09,1.36.36,1.76.63.4.28.57.55.49.67Z" fill="#263238"/>
            <path d="m598.28,43.36c-.23.19-.88-.21-1.71-.42-.83-.24-1.59-.21-1.7-.49-.04-.13.12-.34.48-.48.36-.15.91-.2,1.49-.05.57.15,1.03.48,1.26.78.24.31.28.57.18.66Z" fill="#263238"/>
            <path d="m599.25,36.74c-.19-1.21-1.25-2.16-2.43-2.51-1.18-.34-2.45-.16-3.63.19-4.98,1.5-8.67,7.09-13.62,8.69-1.22.39-2.46-.52-3.57.12-1.11.64-2.02,1.87-1.78,3.12-.39-.93-.79-1.89-.9-2.89-.11-1.01.1-2.1.8-2.84.53-.56,1.31-.9,1.66-1.58.31-.6.22-1.33.4-1.98.19-.66.65-1.21,1.12-1.72,2.4-2.6,5.37-4.76,8.78-5.74,2.22-.64,4.62-.75,6.85-.15,2.23.61,4.28,1.96,5.57,3.89.76,1.13,1.55,2.3.76,3.41" fill="#263238"/>
            <path d="m575.9,44.16c-.03-.23-3.54-2.52-4.55,1.55-.98,3.95,3.2,4.11,3.23,4,.03-.11,1.32-5.55,1.32-5.55Z" fill="#ffbe9d"/>
            <path d="m573.73,47.91s-.08.03-.21.06c-.13.02-.33.01-.52-.12-.38-.26-.57-1.01-.41-1.72.08-.36.24-.69.44-.94.19-.26.43-.42.65-.4.22,0,.34.17.36.29.03.12-.02.2,0,.21,0,.01.1-.05.11-.22,0-.08-.02-.19-.09-.29-.08-.1-.21-.17-.36-.19-.31-.05-.65.16-.87.44-.23.27-.42.64-.51,1.04-.17.8.05,1.65.59,1.95.26.14.51.11.66.05.15-.07.19-.15.18-.16Z" fill="#eb996e"/>
            <path d="m574.8,41.75s.09-.02.27-.08c.17-.06.44-.13.76-.27.65-.27,1.57-.72,2.6-1.44,1.04-.71,2.17-1.69,3.42-2.78,1.24-1.09,2.61-2.3,4.23-3.3.82-.48,1.65-.89,2.5-1.17.85-.28,1.7-.43,2.52-.5,1.64-.13,3.13.11,4.32.47,1.19.36,2.09.84,2.68,1.21.3.18.52.34.67.45.15.1.23.16.24.15,0,0-.07-.07-.21-.18-.15-.11-.35-.29-.65-.48-.58-.39-1.48-.9-2.68-1.28-1.2-.39-2.7-.64-4.37-.52-.83.06-1.7.21-2.57.49-.87.28-1.72.7-2.54,1.18-1.64,1.01-3.01,2.23-4.25,3.33-1.24,1.1-2.36,2.08-3.38,2.8-1.02.73-1.91,1.2-2.55,1.48-.32.14-.58.22-.75.3-.17.07-.26.11-.26.11Z" fill="#fff"/>
            <path d="m575.53,43.11c-.32,1.07-.64,2.2-.36,3.28.27,1.08,1.38,2.03,2.45,1.71.87-.26,1.33-1.19,1.67-2.03.97-2.44,1.74-4.95,2.74-7.37l-6.49,4.41Z" fill="#263238"/>
            <path d="m598.72,34.62s-.33-.15-.96-.32c-.63-.17-1.58-.3-2.74-.14-.58.08-1.2.22-1.84.46-.64.24-1.31.54-2,.89-1.37.71-2.82,1.62-4.16,2.8-.67.59-1.29,1.21-1.93,1.77-.64.56-1.31,1.05-2.01,1.41-1.39.73-2.74,1.15-3.88,1.45-1.14.3-2.08.47-2.72.59-.3.05-.55.1-.75.13-.17.03-.26.04-.26.03,0,0,.09-.03.25-.07.19-.04.44-.1.74-.17.64-.15,1.57-.35,2.7-.66,1.13-.32,2.46-.75,3.82-1.48.68-.36,1.33-.84,1.96-1.39.63-.55,1.25-1.18,1.92-1.77,1.36-1.19,2.83-2.1,4.22-2.81.7-.35,1.37-.65,2.03-.89.66-.23,1.3-.37,1.89-.44,1.18-.15,2.15.02,2.78.21.32.1.55.2.71.27.16.08.23.12.23.13Z" fill="#455a64"/>
            <path d="m576,40.63s-.14.07-.41.15c-.31.1-.69.21-1.14.35-.12.04-.25.07-.38.11-.14.04-.3.07-.47.04-.08-.01-.18-.05-.25-.13-.07-.08-.1-.19-.09-.3.04-.21.19-.34.31-.46.49-.49,1.03-1.02,1.6-1.59l.12.18c-.44.19-.92.31-1.42.33-.5.03-1-.03-1.46-.17-.11-.03-.24-.08-.34-.15-.11-.07-.22-.18-.24-.34-.02-.16.07-.31.16-.38.09-.09.2-.14.28-.19.72-.43,1.31-.93,1.75-1.38.89-.92,1.25-1.65,1.29-1.62.01,0-.07.19-.25.5-.19.31-.48.75-.92,1.23-.44.48-1.02,1-1.76,1.45-.18.11-.37.23-.34.37.02.14.23.25.44.3.43.13.9.18,1.38.15.48-.03.93-.14,1.35-.31l.55-.23-.43.42c-.58.56-1.13,1.09-1.62,1.57-.12.12-.24.23-.26.35-.02.11.06.2.19.22.26.05.53-.07.78-.13.46-.11.85-.21,1.16-.29.27-.06.42-.09.43-.08Z" fill="#fff"/>
            <path d="m585.23,53.96c.28-.57,1-.89,1.61-.68.44.15.78.55.89,1.01.11.45,0,.95-.25,1.34l-.04.09c-.52.36-1.28.35-1.78-.04-.5-.39-.69-1.14-.41-1.72Z" fill="#eb996e"/>
            <path d="m588.16,55.91c.04-.15-1-.35-1.57-1.37-.58-1.02-.26-2.11-.4-2.14-.06-.03-.25.21-.35.67-.1.46-.08,1.15.28,1.78.35.63.91.97,1.33,1.08.43.12.71.05.71-.02Z" fill="#263238"/>
          </g>
          <path d="m597.92,75.63c-1.67-2.18-4.43-3.98-4.43-3.98l-6.81-3.42s-3.19,4.43-8.94,2.56c-5.4-1.75-6.62-6.99-6.62-6.99,0,0-9.65-1.26-16.71,2.49,4.16,6.75,9.83,12.36,18.61,15.59,7.75,3.12,19.14,3.23,28.05-1.46,0,0-1.32-2.4-3.15-4.78Z" fill="#5ca3de"/>
        </g>
        <path d="m551.06,57.38s.08.18.2.55c.12.38.3.92.53,1.62.11.36.24.76.38,1.19.16.43.38.89.59,1.39.43,1.01.9,2.18,1.63,3.4,1.29,2.53,3.35,5.38,6.18,8.23,2.84,2.84,6.6,5.6,11.27,7.58,4.65,1.95,10.21,3.2,16.16,2.77,1.48-.16,2.99-.23,4.49-.6.75-.16,1.52-.28,2.27-.48.75-.23,1.5-.46,2.25-.7.38-.12.76-.22,1.13-.37l1.11-.47c.74-.32,1.49-.61,2.23-.96,1.42-.8,2.92-1.51,4.26-2.51,1.42-.89,2.68-2.02,4-3.12.63-.58,1.21-1.22,1.82-1.83.63-.6,1.17-1.28,1.72-1.96,1.16-1.32,2.08-2.83,3.07-4.32.84-1.58,1.74-3.14,2.37-4.85,1.33-3.37,2.32-6.99,2.53-10.75.25-3.75-.08-7.57-.97-11.33-1-3.73-2.53-7.25-4.53-10.43-.53-.78-1.06-1.55-1.58-2.32-.6-.71-1.19-1.43-1.79-2.14-.28-.37-.6-.7-.94-1.01l-.98-.97-.98-.96-1.06-.86c-1.37-1.2-2.91-2.15-4.39-3.14-1.58-.83-3.11-1.73-4.75-2.34-.8-.34-1.61-.68-2.44-.91-.83-.25-1.64-.53-2.47-.74-1.68-.34-3.33-.74-5-.84-1.66-.25-3.31-.16-4.94-.19-.81.04-1.62.14-2.42.21l-1.2.11c-.4.05-.78.15-1.17.22-.78.15-1.55.31-2.31.46-.76.18-1.49.44-2.23.66-1.49.39-2.86,1.05-4.24,1.61-5.44,2.45-9.74,6.2-12.9,10.12-3.17,3.96-5.16,8.18-6.31,12.03-1.13,3.86-1.58,7.34-1.52,10.18-.07,1.42.08,2.68.18,3.76.05.54.08,1.05.15,1.51.09.45.16.86.23,1.23.13.72.24,1.28.31,1.68.07.38.09.58.09.58,0,0-.06-.19-.14-.56-.09-.4-.2-.95-.36-1.67-.08-.37-.16-.78-.26-1.23-.07-.46-.11-.96-.17-1.51-.12-1.09-.28-2.35-.23-3.78-.1-2.85.33-6.37,1.44-10.26,1.13-3.89,3.12-8.16,6.3-12.17,3.18-3.98,7.51-7.79,13.01-10.29,1.39-.57,2.77-1.25,4.28-1.64.75-.22,1.49-.49,2.25-.67.77-.16,1.56-.31,2.34-.47.39-.07.79-.17,1.19-.22l1.21-.12c.81-.07,1.62-.18,2.45-.22,1.65.02,3.33-.07,5.01.18,1.7.1,3.37.5,5.07.84.84.21,1.67.5,2.51.75.85.23,1.66.57,2.48.92,1.67.61,3.22,1.52,4.82,2.36,1.51,1,3.07,1.96,4.46,3.18l1.08.87,1,.97,1,.98c.34.32.66.66.95,1.03.6.72,1.21,1.44,1.81,2.17.53.78,1.07,1.56,1.61,2.35,2.03,3.22,3.59,6.8,4.6,10.58.91,3.81,1.24,7.69.98,11.49-.21,3.81-1.22,7.48-2.57,10.9-.64,1.73-1.56,3.32-2.41,4.92-1.01,1.5-1.94,3.04-3.12,4.37-.55.69-1.1,1.38-1.74,1.99-.62.62-1.21,1.26-1.85,1.85-1.33,1.11-2.62,2.25-4.06,3.15-1.36,1.02-2.88,1.73-4.32,2.54-.74.36-1.51.65-2.26.97l-1.12.47c-.38.15-.77.24-1.15.37-.77.23-1.53.47-2.28.7-.76.2-1.54.32-2.3.48-1.52.37-3.05.44-4.55.59-6.02.42-11.65-.87-16.34-2.86-4.71-2.01-8.49-4.83-11.34-7.71-2.83-2.9-4.88-5.79-6.15-8.34-.72-1.23-1.18-2.42-1.6-3.44-.2-.51-.41-.97-.57-1.41-.13-.44-.25-.85-.36-1.21-.21-.71-.36-1.25-.48-1.64-.1-.37-.14-.56-.14-.56Z" fill="#263238"/>
      </g>
      <g>
        <g>
          <circle cx="582.16" cy="166.18" r="51.87" transform="translate(53 460.32) rotate(-45)" fill="#fff"/>
          <g>
            <g>
              <path d="m606.68,162.72c-.29-4.91.14-9.86-.4-14.75s-2.19-9.91-5.86-13.18c-3.67-3.28-9.71-4.2-13.51-1.08l-.53,4.23c2.91,18.81,5.83,37.62,8.74,56.43.38,2.47.79,5.01,2.08,7.16,1.29,2.14,3.69,3.82,6.16,3.49,3.24-.43,5.15-3.88,5.94-7.06,2.88-11.51-1.94-23.41-2.64-35.25Z" fill="#263238"/>
              <path d="m593.08,138.11c-.8-1.16-1.62-2.34-2.73-3.21-1.11-.86-2.59-1.38-3.95-1.02-.64.17-1.28.59-1.45,1.23-.17.64.35,1.44,1.01,1.34l.15.11c1.56,1.2,3.15,2.36,4.75,3.49.4.29.82.57,1.31.69s1.05,0,1.35-.39c.5-.65.04-1.57-.43-2.25Z" fill="#ff725e"/>
              <path d="m596.19,142.73c-5.31-5.63-12.12-8.61-19.86-8.19-4.36.24-6.1,1.27-9.18,2.34-3.08,1.07-5.79,2.95-7.47,5.74-2,3.31-3.62,6.98-3.77,10.84-.15,3.97-.3,7.97.27,11.9.58,3.93,1.93,7.84,4.49,10.88l10.18,1.04c5.57-.2,11.22-.42,16.54-2.07,5.32-1.65,10.38-4.93,12.94-9.88,3.56-6.88,1.17-16.97-4.15-22.6Z" fill="#263238"/>
              <g>
                <path d="m572.09,195.15c-.18-3.54-.38-7.97-.38-7.95,0,0-8.27-.32-11.28-10.68-1.5-5.15-2.32-13.8-2.76-20.89-.4-6.39,4.42-15.47,12.3-16.05l3.47-.65,13.79,4.38c1.94-.04,3.59,1.42,3.8,3.35l3.78,46.2-7.58,14.96-16.22-10.83,1.07-1.83Z" fill="#cc6760"/>
                <path d="m576.03,172.94c-.11-.55-.45-1.02-.87-1.33-.83-.62-1.99-.6-2.79.04-.8.64-1.2,1.86-.96,2.96h0c.52.62,1.27,1,2.07,1.01.13,0,.25,0,.38-.01.61-.06,1.21-.31,1.64-.79.43-.48.67-1.21.53-1.88Z" fill="#9d4941"/>
                <g>
                  <path d="m562.48,163.52c.06.72.73,1.26,1.48,1.2.75-.05,1.31-.68,1.24-1.4-.06-.72-.73-1.26-1.48-1.2-.75.05-1.31.68-1.24,1.4Z" fill="#263238"/>
                  <path d="m560.32,159c.19.16,1.12-.73,2.58-.91,1.45-.2,2.62.41,2.75.22.07-.09-.14-.39-.65-.67-.5-.28-1.33-.51-2.23-.39-.91.12-1.63.55-2.03.95-.4.4-.52.74-.42.81Z" fill="#263238"/>
                  <path d="m570.54,169.81c0-.08-.93-.13-2.42-.13-.38,0-.74-.02-.83-.27-.12-.26-.02-.68.11-1.13.24-.95.48-1.94.74-2.97,1.02-4.23,1.71-7.69,1.54-7.73-.17-.04-1.14,3.36-2.16,7.59-.24,1.04-.47,2.03-.69,2.98-.09.44-.27.95,0,1.49.14.27.43.43.68.47.25.04.46.02.64,0,1.49-.11,2.41-.22,2.4-.3Z" fill="#263238"/>
                  <path d="m571.71,187.19s7.17-.44,13.67-5.56c0,0-2.85,7.8-13.54,8.14l-.13-2.58Z" fill="#9d4941"/>
                  <path d="m574.96,170.28c-.24.02-.04,1.6-1.26,2.89-1.21,1.3-2.92,1.33-2.9,1.56,0,.1.41.26,1.13.19.7-.06,1.69-.42,2.44-1.21.74-.79.98-1.76.95-2.41-.02-.67-.25-1.04-.36-1.02Z" fill="#263238"/>
                  <path d="m560.46,153.84c.29.33,1.38-.05,2.69-.11,1.32-.1,2.44.15,2.69-.21.11-.17-.08-.5-.58-.8-.49-.3-1.3-.53-2.21-.48-.91.05-1.68.38-2.13.73-.46.36-.6.71-.47.86Z" fill="#263238"/>
                  <path d="m579.11,161.99c.09.72-.44,1.38-1.19,1.49-.74.11-1.42-.39-1.51-1.1-.09-.72.44-1.38,1.19-1.49.75-.11,1.42.39,1.51,1.1Z" fill="#263238"/>
                  <path d="m580.09,157.03c-.15.19-1.25-.48-2.71-.35-1.46.11-2.47.96-2.65.79-.09-.07.06-.41.5-.79.43-.38,1.19-.78,2.1-.86.91-.08,1.71.19,2.18.5.48.31.66.61.59.7Z" fill="#263238"/>
                  <path d="m578.88,152.4c-.26.36-1.42.11-2.78.22-1.36.06-2.49.44-2.78.12-.13-.16.02-.51.5-.87.47-.36,1.27-.69,2.21-.74.94-.06,1.77.17,2.27.47.51.3.7.63.59.8Z" fill="#263238"/>
                </g>
                <g>
                  <path d="m590.48,164.6c-.1-.79.58-2.76,1.34-2.98,2.03-.59,5.79-.89,6.49,4.38.96,7.2-6.47,6.67-6.51,6.47-.03-.16-.99-5.15-1.33-7.87Z" fill="#cc6760"/>
                  <path d="m593.44,169.57s.14.07.36.14c.22.07.58.09.94-.11.72-.38,1.2-1.67,1.07-2.97-.07-.66-.29-1.26-.59-1.75-.29-.5-.68-.82-1.07-.84-.39-.04-.63.23-.69.44-.07.21,0,.35-.04.37-.02.02-.17-.1-.15-.4.01-.15.07-.33.22-.49.15-.16.4-.27.67-.28.56-.03,1.13.41,1.46.94.36.53.62,1.21.7,1.95.15,1.46-.42,2.91-1.42,3.35-.49.2-.93.1-1.17-.04-.25-.15-.31-.3-.28-.32Z" fill="#9d4941"/>
                </g>
              </g>
              <path d="m592.11,161.62l-1.7,2.03c-8.47-7.03-25.31-24.94-24.37-23.87,0,0,5.28-2.62,11.24-2.03,5.97.59,17.36,2.75,17.68,9.72.32,6.97-2.86,14.15-2.86,14.15Z" fill="#263238"/>
              <path d="m602.5,159.28s-.04-.15-.14-.41c-.11-.26-.29-.64-.57-1.1-.57-.92-1.62-2.14-3.26-3.19-1.62-1.08-3.81-1.9-6.29-2.5-2.47-.62-5.24-1.04-8-1.99-2.77-.92-5.27-2.17-7.42-3.5-2.15-1.34-3.94-2.76-5.35-4.05-1.41-1.29-2.45-2.45-3.16-3.25-.32-.39-.59-.7-.8-.95-.18-.21-.29-.32-.3-.32-.01,0,.07.13.24.36.17.23.41.57.74.99.67.84,1.69,2.03,3.09,3.35,1.4,1.33,3.19,2.78,5.35,4.15,2.16,1.35,4.69,2.63,7.49,3.56,2.79.97,5.58,1.38,8.04,1.98,2.46.57,4.62,1.35,6.23,2.38,1.63,1,2.68,2.17,3.28,3.04.6.89.8,1.45.83,1.44Z" fill="#455a64"/>
              <path d="m600.48,160.57s.03-.6-.39-1.56c-.41-.96-1.36-2.23-2.96-3.21-1.59-1.02-3.79-1.56-6.2-1.94-2.42-.36-5.04-.85-7.66-1.85-2.62-.99-4.99-2.26-6.97-3.65-1.99-1.39-3.63-2.86-4.9-4.18-1.29-1.32-2.17-2.52-2.8-3.33-.28-.39-.5-.71-.68-.97-.16-.22-.25-.33-.26-.33s.06.13.2.37c.17.27.37.6.63,1.01.6.84,1.46,2.08,2.73,3.43,1.26,1.36,2.89,2.86,4.89,4.28,1.99,1.43,4.39,2.71,7.04,3.72,2.65,1.01,5.33,1.5,7.74,1.84,2.4.35,4.56.86,6.12,1.82,1.57.93,2.53,2.13,2.96,3.05.45.92.47,1.51.52,1.5Z" fill="#455a64"/>
              <path d="m592.74,173.88s.6-.17,1.65-.53c1.04-.37,2.5-1.13,3.89-2.55,1.4-1.4,2.59-3.51,3.35-6.02.76-2.51,1.12-5.42.98-8.45-.08-1.51-.3-2.98-.66-4.36-.38-1.38-.89-2.66-1.48-3.83-1.2-2.34-2.72-4.2-4.16-5.57-2.9-2.75-5.22-3.78-5.15-3.89,0-.01.15.05.42.18.26.14.66.32,1.14.61.97.56,2.34,1.48,3.83,2.85,1.49,1.36,3.06,3.23,4.32,5.61.61,1.19,1.14,2.51,1.54,3.91.38,1.41.61,2.91.68,4.46.14,3.08-.23,6.05-1.03,8.6-.8,2.56-2.06,4.71-3.53,6.12-1.46,1.43-2.99,2.16-4.07,2.49-.53.19-.98.22-1.27.29-.29.05-.45.07-.45.06Z" fill="#455a64"/>
            </g>
            <path d="m615.31,194.81c-3.47-1.98-9.14-2.04-9.14-2.04l-11.07-.76s-5.44,8.8-13.71,8.76c-8.26-.04-9.55-5.49-9.55-5.49,0,0-13.8,3.26-21.17,12.25,9.38,6.73,20.14,11.07,33.75,10.48,12.16-.17,27.52-6.42,36.84-17.73,0,0-2.16-3.3-5.96-5.47Z" fill="#efc037"/>
          </g>
        </g>
        <path d="m633.9,162.52s-.05-.28-.13-.83c-.07-.57-.18-1.38-.32-2.45-.07-.54-.15-1.14-.23-1.8-.12-.66-.31-1.37-.48-2.14-.18-.77-.37-1.6-.57-2.49-.09-.45-.23-.9-.39-1.35-.16-.46-.32-.93-.48-1.42-1.19-3.94-3.39-8.53-6.69-13.33-3.32-4.78-7.98-9.69-14.14-13.71-.77-.5-1.55-1-2.35-1.5-.82-.46-1.68-.87-2.53-1.32-.87-.41-1.69-.93-2.62-1.28-.91-.36-1.83-.73-2.77-1.1-.47-.18-.93-.38-1.41-.55-.49-.14-.98-.28-1.47-.42-.98-.28-1.97-.57-2.97-.85-1.01-.26-2.05-.39-3.09-.6-1.05-.16-2.09-.45-3.17-.49-2.15-.15-4.34-.44-6.57-.29-1.11.04-2.24.01-3.37.11-1.12.14-2.26.28-3.4.42-.57.08-1.15.12-1.71.23-.56.13-1.13.26-1.7.39-1.13.27-2.29.49-3.43.81-2.23.78-4.55,1.41-6.73,2.5-.55.25-1.11.5-1.66.75-.28.13-.56.24-.83.38l-.8.46c-1.06.61-2.14,1.22-3.21,1.84-1.05.67-2.04,1.43-3.07,2.14-.5.37-1.05.7-1.52,1.12l-1.44,1.24c-1.99,1.58-3.7,3.51-5.49,5.38-.8,1.02-1.61,2.04-2.41,3.07l-.61.77-.54.82-1.07,1.66-1.07,1.67-.92,1.77-.91,1.78-.46.89c-.13.31-.25.62-.38.93-.5,1.25-.99,2.5-1.49,3.75-.37,1.3-.75,2.6-1.13,3.91-1.31,5.29-1.83,10.84-1.51,16.43.47,5.58,1.76,11.01,3.8,16.06.56,1.24,1.11,2.48,1.67,3.72.67,1.17,1.34,2.34,2.01,3.51l.5.87.58.82,1.16,1.63,1.16,1.62,1.3,1.5,1.29,1.49.65.74.71.68c.95.9,1.89,1.8,2.82,2.7,2.04,1.6,4,3.26,6.19,4.55l1.6,1.03c.53.35,1.11.59,1.66.89,1.12.56,2.21,1.18,3.34,1.69,1.15.46,2.3.92,3.44,1.37l.85.34c.29.1.59.17.88.26.59.17,1.17.34,1.75.51,2.31.78,4.69,1.07,7.01,1.53,1.17.16,2.35.21,3.51.32.58.05,1.16.1,1.74.14.58.03,1.15,0,1.73-.01,1.15-.02,2.29-.04,3.42-.07,1.13-.06,2.24-.25,3.35-.37,2.23-.17,4.35-.76,6.46-1.22,1.07-.19,2.05-.62,3.07-.93,1-.35,2.02-.63,2.98-1.03.95-.42,1.89-.85,2.83-1.26.47-.21.93-.42,1.39-.62.44-.25.88-.5,1.31-.74.87-.5,1.73-.99,2.58-1.47.86-.47,1.61-1.1,2.41-1.63.78-.56,1.57-1.09,2.32-1.66.71-.61,1.42-1.22,2.11-1.82,5.53-4.84,9.45-10.36,12.07-15.56,2.59-5.22,4.13-10.08,4.75-14.14.09-.51.19-1,.28-1.47.1-.48.18-.94.2-1.4.08-.91.15-1.76.22-2.55.06-.79.15-1.52.17-2.18,0-.67-.02-1.27-.02-1.82-.01-1.07-.02-1.9-.02-2.47,0-.56,0-.84,0-.84,0,0,.02.28.04.84.02.57.04,1.39.08,2.47.01.54.03,1.15.05,1.82-.01.67-.09,1.4-.15,2.19-.06.79-.13,1.65-.2,2.56-.02.46-.09.93-.19,1.4-.09.48-.17.97-.27,1.48-.6,4.08-2.11,8.98-4.69,14.24-2.61,5.24-6.53,10.81-12.09,15.71-.7.61-1.41,1.22-2.12,1.84-.75.58-1.55,1.11-2.33,1.68-.8.54-1.56,1.18-2.42,1.65-.86.49-1.72.99-2.6,1.49-.44.25-.88.5-1.32.75-.46.21-.93.42-1.4.63-.94.42-1.89.85-2.84,1.28-.97.4-1.99.69-3,1.04-1.02.31-2.02.75-3.09.94-2.13.46-4.26,1.06-6.51,1.24-1.12.12-2.24.31-3.38.38-1.14.02-2.29.05-3.45.07-.58,0-1.16.05-1.74.01-.58-.05-1.17-.09-1.75-.14-1.17-.11-2.36-.16-3.54-.31-2.34-.46-4.75-.75-7.08-1.53-.59-.17-1.18-.34-1.77-.51-.29-.09-.59-.16-.89-.26l-.86-.34c-1.15-.46-2.31-.92-3.48-1.38-1.14-.52-2.24-1.13-3.38-1.7-.56-.3-1.15-.55-1.68-.9l-1.61-1.04c-2.22-1.3-4.2-2.98-6.26-4.59-.95-.9-1.9-1.81-2.85-2.72l-.72-.68-.65-.75-1.3-1.51-1.31-1.52-1.17-1.64-1.17-1.65-.59-.83-.51-.88c-.67-1.18-1.35-2.36-2.03-3.54-.56-1.25-1.12-2.5-1.69-3.75-2.07-5.1-3.37-10.58-3.84-16.22-.32-5.65.2-11.26,1.53-16.6.38-1.32.76-2.64,1.14-3.95.5-1.27,1.01-2.53,1.51-3.79.13-.31.24-.63.38-.94l.46-.9.92-1.8.93-1.78,1.08-1.68,1.08-1.68.54-.83.61-.78c.82-1.04,1.63-2.07,2.44-3.1,1.81-1.88,3.54-3.83,5.55-5.42l1.45-1.25c.48-.42,1.03-.75,1.54-1.13,1.04-.72,2.05-1.49,3.1-2.16,1.09-.62,2.17-1.24,3.25-1.85l.81-.46c.28-.14.56-.26.84-.38.56-.25,1.12-.5,1.68-.75,2.2-1.1,4.54-1.73,6.79-2.51,1.15-.32,2.31-.54,3.46-.81.57-.13,1.15-.26,1.71-.39.57-.12,1.15-.15,1.73-.23,1.15-.14,2.29-.28,3.43-.41,1.14-.1,2.27-.06,3.4-.1,2.25-.14,4.45.15,6.62.31,1.09.04,2.14.33,3.19.5,1.05.21,2.1.35,3.12.61,1.01.29,2.01.58,3,.87.49.14.99.29,1.48.43.48.18.95.37,1.42.56.94.37,1.87.74,2.78,1.11.93.35,1.76.87,2.63,1.29.86.45,1.72.87,2.54,1.33.8.51,1.58,1.02,2.36,1.52,6.19,4.06,10.86,9.02,14.18,13.85,3.3,4.85,5.48,9.48,6.65,13.44.16.49.32.97.47,1.43.16.46.3.91.38,1.36.2.89.38,1.73.55,2.51.16.78.35,1.49.45,2.15.08.66.15,1.27.21,1.81.12,1.07.21,1.89.27,2.46.06.55.08.84.08.84Z" fill="#263238"/>
      </g>
      <g>
        <circle cx="494.24" cy="72.83" r="33.39" transform="translate(404.12 564.21) rotate(-87.99)" fill="#fff"/>
        <g>
          <path d="m487.25,89.95c0-2.08,0-3.82-.01-4.03,0,0-7.04-.67-7.54-7.63-.24-3.37-.18-10.34-.05-16.65.14-6.77,5.46-12.3,12.23-12.71l.67-.04c7.28-.01,11.35,6.16,11.16,13.43l-.26,27.3-11.77,9.45-.85-.08-3.58-9.06Z" fill="#ffbe9d"/>
          <path d="m487.23,85.92s4.41,0,8.91-3.23c0,0-1.91,5.22-8.9,5.01v-1.79Z" fill="#eb996e"/>
          <path d="m491.5,64.65c.14.14.95-.49,2.11-.51,1.16-.03,2.03.57,2.15.42.06-.07-.08-.33-.46-.6-.37-.27-1-.53-1.73-.51-.73.02-1.33.3-1.68.59-.35.29-.47.55-.4.62Z" fill="#263238"/>
          <path d="m492.36,67.84c.01.5.44.9.96.9.52,0,.93-.41.92-.91-.01-.5-.44-.9-.96-.9-.52,0-.93.41-.92.91Z" fill="#263238"/>
          <path d="m488.47,72.72c0-.06-.67-.14-1.76-.21-.28-.01-.54-.05-.59-.23-.08-.19.02-.5.13-.82.22-.68.44-1.39.68-2.13.95-3.03,1.61-5.52,1.49-5.56-.12-.04-.99,2.39-1.93,5.42-.23.75-.44,1.46-.65,2.14-.08.32-.24.68-.08,1.08.09.2.3.34.47.37.18.04.33.04.47.04,1.09,0,1.76-.04,1.76-.1Z" fill="#263238"/>
          <path d="m492.08,60.91c.11.26,1.04.08,2.16.15,1.12.05,2.03.33,2.16.08.06-.12-.11-.36-.49-.59-.37-.24-.96-.44-1.63-.48-.67-.04-1.27.11-1.67.3-.4.19-.59.41-.54.54Z" fill="#263238"/>
          <path d="m481.15,61.58c.12.21,1.03,0,2.13-.03,1.1-.04,2.02.13,2.13-.09.05-.1-.13-.3-.51-.47-.38-.17-.97-.31-1.63-.29-.66.02-1.25.19-1.63.38-.38.19-.56.39-.51.5Z" fill="#263238"/>
          <path d="m503.44,67.53c.12-.06,4.7-1.7,4.84,3.07.13,4.77-4.69,3.92-4.7,3.79-.01-.14-.14-6.86-.14-6.86Z" fill="#ffbe9d"/>
          <path d="m504.99,72.54s.08.06.23.12c.14.06.38.1.62,0,.5-.2.9-1.01.9-1.87,0-.43-.1-.85-.27-1.18-.16-.35-.39-.58-.64-.62-.25-.05-.43.11-.48.24-.06.14-.03.23-.05.24-.01.01-.1-.08-.07-.28.02-.1.07-.21.18-.3.11-.1.28-.15.46-.13.37.02.71.34.89.72.2.37.33.83.33,1.32,0,.96-.47,1.88-1.16,2.1-.33.1-.62,0-.76-.11-.15-.11-.18-.22-.16-.23Z" fill="#eb996e"/>
          <path d="m489.95,76.78c-.05-.12.89-.39,1.56-1.26.33-.43.53-.9.68-1.24.14-.34.25-.56.3-.54.05.02.03.25-.05.63-.08.37-.25.9-.63,1.39-.37.49-.87.78-1.23.92-.37.14-.61.15-.62.11Z" fill="#263238"/>
          <path d="m509.89,59.89c-.97-1.7-1.18-3.71-1.7-5.59-.52-1.88-1.54-3.84-3.37-4.52l-.04.02c-1.64-.69-3.68-.72-5.05.41-.3-2.48-2.45-4.48-4.86-5.14-2.41-.67-6.3-.34-8.63.57-1.8.7-3.56,2.16-5.69,4.3-.9.9-1.73,1.88-2.47,2.92l-2.19,6.47,1.76,3.43c.1.23.21.47.35.7v-.02s1.53,7.2,1.53,7.2c.13-1.96.07-8.77.2-10.73,3.02-.09,5.77-1.28,7.83-3.49,1.09-1.17,1.95-2.64,3.39-3.33,1.86-.89,4.05-.2,5.98.5l-.08-.08c1.01.48,1.92,1.16,2.67,1.98-.49,3.85-.14,7.8,1.03,11.51.18.56.66,1.71,1.2,1.93,1.07.43,1.37-.66,2.02-1.23.48-.42,1.19-.47,1.95-.45.47-1.18.96-3.18,1.37-4.93.64.2,1.33.27,2,.16-.2-.49-.4-.99-.6-1.48.26.17.54.35.85.4.31.05.67-.06.82-.34.19-.36-.06-.79-.26-1.14Z" fill="#263238"/>
          <path d="m497.52,50.97s.29.19.69.65c.4.46.84,1.25,1.04,2.32.1.53.16,1.13.15,1.77,0,.64-.07,1.33-.12,2.05-.06.72-.12,1.49-.08,2.28.02.4.06.8.14,1.21.08.4.18.83.48,1.17.23.28.63.41.98.34.35-.06.66-.24.89-.49.45-.52.57-1.18.69-1.76l-.15.02c.23.53.47,1.05.83,1.47.35.42.84.7,1.34.75.25.03.5-.01.72-.12.22-.1.38-.28.49-.47.11-.19.16-.41.16-.61,0-.21-.09-.4-.22-.54l-.07.06c.53.62,1.09.95,1.48,1.14.2.09.35.15.46.19.11.03.16.05.17.04,0,0-.05-.03-.16-.07-.1-.04-.26-.11-.45-.21-.38-.2-.92-.54-1.43-1.16l-.07.06c.23.25.24.69.03,1.03-.1.17-.25.33-.45.42-.19.09-.42.12-.65.1-.46-.05-.92-.32-1.25-.72-.34-.4-.57-.91-.8-1.44l-.1-.22-.05.24c-.12.58-.25,1.22-.66,1.68-.21.22-.49.39-.8.44-.31.05-.63-.05-.83-.29-.26-.3-.36-.71-.44-1.1-.08-.39-.12-.79-.14-1.18-.04-.78.02-1.54.07-2.26.05-.72.11-1.41.11-2.06,0-.65-.07-1.25-.18-1.79-.22-1.09-.68-1.89-1.1-2.34-.42-.45-.74-.61-.74-.61Z" fill="#455a64"/>
          <path d="m475.91,57.46s.02.02.06.05c.05.03.1.08.17.13.08.06.17.13.29.19.12.07.26.16.42.23.64.32,1.67.63,2.97.57,1.28-.06,2.83-.49,4.22-1.5,1.4-.98,2.64-2.44,3.66-4.11.52-.84.94-1.69,1.41-2.49.46-.79.97-1.52,1.58-2.1.6-.58,1.3-1,2.02-1.19.36-.1.72-.12,1.06-.11.34.02.67.1.97.2.6.21,1.08.55,1.44.89.36.35.61.72.77,1.03.31.64.32,1.05.35,1.05,0,0,0-.03,0-.07,0-.06-.02-.13-.03-.21-.03-.19-.11-.46-.25-.79-.16-.32-.4-.7-.77-1.07-.37-.36-.85-.71-1.46-.94-.31-.11-.64-.19-1-.22-.35-.02-.73,0-1.1.1-.74.19-1.47.62-2.09,1.21-.63.59-1.15,1.33-1.62,2.13-.47.8-.89,1.65-1.41,2.48-1.01,1.66-2.23,3.1-3.61,4.07-1.36,1-2.87,1.43-4.14,1.5-1.28.07-2.3-.22-2.94-.52-.65-.3-.95-.56-.97-.54Z" fill="#455a64"/>
          <path d="m480.87,64.96c.14.14.95-.49,2.11-.51,1.16-.03,2.03.57,2.15.42.06-.07-.08-.33-.46-.6-.37-.27-1-.53-1.73-.51-.73.02-1.33.3-1.68.59-.35.29-.47.55-.4.62Z" fill="#263238"/>
          <path d="m482.65,67.98c.01.5.44.9.96.9.52,0,.93-.41.92-.91-.01-.5-.44-.9-.96-.9-.52,0-.93.41-.92.91Z" fill="#263238"/>
          <path d="m478.65,52.05c-.59.78-1.5,1.49-2.48,1.39-.29-.03-1.04-.3-1.04-.3-.34.21-.26,1.37-.03,1.69.23.32.73.76.73.76-1.14.61-2.19.31-3.41-.14.21,2.08,1.63,3.99,3.55,4.8.61.26,1.36.4,1.92.04.49-.32.7-.93.84-1.5.55-2.09.84-4.24.86-6.4l-.96-.34Z" fill="#263238"/>
        </g>
        <path d="m517.14,92.55c-2.21-1.7-6.13-2.27-6.13-2.27l-7.59-1.57s-4.6,5.57-10.31,4.77c-5.71-.8-6.09-4.7-6.09-4.7,0,0-10.79,1.79-16.74,7.31,5.85,5.54,12.32,9.19,21.79,10.06,8.42,1.03,19.79-3.17,27.31-11.35,0,0,.18-.39-2.25-2.25Z" fill="#5ca3de"/>
        <path d="m527.56,75s-.02-.18-.02-.54c0-.38,0-.91,0-1.59,0-.35,0-.74,0-1.17-.02-.43-.08-.9-.12-1.4-.09-1.01-.17-2.19-.47-3.48-.42-2.61-1.43-5.73-3.12-9.07-1.71-3.33-4.25-6.86-7.82-9.95-3.56-3.06-8.14-5.76-13.54-7.09-1.36-.28-2.72-.65-4.15-.76-.71-.07-1.43-.19-2.15-.22-.73,0-1.46-.02-2.2-.03-.37,0-.74-.02-1.11,0l-1.11.1c-.74.07-1.5.11-2.25.22-1.49.3-3.02.5-4.49,1.01-1.51.38-2.96,1.02-4.44,1.62-.72.33-1.42.73-2.14,1.1-.73.35-1.41.79-2.08,1.25-1.4.84-2.65,1.91-3.96,2.94-1.19,1.16-2.44,2.29-3.49,3.62-2.15,2.6-4.06,5.53-5.32,8.8-1.29,3.25-2.1,6.73-2.38,10.32-.19,3.59.16,7.15,1.02,10.54.82,3.41,2.34,6.56,4.13,9.42.87,1.46,1.96,2.74,2.99,4.04,1.16,1.19,2.26,2.42,3.54,3.43.61.54,1.23,1.07,1.91,1.51.66.46,1.31.94,1.98,1.36,1.39.78,2.74,1.61,4.19,2.18,1.4.69,2.89,1.09,4.33,1.58.73.2,1.47.34,2.2.51l1.09.24c.36.07.74.09,1.1.14.73.09,1.46.17,2.18.26.72.06,1.45.04,2.16.06,1.43.09,2.84-.11,4.22-.21,5.52-.61,10.41-2.7,14.34-5.27,3.94-2.6,6.92-5.77,9.05-8.85,2.11-3.1,3.51-6.06,4.27-8.59.47-1.24.69-2.4.92-3.39.11-.5.23-.95.3-1.38.05-.42.1-.81.15-1.16.09-.68.16-1.2.21-1.57.05-.35.09-.54.09-.54,0,0,0,.18-.04.54-.04.38-.09.9-.16,1.58-.04.35-.08.74-.12,1.17-.07.43-.18.89-.28,1.39-.21,1-.42,2.17-.88,3.42-.73,2.56-2.12,5.55-4.22,8.69-2.12,3.12-5.11,6.34-9.08,8.99-3.96,2.62-8.9,4.75-14.49,5.39-1.4.11-2.82.31-4.27.23-.72-.02-1.46,0-2.19-.05-.73-.08-1.47-.17-2.21-.25-.37-.05-.75-.07-1.12-.14l-1.11-.24c-.74-.17-1.49-.31-2.23-.51-1.46-.5-2.97-.89-4.39-1.6-1.48-.58-2.84-1.41-4.26-2.2-.68-.43-1.34-.92-2.01-1.38-.69-.44-1.31-.98-1.94-1.52-1.3-1.02-2.42-2.27-3.6-3.48-1.05-1.32-2.16-2.62-3.04-4.1-1.82-2.9-3.37-6.1-4.2-9.56-.88-3.44-1.23-7.06-1.04-10.71.28-3.64,1.11-7.18,2.42-10.48,1.28-3.32,3.23-6.29,5.41-8.93,1.07-1.35,2.33-2.5,3.55-3.67,1.32-1.05,2.6-2.14,4.02-2.98.69-.46,1.38-.91,2.12-1.26.73-.37,1.44-.77,2.17-1.11,1.5-.6,2.97-1.25,4.5-1.63,1.5-.51,3.05-.71,4.56-1.01.76-.11,1.53-.14,2.28-.22l1.13-.1c.38-.02.75,0,1.13,0,.75.01,1.49.02,2.23.04.73.04,1.46.16,2.18.23,1.45.11,2.83.49,4.21.78,5.46,1.36,10.08,4.11,13.67,7.23,3.6,3.14,6.15,6.72,7.84,10.09,1.68,3.39,2.67,6.53,3.06,9.17.29,1.3.35,2.48.43,3.51.03.51.09.98.1,1.41-.01.43-.02.82-.03,1.17-.02.68-.04,1.21-.05,1.59-.01.36-.03.54-.03.54Z" fill="#263238"/>
      </g>
      <g>
        <circle cx="100.53" cy="108.15" r="72.17" fill="#b00043"/>
        <circle cx="100.53" cy="108.15" r="72.17" opacity=".3"/>
        <circle cx="98.59" cy="103.53" r="72.17" fill="#b00043"/>
        <circle cx="98.59" cy="103.53" r="56.14" fill="#fff"/>
        <circle cx="98.59" cy="103.53" r="39.5" transform="translate(-44.33 100.03) rotate(-45)" fill="#b00043"/>
        <circle cx="98.59" cy="103.53" r="20.84" transform="translate(-44.33 100.03) rotate(-45)" fill="#fff"/>
        <polygon points="154.42 45.08 152.46 29.68 168.13 12.91 169.26 29.53 154.42 45.08" fill="#455a64"/>
        <polygon points="188.06 32.83 172.16 31.53 156.22 46.87 172.16 48.57 188.06 32.83" fill="#455a64"/>
        <path d="m98.58,104.74l59.25-42.43c-1.87-2.8-4.87-6.48-7.52-9.3l-50.75,49.07-.97,2.66Z" opacity=".3"/>
        <path d="m171.61,26.32c-2.48,2.51-4.96,5.02-7.44,7.53-5.95,6.03-11.9,12.06-17.85,18.09-7.17,7.26-14.34,14.53-21.51,21.79-6.23,6.31-12.46,12.62-18.68,18.93-3.02,3.06-6.19,6.04-9.1,9.22-.04.05-.09.09-.13.13-1.76,1.78.99,4.53,2.75,2.74,2.48-2.51,4.96-5.02,7.44-7.53,5.95-6.03,11.9-12.06,17.85-18.09,7.17-7.26,14.34-14.53,21.51-21.79,6.23-6.31,12.46-12.62,18.68-18.93,3.02-3.06,6.19-6.04,9.1-9.22.04-.05.09-.09.13-.13,1.76-1.78-.99-4.53-2.74-2.74h0Z" fill="#263238"/>
      </g>
    </g>
  </g>
</svg>