<?xml version="1.0" encoding="UTF-8"?>
<svg id="Layer_2" data-name="Layer 2" xmlns="http://www.w3.org/2000/svg" viewBox="0 0 693.13 440.81">
  <g id="Plant">
    <g>
      <g>
        <g>
          <path d="m53.76,355.03c.05-9.3,6.13-15.24,6.13-15.24,1.86,7.65-6.13,15.24-6.13,15.24Z" fill="#ebebeb"/>
          <path d="m62.67,350.72c8.55-3.66,16.42-.45,16.42-.45-6.27,4.75-16.42.45-16.42.45Z" fill="#ebebeb"/>
          <path d="m63.69,345.77c-1.49-7.19,2.23-12.76,2.23-12.76,2.69,5.6-2.23,12.76-2.23,12.76Z" fill="#ebebeb"/>
          <path d="m29.24,327.89c13.02,3.47,20,14.79,20,14.79-11.13,0-20-14.79-20-14.79Z" fill="#ebebeb"/>
          <path d="m50.04,333.22c-.68-14.03,13.04-29.92,13.04-29.92-2.07,17.43-13.04,29.92-13.04,29.92" fill="#ebebeb"/>
          <path d="m49.97,293.25c.58,11.38-4.93,20.1-4.93,20.1-1.94-9.03,4.93-20.1,4.93-20.1Z" fill="#ebebeb"/>
          <path d="m44.68,321.77c-10.26-1.1-15.84-11.31-15.84-11.31,12.41,3.48,15.84,11.31,15.84,11.31Z" fill="#ebebeb"/>
          <path d="m22.55,364.67c7.84-5,16.13-3.11,16.13-3.11-5.42,5.7-16.13,3.11-16.13,3.11Z" fill="#ebebeb"/>
          <path d="m49.14,369.28c-1.95,5.36-6.89,7.77-6.89,7.77.44-4.73,6.89-7.77,6.89-7.77Z" fill="#ebebeb"/>
          <path d="m47.82,367.77c-5.84,3.59-12.27,2.19-12.27,2.19,3.95-4.12,12.27-2.19,12.27-2.19Z" fill="#ebebeb"/>
          <path d="m53.07,386.66s-.01-.07-.02-.21c0-.17,0-.37-.01-.61,0-.58,0-1.36,0-2.35,0-1.02,0-2.27-.02-3.72-.02-1.45-.03-3.1-.1-4.92-.09-3.65-.35-7.99-.72-12.8-.42-4.81-1-10.08-1.8-15.59-1.62-11.02-3.84-20.87-5.62-27.95-.9-3.54-1.65-6.39-2.21-8.36-.26-.96-.46-1.71-.61-2.27-.06-.24-.11-.43-.15-.59-.03-.13-.04-.2-.04-.21,0,0,.03.06.08.19.05.16.12.35.19.58.17.55.4,1.3.7,2.25.61,1.95,1.41,4.8,2.35,8.33,1.86,7.06,4.13,16.92,5.76,27.96.81,5.52,1.38,10.8,1.77,15.62.35,4.82.58,9.17.62,12.82.06,1.83.04,3.48.04,4.93,0,1.45-.02,2.7-.06,3.72-.03.99-.06,1.78-.08,2.35-.01.25-.02.45-.03.61,0,.14-.02.21-.03.21Z" fill="#e0e0e0"/>
          <path d="m34.23,356.95c.07-.1,4.22,2.61,9.26,6.07,5.04,3.46,9.07,6.35,9,6.45s-4.22-2.61-9.26-6.07c-5.04-3.46-9.07-6.34-9-6.45Z" fill="#e0e0e0"/>
          <path d="m52.5,358.45s.21-.27.64-.7c.51-.49,1.13-1.08,1.85-1.78,1.66-1.56,3.8-3.57,6.17-5.78,2.37-2.22,4.51-4.22,6.17-5.78.73-.69,1.35-1.27,1.87-1.75.45-.41.7-.63.73-.6.02.02-.19.28-.6.73-.4.45-1.01,1.08-1.77,1.86-1.52,1.55-3.67,3.63-6.08,5.89-2.41,2.26-4.63,4.26-6.26,5.69-.81.71-1.48,1.28-1.95,1.67-.47.39-.74.59-.76.56Z" fill="#e0e0e0"/>
          <path d="m21.06,350.3s10.6-.2,15.09,8.14c0,0-9.05.3-15.09-8.14Z" fill="#ebebeb"/>
          <path d="m35.54,346.05s8.63,6.16,7.26,15.53c0,0-7.44-5.15-7.26-15.53Z" fill="#ebebeb"/>
          <path d="m81.02,330.87s-3.41,11.87-14.23,14c0,0,2.77-10.17,14.23-14Z" fill="#ebebeb"/>
          <path d="m30.83,286.74s13.53,8.82,12.03,23.18c0,0-11.65-7.37-12.03-23.18Z" fill="#ebebeb"/>
        </g>
        <path d="m75.86,365.24s-.3.28-.88.7c-.58.42-1.42,1.05-2.43,1.86-2.02,1.6-4.7,3.96-7.33,6.88-2.62,2.93-4.69,5.84-6.06,8.02-.69,1.09-1.23,1.98-1.58,2.61-.36.62-.58.96-.61.95-.03-.01.13-.38.45-1.03.31-.66.81-1.58,1.46-2.7,1.31-2.24,3.35-5.21,5.99-8.16,2.65-2.95,5.39-5.29,7.47-6.83,1.04-.77,1.91-1.37,2.52-1.75.61-.38.96-.58.98-.56Z" fill="#e0e0e0"/>
        <path d="m64.09,374.05c-1.73-9.14,3.11-16.13,3.11-16.13,1.45,10.06-3.11,16.13-3.11,16.13Z" fill="#ebebeb"/>
        <path d="m73.19,369.09c5.83-3.42,11.81-1.83,11.81-1.83-6.53,3.46-11.81,1.83-11.81,1.83Z" fill="#ebebeb"/>
      </g>
      <g>
        <polygon points="33.34 387.76 38.42 421.12 67.9 421.12 74.75 388.25 33.34 387.76" fill="#ebebeb"/>
        <g>
          <path d="m70.63,409.14c0,.1-7.56.17-16.88.17s-16.88-.08-16.88-.17,7.55-.17,16.88-.17,16.88.08,16.88.17Z" fill="#fafafa"/>
          <path d="m70.74,407.5c0,.1-7.61.17-16.99.17s-16.99-.08-16.99-.17,7.61-.17,16.99-.17,16.99.08,16.99.17Z" fill="#fafafa"/>
          <path d="m70.68,405.65c0,.1-7.61.17-16.99.17s-16.99-.08-16.99-.17,7.61-.17,16.99-.17,16.99.08,16.99.17Z" fill="#fafafa"/>
          <path d="m41.8,419.22c-.09.02-.5-1.86-.9-4.2-.41-2.34-.66-4.24-.56-4.26.09-.02.5,1.86.9,4.2.41,2.34.66,4.24.56,4.26Z" fill="#fafafa"/>
          <path d="m43.81,418.86c-.1,0-.21-1.84-.37-4.1-.15-2.26-.29-4.1-.19-4.11.09-.01.38,1.81.54,4.09.16,2.27.11,4.12.02,4.12Z" fill="#fafafa"/>
          <path d="m47.47,418.86c-.09.02-.49-1.86-.77-4.2-.28-2.34-.32-4.26-.22-4.27.1,0,.29,1.89.57,4.23.27,2.33.52,4.23.42,4.24Z" fill="#fafafa"/>
          <path d="m50.03,419.04c-.09,0-.33-1.9-.41-4.27-.08-2.37.04-4.29.13-4.29.1,0,.14,1.92.22,4.28.08,2.36.16,4.27.06,4.28Z" fill="#fafafa"/>
          <path d="m54.58,418.86c-.1,0-.23-1.81-.31-4.05-.08-2.24-.06-4.06.04-4.06.1,0,.23,1.81.31,4.05.08,2.24.06,4.06-.04,4.06Z" fill="#fafafa"/>
          <path d="m57.89,419.04c-.1,0-.16-1.88-.14-4.19.02-2.31.11-4.19.21-4.19.1,0,.16,1.88.14,4.19-.02,2.31-.11,4.19-.21,4.19Z" fill="#fafafa"/>
          <path d="m61.01,418.59c-.1,0,.02-1.97.25-4.38.23-2.41.5-4.36.6-4.35.1,0-.02,1.97-.25,4.38-.23,2.41-.5,4.36-.6,4.35Z" fill="#fafafa"/>
          <path d="m65.02,418.16c-.09-.01.05-1.69.5-3.73.44-2.03,1.01-3.62,1.1-3.59.09.03-.32,1.65-.76,3.67-.44,2.02-.74,3.67-.83,3.65Z" fill="#fafafa"/>
        </g>
        <path d="m29.96,381.16v6.24c0,1.36,1.1,2.46,2.46,2.46h42.7c1.36,0,2.46-1.1,2.46-2.46v-6.24H29.96Z" fill="#ebebeb"/>
        <polygon points="33.66 389.86 34.01 391.85 73.41 394.65 74.41 389.86 33.66 389.86" fill="#e0e0e0"/>
      </g>
    </g>
    <g>
      <g>
        <polygon points="137.7 6.9 135.61 64.28 149.72 70.69 152.84 78.78 178.13 68.49 174.67 60.33 179.5 45.27 137.7 6.9" fill="#f5f5f5"/>
        <path d="m137.7,6.9c1.17,1.07,17.27,15.75,41.92,38.24l.08.08-.03.11c-1.53,4.79-3.15,9.83-4.82,15.06v-.13c1.09,2.58,2.27,5.35,3.46,8.16l.08.18-.18.07c-4.14,1.69-8.49,3.46-12.91,5.26-4.2,1.71-8.34,3.39-12.38,5.04l-.19.08-.07-.19c-1.06-2.74-2.1-5.44-3.12-8.09l.1.1c-4.88-2.22-9.59-4.37-14.1-6.42l-.11-.05v-.12c1.33-33.59,2.21-55.78,2.27-57.37-.05,1.59-.79,23.79-1.91,57.39l-.11-.17c4.52,2.05,9.23,4.19,14.11,6.41l.07.03.03.07c1.02,2.65,2.07,5.35,3.12,8.09l-.26-.11c4.04-1.65,8.18-3.33,12.38-5.04,4.42-1.8,8.77-3.57,12.91-5.25l-.1.25c-1.19-2.81-2.36-5.58-3.46-8.16l-.03-.06.02-.07c1.68-5.23,3.3-10.27,4.84-15.06l.05.18c-24.51-22.64-40.51-37.43-41.68-38.5Z" fill="#e0e0e0"/>
      </g>
      <path d="m162.65,42.43c1.79,4.22-.22,9.05-4.5,10.79-4.28,1.74-9.19-.27-10.98-4.49-1.79-4.22.22-9.05,4.5-10.79,4.28-1.74,9.19.27,10.98,4.49Z" fill="#e0e0e0"/>
      <path d="m137.7,6.9c.1-.04,4.03,8.58,8.78,19.26,4.75,10.68,8.52,19.38,8.42,19.42-.1.04-4.03-8.58-8.78-19.26-4.75-10.68-8.52-19.37-8.42-19.42Z" fill="#e0e0e0"/>
      <path d="m233.7,232.3h0c-6.79,2.76-14.6-.41-17.48-7.09l-59.49-138,24.68-10.05,59.43,137.86c2.9,6.74-.3,14.49-7.14,17.27Z" fill="#e0e0e0"/>
      <polygon points="183.78 76.2 154.76 88.01 150.53 78.05 179.55 66.24 183.78 76.2" fill="#e0e0e0"/>
    </g>
    <g>
      <g>
        <polygon points="165.02 288.22 149.94 342.88 168.43 356.06 209.99 366.18 226.47 304.47 165.02 288.22" fill="#f5f5f5"/>
        <path d="m157.97,340.43l-8.03,2.45s2.53,4.8,6.49,7.57c3.96,2.77,7.83,4.6,11.99,5.61,0,0-8.88-5.16-10.45-15.63Z" fill="#ebebeb"/>
      </g>
      <path d="m214.46,322.17c-.03.1-10.51-2.58-23.41-5.98-12.9-3.41-23.34-6.25-23.31-6.35.03-.1,10.51,2.58,23.41,5.98,12.9,3.41,23.34,6.25,23.31,6.35Z" fill="#e0e0e0"/>
      <path d="m212.03,330.54c-.03.1-10.51-2.58-23.41-5.98-12.9-3.41-23.34-6.25-23.31-6.35.03-.1,10.51,2.58,23.41,5.98,12.9,3.41,23.34,6.25,23.31,6.35Z" fill="#e0e0e0"/>
      <path d="m210.32,338.08c-.03.1-10.51-2.58-23.41-5.98-12.9-3.41-23.34-6.25-23.31-6.35.03-.1,10.51,2.58,23.41,5.98,12.9,3.41,23.34,6.25,23.31,6.35Z" fill="#e0e0e0"/>
      <path d="m208.37,345.26c-.03.1-10.51-2.58-23.41-5.98-12.9-3.41-23.34-6.25-23.31-6.35.03-.1,10.51,2.58,23.41,5.98,12.9,3.41,23.34,6.25,23.31,6.35Z" fill="#e0e0e0"/>
    </g>
    <g>
      <g>
        <polygon points="646.26 238.12 634.76 279.81 648.86 289.86 680.56 297.58 693.13 250.52 646.26 238.12" fill="#f5f5f5"/>
        <path d="m640.88,277.94l-6.12,1.87s1.93,3.66,4.95,5.77c3.02,2.11,5.98,3.51,9.15,4.28,0,0-6.78-3.94-7.97-11.92Z" fill="#ebebeb"/>
      </g>
      <path d="m683.97,264.02c-.02.08-8.01-1.97-17.85-4.56-9.84-2.6-17.8-4.77-17.78-4.84.02-.08,8.01,1.96,17.85,4.56,9.84,2.6,17.8,4.77,17.78,4.84Z" fill="#e0e0e0"/>
      <path d="m682.11,270.4c-.02.08-8.01-1.97-17.85-4.56-9.84-2.6-17.8-4.77-17.78-4.84.02-.08,8.01,1.96,17.85,4.56,9.84,2.6,17.8,4.77,17.78,4.84Z" fill="#e0e0e0"/>
      <path d="m680.81,276.15c-.02.08-8.01-1.97-17.85-4.56-9.84-2.6-17.8-4.77-17.78-4.84.02-.08,8.01,1.96,17.85,4.56,9.84,2.6,17.8,4.77,17.78,4.84Z" fill="#e0e0e0"/>
      <path d="m679.32,281.63c-.02.08-8.01-1.97-17.85-4.56-9.84-2.6-17.8-4.77-17.78-4.84.02-.08,8.01,1.96,17.85,4.56,9.84,2.6,17.8,4.77,17.78,4.84Z" fill="#e0e0e0"/>
    </g>
    <path d="m585.47,30.9l-15.2,3.89-.74,4.65c-.24,1.55-.24,2.78,0,3.69.31,1.21,1.02,1.97,2.14,2.29.66.19,2.13.09,4.42-.32l.3,1.17-14.31,3.66-.3-1.17c1.48-.63,2.59-1.59,3.32-2.89.73-1.3,1.4-3.78,2.02-7.43L573.72.15l.6-.15,24.55,31.33c2.34,2.96,4.09,4.76,5.26,5.38.89.47,2,.59,3.34.36l.3,1.17-20.82,5.33-.3-1.17.86-.22c1.67-.43,2.79-.96,3.34-1.6.38-.46.49-1,.32-1.64-.1-.38-.26-.76-.49-1.13-.09-.18-.61-.89-1.56-2.14l-3.66-4.78Zm-1.68-2.07l-10.2-13.18-2.81,16.51,13.01-3.33Z" fill="#e0e0e0"/>
    <g>
      <rect x="620.88" y="139.2" width="61.41" height="55.88" rx="8.92" ry="8.92" transform="translate(5.18 -19.02) rotate(1.68)" fill="#ebebeb"/>
      <path d="m620.48,180.39l20.73-13.91c1.61-1.29,3.92-1.2,5.43.21l10.21,5.24,14.57-14.25c1.84-1.64,4.67-1.4,6.2.53l4.76,5.98-.23,24.49c-.04,3.93-3.3,7.06-7.23,6.94l-47.9-1.51c-3.88-.12-6.93-3.38-6.78-7.26l.24-6.44Z" fill="#e0e0e0"/>
      <path d="m650.13,153.6c.15,3.39-2.46,6.26-5.85,6.41-3.39.15-6.26-2.46-6.41-5.85-.15-3.39,2.46-6.26,5.85-6.41,3.39-.16,6.26,2.46,6.41,5.85Z" fill="#e0e0e0"/>
    </g>
    <g>
      <rect x="26.71" y="8.19" width="42.68" height="38.84" rx="8.92" ry="8.92" transform="translate(.83 -1.4) rotate(1.68)" fill="#fafafa"/>
      <path d="m26.43,36.82l14.41-9.67c1.12-.9,2.73-.84,3.78.14l7.1,3.64,10.13-9.9c1.28-1.14,3.25-.97,4.31.37l3.31,4.15-.12,13.19c-.05,4.83-4.06,8.69-8.89,8.53l-25.71-.81c-4.77-.15-8.51-4.16-8.34-8.93l.03-.72Z" fill="#f5f5f5"/>
      <path d="m47.03,18.2c.11,2.35-1.71,4.35-4.07,4.46-2.35.11-4.35-1.71-4.46-4.07s1.71-4.35,4.07-4.46c2.35-.11,4.35,1.71,4.46,4.07Z" fill="#f5f5f5"/>
    </g>
    <g>
      <g>
        <path d="m405.04,367.25c5.4,13.7-1.36,29.19-15.09,34.6-13.73,5.41-29.24-1.31-34.63-15.01-5.4-13.7,1.36-29.19,15.09-34.6,13.73-5.41,29.24,1.31,34.63,15.01Z" fill="#f5f5f5"/>
        <path d="m399.13,369.58c4.11,10.44-1.04,22.24-11.5,26.36-10.46,4.12-22.28-1-26.39-11.44-4.11-10.44,1.04-22.24,11.5-26.37,10.46-4.12,22.28,1,26.39,11.44Z" fill="#ebebeb"/>
        <path d="m398.89,368.99c-.11.05-.52-.75-1.4-2.08-.88-1.32-2.28-3.18-4.47-4.95-1.1-.88-2.38-1.73-3.86-2.45-1.48-.71-3.15-1.31-4.96-1.66-.9-.18-1.84-.31-2.81-.35-.96-.05-1.95-.04-2.95.06-1,.1-2,.26-3.01.52-1,.26-2,.6-2.98,1.01-.97.43-1.9.92-2.78,1.47-.88.55-1.69,1.17-2.45,1.82-.76.65-1.44,1.37-2.07,2.1-.63.73-1.18,1.5-1.68,2.28-.99,1.56-1.7,3.18-2.2,4.74-.49,1.57-.76,3.09-.87,4.49-.23,2.81.17,5.1.52,6.65.37,1.55.67,2.4.55,2.44-.08.04-.58-.73-1.13-2.27-.55-1.54-1.13-3.9-1.04-6.88.05-1.48.27-3.11.73-4.8.48-1.68,1.19-3.44,2.22-5.13.51-.85,1.09-1.68,1.76-2.48.66-.8,1.39-1.58,2.2-2.29.81-.71,1.68-1.39,2.63-1.99.94-.6,1.95-1.13,3-1.59,1.06-.45,2.13-.81,3.21-1.08,1.08-.28,2.17-.44,3.25-.54,1.08-.1,2.14-.1,3.17-.03,1.04.06,2.04.22,3.01.43,1.94.41,3.7,1.1,5.25,1.91,1.55.82,2.88,1.78,3.99,2.77,2.23,1.98,3.54,4.03,4.28,5.48.74,1.47.96,2.35.87,2.39Z" fill="#e0e0e0"/>
      </g>
      <path d="m386.77,387.5l1.35,3.28-2.93,1.2-1.31-3.19c-2.97,1.01-6.13,1.25-8.26.65l.14-4.24c1.91.48,4.34.41,6.54-.25l-2.01-4.89c-3.58.55-7.65.95-9.37-3.24-1.27-3.11-.11-6.7,4.3-9.12l-1.34-3.25,2.93-1.2,1.31,3.19c2.27-.73,4.65-1.02,6.68-.66l.02,4.21c-1.84-.24-3.57-.11-5.11.32l2.05,4.98c3.56-.57,7.58-.96,9.28,3.17,1.25,3.05.11,6.6-4.26,9.04Zm-8.25-11.75l-1.71-4.16c-1.41.99-1.67,2.09-1.28,3.06.42,1.02,1.53,1.22,2.99,1.1Zm7.94,4.99c-.42-1.03-1.5-1.23-2.94-1.16l1.66,4.04c1.33-.92,1.66-1.95,1.28-2.89Z" fill="#e0e0e0"/>
    </g>
    <g>
      <g>
        <path d="m51.58,165.51c5.4,13.7-1.36,29.19-15.09,34.6-13.73,5.41-29.24-1.31-34.63-15.01-5.4-13.7,1.36-29.19,15.09-34.6,13.73-5.41,29.24,1.31,34.63,15.01Z" fill="#f5f5f5"/>
        <path d="m45.66,167.84c4.11,10.44-1.04,22.24-11.5,26.36-10.46,4.12-22.28-1-26.39-11.44-4.11-10.44,1.04-22.24,11.5-26.37,10.46-4.12,22.28,1,26.39,11.44Z" fill="#ebebeb"/>
        <path d="m45.43,167.25c-.11.05-.52-.75-1.4-2.08-.88-1.32-2.28-3.18-4.47-4.95-1.1-.88-2.38-1.73-3.86-2.45-1.48-.71-3.15-1.31-4.96-1.66-.91-.18-1.84-.31-2.81-.35-.96-.05-1.95-.04-2.95.06-1,.1-2,.26-3.01.52-1,.26-2,.6-2.98,1.01-.97.43-1.9.92-2.78,1.47-.88.55-1.69,1.17-2.45,1.82-.76.65-1.44,1.37-2.07,2.1-.63.73-1.18,1.5-1.68,2.28-.99,1.56-1.7,3.18-2.2,4.74-.49,1.57-.76,3.09-.87,4.49-.23,2.81.17,5.1.52,6.65.37,1.55.67,2.4.55,2.44-.08.04-.58-.73-1.13-2.27-.55-1.54-1.13-3.9-1.04-6.88.05-1.48.27-3.11.73-4.8.48-1.68,1.19-3.44,2.22-5.13.51-.85,1.09-1.68,1.76-2.48.66-.8,1.39-1.58,2.2-2.29.81-.71,1.68-1.39,2.63-1.99.94-.6,1.95-1.13,3-1.59,1.06-.45,2.13-.81,3.21-1.08,1.08-.28,2.17-.44,3.25-.54,1.08-.1,2.14-.1,3.17-.03,1.04.06,2.04.22,3.01.43,1.94.41,3.7,1.1,5.25,1.91,1.55.82,2.88,1.78,3.99,2.77,2.23,1.98,3.54,4.03,4.28,5.48.74,1.47.96,2.35.87,2.39Z" fill="#e0e0e0"/>
      </g>
      <path d="m33.31,185.76l1.35,3.28-2.93,1.2-1.31-3.19c-2.97,1.01-6.13,1.25-8.26.65l.14-4.24c1.91.48,4.34.41,6.54-.25l-2.01-4.89c-3.58.55-7.65.95-9.37-3.24-1.28-3.11-.11-6.7,4.3-9.12l-1.34-3.25,2.93-1.2,1.31,3.19c2.27-.73,4.65-1.02,6.68-.66l.02,4.21c-1.84-.24-3.57-.11-5.11.32l2.05,4.98c3.56-.57,7.58-.96,9.28,3.17,1.25,3.05.11,6.6-4.26,9.04Zm-8.25-11.75l-1.71-4.16c-1.41.99-1.67,2.09-1.28,3.06.42,1.02,1.53,1.22,2.99,1.1Zm7.94,4.99c-.42-1.03-1.5-1.23-2.94-1.16l1.66,4.04c1.33-.92,1.66-1.95,1.28-2.89Z" fill="#e0e0e0"/>
    </g>
    <path d="m103.16,74.03c.02.08.03.16.05.25l-.04.02c0-.09,0-.18-.01-.26Z" fill="#263238"/>
    <path d="m674.13,421.34s.73-.02,2.24-.03c1.51,0,3.79-.02,6.87-.03v.12c-33.68.02-167.54.1-327.45.2-92.96-.03-177.1-.06-238.02-.08-30.45-.03-55.09-.06-72.13-.08-8.51-.02-15.12-.04-19.61-.05-2.24-.01-3.94-.02-5.1-.03-1.15,0-1.74-.03-1.74-.03,0,0,.59-.02,1.74-.03,1.16,0,2.86-.01,5.1-.03,4.49-.01,11.1-.03,19.61-.05,17.04-.02,41.68-.05,72.13-.08,60.91-.02,145.06-.05,238.02-.08,159.92.1,293.77.18,327.45.2v.12c-3.08-.01-5.36-.02-6.87-.03-1.5,0-2.24-.03-2.24-.03Z" fill="#263238"/>
    <g>
      <g>
        <path d="m303.76,35.09h-50.72c-2.45,0-4.41-2.05-4.29-4.5l1.03-21.49c.11-2.29,2-4.09,4.29-4.09h50.72c2.45,0,4.41,2.05,4.29,4.5l-1.03,21.49c-.11,2.29-2,4.09-4.29,4.09Z" fill="#fafafa"/>
        <path d="m303.76,35.09s.63.05,1.67-.4c.51-.23,1.12-.62,1.62-1.27.52-.64.89-1.55.91-2.62.19-4.36.46-10.63.8-18.36-.02-1.9.62-4.12-.79-5.72-.63-.79-1.59-1.34-2.63-1.46-1.04-.08-2.2-.02-3.33-.03-4.56,0-9.44.02-14.56.02-10.26,0-21.53.01-33.37.02-1.4,0-2.75.76-3.46,1.95-.36.59-.55,1.26-.58,1.95-.03.73-.07,1.45-.1,2.17-.14,2.88-.28,5.72-.41,8.5-.14,2.79-.27,5.53-.4,8.21-.03.67-.07,1.34-.1,2-.05.68-.06,1.28.13,1.88.34,1.19,1.25,2.19,2.38,2.63.57.23,1.15.31,1.78.3.63,0,1.26,0,1.89,0,1.25,0,2.48,0,3.7,0,2.43,0,4.79,0,7.07.01,4.56.01,8.81.02,12.69.03,7.74.03,14.01.06,18.37.08,2.15.02,3.83.04,5,.05.55.01.98.02,1.3.03.29,0,.44.02.44.03s-.15.02-.44.03c-.32,0-.75.01-1.3.03-1.17.01-2.85.03-5,.05-4.36.02-10.63.05-18.37.08-3.88,0-8.13.02-12.69.03-2.28,0-4.64,0-7.07.01-1.21,0-2.45,0-3.7,0-.62,0-1.25,0-1.89,0-.64.01-1.34-.07-1.96-.33-1.27-.49-2.28-1.61-2.67-2.94-.21-.66-.2-1.4-.15-2.04.03-.66.06-1.33.09-2,.13-2.68.26-5.42.39-8.21.13-2.79.27-5.63.4-8.5.03-.72.07-1.44.1-2.17.03-.76.26-1.53.66-2.19.79-1.34,2.33-2.2,3.9-2.2,11.84,0,23.11.01,33.37.02,5.13,0,10,.02,14.56.02,1.15.02,2.24-.04,3.39.05,1.15.15,2.2.76,2.89,1.62.7.86,1.05,1.96,1,3.02-.05,1.01-.1,2.01-.15,2.98-.41,7.73-.73,13.99-.96,18.35-.03,1.1-.44,2.06-.99,2.71-.53.67-1.17,1.04-1.7,1.27-.54.22-.98.27-1.27.31-.29,0-.44,0-.44,0Z" fill="#263238"/>
      </g>
      <polygon points="461.56 35.27 463.73 21.69 472.98 16.31 480.58 24.46 478.29 38.38 461.56 35.27" fill="#5ca3de"/>
      <g>
        <polygon points="504.33 49.61 493.11 296.03 312.06 290.89 301.28 272.07 320.76 43.05 489.25 31.9 504.33 49.61" fill="#e0e0e0"/>
        <g fill="none" opacity=".3">
          <polygon points="493.11 296.03 478.02 278.32 489.25 31.9 504.33 49.61 493.11 296.03"/>
        </g>
        <g>
          <polygon points="489.25 31.9 478.02 278.32 301.28 272.07 314.65 29.41 489.25 31.9" fill="#fafafa"/>
          <path d="m489.25,31.9c-1.73-.02-68.62-.9-174.6-2.28l.21-.2c-3.72,67.81-8.33,151.81-13.32,242.66l-.25-.27c.92.03,1.92.07,2.92.1,62.19,2.21,121.22,4.3,173.82,6.17l-.24.23c6.77-145.52,11.37-244.3,11.46-246.41-.09,2.1-4.5,100.89-10.99,246.43v.23s-.25,0-.25,0c-52.6-1.85-111.63-3.93-173.82-6.12-1-.04-2-.07-2.92-.1h-.27s.01-.27.01-.27c5.02-90.85,9.67-174.85,13.42-242.66v-.2s.21,0,.21,0c105.97,1.64,172.86,2.68,174.59,2.7Z" fill="#263238"/>
        </g>
        <rect x="332.74" y="82.72" width="66.44" height="7.01" rx="2.35" ry="2.35" transform="translate(729.23 183.15) rotate(-178.32)" fill="#e0e0e0"/>
        <rect x="332.14" y="96.27" width="66.44" height="7.01" rx="2.35" ry="2.35" transform="translate(727.64 210.21) rotate(-178.32)" fill="#e0e0e0"/>
        <rect x="331.55" y="109.82" width="66.44" height="7.01" rx="2.35" ry="2.35" transform="translate(726.06 237.28) rotate(-178.32)" fill="#e0e0e0"/>
        <rect x="330.95" y="123.36" width="66.44" height="7.01" rx="2.35" ry="2.35" transform="translate(724.47 264.35) rotate(-178.32)" fill="#e0e0e0"/>
        <rect x="330.36" y="136.91" width="66.44" height="7.01" rx="2.35" ry="2.35" transform="translate(722.88 291.42) rotate(-178.32)" fill="#e0e0e0"/>
        <rect x="329.76" y="150.45" width="66.44" height="7.01" rx="2.35" ry="2.35" transform="translate(721.3 318.49) rotate(-178.32)" fill="#e0e0e0"/>
        <rect x="329.17" y="164" width="66.44" height="7.01" rx="2.35" ry="2.35" transform="translate(719.71 345.56) rotate(-178.32)" fill="#e0e0e0"/>
        <rect x="402.96" y="152.48" width="66.44" height="7.01" rx="2.35" ry="2.35" transform="translate(867.61 324.68) rotate(-178.32)" fill="#e0e0e0"/>
        <rect x="402.37" y="166.03" width="66.44" height="7.01" rx="2.35" ry="2.35" transform="translate(866.02 351.75) rotate(-178.32)" fill="#e0e0e0"/>
        <rect x="401.65" y="180.31" width="66.44" height="7.01" rx="2.35" ry="2.35" transform="translate(864.17 380.29) rotate(-178.32)" fill="#e0e0e0"/>
        <rect x="400.93" y="194.59" width="66.44" height="7.01" rx="2.35" ry="2.35" transform="translate(862.31 408.84) rotate(-178.32)" fill="#e0e0e0"/>
        <rect x="400.21" y="208.88" width="66.44" height="7.01" rx="2.35" ry="2.35" transform="translate(860.46 437.38) rotate(-178.32)" fill="#e0e0e0"/>
        <rect x="399.5" y="223.16" width="66.44" height="7.01" rx="2.35" ry="2.35" transform="translate(858.61 465.92) rotate(-178.32)" fill="#e0e0e0"/>
        <rect x="398.78" y="237.45" width="66.44" height="7.01" rx="2.35" ry="2.35" transform="translate(856.75 494.46) rotate(-178.32)" fill="#e0e0e0"/>
        <path d="m325.36,254.2l136.22,3.99c1.3.04,2.38-.98,2.41-2.28l.07-2.31c.04-1.3-.98-2.38-2.28-2.41l-136.22-3.99c-1.3-.04-2.38.98-2.41,2.28l-.07,2.31c-.04,1.3.98,2.38,2.28,2.41Z" fill="#e0e0e0"/>
        <rect x="333.81" y="64.79" width="46.33" height="7.01" rx="2.35" ry="2.35" transform="translate(711.8 147.02) rotate(-178.32)" fill="#e0e0e0"/>
        <path d="m311.05,277.63s.29.03.86.05c.58.02,1.43.06,2.53.11,2.24.08,5.53.21,9.78.37,8.53.3,20.89.74,36.3,1.28,30.84,1.04,73.86,2.49,122.61,4.14h.26s.01-.25.01-.25c.46-9.74.95-19.96,1.44-30.36,2.62-55.89,4.99-106.48,6.7-143.11.83-18.3,1.5-33.12,1.97-43.37.22-5.11.39-9.08.51-11.79.05-1.34.09-2.36.12-3.07.02-.69.02-1.05.02-1.05,0,0-.04.35-.08,1.04-.04.7-.1,1.73-.17,3.06-.14,2.71-.34,6.68-.61,11.79-.51,10.25-1.24,25.06-2.14,43.36-1.76,36.63-4.18,87.21-6.86,143.1-.49,10.4-.97,20.62-1.44,30.36l.27-.25c-48.75-1.58-91.77-2.97-122.61-3.96-15.41-.47-27.77-.86-36.3-1.12-4.25-.12-7.54-.21-9.78-.28-1.11-.03-1.95-.05-2.53-.06-.57-.01-.86,0-.86,0Z" fill="#263238"/>
        <path d="m325.41,285s.27.03.81.05c.55.03,1.35.06,2.39.11,2.12.09,5.22.21,9.24.38,8.06.31,19.75.75,34.34,1.31,29.21,1.07,70.03,2.57,116.51,4.27h.26s.01-.25.01-.25c.62-11.76,1.27-23.99,1.93-36.48,2.87-55.14,5.48-105.06,7.36-141.2.92-18.06,1.66-32.68,2.17-42.79.24-5.04.43-8.96.56-11.64.06-1.32.1-2.33.13-3.03.03-.68.03-1.03.03-1.03,0,0-.04.35-.08,1.03-.04.69-.1,1.7-.19,3.02-.15,2.67-.38,6.59-.66,11.63-.55,10.11-1.35,24.73-2.34,42.78-1.92,36.14-4.58,86.05-7.52,141.2-.66,12.5-1.3,24.73-1.92,36.48l.27-.25c-46.48-1.63-87.3-3.06-116.51-4.09-14.6-.49-26.29-.88-34.35-1.15-4.02-.12-7.12-.22-9.24-.29-1.04-.03-1.84-.05-2.39-.06-.54-.01-.81,0-.81,0Z" fill="#263238"/>
        <g>
          <polygon points="383.93 28.75 386.6 26.14 418.43 26.3 419.97 29.21 383.93 28.75" fill="#263238"/>
          <rect x="394.27" y="18.54" width="15.17" height="36.04" transform="translate(443.48 -364.8) rotate(90.72)" fill="#263238"/>
          <rect x="400.21" y="25.1" width="3.03" height="38.54" rx="1.25" ry="1.25" transform="translate(451.17 -356.76) rotate(90.72)" fill="#263238"/>
          <path d="m409.75,40.55h-.02l-15.85-.2c-.46,0-.88-.23-1.14-.61-.26-.37-.32-.85-.16-1.28l4.67-12.56c-2.06-1.54-3.3-3.94-3.34-6.52-.06-4.52,3.55-8.28,8.06-8.4,2.26-.07,4.42.79,6.03,2.38,1.62,1.6,2.49,3.73,2.46,6-.03,2.69-1.36,5.17-3.56,6.69l4.17,12.65c.14.43.07.9-.2,1.26-.26.36-.68.57-1.13.57Zm-7.55-28.56c-.06,0-.13,0-.19,0-3.9.1-7.14,3.48-7.08,7.38.03,2.38,1.24,4.6,3.22,5.93l.33.22-4.94,13.28c-.05.12-.03.26.04.36.07.11.19.17.32.17l15.85.2c.14,0,.25-.06.33-.16.08-.11.1-.24.06-.36l-4.41-13.38.33-.21c2.11-1.32,3.39-3.59,3.42-6.08.03-2-.74-3.87-2.16-5.27-1.37-1.36-3.18-2.1-5.11-2.1Z" fill="#455a64"/>
          <path d="m419.53,43.08s-.13-.02-.36-.02c-.27,0-.61-.02-1.03-.03-.94-.02-2.23-.05-3.81-.08-3.25-.05-7.68-.13-12.57-.21-4.89-.06-9.32-.1-12.58-.14-1.58,0-2.87,0-3.81-.01-.42,0-.77,0-1.04.01-.24,0-.36.01-.36.02,0,.01.12.02.36.04.27.01.61.03,1.04.04.94.03,2.23.06,3.81.11,3.22.08,7.66.16,12.57.23,4.91.07,9.36.11,12.57.12,1.61,0,2.91,0,3.81-.02.45,0,.8-.01,1.04-.03.24-.02.36-.03.36-.04Z" fill="#455a64"/>
          <path d="m420.04,28.9s-.13-.02-.36-.02c-.27,0-.61-.02-1.03-.03-.94-.02-2.23-.05-3.81-.08-3.25-.05-7.68-.13-12.57-.21-4.89-.05-9.32-.1-12.58-.14-1.58,0-2.87,0-3.81-.01-.42,0-.77,0-1.04.01-.24,0-.36.01-.36.02,0,.01.12.02.36.04.27.01.61.03,1.04.04.94.03,2.23.06,3.81.11,3.22.08,7.66.16,12.57.23,4.91.07,9.36.11,12.57.12,1.61,0,2.91,0,3.81-.02.45,0,.8-.01,1.04-.03.24-.02.36-.03.36-.04Z" fill="#455a64"/>
        </g>
        <g>
          <rect x="328.53" y="181.05" width="61.41" height="55.88" rx="8.92" ry="8.92" transform="translate(6.28 -10.44) rotate(1.68)" fill="#ebebeb"/>
          <path d="m328.1,223.01c.02-.48.26-.92.66-1.19l20.1-13.48c1.57-1.25,3.8-1.21,5.31.1.08.07.17.13.27.18l9.11,4.68c.57.29,1.27.19,1.73-.26l13.8-13.49c1.84-1.64,4.67-1.4,6.2.53l4.43,5.56c.21.27.33.6.33.95l-.21,22.45c-.04,4.76-3.99,8.55-8.75,8.4l-44.92-1.42c-4.7-.15-8.38-4.09-8.21-8.79l.15-4.2Z" fill="#e0e0e0"/>
          <path d="m357.78,195.45c.15,3.39-2.46,6.26-5.85,6.41-3.39.15-6.26-2.46-6.41-5.85-.15-3.39,2.46-6.26,5.85-6.41,3.39-.15,6.26,2.46,6.41,5.85Z" fill="#e0e0e0"/>
        </g>
        <g>
          <rect x="407.85" y="86.46" width="61.41" height="55.88" rx="8.92" ry="8.92" transform="translate(3.54 -12.8) rotate(1.68)" fill="#ebebeb"/>
          <path d="m407.45,127.66l20.73-13.91c1.61-1.29,3.92-1.2,5.43.21l10.21,5.24,14.57-14.25c1.84-1.64,4.67-1.4,6.2.53l4.76,5.98-.2,21.49c-.05,5.57-4.68,10.02-10.25,9.84l-41.97-1.33c-5.5-.17-9.82-4.79-9.62-10.3l.13-3.5Z" fill="#e0e0e0"/>
          <path d="m437.1,100.87c.15,3.39-2.46,6.26-5.85,6.41-3.39.15-6.26-2.46-6.41-5.85-.15-3.39,2.46-6.26,5.85-6.41,3.39-.16,6.26,2.46,6.41,5.85Z" fill="#e0e0e0"/>
        </g>
      </g>
      <path d="m337.42,118.42s-.29-.01-.81-.23c-.5-.22-1.22-.68-1.83-1.55-.59-.85-1.11-2.16-.89-3.67.19-1.5,1.02-3.11,2.43-4.38,1.41-1.28,3.34-2.15,5.47-2.69,2.13-.53,4.46-.87,6.93-.9,4.92-.06,10.42,1.07,15.39,3.9,1.23.72,2.39,1.61,3.26,2.74.86,1.13,1.42,2.49,1.46,3.89.06,1.41-.54,2.77-1.46,3.74-.92.98-2.09,1.6-3.25,2.04-2.35.88-4.73,1.02-6.91,1.12-2.19.07-4.23-.04-6.08-.26-3.7-.45-6.6-1.34-8.54-2.06-.97-.36-1.72-.67-2.21-.91-.5-.23-.75-.36-.74-.38,0-.02.28.08.78.28.51.2,1.26.49,2.24.81,1.95.65,4.85,1.48,8.51,1.89,1.83.2,3.85.29,6.02.2,2.15-.11,4.5-.27,6.75-1.13,1.11-.43,2.22-1.03,3.06-1.93.84-.89,1.37-2.11,1.31-3.38-.04-1.27-.56-2.54-1.36-3.59-.82-1.06-1.92-1.9-3.12-2.61-4.87-2.77-10.28-3.91-15.12-3.87-2.43.01-4.73.33-6.83.83-2.09.51-3.97,1.33-5.33,2.54-1.36,1.2-2.18,2.73-2.38,4.15-.23,1.43.23,2.68.77,3.52.56.85,1.23,1.32,1.71,1.57.48.24.77.29.76.32Z" fill="#263238"/>
      <path d="m363.27,258.12s-.29-.01-.81-.23c-.5-.22-1.22-.68-1.83-1.55-.59-.85-1.11-2.16-.89-3.67.19-1.5,1.02-3.11,2.43-4.38,1.41-1.28,3.34-2.15,5.47-2.69,2.13-.53,4.46-.87,6.93-.9,4.92-.06,10.42,1.07,15.39,3.9,1.23.72,2.39,1.61,3.26,2.74.86,1.13,1.42,2.49,1.46,3.89.06,1.41-.54,2.77-1.46,3.74-.92.98-2.09,1.6-3.25,2.04-2.35.88-4.73,1.02-6.91,1.12-2.19.07-4.23-.04-6.08-.26-3.7-.46-6.6-1.34-8.54-2.06-.97-.36-1.72-.67-2.21-.91-.5-.23-.75-.36-.74-.38,0-.02.28.08.78.28.51.2,1.26.49,2.24.81,1.95.65,4.85,1.48,8.51,1.89,1.83.2,3.85.29,6.02.2,2.16-.11,4.5-.27,6.75-1.13,1.11-.43,2.22-1.03,3.06-1.93.84-.89,1.37-2.11,1.31-3.38-.04-1.27-.56-2.54-1.36-3.59-.82-1.06-1.92-1.9-3.12-2.61-4.87-2.77-10.28-3.91-15.12-3.87-2.43.01-4.73.33-6.83.83-2.09.51-3.97,1.33-5.33,2.54-1.36,1.2-2.18,2.73-2.38,4.15-.23,1.43.23,2.68.77,3.52.56.85,1.23,1.32,1.71,1.57.48.24.77.29.76.32Z" fill="#263238"/>
      <path d="m333.27,72.68s-.29-.01-.81-.23c-.5-.22-1.22-.68-1.83-1.55-.59-.85-1.11-2.15-.89-3.67.19-1.5,1.02-3.11,2.43-4.38,1.4-1.28,3.34-2.15,5.47-2.69,2.13-.53,4.46-.87,6.93-.9,4.92-.06,10.42,1.07,15.39,3.9,1.23.72,2.39,1.61,3.26,2.74.86,1.13,1.42,2.49,1.46,3.89.06,1.41-.54,2.77-1.46,3.74-.92.98-2.09,1.6-3.25,2.04-2.35.88-4.73,1.02-6.91,1.12-2.19.07-4.23-.04-6.08-.26-3.7-.45-6.6-1.34-8.54-2.06-.97-.36-1.72-.67-2.21-.91-.5-.23-.75-.36-.74-.38,0-.02.28.08.78.28.51.2,1.26.49,2.24.81,1.95.65,4.85,1.48,8.51,1.89,1.83.2,3.85.29,6.02.2,2.16-.11,4.5-.27,6.75-1.13,1.11-.43,2.22-1.03,3.06-1.93.84-.89,1.37-2.11,1.31-3.38-.04-1.27-.56-2.54-1.36-3.59-.82-1.06-1.92-1.9-3.12-2.61-4.87-2.77-10.28-3.91-15.12-3.87-2.43.01-4.73.33-6.83.83-2.09.51-3.97,1.33-5.33,2.54-1.36,1.2-2.18,2.73-2.38,4.15-.23,1.43.23,2.68.77,3.52.56.85,1.23,1.32,1.71,1.57.48.24.77.29.76.32Z" fill="#263238"/>
      <polygon points="486.71 212.99 500.46 213.33 507.02 221.78 499.96 230.4 485.85 229.98 486.71 212.99" fill="#b10043"/>
      <polygon points="488.01 188.87 501.76 189.21 508.32 197.66 501.26 206.28 487.15 205.86 488.01 188.87" fill="#393838"/>
      <path d="m257.16,15.46h43.49c.29,0,.52.23.52.52v.22c0,.29-.23.52-.52.52h-43.49c-.29,0-.52-.23-.52-.52v-.22c0-.29.23-.52.52-.52Z" fill="#e0e0e0"/>
      <path d="m257.16,19.43h43.49c.29,0,.52.23.52.52v.22c0,.29-.23.52-.52.52h-43.49c-.29,0-.52-.23-.52-.52v-.22c0-.29.23-.52.52-.52Z" fill="#e0e0e0"/>
      <path d="m257.16,23.39h43.49c.29,0,.52.23.52.52v.22c0,.29-.23.52-.52.52h-43.49c-.29,0-.52-.23-.52-.52v-.22c0-.29.23-.52.52-.52Z" fill="#e0e0e0"/>
      <path d="m309.2,19.16c.11-.09,7.03,8.87,15.45,20.01,8.42,11.14,15.16,20.24,15.04,20.33-.11.09-7.03-8.87-15.46-20.01-8.42-11.14-15.15-20.24-15.04-20.33Z" fill="#263238"/>
      <circle cx="308.94" cy="18.36" r="1.69" fill="#263238"/>
      <g>
        <path d="m356.05,361.58h-50.72c-2.45,0-4.41-2.05-4.29-4.5l1.03-21.49c.11-2.29,2-4.09,4.29-4.09h50.72c2.45,0,4.41,2.05,4.29,4.5l-1.03,21.49c-.11,2.29-2,4.09-4.29,4.09Z" fill="#fafafa"/>
        <path d="m356.05,361.58s.63.05,1.67-.4c.51-.23,1.12-.62,1.62-1.27.52-.64.89-1.55.91-2.62.19-4.36.46-10.63.8-18.36-.02-1.9.62-4.12-.79-5.72-.63-.79-1.59-1.34-2.63-1.46-1.04-.08-2.2-.02-3.33-.03-4.56,0-9.44.02-14.56.02-10.26,0-21.53.01-33.37.02-1.4,0-2.75.76-3.46,1.95-.36.59-.55,1.26-.58,1.95-.03.73-.07,1.45-.1,2.17-.14,2.88-.28,5.72-.41,8.5-.14,2.79-.27,5.53-.4,8.21-.03.67-.07,1.34-.1,2-.05.68-.06,1.28.13,1.88.34,1.19,1.25,2.19,2.38,2.63.57.23,1.15.31,1.78.3.63,0,1.26,0,1.89,0,1.25,0,2.48,0,3.7,0,2.43,0,4.79,0,7.07.01,4.56.01,8.81.02,12.69.03,7.74.03,14.01.06,18.37.08,2.15.02,3.83.04,5,.05.55.01.98.02,1.3.03.29,0,.44.02.44.03s-.15.02-.44.03c-.32,0-.75.01-1.3.03-1.17.01-2.85.03-5,.05-4.36.02-10.63.05-18.37.08-3.88,0-8.13.02-12.69.03-2.28,0-4.64,0-7.07.01-1.21,0-2.45,0-3.7,0-.62,0-1.25,0-1.89,0-.64.01-1.34-.07-1.96-.33-1.27-.49-2.28-1.61-2.67-2.94-.21-.66-.2-1.4-.15-2.04.03-.66.06-1.33.09-2,.13-2.68.26-5.42.39-8.21.13-2.79.27-5.63.4-8.5.03-.72.07-1.44.1-2.17.03-.76.26-1.53.66-2.19.79-1.34,2.33-2.2,3.9-2.2,11.84,0,23.11.01,33.37.02,5.13,0,10,.02,14.56.02,1.15.02,2.24-.04,3.39.05,1.15.15,2.2.76,2.89,1.62.7.86,1.05,1.96,1,3.02-.05,1.01-.1,2.01-.15,2.98-.41,7.73-.73,13.99-.96,18.35-.03,1.1-.44,2.06-.99,2.71-.53.67-1.17,1.04-1.7,1.27-.54.22-.98.27-1.27.31-.29,0-.44,0-.44,0Z" fill="#263238"/>
      </g>
      <path d="m309.46,341.95h43.49c.29,0,.52.23.52.52v.22c0,.29-.23.52-.52.52h-43.49c-.29,0-.52-.23-.52-.52v-.22c0-.29.23-.52.52-.52Z" fill="#e0e0e0"/>
      <path d="m309.46,345.91h43.49c.29,0,.52.23.52.52v.22c0,.29-.23.52-.52.52h-43.49c-.29,0-.52-.23-.52-.52v-.22c0-.29.23-.52.52-.52Z" fill="#e0e0e0"/>
      <path d="m309.46,349.88h43.49c.29,0,.52.23.52.52v.22c0,.29-.23.52-.52.52h-43.49c-.29,0-.52-.23-.52-.52v-.22c0-.29.23-.52.52-.52Z" fill="#e0e0e0"/>
      <path d="m375.25,261.07c.13.07-7.98,15.89-18.11,35.33-10.13,19.45-18.45,35.16-18.58,35.09-.13-.07,7.98-15.88,18.11-35.33,10.13-19.44,18.45-35.16,18.57-35.09Z" fill="#263238"/>
      <path d="m340.26,331.49c0,.94-.76,1.69-1.69,1.69s-1.69-.76-1.69-1.69.76-1.69,1.69-1.69,1.69.76,1.69,1.69Z" fill="#263238"/>
    </g>
    <g>
      <g>
        <path d="m506.81,342.44h146.97c1.39,0,2.51,1.13,2.51,2.51v1.05c0,1.39-1.13,2.51-2.51,2.51h-146.97v-6.07h0Z" fill="#b10043"/>
        <path d="m504.82,345.95c0,.12-12.33.22-27.54.22s-27.54-.1-27.54-.22,12.33-.22,27.54-.22,27.54.1,27.54.22Z" fill="#263238"/>
        <g>
          <path d="m525.04,348.52h-69.04c-8.36,0-15.14-6.78-15.14-15.14v-6.32c0-8.36,6.78-15.14,15.14-15.14h69.04v36.6Z" fill="#b10043"/>
          <path d="m653.78,318h-145.83c-.63,0-1.14-.51-1.14-1.14v-3.79c0-.63.51-1.14,1.14-1.14h145.83c1.39,0,2.51,1.12,2.51,2.51v1.05c0,1.39-1.12,2.51-2.51,2.51Z" fill="#b10043"/>
          <path d="m651.83,342.44h-128.34c-6.75,0-12.22-5.47-12.22-12.22h0c0-6.75,5.47-12.22,12.22-12.22h128.34c-3.44,8.15-3.44,16.3,0,24.45Z" fill="#f5f5f5"/>
          <g fill="none" opacity=".3">
            <path d="m511.27,348.52h-56.53c-7.66,0-13.87-6.21-13.87-13.87v-8.97c0-7.6,6.16-13.76,13.76-13.76h58.04c-13.25,8.03-12.26,27.25-1.39,36.6Z"/>
          </g>
          <path d="m636.24,331.36c0,.12-26.34.22-58.83.22s-58.84-.1-58.84-.22,26.34-.22,58.84-.22,58.83.1,58.83.22Z" fill="#263238"/>
          <path d="m648.35,336.79c0,.12-26.34.22-58.83.22s-58.84-.1-58.84-.22,26.34-.22,58.84-.22,58.83.1,58.83.22Z" fill="#263238"/>
          <path d="m644.78,323.65c0,.12-26.34.22-58.83.22s-58.84-.1-58.84-.22,26.34-.22,58.84-.22,58.83.1,58.83.22Z" fill="#263238"/>
          <path d="m504.82,314.96c0,.12-12.33.22-27.54.22s-27.54-.1-27.54-.22,12.33-.22,27.54-.22,27.54.1,27.54.22Z" fill="#263238"/>
        </g>
      </g>
      <g>
        <path d="m510.92,421.34h-81.35c-10.77,0-19.49-8.73-19.49-19.49v-8.14c0-10.77,8.73-19.49,19.49-19.49h81.35c4.17,0,7.56,3.38,7.56,7.56v32.01c0,4.17-3.38,7.56-7.56,7.56Z" fill="#efc037"/>
        <path d="m684.28,382.03h-187.41c-1.03,0-1.87-.84-1.87-1.87v-4.09c0-1.03.84-1.87,1.87-1.87h187.41c1.79,0,3.24,1.45,3.24,3.24v1.35c0,1.79-1.45,3.24-3.24,3.24Z" fill="#efc037"/>
        <path d="m684.28,421.34h-187.41c-1.03,0-1.87-.84-1.87-1.87v-4.09c0-1.03.84-1.87,1.87-1.87h187.41c1.79,0,3.24,1.45,3.24,3.24v1.35c0,1.79-1.45,3.24-3.24,3.24Z" fill="#efc037"/>
        <path d="m681.77,413.51h-165.29c-8.69,0-15.74-7.05-15.74-15.74h0c0-8.69,7.05-15.74,15.74-15.74h165.29c-4.43,10.49-4.43,20.99,0,31.48Z" fill="#f5f5f5"/>
        <g fill="none" opacity=".3">
          <path d="m500.74,421.34h-67.35c-12.87,0-23.31-10.44-23.31-23.31h0c0-13.15,10.66-23.82,23.82-23.82h68.64c-17.06,10.34-15.79,35.09-1.79,47.13Z"/>
        </g>
        <path d="m661.69,399.23c0,.12-33.93.22-75.77.22s-75.77-.1-75.77-.22,33.92-.22,75.77-.22,75.77.1,75.77.22Z" fill="#263238"/>
        <path d="m677.28,406.23c0,.12-33.93.22-75.77.22s-75.77-.1-75.77-.22,33.92-.22,75.77-.22,75.77.1,75.77.22Z" fill="#263238"/>
        <path d="m672.68,392.74c0,.12-33.93.22-75.77.22s-75.77-.1-75.77-.22,33.92-.22,75.77-.22,75.77.1,75.77.22Z" fill="#263238"/>
        <path d="m492.44,418.03c0,.12-15.88.22-35.47.22s-35.47-.1-35.47-.22,15.88-.22,35.47-.22,35.47.1,35.47.22Z" fill="#263238"/>
        <path d="m492.44,378.12c0,.12-15.88.22-35.47.22s-35.47-.1-35.47-.22,15.88-.22,35.47-.22,35.47.1,35.47.22Z" fill="#263238"/>
      </g>
      <g>
        <path d="m469.72,347.4h76.39c.29,0,.52.23.52.52v25.95c0,.29-.23.52-.52.52h-76.39c-6.16,0-11.16-5-11.16-11.16v-4.66c0-6.16,5-11.16,11.16-11.16Z" fill="#5ca3de"/>
        <path d="m681.33,353.75h-152.58c-.66,0-1.2-.54-1.2-1.2v-3.96c0-.66.54-1.2,1.2-1.2h152.58c1.45,0,2.63,1.18,2.63,2.63v1.1c0,1.45-1.18,2.63-2.63,2.63Z" fill="#5ca3de"/>
        <path d="m528.75,368.02h152.58c1.45,0,2.63,1.18,2.63,2.63v1.1c0,1.45-1.18,2.63-2.63,2.63h-152.58c-.66,0-1.2-.54-1.2-1.2v-3.96c0-.66.54-1.2,1.2-1.2Z" fill="#5ca3de"/>
        <path d="m679.3,368.02h-139.94c-3.94,0-7.14-3.19-7.14-7.14h0c0-3.94,3.19-7.14,7.14-7.14h139.94c-3.6,4.76-3.6,9.51,0,14.27Z" fill="#f5f5f5"/>
        <g fill="none" opacity=".3">
          <path d="m532.22,374.38h-60.28c-7.39,0-13.38-5.99-13.38-13.38h0c0-7.51,6.09-13.6,13.6-13.6h61.52c-13.86,5.92-12.83,20.09-1.46,26.98Z"/>
        </g>
        <path d="m662.98,359.76c0,.12-27.56.22-61.56.22s-61.56-.1-61.56-.22,27.56-.22,61.56-.22,61.56.1,61.56.22Z" fill="#263238"/>
        <path d="m675.65,363.6c0,.12-27.56.22-61.56.22s-61.56-.1-61.56-.22,27.56-.22,61.56-.22,61.56.1,61.56.22Z" fill="#263238"/>
        <path d="m525.48,371.7c0,.12-12.9.22-28.81.22s-28.82-.1-28.82-.22,12.9-.22,28.82-.22,28.81.1,28.81.22Z" fill="#263238"/>
        <path d="m525.48,350.57c0,.12-12.9.22-28.81.22s-28.82-.1-28.82-.22,12.9-.22,28.82-.22,28.81.1,28.81.22Z" fill="#263238"/>
        <path d="m682.13,347.4c0,.12-47.33.22-105.7.22s-105.71-.1-105.71-.22,47.32-.22,105.71-.22,105.7.1,105.7.22Z" fill="#393838"/>
      </g>
    </g>
    <g>
      <g>
        <path d="m664.48,72.6h-45.35c-9.6,0-17.39,7.78-17.39,17.39h0c0,9.26,7.25,16.81,16.38,17.34,1.37,2.37,2.74,4.74,4.11,7.1,1.71-2.35,3.42-4.7,5.13-7.05h37.12c9.6,0,17.39-7.78,17.39-17.39h0c0-9.6-7.78-17.39-17.39-17.39Z" fill="#fff"/>
        <path d="m664.48,72.6s.16,0,.46,0c.33.01.78.03,1.36.05,1.18.16,2.96.38,5.08,1.28,2.1.89,4.53,2.45,6.65,4.96,1.03,1.28,1.97,2.78,2.69,4.5.73,1.72,1.16,3.68,1.27,5.75.25,4.13-1.09,8.86-4.4,12.55-1.63,1.84-3.72,3.4-6.14,4.46-2.41,1.08-5.17,1.5-7.93,1.46-11.03,0-23.23.02-36.16.03l.21-.11c-1.63,2.24-3.37,4.63-5.13,7.05l-.24.32-.2-.35c-.53-.91-1.1-1.9-1.67-2.89-.83-1.44-1.66-2.88-2.43-4.21l.21.13c-1.75-.13-3.46-.48-5.08-1.06-1.62-.6-3.12-1.45-4.49-2.46-2.71-2.05-4.79-4.84-5.92-7.92-1.17-3.08-1.36-6.41-.79-9.5.62-3.09,2.02-5.95,4.01-8.2,1.98-2.26,4.46-3.97,7.14-4.94.33-.12.66-.25,1-.35l1.02-.26c.67-.2,1.37-.25,2.05-.37.68-.09,1.37-.08,2.04-.13.67,0,1.33,0,1.99,0,5.26.01,10.15.02,14.61.03,8.9.03,16.1.06,21.09.08,2.47.02,4.39.04,5.72.05.64.01,1.13.02,1.48.03.33,0,.51.03.51.03,0,0-.17.02-.51.03-.35,0-.85.01-1.48.03-1.33.01-3.25.03-5.72.05-4.99.02-12.18.05-21.09.08-4.46,0-9.35.02-14.61.03-.66,0-1.32,0-1.99,0-.66.05-1.33.04-1.99.13-.66.12-1.34.16-1.99.37l-.99.26c-.33.1-.65.23-.97.35-2.6.94-5.02,2.62-6.94,4.82-1.94,2.19-3.29,4.98-3.89,7.98-.55,3.01-.36,6.25.78,9.23,1.1,2.99,3.12,5.7,5.76,7.69,1.33.98,2.79,1.8,4.36,2.38,1.58.56,3.24.9,4.93,1.03h.14s.07.13.07.13c.77,1.33,1.6,2.77,2.43,4.21.57.99,1.14,1.98,1.67,2.89l-.44-.02c1.76-2.42,3.5-4.81,5.13-7.05l.08-.11h.13c12.93.01,25.13.02,36.16.03,2.74.05,5.4-.35,7.76-1.4,2.36-1.03,4.4-2.55,6-4.34,3.25-3.59,4.58-8.21,4.36-12.26-.1-2.03-.51-3.96-1.21-5.65-.7-1.69-1.61-3.18-2.61-4.44-2.07-2.49-4.45-4.06-6.52-4.96-4.23-1.75-6.86-1.36-6.83-1.5Z" fill="#263238"/>
      </g>
      <polygon points="621.88 84.56 623.51 87.85 627.14 88.38 624.51 90.94 625.13 94.56 621.88 92.85 618.63 94.56 619.25 90.94 616.62 88.38 620.26 87.85 621.88 84.56" fill="#efc037"/>
      <polygon points="635.68 84.56 637.3 87.85 640.94 88.38 638.31 90.94 638.93 94.56 635.68 92.85 632.42 94.56 633.05 90.94 630.41 88.38 634.05 87.85 635.68 84.56" fill="#efc037"/>
      <polygon points="649.47 84.56 651.1 87.85 654.73 88.38 652.1 90.94 652.72 94.56 649.47 92.85 646.22 94.56 646.84 90.94 644.21 88.38 647.85 87.85 649.47 84.56" fill="#efc037"/>
      <polygon points="663.27 84.56 664.89 87.85 668.53 88.38 665.9 90.94 666.52 94.56 663.27 92.85 660.01 94.56 660.64 90.94 658 88.38 661.64 87.85 663.27 84.56" fill="#efc037"/>
    </g>
    <g>
      <g>
        <path d="m126.91,128.37l7.4.72c2.95,3.75,7.06,6.68,12.06,8.15,11.27,3.33,23.51-2.23,28.42-12.91,6.16-13.41-1.07-29.05-15.27-33.05-11.39-3.21-23.63,2.63-28.34,13.49-2.41,5.55-2.54,11.45-.87,16.73h0s-3.39,6.87-3.39,6.87Z" fill="#fff"/>
        <path d="m126.91,128.37s.09-.16.25-.46c.16-.32.39-.76.68-1.32.59-1.17,1.45-2.86,2.57-5.05h-.19s0,.02,0,.02c.03.05.1.07.15.03.04-.03.06-.08.05-.13-.89-2.91-1.54-6.97-.63-11.63.43-2.32,1.32-4.75,2.65-7.11,1.33-2.36,3.15-4.65,5.47-6.58,2.32-1.93,5.14-3.51,8.29-4.46,3.15-.96,6.63-1.29,10.12-.81,6.97.92,13.97,5.37,17.58,12.27l.67,1.29.54,1.34c.41.88.59,1.83.89,2.74.42,1.86.72,3.74.7,5.61.03,3.74-.84,7.38-2.38,10.57-1.57,3.18-3.8,5.9-6.37,7.97-2.57,2.08-5.47,3.54-8.39,4.37-5.86,1.68-11.61.9-15.92-.99-4.37-1.87-7.36-4.68-9.25-7.05-.03-.01-.05-.03-.08-.04-2.37-.2-4.2-.36-5.47-.46-.61-.05-1.09-.09-1.43-.11-.33-.02-.5-.03-.5-.03,0,0,.14.03.45.06.34.04.8.09,1.4.16,1.28.14,3.14.34,5.54.6l-.08-.04c1.87,2.42,4.87,5.29,9.29,7.23,4.36,1.94,10.2,2.78,16.18,1.09,2.97-.84,5.93-2.31,8.56-4.43,2.63-2.11,4.92-4.88,6.52-8.12,1.58-3.25,2.47-6.97,2.45-10.79.02-1.91-.28-3.83-.71-5.73-.3-.93-.5-1.9-.91-2.8l-.56-1.37-.68-1.32c-3.69-7.06-10.85-11.59-17.97-12.52-3.57-.48-7.12-.14-10.33.85-3.21.98-6.08,2.6-8.44,4.58-2.36,1.98-4.2,4.32-5.54,6.72-1.34,2.41-2.22,4.88-2.64,7.23-.89,4.73-.19,8.84.75,11.76l.2-.09h0c-.03-.06-.1-.08-.15-.05-.02.01-.03.03-.04.05-1.08,2.25-1.91,3.98-2.48,5.18-.26.56-.47.99-.62,1.31-.14.29-.2.44-.19.43Z" fill="#263238"/>
      </g>
      <path d="m154.18,123.6l-.04,2.69-2.4-.03.03-2.61c-2.37-.18-4.64-.95-5.95-2l1.36-2.91c1.19.9,2.91,1.57,4.63,1.77l.05-4.01c-2.65-.68-5.62-1.61-5.57-5.04.03-2.54,1.91-4.7,5.71-5.08l.04-2.66,2.4.03-.03,2.62c1.8.17,3.54.67,4.85,1.53l-1.24,2.94c-1.21-.71-2.46-1.14-3.65-1.3l-.05,4.08c2.65.66,5.57,1.59,5.52,4.97-.03,2.5-1.89,4.63-5.66,5.04Zm-2.26-10.64l.04-3.41c-1.27.27-1.79.96-1.8,1.75-.01.84.7,1.31,1.75,1.65Zm4.05,5.84c.01-.84-.68-1.3-1.71-1.68l-.04,3.31c1.2-.25,1.74-.86,1.75-1.63Z" fill="#e0e0e0"/>
    </g>
    <g>
      <g>
        <path d="m50.39,116.23l-1.94-7.18c2.47-4.08,3.76-8.96,3.38-14.15-.86-11.72-10.37-21.22-22.09-22.05-14.72-1.04-26.82,11.23-25.55,25.94,1.01,11.79,10.79,21.19,22.61,21.77,6.04.3,11.61-1.66,15.97-5.08h0s7.63.76,7.63.76Z" fill="#fff"/>
        <path d="m50.39,116.23s-.18-.03-.51-.07c-.36-.04-.84-.1-1.47-.17-1.3-.14-3.19-.35-5.63-.62l.08.18h0c.04-.06.03-.13-.02-.17-.04-.03-.1-.03-.14,0-2.41,1.86-5.98,3.9-10.66,4.68-2.33.41-4.91.44-7.58.03-2.68-.41-5.46-1.31-8.09-2.8-2.63-1.49-5.09-3.58-7.1-6.19-2-2.61-3.54-5.75-4.32-9.19-1.59-6.85.1-14.97,5.29-20.78l.98-1.08,1.07-.98c.68-.69,1.5-1.2,2.25-1.8,1.59-1.05,3.24-2,5-2.63,3.49-1.34,7.2-1.82,10.73-1.5,3.53.34,6.86,1.48,9.71,3.15,2.86,1.67,5.24,3.88,7.05,6.31,3.64,4.89,4.93,10.55,4.69,15.25-.21,4.75-1.79,8.54-3.34,11.14,0,.03,0,.06-.01.09.65,2.29,1.15,4.06,1.5,5.29.17.59.3,1.05.4,1.38.09.31.15.48.15.48,0,0-.03-.14-.1-.45-.08-.33-.2-.78-.34-1.37-.32-1.25-.79-3.06-1.39-5.4v.09c1.59-2.6,3.23-6.43,3.48-11.24.28-4.76-.99-10.53-4.68-15.53-1.83-2.48-4.25-4.74-7.16-6.46-2.9-1.72-6.29-2.89-9.9-3.24-3.6-.33-7.4.14-10.96,1.51-1.8.65-3.49,1.61-5.12,2.69-.76.61-1.6,1.13-2.3,1.84l-1.09,1-1,1.1c-5.3,5.94-7.03,14.24-5.38,21.23.81,3.51,2.38,6.71,4.43,9.37,2.05,2.66,4.57,4.78,7.26,6.28,2.68,1.51,5.52,2.41,8.24,2.81,2.73.4,5.35.36,7.7-.08,4.74-.84,8.34-2.93,10.74-4.85l-.16-.15h0c-.04.06-.03.13.02.17.02.01.04.02.06.02,2.48.21,4.4.38,5.72.49.62.05,1.1.09,1.45.12.32.02.48.03.47.03Z" fill="#263238"/>
      </g>
      <polygon points="27.54 108.24 14.98 99.84 17.91 95.45 26.33 101.09 36.82 87.21 41.03 90.39 27.54 108.24" fill="#b10043"/>
    </g>
    <g>
      <g>
        <g>
          <path d="m543.17,85.62s-4.54,16.98-4.93,29l-.13,4s10.02,8.32,18.43,8.84l7.05-17.33-20.41-24.51Z" fill="#263238"/>
          <g>
            <g>
              <g>
                <path d="m587.7,96.04c-1.92-8.28-2.65-17.93-9.54-23.33-5.11-4.01-10.94-5.13-17.43-4.85-3.2.13-6.8,1.61-9.59,3.18-3.82,2.16-5.43,6.54-7.27,10.52-3.69,7.97-3.22,18.77-.72,21.77l33.32,17.6c6.65-3.46,10.82-4.84,11.89-13.71.45-3.73.19-7.52-.65-11.18Z" fill="#263238"/>
                <g>
                  <path d="m577.8,79.29l-20.97-6.19c-6.76-.98-11.59,7.19-12.29,13.98-.77,7.54-1.42,16.79-.75,22.47,1.36,11.42,10,13.21,10,13.21,0-.04.02.17-.05,3.54l-.03,6.95c-.09,2.21.3,2.95,1.65,4.7,3.09,4.01,8.73,4.54,15.38,2.08,3.85-1.43,6.53-4.29,6.83-8.2l3.65-48.36c.12-2.07-1.36-3.89-3.41-4.19Z" fill="#ae7461"/>
                  <path d="m546.53,97.42c-.06.77.55,1.45,1.35,1.52.8.07,1.49-.49,1.55-1.25.06-.77-.55-1.45-1.34-1.52-.8-.07-1.5.49-1.55,1.25Z" fill="#263238"/>
                  <path d="m545.93,93.93c.17.2,1.31-.58,2.87-.51,1.57.04,2.68.89,2.86.71.09-.08-.08-.43-.57-.82-.48-.38-1.31-.77-2.28-.8-.98-.03-1.81.29-2.3.64-.5.35-.67.69-.59.78Z" fill="#263238"/>
                  <path d="m560.3,97.65c-.06.77.55,1.45,1.35,1.52.8.07,1.49-.49,1.55-1.25.06-.77-.55-1.45-1.34-1.52-.8-.07-1.5.49-1.55,1.25Z" fill="#263238"/>
                  <path d="m561.33,94.11c.17.2,1.31-.58,2.87-.51,1.56.04,2.68.89,2.86.71.09-.08-.08-.43-.57-.82-.48-.38-1.3-.77-2.28-.8-.98-.03-1.81.29-2.3.64-.49.35-.67.69-.59.78Z" fill="#263238"/>
                  <path d="m555.23,104.27c.01-.09-.96-.3-2.53-.56-.4-.06-.77-.15-.83-.43-.08-.29.1-.72.31-1.17.41-.95.85-1.95,1.3-3,1.81-4.27,3.14-7.79,2.97-7.86-.17-.07-1.78,3.33-3.6,7.6-.44,1.05-.86,2.06-1.25,3.02-.17.45-.45.95-.27,1.56.1.3.38.53.63.61.25.09.48.1.68.12,1.58.15,2.57.19,2.58.11Z" fill="#263238"/>
                  <path d="m553.74,122.76s7.62.79,15.36-3.46c0,0-4.07,7.79-15.39,6.28l.03-2.83Z" fill="#6f4439"/>
                  <path d="m560.31,107.75c-.38-.67-1.1-1.05-1.85-1.1-1.08-.08-2,.26-2.74,1.23-.25.28-.26,1.09-.17,1.32.09.23.02.12.19.28.61.58,1.26,1.17,2.06,1.39.8.23,1.81,0,2.37-.77.5-.69.52-1.67.14-2.35Z" fill="#6f4439"/>
                  <path d="m560.08,105.6c-.25-.03-.33,1.67-1.84,2.81-1.51,1.14-3.31.87-3.33,1.11-.03.11.39.35,1.15.4.75.06,1.85-.13,2.78-.83.92-.7,1.35-1.67,1.44-2.36.1-.71-.07-1.14-.19-1.13Z" fill="#263238"/>
                  <path d="m560.74,88.38c.11.44,1.69.39,3.5.79,1.82.36,3.24,1.04,3.52.68.13-.17-.09-.6-.65-1.06-.55-.47-1.46-.95-2.54-1.18-1.09-.23-2.11-.15-2.8.06-.7.21-1.07.51-1.02.71Z" fill="#263238"/>
                  <path d="m546.06,89.71c.36.31,1.5-.23,2.93-.45,1.43-.27,2.69-.15,2.91-.56.1-.2-.15-.52-.73-.78-.57-.26-1.49-.4-2.47-.23-.98.17-1.79.61-2.24,1.05-.46.44-.57.82-.41.97Z" fill="#263238"/>
                </g>
              </g>
              <path d="m556.76,71.88c-.02.08-.03.16-.05.25l.04.02c0-.09,0-.18.01-.26Z" fill="#263238"/>
            </g>
            <path d="m571.42,127.34c.32-2.98-.88-5.96-.53-8.94.37-3.15,2.41-5.85,3.25-8.91,1.34-4.9-.5-10.11-1.17-15.18-2.84-.35-5.49-2.06-7.38-4.26-2.28-2.65-3.65-5.94-4.99-9.17.08,3.17,1.18,6.3,3.09,8.82-1.26.26-2.59-.28-3.54-1.15-.95-.87-1.57-2.04-2.08-3.22-1.23-2.86-1.9-5.96-2.01-9.08-.42,4.46.08,9.01,1.48,13.26-.79-.24-1.65-.03-2.47.09-.82.12-1.77.1-2.35-.5-.39-.4-.53-.97-.64-1.51-.78-3.79-.91-7.72-.38-11.55-1.01,2.07-2.02,4.17-2.6,6.4-.59,2.23-.74,4.63-.05,6.83-.33.41-1.02.35-1.41,0-.39-.36-.54-.9-.62-1.43-.3-1.91.04-3.85.37-5.75-1.13,2.01-1.51,4.35-2.14,6.57-.63,2.22-1.63,4.5-3.56,5.77-.33-3.33-.22-5.6.28-8.71.38-2.38,1.51-4.74,2.55-6.91,1.17-2.43,2.79-4.82,4.6-6.41,3.34-2.93,4.74-1.67,6.88-.55l.25.11c0-.05,0-.11.02-.16l.1-.45c5.56-1.25,11.45-.98,16.87.79,4.03,1.31,4.4,9.98,5.38,5.86.59-2.49,3.82-.22,3.86-.15,4.75,8.56,9.78,22.15,10.01,43.62h0l-21.09,5.89Z" fill="#263238"/>
          </g>
        </g>
        <path d="m585.16,61.92c-1.9-2.07-4.57-3.51-7.38-3.59-2.81-.09-5.7,1.29-7.13,3.71-1.43,2.42-1.15,5.82.88,7.77l3.51,2.81c2.41,1.33,5.4,1.77,7.97.77,2.57-1,4.56-3.57,4.5-6.32-.05-1.93-1.04-3.73-2.34-5.15Z" fill="#263238"/>
        <path d="m582.45,77.5c-.68.32-2.6-2.62-6.03-4.94-3.38-2.39-6.81-3.14-6.75-3.89.03-.34,1-.61,2.56-.45,1.55.15,3.68.83,5.67,2.2,1.98,1.37,3.37,3.12,4.07,4.52.7,1.41.79,2.41.48,2.55Z" fill="#455a64"/>
      </g>
      <g>
        <path d="m533.68,170.79l13.14-12.31,8.9,14.14c-.18,1.27-11.52,25.72-16.44,30.79-5.61,5.78-13.25,5.33-16.62-2.65-2.66-6.29-7.07-25.67-7.07-25.67l18.08-4.3Z" fill="#efc037"/>
        <path d="m548,133.77c-3.14,1.13-10.36,5.08-12.46,7.67-1.02,1.25-2.01,2.68-2.65,4.1-1.64,3.62-4.77,30.43-4.77,30.43l13.99,10.13,12.18-46.9-.78-7.44-5.52,2Z" fill="#efc037"/>
        <path d="m543.36,211.19l.88-6.93s-2.7-12.36-3.69-23.09c-1.58-17.06,2.87-27.66,3.48-29.46.34-1.02,9.48-19.95,9.48-19.95,0,0,1.92,5.83,9.63,4.45,10.75-1.92,14.67-7.75,14.67-7.75l13.89,3s5.41,21.74,6.21,28.95c.43,3.86-4.66,25.69-4.66,25.69l8.19,12.26c.25.6-3.56,17.36-4.3,18.05-.74.69-14.07,3.79-14.24,4.36-.17.57-25.41,11.14-25.4,10.71.02-.43-12.15-14.88-12.15-14.88l-2.01-5.41Z" fill="#efc037"/>
        <path d="m540.22,154.32s0,.18-.03.51c-.05.39-.1.86-.17,1.44-.15,1.25-.36,3.06-.54,5.29-.35,4.47-.7,10.7.33,17.48.9,6.8,2.21,12.88,3.06,17.3.43,2.21.76,4,.97,5.24.09.57.16,1.05.22,1.43.04.33.06.5.04.51-.02,0-.07-.16-.15-.49-.09-.38-.19-.85-.32-1.41-.28-1.31-.66-3.07-1.13-5.21-.94-4.4-2.31-10.48-3.21-17.3-1.04-6.83-.62-13.12-.18-17.59.23-2.24.5-4.05.71-5.29.11-.62.2-1.1.27-1.43.07-.32.12-.49.14-.49Z" fill="#263238"/>
      </g>
      <g>
        <path d="m603.89,208.24c2.49,4.23,8.18,20.41,10.39,28.68,10.09,37.71,18.63,88.43,21.46,98.77,3.78,13.77,12.24,44.93,16.55,65.69l-20.68,9.02s-27.09-72.99-34.47-90.92c-7.66-18.58-20.43-53.64-20.43-53.64l-7.38,139.03-19.81.61s-6.78-39.18-9.47-62.59c-2.69-23.42-2.99-71.62-3.02-83.85-.03-14.9,6.43-48.41,6.43-48.41,0,0,7.73,5.8,22.22,3.58,11.54-1.77,35.46-10.64,35.46-10.64l2.75,4.67Z" fill="#263238"/>
        <path d="m563.62,219.03s0,.57.12,1.6c.11,1.02.29,2.5.53,4.33.48,3.65,1.24,8.68,2.23,14.21.99,5.53,2.02,10.51,2.83,14.1.4,1.8.75,3.24,1,4.24.25,1,.41,1.55.45,1.54.03,0-.06-.57-.25-1.58-.22-1.1-.5-2.54-.84-4.27-.72-3.61-1.69-8.59-2.68-14.12-.99-5.52-1.8-10.54-2.38-14.17-.28-1.75-.51-3.2-.69-4.3-.17-1.01-.28-1.57-.31-1.57Z" fill="#455a64"/>
        <path d="m570.69,218.74s-.03-.25-.39-.4c-.34-.15-.88-.19-1.51-.05-.31.07-.65.18-.99.4-.35.23-.6.65-.68,1.1-.16.89.25,1.95,1.13,2.52.86.56,1.98.62,2.76.12.39-.24.66-.65.76-1.03.11-.38.12-.75.07-1.07-.09-.65-.38-1.13-.67-1.36-.29-.24-.5-.25-.5-.23-.02.04.16.12.36.37.2.24.41.68.45,1.25.04.55-.11,1.31-.72,1.66-.61.36-1.53.31-2.23-.15-.71-.45-1.05-1.31-.95-2.01.05-.35.21-.65.46-.83.26-.19.56-.31.83-.4.56-.17,1.04-.19,1.35-.11.31.07.41.24.45.21Z" fill="#455a64"/>
        <path d="m558.02,254.09c-.04.07.9.66,2.4,1.64,1.5.98,3.55,2.36,5.75,3.98,2.2,1.62,4.12,3.17,5.5,4.32,1.38,1.14,2.23,1.86,2.28,1.8.05-.05-.71-.86-2.04-2.08-1.32-1.22-3.22-2.82-5.43-4.46-2.21-1.63-4.31-2.97-5.86-3.87-1.55-.91-2.56-1.39-2.59-1.33Z" fill="#455a64"/>
        <path d="m608.18,329.3s.31.04.86.03c.55-.01,1.34-.07,2.32-.18,1.95-.22,4.64-.71,7.51-1.61,2.87-.9,5.36-2.03,7.09-2.97.87-.47,1.55-.87,2.01-1.18.46-.3.71-.48.69-.51-.04-.07-1.1.52-2.86,1.36-1.76.85-4.24,1.91-7.08,2.8-2.84.89-5.48,1.43-7.41,1.74-1.93.31-3.13.43-3.13.51Z" fill="#455a64"/>
        <path d="m611.54,327.19c.02.06.8-.13,2.03-.54,1.23-.41,2.9-1.05,4.7-1.86,1.8-.81,3.39-1.64,4.51-2.29,1.12-.65,1.78-1.1,1.75-1.16-.07-.13-2.89,1.37-6.47,2.98-3.58,1.62-6.57,2.73-6.52,2.87Z" fill="#455a64"/>
      </g>
      <g>
        <path d="m549.39,391.06l-.1,20.64s-21.02,6.83-21.41,10.64l40.01,1.64,1.48-32.15-19.99-.76Z" fill="#263238"/>
        <path d="m561.73,410.48c.77.24,1.27,1.14,1.05,1.91-.21.78-1.11,1.29-1.89,1.06-.77-.23-1.4-1.28-1.1-2.03.3-.75,1.39-1.29,2.08-.89" fill="#e0e0e0"/>
        <path d="m567.9,423.98l.02-3.25-38.37-.36s-1.81.7-1.66,1.97l40.01,1.64Z" fill="#455a64"/>
        <path d="m548.65,411.47c0,.2.97.32,1.91.99.95.64,1.41,1.51,1.6,1.44.18-.03-.06-1.21-1.21-2-1.14-.8-2.33-.61-2.3-.43Z" fill="#fff"/>
        <path d="m544.38,413.04c-.05.19.78.55,1.41,1.41.65.83.79,1.74.98,1.73.18.04.36-1.1-.44-2.15-.79-1.05-1.94-1.18-1.95-1Z" fill="#fff"/>
        <path d="m541.79,417.96c.18.05.49-.92.03-2.01-.45-1.09-1.35-1.55-1.44-1.39-.12.16.45.75.81,1.66.38.89.41,1.72.6,1.75Z" fill="#fff"/>
        <path d="m549.19,406.77c.07.18.98-.05,2.08.07,1.1.1,1.95.5,2.06.34.12-.14-.69-.89-1.99-1.02-1.3-.13-2.24.45-2.15.61Z" fill="#fff"/>
      </g>
      <g>
        <path d="m643.89,388.9l7.67,23.77,11.48,17.05c.83,1.23.44,2.9-.84,3.64h0c-.72.42-1.59.46-2.34.12-4.8-2.2-22.42-10.38-22.88-12.15-.54-2.05-9.75-24.53-9.75-24.53l16.66-7.89Z" fill="#263238"/>
        <path d="m662.2,433.36l-25.78-13.63.35,1c.3.86.89,1.6,1.68,2.06,2.11,1.24,8.01,4.53,21.33,10.71.78.36,1.68.31,2.41-.14h0Z" fill="#455a64"/>
        <g fill="none" opacity=".6">
          <path d="m638.62,410.44c.73.2,1.24,1.03,1.06,1.77-.17.74-1.01,1.26-1.75,1.07-.74-.19-1.37-1.16-1.12-1.88.25-.72,1.27-1.27,1.94-.91" fill="#fff"/>
        </g>
        <path d="m653.22,424.93c.16.02.26-1.4,1.43-2.55,1.14-1.19,2.56-1.31,2.53-1.46,0-.06-.36-.14-.94-.03-.57.11-1.35.46-1.98,1.11-.64.65-.98,1.42-1.08,2-.11.58-.02.94.04.94Z" fill="#fff"/>
        <path d="m656,427.5c.15.06.64-.97,1.74-1.74,1.08-.8,2.21-.94,2.2-1.1.03-.14-1.28-.25-2.52.65-1.25.89-1.56,2.17-1.42,2.19Z" fill="#fff"/>
        <path d="m648.69,421.97c.15.07.9-1.52,2.5-2.87,1.58-1.38,3.26-1.87,3.21-2.03,0-.14-1.87.14-3.57,1.62-1.71,1.46-2.28,3.26-2.14,3.28Z" fill="#fff"/>
        <path d="m645.75,414.94c.11.12,1.23-.88,2.9-1.53,1.67-.67,3.16-.71,3.16-.88.02-.14-1.57-.35-3.36.37-1.8.7-2.81,1.96-2.7,2.04Z" fill="#fff"/>
        <path d="m643.33,408.02c.12.11,1.16-1.13,2.98-1.67,1.81-.58,3.36-.14,3.4-.3.02-.06-.34-.27-.99-.39-.65-.13-1.59-.13-2.57.17-.98.3-1.76.84-2.22,1.31-.47.47-.65.85-.6.89Z" fill="#fff"/>
        <path d="m645.8,405.04s-.03-.35-.28-.9c-.25-.55-.71-1.34-1.52-2.09-.41-.35-.87-.82-1.64-.9-.38-.04-.85.19-1.02.6-.17.4-.12.82,0,1.19.55,1.49,2.33,2.49,4.09,2.12,1.76-.4,2.95-1.9,3.17-3.43.03-.39-.01-.83-.33-1.17-.32-.34-.85-.33-1.17-.16-.66.35-.97.91-1.27,1.35-.59.94-.85,1.8-.97,2.39-.12.6-.11.94-.08.94.1.03.19-1.37,1.37-3.12.31-.42.65-.93,1.14-1.15.24-.11.48-.09.64.08.16.16.21.47.17.78-.2,1.25-1.29,2.62-2.78,2.94-1.48.33-3.05-.55-3.5-1.75-.1-.29-.13-.61-.03-.83.09-.22.31-.35.56-.34.52.03,1,.41,1.4.74,1.6,1.39,1.96,2.76,2.06,2.7Z" fill="#fff"/>
      </g>
      <g>
        <polygon points="518.27 154.32 527.81 164.17 528.2 172.76 517.13 175.3 516.56 175.3 515.85 169.77 509.46 161.28 518.27 154.32" fill="#ae7461"/>
        <g>
          <path d="m508.06,147.19c-10.61,11.33-25,17.85-40.51,18.35-15.51.51-30.29-5.06-41.62-15.67h0c-23.38-21.9-24.59-58.75-2.69-82.13,10.61-11.33,25-17.85,40.51-18.35,15.51-.51,30.29,5.06,41.62,15.67,9.2,8.61,14.96,19.54,17.24,31.05,3.52,17.75-1.27,36.9-14.55,51.08Zm-79.47-.15c10.57,9.9,24.36,15.09,38.83,14.62,14.47-.47,27.9-6.55,37.79-17.12,9.9-10.57,15.09-24.36,14.62-38.83-.47-14.47-6.55-27.9-17.12-37.8-10.57-9.9-24.36-15.09-38.83-14.62-14.47.47-27.9,6.55-37.8,17.12-12.4,13.24-16.86,31.1-13.58,47.66,2.13,10.74,7.51,20.93,16.09,28.97Z" fill="#455a64"/>
          <path d="m508.06,147.19c-10.61,11.33-25,17.85-40.51,18.35-15.51.51-30.29-5.06-41.62-15.67h0c-23.38-21.9-24.59-58.75-2.69-82.13,10.61-11.33,25-17.85,40.51-18.35,15.51-.51,30.29,5.06,41.62,15.67,9.2,8.61,14.96,19.54,17.24,31.05,3.52,17.75-1.27,36.9-14.55,51.08Zm-79.47-.15c10.57,9.9,24.36,15.09,38.83,14.62,14.47-.47,27.9-6.55,37.79-17.12,9.9-10.57,15.09-24.36,14.62-38.83-.47-14.47-6.55-27.9-17.12-37.8-10.57-9.9-24.36-15.09-38.83-14.62-14.47.47-27.9,6.55-37.8,17.12-12.4,13.24-16.86,31.1-13.58,47.66,2.13,10.74,7.51,20.93,16.09,28.97Z" fill="#263238"/>
          <path d="m509.49,144.39c-10.61,11.33-25,17.85-40.51,18.35-15.51.51-30.29-5.06-41.62-15.67h0c-23.38-21.9-24.59-58.75-2.69-82.13,10.61-11.33,25-17.85,40.51-18.35,15.51-.51,30.29,5.06,41.62,15.67,9.2,8.61,14.96,19.54,17.24,31.05,3.52,17.75-1.27,36.9-14.55,51.08Zm-79.47-.15c10.57,9.9,24.36,15.09,38.83,14.62,14.47-.47,27.9-6.55,37.79-17.12,9.9-10.57,15.09-24.36,14.62-38.83-.47-14.47-6.55-27.9-17.12-37.8-10.57-9.9-24.36-15.09-38.83-14.62-14.47.47-27.9,6.55-37.8,17.12-12.4,13.24-16.86,31.1-13.58,47.66,2.13,10.74,7.51,20.93,16.09,28.97Z" fill="#455a64"/>
        </g>
        <path d="m574,217.74l1.85-1.79c1.65-1.6.72-5.24-1.01-7.01l-64.91-67.1-8.68,8.4,64.82,67c2.19,2.15,5.81,2.56,7.93.51Z" fill="#455a64"/>
        <g>
          <path d="m514.17,149.93c-.31-.29-.91-.47-1.31-.35-.4.12-.73.42-1.03.72-2.11,2.14-3.34,5.13-3.34,8.14,0,1.29.34,2.77,1.49,3.36l1.3-.75c.4-.52,1.61-1.39,1.77-2.03.67-2.7-.29-2.58,1.4-7.26.17-.46.35-1.23-.27-1.82Z" fill="#ae7461"/>
          <path d="m513.86,153.75c.37-.64.78-1.26,1.29-1.7.52-.44,1.16-.69,1.72-.51.9.28,1.34,1.58,1.24,2.78-.1,1.2-.62,2.34-1.12,3.43-1.07,2.32-2.14,4.63-3.21,6.95l-.62-.46c-.44.43-1.09.21-1.39-.31-.3-.52-.33-1.22-.31-1.89.09-2.89.98-5.83,2.39-8.29Z" fill="#ae7461"/>
          <path d="m515.43,160.68c.74-1.63,1.97-2.99,3.21-4.3.43-.46.89-.92,1.49-1.13.6-.21,1.38-.06,1.68.49.28.53.03,1.17-.23,1.71-1.61,3.35-3.45,6.59-5.52,9.69l-1.92-1.93c-.87-1.57.55-2.89,1.29-4.52Z" fill="#ae7461"/>
        </g>
        <g>
          <g>
            <g>
              <path d="m567.22,182.12l-1.76-.37-9.21-7.85-5.04-4.23c-.42-.35-.93-.59-1.48-.68l-4.99-.83s-.78,2.17,1.49,3.42l2.73,1.41,2.5,2.96-.32.64s-16.4,2.54-17.42,3.79c-1.02,1.25,0,2.39.45,2.62.45.23,1.25.11,1.25.11,0,0-.8,1.93,1.59,3.52,0,0-1.82,2.39,1.36,3.53,0,0,.91,1.82,2.73,2.39,1.82.57,11.6,1.71,12.62,1.71s11.75.02,11.75.02l2.36.39-.64-12.53Z" fill="#ae7461"/>
              <path d="m535.06,183.13c-.01.13,2.02.41,4.53.24,2.51-.18,4.5-.54,4.49-.67-.01-.15-2.04-.03-4.52.15-2.47.17-4.49.12-4.5.27Z" fill="#6f4439"/>
              <path d="m537.03,186.63c0,.07.43.13,1.11.22.68.09,1.63.22,2.7.28,1.08.07,2.04-.03,2.72-.06.69-.05,1.1-.04,1.12-.1.02-.07-.42-.22-1.11-.26-.7-.07-1.66-.02-2.69-.09-1.04-.06-2-.14-2.7-.13-.7,0-1.13.07-1.13.14Z" fill="#6f4439"/>
              <path d="m538.07,190.08c-.01.14,1.97.41,4.42.59,1.23.08,2.31.17,3.03.47.72.27,1.05.66,1.12.6.05-.02-.2-.54-.97-.93-.75-.42-1.92-.58-3.14-.65-2.45-.19-4.45-.22-4.46-.08Z" fill="#6f4439"/>
            </g>
            <g>
              <path d="m591.72,131.47s6.93,1.2,12.18,11.52c2.9,5.71,16.48,40.03,17.28,43.04,3.44,12.88-3.22,21.18-9.64,21.74-7.06.62-43.59-11.16-43.59-11.16l-.81-15.61,33.32,5.06-16.01-31.07s-.61-20.69,7.25-23.52Z" fill="#efc037"/>
              <path d="m611.67,194.59s-.17-.87-.9-2.08c-.71-1.21-2-2.73-3.75-3.98-1.76-1.25-3.61-1.97-4.99-2.25-1.38-.29-2.26-.22-2.26-.17,0,.09.85.15,2.17.52,1.32.36,3.07,1.11,4.77,2.32,1.69,1.22,2.97,2.63,3.74,3.76.78,1.12,1.12,1.92,1.2,1.88Z" fill="#263238"/>
            </g>
          </g>
          <path d="m602.4,206.44s-.06,0-.17-.02c-.14-.03-.3-.06-.5-.11-.44-.09-1.08-.28-1.92-.51-1.67-.48-4.09-1.22-7.14-2.2-6.1-1.95-14.72-4.79-24.86-8.22l-.15-.05v-.16c-.24-4.49-.5-9.39-.77-14.49l-.02-.32.32.05c2.63.43,5.39.87,8.2,1.33,9.04,1.47,17.59,2.87,25.13,4.1l-.25.34c-4.53-8.87-8.35-16.36-11.07-21.66-1.32-2.62-2.37-4.7-3.1-6.16-.34-.69-.61-1.24-.8-1.64-.18-.37-.27-.57-.25-.58.01,0,.12.18.32.54.21.39.5.93.87,1.61.76,1.45,1.85,3.5,3.22,6.1,2.75,5.28,6.63,12.74,11.23,21.58l.22.41-.46-.07c-7.54-1.21-16.09-2.59-25.13-4.05-2.81-.46-5.57-.9-8.2-1.33l.3-.27c.26,5.11.5,10,.72,14.49l-.16-.21c10.11,3.43,18.7,6.33,24.79,8.4,3.02.99,5.41,1.77,7.09,2.32.83.25,1.46.47,1.89.58.2.06.36.11.49.14.11.03.16.06.16.06Z" fill="#263238"/>
          <path d="m593.2,132.1c.05.08-.94.65-2.32,1.84-1.38,1.18-3.09,3.07-4.43,5.5-1.32,2.44-1.97,4.91-2.21,6.71-.25,1.81-.19,2.95-.28,2.95-.04,0-.08-.28-.12-.8-.05-.52-.05-1.27.03-2.2.07-.93.27-2.02.6-3.21.35-1.18.84-2.45,1.52-3.71.69-1.25,1.48-2.35,2.28-3.29.82-.92,1.63-1.69,2.37-2.25.73-.57,1.36-.98,1.82-1.22.46-.25.72-.37.73-.34Z" fill="#263238"/>
        </g>
      </g>
    </g>
    <g>
      <path d="m208.96,153.12s-7.36,40.96-7.01,44.79c.36,3.83,2.31,9.92,6.76,10.97,4.44,1.04,8.53,0,8.53,0l-5.33-50.31-2.95-5.45Z" fill="#ffbe9d"/>
      <g>
        <g>
          <path d="m230.46,118.14l-.52-42.32c-.47-10.52,5.26-19.57,15.79-19.75l.97.04c9.81.41,17.66,8.27,18.04,18.08.36,9.12.64,19.21.37,24.09-.54,10.09-10.71,11.25-10.71,11.25-.02,0-.06,6.14-.06,9.11l-8.13,11.28v.6s-15.78-12.37-15.78-12.37Z" fill="#ffbe9d"/>
          <path d="m254.42,109.51s-6.38.11-12.99-4.43c0,0,2.85,7.72,12.97,7.23l.02-2.8Z" fill="#eb996e"/>
          <path d="m261.54,82.89c0,.76-.65,1.39-1.45,1.4-.8,0-1.44-.6-1.43-1.36,0-.76.65-1.39,1.45-1.4.8,0,1.44.6,1.43,1.36Z" fill="#263238"/>
          <path d="m262.43,78.55c-.19.18-1.25-.67-2.8-.73-1.55-.08-2.72.67-2.88.47-.08-.09.12-.42.63-.76.5-.34,1.35-.65,2.32-.61.97.05,1.76.43,2.22.82.46.39.61.73.52.81Z" fill="#263238"/>
          <path d="m247.68,82.89c0,.76-.65,1.39-1.45,1.4-.8,0-1.44-.6-1.43-1.36,0-.76.65-1.39,1.45-1.4.8-.01,1.44.6,1.43,1.36Z" fill="#263238"/>
          <path d="m247.2,78.28c-.19.18-1.25-.67-2.8-.73-1.55-.08-2.72.67-2.88.47-.08-.09.12-.42.63-.76.5-.34,1.35-.65,2.32-.61.97.05,1.77.44,2.22.82.46.39.61.73.52.81Z" fill="#263238"/>
          <path d="m252.27,90.44c0-.09.97-.22,2.54-.35.4-.02.78-.09.85-.36.1-.28-.04-.72-.22-1.19-.33-.97-.68-2-1.05-3.07-1.45-4.36-2.48-7.95-2.31-8,.18-.06,1.49,3.43,2.94,7.8.35,1.08.68,2.1,1,3.08.13.46.37.98.14,1.56-.12.29-.42.49-.68.55-.26.07-.48.06-.68.07-1.58.02-2.55-.01-2.56-.1Z" fill="#263238"/>
          <path d="m247.9,73.45c-.23.39-1.72-.09-3.55-.21-1.83-.15-3.37.11-3.54-.31-.07-.2.25-.54.91-.84.65-.29,1.65-.51,2.75-.43,1.1.08,2.05.43,2.65.82.61.39.88.77.78.96Z" fill="#263238"/>
          <path d="m262.69,73.99c-.33.34-1.59-.06-3.11-.11-1.52-.1-2.81.16-3.1-.21-.12-.18.09-.53.66-.85.56-.32,1.5-.57,2.54-.51,1.04.06,1.94.4,2.46.77.53.38.69.74.55.91Z" fill="#263238"/>
          <path d="m230.46,83.32c-.17-.08-6.85-2.34-6.92,4.57-.06,6.91,6.89,5.55,6.9,5.35.01-.2.02-9.93.02-9.93Z" fill="#ffbe9d"/>
          <path d="m228.36,90.61s-.12.08-.33.17c-.2.09-.54.15-.9,0-.73-.27-1.33-1.44-1.35-2.69-.01-.63.13-1.23.35-1.72.22-.5.55-.85.91-.92.37-.08.63.14.71.34.09.19.05.33.08.34.02.02.15-.11.1-.4-.03-.14-.11-.3-.27-.44-.16-.14-.41-.21-.66-.18-.53.03-1.02.52-1.27,1.06-.28.54-.45,1.22-.44,1.92.03,1.39.73,2.7,1.73,3,.49.13.89-.01,1.1-.17.22-.17.25-.32.23-.34Z" fill="#eb996e"/>
          <path d="m247.4,91.4c.24-.01.25,1.57,1.61,2.69,1.36,1.12,3.05.94,3.07,1.16.02.1-.38.31-1.09.33-.7.03-1.72-.19-2.56-.88-.83-.69-1.19-1.61-1.25-2.26-.06-.66.11-1.06.22-1.05Z" fill="#263238"/>
        </g>
        <g>
          <path d="m278.71,65.08c-.11-.41-.4-.75-.76-.97-.79-.48-1.7-.42-2.58-.45-2.19-.06-4.36-.65-6.31-1.66.69-.34,1.33-.75,1.87-1.28,1.13-1.1,1.79-2.8,1.3-4.3-.09-.28-.25-.58-.53-.67-.45-.14-.85.29-1.16.64-1.04,1.14-2,1.62-3.53,1.45-.95-.11-1.87-.33-2.62-.81-.03-.03-.06-.07-.09-.1-.36-.38-.7-.73-1.04-1.08,0,0,0,0,0,0h0c-2.57-2.61-4.79-4.42-7.08-5.37-3.36-1.4-9-2.01-12.53-1.13-3.53.88-6.72,3.7-7.25,7.3-1.95-1.69-4.92-1.71-7.33-.77l-.06-.03c-2.69.92-4.24,3.73-5.06,6.46-.04.15-.08.3-.13.45-.92,1.42-2.17,2.64-3.64,3.48-.26.15-.56.33-.59.63-.03.29.21.54.45.72.64.47,1.38.78,2.16.92-.25.65-.55,1.27-.91,1.87-.31.51-.67,1.12-.42,1.65.2.41.72.59,1.18.53.46-.06.86-.31,1.25-.55-.31.71-.61,1.42-.92,2.13.97.18,1.97.11,2.91-.16.54,2.56.91,7.29,1.55,9.03,1.83.05,2.28-.14,3.21.18,1.19.41.71,2.52,2.28,1.94.8-.3,2.05-3.29,2.32-4.09,1.82-5.34,2.47-11.08,1.9-16.69,1.12-1.17,2.47-2.12,3.95-2.78l-.12.11c2.84-.95,6.05-1.88,8.71-.52,2.07,1.05,3.27,3.23,4.8,4.97,2.91,3.3,6.23,5.08,10.62,5.32.36,3.06.42,8.05.54,10.9l2.5-5.67v.02c.2-.33.37-.67.53-1l.06-.1h0c.26-.55.5-1.09.82-1.62,0,0,.02.02.03.02,1.53,1.38,3.83-.68,2.63-2.35-.24-.33-.52-.63-.85-.87.7.67,1.75,1,2.67.73.93-.27,1.66-1.2,1.59-2.17-.05-.66-.51-1.25-1.1-1.52,1.25.11,2.52-.15,3.62-.75.72-.4,1.42-1.06,1.19-1.96Z" fill="#263238"/>
          <path d="m239.56,57.85s-.43.26-1.03.92c-.59.65-1.26,1.79-1.59,3.34-.17.77-.28,1.64-.29,2.57-.01.93.05,1.93.11,2.98.06,1.05.12,2.16.04,3.32-.04.58-.12,1.16-.25,1.75-.13.57-.29,1.2-.73,1.69-.35.4-.93.57-1.43.46-.5-.1-.95-.37-1.28-.74-.64-.77-.79-1.73-.95-2.58l.21.03c-.36.76-.72,1.51-1.26,2.11-.53.6-1.25.99-1.98,1.05-.36.03-.73-.03-1.04-.19-.32-.16-.55-.43-.7-.71-.15-.29-.22-.6-.2-.9.02-.3.14-.58.33-.78l.11.1c-.79.88-1.62,1.35-2.19,1.61-.29.13-.52.21-.68.25-.16.04-.24.06-.24.06,0,0,.08-.04.23-.09.15-.06.38-.15.66-.29.56-.28,1.36-.76,2.12-1.63l.11.1c-.34.36-.37.99-.08,1.5.14.25.35.49.63.63.28.14.61.19.94.16.67-.06,1.35-.43,1.84-1,.5-.57.86-1.3,1.21-2.06l.15-.32.06.35c.15.85.31,1.78.9,2.47.29.33.7.58,1.14.66.44.09.91-.05,1.22-.39.39-.42.55-1.02.68-1.58.13-.57.2-1.14.25-1.71.08-1.14.03-2.24-.02-3.29-.05-1.05-.11-2.06-.09-3,.02-.94.14-1.82.32-2.6.35-1.57,1.06-2.72,1.69-3.37.63-.65,1.09-.85,1.09-.85Z" fill="#455a64"/>
          <path d="m270.75,68.06s-.03.03-.08.07c-.07.05-.15.11-.25.18-.11.08-.25.18-.43.27-.18.1-.38.22-.62.32-.94.44-2.46.86-4.34.73-1.86-.13-4.1-.81-6.08-2.32-2-1.48-3.75-3.64-5.18-6.11-.72-1.23-1.31-2.5-1.96-3.66-.64-1.17-1.36-2.25-2.23-3.11-.86-.86-1.86-1.5-2.9-1.8-.52-.16-1.04-.2-1.54-.19-.5.02-.97.12-1.41.25-.88.28-1.58.76-2.12,1.25-.54.49-.91,1.02-1.16,1.47-.47.92-.5,1.52-.54,1.51,0,0,0-.04,0-.11.01-.08.03-.19.05-.31.05-.27.17-.66.4-1.14.24-.46.61-1.01,1.15-1.52.54-.51,1.26-1.01,2.16-1.31.45-.15.94-.25,1.46-.28.52-.01,1.06.03,1.6.19,1.08.3,2.11.96,2.99,1.84.89.87,1.62,1.97,2.28,3.15.66,1.18,1.24,2.44,1.96,3.66,1.41,2.45,3.14,4.59,5.1,6.05,1.95,1.5,4.13,2.19,5.96,2.33,1.85.15,3.35-.24,4.29-.65.95-.41,1.41-.78,1.42-.75Z" fill="#455a64"/>
          <path d="m271.72,63.62s-.12.1-.37.25c-.24.15-.61.34-1.08.53-.47.2-1.05.39-1.71.54-.66.14-1.4.24-2.18.26-.78.01-1.52-.06-2.19-.17-.66-.13-1.25-.29-1.73-.47-.48-.18-.85-.35-1.1-.49-.25-.14-.38-.22-.38-.23.02-.04.58.25,1.53.56.48.16,1.06.3,1.71.41.65.1,1.38.16,2.15.15.76-.02,1.49-.11,2.14-.24.65-.14,1.22-.3,1.69-.48.94-.35,1.49-.67,1.51-.63Z" fill="#455a64"/>
        </g>
      </g>
      <g>
        <g>
          <g>
            <g>
              <path d="m245.26,384.87l-1,22.86s22.9,8.69,23.12,12.93l-44.39-.35.1-35.68,22.17.23Z" fill="#455a64"/>
              <path d="m230.55,405.7c-.86.23-1.46,1.19-1.27,2.06.19.87,1.16,1.49,2.03,1.28.86-.21,1.62-1.34,1.33-2.19-.29-.84-1.47-1.51-2.26-1.09" fill="#e0e0e0"/>
              <g fill="none" opacity=".6">
                <path d="m223,420.32l.15-3.6,42.5,1.68s1.97.88,1.74,2.27l-44.39-.35Z" fill="#fff"/>
              </g>
              <path d="m244.98,407.51c0,.22-1.09.31-2.17,1-1.09.66-1.65,1.6-1.85,1.51-.2-.04.13-1.34,1.45-2.15,1.3-.82,2.61-.55,2.56-.36Z" fill="#263238"/>
              <path d="m249.62,409.47c.05.21-.89.57-1.64,1.48-.77.89-.96,1.88-1.18,1.87-.2.03-.34-1.24.6-2.35.94-1.12,2.21-1.2,2.21-1Z" fill="#263238"/>
              <path d="m252.22,415.06c-.2.04-.49-1.04.08-2.22.56-1.19,1.58-1.65,1.67-1.47.12.18-.54.81-.99,1.79-.47.97-.54,1.88-.76,1.9Z" fill="#263238"/>
              <path d="m244.63,402.28c-.09.2-1.08-.11-2.31-.04-1.23.05-2.18.45-2.3.27-.12-.16.81-.95,2.26-1.02,1.44-.08,2.46.62,2.35.79Z" fill="#263238"/>
            </g>
            <path d="m245.2,402.02c.11,0,.13,2.12.06,5.5l-.18-.27c2.59.98,6.04,2.31,9.7,4.04,4.01,1.88,7.54,3.83,9.84,5.66,1.15.9,2,1.76,2.43,2.48.46.71.4,1.26.33,1.23-.03,0-.07-.45-.57-1.07-.48-.62-1.35-1.39-2.51-2.22-2.32-1.68-5.85-3.55-9.83-5.41-3.64-1.72-7.05-3.1-9.59-4.19l-.19-.08v-.19c.21-3.38.4-5.49.51-5.48Z" fill="#263238"/>
          </g>
          <g>
            <path d="m216.56,225.5v20.71l8.17,66.15s-2.59,31.02-4.18,48.53c-1.38,15.21.88,41.69.88,41.69h24.23l8.67-88.32,5.38-55.08,9.76-32.63-52.9-1.05Z" fill="#263238"/>
            <g>
              <path d="m259.5,380.91l-6.35,21.98s20.21,13.83,19.43,18.01l-43.06-10.77,8.48-34.65,21.49,5.44Z" fill="#455a64"/>
              <path d="m240.31,397.69c-.89.02-1.7.81-1.72,1.7-.02.89.78,1.72,1.67,1.72.89,0,1.89-.93,1.81-1.81-.08-.89-1.07-1.81-1.94-1.59" fill="#e0e0e0"/>
              <g fill="none" opacity=".6">
                <path d="m229.53,410.12l.99-3.46,40.92,11.62s1.71,1.31,1.15,2.61l-43.06-10.77Z" fill="#fff"/>
              </g>
              <path d="m253.91,402.84c-.06.21-1.13.04-2.34.46-1.21.39-1.98,1.16-2.15,1.03-.18-.09.44-1.27,1.91-1.75,1.46-.49,2.67.08,2.58.26Z" fill="#263238"/>
              <path d="m257.96,405.84c0,.22-1,.35-1.94,1.06-.96.68-1.38,1.6-1.59,1.54-.21-.02-.04-1.28,1.14-2.15,1.17-.87,2.43-.65,2.39-.45Z" fill="#263238"/>
              <path d="m259.17,411.89c-.2,0-.23-1.13.6-2.14.82-1.02,1.93-1.23,1.97-1.03.08.2-.72.66-1.38,1.51-.69.83-.97,1.7-1.18,1.67Z" fill="#263238"/>
              <path d="m254.8,397.68c-.14.17-1.03-.36-2.24-.58-1.2-.24-2.23-.07-2.29-.28-.08-.18,1.01-.73,2.43-.46,1.42.26,2.24,1.18,2.1,1.32Z" fill="#263238"/>
            </g>
            <polygon points="278.81 226.91 279.92 238.18 278.58 319.98 259.41 385.7 254.76 401.64 230.02 396.97 249.09 226.93 278.81 226.91" fill="#263238"/>
          </g>
        </g>
        <path d="m278.06,321.7s-.03.13-.09.39c-.07.27-.18.64-.31,1.14-.29,1.01-.7,2.49-1.25,4.4-1.11,3.85-2.72,9.46-4.75,16.52-4.1,14.15-9.9,34.14-16.69,57.55l-.05.19-.19-.04c-7.82-1.47-16.14-3.03-24.75-4.65l-.23-.04.04-.23c1.26-6.67,2.58-13.64,3.93-20.74,4-21.04,7.77-40.89,11.06-58.23v.07c-4.1-25.73-7.37-46.24-9.24-58.02v.03c-1.79-3.27-3.18-5.8-4.12-7.52-.46-.85-.81-1.49-1.05-1.94-.23-.44-.34-.67-.34-.67,0,0,.14.21.39.64.25.44.62,1.08,1.1,1.92.96,1.71,2.38,4.22,4.21,7.47h0s0,.03,0,.03c1.92,11.77,5.27,32.28,9.46,57.99v.04s0,.04,0,.04c-3.28,17.35-7.03,37.2-11.01,58.24-1.35,7.1-2.67,14.07-3.93,20.74l-.18-.27c8.61,1.63,16.92,3.2,24.74,4.67l-.25.15c6.86-23.4,12.71-43.37,16.85-57.51,2.08-7.05,3.73-12.64,4.87-16.49.57-1.9,1.01-3.37,1.31-4.38.15-.49.27-.86.35-1.13.08-.25.13-.38.13-.38Z" fill="#455a64"/>
        <path d="m274.37,233.62s-.4.84-1.35,1.98c-.95,1.14-2.46,2.57-4.39,3.75-1.94,1.18-3.9,1.87-5.35,2.19-1.45.32-2.37.34-2.37.29-.05-.16,3.67-.52,7.48-2.88,3.84-2.3,5.87-5.44,5.98-5.33Z" fill="#455a64"/>
      </g>
      <g>
        <g>
          <path d="m327.1,110.18c.31-.46.23-1.12-.23-1.44-.12-.08-.25-.13-.37-.11-.5.08-1.8,1.03-2.8,1.05-1,.02-2.71-.29-3.72.64-1,.93-3.45,6.04-3.76,7.15-.31,1.11-1.4,10.86-1.4,10.86l12.28-18.15Z" fill="#ffbe9d"/>
          <path d="m331.34,108.9c-.05.06-12.01,5.34-17.26,7.65-1.17.52-1.43,2.03-.51,2.93h0c.57.55,1.43.69,2.14.33l17.16-8.36,1.41-2.15-2.94-.41Z" fill="#263238"/>
          <path d="m318.68,119.66l3.81-2.81,5.03-7.3s2.06-1.22,3.13-.45c1.07.77,1.42,1.66.92,2.66,0,0,2.84.68,3.05,1.63.2.95-.41,3.27-.41,3.27,0,0,.42,1.78.02,2.72-.4.94-.36,1.76-.36,1.76,0,0,1.84,2.25,1.05,4.56-.79,2.3-4.11,7.45-5.89,8.78-1.78,1.33-5.14,2.92-5.14,2.92l-2.2,4.6-9.12-8.25,6.1-14.08Z" fill="#ffbe9d"/>
          <path d="m327.36,109.86s-.07.15-.23.39c-.18.28-.41.62-.68,1.03-.58.87-1.39,2.06-2.3,3.37-.46.65-.89,1.27-1.29,1.84-.2.28-.42.54-.65.75-.24.21-.49.36-.73.47-.48.23-.9.33-1.18.4-.29.07-.44.09-.45.08,0-.01.15-.06.43-.15.28-.09.68-.21,1.14-.44.98-.41,1.64-1.79,2.58-3.06.91-1.31,1.74-2.49,2.34-3.34.29-.4.53-.73.73-1,.18-.23.28-.36.29-.35Z" fill="#eb996e"/>
          <path d="m328.53,117.46s.61-1.31,1.47-2.87c.86-1.56,1.59-2.81,1.63-2.78s-.61,1.31-1.47,2.87c-.86,1.56-1.59,2.81-1.63,2.78Z" fill="#eb996e"/>
          <path d="m329.73,122.02s-.04-.16-.14-.4c-.09-.24-.28-.55-.59-.76-.31-.22-.67-.29-.92-.29-.25,0-.41.03-.42,0,0-.02.14-.11.42-.14.27-.03.68.03,1.03.27.36.25.55.61.61.88.07.27.03.44.01.44Z" fill="#eb996e"/>
          <path d="m333.97,123.39s-.16-.09-.38-.26c-.22-.17-.52-.41-.89-.58-.37-.17-.75-.22-1.01-.16-.26.05-.35.21-.38.19-.03,0,.04-.22.34-.32.29-.1.72-.06,1.12.12.41.19.7.46.9.65.2.2.31.34.29.36Z" fill="#eb996e"/>
          <path d="m332.33,119.55s.33-.7.84-1.49c.5-.8.95-1.42.99-1.39.04.03-.33.7-.84,1.49-.5.8-.95,1.42-.99,1.39Z" fill="#eb996e"/>
          <path d="m325.02,119.88s-.03-.16-.09-.39c-.07-.23-.23-.53-.52-.74-.29-.21-.62-.27-.86-.27-.24,0-.39.05-.4.02,0-.02.13-.12.39-.15.26-.04.64,0,.98.25.33.24.49.6.53.86.04.26-.01.42-.03.42Z" fill="#eb996e"/>
          <path d="m315.05,119.86s.16-.17.33-.48c.16-.31.28-.82.09-1.32-.2-.5-.62-.81-.95-.94-.33-.14-.56-.13-.56-.16,0-.02.24-.07.61.04.36.11.85.43,1.08,1,.22.57.06,1.14-.15,1.46-.21.33-.44.44-.44.42Z" fill="#455a64"/>
        </g>
        <g>
          <path d="m283,142.93l14.46,12.38,17.75-26.52,11.54,6.81s-17.3,39.82-21.99,43.34c-4.69,3.52-8.64,2.61-14.68-.18-6.03-2.79-27.52-24.42-27.52-24.42l20.43-11.41Z" fill="#ffbe9d"/>
          <path d="m297.97,166.31c-.14-.02.25-2.52.08-5.61-.15-3.09-.81-5.53-.67-5.57.11-.04.98,2.39,1.14,5.55.18,3.15-.43,5.67-.54,5.64Z" fill="#eb996e"/>
        </g>
      </g>
      <g>
        <path d="m223.98,122.68s12.29.18,12.47,15.5c.18,15.32-3.13,35.82-3.13,35.82l-31.38-5.53s3.89-28.52,7.22-36.74c3.34-8.27,9.73-10.44,14.82-9.05Z" fill="#b10043"/>
        <path d="m229.81,111.65l-.39,2.5s-16.77,11.08-17.72,13.94c-1.47,4.43,1.74,41.89,3.15,52.51,1.42,10.62,1.7,34.01,1.7,34.01-1.03,2.76-2.2,5.24-2.59,9.09-.38,3.81,2.59,7.29,2.59,7.29,17.99,5.87,39.97,1.36,63.75-4.06l-.22-6.74-7.77-73.23s2.26-19.03-7.02-24.54c-1.02-.61-9.12-5.21-9.12-5.21l-26.36-5.56Z" fill="#b10043"/>
        <g fill="none" opacity=".3">
          <path d="m256.78,143.39s-.14,10.54,5.53,22.59c5.67,12.05,14.11,19.58,14.11,19.58l-2.52-21.91-17.12-20.25Z"/>
        </g>
        <g>
          <path d="m270.86,124.91c-2.94-2.38-8.41-3.67-11.53-1.53-1.39.95-3.01,2.39-3.79,4.66-2.66,7.79-1.07,16.16,1.06,22.37,2.13,6.21,12.43,18.18,12.43,18.18l25.44-15.44s-17.03-20.64-18.8-22.77c-.93-1.11-3.18-4.15-4.81-5.47Z" fill="#b10043"/>
          <path d="m270.86,124.91s.2.13.54.43c.34.3.82.77,1.4,1.43,1.18,1.3,2.73,3.32,4.83,5.79,4.16,5,10.04,12.08,17.01,20.46l.16.19-.21.13c-7.2,4.38-15.39,9.36-24.04,14.62-.48.29-.95.58-1.39.84l-.17.1-.13-.15c-2.84-3.36-5.49-6.74-7.86-10.14-1.18-1.7-2.29-3.41-3.25-5.17-.47-.88-.91-1.77-1.25-2.7-.34-.92-.61-1.84-.88-2.76-2.12-7.31-2.18-14.47-.24-19.93.46-1.39,1.29-2.55,2.23-3.45.95-.88,1.95-1.66,3.07-2.01,1.1-.36,2.19-.43,3.17-.38.98.05,1.86.23,2.63.45,1.55.43,2.65,1.04,3.37,1.49.71.45,1.02.77,1.02.77-.02.03-.35-.27-1.07-.69-.72-.42-1.83-1-3.36-1.39-.76-.21-1.64-.36-2.6-.4-.96-.04-2.02.04-3.07.4-1.06.34-2.02,1.11-2.94,1.98-.91.89-1.69,2.01-2.13,3.35-1.87,5.39-1.79,12.47.34,19.71.27.9.54,1.82.88,2.73.34.89.76,1.77,1.23,2.64.94,1.73,2.05,3.43,3.23,5.12,2.36,3.38,5.01,6.75,7.84,10.1l-.3-.05c.44-.27.92-.56,1.39-.85,8.66-5.25,16.86-10.21,24.06-14.58l-.05.31c-6.92-8.43-12.75-15.54-16.88-20.57-2.07-2.49-3.6-4.55-4.74-5.86-.57-.66-1.03-1.15-1.35-1.46-.32-.32-.5-.47-.49-.48Z" fill="#263238"/>
        </g>
        <path d="m211.37,136.57s.04.15.07.44c.03.35.07.77.12,1.28.09,1.18.2,2.77.34,4.7.26,4.04.6,9.5.99,15.53.4,6.06.81,11.55,1.17,15.51.18,1.93.33,3.51.44,4.69.04.51.08.93.11,1.28.02.29.02.45,0,.45-.02,0-.05-.15-.1-.44-.05-.34-.12-.76-.2-1.27-.16-1.1-.37-2.7-.58-4.68-.44-3.96-.91-9.45-1.31-15.51-.39-6.06-.67-11.56-.85-15.54-.08-1.94-.14-3.53-.19-4.71-.01-.51-.02-.94-.03-1.28,0-.29,0-.45.02-.45Z" fill="#263238"/>
        <path d="m267.63,225.5s-.16.07-.47.15c-.36.09-.82.2-1.37.33-.6.15-1.33.3-2.19.46-.86.17-1.83.36-2.92.52-2.16.37-4.76.67-7.65.96-2.89.24-6.08.42-9.43.46-3.35.02-6.54-.09-9.44-.28-2.89-.23-5.5-.5-7.66-.85-1.09-.15-2.06-.33-2.92-.49-.86-.15-1.59-.3-2.19-.45-.55-.13-1.01-.24-1.37-.33-.31-.08-.48-.13-.47-.15,0-.02.17,0,.49.05.37.06.83.15,1.39.24.6.12,1.34.24,2.2.37.86.14,1.83.3,2.92.42,2.17.31,4.76.54,7.65.75,2.89.17,6.07.27,9.4.25,3.34-.04,6.51-.21,9.4-.42,2.88-.26,5.47-.52,7.64-.85,1.09-.14,2.06-.31,2.92-.45.86-.14,1.6-.26,2.2-.38.56-.1,1.02-.18,1.39-.25.32-.05.49-.07.49-.06Z" fill="#263238"/>
      </g>
    </g>
    <g>
      <g>
        <path d="m77.23,68.61c-3.52-.69-7.25.44-10.16,2.54-2.04,1.47-3.76,3.45-4.65,5.8-.88,2.35-.86,5.1.35,7.3,1.24,2.28,3.58,3.77,6,4.72,2.03.8,4.22,1.28,6.38.99,2.16-.29,4.27-1.43,5.37-3.31l4.16-8.79c0-5.64-3.92-8.57-7.45-9.26Z" fill="#263238"/>
        <path d="m116.5,79.55h0c-7.25-9.18-20.19-11.86-30.29-5.96-1.04.61-2.02,1.26-2.95,1.95-6.5,4.79-10.15,13.08-9.68,21.14.47,8.06,4.92,15.72,11.46,20.46l31.64-7.71c1.98-5.36,2.84-10.5,3.47-16.99.06-.67.1-1.54.08-2.49-.07-3.78-1.4-7.43-3.74-10.4Z" fill="#263238"/>
        <g>
          <path d="m81.22,92.42c.37-5.23,3.75-9.52,8.83-10.81l15.83-4.04c6.84-.74,11.41,7.68,11.86,14.54.5,7.63.8,15.68-.09,21.38-1.79,11.45-10.56,12.93-10.56,12.93,0-.02,0,5.45,0,8.79l.16,14.55-22.54-16.21-3.53-41c0-.2.02.12.04-.14Z" fill="#ffbe9d"/>
          <path d="m115.63,101.32c.03.78-.6,1.44-1.41,1.48-.81.05-1.49-.54-1.52-1.32-.03-.78.6-1.44,1.41-1.49.81-.05,1.49.55,1.52,1.32Z" fill="#263238"/>
          <path d="m115.79,96.83c-.18.19-1.3-.63-2.88-.62-1.58-.02-2.74.8-2.91.61-.08-.09.1-.43.6-.8.5-.37,1.34-.73,2.33-.72.98,0,1.81.36,2.29.73.49.37.65.72.56.8Z" fill="#263238"/>
          <path d="m102,101.32c.03.78-.6,1.44-1.41,1.48-.81.04-1.49-.55-1.52-1.32-.03-.78.6-1.44,1.41-1.49.81-.05,1.49.55,1.52,1.32Z" fill="#263238"/>
          <path d="m101.09,97.12c-.18.19-1.3-.63-2.88-.62-1.58-.02-2.74.8-2.91.61-.08-.09.1-.43.6-.8.5-.37,1.34-.73,2.33-.72.98,0,1.81.36,2.29.73.49.37.65.72.56.8Z" fill="#263238"/>
          <path d="m105.96,109.01c0-.09.97-.26,2.57-.47.4-.04.78-.12.85-.4.09-.29-.08-.73-.27-1.2-.38-.98-.78-2-1.2-3.07-1.67-4.37-2.87-7.96-2.7-8.03.18-.07,1.67,3.42,3.34,7.79.4,1.08.78,2.1,1.15,3.09.15.46.42.98.21,1.58-.11.3-.4.52-.66.59-.26.08-.49.08-.68.1-1.6.09-2.59.1-2.6,0Z" fill="#263238"/>
          <path d="m91.91,122.34s3.73,7.86,15.18,6.77v-2.69s-7.54.5-15.18-4.07Z" fill="#eb996e"/>
          <path d="m100.53,90.89c-.15.43-1.73.23-3.59.46-1.86.19-3.35.74-3.6.35-.11-.18.15-.59.75-1.01.6-.42,1.55-.81,2.67-.94,1.11-.12,2.13.05,2.81.32.68.27,1.02.61.96.81Z" fill="#263238"/>
          <path d="m114.13,91.11c-.28.36-1.37-.01-2.68-.03-1.31-.06-2.42.25-2.67-.13-.11-.18.06-.54.55-.88.48-.34,1.27-.62,2.17-.59.9.03,1.68.35,2.14.72.46.37.62.74.49.91Z" fill="#263238"/>
          <g>
            <path d="m82.79,100.72c-.12-.33-6.09-2.48-6.17,3.86-.08,6.17,6.15,4.95,6.16,4.78.01-.18.01-8.64.01-8.64Z" fill="#ffbe9d"/>
            <path d="m80.89,107s-.11.07-.29.16c-.18.08-.48.13-.8,0-.65-.25-1.19-1.28-1.21-2.4-.01-.56.11-1.09.32-1.53.19-.45.49-.76.82-.82.33-.07.56.13.63.3.08.17.04.3.07.31.02.02.13-.1.09-.36-.02-.12-.1-.27-.24-.39-.15-.12-.36-.19-.59-.16-.48.03-.91.46-1.13.95-.25.49-.4,1.08-.39,1.72.03,1.24.65,2.41,1.54,2.68.43.12.8-.01.98-.15.19-.15.23-.29.2-.3Z" fill="#eb996e"/>
          </g>
          <g>
            <path d="m80.19,108.09c-.6-.11-1.25.31-1.4.9-.15.59.23,1.27.81,1.45.58.19,1.28-.15,1.5-.72.22-.57-.07-1.29-.62-1.54" fill="#fff"/>
            <path d="m80.48,108.18s.4.21.55.83c.07.29.03.68-.24.97-.26.28-.73.46-1.15.33-.42-.14-.7-.55-.75-.93-.06-.39.14-.73.36-.93.48-.41.94-.3.93-.35,0-.02-.09-.06-.29-.07-.19,0-.49.05-.77.27-.28.2-.55.62-.49,1.11.05.47.37.99.92,1.17.56.17,1.12-.06,1.43-.43.33-.37.35-.87.24-1.19-.11-.34-.31-.56-.47-.66-.16-.11-.27-.13-.27-.11Z" fill="#263238"/>
          </g>
        </g>
        <g>
          <path d="m99.96,111.72c.38-.67,1.1-1.05,1.85-1.1,1.08-.08,2,.26,2.74,1.23.25.28.26,1.09.17,1.32-.09.23-.02.12-.19.28-.61.58-1.26,1.17-2.06,1.39-.8.23-1.81,0-2.37-.77-.5-.69-.52-1.67-.14-2.35Z" fill="#eb996e"/>
          <path d="m100.2,109.57c.25-.03.33,1.67,1.84,2.81,1.51,1.14,3.31.87,3.33,1.11.03.11-.39.35-1.15.4-.75.06-1.85-.13-2.78-.83-.92-.7-1.35-1.67-1.44-2.36-.1-.71.07-1.14.19-1.13Z" fill="#263238"/>
        </g>
        <path d="m108.86,76.7c-.39-.69-1.28-.88-2.07-.96-10.95-1.19-22.37,3.73-29.02,12.51l1.76,10.66c-.75,1.33,2.76,3.99,4.27,3.9,1.52-.1,2.7-1.43,3.24-2.85,1.06-2.78.45-6.35,2.63-8.38,1.23-1.15,2.99-1.43,4.63-1.79,3.12-.69,6.18-1.85,8.78-3.71s4.73-4.46,5.74-7.49c.2-.62.35-1.32.04-1.89Z" fill="#263238"/>
        <path d="m75.92,105.87s-.26-.38-.6-1.12c-.34-.74-.78-1.85-1.16-3.26-.79-2.8-1.26-6.95-.31-11.35.95-4.4,3.09-7.98,4.97-10.21.94-1.13,1.79-1.95,2.41-2.49.62-.53.99-.79,1.01-.77.07.07-1.35,1.2-3.13,3.48-1.78,2.25-3.82,5.79-4.75,10.1-.93,4.31-.53,8.37.16,11.16.68,2.81,1.51,4.42,1.42,4.46Z" fill="#455a64"/>
      </g>
      <g>
        <g>
          <polygon points="83.63 387.79 87.26 419.09 100.97 417 101.9 386.15 83.63 387.79" fill="#263238"/>
          <g>
            <path d="m101.02,410.79s-9.21,7.81-14.34,2.07l-.26-.94-4.79,25.49c-.26,1.39.47,2.85,1.79,3.26,1.02.32,2.09.01,2.78-.77,3.72-4.2,17.35-20.39,17.35-20.39l-.54-4.08c-.09-1.07-1.12-3.33-2-4.64h0Z" fill="#263238"/>
            <path d="m103.13,416.45l-19.22,24.33c.88.13,1.78-.2,2.38-.88,10.29-11.72,17.27-20.39,17.27-20.39l-.43-3.06Z" fill="#e0e0e0"/>
            <path d="m89.1,428.69c-.14.08-.82-1.27-2.42-1.91-1.58-.69-3-.2-3.04-.37-.03-.06.29-.3.89-.43.6-.14,1.49-.11,2.36.25.88.37,1.53.98,1.86,1.51.34.53.41.92.34.94Z" fill="#455a64"/>
            <path d="m87.48,432.4c-.12.12-1.01-.68-2.39-.98-1.37-.33-2.51.02-2.57-.15-.08-.13,1.13-.79,2.69-.43,1.56.35,2.39,1.47,2.26,1.55Z" fill="#455a64"/>
            <path d="m92.25,423.85c-.11.14-1.48-1.11-3.58-1.76-2.09-.69-3.91-.46-3.93-.64-.05-.14,1.86-.65,4.1.08,2.25.71,3.53,2.24,3.41,2.32Z" fill="#455a64"/>
            <path d="m92.25,417.4c-.06.16-1.54-.34-3.42-.28-1.88.04-3.33.64-3.4.48-.08-.13,1.37-1.01,3.39-1.07,2.02-.07,3.51.73,3.43.86Z" fill="#263238"/>
          </g>
        </g>
        <g>
          <path d="m137.98,412.45c-.32-.48-3.19-10.96-3.19-10.96l17.76-4.83,2.52,15.1-17.08.69Z" fill="#263238"/>
          <g>
            <path d="m154.32,407.32l.6,2.66s19.54,7.96,19.79,11.84l-38.62.28.48-14.22c5.76,2.75,11.15,2.28,17.75-.56Z" fill="#263238"/>
            <path d="m136.1,422.11l.1-3.25,36.98.92s1.72.77,1.54,2.05l-38.62.28Z" fill="#e0e0e0"/>
            <path d="m155.06,410.1c0,.2-.95.29-1.87.94-.94.62-1.41,1.48-1.59,1.4-.17-.04.1-1.22,1.23-1.98,1.12-.77,2.27-.54,2.23-.36Z" fill="#455a64"/>
            <path d="m159.12,411.83c.04.19-.77.53-1.41,1.38-.66.82-.81,1.73-1,1.72-.18.03-.32-1.13.49-2.16.8-1.04,1.91-1.13,1.91-.94Z" fill="#455a64"/>
            <path d="m161.45,416.91c-.17.04-.44-.94.04-2.03.47-1.09,1.36-1.53,1.44-1.36.11.16-.46.75-.84,1.65-.4.89-.45,1.73-.63,1.75Z" fill="#455a64"/>
          </g>
        </g>
        <g>
          <path d="m125.94,223.17s9.8,43.94,18.09,94.6c6.81,41.67,9.83,86.78,9.83,86.78l-20.06,1.18s-12.23-51.68-21.75-88.83c-8.78-34.26-15.92-52.24-15.92-52.24l-4.02-45.21,33.84,3.71Z" fill="#263238"/>
          <path d="m70.58,214.42s-17.6,23.79-16.12,48.62c.89,14.86,30.97,146.88,30.97,146.88l17.82-.61-5.7-140.24,6.03-45.91-33.01-8.74Z" fill="#263238"/>
        </g>
      </g>
      <path d="m124.6,150.4s.05.25.09.74c.04.54.09,1.25.16,2.12.14,1.84.24,4.51.3,7.82.12,6.61-.19,15.74-.85,25.79-.66,10.05-1.23,19.15-1.35,25.75-.07,3.3-.1,5.97-.07,7.81,0,.88,0,1.58,0,2.13,0,.49-.02.74-.04.74-.02,0-.05-.25-.08-.74-.03-.54-.06-1.25-.11-2.12-.09-1.85-.13-4.52-.11-7.82.02-6.61.53-15.73,1.19-25.78.66-10.05,1.03-19.15,1.01-25.75-.01-3.3-.05-5.97-.12-7.81-.02-.88-.04-1.58-.05-2.12,0-.49,0-.74.02-.74Z" fill="#263238"/>
      <g>
        <g>
          <g>
            <path d="m183.56,151.69l-10.73,3.94-11.72,15.87,3.2,5.55,3.17-2.97s12.07-2.25,12.93-3.97c.86-1.72-.12-3.19-.12-3.19,0,0,.51-1.88.1-3.35-.41-1.46-1.52-1.67-1.52-1.67,0,0,1.32-.55.76-2.23-.57-1.69-1.74-2.01-1.74-2.01,0,0,7.2-3.43,7.84-4.4.22-.34.14-.67-.07-.97-.48-.66-1.34-.88-2.09-.61Z" fill="#ffbe9d"/>
            <path d="m159.27,168.19l2.17-3.04,4.68-8.49,10.43-2.81s1.76.82-.67,3.93c-2.43,3.11-5.82,2.48-5.82,2.48,0,0,.74,6.77-1.1,9.79-1.84,3.02-6.81,3.29-6.81,3.29l-2.87-5.15Z" fill="#ffbe9d"/>
            <path d="m169.07,170.53s.2-.21.46-.67c.26-.45.59-1.15.86-2.07.56-1.8.79-4.61-.29-7.39l-.16.3c.12-.02.25-.04.37-.06,1.42-.23,2.8-.54,3.94-1.15,1.15-.59,1.98-1.55,2.38-2.47.42-.92.45-1.79.33-2.34-.11-.55-.3-.81-.31-.8-.04.02.09.3.15.83.06.53-.01,1.32-.44,2.17-.42.85-1.18,1.7-2.28,2.24-1.09.56-2.42.85-3.83,1.08-.13.02-.25.04-.37.06l-.27.04.1.26c1.03,2.66.87,5.36.4,7.14-.46,1.81-1.1,2.78-1.03,2.82Z" fill="#eb996e"/>
            <path d="m178.58,162.24s-.38.14-1.07.38c-.68.26-1.68.58-2.91,1.06-.61.24-1.28.52-1.95.97-.33.22-.69.51-.87.98-.18.47-.06,1.03.2,1.43.26.41.64.74,1.1.94.46.22,1.01.18,1.47.08.23-.04.46-.09.69-.12.25-.04.49-.1.73-.17.48-.14.94-.31,1.41-.49.43-.17.85-.33,1.24-.49l-.14-.42c-.92.33-1.66.87-2.38,1.35-.36.24-.71.48-1.05.72-.33.23-.7.4-1.03.69-.33.27-.59.7-.59,1.17,0,.23.08.47.22.65.14.18.32.28.5.36.69.27,1.36.31,1.96.27,1.2-.11,2.09-.48,2.7-.72.6-.25.93-.42.92-.45-.01-.03-.35.09-.97.29-.62.19-1.52.51-2.66.57-.56.02-1.21-.04-1.81-.29-.29-.13-.5-.36-.49-.68,0-.32.18-.63.47-.86.27-.23.65-.41,1-.64.35-.23.7-.47,1.06-.71.72-.48,1.46-1,2.28-1.29l-.14-.42c-.4.16-.82.32-1.25.49-.46.18-.92.35-1.37.49-.23.07-.45.13-.67.16-.24.03-.48.08-.71.13-.45.09-.87.12-1.24-.05-.38-.16-.71-.44-.92-.77-.22-.33-.3-.73-.18-1.06.12-.34.41-.6.71-.81.62-.43,1.27-.72,1.86-.98,1.2-.51,2.19-.88,2.86-1.19.67-.3,1.02-.52,1.01-.55Z" fill="#eb996e"/>
            <path d="m177.77,157.75s-.89.16-2.22.78c-.66.31-1.43.73-2.23,1.27-.4.27-.81.58-1.23.91-.39.33-.92.73-1,1.47-.03.36.14.72.38.93.23.22.53.35.81.4.56.1,1.07.03,1.55-.02.96-.13,1.79-.34,2.49-.54,1.4-.39,2.21-.82,2.18-.87-.02-.05-.85.26-2.25.57-.7.16-1.53.33-2.46.44-.46.05-.96.09-1.42,0-.45-.07-.87-.43-.84-.87.04-.44.45-.84.83-1.15.4-.33.8-.64,1.18-.91.78-.55,1.51-.99,2.15-1.33,1.27-.68,2.11-.99,2.08-1.06Z" fill="#eb996e"/>
          </g>
          <path d="m139.42,177l-10.76-34.51c-.99-3.16-3.39-5.62-6.44-6.57l-6.57-1.49,7.27,56.02,1.63,4.2c3.85,8.57,12.26,7.12,19.69,3.34.27-.14.53-.28.78-.42l21.72-17.5-7.18-12.94-20.12,9.87Z" fill="#455a64"/>
          <path d="m137.02,186.85c.13,0,.18-2.3.91-5,.71-2.71,1.82-4.7,1.7-4.76-.08-.07-1.38,1.87-2.11,4.64-.75,2.77-.6,5.13-.5,5.12Z" fill="#263238"/>
        </g>
        <g>
          <path d="m71.88,152.33l7.27,67.88,40.29,2.96,3.21-2.74-1.12-51.26-14.47-36.51h0c-1.72,3.27-5.02,4.37-9,4.07-2.71-.21-5.29-1.26-7.49-2.84l-6.66-4.79-12.04,23.24Z" fill="#5ca3de"/>
          <g>
            <path d="m83.92,129.09l-4.91,5.34-23.06,5.52,13.49,65.25-10.28,25.25c-1.08,2.66-1.98,5.39-2.69,8.17l-6.33,24.77s21.8,5.93,27.41,2.7c5.61-3.24,12.46-34.74,14.54-42.22,2.08-7.48,5.19-29.71,3.74-41.55-1.45-11.84-5.15-25.12-6.39-31.14-1.25-6.02-5.52-22.08-5.52-22.08Z" fill="#455a64"/>
            <path d="m60.11,197.28l5.18-20.16-9.35-37.17s-4.37,3.12-7.27,14.53c-3.04,11.95-13.2,44.84-12.57,52.53.62,7.69,41.24,21.63,41.24,21.63l1.66-21.4-18.9-9.96Z" fill="#455a64"/>
            <path d="m107.09,127.96l3.17,4.92,13.24,3.35s3.48,17.44,3.48,22.21-1.97,57.74-1.97,60.24,9.56,36.35,8.72,38.43c-.83,2.08-10.8,3.53-10.8,3.53,0,0-3.74-29.29-3.74-39.26s-.42-34.48-2.49-46.53c-2.08-12.05-9.56-41.96-9.56-41.96l-.06-4.92Z" fill="#455a64"/>
            <path d="m119.42,226.94s-.02-.08-.02-.25c0-.2,0-.43,0-.73,0-.68.02-1.62.04-2.8.06-2.48.14-5.98.23-10.29.2-8.68.55-20.68.77-33.93.02-1.66.04-3.29.02-4.9,0-1.6-.17-3.18-.29-4.74-.25-3.12-.5-6.12-.79-8.97-.29-2.85-.62-5.56-1.04-8.07-.42-2.51-1.15-4.76-1.94-6.78-1.58-4.03-3.22-7.15-4.35-9.29-.56-1.04-1.01-1.86-1.34-2.45-.14-.26-.26-.47-.35-.64-.08-.15-.11-.22-.11-.23,0,0,.06.06.15.2.11.16.24.37.39.61.34.54.83,1.35,1.43,2.41,1.19,2.12,2.88,5.22,4.52,9.26.81,2.02,1.58,4.31,2.02,6.84.45,2.52.79,5.24,1.1,8.1.3,2.86.56,5.87.82,8.98.12,1.55.3,3.14.3,4.77.02,1.62,0,3.26-.02,4.92-.22,13.26-.63,25.25-.93,33.93-.17,4.31-.31,7.81-.4,10.28-.06,1.18-.11,2.11-.14,2.79-.02.29-.04.53-.05.73-.01.16-.03.25-.04.25Z" fill="#263238"/>
            <path d="m94.8,207s-.06-.26-.12-.75c-.05-.49-.12-1.22-.18-2.15-.12-1.87-.24-4.59-.18-7.95.03-1.68.1-3.52.23-5.49.08-1.94-.29-4.01-.78-6.16-1.08-4.29-2.81-8.88-4.78-13.62-2-4.74-4.07-9.18-5.99-13.22-.93-2.02-1.95-3.9-2.56-5.82-.62-1.9-1.02-3.7-1.35-5.35-.67-3.3-1.03-5.99-1.26-7.85-.11-.93-.19-1.66-.23-2.15-.04-.49-.05-.75-.04-.75.02,0,.07.25.14.74.08.54.19,1.25.33,2.13.3,1.85.72,4.53,1.43,7.81.36,1.64.78,3.43,1.41,5.29.61,1.86,1.64,3.73,2.58,5.75,1.94,4.02,4.03,8.47,6.04,13.22,1.98,4.76,3.69,9.37,4.76,13.7.48,2.18.85,4.28.74,6.3-.15,1.96-.25,3.79-.3,5.47-.11,3.35-.04,6.06.01,7.93.03.9.06,1.61.08,2.16.02.49.03.75,0,.75Z" fill="#263238"/>
            <path d="m154.39,205.36l-11.34,15.33c-.47.64-1.27.95-2.05.8l-49.06-9.27c-1.22-.23-1.97-1.49-1.58-2.67l5.29-16.29c.32-.99,1.32-1.58,2.34-1.39l55.11,10.24c1.5.28,2.19,2.03,1.28,3.26Z" fill="#263238"/>
            <path d="m48.68,198.62s.51-.66,1.65-1.33c1.13-.67,2.9-1.34,4.94-1.37,2.04-.03,3.83.59,4.97,1.23,1.16.64,1.72,1.24,1.68,1.29-.05.07-.69-.42-1.85-.95-1.15-.53-2.86-1.06-4.8-1.04-1.93.03-3.63.6-4.76,1.17-1.14.56-1.77,1.07-1.83,1Z" fill="#263238"/>
            <g fill="none" opacity=".3">
              <polygon points="60.29 227.69 79.67 234.82 81.69 226.78 90.87 228.63 92.11 223.99 77.7 221.97 77.56 228.63 62.5 222.95 60.29 227.69"/>
            </g>
            <g>
              <path d="m78.88,208.95s3.88-3.28,5.08-4.01c1.2-.74,5.26-3.42,7.11-3.14l1.85.28-1.66,4.89s14.86-2.22,16.9.18c2.03,2.4-2.22,2.86-4.43,3.14-2.22.28-9.33,1.48-9.33,1.48,0,0,18.57-2.03,19.86,0,1.29,2.03-1.8,2.49-1.8,2.49l-12.3,4.89-1.41.55-1.41,1.85s-5.05,3.51-6.62,3.05c-1.57-.46-13-2.63-13-2.63l1.18-13.02Z" fill="#ffbe9d"/>
              <path d="m91.79,217.34c-.02-.07,1.08-.43,2.88-.88,1.8-.45,4.32-.97,7.13-1.37,2.81-.39,5.38-.58,7.24-.64,1.86-.06,3.01-.02,3.01.05,0,.08-1.14.16-2.99.32-1.84.16-4.39.41-7.18.8-2.79.39-5.31.85-7.13,1.21-1.82.35-2.94.59-2.96.51Z" fill="#eb996e"/>
              <path d="m93.48,220.92c-.04-.14,1.15-.57,2.66-.97,1.51-.39,2.76-.59,2.79-.45.04.14-1.15.57-2.66.97-1.51.39-2.76.59-2.79.45Z" fill="#eb996e"/>
            </g>
            <path d="m126.65,151.17s.05.23.09.68c.04.5.09,1.15.15,1.96.13,1.7.22,4.17.28,7.22.11,6.11-.17,14.54-.78,23.83-.61,9.29-1.13,17.7-1.25,23.79-.07,3.05-.09,5.51-.07,7.22,0,.81,0,1.46,0,1.96,0,.45-.02.69-.04.69-.02,0-.04-.23-.07-.68-.02-.5-.06-1.15-.1-1.96-.09-1.7-.12-4.18-.1-7.23.02-6.11.49-14.53,1.1-23.82.61-9.28.95-17.7.94-23.79-.01-3.05-.04-5.51-.11-7.22-.02-.81-.03-1.46-.05-1.96,0-.45,0-.69.02-.69Z" fill="#263238"/>
            <path d="m66.78,174.99s-.07-.49-.09-1.37c-.01-.88-.07-2.15-.18-3.71-.21-3.13-.78-7.44-2-12.06-1.24-4.62-2.9-8.64-4.28-11.45-.69-1.41-1.27-2.54-1.7-3.3-.42-.77-.64-1.21-.61-1.23.03-.02.31.38.78,1.12.48.74,1.12,1.84,1.86,3.24,1.47,2.79,3.21,6.82,4.46,11.48,1.24,4.66,1.75,9.02,1.87,12.17.06,1.58.06,2.85,0,3.73-.04.88-.08,1.37-.12,1.37Z" fill="#263238"/>
          </g>
        </g>
      </g>
    </g>
  </g>
</svg>