<?xml version="1.0" encoding="UTF-8"?>
<svg id="Layer_2" data-name="Layer 2" xmlns="http://www.w3.org/2000/svg" viewBox="0 0 580.76 432.79">
  <g id="Plant">
    <g>
      <g>
        <rect y="380.34" width="580.76" height=".29" fill="#ebebeb"/>
        <rect x="484.1" y="399.03" width="38.47" height=".29" fill="#ebebeb"/>
        <rect x="374.62" y="402.18" width="10.1" height=".29" fill="#ebebeb"/>
        <rect x="460.64" y="388.24" width="22.29" height=".29" fill="#ebebeb"/>
        <rect x="60.93" y="390.2" width="50.17" height=".29" fill="#ebebeb"/>
        <rect x="121.44" y="390.2" width="7.36" height=".29" fill="#ebebeb"/>
        <rect x="152.71" y="395.1" width="108.81" height=".29" fill="#ebebeb"/>
        <path d="m275.3,328.53H51.01c-3.66,0-6.63-2.97-6.63-6.63V6.63c0-3.66,2.97-6.63,6.63-6.63h224.29c3.65,0,6.63,2.97,6.63,6.63v315.27c0,3.66-2.97,6.63-6.63,6.63ZM51.01.29c-3.5,0-6.34,2.84-6.34,6.34v315.27c0,3.5,2.84,6.34,6.34,6.34h224.29c3.49,0,6.34-2.84,6.34-6.34V6.63c0-3.5-2.84-6.34-6.34-6.34H51.01Z" fill="#ebebeb"/>
        <path d="m526.53,328.53h-224.29c-3.65,0-6.63-2.97-6.63-6.63V6.63c0-3.66,2.97-6.63,6.63-6.63h224.29c3.66,0,6.63,2.97,6.63,6.63v315.27c0,3.66-2.97,6.63-6.63,6.63ZM302.24.29c-3.49,0-6.34,2.84-6.34,6.34v315.27c0,3.5,2.84,6.34,6.34,6.34h224.29c3.5,0,6.34-2.84,6.34-6.34V6.63c0-3.5-2.84-6.34-6.34-6.34h-224.29Z" fill="#ebebeb"/>
      </g>
      <g>
        <g>
          <polygon points="515.23 378.54 515.23 321.26 488.79 321.26 488.79 268.14 485.06 268.14 485.06 298.59 474.9 298.59 474.9 290.17 456.59 290.17 456.59 261.01 453.21 261.01 453.21 225.38 450.49 225.38 450.49 260.37 444.05 260.37 444.05 312.19 431.85 312.19 431.85 260.37 409.82 260.37 409.82 304.19 386.69 304.19 386.69 251.07 382.97 251.07 382.97 281.52 372.8 281.52 372.8 273.1 354.5 273.1 354.5 243.95 351.11 243.95 351.11 208.32 348.4 208.32 348.4 243.3 341.96 243.3 341.96 295.12 329.76 295.12 329.76 243.3 307.73 243.3 307.73 293.43 292.87 293.43 292.87 264.28 289.48 264.28 289.48 228.65 286.77 228.65 286.77 263.63 280.33 263.63 280.33 315.45 268.13 315.45 268.13 263.63 246.1 263.63 246.1 315.45 235.25 315.45 235.25 321.26 216.25 321.26 216.25 268.14 212.52 268.14 212.52 298.59 202.36 298.59 202.36 290.17 184.05 290.17 184.05 261.01 180.66 261.01 180.66 225.38 177.95 225.38 177.95 260.37 172.04 260.37 172.04 257.45 150.01 257.45 150.01 260.37 137.81 260.37 137.81 257.45 131.37 257.45 131.37 222.47 128.66 222.47 128.66 258.1 125.27 258.1 125.27 287.25 106.97 287.25 106.97 295.67 96.8 295.67 96.8 265.22 93.07 265.22 93.07 318.34 66.64 318.34 66.64 378.54 515.23 378.54" fill="#ebebeb"/>
          <circle cx="162.18" cy="82.19" r="32.28" transform="translate(-19.11 68.32) rotate(-22.5)" fill="#fafafa"/>
          <path d="m145.44,81.83c0-3.1-2.51-5.61-5.61-5.61-.56,0-1.1.08-1.61.24.08-.56.13-1.14.13-1.72,0-6.56-5.32-11.88-11.88-11.88-.75,0-1.48.07-2.19.2-1.83-2.99-5.11-4.99-8.87-4.99-5.69,0-10.3,4.57-10.39,10.24-.06,0-.11,0-.17,0-5.29,0-9.57,4.28-9.57,9.57s4.28,9.57,9.57,9.57h35.15,0c3.02-.09,5.45-2.57,5.45-5.61Z" fill="#f0f0f0"/>
          <path d="m498.87,159.57c0-3.1-2.51-5.61-5.61-5.61-.56,0-1.1.08-1.61.24.08-.56.13-1.14.13-1.72,0-6.56-5.32-11.88-11.88-11.88-.75,0-1.48.07-2.19.2-1.83-2.99-5.11-4.99-8.87-4.99-5.69,0-10.3,4.57-10.39,10.24-.06,0-.11,0-.17,0-5.29,0-9.57,4.29-9.57,9.57,0,5.29,4.28,9.57,9.57,9.57h35.15,0c3.02-.09,5.45-2.57,5.45-5.61Z" fill="#f0f0f0"/>
          <path d="m332.7,74.36c0-4.9,3.97-8.88,8.88-8.88.89,0,1.74.13,2.55.38-.13-.89-.2-1.8-.2-2.73,0-10.38,8.42-18.8,18.8-18.8,1.18,0,2.34.11,3.46.32,2.89-4.73,8.08-7.9,14.03-7.9,9,0,16.3,7.23,16.44,16.2.09,0,.18-.01.27-.01,8.36,0,15.14,6.78,15.14,15.14s-6.78,15.14-15.14,15.14h-55.61.01c-4.79-.15-8.63-4.06-8.63-8.88Z" fill="#f0f0f0"/>
          <path d="m168.66,171.02c0-5.9,4.78-10.68,10.68-10.68,1.07,0,2.1.16,3.07.45-.16-1.07-.24-2.17-.24-3.28,0-12.49,10.13-22.62,22.62-22.62,1.42,0,2.82.14,4.17.39,3.48-5.69,9.73-9.5,16.88-9.5,10.83,0,19.62,8.7,19.78,19.5.11,0,.22-.02.33-.02,10.06,0,18.22,8.16,18.22,18.22s-8.16,18.22-18.22,18.22h-66.93s.01-.02.01-.02c-5.76-.16-10.38-4.87-10.38-10.67Z" fill="#f0f0f0"/>
          <path d="m215.83,98.64c0-1.93-1.56-3.49-3.49-3.49-.35,0-.68.05-1,.15.05-.35.08-.71.08-1.07,0-4.08-3.31-7.39-7.39-7.39-.47,0-.92.05-1.36.13-1.14-1.86-3.18-3.1-5.51-3.1-3.54,0-6.41,2.84-6.46,6.37-.04,0-.07,0-.11,0-3.29,0-5.95,2.66-5.95,5.95s2.66,5.95,5.95,5.95h21.85,0c1.88-.06,3.39-1.59,3.39-3.49Z" fill="#f0f0f0"/>
          <path d="m88.79,204.57c0-1.93,1.56-3.49,3.49-3.49.35,0,.68.05,1,.15-.05-.35-.08-.71-.08-1.07,0-4.08,3.31-7.39,7.39-7.39.47,0,.92.04,1.36.13,1.14-1.86,3.18-3.1,5.51-3.1,3.54,0,6.41,2.84,6.46,6.37.04,0,.07,0,.11,0,3.29,0,5.95,2.66,5.95,5.95,0,3.29-2.66,5.95-5.95,5.95h-21.85,0c-1.88-.06-3.39-1.6-3.39-3.49Z" fill="#f0f0f0"/>
          <path d="m415.75,215.95c0-1.93,1.56-3.49,3.49-3.49.35,0,.68.05,1,.15-.05-.35-.08-.71-.08-1.07,0-4.08,3.31-7.39,7.39-7.39.47,0,.92.04,1.36.13,1.14-1.86,3.18-3.1,5.51-3.1,3.54,0,6.41,2.84,6.46,6.37.04,0,.07,0,.11,0,3.29,0,5.95,2.66,5.95,5.95s-2.66,5.95-5.95,5.95h-21.85s0,0,0,0c-1.88-.05-3.39-1.59-3.39-3.48Z" fill="#f0f0f0"/>
        </g>
        <polygon points="453.6 76.43 403.94 152.03 401.76 155.36 397.44 157.37 243.74 228.79 258.94 280.81 262.41 292.7 250.37 302.65 146.68 380.16 60.88 380.16 216.01 274.57 206.61 223.42 204.06 209.49 216.07 203.96 379.87 128.54 433.22 62.55 418.9 59.72 463.89 41.05 461.59 89.71 453.6 76.43" fill="#e0e0e0"/>
      </g>
      <ellipse id="_Path_" data-name="&amp;lt;Path&amp;gt;" cx="290.38" cy="419.64" rx="225.21" ry="13.15" fill="#f5f5f5"/>
      <g>
        <g>
          <polygon points="338.85 263.8 329.97 265.24 333.32 285.8 284.19 315.43 228.2 302.9 224.85 282.34 215.98 283.79 220.45 311.3 287.73 338.57 287.77 338.84 287.97 338.67 288.21 338.76 288.16 338.5 343.33 291.31 338.85 263.8" fill="#263238"/>
          <polygon points="338.85 263.8 329.97 265.24 333.32 285.8 284.19 315.43 228.2 302.9 224.85 282.34 215.98 283.79 220.45 311.3 287.73 338.57 287.77 338.84 287.97 338.67 288.21 338.76 288.16 338.5 343.33 291.31 338.85 263.8" fill="#fff" opacity=".2"/>
          <g>
            <polygon points="347.87 269.83 321.39 269.87 306.08 261.46 363.16 261.38 347.87 269.83" fill="#263238"/>
            <path d="m367.93,262.75l-66.63.1c-1.06,0-1.92-.85-1.92-1.91h0c0-1.06.85-1.92,1.91-1.92l66.63-.1c1.06,0,1.92.85,1.92,1.91h0c0,1.06-.85,1.92-1.91,1.92Z" fill="#263238"/>
          </g>
          <g>
            <polygon points="206.95 288.48 233.43 288.44 248.72 279.99 191.63 280.09 206.95 288.48" fill="#263238"/>
            <path d="m186.86,281.47l66.63-.11c1.06,0,1.91-.86,1.91-1.92h0c0-1.06-.86-1.91-1.92-1.91l-66.63.11c-1.06,0-1.91.86-1.91,1.92h0c0,1.06.86,1.91,1.92,1.91Z" fill="#263238"/>
          </g>
        </g>
        <path d="m300.59,399.19h-30.02v-75.22c0-8.29,6.72-15.01,15.01-15.01h0c8.29,0,15.01,6.72,15.01,15.01v75.22Z" fill="#263238"/>
        <path d="m300.59,399.19h-30.02v-75.22c0-8.29,6.72-15.01,15.01-15.01h0c8.29,0,15.01,6.72,15.01,15.01v75.22Z" fill="#fff" opacity=".3"/>
        <polygon points="316.52 413.7 254.64 413.7 265.3 393.67 305.86 393.67 316.52 413.7" fill="#263238"/>
        <polygon points="316.52 413.7 254.64 413.7 265.3 393.67 305.86 393.67 316.52 413.7" fill="#fff" opacity=".2"/>
        <path d="m247.68,411.36h75.81c3.08,0,5.57,2.5,5.57,5.57v5.55h-86.95v-5.55c0-3.08,2.5-5.57,5.57-5.57Z" fill="#263238"/>
        <circle cx="285.58" cy="325.54" r="5.4" fill="#263238"/>
      </g>
      <g>
        <g>
          <path d="m377.6,40.48h33.37c5.67,0,10.28,4.6,10.28,10.27v29.04c0,5.67-4.6,10.27-10.27,10.27h-13.2l-3.49,9.17-3.49-9.17h-13.2c-5.67,0-10.27-4.6-10.27-10.27v-29.04c0-5.67,4.6-10.27,10.27-10.27Z" fill="#407bff"/>
          <path d="m377.6,40.48h33.37c5.67,0,10.28,4.6,10.28,10.27v29.04c0,5.67-4.6,10.27-10.27,10.27h-13.2l-3.49,9.17-3.49-9.17h-13.2c-5.67,0-10.27-4.6-10.27-10.27v-29.04c0-5.67,4.6-10.27,10.27-10.27Z" fill="#fff" opacity=".7"/>
        </g>
        <path d="m394.28,59.39c-6.7-6.97-14.21-4.1-14.21,2.69s14.21,16.17,14.21,16.17c0,0,14.22-9.39,14.22-16.17s-7.51-9.66-14.22-2.69Z" fill="#b00043"/>
      </g>
      <g>
        <g>
          <path d="m172.37,72.67h-33.37c-5.67,0-10.28,4.6-10.28,10.27v29.04c0,5.67,4.6,10.27,10.27,10.27h13.2l3.49,9.17,3.49-9.17h13.2c5.67,0,10.27-4.6,10.27-10.27v-29.04c0-5.67-4.6-10.27-10.27-10.27Z" fill="#407bff"/>
          <path d="m172.37,72.67h-33.37c-5.67,0-10.28,4.6-10.28,10.27v29.04c0,5.67,4.6,10.27,10.27,10.27h13.2l3.49,9.17,3.49-9.17h13.2c5.67,0,10.27-4.6,10.27-10.27v-29.04c0-5.67-4.6-10.27-10.27-10.27Z" fill="#fff" opacity=".7"/>
        </g>
        <g>
          <circle cx="155.68" cy="97.34" r="16.56" transform="translate(-23.23 138.59) rotate(-45)" fill="#b00043"/>
          <path d="m153.94,104.74c-.45,0-.87-.2-1.16-.54l-6.5-7.66c-.54-.64-.47-1.6.18-2.14.64-.54,1.6-.47,2.14.18l5.34,6.29,8.81-10.38c.54-.64,1.51-.72,2.14-.18.64.54.72,1.5.18,2.14l-9.97,11.75c-.29.34-.71.54-1.16.54Z" fill="#fff"/>
        </g>
      </g>
      <g>
        <g>
          <path d="m352.66,194.75l.39-5.42-6.48-5.06c-.47-.37-1.06-.57-1.66-.57h-4.32c-1.31,0-2.42.94-2.66,2.22l-.87,4.8c-.25,1.37.59,2.7,1.93,3.08l4.06,1.14c.12.03.24.07.35.12,1.05.47,7.23,3.03,9.26-.3Z" fill="#e4897b"/>
          <polygon points="363.35 195.07 350.82 187.8 348.84 195.01 360.41 202.23 363.35 195.07" fill="#e4897b"/>
          <path d="m389,169.6c1.83,4.99-.64,42.32-8.62,47.19-5.38,3.28-27.3-17.85-27.3-17.85l.79-9.63,18.49,10.98c1.11-20.41,0-34.2,6.42-37.34l10.2,6.65Z" fill="#263238"/>
          <path d="m388.34,193.45c-1.25,9.47-3.51,18.89-6.84,22.41-.36.38-.74.7-1.13.93-.74.45-1.8.44-3.07.08-7.93-2.22-24.23-17.93-24.23-17.93l.79-9.63,18.5,10.99c1.1-20.42,0-34.2,6.42-37.34l10.2,6.66c.93,2.51.76,13.21-.65,23.85Z" fill="#fff" opacity=".3"/>
          <path d="m388.34,193.45c-1.25,9.47-3.51,18.89-6.84,22.41-4.54-19.3-.49-37.2-.49-37.2,0,0,3.12,6.31,7.33,14.8Z" opacity=".2"/>
        </g>
        <path d="m450.84,257.22s-29.08-12.76-61.58-.67c0,0-8.44-68.86-8.23-78.38.2-9.52,50.62-9.02,50.62-9.02,0,0,2.55,27.6,6.54,44.14,3.99,16.54,14.17,40.65,12.66,43.93Z" fill="#263238"/>
        <path d="m375,412.2l10.09-.27c.38-.01.71.24.81.61l2.12,8.13c.22.84-.4,1.66-1.27,1.67-3.64.04-8.91-.03-13.49.09-5.35.14-8.75-.12-15.03.05-3.79.1-4.98-3.69-3.41-4.08,7.17-1.77,11.86-1.42,17.97-5.42.66-.44,1.4-.76,2.2-.78Z" fill="#263238"/>
        <path d="m426.36,412.2l10.09-.27c.38-.01.71.24.81.61l2.12,8.13c.22.84-.4,1.66-1.27,1.67-3.64.04-8.91-.03-13.49.09-5.35.14-8.75-.12-15.03.05-3.79.1-4.98-3.69-3.41-4.08,7.17-1.77,11.86-1.42,17.97-5.42.66-.44,1.4-.76,2.2-.78Z" fill="#263238"/>
        <path d="m442.49,227.25c4.85,21.05-3.48,186.59-3.48,186.59h-16.1l-6.88-137.96-25.35,137.96-17.21-1.25c11.25-106.87,21.19-170.67,21.19-170.67l-.02-8.06,47.85-6.6Z" fill="#263238"/>
        <path d="m373.47,412.59l17.21,1.25,19.95-108.6,5.4-29.35,6.88,137.95h16.1s8.34-165.54,3.48-186.58l-47.85,6.6.02,8.06s-9.94,63.8-21.19,170.67Z" fill="#fff" opacity=".2"/>
        <path d="m435.71,202.47c.28,1.33.56,2.63.84,3.89.15.67.3,1.33.45,1.98.32,1.39.64,2.74.95,4.03.16.66.32,1.3.47,1.93,1.86,7.58,3.38,13.08,3.75,15.53-6.96,1.28-33.19,6.13-47.5,8.76-2.18-5.32-4.05-10.41-5.66-15.24-.19-.59-.39-1.17-.57-1.75-.4-1.22-.77-2.42-1.14-3.59-.19-.61-.36-1.21-.55-1.81-.34-1.19-.68-2.37-1-3.52-.17-.64-.35-1.27-.5-1.89-8.24-31.01-4.95-48.81-4.95-48.81,0,0,4.89-2.35,10.79-4.24.78-.26,1.57-.49,2.39-.73,5.25-1.47,14.06-2.89,20.19-3.72,1.29-.17,2.6-.31,3.88-.43.07,0,.13-.01.2-.02,6.49-.58,12.13,4.38,12.48,10.89.35,6.43,1.03,12.73,1.88,18.74.9,6.38,2.01,12.44,3.16,17.97.1.5.2,1.01.31,1.5l.12.54Z" fill="#5ca3de"/>
        <g>
          <path d="m405.63,130.84c.09,6.87,1.28,19.16,6.48,22.26,0,0-10.79,9.22-13.94,9.28-2.21.04-5.28-3.74-5.28-3.74,6.55-3.72,5.29-9.06,3.07-13.78l9.67-14.02Z" fill="#e4897b"/>
          <path d="m401.69,136.56l-5.72,8.29c.53,1.12,1,2.27,1.31,3.42,2.55-1.16,5.56-5.25,5.26-8.24-.15-1.49-.49-2.87-.85-3.48Z" opacity=".2"/>
        </g>
        <g>
          <path d="m398.11,162.4s2.78,2.31,5.94,4.52c3.56-2.61,11.78-9.38,10.53-14.16-.77-1.33-4.62-1.6-4.62-1.6,0,0-3.16,5.9-11.86,11.24Z" fill="#407bff"/>
          <path d="m398.11,162.4s-2.65,2.86-4.12,6.19c-3.17-1.38-3.22-10.65-2.34-11.83,2.04-1.74,4.71-2.11,4.71-2.11,0,0-1.35,4.45,1.75,7.75Z" fill="#407bff"/>
          <g fill="none" opacity=".5">
            <path d="m398.11,162.4s2.78,2.31,5.94,4.52c3.56-2.61,11.78-9.38,10.53-14.16-.77-1.33-4.62-1.6-4.62-1.6,0,0-3.16,5.9-11.86,11.24Z" fill="#fff"/>
            <path d="m398.11,162.4s-2.65,2.86-4.12,6.19c-3.17-1.38-3.22-10.65-2.34-11.83,2.04-1.74,4.71-2.11,4.71-2.11,0,0-1.35,4.45,1.75,7.75Z" fill="#fff"/>
          </g>
        </g>
        <g>
          <path d="m453.53,258.96c-.64,1.7-4.18,2.22-4.18,2.22,1.34-9.7-1.99-17.43-4.69-22.51-6.63-12.45-25.24-26.48-32.27-44.54-.31-.78-.59-1.56-.85-2.35-7.57-23.18,1.9-40.07,1.9-40.07,1.28.16,2.52.34,3.69.53.89.14,1.75.3,2.58.45,8.23,1.54,13.08,3.47,13.08,3.47,0,0,3.24,39.83,6.54,57.8,3.32,17.97,14.83,43.31,14.19,45Z" fill="#263238"/>
          <path d="m453.53,258.96c-.64,1.7-4.18,2.22-4.18,2.22,1.34-9.7-1.99-17.43-4.69-22.51-4.37-8.19-13.92-17.07-21.93-27.33-4.03-5.15-7.68-10.64-10.07-16.57-.1-.21-.19-.43-.27-.64-.31-.78-.59-1.56-.85-2.35-7.57-23.18,1.9-40.07,1.9-40.07,1.28.16,2.52.34,3.69.53.89.14,1.75.3,2.58.45,8.23,1.54,13.08,3.47,13.08,3.47,0,0,.78,9.48,1.94,21.28.44,4.38.93,9.08,1.46,13.74.96,8.49,2.04,16.83,3.14,22.78,3.32,17.97,14.83,43.31,14.19,45Z" fill="#fff" opacity=".3"/>
          <path d="m415.24,171.15s-3.32,12.32-2.86,22.97c-.31-.78-.59-1.56-.85-2.35-7.57-23.18,1.9-40.07,1.9-40.07,1.28.16,2.52.34,3.69.53l1.07,13.08-7.29,1.6,4.33,4.23Z" opacity=".2"/>
        </g>
        <g>
          <path d="m389.05,259.01l1.77,1.16s-3.67-26.35-4.27-61.66c-.03-1.7-.04-3.34-.05-4.91-.08-29.89,4.31-35.53,4.59-35.87l-4.26,1.67-7.72,3.06c-1.16,25.56,9.93,96.55,9.93,96.55Z" fill="#263238"/>
          <path d="m389.05,259.01l1.77,1.16s-3.67-26.35-4.27-61.66c-.03-1.7-.04-3.34-.05-4.91-.08-29.89,4.31-35.53,4.59-35.87l-4.26,1.67-7.72,3.06c-1.16,25.56,9.93,96.55,9.93,96.55Z" fill="#fff" opacity=".3"/>
          <path d="m386.91,168.4l-4.81,3.33s1.95,14.53,4.4,21.88c-.08-29.89,4.31-35.53,4.59-35.87l-4.26,1.67c-1.65,1.74-4.17,4.71-5.54,7.92l5.62,1.07Z" opacity=".2"/>
        </g>
        <path d="m431.84,173.58s.63,5.51,3.31,9.66c-.36-3.47-.7-6.91-1.03-10.19-.71,0-1.48.17-2.28.53Z" opacity=".1"/>
        <path d="m410.64,305.24l5.4-29.35-1.04-15.53s-7.4,26.94-4.36,44.89Z" opacity=".2"/>
        <g>
          <path d="m382.93,118.41c-1.6,3.06-.57,6.96-.11,9.51.46,2.54.76,5.92,3.21,1.73,2.46-4.19,2.61-19.19-3.11-11.24Z" fill="#263238"/>
          <path d="m405.7,125.57c.79,8.65,2.22,9.83-1.44,14.86-5.52,7.56-15.97,10.5-18.85,2.05-2.59-7.6-5.58-21.64,2.31-26.26,7.77-4.56,17.2.7,17.99,9.35Z" fill="#ff8b7b"/>
          <path d="m405.72,131.5c-4.47.84-4.24-1.07-4.07-1.54.74-2.07-1.12-4.45-3.27-7.6-2.14-3.15,3.9-8.69,9.27-8.32,4.95.34,5.53,16.06-1.93,17.46Z" fill="#263238"/>
          <path d="m387.55,138.2s3.25.19,8.91-3.02c-.32,2.06-1.39,3.98-4.81,4.9-3.42.92-4.1-1.88-4.1-1.88Z" fill="#fff"/>
          <path d="m410.49,130.69c-.52,2.19-1.88,3.89-3.3,4.79-2.14,1.35-3.75-.7-3.62-3.35.12-2.39,1.38-5.97,3.75-6.22,2.33-.25,3.77,2.28,3.17,4.78Z" fill="#ff8b7b"/>
          <path d="m387.95,129.43s-.7,3.44-1.83,5.24c1.16.76,2.77.05,2.77.05l-.94-5.29Z" fill="#ff5652"/>
          <path d="m406.97,110.37c-2.39-2.45-17.84-1.48-23.31,1.87-2.82,1.73-2.59,4.51-1.44,5.9,4.06,4.93,8.08.85,8.08.85,5.29-4.73,9.88-.09,9.88-.09l8.23-4.03s.66-2.36-1.43-4.5Z" fill="#263238"/>
          <path d="m395.13,127.47c.12.72-.16,1.36-.63,1.43-.47.07-.95-.45-1.07-1.16-.12-.72.16-1.36.63-1.43.47-.07.95.45,1.07,1.16Z" fill="#263238"/>
          <path d="m387,128.76c.12.72-.16,1.36-.63,1.43-.47.07-.95-.45-1.07-1.16-.12-.72.16-1.36.63-1.43.47-.07.95.45,1.07,1.16Z" fill="#263238"/>
          <path d="m397.2,124.46c-.14.04-.3,0-.42-.1-1.39-1.32-2.93-.98-2.94-.98-.23.05-.46-.09-.52-.32-.06-.23.09-.46.32-.51.08-.02,2.01-.44,3.73,1.2.17.16.18.43.02.6-.05.05-.12.09-.18.11Z" fill="#263238"/>
          <path d="m383.03,126.52c-.08.02-.16.02-.25,0-.23-.07-.36-.31-.29-.53.67-2.26,2.56-2.81,2.64-2.85.23-.07.47.06.53.29.07.23-.06.46-.28.53-.08.02-1.53.47-2.07,2.28-.04.14-.15.24-.28.28Z" fill="#263238"/>
        </g>
        <g>
          <polygon points="360.5 202.09 308.35 195.86 296.87 236.32 306.17 251.44 362.98 256.19 372.37 212.27 360.5 202.09" fill="#263238"/>
          <polygon points="296.87 236.31 300.49 242.21 301.3 243.52 306.17 251.44 362.99 256.19 372.36 212.27 367.3 207.93 365.74 206.59 360.5 202.09 308.35 195.86 296.87 236.31" fill="#fff" opacity=".5"/>
          <polygon points="372.36 212.27 320.78 206.76 308.35 195.86 360.5 202.09 372.36 212.27" fill="#fff" opacity=".4"/>
          <polygon points="320.78 206.76 306.17 251.44 296.87 236.31 308.35 195.86 320.78 206.76" fill="#fff" opacity=".2"/>
          <polygon points="300.49 242.21 301.3 243.52 314.81 201.66 367.3 207.93 365.74 206.59 313.85 200.8 300.49 242.21" fill="#263238"/>
          <polygon points="349.65 204.97 346.92 202.68 333.76 200.93 336.17 203.45 349.65 204.97" fill="#263238"/>
          <path d="m354.73,205.7s-.05-13.71-.47-14.6c-.42-.89-18.9-3.01-20.27-3.21-1.38-.2-6.81,13.38-6.81,13.38l1.12,1.56,3.49.3s3.85-11.69,4.28-11.99c.44-.3,14.67,1.44,15.07,1.73.4.29-.62,10.79-.62,10.79l1.27,1.66,2.93.38Z" fill="#263238"/>
          <g>
            <g>
              <path d="m300.09,230.09l4,4.8.32-1.01,2.56-7.91.31-.95.55-1.69s-1.05,1.3-2.49,2.79c-1.57,1.61-3.6,3.43-5.24,3.98Z" fill="#efc037"/>
              <path d="m301.35,230.4l3.06,3.48,2.56-7.91.31-.95c-1.28,1.72-3.6,4.51-5.92,5.38Z" fill="#fff" opacity=".2"/>
              <path d="m305.33,226.11c.56-.08,1.13-.11,1.64-.14l.85-2.64s-1.05,1.3-2.49,2.79Z" opacity=".2"/>
            </g>
            <path d="m298.21,220.4l-.38,7.05s4.33-2.41,9.2-1.67l.32-.99,1.97-6.13.21-.64s-6.38-.44-11.32,2.38Z" fill="#efc037"/>
            <path d="m304.99,208.16s2.25,4.09,5.62,6.84l.23-.74.61-1.95,1.01-3.25.49-1.58.14-.46s-1.73-2.36-2.62-4.35l-5.47,5.49Z" fill="#efc037"/>
            <path d="m316.43,198.58s1.53,2.24,1.79,3.47l.83.11,1.13.13,1.8.23,1.74.21.62.07s.05-3.71-3.18-7.15l-4.73,2.94Z" fill="#efc037"/>
            <path d="m317.51,198.71s1.14,1.97,1.53,3.45l1.13.13c-.2-.27-.28-.64-.18-1,.18-.65.85-1.03,1.5-.86.65.18,1.03.85.86,1.5-.06.24-.19.44-.36.59l1.74.21c-.21-1.49-.82-4.52-2.56-6.19l-3.64,2.17Z" fill="#fff" opacity=".2"/>
            <path d="m298.69,220.65l-.17,5.71s4.87-1.95,8.82-1.57l1.97-6.13c-2.12-.13-6.59-.1-10.62,1.99Zm6.19-.77c1.1-.13,2.06.45,2.16,1.31.1.86-.71,1.66-1.79,1.79-1.1.13-2.07-.46-2.17-1.31-.1-.86.71-1.66,1.8-1.78Z" fill="#fff" opacity=".2"/>
            <path d="m306,208.44s2.81,4.25,4.84,5.82l.61-1.95c-.81-.25-1.27-1.15-1.03-2.05.25-.91,1.13-1.46,1.96-1.23.02,0,.06.02.08.03l.49-1.58c-.82-.85-1.92-2.19-2.54-3.56l-4.4,4.52Z" fill="#fff" opacity=".2"/>
          </g>
        </g>
        <path d="m436.2,191.18c-3.25,7.63-8.32,17.46-13.47,20.15-4.03-5.15-7.68-10.64-10.07-16.57,2.32-6.05,7.28-18.05,10.92-20.56,2.74-1.88,7.5.64,11.16,3.24.44,4.38.93,9.08,1.46,13.74Z" opacity=".2"/>
        <g>
          <g>
            <path d="m373.04,206.41l-9.14.48,5.45,10.22s7.67-2.14,6.95-6.35l-3.26-4.35Z" fill="#e4897b"/>
            <polygon points="358.24 211.82 363.14 220.05 369.36 217.11 363.91 206.9 358.24 211.82" fill="#e4897b"/>
          </g>
          <polygon points="387.02 204.56 372.31 206.57 373.53 213.63 386.98 212.04 387.02 204.56" fill="#e4897b"/>
          <path d="m432.79,156.16c10.54,6.23-3.4,52.36-11.52,54.96-8.12,2.6-36.21,1.73-36.21,1.73l-1.49-8.93,31.67-4.29s3.28-9.04,5.78-24.66c2.13-13.3,11.76-18.81,11.76-18.81Z" fill="#263238"/>
          <path d="m432.79,156.16c10.54,6.23-3.4,52.36-11.52,54.96-8.12,2.6-36.21,1.73-36.21,1.73l-1.49-8.93,31.67-4.29s3.28-9.04,5.78-24.66c2.13-13.3,11.76-18.81,11.76-18.81Z" fill="#fff" opacity=".3"/>
        </g>
      </g>
      <g>
        <path d="m176.28,197.31c2.79,5.11,5.6,10.65,8.89,15.43.95,1.42,2.14,2.84,3.41,3.98,5.96,5.54,12.74,10.97,18.81,16.6,1.27,1.15,1.35,3.11.19,4.37-.94,1.02-2.41,1.25-3.6.68-3.9-1.89-7.65-3.96-11.36-6.16-4.65-2.83-9.64-5.82-13.85-9.6-5.85-5.7-10-12.62-13.53-19.9-3.07-7.33,7.16-12.31,11.05-5.4h0Z" fill="#dc897c"/>
        <path d="m195.38,221.96l-9.99,7.6s-5.71-4.75-9.93-8.91c-2-1.97-3.67-3.82-4.23-4.96-.85-1.72.1-6.97,1.31-11.93,1.29-5.27,2.86-10.21,2.86-10.21,2.73,3.21,9.55,18,9.55,18l10.43,10.41Z" fill="#efc037"/>
        <path d="m175.46,220.65c-2-1.97-3.67-3.82-4.23-4.96-.85-1.72.1-6.97,1.31-11.93,1.74.42,4.43,7.79,2.92,16.89Z" opacity=".2"/>
        <g>
          <path d="m171.68,247.51c-3.13,9.93-12,17.83-22.55,9.78-10.55-8.05,9.93-47.85,17.36-51.13,7.43-3.28,5.19,41.35,5.19,41.35Z" fill="#efc037"/>
          <path d="m171.68,247.51c-3.13,9.93-12,17.83-22.55,9.78-10.55-8.05,9.93-47.85,17.36-51.13,7.43-3.28,5.19,41.35,5.19,41.35Z" opacity=".2"/>
        </g>
        <path d="m200.13,422.47c-6.85,0-7.75-.11-11.6-.23-3.29-.12-4.08.29-6.73.23-2.21-.05-2.13-2.16-1.45-4.6.34-1.22.87-3.81,1.34-5.79l10.03-.73c1.41,2.69,4.6,6.54,8.46,7.06,3.68.49,2.68,4.06-.05,4.06Z" fill="#b00043"/>
        <path d="m141.07,239.59h25.55c1.54,9.47,8.73,54.6,10.03,79.17,1.54,28.93,10.81,75.27,15.72,93.37-1.38,1.24-7.87,1.76-10.93.23,0,0-26.76-53.44-23.28-86.85-20.24-57-17.74-81.72-17.08-85.92Z" fill="#263238"/>
        <path d="m150.52,422.47c-6.85,0-7.75-.11-11.6-.23-3.29-.12-4.08.29-6.73.23-2.21-.05-2.13-2.16-1.45-4.6.34-1.22.87-3.81,1.34-5.79l10.03-.73c1.41,2.69,4.6,6.54,8.46,7.06,3.68.49,2.68,4.06-.05,4.06Z" fill="#b00043"/>
        <path d="m151.53,305.46c-3.18-10.5-5.48-19.58-7.1-27.38,1.61-6.1,3.89-11.32,7-14.45,0,0,4.47,16.99.1,41.83Z" opacity=".2"/>
        <path d="m130.61,239.59h26.59c-1.83,14.01-7.45,56.76-10.92,79.35-4.41,28.63-4.97,74.58-3.86,93.3-1.6.93-7.45,2.06-10.61,1.07,0,0-14.93-57.91-5.01-91.55-8.34-61.17,2.16-79.7,3.82-82.18Z" fill="#263238"/>
        <path d="m172.75,154.18s2.6,15.84-2.49,21.41c-5.09,5.57-22.58,6.73-28.4-3.56-5.82-10.29-2.25-25.33,11.12-28.44,13.37-3.11,19.76,10.59,19.76,10.59Z" fill="#263238"/>
        <path d="m135.17,185.6s.7,7.09.48,18.23c-.08,3.39-.23,7.16-.52,11.21-.52,7.4-1.48,15.76-3.17,24.57l34.82,5.78s12.25-39.81,5.36-54.44c0,0-16.46-11.37-36.97-5.35Z" fill="#263238"/>
        <path d="m245.2,230.83l-2.69-.43c-1.01-.16-2.04.18-2.76.91l-3.36,3.41c-1.34,1.36-1.94,3.29-1.6,5.18l.21,1.17c4.41,1.01,9.93-1.14,9.93-1.14l1.64-.44c1.46-.39,2.31-1.79,1.95-3.2l-.83-3.26c-.29-1.13-1.28-2-2.49-2.19Z" fill="#e4897b"/>
        <path d="m158.92,199.34l-12.05-14.58c4-2.94,3.85-12.87,3.3-18.37l9.25,10.34c-1.4,3.97-1.95,8.35,3.79,10.74,0,0-4.31,11.83-4.3,11.87Z" fill="#e4897b"/>
        <path d="m153.95,170.61l5.48,6.12c-.33.94-.61,1.9-.77,2.85-2.21-.7-5.07-3.7-5.09-6.12-.01-1.2.14-2.34.38-2.86Z" opacity=".2"/>
        <g>
          <path d="m146.68,156.83c.55,8.29.61,11.79,4.77,16.24,6.26,6.68,16.18,4.73,18.08-3.42,1.71-7.34.52-19.65-7.51-23.33-7.91-3.62-15.9,2.23-15.35,10.52Z" fill="#e4897b"/>
          <path d="m154.34,151.81c-5.16,5.23,3.23,12.97-5.91,11.49-9.14-1.48-3.85-14.01,1.95-16.3,5.81-2.29,3.96,4.82,3.96,4.82Z" fill="#263238"/>
          <path d="m159.35,159.72c.02.7.39,1.28.83,1.3.44.02.79-.53.77-1.23-.02-.7-.39-1.28-.83-1.3-.44-.02-.79.53-.77,1.23Z" fill="#263238"/>
          <path d="m167.69,160.22c.02.7.39,1.28.83,1.3.44.02.79-.53.77-1.23-.02-.7-.39-1.28-.83-1.3-.44-.02-.79.53-.77,1.23Z" fill="#263238"/>
          <path d="m168.26,159.03l1.62-.41s-.8,1.27-1.62.41Z" fill="#263238"/>
          <path d="m165.39,161.26s1.22,3.05,2.52,4.56c-.87.82-2.4.36-2.4.36l-.11-4.92Z" fill="#de5753"/>
          <path d="m161.67,168.58c.35.08.73.13,1.14.15.11,0,.2-.08.19-.2,0-.11-.09-.21-.2-.21-2.97-.13-4.41-2.34-4.43-2.36-.06-.1-.19-.13-.28-.07-.09.06-.11.18-.05.28.06.09,1.21,1.86,3.63,2.41Z" fill="#263238"/>
          <path d="m144.95,164.55c.63,1.76,1.87,2.95,3.08,3.43,1.83.73,2.9-1.34,2.53-3.57-.33-2.01-1.68-4.81-3.58-4.56-1.87.25-2.76,2.69-2.04,4.7Z" fill="#e4897b"/>
          <path d="m157.48,155.76c.1.01.21-.01.3-.09,1.3-1.15,2.73-.7,2.74-.69.21.07.43-.05.48-.26.05-.22-.08-.45-.29-.52-.07-.02-1.86-.59-3.48.83-.16.14-.17.4-.02.58.07.08.17.14.27.15Z" fill="#263238"/>
          <path d="m170.02,156.51c.1.02.2,0,.29-.06.18-.12.21-.37.08-.56-1.32-1.9-3.17-1.94-3.25-1.94-.22,0-.39.18-.37.4.01.22.2.41.42.41.07,0,1.5.05,2.55,1.56.07.1.17.16.27.18Z" fill="#263238"/>
          <path d="m159.93,158.52l1.62-.41s-.8,1.27-1.62.41Z" fill="#263238"/>
          <path d="m162.36,148.61s.57,5.29-7.74,8.77c0,0,3.38-1.81,4.42-5.96,0,0-3.16,6.72-9.44,6.4-6.28-.32-5.27,15.21-2.43,20.15,0,0-8.01-5.01-8.73-10.88,0,0,.78,5.66,4.03,8.55,0,0-5.34-2.4-7.91-12.65-3.11-12.44,6.53-21.95,14.1-23.68,11.35-2.59,14.66,1.51,14.66,1.51,0,0,3.57-2,8.61,4.92,5.04,6.92,7.39,21.64,1.31,29.1,0,0,1.52-7.25-1.51-17,0,0-5.19-1.45-8.18-8.5,0,0,.05,4.39-4.57,6.67,0,0,3.12-1.87,3.38-7.4Z" fill="#263238"/>
        </g>
        <g>
          <polygon points="167.38 247.51 167.61 242.55 132.01 236.64 130 240.67 167.38 247.51" fill="#407bff"/>
          <polygon points="167.38 247.51 167.61 242.55 132.01 236.64 130 240.67 167.38 247.51" fill="#fff" opacity=".7"/>
          <polygon points="142.3 242.45 130.52 240.5 131.79 237.26 142.85 239.09 142.3 242.45" fill="#263238"/>
          <polygon points="164.25 242.64 167.77 243.23 167.52 246.64 163.69 246 164.25 242.64" fill="#263238"/>
          <rect x="151.56" y="232.88" width="3.4" height="19.34" transform="translate(-111.11 354.02) rotate(-80.58)" fill="#263238"/>
          <rect x="151.58" y="240.85" width="6.53" height="3.92" rx=".65" ry=".65" transform="translate(267.85 507.69) rotate(-170.58)" fill="#fff"/>
        </g>
        <path d="m150.43,201.55c.01,1.23-.08,2.51-.29,3.83-.72,4.55-3.04,10.83-6.04,17.06-5.33,11.14-12.79,22.21-16.99,23.36l5.37-12.56,1.34-23.59.73-13.04.63-11.02s4.94-1.8,7.69-1.75c0,0,7.47,7.1,7.57,17.71Z" fill="#efc037"/>
        <path d="m166.49,187.95s2.36,9.04,2.81,20.03c.45,11,2.39,39.53,2.39,39.53,0,0,4.17-44.34,3.73-53.95,0,0-4.73-4.7-8.92-5.61Z" fill="#efc037"/>
        <g>
          <path d="m200.69,274.75c-2.92,3.67-10.33,2.63-16.54-2.32-6.21-4.95-8.88-11.94-5.95-15.61,2.92-3.67,10.33-2.63,16.54,2.32,6.21,4.95,8.88,11.94,5.95,15.61Z" fill="#263238"/>
          <path d="m215.09,266.31c1.19-.17,2.14-.62,2.76-1.39,2.87-3.6-2.46-12.63-11.92-20.16-9.45-7.53-19.44-10.72-22.32-7.11-.61.77-.83,1.8-.74,3-.48.23-.89.53-1.21.92-.61.76-.81,1.79-.69,2.98-.5.22-.93.53-1.25.93-.6.76-.79,1.78-.65,2.99-.52.21-.96.52-1.29.93-.6.75-.78,1.79-.61,3-.54.2-1,.5-1.33.92-2.39,3,2.05,10.5,9.91,16.76,7.86,6.26,16.16,8.91,18.55,5.91.33-.42.52-.93.6-1.51,1.22-.1,2.19-.51,2.79-1.26.33-.41.53-.91.62-1.47,1.2-.13,2.16-.54,2.77-1.3.32-.4.53-.88.63-1.42,1.19-.15,2.15-.58,2.75-1.34.31-.39.51-.86.63-1.38Z" fill="#263238"/>
          <path d="m215.09,266.31c1.19-.17,2.14-.62,2.76-1.39,2.87-3.6-2.46-12.63-11.92-20.16-9.45-7.53-19.44-10.72-22.32-7.11-.61.77-.83,1.8-.74,3-.48.23-.89.53-1.21.92-.61.76-.81,1.79-.69,2.98-.5.22-.93.53-1.25.93-.6.76-.79,1.78-.65,2.99-.52.21-.96.52-1.29.93-.6.75-.78,1.79-.61,3-.54.2-1,.5-1.33.92-2.39,3,2.05,10.5,9.91,16.76,7.86,6.26,16.16,8.91,18.55,5.91.33-.42.52-.93.6-1.51,1.22-.1,2.19-.51,2.79-1.26.33-.41.53-.91.62-1.47,1.2-.13,2.16-.54,2.77-1.3.32-.4.53-.88.63-1.42,1.19-.15,2.15-.58,2.75-1.34.31-.39.51-.86.63-1.38Z" fill="#fff" opacity=".3"/>
          <path d="m254.42,245.36c13.9-17.44,10.31-43.18-8.36-56.06-16.11-11.12-38.39-8.25-51.19,6.56-8.32,9.62-11.04,22.05-8.6,33.48.44,2.07-.11,4.24-1.59,5.77-.07.07-.14.15-.21.23-2.92,3.66,2.5,12.83,12.1,20.48,9.6,7.65,19.75,10.88,22.66,7.22.06-.08.12-.16.18-.24,1.17-1.8,3.19-2.81,5.33-2.85,11.17-.18,22.17-5.16,29.68-14.58Z" fill="#407bff"/>
          <path d="m254.42,245.36c13.9-17.44,10.31-43.18-8.36-56.06-16.11-11.12-38.39-8.25-51.19,6.56-8.32,9.62-11.04,22.05-8.6,33.48.44,2.07-.11,4.24-1.59,5.77-.07.07-.14.15-.21.23-2.92,3.66,2.5,12.83,12.1,20.48,9.6,7.65,19.75,10.88,22.66,7.22.06-.08.12-.16.18-.24,1.17-1.8,3.19-2.81,5.33-2.85,11.17-.18,22.17-5.16,29.68-14.58Z" fill="#fff" opacity=".7"/>
          <path d="m206.19,254.79s13.96-13.19,25.2-11.56l-5.7-4.54,1.59-5.74-10.03,4.86,2.5-10.86-9.28,3.93,1.76-9.93-5.24,2.83-5.7-4.54s2.22,15.31-6.6,26.38" fill="none" stroke="#263238" stroke-linecap="round" stroke-linejoin="round" stroke-width=".56"/>
          <path d="m253.21,215.96c-4.64,5.96-15.36,5.37-23.95-1.32-8.59-6.69-11.79-16.94-7.15-22.89,4.64-5.96,15.36-5.37,23.95,1.32,8.59,6.69,11.79,16.94,7.15,22.9Z" fill="#fff" opacity=".2"/>
          <path d="m222.33,246.95c-3.38,4.35-11.21,3.92-17.47-.96-6.27-4.88-8.6-12.36-5.22-16.7,3.38-4.35,11.21-3.92,17.47.96,6.27,4.88,8.6,12.36,5.22,16.7Z" fill="#fff" opacity=".2"/>
        </g>
        <path d="m150.43,201.55c.01,1.23-.08,2.51-.29,3.83-.72,4.55-3.04,10.83-6.04,17.06-3.89-3.61-7.48-8.47-10.29-12.79l.73-13.04c4.12-1.35,9.07-2.38,11.64-.69,1.53,1.01,2.98,3.16,4.25,5.62Z" opacity=".2"/>
        <g>
          <path d="m143.65,192.34c2.11,5.81,3.93,11.72,6.31,17.23.5,1.2,1.08,2.03,1.99,2.97,5.3,5.59,11.77,10.44,17.94,15.33,0,0,12.94,9.94,12.95,9.95,1.34,1.03,1.59,2.95.56,4.29-.91,1.18-2.51,1.51-3.79.87-4.97-2.5-9.79-5.16-14.56-7.99-4.76-2.85-9.45-5.82-14.04-9.18-3.6-2.7-7.66-5.74-10.34-9.66-.86-1.27-1.73-2.8-2.41-4.14-2.68-5.3-4.63-10.44-6.31-15.9-2.11-7.76,8.89-11.3,11.7-3.76h0Z" fill="#dc897c"/>
          <path d="m135.17,185.6s4.53,0,7.68,3.12c4.38,4.33,6.83,17.56,9.75,22.64,2,3.47,10.98,11.36,10.98,11.36l-10.98,7.66s-8.87-7.87-11.99-13.06-15.07-24.86-5.44-31.7Z" fill="#efc037"/>
          <g>
            <path d="m179.65,236.73l8.33-2.42-1.56,9.49s-7.56,1.71-8.28-2.22l1.51-4.85Z" fill="#e4897b"/>
            <polygon points="196.27 236.55 192.16 244.26 186.41 243.8 187.98 234.31 196.27 236.55" fill="#e4897b"/>
          </g>
        </g>
      </g>
    </g>
  </g>
</svg>