<svg width="60" height="60" viewBox="0 0 60 60" fill="none" xmlns="http://www.w3.org/2000/svg">
<path d="M19.4759 15.432C19.5479 14.928 20.0039 14.58 20.5079 14.64C21.0119 14.712 21.3599 15.168 21.2879 15.672L20.7959 19.296C20.7359 19.8 20.2679 20.148 19.7639 20.088C19.2599 20.016 18.9119 19.56 18.9719 19.056L19.4759 15.432ZM10.5959 17.208C10.4039 16.74 10.6319 16.2 11.0999 16.008C11.5679 15.816 12.1079 16.044 12.2999 16.512L13.6799 19.896C13.8719 20.364 13.6439 20.904 13.1759 21.096C12.7079 21.288 12.1679 21.06 11.9759 20.592L10.5959 17.208ZM3.8039 23.184C3.4079 22.872 3.3239 22.296 3.6359 21.9C3.9479 21.504 4.5239 21.42 4.9199 21.732L7.8119 23.976C8.2079 24.288 8.2919 24.864 7.9799 25.26C7.6679 25.656 7.0919 25.728 6.6959 25.428L3.8039 23.184ZM21.7439 46.296L25.2119 49.764C26.8079 51.36 26.8079 53.952 25.2119 55.548C23.6159 57.144 21.0239 57.144 19.4279 55.548L15.9479 52.08L14.9999 53.028C13.4039 54.624 10.8119 54.624 9.2159 53.028C7.6199 51.432 7.6199 48.84 9.2159 47.244L10.1759 46.284L9.3359 45.444C5.8439 41.952 4.8359 37.392 6.6119 33.06C8.6879 28.02 14.1719 24.816 19.5839 26.016C21.5999 26.46 23.6039 27.528 25.4279 29.352L26.2679 30.192L30.7919 25.668C30.2759 25.152 29.8919 24.78 29.3759 24.204C26.3519 20.772 25.5359 16.344 27.3239 12.252C27.7079 11.364 28.1999 10.536 28.7879 9.76797L27.1199 8.09997C26.6279 7.60797 26.8199 6.73197 27.5759 6.55197L39.7919 3.27597C40.4759 3.09597 41.0999 3.71997 40.9079 4.41597L37.6319 16.656C37.4519 17.34 36.5879 17.556 36.0959 17.064L34.7279 15.696C34.3319 16.836 34.7039 17.964 35.5559 18.864L36.5759 19.884L43.4759 12.984L41.3879 10.896C40.8959 10.404 41.0879 9.52797 41.8439 9.34797L55.3919 5.71197C56.0759 5.53197 56.6999 6.15597 56.5079 6.85197L52.8719 20.436C52.6919 21.12 51.8279 21.336 51.3359 20.844L49.2479 18.768L42.3599 25.68L43.1999 26.52C46.6919 30.012 47.6999 34.572 45.9239 38.904C43.8479 43.944 38.3639 47.148 32.9519 45.948C30.9359 45.504 28.9319 44.436 27.1079 42.612L26.2679 41.772L21.7439 46.296ZM17.2559 50.784L20.7239 54.252C22.1399 55.668 24.5759 54.66 24.5759 52.656C24.5759 52.08 24.3599 51.504 23.9159 51.06L20.4479 47.592L17.2559 50.784ZM27.5639 31.5L30.7559 34.692L48.6239 16.836C48.9839 16.476 49.5599 16.476 49.9199 16.836L51.5279 18.444L54.3479 7.91997L43.8239 10.74L45.4319 12.348C45.7919 12.708 45.7919 13.284 45.4319 13.644L27.5639 31.5ZM32.0519 35.988C32.8799 36.816 33.5639 37.62 34.6439 37.908C36.0119 38.256 37.3079 37.488 38.0399 36.408C38.9999 35.004 38.6159 33.516 37.4159 32.316L36.5759 31.476L32.0519 35.988ZM37.8719 30.168C39.0239 31.32 39.7919 31.98 40.2479 33.564C40.5359 34.56 40.4159 35.628 40.0679 36.48C39.5159 37.8 38.3879 38.928 37.0679 39.48C35.1599 40.272 33.1319 39.66 31.5959 38.124L24.1199 30.66C21.1679 27.696 17.3999 26.82 13.7399 28.332C9.5519 30.06 6.7799 34.668 7.7879 39.216C8.1599 40.896 9.0599 42.588 10.6319 44.16L11.4719 45L14.6639 41.808L13.8239 40.968C11.6159 38.76 11.5679 35.808 13.6799 33.696C15.7799 31.596 18.7319 31.632 20.9399 33.84L28.4039 41.304C31.3559 44.268 35.1239 45.144 38.7839 43.632C42.9719 41.904 45.7439 37.296 44.7359 32.748C44.3639 31.068 43.4639 29.376 41.8919 27.804L41.0519 26.964L37.8719 30.168ZM24.9599 40.476L21.7679 37.284L10.4999 48.54C9.0839 49.956 10.0919 52.392 12.0959 52.392C12.6719 52.392 13.2479 52.176 13.6919 51.732L24.9599 40.476ZM20.4719 35.988C19.6439 35.172 18.9599 34.356 17.8799 34.08C16.5119 33.732 15.2159 34.5 14.4839 35.58C13.5479 36.96 13.8839 38.448 15.1079 39.672L15.9479 40.512L20.4719 35.988ZM35.2679 21.192C34.3319 20.256 33.5039 19.548 33.0119 18.252C32.5799 17.124 32.6279 15.996 33.0599 14.916C33.2039 14.544 33.5879 13.824 33.8639 13.56C34.2239 13.2 34.7999 13.2 35.1599 13.56L36.2639 14.652L38.7239 5.47197L29.5439 7.93197L30.6839 9.07197C31.0199 9.40797 31.0439 9.95997 30.7199 10.332C28.4639 12.864 27.5879 16.368 28.7399 19.644C29.2319 21.048 30.1079 22.404 31.2599 23.544L32.0999 24.384L35.2679 21.192Z" fill="#C73E9B"/>
</svg>
