<svg width="60" height="60" viewBox="0 0 60 60" fill="none" xmlns="http://www.w3.org/2000/svg">
<g clip-path="url(#clip0_22_1904)">
<path d="M56.107 0.00158691H11.2459C9.09926 0.00158691 7.35279 1.74794 7.35279 3.89458V11.8506C7.35279 12.3361 7.74617 12.7294 8.23165 12.7294C8.71713 12.7294 9.11051 12.3361 9.11051 11.8506V3.89458C9.11051 2.71714 10.0685 1.7593 11.2459 1.7593H56.107C57.2845 1.7593 58.2424 2.71714 58.2424 3.89458V33.8015C58.2424 34.7095 57.6808 35.4887 56.8707 35.7961C56.4808 35.0591 55.6684 34.5496 54.7286 34.5496H53.7189C53.1463 34.5496 52.6205 34.7385 52.2087 35.0526C51.7968 34.7385 51.271 34.5496 50.6984 34.5496H49.6887C49.1161 34.5496 48.5903 34.7385 48.1784 35.0526C47.7666 34.7385 47.2406 34.5496 46.6682 34.5496H45.6586C45.4397 34.5496 45.2287 34.5795 45.0271 34.6311V33.6819H54.9447C55.5197 33.6819 55.9876 33.21 55.9876 32.6297V5.06639C55.9876 4.48622 55.5197 4.01422 54.9447 4.01422H13.6862C13.1113 4.01422 12.6435 4.48611 12.6435 5.06639V31.2397L9.36128 34.7991C9.20015 34.4945 9.11051 34.1534 9.11051 33.8015V15.4564C9.11051 14.9709 8.71713 14.5775 8.23165 14.5775C7.74617 14.5775 7.35279 14.9709 7.35279 15.4564V21.1339L1.36519 30.4232C-0.499044 33.3154 -0.450414 37.0205 1.48905 39.8627L5.3006 45.4485C5.83682 46.2343 6.13903 47.1522 6.17442 48.1028L6.40773 54.3579C6.42542 54.8319 6.81517 55.2041 7.28541 55.2041C7.29643 55.2041 7.30756 55.2038 7.31869 55.2035C7.80382 55.1854 8.18232 54.7774 8.16427 54.2925L7.93096 48.0374C7.88315 46.7554 7.4756 45.5175 6.75247 44.4578L2.94092 38.872C1.40058 36.6148 1.36203 33.6723 2.84249 31.3755L7.35268 24.3782V33.8014C7.35268 34.6493 7.63004 35.4663 8.12982 36.1343L7.5336 36.7809C7.20456 37.1377 7.22717 37.6937 7.58399 38.0227C7.94069 38.3518 8.49671 38.3294 8.82588 37.9724L18.0592 27.9595C18.5175 27.4626 19.2871 27.453 19.76 27.9152C20.1406 28.2871 20.2264 28.8722 19.9689 29.3379L14.4181 39.3666C14.0313 40.0652 14.1093 40.915 14.6167 41.5315C15.7205 42.8723 16.0504 44.7237 15.4779 46.3632C15.2062 47.1417 15.0585 47.9544 15.0393 48.7789L14.9327 53.3659C14.9213 53.8512 15.3056 54.2536 15.7908 54.265C15.7978 54.2651 15.8047 54.2652 15.8116 54.2652C16.2876 54.2652 16.6788 53.8851 16.6899 53.4069L16.7965 48.8199C16.8114 48.1792 16.9261 47.5477 17.1374 46.9427C17.9109 44.7276 17.4652 42.226 15.9738 40.4143C15.9278 40.3583 15.9207 40.2813 15.9559 40.2178L17.3524 37.6945H39.2389V41.8703L36.4414 40.5082C35.3508 39.9774 34.0632 40.2432 33.2372 41.17C32.1798 42.3566 32.1952 44.1995 33.2722 45.3657L38.5374 51.0661C38.9832 51.5487 39.2389 52.2266 39.2389 52.9258V59.1194C39.2389 59.6049 39.6323 59.9983 40.1178 59.9983C40.6033 59.9983 40.9967 59.6049 40.9967 59.1194V52.9258C40.9967 51.7729 40.5818 50.6889 39.8286 49.8734L34.5634 44.173C34.1087 43.6808 34.1023 42.8411 34.5495 42.3395C34.8506 42.0015 35.2911 41.9031 35.6718 42.0885L39.733 44.0658C40.3176 44.3518 40.9965 43.9177 40.9965 43.2756V28.2391C40.9965 27.4995 41.5064 26.8979 42.1328 26.8979C42.7593 26.8979 43.269 27.4997 43.269 28.2391V43.2756C43.269 43.7611 43.6624 44.1545 44.1479 44.1545C44.6334 44.1545 45.0267 43.7611 45.0267 43.2756V36.7756C45.0267 36.5218 45.3159 36.3073 45.6582 36.3073H46.6679C47.0102 36.3073 47.2994 36.5218 47.2994 36.7756V43.2756C47.2994 43.7611 47.6927 44.1545 48.1782 44.1545C48.6637 44.1545 49.0571 43.7611 49.0571 43.2756V36.7756C49.0571 36.5218 49.3462 36.3073 49.6884 36.3073H50.6982C51.0405 36.3073 51.3296 36.5218 51.3296 36.7756V43.2756C51.3296 43.7611 51.7229 44.1545 52.2084 44.1545C52.6939 44.1545 53.0873 43.7611 53.0873 43.2756V36.7756C53.0873 36.5218 53.3765 36.3073 53.7188 36.3073H54.7285C55.0708 36.3073 55.3599 36.5218 55.3599 36.7756V43.2756C55.3599 43.3662 55.3798 43.4803 55.4077 43.5614L56.2345 45.9653C56.4274 46.5263 56.5031 47.1394 56.4532 47.7381C56.413 48.2218 56.7725 48.6466 57.2562 48.6869C57.2811 48.689 57.3057 48.6899 57.3302 48.6899C57.7824 48.6899 58.1668 48.3428 58.205 47.8839C58.2749 47.0444 58.1684 46.1831 57.8966 45.3936L57.1177 43.1288V37.5618C58.7975 37.1155 60.0001 35.5951 60.0001 33.8014V3.89458C60 1.74794 58.2537 0.00158691 56.107 0.00158691ZM18.3254 35.9368L19.5735 33.6819H39.2391V35.9368H18.3254ZM42.1331 25.1402C40.5893 25.1402 39.3242 26.4412 39.2433 28.0728H36.4213C36.0739 28.0728 35.7912 27.7901 35.7912 27.4427V23.6563C35.7912 23.3089 36.0739 23.0263 36.4213 23.0263H40.3759C40.8614 23.0263 41.2548 22.6329 41.2548 22.1474C41.2548 21.6619 40.8614 21.2685 40.3759 21.2685H36.4213C35.1047 21.2685 34.0335 22.3397 34.0335 23.6563V27.4427C34.0335 28.7593 35.1047 29.8305 36.4213 29.8305H39.2389V31.9242H20.5463L21.5067 30.189C22.1463 29.0331 21.9333 27.5811 20.9885 26.6579C19.8039 25.5003 17.895 25.5445 16.767 26.7679L14.4012 29.3334V5.77194H54.2299V31.9242H45.0271V29.8305H48.2195C49.5361 29.8305 50.6073 28.7593 50.6073 27.4427V23.6563C50.6073 22.3397 49.5361 21.2685 48.2195 21.2685H43.8901C43.4046 21.2685 43.0112 21.6619 43.0112 22.1474C43.0112 22.6329 43.4046 23.0263 43.8901 23.0263H48.2195C48.5669 23.0263 48.8495 23.3089 48.8495 23.6563V27.4427C48.8495 27.7901 48.5669 28.0728 48.2195 28.0728H45.0228C44.9417 26.441 43.6766 25.1402 42.1331 25.1402Z" fill="#CC0444"/>
<path d="M11.7816 19.5629V18.1334C11.7816 17.6479 11.3883 17.2545 10.9028 17.2545C10.4173 17.2545 10.0239 17.6479 10.0239 18.1334V19.5629C10.0239 20.0483 10.4173 20.4417 10.9028 20.4417C11.3883 20.4417 11.7816 20.0482 11.7816 19.5629Z" fill="#CC0444"/>
<path d="M56.3783 50.4111C55.9668 50.1536 55.4246 50.2784 55.167 50.6898L54.0897 52.4111C53.6024 53.1891 53.345 54.0977 53.345 55.038V59.1194C53.345 59.6049 53.7383 59.9983 54.2238 59.9983C54.7093 59.9983 55.1027 59.6049 55.1027 59.1194V55.038C55.1027 54.4279 55.2676 53.842 55.5795 53.3437L56.657 51.6224C56.9144 51.211 56.7897 50.6687 56.3783 50.4111Z" fill="#CC0444"/>
<path d="M35.8334 12.4008L26.5059 7.26802C26.1768 7.0871 25.7838 7.08733 25.4542 7.26826L16.1271 12.4009C15.7787 12.5927 15.5624 12.959 15.5624 13.3566C15.5624 13.7542 15.7788 14.1207 16.1273 14.3126L19.0154 15.9018V21.9991C19.0154 22.7383 19.4569 23.4006 20.1402 23.6866C24.0155 25.3082 27.9451 25.3083 31.8208 23.6865C32.504 23.4006 32.9454 22.7382 32.9454 21.9991V15.9018L35.8334 14.3125C36.182 14.1207 36.3985 13.7544 36.3985 13.3566C36.3985 12.9589 36.182 12.5925 35.8334 12.4008ZM31.1875 21.9991C31.1875 22.0277 31.1696 22.0536 31.142 22.0651C27.6688 23.5186 24.2919 23.5187 20.8188 22.0652C20.791 22.0535 20.773 22.0276 20.773 21.9991V16.869L25.4536 19.4447C25.6185 19.5355 25.7994 19.5809 25.9804 19.5809C26.1611 19.5809 26.3418 19.5356 26.5063 19.445L28.697 18.2395V20.1328C28.697 20.6182 29.0903 21.0116 29.5758 21.0116C30.0613 21.0116 30.4547 20.6182 30.4547 20.1328V17.2722L31.1873 16.8691V21.9991H31.1875ZM29.7136 15.6738L26.5838 12.7176C26.231 12.3844 25.6748 12.4001 25.3415 12.7532C25.0081 13.106 25.024 13.6622 25.377 13.9955L28.0962 16.5638L25.9802 17.7281C23.7962 16.5263 20.5257 14.7266 18.0361 13.3565L25.9802 8.98496L33.9245 13.3565C32.8858 13.9282 30.7467 15.1053 29.7136 15.6738Z" fill="#CC0444"/>
<path d="M39.5825 13.4049H46.1631C46.6486 13.4049 47.042 13.0116 47.042 12.5261C47.042 12.0406 46.6486 11.6472 46.1631 11.6472H39.5825C39.097 11.6472 38.7036 12.0406 38.7036 12.5261C38.7036 13.0116 39.0971 13.4049 39.5825 13.4049Z" fill="#CC0444"/>
<path d="M51.7292 16.5579C51.7292 16.0725 51.3359 15.6791 50.8504 15.6791H39.5825C39.097 15.6791 38.7036 16.0725 38.7036 16.5579C38.7036 17.0434 39.097 17.4368 39.5825 17.4368H50.8504C51.3359 17.4368 51.7292 17.0434 51.7292 16.5579Z" fill="#CC0444"/>
</g>
<defs>
<clipPath id="clip0_22_1904">
<rect width="60" height="60" fill="white"/>
</clipPath>
</defs>
</svg>
