<svg width="60" height="60" viewBox="0 0 60 60" fill="none" xmlns="http://www.w3.org/2000/svg">
<g clip-path="url(#clip0_22_2023)">
<path d="M55.3125 52.5H4.6875C3.44475 52.4985 2.25334 52.0042 1.37458 51.1254C0.495827 50.2467 0.00148862 49.0552 0 47.8125L0 12.1875C0.00148862 10.9448 0.495827 9.75334 1.37458 8.87458C2.25334 7.99583 3.44475 7.50149 4.6875 7.5H15.9375V9.375H4.6875C3.94158 9.375 3.22621 9.67132 2.69876 10.1988C2.17132 10.7262 1.875 11.4416 1.875 12.1875V47.8125C1.875 48.5584 2.17132 49.2738 2.69876 49.8012C3.22621 50.3287 3.94158 50.625 4.6875 50.625H55.3125C56.0584 50.625 56.7738 50.3287 57.3012 49.8012C57.8287 49.2738 58.125 48.5584 58.125 47.8125V12.1875C58.125 11.4416 57.8287 10.7262 57.3012 10.1988C56.7738 9.67132 56.0584 9.375 55.3125 9.375H37.5V7.5H55.3125C56.5552 7.50149 57.7467 7.99583 58.6254 8.87458C59.5042 9.75334 59.9985 10.9448 60 12.1875V47.8125C59.9985 49.0552 59.5042 50.2467 58.6254 51.1254C57.7467 52.0042 56.5552 52.4985 55.3125 52.5Z" fill="#CC0444"/>
<path d="M43.125 60H16.875C16.6264 60 16.3879 59.9012 16.2121 59.7254C16.0363 59.5496 15.9375 59.3111 15.9375 59.0625V55.3125C15.9375 55.0639 16.0363 54.8254 16.2121 54.6496C16.3879 54.4738 16.6264 54.375 16.875 54.375H43.125C43.3736 54.375 43.6121 54.4738 43.7879 54.6496C43.9637 54.8254 44.0625 55.0639 44.0625 55.3125V59.0625C44.0625 59.3111 43.9637 59.5496 43.7879 59.7254C43.6121 59.9012 43.3736 60 43.125 60ZM17.8125 58.125H42.1875V56.25H17.8125V58.125Z" fill="#CC0444"/>
<path d="M21.6618 51.1437L19.7869 54.8936L21.4639 55.7321L23.3389 51.9822L21.6618 51.1437Z" fill="#CC0444"/>
<path d="M38.3382 51.143L36.6611 51.9816L38.5361 55.7315L40.2131 54.8929L38.3382 51.143Z" fill="#CC0444"/>
<path d="M55.3125 46.875H4.6875C4.43886 46.875 4.2004 46.7762 4.02459 46.6004C3.84877 46.4246 3.75 46.1861 3.75 45.9375V12.1875C3.75 11.9389 3.84877 11.7004 4.02459 11.5246C4.2004 11.3488 4.43886 11.25 4.6875 11.25H15.9375V13.125H5.625V45H54.375V13.125H38.4375V11.25H55.3125C55.5611 11.25 55.7996 11.3488 55.9754 11.5246C56.1512 11.7004 56.25 11.9389 56.25 12.1875V45.9375C56.25 46.1861 56.1512 46.4246 55.9754 46.6004C55.7996 46.7762 55.5611 46.875 55.3125 46.875Z" fill="#CC0444"/>
<path d="M27.1875 31.8751C24.6156 31.872 22.1374 30.9093 20.2378 29.1754C18.3383 27.4414 17.1542 25.061 16.9172 22.5001H15.9375C15.1916 22.5001 14.4762 22.2037 13.9488 21.6763C13.4213 21.1489 13.125 20.4335 13.125 19.6876V15.9376C13.125 15.6889 13.2238 15.4505 13.3996 15.2746C13.5754 15.0988 13.8139 15.0001 14.0625 15.0001H14.0803C14.1928 11.6954 15 1.87506 20.625 1.87506C21.7618 1.81631 22.8939 2.05955 23.9062 2.58006C24.2588 1.76842 24.8531 1.08521 25.608 0.62353C26.3629 0.161847 27.2419 -0.0558646 28.125 5.8921e-05C32.5369 5.8921e-05 39.9263 3.18756 40.2975 15.0001H40.3125C40.5611 15.0001 40.7996 15.0988 40.9754 15.2746C41.1512 15.4505 41.25 15.6889 41.25 15.9376V19.6876C41.25 20.4335 40.9537 21.1489 40.4262 21.6763C39.8988 22.2037 39.1834 22.5001 38.4375 22.5001H37.4578C37.2208 25.061 36.0367 27.4414 34.1372 29.1754C32.2376 30.9093 29.7594 31.872 27.1875 31.8751ZM15 16.9257V19.6876C15 19.9362 15.0988 20.1747 15.2746 20.3505C15.4504 20.5263 15.6889 20.6251 15.9375 20.6251H17.8125C18.0611 20.6251 18.2996 20.7238 18.4754 20.8996C18.6512 21.0755 18.75 21.3139 18.75 21.5626C18.75 23.8003 19.6389 25.9464 21.2213 27.5288C22.8036 29.1111 24.9497 30.0001 27.1875 30.0001C29.4253 30.0001 31.5714 29.1111 33.1537 27.5288C34.7361 25.9464 35.625 23.8003 35.625 21.5626C35.625 21.3139 35.7238 21.0755 35.8996 20.8996C36.0754 20.7238 36.3139 20.6251 36.5625 20.6251H38.4375C38.6861 20.6251 38.9246 20.5263 39.1004 20.3505C39.2762 20.1747 39.375 19.9362 39.375 19.6876V17.2632L37.2253 19.4129C37.0495 19.5887 36.8111 19.6875 36.5625 19.6876C28.2966 19.6876 25.2356 16.2976 24.1031 13.8141C22.4563 15.5584 20.4303 16.9005 18.1819 17.7366C17.9709 17.8272 17.7341 17.8372 17.5163 17.7647L15 16.9257ZM25.3125 11.2501C25.3125 11.5079 25.53 17.6654 36.1772 17.8126L38.4375 15.5513C38.2866 4.76725 31.9106 1.87506 28.125 1.87506C27.75 1.85515 27.375 1.91442 27.0245 2.04902C26.6739 2.18362 26.3556 2.39052 26.0903 2.65627C25.825 2.92202 25.6186 3.24065 25.4846 3.59144C25.3506 3.94222 25.292 4.3173 25.3125 4.69225C25.3131 4.81536 25.2895 4.93739 25.2429 5.05137C25.1964 5.16535 25.1278 5.26904 25.0412 5.35653C24.8663 5.53323 24.6283 5.63319 24.3797 5.63443C24.2566 5.63505 24.1345 5.61141 24.0206 5.56486C23.9066 5.51832 23.8029 5.44978 23.7154 5.36316C23.5387 5.18822 23.4387 4.95026 23.4375 4.70162V4.68756C23.3934 4.39693 22.7466 3.75006 20.625 3.75006C17.0428 3.75006 16.0594 11.6616 15.9487 15.2654L17.7675 15.8719C23.0737 13.5169 23.4244 11.3232 23.4384 11.2154C23.4492 10.9711 23.555 10.7408 23.7332 10.5734C23.9114 10.406 24.1479 10.3149 24.3924 10.3194C24.6368 10.3239 24.8698 10.4238 25.0417 10.5976C25.2136 10.7715 25.3108 11.0056 25.3125 11.2501Z" fill="#CC0444"/>
<path d="M27.1875 28.125C26.1929 28.125 25.2391 27.7299 24.5359 27.0266C23.8326 26.3234 23.4375 25.3696 23.4375 24.375C23.4375 24.1264 23.5363 23.8879 23.7121 23.7121C23.8879 23.5363 24.1264 23.4375 24.375 23.4375H30C30.2486 23.4375 30.4871 23.5363 30.6629 23.7121C30.8387 23.8879 30.9375 24.1264 30.9375 24.375C30.9375 25.3696 30.5424 26.3234 29.8391 27.0266C29.1359 27.7299 28.1821 28.125 27.1875 28.125ZM25.5647 25.3125C25.7294 25.5971 25.966 25.8333 26.2509 25.9976C26.5357 26.1618 26.8587 26.2483 27.1875 26.2483C27.5163 26.2483 27.8393 26.1618 28.1241 25.9976C28.409 25.8333 28.6456 25.5971 28.8103 25.3125H25.5647Z" fill="#CC0444"/>
<path d="M23.4375 17.8125H21.5625V21.5625H23.4375V17.8125Z" fill="#CC0444"/>
<path d="M32.8125 17.8125H30.9375V21.5625H32.8125V17.8125Z" fill="#CC0444"/>
<path d="M34.7166 46.4139L33.1023 45.4614C34.0064 44.0212 34.5472 42.383 34.6782 40.6876L33.0845 39.0939C32.9797 38.9889 32.9013 38.8605 32.8558 38.7194C32.8103 38.5782 32.7989 38.4282 32.8226 38.2818C32.8463 38.1354 32.9044 37.9967 32.9921 37.8771C33.0799 37.7575 33.1947 37.6604 33.3273 37.5939C33.8293 37.3529 34.2783 37.0145 34.6482 36.5982L33.796 34.0407L35.5773 33.4482L36.5148 36.2607C36.5471 36.3581 36.5633 36.4601 36.5626 36.5626C36.511 36.9804 36.3662 37.3812 36.1391 37.7356C35.9119 38.0899 35.6081 38.3888 35.2501 38.6101L36.2898 39.6498C36.4649 39.8259 36.563 40.0643 36.5626 40.3126C36.5068 42.4753 35.8692 44.583 34.7166 46.4139Z" fill="#CC0444"/>
<path d="M31.709 46.0472L29.8472 45.8278C30.2001 42.7076 30.3107 39.5648 30.1781 36.4275C29.3357 37.1208 28.2785 37.4999 27.1875 37.4999C26.0964 37.4999 25.0393 37.1208 24.1968 36.4275C24.0642 39.5648 24.1749 42.7076 24.5278 45.8278L22.6659 46.0472C22.1863 41.9303 22.1326 37.7748 22.5056 33.6469C22.5294 33.4347 22.6249 33.237 22.7764 33.0865C22.9278 32.936 23.126 32.8417 23.3384 32.8192C23.5507 32.7967 23.7643 32.8473 23.9439 32.9627C24.1236 33.0781 24.2584 33.2513 24.3262 33.4538C24.5341 34.0586 24.9171 34.588 25.4266 34.9746C25.9361 35.3612 26.549 35.5876 27.1875 35.625C27.8267 35.5875 28.4403 35.3606 28.95 34.9731C29.4598 34.5855 29.8426 34.055 30.0497 33.4491C30.1209 33.2487 30.2572 33.078 30.4368 32.9641C30.6164 32.8503 30.829 32.7999 31.0406 32.8209C31.2519 32.8442 31.449 32.9387 31.5996 33.0888C31.7502 33.2388 31.8453 33.4356 31.8693 33.6469C32.2424 37.7748 32.1886 41.9303 31.709 46.0472Z" fill="#CC0444"/>
<path d="M19.6584 46.4139C18.5059 44.583 17.8682 42.4753 17.8125 40.3126C17.8126 40.064 17.9114 39.8256 18.0872 39.6498L19.125 38.6101C18.767 38.3888 18.4632 38.0899 18.236 37.7356C18.0088 37.3812 17.8641 36.9804 17.8125 36.5626C17.8127 36.4619 17.8292 36.3618 17.8613 36.2664L18.7988 33.4539L20.58 34.0464L19.7222 36.6207C20.1005 37.0257 20.5502 37.3574 21.0487 37.5995C21.1813 37.6661 21.2962 37.7631 21.3839 37.8827C21.4716 38.0023 21.5297 38.141 21.5534 38.2874C21.5771 38.4339 21.5657 38.5838 21.5202 38.725C21.4747 38.8661 21.3963 38.9945 21.2916 39.0995L19.6978 40.6932C19.8294 42.3873 20.3702 44.0242 21.2737 45.4632L19.6584 46.4139Z" fill="#CC0444"/>
<path d="M46.875 46.875H7.49996C7.36823 46.875 7.23798 46.8472 7.1177 46.7935C6.99741 46.7398 6.8898 46.6613 6.80188 46.5632C6.71396 46.4651 6.64769 46.3496 6.60741 46.2242C6.56713 46.0988 6.55373 45.9663 6.56809 45.8353C7.02371 41.6953 7.50559 38.3353 7.50559 38.3034C7.52354 38.1801 7.56593 38.0615 7.63027 37.9547C9.1884 35.3616 13.185 33.7087 19.5103 33.0431C20.744 32.9166 21.794 32.8556 22.4962 32.8331V30H24.3712V33.75C24.3712 33.9986 24.2724 34.2371 24.0966 34.4129C23.9208 34.5887 23.6824 34.6875 23.4337 34.6875C23.4178 34.6875 21.8268 34.6875 19.7034 34.9078C14.2996 35.4769 10.6303 36.8456 9.33371 38.7694C9.23902 39.4688 8.89965 41.9344 8.54902 45H45.8259C45.4753 41.9344 45.1359 39.4688 45.0375 38.7694C43.7409 36.8456 40.0687 35.4769 34.665 34.9069C32.5443 34.6875 30.9534 34.6875 30.9375 34.6875C30.6888 34.6875 30.4504 34.5887 30.2745 34.4129C30.0987 34.2371 30 33.9986 30 33.75V30H31.875V32.8331C32.5771 32.8594 33.6262 32.9166 34.8581 33.0422C41.1862 33.7087 45.1828 35.3616 46.7409 37.9547C46.8052 38.0615 46.8476 38.1801 46.8656 38.3034C46.8656 38.3381 47.3512 41.6953 47.8031 45.8353C47.8174 45.9659 47.8041 46.0981 47.7641 46.2233C47.724 46.3485 47.6581 46.4638 47.5705 46.5618C47.483 46.6599 47.3759 46.7384 47.256 46.7924C47.1362 46.8463 47.0064 46.8745 46.875 46.875Z" fill="#CC0444"/>
<path d="M47.8125 33.75H44.0625C43.8139 33.75 43.5754 33.6512 43.3996 33.4754C43.2238 33.2996 43.125 33.0611 43.125 32.8125V30H40.3125C40.0639 30 39.8254 29.9012 39.6496 29.7254C39.4738 29.5496 39.375 29.3111 39.375 29.0625V25.3125C39.375 25.0639 39.4738 24.8254 39.6496 24.6496C39.8254 24.4738 40.0639 24.375 40.3125 24.375H43.125V21.5625C43.125 21.3139 43.2238 21.0754 43.3996 20.8996C43.5754 20.7238 43.8139 20.625 44.0625 20.625H47.8125C48.0611 20.625 48.2996 20.7238 48.4754 20.8996C48.6512 21.0754 48.75 21.3139 48.75 21.5625V24.375H51.5625C51.8111 24.375 52.0496 24.4738 52.2254 24.6496C52.4012 24.8254 52.5 25.0639 52.5 25.3125V29.0625C52.5 29.3111 52.4012 29.5496 52.2254 29.7254C52.0496 29.9012 51.8111 30 51.5625 30H48.75V32.8125C48.75 33.0611 48.6512 33.2996 48.4754 33.4754C48.2996 33.6512 48.0611 33.75 47.8125 33.75ZM45 31.875H46.875V29.0625C46.875 28.8139 46.9738 28.5754 47.1496 28.3996C47.3254 28.2238 47.5639 28.125 47.8125 28.125H50.625V26.25H47.8125C47.5639 26.25 47.3254 26.1512 47.1496 25.9754C46.9738 25.7996 46.875 25.5611 46.875 25.3125V22.5H45V25.3125C45 25.5611 44.9012 25.7996 44.7254 25.9754C44.5496 26.1512 44.3111 26.25 44.0625 26.25H41.25V28.125H44.0625C44.3111 28.125 44.5496 28.2238 44.7254 28.3996C44.9012 28.5754 45 28.8139 45 29.0625V31.875Z" fill="#CC0444"/>
</g>
<defs>
<clipPath id="clip0_22_2023">
<rect width="60" height="60" fill="white"/>
</clipPath>
</defs>
</svg>
