<svg width="60" height="60" viewBox="0 0 60 60" fill="none" xmlns="http://www.w3.org/2000/svg">
<g clip-path="url(#clip0_22_2068)">
<path d="M19.6875 26.25H12.6562V24.8438C12.6562 24.5951 12.5575 24.3567 12.3817 24.1808C12.2058 24.005 11.9674 23.9062 11.7188 23.9062C11.4701 23.9062 11.2317 24.005 11.0558 24.1808C10.88 24.3567 10.7812 24.5951 10.7812 24.8438V37.5H8.4375C7.94022 37.5 7.46331 37.6975 7.11167 38.0492C6.76004 38.4008 6.5625 38.8777 6.5625 39.375V54.375C6.06522 54.375 5.58831 54.5725 5.23667 54.9242C4.88504 55.2758 4.6875 55.7527 4.6875 56.25V58.125C4.6875 58.6223 4.88504 59.0992 5.23667 59.4508C5.58831 59.8025 6.06522 60 6.5625 60H53.4375C53.9348 60 54.4117 59.8025 54.7633 59.4508C55.115 59.0992 55.3125 58.6223 55.3125 58.125V56.25C55.3125 55.7527 55.115 55.2758 54.7633 54.9242C54.4117 54.5725 53.9348 54.375 53.4375 54.375V39.375C53.4375 38.8777 53.24 38.4008 52.8883 38.0492C52.5367 37.6975 52.0598 37.5 51.5625 37.5H49.2188V30.4688C49.2188 30.2201 49.12 29.9817 48.9442 29.8058C48.7683 29.63 48.5299 29.5312 48.2812 29.5312C48.0326 29.5312 47.7942 29.63 47.6183 29.8058C47.4425 29.9817 47.3438 30.2201 47.3438 30.4688V31.875H40.3125V25.0097C40.3137 24.6346 40.2018 24.2678 39.9915 23.9572C39.7811 23.6467 39.4819 23.4067 39.1331 23.2687L37.5 22.6153V14.0625C37.5 13.8139 37.4012 13.5754 37.2254 13.3996C37.0496 13.2238 36.8111 13.125 36.5625 13.125C36.3139 13.125 36.0754 13.2238 35.8996 13.3996C35.7238 13.5754 35.625 13.8139 35.625 14.0625V21.8653L33.75 21.1153V15.4688C33.75 15.2201 33.6512 14.9817 33.4754 14.8058C33.2996 14.63 33.0611 14.5312 32.8125 14.5312C32.5639 14.5312 32.3254 14.63 32.1496 14.8058C31.9738 14.9817 31.875 15.2201 31.875 15.4688V20.3653L30 19.6153V16.875C30 16.6264 29.9012 16.3879 29.7254 16.2121C29.5496 16.0363 29.3111 15.9375 29.0625 15.9375C28.8139 15.9375 28.5754 16.0363 28.3996 16.2121C28.2238 16.3879 28.125 16.6264 28.125 16.875V18.8653L22.2591 16.5216C21.9748 16.4078 21.667 16.3654 21.3625 16.3981C21.058 16.4307 20.7662 16.5375 20.5125 16.7089C20.2588 16.8804 20.051 17.1114 19.9072 17.3817C19.7634 17.652 19.6879 17.9535 19.6875 18.2597V26.25ZM25.7812 28.125V54.375H23.9062V46.875C23.9062 46.3777 23.7087 45.9008 23.3571 45.5492C23.0054 45.1975 22.5285 45 22.0312 45H16.4062C15.909 45 15.4321 45.1975 15.0804 45.5492C14.7288 45.9008 14.5312 46.3777 14.5312 46.875V54.375H12.6562V28.125H25.7812ZM34.9219 54.375H27.6562V50.625H34.9219V54.375ZM22.0312 54.375H16.4062V46.875H22.0312V54.375ZM8.4375 39.375H10.7812V54.375H8.4375V39.375ZM53.4375 58.125H6.5625V56.25H53.4375V58.125ZM40.3125 48.75H43.5938V54.375H40.3125V48.75ZM51.5625 39.375V54.375H49.2188V39.375H51.5625ZM47.3438 33.75V54.375H45.4688V48.75C45.4688 48.2527 45.2712 47.7758 44.9196 47.4242C44.5679 47.0725 44.091 46.875 43.5938 46.875H40.3125V45H44.5312C44.7799 45 45.0183 44.9012 45.1942 44.7254C45.37 44.5496 45.4688 44.3111 45.4688 44.0625C45.4688 43.8139 45.37 43.5754 45.1942 43.3996C45.0183 43.2238 44.7799 43.125 44.5312 43.125H40.3125V41.25H44.5312C44.7799 41.25 45.0183 41.1512 45.1942 40.9754C45.37 40.7996 45.4688 40.5611 45.4688 40.3125C45.4688 40.0639 45.37 39.8254 45.1942 39.6496C45.0183 39.4738 44.7799 39.375 44.5312 39.375H40.3125V37.5H44.5312C44.7799 37.5 45.0183 37.4012 45.1942 37.2254C45.37 37.0496 45.4688 36.8111 45.4688 36.5625C45.4688 36.3139 45.37 36.0754 45.1942 35.8996C45.0183 35.7238 44.7799 35.625 44.5312 35.625H40.3125V33.75H47.3438ZM28.6969 21.1134L32.4469 22.6134L38.4375 25.0097V54.375H36.7969V50.625C36.7969 50.1277 36.5993 49.6508 36.2477 49.2992C35.8961 48.9475 35.4192 48.75 34.9219 48.75H27.6562V28.125C27.6562 27.6277 27.4587 27.1508 27.1071 26.7992C26.7554 26.4475 26.2785 26.25 25.7812 26.25H21.5625V18.2597L28.6969 21.1134Z" fill="#CC0444"/>
<path d="M15.4688 43.125H17.3438C17.5924 43.125 17.8308 43.0262 18.0067 42.8504C18.1825 42.6746 18.2812 42.4361 18.2812 42.1875C18.2812 41.9389 18.1825 41.7004 18.0067 41.5246C17.8308 41.3488 17.5924 41.25 17.3438 41.25H15.4688C15.2201 41.25 14.9817 41.3488 14.8058 41.5246C14.63 41.7004 14.5312 41.9389 14.5312 42.1875C14.5312 42.4361 14.63 42.6746 14.8058 42.8504C14.9817 43.0262 15.2201 43.125 15.4688 43.125Z" fill="#CC0444"/>
<path d="M21.0938 43.125H22.9688C23.2174 43.125 23.4558 43.0262 23.6317 42.8504C23.8075 42.6746 23.9062 42.4361 23.9062 42.1875C23.9062 41.9389 23.8075 41.7004 23.6317 41.5246C23.4558 41.3488 23.2174 41.25 22.9688 41.25H21.0938C20.8451 41.25 20.6067 41.3488 20.4308 41.5246C20.255 41.7004 20.1562 41.9389 20.1562 42.1875C20.1562 42.4361 20.255 42.6746 20.4308 42.8504C20.6067 43.0262 20.8451 43.125 21.0938 43.125Z" fill="#CC0444"/>
<path d="M15.4688 39.375H17.3438C17.5924 39.375 17.8308 39.2762 18.0067 39.1004C18.1825 38.9246 18.2812 38.6861 18.2812 38.4375C18.2812 38.1889 18.1825 37.9504 18.0067 37.7746C17.8308 37.5988 17.5924 37.5 17.3438 37.5H15.4688C15.2201 37.5 14.9817 37.5988 14.8058 37.7746C14.63 37.9504 14.5312 38.1889 14.5312 38.4375C14.5312 38.6861 14.63 38.9246 14.8058 39.1004C14.9817 39.2762 15.2201 39.375 15.4688 39.375Z" fill="#CC0444"/>
<path d="M21.0938 39.375H22.9688C23.2174 39.375 23.4558 39.2762 23.6317 39.1004C23.8075 38.9246 23.9062 38.6861 23.9062 38.4375C23.9062 38.1889 23.8075 37.9504 23.6317 37.7746C23.4558 37.5988 23.2174 37.5 22.9688 37.5H21.0938C20.8451 37.5 20.6067 37.5988 20.4308 37.7746C20.255 37.9504 20.1562 38.1889 20.1562 38.4375C20.1562 38.6861 20.255 38.9246 20.4308 39.1004C20.6067 39.2762 20.8451 39.375 21.0938 39.375Z" fill="#CC0444"/>
<path d="M15.4688 35.625H17.3438C17.5924 35.625 17.8308 35.5262 18.0067 35.3504C18.1825 35.1746 18.2812 34.9361 18.2812 34.6875C18.2812 34.4389 18.1825 34.2004 18.0067 34.0246C17.8308 33.8488 17.5924 33.75 17.3438 33.75H15.4688C15.2201 33.75 14.9817 33.8488 14.8058 34.0246C14.63 34.2004 14.5312 34.4389 14.5312 34.6875C14.5312 34.9361 14.63 35.1746 14.8058 35.3504C14.9817 35.5262 15.2201 35.625 15.4688 35.625Z" fill="#CC0444"/>
<path d="M21.0938 35.625H22.9688C23.2174 35.625 23.4558 35.5262 23.6317 35.3504C23.8075 35.1746 23.9062 34.9361 23.9062 34.6875C23.9062 34.4389 23.8075 34.2004 23.6317 34.0246C23.4558 33.8488 23.2174 33.75 22.9688 33.75H21.0938C20.8451 33.75 20.6067 33.8488 20.4308 34.0246C20.255 34.2004 20.1562 34.4389 20.1562 34.6875C20.1562 34.9361 20.255 35.1746 20.4308 35.3504C20.6067 35.5262 20.8451 35.625 21.0938 35.625Z" fill="#CC0444"/>
<path d="M15.4688 31.875H17.3438C17.5924 31.875 17.8308 31.7762 18.0067 31.6004C18.1825 31.4246 18.2812 31.1861 18.2812 30.9375C18.2812 30.6889 18.1825 30.4504 18.0067 30.2746C17.8308 30.0988 17.5924 30 17.3438 30H15.4688C15.2201 30 14.9817 30.0988 14.8058 30.2746C14.63 30.4504 14.5312 30.6889 14.5312 30.9375C14.5312 31.1861 14.63 31.4246 14.8058 31.6004C14.9817 31.7762 15.2201 31.875 15.4688 31.875Z" fill="#CC0444"/>
<path d="M21.0938 31.875H22.9688C23.2174 31.875 23.4558 31.7762 23.6317 31.6004C23.8075 31.4246 23.9062 31.1861 23.9062 30.9375C23.9062 30.6889 23.8075 30.4504 23.6317 30.2746C23.4558 30.0988 23.2174 30 22.9688 30H21.0938C20.8451 30 20.6067 30.0988 20.4308 30.2746C20.255 30.4504 20.1562 30.6889 20.1562 30.9375C20.1562 31.1861 20.255 31.4246 20.4308 31.6004C20.6067 31.7762 20.8451 31.875 21.0938 31.875Z" fill="#CC0444"/>
<path d="M30.2344 43.125H31.4062C31.6549 43.125 31.8933 43.0262 32.0692 42.8504C32.245 42.6746 32.3438 42.4361 32.3438 42.1875C32.3438 41.9389 32.245 41.7004 32.0692 41.5246C31.8933 41.3488 31.6549 41.25 31.4062 41.25H30.2344C29.9857 41.25 29.7473 41.3488 29.5715 41.5246C29.3956 41.7004 29.2969 41.9389 29.2969 42.1875C29.2969 42.4361 29.3956 42.6746 29.5715 42.8504C29.7473 43.0262 29.9857 43.125 30.2344 43.125Z" fill="#CC0444"/>
<path d="M34.6875 43.125H35.8594C36.108 43.125 36.3465 43.0262 36.5223 42.8504C36.6981 42.6746 36.7969 42.4361 36.7969 42.1875C36.7969 41.9389 36.6981 41.7004 36.5223 41.5246C36.3465 41.3488 36.108 41.25 35.8594 41.25H34.6875C34.4389 41.25 34.2004 41.3488 34.0246 41.5246C33.8488 41.7004 33.75 41.9389 33.75 42.1875C33.75 42.4361 33.8488 42.6746 34.0246 42.8504C34.2004 43.0262 34.4389 43.125 34.6875 43.125Z" fill="#CC0444"/>
<path d="M30.2344 46.875H31.4062C31.6549 46.875 31.8933 46.7762 32.0692 46.6004C32.245 46.4246 32.3438 46.1861 32.3438 45.9375C32.3438 45.6889 32.245 45.4504 32.0692 45.2746C31.8933 45.0988 31.6549 45 31.4062 45H30.2344C29.9857 45 29.7473 45.0988 29.5715 45.2746C29.3956 45.4504 29.2969 45.6889 29.2969 45.9375C29.2969 46.1861 29.3956 46.4246 29.5715 46.6004C29.7473 46.7762 29.9857 46.875 30.2344 46.875Z" fill="#CC0444"/>
<path d="M34.6875 46.875H35.8594C36.108 46.875 36.3465 46.7762 36.5223 46.6004C36.6981 46.4246 36.7969 46.1861 36.7969 45.9375C36.7969 45.6889 36.6981 45.4504 36.5223 45.2746C36.3465 45.0988 36.108 45 35.8594 45H34.6875C34.4389 45 34.2004 45.0988 34.0246 45.2746C33.8488 45.4504 33.75 45.6889 33.75 45.9375C33.75 46.1861 33.8488 46.4246 34.0246 46.6004C34.2004 46.7762 34.4389 46.875 34.6875 46.875Z" fill="#CC0444"/>
<path d="M30.2344 39.375H31.4062C31.6549 39.375 31.8933 39.2762 32.0692 39.1004C32.245 38.9246 32.3438 38.6861 32.3438 38.4375C32.3438 38.1889 32.245 37.9504 32.0692 37.7746C31.8933 37.5988 31.6549 37.5 31.4062 37.5H30.2344C29.9857 37.5 29.7473 37.5988 29.5715 37.7746C29.3956 37.9504 29.2969 38.1889 29.2969 38.4375C29.2969 38.6861 29.3956 38.9246 29.5715 39.1004C29.7473 39.2762 29.9857 39.375 30.2344 39.375Z" fill="#CC0444"/>
<path d="M34.6875 39.375H35.8594C36.108 39.375 36.3465 39.2762 36.5223 39.1004C36.6981 38.9246 36.7969 38.6861 36.7969 38.4375C36.7969 38.1889 36.6981 37.9504 36.5223 37.7746C36.3465 37.5988 36.108 37.5 35.8594 37.5H34.6875C34.4389 37.5 34.2004 37.5988 34.0246 37.7746C33.8488 37.9504 33.75 38.1889 33.75 38.4375C33.75 38.6861 33.8488 38.9246 34.0246 39.1004C34.2004 39.2762 34.4389 39.375 34.6875 39.375Z" fill="#CC0444"/>
<path d="M30.2344 35.625H31.4062C31.6549 35.625 31.8933 35.5262 32.0692 35.3504C32.245 35.1746 32.3438 34.9361 32.3438 34.6875C32.3438 34.4389 32.245 34.2004 32.0692 34.0246C31.8933 33.8488 31.6549 33.75 31.4062 33.75H30.2344C29.9857 33.75 29.7473 33.8488 29.5715 34.0246C29.3956 34.2004 29.2969 34.4389 29.2969 34.6875C29.2969 34.9361 29.3956 35.1746 29.5715 35.3504C29.7473 35.5262 29.9857 35.625 30.2344 35.625Z" fill="#CC0444"/>
<path d="M34.6875 35.625H35.8594C36.108 35.625 36.3465 35.5262 36.5223 35.3504C36.6981 35.1746 36.7969 34.9361 36.7969 34.6875C36.7969 34.4389 36.6981 34.2004 36.5223 34.0246C36.3465 33.8488 36.108 33.75 35.8594 33.75H34.6875C34.4389 33.75 34.2004 33.8488 34.0246 34.0246C33.8488 34.2004 33.75 34.4389 33.75 34.6875C33.75 34.9361 33.8488 35.1746 34.0246 35.3504C34.2004 35.5262 34.4389 35.625 34.6875 35.625Z" fill="#CC0444"/>
<path d="M30.2344 31.875H31.4062C31.6549 31.875 31.8933 31.7762 32.0692 31.6004C32.245 31.4246 32.3438 31.1861 32.3438 30.9375C32.3438 30.6889 32.245 30.4504 32.0692 30.2746C31.8933 30.0988 31.6549 30 31.4062 30H30.2344C29.9857 30 29.7473 30.0988 29.5715 30.2746C29.3956 30.4504 29.2969 30.6889 29.2969 30.9375C29.2969 31.1861 29.3956 31.4246 29.5715 31.6004C29.7473 31.7762 29.9857 31.875 30.2344 31.875Z" fill="#CC0444"/>
<path d="M34.6875 31.875H35.8594C36.108 31.875 36.3465 31.7762 36.5223 31.6004C36.6981 31.4246 36.7969 31.1861 36.7969 30.9375C36.7969 30.6889 36.6981 30.4504 36.5223 30.2746C36.3465 30.0988 36.108 30 35.8594 30H34.6875C34.4389 30 34.2004 30.0988 34.0246 30.2746C33.8488 30.4504 33.75 30.6889 33.75 30.9375C33.75 31.1861 33.8488 31.4246 34.0246 31.6004C34.2004 31.7762 34.4389 31.875 34.6875 31.875Z" fill="#CC0444"/>
<path d="M30.2344 28.125H31.4062C31.6549 28.125 31.8933 28.0262 32.0692 27.8504C32.245 27.6746 32.3438 27.4361 32.3438 27.1875C32.3438 26.9389 32.245 26.7004 32.0692 26.5246C31.8933 26.3488 31.6549 26.25 31.4062 26.25H30.2344C29.9857 26.25 29.7473 26.3488 29.5715 26.5246C29.3956 26.7004 29.2969 26.9389 29.2969 27.1875C29.2969 27.4361 29.3956 27.6746 29.5715 27.8504C29.7473 28.0262 29.9857 28.125 30.2344 28.125Z" fill="#CC0444"/>
<path d="M34.6875 28.125H35.8594C36.108 28.125 36.3465 28.0262 36.5223 27.8504C36.6981 27.6746 36.7969 27.4361 36.7969 27.1875C36.7969 26.9389 36.6981 26.7004 36.5223 26.5246C36.3465 26.3488 36.108 26.25 35.8594 26.25H34.6875C34.4389 26.25 34.2004 26.3488 34.0246 26.5246C33.8488 26.7004 33.75 26.9389 33.75 27.1875C33.75 27.4361 33.8488 27.6746 34.0246 27.8504C34.2004 28.0262 34.4389 28.125 34.6875 28.125Z" fill="#CC0444"/>
<path d="M11.7188 16.875C13.3875 16.875 15.0188 16.3802 16.4064 15.453C17.7939 14.5259 18.8754 13.2081 19.514 11.6664C20.1526 10.1246 20.3197 8.42814 19.9941 6.79143C19.6686 5.15471 18.865 3.6513 17.685 2.47129C16.505 1.29128 15.0015 0.487691 13.3648 0.162128C11.7281 -0.163435 10.0316 0.00365585 8.48986 0.64227C6.94811 1.28088 5.63035 2.36234 4.70323 3.74988C3.7761 5.13742 3.28125 6.76872 3.28125 8.4375C3.28373 10.6745 4.17348 12.8192 5.75528 14.401C7.33708 15.9828 9.48175 16.8725 11.7188 16.875ZM11.7188 1.875C13.0167 1.875 14.2855 2.25989 15.3647 2.98098C16.4439 3.70208 17.285 4.727 17.7817 5.92614C18.2784 7.12528 18.4084 8.44478 18.1552 9.71778C17.9019 10.9908 17.2769 12.1601 16.3591 13.0779C15.4414 13.9957 14.272 14.6207 12.999 14.8739C11.726 15.1271 10.4065 14.9972 9.20739 14.5005C8.00825 14.0038 6.98333 13.1626 6.26223 12.0834C5.54113 11.0042 5.15625 9.73544 5.15625 8.4375C5.15824 6.69763 5.85028 5.02959 7.08055 3.79931C8.31083 2.56903 9.97888 1.87699 11.7188 1.875Z" fill="#CC0444"/>
<path d="M11.7187 9.375C11.8907 9.3741 12.0597 9.42054 12.207 9.50924C12.3544 9.59794 12.4745 9.72548 12.5543 9.87789C12.634 10.0303 12.6703 10.2017 12.6591 10.3734C12.6479 10.545 12.5898 10.7103 12.491 10.8511C12.3921 10.9919 12.2565 11.1028 12.0989 11.1716C11.9412 11.2405 11.7677 11.2646 11.5973 11.2414C11.4268 11.2182 11.266 11.1486 11.1325 11.0402C10.999 10.9317 10.8979 10.7886 10.8403 10.6266C10.8006 10.5088 10.7379 10.4002 10.6559 10.3069C10.5739 10.2136 10.4742 10.1376 10.3625 10.0832C10.2508 10.0287 10.1295 9.99707 10.0055 9.98997C9.88144 9.98287 9.75726 10.0005 9.64011 10.0418C9.52296 10.0831 9.41519 10.1473 9.32306 10.2306C9.23093 10.3139 9.15627 10.4147 9.10343 10.5271C9.05058 10.6395 9.02061 10.7613 9.01524 10.8854C9.00987 11.0095 9.02921 11.1334 9.07215 11.25C9.24409 11.7363 9.54648 12.166 9.94623 12.492C10.346 12.8181 10.8277 13.0279 11.3387 13.0985C11.8496 13.1691 12.3702 13.0979 12.8434 12.8925C13.3166 12.6872 13.7242 12.3557 14.0217 11.9342C14.3191 11.5128 14.4949 11.0176 14.5298 10.503C14.5648 9.98832 14.4575 9.47397 14.2197 9.0162C13.982 8.55842 13.6229 8.17484 13.1818 7.90743C12.7407 7.64001 12.2345 7.49906 11.7187 7.5C11.5467 7.50089 11.3778 7.45445 11.2304 7.36575C11.083 7.27705 10.9629 7.14951 10.8831 6.9971C10.8034 6.84469 10.7671 6.67328 10.7783 6.50163C10.7895 6.32998 10.8477 6.16472 10.9465 6.02392C11.0453 5.88313 11.1809 5.77224 11.3386 5.70339C11.4962 5.63454 11.6697 5.61038 11.8402 5.63356C12.0106 5.65674 12.1714 5.72637 12.3049 5.83482C12.4384 5.94327 12.5395 6.08636 12.5971 6.24843C12.6368 6.36615 12.6995 6.4748 12.7815 6.56809C12.8635 6.66137 12.9633 6.73743 13.0749 6.79184C13.1866 6.84624 13.308 6.87792 13.432 6.88502C13.556 6.89212 13.6802 6.87451 13.7973 6.8332C13.9145 6.7919 14.0222 6.72772 14.1144 6.64441C14.2065 6.5611 14.2811 6.4603 14.334 6.34789C14.3868 6.23548 14.4168 6.11368 14.4222 5.98958C14.4276 5.86548 14.4082 5.74155 14.3653 5.625C14.1933 5.13866 13.8909 4.70898 13.4912 4.38296C13.0914 4.05694 12.6097 3.84713 12.0988 3.7765C11.5878 3.70586 11.0672 3.77711 10.594 3.98246C10.1208 4.1878 9.7132 4.51933 9.41576 4.94078C9.11832 5.36223 8.94252 5.85736 8.90758 6.37202C8.87265 6.88667 8.97992 7.40102 9.21767 7.8588C9.45543 8.31658 9.8145 8.70015 10.2556 8.96757C10.6967 9.23498 11.2029 9.37593 11.7187 9.375Z" fill="#CC0444"/>
<path d="M11.7188 22.5C11.9674 22.5 12.2058 22.4012 12.3817 22.2254C12.5575 22.0496 12.6562 21.8111 12.6562 21.5625V19.2188C12.6562 18.9701 12.5575 18.7317 12.3817 18.5558C12.2058 18.38 11.9674 18.2812 11.7188 18.2812C11.4701 18.2812 11.2317 18.38 11.0558 18.5558C10.88 18.7317 10.7812 18.9701 10.7812 19.2188V21.5625C10.7812 21.8111 10.88 22.0496 11.0558 22.2254C11.2317 22.4012 11.4701 22.5 11.7188 22.5Z" fill="#CC0444"/>
<path d="M48.2812 22.5C49.95 22.5 51.5813 22.0052 52.9689 21.078C54.3564 20.1509 55.4379 18.8331 56.0765 17.2914C56.7151 15.7496 56.8822 14.0531 56.5566 12.4164C56.2311 10.7797 55.4275 9.2763 54.2475 8.09629C53.0675 6.91628 51.564 6.11269 49.9273 5.78713C48.2906 5.46157 46.5941 5.62866 45.0524 6.26727C43.5106 6.90588 42.1928 7.98734 41.2657 9.37488C40.3386 10.7624 39.8438 12.3937 39.8438 14.0625C39.8462 16.2995 40.736 18.4442 42.3178 20.026C43.8996 21.6078 46.0442 22.4975 48.2812 22.5ZM48.2812 7.5C49.5792 7.5 50.848 7.88489 51.9272 8.60598C53.0064 9.32708 53.8475 10.352 54.3442 11.5511C54.8409 12.7503 54.9709 14.0698 54.7177 15.3428C54.4644 16.6158 53.8394 17.7851 52.9216 18.7029C52.0039 19.6207 50.8345 20.2457 49.5615 20.4989C48.2885 20.7521 46.969 20.6222 45.7699 20.1255C44.5708 19.6288 43.5458 18.7876 42.8247 17.7084C42.1036 16.6292 41.7188 15.3604 41.7188 14.0625C41.7207 12.3226 42.4128 10.6546 43.6431 9.42431C44.8733 8.19403 46.5414 7.50199 48.2812 7.5Z" fill="#CC0444"/>
<path d="M48.2812 15C48.4532 14.9991 48.6222 15.0455 48.7695 15.1342C48.9169 15.2229 49.037 15.3505 49.1168 15.5029C49.1965 15.6553 49.2328 15.8267 49.2216 15.9984C49.2104 16.17 49.1523 16.3353 49.0534 16.4761C48.9546 16.6169 48.819 16.7278 48.6614 16.7966C48.5037 16.8655 48.3302 16.8896 48.1598 16.8664C47.9893 16.8432 47.8285 16.7736 47.695 16.6652C47.5615 16.5567 47.4604 16.4136 47.4028 16.2516C47.3631 16.1338 47.3004 16.0252 47.2184 15.9319C47.1364 15.8386 47.0367 15.7626 46.925 15.7082C46.8133 15.6537 46.692 15.6221 46.568 15.615C46.4439 15.6079 46.3198 15.6255 46.2026 15.6668C46.0855 15.7081 45.9777 15.7723 45.8856 15.8556C45.7934 15.9389 45.7188 16.0397 45.6659 16.1521C45.6131 16.2645 45.5831 16.3863 45.5777 16.5104C45.5724 16.6345 45.5917 16.7584 45.6346 16.875C45.8066 17.3613 46.109 17.791 46.5087 18.117C46.9085 18.4431 47.3902 18.6529 47.9012 18.7235C48.4121 18.7941 48.9327 18.7229 49.4059 18.5175C49.8791 18.3122 50.2867 17.9807 50.5842 17.5592C50.8816 17.1378 51.0574 16.6426 51.0923 16.128C51.1273 15.6133 51.02 15.099 50.7822 14.6412C50.5445 14.1834 50.1854 13.7998 49.7443 13.5324C49.3032 13.265 48.797 13.1241 48.2812 13.125C48.1092 13.1259 47.9403 13.0795 47.7929 12.9908C47.6455 12.9021 47.5254 12.7745 47.4456 12.6221C47.3659 12.4697 47.3296 12.2983 47.3408 12.1266C47.352 11.955 47.4102 11.7897 47.509 11.6489C47.6078 11.5081 47.7434 11.3972 47.9011 11.3284C48.0587 11.2595 48.2322 11.2354 48.4027 11.2586C48.5731 11.2817 48.7339 11.3514 48.8674 11.4598C49.0009 11.5683 49.102 11.7114 49.1596 11.8734C49.1993 11.9911 49.262 12.0998 49.344 12.1931C49.426 12.2864 49.5258 12.3624 49.6374 12.4168C49.7491 12.4712 49.8705 12.5029 49.9945 12.51C50.1185 12.5171 50.2427 12.4995 50.3598 12.4582C50.477 12.4169 50.5847 12.3527 50.6769 12.2694C50.769 12.1861 50.8436 12.0853 50.8965 11.9729C50.9493 11.8605 50.9793 11.7387 50.9847 11.6146C50.9901 11.4905 50.9707 11.3666 50.9278 11.25C50.7558 10.7637 50.4534 10.334 50.0537 10.008C49.6539 9.68194 49.1722 9.47213 48.6613 9.4015C48.1503 9.33086 47.6297 9.40211 47.1565 9.60746C46.6833 9.8128 46.2757 10.1443 45.9783 10.5658C45.6808 10.9872 45.505 11.4824 45.4701 11.997C45.4351 12.5117 45.5424 13.026 45.7802 13.4838C46.0179 13.9416 46.377 14.3252 46.8181 14.5926C47.2592 14.86 47.7654 15.0009 48.2812 15Z" fill="#CC0444"/>
<path d="M47.3438 24.8438V27.1875C47.3438 27.4361 47.4425 27.6746 47.6183 27.8504C47.7942 28.0262 48.0326 28.125 48.2812 28.125C48.5299 28.125 48.7683 28.0262 48.9442 27.8504C49.12 27.6746 49.2188 27.4361 49.2188 27.1875V24.8438C49.2188 24.5951 49.12 24.3567 48.9442 24.1808C48.7683 24.005 48.5299 23.9062 48.2812 23.9062C48.0326 23.9062 47.7942 24.005 47.6183 24.1808C47.4425 24.3567 47.3438 24.5951 47.3438 24.8438Z" fill="#CC0444"/>
</g>
<defs>
<clipPath id="clip0_22_2068">
<rect width="60" height="60" fill="white"/>
</clipPath>
</defs>
</svg>
