<svg width="60" height="60" viewBox="0 0 60 60" fill="none" xmlns="http://www.w3.org/2000/svg">
<g clip-path="url(#clip0_22_2097)">
<path d="M14.7385 18.0354C6.62677 18.0354 0.0273438 24.6348 0.0273438 32.7466C0.0273438 37.7829 2.42313 43.198 7.14826 48.8412C7.85033 49.6797 8.54994 50.4567 9.22131 51.1655C6.17044 51.9983 4.33868 53.4944 4.33868 55.2406C4.33868 58.3319 9.69674 60 14.738 60C19.7795 60 25.1374 58.3318 25.1374 55.2406C25.1374 53.4958 23.3062 51.9993 20.2573 51.1662C21.4754 49.8803 22.786 48.3675 24.0296 46.6799C24.3179 46.2887 24.2345 45.738 23.8433 45.4497C23.4524 45.1618 22.9013 45.245 22.6131 45.6362C21.1116 47.6737 19.4865 49.4643 18.0684 50.8866C17.9059 50.9696 17.7699 51.1013 17.6847 51.2674C16.4144 52.5158 15.3454 53.4419 14.7389 53.9479C14.139 53.4468 13.0863 52.5332 11.8322 51.3011C11.7422 51.1039 11.5842 50.9492 11.3913 50.863C7.40607 46.8546 1.78692 39.9292 1.78692 32.7468C1.78692 25.6054 7.59697 19.7953 14.7384 19.7953C21.8798 19.7953 27.6899 25.6054 27.6899 32.7468C27.6899 35.8655 26.6272 39.2335 24.5314 42.7572C24.2831 43.175 24.4202 43.7149 24.8379 43.9632C25.2555 44.2115 25.7955 44.0744 26.0438 43.6567C28.3037 39.857 29.4496 36.1865 29.4496 32.7468C29.4497 24.6348 22.8502 18.0354 14.7385 18.0354ZM14.2 55.7779C14.3585 55.9006 14.5485 55.9619 14.7385 55.9619C14.9285 55.9619 15.1184 55.9006 15.277 55.7779C15.3849 55.6944 16.8551 54.5478 18.8149 52.6317C21.7823 53.2368 23.3779 54.402 23.3779 55.2407C23.3779 55.8671 22.5194 56.6061 21.1374 57.1692C19.4424 57.86 17.1698 58.2405 14.7382 58.2405C9.464 58.2405 6.09837 56.4637 6.09837 55.2407C6.09837 54.4009 7.69447 53.2363 10.6635 52.6311C12.6342 54.5586 14.1065 55.7055 14.2 55.7779Z" fill="#CC0444"/>
<path d="M14.7385 26.3501C13.3469 26.3501 12.0236 26.7894 10.9117 27.6206C10.5227 27.9116 10.443 28.463 10.7339 28.8522C11.0249 29.2412 11.5763 29.3208 11.9654 29.0301C12.7706 28.4281 13.7295 28.1098 14.7384 28.1098C17.2951 28.1098 19.375 30.1898 19.375 32.7466C19.375 35.3032 17.2951 37.3832 14.7384 37.3832C12.1817 37.3832 10.1017 35.3031 10.1017 32.7466C10.1017 32.3103 10.1621 31.8789 10.281 31.4648C10.4151 30.9978 10.1452 30.5105 9.67823 30.3763C9.21135 30.2427 8.72397 30.5123 8.58979 30.9792C8.42561 31.5515 8.34229 32.146 8.34229 32.7466C8.34229 36.2734 11.2116 39.1429 14.7386 39.1429C18.2655 39.1429 21.135 36.2736 21.135 32.7466C21.1348 29.2196 18.2654 26.3501 14.7385 26.3501Z" fill="#CC0444"/>
<path d="M53.0811 25.5611C53.5287 25.0808 53.9898 24.5632 54.4523 24.0108C58.1153 19.6359 59.9726 15.4301 59.9726 11.5101C59.9726 5.16353 54.8092 0 48.4626 0C43.8263 0 39.6634 2.7593 37.8574 7.02962C37.6681 7.47716 37.8775 7.99349 38.3249 8.18263C38.7723 8.37177 39.2888 8.16259 39.4779 7.71517C41.0081 4.09735 44.5348 1.75957 48.4626 1.75957C53.839 1.75957 58.2131 6.13372 58.2131 11.5102C58.2131 18.7809 50.5797 25.7466 48.4622 27.5385C47.9956 27.1442 47.261 26.4987 46.3998 25.6545C46.3139 25.4842 46.1752 25.3492 46.0085 25.2657C42.9707 22.207 38.7121 16.9491 38.7121 11.5102C38.7121 11.0242 38.3183 10.6303 37.8322 10.6303C37.3464 10.6303 36.9524 11.0242 36.9524 11.5102C36.9524 15.4301 38.8097 19.6359 42.4729 24.0109C42.9352 24.563 43.396 25.0803 43.8434 25.5605C41.5753 26.242 40.266 27.4019 40.266 28.7986C40.266 29.9766 41.2215 31.0148 42.9569 31.7218C44.4416 32.3268 46.3969 32.6601 48.4625 32.6601C50.5279 32.6601 52.4832 32.3268 53.9681 31.7218C55.703 31.0147 56.6586 29.9765 56.6586 28.7985C56.6584 27.4043 55.3482 26.2434 53.0811 25.5611ZM48.4623 30.9003C44.2976 30.9003 42.0257 29.5119 42.0257 28.7984C42.0257 28.3336 43.0592 27.4831 45.266 27.0139C46.7509 28.4587 47.8531 29.3172 47.9242 29.3724C48.0828 29.4951 48.2727 29.5564 48.4627 29.5564C48.6527 29.5564 48.8425 29.4951 49.0012 29.3724C49.0723 29.3174 50.1742 28.4588 51.6591 27.0141C52.6423 27.2238 53.494 27.5309 54.09 27.8937C54.5966 28.2024 54.8991 28.5406 54.8991 28.7984C54.8989 29.5119 52.627 30.9003 48.4623 30.9003Z" fill="#CC0444"/>
<path d="M48.4627 6.3905C45.6398 6.3905 43.343 8.68715 43.343 11.5103C43.343 14.3333 45.6397 16.6299 48.4627 16.6299C51.2858 16.6299 53.5824 14.3334 53.5824 11.5103C53.5824 8.68727 51.2858 6.3905 48.4627 6.3905ZM48.4628 14.8702C46.6099 14.8702 45.1027 13.3629 45.1027 11.5102C45.1027 9.65746 46.61 8.15008 48.4628 8.15008C50.3156 8.15008 51.823 9.65735 51.823 11.5102C51.8228 13.3629 50.3156 14.8702 48.4628 14.8702Z" fill="#CC0444"/>
<path d="M37.0498 27.9187H36.6481C36.3556 27.9187 36.0617 27.938 35.7741 27.9764C35.2926 28.0405 34.954 28.4827 35.018 28.9646C35.077 29.407 35.4548 29.7285 35.8891 29.7285C35.9277 29.7285 35.9669 29.7261 36.0063 29.7208C36.2171 29.6928 36.4331 29.6786 36.6482 29.6786H37.0498V29.6785C37.5358 29.6785 37.9297 29.2848 37.9297 28.7987C37.9297 28.3126 37.5358 27.9187 37.0498 27.9187Z" fill="#CC0444"/>
<path d="M34.1411 54.316C34.1397 54.316 34.1384 54.316 34.137 54.316L32.975 54.3213C32.4891 54.3235 32.097 54.7193 32.0991 55.2051C32.1012 55.6897 32.4949 56.081 32.9789 56.081C32.9803 56.081 32.9816 56.081 32.983 56.081L34.145 56.0757C34.6309 56.0735 35.023 55.6778 35.0209 55.1919C35.0187 54.7072 34.6252 54.316 34.1411 54.316Z" fill="#CC0444"/>
<path d="M38.0936 39.3152H36.9316C36.4456 39.3152 36.0518 39.7092 36.0518 40.195C36.0518 40.681 36.4455 41.0749 36.9316 41.0749H38.0936C38.5796 41.0749 38.9735 40.6811 38.9735 40.195C38.9735 39.7092 38.5797 39.3152 38.0936 39.3152Z" fill="#CC0444"/>
<path d="M33.4317 29.7114C33.1023 29.3544 32.5459 29.3319 32.1885 29.6612C31.8605 29.9637 31.5621 30.3008 31.3017 30.6634C31.0183 31.0582 31.1085 31.6079 31.5032 31.8914C31.6585 32.003 31.838 32.0566 32.0158 32.0566C32.2894 32.0566 32.5592 31.9293 32.7311 31.69C32.9221 31.4241 33.141 31.1766 33.3816 30.9546C33.7388 30.6252 33.7612 30.0686 33.4317 29.7114Z" fill="#CC0444"/>
<path d="M38.7894 54.2947C38.788 54.2947 38.7868 54.2947 38.7853 54.2947L37.6234 54.3C37.1376 54.3021 36.7455 54.6979 36.7476 55.1838C36.7497 55.6684 37.1433 56.0596 37.6273 56.0596C37.6287 56.0596 37.63 56.0596 37.6314 56.0596L38.7933 56.0544C39.2792 56.0523 39.6713 55.6564 39.6692 55.1705C39.6669 54.686 39.2734 54.2947 38.7894 54.2947Z" fill="#CC0444"/>
<path d="M29.4927 54.337C29.4913 54.337 29.49 54.337 29.4886 54.337L28.3266 54.3423C27.8407 54.3445 27.4486 54.7403 27.4507 55.2261C27.4529 55.7107 27.8462 56.102 28.3304 56.102C28.3318 56.102 28.3331 56.102 28.3345 56.102L29.4966 56.0967C29.9824 56.0945 30.3745 55.6988 30.3724 55.2129C30.3703 54.7282 29.9768 54.337 29.4927 54.337Z" fill="#CC0444"/>
<path d="M34.0815 38.5757C33.8051 38.4013 33.545 38.1976 33.3089 37.9706C32.9586 37.6337 32.4015 37.6449 32.0648 37.9948C31.7279 38.3449 31.7388 38.9019 32.089 39.2387C32.411 39.5485 32.7655 39.8261 33.1426 40.064C33.2884 40.156 33.4507 40.1998 33.6113 40.1998C33.9033 40.1998 34.1889 40.0546 34.3563 39.7892C34.6157 39.3783 34.4925 38.8349 34.0815 38.5757Z" fill="#CC0444"/>
<path d="M31.9188 35.4243C31.8598 35.121 31.8298 34.8091 31.8298 34.4969L31.83 34.448C31.8357 33.9622 31.4464 33.5637 30.9605 33.5581C30.9571 33.558 30.9535 33.558 30.95 33.558C30.4689 33.558 30.076 33.9452 30.0704 34.4276L30.0701 34.497C30.0701 34.9219 30.111 35.3472 30.1916 35.761C30.2734 36.1811 30.6416 36.4726 31.0542 36.4726C31.1099 36.4726 31.1666 36.4673 31.2233 36.4562C31.7004 36.3632 32.0116 35.9013 31.9188 35.4243Z" fill="#CC0444"/>
<path d="M42.7423 39.3152H41.5803C41.0943 39.3152 40.7004 39.7092 40.7004 40.195C40.7004 40.681 41.0943 41.0749 41.5803 41.0749H42.7423C43.2283 41.0749 43.6222 40.6811 43.6222 40.195C43.6222 39.7092 43.2283 39.3152 42.7423 39.3152Z" fill="#CC0444"/>
<path d="M56.8682 41.1066C56.5292 40.839 56.1669 40.596 55.791 40.3845C55.3681 40.1459 54.8313 40.2958 54.5927 40.7192C54.3542 41.1424 54.504 41.6792 54.9274 41.9175C55.2239 42.0848 55.51 42.2765 55.7776 42.4878C55.9393 42.6154 56.1312 42.6771 56.3223 42.6771C56.5822 42.6771 56.8398 42.5623 57.0134 42.3425C57.3146 41.961 57.2497 41.4076 56.8682 41.1066Z" fill="#CC0444"/>
<path d="M53.6022 54.9252C53.5354 54.4439 53.0905 54.107 52.6102 54.174C52.322 54.2139 52.0269 54.2348 51.7327 54.236L51.568 54.2368C51.082 54.2393 50.69 54.6352 50.6924 55.1209C50.6949 55.6054 51.0883 55.9965 51.5721 55.9965C51.5736 55.9965 51.575 55.9965 51.5765 55.9965L51.7408 55.9957C52.1124 55.9941 52.4859 55.9677 52.851 55.9172C53.3325 55.8506 53.6687 55.4064 53.6022 54.9252Z" fill="#CC0444"/>
<path d="M57.4853 52.451C57.15 52.0989 56.593 52.0855 56.2415 52.4207C55.9946 52.6559 55.7274 52.8737 55.4472 53.068C55.0479 53.3448 54.9487 53.893 55.2253 54.2925C55.3963 54.5389 55.6704 54.6711 55.9492 54.6711C56.1222 54.6711 56.2968 54.6202 56.4497 54.5143C56.8043 54.2683 57.1426 53.9927 57.4552 53.6949C57.8071 53.3596 57.8205 52.8027 57.4853 52.451Z" fill="#CC0444"/>
<path d="M59.1977 48.1779C58.7209 48.0881 58.2603 48.4021 58.1703 48.8797C58.1071 49.2145 58.0174 49.5467 57.9031 49.8673C57.74 50.3249 57.9787 50.8283 58.4364 50.9915C58.5341 51.0263 58.6339 51.0428 58.732 51.0428C59.0934 51.0428 59.4323 50.8183 59.5607 50.4583C59.7057 50.0517 59.8197 49.6301 59.8998 49.2053C59.9894 48.7278 59.6751 48.2677 59.1977 48.1779Z" fill="#CC0444"/>
<path d="M59.7202 45.3498C59.6009 44.9344 59.4478 44.5252 59.2648 44.1329C59.0593 43.6925 58.5361 43.5022 58.0954 43.7075C57.6551 43.9131 57.4647 44.4366 57.6701 44.877C57.8143 45.1857 57.935 45.5082 58.0288 45.8352C58.1396 46.2211 58.4916 46.4726 58.8741 46.4726C58.9546 46.4726 59.0362 46.4614 59.1173 46.4382C59.5843 46.3041 59.8541 45.8168 59.7202 45.3498Z" fill="#CC0444"/>
<path d="M47.3905 39.3152H46.2285C45.7425 39.3152 45.3486 39.7092 45.3486 40.195C45.3486 40.681 45.7424 41.0749 46.2285 41.0749H47.3905C47.8765 41.0749 48.2704 40.6811 48.2704 40.195C48.2704 39.7092 47.8765 39.3152 47.3905 39.3152Z" fill="#CC0444"/>
<path d="M43.4378 54.2737C43.4363 54.2737 43.4351 54.2737 43.4337 54.2737L42.2716 54.279C41.7858 54.2811 41.3937 54.6769 41.3958 55.1628C41.398 55.6474 41.7915 56.0386 42.2755 56.0386C42.2769 56.0386 42.2782 56.0386 42.2796 56.0386L43.4416 56.0334C43.9275 56.0311 44.3196 55.6354 44.3175 55.1495C44.3154 54.665 43.9217 54.2737 43.4378 54.2737Z" fill="#CC0444"/>
<path d="M52.0777 39.3236C51.9533 39.318 51.8272 39.3153 51.7032 39.3153H50.8769C50.3909 39.3153 49.9971 39.7093 49.9971 40.1952C49.9971 40.6811 50.3908 41.075 50.8769 41.075H51.7032V41.0749C51.8027 41.0749 51.9016 41.0771 51.9999 41.0814C52.0132 41.0821 52.0264 41.0824 52.0395 41.0824C52.5075 41.0824 52.897 40.7137 52.9177 40.2416C52.9392 39.7559 52.5631 39.3451 52.0777 39.3236Z" fill="#CC0444"/>
<path d="M48.086 54.2527C48.0845 54.2527 48.0833 54.2527 48.0819 54.2527L46.9198 54.258C46.434 54.2601 46.0418 54.6559 46.044 55.1418C46.0462 55.6264 46.4397 56.0177 46.9237 56.0177C46.9251 56.0177 46.9265 56.0177 46.9278 56.0177L48.0898 56.0124C48.5757 56.0102 48.9678 55.6144 48.9657 55.1285C48.9636 54.6439 48.5701 54.2527 48.086 54.2527Z" fill="#CC0444"/>
</g>
<defs>
<clipPath id="clip0_22_2097">
<rect width="60" height="60" fill="white"/>
</clipPath>
</defs>
</svg>
