<svg width="60" height="60" viewBox="0 0 60 60" fill="none" xmlns="http://www.w3.org/2000/svg">
<path d="M26.9551 4.83137L29.2946 2.15879C29.4728 1.95547 29.7298 1.83887 30.0001 1.83887C30.2704 1.83887 30.5275 1.95547 30.7056 2.15879L33.0452 4.83125C33.3862 5.22078 33.3469 5.81305 32.9573 6.15418C32.5679 6.4952 31.9755 6.45594 31.6344 6.06629L30.9375 5.27047V12.1107C34.5562 12.2809 38.0262 13.4353 41.0264 15.4753C41.4546 15.7664 41.5657 16.3495 41.2745 16.7777C41.0931 17.0445 40.7985 17.1881 40.4985 17.1881C40.317 17.1881 40.1336 17.1355 39.9722 17.0258C37.026 15.0226 33.5777 13.9637 30 13.9637C29.4823 13.9637 29.0625 13.5439 29.0625 13.0262V5.27059L28.3659 6.06641C28.1805 6.27816 27.921 6.38633 27.6602 6.38633C27.4411 6.38633 27.2209 6.30992 27.043 6.1543C26.6534 5.81316 26.614 5.2209 26.9551 4.83137ZM59.5629 31.0161L56.8903 28.6766C56.5008 28.3355 55.9085 28.3748 55.5674 28.7645C55.2264 29.1541 55.2657 29.7464 55.6553 30.0874L56.4511 30.7841H48.6954C48.1777 30.7841 47.7579 31.2038 47.7579 31.7216C47.7579 35.2991 46.6991 38.7474 44.6958 41.6936C44.4047 42.1218 44.5158 42.7048 44.9439 42.9961C45.1052 43.1059 45.2886 43.1584 45.4702 43.1584C45.7702 43.1584 46.0648 43.0146 46.2462 42.7479C48.2861 39.7477 49.4406 36.2773 49.6109 32.6591H56.4511L55.6553 33.3557C55.2657 33.6968 55.2264 34.289 55.5674 34.6787C55.7528 34.8904 56.0123 34.9986 56.2731 34.9986C56.4922 34.9986 56.7124 34.9222 56.8903 34.7664L59.5628 32.4268C59.7661 32.2488 59.8827 31.9917 59.8827 31.7214C59.8828 31.4512 59.7662 31.1941 59.5629 31.0161ZM51.1675 48.5827C51.1331 48.0662 50.6868 47.6754 50.1698 47.7095C49.6533 47.7438 49.2622 48.1904 49.2966 48.7071L49.3666 49.7623L43.8826 44.2783C43.7067 44.1025 43.4682 44.0038 43.2196 44.0038C42.971 44.0038 42.7325 44.1025 42.5568 44.2784C42.1417 44.6935 41.7007 45.0929 41.246 45.4654C40.8455 45.7936 40.7868 46.3842 41.1149 46.7847C41.443 47.1852 42.0334 47.2439 42.4342 46.9159C42.6955 46.7018 42.9527 46.4797 43.2039 46.2513L48.0409 51.0883L46.9855 51.0182C46.4674 50.9841 46.0222 51.375 45.9879 51.8915C45.9536 52.4082 46.3446 52.8548 46.8612 52.8891L50.4052 53.1246C50.426 53.126 50.4466 53.1267 50.4674 53.1267C50.715 53.1267 50.9537 53.0285 51.1302 52.8521C51.3212 52.661 51.4206 52.3967 51.4027 52.1271L51.1675 48.5827ZM4.34473 33.3557L3.54891 32.6591H11.3047C11.8225 32.6591 12.2422 32.2393 12.2422 31.7216C12.2422 28.1439 13.301 24.6956 15.3042 21.7494C15.5953 21.3212 15.4842 20.7382 15.0561 20.447C14.628 20.1559 14.0449 20.267 13.7538 20.6952C11.7138 23.6954 10.5594 27.1653 10.3893 30.7841H3.54891L4.34484 30.0874C4.73438 29.7463 4.77375 29.154 4.43273 28.7645C4.0916 28.3748 3.49934 28.3355 3.1098 28.6766L0.437109 31.0162C0.233789 31.1943 0.117188 31.4513 0.117188 31.7217C0.117188 31.992 0.233789 32.249 0.437109 32.4272L3.10969 34.7667C3.28758 34.9224 3.50766 34.9987 3.72691 34.9987C3.98777 34.9987 4.24723 34.8904 4.43262 34.6788C4.77363 34.2891 4.73426 33.6968 4.34473 33.3557ZM8.83254 14.8604C8.86547 15.3559 9.27762 15.7358 9.76711 15.7358C9.78797 15.7358 9.80895 15.7351 9.83016 15.7337C10.3467 15.6993 10.7378 15.2527 10.7034 14.7361L10.6334 13.6808L16.1174 19.1648C16.2933 19.3406 16.5316 19.4394 16.7803 19.4394C17.029 19.4394 17.2673 19.3406 17.4432 19.1648C19.9752 16.6327 23.1622 14.9425 26.6596 14.2771C27.1683 14.1804 27.502 13.6896 27.4054 13.181C27.3084 12.6723 26.8179 12.3385 26.3092 12.4352C22.7471 13.1129 19.4769 14.7508 16.7959 17.1916L11.9591 12.3548L13.0145 12.4249C13.5298 12.4586 13.9778 12.0683 14.0121 11.5516C14.0464 11.0349 13.6554 10.5883 13.1388 10.554L9.59473 10.3187C9.32344 10.3004 9.0607 10.4001 8.86957 10.5912C8.67855 10.7824 8.57918 11.0466 8.59711 11.3163L8.83254 14.8604ZM12.5557 35.0619C12.4588 34.5532 11.9681 34.2195 11.4595 34.3162C10.9508 34.413 10.6171 34.9038 10.7138 35.4124C11.3916 38.9744 13.0295 42.2445 15.4703 44.9257L10.6334 49.7625L10.7034 48.7071C10.7378 48.1904 10.3467 47.7438 9.83016 47.7095C9.31547 47.6766 8.86688 48.0661 8.83254 48.5827L8.59711 52.1268C8.5793 52.3965 8.67855 52.6607 8.86957 52.8519C9.04605 53.0282 9.28477 53.1264 9.5325 53.1264C9.55313 53.1264 9.57398 53.1257 9.59461 53.1243L13.1387 52.8889C13.6553 52.8546 14.0463 52.408 14.012 51.8913C13.9775 51.3747 13.5335 50.9838 13.0144 51.018L11.959 51.0881L17.4431 45.6039C17.8092 45.2379 17.8092 44.6443 17.4431 44.2782C14.9112 41.7463 13.2211 38.5593 12.5557 35.0619ZM47.4443 28.3812C47.5298 28.8307 47.923 29.1437 48.3643 29.1437C48.4225 29.1437 48.4814 29.1383 48.5406 29.1269C49.0493 29.0301 49.383 28.5393 49.2864 28.0307C48.6086 24.4687 46.9703 21.1984 44.53 18.5175L49.3666 13.6807L49.2966 14.7362C49.2622 15.2527 49.6533 15.6995 50.1698 15.7337C50.1911 15.7351 50.212 15.7358 50.2329 15.7358C50.7224 15.7358 51.1345 15.3559 51.1675 14.8604L51.4028 11.3163C51.4206 11.0466 51.3213 10.7824 51.1302 10.5912C50.9392 10.4002 50.6752 10.3004 50.4052 10.3187L46.8612 10.5541C46.3446 10.5884 45.9536 11.035 45.9879 11.5517C46.0222 12.0684 46.4671 12.4583 46.9855 12.425L48.0408 12.3549L42.5566 17.8391C42.3809 18.0148 42.2821 18.2533 42.2821 18.502C42.2821 18.7507 42.3809 18.9891 42.5568 19.1649C45.0888 21.6968 46.7789 24.8838 47.4443 28.3812ZM38.0706 45.2928C37.4177 45.6819 37.0581 46.3146 37.0581 47.0743V50.695C37.0581 52.01 36.2012 53.128 35.0167 53.5218V54.212C35.0167 56.3895 33.2453 58.1611 31.0678 58.1611H28.9321C26.7546 58.1611 24.9832 56.3894 24.9832 54.212V53.5218C23.7988 53.128 22.9419 52.01 22.9419 50.695V47.0743C22.9419 46.3146 22.5824 45.6819 21.9293 45.2928C19.6212 43.9176 17.688 41.9627 16.3389 39.6396C14.948 37.2445 14.2127 34.5064 14.2127 31.7216C14.2127 23.0165 21.2948 15.9345 29.9999 15.9345C38.7049 15.9345 45.7871 23.0165 45.7871 31.7216C45.7871 34.5064 45.0519 37.2444 43.6609 39.6396C42.312 41.9627 40.3787 43.9176 38.0706 45.2928ZM33.1418 54.212V53.6738H26.8582V54.212C26.8582 55.3556 27.7884 56.2861 28.9321 56.2861H31.0678C32.2114 56.2862 33.1418 55.3557 33.1418 54.212ZM35.1831 50.695V49.3515H24.8169V50.695C24.8169 51.3037 25.3121 51.7988 25.9207 51.7988H34.0792C34.688 51.7989 35.1831 51.3037 35.1831 50.695ZM27.3496 32.4642C27.3496 31.48 26.5488 30.6793 25.5647 30.6793C24.5805 30.6793 23.7798 31.48 23.7798 32.4642C23.7798 33.5688 25.1612 34.7663 27.3497 35.3229V32.4642H27.3496ZM30.7754 37.4936C30.2659 37.5226 29.734 37.5226 29.2246 37.4936V47.4765H30.7754V37.4936ZM43.9123 31.7216C43.9123 24.0505 37.6712 17.8095 30 17.8095C22.3288 17.8095 16.0879 24.0505 16.0879 31.7216C16.0879 36.5995 18.6939 41.1825 22.8891 43.6821C24.1143 44.412 24.8169 45.6485 24.8169 47.0743V47.4765H27.3495V37.2486C24.1495 36.5782 21.9046 34.715 21.9046 32.4643C21.9046 30.4462 23.5465 28.8044 25.5645 28.8044C27.5824 28.8044 29.2243 30.4462 29.2243 32.4643V35.6151C29.7291 35.6485 30.2706 35.6485 30.7752 35.6151V32.4643C30.7752 30.4462 32.4171 28.8044 34.4351 28.8044C36.453 28.8044 38.095 30.4462 38.095 32.4643C38.095 34.715 35.85 36.5782 32.6501 37.2486V47.4765H35.1827V47.0743C35.1827 45.6485 35.8854 44.412 37.1105 43.6821C41.3061 41.1825 43.9123 36.5994 43.9123 31.7216ZM36.2203 32.4642C36.2203 31.48 35.4196 30.6793 34.4354 30.6793C33.4513 30.6793 32.6505 31.48 32.6505 32.4642V35.3229C34.8389 34.7663 36.2203 33.5689 36.2203 32.4642Z" fill="white"/>
</svg>
