<svg width="60" height="60" viewBox="0 0 60 60" fill="none" xmlns="http://www.w3.org/2000/svg">
<g clip-path="url(#clip0_22_2199)">
<path d="M56.1313 0H3.86901C1.73584 0 0 1.73584 0 3.86901V14.3724C0 14.8581 0.393676 15.2513 0.878905 15.2513C1.36459 15.2513 1.75827 14.8581 1.75827 14.3724V3.86901C1.75827 2.70492 2.70492 1.75827 3.86901 1.75827H56.1313C57.295 1.75827 58.2416 2.70492 58.2416 3.86901V56.1313C58.2416 57.295 57.295 58.2421 56.1313 58.2421H3.86901C2.70492 58.2421 1.75827 57.295 1.75827 56.1313V18.3577C1.75827 17.872 1.36459 17.4783 0.879362 17.4783C0.393676 17.4783 0 17.872 0 18.3577V56.1313C0 58.2645 1.73584 59.9999 3.86901 59.9999H56.1313C58.2645 59.9999 59.9999 58.2645 59.9999 56.1313V3.86901C59.9999 1.73584 58.2645 0 56.1313 0Z" fill="white"/>
<path d="M27.9676 5.71243C27.9676 4.88388 27.2933 4.20959 26.4643 4.20959H5.95059C5.12204 4.20959 4.44775 4.88388 4.44775 5.71243V19.9516C4.44775 20.7801 5.12204 21.4544 5.95059 21.4544H26.4643C27.2933 21.4544 27.9676 20.7801 27.9676 19.9516V5.71243ZM19.2761 19.6962H13.1393V8.6032H19.2761V19.6962ZM26.2093 19.6962H21.0339V8.31023C21.0339 7.50228 20.377 6.84493 19.569 6.84493H12.8463C12.0384 6.84493 11.381 7.50228 11.381 8.31023V19.6962H6.20556V5.96786H26.2093V19.6962Z" fill="white"/>
<path d="M17.4253 14.9469C17.9105 14.9469 18.3042 14.5532 18.3042 14.068V12.9003C18.3042 12.4146 17.9105 12.0214 17.4253 12.0214C16.9396 12.0214 16.5459 12.4146 16.5459 12.9003V14.068C16.5459 14.5532 16.9396 14.9469 17.4253 14.9469Z" fill="white"/>
<path d="M55.5533 5.71243C55.5533 4.88388 54.879 4.20959 54.0505 4.20959H33.5363C32.7077 4.20959 32.0334 4.88388 32.0334 5.71243V19.9516C32.0334 20.7801 32.7077 21.4544 33.5363 21.4544H54.0505C54.879 21.4544 55.5533 20.7801 55.5533 19.9516V5.71243ZM44.5468 10.6631C43.9348 11.293 43.5567 12.1513 43.5567 13.0971C43.5567 14.0364 43.9298 14.8897 44.5349 15.5182C43.9728 16.0171 43.6171 16.7445 43.6171 17.5534V19.6962H38.4101V8.6032H44.5468V10.6631ZM48.7244 19.6962H45.3754V17.5534C45.3754 17.0224 45.8075 16.5902 46.3385 16.5902H47.7613C48.2923 16.5902 48.7244 17.0224 48.7244 17.5534V19.6962ZM47.0499 14.832C46.0932 14.832 45.3145 14.0538 45.3145 13.0966C45.3145 12.1399 46.0932 11.3617 47.0499 11.3617C48.0066 11.3617 48.7853 12.1399 48.7853 13.0966C48.7853 14.0538 48.0066 14.832 47.0499 14.832ZM53.795 19.6962H50.4827V17.5534C50.4827 16.7441 50.127 16.0171 49.5644 15.5182C50.17 14.8897 50.5431 14.0364 50.5431 13.0966C50.5431 11.1703 48.9762 9.60341 47.0499 9.60341C46.7945 9.60341 46.5454 9.63179 46.3051 9.68398V8.31023C46.3051 7.50228 45.6478 6.84493 44.8398 6.84493H38.1171C37.3092 6.84493 36.6523 7.50228 36.6523 8.31023V19.6962H33.7917V5.96786H53.795V19.6962Z" fill="white"/>
<path d="M4.44775 35.1589V47.4242C4.44775 48.2321 5.10464 48.889 5.91259 48.889H26.5023C27.3103 48.889 27.9676 48.2321 27.9676 47.4242V33.147C27.9676 32.3184 27.2933 31.6442 26.4643 31.6442H5.95059C5.12204 31.6442 4.44775 32.3184 4.44775 33.147V35.1589ZM14.2855 47.1014H10.9365V44.9591C10.9365 44.4281 11.3687 43.996 11.8997 43.996H13.3224C13.8534 43.996 14.2855 44.4281 14.2855 44.9591V47.1014ZM12.611 42.2377C11.6539 42.2377 10.8757 41.4591 10.8757 40.5023C10.8757 39.5456 11.6543 38.767 12.611 38.767C13.5678 38.767 14.3464 39.5456 14.3464 40.5023C14.3464 41.4591 13.5678 42.2377 12.611 42.2377ZM26.2093 47.1312H22.7903V43.0475H26.2093V47.1312ZM6.20556 33.4024H26.2093V41.2892H22.4969C21.6889 41.2892 21.032 41.9466 21.032 42.7545V47.1312H16.0438V44.9591C16.0438 44.1498 15.6881 43.4224 15.1255 42.9234C15.7311 42.2949 16.1042 41.4417 16.1042 40.5023C16.1042 38.5761 14.5373 37.0087 12.611 37.0087C12.4462 37.0087 12.2842 37.021 12.1249 37.0435V35.7448C12.1249 34.9369 11.468 34.2795 10.6601 34.2795H6.20556V33.4024ZM6.20556 36.0378H10.3671V37.8276C9.60354 38.469 9.11739 39.4298 9.11739 40.5023C9.11739 41.4417 9.49093 42.2949 10.0961 42.9234C9.5335 43.4224 9.17827 44.1498 9.17827 44.9591V47.1312H6.20556V36.0378Z" fill="white"/>
<path d="M32.0334 47.3862C32.0334 48.2147 32.7077 48.889 33.5363 48.889H54.088C54.8959 48.889 55.5533 48.2321 55.5533 47.4242V33.147C55.5533 32.3184 54.879 31.6442 54.0505 31.6442H42.1605C41.6748 31.6442 41.2812 32.0378 41.2812 32.5231C41.2812 33.0088 41.6748 33.4024 42.1605 33.4024H53.795V41.2892H51.7227C50.9152 41.2892 50.2579 41.9461 50.2579 42.7541V47.1312H49.3781V44.9587C49.3781 44.1498 49.0229 43.4224 48.4603 42.9234C49.0654 42.2949 49.439 41.4417 49.439 40.5023C49.439 38.5761 47.8716 37.0087 45.9453 37.0087C44.019 37.0087 42.4521 38.5761 42.4521 40.5023C42.4521 41.4417 42.8252 42.2949 43.4308 42.9234C42.8682 43.4224 42.5126 44.1498 42.5126 44.9587V47.1312H41.5197V44.9587C41.5197 44.1498 41.1644 43.4224 40.6019 42.9234C41.207 42.2949 41.5805 41.4417 41.5805 40.5023C41.5805 38.5761 40.0132 37.0087 38.0869 37.0087C36.1611 37.0087 34.5937 38.5761 34.5937 40.5023C34.5937 41.4417 34.9672 42.2949 35.5724 42.9234C35.0098 43.4224 34.6546 44.1498 34.6546 44.9587V47.1312H33.7913V33.4024H38.0869C38.5726 33.4024 38.9663 33.0088 38.9663 32.5235C38.9663 32.0378 38.5726 31.6442 38.0869 31.6442H33.5363C32.7077 31.6442 32.0334 32.3184 32.0334 33.1475V47.3862ZM52.0162 43.0475H53.795V47.1312H52.0162V43.0475ZM47.6198 47.1014H44.2708V44.9591C44.2708 44.4281 44.7029 43.996 45.234 43.996H46.6567C47.1881 43.996 47.6198 44.4281 47.6198 44.9591V47.1014ZM45.9453 38.767C46.9025 38.767 47.6807 39.5456 47.6807 40.5023C47.6807 41.4591 46.902 42.2377 45.9453 42.2377C44.9886 42.2377 44.2104 41.4591 44.2104 40.5023C44.2099 39.5456 44.9886 38.767 45.9453 38.767ZM39.7614 47.1014H36.4124V44.9591C36.4124 44.4281 36.8445 43.996 37.3755 43.996H38.7983C39.3297 43.996 39.7614 44.4281 39.7614 44.9591V47.1014ZM38.0869 38.767C39.0441 38.767 39.8223 39.5456 39.8223 40.5023C39.8223 41.4591 39.0441 42.2377 38.0869 42.2377C37.1302 42.2377 36.352 41.4591 36.352 40.5023C36.352 39.5456 37.1302 38.767 38.0869 38.767Z" fill="white"/>
<path d="M11.755 28.1318H5.32666C4.84143 28.1318 4.44775 27.7381 4.44775 27.2529C4.44775 26.7672 4.84143 26.3735 5.32666 26.3735H11.755C12.2402 26.3735 12.6339 26.7672 12.6339 27.2529C12.6339 27.7381 12.2402 28.1318 11.755 28.1318Z" fill="white"/>
<path d="M26.8831 28.1318H25.1555C24.6698 28.1318 24.2766 27.7381 24.2766 27.2529C24.2766 26.7672 24.6698 26.3735 25.1555 26.3735H26.8831C27.3683 26.3735 27.762 26.7672 27.762 27.2529C27.762 27.7381 27.3683 28.1318 26.8831 28.1318Z" fill="white"/>
<path d="M21.1314 28.1318H15.7009C15.2152 28.1318 14.822 27.7381 14.822 27.2529C14.822 26.7672 15.2152 26.3735 15.7009 26.3735H21.1314C21.6171 26.3735 22.0107 26.7672 22.0107 27.2529C22.0107 27.7381 21.6171 28.1318 21.1314 28.1318Z" fill="white"/>
<path d="M8.5754 24.7663H5.32666C4.84143 24.7663 4.44775 24.3726 4.44775 23.887C4.44775 23.4017 4.84143 23.0081 5.32666 23.0081H8.5754C9.06063 23.0081 9.45431 23.4017 9.45431 23.887C9.45431 24.3726 9.06063 24.7663 8.5754 24.7663Z" fill="white"/>
<path d="M19.8335 24.7663H12.5945C12.1093 24.7663 11.7156 24.3726 11.7156 23.887C11.7156 23.4017 12.1093 23.0081 12.5945 23.0081H19.8335C20.3192 23.0081 20.7124 23.4017 20.7124 23.887C20.7124 24.3726 20.3192 24.7663 19.8335 24.7663Z" fill="white"/>
<path d="M27.0878 24.7663H23.8093C23.3241 24.7663 22.9304 24.3726 22.9304 23.887C22.9304 23.4017 23.3241 23.0081 23.8093 23.0081H27.0878C27.573 23.0081 27.9667 23.4017 27.9667 23.887C27.9667 24.3726 27.5735 24.7663 27.0878 24.7663Z" fill="white"/>
<path d="M36.5246 28.1318H32.9124C32.4271 28.1318 32.0334 27.7381 32.0334 27.2529C32.0334 26.7672 32.4271 26.3735 32.9124 26.3735H36.5246C37.0102 26.3735 37.4039 26.7672 37.4039 27.2529C37.4039 27.7381 37.0102 28.1318 36.5246 28.1318Z" fill="white"/>
<path d="M54.4687 28.1318H51.7615C51.2762 28.1318 50.8826 27.7381 50.8826 27.2529C50.8826 26.7672 51.2762 26.3735 51.7615 26.3735H54.4687C54.9544 26.3735 55.3476 26.7672 55.3476 27.2529C55.3476 27.7381 54.9544 28.1318 54.4687 28.1318Z" fill="white"/>
<path d="M47.6985 28.1318H40.5098C40.0241 28.1318 39.6309 27.7381 39.6309 27.2529C39.6309 26.7672 40.0241 26.3735 40.5098 26.3735H47.6985C48.1837 26.3735 48.5774 26.7672 48.5774 27.2529C48.5774 27.7381 48.1837 28.1318 47.6985 28.1318Z" fill="white"/>
<path d="M38.0869 24.7663H32.9124C32.4271 24.7663 32.0334 24.3726 32.0334 23.887C32.0334 23.4017 32.4271 23.0081 32.9124 23.0081H38.0869C38.5726 23.0081 38.9663 23.4017 38.9663 23.887C38.9663 24.3726 38.5726 24.7663 38.0869 24.7663Z" fill="white"/>
<path d="M54.4687 24.7663H50.4331C49.9479 24.7663 49.5542 24.3726 49.5542 23.887C49.5542 23.4017 49.9479 23.0081 50.4331 23.0081H54.4687C54.9544 23.0081 55.3476 23.4017 55.3476 23.887C55.3476 24.3726 54.9544 24.7663 54.4687 24.7663Z" fill="white"/>
<path d="M46.4003 24.7663H42.1508C41.6652 24.7663 41.2715 24.3726 41.2715 23.887C41.2715 23.4017 41.6652 23.0081 42.1508 23.0081H46.4003C46.8859 23.0081 47.2796 23.4017 47.2796 23.887C47.2796 24.3726 46.8859 24.7663 46.4003 24.7663Z" fill="white"/>
<path d="M11.755 55.2754H5.32666C4.84143 55.2754 4.44775 54.8821 4.44775 54.3965C4.44775 53.9108 4.84143 53.5171 5.32666 53.5171H11.755C12.2402 53.5171 12.6339 53.9108 12.6339 54.3965C12.6339 54.8821 12.2402 55.2754 11.755 55.2754Z" fill="white"/>
<path d="M26.8831 55.2754H25.1555C24.6698 55.2754 24.2766 54.8821 24.2766 54.3965C24.2766 53.9108 24.6698 53.5171 25.1555 53.5171H26.8831C27.3683 53.5171 27.762 53.9108 27.762 54.3965C27.762 54.8821 27.3683 55.2754 26.8831 55.2754Z" fill="white"/>
<path d="M21.1314 55.2754H15.7009C15.2152 55.2754 14.822 54.8821 14.822 54.3965C14.822 53.9108 15.2152 53.5171 15.7009 53.5171H21.1314C21.6171 53.5171 22.0107 53.9108 22.0107 54.3965C22.0107 54.8821 21.6171 55.2754 21.1314 55.2754Z" fill="white"/>
<path d="M8.5754 51.9099H5.32666C4.84143 51.9099 4.44775 51.5162 4.44775 51.031C4.44775 50.5453 4.84143 50.1516 5.32666 50.1516H8.5754C9.06063 50.1516 9.45431 50.5453 9.45431 51.031C9.45431 51.5162 9.06063 51.9099 8.5754 51.9099Z" fill="white"/>
<path d="M19.8335 51.9099H12.5945C12.1093 51.9099 11.7156 51.5162 11.7156 51.031C11.7156 50.5453 12.1093 50.1516 12.5945 50.1516H19.8335C20.3192 50.1516 20.7124 50.5453 20.7124 51.031C20.7124 51.5162 20.3192 51.9099 19.8335 51.9099Z" fill="white"/>
<path d="M27.0878 51.9099H23.8093C23.3241 51.9099 22.9304 51.5162 22.9304 51.031C22.9304 50.5453 23.3241 50.1516 23.8093 50.1516H27.0878C27.573 50.1516 27.9667 50.5453 27.9667 51.031C27.9667 51.5162 27.5735 51.9099 27.0878 51.9099Z" fill="white"/>
<path d="M36.5246 55.2754H32.9124C32.4271 55.2754 32.0334 54.8821 32.0334 54.3965C32.0334 53.9108 32.4271 53.5171 32.9124 53.5171H36.5246C37.0102 53.5171 37.4039 53.9108 37.4039 54.3965C37.4039 54.8821 37.0102 55.2754 36.5246 55.2754Z" fill="white"/>
<path d="M54.4687 55.2754H51.7615C51.2762 55.2754 50.8826 54.8821 50.8826 54.3965C50.8826 53.9108 51.2762 53.5171 51.7615 53.5171H54.4687C54.9544 53.5171 55.3476 53.9108 55.3476 54.3965C55.3476 54.8821 54.9544 55.2754 54.4687 55.2754Z" fill="white"/>
<path d="M47.6985 55.2754H40.5098C40.0241 55.2754 39.6309 54.8821 39.6309 54.3965C39.6309 53.9108 40.0241 53.5171 40.5098 53.5171H47.6985C48.1837 53.5171 48.5774 53.9108 48.5774 54.3965C48.5774 54.8821 48.1837 55.2754 47.6985 55.2754Z" fill="white"/>
<path d="M38.0869 51.9099H32.9124C32.4271 51.9099 32.0334 51.5162 32.0334 51.031C32.0334 50.5453 32.4271 50.1516 32.9124 50.1516H38.0869C38.5726 50.1516 38.9663 50.5453 38.9663 51.031C38.9663 51.5162 38.5726 51.9099 38.0869 51.9099Z" fill="white"/>
<path d="M54.4687 51.9099H50.4331C49.9479 51.9099 49.5542 51.5162 49.5542 51.031C49.5542 50.5453 49.9479 50.1516 50.4331 50.1516H54.4687C54.9544 50.1516 55.3476 50.5453 55.3476 51.031C55.3476 51.5162 54.9544 51.9099 54.4687 51.9099Z" fill="white"/>
<path d="M46.4003 51.9099H42.1508C41.6652 51.9099 41.2715 51.5162 41.2715 51.031C41.2715 50.5453 41.6652 50.1516 42.1508 50.1516H46.4003C46.8859 50.1516 47.2796 50.5453 47.2796 51.031C47.2796 51.5162 46.8859 51.9099 46.4003 51.9099Z" fill="white"/>
</g>
<defs>
<clipPath id="clip0_22_2199">
<rect width="60" height="60" fill="white"/>
</clipPath>
</defs>
</svg>
