<svg width="60" height="60" viewBox="0 0 60 60" fill="none" xmlns="http://www.w3.org/2000/svg">
<g clip-path="url(#clip0_22_1882)">
<path d="M56.25 0.9375H11.25C9.69937 0.9375 8.4375 2.19937 8.4375 3.75V17.5725C3.9825 19.9341 0.9375 24.6159 0.9375 30C0.9375 36.4537 5.31281 41.8922 11.25 43.5394V55.3125C11.25 57.3806 12.9319 59.0625 15 59.0625C17.0681 59.0625 18.75 57.3806 18.75 55.3125V47.8125H56.25C57.8006 47.8125 59.0625 46.5506 59.0625 45V3.75C59.0625 2.19937 57.8006 0.9375 56.25 0.9375ZM11.25 2.8125H56.25C56.7675 2.8125 57.1875 3.23344 57.1875 3.75V12.1875H52.5188L53.3859 7.84875C53.4197 7.67812 53.4375 7.50469 53.4375 7.33125C53.4375 5.87344 52.2516 4.6875 50.7947 4.6875C50.6203 4.6875 50.4459 4.70437 50.2753 4.73906L42.2869 6.33656C41.1431 6.56531 40.3125 7.57875 40.3125 8.74594C40.3125 9.39281 40.5741 10.0256 41.0325 10.4831L42.2419 11.6934L41.7075 12.1875H10.3125V3.75C10.3125 3.23344 10.7325 2.8125 11.25 2.8125ZM24.375 21.1744L9.32438 36.225C8.80406 35.7497 8.34 35.2153 7.95094 34.6247L24.375 18.2006L30.9131 24.7388L44.9466 11.745L42.3581 9.1575C42.2494 9.04875 42.1875 8.89875 42.1875 8.74594C42.1875 8.46938 42.3844 8.22938 42.6553 8.175L50.6438 6.5775C51.1013 6.48656 51.5625 6.85594 51.5625 7.33125C51.5625 7.38188 51.5578 7.4325 51.5475 7.48219L49.95 15.4706C49.8656 15.8906 49.2712 16.0716 48.9675 15.7678L46.4259 13.2262L30.9572 27.7575L24.375 21.1744ZM23.4375 30C23.4375 34.6519 19.6528 38.4375 15 38.4375C13.4944 38.4375 12.0825 38.0363 10.8581 37.3425L22.3444 25.8562C23.0587 27.1144 23.4375 28.5262 23.4375 30ZM6.5625 30C6.5625 25.3481 10.3472 21.5625 15 21.5625C15.9769 21.5625 16.9425 21.7434 17.8538 22.0697L7.06969 32.8537C6.74719 31.9612 6.5625 31.0031 6.5625 30ZM10.3125 14.0625H39.6825L30.9628 22.1362L24.375 15.5494L22.0734 17.8509C19.9303 16.6013 17.5031 15.9375 15 15.9375C13.3547 15.9375 11.7816 16.2366 10.3125 16.7578V14.0625ZM2.8125 30C2.8125 23.28 8.28 17.8125 15 17.8125C17.0025 17.8125 18.9478 18.3037 20.6944 19.23L19.2844 20.64C17.9447 20.0269 16.4831 19.6875 15 19.6875C9.31406 19.6875 4.6875 24.3141 4.6875 30C4.6875 35.6859 9.31406 40.3125 15 40.3125C20.6859 40.3125 25.3125 35.6859 25.3125 30C25.3125 28.0228 24.7622 26.1319 23.7159 24.4847L24.375 23.8256L26.4863 25.9369C26.9475 27.2391 27.1875 28.6031 27.1875 30C27.1875 36.72 21.72 42.1875 15 42.1875C8.28 42.1875 2.8125 36.72 2.8125 30ZM15 57.1875C13.9659 57.1875 13.125 56.3466 13.125 55.3125V43.9228C13.74 44.0053 14.3625 44.0625 15 44.0625C15.6375 44.0625 16.26 44.0053 16.875 43.9228V55.3125C16.875 56.3466 16.0341 57.1875 15 57.1875ZM56.25 45.9375H18.75V43.5394C22.3472 42.5419 25.3641 40.1541 27.1875 36.9862V44.0625H55.3125V19.6875H49.6875V42.1875H47.8125V21.5625H42.1875V42.1875H40.3125V27.1875H34.6875V42.1875H32.8125V32.8125H28.7794C28.9641 31.9031 29.0625 30.9628 29.0625 30C29.0625 29.4666 29.0222 28.9388 28.9631 28.4138L30.9169 30.3675L46.3856 15.8363L47.6419 17.0925C48.1059 17.5575 48.7228 17.8125 49.3791 17.8125C50.5463 17.8125 51.5597 16.9819 51.7884 15.8381L52.1437 14.0625H57.1875V45C57.1875 45.5166 56.7675 45.9375 56.25 45.9375ZM29.0625 42.1875V34.6875H30.9375V42.1875H29.0625ZM38.4375 42.1875H36.5625V29.0625H38.4375V42.1875ZM45.9375 42.1875H44.0625V23.4375H45.9375V42.1875ZM51.5625 42.1875V21.5625H53.4375V42.1875H51.5625Z" fill="#C73E9B"/>
<path d="M17.8125 4.6875H12.1875V10.3125H17.8125V4.6875ZM15.9375 8.4375H14.0625V6.5625H15.9375V8.4375Z" fill="#C73E9B"/>
<path d="M25.3125 4.6875H19.6875V10.3125H25.3125V4.6875ZM23.4375 8.4375H21.5625V6.5625H23.4375V8.4375Z" fill="#C73E9B"/>
<path d="M32.8125 4.6875H27.1875V10.3125H32.8125V4.6875ZM30.9375 8.4375H29.0625V6.5625H30.9375V8.4375Z" fill="#C73E9B"/>
</g>
<defs>
<clipPath id="clip0_22_1882">
<rect width="60" height="60" fill="white"/>
</clipPath>
</defs>
</svg>
