<svg width="60" height="60" viewBox="0 0 60 60" fill="none" xmlns="http://www.w3.org/2000/svg">
<g clip-path="url(#clip0_22_1888)">
<path d="M41.81 29.5334C41.6527 29.1712 41.5446 28.7893 41.4884 28.3982C41.3422 27.3822 41.0612 26.3886 40.6535 25.4448C40.4611 24.9995 39.9444 24.7941 39.4985 24.9867C39.0529 25.1792 38.8479 25.6963 39.0404 26.1418C39.3864 26.9429 39.6249 27.7863 39.7489 28.6485C39.8275 29.1942 39.9786 29.7273 40.1978 30.2327L42.1051 34.6308C42.9107 36.4882 42.6534 38.5541 41.4169 40.1573C40.3634 41.5232 38.8041 42.2837 37.1284 42.2901C37.6141 41.2668 37.887 40.1236 37.887 38.9176V30.8315C37.887 29.8514 37.1195 29.0634 36.1395 29.0376L31.1682 28.9066C29.4728 28.8618 27.8148 28.2478 26.4994 27.1777L26.1721 26.9114C25.8668 26.6629 25.4833 26.5495 25.0917 26.591C24.7003 26.6328 24.3493 26.825 24.1034 27.1323C22.8136 28.7438 22.1033 30.768 22.1033 32.8319V38.9176C22.1033 40.1236 22.3761 41.2667 22.8619 42.2901C21.1863 42.2839 19.6268 41.5233 18.5734 40.1573C17.3368 38.5541 17.0795 36.4883 17.8851 34.6308L19.7924 30.2328C20.0116 29.7273 20.1627 29.1942 20.2413 28.6485C20.5788 26.3027 21.7512 24.1561 23.5423 22.6042C25.3334 21.0523 27.6251 20.1977 29.995 20.1977C32.6732 20.1977 35.1793 21.2548 37.0515 23.1744C37.3902 23.522 37.9466 23.5287 38.294 23.19C38.6413 22.8513 38.6484 22.2948 38.3095 21.9475C36.1038 19.6858 33.151 18.4403 29.9949 18.4403C27.2023 18.4403 24.5019 19.4474 22.3915 21.276C20.281 23.1046 18.8995 25.634 18.5017 28.3981C18.4455 28.7893 18.3373 29.1712 18.1801 29.5334L16.2728 33.9315C15.2089 36.3846 15.5486 39.1132 17.1818 41.2306C18.5788 43.0419 20.6485 44.0513 22.8722 44.0512C23.225 44.0512 23.5824 44.0247 23.941 43.973C24.5609 44.7141 25.3141 45.3394 26.1632 45.8132V47.509L21.6706 49.3113C18.5228 50.5743 16.4888 53.5821 16.4888 56.9738V59.1211C16.4888 59.6065 16.8821 59.9998 17.3675 59.9998C17.8529 59.9998 18.2462 59.6065 18.2462 59.1211V56.9738C18.2462 54.304 19.8473 51.9365 22.325 50.9424L26.369 49.32C26.874 50.7723 28.2558 51.8177 29.8778 51.8177C31.4999 51.8177 32.8816 50.7721 33.3867 49.32L37.4311 50.9426C37.5372 50.9851 37.6494 51.0345 37.7841 51.0979C37.905 51.1547 38.0322 51.1816 38.1576 51.1816C38.4874 51.1816 38.8036 50.995 38.9533 50.6767C39.1599 50.2376 38.9712 49.7141 38.5321 49.5076C38.3657 49.4293 38.2235 49.367 38.0852 49.3114L33.5925 47.509V45.938C34.5377 45.4517 35.3729 44.7815 36.0491 43.973C36.4078 44.0248 36.7648 44.0512 37.1179 44.0512C39.3415 44.0512 41.4114 43.0417 42.8083 41.2306C44.4413 39.1133 44.7812 36.3847 43.7173 33.9315L41.81 29.5334ZM31.8352 48.1033C31.8352 49.1824 30.9572 50.0604 29.8779 50.0604C28.7987 50.0604 27.9207 49.1824 27.9207 48.1033V46.5307C28.5822 46.7111 29.2773 46.8093 29.9951 46.8093C30.6287 46.8093 31.2444 46.7322 31.8352 46.5904V48.1033ZM29.9951 45.0519C26.6126 45.0519 23.8607 42.3001 23.8607 38.9177V32.8321C23.8607 31.264 24.3685 29.7246 25.296 28.4643L25.3903 28.541C27.0052 29.8547 29.0407 30.6084 31.1219 30.6634L36.0932 30.7943C36.1137 30.7949 36.1297 30.8113 36.1297 30.8316V38.9177C36.1295 42.3001 33.3776 45.0519 29.9951 45.0519Z" fill="#C73E9B"/>
<path d="M40.5232 51.9947C40.1271 52.275 40.0333 52.8234 40.3137 53.2194C41.096 54.3246 41.5094 55.6228 41.5094 56.974V59.1214C41.5094 59.6067 41.9027 60 42.3881 60C42.8735 60 43.2668 59.6067 43.2668 59.1214V56.974C43.2668 55.257 42.7417 53.6077 41.748 52.2041C41.4676 51.8079 40.9192 51.7142 40.5232 51.9947Z" fill="#C73E9B"/>
<path d="M13.3859 13.1592C11.4286 11.8217 8.98023 11.5713 6.66824 12.4733C4.98176 13.131 3.63339 14.4709 2.96841 16.149C2.53574 17.2413 2.3572 18.3583 2.43815 19.469C2.47353 19.953 2.89296 20.3171 3.37834 20.2816C3.86232 20.2464 4.22609 19.8254 4.19095 19.3414C4.12944 18.4969 4.2678 17.6405 4.60229 16.7964C5.08802 15.5705 6.0739 14.5916 7.30698 14.1106C9.0695 13.4231 10.924 13.6052 12.3945 14.6102C13.8318 15.5922 14.6898 17.2161 14.6898 18.954C14.6898 20.0447 14.3588 21.0905 13.7327 21.9787C13.7255 21.989 13.7184 21.9995 13.7115 22.0101L10.7593 26.6061C10.6684 26.7479 10.62 26.9126 10.62 27.0811V27.4813H10.3117V23.0824C11.2042 23.0023 11.9062 22.251 11.9062 21.338V19.8962C11.9062 18.93 11.1201 18.1439 10.1539 18.1439H8.71205C7.74586 18.1439 6.95973 18.93 6.95973 19.8962V21.338C6.95973 22.2509 7.66185 23.0023 8.55424 23.0824V27.4814H8.246V27.0812C8.246 26.9127 8.19762 26.748 8.1067 26.6063L5.42004 22.4236C5.15785 22.0153 4.61424 21.897 4.20582 22.1592C3.79765 22.4214 3.6792 22.9651 3.9414 23.3734L6.48864 27.3391V27.9686C6.48864 28.2199 6.56292 28.4537 6.68933 28.6511V29.561C6.68933 30.9745 7.83935 32.1246 9.25309 32.1246H9.61276C11.0264 32.1246 12.1765 30.9746 12.1765 29.561V28.6511C12.3029 28.4537 12.3772 28.2199 12.3772 27.9686V27.3391L15.1802 22.9753C16.009 21.7927 16.447 20.4027 16.447 18.9541C16.447 16.6352 15.3027 14.469 13.3859 13.1592ZM10.1488 19.8962L10.1544 21.333L9.47967 21.3353C9.46409 21.3345 9.44862 21.333 9.43281 21.333C9.41465 21.333 9.39684 21.3346 9.37903 21.3357L8.71697 21.338L8.71194 19.9012L10.1488 19.8962ZM10.4192 29.5609C10.4192 30.0055 10.0574 30.3671 9.61276 30.3671H9.25309C8.80847 30.3671 8.44669 30.0055 8.44669 29.5609V29.2387H10.4192V29.5609Z" fill="#C73E9B"/>
<path d="M29.878 15.6015C34.1794 15.6015 37.6788 12.1021 37.6788 7.8007C37.6788 3.49938 34.1794 0 29.878 0C25.5765 0 22.0771 3.49938 22.0771 7.8007C22.0771 12.1021 25.5765 15.6015 29.878 15.6015ZM29.878 1.75736C33.2103 1.75736 35.9214 4.46839 35.9214 7.8007C35.9214 11.133 33.2103 13.8442 29.878 13.8442C26.5457 13.8442 23.8345 11.133 23.8345 7.8007C23.8345 4.46839 26.5457 1.75736 29.878 1.75736Z" fill="#C73E9B"/>
<path d="M28.3327 10.7329C28.5043 10.9044 28.7292 10.9901 28.954 10.9901C29.1788 10.9901 29.4038 10.9044 29.5754 10.7329L33.6804 6.6279C34.0235 6.28463 34.0235 5.72836 33.6804 5.38521C33.3371 5.04217 32.7809 5.04217 32.4377 5.38521L28.9541 8.86889L28.363 8.27783C28.0199 7.93479 27.4635 7.93467 27.1204 8.27794C26.7772 8.6211 26.7772 9.17748 27.1205 9.52052L28.3327 10.7329Z" fill="#C73E9B"/>
<path d="M57.5131 17.4769C57.3507 16.9768 56.9266 16.6193 56.4063 16.5436L52.7546 16.013L51.1215 12.7039C50.8888 12.2326 50.4178 11.9398 49.8922 11.9398C49.3667 11.9398 48.8956 12.2326 48.663 12.7039L47.0298 16.013L43.378 16.5436C42.8578 16.6193 42.4337 16.9768 42.2714 17.4768C42.1091 17.9767 42.242 18.5151 42.6183 18.8819L45.2608 21.4576L44.637 25.0947C44.5483 25.6128 44.7573 26.1265 45.1825 26.4354C45.6076 26.7444 46.1607 26.7844 46.6261 26.5398L49.8923 24.8226L53.1587 26.5398C53.361 26.6461 53.58 26.6986 53.7978 26.6986C54.0808 26.6986 54.362 26.6098 54.6024 26.4353C55.0276 26.1262 55.2364 25.6126 55.1475 25.0946L54.5238 21.4577L57.166 18.882C57.5423 18.5152 57.6754 17.9767 57.5131 17.4769ZM53.1515 20.3408C52.8284 20.6558 52.6809 21.1094 52.7572 21.5544L53.2828 24.6198L50.5301 23.1725C50.3304 23.0676 50.1113 23.015 49.8922 23.015C49.6731 23.015 49.4539 23.0674 49.2541 23.1724L46.5013 24.6198L47.0271 21.5541C47.1033 21.1093 46.9559 20.6556 46.6329 20.341L44.4057 18.1701L47.4838 17.7229C47.9304 17.6578 48.3162 17.3775 48.5156 16.973L49.8921 14.184L51.2683 16.9726C51.4678 17.3773 51.8538 17.6578 52.3007 17.7228L55.3784 18.17L53.1515 20.3408Z" fill="#C73E9B"/>
<path d="M39.1951 11.271C40.5359 11.794 41.8351 12.4346 43.0726 13.1784C42.6858 13.3601 42.4788 13.8012 42.6045 14.2234C42.7181 14.6047 43.0676 14.8513 43.4462 14.8513C43.5293 14.8513 43.6138 14.8394 43.6976 14.8145L45.3621 14.3187C45.7346 14.2079 45.9899 13.8653 45.9899 13.4766V11.6761C45.9899 11.1907 45.5966 10.7974 45.1112 10.7974C44.6258 10.7974 44.2325 11.1907 44.2325 11.6761V11.828C42.8341 10.9665 41.3593 10.2289 39.8337 9.63372C39.3816 9.45728 38.8722 9.68082 38.6957 10.133C38.5195 10.5852 38.743 11.0946 39.1951 11.271Z" fill="#C73E9B"/>
<path d="M16.0124 13.4352C16.1692 13.4352 16.3281 13.3933 16.4715 13.3052C17.2918 12.8011 18.146 12.3416 19.019 11.9328L18.9733 12.1038C18.8479 12.5726 19.1264 13.0542 19.5953 13.1797C19.6712 13.1999 19.7476 13.2097 19.8227 13.2097C20.2107 13.2097 20.566 12.9504 20.671 12.5577L21.2076 10.5498C21.3271 10.1031 21.0797 9.64011 20.6418 9.4912L19.0316 8.94314C18.5726 8.78638 18.073 9.0323 17.9168 9.49191C17.8037 9.82393 17.9014 10.176 18.1374 10.4052C17.2519 10.8259 16.3854 11.2957 15.5517 11.8079C15.1382 12.062 15.0089 12.603 15.2629 13.0165C15.4288 13.2864 15.7171 13.4352 16.0124 13.4352Z" fill="#C73E9B"/>
</g>
<defs>
<clipPath id="clip0_22_1888">
<rect width="60" height="60" fill="white"/>
</clipPath>
</defs>
</svg>
