<svg width="60" height="60" viewBox="0 0 60 60" fill="none" xmlns="http://www.w3.org/2000/svg">
<path d="M42.1875 1.87504C33.2438 1.85627 25.9125 9.36565 26.2781 18.3282L9.98439 24.4313C9.61876 24.5719 9.375 24.9187 9.375 25.3125H7.5C4.3934 25.3125 1.875 27.8309 1.875 30.9375V32.8125C1.875 35.5969 3.90941 37.9032 6.5625 38.3531V54.375C6.5625 56.4375 8.25 58.125 10.3125 58.125H12.1875C14.25 58.125 15.9375 56.4375 15.9375 54.375V49.6875C18 49.6875 19.6875 48 19.6875 45.9375V42.9563L31.9406 47.55C32.2594 49.2937 33.7875 50.625 35.625 50.625H37.5C39.5711 50.625 41.25 48.9461 41.25 46.875V33.7032C50.3438 34.3219 58.1625 26.9063 58.125 17.8125C58.125 9.02815 50.9719 1.87504 42.1875 1.87504ZM3.74999 32.8125V30.9375C3.74999 28.8656 5.42815 27.1875 7.49999 27.1875H9.37499V36.5625H7.49999C5.42815 36.5625 3.74999 34.8844 3.74999 32.8125ZM12.1875 56.25H10.3125C9.27696 56.25 8.43749 55.4106 8.43749 54.375V38.4375H9.37499C9.37499 38.8313 9.61875 39.1781 9.98438 39.3188L14.0625 40.8469V54.375C14.0625 55.4106 13.223 56.25 12.1875 56.25ZM15.9375 47.8125V41.55L17.8125 42.2532V45.9375C17.8125 46.9731 16.973 47.8125 15.9375 47.8125ZM31.875 45.525L11.25 37.7907V25.9594L26.4563 20.2594C26.6531 21.525 26.9907 22.7719 27.4969 23.9719L25.3687 29.6719C25.0875 30.375 25.8094 31.1438 26.5219 30.9L31.2844 29.4282C31.4719 29.6062 31.6782 29.7657 31.875 29.9344V45.525ZM39.375 46.875C39.375 47.9063 38.5313 48.75 37.5 48.75H35.625C34.5938 48.75 33.75 47.9063 33.75 46.875V31.3313C35.4656 32.4094 37.3687 33.1406 39.375 33.4969V46.875ZM42.1875 31.875C38.4995 31.881 34.8305 30.3855 32.25 27.75C32.0564 27.5648 31.8059 27.4249 31.5375 27.4313C31.65 27.3094 27.8344 28.5469 27.7969 28.5469L29.3906 24.2719C29.4656 24.0656 29.4656 23.8313 29.3813 23.625C28.9622 22.6548 28.6085 21.652 28.4156 20.6063C27.7067 17.4312 28.438 13.7507 29.8219 11.1094C34.7471 1.18828 50.3938 1.51192 54.8531 11.7002C59.3 20.8503 52.5481 31.9533 42.1875 31.875Z" fill="#C73E9B"/>
<path d="M42.4657 23.4375C38.7571 23.5347 38.7579 28.9658 42.4659 29.0625C46.1744 28.9653 46.1736 23.5341 42.4657 23.4375ZM42.4657 27.1875C41.2338 27.1654 41.234 25.3344 42.4658 25.3125C43.6977 25.3346 43.6975 27.1655 42.4657 27.1875Z" fill="#C73E9B"/>
<path d="M43.6518 6.56257H40.6571C38.7831 6.51771 37.2213 8.35952 37.575 10.2013C37.5749 10.2013 39.0329 18.9515 39.0329 18.9515C39.5684 22.55 45.443 22.4164 45.7854 18.7825C45.7854 18.7826 46.7572 10.0329 46.7572 10.0329C46.9975 8.23993 45.4607 6.52188 43.6518 6.56257ZM44.8941 9.82551L43.9223 18.5757C43.8518 19.2097 43.3176 19.6876 42.6795 19.6876H42.1155C41.5016 19.6876 40.983 19.2481 40.8823 18.643L39.4243 9.8928C39.3639 9.5298 39.4655 9.16038 39.7035 8.87977C39.9411 8.59871 40.289 8.43757 40.6571 8.43757H43.6518C44.3757 8.41995 44.9921 9.10745 44.8941 9.82551Z" fill="#C73E9B"/>
</svg>
