<svg width="60" height="60" viewBox="0 0 60 60" fill="none" xmlns="http://www.w3.org/2000/svg">
<path d="M58.0219 28.6406L54.2719 21.1406C54.196 20.9844 54.0773 20.853 53.9295 20.7617C53.7818 20.6704 53.6112 20.623 53.4375 20.625H52.725L51.7875 19.6875H53.4375C53.6861 19.6875 53.9246 19.5887 54.1004 19.4129C54.2762 19.2371 54.375 18.9987 54.375 18.75V15C54.375 14.7514 54.2762 14.5129 54.1004 14.3371C53.9246 14.1613 53.6861 14.0625 53.4375 14.0625H51.7875L52.9594 12.9C53.135 12.723 53.2336 12.4838 53.2336 12.2344C53.2336 11.985 53.135 11.7458 52.9594 11.5688L50.3062 8.91564C50.1292 8.74 49.89 8.64144 49.6406 8.64144C49.3913 8.64144 49.152 8.74 48.975 8.91564L47.8125 10.0875V8.43752C47.8125 8.18888 47.7137 7.95042 47.5379 7.7746C47.3621 7.59879 47.1236 7.50002 46.875 7.50002H43.125C42.8764 7.50002 42.6379 7.59879 42.4621 7.7746C42.2863 7.95042 42.1875 8.18888 42.1875 8.43752V10.0875L41.025 8.91564C40.848 8.74 40.6087 8.64144 40.3594 8.64144C40.11 8.64144 39.8708 8.74 39.6938 8.91564L37.0406 11.5688C36.865 11.7458 36.7664 11.985 36.7664 12.2344C36.7664 12.4838 36.865 12.723 37.0406 12.9L38.2125 14.0625H36.5625C36.3139 14.0625 36.0754 14.1613 35.8996 14.3371C35.7238 14.5129 35.625 14.7514 35.625 15V18.75C35.625 18.9987 35.7238 19.2371 35.8996 19.4129C36.0754 19.5887 36.3139 19.6875 36.5625 19.6875H38.2125L37.275 20.625H31.875V18.6844C31.8737 18.2938 31.9548 17.9074 32.1131 17.5503C32.2715 17.1933 32.5034 16.8737 32.7937 16.6125C33.8667 15.6591 34.6788 14.4478 35.1531 13.0931C35.6274 11.7383 35.7482 10.285 35.5042 8.87056C35.2601 7.45611 34.6593 6.12729 33.7585 5.0098C32.8577 3.89232 31.6867 3.02311 30.3563 2.48439C30.2135 2.42574 30.0585 2.40324 29.9049 2.4189C29.7514 2.43455 29.6041 2.48787 29.4761 2.57413C29.3481 2.66038 29.2434 2.7769 29.1712 2.91334C29.0991 3.04978 29.0617 3.20193 29.0625 3.35627V9.80627L27.1875 11.0625L25.3125 9.80627V3.35627C25.3133 3.20193 25.2759 3.04978 25.2038 2.91334C25.1316 2.7769 25.0269 2.66038 24.8989 2.57413C24.7709 2.48787 24.6236 2.43455 24.4701 2.4189C24.3165 2.40324 24.1615 2.42574 24.0188 2.48439C22.6883 3.02311 21.5173 3.89232 20.6165 5.0098C19.7157 6.12729 19.1149 7.45611 18.8708 8.87056C18.6268 10.285 18.7476 11.7383 19.2219 13.0931C19.6962 14.4478 20.5083 15.6591 21.5813 16.6125C21.8716 16.8737 22.1035 17.1933 22.2619 17.5503C22.4202 17.9074 22.5013 18.2938 22.5 18.6844V20.625H21.5625C21.3888 20.623 21.2182 20.6704 21.0705 20.7617C20.9227 20.853 20.804 20.9844 20.7281 21.1406L16.9781 28.6406C16.9062 28.7834 16.872 28.9421 16.8787 29.1018C16.8853 29.2614 16.9327 29.4167 17.0163 29.5529C17.0999 29.6891 17.217 29.8017 17.3563 29.88C17.4957 29.9582 17.6527 29.9995 17.8125 30H20.625V41.4563L18.75 41.925V40.3125C18.75 40.0639 18.6512 39.8254 18.4754 39.6496C18.2996 39.4738 18.0611 39.375 17.8125 39.375H10.3125C10.0639 39.375 9.8254 39.4738 9.64959 39.6496C9.47377 39.8254 9.375 40.0639 9.375 40.3125V41.25H2.8125C2.56386 41.25 2.3254 41.3488 2.14959 41.5246C1.97377 41.7004 1.875 41.9389 1.875 42.1875V55.3125C1.875 55.5612 1.97377 55.7996 2.14959 55.9754C2.3254 56.1512 2.56386 56.25 2.8125 56.25H9.375V57.1875C9.375 57.4362 9.47377 57.6746 9.64959 57.8504C9.8254 58.0262 10.0639 58.125 10.3125 58.125H17.8125C18.0611 58.125 18.2996 58.0262 18.4754 57.8504C18.6512 57.6746 18.75 57.4362 18.75 57.1875V55.8938L19.9594 56.4938C20.8711 56.9476 21.8753 57.185 22.8938 57.1875H36.9281C38.0807 57.19 39.2132 56.8859 40.2094 56.3063L55.9594 47.2125C56.652 46.8129 57.1985 46.202 57.5188 45.4693C57.8391 44.7366 57.9163 43.9206 57.7392 43.1408C57.562 42.361 57.1399 41.6584 56.5345 41.136C55.9291 40.6135 55.1723 40.2987 54.375 40.2375V30H57.1875C57.3473 29.9995 57.5043 29.9582 57.6437 29.88C57.783 29.8017 57.9001 29.6891 57.9837 29.5529C58.0673 29.4167 58.1147 29.2614 58.1213 29.1018C58.128 28.9421 58.0938 28.7834 58.0219 28.6406ZM9.375 54.375H3.75V43.125H9.375V54.375ZM16.875 56.25H11.25V41.25H16.875V56.25ZM37.5 17.8125V15.9375H39.7031C39.9045 15.9369 40.1004 15.872 40.2623 15.7523C40.4242 15.6326 40.5436 15.4643 40.6031 15.2719C40.6441 15.1391 40.6975 15.0104 40.7625 14.8875C40.8548 14.7105 40.8882 14.5087 40.8579 14.3114C40.8275 14.1141 40.735 13.9317 40.5937 13.7906L39.0281 12.2344L40.3594 10.9031L41.9156 12.4688C42.0567 12.61 42.2391 12.7025 42.4364 12.7329C42.6337 12.7632 42.8355 12.7298 43.0125 12.6375C43.1354 12.5725 43.2641 12.5191 43.3969 12.4781C43.5892 12.4186 43.7576 12.2992 43.8773 12.1373C43.997 11.9754 44.0619 11.7795 44.0625 11.5781V9.37502H45.9375V11.5781C45.9381 11.7795 46.003 11.9754 46.1227 12.1373C46.2424 12.2992 46.4108 12.4186 46.6031 12.4781C46.7359 12.5191 46.8646 12.5725 46.9875 12.6375C47.1645 12.7298 47.3663 12.7632 47.5636 12.7329C47.7609 12.7025 47.9433 12.61 48.0844 12.4688L49.6406 10.9031L50.9719 12.2344L49.4063 13.7906C49.265 13.9317 49.1725 14.1141 49.1421 14.3114C49.1118 14.5087 49.1452 14.7105 49.2375 14.8875C49.3025 15.0104 49.3559 15.1391 49.3969 15.2719C49.4564 15.4643 49.5758 15.6326 49.7377 15.7523C49.8996 15.872 50.0955 15.9369 50.2969 15.9375H52.5V17.8125H50.2969C50.0955 17.8131 49.8996 17.878 49.7377 17.9977C49.5758 18.1175 49.4564 18.2858 49.3969 18.4781C49.3559 18.611 49.3025 18.7397 49.2375 18.8625C49.1452 19.0395 49.1118 19.2413 49.1421 19.4386C49.1725 19.6359 49.265 19.8183 49.4063 19.9594L50.0812 20.625H39.9188L40.5937 19.9594C40.735 19.8183 40.8275 19.6359 40.8579 19.4386C40.8882 19.2413 40.8548 19.0395 40.7625 18.8625C40.6975 18.7397 40.6441 18.611 40.6031 18.4781C40.5436 18.2858 40.4242 18.1175 40.2623 17.9977C40.1004 17.878 39.9045 17.8131 39.7031 17.8125H37.5ZM38.4375 25.5375L40.4156 29.4844C40.4915 29.6406 40.6102 29.772 40.758 29.8633C40.9057 29.9546 41.0763 30.002 41.25 30H52.5V40.575C52.4062 40.6219 52.3031 40.6688 52.2094 40.7156L43.0687 45.9938C42.5696 45.2458 41.8172 44.7032 40.95 44.4656L38.4375 43.8V25.5375ZM20.625 10.3125C20.6227 9.25348 20.8774 8.2097 21.3673 7.27077C21.8571 6.33184 22.5675 5.52582 23.4375 4.92189V10.3125C23.4383 10.4669 23.4772 10.6188 23.5508 10.7545C23.6244 10.8902 23.7304 11.0057 23.8594 11.0906L26.6719 12.9656C26.8232 13.0709 27.0031 13.1274 27.1875 13.1274C27.3719 13.1274 27.5518 13.0709 27.7031 12.9656L30.5156 11.0906C30.6446 11.0057 30.7506 10.8902 30.8242 10.7545C30.8978 10.6188 30.9367 10.4669 30.9375 10.3125V4.92189C31.7513 5.48829 32.4262 6.23174 32.9115 7.09639C33.3967 7.96103 33.6798 8.9244 33.7393 9.91412C33.7989 10.9038 33.6334 11.8942 33.2553 12.8108C32.8772 13.7274 32.2963 14.5464 31.5562 15.2063C31.064 15.6417 30.6705 16.1772 30.4021 16.7771C30.1337 17.3769 29.9966 18.0272 30 18.6844V20.625H28.125V17.8125C28.125 17.5639 28.0262 17.3254 27.8504 17.1496C27.6746 16.9738 27.4361 16.875 27.1875 16.875C26.9389 16.875 26.7004 16.9738 26.5246 17.1496C26.3488 17.3254 26.25 17.5639 26.25 17.8125V20.625H24.375V18.6844C24.378 18.0282 24.2417 17.3788 23.975 16.7792C23.7084 16.1797 23.3174 15.6435 22.8281 15.2063C22.1348 14.5935 21.5797 13.8402 21.1999 12.9965C20.82 12.1527 20.6241 11.2378 20.625 10.3125ZM19.3313 28.125L22.1438 22.5H35.9813L33.1688 28.125H19.3313ZM36.5625 25.5375V43.2938L26.9625 40.725C25.8861 40.4346 24.7531 40.4249 23.6719 40.6969L22.5 40.9875V30H33.75C33.9237 30.002 34.0943 29.9546 34.242 29.8633C34.3898 29.772 34.5085 29.6406 34.5844 29.4844L36.5625 25.5375ZM55.6969 43.0313C55.9459 43.4604 56.0146 43.9707 55.8881 44.4504C55.7616 44.9301 55.4501 45.3401 55.0219 45.5906L39.2719 54.6844C38.5596 55.0966 37.7511 55.3133 36.9281 55.3125H22.8938C22.1645 55.314 21.4451 55.1438 20.7938 54.8156L18.75 53.7938V43.8563L24.1219 42.5156C24.8949 42.3202 25.7052 42.3267 26.475 42.5344L40.4625 46.2844C40.8224 46.3778 41.1461 46.5766 41.3923 46.8552C41.6384 47.1339 41.7958 47.4797 41.8441 47.8483C41.8925 48.217 41.8296 48.5916 41.6636 48.9243C41.4977 49.257 41.2361 49.5326 40.9125 49.7156C40.7012 49.8403 40.467 49.9211 40.2238 49.9533C39.9805 49.9855 39.7333 49.9685 39.4969 49.9031L28.3125 46.9031C28.0713 46.8385 27.8143 46.8723 27.5981 46.9971C27.3818 47.122 27.224 47.3276 27.1594 47.5688C27.0947 47.8099 27.1285 48.0669 27.2534 48.2832C27.3782 48.4994 27.5838 48.6572 27.825 48.7219L39.0094 51.7125C39.3274 51.7981 39.6551 51.8422 39.9844 51.8438C40.6403 51.8447 41.2845 51.6699 41.85 51.3375C42.2785 51.0928 42.6541 50.7654 42.9551 50.3743C43.256 49.9832 43.4763 49.5363 43.6031 49.0594C43.7071 48.6461 43.742 48.2184 43.7062 47.7938L53.1469 42.3469C53.5776 42.1078 54.0845 42.0455 54.5603 42.1732C55.0362 42.3009 55.4437 42.6086 55.6969 43.0313ZM41.8312 28.125L39.0187 22.5H52.8563L55.6688 28.125H41.8312Z" fill="#C73E9B"/>
<path d="M48.75 16.875C48.75 16.1333 48.5301 15.4083 48.118 14.7916C47.706 14.1749 47.1203 13.6943 46.4351 13.4105C45.7498 13.1266 44.9958 13.0524 44.2684 13.1971C43.541 13.3418 42.8728 13.6989 42.3484 14.2234C41.8239 14.7478 41.4668 15.416 41.3221 16.1434C41.1774 16.8708 41.2516 17.6248 41.5355 18.3101C41.8193 18.9953 42.2999 19.581 42.9166 19.993C43.5333 20.4051 44.2583 20.625 45 20.625C45.9946 20.625 46.9484 20.2299 47.6517 19.5267C48.3549 18.8234 48.75 17.8696 48.75 16.875ZM45 18.75C44.6292 18.75 44.2666 18.64 43.9583 18.434C43.65 18.228 43.4096 17.9351 43.2677 17.5925C43.1258 17.2499 43.0887 16.8729 43.161 16.5092C43.2334 16.1455 43.412 15.8114 43.6742 15.5492C43.9364 15.287 44.2705 15.1084 44.6342 15.036C44.9979 14.9637 45.3749 15.0008 45.7175 15.1427C46.0601 15.2846 46.353 15.525 46.559 15.8333C46.765 16.1416 46.875 16.5042 46.875 16.875C46.875 17.3723 46.6775 17.8492 46.3258 18.2008C45.9742 18.5525 45.4973 18.75 45 18.75Z" fill="#C73E9B"/>
</svg>
