<svg width="60" height="60" viewBox="0 0 60 60" fill="none" xmlns="http://www.w3.org/2000/svg">
<path d="M47.4626 19.4559L41.5001 13.4934C41.3773 13.3696 41.2223 13.2824 41.0526 13.2418C40.883 13.2013 40.7053 13.2088 40.5397 13.2636C40.3741 13.3185 40.2271 13.4185 40.1152 13.5523C40.0033 13.6861 39.931 13.8485 39.9064 14.0213C39.8078 14.7106 39.5192 15.3589 39.0729 15.8935C38.6267 16.4281 38.0404 16.8278 37.3797 17.048C36.7191 17.2682 36.0102 17.3 35.3324 17.14C34.6547 16.98 34.0349 16.6344 33.5425 16.142C33.0501 15.6496 32.7045 15.0298 32.5445 14.3521C32.3845 13.6743 32.4163 12.9654 32.6365 12.3048C32.8566 11.6441 33.2564 11.0578 33.791 10.6116C34.3256 10.1653 34.9739 9.87671 35.6632 9.77813C35.8359 9.7535 35.9984 9.68116 36.1322 9.56927C36.266 9.45738 36.366 9.31036 36.4208 9.14475C36.4757 8.97914 36.4832 8.80152 36.4426 8.63186C36.402 8.46219 36.3149 8.30722 36.1911 8.18437L30.2286 2.22187C30.0527 2.04612 29.8143 1.94739 29.5657 1.94739C29.3171 1.94739 29.0787 2.04612 28.9029 2.22187L23.7251 7.39781C23.4702 6.44361 22.9685 5.57336 22.2705 4.87457C21.5725 4.17578 20.7028 3.67309 19.7489 3.41706C18.795 3.16102 17.7905 3.16067 16.8364 3.41603C15.8823 3.67139 15.0123 4.17346 14.3138 4.87175C13.6153 5.57005 13.113 6.43994 12.8574 7.39396C12.6018 8.34798 12.6019 9.35249 12.8576 10.3065C13.1134 11.2604 13.6159 12.1303 14.3145 12.8284C15.0131 13.5266 15.8832 14.0285 16.8373 14.2838L11.6651 19.4559C11.4894 19.6317 11.3906 19.8702 11.3906 20.1187C11.3906 20.3673 11.4894 20.6058 11.6651 20.7816L16.8392 25.9622C15.7034 26.2673 14.6917 26.9208 13.9466 27.8307C13.2014 28.7406 12.7602 29.8611 12.685 31.0348C12.6098 32.2085 12.9043 33.3762 13.5272 34.3738C14.1501 35.3714 15.07 36.1486 16.1576 36.5962L13.9685 42.9103C13.6777 43.5655 13.5411 44.2786 13.569 44.9948C13.597 45.7111 13.7888 46.4114 14.1298 47.0419L17.4204 54.8231C17.4326 54.8531 17.4467 54.8822 17.4626 54.9103C17.6931 55.3327 17.8133 55.8063 17.8123 56.2875V57.1875C17.8123 57.4361 17.9111 57.6746 18.0869 57.8504C18.2627 58.0262 18.5012 58.125 18.7498 58.125C18.9984 58.125 19.2369 58.0262 19.4127 57.8504C19.5885 57.6746 19.6873 57.4361 19.6873 57.1875V56.2875C19.6863 55.5076 19.4931 54.74 19.1248 54.0525L15.8332 46.2712C15.8202 46.2391 15.8052 46.2078 15.7882 46.1775C15.5734 45.7853 15.4539 45.3481 15.4396 44.9011C15.4253 44.4542 15.5164 44.0101 15.7057 43.605L17.9989 37.005C18.0973 37.005 18.1939 37.0191 18.2932 37.0191C19.5306 37.0201 20.7336 36.6125 21.7154 35.8594C22.6972 35.1063 23.4027 34.05 23.7223 32.8547L25.3123 34.4381V44.0625C25.3123 44.3111 25.4111 44.5496 25.5869 44.7254C25.7627 44.9012 26.0012 45 26.2498 45C26.4984 45 26.7369 44.9012 26.9127 44.7254C27.0885 44.5496 27.1873 44.3111 27.1873 44.0625V30.9375C27.1873 30.1916 27.4836 29.4762 28.0111 28.9488C28.5385 28.4213 29.2539 28.125 29.9998 28.125C30.7457 28.125 31.4611 28.4213 31.9885 28.9488C32.516 29.4762 32.8123 30.1916 32.8123 30.9375V42.2916C32.814 43.6013 33.1188 44.8928 33.7029 46.065L34.0461 46.7531C34.4997 47.6648 34.7358 48.6692 34.7358 49.6875C34.7358 50.7058 34.4997 51.7102 34.0461 52.6219L33.1086 54.4969C32.9139 54.8877 32.8125 55.3184 32.8123 55.755V57.1875C32.8123 57.4361 32.9111 57.6746 33.0869 57.8504C33.2627 58.0262 33.5012 58.125 33.7498 58.125C33.9984 58.125 34.2369 58.0262 34.4127 57.8504C34.5885 57.6746 34.6873 57.4361 34.6873 57.1875V55.755C34.6863 55.61 34.7184 55.4667 34.7811 55.3359L35.7186 53.4609C36.3017 52.2887 36.6052 50.9972 36.6052 49.688C36.6052 48.3787 36.3017 47.0872 35.7186 45.915L35.3754 45.2269C35.0393 44.5518 34.8215 43.824 34.7314 43.0753C35.3403 43.6864 36.064 44.171 36.8609 44.5014C37.6578 44.8317 38.5121 45.0011 39.3748 45C40.1207 45 40.8361 44.7037 41.3635 44.1762C41.891 43.6488 42.1873 42.9334 42.1873 42.1875V36.8437C43.3973 36.5444 44.4734 35.8511 45.2463 34.8732C46.0192 33.8952 46.445 32.6881 46.4567 31.4416C46.4684 30.1952 46.0654 28.9802 45.311 27.988C44.5566 26.9957 43.4937 26.2824 42.2895 25.9603L47.4626 20.7797C47.6378 20.604 47.7362 20.3659 47.7362 20.1178C47.7362 19.8697 47.6378 19.6317 47.4626 19.4559ZM39.3748 43.125C38.1321 43.1235 36.9406 42.6292 36.0619 41.7504C35.1831 40.8717 34.6888 39.6802 34.6873 38.4375V33.5625L35.4036 32.8462C35.699 33.9565 36.3282 34.9492 37.2061 35.6903C38.084 36.4314 39.1682 36.885 40.3123 36.99V42.1875C40.3123 42.4361 40.2135 42.6746 40.0377 42.8504C39.8619 43.0262 39.6234 43.125 39.3748 43.125ZM39.5089 26.0934C39.3682 26.2325 39.2751 26.4126 39.2429 26.6078C39.2108 26.803 39.2412 27.0033 39.3298 27.1802C39.4185 27.3571 39.5608 27.5014 39.7364 27.5924C39.912 27.6835 40.112 27.7167 40.3076 27.6872C41.0865 27.577 41.8803 27.7144 42.5768 28.0802C43.2732 28.446 43.837 29.0215 44.1883 29.7253C44.5396 30.4291 44.6608 31.2256 44.5345 32.0021C44.4082 32.7785 44.041 33.4956 43.4848 34.0518C42.9285 34.6081 42.2114 34.9753 41.435 35.1016C40.6586 35.2278 39.8621 35.1067 39.1582 34.7554C38.4544 34.404 37.8789 33.8403 37.5131 33.1438C37.1474 32.4474 37.0099 31.6536 37.1201 30.8747C37.1496 30.6791 37.1164 30.4791 37.0253 30.3035C36.9343 30.1279 36.79 29.9855 36.6131 29.8969C36.4363 29.8083 36.2359 29.7778 36.0407 29.81C35.8455 29.8422 35.6654 29.9352 35.5264 30.0759L34.6873 30.9169C34.6859 30.3013 34.5634 29.692 34.3265 29.1238C34.0897 28.5556 33.7433 28.0396 33.3071 27.6053C32.8708 27.171 32.3533 26.8269 31.7841 26.5926C31.2149 26.3582 30.6051 26.2383 29.9895 26.2397C29.3739 26.241 28.7646 26.3636 28.1964 26.6004C27.6282 26.8373 27.1123 27.1837 26.6779 27.6199C25.8008 28.5009 25.3096 29.6943 25.3123 30.9375V31.7869L23.5939 30.0684C23.4548 29.9277 23.2748 29.8347 23.0795 29.8025C22.8843 29.7703 22.684 29.8008 22.5071 29.8894C22.3302 29.978 22.1859 30.1204 22.0949 30.296C22.0038 30.4716 21.9706 30.6716 22.0001 30.8672C22.1103 31.6461 21.9729 32.4399 21.6071 33.1363C21.2413 33.8328 20.6658 34.3965 19.962 34.7479C19.2582 35.0992 18.4617 35.2203 17.6852 35.0941C16.9088 34.9678 16.1917 34.6006 15.6355 34.0443C15.0792 33.4881 14.712 32.771 14.5857 31.9946C14.4595 31.2181 14.5806 30.4216 14.9319 29.7178C15.2833 29.014 15.847 28.4385 16.5435 28.0727C17.2399 27.7069 18.0337 27.5695 18.8126 27.6797C19.0083 27.7094 19.2084 27.6764 19.3842 27.5854C19.56 27.4945 19.7025 27.3502 19.7913 27.1733C19.8801 26.9963 19.9106 26.7958 19.8784 26.6005C19.8463 26.4052 19.7531 26.2251 19.6123 26.0859L13.6526 20.1187L19.6189 14.1563C19.7596 14.0172 19.8526 13.8371 19.8848 13.6419C19.917 13.4467 19.8865 13.2464 19.7979 13.0695C19.7093 12.8926 19.5669 12.7483 19.3913 12.6573C19.2157 12.5662 19.0157 12.533 18.8201 12.5625C18.0423 12.6712 17.2499 12.5329 16.5548 12.1672C15.8598 11.8015 15.2971 11.2267 14.9462 10.5241C14.5952 9.8214 14.4738 9.02629 14.599 8.25091C14.7242 7.47554 15.0897 6.75904 15.6439 6.2025C16.3586 5.52159 17.3079 5.14179 18.2951 5.14179C19.2823 5.14179 20.2316 5.52159 20.9464 6.2025C21.3566 6.61384 21.6657 7.11487 21.8492 7.66607C22.0327 8.21728 22.0857 8.80359 22.0039 9.37875C21.9744 9.57438 22.0076 9.77432 22.0986 9.94995C22.1897 10.1256 22.334 10.2679 22.5109 10.3565C22.6877 10.4452 22.8881 10.4756 23.0833 10.4434C23.2785 10.4113 23.4585 10.3182 23.5976 10.1775L29.5686 4.21312L33.7695 8.415C32.9575 8.80282 32.2503 9.37981 31.7075 10.0975C31.1646 10.8152 30.8018 11.6527 30.6497 12.5396C30.4975 13.4266 30.5603 14.3371 30.8329 15.1947C31.1055 16.0523 31.5799 16.832 32.2162 17.4683C32.8525 18.1046 33.6322 18.579 34.4898 18.8516C35.3474 19.1241 36.2579 19.187 37.1449 19.0348C38.0318 18.8826 38.8693 18.5199 39.587 17.977C40.3047 17.4342 40.8817 16.727 41.2695 15.915L45.4714 20.1159L39.5089 26.0934Z" fill="#0195FF"/>
<path d="M57.1875 21.5625H51.5625C51.3139 21.5625 51.0754 21.4637 50.8996 21.2879C50.7238 21.1121 50.625 20.8736 50.625 20.625C50.625 20.3764 50.7238 20.1379 50.8996 19.9621C51.0754 19.7863 51.3139 19.6875 51.5625 19.6875H57.1875C57.4361 19.6875 57.6746 19.7863 57.8504 19.9621C58.0262 20.1379 58.125 20.3764 58.125 20.625C58.125 20.8736 58.0262 21.1121 57.8504 21.2879C57.6746 21.4637 57.4361 21.5625 57.1875 21.5625Z" fill="#0195FF"/>
<path d="M50.5493 10.7812C50.3429 10.7812 50.1423 10.7131 49.9786 10.5875C49.8149 10.4618 49.6972 10.2857 49.6438 10.0863C49.5903 9.887 49.6042 9.67561 49.6832 9.48495C49.7621 9.29429 49.9018 9.13501 50.0805 9.03182L54.9555 6.21932C55.1707 6.09696 55.4256 6.06469 55.6645 6.12956C55.9034 6.19442 56.107 6.35115 56.2308 6.56554C56.3546 6.77994 56.3885 7.03459 56.3252 7.27393C56.262 7.51327 56.1066 7.71787 55.893 7.84307L51.018 10.6556C50.8756 10.7382 50.7139 10.7815 50.5493 10.7812Z" fill="#0195FF"/>
<path d="M55.4194 35.1563C55.2548 35.1567 55.0931 35.1133 54.9507 35.0307L50.0757 32.2182C49.9682 32.1571 49.8739 32.0753 49.7981 31.9776C49.7224 31.8799 49.6667 31.7682 49.6343 31.6488C49.6019 31.5295 49.5934 31.405 49.6094 31.2824C49.6253 31.1598 49.6654 31.0415 49.7272 30.9344C49.789 30.8274 49.8714 30.7336 49.9696 30.6585C50.0678 30.5834 50.1799 30.5284 50.2994 30.4968C50.419 30.4652 50.5436 30.4576 50.6661 30.4743C50.7886 30.4911 50.9065 30.5319 51.0132 30.5944L55.8882 33.4069C56.0669 33.5101 56.2066 33.6694 56.2856 33.8601C56.3645 34.0507 56.3784 34.2621 56.325 34.4615C56.2715 34.6608 56.1539 34.8369 55.9901 34.9626C55.8264 35.0882 55.6258 35.1563 55.4194 35.1563Z" fill="#0195FF"/>
<path d="M8.4375 21.5625H2.8125C2.56386 21.5625 2.3254 21.4637 2.14959 21.2879C1.97377 21.1121 1.875 20.8736 1.875 20.625C1.875 20.3764 1.97377 20.1379 2.14959 19.9621C2.3254 19.7863 2.56386 19.6875 2.8125 19.6875H8.4375C8.68614 19.6875 8.9246 19.7863 9.10041 19.9621C9.27623 20.1379 9.375 20.3764 9.375 20.625C9.375 20.8736 9.27623 21.1121 9.10041 21.2879C8.9246 21.4637 8.68614 21.5625 8.4375 21.5625Z" fill="#0195FF"/>
<path d="M9.45116 10.7812C9.28655 10.7815 9.12479 10.7382 8.98241 10.6556L4.10741 7.84307C3.89384 7.71787 3.73846 7.51327 3.67519 7.27393C3.61191 7.03459 3.64587 6.77994 3.76965 6.56554C3.89344 6.35115 4.097 6.19442 4.33591 6.12956C4.57483 6.06469 4.8297 6.09696 5.04491 6.21932L9.91991 9.03182C10.0986 9.13501 10.2383 9.29429 10.3173 9.48495C10.3962 9.67561 10.4101 9.887 10.3567 10.0863C10.3033 10.2857 10.1856 10.4618 10.0218 10.5875C9.85813 10.7131 9.65753 10.7812 9.45116 10.7812Z" fill="#0195FF"/>
<path d="M4.58053 35.1563C4.37416 35.1563 4.17356 35.0882 4.00984 34.9626C3.84612 34.8369 3.72842 34.6608 3.67501 34.4615C3.6216 34.2621 3.63545 34.0507 3.71442 33.8601C3.79339 33.6694 3.93306 33.5101 4.11178 33.4069L8.98678 30.5944C9.09344 30.5319 9.21141 30.4911 9.33391 30.4743C9.45641 30.4576 9.58101 30.4652 9.70054 30.4968C9.82007 30.5284 9.93217 30.5834 10.0304 30.6585C10.1286 30.7336 10.211 30.8274 10.2728 30.9344C10.3346 31.0415 10.3747 31.1598 10.3906 31.2824C10.4065 31.405 10.3981 31.5295 10.3657 31.6488C10.3333 31.7682 10.2776 31.8799 10.2018 31.9776C10.1261 32.0753 10.0318 32.1571 9.92428 32.2182L5.04928 35.0307C4.9069 35.1133 4.74514 35.1567 4.58053 35.1563Z" fill="#0195FF"/>
</svg>
