<svg width="60" height="60" viewBox="0 0 60 60" fill="none" xmlns="http://www.w3.org/2000/svg">
<g clip-path="url(#clip0_24_3698)">
<path d="M58.9225 41.229C58.9065 40.7189 58.7424 40.2457 58.4785 39.8475C58.4808 39.8437 58.4746 13.4737 58.4803 13.4699C58.4803 13.4699 58.4803 10.389 58.4803 10.389C58.4803 8.98946 57.3444 7.85085 55.9479 7.85085H37.8927V2.44344C37.8927 1.16079 36.8495 0.117188 35.5668 0.117188H3.13026C1.84761 0.117188 0.803711 1.16079 0.803711 2.44344V57.5566C0.803711 58.8392 1.84761 59.8828 3.13026 59.8828H35.5668C36.8495 59.8828 37.8927 58.8392 37.8927 57.5566V47.8883H39.335L40.994 50.0985L41.6694 53.1291C41.6804 53.1797 41.6981 53.2287 41.7212 53.275C42.5205 54.858 44.1912 55.8453 45.9565 55.7888C45.9565 55.7888 54.3741 55.5278 54.3741 55.5278C56.1239 55.4736 57.666 54.4517 58.3981 52.8608C58.8841 51.9262 59.2465 50.9147 59.1904 49.8466C59.1905 49.8467 58.9225 41.229 58.9225 41.229ZM55.9479 9.09817C56.6562 9.09817 57.233 9.67737 57.233 10.389V12.8444H10.3706V10.389C10.3706 9.67737 10.9474 9.09817 11.6557 9.09817H55.9479ZM11.6539 47.8883H34.5814V53.8021C34.6005 54.1715 4.3711 53.7982 4.23969 53.9272C3.83183 53.956 4.25906 3.55368 4.109 3.42278H12.4669C13.0919 4.2361 13.7381 5.31058 14.9172 5.25625C14.9171 5.25631 23.7793 5.25631 23.7793 5.25631C24.9533 5.32131 25.6084 4.22 26.2289 3.42278H34.5814V7.85085H11.6557C10.2591 7.85085 9.12327 8.98946 9.12327 10.389C9.12145 10.3981 9.12676 13.4605 9.12145 13.468C9.12144 13.4681 9.12144 45.3498 9.12144 45.3498C9.12144 46.7494 10.2573 47.8883 11.6539 47.8883ZM36.6454 57.5566C36.6454 58.1516 36.1618 58.6355 35.5668 58.6355H3.13026C2.53523 58.6355 2.05104 58.1516 2.05104 57.5566V2.44344C2.05104 1.8484 2.53523 1.36451 3.13026 1.36451H35.5668C36.1618 1.36451 36.6454 1.8484 36.6454 2.44344V7.85085H35.8287V2.79912C35.8287 2.4547 35.5498 2.17546 35.205 2.17546H25.925C25.7332 2.17546 25.5517 2.26377 25.4335 2.41512L24.4456 3.6801C24.2897 3.88901 24.0473 4.00899 23.7793 4.00899H14.9171C14.6497 4.00899 14.3982 3.88596 14.2374 3.67005L13.2648 2.41664C13.1466 2.26468 12.9645 2.17546 12.7721 2.17546H3.48534C3.14062 2.17546 2.86168 2.4547 2.86168 2.79912V53.8021C2.86168 54.5588 3.47986 55.1743 4.23995 55.1743H34.4504C35.2105 55.1743 35.8287 54.5588 35.8287 53.8021V47.8898H36.6454V57.5566ZM11.6539 46.6409C10.9455 46.6409 10.3688 46.0617 10.3688 45.3498V14.0936H57.2312V38.8403C56.5104 38.5735 55.677 38.6828 55.027 39.0824C55.1494 37.019 52.8538 35.5548 51.1218 36.6928C50.9932 34.8208 48.8527 33.5953 47.23 34.6357C47.23 34.6357 47.1041 30.5559 47.1039 30.5518C47.0045 27.3326 41.9305 27.431 42.0312 30.7086C42.1163 33.441 42.3405 40.7321 42.4269 43.5548L39.8831 40.1653C39.0667 39.0841 37.4536 38.7484 36.3452 39.5496C35.185 40.3294 34.9235 42.0472 35.777 43.1484C35.7769 43.1484 38.3964 46.6409 38.3964 46.6409H11.6539ZM57.4382 51.9637C56.9489 53.2856 55.7704 54.2531 54.3351 54.2811C54.3351 54.2811 45.9175 54.5421 45.9175 54.5421C44.6471 54.5671 43.4637 53.891 42.8686 52.778L42.1816 49.6959C42.1554 49.4415 36.8026 42.4947 36.774 42.3986C35.7911 40.9509 37.8113 39.5306 38.8831 40.9157C38.8831 40.9156 42.6122 45.8863 42.6122 45.8863C42.955 46.3712 43.7712 46.0837 43.7377 45.4898C43.7378 45.4899 43.4488 36.1754 43.4488 36.1754L43.2798 30.669C43.2781 28.9897 45.7443 28.9092 45.8554 30.5887C45.9625 34.8714 46.1225 39.1535 46.2553 43.4363C46.3888 44.1265 45.9216 45.5702 46.9479 45.6358C47.2921 45.6251 47.5626 45.3373 47.5522 44.9929C47.4891 42.9612 47.4259 40.9294 47.3628 38.8977C47.4029 37.7003 46.7992 35.5821 48.5888 35.4909C49.2878 35.4835 49.8552 36.1257 49.8788 36.8204C49.8788 36.8204 49.8852 37.0086 49.8852 37.0086C49.8852 37.0086 49.9439 38.9158 49.9439 38.9161L50.1303 44.9134C50.1409 45.2578 50.4316 45.5288 50.7735 45.5173C51.1176 45.5066 51.388 45.2188 51.3776 44.8744L51.1913 38.8773C51.1639 38.1752 51.7774 37.5448 52.4788 37.5479C53.1688 37.5479 53.748 38.1439 53.7706 38.8771C53.7706 38.8771 53.8455 41.2533 53.8458 41.2546C53.8458 41.2546 53.8473 41.3042 53.8473 41.3063L53.9557 44.7946C53.9933 45.6114 55.2157 45.5763 55.203 44.7556C55.203 44.7556 55.0946 41.2687 55.0946 41.2675C55.152 39.5256 57.5859 39.519 57.6757 41.268C57.6758 41.2679 57.9431 49.8856 57.9431 49.8856C57.9657 50.5958 57.7976 51.3011 57.4382 51.9637ZM52.6135 10.969C52.6312 9.99423 54.0802 9.99436 54.0978 10.969C54.0815 11.9526 52.6297 11.9525 52.6135 10.969ZM48.5162 10.969C48.5338 9.99423 49.9831 9.99437 50.0006 10.969C49.9843 11.9526 48.5323 11.9525 48.5162 10.969ZM44.4189 10.969C44.4365 9.99427 45.8857 9.99432 45.9032 10.969C45.8869 11.9527 44.435 11.9524 44.4189 10.969ZM21.901 19.2951C21.1318 18.4662 19.8303 18.4199 18.9983 19.1901L15.7704 22.1841C13.8262 24.0741 16.5248 26.9876 18.5635 25.1958C18.5635 25.1959 21.7914 22.2018 21.7914 22.2018C22.6157 21.4668 22.6703 20.0916 21.901 19.2954V19.2951ZM17.7157 24.2811C16.9206 24.9906 15.8487 23.8316 16.6182 23.0989C16.6182 23.0989 17.7751 22.026 17.7751 22.026L18.872 23.2084L17.7157 24.2811ZM20.9436 21.287L19.7867 22.3599L18.6898 21.1775L19.8461 20.1048C20.6425 19.3928 21.7073 20.5533 20.9436 21.287ZM22.367 15.9956H15.1906C13.7526 15.9956 12.5826 17.1656 12.5826 18.6035V25.7799C12.5826 27.2179 13.7526 28.3879 15.1906 28.3879H22.367C23.8049 28.3879 24.9749 27.2179 24.9749 25.7799V18.6035C24.9749 17.1656 23.8049 15.9956 22.367 15.9956ZM23.7276 25.7799C23.7276 26.5303 23.1173 27.1405 22.367 27.1405H15.1906C14.4402 27.1405 13.83 26.5303 13.83 25.7799V18.6035C13.83 17.8532 14.4402 17.2429 15.1906 17.2429H22.367C23.1173 17.2429 23.7276 17.8532 23.7276 18.6035V25.7799ZM18.9983 33.974L15.7704 36.9681C15.3715 37.3378 15.137 37.8433 15.1108 38.3978C14.99 40.1708 17.2963 41.2317 18.5635 39.9797C18.5635 39.9798 21.7914 36.9857 21.7914 36.9857C23.7294 35.0965 21.0407 32.1793 18.9983 33.974ZM17.7157 39.065C16.9208 39.7747 15.8486 38.6155 16.6182 37.8829C16.6182 37.8829 17.7751 36.81 17.7751 36.81L18.872 37.9924L17.7157 39.065ZM20.9436 36.071L19.7867 37.1439L18.6898 35.9614L19.8461 34.8888C20.6418 34.1767 21.7074 35.3373 20.9436 36.071ZM22.367 30.7796H15.1906C13.7526 30.7796 12.5826 31.9496 12.5826 33.3878V40.5639C12.5826 42.0022 13.7526 43.1721 15.1906 43.1721H22.367C23.8049 43.1721 24.9749 42.0022 24.9749 40.5639V33.3878C24.9749 31.9496 23.8049 30.7796 22.367 30.7796ZM23.7276 40.5639C23.7276 41.3142 23.1173 41.9248 22.367 41.9248H15.1906C14.4402 41.9248 13.83 41.3142 13.83 40.5639V33.3878C13.83 32.6375 14.4402 32.0269 15.1906 32.0269H22.367C23.1173 32.0269 23.7276 32.6375 23.7276 33.3878V40.5639ZM27.1571 18.3286C27.1571 17.9841 27.436 17.7049 27.7808 17.7049H37.6144C37.9591 17.7049 38.2381 17.9841 38.2381 18.3286C38.2381 18.673 37.9591 18.9522 37.6144 18.9522H27.7808C27.436 18.9522 27.1571 18.673 27.1571 18.3286ZM27.1571 32.991C27.1571 32.6466 27.436 32.3674 27.7808 32.3674H37.6144C37.9591 32.3674 38.2381 32.6466 38.2381 32.991C38.2381 33.3354 37.9591 33.6147 37.6144 33.6147H27.7808C27.436 33.6147 27.1571 33.3354 27.1571 32.991ZM27.1571 22.1917C27.1571 21.8473 27.436 21.5681 27.7808 21.5681H52.6134C53.4244 21.5793 53.4403 22.8009 52.6133 22.8154C52.6134 22.8154 27.7808 22.8154 27.7808 22.8154C27.436 22.8154 27.1571 22.5361 27.1571 22.1917ZM27.1571 26.0549C27.1571 25.7105 27.436 25.4312 27.7808 25.4312H52.6134C53.4244 25.4424 53.4403 26.6641 52.6133 26.6786C52.6134 26.6786 27.7808 26.6786 27.7808 26.6786C27.436 26.6786 27.1571 26.3993 27.1571 26.0549ZM27.1571 36.8402C27.1571 36.4958 27.436 36.2165 27.7808 36.2165H40.7315C41.0762 36.2165 41.3552 36.4958 41.3552 36.8402C41.3552 37.1846 41.0762 37.4639 40.7315 37.4639H27.7808C27.436 37.4639 27.1571 37.1846 27.1571 36.8402ZM33.3213 41.2868C33.3213 41.6312 33.0423 41.9105 32.6976 41.9105H27.7808C27.436 41.9105 27.1571 41.6312 27.1571 41.2868C27.1571 40.9424 27.436 40.6632 27.7808 40.6632H32.6976C33.0423 40.6632 33.3213 40.9424 33.3213 41.2868Z" fill="#0195FF"/>
</g>
<defs>
<clipPath id="clip0_24_3698">
<rect width="60" height="60" fill="white"/>
</clipPath>
</defs>
</svg>
