<svg width="60" height="60" viewBox="0 0 60 60" fill="none" xmlns="http://www.w3.org/2000/svg">
<g clip-path="url(#clip0_24_3763)">
<path d="M49 38C50.0609 38 51.0783 37.5786 51.8284 36.8284C52.5786 36.0783 53 35.0609 53 34V4C53 2.93913 52.5786 1.92172 51.8284 1.17157C51.0783 0.421427 50.0609 0 49 0L11 0C9.93913 0 8.92172 0.421427 8.17157 1.17157C7.42143 1.92172 7 2.93913 7 4V34C7 35.0609 7.42143 36.0783 8.17157 36.8284C8.92172 37.5786 9.93913 38 11 38H25V42H20C18.9391 42 17.9217 42.4214 17.1716 43.1716C16.4214 43.9217 16 44.9391 16 46V56C16 57.0609 16.4214 58.0783 17.1716 58.8284C17.9217 59.5786 18.9391 60 20 60H40C41.0609 60 42.0783 59.5786 42.8284 58.8284C43.5786 58.0783 44 57.0609 44 56V46C44 44.9391 43.5786 43.9217 42.8284 43.1716C42.0783 42.4214 41.0609 42 40 42H35V38H49ZM11 2H49C49.5304 2 50.0391 2.21071 50.4142 2.58579C50.7893 2.96086 51 3.46957 51 4V8H9V4C9 3.46957 9.21071 2.96086 9.58579 2.58579C9.96086 2.21071 10.4696 2 11 2ZM11 36C10.4696 36 9.96086 35.7893 9.58579 35.4142C9.21071 35.0391 9 34.5304 9 34V10H51V34C51 34.5304 50.7893 35.0391 50.4142 35.4142C50.0391 35.7893 49.5304 36 49 36H35V27H36.18C36.5174 26.9996 36.8479 26.9047 37.1342 26.7262C37.4205 26.5478 37.6511 26.2927 37.8 25.99C37.9624 25.6707 38.032 25.3123 38.0011 24.9555C37.9702 24.5986 37.8399 24.2576 37.625 23.971L31.439 15.73C31.2673 15.5127 31.0487 15.3372 30.7995 15.2164C30.5502 15.0957 30.2769 15.033 30 15.033C29.7231 15.033 29.4498 15.0957 29.2006 15.2164C28.9513 15.3372 28.7327 15.5127 28.561 15.73L22.376 23.975C22.1625 24.2616 22.0334 24.6021 22.0032 24.9581C21.973 25.3142 22.0429 25.6716 22.205 25.99C22.3535 26.292 22.5834 26.5465 22.8687 26.7249C23.154 26.9034 23.4835 26.9986 23.82 27H25V36H11ZM42 46V56C42 56.5304 41.7893 57.0391 41.4142 57.4142C41.0391 57.7893 40.5304 58 40 58H20C19.4696 58 18.9609 57.7893 18.5858 57.4142C18.2107 57.0391 18 56.5304 18 56V46C18 45.4696 18.2107 44.9609 18.5858 44.5858C18.9609 44.2107 19.4696 44 20 44H40C40.5304 44 41.0391 44.2107 41.4142 44.5858C41.7893 44.9609 42 45.4696 42 46ZM27 42V26C27 25.7348 26.8946 25.4804 26.7071 25.2929C26.5196 25.1054 26.2652 25 26 25H24.107L30 17.143L35.94 25H34C33.7348 25 33.4804 25.1054 33.2929 25.2929C33.1054 25.4804 33 25.7348 33 26V42H27Z" fill="#6A26DA"/>
<path d="M25.8322 48.445C25.7594 48.3357 25.6657 48.2419 25.5565 48.1688C25.4474 48.0957 25.3249 48.0449 25.1961 48.0192C25.0673 47.9935 24.9347 47.9934 24.8059 48.0189C24.677 48.0444 24.5545 48.0951 24.4452 48.168L21.4452 50.168C21.3083 50.2593 21.196 50.383 21.1183 50.5282C21.0406 50.6733 21 50.8354 21 51C21 51.1646 21.0406 51.3267 21.1183 51.4718C21.196 51.6169 21.3083 51.7407 21.4452 51.832L24.4452 53.832C24.6659 53.9792 24.936 54.0327 25.1961 53.9807C25.4562 53.9288 25.685 53.7757 25.8322 53.555C25.9794 53.3343 26.0329 53.0642 25.981 52.8041C25.929 52.544 25.7759 52.3152 25.5552 52.168L23.8002 51L25.5522 49.832C25.6617 49.7594 25.7559 49.6658 25.8292 49.5568C25.9026 49.4478 25.9537 49.3253 25.9797 49.1965C26.0057 49.0677 26.0061 48.935 25.9808 48.8061C25.9555 48.6771 25.905 48.5544 25.8322 48.445Z" fill="#6A26DA"/>
<path d="M34.1681 53.555C34.241 53.6643 34.3347 53.7581 34.4438 53.8312C34.553 53.9043 34.6755 53.9551 34.8043 53.9808C34.9331 54.0065 35.0657 54.0066 35.1945 53.9811C35.3233 53.9556 35.4459 53.9049 35.5551 53.832L38.5551 51.832C38.6921 51.7407 38.8044 51.617 38.8821 51.4718C38.9597 51.3267 39.0004 51.1646 39.0004 51C39.0004 50.8354 38.9597 50.6733 38.8821 50.5282C38.8044 50.3831 38.6921 50.2593 38.5551 50.168L35.5551 48.168C35.3345 48.0208 35.0644 47.9673 34.8043 48.0192C34.5441 48.0712 34.3153 48.2243 34.1681 48.445C34.0209 48.6657 33.9674 48.9358 34.0194 49.1959C34.0713 49.456 34.2245 49.6848 34.4451 49.832L36.2001 51L34.4481 52.168C34.3386 52.2406 34.2445 52.3342 34.1711 52.4432C34.0978 52.5522 34.0467 52.6747 34.0207 52.8035C33.9946 52.9323 33.9943 53.065 34.0196 53.1939C34.0449 53.3229 34.0954 53.4456 34.1681 53.555Z" fill="#6A26DA"/>
<path d="M31.3162 47.052C31.0647 46.9684 30.7904 46.988 30.5534 47.1065C30.3164 47.225 30.1361 47.4327 30.0522 47.684L28.0522 53.684C28.0107 53.8088 27.9941 53.9405 28.0035 54.0716C28.0129 54.2027 28.0481 54.3308 28.107 54.4483C28.1658 54.5659 28.2473 54.6707 28.3467 54.7568C28.446 54.8428 28.5614 54.9085 28.6862 54.95C28.8109 54.9915 28.9426 55.008 29.0738 54.9986C29.2049 54.9892 29.3329 54.9541 29.4505 54.8952C29.568 54.8363 29.6728 54.7549 29.7589 54.6555C29.845 54.5561 29.9107 54.4408 29.9522 54.316L31.9522 48.316C31.9935 48.1913 32.0098 48.0596 32.0002 47.9285C31.9906 47.7975 31.9552 47.6696 31.8961 47.5522C31.8371 47.4348 31.7554 47.3302 31.6559 47.2444C31.5564 47.1585 31.441 47.0932 31.3162 47.052Z" fill="#6A26DA"/>
<path d="M12 6H13C13.2652 6 13.5196 5.89464 13.7071 5.70711C13.8946 5.51957 14 5.26522 14 5C14 4.73478 13.8946 4.48043 13.7071 4.29289C13.5196 4.10536 13.2652 4 13 4H12C11.7348 4 11.4804 4.10536 11.2929 4.29289C11.1054 4.48043 11 4.73478 11 5C11 5.26522 11.1054 5.51957 11.2929 5.70711C11.4804 5.89464 11.7348 6 12 6Z" fill="#6A26DA"/>
<path d="M17 6H18C18.2652 6 18.5196 5.89464 18.7071 5.70711C18.8946 5.51957 19 5.26522 19 5C19 4.73478 18.8946 4.48043 18.7071 4.29289C18.5196 4.10536 18.2652 4 18 4H17C16.7348 4 16.4804 4.10536 16.2929 4.29289C16.1054 4.48043 16 4.73478 16 5C16 5.26522 16.1054 5.51957 16.2929 5.70711C16.4804 5.89464 16.7348 6 17 6Z" fill="#6A26DA"/>
<path d="M22 6H23C23.2652 6 23.5196 5.89464 23.7071 5.70711C23.8946 5.51957 24 5.26522 24 5C24 4.73478 23.8946 4.48043 23.7071 4.29289C23.5196 4.10536 23.2652 4 23 4H22C21.7348 4 21.4804 4.10536 21.2929 4.29289C21.1054 4.48043 21 4.73478 21 5C21 5.26522 21.1054 5.51957 21.2929 5.70711C21.4804 5.89464 21.7348 6 22 6Z" fill="#6A26DA"/>
<path d="M44 6H48C48.2652 6 48.5196 5.89464 48.7071 5.70711C48.8946 5.51957 49 5.26522 49 5C49 4.73478 48.8946 4.48043 48.7071 4.29289C48.5196 4.10536 48.2652 4 48 4H44C43.7348 4 43.4804 4.10536 43.2929 4.29289C43.1054 4.48043 43 4.73478 43 5C43 5.26522 43.1054 5.51957 43.2929 5.70711C43.4804 5.89464 43.7348 6 44 6Z" fill="#6A26DA"/>
</g>
<defs>
<clipPath id="clip0_24_3763">
<rect width="60" height="60" fill="white"/>
</clipPath>
</defs>
</svg>
