<svg width="60" height="60" viewBox="0 0 60 60" fill="none" xmlns="http://www.w3.org/2000/svg">
<g clip-path="url(#clip0_24_3772)">
<mask id="mask0_24_3772" style="mask-type:luminance" maskUnits="userSpaceOnUse" x="0" y="0" width="60" height="60">
<path d="M0 3.8147e-06H60V60H0V3.8147e-06Z" fill="white"/>
</mask>
<g mask="url(#mask0_24_3772)">
<path d="M32.018 23.2135C29.8601 23.2135 28.1106 21.4641 28.1106 19.306C28.1106 17.1482 29.8601 15.3987 32.018 15.3987C34.176 15.3987 35.9255 17.1482 35.9255 19.306C35.9255 21.4641 34.176 23.2135 32.018 23.2135ZM43.0508 16.4212C41.665 16.99 40.0381 16.4611 39.2686 15.1287C38.4985 13.7957 38.8547 12.1208 40.0417 11.2069C38.6682 9.84561 36.9495 8.83171 35.0287 8.30694C34.8325 9.79475 33.5595 10.9425 32.018 10.9425C30.4772 10.9425 29.2035 9.79475 29.0074 8.30694C27.0865 8.83171 25.3685 9.84561 23.995 11.2069C25.1814 12.1214 25.5376 13.7957 24.7681 15.1287C23.9984 16.4611 22.371 16.99 20.986 16.4212C20.7459 17.3426 20.6177 18.3096 20.6177 19.306C20.6177 20.3083 20.7469 21.2805 20.9901 22.2066C22.3744 21.6396 23.999 22.1691 24.7681 23.5009C25.5353 24.8305 25.1838 26.499 24.0049 27.4152C25.3771 28.772 27.093 29.7828 29.0096 30.3058C29.2129 28.8267 30.4829 27.6872 32.018 27.6872C33.5537 27.6872 34.8233 28.8267 35.0265 30.3058C36.9438 29.7828 38.6596 28.772 40.0319 27.4152C38.853 26.499 38.5007 24.8305 39.2686 23.5009C40.0376 22.1691 41.6616 21.6396 43.0465 22.2066C43.2897 21.2805 43.419 20.3083 43.419 19.306C43.419 18.3096 43.2908 17.3426 43.0508 16.4212Z" stroke="#6A26DA" stroke-width="2" stroke-miterlimit="10" stroke-linecap="round" stroke-linejoin="round"/>
<path d="M15.8444 50.2131H10.0425L10.0426 34.6635H22.3656L34.3138 39.6089C36.4038 40.474 37.3885 42.8767 36.5065 44.9596L36.466 45.0552C35.577 47.155 33.2049 48.1617 31.0967 47.3486C27.7061 46.0408 23.2595 44.3312 23.2595 44.3312L34.7088 48.7329C37.1236 49.6613 39.7604 49.8488 42.2824 49.2714L54.0124 46.5857C56.1619 46.0936 58.2963 47.4628 58.745 49.6218C59.1738 51.6845 57.9026 53.7191 55.8606 54.2381L41.8643 57.7953C39.2254 58.466 36.4426 58.2919 33.9077 57.2978L25.6236 54.0485" stroke="#6A26DA" stroke-width="2" stroke-miterlimit="10" stroke-linecap="round" stroke-linejoin="round"/>
<path d="M10.0425 52.4988H1.17188V31.9H10.0426L10.0425 52.4988Z" stroke="#6A26DA" stroke-width="2" stroke-miterlimit="10" stroke-linecap="round" stroke-linejoin="round"/>
<path d="M44.2585 31.9686C45.8637 30.3851 47.1901 28.4656 48.1184 26.2574C51.8901 17.2867 47.6754 6.95701 38.7047 3.18556C29.7342 -0.586119 19.4043 3.62853 15.6327 12.5991C13.9696 16.5548 13.8603 20.7743 15.0258 24.5795" stroke="#6A26DA" stroke-width="2" stroke-miterlimit="10" stroke-linecap="round" stroke-linejoin="round"/>
<path d="M11.8848 23.3207L15.1884 25.2676L17.3712 22.0818" stroke="#6A26DA" stroke-width="2" stroke-miterlimit="10" stroke-linecap="round" stroke-linejoin="round"/>
</g>
</g>
<defs>
<clipPath id="clip0_24_3772">
<rect width="60" height="60" fill="white"/>
</clipPath>
</defs>
</svg>
