<svg width="60" height="60" viewBox="0 0 60 60" fill="none" xmlns="http://www.w3.org/2000/svg">
<path d="M52.4032 7.80269H51.6913C53.0483 5.59339 52.5472 2.62732 50.3693 1.01145C48.0227 -0.729453 44.688 -0.169074 43.0503 2.27822L39.3536 7.8028H7.59672C4.98642 7.8028 2.86279 9.92643 2.86279 12.5367V42.8026C2.86279 45.4129 4.98642 47.5366 7.59672 47.5366H25.9847L24.5954 53.372H21.5967C19.6424 53.372 18.0525 54.9619 18.0525 56.9162V57.6562H14.3558C13.7086 57.6562 13.184 58.181 13.184 58.8281C13.184 59.4752 13.7086 59.9999 14.3558 59.9999H45.6442C46.2914 59.9999 46.816 59.4752 46.816 58.8281C46.816 58.181 46.2914 57.6562 45.6442 57.6562H41.9476V56.9162C41.9476 54.9619 40.3576 53.372 38.4033 53.372H35.4047L34.0153 47.5366H52.4033C55.0136 47.5366 57.1372 45.4129 57.1372 42.8026V36.143V12.5366C57.1372 9.92632 55.0136 7.80269 52.4032 7.80269ZM35.6127 28.4037C33.7805 29.6863 30.348 27.943 27.0701 29.6921C26.2703 25.5373 26.7746 21.6297 30.9376 20.7672C31.4756 20.6551 32.0548 20.6043 32.5479 20.6142C33.9569 21.6596 35.3822 22.717 36.7872 23.7596C37.4023 25.5487 37.1715 27.3126 35.6127 28.4037ZM36.7937 15.8429L40.1108 18.304L37.5598 21.4142C36.5096 20.6351 35.6068 19.9652 34.5566 19.1859C34.7747 18.86 36.5943 16.1406 36.7937 15.8429ZM44.9983 3.58167C45.8858 2.25502 47.696 1.94635 48.9728 2.8938C50.2501 3.84136 50.4789 5.66312 49.4668 6.89719C47.6709 9.08657 43.4014 14.2921 41.5987 16.4899L38.0984 13.8928L44.9983 3.58167ZM39.6038 56.9162V57.6562H20.3962V56.9162C20.3962 56.2543 20.9347 55.7157 21.5967 55.7157H38.4032C39.0652 55.7157 39.6038 56.2543 39.6038 56.9162ZM32.9953 53.372H27.0046L28.3939 47.5366H31.606L32.9953 53.372ZM54.7935 42.8026C54.7935 44.1206 53.7213 45.1929 52.4033 45.1929C50.5431 45.1929 9.68836 45.1929 7.59684 45.1929C6.27886 45.1929 5.20661 44.1206 5.20661 42.8026V37.3148H8.5553C9.20251 37.3148 9.72715 36.7901 9.72715 36.143C9.72715 35.4959 9.20251 34.9711 8.5553 34.9711H5.20638V12.5366C5.20638 11.2186 6.27862 10.1464 7.59661 10.1464H37.7853C36.6626 11.8241 33.3874 16.7187 32.35 18.269C30.0535 18.2897 27.7608 19.0897 26.2599 20.8419C24.2175 23.226 23.8586 26.9722 25.1934 31.9762C25.4215 32.8319 26.4892 33.1385 27.1352 32.5214C30.1653 29.6261 33.9391 32.7842 37.3186 30.0489C39.3816 28.379 39.8698 25.7243 39.0919 23.2418C40.1434 21.9598 48.7789 11.4314 49.8328 10.1464H52.4031C53.7211 10.1464 54.7933 11.2186 54.7933 12.5366V34.971H17.9299C17.2827 34.971 16.758 35.4958 16.758 36.1429C16.758 36.79 17.2827 37.3147 17.9299 37.3147H54.7935V42.8026Z" fill="white"/>
<path d="M13.0164 34.9938C12.4523 35.1091 12.0742 35.5967 12.0742 36.1435C12.0742 36.8765 12.7444 37.4378 13.4746 37.2919C14.1235 37.1602 14.5187 36.5349 14.3945 35.9138C14.2641 35.2728 13.6423 34.8678 13.0164 34.9938Z" fill="white"/>
</svg>
