<svg width="60" height="60" viewBox="0 0 60 60" fill="none" xmlns="http://www.w3.org/2000/svg">
<path d="M29.1998 28.9334C29.1198 28.9334 29.0398 28.92 28.9731 28.8934C28.6265 28.76 28.4531 28.3867 28.5865 28.04L34.8665 11.0667C34.9998 10.72 35.3731 10.5467 35.7198 10.68C36.0665 10.8134 36.2398 11.1867 36.1198 11.5334L29.8265 28.4934C29.7331 28.76 29.4798 28.9334 29.1998 28.9334Z" fill="#6A26DA"/>
<path d="M14.24 25.76C12.0666 25.76 10.3066 24.08 10.3066 22.0267V14.5334C10.3066 14.16 10.6 13.8667 10.9733 13.8667C11.3466 13.8667 11.64 14.16 11.64 14.5334V22.0267C11.64 23.3467 12.8133 24.4267 14.24 24.4267C15.6666 24.4267 16.84 23.3467 16.84 22.0267V14.5334C16.84 14.16 17.1333 13.8667 17.5066 13.8667C17.88 13.8667 18.1733 14.16 18.1733 14.5334V22.0267C18.1866 24.0934 16.4133 25.76 14.24 25.76Z" fill="#6A26DA"/>
<path d="M20.6798 25.76C20.5731 25.76 20.4664 25.7334 20.3598 25.68C20.0398 25.5067 19.9198 25.1067 20.0931 24.7734L25.8264 14.1334C25.9998 13.8134 26.3998 13.6934 26.7331 13.8667C27.0531 14.04 27.1731 14.44 26.9998 14.7734L21.2664 25.4134C21.1464 25.64 20.9198 25.76 20.6798 25.76Z" fill="#6A26DA"/>
<path d="M26.4131 25.76C26.1731 25.76 25.9464 25.64 25.8264 25.4134L20.0931 14.7734C19.9198 14.4534 20.0398 14.04 20.3598 13.8667C20.6798 13.6934 21.0931 13.8134 21.2664 14.1334L26.9998 24.7734C27.1731 25.0934 27.0531 25.5067 26.7331 25.68C26.6264 25.7334 26.5198 25.76 26.4131 25.76Z" fill="#6A26DA"/>
<path d="M41.5598 25.76C39.3865 25.76 37.6265 24.08 37.6265 22.0267V14.5334C37.6265 14.16 37.9198 13.8667 38.2931 13.8667C38.6665 13.8667 38.9598 14.16 38.9598 14.5334V22.0267C38.9598 23.3467 40.1331 24.4267 41.5598 24.4267C42.9865 24.4267 44.1598 23.3467 44.1598 22.0267V14.5334C44.1598 14.16 44.4531 13.8667 44.8265 13.8667C45.1998 13.8667 45.4931 14.16 45.4931 14.5334V22.0267C45.4931 24.0934 43.7331 25.76 41.5598 25.76Z" fill="#6A26DA"/>
<path d="M49.0934 26.48C48.7201 26.48 48.4268 26.1867 48.4268 25.8134V13.7334C48.4268 13.36 48.7201 13.0667 49.0934 13.0667C49.4668 13.0667 49.7601 13.36 49.7601 13.7334V25.8134C49.7601 26.1867 49.4668 26.48 49.0934 26.48Z" fill="#6A26DA"/>
<path d="M23.5999 43.44C22.3866 43.44 21.3999 42.4533 21.3999 41.24C21.3999 40.0266 22.3866 39.04 23.5999 39.04C24.8132 39.04 25.7999 40.0266 25.7999 41.24C25.7999 42.4533 24.8132 43.44 23.5999 43.44ZM23.5999 40.3733C23.1199 40.3733 22.7332 40.76 22.7332 41.24C22.7332 41.72 23.1199 42.1066 23.5999 42.1066C24.0799 42.1066 24.4666 41.72 24.4666 41.24C24.4666 40.76 24.0799 40.3733 23.5999 40.3733Z" fill="#6A26DA"/>
<path d="M30.0398 43.44C28.8265 43.44 27.8398 42.4533 27.8398 41.24C27.8398 40.0266 28.8265 39.04 30.0398 39.04C31.2532 39.04 32.2398 40.0266 32.2398 41.24C32.2398 42.4533 31.2532 43.44 30.0398 43.44ZM30.0398 40.3733C29.5598 40.3733 29.1732 40.76 29.1732 41.24C29.1732 41.72 29.5598 42.1066 30.0398 42.1066C30.5198 42.1066 30.9065 41.72 30.9065 41.24C30.9065 40.76 30.5198 40.3733 30.0398 40.3733Z" fill="#6A26DA"/>
<path d="M36.4666 43.44C35.2533 43.44 34.2666 42.4533 34.2666 41.24C34.2666 40.0266 35.2533 39.04 36.4666 39.04C37.6799 39.04 38.6666 40.0266 38.6666 41.24C38.6666 42.4533 37.6799 43.44 36.4666 43.44ZM36.4666 40.3733C35.9866 40.3733 35.5999 40.76 35.5999 41.24C35.5999 41.72 35.9866 42.1066 36.4666 42.1066C36.9466 42.1066 37.3333 41.72 37.3333 41.24C37.3333 40.76 36.9466 40.3733 36.4666 40.3733Z" fill="#6A26DA"/>
<path d="M55.3599 46.7867H4.70658C2.42658 46.7867 0.573242 44.9333 0.573242 42.6533V6.66666C0.573242 4.38666 2.42658 2.53333 4.70658 2.53333H55.3599C57.6399 2.53333 59.4932 4.38666 59.4932 6.66666V42.6533C59.5066 44.9333 57.6399 46.7867 55.3599 46.7867ZM4.70658 3.85333C3.15991 3.85333 1.90658 5.10666 1.90658 6.65333V42.64C1.90658 44.1867 3.15991 45.44 4.70658 45.44H55.3599C56.9066 45.44 58.1599 44.1867 58.1599 42.64V6.66666C58.1599 5.11999 56.9066 3.86666 55.3599 3.86666C55.3599 3.85333 4.70658 3.85333 4.70658 3.85333Z" fill="#6A26DA"/>
<path d="M58.8399 37.0267H1.23991C0.866576 37.0267 0.573242 36.7334 0.573242 36.36C0.573242 35.9867 0.866576 35.6934 1.23991 35.6934H58.8399C59.2132 35.6934 59.5066 35.9867 59.5066 36.36C59.5066 36.7334 59.1999 37.0267 58.8399 37.0267Z" fill="#6A26DA"/>
<path d="M40.6797 52.9333C40.3064 52.9333 40.013 52.64 40.013 52.2667V46.1067C40.013 45.7333 40.3064 45.44 40.6797 45.44C41.053 45.44 41.3464 45.7333 41.3464 46.1067V52.2667C41.3464 52.64 41.053 52.9333 40.6797 52.9333ZM19.693 52.9333C19.3197 52.9333 19.0264 52.64 19.0264 52.2667V46.1067C19.0264 45.7333 19.3197 45.44 19.693 45.44C20.0664 45.44 20.3597 45.7333 20.3597 46.1067V52.2667C20.3597 52.64 20.0664 52.9333 19.693 52.9333Z" fill="#6A26DA"/>
<path d="M44.3199 57.6667H15.7465C14.0665 57.6667 12.7065 56.3067 12.7065 54.6267C12.7065 52.96 14.0665 51.5867 15.7465 51.5867H44.3065C45.9732 51.5867 47.3465 52.9467 47.3465 54.6267C47.3465 56.3067 45.9865 57.6667 44.3199 57.6667ZM15.7465 52.9333C14.8132 52.9333 14.0399 53.6933 14.0399 54.64C14.0399 55.5867 14.7999 56.3467 15.7465 56.3467H44.3065C45.2399 56.3467 46.0132 55.5867 46.0132 54.64C46.0132 53.6933 45.2532 52.9333 44.3065 52.9333H15.7465Z" fill="#6A26DA"/>
</svg>
