<svg width="61" height="60" viewBox="0 0 61 60" fill="none" xmlns="http://www.w3.org/2000/svg">
<g clip-path="url(#clip0_24_3091)">
<path d="M7.40968 21.9781C7.58088 22.1493 7.80565 22.2354 8.03041 22.2354C8.25517 22.2354 8.47994 22.1498 8.6516 21.9781C8.99446 21.6352 8.99446 21.079 8.6516 20.7362L6.51933 18.6039L8.6516 16.4721C8.99446 16.1288 8.99446 15.573 8.6516 15.2302C8.30873 14.8873 7.75255 14.8873 7.40968 15.2302L4.65668 17.9832C4.49188 18.148 4.39941 18.3714 4.39941 18.6039C4.39941 18.8369 4.49188 19.0603 4.65668 19.2251L7.40968 21.9781Z" fill="white"/>
<path d="M16.1237 18.6039L13.9915 20.7361C13.6486 21.079 13.6486 21.6352 13.9919 21.9781C14.1631 22.1493 14.3879 22.2353 14.6127 22.2353C14.8374 22.2353 15.0622 22.1493 15.2334 21.9781L17.9868 19.2246C18.3297 18.8817 18.3297 18.3256 17.9868 17.9831L15.2334 15.2297C14.8905 14.8868 14.3348 14.8868 13.9919 15.2297C13.6486 15.573 13.6486 16.1287 13.9919 16.4716L16.1237 18.6039Z" fill="white"/>
<path d="M10.0123 22.1745C10.1176 22.2157 10.2265 22.2354 10.3332 22.2354C10.6838 22.2354 11.0148 22.0239 11.1507 21.6783L13.3137 16.1718C13.4913 15.7205 13.2688 15.211 12.8175 15.0334C12.3666 14.8562 11.8566 15.0782 11.6794 15.5296L9.51605 21.0361C9.33889 21.4874 9.56091 21.9974 10.0123 22.1745Z" fill="white"/>
<path d="M5.77448 27.3871H11.6902C12.175 27.3871 12.5682 26.9938 12.5682 26.5086C12.5682 26.0238 12.175 25.6306 11.6902 25.6306H5.77448C5.28925 25.6306 4.89648 26.0238 4.89648 26.5086C4.89648 26.9938 5.28925 27.3871 5.77448 27.3871Z" fill="white"/>
<path d="M25.315 25.6306H14.9146C14.4298 25.6306 14.0366 26.0238 14.0366 26.5086C14.0366 26.9938 14.4298 27.3871 14.9146 27.3871H25.315C25.8003 27.3871 26.1935 26.9938 26.1935 26.5086C26.1935 26.0238 25.8003 25.6306 25.315 25.6306Z" fill="white"/>
<path d="M5.77448 31.0909H8.29448C8.77925 31.0909 9.17247 30.6977 9.17247 30.2125C9.17247 29.7277 8.77925 29.3345 8.29448 29.3345H5.77448C5.28925 29.3345 4.89648 29.7277 4.89648 30.2125C4.89648 30.6977 5.28925 31.0909 5.77448 31.0909Z" fill="white"/>
<path d="M22.1026 29.3345C21.6174 29.3345 21.2246 29.7277 21.2246 30.2125C21.2246 30.6977 21.6174 31.0909 22.1026 31.0909H23.637C24.1223 31.0909 24.5155 30.6977 24.5155 30.2125C24.5155 29.7277 24.1223 29.3345 23.637 29.3345H22.1026Z" fill="white"/>
<path d="M19.7911 30.2125C19.7911 29.7277 19.3979 29.3345 18.9131 29.3345H11.3756C10.8903 29.3345 10.4976 29.7277 10.4976 30.2125C10.4976 30.6977 10.8903 31.0909 11.3756 31.0909H18.9131C19.3979 31.0909 19.7911 30.6977 19.7911 30.2125Z" fill="white"/>
<path d="M25.5435 30.2125C25.5435 30.6977 25.9367 31.0909 26.4215 31.0909H29.2958C29.781 31.0909 30.1742 30.6977 30.1742 30.2125C30.1742 29.7277 29.781 29.3345 29.2958 29.3345H26.4215C25.9367 29.3345 25.5435 29.7277 25.5435 30.2125Z" fill="white"/>
<path d="M20.7613 19.3084H23.793C24.2783 19.3084 24.6715 18.9152 24.6715 18.43C24.6715 17.9452 24.2783 17.552 23.793 17.552H20.7613C20.276 17.552 19.8828 17.9452 19.8828 18.43C19.8828 18.9152 20.276 19.3084 20.7613 19.3084Z" fill="white"/>
<path d="M27.1885 19.3084H45.6873C46.1725 19.3084 46.5653 18.9152 46.5653 18.43C46.5653 17.9452 46.1725 17.552 45.6873 17.552H27.1885C26.7033 17.552 26.3101 17.9452 26.3101 18.43C26.3101 18.9152 26.7033 19.3084 27.1885 19.3084Z" fill="white"/>
<path d="M42.8775 21.4155H35.3839C34.8991 21.4155 34.5059 21.8087 34.5059 22.294C34.5059 22.7788 34.8991 23.172 35.3839 23.172H42.8775C43.3622 23.172 43.7555 22.7788 43.7555 22.294C43.7555 21.8087 43.3622 21.4155 42.8775 21.4155Z" fill="white"/>
<path d="M32.5744 21.4155H29.9986C29.5134 21.4155 29.1206 21.8087 29.1206 22.294C29.1206 22.7788 29.5134 23.172 29.9986 23.172H32.5744C33.0597 23.172 33.4524 22.7788 33.4524 22.294C33.4524 21.8087 33.0597 21.4155 32.5744 21.4155Z" fill="white"/>
<path d="M20.7613 23.172H27.0716C27.5563 23.172 27.9496 22.7788 27.9496 22.294C27.9496 21.8087 27.5563 21.4155 27.0716 21.4155H20.7613C20.276 21.4155 19.8828 21.8087 19.8828 22.294C19.8828 22.7788 20.276 23.172 20.7613 23.172Z" fill="white"/>
<path d="M18.9241 33.0071H13.0088C12.5236 33.0071 12.1304 33.4003 12.1304 33.8851C12.1304 34.3698 12.5236 34.7631 13.0088 34.7631H18.9241C19.4088 34.7631 19.8021 34.3698 19.8021 33.8851C19.8021 33.4003 19.4088 33.0071 18.9241 33.0071Z" fill="white"/>
<path d="M10.3192 33.0071H5.77448C5.28925 33.0071 4.89648 33.4003 4.89648 33.8851C4.89648 34.3698 5.28925 34.7631 5.77448 34.7631H10.3192C10.8044 34.7631 11.1972 34.3698 11.1972 33.8851C11.1972 33.4003 10.8044 33.0071 10.3192 33.0071Z" fill="white"/>
<path d="M29.6475 33.0071H21.92C21.4348 33.0071 21.042 33.4003 21.042 33.8851C21.042 34.3698 21.4348 34.7631 21.92 34.7631H29.6475C30.1323 34.7631 30.5255 34.3698 30.5255 33.8851C30.5255 33.4003 30.1323 33.0071 29.6475 33.0071Z" fill="white"/>
<path d="M40.0978 28.4962H35.8721C35.3874 28.4962 34.9941 28.8894 34.9941 29.3742C34.9941 29.8594 35.3874 30.2527 35.8721 30.2527H40.0978C40.583 30.2527 40.9758 29.8594 40.9758 29.3742C40.9758 28.8894 40.583 28.4962 40.0978 28.4962Z" fill="white"/>
<path d="M47.4302 30.2527H53.3954C53.8806 30.2527 54.2738 29.8594 54.2738 29.3742C54.2738 28.8894 53.8806 28.4962 53.3954 28.4962H47.4302C46.945 28.4962 46.5522 28.8894 46.5522 29.3742C46.5522 29.8594 46.9455 30.2527 47.4302 30.2527Z" fill="white"/>
<path d="M44.4475 28.4962H43.0806C42.5954 28.4962 42.2021 28.8894 42.2021 29.3742C42.2021 29.8594 42.5954 30.2527 43.0806 30.2527H44.4475C44.9327 30.2527 45.3255 29.8594 45.3255 29.3742C45.3255 28.8894 44.9327 28.4962 44.4475 28.4962Z" fill="white"/>
<path d="M35.8721 39.8218H40.0978C40.583 39.8218 40.9758 39.429 40.9758 38.9438C40.9758 38.459 40.583 38.0658 40.0978 38.0658H35.8721C35.3874 38.0658 34.9941 38.459 34.9941 38.9438C34.9941 39.429 35.3874 39.8218 35.8721 39.8218Z" fill="white"/>
<path d="M47.4302 39.8218H53.3954C53.8806 39.8218 54.2738 39.429 54.2738 38.9438C54.2738 38.459 53.8806 38.0658 53.3954 38.0658H47.4302C46.945 38.0658 46.5522 38.459 46.5522 38.9438C46.5522 39.429 46.9455 39.8218 47.4302 39.8218Z" fill="white"/>
<path d="M43.0806 39.8218H44.4475C44.9328 39.8218 45.326 39.429 45.326 38.9438C45.326 38.459 44.9328 38.0658 44.4475 38.0658H43.0806C42.5954 38.0658 42.2026 38.459 42.2026 38.9438C42.2026 39.429 42.5954 39.8218 43.0806 39.8218Z" fill="white"/>
<path d="M40.0978 47.6354H35.8721C35.3874 47.6354 34.9941 48.0286 34.9941 48.5134C34.9941 48.9981 35.3874 49.3914 35.8721 49.3914H40.0978C40.583 49.3914 40.9758 48.9981 40.9758 48.5134C40.9758 48.0286 40.583 47.6354 40.0978 47.6354Z" fill="white"/>
<path d="M53.3954 47.6354H47.4302C46.945 47.6354 46.5522 48.0286 46.5522 48.5134C46.5522 48.9981 46.945 49.3914 47.4302 49.3914H53.3954C53.8806 49.3914 54.2738 48.9981 54.2738 48.5134C54.2738 48.0286 53.8806 47.6354 53.3954 47.6354Z" fill="white"/>
<path d="M44.4475 47.6354H43.0806C42.5954 47.6354 42.2021 48.0286 42.2021 48.5134C42.2021 48.9981 42.5954 49.3914 43.0806 49.3914H44.4475C44.9327 49.3914 45.3255 48.9981 45.3255 48.5134C45.3255 48.0286 44.9327 47.6354 44.4475 47.6354Z" fill="white"/>
<path d="M56.6358 0.117065H4.36491C2.23402 0.117065 0.5 1.85062 0.5 3.98198V46.4704C0.5 48.6013 2.23402 50.3349 4.36491 50.3349H7.66952C8.1543 50.3349 8.54752 49.9421 8.54752 49.4569C8.54752 48.9721 8.1543 48.5789 7.66952 48.5789H4.36491C3.20219 48.5789 2.25645 47.6331 2.25645 46.4704V43.1392H34.2483V44.6526H33.552C32.5994 44.6526 31.8249 45.4271 31.8249 46.3798V48.5789H13.0084C12.5237 48.5789 12.1304 48.9721 12.1304 49.4569C12.1304 49.9421 12.5237 50.3349 13.0084 50.3349H21.4515V53.4843H18.8001C17.0313 53.4843 15.5925 54.9235 15.5925 56.6918V58.5888C15.5925 59.3959 16.249 60.0523 17.056 60.0523H43.8774C44.6844 60.0523 45.3409 59.3959 45.3409 58.5888V56.6918C45.3409 54.9235 43.9021 53.4843 42.1333 53.4843H39.4819V52.3742H55.7157C56.6678 52.3742 57.4424 51.5997 57.4424 50.647V50.2337C59.1539 49.8363 60.4334 48.3005 60.4334 46.4704L60.4998 3.98152C60.5002 1.85062 58.7667 0.117065 56.6358 0.117065ZM33.5813 41.0486V36.8395H55.6864V41.0486H33.5813ZM36.0043 35.083V33.2355H53.263V35.083H36.0043ZM53.263 42.8046V44.6526H36.0043V42.8046H53.263ZM23.2075 50.3349H31.8249V50.6475C31.8249 51.5997 32.5994 52.3742 33.552 52.3742H37.7259V53.4843H23.2075V50.3349ZM42.1338 55.2407C42.9339 55.2407 43.5849 55.8917 43.5849 56.6918V58.2963H17.3485V56.6918C17.3485 55.8917 17.9999 55.2407 18.8001 55.2407H42.1338ZM55.6864 50.6178H33.5813V46.4091H55.6864V50.6178ZM58.6774 46.4704C58.6774 47.3209 58.1702 48.0538 57.4428 48.3866V46.3793C57.4428 45.4272 56.6678 44.6526 55.7157 44.6526H55.0194V43.1392H58.6774V46.4704ZM58.6774 41.3832H57.414C57.4318 41.2839 57.4428 36.8102 57.4428 36.8102C57.4428 35.8576 56.6678 35.083 55.7157 35.083H55.0194V33.2355H55.7157C56.6678 33.2355 57.4428 32.4605 57.4428 31.5083V27.2406C57.4428 26.2884 56.6678 25.5134 55.7157 25.5134H50.7558C50.2706 25.5134 49.8778 25.9067 49.8778 26.3919C49.8778 26.8767 50.2706 27.2699 50.7558 27.2699H55.6864V31.479H33.5813V27.2699H45.2919C45.7771 27.2699 46.1699 26.8767 46.1699 26.3919C46.1699 25.9067 45.7771 25.5134 45.2919 25.5134H33.552C32.5994 25.5134 31.8249 26.2884 31.8249 27.2406V31.5083C31.8249 32.4605 32.5994 33.2355 33.552 33.2355H34.2483V35.083H33.552C32.5994 35.083 31.8249 35.858 31.8249 36.8102C31.8249 36.8102 31.8359 41.2839 31.8537 41.3832H2.25645V12.062H58.6774V41.3832ZM58.6774 10.3056H2.32099V3.98152C2.32099 2.81926 3.26673 1.87351 4.42946 1.87351H56.5689C57.7317 1.87351 58.6774 2.81926 58.6774 3.98198V10.3056Z" fill="white"/>
<path d="M6.97618 3.48755C5.55527 3.48755 4.39941 4.64341 4.39941 6.06431C4.39941 7.48521 5.55527 8.64153 6.97618 8.64153C8.39708 8.64153 9.5534 7.48521 9.5534 6.06431C9.5534 4.64341 8.39708 3.48755 6.97618 3.48755ZM6.97618 6.88508C6.5239 6.88508 6.1554 6.51704 6.1554 6.06431C6.1554 5.61204 6.5239 5.24354 6.97618 5.24354C7.42891 5.24354 7.79695 5.61204 7.79695 6.06431C7.79695 6.51704 7.42891 6.88508 6.97618 6.88508Z" fill="white"/>
<path d="M13.5372 3.48755C12.1163 3.48755 10.96 4.64341 10.96 6.06431C10.96 7.48521 12.1163 8.64153 13.5372 8.64153C14.9581 8.64153 16.1139 7.48521 16.1139 6.06431C16.1139 4.64341 14.9576 3.48755 13.5372 3.48755ZM13.5372 6.88508C13.0845 6.88508 12.7164 6.51704 12.7164 6.06431C12.7164 5.61204 13.0845 5.24354 13.5372 5.24354C13.9895 5.24354 14.358 5.61204 14.358 6.06431C14.358 6.51704 13.9895 6.88508 13.5372 6.88508Z" fill="white"/>
<path d="M20.0978 3.48755C18.6769 3.48755 17.521 4.64341 17.521 6.06431C17.521 7.48521 18.6769 8.64153 20.0978 8.64153C21.5187 8.64153 22.675 7.48521 22.675 6.06431C22.675 4.64341 21.5187 3.48755 20.0978 3.48755ZM20.0978 6.88508C19.6455 6.88508 19.277 6.51704 19.277 6.06431C19.277 5.61204 19.6455 5.24354 20.0978 5.24354C20.5505 5.24354 20.9185 5.61204 20.9185 6.06431C20.9185 6.51704 20.5505 6.88508 20.0978 6.88508Z" fill="white"/>
</g>
<defs>
<clipPath id="clip0_24_3091">
<rect width="60" height="60" fill="white" transform="translate(0.5)"/>
</clipPath>
</defs>
</svg>
