<svg width="60" height="61" viewBox="0 0 60 61" fill="none" xmlns="http://www.w3.org/2000/svg">
<path d="M52.7818 17.5999H48.8909V16.609C48.8909 13.8727 47.2636 11.509 44.9363 10.4181C46.1636 9.52722 46.9727 8.07268 46.9727 6.4454C46.9727 3.73631 44.7636 1.52722 42.0545 1.52722C39.3454 1.52722 37.1363 3.73631 37.1363 6.4454C37.1363 8.08177 37.9363 9.52722 39.1727 10.4181C37.8363 11.0454 36.7363 12.0818 36.0363 13.3727C35.3363 12.0818 34.2363 11.0454 32.9 10.4181C34.1272 9.52722 34.9363 8.07268 34.9363 6.4454C34.9363 3.73631 32.7272 1.52722 30.0182 1.52722C27.3091 1.52722 25.1 3.73631 25.1 6.4454C25.1 8.08177 25.9 9.52722 27.1363 10.4181C25.8 11.0454 24.7 12.0818 24 13.3727C23.3 12.0818 22.2 11.0454 20.8636 10.4181C22.0909 9.52722 22.9 8.07268 22.9 6.4454C22.9 3.73631 20.6909 1.52722 17.9818 1.52722C15.2727 1.52722 13.0636 3.73631 13.0636 6.4454C13.0636 8.08177 13.8636 9.52722 15.1 10.4181C12.7636 11.509 11.1454 13.8727 11.1454 16.609V17.5999H7.21815C6.78179 17.5999 6.41815 17.9545 6.41815 18.3999V22.4545C6.41815 22.8909 6.7727 23.2545 7.21815 23.2545H10.0727L25.1182 39.2454C25.2272 39.5545 25.5182 39.7727 25.8727 39.7727C26.3091 39.7727 26.6727 39.4181 26.6727 38.9727V38.8727C26.6727 38.6727 26.6 38.4727 26.4545 38.3272L12.2545 23.2454H47.7454L33.5545 38.3272C33.4182 38.4727 33.3363 38.6727 33.3363 38.8727V38.9727C33.3363 39.409 33.6909 39.7727 34.1363 39.7727C34.4818 39.7727 34.7818 39.5545 34.8909 39.2454L49.9363 23.2545H52.7818C53.2182 23.2545 53.5818 22.8999 53.5818 22.4545V18.3999C53.5727 17.9636 53.2182 17.5999 52.7818 17.5999ZM38.7182 6.4454C38.7182 4.60904 40.2091 3.11813 42.0454 3.11813C43.8818 3.11813 45.3727 4.60904 45.3727 6.4454C45.3727 8.28177 43.8818 9.77268 42.0454 9.77268C40.2091 9.77268 38.7182 8.28177 38.7182 6.4454ZM42.0454 11.3636C44.9454 11.3636 47.3 13.7181 47.3 16.6181V17.609H36.8454V16.6181C36.8454 16.4545 36.8363 16.2999 36.8182 16.1363C37.0636 13.4636 39.3091 11.3636 42.0454 11.3636ZM26.6727 6.4454C26.6727 4.60904 28.1636 3.11813 30 3.11813C31.8363 3.11813 33.3272 4.60904 33.3272 6.4454C33.3272 8.28177 31.8363 9.77268 30 9.77268C28.1636 9.77268 26.6727 8.28177 26.6727 6.4454ZM30 11.3636C32.7363 11.3636 34.9818 13.4636 35.2272 16.1363C35.2182 16.2909 35.2 16.4545 35.2 16.6181V17.609H24.8V16.6181C24.8 16.4545 24.7909 16.2999 24.7727 16.1363C25.0182 13.4636 27.2636 11.3636 30 11.3636ZM14.6272 6.4454C14.6272 4.60904 16.1182 3.11813 17.9545 3.11813C19.7909 3.11813 21.2818 4.60904 21.2818 6.4454C21.2818 8.28177 19.7909 9.77268 17.9545 9.77268C16.1182 9.77268 14.6272 8.28177 14.6272 6.4454ZM12.7091 16.609C12.7091 13.7181 15.0636 11.3545 17.9636 11.3545C20.7 11.3545 22.9454 13.4545 23.1909 16.1272C23.1818 16.2818 23.1636 16.4454 23.1636 16.609V17.5999H12.7091V16.609ZM51.9818 21.6545H8.01815V19.1909H51.9909V21.6545H51.9818Z" fill="#C73E9B"/>
<path d="M30 41.0636C24.9273 41.0636 20.7909 45.1909 20.7909 50.2727C20.7909 55.3454 24.9182 59.4818 30 59.4818C35.0818 59.4818 39.2091 55.3545 39.2091 50.2727C39.2091 45.2 35.0818 41.0636 30 41.0636ZM30 57.8909C25.8 57.8909 22.3818 54.4727 22.3818 50.2727C22.3818 46.0727 25.8 42.6545 30 42.6545C34.2 42.6545 37.6182 46.0727 37.6182 50.2727C37.6182 54.4727 34.2 57.8909 30 57.8909Z" fill="#C73E9B"/>
<path d="M30 46.9454C30.7 46.9454 31.2636 47.5182 31.2636 48.2091C31.2636 48.6454 31.6182 49.0091 32.0636 49.0091C32.5091 49.0091 32.8636 48.6545 32.8636 48.2091C32.8636 46.9091 31.9909 45.8272 30.8 45.4818V44.9C30.8 44.4636 30.4454 44.1 30 44.1C29.5545 44.1 29.2 44.4545 29.2 44.9V45.4818C28.0091 45.8272 27.1363 46.9182 27.1363 48.2091C27.1363 49.7818 28.4182 51.0636 29.9909 51.0636C30.6909 51.0636 31.2545 51.6363 31.2545 52.3272C31.2545 53.0182 30.6818 53.5909 29.9909 53.5909C29.3 53.5909 28.7273 53.0182 28.7273 52.3272C28.7273 51.8909 28.3727 51.5273 27.9273 51.5273C27.4818 51.5273 27.1273 51.8818 27.1273 52.3272C27.1273 53.6272 28 54.7091 29.1909 55.0545V55.6363C29.1909 56.0727 29.5454 56.4363 29.9909 56.4363C30.4364 56.4363 30.7909 56.0818 30.7909 55.6363V55.0545C31.9818 54.7091 32.8545 53.6182 32.8545 52.3272C32.8545 50.7545 31.5727 49.4727 30 49.4727C29.3 49.4727 28.7363 48.9 28.7363 48.2091C28.7363 47.5182 29.3 46.9454 30 46.9454Z" fill="#C73E9B"/>
</svg>
