<svg width="60" height="60" viewBox="0 0 60 60" fill="none" xmlns="http://www.w3.org/2000/svg">
<g clip-path="url(#clip0_1_69)">
<path d="M49.536 34.422C49.2912 34.2684 48.9852 34.2504 48.726 34.3752L39.6336 38.7312V33.7656C39.6336 33.3012 39.258 32.9256 38.7936 32.9256H27.6456C28.1688 31.446 28.4544 29.8548 28.4544 28.1988C28.4544 20.3544 22.0728 13.9728 14.2272 13.9728C6.3816 13.9728 0 20.3544 0 28.1988C0 32.5044 1.8876 36.48 5.1996 39.1956L3.69 45L10.254 41.862C11.5416 42.2352 12.876 42.4248 14.226 42.4248C14.3856 42.4248 14.5452 42.4212 14.7036 42.4164V51.6996C14.7036 52.164 15.0792 52.5396 15.5436 52.5396H18.7644L18.1128 57.2064C18.0648 57.5508 18.234 57.8892 18.5376 58.0572C18.6648 58.128 18.8052 58.1628 18.9444 58.1628C19.1376 58.1628 19.3296 58.0956 19.4844 57.966L25.956 52.5396H38.7936C39.258 52.5396 39.6336 52.164 39.6336 51.6996V46.734L48.726 51.09C48.8412 51.1452 48.9648 51.1728 49.0884 51.1728C49.2444 51.1728 49.4004 51.1296 49.536 51.0432C49.7796 50.8896 49.9284 50.6208 49.9284 50.3328V35.1336C49.9284 34.8444 49.7808 34.5756 49.536 34.422ZM10.4388 40.1628L10.122 40.0632L6.2244 41.9268L7.104 38.5452L6.6576 38.2068C3.4944 35.8092 1.68 32.1624 1.68 28.1988C1.68 21.2808 7.308 15.6528 14.226 15.6528C21.144 15.6528 26.7732 21.2808 26.7732 28.1988C26.7732 35.1168 21.1452 40.746 14.226 40.746C12.936 40.746 11.6616 40.5492 10.4388 40.1628ZM37.9536 50.8608H25.65C25.452 50.8608 25.2612 50.9304 25.11 51.0576L20.0784 55.2768L20.5608 51.8172C20.5944 51.576 20.5224 51.3336 20.3628 51.15C20.2032 50.9664 19.9716 50.8608 19.7292 50.8608H16.3824V42.2628C20.9964 41.5584 24.888 38.628 26.9256 34.6056H37.9524V40.0656V45.4008V50.8608H37.9536ZM48.2484 48.9996L39.6336 44.8728V40.5948L48.2484 36.468V48.9996ZM29.6736 42.5544C29.6736 43.0188 29.298 43.3944 28.8336 43.3944H27.684C27.2196 43.3944 26.844 43.0188 26.844 42.5544C26.844 42.09 27.2196 41.7144 27.684 41.7144H28.8336C29.2968 41.7144 29.6736 42.0912 29.6736 42.5544ZM34.2852 42.5544C34.2852 43.0188 33.9096 43.3944 33.4452 43.3944H32.2956C31.8312 43.3944 31.4556 43.0188 31.4556 42.5544C31.4556 42.09 31.8312 41.7144 32.2956 41.7144H33.4452C33.9096 41.7144 34.2852 42.0912 34.2852 42.5544ZM25.0608 42.5544C25.0608 43.0188 24.6852 43.3944 24.2208 43.3944H23.0712C22.6068 43.3944 22.2312 43.0188 22.2312 42.5544C22.2312 42.09 22.6068 41.7144 23.0712 41.7144H24.2208C24.6852 41.7144 25.0608 42.0912 25.0608 42.5544ZM11.0292 28.1736C11.0292 28.638 10.6536 29.0136 10.1892 29.0136H9.0396C8.5752 29.0136 8.1996 28.638 8.1996 28.1736C8.1996 27.7092 8.5752 27.3336 9.0396 27.3336H10.1892C10.6536 27.3336 11.0292 27.7092 11.0292 28.1736ZM20.2536 28.1736C20.2536 28.638 19.878 29.0136 19.4136 29.0136H18.264C17.7996 29.0136 17.424 28.638 17.424 28.1736C17.424 27.7092 17.7996 27.3336 18.264 27.3336H19.4136C19.8768 27.3336 20.2536 27.7092 20.2536 28.1736ZM15.6408 28.1736C15.6408 28.638 15.2652 29.0136 14.8008 29.0136H13.6512C13.1868 29.0136 12.8112 28.638 12.8112 28.1736C12.8112 27.7092 13.1868 27.3336 13.6512 27.3336H14.8008C15.2652 27.3336 15.6408 27.7092 15.6408 28.1736ZM51.4728 17.1276C52.5696 15.5532 52.6608 13.5276 51.6696 11.8104C50.6784 10.0932 48.8784 9.15957 46.9668 9.32277L44.5452 5.12877C44.4048 4.88517 44.1528 4.72917 43.872 4.70997C43.5924 4.69197 43.3212 4.81437 43.1508 5.03757L35.7144 14.7516L31.884 16.9632C29.2908 18.4608 28.3992 21.7884 29.8968 24.3816C30.9012 26.1216 32.7312 27.096 34.6092 27.096C35.4096 27.096 36.2196 26.9184 36.978 26.5476L41.0868 32.1036C41.2464 32.3184 41.4972 32.4444 41.7624 32.4444C41.7852 32.4444 41.808 32.4432 41.832 32.442L45.5316 32.136C45.8184 32.112 46.0728 31.944 46.206 31.6884C46.3392 31.434 46.3332 31.128 46.1892 30.8784L42.2268 24.0156L53.2752 22.5732C53.5536 22.5372 53.7948 22.3644 53.9196 22.1124C54.0444 21.8604 54.0348 21.564 53.8944 21.3204L51.4728 17.1276ZM50.2152 12.6516C50.6412 13.3896 50.8632 14.4156 50.49 15.4248L47.9508 11.0268C49.0116 11.208 49.7892 11.9136 50.2152 12.6516ZM31.3512 23.5416C30.3168 21.75 30.9336 19.452 32.724 18.4176L35.9724 16.542L39.7236 23.04L36.7884 24.7344L36.4752 24.9156C34.6836 25.9488 32.3856 25.3332 31.3512 23.5416ZM42.1596 30.7296L38.4504 25.7136L40.5624 24.4944L44.0712 30.5712L42.1596 30.7296ZM41.3172 22.4412L37.2876 15.4608L43.7196 7.05837L45.7884 10.6416C45.7884 10.6428 45.7896 10.6428 45.7896 10.644L49.7388 17.4852C49.74 17.4864 49.74 17.4876 49.7412 17.49L51.81 21.072L41.3172 22.4412ZM48.96 6.17037L49.9548 2.45877C50.0748 2.01117 50.5356 1.74477 50.9832 1.86477C51.4308 1.98477 51.6972 2.44557 51.5772 2.89317L50.5824 6.60477C50.4816 6.98037 50.142 7.22757 49.7712 7.22757C49.6992 7.22757 49.626 7.21797 49.5528 7.19877C49.1052 7.07877 48.84 6.61917 48.96 6.17037ZM59.9712 17.262C59.8704 17.6376 59.5308 17.8848 59.16 17.8848C59.088 17.8848 59.0148 17.8752 58.9416 17.856L55.23 16.8612C54.7824 16.7412 54.516 16.2804 54.636 15.8328C54.756 15.3852 55.2168 15.1188 55.6644 15.2388L59.376 16.2336C59.826 16.3536 60.0912 16.8144 59.9712 17.262ZM54.612 10.884C54.3216 10.884 54.0396 10.7328 53.8836 10.464C53.652 10.062 53.7888 9.54837 54.1908 9.31677L57.5184 7.39557C57.9204 7.16397 58.434 7.30077 58.6656 7.70277C58.8972 8.10477 58.7604 8.61837 58.3584 8.84997L55.0308 10.7712C54.8988 10.8468 54.7548 10.884 54.612 10.884Z" fill="#0195FF"/>
</g>
<defs>
<clipPath id="clip0_1_69">
<rect width="60" height="60" fill="white"/>
</clipPath>
</defs>
</svg>
