<svg width="60" height="61" viewBox="0 0 60 61" fill="none" xmlns="http://www.w3.org/2000/svg">
<g clip-path="url(#clip0_1_65)">
<path d="M46.25 31.75H50.2375C50.5417 32.9283 51.2653 33.9552 52.2725 34.6382C53.2797 35.3212 54.5015 35.6135 55.7087 35.4601C56.916 35.3068 58.0259 34.7184 58.8304 33.8053C59.6349 32.8921 60.0787 31.7169 60.0787 30.5C60.0787 29.283 59.6349 28.1078 58.8304 27.1947C58.0259 26.2816 56.916 25.6932 55.7087 25.5398C54.5015 25.3865 53.2797 25.6787 52.2725 26.3617C51.2653 27.0447 50.5417 28.0717 50.2375 29.25H46.25C45.9823 25.8148 44.6297 22.5536 42.3875 19.9375L46.25 16.0375C47.299 16.6519 48.536 16.8631 49.7295 16.6315C50.9229 16.3999 51.9911 15.7414 52.7342 14.7792C53.4773 13.817 53.8444 12.617 53.7667 11.4038C53.6891 10.1905 53.1721 9.04714 52.3125 8.18749C51.4528 7.32784 50.3094 6.81084 49.0962 6.73322C47.8829 6.6556 46.683 7.02267 45.7208 7.76577C44.7586 8.50886 44.1001 9.57705 43.8685 10.7705C43.6369 11.964 43.8481 13.2009 44.4625 14.25L40.5625 18.15C37.9431 15.9168 34.6823 14.5731 31.25 14.3125V7.77498C32.084 7.48011 32.7869 6.89989 33.2345 6.13688C33.6821 5.37386 33.8456 4.47718 33.696 3.60531C33.5464 2.73344 33.0934 1.94252 32.4171 1.37234C31.7407 0.802166 30.8846 0.489441 30 0.489441C29.1154 0.489441 28.2593 0.802166 27.5829 1.37234C26.9066 1.94252 26.4536 2.73344 26.304 3.60531C26.1544 4.47718 26.3179 5.37386 26.7655 6.13688C27.2131 6.89989 27.916 7.48011 28.75 7.77498V14.3125C25.3148 14.5801 22.0537 15.9327 19.4375 18.175L16.1125 14.8375C17.2007 13.3043 17.6734 11.4184 17.4369 9.55318C17.2005 7.68801 16.2721 5.97967 14.8357 4.76657C13.3994 3.55346 11.5598 2.92408 9.68131 3.00309C7.80287 3.08209 6.02261 3.86373 4.69318 5.19316C3.36375 6.5226 2.58211 8.30285 2.50311 10.1813C2.4241 12.0597 3.05348 13.8993 4.26659 15.3357C5.47969 16.7721 7.18803 17.7004 9.0532 17.9369C10.9184 18.1734 12.8043 17.7007 14.3375 16.6125L17.675 19.9375C15.4328 22.5536 14.0801 25.8148 13.8125 29.25H9.82499C9.52075 28.0717 8.79721 27.0447 7.78998 26.3617C6.78276 25.6787 5.56101 25.3865 4.35374 25.5398C3.14648 25.6932 2.03658 26.2816 1.23209 27.1947C0.427605 28.1078 -0.0162354 29.283 -0.0162354 30.5C-0.0162354 31.7169 0.427605 32.8921 1.23209 33.8053C2.03658 34.7184 3.14648 35.3068 4.35374 35.4601C5.56101 35.6135 6.78276 35.3212 7.78998 34.6382C8.79721 33.9552 9.52075 32.9283 9.82499 31.75H13.8125C14.0801 35.1851 15.4328 38.4463 17.675 41.0625L11.25 47.4625C10.201 46.8481 8.964 46.6369 7.77053 46.8685C6.57707 47.1001 5.50887 47.7586 4.76578 48.7208C4.02269 49.683 3.65562 50.8829 3.73324 52.0962C3.81086 53.3094 4.32786 54.4528 5.18751 55.3125C6.04715 56.1721 7.19056 56.6891 8.4038 56.7667C9.61705 56.8444 10.817 56.4773 11.7792 55.7342C12.7414 54.9911 13.3999 53.9229 13.6315 52.7294C13.8631 51.536 13.6519 50.299 13.0375 49.25L19.4375 42.85C22.0488 45.1058 25.3105 46.4717 28.75 46.75V53.2875C27.916 53.5823 27.2131 54.1626 26.7655 54.9256C26.3179 55.6886 26.1544 56.5853 26.304 57.4571C26.4536 58.329 26.9066 59.1199 27.5829 59.6901C28.2593 60.2603 29.1154 60.573 30 60.573C30.8846 60.573 31.7407 60.2603 32.4171 59.6901C33.0934 59.1199 33.5464 58.329 33.696 57.4571C33.8456 56.5853 33.6821 55.6886 33.2345 54.9256C32.7869 54.1626 32.084 53.5823 31.25 53.2875V46.75C34.6852 46.4823 37.9463 45.1297 40.5625 42.8875L44.7875 47.125C43.9348 48.4174 43.5922 49.9804 43.8261 51.511C44.06 53.0416 44.8538 54.431 46.0536 55.4097C47.2533 56.3885 48.7738 56.8871 50.3202 56.8089C51.8666 56.7306 53.3289 56.0812 54.4238 54.9863C55.5187 53.8914 56.1682 52.4291 56.2464 50.8827C56.3246 49.3362 55.8261 47.8158 54.8473 46.616C53.8685 45.4162 52.4792 44.6225 50.9485 44.3886C49.4179 44.1547 47.8549 44.4973 46.5625 45.35L42.325 41.125C44.6021 38.5 45.9777 35.2143 46.25 31.75ZM55 28C55.4944 28 55.9778 28.1466 56.3889 28.4213C56.8 28.696 57.1205 29.0865 57.3097 29.5433C57.4989 30.0001 57.5484 30.5028 57.452 30.9877C57.3555 31.4727 57.1174 31.9181 56.7678 32.2677C56.4181 32.6174 55.9727 32.8555 55.4877 32.9519C55.0028 33.0484 54.5001 32.9989 54.0433 32.8097C53.5865 32.6205 53.196 32.3 52.9213 31.8889C52.6466 31.4778 52.5 30.9944 52.5 30.5C52.5 29.8369 52.7634 29.2011 53.2322 28.7322C53.7011 28.2634 54.337 28 55 28ZM48.75 9.24998C49.2444 9.24998 49.7278 9.3966 50.1389 9.6713C50.55 9.94601 50.8705 10.3365 51.0597 10.7933C51.2489 11.2501 51.2984 11.7527 51.202 12.2377C51.1055 12.7227 50.8674 13.1681 50.5178 13.5177C50.1681 13.8674 49.7227 14.1055 49.2377 14.2019C48.7528 14.2984 48.2501 14.2489 47.7933 14.0597C47.3365 13.8705 46.946 13.55 46.6713 13.1389C46.3966 12.7278 46.25 12.2444 46.25 11.75C46.25 11.0869 46.5134 10.451 46.9822 9.98221C47.4511 9.51337 48.087 9.24998 48.75 9.24998ZM30 2.99998C30.3315 2.99998 30.6495 3.13167 30.8839 3.36609C31.1183 3.60051 31.25 3.91845 31.25 4.24998C31.25 4.5815 31.1183 4.89944 30.8839 5.13386C30.6495 5.36828 30.3315 5.49998 30 5.49998C29.6685 5.49998 29.3505 5.36828 29.1161 5.13386C28.8817 4.89944 28.75 4.5815 28.75 4.24998C28.75 3.91845 28.8817 3.60051 29.1161 3.36609C29.3505 3.13167 29.6685 2.99998 30 2.99998ZM4.99999 10.5C4.99999 9.51107 5.29324 8.54437 5.84265 7.72212C6.39205 6.89988 7.17295 6.25902 8.08658 5.88058C9.00021 5.50214 10.0055 5.40312 10.9754 5.59605C11.9454 5.78898 12.8363 6.26518 13.5355 6.96444C14.2348 7.6637 14.711 8.55462 14.9039 9.52452C15.0968 10.4944 14.9978 11.4998 14.6194 12.4134C14.241 13.327 13.6001 14.1079 12.7778 14.6573C11.9556 15.2067 10.9889 15.5 9.99999 15.5C8.67391 15.5 7.40214 14.9732 6.46446 14.0355C5.52678 13.0978 4.99999 11.8261 4.99999 10.5ZM4.99999 33C4.33695 33 3.70107 32.7366 3.23223 32.2677C2.76339 31.7989 2.49999 31.163 2.49999 30.5C2.49999 29.8369 2.76339 29.2011 3.23223 28.7322C3.70107 28.2634 4.33695 28 4.99999 28C5.66304 28 6.29892 28.2634 6.76776 28.7322C7.2366 29.2011 7.49999 29.8369 7.49999 30.5C7.49999 31.163 7.2366 31.7989 6.76776 32.2677C6.29892 32.7366 5.66304 33 4.99999 33ZM30 16.75C32.7195 16.75 35.3779 17.5564 37.6391 19.0673C39.9003 20.5781 41.6626 22.7256 42.7033 25.2381C43.744 27.7506 44.0163 30.5152 43.4858 33.1825C42.9552 35.8497 41.6457 38.2997 39.7227 40.2227C37.7997 42.1457 35.3497 43.4552 32.6825 43.9858C30.0152 44.5163 27.2506 44.244 24.7381 43.2033C22.2256 42.1626 20.0782 40.4002 18.5673 38.1391C17.0564 35.8779 16.25 33.2195 16.25 30.5C16.25 26.8533 17.6986 23.3559 20.2773 20.7773C22.8559 18.1986 26.3533 16.75 30 16.75ZM8.74999 54.25C8.25554 54.25 7.77219 54.1034 7.36107 53.8287C6.94995 53.554 6.62951 53.1635 6.44029 52.7067C6.25108 52.2499 6.20157 51.7472 6.29803 51.2623C6.39449 50.7773 6.6326 50.3318 6.98223 49.9822C7.33186 49.6326 7.77732 49.3945 8.26227 49.298C8.74722 49.2016 9.24989 49.2511 9.7067 49.4403C10.1635 49.6295 10.554 49.9499 10.8287 50.3611C11.1034 50.7722 11.25 51.2555 11.25 51.75C11.25 52.413 10.9866 53.0489 10.5178 53.5177C10.0489 53.9866 9.41304 54.25 8.74999 54.25ZM30 58C29.6685 58 29.3505 57.8683 29.1161 57.6339C28.8817 57.3994 28.75 57.0815 28.75 56.75C28.75 56.4185 28.8817 56.1005 29.1161 55.8661C29.3505 55.6317 29.6685 55.5 30 55.5C30.3315 55.5 30.6495 55.6317 30.8839 55.8661C31.1183 56.1005 31.25 56.4185 31.25 56.75C31.25 57.0815 31.1183 57.3994 30.8839 57.6339C30.6495 57.8683 30.3315 58 30 58ZM53.75 50.5C53.75 51.2417 53.5301 51.9667 53.118 52.5834C52.706 53.2001 52.1203 53.6807 51.4351 53.9645C50.7498 54.2484 49.9958 54.3226 49.2684 54.1779C48.541 54.0332 47.8728 53.6761 47.3483 53.1516C46.8239 52.6272 46.4667 51.959 46.3221 51.2316C46.1774 50.5041 46.2516 49.7501 46.5354 49.0649C46.8193 48.3797 47.2999 47.794 47.9166 47.382C48.5333 46.9699 49.2583 46.75 50 46.75C50.9946 46.75 51.9484 47.1451 52.6516 47.8483C53.3549 48.5516 53.75 49.5054 53.75 50.5Z" fill="#0195FF"/>
<path d="M27.725 37.65L36.375 33.9C37.0515 33.6118 37.6283 33.1311 38.0337 32.5177C38.4391 31.9043 38.6553 31.1853 38.6553 30.45C38.6553 29.7147 38.4391 28.9957 38.0337 28.3822C37.6283 27.7688 37.0515 27.2882 36.375 27L27.725 23.25C27.1506 23.0042 26.5238 22.9058 25.9017 22.9638C25.2795 23.0217 24.6818 23.2342 24.1626 23.582C23.6435 23.9297 23.2195 24.4017 22.9291 24.9549C22.6388 25.5082 22.4913 26.1252 22.5 26.75V34.25C22.5078 34.8663 22.6674 35.4712 22.9647 36.0111C23.262 36.551 23.6878 37.0094 24.2044 37.3455C24.721 37.6817 25.3125 37.8853 25.9266 37.9384C26.5407 37.9916 27.1583 37.8925 27.725 37.65ZM25 26.75C25 26.4185 25.1317 26.1005 25.3661 25.8661C25.6005 25.6317 25.9185 25.5 26.25 25.5C26.6125 25.5 25.9625 25.275 35.4 29.25C35.6255 29.3461 35.8178 29.5063 35.9529 29.7107C36.088 29.9152 36.1601 30.1549 36.1601 30.4C36.1601 30.6451 36.088 30.8848 35.9529 31.0892C35.8178 31.2937 35.6255 31.4539 35.4 31.55C26.1 35.5375 26.325 35.6625 25.5625 35.15C24.8 34.6375 25 34.8875 25 26.75Z" fill="#0195FF"/>
</g>
<defs>
<clipPath id="clip0_1_65">
<rect width="60" height="60" fill="white" transform="translate(0 0.5)"/>
</clipPath>
</defs>
</svg>
