<svg width="60" height="60" viewBox="0 0 60 60" fill="none" xmlns="http://www.w3.org/2000/svg">
<path d="M59.6126 14.403L45.9679 4.4191C45.7431 4.25353 45.4561 4.19681 45.1852 4.26438L28.7938 8.42205C28.292 8.54992 27.989 9.06029 28.1169 9.56193C28.1704 9.77225 28.2954 9.95751 28.4704 10.0859L32.8107 13.2545L31.8732 18.0074C31.3623 20.6603 35.623 24.8602 41.3649 25.9757C42.372 26.1701 43.3953 26.2674 44.421 26.2663C45.9933 26.2762 47.5571 26.0324 49.052 25.5445C51.3487 24.7805 52.8814 23.5055 53.1487 22.1415L54.0862 17.4027L59.2936 16.0856C59.7954 15.9577 60.0985 15.4474 59.9706 14.9457C59.917 14.7354 59.792 14.5501 59.6171 14.4217L59.6126 14.403ZM51.3208 21.7807C51.2129 22.3292 50.1959 23.1869 48.4662 23.7635C46.2822 24.4471 43.9616 24.5729 41.7165 24.1291C36.4434 23.1025 33.4998 19.5356 33.7482 18.3638L34.5029 14.4781L42.115 20.0653C42.2753 20.1834 42.469 20.2474 42.6681 20.2481C42.7474 20.2486 42.8264 20.2376 42.9025 20.2153L52.0708 17.8952L51.3208 21.7807ZM42.8837 18.2934L31.189 9.74383L45.2179 6.19084L56.8985 14.7357L42.8837 18.2934Z" fill="white"/>
<path d="M22.9207 26.4446C22.6338 26.6101 22.4556 26.9149 22.4519 27.2461V43.9702C22.4556 44.3015 22.6338 44.6061 22.9207 44.7718C23.0616 44.8589 23.2237 44.9059 23.3894 44.9077C23.5409 44.9091 23.6905 44.8737 23.8253 44.8046L39.8089 36.4378C40.2671 36.1967 40.4431 35.6298 40.202 35.1717C40.1137 35.0039 39.9766 34.8668 39.8089 34.7786L23.8394 26.4118C23.5485 26.2615 23.2002 26.2739 22.9207 26.4446ZM24.3269 28.7882L37.3528 35.6081L24.341 42.4233L24.3269 28.7882Z" fill="white"/>
<path d="M57.1846 50.1387H52.3708C52.4541 49.8765 52.4968 49.6029 52.4973 49.3278V27.6398C52.4973 27.1221 52.0776 26.7023 51.5598 26.7023C51.0421 26.7023 50.6223 27.1221 50.6223 27.6398V49.3277C50.6146 49.7833 50.239 50.1463 49.7835 50.1386C49.7834 50.1386 49.7834 50.1386 49.7833 50.1386H8.3386C7.88306 50.1464 7.50738 49.7835 7.49955 49.3279C7.49955 49.3278 7.49955 49.3278 7.49955 49.3277V20.951C7.50727 20.4955 7.88283 20.1324 8.33838 20.1402H8.3386H29.0609C29.5787 20.1402 29.9984 19.7204 29.9984 19.2027C29.9984 18.6849 29.5787 18.2652 29.0609 18.2652H8.3386C6.84856 18.26 5.63496 19.461 5.62466 20.9509V49.3276C5.62522 49.6028 5.66785 49.8762 5.75119 50.1385H0.9375C0.419749 50.1385 0 50.5582 0 51.076V51.3103C0 53.4196 1.65931 55.7632 3.8857 55.7632H54.2363C56.4627 55.7632 58.122 53.4196 58.122 51.3103V51.076C58.122 50.5584 57.7022 50.1387 57.1846 50.1387ZM54.2363 53.8885H3.8857C3.07484 53.8885 2.24989 53.026 1.97334 52.0136H56.1486C55.8721 53.026 55.0471 53.8885 54.2363 53.8885Z" fill="white"/>
</svg>
