<svg width="60" height="60" viewBox="0 0 60 60" fill="none" xmlns="http://www.w3.org/2000/svg">
<g clip-path="url(#clip0_2_246)">
<path d="M17.0682 21.7151C16.6106 21.2576 15.8689 21.2576 15.4112 21.7151L15.399 21.7273C14.9414 22.1849 14.9414 22.9268 15.399 23.3844C15.6279 23.6132 15.9276 23.7277 16.2275 23.7277C16.5274 23.7277 16.8272 23.6132 17.056 23.3844L17.0682 23.3722C17.5257 22.9147 17.5257 22.1727 17.0682 21.7151Z" fill="#CC0444"/>
<path d="M51.4511 27.3997H48.4692C48.3093 26.7965 48.1221 26.1943 47.9126 25.6086C47.6946 24.9994 47.0238 24.6823 46.4146 24.9002C45.8053 25.1182 45.4881 25.7889 45.7062 26.3983C45.9042 26.9518 46.0799 27.522 46.2284 28.0925C46.4811 29.0645 47.3617 29.7433 48.3697 29.7433H51.3225V36.5795H48.3628C47.3561 36.5795 46.4759 37.2571 46.222 38.2275C45.7589 40 45.053 41.7004 44.1239 43.2812C43.6144 44.1478 43.7568 45.2513 44.4698 45.9642L46.5667 48.0609L41.7328 52.8948L39.6288 50.7907C38.917 50.0793 37.8151 49.9363 36.9492 50.443C35.3694 51.3677 33.6712 52.0698 31.9022 52.5299C30.9302 52.7825 30.2514 53.6632 30.2514 54.6713V57.6506H23.4151V54.6646C23.4151 53.6577 22.7374 52.7775 21.767 52.5237C20.0006 52.0621 18.3054 51.3592 16.7287 50.4343C15.8625 49.9262 14.7596 50.0686 14.0471 50.7812L11.9337 52.8948L7.0998 48.0609L9.2134 45.9475C9.92578 45.2351 10.0684 44.1324 9.56027 43.2659C8.63543 41.6893 7.93242 39.9941 7.47094 38.2279C7.21746 37.2573 6.33703 36.5795 5.33004 36.5795H2.34352V29.7433H5.32289C6.33105 29.7433 7.2116 29.0644 7.46426 28.0924C7.92434 26.3233 8.62641 24.6251 9.55113 23.0454C10.0581 22.1795 9.915 21.0776 9.20332 20.3657L7.09934 18.2618L11.9332 13.4279L14.0299 15.5248C14.7429 16.2377 15.8463 16.3801 16.713 15.8707C18.2938 14.9415 19.9942 14.2357 21.7668 13.7726C22.7371 13.5189 23.4146 12.6386 23.4146 11.6318V8.67188H30.2509V11.6247C30.2509 12.6328 30.9296 13.5133 31.9016 13.766C32.4593 13.9111 33.0164 14.0822 33.5573 14.2745C34.1668 14.4915 34.8371 14.1725 35.0538 13.5628C35.2705 12.9531 34.9519 12.283 34.3421 12.0663C33.7707 11.8633 33.1832 11.6814 32.5944 11.5253V8.54321C32.5944 7.32188 31.6009 6.32837 30.3796 6.32837H23.2862C22.0649 6.32837 21.0714 7.32188 21.0714 8.54321V11.5321C19.1612 12.041 17.327 12.8025 15.6165 13.7968L13.4994 11.6796C12.6357 10.8162 11.2308 10.8162 10.3671 11.6796L5.35125 16.6955C4.4877 17.559 4.4877 18.9642 5.35125 19.8278L7.47586 21.9522C6.48621 23.6615 5.72883 25.493 5.22328 27.3997H2.21484C0.993516 27.3997 0 28.3933 0 29.6146V36.7079C0 37.9293 0.993516 38.9228 2.21484 38.9228H5.23008C5.73738 40.8266 6.49559 42.655 7.48535 44.3608L5.35125 46.4949C4.4877 47.3584 4.4877 48.7636 5.35125 49.6272L10.3671 54.643C11.2308 55.5064 12.6357 55.5064 13.4994 54.643L15.6334 52.5088C17.3393 53.4986 19.1678 54.2569 21.0714 54.764V57.7793C21.0714 59.0006 22.0649 59.9941 23.2862 59.9941H30.3796C31.6009 59.9941 32.5944 59.0005 32.5944 57.7793V54.7709C34.5012 54.2654 36.3326 53.5081 38.042 52.5183L40.1664 54.6429C41.03 55.5063 42.435 55.5063 43.2987 54.6429L48.3145 49.627C49.1781 48.7635 49.1781 47.3583 48.3145 46.4947L46.1973 44.3776C47.1916 42.6673 47.9531 40.8328 48.4621 38.9228H51.4509C52.6723 38.9228 53.6658 37.9293 53.6658 36.7079V29.6146C53.6659 28.3934 52.6724 27.3997 51.4511 27.3997Z" fill="#CC0444"/>
<path d="M59.7142 9.18716C59.1411 7.80107 57.8534 6.93763 56.3535 6.93376L53.0803 6.92521L53.0717 3.65205C53.0679 2.15216 52.2044 0.864507 50.8184 0.291343C49.4318 -0.281352 47.9114 0.0202886 46.8494 1.07966L39.0217 8.88798C38.8012 9.10783 38.6774 9.40642 38.6774 9.71755V19.6709L37.4129 20.9353C34.7301 18.6113 31.4176 17.2818 28.0044 17.0323V15.6634C28.0044 15.0164 27.4796 14.4917 26.8326 14.4917C26.1857 14.4917 25.6609 15.0163 25.6609 15.6634V17.0302C23.6219 17.1776 21.5905 17.7123 19.6779 18.6559C19.0977 18.9422 18.8593 19.6447 19.1456 20.2252C19.4318 20.8054 20.1344 21.0437 20.7149 20.7576C22.2973 19.977 23.9747 19.5249 25.661 19.382V20.4285C25.661 21.0755 26.1858 21.6002 26.8328 21.6002C27.4798 21.6002 28.0045 21.0756 28.0045 20.4285V19.381C30.8088 19.6207 33.5256 20.7152 35.7517 22.5968L32.4158 25.9327C30.8703 24.7363 28.9341 24.0218 26.8329 24.0218C21.7932 24.0218 17.6933 28.1217 17.6933 33.1614C17.6933 38.201 21.7932 42.3009 26.8329 42.3009C31.8725 42.3009 35.9725 38.201 35.9725 33.1614C35.9725 31.0659 35.2621 29.1345 34.0716 27.5911L37.408 24.2547C39.3041 26.5027 40.369 29.2171 40.6028 31.9896H39.5659C38.9189 31.9896 38.3941 32.5143 38.3941 33.1614C38.3941 33.8084 38.9189 34.3331 39.5659 34.3331H40.6028C40.3379 37.4736 39.0076 40.5404 36.6098 42.9382C34.2121 45.3361 31.1453 46.6663 28.0048 46.9311V45.8944C28.0048 45.2474 27.4801 44.7226 26.833 44.7226C26.186 44.7226 25.6612 45.2473 25.6612 45.8944V46.9311C22.5207 46.6663 19.4539 45.336 17.0562 42.9382C14.7 40.5822 13.3352 37.5133 13.0615 34.3331H14.1C14.747 34.3331 15.2718 33.8085 15.2718 33.1614C15.2718 32.5144 14.7471 31.9896 14.1 31.9896H13.0583C13.1938 30.3676 13.6148 28.7547 14.3392 27.2291C14.6168 26.6446 14.3679 25.9456 13.7832 25.6682C13.1987 25.3903 12.4997 25.6393 12.2223 26.224C11.3459 28.0702 10.8492 30.0259 10.7095 31.9896H9.33515C8.68816 31.9896 8.16339 32.5143 8.16339 33.1614C8.16339 33.8084 8.68804 34.3331 9.33515 34.3331H10.7127C10.9919 38.123 12.595 41.7911 15.3992 44.5954C18.1755 47.3715 21.7836 49.0137 25.6615 49.2895V50.6595C25.6615 51.3065 26.1861 51.8312 26.8332 51.8312C27.4802 51.8312 28.005 51.3066 28.005 50.6595V49.2895C31.8828 49.0137 35.4909 47.3717 38.2672 44.5954C41.0434 41.8191 42.6855 38.211 42.9614 34.3331H44.3313C44.9783 34.3331 45.5031 33.8085 45.5031 33.1614C45.5031 32.5144 44.9784 31.9896 44.3313 31.9896H42.9614C42.7133 28.5025 41.3604 25.2338 39.0715 22.5917L40.3351 21.328H50.2884C50.5997 21.328 50.8982 21.2042 51.118 20.9837L58.9263 13.156C59.9852 12.0941 60.2873 10.5733 59.7142 9.18716ZM26.8329 39.9576C23.0856 39.9576 20.0367 36.9088 20.0367 33.1614C20.0367 29.414 23.0855 26.3652 26.8329 26.3652C28.2872 26.3652 29.6351 26.8259 30.7416 27.6068L28.6659 29.6824C28.2083 30.1401 28.2083 30.882 28.6659 31.3396C28.8948 31.5683 29.1946 31.6828 29.4944 31.6828C29.7943 31.6828 30.0941 31.5683 30.323 31.3396L32.3967 29.2658C33.1719 30.3699 33.6289 31.7128 33.6289 33.1613C33.6291 36.9087 30.5803 39.9576 26.8329 39.9576ZM41.021 10.2038L48.5046 2.73892C49.0754 2.16939 49.7346 2.37927 49.923 2.4572C50.1114 2.53502 50.7262 2.85189 50.7283 3.65826L50.7387 7.60982L44.3307 14.0177L41.021 17.3275V10.2038ZM57.2667 11.501L49.8019 18.9844H42.6783L45.988 15.6747L52.3959 9.26673L56.3475 9.27705C57.1539 9.27916 57.4707 9.89404 57.5485 10.0824C57.6264 10.271 57.8362 10.9301 57.2667 11.501Z" fill="#CC0444"/>
<path d="M27.5161 32.4888C27.2992 32.2707 26.9969 32.1455 26.6877 32.1455C26.3795 32.1455 26.0773 32.2707 25.8593 32.4888C25.6414 32.7068 25.5159 33.0091 25.5159 33.3172C25.5159 33.6266 25.6413 33.9277 25.8593 34.1455C26.0773 34.3647 26.3796 34.489 26.6877 34.489C26.9971 34.489 27.2981 34.3647 27.5161 34.1455C27.7352 33.9277 27.8594 33.6254 27.8594 33.3172C27.8594 33.009 27.7352 32.7067 27.5161 32.4888Z" fill="#CC0444"/>
</g>
<defs>
<clipPath id="clip0_2_246">
<rect width="60" height="60" fill="white"/>
</clipPath>
</defs>
</svg>
