<svg width="60" height="60" viewBox="0 0 60 60" fill="none" xmlns="http://www.w3.org/2000/svg">
<path fill-rule="evenodd" clip-rule="evenodd" d="M34.0503 54.8985H55.6941V23.2552H34.0503V54.8985ZM56.3107 56.1318H33.4337C33.0933 56.1318 32.8171 55.8557 32.8171 55.5153V22.6385C32.8171 22.2981 33.0933 22.0219 33.4337 22.0219L56.3107 22.0219C56.6512 22.0219 56.9273 22.2981 56.9273 22.6386L56.9274 55.5152C56.9274 55.8557 56.6511 56.1319 56.3107 56.1318Z" fill="#CC0444"/>
<path fill-rule="evenodd" clip-rule="evenodd" d="M53.3722 25.8963H36.3714C36.0309 25.8963 35.7546 25.6201 35.7546 25.2796C35.7547 24.9392 36.0308 24.663 36.3713 24.663H53.3722C53.7138 24.663 53.9888 24.9392 53.9888 25.2796C53.9888 25.62 53.7137 25.8963 53.3722 25.8963Z" fill="#CC0444"/>
<path fill-rule="evenodd" clip-rule="evenodd" d="M53.3722 28.7716H36.3714C36.0309 28.7716 35.7546 28.4955 35.7546 28.1551C35.7547 27.8145 36.0308 27.5384 36.3713 27.5384L53.3722 27.5384C53.7138 27.5384 53.9888 27.8146 53.9888 28.1551C53.9888 28.4955 53.7137 28.7717 53.3722 28.7716Z" fill="#CC0444"/>
<path fill-rule="evenodd" clip-rule="evenodd" d="M53.3722 31.646H36.3714C36.0309 31.646 35.7546 31.3709 35.7546 31.0305C35.7547 30.6889 36.0308 30.4138 36.3713 30.4138H53.3722C53.7138 30.4138 53.9888 30.689 53.9888 31.0305C53.9888 31.3708 53.7137 31.646 53.3722 31.646Z" fill="#CC0444"/>
<path fill-rule="evenodd" clip-rule="evenodd" d="M53.3722 34.5214H36.3714C36.0309 34.5214 35.7546 34.2453 35.7546 33.9048C35.7547 33.5644 36.0308 33.2882 36.3713 33.2882L53.3722 33.2881C53.7138 33.2881 53.9888 33.5644 53.9888 33.9048C53.9888 34.2452 53.7137 34.5215 53.3722 34.5214Z" fill="#CC0444"/>
<path fill-rule="evenodd" clip-rule="evenodd" d="M53.3722 37.3968H36.3714C36.0309 37.3968 35.7546 37.1207 35.7546 36.7803C35.7547 36.4397 36.0308 36.1636 36.3713 36.1636L53.3722 36.1636C53.7138 36.1636 53.9888 36.4398 53.9888 36.7803C53.9888 37.1206 53.7137 37.3969 53.3722 37.3968Z" fill="#CC0444"/>
<path fill-rule="evenodd" clip-rule="evenodd" d="M53.3722 40.2723H36.3714C36.0309 40.2723 35.7546 39.9962 35.7546 39.6558C35.7547 39.3154 36.0308 39.0392 36.3713 39.0392L53.3722 39.0391C53.7138 39.0391 53.9888 39.3154 53.9888 39.6558C53.9888 39.9962 53.7137 40.2724 53.3722 40.2723Z" fill="#CC0444"/>
<path fill-rule="evenodd" clip-rule="evenodd" d="M38.5443 52.258H45.2982L41.9218 46.0147L38.5443 52.258ZM46.3334 53.4911H37.5101C37.2928 53.4911 37.0915 53.3778 36.9802 53.1904C36.8689 53.0041 36.8635 52.7729 36.9673 52.5813L41.379 44.425C41.4872 44.2258 41.6947 44.1017 41.9217 44.1017C42.1476 44.1016 42.3563 44.2259 42.4634 44.425L46.875 52.5813C46.9789 52.7729 46.9735 53.0041 46.8622 53.1904C46.7508 53.3777 46.5496 53.4912 46.3334 53.4911Z" fill="#CC0444"/>
<path fill-rule="evenodd" clip-rule="evenodd" d="M46.7008 52.258H49.9242L46.5467 46.0147L44.9356 48.9939L46.7008 52.258ZM50.9584 53.4911H46.3337C46.1067 53.4911 45.899 53.367 45.7909 53.1679L43.6917 49.2873C43.5931 49.1042 43.5931 48.8837 43.6916 48.7006L46.0051 44.425C46.1121 44.2258 46.3208 44.1017 46.5467 44.1017C46.7737 44.1016 46.9813 44.2259 47.0894 44.425L51.501 52.5813C51.6039 52.7729 51.5995 53.0041 51.4882 53.1904C51.3769 53.3777 51.1756 53.4912 50.9584 53.4911Z" fill="#CC0444"/>
<path fill-rule="evenodd" clip-rule="evenodd" d="M51.0469 45.7406C50.7322 45.7406 50.4763 45.9976 50.4763 46.3123C50.4764 46.627 50.7322 46.8829 51.0469 46.8829C51.3617 46.8828 51.6175 46.627 51.6175 46.3123C51.6175 45.9975 51.3616 45.7407 51.0469 45.7406ZM51.0469 48.116C50.0525 48.116 49.243 47.3068 49.243 46.3123C49.2432 45.3167 50.0524 44.5074 51.0469 44.5074C52.0414 44.5074 52.8507 45.3167 52.8507 46.3123C52.8507 47.3067 52.0414 48.1161 51.0469 48.116Z" fill="#CC0444"/>
<path fill-rule="evenodd" clip-rule="evenodd" d="M36.7224 52.258H53.0221V43.1478H36.7224V52.258ZM53.6388 53.4911H36.1058C35.7655 53.4911 35.4891 53.215 35.4891 52.8746L35.4892 42.5312C35.4892 42.1898 35.7653 41.9146 36.1058 41.9146L53.6388 41.9146C53.9792 41.9146 54.2554 42.1898 54.2554 42.5312V52.8746C54.2554 53.215 53.9792 53.4912 53.6388 53.4911Z" fill="#CC0444"/>
<path fill-rule="evenodd" clip-rule="evenodd" d="M7.16211 9.70677C5.58744 9.70677 4.30593 10.9871 4.30593 12.5619L4.306 42.6039C4.306 44.1785 5.58734 45.4589 7.16207 45.4589L32.8171 45.4589V22.6387C32.8171 22.2982 33.0933 22.0221 33.4337 22.0221L41.4177 22.022V12.5619C41.4177 10.9871 40.1362 9.70681 38.5625 9.70681L37.2812 9.70677L37.4119 12.0747C37.4204 12.2439 37.3603 12.4098 37.2437 12.5329C37.127 12.6561 36.9654 12.7257 36.7962 12.7257L32.8706 12.7256C32.7014 12.7256 32.5398 12.6561 32.4231 12.5329C32.3065 12.4098 32.2454 12.2439 32.255 12.0748L32.3857 9.70677H29.3004L29.4311 12.0747C29.4396 12.2439 29.3796 12.4098 29.2629 12.5329C29.1463 12.6561 28.9846 12.7257 28.8155 12.7257L24.8899 12.7256C24.7208 12.7256 24.558 12.6561 24.4424 12.5329C24.3258 12.4098 24.2647 12.2439 24.2743 12.0748L24.404 9.70677H21.3198L21.4492 12.0747C21.4589 12.2439 21.3979 12.4098 21.2822 12.5329C21.1656 12.6561 21.0039 12.7257 20.8337 12.7257L16.9093 12.7256C16.7401 12.7256 16.5773 12.6561 16.4606 12.5329C16.345 12.4098 16.284 12.2439 16.2936 12.0748L16.4232 9.70677H13.339L13.4686 12.0747C13.4782 12.2439 13.4171 12.4098 13.3004 12.5329C13.1848 12.6561 13.0221 12.7257 12.853 12.7257L8.9285 12.7256C8.75833 12.7256 8.59656 12.6561 8.47988 12.5329C8.36438 12.4098 8.30323 12.2439 8.31181 12.0748L8.44244 9.70677H7.16211ZM33.4337 46.6922H7.16211C4.90757 46.6922 3.07269 44.8585 3.07269 42.6039L3.07276 12.5619C3.07276 10.3074 4.90753 8.47364 7.16207 8.47364L9.09446 8.4736C9.26353 8.4736 9.42512 8.54319 9.54184 8.6663C9.65855 8.78935 9.71848 8.9543 9.7099 9.12344L9.57931 11.4925H12.2021L12.0716 9.12344C12.0619 8.95423 12.1229 8.78942 12.2396 8.6663C12.3562 8.54319 12.5179 8.47364 12.687 8.47364L17.0751 8.4736C17.2443 8.4736 17.4058 8.54319 17.5226 8.6663C17.6393 8.78935 17.7003 8.9543 17.6906 9.12344L17.5601 11.4925H20.1829L20.0522 9.12344C20.0436 8.95423 20.1036 8.78942 20.2203 8.6663C20.337 8.54319 20.4986 8.47364 20.6677 8.47364L25.0558 8.4736C25.2251 8.4736 25.3866 8.54319 25.5033 8.6663C25.62 8.78935 25.681 8.9543 25.6714 9.12344L25.5419 11.4925H28.1636L28.033 9.12344C28.0244 8.95423 28.0854 8.78942 28.201 8.6663C28.3177 8.54319 28.4793 8.47364 28.6495 8.47364L33.0366 8.4736C33.2057 8.4736 33.3684 8.54319 33.484 8.6663C33.6007 8.78935 33.6617 8.9543 33.6521 9.12344L33.5226 11.4925H36.1443L36.0148 9.12344C36.0052 8.95423 36.0661 8.78942 36.1828 8.6663C36.2985 8.54319 36.4611 8.47364 36.6303 8.47364L38.5626 8.4736C40.8171 8.4736 42.6509 10.3074 42.6509 12.5619L42.6509 22.6387C42.6509 22.9791 42.3747 23.2554 42.0343 23.2554L34.0503 23.2553V46.0756C34.0503 46.4161 33.7741 46.6923 33.4337 46.6922Z" fill="#CC0444"/>
<path fill-rule="evenodd" clip-rule="evenodd" d="M9.57927 11.4924H12.202L11.851 5.1014H9.93045L9.57927 11.4924ZM12.853 12.7257H8.92846C8.75828 12.7257 8.59651 12.6561 8.47983 12.533C8.36433 12.4098 8.30319 12.244 8.31177 12.0748L8.73143 4.4515C8.74863 4.12395 9.01936 3.86816 9.34694 3.86816H12.4344C12.762 3.86816 13.0317 4.12405 13.0499 4.45163L13.4686 12.0747C13.4782 12.2439 13.417 12.4098 13.3004 12.533C13.1848 12.6561 13.022 12.7257 12.853 12.7257Z" fill="#CC0444"/>
<path fill-rule="evenodd" clip-rule="evenodd" d="M17.5601 11.4924H20.1828L19.8317 5.1014H17.9112L17.5601 11.4924ZM20.8337 12.7257H16.9092C16.74 12.7257 16.5773 12.6561 16.4606 12.533C16.345 12.4098 16.2839 12.244 16.2936 12.0748L16.7122 4.4515C16.7304 4.12395 17.0001 3.86816 17.3277 3.86816H20.4152C20.7427 3.86816 21.0135 4.12405 21.0306 4.45163L21.4492 12.0747C21.4588 12.2439 21.3978 12.4098 21.2822 12.533C21.1656 12.6561 21.0039 12.7257 20.8337 12.7257Z" fill="#CC0444"/>
<path fill-rule="evenodd" clip-rule="evenodd" d="M25.5419 11.4924H28.1636L27.8124 5.1014H25.8919L25.5419 11.4924ZM28.8155 12.7257H24.8899C24.7208 12.7257 24.558 12.6561 24.4424 12.533C24.3257 12.4098 24.2647 12.244 24.2743 12.0748L24.693 4.4515C24.7111 4.12395 24.9808 3.86816 25.3084 3.86816H28.3958C28.7234 3.86816 28.9942 4.12405 29.0124 4.45163L29.4311 12.0747C29.4396 12.2439 29.3796 12.4098 29.2629 12.533C29.1462 12.6561 28.9846 12.7257 28.8155 12.7257Z" fill="#CC0444"/>
<path fill-rule="evenodd" clip-rule="evenodd" d="M33.5226 11.4924H36.1443L35.7932 5.1014H33.8737L33.5226 11.4924ZM36.7962 12.7257H32.8706C32.7014 12.7257 32.5398 12.6561 32.4231 12.533C32.3064 12.4098 32.2454 12.244 32.255 12.0748L32.6736 4.4515C32.6919 4.12395 32.9616 3.86816 33.2892 3.86816H36.3777C36.7042 3.86816 36.975 4.12405 36.9932 4.45163L37.4119 12.0747C37.4204 12.2439 37.3603 12.4098 37.2437 12.533C37.127 12.6561 36.9653 12.7257 36.7962 12.7257Z" fill="#CC0444"/>
<path fill-rule="evenodd" clip-rule="evenodd" d="M42.0343 17.3299H3.68932C3.34886 17.3299 3.07263 17.0538 3.07263 16.7134C3.0727 16.3729 3.34883 16.0967 3.68925 16.0967H42.0342C42.3747 16.0967 42.6508 16.3729 42.6508 16.7134C42.6508 17.0537 42.3746 17.33 42.0343 17.3299Z" fill="#CC0444"/>
<path fill-rule="evenodd" clip-rule="evenodd" d="M42.0343 19.8959H3.68932C3.34886 19.8959 3.07263 19.6198 3.07263 19.2794C3.0727 18.9389 3.34883 18.6628 3.68925 18.6628L42.0342 18.6627C42.3747 18.6627 42.6508 18.939 42.6508 19.2794C42.6508 19.6198 42.3746 19.896 42.0343 19.8959Z" fill="#CC0444"/>
<path fill-rule="evenodd" clip-rule="evenodd" d="M8.00878 26.9196H11.6732V23.2553H8.00878V26.9196ZM12.2898 28.1528H7.39216C7.05184 28.1528 6.77661 27.8768 6.77661 27.5363L6.77665 22.6387C6.77665 22.2982 7.05177 22.0221 7.39216 22.0221L12.2898 22.022C12.6303 22.022 12.9064 22.2983 12.9064 22.6387V27.5362C12.9064 27.8767 12.6302 28.153 12.2898 28.1528Z" fill="#CC0444"/>
<path fill-rule="evenodd" clip-rule="evenodd" d="M8.00878 34.5097H11.6732V30.8452H8.00878V34.5097ZM12.2898 35.7429H7.39216C7.05184 35.7429 6.77661 35.4667 6.77661 35.1263L6.77665 30.2286C6.77665 29.8882 7.05177 29.612 7.39216 29.612L12.2898 29.612C12.6303 29.612 12.9064 29.8882 12.9064 30.2287V35.1263C12.9064 35.4666 12.6302 35.7429 12.2898 35.7429Z" fill="#CC0444"/>
<path fill-rule="evenodd" clip-rule="evenodd" d="M8.00878 42.1007H11.6732V38.4363H8.00878V42.1007ZM12.2898 43.3329H7.39216C7.05184 43.3329 6.77661 43.0578 6.77661 42.7163L6.77665 37.8197C6.77665 37.4792 7.05177 37.2031 7.39216 37.2031L12.2898 37.2031C12.6303 37.2031 12.9064 37.4793 12.9064 37.8198V42.7163C12.9064 43.0577 12.6302 43.3329 12.2898 43.3329Z" fill="#CC0444"/>
<path fill-rule="evenodd" clip-rule="evenodd" d="M16.6897 26.9196H20.3541V23.2553H16.6897V26.9196ZM20.9707 28.1528H16.073C15.7327 28.1528 15.4564 27.8768 15.4564 27.5363V22.6387C15.4564 22.2982 15.7326 22.0221 16.073 22.0221L20.9707 22.022C21.3112 22.022 21.5873 22.2983 21.5873 22.6387L21.5873 27.5362C21.5873 27.8767 21.3111 28.153 20.9707 28.1528Z" fill="#CC0444"/>
<path fill-rule="evenodd" clip-rule="evenodd" d="M16.6897 34.5097H20.3541V30.8452H16.6897V34.5097ZM20.9707 35.7429H16.073C15.7327 35.7429 15.4564 35.4667 15.4564 35.1263V30.2286C15.4564 29.8882 15.7326 29.612 16.073 29.612L20.9707 29.612C21.3112 29.612 21.5873 29.8882 21.5873 30.2287L21.5873 35.1263C21.5873 35.4666 21.3111 35.7429 20.9707 35.7429Z" fill="#CC0444"/>
<path fill-rule="evenodd" clip-rule="evenodd" d="M16.6897 42.1007H20.3541V38.4363H16.6897V42.1007ZM20.9707 43.3329H16.073C15.7327 43.3329 15.4564 43.0578 15.4564 42.7163V37.8197C15.4564 37.4792 15.7326 37.2031 16.073 37.2031L20.9707 37.2031C21.3112 37.2031 21.5873 37.4793 21.5873 37.8198L21.5873 42.7163C21.5873 43.0577 21.3111 43.3329 20.9707 43.3329Z" fill="#CC0444"/>
<path fill-rule="evenodd" clip-rule="evenodd" d="M25.3705 26.9196H29.0339V23.2553H25.3705V26.9196ZM29.6505 28.1528H24.7539C24.4135 28.1528 24.1373 27.8768 24.1373 27.5363V22.6387C24.1373 22.2982 24.4135 22.0221 24.7539 22.0221L29.6505 22.022C29.9909 22.022 30.267 22.2983 30.267 22.6387L30.2671 27.5362C30.2671 27.8767 29.9909 28.153 29.6505 28.1528Z" fill="#CC0444"/>
<path fill-rule="evenodd" clip-rule="evenodd" d="M25.3705 34.5097H29.0339V30.8452H25.3705V34.5097ZM29.6505 35.7429H24.7539C24.4135 35.7429 24.1373 35.4667 24.1373 35.1263V30.2286C24.1373 29.8882 24.4135 29.612 24.7539 29.612L29.6505 29.612C29.9909 29.612 30.267 29.8882 30.267 30.2287L30.2671 35.1263C30.2671 35.4666 29.9909 35.7429 29.6505 35.7429Z" fill="#CC0444"/>
<path fill-rule="evenodd" clip-rule="evenodd" d="M25.3705 42.1007H29.0339V38.4363H25.3705V42.1007ZM29.6505 43.3329H24.7539C24.4135 43.3329 24.1373 43.0578 24.1373 42.7163V37.8197C24.1373 37.4792 24.4135 37.2031 24.7539 37.2031L29.6505 37.2031C29.9909 37.2031 30.267 37.4793 30.267 37.8198L30.2671 42.7163C30.2671 43.0577 29.9909 43.3329 29.6505 43.3329Z" fill="#CC0444"/>
</svg>
