<svg width="60" height="60" viewBox="0 0 60 60" fill="none" xmlns="http://www.w3.org/2000/svg">
<path d="M57.7847 28.2759L45.2972 17.9634C45.0169 17.7319 44.6288 17.6831 44.3006 17.8378C43.9725 17.9925 43.7625 18.3234 43.7625 18.6863V24.3891C40.5319 24.6328 37.4381 25.6584 34.6875 27.3928V16.2384H40.3125C40.6753 16.2384 41.0062 16.0284 41.1609 15.7003C41.3156 15.3713 41.2669 14.9831 41.0353 14.7038L30.7228 2.21531C30.3666 1.78406 29.6334 1.78406 29.2772 2.21531L18.9647 14.7028C18.7331 14.9822 18.6844 15.3703 18.8391 15.6994C18.9937 16.0275 19.3247 16.2375 19.6875 16.2375H25.3125V37.2084C22.6528 35.3953 19.5694 34.1606 16.2375 33.7219V27.9122C16.2375 27.5494 16.0275 27.2184 15.6994 27.0638C15.3713 26.91 14.9831 26.9588 14.7028 27.1894L2.21531 37.5009C1.99969 37.6791 1.875 37.9444 1.875 38.2237C1.875 38.5031 1.99969 38.7684 2.21531 38.9466L14.7028 49.2591C14.9822 49.4897 15.3703 49.5375 15.6994 49.3847C16.0275 49.23 16.2375 48.8991 16.2375 48.5362V43.2544C21.4809 44.5191 25.3125 49.2834 25.3125 54.7556V57.1875C25.3125 57.705 25.7325 58.125 26.25 58.125H33.75C34.2675 58.125 34.6875 57.705 34.6875 57.1875V44.2678C34.6875 38.9597 38.6006 34.5413 43.7625 33.8081V39.3112C43.7625 39.6741 43.9725 40.005 44.3006 40.1597C44.6306 40.3144 45.0169 40.2666 45.2972 40.0341L57.7847 29.7216C58.0003 29.5434 58.125 29.2781 58.125 28.9988C58.125 28.7194 58.0003 28.4541 57.7847 28.2759ZM32.8125 56.25H27.1875V54.7556C27.1875 47.9916 22.1344 42.1612 15.4341 41.1928C15.1612 41.1544 14.8912 41.2331 14.6859 41.4122C14.4806 41.5903 14.3625 41.8491 14.3625 42.1209V46.5469L4.28438 38.2247L14.3625 29.9025V34.5619C14.3625 35.0475 14.7328 35.4525 15.2156 35.4956C25.0828 36.3834 32.8125 44.8434 32.8125 54.7566V56.25ZM45.6375 37.3209V32.7778C45.6375 32.5209 45.5325 32.2753 45.3459 32.0991C45.1603 31.9219 44.9156 31.8347 44.6531 31.8413C38.0128 32.1684 32.8116 37.6266 32.8116 44.2678V46.1587C31.5084 43.2684 29.5781 40.7072 27.1866 38.6578V15.3C27.1866 14.7825 26.7666 14.3625 26.2491 14.3625H21.6769L29.9991 4.28438L38.3212 14.3625H33.7491C33.2316 14.3625 32.8116 14.7825 32.8116 15.3V29.1853C32.8116 29.5416 33.0141 29.8678 33.3337 30.0253C33.6544 30.1838 34.035 30.1463 34.3181 29.9297C37.3537 27.6113 40.9537 26.3269 44.7272 26.2144C45.2344 26.1994 45.6366 25.7841 45.6366 25.2769V20.6747L55.7147 28.9969L45.6366 37.3191L45.6375 37.3209Z" fill="#CC0444"/>
</svg>
