<svg width="60" height="60" viewBox="0 0 60 60" fill="none" xmlns="http://www.w3.org/2000/svg">
<g clip-path="url(#clip0_2_84)">
<path d="M32.0906 23.9344L31.4531 24.2531C31.1344 24.4125 30.9375 24.7406 30.9375 25.0875V28.125H32.8125V25.6687L32.9344 25.6125C35.175 24.4969 36.5625 22.2469 36.5625 19.7437V14.7844C36.5625 13.125 35.8313 11.6344 34.6875 10.6031V6.81561C34.6875 5.00624 33.2156 3.53436 31.4062 3.53436C30.9 3.53436 30.4219 3.66561 29.9906 3.87186C29.9156 2.12811 28.4906 0.721863 26.7188 0.721863C25.8 0.721863 24.975 1.10624 24.375 1.71561C23.775 1.10624 22.95 0.721863 22.0312 0.721863C20.2219 0.721863 18.75 2.19374 18.75 4.00311V4.80936C18.4219 4.64061 18.0563 4.52811 17.6813 4.49061C16.7531 4.39686 15.8344 4.69686 15.1406 5.32499C14.4562 5.94374 14.0625 6.83436 14.0625 7.76249V20.6906C14.0625 23.1937 15.45 25.4437 17.6906 26.5594L17.8125 26.6156V34.6969H19.6875V26.0344C19.6875 25.6781 19.4906 25.35 19.1719 25.2L18.5344 24.8812C16.9313 24.0844 15.9375 22.4719 15.9375 20.6812V16.3312C16.3688 16.5375 16.8375 16.6594 17.3438 16.6594C18.2625 16.6594 19.0875 16.275 19.6875 15.6656C20.2875 16.275 21.1125 16.6594 22.0312 16.6594C23.2031 16.6594 24.2344 16.0312 24.8156 15.1031C25.35 15.4875 26.0063 15.7219 26.7188 15.7219H30V16.725C27.3188 17.0625 23.4375 18.8906 23.4375 24.1594H25.3125C25.3125 18.7312 30.3656 18.5344 30.9375 18.5344C31.4531 18.5344 31.875 18.1125 31.875 17.5969V14.7844C31.875 14.2687 31.4531 13.8469 30.9375 13.8469H26.7188C25.9406 13.8469 25.3125 13.2187 25.3125 12.4406C25.3125 12.0656 25.4625 11.7094 25.725 11.4469C25.9875 11.1844 26.3531 11.0344 26.7188 11.0344H30.9375C33.0094 11.0344 34.6875 12.7125 34.6875 14.7844V19.7437C34.6875 21.5344 33.6937 23.1375 32.0906 23.9437V23.9344ZM18.75 13.3687C18.75 14.1469 18.1219 14.775 17.3438 14.775C16.5656 14.775 15.9375 14.1469 15.9375 13.3687V7.74374C15.9375 7.34061 16.1062 6.97499 16.3969 6.70311C16.6594 6.46874 16.9875 6.33749 17.3438 6.33749H17.4937C18.1969 6.41249 18.75 7.07811 18.75 7.86561V13.3594V13.3687ZM23.4375 13.3687C23.4375 14.1469 22.8094 14.775 22.0312 14.775C21.2531 14.775 20.625 14.1469 20.625 13.3687V3.99374C20.625 3.21561 21.2531 2.58749 22.0312 2.58749C22.8094 2.58749 23.4375 3.21561 23.4375 3.99374V13.3687ZM28.125 9.14999H26.7188C26.2219 9.14999 25.7438 9.27186 25.3125 9.47811V3.99374C25.3125 3.21561 25.9406 2.58749 26.7188 2.58749C27.4969 2.58749 28.125 3.21561 28.125 3.99374V9.14999ZM32.8125 9.47811C32.2219 9.27186 31.5937 9.14999 30.9375 9.14999H30V6.80624C30 6.02811 30.6281 5.39999 31.4062 5.39999C32.1844 5.39999 32.8125 6.02811 32.8125 6.80624V9.47811Z" fill="#CC0444"/>
<path d="M1.87505 40.6688C1.84692 41.1469 2.18442 41.5781 2.65317 41.6531C2.7563 41.6719 5.74692 42.15 10.2938 42.15C21.5719 42.15 42.4126 39.225 52.5751 19.1719L56.7657 21.2625C57.0938 21.4219 57.4782 21.3844 57.7688 21.1594C58.0501 20.9344 58.1813 20.5688 58.1063 20.2125L54.8157 5.94375C54.7501 5.67188 54.5719 5.4375 54.3188 5.31563C54.0751 5.19375 53.7751 5.18438 53.5219 5.29688L40.0313 11.2031C39.6938 11.3531 39.4782 11.6719 39.4688 12.0375C39.4688 12.4031 39.6657 12.7406 39.9844 12.9L44.2501 15.0281C34.5563 38.4188 3.10317 39.7875 2.78442 39.7969C2.3063 39.8156 1.91255 40.1906 1.88442 40.6688H1.87505ZM46.3126 14.9063C46.4907 14.4563 46.2844 13.95 45.8532 13.7344L42.6094 12.1219L53.2313 7.47188L55.8188 18.7031L52.5657 17.0813C52.3407 16.9688 52.0782 16.95 51.8438 17.0344C51.6094 17.1188 51.4126 17.2875 51.3001 17.5125C42.3751 36.1031 23.9532 39.8344 12.6094 40.2469C23.3438 37.8563 39.9188 31.5281 46.3126 14.9156V14.9063Z" fill="#CC0444"/>
<path d="M51.5625 44.0625C47.4281 44.0625 44.0625 47.4281 44.0625 51.5625C44.0625 55.6969 47.4281 59.0625 51.5625 59.0625C55.6969 59.0625 59.0625 55.6969 59.0625 51.5625C59.0625 47.4281 55.6969 44.0625 51.5625 44.0625ZM53.4375 56.8594C52.8469 57.0656 52.2187 57.1875 51.5625 57.1875C50.9063 57.1875 50.2781 57.0656 49.6875 56.8594V54.5156C49.6875 54.1594 49.9781 53.8687 50.3344 53.8687H52.7906C53.1469 53.8687 53.4375 54.1594 53.4375 54.5156V56.8594ZM50.8594 50.3906C50.8594 50.0063 51.1781 49.6875 51.5625 49.6875C51.9469 49.6875 52.2656 50.0063 52.2656 50.3906C52.2656 50.775 51.9469 51.0938 51.5625 51.0938C51.1781 51.0938 50.8594 50.775 50.8594 50.3906ZM55.3125 55.7437V54.5156C55.3125 53.3625 54.5344 52.4063 53.475 52.1063C53.8875 51.6469 54.1406 51.0562 54.1406 50.3906C54.1406 48.9656 52.9875 47.8125 51.5625 47.8125C50.1375 47.8125 48.9844 48.9656 48.9844 50.3906C48.9844 51.0469 49.2375 51.6469 49.65 52.1063C48.5906 52.4063 47.8125 53.3719 47.8125 54.5156V55.7437C46.6687 54.7125 45.9375 53.2219 45.9375 51.5625C45.9375 48.4594 48.4594 45.9375 51.5625 45.9375C54.6656 45.9375 57.1875 48.4594 57.1875 51.5625C57.1875 53.2219 56.4563 54.7125 55.3125 55.7437Z" fill="#CC0444"/>
<path d="M30 44.0625C25.8656 44.0625 22.5 47.4281 22.5 51.5625C22.5 55.6969 25.8656 59.0625 30 59.0625C34.1344 59.0625 37.5 55.6969 37.5 51.5625C37.5 47.4281 34.1344 44.0625 30 44.0625ZM31.875 56.8594C31.2844 57.0656 30.6562 57.1875 30 57.1875C29.3438 57.1875 28.7156 57.0656 28.125 56.8594V54.5156C28.125 54.1594 28.4156 53.8687 28.7719 53.8687H31.2281C31.5844 53.8687 31.875 54.1594 31.875 54.5156V56.8594ZM29.2969 50.3906C29.2969 50.0063 29.6156 49.6875 30 49.6875C30.3844 49.6875 30.7031 50.0063 30.7031 50.3906C30.7031 50.775 30.3844 51.0938 30 51.0938C29.6156 51.0938 29.2969 50.775 29.2969 50.3906ZM33.75 55.7437V54.5156C33.75 53.3625 32.9719 52.4063 31.9125 52.1063C32.325 51.6469 32.5781 51.0562 32.5781 50.3906C32.5781 48.9656 31.425 47.8125 30 47.8125C28.575 47.8125 27.4219 48.9656 27.4219 50.3906C27.4219 51.0469 27.675 51.6469 28.0875 52.1063C27.0281 52.4063 26.25 53.3719 26.25 54.5156V55.7437C25.1062 54.7125 24.375 53.2219 24.375 51.5625C24.375 48.4594 26.8969 45.9375 30 45.9375C33.1031 45.9375 35.625 48.4594 35.625 51.5625C35.625 53.2219 34.8938 54.7125 33.75 55.7437Z" fill="#CC0444"/>
<path d="M8.4375 44.0625C4.30313 44.0625 0.9375 47.4281 0.9375 51.5625C0.9375 55.6969 4.30313 59.0625 8.4375 59.0625C12.5719 59.0625 15.9375 55.6969 15.9375 51.5625C15.9375 47.4281 12.5719 44.0625 8.4375 44.0625ZM10.3125 56.8594C9.72188 57.0656 9.09375 57.1875 8.4375 57.1875C7.78125 57.1875 7.15312 57.0656 6.5625 56.8594V54.5156C6.5625 54.1594 6.85313 53.8687 7.20938 53.8687H9.66563C10.0219 53.8687 10.3125 54.1594 10.3125 54.5156V56.8594ZM7.73438 50.3906C7.73438 50.0063 8.05313 49.6875 8.4375 49.6875C8.82187 49.6875 9.14062 50.0063 9.14062 50.3906C9.14062 50.775 8.82187 51.0938 8.4375 51.0938C8.05313 51.0938 7.73438 50.775 7.73438 50.3906ZM12.1875 55.7437V54.5156C12.1875 53.3625 11.4094 52.4063 10.35 52.1063C10.7625 51.6469 11.0156 51.0562 11.0156 50.3906C11.0156 48.9656 9.8625 47.8125 8.4375 47.8125C7.0125 47.8125 5.85938 48.9656 5.85938 50.3906C5.85938 51.0469 6.1125 51.6469 6.525 52.1063C5.46563 52.4063 4.6875 53.3719 4.6875 54.5156V55.7437C3.54375 54.7125 2.8125 53.2219 2.8125 51.5625C2.8125 48.4594 5.33438 45.9375 8.4375 45.9375C11.5406 45.9375 14.0625 48.4594 14.0625 51.5625C14.0625 53.2219 13.3313 54.7125 12.1875 55.7437Z" fill="#CC0444"/>
</g>
<defs>
<clipPath id="clip0_2_84">
<rect width="60" height="60" fill="white"/>
</clipPath>
</defs>
</svg>
