<svg width="60" height="60" viewBox="0 0 60 60" fill="none" xmlns="http://www.w3.org/2000/svg">
<path d="M16.875 23.4375H15V25.3125H16.875V23.4375Z" fill="#C73E9B"/>
<path d="M26.25 23.4375H24.375V25.3125H26.25V23.4375Z" fill="#C73E9B"/>
<path d="M57.3207 33.7593L53.6579 33.2362C53.4837 32.724 53.278 32.223 53.0419 31.7362L55.2582 28.7812C55.3935 28.6007 55.4592 28.3774 55.4432 28.1523C55.4272 27.9272 55.3306 27.7155 55.171 27.5559L51.1932 23.5781C51.0404 23.4264 50.8395 23.3325 50.6251 23.3128V14.2884C51.5022 13.5861 52.2103 12.6957 52.6971 11.683C53.184 10.6703 53.437 9.56111 53.4376 8.43746C53.4461 7.01665 53.0467 5.62324 52.2868 4.42273C51.5268 3.22222 50.4382 2.26507 49.1504 1.66496C49.0075 1.59749 48.8499 1.56723 48.6922 1.57698C48.5345 1.58673 48.3818 1.63618 48.2483 1.72074C48.1149 1.80529 48.0049 1.9222 47.9288 2.06062C47.8526 2.19903 47.8126 2.35446 47.8126 2.51246V7.76246L45.9376 8.38777L44.0626 7.76246V2.51246C44.0619 2.35478 44.0215 2.19981 43.945 2.0619C43.8686 1.92399 43.7586 1.8076 43.6252 1.72348C43.4918 1.63936 43.3394 1.59024 43.182 1.58067C43.0246 1.5711 42.8673 1.60138 42.7247 1.66871C41.4374 2.26855 40.3493 3.22512 39.5894 4.4249C38.8294 5.62468 38.4297 7.01729 38.4376 8.43746C38.4381 9.56111 38.6911 10.6703 39.178 11.683C39.6648 12.6957 40.3729 13.5861 41.2501 14.2884V20.625H38.4376C38.212 20.6249 37.9939 20.7062 37.8234 20.854C37.6529 21.0018 37.5415 21.206 37.5094 21.4293L36.9029 25.6753L38.7591 25.9406L39.2504 22.5H43.2497L43.741 25.9406C43.7666 26.1188 43.8429 26.286 43.961 26.4219C44.079 26.5579 44.2337 26.6571 44.4066 26.7075C45.188 26.9332 45.9425 27.2435 46.6566 27.6328C46.8146 27.7194 46.9942 27.7587 47.174 27.7459C47.3537 27.7331 47.5259 27.6687 47.6701 27.5606L50.446 25.4793L53.2735 28.3068L51.1876 31.0828C51.0794 31.2269 51.0151 31.3991 51.0023 31.5789C50.9895 31.7586 51.0287 31.9382 51.1154 32.0962C51.5046 32.8104 51.8149 33.5648 52.0407 34.3462C52.0911 34.5191 52.1902 34.6738 52.3262 34.7918C52.4622 34.9099 52.6293 34.9863 52.8076 35.0118L56.2482 35.5031V39.5025L52.8076 39.9937C52.6293 40.0193 52.4622 40.0957 52.3262 40.2137C52.1902 40.3317 52.0911 40.4865 52.0407 40.6593C51.8149 41.4407 51.5046 42.1952 51.1154 42.9093C51.0287 43.0673 50.9895 43.2469 51.0023 43.4267C51.0151 43.6064 51.0794 43.7787 51.1876 43.9228L53.2688 46.6987L50.4413 49.5262L47.6672 47.4375C47.5231 47.3293 47.3509 47.265 47.1711 47.2522C46.9914 47.2394 46.8118 47.2786 46.6538 47.3653C45.9397 47.7545 45.1852 48.0648 44.4038 48.2906C44.2309 48.341 44.0762 48.4401 43.9582 48.5761C43.8401 48.7121 43.7638 48.8792 43.7382 49.0575L43.2497 52.5H39.3751V48.5353C39.3744 47.5449 39.2323 46.5596 38.9532 45.6093C40.7389 46.1321 42.6464 46.0574 44.3858 45.3967C46.1251 44.7359 47.6011 43.5252 48.5893 41.9487C49.5775 40.3721 50.0238 38.516 49.8604 36.6626C49.697 34.8091 48.9327 33.0597 47.6839 31.6805C46.4351 30.3012 44.77 29.3674 42.9419 29.0212C41.1137 28.675 39.2225 28.9353 37.5559 29.7625C35.8892 30.5897 34.5383 31.9385 33.7085 33.6039C32.8787 35.2692 32.6155 37.16 32.9588 38.9887C32.9363 38.9793 32.9147 38.9681 32.8922 38.9596L25.3126 35.9278V34.4868C26.5653 33.8459 27.6749 32.9574 28.5741 31.875H30.9376C31.6835 31.875 32.3988 31.5786 32.9263 31.0512C33.4537 30.5237 33.7501 29.8084 33.7501 29.0625V27.015C34.2965 26.8218 34.77 26.4644 35.1056 25.9919C35.4412 25.5193 35.6227 24.9546 35.6251 24.375V21.5625C35.6227 20.9828 35.4412 20.4181 35.1056 19.9456C34.77 19.473 34.2965 19.1157 33.7501 18.9225V17.8125C33.7501 14.3315 32.3672 10.9931 29.9058 8.53168C27.4444 6.07027 24.106 4.68746 20.6251 4.68746C17.1441 4.68746 13.8057 6.07027 11.3443 8.53168C8.88286 10.9931 7.50005 14.3315 7.50005 17.8125V18.9225C6.95358 19.1157 6.48014 19.473 6.14451 19.9456C5.80888 20.4181 5.62746 20.9828 5.62505 21.5625V24.375C5.62505 25.1209 5.92137 25.8363 6.44882 26.3637C6.97626 26.8911 7.69163 27.1875 8.43755 27.1875H10.3126C10.3726 27.1875 10.4307 27.1781 10.4897 27.1743C10.778 28.7287 11.419 30.1962 12.3635 31.464C13.3079 32.7317 14.5307 33.7659 15.9376 34.4868V35.9278L8.35787 38.9596C6.44028 39.7196 4.79613 41.0397 3.63975 42.7477C2.48338 44.4558 1.86842 46.4726 1.87505 48.5353V57.1875C1.87505 57.4361 1.97383 57.6746 2.14964 57.8504C2.32546 58.0262 2.56391 58.125 2.81255 58.125H38.4376C38.6862 58.125 38.9247 58.0262 39.1005 57.8504C39.2763 57.6746 39.3751 57.4361 39.3751 57.1875V54.375H44.0626C44.2882 54.375 44.5062 54.2937 44.6767 54.1459C44.8472 53.9982 44.9586 53.7939 44.9907 53.5706L45.5138 49.9078C46.026 49.7336 46.527 49.5279 47.0138 49.2918L49.9688 51.5081C50.1493 51.6434 50.3727 51.7091 50.5977 51.6931C50.8228 51.6771 51.0346 51.5805 51.1941 51.4209L55.1719 47.4431C55.3315 47.2835 55.4281 47.0718 55.4442 46.8467C55.4602 46.6216 55.3945 46.3983 55.2591 46.2178L53.0429 43.2628C53.2789 42.7759 53.4846 42.275 53.6588 41.7628L57.3216 41.2396C57.5446 41.2074 57.7485 41.096 57.8961 40.9257C58.0436 40.7555 58.1249 40.5378 58.1251 40.3125V34.6875C58.1251 34.4619 58.0438 34.2438 57.896 34.0733C57.7483 33.9029 57.544 33.7914 57.3207 33.7593ZM47.0082 25.7081C46.9641 25.6865 46.9144 25.6725 46.8704 25.6518V14.0625H45.0001V21.4968L44.9907 21.4293C44.9586 21.206 44.8472 21.0018 44.6767 20.854C44.5062 20.7062 44.2882 20.6249 44.0626 20.625H43.1251V13.8187C43.1251 13.6675 43.0885 13.5185 43.0185 13.3845C42.9484 13.2505 42.847 13.1354 42.7229 13.049C42.026 12.5638 41.448 11.9272 41.0322 11.1867C40.6164 10.4463 40.3737 9.62139 40.3222 8.77379C40.2707 7.92619 40.4117 7.07793 40.7348 6.29262C41.0579 5.50731 41.5545 4.80533 42.1876 4.23933V8.43746C42.1875 8.6343 42.2494 8.82616 42.3645 8.98585C42.4796 9.14554 42.642 9.26495 42.8288 9.32715L45.6413 10.2646C45.8336 10.3287 46.0415 10.3287 46.2338 10.2646L49.0463 9.32715C49.2331 9.26495 49.3955 9.14554 49.5106 8.98585C49.6257 8.82616 49.6876 8.6343 49.6876 8.43746V4.23933C50.3211 4.80532 50.8182 5.50746 51.1416 6.29305C51.465 7.07864 51.6062 7.92728 51.5547 8.77526C51.5032 9.62325 51.2603 10.4485 50.8442 11.1892C50.4281 11.9299 49.8496 12.5667 49.1522 13.0518C49.0285 13.1379 48.9273 13.2526 48.8573 13.3861C48.7873 13.5196 48.7505 13.668 48.7501 13.8187V24.4059L47.0082 25.7081ZM34.6876 37.5C34.6772 36.0341 35.1545 34.6064 36.0444 33.4414C36.9342 32.2765 38.1861 31.4404 39.603 31.0648C41.02 30.6891 42.5217 30.7952 43.8717 31.3663C45.2218 31.9374 46.3437 32.9411 47.061 34.2196C47.7782 35.4981 48.0501 36.9787 47.8338 38.4286C47.6175 39.8784 46.9254 41.2153 45.8662 42.2288C44.8071 43.2422 43.4411 43.8748 41.9831 44.0271C40.5251 44.1793 39.0579 43.8425 37.8122 43.0696C37.1641 42.0314 36.3351 41.1179 35.3644 40.3725C34.9184 39.4807 34.6866 38.4971 34.6876 37.5ZM30.9376 30H29.7994C30.2563 29.1102 30.5801 28.1582 30.7604 27.1743C30.8194 27.1743 30.8776 27.1875 30.9376 27.1875H31.8751V29.0625C31.8751 29.3111 31.7763 29.5496 31.6005 29.7254C31.4247 29.9012 31.1862 30 30.9376 30ZM29.0626 19.6875C28.6261 19.6864 28.1959 19.5842 27.8055 19.3891C27.4151 19.1939 27.0753 18.911 26.8126 18.5625L25.1251 16.3125C25.0497 16.212 24.955 16.1277 24.8464 16.0646C24.7379 16.0015 24.6177 15.9608 24.4932 15.945C24.3686 15.9297 24.2422 15.9393 24.1213 15.9732C24.0004 16.0072 23.8875 16.0648 23.7891 16.1428L20.6429 18.6562C19.8127 19.3205 18.782 19.684 17.7188 19.6875H12.1876V18.75C12.1876 16.5122 13.0765 14.3661 14.6588 12.7837C16.2412 11.2014 18.3873 10.3125 20.6251 10.3125C22.8628 10.3125 25.0089 11.2014 26.5913 12.7837C28.1736 14.3661 29.0626 16.5122 29.0626 18.75V19.6875ZM33.7501 24.375C33.7501 24.6236 33.6513 24.8621 33.4755 25.0379C33.2997 25.2137 33.0612 25.3125 32.8126 25.3125H30.9376V20.625H32.8126C33.0612 20.625 33.2997 20.7237 33.4755 20.8995C33.6513 21.0754 33.7501 21.3138 33.7501 21.5625V24.375ZM20.6251 6.56246C23.6077 6.56569 26.4674 7.75199 28.5764 9.86107C30.6855 11.9702 31.8718 14.8298 31.8751 17.8125V18.75H30.9376C30.9376 16.0149 29.8511 13.3919 27.9171 11.4579C25.9831 9.52395 23.3601 8.43746 20.6251 8.43746C17.89 8.43746 15.267 9.52395 13.333 11.4579C11.399 13.3919 10.3126 16.0149 10.3126 18.75H9.37505V17.8125C9.37828 14.8298 10.5646 11.9702 12.6737 9.86107C14.7828 7.75199 17.6424 6.56569 20.6251 6.56246ZM8.43755 25.3125C8.18891 25.3125 7.95046 25.2137 7.77464 25.0379C7.59883 24.8621 7.50005 24.6236 7.50005 24.375V21.5625C7.50005 21.3138 7.59883 21.0754 7.77464 20.8995C7.95046 20.7237 8.18891 20.625 8.43755 20.625H10.3126V25.3125H8.43755ZM12.1876 25.3125V21.5625H17.7188C19.2084 21.5605 20.6533 21.0535 21.8176 20.1243L24.2091 18.2109L25.3126 19.6875C25.7504 20.2683 26.3169 20.7398 26.9675 21.0651C27.6181 21.3904 28.3352 21.5607 29.0626 21.5625V25.3125C29.0641 26.9821 28.5673 28.6143 27.6357 30H20.6251V31.875H25.9163C24.6782 32.876 23.1819 33.5059 21.6007 33.6918C20.0194 33.8777 18.4179 33.6119 16.9814 32.9253C15.5449 32.2386 14.3323 31.1592 13.4839 29.8119C12.6355 28.4646 12.1861 26.9046 12.1876 25.3125ZM20.6251 35.625C21.5765 35.6226 22.5231 35.4882 23.4376 35.2256V36.5625C23.4376 37.3084 23.1412 38.0237 22.6138 38.5512C22.0863 39.0786 21.371 39.375 20.6251 39.375C19.8791 39.375 19.1638 39.0786 18.6363 38.5512C18.1089 38.0237 17.8126 37.3084 17.8126 36.5625V35.2256C18.7271 35.4882 19.6736 35.6226 20.6251 35.625ZM37.5001 56.25H31.8751V45.9375H30.0001V56.25H11.2501V45.9375H9.37505V56.25H3.75005V48.5353C3.74459 46.8476 4.24776 45.1974 5.19394 43.7999C6.14012 42.4023 7.48541 41.3223 9.05443 40.7006L16.1447 37.8646C16.4216 38.8395 17.0088 39.6974 17.8174 40.3083C18.6259 40.9192 19.6117 41.2497 20.6251 41.2497C21.6384 41.2497 22.6242 40.9192 23.4327 40.3083C24.2413 39.6974 24.8285 38.8395 25.1054 37.8646L32.1957 40.7006C33.7647 41.3223 35.11 42.4023 36.0562 43.7999C37.0023 45.1974 37.5055 46.8476 37.5001 48.5353V56.25Z" fill="#C73E9B"/>
<path d="M42.1875 24.375H40.3125V26.25H42.1875V24.375Z" fill="#C73E9B"/>
<path d="M42.1875 48.75H40.3125V50.625H42.1875V48.75Z" fill="#C73E9B"/>
<path d="M49.8668 44.7922L48.541 46.118L49.8668 47.4439L51.1927 46.118L49.8668 44.7922Z" fill="#C73E9B"/>
<path d="M54.375 36.5625H52.5V38.4375H54.375V36.5625Z" fill="#C73E9B"/>
<path d="M49.8673 27.5567L48.5415 28.8826L49.8673 30.2084L51.1932 28.8826L49.8673 27.5567Z" fill="#C73E9B"/>
</svg>
