<svg width="60" height="60" viewBox="0 0 60 60" fill="none" xmlns="http://www.w3.org/2000/svg">
<path d="M27.5758 21.368L19.9774 15.9574L13.9875 20.2231C13.805 20.3532 13.6563 20.525 13.5536 20.7243C13.451 20.9235 13.3975 21.1443 13.3975 21.3685C13.3975 21.5926 13.451 21.8134 13.5536 22.0126C13.6563 22.2119 13.805 22.3837 13.9875 22.5138L19.977 26.7789L27.5758 21.368Z" fill="white"/>
<path d="M30 19.6418L37.5987 14.2311L30.8158 9.4007C30.5776 9.23098 30.2924 9.13977 30 9.13977C29.7076 9.13977 29.4224 9.23098 29.1843 9.4007L22.4014 14.2311L30 19.6418Z" fill="white"/>
<path d="M29.9998 23.0942L22.4009 28.5051L29.1841 33.3353C29.4222 33.505 29.7074 33.5962 29.9998 33.5962C30.2922 33.5962 30.5774 33.505 30.8156 33.3353L37.5987 28.5051L29.9998 23.0942Z" fill="white"/>
<path d="M46.0126 20.2231L40.0228 15.9574L32.4243 21.368L40.0232 26.7789L46.0127 22.5138C46.1952 22.3837 46.3439 22.2119 46.4465 22.0126C46.5492 21.8134 46.6027 21.5925 46.6027 21.3684C46.6027 21.1443 46.5491 20.9235 46.4465 20.7243C46.3439 20.525 46.1951 20.3532 46.0126 20.2231Z" fill="white"/>
<path d="M56.7966 27.3276L54.4891 25.6847L56.7975 24.0409C57.2228 23.7368 57.5693 23.3356 57.8083 22.8707C58.0474 22.4058 58.172 21.8905 58.1719 21.3678C58.1718 20.845 58.047 20.3298 57.8078 19.865C57.5686 19.4001 57.2219 18.9991 56.7966 18.6951L31.9034 0.967768C31.3475 0.572262 30.6822 0.359741 30 0.359741C29.3178 0.359741 28.6525 0.572262 28.0967 0.967768L3.20347 18.6951H3.20253C2.77731 18.9992 2.43078 19.4004 2.19175 19.8653C1.95271 20.3302 1.82806 20.8455 1.82815 21.3682C1.82825 21.891 1.95308 22.4062 2.19228 22.8711C2.43147 23.3359 2.77814 23.7369 3.20347 24.0409L5.51134 25.6844L3.20347 27.3276C2.77807 27.6315 2.43135 28.0325 2.19213 28.4973C1.95292 28.9621 1.82813 29.4773 1.82812 30.0001C1.82813 30.5228 1.95292 31.038 2.19213 31.5028C2.43135 31.9677 2.77807 32.3686 3.20347 32.6725L5.51111 34.3159L3.20253 35.9592C2.77731 36.2633 2.43078 36.6645 2.19175 37.1294C1.95271 37.5943 1.82806 38.1096 1.82815 38.6323C1.82825 39.1551 1.95308 39.6703 2.19228 40.1352C2.43147 40.6 2.77814 41.001 3.20347 41.305L28.0967 59.0323C28.6526 59.4278 29.3178 59.6403 30 59.6403C30.6822 59.6403 31.3475 59.4278 31.9034 59.0323L56.7975 41.305C57.2228 41.0009 57.5693 40.5997 57.8083 40.1348C58.0474 39.6699 58.172 39.1546 58.1719 38.6319C58.1718 38.1091 58.047 37.5939 57.8078 37.1291C57.5686 36.6642 57.2219 36.2632 56.7966 35.9592L54.4887 34.316L56.7966 32.6725C57.222 32.3686 57.5687 31.9677 57.8079 31.5028C58.0471 31.038 58.1719 30.5228 58.1719 30.0001C58.1719 29.4773 58.0471 28.9621 57.8079 28.4973C57.5687 28.0325 57.222 27.6315 56.7966 27.3276ZM4.83584 20.9858L29.7282 3.25842C29.8076 3.20213 29.9027 3.1719 30.0001 3.1719C30.0975 3.1719 30.1925 3.20213 30.272 3.25842L55.1642 20.9858C55.2252 21.0291 55.2749 21.0864 55.3092 21.1528C55.3435 21.2193 55.3615 21.293 55.3616 21.3678C55.3617 21.4426 55.3439 21.5163 55.3097 21.5828C55.2756 21.6493 55.226 21.7067 55.1652 21.7502L30.2719 39.4776C30.1924 39.5339 30.0974 39.5641 30 39.5641C29.9026 39.5641 29.8076 39.5339 29.7281 39.4776L4.83584 21.7502C4.77481 21.7069 4.72504 21.6496 4.6907 21.5831C4.65635 21.5166 4.63843 21.4429 4.63843 21.368C4.63843 21.2932 4.65635 21.2194 4.6907 21.1529C4.72504 21.0864 4.77481 21.0291 4.83584 20.9858ZM55.1642 38.2498C55.2252 38.2932 55.2749 38.3505 55.3092 38.4169C55.3435 38.4833 55.3615 38.557 55.3616 38.6318C55.3617 38.7066 55.3439 38.7804 55.3097 38.8469C55.2756 38.9134 55.226 38.9708 55.1652 39.0143L30.2719 56.7417C30.1924 56.798 30.0974 56.8282 30 56.8282C29.9026 56.8282 29.8076 56.798 29.7281 56.7417L4.83584 39.0143C4.77489 38.971 4.72518 38.9137 4.69085 38.8473C4.65651 38.7808 4.63855 38.7071 4.63846 38.6323C4.63837 38.5576 4.65615 38.4838 4.69032 38.4173C4.72449 38.3508 4.77406 38.2934 4.8349 38.2499L7.93527 36.0424L28.0957 50.3998C28.6516 50.7958 29.3171 51.0086 29.9996 51.0086C30.6821 51.0086 31.3475 50.7958 31.9034 50.3998L52.0645 36.0424L55.1642 38.2498ZM55.1652 30.3818L30.271 48.1092C30.1917 48.1655 30.0968 48.1957 29.9996 48.1957C29.9023 48.1957 29.8074 48.1655 29.7281 48.1092L4.83493 30.3818C4.77414 30.3384 4.72459 30.2812 4.69041 30.2148C4.65622 30.1484 4.63839 30.0747 4.63839 30.0001C4.63839 29.9254 4.65622 29.8518 4.69041 29.7854C4.72459 29.719 4.77414 29.6617 4.83493 29.6183L7.93542 27.4107L28.0967 41.7682C28.6526 42.1637 29.3178 42.3762 30 42.3762C30.6822 42.3762 31.3475 42.1637 31.9034 41.7682L52.065 27.4109L55.1651 29.6183C55.2259 29.6617 55.2755 29.719 55.3096 29.7854C55.3438 29.8518 55.3617 29.9254 55.3617 30.0001C55.3617 30.0747 55.3438 30.1483 55.3096 30.2148C55.2755 30.2812 55.2259 30.3384 55.1652 30.3818Z" fill="white"/>
</svg>
