<svg width="60" height="60" viewBox="0 0 60 60" fill="none" xmlns="http://www.w3.org/2000/svg">
<g clip-path="url(#clip0_24_3833)">
<path fill-rule="evenodd" clip-rule="evenodd" d="M3.34102 35.057C3.02836 33.3968 2.87133 31.703 2.87133 30.0002C2.87133 15.006 15.006 2.87145 30.0002 2.87145C36.1293 2.87145 41.9119 4.86586 46.7239 8.63918C47.2371 9.04148 47.9698 8.9973 48.4311 8.53594L51.0729 5.89512L52.5563 17.4721L40.9794 15.9881L43.4627 13.5048C43.7293 13.238 43.8654 12.8674 43.8352 12.4905C43.8059 12.1138 43.6113 11.7696 43.3054 11.5486C39.4148 8.7382 34.8138 7.2532 30.0002 7.2532C17.4261 7.2532 7.25191 17.426 7.25191 30.0004C7.25191 31.3888 7.3773 32.7694 7.62551 34.1239C6.1159 34.0332 4.64309 34.362 3.34102 35.057ZM9.11977 36.8967C10.028 37.014 10.7681 36.1656 10.5281 35.2819C10.0656 33.5692 9.8298 31.7919 9.8298 30.0002C9.8298 18.8516 18.8518 9.83086 30.0002 9.83086C33.756 9.83086 37.3663 10.8507 40.5281 12.7927L38.7833 14.5379C38.1513 15.1683 37.9392 16.0859 38.2276 16.9329C38.5148 17.7727 39.2425 18.3649 40.1276 18.4782L52.5607 20.0721C54.0613 20.263 55.3513 18.9859 55.1558 17.4777L53.5618 5.04316C53.4117 3.86965 52.4437 3.0184 51.2613 3.0184C50.6427 3.0184 50.0616 3.25992 49.6234 3.69855L47.4002 5.92055C42.3186 2.235 36.3272 0.292969 30.0002 0.292969C13.5816 0.292969 0.292969 13.5816 0.292969 30.0001C0.292969 32.5564 0.618867 35.0966 1.26094 37.5479C1.50902 38.495 2.67703 38.8227 3.38473 38.1667C4.41328 37.2131 5.74359 36.6866 7.12992 36.6866C7.77164 36.6867 8.47957 36.8147 9.11977 36.8967ZM30.0002 57.129C44.9925 57.129 57.1291 44.9924 57.1291 30.0001C57.1291 28.2981 56.9712 26.6041 56.6579 24.9435C55.3559 25.6385 53.8819 25.9672 52.3734 25.8761C52.622 27.2312 52.7474 28.6119 52.7474 30.0001C52.7474 42.573 42.5729 52.7474 30.0002 52.7474C25.1862 52.7474 20.584 51.2624 16.6935 48.4526C16.3875 48.231 16.193 47.8863 16.1637 47.51C16.1334 47.1345 16.2691 46.7625 16.5361 46.4952L19.0194 44.0123L7.44258 42.5285L8.92758 54.1055L11.5677 51.4642C11.8186 51.2145 12.1479 51.0868 12.4793 51.0868C12.7595 51.0868 13.0396 51.1773 13.2749 51.3608C18.087 55.1347 23.87 57.129 30.0002 57.129ZM58.7379 22.4524C58.623 22.0144 58.287 21.6686 57.8516 21.5414C57.4174 21.415 56.9473 21.5254 56.6147 21.8337C55.5854 22.7878 54.2556 23.3132 52.8688 23.3132C52.2254 23.3132 51.5209 23.1859 50.8793 23.1037C49.9709 22.9875 49.2307 23.8345 49.4706 24.7192C49.9336 26.4313 50.1689 28.208 50.1689 30.0001C50.1689 41.1489 41.1486 50.169 30.0001 50.169C26.2427 50.169 22.6336 49.1497 19.4706 47.2078L21.2154 45.463C21.8474 44.8327 22.0595 43.915 21.7711 43.0676C21.4839 42.2284 20.7562 41.6355 19.8718 41.5228L7.43777 39.9279C5.92898 39.752 4.64707 41.0048 4.84359 42.5229L6.43711 54.9573C6.58723 56.1308 7.5552 56.9827 8.73855 56.9827C9.35625 56.9827 9.93738 56.7402 10.3773 56.3014L12.5993 54.0795C17.6802 57.7656 23.6719 59.707 30.0002 59.707C46.4182 59.707 59.707 46.4182 59.707 30.0002C59.707 27.4445 59.3816 24.9048 58.7379 22.4524Z" fill="white"/>
</g>
<defs>
<clipPath id="clip0_24_3833">
<rect width="60" height="60" fill="white"/>
</clipPath>
</defs>
</svg>
