<svg width="60" height="60" viewBox="0 0 60 60" fill="none" xmlns="http://www.w3.org/2000/svg">
<path fill-rule="evenodd" clip-rule="evenodd" d="M36.2446 36.8788C36.3828 37.1996 36.6877 37.4169 37.036 37.4428C37.0594 37.4446 37.0826 37.4454 37.1059 37.4454C37.4284 37.4454 37.7305 37.2791 37.9023 37.0022L40.1738 33.3419L44.3939 34.2061C44.7365 34.276 45.0889 34.1502 45.3093 33.8794C45.5297 33.6086 45.5813 33.2376 45.4432 32.9168L42.3091 25.64C42.4049 25.5993 42.503 25.5575 42.6064 25.5133C44.2226 24.8212 45.1682 23.1831 44.9596 21.4374C44.9208 21.1131 44.8846 20.8246 44.8522 20.5656C44.722 19.5268 44.6564 19.0053 44.7268 18.6068C44.7971 18.2084 45.0368 17.7407 45.5146 16.8091C45.6338 16.5767 45.7664 16.318 45.9138 16.0265C46.707 14.4573 46.3785 12.5946 45.0965 11.3916C44.8585 11.1681 44.6452 10.9704 44.4539 10.7928C43.6863 10.0807 43.3009 9.72332 43.0988 9.37293C42.8964 9.02253 42.7796 8.51019 42.5467 7.48949C42.4886 7.23496 42.4239 6.95136 42.3494 6.63332C41.9484 4.92144 40.4995 3.70574 38.744 3.60812C38.418 3.58996 38.1276 3.57554 37.8668 3.56253C36.8211 3.5105 36.2962 3.48437 35.916 3.34597C35.5359 3.20757 35.117 2.89023 34.2824 2.25789C34.0744 2.10015 33.8425 1.9246 33.5812 1.7289C32.1735 0.675386 30.2823 0.675269 28.8747 1.7289C28.6134 1.9246 28.3814 2.10015 28.1734 2.25789C27.3388 2.89023 26.92 3.20757 26.5398 3.34597C26.1597 3.48437 25.6347 3.5105 24.589 3.56253C24.3282 3.57554 24.0379 3.58996 23.7119 3.60812C21.9564 3.70574 20.5074 4.92156 20.1065 6.63332C20.032 6.95136 19.9673 7.23484 19.9091 7.48949C19.6763 8.51019 19.5595 9.02265 19.3571 9.37293C19.1548 9.72332 18.7695 10.0807 18.0019 10.7928C17.8106 10.9704 17.5974 11.1681 17.3594 11.3916C16.0775 12.5948 15.7489 14.4575 16.542 16.0266C16.6893 16.3179 16.822 16.5766 16.941 16.8088C17.4188 17.7406 17.6587 18.2083 17.729 18.6067C17.7993 19.005 17.7338 19.5265 17.6036 20.5653C17.5711 20.8244 17.5349 21.113 17.4961 21.4374C17.2875 23.1831 18.2331 24.8212 19.8494 25.5133C20.1496 25.6418 20.4175 25.7548 20.6581 25.8562C20.7312 25.887 20.8006 25.9163 20.8683 25.9449L17.0238 34.2024C16.8763 34.519 16.9172 34.8912 17.1296 35.1685C17.342 35.4456 17.6909 35.5821 18.0351 35.5216L22.2788 34.7801L24.4431 38.5047C24.6115 38.7943 24.9207 38.9711 25.2536 38.9711C25.2677 38.9711 25.282 38.9707 25.2961 38.9702C25.6451 38.9543 25.9563 38.7459 26.1037 38.4293L29.9297 30.2111C30.5436 30.0266 30.9156 29.9337 31.2282 29.9337C31.6327 29.9337 32.135 30.0886 33.1355 30.3974C33.2513 30.4332 33.3739 30.471 33.5024 30.5104L36.2446 36.8788ZM39.9098 31.3738C39.5252 31.2952 39.1321 31.4644 38.925 31.7979L37.2562 34.4874L35.6629 30.7879C36.7565 30.6361 37.7574 30.0234 38.3972 29.0448C38.5759 28.7714 38.7337 28.5272 38.8754 28.3078C39.4434 27.4282 39.7284 26.9868 40.0383 26.7266C40.1774 26.6099 40.3522 26.5044 40.5891 26.3869L43.0104 32.0087L39.9098 31.3738ZM25.1611 36.0096L23.571 33.2731C23.3737 32.9336 22.9858 32.7532 22.5991 32.8206L19.4812 33.3653L22.5255 26.8267C22.7975 27.0969 23.0785 27.5317 23.5797 28.308C23.7214 28.5273 23.8791 28.7716 24.0578 29.0448C24.8488 30.2546 26.191 30.9062 27.5785 30.8174L25.1611 36.0096ZM31.2275 28.0578C30.5895 28.0578 29.9513 28.2405 28.7672 28.6059C28.5208 28.6819 28.2466 28.7665 27.9379 28.8598C27.0453 29.1293 26.1378 28.7996 25.627 28.0186C25.4504 27.7487 25.2946 27.5075 25.1548 27.2909C23.8103 25.2089 23.6695 25.0908 21.3856 24.1284C21.1481 24.0283 20.8834 23.9167 20.587 23.7897C19.7293 23.4223 19.2466 22.5863 19.3573 21.6598C19.3956 21.3395 19.4314 21.0544 19.4635 20.7986C19.7718 18.3398 19.7398 18.1586 18.6088 15.9531C18.4912 15.7237 18.3603 15.4683 18.2148 15.1806C17.7939 14.3479 17.9616 13.3973 18.642 12.7587C18.8772 12.538 19.0877 12.3428 19.2767 12.1674C21.0937 10.4819 21.1856 10.3226 21.7368 7.90656C21.7941 7.65507 21.858 7.37511 21.9316 7.06093C22.1443 6.1525 22.8838 5.53199 23.8155 5.48019C24.1375 5.46226 24.4243 5.44796 24.6818 5.43519C27.1571 5.31191 27.33 5.24898 29.3054 3.75238C29.5109 3.59664 29.7398 3.4232 29.9979 3.22996C30.745 2.67085 31.7102 2.67085 32.4572 3.22996C32.7154 3.4232 32.9443 3.59664 33.1498 3.75238C35.1251 5.24898 35.2981 5.31191 37.7733 5.43519C38.0308 5.44796 38.3177 5.46226 38.6397 5.48019C39.5713 5.53199 40.3108 6.1525 40.5236 7.06093C40.5972 7.375 40.6611 7.65496 40.7184 7.90644C41.2696 10.3225 41.3615 10.4819 43.1785 12.1673C43.3675 12.3427 43.578 12.5379 43.8132 12.7586C44.4936 13.3971 44.661 14.3478 44.2402 15.1805C44.0948 15.4683 43.9638 15.7239 43.846 15.9534C42.7152 18.1586 42.6832 18.3398 42.9917 20.7988C43.0237 21.0546 43.0595 21.3395 43.0977 21.6597C43.2085 22.5862 42.7258 23.4223 41.8681 23.7896C41.5716 23.9165 41.307 24.028 41.0695 24.1282C38.7857 25.0907 38.6448 25.2089 37.3004 27.2908C37.1606 27.5075 37.0048 27.7486 36.8282 28.0186C36.3176 28.7994 35.4108 29.1298 34.5173 28.8598C34.2086 28.7665 33.9343 28.6818 33.6879 28.6059C32.5036 28.2405 31.8654 28.0578 31.2275 28.0578ZM40.5318 15.8818C40.5318 10.7513 36.3579 6.57742 31.2275 6.57742C26.0971 6.57742 21.9232 10.7513 21.9232 15.8818C21.9232 21.0122 26.0971 25.1862 31.2275 25.1862C36.3578 25.1862 40.5318 21.0123 40.5318 15.8818ZM31.2273 23.3112C27.1308 23.3112 23.7981 19.9784 23.7981 15.8818C23.7981 11.7852 27.1308 8.45242 31.2273 8.45242C35.3239 8.45242 38.6567 11.7852 38.6567 15.8818C38.6568 19.9784 35.3239 23.3112 31.2273 23.3112ZM36.3763 13.6712L29.9745 19.481C29.7954 19.6436 29.5698 19.7243 29.3446 19.7243C29.1041 19.7243 28.8641 19.6323 28.6816 19.4498L26.0458 16.814C25.6797 16.4479 25.6797 15.8543 26.0458 15.4882C26.412 15.1221 27.0054 15.1221 27.3716 15.4882L29.3759 17.4925L35.1163 12.2829C35.4997 11.9351 36.0926 11.9637 36.4405 12.3471C36.7885 12.7303 36.7598 13.3233 36.3763 13.6712ZM54.1742 44.388C55.4099 43.1525 56.0375 41.5937 55.9891 39.8803L55.5325 23.7632C55.4875 22.1717 53.9052 20.7456 52.1991 20.7456C52.1827 20.7456 52.1664 20.7457 52.1501 20.746C51.3177 20.7593 48.6038 21.2077 48.6235 26.417L48.6569 35.172C48.6577 35.3721 48.645 35.5666 48.619 35.7561C48.5529 35.6771 48.4822 35.5998 48.4067 35.5244C47.2496 34.3674 45.3547 34.3527 44.0925 35.491C44.0611 35.5192 44.0316 35.5496 44.0044 35.5818C42.5922 37.2515 40.857 38.714 39.4626 39.889C38.9736 40.3012 38.5118 40.6903 38.1326 41.0321C36.5425 42.4653 36.3303 44.44 36.3324 46.1826L36.3399 52.4177L35.5314 52.4107C34.984 52.4057 34.4682 52.6153 34.0768 53C33.6854 53.3847 33.4672 53.8977 33.4625 54.4444L33.4415 56.8833C33.4368 57.43 33.6461 57.9467 34.0308 58.3381C34.4154 58.7295 34.9285 58.9476 35.4752 58.9523L48.145 59.0611C48.151 59.0611 48.157 59.0612 48.1629 59.0612C48.7029 59.0612 49.2126 58.8523 49.5997 58.4718C49.9911 58.0871 50.2091 57.5741 50.2138 57.0275L50.2348 54.5885C50.2395 54.0419 50.0302 53.5252 49.6455 53.1338C49.2609 52.7424 48.7478 52.5243 48.2011 52.5196L47.1588 52.5107V51.4034L54.1742 44.388ZM48.3598 54.5725L48.3388 57.0114C48.3384 57.0702 48.3094 57.111 48.2852 57.1348C48.261 57.1587 48.2233 57.1866 48.1609 57.1864L35.4911 57.0775C35.4324 57.077 35.3916 57.0481 35.3678 57.0238C35.344 56.9996 35.3158 56.9584 35.3164 56.8996L35.3373 54.4607C35.3378 54.4019 35.3668 54.3611 35.391 54.3373C35.4149 54.3137 35.4557 54.2857 35.5135 54.2857H35.5151H35.5152L48.1851 54.3946C48.2807 54.3955 48.3607 54.4769 48.3598 54.5725ZM38.2149 52.4339L38.2074 46.1805C38.205 44.2709 38.5471 43.1829 39.3881 42.425C39.7439 42.1041 40.1734 41.7421 40.6708 41.323C42.1042 40.1148 43.8849 38.6143 45.3897 36.8474C45.916 36.406 46.6345 36.404 47.0808 36.8503C47.5559 37.3253 47.5565 37.8904 47.0848 38.53C46.3394 39.3679 45.5556 40.1269 44.7263 40.9294C44.3282 41.3147 43.9164 41.7132 43.5011 42.1286C43.135 42.4947 43.135 43.0882 43.5012 43.4543C43.6843 43.6374 43.924 43.7289 44.164 43.7289C44.404 43.7289 44.644 43.6374 44.827 43.4542C45.2314 43.0498 45.6374 42.6568 46.0302 42.2767C46.8967 41.4382 47.715 40.6463 48.5167 39.7418C48.5209 39.737 49.1446 38.9741 49.1446 38.9741C50.0834 37.8184 50.5372 36.5724 50.5319 35.1651L50.4985 26.41C50.4897 24.0896 51.1341 22.6376 52.1801 22.6209C52.1866 22.6207 52.1928 22.6207 52.1991 22.6207C52.8953 22.6207 53.6417 23.2295 53.6582 23.8164L54.1148 39.9335C54.1488 41.1354 53.7227 42.1881 52.8483 43.0622L45.5583 50.3522C45.3825 50.528 45.2838 50.7665 45.2838 51.015V52.4946L38.2149 52.4339ZM36.2392 55.4141C36.3938 55.0252 36.8345 54.8352 37.2235 54.9899C37.6124 55.1445 37.8024 55.5852 37.6478 55.9742C37.4931 56.3631 37.0525 56.5531 36.6636 56.3984C36.2745 56.2437 36.0845 55.8031 36.2392 55.4141ZM25.9231 53.0002C25.5317 52.6153 25.0147 52.4068 24.4683 52.411L23.66 52.4179L23.6675 46.1828C23.6696 44.4401 23.4573 42.4654 21.8672 41.0323C21.4882 40.6905 21.0263 40.3014 20.5374 39.8894C19.1431 38.7142 17.4078 37.2517 15.9956 35.582C15.9684 35.5498 15.9389 35.5194 15.9075 35.4912C14.6448 34.353 12.7498 34.3677 11.5933 35.5246C11.5177 35.6001 11.447 35.6773 11.3809 35.7563C11.3548 35.5668 11.3423 35.3725 11.3431 35.1723L11.3765 26.4171C11.3962 21.2078 8.68223 20.7596 7.84985 20.7461C7.83344 20.7459 7.81739 20.7457 7.80086 20.7457C6.09473 20.7457 4.51235 22.1719 4.46747 23.7633L4.0109 39.8806C3.9625 41.594 4.59004 43.1526 5.82567 44.3881L12.8411 51.4036V52.5109L11.7987 52.5198C11.252 52.5245 10.739 52.7426 10.3544 53.134C9.96965 53.5254 9.76036 54.0421 9.76504 54.5888L9.78602 57.0277C9.79071 57.5744 10.0088 58.0873 10.4002 58.472C10.7873 58.8525 11.2968 59.0615 11.8369 59.0615C11.8429 59.0615 11.849 59.0615 11.8548 59.0614L24.5247 58.9525C25.0714 58.9478 25.5844 58.7297 25.969 58.3383C26.3538 57.9469 26.5631 57.4302 26.5584 56.8835L26.5374 54.4446C26.5328 53.898 26.3145 53.3849 25.9231 53.0002ZM14.7161 51.015C14.7161 50.7664 14.6173 50.528 14.4415 50.3522L7.15141 43.0621C6.27719 42.188 5.8511 41.1354 5.88508 39.9335L6.34165 23.8163C6.3584 23.224 7.12305 22.6107 7.81973 22.6209C8.86575 22.6376 9.51016 24.0896 9.50137 26.4099L9.46797 35.1651C9.4627 36.5724 9.91645 37.8183 10.8569 38.9761L11.4588 39.713C11.4629 39.718 11.479 39.737 11.4832 39.7418C12.2849 40.6463 13.1032 41.4382 13.9697 42.2767C14.3625 42.6569 14.7685 43.0498 15.173 43.4542C15.3561 43.6373 15.5959 43.7289 15.8359 43.7289C16.0758 43.7289 16.3158 43.6374 16.4988 43.4543C16.865 43.0882 16.865 42.4947 16.4989 42.1286C16.0836 41.7133 15.6718 41.3147 15.2737 40.9294C14.4443 40.1268 13.6606 39.3679 12.9152 38.53C12.4436 37.8905 12.4441 37.3254 12.9191 36.8505C13.3657 36.404 14.084 36.406 14.6104 36.8474C16.1151 38.6144 17.8956 40.115 19.3293 41.3232C19.8265 41.7423 20.256 42.1042 20.612 42.4252C21.4529 43.1829 21.7949 44.271 21.7926 46.1806L21.7851 52.4341L14.7162 52.4948L14.7161 51.015ZM24.6319 57.0239C24.6081 57.0482 24.5673 57.0771 24.5086 57.0776L11.8388 57.1865C11.7789 57.1866 11.7387 57.1588 11.7146 57.1349C11.6903 57.1111 11.6614 57.0705 11.6609 57.0115L11.6399 54.5726C11.6393 54.5138 11.6676 54.4725 11.6914 54.4484C11.7152 54.4243 11.7559 54.3952 11.8147 54.3947L24.4844 54.2859H24.4861C24.544 54.2859 24.5848 54.3139 24.6087 54.3374C24.633 54.3612 24.6619 54.402 24.6624 54.4608L24.6834 56.8997C24.6839 56.9585 24.6557 56.9997 24.6319 57.0239ZM23.7606 55.4141C23.9153 55.8031 23.7254 56.2437 23.3364 56.3984C22.9475 56.5531 22.5067 56.3631 22.3522 55.9742C22.1975 55.5852 22.3874 55.1446 22.7764 54.9899C23.1653 54.8352 23.6059 55.0252 23.7606 55.4141Z" fill="#6A26DA"/>
</svg>
