<svg width="60" height="60" viewBox="0 0 60 60" fill="none" xmlns="http://www.w3.org/2000/svg">
<path d="M39.8087 40.5169H30.0427L29.463 38.8213C29.0074 37.499 28.1073 37.3014 27.6112 37.3014H19.8354C18.7891 37.3014 17.9379 38.1055 17.9379 39.0939V41.3538V54.4797C17.9379 55.7221 18.9503 56.7328 20.1945 56.7328H39.8086C41.0529 56.7328 42.0653 55.7221 42.0653 54.4797V42.7735C42.0654 41.5293 41.053 40.5169 39.8087 40.5169ZM40.3915 54.4797C40.3915 54.7936 40.1246 55.0589 39.8087 55.0589H20.1946C19.8732 55.0589 19.6119 54.7991 19.6119 54.4797V41.3537V39.0938C19.6119 39.0642 19.6911 38.9752 19.8355 38.9752H27.6114C27.7283 38.9752 27.8303 39.2203 27.88 39.3645L28.2739 40.5168H21.428C20.9658 40.5168 20.591 40.8914 20.591 41.3537C20.591 41.8159 20.9657 42.1907 21.428 42.1907H39.8088C40.1302 42.1907 40.3916 42.452 40.3916 42.7733L40.3915 54.4797ZM19.7169 29.9594H29.163V34.754L28.1086 33.6981C27.7821 33.3709 27.2521 33.3706 26.9251 33.6973C26.598 34.0239 26.5977 34.5537 26.9243 34.8808L29.4079 37.3677C29.5648 37.5249 29.7777 37.6132 29.9998 37.6133H30C30.222 37.6133 30.4348 37.5251 30.5918 37.3682L33.0788 34.8812C33.4056 34.5544 33.4056 34.0245 33.0788 33.6976C32.7519 33.3708 32.222 33.3708 31.8952 33.6976L30.837 34.7558V29.9594H40.2831C40.7453 29.9594 41.12 29.5847 41.12 29.1224V8.86444C41.12 8.64237 41.0318 8.42967 40.8749 8.27264L36.1146 3.51237C35.9576 3.35545 35.7446 3.26721 35.5228 3.26721H19.7169C19.2547 3.26721 18.88 3.64186 18.88 4.10417V29.1224C18.88 29.5847 19.2546 29.9594 19.7169 29.9594ZM20.5539 4.94112H35.1762L39.4463 9.2112V28.2856H20.5539V4.94112ZM22.5427 17.274C22.0805 17.274 21.7057 16.8994 21.7057 16.4371C21.7057 15.9749 22.0804 15.6001 22.5427 15.6001H22.9864V12.8356C22.9864 12.3734 23.3611 11.9986 23.8234 11.9986C24.2856 11.9986 24.6604 12.3733 24.6604 12.8356V15.6003H25.4565V9.84366C25.4565 9.38147 25.8312 9.0067 26.2935 9.0067C26.7557 9.0067 27.1304 9.38135 27.1304 9.84366V15.6001H27.9265V6.72319C27.9265 6.261 28.3011 5.88624 28.7634 5.88624C29.2257 5.88624 29.6004 6.26088 29.6004 6.72319V15.6003H30.4V12.0054C30.4 11.5432 30.7746 11.1685 31.2369 11.1685C31.6992 11.1685 32.0739 11.5431 32.0739 12.0054V15.6003H32.8699V8.82049C32.8699 8.35831 33.2446 7.98354 33.7069 7.98354C34.1691 7.98354 34.5438 8.35819 34.5438 8.82049V15.6001H35.3434V12.2256C35.3434 11.7634 35.718 11.3887 36.1804 11.3887C36.6425 11.3887 37.0173 11.7633 37.0173 12.2256V15.6001H37.4577C37.9199 15.6001 38.2946 15.9748 38.2946 16.4371C38.2946 16.8993 37.92 17.274 37.4577 17.274H22.5427ZM23.5015 20.0183C23.5015 20.4805 23.1268 20.8553 22.6645 20.8553H22.5425C22.0804 20.8553 21.7056 20.4806 21.7056 20.0183C21.7056 19.5562 22.0802 19.1814 22.5425 19.1814H22.6645C23.1268 19.1814 23.5015 19.5562 23.5015 20.0183ZM23.5015 22.7256C23.5015 23.1878 23.1268 23.5626 22.6645 23.5626H22.5425C22.0804 23.5626 21.7056 23.1879 21.7056 22.7256C21.7056 22.2634 22.0802 21.8887 22.5425 21.8887H22.6645C23.1268 21.8887 23.5015 22.2633 23.5015 22.7256ZM38.2943 20.0183C38.2943 20.4805 37.9196 20.8553 37.4573 20.8553H26.0291C25.5669 20.8553 25.1921 20.4806 25.1921 20.0183C25.1921 19.5562 25.5668 19.1814 26.0291 19.1814H37.4573C37.9196 19.1814 38.2943 19.5562 38.2943 20.0183ZM38.2943 22.7256C38.2943 23.1878 37.9196 23.5626 37.4573 23.5626H26.0291C25.5669 23.5626 25.1921 23.1879 25.1921 22.7256C25.1921 22.2634 25.5668 21.8887 26.0291 21.8887H37.4573C37.9196 21.8887 38.2943 22.2633 38.2943 22.7256ZM37.4573 26.2696H26.0291C25.5669 26.2696 25.1921 25.8949 25.1921 25.4326C25.1921 24.9705 25.5668 24.5957 26.0291 24.5957H37.4573C37.9195 24.5957 38.2943 24.9703 38.2943 25.4326C38.2943 25.8949 37.9196 26.2696 37.4573 26.2696ZM23.5015 25.4328C23.5015 25.8949 23.1268 26.2697 22.6645 26.2697H22.5425C22.0804 26.2697 21.7056 25.8951 21.7056 25.4328C21.7056 24.9706 22.0802 24.5958 22.5425 24.5958H22.6645C23.1268 24.5958 23.5015 24.9705 23.5015 25.4328ZM12.831 14.0292C12.6739 13.8723 12.461 13.7841 12.2392 13.7841H0.895547C0.433359 13.7841 0.0585938 14.1587 0.0585938 14.621V32.5716C0.0585938 33.0338 0.433242 33.4085 0.895547 33.4085H15.6545C16.1167 33.4085 16.4914 33.0339 16.4914 32.5716V18.0364C16.4914 17.8143 16.4032 17.6016 16.2463 17.4446L12.831 14.0292ZM14.8175 31.7347H1.7325V15.458H11.8925L14.8175 18.383V31.7347ZM4.29047 19.2424H12.2561C12.7182 19.2424 13.093 19.6171 13.093 20.0794C13.093 20.5417 12.7184 20.9163 12.2561 20.9163H4.29047C3.82828 20.9163 3.45352 20.5417 3.45352 20.0794C3.45352 19.6171 3.82828 19.2424 4.29047 19.2424ZM13.093 23.5964C13.093 24.0586 12.7184 24.4334 12.2561 24.4334H4.29047C3.82828 24.4334 3.45352 24.0587 3.45352 23.5964C3.45352 23.1342 3.82816 22.7595 4.29047 22.7595H12.2561C12.7184 22.7595 13.093 23.1341 13.093 23.5964ZM13.093 27.1132C13.093 27.5754 12.7184 27.9502 12.2561 27.9502H4.29047C3.82828 27.9502 3.45352 27.5755 3.45352 27.1132C3.45352 26.651 3.82816 26.2763 4.29047 26.2763H12.2561C12.7184 26.2763 13.093 26.6509 13.093 27.1132ZM59.6962 17.4446L56.2809 14.0292C56.1239 13.8723 55.911 13.7841 55.6891 13.7841H44.3489C43.8867 13.7841 43.512 14.1587 43.512 14.621V32.5716C43.512 33.0338 43.8866 33.4085 44.3489 33.4085H59.1045C59.5666 33.4085 59.9414 33.0339 59.9414 32.5716V18.0364C59.9414 17.8144 59.8532 17.6016 59.6962 17.4446ZM58.2675 31.7347H45.1859V15.458H55.3425L58.2675 18.383V31.7347ZM47.7438 19.2424H55.7094C56.1716 19.2424 56.5464 19.6171 56.5464 20.0794C56.5464 20.5417 56.1717 20.9163 55.7094 20.9163H47.7438C47.2816 20.9163 46.9069 20.5417 46.9069 20.0794C46.9069 19.6171 47.2816 19.2424 47.7438 19.2424ZM56.5465 23.5964C56.5465 24.0586 56.1718 24.4334 55.7095 24.4334H47.7439C47.2818 24.4334 46.907 24.0587 46.907 23.5964C46.907 23.1342 47.2816 22.7595 47.7439 22.7595H55.7095C56.1717 22.7595 56.5465 23.1341 56.5465 23.5964ZM56.5465 27.1132C56.5465 27.5754 56.1718 27.9502 55.7095 27.9502H47.7439C47.2818 27.9502 46.907 27.5755 46.907 27.1132C46.907 26.651 47.2816 26.2763 47.7439 26.2763H55.7095C56.1717 26.2763 56.5465 26.6509 56.5465 27.1132ZM15.8807 48.9687C16.2071 49.2955 16.2069 49.8251 15.8803 50.1518L13.3968 52.6353C13.2334 52.7986 13.0192 52.8803 12.805 52.8804C12.5907 52.8804 12.3765 52.7987 12.2132 52.6353C11.8863 52.3084 11.8863 51.7785 12.2132 51.4517L13.268 50.397H8.27496C7.81277 50.397 7.43801 50.0223 7.43801 49.56V35.3262C7.43801 34.864 7.81266 34.4892 8.27496 34.4892C8.73715 34.4892 9.11191 34.8639 9.11191 35.3262V48.7231H13.2701L12.2128 47.6644C11.8862 47.3373 11.8866 46.8075 12.2136 46.4809C12.5406 46.1542 13.0706 46.1546 13.3971 46.4817L15.8807 48.9687ZM52.5654 35.3262V49.56C52.5654 50.0222 52.1907 50.397 51.7284 50.397H46.7339L47.7896 51.4513C48.1167 51.7779 48.1171 52.3077 47.7905 52.6348C47.6271 52.7984 47.4127 52.8804 47.1983 52.8804C46.9843 52.8804 46.7704 52.7989 46.607 52.6356L44.12 50.1522C43.9629 49.9953 43.8745 49.7823 43.8744 49.5604C43.8744 49.3382 43.9625 49.1253 44.1196 48.9682L46.6065 46.4813C46.9334 46.1544 47.4633 46.1544 47.7901 46.4813C48.117 46.8081 48.117 47.338 47.7901 47.6649L46.7318 48.7231H50.8914V35.3262C50.8914 34.864 51.266 34.4892 51.7283 34.4892C52.1906 34.4892 52.5654 34.8639 52.5654 35.3262Z" fill="#6A26DA"/>
</svg>
