<svg width="60" height="60" viewBox="0 0 60 60" fill="none" xmlns="http://www.w3.org/2000/svg">
<path d="M13.7626 42.4312C13.453 42.5586 13.1717 42.7458 12.9347 42.9823C12.6977 43.2187 12.5098 43.4996 12.3818 43.8089C12.2537 44.1181 12.188 44.4497 12.1885 44.7844C12.1889 45.1191 12.2556 45.4505 12.3845 45.7594L13.6876 48.9188C13.9488 49.5407 14.4449 50.0344 15.0682 50.2924C15.6914 50.5505 16.3913 50.5521 17.0157 50.2969C17.1515 50.2363 17.3031 50.2209 17.4482 50.2529C17.5934 50.285 17.7244 50.3628 17.822 50.475C18.4311 51.2097 19.1058 51.8875 19.8376 52.5C19.9443 52.5952 20.0194 52.7208 20.0529 52.8598C20.0864 52.9988 20.0767 53.1447 20.0251 53.2781C19.7699 53.9025 19.7715 54.6024 20.0295 55.2257C20.2876 55.8489 20.7813 56.3451 21.4032 56.6063L24.5626 57.9094C25.1868 58.1672 25.8877 58.1668 26.5116 57.9085C27.1356 57.6501 27.6315 57.1548 27.8907 56.5312C27.9469 56.3986 28.0429 56.2867 28.1656 56.2111C28.2882 56.1355 28.4313 56.0999 28.5751 56.1094C29.5108 56.1915 30.4519 56.1915 31.3876 56.1094C31.5346 56.1022 31.6802 56.1407 31.8044 56.2196C31.9286 56.2985 32.0254 56.4139 32.0813 56.55C32.2077 56.8599 32.3947 57.1415 32.6313 57.3781C32.868 57.6148 33.1496 57.8018 33.4595 57.9281C33.7567 58.0524 34.0748 58.1192 34.397 58.125C34.7192 58.1201 35.0375 58.0533 35.3345 57.9281L38.4938 56.625C39.1158 56.3638 39.6095 55.8677 39.8675 55.2444C40.1256 54.6212 40.1272 53.9213 39.872 53.2969C39.8114 53.1611 39.796 53.0095 39.828 52.8644C39.8601 52.7192 39.9379 52.5882 40.0501 52.4906C40.8261 51.8895 41.542 51.2145 42.1876 50.475C42.2852 50.3628 42.4162 50.285 42.5613 50.2529C42.7065 50.2209 42.8581 50.2363 42.9939 50.2969C43.6183 50.5521 44.3182 50.5505 44.9414 50.2924C45.5646 50.0344 46.0608 49.5407 46.322 48.9188L47.6251 45.7594C47.754 45.4505 47.8206 45.1191 47.8211 44.7844C47.8216 44.4497 47.7559 44.1181 47.6278 43.8089C47.4997 43.4996 47.3118 43.2187 47.0749 42.9823C46.8379 42.7458 46.5565 42.5586 46.247 42.4312C46.1092 42.3776 45.9921 42.2814 45.9129 42.1566C45.8336 42.0318 45.7963 41.885 45.8064 41.7375C45.8064 41.2594 45.872 40.8 45.872 40.3125H43.997C43.997 40.7344 43.997 41.1469 43.9407 41.5594C43.8909 42.1074 44.019 42.6569 44.3061 43.1264C44.5932 43.5958 45.0239 43.9603 45.5345 44.1656C45.6981 44.236 45.8279 44.3675 45.8962 44.532C45.9644 44.6966 45.9659 44.8813 45.9001 45.0469L44.5876 48.1969C44.5191 48.3622 44.3879 48.4935 44.2226 48.5621C44.0574 48.6306 43.8717 48.6308 43.7063 48.5625C43.2012 48.3496 42.6411 48.3039 42.1081 48.4321C41.575 48.5603 41.097 48.8557 40.7438 49.275C40.2085 49.9213 39.6154 50.5175 38.972 51.0562C38.5522 51.407 38.2563 51.8834 38.128 52.4151C37.9997 52.9469 38.0458 53.5058 38.2595 54.0094C38.3278 54.1747 38.3276 54.3604 38.259 54.5257C38.1905 54.6909 38.0591 54.8222 37.8938 54.8906L34.6876 56.1937C34.6077 56.2283 34.5215 56.2462 34.4345 56.2462C34.3474 56.2462 34.2613 56.2283 34.1813 56.1937C34.0169 56.1235 33.8859 55.9926 33.8157 55.8281C33.6096 55.3201 33.2463 54.8914 32.7791 54.6047C32.3119 54.3179 31.7651 54.1881 31.2188 54.2344C30.383 54.3093 29.5422 54.3093 28.7063 54.2344C28.161 54.1859 27.6144 54.3137 27.147 54.5989C26.6796 54.8841 26.3159 55.3116 26.1095 55.8188C26.0394 55.98 25.9084 56.107 25.7451 56.1719C25.5817 56.2369 25.3993 56.2347 25.2376 56.1656L22.0782 54.8625C21.9158 54.7958 21.7858 54.6683 21.7158 54.5073C21.6458 54.3463 21.6413 54.1643 21.7032 54C21.9176 53.495 21.9641 52.9346 21.8359 52.4012C21.7076 51.8678 21.4113 51.3897 20.9907 51.0375C20.3444 50.5021 19.7482 49.9091 19.2095 49.2656C18.8588 48.8458 18.3824 48.5499 17.8506 48.4216C17.3188 48.2933 16.7599 48.3394 16.2563 48.5531C16.091 48.6214 15.9053 48.6212 15.7401 48.5527C15.5748 48.4841 15.4436 48.3528 15.3751 48.1875L14.0626 45.0375C14.0235 44.95 14.0029 44.8552 14.0022 44.7594C14.0016 44.6635 14.0208 44.5685 14.0586 44.4804C14.0965 44.3923 14.1523 44.313 14.2223 44.2475C14.2924 44.1821 14.3753 44.1318 14.4657 44.1C14.9605 43.8955 15.3776 43.5394 15.6572 43.0829C15.9369 42.6264 16.0646 42.093 16.022 41.5594C16.022 41.1281 15.9657 40.6875 15.9657 40.2656H14.0907C14.0907 40.7438 14.0907 41.2031 14.1563 41.7281C14.18 41.8726 14.1539 42.0208 14.0823 42.1485C14.0108 42.2762 13.8981 42.3759 13.7626 42.4312Z" fill="white"/>
<path d="M30 50.625C32.735 50.625 35.3581 49.5385 37.292 47.6045C39.226 45.6706 40.3125 43.0475 40.3125 40.3125H38.4375C38.4375 42.5503 37.5486 44.6964 35.9662 46.2787C34.3839 47.8611 32.2378 48.75 30 48.75C27.7622 48.75 25.6161 47.8611 24.0338 46.2787C22.4514 44.6964 21.5625 42.5503 21.5625 40.3125H19.6875C19.6875 43.0475 20.774 45.6706 22.708 47.6045C24.6419 49.5385 27.265 50.625 30 50.625Z" fill="white"/>
<path d="M50.625 15C50.625 14.7514 50.5262 14.5129 50.3504 14.3371C50.1746 14.1613 49.9361 14.0625 49.6875 14.0625H42.1875C41.9389 14.0625 41.7004 14.1613 41.5246 14.3371C41.3488 14.5129 41.25 14.7514 41.25 15V36.5625H34.6875V21.5625C34.6875 21.3139 34.5887 21.0754 34.4129 20.8996C34.2371 20.7238 33.9986 20.625 33.75 20.625H26.25C26.0014 20.625 25.7629 20.7238 25.5871 20.8996C25.4113 21.0754 25.3125 21.3139 25.3125 21.5625V36.5625H18.75V28.125C18.75 27.8764 18.6512 27.6379 18.4754 27.4621C18.2996 27.2863 18.0611 27.1875 17.8125 27.1875H10.3125C10.0639 27.1875 9.8254 27.2863 9.64959 27.4621C9.47377 27.6379 9.375 27.8764 9.375 28.125V36.5625H1.875V38.4375H58.125V36.5625H50.625V15ZM16.875 36.5625H11.25V29.0625H16.875V36.5625ZM32.8125 36.5625H27.1875V22.5H32.8125V36.5625ZM48.75 36.5625H43.125V15.9375H48.75V36.5625Z" fill="white"/>
<path d="M6.75928 23.925L50.3718 6.4125L48.7499 9.30938L50.3812 10.2469L53.3343 5.01563C53.4032 4.89394 53.444 4.75838 53.4537 4.61887C53.4635 4.47937 53.4419 4.33945 53.3905 4.20937C53.3387 4.07792 53.2578 3.95989 53.1539 3.8641C53.05 3.76832 52.9258 3.69727 52.7905 3.65625L47.0249 1.875L46.4812 3.75L49.6874 4.6875L6.05615 22.1906L6.75928 23.925Z" fill="white"/>
</svg>
