<svg width="60" height="60" viewBox="0 0 60 60" fill="none" xmlns="http://www.w3.org/2000/svg">
<g clip-path="url(#clip0_24_3871)">
<path d="M29.8955 7.62422C30.5473 7.62422 31.0757 7.09582 31.0757 6.44402V1.1802C31.0757 0.528398 30.5473 0 29.8955 0C29.2437 0 28.7153 0.528398 28.7153 1.1802V6.44402C28.7154 7.09582 29.2438 7.62422 29.8955 7.62422Z" fill="white"/>
<path d="M58.744 40.5451L56.6591 38.4661C55.9174 37.7253 54.9289 37.3173 53.8756 37.3173C53.2022 37.3173 52.5556 37.4849 51.9827 37.7988L48.0539 33.8747L48.2453 33.6835C49.8391 32.0865 49.8385 29.4914 48.2451 27.8997C47.6757 27.3293 46.9652 26.9489 46.1907 26.7888C46.2974 26.4207 46.3535 26.0352 46.3535 25.6406C46.3535 24.5443 45.9276 23.5163 45.1568 22.7486C44.5872 22.1782 43.8769 21.7978 43.1024 21.6377C43.209 21.2696 43.2651 20.8842 43.2651 20.4895C43.2651 19.3931 42.8393 18.3652 42.0671 17.5964C41.484 17.014 40.7672 16.6453 40.0145 16.4884C40.4171 15.1 40.0731 13.5381 38.9809 12.444C38.0717 11.5387 36.8381 11.1497 35.6492 11.2758L27.8639 9.80212C26.6765 9.57688 25.1938 9.42794 24.2578 10.2816C24.1987 10.3356 24.1385 10.3975 24.0792 10.4666C22.6279 9.93759 20.9353 10.2526 19.7731 11.4134C19.0022 12.1835 18.5775 13.211 18.5775 14.3067C18.5775 14.7014 18.6334 15.0868 18.7399 15.455C17.9662 15.615 17.2567 15.9949 16.6891 16.5635C15.9166 17.3328 15.4906 18.3591 15.4898 19.4536C15.4895 19.8492 15.5456 20.2359 15.6527 20.605C14.8787 20.7647 14.1687 21.1439 13.5994 21.7125C12.8269 22.4841 12.4015 23.5122 12.4015 24.6074C12.4015 25.4462 12.6519 26.2453 13.116 26.9203C12.53 27.1189 11.9933 27.4495 11.5439 27.8984C9.94896 29.4914 9.94838 32.0866 11.5449 33.686L11.7356 33.8758L7.80631 37.798C6.34604 37.1104 4.54686 37.368 3.34182 38.5715L1.25564 40.6518C0.513613 41.3929 0.105098 42.3815 0.10498 43.4354C0.10498 44.4894 0.513613 45.4781 1.25564 46.2193L3.8592 48.8197C4.32033 49.2804 5.06764 49.2799 5.52818 48.8188C5.98885 48.3576 5.98838 47.6103 5.52725 47.1498L2.92369 44.5494C2.62814 44.2542 2.46537 43.8586 2.46537 43.4355C2.46537 43.0126 2.62814 42.6171 2.92299 42.3226L5.00928 40.2422C5.53053 39.7215 6.32834 39.6439 6.9342 40.0061C6.97686 40.0702 7.02619 40.1312 7.08268 40.1878C7.18381 40.2892 7.29924 40.3668 7.42182 40.4237L19.3858 52.3701C19.4427 52.494 19.5207 52.6106 19.6226 52.7125C19.7217 52.8118 19.8348 52.8886 19.9548 52.945C20.2078 53.2311 20.3476 53.5965 20.3476 53.9863C20.3476 54.4093 20.1848 54.8048 19.8893 55.1L17.8051 57.1817C17.1893 57.7949 16.1876 57.7947 15.5736 57.1836L12.9701 54.5798C12.5092 54.1189 11.762 54.1189 11.3011 54.5798C10.8402 55.0407 10.8402 55.7879 11.3011 56.2488L13.9065 58.8545C14.6734 59.6182 15.6805 59.9999 16.6881 59.9999C17.6959 59.9999 18.7042 59.6176 19.472 58.8532L21.5574 56.7702C22.2995 56.029 22.7081 55.0404 22.7081 53.9863C22.7081 53.234 22.4989 52.5157 22.11 51.8962L26.5322 47.4794C26.5369 47.4746 26.5415 47.4698 26.5463 47.465C27.0527 46.9415 28.4628 47.0395 29.8265 47.1342C30.7955 47.2016 31.8757 47.2765 32.9311 47.1548L37.7737 51.9917C37.46 52.5637 37.2926 53.2094 37.2926 53.8818C37.2926 54.9348 37.7012 55.9228 38.4432 56.664L40.5288 58.747C41.2704 59.4877 42.2588 59.8958 43.3121 59.8958C44.3653 59.8958 45.3538 59.4879 46.0954 58.747L58.7448 46.113C59.4868 45.3719 59.8954 44.3833 59.8954 43.3293C59.8953 42.2755 59.4867 41.2869 58.744 40.5451ZM27.4244 12.1213L32.544 13.0903L29.4797 16.1534C29.0056 15.9256 28.356 15.5007 27.6432 14.8189C26.6676 13.8856 25.9698 12.8081 25.9063 12.136C25.9062 12.1357 25.9062 12.1353 25.9062 12.135C25.9062 12.1349 25.906 12.1347 25.906 12.1346C25.9015 12.0863 25.9003 12.0478 25.9009 12.0184C26.0552 11.9809 26.4651 11.9393 27.4244 12.1213ZM21.4411 13.0835C22.039 12.4862 22.9678 12.4173 23.6434 12.8748C24.0262 14.48 25.3956 15.9349 26.0116 16.5243C26.4682 16.9612 27.9331 18.271 29.4118 18.631C29.6119 18.9178 29.7207 19.2596 29.7207 19.6203C29.7207 20.085 29.542 20.5194 29.2163 20.8447C28.8916 21.17 28.4565 21.3491 27.991 21.3491C27.5254 21.3491 27.0903 21.17 26.7641 20.8432L26.764 20.8431L26.7634 20.8425L21.441 15.5297C21.1165 15.2056 20.9378 14.7712 20.9378 14.3067C20.9379 13.842 21.1166 13.4076 21.4411 13.0835ZM18.3572 18.2335C18.6819 17.9083 19.1165 17.7291 19.5813 17.7291C20.0467 17.7291 20.4827 17.9087 20.8096 18.2352L25.0953 22.5124C25.7702 23.1883 25.7702 24.2883 25.0977 24.9618C24.7712 25.287 24.3346 25.4661 23.8683 25.4661C23.402 25.4661 22.9653 25.287 22.6403 24.9633L22.6401 24.9631L19.3888 21.7125C19.3837 21.7074 19.3782 21.7027 19.3731 21.6976L18.3559 20.6809C18.0295 20.3549 17.8499 19.9196 17.8502 19.4553C17.8507 18.9925 18.0297 18.5595 18.3572 18.2335ZM15.2674 23.3825C15.5924 23.058 16.0279 22.8793 16.4941 22.8793C16.9564 22.8793 17.3883 23.0554 17.7118 23.3743L20.9731 26.6341C21.2983 26.958 21.4775 27.392 21.4775 27.856C21.4775 28.32 21.2983 28.7539 20.9719 29.0791C20.647 29.4035 20.2119 29.5822 19.7465 29.5822C19.2805 29.5822 18.844 29.403 18.5187 29.0791L17.3363 27.8982C17.3361 27.8979 17.3358 27.8976 17.3355 27.8974L15.2675 25.8318C14.9415 25.5062 14.762 25.0712 14.762 24.6071C14.762 24.1432 14.9415 23.7081 15.2674 23.3825ZM13.2119 29.5684C13.5383 29.2424 13.9745 29.0628 14.4401 29.0628C14.9055 29.0628 15.3416 29.2422 15.6678 29.568L16.8518 30.7506C17.1771 31.0745 17.3562 31.5084 17.3562 31.9725C17.3562 32.4365 17.177 32.8704 16.8493 33.1968C16.5246 33.522 16.0895 33.7012 15.624 33.7012C15.1584 33.7012 14.7233 33.5222 14.3962 33.1945L14.248 33.0468C14.246 33.0449 14.2445 33.0427 14.2426 33.0409C14.2404 33.0388 14.238 33.0369 14.2358 33.0348L13.2131 32.0161C12.5382 31.3398 12.5376 30.2418 13.2119 29.5684ZM37.2628 42.9814C36.8021 42.5202 36.0548 42.5198 35.5938 42.9804L34.5438 44.0291C33.5461 45.0268 31.7382 44.9012 29.9899 44.7799C28.0913 44.6479 26.1281 44.5118 24.8577 45.8161L20.5106 50.1579L9.63994 39.3031L13.487 35.463C14.1228 35.8528 14.8565 36.0617 15.6242 36.0617C16.721 36.0617 17.7494 35.6366 18.5176 34.867C19.2909 34.0968 19.7169 33.069 19.7169 31.9726C19.7169 31.9624 19.7162 31.9523 19.7162 31.9421C19.7264 31.9422 19.7366 31.9428 19.7468 31.9428C20.842 31.9428 21.8696 31.519 22.6388 30.7507C23.4122 29.9805 23.8381 28.9525 23.8381 27.8563C23.8381 27.8461 23.8374 27.836 23.8374 27.8258C23.8478 27.8258 23.8581 27.8265 23.8685 27.8265C24.9634 27.8265 25.9916 27.4031 26.766 26.6319C27.5699 25.8267 27.9675 24.7666 27.9599 23.7088C27.9704 23.7089 27.981 23.7095 27.9915 23.7095C29.0883 23.7093 30.1166 23.2843 30.8859 22.5136C31.6569 21.7435 32.0816 20.716 32.0816 19.6203C32.0816 18.854 31.8732 18.1215 31.4847 17.4869L34.8566 14.1165C35.1078 13.8663 35.4177 13.7093 35.7424 13.6445C35.7776 13.6407 35.8122 13.6351 35.8466 13.6283C36.3676 13.5565 36.9147 13.7172 37.3132 14.114C37.9881 14.7901 37.9881 15.89 37.3156 16.5636L36.2887 17.5863C36.2853 17.5897 36.2817 17.5927 36.2783 17.5961L35.0955 18.7769C34.6343 19.2375 34.6338 19.9848 35.0945 20.4459C35.5553 20.9072 36.3024 20.9075 36.7635 20.447L37.7945 19.4174C37.7947 19.4171 37.7949 19.4169 37.7952 19.4166L37.951 19.2614C38.6278 18.5908 39.7242 18.5922 40.4003 19.2674C40.7256 19.5913 40.9047 20.0252 40.9047 20.4893C40.9047 20.9532 40.7256 21.3872 40.3977 21.7136L39.3649 22.7485C39.3648 22.7486 39.3647 22.7488 39.3645 22.749L38.1819 23.9268C37.7201 24.3868 37.7185 25.1341 38.1785 25.5958C38.6385 26.0577 39.3856 26.0591 39.8475 25.5992L41.0355 24.416C41.3603 24.0907 41.7954 23.9116 42.2608 23.9116C42.7264 23.9116 43.1617 24.0907 43.4887 24.4183C43.814 24.7424 43.9931 25.1763 43.9931 25.6404C43.9931 26.1043 43.814 26.5383 43.4869 26.864L41.4279 28.9238C40.9671 29.3849 40.9672 30.132 41.4281 30.5928C41.6586 30.8232 41.9605 30.9383 42.2625 30.9383C42.5646 30.9383 42.8667 30.823 43.0971 30.5925L44.1062 29.583C44.1119 29.5775 44.1181 29.5727 44.1239 29.567C44.4486 29.2416 44.8837 29.0626 45.3492 29.0626C45.8148 29.0626 46.2499 29.2416 46.5758 29.5681C47.25 30.2416 47.2494 31.3397 46.5758 32.0144L45.5498 33.0392C45.5495 33.0396 45.549 33.0399 45.5487 33.0403C45.5483 33.0406 45.5479 33.0411 45.5476 33.0415L43.9192 34.6679C43.458 35.1286 43.4576 35.8759 43.9181 36.337C44.1486 36.5677 44.451 36.6832 44.7532 36.6832C45.0549 36.6832 45.3568 36.5681 45.5872 36.3381L46.3837 35.5425L50.2013 39.3556L39.3316 50.2121L35.437 46.3222C35.7085 46.1476 35.9683 45.9423 36.2122 45.6984L37.2616 44.6503C37.723 44.1899 37.7235 43.4425 37.2628 42.9814ZM57.0766 44.443L44.4273 57.077C44.1314 57.3725 43.7353 57.5353 43.312 57.5353C42.8887 57.5353 42.4926 57.3725 42.1966 57.0768L40.111 54.9938C39.8155 54.6988 39.6527 54.3038 39.6527 53.8818C39.6527 53.46 39.8155 53.065 40.111 52.7699L52.7604 40.1359C53.0564 39.8402 53.4524 39.6774 53.8758 39.6774C54.299 39.6774 54.6951 39.8402 54.9919 40.1366L57.0767 42.2156C57.3723 42.5108 57.5351 42.9062 57.5351 43.3292C57.5349 43.7524 57.3722 44.1479 57.0766 44.443Z" fill="white"/>
<path d="M14.2242 6.62929C14.4546 6.85921 14.7562 6.97405 15.0579 6.97405C15.3602 6.97405 15.6627 6.85851 15.8932 6.62753C16.3536 6.16616 16.3529 5.41898 15.8915 4.95855L11.591 0.666553C11.1297 0.206124 10.3824 0.206709 9.922 0.668194C9.46157 1.12956 9.46228 1.87675 9.92364 2.33718L14.2242 6.62929Z" fill="white"/>
<path d="M44.7329 6.97407C45.0347 6.97407 45.3365 6.85899 45.5669 6.62895L49.8642 2.33684C50.3253 1.8763 50.3258 1.12899 49.8651 0.667859C49.4046 0.206726 48.6574 0.206258 48.1961 0.666922L43.8989 4.95903C43.4377 5.41958 43.4373 6.16688 43.8979 6.62802C44.1284 6.85876 44.4307 6.97407 44.7329 6.97407Z" fill="white"/>
<path d="M7.36152 50.7661C6.9046 51.2309 6.91093 51.9782 7.37581 52.4351L7.37921 52.4384C7.60855 52.6638 7.90632 52.7761 8.20398 52.7761C8.50949 52.7761 8.81499 52.6579 9.04644 52.4224C9.50335 51.9577 9.49527 51.2087 9.0305 50.7518C8.56585 50.2949 7.81867 50.3013 7.36152 50.7661Z" fill="white"/>
<path d="M40.149 41.2813C40.3285 41.2813 40.5107 41.2404 40.6816 41.1542C41.2636 40.8607 41.4974 40.151 41.2039 39.5691C40.9104 38.9871 40.2006 38.7532 39.6187 39.0467L39.6122 39.05C39.0302 39.3436 38.7997 40.0516 39.0932 40.6336C39.3003 41.0447 39.7171 41.2813 40.149 41.2813Z" fill="white"/>
</g>
<defs>
<clipPath id="clip0_24_3871">
<rect width="60" height="60" fill="white"/>
</clipPath>
</defs>
</svg>
