<?xml version="1.0" encoding="UTF-8"?>
<svg id="Layer_2" data-name="Layer 2" xmlns="http://www.w3.org/2000/svg" viewBox="0 0 299.1 190.96">
  <g id="Layer_1-2" data-name="Layer 1">
    <g>
      <rect x="2.16" y="14.42" width="31.8" height="33.15" fill="#e0e0e0"/>
      <rect x="0" y="14.42" width="31.8" height="33.15" fill="#f5f5f5"/>
      <path d="m31.81,47.57H0V14.41h31.81v33.16ZM.02,47.57h31.77V14.43H.02v33.14Z" fill="#e0e0e0"/>
      <rect x="4.29" y="18.87" width="23.25" height="24.23" fill="#fff"/>
      <path d="m4.28,43.27c-.16.24-.35.46-.57.66-.37.4-.9.93-1.48,1.5s-1.12,1.09-1.52,1.46c-.2.21-.43.4-.67.56.16-.25.35-.47.57-.67.37-.39.89-.92,1.48-1.5s1.13-1.09,1.52-1.46c.2-.21.43-.39.67-.55Z" fill="#e0e0e0"/>
      <path d="m27.53,43.21c.24.16.47.36.67.57.39.37.92.89,1.49,1.48s1.09,1.12,1.46,1.52c.21.2.4.43.56.67-.25-.16-.47-.35-.67-.57-.39-.37-.92-.9-1.5-1.48s-1.09-1.13-1.45-1.52c-.21-.2-.4-.42-.56-.67Z" fill="#e0e0e0"/>
      <path d="m27.44,18.94c.17-.24.37-.47.58-.67.37-.39.89-.92,1.48-1.5s1.12-1.09,1.51-1.45c.2-.22.43-.4.68-.56-.16.24-.35.46-.57.66-.38.39-.9.93-1.48,1.5s-1.13,1.1-1.53,1.46c-.2.21-.43.4-.67.56Z" fill="#e0e0e0"/>
      <path d="m4.22,19c-.24-.17-.47-.37-.67-.58-.39-.37-.92-.89-1.5-1.48s-1.09-1.12-1.45-1.51c-.22-.2-.4-.43-.56-.68.24.16.46.36.66.57.39.38.93.9,1.5,1.49s1.1,1.12,1.46,1.52c.21.2.4.43.56.67Z" fill="#e0e0e0"/>
      <path d="m27.44,43.11v-24.24l.08.09H4.34l.1-.11v24.24l-.09-.09h21.5H4.22v-24.42h23.37v24.22c-.15.27-.15.31-.15.31Z" fill="#e0e0e0"/>
      <rect x="12.03" y="27.11" width="7.76" height="7.76" fill="#ebebeb"/>
      <path d="m243.81,21.14c1.31-.79,2.72-1.4,4.19-1.82l.87-4.16,7-.12,1,4.12c1.49.37,2.92.93,4.26,1.68l3.55-2.33,5.05,4.88-2.2,3.63c.79,1.31,1.4,2.72,1.82,4.19l4.16.87.12,7-4.12,1c-.37,1.49-.93,2.92-1.68,4.26l2.33,3.55-4.88,5.05-3.63-2.2c-1.31.79-2.72,1.4-4.19,1.82l-.87,4.16-7,.12-1-4.12c-1.49-.37-2.92-.93-4.26-1.68l-3.55,2.33-5.05-4.88,2.2-3.63c-.79-1.31-1.4-2.72-1.82-4.19l-4.16-.87-.12-7,4.12-1c.37-1.49.93-2.92,1.68-4.26l-2.33-3.54,4.88-5.06,3.63,2.2Zm3.74,9.36c-2.89,2.99-2.8,7.76.19,10.65,2.99,2.89,7.76,2.8,10.65-.19,2.89-2.99,2.8-7.76-.19-10.64-2.98-2.89-7.73-2.82-10.62.16-.01.01-.02.02-.03.03Z" fill="#e0e0e0"/>
      <path d="m281.2,49.86c.54-.6,1.16-1.13,1.84-1.57l-.2-2.24,3.53-1.15,1.15,1.93c.81-.04,1.62.02,2.42.19l1.44-1.72,3.31,1.68-.55,2.18c.61.54,1.13,1.16,1.57,1.85l2.24-.21,1.15,3.54-1.93,1.15c.04.81-.02,1.62-.19,2.42l1.73,1.43-1.69,3.32-2.18-.56c-.54.61-1.16,1.14-1.84,1.58l.2,2.24-3.53,1.15-1.15-1.94c-.81.05-1.62-.01-2.42-.18l-1.44,1.72-3.31-1.69.55-2.17c-.61-.54-1.13-1.16-1.57-1.85l-2.24.21-1.15-3.52,1.93-1.15c-.04-.81.02-1.62.19-2.42l-1.73-1.43,1.69-3.32,2.18.55v-.02Zm3.34,4.16c-1.01,1.97-.23,4.38,1.73,5.39,1.97,1.01,4.38.23,5.39-1.73,1.01-1.97.23-4.38-1.73-5.39,0,0-.01,0-.01,0-1.96-1-4.36-.22-5.37,1.74Z" fill="#e0e0e0"/>
      <path d="m267.44,77.4c.57-.63,1.22-1.19,1.93-1.65l-.22-2.34,3.7-1.2,1.2,2c.85-.05,1.69.02,2.52.2l1.51-1.81,3.46,1.77-.58,2.27c.63.57,1.19,1.22,1.65,1.93l2.34-.22,1.2,3.7-2,1.2c.05.85-.02,1.7-.2,2.53l1.81,1.5-1.77,3.46-2.27-.57c-.57.63-1.22,1.18-1.93,1.64l.21,2.34-3.69,1.2-1.2-2c-.85.05-1.7-.01-2.53-.19l-1.5,1.8-3.46-1.76.57-2.28c-.63-.56-1.19-1.21-1.64-1.93l-2.34.22-1.2-3.7,2-1.2c-.05-.85.01-1.7.19-2.53l-1.8-1.5,1.76-3.46,2.28.58Zm3.49,4.34c-1.05,2.05-.23,4.56,1.82,5.61,2.05,1.05,4.56.23,5.61-1.82,1.05-2.05.23-4.56-1.82-5.61-2.05-1.04-4.55-.23-5.6,1.82h-.01Z" fill="#f5f5f5"/>
      <path d="m159.57,11.84c.65-.73,1.4-1.36,2.22-1.89l-.25-2.7,4.26-1.38,1.38,2.32c.98-.05,1.95.02,2.91.23l1.73-2.08,4,2-.66,2.62c.73.65,1.36,1.4,1.89,2.22l2.7-.24,1.38,4.25-2.32,1.39c.05.97-.02,1.95-.23,2.9l2.08,1.73-2,4-2.62-.66c-.65.73-1.4,1.36-2.22,1.89l.24,2.69-4.25,1.39-1.39-2.33c-.97.05-1.95-.02-2.9-.23l-1.73,2.08-4-2,.67-2.62c-.73-.65-1.37-1.4-1.9-2.22l-2.69.25-1.38-4.26,2.32-1.38c-.05-.98.02-1.95.23-2.91l-2.08-1.73,2-4,2.62.66h-.01Zm4,5c-1.2,2.36-.26,5.25,2.1,6.45,2.36,1.2,5.25.26,6.45-2.1,1.2-2.36.26-5.25-2.1-6.45-2.36-1.19-5.23-.25-6.44,2.1h-.02Z" fill="#e0e0e0"/>
      <path d="m14.44,154.94c-1.65-1.03-3.51-1.68-5.44-1.88-.89-.17-1.8,0-2.57.48-.17.1-.27.28-.27.47.05.13.14.25.26.32,2.35,1.67,5.43,1.91,8,.61" fill="#e0e0e0"/>
      <path d="m14.28,154.78c-1.26-.92-2.43-1.96-3.51-3.09-1.08-1.14-1.85-2.54-2.21-4.07-.14-.46-.07-.95.18-1.36,2.8,2.19,5,5,5.54,8.52" fill="#e0e0e0"/>
      <path d="m14.44,154.91c-.26-1.52-.24-3.08.06-4.6.31-1.53,1.19-2.89,2.46-3.81.39,1.18.36,2.46-.07,3.62-.53,1.83-1.35,3.56-2.43,5.12" fill="#e0e0e0"/>
      <path d="m17.13,159.83c-1.65.26-3.17,1.04-4.36,2.21-1.25,1.14-2.12,2.63-2.49,4.28,1.63-.25,3.08-1.18,4-2.55,1-1.29,1.7-2.71,2.81-3.91" fill="#e0e0e0"/>
      <path d="m17.73,160.65c-1.34-3.38-.87-7.21,1.24-10.17,1,3.42.55,7.09-1.24,10.17" fill="#e0e0e0"/>
      <path d="m21.35,164.93c-3.11-.2-6.04,1.49-7.43,4.28-.1.19-.18.42-.05.58.13.13.31.19.49.15,1.47-.21,2.82-.92,3.83-2,1.01-1.06,2.07-2.06,3.19-3" fill="#e0e0e0"/>
      <path d="m21.23,164.7c-.77-2.52-.81-5.2-.13-7.74.18-1.03.78-1.94,1.65-2.51.08-.03.17-.03.25,0,.07.04.13.1.16.18.31.7.44,1.46.39,2.22-.06.76-.17,1.51-.35,2.25-.16,1.39-.56,2.75-1.2,4-.18.29-.34.59-.48.89-.14.3-.14.4-.27.64" fill="#e0e0e0"/>
      <path d="m30.83,166.13c-.65-2.86,0-5.85,1.75-8.2.12-.16.29-.34.49-.32s.4.45.38.76c-.13,2.78-1.03,5.47-2.62,7.76" fill="#e0e0e0"/>
      <path d="m31.69,166.72c3.4.79,6.97.06,9.79-2-1.64-.83-3.51-1.06-5.3-.65-1.76.32-3.35,1.26-4.49,2.64" fill="#e0e0e0"/>
      <path d="m32.44,164.92c1.97-3.04,5.28-4.95,8.89-5.14-.49,1.42-1.54,2.59-2.91,3.21-1.35.62-2.79,1.04-4.26,1.25-.63.04-1.23.28-1.72.68" fill="#e0e0e0"/>
      <path d="m31.01,156.18c.56-1.69.94-3.43,1.14-5.2.2-1.78-.15-3.57-1-5.14-1.78,3.27-1.83,7.2-.15,10.52" fill="#e0e0e0"/>
      <path d="m36.8,153.26c2.13-3.81,5.93-6.41,10.26-7-1.75,4.15-5.76,6.89-10.26,7" fill="#e0e0e0"/>
      <path d="m35.53,153.97c3,.46,5.55,2.37,8.36,3.53.58.28,1.23.41,1.88.37.82,0,1.47-.68,1.47-1.49,0-.44-.2-.85-.54-1.13-.4-.36-.86-.64-1.37-.83-3.04-1.19-6.39-1.38-9.54-.53" fill="#e0e0e0"/>
      <path d="m33.8,156.08c.56.2,1.06.55,1.45,1,1.83,1.55,4,2.67,6.33,3.25.24.06.56.09.68-.13s0-.42-.16-.59c-1.02-1.2-2.34-2.09-3.83-2.6-1.38-.71-2.92-1.07-4.47-1.06" fill="#e0e0e0"/>
      <path d="m31.84,143.38c2.49,2.29,5.82,3.42,9.19,3.12.15,0,.31-.05.42-.15.23-.25-.05-.64-.32-.85-2.59-2.14-6.03-2.92-9.29-2.12" fill="#e0e0e0"/>
      <path d="m34.16,142.53c3.3-2.43,7.56-3.14,11.47-1.89-1.5,1.39-3.42,2.23-5.46,2.4-2.01.18-4.04,0-6-.51" fill="#e0e0e0"/>
      <path d="m33.24,136.65c-.27-2.69-.09-4.82-.28-7.53,0-.22-.06-.48-.26-.55s-.52.23-.61.52c-.8,2.55-.38,5.32,1.15,7.51" fill="#e0e0e0"/>
      <path d="m33.05,136.99c1.76-1.14,3.28-2.61,4.46-4.34.99-1.14,1.5-2.62,1.43-4.13-1.26.03-2.44.61-3.22,1.6-.77.97-1.34,2.1-1.65,3.3-.35,1.19-.6,2.41-1,3.57" fill="#e0e0e0"/>
      <path d="m37.44,135.77c4.02-1.49,7.75-3.68,11-6.48-1.37-.42-2.84-.31-4.13.32-2.98,1.13-5.44,3.31-6.92,6.13" fill="#e0e0e0"/>
      <path d="m34.28,138.47c2.02.27,4.08.27,6.1,0,1.97-.41,3.88-1.05,5.7-1.9.16-.04.3-.15.39-.29.06-.18,0-.37-.14-.49-.14-.11-.3-.19-.48-.23-2.04-.49-4.19-.36-6.16.37-1.89.65-3.7,1.49-5.41,2.51" fill="#e0e0e0"/>
      <path d="m22.69,143.47c-1.32-2.83-1.35-6.08-.1-8.94.77,1.35,1.04,2.92.79,4.45-.15,1.52-.61,3.1-.64,4.63" fill="#e0e0e0"/>
      <path d="m17.16,140.65c-3.51-.03-6.87,1.42-9.26,4,1.75.21,3.51-.12,5.07-.94,1.54-.82,3-1.8,4.35-2.91" fill="#e0e0e0"/>
      <path d="m13.44,139.44c-1.64-.27-3.32-.22-4.94.15-1.66.46-3.04,1.63-3.77,3.19,1.6.13,3.2-.17,4.64-.87,1.43-.7,2.79-1.53,4.07-2.47" fill="#e0e0e0"/>
      <path d="m18.95,139.49c-1.47-1.08-3.11-1.9-4.86-2.42-1.79-.51-3.71-.04-5.06,1.23,1.5.73,3.17,1.06,4.84.94,1.77-.11,3.55.07,5.27.53" fill="#e0e0e0"/>
      <path d="m18.96,139.57c-2.62-2.87-3.58-6.89-2.54-10.63,2.05,3.14,2.95,6.9,2.54,10.63" fill="#e0e0e0"/>
      <path d="m26.11,132.34c.49-1.14.83-2.34,1.27-3.5.41-1.17,1.02-2.27,1.82-3.22.81-.96,1.97-1.56,3.22-1.67-.81,3.56-3.08,6.61-6.25,8.41" fill="#e0e0e0"/>
      <path d="m24.82,133.85c-.79-1.28-1.75-2.45-2.85-3.47-1.08-.89-2.5-1.25-3.88-1,1.41,2.47,3.91,4.13,6.73,4.49" fill="#e0e0e0"/>
      <path d="m25.07,132.43c-.58-1.33-1.01-2.72-1.28-4.15-.26-1.44-.03-2.93.65-4.23,1.52,2.54,1.79,5.65.71,8.41" fill="#e0e0e0"/>
      <path d="m26.12,124.05c.99-2.67,3.18-4.73,5.91-5.55.32-.13.66-.18,1-.15.36.03.66.28.76.63.1.46-.28.87-.63,1.17-2.07,1.77-4.47,3.09-7.07,3.9" fill="#e0e0e0"/>
      <path d="m26.15,121.86c.02-1.73.28-3.45.77-5.11.51-1.67,1.67-3.07,3.22-3.88.13,1.78-.38,3.55-1.43,5-1.04,1.42-1.91,2.96-2.6,4.58" fill="#e0e0e0"/>
      <path d="m26.11,123.05c-.67-2-.74-4.43-1.91-6.12-.81-1.19-2.12-2-2.82-3.26-.43,1.21-.37,2.53.16,3.7.53,1.15,1.26,2.19,2.16,3.09.87.92,1.61,1.61,2.41,2.59" fill="#e0e0e0"/>
      <path d="m26.12,180.47s-.09-13-.1-29,0-29,.09-29,.1,13,.1,29-.04,29-.09,29Z" fill="#e0e0e0"/>
      <path d="m37.49,141.51c-.16.08-.32.14-.49.18l-1.35.46c-1.13.38-2.69.94-4.38,1.64-1.47.5-2.87,1.2-4.16,2.08-.36.3-.64.67-.83,1.1-.13.31-.15.49-.17.49s0,0,0-.14c.02-.13.05-.26.09-.38.17-.45.45-.86.82-1.17.54-.46,1.15-.84,1.8-1.12.72-.34,1.52-.69,2.37-1,1.69-.69,3.27-1.24,4.41-1.59.58-.18,1-.31,1.37-.4.17-.06.34-.11.52-.15Z" fill="#e0e0e0"/>
      <path d="m41.21,132.36l-.13.14-.42.4-1.56,1.41-5.18,4.62c-2,1.8-3.78,3.52-5,4.82-.61.65-1.09,1.18-1.41,1.56l-.38.43s-.09.1-.14.14c.03-.06.07-.12.11-.17l.35-.45c.31-.39.78-.94,1.37-1.6,1.58-1.71,3.25-3.34,5-4.87,2-1.8,3.88-3.41,5.22-4.58l1.6-1.37.44-.37c.07-.08.13-.12.13-.11Z" fill="#e0e0e0"/>
      <path d="m31.73,140.76c-.05,0,.37-1,.79-2.23s.63-2.28.68-2.27c-.04.8-.21,1.58-.5,2.33-.18.53-.39,1.05-.63,1.56-.08.22-.2.42-.34.61Z" fill="#e0e0e0"/>
      <path d="m26.13,148.65c-.12-.11-.22-.23-.31-.36l-.8-1c-.67-.87-1.6-2.07-2.64-3.38s-2-2.49-2.69-3.34l-.81-1c-.1-.12-.2-.25-.28-.38.12.1.23.21.33.33.21.23.51.56.87,1,.72.83,1.69,2,2.73,3.3s2,2.53,2.6,3.42c.32.44.58.8.75,1.06.09.11.18.23.25.35Z" fill="#e0e0e0"/>
      <path d="m23.64,145.43c-.5-.57-.84-1.26-1-2-.2-.65-.28-1.32-.24-2h.08c0,.16-.06.23-.07.23s0-.08,0-.24h.08c.05.65.16,1.29.34,1.92.21.72.48,1.42.81,2.09Z" fill="#e0e0e0"/>
      <path d="m20.44,141.39c-.22-.18-.46-.32-.72-.43-.65-.19-1.33-.25-2-.16-.67.06-1.34.17-2,.33-.27.09-.55.16-.83.2.25-.15.52-.26.8-.33.67-.21,1.36-.34,2.06-.39.71-.09,1.42-.01,2.09.23.42.23.6.54.6.55Z" fill="#e0e0e0"/>
      <path d="m19.66,140.41s-.42-.18-1.11-.41c-1.81-.63-3.75-.78-5.63-.43-.72.13-1.16.26-1.17.23.1-.05.2-.09.3-.12.27-.1.55-.18.84-.24.94-.21,1.92-.28,2.88-.2.97.07,1.91.29,2.82.63.28.1.54.23.8.37.18.09.28.15.27.17Z" fill="#e0e0e0"/>
      <path d="m26.11,136.26c-.33-.92-.6-1.87-.81-2.83-.27-.95-.49-1.91-.64-2.88.33.93.61,1.87.82,2.83.27.95.48,1.91.63,2.88Z" fill="#e0e0e0"/>
      <path d="m26.16,136.26c-.26-.59-.56-1.16-.9-1.7-.39-.51-.83-.97-1.33-1.37.19.05.36.14.51.27.39.27.73.61,1,1,.4.52.65,1.15.72,1.8Z" fill="#e0e0e0"/>
      <path d="m26.12,173.54s-.06-.32-.2-.87c-.22-.78-.51-1.53-.87-2.25-1.25-2.35-2.8-4.54-4.61-6.5-1-1.17-2-2.28-2.88-3.35-.76-.95-1.45-1.95-2.06-3-.4-.7-.73-1.44-1-2.2-.1-.28-.17-.49-.21-.63-.03-.07-.04-.15-.05-.23,0,0,.11.3.32.83.31.74.68,1.47,1.09,2.16.62,1.02,1.31,2,2.08,2.92.85,1.06,1.85,2.16,2.88,3.34,1.82,1.97,3.36,4.18,4.59,6.56.35.73.63,1.5.82,2.29.05.22.09.44.11.66.01.09,0,.18-.01.27Z" fill="#e0e0e0"/>
      <path d="m36.44,161.93c-.17.12-.34.22-.53.31-.49.27-.96.58-1.4.92-.65.51-1.27,1.07-1.83,1.67-.65.68-1.31,1.47-2,2.32-1.35,1.69-2.62,3.2-3.37,4.4-.31.46-.59.95-.85,1.44-.09.19-.19.37-.3.55.01-.06.03-.11.05-.16l.18-.42c.24-.51.51-1.01.8-1.49,1.03-1.54,2.15-3.03,3.35-4.44.63-.81,1.29-1.58,2-2.32.58-.61,1.21-1.16,1.88-1.66.46-.33.94-.63,1.44-.88.18-.09.33-.14.42-.18l.16-.06Z" fill="#e0e0e0"/>
      <path d="m36.59,165.7c-.37.08-.75.14-1.13.16-.91.1-1.82.27-2.7.53-.87.29-1.69.72-2.42,1.27-.55.43-.82.79-.84.77s0-.11.17-.26c.17-.22.37-.43.59-.61.72-.6,1.55-1.05,2.44-1.34.89-.27,1.81-.43,2.74-.49.38-.05.77-.06,1.15-.03Z" fill="#e0e0e0"/>
      <path d="m29.83,168.01c-.06,0,.45-.81.85-1.87s.46-2,.53-2c.03.2.03.41,0,.61-.06.49-.17.97-.33,1.44-.18.46-.4.9-.66,1.32-.23.33-.37.52-.39.5Z" fill="#e0e0e0"/>
      <path d="m39.72,151.83l-.18.1-.54.24c-.23.1-.52.23-.84.4s-.69.33-1.08.57l-.62.35c-.22.12-.43.27-.66.41-.46.28-.91.62-1.4,1-2.1,1.56-3.93,3.45-5.42,5.6-.33.5-.65,1-.92,1.44-.13.23-.27.45-.39.67s-.22.43-.33.63c-.22.4-.38.78-.53,1.11-.14.28-.26.56-.37.85l-.22.54-.09.19v-.2l.19-.56c.09-.24.19-.53.34-.87s.3-.71.51-1.12c.11-.2.22-.42.33-.64s.25-.44.38-.68c.26-.47.58-1,.91-1.46,1.49-2.17,3.33-4.08,5.45-5.64.5-.34,1-.68,1.43-1,.23-.14.44-.28.66-.4l.63-.35c.4-.23.78-.39,1.11-.55s.61-.28.85-.37l.55-.21.25-.05Z" fill="#e0e0e0"/>
      <path d="m31.59,157.28c.08-.27.23-.5.45-.67.5-.44,1.14-.68,1.8-.69.65,0,1.29.13,1.89.37.26.08.5.2.72.35-.26-.06-.51-.13-.76-.22-.59-.21-1.22-.31-1.85-.31-.62.02-1.22.23-1.72.6-.19.18-.37.37-.53.57Z" fill="#e0e0e0"/>
      <path d="m30.38,158.53c.23-.53.4-1.09.51-1.66.04-.58,0-1.17-.12-1.74.11.14.18.3.21.48.11.42.14.85.09,1.28-.05.43-.18.84-.38,1.22-.08.16-.18.3-.31.42Z" fill="#e0e0e0"/>
      <path d="m17.14,175.4c.42,5.25,1.81,10.38,4.08,15.14h10c2.18-4.77,3.48-9.9,3.84-15.14h-17.92Z" fill="#e0e0e0"/>
      <path d="m33.44,183.44s-3.3.1-7.37.1-7.37-.05-7.37-.1,3.3-.09,7.37-.09,7.37.04,7.37.09Z" fill="#fafbfb"/>
      <path d="m33.23,185.24c0,.05-3.09.1-6.9.1s-6.91,0-6.91-.1,3.09-.09,6.91-.09,6.9.04,6.9.09Z" fill="#fafbfb"/>
      <path d="m21.38,178.65c.13,1.54.13,3.08,0,4.62-.12-1.54-.12-3.08,0-4.62Z" fill="#fafbfb"/>
      <path d="m26.75,178.65c.12,1.59.12,3.19,0,4.78-.12-1.59-.12-3.19,0-4.78Z" fill="#fafbfb"/>
      <path d="m31.79,178.65c.12,1.62.12,3.26,0,4.88-.12-1.62-.12-3.26,0-4.88Z" fill="#fafbfb"/>
      <path d="m34.76,178.65s-3.87.1-8.64.1-8.64,0-8.64-.1,3.87-.09,8.64-.09,8.64.09,8.64.09Z" fill="#fafbfb"/>
      <path d="m287.53,190.25c0,.06-62.69.11-140,.11s-140,0-140-.11,62.68-.11,140-.11,140,.05,140,.11Z" fill="#263238"/>
      <path d="m234.12,16.85H52.12c-3.14,0-5.68,2.54-5.68,5.68v128.58c0,3.14,2.54,5.68,5.68,5.68h69.87l-3.54,34.17,50.89-.32-2.91-33.85h67.73c3.14,0,5.68-2.54,5.68-5.68V22.53c0-3.14-2.54-5.68-5.68-5.68-.01,0-.03,0-.04,0Z" fill="#455b64"/>
      <path d="m145.53,143.27c1.23,1.5,1.01,3.71-.49,4.94-1.29,1.06-3.16,1.06-4.45,0-.11-.09-.22-.19-.3-.31-1.23-1.5-1.01-3.71.49-4.94,1.29-1.06,3.16-1.06,4.45,0,.12.08.22.19.3.31Z" fill="#263238"/>
      <path d="m59.24,19.2h167.74c5.36,0,9.7,4.34,9.7,9.7v104.37H49.54V28.9c0-5.36,4.34-9.7,9.7-9.7Z" fill="#fff"/>
      <path d="m58.71,19.2h170.46c4.15,0,7.52,3.37,7.52,7.52h0v2H49.54v-.39c.01-5.05,4.12-9.14,9.17-9.13Z" fill="#f5f5f5"/>
      <path d="m56.81,24.14c0,.73-.58,1.32-1.31,1.33-.73,0-1.32-.58-1.33-1.31,0-.73.58-1.32,1.31-1.33,0,0,0,0,.01,0,.73,0,1.31.58,1.32,1.31Z" fill="#e0e0e0"/>
      <path d="m60.73,24.14c0,.73-.58,1.32-1.31,1.33-.73,0-1.32-.58-1.33-1.31,0-.73.58-1.32,1.31-1.33,0,0,0,0,.01,0,.73,0,1.31.58,1.32,1.31Z" fill="#e0e0e0"/>
      <path d="m64.44,24.14c.06.73-.47,1.37-1.2,1.43-.73.06-1.37-.47-1.43-1.2,0-.08,0-.15,0-.23.06-.73.7-1.26,1.43-1.2.64.06,1.14.56,1.2,1.2Z" fill="#e0e0e0"/>
      <path d="m185.17,156.79c0,.06-15.26.11-34.08.11s-34.08,0-34.08-.11,15.25-.11,34.08-.11,34.08.05,34.08.11Z" fill="#263238"/>
      <rect x="49.54" y="28.68" width="30.76" height="104.59" fill="#ebebeb"/>
      <path d="m63.05,30.92c.16-.1.34-.18.52-.23l.1-.5h.86l.12.51c.18.04.36.11.52.2l.43-.28.62.59-.27.44c.1.16.17.34.22.52l.51.1v.86l-.51.12c-.04.18-.11.36-.2.52l.28.43-.59.62-.45-.27c-.16.1-.33.17-.51.22l-.1.51h-.86l-.12-.51c-.18-.04-.36-.11-.52-.2l-.44.28-.61-.59.27-.45c-.1-.16-.18-.33-.23-.51l-.5-.1v-.86l.51-.12c.04-.18.11-.36.2-.52l-.28-.44.59-.61.44.27Zm.46,1.14c-.36.36-.36.94,0,1.3.36.36.94.36,1.3,0,.36-.36.36-.94,0-1.3,0,0,0,0,0,0-.36-.35-.94-.35-1.3,0h0Z" fill="#e0e0e0"/>
      <path d="m70.16,54.92h-13.41c-.76,0-1.38-.62-1.38-1.38h0c0-.76.62-1.38,1.38-1.38h13.41c.76,0,1.38.62,1.38,1.38h0c0,.76-.62,1.38-1.38,1.38Z" fill="#e0e0e0"/>
      <path d="m70.16,47.9h-13.41c-.76,0-1.38-.62-1.38-1.38h0c0-.76.62-1.38,1.38-1.38h13.41c.76,0,1.38.62,1.38,1.38h0c0,.76-.62,1.38-1.38,1.38Z" fill="#e0e0e0"/>
      <path d="m70.16,41.47h-13.41c-.76,0-1.37-.6-1.38-1.36h0c0-.77.62-1.39,1.38-1.39h13.41c.76,0,1.38.62,1.38,1.38h0c0,.76-.61,1.37-1.37,1.37,0,0,0,0-.01,0Z" fill="#e0e0e0"/>
      <path d="m106.18,40.65h-12.74c-.76,0-1.37-.61-1.37-1.37h0c0-.76.6-1.37,1.36-1.38,0,0,0,0,.01,0h12.7c.76,0,1.37.6,1.38,1.36v.02h0c0,.74-.59,1.35-1.34,1.37Z" fill="#263238"/>
      <path d="m106.18,47.9h-12.74c-.76,0-1.37-.61-1.37-1.37h0c0-.77.6-1.38,1.36-1.39,0,0,0,0,.01,0h12.7c.76,0,1.38.62,1.38,1.38h0c0,.75-.59,1.36-1.34,1.38Z" fill="#e0e0e0"/>
      <path d="m106.18,55.35h-12.74c-.76,0-1.37-.61-1.37-1.37h0c0-.77.6-1.38,1.36-1.39,0,0,0,0,.01,0h12.7c.76,0,1.38.62,1.38,1.38h0c0,.75-.59,1.36-1.34,1.38Z" fill="#199ed9"/>
      <path d="m100.77,69.76h-7.33c-.76,0-1.37-.61-1.37-1.37h0c0-.77.61-1.38,1.37-1.38h7.29c.76,0,1.37.61,1.37,1.37h0c0,.75-.59,1.36-1.33,1.38Z" fill="#263238"/>
      <path d="m100.77,77.23h-7.33c-.76,0-1.37-.61-1.37-1.37h0c0-.77.61-1.38,1.37-1.38h7.29c.76,0,1.37.61,1.37,1.37h0c0,.75-.59,1.36-1.33,1.38Z" fill="#263238"/>
      <path d="m122.44,77.23h-13.35c-.76,0-1.38-.62-1.38-1.38h0c0-.76.61-1.37,1.37-1.37,0,0,0,0,.01,0h13.35c.76,0,1.37.6,1.38,1.36h0c0,.77-.62,1.39-1.38,1.39Z" fill="#e0e0e0"/>
      <path d="m114.86,83.87h-13.36c-.76,0-1.37-.61-1.37-1.37h0c0-.76.6-1.37,1.36-1.38,0,0,0,0,.01,0h13.36c.76,0,1.38.62,1.38,1.38h0c0,.76-.61,1.37-1.37,1.37,0,0,0,0-.01,0Z" fill="#f9bb1e"/>
      <path d="m109.09,88.69h8.29c.76,0,1.38.62,1.38,1.38h0c0,.76-.62,1.38-1.38,1.38h-8.29c-.76,0-1.38-.62-1.38-1.38h0c0-.76.62-1.38,1.38-1.38Z" fill="#199ed9"/>
      <path d="m117.38,106.3h-8.3c-.76,0-1.38-.62-1.38-1.38h0c0-.76.62-1.38,1.38-1.38h8.3c.76,0,1.38.62,1.38,1.38h0c0,.76-.62,1.38-1.38,1.38Z" fill="#f3725f"/>
      <path d="m117.38,121.99h-8.3c-.76,0-1.38-.62-1.38-1.38h0c0-.76.62-1.38,1.38-1.38h8.3c.76,0,1.38.62,1.38,1.38h0c0,.76-.62,1.38-1.38,1.38Z" fill="#f3725f"/>
      <path d="m137.78,121.99h-14.55c-.76,0-1.38-.62-1.38-1.38h0c0-.76.62-1.38,1.38-1.38h14.55c.76,0,1.37.61,1.37,1.37h0c0,.77-.6,1.38-1.36,1.39h-.01Z" fill="#455b64"/>
      <path d="m147.96,121.99h-2.1c-.76.02-1.4-.58-1.42-1.34h0c0-.76.62-1.38,1.38-1.38h2.1c.76,0,1.38.62,1.38,1.38h0c-.02.73-.61,1.32-1.34,1.34Z" fill="#e0e0e0"/>
      <path d="m136.9,106.3h-12.29c-.76,0-1.38-.62-1.38-1.38h0c0-.76.62-1.38,1.38-1.38h12.29c.76,0,1.38.62,1.38,1.38h0c0,.76-.62,1.38-1.38,1.38Z" fill="#e0e0e0"/>
      <path d="m163.86,113.19h-39.25c-.76,0-1.38-.62-1.38-1.38h0c0-.76.62-1.38,1.38-1.38h39.25c.76,0,1.38.62,1.38,1.38h0c0,.76-.62,1.38-1.38,1.38Z" fill="#e0e0e0"/>
      <path d="m168.44,106.3h-25.1c-.76,0-1.38-.62-1.38-1.38h0c0-.76.62-1.38,1.38-1.38h25.1c.76,0,1.37.61,1.37,1.37h0c0,.77-.6,1.38-1.36,1.39,0,0,0,0-.01,0Z" fill="#455b64"/>
      <path d="m123.75,88.69h10.38c.76,0,1.38.62,1.38,1.38h0c0,.76-.62,1.38-1.38,1.38h-10.38c-.76,0-1.38-.62-1.38-1.38h0c0-.76.62-1.38,1.38-1.38Z" fill="#455b64"/>
      <path d="m140.54,88.69h2.58c.76,0,1.38.62,1.38,1.38h0c0,.76-.62,1.38-1.38,1.38h-2.58c-.76,0-1.38-.62-1.38-1.38h0c0-.76.62-1.38,1.38-1.38Z" fill="#e0e0e0"/>
      <path d="m149.93,88.69h12.98c.76,0,1.38.62,1.38,1.38h0c0,.76-.62,1.38-1.38,1.38h-12.98c-.76,0-1.38-.62-1.38-1.38h0c0-.76.62-1.38,1.38-1.38Z" fill="#e0e0e0"/>
      <path d="m123.9,83.87h-3c-.76,0-1.37-.6-1.38-1.36h0c0-.77.62-1.39,1.38-1.39h3c.76,0,1.38.62,1.38,1.38h0c0,.76-.61,1.37-1.37,1.37,0,0,0,0-.01,0Z" fill="#263238"/>
      <path d="m149.11,83.87h-18.94c-.76,0-1.37-.6-1.38-1.36h0c0-.77.62-1.39,1.38-1.39h18.94c.76,0,1.38.62,1.38,1.38h0c0,.76-.61,1.37-1.37,1.37,0,0,0,0-.01,0Z" fill="#e0e0e0"/>
      <path d="m126.53,40.65h-12.7c-.76,0-1.37-.6-1.38-1.36h0c0-.77.62-1.39,1.38-1.39h12.7c.76,0,1.38.62,1.38,1.38h0c0,.76-.61,1.37-1.37,1.37,0,0,0,0-.01,0Z" fill="#455b64"/>
      <path d="m142.89,47.9h-29.06c-.76,0-1.38-.62-1.38-1.38h0c0-.76.62-1.38,1.38-1.38h29.06c.76,0,1.38.62,1.38,1.38h0c0,.76-.62,1.38-1.38,1.38Z" fill="#263238"/>
      <path d="m174.19,55.35h-60.36c-.76,0-1.38-.62-1.38-1.38h0c0-.76.62-1.38,1.38-1.38h60.36c.76,0,1.37.61,1.37,1.37h0c0,.77-.6,1.38-1.36,1.39,0,0,0,0-.01,0Z" fill="#e0e0e0"/>
      <path d="m142.29,60.65h-28.46c-.76,0-1.38-.62-1.38-1.38h0c0-.76.62-1.38,1.38-1.38h28.46c.76,0,1.38.62,1.38,1.38h0c0,.76-.62,1.38-1.38,1.38Z" fill="#e0e0e0"/>
      <path d="m136.44,69.76h-28.46c-.76,0-1.38-.62-1.38-1.38h0c0-.76.61-1.37,1.37-1.37,0,0,0,0,.01,0h28.46c.76,0,1.37.6,1.38,1.36h0c0,.77-.62,1.39-1.38,1.39Z" fill="#455b64"/>
      <path d="m152.44,69.76h-9.54c-.76,0-1.38-.62-1.38-1.38h0c0-.76.61-1.37,1.37-1.37,0,0,0,0,.01,0h9.54c.76,0,1.37.6,1.38,1.36h0c0,.77-.62,1.39-1.38,1.39Z" fill="#cb1f46"/>
      <path d="m176.79,69.72h-18c-.76,0-1.38-.62-1.38-1.38h0c0-.76.62-1.38,1.38-1.38h18c.76,0,1.38.62,1.38,1.38h0c0,.76-.62,1.38-1.38,1.38Z" fill="#263238"/>
      <path d="m201.31,69.72h-18c-.76,0-1.38-.62-1.38-1.38h0c0-.76.62-1.38,1.38-1.38h18c.76,0,1.38.62,1.38,1.38h0c0,.76-.62,1.38-1.38,1.38Z" fill="#e0e0e0"/>
      <path d="m64.35,62.35h-7.6c-.76,0-1.38-.62-1.38-1.38h0c0-.76.62-1.38,1.38-1.38h7.6c.76,0,1.38.62,1.38,1.38h0c0,.76-.62,1.38-1.38,1.38Z" fill="#e0e0e0"/>
      <path d="m62.08,84.65h-5.33c-.76,0-1.38-.62-1.38-1.38h0c0-.76.62-1.38,1.38-1.38h5.33c.76,0,1.38.62,1.38,1.38h0c0,.76-.62,1.38-1.38,1.38Z" fill="#e0e0e0"/>
      <path d="m71.54,69.78h-14.79c-.76,0-1.38-.62-1.38-1.38h0c0-.76.62-1.38,1.38-1.38h14.79c.76,0,1.37.61,1.37,1.37h0c0,.77-.6,1.38-1.36,1.39,0,0,0,0-.01,0Z" fill="#e0e0e0"/>
      <path d="m68.94,77.21h-12.19c-.76,0-1.38-.62-1.38-1.38h0c0-.76.62-1.38,1.38-1.38h12.19c.76,0,1.38.62,1.38,1.38h0c0,.76-.62,1.38-1.38,1.38Z" fill="#e0e0e0"/>
      <path d="m87.26,39.31c0,.77-.63,1.4-1.4,1.4s-1.4-.63-1.4-1.4.63-1.4,1.4-1.4h0c.77,0,1.4.63,1.4,1.4Z" fill="#455b64"/>
      <path d="m87.26,46.5c0,.77-.63,1.4-1.4,1.4s-1.4-.63-1.4-1.4.63-1.4,1.4-1.4h0c.77,0,1.4.63,1.4,1.4Z" fill="#455b64"/>
      <path d="m87.26,53.97c0,.77-.63,1.4-1.4,1.4s-1.4-.63-1.4-1.4.63-1.4,1.4-1.4h0c.77,0,1.4.63,1.4,1.4Z" fill="#455b64"/>
      <path d="m87.26,61.45c0,.77-.63,1.4-1.4,1.4s-1.4-.63-1.4-1.4.63-1.4,1.4-1.4h0c.77,0,1.4.63,1.4,1.4Z" fill="#455b64"/>
      <path d="m87.26,68.92c0,.77-.63,1.4-1.4,1.4s-1.4-.63-1.4-1.4.63-1.4,1.4-1.4h0c.77,0,1.4.63,1.4,1.4Z" fill="#455b64"/>
      <path d="m87.26,76.4c0,.77-.63,1.4-1.4,1.4s-1.4-.63-1.4-1.4.63-1.4,1.4-1.4h0c.77,0,1.4.63,1.4,1.4Z" fill="#455b64"/>
      <path d="m87.26,83.87c0,.77-.63,1.4-1.4,1.4s-1.4-.63-1.4-1.4.63-1.4,1.4-1.4h0c.77,0,1.4.63,1.4,1.4Z" fill="#455b64"/>
      <path d="m87.26,91.35c0,.77-.63,1.4-1.4,1.4s-1.4-.63-1.4-1.4.63-1.4,1.4-1.4h0c.77,0,1.4.63,1.4,1.4Z" fill="#455b64"/>
      <path d="m87.26,98.83c0,.77-.63,1.4-1.4,1.4s-1.4-.63-1.4-1.4.63-1.4,1.4-1.4h0c.77,0,1.4.63,1.4,1.4Z" fill="#455b64"/>
      <path d="m87.26,106.3c0,.77-.63,1.4-1.4,1.4s-1.4-.63-1.4-1.4.63-1.4,1.4-1.4h0c.77,0,1.4.63,1.4,1.4Z" fill="#455b64"/>
      <path d="m87.26,113.78c0,.77-.63,1.4-1.4,1.4-.77,0-1.4-.63-1.4-1.4s.63-1.4,1.4-1.4h0c.77,0,1.4.63,1.4,1.4Z" fill="#455b64"/>
      <path d="m87.26,121.25c0,.77-.63,1.4-1.4,1.4-.77,0-1.4-.63-1.4-1.4s.63-1.4,1.4-1.4h0c.77,0,1.4.63,1.4,1.4Z" fill="#455b64"/>
      <path d="m263.14,190.24h-49.36c-5.92.02-10.73-4.75-10.75-10.67h0V56.81c.03-5.92,4.84-10.69,10.76-10.67h49.37c5.91-.02,10.72,4.76,10.75,10.67v122.77c-.03,5.91-4.84,10.69-10.76,10.66h-.01Z" fill="#263238"/>
      <path d="m263.02,50.52h-9.58c-1.3.02-2.35,1.09-2.33,2.39,0,0,0,0,0,.01v1.73c.02,1.31-1.01,2.38-2.32,2.41h-18.66c-1.31-.03-2.34-1.1-2.32-2.41v-1.72c.02-1.31-1.02-2.39-2.33-2.41h-11.74c-4.14-.02-7.52,3.33-7.54,7.47v119.83c.02,4.14,3.39,7.49,7.53,7.47h49.27c4.14.02,7.51-3.33,7.53-7.47h0V57.99c-.01-4.14-3.37-7.48-7.51-7.47Z" fill="#fff"/>
      <path d="m206.25,68.61h17.57v116.72h0c-9.7,0-17.57-7.87-17.57-17.57h0v-99.19.04Z" fill="#ebebeb"/>
      <path d="m242.3,76.76h-8.37c-.52-.02-.93-.45-.91-.97,0-.01,0-.02,0-.03h0c-.03-.52.36-.97.88-1,.01,0,.02,0,.03,0h8.37c.52.02.93.45.91.97,0,.01,0,.02,0,.03h0c.03.52-.36.97-.88,1-.01,0-.02,0-.03,0Z" fill="#263238"/>
      <path d="m242.56,81.75h-8.37c-.52-.02-.93-.45-.91-.97,0-.01,0-.02,0-.03h0c-.01-.51.4-.94.91-.95h8.37c.51.01.92.44.91.95h0c.03.52-.36.97-.88,1-.01,0-.02,0-.03,0Z" fill="#e0e0e0"/>
      <path d="m242.66,87.45h-8.37c-.51-.02-.91-.44-.9-.95h0c-.04-.51.34-.96.86-1,.01,0,.03,0,.04,0h8.37c.51,0,.92.43.91.95,0,.02,0,.04,0,.05h0c.01.51-.4.94-.91.95h0Z" fill="#f9bb1e"/>
      <path d="m255.75,91.77h-8.37c-.51,0-.92-.42-.91-.93,0-.02,0-.05,0-.07h0c-.04-.51.34-.96.86-1,.02,0,.04,0,.05,0h8.37c.51.02.92.44.9.96,0,.01,0,.03,0,.04h0c.04.51-.33.95-.84,1-.02,0-.04,0-.06,0Z" fill="#e0e0e0"/>
      <path d="m240.52,97.44h-4.8c-.51-.01-.92-.44-.91-.95h0c-.03-.52.36-.97.88-1,.01,0,.02,0,.03,0h4.8c.52.02.93.45.91.97,0,.01,0,.02,0,.03h0c.01.51-.4.94-.91.95h0Z" fill="#263238"/>
      <path d="m240.52,102.65h-4.8c-.52-.02-.93-.45-.91-.97,0-.01,0-.02,0-.03h0c-.03-.52.36-.97.88-1,.01,0,.02,0,.03,0h4.8c.52.02.93.45.91.97,0,.01,0,.02,0,.03h0c.03.52-.36.97-.88,1-.01,0-.02,0-.03,0Z" fill="#263238"/>
      <path d="m254.78,102.65h-8.8c-.52-.02-.93-.45-.91-.97,0-.01,0-.02,0-.03h0c-.03-.52.36-.97.88-1,.01,0,.02,0,.03,0h8.8c.52.02.93.45.91.97,0,.01,0,.02,0,.03h0c.03.52-.36.97-.88,1-.01,0-.02,0-.03,0Z" fill="#e0e0e0"/>
      <path d="m244.51,108.73h-8.8c-.52-.02-.93-.45-.91-.97,0-.01,0-.02,0-.03h0c-.03-.52.36-.97.88-1,.01,0,.02,0,.03,0h8.8c.52.02.93.45.91.97,0,.01,0,.02,0,.03h0c.03.52-.36.97-.88,1-.01,0-.02,0-.03,0Z" fill="#cb1f46"/>
      <rect x="238.76" y="111.12" width="7.28" height="1.91" rx=".95" ry=".95" fill="#199ed9"/>
      <path d="m241.86,121.4h-5.42c-.52-.02-.93-.45-.91-.97,0-.01,0-.02,0-.03h0c-.03-.52.36-.97.88-1,.01,0,.02,0,.03,0h5.47c.52.02.93.45.91.97,0,.01,0,.02,0,.03h0c.03.52-.36.97-.88,1-.03,0-.05,0-.08,0Z" fill="#f9bb1e"/>
      <path d="m241.86,132.28h-5.42c-.52-.02-.93-.45-.91-.97,0-.01,0-.02,0-.03h0c-.03-.52.36-.97.88-1,.01,0,.02,0,.03,0h5.47c.52.02.93.45.91.97,0,.01,0,.02,0,.03h0c.03.52-.36.97-.88,1-.03,0-.05,0-.08,0Z" fill="#cb1f46"/>
      <path d="m255.3,132.28h-9.58c-.51,0-.92-.43-.91-.95,0-.02,0-.04,0-.05h0c-.04-.51.34-.96.86-1,.02,0,.04,0,.05,0h9.58c.52.02.93.45.91.97,0,.01,0,.02,0,.03h0c.03.52-.36.97-.88,1-.01,0-.02,0-.03,0Z" fill="#455b64"/>
      <path d="m267.44,121.65h-9.58c-.51,0-.92-.43-.91-.95,0-.02,0-.04,0-.05h0c-.04-.51.33-.95.84-1,.02,0,.05,0,.07,0h9.58c.51,0,.92.43.91.95,0,.02,0,.04,0,.05h0c.03.52-.36.97-.88,1-.01,0-.02,0-.03,0Z" fill="#455b64"/>
      <path d="m255.94,125.65h-9.58c-.51,0-.92-.43-.91-.95,0-.02,0-.04,0-.05h0c-.04-.51.34-.96.86-1,.02,0,.04,0,.05,0h9.58c.52.02.93.45.91.97,0,.01,0,.02,0,.03h0c.03.52-.36.97-.88,1-.01,0-.02,0-.03,0Z" fill="#455b64"/>
      <path d="m262.01,132.28h-1.38c-.52-.02-.93-.45-.91-.97,0-.01,0-.02,0-.03h0c-.03-.52.36-.97.88-1,.01,0,.02,0,.03,0h1.38c.51,0,.92.43.91.95,0,.02,0,.04,0,.05h0c.04.51-.34.96-.86,1-.02,0-.04,0-.05,0Z" fill="#e0e0e0"/>
      <path d="m254.73,121.4h-8.1c-.52-.02-.93-.45-.91-.97,0-.01,0-.02,0-.03h0c-.03-.52.36-.97.88-1,.01,0,.02,0,.03,0h8.1c.52.02.93.45.91.97,0,.01,0,.02,0,.03h0c.03.52-.36.97-.88,1-.01,0-.02,0-.03,0Z" fill="#e0e0e0"/>
      <rect x="248.42" y="111.12" width="8.66" height="1.91" rx=".95" ry=".95" fill="#455b64"/>
      <rect x="259.48" y="111.12" width="3.52" height="1.91" rx=".95" ry=".95" fill="#e0e0e0"/>
      <path d="m250.44,108.73h-2c-.52-.02-.93-.45-.91-.97,0-.01,0-.02,0-.03h0c-.03-.52.36-.97.88-1,.01,0,.02,0,.03,0h2c.52.02.93.45.91.97,0,.01,0,.02,0,.03h0c.03.52-.36.97-.88,1-.01,0-.02,0-.03,0Z" fill="#263238"/>
      <path d="m267.09,108.73h-12.49c-.52-.02-.93-.45-.91-.97,0-.01,0-.02,0-.03h0c-.03-.52.36-.97.88-1,.01,0,.02,0,.03,0h12.49c.51.02.92.44.9.96,0,.01,0,.03,0,.04h0c.04.51-.34.96-.86,1-.01,0-.03,0-.04,0Z" fill="#e0e0e0"/>
      <path d="m254.9,76.76h-8.37c-.52-.02-.93-.45-.91-.97,0-.01,0-.02,0-.03h0c-.03-.52.36-.97.88-1,.01,0,.02,0,.03,0h8.37c.52.02.93.45.91.97,0,.01,0,.02,0,.03h0c.03.52-.36.97-.88,1-.01,0-.02,0-.03,0Z" fill="#455b64"/>
      <path d="m265.38,81.75h-19.15c-.52-.02-.93-.45-.91-.97,0-.01,0-.02,0-.03h0c-.01-.51.4-.94.91-.95h19.15c.51.01.92.44.91.95h0c.03.52-.36.97-.88,1-.01,0-.02,0-.03,0Z" fill="#263238"/>
      <path d="m265.75,87.41h-18.76c-.51-.02-.92-.44-.9-.96,0-.01,0-.03,0-.04h0c-.04-.51.34-.96.86-1,.01,0,.03,0,.04,0h18.76c.52.02.93.45.91.97,0,.01,0,.02,0,.03h0c.03.52-.36.97-.88,1-.01,0-.02,0-.03,0Z" fill="#e0e0e0"/>
      <path d="m264.05,97.44h-18.76c-.51-.01-.92-.44-.91-.95h0c-.03-.52.36-.97.88-1,.01,0,.02,0,.03,0h18.76c.51.02.92.44.9.96,0,.01,0,.03,0,.04h0c.02.51-.38.93-.89.95,0,0,0,0-.01,0Z" fill="#455b64"/>
      <path d="m240.52,170.06h-4.8c-.52-.02-.93-.45-.91-.97,0-.01,0-.02,0-.03h0c-.04-.51.34-.96.86-1,.02,0,.04,0,.05,0h4.8c.51,0,.92.43.91.95,0,.02,0,.04,0,.05h0c.03.52-.36.97-.88,1-.01,0-.02,0-.03,0Z" fill="#263238"/>
      <path d="m240.52,175.24h-4.8c-.52-.02-.93-.45-.91-.97,0-.01,0-.02,0-.03h0c-.04-.51.34-.96.86-1,.02,0,.04,0,.05,0h4.8c.51,0,.92.43.91.95,0,.02,0,.04,0,.05h0c.03.52-.36.97-.88,1-.01,0-.02,0-.03,0Z" fill="#263238"/>
      <path d="m264.05,170.06h-18.76c-.52-.02-.93-.45-.91-.97,0-.01,0-.02,0-.03h0c-.04-.51.34-.96.86-1,.02,0,.04,0,.05,0h18.76c.51,0,.91.43.9.94,0,.02,0,.04,0,.06h0c.04.51-.34.96-.86,1-.01,0-.03,0-.04,0Z" fill="#455b64"/>
      <path d="m216.52,93.58h-5c-.51-.01-.92-.44-.91-.95h0c-.03-.52.36-.97.88-1,.01,0,.02,0,.03,0h5c.52.02.93.45.91.97,0,.01,0,.02,0,.03h0c.01.51-.4.94-.91.95h0Z" fill="#e0e0e0"/>
      <path d="m216.52,98.9h-5c-.52-.02-.93-.45-.91-.97,0-.01,0-.02,0-.03h0c-.03-.52.36-.97.88-1,.01,0,.02,0,.03,0h5c.52.02.93.45.91.97,0,.01,0,.02,0,.03h0c.03.52-.36.97-.88,1-.01,0-.02,0-.03,0Z" fill="#e0e0e0"/>
      <path d="m216.52,104.22h-5c-.52-.02-.93-.45-.91-.97,0-.01,0-.02,0-.03h0c-.04-.51.34-.96.86-1,.02,0,.04,0,.05,0h5c.51,0,.92.43.91.95,0,.02,0,.04,0,.05h0c.03.52-.36.97-.88,1-.01,0-.02,0-.03,0Z" fill="#e0e0e0"/>
      <path d="m216.52,88.27h-5c-.52-.02-.93-.45-.91-.97,0-.01,0-.02,0-.03h0c-.01-.51.4-.94.91-.95h5c.51.01.92.44.91.95h0c.03.52-.36.97-.88,1-.01,0-.02,0-.03,0Z" fill="#e0e0e0"/>
      <path d="m216.52,82.95h-5c-.51-.02-.92-.44-.91-.95h0c-.03-.52.36-.97.88-1,.01,0,.02,0,.03,0h5c.52.02.93.45.91.97,0,.01,0,.02,0,.03h0c0,.51-.4.93-.91.95Z" fill="#e0e0e0"/>
      <path d="m216.52,77.65h-5c-.52-.02-.93-.45-.91-.97,0-.01,0-.02,0-.03h0c-.03-.52.36-.97.88-1,.01,0,.02,0,.03,0h5c.52.02.93.45.91.97,0,.01,0,.02,0,.03h0c.03.52-.36.97-.88,1-.01,0-.02,0-.03,0Z" fill="#e0e0e0"/>
      <path d="m215.02,109.53h-3.51c-.51,0-.92-.43-.91-.95,0-.02,0-.04,0-.05h0c-.03-.52.36-.97.88-1,.01,0,.02,0,.03,0h3.51c.52.02.93.45.91.97,0,.01,0,.02,0,.03h0c.04.51-.34.96-.86,1-.02,0-.04,0-.05,0Z" fill="#e0e0e0"/>
      <path d="m228.93,75.81c-.03.52-.48.91-1,.88-.52-.03-.91-.48-.88-1,.03-.49.44-.88.94-.88.53.03.94.47.94,1Z" fill="#455b64"/>
      <path d="m228.93,80.79c-.03.52-.48.91-1,.88-.52-.03-.91-.48-.88-1,.03-.49.44-.88.94-.88.53.03.94.47.94,1Z" fill="#455b64"/>
      <path d="m228.93,85.98c-.03.52-.48.91-1,.88-.52-.03-.91-.48-.88-1,.03-.49.44-.88.94-.88.53.03.94.47.94,1Z" fill="#455b64"/>
      <path d="m228.93,91.16c-.03.52-.48.91-1,.88-.52-.03-.91-.48-.88-1,.03-.49.44-.88.94-.88.53.03.94.47.94,1Z" fill="#455b64"/>
      <path d="m228.93,96.34c-.03.52-.48.91-1,.88-.52-.03-.91-.48-.88-1,.03-.49.44-.88.94-.88.53.03.94.47.94,1Z" fill="#455b64"/>
      <path d="m228.93,101.53c-.03.52-.48.91-1,.88-.52-.03-.91-.48-.88-1,.03-.49.44-.88.94-.88.53.03.94.47.94,1Z" fill="#455b64"/>
      <path d="m228.93,106.71c-.03.52-.48.91-1,.88-.52-.03-.91-.48-.88-1,.03-.49.44-.88.94-.88.53.03.94.47.94,1Z" fill="#455b64"/>
      <path d="m228.93,111.89c-.03.52-.48.91-1,.88-.52-.03-.91-.48-.88-1,.03-.49.44-.88.94-.88.53.03.94.47.94,1Z" fill="#455b64"/>
      <path d="m228.93,117.08c-.03.52-.48.91-1,.88-.52-.03-.91-.48-.88-1,.03-.49.44-.88.94-.88.53.03.94.47.94,1Z" fill="#455b64"/>
      <path d="m228.93,122.26c-.03.52-.48.91-1,.88-.52-.03-.91-.48-.88-1,.03-.49.44-.88.94-.88.53.03.94.47.94,1Z" fill="#455b64"/>
      <path d="m228.93,127.44c-.03.52-.48.91-1,.88-.52-.03-.91-.48-.88-1,.03-.49.44-.88.94-.88.53.03.94.47.94,1Z" fill="#455b64"/>
      <path d="m228.93,132.65c-.03.52-.48.91-1,.88-.52-.03-.91-.48-.88-1,.03-.49.44-.88.94-.88.53.03.94.47.94,1Z" fill="#455b64"/>
      <path d="m244.51,139.65h-8.8c-.52-.02-.93-.45-.91-.97,0-.01,0-.02,0-.03h0c-.03-.52.36-.97.88-1,.01,0,.02,0,.03,0h8.8c.52.02.93.45.91.97,0,.01,0,.02,0,.03h0c.03.52-.36.97-.88,1-.01,0-.02,0-.03,0Z" fill="#199ed9"/>
      <rect x="238.76" y="142.06" width="7.28" height="1.91" rx=".95" ry=".95" fill="#f9bb1e"/>
      <path d="m241.86,152.34h-5.42c-.51,0-.92-.43-.91-.95,0-.02,0-.04,0-.05h0c-.03-.52.36-.97.88-1,.01,0,.02,0,.03,0h5.47c.52.02.93.45.91.97,0,.01,0,.02,0,.03h0c.04.51-.34.96-.86,1-.03,0-.07,0-.1,0Z" fill="#199ed9"/>
      <path d="m241.86,163.22h-5.42c-.52-.02-.93-.45-.91-.97,0-.01,0-.02,0-.03h0c0-.51.4-.93.91-.95h5.47c.51.02.92.44.91.95h0c.03.52-.36.97-.88,1-.03,0-.05,0-.08,0Z" fill="#cb1f46"/>
      <path d="m255.3,163.22h-9.58c-.51,0-.92-.43-.91-.95,0-.02,0-.04,0-.05h0c-.01-.51.4-.94.91-.95h9.58c.51.02.92.44.91.95h0c.03.52-.36.97-.88,1-.01,0-.02,0-.03,0Z" fill="#455b64"/>
      <path d="m267.44,152.55h-9.58c-.51,0-.92-.43-.91-.95,0-.02,0-.04,0-.05h0c-.04-.51.34-.96.86-1,.02,0,.04,0,.05,0h9.58c.52.02.93.45.91.97,0,.01,0,.02,0,.03h0c.03.52-.36.97-.88,1-.01,0-.02,0-.03,0Z" fill="#455b64"/>
      <path d="m255.94,156.65h-9.58c-.51,0-.92-.42-.91-.93,0-.02,0-.05,0-.07h0c-.04-.51.34-.96.86-1,.02,0,.04,0,.05,0h9.58c.52.02.93.45.91.97,0,.01,0,.02,0,.03h0c.04.51-.34.96-.86,1-.02,0-.04,0-.05,0Z" fill="#455b64"/>
      <path d="m262.01,163.22h-1.38c-.52-.02-.93-.45-.91-.97,0-.01,0-.02,0-.03h0c0-.51.4-.93.91-.95h1.38c.51.01.92.44.91.95h0c.04.51-.34.96-.86,1-.02,0-.04,0-.05,0Z" fill="#e0e0e0"/>
      <path d="m254.73,152.34h-8.1c-.51,0-.92-.43-.91-.95,0-.02,0-.04,0-.05h0c-.03-.52.36-.97.88-1,.01,0,.02,0,.03,0h8.1c.52.02.93.45.91.97,0,.01,0,.02,0,.03h0c.04.51-.34.96-.86,1-.02,0-.04,0-.05,0Z" fill="#e0e0e0"/>
      <rect x="248.42" y="142.06" width="8.66" height="1.91" rx=".95" ry=".95" fill="#455b64"/>
      <rect x="259.48" y="142.06" width="3.52" height="1.91" rx=".95" ry=".95" fill="#e0e0e0"/>
      <path d="m250.44,139.65h-2c-.52-.02-.93-.45-.91-.97,0-.01,0-.02,0-.03h0c-.03-.52.36-.97.88-1,.01,0,.02,0,.03,0h2c.52.02.93.45.91.97,0,.01,0,.02,0,.03h0c.03.52-.36.97-.88,1-.01,0-.02,0-.03,0Z" fill="#263238"/>
      <path d="m267.09,139.65h-12.49c-.52-.02-.93-.45-.91-.97,0-.01,0-.02,0-.03h0c-.03-.52.36-.97.88-1,.01,0,.02,0,.03,0h12.49c.51.02.92.44.9.96,0,.01,0,.03,0,.04h0c.04.51-.34.96-.86,1-.01,0-.03,0-.04,0Z" fill="#e0e0e0"/>
      <path d="m228.93,137.65c-.03.52-.48.91-1,.88-.52-.03-.91-.48-.88-1,.03-.49.44-.88.94-.88.53.03.94.47.94,1Z" fill="#455b64"/>
      <path d="m228.93,142.84c-.03.52-.48.91-1,.88-.52-.03-.91-.48-.88-1,.03-.49.44-.88.94-.88.53.03.94.47.94,1Z" fill="#455b64"/>
      <path d="m228.93,148.02c-.03.52-.48.91-1,.88-.52-.03-.91-.48-.88-1,.03-.49.44-.88.94-.88.53.03.94.47.94,1Z" fill="#455b64"/>
      <path d="m228.93,153.2c-.03.52-.48.91-1,.88-.52-.03-.91-.48-.88-1,.03-.49.44-.88.94-.88.53.03.94.47.94,1Z" fill="#455b64"/>
      <path d="m228.93,158.39c-.03.52-.48.91-1,.88-.52-.03-.91-.48-.88-1,.03-.49.44-.88.94-.88.53.03.94.47.94,1Z" fill="#455b64"/>
      <path d="m228.93,163.57c-.03.52-.48.91-1,.88-.52-.03-.91-.48-.88-1,.03-.49.44-.88.94-.88.53.03.94.47.94,1Z" fill="#455b64"/>
      <path d="m228.93,169.1c-.03.52-.48.91-1,.88-.52-.03-.91-.48-.88-1,.03-.49.44-.88.94-.88.53.03.94.47.94,1Z" fill="#455b64"/>
      <path d="m228.93,174.65c-.03.52-.48.91-1,.88-.52-.03-.91-.48-.88-1,.03-.49.44-.88.94-.88.53.03.94.47.94,1Z" fill="#455b64"/>
      <path d="m263.02,50.52h-9.58c-1.3.02-2.35,1.09-2.33,2.39,0,0,0,0,0,.01v1.73c.02,1.31-1.01,2.38-2.32,2.41h-18.66c-1.31-.03-2.34-1.1-2.32-2.41v-1.72c.02-1.31-1.02-2.39-2.33-2.41h-11.74c-4.14-.02-7.52,3.33-7.54,7.47v10.66h64.33v-10.66c-.01-4.14-3.37-7.48-7.51-7.47Z" fill="#f5f5f5"/>
      <circle cx="210.5" cy="64.41" r="1.19" fill="#e0e0e0"/>
      <path d="m215.35,64.41c0,.66-.52,1.19-1.18,1.2-.66,0-1.19-.52-1.2-1.18,0-.66.52-1.19,1.18-1.2,0,0,0,0,.01,0,.65,0,1.18.53,1.19,1.18Z" fill="#e0e0e0"/>
      <path d="m219.01,64.41c0,.66-.52,1.19-1.18,1.2-.66,0-1.19-.52-1.2-1.18,0-.66.52-1.19,1.18-1.2,0,0,.01,0,.02,0,.65,0,1.18.53,1.18,1.18Z" fill="#e0e0e0"/>
      <path d="m238.78,60.29c.24-.15.49-.26.76-.33l.16-.75h1.27l.18.75c.27.06.53.16.77.3l.64-.42.91.88-.4.66c.15.23.26.48.33.75l.75.16v1.27l-.74.18c-.07.27-.17.52-.3.77l.42.64-.88.91-.66-.4c-.23.15-.49.26-.76.33l-.15.75h-1.27l-.18-.74c-.27-.07-.53-.17-.77-.3l-.64.42-.91-.88.39-.66c-.14-.24-.25-.49-.32-.76l-.75-.15v-1.27l.75-.18c.06-.27.16-.53.3-.77l-.42-.64.88-.91.65.4h-.01Zm.68,1.68c-.53.53-.53,1.39,0,1.92s1.39.53,1.92,0c.53-.53.53-1.39,0-1.92,0,0,0,0,0,0-.53-.54-1.4-.54-1.94,0,0,0,0,0,0,0h.02Z" fill="#e0e0e0"/>
      <rect x="17.42" y="43.96" width="40.46" height="40.46" rx="9.87" ry="9.87" fill="#f9bb1e"/>
      <path d="m30.26,59.1c.71-.43,1.47-.77,2.27-1l.47-2.24,3.79-.07.54,2.22c.8.2,1.58.51,2.3.91l1.92-1.26,2.73,2.64-1.19,2c.43.71.77,1.47,1,2.27l2.25.47.06,3.79-2.22.54c-.2.8-.51,1.58-.91,2.3l1.26,1.92-2.63,2.73-2-1.19c-.71.43-1.47.77-2.27,1l-.47,2.25-3.79.06-.54-2.22c-.8-.2-1.58-.51-2.3-.91l-1.92,1.26-2.73-2.63,1.19-2c-.43-.71-.77-1.47-1-2.27l-2.25-.47-.06-3.79,2.22-.54c.2-.8.51-1.58.91-2.3l-1.26-1.92,2.64-2.72,2,1.18h-.01Zm2,5c-1.56,1.62-1.52,4.19.09,5.76s4.19,1.52,5.76-.1,1.52-4.19-.09-5.76c0,0,0,0,0,0-1.63-1.54-4.19-1.47-5.73.15l-.02-.05Z" fill="#fff"/>
      <path d="m44.37,51.95c.21-.24.46-.45.73-.62l-.08-.89,1.41-.46.46.77c.33-.03.67,0,1,.07l.57-.68,1.32.67-.22.86c.24.22.45.47.62.74l.89-.08.46,1.4-.77.46c.03.33,0,.67-.07,1l.69.57-.68,1.32-.86-.22c-.22.24-.46.46-.74.63l.09.89-1.41.46-.46-.77c-.34.02-.67,0-1-.08l-.57.69-1.32-.67.22-.87c-.24-.22-.45-.46-.63-.73l-.89.08-.46-1.41.77-.45c-.02-.34.01-.67.08-1l-.69-.57.67-1.32.87.22h0Zm1.33,1.66c-.4.78-.09,1.74.7,2.14.78.4,1.74.09,2.14-.7.4-.78.09-1.74-.7-2.14,0,0,0,0,0,0-.78-.39-1.73-.07-2.12.71,0,0,0,.02-.01.03v-.04Z" fill="#fff"/>
      <polygon points="225.57 31.01 236.37 45.7 248 30.99 225.57 31.01" fill="#199ed9"/>
      <path d="m242.32,33.5h-11.08v-15.85c0-3.3-1.18-4.41-1.57-4.77-1.66-1.56-4.81-2-7.21-1.82h-.55c-3.91,0-6.6,1-8,3.11-.69,1.05-1.1,2.26-1.19,3.51v-.03l-11.08.09c.1-4.56,1.93-8.91,5.1-12.18C210.39,1.9,215.47.04,221.85.04c3-.18,10.28,0,15.43,4.8,2.3,2.17,5.05,6.16,5.05,12.85v15.81Z" fill="#199ed9"/>
      <path d="m69.97,68.13l2.16,17.47c.31,3,.79,7.42,5.49,6.72h0c4-.92,4.68-4.92,4.39-7.71-.14-1.32-.26-2.43-.26-2.57s4.43-.88,4.3-5.34c-.07-2.16-.56-6.6-1.06-10.6-.53-4.3-4.28-7.47-8.61-7.29h-.43c-4.63.49-6.58,4.71-5.98,9.32Z" fill="#fcceb4"/>
      <path d="m81.76,82.04c-2.06.09-4.1-.43-5.88-1.47,0,0,1.55,3.2,6,2.61l-.12-1.14Z" fill="#f89b67"/>
      <path d="m77.94,69.03c-.43-.14-.87-.26-1.31-.35-.74-.11-1.32,0-1.39,0s.07-.1.32-.17c.37-.06.76-.06,1.13,0,.35.05.69.17,1,.34.24.06.3.16.25.18Z" fill="#263238"/>
      <path d="m77.81,70.65c.01.33-.23.6-.56.63-.31.04-.6-.18-.64-.49,0,0,0-.02,0-.03-.03-.33.21-.62.54-.65s.62.21.66.54Z" fill="#263238"/>
      <path d="m80.21,73.71c.36-.13.73-.21,1.11-.25.17,0,.34-.06.36-.18.01-.18-.04-.37-.14-.52l-.57-1.31c-.53-1.11-.97-2.26-1.31-3.44.61,1.07,1.14,2.18,1.58,3.33.19.46.38.9.56,1.32.11.21.16.45.12.68-.05.12-.15.22-.28.27-.1.01-.2.01-.3,0-.37.08-.75.12-1.13.1Z" fill="#263238"/>
      <path d="m77.12,66.03c0,.17-.66.11-1.36.23s-1.27.35-1.38.2,0-.24.28-.41c.29-.22.64-.37,1-.42.36-.06.73-.03,1.08.09.27.1.4.22.38.31Z" fill="#263238"/>
      <path d="m84.32,66.58c-.07.15-.66.06-1.36.12s-1.28.22-1.37.09.06-.2.3-.33c.31-.17.65-.27,1-.29.36-.04.72,0,1.06.13.27.1.39.21.37.28Z" fill="#263238"/>
      <path d="m70.49,71.48c-.09,0-3.28-.73-3,2.47s3.46,2.2,3.45,2.11-.45-4.58-.45-4.58Z" fill="#fcceb4"/>
      <path d="m69.89,74.95s0,.05-.14.1c-.13.07-.28.09-.42.05-.45-.22-.74-.67-.76-1.17-.04-.27,0-.55.08-.81.04-.21.18-.38.37-.47.13-.05.27,0,.34.12.06.08,0,.15.06.15s.06-.06,0-.19c-.02-.07-.07-.14-.14-.18-.1-.05-.22-.05-.32,0-.26.08-.46.29-.53.55-.11.29-.14.6-.1.91.03.6.43,1.11,1,1.29.18.03.36-.01.5-.13.06-.14.07-.21.06-.22Z" fill="#f89b67"/>
      <path d="m80.57,75.81c0-.09-.62,0-1.22-.38-.26-.16-.49-.36-.7-.58-.16-.17-.28-.27-.31-.25s0,.16.18.36c.19.27.43.51.71.68.29.17.62.26.95.25.26,0,.39-.06.39-.08Z" fill="#263238"/>
      <path d="m84.44,68.11c-.06.08-.61.09-1.3.39s-1.11.69-1.21.68,0-.12.2-.3c.29-.26.63-.46,1-.6.32-.14.65-.23,1-.26.19,0,.31.05.31.09Z" fill="#263238"/>
      <path d="m83.92,70.11c.02.33-.22.61-.55.63,0,0,0,0,0,0-.32.04-.61-.18-.65-.5,0,0,0,0,0,0-.01-.33.23-.61.56-.64.31-.04.6.18.64.49,0,0,0,.02,0,.03Z" fill="#263238"/>
      <path d="m90.52,61.44c-.07-.17-.21-.31-.38-.38-.38-.12-.77-.14-1.16-.06-.96.1-1.93-.03-2.84-.37.28-.18.53-.4.74-.66.49-.55.61-1.33.33-2-.04-.13-.14-.23-.27-.27-.2,0-.35.18-.47.35-.3.52-.86.84-1.46.83-.41.02-.81-.05-1.19-.21h0l-.52-.41h0c-.99-.88-2.14-1.56-3.39-2-1.83-.43-3.74-.37-5.53.2-1.55.55-2.63,1.95-2.76,3.59-1.01-.56-2.25-.53-3.24.08h0c-1.07.68-1.76,1.83-1.85,3.1v.2c-.32.68-.8,1.27-1.4,1.72-.1.08-.22.17-.22.31s.12.22.23.28c.31.17.65.27,1,.29-.08.3-.18.59-.3.87-.1.23-.23.52-.08.74.13.16.34.23.54.17.19-.07.36-.18.51-.31-.09.32-.18.65-.28,1,.43.02.86-.06,1.26-.23.35,1.09.75,2.15,1.2,3.2.49-.06.94-.23,1.28,0s.71,1,1.36.65c.33-.18.57-.94.64-1.31.5-2.44.46-4.96-.1-7.39.43-.57.96-1.06,1.57-1.43h0c1.19-.57,2.54-1.16,3.78-.71.9.48,1.71,1.12,2.37,1.9,1.35,1.25,3.17,1.87,5,1.72.33,1.32.38,3,.59,4.26l.92-2.14h0c.07-.15.12-.31.17-.47h0c.08-.25.17-.5.27-.75h0c.37.22.85.1,1.07-.26.17-.29.14-.65-.07-.91-.12-.13-.26-.24-.42-.33.35.26.81.32,1.21.16.38-.18.61-.58.57-1-.07-.29-.28-.52-.57-.6.55-.02,1.09-.21,1.54-.53.27-.19.5-.51.35-.89Z" fill="#263238"/>
      <path d="m73.03,60.46c-.14.14-.28.3-.4.46-.3.46-.47.99-.5,1.54-.03.38-.03.76,0,1.14.05.41.13.84.22,1.3.09.48.16.96.2,1.44.01.26.01.52,0,.78,0,.28-.09.54-.23.78-.14.19-.36.3-.6.28-.22-.01-.43-.1-.6-.25-.28-.3-.47-.68-.55-1.08h.09c-.09.35-.24.69-.43,1-.19.29-.48.49-.81.57-.15.05-.31.05-.46,0-.14-.05-.26-.14-.35-.26-.08-.12-.13-.25-.14-.39,0-.13.03-.26.11-.36h.05c-.23.33-.52.61-.87.82-.09.06-.18.11-.28.15h-.1.09c.06,0,.16-.09.27-.17.33-.21.62-.5.83-.83h.06c-.14.2-.14.46,0,.66.08.11.19.19.31.24.14.04.29.04.43,0,.31-.08.57-.27.74-.54.19-.31.33-.65.42-1v-.15.15c.09.37.27.72.53,1,.15.13.34.22.54.23.2,0,.39-.08.51-.24.13-.22.2-.47.2-.73.02-.25.02-.51,0-.76-.04-.48-.11-.96-.2-1.44-.08-.45-.16-.89-.2-1.3-.04-.38-.04-.77,0-1.15.04-.56.23-1.1.55-1.57.17-.14.36-.25.57-.32Z" fill="#455b64"/>
      <path d="m87.21,63.18h0l-.1.09c-.05.05-.11.11-.17.15l-.26.17c-.56.34-1.2.53-1.85.56-.97.05-1.94-.19-2.78-.68-1.02-.6-1.9-1.41-2.6-2.37-.39-.5-.71-1-1.06-1.49-.32-.47-.71-.88-1.15-1.24-.39-.32-.86-.53-1.36-.62-.44-.07-.88,0-1.28.19-.33.16-.62.38-.86.66-.18.21-.32.45-.42.71-.08.22-.13.45-.16.69v-.19c.02-.18.05-.35.11-.52.1-.26.24-.51.41-.73.24-.29.54-.53.88-.69.2-.1.4-.16.62-.2.23-.04.47-.04.7,0,.52.09,1,.31,1.41.64.45.36.84.78,1.17,1.25.35.47.68,1,1.06,1.48.69.95,1.56,1.75,2.56,2.36.83.48,1.78.72,2.74.69.64-.03,1.27-.21,1.83-.53.37-.21.55-.4.56-.38Z" fill="#455b64"/>
      <path d="m87.44,61.19l-.15.13c-.14.11-.29.21-.44.29-.23.13-.46.24-.71.33-.31.11-.62.19-.94.24-.33.03-.67.03-1,0-.26-.01-.52-.05-.78-.11-.17-.04-.34-.09-.5-.15-.12,0-.18-.07-.18-.08s.26.08.7.16c.25.04.51.07.77.09.31,0,.63-.02.94-.06.31-.05.62-.12.92-.22.25-.08.49-.19.72-.31.37-.16.59-.33.65-.31Z" fill="#455b64"/>
      <path d="m84.3,91.52l-27.88.35c-1.38.01-2.49,1.13-2.5,2.51l-.39,49.22,37.57.52-4.24-50.28c-.11-1.32-1.23-2.34-2.56-2.32Z" fill="#455b64"/>
      <path d="m116.3,175.58l-.16,9.51s9.62,3.35,9.76,5.11l-18.45.36-.36-14.82,9.21-.16Z" fill="#199ed9"/>
      <path d="m110.44,184.4c-.37.12-.58.49-.51.87.1.37.48.6.86.51.39-.13.62-.53.53-.93-.15-.37-.57-.56-.95-.42" fill="#e0e0e0"/>
      <path d="m107.44,190.56l-.06-1.5,17.76.21s.83.35.75.93l-18.45.36Z" fill="#e0e0e0"/>
      <path d="m116.44,184.99c0,.09-.45.14-.89.44s-.66.68-.75.64,0-.55.58-.91,1.06-.26,1.06-.17Z" fill="#263238"/>
      <path d="m118.44,185.75c0,.09-.36.25-.66.63s-.38.8-.47.79-.16-.51.22-1,.91-.52.91-.42Z" fill="#263238"/>
      <path d="m119.54,188.04c-.09,0-.22-.42,0-.92s.64-.7.68-.63-.22.34-.39.76-.2.78-.29.79Z" fill="#263238"/>
      <path d="m116.24,182.82c0,.08-.46,0-1,0s-.91.21-1,.14.32-.41.92-.45,1.12.24,1.08.31Z" fill="#263238"/>
      <path d="m88.59,126.71s5.46.82,11.09,1.87c6.74,1.25,13.92,2.82,14.88,3.57,1.77,1.39,2.15,5.17,2.91,9.84s.92,39.37.92,39.37l-12.53.37-2.47-36.42h-22.06c-3,0-11.2.32-14.3-1.31-4.88-2.57-4-12.36-4-12.36,1.21-1,22.07-7.22,22.07-7.22l3.49,2.29Z" fill="#363535"/>
      <path d="m119.44,152.75l1.8,9.58s10.34,1.39,10.85,3.13l-18.45,4.19-3.43-14.82,9.23-2.08Z" fill="#199ed9"/>
      <path d="m115.35,162.82c-.35.2-.49.63-.32,1,.18.37.63.52.99.33,0,0,0,0,0,0,.34-.21.49-.63.34-1-.22-.32-.66-.42-1-.23" fill="#e0e0e0"/>
      <path d="m113.71,170.01l-.33-1.44,17.77-3.89s.9.18.94.78l-18.38,4.55Z" fill="#e0e0e0"/>
      <path d="m121.52,162.17c0,.09-.43.23-.8.62s-.53.82-.62.81-.08-.57.39-1,1.03-.52,1.03-.43Z" fill="#263238"/>
      <path d="m123.63,162.53c0,.09-.31.33-.53.78s-.22.87-.31.89-.26-.48,0-1,.82-.75.84-.67Z" fill="#263238"/>
      <path d="m125.26,164.65c-.08,0-.31-.38-.19-.93s.5-.83.55-.77-.14.39-.23.84-.05.78-.13.86Z" fill="#263238"/>
      <path d="m120.86,160.03c0,.09-.46.06-1,.21s-.86.4-.93.33.25-.47.84-.64,1.12.02,1.09.1Z" fill="#263238"/>
      <path d="m110.44,119.65s4.31-.31,5.24,3.39c1.28,5.12,6.95,35.72,6.95,35.72l-12.76,2.46-6.72-29.86-12.08-2-5-2c2.46-2.27,5.42-3.93,8.64-4.85,4.02-1.27,15.73-2.86,15.73-2.86Z" fill="#363535"/>
      <path d="m103.22,132.09c.43-.68.94-1.3,1.52-1.85.61-.49,1.28-.91,2-1.24-.82.14-1.58.52-2.18,1.09-.44.38-.81.83-1.1,1.34-.12.2-.2.43-.24.66Z" fill="#455b64"/>
      <path d="m106,126.03s-.09,0-.24.16c-.2.16-.39.33-.57.52-1.18,1.26-1.89,2.89-2,4.61-.02.26-.02.51,0,.77,0,.19,0,.29.05.28s0-.4.09-1c.09-.83.31-1.64.64-2.41.34-.77.79-1.48,1.34-2.11.41-.53.71-.79.69-.82Z" fill="#455b64"/>
      <path d="m116.29,126.03v.16l.1.46.37,1.81c.31,1.59.77,3.89,1.35,6.79,1.14,5.8,2.74,14,4.6,23.45v.09h-.09l-12.76,2.47h-.1v-.09c-.06-.3-.14-.62-.21-.94l-6.49-28.93.07.06-12.69-2.1-3.47-.59-.91-.16-.3-.06h.31l.91.14,3.48.54,12.69,2h.05v.05c1.76,7.8,4,17.91,6.53,28.92.07.32.15.64.21.94l-.12-.08,12.76-2.46-.08.12-4.53-23.47c-.56-2.9-1-5.2-1.3-6.79-.15-.79-.26-1.4-.34-1.82l-.08-.47s.03-.03.04-.04Z" fill="#455b64"/>
      <path d="m88.55,87.86s2.36,1.57,3.41,6.21c.83,3.72,2.16,10.78,2.16,10.78l5,3.26c.5.31.66.96.36,1.47-1.16,2.07-4.09,7-6,7.54-2.43.75-4.77-1.16-4.77-1.16l-.16-28.1Z" fill="#cb1f46"/>
      <path d="m88.55,87.86l-5.71-2.3-1-1.9-.89,3.94-9.28-5.53-.66,2.31s-8.85,3.71-10,4.76c-1.41,1.29,2.45,22.73,2.45,22.73,0,0-1.4,17.21-.89,20.64,3.73-1.05,7.52-1.89,11.35-2.49,3.85-.62,7.65-1.51,11.37-2.68l5.62-3.47-2.36-36.01Z" fill="#cb1f46"/>
      <path d="m89.44,97.2c.01.1.01.19,0,.29v.82c0,.74.08,1.78.13,3,.12,2.56.3,6.1.53,10,.23,3.9.46,7.45.65,10,.1,1.26.18,2.29.24,3,0,.34.05.61.07.82s0,.29,0,.29c-.01-.09-.01-.19,0-.28,0-.21-.07-.48-.11-.82-.08-.72-.19-1.75-.3-3-.23-2.55-.49-6.09-.72-10s-.38-7.46-.46-10c0-1.29-.06-2.33-.07-3v-.83c0-.1.02-.2.04-.29Z" fill="#263238"/>
      <path d="m66.11,95.45s0-.46-.08-1.18c-.26-1.91-1.46-3.56-3.19-4.4-.65-.33-1.1-.42-1.09-.46.11-.02.21-.02.32,0,.29.06.57.15.84.27.89.4,1.67,1.03,2.24,1.82.57.79.91,1.73,1,2.7.03.29.03.59,0,.88,0,.26-.02.37-.04.37Z" fill="#263238"/>
      <path d="m90.44,117.92l-2.72-2.76-5.59-1.36s-5.13,1.47-5.25,1.47-4.53-1.47-4.53-1.47l-1.45,5.66,7.82.51,8.92-.34s.46-.42.19-.7,1.49.48,1.7.49.61.16.89-.16c.31-.39.32-.94.02-1.34Z" fill="#fcceb4"/>
      <path d="m60.97,89.14s-2,1.25-3,5.11-4,19.84-3.17,22.21c.83,2.37,20.22,5.4,20.22,5.4l2.21-7-13.43-4.44s2-7.69,2.07-10.8-4.9-10.48-4.9-10.48Z" fill="#cb1f46"/>
      <path d="m87.79,118.93c-.3-.05-.6-.13-.89-.24-.54-.17-1.29-.39-2.13-.59s-1.61-.36-2.17-.47c-.31-.03-.61-.1-.9-.2.31,0,.62.02.92.07.74.09,1.48.23,2.2.41.72.18,1.43.4,2.13.65.29.09.57.22.84.37Z" fill="#f89b67"/>
      <path d="m90.44,117.92c-.42-.1-.83-.23-1.24-.38-.76-.25-1.82-.55-3-.86-.97-.34-1.98-.58-3-.72-.43-.03-.86-.03-1.29,0,.11-.06.22-.09.34-.11.33-.07.66-.1,1-.08,1.05.11,2.08.33,3.08.67,1.18.32,2.25.64,3,.92.38.14.68.26.88.35.09.06.16.13.23.21Z" fill="#f89b67"/>
      <path d="m59.97,111.86c.46-.58,1.08-1,1.78-1.22.68-.29,1.43-.38,2.15-.24-.71.07-1.4.22-2.08.43-.65.28-1.27.62-1.85,1.03Z" fill="#263238"/>
      <path d="m57.83,118.27h.08l.25.07.94.24c.82.2,2,.47,3.56.78,3.05.63,7.37,1.46,12.41,2.39l-.11.06,2.2-7,.07.13-.76-.25-12.67-4.21h-.07v-.07c.7-3.65,1.27-6.69,1.68-8.84.2-1,.36-1.88.48-2.46l.13-.65c0-.08.03-.15.06-.22v.22l-.11.66c-.1.58-.25,1.41-.43,2.47l-1.6,8.85-.06-.1,12.67,4.18.76.26h.1v.09c-.78,2.46-1.53,4.83-2.21,7v.08h-.08c-5-.94-9.36-1.8-12.41-2.46-1.52-.33-2.73-.62-3.55-.84-.41-.11-.73-.2-.93-.27l-.24-.08s-.16-.02-.16-.03Z" fill="#263238"/>
      <path d="m95.44,110.85c-.13-.04-.26-.09-.38-.15-.33-.17-.65-.36-.94-.59-.98-.77-1.72-1.81-2.11-3-.23-.64-.33-1.32-.3-2,.02-.59.33-1.13.84-1.43.35-.21.78-.19,1.11.05.23.16.26.32.25.32-.09-.09-.19-.18-.3-.25-.31-.18-.69-.18-1,0-.44.29-.7.78-.7,1.31-.02.65.08,1.3.3,1.92.39,1.14,1.08,2.14,2,2.92.68.63,1.23.86,1.23.9Z" fill="#263238"/>
      <path d="m90.84,107.65c-1.81,2.21-5.06,2.54-7.27.74-2.21-1.81-2.54-5.06-.74-7.27,1.81-2.21,5.06-2.54,7.27-.74,1.89,1.54,2.45,4.2,1.33,6.37-.27.53-.53.9-.59.9Z" fill="#263238"/>
      <path d="m82.89,85.41c.02.33,0,.67-.06,1-.07.6-.18,1.42-.31,2.33l-.07.42-.05.33-.15-.29c-.28-.49-.6-.97-.94-1.42l.15-.05c0,.39-.03.78-.12,1.16-.05-.39-.07-.78-.05-1.17v-.22l.15.17c.38.44.71.92,1,1.42h-.21l.06-.43c.14-.9.27-1.72.38-2.31.04-.32.11-.64.22-.94Z" fill="#263238"/>
      <path d="m81.13,89.09c-.12-.11-.22-.23-.3-.37l-.77-1.09h.13l-.63,2.43v.13l-.11-.07c-.77-.45-1.63-1-2.51-1.52-1.69-1.07-3.19-2.11-4.25-2.88-.53-.39-.95-.71-1.24-.94-.16-.1-.31-.23-.44-.37.17.09.33.19.49.3l1.28.88c1.08.74,2.59,1.75,4.28,2.82.88.56,1.73,1.07,2.49,1.53l-.15.07c.26-.92.49-1.73.69-2.41v-.16l.09.13c.29.45.52.83.71,1.13.09.12.17.25.24.39Z" fill="#263238"/>
      <path d="m83.12,114c0-.08,0-.16,0-.24l-.09-.71c-.08-.62-.17-1.51-.29-2.61-.22-2.21-.5-5.26-.74-8.64s-.4-6.44-.49-8.66c-.05-1.1-.07-2-.09-2.62v-.72c-.01-.08-.01-.17,0-.25v.25l.05.71c0,.65.09,1.54.16,2.63.13,2.21.31,5.27.55,8.65s.5,6.42.68,8.63c.09,1.09.16,2,.22,2.62v.71c.03.08.04.16.04.25Z" fill="#263238"/>
      <path d="m70.98,124.01c0,.05-3.26.1-7.29.1s-7.3,0-7.3-.1,3.26-.1,7.3-.1,7.29.04,7.29.1Z" fill="#263238"/>
      <path d="m64.7,120.24c0,.05-2,.1-4.35.1s-4.35,0-4.35-.1,2-.1,4.35-.1,4.35.04,4.35.1Z" fill="#263238"/>
      <path d="m103.44,103.73l-8.38,14.82-19.37.42-.05.9,19.22-.14h20.91l4.1-7.08,5.07-8.22c.24-.33.16-.79-.17-1.03-.13-.09-.28-.14-.44-.14l-20.25.08c-.27,0-.51.15-.64.39Z" fill="#e0e0e0"/>
      <path d="m109.88,111.37c-.26.39-.15.92.24,1.18s.92.15,1.18-.24c.23-.35.17-.82-.14-1.1-.4-.31-.97-.24-1.28.16,0,0,0,0,0,0Z" fill="#fff"/>
      <path d="m105.6,103.36c.05,0-2,3.7-4.56,8.22s-4.69,8.14-4.74,8.12,2-3.71,4.56-8.23,4.7-8.14,4.74-8.11Z" fill="#263238"/>
      <path d="m93.59,148.95s-9.22,4.21-18.2,4.21c-8.31,0-17.6-4.18-17.6-4.18l35.8-.03Z" fill="#e0e0e0"/>
      <rect x="74.46" y="149.36" width="3.56" height="37.27" fill="#e0e0e0"/>
      <rect x="60.29" y="185.08" width="31.58" height="2.19" fill="#e0e0e0"/>
      <path d="m88.16,188.21c0,1.33,1.08,2.41,2.41,2.41,1.33,0,2.41-1.08,2.41-2.41s-1.08-2.41-2.41-2.41h0c-1.33,0-2.41,1.08-2.41,2.41Z" fill="#263238"/>
      <path d="m74.13,188.21c0,1.33,1.08,2.41,2.41,2.41,1.33,0,2.41-1.08,2.41-2.41s-1.08-2.41-2.41-2.41h0c-1.33,0-2.41,1.08-2.41,2.41Z" fill="#263238"/>
      <path d="m57.87,188.21c0,1.33,1.08,2.41,2.41,2.41,1.33,0,2.41-1.08,2.41-2.41s-1.08-2.41-2.41-2.41h0c-1.33,0-2.41,1.08-2.41,2.41Z" fill="#263238"/>
      <rect x="75.4" y="162.77" width="4.84" height="2" fill="#e0e0e0"/>
      <rect x="79.36" y="161.36" width="1.76" height="4.81" fill="#e0e0e0"/>
      <path d="m57.22,148.95h42.14c1.42.15,2.69-.88,2.84-2.29.01-.13.02-.25.01-.38h0c-.05-1.53-1.32-2.72-2.85-2.68h-45.83v1.89c.07,1.97,1.72,3.52,3.69,3.46Z" fill="#455b64"/>
      <path d="m59.25,123.93c.06,0,.1,4.64.1,10.38s0,10.38-.1,10.38-.1-4.65-.1-10.38.04-10.38.1-10.38Z" fill="#263238"/>
      <path d="m101,142.93c.22.24.41.51.57.8.46.83.7,1.76.68,2.71.05.7-.2,1.38-.69,1.88-.28.28-.62.48-1,.59-.41.09-.84.13-1.26.11h-39.96c-.81.03-1.62,0-2.42-.07-.8-.1-1.55-.45-2.15-1-.56-.58-.95-1.29-1.14-2.07-.19-.76-.26-1.54-.19-2.32h0c.11-11.06.21-20.75.28-27.7,0-3.46.08-6.23.11-8.15v-2.95c0,.06,0,.13,0,.19v10.91c-.06,7-.13,16.64-.21,27.7h0c-.06.75,0,1.5.18,2.23.17.75.55,1.44,1.08,2,.55.52,1.25.87,2,1,.79.07,1.59.09,2.38.07h40c.41.03.83,0,1.23-.09.38-.09.72-.28,1-.55.47-.48.72-1.14.68-1.81.03-.94-.18-1.87-.63-2.69-.11-.21-.24-.42-.39-.61l-.15-.18Z" fill="#263238"/>
      <path d="m54.16,123.87l19.44.23c.28,0,.49.24.48.51,0,.02,0,.04,0,.06l-2.91,24.29h4.56l2.36-26.73c.11-.85-.49-1.64-1.35-1.75-.05,0-.1-.01-.15-.01l-22.72-.14.29,3.54Z" fill="#455b64"/>
      <path d="m54.16,123.87v-.22l-.07-.66c-.05-.6-.13-1.49-.24-2.65h0l18.84.06h3.27c.29-.02.57-.02.86,0,.3.05.58.19.81.4.23.2.4.47.48.77.06.3.06.6,0,.9-.21,2.34-.42,4.78-.64,7.3-.44,5.05-.91,10.43-1.4,16-.1,1.07-.19,2.13-.28,3.18v.1h-4.8v-.12c.76-6.29,1.47-12.22,2.12-17.56.16-1.34.32-2.64.47-3.9.08-.63.15-1.25.23-1.86,0-.31.07-.61.11-.91.06-.22-.07-.45-.29-.52-.03,0-.06-.01-.09-.01l-6.6-.1-9.44-.15h-2.54,2.55l9.44.07,6.56.06c.18,0,.34.1.45.24.1.14.14.33.11.5l-.11.9-.22,1.86c-.15,1.27-.31,2.57-.46,3.9-.64,5.35-1.35,11.27-2.1,17.57l-.11-.13h4.56l-.11.1c.09-1,.19-2.11.28-3.18.5-5.59,1-11,1.42-16,.22-2.52.44-5,.65-7.3.06-.27.06-.56,0-.83-.17-.51-.6-.9-1.13-1-.28-.02-.55-.02-.83,0h-3.28l-18.83-.17h0c.09,1.16.15,2,.2,2.63v.68c.16-.03.16.05.16.05Z" fill="#263238"/>
      <circle cx="73.73" cy="146.63" r=".59" fill="#263238"/>
      <polygon points="33.64 110.48 35.07 119.84 43.34 119.84 45.26 110.61 33.64 110.48" fill="#f9bb1e"/>
      <path d="m44.1,116.48s-2.12.05-4.74.05-4.73,0-4.73-.05,2.12,0,4.73,0,4.74-.03,4.74,0Z" fill="#fafbfb"/>
      <path d="m44.13,116.02h-9.53,4.76c2.63,0,4.77-.03,4.77,0Z" fill="#fafbfb"/>
      <path d="m44.11,115.5s-2.13.05-4.76.05-4.77,0-4.77-.05,2.13,0,4.77,0,4.76-.03,4.76,0Z" fill="#fafbfb"/>
      <path d="m36.01,119.3c-.12-.38-.2-.78-.25-1.18-.09-.39-.14-.79-.16-1.19.12.39.2.78.25,1.18.09.39.14.79.16,1.19Z" fill="#fafbfb"/>
      <path d="m36.57,119.2c-.05-.38-.09-.77-.1-1.15-.04-.38-.06-.77-.05-1.15.09.38.14.76.15,1.15.04.38.04.77,0,1.15Z" fill="#fafbfb"/>
      <path d="m37.6,119.2c-.12-.38-.19-.78-.22-1.18-.05-.39-.07-.79-.06-1.19.08.39.13.78.16,1.18.07.39.11.79.12,1.19Z" fill="#fafbfb"/>
      <path d="m38.32,119.25c-.08-.39-.12-.8-.11-1.2-.04-.4-.04-.8,0-1.2.05.4.07.8.06,1.2.04.4.06.8.05,1.2Z" fill="#fafbfb"/>
      <path d="m39.59,119.2c-.05-.37-.08-.75-.08-1.13-.03-.38-.03-.76,0-1.14.05.37.08.75.08,1.13.04.38.04.76,0,1.14Z" fill="#fafbfb"/>
      <path d="m40.53,119.25c-.04-.39-.04-.78,0-1.17-.03-.39-.03-.79,0-1.18.04.39.04.79,0,1.18.03.39.03.78,0,1.17Z" fill="#fafbfb"/>
      <path d="m41.44,119.13c-.01-.41,0-.82.07-1.23.02-.41.08-.82.17-1.22,0,.41-.02.82-.07,1.23-.03.41-.09.82-.17,1.22Z" fill="#fafbfb"/>
      <path d="m42.52,119.01c.01-.34.06-.67.14-1,.07-.34.17-.68.31-1-.05.34-.12.67-.21,1-.06.34-.14.67-.24,1Z" fill="#fafbfb"/>
      <path d="m32.69,108.65v1.75c0,.38.31.69.69.69h12c.38,0,.69-.31.69-.69v-1.75h-13.38Z" fill="#f9bb1e"/>
      <g fill="none" opacity=".4">
        <polygon points="33.73 111.07 33.83 111.62 44.88 112.41 45.16 111.07 33.73 111.07"/>
      </g>
      <path d="m37.03,108.65c-1.76-1-2.7-3.39-2.77-5.34-.11-1.97.76-3.87,2.33-5.08,1.77-1.13,4.03-1.13,5.8,0,1.74,1.17,2.74,3.15,2.65,5.24-.11,2.08-1.16,3.99-2.84,5.21" fill="#199ed9"/>
      <path d="m39.84,108.81c-.01-.15-.01-.3,0-.45v-1.21c0-1-.07-2.43-.14-4s-.15-3-.22-4c0-.48-.05-.89-.07-1.21-.02-.15-.02-.29,0-.44.03.14.06.29.07.44,0,.28.07.69.12,1.21.09,1,.2,2.43.27,4s.09,3,.08,4v1.21c-.02.15-.06.3-.11.45Z" fill="#263238"/>
      <path d="m34.78,102.84s-.28.06-.63,0-.61-.08-.61-.13c.21-.05.42-.05.63,0,.34.03.62.09.61.13Z" fill="#263238"/>
      <path d="m34.88,101.1s-.26,0-.54-.15-.5-.26-.48-.3.26,0,.54.15.5.26.48.3Z" fill="#263238"/>
      <path d="m35.77,99.81c-.22-.05-.41-.17-.57-.33-.29-.23-.46-.48-.43-.51s.26.16.53.38.5.42.47.46Z" fill="#263238"/>
      <path d="m36.68,98.59s-.18-.19-.29-.46-.19-.5-.14-.52.17.18.29.45.18.51.14.53Z" fill="#263238"/>
      <path d="m38.09,97.72s-.18-.2-.27-.5c-.08-.18-.1-.38-.06-.57,0,0,.12.23.22.52s.15.53.11.55Z" fill="#263238"/>
      <path d="m40.44,96.74s0,.2-.05.42-.18.37-.22.36,0-.2.06-.42.21-.37.21-.36Z" fill="#263238"/>
      <path d="m42.21,97.49s-.09.19-.26.35-.33.26-.36.22.08-.19.25-.34.33-.26.37-.23Z" fill="#263238"/>
      <path d="m43.75,98.49s-.11.18-.31.31-.37.21-.4.17.12-.18.31-.31.37-.21.4-.17Z" fill="#263238"/>
      <path d="m44.84,99.98s-.19.17-.48.29-.53.19-.55.14.2-.17.49-.29.53-.19.54-.14Z" fill="#263238"/>
      <path d="m45.27,101.59s-.21.11-.49.15-.5,0-.51,0,.22-.11.49-.15.51-.04.51,0Z" fill="#263238"/>
      <path d="m45.5,103.59s-.25,0-.52-.14-.48-.25-.46-.29.25,0,.52.14.48.25.46.29Z" fill="#263238"/>
      <path d="m45.3,105.3s-.31,0-.62-.23-.49-.45-.46-.48.26.15.55.34.55.32.53.37Z" fill="#263238"/>
      <path d="m44.44,106.86s-.26-.11-.49-.35-.35-.49-.31-.51.22.16.43.4.37.42.37.46Z" fill="#263238"/>
      <path d="m35.95,107.04s-.22.21-.55.38-.61.27-.63.23.23-.21.55-.38.61-.27.63-.23Z" fill="#263238"/>
      <path d="m35.18,105.65s-.18.17-.44.29-.5.18-.51.14.18-.17.44-.29.49-.2.51-.14Z" fill="#263238"/>
      <path d="m34.61,104.38s-.24.12-.54.16-.57.05-.57,0,.24-.12.54-.16.57-.04.57,0Z" fill="#263238"/>
      <path d="m36.44,103.7s-.23.15-.55.18-.57,0-.57-.06.25-.06.55-.1.57-.07.57-.02Z" fill="#263238"/>
      <path d="m38.02,102.16s-.17.13-.43.16-.46,0-.45-.08.2-.06.43-.09.44-.04.45.01Z" fill="#263238"/>
      <path d="m38.32,100.92s-.22,0-.46-.07-.42-.18-.4-.23.22,0,.45.08.42.18.41.22Z" fill="#263238"/>
      <path d="m38.89,99.65s-.18-.06-.28-.23-.11-.34-.07-.36.13.12.22.28.16.31.13.31Z" fill="#263238"/>
      <path d="m38.2,104.78s-.17.13-.4.18c-.11.03-.22.05-.33.05v-.09h.1l-.06.08v-.1l.32-.11c.17-.04.36-.05.37-.01Z" fill="#263238"/>
      <path d="m38.52,106.97s-.21.17-.51.29-.55.17-.56.13.21-.17.5-.29.55-.17.57-.13Z" fill="#263238"/>
      <path d="m36.77,106s-.13.13-.34.2-.37.09-.39,0,.14-.13.34-.2.38-.05.39,0Z" fill="#263238"/>
      <path d="m36.91,101.55s-.28,0-.58-.09-.53-.26-.51-.3.27,0,.56.14.54.2.53.25Z" fill="#263238"/>
      <path d="m41.14,101.06s-.13.18-.33.32-.4.22-.43.18.13-.18.33-.32.4-.22.43-.18Z" fill="#263238"/>
      <path d="m41.37,103.26s-.15.11-.35.15-.37,0-.38,0,.14-.12.34-.16.38-.04.39,0Z" fill="#263238"/>
      <path d="m41.63,105.73s-.24,0-.5-.14-.45-.25-.43-.29.24,0,.5.14.45.21.43.29Z" fill="#263238"/>
      <path d="m41.07,108.13s-.18-.09-.33-.26-.23-.35-.19-.38.18.09.32.27.23.34.2.37Z" fill="#263238"/>
      <path d="m40.95,99.44s-.07.16-.23.24-.32.09-.33.05.11-.12.26-.19.27-.13.3-.1Z" fill="#263238"/>
      <path d="m43.03,101.65s-.18.15-.44.18-.48,0-.48-.05.21-.08.45-.11.45-.02.47-.02Z" fill="#263238"/>
      <path d="m42.61,99.65s-.17.18-.44.26-.5.09-.51.05.2-.12.46-.2.47-.11.49-.11Z" fill="#263238"/>
      <path d="m43.44,104.74c-.24.07-.48.07-.72,0-.39-.07-.69-.21-.67-.25s.32,0,.7.09.69.07.69.16Z" fill="#263238"/>
      <path d="m42.71,107.65s-.27-.11-.51-.35-.38-.48-.34-.51.23.16.46.39.42.41.39.47Z" fill="#263238"/>
      <path d="m39.32,97.32c-.53.32-1.02.7-1.45,1.14-1,1.11-1.63,2.51-1.8,4-.07.81-.03,1.63.11,2.43.12.67.27,1.34.46,2,.16.55.3,1,.4,1.3.06.16.11.32.14.48-.08-.15-.14-.3-.2-.46-.12-.3-.28-.73-.45-1.28-.21-.65-.38-1.32-.5-2-.16-.82-.2-1.65-.12-2.48.17-1.5.83-2.91,1.88-4,.32-.33.68-.61,1.08-.84.11-.06.22-.12.33-.17l.12-.12Z" fill="#263238"/>
      <path d="m41.57,108.73s.37-.65.74-1.77c.5-1.47.65-3.03.44-4.56-.11-.84-.34-1.66-.7-2.43-.3-.62-.7-1.19-1.2-1.67-.35-.31-.74-.56-1.17-.74-.3-.13-.49-.15-.48-.17h.13l.37.1c.45.17.86.41,1.23.72.52.48.95,1.05,1.26,1.69.37.78.62,1.61.73,2.47.21,1.55.04,3.14-.5,4.61-.09.29-.21.53-.3.75l-.28.55c-.08.16-.17.31-.27.45Z" fill="#263238"/>
      <path d="m99.07,98.13l-5.65,6.95h0c.25,1.3.91,2.48,1.89,3.37.95.84,2.29,1.09,3.48.66h0s.37-.62,1.4-2.29c1.95-3.14,3.24-9.11,3.24-9.11l-4.36.42Z" fill="#fcceb4"/>
      <path d="m107.95,84.71c-.15-.15-.37-.2-.58-.15l-3.7.86c-.32.08-.59.28-.77.55l-7.27,11.57.61.23,4.1-.55,7.74-12.39-.13-.12Z" fill="#263238"/>
      <path d="m105.38,86.38c.11.05.25.02.31-.09.09-.1.1-.23,0-.29-.11-.04-.23,0-.3.09-.08.11-.09.24-.01.29Z" fill="#fff"/>
      <path d="m108.08,84.83s-.26.08-.72.2l-2,.49-1.36.32c-.23.05-.43.18-.56.37l-.41.67-1.86,3c-1.32,2.1-2.52,4-3.41,5.36l-1,1.61c-.12.21-.26.4-.42.58.1-.21.22-.41.34-.61l1-1.65c.85-1.38,2-3.28,3.35-5.38l1.87-3c.15-.22.29-.45.43-.66.16-.24.41-.4.69-.45l1.36-.3,2-.42c.23-.07.46-.11.7-.13Z" fill="#455b64"/>
      <path d="m105,87.81s-.38,0-.53.93-.69,3.71-.69,3.71l-2-.76-2.41.54s-.51.51-.11.71c.65.18,1.32.28,2,.31l1.18,1.4-3.33-1.12s-1.07.37-.72,1c.81.83,1.69,1.59,2.63,2.27h-1.63l-2-.9s-.6.09-.35.53c.72.72,1.5,1.37,2.34,1.94l2.5.84s1.33-.23,1.44-.6c.07-.29.11-.59.11-.89,0,0,.7-.25.82-.58.06-.27.06-.55,0-.82,0,0,1.12.06,1.23-.52.07-.72,0-1.44-.2-2.13-.13-.43.26-4.57.21-4.69s.19-1.51-.49-1.17Z" fill="#fcceb4"/>
      <path d="m103.44,98.59s-.22.15-.63.25c-.53.13-1.07.16-1.61.1-.53-.06-1.04-.22-1.5-.47-.35-.19-.52-.35-.5-.38.66.29,1.34.5,2.05.62.73.05,1.47.01,2.19-.12Z" fill="#f89b67"/>
      <path d="m102.78,97.84c0,.06-.47-.11-1-.41s-.81-.62-.76-.67c.33.1.64.26.91.48.51.29.89.55.85.6Z" fill="#f79570"/>
      <path d="m103.97,95.77c0,.06-.47-.1-.92-.43s-.73-.68-.68-.72.4.22.84.53.8.56.76.62Z" fill="#f79570"/>
      <path d="m105.25,94.07c-.06,0-.33-.37-.74-.79s-.8-.71-.76-.77.52.16,1,.61.56.92.5.95Z" fill="#f89b67"/>
      <polygon points="142.31 190.11 140.55 190.11 141.43 125.06 145.2 125.06 142.31 190.11" fill="#e0e0e0"/>
      <path d="m142.31,190.11v-1.34c0-.87.08-2.14.15-3.78.14-3.28.34-8,.58-13.89.51-11.74,1.22-28,2-46.07l.11.12h-3.71l.11-.11c-.43,31.89-.83,58.43-1,65h1.34-1.34c0-6.62.36-33.16.79-65v-.11h4v.11c-.82,18.12-1.56,34.39-2.09,46.15-.27,5.85-.49,10.59-.65,13.86-.08,1.62-.14,2.89-.18,3.75l-.05,1c-.05.21-.06.31-.06.31Z" fill="#263238"/>
      <polygon points="33.25 190.25 31.49 190.25 30.49 124.87 34.26 124.87 33.25 190.25" fill="#e0e0e0"/>
      <path d="m33.25,190.25v-5.14c.05-3.29.11-8.06.18-14,.17-11.79.41-28.12.67-46.29l.11.11h-3.77l.12-.11c.49,32.06.86,58.73.91,65.38h1.33-1.33c-.15-6.65-.6-33.32-1.09-65.38v-.11h4v.11c-.29,18.21-.56,34.56-.75,46.38-.11,5.89-.19,10.64-.25,13.93,0,1.63-.06,2.9-.08,3.77v1c-.05.24-.05.35-.05.35Z" fill="#263238"/>
      <rect x="21.85" y="119.87" width="126.55" height="5.42" fill="#455b64"/>
      <path d="m21.84,119.87h126.67v5.52h0v.11h-.07l-126.55-.08h0v-5.42,5.42h0l126.55-.08-.11.11h0v-5.41l.11.11H21.9l-.06-.28Z" fill="#263238"/>
      <path d="m48.1,119.95v.06l-.13.16c-.18.2-.39.37-.62.5-.37.21-.78.34-1.2.4-.55.08-1.11.11-1.67.08-.67-.04-1.34-.12-2-.24-.76-.13-1.52-.22-2.29-.27-1.76.01-3.51.35-5.15,1-1.77.63-3.42,1.35-5,1.79-.75.22-1.51.37-2.28.45-.67.07-1.33.07-2,0-.98-.1-1.93-.4-2.78-.89-.31-.18-.6-.39-.86-.64h.06l.17.13c.21.16.43.3.66.43.85.46,1.79.74,2.76.83.67.06,1.33.06,2,0,.77-.09,1.52-.25,2.26-.47,1.57-.44,3.21-1.16,5-1.79,1.66-.66,3.43-1,5.21-1,.77.05,1.54.14,2.3.29.66.12,1.33.2,2,.25.55.04,1.1.02,1.65-.05.41-.06.81-.18,1.18-.37.27-.18.52-.4.73-.65Z" fill="#263238"/>
      <path d="m34.54,120.03c-.11.12-.24.23-.37.32-.35.28-.73.52-1.13.73-.59.31-1.21.56-1.85.75-.79.22-1.6.35-2.42.38-1.49.06-2.97-.25-4.32-.89-.4-.2-.74-.49-1-.85-.07-.1-.13-.21-.17-.33v-.12c.07.14.16.28.25.41.27.34.61.61,1,.79,1.34.61,2.8.89,4.27.84.8-.03,1.6-.15,2.38-.36.63-.18,1.25-.42,1.84-.72.4-.2.78-.43,1.14-.68.12-.1.25-.19.38-.27Z" fill="#263238"/>
      <path d="m63.63,123.47l.19.07c.19.06.38.11.57.15.74.13,1.5.01,2.17-.34v.07c-.78-.58-1.72-.93-2.69-1-1.23-.12-2.47.2-3.49.91-.14.07-.24.2-.28.35,0,.15.1.29.24.35.15.08.31.14.48.17l.52.12c.71.16,1.45.31,2.21.43.77.12,1.56.17,2.34.15.4,0,.8-.04,1.2-.11.2-.03.4-.07.59-.13.2-.04.39-.1.58-.18.29-.12.55-.31.75-.55.19-.23.25-.55.15-.83-.12-.28-.33-.51-.59-.66-.26-.15-.54-.29-.82-.4-1.11-.42-2.27-.66-3.45-.71-2-.11-4,.2-5.87.91-1.26.48-2.46,1.13-3.54,1.93-.38.29-.67.52-.86.69l-.21.19-.08.06.07-.07.2-.2c.18-.18.47-.42.84-.72,2.71-2.06,6.06-3.1,9.46-2.93,1.19.05,2.37.29,3.49.71.3.11.58.25.85.42.29.16.52.42.65.73.13.34.07.72-.16,1-.22.26-.5.46-.81.59-.2.08-.4.15-.61.19-.2.05-.4.1-.61.13-.4.07-.81.11-1.22.12-.79.01-1.59-.04-2.37-.17-.76-.11-1.5-.27-2.21-.43l-.52-.12c-.18-.03-.36-.1-.52-.19-.08-.05-.16-.11-.22-.19-.06-.08-.09-.19-.08-.29.04-.19.16-.35.33-.45,1.05-.72,2.32-1.04,3.58-.91,1,.1,1.95.47,2.74,1.09h-.06c-.68.35-1.47.46-2.22.31-.25-.05-.49-.14-.71-.26Z" fill="#263238"/>
      <path d="m79.58,120.09c.05.08.09.18.12.27.08.27.11.54.08.82-.12.9-.55,1.73-1.21,2.36-.33.38-.7.72-1.12,1-.34.22-.71.4-1.09.53-.26.08-.52.15-.79.2h-.3s.42-.08,1.05-.32c.35-.15.69-.33,1-.55.4-.27.77-.58,1.09-.94.64-.61,1.06-1.4,1.21-2.27.05-.37.04-.74-.04-1.1Z" fill="#263238"/>
      <path d="m101.83,125.01c-.18-.2-.37-.39-.57-.56-.55-.46-1.22-.76-1.93-.87-.49-.08-.99-.08-1.48,0-.57.13-1.15.19-1.73.16-.64-.11-1.24-.41-1.72-.85-.51-.43-1.1-.77-1.73-1-1.24-.42-2.58-.44-3.84-.06-1.03.31-1.99.8-2.85,1.44-.58.43-1.14.9-1.65,1.41l-.42.41c-.09.1-.15.15-.15.14.04-.06.08-.11.13-.16l.4-.44c.51-.52,1.05-1.01,1.63-1.45.86-.67,1.83-1.17,2.87-1.49,1.28-.41,2.65-.41,3.93,0,.65.25,1.24.61,1.77,1.06.46.42,1.03.71,1.65.82.57.03,1.14-.02,1.69-.15.5-.09,1.01-.09,1.51,0,.74.12,1.44.44,2,.94.2.19.36.41.49.65Z" fill="#263238"/>
      <path d="m121.71,119.92l-.14.19c-.1.11-.22.3-.42.5-.55.6-1.15,1.13-1.81,1.61-.97.7-2.03,1.29-3.14,1.74-.65.27-1.32.48-2,.64-.74.18-1.5.28-2.26.3-1.48,0-2.94-.32-4.3-.9-1.11-.46-2.16-1.05-3.12-1.77-.65-.48-1.25-1.02-1.8-1.62-.2-.21-.32-.39-.42-.5l-.14-.19c.06.05.11.11.16.17.11.1.24.28.45.48.56.58,1.16,1.1,1.81,1.57.97.7,2.01,1.28,3.12,1.73,1.34.56,2.78.86,4.24.87.75-.01,1.5-.1,2.23-.28.68-.16,1.35-.37,2-.63,1.11-.44,2.16-1.01,3.13-1.7.66-.46,1.27-.98,1.82-1.56.21-.2.34-.37.45-.48.04-.06.09-.12.14-.17Z" fill="#263238"/>
      <path d="m118.87,119.87l-.11.09-.32.21c-.4.26-.81.5-1.24.71-.64.32-1.31.58-2,.79-.83.28-1.69.43-2.56.44-1.58-.04-3.14-.43-4.55-1.15-.42-.21-.84-.46-1.23-.72-.14-.09-.24-.18-.31-.23s-.1-.08-.1-.09c.16.08.31.17.45.27.4.25.81.48,1.24.68,1.41.68,2.94,1.05,4.5,1.09.86-.02,1.71-.16,2.52-.42.67-.21,1.32-.46,1.95-.76.54-.26,1-.49,1.26-.66.16-.09.33-.18.5-.25Z" fill="#263238"/>
      <path d="m140.54,120.42h-4.36l-.92.06c-.63,0-1.3.12-2,.19-1.5.18-2.99.44-4.47.77-1.41.32-2.81.72-4.18,1.19-.6.23-1.19.43-1.7.65l-.75.31-.66.32c-.43.19-.79.38-1.11.55l-.44.24-.35.21-.5.29-.19.09.15-.11.46-.31.34-.22.43-.25c.31-.17.66-.38,1.09-.58l.66-.32.74-.32c.51-.23,1.1-.44,1.7-.67,1.38-.48,2.79-.88,4.22-1.21,1.49-.33,2.99-.59,4.51-.77.71-.07,1.39-.15,2-.18h4.37l.69.06h.27Z" fill="#263238"/>
      <path d="m104.06,124.9c-.2-.29-.43-.56-.68-.81-.71-.65-1.57-1.13-2.5-1.4-.66-.19-1.32-.34-2-.43-.71-.11-1.47-.2-2.28-.34-.84-.15-1.66-.36-2.47-.62-.86-.28-1.74-.5-2.64-.64-1.75-.17-3.51.07-5.15.71-.71.27-1.41.59-2.09.94-.64.33-1.23.65-1.76,1-1.07.6-1.92,1.11-2.5,1.47l-.67.41-.18.11h-.06l.17-.12.66-.44c.57-.37,1.41-.9,2.48-1.52.53-.31,1.11-.64,1.75-1,.68-.38,1.39-.71,2.11-1,1.65-.66,3.44-.91,5.21-.73.9.14,1.79.36,2.66.65.8.26,1.63.47,2.46.62.79.14,1.56.24,2.27.35.68.1,1.35.26,2,.46.94.28,1.8.78,2.51,1.45.28.25.52.55.7.88Z" fill="#263238"/>
      <path d="m76.14,119.95c.02.12.02.23,0,.35-.04.31-.12.62-.24.91-.37.99-1.04,1.84-1.9,2.44-.89.55-1.84.98-2.83,1.3l-.9.27c-.11.04-.22.06-.34.07l.33-.13.88-.31c.97-.34,1.9-.79,2.77-1.33.84-.59,1.5-1.4,1.89-2.35.15-.4.26-.8.34-1.22Z" fill="#263238"/>
      <path d="m47.37,125.29c.09-.11.19-.2.3-.29.2-.18.5-.43.88-.72,1.01-.74,2.06-1.41,3.16-2,1.29-.71,2.5-1.27,3.37-1.67l1-.47c.12-.07.25-.12.39-.15l-.37.2-1,.51c-.87.43-2.06,1-3.34,1.71-1.09.6-2.15,1.27-3.17,2-.39.29-.7.52-.91.69-.1.07-.2.14-.31.19Z" fill="#263238"/>
      <path d="m53.21,120.17h-.8c-.72.08-1.43.29-2.07.63-.94.53-1.84,1.13-2.68,1.81-.52.37-1.06.7-1.62,1-.61.33-1.27.58-1.94.75-1.31.31-2.65.47-4,.47h-3.25c-.73.03-1.45.1-2.17.22l-.58.11c-.07.01-.14.01-.21,0l.2-.07c.13,0,.33-.09.58-.14.72-.15,1.45-.23,2.18-.26.93-.06,2,0,3.25-.09,1.32-.02,2.64-.18,3.92-.48.66-.17,1.3-.42,1.91-.73.56-.3,1.09-.63,1.6-1,.85-.67,1.76-1.27,2.72-1.78.66-.34,1.37-.54,2.11-.59.2-.02.4-.02.6,0l.25.15Z" fill="#263238"/>
    </g>
  </g>
</svg>