<?xml version="1.0" encoding="UTF-8"?>
<svg id="Layer_2" data-name="Layer 2" xmlns="http://www.w3.org/2000/svg" viewBox="0 0 300.49 193.89">
  <g id="Layer_1-2" data-name="Layer 1">
    <g>
      <polygon points="2.33 160.37 2.33 178.4 28.7 178.4 57.78 178.4 57.78 160.37 2.33 160.37" fill="#f5f5f5"/>
      <polygon points="0 155.33 0 160.37 59.72 160.37 59.72 155.33 28.7 155.33 0 155.33" fill="#e0e0e0"/>
      <polygon points="29.86 178.4 57.78 178.4 57.78 160.37 59.72 160.37 59.72 155.33 28.7 155.33 28.7 159.91 29.86 178.4" fill="#e0e0e0"/>
      <rect x="10.09" y="163.28" width="11.24" height="2.71" fill="#e0e0e0"/>
      <rect x="8.64" y="169.39" width="14.44" height="5.73" fill="#fff"/>
      <polygon points="10.86 137.33 10.86 155.36 37.23 155.36 66.31 155.36 66.31 137.33 10.86 137.33" fill="#f5f5f5"/>
      <polygon points="8.54 132.29 8.54 137.33 68.25 137.33 68.25 132.29 37.23 132.29 8.54 132.29" fill="#e0e0e0"/>
      <polygon points="38.39 155.36 66.31 155.36 66.31 137.33 68.25 137.33 68.25 132.29 37.23 132.29 37.23 136.86 38.39 155.36" fill="#e0e0e0"/>
      <rect x="18.62" y="140.24" width="11.24" height="2.71" fill="#e0e0e0"/>
      <rect x="17.17" y="146.34" width="14.44" height="5.73" fill="#fff"/>
      <rect x="3.9" y="0" width="41.05" height="59.5" fill="#e0e0e0"/>
      <rect x="1.85" y="0" width="41.05" height="59.5" fill="#f5f5f5"/>
      <rect x="6.95" y="6.44" width="30.85" height="46.61" fill="#fff"/>
      <path d="m37.79,53.06v-13.05c0-8.22,0-19.86-.05-33.57l.1.11H6.99l.11-.12v46.62l-.09-.09h28.66H6.88V6.15h31.07v.1c0,13.74,0,25.4-.06,33.64v12.76c-.02.14-.05.28-.1.41Z" fill="#e0e0e0"/>
      <path d="m43.01,0c-.22.37-.46.73-.73,1.06-.48.64-1.16,1.51-1.93,2.45s-1.49,1.76-2,2.35c-.27.33-.57.65-.9.93.23-.36.49-.69.78-1l2-2.4,2-2.4c.23-.35.49-.68.78-.99Z" fill="#e0e0e0"/>
      <path d="m37.95,52.91c1.54,2.44,3.34,4.69,5.38,6.73" fill="#fff"/>
      <path d="m43.32,59.64c-.34-.25-.66-.54-.94-.86-.71-.73-1.37-1.49-2-2.29-.64-.8-1.23-1.62-1.78-2.48-.24-.35-.45-.72-.63-1.1.28.32.53.65.76,1,.45.64,1.09,1.5,1.83,2.43s1.45,1.74,2,2.32c.28.3.53.63.76.98Z" fill="#e0e0e0"/>
      <rect x="17.86" y="15.91" width="10.33" height="29.33" fill="#e0e0e0"/>
      <path d="m266.44,172.1c-1-.83-3.14-3.47-1.47-6.54.76-1.05,1.85-1.81,3.09-2.17,1.21-.41,2.36-1.01,3.39-1.76,1.84-1.56,2.34-4.16,3.56-6.24,1.35-2.48,3.94-4.04,6.77-4.06,3.17.14,5.8,2.72,7,5.67s1.23,6.21,1.26,9.39c0,1.75-.07,3.74-1.36,4.92s-3,1.11-4.59,1.06l-17.28-.53" fill="#f5f5f5"/>
      <path d="m299.48,124.6h-45.43l8.18,48.8c.35,2.07,1.86,3.76,3.88,4.34h.16l.4.11c.31.06.62.09.93.1h20.47c.38,0,.75-.04,1.12-.11,2.43-.38,4.3-2.33,4.59-4.77l3.95-33.63.18-1.33h0l1.56-13.32v-.19Zm-8.57,31.13h-4.67l.48-14.17h5.4l-1.21,14.17Zm1.66-14.17h4.46l-1.66,14.17h-4l1.2-14.17Zm-13.32,29.86l-.28-12.3h6.71l-.41,12.3h-6.02Zm-7.26-12.3h6.53l.28,12.3h-5.85l-.96-12.3Zm.51,12.3h-5.47c-.52-3.32-1.2-7.63-1.93-12.3h6.44l.96,12.3Zm-.77-15.69l-1.1-14.17h7.48l.33,14.17h-6.71Zm7.16,0l-.33-14.17h7.7l-.47,14.17h-6.9Zm-.41-17.56l-.3-13.12h8.63l-.43,13.12h-7.9Zm-.45,0h-7.71l-1-13.12h8.39l.32,13.12Zm-8.12,0h-8.11c-.29-1.81-.56-3.53-.81-5.07-.85-5.3-1.16-7.3-1.34-8h9.24l1.02,13.07Zm.26,3.39l1.11,14.17h-6.72c-.22-1.44-.45-2.9-.68-4.35-.52-3.34-1-6.68-1.55-9.82h7.84Zm-6.06,14.17h-4.39l-2.37-14.17h4.53c.69,4.38,1.44,9.25,2.23,14.17h0Zm.53,3.39c.67,4.26,1.33,8.46,1.93,12.3h-4.25l-2.07-12.3h4.39Zm21.08,12.3l.41-12.3h4.49l-1.05,12.3h-3.85Zm1.11-33.25l.43-13.12h6.27l-1.12,13.12h-5.58Zm-27.61-13.12c.18,1,1,6.11,2.12,13.12h-4.56l-2.2-13.12h4.64Zm34.31,46.37h-3.51l1.05-12.3h3.9l-1.44,12.3Zm3.9-33.25h-4.57l1.12-13.12h5l-1.55,13.12Z" fill="#e0e0e0"/>
      <polygon points="300.49 3.19 300.49 43.14 243.11 43.14 241.04 3.47 300.49 3.19" fill="#e0e0e0"/>
      <rect x="241.04" y="3.47" width="57.38" height="39.59" fill="#fff"/>
      <path d="m298.69,43.33h-57.92V3.2h57.92v40.13Zm-57.38-.54h56.84V3.79h-56.83v39Z" fill="#e0e0e0"/>
      <rect x="247.26" y="8.39" width="44.95" height="29.75" fill="#fff"/>
      <path d="m292.21,8.39h-12.63l-32.36.07.13-.13v29.75h0l-.14-.14h45l-.12.11c0-9.06.05-16.48.06-21.65v-8.12,8.07c0,5.19,0,12.64.06,21.72v.11h-45.25v-.14h0V8.16h.13l32.45.06h12.51l.16.17Z" fill="#e0e0e0"/>
      <path d="m241.04,3.36c.36.17.7.38,1,.64.59.42,1.39,1,2.25,1.71s1.63,1.35,2.16,1.84c.31.24.59.52.82.84,0,.06-1.43-1.08-3.15-2.46-1.08-.79-2.11-1.65-3.08-2.57Z" fill="#e0e0e0"/>
      <path d="m298.42,3.47c-.94.93-1.94,1.79-3,2.57-1.01.86-2.07,1.64-3.19,2.35.93-.93,1.94-1.79,3-2.57,1.01-.86,2.07-1.64,3.19-2.35Z" fill="#e0e0e0"/>
      <path d="m298.38,43.06l-6.4-5.18" fill="#fff"/>
      <path d="m291.98,37.88c1.15.75,2.25,1.58,3.29,2.48,1.1.83,2.13,1.73,3.11,2.7-2.25-1.58-4.39-3.31-6.4-5.18h0Z" fill="#e0e0e0"/>
      <path d="m241.04,43.06c.94-.92,1.94-1.77,3-2.55,1-.85,2.05-1.62,3.16-2.32-1.93,1.77-3.98,3.4-6.15,4.87h-.01Z" fill="#e0e0e0"/>
      <rect x="256.38" y="17.66" width="28.29" height="9.96" fill="#e0e0e0"/>
      <path d="m299.48,178.4c0,.07-66.18.12-147.81.12s-147.81,0-147.81-.12,66.16-.11,147.81-.11,147.81.05,147.81.11Z" fill="#263238"/>
      <path d="m44.59,24.49h215.88c3.72,0,6.74,3.02,6.74,6.74v131c0,8.05-6.52,14.57-14.57,14.57H51.37c-8.05,0-14.57-6.52-14.57-14.57h0V32.23c0-4.28,3.48-7.75,7.76-7.74.01,0,.02,0,.03,0Z" fill="#455b64"/>
      <path d="m27.17,165.57h249.59c0,7.36-5.97,13.33-13.33,13.33H40.5c-7.36,0-13.33-5.97-13.33-13.33h0Z" fill="#455b64"/>
      <rect x="42.99" y="30.55" width="217.36" height="128.65" fill="#f5f5f5"/>
      <polygon points="129.28 165.57 132.38 170.5 175.96 170.5 178.84 165.57 129.28 165.57" fill="#263238"/>
      <rect x="36.84" y="165.52" width="230.38" height=".73" fill="#263238"/>
      <path d="m104.53,24.49h-23.93v-8.42c0-5.99,4.78-10.87,10.77-11l13.16.21v19.21Z" fill="#e0e0e0"/>
      <path d="m90.85,5.07s13.62-1.23,13.62,16.53v138.18h106.9V16.56c0-6.48-5.25-11.73-11.73-11.73-.01,0-.02,0-.03,0l-108.76.24Z" fill="#fff"/>
      <path d="m90.85,5.07l79.09-.25,19.15-.06h10.18c5.6-.16,10.54,3.62,11.86,9.06.11.45.19.9.24,1.36.07.45.06.92.1,1.38v143.36h-107.1V23.5c0-1.4,0-2.75-.07-4-.08-1.24-.25-2.47-.52-3.68-.24-1.1-.57-2.19-1-3.23-.42-.93-.94-1.82-1.54-2.65-1.03-1.37-2.35-2.5-3.86-3.31-1.1-.58-2.28-1-3.5-1.24-.74-.15-1.5-.23-2.26-.25-.26-.01-.52-.01-.78,0,.26-.02.52-.02.78,0,.76,0,1.52.09,2.27.24,1.23.23,2.41.65,3.52,1.23,1.53.8,2.85,1.93,3.89,3.31.61.83,1.13,1.72,1.55,2.66.45,1.05.8,2.13,1.06,3.24.26,1.22.43,2.45.52,3.69.09,1.3.08,2.65.08,4.05v136.31l-.11-.1h106.9l-.12.11V19.3c.11-1.83,0-3.67-.33-5.47-.42-1.75-1.25-3.38-2.4-4.76-1.15-1.35-2.58-2.43-4.2-3.15-1.59-.71-3.33-1.05-5.07-1h-29.39l-78.94.15Z" fill="#263238"/>
      <path d="m150.23,47c0,.06-6.5.11-14.52.11s-14.52,0-14.52-.11,6.5-.12,14.52-.12,14.52.06,14.52.12Z" fill="#263238"/>
      <path d="m156.74,50.48c0,.06-8,.11-17.77.11s-17.78-.05-17.78-.11,8-.12,17.78-.12,17.77.05,17.77.12Z" fill="#263238"/>
      <path d="m159.07,64.15c0,.06-8.22.11-18.35.11s-18.35,0-18.35-.11,8.21-.12,18.35-.12,18.35.05,18.35.12Z" fill="#263238"/>
      <path d="m183.05,77.47c0,.06-13.74.11-30.68.11s-30.68-.05-30.68-.11,13.73-.12,30.68-.12,30.68.05,30.68.12Z" fill="#263238"/>
      <path d="m183.05,81.44c0,.07-13.74.12-30.68.12s-30.68,0-30.68-.12,13.73-.11,30.68-.11,30.68.05,30.68.11Z" fill="#263238"/>
      <path d="m183.05,85.42c0,.06-13.74.11-30.68.11s-30.68,0-30.68-.11,13.73-.12,30.68-.12,30.68.05,30.68.12Z" fill="#263238"/>
      <path d="m183.05,89.39c0,.07-13.74.12-30.68.12s-30.68,0-30.68-.12,13.73-.11,30.68-.11,30.68.05,30.68.11Z" fill="#263238"/>
      <path d="m183.05,93.37c0,.06-13.74.11-30.68.11s-30.68-.05-30.68-.11,13.73-.12,30.68-.12,30.68.05,30.68.12Z" fill="#263238"/>
      <path d="m144.95,97.34c0,.07-5.21.12-11.63.12s-11.63-.05-11.63-.12,5.2-.11,11.63-.11,11.63.05,11.63.11Z" fill="#263238"/>
      <path d="m194.02,76.91l-10.92,25.36c-.14.32,0,.7.33.84.17.07.36.07.52,0l8.41-3.71c.33-.14.71,0,.85.34,0,.01.01.03.02.04l2.84,8.53c.12.33.48.51.81.4.19-.06.33-.21.4-.4l10.25-27.31-13.51-4.09Z" fill="#f3725f"/>
      <path d="m208.24,81.13l5.23,27.12c.07.35.41.57.76.5.17-.04.32-.14.41-.29l4.87-7.8c.19-.3.58-.39.88-.2.02.01.03.02.05.03l7.14,5.45c.29.21.69.14.89-.14.11-.15.15-.34.11-.52l-6.89-28.39-13.45,4.24Z" fill="#f3725f"/>
      <path d="m194.02,76.91l-10.92,25.36c-.14.32,0,.7.33.84.17.07.36.07.52,0l8.41-3.71c.33-.14.71,0,.85.34,0,.01.01.03.02.04l2.84,8.53c.12.33.48.51.81.4.19-.06.33-.21.4-.4l10.25-27.31-13.51-4.09Z" fill="#199ed9"/>
      <path d="m208.24,81.13l5.23,27.12c.07.35.41.57.76.5.17-.04.32-.14.41-.29l4.87-7.8c.19-.3.58-.39.88-.2.02.01.03.02.05.03l7.14,5.45c.29.21.69.14.89-.14.11-.15.15-.34.11-.52l-6.89-28.39-13.45,4.24Z" fill="#199ed9"/>
      <polygon points="208.78 32.45 212.36 29.82 215.18 33.26 219.3 31.6 221.17 35.63 225.58 35.05 226.39 39.42 230.81 39.96 230.5 44.39 234.65 46.01 233.25 50.23 236.86 52.82 234.46 56.57 237.31 59.98 234.05 63 235.97 67.02 232.06 69.14 232.92 73.5 228.6 74.58 228.35 79.02 223.9 79 222.55 83.24 218.25 82.11 215.89 85.87 212 83.71 208.78 86.77 205.55 83.71 201.66 85.87 199.3 82.11 195 83.24 193.65 79 189.2 79.02 188.95 74.58 184.64 73.5 185.49 69.14 181.58 67.02 183.5 63 180.24 59.98 183.09 56.57 180.69 52.82 184.3 50.23 182.91 46.01 187.05 44.39 186.75 39.96 191.16 39.42 191.97 35.05 196.38 35.63 198.25 31.6 202.38 33.26 205.19 29.82 208.78 32.45" fill="#f9bb1e"/>
      <circle cx="208.78" cy="58.3" r="20.14" transform="translate(19.93 164.7) rotate(-45)" fill="#fff"/>
      <path d="m213.16,53.53l5.41.79c.59.09,1,.63.91,1.22-.03.23-.14.45-.31.62l-3.92,3.81c-.27.26-.38.64-.31,1l.92,5.39c.1.59-.31,1.15-.9,1.25-.23.04-.47,0-.68-.11l-4.83-2.55c-.31-.17-.69-.17-1,0l-4.83,2.53c-.53.28-1.18.08-1.46-.45-.11-.21-.15-.46-.11-.69l.93-5.38c.07-.36-.04-.74-.31-1l-3.91-3.82c-.43-.42-.43-1.1-.02-1.53.17-.17.38-.28.62-.31l5.41-.78c.35-.06.65-.28.81-.6l2.43-4.89c.26-.54.91-.76,1.44-.5.22.11.39.28.5.5l2.41,4.9c.16.32.45.54.8.6Z" fill="#f9bb1e"/>
      <path d="m131.32,26.47c0-1.36,1.09-2.48,2.45-2.49.06,0,.12,0,.18,0,.77-.02,1.51.31,2,.9l-.86.78c-.26-.36-.68-.56-1.12-.56-.75.06-1.31.73-1.25,1.48.06.66.58,1.19,1.25,1.25.44,0,.86-.21,1.12-.56l.86.77c-.49.59-1.23.93-2,.91-1.37.08-2.54-.96-2.63-2.33,0-.05,0-.11,0-.16Z" fill="#263238"/>
      <path d="m140.48,27.82v1h-3.83v-4.78h3.74v1h-2.41v.8h2.13v1h-2.13v.88l2.5.1Z" fill="#263238"/>
      <path d="m143.32,27.59h-.73v1.27h-1.36v-4.78h2.19c1.3,0,2.12.68,2.12,1.77.02.64-.34,1.24-.93,1.51l1,1.5h-1.45l-.84-1.27Zm0-2.44h-.75v1.4h.75c.56,0,.84-.26.84-.7s-.26-.7-.84-.7Z" fill="#263238"/>
      <path d="m147.23,25.15h-1.46v-1.07h4.28v1.07h-1.46v3.71h-1.36v-3.71Z" fill="#263238"/>
      <path d="m150.55,24.08h1.35v4.78h-1.35v-4.78Z" fill="#263238"/>
      <path d="m154.22,25.13v1h2.1v1h-2.11v1.64h-1.35v-4.78h3.74v1l-2.38.14Z" fill="#263238"/>
      <path d="m157.25,24.08h1.35v4.78h-1.35v-4.78Z" fill="#263238"/>
      <path d="m159.32,26.47c0-1.36,1.09-2.48,2.46-2.48.05,0,.11,0,.16,0,.79-.04,1.55.29,2.06.9l-.86.78c-.27-.36-.69-.56-1.13-.56-.75.06-1.31.73-1.25,1.48.06.66.58,1.19,1.25,1.25.44,0,.86-.21,1.13-.56l.86.77c-.51.61-1.27.94-2.06.91-1.36.08-2.53-.95-2.62-2.32,0-.06,0-.12,0-.17Z" fill="#263238"/>
      <path d="m167.72,27.93h-2l-.38.93h-1.37l2.1-4.78h1.34l2.11,4.78h-1.4l-.4-.93Zm-.4-1l-.61-1.52-.61,1.52h1.22Z" fill="#263238"/>
      <path d="m170.66,25.15h-1.47v-1.07h4.28v1.07h-1.46v3.71h-1.35v-3.71Z" fill="#263238"/>
      <path d="m173.98,24.08h1.34v4.78h-1.35v-4.78Z" fill="#263238"/>
      <path d="m176.05,26.47c-.09-1.47,1.02-2.73,2.48-2.82,1.47-.09,2.73,1.02,2.82,2.48.09,1.47-1.02,2.73-2.48,2.82-.06,0-.12,0-.17,0-1.37.09-2.56-.95-2.64-2.32,0-.05,0-.11,0-.17Zm3.94,0c-.04-.71-.66-1.25-1.37-1.21-.71.04-1.25.66-1.21,1.37.04.68.6,1.21,1.28,1.21.7.01,1.28-.54,1.29-1.25,0-.04,0-.08,0-.12Z" fill="#263238"/>
      <path d="m186.62,24.08v4.78h-1.12l-2.11-2.55v2.55h-1.32v-4.78h1.11l2.11,2.55v-2.55h1.33Z" fill="#263238"/>
      <path d="m192.03,114.12c0,.07-6.09.12-13.6.12s-13.61,0-13.61-.12,6.09-.11,13.61-.11,13.6.05,13.6.11Z" fill="#263238"/>
      <path d="m192.03,118c0,.06-6.09.12-13.6.12s-13.61-.06-13.61-.12,6.09-.11,13.61-.11,13.6.01,13.6.11Z" fill="#263238"/>
      <path d="m190.22,134.64v-1.16c0-.15-.05-.31-.08-.49-.05-.41-.14-.82-.25-1.22-.28-1.1-.72-2.15-1.31-3.12-2.88-4.82-8.78-6.92-14.06-5-.52.19-1.03.42-1.52.67-.5.27-.98.58-1.43.92-.47.35-.91.73-1.33,1.13-.41.43-.79.88-1.14,1.36-.78.98-1.38,2.09-1.78,3.27-.81,2.39-.81,4.99,0,7.38.38,1.16.94,2.25,1.67,3.22.35.47.73.93,1.14,1.35.42.41.86.78,1.33,1.13.89.68,1.89,1.22,2.95,1.59,3.74,1.37,7.92.74,11.08-1.67,1.21-.9,2.23-2.03,3-3.32.59-.97,1.04-2.02,1.31-3.12.11-.4.2-.8.25-1.21,0-.18.06-.34.08-.5v-1.16c.01.06.01.13,0,.19v.98c0,.15,0,.32-.06.5-.05.41-.12.82-.23,1.22-.27,1.12-.7,2.18-1.29,3.17-1.74,2.93-4.65,4.98-8,5.62-2.09.4-4.25.22-6.25-.5-.53-.19-1.05-.42-1.55-.68-.51-.27-1-.58-1.46-.93-.48-.36-.93-.74-1.36-1.15-.42-.43-.81-.89-1.16-1.38-.74-1-1.32-2.1-1.71-3.28-.81-2.44-.81-5.08,0-7.52.39-1.18.97-2.28,1.71-3.28.36-.49.75-.95,1.17-1.38.42-.41.87-.79,1.35-1.14.46-.35.95-.66,1.46-.94.5-.26,1.02-.48,1.55-.68,2-.72,4.16-.89,6.25-.5,3.35.64,6.26,2.69,8,5.62.59.99,1.02,2.05,1.29,3.17.11.4.18.81.23,1.23,0,.18.05.34.06.49v.98c.1.08.1.14.09.14Z" fill="#cb1f46"/>
      <circle cx="178.29" cy="134.54" r="7.58" transform="translate(6.14 276.86) rotate(-76.62)" fill="#cb1f46"/>
      <path d="m195.32,128.11l-.32.18-1,.5-3.64,1.9-5.75,3c-.58.31-1.22.51-1.87.6-.72.1-1.45-.12-2-.6-.3-.26-.5-.61-.59-1-.11-.39-.01-.8.25-1.11.27-.3.65-.49,1.06-.52.43-.04.83.2,1,.59h0c0,1.27-.45,2.5-1.28,3.46-.87,1.05-2.14,1.69-3.5,1.77-1.45.08-2.86-.43-3.92-1.42-.57-.49-.96-1.16-1.13-1.89-.07-.39-.02-.79.15-1.15.18-.36.49-.65.86-.8.39-.15.83-.09,1.17.16.32.26.55.61.67,1,.13.38.19.77.18,1.17.02.2.02.39,0,.59,0,.2-.03.4-.07.59-.32,1.58-1.19,3-2.45,4-1.3,1.09-2.99,1.57-4.67,1.34-1.7-.29-3.23-1.22-4.27-2.6-.61-.77-1.03-1.68-1.23-2.64-.21-.96-.14-1.96.22-2.87.19-.46.52-.84.94-1.11.43-.27.94-.36,1.43-.27.49.11.9.44,1.13.89.21.42.36.86.46,1.32.41,1.78.3,3.64-.33,5.36-.58,1.67-1.72,3.08-3.23,4-1.43.85-3.11,1.21-4.77,1-3.14-.43-5.47-3.11-5.47-6.27.01-.69.15-1.37.42-2,.24-.64.74-1.14,1.37-1.4.33-.1.67-.1,1,0,.3.1.58.27.81.49.42.43.74.95.92,1.52.19.53.29,1.09.3,1.65v1.57c-.16,1.75-.67,3.45-1.49,5-.51.97-1.14,1.86-1.88,2.67-.19.21-.39.41-.6.6l-.22.2.2-.22c.14-.13.34-.33.59-.61.72-.82,1.33-1.72,1.84-2.68.79-1.53,1.27-3.2,1.43-4.92,0-.25,0-.5.05-.76s0-.53,0-.79c0-.55-.11-1.09-.29-1.61-.19-.55-.49-1.05-.9-1.46-.21-.21-.47-.36-.75-.45-.29-.08-.59-.08-.88,0-.59.25-1.04.72-1.26,1.32-.26.61-.4,1.27-.4,1.94,0,1.44.51,2.83,1.43,3.93.47.59,1.05,1.07,1.7,1.44.68.37,1.42.61,2.18.7,1.61.19,3.25-.16,4.64-1,1.46-.89,2.57-2.26,3.14-3.88.61-1.68.72-3.49.31-5.23-.08-.44-.23-.86-.44-1.26-.2-.4-.57-.68-1-.78-.44-.07-.88.02-1.26.25-.38.23-.68.58-.85,1-.34.87-.41,1.82-.2,2.73.19.93.6,1.8,1.18,2.55,1,1.33,2.48,2.23,4.12,2.51,1.61.22,3.24-.25,4.49-1.29,1.23-.98,2.08-2.37,2.38-3.92.04-.19.07-.38.07-.57.02-.19.02-.38,0-.57,0-.37-.05-.75-.17-1.1-.1-.35-.31-.66-.59-.88-.28-.22-.67-.28-1-.14-.33.13-.59.38-.75.7-.15.31-.2.66-.13,1,.16.69.53,1.31,1.06,1.78,1.01.95,2.37,1.44,3.76,1.37,1.31-.07,2.53-.68,3.38-1.69.8-.93,1.25-2.11,1.24-3.34h0c-.15-.34-.51-.53-.87-.47-.36.02-.7.18-.94.45-.25.27-.34.65-.22,1,.09.34.27.64.54.87.51.45,1.19.65,1.86.57.64-.08,1.26-.28,1.83-.57l5.77-2.94,3.66-1.85,1-.48.39-.12Z" fill="#263238"/>
      <path d="m155.85,19.51c0,.06-9.31.11-20.8.11s-20.8,0-20.8-.11,9.31-.12,20.8-.12,20.8.05,20.8.12Z" fill="#e0e0e0"/>
      <path d="m162.78,19.51c-.47.11-.96.15-1.44.11-.49.04-.97,0-1.45-.11.47-.12.96-.16,1.45-.12.48-.04.97,0,1.44.12Z" fill="#e0e0e0"/>
      <path d="m204.19,19.51c0,.06-8.49.11-19,.11s-19,0-19-.11,8.49-.12,19-.12,19,.05,19,.12Z" fill="#e0e0e0"/>
      <path d="m155.85,31.08c0,.06-9.31.11-20.8.11s-20.8-.05-20.8-.11,9.31-.12,20.8-.12,20.8.04,20.8.12Z" fill="#e0e0e0"/>
      <path d="m162.78,31.08c-.47.11-.96.15-1.44.11-.49.04-.97,0-1.45-.11.47-.1.95-.13,1.43-.08.49-.05.98-.02,1.46.08Z" fill="#e0e0e0"/>
      <path d="m204.19,31.08c0,.06-8.49.11-19,.11s-19-.05-19-.11,8.49-.12,19-.12,19,.04,19,.12Z" fill="#e0e0e0"/>
      <path d="m287.02,74.3s-5.25,21.49-28.74,16.57c.04,0,6.81-21.77,28.74-16.57Z" fill="#cb1f46"/>
      <path d="m275.67,106.85s-10.79,16.09-28.61,5c0-.04,12.16-15.85,28.61-5Z" fill="#cb1f46"/>
      <path d="m258.49,131.39s-15.74,13.38-30.81-3.2c0,0,17.06-12.74,30.81,3.2Z" fill="#cb1f46"/>
      <path d="m241.82,79.37s17.45,8.39,9,27.61c-.02.02-17.42-9.77-9-27.61Z" fill="#cb1f46"/>
      <path d="m238.03,102.55s8.71,11.75-4.27,21.84c0,0-8.15-12.67,4.27-21.84Z" fill="#cb1f46"/>
      <path d="m278.4,49.15s2,17.43-16.82,20.22c0,0-.91-18.06,16.82-20.22Z" fill="#cb1f46"/>
      <path d="m251.41,31.52s15.22,6.36,8.61,24.2c0,0-15.26-7.61-8.61-24.2Z" fill="#cb1f46"/>
      <path d="m242.22,57s20.16,2.3,18.38,24.24c0-.02-20.58-3.71-18.38-24.24Z" fill="#cb1f46"/>
      <path d="m213.53,133.56l.26-.08.75-.2c.67-.17,1.65-.4,2.89-.81,3.52-1.09,6.92-2.52,10.15-4.27,4.79-2.62,9.21-5.86,13.15-9.64,2.33-2.22,4.49-4.61,6.49-7.13l1.51-2,.77-1c.25-.35.47-.72.71-1.08.47-.73,1-1.46,1.43-2.19l1.31-2.3.65-1.15.59-1.19c.38-.78.78-1.56,1.15-2.34l1-2.37c.17-.39.34-.78.5-1.17l.42-1.19c.28-.79.56-1.57.84-2.34l.69-2.35.34-1.15c.12-.38.19-.77.29-1.15.18-.77.36-1.53.53-2.28,1.15-5.33,1.66-10.79,1.5-16.24-.12-3.69-.53-7.37-1.22-11-.28-1.27-.52-2.26-.67-2.93l-.17-.76c-.02-.09-.04-.17-.05-.26,0,0,0,.09.07.26l.2.75c.16.67.42,1.65.7,2.92,1.84,9,1.79,18.28-.15,27.26-.18.75-.35,1.51-.53,2.28-.1.38-.17.78-.29,1.16l-.34,1.16-.69,2.34-.84,2.36-.42,1.19c-.16.39-.33.78-.5,1.18l-1,2.37c-.38.79-.77,1.57-1.16,2.36-.19.39-.39.79-.58,1.19l-.66,1.15-1.32,2.31-1.43,2.19c-.24.37-.47.73-.72,1.09l-.76,1-1.52,2c-2.01,2.53-4.19,4.92-6.53,7.14-3.95,3.79-8.4,7.02-13.21,9.63-3.25,1.75-6.66,3.16-10.2,4.21-1.25.4-2.24.62-2.9.78l-.76.18-.27.11Z" fill="#263238"/>
      <path d="m236.15,112c.02.16.02.33,0,.49,0,.32-.07.77-.14,1.34-.14,1.12-.37,2.66-.7,4.36s-.7,3.21-1,4.31c-.15.54-.28,1-.37,1.28-.04.16-.1.32-.18.46.02-.16.05-.32.09-.48.08-.36.18-.79.3-1.3.25-1.1.59-2.62.93-4.31s.58-3.23.76-4.35c.08-.52.15-.96.21-1.32,0-.16.04-.33.1-.48Z" fill="#455b64"/>
      <path d="m240.43,129.47c-.16.02-.33.02-.49,0l-1.34-.2c-1.13-.16-2.69-.39-4.41-.59s-3.3-.35-4.44-.44l-1.34-.12c-.17,0-.34-.03-.5-.07.17-.02.33-.02.5,0h1.35c1.14,0,2.72.17,4.45.37s3.29.45,4.42.66l1.32.27c.16.02.32.06.48.12Z" fill="#455b64"/>
      <path d="m261.65,108.14c-.19.07-.39.12-.59.14l-1.59.32c-1.35.26-3.2.65-5.24,1.14s-3.86,1-5.18,1.38l-1.56.45c-.19.07-.38.12-.58.14.18-.09.37-.16.56-.22.36-.14.88-.31,1.54-.52,1.31-.42,3.13-1,5.17-1.45s3.9-.86,5.26-1.08c.68-.11,1.23-.2,1.61-.24.2-.03.4-.05.6-.06Z" fill="#455b64"/>
      <path d="m246.24,91.66c.13.17.25.35.36.54.22.35.51.87.86,1.53.88,1.72,1.59,3.52,2.12,5.37.52,1.86.86,3.76,1,5.68.07.74.09,1.34.09,1.75.02.22.02.43,0,.65-.05-.21-.07-.42-.07-.64,0-.42-.08-1-.16-1.74-.21-1.91-.58-3.79-1.11-5.64-.53-1.84-1.22-3.63-2.05-5.36-.32-.66-.59-1.2-.79-1.56-.1-.19-.18-.38-.25-.58Z" fill="#455b64"/>
      <path d="m269.62,81.64c-.14.12-.3.23-.47.32l-1.29.85c-1.08.72-2.55,1.75-4.09,3s-2.86,2.47-3.79,3.39l-1.09,1.08c-.13.14-.27.27-.42.39.1-.16.22-.31.35-.45.24-.28.59-.67,1-1.14,1.18-1.22,2.44-2.38,3.76-3.45,1.33-1.08,2.71-2.08,4.16-3,.55-.34,1-.61,1.33-.78.17-.1.36-.17.55-.21Z" fill="#455b64"/>
      <path d="m247.61,65.72l.16.13.45.4c.38.34.92.86,1.58,1.51,1.32,1.29,3.08,3.14,4.91,5.28s3.38,4.19,4.45,5.69c.53.76.95,1.37,1.23,1.81l.32.5c.08.11.11.18.1.18-.05-.05-.09-.1-.13-.16l-.36-.47-1.29-1.76c-1.11-1.48-2.67-3.5-4.49-5.64s-3.57-4-4.85-5.32c-.63-.64-1.15-1.16-1.53-1.56l-.42-.43c-.09-.1-.14-.15-.13-.16Z" fill="#455b64"/>
      <path d="m271.89,54.82c-.13.19-.28.37-.44.54l-1.22,1.45c-1,1.22-2.4,2.94-3.82,4.93s-2.6,3.84-3.43,5.21l-1,1.62c-.11.2-.23.4-.37.58.08-.22.17-.42.29-.62.21-.4.52-1,.91-1.67.8-1.39,2-3.27,3.38-5.26s2.83-3.7,3.89-4.9c.53-.6,1-1.08,1.28-1.4.16-.18.34-.34.53-.48Z" fill="#455b64"/>
      <path d="m253.66,38.27c.12.2.23.42.32.64.19.42.45,1,.77,1.78.64,1.51,1.49,3.61,2.36,6s1.59,4.49,2.09,6.05c.25.78.44,1.42.57,1.86.08.22.14.45.17.69,0,0-.1-.23-.26-.66s-.38-1.09-.63-1.84c-.54-1.54-1.29-3.68-2.16-6s-1.69-4.45-2.29-6l-.7-1.8c-.1-.23-.18-.47-.24-.72Z" fill="#455b64"/>
      <path d="m23.39,69.51s5,20.32,27.17,15.66c0,0-6.44-20.57-27.17-15.66Z" fill="#199ed9"/>
      <path d="m34.12,100.28s10.19,15.19,27,4.68c.03.04-11.45-14.96-27-4.68Z" fill="#199ed9"/>
      <path d="m50.32,123.46s14.87,12.65,29.11-3c.04-.03-16.11-12.06-29.11,3Z" fill="#199ed9"/>
      <path d="m66.11,74.31s-16.5,7.92-8.49,26.09c0,0,16.45-9.24,8.49-26.09Z" fill="#199ed9"/>
      <path d="m69.69,96.21s-8.23,11.1,4,20.64c.03,0,7.73-11.98-4-20.64Z" fill="#199ed9"/>
      <path d="m31.54,45.75s-1.89,16.47,15.89,19.11c0,0,.89-17.07-15.89-19.11Z" fill="#199ed9"/>
      <path d="m57.05,29.09s-14.39,6-8.14,22.87c0,.04,14.41-7.2,8.14-22.87Z" fill="#199ed9"/>
      <path d="m65.73,53.15s-19,2.17-17.37,22.9c-.04,0,19.45-3.48,17.37-22.9Z" fill="#199ed9"/>
      <path d="m97.01,126.92l-.26-.05-.75-.17c-.66-.15-1.64-.36-2.87-.72-5.93-1.67-11.59-4.18-16.81-7.45-5.15-3.24-9.8-7.21-13.81-11.78l-1.61-1.93c-.52-.66-1-1.36-1.53-2l-.76-1-.71-1.08c-.47-.73-1-1.45-1.42-2.21-.87-1.53-1.77-3-2.49-4.58s-1.42-3.09-2.07-4.61c-1.17-2.97-2.12-6.01-2.84-9.12-1.25-5.26-1.82-10.66-1.7-16.06.11-3.64.51-7.26,1.22-10.83.26-1.26.53-2.23.69-2.88l.19-.75c.02-.08.04-.17.07-.25,0,0,0,.08-.05.25l-.17.76c-.14.66-.39,1.63-.64,2.89-.68,3.57-1.06,7.18-1.15,10.81-.09,5.39.5,10.76,1.74,16,.73,3.09,1.68,6.13,2.85,9.09.65,1.52,1.27,3.08,2.07,4.59s1.61,3,2.47,4.56c.46.75,1,1.47,1.42,2.2l.7,1.08.77,1c.51.68,1,1.37,1.52,2l1.6,1.92c3.99,4.56,8.62,8.52,13.74,11.76,2.11,1.35,4.31,2.57,6.57,3.65,3.27,1.58,6.67,2.87,10.16,3.88,1.23.38,2.21.6,2.86.77l.75.19.25.07Z" fill="#263238"/>
      <path d="m71.47,105.16c.05.15.08.3.1.45l.2,1.25c.17,1.05.42,2.51.73,4.1s.63,3,.87,4.08c.11.48.21.89.28,1.23.05.15.08.3.08.46-.07-.14-.13-.29-.16-.44-.09-.28-.22-.7-.36-1.21-.28-1-.62-2.47-.94-4.07s-.53-3.06-.66-4.13c-.06-.53-.11-1-.13-1.25-.03-.16-.03-.31-.01-.47Z" fill="#455b64"/>
      <path d="m67.42,121.65c.15-.06.3-.1.45-.13l1.25-.25c1.07-.2,2.54-.43,4.18-.63s3.12-.3,4.2-.35h1.28c.16-.03.31-.03.47,0-.15.04-.3.06-.46.07l-1.28.11c-1.07.09-2.55.23-4.19.42s-3.1.4-4.17.56l-1.26.18c-.16.03-.31.04-.47.02Z" fill="#455b64"/>
      <path d="m47.37,101.49c.19-.01.38-.01.57,0,.36.05.88.12,1.52.23,1.28.21,3,.55,5,1s3.65,1,4.89,1.37l1.45.49c.18.05.36.13.53.22-.19-.03-.37-.07-.55-.13l-1.48-.43c-1.25-.35-3-.83-4.89-1.3s-3.68-.83-4.95-1.08l-1.51-.3c-.2,0-.39-.02-.58-.07Z" fill="#455b64"/>
      <path d="m61.93,85.92c-.07.19-.16.38-.26.55-.19.34-.44.84-.75,1.47-.78,1.64-1.42,3.33-1.93,5.07-.5,1.74-.85,3.52-1.05,5.32-.08.7-.13,1.26-.16,1.65,0,.2-.02.4-.06.6-.03-.2-.03-.41,0-.61,0-.39,0-1,.08-1.65.16-1.82.5-3.62,1-5.37.5-1.76,1.17-3.46,2-5.08.32-.62.6-1.11.81-1.44.09-.18.2-.35.32-.51Z" fill="#455b64"/>
      <path d="m39.84,76.45c.17.05.33.13.48.23.31.16.74.42,1.26.74,1.37.85,2.68,1.79,3.93,2.8,1.25,1.01,2.44,2.1,3.55,3.26.43.45.76.82,1,1.08s.35.41.33.42c-.14-.11-.27-.23-.39-.36l-1-1c-.88-.86-2.13-2-3.58-3.2s-2.85-2.15-3.87-2.83l-1.22-.8c-.17-.1-.34-.21-.49-.34Z" fill="#455b64"/>
      <path d="m60.64,61.41c-.16.2-.33.38-.52.56l-1.44,1.47c-1.22,1.25-2.86,3-4.59,5s-3.2,3.93-4.24,5.33l-1.22,1.66c-.14.21-.3.41-.47.59.12-.22.25-.44.39-.65.27-.41.67-1,1.17-1.7,1-1.42,2.47-3.35,4.2-5.38s3.4-3.77,4.64-5c.62-.62,1.14-1.1,1.5-1.43.18-.17.37-.32.58-.45Z" fill="#455b64"/>
      <path d="m37.7,51.1c.17.14.33.3.47.46.3.3.71.75,1.21,1.32,1.3,1.48,2.53,3.03,3.67,4.63,1.34,1.88,2.45,3.66,3.2,5,.37.66.66,1.2.85,1.58.12.18.21.38.28.59-.13-.17-.25-.36-.35-.55l-.92-1.53c-.79-1.29-1.91-3.05-3.25-4.93s-2.64-3.5-3.6-4.65l-1.16-1.37c-.16-.17-.29-.35-.4-.55Z" fill="#455b64"/>
      <path d="m54.92,35.47c-.06.22-.13.43-.22.64l-.67,1.7c-.56,1.44-1.34,3.44-2.16,5.65s-1.53,4.23-2,5.69c-.24.7-.44,1.29-.6,1.73-.06.22-.15.43-.25.63.04-.22.09-.44.16-.65.12-.42.31-1,.54-1.76.47-1.47,1.16-3.5,2-5.72s1.62-4.2,2.22-5.63c.3-.71.56-1.28.74-1.68.06-.21.14-.41.24-.6Z" fill="#455b64"/>
      <path d="m96.99,56.2c3.21.41,3.69,3.7,4.88,6.46s3.46,5.22,5.21,7.69c.93,1.31,2.19,2.48,2.52,4s-.39,3.3-.74,5-.1,3.67,1.48,4.4c-.36.42-.9.64-1.45.61-.11.83-.74,1.49-1.57,1.64-.81.17-1.64.17-2.45,0,.22.5-.24,1.11-.81,1.31-.58.16-1.18.16-1.76,0-.58-.16-1.18-.2-1.77-.12-1.3.28-2.09,1.75-3.41,1.94-1.81.26-3.12-2.06-4.91-1.65-.84.19-1.4.92-2.09,1.43-.67.51-1.62.38-2.13-.28-.02-.02-.03-.04-.05-.07-1,1.32-2.4,2.27-4,2.7.23-.54.1-1.16-.31-1.58-.86.7-1.9,1.15-3,1.31.67-.61,1.03-1.49,1-2.39-.74.58-1.71.79-2.63.57,1.62-.92,1.78-3.06,1.2-4.67s-1.66-3-1.87-4.74,1.93-4.18,1.51-6c-.54-2.32-.7-4.72-.49-7.09.19-1.69.73-3.33,1.57-4.81.88-1.97,2.38-3.6,4.28-4.63,1.87-1.08,3.96-1.72,6.11-1.88,3.47-.07,4.89-.18,7.64,1.66" fill="#263238"/>
      <path d="m86.32,78.93c-1.14-2.22-2.09-4.54-2.83-6.92-.74-2.39-.87-4.93-.39-7.39.08-.36.88-2.87,1.26-2.88s-.12,2.28,0,2.49c1.52,2.11,2.37,4.62,2.43,7.22.1,2.5-.07,5.01-.51,7.48" fill="#263238"/>
      <path d="m101.48,100c-3.84.43-13.09-3.6-13.6-7.43l-3.12-23.06c-1-6.16,1.7-11.9,7.89-12.77h.58c5.8-.47,11,3.6,11.93,9.35.86,5.35,1.75,11.27,1.95,14.16.4,6-5.5,7.4-5.5,7.4,0,0,.15,1.38.36,3.13.37,3.09.2,6.22-.49,9.26v-.04Z" fill="#fbbd9d"/>
      <path d="m101.61,87.63c-2.77.22-5.55-.37-8-1.68,0,0,2.24,4.35,8.16,3.33l-.16-1.65Z" fill="#ec996f"/>
      <path d="m102.93,71.28c.04.46-.3.87-.76.92-.44.08-.86-.22-.94-.66,0,0,0-.02,0-.03-.04-.46.3-.88.76-.93.45-.07.87.24.94.68,0,0,0,.01,0,.02Z" fill="#263238"/>
      <path d="m104.1,68.81c-.1.12-.79-.3-1.71-.23s-1.55.59-1.66.49,0-.26.32-.5c.38-.31.84-.49,1.32-.52.48-.04.95.07,1.36.32.3.19.41.39.37.44Z" fill="#263238"/>
      <path d="m94.32,72c.04.46-.3.88-.76.93-.45.07-.87-.25-.94-.7-.04-.46.3-.87.76-.93.45-.07.87.24.94.68,0,0,0,.01,0,.02Z" fill="#263238"/>
      <path d="m95.1,69.75c-.09.12-.78-.31-1.7-.23s-1.55.59-1.66.48,0-.25.31-.49c.38-.31.84-.49,1.33-.53.48-.04.95.08,1.36.33.3.19.41.38.36.44Z" fill="#263238"/>
      <path d="m98.97,76.55c.47-.2.96-.33,1.47-.39.23,0,.45-.11.48-.27,0-.25-.08-.49-.22-.69l-.83-1.73c-.77-1.46-1.42-2.98-1.94-4.55.88,1.4,1.65,2.86,2.3,4.38l.81,1.75c.17.27.23.59.19.91-.06.17-.19.31-.36.37-.12.05-.26.08-.39.09-.5.11-1,.15-1.51.13Z" fill="#263238"/>
      <path d="m94.75,66.32c-.11.24-1,.07-2.11.13s-2,.31-2.11.07.11-.33.48-.55c.49-.28,1.03-.43,1.59-.45.56-.03,1.11.07,1.62.29.39.19.57.39.53.51Z" fill="#263238"/>
      <path d="m103.71,66.68c-.18.23-.94.08-1.84.16s-1.65.3-1.84.09,0-.31.32-.54c.89-.59,2.03-.67,3-.21.31.19.43.39.36.5Z" fill="#263238"/>
      <path d="m85.61,73.92c-.11,0-4.21-.88-3.75,3.19s4.46,2.78,4.45,2.66-.7-5.85-.7-5.85Z" fill="#fbbd9d"/>
      <path d="m84.89,78.37s-.06.06-.18.12c-.16.09-.35.12-.53.07-.58-.27-.96-.84-1-1.48-.04-.34-.01-.68.09-1,.05-.27.22-.49.47-.61.16-.06.35,0,.44.15.07.11.05.19.07.2s.08-.08,0-.24c-.03-.1-.1-.19-.19-.24-.12-.07-.26-.09-.4-.06-.33.1-.59.37-.67.71-.14.37-.18.78-.12,1.17.04.75.53,1.39,1.23,1.64.23.04.47-.02.64-.18.16-.15.17-.25.15-.25Z" fill="#ec996f"/>
      <path d="m101.7,59.64c.62-.44-1.62-2.34-3.33-2.88-2.59-.81-6.41-1-8.59-.13-2.59.91-4.68,2.86-5.78,5.37-1.01,2.68-1.29,5.58-.81,8.4.07.87.38,1.71.88,2.42.68.83,1.84,1.27,1.94,2.51.02.46.23.89.58,1.2.84.7,1.66-.16,2-.95.57-1.76.71-3.63.42-5.46-.03-1.31-.27-2.61-.72-3.85-.28-.65-.68-1.25-.93-1.92-.3-.66-.3-1.41,0-2.07.09-.13.18-.26.29-.38,1.03-1.15,2.61-1.65,4.12-1.31,2.39.53,6.46,1.27,7.39.37.67-.58,1.22-1.28,1.6-2.08l.94.76Z" fill="#263238"/>
      <path d="m96.51,77.34c-.05,0-.06.24.06.59.17.45.49.83.89,1.1.38.26.82.45,1.27.55.34.07.55.08.57,0s-.17-.17-.47-.32c-.39-.18-.77-.38-1.13-.61-.82-.51-1.06-1.35-1.19-1.31Z" fill="#263238"/>
      <path d="m85.74,74.45c0,.07.07.15.1.23s-.04-.08-.1-.23Z" fill="#f3725f"/>
      <path d="m84.32,73.83s.69-.9,1.4.62c-.85-2-6.5-16.45,9-18.36,0,0-5.6-1-9,1.8.04,0-6.82,4.11-1.4,15.94Z" fill="#455b64"/>
      <path d="m113.96,146.8l-36,.49s-10.07-4.22-12.84-4.33-8.25.24-10.79,4.33-3,11.68,5.1,17.1c7.87,5.27,43.9,10.15,48.84,9.7l9.1-12.22s.1-10,0-10.49-1.62-4.77-1.62-4.77l-1.79.19Z" fill="#363535"/>
      <path d="m92.41,163.7l-18.65,6.93,8.5,23.26c2.17-1,2.23-14.61,2.23-14.61l12.13-4-4.21-11.58Z" fill="#f9bb1e"/>
      <g fill="none" opacity=".6">
        <path d="m82.87,171.72c-.31-.42-.89-.53-1.33-.26-.41.3-.53.87-.27,1.31.33.43.94.55,1.41.27.42-.35.48-.98.13-1.4" fill="#fff"/>
      </g>
      <path d="m73.76,170.63l1.88-.7,7.46,22.61s-.07,1.2-.84,1.35l-8.5-23.26Z" fill="#263238"/>
      <path d="m84.75,179.61c-.12,0-.38-.51-.95-.94s-1.15-.54-1.15-.66.73-.2,1.41.33.8,1.26.69,1.27Z" fill="#263238"/>
      <path d="m84.63,182.42c-.1.06-.47-.36-1.1-.57s-1.17-.13-1.2-.25.58-.42,1.34-.14,1.07.92.96.96Z" fill="#263238"/>
      <path d="m87.41,178.4c-.12,0-.15-.58-.43-1.21s-.67-1-.59-1.15.66.24,1,1,.13,1.39.02,1.36Z" fill="#263238"/>
      <path d="m89.97,176.84c-.05,0-.28-.4-.42-1.17-.08-.45-.11-.9-.07-1.35.01-.27.05-.54.11-.8.02-.16.07-.31.14-.45.11-.21.35-.33.59-.27.2.06.36.2.44.4.05.15.09.3.1.46.02.27.02.54,0,.81-.03.46-.14.91-.31,1.33-.3.73-.66,1.07-.69,1s.2-.43.41-1.13c.13-.41.2-.83.21-1.25.01-.25.01-.49,0-.74,0-.27-.1-.48-.23-.51s-.07,0-.12.08c-.05.1-.09.22-.11.33-.06.24-.1.49-.13.74-.04.43-.04.86,0,1.29.05.41.08.82.08,1.23Z" fill="#263238"/>
      <path d="m89.75,176.75s.29-.4,1-.72c.43-.17.88-.28,1.34-.3.27-.03.54-.03.81,0,.36,0,.69.2.86.52.07.22.01.45-.15.61-.11.11-.24.2-.38.27-.24.14-.51.24-.78.29-.46.1-.94.08-1.39-.06-.77-.23-1.08-.65-1-.68.36.15.73.29,1.11.4.41.09.82.09,1.23,0,.23-.05.46-.14.67-.26.23-.13.4-.3.34-.38s-.3-.24-.53-.27c-.67-.12-1.35-.07-2,.14-.71.22-1.09.5-1.13.44Z" fill="#263238"/>
      <path d="m107.8,160.83l18.05,8.37-10.3,22.52c-2.09-1.12-1.08-14.74-1.08-14.74l-11.79-4.89,5.12-11.26Z" fill="#f9bb1e"/>
      <g fill="none" opacity=".6">
        <path d="m116.68,169.57c.34-.39.92-.46,1.34-.16.39.34.46.91.16,1.33-.36.41-.98.48-1.42.16-.38-.39-.38-1.01,0-1.4" fill="#fff"/>
      </g>
      <path d="m125.85,169.2l-1.82-.84-9.22,21.94s0,1.21.74,1.42l10.3-22.52Z" fill="#263238"/>
      <path d="m114.19,177.29c.11,0,.41-.48,1-.86s1.2-.45,1.2-.58-.71-.24-1.43.23-.88,1.19-.77,1.21Z" fill="#263238"/>
      <path d="m114.08,180.1c.1.07.5-.32,1.14-.48s1.18,0,1.22-.15-.54-.47-1.33-.26-1.13.84-1.03.89Z" fill="#263238"/>
      <path d="m116.32,182.73c.06-.09-.42-.49-1.15-.48s-1.2.41-1.13.5.54-.09,1.14-.08,1.05.17,1.14.06Z" fill="#263238"/>
      <path d="m111.62,175.88c.13,0,.2-.58.53-1.18s.75-1,.68-1.1-.68.19-1.05.91-.27,1.38-.16,1.37Z" fill="#263238"/>
      <path d="m109.2,174.12c.27-.33.44-.72.51-1.13.11-.44.17-.89.18-1.35,0-.27-.02-.53-.05-.8-.01-.16-.05-.31-.11-.46-.09-.22-.32-.36-.56-.32-.21.04-.38.18-.47.37-.07.14-.12.29-.14.45-.05.27-.08.54-.08.81,0,.46.07.91.21,1.35.24.74.57,1.11.61,1.08s-.17-.44-.33-1.16c-.08-.41-.12-.84-.1-1.26,0-.25.04-.5.1-.74,0-.27.13-.47.27-.49s.06,0,.11.09c.04.11.07.22.08.34.04.25.06.5.07.75,0,.43-.02.86-.08,1.28-.1.39-.18.79-.22,1.19Z" fill="#263238"/>
      <path d="m109.42,174.05s-.26-.43-.95-.8c-.41-.21-.85-.35-1.31-.41-.27-.03-.54-.03-.81,0-.36-.02-.7.15-.9.45-.09.21-.05.45.1.62.1.12.23.22.36.3.23.16.49.28.76.35.45.12.93.12,1.38,0,.79-.17,1.13-.57,1.1-.59s-.43.22-1.14.3c-.41.05-.83,0-1.23-.13-.23-.07-.44-.18-.64-.32-.22-.14-.37-.32-.31-.4.14-.15.34-.23.55-.22.25-.03.49-.03.74,0,.42.04.83.14,1.22.29.68.3,1.04.61,1.08.56Z" fill="#263238"/>
      <path d="m115.75,146.61s15.55-5.81,21.27-5.06c3.2.42,8.21,2.86,8.59,7s-.62,9.59-6.15,12.26-27.62,12.58-32.86,14.11-18.28,5.08-18.28,5.08l-5-14.16s27.11-9.39,28.54-10.44c1.61-.97,3.3-1.8,5.06-2.48l-1.17-6.31Z" fill="#363535"/>
      <path d="m61.71,148.53h.1l.32-.09c.27-.08.68-.2,1.21-.33.64-.15,1.29-.27,1.94-.34.87-.08,1.75-.08,2.62,0,1.05.09,2.1.28,3.11.59.56.17,1.11.38,1.64.64l1.7.83c2.32,1.11,4.92,2.25,7.69,3.34,4.76,1.78,9.66,3.16,14.65,4.13,1.9.42,3.44.77,4.5,1l1.22.29.31.07h.11-.1l-.32-.09c-.27-.08-.68-.19-1.21-.32-1.05-.27-2.59-.64-4.49-1.07-4.97-1-9.86-2.4-14.61-4.18-2.77-1.09-5.36-2.22-7.69-3.32l-1.69-.82c-.54-.26-1.1-.47-1.67-.64-1.02-.3-2.08-.5-3.14-.58-.87-.09-1.76-.09-2.63,0-.68.07-1.34.19-2,.37-.41.1-.81.22-1.2.36l-.31.11-.06.05Z" fill="#455b64"/>
      <path d="m62.52,146.48s.48-.06,1.24-.14c1-.1,2-.13,3-.08,1.01.05,2.01.18,3,.39.75.16,1.21.29,1.22.26l-.31-.12-.88-.26c-.98-.24-1.99-.39-3-.44-1-.05-2.01,0-3,.14-.3.04-.6.09-.89.16l-.38.09Z" fill="#455b64"/>
      <path d="m122.32,150.72s.45-.31,1.2-.77c.97-.6,2-1.09,3.07-1.48,1.08-.37,2.2-.64,3.33-.78.87-.11,1.41-.12,1.41-.15-.13-.01-.25-.01-.38,0h-1c-1.15.11-2.27.36-3.36.74-1.09.39-2.13.9-3.09,1.54-.29.19-.57.39-.84.61-.12.09-.24.18-.34.29Z" fill="#455b64"/>
      <path d="m114.49,171.84l-.12.05-.35.14c-.32.13-.77.34-1.38.58-1.21.48-3,1.14-5.29,1.89-4.59,1.5-11.2,3.41-19.1,5.4h.09l-4.8-13.34v.11l5.95-2.45,32.94-13.55h0c1.34-1.42,2.57-2.67,3.73-3.68.98-.86,2.03-1.65,3.13-2.35.69-.44,1.41-.84,2.14-1.2l.58-.27.19-.09-.2.08-.58.25c-.74.35-1.47.75-2.17,1.18-1.11.7-2.16,1.48-3.15,2.34-1.16,1-2.41,2.25-3.75,3.67h0l-33,13.51-5.95,2.44h-.08v.08c1.71,4.74,3.34,9.25,4.82,13.33v.07h.07c7.9-2,14.5-3.94,19.09-5.46,2.29-.77,4.07-1.44,5.28-1.94.61-.24,1.06-.46,1.37-.59l.34-.16.2-.04Z" fill="#455b64"/>
      <path d="m76.06,97.06s-4.47,2.58-5.38,5.61c-.55,1.84-4.73,25.37-5.39,30s.74,8.08,2.71,9.62,8,3.59,8,3.59l8.44,2.73,2.42-6.15-8-11.54.77-7.78-3.57-26.08Z" fill="#cb1f46"/>
      <path d="m84.86,93l2.79-2.06s3.64,3.72,7.82,3.28c2.59-.34,4.97-1.63,6.65-3.63l12.46,2.53h0c1.59.38,2.97,1.38,3.82,2.78,1.63,2.33,9.33,12.63,9.33,12.63h5.4c1.49,0,2.86.82,3.55,2.14.92,1.76,2,4.1,1.92,5.08-.18,1.64.14,6.15-2.07,7.56-1.54.99-3.31,1.58-5.14,1.7-2.91-.3-5.7-1.33-8.11-3-2.42-2.05-4.71-4.25-6.85-6.59h0l-.93,32.68-32.67-.93-6.77-50.16s8.47-4.01,8.8-4.01Z" fill="#cb1f46"/>
      <path d="m116.55,101.75c-.05,0-.13,4-.19,9s-.07,9,0,9,.14-4,.19-9,.04-9,0-9Z" fill="#263238"/>
      <path d="m72.11,128.17c.25.06.51.11.77.14.69.14,1.36.36,2,.64.96.43,1.86.98,2.69,1.63,1.02.79,1.97,1.67,2.84,2.62.94,1,1.79,2,2.59,2.9.7.79,1.45,1.55,2.23,2.26.52.49,1.08.93,1.67,1.34.2.15.38.25.49.32l.18.1-.16-.13-.47-.34c-.57-.42-1.11-.88-1.63-1.37-.66-.62-1.4-1.4-2.19-2.29s-1.65-1.89-2.59-2.9c-.87-.96-1.83-1.84-2.86-2.63-.84-.65-1.76-1.19-2.74-1.62-.66-.28-1.35-.48-2.06-.59-.19-.04-.39-.06-.58-.07h-.18Z" fill="#263238"/>
      <path d="m71.37,126s.49.1,1.27.31c1.01.29,1.98.7,2.89,1.24.9.55,1.73,1.23,2.46,2,.56.58.86,1,.88,1-.04-.11-.1-.21-.18-.3-.19-.26-.39-.51-.61-.75-.72-.78-1.55-1.46-2.46-2-.93-.55-1.94-.96-3-1.2-.31-.08-.63-.14-.95-.18l-.3-.12Z" fill="#263238"/>
      <g fill="none" opacity=".3">
        <path d="m132.17,120.22c-1.73.47-3.81-2-5.38-3.57-.9-.74-1.59-1.7-2-2.79-.21-.94-.11-1.91.28-2.79.29-.79.67-1.54,1.15-2.23-.3,1.68-.3,3.41,0,5.09.45,1.35,1.21,2.58,2.22,3.59.95,1.25,2.25,2.18,3.73,2.7"/>
      </g>
      <path d="m124.78,118.8s-.17-.57-.33-1.51c-.1-.55-.15-1.1-.16-1.66-.01-.67.03-1.34.13-2,.11-.68.28-1.35.5-2,.18-.52.4-1.04.66-1.53.45-.85.81-1.32.78-1.34-.19.23-.37.48-.54.73-.12.18-.24.36-.34.55-.27.49-.51,1.01-.71,1.54-.23.65-.4,1.32-.51,2-.1.68-.14,1.37-.13,2.06.02.56.09,1.13.2,1.68.04.21.09.42.15.63.04.16.08.32.14.47.04.13.09.26.16.38Z" fill="#263238"/>
      <path d="m100.76,91.84s.36.27.76.63.67.71.71.68c-.29-.62-.82-1.1-1.47-1.31Z" fill="#263238"/>
      <path d="m97.32,93.82s.29.38.56.9.36,1,.41,1c.03-.37-.06-.74-.26-1.06-.14-.35-.39-.64-.71-.84Z" fill="#263238"/>
      <path d="m91.54,95.86c.16-.32.29-.65.37-1,.15-.32.26-.66.34-1-.23.27-.4.59-.49.93-.15.34-.22.7-.22,1.07Z" fill="#263238"/>
      <path d="m87.8,94.09c.05,0,.17-.55.54-1.16s.81-1,.78-1c-.39.21-.71.54-.92.94-.26.36-.4.78-.4,1.22Z" fill="#263238"/>
      <path d="m77.04,104.68s.51,4.47,1.23,10,1.36,10,1.41,9.95-.51-4.47-1.24-10-1.35-9.96-1.4-9.95Z" fill="#263238"/>
      <path d="m125.99,111.91c0,.15,0,.31,0,.46.01.18.04.36.07.54l.06.33c0,.12.06.24.09.37.16.6.37,1.19.64,1.75.34.7.74,1.37,1.2,2,.47.6,1.01,1.16,1.6,1.65.49.4,1.02.74,1.6,1l.35.15.33.09.29.08h.7c-.55-.11-1.1-.28-1.62-.5-.56-.26-1.08-.6-1.55-1-.58-.49-1.1-1.03-1.56-1.63-.45-.6-.85-1.24-1.2-1.91-.27-.55-.49-1.13-.67-1.72-.28-1-.29-1.67-.33-1.66Z" fill="#263238"/>
      <g fill="none" opacity=".3">
        <path d="m78.09,149.27c-1.38-.67-1.7-2.47-1.84-4-.41-4.49-.82-8.98-1.24-13.47-.2-2.11-.29-4.52,1.2-6s3.52-1.46,5.45-1.45c12,0,22.51.38,34.47.41l-.61,20.92-37.43,3.59Z"/>
      </g>
      <path d="m121.32,128l-1.27,24.26c-.06.94-.84,1.67-1.78,1.66l-38.63.07c-.94,0-1.73-.73-1.78-1.67l-1.48-23.84c-.05-1,.66-2.31,1.66-2.33h41.47c.98-.02,1.79.75,1.81,1.73,0,.04,0,.08,0,.12Z" fill="#e0e0e0"/>
      <path d="m121.32,128v-.09c0-.09,0-.18,0-.27-.06-.35-.22-.68-.46-.94-.18-.2-.4-.35-.65-.44-.3-.11-.61-.16-.93-.13h-41.12c-.28-.02-.56.06-.8.21-.23.15-.43.34-.59.57-.32.46-.49,1.01-.49,1.57,0,.54.07,1.08.1,1.63.13,2.18.27,4.41.41,6.68.28,4.54.57,9.24.87,14v.9c0,.3,0,.59.08.91.12.62.56,1.14,1.16,1.36.29.1.6.14.91.12h37.98c.22.02.45.02.67,0,.45-.06.86-.29,1.16-.64.28-.34.43-.78.43-1.22l.06-1.25.13-2.43c.32-6.3.57-11.41.75-14.94.09-1.77.16-3.14.2-4.07v-1.42.36l-.06,1.06c0,.93-.13,2.3-.23,4.06-.19,3.54-.47,8.64-.81,15l-.13,2.42-.07,1.25c.03.87-.61,1.63-1.48,1.74h-38.63c-.29.02-.58-.02-.85-.11-.54-.21-.94-.68-1.06-1.25,0-.27,0-.59-.07-.88l-.05-.9c-.3-4.81-.59-9.51-.87-14-.15-2.27-.28-4.5-.42-6.68,0-.54-.06-1.09-.1-1.63,0-.52.17-1.04.46-1.47.26-.45.74-.72,1.26-.71h41.12c.31-.02.62.02.92.12.58.22,1.01.73,1.1,1.35.04.05.07.11.1.16Z" fill="#263238"/>
      <path d="m96.25,139.8c0,1.26,1.01,2.28,2.27,2.29s2.28-1.01,2.29-2.27c0-1.26-1.01-2.28-2.27-2.29h-.01c-1.26,0-2.27,1.01-2.28,2.27Z" fill="#fff"/>
      <path d="m96.25,139.8s0-.2.1-.54c.13-.49.42-.92.83-1.22.28-.2.6-.34.94-.4.39-.07.78-.04,1.15.1.4.15.75.42,1,.77.57.77.57,1.82,0,2.59-.72.98-2.1,1.2-3.09.48,0,0-.01-.01-.02-.02-.4-.3-.7-.72-.83-1.21-.09-.34-.08-.55-.1-.55s0,0,0,.15c-.01.14-.01.28,0,.42.11.51.4.97.82,1.29.3.22.64.38,1,.45.41.08.84.05,1.24-.1.44-.15.82-.43,1.09-.81.3-.4.46-.9.46-1.4,0-.5-.16-.99-.46-1.39-.27-.38-.65-.66-1.09-.82-.4-.14-.83-.17-1.24-.09-.37.06-.71.22-1,.45-.41.32-.7.78-.82,1.29-.02.14-.02.28,0,.42.01.09.01.14.02.14Z" fill="#263238"/>
      <path d="m119.98,130.66s-.24,4.07-.43,9.1-.3,9.11-.26,9.11.24-4.07.43-9.1.3-9.11.26-9.11Z" fill="#263238"/>
      <path d="m131.59,99c.23-.19-.76-4-.76-4,0,0,2.62-4.27,2.69-5.65-.13-1.44-.47-2.86-1-4.21l-7.52-1.93c-1.08,1.97-2.04,3.99-2.89,6.07-.49,1.59.82,7,.82,7l1.28,2.75s3.8,3.02,7.38-.03Z" fill="#fbbd9d"/>
      <path d="m133.5,90.18c.3-.54.56-1.1.79-1.67.48-1.12,1.06-2.23,0-2.86-.33-.22-.74-.28-1.13-.18,0,0,.16-1-.4-1.31-.34-.21-.75-.24-1.12-.09,0,0,.18-1.35-.64-1.91-.63-.41-1.43-.43-2.08-.06,0,0,.65-5.87.7-6.18.21-1.14-.21-2.15-1.35-1.87-.41.1-.64.54-1.13,2.45s-1.27,5.17-1.27,5.17c0,0-1.32,2.3-2,3.54-.8,1.55-1.47,3.17-2,4.83-.05,1.55.25,3.09.87,4.51l8,.46s2.46-4.27,2.76-4.83Z" fill="#fbbd9d"/>
      <path d="m133,85.72c-.23.27-.43.56-.62.86-.18.29-.4.62-.63,1-.13.19-.24.39-.34.6-.11.24-.15.5-.1.76.05.27.25.5.51.59.24.06.5.03.72-.09.19-.09.36-.2.53-.33l.43-.32c.26-.2.46-.38.6-.5s.2-.2.19-.21-.33.24-.86.62c-.32.23-.65.43-1,.6-.18.1-.4.12-.6.07-.21-.07-.36-.25-.39-.47-.04-.22-.02-.45.08-.66.09-.2.2-.39.32-.58l.6-1c.21-.3.4-.61.56-.94Z" fill="#ec996f"/>
      <path d="m126.45,86.42c.07-.42.04-.85-.09-1.26-.08-.42-.24-.81-.49-1.15-.05,0,.17.53.33,1.19s.2,1.22.25,1.22Z" fill="#ec996f"/>
      <path d="m123.32,88.13c.74-.71,1.67-1.19,2.67-1.39.99-.19,2-.23,3-.12.82-.03,1.61.34,2.11,1,.31.82-.04,1.73-.8,2.15-.76.37-1.61.5-2.45.37-.83-.14-1.67-.17-2.51-.1" fill="#fbbd9d"/>
      <path d="m125.32,90.05h.63c.57.02,1.14.08,1.71.16.4.04.8.04,1.2,0,.47,0,.93-.12,1.35-.34.47-.24.83-.66,1-1.16.09-.27.11-.55.06-.83-.07-.29-.22-.54-.44-.74-.45-.34-.98-.55-1.54-.6-.5-.06-1.01-.09-1.52-.09-.86-.01-1.72.12-2.54.39-.55.18-1.07.46-1.52.82-.12.1-.24.2-.35.32l-.11.12s.17-.15.5-.39c.46-.34.97-.59,1.52-.76.81-.25,1.65-.36,2.5-.34.5,0,1,.03,1.5.1.53.04,1.03.23,1.44.56.2.17.33.4.39.65.07.24.07.5,0,.74-.15.46-.48.85-.91,1.08-.4.2-.83.31-1.28.33-.39.04-.79.04-1.18,0-.57-.07-1.15-.11-1.73-.11-.16,0-.31,0-.47,0l-.21.09Z" fill="#ec996f"/>
      <path d="m132.94,85.81c-.84,1.28-1.58,2.68-2.29,4-.17.4-.45.74-.8,1-.3.19-1.06-.15-1.39-.27l2.31-5.25" fill="#fbbd9d"/>
      <path d="m130.77,85.37c-.08.12-.15.25-.21.39-.13.29-.3.66-.51,1.1-.43.94-1,2.25-1.67,3.73v.08h.08c.25.09.52.2.81.28.12.01.23.01.35,0,.06,0,.13,0,.19,0,.06-.02.12-.05.17-.09.19-.13.35-.3.47-.49.24-.38.4-.75.59-1.1.36-.7.7-1.32,1-1.84s.53-.94.7-1.22c.1-.14.19-.3.25-.46-.11.13-.21.27-.3.42-.19.28-.45.69-.75,1.2s-.65,1.14-1,1.83c-.19.34-.36.73-.59,1.08-.11.18-.25.33-.42.45-.18.09-.4.09-.58,0-.27-.07-.54-.16-.8-.26l.05.11c.65-1.49,1.22-2.8,1.62-3.75l.47-1.12c.03-.11.06-.23.08-.34Z" fill="#ec996f"/>
      <path d="m131.39,83.81l-2.23,5.58c-.13.41-.33.79-.6,1.12-.27.34-.69.52-1.12.49-.59-.15-1-.68-1-1.29.03-.59.17-1.16.42-1.69.67-1.7,1.2-3.44,1.6-5.22" fill="#fbbd9d"/>
      <path d="m128.47,82.8s0,.05-.06.17l-.13.49c-.12.43-.28,1-.52,1.8s-.54,1.65-.92,2.63c-.24.5-.4,1.04-.47,1.59-.02.31.04.61.17.89.14.29.37.53.67.66.31.11.65.08.94-.08.27-.15.49-.36.65-.62.27-.49.5-.99.68-1.52l1-2.59c.28-.73.51-1.32.67-1.76l.18-.48c.02-.06.04-.11.05-.17,0,0,0,.05-.08.16l-.21.47c-.18.43-.42,1-.72,1.73s-.65,1.62-1,2.59c-.18.51-.4,1.01-.66,1.48-.15.24-.36.43-.6.56-.25.13-.54.16-.8.07-.26-.11-.47-.31-.58-.57-.12-.25-.17-.53-.15-.81.07-.54.22-1.06.44-1.55.38-1,.67-1.88.9-2.64s.37-1.39.46-1.83c.05-.21.08-.38.1-.5,0-.06,0-.11,0-.17Z" fill="#ec996f"/>
      <path d="m136.51,112.66c-.2-.73-5.3-15.76-5.3-15.76l-8.4-1,3.44,12.95c-.29,1.73-.29,3.5,0,5.23.53,2,4.83,7.25,7,6s3.46-6.68,3.26-7.42Z" fill="#fbbd9d"/>
      <path d="m126.25,94.56c.16.03.33,0,.48-.06.37-.12.71-.32,1-.58.29-.28.52-.62.67-1,.08-.14.11-.31.1-.47-.37,1.02-1.22,1.79-2.26,2.07v.04Z" fill="#ec996f"/>
    </g>
  </g>
</svg>