<?xml version="1.0" encoding="UTF-8"?>
<svg id="Layer_2" data-name="Layer 2" xmlns="http://www.w3.org/2000/svg" viewBox="0 0 246.95 193.81">
  <g id="Layer_1-2" data-name="Layer 1">
    <g>
      <rect x="224.95" y="178.95" width="17.26" height=".13" fill="#ebebeb"/>
      <rect x="175.86" y="180.36" width="4.53" height=".13" fill="#ebebeb"/>
      <rect x="214.43" y="174.11" width="10" height=".13" fill="#ebebeb"/>
      <rect x="35.18" y="174.99" width="22.5" height=".13" fill="#ebebeb"/>
      <rect x="62.31" y="174.99" width="3.3" height=".13" fill="#ebebeb"/>
      <rect x="76.33" y="177.19" width="48.8" height=".13" fill="#ebebeb"/>
      <path d="m131.3,147.33H30.74c-1.64,0-2.97-1.33-2.97-2.97V2.97C27.77,1.33,29.1,0,30.74,0h100.59c1.64,0,2.97,1.33,2.98,2.97v141.38c0,1.64-1.32,2.98-2.97,2.99-.01,0-.02,0-.03,0ZM30.72.12c-1.57,0-2.84,1.27-2.85,2.83v141.39c0,1.57,1.28,2.83,2.85,2.83h100.59c1.57,0,2.84-1.27,2.85-2.83V2.97c0-1.57-1.28-2.83-2.85-2.83H30.72Z" fill="#ebebeb"/>
      <path d="m243.97,147.33h-100.59c-1.64,0-2.97-1.33-2.97-2.97V2.97C140.42,1.33,141.75,0,143.39,0h100.59c1.64,0,2.97,1.32,2.98,2.96h0v141.39c.01,1.64-1.31,2.98-2.94,2.99h-.03ZM143.39.12c-1.56,0-2.83,1.27-2.83,2.83v141.39c0,1.56,1.27,2.83,2.83,2.83h100.59c1.57,0,2.84-1.27,2.85-2.83V2.97c0-1.57-1.28-2.83-2.85-2.83h-100.59Z" fill="#ebebeb"/>
      <rect y="168.17" width="226.66" height=".13" fill="#ebebeb"/>
      <path d="m222.99,116.81l2.27,1.66h0l2.2-1.86c6.89-5.98,14.71-12.57,8.55-17.94-4.26-3.74-9.21-.25-11.71,2.01-2.64-2.1-8.2-8.04-12.88-.81-3.81,6.02,4.33,11.41,11.57,16.94Z" fill="#ebebeb"/>
      <path d="m235.76,101.02c-.39.02-.7.36-.67.75.02.39.36.7.75.67.39-.02.7-.36.67-.75-.02-.36-.31-.65-.67-.67h-.08Z" fill="#fff" isolation="isolate" opacity=".5"/>
      <path d="m233.06,109.19c1.9-1.23,0-5.49,2.38-5.91,1.75.67-.03,4.33-2.38,5.91Z" fill="#fff" isolation="isolate" opacity=".5"/>
      <rect x="46.02" y="115.18" width="24.94" height="12.22" rx="4.38" ry="4.38" transform="translate(-42.4 32.11) rotate(-22.78)" fill="#ebebeb"/>
      <path d="m52.5,123.28l-.96.4-.23-.56,2.58-1.1.23.55-.94.41,1.01,2.39-.69.3-1-2.38Z" fill="#fff"/>
      <path d="m58.03,121.11l.13,2.63-.64.26-1.1-1.2.07,1.64-.63.26-1.78-1.93.62-.25,1.19,1.31-.09-1.77.56-.24,1.19,1.32-.09-1.78.57-.24Z" fill="#fff"/>
      <path d="m61.05,121.4l-1.72.71c.2.26.56.34.85.19.22-.08.39-.25.47-.46l.52.23c-.14.36-.43.64-.79.77-.63.34-1.4.1-1.74-.52-.02-.03-.03-.07-.05-.1-.28-.63.01-1.37.65-1.65.03-.01.05-.02.08-.03.61-.3,1.34-.04,1.63.56.02.04.04.08.05.12.03.06.05.12.07.19Zm-1.89.34l1.1-.47c-.15-.26-.48-.37-.76-.24-.29.11-.44.42-.34.71Z" fill="#fff"/>
      <path d="m63.69,120.27l-1.72.73c.2.26.56.34.85.19.22-.08.39-.25.47-.46l.52.23c-.13.36-.42.64-.78.77-.63.34-1.4.1-1.74-.52-.02-.03-.03-.07-.05-.1-.28-.62,0-1.36.62-1.64.03-.01.06-.03.09-.04.61-.3,1.34-.04,1.63.56.02.04.04.08.05.12,0,0,.07.08.07.18Zm-1.89.35l1.1-.47c-.15-.26-.48-.37-.76-.24-.28.12-.42.43-.32.71h-.02Z" fill="#fff"/>
      <path d="m65.99,120.32c-.12.17-.28.29-.47.36-.38.23-.88.11-1.12-.28-.03-.06-.06-.12-.08-.18l-.4-.93-.35.15-.21-.51.35-.15-.23-.55.66-.29.23.56.56-.24.22.51-.57.24.4.92c.04.15.19.25.35.21.02,0,.04-.01.06-.02.1-.04.18-.11.23-.2l.37.4Z" fill="#fff"/>
      <rect x="45.18" y="90.36" width="11.51" height="38.88" rx="4.13" ry="4.13" transform="translate(-64.39 146.54) rotate(-82.78)" fill="#e6e6e6"/>
      <path d="m43,107.68l-.12.99,1.71.21-.09.69-1.71-.22-.18,1.36-.86-.11.47-3.71,2.8.35-.09.69-1.94-.25Z" fill="#fff"/>
      <path d="m45.02,109.56c.06-.87.81-1.53,1.68-1.48.87.06,1.53.81,1.48,1.68s-.81,1.53-1.68,1.48c-.03,0-.06,0-.09,0-.82-.05-1.45-.77-1.39-1.59,0-.03,0-.05,0-.08Zm2.3.29c.1-.39-.14-.79-.54-.89-.39-.1-.79.14-.89.54-.01.06-.02.11-.02.17-.09.4.16.79.56.88.02,0,.04,0,.07.01.4.03.75-.27.78-.67,0-.01,0-.02,0-.04h.04Z" fill="#fff"/>
      <path d="m48.99,107.52l.82.11-.49,3.93-.83-.11.51-3.93Z" fill="#fff"/>
      <path d="m50.58,107.72l.82.11-.49,3.93-.83-.1.51-3.94Z" fill="#fff"/>
      <path d="m51.61,110.41c.06-.87.81-1.53,1.68-1.48.87.06,1.53.81,1.48,1.68s-.81,1.53-1.68,1.48c-.03,0-.06,0-.09,0-.82-.05-1.44-.75-1.39-1.57,0-.03,0-.07,0-.1Zm2.3.29c.05-.4-.23-.77-.64-.82-.4-.05-.77.23-.82.64h0c-.05.4.23.77.64.82.4.05.77-.23.82-.64Z" fill="#fff"/>
      <path d="m60,110.01l-1.4,2.72-.79-.1-.42-1.86-.89,1.69-.79-.1-.67-2.99.78.1.43,2.02.94-1.85.7.09.43,2.02.94-1.85.73.09Z" fill="#fff"/>
      <rect x="49.63" y="77.58" width="11.51" height="38.88" transform="translate(-55.38 82.44) rotate(-52.78)" fill="#e0e0e0"/>
      <path d="m41.58,88.52l.63-.34c.13.43.39.82.75,1.1.41.32.68.31.81.12.43-.56-1.59-1.49-.76-2.59.38-.52,1.1-.63,1.97,0,.37.27.66.63.83,1.04l-.62.36c-.14-.34-.36-.63-.65-.86-.41-.31-.68-.27-.82-.09-.42.55,1.6,1.48.77,2.58-.37.49-1.1.6-1.97,0-.45-.33-.78-.8-.94-1.33Z" fill="#fff"/>
      <path d="m45.27,89.73l1.27-1.67.68.52-1.24,1.65c-.43.56-.36.99,0,1.31s.83.26,1.27-.3l1.24-1.65.68.52-1.26,1.67c-.56.75-1.63.89-2.37.33-.75-.56-.89-1.63-.33-2.37h.05Z" fill="#fff"/>
      <path d="m51.01,94.91c-.4.52-1.02.51-1.81-.09l-1.54-1.18,2.26-2.98,1.46,1.1c.74.56.89,1.16.54,1.63-.52-.08-1.01.29-1.08.81-.04.25.03.49.17.7h0Zm-.79-3.2l-.54.7.68.52c.34.26.62.27.79,0s.09-.48-.25-.75l-.68-.47Zm.15,2.6c.19-.25.09-.52-.27-.79l-.8-.6-.56.74.81.6c.35.23.63.26.82.01v.04Z" fill="#fff"/>
      <path d="m50.9,95.61l.63-.34c.14.43.4.81.75,1.1.42.31.68.3.82.11.42-.55-1.6-1.48-.76-2.59.38-.51,1.1-.62,1.96,0,.37.28.66.66.83,1.1l-.6.36c-.14-.34-.36-.64-.65-.87-.42-.31-.69-.27-.83-.09-.42.55,1.6,1.49.78,2.58-.38.51-1.1.62-1.97,0-.45-.34-.79-.82-.96-1.36Z" fill="#fff"/>
      <path d="m54.57,96.51c.73-.87,2.03-.98,2.89-.25.4.34.66.82.72,1.35l-.75.08c-.02-.36-.19-.7-.48-.92-.53-.4-1.28-.3-1.68.23s-.3,1.28.23,1.68c.29.22.66.3,1.01.21l.13.75c-1.12.19-2.19-.57-2.38-1.69-.09-.51.02-1.04.31-1.47v.04Z" fill="#fff"/>
      <path d="m58.64,101.95v-1.26h0l-.6-.45-.63.83-.69-.53,2.26-2.98,1.3.98c.68.37.94,1.22.57,1.9-.03.06-.06.11-.1.16-.3.42-.83.61-1.33.47l-.07,1.46-.71-.59Zm1.19-2.91l-.56-.43-.79,1.1.56.43c.43.32.79.29,1.03,0s.19-.78-.24-1.1Z" fill="#fff"/>
      <path d="m62.13,99.9l.68.52-2.26,2.99-.68-.53,2.26-2.98Z" fill="#fff"/>
      <path d="m64.62,105.21c-.4.51-1.03.49-1.81-.1l-1.54-1.16,2.26-2.99,1.45,1.1c.75.56.89,1.16.54,1.63-.2.29-.55.43-.89.36.27.34.27.83-.01,1.16Zm-.8-3.21l-.53.7.68.52c.34.26.62.27.79,0s.08-.48-.25-.75l-.69-.47Zm.15,2.6c.2-.25.1-.52-.26-.79l-.8-.6-.56.74.8.6c.36.24.64.31.82.05Z" fill="#fff"/>
      <path d="m67.24,107.62l-.42.55-2.31-1.75,2.26-2.99,2.25,1.71-.42.55-1.57-1.19-.49.65,1.38,1.1-.41.53-1.38-1.1-.53.69,1.63,1.24Z" fill="#fff"/>
      <path d="m115.33,36.1c-.79,0-1.43-.64-1.43-1.43h0v-3.48h-.69c-1.01,0-1.82-.83-1.82-1.83V12.73c0-1,.82-1.81,1.82-1.81h25.9c1.01,0,1.82.82,1.82,1.82v16.59c0,1.01-.81,1.83-1.81,1.83h-16.94l-6.01,4.64c-.24.19-.54.29-.85.3Zm-2.12-24.68c-.72,0-1.3.58-1.31,1.3v16.6c0,.72.59,1.31,1.31,1.31h1.21v4.03c0,.5.41.9.91.9.19,0,.38-.06.54-.18l6.14-4.76h17.1c.72,0,1.31-.59,1.31-1.31V12.72c0-.72-.59-1.31-1.31-1.31h-25.9Z" fill="#e0e0e0"/>
      <rect x="121.52" y="8.84" width="3.24" height=".4" fill="#e0e0e0"/>
      <path d="m109.59,13.52h-.4v-1.97c0-1.5,1.22-2.71,2.72-2.71h7.23v.37h-7.23c-1.28,0-2.32,1.03-2.33,2.31h0s0,2,0,2Z" fill="#e0e0e0"/>
      <path d="m133.17,18.66h-14.23c-.44,0-.79-.36-.79-.8s.35-.79.79-.79h14.23c.44,0,.8.35.8.79,0,.44-.36.8-.8.8Z" fill="#e0e0e0"/>
      <path d="m133.17,21.8h-14.23c-.44,0-.79-.35-.79-.79s.35-.79.79-.79h14.23c.44,0,.79.35.79.79s-.35.79-.79.79Z" fill="#e0e0e0"/>
      <path d="m133.17,24.94h-14.23c-.44,0-.79-.35-.79-.79s.35-.79.79-.79h14.23c.44,0,.79.35.79.79s-.35.79-.79.79Z" fill="#e0e0e0"/>
      <path d="m142.26,40.61h14.23c.44,0,.8-.36.8-.8,0-.44-.36-.79-.8-.79h-14.23c-.44,0-.8.35-.8.79,0,.44.36.8.8.8Z" fill="#e0e0e0"/>
      <path d="m142.26,43.75h14.23c.44,0,.79-.35.79-.79s-.35-.79-.79-.79h-14.23c-.44,0-.79.35-.79.79s.35.79.79.79h0Z" fill="#e0e0e0"/>
      <path d="m142.26,46.89h14.23c.44,0,.79-.35.79-.79s-.35-.79-.79-.79h-14.23c-.44,0-.79.35-.79.79s.35.79.79.79h0Z" fill="#e0e0e0"/>
      <path d="m164.05,43.11c-.14,2.65-1.55,5.06-3.78,6.49v5.76c0,.33-.26.6-.59.6-.16,0-.32-.06-.44-.18l-5.49-3.38c-1.47.31-2.97.46-4.47.46-8.16,0-14.78-4.39-14.78-9.72s6.59-9.71,14.78-9.71,14.76,4.36,14.76,9.69Z" fill="none" stroke="#e0e0e0" stroke-miterlimit="10" stroke-width="1.1"/>
      <path d="m197.15,33.92h-2.2c-1.05,0-1.91.83-1.98,1.88l-.53,10.13c-.07.97.66,1.81,1.63,1.87.05,0,.1,0,.15,0h2.2c1.05,0,1.91-.83,1.98-1.88l.54-10.13c.06-.97-.68-1.81-1.66-1.88-.05,0-.09,0-.14,0Zm.05,12.01c-.02.39-.34.69-.72.69h-2.2c-.36,0-.65-.29-.65-.65,0-.02,0-.03,0-.05l.53-10.13c.02-.39.34-.69.72-.69h2.2c.36,0,.65.29.65.65,0,.02,0,.03,0,.05l-.53,10.13Z" fill="#ebebeb"/>
      <path d="m214.48,33.92h-6.43l1.44-3.37c.15-.35.2-.72.16-1.1l-.3-2.66c-.11-1.07-1.03-1.88-2.11-1.87h-2.55l-.22,4.12-4.14,5.22c-.41.52-.65,1.15-.69,1.81l-.49,9.47c-.07,1.21.86,2.25,2.07,2.31.04,0,.08,0,.12,0h8.99c.8,0,1.56-.36,2.1-.96l.83-.93c.33-.36.56-.8.67-1.27l1.97-8.79-1.43-1.99Z" fill="#ebebeb"/>
      <g fill="none" opacity=".5">
        <path d="m197.15,33.92h-2.2c-1.05,0-1.91.83-1.98,1.88l-.53,10.13c-.07.97.66,1.81,1.63,1.87.05,0,.1,0,.15,0h2.2c1.05,0,1.91-.83,1.98-1.88l.54-10.13c.06-.97-.68-1.81-1.66-1.88-.05,0-.09,0-.14,0Zm.05,12.01c-.02.39-.34.69-.72.69h-2.2c-.36,0-.65-.29-.65-.65,0-.02,0-.03,0-.05l.53-10.13c.02-.39.34-.69.72-.69h2.2c.36,0,.65.29.65.65,0,.02,0,.03,0,.05l-.53,10.13Z" fill="#ebebeb"/>
      </g>
      <polygon points="72.53 28.84 63.17 26.98 65.21 22.8 72.24 24.19 72.53 28.84" fill="#ebebeb"/>
      <polygon points="72.24 24.19 70.02 28.34 72.53 28.84 72.24 24.19" fill="#e0e0e0"/>
      <rect x="56.75" y="25" width="18.39" height="23.99" rx="6.14" ry="6.14" transform="translate(16.83 94.49) rotate(-78.78)" fill="#ebebeb"/>
      <path d="m76.45,29.45l.89.18c1.26.25,2.08,1.48,1.83,2.74h0s-2.67,13.47-2.67,13.47c-.25,1.26-1.48,2.08-2.74,1.83h0l-.89-.18h0l3.58-18.04h0Z" fill="#e0e0e0"/>
      <path d="m71.38,37.12c-.72,3.52-4.16,5.78-7.68,5.06-3.52-.72-5.78-4.16-5.06-7.68.72-3.5,4.13-5.76,7.63-5.07,3.52.7,5.81,4.12,5.12,7.64v.05Z" fill="#fafbfb"/>
      <path d="m70.48,36.86c-.61,3.09-3.61,5.1-6.7,4.49-3.09-.61-5.1-3.61-4.49-6.7.61-3.09,3.61-5.09,6.69-4.49,3.09.61,5.1,3.6,4.49,6.69,0,0,0,0,0,0Z" fill="#e0e0e0"/>
      <path d="m61.64,29.3l4.39.86-2.2,11.18-5.59-1.1s4.45-9.2,3.39-10.94Z" fill="#e0e0e0"/>
      <rect x="60.31" y="24.6" width="1.33" height="3.02" transform="translate(23.5 80.84) rotate(-78.78)" fill="#ebebeb"/>
      <path d="m73.99,32.53c-.08.42-.48.69-.9.61-.42-.08-.69-.48-.61-.9.08-.42.48-.69.9-.61,0,0,0,0,0,0,.41.08.68.49.6.9Z" fill="#fafbfb"/>
      <path d="m62.53,34.87c-.82,4.13-4.83,6.81-8.95,6-.66-.14-1.3-.36-1.9-.65,4.2-.29,7.37-3.93,7.08-8.13-.19-2.7-1.79-5.1-4.22-6.31.67-.04,1.34,0,2,.13,4.12.82,6.8,4.83,5.99,8.95Z" fill="#ebebeb"/>
      <ellipse cx="53.22" cy="33.07" rx="7.36" ry="5.64" transform="translate(10.43 78.83) rotate(-78.78)" fill="#fafbfb"/>
      <path d="m51.68,40.22c-.67.04-1.34,0-2-.13-4.13-.82-6.81-4.83-5.99-8.95s4.83-6.81,8.95-5.99c.66.13,1.3.34,1.9.64-4.2.29-7.37,3.93-7.08,8.13.19,2.7,1.79,5.1,4.22,6.31h0Z" fill="#e6e6e6"/>
      <ellipse id="_Path_3" data-name=" Path 3" cx="138.08" cy="187.91" rx="101" ry="5.9" fill="#f5f5f5"/>
      <rect x="81.23" y="139.77" width="119.93" height="39.55" fill="#5274b8"/>
      <rect x="81.23" y="139.77" width="119.93" height="39.54" fill="#f9bb1e"/>
      <rect x="113.66" y="100.7" width="52.05" height="39.55" fill="#5274b8"/>
      <rect x="113.66" y="100.7" width="52.05" height="39.55" fill="#cb1f46"/>
      <path d="m144.51,111.92l-2.94,14.72h-3.41l2.44-11.96h-2.94l.55-2.74,6.31-.02Z" fill="#263238"/>
      <polygon points="169.85 86.52 171.87 88.67 186.23 79.11 202.44 84.48 216.56 74.05 217.51 75.75 221.32 69.34 213.87 69.24 214.81 70.93 202.2 81.91 185.95 76.66 169.85 86.52" fill="#363535"/>
      <path d="m178.42,144.08l10.92-.4c-2.57-.75-5.3-.69-7.96-.97-.77-.06-1.53-.22-2.26-.47-.68-.27-1.31-.69-1.99-.98-.89-.36-1.87-.48-2.82-.35-.31.04-.61.13-.89.26-.52.31-.91.8-1.1,1.37-.17.49-.27,1.01-.29,1.53h0c0,.08,0,.15,0,.23h0c.01,1.14.26,2.26.71,3.3,2.54,6.13,23.07.9,23.07.9-.71,4.02.36,7.05,1.1,11.08l1.91,10.6-2.04.22.82,2.98h1.8v-29.33l-20.98.02Z" isolation="isolate" opacity=".2"/>
      <path d="m199.5,175.97v3.3l-.09-.1-.45-2.33v-.1c0-.34.22-.65.54-.77Z" isolation="isolate" opacity=".2"/>
      <g id="Character--inject-2">
        <polygon points="209.09 173.52 212.31 173.17 212.62 165.62 209.4 165.97 209.09 173.52" fill="#f5877e"/>
        <path d="m212.63,171.81h-3.63c-.13-.01-.24.08-.25.21,0,0,0,0,0,0h0l-.21,2.87c0,.32.24.58.56.58h0c1.26,0,1.79-.08,3.38-.16.98-.07,3.3-.22,4.65-.47s1.1-1.56.46-1.57c-1.55-.01-3.06-.43-4.39-1.22-.16-.14-.36-.22-.57-.23Z" fill="#263238"/>
        <polygon points="209.4 165.97 212.62 165.62 212.46 169.26 209.26 169.5 209.4 165.97" isolation="isolate" opacity=".2"/>
        <path d="m186.49,132.65s24.49-1.21,26.1,7.91c.81,8.56.98,17.17.51,25.75l-4.53.89s-3.55-15.82-3.19-23.6c-6.75-.75-25.11,2.53-27.97-2.49-2.34-4.1-1.91-6.66-1.91-6.66l10.99-1.8Z" fill="#263238"/>
        <polygon points="207.09 168.7 213.98 168.38 214.45 165.8 206.82 166.05 207.09 168.7" fill="#199ed9"/>
        <path d="m214.37,172.22c.1-.11.14-.26.1-.41-.02-.09-.09-.17-.18-.21-.4-.16-1.31.45-1.42.53h0s.02.08.05.09c.28.08.57.12.87.12.2.03.4-.02.57-.12Zm-.12-.48s.07.06.07.11c.04.09.02.2-.05.27-.14.14-.57.16-1.1,0,.33-.2.87-.46,1.09-.38h0Z" fill="#5274b8"/>
        <path d="m212.97,172.25c.33-.19.81-.85.75-1.21-.03-.12-.14-.21-.26-.22-.12-.03-.25.01-.34.1-.33.32-.26,1.24-.26,1.29,0,.02,0,.04,0,.05h.12Zm.44-1.29c.11,0,.13.07.14.11-.05.38-.26.73-.56.97-.04-.36.04-.71.22-1.02.05-.03.11-.03.16,0l.03-.05Z" fill="#5274b8"/>
        <path d="m202.32,137.91s5.11-1.46,6.22,1.61-.2,18.09-1.72,21.42-4.32-22.53-4.32-22.53l-.18-.51Z" isolation="isolate" opacity=".3"/>
        <polygon points="202.42 175.97 205.55 175.88 205.31 168.31 202.18 168.39 202.42 175.97" fill="#f5877e"/>
        <path d="m205.6,174.95l-3.63.23c-.13.01-.23.11-.23.24v2.88c.02.31.29.55.6.54,1.25-.12,1.86-.22,3.45-.34,1.42-.03,2.83-.16,4.23-.41,1.33-.3,1-1.59.41-1.58-1.53-.09-3-.58-4.28-1.42-.16-.1-.36-.15-.55-.14Z" fill="#263238"/>
        <path d="m207.37,175.23c.1-.12.12-.28.07-.42-.02-.1-.09-.17-.19-.2-.41-.14-1.27.55-1.37.63h0s0,.09.07.09c.29.06.58.08.87.07.2,0,.4-.05.56-.16Zm-.16-.47s.08.05.09.1c.04.09.04.19,0,.27-.13.15-.57.2-1.1.12.32-.26.79-.57,1.01-.49h0Z" fill="#5274b8"/>
        <path d="m205.98,175.38c.39-.31.62-.77.65-1.26-.04-.12-.15-.21-.29-.21-.13-.02-.25.03-.33.13-.31.33-.18,1.25-.16,1.3h.1l.03.04Zm.33-1.34c.11,0,.14,0,.15.1.07.23-.22.76-.49,1.02-.06-.35,0-.71.15-1.03.04-.05.09-.07.15-.08h.03Z" fill="#5274b8"/>
        <polygon points="201.91 168.31 205.4 167.73 205.42 172.46 202.37 172.82 201.91 168.31" isolation="isolate" opacity=".2"/>
        <path d="m181.71,133.36s24.17,1.8,24.5,8.79c1.78,11.47.43,26.59.43,26.59l-5.79,1.2s-2.97-14.14-3.41-24.53c-5.91.99-18.08,2.82-22.26-.13-3.79-3.41-2.74-10.38-2.74-10.38l9.26-1.53Z" fill="#263238"/>
        <polygon points="200.29 171.92 207.38 171.32 207.52 168.22 199.76 169.03 200.29 171.92" fill="#199ed9"/>
        <path d="m183.44,112.37c.13.55.26,1.02.41,1.53s.3.98.47,1.48c.32.97.68,1.93,1.1,2.91.81,2.03,1.89,3.95,3.21,5.69.39.49.82.95,1.29,1.36.52.45,1.11.82,1.74,1.1,1.22.55,2.56.77,3.89.63,1.17-.11,2.31-.42,3.37-.9.5-.22.99-.47,1.46-.76.24-.14.47-.29.69-.46l.68-.51-1.25-2.08-.62.19-.66.18c-.44.11-.87.21-1.32.29-.8.14-1.62.19-2.44.12-.95-.02-1.85-.42-2.5-1.1-.25-.27-.48-.56-.68-.86-.48-.69-.9-1.43-1.25-2.2-.4-.79-.75-1.64-1.1-2.5s-.63-1.76-.93-2.65l-.43-1.34c-.13-.44-.29-.91-.38-1.3l-4.73,1.18Z" fill="#f5877e"/>
        <path d="m182.93,109.66c1.94-2.65,5.06-1.79,6.92,2.26,1.03,2.16,1.87,4.4,2.49,6.71l-7.14,2.77c-2.03-3.82-4.28-9.02-2.27-11.74Z" fill="#5274b8"/>
        <path d="m182.93,109.66c1.94-2.65,5.06-1.79,6.92,2.26,1.03,2.16,1.87,4.4,2.49,6.71l-7.14,2.77c-2.03-3.82-4.28-9.02-2.27-11.74Z" fill="#199ed9"/>
        <path d="m186.09,113.89c-.6-.38-1.75,2-2.2,4.79.43.96.89,1.87,1.34,2.71l4.31-1.67c-.83-2.57-2.08-4.97-3.45-5.83Z" isolation="isolate" opacity=".3"/>
        <path d="m200.79,121.33l1.56-.91.66,3.52s-2.59,1.68-3.39.38l.05-.91c.07-.82.47-1.57,1.12-2.08Z" fill="#f5877e"/>
        <polygon points="204.32 120.18 205.8 122.97 202.99 123.93 202.33 120.41 204.32 120.18" fill="#f5877e"/>
        <path d="m182.83,107.35l-3.72-.41-4.59.56c-1.44.17-2.58,1.27-2.8,2.7-.41,3.38-.61,6.78-.6,10.18.09,4.88.54,9.75,1.34,14.57l15.38-2.35c-.29-13.45.6-17.64.62-21.21,0-1.44-.95-2.7-2.33-3.09l-3.28-.96Z" fill="#5274b8"/>
        <path d="m182.83,107.35l-3.72-.41-4.59.56c-1.44.17-2.58,1.27-2.8,2.7-.41,3.38-.61,6.78-.6,10.18.09,4.88.54,9.75,1.34,14.57l15.38-2.35c-.29-13.45.6-17.64.62-21.21,0-1.44-.95-2.7-2.33-3.09l-3.28-.96Z" fill="#199ed9"/>
        <path d="m173.18,108.9c3.05-.64,3.12,6.34,1.89,11.49-.36,1.48-2.13.92-2.74.56-1.98-1.2-2.9-9.71.85-12.05Z" isolation="isolate" opacity=".3"/>
        <path d="m173.13,119.24c.22,3.01-.69,4.62.94,5.58s11.25,3.8,11.46,3.39c-.43.75-.86,1.38-1.3,2.13-2.75-.33-5.49-.62-8.26-.88-2.01-.2-5.25-.6-6.87-1.82s-1.36-6.15-1.23-9.79c1.27-.78,5.25,1.38,5.25,1.38Z" fill="#f5877e"/>
        <path d="m171.95,107.7c3.13-1.02,4.39,1.46,3.58,5.83-.41,2.36-1.03,4.67-1.86,6.92l-6.67-1.88c.58-4.28,1.75-9.82,4.94-10.88Z" fill="#199ed9"/>
        <path d="m176.53,107.54c-.06.67.12,1.34.53,1.88.41.53.88,1.01,1.41,1.42.56.63,1.36,1,2.2,1,.77-.12,1.21-.53,1.48-1.46.7,1.1.75,1.58,1.48,1.63.48-.04.92-.29,1.2-.68.52-.47.84-1.12.9-1.81-.01-1.41-.95-2.63-2.31-3.01-1.32-.4-2.68-.62-4.05-.67-1.15-.1-2.65.32-2.83,1.71Z" fill="#f9bb1e"/>
        <path d="m179.55,100.94l1.72,1.88,2.36,2.55c-.21.28-.35.6-.44.94-.3.75,0,1.6.69,2,.35.14.59,1.96-1.7,1.83-1.32.02-2.59-.51-3.49-1.46-.44-.55-.55-.85-.14-1.47,1.18-1.77,1.2-4.28,1-6.27Z" fill="#f5877e"/>
        <path d="m183.07,104.79l-1.49-1.86v.19c-.06.27-.1.54-.12.81.12,1.1.77,2.08,1.75,2.61l.05-.2c.09-.32.23-.62.4-.9h0l-.58-.66Z" isolation="isolate" opacity=".2"/>
        <path d="m185.14,100.4c1.38-2.69,1.1-4.22,2.43-5.66.71-.31,1.96,1,1.1,3.24s-3.53,2.42-3.53,2.42Z" fill="#263238"/>
        <path d="m179.59,97.38c-.16,3.12-.4,4.94,1,6.67,1.52,1.75,4.17,1.94,5.92.42.59-.51,1.02-1.17,1.25-1.91.97-2.72,1.04-7.37-1.87-8.89-2.13-1.09-4.74-.25-5.83,1.88,0,0,0,0,0,.01-.29.56-.46,1.19-.47,1.82Z" fill="#f5877e"/>
        <path d="m179.22,100.15l2.55,1.01-.64-2.74,1.38-.79,1.69-2.54s-3.67-1.1-4.76-1.22c-.77.26-1.45.76-1.92,1.43-.53,1.26-.3,2.7.58,3.74.33.41.7.78,1.11,1.11Z" fill="#263238"/>
        <path d="m180.5,90.69c.8-.38,1.78.1,2.63.36.84.3,1.7.54,2.57.74.74.18,1.52.08,2.2-.27.7-.39.99-1.25.69-1.99.94.55,1.55,1.52,1.66,2.6.09,1.09-.36,2.16-1.21,2.85-.8.6-1.78.92-2.78.89-.99-.02-1.97-.16-2.93-.41-1.47-.13-2.92-.44-4.32-.9-1.2-.63-.96-2.68,1.49-3.87Z" fill="#263238"/>
        <path d="m178.06,99.62c.09.69.43,1.33.96,1.79.68.59,1.47-.1,1.54-.99.1-.91-.37-1.78-1.19-2.2-.81-.21-1.42.54-1.31,1.4Z" fill="#f5877e"/>
        <path d="m184.32,99.09c0,.26.07.49.23.53s.32-.15.37-.41,0-.49-.23-.53-.33.15-.37.41Z" fill="#263238"/>
        <path d="m187.22,99.64c0,.25,0,.49.23.52s.33-.14.37-.4-.07-.49-.23-.53-.34.14-.37.41Z" fill="#263238"/>
        <path d="m186.25,99.65c.12.73.32,1.44.62,2.12-.36.14-.76.11-1.1-.08l.48-2.04Z" fill="#f15959"/>
        <path d="m185.34,103.17c-.6-.09-1.14-.43-1.48-.93-.03-.02-.03-.07,0-.09,0,0,0,0,0,0,.03-.02.07-.02.1,0,.39.53,1.01.86,1.67.89.04,0,.08.03.09.08,0,.04-.03.08-.08.08h-.3Z" fill="#263238"/>
        <path d="m183.89,98.08h0c-.06-.05-.07-.14-.02-.2,0,0,.01-.01.02-.02.35-.34.85-.47,1.33-.36.08.03.12.11.11.19h0c-.02.08-.1.13-.19.11-.38-.08-.76.04-1.04.3-.05.06-.13.06-.19.01,0,0-.02-.02-.02-.03Z" fill="#263238"/>
        <path d="m187.49,97.97s0-.05,0-.08c.02-.08.1-.13.19-.11.49.09.91.42,1.1.88.02.08-.02.16-.1.2-.07.03-.16-.01-.18-.09,0,0,0,0,0-.01-.16-.35-.47-.6-.85-.68-.07,0-.14-.04-.15-.11Z" fill="#263238"/>
      </g>
      <path d="m195.83,138.42l20.87-2.74c.22-.03.37-.23.35-.45h0c-.04-.21-.23-.36-.45-.34l-20.87,2.74c-.22.03-.37.23-.34.44,0,0,0,0,0,0h0c.03.21.23.36.44.34Z" fill="#5274b8"/>
      <path d="m195.83,138.42l20.87-2.74c.22-.03.37-.23.35-.45h0c-.04-.21-.23-.36-.45-.34l-20.87,2.74c-.22.03-.37.23-.34.44,0,0,0,0,0,0h0c.03.21.23.36.44.34Z" isolation="isolate" opacity=".5"/>
      <path d="m185.53,138.3l10.15.12c.21,0,.39-.17.4-.38h0c.01-.21-.15-.39-.36-.41,0,0-.02,0-.02,0l-10.15-.12c-.21-.01-.38.14-.4.35,0,.01,0,.02,0,.03h0c-.01.21.15.39.36.41,0,0,.02,0,.02,0Z" fill="#5274b8"/>
      <path d="m185.53,138.3l10.15.12c.21,0,.39-.17.4-.38h0c.01-.21-.15-.39-.36-.41,0,0-.02,0-.02,0l-10.15-.12c-.21-.01-.38.14-.4.35,0,.01,0,.02,0,.03h0c-.01.21.15.39.36.41,0,0,.02,0,.02,0Z" fill="#fff" isolation="isolate" opacity=".5"/>
      <path d="m196.31,137.96l-11.17-.09s-.38-.22.37-.36,10.45-1.43,10.45-1.43l.35,1.88Z" fill="#5274b8"/>
      <path d="m196.31,137.96l-10.91-.12s-.38-.22.37-.36,10.18-1.4,10.18-1.4l.35,1.88Z" fill="#5274b8"/>
      <path d="m196.31,137.96l-10.91-.12s-.38-.22.37-.36,10.18-1.4,10.18-1.4l.35,1.88Z" fill="#fff" isolation="isolate" opacity=".2"/>
      <path d="m196.3,137.55l19.5-2.55c.7-.11,1.22-.72,1.2-1.43l-.43-9.99c0-.61-.47-1.11-1.08-1.12-.07,0-.14,0-.22.02l-19.51,2.56c-.7.11-1.21.72-1.2,1.43l.43,9.99c0,.61.48,1.1,1.09,1.11.07,0,.15,0,.22-.02Z" fill="#5274b8"/>
      <path d="m196.3,137.55l19.5-2.55c.7-.11,1.22-.72,1.2-1.43l-.43-9.99c0-.61-.47-1.11-1.08-1.12-.07,0-.14,0-.22.02l-19.51,2.56c-.7.11-1.21.72-1.2,1.43l.43,9.99c0,.61.48,1.1,1.09,1.11.07,0,.15,0,.22-.02Z" isolation="isolate" opacity=".4"/>
      <path d="m196.87,137.44l19.5-2.56c.71-.1,1.22-.72,1.2-1.43l-.43-9.99c.01-.61-.47-1.11-1.08-1.12-.08,0-.15,0-.23.02l-19.5,2.55c-.7.11-1.22.72-1.2,1.43l.43,9.99c-.02.61.46,1.11,1.07,1.13.08,0,.16,0,.24-.02Z" fill="#5274b8"/>
      <path d="m196.87,137.44l19.5-2.56c.71-.1,1.22-.72,1.2-1.43l-.43-9.99c.01-.61-.47-1.11-1.08-1.12-.08,0-.15,0-.23.02l-19.5,2.55c-.7.11-1.22.72-1.2,1.43l.43,9.99c-.02.61.46,1.11,1.07,1.13.08,0,.16,0,.24-.02Z" fill="#363535"/>
      <path d="m188.62,114.39c-2.13-.45-4.39,1.6-4.98,4.58s.6,5.76,2.74,6.2,4.39-1.6,4.99-4.59-.6-5.75-2.75-6.18Zm-1.83,10.27c-1.36-.27-2.01-2.67-1.46-5.34s2.11-4.6,3.47-4.32,2.02,2.68,1.46,5.34-2.11,4.6-3.47,4.32Z" fill="#263238"/>
      <path d="m190.26,120.36c-.56,2.66-2.11,4.59-3.47,4.31s-2.01-2.67-1.46-5.34,2.11-4.59,3.47-4.32,2.01,2.68,1.46,5.35Z" fill="#fff" isolation="isolate" opacity=".5"/>
      <path d="m185.64,124.92l-2.26,7.22s.12.89,1.16.44,1.81-7.4,1.81-7.4l-.71-.25Z" fill="#263238"/>
      <path d="m183.44,126.9l1.6-.53v4s-3.49.94-3.77-.67l.43-.89c.29-.85.92-1.54,1.74-1.91Z" fill="#f5877e"/>
      <polygon points="187.47 127.4 187.06 129.65 184.99 130.36 185.01 126.37 187.47 127.4" fill="#f5877e"/>
      <polygon points="203.59 106.72 203.57 106.72 203.54 106.72 203.57 106.7 203.59 106.72" fill="#f1f0f0"/>
      <g id="_Group_3" data-name=" Group 3">
        <path d="m83.62,61.26c.16,0,.34.13.4.38s0,.48-.2.52-.34-.14-.4-.4.04-.47.2-.51Z" fill="#263238"/>
        <path d="m84.14,64.55c.42,0,.82-.17,1.1-.48-.64-.54-1.19-1.18-1.65-1.88l.55,2.36Z" fill="#d14d38"/>
        <path d="m82.37,60.55c.24-.3.61-.46.99-.44h0c.09,0,.15-.07.15-.15,0-.08-.07-.15-.15-.15-.48-.05-.95.14-1.26.51,0,.03,0,.07,0,.1,0,.08.07.15.15.15.04.02.08.01.12-.01Z" fill="#263238"/>
        <path d="m80.67,75.75c-4.28.05-4.94-2.29-4.94-2.29,1.27-1.25,1.34-3.54,1.1-5.58.34.48.78.9,1.27,1.22.92.62,2.06.83,3.14.56h0s0,.08,0,.12c-.25,1.64,0,3.38,1.69,3.9,0-.01,2.47,2.02-2.26,2.07Z" fill="#cb5b51"/>
        <path d="m81.38,69.05c0,.2-.09.4-.12.6h0c-1.08.27-2.22.06-3.14-.56-.5-.32-.93-.74-1.27-1.22-.07-.52-.16-1.02-.25-1.48l4.67,2.55.12.11Z" fill="#cb5b51"/>
        <path d="m74.42,73.86c.32-1.05.91-2,1.7-2.76,1.02-.66,5.49,0,6.22.3s1.42,1.9,1.42,1.9l-9.34.56Z" fill="#5274b8"/>
        <path d="m72.06,80.48c1.3.22,2.54-.65,2.76-1.96.21-1.25-.58-2.44-1.81-2.73h0c-1.92-.42-3.91-.91-5.84-1.41-1.48-.28-2.95-.65-4.39-1.1-.46-.15-.91-.33-1.35-.51l-.24-.09-.12-.05c-.12-.06-.23-.14-.33-.22-2.08-2.38-3.92-4.95-5.49-7.69v-.05c-.24-.61-.93-.91-1.54-.66-.52.21-.82.74-.73,1.29.24,2.2,4.25,9.58,5.06,10.51.26.28.55.54.86.77.31.23.65.43,1,.59.51.24,4,1.29,6.05,1.88s4.06,1.1,6.2,1.49l-.08-.07Z" fill="#cb5b51"/>
        <path d="m54.91,64.04v.42c.03.41-.2.79-.57.96-.73.3-1.53.4-2.32.3l.65-3.6,1.76,1.15c.28.16.46.46.48.78Z" fill="#cb5b51"/>
        <polygon points="52.71 62.1 52.06 65.69 49.68 64.28 49.62 61.04 52.71 62.1" fill="#cb5b51"/>
        <path d="m72.8,73.19c-.92.14-4.57.92-7.6.07l-.2,6.18s5.26,2.6,7.64.71,3.88-5.26.16-6.96Z" fill="#199ed9"/>
        <polygon points="66.03 81.05 63.66 79.99 64.34 72.59 66.55 72.99 66.03 81.05" fill="#cb1f46"/>
        <path d="m85.16,72.93c-.7-.12-1.48-.22-2.27-.29-2.39-.12-4.79-.09-7.17.08l-1.58.14c-2.5.19-5.02,2.36-4.52,4.82,2.77,13.52,1.98,21.08,1.72,23.29l16.9-.19c1.75-13.91,1.26-20.87.58-24.32-.37-1.82-1.82-3.23-3.66-3.54Z" fill="#199ed9"/>
        <path d="m88.79,95.92l-.54,4.91c.87-6.23,1.23-12.53,1.1-18.82l-6.42-4.28c2.94,9.09,3.89,11.95,5.86,18.19Z" isolation="isolate" opacity=".2"/>
        <path d="m84.46,65.54c-.04,1.5-.84,2.87-2.12,3.65h0c-.34.21-.71.36-1.1.45h0c-1.08.27-2.22.06-3.14-.56-.5-.32-.93-.74-1.27-1.22-.87-1.5-1.48-3.15-1.79-4.86-.67-2.26.62-4.64,2.89-5.31.64-.19,1.32-.23,1.98-.11,3.23.6,4.67,5.05,4.56,7.95Z" fill="#cb5b51"/>
        <path d="m82.37,69.2c-.34.21-.71.36-1.1.45l.12-1.91s.7,1.46.98,1.46Z" isolation="isolate" opacity=".2"/>
        <path d="m82.58,63.88c-.12,1.36-.82,2.6-1.92,3.41-.14.09-.29.17-.45.22-.57.04-1.11-.31-1.31-.85-.29-.67-.43-1.4-.42-2.13-.22-1.72.27-3.45,1.35-4.8.27-.31.64-.51,1.04-.55,1.49-.07,1.81,3.72,1.7,4.7Z" fill="#263238"/>
        <path d="m75.85,56.19c-.89-.29-1.84.2-2.13,1.09-.15.46-.09.97.15,1.38-1.41.36-2.52,1.44-2.91,2.85-.26,1.29.57,2.55,1.86,2.81.14.03.29.04.43.05-.42.37-.54.97-.3,1.47.27.49.84.73,1.37.58,1.1,1.83,4.55,2.2,6.21.88.38-.32.11-.65.19-1.1.1-.51-.14-1.02-.6-1.26l.36-1.24-1.1-1.16c1.02-.65,1.83-1.57,2.35-2.66.49-1.11-.02-2.41-1.13-2.9-.03-.01-.06-.03-.09-.04.69-.17,1.11-.87.93-1.56-.02-.09-.06-.18-.1-.26-.41-.6-1.24-.75-1.83-.33-.05.04-.11.08-.15.12-.33-.45-.59-.94-1.15-1.1-1.02-.28-2.08.32-2.37,1.34-.09.34-.09.7,0,1.05Z" fill="#263238"/>
        <path d="m81.8,61.62c.9.26,1.37,1.59,1.41,2.44s-.57,1.52-1.38.89c-.62-.48-1.06-1.15-1.25-1.9-.22-.91.33-1.69,1.23-1.43Z" fill="#cb5b51"/>
        <path d="m80.17,181.12s-.07,0-.07-.07c-.02-.02-.02-.05,0-.08.07,0,1.22-.73,1.78-.58.11.02.2.08.26.18.07.11.07.24,0,.35-.13.2-.53.26-.98.27-.33,0-.67-.03-1-.08Zm1.56-.59c-.46.07-.91.22-1.32.45.64.08,1.48.05,1.64-.16v-.18c-.03-.06-.09-.1-.15-.11h-.16Z" fill="#5274b8"/>
        <path d="m80.17,181.1s0-.05,0-.07c0-.48.18-.94.48-1.31.12-.11.29-.16.45-.14.22,0,.3.13.3.22.08.38-.7,1.1-1.1,1.31h-.13Zm.85-1.36c-.1,0-.2.04-.27.12-.26.31-.4.7-.43,1.1.42-.25.94-.83.9-1.1,0,0,0-.09-.16-.09h0l-.03-.03Z" fill="#5274b8"/>
        <polygon points="76.68 173.38 80.02 173.31 79.9 181.03 76.54 181.1 76.68 173.38" fill="#cb5b51"/>
        <path d="m80.68,180.9c1.72,1.05,3.66,1.71,5.67,1.92.58.12.24,1.53-1.1,1.55h-4.48c-1.67,0-3.58.14-4.91.2h-.12c-.26-.06-.43-.32-.37-.58l.58-3c.03-.13.15-.23.29-.23l3.67-.08c.27,0,.54.08.78.22Z" fill="#263238"/>
        <polygon points="76.67 173.38 76.6 177.35 79.95 177.29 80.02 173.31 76.67 173.38" isolation="isolate" opacity=".2"/>
        <path d="m52.16,181.63s-.05.01-.07,0c-.02.02-.06.02-.08,0,0,0-.7-1.22-.55-1.78.03-.1.1-.19.19-.25.1-.08.25-.08.35,0,.21.28.3.64.25.99,0,.35-.03.7-.1,1.04Zm-.56-1.56c.06.46.2.9.42,1.31.09-.63.09-1.47-.13-1.63h-.18c-.06.03-.1.09-.11.15,0,.05,0,.1,0,.15h0Z" fill="#5274b8"/>
        <path d="m52.16,181.69h-.08c-.48-.01-.93-.19-1.3-.49-.1-.13-.15-.29-.13-.45,0-.22.13-.3.22-.3.38-.07,1.1.73,1.29,1.1h0v.14Zm-1.36-.85c0,.1.05.2.11.27.3.24.66.39,1.04.43-.25-.42-.82-.94-1.1-.91,0,0-.09,0-.09.15h0l.03.05Z" fill="#5274b8"/>
        <polygon points="53.9 173.79 57.16 173.97 55.4 181.79 52.12 181.63 53.9 173.79" fill="#cb5b51"/>
        <path d="m51.31,181.21c-.88,1.1-1.34,1.6-3.91,2.47-.57.19-.05,1.53,1.33,1.38,2.27-.25,1.02-.22,2.96-.43,1.66-.18,3.58-.31,4.9-.43h.13c.26-.09.4-.37.32-.63l-.96-2.9c-.04-.13-.17-.21-.31-.19l-3.66.38c-.3,0-.58.12-.8.33Z" fill="#263238"/>
        <polygon points="53.9 173.81 52.98 177.83 56.26 177.99 57.16 173.97 53.9 173.81" isolation="isolate" opacity=".2"/>
        <path d="m71.38,101.01c-1.19,1.99-2.19,4.1-2.97,6.28-1.68,4.88-1,7.4-1.53,10.69-.93,5.8-2.42,10.26-3.44,14.65-3.16,13.78-11.13,42.84-11.13,42.84l5.92,1.18s11.5-33.86,14.4-43.72c2.6-8.88,9.29-32.2,9.29-32.2l-10.56.27Z" fill="#5274b8"/>
        <path d="m71.38,101.01c-1.19,1.99-2.19,4.1-2.97,6.28-1.68,4.88-1,7.4-1.53,10.69-.93,5.8-2.42,10.26-3.44,14.65-3.16,13.78-11.13,42.84-11.13,42.84l5.92,1.18s11.5-33.86,14.4-43.72c2.6-8.88,9.29-32.2,9.29-32.2l-10.56.27Z" fill="#363535"/>
        <path d="m51.61,174.45v2.1l7.11.62s.58-2.31.56-2.31l-7.67-.41Z" fill="#5274b8"/>
        <path d="m78.81,111.52c-2.11,7.33-4.78,16.59-6.21,21.46l-.22.74c.44-8.09,1.74-21.64,5.78-22.22.22-.03.44-.02.65.03Z" isolation="isolate" opacity=".3"/>
        <path d="m76.78,100.87s-1.26,22.27-1.24,32.78c0,9.8.16,42.94.16,42.94l5.67-.11s3.3-33.81,4.09-43.79c.76-9.44,2.78-31.86,2.78-31.86l-11.46.03Z" fill="#5274b8"/>
        <path d="m76.78,100.87s-1.26,22.27-1.24,32.78c0,9.8.16,42.94.16,42.94l5.67-.11s3.3-33.81,4.09-43.79c.76-9.44,2.78-31.86,2.78-31.86l-11.46.03Z" fill="#363535"/>
        <path d="m74.81,174.62l.24,2.09,6.9-.13s.27-2.35.25-2.35l-7.39.4Z" fill="#5274b8"/>
        <path d="m97.55,67.61l1.72-1.2c.4,1.88,2.2,3.3,3.53,4.21.65.42.89,1.37.43,1.69l-1.1.77c-1.37.96-4.58-5.47-4.58-5.47Z" fill="#5274b8"/>
        <path d="m96.87,68.08l3.95-2.74c1.28-.9,1.6-2.66.71-3.95h0c-.9-1.28-2.66-1.6-3.95-.71l-3.94,2.74c-1.29.9-1.61,2.67-.71,3.95h0c.9,1.28,2.66,1.6,3.94.71Z" fill="#5274b8"/>
        <path d="m96.87,68.08l3.95-2.74c1.28-.9,1.6-2.66.71-3.95h0c-.9-1.28-2.66-1.6-3.95-.71l-3.94,2.74c-1.29.9-1.61,2.67-.71,3.95h0c.9,1.28,2.66,1.6,3.94.71Z" isolation="isolate" opacity=".3"/>
        <path d="m109.02,63.82l-7.42,3.12c-.58.41-5.82-7.15-5.23-7.56l5.49-5.83,7.15,10.27Z" fill="#f9bb1e"/>
        <path d="m104.92,59.05c1.97,2.83,3.8,4.97,4.1,4.77s-1.1-2.68-3.02-5.49-3.8-4.97-4.1-4.76,1.05,2.65,3.02,5.48Z" fill="#5274b8"/>
        <path d="m104.92,59.05c1.97,2.83,3.8,4.97,4.1,4.77s-1.1-2.68-3.02-5.49-3.8-4.97-4.1-4.76,1.05,2.65,3.02,5.48Z" isolation="isolate" opacity=".3"/>
        <path d="m106.7,58.13c-.39-.6-1.12-.88-1.81-.7-.33.23-.21.98.26,1.67s1.1,1.1,1.47.83c.45-.51.48-1.26.08-1.8Z" fill="#5274b8"/>
        <path d="m97,71.04l.53-1.47c.34-.89.94-1.66,1.72-2.2l1.1-.77c.21-.15.49-.11.64.1,0,0,0,.01.01.02.75,1.01,1.25,2.18,1.46,3.42.03.31-.11.62-.36.8l-2.37,1.59c-.38.3-.82.44-1.16.1l-1.57-1.59Z" fill="#cb5b51"/>
        <path d="m99.66,71.47l-1.7,7.14c-.05.23-.12.46-.18.68-1.44,5.34-4.21,8.17-5.49,7.51-1.49-1.1-2.86-2.37-4.06-3.78l3.16-2.5.9.77,4.95-10.69.7-1.49c.96-.05,1.78.68,1.83,1.64.01.25-.03.49-.12.72Z" fill="#cb5b51"/>
        <path d="m97.96,78.61l-.16.69h0c.04-.23.11-.46.16-.69Z" fill="#cb5b51"/>
        <path d="m88.58,74.45c2.9,2.36,4.68,7.4,4.68,7.4l-4.69,2.98s-6.14-4.39-5.67-8.5c.36-3.17,2.11-4.82,5.68-1.88Z" fill="#199ed9"/>
        <polygon points="85.87 83.82 87.53 85.58 93.98 81.44 92.98 79.39 85.87 83.82" fill="#cb1f46"/>
      </g>
      <polygon points="110.1 55.88 113.46 47.82 116.13 49.3 110.1 55.88" fill="#263238"/>
      <polygon points="110.44 58.77 119.15 58.28 118.65 55.27 110.44 58.77" fill="#263238"/>
      <polygon points="112.61 55.96 119.28 48.22 121.92 51.11 112.61 55.96" fill="#263238"/>
      <polygon points="46.28 53.93 46.28 60.97 52.9 64.48 52.9 56.82 46.28 53.93" fill="#5274b8"/>
      <polygon points="46.28 53.93 46.28 60.97 52.9 64.48 52.9 56.82 46.28 53.93" fill="#f9bb1e"/>
      <polygon points="59.51 53.93 59.51 60.97 52.9 64.48 52.9 56.82 59.51 53.93" fill="#5274b8"/>
      <polygon points="59.51 53.93 59.51 60.97 52.9 64.48 52.9 56.82 59.51 53.93" fill="#f9bb1e"/>
      <polygon points="46.28 53.93 52.9 56.82 59.51 53.93 52.9 50.6 46.28 53.93" fill="#f9bb1e"/>
      <polygon points="55.86 55.52 55.86 59.91 56.2 59.33 56.41 59.64 56.63 59.15 56.85 59.45 56.85 55.09 55.86 55.52" fill="#263238"/>
      <polygon points="55.86 55.52 49.12 52.5 50.2 51.95 56.85 55.09 55.86 55.52" fill="#263238"/>
      <path d="m152.98,182.25h-12.14c0-.83,1.54-1.55,3.74-1.86v-5.19h4.67v5.19c2.2.31,3.74,1.02,3.74,1.86Z" fill="#5274b8"/>
      <path d="m152.98,182.25h-12.14c0-.83,1.54-1.55,3.74-1.86v-5.19h4.67v5.19c2.2.31,3.74,1.02,3.74,1.86Z" isolation="isolate" opacity=".4"/>
      <rect x="127.26" y="155.46" width="39.47" height="21.22" fill="#5274b8"/>
      <rect x="127.26" y="155.46" width="39.47" height="21.22" isolation="isolate" opacity=".2"/>
      <rect x="128.17" y="156.43" width="37.48" height="17.84" fill="#199ed9"/>
      <rect x="144.58" y="176.68" width="4.67" height="1.12" isolation="isolate" opacity=".2"/>
      <polygon points="144.58 162.22 144.58 169.93 151.43 166.07 144.58 162.22" fill="#fff"/>
      <path d="m124.83,152.48c-.06.56-.54.98-1.1.98h-6.93c-.49,0-.89-.38-.9-.86,0-.04,0-.08,0-.12l.09-1.1h8.89l-.05,1.1Z" fill="#5274b8"/>
      <path d="m111.03,153.72l-2.65,30.3c-.16,1.44.88,2.74,2.32,2.9.11.01.22.02.33.02h12.61c1.63-.05,2.98-1.29,3.17-2.91l2.65-30.3c.16-1.45-.89-2.75-2.34-2.91-.11-.01-.22-.02-.32-.02h-12.59c-1.65.04-3.01,1.29-3.2,2.92Z" fill="#5274b8"/>
      <g fill="none" opacity=".4">
        <path d="m124.83,152.48c-.06.56-.54.98-1.1.98h-6.93c-.49,0-.89-.38-.9-.86,0-.04,0-.08,0-.12l.09-1.1h8.89l-.05,1.1Z"/>
        <path d="m111.03,153.72l-2.65,30.3c-.16,1.44.88,2.74,2.32,2.9.11.01.22.02.33.02h12.61c1.63-.05,2.98-1.29,3.17-2.91l2.65-30.3c.16-1.45-.89-2.75-2.34-2.91-.11-.01-.22-.02-.32-.02h-12.59c-1.65.04-3.01,1.29-3.2,2.92Z" fill="#5274b8"/>
      </g>
      <path d="m113.37,151.43h12.61c1.15-.02,2.1.9,2.12,2.05,0,.08,0,.17-.01.25l-2.66,30.3c-.13,1.29-1.21,2.29-2.5,2.31h-12.61c-1.15.02-2.1-.9-2.12-2.05,0-.08,0-.17.01-.25l2.65-30.3c.14-1.29,1.22-2.28,2.52-2.31Z" fill="#5274b8"/>
      <path d="m113.37,151.43h12.61c1.15-.02,2.1.9,2.12,2.05,0,.08,0,.17-.01.25l-2.66,30.3c-.13,1.29-1.21,2.29-2.5,2.31h-12.61c-1.15.02-2.1-.9-2.12-2.05,0-.08,0-.17.01-.25l2.65-30.3c.14-1.29,1.22-2.28,2.52-2.31Z" fill="#cb1f46"/>
      <path d="m110.25,153.73l-2.65,30.3c-.16,1.45.89,2.75,2.34,2.91.11.01.22.02.32.02h12.61c1.64-.05,2.99-1.29,3.17-2.92l2.65-30.3c.16-1.44-.88-2.74-2.32-2.9-.11-.01-.22-.02-.33-.02h-12.61c-1.63.05-2.98,1.29-3.17,2.91Zm.6,0c.14-1.29,1.22-2.28,2.52-2.31h12.61c1.15-.02,2.1.9,2.12,2.05,0,.08,0,.17-.01.25l-2.66,30.3c-.13,1.29-1.21,2.29-2.5,2.31h-12.61c-1.15.02-2.1-.9-2.12-2.05,0-.08,0-.17.01-.25l2.65-30.3Z" fill="#fff"/>
      <path d="m124.12,151.44h0c-.09.89-.83,1.58-1.72,1.59h-5.71c-.79.01-1.45-.62-1.46-1.42,0-.06,0-.12,0-.17h8.89Z" fill="#fff"/>
      <path d="m117.94,170.14l-2.45-.48c.46,2.2-.78,4.68-1.83,6.27-.51.76-.32,1.91.33,2.03l1.59.32c1.94.37,2.36-8.14,2.36-8.14Z" fill="#5274b8"/>
      <path d="m118.91,170.32l-5.6-1.1c-1.83-.36-3.02-2.13-2.67-3.95h0c.36-1.83,2.14-3.02,3.97-2.66l5.6,1.1c1.82.36,3.01,2.13,2.66,3.95h0c-.36,1.83-2.13,3.01-3.95,2.66Z" fill="#5274b8"/>
      <path d="m118.91,170.32l-5.6-1.1c-1.83-.36-3.02-2.13-2.67-3.95h0c.36-1.83,2.14-3.02,3.97-2.66l5.6,1.1c1.82.36,3.01,2.13,2.66,3.95h0c-.36,1.83-2.13,3.01-3.95,2.66Z" fill="#363535"/>
      <path d="m103.65,171.47l9.55-.12c.83.15,2.93-10.57,2.11-10.73l-8.79-3.72-2.87,14.58Z" fill="#f9bb1e"/>
      <path d="m105.84,164.32c-.78,4.03-1.77,7.23-2.2,7.14s-.13-3.41.66-7.44,1.78-7.22,2.2-7.14.13,3.42-.66,7.44Z" fill="#5274b8"/>
      <path d="m105.84,164.32c-.78,4.03-1.77,7.23-2.2,7.14s-.13-3.41.66-7.44,1.78-7.22,2.2-7.14.13,3.42-.66,7.44Z" fill="#363535"/>
      <path d="m103.45,164.18c.2-.99,1.18-1.74,1.65-1.64s.69.96.51,1.94-.74,1.7-1.2,1.61c-.73-.33-1.13-1.14-.96-1.92Z" fill="#f9bb1e"/>
      <path d="m120.42,172.76l-1.27-1.35c-.79-.83-1.81-1.39-2.93-1.61l-1.57-.31c-.31-.05-.6.14-.67.45-.34,1.44-.34,2.95,0,4.39.12.35.42.62.78.7l3.35.6c.55.14,1.1.09,1.31-.44l1.01-2.44Z" fill="#f9bcbc"/>
      <path d="m119.72,176.13l5.77,7.69.57-6.59-5.61-4.39c-1.05.43-1.55,1.63-1.12,2.68.09.23.23.43.39.61Z" fill="#f9bcbc"/>
      <polygon points="100.88 162.57 94.26 156.9 92.54 159.42 100.88 162.57" fill="#fff"/>
      <polygon points="101.89 165.31 93.89 168.81 92.98 165.88 101.89 165.31" fill="#fff"/>
      <polygon points="98.67 163.79 89.24 159.88 88.18 163.65 98.67 163.79" fill="#fff"/>
      <path d="m118.62,92.01l-1.7,8.93h2.12l2.88-7.13s-.16-2.2-3.3-1.8Z" fill="#5274b8"/>
      <path d="m137.16,92.01l1.7,8.93h-2.12l-2.98-7.13s.24-2.2,3.39-1.8Z" fill="#5274b8"/>
      <path d="m118.62,92.01l-1.7,8.93h2.12l2.88-7.13s-.16-2.2-3.3-1.8Z" isolation="isolate" opacity=".3"/>
      <path d="m137.16,92.01l1.7,8.93h-2.12l-2.98-7.13s.24-2.2,3.39-1.8Z" isolation="isolate" opacity=".3"/>
      <circle cx="127.85" cy="80.89" r="15.94" fill="#199ed9"/>
      <circle cx="128.05" cy="80.89" r="12.31" fill="#fff"/>
      <circle cx="127.85" cy="80.89" r="9.9" fill="#363535"/>
      <circle cx="127.85" cy="80.89" r="7.65" fill="#fff"/>
      <circle cx="127.85" cy="80.89" r="2.21" fill="#cb1f46"/>
      <polygon points="145.55 55.69 145.55 59.73 141.2 64.94 141.19 64.94 140.38 61.78 145.55 55.69" fill="#5274b8"/>
      <rect x="123.04" y="70.19" width="27.57" height=".59" transform="translate(-5.05 130.17) rotate(-50.07)" fill="#263238"/>
      <polygon points="149.14 59.81 144.84 64.94 141.2 64.94 145.55 59.73 149.14 59.81" fill="#5274b8"/>
      <polygon points="149.14 59.81 144.84 64.94 141.2 64.94 145.55 59.73 149.14 59.81" isolation="isolate" opacity=".2"/>
      <path d="m149.54,82.82l-1.38-2.63s1.1-1.91,2.34-1.99c.97.08,1.88.46,2.61,1.1l1.63-.68-1.22,4.6c-1.16.99-2.9.86-3.89-.3-.03-.04-.06-.07-.09-.11Z" fill="#363535"/>
      <path d="m160.28,92.59c0,5.84-3.68,8.22-8.23,8.22s-8.22-3.68-8.22-8.22,3.68-10.33,8.22-10.33c0,0,8.23,4.95,8.23,10.33Z" fill="#5274b8"/>
      <path d="m160.28,92.59c0,5.84-3.68,8.22-8.23,8.22s-8.22-3.68-8.22-8.22,3.68-10.33,8.22-10.33c0,0,8.23,4.95,8.23,10.33Z" fill="#f9bb1e"/>
      <path d="m154.88,93.53c0,1.19-.94,1.98-2.43,2.1l-.2.98h-.89l.2-.98c-.73-.04-1.43-.28-2.04-.68l.59-1.1c.5.35,1.08.56,1.68.63l.31-1.51c-.83-.24-1.74-.57-1.74-1.65s.97-1.98,2.48-2.09l.19-.98h.89l-.2.99c.58.05,1.14.22,1.64.51l-.54,1.1c-.4-.26-.86-.41-1.33-.46l-.31,1.57c.76.23,1.69.55,1.69,1.57Zm-2.54-1.82l.26-1.29c-.51.1-.79.37-.8.71s.16.47.48.57h.05Zm1.1,2.05c0-.25-.2-.42-.51-.53l-.24,1.22c.42-.1.69-.35.69-.65l.05-.04Z" fill="#363535"/>
    </g>
  </g>
</svg>