<?xml version="1.0" encoding="UTF-8"?>
<svg id="Layer_2" data-name="Layer 2" xmlns="http://www.w3.org/2000/svg" viewBox="0 0 48.33 45">
  <defs>
    <style>
      .cls-1 {
        fill: #6a26da;
      }
    </style>
  </defs>
  <g id="Layer_1-2" data-name="Layer 1">
    <g>
      <circle class="cls-1" cx="35.31" cy=".95" r=".95"/>
      <path class="cls-1" d="m45.96,0h-6.42c-.52,0-.95.42-.95.95s.42.95.95.95h6.42c.26,0,.47.21.47.47v7.58H1.89V2.36c0-.26.21-.47.47-.47h28.69c.52,0,.95-.42.95-.95S31.58,0,31.06,0H2.36C1.06,0,0,1.06,0,2.36v30.61c0,1.3,1.06,2.36,2.36,2.36h23.34l.53,6.21c.04.52.5.91,1.02.86.15-.01.29-.06.42-.14l.94-.58,1.76,2.85c.17.28.48.45.81.45.17,0,.34-.05.49-.14l3.22-1.98c.44-.27.58-.86.31-1.3l-1.76-2.85.94-.58c.44-.27.58-.86.31-1.3-.08-.13-.18-.23-.31-.31l-1.94-1.2h13.52c1.3,0,2.36-1.06,2.36-2.36V2.36c0-1.3-1.06-2.36-2.36-2.36Zm-14.48,42.75l-1.76-2.85c-.17-.28-.48-.45-.81-.45-.17,0-.34.05-.49.14l-.44.27-.46-5.33,4.55,2.81-.44.27c-.44.27-.58.86-.31,1.3l1.76,2.85-1.61.99Zm14.48-9.31h-16.59l-2.45-1.51c-.44-.27-1.03-.14-1.3.31-.11.17-.15.38-.14.58l.05.63H2.36c-.26,0-.47-.21-.47-.47V11.84h44.54v21.14c0,.26-.21.47-.47.47Z"/>
      <circle class="cls-1" cx="6.73" cy="5.83" r=".95"/>
      <circle class="cls-1" cx="10.52" cy="5.83" r=".95"/>
      <circle class="cls-1" cx="14.3" cy="5.83" r=".95"/>
      <path class="cls-1" d="m24.16,14.42s-.03,0-.04,0h-.02c-4.29.04-7.77,3.54-7.77,7.84s3.47,7.79,7.75,7.84c.03,0,.06,0,.09,0s.06,0,.09,0c4.29-.04,7.76-3.54,7.76-7.84,0-4.32-3.52-7.84-7.84-7.84Zm5.73,6.23c-.09.09-.51.45-1.29.81-.24.11-.54.23-.88.34-.06-2.23-.65-3.88-1.28-5.03,1.67.69,2.96,2.13,3.45,3.89h0Zm-7.27,3.45c.5.05,1.03.08,1.6.08.52,0,1-.03,1.46-.07-.31,1.8-1,2.98-1.5,3.64-.52-.69-1.24-1.9-1.55-3.66Zm1.6-1.81c-.65,0-1.23-.04-1.77-.11.01-2.76,1.03-4.55,1.71-5.44.67.83,1.67,2.56,1.67,5.46-.49.06-1.02.1-1.61.1h0Zm-2.31-5.54c-.65,1.17-1.26,2.83-1.34,5-1.29-.42-1.97-.96-2.14-1.1.5-1.77,1.8-3.22,3.48-3.91h0Zm-3.68,6.05c.58.32,1.38.68,2.42.95.21,1.7.74,3.04,1.29,4.03-2.02-.82-3.5-2.72-3.7-4.98Zm8.17,4.97c.53-.97,1.03-2.29,1.23-3.99,1.06-.27,1.87-.63,2.45-.97-.21,2.25-1.67,4.14-3.68,4.96Z"/>
    </g>
  </g>
</svg>