<?xml version="1.0" encoding="UTF-8"?>
<svg id="Layer_2" data-name="Layer 2" xmlns="http://www.w3.org/2000/svg" viewBox="0 0 45 45">
  <defs>
    <style>
      .cls-1 {
        fill: #f6412d;
      }
    </style>
  </defs>
  <g id="Layer_1-2" data-name="Layer 1">
    <path class="cls-1" d="m35.62,30.02c-.41-.41-1.08-.41-1.49,0h0s-.11.11-.11.11l-1.99-1.99c5.13-7.05,4.37-16.79-1.8-22.95C23.32-1.73,12.09-1.73,5.18,5.18c-6.91,6.91-6.91,18.14,0,25.05,6.17,6.15,15.9,6.92,22.95,1.8l1.99,1.99-.11.11c-.41.41-.41,1.08,0,1.49h0s8.24,8.24,8.24,8.24c1.56,1.53,4.07,1.51,5.61-.05,1.52-1.54,1.52-4.02,0-5.56l-8.24-8.24Zm-28.95-1.28C.59,22.65.59,12.76,6.67,6.67,12.76.59,22.65.59,28.74,6.67c6.09,6.09,6.09,15.97,0,22.07s-15.97,6.09-22.07,0Zm23.09,1.94c.16-.15.31-.29.46-.45s.3-.31.45-.46l1.85,1.85-.91.91-1.85-1.85Zm5.11,1.58l.94.94-2.62,2.62-.94-.94,2.62-2.62Zm7.49,10.11c-.72.72-1.9.72-2.62,0l-5.06-5.06,2.62-2.62,5.06,5.06c.72.72.72,1.9,0,2.62h0Zm-14.18-26.73c.07.58-.35,1.1-.92,1.17-.04,0-.08,0-.12,0-.53,0-.98-.4-1.05-.93l-.21-1.75-5.52,6.53c-.31.37-.83.48-1.27.27l-4.89-2.39-5.12,6.26c-.37.45-1.03.52-1.49.15-.45-.37-.52-1.03-.15-1.49l5.64-6.9c.31-.38.84-.5,1.28-.28l4.91,2.39,5.11-6.05s0,0,.01-.01l-2.15.25c-.58.07-1.11-.34-1.18-.91-.07-.58.34-1.11.91-1.18,0,0,.01,0,.02,0l4.48-.53c.58-.07,1.1.35,1.17.92l.53,4.48Z"/>
  </g>
</svg>