<?xml version="1.0" encoding="UTF-8"?>
<svg id="Layer_2" data-name="Layer 2" xmlns="http://www.w3.org/2000/svg" viewBox="0 0 45.02 45">
  <defs>
    <style>
      .cls-1 {
        fill: #0195ff;
      }
    </style>
  </defs>
  <g id="Layer_1-2" data-name="Layer 1">
    <g>
      <path class="cls-1" d="m16.7,8.71h-1.45c-.4,0-.73-.33-.73-.73h-1.45c0,1.2.98,2.18,2.18,2.18h1.45c1.2,0,2.18-.98,2.18-2.18s-.98-2.18-2.18-2.18h-1.45c-.4-.02-.71-.36-.69-.76.02-.38.32-.68.69-.69h1.45c.4,0,.73.33.73.73h1.45c0-1.2-.98-2.18-2.18-2.18h-1.45c-1.2,0-2.18.98-2.18,2.18s.98,2.18,2.18,2.18h1.45c.4.02.71.36.69.76-.02.38-.32.68-.69.69Zm5.81,1.45h2.18v-1.45h-2.18c-.4,0-.73-.33-.73-.73v-.73h2.9v-1.45h-2.9v-.73c0-.4.33-.73.73-.73h2.18v-1.45h-2.18c-1.2,0-2.18.98-2.18,2.18v2.9c0,1.2.98,2.18,2.18,2.18Zm5.81,0h1.45c1.2,0,2.18-.98,2.18-2.18v-2.9c0-1.2-.98-2.18-2.18-2.18h-1.45c-1.2,0-2.18.98-2.18,2.18v2.9c0,1.2.98,2.18,2.18,2.18Zm-.73-5.08c0-.4.33-.73.73-.73h1.45c.4,0,.73.33.73.73v2.9c0,.4-.33.73-.73.73h-1.45c-.4,0-.73-.33-.73-.73v-2.9Z"/>
      <path class="cls-1" d="m45.02,15.96h-2.9v-2.18c0-2-1.63-3.63-3.63-3.63h-3.63V2.18c0-1.2-.98-2.18-2.18-2.18H12.34c-1.2,0-2.18.98-2.18,2.18v7.97h-3.63c-2,0-3.63,1.63-3.63,3.63v4.42c-1.73,1.01-2.9,2.88-2.9,5.02s1.17,4.02,2.9,5.02v5.87c0,2,1.63,3.63,3.63,3.63h8.71v2.9h-.73c-2,0-3.63,1.63-3.63,3.63v.73h23.23v-.73c0-2-1.63-3.63-3.63-3.63h-.73v-2.9h8.71c2,0,3.63-1.63,3.63-3.63v-5.08h2.9v-13.07ZM11.62,2.18c0-.4.33-.73.73-.73h20.33c.4,0,.73.33.73.73v8.71c0,.4-.33.73-.73.73h-7.48l-4.26,2.82c-.24.16-.6-.03-.6-.33v-2.5h-7.99c-.4,0-.73-.33-.73-.73V2.18Zm-7.26,11.6c0-1.2.98-2.18,2.18-2.18h3.76c.3.88,1.12,1.47,2.05,1.47h6.53v1.05c0,1.02.83,1.84,1.85,1.84.36,0,.71-.11,1.01-.3l3.89-2.58h7.04c.95,0,1.75-.62,2.05-1.47h3.76c1.2,0,2.18.98,2.18,2.18v2.18h-5.81v6.53h-4.36v-3.63h-4.36v8.71h-1.45v-10.17h-4.36v10.17h-1.45v-7.26h-4.36v2.18h-2.95c-.36-2.86-2.8-5.08-5.76-5.08-.5,0-.99.07-1.45.19v-3.82Zm23.23,13.8v-7.26h1.45v7.26h-1.45Zm-4.36,0h-1.45v-8.71h1.45v8.71Zm-5.81,0h-1.45v-5.81h1.45v5.81ZM1.45,23.22c0-2.4,1.95-4.36,4.36-4.36s4.36,1.95,4.36,4.36-1.95,4.36-4.36,4.36-4.36-1.95-4.36-4.36Zm31.1,20.33H12.47c.31-.87,1.13-1.45,2.05-1.45h15.97c.95,0,1.75.61,2.05,1.45Zm-4.23-2.9h-11.62v-2.9h11.62v2.9Zm10.17-4.36H6.53c-1.2,0-2.18-.98-2.18-2.18v-2.18h36.3v2.18c0,1.2-.98,2.18-2.18,2.18Zm2.18-5.81H4.36v-1.64c.47.13.96.19,1.45.19,2.96,0,5.4-2.22,5.76-5.08h2.95v3.63h-1.45v1.45h18.88v-1.45h-1.45v-3.63h4.36v5.08h5.81v1.45Zm2.9-2.9h-7.26v-10.17h7.26v10.17Z"/>
      <circle class="cls-1" cx="19.6" cy="34.11" r=".73"/>
      <circle class="cls-1" cx="22.51" cy="34.11" r=".73"/>
      <circle class="cls-1" cx="25.41" cy="34.11" r=".73"/>
      <path class="cls-1" d="m8.71,23.22c0-1.6-1.3-2.9-2.9-2.9s-2.9,1.3-2.9,2.9,1.3,2.9,2.9,2.9,2.9-1.3,2.9-2.9Zm-4.36,0c0-.8.65-1.45,1.45-1.45s1.45.65,1.45,1.45-.65,1.45-1.45,1.45-1.45-.65-1.45-1.45Zm33.4-4.36h4.36v1.45h-4.36v-1.45Zm0,2.9h4.36v1.45h-4.36v-1.45Zm0,2.9h4.36v1.45h-4.36v-1.45Z"/>
    </g>
  </g>
</svg>