<?xml version="1.0" encoding="UTF-8"?>
<svg id="Layer_2" data-name="Layer 2" xmlns="http://www.w3.org/2000/svg" viewBox="0 0 41.23 45">
  <defs>
    <style>
      .cls-1 {
        fill: #ff6b0f;
        fill-rule: evenodd;
      }
    </style>
  </defs>
  <g id="Layer_1-2" data-name="Layer 1">
    <g>
      <path class="cls-1" d="m18.94,43.81h3.35v-2.74c0-.26.16-.47.42-.53.95-.31,1.82-.82,2.56-1.5.19-.17.46-.21.69-.08l2.37,1.37,1.69-2.9-2.37-1.37c-.23-.13-.34-.4-.26-.66.22-.98.22-2,0-2.98-.06-.25.05-.5.26-.63l2.37-1.34-1.69-2.9-2.37,1.34c-.22.13-.5.1-.69-.08-.74-.67-1.61-1.17-2.56-1.48-.25-.07-.42-.3-.42-.55v-2.74h-3.35v2.74c0,.26-.18.47-.42.53-.96.31-1.84.82-2.58,1.5-.19.17-.46.21-.69.08l-2.37-1.37-1.66,2.9,2.37,1.37c.22.13.32.39.26.63-.22.98-.22,2,0,2.98.07.25-.04.53-.26.66l-2.37,1.34,1.66,2.9,2.37-1.34c.22-.13.5-.1.69.08.74.67,1.63,1.18,2.58,1.48.26.08.42.32.42.55v2.74h0Zm3.95,1.19h-4.59c-.32,0-.58-.26-.58-.58,0,0,0-.02,0-.03v-2.9c-.82-.31-1.59-.76-2.27-1.32l-2.53,1.45c-.28.16-.63.07-.79-.21l-2.27-3.93c-.16-.28-.07-.63.21-.79l2.53-1.45c-.14-.87-.14-1.76,0-2.64l-2.53-1.45c-.28-.16-.37-.51-.21-.79l2.27-3.95c.17-.27.52-.35.79-.18l2.53,1.45c.69-.56,1.46-1.01,2.29-1.32v-2.9c0-.34.26-.61.58-.61h4.56c.34,0,.61.26.61.61v2.9c.79.32,1.58.76,2.27,1.32l2.5-1.45c.28-.16.63-.07.79.21l2.29,3.93c.16.28.07.63-.21.79l-2.53,1.45c.14.87.14,1.76,0,2.64l2.53,1.45c.28.16.37.51.21.79l-2.27,3.95c-.17.27-.52.35-.79.18l-2.53-1.45c-.68.56-1.45,1-2.27,1.32v2.9c0,.34-.26.61-.61.61h0Z"/>
      <path class="cls-1" d="m20.6,30.98c-1.63,0-2.95,1.32-2.95,2.95,0,1.63,1.32,2.95,2.95,2.95h0c1.63,0,2.95-1.32,2.95-2.95,0-1.63-1.32-2.95-2.95-2.95Zm0,7.07c-2.28.18-4.27-1.52-4.46-3.8-.18-2.28,1.52-4.27,3.8-4.46.22-.02.44-.02.66,0,2.28.18,3.98,2.18,3.8,4.46-.16,2.03-1.77,3.63-3.8,3.8Z"/>
      <path class="cls-1" d="m35.76,39.41h-5.88c-.32,0-.58-.26-.58-.58s.26-.58.58-.58h5.88c2.37,0,4.27-1.92,4.27-4.3V5.46c-.01-2.35-1.92-4.26-4.27-4.27H5.44c-2.35.01-4.26,1.92-4.27,4.27v28.5c0,2.37,1.92,4.3,4.3,4.3h5.88c.32,0,.58.26.58.58s-.26.58-.58.58h-5.88C2.46,39.41.01,36.97.01,33.95H.01V5.46c0-3.01,2.45-5.46,5.46-5.46h30.29c3.01,0,5.46,2.45,5.46,5.46v28.5c0,3.01-2.44,5.46-5.46,5.46h0Z"/>
      <path class="cls-1" d="m40.64,8.01H.59c-.33,0-.59-.27-.59-.59s.27-.59.59-.59h40.04c.33,0,.59.27.59.59s-.27.59-.59.59ZM6.39,3.37c-.34,0-.62.28-.62.62s.28.62.62.62.62-.28.62-.62-.28-.62-.62-.62Zm0,2.43c-.99,0-1.79-.8-1.79-1.79s.8-1.79,1.79-1.79,1.79.8,1.79,1.79-.8,1.79-1.79,1.79Zm5.43-2.43c-.34,0-.62.28-.62.62s.28.62.62.62h0c.34,0,.62-.28.62-.62s-.28-.62-.62-.62Zm0,2.43c-.99,0-1.79-.8-1.79-1.79s.8-1.79,1.79-1.79,1.79.8,1.79,1.79-.8,1.79-1.79,1.79h0Zm5.4-2.43c-.34,0-.62.28-.62.62s.28.62.62.62.62-.28.62-.62-.28-.62-.62-.62Zm0,2.43c-.99,0-1.79-.8-1.79-1.79s.8-1.79,1.79-1.79,1.79.8,1.79,1.79-.8,1.79-1.79,1.79Zm19.9,5.96H4.07c-.33,0-.59-.27-.59-.59s.27-.59.59-.59h33.06c.33,0,.59.27.59.59s-.27.59-.59.59Zm0,4.27H4.07c-.33,0-.59-.27-.59-.59s.27-.59.59-.59h33.06c.33,0,.59.27.59.59s-.27.59-.59.59Zm0,4.27H4.07c-.33,0-.59-.27-.59-.59s.27-.59.59-.59h33.06c.33,0,.59.27.59.59s-.27.59-.59.59Z"/>
    </g>
  </g>
</svg>