<?xml version="1.0" encoding="UTF-8"?>
<svg id="Layer_2" data-name="Layer 2" xmlns="http://www.w3.org/2000/svg" viewBox="0 0 39.32 45">
  <defs>
    <style>
      .cls-1 {
        fill: #ffb30c;
      }
    </style>
  </defs>
  <g id="Layer_1-2" data-name="Layer 1">
    <path class="cls-1" d="m38.39,37.98l-5.57-5.57c-.5-.49-1.07,0-1.33.49l-1.76-1.76c5.08-7.51,3.11-17.73-4.4-22.81-.16-.11-.32-.21-.48-.31C24.57,3.31,20.52-.27,15.81.02c-4.3.26-7.73,3.7-8,8-18.36,12.36-1.03,39.07,17.77,27.27l1.76,1.76c-.48.26-.98.82-.49,1.33l5.57,5.57c1.41,1.41,3.7,1.41,5.11,0l.86-.86c1.28-1.39,1.18-3.62,0-5.11h0ZM16.33,1.31c3.97,0,7.18,3.22,7.18,7.18,0,5.02-5.43,12.55-7.18,14.84-1.74-2.29-7.18-9.82-7.18-14.84,0-3.96,3.22-7.18,7.18-7.18h0Zm10.11,20.58c0,5.58-4.51,10.1-10.09,10.11-5.58,0-10.1-4.51-10.11-10.09,0-2.76,1.13-5.41,3.13-7.31,1.27,2.73,2.8,5.34,4.56,7.78-5.78,1.5-3.2,6.11,2.44,5.92,5.7.19,8.22-4.48,2.38-5.94,1.76-2.44,3.28-5.04,4.55-7.77,2,1.9,3.14,4.54,3.14,7.3h0Zm-8.57,1.69c4.7.89,3.1,3.24-1.49,3.35-4.54-.11-6.2-2.43-1.56-3.34.55.74.92,1.21.99,1.29.95.74,1.14-.23,2.06-1.3h0Zm-16.46-1.69c0-4.9,2.42-9.49,6.45-12.27.17,1.25.5,2.47.96,3.64-4.78,4.15-5.3,11.39-1.15,16.18s11.39,5.3,16.18,1.15c4.78-4.15,5.3-11.39,1.15-16.18-.35-.41-.74-.79-1.15-1.15.46-1.17.78-2.39.96-3.64,6.78,4.68,8.49,13.97,3.81,20.76s-13.97,8.49-20.76,3.81c-4.04-2.79-6.45-7.38-6.45-12.29h0Zm25.27,12.58c.81-.67,1.56-1.41,2.23-2.23l1.77,1.77c-.67.81-1.41,1.55-2.22,2.22l-1.77-1.76Zm10.74,7.67l-.86.86c-.88.88-2.3.88-3.18,0l-4.99-4.99c1.56-1.12,2.92-2.48,4.04-4.04l4.99,4.99c.88.87.88,2.29,0,3.17h0s0,0,0,0ZM20.61,8.56c-.1-2.36-2.1-4.18-4.45-4.08-2.21.1-3.99,1.87-4.08,4.08.1,2.36,2.1,4.18,4.45,4.08,2.21-.1,3.99-1.87,4.08-4.08Zm-7.18,0c.04-1.61,1.38-2.87,2.98-2.83,1.55.04,2.79,1.28,2.83,2.83-.04,1.61-1.38,2.87-2.98,2.83-1.55-.04-2.79-1.28-2.83-2.83Z"/>
  </g>
</svg>