<?xml version="1.0" encoding="UTF-8"?>
<svg id="Layer_2" data-name="Layer 2" xmlns="http://www.w3.org/2000/svg" viewBox="0 0 42.24 45.4">
  <defs>
    <style>
      .cls-1 {
        fill: #0fbc49;
      }
    </style>
  </defs>
  <g id="Layer_1-2" data-name="Layer 1">
    <g>
      <path class="cls-1" d="m20.34,45.4c-5.19,0-10.12-1.96-13.89-5.48C2.36,36.08,0,30.67,0,25.06c0-5.33,2.04-10.35,5.75-14.16,3.84-3.98,9.02-6.17,14.58-6.18.98,0,1.96.07,2.92.21.3.04.51.32.46.62-.01.07-.03.13-.07.2-.1.17-.19.34-.27.51-.67,1.31-1.02,2.77-1.01,4.23,0,1.45.77,3.52,2.28,6.16,1.82,3.15,4.26,6.35,5.55,7.97.04.04.11.13.12.16.4.49.78.96,1.09,1.33.08.1.2.15.34.15s.25-.05.33-.15c.31-.37.7-.84,1.13-1.39,1.14-1.42,3.32-4.25,5.09-7.15.11-.16.28-.26.47-.26.25.02.43.15.5.34.93,2.34,1.4,4.83,1.4,7.41,0,5.61-2.36,11.03-6.46,14.86-3.76,3.54-8.68,5.48-13.85,5.48h-.03Zm0-39.59c-5.27,0-10.17,2.08-13.81,5.85-3.51,3.6-5.44,8.36-5.44,13.4,0,5.31,2.23,10.44,6.11,14.06,3.56,3.34,8.23,5.18,13.13,5.19,4.91,0,9.58-1.84,13.15-5.19,3.88-3.63,6.11-8.75,6.11-14.06,0-2.06-.32-4.06-.95-5.97-1.59,2.48-3.35,4.78-4.57,6.31-.44.55-.83,1.03-1.14,1.41-.29.35-.72.55-1.17.55s-.89-.2-1.18-.56c-.42-.5-.83-1-1.23-1.51-1.31-1.65-3.79-4.89-5.65-8.11-1.61-2.81-2.43-5.06-2.43-6.7s.35-3.15,1.05-4.57c-.66-.07-1.32-.1-1.98-.1h0Z"/>
      <path class="cls-1" d="m20.31,45.4c-5.17,0-10.08-1.95-13.85-5.48-.11-.1-.17-.23-.17-.38,0-.15.05-.29.15-.39,3.79-3.56,8.71-5.51,13.88-5.51s10.15,1.95,13.91,5.48c.11.1.17.23.17.38,0,.15-.05.29-.15.39-3.79,3.56-8.71,5.51-13.87,5.51l-.07-.2v.2Zm-12.67-5.88c3.5,3.09,7.99,4.79,12.66,4.79s9.22-1.7,12.73-4.79c-3.5-3.09-7.99-4.79-12.66-4.79h-.07c-4.68,0-9.16,1.7-12.66,4.79Zm12.7-21.68c-2.97,0-5.83-.63-8.49-1.86-2.29-1.05-4.35-2.51-6.1-4.32-.21-.21-.21-.55,0-.76,3.85-3.98,9.03-6.18,14.58-6.18.98,0,1.96.07,2.92.21.3.04.51.32.46.62-.01.07-.03.13-.07.2-.1.17-.19.34-.27.51-.67,1.31-1.02,2.77-1.01,4.23,0,1.45.77,3.52,2.28,6.16.15.26.06.6-.2.75-.05.03-.1.05-.16.06-1.29.26-2.6.39-3.91.39h-.03Zm-13.43-6.56c1.58,1.54,3.39,2.78,5.4,3.71,2.48,1.15,5.24,1.76,7.97,1.76,1.07,0,2.07-.08,3.04-.23-1.36-2.5-2.05-4.52-2.05-6.03,0-1.62.35-3.15,1.05-4.57-.66-.07-1.32-.1-1.98-.1-5.08,0-9.84,1.95-13.44,5.47Z"/>
      <path class="cls-1" d="m20.35,45.4c-4.6,0-8.59-6.33-9.69-15.37-.02-.14.02-.28.1-.39.96-1.3,2.23-3.18,2.87-4.79.26-.66.4-1.21.4-1.64,0-1.93-1.06-3.7-2.77-4.6-.21-.11-.32-.34-.28-.58.16-.91.35-1.82.59-2.7,1.73-6.55,5.09-10.62,8.78-10.63.98,0,1.94.28,2.84.82.24.15.33.46.2.72-.67,1.3-1.01,2.76-1.01,4.23,0,1.45.77,3.52,2.28,6.16,1.82,3.15,4.26,6.35,5.55,7.97.08.09.12.22.12.34v.1c0,11.21-4.47,20.34-9.97,20.34h0Zm-8.58-15.29c1.07,8.36,4.59,14.19,8.57,14.2,4.89,0,8.87-8.6,8.9-19.17-1.31-1.65-3.72-4.82-5.53-7.96-1.61-2.81-2.43-5.06-2.43-6.7,0-1.49.3-2.92.9-4.25-.59-.28-1.21-.43-1.82-.43-3.18,0-6.14,3.76-7.74,9.81-.19.73-.36,1.48-.5,2.23,1.86,1.14,3,3.18,3,5.37,0,.57-.16,1.24-.48,2.04-.66,1.65-1.91,3.54-2.87,4.85Z"/>
      <path class="cls-1" d="m20.34,45.4c-.3,0-.55-.25-.55-.55V5.26c0-.3.25-.55.55-.55s.55.25.55.55v39.59c0,.3-.25.55-.55.55Zm13.3-19.8c-.3,0-.55-.25-.55-.55s.25-.55.55-.55h6.49c.3,0,.55.25.55.55s-.25.55-.55.55h-6.49ZM.55,25.6c-.3,0-.55-.25-.55-.55s.25-.55.55-.55h2.98c.3,0,.55.25.55.55s-.25.55-.55.55H.55Z"/>
      <path class="cls-1" d="m14.13,25.6c-.3,0-.55-.25-.55-.55s.25-.55.55-.55h15.73c.3,0,.55.25.55.55s-.25.55-.55.55h-15.73Z"/>
      <path class="cls-1" d="m31.75,27.36c-.46,0-.88-.2-1.18-.55-2.8-3.36-9.31-11.68-9.31-16.32,0-5.78,4.7-10.48,10.48-10.48s10.48,4.7,10.48,10.48c0,4.64-6.51,12.96-9.31,16.32-.29.35-.72.55-1.18.55h0Zm0-26.27c-5.18,0-9.39,4.21-9.39,9.39,0,4.41,6.93,13.07,9.05,15.62.08.09.2.15.34.15h0c.14,0,.26-.05.34-.15,2.12-2.55,9.05-11.22,9.05-15.62,0-5.18-4.21-9.39-9.39-9.39Z"/>
      <path class="cls-1" d="m8.83,33.18c-.33,0-.64-.15-.86-.4-1.63-1.96-5.42-6.81-5.42-9.57,0-3.46,2.82-6.28,6.28-6.28s6.28,2.82,6.28,6.28c0,2.75-3.79,7.61-5.42,9.57-.21.26-.52.4-.86.4Zm0-15.16c-2.86,0-5.19,2.33-5.19,5.19,0,2.46,3.96,7.41,5.17,8.87,1.25-1.46,5.21-6.4,5.21-8.87,0-2.86-2.33-5.19-5.19-5.19Zm22.92-.4c-3.94,0-7.14-3.2-7.14-7.14s3.2-7.14,7.14-7.14,7.14,3.2,7.14,7.14-3.2,7.14-7.14,7.14Zm0-13.19c-3.34,0-6.05,2.71-6.05,6.05s2.71,6.05,6.05,6.05,6.05-2.71,6.05-6.05-2.71-6.05-6.05-6.05Z"/>
      <path class="cls-1" d="m8.83,27c-2.09,0-3.79-1.7-3.79-3.79s1.7-3.79,3.79-3.79,3.79,1.7,3.79,3.79-1.7,3.79-3.79,3.79Zm0-6.89c-1.71,0-3.1,1.39-3.1,3.1s1.39,3.1,3.1,3.1,3.1-1.39,3.1-3.1-1.39-3.1-3.1-3.1h0Zm20.17-9.75c-.21-.08-.42-.14-.64-.19-.16-.03-.31-.08-.46-.13-.09-.03-.18-.08-.25-.15-.06-.05-.08-.13-.08-.21,0-.14.06-.24.19-.32.14-.09.34-.13.57-.13.26,0,.51.04.75.12.05.02.09.03.12.03.09,0,.17-.04.23-.1.05-.06.08-.13.08-.21,0-.14-.08-.26-.21-.3-.32-.12-.67-.17-1.01-.17-.28,0-.53.05-.73.15-.21.1-.37.23-.48.4-.11.17-.17.36-.16.56,0,.24.07.44.2.58.13.14.28.25.46.31.17.07.39.13.65.2.2.05.35.1.45.13.09.03.17.08.23.13.05.04.08.1.07.16,0,.19-.08.45-.75.45-.33,0-.63-.06-.92-.19-.12-.06-.27-.03-.36.07-.1.11-.11.28-.03.4.04.05.09.09.15.12.37.16.78.24,1.21.24.26,0,.5-.04.7-.13.21-.09.37-.22.49-.38.12-.16.18-.35.18-.56,0-.25-.07-.45-.2-.6-.12-.14-.28-.25-.45-.32h0Zm3.4-1.06c.17,0,.32-.14.32-.31,0,0,0,0,0,0,0-.09-.03-.17-.09-.23-.06-.06-.14-.09-.23-.09h-1.96c-.18,0-.33.15-.33.34h0v2.97c0,.18.14.33.32.33,0,0,0,0,.01,0h1.96c.17,0,.32-.14.32-.31,0,0,0,0,0,0,0-.09-.03-.17-.09-.23-.06-.06-.14-.09-.23-.09h-1.63v-.87h1.45c.17,0,.32-.14.32-.31,0,0,0,0,0,0,0-.09-.03-.17-.09-.23-.06-.06-.14-.09-.23-.09h-1.45v-.86h1.63,0Zm4.01.22c-.15-.28-.37-.51-.64-.67-.27-.16-.59-.24-.95-.24s-.68.08-.96.24c-.27.16-.49.39-.64.66-.15.3-.23.63-.23.96,0,.36.08.68.23.96.15.28.36.5.64.66.27.16.59.24.96.24s.68-.08.95-.24c.27-.16.49-.38.64-.67.15-.28.23-.6.24-.96,0-.33-.08-.66-.24-.96Zm-1.59,2.19c-.22,0-.43-.05-.62-.16-.17-.1-.31-.25-.4-.43-.1-.2-.14-.42-.14-.64,0-.24.05-.45.14-.64.09-.18.22-.33.4-.43.17-.11.38-.16.62-.16s.45.05.62.16c.17.11.31.25.4.43.09.19.14.4.14.64s-.05.45-.14.63c-.09.18-.23.33-.4.43-.19.11-.4.17-.62.16h0Z"/>
    </g>
  </g>
</svg>