<?xml version="1.0" encoding="UTF-8"?>
<svg id="Layer_2" data-name="Layer 2" xmlns="http://www.w3.org/2000/svg" viewBox="0 0 45 45">
  <defs>
    <style>
      .cls-1 {
        fill: #ff6b0f;
      }
    </style>
  </defs>
  <g id="Layer_1-2" data-name="Layer 1">
    <g>
      <path class="cls-1" d="m10.16,37.74h7.26v1.45h-7.26v-1.45Z"/>
      <circle class="cls-1" cx="3.63" cy="3.63" r=".73"/>
      <path class="cls-1" d="m8.71,2.9h8.71v1.45h-8.71v-1.45Zm10.16,11.61c-.12,0-.24,0-.37.02-.91-2.62-3.38-4.38-6.16-4.37-2.83,0-5.34,1.82-6.21,4.52-1.91.5-3.23,2.22-3.23,4.19,0,2.4,1.95,4.35,4.35,4.35h11.61c2.4,0,4.35-1.95,4.35-4.35s-1.95-4.35-4.35-4.35Zm0,7.26H7.26c-1.6,0-2.9-1.3-2.9-2.9,0-1.43,1.05-2.65,2.46-2.86l.48-.07.12-.47c.56-2.27,2.59-3.86,4.93-3.86,2.36,0,4.41,1.62,4.94,3.92l.17.72.71-.18c.27-.07.49-.1.71-.1,1.6,0,2.9,1.3,2.9,2.9s-1.3,2.9-2.9,2.9h0Zm-8.04,10.89c0,1.2.98,2.18,2.18,2.18s2.18-.98,2.18-2.18-.98-2.18-2.18-2.18-2.18.98-2.18,2.18Zm2.9,0c0,.4-.32.73-.73.73s-.73-.32-.73-.73.32-.73.73-.73.73.32.73.73Zm2.87-3.59c-.96-.96-2.24-1.49-3.59-1.49s-2.63.53-3.59,1.49l1.03,1.03c.68-.68,1.6-1.07,2.57-1.06.97,0,1.88.38,2.57,1.06l1.03-1.03Z"/>
      <path class="cls-1" d="m7.37,27.02l1.03,1.03c2.55-2.55,6.69-2.55,9.24,0l1.03-1.03c-3.11-3.11-8.18-3.11-11.29,0Z"/>
      <path class="cls-1" d="m40.78,26.85c.31.87,1.12,1.45,2.04,1.45,1.2,0,2.18-.98,2.18-2.18s-.98-2.18-2.18-2.18c-.92,0-1.74.58-2.04,1.45h-14.65v-1.45h6.83l4.35-4.35h3.46c.31.87,1.12,1.45,2.04,1.45,1.2,0,2.18-.98,2.18-2.18s-.98-2.18-2.18-2.18c-.92,0-1.74.58-2.04,1.45h-4.06l-4.35,4.35h-6.23v-5.13c1.51.98,3.28,1.5,5.08,1.5,5.2,0,9.44-4.23,9.44-9.44S36.41,0,31.21,0c-2.08,0-4.01.69-5.57,1.84-.63-1.1-1.82-1.84-3.14-1.84H3.63C1.63,0,0,1.63,0,3.63v37.74c0,2,1.63,3.63,3.63,3.63h18.87c2,0,3.63-1.63,3.63-3.63v-11.61h6.23l4.35,4.35h4.06c.31.87,1.12,1.45,2.04,1.45,1.2,0,2.18-.98,2.18-2.18s-.98-2.18-2.18-2.18c-.92,0-1.74.58-2.04,1.45h-3.46l-4.35-4.35h-6.83v-1.45h14.65Zm2.04-1.45c.4,0,.73.32.73.73s-.32.73-.73.73-.73-.32-.73-.73.32-.73.73-.73Zm0-7.26c.4,0,.73.32.73.73s-.32.73-.73.73-.73-.32-.73-.73.32-.73.73-.73Zm0,14.52c.4,0,.73.32.73.73s-.32.73-.73.73-.73-.32-.73-.73.32-.73.73-.73ZM28.51,1.93c-.4.67-.74,1.49-1.01,2.42h-2.45c.91-1.1,2.11-1.94,3.46-2.42Zm4.88,2.42h-4.37c.57-1.79,1.4-2.9,2.18-2.9s1.61,1.11,2.18,2.9Zm5.76,4.35h-3.61c-.03-.97-.13-1.94-.3-2.9h3.06c.47.9.75,1.89.84,2.9Zm-7.95,8.71c-.78,0-1.61-1.11-2.18-2.9h4.37c-.57,1.79-1.4,2.9-2.18,2.9h0Zm-2.55-4.35c-.19-.96-.3-1.93-.33-2.9h5.78c-.03.98-.14,1.95-.33,2.9h-5.11Zm6.89-2.9h3.61c-.09,1.01-.38,2-.84,2.9h-3.06c.16-.9.26-1.87.3-2.9Zm-1.45-1.45h-5.78c.03-.98.14-1.95.33-2.9h5.11c.18.88.3,1.85.33,2.9Zm-9.99-2.9h3.06c-.17.96-.27,1.93-.3,2.9h-3.61c.09-1.01.38-2,.84-2.9Zm2.76,4.35c.03,1.03.13,2.01.3,2.9h-3.06c-.47-.9-.75-1.89-.84-2.9h3.61Zm.63,4.35c.27.94.61,1.76,1.01,2.42-1.35-.48-2.54-1.32-3.46-2.42h2.45Zm6.4,2.42c.4-.67.74-1.48,1.01-2.42h2.45c-.91,1.1-2.11,1.94-3.46,2.42Zm3.46-12.59h-2.45c-.27-.94-.61-1.76-1.01-2.42,1.35.48,2.54,1.32,3.46,2.42ZM3.63,1.45h18.87c.89,0,1.68.55,2.01,1.35-.86.86-1.54,1.88-2.01,3.01H1.45v-2.18c0-1.2.98-2.18,2.18-2.18Zm18.87,42.1H3.63c-1.2,0-2.18-.98-2.18-2.18v-.02c.62.48,1.39.74,2.18.74h18.87c.82,0,1.57-.28,2.18-.74v.02c0,1.2-.98,2.18-2.18,2.18Zm0-2.9H3.63c-1.2,0-2.18-.98-2.18-2.18V7.26h20.59c-.17.71-.26,1.44-.26,2.18,0,2.67,1.12,5.07,2.9,6.79v22.24c0,1.2-.98,2.18-2.18,2.18Z"/>
    </g>
  </g>
</svg>