<?xml version="1.0" encoding="UTF-8"?>
<svg id="Layer_2" data-name="Layer 2" xmlns="http://www.w3.org/2000/svg" viewBox="0 0 48.97 45">
  <defs>
    <style>
      .cls-1 {
        fill: #ffb30c;
        fill-rule: evenodd;
      }
    </style>
  </defs>
  <g id="Layer_1-2" data-name="Layer 1">
    <g>
      <path class="cls-1" d="m33.35,30.51c-.53,0-.96.43-.96.96s.43.96.96.96h9.93c.45,0,.84-.31.93-.75l4.74-21.94c.11-.52-.22-1.03-.73-1.14-.07-.01-.13-.02-.2-.02h-10.53c-.31-3.06-2.12-5.79-4.86-7.27-.46-.25-1.05-.08-1.3.39-.25.46-.08,1.05.39,1.3,2.41,1.3,3.91,3.81,3.91,6.55,0,1.99-.77,3.85-2.18,5.26-1.4,1.4-3.27,2.18-5.26,2.18-4.1,0-7.43-3.33-7.43-7.43,0-2.91,1.71-5.57,4.36-6.77.48-.22.69-.79.48-1.27-.22-.48-.79-.69-1.27-.48-3.04,1.38-5.1,4.28-5.44,7.56h-7.08l-1.69-7.81C10.02.31,9.63,0,9.18,0H.96C.43,0,0,.43,0,.96s.43.96.96.96h7.45l1.69,7.81,4.74,21.94s0,0,0,0l.82,3.8c-1.77.76-3.01,2.52-3.01,4.57,0,2.74,2.23,4.97,4.97,4.97,2.41,0,4.43-1.73,4.88-4.02h14.05c.45,2.29,2.46,4.02,4.88,4.02,2.74,0,4.97-2.23,4.97-4.97s-2.23-4.97-4.97-4.97c-2.41,0-4.43,1.73-4.88,4.02h-14.05c-.45-2.29-2.46-4.02-4.88-4.02-.03,0-.06,0-.09,0l-.57-2.64h8.74c.53,0,.96-.43.96-.96s-.43-.96-.96-.96h-9.16l-4.32-20.03h6.67c.48,4.71,4.47,8.39,9.3,8.39,2.17,0,4.24-.74,5.9-2.09l5.29,5.29c.18.18.42.28.68.28.25,0,.5-.1.68-.28.37-.37.37-.98,0-1.35l-5.29-5.29c1.16-1.42,1.86-3.12,2.05-4.94h9.35l-4.32,20.03h-9.16Zm8.08,6.46c1.69,0,3.06,1.37,3.06,3.06s-1.37,3.06-3.06,3.06-3.06-1.37-3.06-3.06,1.37-3.06,3.06-3.06h0Zm-20.75,3.06s0,0,0,0,0,0,0,0c0,1.69-1.37,3.06-3.06,3.06s-3.06-1.37-3.06-3.06,1.37-3.06,3.06-3.06,3.06,1.37,3.06,3.06Z"/>
      <path class="cls-1" d="m28.18,2.09c.53,0,.96-.43.96-.96s-.43-.96-.96-.96-.96.43-.96.96.43.96.96.96Zm.39,29.37c0,.53.43.96.96.96s.96-.43.96-.96-.43-.96-.96-.96-.96.43-.96.96Z"/>
    </g>
  </g>
</svg>