<?xml version="1.0" encoding="UTF-8"?>
<svg id="Layer_2" data-name="Layer 2" xmlns="http://www.w3.org/2000/svg" viewBox="0 0 45 45">
  <defs>
    <style>
      .cls-1 {
        fill: #0fbc49;
      }
    </style>
  </defs>
  <g id="Layer_1-2" data-name="Layer 1">
    <g>
      <path class="cls-1" d="m12.97,19.22h28.96c.82,0,1.6.32,2.17.9h0c.58.58.9,1.36.9,2.17v19.63c0,.84-.35,1.62-.9,2.17-.57.58-1.36.9-2.17.9H12.97c-.82,0-1.6-.33-2.17-.9-.58-.57-.9-1.36-.9-2.17v-19.63c0-.84.35-1.62.9-2.17.58-.58,1.36-.9,2.17-.9Zm28.96,1.41H12.97c-.44,0-.87.18-1.18.49-.31.31-.49.73-.49,1.18v19.63c0,.46.19.88.49,1.18.31.31.73.49,1.18.49h28.96c.44,0,.87-.17,1.18-.49.31-.31.49-.74.49-1.18v-19.63c0-.44-.18-.87-.49-1.18h0c-.31-.31-.74-.49-1.18-.49Z"/>
      <path class="cls-1" d="m21.57,13.36h11.75c.67,0,1.28.27,1.72.72.44.44.72,1.05.72,1.72v4.83h-4.37v-2.99h-7.88v2.99h-4.37v-4.83c0-1.35,1.09-2.44,2.44-2.44h0Zm11.75,1.41h-11.75c-.28,0-.54.12-.73.31-.19.19-.3.45-.3.73v3.42h1.56v-2.99h10.69v2.99h1.56v-3.42c0-.28-.12-.54-.3-.73h0c-.19-.2-.45-.31-.73-.31Z"/>
      <path class="cls-1" d="m7.76,38.14c.39,0,.7.31.7.7,0,.39-.32.7-.7.7H2.11c-.58,0-1.1-.24-1.49-.62h0c-.4-.4-.62-.93-.62-1.49V2.11c0-.58.24-1.1.62-1.49C1.01.22,1.55,0,2.11,0h19.77c.3,0,.59.06.85.18.26.12.5.29.7.51h0s0,0,0,0l5.3,5.68s.02.03.04.04c.16.18.29.39.38.62.09.24.14.5.14.76v3.45c0,.39-.31.7-.7.7-.39,0-.71-.31-.71-.7,0,0,0,0,0,0v-3.45c0-.1,0-.19-.04-.26-.03-.06-.07-.12-.11-.18,0,0-.02-.01-.03-.02l-5.3-5.68c-.07-.07-.15-.14-.24-.18-.09-.04-.19-.05-.28-.05H2.11c-.19,0-.36.08-.49.21h0c-.13.12-.2.3-.2.49v35.33c0,.2.08.37.2.5h0c.13.13.3.21.49.21h5.66Z"/>
      <path class="cls-1" d="m24.9,32.03l-12.06-2.29c-.81-.15-1.57-.51-2.11-1.05-.52-.52-.84-1.2-.84-2.01h1.41c0,.41.17.76.43,1.02.34.33.83.56,1.37.66l12.06,2.29-.26,1.38Zm20.1-5.35c0,.81-.32,1.49-.84,2.01h0c-.54.55-1.29.9-2.1,1.05l-12.06,2.31-.26-1.38,12.06-2.31c.55-.11,1.04-.33,1.38-.66.27-.27.43-.64.42-1.02h1.41ZM17.91,6.28c.39,0,.7.31.7.7,0,.39-.31.7-.7.7h-9.81c-.39.01-.71-.29-.73-.68-.01-.39.29-.71.68-.73.01,0,.03,0,.04,0h9.81Zm-13.16,0c.39,0,.71.31.71.7,0,.39-.32.7-.71.7h-.53c-.39,0-.7-.32-.7-.7,0-.39.31-.7.7-.7h.53Zm8.54,6.38c.39,0,.7.32.7.7s-.32.7-.7.7h-5.19c-.39-.02-.69-.34-.68-.73.01-.37.31-.66.68-.68h5.19Zm-8.53,0c.39,0,.71.32.71.7s-.32.7-.71.7h-.53c-.39,0-.7-.31-.7-.7,0-.39.32-.7.7-.7h.53Zm13.16-3.19c.39,0,.7.31.7.7,0,.39-.31.7-.7.7h-9.81c-.39.01-.71-.29-.73-.68-.01-.39.29-.71.68-.73.01,0,.03,0,.04,0h9.81Zm-13.16,0c.39,0,.71.31.71.7,0,.39-.32.7-.71.7h-.53c-.39,0-.7-.32-.7-.7,0-.39.31-.7.7-.7h.53ZM22.6.26l6.4,6.94c.26.29.24.73-.04.99-.13.12-.3.19-.47.19h-4.41c-.72,0-1.41-.29-1.92-.8l-.04-.04c-.49-.5-.76-1.18-.76-1.88V.7c0-.39.31-.7.7-.7.22,0,.41.1.55.26Zm4.28,6.72l-4.12-4.47v3.15c0,.34.13.66.36.9l.03.03c.25.25.58.39.93.39h2.81Zm5.08-3.19c-.08.38-.44.62-.82.54,0,0,0,0-.01,0-.38-.08-.62-.45-.55-.82,0,0,0,0,0,0l.27-1.28.35-1.66c.07-.33.35-.56.69-.56h2.46c.36,0,.65.26.7.61l.52,2.46c.36.1.71.22,1.05.37.35.14.68.31,1.01.49l2.15-1.41c.28-.18.64-.14.87.09h0l.87.87s.02.02.03.04l.83.83c.24.24.27.62.08.89l-1.39,2.13c.18.32.35.66.49,1.01.14.34.26.69.36,1.05l2.51.53c.34.07.58.37.56.72v2.42c0,.36-.26.65-.61.7l-2.46.52c-.1.36-.22.71-.36,1.05-.2.49-.44.95-.73,1.4-.2.33-.63.43-.96.23,0,0,0,0,0,0-.33-.21-.42-.64-.21-.97.47-.74.81-1.56,1.01-2.41.05-.28.26-.51.55-.57l2.38-.5v-.66h0v-.66l-2.39-.5c-.27-.06-.48-.26-.54-.53-.09-.43-.23-.86-.4-1.27-.17-.41-.38-.81-.62-1.18-.14-.23-.14-.53,0-.76l1.33-2.04-.43-.43s-.02-.02-.04-.03l-.47-.47-2,1.3c-.23.18-.55.19-.8.03-.38-.24-.77-.44-1.18-.61-.4-.17-.81-.3-1.23-.4-.28-.05-.51-.26-.57-.55l-.5-2.38h-1.32l-.23,1.1-.27,1.28Zm1.16,3.74c-.39,0-.7-.31-.7-.7s.31-.7.7-.7c1.59,0,3.03.64,4.07,1.69,1.08,1.08,1.69,2.54,1.68,4.07,0,.41-.04.83-.13,1.23-.09.4-.22.8-.39,1.17-.16.35-.58.51-.93.35-.35-.16-.5-.58-.34-.93,0,0,0,0,0,0,.13-.27.22-.57.29-.88.06-.3.1-.61.1-.94,0-1.2-.49-2.29-1.27-3.08-.82-.82-1.92-1.27-3.08-1.27Z"/>
      <path class="cls-1" d="m25.13,26.7h4.64c.37,0,.7.15.94.39h0c.25.26.39.59.39.95v5.14c0,1.01-.41,1.92-1.07,2.58-.66.66-1.58,1.07-2.58,1.07s-1.92-.41-2.58-1.07c-.66-.66-1.07-1.58-1.07-2.58v-5.14c0-.37.15-.7.4-.94h0c.25-.25.59-.39.94-.39h0Zm4.57,1.41h-4.49v5.08c0,.6.24,1.17.66,1.59.42.42.99.66,1.59.66.6,0,1.17-.24,1.59-.66.42-.42.66-.99.66-1.59v-5.08Z"/>
      <circle class="cls-1" cx="27.45" cy="33.09" r=".7"/>
    </g>
  </g>
</svg>