<svg width="60" height="61" viewBox="0 0 60 61" fill="none" xmlns="http://www.w3.org/2000/svg">
<path d="M49.4527 11.6552V6.6693C49.4527 4.85055 47.9782 3.3761 46.1595 3.3761H4.46508C2.64633 3.3761 1.17188 4.85055 1.17188 6.6693V11.6553L49.4527 11.6552Z" stroke="#C73E9B" stroke-width="2" stroke-miterlimit="10" stroke-linecap="round" stroke-linejoin="round"/>
<path d="M10.0324 52.2504H4.46484C2.64609 52.2504 1.17188 50.7762 1.17188 48.9575V11.6555H49.4531V38.1598H48.1992C47.5371 38.1598 46.9535 38.6004 46.7719 39.2379L46.4285 40.4461C46.2094 41.2184 45.4172 41.6754 44.6402 41.4797L43.4203 41.1739C42.777 41.0122 42.1043 41.2969 41.7727 41.87L40.4391 44.1821C40.1062 44.7551 40.1977 45.4805 40.6582 45.9563L41.5336 46.8586C42.0914 47.434 42.0914 48.3493 41.5336 48.9247L40.6582 49.8282C40.1977 50.304 40.1062 51.0282 40.4391 51.6024L40.8129 52.2504H20.3344" stroke="#C73E9B" stroke-width="2" stroke-miterlimit="10" stroke-linecap="round" stroke-linejoin="round"/>
<path d="M57.5342 48.9242C56.9762 48.3491 56.9762 47.4344 57.5342 46.858L58.4097 45.9556C58.8707 45.4798 58.9614 44.7552 58.6292 44.1813L57.2951 41.8701C56.964 41.2962 56.2908 41.0118 55.6484 41.1736L54.4283 41.4802C53.6509 41.6752 52.8589 41.2178 52.6394 40.4466L52.296 39.2376C52.1133 38.5999 51.5309 38.1598 50.8688 38.1598H48.1995C47.5374 38.1598 46.9537 38.5999 46.7722 39.2376L46.4289 40.4466C46.2094 41.2178 45.4173 41.6752 44.6399 41.4802L43.4199 41.1736C42.7773 41.0118 42.1042 41.2962 41.7731 41.8701L40.4391 44.1813C40.1067 44.7552 40.1976 45.4799 40.6586 45.9556L41.5341 46.858C42.092 47.4344 42.092 48.349 41.5341 48.9242L40.6586 49.8278C40.1976 50.3036 40.1069 51.0281 40.4391 51.602L41.7731 53.9133C42.1042 54.4872 42.7773 54.7716 43.4199 54.6097L44.6399 54.3032C45.4173 54.1082 46.2094 54.5656 46.4289 55.3368L46.7722 56.5458C46.9538 57.1834 47.5374 57.6236 48.1995 57.6236H50.8688C51.5309 57.6236 52.1133 57.1834 52.296 56.5458L52.6394 55.3368C52.8589 54.5656 53.6509 54.1082 54.4283 54.3032L55.6484 54.6097C56.2909 54.7716 56.964 54.4872 57.2951 53.9133L58.6292 51.602C58.9615 51.0281 58.8707 50.3035 58.4097 49.8278L57.5342 48.9242ZM49.5334 51.0137C47.8096 51.0137 46.4127 49.6156 46.4127 47.8917C46.4127 46.1679 47.8096 44.7698 49.5334 44.7698C51.2584 44.7698 52.6554 46.1679 52.6554 47.8917C52.6554 49.6156 51.2584 51.0137 49.5334 51.0137Z" stroke="#C73E9B" stroke-width="2" stroke-miterlimit="10" stroke-linecap="round" stroke-linejoin="round"/>
<path d="M25.1337 30.6718L27.1508 33.5766L30.5963 34.5893L28.3974 37.3639L28.5098 40.9282L25.1337 39.7046L21.7577 40.9282L21.87 37.3639L19.6711 34.5893L23.1166 33.5766L25.1337 30.6718Z" stroke="#C73E9B" stroke-width="2" stroke-miterlimit="10" stroke-linecap="round" stroke-linejoin="round"/>
<path d="M25.1337 46.8808C31.2107 46.8808 36.1371 42.0178 36.1371 36.0191C36.1371 30.0204 31.2107 25.1575 25.1337 25.1575C19.0567 25.1575 14.1302 30.0204 14.1302 36.0191C14.1302 42.0178 19.0567 46.8808 25.1337 46.8808Z" stroke="#C73E9B" stroke-width="2" stroke-miterlimit="10" stroke-linecap="round" stroke-linejoin="round"/>
<path d="M35.0162 19.5838L32.4254 27.884C30.4839 26.1874 27.9301 25.1572 25.1336 25.1572C22.3372 25.1572 19.7833 26.1872 17.8419 27.884L15.2511 19.5838L17.9106 20.8174C20.0884 21.8274 22.6862 20.9853 23.8333 18.8974L25.1336 16.5308L26.4339 18.8974C27.5811 20.9852 30.1789 21.8274 32.3567 20.8174L35.0162 19.5838Z" stroke="#C73E9B" stroke-width="2" stroke-miterlimit="10" stroke-linecap="round" stroke-linejoin="round"/>
</svg>
