<svg width="60" height="60" viewBox="0 0 60 60" fill="none" xmlns="http://www.w3.org/2000/svg">
<path d="M16.875 33.75C15.7625 33.75 14.6749 34.0799 13.7499 34.698C12.8249 35.3161 12.1039 36.1946 11.6782 37.2224C11.2524 38.2502 11.141 39.3812 11.3581 40.4724C11.5751 41.5635 12.1109 42.5658 12.8975 43.3525C13.6842 44.1391 14.6865 44.6749 15.7776 44.8919C16.8688 45.109 17.9998 44.9976 19.0276 44.5718C20.0554 44.1461 20.9339 43.4251 21.552 42.5001C22.1701 41.5751 22.5 40.4875 22.5 39.375C22.5 37.8832 21.9074 36.4524 20.8525 35.3975C19.7976 34.3426 18.3668 33.75 16.875 33.75ZM16.875 43.125C16.1333 43.125 15.4083 42.9051 14.7916 42.493C14.1749 42.081 13.6943 41.4953 13.4105 40.8101C13.1266 40.1248 13.0524 39.3708 13.1971 38.6434C13.3418 37.916 13.6989 37.2478 14.2234 36.7234C14.7478 36.1989 15.416 35.8417 16.1434 35.6971C16.8708 35.5524 17.6248 35.6266 18.3101 35.9105C18.9953 36.1943 19.581 36.6749 19.993 37.2916C20.4051 37.9083 20.625 38.6333 20.625 39.375C20.625 40.3696 20.2299 41.3234 19.5267 42.0266C18.8234 42.7299 17.8696 43.125 16.875 43.125Z" fill="#C73E9B"/>
<path d="M16.875 29.0625C14.0937 29.0625 11.3749 29.8872 9.0623 31.4325C6.74973 32.9777 4.94731 35.1739 3.88295 37.7435C2.81859 40.3131 2.54011 43.1406 3.08271 45.8685C3.62532 48.5963 4.96464 51.102 6.93132 53.0687C8.89799 55.0354 11.4037 56.3747 14.1315 56.9173C16.8594 57.4599 19.6869 57.1814 22.2565 56.1171C24.8261 55.0527 27.0223 53.2503 28.5675 50.9377C30.1128 48.6251 30.9375 45.9063 30.9375 43.125C30.9375 41.2783 30.5738 39.4497 29.8671 37.7435C29.1604 36.0374 28.1245 34.4871 26.8187 33.1813C25.5129 31.8755 23.9626 30.8397 22.2565 30.1329C20.5504 29.4262 18.7217 29.0625 16.875 29.0625ZM10.3875 53.4375C10.624 51.8864 11.4085 50.4714 12.5987 49.4489C13.7888 48.4265 15.306 47.8643 16.875 47.8643C18.444 47.8643 19.9612 48.4265 21.1513 49.4489C22.3415 50.4714 23.126 51.8864 23.3625 53.4375C21.4248 54.6745 19.1739 55.3318 16.875 55.3318C14.5761 55.3318 12.3252 54.6745 10.3875 53.4375ZM25.0125 52.1906C24.5238 50.4072 23.4627 48.8337 21.9925 47.7121C20.5222 46.5905 18.7242 45.983 16.875 45.983C15.0258 45.983 13.2278 46.5905 11.7576 47.7121C10.2873 48.8337 9.22622 50.4072 8.73751 52.1906C6.9011 50.5435 5.60774 48.3779 5.02839 45.9801C4.44903 43.5822 4.61097 41.065 5.49278 38.7612C6.37459 36.4573 7.93476 34.4753 9.96708 33.0771C11.9994 31.6789 14.4082 30.9303 16.875 30.9303C19.3418 30.9303 21.7506 31.6789 23.7829 33.0771C25.8153 34.4753 27.3754 36.4573 28.2572 38.7612C29.139 41.065 29.301 43.5822 28.7216 45.9801C28.1423 48.3779 26.8489 50.5435 25.0125 52.1906Z" fill="#C73E9B"/>
<path d="M43.125 18.75C44.2375 18.75 45.3251 18.4201 46.2501 17.802C47.1751 17.1839 47.8961 16.3054 48.3218 15.2776C48.7476 14.2498 48.859 13.1188 48.6419 12.0276C48.4249 10.9365 47.8891 9.9342 47.1025 9.14753C46.3158 8.36086 45.3135 7.82513 44.2224 7.60809C43.1312 7.39104 42.0002 7.50244 40.9724 7.92818C39.9446 8.35392 39.0661 9.07489 38.448 9.99992C37.8299 10.9249 37.5 12.0125 37.5 13.125C37.5 14.6168 38.0926 16.0476 39.1475 17.1025C40.2024 18.1574 41.6332 18.75 43.125 18.75ZM43.125 9.375C43.8667 9.375 44.5917 9.59494 45.2084 10.007C45.8251 10.419 46.3057 11.0047 46.5895 11.6899C46.8734 12.3752 46.9476 13.1292 46.8029 13.8566C46.6583 14.584 46.3011 15.2522 45.7766 15.7767C45.2522 16.3011 44.584 16.6583 43.8566 16.8029C43.1292 16.9476 42.3752 16.8734 41.6899 16.5896C41.0047 16.3057 40.419 15.8251 40.007 15.2084C39.5949 14.5917 39.375 13.8667 39.375 13.125C39.375 12.1304 39.7701 11.1766 40.4734 10.4734C41.1766 9.77009 42.1304 9.375 43.125 9.375Z" fill="#C73E9B"/>
<path d="M43.125 30.9375C45.9063 30.9375 48.6251 30.1128 50.9377 28.5675C53.2503 27.0223 55.0527 24.8261 56.1171 22.2565C57.1814 19.6869 57.4599 16.8594 56.9173 14.1315C56.3747 11.4037 55.0354 8.89799 53.0687 6.93132C51.102 4.96464 48.5963 3.62532 45.8685 3.08271C43.1406 2.54011 40.3131 2.81859 37.7435 3.88295C35.1739 4.94731 32.9777 6.74973 31.4325 9.0623C29.8872 11.3749 29.0625 14.0937 29.0625 16.875C29.0625 20.6046 30.5441 24.1815 33.1813 26.8187C35.8185 29.4559 39.3954 30.9375 43.125 30.9375ZM36.6375 27.1875C36.874 25.6364 37.6585 24.2214 38.8487 23.1989C40.0388 22.1765 41.556 21.6143 43.125 21.6143C44.694 21.6143 46.2112 22.1765 47.4013 23.1989C48.5915 24.2214 49.376 25.6364 49.6125 27.1875C47.6748 28.4245 45.4239 29.0818 43.125 29.0818C40.8261 29.0818 38.5752 28.4245 36.6375 27.1875ZM43.125 4.68751C45.5861 4.69332 47.9877 5.4441 50.0139 6.84103C52.0401 8.23797 53.596 10.2156 54.4766 12.5137C55.3573 14.8118 55.5216 17.3227 54.9479 19.716C54.3742 22.1093 53.0894 24.2728 51.2625 25.9219C50.7738 24.1384 49.7127 22.5649 48.2424 21.4434C46.7722 20.3218 44.9742 19.7143 43.125 19.7143C41.2758 19.7143 39.4778 20.3218 38.0076 21.4434C36.5373 22.5649 35.4762 24.1384 34.9875 25.9219C33.1606 24.2728 31.8758 22.1093 31.3021 19.716C30.7284 17.3227 30.8927 14.8118 31.7734 12.5137C32.654 10.2156 34.2099 8.23797 36.2361 6.84103C38.2623 5.4441 40.6639 4.69332 43.125 4.68751Z" fill="#C73E9B"/>
<path d="M7.65943 28.6406C7.79689 28.8461 8.00996 28.989 8.25227 29.0382C8.49458 29.0873 8.74649 29.0388 8.95318 28.9031L11.7657 27.0281C11.9255 26.9277 12.0512 26.7814 12.1265 26.6083C12.2018 26.4353 12.2231 26.2436 12.1877 26.0582C12.1522 25.8728 12.0617 25.7025 11.9278 25.5694C11.794 25.4364 11.6231 25.3468 11.4376 25.3125L9.98443 25.0219C10.8916 21.3974 12.7662 18.0875 15.4082 15.4456C18.0501 12.8037 21.36 10.929 24.9844 10.0218L25.2657 11.7562C25.296 11.9377 25.3791 12.1062 25.5046 12.2408C25.6301 12.3754 25.7924 12.4701 25.9713 12.5131C26.1503 12.5561 26.3379 12.5454 26.5108 12.4825C26.6837 12.4196 26.8343 12.3072 26.9438 12.1594L28.9594 9.37497C29.1037 9.17441 29.163 8.92501 29.1243 8.68099C29.0857 8.43697 28.9523 8.21806 28.7532 8.07185L26.0157 6.11247C25.8635 5.9983 25.6803 5.93311 25.4902 5.92555C25.3002 5.91798 25.1123 5.96841 24.9516 6.07014C24.7909 6.17186 24.6649 6.32006 24.5904 6.49507C24.5159 6.67008 24.4964 6.86362 24.5344 7.04997L24.7126 8.1656C20.7034 9.1347 17.0377 11.1872 14.1162 14.0988C11.1946 17.0104 9.12966 20.6691 8.14693 24.675L6.75005 24.375C6.57101 24.3459 6.38739 24.3694 6.22144 24.4426C6.05549 24.5158 5.91434 24.6356 5.8151 24.7875C5.71587 24.9393 5.66281 25.1166 5.66236 25.298C5.6619 25.4794 5.71408 25.657 5.81255 25.8094L7.65943 28.6406Z" fill="#C73E9B"/>
<path d="M52.3407 31.3594C52.2032 31.1539 51.9902 31.011 51.7479 30.9618C51.5055 30.9127 51.2536 30.9612 51.0469 31.0969L48.2344 32.9719C48.0746 33.0723 47.9489 33.2186 47.8736 33.3917C47.7983 33.5647 47.777 33.7565 47.8124 33.9418C47.8479 34.1272 47.9384 34.2975 48.0723 34.4306C48.2061 34.5636 48.377 34.6532 48.5626 34.6875L50.0157 34.9782C49.1085 38.6026 47.2339 41.9125 44.592 44.5544C41.95 47.1963 38.6401 49.071 35.0157 49.9782L34.6876 48.2625C34.6572 48.081 34.5741 47.9125 34.4486 47.7779C34.3231 47.6433 34.1608 47.5487 33.9819 47.5057C33.803 47.4627 33.6154 47.4733 33.4424 47.5362C33.2695 47.5991 33.1189 47.7115 33.0094 47.8594L31.0407 50.625C30.8964 50.8256 30.8372 51.075 30.8758 51.319C30.9144 51.563 31.0478 51.7819 31.2469 51.9282L33.9844 53.9157C34.1366 54.0298 34.3198 54.095 34.5099 54.1026C34.7 54.1101 34.8878 54.0597 35.0485 53.958C35.2093 53.8563 35.3352 53.7081 35.4097 53.5331C35.4843 53.358 35.5038 53.1645 35.4657 52.9782L35.2876 51.8625C39.3003 50.8912 42.9684 48.8344 45.8902 45.9176C48.8121 43.0007 50.875 39.3361 51.8532 35.325L53.2501 35.6063C53.4291 35.6353 53.6127 35.6118 53.7787 35.5386C53.9446 35.4654 54.0858 35.3456 54.185 35.1938C54.2842 35.042 54.3373 34.8646 54.3378 34.6832C54.3382 34.5019 54.286 34.3242 54.1876 34.1719L52.3407 31.3594Z" fill="#C73E9B"/>
</svg>
