<svg width="60" height="60" viewBox="0 0 60 60" fill="none" xmlns="http://www.w3.org/2000/svg">
<path d="M31.6629 5.29083C31.6629 5.87161 31.1891 6.3454 30.6083 6.3454C30.0275 6.3454 29.5538 5.87172 29.5538 5.29083C29.5538 4.70993 30.0275 4.23625 30.6083 4.23625C31.189 4.23625 31.6629 4.71004 31.6629 5.29083ZM26.3625 39.1796V45.0847C26.3625 46.0267 25.5961 46.793 24.6541 46.793H18.7491C17.8071 46.793 17.0407 46.0266 17.0407 45.0847V39.1796C17.0407 38.2376 17.8071 37.4712 18.7491 37.4712H24.6541C25.5961 37.4712 26.3625 38.2376 26.3625 39.1796ZM24.4875 39.3462H18.9157V44.918H24.4875V39.3462ZM26.3625 27.4567V33.3618C26.3625 34.3039 25.5961 35.0702 24.6541 35.0702H18.7491C17.8071 35.0702 17.0407 34.3038 17.0407 33.3618V27.4567C17.0407 26.5148 17.8071 25.7484 18.7491 25.7484H24.6541C25.5961 25.7484 26.3625 26.5148 26.3625 27.4567ZM24.4875 27.6234H18.9157V33.1952H24.4875V27.6234ZM30.1303 29.2225H43.2384C43.7562 29.2225 44.1759 28.8027 44.1759 28.285C44.1759 27.7673 43.7562 27.3475 43.2384 27.3475H30.1303C29.6126 27.3475 29.1928 27.7673 29.1928 28.285C29.1928 28.8027 29.6125 29.2225 30.1303 29.2225ZM30.1303 33.471H43.2384C43.7562 33.471 44.1759 33.0513 44.1759 32.5335C44.1759 32.0158 43.7562 31.596 43.2384 31.596H30.1303C29.6126 31.596 29.1928 32.0158 29.1928 32.5335C29.1928 33.0513 29.6125 33.471 30.1303 33.471ZM18.7489 14.0255H24.654C25.5961 14.0255 26.3624 14.7919 26.3624 15.7339V21.6389C26.3624 22.581 25.596 23.3473 24.654 23.3473H18.7489C17.807 23.3473 17.0406 22.5809 17.0406 21.6389V15.7339C17.0407 14.7919 17.807 14.0255 18.7489 14.0255ZM18.9157 21.4724H24.4875V15.9006H18.9157V21.4724ZM23.862 16.8159C23.4594 16.4902 22.8691 16.5525 22.5435 16.9551L21.3514 18.4286L20.7936 17.8708C20.4277 17.5047 19.8341 17.5046 19.4679 17.8708C19.1018 18.2369 19.1017 18.8304 19.4679 19.1965L20.7623 20.491C20.9386 20.6672 21.1773 20.7656 21.4252 20.7656C21.4416 20.7656 21.4581 20.7651 21.4745 20.7643C21.7399 20.7503 21.987 20.6243 22.1541 20.4176L24.0013 18.1341C24.327 17.7318 24.2645 17.1415 23.862 16.8159ZM30.1303 21.7483H43.2384C43.7562 21.7483 44.1759 21.3285 44.1759 20.8108C44.1759 20.2931 43.7562 19.8733 43.2384 19.8733H30.1303C29.6126 19.8733 29.1928 20.2931 29.1928 20.8108C29.1928 21.3285 29.6125 21.7483 30.1303 21.7483ZM30.1303 17.4997H43.2384C43.7562 17.4997 44.1759 17.0799 44.1759 16.5622C44.1759 16.0444 43.7562 15.6247 43.2384 15.6247H30.1303C29.6126 15.6247 29.1928 16.0444 29.1928 16.5622C29.1928 17.0799 29.6125 17.4997 30.1303 17.4997ZM20.7623 32.2139C20.9386 32.3902 21.1773 32.4885 21.4252 32.4885C21.4416 32.4885 21.4581 32.4881 21.4745 32.4872C21.7399 32.4733 21.987 32.3473 22.1541 32.1406L24.0013 29.8571C24.327 29.4545 24.2646 28.8643 23.8621 28.5386C23.4595 28.2131 22.8693 28.2754 22.5436 28.6778L21.3516 30.1514L20.7938 29.5936C20.4277 29.2275 19.8341 29.2275 19.468 29.5936C19.1019 29.9597 19.1019 30.5533 19.468 30.9194L20.7623 32.2139ZM8.44746 18.8229V42.6773C8.44746 42.8418 8.4041 43.0035 8.32184 43.146L5.5043 48.0259C5.33684 48.316 5.02734 48.4947 4.69242 48.4947C4.3575 48.4947 4.04801 48.316 3.88055 48.0259L1.06312 43.146C0.980859 43.0035 0.9375 42.8418 0.9375 42.6773V18.8229C0.9375 17.0114 2.41137 15.5376 4.22285 15.5376H5.16199C6.97359 15.5376 8.44746 17.0113 8.44746 18.8229ZM2.8125 18.8229V19.3149H6.57234V18.8229C6.57234 18.0453 5.93965 17.4126 5.16199 17.4126H4.22285C3.4452 17.4126 2.8125 18.0453 2.8125 18.8229ZM6.57246 41.7398V21.1899H2.8125V41.7398H6.57246ZM5.88609 43.6148H3.49887L4.69254 45.6822L5.88609 43.6148ZM59.0625 44.4956V47.7097C59.0625 48.0975 58.8237 48.4452 58.4618 48.5846L56.942 49.1696C56.7104 49.978 56.3878 50.7563 55.9786 51.4931L56.6401 52.9825C56.7975 53.3369 56.7205 53.7516 56.4462 54.0259L54.1734 56.2988C53.8992 56.573 53.4845 56.6501 53.13 56.4926L51.6412 55.8313C50.9044 56.2406 50.1259 56.5633 49.317 56.795L48.7322 58.3142C48.593 58.6762 48.2452 58.9149 47.8573 58.9149H44.6432C44.2553 58.9149 43.9076 58.6761 43.7682 58.3142L43.1832 56.7945C42.3746 56.5629 41.5964 56.2403 40.8596 55.8311L39.3703 56.4926C39.0161 56.6501 38.6011 56.5731 38.3269 56.2988L37.2954 55.2673H12.5507C10.7406 55.2673 9.26801 53.7947 9.26801 51.9847V8.83387C9.26801 7.02391 10.7406 5.55133 12.5507 5.55133H20.6419V5.07133C20.6419 4.5536 21.0616 4.13383 21.5794 4.13383H26.053C26.8003 2.30688 28.5799 1.08508 30.6081 1.08508C32.6362 1.08508 34.4159 2.30676 35.1633 4.13383H39.6369C40.1546 4.13383 40.5744 4.5536 40.5744 5.07133V5.55133H48.6657C50.4758 5.55133 51.9484 7.02391 51.9484 8.83387V36.2375L53.13 35.7127C53.4844 35.5552 53.8992 35.6322 54.1734 35.9065L56.4462 38.1793C56.7204 38.4535 56.7975 38.8682 56.64 39.2227L55.9788 40.7114C56.388 41.4483 56.7108 42.2268 56.9425 43.0359L58.4617 43.6206C58.8237 43.76 59.0625 44.1077 59.0625 44.4956ZM40.5745 7.42633V8.81372H47.7486C48.2664 8.81372 48.6861 9.23348 48.6861 9.75122V33.7943C48.7027 33.8259 48.7192 33.8574 48.7322 33.8911L49.3172 35.4109C49.5727 35.4841 49.8246 35.5674 50.0736 35.6586V8.83387C50.0736 8.05774 49.4422 7.42633 48.666 7.42633H40.5745ZM22.517 10.2311H38.6995V6.00883H34.4837C34.0506 6.00883 33.6739 5.71211 33.5723 5.29118C33.2413 3.91868 32.0224 2.96008 30.6082 2.96008C29.1941 2.96008 27.9751 3.91868 27.6442 5.29118C27.5427 5.71211 27.1659 6.00883 26.7328 6.00883H22.517V10.2311ZM21.5795 12.1061C21.0618 12.1061 20.642 11.6863 20.642 11.1686V10.6887H14.4055V50.1299H35.8821C35.7598 49.8152 35.6511 49.4949 35.558 49.1695L34.0386 48.5848C33.6768 48.4455 33.4379 48.0977 33.4379 47.7099V45.194H30.1303C29.6126 45.194 29.1928 44.7742 29.1928 44.2565C29.1928 43.7388 29.6126 43.319 30.1303 43.319H34.8229L35.5583 43.0359C35.7656 42.3119 36.0464 41.6126 36.3964 40.9454H30.1304C29.6127 40.9454 29.1929 40.5256 29.1929 40.0079C29.1929 39.4901 29.6127 39.0704 30.1304 39.0704H35.809C35.7296 38.7545 35.8186 38.4152 36.0543 38.1794L38.327 35.9065C38.6012 35.6323 39.0159 35.5551 39.3704 35.7127L40.8598 36.3742C41.5965 35.9651 42.3746 35.6425 43.1834 35.4108L43.7684 33.891C43.9076 33.5291 44.2554 33.2903 44.6433 33.2903H46.8112V10.6887H40.5746V11.1687C40.5746 11.6864 40.1549 12.1062 39.6371 12.1062L21.5795 12.1061ZM12.5507 53.3923H35.7802C35.7758 53.2543 35.8017 53.1143 35.8602 52.9826L36.2944 52.0049H13.468C12.9503 52.0049 12.5305 51.5852 12.5305 51.0674V9.75122C12.5305 9.23348 12.9503 8.81372 13.468 8.81372H20.642V7.42633H12.5508C11.7745 7.42633 11.1431 8.05774 11.1431 8.83387V51.9845C11.1431 52.7608 11.7745 53.3923 12.5507 53.3923ZM57.1875 45.1393L55.8209 44.6132C55.5323 44.5022 55.3171 44.256 55.2456 43.9553C55.0191 43.0033 54.6434 42.0971 54.1289 41.2616C53.9668 40.9983 53.9449 40.6721 54.0704 40.3895L54.6653 39.0501L53.3029 37.6875L51.9627 38.2827C51.6802 38.4084 51.3539 38.3863 51.0906 38.2243C50.2553 37.7098 49.3492 37.3342 48.3976 37.1077C48.0969 37.0361 47.8507 36.8209 47.7397 36.5324L47.2136 35.1653H45.2869L44.7606 36.5325C44.6496 36.8209 44.4035 37.0362 44.1028 37.1078C43.1512 37.3343 42.2452 37.7099 41.4097 38.2244C41.1464 38.3864 40.8203 38.4084 40.5376 38.2829L39.1976 37.6877L37.8352 39.0501L38.4302 40.39C38.5557 40.6725 38.5338 40.9988 38.3718 41.2621C37.8572 42.0975 37.4816 43.0036 37.2552 43.9553C37.1836 44.256 36.9684 44.5022 36.6799 44.6132L35.3129 45.1394V47.0662L36.6796 47.5921C36.9681 47.7032 37.1832 47.9493 37.2548 48.25C37.4815 49.2022 37.8572 50.1085 38.3715 50.9438C38.5336 51.2071 38.5555 51.5334 38.43 51.8159L37.8352 53.1554L39.1976 54.5178L40.5377 53.9226C40.8202 53.7971 41.1465 53.8189 41.4097 53.9811C42.2453 54.4955 43.1514 54.8712 44.1028 55.0976C44.4035 55.1692 44.6497 55.3844 44.7607 55.6729L45.2869 57.04H47.2137L47.7397 55.6734C47.8507 55.3848 48.0969 55.1697 48.3976 55.0981C49.3498 54.8716 50.256 54.4959 51.0914 53.9813C51.3547 53.8192 51.681 53.7972 51.9636 53.9228L53.3031 54.5178L54.6655 53.1554L54.0703 51.8152C53.9448 51.5327 53.9667 51.2064 54.1289 50.9432C54.6434 50.1077 55.0191 49.2016 55.2454 48.2502C55.317 47.9495 55.5321 47.7034 55.8206 47.5923L57.1875 47.0661V45.1393ZM53.742 46.1027C53.742 50.2336 50.3811 53.5945 46.2502 53.5945C42.1192 53.5945 38.7584 50.2336 38.7584 46.1027C38.7584 41.9717 42.1192 38.6109 46.2502 38.6109C50.3811 38.6109 53.742 41.9717 53.742 46.1027ZM51.867 46.1027C51.867 43.0055 49.3473 40.4859 46.2502 40.4859C43.153 40.4859 40.6334 43.0055 40.6334 46.1027C40.6334 49.1998 43.153 51.7195 46.2502 51.7195C49.3473 51.7195 51.867 49.1998 51.867 46.1027ZM48.4661 43.5789L45.0956 46.6377L44.0672 45.6093C43.7011 45.2432 43.1075 45.2432 42.7414 45.6093C42.3754 45.9754 42.3754 46.5689 42.7414 46.935L44.4015 48.5951C44.5841 48.7777 44.8241 48.8697 45.0646 48.8697C45.2898 48.8697 45.5154 48.789 45.6945 48.6264L49.7264 44.9675C50.1097 44.6195 50.1386 44.0266 49.7906 43.6432C49.4423 43.2597 48.8496 43.231 48.4661 43.5789Z" fill="#0195FF"/>
</svg>
