<svg width="60" height="61" viewBox="0 0 60 61" fill="none" xmlns="http://www.w3.org/2000/svg">
<path d="M52.8934 11.0667L53.1836 7.79715L42.4538 16.9707C42.3194 17.0856 42.1553 17.1601 41.9804 17.1857C41.8055 17.2113 41.6269 17.187 41.4652 17.1154L29.5238 11.8285L17.4961 21.9286C17.3057 22.0885 17.0595 22.1662 16.8117 22.1446C16.5639 22.123 16.3349 22.0039 16.1749 21.8134C16.015 21.6229 15.9373 21.3767 15.9588 21.129C15.9804 20.8812 16.0996 20.6521 16.29 20.4922L28.7659 10.0168C28.9003 9.90402 29.0636 9.83118 29.2372 9.80657C29.4109 9.78196 29.588 9.80656 29.7483 9.87758L41.6842 15.1627L52.0162 6.32937L48.6797 6.03266C48.4334 6.00905 48.2063 5.88898 48.0481 5.69863C47.8899 5.50828 47.8134 5.26311 47.8353 5.01658C47.8572 4.77004 47.9757 4.54216 48.1649 4.38264C48.3541 4.22312 48.5988 4.1449 48.8454 4.16504L54.4029 4.65816C54.5256 4.66904 54.6449 4.70396 54.754 4.76095C54.8632 4.81793 54.96 4.89585 55.039 4.99026C55.1181 5.08467 55.1777 5.19373 55.2146 5.31119C55.2515 5.42866 55.2648 5.55224 55.254 5.67488L54.7618 11.2324C54.7411 11.4656 54.6339 11.6826 54.4613 11.8408C54.2886 11.9989 54.0631 12.0868 53.829 12.087C53.8013 12.087 53.7732 12.0859 53.745 12.0834C53.6224 12.0726 53.503 12.0377 53.3938 11.9808C53.2846 11.9238 53.1877 11.8459 53.1086 11.7515C53.0295 11.6571 52.9698 11.548 52.9329 11.4305C52.896 11.313 52.8826 11.1894 52.8934 11.0667ZM60 45.3945V48.6172C60 48.8658 59.9013 49.1043 59.7255 49.2801C59.5496 49.4559 59.3112 49.5547 59.0625 49.5547H22.1045C21.3072 51.5955 19.9406 53.3644 18.1672 54.6511C16.3938 55.9378 14.2882 56.6882 12.1007 56.813C9.91326 56.9378 7.73597 56.4317 5.82772 55.3551C3.91948 54.2784 2.36056 52.6764 1.33632 50.7395C0.31208 48.8027 -0.134395 46.6124 0.049982 44.4291C0.234359 42.2459 1.04183 40.1615 2.37639 38.4238C3.71095 36.6861 5.51645 35.3683 7.57823 34.6269C9.64001 33.8855 11.8713 33.7518 14.0069 34.2417V28.3832C14.0069 28.1346 14.1057 27.8961 14.2815 27.7203C14.4573 27.5445 14.6957 27.4457 14.9444 27.4457H21.3878C21.6365 27.4457 21.8749 27.5445 22.0507 27.7203C22.2265 27.8961 22.3253 28.1346 22.3253 28.3832V41.2358H25.6268V19.7397C25.6268 19.4911 25.7256 19.2526 25.9014 19.0768C26.0772 18.901 26.3157 18.8022 26.5643 18.8022H33.0077C33.2563 18.8022 33.4948 18.901 33.6706 19.0768C33.8464 19.2526 33.9452 19.4911 33.9452 19.7397V41.2358H37.2467V24.2973C37.2467 24.0486 37.3455 23.8102 37.5213 23.6344C37.6971 23.4585 37.9355 23.3598 38.1842 23.3598H44.6275C44.8762 23.3598 45.1146 23.4585 45.2904 23.6344C45.4662 23.8102 45.565 24.0486 45.565 24.2973V41.2358H48.8672V15.4965C48.8672 15.2478 48.966 15.0094 49.1418 14.8336C49.3176 14.6578 49.5561 14.559 49.8047 14.559H56.2482C56.4968 14.559 56.7353 14.6578 56.9111 14.8336C57.0869 15.0094 57.1857 15.2478 57.1857 15.4965V41.4601C58.006 41.7413 58.718 42.2716 59.2225 42.9769C59.727 43.6822 59.9988 44.5274 60 45.3945ZM50.7422 41.2353H55.3107V16.434H50.7422V41.2353ZM39.1225 41.2353H43.6908V25.2348H39.1222L39.1225 41.2353ZM27.5027 41.2353H32.071V20.6772H27.5023L27.5027 41.2353ZM15.8824 34.8477C17.6767 35.6075 19.2486 36.8106 20.4508 38.3441V29.3206H15.8824V34.8477ZM21.0118 45.3945C21.0118 43.502 20.4506 41.6521 19.3992 40.0785C18.3478 38.505 16.8534 37.2785 15.1049 36.5543C13.3565 35.8301 11.4326 35.6406 9.57648 36.0098C7.72035 36.379 6.01539 37.2903 4.6772 38.6285C3.339 39.9667 2.42767 41.6716 2.05845 43.5277C1.68923 45.3838 1.87871 47.3078 2.60291 49.0562C3.32712 50.8046 4.55353 52.299 6.12706 53.3505C7.70059 54.4019 9.55057 54.9631 11.4431 54.9631C13.9799 54.9603 16.4121 53.9512 18.206 52.1574C19.9998 50.3636 21.0089 47.9314 21.0118 45.3945ZM58.125 45.3945C58.1244 44.7889 57.8835 44.2084 57.4553 43.7801C57.0271 43.3519 56.4465 43.111 55.8409 43.1103H22.658C22.9636 44.6178 22.9636 46.1713 22.658 47.6788H58.125V45.3945ZM19.5811 45.3945C19.5811 45.5365 19.5489 45.6765 19.4869 45.8042C19.4249 45.9319 19.3347 46.0438 19.2231 46.1315L15.5217 49.0423C14.4156 49.9121 12.9569 50.3456 11.4863 50.3456C9.96708 50.3456 8.43509 49.8834 7.26403 48.9628L3.66403 46.1318C3.55245 46.044 3.46225 45.9321 3.40022 45.8044C3.3382 45.6768 3.30597 45.5367 3.30597 45.3948C3.30597 45.2528 3.3382 45.1127 3.40022 44.9851C3.46225 44.8574 3.55245 44.7455 3.66403 44.6578L7.36563 41.747C9.61423 39.9787 13.3188 40.0145 15.6231 41.8268L19.2231 44.6578C19.3347 44.7455 19.4248 44.8574 19.4869 44.985C19.5489 45.1126 19.5811 45.2526 19.5811 45.3945ZM17.127 45.3945L14.4642 43.3004C12.8269 42.0129 10.1068 41.9762 8.52462 43.2206L5.76005 45.3945L8.42313 47.4887C10.0605 48.7762 12.7806 48.8129 14.3627 47.5685L17.127 45.3945ZM14.2376 45.3945C14.2376 45.9471 14.0737 46.4873 13.7667 46.9467C13.4597 47.4062 13.0233 47.7643 12.5128 47.9757C12.0023 48.1872 11.4405 48.2425 10.8985 48.1347C10.3566 48.0269 9.85874 47.7608 9.468 47.3701C9.07726 46.9793 8.81116 46.4815 8.70335 45.9395C8.59554 45.3976 8.65086 44.8358 8.86231 44.3253C9.07377 43.8147 9.43186 43.3784 9.89131 43.0713C10.3508 42.7643 10.8909 42.6005 11.4435 42.6004C12.1843 42.6013 12.8945 42.8959 13.4183 43.4197C13.9421 43.9435 14.2368 44.6537 14.2376 45.3945ZM12.3626 45.3945C12.3626 45.2128 12.3087 45.0351 12.2078 44.884C12.1068 44.7329 11.9633 44.6151 11.7953 44.5455C11.6274 44.476 11.4427 44.4577 11.2644 44.4932C11.0861 44.5286 10.9224 44.6162 10.7939 44.7447C10.6653 44.8732 10.5778 45.0369 10.5423 45.2152C10.5069 45.3934 10.525 45.5782 10.5946 45.7461C10.6641 45.9141 10.7819 46.0576 10.933 46.1586C11.0841 46.2596 11.2618 46.3135 11.4435 46.3135C11.6872 46.3133 11.9208 46.2164 12.0931 46.0441C12.2654 45.8718 12.3623 45.6382 12.3626 45.3945Z" fill="#0195FF"/>
</svg>
