<svg width="60" height="60" viewBox="0 0 60 60" fill="none" xmlns="http://www.w3.org/2000/svg">
<path fill-rule="evenodd" clip-rule="evenodd" d="M47.7554 24.5411L26.543 44.2994L29.5328 46.3728L47.7554 24.5411ZM18.6259 49.5931L17.6728 36.7581L51.4409 19.0261L18.6259 49.5931ZM6.68293 31.3914L16.7119 35.3975C16.7036 35.3302 16.6988 35.2604 16.6988 35.1918V28.3754L6.68293 31.3914ZM18.2227 27.8518C18.2227 25.2049 20.3766 23.0521 23.0225 23.0521C24.6167 23.0521 26.1275 23.8728 27.0158 25.2038V30.1308L18.2226 34.7489V27.8518H18.2227ZM21.2016 19.4399C22.8152 21.0533 25.5976 19.9075 25.5976 17.6188C25.5976 16.1986 24.4417 15.0439 23.0226 15.0439C20.7306 15.0439 19.59 17.8279 21.2016 19.4399ZM28.5398 25.0873C28.5398 22.4405 30.6937 20.2877 33.3396 20.2877C34.9207 20.2877 36.377 21.0593 37.2806 22.361V24.7414L28.5398 29.3309V25.0873ZM33.3396 17.4295C34.7594 17.4295 35.9146 16.2738 35.9146 14.8543C35.9146 13.4341 34.7594 12.2794 33.3396 12.2794C31.9198 12.2794 30.7639 13.4341 30.7639 14.8543C30.7639 16.2738 31.9198 17.4295 33.3396 17.4295ZM38.8038 22.337V23.9412L47.4067 19.4236C46.5038 18.2459 45.1068 17.5373 43.6028 17.5373C40.957 17.5373 38.8038 19.6901 38.8038 22.337ZM43.603 14.6791C45.0228 14.6791 46.1779 13.5244 46.1779 12.1043C46.1779 10.6849 45.0228 9.52907 43.603 9.52907C42.1831 9.52907 41.0287 10.6849 41.0287 12.1043C41.0286 13.5244 42.1831 14.6791 43.603 14.6791ZM56.7044 16.1954H56.7059L30.2567 47.8843C30.0023 48.1879 29.5618 48.2455 29.238 48.0217L25.4024 45.3628L18.5039 51.7895C18.0371 52.2238 17.2709 51.926 17.224 51.2887L16.1495 36.8135L4.09345 31.9985C3.42745 31.7318 3.47005 30.768 4.15681 30.5609L16.7966 26.7547C17.2626 24.1026 19.3847 22.0139 22.0548 21.6025C20.231 21.1644 18.9236 19.5206 18.9236 17.619C18.9236 15.3586 20.7632 13.5203 23.0225 13.5203C25.2817 13.5203 27.1213 15.3586 27.1213 17.619C27.1213 19.5499 25.7794 21.1715 23.9791 21.6036C25.2191 21.7974 26.3783 22.3624 27.3012 23.209C28.0091 20.9342 29.9719 19.2068 32.3746 18.838C30.5791 18.4026 29.2406 16.7821 29.2406 14.8544C29.2406 12.594 31.0795 10.7556 33.3395 10.7556C35.5994 10.7556 37.4376 12.5939 37.4376 14.8544C37.4376 16.7832 36.0991 18.4026 34.3022 18.838C35.5332 19.0261 36.6684 19.5727 37.583 20.4052C38.3053 18.1566 40.2545 16.4534 42.6392 16.0878C40.8424 15.6524 39.5046 14.0317 39.5046 12.1043C39.5046 9.84479 41.3428 8.00543 43.6027 8.00543C45.8627 8.00543 47.7008 9.84479 47.7008 12.1043C47.7008 14.0339 46.3616 15.6546 44.5634 16.0878C45.6986 16.2628 46.7566 16.7438 47.6305 17.4689L55.8998 14.9785C56.2093 14.8848 56.5498 14.996 56.7414 15.2671C56.9436 15.5522 56.9244 15.9329 56.7044 16.1954ZM3.87913 41.0058C4.00525 41.0058 4.13281 40.9742 4.24993 40.9081L9.81409 37.7921C10.1808 37.5864 10.3124 37.1216 10.107 36.7547C9.90097 36.388 9.43633 36.2563 9.06973 36.462L3.50557 39.5791C2.82397 39.9613 3.09985 41.0058 3.87913 41.0058ZM11.6819 43.272L9.11317 44.7108C8.43013 45.0925 8.70865 46.1366 9.48601 46.1366C9.61285 46.1366 9.73969 46.1063 9.85753 46.0397L12.4262 44.6009C12.793 44.3951 12.9246 43.9304 12.7192 43.5635C12.5131 43.1969 12.0486 43.0652 11.6819 43.272ZM12.7379 39.5051C12.5318 39.1384 12.0679 39.0065 11.7013 39.2122L3.72217 43.6823C3.35473 43.888 3.22381 44.3526 3.42997 44.7197C3.63841 45.0906 4.10365 45.215 4.46725 45.0124L12.4458 40.5422C12.8123 40.3365 12.9432 39.8719 12.7379 39.5051Z" fill="#0195FF"/>
</svg>
