<svg width="60" height="61" viewBox="0 0 60 61" fill="none" xmlns="http://www.w3.org/2000/svg">
<path fill-rule="evenodd" clip-rule="evenodd" d="M50.1556 48.1988L57.3744 55.4175C57.9588 56.0019 57.9588 56.9488 57.3744 57.5332L57.2869 57.6207C56.7031 58.2044 55.7556 58.2044 55.1719 57.6207L49.2031 51.6519C48.8375 51.2857 48.2431 51.2857 47.8775 51.6519C47.5113 52.0175 47.5113 52.6119 47.8775 52.9775C47.8775 52.9775 50.0219 55.1225 53.8463 58.9463C55.1625 60.2625 57.2963 60.2625 58.6131 58.9463L58.7 58.8588C60.0169 57.5425 60.0169 55.4082 58.7 54.0919L51.2338 46.6257C52.4481 44.5625 53.1444 42.16 53.1444 39.5963C53.1444 31.9332 46.9231 25.7119 39.2606 25.7119C31.5981 25.7119 25.3769 31.9332 25.3769 39.5963C25.3769 47.2588 31.5981 53.48 39.2606 53.48C43.675 53.48 47.6113 51.4157 50.1556 48.1988ZM39.2606 27.5869C45.8888 27.5869 51.2694 32.9682 51.2694 39.5963C51.2694 46.2238 45.8888 51.605 39.2606 51.605C32.6325 51.605 27.2519 46.2238 27.2519 39.5963C27.2519 32.9682 32.6325 27.5869 39.2606 27.5869ZM8.39125 31.7513C8.39125 31.1713 8.16063 30.615 7.75 30.2044C7.34 29.7944 6.78375 29.5638 6.20375 29.5638C5.12563 29.5638 3.5775 29.5638 2.5 29.5638C1.92 29.5638 1.36375 29.7944 0.953125 30.2044C0.543125 30.615 0.3125 31.1713 0.3125 31.7513V48.9725C0.3125 49.4907 0.7325 49.91 1.25 49.91H7.45375C7.97125 49.91 8.39125 49.4907 8.39125 48.9725V31.7513ZM19.1263 28.6344C19.1263 27.4263 18.1469 26.4469 16.9388 26.4469C15.8613 26.4469 14.3131 26.4469 13.235 26.4469C12.0269 26.4469 11.0475 27.4263 11.0475 28.6344V48.9725C11.0475 49.4907 11.4675 49.91 11.985 49.91H18.1888C18.7063 49.91 19.1263 49.4907 19.1263 48.9725V28.6344ZM26.4238 48.035H23.6581V24.2807C23.6581 24.1975 23.6906 24.1182 23.7494 24.0594C23.8081 24.0013 23.8875 23.9682 23.9706 23.9682H27.6738C27.7569 23.9682 27.8363 24.0013 27.895 24.0594C27.9538 24.1182 27.9863 24.1975 27.9863 24.2807V27.7763C27.9863 28.2938 28.4063 28.7138 28.9238 28.7138C29.4413 28.7138 29.8613 28.2938 29.8613 27.7763V24.2807C29.8613 23.7007 29.6313 23.1438 29.2206 22.7338C28.8106 22.3238 28.2544 22.0932 27.6738 22.0932C26.5963 22.0932 25.0481 22.0932 23.9706 22.0932C23.3906 22.0932 22.8338 22.3238 22.4238 22.7338C22.0138 23.1438 21.7831 23.7007 21.7831 24.2807V48.9725C21.7831 49.4907 22.2025 49.91 22.7206 49.91H26.4238C26.9413 49.91 27.3613 49.49 27.3613 48.9725C27.3613 48.4557 26.9413 48.035 26.4238 48.035ZM34.0763 34.1994C35.4219 32.9063 37.2488 32.1107 39.2606 32.1107C43.3919 32.1107 46.7456 35.465 46.7456 39.5963C46.7456 43.7275 43.3919 47.0813 39.2606 47.0813C35.1294 47.0813 31.7756 43.7275 31.7756 39.5963C31.7756 38.5863 31.9756 37.6232 32.3388 36.7444C32.5363 36.2657 32.3081 35.7175 31.83 35.52C31.3519 35.3219 30.8031 35.55 30.6056 36.0282C30.1513 37.1282 29.9006 38.3332 29.9006 39.5963C29.9006 44.7625 34.0944 48.9563 39.2606 48.9563C44.4269 48.9563 48.6206 44.7625 48.6206 39.5963C48.6206 34.43 44.4269 30.2357 39.2606 30.2357C36.745 30.2357 34.4594 31.23 32.7769 32.8475C32.4038 33.2057 32.3919 33.8 32.7506 34.1732C33.1094 34.5463 33.7031 34.5582 34.0763 34.1994ZM17.2513 28.6344V48.035H12.9225V28.6344C12.9225 28.4619 13.0625 28.3219 13.235 28.3219H16.9388C17.1113 28.3219 17.2513 28.4619 17.2513 28.6344ZM6.51625 31.7513V48.035H2.1875V31.7513C2.1875 31.6688 2.22063 31.5894 2.27875 31.5307C2.3375 31.4719 2.41688 31.4388 2.5 31.4388H6.20375C6.28625 31.4388 6.36563 31.4719 6.42438 31.5307C6.48313 31.5894 6.51625 31.6688 6.51625 31.7513ZM34.3931 24.7544V15.6963C34.3931 15.6138 34.4263 15.5344 34.485 15.4757C34.5431 15.4169 34.6231 15.3838 34.7056 15.3838H38.4094C38.4919 15.3838 38.5719 15.4169 38.63 15.4757C38.6888 15.5344 38.7219 15.6138 38.7219 15.6963V23.5044C38.7219 24.0219 39.1419 24.4419 39.6594 24.4419C40.1769 24.4419 40.5969 24.0219 40.5969 23.5044C40.5969 23.5044 40.5969 18.1813 40.5969 15.6963C40.5969 15.1163 40.3663 14.56 39.9563 14.15C39.5456 13.7394 38.9894 13.5088 38.4094 13.5088C37.3313 13.5088 35.7831 13.5088 34.7056 13.5088C34.1256 13.5088 33.5694 13.7394 33.1588 14.15C32.7488 14.56 32.5181 15.1163 32.5181 15.6963V24.7544C32.5181 25.2719 32.9381 25.6919 33.4556 25.6919C33.9731 25.6919 34.3931 25.2719 34.3931 24.7544ZM30.855 6.94441L23.24 12.2913C22.4838 11.605 21.4806 11.1863 20.38 11.1863C18.0406 11.1863 16.1394 13.0775 16.1219 15.4125L8.42938 17.0888C7.75063 15.6375 6.2775 14.6313 4.57063 14.6313C2.22063 14.6313 0.3125 16.5388 0.3125 18.8894C0.3125 21.2394 2.22063 23.1469 4.57063 23.1469C6.91 23.1469 8.81125 21.2563 8.82813 18.9207L16.5206 17.245C17.1994 18.6957 18.6731 19.7025 20.38 19.7025C22.73 19.7025 24.6381 17.7944 24.6381 15.4444C24.6381 14.8713 24.5244 14.3238 24.3188 13.8244L31.9338 8.47816C32.69 9.16378 33.6931 9.58253 34.7938 9.58253C37.1438 9.58253 39.0519 7.67441 39.0519 5.32441C39.0519 2.97441 37.1438 1.06628 34.7938 1.06628C32.4438 1.06628 30.5356 2.97441 30.5356 5.32441C30.5356 5.89816 30.6494 6.44503 30.855 6.94441ZM4.57063 21.2719C3.255 21.2719 2.1875 20.2044 2.1875 18.8894C2.1875 17.5738 3.255 16.5063 4.57063 16.5063C5.88563 16.5063 6.95313 17.5738 6.95313 18.8894C6.95313 20.2044 5.88563 21.2719 4.57063 21.2719ZM22.3263 14.07L22.3344 14.0813C22.6044 14.4675 22.7631 14.9375 22.7631 15.4444C22.7631 16.7594 21.695 17.8275 20.38 17.8275C19.065 17.8275 17.9969 16.7594 17.9969 15.4444C17.9969 14.1294 19.065 13.0613 20.38 13.0613C21.1831 13.0613 21.8944 13.46 22.3263 14.07ZM32.8475 6.69941L32.8394 6.68753C32.5694 6.30128 32.4106 5.83128 32.4106 5.32441C32.4106 4.00941 33.4788 2.94128 34.7938 2.94128C36.1088 2.94128 37.1769 4.00941 37.1769 5.32441C37.1769 6.63941 36.1088 7.70753 34.7938 7.70753C33.9906 7.70753 33.2794 7.30878 32.8475 6.69941Z" fill="#0195FF"/>
</svg>
