<svg width="60" height="61" viewBox="0 0 60 61" fill="none" xmlns="http://www.w3.org/2000/svg">
<g clip-path="url(#clip0_1_47)">
<path d="M59.8329 33.6404C58.9941 41.6091 55.1023 48.7741 48.8745 53.8156C43.4829 58.1801 36.8981 60.5009 30.0568 60.5012C28.9957 60.5012 27.9295 60.4454 26.8595 60.3328C21.5183 59.7706 16.4913 57.8166 12.2111 54.6567L12.8608 56.934C13.0028 57.4319 12.7143 57.9507 12.2165 58.0927C12.1306 58.1172 12.044 58.1289 11.9588 58.1289C11.5506 58.1289 11.1752 57.8603 11.0577 57.4484L9.58677 52.2929C9.50767 52.0157 9.56052 51.7176 9.72997 51.4845C9.89943 51.2513 10.1666 51.109 10.4547 51.0987L15.8125 50.9063C16.3281 50.8862 16.7645 51.2921 16.783 51.8096C16.8017 52.3271 16.3972 52.7616 15.8797 52.7801L12.9735 52.8845C17.0603 56.0012 21.9018 57.9256 27.0557 58.4681C34.5263 59.2546 41.856 57.0847 47.6945 52.3583C53.5331 47.6319 57.1817 40.9147 57.968 33.4441C58.5979 27.4604 57.3352 21.5569 54.3162 16.372C54.0557 15.9245 54.2072 15.3506 54.6546 15.0901C55.102 14.8294 55.676 14.9811 55.9365 15.4285C59.1576 20.9602 60.5047 27.2578 59.8329 33.6404ZM2.03181 27.5558C2.81814 20.0852 6.46665 13.368 12.3053 8.64158C18.1438 3.91517 25.4736 1.74521 32.9441 2.53177C38.1009 3.07459 42.9392 4.99787 47.0267 8.11529L44.1202 8.2197C43.6027 8.23834 43.1984 8.67287 43.2169 9.19025C43.2351 9.69627 43.651 10.0941 44.1531 10.0941C44.1645 10.0941 44.176 10.094 44.1873 10.0935L49.5451 9.90099C49.8332 9.89068 50.1004 9.74842 50.2698 9.51521C50.4393 9.28213 50.492 8.984 50.413 8.70685L48.9422 3.55142C48.8002 3.05349 48.2811 2.76486 47.7835 2.90713C47.2855 3.04916 46.9971 3.56795 47.1392 4.06588L47.7891 6.34377C43.5083 3.18299 38.4847 1.2297 33.1405 0.667205C25.1714 -0.171389 17.3535 2.14283 11.1256 7.18435C4.89775 12.2259 1.00595 19.3908 0.167122 27.3596C-0.504714 33.7414 0.842474 40.0388 4.06314 45.5712C4.23728 45.8703 4.55134 46.0373 4.87419 46.0373C5.03439 46.0373 5.19658 45.9962 5.34505 45.9098C5.79247 45.6493 5.94411 45.0754 5.68361 44.628C2.66474 39.4422 1.40193 33.5388 2.03181 27.5558ZM43.4923 13.8329C39.0403 10.229 33.4513 8.5749 27.7551 9.17408C24.1999 9.54826 20.8432 10.7836 17.9282 12.7741L18.1711 11.9225C18.3131 11.4245 18.0247 10.9058 17.5268 10.7637C17.0288 10.6216 16.5101 10.9102 16.3681 11.408L15.3301 15.046C15.251 15.3231 15.3039 15.6213 15.4733 15.8544C15.6428 16.0876 15.91 16.2298 16.198 16.2401L19.9787 16.376C19.9902 16.3764 20.0016 16.3765 20.0129 16.3765C20.5151 16.3765 20.931 15.9786 20.9492 15.4727C20.9678 14.9552 20.5634 14.5206 20.0459 14.5021L18.7899 14.457C21.4941 12.5622 24.6276 11.3886 27.9512 11.0388C33.149 10.4915 38.2497 12.0012 42.3124 15.2901C46.3751 18.5788 48.9138 23.253 49.461 28.4512C49.8993 32.6144 49.0207 36.7222 46.9201 40.3304C46.6596 40.7778 46.8111 41.3518 47.2587 41.6122C47.407 41.6985 47.5693 41.7397 47.7295 41.7397C48.0523 41.7397 48.3666 41.5728 48.5406 41.2736C50.8429 37.3186 51.806 32.8169 51.3258 28.2549C50.7263 22.5586 47.9442 17.4367 43.4923 13.8329ZM16.5077 47.1671C20.3622 50.2873 25.0686 51.9462 29.9593 51.9462C30.7176 51.9462 31.4803 51.9064 32.2449 51.8259C35.7979 51.4518 39.1566 50.2162 42.0716 48.226L41.8287 49.0774C41.6867 49.5753 41.9751 50.0941 42.473 50.2361C42.5589 50.2606 42.6455 50.2723 42.7307 50.2723C43.1387 50.2723 43.5142 50.0037 43.6317 49.5918L44.6697 45.9538C44.7488 45.6767 44.6959 45.3786 44.5265 45.1455C44.357 44.9123 44.0898 44.77 43.8018 44.7597L40.0211 44.6239C39.5042 44.6034 39.069 45.0097 39.0505 45.5272C39.0319 46.0447 39.4363 46.4792 39.9538 46.4977L41.2054 46.5427C38.502 48.436 35.3691 49.6116 32.0486 49.9612C31.3505 50.0347 30.655 50.0711 29.9629 50.0711C25.5 50.071 21.2046 48.557 17.6875 45.7099C13.6248 42.4211 11.0861 37.747 10.5389 32.5488C10.1006 28.3851 10.9792 24.2773 13.0798 20.6697C13.3403 20.2223 13.1888 19.6483 12.7413 19.3878C12.2939 19.1273 11.7199 19.2788 11.4594 19.7262C9.15704 23.6806 8.19388 28.1825 8.67423 32.7451C9.27376 38.4413 12.0558 43.5631 16.5077 47.1671ZM23.0835 30.7491C24.055 30.0217 25.1166 29.4618 26.2378 29.0758C24.6968 27.9256 23.6971 26.0885 23.6971 24.022C23.6971 20.5465 26.5246 17.719 30 17.719C33.4754 17.719 36.3029 20.5465 36.3029 24.022C36.3029 26.0885 35.3032 27.9257 33.7622 29.0758C34.8835 29.4618 35.9451 30.0216 36.9164 30.7491C38.858 32.2029 40.3204 34.2734 41.0344 36.5791C41.3584 37.6254 41.1788 38.6875 40.5287 39.5695C39.8786 40.4514 38.9173 40.937 37.8217 40.937H22.1782C21.0826 40.937 20.1213 40.4514 19.4712 39.5696C18.821 38.6875 18.6415 37.6256 18.9656 36.5791C19.6795 34.2734 21.142 32.2029 23.0835 30.7491ZM25.5721 24.0221C25.5721 26.4637 27.5584 28.45 30 28.45C32.4415 28.45 34.4279 26.4637 34.4279 24.0221C34.4279 21.5805 32.4416 19.5942 30 19.5942C27.5585 19.5942 25.5721 21.5805 25.5721 24.0221ZM20.7567 37.1337C20.6092 37.6102 20.6844 38.0554 20.9804 38.457C21.2765 38.8585 21.6795 39.062 22.1782 39.062H37.8218C38.3206 39.062 38.7236 38.8585 39.0196 38.4569C39.3156 38.0553 39.3908 37.6101 39.2434 37.1336C37.9824 33.0611 34.2677 30.3249 30.0001 30.3249C25.7325 30.3249 22.0177 33.0612 20.7567 37.1337Z" fill="#0195FF"/>
</g>
<defs>
<clipPath id="clip0_1_47">
<rect width="60" height="60" fill="white" transform="translate(0 0.5)"/>
</clipPath>
</defs>
</svg>
