<svg width="60" height="61" viewBox="0 0 60 61" fill="none" xmlns="http://www.w3.org/2000/svg">
<g clip-path="url(#clip0_1_2)">
<path d="M13.4666 21.1818C12.9315 22.2958 12.6317 23.5442 12.6317 24.8626C12.6317 29.5635 16.4425 33.3743 21.1434 33.3743C25.8443 33.3743 29.6551 29.5635 29.6551 24.8626C29.6551 20.1618 25.8443 16.351 21.1434 16.351C19.11 16.351 17.243 17.064 15.779 18.2538" stroke="#0195FF" stroke-width="2" stroke-miterlimit="10" stroke-linecap="round" stroke-linejoin="round"/>
<path d="M34.5125 39.4504C31.2287 35.6911 26.4106 33.3743 21.1434 33.3743H19.47C12.1043 33.3743 5.73323 38.5056 4.16386 45.7022C3.69816 47.8378 5.32472 49.8574 7.51062 49.8574H22.9118" stroke="#0195FF" stroke-width="2" stroke-miterlimit="10" stroke-linecap="round" stroke-linejoin="round"/>
<path d="M22.0267 1.67007L23.5318 4.20144C23.6153 4.34195 23.753 4.44203 23.9125 4.478L26.7851 5.1271C27.2258 5.22671 27.3995 5.76144 27.1015 6.10093L25.1592 8.3146C25.0513 8.43753 24.9987 8.59937 25.0137 8.76214L25.284 11.6948C25.3254 12.1446 24.8705 12.4751 24.4556 12.2966L21.7501 11.1334C21.5998 11.0689 21.4297 11.0689 21.2794 11.1334L18.5739 12.2968C18.1588 12.4752 17.704 12.1448 17.7455 11.6949L18.0158 8.76226C18.0308 8.59949 17.9781 8.43765 17.8703 8.31472L15.9279 6.10105C15.6299 5.76144 15.8037 5.22671 16.2444 5.12722L19.117 4.47812C19.2765 4.44203 19.4142 4.34207 19.4977 4.20156L21.0028 1.67019C21.2336 1.28183 21.7959 1.28183 22.0267 1.67007Z" stroke="#0195FF" stroke-width="2" stroke-miterlimit="10" stroke-linecap="round" stroke-linejoin="round"/>
<path d="M6.30344 3.6023L7.53614 5.67559C7.60457 5.79066 7.71731 5.87258 7.84797 5.90211L10.2006 6.43379C10.5616 6.51535 10.7038 6.95328 10.4598 7.23137L8.86891 9.04437C8.78055 9.14504 8.73754 9.27758 8.74985 9.41094L8.97122 11.8128C9.0052 12.1812 8.63266 12.452 8.2927 12.3058L6.0768 11.3531C5.95375 11.3002 5.81442 11.3002 5.69137 11.3531L3.47547 12.3058C3.13551 12.452 2.76297 12.1814 2.79696 11.8128L3.01832 9.41094C3.03063 9.27758 2.9875 9.14504 2.89926 9.04437L1.30844 7.23137C1.06434 6.95328 1.20672 6.51535 1.56766 6.43379L3.92032 5.90211C4.05098 5.87258 4.16372 5.79066 4.23215 5.67559L5.46485 3.6023C5.65387 3.28426 6.11442 3.28426 6.30344 3.6023Z" stroke="#0195FF" stroke-width="2" stroke-miterlimit="10" stroke-linecap="round" stroke-linejoin="round"/>
<path d="M35.957 3.6023L34.7243 5.67559C34.6559 5.79066 34.5431 5.87258 34.4125 5.90211L32.0598 6.43379C31.6989 6.51535 31.5566 6.95328 31.8006 7.23137L33.3914 9.04437C33.4798 9.14504 33.5228 9.27758 33.5105 9.41094L33.2891 11.8128C33.2551 12.1812 33.6276 12.452 33.9676 12.3058L36.1835 11.3531C36.3066 11.3002 36.4459 11.3002 36.5689 11.3531L38.7848 12.3058C39.1248 12.452 39.4973 12.1814 39.4634 11.8128L39.242 9.41094C39.2297 9.27758 39.2728 9.14504 39.361 9.04437L40.9519 7.23137C41.196 6.95328 41.0536 6.51535 40.6926 6.43379L38.34 5.90211C38.2093 5.87258 38.0966 5.79066 38.0282 5.67559L36.7955 3.6023C36.6066 3.28426 36.146 3.28426 35.957 3.6023Z" stroke="#0195FF" stroke-width="2" stroke-miterlimit="10" stroke-linecap="round" stroke-linejoin="round"/>
<path d="M56.3837 45.0445H53.4985M56.3837 49.9034H53.4985M56.3837 54.7623H53.4985M58.8132 42.6151C58.8132 41.2734 57.7255 40.1857 56.3838 40.1857L47.554 40.1721C46.3971 40.1703 45.4601 39.2319 45.4601 38.075V31.8011C45.4601 30.5072 44.7961 29.3035 43.7011 28.6135C42.8271 28.0627 41.668 28.5031 41.3776 29.4947L37.8686 41.4763C37.3064 43.3961 35.5455 44.7153 33.5449 44.7153H31.1449V57.2486H34.8569C36.8202 57.2486 38.773 57.6188 40.5735 58.4016C42.3661 59.1811 44.2998 59.5832 46.2542 59.5832L56.3837 59.6212C57.7255 59.6212 58.8131 58.5336 58.8131 57.1918C58.8131 55.8501 57.7254 54.7624 56.3837 54.7624C57.7255 54.7624 58.8131 53.6747 58.8131 52.333C58.8131 50.9912 57.7254 49.9036 56.3837 49.9036C57.7255 49.9036 58.8131 48.8158 58.8131 47.4741C58.8131 46.1325 57.7254 45.0447 56.3837 45.0447C57.7255 45.0445 58.8132 43.9568 58.8132 42.6151Z" stroke="#0195FF" stroke-width="2" stroke-miterlimit="10" stroke-linecap="round" stroke-linejoin="round"/>
<path d="M30.1809 59.1191H24.3679C23.8355 59.1191 23.4038 58.6875 23.4038 58.155V43.3343C23.4038 42.802 23.8354 42.3702 24.3679 42.3702H30.1809C30.7133 42.3702 31.145 42.8018 31.145 43.3343V58.155C31.145 58.6875 30.7134 59.1191 30.1809 59.1191Z" stroke="#0195FF" stroke-width="2" stroke-miterlimit="10" stroke-linecap="round" stroke-linejoin="round"/>
</g>
<defs>
<clipPath id="clip0_1_2">
<rect width="60" height="60" fill="white" transform="translate(0 0.5)"/>
</clipPath>
</defs>
</svg>
