<svg width="60" height="60" viewBox="0 0 60 60" fill="none" xmlns="http://www.w3.org/2000/svg">
<path d="M48.75 16.1756H32.3297C31.8122 16.1756 31.3922 15.7556 31.3922 15.2381C31.3922 14.7206 31.8122 14.3006 32.3297 14.3006H48.75C49.2675 14.3006 49.6875 14.7206 49.6875 15.2381C49.6875 15.7556 49.2675 16.1756 48.75 16.1756Z" fill="white"/>
<path d="M48.75 19.9256H32.3297C31.8122 19.9256 31.3922 19.5056 31.3922 18.9881C31.3922 18.4706 31.8122 18.0506 32.3297 18.0506H48.75C49.2675 18.0506 49.6875 18.4706 49.6875 18.9881C49.6875 19.5056 49.2675 19.9256 48.75 19.9256Z" fill="white"/>
<path d="M48.75 27.4256H37.9547C37.4372 27.4256 37.0172 27.0056 37.0172 26.4881C37.0172 25.9706 37.4372 25.5506 37.9547 25.5506H48.75C49.2675 25.5506 49.6875 25.9706 49.6875 26.4881C49.6875 27.0056 49.2675 27.4256 48.75 27.4256Z" fill="white"/>
<path d="M48.75 31.1756H37.9547C37.4372 31.1756 37.0172 30.7556 37.0172 30.2381C37.0172 29.7206 37.4372 29.3006 37.9547 29.3006H48.75C49.2675 29.3006 49.6875 29.7206 49.6875 30.2381C49.6875 30.7556 49.2675 31.1756 48.75 31.1756Z" fill="white"/>
<path d="M48.75 23.6756H37.9547C37.4372 23.6756 37.0172 23.2556 37.0172 22.7381C37.0172 22.2206 37.4372 21.8006 37.9547 21.8006H48.75C49.2675 21.8006 49.6875 22.2206 49.6875 22.7381C49.6875 23.2556 49.2675 23.6756 48.75 23.6756Z" fill="white"/>
<path d="M11.25 40.3125C10.7325 40.3125 10.3125 39.8925 10.3125 39.375V32.5162C10.3125 31.9987 10.7325 31.5787 11.25 31.5787C11.7675 31.5787 12.1875 31.9987 12.1875 32.5162V39.375C12.1875 39.8925 11.7675 40.3125 11.25 40.3125Z" fill="white"/>
<path d="M24.375 40.3125C23.8575 40.3125 23.4375 39.8925 23.4375 39.375V31.8244C23.4375 31.3069 23.8575 30.8869 24.375 30.8869C24.8925 30.8869 25.3125 31.3069 25.3125 31.8244V39.375C25.3125 39.8925 24.8925 40.3125 24.375 40.3125Z" fill="white"/>
<path d="M15 40.3125C14.4825 40.3125 14.0625 39.8925 14.0625 39.375V33.5334C14.0625 33.0159 14.4825 32.5959 15 32.5959C15.5175 32.5959 15.9375 33.0159 15.9375 33.5334V39.375C15.9375 39.8925 15.5175 40.3125 15 40.3125Z" fill="white"/>
<path d="M19.6875 29.0091C16.7166 29.0091 14.2059 26.4985 14.2059 23.5275C14.2059 20.5566 16.7166 18.046 19.6875 18.046C22.6584 18.046 25.1691 20.5566 25.1691 23.5275C25.1691 26.4985 22.6584 29.0091 19.6875 29.0091ZM19.6875 19.921C17.7328 19.921 16.0809 21.5728 16.0809 23.5275C16.0809 25.4822 17.7328 27.1341 19.6875 27.1341C21.6422 27.1341 23.2941 25.4822 23.2941 23.5275C23.2941 21.5728 21.6422 19.921 19.6875 19.921Z" fill="white"/>
<path d="M11.25 33.4537C10.7325 33.4537 10.3125 33.0337 10.3125 32.5162C10.3125 30.4359 11.6503 28.6331 13.6416 28.0294C14.1366 27.8803 14.6606 28.1597 14.8106 28.6547C14.9606 29.1506 14.6803 29.6737 14.1853 29.8237C12.99 30.1865 12.1875 31.2684 12.1875 32.5162C12.1875 33.0337 11.7675 33.4537 11.25 33.4537Z" fill="white"/>
<path d="M24.375 32.7619C24.0225 32.7619 23.6841 32.5622 23.5247 32.2209C23.3063 31.7513 23.5088 31.1934 23.9775 30.975L32.7431 26.8875C33.2128 26.6681 33.7706 26.8706 33.9891 27.3403C34.2075 27.81 34.005 28.3678 33.5363 28.5863L24.7706 32.6738C24.6431 32.7338 24.5081 32.7619 24.375 32.7619Z" fill="white"/>
<path d="M33.1406 28.6744C32.7881 28.6744 32.4497 28.4747 32.2903 28.1325C32.0719 27.6637 32.2743 27.1059 32.744 26.8865C33.0581 26.7403 33.2231 26.5247 33.2494 26.2275C33.2812 25.8572 33.0844 25.4353 32.7806 25.2225C32.5378 25.0509 32.2669 25.0397 31.9519 25.1859C31.4831 25.4044 30.9253 25.2028 30.7059 24.7331C30.4875 24.2644 30.69 23.7056 31.1587 23.4872C32.0794 23.0578 33.0619 23.1309 33.8559 23.6869C34.7137 24.2869 35.2078 25.3481 35.1169 26.3906C35.0325 27.3562 34.4559 28.1559 33.5353 28.5853C33.4087 28.6462 33.2737 28.6744 33.1406 28.6744Z" fill="white"/>
<path d="M22.8347 29.3419C22.4822 29.3419 22.1437 29.1422 21.9844 28.801C21.7659 28.3313 21.9684 27.7735 22.4372 27.555L31.1578 23.4881C31.6265 23.2697 32.1853 23.4722 32.4037 23.941C32.6222 24.4106 32.4197 24.9685 31.9509 25.1869L23.2303 29.2538C23.1028 29.3147 22.9678 29.3419 22.8347 29.3419Z" fill="white"/>
<path d="M13.9125 29.865C13.516 29.865 13.1466 29.6109 13.02 29.2116C12.8625 28.7184 13.1353 28.1906 13.6285 28.0341C16.6528 27.0684 19.8985 26.8791 23.0128 27.4847C23.521 27.5831 23.8528 28.0753 23.7544 28.5834C23.656 29.0916 23.1628 29.4234 22.6556 29.325C19.8478 28.7813 16.9238 28.9519 14.1975 29.82C14.1028 29.85 14.0072 29.865 13.9125 29.865Z" fill="white"/>
<path d="M52.5 42.1875C51.9825 42.1875 51.5625 41.7675 51.5625 41.25V11.25C51.5625 10.7325 51.9825 10.3125 52.5 10.3125C53.0175 10.3125 53.4375 10.7325 53.4375 11.25V41.25C53.4375 41.7675 53.0175 42.1875 52.5 42.1875Z" fill="white"/>
<path d="M50.625 44.0625C50.1075 44.0625 49.6875 43.6425 49.6875 43.125C49.6875 42.6075 50.1075 42.1875 50.625 42.1875C51.1416 42.1875 51.5625 41.7666 51.5625 41.25C51.5625 40.7325 51.9825 40.3125 52.5 40.3125C53.0175 40.3125 53.4375 40.7325 53.4375 41.25C53.4375 42.8006 52.1756 44.0625 50.625 44.0625Z" fill="white"/>
<path d="M7.5 42.1875C6.9825 42.1875 6.5625 41.7675 6.5625 41.25V20.625C6.5625 20.1075 6.9825 19.6875 7.5 19.6875C8.0175 19.6875 8.4375 20.1075 8.4375 20.625V41.25C8.4375 41.7675 8.0175 42.1875 7.5 42.1875Z" fill="white"/>
<path d="M9.375 44.0625C7.82437 44.0625 6.5625 42.8006 6.5625 41.25C6.5625 40.7325 6.9825 40.3125 7.5 40.3125C8.0175 40.3125 8.4375 40.7325 8.4375 41.25C8.4375 41.7666 8.85844 42.1875 9.375 42.1875C9.8925 42.1875 10.3125 42.6075 10.3125 43.125C10.3125 43.6425 9.8925 44.0625 9.375 44.0625Z" fill="white"/>
<path d="M50.625 10.3125H9.375C8.8575 10.3125 8.4375 9.8925 8.4375 9.375C8.4375 8.8575 8.8575 8.4375 9.375 8.4375H50.625C51.1425 8.4375 51.5625 8.8575 51.5625 9.375C51.5625 9.8925 51.1425 10.3125 50.625 10.3125Z" fill="white"/>
<path d="M52.5 12.1875C51.9825 12.1875 51.5625 11.7675 51.5625 11.25C51.5625 10.7334 51.1416 10.3125 50.625 10.3125C50.1075 10.3125 49.6875 9.8925 49.6875 9.375C49.6875 8.8575 50.1075 8.4375 50.625 8.4375C52.1756 8.4375 53.4375 9.69937 53.4375 11.25C53.4375 11.7675 53.0175 12.1875 52.5 12.1875Z" fill="white"/>
<path d="M7.5 17.8125C7.25625 17.8125 7.0125 17.7094 6.83437 17.5406C6.66562 17.3625 6.5625 17.1281 6.5625 16.875C6.5625 16.6312 6.66562 16.3875 6.83437 16.2094C7.19062 15.8625 7.81875 15.8625 8.16563 16.2094C8.33438 16.3875 8.4375 16.6312 8.4375 16.875C8.4375 17.1281 8.33438 17.3625 8.16563 17.5406C7.9875 17.7094 7.74375 17.8125 7.5 17.8125Z" fill="white"/>
<path d="M7.5 14.0625C6.9825 14.0625 6.5625 13.6425 6.5625 13.125V11.25C6.5625 10.7325 6.9825 10.3125 7.5 10.3125C8.0175 10.3125 8.4375 10.7325 8.4375 11.25V13.125C8.4375 13.6425 8.0175 14.0625 7.5 14.0625Z" fill="white"/>
<path d="M7.5 12.1875C6.9825 12.1875 6.5625 11.7675 6.5625 11.25C6.5625 9.69937 7.82437 8.4375 9.375 8.4375C9.8925 8.4375 10.3125 8.8575 10.3125 9.375C10.3125 9.8925 9.8925 10.3125 9.375 10.3125C8.85844 10.3125 8.4375 10.7334 8.4375 11.25C8.4375 11.7675 8.0175 12.1875 7.5 12.1875Z" fill="white"/>
<path d="M45 44.0625C44.7469 44.0625 44.5125 43.9594 44.3344 43.7906C44.1656 43.6125 44.0625 43.3687 44.0625 43.125C44.0625 42.8812 44.1656 42.6375 44.3344 42.4594C44.6813 42.1125 45.3187 42.1125 45.6656 42.4594C45.8344 42.6375 45.9375 42.8812 45.9375 43.125C45.9375 43.3687 45.8344 43.6125 45.6656 43.7906C45.4875 43.9594 45.2437 44.0625 45 44.0625Z" fill="white"/>
<path d="M50.625 44.0625H48.75C48.2325 44.0625 47.8125 43.6425 47.8125 43.125C47.8125 42.6075 48.2325 42.1875 48.75 42.1875H50.625C51.1425 42.1875 51.5625 42.6075 51.5625 43.125C51.5625 43.6425 51.1425 44.0625 50.625 44.0625Z" fill="white"/>
<path d="M41.25 44.0625H9.375C8.8575 44.0625 8.4375 43.6425 8.4375 43.125C8.4375 42.6075 8.8575 42.1875 9.375 42.1875H41.25C41.7675 42.1875 42.1875 42.6075 42.1875 43.125C42.1875 43.6425 41.7675 44.0625 41.25 44.0625Z" fill="white"/>
<path d="M52.5 40.3125H7.5C6.9825 40.3125 6.5625 39.8925 6.5625 39.375C6.5625 38.8575 6.9825 38.4375 7.5 38.4375H52.5C53.0175 38.4375 53.4375 38.8575 53.4375 39.375C53.4375 39.8925 53.0175 40.3125 52.5 40.3125Z" fill="white"/>
<path d="M35.625 47.8125C35.1075 47.8125 34.6875 47.3925 34.6875 46.875V43.125C34.6875 42.6075 35.1075 42.1875 35.625 42.1875C36.1425 42.1875 36.5625 42.6075 36.5625 43.125V46.875C36.5625 47.3925 36.1425 47.8125 35.625 47.8125Z" fill="white"/>
<path d="M24.375 47.8125C23.8575 47.8125 23.4375 47.3925 23.4375 46.875V43.125C23.4375 42.6075 23.8575 42.1875 24.375 42.1875C24.8925 42.1875 25.3125 42.6075 25.3125 43.125V46.875C25.3125 47.3925 24.8925 47.8125 24.375 47.8125Z" fill="white"/>
<path d="M46.875 51.5625C46.7775 51.5625 46.6772 51.5466 46.5787 51.5138L35.3287 47.7638C34.8375 47.5997 34.5722 47.0691 34.7362 46.5778C34.8993 46.0875 35.429 45.8194 35.9222 45.9853L47.1722 49.7353C47.6634 49.8994 47.9287 50.43 47.7647 50.9213C47.6334 51.3141 47.2678 51.5625 46.875 51.5625Z" fill="white"/>
<path d="M13.125 51.5625C12.7322 51.5625 12.3666 51.3141 12.2353 50.9213C12.0712 50.43 12.3366 49.8994 12.8278 49.7353L24.0778 45.9853C24.57 45.8194 25.0997 46.0875 25.2637 46.5778C25.4278 47.0691 25.1625 47.5997 24.6712 47.7638L13.4212 51.5138C13.3228 51.5475 13.2225 51.5625 13.125 51.5625Z" fill="white"/>
<path d="M35.625 47.8125H24.375C23.8575 47.8125 23.4375 47.3925 23.4375 46.875C23.4375 46.3575 23.8575 45.9375 24.375 45.9375H35.625C36.1425 45.9375 36.5625 46.3575 36.5625 46.875C36.5625 47.3925 36.1425 47.8125 35.625 47.8125Z" fill="white"/>
</svg>
