<svg width="60" height="60" viewBox="0 0 60 60" fill="none" xmlns="http://www.w3.org/2000/svg">
<path d="M9.92011 37.7568H9.4946C7.95862 37.7568 6.70894 39.0064 6.70894 40.5425C6.70894 42.0785 7.95862 43.3282 9.4946 43.3282H54.695C56.231 43.3282 57.4807 42.0785 57.4807 40.5424C57.4807 39.0064 56.231 37.7568 54.695 37.7568H54.2696V10.9468H54.695C56.231 10.9468 57.4807 9.69715 57.4807 8.16105C57.4807 6.62496 56.231 5.37527 54.695 5.37527H30.221V4.72477C30.221 2.63648 28.5221 0.9375 26.4337 0.9375H5.56144C3.47315 0.9375 1.77417 2.63648 1.77417 4.72477V19.0073C1.77417 21.0956 3.47315 22.7945 5.56144 22.7945H9.92011V37.7568ZM55.6058 40.5427C55.6058 41.0448 55.1973 41.4533 54.6951 41.4533H9.4946C8.99245 41.4533 8.58394 41.0448 8.58394 40.5425C8.58394 40.0404 8.99245 39.6319 9.4946 39.6319H54.695C55.1973 39.6318 55.6058 40.0404 55.6058 40.5427ZM54.695 7.25027C55.1971 7.25027 55.6057 7.65879 55.6057 8.16105C55.6057 8.66332 55.1971 9.07184 54.695 9.07184H30.221V7.25027H54.695ZM30.221 19.0073V10.9468H52.3947V37.7568H11.7951V22.7945H18.0464L23.3462 28.3114C23.5265 28.4992 23.7721 28.5995 24.0225 28.5995C24.1401 28.5995 24.2588 28.5773 24.3723 28.5316C24.7271 28.3888 24.9597 28.0446 24.9597 27.662V22.7945H26.4337C28.5221 22.7945 30.221 21.0956 30.221 19.0073ZM3.64917 19.0073V4.72477C3.64917 3.67031 4.50698 2.8125 5.56144 2.8125H26.4337C27.488 2.8125 28.3458 3.67031 28.3458 4.72477V19.0073C28.3458 20.0618 27.488 20.9195 26.4337 20.9195H24.0222C23.5045 20.9195 23.0847 21.3393 23.0847 21.857V25.3328L19.1219 21.2075C18.9451 21.0236 18.701 20.9195 18.4457 20.9195H5.56144C4.50698 20.9195 3.64917 20.0617 3.64917 19.0073ZM26.3691 34.7893C26.547 34.9871 26.8005 35.1001 27.0664 35.1001H48.4546C48.7207 35.1001 48.9741 34.9871 49.1519 34.7893C49.3297 34.5915 49.4151 34.3274 49.3867 34.0629C48.8907 29.4271 45.7464 25.6801 41.548 24.251C43.1171 23.0885 44.1365 21.2241 44.1365 19.1256C44.1365 15.61 41.2763 12.7496 37.7606 12.7496C34.2449 12.7496 31.3848 15.6098 31.3848 19.1256C31.3848 21.2239 32.4041 23.0883 33.9732 24.2509C29.7746 25.68 26.6302 29.427 26.1342 34.0629C26.1059 34.3274 26.1912 34.5915 26.3691 34.7893ZM33.2598 19.1256C33.2598 16.6438 35.2788 14.6246 37.7606 14.6246C40.2425 14.6246 42.2615 16.6437 42.2615 19.1256C42.2615 21.6067 40.2437 23.6251 37.7628 23.6264C37.762 23.6264 37.7612 23.6264 37.7603 23.6264C37.7596 23.6264 37.7588 23.6264 37.758 23.6264C35.2776 23.6251 33.2598 21.6066 33.2598 19.1256ZM37.7582 25.5014H37.7607C37.7607 25.5014 37.7623 25.5014 37.7632 25.5014C42.4381 25.5026 46.3924 28.7561 47.3559 33.2251H28.1653C29.1288 28.7561 33.0832 25.5026 37.7582 25.5014ZM58.2203 58.0252C57.9362 55.3693 56.2546 53.1824 53.9505 52.1592C54.6796 51.4125 55.1302 50.3925 55.1302 49.2688C55.1302 46.9857 53.2728 45.1283 50.9899 45.1283C48.7068 45.1283 46.8494 46.9857 46.8494 49.2688C46.8494 50.3925 47.3 51.4124 48.0291 52.1592C46.6285 52.7813 45.4579 53.8331 44.6915 55.1591C43.9251 53.8331 42.7545 52.7812 41.354 52.1593C42.0832 51.4126 42.5337 50.3926 42.5337 49.2689C42.5337 46.9859 40.6763 45.1284 38.3933 45.1284C36.1102 45.1284 34.2528 46.9859 34.2528 49.2689C34.2528 50.3926 34.7034 51.4125 35.4325 52.1593C34.0319 52.7814 32.8613 53.8332 32.0949 55.1592C31.3284 53.8332 30.1578 52.7814 28.7572 52.1593C29.4863 51.4126 29.9369 50.3926 29.9369 49.2689C29.9369 46.9859 28.0795 45.1284 25.7966 45.1284C23.5135 45.1284 21.6561 46.9859 21.6561 49.2689C21.6561 50.3926 22.1067 51.4125 22.8358 52.1593C21.4352 52.7814 20.2646 53.8332 19.4982 55.1592C18.7318 53.8332 17.5612 52.7814 16.1607 52.1595C16.8898 51.4127 17.3404 50.3927 17.3404 49.269C17.3404 46.986 15.483 45.1286 13.2 45.1286C10.9169 45.1286 9.05948 46.986 9.05948 49.269C9.05948 50.3927 9.51007 51.4126 10.2392 52.1595C7.93507 53.1826 6.25354 55.3696 5.96937 58.0254C5.94101 58.2899 6.02632 58.554 6.20421 58.7518C6.3821 58.9496 6.63546 59.0625 6.90147 59.0625H57.2882C57.5542 59.0625 57.8077 58.9494 57.9855 58.7517C58.1634 58.5538 58.2488 58.2896 58.2203 58.0252ZM48.7244 49.2689C48.7244 48.0197 49.7407 47.0034 50.9899 47.0034C52.239 47.0034 53.2552 48.0197 53.2552 49.2689C53.2552 50.5177 52.2398 51.5334 50.9914 51.5343C50.9909 51.5343 50.9903 51.5343 50.9899 51.5343C50.9894 51.5343 50.9888 51.5343 50.9883 51.5343C49.7398 51.5334 48.7244 50.5175 48.7244 49.2689ZM36.1278 49.2689C36.1278 48.0197 37.144 47.0034 38.3933 47.0034C39.6425 47.0034 40.6587 48.0197 40.6587 49.2689C40.6587 50.5177 39.6433 51.5334 38.3948 51.5343C38.3943 51.5343 38.3937 51.5343 38.3932 51.5343C38.3927 51.5343 38.3922 51.5343 38.3916 51.5343C37.1432 51.5334 36.1278 50.5175 36.1278 49.2689ZM23.5311 49.2689C23.5311 48.0197 24.5473 47.0034 25.7966 47.0034C27.0457 47.0034 28.0619 48.0197 28.0619 49.2689C28.0619 50.5177 27.0465 51.5334 25.7981 51.5343C25.7976 51.5343 25.797 51.5343 25.7966 51.5343C25.7961 51.5343 25.7955 51.5343 25.795 51.5343C24.5465 51.5334 23.5311 50.5175 23.5311 49.2689ZM10.9345 49.2689C10.9345 48.0197 11.9507 47.0034 13.2 47.0034C14.4492 47.0034 15.4654 48.0197 15.4654 49.2689C15.4654 50.5177 14.45 51.5334 13.2015 51.5343C13.201 51.5343 13.2004 51.5343 13.1998 51.5343C13.1994 51.5343 13.1989 51.5343 13.1983 51.5343C11.9498 51.5334 10.9345 50.5175 10.9345 49.2689ZM8.04804 57.1875C8.7371 54.9751 10.794 53.4103 13.1974 53.4093H13.2H13.2024C15.6058 53.4104 17.6626 54.975 18.3516 57.1874L8.04804 57.1875ZM20.6448 57.1874C21.3338 54.975 23.3906 53.4104 25.794 53.4093H25.7964C25.7964 53.4093 25.7981 53.4093 25.7989 53.4093C28.2023 53.4103 30.2592 54.9751 30.9481 57.1875L20.6448 57.1874ZM33.2415 57.1875C33.9304 54.9751 35.9872 53.4103 38.3907 53.4093H38.3933H38.3957C40.7991 53.4104 42.8559 54.975 43.545 57.1874L33.2415 57.1875ZM45.8381 57.1874C46.5271 54.975 48.5839 53.4104 50.9873 53.4093H50.9898C50.9898 53.4093 50.9914 53.4093 50.9922 53.4093C53.3956 53.4103 55.4525 54.9751 56.1414 57.1875L45.8381 57.1874ZM23.4566 17.5529V6.17918C23.4566 5.20207 22.6616 4.40695 21.6844 4.40695H10.3107C9.33358 4.40695 8.53858 5.20195 8.53858 6.17918V17.5528C8.53858 18.5299 9.33358 19.325 10.3107 19.325H21.6844C22.6616 19.325 23.4566 18.53 23.4566 17.5529ZM21.5816 17.45H10.4136V6.28207H21.5816V17.45ZM13.4098 15.8767C13.6271 16.0022 13.8652 16.0648 14.1035 16.0648C14.3416 16.0648 14.5797 16.0021 14.7967 15.8768L19.6635 13.0669C20.0977 12.8162 20.3569 12.3673 20.3569 11.8659C20.3569 11.3646 20.0977 10.9157 19.6635 10.665L14.797 7.8552C14.3628 7.60441 13.8444 7.6043 13.4104 7.85496C12.976 8.10551 12.7167 8.55457 12.7167 9.05613V14.6759C12.7167 15.1774 12.976 15.6265 13.4098 15.8767ZM14.5917 9.90199L17.9936 11.8662L14.5917 13.8302V9.90199Z" fill="white"/>
</svg>
