<svg width="60" height="60" viewBox="0 0 60 60" fill="none" xmlns="http://www.w3.org/2000/svg">
<path d="M32.2019 30.682L30.1453 31.2328L28.1742 23.877C27.6949 22.0828 25.8433 21.0129 24.048 21.4934C22.2562 21.9738 21.1887 23.8254 21.668 25.6207L21.9351 26.6191L13.7508 31.8047L8.3074 33.2625C5.60623 33.9879 3.73123 36.273 3.38904 38.8922L1.68514 39.348C0.476935 39.6715 -0.243768 40.9184 0.0796693 42.1301L0.670294 44.3273C0.826154 44.9121 1.20115 45.402 1.72615 45.7055C2.07654 45.9082 2.46561 46.0125 2.86053 46.0125C3.05623 46.0125 3.25428 45.9867 3.44881 45.9352L5.15389 45.4793C6.41483 47.127 8.39412 48.1242 10.4965 48.1242C11.0683 48.1242 11.6508 48.0504 12.2297 47.8957L12.2648 47.8863L14.3074 55.5059C14.5242 56.3238 15.2683 56.8664 16.0828 56.8664C16.2387 56.8664 16.3969 56.8465 16.5551 56.8043L19.4578 56.025C19.9324 55.8996 20.3297 55.5961 20.5758 55.1695C20.8219 54.7441 20.8863 54.2496 20.7586 53.7809L18.8027 46.4813L27.3539 46.8352L27.6211 47.8336C28.023 49.3371 29.3883 50.332 30.8754 50.332C31.1625 50.332 31.4543 50.2945 31.7449 50.2172C33.539 49.7379 34.609 47.8863 34.1285 46.0898L32.1574 38.7328L34.214 38.182C35.2125 37.9148 36.048 37.2715 36.5683 36.3715C37.0875 35.4715 37.2269 34.4262 36.9597 33.4277C36.4031 31.3594 34.2715 30.1277 32.2019 30.682ZM2.96248 44.1246C2.82654 44.1609 2.71639 44.1152 2.66248 44.0836C2.60975 44.0531 2.51483 43.9805 2.4785 43.8422L1.88787 41.6449C1.83162 41.4363 1.96053 41.2125 2.16795 41.1563L3.41717 40.8223C3.4535 41.0438 3.50037 41.2664 3.55897 41.4879L4.00428 43.1449C4.06287 43.3652 4.13436 43.5797 4.21287 43.7883L2.96248 44.1246ZM6.34569 43.9078C6.34451 43.9055 6.34217 43.902 6.341 43.8996C6.11365 43.5223 5.93318 43.1074 5.81365 42.6609L5.36834 41.0051C5.24998 40.5609 5.19842 40.1133 5.20545 39.675C5.20662 39.6609 5.20662 39.6457 5.20662 39.6316C5.26053 37.541 6.67381 35.6414 8.79139 35.073L13.4672 33.8203L16.4168 44.8301L12.682 45.8332H12.6808H12.6797L11.741 46.0852C9.61522 46.6535 7.43319 45.7055 6.34569 43.9078ZM16.1051 54.9844L14.0719 47.4L16.9031 46.6406L18.9351 54.225L16.1051 54.9844ZM18.2918 44.584L15.2133 33.0949L22.4414 28.5141L26.843 44.9379L18.2918 44.584ZM31.2586 48.4066C30.4617 48.6199 29.6414 48.1453 29.4293 47.3484L23.4762 25.1355C23.2629 24.3375 23.7363 23.516 24.5308 23.3027C25.3277 23.0906 26.1504 23.5641 26.3637 24.3609L28.5691 32.591C28.5715 32.6016 28.5726 32.6121 28.5762 32.6227C28.5785 32.6332 28.5832 32.6426 28.5855 32.6531L30.0937 38.2793C30.0961 38.291 30.0984 38.3016 30.1008 38.3133C30.1031 38.3203 30.1055 38.3262 30.1078 38.332L32.3168 46.5738C32.5301 47.3719 32.0554 48.1934 31.2586 48.4066ZM34.9429 35.434C34.6734 35.9004 34.2422 36.2332 33.7265 36.3715L31.6699 36.9223L30.6304 33.041L32.6871 32.4902C33.7582 32.2043 34.8609 32.8406 35.148 33.9105C35.284 34.4262 35.2125 34.9676 34.9429 35.434ZM57.7031 3.13477H36.2344C34.9664 3.13477 33.9351 4.16602 33.9351 5.43398V26.1457C33.9351 26.8348 34.3722 27.4477 35.018 27.6715C35.1984 27.7348 35.3812 27.7652 35.5617 27.7652C36.0375 27.7652 36.4945 27.5531 36.8097 27.1641L41.5137 21.3445L41.516 21.3422C41.5183 21.3387 41.5207 21.3363 41.5219 21.3352C41.5254 21.3352 41.5312 21.334 41.5394 21.334H57.7031C58.9687 21.334 59.9988 20.3027 59.9988 19.0348V5.43398C59.9988 4.16602 58.9687 3.13477 57.7031 3.13477ZM58.125 19.0336C58.125 19.2645 57.9316 19.459 57.7031 19.459H41.5394C40.95 19.459 40.4226 19.7109 40.0558 20.1668L35.809 25.4215V5.43398C35.809 5.20313 36.0035 5.00859 36.2344 5.00859H57.7031C57.9316 5.00859 58.125 5.20313 58.125 5.43398V19.0336ZM50.6015 10.6711L45.1406 7.51875C44.5758 7.1918 43.9008 7.1918 43.3359 7.51875C42.7711 7.8457 42.4324 8.4293 42.4324 9.08086V15.3855C42.4324 16.0359 42.7699 16.6207 43.3359 16.9477C43.6183 17.1117 43.9289 17.1926 44.2383 17.1926C44.5476 17.1926 44.8582 17.1105 45.1394 16.9477L50.6004 13.7953H50.6015C51.1652 13.4695 51.5015 12.8859 51.5015 12.2332C51.5015 11.5816 51.1652 10.9969 50.6015 10.6711ZM44.3062 15.266V9.20039L49.5597 12.2332L44.3062 15.266Z" fill="white"/>
</svg>
