<svg width="60" height="60" viewBox="0 0 60 60" fill="none" xmlns="http://www.w3.org/2000/svg">
<g clip-path="url(#clip0_2_80)">
<path d="M55.6659 0H54.0866C53.6009 0 53.2068 0.393677 53.2068 0.879821C53.2068 1.36597 53.6005 1.75964 54.0866 1.75964H55.6659C56.6528 1.75964 57.4562 2.56256 57.4562 3.54996V30.6505C57.4562 31.6374 56.6528 32.4403 55.6659 32.4403H22.181C21.194 32.4403 20.3911 31.6374 20.3911 30.6505V22.8364C20.3911 22.3503 19.997 21.9566 19.5113 21.9566C19.0251 21.9566 18.6315 22.3503 18.6315 22.8364V30.6505C18.6315 32.6079 20.2236 34.2 22.181 34.2H29.3784C29.5867 35.8562 31.0025 37.1415 32.7141 37.1415H37.9212V48.061L27.4842 58.498C27.1408 58.8418 27.1408 59.3985 27.4842 59.7422C27.8279 60.086 28.385 60.086 28.7284 59.7422L34.3932 54.0774L38.1789 57.8631C38.3505 58.0348 38.5758 58.1208 38.801 58.1208C39.0262 58.1208 39.2514 58.0348 39.4231 57.8631L43.2088 54.0774L48.8736 59.7422C49.0453 59.9139 49.2705 60 49.4957 60C49.7209 60 49.9462 59.9139 50.1178 59.7422C50.4616 59.3985 50.4616 58.8418 50.1178 58.498L39.6808 48.061V37.1415H43.9536C45.6651 37.1415 47.081 35.8562 47.2893 34.2H55.6659C57.6233 34.2 59.2159 32.6079 59.2159 30.6505V3.5495C59.2154 1.59256 57.6233 0 55.6659 0ZM37.9212 50.5494V55.117L35.6378 52.8332L37.9212 50.5494ZM41.9646 52.8332L39.6808 55.117V50.5494L41.9646 52.8332ZM43.9531 35.3819H32.7141C31.9757 35.3819 31.3523 34.8802 31.1669 34.2H45.5008C45.315 34.8802 44.6915 35.3819 43.9531 35.3819Z" fill="white"/>
<path d="M35.1535 11.6317C34.6738 11.9087 34.3877 12.4045 34.3877 12.9583V21.2416C34.3877 21.7955 34.6738 22.2912 35.1535 22.5682C35.3934 22.7069 35.6562 22.776 35.9194 22.776C36.1826 22.776 36.4453 22.7069 36.6852 22.5682L43.8588 18.4263C44.3381 18.1498 44.6247 17.6536 44.6247 17.1002C44.6247 16.5463 44.3381 16.0505 43.8588 15.7736L36.6852 11.6322C36.2055 11.3553 35.6328 11.3553 35.1535 11.6317ZM36.1473 20.847V13.3529L42.637 17.1002L36.1473 20.847Z" fill="white"/>
<path d="M16.501 55.4722V32.0242C16.501 32.021 16.5015 32.0178 16.5015 32.0141V19.991H29.5152C31.1687 19.991 32.5136 18.6452 32.5136 16.9913V14.8132C32.5136 14.3275 32.1199 13.9334 31.6337 13.9334H20.3911V3.5495C20.3911 2.56256 21.194 1.75964 22.1809 1.75964H50.5394C51.0255 1.75964 51.4192 1.36551 51.4192 0.879821C51.4192 0.393677 51.0255 0 50.5394 0H22.1809C20.2235 0 18.6314 1.59256 18.6314 3.5495V13.9339H13.0627V12.6672C14.4347 11.7046 15.3337 10.1125 15.3337 8.31298V3.19244C15.3337 1.43234 13.9018 0.000457763 12.1417 0.000457763H7.89047C6.13037 0.000457763 4.69848 1.43234 4.69848 3.19244V8.31298C4.69848 10.1587 5.64422 11.787 7.07565 12.7409V13.9339H5.19424C2.71774 13.9339 0.703125 15.948 0.703125 18.4236V28.5095C0.703125 30.927 2.67013 32.894 5.08804 32.894H5.17685V35.3544C5.17685 35.8406 5.57052 36.2343 6.05667 36.2343C6.54236 36.2343 6.93649 35.8406 6.93649 35.3544V32.894H14.7418V54.976H11.7187V39.1392C11.7187 38.6531 11.3251 38.2594 10.8389 38.2594C10.3532 38.2594 9.9591 38.6531 9.9591 39.1392V54.9756H6.93603V39.4935C6.93603 39.0074 6.54236 38.6137 6.05621 38.6137C5.57052 38.6137 5.17639 39.0074 5.17639 39.4935V58.4019C5.17639 59.1504 5.78567 59.7592 6.53412 59.7592H17.6234C18.1091 59.7592 18.5033 59.3655 18.5033 58.8794C18.5033 57.4173 17.6944 56.1406 16.501 55.4722ZM6.45813 3.19244C6.45813 2.4028 7.10083 1.7601 7.89047 1.7601H12.1413C12.9314 1.7601 13.5741 2.4028 13.5741 3.19244V4.48471C13.152 4.27231 12.6768 4.151 12.1747 4.14596V4.10843C12.1747 3.62274 11.781 3.22861 11.2949 3.22861C10.8092 3.22861 10.415 3.62274 10.415 4.10843V4.14505H7.89047C7.37594 4.14505 6.88934 4.26727 6.45813 4.48471V3.19244ZM6.45813 7.33703C6.45813 6.54693 7.10083 5.90469 7.89047 5.90469H12.1413C12.9314 5.90469 13.5741 6.54693 13.5741 7.33703V8.31298C13.5741 10.275 11.9778 11.8712 10.0159 11.8712C8.05435 11.8712 6.45813 10.275 6.45813 8.31298V7.33703ZM10.0159 13.6304C10.4599 13.6304 10.8907 13.575 11.3031 13.472V14.7674C11.3026 14.7784 11.3022 14.7894 11.3022 14.8009C11.2926 15.4706 10.7396 16.0153 10.069 16.0153C9.3988 16.0153 8.84582 15.4706 8.83621 14.8009C8.83621 14.7894 8.83575 14.7784 8.83529 14.7674V13.4967C9.21524 13.5832 9.61029 13.6304 10.0159 13.6304ZM2.46277 28.509V18.4236C2.46277 16.918 3.6882 15.693 5.19424 15.693H7.21985C7.60849 16.8974 8.7442 17.775 10.069 17.775C11.3937 17.775 12.5294 16.8974 12.9181 15.693H30.7539V16.9913C30.7539 17.6747 30.1982 18.2309 29.5152 18.2309H15.9508C15.2843 18.2309 14.7418 18.7733 14.7418 19.4398V31.1339H6.93603V21.2292C6.93603 20.7436 6.54236 20.3494 6.05621 20.3494C5.57052 20.3494 5.17639 20.7431 5.17639 21.2292V31.1343H5.08804C3.64014 31.1343 2.46277 29.957 2.46277 28.509ZM11.3173 57.9995H6.93603V56.7352H9.81674C10.686 56.7352 11.4358 57.2548 11.7723 57.9995H11.3173ZM13.6194 57.9995C13.5136 57.5427 13.3278 57.1161 13.0769 56.7357H14.5999C15.4683 56.7357 16.2181 57.2548 16.5546 57.9995H13.6194Z" fill="white"/>
</g>
<defs>
<clipPath id="clip0_2_80">
<rect width="60" height="60" fill="white"/>
</clipPath>
</defs>
</svg>
