<svg width="60" height="60" viewBox="0 0 60 60" fill="none" xmlns="http://www.w3.org/2000/svg">
<path d="M34.6875 50.625H32.8125V41.4375C32.8125 41.1889 32.7137 40.9504 32.5379 40.7746C32.3621 40.5988 32.1236 40.5 31.875 40.5C31.6264 40.5 31.3879 40.5988 31.2121 40.7746C31.0363 40.9504 30.9375 41.1889 30.9375 41.4375V50.625H6.5625V31.875H14.3625C14.6111 31.875 14.8496 31.7762 15.0254 31.6004C15.2012 31.4246 15.3 31.1861 15.3 30.9375C15.3 30.6889 15.2012 30.4504 15.0254 30.2746C14.8496 30.0988 14.6111 30 14.3625 30H5.625C5.37636 30 5.1379 30.0988 4.96209 30.2746C4.78627 30.4504 4.6875 30.6889 4.6875 30.9375V50.625H2.8125C2.56386 50.625 2.3254 50.7238 2.14959 50.8996C1.97377 51.0754 1.875 51.3139 1.875 51.5625V53.4375C1.875 54.6807 2.36886 55.873 3.24794 56.7521C4.12701 57.6311 5.3193 58.125 6.5625 58.125H30.9375C32.1807 58.125 33.373 57.6311 34.2521 56.7521C35.1311 55.873 35.625 54.6807 35.625 53.4375V51.5625C35.625 51.3139 35.5262 51.0754 35.3504 50.8996C35.1746 50.7238 34.9361 50.625 34.6875 50.625ZM33.75 53.4375C33.75 54.1834 33.4537 54.8988 32.9262 55.4262C32.3988 55.9537 31.6834 56.25 30.9375 56.25H29.0625V55.3125C29.0625 55.0639 28.9637 54.8254 28.7879 54.6496C28.6121 54.4738 28.3736 54.375 28.125 54.375C27.8764 54.375 27.6379 54.4738 27.4621 54.6496C27.2863 54.8254 27.1875 55.0639 27.1875 55.3125V56.25H10.3125V55.3125C10.3125 55.0639 10.2137 54.8254 10.0379 54.6496C9.8621 54.4738 9.62364 54.375 9.375 54.375C9.12636 54.375 8.8879 54.4738 8.71209 54.6496C8.53627 54.8254 8.4375 55.0639 8.4375 55.3125V56.25H6.5625C5.81658 56.25 5.10121 55.9537 4.57376 55.4262C4.04632 54.8988 3.75 54.1834 3.75 53.4375V52.5H33.75V53.4375Z" fill="white"/>
<path d="M50.625 7.5H52.5C52.7486 7.5 52.9871 7.40123 53.1629 7.22541C53.3387 7.0496 53.4375 6.81114 53.4375 6.5625C53.4375 6.31386 53.3387 6.0754 53.1629 5.89959C52.9871 5.72377 52.7486 5.625 52.5 5.625H50.625C49.8791 5.625 49.1637 5.92132 48.6363 6.44876C48.1088 6.97621 47.8125 7.69158 47.8125 8.4375V9.375H46.875C46.6264 9.375 46.3879 9.47377 46.2121 9.64959C46.0363 9.8254 45.9375 10.0639 45.9375 10.3125C45.9375 10.5611 46.0363 10.7996 46.2121 10.9754C46.3879 11.1512 46.6264 11.25 46.875 11.25H47.8125V14.0625C47.8125 14.3111 47.9113 14.5496 48.0871 14.7254C48.2629 14.9012 48.5014 15 48.75 15C48.9986 15 49.2371 14.9012 49.4129 14.7254C49.5887 14.5496 49.6875 14.3111 49.6875 14.0625V11.25H50.625C50.8736 11.25 51.1121 11.1512 51.2879 10.9754C51.4637 10.7996 51.5625 10.5611 51.5625 10.3125C51.5625 10.0639 51.4637 9.8254 51.2879 9.64959C51.1121 9.47377 50.8736 9.375 50.625 9.375H49.6875V8.4375C49.6875 8.18886 49.7863 7.9504 49.9621 7.77459C50.1379 7.59877 50.3764 7.5 50.625 7.5Z" fill="white"/>
<path d="M55.3125 1.875H44.0625C43.3166 1.875 42.6012 2.17132 42.0738 2.69876C41.5463 3.22621 41.25 3.94158 41.25 4.6875V6.5625C41.25 6.81114 41.3488 7.0496 41.5246 7.22541C41.7004 7.40123 41.9389 7.5 42.1875 7.5C42.4361 7.5 42.6746 7.40123 42.8504 7.22541C43.0262 7.0496 43.125 6.81114 43.125 6.5625V4.6875C43.125 4.43886 43.2238 4.2004 43.3996 4.02459C43.5754 3.84877 43.8139 3.75 44.0625 3.75H55.3125C55.5611 3.75 55.7996 3.84877 55.9754 4.02459C56.1512 4.2004 56.25 4.43886 56.25 4.6875V15.9375C56.25 16.1861 56.1512 16.4246 55.9754 16.6004C55.7996 16.7762 55.5611 16.875 55.3125 16.875H44.0625C43.8139 16.875 43.5754 16.7762 43.3996 16.6004C43.2238 16.4246 43.125 16.1861 43.125 15.9375V10.3125C43.125 10.0639 43.0262 9.8254 42.8504 9.64959C42.6746 9.47377 42.4361 9.375 42.1875 9.375C41.9389 9.375 41.7004 9.47377 41.5246 9.64959C41.3488 9.8254 41.25 10.0639 41.25 10.3125V15.9375C41.25 16.6834 41.5463 17.3988 42.0738 17.9262C42.6012 18.4537 43.3166 18.75 44.0625 18.75H55.3125C56.0584 18.75 56.7738 18.4537 57.3012 17.9262C57.8287 17.3988 58.125 16.6834 58.125 15.9375V4.6875C58.125 3.94158 57.8287 3.22621 57.3012 2.69876C56.7738 2.17132 56.0584 1.875 55.3125 1.875Z" fill="white"/>
<path d="M45.9375 39.375C45.9375 40.1167 46.1574 40.8417 46.5695 41.4584C46.9815 42.0751 47.5672 42.5557 48.2524 42.8395C48.9377 43.1234 49.6917 43.1976 50.4191 43.0529C51.1465 42.9083 51.8147 42.5511 52.3391 42.0266C52.8636 41.5022 53.2208 40.834 53.3654 40.1066C53.5101 39.3792 53.4359 38.6252 53.152 37.9399C52.8682 37.2547 52.3876 36.669 51.7709 36.257C51.1542 35.8449 50.4292 35.625 49.6875 35.625C48.6929 35.625 47.7391 36.0201 47.0359 36.7234C46.3326 37.4266 45.9375 38.3804 45.9375 39.375ZM51.5625 39.375C51.5625 39.7458 51.4525 40.1084 51.2465 40.4167C51.0405 40.725 50.7476 40.9654 50.405 41.1073C50.0624 41.2492 49.6854 41.2863 49.3217 41.214C48.958 41.1416 48.6239 40.9631 48.3617 40.7008C48.0994 40.4386 47.9209 40.1045 47.8485 39.7408C47.7762 39.3771 47.8133 39.0001 47.9552 38.6575C48.0971 38.3149 48.3375 38.022 48.6458 37.816C48.9541 37.61 49.3167 37.5 49.6875 37.5C50.1848 37.5 50.6617 37.6975 51.0133 38.0492C51.365 38.4008 51.5625 38.8777 51.5625 39.375Z" fill="white"/>
<path d="M55.3125 30.9375H44.0625C43.3166 30.9375 42.6012 31.2338 42.0738 31.7613C41.5463 32.2887 41.25 33.0041 41.25 33.75V45C41.25 45.7459 41.5463 46.4613 42.0738 46.9887C42.6012 47.5162 43.3166 47.8125 44.0625 47.8125H55.3125C56.0584 47.8125 56.7738 47.5162 57.3012 46.9887C57.8287 46.4613 58.125 45.7459 58.125 45V43.125C58.125 42.8764 58.0262 42.6379 57.8504 42.4621C57.6746 42.2863 57.4361 42.1875 57.1875 42.1875C56.9389 42.1875 56.7004 42.2863 56.5246 42.4621C56.3488 42.6379 56.25 42.8764 56.25 43.125V45C56.25 45.2486 56.1512 45.4871 55.9754 45.6629C55.7996 45.8387 55.5611 45.9375 55.3125 45.9375H44.0625C43.8139 45.9375 43.5754 45.8387 43.3996 45.6629C43.2238 45.4871 43.125 45.2486 43.125 45V33.75C43.125 33.5014 43.2238 33.2629 43.3996 33.0871C43.5754 32.9113 43.8139 32.8125 44.0625 32.8125H55.3125C55.5611 32.8125 55.7996 32.9113 55.9754 33.0871C56.1512 33.2629 56.25 33.5014 56.25 33.75V39.375C56.25 39.6236 56.3488 39.8621 56.5246 40.0379C56.7004 40.2137 56.9389 40.3125 57.1875 40.3125C57.4361 40.3125 57.6746 40.2137 57.8504 40.0379C58.0262 39.8621 58.125 39.6236 58.125 39.375V33.75C58.125 33.0041 57.8287 32.2887 57.3012 31.7613C56.7738 31.2338 56.0584 30.9375 55.3125 30.9375Z" fill="white"/>
<path d="M22.9406 12.9843C23.0898 13.0768 23.262 13.1255 23.4375 13.125C23.5843 13.1241 23.7288 13.0888 23.8594 13.0218L29.4844 10.2093C29.6379 10.1307 29.7668 10.0111 29.8568 9.86393C29.9468 9.71671 29.9944 9.54751 29.9944 9.37497C29.9944 9.20243 29.9468 9.03323 29.8568 8.88601C29.7668 8.7388 29.6379 8.61927 29.4844 8.5406L23.8594 5.7281C23.7167 5.65618 23.5579 5.62194 23.3983 5.62863C23.2386 5.63532 23.0833 5.68271 22.9471 5.76631C22.8109 5.84991 22.6983 5.96694 22.6201 6.10628C22.5418 6.24563 22.5005 6.40266 22.5 6.56247V12.1875C22.4997 12.3468 22.54 12.5036 22.6171 12.643C22.6942 12.7824 22.8055 12.8999 22.9406 12.9843ZM24.375 8.08122L26.9625 9.37497L24.375 10.6687V8.08122Z" fill="white"/>
<path d="M25.3125 17.8125C26.9813 17.8125 28.6126 17.3177 30.0001 16.3905C31.3877 15.4634 32.4691 14.1456 33.1077 12.6039C33.7463 11.0621 33.9134 9.36564 33.5879 7.72893C33.2623 6.09221 32.4587 4.5888 31.2787 3.40879C30.0987 2.22878 28.5953 1.42519 26.9586 1.09963C25.3219 0.774065 23.6254 0.941156 22.0836 1.57977C20.5419 2.21838 19.2241 3.29984 18.297 4.68738C17.3699 6.07492 16.875 7.70622 16.875 9.375C16.875 11.6128 17.7639 13.7589 19.3463 15.3412C20.9286 16.9236 23.0747 17.8125 25.3125 17.8125ZM25.3125 2.8125C26.6104 2.8125 27.8792 3.19739 28.9584 3.91848C30.0376 4.63958 30.8788 5.6645 31.3755 6.86364C31.8722 8.06278 32.0021 9.38228 31.7489 10.6553C31.4957 11.9283 30.8707 13.0976 29.9529 14.0154C29.0351 14.9332 27.8658 15.5582 26.5928 15.8114C25.3198 16.0646 24.0003 15.9347 22.8011 15.438C21.602 14.9413 20.5771 14.1001 19.856 13.0209C19.1349 11.9417 18.75 10.6729 18.75 9.375C18.75 7.63452 19.4414 5.96532 20.6721 4.73462C21.9028 3.50391 23.572 2.8125 25.3125 2.8125Z" fill="white"/>
<path d="M34.6875 21.5625C34.833 21.5625 34.9766 21.5286 35.1068 21.4635C35.2369 21.3984 35.3502 21.3039 35.4375 21.1875L38.25 17.4375C38.3992 17.2386 38.4632 16.9886 38.4281 16.7424C38.3929 16.4963 38.2614 16.2742 38.0625 16.125C37.8636 15.9758 37.6136 15.9118 37.3674 15.9469C37.1213 15.9821 36.8992 16.1136 36.75 16.3125L33.9375 20.0625C33.7883 20.2614 33.7243 20.5114 33.7594 20.7576C33.7946 21.0037 33.9261 21.2258 34.125 21.375C34.2873 21.4967 34.4847 21.5625 34.6875 21.5625Z" fill="white"/>
<path d="M36.75 24.9375C36.8373 25.0539 36.9506 25.1484 37.0807 25.2135C37.2109 25.2786 37.3545 25.3125 37.5 25.3125C37.7028 25.3125 37.9002 25.2467 38.0625 25.125L41.8125 22.3125C42.0114 22.1633 42.1429 21.9412 42.1781 21.6951C42.2132 21.4489 42.1492 21.1989 42 21C41.8508 20.8011 41.6287 20.6696 41.3826 20.6344C41.1364 20.5993 40.8864 20.6633 40.6875 20.8125L36.9375 23.625C36.7386 23.7742 36.6071 23.9963 36.5719 24.2424C36.5368 24.4886 36.6008 24.7386 36.75 24.9375Z" fill="white"/>
<path d="M45.9375 27C45.9153 26.8757 45.8681 26.7572 45.7989 26.6516C45.7297 26.5459 45.6398 26.4554 45.5348 26.3854C45.4297 26.3153 45.3116 26.2672 45.1875 26.244C45.0634 26.2207 44.9358 26.2227 44.8125 26.25L40.125 27.1875C40.0019 27.1998 39.8824 27.2362 39.7734 27.2947C39.6644 27.3532 39.5679 27.4326 39.4896 27.5284C39.3313 27.7217 39.2564 27.9701 39.2813 28.2187C39.3062 28.4674 39.4288 28.6959 39.6222 28.8542C39.8156 29.0124 40.0639 29.0873 40.3125 29.0625H40.5L45.1875 28.125C45.3118 28.1027 45.4303 28.0555 45.536 27.9863C45.6416 27.9171 45.7321 27.8273 45.8022 27.7222C45.8722 27.6172 45.9203 27.499 45.9436 27.3749C45.9668 27.2508 45.9648 27.1233 45.9375 27Z" fill="white"/>
<path d="M2.8125 27.1875H14.0625C14.3111 27.1875 14.5496 27.0887 14.7254 26.9129C14.9012 26.7371 15 26.4986 15 26.25V11.25C15 11.0014 14.9012 10.7629 14.7254 10.5871C14.5496 10.4113 14.3111 10.3125 14.0625 10.3125H2.8125C2.56386 10.3125 2.3254 10.4113 2.14959 10.5871C1.97377 10.7629 1.875 11.0014 1.875 11.25V26.25C1.875 26.4986 1.97377 26.7371 2.14959 26.9129C2.3254 27.0887 2.56386 27.1875 2.8125 27.1875ZM3.75 12.1875H13.125V25.3125H3.75V12.1875Z" fill="white"/>
<path d="M10.3125 14.0625H8.4375C8.18886 14.0625 7.9504 14.1613 7.77459 14.3371C7.59877 14.5129 7.5 14.7514 7.5 15C7.5 15.2486 7.59877 15.4871 7.77459 15.6629C7.9504 15.8387 8.18886 15.9375 8.4375 15.9375H10.3125C10.5611 15.9375 10.7996 15.8387 10.9754 15.6629C11.1512 15.4871 11.25 15.2486 11.25 15C11.25 14.7514 11.1512 14.5129 10.9754 14.3371C10.7996 14.1613 10.5611 14.0625 10.3125 14.0625Z" fill="white"/>
<path d="M10.3125 17.8125H6.5625C6.31386 17.8125 6.0754 17.9113 5.89959 18.0871C5.72377 18.2629 5.625 18.5014 5.625 18.75C5.625 18.9986 5.72377 19.2371 5.89959 19.4129C6.0754 19.5887 6.31386 19.6875 6.5625 19.6875H10.3125C10.5611 19.6875 10.7996 19.5887 10.9754 19.4129C11.1512 19.2371 11.25 18.9986 11.25 18.75C11.25 18.5014 11.1512 18.2629 10.9754 18.0871C10.7996 17.9113 10.5611 17.8125 10.3125 17.8125Z" fill="white"/>
<path d="M10.3125 21.5625H6.5625C6.31386 21.5625 6.0754 21.6613 5.89959 21.8371C5.72377 22.0129 5.625 22.2514 5.625 22.5C5.625 22.7486 5.72377 22.9871 5.89959 23.1629C6.0754 23.3387 6.31386 23.4375 6.5625 23.4375H10.3125C10.5611 23.4375 10.7996 23.3387 10.9754 23.1629C11.1512 22.9871 11.25 22.7486 11.25 22.5C11.25 22.2514 11.1512 22.0129 10.9754 21.8371C10.7996 21.6613 10.5611 21.5625 10.3125 21.5625Z" fill="white"/>
<path d="M33.8625 26.9062C33.801 26.7991 33.7189 26.7052 33.6211 26.6298C33.5232 26.5544 33.4114 26.499 33.2922 26.4668C33.1729 26.4346 33.0485 26.4262 32.926 26.4421C32.8034 26.4579 32.6853 26.4978 32.5782 26.5593C32.471 26.6209 32.3771 26.703 32.3017 26.8008C32.2263 26.8987 32.1709 27.0104 32.1387 27.1297C32.1065 27.249 32.0981 27.3734 32.114 27.4959C32.1299 27.6184 32.1697 27.7366 32.2313 27.8437L36.3657 34.9969L21.3657 40.6219C21.3657 40.6219 21.3656 40.6219 21.3 40.6219H21.225L18.7875 42.0281L17.1656 42.9656C16.9521 43.089 16.7164 43.1691 16.4718 43.2013C16.2273 43.2335 15.9788 43.2171 15.7407 43.1531C15.2622 43.0238 14.8543 42.7104 14.6063 42.2812L12.7313 39.0375C12.5107 38.6131 12.4606 38.1204 12.5913 37.6603C12.722 37.2003 13.0236 36.8075 13.4344 36.5625L16.6782 34.6875L19.0219 38.7469C19.1045 38.8899 19.2234 39.0086 19.3667 39.0909C19.5099 39.1732 19.6723 39.2163 19.8375 39.2156C20.0024 39.2163 20.1645 39.1734 20.3076 39.0914C20.4506 39.0094 20.5695 38.8911 20.6522 38.7485C20.7349 38.6058 20.7786 38.4439 20.7788 38.279C20.7789 38.1142 20.7356 37.9521 20.6532 37.8094L18.2344 33.6281L30 23.925L30.3844 24.5906C30.446 24.6977 30.528 24.7916 30.6259 24.867C30.7237 24.9424 30.8355 24.9978 30.9547 25.03C31.074 25.0622 31.1985 25.0707 31.321 25.0548C31.4435 25.0389 31.5617 24.999 31.6688 24.9375C31.7759 24.8759 31.8698 24.7939 31.9452 24.696C32.0206 24.5981 32.076 24.4864 32.1082 24.3671C32.1404 24.2479 32.1488 24.1234 32.1329 24.0009C32.1171 23.8784 32.0772 23.7602 32.0157 23.6531L31.0782 22.0312C31.0094 21.9138 30.916 21.8127 30.8043 21.735C30.6926 21.6573 30.5653 21.6048 30.4313 21.5812C30.2965 21.5558 30.1579 21.5603 30.025 21.5943C29.8922 21.6283 29.7685 21.6911 29.6625 21.7781L16.5375 32.5968L12.5438 34.9031C11.8271 35.3206 11.269 35.9638 10.9569 36.7323C10.6447 37.5007 10.5962 38.351 10.8188 39.15L9.88128 39.6844C9.39823 39.9617 9.00844 40.3763 8.76131 40.8755C8.51418 41.3747 8.42085 41.9361 8.49316 42.4884C8.56546 43.0407 8.80014 43.5591 9.16743 43.9779C9.53473 44.3966 10.0181 44.6969 10.5563 44.8406C10.7949 44.9038 11.0407 44.9353 11.2875 44.9343C11.7807 44.9323 12.2651 44.8032 12.6938 44.5593L13.6313 44.025C14.0816 44.4902 14.648 44.8268 15.2719 45C15.5923 45.0896 15.9236 45.1338 16.2563 45.1312C16.9152 45.1327 17.5626 44.958 18.1313 44.625L18.9469 44.1562L20.8219 47.4093C21.1945 48.0536 21.8073 48.5239 22.526 48.7172C23.2447 48.9105 24.0108 48.811 24.6563 48.4406C24.9765 48.2561 25.2573 48.0102 25.4824 47.7171C25.7076 47.4241 25.8728 47.0895 25.9686 46.7325C26.0644 46.3755 26.0888 46.0031 26.0406 45.6367C25.9924 45.2702 25.8724 44.9169 25.6875 44.5968L23.9813 41.625L38.0438 36.3468C38.1713 36.2989 38.2869 36.2238 38.3824 36.1266C38.4779 36.0295 38.5511 35.9127 38.5969 35.7843C38.6425 35.6576 38.6603 35.5224 38.649 35.3881C38.6376 35.2538 38.5975 35.1236 38.5313 35.0062L33.8625 26.9062ZM11.7188 42.9281C11.612 42.9898 11.4941 43.0299 11.3719 43.046C11.2496 43.062 11.1254 43.0539 11.0063 43.0218C10.7661 42.9595 10.5604 42.8044 10.4344 42.5906C10.3727 42.4838 10.3326 42.366 10.3165 42.2437C10.3005 42.1214 10.3086 41.9972 10.3407 41.8781C10.3727 41.7584 10.4281 41.6462 10.5037 41.548C10.5793 41.4499 10.6737 41.3677 10.7813 41.3062L11.5969 40.8375L12.5344 42.4593L11.7188 42.9281ZM24.0563 45.5531C24.118 45.6599 24.158 45.7777 24.1741 45.9C24.1902 46.0223 24.182 46.1465 24.15 46.2656C24.0832 46.5039 23.9248 46.7061 23.7094 46.8281C23.4953 46.9511 23.2412 46.9847 23.0025 46.9215C22.7638 46.8583 22.5596 46.7034 22.4344 46.4906L20.5594 43.2375L22.1157 42.3468H22.1907L24.0563 45.5531Z" fill="white"/>
</svg>
