<svg width="60" height="60" viewBox="0 0 60 60" fill="none" xmlns="http://www.w3.org/2000/svg">
<g clip-path="url(#clip0_2_290)">
<path d="M50.1 12.428L44.928 9.283C44.6313 9.10324 44.2921 9.00563 43.9452 9.00018C43.5983 8.99473 43.2562 9.08164 42.954 9.252C42.6653 9.40967 42.4243 9.64219 42.2564 9.92514C42.0886 10.2081 42 10.531 42 10.86V17.14C41.9998 17.4686 42.0882 17.7913 42.2559 18.0739C42.4237 18.3565 42.6645 18.5887 42.953 18.746C43.2554 18.9166 43.5977 19.0039 43.9449 18.9988C44.2921 18.9937 44.6317 18.8964 44.929 18.717L50.1 15.572C50.3732 15.4105 50.5997 15.1806 50.757 14.905C50.9142 14.6293 50.997 14.3174 50.997 14C50.997 13.6826 50.9142 13.3707 50.757 13.095C50.5997 12.8194 50.3732 12.5895 50.1 12.428ZM44 16.964V11.064L48.84 14L44 16.964Z" fill="#CC0444"/>
<path d="M3 28H25C25.7957 28 26.5587 27.6839 27.1213 27.1213C27.6839 26.5587 28 25.7957 28 25V3C28 2.20435 27.6839 1.44129 27.1213 0.87868C26.5587 0.316071 25.7957 0 25 0L3 0C2.20435 0 1.44129 0.316071 0.87868 0.87868C0.316071 1.44129 0 2.20435 0 3L0 25C0 25.7957 0.316071 26.5587 0.87868 27.1213C1.44129 27.6839 2.20435 28 3 28ZM25 26H3C2.73478 26 2.48043 25.8946 2.29289 25.7071C2.10536 25.5196 2 25.2652 2 25V22.543L8.613 16.207C8.75334 16.0724 8.94068 15.9979 9.13513 15.9994C9.32957 16.0009 9.51575 16.0783 9.654 16.215L14.015 20.583L12.246 22.277C12.1511 22.3677 12.0749 22.4763 12.0219 22.5965C11.9689 22.7166 11.9401 22.8461 11.9372 22.9774C11.9312 23.2426 12.0307 23.4993 12.214 23.691C12.3973 23.8828 12.6492 23.9939 12.9144 23.9999C13.1796 24.0059 13.4363 23.9063 13.628 23.723L16.134 21.323L21.486 16.2C21.6252 16.0671 21.811 15.9939 22.0034 15.9962C22.1959 15.9984 22.3799 16.0759 22.516 16.212L26 19.693V25C26 25.2652 25.8946 25.5196 25.7071 25.7071C25.5196 25.8946 25.2652 26 25 26ZM3 2H25C25.2652 2 25.5196 2.10536 25.7071 2.29289C25.8946 2.48043 26 2.73478 26 3V16.866L23.93 14.8C23.4224 14.2959 22.7382 14.0098 22.0229 14.0025C21.3076 13.9952 20.6177 14.2674 20.1 14.761L15.462 19.2L11.062 14.8C10.5549 14.293 9.86899 14.0054 9.15195 13.9991C8.43492 13.9927 7.74404 14.2681 7.228 14.766L2 19.774V3C2 2.73478 2.10536 2.48043 2.29289 2.29289C2.48043 2.10536 2.73478 2 3 2Z" fill="#CC0444"/>
<path d="M57 0H35C34.2044 0 33.4413 0.316071 32.8787 0.87868C32.3161 1.44129 32 2.20435 32 3V25C32 25.7957 32.3161 26.5587 32.8787 27.1213C33.4413 27.6839 34.2044 28 35 28H57C57.7957 28 58.5587 27.6839 59.1213 27.1213C59.6839 26.5587 60 25.7957 60 25V3C60 2.20435 59.6839 1.44129 59.1213 0.87868C58.5587 0.316071 57.7957 0 57 0ZM58 25C58 25.2652 57.8946 25.5196 57.7071 25.7071C57.5196 25.8946 57.2652 26 57 26H35C34.7348 26 34.4804 25.8946 34.2929 25.7071C34.1054 25.5196 34 25.2652 34 25V3C34 2.73478 34.1054 2.48043 34.2929 2.29289C34.4804 2.10536 34.7348 2 35 2H57C57.2652 2 57.5196 2.10536 57.7071 2.29289C57.8946 2.48043 58 2.73478 58 3V25Z" fill="#CC0444"/>
<path d="M3 60H25C25.7957 60 26.5587 59.6839 27.1213 59.1213C27.6839 58.5587 28 57.7957 28 57V35C28 34.2044 27.6839 33.4413 27.1213 32.8787C26.5587 32.3161 25.7957 32 25 32H3C2.20435 32 1.44129 32.3161 0.87868 32.8787C0.316071 33.4413 0 34.2044 0 35L0 57C0 57.7957 0.316071 58.5587 0.87868 59.1213C1.44129 59.6839 2.20435 60 3 60ZM2 35C2 34.7348 2.10536 34.4804 2.29289 34.2929C2.48043 34.1054 2.73478 34 3 34H25C25.2652 34 25.5196 34.1054 25.7071 34.2929C25.8946 34.4804 26 34.7348 26 35V57C26 57.2652 25.8946 57.5196 25.7071 57.7071C25.5196 57.8946 25.2652 58 25 58H3C2.73478 58 2.48043 57.8946 2.29289 57.7071C2.10536 57.5196 2 57.2652 2 57V35Z" fill="#CC0444"/>
<path d="M57 32H35C34.2044 32 33.4413 32.3161 32.8787 32.8787C32.3161 33.4413 32 34.2044 32 35V57C32 57.7957 32.3161 58.5587 32.8787 59.1213C33.4413 59.6839 34.2044 60 35 60H57C57.7957 60 58.5587 59.6839 59.1213 59.1213C59.6839 58.5587 60 57.7957 60 57V35C60 34.2044 59.6839 33.4413 59.1213 32.8787C58.5587 32.3161 57.7957 32 57 32ZM58 57C58 57.2652 57.8946 57.5196 57.7071 57.7071C57.5196 57.8946 57.2652 58 57 58H35C34.7348 58 34.4804 57.8946 34.2929 57.7071C34.1054 57.5196 34 57.2652 34 57V35C34 34.7348 34.1054 34.4804 34.2929 34.2929C34.4804 34.1054 34.7348 34 35 34H57C57.2652 34 57.5196 34.1054 57.7071 34.2929C57.8946 34.4804 58 34.7348 58 35V57Z" fill="#CC0444"/>
<path d="M7.5 11C8.19224 11 8.86892 10.7947 9.4445 10.4101C10.0201 10.0256 10.4687 9.47894 10.7336 8.83939C10.9985 8.19985 11.0678 7.49612 10.9327 6.81719C10.7977 6.13825 10.4644 5.51461 9.97487 5.02513C9.48539 4.53564 8.86175 4.2023 8.18282 4.06725C7.50388 3.9322 6.80015 4.00152 6.16061 4.26642C5.52107 4.53133 4.97444 4.97993 4.58986 5.55551C4.20527 6.13108 4 6.80777 4 7.5C4 8.42826 4.36875 9.3185 5.02513 9.97488C5.6815 10.6313 6.57174 11 7.5 11ZM7.5 6C7.79667 6 8.08668 6.08798 8.33336 6.2528C8.58003 6.41762 8.77229 6.65189 8.88582 6.92598C8.99935 7.20007 9.02906 7.50167 8.97118 7.79264C8.9133 8.08361 8.77044 8.35088 8.56066 8.56066C8.35088 8.77044 8.08361 8.9133 7.79264 8.97118C7.50166 9.02906 7.20006 8.99935 6.92598 8.88582C6.65189 8.77229 6.41762 8.58003 6.2528 8.33336C6.08797 8.08668 6 7.79667 6 7.5C6 7.10218 6.15804 6.72065 6.43934 6.43934C6.72064 6.15804 7.10218 6 7.5 6Z" fill="#CC0444"/>
<path d="M16 12H20C20.7195 12.0002 21.4151 11.7418 21.96 11.2719C22.5048 10.802 22.8627 10.152 22.9683 9.44025C23.0739 8.72855 22.9201 8.00261 22.5352 7.39478C22.1502 6.78695 21.5596 6.33772 20.871 6.129C20.6843 5.51297 20.3044 4.97334 19.7874 4.58983C19.2704 4.20632 18.6437 3.99927 18 3.99927C17.3563 3.99927 16.7297 4.20632 16.2127 4.58983C15.6957 4.97334 15.3157 5.51297 15.129 6.129C14.4405 6.33772 13.8498 6.78695 13.4649 7.39478C13.0799 8.00261 12.9262 8.72855 13.0318 9.44025C13.1373 10.152 13.4952 10.802 14.0401 11.2719C14.5849 11.7418 15.2805 12.0002 16 12ZM16 8C16.2652 8 16.5196 7.89465 16.7071 7.70711C16.8947 7.51957 17 7.26522 17 7C17 6.73479 17.1054 6.48043 17.2929 6.2929C17.4804 6.10536 17.7348 6 18 6C18.2652 6 18.5196 6.10536 18.7071 6.2929C18.8947 6.48043 19 6.73479 19 7C19 7.26522 19.1054 7.51957 19.2929 7.70711C19.4804 7.89465 19.7348 8 20 8C20.2652 8 20.5196 8.10536 20.7071 8.2929C20.8947 8.48043 21 8.73479 21 9C21 9.26522 20.8947 9.51957 20.7071 9.70711C20.5196 9.89465 20.2652 10 20 10H16C15.7348 10 15.4804 9.89465 15.2929 9.70711C15.1054 9.51957 15 9.26522 15 9C15 8.73479 15.1054 8.48043 15.2929 8.2929C15.4804 8.10536 15.7348 8 16 8Z" fill="#CC0444"/>
<path d="M46 4C44.0222 4 42.0888 4.58649 40.4443 5.6853C38.7998 6.78412 37.5181 8.3459 36.7612 10.1732C36.0043 12.0004 35.8063 14.0111 36.1922 15.9509C36.578 17.8907 37.5304 19.6725 38.9289 21.0711C40.3275 22.4696 42.1093 23.422 44.0491 23.8079C45.9889 24.1937 47.9996 23.9957 49.8268 23.2388C51.6541 22.4819 53.2159 21.2002 54.3147 19.5557C55.4135 17.9112 56 15.9778 56 14C55.9971 11.3487 54.9426 8.80688 53.0679 6.93215C51.1931 5.05742 48.6513 4.00291 46 4ZM46 22C44.4178 22 42.871 21.5308 41.5554 20.6518C40.2399 19.7727 39.2145 18.5233 38.609 17.0615C38.0035 15.5997 37.845 13.9911 38.1537 12.4393C38.4624 10.8874 39.2243 9.46197 40.3432 8.34315C41.462 7.22433 42.8874 6.4624 44.4393 6.15372C45.9911 5.84504 47.5997 6.00346 49.0615 6.60896C50.5233 7.21447 51.7727 8.23984 52.6518 9.55544C53.5308 10.871 54 12.4177 54 14C53.9976 16.121 53.154 18.1544 51.6542 19.6542C50.1545 21.154 48.121 21.9976 46 22Z" fill="#CC0444"/>
<path d="M8 56C9.06087 56 10.0783 55.5786 10.8284 54.8284C11.5786 54.0783 12 53.0609 12 52V44.847L22 43.18V46.556C21.3947 46.1961 20.7043 46.0042 20 46C19.2089 46 18.4355 46.2346 17.7777 46.6741C17.1199 47.1137 16.6072 47.7384 16.3045 48.4693C16.0017 49.2002 15.9225 50.0045 16.0769 50.7804C16.2312 51.5563 16.6122 52.269 17.1716 52.8284C17.731 53.3879 18.4437 53.7688 19.2196 53.9232C19.9956 54.0775 20.7998 53.9983 21.5307 53.6955C22.2616 53.3928 22.8864 52.8801 23.3259 52.2223C23.7654 51.5645 24 50.7911 24 50V39.361C24.0001 38.9253 23.9053 38.4947 23.7222 38.0993C23.539 37.7039 23.2719 37.3532 22.9395 37.0715C22.6071 36.7898 22.2172 36.5839 21.7972 36.4681C21.3771 36.3523 20.9368 36.3294 20.507 36.401L12.507 37.735C11.8057 37.85 11.1683 38.2109 10.7089 38.7531C10.2496 39.2953 9.99824 39.9834 10 40.694V48.556C9.39465 48.1961 8.70425 48.0042 8 48C6.93913 48 5.92172 48.4214 5.17157 49.1716C4.42143 49.9217 4 50.9392 4 52C4 53.0609 4.42143 54.0783 5.17157 54.8284C5.92172 55.5786 6.93913 56 8 56ZM20 52C19.6044 52 19.2178 51.8827 18.8889 51.663C18.56 51.4432 18.3036 51.1308 18.1522 50.7654C18.0009 50.3999 17.9613 49.9978 18.0384 49.6098C18.1156 49.2219 18.3061 48.8655 18.5858 48.5858C18.8655 48.3061 19.2219 48.1156 19.6098 48.0384C19.9978 47.9613 20.3999 48.0009 20.7654 48.1523C21.1308 48.3036 21.4432 48.56 21.6629 48.8889C21.8827 49.2178 22 49.6045 22 50C22 50.5304 21.7893 51.0392 21.4142 51.4142C21.0391 51.7893 20.5304 52 20 52ZM12 40.694C12.0001 40.4573 12.0842 40.2283 12.2373 40.0478C12.3903 39.8672 12.6025 39.7468 12.836 39.708L20.836 38.374C20.9793 38.3502 21.126 38.3579 21.266 38.3965C21.406 38.4351 21.536 38.5038 21.6467 38.5978C21.7575 38.6917 21.8465 38.8086 21.9075 38.9404C21.9685 39.0723 22.0001 39.2158 22 39.361V41.153L12 42.819V40.694ZM8 50C8.39556 50 8.78224 50.1173 9.11114 50.3371C9.44004 50.5568 9.69638 50.8692 9.84776 51.2347C9.99913 51.6001 10.0387 52.0022 9.96157 52.3902C9.8844 52.7782 9.69392 53.1345 9.41421 53.4142C9.13451 53.6939 8.77814 53.8844 8.39018 53.9616C8.00222 54.0388 7.60009 53.9991 7.23463 53.8478C6.86918 53.6964 6.55682 53.4401 6.33706 53.1112C6.1173 52.7823 6 52.3956 6 52C6 51.4696 6.21071 50.9609 6.58579 50.5858C6.96086 50.2107 7.46957 50 8 50Z" fill="#CC0444"/>
<path d="M53 36H39C38.2043 36 37.4413 36.3161 36.8786 36.8787C36.316 37.4413 36 38.2044 36 39V40.95C35.9968 41.2811 36.0829 41.6069 36.2492 41.8932C36.4155 42.1795 36.6558 42.4157 36.945 42.577C37.2361 42.7408 37.5656 42.824 37.8996 42.8181C38.2336 42.8121 38.5599 42.7171 38.845 42.543C39.4994 42.1664 40.2453 41.9785 41 42H43V50C42.4695 50 41.9608 50.2107 41.5857 50.5858C41.2107 50.9609 41 51.4696 41 52V54C41 54.5304 41.2107 55.0391 41.5857 55.4142C41.9608 55.7893 42.4695 56 43 56H49C49.5304 56 50.0391 55.7893 50.4142 55.4142C50.7893 55.0391 51 54.5304 51 54V52C51 51.4696 50.7893 50.9609 50.4142 50.5858C50.0391 50.2107 49.5304 50 49 50V42H51C51.7575 41.978 52.5063 42.1666 53.163 42.545C53.4473 42.7173 53.7722 42.8111 54.1046 42.8167C54.437 42.8223 54.765 42.7396 55.055 42.577C55.3441 42.4157 55.5844 42.1795 55.7507 41.8932C55.917 41.6069 56.0031 41.2811 56 40.95V39C56 38.2044 55.6839 37.4413 55.1213 36.8787C54.5587 36.3161 53.7956 36 53 36ZM54 40.719C53.0776 40.2276 52.0449 39.9801 51 40H48C47.7347 40 47.4804 40.1054 47.2929 40.2929C47.1053 40.4804 47 40.7348 47 41V51C47 51.2652 47.1053 51.5196 47.2929 51.7071C47.4804 51.8946 47.7347 52 48 52H49V54H43V52H44C44.2652 52 44.5195 51.8946 44.7071 51.7071C44.8946 51.5196 45 51.2652 45 51V41C45 40.7348 44.8946 40.4804 44.7071 40.2929C44.5195 40.1054 44.2652 40 44 40H41C39.955 39.9796 38.9222 40.2271 38 40.719V39C38 38.7348 38.1053 38.4804 38.2929 38.2929C38.4804 38.1054 38.7347 38 39 38H53C53.2652 38 53.5195 38.1054 53.7071 38.2929C53.8946 38.4804 54 38.7348 54 39V40.719Z" fill="#CC0444"/>
</g>
<defs>
<clipPath id="clip0_2_290">
<rect width="60" height="60" fill="white"/>
</clipPath>
</defs>
</svg>
