<svg width="60" height="60" viewBox="0 0 60 60" fill="none" xmlns="http://www.w3.org/2000/svg">
<path d="M57.2986 29.4202L54.5859 26.7075C54.5102 26.6292 54.4197 26.5667 54.3196 26.5237C54.2195 26.4807 54.1119 26.4581 54.003 26.4572C53.894 26.4563 53.786 26.4771 53.6852 26.5183C53.5844 26.5596 53.4928 26.6205 53.4158 26.6976C53.3388 26.7746 53.2779 26.8662 53.2367 26.967C53.1955 27.0678 53.1747 27.1759 53.1757 27.2848C53.1767 27.3937 53.1993 27.5013 53.2423 27.6014C53.2854 27.7015 53.3479 27.792 53.4262 27.8677L54.7387 29.1801H41.5542C41.3783 26.6797 40.3926 24.3045 38.7464 22.4142L48.0745 13.0861V14.9419C48.0745 15.1594 48.1609 15.3681 48.3148 15.5219C48.4686 15.6758 48.6773 15.7622 48.8948 15.7622C49.1124 15.7622 49.321 15.6758 49.4749 15.5219C49.6287 15.3681 49.7151 15.1594 49.7151 14.9419V11.1094C49.715 10.8918 49.6285 10.6833 49.4747 10.5295C49.3209 10.3756 49.1123 10.2892 48.8948 10.2891H45.0567C44.8391 10.2891 44.6305 10.3755 44.4766 10.5293C44.3228 10.6832 44.2364 10.8918 44.2364 11.1094C44.2364 11.3269 44.3228 11.5356 44.4766 11.6894C44.6305 11.8433 44.8391 11.9297 45.0567 11.9297H46.9125L37.5844 21.2578C35.695 19.6106 33.3206 18.6237 30.8203 18.4462V5.26124L32.1328 6.57374C32.2085 6.65208 32.299 6.71455 32.3991 6.75752C32.4992 6.80049 32.6068 6.8231 32.7158 6.82403C32.8247 6.82495 32.9327 6.80417 33.0335 6.76291C33.1343 6.72164 33.2259 6.66071 33.3029 6.58368C33.3799 6.50664 33.4408 6.41504 33.482 6.31422C33.5232 6.21339 33.544 6.10537 33.543 5.99645C33.542 5.88753 33.5194 5.77989 33.4764 5.67982C33.4334 5.57975 33.3708 5.48924 33.2925 5.41359L30.5798 2.7014C30.5037 2.62518 30.4133 2.56471 30.3138 2.52345C30.2143 2.48219 30.1077 2.46095 30 2.46095C29.8923 2.46095 29.7856 2.48219 29.6861 2.52345C29.5866 2.56471 29.4962 2.62518 29.4201 2.7014L26.7075 5.41359C26.6291 5.48924 26.5666 5.57975 26.5236 5.67982C26.4806 5.77989 26.4579 5.88753 26.457 5.99645C26.456 6.10537 26.4767 6.21339 26.518 6.31422C26.5592 6.41504 26.6201 6.50664 26.6971 6.58368C26.7741 6.66071 26.8657 6.72164 26.9665 6.76291C27.0673 6.80417 27.1753 6.82495 27.2842 6.82403C27.3931 6.8231 27.5008 6.80049 27.6009 6.75752C27.7009 6.71455 27.7915 6.65208 27.8672 6.57374L29.1797 5.26124V18.4462C26.6792 18.622 24.3041 19.6075 22.4137 21.2536L13.0856 11.9255H14.9414C15.1589 11.9255 15.3676 11.839 15.5214 11.6852C15.6753 11.5314 15.7617 11.3227 15.7617 11.1052C15.7617 10.8876 15.6753 10.6789 15.5214 10.5251C15.3676 10.3713 15.1589 10.2848 14.9414 10.2848H11.1094C10.8918 10.2848 10.6831 10.3713 10.5293 10.5251C10.3755 10.6789 10.289 10.8876 10.289 11.1052V14.9409C10.289 15.1585 10.3755 15.3671 10.5293 15.521C10.6831 15.6748 10.8918 15.7612 11.1094 15.7612C11.3269 15.7612 11.5356 15.6748 11.6894 15.521C11.8432 15.3671 11.9297 15.1585 11.9297 14.9409V13.087L21.2578 22.4152C19.6116 24.3055 18.6259 26.6806 18.45 29.1811H5.2617L6.5742 27.8686C6.65256 27.7929 6.71507 27.7024 6.75808 27.6024C6.8011 27.5023 6.82375 27.3946 6.82472 27.2857C6.82568 27.1768 6.80495 27.0688 6.76372 26.968C6.7225 26.8671 6.66161 26.7755 6.5846 26.6985C6.5076 26.6215 6.41602 26.5605 6.31521 26.5193C6.21441 26.478 6.10639 26.4572 5.99747 26.4581C5.88855 26.4591 5.78091 26.4817 5.68082 26.5247C5.58073 26.5676 5.4902 26.6301 5.41451 26.7084L2.70139 29.4202C2.62516 29.4963 2.56469 29.5866 2.52343 29.6861C2.48217 29.7856 2.46094 29.8923 2.46094 30C2.46094 30.1077 2.48217 30.2144 2.52343 30.3139C2.56469 30.4134 2.62516 30.5037 2.70139 30.5798L5.41404 33.2925C5.56878 33.4419 5.77601 33.5245 5.9911 33.5226C6.20618 33.5207 6.41191 33.4344 6.56397 33.2823C6.71603 33.1301 6.80226 32.9244 6.80409 32.7093C6.80591 32.4942 6.72319 32.287 6.57373 32.1323L5.26123 30.8198H18.4458C18.6217 33.3203 19.6073 35.6955 21.2536 37.5858L11.9254 46.9139V45.0572C11.9254 44.8396 11.839 44.631 11.6852 44.4771C11.5313 44.3233 11.3227 44.2369 11.1051 44.2369C10.8876 44.2369 10.6789 44.3233 10.5251 44.4771C10.3712 44.631 10.2848 44.8396 10.2848 45.0572V48.893C10.2848 49.1105 10.3712 49.3192 10.5251 49.473C10.6789 49.6268 10.8876 49.7133 11.1051 49.7133H14.9414C15.1589 49.7133 15.3676 49.6268 15.5214 49.473C15.6753 49.3192 15.7617 49.1105 15.7617 48.893C15.7617 48.6754 15.6753 48.4668 15.5214 48.3129C15.3676 48.1591 15.1589 48.0727 14.9414 48.0727H13.0875L22.4156 38.7445C24.3052 40.3909 26.6797 41.3771 29.1797 41.5537V54.7387L27.8672 53.4262C27.7124 53.2768 27.5052 53.1942 27.2901 53.1961C27.075 53.198 26.8693 53.2843 26.7172 53.4365C26.5652 53.5886 26.4789 53.7944 26.4771 54.0094C26.4753 54.2245 26.558 54.4317 26.7075 54.5864L29.4201 57.2986C29.4962 57.3748 29.5866 57.4353 29.6861 57.4765C29.7856 57.5178 29.8923 57.539 30 57.539C30.1077 57.539 30.2143 57.5178 30.3138 57.4765C30.4133 57.4353 30.5037 57.3748 30.5798 57.2986L33.2925 54.5864C33.3708 54.5107 33.4334 54.4202 33.4764 54.3202C33.5194 54.2201 33.542 54.1125 33.543 54.0035C33.544 53.8946 33.5232 53.7866 33.482 53.6858C33.4408 53.585 33.3799 53.4933 33.3029 53.4163C33.2259 53.3393 33.1343 53.2783 33.0335 53.2371C32.9327 53.1958 32.8247 53.175 32.7158 53.176C32.6068 53.1769 32.4992 53.1995 32.3991 53.2425C32.299 53.2854 32.2085 53.3479 32.1328 53.4262L30.8203 54.7387V41.5537C33.3207 41.3779 35.6958 40.3924 37.5862 38.7464L46.9144 48.0745H45.0567C44.8391 48.0745 44.6305 48.161 44.4766 48.3148C44.3228 48.4686 44.2364 48.6773 44.2364 48.8948C44.2364 49.1124 44.3228 49.321 44.4766 49.4749C44.6305 49.6287 44.8391 49.7151 45.0567 49.7151H48.8929C49.1105 49.715 49.319 49.6286 49.4729 49.4747C49.6267 49.3209 49.7131 49.1124 49.7133 48.8948V45.0572C49.7133 44.8396 49.6268 44.631 49.473 44.4771C49.3192 44.3233 49.1105 44.2369 48.8929 44.2369C48.6754 44.2369 48.4667 44.3233 48.3129 44.4771C48.1591 44.631 48.0726 44.8396 48.0726 45.0572V46.913L38.7445 37.5848C40.3907 35.6945 41.3764 33.3194 41.5523 30.8189H54.7364L53.4239 32.1314C53.3455 32.2071 53.283 32.2976 53.24 32.3976C53.197 32.4977 53.1743 32.6053 53.1734 32.7143C53.1724 32.8232 53.1931 32.9312 53.2344 33.032C53.2756 33.1328 53.3365 33.2244 53.4135 33.3015C53.4905 33.3785 53.5821 33.4395 53.6829 33.4807C53.7837 33.522 53.8917 33.5428 54.0006 33.5418C54.1095 33.5409 54.2172 33.5183 54.3173 33.4753C54.4174 33.4324 54.5079 33.3699 54.5836 33.2916L57.2962 30.5789C57.3725 30.5028 57.4329 30.4124 57.4742 30.3129C57.5154 30.2134 57.5367 30.1068 57.5367 29.9991C57.5367 29.8913 57.5154 29.7847 57.4742 29.6852C57.4329 29.5857 57.3725 29.4953 57.2962 29.4192L57.2986 29.4202ZM30 39.9455C28.033 39.9454 26.1102 39.362 24.4747 38.2691C22.8392 37.1762 21.5646 35.6229 20.8119 33.8056C20.0592 31.9883 19.8623 29.9886 20.2461 28.0594C20.6299 26.1302 21.5772 24.3582 22.9681 22.9673C24.359 21.5765 26.1311 20.6293 28.0604 20.2456C29.9896 19.8619 31.9893 20.0589 33.8065 20.8116C35.6238 21.5644 37.177 22.8391 38.2698 24.4746C39.3626 26.1101 39.9459 28.033 39.9459 30C39.9428 32.6368 38.8939 35.1648 37.0294 37.0292C35.1648 38.8937 32.6368 39.9425 30 39.9455Z" fill="#CC0444"/>
<path d="M35.362 29.2664L26.7524 24.9614C26.6274 24.8989 26.4884 24.8695 26.3488 24.8758C26.2092 24.8821 26.0735 24.924 25.9546 24.9975C25.8357 25.071 25.7375 25.1736 25.6694 25.2957C25.6014 25.4178 25.5656 25.5552 25.5656 25.695V34.305C25.5655 34.4448 25.6011 34.5823 25.6692 34.7045C25.7372 34.8266 25.8354 34.9294 25.9544 35.0029C26.0733 35.0764 26.2091 35.1183 26.3487 35.1245C26.4884 35.1308 26.6274 35.1012 26.7524 35.0386L35.362 30.7336C35.4983 30.6656 35.613 30.5609 35.6931 30.4313C35.7733 30.3017 35.8158 30.1524 35.8158 30C35.8158 29.8476 35.7733 29.6983 35.6931 29.5687C35.613 29.4391 35.4983 29.3344 35.362 29.2664ZM27.2057 32.9775V27.0244L33.1612 30L27.2057 32.9775Z" fill="#CC0444"/>
</svg>
