<?xml version="1.0" encoding="UTF-8"?>
<svg id="Layer_2" data-name="Layer 2" xmlns="http://www.w3.org/2000/svg" viewBox="0 0 677.98 467.58">
  <g id="Plant">
    <path d="m174.09,331.54v2.82c0,1.46-1.25,2.45-1.04,2.66,1.62.42,2.97-5.22,1.3-5.22" fill="#fff"/>
    <path d="m166.32,333.1c1.15.73,3.76-4.12,2.5-4.64,0,0-2.4,4.49-2.5,4.64" fill="#fff"/>
    <g>
      <path d="m107.82,447.93c21.67-17.73,24.47-47.55,21.41-73.9-.51-4.4-.4-9.09-2.84-12.78-2.44-3.69-7.62-5.93-11.47-3.74-3.19,1.81-4.33,5.74-5.93,9.05-2.13,4.4-5.52,8.17-9.67,10.74-2.73,1.69-6.17,2.87-9.11,1.57-4.03-1.78-4.91-7-5.24-11.39-.62-8.18-1.23-16.36-1.85-24.54-.33-4.39-.68-8.87-2.41-12.92-1.72-4.05-5.09-7.66-9.42-8.49-4.32-.82-9.36,2.02-9.9,6.38-.23,1.82.3,3.64.32,5.47.03,1.83-.67,3.92-2.38,4.57-1.73.66-3.61-.44-5.05-1.61-4.95-4.05-8.53-9.5-11.9-14.93-3.37-5.43-6.67-11.01-11.23-15.5-4.56-4.49-10.63-7.84-17.02-7.67-6.39.17-12.86,4.61-13.96,10.91-1.11,6.32,3.06,12.29,7.45,16.97,6.51,6.94,14.03,12.93,22.24,17.73,1.48.87,3.09,1.8,3.76,3.38,1.2,2.84-1.37,5.98-4.21,7.18-3.23,1.36-6.85,1.32-10.28,2.01-3.43.69-7.06,2.51-8.11,5.85-1.45,4.64,2.73,9.02,6.72,11.79,7.99,5.55,16.94,9.71,26.32,12.26,3.37.91,6.89,1.66,9.71,3.71,2.82,2.05,4.74,5.86,3.4,9.08-1.34,3.23-5.35,4.55-8.82,4.21-3.48-.34-6.69-1.93-10.05-2.87-6.29-1.77-14.15-.71-17.63,4.83-2.29,3.64-2.13,8.42-.49,12.4,1.63,3.98,4.56,7.27,7.62,10.28,10.72,10.53,23.99,18.62,38.56,22.3,14.57,3.68,27.8,3.91,41.46-2.33" fill="#ebebeb"/>
      <path d="m109.72,467.5c-1.83-10.38-5.17-22.55-10.23-35.54-5.03-13-11.75-26.8-19.27-41-1.89-3.54-3.77-7.04-5.61-10.49-1.85-3.44-3.68-6.85-5.68-10.07-3.98-6.47-8.3-12.39-12.58-17.88-4.28-5.5-8.55-10.56-12.57-15.27-4.03-4.7-7.88-9.01-11.55-12.79-7.32-7.59-13.95-13.01-18.66-16.55-2.35-1.78-4.22-3.1-5.49-3.98-.62-.42-1.1-.75-1.46-.99-.33-.22-.51-.32-.51-.32,0,0,.15.14.47.37.34.25.81.6,1.42,1.05,1.25.92,3.09,2.27,5.41,4.08,4.65,3.6,11.21,9.06,18.47,16.67,3.64,3.79,7.46,8.11,11.47,12.82,4,4.72,8.25,9.79,12.5,15.28,4.26,5.49,8.56,11.4,12.51,17.85,1.99,3.21,3.81,6.6,5.66,10.05,1.84,3.45,3.71,6.95,5.61,10.49,7.52,14.19,14.24,27.96,19.29,40.92,5.08,12.95,8.45,25.06,10.34,35.4" fill="#e0e0e0"/>
      <path d="m68.75,370.34s.13-.68.25-1.91c.12-1.23.25-3.02.38-5.23.26-4.42.41-10.53.57-17.28.15-6.75.41-12.84.77-17.25.17-2.2.33-3.98.46-5.21.12-1.23.17-1.91.12-1.92-.04,0-.18.67-.38,1.89-.21,1.22-.44,3-.67,5.2-.48,4.4-.81,10.52-.96,17.27-.14,6.68-.27,12.73-.37,17.27-.07,2.12-.12,3.87-.17,5.23-.04,1.24-.04,1.92,0,1.92Z" fill="#e0e0e0"/>
      <path d="m10.75,364.51s.21.04.6.05c.47,0,1.03,0,1.7,0,1.48,0,3.61-.01,6.26.07,5.28.11,12.57.53,20.59,1.35,8.02.83,15.24,1.9,20.44,2.83,2.6.45,4.7.87,6.15,1.15.66.13,1.21.23,1.67.32.38.07.59.09.59.07,0-.02-.19-.09-.56-.2-.45-.12-.99-.27-1.65-.44-1.43-.36-3.52-.85-6.12-1.36-5.19-1.05-12.42-2.19-20.46-3.03-8.04-.82-15.35-1.16-20.65-1.16-2.65-.02-4.79.06-6.27.14-.67.05-1.23.09-1.7.12-.39.04-.59.06-.59.09Z" fill="#e0e0e0"/>
      <path d="m98.77,430.96s.13-.24.32-.72c.21-.55.47-1.26.8-2.13.69-1.85,1.61-4.54,2.72-7.89,2.21-6.69,4.99-16.03,7.92-26.37,2.93-10.34,5.63-19.69,7.73-26.41,1.04-3.3,1.9-5.99,2.52-7.95.28-.88.5-1.6.68-2.16.15-.5.22-.76.19-.77-.02,0-.13.24-.32.73-.21.55-.47,1.26-.8,2.12-.69,1.85-1.61,4.54-2.72,7.89-2.22,6.69-4.99,16.03-7.92,26.37-2.93,10.34-5.63,19.68-7.73,26.4-1.04,3.29-1.9,5.99-2.52,7.95-.28.88-.5,1.6-.68,2.16-.15.5-.22.76-.19.77Z" fill="#e0e0e0"/>
      <path d="m20.87,413.07s.27.1.78.23c.59.14,1.34.31,2.27.53,2.05.47,4.89,1.12,8.35,1.91,7.05,1.62,16.75,3.97,27.47,6.6,10.72,2.63,20.45,4.91,27.53,6.41,3.54.75,6.41,1.33,8.4,1.7.94.17,1.7.31,2.29.41.53.09.8.12.81.1,0-.02-.27-.1-.78-.23-.59-.14-1.34-.31-2.27-.53-2.05-.47-4.88-1.11-8.35-1.91-7.05-1.62-16.76-3.97-27.48-6.6-10.72-2.63-20.45-4.91-27.53-6.41-3.54-.75-6.41-1.33-8.4-1.7-.94-.17-1.7-.31-2.29-.41-.53-.09-.8-.12-.81-.1Z" fill="#e0e0e0"/>
    </g>
    <g>
      <g>
        <rect x="209.32" y="15.75" width="118.24" height="79.7" transform="translate(-4.64 79.7) rotate(-16.74)" fill="#fff"/>
        <path d="m336.54,76.73s-.17-.48-.46-1.39c-.29-.94-.71-2.28-1.25-4.03-1.09-3.55-2.68-8.73-4.7-15.35-4.03-13.26-9.82-32.28-16.86-55.45l.41.22c-31.24,9.42-70.58,21.29-113.2,34.14h0s.27-.51.27-.51c8.17,27.21,15.94,53.07,22.93,76.33l-.46-.25c33.33-9.95,61.61-18.39,81.58-24.35,9.99-2.96,17.9-5.31,23.35-6.92,2.7-.79,4.79-1.4,6.23-1.83.69-.2,1.23-.35,1.62-.46.37-.1.57-.15.57-.15,0,0-.16.06-.51.18-.38.12-.89.28-1.56.49-1.42.44-3.47,1.07-6.13,1.89-5.41,1.65-13.28,4.05-23.21,7.09-20,6.07-48.33,14.65-81.71,24.78l-.36.11-.11-.36c-7.01-23.25-14.8-49.11-23-76.31l-.12-.39.39-.12h0C242.88,21.28,282.23,9.48,313.48.09l.31-.09.09.31c6.93,23.3,12.63,42.42,16.59,55.75,1.95,6.61,3.48,11.78,4.52,15.32.5,1.73.89,3.07,1.16,3.99.26.9.37,1.35.37,1.35Z" fill="#e0e0e0"/>
      </g>
      <path d="m313.58.41s-.04.12-.16.34c-.14.26-.32.58-.53.97-.51.9-1.22,2.14-2.11,3.7-1.9,3.26-4.58,7.88-7.9,13.58-6.78,11.5-16.12,27.34-26.54,45l-.18.3-.32-.12c-1.1-.43-2.28-.88-3.47-1.34-19.89-7.76-37.89-14.78-51-19.89-6.46-2.56-11.72-4.65-15.42-6.12-1.77-.72-3.16-1.29-4.18-1.7-.44-.19-.79-.34-1.08-.46-.24-.11-.36-.17-.36-.18,0-.01.14.02.39.11.29.1.66.23,1.11.39,1.03.38,2.44.9,4.23,1.56,3.73,1.41,9.01,3.41,15.51,5.87,13.13,5.05,31.16,12,51.09,19.67,1.19.46,2.37.92,3.47,1.34l-.5.17c10.5-17.61,19.92-33.41,26.75-44.87,3.41-5.64,6.17-10.22,8.12-13.45.94-1.53,1.69-2.74,2.24-3.62.24-.38.44-.68.6-.93.14-.21.22-.31.23-.3Z" fill="#e0e0e0"/>
    </g>
    <g>
      <path d="m643,305.25s-7.34-7.27-21.66,10.89c-14.33,18.16-20.55,29.04-20.55,29.04,0,0-3.57,3.69-5.92.34-2.36-3.35-4.78-11.99-10-11.56-5.42.44-8.25,5.83-8.95,14.43-.7,8.6-2.92,27.4-3.13,29.1-.2,1.67-1.63,3.9-3.6,1.88s-12.19-19.27-20.09-13.93c-7.89,5.34-5.9,29.63-5.73,32.29.17,2.66-.54,3.64-1.87,4.03-1.32.39-4.21-5.74-7.32-10.52-3.11-4.79-7.55-9.79-11.85-6.33-4.3,3.46-8.84,20.48,1.99,51.76l5.97,14.16,15.28,2.17c32.99,2.66,48.33-6,50.61-11.03,2.28-5.03-3.68-8.08-9.09-9.89-5.41-1.81-12.06-3.08-12.02-4.46s.81-2.31,3.43-2.81c2.62-.5,26.63-4.65,29.83-13.63,3.2-8.98-16.06-14.56-18.51-15.96-2.45-1.4-.65-3.34.92-3.95,1.59-.63,19.23-7.48,27.39-10.31,8.16-2.83,12.66-6.92,11.74-12.27-.89-5.17-9.87-5.35-13.7-6.79-3.83-1.44-1.15-5.82-1.15-5.82,0,0,8.97-8.75,22.97-27.16,14-18.42,4.87-23.79,4.87-23.79" fill="#ebebeb"/>
      <path d="m630.14,321.49s-.07.14-.25.4c-.21.29-.47.66-.8,1.12-.75,1.02-1.8,2.44-3.14,4.25-2.73,3.68-6.73,8.97-11.71,15.49-9.94,13.04-23.85,30.91-39.3,50.58-15.41,19.68-29.36,37.49-39.49,50.44-5,6.44-9.06,11.66-11.91,15.33-1.39,1.77-2.48,3.16-3.26,4.15-.36.44-.64.79-.86,1.07-.2.24-.31.36-.32.35-.01,0,.07-.14.25-.4.21-.29.47-.66.8-1.12.75-1.02,1.8-2.44,3.13-4.25,2.73-3.68,6.73-8.97,11.71-15.49,9.94-13.04,23.86-30.91,39.31-50.59,15.4-19.67,29.35-37.49,39.49-50.43,5-6.44,9.06-11.66,11.91-15.33,1.39-1.77,2.48-3.16,3.26-4.16.36-.44.64-.79.86-1.07.2-.24.31-.36.32-.35Z" fill="#e0e0e0"/>
      <path d="m587.76,346.19c.11,0,.35,1.56.58,4.1.23,2.55.44,6.07.58,9.96.1,3.74.19,7.13.27,9.96.06,2.55.11,4.12,0,4.13-.11.01-.37-1.56-.57-4.1-.21-2.55-.37-6.07-.51-9.96-.13-3.74-.24-7.12-.34-9.96-.09-2.55-.12-4.13,0-4.14Z" fill="#e0e0e0"/>
      <path d="m590.52,374.89c-.02-.22,7.22-1.01,16.17-1.76,8.95-.75,16.22-1.17,16.24-.95.02.22-7.22,1.01-16.17,1.76-8.95.75-16.22,1.17-16.24.95Z" fill="#e0e0e0"/>
      <path d="m564.53,405.1c.03-.11,1.61.18,4.17.67,2.56.48,6.08,1.16,10,1.78,3.92.63,7.48,1.1,10.06,1.44,2.58.34,4.18.55,4.17.67,0,.11-1.62.09-4.23-.1-2.6-.19-6.19-.57-10.13-1.2-3.94-.63-7.46-1.4-10-2.02-2.53-.64-4.07-1.13-4.05-1.23Z" fill="#e0e0e0"/>
      <path d="m556.32,379.68c.11-.04.68,1.34,1.52,3.6.84,2.26,1.94,5.39,3.12,8.87,1.17,3.48,2.19,6.65,2.89,8.95s1.08,3.75.97,3.78c-.11.04-.68-1.34-1.52-3.6-.84-2.26-1.95-5.39-3.12-8.88-1.17-3.48-2.19-6.65-2.89-8.95-.7-2.3-1.08-3.75-.97-3.78Z" fill="#e0e0e0"/>
      <path d="m529.99,403.43c.11-.04.83,1.73,1.91,4.62,1.08,2.89,2.53,6.9,4.07,11.35,1.55,4.45,2.9,8.49,3.85,11.43.94,2.94,1.47,4.77,1.37,4.81-.11.04-.83-1.73-1.91-4.62s-2.53-6.9-4.07-11.35c-1.55-4.45-2.9-8.49-3.85-11.42-.94-2.94-1.47-4.77-1.37-4.81Z" fill="#e0e0e0"/>
      <path d="m541.14,434.79c.02-.12,2.05.19,5.31.7,3.26.51,7.77,1.21,12.76,1.87,4.99.67,9.53,1.17,12.81,1.52,3.28.36,5.32.59,5.31.71,0,.11-2.06.08-5.36-.13-3.3-.21-7.86-.62-12.87-1.29-5.01-.66-9.51-1.46-12.76-2.11-3.24-.66-5.23-1.16-5.21-1.27Z" fill="#e0e0e0"/>
    </g>
    <g>
      <rect x="555.69" y="168.93" width="121.51" height="88.79" transform="translate(384.4 822.97) rotate(-88.25)" fill="#f5f5f5"/>
      <g>
        <g>
          <rect x="539.34" y="185.06" width="121.51" height="88.79" transform="translate(352.43 822.27) rotate(-88.25)" fill="#fff"/>
          <path d="m642.61,291.54s0-.21,0-.6c0-.41.02-.98.03-1.72.04-1.53.09-3.75.16-6.64.15-5.81.38-14.26.66-24.95.61-21.37,1.47-51.69,2.49-87.57l.36.38c-26.73-.8-56.91-1.71-88.74-2.67h-.01s.42-.4.42-.4c-1.41,45.36-2.72,87.36-3.78,121.45l-.32-.34c26.85.89,48.99,1.63,64.45,2.14,7.73.27,13.78.49,17.93.63,2.05.08,3.63.14,4.72.18,1.07.04,1.64.09,1.64.09,0,0-.52,0-1.57-.01-1.08-.02-2.64-.06-4.66-.1-4.14-.11-10.16-.26-17.86-.46-15.51-.43-37.73-1.05-64.67-1.8h-.33s.01-.34.01-.34c1.02-34.09,2.28-76.09,3.63-121.45v-.41s.42.01.42.01h.01c31.83.99,62.01,1.92,88.74,2.75h.37s-.01.38-.01.38c-1.17,35.97-2.16,66.37-2.86,87.8-.37,10.65-.66,19.07-.86,24.86-.11,2.85-.19,5.05-.24,6.56-.03.72-.06,1.27-.07,1.68-.02.37-.04.55-.04.55Z" fill="#e0e0e0"/>
        </g>
        <path d="m611.66,195.49c0,.23-9.67.11-21.58-.25-11.91-.36-21.56-.84-21.55-1.07,0-.23,9.67-.11,21.58.25,11.91.36,21.56.84,21.55,1.07Z" fill="#e0e0e0"/>
        <path d="m634.66,206.75c0,.23-14.89-.05-33.24-.61-18.36-.56-33.22-1.2-33.22-1.42s14.89.05,33.24.61c18.35.56,33.22,1.2,33.21,1.42Z" fill="#e0e0e0"/>
        <path d="m634.33,217.76c0,.23-14.89-.05-33.24-.61-18.36-.56-33.22-1.2-33.22-1.42,0-.23,14.89.05,33.24.61,18.35.56,33.22,1.2,33.21,1.42Z" fill="#e0e0e0"/>
        <path d="m633.99,228.77c0,.23-14.89-.05-33.24-.61-18.36-.56-33.22-1.2-33.22-1.42,0-.23,14.89.05,33.24.61,18.35.56,33.22,1.2,33.21,1.42Z" fill="#e0e0e0"/>
        <path d="m633.66,239.78c0,.23-14.89-.05-33.24-.61-18.36-.56-33.22-1.2-33.22-1.42,0-.23,14.89.05,33.24.61,18.35.56,33.22,1.2,33.21,1.42Z" fill="#e0e0e0"/>
        <path d="m633.32,250.79c0,.23-14.89-.05-33.24-.61-18.36-.56-33.22-1.2-33.22-1.42,0-.23,14.89.05,33.24.61,18.35.56,33.22,1.2,33.21,1.42Z" fill="#e0e0e0"/>
        <path d="m632.98,261.8c0,.23-14.89-.05-33.24-.61-18.36-.56-33.22-1.2-33.22-1.42,0-.23,14.89.05,33.24.61,18.35.56,33.22,1.2,33.21,1.42Z" fill="#e0e0e0"/>
        <path d="m601.91,271.88c0,.23-8.01.16-17.87-.14-9.87-.3-17.86-.73-17.85-.95,0-.22,8.01-.16,17.87.14,9.86.3,17.85.73,17.85.95Z" fill="#e0e0e0"/>
      </g>
    </g>
    <g>
      <g>
        <rect x="374.85" y="91.94" width="75.07" height="93.9" transform="translate(130.8 470.65) rotate(-68.29)" fill="#fff"/>
        <path d="m469.89,121.39s-.15-.05-.42-.16c-.28-.11-.69-.27-1.22-.48-1.08-.43-2.67-1.05-4.74-1.87-4.14-1.64-10.19-4.03-17.86-7.07-15.33-6.08-37.13-14.74-63.05-25.03l.18-.08c-8.26,20.76-17.73,44.56-27.75,69.75h0s-.09-.2-.09-.2c32.3,12.87,62.31,24.83,87.23,34.76l-.17.07c8.4-21.01,15.35-38.42,20.22-50.59,2.44-6.09,4.35-10.86,5.66-14.12.65-1.63,1.16-2.87,1.5-3.72.34-.84.52-1.28.52-1.28,0,0-.16.43-.49,1.26-.33.84-.82,2.08-1.46,3.7-1.29,3.26-3.18,8.03-5.58,14.11-4.84,12.2-11.76,29.65-20.12,50.72l-.05.12-.12-.05c-24.93-9.92-54.95-21.86-87.25-34.71l-.15-.06.06-.15h0c10.03-25.19,19.51-48.99,27.78-69.74l.05-.13.13.05c25.93,10.36,47.75,19.07,63.08,25.19,7.65,3.06,13.68,5.48,17.81,7.13,2.05.83,3.63,1.46,4.7,1.89.53.21.93.38,1.2.49.27.11.4.17.4.17Z" fill="#e0e0e0"/>
      </g>
      <rect x="379.46" y="95.28" width="65.62" height="87.31" transform="translate(130.69 470.57) rotate(-68.29)" fill="#ebebeb"/>
      <polygon points="359.9 153.46 403.32 126.84 411.43 157.54 428.38 149.6 441.02 185.75 359.9 153.46" fill="#e0e0e0"/>
      <path d="m430.17,132.15c-1.4,3.53-5.4,5.25-8.93,3.84-3.53-1.4-5.25-5.4-3.84-8.93,1.4-3.53,5.4-5.25,8.93-3.84,3.53,1.4,5.25,5.4,3.84,8.93Z" fill="#e0e0e0"/>
    </g>
    <g>
      <path d="m155.14,198.61c.01-.07.6.41,1.86.31.61-.08,1.37-.35,2-1,.6-.65,1.03-1.68,1.65-2.7,2.43-4.23,5.89-10.28,10.16-17.73,1.08-1.87,2.21-3.83,3.38-5.87.59-1.02,1.19-2.06,1.8-3.12.29-.54.66-1.06.83-1.57.17-.53.19-1.12.05-1.67-.15-.55-.46-1.05-.9-1.42-.42-.34-1.07-.64-1.62-.96-1.14-.64-2.31-1.29-3.48-1.95-2.36-1.32-4.78-2.68-7.27-4.07-9.95-5.58-20.88-11.72-32.35-18.16-1.26-.74-3.01-.26-3.8.95-.82,1.39-1.63,2.78-2.43,4.15-1.61,2.77-3.2,5.5-4.76,8.18-3.13,5.36-6.14,10.53-9.02,15.46-.36.62-.72,1.23-1.07,1.84-.36.56-.52,1.16-.5,1.79.03.62.25,1.22.64,1.68.36.48.95.74,1.55,1.09,2.35,1.33,4.63,2.62,6.84,3.87,4.41,2.5,8.52,4.83,12.27,6.96,7.46,4.26,13.5,7.71,17.74,10.13,2.05,1.19,3.66,2.12,4.8,2.79.51.31.92.55,1.24.74.28.17.42.27.41.28,0,.01-.16-.06-.45-.21-.33-.17-.75-.39-1.28-.67-1.16-.63-2.8-1.52-4.88-2.66-4.27-2.36-10.36-5.74-17.87-9.9-3.77-2.1-7.9-4.4-12.32-6.87-2.21-1.24-4.5-2.52-6.86-3.84-.55-.32-1.27-.63-1.76-1.25-.5-.59-.78-1.34-.81-2.12-.04-.76.2-1.57.6-2.19.35-.61.71-1.22,1.06-1.84,2.86-4.94,5.86-10.11,8.97-15.48,1.56-2.68,3.14-5.42,4.75-8.19.81-1.39,1.63-2.79,2.46-4.21,1-1.53,3.23-2.16,4.88-1.2,11.46,6.46,22.38,12.61,32.32,18.21,2.48,1.4,4.9,2.77,7.25,4.1,1.18.66,2.33,1.32,3.47,1.97.57.35,1.13.58,1.72,1.05.55.46.93,1.1,1.11,1.77.17.68.15,1.4-.07,2.05-.23.67-.6,1.16-.89,1.7-.62,1.06-1.23,2.09-1.82,3.11-1.19,2.03-2.33,3.98-3.43,5.84-4.36,7.39-7.9,13.39-10.38,17.6-.65,1.02-1.07,2-1.76,2.71-.69.68-1.51.94-2.15.99-.65.04-1.14-.1-1.44-.23-.3-.13-.43-.24-.43-.24Z" fill="#e0e0e0"/>
      <polygon points="146.86 166.51 150.81 173.52 142.67 173.67 134.52 173.82 138.72 166.66 142.92 159.5 146.86 166.51" fill="#e0e0e0"/>
    </g>
    <path d="m677.98,465.1c0,.24-149.79.43-334.53.43s-334.56-.19-334.56-.43,149.76-.43,334.56-.43,334.53.19,334.53.43Z" fill="#263238"/>
    <g>
      <g>
        <path d="m174.5,365.6l-47.29-47.49,23.78-43.67c23.78-30.43,74.1-28.47,74.1-28.47,0,0,34.25-3.3,74.22,4.48,39.98,7.78,36.76,34.23,36.76,34.23l5.36,97.99,5.74,79.79-147.44,2.97-25.22-99.84" fill="#5b9cd5"/>
        <path d="m253.92,460.85l-132.06,1.62c-31.74.39-52.91-32.6-39.33-61.29l56.47-104.72,51.43,34.77-35.08,72.81,106.91,1.91-8.34,54.9Z" fill="#5b9cd5"/>
        <path d="m331.34,268.78l105.98,163.62-61.83,4.04s-36.92-58.19-36.09-56.98c1.51,2.18-8.06-110.68-8.06-110.68Z" fill="#5b9cd5"/>
        <path d="m187.78,340.63s.02-.3.15-.84c.15-.63.34-1.41.56-2.37.49-2.06,1.2-5.03,1.95-8.74.74-3.7,1.53-8.13,2.07-13.09.5-4.95.81-10.46.06-16.14-.84-5.66-2.97-10.78-5.47-15.06-2.5-4.3-5.31-7.82-7.87-10.59-2.55-2.77-4.81-4.84-6.42-6.21-1.6-1.38-2.52-2.11-2.48-2.16.02-.02.26.13.72.46.45.33,1.14.79,1.96,1.46,1.68,1.3,4,3.31,6.64,6.06,2.63,2.74,5.52,6.26,8.09,10.6,2.57,4.32,4.77,9.53,5.63,15.33.77,5.79.43,11.35-.12,16.33-.59,4.99-1.44,9.43-2.26,13.13-.82,3.7-1.62,6.66-2.21,8.7-.29,1.02-.53,1.8-.71,2.33-.17.53-.28.8-.31.8Z" fill="#263238"/>
        <path d="m183.53,346.27c.05.02-.27.86-.91,2.37-.63,1.5-1.58,3.66-2.78,6.32-2.39,5.31-5.8,12.61-9.72,20.59-3.92,7.99-7.61,15.14-10.35,20.29-1.37,2.57-2.5,4.64-3.3,6.06-.8,1.42-1.27,2.19-1.32,2.17-.05-.03.32-.85,1.03-2.31.79-1.59,1.82-3.67,3.07-6.18,2.65-5.34,6.2-12.48,10.13-20.38,3.85-7.93,7.32-15.11,9.92-20.48,1.22-2.52,2.24-4.61,3.01-6.21.72-1.46,1.15-2.26,1.2-2.23Z" fill="#263238"/>
        <path d="m253.92,460.85s0-.09,0-.28c.02-.22.04-.48.07-.8.08-.76.18-1.8.31-3.12.31-2.78.74-6.75,1.29-11.75,1.17-10.12,2.82-24.38,4.76-41.19l.37.42c-11.88.01-25.1.02-39.01.03-26.63-.05-50.74-.09-68.25-.12-8.69-.05-15.74-.1-20.68-.13-2.4-.03-4.28-.06-5.62-.08-.61-.02-1.09-.03-1.46-.04-.33-.01-.5-.03-.5-.04s.17-.03.5-.04c.37-.01.86-.02,1.46-.04,1.34-.02,3.22-.04,5.62-.08,4.94-.03,11.99-.08,20.68-.13,17.51-.03,41.62-.07,68.25-.12,13.91.01,27.13.02,39.01.03h.42s-.05.42-.05.42c-2.06,16.79-3.81,31.04-5.05,41.15-.64,4.99-1.15,8.95-1.5,11.72-.18,1.32-.32,2.35-.43,3.11-.05.32-.09.58-.13.8-.03.18-.05.27-.06.27Z" fill="#263238"/>
        <path d="m156.28,405.16c-.11.07-1.01-1.27-2.63-3.3-1.62-2.03-4.03-4.69-7.05-7.25-3.03-2.55-6.06-4.48-8.33-5.73-2.27-1.26-3.74-1.92-3.69-2.05.03-.09,1.59.39,3.96,1.53,2.37,1.14,5.51,3.03,8.59,5.62,3.07,2.6,5.46,5.38,6.98,7.52,1.53,2.14,2.26,3.6,2.18,3.65Z" fill="#263238"/>
        <path d="m343.61,415.52s-.1-.46-.21-1.35c-.11-.96-.26-2.26-.44-3.9-.36-3.39-.85-8.29-1.37-14.36-1.07-12.13-2.31-28.91-3.41-47.46-1.1-18.56-1.86-35.36-2.3-47.53-.23-6.08-.37-11.01-.45-14.41-.03-1.65-.05-2.95-.07-3.92,0-.9,0-1.37.03-1.37.03,0,.07.47.13,1.36.05.97.13,2.27.22,3.92.17,3.48.41,8.38.7,14.4.59,12.16,1.45,28.96,2.54,47.51,1.1,18.54,2.25,35.32,3.17,47.46.46,6.01.84,10.9,1.11,14.38.12,1.64.22,2.95.29,3.91.06.89.07,1.37.05,1.37Z" fill="#263238"/>
        <path d="m225.73,326.49s.02-.76.17-2.14c.18-1.49.42-3.48.72-5.92.69-5.17,1.63-12.25,2.72-20.45l.61.37c-3.16,2.21-6.58,4.61-10.13,7.09-3.62,2.52-7.1,4.94-10.31,7.17l-.74.52.14-.89c1.24-8.13,2.32-15.15,3.1-20.27.4-2.41.72-4.37.97-5.85.24-1.36.39-2.09.44-2.09.04,0-.02.75-.18,2.12-.19,1.48-.44,3.45-.74,5.88-.71,5.13-1.68,12.16-2.81,20.31l-.61-.37c3.2-2.24,6.68-4.67,10.29-7.2,3.56-2.48,6.99-4.86,10.15-7.06l.74-.51-.13.89c-1.21,8.18-2.25,15.25-3.01,20.41-.39,2.43-.7,4.41-.94,5.89-.23,1.37-.38,2.11-.43,2.1Z" fill="#e0e0e0"/>
        <path d="m284.66,332.84s-.57-.5-1.54-1.5c-1.03-1.09-2.41-2.55-4.1-4.34-3.54-3.83-8.38-9.08-13.99-15.16l.67-.23c-.32,3.84-.66,8-1.02,12.33-.38,4.39-.74,8.62-1.08,12.51l-.08.9-.6-.67c-5.46-6.15-10.17-11.46-13.61-15.34-1.6-1.85-2.9-3.35-3.88-4.48-.89-1.05-1.36-1.64-1.33-1.67.03-.03.57.5,1.52,1.49,1.02,1.09,2.38,2.54,4.05,4.33,3.49,3.83,8.28,9.07,13.82,15.15l-.68.23c.32-3.89.67-8.12,1.04-12.51.37-4.32.73-8.49,1.06-12.32l.08-.9.6.67c5.52,6.16,10.29,11.48,13.77,15.36,1.62,1.85,2.94,3.36,3.93,4.49.9,1.06,1.38,1.64,1.35,1.67Z" fill="#e0e0e0"/>
        <path d="m314.33,330.74s-.34.68-1.06,1.86c-.8,1.27-1.86,2.97-3.17,5.05-2.82,4.39-6.69,10.39-11.17,17.35l-.39-.6c3.8-.65,7.91-1.37,12.19-2.1,4.35-.74,8.53-1.44,12.38-2.1l.89-.15-.5.75c-4.59,6.83-8.55,12.72-11.44,17.02-1.39,2.01-2.52,3.65-3.36,4.88-.8,1.13-1.24,1.73-1.28,1.7-.04-.03.34-.67,1.07-1.85.8-1.26,1.87-2.94,3.18-5,2.83-4.34,6.71-10.29,11.2-17.18l.39.6c-3.85.66-8.03,1.39-12.37,2.14-4.28.72-8.4,1.42-12.2,2.07l-.89.15.5-.75c4.58-6.89,8.53-12.84,11.41-17.19,1.39-2.03,2.51-3.69,3.36-4.93.79-1.14,1.24-1.75,1.28-1.72Z" fill="#e0e0e0"/>
        <path d="m274.88,361.09s-.34.68-1.06,1.86c-.8,1.27-1.86,2.97-3.17,5.05-2.82,4.39-6.69,10.39-11.17,17.35l-.39-.6c3.8-.65,7.91-1.37,12.19-2.1,4.35-.74,8.53-1.44,12.38-2.1l.89-.15-.5.75c-4.59,6.83-8.55,12.72-11.44,17.02-1.39,2.01-2.52,3.65-3.36,4.88-.8,1.13-1.24,1.73-1.28,1.7-.04-.02.34-.67,1.07-1.85.8-1.26,1.87-2.94,3.18-5,2.83-4.34,6.71-10.29,11.2-17.18l.39.6c-3.85.66-8.03,1.39-12.37,2.14-4.28.72-8.4,1.42-12.2,2.07l-.89.15.5-.75c4.58-6.89,8.53-12.84,11.41-17.19,1.39-2.03,2.51-3.69,3.36-4.93.79-1.14,1.24-1.75,1.28-1.72Z" fill="#e0e0e0"/>
        <path d="m360.11,330.31s-.34.68-1.06,1.86c-.8,1.27-1.86,2.97-3.17,5.05-2.82,4.39-6.69,10.39-11.17,17.35l-.39-.6c3.8-.65,7.91-1.37,12.19-2.1,4.35-.74,8.53-1.44,12.38-2.1l.89-.15-.5.75c-4.59,6.83-8.55,12.72-11.44,17.02-1.39,2.01-2.52,3.65-3.36,4.88-.8,1.13-1.24,1.73-1.28,1.7-.04-.03.34-.67,1.07-1.85.8-1.26,1.87-2.94,3.18-5,2.83-4.34,6.71-10.29,11.2-17.18l.39.6c-3.85.66-8.03,1.39-12.37,2.13-4.28.72-8.4,1.42-12.2,2.07l-.89.15.5-.75c4.58-6.89,8.53-12.84,11.41-17.19,1.39-2.03,2.51-3.69,3.36-4.93.79-1.14,1.24-1.75,1.28-1.72Z" fill="#e0e0e0"/>
        <path d="m160.52,305.24s-.34.68-1.06,1.86c-.8,1.27-1.86,2.97-3.17,5.05-2.82,4.39-6.69,10.39-11.17,17.35l-.39-.6c3.8-.65,7.91-1.37,12.19-2.1,4.35-.74,8.53-1.44,12.38-2.1l.89-.15-.5.75c-4.59,6.83-8.55,12.72-11.44,17.02-1.39,2.01-2.52,3.65-3.36,4.88-.8,1.13-1.24,1.73-1.28,1.7-.04-.02.34-.67,1.07-1.85.8-1.26,1.87-2.94,3.18-5,2.83-4.34,6.71-10.29,11.2-17.18l.39.6c-3.85.66-8.03,1.39-12.37,2.13-4.28.72-8.4,1.42-12.2,2.07l-.89.15.5-.75c4.58-6.89,8.53-12.84,11.41-17.19,1.39-2.03,2.51-3.69,3.36-4.93.79-1.14,1.24-1.75,1.28-1.72Z" fill="#e0e0e0"/>
        <path d="m98.6,422.34s.54.53,1.44,1.59c.96,1.16,2.24,2.69,3.82,4.58,3.29,4.05,7.8,9.59,13.02,16.01l-.69.19c.56-3.81,1.16-7.95,1.79-12.24.65-4.36,1.28-8.55,1.85-12.42l.13-.89.55.71c5.06,6.48,9.43,12.08,12.62,16.16,1.48,1.94,2.69,3.52,3.59,4.71.83,1.11,1.25,1.72,1.22,1.75-.04.03-.53-.53-1.42-1.59-.95-1.15-2.21-2.69-3.77-4.57-3.25-4.04-7.7-9.57-12.85-15.98l.69-.18c-.56,3.87-1.18,8.06-1.82,12.42-.64,4.29-1.26,8.42-1.83,12.23l-.13.89-.56-.7c-5.13-6.49-9.56-12.1-12.79-16.19-1.5-1.95-2.72-3.53-3.64-4.73-.84-1.11-1.27-1.72-1.24-1.75Z" fill="#e0e0e0"/>
        <path d="m240.01,346.52s-.74.14-2.13.27c-1.5.13-3.49.3-5.94.51-5.2.39-12.33.92-20.57,1.53l.24-.67c2.81,2.64,5.86,5.49,9.02,8.46,3.21,3.02,6.29,5.94,9.13,8.62l.66.62-.9.05c-8.21.45-15.3.84-20.47,1.12-2.44.1-4.43.19-5.92.25-1.38.04-2.13.05-2.13,0s.74-.13,2.11-.26c1.49-.12,3.47-.28,5.91-.48,5.17-.36,12.25-.85,20.46-1.41l-.24.67c-2.85-2.67-5.94-5.58-9.16-8.59-3.15-2.98-6.19-5.85-9-8.49l-.65-.62.89-.05c8.26-.5,15.39-.93,20.59-1.24,2.46-.12,4.46-.22,5.96-.29,1.39-.05,2.14-.06,2.15-.01Z" fill="#e0e0e0"/>
        <path d="m205.31,425.46s.55.52,1.47,1.56c.99,1.14,2.3,2.65,3.91,4.51,3.37,3.98,7.98,9.44,13.33,15.75l-.68.2c.48-3.82,1.01-7.97,1.55-12.27.57-4.37,1.11-8.58,1.61-12.45l.12-.9.57.7c5.19,6.38,9.67,11.89,12.93,15.91,1.52,1.91,2.75,3.47,3.68,4.64.85,1.09,1.29,1.69,1.25,1.72-.03.03-.54-.52-1.45-1.56-.97-1.13-2.27-2.64-3.86-4.5-3.33-3.97-7.88-9.42-13.16-15.73l.68-.2c-.49,3.88-1.02,8.09-1.57,12.46-.56,4.3-1.09,8.45-1.59,12.27l-.12.89-.57-.69c-5.25-6.39-9.79-11.91-13.1-15.94-1.54-1.92-2.79-3.48-3.73-4.65-.86-1.09-1.31-1.7-1.27-1.73Z" fill="#e0e0e0"/>
        <path d="m143.29,367.57s-.74.14-2.13.27c-1.5.13-3.49.3-5.94.51-5.2.39-12.33.92-20.57,1.53l.24-.67c2.81,2.64,5.86,5.49,9.02,8.46,3.21,3.03,6.29,5.94,9.13,8.62l.66.62-.9.05c-8.21.45-15.3.84-20.47,1.12-2.44.1-4.43.19-5.92.25-1.38.04-2.13.05-2.13,0,0-.05.74-.13,2.11-.26,1.49-.12,3.47-.28,5.91-.48,5.17-.36,12.25-.85,20.46-1.41l-.24.67c-2.85-2.67-5.94-5.58-9.16-8.59-3.15-2.98-6.19-5.85-9-8.49l-.65-.62.89-.05c8.26-.5,15.39-.93,20.59-1.24,2.46-.12,4.46-.22,5.96-.29,1.39-.05,2.14-.06,2.15-.01Z" fill="#e0e0e0"/>
        <path d="m196.57,423.68s-.74.14-2.13.27c-1.5.13-3.49.3-5.94.51-5.2.39-12.33.92-20.57,1.53l.24-.67c2.81,2.64,5.86,5.49,9.02,8.46,3.21,3.02,6.29,5.94,9.13,8.62l.66.62-.9.05c-8.21.45-15.3.84-20.47,1.12-2.44.1-4.43.19-5.92.25-1.38.04-2.13.05-2.13,0s.74-.13,2.11-.26c1.49-.12,3.47-.28,5.91-.48,5.17-.36,12.25-.85,20.46-1.41l-.24.67c-2.85-2.67-5.94-5.58-9.16-8.59-3.15-2.98-6.19-5.85-9-8.49l-.65-.62.89-.05c8.26-.5,15.39-.93,20.59-1.24,2.46-.12,4.46-.22,5.96-.29,1.39-.05,2.14-.06,2.15-.01Z" fill="#e0e0e0"/>
        <path d="m316.86,280.92s-.74.14-2.13.27c-1.5.13-3.49.3-5.94.51-5.2.39-12.33.92-20.57,1.53l.24-.67c2.81,2.64,5.86,5.49,9.02,8.46,3.21,3.02,6.29,5.94,9.13,8.62l.66.62-.9.05c-8.21.45-15.3.84-20.47,1.12-2.44.1-4.43.19-5.92.25-1.38.04-2.13.05-2.13,0,0-.05.74-.14,2.11-.26,1.49-.12,3.47-.28,5.91-.48,5.17-.36,12.25-.85,20.46-1.41l-.24.67c-2.85-2.67-5.94-5.57-9.16-8.59-3.15-2.98-6.19-5.85-9-8.49l-.65-.62.89-.05c8.26-.5,15.39-.93,20.59-1.24,2.46-.12,4.46-.22,5.96-.29,1.39-.05,2.14-.06,2.15-.01Z" fill="#e0e0e0"/>
      </g>
      <g>
        <path d="m258.35,423.68s26.35-7.59,35.07-9.81c3.4-.87,17.95,6.81,28.01,13.19,0,0,13.84,8.21,12.72,10.74-1.23,2.78-6.34,2.21-14.48-1.62,0,0,2.84,8.25-2.74,8.07,0,0,2.77,8.91-2.46,9.84-5.23.92-6.46-10.45-11.07-11.07-4.61-.61-14.14-1.23-14.14-1.23,0,0-7.94,13.14-14.08,14.06-6.15.92-20.39-.74-20.39-.74l3.56-31.44Z" fill="#ffbe9d"/>
        <path d="m303.32,425.5c.12-.19,3.42,1.67,7.36,4.16,3.95,2.49,7.05,4.66,6.92,4.85-.12.19-3.41-1.67-7.36-4.16-3.94-2.49-7.04-4.66-6.92-4.85Z" fill="#eb996e"/>
        <path d="m301.76,430.56c.09-.2,4.01,1.4,8.74,3.58,4.73,2.18,8.49,4.12,8.4,4.32-.09.2-4.01-1.4-8.74-3.58-4.73-2.18-8.49-4.12-8.4-4.32Z" fill="#eb996e"/>
        <path d="m304.59,442.85c.03-.22,2.69-.04,5.95.4,3.25.45,5.87.99,5.84,1.21-.03.22-2.69.04-5.95-.4-3.25-.45-5.87-.99-5.84-1.21Z" fill="#eb996e"/>
      </g>
      <g>
        <g>
          <path d="m224.07,151.88c.61,2.02-.09,4.37-1.7,5.72-1.61,1.35-4.05,1.64-5.93.68-3.57-1.81-4.02-6.74-3.32-10.68s2.04-8.15.39-11.79c-1.26-2.79-4-4.56-6.14-6.75-3.72-3.82-5.7-9.4-4.8-14.66.9-5.26,4.85-9.99,9.99-11.42,5.25-1.47,11.71.14,15.62-3.65,2.83-2.75,3-7.26,5.19-10.55,3.4-5.1,10.59-5.91,16.66-5.08,6.07.83,12.25,2.78,18.2,1.3,4.97-1.24,9.04-4.71,13.7-6.83,10.09-4.62,22.99-2.12,30.62,5.94,7.64,8.05,9.45,21.06,4.31,30.89-1.85,3.53-4.63,6.74-8.32,8.23" fill="#263238"/>
          <g>
            <path d="m254.29,281.24h0c16.82-.02,30.39-13.78,30.16-30.61l-.4-28.79s24.19-2.42,25.79-26.38c1.6-23.96.45-79.25.45-79.25h0c-27.11-13.44-59.37-11.16-84.31,5.96l-3.7,2.54,1.8,126.77c.23,16.52,13.7,29.78,30.22,29.76Z" fill="#ffbe9d"/>
            <g>
              <path d="m303.93,159.61c-4.26-.84-4.23-6.34.04-7.13.19-.03.4-.03.58,0,4.26.84,4.22,6.34-.04,7.13-.19.03-.4.03-.58,0Z" fill="#263238"/>
              <path d="m308.64,151.95c-.4.39-2.65-1.55-5.96-1.74-3.3-.24-5.79,1.38-6.13.94-.17-.2.25-.93,1.34-1.67,1.07-.73,2.87-1.4,4.93-1.26,2.06.14,3.76,1.04,4.72,1.91.98.88,1.3,1.65,1.1,1.83Z" fill="#263238"/>
            </g>
            <g>
              <path d="m270.43,152.76c1.58,1.1,1.98,3.27.88,4.85-1.1,1.58-3.27,1.98-4.85.88-1.58-1.1-1.98-3.27-.88-4.85,1.1-1.58,3.27-1.98,4.85-.88Z" fill="#263238"/>
              <path d="m272.61,152.91c-.4.39-2.65-1.55-5.96-1.74-3.3-.24-5.79,1.38-6.13.94-.17-.2.25-.93,1.34-1.67,1.07-.73,2.87-1.4,4.93-1.26,2.06.14,3.76,1.04,4.72,1.91.98.88,1.3,1.65,1.1,1.83Z" fill="#263238"/>
            </g>
            <path d="m284.36,180.88c0-.26,2.06-.56,5.4-.84.87-.05,1.56-.21,1.65-.67.18-.51-.1-1.45-.48-2.51-.73-2.23-1.47-4.49-2.25-6.85-3.09-9.76-5.19-17.79-4.69-17.95.5-.16,3.4,7.62,6.49,17.38.73,2.38,1.42,4.65,2.1,6.9.26,1.02.8,2.22.28,3.62-.28.7-.99,1.18-1.56,1.3-.58.14-1.07.12-1.48.11-3.36-.06-5.44-.23-5.45-.49Z" fill="#263238"/>
            <path d="m273.44,183.94c4.23,1.96,9.28,4.4,15.94,5.59,0,0-4.19,5.95-10.97,3.05-7.03-3.02-4.97-8.63-4.97-8.63Z" fill="#fff"/>
            <path d="m284.11,221.49s-15.22.41-30.78-10.59c0,0,6.45,17.66,30.49,16.8l.28-6.22Z" fill="#eb996e"/>
          </g>
          <path d="m310.45,122.26s-14.47,7.36-33.67-1.76c-12.6-5.98-27.2-8.74-30.36-6.17s-3.58,15.44-15.87,19.43c0,0,1.33,24.51-8.47,23.83-9.8-.68-4.42-38.79-4.42-38.79l23.7-12.15,26.01-5.44,24.67,2.99,19.14,4.84-.72,13.23Z" fill="#263238"/>
          <g>
            <path d="m223.87,149.71c-.4-.2-16.21-5.77-16.58,10.65-.37,16.42,16.19,13.41,16.23,12.94.04-.47.35-23.59.35-23.59Z" fill="#ffbe9d"/>
            <path d="m218.65,166.96c-.07-.05-.29.19-.78.4-.48.2-1.29.34-2.14,0-1.72-.68-3.12-3.46-3.13-6.42,0-1.5.34-2.91.89-4.08.53-1.19,1.32-2.01,2.2-2.15.87-.18,1.48.36,1.67.82.21.46.1.79.18.82.05.04.36-.27.24-.95-.06-.33-.24-.72-.62-1.04-.39-.33-.96-.51-1.57-.45-1.27.06-2.43,1.2-3.05,2.48-.68,1.28-1.1,2.88-1.09,4.55.03,3.31,1.66,6.45,4.01,7.19,1.15.33,2.12,0,2.63-.38.52-.39.61-.76.56-.79Z" fill="#eb996e"/>
          </g>
          <path d="m215.51,98.29c-.09-.19,2.61-.96,5.7.21,3.1,1.14,4.64,3.49,4.44,3.57-.18.17-1.87-1.77-4.73-2.81-2.84-1.09-5.39-.73-5.41-.97Z" fill="#263238"/>
          <path d="m225.39,88.46c.29.02-.16,3.46.41,7.57.56,4.14,2.51,7.03,2.29,7.16-.08.06-.68-.58-1.38-1.81-.68-1.23-1.42-3.08-1.72-5.22-.59-4.3.24-7.73.4-7.69Z" fill="#263238"/>
          <path d="m292.87,144.07c-.09-.19.62-.76,1.95-1.3,1.32-.55,3.3-1.01,5.5-.99,2.21.02,4.17.53,5.49,1.1,1.32.57,2.01,1.15,1.92,1.34-.2.43-3.36-.8-7.42-.81-4.06-.07-7.24,1.1-7.44.66Z" fill="#263238"/>
          <path d="m256.25,140.61c-.09-.19.62-.76,1.95-1.3,1.32-.55,3.3-1.01,5.5-.99,2.21.02,4.17.53,5.49,1.1,1.32.57,2.01,1.15,1.92,1.34-.2.43-3.36-.8-7.42-.81-4.06-.07-7.24,1.1-7.44.66Z" fill="#263238"/>
        </g>
        <g>
          <path d="m290.04,146.65s.04.36.06.97c.02.7.05,1.57.08,2.65.02,1.16.05,2.54.09,4.11,0,1.59.1,3.43.78,5.33.65,1.89,1.79,3.83,3.46,5.47,1.69,1.62,3.9,2.97,6.47,3.56,1.28.3,2.63.45,4.01.35,1.37-.06,2.77-.34,4.1-.86,2.68-.98,5.11-2.92,6.75-5.46,1.57-2.43,2.28-5.26,2.2-8.02,0-2.8.01-5.51.02-8.09l.38.38c-8.21-.07-15.23-.14-20.32-.18-2.44-.04-4.42-.08-5.9-.1-.63-.02-1.16-.03-1.6-.05-.37-.02-.57-.03-.58-.05-.03-.03.67-.06,2.01-.09,1.46-.03,3.41-.06,5.82-.1,5.16-.05,12.27-.11,20.57-.18h.38s0,.38,0,.38c0,2.58.01,5.29.02,8.09.09,2.84-.65,5.9-2.32,8.46-1.74,2.7-4.32,4.74-7.16,5.77-1.41.55-2.89.83-4.34.89-1.45.1-2.88-.07-4.22-.4-2.71-.64-5.02-2.09-6.77-3.8-1.74-1.75-2.89-3.79-3.53-5.77-.67-1.99-.73-3.9-.69-5.55.03-1.61.06-3.02.09-4.22.03-1.06.06-1.93.08-2.61.02-.59.04-.88.06-.86Z" fill="#263238"/>
          <path d="m251.65,145.84s.04.36.06.97c.02.7.05,1.57.08,2.65.02,1.16.05,2.54.09,4.11,0,1.59.1,3.43.78,5.33.65,1.89,1.79,3.83,3.46,5.47,1.69,1.62,3.9,2.97,6.47,3.56,1.28.3,2.63.45,4.01.35,1.37-.06,2.77-.34,4.1-.86,2.68-.98,5.11-2.92,6.75-5.46,1.57-2.43,2.28-5.26,2.2-8.02,0-2.8.01-5.51.02-8.09l.38.38c-8.21-.07-15.23-.14-20.32-.18-2.44-.04-4.42-.08-5.9-.1-.63-.02-1.16-.03-1.6-.05-.37-.02-.57-.03-.58-.05-.03-.03.67-.06,2.01-.09,1.46-.03,3.41-.06,5.82-.1,5.16-.05,12.27-.11,20.57-.18h.38s0,.38,0,.38c0,2.58.01,5.29.02,8.09.09,2.84-.65,5.9-2.32,8.46-1.74,2.7-4.32,4.74-7.16,5.77-1.41.55-2.89.83-4.34.89-1.45.1-2.88-.07-4.22-.4-2.71-.64-5.02-2.09-6.77-3.8-1.74-1.75-2.89-3.79-3.53-5.77-.67-1.99-.73-3.9-.69-5.55.03-1.61.06-3.02.09-4.22.03-1.06.06-1.93.08-2.61.02-.59.04-.88.06-.86Z" fill="#263238"/>
          <path d="m290.39,147.79c0,.23-2.42.41-5.41.41s-5.41-.18-5.41-.41,2.42-.41,5.41-.41,5.41.18,5.41.41Z" fill="#263238"/>
          <path d="m221.7,148.01c0-.23,6.7-.43,14.97-.45,8.27-.02,14.97.14,14.98.36,0,.23-6.7.43-14.97.45-8.27.03-14.97-.14-14.97-.36Z" fill="#263238"/>
        </g>
      </g>
    </g>
    <g>
      <g>
        <path d="m522.59,167.46l-46.62-16.74-46.17,16.52c-5.89,2.78-11.06,4.45-11.06,9.94v27.34c0,18.98,4.97,37.8,15.21,54.41,8.61,13.98,21.95,28.37,42.48,37.51,18.87-6.13,32.96-22.47,41.57-36.45,10.23-16.61,15.21-35.42,15.21-54.41v-24.58c0-7.83-4.15-11.65-10.61-13.54Z" fill="#e8b936"/>
        <g fill="none" opacity=".3">
          <path d="m476.42,280.57c-16.24-7.24-26.79-18.87-33.61-29.92-8.1-13.14-12.03-28.02-12.03-43.05v-19.18c0-4.34,2.62-8.41,7.82-10.84l37.37-13.97v-12.89s-46.18,16.52-46.18,16.52c-4.85,2.12-11.06,4.45-11.06,9.94v27.34c0,18.98,4.97,37.8,15.21,54.41,8.61,13.98,21.95,28.37,42.48,37.51v-15.86Z" fill="#ad2447"/>
        </g>
        <g fill="none" opacity=".4">
          <path d="m476.42,296.43c3.27-1.09,6.27-2.36,9.16-3.93,7.74-4.22,14.34-10.01,19.38-15.25,5.64-5.86,9.84-12.2,13.48-18.11,10.23-16.61,15.21-35.42,14.76-54.93l.03-22.57c-.03-11.24-5.79-12.07-10.64-14.18l-46.62-16.74v12.89s37.81,14.2,37.81,14.2c5.2,2.43,7.82,6.5,7.82,10.84v19.18c0,15.02-3.94,29.9-12.03,43.04-6.81,11.06-16.91,22.46-33.15,29.7v15.86Z" fill="#ad2447"/>
        </g>
      </g>
      <path d="m488.35,206.37l.05-3.69c0-6.67-5.43-12.1-12.1-12.1s-12.1,5.43-12.1,12.09l-.05,3.76c-3.27.48-5.78,3.29-5.78,6.69v21.76c0,3.74,3.03,6.77,6.77,6.77h22.59c3.74,0,6.77-3.03,6.77-6.77v-21.76c0-3.53-2.7-6.43-6.15-6.74Zm-8.82,23.09h-5.91l.92-4.27c-1.02-.64-1.71-1.77-1.71-3.06,0-1.99,1.61-3.6,3.6-3.6s3.6,1.61,3.6,3.6c0,1.25-.63,2.34-1.59,2.99.42,1.65,1.08,4.34,1.08,4.34Zm6.22-23.12h-18.99l.05-3.66c0-5.24,4.26-9.5,9.5-9.5s9.5,4.26,9.5,9.48l-.05,3.68Z" fill="#fff" opacity=".5"/>
      <path d="m438.35,206.11c-.1.01-.43-1.42-.7-3.79-.28-2.36-.49-5.65-.38-9.28.05-1.82.17-3.54.34-5.11.15-1.56.44-3.03,1.04-4.13.59-1.1,1.42-1.76,2.04-2.05.63-.29,1.03-.28,1.03-.24.08.1-1.57.43-2.56,2.55-.49,1.02-.7,2.39-.81,3.94-.12,1.55-.22,3.26-.27,5.06-.11,3.59,0,6.85.14,9.21.12,2.36.24,3.82.12,3.84Z" fill="#fff"/>
      <path d="m439.04,218.01c-.23,0-.43-1.12-.46-2.51-.03-1.39.13-2.52.36-2.53.23,0,.43,1.12.46,2.51.03,1.39-.13,2.52-.36,2.52Z" fill="#fff"/>
    </g>
    <g>
      <polygon points="389.85 330.74 337.87 459.3 244.13 459.3 244.13 465.1 523.33 465.1 580.43 330.74 389.85 330.74" fill="#263238"/>
      <path d="m469.31,406.64c-1.88,6.47-7.37,10.56-12.25,9.14-4.88-1.42-7.31-7.82-5.43-14.29,1.88-6.47,7.37-10.56,12.25-9.14,4.88,1.42,7.31,7.82,5.43,14.29Z" fill="#fafafa"/>
    </g>
  </g>
</svg>