<svg width="60" height="60" viewBox="0 0 60 60" fill="none" xmlns="http://www.w3.org/2000/svg">
<mask id="mask0_43_1255" style="mask-type:luminance" maskUnits="userSpaceOnUse" x="0" y="0" width="60" height="60">
<path d="M0 7.62939e-06H60V60H0V7.62939e-06Z" fill="white"/>
</mask>
<g mask="url(#mask0_43_1255)">
<path d="M25.7006 44.2244L17.271 58.8251L15.2082 51.1273L7.48206 53.1975L15.5706 39.1877" stroke="#C73E9B" stroke-width="2" stroke-miterlimit="10" stroke-linecap="round" stroke-linejoin="round"/>
<path d="M44.398 39.1334L52.5179 53.1975L44.7918 51.1273L42.729 58.8252L34.2567 44.1507" stroke="#C73E9B" stroke-width="2" stroke-miterlimit="10" stroke-linecap="round" stroke-linejoin="round"/>
<path d="M32.0893 1.59343C34.4244 0.637763 37.1102 1.35741 38.6545 3.35253C39.5558 4.5169 40.8783 5.2805 42.3373 5.47878C44.8374 5.81874 46.8035 7.78479 47.1434 10.2849C47.3417 11.7439 48.1053 13.0664 49.2697 13.9677C51.2648 15.512 51.9844 18.1978 51.0288 20.5329C50.4711 21.8956 50.4711 23.4228 51.0288 24.7854C51.9844 27.1205 51.2648 29.8062 49.2697 31.3506C48.1053 32.2519 47.3417 33.5745 47.1434 35.0333V35.0335C46.8035 37.5334 44.8374 39.4996 42.3373 39.8396C40.8783 40.0378 39.5558 40.8014 38.6545 41.9657C37.1102 43.9609 34.4244 44.6806 32.0893 43.7249C30.7266 43.1672 29.1994 43.1672 27.8368 43.7249C25.5017 44.6806 22.816 43.9609 21.2716 41.9657C20.3703 40.8014 19.0477 40.0378 17.5888 39.8396C15.0889 39.4996 13.1226 37.5334 12.7828 35.0335V35.0333C12.5844 33.5745 11.8208 32.2519 10.6565 31.3506C8.66127 29.8062 7.94162 27.1205 8.89728 24.7854C9.45498 23.4228 9.45498 21.8956 8.89728 20.5329C7.94162 18.1978 8.66127 15.512 10.6565 13.9677C11.8208 13.0664 12.5844 11.7439 12.7828 10.2849C13.1226 7.78479 15.0888 5.81874 17.5887 5.47878C19.0476 5.2805 20.3703 4.5169 21.2716 3.35253C22.816 1.35741 25.5017 0.637763 27.8368 1.59343C29.1994 2.15112 30.7266 2.15112 32.0893 1.59343Z" stroke="#C73E9B" stroke-width="2" stroke-miterlimit="10" stroke-linecap="round" stroke-linejoin="round"/>
<path d="M28.6583 29.6372L21.8201 22.7988L25.4662 19.1529L28.6583 22.3451L34.5339 16.4697L38.1798 20.1157L28.6583 29.6372Z" stroke="#C73E9B" stroke-width="2" stroke-miterlimit="10" stroke-linecap="round" stroke-linejoin="round"/>
<path d="M24.8188 9.97617C19.6164 12.0391 15.9375 17.1166 15.9375 23.0535C15.9375 30.82 22.2335 37.116 30 37.116C37.7665 37.116 44.0625 30.82 44.0625 23.0535C44.0625 17.1166 40.3836 12.0391 35.1813 9.97617" stroke="#C73E9B" stroke-width="2" stroke-miterlimit="10" stroke-linecap="round" stroke-linejoin="round"/>
</g>
</svg>
