<svg width="60" height="60" viewBox="0 0 60 60" fill="none" xmlns="http://www.w3.org/2000/svg">
<g clip-path="url(#clip0_43_1382)">
<mask id="mask0_43_1382" style="mask-type:luminance" maskUnits="userSpaceOnUse" x="0" y="0" width="60" height="60">
<path d="M0 3.8147e-06H60V60H0V3.8147e-06Z" fill="white"/>
</mask>
<g mask="url(#mask0_43_1382)">
<path d="M35.2605 22.8754V14.3908C35.2605 13.1107 36.2984 12.0738 37.5774 12.0738C38.8576 12.0738 39.8943 13.1107 39.8943 14.3908V20.5585" stroke="#C73E9B" stroke-width="2" stroke-miterlimit="10" stroke-linecap="round" stroke-linejoin="round"/>
<path d="M42.9166 25.1927H37.5778C36.2981 25.1927 35.2609 24.1554 35.2609 22.8758C35.2609 21.5961 36.2981 20.5589 37.5778 20.5589H42.9166C44.1962 20.5589 45.2335 21.5961 45.2335 22.8758C45.2335 24.1554 44.1962 25.1927 42.9166 25.1927Z" stroke="#C73E9B" stroke-width="2" stroke-miterlimit="10" stroke-linecap="round" stroke-linejoin="round"/>
<path d="M21.0125 22.8759H23.8278" stroke="#C73E9B" stroke-width="2" stroke-miterlimit="10" stroke-linecap="round" stroke-linejoin="round"/>
<path d="M51.3279 22.8759H54.1432" stroke="#C73E9B" stroke-width="2" stroke-miterlimit="10" stroke-linecap="round" stroke-linejoin="round"/>
<path d="M37.5778 6.31042V9.12573" stroke="#C73E9B" stroke-width="2" stroke-miterlimit="10" stroke-linecap="round" stroke-linejoin="round"/>
<path d="M37.5778 36.626V39.4413" stroke="#C73E9B" stroke-width="2" stroke-miterlimit="10" stroke-linecap="round" stroke-linejoin="round"/>
<path d="M30.9636 43.3845C30.4643 43.2235 29.9732 43.045 29.4915 42.8491" stroke="#C73E9B" stroke-width="2" stroke-miterlimit="10" stroke-linecap="round" stroke-linejoin="round"/>
<path d="M16.1781 25.3795C16.0835 24.5584 16.0345 23.7231 16.0345 22.8763C16.0345 10.9779 25.6793 1.33207 37.5776 1.33207C49.476 1.33207 59.1206 10.9779 59.1206 22.8763C59.1206 34.5168 49.8866 44.0027 38.3428 44.4053" stroke="#C73E9B" stroke-width="2" stroke-miterlimit="10" stroke-linecap="round" stroke-linejoin="round"/>
<path d="M21.1465 24.9961C21.0574 24.3012 21.0117 23.5934 21.0117 22.8762C21.0117 13.7273 28.4285 6.31055 37.5773 6.31055C40.4238 6.31055 43.1039 7.02891 45.443 8.29336" stroke="#C73E9B" stroke-width="2" stroke-miterlimit="10" stroke-linecap="round" stroke-linejoin="round"/>
<path d="M48.3257 10.2704C51.8859 13.3091 54.1429 17.829 54.1429 22.8763C54.1429 32.0251 46.7261 39.4419 37.5773 39.4419C31.0769 39.4419 25.4507 35.6978 22.739 30.2462" stroke="#C73E9B" stroke-width="2" stroke-miterlimit="10" stroke-linecap="round" stroke-linejoin="round"/>
<path d="M9.16055 58.6676H4.47891C3.48516 58.6676 2.58516 58.2645 1.93359 57.6141C1.2832 56.9614 0.878906 56.0625 0.878906 55.0676C0.878906 53.0778 2.49141 51.4664 4.47891 51.4664V46.1496C4.47891 39.8672 9.5707 34.7754 15.852 34.7754H17.2289H18.6059C23.7387 34.7754 28.0781 38.1762 29.4914 42.8496C29.5453 43.0254 29.5945 43.2035 29.6379 43.384" stroke="#C73E9B" stroke-width="2" stroke-miterlimit="10" stroke-linecap="round" stroke-linejoin="round"/>
<path d="M29.9777 58.6676H12.6761" stroke="#C73E9B" stroke-width="2" stroke-miterlimit="10" stroke-linecap="round" stroke-linejoin="round"/>
<path d="M20.1385 24.7628C18.5413 24.706 17.2287 25.9838 17.2287 27.5683C17.2287 25.9839 15.9161 24.7061 14.3191 24.7628C12.7977 24.8168 11.614 26.1133 11.614 27.6355V29.1617C11.614 32.2626 14.1278 34.7764 17.2287 34.7764C20.3296 34.7764 22.8434 32.2626 22.8434 29.1617V27.6357C22.8434 26.1134 21.6597 24.817 20.1385 24.7628Z" stroke="#C73E9B" stroke-width="2" stroke-miterlimit="10" stroke-linecap="round" stroke-linejoin="round"/>
<path d="M36.3025 58.6676H32.2443H25.4236C24.7203 58.6676 24.0834 58.383 23.6226 57.921C23.1606 57.4602 22.8761 56.8233 22.8761 56.1199C22.8761 54.7131 24.0169 53.5735 25.4236 53.5735H32.2443H36.3025" stroke="#C73E9B" stroke-width="2" stroke-miterlimit="10" stroke-linecap="round" stroke-linejoin="round"/>
<path d="M36.3025 53.5735H32.2443H25.4236C24.7203 53.5735 24.0834 53.2877 23.6226 52.8269C23.1606 52.3661 22.8761 51.7292 22.8761 51.0258C22.8761 49.619 24.0169 48.4782 25.4236 48.4782H32.2443H36.3025" stroke="#C73E9B" stroke-width="2" stroke-miterlimit="10" stroke-linecap="round" stroke-linejoin="round"/>
<path d="M43.1232 53.573H32.2438C30.837 53.573 29.6965 54.7133 29.6965 56.1202C29.6965 57.527 30.837 58.6675 32.2438 58.6675H43.1232C44.53 58.6675 45.6705 57.527 45.6705 56.1202C45.6705 54.7133 44.53 53.573 43.1232 53.573Z" stroke="#C73E9B" stroke-width="2" stroke-miterlimit="10" stroke-linecap="round" stroke-linejoin="round"/>
<path d="M43.1232 48.4785H32.2438C30.837 48.4785 29.6965 49.619 29.6965 51.0258C29.6965 52.4327 30.837 53.5731 32.2438 53.5731H43.1232C44.53 53.5731 45.6705 52.4327 45.6705 51.0258C45.6705 49.619 44.53 48.4785 43.1232 48.4785Z" stroke="#C73E9B" stroke-width="2" stroke-miterlimit="10" stroke-linecap="round" stroke-linejoin="round"/>
<path d="M36.3026 43.384H25.4232C24.0163 43.384 22.876 44.5245 22.876 45.9312C22.876 47.3379 24.0163 48.4785 25.4232 48.4785H36.3026C37.7095 48.4785 38.8499 47.338 38.8499 45.9313C38.8499 44.5246 37.7095 43.384 36.3026 43.384Z" stroke="#C73E9B" stroke-width="2" stroke-miterlimit="10" stroke-linecap="round" stroke-linejoin="round"/>
<path d="M17.2393 42.8634L12.0615 53.5133" stroke="#C73E9B" stroke-width="2" stroke-miterlimit="10" stroke-linecap="round" stroke-linejoin="round"/>
<path d="M13.3582 44.662C13.3582 45.9294 12.3338 46.9569 11.0703 46.9569C9.80681 46.9569 8.78247 45.9294 8.78247 44.662C8.78247 43.3945 9.80681 42.3671 11.0703 42.3671C12.3338 42.3671 13.3582 43.3945 13.3582 44.662Z" stroke="#C73E9B" stroke-width="2" stroke-miterlimit="10" stroke-linecap="round" stroke-linejoin="round"/>
<path d="M20.3511 51.9435C20.3511 53.2109 19.3268 54.2384 18.0632 54.2384C16.7997 54.2384 15.7754 53.2109 15.7754 51.9435C15.7754 50.676 16.7997 49.6486 18.0632 49.6486C19.3268 49.6486 20.3511 50.676 20.3511 51.9435Z" stroke="#C73E9B" stroke-width="2" stroke-miterlimit="10" stroke-linecap="round" stroke-linejoin="round"/>
</g>
</g>
<defs>
<clipPath id="clip0_43_1382">
<rect width="60" height="60" fill="white"/>
</clipPath>
</defs>
</svg>
