<svg width="60" height="60" viewBox="0 0 60 60" fill="none" xmlns="http://www.w3.org/2000/svg">
<g clip-path="url(#clip0_43_1357)">
<mask id="mask0_43_1357" style="mask-type:luminance" maskUnits="userSpaceOnUse" x="0" y="0" width="60" height="60">
<path d="M0 3.8147e-06H60V60H0V3.8147e-06Z" fill="white"/>
</mask>
<g mask="url(#mask0_43_1357)">
<path d="M37.6558 39.375L37.0312 44.0625H22.9687L20.0871 22.4531C19.4332 17.5441 20.557 12.4336 23.0836 8.20312C24.7887 5.34609 27.1336 2.89219 30 1.17188C32.8664 2.89219 35.2113 5.34609 36.9163 8.20312C39.443 12.4336 40.5668 17.5441 39.9129 22.4531L37.6558 39.375Z" stroke="#C73E9B" stroke-width="2" stroke-miterlimit="10" stroke-linecap="round" stroke-linejoin="round"/>
<path d="M34.6875 20.625C34.6875 23.2137 32.5887 25.3125 30 25.3125C27.4113 25.3125 25.3125 23.2137 25.3125 20.625C25.3125 18.0363 27.4113 15.9375 30 15.9375C32.5887 15.9375 34.6875 18.0363 34.6875 20.625Z" stroke="#C73E9B" stroke-width="2" stroke-miterlimit="10" stroke-linecap="round" stroke-linejoin="round"/>
<path d="M39.375 27.6563L45.7887 35.1387C46.1871 35.6039 46.4062 36.1957 46.4062 36.8086C46.4062 38.2266 45.2578 39.375 43.8398 39.375H16.1602C14.7422 39.375 13.5938 38.2266 13.5938 36.8086C13.5938 36.1957 13.8129 35.6039 14.2113 35.1387L20.625 27.6563" stroke="#C73E9B" stroke-width="2" stroke-miterlimit="10" stroke-linecap="round" stroke-linejoin="round"/>
<path d="M36.9163 8.20312H23.0836" stroke="#C73E9B" stroke-width="2" stroke-miterlimit="10" stroke-linecap="round" stroke-linejoin="round"/>
<path d="M12.389 50.8265C13.1427 50.0719 14.1527 49.5738 15.2777 49.473C15.4185 49.459 15.5602 49.4531 15.7031 49.4531" stroke="#C73E9B" stroke-width="2" stroke-miterlimit="10" stroke-linecap="round" stroke-linejoin="round"/>
<path d="M47.6109 50.8265C46.8573 50.0719 45.8473 49.5738 44.7223 49.473C44.5815 49.459 44.4397 49.4531 44.2969 49.4531" stroke="#C73E9B" stroke-width="2" stroke-miterlimit="10" stroke-linecap="round" stroke-linejoin="round"/>
<path d="M25.3125 44.0625V49.4531C25.3125 52.0418 22.9793 54.1406 20.3906 54.1406C20.3906 51.552 18.2918 49.4531 15.7031 49.4531C15.5602 49.4531 15.4254 49.4824 15.2859 49.4953C15.2836 49.4883 15.2812 49.4801 15.2777 49.473C14.2078 46.4391 10.9184 44.3438 7.4168 44.8383C4.0043 45.3199 1.17188 48.709 1.17188 51.7969C1.17188 55.4555 4.40742 58.8281 8.4375 58.8281H24.7266" stroke="#C73E9B" stroke-width="2" stroke-miterlimit="10" stroke-linecap="round" stroke-linejoin="round"/>
<path d="M35.2734 58.8281H51.5625C55.4895 58.8281 58.7566 55.5961 58.8281 51.9141C58.8879 48.7898 56.0402 45.3258 52.5832 44.8383C49.0816 44.3438 45.7922 46.4391 44.7223 49.473C44.7187 49.4801 44.7164 49.4883 44.7141 49.4953C44.5746 49.4824 44.4398 49.4531 44.2969 49.4531C41.7082 49.4531 39.6094 51.552 39.6094 54.1406C37.0207 54.1406 34.6875 52.0418 34.6875 49.4531V44.0625" stroke="#C73E9B" stroke-width="2" stroke-miterlimit="10" stroke-linecap="round" stroke-linejoin="round"/>
<path d="M28.8281 58.8281C28.8281 58.1809 29.3529 57.6563 30 57.6563C30.6471 57.6563 31.1719 58.1809 31.1719 58.8281C31.1719 59.4754 30.6471 60 30 60C29.3529 60 28.8281 59.4754 28.8281 58.8281Z" fill="#C73E9B"/>
</g>
</g>
<defs>
<clipPath id="clip0_43_1357">
<rect width="60" height="60" fill="white"/>
</clipPath>
</defs>
</svg>
