<svg width="65" height="65" viewBox="0 0 65 65" fill="none" xmlns="http://www.w3.org/2000/svg">
<g clip-path="url(#clip0_42_1128)">
<path d="M32.8389 19.0681H42.8898C43.7649 19.0681 44.4768 18.3563 44.4768 17.4812V7.38723C44.4768 6.51213 43.7649 5.80029 42.8898 5.80029H32.8389C31.9638 5.80029 31.252 6.51213 31.252 7.38723V9.77552C31.252 10.3015 31.6781 10.7277 32.2041 10.7277C32.7301 10.7277 33.1563 10.3015 33.1563 9.77552V7.70462H42.5724V17.1639H33.1563V14.3568C33.1563 13.8309 32.7301 13.4047 32.2041 13.4047C31.6781 13.4047 31.252 13.8309 31.252 14.3568V17.4813C31.252 18.3563 31.9638 19.0681 32.8389 19.0681Z" fill="#CC0444"/>
<path d="M15.1055 17.5293H28.077C28.6029 17.5293 29.0291 17.1031 29.0291 16.5772C29.0291 16.0512 28.6029 15.625 28.077 15.625H15.1055C14.5796 15.625 14.1534 16.0512 14.1534 16.5772C14.1534 17.1031 14.5797 17.5293 15.1055 17.5293Z" fill="#CC0444"/>
<path d="M36.8119 24.6267C36.8119 24.1007 36.3857 23.6746 35.8597 23.6746H22.7705C22.2445 23.6746 21.8183 24.1007 21.8183 24.6267C21.8183 25.1527 22.2445 25.5789 22.7705 25.5789H35.8597C36.3855 25.5789 36.8119 25.1526 36.8119 24.6267Z" fill="#CC0444"/>
<path d="M15.1055 13.3864H28.077C28.6029 13.3864 29.0291 12.9602 29.0291 12.4342C29.0291 11.9082 28.6029 11.4821 28.077 11.4821H15.1055C14.5796 11.4821 14.1534 11.9082 14.1534 12.4342C14.1534 12.9602 14.5797 13.3864 15.1055 13.3864Z" fill="#CC0444"/>
<path d="M15.1055 9.24344H28.077C28.6029 9.24344 29.0291 8.81725 29.0291 8.29128C29.0291 7.7653 28.6029 7.33911 28.077 7.33911H15.1055C14.5796 7.33911 14.1534 7.7653 14.1534 8.29128C14.1534 8.81725 14.5797 9.24344 15.1055 9.24344Z" fill="#CC0444"/>
<path d="M15.1055 36.1138H34.6383C35.1642 36.1138 35.5904 35.6876 35.5904 35.1616C35.5904 34.6357 35.1642 34.2095 34.6383 34.2095H15.1055C14.5796 34.2095 14.1534 34.6357 14.1534 35.1616C14.1534 35.6876 14.5797 36.1138 15.1055 36.1138Z" fill="#CC0444"/>
<path d="M15.1055 30.7871H30.5532C31.0792 30.7871 31.5054 30.361 31.5054 29.835C31.5054 29.309 31.0792 28.8828 30.5532 28.8828H15.1055C14.5796 28.8828 14.1534 29.309 14.1534 29.835C14.1534 30.361 14.5797 30.7871 15.1055 30.7871Z" fill="#CC0444"/>
<path d="M43.5837 28.8828H34.6806C34.1546 28.8828 33.7284 29.309 33.7284 29.835C33.7284 30.361 34.1546 30.7871 34.6806 30.7871H43.5837C44.1097 30.7871 44.5359 30.361 44.5359 29.835C44.5359 29.309 44.1095 28.8828 43.5837 28.8828Z" fill="#CC0444"/>
<path d="M63.8927 58.8978C63.8812 58.8863 63.8692 58.8753 63.8572 58.8645L57.9978 53.6508C58.9236 51.9641 59.4519 50.0741 59.5221 48.1043C59.5408 47.5787 59.13 47.1375 58.6045 47.1187C58.078 47.1031 57.6379 47.5109 57.619 48.0363C57.4747 53.6452 52.7241 58.2651 47.1039 58.209C41.302 58.209 36.5818 53.473 36.5818 47.6517C36.4938 41.9467 41.4065 37.0136 47.1039 37.0943C51.5422 37.0943 55.5258 39.9108 57.0167 44.1026C57.1929 44.598 57.7379 44.8573 58.2328 44.6808C58.7283 44.5046 58.987 43.9601 58.8109 43.4647C57.2206 38.9928 53.2263 35.8476 48.604 35.2822V1.58694C48.604 0.711839 47.8921 0 47.017 0H11.613C10.7379 0 10.0261 0.711839 10.0261 1.58694V5.03086H6.60144C5.72634 5.03086 5.0145 5.7427 5.0145 6.6178V10.0616H1.58975C0.714646 10.0616 0.00280762 10.7734 0.00280762 11.6485V59.1484C0.00280762 60.0235 0.714646 60.7353 1.58975 60.7353H31.9083C32.7834 60.7353 33.4953 60.0235 33.4953 59.1484V55.7045H37.6288C39.91 58.3997 43.311 60.1135 47.104 60.1135C49.1884 60.1135 51.2006 59.5982 52.9911 58.63L58.895 63.9177C60.2989 65.3085 62.5735 65.3853 63.9821 63.9951C65.3917 62.648 65.3065 60.2302 63.8927 58.8978ZM11.9304 1.90433H46.6997V35.198C42.6528 35.3299 38.9753 37.4341 36.7776 40.72H32.9115C32.3856 40.72 31.9594 41.1462 31.9594 41.6722C31.9594 42.1982 32.3856 42.6244 32.9115 42.6244H35.7307C35.6032 42.9143 35.4858 43.2103 35.3797 43.5127C34.9138 44.84 34.6776 46.2327 34.6776 47.6517C34.6776 48.0285 34.6954 48.401 34.7281 48.7694H21.4814C22.7882 47.5174 23.6048 45.7546 23.6048 43.8029V42.6245H28.7845C29.3105 42.6245 29.7366 42.1983 29.7366 41.6723C29.7366 41.1464 29.3105 40.7202 28.7845 40.7202H22.6527C22.1267 40.7202 21.7005 41.1464 21.7005 41.6723V43.8029C21.7005 46.5414 19.4826 48.7694 16.7566 48.7694H11.9304V1.90433ZM6.91883 53.8V40.7844C6.91883 40.2584 6.49264 39.8322 5.96666 39.8322C5.44069 39.8322 5.0145 40.2584 5.0145 40.7844V54.1174C5.0145 54.9925 5.72634 55.7043 6.60144 55.7043H31.591V58.8309H1.90714V11.9659H5.0145V36.7598C5.0145 37.2858 5.44069 37.712 5.96666 37.712C6.49264 37.712 6.91883 37.2858 6.91883 36.7598V6.93519H10.0262V49.7216C10.0262 50.2475 10.4524 50.6737 10.9784 50.6737H35.0479C35.3242 51.7817 35.7484 52.8313 36.2987 53.8001H6.91883V53.8ZM62.6417 62.6424C61.9828 63.2993 60.8651 63.2323 60.1842 62.5157L54.6467 57.5561C55.5015 56.9013 56.2897 56.1144 56.9453 55.2632L62.5714 60.2694C63.2206 60.8945 63.2959 62.0124 62.6417 62.6424Z" fill="#CC0444"/>
<path d="M47.104 39.5133C42.7103 39.4507 38.921 43.2537 38.9877 47.6517C38.9877 52.1392 42.6287 55.7899 47.104 55.7899C51.5792 55.7899 55.2201 52.1392 55.2201 47.6517C55.2201 43.1642 51.5792 39.5133 47.104 39.5133ZM47.104 53.8854C43.6789 53.8854 40.8921 51.089 40.8921 47.6516C40.84 44.2832 43.7405 41.3699 47.104 41.4175C50.5291 41.4175 53.3158 44.214 53.3158 47.6516C53.3158 51.089 50.5293 53.8854 47.104 53.8854Z" fill="#CC0444"/>
</g>
<defs>
<clipPath id="clip0_42_1128">
<rect width="65" height="65" fill="white"/>
</clipPath>
</defs>
</svg>
