<svg width="100" height="100" viewBox="0 0 100 100" fill="none" xmlns="http://www.w3.org/2000/svg">
<path d="M50 100C39.4033 100 29.2953 96.7327 20.7305 90.5068L6.04424 96.2953C5.4784 96.5269 4.86111 96.3983 4.42387 95.9866C3.98663 95.575 3.8323 94.9576 4.01235 94.3658L9.20782 78.904C3.1893 70.4142 0 60.4065 0 49.9871C0 42.9637 1.44033 36.1719 4.26955 29.7659C6.99589 23.5915 10.9054 18.1374 15.8436 13.4808C16.4609 12.8891 17.4383 12.9406 18.0298 13.558C18.6214 14.1755 18.57 15.1531 17.9527 15.7448C8.48765 24.5948 3.08642 37.0723 3.08642 49.9871C3.08642 59.789 6.06996 69.1793 11.7541 77.1546L12.1914 77.7721C12.4743 78.1837 12.5514 78.6982 12.3971 79.1613L7.99897 92.2305L20.3704 87.3681C20.8591 87.1881 21.4249 87.2395 21.8364 87.5482L22.5051 88.037C30.5556 93.877 40.0463 96.9385 50 96.9385C60.7768 96.9385 71.2963 93.1824 79.6554 86.3391C80.3241 85.7988 81.2757 85.9017 81.8159 86.5449C82.356 87.2138 82.2531 88.1657 81.6101 88.7059C72.7109 96.0124 61.4969 100 50 100ZM84.1307 85.9275C83.7449 85.9275 83.3333 85.7731 83.0247 85.4644C82.4331 84.8469 82.4331 83.8693 83.0247 83.2776C91.9753 74.3761 96.9136 62.5675 96.9136 49.9871C96.9136 24.106 75.8745 3.06149 50 3.06149C43.7757 3.06149 37.7315 4.27065 32.0216 6.63751C31.2243 6.97196 30.3241 6.58606 30.0154 5.81425C29.6811 5.01672 30.0669 4.11629 30.8385 3.80756C36.9084 1.28634 43.3642 0 50 0C77.572 0 100 22.4338 100 50.0129C100 63.4165 94.7531 76.0226 85.2109 85.4901C84.928 85.7731 84.5165 85.9275 84.1307 85.9275ZM66.5895 78.4924C64.3004 78.4924 61.7541 78.0036 58.9763 77.026C38.5802 69.8225 24.9486 57.2164 20.5504 41.5488C18.0556 32.673 20.8848 27.6563 23.6626 25.0322C26.4403 22.408 29.6811 21.7134 30.9928 21.7134C31.3529 21.7134 31.6358 21.7649 31.893 21.842C31.9187 21.842 31.9187 21.842 31.9444 21.8678C33.4877 22.4595 35.9054 26.0355 37.5257 28.9426C39.1461 31.8498 40.9208 35.786 40.5864 37.381C40.5607 37.4582 40.5607 37.5096 40.535 37.5868C40.1235 38.7188 39.0689 39.7993 37.9372 40.957C36.4969 42.4235 35.0309 43.9413 35.108 45.5364C35.108 45.7422 35.4167 47.0543 40.1235 51.8652C43.3899 55.2097 47.0422 58.3998 50.1286 60.6123C52.5463 62.3617 55.8128 64.317 57.5617 63.8281C59.2335 63.3651 60.1338 61.9244 61.0597 60.3808C61.9856 58.8886 62.9372 57.345 64.6605 57.0363C67.8241 56.4703 76.5432 60.0978 79.4496 63.185C79.9126 63.6738 80.1183 64.3427 80.0154 65.0116C79.6296 67.5585 78.1636 73.8101 73.0967 76.8459C71.2191 77.9264 69.0586 78.4924 66.5895 78.4924ZM30.8899 24.8006C30.0926 24.8521 27.8292 25.3666 25.7973 27.2704C22.6852 30.2032 21.9136 34.8341 23.534 40.6998C27.6235 55.364 40.5864 67.2498 60.0051 74.1189C64.8405 75.8426 68.7243 75.8426 71.5278 74.1703C75.2315 71.9578 76.4918 67.3013 76.9033 64.9601C74.177 62.4646 66.9239 59.7376 65.2006 60.0206C64.8405 60.072 64.0947 61.3069 63.6831 61.9501C62.5772 63.751 61.214 65.9635 58.3848 66.761C56.7387 67.2241 54.0895 67.2241 48.3282 63.0821C45.1132 60.7667 41.3323 57.4479 37.9115 53.9748C32.6132 48.5464 32.0988 46.8485 32.0216 45.665C31.8673 42.7322 34.0021 40.5454 35.7253 38.7703C36.3683 38.1271 37.1914 37.2524 37.5257 36.7121C37.3971 36.069 36.7798 33.9336 34.8251 30.4348C32.8961 26.9359 31.3786 25.2637 30.8899 24.8006ZM22.5823 11.5771C22.0936 11.5771 21.6049 11.3455 21.322 10.9082C20.8333 10.2135 21.0134 9.23592 21.7078 8.77283C22.7623 8.05248 23.8683 7.33213 24.9743 6.68896C25.7202 6.25161 26.6461 6.50888 27.0833 7.25495C27.5206 8.00103 27.2634 8.92719 26.5175 9.36455C25.4887 9.95626 24.4342 10.6252 23.4568 11.3198C23.1739 11.4999 22.8652 11.5771 22.5823 11.5771Z" fill="#6A26DA"/>
</svg>
