<svg width="65" height="65" viewBox="0 0 65 65" fill="none" xmlns="http://www.w3.org/2000/svg">
<path d="M24.375 4.0625H25.3906C25.66 4.0625 25.9183 3.9555 26.1088 3.76503C26.2992 3.57456 26.4062 3.31624 26.4062 3.04688C26.4062 2.77751 26.2992 2.51919 26.1088 2.32872C25.9183 2.13825 25.66 2.03125 25.3906 2.03125H24.375C24.1056 2.03125 23.8473 2.13825 23.6568 2.32872C23.4664 2.51919 23.3594 2.77751 23.3594 3.04688C23.3594 3.31624 23.4664 3.57456 23.6568 3.76503C23.8473 3.9555 24.1056 4.0625 24.375 4.0625Z" fill="#CC0444"/>
<path d="M57.8195 2.03121H28.7401C28.4707 2.03121 28.2124 2.13821 28.0219 2.32868C27.8314 2.51915 27.7244 2.77748 27.7244 3.04684C27.7244 3.3162 27.8314 3.57453 28.0219 3.76499C28.2124 3.95546 28.4707 4.06246 28.7401 4.06246H57.8195C58.6367 4.05403 59.4239 4.37007 60.0085 4.94126C60.593 5.51244 60.9271 6.29214 60.9375 7.10934V21.3281C60.9271 22.1453 60.593 22.925 60.0085 23.4962C59.4239 24.0674 58.6367 24.3834 57.8195 24.375H10.2812C10.1071 24.3748 9.93602 24.4196 9.78433 24.5049L4.0625 27.7184V7.10934C4.07292 6.29214 4.40703 5.51244 4.99154 4.94126C5.57606 4.37007 6.36325 4.05403 7.18047 4.06246H20.3125C20.5819 4.06246 20.8402 3.95546 21.0307 3.76499C21.2211 3.57453 21.3281 3.3162 21.3281 3.04684C21.3281 2.77748 21.2211 2.51915 21.0307 2.32868C20.8402 2.13821 20.5819 2.03121 20.3125 2.03121H7.18047C5.82474 2.02345 4.52127 2.55371 3.55597 3.50568C2.59066 4.45766 2.04233 5.75363 2.03125 7.10934V29.4531C2.03125 29.6303 2.07763 29.8044 2.16577 29.9582C2.2539 30.1119 2.38074 30.2399 2.53366 30.3295C2.68659 30.419 2.86029 30.467 3.0375 30.4687C3.21471 30.4703 3.38927 30.4255 3.54382 30.3388L10.5471 26.4062H57.8195C59.1753 26.414 60.4787 25.8837 61.444 24.9317C62.4093 23.9798 62.9577 22.6838 62.9688 21.3281V7.10934C62.9577 5.75363 62.4093 4.45766 61.444 3.50568C60.4787 2.55371 59.1753 2.02345 57.8195 2.03121Z" fill="#CC0444"/>
<path d="M16.1538 7.69347C16.0719 7.51882 15.9419 7.37112 15.7791 7.26766C15.6162 7.1642 15.4273 7.10925 15.2344 7.10925C15.0415 7.10925 14.8525 7.1642 14.6897 7.26766C14.5269 7.37112 14.3969 7.51882 14.3149 7.69347L12.6616 11.2144L8.98686 11.7768C8.8024 11.8051 8.62929 11.8837 8.48656 12.0039C8.34382 12.1241 8.23697 12.2814 8.17775 12.4584C8.11852 12.6353 8.1092 12.8252 8.15082 13.0071C8.19243 13.1891 8.28337 13.356 8.41365 13.4896L11.1024 16.2449L10.4657 20.1488C10.4351 20.3369 10.4579 20.5298 10.5318 20.7056C10.6056 20.8813 10.7274 21.0327 10.8832 21.1425C11.039 21.2522 11.2226 21.3159 11.4129 21.3263C11.6032 21.3367 11.7926 21.2933 11.9594 21.2011L15.2344 19.391L18.5094 21.2011C18.6762 21.2935 18.8656 21.337 19.0561 21.3267C19.2465 21.3163 19.4301 21.2525 19.5859 21.1426C19.7416 21.0327 19.8633 20.8812 19.9371 20.7055C20.011 20.5298 20.0339 20.3369 20.0034 20.1488L19.3668 16.2449L22.0555 13.4896C22.1858 13.356 22.2767 13.1891 22.3184 13.0071C22.36 12.8252 22.3506 12.6353 22.2914 12.4584C22.2322 12.2814 22.1253 12.1241 21.9826 12.0039C21.8399 11.8837 21.6668 11.8051 21.4823 11.7768L17.8076 11.2144L16.1538 7.69347ZM17.5543 15.1937C17.4432 15.3074 17.3604 15.4456 17.3125 15.5972C17.2646 15.7488 17.253 15.9095 17.2785 16.0664L17.6613 18.4125L15.7253 17.3423C15.5751 17.259 15.4061 17.2154 15.2344 17.2154C15.0626 17.2154 14.8937 17.259 14.7434 17.3423L12.807 18.4121L13.1898 16.066C13.2154 15.9091 13.2037 15.7484 13.1558 15.5968C13.1079 15.4452 13.0251 15.307 12.9141 15.1932L11.2478 13.4853L13.5043 13.14C13.6691 13.1148 13.8252 13.0495 13.9587 12.9496C14.0923 12.8498 14.1992 12.7186 14.2699 12.5677L15.2344 10.5152L16.1984 12.5683C16.2692 12.7192 16.3761 12.8504 16.5096 12.9502C16.6432 13.0501 16.7993 13.1154 16.9641 13.1406L19.2205 13.4859L17.5543 15.1937Z" fill="#CC0444"/>
<path d="M39.5568 12.4582C39.4975 12.2812 39.3906 12.124 39.2479 12.0038C39.1051 11.8836 38.932 11.8051 38.7475 11.7768L35.0728 11.2144L33.4195 7.69347C33.3375 7.51882 33.2075 7.37112 33.0447 7.26766C32.8819 7.1642 32.6929 7.10925 32.5 7.10925C32.3071 7.10925 32.1182 7.1642 31.9553 7.26766C31.7925 7.37112 31.6625 7.51882 31.5806 7.69347L29.9272 11.2144L26.2525 11.7768C26.068 11.8051 25.8949 11.8837 25.7522 12.0039C25.6094 12.1241 25.5026 12.2814 25.4434 12.4584C25.3841 12.6353 25.3748 12.8252 25.4164 13.0071C25.4581 13.1891 25.549 13.356 25.6793 13.4896L28.368 16.2449L27.7313 20.1488C27.7007 20.3369 27.7236 20.5298 27.7974 20.7056C27.8712 20.8813 27.993 21.0327 28.1488 21.1425C28.3046 21.2522 28.4882 21.3159 28.6785 21.3263C28.8688 21.3367 29.0582 21.2933 29.225 21.2011L32.5 19.391L35.775 21.2011C35.9418 21.2935 36.1313 21.337 36.3217 21.3267C36.5121 21.3163 36.6957 21.2525 36.8516 21.1426C37.0073 21.0327 37.1289 20.8812 37.2028 20.7055C37.2766 20.5298 37.2996 20.3369 37.2691 20.1488L36.6324 16.2449L39.3211 13.4896C39.4515 13.356 39.5424 13.189 39.584 13.007C39.6256 12.8251 39.6161 12.6351 39.5568 12.4582ZM34.8199 15.1937C34.7088 15.3074 34.626 15.4456 34.5781 15.5972C34.5302 15.7488 34.5186 15.9095 34.5442 16.0664L34.9269 18.4125L32.991 17.3423C32.8407 17.259 32.6718 17.2154 32.5 17.2154C32.3282 17.2154 32.1593 17.259 32.0091 17.3423L30.0727 18.4121L30.4555 16.066C30.481 15.9091 30.4694 15.7484 30.4215 15.5968C30.3736 15.4452 30.2908 15.307 30.1797 15.1932L28.5135 13.4853L30.7699 13.14C30.9347 13.1148 31.0908 13.0495 31.2244 12.9496C31.3579 12.8498 31.4648 12.7186 31.5356 12.5677L32.5 10.5152L33.464 12.5683C33.5348 12.7192 33.6417 12.8504 33.7753 12.9502C33.9088 13.0501 34.0649 13.1154 34.2297 13.1406L36.4861 13.4859L34.8199 15.1937Z" fill="#CC0444"/>
<path d="M56.8224 12.4582C56.7631 12.2812 56.6563 12.124 56.5135 12.0038C56.3707 11.8836 56.1976 11.8051 56.0131 11.7768L52.3384 11.2144L50.6851 7.69347C50.6031 7.51882 50.4731 7.37112 50.3103 7.26766C50.1475 7.1642 49.9585 7.10925 49.7656 7.10925C49.5727 7.10925 49.3838 7.1642 49.221 7.26766C49.0581 7.37112 48.9281 7.51882 48.8462 7.69347L47.1928 11.2144L43.5181 11.7768C43.3336 11.8051 43.1605 11.8837 43.0178 12.0039C42.8751 12.1241 42.7682 12.2814 42.709 12.4584C42.6498 12.6353 42.6405 12.8252 42.6821 13.0071C42.7237 13.1891 42.8146 13.356 42.9449 13.4896L45.6337 16.2449L44.997 20.1488C44.9663 20.3369 44.9892 20.5298 45.063 20.7056C45.1368 20.8813 45.2586 21.0327 45.4144 21.1425C45.5703 21.2522 45.7538 21.3159 45.9441 21.3263C46.1344 21.3367 46.3238 21.2933 46.4906 21.2011L49.7656 19.391L53.0406 21.2011C53.2074 21.2935 53.3969 21.337 53.5873 21.3267C53.7777 21.3163 53.9614 21.2525 54.1172 21.1426C54.2729 21.0327 54.3946 20.8812 54.4684 20.7055C54.5422 20.5298 54.5652 20.3369 54.5347 20.1488L53.898 16.2449L56.5868 13.4896C56.7171 13.356 56.8081 13.189 56.8496 13.007C56.8912 12.8251 56.8818 12.6351 56.8224 12.4582ZM52.0855 15.1937C51.9745 15.3074 51.8917 15.4456 51.8438 15.5972C51.7959 15.7488 51.7842 15.9095 51.8098 16.0664L52.1926 18.4125L50.2566 17.3423C50.1063 17.259 49.9374 17.2154 49.7656 17.2154C49.5939 17.2154 49.4249 17.259 49.2747 17.3423L47.3383 18.4121L47.7211 16.066C47.7466 15.9091 47.735 15.7484 47.6871 15.5968C47.6392 15.4452 47.5564 15.307 47.4453 15.1932L45.7791 13.4853L48.0355 13.14C48.2003 13.1148 48.3564 13.0495 48.49 12.9496C48.6235 12.8498 48.7304 12.7186 48.8012 12.5677L49.7656 10.5152L50.7297 12.5683C50.8004 12.7192 50.9073 12.8504 51.0409 12.9502C51.1744 13.0501 51.3305 13.1154 51.4953 13.1406L53.7518 13.4859L52.0855 15.1937Z" fill="#CC0444"/>
<path d="M17.2875 56.875H7.18047C6.36325 56.8834 5.57606 56.5674 4.99154 55.9962C4.40703 55.425 4.07292 54.6453 4.0625 53.8281V39.6093C4.07292 38.7921 4.40703 38.0124 4.99154 37.4413C5.57606 36.8701 6.36325 36.554 7.18047 36.5625H48.75C49.0194 36.5625 49.2777 36.4555 49.4682 36.265C49.6586 36.0745 49.7656 35.8162 49.7656 35.5468C49.7656 35.2775 49.6586 35.0191 49.4682 34.8287C49.2777 34.6382 49.0194 34.5312 48.75 34.5312H7.18047C5.82474 34.5234 4.52127 35.0537 3.55597 36.0057C2.59066 36.9577 2.04233 38.2536 2.03125 39.6093V53.8281C2.04233 55.1838 2.59066 56.4798 3.55597 57.4317C4.52127 58.3837 5.82474 58.914 7.18047 58.9062H17.2872C17.5565 58.9062 17.8148 58.7992 18.0053 58.6087C18.1958 58.4183 18.3028 58.1599 18.3028 57.8906C18.3028 57.6212 18.1958 57.3629 18.0053 57.1724C17.8148 56.982 17.5568 56.875 17.2875 56.875Z" fill="#CC0444"/>
<path d="M22.192 56.875H20.4642C20.1949 56.875 19.9365 56.982 19.7461 57.1725C19.5556 57.3629 19.4486 57.6213 19.4486 57.8906C19.4486 58.16 19.5556 58.4183 19.7461 58.6088C19.9365 58.7992 20.1949 58.9062 20.4642 58.9062H22.192C22.4614 58.9062 22.7197 58.7992 22.9102 58.6088C23.1006 58.4183 23.2076 58.16 23.2076 57.8906C23.2076 57.6213 23.1006 57.3629 22.9102 57.1725C22.7197 56.982 22.4614 56.875 22.192 56.875Z" fill="#CC0444"/>
<path d="M60.4753 36.3373C60.2631 36.5031 60.1254 36.7463 60.0925 37.0136C60.0595 37.2808 60.1341 37.5502 60.2998 37.7625C60.7142 38.2888 60.9389 38.9395 60.9375 39.6093V60.2184L55.2157 57.0049C55.064 56.9196 54.8929 56.8748 54.7188 56.875H25.3906C25.1213 56.875 24.8629 56.982 24.6725 57.1724C24.482 57.3629 24.375 57.6212 24.375 57.8906C24.375 58.16 24.482 58.4183 24.6725 58.6088C24.8629 58.7992 25.1213 58.9062 25.3906 58.9062H54.4529L61.4562 62.8388C61.6107 62.9255 61.7853 62.9703 61.9625 62.9687C62.1397 62.967 62.3134 62.919 62.4663 62.8295C62.6193 62.7399 62.7461 62.6119 62.8342 62.4582C62.9224 62.3044 62.9687 62.1303 62.9688 61.9531V39.6093C62.9718 38.4863 62.5954 37.3952 61.9005 36.5129C61.8186 36.4077 61.7167 36.3196 61.6006 36.2538C61.4846 36.188 61.3567 36.1457 61.2243 36.1294C61.0919 36.1131 60.9576 36.1231 60.8291 36.1588C60.7006 36.1944 60.5803 36.2551 60.4753 36.3373Z" fill="#CC0444"/>
<path d="M43.6719 40.625C43.6719 40.3556 43.5649 40.0973 43.3744 39.9068C43.184 39.7164 42.9256 39.6094 42.6563 39.6094H17.4383C17.1689 39.6094 16.9106 39.7164 16.7201 39.9068C16.5297 40.0973 16.4227 40.3556 16.4227 40.625C16.4227 40.8944 16.5297 41.1527 16.7201 41.3432C16.9106 41.5336 17.1689 41.6406 17.4383 41.6406H42.6563C42.9256 41.6406 43.184 41.5336 43.3744 41.3432C43.5649 41.1527 43.6719 40.8944 43.6719 40.625Z" fill="#CC0444"/>
<path d="M9.14062 41.6406H12.252C12.5214 41.6406 12.7797 41.5336 12.9701 41.3432C13.1606 41.1527 13.2676 40.8944 13.2676 40.625C13.2676 40.3556 13.1606 40.0973 12.9701 39.9068C12.7797 39.7164 12.5214 39.6094 12.252 39.6094H9.14062C8.87126 39.6094 8.61294 39.7164 8.42247 39.9068C8.232 40.0973 8.125 40.3556 8.125 40.625C8.125 40.8944 8.232 41.1527 8.42247 41.3432C8.61294 41.5336 8.87126 41.6406 9.14062 41.6406Z" fill="#CC0444"/>
<path d="M40.625 48.75C40.625 48.4806 40.518 48.2223 40.3275 48.0318C40.1371 47.8414 39.8787 47.7344 39.6094 47.7344H9.14062C8.87126 47.7344 8.61294 47.8414 8.42247 48.0318C8.232 48.2223 8.125 48.4806 8.125 48.75C8.125 49.0194 8.232 49.2777 8.42247 49.4682C8.61294 49.6586 8.87126 49.7656 9.14062 49.7656H39.6094C39.8787 49.7656 40.1371 49.6586 40.3275 49.4682C40.518 49.2777 40.625 49.0194 40.625 48.75Z" fill="#CC0444"/>
<path d="M39.6094 43.6719H30.7495C30.4801 43.6719 30.2218 43.7789 30.0313 43.9693C29.8408 44.1598 29.7338 44.4181 29.7338 44.6875C29.7338 44.9569 29.8408 45.2152 30.0313 45.4057C30.2218 45.5961 30.4801 45.7031 30.7495 45.7031H39.6094C39.8787 45.7031 40.137 45.5961 40.3275 45.4057C40.518 45.2152 40.625 44.9569 40.625 44.6875C40.625 44.4181 40.518 44.1598 40.3275 43.9693C40.137 43.7789 39.8787 43.6719 39.6094 43.6719Z" fill="#CC0444"/>
<path d="M9.14062 45.7031H27.7244C27.9938 45.7031 28.2521 45.5961 28.4426 45.4057C28.6331 45.2152 28.7401 44.9569 28.7401 44.6875C28.7401 44.4181 28.6331 44.1598 28.4426 43.9693C28.2521 43.7789 27.9938 43.6719 27.7244 43.6719H9.14062C8.87126 43.6719 8.61294 43.7789 8.42247 43.9693C8.232 44.1598 8.125 44.4181 8.125 44.6875C8.125 44.9569 8.232 45.2152 8.42247 45.4057C8.61294 45.5961 8.87126 45.7031 9.14062 45.7031Z" fill="#CC0444"/>
<path d="M57.1776 52.8125C57.1776 52.5431 57.0706 52.2848 56.8801 52.0943C56.6896 51.9039 56.4313 51.7969 56.1619 51.7969H24.0516C23.7823 51.7969 23.5239 51.9039 23.3335 52.0943C23.143 52.2848 23.036 52.5431 23.036 52.8125C23.036 53.0819 23.143 53.3402 23.3335 53.5307C23.5239 53.7211 23.7823 53.8281 24.0516 53.8281H56.1619C56.4313 53.8281 56.6896 53.7211 56.8801 53.5307C57.0706 53.3402 57.1776 53.0819 57.1776 52.8125Z" fill="#CC0444"/>
<path d="M9.14062 51.7969C8.87126 51.7969 8.61294 51.9039 8.42247 52.0943C8.232 52.2848 8.125 52.5431 8.125 52.8125C8.125 53.0819 8.232 53.3402 8.42247 53.5307C8.61294 53.7211 8.87126 53.8281 9.14062 53.8281H20.3125C20.5819 53.8281 20.8402 53.7211 21.0307 53.5307C21.2211 53.3402 21.3281 53.0819 21.3281 52.8125C21.3281 52.5431 21.2211 52.2848 21.0307 52.0943C20.8402 51.9039 20.5819 51.7969 20.3125 51.7969H9.14062Z" fill="#CC0444"/>
<path d="M57.7676 29.4064L43.404 43.77C43.2625 43.9118 43.1659 44.0923 43.1264 44.2887L42.4083 47.8791C42.3788 48.0265 42.3824 48.1785 42.4187 48.3242C42.4551 48.47 42.5233 48.6059 42.6185 48.7221C42.7137 48.8383 42.8335 48.932 42.9693 48.9963C43.105 49.0606 43.2534 49.0941 43.4036 49.0941C43.4706 49.0938 43.5373 49.087 43.603 49.0738L47.1944 48.3558C47.3909 48.3162 47.5713 48.2196 47.7131 48.0781L62.0761 33.7159C62.3591 33.433 62.5835 33.0972 62.7367 32.7275C62.8899 32.3579 62.9687 31.9617 62.9688 31.5616C62.9688 31.1614 62.89 30.7652 62.737 30.3955C62.5839 30.0258 62.3595 29.6899 62.0766 29.407C61.7937 29.124 61.4578 28.8995 61.0882 28.7464C60.7185 28.5932 60.3223 28.5143 59.9222 28.5143C59.5221 28.5142 59.1259 28.593 58.7562 28.7461C58.3865 28.8992 58.0506 29.1235 57.7676 29.4064ZM46.4942 46.4251L44.6979 46.7842L45.0571 44.989L57.0496 32.9969L58.4858 34.4331L46.4942 46.4251ZM60.6399 32.2787L59.9218 32.9969L58.4857 31.5607L59.2038 30.8426C59.2975 30.7456 59.4096 30.6683 59.5335 30.615C59.6574 30.5618 59.7906 30.5338 59.9255 30.5326C60.0604 30.5315 60.1941 30.5571 60.3189 30.6082C60.4437 30.6593 60.5571 30.7347 60.6525 30.8301C60.7478 30.9254 60.8233 31.0388 60.8743 31.1636C60.9254 31.2884 60.9511 31.4222 60.9499 31.557C60.9487 31.6919 60.9207 31.8252 60.8675 31.9491C60.8143 32.073 60.7369 32.185 60.6399 32.2787Z" fill="#CC0444"/>
</svg>
