<svg width="65" height="65" viewBox="0 0 65 65" fill="none" xmlns="http://www.w3.org/2000/svg">
<path d="M39.3047 19.4899C39.8655 19.9625 40.3979 20.4678 40.8992 21.0031L41.4578 21.643L43.0219 20.3125C42.8086 20.0688 42.6055 19.825 42.382 19.5914C41.8329 18.9989 41.246 18.4425 40.625 17.9258C40.4714 17.7961 40.3637 17.6203 40.318 17.4245C40.2722 17.2287 40.2909 17.0234 40.3711 16.8391C40.5325 16.4812 40.6189 16.0941 40.625 15.7016C40.6284 15.1169 40.4559 14.5446 40.1299 14.0592C39.8039 13.5738 39.3394 13.1977 38.7969 12.9797L35.0086 11.4055C34.6514 11.2541 34.2677 11.175 33.8798 11.1728C33.4918 11.1706 33.1073 11.2453 32.7484 11.3926C32.3895 11.54 32.0634 11.757 31.7889 12.0311C31.5144 12.3053 31.297 12.6311 31.1492 12.9899C31.0795 13.1839 30.9463 13.3487 30.7711 13.4575C30.596 13.5663 30.3892 13.6127 30.1844 13.5891C29.0521 13.4977 27.9143 13.4977 26.782 13.5891C26.582 13.6069 26.3815 13.559 26.2111 13.4527C26.0407 13.3464 25.9095 13.1875 25.8375 13C25.614 12.4509 25.2295 11.9824 24.7346 11.6561C24.2397 11.3298 23.6575 11.161 23.0648 11.1719C22.6737 11.1718 22.2867 11.2513 21.9273 11.4055L18.1289 12.9695C17.7695 13.1164 17.4428 13.333 17.1674 13.6066C16.892 13.8803 16.6734 14.2056 16.5242 14.5641C16.3731 14.926 16.2953 15.3144 16.2953 15.7067C16.2953 16.0989 16.3731 16.4873 16.5242 16.8492C16.581 16.9662 16.6088 17.0951 16.6055 17.225C16.6044 17.3582 16.5748 17.4897 16.5188 17.6106C16.4627 17.7314 16.3815 17.8389 16.2805 17.9258C15.3933 18.6638 14.5773 19.4833 13.843 20.3734C13.7228 20.5185 13.5595 20.6213 13.3768 20.667C13.1941 20.7127 13.0016 20.6988 12.8273 20.6274H12.7258C12.3679 20.4781 11.984 20.4012 11.5962 20.4012C11.2084 20.4012 10.8245 20.478 10.4666 20.6272C10.1087 20.7764 9.78392 20.9951 9.511 21.2705C9.23808 21.546 9.02244 21.8728 8.87655 22.232L7.34296 25.9797C7.19155 26.3369 7.11246 26.7206 7.11025 27.1085C7.10805 27.4964 7.18277 27.881 7.3301 28.2399C7.47744 28.5988 7.69446 28.9249 7.96861 29.1994C8.24277 29.4739 8.56862 29.6913 8.92733 29.8391C9.12048 29.9249 9.28202 30.069 9.38944 30.251C9.49685 30.4331 9.54478 30.6441 9.52655 30.8547C9.43026 31.9935 9.43026 33.1385 9.52655 34.2774C9.54015 34.4742 9.48894 34.6702 9.38074 34.8352C9.27254 35.0003 9.1133 35.1254 8.92733 35.1914C8.56732 35.34 8.24022 35.5582 7.96483 35.8336C7.68944 36.109 7.4712 36.4361 7.32264 36.7961C7.17181 37.1528 7.09409 37.5362 7.09409 37.9234C7.09409 38.3107 7.17181 38.6941 7.32264 39.0508L8.88671 42.8492C9.03361 43.2086 9.25012 43.5354 9.52377 43.8108C9.79742 44.0862 10.1228 44.3047 10.4812 44.4539C10.8432 44.605 11.2316 44.6829 11.6238 44.6829C12.0161 44.6829 12.4044 44.605 12.7664 44.4539C12.9502 44.3864 13.1497 44.3735 13.3407 44.4168C13.5317 44.46 13.7061 44.5576 13.843 44.6977C14.5784 45.584 15.3981 46.397 16.2906 47.125C16.4336 47.2467 16.5357 47.4094 16.5829 47.5912C16.6302 47.7729 16.6203 47.9647 16.5547 48.1406C16.5295 48.1736 16.5122 48.2118 16.5039 48.2524C16.3546 48.6102 16.2778 48.9942 16.2778 49.3819C16.2777 49.7697 16.3546 50.1536 16.5038 50.5115C16.653 50.8694 16.8716 51.1942 17.1471 51.4671C17.4225 51.74 17.7493 51.9557 18.1086 52.1016L21.8969 53.6758C22.2541 53.8272 22.6377 53.9063 23.0257 53.9085C23.4136 53.9107 23.7982 53.836 24.157 53.6886C24.5159 53.5413 24.8421 53.3243 25.1165 53.0501C25.391 52.776 25.6085 52.4501 25.7562 52.0914C25.8421 51.8983 25.9861 51.7367 26.1682 51.6293C26.3502 51.5219 26.5613 51.474 26.7719 51.4922C27.9141 51.5887 29.0624 51.5887 30.2047 51.4922C30.3996 51.4825 30.5925 51.5355 30.7551 51.6433C30.9177 51.7511 31.0416 51.9081 31.1086 52.0914C31.2571 52.4514 31.4754 52.7785 31.7508 53.0539C32.0262 53.3293 32.3533 53.5475 32.7133 53.6961C33.0671 53.8441 33.4469 53.9201 33.8305 53.9195C34.2213 53.9177 34.608 53.8383 34.968 53.6859L38.7664 52.1219C39.1258 51.975 39.4525 51.7585 39.7279 51.4848C40.0033 51.2112 40.2219 50.8858 40.3711 50.5274C40.5222 50.1654 40.6 49.777 40.6 49.3848C40.6 48.9925 40.5222 48.6042 40.3711 48.2422C40.3143 48.1252 40.2865 47.9964 40.2898 47.8664C40.2897 47.7344 40.3187 47.6041 40.3749 47.4847C40.4311 47.3653 40.513 47.2598 40.6148 47.1758C41.2447 46.6438 41.8417 46.074 42.4023 45.4695C42.6156 45.2359 42.8289 45.0024 43.032 44.7586L41.4476 43.3672C41.275 43.5805 41.082 43.7938 40.889 43.9969C40.3913 44.5354 39.8623 45.0441 39.3047 45.5203C38.9743 45.7876 38.7073 46.1248 38.5229 46.5076C38.3385 46.8905 38.2413 47.3095 38.2383 47.7344C38.2344 48.1367 38.3176 48.5351 38.482 48.9024C38.5295 49.0149 38.554 49.1357 38.554 49.2578C38.554 49.3799 38.5295 49.5008 38.482 49.6133C38.4361 49.725 38.3684 49.8265 38.283 49.9119C38.1976 49.9974 38.0961 50.065 37.9844 50.1109L34.1758 51.6852C33.951 51.7761 33.6997 51.7761 33.475 51.6852C33.2402 51.5781 33.055 51.3856 32.957 51.1469C32.7261 50.568 32.3151 50.0787 31.7847 49.7513C31.2543 49.4239 30.6327 49.2758 30.0117 49.3289C28.9982 49.4226 27.9783 49.4226 26.9648 49.3289C26.3257 49.2594 25.6815 49.4016 25.1311 49.7337C24.5806 50.0658 24.1544 50.5694 23.918 51.1672C23.8752 51.2792 23.8098 51.3811 23.726 51.4667C23.6421 51.5523 23.5415 51.6198 23.4305 51.6649C23.2023 51.7564 22.9477 51.7564 22.7195 51.6649L18.9211 50.0805C18.8091 50.0377 18.7072 49.9724 18.6215 49.8885C18.5359 49.8046 18.4685 49.704 18.4234 49.593C18.3445 49.387 18.3445 49.1591 18.4234 48.9531L18.4844 48.8414C18.7252 48.2652 18.7752 47.627 18.6272 47.0203C18.4792 46.4136 18.1408 45.8701 17.6617 45.4695C16.8744 44.811 16.144 44.0874 15.4781 43.3063C15.1984 42.979 14.8488 42.7187 14.455 42.5447C14.0612 42.3707 13.6334 42.2873 13.2031 42.3008C12.8008 42.297 12.4024 42.3801 12.0351 42.5445C11.9227 42.592 11.8018 42.6165 11.6797 42.6165C11.5576 42.6165 11.4367 42.592 11.3242 42.5445C11.2125 42.4986 11.111 42.4309 11.0256 42.3455C10.9401 42.2601 10.8725 42.1586 10.8266 42.0469L9.21171 38.2281C9.12079 38.0034 9.12079 37.7521 9.21171 37.5274C9.31882 37.2926 9.51127 37.1074 9.74999 37.0094C10.3279 36.7771 10.8163 36.3658 11.1435 35.8358C11.4706 35.3057 11.6194 34.6848 11.568 34.0641C11.4768 33.0675 11.4768 32.0646 11.568 31.068C11.578 30.9497 11.578 30.8308 11.568 30.7125C11.5576 30.1231 11.3765 29.5494 11.0466 29.0608C10.7167 28.5723 10.2522 28.19 9.70936 27.9602C9.5974 27.9174 9.49544 27.852 9.40983 27.7682C9.32421 27.6843 9.25677 27.5837 9.21171 27.4727C9.12018 27.2445 9.12018 26.9899 9.21171 26.7617L10.7961 22.9633C10.8388 22.8513 10.9042 22.7494 10.9881 22.6638C11.0719 22.5781 11.1725 22.5107 11.2836 22.4656C11.492 22.381 11.7252 22.381 11.9336 22.4656L12.0351 22.5164C12.6114 22.7572 13.2496 22.8073 13.8563 22.6593C14.463 22.5112 15.0064 22.1729 15.407 21.6938C16.0682 20.9089 16.7916 20.1786 17.5703 19.5102C17.9047 19.2397 18.174 18.8976 18.3586 18.5091C18.5432 18.1206 18.6382 17.6957 18.6367 17.2656C18.6405 16.8633 18.5574 16.4649 18.393 16.0977C18.3455 15.9852 18.321 15.8643 18.321 15.7422C18.321 15.6201 18.3455 15.4992 18.393 15.3867C18.4389 15.275 18.5065 15.1735 18.592 15.0881C18.6774 15.0027 18.7789 14.935 18.8906 14.8891L22.6992 13.3149C22.9229 13.2241 23.1733 13.2255 23.3959 13.3188C23.6185 13.412 23.7952 13.5895 23.8875 13.8125C24.1292 14.4072 24.5561 14.9082 25.1049 15.2411C25.6538 15.5741 26.2953 15.7213 26.9344 15.6609C27.9244 15.5747 28.9201 15.5747 29.9101 15.6609C30.5492 15.7305 31.1935 15.5883 31.7439 15.2562C32.2944 14.9241 32.7206 14.4205 32.957 13.8227C32.9998 13.7107 33.0651 13.6087 33.149 13.5231C33.2329 13.4375 33.3335 13.3701 33.4445 13.325C33.6727 13.2335 33.9273 13.2335 34.1555 13.325L37.9539 14.9094C38.1753 15.0039 38.3517 15.1802 38.4463 15.4016C38.5409 15.623 38.5464 15.8723 38.4617 16.0977C38.228 16.68 38.1837 17.3211 38.335 17.93C38.4863 18.5389 38.8256 19.0847 39.3047 19.4899Z" fill="#CC0444"/>
<path d="M28.4375 20.3125C30.1039 20.3024 31.755 20.6302 33.2911 21.2761C34.8272 21.9219 36.2165 22.8725 37.375 24.0703L38.8273 22.6484C36.8621 20.6032 34.3302 19.1925 31.5569 18.5975C28.7836 18.0026 25.8958 18.2507 23.2646 19.31C20.6334 20.3692 18.3792 22.1911 16.7917 24.5416C15.2041 26.8921 14.3558 29.6636 14.3558 32.5C14.3558 35.3364 15.2041 38.1079 16.7917 40.4584C18.3792 42.8089 20.6334 44.6308 23.2646 45.6901C25.8958 46.7493 28.7836 46.9974 31.5569 46.4025C34.3302 45.8076 36.8621 44.3968 38.8273 42.3516L37.375 40.9297C35.9878 42.4291 34.2485 43.5588 32.3146 44.2164C30.3806 44.874 28.3132 45.0387 26.2995 44.6957C24.2858 44.3526 22.3896 43.5126 20.7825 42.2518C19.1753 40.9909 17.9082 39.3491 17.0957 37.4749C16.2833 35.6008 15.9512 33.5535 16.1297 31.5186C16.3081 29.4838 16.9913 27.5256 18.1175 25.8214C19.2437 24.1172 20.7773 22.7209 22.5793 21.759C24.3813 20.7971 26.3949 20.2999 28.4375 20.3125Z" fill="#CC0444"/>
<path d="M47.1555 16.9L48.75 15.6C44.673 10.7189 38.9714 7.4732 32.693 6.45935L32.368 8.4906C38.1508 9.4164 43.4033 12.4034 47.1555 16.9Z" fill="#CC0444"/>
<path d="M24.5375 8.43982L24.2125 6.40857C18.7306 7.28437 13.6659 9.87073 9.74234 13.798C5.81875 17.7252 3.2371 22.7923 2.36639 28.275L4.39764 28.6C5.20069 23.5455 7.58079 18.8742 11.1978 15.2535C14.8149 11.6328 19.4838 9.24796 24.5375 8.43982Z" fill="#CC0444"/>
<path d="M24.2125 58.5711L24.5375 56.5398C19.6577 55.7437 15.1344 53.4854 11.5656 50.0634C7.99672 46.6415 5.5504 42.2171 4.54999 37.375L2.51874 37.7813C3.60482 43.0354 6.2603 47.8361 10.1339 51.5484C14.0076 55.2606 18.9169 57.7095 24.2125 58.5711Z" fill="#CC0444"/>
<path d="M32.3375 56.5602L32.6625 58.5914C39.418 57.5068 45.4824 53.8259 49.5625 48.3336L47.9375 47.1149C44.1658 52.1745 38.569 55.5631 32.3375 56.5602Z" fill="#CC0444"/>
<path d="M62.532 31.6672L46.282 20.4954C46.1298 20.3897 45.9516 20.3278 45.7667 20.3162C45.5817 20.3046 45.3972 20.3438 45.2329 20.4296C45.0687 20.5154 44.9311 20.6444 44.8349 20.8028C44.7388 20.9612 44.6878 21.1429 44.6875 21.3282V26.4063H30.4688C29.6607 26.4063 28.8857 26.7273 28.3143 27.2987C27.7429 27.8701 27.4219 28.6451 27.4219 29.4532V35.5469C27.4219 36.355 27.7429 37.13 28.3143 37.7014C28.8857 38.2728 29.6607 38.5938 30.4688 38.5938H44.6875V43.6719C44.6875 43.9413 44.7945 44.1996 44.985 44.3901C45.1754 44.5805 45.4338 44.6875 45.7031 44.6875C45.9102 44.6871 46.1122 44.6233 46.282 44.5047L62.532 33.3329C62.6661 33.2393 62.7756 33.1147 62.8512 32.9697C62.9269 32.8247 62.9663 32.6636 62.9663 32.5C62.9663 32.3365 62.9269 32.1754 62.8512 32.0304C62.7756 31.8854 62.6661 31.7608 62.532 31.6672ZM46.7188 41.7422V37.5782C46.7188 37.3088 46.6117 37.0505 46.4213 36.86C46.2308 36.6695 45.9725 36.5625 45.7031 36.5625H30.4688C30.1994 36.5625 29.9411 36.4555 29.7506 36.2651C29.5601 36.0746 29.4531 35.8163 29.4531 35.5469V29.4532C29.4531 29.1838 29.5601 28.9255 29.7506 28.735C29.9411 28.5445 30.1994 28.4375 30.4688 28.4375H45.7031C45.9725 28.4375 46.2308 28.3305 46.4213 28.1401C46.6117 27.9496 46.7188 27.6913 46.7188 27.4219V23.2579L60.1555 32.5L46.7188 41.7422Z" fill="#CC0444"/>
<path d="M2.03125 31.4844H4.0625V33.5156H2.03125V31.4844Z" fill="#CC0444"/>
<path d="M27.4219 6.09375H29.4531V8.125H27.4219V6.09375Z" fill="#CC0444"/>
<path d="M27.4219 56.875H29.4531V58.9062H27.4219V56.875Z" fill="#CC0444"/>
</svg>
