<svg width="60" height="60" viewBox="0 0 60 60" fill="none" xmlns="http://www.w3.org/2000/svg">
<g clip-path="url(#clip0_43_1318)">
<path d="M13.4666 20.6818C12.9315 21.7958 12.6317 23.0442 12.6317 24.3626C12.6317 29.0635 16.4425 32.8743 21.1434 32.8743C25.8443 32.8743 29.6551 29.0635 29.6551 24.3626C29.6551 19.6618 25.8443 15.851 21.1434 15.851C19.11 15.851 17.243 16.564 15.779 17.7538" stroke="#C73E9B" stroke-width="2" stroke-miterlimit="10" stroke-linecap="round" stroke-linejoin="round"/>
<path d="M34.5125 38.9504C31.2287 35.1911 26.4106 32.8743 21.1434 32.8743H19.47C12.1043 32.8743 5.73323 38.0056 4.16386 45.2022C3.69816 47.3378 5.32472 49.3574 7.51062 49.3574H22.9118" stroke="#C73E9B" stroke-width="2" stroke-miterlimit="10" stroke-linecap="round" stroke-linejoin="round"/>
<path d="M22.0267 1.17007L23.5318 3.70144C23.6153 3.84195 23.753 3.94203 23.9125 3.978L26.7851 4.6271C27.2258 4.72671 27.3995 5.26144 27.1015 5.60093L25.1592 7.8146C25.0513 7.93753 24.9987 8.09937 25.0137 8.26214L25.284 11.1948C25.3254 11.6446 24.8705 11.9751 24.4556 11.7966L21.7501 10.6334C21.5998 10.5689 21.4297 10.5689 21.2794 10.6334L18.5739 11.7968C18.1588 11.9752 17.704 11.6448 17.7455 11.1949L18.0158 8.26226C18.0308 8.09949 17.9781 7.93765 17.8703 7.81472L15.9279 5.60105C15.6299 5.26144 15.8037 4.72671 16.2444 4.62722L19.117 3.97812C19.2765 3.94203 19.4142 3.84207 19.4977 3.70156L21.0028 1.17019C21.2336 0.781831 21.7959 0.781831 22.0267 1.17007Z" stroke="#C73E9B" stroke-width="2" stroke-miterlimit="10" stroke-linecap="round" stroke-linejoin="round"/>
<path d="M6.30344 3.1023L7.53614 5.17559C7.60457 5.29066 7.71731 5.37258 7.84797 5.40211L10.2006 5.93379C10.5616 6.01535 10.7038 6.45328 10.4598 6.73137L8.86891 8.54438C8.78055 8.64504 8.73754 8.77758 8.74985 8.91094L8.97122 11.3128C9.0052 11.6813 8.63266 11.952 8.2927 11.8058L6.0768 10.8531C5.95375 10.8002 5.81442 10.8002 5.69137 10.8531L3.47547 11.8058C3.13551 11.952 2.76297 11.6814 2.79696 11.3128L3.01832 8.91094C3.03063 8.77758 2.9875 8.64504 2.89926 8.54438L1.30844 6.73137C1.06434 6.45328 1.20672 6.01535 1.56766 5.93379L3.92032 5.40211C4.05098 5.37258 4.16372 5.29066 4.23215 5.17559L5.46485 3.1023C5.65387 2.78426 6.11442 2.78426 6.30344 3.1023Z" stroke="#C73E9B" stroke-width="2" stroke-miterlimit="10" stroke-linecap="round" stroke-linejoin="round"/>
<path d="M35.957 3.1023L34.7243 5.17559C34.6559 5.29066 34.5431 5.37258 34.4125 5.40211L32.0598 5.93379C31.6989 6.01535 31.5566 6.45328 31.8006 6.73137L33.3914 8.54438C33.4798 8.64504 33.5228 8.77758 33.5105 8.91094L33.2891 11.3128C33.2551 11.6813 33.6276 11.952 33.9676 11.8058L36.1835 10.8531C36.3066 10.8002 36.4459 10.8002 36.5689 10.8531L38.7848 11.8058C39.1248 11.952 39.4973 11.6814 39.4634 11.3128L39.242 8.91094C39.2297 8.77758 39.2728 8.64504 39.361 8.54438L40.9519 6.73137C41.196 6.45328 41.0536 6.01535 40.6926 5.93379L38.34 5.40211C38.2093 5.37258 38.0966 5.29066 38.0282 5.17559L36.7955 3.1023C36.6066 2.78426 36.146 2.78426 35.957 3.1023Z" stroke="#C73E9B" stroke-width="2" stroke-miterlimit="10" stroke-linecap="round" stroke-linejoin="round"/>
<path d="M56.3837 44.5445H53.4985M56.3837 49.4034H53.4985M56.3837 54.2623H53.4985M58.8132 42.1151C58.8132 40.7734 57.7255 39.6857 56.3838 39.6857L47.554 39.6721C46.3971 39.6703 45.4601 38.7319 45.4601 37.575V31.3011C45.4601 30.0072 44.7961 28.8035 43.7011 28.1135C42.8271 27.5627 41.668 28.0031 41.3776 28.9947L37.8686 40.9763C37.3064 42.8961 35.5455 44.2153 33.5449 44.2153H31.1449V56.7486H34.8569C36.8202 56.7486 38.773 57.1188 40.5735 57.9016C42.3661 58.6811 44.2998 59.0832 46.2542 59.0832L56.3837 59.1212C57.7255 59.1212 58.8131 58.0336 58.8131 56.6918C58.8131 55.3501 57.7254 54.2624 56.3837 54.2624C57.7255 54.2624 58.8131 53.1747 58.8131 51.833C58.8131 50.4912 57.7254 49.4036 56.3837 49.4036C57.7255 49.4036 58.8131 48.3158 58.8131 46.9741C58.8131 45.6325 57.7254 44.5447 56.3837 44.5447C57.7255 44.5445 58.8132 43.4568 58.8132 42.1151Z" stroke="#C73E9B" stroke-width="2" stroke-miterlimit="10" stroke-linecap="round" stroke-linejoin="round"/>
<path d="M30.1809 58.6191H24.3679C23.8355 58.6191 23.4038 58.1875 23.4038 57.655V42.8343C23.4038 42.302 23.8354 41.8702 24.3679 41.8702H30.1809C30.7133 41.8702 31.145 42.3018 31.145 42.8343V57.655C31.145 58.1875 30.7134 58.6191 30.1809 58.6191Z" stroke="#C73E9B" stroke-width="2" stroke-miterlimit="10" stroke-linecap="round" stroke-linejoin="round"/>
</g>
<defs>
<clipPath id="clip0_43_1318">
<rect width="60" height="60" fill="white"/>
</clipPath>
</defs>
</svg>
