<svg width="60" height="60" viewBox="0 0 60 60" fill="none" xmlns="http://www.w3.org/2000/svg">
<g clip-path="url(#clip0_1_321)">
<path d="M47.3914 14.8449C47.5576 15.1149 47.846 15.2632 48.1412 15.2632C48.2983 15.2632 48.4571 15.2211 48.6008 15.1328L53.3652 12.2022C53.7786 11.9481 53.9077 11.4066 53.6532 10.9932C53.3991 10.5799 52.8576 10.4508 52.4438 10.7053L47.6798 13.6359C47.2665 13.89 47.1374 14.4315 47.3914 14.8449Z" fill="#C73E9B"/>
<path d="M59.2062 20.6845L52.2216 20.0061C51.7387 19.9585 51.3089 20.3128 51.2617 20.7958C51.215 21.2792 51.5684 21.709 52.0518 21.7557L59.0359 22.4341C59.0652 22.4368 59.0936 22.4382 59.122 22.4382C59.5692 22.4382 59.9519 22.0986 59.9958 21.6445C60.0425 21.1615 59.6891 20.7317 59.2062 20.6845Z" fill="#C73E9B"/>
<path d="M43.8254 8.70689C43.9298 8.74763 44.0378 8.76731 44.1435 8.76731C44.4956 8.76731 44.8279 8.55445 44.9629 8.20655L47.5067 1.66649C47.683 1.21422 47.4587 0.704728 47.0064 0.528947C46.5541 0.353166 46.0446 0.577012 45.8688 1.02928L43.3246 7.56934C43.1488 8.02161 43.3727 8.53111 43.8254 8.70689Z" fill="#C73E9B"/>
<path d="M37.6176 3.86268C37.0271 2.90641 35.7692 2.60795 34.8124 3.19847L33.7609 3.84712C33.2972 4.13276 32.9731 4.58228 32.8477 5.11192C32.7223 5.64201 32.8106 6.18903 33.0963 6.65229L33.701 7.6319L19.8807 24.7413L16.962 26.5421C16.5491 26.7971 16.4209 27.3386 16.6759 27.7515C16.842 28.0207 17.13 28.169 17.4248 28.169C17.5818 28.169 17.7415 28.1269 17.8853 28.0381L20.1837 26.6199L24.6629 33.8796C24.0156 33.8375 23.3702 33.9716 22.7838 34.2728C22.7733 34.2778 22.7632 34.2833 22.7527 34.2888C22.6739 34.3305 22.5956 34.374 22.5192 34.4211L19.8912 36.0508C19.6028 36.2297 19.3368 36.4412 19.0951 36.6779C18.8026 36.964 18.5467 37.2867 18.3398 37.6392L17.6912 38.617L17.2142 39.3347C17.2101 39.3334 17.2055 39.332 17.2018 39.3306C17.1945 39.3274 17.1876 39.3238 17.1803 39.3206C17.1432 39.3041 17.1066 39.2858 17.0714 39.2661C17.0636 39.262 17.0563 39.2578 17.0489 39.2537C17.01 39.2304 16.972 39.2052 16.9359 39.1782C16.9281 39.1727 16.9208 39.1667 16.9134 39.1608C16.8805 39.1352 16.848 39.1077 16.8173 39.0784C16.8136 39.0747 16.8095 39.0715 16.8059 39.0679C16.7729 39.0358 16.7418 39.001 16.712 38.9653C16.7056 38.9575 16.6997 38.9493 16.6932 38.9415C16.664 38.904 16.636 38.8655 16.6109 38.8248L12.8128 32.6693C12.6333 32.3786 12.578 32.0357 12.6567 31.7038C12.7354 31.3715 12.9387 31.09 13.2289 30.911L14.366 30.2097C14.7789 29.9547 14.9075 29.4132 14.6525 29.0003C14.3976 28.5869 13.856 28.4588 13.4431 28.7137L12.306 29.415C11.6162 29.8407 11.1333 30.5095 10.946 31.2987C10.8256 31.8082 10.8385 32.3282 10.9767 32.8185L10.1312 33.3403C9.00008 34.0384 8.6476 35.5266 9.34569 36.6582L11.4908 40.1349C11.8286 40.6829 12.3601 41.066 12.9867 41.2148C13.1726 41.2587 13.3603 41.2807 13.547 41.2807C13.9888 41.2807 14.4227 41.1585 14.8082 40.9204L15.655 40.3981C15.8317 40.5588 16.0254 40.6975 16.2332 40.8119L13.7929 44.4878L13.2175 44.8805C13.0975 44.8197 12.9657 44.7812 12.8274 44.7693C12.5445 44.7455 12.2699 44.8325 12.0534 45.0147L10.5391 46.2891C10.1861 46.0639 9.72335 46.0602 9.3608 46.3074C9.34386 46.3193 9.32692 46.3312 9.3109 46.344L0.785522 53.0736C0.286102 53.4677 0 54.0587 0 54.6945V57.4324C0 58.5709 0.926513 59.4974 2.06497 59.4974H16.0112C16.6401 59.4974 17.227 59.2163 17.6211 58.7256L18.7774 57.2868C18.9798 57.0552 19.0658 56.7586 19.0352 56.4707L20.5911 55.161C20.7431 55.0333 20.8525 54.8694 20.9138 54.6858L24.5004 55.421C24.5535 55.432 24.6071 55.4379 24.6611 55.4389C24.7659 55.4407 24.8703 55.4421 24.9746 55.4421C25.8247 55.4421 26.6693 55.356 27.5569 54.8195L31.17 52.6676C31.2304 52.6712 31.2909 52.6735 31.3508 52.6735C31.8722 52.6735 32.3858 52.5302 32.8422 52.251L35.7449 50.4767C37.0948 49.6518 37.5224 47.8821 36.6975 46.5322C36.416 46.0707 36.0177 45.7091 35.5471 45.4711C36.0026 44.5981 36.004 43.5137 35.4542 42.6137C35.055 41.9605 34.4274 41.5 33.6854 41.3141C33.8388 40.6101 33.733 39.8488 33.3288 39.1869C32.947 38.5611 32.3547 38.1153 31.6548 37.9143C31.8461 37.1791 31.7518 36.3703 31.3256 35.6722C31.2149 35.4909 31.0853 35.3261 30.942 35.176L48.3572 31.3852L48.9619 32.3648C49.3469 32.9888 50.0157 33.3326 50.7 33.3326C51.0648 33.3326 51.4343 33.2351 51.7671 33.0295L52.8185 32.3809C53.2818 32.0948 53.6063 31.6457 53.7318 31.1156C53.8572 30.586 53.7689 30.0389 53.4828 29.5752L37.6176 3.86268ZM13.8858 39.4245C13.737 39.516 13.5617 39.5444 13.3923 39.5041C13.2225 39.4638 13.0788 39.3599 12.9867 39.2116L10.8417 35.7349C10.6526 35.4287 10.7483 35.0254 11.0545 34.8358L11.8002 34.3758L14.6315 38.964L13.8858 39.4245ZM16.2506 57.6247C16.192 57.6979 16.105 57.7396 16.0112 57.7396H2.06497C1.8956 57.7396 1.75781 57.6018 1.75781 57.4324V54.6945C1.75781 54.5998 1.80038 54.5119 1.87454 54.4533L9.87075 48.1412L17.0778 56.5956L16.2506 57.6247ZM18.0377 55.0122L11.716 47.596L12.6521 46.8082L18.9267 54.2647L18.0377 55.0122ZM26.6528 53.3121C26.1163 53.6366 25.6128 53.6939 24.7732 53.6829L20.2702 52.7596C20.1635 52.7376 20.056 52.7358 19.9521 52.7527L14.4246 46.1847L14.9254 45.8428C14.9258 45.8428 14.9263 45.8423 14.9272 45.8418C14.9354 45.8359 14.9437 45.829 14.9519 45.8231C14.9707 45.8089 14.9895 45.7947 15.0068 45.7796C15.0155 45.7718 15.0238 45.7636 15.032 45.7558C15.0499 45.7393 15.0664 45.7224 15.0824 45.7045C15.0888 45.6977 15.0957 45.6903 15.1016 45.683C15.1213 45.6592 15.1401 45.6349 15.157 45.6098C15.1588 45.6075 15.1607 45.6056 15.162 45.6034L15.1661 45.5974C15.1675 45.5951 15.1689 45.5928 15.1703 45.5905L19.8184 38.59C19.8285 38.5749 19.8381 38.5593 19.8472 38.5437C20.0816 38.1386 20.4172 37.7935 20.8177 37.5449L23.4457 35.9153C23.4942 35.885 23.5437 35.858 23.5936 35.8329C23.616 35.8214 23.6389 35.8118 23.6613 35.8013C23.6879 35.7894 23.714 35.7775 23.741 35.7669C23.7716 35.7546 23.8023 35.7431 23.8339 35.7326C23.8499 35.7267 23.8664 35.7216 23.8829 35.7166C23.9213 35.7047 23.9602 35.6932 23.9991 35.6836H23.9996C24.1411 35.6493 24.2848 35.6324 24.4281 35.6314C24.4313 35.6314 24.4345 35.6314 24.4372 35.6314C24.4793 35.6314 24.521 35.6333 24.5627 35.636C24.5759 35.6374 24.5892 35.6383 24.6029 35.6397C24.64 35.6429 24.6766 35.647 24.7133 35.6525C24.7348 35.6557 24.7567 35.6603 24.7787 35.6644C24.8346 35.6749 24.89 35.6882 24.9444 35.7042C24.9655 35.7102 24.987 35.7157 25.0076 35.7221C25.0355 35.7317 25.0625 35.7422 25.09 35.7532C25.1115 35.7614 25.1335 35.7697 25.1545 35.7788C25.1815 35.7903 25.2086 35.8031 25.2351 35.8164C25.2552 35.8264 25.2749 35.8365 25.2942 35.847C25.3207 35.8612 25.3473 35.8763 25.3734 35.8924C25.3912 35.9034 25.4086 35.9148 25.426 35.9262C25.4521 35.9436 25.4782 35.961 25.5034 35.9803C25.5189 35.9917 25.5336 36.0041 25.5482 36.016C25.5743 36.0366 25.5999 36.0572 25.6247 36.0796C25.7446 36.1876 25.8499 36.3121 25.9359 36.4527L26.0005 36.5584L26.9375 38.0873L28.1135 40.0063L28.4124 40.4947C28.4408 40.541 28.4642 40.589 28.482 40.6389C28.537 40.7891 28.5457 40.9529 28.5067 41.115C28.4509 41.348 28.304 41.5476 28.0934 41.6762L27.5647 41.9994L27.5642 41.9998C27.5276 42.0218 27.4905 42.0406 27.4521 42.0571C27.4438 42.0607 27.4356 42.0644 27.4273 42.0676C27.3893 42.0832 27.3509 42.096 27.312 42.106C27.3074 42.1074 27.3024 42.1083 27.2978 42.1092C27.2612 42.1179 27.2245 42.1244 27.1879 42.1285C27.1806 42.1294 27.1737 42.1303 27.1664 42.1312C27.127 42.1344 27.0877 42.1353 27.0488 42.134C27.0414 42.1335 27.0341 42.1331 27.0268 42.1326C26.987 42.1298 26.9476 42.1253 26.9087 42.1175C26.9082 42.117 26.9078 42.117 26.9073 42.117C26.8657 42.1083 26.8254 42.0964 26.7856 42.0818C26.7819 42.0804 26.7787 42.0795 26.775 42.0781C26.6935 42.047 26.6166 42.003 26.5475 41.9467C26.5471 41.9467 26.5471 41.9463 26.5471 41.9463C26.5123 41.9179 26.4811 41.8877 26.4523 41.8556C26.45 41.8529 26.4477 41.8502 26.445 41.8469C26.4175 41.8149 26.3919 41.7815 26.3704 41.7458L25.4942 40.3134C25.1678 39.7797 24.6501 39.4052 24.0362 39.2597C23.4073 39.11 22.7554 39.2171 22.2015 39.5609C21.9786 39.6991 21.8293 39.9294 21.7936 40.1889C21.7836 40.264 21.7712 40.3377 21.7579 40.4105C21.7479 40.4636 21.7364 40.5162 21.7245 40.5684C21.7209 40.5858 21.7172 40.6037 21.7131 40.6211C21.6975 40.687 21.6806 40.752 21.6618 40.8161C21.6614 40.8184 21.6604 40.8211 21.6595 40.8238C21.5611 41.1612 21.4229 41.4739 21.2452 41.7581C21.2448 41.7586 21.2448 41.7591 21.2448 41.7595C20.9175 42.2841 20.4551 42.7277 19.8491 43.0962C19.4343 43.3484 19.3025 43.889 19.5547 44.3038C19.807 44.7185 20.3476 44.8503 20.7623 44.5981C21.1903 44.3376 21.5698 44.0456 21.9017 43.7238L25.572 49.5122C26.2481 50.5609 27.4168 51.1693 28.6258 51.1693C28.6898 51.1693 28.7539 51.1661 28.818 51.1624C28.8432 51.2082 28.8688 51.2535 28.8963 51.2988C28.9998 51.4678 29.1188 51.6234 29.2511 51.7648L26.6528 53.3121ZM27.3985 46.8503C27.3985 46.8508 27.399 46.8512 27.399 46.8517C27.4136 46.8929 27.4296 46.9332 27.4466 46.9739C27.4484 46.9785 27.4502 46.9835 27.4525 46.9885C27.4676 47.0252 27.4841 47.0613 27.501 47.0975C27.5052 47.1053 27.5084 47.114 27.5125 47.1222C27.5285 47.1561 27.5464 47.1895 27.5637 47.2229C27.5692 47.233 27.5738 47.2431 27.5793 47.2527C27.6027 47.2957 27.6274 47.3383 27.653 47.3804C27.697 47.4527 27.745 47.5218 27.7945 47.5891C27.8123 47.6129 27.8306 47.6363 27.8489 47.6596C27.8814 47.7008 27.9149 47.7406 27.9492 47.78C27.9734 47.8075 27.9973 47.8359 28.0224 47.8624C28.0412 47.8826 28.0618 47.9009 28.0815 47.9206C28.1524 47.9915 28.2266 48.0583 28.3044 48.1215C28.3126 48.1279 28.3204 48.1348 28.3287 48.1407C28.4797 48.2607 28.6418 48.3646 28.8144 48.452C28.6555 48.7509 28.5507 49.075 28.504 49.4087C27.9245 49.3726 27.3761 49.0672 27.0529 48.5655L23.0122 42.193C23.1994 41.8062 23.3436 41.3933 23.4416 40.9534C23.5043 40.9497 23.5675 40.9552 23.6297 40.9699C23.7845 41.0065 23.914 41.0994 23.9946 41.2308L24.8707 42.6631C24.8721 42.665 24.8735 42.6668 24.8748 42.6691C24.9179 42.7391 24.9641 42.8069 25.014 42.8723C25.0506 42.9204 25.09 42.9653 25.1294 43.0101C25.1431 43.0257 25.1555 43.0426 25.1696 43.0582C25.1715 43.066 25.1738 43.0738 25.1756 43.0815C25.1893 43.1424 25.2049 43.2028 25.2223 43.2628C25.2278 43.2802 25.2328 43.2976 25.2379 43.315C25.2594 43.3827 25.2823 43.45 25.3088 43.516C25.3111 43.5228 25.3143 43.5292 25.317 43.5356C25.3413 43.5961 25.3683 43.6551 25.3972 43.7137C25.4054 43.7306 25.4136 43.7476 25.4223 43.7641C25.4553 43.8281 25.4896 43.8913 25.5272 43.9536C25.9259 44.6063 26.5525 45.0659 27.2932 45.2527C27.1788 45.7764 27.2108 46.3307 27.3985 46.8503ZM27.9593 36.39L28.2545 36.2096C28.515 36.0503 28.8217 36.0022 29.1188 36.0736C29.4154 36.1455 29.6663 36.3282 29.8251 36.5886C30.1533 37.126 29.9835 37.8305 29.4461 38.1588L29.1526 38.3382L28.2838 36.9205L27.9593 36.39ZM34.5094 46.9473C34.7982 47.0169 35.0422 47.195 35.1974 47.4486C35.5169 47.9718 35.3512 48.6575 34.828 48.9775L31.9253 50.7518C31.6923 50.8942 31.4213 50.9441 31.1544 50.8974C31.1393 50.8942 31.1238 50.8905 31.1082 50.8882C31.1004 50.8864 31.0922 50.8855 31.0844 50.8837C30.7951 50.8141 30.5511 50.636 30.3959 50.3824C30.3263 50.2684 30.2815 50.1471 30.2563 50.0235C30.2559 50.0199 30.2559 50.0166 30.2549 50.0134C30.1854 49.6523 30.3016 49.2833 30.5497 49.027C30.5566 49.0201 30.563 49.0128 30.5699 49.0064C30.5827 48.994 30.596 48.9821 30.6092 48.9702C30.6225 48.9583 30.6363 48.9464 30.6509 48.9354C30.6614 48.9267 30.6715 48.9185 30.6825 48.9102C30.7086 48.891 30.7347 48.8727 30.7626 48.8553C30.7635 48.8548 30.7644 48.8544 30.7649 48.8539L31.3417 48.5015C31.4433 48.4543 31.5431 48.4026 31.6401 48.3435L33.8607 46.9858C34.0667 46.9089 34.2906 46.8947 34.5094 46.9473ZM32.4874 43.0948C32.7237 42.9817 32.9892 42.9534 33.2473 43.0156C33.544 43.087 33.7948 43.2701 33.9541 43.5306C34.2823 44.068 34.112 44.7721 33.5751 45.1003L33.0523 45.4198C32.9498 45.4669 32.8491 45.52 32.7516 45.5795L30.5424 46.9295C30.13 47.0915 29.6658 46.9963 29.3504 46.7052C29.3499 46.7047 29.3499 46.7047 29.3499 46.7047C29.3252 46.6818 29.3019 46.6585 29.2794 46.6333C29.2735 46.6265 29.268 46.6191 29.262 46.6123C29.2456 46.593 29.2291 46.5738 29.2135 46.5532C29.192 46.5244 29.1719 46.4946 29.1526 46.4639C29.1334 46.4319 29.116 46.3999 29.1 46.3669C29.095 46.3564 29.0908 46.3458 29.0858 46.3349C29.0757 46.3124 29.0657 46.2895 29.057 46.2662C29.0524 46.2538 29.0487 46.2419 29.0446 46.2296C29.0373 46.2071 29.0304 46.1852 29.0245 46.1627C29.0213 46.1504 29.0181 46.1376 29.0153 46.1252C29.0103 46.1028 29.0057 46.0799 29.0016 46.0565C28.9998 46.0446 28.9979 46.0327 28.9961 46.0208C28.9929 45.997 28.9906 45.9732 28.9892 45.9494C28.9883 45.938 28.9874 45.9265 28.9869 45.9151C28.986 45.8904 28.986 45.8657 28.9869 45.8414C28.9869 45.8304 28.9869 45.8199 28.9878 45.8093C28.9888 45.7842 28.992 45.7595 28.9947 45.7347C28.9961 45.7242 28.9965 45.7137 28.9984 45.7031C29.0016 45.6812 29.0062 45.6592 29.0107 45.6372C29.0606 45.4019 29.1838 45.1818 29.3769 45.0128C29.3847 45.006 29.3916 44.9977 29.3994 44.9909C29.4104 44.9813 29.4209 44.9716 29.4323 44.9625C29.4598 44.9469 29.4877 44.9327 29.5147 44.9163L32.3666 43.1731C32.4078 43.1479 32.4481 43.1218 32.4874 43.0948ZM31.1219 39.5883C31.4186 39.6598 31.6694 39.8429 31.8287 40.1033C32.1345 40.6041 32.0073 41.25 31.5536 41.6016C31.5243 41.6176 31.4955 41.6341 31.4666 41.6515L29.2648 42.9973C29.2721 42.9918 29.279 42.9854 29.2863 42.9795C29.3284 42.946 29.3705 42.9122 29.4099 42.8765C29.4346 42.8545 29.458 42.8311 29.4818 42.8083C29.5175 42.7735 29.5532 42.7382 29.5871 42.7011C29.6104 42.6764 29.6324 42.6503 29.6544 42.6247C29.6859 42.5872 29.7171 42.5496 29.7464 42.5107C29.767 42.4837 29.7876 42.4562 29.8072 42.4279C29.8352 42.388 29.8617 42.3473 29.8878 42.3056C29.9057 42.2768 29.9235 42.2484 29.94 42.2191C29.9652 42.1752 29.9881 42.1298 30.0105 42.0845C30.0247 42.0557 30.0398 42.0278 30.0526 41.9985C30.0755 41.9477 30.0956 41.8955 30.1158 41.8428C30.1249 41.8177 30.1359 41.7929 30.1446 41.7673C30.1716 41.6881 30.1959 41.608 30.2156 41.5261C30.2343 41.4478 30.249 41.369 30.2604 41.2903C30.2641 41.2651 30.2659 41.24 30.2691 41.2148C30.2755 41.1608 30.2806 41.1072 30.2838 41.0532C30.2852 41.0239 30.2856 40.9946 30.2861 40.9653C30.2874 40.9149 30.287 40.865 30.2852 40.8152C30.2842 40.7854 30.2824 40.7556 30.2806 40.7259C30.2769 40.6755 30.271 40.6252 30.2646 40.5753C30.2609 40.5474 30.2577 40.5194 30.2531 40.492C30.2435 40.4352 30.2316 40.3794 30.2179 40.3235C30.2133 40.3034 30.2096 40.2828 30.2046 40.2626C30.1844 40.1871 30.1616 40.1125 30.1345 40.0388C30.1291 40.0246 30.1226 40.0104 30.1167 39.9958C30.0975 39.9463 30.0787 39.8964 30.0563 39.8479L30.2581 39.7243C30.5186 39.565 30.8253 39.5169 31.1219 39.5883ZM52.0211 30.7109C52.011 30.7531 51.9813 30.8318 51.8952 30.8849L50.8437 31.534C50.7124 31.615 50.5389 31.5743 50.4574 31.4425L39.3873 13.5009C39.1328 13.088 38.5913 12.9598 38.1779 13.2143C37.765 13.4693 37.6368 14.0108 37.8918 14.4237L47.3789 29.7995L26.9545 34.2458L21.5451 25.4783L34.6797 9.21805L35.7408 10.9383C35.9957 11.3512 36.5373 11.4794 36.9502 11.2249C37.3635 10.9699 37.4917 10.4284 37.2367 10.015L34.5922 5.72944C34.5391 5.64338 34.5478 5.55961 34.5579 5.51749C34.568 5.47492 34.5977 5.39619 34.6838 5.34309L35.7353 4.69444C35.8671 4.61295 36.0401 4.65415 36.1216 4.78599L51.9868 30.499C52.0399 30.5851 52.0312 30.6688 52.0211 30.7109Z" fill="#C73E9B"/>
</g>
<defs>
<clipPath id="clip0_1_321">
<rect width="60" height="60" fill="white"/>
</clipPath>
</defs>
</svg>
