<svg width="60" height="60" viewBox="0 0 60 60" fill="none" xmlns="http://www.w3.org/2000/svg">
<path d="M57.7151 16.6182L33.3681 6.18358C31.2276 5.26627 28.7712 5.26699 26.6281 6.18537L2.28632 16.6176C0.87612 17.2219 0 18.5503 0 20.0844C0 21.6177 0.875522 22.9454 2.28488 23.5494L5.16226 24.7826C5.15927 24.8123 5.15771 24.8425 5.15771 24.8729V38.4893C4.0455 38.865 3.24217 39.9176 3.24217 41.155C3.24217 41.8724 3.5125 42.5276 3.95607 43.0252C3.46545 43.5061 3.13969 44.1581 3.07241 44.8969L2.38305 52.4803C2.336 52.9983 2.5102 53.5155 2.86086 53.8996C3.21152 54.2836 3.711 54.5039 4.23107 54.5039H7.88006C8.40012 54.5039 8.8996 54.2836 9.25027 53.8996C9.60105 53.5155 9.77512 52.9982 9.72807 52.4803L9.03872 44.8969C8.97155 44.1582 8.64567 43.5062 8.15505 43.0252C8.59862 42.5277 8.86895 41.8725 8.86895 41.155C8.86895 39.9177 8.06562 38.8651 6.95341 38.4893V25.5503L11.8665 27.656C11.8635 27.6856 11.862 27.7157 11.862 27.7461V34.6017C11.862 37.4629 13.8211 40.1098 17.3786 42.0551C20.7646 43.9064 25.2469 44.9261 29.9998 44.9261C34.7526 44.9261 39.2349 43.9064 42.6209 42.0551C46.1783 40.1098 48.1375 37.4629 48.1375 34.6017V27.7461C48.1375 27.7157 48.136 27.6856 48.133 27.6561L57.7136 23.5501C59.1238 22.9458 59.9999 21.6172 59.9999 20.0832C60 18.5499 59.1245 17.2222 57.7151 16.6182ZM7.92423 52.6886C7.90651 52.7081 7.88724 52.7081 7.88006 52.7081H4.23107C4.22377 52.7081 4.20461 52.7081 4.18689 52.6886C4.16905 52.6691 4.17085 52.65 4.17145 52.6429L4.8608 45.0595C4.91743 44.4375 5.43104 43.9685 6.05562 43.9685C6.68009 43.9685 7.19369 44.4375 7.25032 45.0595L7.93968 52.6427C7.94039 52.65 7.94207 52.6691 7.92423 52.6886ZM6.05562 42.1726C5.49449 42.1726 5.03799 41.7161 5.03799 41.155C5.03799 40.5939 5.49449 40.1374 6.05562 40.1374C6.61676 40.1374 7.07325 40.5939 7.07325 41.155C7.07325 41.7161 6.61676 42.1726 6.05562 42.1726ZM46.3418 30.7707C46.3418 33.0926 44.4308 35.3595 41.0989 36.9903C40.6534 37.2083 40.4691 37.7461 40.6872 38.1914C40.8429 38.5099 41.1622 38.6949 41.4943 38.6949C41.6269 38.6949 41.7613 38.6654 41.8884 38.6031C43.7366 37.6986 45.2173 36.5967 46.273 35.3715C45.9363 37.265 44.364 39.0555 41.7596 40.4795C38.6332 42.189 34.457 43.1304 30 43.1304C25.543 43.1304 21.3668 42.189 18.2404 40.4795C15.6454 39.0606 14.0747 37.2779 13.7304 35.392C14.638 36.4382 15.8626 37.395 17.3787 38.2241C20.7647 40.0755 25.2471 41.0951 29.9999 41.0951C31.3295 41.0951 32.6557 41.0142 33.9415 40.8547C34.4336 40.7937 34.7831 40.3453 34.722 39.8532C34.661 39.361 34.2132 39.0114 33.7205 39.0726C32.5077 39.2231 31.2559 39.2993 29.9999 39.2993C25.5429 39.2993 21.3667 38.358 18.2403 36.6485C15.2853 35.0327 13.6579 32.9454 13.6579 30.7707V28.4237L26.6319 33.9842C27.7015 34.4426 28.8498 34.6717 29.9988 34.6717C31.1491 34.6717 32.2998 34.442 33.372 33.9825L46.3418 28.424V30.7707ZM57.0062 21.8995L32.6644 32.3317C30.9711 33.0574 29.0301 33.058 27.3393 32.3335L8.73582 24.3604L25.7816 21.3958C26.5483 22.3032 28.1108 22.8974 29.9999 22.8974C32.6959 22.8974 34.7289 21.6878 34.7289 20.0839C34.7289 18.48 32.6959 17.2705 29.9999 17.2705C27.5513 17.2705 25.6499 18.2682 25.3215 19.6529L5.90178 23.0303C5.84479 23.0402 5.79032 23.0557 5.73812 23.0754L2.99243 21.8986C2.2431 21.5777 1.79582 20.8994 1.79582 20.0844C1.79582 19.2686 2.2437 18.5896 2.99375 18.2681L27.3355 7.83585C28.183 7.47274 29.0923 7.29112 30.0013 7.29112C30.9088 7.29112 31.8161 7.47214 32.6607 7.83406L57.0077 18.2687C57.7569 18.5898 58.2042 19.2682 58.2042 20.0831C58.2042 20.8991 57.7563 21.5781 57.0062 21.8995ZM27.0667 20.0841C27.0667 19.8225 28.0752 19.0664 29.9999 19.0664C31.9245 19.0664 32.9331 19.8225 32.9331 20.0841C32.9331 20.3456 31.9245 21.1017 29.9999 21.1017C28.0752 21.1017 27.0667 20.3455 27.0667 20.0841Z" fill="#C73E9B"/>
<path d="M36.7035 40.356C36.7704 40.356 36.8384 40.3485 36.9064 40.3328C37.584 40.1762 38.2516 39.9944 38.8905 39.7922C39.3633 39.6427 39.6254 39.1382 39.4758 38.6654C39.3263 38.1926 38.8219 37.9303 38.3489 38.08C37.7551 38.2678 37.1337 38.437 36.5022 38.5829C36.019 38.6945 35.7178 39.1766 35.8294 39.6598C35.9254 40.0751 36.2949 40.356 36.7035 40.356Z" fill="#C73E9B"/>
</svg>
