<svg width="60" height="60" viewBox="0 0 60 60" fill="none" xmlns="http://www.w3.org/2000/svg">
<g clip-path="url(#clip0_1_238)">
<path d="M30.0001 6.08329C40.2537 6.08329 47.2199 9.42208 50.7052 16.0068C50.9326 16.4367 51.4655 16.6008 51.8956 16.3733C52.3255 16.1457 52.4895 15.6129 52.2619 15.1829C48.4474 7.97622 40.9576 4.32208 30.0001 4.32208C20.3817 4.32208 13.4047 7.1599 9.2628 12.7567C6.11503 17.01 4.64807 22.9486 5.02026 29.9306C5.29881 35.1561 6.48381 39.0833 6.53409 39.2479C6.53866 39.2628 6.54358 39.2776 6.54897 39.2924L7.78952 42.694C7.78987 42.6948 7.7901 42.6955 7.79034 42.6963L13.3238 57.8693L13.3252 57.8731L13.4169 58.1244C10.943 57.6845 8.8619 56.0024 7.92452 53.592L6.05585 48.7869C5.36526 47.0108 5.17131 45.0794 5.49499 43.2016C5.52006 43.0561 5.50811 42.9064 5.4603 42.7667C5.44307 42.7166 3.7367 37.6768 3.15194 31.1901C2.80999 27.3956 2.91581 23.8663 3.46671 20.7001C4.14792 16.784 5.51585 13.4186 7.53253 10.6976C7.82221 10.3067 7.74018 9.75536 7.34936 9.46568C6.95831 9.17599 6.40682 9.25814 6.11749 9.64884C3.93815 12.5893 2.46335 16.2014 1.73385 20.3846C1.15588 23.6992 1.04198 27.3797 1.39565 31.3236C1.93471 37.3358 3.38186 42.0686 3.72323 43.1233C3.39698 45.2465 3.63475 47.4205 4.41417 49.4251L6.28284 54.2302C6.94647 55.9369 8.09631 57.3854 9.60768 58.4193C11.1189 59.4532 12.8857 59.9997 14.7169 59.9997C15.3097 60.0163 15.763 59.3686 15.5443 58.8174L15.4969 58.6877L20.3582 59.4712C20.5058 59.4962 20.6589 59.4785 20.8 59.4292L24.2593 58.1675C25.3613 57.7657 26.2408 56.9588 26.7358 55.8954C27.2308 54.832 27.282 53.6396 26.8802 52.5377L23.8286 44.1703C23.6621 43.7134 23.1565 43.4776 22.6996 43.6447C22.2427 43.8113 22.0074 44.3168 22.174 44.7737L25.2256 53.1411C25.4663 53.8011 25.4356 54.5152 25.1391 55.152C24.8426 55.7888 24.316 56.2721 23.656 56.5128L21.024 57.4727L13.9379 38.0428L16.5699 37.0829C17.9326 36.5865 19.445 37.2902 19.9417 38.6526L20.963 41.4529C21.4045 42.538 22.9795 41.9531 22.6176 40.8494L21.5963 38.0491C20.7667 35.7745 18.2412 34.5985 15.9665 35.4283L12.5174 36.6862C12.373 36.7378 12.2425 36.827 12.1419 36.9423L8.92647 40.6713L8.21233 38.7131C8.12046 38.4027 7.02862 34.625 6.77655 29.7922C6.53819 25.2235 7.02229 18.7404 10.6825 13.7987C14.4747 8.67923 20.974 6.08329 30.0001 6.08329ZM12.4958 39.229L19.1568 57.4936L14.8058 56.7923L9.61788 42.5667L12.4958 39.229Z" fill="#C73E9B"/>
<path d="M58.3119 20.6542C57.6222 16.4958 56.2041 12.8924 54.097 9.94383C49.3818 3.34559 41.2746 0 30.0007 0H29.9992C20.6402 0 13.4283 2.3202 8.56436 6.89613C7.74241 7.725 8.89565 8.94809 9.77104 8.17887C14.2976 3.92039 21.1033 1.76121 30.0005 1.76121C40.6705 1.76121 48.2944 4.85719 52.6606 10.9631C57.0952 17.1647 57.379 25.4541 56.8362 31.316C56.2423 37.7289 54.5564 42.7174 54.5394 42.7671C54.4917 42.9068 54.4797 43.0562 54.5048 43.2015C54.8285 45.0793 54.6346 47.0107 53.9439 48.7868L52.0753 53.592C51.1379 56.0023 49.0569 57.6844 46.5829 58.1243L46.6746 57.873C46.675 57.8718 46.6755 57.8705 46.676 57.8692L52.2094 42.6962C52.2097 42.6954 52.21 42.6947 52.2103 42.6939L53.4508 39.2923C53.4562 39.2776 53.4611 39.2629 53.4657 39.2479C53.6023 38.8005 56.7783 28.1839 53.7235 18.6761C53.5747 18.213 53.0778 17.9582 52.6157 18.107C52.1526 18.2558 51.898 18.7518 52.0467 19.2148C54.8695 28 51.9406 38.1936 51.7873 38.713L51.0732 40.6712L47.8578 36.9421C47.757 36.8265 47.6262 36.7372 47.4814 36.6857L44.0332 35.4281C42.9312 35.0262 41.7387 35.0776 40.6755 35.5725C39.6123 36.0676 38.8052 36.947 38.4035 38.0489L33.1196 52.5373C32.7176 53.6392 32.769 54.8317 33.264 55.8949C33.759 56.9583 34.6385 57.7652 35.7405 58.1671L39.1998 59.4287C39.3408 59.478 39.494 59.4957 39.6415 59.4708L44.5028 58.6873L44.4555 58.817C44.2367 59.3682 44.6901 60.0159 45.2828 59.9993C47.114 59.9993 48.8807 59.4529 50.3921 58.4189C51.9035 57.3851 53.0532 55.9365 53.7169 54.2298L55.5856 49.4246C56.365 47.4202 56.6027 45.2462 56.2765 43.123C56.6148 42.0798 58.0352 37.4414 58.5878 31.5009C58.9511 27.5979 58.8582 23.9483 58.3119 20.6542ZM34.8608 55.1521C34.5644 54.5153 34.5336 53.801 34.7743 53.1411L40.0581 38.6528C40.2989 37.9928 40.7821 37.4661 41.4189 37.1696C42.0558 36.8733 42.7699 36.8425 43.4299 37.083L46.062 38.0429L38.9759 57.4729L36.3439 56.513C35.684 56.2721 35.1574 55.7889 34.8608 55.1521ZM40.8432 57.4936L47.5042 39.229L50.3823 42.5667L45.1942 56.7923L40.8432 57.4936Z" fill="#C73E9B"/>
</g>
<defs>
<clipPath id="clip0_1_238">
<rect width="60" height="60" fill="white"/>
</clipPath>
</defs>
</svg>
