<svg width="65" height="65" viewBox="0 0 65 65" fill="none" xmlns="http://www.w3.org/2000/svg">
<path d="M9.0815 22.8027C8.91838 22.8027 8.75848 22.7573 8.61971 22.6715C8.48095 22.5858 8.36881 22.4631 8.29586 22.3172C8.22291 22.1712 8.19203 22.0079 8.20667 21.8454C8.22132 21.683 8.28093 21.5278 8.3788 21.3973C8.93031 20.6751 9.52767 19.9892 10.1672 19.3437C10.3329 19.1906 10.5511 19.1071 10.7767 19.1106C11.0023 19.114 11.2179 19.2042 11.3788 19.3623C11.5397 19.5204 11.6337 19.7343 11.6411 19.9598C11.6486 20.1853 11.569 20.405 11.4189 20.5734C10.8329 21.1643 10.2857 21.7925 9.78069 22.454C9.69896 22.5621 9.59331 22.6499 9.47201 22.7104C9.35071 22.7709 9.21705 22.8025 9.0815 22.8027Z" fill="white"/>
<path d="M27.2561 60.0723C21.1444 60.0712 15.2641 57.7349 10.818 53.5414C6.37188 49.3479 3.69606 43.6141 3.33785 37.5129C3.33128 37.3976 3.34749 37.282 3.38555 37.173C3.42362 37.0639 3.4828 36.9634 3.55972 36.8771C3.63664 36.7909 3.72978 36.7207 3.83383 36.6705C3.93789 36.6203 4.05081 36.591 4.16616 36.5845C4.28151 36.5779 4.39703 36.5941 4.50611 36.6322C4.6152 36.6702 4.71572 36.7294 4.80193 36.8063C4.88815 36.8832 4.95837 36.9764 5.00859 37.0804C5.0588 37.1845 5.08803 37.2974 5.09461 37.4128C5.30993 41.0625 6.42294 44.6027 8.33487 47.7191C10.2468 50.8355 12.8985 53.4317 16.0546 55.2772C19.2107 57.1228 22.7737 58.1607 26.4272 58.2987C30.0807 58.4368 33.7118 57.6708 36.9982 56.0687C40.1472 54.5307 42.8872 52.2689 44.994 49.4684C47.1009 46.6679 48.5147 43.4084 49.1197 39.9565C49.7247 36.5046 49.5038 32.9586 48.4749 29.6085C47.4461 26.2584 45.6386 23.1996 43.2004 20.6823C39.7635 17.1324 35.2395 14.832 30.3463 14.1459C25.4531 13.4599 20.4709 14.4277 16.1903 16.8956C16.0569 16.9733 15.9054 17.0142 15.7511 17.0142C15.5496 17.0161 15.3535 16.9488 15.1958 16.8233C15.0381 16.6979 14.9283 16.522 14.8849 16.3253C14.8414 16.1285 14.8669 15.9228 14.9572 15.7426C15.0474 15.5624 15.1968 15.4187 15.3804 15.3356C18.566 13.5138 22.1277 12.4484 25.7905 12.2218C29.4532 11.9952 33.119 12.6133 36.5049 14.0286C39.8908 15.4438 42.9062 17.6183 45.3182 20.384C47.7301 23.1498 49.4742 26.4329 50.4158 29.9798C51.3574 33.5267 51.4712 37.2426 50.7485 40.8405C50.0257 44.4384 48.4858 47.822 46.2476 50.7302C44.0095 53.6384 41.1328 55.9933 37.8399 57.6131C34.547 59.233 30.9259 60.0743 27.2561 60.0723Z" fill="white"/>
<path d="M5.02523 30.8399C4.9499 30.8401 4.87488 30.8304 4.80212 30.8109C4.69051 30.7817 4.58575 30.7307 4.49382 30.661C4.4019 30.5913 4.32461 30.5041 4.26637 30.4045C4.20813 30.305 4.17008 30.1949 4.15439 30.0806C4.13871 29.9663 4.1457 29.85 4.17496 29.7384C4.42375 28.8053 4.73571 27.8903 5.10867 26.9996C5.19767 26.7842 5.36857 26.613 5.58378 26.5237C5.799 26.4343 6.0409 26.4341 6.25628 26.5231C6.47165 26.6121 6.64285 26.783 6.73221 26.9982C6.82158 27.2134 6.82179 27.4553 6.7328 27.6707C6.38988 28.4879 6.10316 29.3275 5.87462 30.1837C5.82549 30.3716 5.71548 30.5379 5.5618 30.6566C5.40812 30.7753 5.21943 30.8398 5.02523 30.8399Z" fill="white"/>
<path d="M27.257 52.0948C24.098 52.0952 21.0099 51.1588 18.3831 49.4039C15.7564 47.6491 13.709 45.1548 12.4999 42.2364C11.2908 39.3179 10.9743 36.1065 11.5904 33.0082C12.2066 29.9098 13.7277 27.0638 15.9613 24.83C18.195 22.5962 21.041 21.075 24.1392 20.4587C27.2375 19.8423 30.449 20.1587 33.3675 21.3676C36.286 22.5765 38.7805 24.6238 40.5354 27.2504C42.2904 29.8771 43.227 32.9652 43.2268 36.1242C43.2226 40.3584 41.5388 44.4181 38.5448 47.4122C35.5508 50.4064 31.4913 52.0904 27.257 52.0948ZM27.257 21.9094C24.4455 21.909 21.6971 22.7424 19.3592 24.3041C17.0214 25.8659 15.1992 28.0858 14.123 30.6832C13.0468 33.2806 12.7651 36.1387 13.3134 38.8963C13.8617 41.6538 15.2153 44.1868 17.2033 46.1749C19.1912 48.1631 21.724 49.5171 24.4814 50.0657C27.2389 50.6143 30.0971 50.3329 32.6946 49.2571C35.2921 48.1813 37.5123 46.3593 39.0743 44.0217C40.6363 41.684 41.4701 38.9357 41.4701 36.1242C41.4661 32.3557 39.9674 28.7427 37.3029 26.0778C34.6383 23.4129 31.0255 21.9138 27.257 21.9094Z" fill="white"/>
<path d="M27.2569 44.1148C25.676 44.1148 24.1306 43.646 22.8161 42.7677C21.5016 41.8894 20.4771 40.641 19.8721 39.1804C19.2671 37.7199 19.1088 36.1127 19.4173 34.5621C19.7257 33.0116 20.487 31.5873 21.6048 30.4695C22.7227 29.3516 24.147 28.5903 25.6975 28.2819C27.2481 27.9735 28.8552 28.1318 30.3158 28.7367C31.7764 29.3417 33.0247 30.3663 33.9031 31.6807C34.7814 32.9952 35.2502 34.5406 35.2502 36.1215C35.2483 38.2409 34.4056 40.2729 32.9069 41.7716C31.4083 43.2702 29.3763 44.1129 27.2569 44.1148ZM27.2569 29.8894C26.0235 29.8894 24.8177 30.2552 23.7921 30.9405C22.7665 31.6258 21.9672 32.5998 21.4952 33.7393C21.0231 34.8789 20.8996 36.1329 21.1403 37.3426C21.3809 38.5524 21.9749 39.6636 22.8471 40.5358C23.7192 41.408 24.8305 42.002 26.0402 42.2426C27.25 42.4832 28.5039 42.3597 29.6435 41.8877C30.7831 41.4157 31.7571 40.6163 32.4424 39.5907C33.1276 38.5652 33.4934 37.3594 33.4934 36.1259C33.492 34.4723 32.8345 32.8869 31.6652 31.7176C30.496 30.5483 28.9105 29.8908 27.2569 29.8894Z" fill="white"/>
<path d="M28.3277 36.1242C28.1533 36.1242 27.9828 36.0722 27.838 35.9749C27.6932 35.8776 27.5806 35.7394 27.5147 35.5779C27.4487 35.4164 27.4323 35.2389 27.4676 35.0681C27.5029 34.8972 27.5883 34.7408 27.7128 34.6186L51.466 11.3645C51.5479 11.2818 51.6455 11.2162 51.753 11.1716C51.8605 11.127 51.9758 11.1041 52.0922 11.1045C52.2086 11.1048 52.3238 11.1282 52.4311 11.1735C52.5383 11.2187 52.6355 11.2848 52.717 11.3679C52.7985 11.451 52.8627 11.5495 52.9058 11.6577C52.9488 11.7658 52.97 11.8814 52.968 11.9978C52.966 12.1142 52.941 12.229 52.8942 12.3356C52.8474 12.4422 52.78 12.5385 52.6957 12.6188L28.9426 35.873C28.7784 36.034 28.5576 36.1242 28.3277 36.1242Z" fill="white"/>
<path d="M55.569 16.4257H55.5198L48.7765 16.0471C48.5637 16.0351 48.3625 15.9462 48.2104 15.7968C48.0584 15.6475 47.9658 15.448 47.9499 15.2355L47.4115 8.07404C47.4018 7.94719 47.4198 7.81975 47.4643 7.70055C47.5087 7.58134 47.5785 7.47321 47.6688 7.38364L53.0753 2.01147C53.1882 1.89941 53.3294 1.82012 53.4839 1.78207C53.6384 1.74403 53.8003 1.74866 53.9524 1.79547C54.1044 1.84228 54.2409 1.9295 54.3473 2.04784C54.4536 2.16618 54.5258 2.31118 54.5562 2.46735L55.6981 8.35776L60.9903 9.45573C61.1455 9.48823 61.289 9.56211 61.4055 9.66955C61.5221 9.77699 61.6075 9.91398 61.6525 10.066C61.6975 10.218 61.7006 10.3794 61.6613 10.533C61.622 10.6866 61.5419 10.8267 61.4295 10.9384L56.1891 16.1622C56.1082 16.2447 56.0117 16.3105 55.9053 16.3557C55.7989 16.401 55.6846 16.4247 55.569 16.4257ZM49.6443 14.3342L55.2273 14.6478L59.0403 10.8488L54.7723 9.96343C54.6029 9.92821 54.4476 9.84372 54.326 9.72058C54.2045 9.59744 54.122 9.44113 54.0889 9.27127L53.142 4.41735L49.1893 8.33931L49.6443 14.3342Z" fill="white"/>
<path d="M41.296 63.2433C41.1555 63.2435 41.017 63.21 40.8922 63.1457C40.7673 63.0813 40.6597 62.988 40.5784 62.8735L36.6713 57.366C36.6013 57.2722 36.5508 57.1653 36.5227 57.0517C36.4946 56.938 36.4896 56.8199 36.5078 56.7043C36.526 56.5887 36.5671 56.4778 36.6287 56.3783C36.6904 56.2788 36.7713 56.1926 36.8667 56.1248C36.9622 56.057 37.0702 56.009 37.1844 55.9835C37.2987 55.9581 37.4169 55.9557 37.5321 55.9766C37.6473 55.9975 37.7571 56.0411 37.8552 56.1051C37.9532 56.169 38.0375 56.2519 38.1031 56.3489L41.5367 61.187L45.2382 58.9208L41.8889 53.8147C41.8255 53.7182 41.7816 53.6102 41.7599 53.4968C41.7383 53.3834 41.7391 53.2668 41.7625 53.1537C41.7859 53.0406 41.8313 52.9332 41.8961 52.8377C41.961 52.7421 42.0441 52.6603 42.1405 52.5969C42.237 52.5334 42.3451 52.4896 42.4585 52.4679C42.5719 52.4462 42.6885 52.4471 42.8016 52.4705C42.9147 52.4938 43.0221 52.5392 43.1176 52.6041C43.2132 52.669 43.295 52.752 43.3584 52.8485L47.204 58.7117C47.2683 58.81 47.3123 58.9203 47.3332 59.0359C47.3542 59.1515 47.3518 59.2702 47.326 59.3849C47.3003 59.4995 47.2519 59.6079 47.1835 59.7035C47.1152 59.7991 47.0283 59.88 46.9282 59.9414L41.7536 63.1097C41.6163 63.1956 41.4579 63.2418 41.296 63.2433Z" fill="white"/>
<path d="M13.2177 63.2432C13.0559 63.2433 12.8973 63.1986 12.7592 63.1141L7.5847 59.9458C7.48453 59.8844 7.39769 59.8035 7.32935 59.7079C7.261 59.6123 7.21254 59.5039 7.18682 59.3893C7.1611 59.2746 7.15865 59.1559 7.17962 59.0403C7.20059 58.9247 7.24455 58.8144 7.30889 58.7161L11.1553 52.8511C11.2834 52.6563 11.4837 52.5203 11.7121 52.4731C11.9405 52.4259 12.1783 52.4714 12.3732 52.5995C12.5681 52.7276 12.704 52.9279 12.7512 53.1563C12.7984 53.3847 12.753 53.6225 12.6248 53.8174L9.27558 58.9207L12.9771 61.187L16.4098 56.3489C16.4766 56.2548 16.5612 56.1748 16.6589 56.1134C16.7566 56.0521 16.8655 56.0106 16.9792 55.9913C17.0929 55.972 17.2094 55.9753 17.3218 56.001C17.4343 56.0267 17.5406 56.0743 17.6347 56.1411C17.7287 56.2079 17.8087 56.2926 17.8701 56.3903C17.9314 56.488 17.9729 56.5968 17.9922 56.7105C18.0115 56.8243 18.0082 56.9407 17.9825 57.0532C17.9568 57.1656 17.9092 57.2719 17.8424 57.366L13.9345 62.8734C13.8533 62.9879 13.7458 63.0811 13.6211 63.1455C13.4964 63.2098 13.3581 63.2433 13.2177 63.2432Z" fill="white"/>
</svg>
