<svg width="65" height="65" viewBox="0 0 65 65" fill="none" xmlns="http://www.w3.org/2000/svg">
<path d="M62.565 15.9233L46.9205 0.278916C46.7482 0.125937 46.5641 0.0040625 46.2471 0H19.9043C17.2792 0 15.1436 2.13561 15.1436 4.76074V16.1267H12.9525C12.2741 16.1267 11.7223 16.6786 11.7223 17.3569V18.9838C10.5757 19.4304 9.51219 20.0464 8.5504 20.8211L7.14579 20.0084C6.86103 19.8435 6.52905 19.7999 6.21128 19.8849C5.89352 19.9701 5.62793 20.174 5.46366 20.459L2.31954 25.9163C1.98133 26.5031 2.18306 27.2565 2.76933 27.5955L4.1761 28.4094C4.08355 29.0164 4.03683 29.6324 4.03683 30.2466C4.03683 30.8607 4.08355 31.4765 4.1761 32.0837L2.76946 32.8976C2.18319 33.2367 1.98133 33.99 2.31941 34.5766L5.46366 40.0339C5.62793 40.319 5.89352 40.5229 6.21128 40.6081C6.52905 40.6932 6.86103 40.6495 7.14566 40.4846L8.5504 39.6718C9.51232 40.4466 10.5759 41.0627 11.7224 41.5092V43.1361C11.7224 43.8144 12.2743 44.3663 12.9525 44.3663H19.2401C19.9184 44.3663 20.4702 43.8144 20.4702 43.1361V41.5092C21.6168 41.0626 22.6804 40.4466 23.6422 39.672L25.0471 40.4847C25.3318 40.6494 25.6636 40.6933 25.9816 40.608C26.2992 40.5228 26.5647 40.3189 26.7289 40.0339L29.8731 34.5767C30.2113 33.9899 30.0094 33.2367 29.4233 32.8976L28.0165 32.0836C28.109 31.4766 28.1558 30.8607 28.1558 30.2465C28.1558 29.6324 28.109 29.0165 28.0165 28.4093L29.4231 27.5954C30.0095 27.2563 30.2113 26.503 29.8732 25.9163L26.7289 20.459C26.5647 20.174 26.2992 19.97 25.9816 19.8849C25.6636 19.7996 25.3318 19.8435 25.0468 20.0083L23.6422 20.8211C22.6804 20.0464 21.6169 19.4304 20.4702 18.9838V17.3569C20.4702 16.6786 19.9183 16.1267 19.2401 16.1267H17.0477V4.76074C17.0477 3.18563 18.3292 1.9043 19.9042 1.9043H45.2947V5.71289H36.4369C35.911 5.71289 35.4848 6.1392 35.4848 6.66504C35.4848 7.19088 35.911 7.61719 36.4369 7.61719H45.2947V12.7882C45.2947 12.8209 45.2965 12.8532 45.2972 12.8857H23.247C23.0719 12.8857 22.9296 12.7433 22.9296 12.5684V7.93457C22.9296 7.75963 23.0719 7.61719 23.247 7.61719H31.9936C32.5195 7.61719 32.9457 7.19088 32.9457 6.66504C32.9457 6.1392 32.5195 5.71289 31.9936 5.71289H23.247C22.022 5.71289 21.0253 6.7096 21.0253 7.93457V12.5684C21.0253 13.7933 22.022 14.79 23.247 14.79H45.7376C46.4952 16.4175 48.1453 17.549 50.0556 17.549H60.9394V60.2393C60.9394 61.8144 59.6579 63.0957 58.0829 63.0957H19.9043C18.3293 63.0957 17.0479 61.8144 17.0479 60.2393V47.8575C17.0479 47.3317 16.6217 46.9054 16.0957 46.9054C15.5698 46.9054 15.1436 47.3317 15.1436 47.8575V60.2393C15.1436 62.8644 17.2792 65 19.9043 65H58.0829C60.7081 65 62.8437 62.8644 62.8437 60.2393V16.5992C62.8557 16.4979 62.7535 16.1041 62.565 15.9233ZM18.566 18.031V19.4559C18.566 19.9801 18.9 20.4473 19.397 20.6182C20.6366 21.045 21.7686 21.7007 22.7615 22.5673C23.1588 22.9139 23.7312 22.9699 24.1862 22.7066L25.4162 21.9949L27.8874 26.2842L26.6554 26.997C26.2021 27.2591 25.9649 27.7817 26.065 28.2962C26.1889 28.9363 26.2517 29.5925 26.2517 30.2467C26.2517 30.9008 26.1889 31.557 26.0651 32.1963C25.9649 32.7118 26.2021 33.234 26.6553 33.4962L27.8874 34.209L25.4162 38.4983L24.1863 37.7867C23.7314 37.5234 23.1586 37.5794 22.7615 37.9261C21.7685 38.7926 20.6366 39.4483 19.3968 39.8752C18.8999 40.0465 18.566 40.5134 18.566 41.0373V42.4623H13.6267V41.0373C13.6267 40.5134 13.2929 40.0463 12.7957 39.8751C11.5563 39.4484 10.4242 38.7927 9.4312 37.926C9.03383 37.5793 8.46127 37.5235 8.0064 37.7867L6.77648 38.4983L4.30534 34.209L5.53767 33.4961C5.99064 33.2338 6.22791 32.7114 6.12775 32.1972C6.00384 31.5571 5.941 30.9008 5.941 30.2467C5.941 29.5926 6.00384 28.9363 6.12762 28.2971C6.22779 27.7819 5.99077 27.2596 5.53742 26.9971L4.30534 26.2842L6.77648 21.995L8.00678 22.7068C8.46153 22.9698 9.03409 22.9138 9.43132 22.5673C10.4242 21.7007 11.5561 21.045 12.7955 20.6183C13.2926 20.4473 13.6266 19.9803 13.6266 19.4559V18.031H18.566ZM50.0556 15.6447C48.7548 15.6447 47.6551 14.7704 47.3112 13.5788C47.3082 13.568 47.3055 13.5572 47.3021 13.5467C47.2354 13.3049 47.1991 13.0508 47.1991 12.7882V6.66758C47.1991 6.66669 47.1992 6.66593 47.1992 6.66504C47.1992 6.66415 47.1991 6.66339 47.1991 6.6625V3.25063L59.593 15.6446L50.0556 15.6447ZM9.97354 30.2466C9.97354 33.6228 12.7203 36.3694 16.0964 36.3694C19.4724 36.3694 22.2192 33.6228 22.2192 30.2466C22.2192 26.8704 19.4724 24.1238 16.0964 24.1238C12.7203 24.1238 9.97354 26.8704 9.97354 30.2466ZM20.315 30.2466C20.315 32.5727 18.4227 34.4651 16.0965 34.4651C13.7703 34.4651 11.8778 32.5727 11.8778 30.2466C11.8778 27.9204 13.7702 26.0281 16.0964 26.0281C18.4225 26.0281 20.315 27.9204 20.315 30.2466ZM56.1789 26.7871H35.3082C34.7822 26.7871 34.356 27.2134 34.356 27.7393C34.356 28.2651 34.7822 28.6914 35.3082 28.6914H56.1788C56.7047 28.6914 57.1309 28.2651 57.1309 27.7393C57.1309 27.2134 56.7047 26.7871 56.1789 26.7871ZM26.7388 44.8779C26.7388 45.4038 27.165 45.8301 27.691 45.8301H56.1788C56.7047 45.8301 57.1309 45.4038 57.1309 44.8779C57.1309 44.3521 56.7047 43.9258 56.1788 43.9258H27.691C27.1652 43.9258 26.7388 44.3521 26.7388 44.8779ZM21.026 50.5908C21.026 51.1167 21.4521 51.543 21.9781 51.543H56.1788C56.7047 51.543 57.1309 51.1167 57.1309 50.5908C57.1309 50.065 56.7047 49.6387 56.1788 49.6387H21.9781C21.4523 49.6387 21.026 50.065 21.026 50.5908ZM21.9781 57.2559H56.1788C56.7047 57.2559 57.1309 56.8296 57.1309 56.3037C57.1309 55.7779 56.7047 55.3516 56.1788 55.3516H21.9781C21.4521 55.3516 21.026 55.7779 21.026 56.3037C21.026 56.8296 21.4523 57.2559 21.9781 57.2559ZM56.1789 21.0742H33.9776C33.4516 21.0742 33.0254 21.5005 33.0254 22.0264C33.0254 22.5522 33.4516 22.9785 33.9776 22.9785H56.1789C56.7049 22.9785 57.131 22.5522 57.131 22.0264C57.131 21.5005 56.7047 21.0742 56.1789 21.0742ZM32.4517 39.165C32.4517 39.6909 32.8779 40.1172 33.4039 40.1172H56.1788C56.7047 40.1172 57.1309 39.6909 57.1309 39.165C57.1309 38.6392 56.7047 38.2129 56.1788 38.2129H33.4039C32.878 38.2129 32.4517 38.6392 32.4517 39.165ZM56.1789 32.5H35.3082C34.7822 32.5 34.356 32.9263 34.356 33.4521C34.356 33.978 34.7822 34.4043 35.3082 34.4043H56.1788C56.7047 34.4043 57.1309 33.978 57.1309 33.4521C57.1309 32.9263 56.7047 32.5 56.1789 32.5Z" fill="white"/>
</svg>
