<svg width="65" height="65" viewBox="0 0 65 65" fill="none" xmlns="http://www.w3.org/2000/svg">
<g clip-path="url(#clip0_135_2)">
<path d="M7.43018 51.6541C13.1954 59.1883 22.2801 64.0479 32.5 64.0479C49.9234 64.0479 64.0478 49.9234 64.0478 32.5C64.0478 27.6613 62.9585 23.077 61.0118 18.9791" stroke="white" stroke-width="2" stroke-miterlimit="10" stroke-linecap="round" stroke-linejoin="round"/>
<path d="M57.2876 12.9827C51.5106 5.65576 42.5546 0.952148 32.5 0.952148C15.0766 0.952148 0.952148 15.0766 0.952148 32.5C0.952148 37.3387 2.04153 41.923 3.98823 46.0209" stroke="white" stroke-width="2" stroke-miterlimit="10" stroke-linecap="round" stroke-linejoin="round"/>
<path d="M7.7124 58.4143L6.58569 50.5273L13.3459 52.7808" stroke="white" stroke-width="2" stroke-miterlimit="10" stroke-linecap="round" stroke-linejoin="round"/>
<path d="M57.2876 6.58569L58.4143 14.4727L51.6541 12.2192" stroke="white" stroke-width="2" stroke-miterlimit="10" stroke-linecap="round" stroke-linejoin="round"/>
<path d="M13.1643 45.7298H51.8358" stroke="white" stroke-width="2" stroke-miterlimit="10" stroke-linecap="round" stroke-linejoin="round"/>
<path d="M42.6768 31.4823V45.7298" stroke="white" stroke-width="2" stroke-miterlimit="10" stroke-linecap="round" stroke-linejoin="round"/>
<path d="M48.7828 45.7298V25.3763H51.8358L45.7298 16.2173L39.6238 25.3763H42.6767V27.4116" stroke="white" stroke-width="2" stroke-miterlimit="10" stroke-linecap="round" stroke-linejoin="round"/>
<path d="M14.5212 39.6237L13.1643 41.659H16.2173V45.7298" stroke="white" stroke-width="2" stroke-miterlimit="10" stroke-linecap="round" stroke-linejoin="round"/>
<path d="M22.3233 45.7298V41.659H25.3762L19.2702 32.5L16.7244 36.3187" stroke="white" stroke-width="2" stroke-miterlimit="10" stroke-linecap="round" stroke-linejoin="round"/>
<path d="M35.5531 45.7298V33.5176H38.6062L32.5001 24.3586L26.394 33.5176H29.4471V45.7298" stroke="white" stroke-width="2" stroke-miterlimit="10" stroke-linecap="round" stroke-linejoin="round"/>
</g>
<defs>
<clipPath id="clip0_135_2">
<rect width="65" height="65" fill="white"/>
</clipPath>
</defs>
</svg>
