<svg width="45" height="45" viewBox="0 0 45 45" fill="none" xmlns="http://www.w3.org/2000/svg">
<g clip-path="url(#clip0_1_31)">
<path d="M7.8459 7.36749C6.29727 9.7031 5.3854 12.5019 5.35526 15.5215C5.31553 19.5051 6.82725 23.1352 9.32308 25.8449C10.2666 26.8692 11.0202 28.0533 11.5093 29.3572L13.1171 33.6448C13.3744 34.3308 14.0303 34.7854 14.7631 34.7854" stroke="#6A26DA" stroke-width="2" stroke-miterlimit="10" stroke-linecap="round" stroke-linejoin="round"/>
<path d="M25.9771 34.7854C26.7099 34.7854 27.3657 34.331 27.6231 33.6448L29.1661 29.53C29.6742 28.1748 30.4251 26.9196 31.4067 25.8561C33.8766 23.18 35.3856 19.6036 35.3856 15.6747C35.3856 7.38193 28.663 0.65918 20.3701 0.65918C16.2541 0.65918 12.531 2.30054 9.82178 4.96969" stroke="#6A26DA" stroke-width="2" stroke-miterlimit="10" stroke-linecap="round" stroke-linejoin="round"/>
<path d="M25.8303 34.7855V38.9273C25.8303 39.6554 25.24 40.2457 24.512 40.2457H16.2283C15.5002 40.2457 14.9099 39.6554 14.9099 38.9273V34.7855" stroke="#6A26DA" stroke-width="2" stroke-miterlimit="10" stroke-linecap="round" stroke-linejoin="round"/>
<path d="M20.8098 34.7855H28.5604" stroke="#6A26DA" stroke-width="2" stroke-miterlimit="10" stroke-linecap="round" stroke-linejoin="round"/>
<path d="M12.1797 34.7855H17.7335" stroke="#6A26DA" stroke-width="2" stroke-miterlimit="10" stroke-linecap="round" stroke-linejoin="round"/>
<path d="M14.2273 37.5156H26.5128" stroke="#6A26DA" stroke-width="2" stroke-miterlimit="10" stroke-linecap="round" stroke-linejoin="round"/>
<path d="M16.2749 40.2457V40.8252C16.2749 42.7668 17.8489 44.3408 19.7905 44.3408H20.9496C22.8912 44.3408 24.4653 42.7668 24.4653 40.8252V40.2457" stroke="#6A26DA" stroke-width="2" stroke-miterlimit="10" stroke-linecap="round" stroke-linejoin="round"/>
<path d="M37.8758 6.41901L36.7163 7.13927" stroke="#6A26DA" stroke-width="2" stroke-miterlimit="10" stroke-linecap="round" stroke-linejoin="round"/>
<path d="M34.6754 2.76941L34.0312 3.97298" stroke="#6A26DA" stroke-width="2" stroke-miterlimit="10" stroke-linecap="round" stroke-linejoin="round"/>
<path d="M39.6453 10.9709L38.2803 10.9848" stroke="#6A26DA" stroke-width="2" stroke-miterlimit="10" stroke-linecap="round" stroke-linejoin="round"/>
<path d="M19.1857 6.19087C19.904 6.10351 20.4279 5.4525 20.365 4.71844C20.2985 3.94377 19.575 3.38997 18.8036 3.48683C18.2828 3.55222 17.7696 3.65013 17.2666 3.77959C16.4708 3.98438 16.0385 4.84544 16.3437 5.60851C16.6005 6.25064 17.2949 6.59139 17.9649 6.42009C18.3642 6.31787 18.7719 6.24123 19.1857 6.19087Z" stroke="#6A26DA" stroke-width="2" stroke-miterlimit="10" stroke-linecap="round" stroke-linejoin="round"/>
<path d="M14.3268 6.66607C13.8719 5.98791 12.9225 5.85247 12.3062 6.38834C12.105 6.56324 11.9087 6.74535 11.7176 6.93449C9.76765 8.86448 8.54448 11.3455 8.19107 14.0385C8.08499 14.8469 8.71842 15.5632 9.53378 15.5632C10.2198 15.5632 10.8095 15.0606 10.9 14.3806C11.178 12.2923 12.1274 10.37 13.638 8.87485C13.7861 8.72834 13.9382 8.58719 14.0941 8.45157C14.6114 8.00183 14.7087 7.23534 14.3268 6.66607Z" stroke="#6A26DA" stroke-width="2" stroke-miterlimit="10" stroke-linecap="round" stroke-linejoin="round"/>
<path d="M25.8303 21.6318L29.3884 18.0736C30.4546 17.0074 30.4546 15.2789 29.3884 14.2127C28.3222 13.1465 26.5937 13.1465 25.5275 14.2127L19.736 20.0041L16.8403 17.1084C15.7741 16.0422 14.0455 16.0422 12.9793 17.1084C11.9131 18.1746 11.9131 19.9032 12.9793 20.9694L17.8055 25.7955C18.8717 26.8617 20.6002 26.8617 21.6664 25.7955L23.6327 23.8292" stroke="#6A26DA" stroke-width="2" stroke-miterlimit="10" stroke-linecap="round" stroke-linejoin="round"/>
</g>
<defs>
<clipPath id="clip0_1_31">
<rect width="45" height="45" fill="white"/>
</clipPath>
</defs>
</svg>
