<svg width="60" height="60" viewBox="0 0 60 60" fill="none" xmlns="http://www.w3.org/2000/svg">
<g clip-path="url(#clip0_3_110)">
<path d="M5.47066 32.3857C3.69281 32.3857 1.96906 31.8129 0.846949 31.2374L0 34.684C1.0391 35.2586 3.11916 35.8052 5.22534 35.8052C10.2865 35.8052 12.666 33.1794 12.666 30.0883C12.666 27.4896 11.1335 25.7938 7.87905 24.5896C5.49864 23.6858 4.45954 23.1672 4.45954 21.9909C4.45954 21.033 5.33447 20.2122 7.1403 20.2122C8.94613 20.2122 10.2595 20.7326 10.9973 21.088L11.9282 17.7235C10.8331 17.231 9.30152 16.7936 7.22239 16.7936C2.87291 16.7936 0.24625 19.2001 0.24625 22.3463C0.24625 25.0271 2.2433 26.7228 5.30742 27.7899C7.52274 28.5837 8.3986 29.2404 8.3986 30.3877C8.3986 31.5928 7.38562 32.3857 5.47066 32.3857Z" fill="white"/>
<path d="M27.2469 32.1123H19.6701V27.7358H26.4532V24.3433H19.6701V20.5134H26.8645V17.0939H15.4839V35.5318H27.2469V32.1123Z" fill="white"/>
<path d="M41.3457 36.931C43.9341 36.931 46.3061 35.9991 48.153 34.4563L51.8253 37.8833C51.8197 38.2657 51.9587 38.6444 52.259 38.9252L57.6476 43.9565C57.9171 44.2084 58.2585 44.3324 58.6009 44.3324C58.9749 44.3324 59.3489 44.1832 59.6241 43.8866C60.1511 43.3232 60.1203 42.4352 59.5569 41.9091L54.1684 36.8787C53.868 36.598 53.4781 36.487 53.0994 36.5177L49.4756 33.1365C51.0343 31.2868 51.9792 28.9008 51.9792 26.2975C51.9792 20.435 47.2109 15.6667 41.3485 15.6667C35.486 15.6667 30.715 20.4369 30.715 26.2984C30.714 32.1627 35.4833 36.931 41.3457 36.931ZM41.3457 18.466C45.6653 18.466 49.179 21.9797 49.179 26.2984C49.179 30.6171 45.6634 34.1317 41.3457 34.1317C37.0279 34.1317 33.5123 30.6171 33.5123 26.2984C33.5123 21.9797 37.026 18.466 41.3457 18.466Z" fill="white"/>
</g>
<defs>
<clipPath id="clip0_3_110">
<rect width="60" height="60" fill="white"/>
</clipPath>
</defs>
</svg>
