<svg width="60" height="60" viewBox="0 0 60 60" fill="none" xmlns="http://www.w3.org/2000/svg">
<path d="M57.1875 47.8125H54.375V24.7632L56.856 22.2823C57.2583 21.88 57.5774 21.4024 57.7952 20.8767C58.0129 20.3511 58.125 19.7877 58.125 19.2188C58.125 18.6498 58.0129 18.0864 57.7952 17.5608C57.5774 17.0351 57.2583 16.5575 56.856 16.1552L54.1573 13.4565C53.755 13.0542 53.2774 12.7351 52.7517 12.5173C52.2261 12.2996 51.6627 12.1875 51.0938 12.1875C50.5248 12.1875 49.9614 12.2996 49.4358 12.5173C48.9101 12.7351 48.4325 13.0542 48.0302 13.4565L46.875 14.6118V8.4375H49.6875C49.9361 8.4375 50.1746 8.33873 50.3504 8.16291C50.5262 7.9871 50.625 7.74864 50.625 7.5V5.625C50.6242 4.87934 50.3276 4.16445 49.8003 3.63719C49.273 3.10992 48.5582 2.81334 47.8125 2.8125H15.9375C15.1918 2.81337 14.477 3.10996 13.9497 3.63722C13.4225 4.16448 13.1259 4.87935 13.125 5.625V15.9375H10.3125C9.06973 15.9389 7.87825 16.4332 6.99948 17.312C6.1207 18.1908 5.6264 19.3822 5.625 20.625V47.8125H2.8125C2.56386 47.8125 2.3254 47.9113 2.14959 48.0871C1.97377 48.2629 1.875 48.5014 1.875 48.75C1.87751 50.987 2.76727 53.1316 4.34906 54.7134C5.93086 56.2952 8.07551 57.185 10.3125 57.1875H49.6875C51.9245 57.185 54.0691 56.2952 55.6509 54.7134C57.2327 53.1316 58.1225 50.987 58.125 48.75C58.125 48.5014 58.0262 48.2629 57.8504 48.0871C57.6746 47.9113 57.4361 47.8125 57.1875 47.8125ZM50.625 47.8125V28.5132L52.5 26.6382V47.8125H50.625ZM11.25 47.8125V22.5C11.2503 22.2514 11.3491 22.0132 11.5249 21.8374C11.7007 21.6616 11.9389 21.5628 12.1875 21.5625H13.125V45C13.125 45.2486 13.2238 45.4871 13.3996 45.6629C13.5754 45.8387 13.8139 45.9375 14.0625 45.9375H45.9375C46.1861 45.9375 46.4246 45.8387 46.6004 45.6629C46.7762 45.4871 46.875 45.2486 46.875 45V32.2632L48.75 30.3882V47.8125H11.25ZM35.9831 49.6875L35.3047 51.0443C35.2273 51.2004 35.1077 51.3317 34.9595 51.4233C34.8113 51.5149 34.6404 51.5631 34.4661 51.5625H25.5339C25.3596 51.5631 25.1887 51.5149 25.0405 51.4233C24.8923 51.3317 24.7727 51.2004 24.6953 51.0443L24.0169 49.6875H35.9831ZM45.9375 18.2009L46.9554 19.2188L37.5 28.6743L36.482 27.6562L39.1002 25.0382L45.9375 18.2009ZM53.4375 23.0493L47.2632 16.875L47.8125 16.3257L53.9868 22.5L53.4375 23.0493ZM38.8257 30L48.2812 20.5446L49.7679 22.0312L40.3125 31.4868L38.8257 30ZM34.4954 26.9912C34.4311 27.0557 34.3678 27.1211 34.3055 27.1875H31.875V25.3125H36.1743L34.4954 26.9912ZM33.024 35.2874L35.0251 37.2891L32.2734 38.0391L33.024 35.2874ZM37.1085 36.7202L33.5929 33.2046L34.131 31.2313C34.3482 30.4371 34.7127 29.6909 35.2056 29.0313L41.2823 35.1081C40.6228 35.6009 39.8765 35.9655 39.0824 36.1827L37.1085 36.7202ZM42.6562 33.8305L41.6382 32.8125L51.0938 23.3571L52.1116 24.375L42.6562 33.8305ZM51.0938 14.0625C51.4166 14.0616 51.7364 14.1248 52.0347 14.2483C52.333 14.3719 52.6038 14.5533 52.8315 14.7823L55.5302 17.481C55.9911 17.9419 56.25 18.567 56.25 19.2188C56.25 19.8705 55.9911 20.4956 55.5302 20.9565L55.3125 21.1743L49.1382 15L49.356 14.7823C49.5837 14.5533 49.8545 14.3719 50.1528 14.2483C50.4511 14.1248 50.7709 14.0616 51.0938 14.0625ZM47.8125 4.6875C48.0611 4.68778 48.2994 4.78664 48.4751 4.9624C48.6509 5.13815 48.7497 5.37645 48.75 5.625V6.5625H46.875V5.625C46.8753 5.37645 46.9741 5.13815 47.1499 4.9624C47.3256 4.78664 47.5639 4.68778 47.8125 4.6875ZM15 5.625C15.0003 5.37645 15.0991 5.13815 15.2749 4.9624C15.4507 4.78664 15.6889 4.68778 15.9375 4.6875H45.1607C45.054 4.98854 44.9997 5.30562 45 5.625V16.4868L41.1898 20.2969C41.123 20.1181 41.0032 19.9639 40.8464 19.855C40.6896 19.7461 40.5034 19.6877 40.3125 19.6875H27.1875C26.9389 19.6875 26.7004 19.7863 26.5246 19.9621C26.3488 20.1379 26.25 20.3764 26.25 20.625C26.25 20.8736 26.3488 21.1121 26.5246 21.2879C26.7004 21.4637 26.9389 21.5625 27.1875 21.5625H39.9243L38.0493 23.4375H30.9375C30.6889 23.4375 30.4504 23.5363 30.2746 23.7121C30.0988 23.8879 30 24.1264 30 24.375V28.125C30 28.3736 30.0988 28.6121 30.2746 28.7879C30.4504 28.9637 30.6889 29.0625 30.9375 29.0625H32.9787C32.7005 29.5957 32.4802 30.1572 32.3215 30.7373L32.2669 30.9375H19.6875C19.4389 30.9375 19.2004 31.0363 19.0246 31.2121C18.8488 31.3879 18.75 31.6264 18.75 31.875C18.75 32.1236 18.8488 32.3621 19.0246 32.5379C19.2004 32.7137 19.4389 32.8125 19.6875 32.8125H31.7555L31.2442 34.6875H25.3125C25.0639 34.6875 24.8254 34.7863 24.6496 34.9621C24.4738 35.1379 24.375 35.3764 24.375 35.625C24.375 35.8736 24.4738 36.1121 24.6496 36.2879C24.8254 36.4637 25.0639 36.5625 25.3125 36.5625H30.7328L30.2214 38.4375H19.6875C19.4389 38.4375 19.2004 38.5363 19.0246 38.7121C18.8488 38.8879 18.75 39.1264 18.75 39.375C18.75 39.6236 18.8488 39.8621 19.0246 40.0379C19.2004 40.2137 19.4389 40.3125 19.6875 40.3125H30.9375C31.0208 40.3125 31.1038 40.3014 31.1842 40.2795L39.5748 37.991C40.9912 37.6041 42.2823 36.8548 43.3209 35.8171L45 34.1382V44.0625H15V5.625ZM7.5 20.625C7.50087 19.8793 7.79746 19.1645 8.32472 18.6372C8.85198 18.11 9.56685 17.8134 10.3125 17.8125H13.125V19.6875H12.1875C11.4418 19.6883 10.727 19.9849 10.1997 20.5122C9.67242 21.0395 9.37584 21.7543 9.375 22.5V47.8125H7.5V20.625ZM49.6875 55.3125H10.3125C8.73494 55.3105 7.21071 54.7412 6.01814 53.7085C4.82557 52.6758 4.04424 51.2486 3.8168 49.6875H21.9206L23.0182 51.8828C23.2504 52.3511 23.6091 52.745 24.0538 53.0198C24.4984 53.2946 25.0112 53.4393 25.5339 53.4375H34.4661C34.9888 53.4393 35.5016 53.2946 35.9462 53.0198C36.3909 52.745 36.7496 52.3511 36.9818 51.8828L38.0794 49.6875H56.1832C55.9558 51.2486 55.1744 52.6758 53.9819 53.7085C52.7893 54.7412 51.2651 55.3105 49.6875 55.3125Z" fill="white"/>
<path d="M19.6875 17.8125H29.0625C29.3111 17.8125 29.5496 17.7137 29.7254 17.5379C29.9012 17.3621 30 17.1236 30 16.875V9.375C30 9.12636 29.9012 8.8879 29.7254 8.71209C29.5496 8.53627 29.3111 8.4375 29.0625 8.4375H19.6875C19.4389 8.4375 19.2004 8.53627 19.0246 8.71209C18.8488 8.8879 18.75 9.12636 18.75 9.375V16.875C18.75 17.1236 18.8488 17.3621 19.0246 17.5379C19.2004 17.7137 19.4389 17.8125 19.6875 17.8125ZM20.625 10.3125H28.125V15.9375H20.625V10.3125Z" fill="white"/>
<path d="M21.5625 19.6875C21.3139 19.6875 21.0754 19.7863 20.8996 19.9621C20.7238 20.1379 20.625 20.3764 20.625 20.625C20.625 20.8736 20.7238 21.1121 20.8996 21.2879C21.0754 21.4637 21.3139 21.5625 21.5625 21.5625H23.4375C23.6861 21.5625 23.9246 21.4637 24.1004 21.2879C24.2762 21.1121 24.375 20.8736 24.375 20.625C24.375 20.3764 24.2762 20.1379 24.1004 19.9621C23.9246 19.7863 23.6861 19.6875 23.4375 19.6875H21.5625Z" fill="white"/>
<path d="M19.6875 25.3125H27.1875C27.4361 25.3125 27.6746 25.2137 27.8504 25.0379C28.0262 24.8621 28.125 24.6236 28.125 24.375C28.125 24.1264 28.0262 23.8879 27.8504 23.7121C27.6746 23.5363 27.4361 23.4375 27.1875 23.4375H19.6875C19.4389 23.4375 19.2004 23.5363 19.0246 23.7121C18.8488 23.8879 18.75 24.1264 18.75 24.375C18.75 24.6236 18.8488 24.8621 19.0246 25.0379C19.2004 25.2137 19.4389 25.3125 19.6875 25.3125Z" fill="white"/>
<path d="M19.6875 29.0625H27.1875C27.4361 29.0625 27.6746 28.9637 27.8504 28.7879C28.0262 28.6121 28.125 28.3736 28.125 28.125C28.125 27.8764 28.0262 27.6379 27.8504 27.4621C27.6746 27.2863 27.4361 27.1875 27.1875 27.1875H19.6875C19.4389 27.1875 19.2004 27.2863 19.0246 27.4621C18.8488 27.6379 18.75 27.8764 18.75 28.125C18.75 28.3736 18.8488 28.6121 19.0246 28.7879C19.2004 28.9637 19.4389 29.0625 19.6875 29.0625Z" fill="white"/>
<path d="M19.6875 36.5625H21.5625C21.8111 36.5625 22.0496 36.4637 22.2254 36.2879C22.4012 36.1121 22.5 35.8736 22.5 35.625C22.5 35.3764 22.4012 35.1379 22.2254 34.9621C22.0496 34.7863 21.8111 34.6875 21.5625 34.6875H19.6875C19.4389 34.6875 19.2004 34.7863 19.0246 34.9621C18.8488 35.1379 18.75 35.3764 18.75 35.625C18.75 35.8736 18.8488 36.1121 19.0246 36.2879C19.2004 36.4637 19.4389 36.5625 19.6875 36.5625Z" fill="white"/>
<path d="M34.6875 10.3125H40.3125C40.5611 10.3125 40.7996 10.2137 40.9754 10.0379C41.1512 9.8621 41.25 9.62364 41.25 9.375C41.25 9.12636 41.1512 8.8879 40.9754 8.71209C40.7996 8.53627 40.5611 8.4375 40.3125 8.4375H34.6875C34.4389 8.4375 34.2004 8.53627 34.0246 8.71209C33.8488 8.8879 33.75 9.12636 33.75 9.375C33.75 9.62364 33.8488 9.8621 34.0246 10.0379C34.2004 10.2137 34.4389 10.3125 34.6875 10.3125Z" fill="white"/>
<path d="M32.8125 14.0625H40.3125C40.5611 14.0625 40.7996 13.9637 40.9754 13.7879C41.1512 13.6121 41.25 13.3736 41.25 13.125C41.25 12.8764 41.1512 12.6379 40.9754 12.4621C40.7996 12.2863 40.5611 12.1875 40.3125 12.1875H32.8125C32.5639 12.1875 32.3254 12.2863 32.1496 12.4621C31.9738 12.6379 31.875 12.8764 31.875 13.125C31.875 13.3736 31.9738 13.6121 32.1496 13.7879C32.3254 13.9637 32.5639 14.0625 32.8125 14.0625Z" fill="white"/>
<path d="M32.8125 17.8125H40.3125C40.5611 17.8125 40.7996 17.7137 40.9754 17.5379C41.1512 17.3621 41.25 17.1236 41.25 16.875C41.25 16.6264 41.1512 16.3879 40.9754 16.2121C40.7996 16.0363 40.5611 15.9375 40.3125 15.9375H32.8125C32.5639 15.9375 32.3254 16.0363 32.1496 16.2121C31.9738 16.3879 31.875 16.6264 31.875 16.875C31.875 17.1236 31.9738 17.3621 32.1496 17.5379C32.3254 17.7137 32.5639 17.8125 32.8125 17.8125Z" fill="white"/>
</svg>
