<svg width="60" height="60" viewBox="0 0 60 60" fill="none" xmlns="http://www.w3.org/2000/svg">
<path d="M26.1635 5.29771C26.0833 5.20424 26.0224 5.09589 25.9841 4.97886C25.9459 4.86183 25.9311 4.73842 25.9405 4.61565C25.9499 4.49289 25.9834 4.37319 26.0391 4.26339C26.0948 4.15358 26.1716 4.05582 26.2651 3.97569L27.7405 2.71089C28.3775 2.18831 29.176 1.90271 30 1.90271C30.824 1.90271 31.6225 2.18831 32.2595 2.71089L33.7354 3.97569C33.9233 4.13777 34.0393 4.36775 34.0579 4.61522C34.0766 4.86269 33.9964 5.10746 33.8348 5.29587C33.6733 5.48429 33.4437 5.60098 33.1963 5.62038C32.9489 5.63977 32.7039 5.56029 32.515 5.39934L31.0391 4.13454C30.7463 3.89391 30.379 3.76237 30 3.76237C29.621 3.76237 29.2537 3.89391 28.9609 4.13454L27.4855 5.39934C27.2965 5.56074 27.0513 5.64067 26.8035 5.62162C26.5557 5.60257 26.3256 5.4861 26.1635 5.29771ZM58.125 27.0374V53.4375C58.1235 54.6803 57.6292 55.8717 56.7505 56.7505C55.8717 57.6292 54.6803 58.1236 53.4375 58.125H6.5625C5.31975 58.1236 4.12831 57.6292 3.24955 56.7505C2.37079 55.8717 1.87646 54.6803 1.875 53.4375V27.0374C1.87462 26.3611 2.02075 25.6928 2.30333 25.0784C2.58592 24.464 2.99825 23.9181 3.51196 23.4783L5.01477 22.1901C5.20364 22.0289 5.44874 21.9492 5.6963 21.9685C5.94385 21.9878 6.17364 22.1045 6.33525 22.2931C6.49686 22.4816 6.57708 22.7265 6.55833 22.9741C6.53957 23.2217 6.42336 23.4517 6.2352 23.6138L4.73239 24.9019C4.57469 25.0375 4.43254 25.1901 4.30855 25.3571L28.9609 46.4905C29.2537 46.7311 29.621 46.8626 30 46.8626C30.379 46.8626 30.7463 46.7311 31.0391 46.4905L55.6915 25.3571C55.5675 25.1901 55.4253 25.0375 55.2676 24.9019L53.7648 23.6138C53.5769 23.4517 53.4609 23.2217 53.4423 22.9742C53.4236 22.7268 53.5038 22.482 53.6653 22.2936C53.8269 22.1052 54.0565 21.9885 54.3039 21.9691C54.5513 21.9497 54.7963 22.0292 54.9852 22.1901L56.488 23.4782C57.0018 23.9181 57.4141 24.464 57.6967 25.0784C57.9793 25.6928 58.1254 26.3611 58.125 27.0374ZM56.25 53.4375V27.3481L40.0307 41.2522L55.867 54.8288C56.115 54.4068 56.2471 53.9269 56.25 53.4375ZM19.9693 41.2522L3.75 27.3481V53.4375C3.75296 53.9269 3.88508 54.4067 4.13298 54.8287L19.9693 41.2522ZM53.4375 56.25C53.7752 56.2477 54.1096 56.1839 54.4244 56.0619L38.5902 42.4871L32.2595 47.9141C31.6303 48.4535 30.8288 48.75 30 48.75C29.1712 48.75 28.3697 48.4535 27.7405 47.9141L21.4098 42.4871L5.57557 56.0619C5.89041 56.1839 6.22483 56.2477 6.5625 56.25H53.4375ZM9.375 26.9335C9.62364 26.9335 9.8621 26.8347 10.0379 26.6589C10.2137 26.483 10.3125 26.2446 10.3125 25.996V12.1875C10.3133 11.4418 10.6099 10.7269 11.1372 10.1997C11.6644 9.67241 12.3793 9.37583 13.125 9.37501H46.875C47.6207 9.37583 48.3356 9.67241 48.8628 10.1997C49.3901 10.7269 49.6867 11.4418 49.6875 12.1875V25.996C49.6875 26.2446 49.7863 26.483 49.9621 26.6589C50.1379 26.8347 50.3764 26.9335 50.625 26.9335C50.8736 26.9335 51.1121 26.8347 51.2879 26.6589C51.4637 26.483 51.5625 26.2446 51.5625 25.996V12.1875C51.561 10.9448 51.0667 9.75332 50.188 8.87456C49.3092 7.9958 48.1178 7.50147 46.875 7.50001H13.125C11.8822 7.50147 10.6908 7.9958 9.81205 8.87456C8.93329 9.75332 8.43896 10.9448 8.4375 12.1875V25.996C8.4375 26.2446 8.53627 26.483 8.71209 26.6589C8.8879 26.8347 9.12636 26.9335 9.375 26.9335ZM19.6875 32.8125V27.7969C18.4366 27.3553 17.3822 26.4855 16.7108 25.3414C16.0393 24.1973 15.7942 22.8526 16.0186 21.5452C16.2431 20.2377 16.9227 19.0518 17.9372 18.1971C18.9518 17.3425 20.2359 16.8741 21.5625 16.875H24.375C30.342 16.875 32.8972 13.6341 33.0029 13.4958C33.122 13.3401 33.2867 13.2255 33.4742 13.1682C33.6616 13.1109 33.8623 13.1136 34.0481 13.1761C34.2339 13.2386 34.3954 13.3577 34.5101 13.5167C34.6248 13.6756 34.6868 13.8665 34.6875 14.0625V19.6875H35.625C36.3709 19.6875 37.0863 19.9838 37.6137 20.5113C38.1412 21.0387 38.4375 21.7541 38.4375 22.5C38.4375 23.2459 38.1412 23.9613 37.6137 24.4888C37.0863 25.0162 36.3709 25.3125 35.625 25.3125H34.6875V30.9375C34.6875 31.1343 34.6256 31.326 34.5106 31.4856C34.3956 31.6453 34.2332 31.7646 34.0466 31.8269C33.8599 31.8891 33.6584 31.891 33.4706 31.8324C33.2828 31.7737 33.1182 31.6575 33.0002 31.5001C32.9028 31.3732 30.6077 28.4718 25.3125 28.1567V32.8125C25.3125 33.5584 25.0162 34.2738 24.4887 34.8012C23.9613 35.3287 23.2459 35.625 22.5 35.625C21.7541 35.625 21.0387 35.3287 20.5113 34.8012C19.9838 34.2738 19.6875 33.5584 19.6875 32.8125ZM34.6875 21.5625V23.4375H35.625C35.8736 23.4375 36.1121 23.3387 36.2879 23.1629C36.4637 22.9871 36.5625 22.7487 36.5625 22.5C36.5625 22.2514 36.4637 22.0129 36.2879 21.8371C36.1121 21.6613 35.8736 21.5625 35.625 21.5625H34.6875ZM23.4375 32.8125V28.125H21.5625V32.8125C21.5625 33.0612 21.6613 33.2996 21.8371 33.4754C22.0129 33.6512 22.2514 33.75 22.5 33.75C22.7486 33.75 22.9871 33.6512 23.1629 33.4754C23.3387 33.2996 23.4375 33.0612 23.4375 32.8125ZM25.3125 18.7109V26.2892C28.0043 26.3721 30.6124 27.2443 32.8125 28.7975V16.2026C30.6124 17.7557 28.0043 18.6279 25.3125 18.7109ZM21.5625 26.25H23.4375V18.75H21.5625C20.5679 18.75 19.6141 19.1451 18.9109 19.8484C18.2076 20.5516 17.8125 21.5055 17.8125 22.5C17.8125 23.4946 18.2076 24.4484 18.9109 25.1517C19.6141 25.8549 20.5679 26.25 21.5625 26.25ZM43.125 21.5625H41.25C41.0014 21.5625 40.7629 21.6613 40.5871 21.8371C40.4113 22.0129 40.3125 22.2514 40.3125 22.5C40.3125 22.7487 40.4113 22.9871 40.5871 23.1629C40.7629 23.3387 41.0014 23.4375 41.25 23.4375H43.125C43.3736 23.4375 43.6121 23.3387 43.7879 23.1629C43.9637 22.9871 44.0625 22.7487 44.0625 22.5C44.0625 22.2514 43.9637 22.0129 43.7879 21.8371C43.6121 21.6613 43.3736 21.5625 43.125 21.5625ZM41.6693 25.4114C41.5591 25.356 41.4391 25.3228 41.3161 25.3139C41.1932 25.3049 41.0696 25.3203 40.9526 25.3592C40.8355 25.398 40.7273 25.4596 40.6341 25.5403C40.5409 25.6211 40.4645 25.7194 40.4094 25.8297C40.3542 25.94 40.3214 26.0601 40.3127 26.1831C40.304 26.3061 40.3197 26.4296 40.3589 26.5466C40.398 26.6635 40.4598 26.7716 40.5408 26.8646C40.6217 26.9576 40.7203 27.0337 40.8307 27.0886L42.7057 28.0261C42.928 28.1366 43.1851 28.1545 43.4206 28.0757C43.656 27.9969 43.8506 27.8279 43.9616 27.6058C44.0727 27.3838 44.0911 27.1267 44.0129 26.8911C43.9346 26.6554 43.7661 26.4605 43.5443 26.3489L41.6693 25.4114ZM41.2509 19.6875C41.3962 19.6875 41.5395 19.6537 41.6693 19.5886L43.5443 18.6511C43.7661 18.5396 43.9346 18.3446 44.0129 18.1089C44.0911 17.8733 44.0727 17.6163 43.9617 17.3942C43.8506 17.1721 43.656 17.0032 43.4206 16.9244C43.1851 16.8456 42.928 16.8634 42.7057 16.9739L40.8307 17.9114C40.6417 18.0058 40.4901 18.1614 40.4006 18.3528C40.311 18.5442 40.2888 18.7602 40.3375 18.9659C40.3861 19.1715 40.5028 19.3547 40.6686 19.4857C40.8344 19.6166 41.0396 19.6878 41.2509 19.6875Z" fill="white"/>
</svg>
