<svg width="60" height="60" viewBox="0 0 60 60" fill="none" xmlns="http://www.w3.org/2000/svg">
<g clip-path="url(#clip0_3_334)">
<path d="M52.4794 37.121C53.2357 34.7869 53.6197 32.3525 53.6197 29.8719C53.6197 27.4004 53.2384 24.9747 52.4868 22.6479C54.1397 22.0272 55.6426 21.0334 56.8904 19.7118C59.047 17.4289 60.185 14.4425 60.0953 11.3036C59.9094 4.823 54.4867 -0.297089 48.0052 -0.112152C44.8659 -0.0224303 41.9499 1.28449 39.7934 3.56781C38.7044 4.72092 37.8758 6.05348 37.3334 7.49452C35.0061 6.74333 32.5804 6.36201 30.108 6.36201C27.6343 6.36201 25.2068 6.74424 22.8781 7.49635C21.1986 3.05191 16.9002 -0.117188 11.8748 -0.117188C5.39151 -0.117188 0.117148 5.15717 0.117148 11.64C0.117148 16.6649 3.28671 20.9629 7.73114 22.6419C6.97858 24.971 6.5968 27.3986 6.5968 29.8719C6.5968 32.3525 6.98087 34.7869 7.73709 37.121C3.28945 38.7987 0.117148 43.0985 0.117148 48.1257C0.117148 49.8954 0.500755 51.5969 1.25744 53.1826C1.46664 53.6207 1.99124 53.8065 2.42932 53.5973C2.86694 53.3881 3.05279 52.8635 2.84405 52.4255C2.20089 51.0778 1.87496 49.6313 1.87496 48.1257C1.87496 42.6124 6.36105 38.1267 11.8748 38.1267C17.3891 38.1267 21.8751 42.6124 21.8751 48.1257C21.8751 53.6394 17.3891 58.1251 11.8748 58.1251C9.35987 58.1251 6.95615 57.188 5.10678 55.4865C4.74927 55.1578 4.19308 55.1812 3.86486 55.5383C3.53619 55.8958 3.55908 56.4515 3.91659 56.7802C6.09143 58.7811 8.91767 59.8829 11.8748 59.8829C16.9075 59.8829 21.2114 56.7042 22.8854 52.2497C25.2113 53.0004 27.6366 53.3817 30.108 53.3817C32.58 53.3817 35.0057 53.0004 37.3316 52.2501C39.0056 56.7046 43.3095 59.8829 48.3422 59.8829C54.8255 59.8829 60.0998 54.6085 60.0998 48.1257C60.0998 43.0985 56.9275 38.7983 52.4794 37.121ZM41.0715 4.77448C42.9053 2.83265 45.3859 1.72119 48.0561 1.64475C48.1531 1.642 48.2492 1.64063 48.3463 1.64063C53.7287 1.64063 58.1832 5.93949 58.3379 11.3535C58.4143 14.0232 57.4466 16.5628 55.6128 18.5051C53.779 20.447 51.2984 21.5584 48.6283 21.6349C48.5312 21.6376 48.4346 21.639 48.338 21.639C42.9556 21.639 38.5011 17.3401 38.3464 11.9261C38.2695 9.25645 39.2377 6.71632 41.0715 4.77448ZM36.8385 50.5619C34.6729 51.2659 32.4129 51.6239 30.108 51.6239C27.8041 51.6239 25.5441 51.2659 23.3784 50.5619C23.5446 49.7755 23.633 48.9606 23.633 48.1257C23.633 41.6428 18.3581 36.3689 11.8748 36.3689C11.0348 36.3689 10.2154 36.4582 9.42487 36.6262C8.71488 34.4527 8.35462 32.1845 8.35462 29.8719C8.35462 27.5666 8.71305 25.3057 9.41846 23.1377C10.2109 23.3071 11.0325 23.3968 11.8748 23.3968C13.889 23.3968 15.8761 22.8786 17.6225 21.8985C18.0455 21.6609 18.1961 21.1254 17.9585 20.7019C17.7209 20.2785 17.1853 20.1284 16.7619 20.3659C15.2778 21.1986 13.5878 21.639 11.8748 21.639C6.3606 21.639 1.87496 17.1533 1.87496 11.6396C1.87496 6.12626 6.36105 1.64063 11.8748 1.64063C17.3891 1.64063 21.8751 6.12626 21.8751 11.64C21.8751 13.9467 21.0709 16.1971 19.6106 17.9773C19.3025 18.3522 19.3574 18.9061 19.7328 19.2142C20.1077 19.5218 20.6616 19.4673 20.9697 19.092C22.6868 16.9986 23.633 14.3518 23.633 11.6396C23.633 10.7977 23.5428 9.97606 23.3739 9.18367C25.5414 8.47825 27.8027 8.11982 30.108 8.11982C32.4129 8.11982 34.6733 8.47779 36.8399 9.18229C36.6481 10.0896 36.5621 11.0257 36.5891 11.9765C36.7717 18.3426 42.0085 23.3972 48.3376 23.3968C48.4506 23.3968 48.5646 23.3954 48.6786 23.3918C49.3991 23.3712 50.1078 23.2856 50.7985 23.1395C51.5035 25.3066 51.8619 27.5675 51.8619 29.8719C51.8619 32.1845 51.5012 34.4527 50.7917 36.6262C50.0011 36.4577 49.1817 36.3689 48.3422 36.3689C41.8588 36.3689 36.5845 41.6428 36.5845 48.1257C36.5845 48.9611 36.6724 49.7759 36.8385 50.5619ZM48.3422 58.1251C42.8279 58.1251 38.3423 53.6394 38.3423 48.1261C38.3423 42.6124 42.8279 38.1267 48.3422 38.1267C53.8564 38.1267 58.342 42.6124 58.342 48.1261C58.342 53.6394 53.8564 58.1251 48.3422 58.1251Z" fill="#CC0444"/>
<path d="M17.8596 6.45174C17.5566 6.24575 17.1579 6.24895 16.8585 6.46044C16.5591 6.67147 16.2387 6.84771 15.9018 6.98733C14.6942 6.0425 12.9442 6.05349 11.7453 7.09582C11.1223 7.63781 10.7327 8.38717 10.6421 9.1965C9.35254 9.00469 8.18707 8.2947 7.42261 7.20614C7.24042 6.94704 6.9328 6.80651 6.61832 6.83672C6.30292 6.86739 6.02872 7.06515 5.90008 7.35445C5.87491 7.41122 5.28348 8.76254 5.35901 10.4164C5.41669 11.6822 5.86941 13.3136 7.52057 14.5734C6.92593 14.7652 6.29788 14.854 5.67212 14.8288C5.26471 14.8128 4.90078 15.0779 4.79092 15.4697C4.68106 15.8615 4.85455 16.2777 5.21023 16.4754C6.58902 17.2412 8.06622 17.6249 9.50956 17.6249C10.8961 17.6249 12.2511 17.2705 13.4569 16.5615C14.9689 15.672 16.0675 14.3102 16.664 12.6471C16.6827 12.605 16.6983 12.5611 16.7106 12.5157C17.0173 11.6126 17.178 10.6233 17.178 9.57415C17.178 9.52838 17.1766 9.48214 17.1748 9.43637C17.6765 8.84493 18.0345 8.1441 18.2194 7.3865C18.3055 7.03036 18.1627 6.65774 17.8596 6.45174ZM15.3932 9.29995C15.4106 9.39151 15.4198 9.48626 15.4198 9.5769C15.4198 10.4384 15.2916 11.2363 15.0476 11.9573C15.0343 11.9902 15.0233 12.0246 15.0142 12.0598C14.5578 13.337 13.7269 14.3628 12.5656 15.0463C11.5027 15.672 10.2827 15.9385 9.03943 15.8483C9.32416 15.7073 9.59928 15.5471 9.86249 15.3685C10.1262 15.1891 10.2726 14.881 10.2443 14.5629C10.2159 14.2447 10.0172 13.9673 9.72562 13.8378C8.08454 13.1086 7.207 11.9486 7.11774 10.3908C7.09943 10.0717 7.11545 9.7655 7.14978 9.48489C8.35874 10.4952 9.90735 11.0463 11.5237 11.0047C12.0003 10.9923 12.3802 10.6027 12.3802 10.1262V9.59292C12.3802 9.58926 12.3802 9.58514 12.3802 9.58102C12.3742 9.13653 12.5628 8.71401 12.8988 8.42242C13.5269 7.87631 14.4818 7.94268 15.0279 8.57073C15.1378 8.69662 15.2778 8.78588 15.4307 8.83303C15.3772 8.98043 15.363 9.14111 15.3932 9.29995Z" fill="#CC0444"/>
<path d="M45.45 12.3331H46.696V17.5741C46.696 18.0593 47.0897 18.453 47.5749 18.453C48.0606 18.453 48.4539 18.0593 48.4539 17.5741V12.3331H49.8111C50.2964 12.3331 50.69 11.9394 50.69 11.4542C50.69 10.969 50.2964 10.5753 49.8111 10.5753H48.4539V8.11618C48.4539 7.27207 49.141 6.58496 49.9855 6.58496H51.1235C51.6088 6.58496 52.0024 6.19129 52.0024 5.70606C52.0024 5.22037 51.6088 4.82715 51.1235 4.82715H49.9855C48.1719 4.82715 46.696 6.30252 46.696 8.11618V10.5753H45.45C44.9648 10.5753 44.5711 10.969 44.5711 11.4542C44.5711 11.9394 44.9648 12.3331 45.45 12.3331Z" fill="#CC0444"/>
<path d="M9.8808 52.6713C10.09 52.6713 10.2992 52.6173 10.4855 52.5097L16.468 49.054C16.8411 48.8389 17.0727 48.4374 17.0727 48.0067C17.0727 47.5764 16.8411 47.1749 16.468 46.9598L10.4855 43.5041C10.1129 43.2885 9.64963 43.2885 9.27655 43.5041C8.90348 43.7193 8.67139 44.1207 8.67139 44.5515V51.4623C8.67139 51.8931 8.90348 52.2946 9.27655 52.5097C9.46286 52.6177 9.6716 52.6713 9.8808 52.6713ZM10.4292 45.5018L14.767 48.0071L10.4292 50.5125V45.5018Z" fill="#CC0444"/>
<path d="M52.1613 41.901H44.523C43.1964 41.901 42.117 42.9804 42.117 44.3075V51.9443C42.117 53.2714 43.1964 54.3508 44.523 54.3508H52.1613C53.4879 54.3508 54.5673 53.2714 54.5673 51.9443V44.3075C54.5673 42.9804 53.4879 41.901 52.1613 41.901ZM52.8095 51.9443C52.8095 52.3023 52.5188 52.593 52.1613 52.593H44.523C44.1655 52.593 43.8748 52.3023 43.8748 51.9443V44.3075C43.8748 43.95 44.1655 43.6588 44.523 43.6588H52.1613C52.5188 43.6588 52.8095 43.95 52.8095 44.3075V51.9443Z" fill="#CC0444"/>
<path d="M48.3422 45.4692C46.8773 45.4692 45.6853 46.6613 45.6853 48.1261C45.6853 49.5909 46.8773 50.7825 48.3422 50.7825C49.807 50.7825 50.999 49.5909 50.999 48.1261C50.999 46.6613 49.807 45.4692 48.3422 45.4692ZM48.3422 49.0247C47.8464 49.0247 47.4431 48.6214 47.4431 48.1261C47.4431 47.6303 47.8464 47.2271 48.3422 47.2271C48.8379 47.2271 49.2412 47.6303 49.2412 48.1261C49.2412 48.6214 48.8379 49.0247 48.3422 49.0247Z" fill="#CC0444"/>
<path d="M36.4691 20.7532C35.9834 20.7532 35.5902 21.1469 35.5902 21.6321V22.0262C34.3515 22.7564 33.0492 23.3867 31.7102 23.9026C30.6381 24.3155 29.5308 24.6588 28.4106 24.9275C28.2385 24.7952 28.0243 24.7151 27.7908 24.7151H23.7666C22.7943 24.7151 22.0038 25.5061 22.0038 26.478V31.0936C22.0038 32.0659 22.7943 32.8565 23.7666 32.8565H24.5709L24.8758 38.7168C24.9 39.186 25.2882 39.5499 25.7529 39.5499C25.768 39.5499 25.7835 39.5494 25.7991 39.5485C26.2839 39.5233 26.6565 39.11 26.6313 38.6252L26.331 32.8565H27.7908C28.0238 32.8565 28.2385 32.7768 28.4102 32.6445C29.1234 32.8166 29.8329 33.019 30.5264 33.2492C30.9874 33.4017 31.4845 33.1522 31.6374 32.6917C31.7903 32.2307 31.5404 31.7331 31.0799 31.5807C30.3351 31.3335 29.5734 31.116 28.8071 30.9316V26.6409C30.0073 26.3535 31.1934 25.985 32.3419 25.5428C33.4525 25.1148 34.5401 24.6135 35.5898 24.0459V33.528C35.2034 33.3193 34.8129 33.1201 34.4197 32.9311C33.9821 32.7205 33.457 32.9045 33.2469 33.3421C33.0364 33.7798 33.2204 34.3048 33.658 34.5154C34.3126 34.8303 34.9599 35.1773 35.5898 35.5472V35.9395C35.5898 36.4252 35.9834 36.8184 36.4687 36.8184C36.9539 36.8184 37.3476 36.4252 37.3476 35.9395V21.6321C37.348 21.1469 36.9544 20.7532 36.4691 20.7532ZM27.0497 31.0982L23.7616 31.0936L23.7666 26.4729H27.0497V31.0982Z" fill="#CC0444"/>
</g>
<defs>
<clipPath id="clip0_3_334">
<rect width="60" height="60" fill="white"/>
</clipPath>
</defs>
</svg>
