<svg width="60" height="60" viewBox="0 0 60 60" fill="none" xmlns="http://www.w3.org/2000/svg">
<g clip-path="url(#clip0_3_283)">
<path d="M23.1989 3.75482H14.7629C14.1159 3.75482 13.5913 4.27935 13.5913 4.92646C13.5913 5.57357 14.1159 6.0981 14.7629 6.0981H23.1989C23.8459 6.0981 24.3705 5.57357 24.3705 4.92646C24.3705 4.27935 23.8459 3.75482 23.1989 3.75482Z" fill="#CC0444"/>
<path d="M19.8091 53.514C19.5913 53.2959 19.2891 53.1707 18.9809 53.1707C18.6727 53.1707 18.3704 53.296 18.1525 53.514C17.9345 53.732 17.8092 54.0342 17.8092 54.3424C17.8092 54.6506 17.9345 54.9528 18.1525 55.1708C18.3704 55.3888 18.6727 55.5141 18.9809 55.5141C19.2891 55.5141 19.5913 55.3887 19.8091 55.1708C20.0271 54.9528 20.1525 54.6506 20.1525 54.3424C20.1525 54.033 20.0272 53.7319 19.8091 53.514Z" fill="#CC0444"/>
<path d="M52.457 37.2497L48.1462 29.7833C49.9138 28.1456 50.3854 25.4431 49.1307 23.2701C48.4254 22.0486 47.2868 21.1747 45.9241 20.8097C44.9476 20.5479 43.9398 20.5717 42.9973 20.8651L38.6873 13.4001C38.4927 13.0631 38.1434 12.8446 37.755 12.8172C37.3664 12.7895 36.9901 12.9573 36.7502 13.2636L23.3313 30.3997L17.6998 33.6511C14.4862 35.5063 13.3814 39.6301 15.2367 42.8436C16.1355 44.4003 17.5866 45.5138 19.3229 45.979C19.9027 46.1344 20.4909 46.2112 21.0755 46.2112C22.2415 46.2112 23.3923 45.9055 24.4293 45.3067L25.0999 44.9195L27.4391 48.971H2.34328V9.84736H35.6184V10.1988C35.6184 10.8459 36.1431 11.3704 36.7901 11.3704C37.4371 11.3704 37.9617 10.8459 37.9617 10.1988V4.60545C37.9617 2.06904 35.8982 0.00537109 33.3616 0.00537109H4.60008C2.06355 0.00537109 0 2.06893 0 4.60545V55.3945C0 57.9309 2.06355 59.9946 4.60008 59.9946H33.3619C35.8983 59.9946 37.962 57.931 37.962 55.3945V40.935L51.6073 38.9954C51.9926 38.9407 52.3256 38.6982 52.4959 38.3482C52.6661 37.9984 52.6516 37.5867 52.457 37.2497ZM2.34328 4.60545C2.34328 3.36103 3.35566 2.34877 4.59996 2.34877H33.3618C34.6061 2.34877 35.6184 3.36103 35.6184 4.60545V7.50396H2.34328V4.60545ZM45.3177 23.0731C46.0757 23.2762 46.7091 23.7623 47.1014 24.4419C47.703 25.484 47.591 26.7453 46.9186 27.6572L44.2247 22.9911C44.5862 22.95 44.9557 22.9761 45.3177 23.0731ZM23.2576 43.2773C22.243 43.8631 21.0607 44.0187 19.9294 43.7155C18.7978 43.4122 17.852 42.6866 17.2662 41.6719C16.057 39.5774 16.7771 36.8896 18.8715 35.6803L23.6851 32.9012L28.0707 40.4983L23.2576 43.2773ZM27.1294 43.7478L29.2424 42.5279L32.0105 47.3222L29.8975 48.5421L27.1294 43.7478ZM35.6184 55.3944C35.6184 56.6388 34.6061 57.6511 33.3618 57.6511H4.60008C3.35578 57.6511 2.3434 56.6388 2.3434 55.3944V51.3143H35.6186V55.3944H35.6184ZM35.6184 48.971H33.8411L34.1965 48.7657C34.7569 48.4422 34.9489 47.7256 34.6253 47.1651L31.5541 41.8456L35.6184 41.2679V48.971ZM30.292 39.6582L25.5241 31.4001L34.0458 20.5179L43.9738 37.7135L30.292 39.6582ZM46.4743 37.3581L35.6033 18.5288L37.5255 16.0742L49.5605 36.9193L46.4743 37.3581Z" fill="#CC0444"/>
<path d="M59.8427 17.1258C59.5192 16.5655 58.8028 16.3733 58.2423 16.697L52.4974 20.0139C51.937 20.3373 51.745 21.0539 52.0686 21.6143C52.2858 21.9901 52.6794 22.2003 53.0844 22.2003C53.2832 22.2003 53.4846 22.1496 53.6691 22.0431L59.4139 18.7262C59.9743 18.4028 60.1664 17.6862 59.8427 17.1258Z" fill="#CC0444"/>
<path d="M49.238 11.9816C48.6128 11.814 47.9706 12.1851 47.803 12.8101L46.9655 15.936C46.7979 16.5612 47.1689 17.2036 47.794 17.371C47.8956 17.3982 47.9975 17.4112 48.098 17.4112C48.6152 17.4112 49.0887 17.066 49.2289 16.5425L50.0665 13.4167C50.2339 12.7915 49.863 12.149 49.238 11.9816Z" fill="#CC0444"/>
<path d="M58.1864 27.309L54.956 26.4434C54.3308 26.2758 53.6886 26.6469 53.5211 27.2719C53.3535 27.897 53.7245 28.5394 54.3496 28.707L57.58 29.5726C57.6816 29.5998 57.7835 29.6128 57.8839 29.6128C58.4012 29.6128 58.8746 29.2676 59.0149 28.7441C59.1824 28.1189 58.8115 27.4764 58.1864 27.309Z" fill="#CC0444"/>
<path d="M22.2225 13.2649H6.05496C5.40797 13.2649 4.88332 13.7894 4.88332 14.4365C4.88332 15.0836 5.40797 15.6082 6.05496 15.6082H22.2226C22.8696 15.6082 23.3943 15.0836 23.3943 14.4365C23.3943 13.7894 22.8695 13.2649 22.2225 13.2649Z" fill="#CC0444"/>
<path d="M23.0512 19.2323C22.8333 19.0132 22.5311 18.889 22.2228 18.889C21.9135 18.889 21.6124 19.0132 21.3945 19.2323C21.1753 19.4503 21.0512 19.7525 21.0512 20.0607C21.0512 20.3689 21.1754 20.6712 21.3945 20.8891C21.6124 21.107 21.9135 21.2324 22.2228 21.2324C22.5311 21.2324 22.8333 21.107 23.0512 20.8891C23.2691 20.6712 23.3945 20.3689 23.3945 20.0607C23.3945 19.7525 23.2692 19.4503 23.0512 19.2323Z" fill="#CC0444"/>
<path d="M17.3796 18.8889H6.05496C5.40797 18.8889 4.88332 19.4134 4.88332 20.0605C4.88332 20.7076 5.40797 21.2321 6.05496 21.2321H17.3796C18.0266 21.2321 18.5513 20.7076 18.5513 20.0605C18.5513 19.4134 18.0266 18.8889 17.3796 18.8889Z" fill="#CC0444"/>
<path d="M19.4389 24.5128H10.5555C9.90855 24.5128 9.3839 25.0373 9.3839 25.6845C9.3839 26.3316 9.90843 26.8561 10.5555 26.8561H19.4388C20.0858 26.8561 20.6105 26.3316 20.6105 25.6845C20.6105 25.0373 20.0859 24.5128 19.4389 24.5128Z" fill="#CC0444"/>
<path d="M6.09949 24.5128H6.04511C5.39812 24.5128 4.87347 25.0373 4.87347 25.6845C4.87347 26.3316 5.39812 26.8561 6.04511 26.8561H6.09949C6.74648 26.8561 7.27113 26.3316 7.27113 25.6845C7.27113 25.0373 6.74648 24.5128 6.09949 24.5128Z" fill="#CC0444"/>
</g>
<defs>
<clipPath id="clip0_3_283">
<rect width="60" height="60" fill="white"/>
</clipPath>
</defs>
</svg>
