<svg width="60" height="60" viewBox="0 0 60 60" fill="none" xmlns="http://www.w3.org/2000/svg">
<g clip-path="url(#clip0_3_188)">
<path fill-rule="evenodd" clip-rule="evenodd" d="M22.9404 34.9164H37.0584C37.5228 34.9164 37.8984 35.292 37.8984 35.7564V59.16C37.8984 59.6244 37.5228 60 37.0584 60H22.9404C22.476 60 22.1004 59.6244 22.1004 59.16V35.7564C22.1004 35.292 22.4772 34.9164 22.9404 34.9164ZM48.2388 4.6572V4.1484C48.2388 3.684 48.6144 3.3084 49.0788 3.3084C49.5432 3.3084 49.9188 3.684 49.9188 4.1484V4.6572C50.316 4.7892 50.6724 5.0124 50.9628 5.3028C51.4452 5.7852 51.7428 6.4512 51.7428 7.1868C51.7428 7.6512 51.3672 8.0268 50.9028 8.0268C50.4384 8.0268 50.0628 7.6512 50.0628 7.1868C50.0628 6.9156 49.9524 6.6696 49.7748 6.4908C49.5972 6.312 49.3512 6.2028 49.0788 6.2028C48.8076 6.2028 48.5616 6.3132 48.3828 6.4908C48.2052 6.6684 48.0948 6.9144 48.0948 7.1868C48.0948 7.9128 48.684 8.0532 49.272 8.1936C50.5068 8.4876 51.7428 8.7816 51.7428 10.8348C51.7428 11.5704 51.444 12.2364 50.9628 12.7188C50.6736 13.008 50.3172 13.2312 49.9188 13.3644V13.8732C49.9188 14.3376 49.5432 14.7132 49.0788 14.7132C48.6144 14.7132 48.2388 14.3376 48.2388 13.8732V13.3644C47.8416 13.2324 47.4852 13.0092 47.1948 12.7188C46.7124 12.2364 46.4148 11.5704 46.4148 10.8348C46.4148 10.3704 46.7904 9.9948 47.2548 9.9948C47.7192 9.9948 48.0948 10.3704 48.0948 10.8348C48.0948 11.106 48.2052 11.352 48.3828 11.5308C48.5604 11.7084 48.8064 11.8188 49.0788 11.8188C49.35 11.8188 49.596 11.7084 49.7748 11.5308C49.9536 11.3532 50.0628 11.1072 50.0628 10.8348C50.0628 10.1088 49.4736 9.9684 48.8856 9.828C47.6508 9.534 46.4148 9.24 46.4148 7.1868C46.4148 6.4512 46.7124 5.7852 47.1948 5.3028C47.4852 5.0124 47.8416 4.7892 48.2388 4.6572ZM49.0788 0C46.5912 0 44.3388 1.008 42.708 2.6388C41.0772 4.2696 40.0692 6.522 40.0692 9.0096C40.0692 11.4972 41.0772 13.7496 42.708 15.3804C44.3388 17.0112 46.5912 18.0192 49.0788 18.0192C51.5664 18.0192 53.8188 17.0112 55.4496 15.3804C57.0804 13.7496 58.0884 11.4972 58.0884 9.0096C58.0884 6.522 57.0804 4.2696 55.4496 2.6388C53.8188 1.008 51.5664 0 49.0788 0ZM54.2616 3.8268C52.9356 2.5008 51.1032 1.68 49.0788 1.68C47.0544 1.68 45.222 2.5008 43.896 3.8268C42.57 5.1528 41.7492 6.9852 41.7492 9.0096C41.7492 11.034 42.57 12.8664 43.896 14.1924C45.222 15.5184 47.0544 16.3392 49.0788 16.3392C51.1032 16.3392 52.9356 15.5184 54.2616 14.1924C55.5876 12.8664 56.4084 11.034 56.4084 9.0096C56.4084 6.9852 55.5876 5.1528 54.2616 3.8268ZM29.16 17.2188V16.71C29.16 16.2456 29.5356 15.87 30 15.87C30.4644 15.87 30.84 16.2456 30.84 16.71V17.2188C31.2372 17.3508 31.5936 17.574 31.884 17.8644C32.3664 18.3468 32.664 19.0128 32.664 19.7484C32.664 20.2128 32.2884 20.5884 31.824 20.5884C31.3596 20.5884 30.984 20.2128 30.984 19.7484C30.984 19.4772 30.8736 19.2312 30.696 19.0524C30.5184 18.8736 30.2724 18.7644 30 18.7644C29.7288 18.7644 29.4828 18.8748 29.304 19.0524C29.1264 19.23 29.016 19.476 29.016 19.7484C29.016 20.4744 29.6052 20.6148 30.1932 20.7552C31.428 21.0492 32.664 21.3432 32.664 23.3964C32.664 24.132 32.3652 24.798 31.884 25.2804C31.5948 25.5696 31.2384 25.7928 30.84 25.926V26.4348C30.84 26.8992 30.4644 27.2748 30 27.2748C29.5356 27.2748 29.16 26.8992 29.16 26.4348V25.926C28.7628 25.794 28.4064 25.5708 28.116 25.2804C27.6336 24.798 27.336 24.132 27.336 23.3964C27.336 22.932 27.7116 22.5564 28.176 22.5564C28.6404 22.5564 29.016 22.932 29.016 23.3964C29.016 23.6676 29.1264 23.9136 29.304 24.0924C29.4816 24.27 29.7276 24.3804 30 24.3804C30.2724 24.3804 30.5172 24.27 30.696 24.0924C30.8736 23.9148 30.984 23.6688 30.984 23.3964C30.984 22.6704 30.3948 22.53 29.8068 22.3896C28.572 22.0956 27.336 21.8016 27.336 19.7484C27.336 19.0128 27.6336 18.3468 28.116 17.8644C28.4064 17.574 28.7628 17.3508 29.16 17.2188ZM30 12.5616C27.5124 12.5616 25.26 13.5696 23.6292 15.2004C21.9984 16.8312 20.9904 19.0836 20.9904 21.5712C20.9904 24.0588 21.9984 26.3112 23.6292 27.942C25.26 29.5728 27.5124 30.5808 30 30.5808C32.4876 30.5808 34.74 29.5728 36.3708 27.942C38.0016 26.3112 39.0096 24.0588 39.0096 21.5712C39.0096 19.0836 38.0016 16.8312 36.3708 15.2004C34.74 13.5708 32.4876 12.5616 30 12.5616ZM35.1828 16.3884C33.8568 15.0624 32.0244 14.2416 30 14.2416C27.9756 14.2416 26.1432 15.0624 24.8172 16.3884C23.4912 17.7144 22.6704 19.5468 22.6704 21.5712C22.6704 23.5956 23.4912 25.428 24.8172 26.754C26.1432 28.08 27.9756 28.9008 30 28.9008C32.0244 28.9008 33.8568 28.08 35.1828 26.754C36.5088 25.428 37.3296 23.5956 37.3296 21.5712C37.3296 19.5468 36.5088 17.7144 35.1828 16.3884ZM10.0812 7.9344V7.4256C10.0812 6.9612 10.4568 6.5856 10.9212 6.5856C11.3856 6.5856 11.7612 6.9612 11.7612 7.4256V7.9344C12.1584 8.0664 12.5148 8.2896 12.8052 8.58C13.2876 9.0624 13.5852 9.7284 13.5852 10.464C13.5852 10.9284 13.2096 11.304 12.7452 11.304C12.2808 11.304 11.9052 10.9284 11.9052 10.464C11.9052 10.1928 11.7948 9.9468 11.6172 9.768C11.4396 9.5904 11.1936 9.48 10.9212 9.48C10.65 9.48 10.404 9.5904 10.2252 9.768C10.0476 9.9456 9.9372 10.1916 9.9372 10.464C9.9372 11.19 10.5264 11.3304 11.1144 11.4708C12.3492 11.7648 13.5852 12.0588 13.5852 14.112C13.5852 14.8476 13.2864 15.5136 12.8052 15.996C12.516 16.2852 12.1596 16.5084 11.7612 16.6416V17.1504C11.7612 17.6148 11.3856 17.9904 10.9212 17.9904C10.4568 17.9904 10.0812 17.6148 10.0812 17.1504V16.6416C9.684 16.5096 9.3276 16.2864 9.0372 15.996C8.5548 15.5136 8.2572 14.8476 8.2572 14.112C8.2572 13.6476 8.6328 13.272 9.0972 13.272C9.5616 13.272 9.9372 13.6476 9.9372 14.112C9.9372 14.3832 10.0476 14.6292 10.2252 14.808C10.4028 14.9856 10.6488 15.096 10.9212 15.096C11.1924 15.096 11.4384 14.9856 11.6172 14.808C11.7948 14.6304 11.9052 14.3844 11.9052 14.112C11.9052 13.386 11.316 13.2456 10.728 13.1052C9.4932 12.8112 8.2572 12.5172 8.2572 10.464C8.2572 9.7284 8.5548 9.0624 9.0372 8.58C9.3276 8.2896 9.6828 8.0664 10.0812 7.9344ZM10.9212 3.2772C8.4336 3.2772 6.1812 4.2852 4.5504 5.916C2.9196 7.5468 1.9116 9.7992 1.9116 12.2868C1.9116 14.7744 2.9196 17.0268 4.5504 18.6576C6.1812 20.2884 8.4336 21.2964 10.9212 21.2964C13.4088 21.2964 15.6612 20.2884 17.292 18.6576C18.9228 17.0268 19.9308 14.7744 19.9308 12.2868C19.9308 9.7992 18.9228 7.5468 17.292 5.916C15.6612 4.2852 13.4088 3.2772 10.9212 3.2772ZM16.104 7.104C14.778 5.778 12.9456 4.9572 10.9212 4.9572C8.8968 4.9572 7.0644 5.7768 5.7384 7.104C4.4124 8.4312 3.5916 10.2624 3.5916 12.2868C3.5916 14.3112 4.4124 16.1436 5.7384 17.4696C7.0644 18.7956 8.8968 19.6164 10.9212 19.6164C12.9456 19.6164 14.778 18.7956 16.104 17.4696C17.43 16.1436 18.2508 14.3112 18.2508 12.2868C18.2496 10.2624 17.43 8.43 16.104 7.104ZM3.8616 25.4568H17.9796C18.444 25.4568 18.8196 25.8324 18.8196 26.2968V59.16C18.8196 59.6244 18.444 60 17.9796 60H3.8616C3.3972 60 3.0216 59.6244 3.0216 59.16V26.2968C3.0216 25.8324 3.3984 25.4568 3.8616 25.4568ZM17.1408 27.1368H4.7016V58.32H17.1396V27.1368H17.1408ZM56.1384 60H42.0192C41.5548 60 41.1792 59.6244 41.1792 59.16V24.054C41.1792 23.5896 41.5548 23.214 42.0192 23.214H56.1372C56.6016 23.214 56.9772 23.5896 56.9772 24.054V59.16C56.9784 59.6244 56.6016 60 56.1384 60ZM42.8592 58.32H55.2972V24.894H42.8592V58.32ZM36.2196 36.5964H23.7804V58.32H36.2184V36.5964H36.2196Z" fill="#CC0444"/>
</g>
<defs>
<clipPath id="clip0_3_188">
<rect width="60" height="60" fill="white"/>
</clipPath>
</defs>
</svg>
