<svg width="60" height="60" viewBox="0 0 60 60" fill="none" xmlns="http://www.w3.org/2000/svg">
<path d="M59.3616 37.2578C58.2203 35.5806 55.922 35.1367 54.2396 36.2673L46.5826 41.3917L46.5604 25.4413L49.2205 27.9333C49.7862 28.4631 50.5238 28.7546 51.2981 28.7546C51.2995 28.7546 51.3012 28.7546 51.3027 28.7546C52.1387 28.7535 52.9459 28.4031 53.5173 27.7931C54.0724 27.2005 54.3636 26.4273 54.3372 25.6157C54.3107 24.804 53.9697 24.0513 53.377 23.4962L48.3339 18.7719C47.9886 18.4485 47.4466 18.4662 47.1233 18.8114C46.8 19.1566 46.8177 19.6985 47.1628 20.0219L52.206 24.7462C52.4647 24.9886 52.6136 25.3172 52.6252 25.6714C52.6366 26.0257 52.5096 26.3633 52.2671 26.6219C52.014 26.8922 51.6707 27.0412 51.3001 27.0417C51.2994 27.0417 51.2988 27.0417 51.2981 27.0417C50.9603 27.0417 50.6384 26.9144 50.3914 26.6831L50.3913 26.683L30.3661 7.92375C30.0361 7.61472 29.5226 7.61519 29.1934 7.92539L9.2202 26.7408C8.96227 26.9838 8.625 27.1111 8.27062 27.1012C7.91625 27.0907 7.58731 26.9427 7.34426 26.6845C7.10121 26.4266 6.97312 26.0893 6.98379 25.7351C6.99434 25.3807 7.14234 25.0518 7.40027 24.8087L28.8663 4.58707C29.3752 4.10765 30.1734 4.10648 30.6836 4.58461L43.2422 16.3493C43.5873 16.6726 44.1293 16.655 44.4527 16.3098C44.7761 15.9646 44.7584 15.4227 44.4132 15.0993L31.8547 3.33457C30.686 2.23957 28.8575 2.24203 27.6919 3.34031L20.8201 9.81375L20.8182 8.6591C20.8178 8.29511 20.6755 7.95316 20.4178 7.69628C20.1606 7.43976 19.8191 7.29855 19.4558 7.29855C19.4551 7.29855 19.4545 7.29855 19.4538 7.29855L14.5382 7.30546C14.1742 7.30593 13.8323 7.4482 13.5754 7.70589C13.3185 7.96359 13.1771 8.30589 13.1777 8.67L13.1913 17.0005L6.22582 23.5622C5.63473 24.1189 5.29594 24.8726 5.27168 25.6842C5.24742 26.4959 5.54074 27.2684 6.0975 27.8592C6.65414 28.4503 7.40777 28.7892 8.21953 28.8135C8.25059 28.8144 8.28164 28.8149 8.31269 28.8149C9.09023 28.8149 9.82652 28.5231 10.3948 27.9875L13.0489 25.4872L13.0595 33.0213C12.2007 32.8963 11.3319 32.8307 10.4591 32.8307H8.99367V32.3171C8.99367 30.5932 7.59105 29.1906 5.86711 29.1906H3.12656C1.40262 29.1905 0 30.593 0 32.317V45.7371C0 46.2101 0.383438 46.5935 0.856406 46.5935C1.32938 46.5935 1.71281 46.2101 1.71281 45.7371V32.317C1.71281 31.5375 2.34703 30.9033 3.12656 30.9033H5.86699C6.64652 30.9033 7.28074 31.5375 7.28074 32.317V33.687V51.2412V52.5976C7.28074 53.3771 6.64652 54.0114 5.86699 54.0114H3.12656C2.34703 54.0114 1.71281 53.3771 1.71281 52.5976V51.099C1.71281 50.6261 1.32938 50.2426 0.856406 50.2426C0.383438 50.2426 0 50.6261 0 51.099V52.5976C0 54.3216 1.40262 55.7242 3.12656 55.7242H5.86699C7.59094 55.7242 8.99356 54.3217 8.99356 52.5976V52.4812L21.5354 57.2306C21.5586 57.2394 21.5822 57.2471 21.6061 57.2538C22.1514 57.4078 22.6964 57.485 23.2345 57.485C23.5256 57.485 23.8147 57.4624 24.1009 57.4172L42.5323 54.7603C42.5366 54.7597 42.5408 54.759 42.5452 54.7583C44.1122 54.5081 45.5905 53.8457 46.8202 52.8428C46.8308 52.8341 46.8414 52.8251 46.8516 52.8158L58.7591 42.1063C60.1458 40.8752 60.4046 38.7908 59.3616 37.2578ZM19.1059 9.01195L19.1099 11.4248L14.9014 15.3893L14.891 9.01769L19.1059 9.01195ZM29.7821 9.72375L44.8452 23.8345L44.8713 42.5368L42.4466 44.1596L39.8789 44.0156L39.8111 43.3336C39.5721 40.9315 37.7988 38.9992 35.454 38.538L35.4386 27.4117C35.4374 26.5578 34.7422 25.864 33.8885 25.864C33.8878 25.864 33.8872 25.864 33.8864 25.864L25.7238 25.8755C25.3098 25.8761 24.9207 26.0378 24.6285 26.331C24.3361 26.6241 24.1754 27.0136 24.176 27.4275L24.1896 37.1284C22.5728 36.7588 21.0289 36.1484 19.5855 35.304C19.4054 35.1987 19.2236 35.097 19.0402 34.998C18.9687 34.9595 18.896 34.9233 18.8239 34.8857C18.7124 34.8274 18.6011 34.7688 18.4883 34.7129C18.3986 34.6684 18.3077 34.6262 18.2173 34.5832C18.1213 34.5376 18.0254 34.4916 17.9288 34.4476C17.8303 34.403 17.7311 34.3604 17.6319 34.3175C17.5413 34.2784 17.4507 34.239 17.3596 34.2014C17.2576 34.1593 17.1551 34.1189 17.0524 34.0787C16.9614 34.0431 16.8702 34.0077 16.7787 33.9735C16.6771 33.9355 16.575 33.8988 16.4727 33.8629C16.3767 33.829 16.2806 33.7959 16.1841 33.7637C16.0861 33.731 15.9879 33.699 15.8892 33.668C15.7841 33.6348 15.6785 33.6032 15.5728 33.5719C15.482 33.5452 15.3913 33.5184 15.3 33.4931C15.1808 33.46 15.0611 33.4289 14.9412 33.3982C14.885 33.3838 14.8293 33.3675 14.7728 33.3536L14.7595 23.8757L29.7821 9.72375ZM33.741 38.3237L26.5779 37.4991L25.903 37.4214L25.8892 27.588L33.726 27.577L33.741 38.3237ZM57.6179 40.8293L45.7221 51.5283C44.7308 52.3321 43.5417 52.8637 42.2814 53.066L23.858 55.7217C23.8541 55.7223 23.8504 55.7229 23.8465 55.7235L23.8337 55.7255C23.2755 55.8138 22.6943 55.7766 22.1059 55.6151L8.99367 50.6496V34.5434H10.4591C11.7066 34.5434 12.9456 34.6874 14.1521 34.9671C14.197 34.9775 14.2418 34.9882 14.2866 34.999C14.4348 35.0347 14.5827 35.0715 14.7299 35.1114C14.7428 35.1149 14.7555 35.1186 14.7684 35.1221C14.916 35.1625 15.0629 35.205 15.2094 35.2494C15.2357 35.2574 15.262 35.2652 15.2882 35.2733C15.444 35.3215 15.5992 35.3718 15.7535 35.4245C15.7695 35.43 15.7853 35.4356 15.8012 35.4411C16.1227 35.5521 16.4409 35.6732 16.7552 35.8042C16.7723 35.8113 16.7895 35.8185 16.8066 35.8257C16.9632 35.8916 17.119 35.9597 17.2737 36.0305C17.2778 36.0323 17.282 36.0343 17.2861 36.0363C17.4356 36.105 17.5841 36.1762 17.7316 36.2495C17.749 36.258 17.7664 36.2665 17.7838 36.2752C17.9279 36.3472 18.0709 36.4219 18.213 36.4983C18.2399 36.5127 18.2666 36.5275 18.2934 36.542C18.4369 36.6202 18.5795 36.6998 18.7207 36.7825C20.7587 37.9746 22.9773 38.7468 25.315 39.0776C25.3223 39.0786 25.3296 39.0796 25.337 39.0804L34.9324 40.1851C34.9855 40.1927 35.0382 40.2015 35.0906 40.2114C36.5032 40.4767 37.6181 41.5205 37.9911 42.8797C38.0464 43.0811 38.0854 43.2894 38.1067 43.503L38.1448 43.8862L20.1612 42.3107C19.6903 42.2695 19.2745 42.6179 19.2333 43.089C19.1919 43.5602 19.5405 43.9757 20.0116 44.0169L39.0244 45.6827C39.0289 45.6831 39.0334 45.683 39.0378 45.6833C39.0423 45.6837 39.0466 45.6844 39.0512 45.6847L42.6368 45.8859C42.6529 45.8869 42.6688 45.8872 42.6847 45.8872C42.7017 45.8872 42.7185 45.8845 42.7354 45.8835C42.7545 45.8823 42.7736 45.8816 42.7925 45.8793C42.8181 45.876 42.843 45.8705 42.8681 45.865C42.8861 45.861 42.9041 45.858 42.9217 45.8529C42.9491 45.845 42.9755 45.8344 43.0021 45.8237C43.0164 45.818 43.0311 45.8136 43.0452 45.8071C43.0852 45.7886 43.1241 45.7672 43.1611 45.7424L46.2047 43.7055L46.205 43.7052L55.1936 37.6897C56.0979 37.0819 57.3323 37.3203 57.9454 38.2213C58.5057 39.0446 58.3666 40.1644 57.6179 40.8293Z" fill="#CB1F45"/>
</svg>
