<svg width="65" height="65" viewBox="0 0 65 65" fill="none" xmlns="http://www.w3.org/2000/svg">
<g clip-path="url(#clip0_3_594)">
<mask id="mask0_3_594" style="mask-type:luminance" maskUnits="userSpaceOnUse" x="0" y="0" width="65" height="65">
<path d="M0 7.62939e-06H65V65H0V7.62939e-06Z" fill="white"/>
</mask>
<g mask="url(#mask0_3_594)">
<path d="M43.5825 44.0459C43.8951 43.8394 44.2097 43.6493 44.5243 43.4773C45.297 43.0546 46.0158 42.5224 46.6599 41.8778C50.1807 38.357 49.2624 33.3327 46.3823 29.1685" stroke="white" stroke-width="2" stroke-miterlimit="10" stroke-linecap="round" stroke-linejoin="round"/>
<path d="M41.4599 24.2374C37.3076 21.3479 32.3222 20.3941 28.9787 23.7378C28.2252 24.4908 27.572 25.2954 27.0925 26.1977C25.1908 29.7747 20.8385 33.2728 16.7191 34.033C14.3563 34.4693 12.1651 35.5202 10.3851 37.2039C4.78174 42.5061 6.34834 51.203 12.6523 57.6545C19.0141 64.1641 27.6994 65.9657 33.1865 60.4792C35.0067 58.6584 36.1345 56.3758 36.5909 53.9062C36.6716 53.4697 36.7832 53.0316 36.9225 52.5948" stroke="white" stroke-width="2" stroke-miterlimit="10" stroke-linecap="round" stroke-linejoin="round"/>
<path d="M50.5679 15.1296L58.8032 6.8938L63.7305 11.8201L55.4947 20.0564L50.5679 15.1296Z" stroke="white" stroke-width="2" stroke-miterlimit="10" stroke-linecap="round" stroke-linejoin="round"/>
<path d="M34.6776 40.7181L34.7553 40.7958L55.4945 20.0561L50.5673 15.13L29.8286 35.8691L29.9061 35.9466" stroke="white" stroke-width="2" stroke-miterlimit="10" stroke-linecap="round" stroke-linejoin="round"/>
<path d="M14.7449 49.3102L21.3141 55.8794" stroke="white" stroke-width="2" stroke-miterlimit="10" stroke-linecap="round" stroke-linejoin="round"/>
<path d="M54.6709 8.18174L62.6625 16.1733" stroke="white" stroke-width="2" stroke-miterlimit="10" stroke-linecap="round" stroke-linejoin="round"/>
<path d="M51.9082 10.9445L59.8998 18.936" stroke="white" stroke-width="2" stroke-miterlimit="10" stroke-linecap="round" stroke-linejoin="round"/>
<path d="M20.3921 47.6507L22.9734 50.2321" stroke="white" stroke-width="2" stroke-miterlimit="10" stroke-linecap="round" stroke-linejoin="round"/>
<path d="M32.8018 37.8222C30.5341 35.5551 26.8574 35.5551 24.5901 37.8222C22.3225 40.0899 22.3225 43.7661 24.5901 46.0339C26.8574 48.3015 30.5341 48.3015 32.8018 46.0339C35.069 43.7661 35.069 40.0899 32.8018 37.8222Z" stroke="white" stroke-width="2" stroke-miterlimit="10" stroke-linecap="round" stroke-linejoin="round"/>
<path d="M7.32837 26.6465V13.4665L17.2767 10.0984V23.2785" stroke="white" stroke-width="2" stroke-miterlimit="10" stroke-linecap="round" stroke-linejoin="round"/>
<path d="M7.32837 26.9851C7.32837 28.6582 5.972 30.0145 4.29901 30.0145C2.6259 30.0145 1.26953 28.6582 1.26953 26.9851C1.26953 25.312 2.6259 23.9558 4.29901 23.9558C5.972 23.9558 7.32837 25.312 7.32837 26.9851Z" stroke="white" stroke-width="2" stroke-miterlimit="10" stroke-linecap="round" stroke-linejoin="round"/>
<path d="M17.2766 23.6171C17.2766 25.2902 15.9202 26.6464 14.2473 26.6464C12.5741 26.6464 11.2178 25.2902 11.2178 23.6171C11.2178 21.944 12.5741 20.5877 14.2473 20.5877C15.9202 20.5877 17.2766 21.944 17.2766 23.6171Z" stroke="white" stroke-width="2" stroke-miterlimit="10" stroke-linecap="round" stroke-linejoin="round"/>
<path d="M54.4829 57.5981V44.4181L58.7702 45.8696" stroke="white" stroke-width="2" stroke-miterlimit="10" stroke-linecap="round" stroke-linejoin="round"/>
<path d="M54.4829 57.9367C54.4829 59.6098 53.1265 60.966 51.4536 60.966C49.7804 60.966 48.4241 59.6098 48.4241 57.9367C48.4241 56.2636 49.7804 54.9073 51.4536 54.9073C53.1265 54.9073 54.4829 56.2636 54.4829 57.9367Z" stroke="white" stroke-width="2" stroke-miterlimit="10" stroke-linecap="round" stroke-linejoin="round"/>
<path d="M38.1788 1.34231C36.2947 1.322 34.7939 3.40682 34.7939 3.40682C34.7939 3.40682 33.4221 1.29102 31.4533 1.26969C29.5384 1.24913 27.9576 2.81167 27.8347 4.72282C27.7654 5.80268 28.1047 6.62864 28.5874 7.37855C29.5518 8.87698 34.7032 12.3905 34.7032 12.3905C34.7032 12.3905 39.9096 9.00177 40.9127 7.51147C41.4126 6.7688 41.7687 5.95363 41.7225 4.87275C41.6407 2.95931 40.0939 1.363 38.1788 1.34231Z" stroke="white" stroke-width="2" stroke-miterlimit="10" stroke-linecap="round" stroke-linejoin="round"/>
</g>
</g>
<defs>
<clipPath id="clip0_3_594">
<rect width="65" height="65" fill="white"/>
</clipPath>
</defs>
</svg>
