<svg width="45" height="45" viewBox="0 0 45 45" fill="none" xmlns="http://www.w3.org/2000/svg">
<g clip-path="url(#clip0_1_46)">
<path d="M32.5449 19.5771L38.2979 20.892" stroke="#363535" stroke-width="2" stroke-miterlimit="10" stroke-linecap="round" stroke-linejoin="round"/>
<path d="M6.70215 20.892L12.444 19.5796" stroke="#363535" stroke-width="2" stroke-miterlimit="10" stroke-linecap="round" stroke-linejoin="round"/>
<path d="M15.9751 14.6221L17.5961 14.3865C17.9624 14.3333 18.2792 14.1032 18.443 13.7711L21.4915 7.59441C21.9041 6.75841 23.0962 6.75841 23.5089 7.59441L26.5574 13.7712C26.7212 14.1032 27.0379 14.3333 27.4043 14.3866L34.2208 15.3771C35.1434 15.5112 35.5118 16.6449 34.8442 17.2957L29.9116 22.1038C29.7023 22.3079 29.5828 22.5831 29.5727 22.8696" stroke="#363535" stroke-width="2" stroke-miterlimit="10" stroke-linecap="round" stroke-linejoin="round"/>
<path d="M15.4279 22.8781C15.4199 22.5885 15.3001 22.3099 15.0886 22.1037L10.1561 17.2956C9.4885 16.6449 9.85686 15.5111 10.7795 15.377L12.9744 15.058" stroke="#363535" stroke-width="2" stroke-miterlimit="10" stroke-linecap="round" stroke-linejoin="round"/>
<path d="M11.2997 41.8031L7.40369 40.9126C6.99321 40.8188 6.70215 40.4537 6.70215 40.0325V28.0306" stroke="#363535" stroke-width="2" stroke-miterlimit="10" stroke-linecap="round" stroke-linejoin="round"/>
<path d="M38.298 28.0587V40.0326C38.298 40.4536 38.007 40.8188 37.5965 40.9126L22.6962 44.3184C22.5672 44.3479 22.4333 44.3479 22.3043 44.3184L14.2944 42.4876" stroke="#363535" stroke-width="2" stroke-miterlimit="10" stroke-linecap="round" stroke-linejoin="round"/>
<path d="M22.5 36.884V44.2313" stroke="#363535" stroke-width="2" stroke-miterlimit="10" stroke-linecap="round" stroke-linejoin="round"/>
<path d="M22.5 24.5029V33.8063" stroke="#363535" stroke-width="2" stroke-miterlimit="10" stroke-linecap="round" stroke-linejoin="round"/>
<path d="M34.5604 28.8663L44.1206 26.7147L38.298 20.892L22.5001 24.5029L6.70225 20.892L0.879639 26.7147L16.7226 30.2804L22.5001 24.5029" stroke="#363535" stroke-width="2" stroke-miterlimit="10" stroke-linecap="round" stroke-linejoin="round"/>
<path d="M22.5 24.5029L28.2775 30.2804L31.5739 29.5385" stroke="#363535" stroke-width="2" stroke-miterlimit="10" stroke-linecap="round" stroke-linejoin="round"/>
<path d="M22.5 0.659485V3.3677" stroke="#363535" stroke-width="2" stroke-miterlimit="10" stroke-linecap="round" stroke-linejoin="round"/>
<path d="M22.5 0.659485V3.3677" stroke="#363535" stroke-width="2" stroke-miterlimit="10" stroke-linecap="round" stroke-linejoin="round"/>
<path d="M29.8025 6.39264L28.0618 8.46729" stroke="#363535" stroke-width="2" stroke-miterlimit="10" stroke-linecap="round" stroke-linejoin="round"/>
<path d="M29.8025 6.39264L28.0618 8.46729" stroke="#363535" stroke-width="2" stroke-miterlimit="10" stroke-linecap="round" stroke-linejoin="round"/>
<path d="M37.805 9.38062L35.7305 11.1215" stroke="#363535" stroke-width="2" stroke-miterlimit="10" stroke-linecap="round" stroke-linejoin="round"/>
<path d="M37.805 9.38062L35.7305 11.1215" stroke="#363535" stroke-width="2" stroke-miterlimit="10" stroke-linecap="round" stroke-linejoin="round"/>
<path d="M15.1978 6.39264L16.9385 8.46729" stroke="#363535" stroke-width="2" stroke-miterlimit="10" stroke-linecap="round" stroke-linejoin="round"/>
<path d="M15.1978 6.39264L16.9385 8.46729" stroke="#363535" stroke-width="2" stroke-miterlimit="10" stroke-linecap="round" stroke-linejoin="round"/>
<path d="M7.19507 9.38062L9.26963 11.1215" stroke="#363535" stroke-width="2" stroke-miterlimit="10" stroke-linecap="round" stroke-linejoin="round"/>
<path d="M7.19507 9.38062L9.26963 11.1215" stroke="#363535" stroke-width="2" stroke-miterlimit="10" stroke-linecap="round" stroke-linejoin="round"/>
</g>
<defs>
<clipPath id="clip0_1_46">
<rect width="45" height="45" fill="white"/>
</clipPath>
</defs>
</svg>
