<svg width="60" height="60" viewBox="0 0 60 60" fill="none" xmlns="http://www.w3.org/2000/svg">
<path d="M60 30.2854C60 25.9614 54.5522 22.8202 47.082 20.9776C49.6398 14.3592 50.0853 8.63071 46.7817 6.18128C45.877 5.51045 44.7606 5.17073 43.4682 5.17073C39.6094 5.17073 34.2822 8.26637 28.7974 13.4126C23.2524 7.91804 17.8747 4.59961 14.0405 4.59961C12.8675 4.59961 11.8496 4.90363 11.0114 5.50307C8.41423 7.36661 8.03266 11.5823 9.90974 17.6948C10.2778 18.8937 10.7418 20.1443 11.2625 21.4207C4.65884 23.3039 0 26.2888 0 30.2854C0 34.223 4.52345 37.1795 10.972 39.0664C8.23575 45.9064 7.66463 51.8736 11.0569 54.3883C11.9628 55.0591 13.078 55.3976 14.3704 55.3976C18.2267 55.3976 23.5453 52.3081 29.0239 47.1717C34.2724 52.1801 39.3066 55.1638 42.9475 55.1638C44.1205 55.1638 45.1385 54.8597 45.9767 54.2603C49.1831 51.9598 48.7609 46.3409 46.2943 39.773C54.1632 37.9697 60 34.7621 60 30.2854ZM43.467 7.6337C44.219 7.6337 44.8418 7.81095 45.3133 8.16175C47.2679 9.60925 47.0512 14.2484 44.6326 20.4397C41.3006 19.7762 37.6708 19.3516 34.0016 19.1731C32.847 17.7576 31.6814 16.4295 30.5157 15.1876C35.8466 10.2124 40.6187 7.6337 43.467 7.6337ZM19.6385 36.2342C20.2146 37.0355 20.798 37.8159 21.3864 38.5827C18.8335 38.3008 16.485 37.8959 14.3679 37.4097C15.1175 35.7874 15.989 34.0925 17.0094 32.3323C17.8415 33.6346 18.7117 34.9406 19.6385 36.2342ZM14.6781 23.1008C16.6081 22.6663 18.724 22.3057 21.011 22.0423C20.6208 22.5445 20.2306 23.0467 19.8466 23.5649C18.8692 24.8844 17.9313 26.2457 17.0352 27.6255C16.1626 26.0931 15.376 24.5803 14.6781 23.1008ZM18.4323 29.9802C19.4539 28.3628 20.5826 26.706 21.8246 25.0308C22.6862 23.8677 23.5515 22.7759 24.4155 21.7259C26.2003 21.6029 28.0614 21.5339 29.9975 21.5339C30.9441 21.5339 31.8685 21.5524 32.7793 21.5832C33.6335 22.6589 34.4914 23.7778 35.3469 24.9693C36.7944 26.9879 38.0708 28.9647 39.2155 30.8898C38.2419 32.4136 37.1797 33.9694 36.0103 35.5437C35.1155 36.7499 34.217 37.8848 33.3197 38.9692C32.2353 39.0123 31.1324 39.0406 29.9975 39.0406C28.182 39.0406 26.4391 38.9741 24.7553 38.8658C23.7176 37.5894 22.6776 36.2453 21.6387 34.7978C20.4928 33.2001 19.4231 31.5864 18.4323 29.9802ZM37.9896 37.0097C38.8869 35.796 39.7497 34.5455 40.5793 33.2813C41.4643 34.9036 42.2385 36.4668 42.8971 37.9599C40.9634 38.3033 38.8733 38.5753 36.6516 38.76C37.0997 38.1851 37.5477 37.6066 37.9896 37.0097ZM37.3471 23.5341C36.9113 22.9297 36.4731 22.3401 36.035 21.7579C38.7847 21.9635 41.3425 22.302 43.6577 22.7476C42.8281 24.584 41.8385 26.5177 40.6569 28.5314C39.6168 26.8341 38.509 25.1551 37.3471 23.5341ZM30.7164 19.0783C30.4776 19.0759 30.2376 19.0722 29.9988 19.0722C28.8787 19.0722 27.7524 19.098 26.6286 19.146C27.3438 18.3521 28.0515 17.6148 28.7556 16.9034C29.403 17.5939 30.0566 18.3164 30.7164 19.0783ZM12.4441 7.50569C12.854 7.21275 13.3906 7.06381 14.0381 7.06381C16.8457 7.06381 21.6461 9.8185 27.0336 15.1383C25.7437 16.4455 24.4537 17.8512 23.1797 19.359C19.8527 19.6408 16.6155 20.1258 13.6639 20.8077C13.1174 19.4907 12.6398 18.2056 12.2619 16.9772C10.7886 12.183 10.8575 8.64302 12.4441 7.50569ZM2.45928 30.2854C2.45928 27.9332 6.11989 25.4309 12.2521 23.7039C13.1949 25.7472 14.3052 27.8483 15.5607 29.9752C14.1919 32.2499 12.9709 34.543 11.9493 36.7819C5.99803 35.0624 2.45928 32.6007 2.45928 30.2854ZM14.3692 52.9396C13.6159 52.9396 12.9931 52.7623 12.5216 52.4128C10.5227 50.9308 10.7984 46.107 13.3759 39.7016C16.5047 40.4438 19.9647 40.9583 23.5195 41.2426C24.7651 42.7369 26.0181 44.1401 27.2699 45.4313C21.9612 50.3769 17.2088 52.9396 14.3692 52.9396ZM26.9351 41.4432C27.9568 41.4814 28.9796 41.5023 29.9975 41.5023C30.3816 41.5023 30.7644 41.4986 31.1484 41.4925C30.4407 42.2753 29.7391 43.0052 29.0424 43.7105C28.3469 42.9966 27.6441 42.2384 26.9351 41.4432ZM44.5427 52.2638C42.4503 53.7667 37.0824 51.3985 30.7976 45.4436C32.0445 44.1819 33.2877 42.8255 34.521 41.3731C37.7299 41.1934 40.9018 40.8303 43.8584 40.2813C46.197 46.3975 46.4173 50.9173 44.5427 52.2638ZM45.36 37.4651C44.4369 35.3295 43.3192 33.1263 42.0736 30.9267C43.627 28.3751 45.0117 25.7878 46.1244 23.2855C53.2278 25.0037 57.537 27.7338 57.537 30.2866C57.5383 32.9306 52.9151 35.7603 45.36 37.4651Z" fill="black"/>
<path d="M29.9989 35.0648C32.6379 35.0648 34.7772 32.9255 34.7772 30.2865C34.7772 27.6476 32.6379 25.5083 29.9989 25.5083C27.36 25.5083 25.2207 27.6476 25.2207 30.2865C25.2207 32.9255 27.36 35.0648 29.9989 35.0648Z" fill="black"/>
</svg>
