<svg width="60" height="60" viewBox="0 0 60 60" fill="none" xmlns="http://www.w3.org/2000/svg">
<g clip-path="url(#clip0_33_6365)">
<path d="M30.4141 32.0684L23.3203 52.6823C25.4393 53.3035 27.6796 53.6462 30.0009 53.6462C32.7534 53.6462 35.3952 53.1698 37.8513 52.3055C37.7882 52.2041 37.7307 52.0964 37.6837 51.9795L30.4141 32.0684Z" fill="black"/>
<path d="M6.35498 29.9989C6.35498 39.3589 11.7945 47.447 19.6821 51.2791L8.40344 20.3765C7.09183 23.3171 6.35498 26.5713 6.35498 29.9989Z" fill="black"/>
<path d="M45.9615 28.8058C45.9615 25.8837 44.9128 23.8607 44.0133 22.2842C42.8142 20.3366 41.6907 18.6878 41.6907 16.7396C41.6907 14.5662 43.3389 12.5431 45.6614 12.5431C45.7666 12.5431 45.8656 12.5561 45.9683 12.561C41.7625 8.70845 36.1584 6.35498 30.0019 6.35498C21.74 6.35498 14.4723 10.593 10.2461 17.0131C10.8004 17.0298 11.322 17.0415 11.7674 17.0415C14.2409 17.0415 18.07 16.7415 18.07 16.7415C19.3457 16.6647 19.4942 18.5375 18.2216 18.6878C18.2216 18.6878 16.9403 18.8382 15.5154 18.9137L24.1244 44.5253L29.2985 29.0056L25.6136 18.913C24.3403 18.8376 23.1345 18.6872 23.1345 18.6872C21.8613 18.613 22.0098 16.6654 23.2836 16.7408C23.2836 16.7408 27.1894 17.0409 29.5113 17.0409C31.9842 17.0409 35.8145 16.7408 35.8145 16.7408C37.0902 16.6654 37.2393 18.5369 35.9648 18.6872C35.9648 18.6872 34.6823 18.8376 33.2587 18.913L41.8046 44.3304L44.163 36.4496C45.1844 33.1793 45.9615 30.8295 45.9615 28.8058Z" fill="black"/>
<path d="M50.7475 18.6553C50.849 19.4076 50.9071 20.2175 50.9071 21.0867C50.9071 23.486 50.4598 26.1834 49.1099 29.5559L41.8867 50.4371C48.9156 46.3377 53.6454 38.7217 53.6454 30.0001C53.646 25.8883 52.5949 22.0228 50.7475 18.6553Z" fill="black"/>
<path d="M29.9999 0C13.4315 0 0.000488281 13.4316 0.000488281 30C0.000488281 46.5684 13.4315 60 29.9999 60C46.5682 60 59.9992 46.5684 59.9992 30C59.9992 13.4316 46.5682 0 29.9999 0ZM30.0011 56.2984C15.4991 56.2984 3.70269 44.502 3.70269 29.9988C3.70269 15.498 15.4985 3.70159 30.0011 3.70159C44.5012 3.70159 56.297 15.4987 56.297 29.9988C56.2977 44.5007 44.5006 56.2984 30.0011 56.2984Z" fill="black"/>
</g>
<defs>
<clipPath id="clip0_33_6365">
<rect width="60" height="60" fill="white"/>
</clipPath>
</defs>
</svg>
