<svg width="60" height="60" viewBox="0 0 60 60" fill="none" xmlns="http://www.w3.org/2000/svg">
<path d="M43.3593 53.1025C43.2477 52.6784 42.9798 52.6226 42.5557 52.9351C41.8861 53.4262 40.9151 53.8615 39.6428 54.2409C38.3705 54.6204 36.9084 54.8101 35.2566 54.8101C32.3772 54.8101 30.2231 54.2633 28.7946 53.1695C28.683 53.0802 28.5379 53.0356 28.3593 53.0356C28.1138 53.0356 27.8236 53.1695 27.4888 53.4374C27.3325 53.5713 27.2488 53.7499 27.2377 53.9731C27.2265 54.1963 27.3102 54.4195 27.4888 54.6427C28.2477 55.357 29.2243 55.8704 30.4185 56.1829C31.6127 56.4954 32.7566 56.6349 33.8504 56.6014C34.9441 56.5679 36.049 56.5177 37.1651 56.4508C38.0803 56.3615 39.0234 56.1327 39.9943 55.7644C40.9653 55.3961 41.6908 55.0612 42.1707 54.7599C42.6506 54.4586 42.9687 54.2298 43.1249 54.0735C43.3928 53.8057 43.4709 53.482 43.3593 53.1025ZM42.0535 49.2521C41.6294 48.203 41.1941 47.5222 40.7477 47.2097C40.2343 46.8749 39.3861 46.7074 38.2031 46.7074C37.1539 46.7074 36.3615 46.8191 35.8258 47.0423C35.1785 47.3101 34.308 47.9351 33.2142 48.9173C32.6339 49.453 32.4999 49.9441 32.8124 50.3905C33.0133 50.5691 33.2086 50.6193 33.3984 50.5412C33.5881 50.463 33.9397 50.2008 34.4531 49.7543C34.52 49.7097 34.6372 49.6148 34.8046 49.4697C34.972 49.3246 35.0892 49.2298 35.1562 49.1851C35.2231 49.1405 35.3348 49.0624 35.491 48.9508C35.6473 48.8391 35.7756 48.761 35.876 48.7164C35.9765 48.6717 36.116 48.6159 36.2946 48.549C36.4731 48.482 36.6406 48.4318 36.7968 48.3983C36.9531 48.3648 37.1372 48.3369 37.3493 48.3146C37.5613 48.2923 37.7901 48.2811 38.0356 48.2811C38.6383 48.2811 39.135 48.3648 39.5256 48.5322C39.9162 48.6996 40.1729 48.8615 40.2957 49.0177C40.4185 49.174 40.5691 49.4195 40.7477 49.7543C40.9709 50.1338 41.1104 50.357 41.1662 50.424C41.222 50.4909 41.3615 50.4798 41.5848 50.3905C42.0981 50.1226 42.2544 49.7432 42.0535 49.2521ZM53.9397 39.8436C53.9397 39.3525 53.8839 38.8559 53.7723 38.3537C53.6606 37.8514 53.4765 37.3492 53.2198 36.847C52.9631 36.3447 52.5836 35.9374 52.0814 35.6249C51.5792 35.3124 50.9932 35.1561 50.3236 35.1561C49.587 35.1561 48.5044 35.6193 47.0758 36.5456C45.6473 37.472 44.2075 38.4039 42.7566 39.3414C41.3057 40.2789 40.1785 40.7476 39.3749 40.7476C38.7723 40.7699 38.0635 40.5579 37.2488 40.1115C36.4341 39.665 35.5859 39.1182 34.7042 38.4708C33.8225 37.8235 32.8906 37.1762 31.9084 36.5289C30.9263 35.8816 29.8102 35.3347 28.5602 34.8883C27.3102 34.4418 26.0714 34.2298 24.8437 34.2521C22.2767 34.2744 20.0781 35.1505 18.2477 36.8804C16.4173 38.6104 15.4798 40.6025 15.4352 42.857C15.3906 45.357 16.2164 47.1874 17.9129 48.3481C18.5602 48.7945 19.2577 49.1126 20.0055 49.3023C20.7533 49.492 21.9084 49.5869 23.4709 49.5869C24.7432 49.5869 26.2164 49.2242 27.8906 48.4987C29.5647 47.7733 31.0602 46.9809 32.3772 46.1215C33.6941 45.2621 35.0334 44.4753 36.395 43.761C37.7566 43.0467 38.7946 42.7008 39.5089 42.7231C40.0892 42.7454 40.8147 43.097 41.6852 43.7778C42.5557 44.4586 43.3537 45.2063 44.0792 46.0211C44.8046 46.8358 45.5635 47.5891 46.356 48.2811C47.1484 48.9731 47.7678 49.3302 48.2142 49.3525C48.9955 49.4195 49.6484 49.2633 50.1729 48.8838C50.6975 48.5043 51.3169 47.8012 52.0312 46.7744C52.6562 45.8592 53.1305 44.732 53.4542 43.3927C53.7778 42.0534 53.9397 40.8704 53.9397 39.8436ZM55.7142 34.4865C55.7142 38.1472 55.0223 41.5456 53.6383 44.6818C52.2544 47.8179 50.4017 50.4519 48.0803 52.5836C45.7589 54.7153 43.0524 56.3838 39.9609 57.5891C36.8693 58.7945 33.6272 59.3972 30.2343 59.3972C26.8414 59.3972 23.5714 58.7554 20.424 57.472C17.2767 56.1885 14.5144 54.4362 12.1372 52.2153C9.75997 49.9943 7.85707 47.299 6.4285 44.1293C4.99993 40.9597 4.28564 37.5891 4.28564 34.0177C4.28564 32.0311 4.50328 30.1059 4.93855 28.242C5.37381 26.3782 5.92069 24.7543 6.57917 23.3704C7.23765 21.9865 8.02448 20.6639 8.93966 19.4028C9.85484 18.1416 10.731 17.0925 11.568 16.2554C12.4051 15.4184 13.2812 14.6427 14.1964 13.9284C15.1115 13.2141 15.8314 12.6952 16.356 12.3715C16.8805 12.0479 17.3548 11.7744 17.7789 11.5512C18.0914 11.3726 18.6606 11.0769 19.4865 10.6639C20.3124 10.251 20.9207 9.9329 21.3113 9.70968C21.7019 9.48647 22.2377 9.15165 22.9185 8.70522C23.5993 8.25879 24.2745 7.76772 24.9441 7.232C25.7477 6.607 26.395 5.79785 26.8861 4.80455C27.3772 3.81124 27.712 2.41057 27.8906 0.602539C30.77 4.06236 32.8459 6.21638 34.1182 7.06459C35.1004 7.71191 36.5513 8.47084 38.4709 9.34138C40.3906 10.2119 41.8303 10.9485 42.7901 11.5512C43.2589 11.8414 43.6941 12.1204 44.0959 12.3883C44.4977 12.6561 45.1729 13.1751 46.1216 13.9452C47.0702 14.7153 47.9185 15.5021 48.6662 16.3057C49.414 17.1092 50.251 18.1695 51.1774 19.4865C52.1037 20.8034 52.8738 22.165 53.4877 23.5713C54.1015 24.9775 54.626 26.6349 55.0613 28.5434C55.4966 30.4519 55.7142 32.4329 55.7142 34.4865Z" fill="black"/>
</svg>
