<svg width="60" height="60" viewBox="0 0 60 60" fill="none" xmlns="http://www.w3.org/2000/svg">
<g clip-path="url(#clip0_33_6414)">
<path fill-rule="evenodd" clip-rule="evenodd" d="M15.5842 16.2109C17.5076 14.2875 20.6236 14.2875 22.5447 16.2109L23.002 16.6715L28.9261 10.743L28.4654 10.2824C25.0915 6.8985 20.35 5.71809 16.0193 6.73462C15.397 2.91778 12.0896 9.375e-05 8.09884 9.375e-05C3.66746 0 0.0743047 3.59991 0.0743047 8.03569C0.0743047 11.8636 2.74505 15.067 6.32602 15.8765C4.96852 20.413 6.07805 25.5366 9.65677 29.1164L23.0064 42.4693L28.9239 36.5408L15.5743 23.188C13.6576 21.2712 13.6543 18.1409 15.5853 16.2086L15.5843 16.2109H15.5842ZM59.9226 8.03569C59.9226 3.59541 56.3306 0 51.898 0C47.8409 0 44.4891 3.01406 43.9487 6.92625C39.4332 5.59744 34.3518 6.71906 30.7863 10.2891L17.4378 23.6431L23.3619 29.5716L36.7081 16.222C38.6393 14.2898 41.7475 14.2943 43.6597 16.211C45.5798 18.1343 45.5798 21.258 43.6553 23.1825L43.198 23.6398L49.1143 29.5727L49.575 29.1077C53.1182 25.5609 54.2444 20.5095 52.95 16.0049C56.8831 15.4878 59.9171 12.1162 59.9171 8.03681L59.9227 8.03569H59.9226ZM53.0972 44.004C54.1592 39.6424 52.981 34.8422 49.5771 31.434L36.2453 18.0788L30.3212 24.0029L43.6521 37.3625C45.5843 39.2969 45.5799 42.4062 43.6643 44.3251C41.7408 46.2485 38.6238 46.2485 36.7005 44.3251L36.2476 43.8678L30.3301 49.8008L30.7831 50.2547C34.3874 53.8612 39.5506 54.9684 44.1072 53.5644C44.8457 57.2363 48.0857 60 51.9746 60C56.4037 60 60.0002 56.4036 60.0002 51.9633C60.0002 47.9095 56.9994 44.5543 53.1006 44.0062L53.0972 44.004ZM35.8787 30.9778L22.5491 44.3339C20.6324 46.2539 17.5087 46.2573 15.5776 44.3273C13.6542 42.3995 13.6542 39.2825 15.5731 37.3557L16.0305 36.9018L10.1086 30.9777L9.65574 31.4284C6.21315 34.8754 5.05046 39.7374 6.17218 44.1401C2.63105 44.9761 -0.000976562 48.1596 -0.000976562 51.9621C-0.000976562 56.4023 3.59218 59.9978 8.02468 59.9978C11.8382 59.9933 15.0328 57.3347 15.851 53.7658C20.2271 54.8532 25.0483 53.6905 28.4686 50.2635L41.7983 36.9073L35.8809 30.9744L35.8787 30.9777V30.9778Z" fill="black"/>
</g>
<defs>
<clipPath id="clip0_33_6414">
<rect width="60" height="60" fill="white"/>
</clipPath>
</defs>
</svg>
