<svg width="60" height="68" viewBox="0 0 60 68" fill="none" xmlns="http://www.w3.org/2000/svg">
<g clip-path="url(#clip0_33_6456)">
<path fill-rule="evenodd" clip-rule="evenodd" d="M52.5526 13.091C52.5028 12.7479 52.204 12.5598 51.955 12.5377C51.706 12.5156 46.8702 12.4436 46.8702 12.4436C46.8702 12.4436 42.82 8.51519 42.4216 8.11128C42.0232 7.71291 41.2431 7.83463 40.9388 7.92316C40.9332 7.92316 40.1807 8.16108 38.9026 8.55392C38.6924 7.8623 38.377 7.01575 37.9288 6.16366C36.4902 3.41375 34.3766 1.95857 31.8259 1.95304C31.8204 1.95304 31.8204 1.95304 31.8148 1.95304C31.6378 1.95304 31.4607 1.96964 31.2837 1.98624C31.2062 1.89771 31.1343 1.80918 31.0513 1.72065C29.9391 0.531053 28.5172 -0.0443804 26.8075 0.00541671C23.5153 0.099478 20.2342 2.47867 17.5729 6.7059C15.7027 9.67713 14.2752 13.4119 13.8713 16.3057C10.0922 17.4787 7.44744 18.2976 7.38657 18.3142C5.47768 18.9117 5.41682 18.9726 5.16783 20.7708C4.99631 22.1264 0 60.7524 0 60.7524L41.8572 67.9896L60 63.4802C60 63.4802 52.5968 13.434 52.5526 13.091ZM36.8056 9.20128C35.8429 9.50007 34.7473 9.83758 33.5577 10.2083C33.5356 8.54286 33.3364 6.21899 32.5563 4.21604C35.0572 4.68635 36.2855 7.51372 36.8056 9.20128ZM31.3667 10.8889C29.1756 11.5694 26.7798 12.3108 24.3785 13.0523C25.0535 10.4683 26.3371 7.88996 27.9085 6.20239C28.495 5.57163 29.3139 4.87447 30.2822 4.47609C31.1951 6.37392 31.3888 9.06849 31.3667 10.8889ZM26.8794 2.19649C27.654 2.17989 28.3014 2.35141 28.8602 2.71659C27.9694 3.17583 27.1118 3.8398 26.3039 4.70295C24.2125 6.94935 22.6079 10.4296 21.9716 13.7937C19.9797 14.4079 18.0266 15.0165 16.2339 15.5698C17.3626 10.2802 21.8001 2.34035 26.8794 2.19649Z" fill="black"/>
<path fill-rule="evenodd" clip-rule="evenodd" d="M51.9552 12.5375C51.7062 12.5154 46.8703 12.4435 46.8703 12.4435C46.8703 12.4435 42.8202 8.51504 42.4218 8.11113C42.2724 7.96173 42.0732 7.88427 41.8574 7.85107V67.9839L59.9946 63.4745C59.9946 63.4745 52.5915 13.4339 52.5472 13.0908C52.5085 12.7478 52.2042 12.5597 51.9552 12.5375Z" fill="black"/>
<path fill-rule="evenodd" clip-rule="evenodd" d="M31.8037 21.8664L29.6956 29.7509C29.6956 29.7509 27.3441 28.6831 24.561 28.8546C20.4776 29.1146 20.4333 31.6875 20.4721 32.3348C20.6934 35.8594 29.9667 36.6285 30.4923 44.8893C30.9018 51.385 27.0453 55.828 21.4901 56.1821C14.8228 56.6026 11.1489 52.6687 11.1489 52.6687L12.5598 46.6598C12.5598 46.6598 16.2559 49.4485 19.2105 49.2603C21.1415 49.1386 21.8332 47.5672 21.7612 46.4551C21.4735 41.8572 13.9154 42.1283 13.4396 34.5702C13.0357 28.2127 17.2131 21.7668 26.4311 21.1858C29.9888 20.959 31.8037 21.8664 31.8037 21.8664Z" fill="white"/>
</g>
<defs>
<clipPath id="clip0_33_6456">
<rect width="60" height="67.9897" fill="white"/>
</clipPath>
</defs>
</svg>
