<svg width="60" height="60" viewBox="0 0 60 60" fill="none" xmlns="http://www.w3.org/2000/svg">
<g clip-path="url(#clip0_1_316)">
<path fill-rule="evenodd" clip-rule="evenodd" d="M55.2644 24.2198H15.2833L53.6856 13.0952C53.9841 13.0087 54.2358 12.8069 54.386 12.5349C54.5361 12.2626 54.5718 11.9421 54.4853 11.6437L52.4757 4.70627C51.6728 1.93542 49.0928 0 46.2016 0C45.5923 0 44.9853 0.0865173 44.3966 0.256805L8.34089 10.7016C6.67326 11.1845 5.29127 12.2932 4.44853 13.8226C3.60624 15.352 3.40849 17.113 3.89143 18.7802L5.85478 25.5579V53.4782C5.85478 57.0744 8.78034 60 12.3761 60H26.4578C27.1051 60 27.6297 59.4754 27.6297 58.8281C27.6297 58.1808 27.1051 57.6562 26.4578 57.6562H12.3765C10.0726 57.6562 8.19853 55.7822 8.19853 53.4782V37.5307H14.2021H14.2048H14.2071H23.3844H23.3871H23.3899H32.5671H32.5699H32.5726H41.7499H41.7526H41.7549H54.0925V53.4782C54.0925 55.7822 52.2185 57.6562 49.9145 57.6562H35.8328C35.186 57.6562 34.6609 58.1808 34.6609 58.8281C34.6609 59.4754 35.186 60 35.8328 60H49.9145C53.5107 60 56.4363 57.0744 56.4363 53.4782V25.3917C56.4363 24.7444 55.9117 24.2198 55.2644 24.2198ZM34.6005 35.1869L39.5796 26.5636H46.0556L41.0769 35.1869H34.6005ZM25.4178 35.1869L30.3969 26.5636H36.8728L31.8942 35.1869H25.4178ZM16.2355 35.1869L21.2141 26.5636H27.6906L22.7115 35.1869H16.2355ZM20.5925 20.0162L12.2548 12.0081L18.5019 10.1985C18.5458 10.2626 18.5971 10.323 18.6557 10.3793L26.9934 18.3875L20.7463 20.197C20.7023 20.1329 20.6506 20.072 20.5925 20.0162ZM36.2956 5.26932L44.6333 13.2774L38.3862 15.087C38.3423 15.0229 38.291 14.962 38.2324 14.9062L29.8947 6.89804L36.1418 5.0885C36.1857 5.15259 36.237 5.21301 36.2956 5.26932ZM27.4754 7.82455L35.8131 15.8322L29.566 17.6422C29.5221 17.5781 29.4708 17.5172 29.4122 17.4614L21.0745 9.45328L27.3216 7.64374C27.366 7.70737 27.4173 7.76825 27.4754 7.82455ZM45.049 2.50809C45.4252 2.39914 45.813 2.34375 46.2016 2.34375C48.056 2.34375 49.7099 3.58337 50.2244 5.35858L51.9081 11.1699L47.2064 12.5317C47.162 12.4677 47.1107 12.4072 47.0521 12.3509L38.7149 4.34326L45.049 2.50809ZM6.5016 14.9533C7.04176 13.9723 7.92662 13.2619 8.9932 12.9529L9.68168 12.7533C9.72608 12.8174 9.77735 12.8783 9.83549 12.9341L18.1732 20.9422L7.82637 23.9397L6.14271 18.1284C5.83372 17.0622 5.96144 15.9348 6.5016 14.9533ZM8.19853 26.5636H18.5078L13.5292 35.1869H8.19853V26.5636ZM43.7832 35.1869L48.7619 26.5636H54.0925V35.1869H43.7832Z" fill="#C73E9B"/>
<path fill-rule="evenodd" clip-rule="evenodd" d="M39.2487 47.4742C39.2487 47.0554 39.0253 46.6686 38.6628 46.4594L28.3672 40.5153C28.0046 40.3061 27.5579 40.3061 27.1953 40.5153C26.8328 40.7245 26.6094 41.1113 26.6094 41.5302V53.4183C26.6094 53.8367 26.8328 54.2235 27.1953 54.4327C27.3766 54.5375 27.5789 54.5902 27.7812 54.5902C27.9836 54.5902 28.1859 54.5375 28.3672 54.4327L38.6628 48.4891C39.0253 48.2799 39.2487 47.8931 39.2487 47.4742ZM28.9531 51.3886V43.5599L35.7331 47.4742L28.9531 51.3886Z" fill="#C73E9B"/>
<path fill-rule="evenodd" clip-rule="evenodd" d="M31.1453 57.6562C30.4998 57.6562 29.9734 58.1827 29.9734 58.8281C29.9734 59.4736 30.4998 60 31.1453 60C31.7912 60 32.3171 59.4736 32.3171 58.8281C32.3171 58.1827 31.7912 57.6562 31.1453 57.6562Z" fill="#C73E9B"/>
</g>
<defs>
<clipPath id="clip0_1_316">
<rect width="60" height="60" fill="white"/>
</clipPath>
</defs>
</svg>
