<svg width="60" height="60" viewBox="0 0 60 60" fill="none" xmlns="http://www.w3.org/2000/svg">
<g clip-path="url(#clip0_1_327)">
<path d="M52.4795 37.121C53.2357 34.7869 53.6198 32.3525 53.6198 29.8719C53.6198 27.4004 53.2384 24.9747 52.4868 22.6479C54.1398 22.0272 55.6426 21.0334 56.8905 19.7118C59.047 17.4289 60.185 14.4425 60.0953 11.3036C59.9094 4.823 54.4868 -0.297089 48.0053 -0.112152C44.8659 -0.0224303 41.95 1.28449 39.7934 3.56781C38.7044 4.72092 37.8759 6.05348 37.3334 7.49452C35.0062 6.74333 32.5805 6.36201 30.1081 6.36201C27.6343 6.36201 25.2068 6.74424 22.8781 7.49635C21.1986 3.05191 16.9002 -0.117188 11.8749 -0.117188C5.39155 -0.117188 0.117188 5.15717 0.117188 11.64C0.117188 16.6649 3.28675 20.9629 7.73118 22.6419C6.97862 24.971 6.59684 27.3986 6.59684 29.8719C6.59684 32.3525 6.98091 34.7869 7.73713 37.121C3.28949 38.7987 0.117188 43.0985 0.117188 48.1257C0.117188 49.8954 0.500794 51.5969 1.25748 53.1826C1.46668 53.6207 1.99127 53.8065 2.42935 53.5973C2.86698 53.3881 3.05283 52.8635 2.84409 52.4255C2.20093 51.0778 1.875 49.6313 1.875 48.1257C1.875 42.6124 6.36109 38.1267 11.8749 38.1267C17.3891 38.1267 21.8752 42.6124 21.8752 48.1257C21.8752 53.6394 17.3891 58.1251 11.8749 58.1251C9.35991 58.1251 6.95619 57.188 5.10682 55.4865C4.7493 55.1578 4.19312 55.1812 3.8649 55.5383C3.53623 55.8958 3.55912 56.4515 3.91663 56.7802C6.09147 58.7811 8.91771 59.8829 11.8749 59.8829C16.9075 59.8829 21.2114 56.7042 22.8855 52.2497C25.2114 53.0004 27.6366 53.3817 30.1081 53.3817C32.58 53.3817 35.0057 53.0004 37.3316 52.2501C39.0056 56.7046 43.3095 59.8829 48.3422 59.8829C54.8255 59.8829 60.0999 54.6085 60.0999 48.1257C60.0999 43.0985 56.9276 38.7983 52.4795 37.121ZM41.0715 4.77448C42.9053 2.83265 45.386 1.72119 48.0561 1.64475C48.1531 1.642 48.2493 1.64063 48.3463 1.64063C53.7287 1.64063 58.1832 5.93949 58.3379 11.3535C58.4144 14.0232 57.4467 16.5628 55.6129 18.5051C53.7791 20.447 51.2984 21.5584 48.6283 21.6349C48.5313 21.6376 48.4347 21.639 48.3381 21.639C42.9557 21.639 38.5012 17.3401 38.3465 11.9261C38.2696 9.25645 39.2377 6.71632 41.0715 4.77448ZM36.8386 50.5619C34.6729 51.2659 32.4129 51.6239 30.1081 51.6239C27.8041 51.6239 25.5442 51.2659 23.3785 50.5619C23.5446 49.7755 23.633 48.9606 23.633 48.1257C23.633 41.6428 18.3582 36.3689 11.8749 36.3689C11.0349 36.3689 10.2155 36.4582 9.42491 36.6262C8.71492 34.4527 8.35466 32.1845 8.35466 29.8719C8.35466 27.5666 8.71309 25.3057 9.4185 23.1377C10.2109 23.3071 11.0326 23.3968 11.8749 23.3968C13.889 23.3968 15.8762 22.8786 17.6226 21.8985C18.0455 21.6609 18.1961 21.1254 17.9586 20.7019C17.721 20.2785 17.1854 20.1284 16.762 20.3659C15.2779 21.1986 13.5878 21.639 11.8749 21.639C6.36063 21.639 1.875 17.1533 1.875 11.6396C1.875 6.12626 6.36109 1.64063 11.8749 1.64063C17.3891 1.64063 21.8752 6.12626 21.8752 11.64C21.8752 13.9467 21.0709 16.1971 19.6106 17.9773C19.3025 18.3522 19.3575 18.9061 19.7328 19.2142C20.1078 19.5218 20.6616 19.4673 20.9697 19.092C22.6868 16.9986 23.633 14.3518 23.633 11.6396C23.633 10.7977 23.5428 9.97606 23.3739 9.18367C25.5414 8.47825 27.8028 8.11982 30.1081 8.11982C32.4129 8.11982 34.6734 8.47779 36.84 9.18229C36.6482 10.0896 36.5621 11.0257 36.5891 11.9765C36.7717 18.3426 42.0086 23.3972 48.3376 23.3968C48.4507 23.3968 48.5647 23.3954 48.6787 23.3918C49.3992 23.3712 50.1078 23.2856 50.7986 23.1395C51.5035 25.3066 51.8619 27.5675 51.8619 29.8719C51.8619 32.1845 51.5012 34.4527 50.7917 36.6262C50.0011 36.4577 49.1817 36.3689 48.3422 36.3689C41.8589 36.3689 36.5845 41.6428 36.5845 48.1257C36.5845 48.9611 36.6724 49.7759 36.8386 50.5619ZM48.3422 58.1251C42.828 58.1251 38.3423 53.6394 38.3423 48.1261C38.3423 42.6124 42.828 38.1267 48.3422 38.1267C53.8564 38.1267 58.3421 42.6124 58.3421 48.1261C58.3421 53.6394 53.8564 58.1251 48.3422 58.1251Z" fill="#C73E9B"/>
<path d="M17.8597 6.45174C17.5567 6.24575 17.158 6.24895 16.8586 6.46044C16.5592 6.67147 16.2388 6.84771 15.9019 6.98733C14.6943 6.0425 12.9443 6.05349 11.7454 7.09582C11.1224 7.63781 10.7328 8.38717 10.6422 9.1965C9.35265 9.00469 8.18718 8.2947 7.42271 7.20614C7.24052 6.94704 6.93291 6.80651 6.61842 6.83672C6.30302 6.86739 6.02882 7.06515 5.90019 7.35445C5.87501 7.41122 5.28358 8.76254 5.35911 10.4164C5.41679 11.6822 5.86952 13.3136 7.52067 14.5734C6.92604 14.7652 6.29799 14.854 5.67222 14.8288C5.26481 14.8128 4.90089 15.0779 4.79103 15.4697C4.68116 15.8615 4.85466 16.2777 5.21034 16.4754C6.58912 17.2412 8.06633 17.6249 9.50966 17.6249C10.8962 17.6249 12.2512 17.2705 13.457 16.5615C14.969 15.672 16.0676 14.3102 16.6641 12.6471C16.6828 12.605 16.6984 12.5611 16.7108 12.5157C17.0175 11.6126 17.1781 10.6233 17.1781 9.57415C17.1781 9.52838 17.1768 9.48214 17.1749 9.43637C17.6766 8.84493 18.0346 8.1441 18.2195 7.3865C18.3056 7.03036 18.1628 6.65774 17.8597 6.45174ZM15.3933 9.29995C15.4107 9.39151 15.4199 9.48626 15.4199 9.5769C15.4199 10.4384 15.2917 11.2363 15.0477 11.9573C15.0344 11.9902 15.0234 12.0246 15.0143 12.0598C14.5579 13.337 13.727 14.3628 12.5657 15.0463C11.5028 15.672 10.2828 15.9385 9.03954 15.8483C9.32427 15.7073 9.59938 15.5471 9.8626 15.3685C10.1263 15.1891 10.2728 14.881 10.2444 14.5629C10.216 14.2447 10.0173 13.9673 9.72573 13.8378C8.08464 13.1086 7.20711 11.9486 7.11784 10.3908C7.09953 10.0717 7.11555 9.7655 7.14989 9.48489C8.35884 10.4952 9.90746 11.0463 11.5238 11.0047C12.0004 10.9923 12.3803 10.6027 12.3803 10.1262V9.59292C12.3803 9.58926 12.3803 9.58514 12.3803 9.58102C12.3743 9.13653 12.5629 8.71401 12.8989 8.42242C13.527 7.87631 14.4819 7.94268 15.028 8.57073C15.1379 8.69662 15.2779 8.78588 15.4308 8.83303C15.3773 8.98043 15.3631 9.14111 15.3933 9.29995Z" fill="#C73E9B"/>
<path d="M45.45 12.3331H46.696V17.5741C46.696 18.0593 47.0897 18.453 47.5749 18.453C48.0606 18.453 48.4538 18.0593 48.4538 17.5741V12.3331H49.8111C50.2963 12.3331 50.69 11.9394 50.69 11.4542C50.69 10.969 50.2963 10.5753 49.8111 10.5753H48.4538V8.11618C48.4538 7.27207 49.1409 6.58496 49.9855 6.58496H51.1235C51.6087 6.58496 52.0024 6.19129 52.0024 5.70606C52.0024 5.22037 51.6087 4.82715 51.1235 4.82715H49.9855C48.1718 4.82715 46.696 6.30252 46.696 8.11618V10.5753H45.45C44.9647 10.5753 44.571 10.969 44.571 11.4542C44.571 11.9394 44.9647 12.3331 45.45 12.3331Z" fill="#C73E9B"/>
<path d="M9.8808 52.6713C10.09 52.6713 10.2992 52.6173 10.4855 52.5097L16.468 49.054C16.8411 48.8389 17.0727 48.4374 17.0727 48.0067C17.0727 47.5764 16.8411 47.1749 16.468 46.9598L10.4855 43.5041C10.1129 43.2885 9.64963 43.2885 9.27655 43.5041C8.90347 43.7193 8.67139 44.1207 8.67139 44.5515V51.4623C8.67139 51.8931 8.90347 52.2946 9.27655 52.5097C9.46286 52.6177 9.6716 52.6713 9.8808 52.6713ZM10.4292 45.5018L14.767 48.0071L10.4292 50.5125V45.5018Z" fill="#C73E9B"/>
<path d="M52.1612 41.901H44.523C43.1964 41.901 42.1169 42.9804 42.1169 44.3075V51.9443C42.1169 53.2714 43.1964 54.3508 44.523 54.3508H52.1612C53.4878 54.3508 54.5672 53.2714 54.5672 51.9443V44.3075C54.5672 42.9804 53.4878 41.901 52.1612 41.901ZM52.8094 51.9443C52.8094 52.3023 52.5187 52.593 52.1612 52.593H44.523C44.1654 52.593 43.8748 52.3023 43.8748 51.9443V44.3075C43.8748 43.95 44.1654 43.6588 44.523 43.6588H52.1612C52.5187 43.6588 52.8094 43.95 52.8094 44.3075V51.9443Z" fill="#C73E9B"/>
<path d="M48.3422 45.4693C46.8773 45.4693 45.6853 46.6613 45.6853 48.1261C45.6853 49.591 46.8773 50.7825 48.3422 50.7825C49.807 50.7825 50.999 49.591 50.999 48.1261C50.999 46.6613 49.807 45.4693 48.3422 45.4693ZM48.3422 49.0247C47.8464 49.0247 47.4431 48.6214 47.4431 48.1261C47.4431 47.6304 47.8464 47.2271 48.3422 47.2271C48.8379 47.2271 49.2412 47.6304 49.2412 48.1261C49.2412 48.6214 48.8379 49.0247 48.3422 49.0247Z" fill="#C73E9B"/>
<path d="M36.469 20.7532C35.9833 20.7532 35.5901 21.1469 35.5901 21.6321V22.0262C34.3514 22.7564 33.0491 23.3867 31.7101 23.9026C30.638 24.3155 29.5307 24.6588 28.4105 24.9275C28.2384 24.7952 28.0242 24.7151 27.7907 24.7151H23.7665C22.7942 24.7151 22.0037 25.5061 22.0037 26.478V31.0936C22.0037 32.0659 22.7942 32.8565 23.7665 32.8565H24.5708L24.8757 38.7168C24.8999 39.186 25.2881 39.5499 25.7528 39.5499C25.7679 39.5499 25.7834 39.5494 25.799 39.5485C26.2838 39.5233 26.6564 39.11 26.6312 38.6252L26.3309 32.8565H27.7907C28.0237 32.8565 28.2384 32.7768 28.4101 32.6445C29.1233 32.8166 29.8328 33.019 30.5263 33.2492C30.9873 33.4017 31.4844 33.1522 31.6373 32.6917C31.7902 32.2307 31.5403 31.7331 31.0798 31.5807C30.335 31.3335 29.5733 31.116 28.807 30.9316V26.6409C30.0072 26.3535 31.1933 25.985 32.3418 25.5428C33.4523 25.1148 34.54 24.6135 35.5896 24.0459V33.528C35.2033 33.3193 34.8128 33.1201 34.4196 32.9311C33.982 32.7205 33.4569 32.9045 33.2468 33.3421C33.0362 33.7798 33.2203 34.3048 33.6579 34.5154C34.3125 34.8303 34.9598 35.1773 35.5896 35.5472V35.9395C35.5896 36.4252 35.9833 36.8184 36.4686 36.8184C36.9538 36.8184 37.3475 36.4252 37.3475 35.9395V21.6321C37.3479 21.1469 36.9542 20.7532 36.469 20.7532ZM27.0496 31.0982L23.7615 31.0936L23.7665 26.4729H27.0496V31.0982Z" fill="#C73E9B"/>
</g>
<defs>
<clipPath id="clip0_1_327">
<rect width="60" height="60" fill="white"/>
</clipPath>
</defs>
</svg>
