<svg width="65" height="65" viewBox="0 0 65 65" fill="none" xmlns="http://www.w3.org/2000/svg">
<path d="M41.9575 59.3562H4.4314" stroke="white" stroke-width="2" stroke-miterlimit="10" stroke-linecap="round" stroke-linejoin="round"/>
<path d="M9.85669 59.3557L14.653 48.8135" stroke="white" stroke-width="2" stroke-miterlimit="10" stroke-linecap="round" stroke-linejoin="round"/>
<mask id="mask0_3_501" style="mask-type:luminance" maskUnits="userSpaceOnUse" x="0" y="0" width="65" height="65">
<path d="M0 7.62939e-06H65V65H0V7.62939e-06Z" fill="white"/>
</mask>
<g mask="url(#mask0_3_501)">
<path d="M30.2326 59.3557L27.4142 53.5044C27.2136 53.0867 26.7909 52.8201 26.3262 52.8201H20.0624C19.599 52.8201 19.1762 53.0867 18.9744 53.5044L16.156 59.3557" stroke="white" stroke-width="2" stroke-miterlimit="10" stroke-linecap="round" stroke-linejoin="round"/>
<path d="M31.7358 48.8134L36.5321 59.3556" stroke="white" stroke-width="2" stroke-miterlimit="10" stroke-linecap="round" stroke-linejoin="round"/>
<path d="M0.952148 44.7386V27.2612" stroke="white" stroke-width="2" stroke-miterlimit="10" stroke-linecap="round" stroke-linejoin="round"/>
<path d="M45.4365 33.3746V26.344" stroke="white" stroke-width="2" stroke-miterlimit="10" stroke-linecap="round" stroke-linejoin="round"/>
<path d="M0.952148 22.8173V16.655C0.952148 16.1255 1.38125 15.6964 1.91064 15.6964H40.5856" stroke="white" stroke-width="2" stroke-miterlimit="10" stroke-linecap="round" stroke-linejoin="round"/>
<path d="M45.4365 45.9151V47.855C45.4365 48.3843 45.0074 48.8134 44.478 48.8134H1.91064C1.38125 48.8134 0.952148 48.3843 0.952148 47.855V44.0489H42.82" stroke="white" stroke-width="2" stroke-miterlimit="10" stroke-linecap="round" stroke-linejoin="round"/>
<path d="M23.1944 26.6868C18.9148 26.6868 15.1181 28.5462 12.7331 31.4181C12.3875 31.8341 12.3875 32.4415 12.7331 32.8575C15.1181 35.7294 18.9148 37.5888 23.1944 37.5888C27.474 37.5888 31.2707 35.7294 33.6558 32.8575C34.0013 32.4415 34.0013 31.8341 33.6558 31.4181C31.2707 28.5462 27.474 26.6868 23.1944 26.6868Z" stroke="white" stroke-width="2" stroke-miterlimit="10" stroke-linecap="round" stroke-linejoin="round"/>
<path d="M21.3302 26.8071C19.1277 27.5773 17.5474 29.6724 17.5474 32.1377C17.5474 34.6031 19.1277 36.6981 21.3302 37.4684" stroke="white" stroke-width="2" stroke-miterlimit="10" stroke-linecap="round" stroke-linejoin="round"/>
<path d="M25.0588 37.4684C27.2613 36.6982 28.8417 34.6032 28.8417 32.1377C28.8417 29.6724 27.2613 27.5773 25.0588 26.807" stroke="white" stroke-width="2" stroke-miterlimit="10" stroke-linecap="round" stroke-linejoin="round"/>
<path d="M23.1943 21.907V22.8326" stroke="white" stroke-width="2" stroke-miterlimit="10" stroke-linecap="round" stroke-linejoin="round"/>
<path d="M30.126 23.9691L30.5046 23.5905" stroke="white" stroke-width="2" stroke-miterlimit="10" stroke-linecap="round" stroke-linejoin="round"/>
<path d="M16.2631 23.9691L15.8845 23.5905" stroke="white" stroke-width="2" stroke-miterlimit="10" stroke-linecap="round" stroke-linejoin="round"/>
<path d="M50.1389 38.8934C49.7174 33.6794 45.4734 32.703 39.6589 33.0447C39.1892 33.0725 38.8121 33.4496 38.7855 33.9192C38.444 39.7324 39.4202 43.9766 44.6329 44.3994" stroke="white" stroke-width="2" stroke-miterlimit="10" stroke-linecap="round" stroke-linejoin="round"/>
<path d="M52.5852 50.7672L50.6567 48.8389" stroke="white" stroke-width="2" stroke-miterlimit="10" stroke-linecap="round" stroke-linejoin="round"/>
<path d="M54.5796 44.916L62.2247 52.5623C62.4735 52.81 62.4735 53.2125 62.2247 53.4599L59.1994 56.4852C58.9519 56.7328 58.5507 56.7328 58.3019 56.4852L55.726 53.9093" stroke="white" stroke-width="2" stroke-miterlimit="10" stroke-linecap="round" stroke-linejoin="round"/>
<path d="M48.8576 49.3362L44.8571 45.3356C44.4975 44.9761 44.4975 44.3931 44.8571 44.0336L49.7738 39.1168C50.1333 38.7573 50.7164 38.7573 51.076 39.1168L55.0764 43.1175C55.4361 43.477 55.4361 44.0599 55.0764 44.4194L50.1596 49.3362C49.8001 49.6958 49.2173 49.6958 48.8576 49.3362Z" stroke="white" stroke-width="2" stroke-miterlimit="10" stroke-linecap="round" stroke-linejoin="round"/>
<path d="M46.3628 10.3731H58.2709" stroke="white" stroke-width="2" stroke-miterlimit="10" stroke-linecap="round" stroke-linejoin="round"/>
<path d="M46.3628 14.6994H58.2709" stroke="white" stroke-width="2" stroke-miterlimit="10" stroke-linecap="round" stroke-linejoin="round"/>
<path d="M46.3628 19.0257H52.1338" stroke="white" stroke-width="2" stroke-miterlimit="10" stroke-linecap="round" stroke-linejoin="round"/>
<path d="M61.6758 5.64382H42.9578C41.6478 5.64382 40.5857 6.70578 40.5857 8.01594V21.3827C40.5857 22.3206 41.1307 23.1297 41.921 23.514C42.3181 23.707 42.5814 24.0971 42.5814 24.5388V27.5199C42.5814 28.1961 43.41 28.522 43.8706 28.027L47.255 24.39C47.632 23.985 48.1604 23.7548 48.7136 23.7548H61.6758C62.9859 23.7548 64.048 22.6929 64.048 21.3827V8.01606C64.048 6.70578 62.9859 5.64382 61.6758 5.64382Z" stroke="white" stroke-width="2" stroke-miterlimit="10" stroke-linecap="round" stroke-linejoin="round"/>
</g>
</svg>
