<svg width="65" height="65" viewBox="0 0 65 65" fill="none" xmlns="http://www.w3.org/2000/svg">
<path d="M52.0471 33.6121C51.53 33.5171 51.0338 33.8595 50.9389 34.3769C50.8441 34.8941 51.1865 35.3902 51.7037 35.485C57.0854 36.4719 60.9912 41.1618 60.9912 46.6366C60.9912 52.1398 57.0498 56.739 51.8419 57.7615C51.8317 57.7632 51.8212 57.7638 51.811 57.7657C51.0955 57.9041 50.3694 57.9743 49.6535 57.9743C43.4018 57.9743 38.3157 52.8882 38.3157 46.6366C38.3157 41.0904 42.3102 36.4555 47.6034 35.485C48.1206 35.3902 48.463 34.8941 48.3681 34.3769C48.2733 33.8595 47.7764 33.5169 47.2599 33.6121C44.2251 34.1685 41.5942 35.735 39.6822 37.9242L33.762 35.6314V32.3271C35.9074 30.6847 37.3868 28.2163 37.7226 25.4009C40.2724 25.2878 42.171 23.2477 42.171 20.8221C42.171 19.6982 41.7581 18.6262 41.024 17.7987V13.6198C41.0243 6.10975 34.9145 0 27.4047 0C19.895 0 13.7851 6.10975 13.7851 13.6197V17.9067C13.0427 18.7272 12.6386 19.7438 12.6386 20.822C12.6386 23.2449 14.5332 25.2874 17.0864 25.4007C17.4209 28.2339 18.9163 30.8048 21.2714 32.4865V35.6313L7.89128 40.8186C7.88531 40.8209 7.87935 40.8233 7.87338 40.8257C7.63788 40.9226 2.10425 43.2718 2.10425 49.7396V62.8431C2.10425 64.0324 3.07176 65 4.26118 65C4.85151 65 50.17 65 50.7974 65C51.981 65 52.9439 64.0372 52.9439 62.8535V59.4651C58.6591 57.9983 62.8956 52.8031 62.8956 46.6369C62.8956 40.2424 58.3331 34.7647 52.0471 33.6121ZM36.5471 38.7521L33.117 45.6264C33.0705 45.5934 32.2099 44.982 28.8954 42.6281C31.3292 39.624 30.5141 40.6301 33.1131 37.422L36.5471 38.7521ZM29.9731 45.7297L28.9924 47.2057H26.0488L25.0682 45.7297L27.5206 43.9879L29.9731 45.7297ZM23.1759 35.9373V33.5607C24.4626 34.1142 25.9888 34.4373 27.5397 34.4373C29.0341 34.4373 30.5138 34.11 31.8579 33.4829V35.9463L27.5205 41.3001L23.1759 35.9373ZM39.3457 22.8337C38.9128 23.206 38.3801 23.4278 37.798 23.4856V18.1591C40.2368 18.3953 41.0881 21.3351 39.3457 22.8337ZM17.0118 23.4856C15.5478 23.3406 14.5431 22.1682 14.5431 20.8221C14.5431 19.4725 15.7149 18.4151 17.0118 18.2024V23.4856ZM17.0429 16.2782C16.5992 16.3187 16.0718 16.4497 15.6895 16.5986V13.6197C15.6895 7.1599 20.9449 1.90442 27.4046 1.90442C33.8642 1.90442 39.1198 7.15978 39.1198 13.6197V16.5151C38.6998 16.3657 38.2564 16.2751 37.798 16.248C37.798 15.1036 37.9371 15.4292 34.6195 11.87C34.3543 11.5854 34.0431 11.1678 33.385 11.0296C32.9273 10.9333 32.436 11.015 32.019 11.2875C28.2773 13.7318 23.5818 15.1039 19.0717 14.8083C17.9695 14.7356 17.2128 15.3623 17.0429 16.2782ZM18.9163 24.1791C18.9163 23.3816 18.9163 17.5344 18.9163 16.7072C23.7616 17.0317 28.8737 15.5973 32.9975 12.9227C34.7183 14.7715 35.6439 15.731 35.8937 16.0528C35.8937 25.5511 35.8959 23.861 35.8884 24.3879C35.7773 28.8768 32.0974 32.5329 27.5397 32.5329C22.4692 32.533 18.9163 28.6236 18.9163 24.1791ZM21.9224 37.4244L26.1409 42.6315C24.7667 43.6075 22.639 45.1189 21.9239 45.6267L18.4938 38.7523L21.9224 37.4244ZM12.8235 63.0957V51.7695C12.8235 51.2436 12.3974 50.8173 11.8714 50.8173C11.3454 50.8173 10.9192 51.2436 10.9192 51.7695V63.0957H4.26118C4.12191 63.0957 4.00867 62.9823 4.00867 62.8432V49.7399C4.00867 44.617 8.33549 42.6988 8.59168 42.5899L16.7098 39.4426L20.281 46.5997C20.281 46.5997 20.281 46.5997 20.2811 46.5998C20.5146 47.0676 20.9394 47.4086 21.4466 47.5354C22.3746 47.7675 22.9272 47.25 23.5145 46.833L24.5364 48.3709L22.0441 63.0957H12.8235ZM42.2252 63.0956H32.997L32.1424 58.0458C32.0548 57.5274 31.5649 57.1787 31.0447 57.2658C30.5263 57.3535 30.1771 57.845 30.2649 58.3635L31.0658 63.0956H23.9757L26.3429 49.11H28.6988L29.5128 53.9198C29.6004 54.4383 30.0912 54.7875 30.6106 54.6998C31.129 54.6121 31.4782 54.1205 31.3904 53.6021L30.5051 48.3709L31.5269 46.833L32.1264 47.2588C33.0208 47.8942 34.2707 47.5803 34.76 46.5999C34.7601 46.5999 34.7601 46.5999 34.7601 46.5999L38.3311 39.4432L38.4936 39.506C37.17 41.5769 36.4116 44.0418 36.4116 46.637C36.4116 51.1876 38.7192 55.2092 42.2254 57.5938L42.2252 63.0956ZM51.0397 62.8536C51.0397 62.9872 50.9312 63.0957 50.7976 63.0957H44.1297V58.6702C45.8119 59.4455 47.6831 59.8791 49.6538 59.8791C50.1219 59.8791 50.5841 59.8543 51.0399 59.8067L51.0397 62.8536Z" fill="white"/>
<path d="M54.1604 43.8232C53.7932 43.4467 53.1907 43.4388 52.8138 43.8059L49.0703 47.4548L47.5021 45.9177C47.1265 45.5496 46.5236 45.5556 46.1555 45.9313C45.7874 46.3068 45.7934 46.9097 46.1689 47.2779L48.4019 49.4661C48.587 49.6476 48.8277 49.7383 49.0684 49.7383C49.3082 49.7383 49.548 49.6483 49.733 49.4681L54.143 45.1697C54.5196 44.8025 54.5273 44.1998 54.1604 43.8232Z" fill="white"/>
<path d="M49.6536 36.744C44.1986 36.744 39.7607 41.182 39.7607 46.6369C39.7607 52.0918 44.1986 56.5297 49.6536 56.5297C55.1085 56.5297 59.5464 52.0918 59.5464 46.6369C59.5464 41.182 55.1085 36.744 49.6536 36.744ZM49.6536 54.6251C45.2488 54.6251 41.6652 51.0415 41.6652 46.6367C41.6652 42.232 45.2487 38.6483 49.6536 38.6483C54.0583 38.6483 57.642 42.232 57.642 46.6367C57.642 51.0415 54.0583 54.6251 49.6536 54.6251Z" fill="white"/>
</svg>
