<svg width="65" height="65" viewBox="0 0 65 65" fill="none" xmlns="http://www.w3.org/2000/svg">
<path d="M56.7701 8.45287H55.9989C57.4689 6.05947 56.9261 2.84622 54.5667 1.0957C52.0245 -0.790276 48.4119 -0.183199 46.6378 2.46804L42.633 8.453H8.22974C5.40192 8.453 3.10132 10.7536 3.10132 13.5814V46.3695C3.10132 49.1973 5.40192 51.4979 8.22974 51.4979H28.1501L26.6449 57.8197H23.3964C21.2793 57.8197 19.5568 59.542 19.5568 61.6592V62.4609H15.5521C14.851 62.4609 14.2826 63.0293 14.2826 63.7304C14.2826 64.4314 14.851 64.9999 15.5521 64.9999H49.4478C50.149 64.9999 50.7173 64.4314 50.7173 63.7304C50.7173 63.0293 50.149 62.4609 49.4478 62.4609H45.4432V61.6592C45.4432 59.542 43.7207 57.8197 41.6035 57.8197H38.355L36.8499 51.4979H56.7702C59.598 51.4979 61.8986 49.1973 61.8986 46.3695V39.1549V13.5813C61.8986 10.7535 59.598 8.45287 56.7701 8.45287ZM38.5803 30.7707C36.5955 32.1601 32.877 30.2715 29.3259 32.1664C28.4595 27.6653 29.0057 23.4322 33.5156 22.4978C34.0985 22.3763 34.726 22.3213 35.2602 22.332C36.7867 23.4645 38.3306 24.61 39.8528 25.7395C40.5191 27.6778 40.269 29.5886 38.5803 30.7707ZM39.8597 17.1631L43.4533 19.8293L40.6898 23.1987C39.552 22.3546 38.574 21.629 37.4363 20.7847C37.6725 20.4317 39.6438 17.4857 39.8597 17.1631ZM48.7481 3.88011C49.7096 2.4429 51.6706 2.10851 53.0539 3.13491C54.4376 4.16143 54.6854 6.13501 53.589 7.47193C51.6434 9.84374 47.0181 15.483 45.0652 17.864L41.2732 15.0505L48.7481 3.88011ZM42.904 61.6592V62.4609H22.0958V61.6592C22.0958 60.9421 22.6793 60.3587 23.3964 60.3587H41.6034C42.3206 60.3587 42.904 60.9421 42.904 61.6592ZM35.7449 57.8197H29.2549L30.7601 51.4979H34.2398L35.7449 57.8197ZM59.3596 46.3695C59.3596 47.7973 58.198 48.9589 56.7702 48.9589C54.755 48.9589 10.4957 48.9589 8.22987 48.9589C6.80206 48.9589 5.64046 47.7973 5.64046 46.3695V40.4244H9.2682C9.96935 40.4244 10.5377 39.8559 10.5377 39.1549C10.5377 38.4539 9.96935 37.8854 9.2682 37.8854H5.6402V13.5813C5.6402 12.1535 6.8018 10.9919 8.22962 10.9919H40.934C39.7178 12.8094 36.1697 18.1119 35.0458 19.7913C32.5579 19.8138 30.0741 20.6805 28.4482 22.5787C26.2355 25.1615 25.8468 29.2198 27.2928 34.6409C27.54 35.5679 28.6966 35.9 29.3965 35.2315C32.679 32.0949 36.7674 35.5162 40.4285 32.5529C42.6633 30.7439 43.1922 27.8679 42.3495 25.1786C43.4886 23.7898 52.8438 12.384 53.9855 10.9919H56.77C58.1978 10.9919 59.3594 12.1535 59.3594 13.5813V37.8852H19.424C18.7228 37.8852 18.1545 38.4537 18.1545 39.1547C18.1545 39.8558 18.7228 40.4243 19.424 40.4243H59.3596V46.3695Z" fill="white"/>
<path d="M14.101 37.9099C13.4899 38.0348 13.0803 38.563 13.0803 39.1554C13.0803 39.9495 13.8064 40.5576 14.5974 40.3995C15.3004 40.2568 15.7286 39.5794 15.594 38.9066C15.4527 38.2121 14.7791 37.7734 14.101 37.9099Z" fill="white"/>
</svg>
