<svg width="65" height="65" viewBox="0 0 65 65" fill="none" xmlns="http://www.w3.org/2000/svg">
<path d="M17.2656 25.5511C16.705 25.5511 16.25 25.0961 16.25 24.5355V20.8569C16.25 20.538 16.3983 20.2394 16.6522 20.0484C17.6881 19.2644 18.2812 18.0862 18.2812 16.8167V13.7698C18.2812 11.5294 16.4592 9.70734 14.2188 9.70734C11.9783 9.70734 10.1562 11.5294 10.1562 13.7698V16.8167C10.1562 18.0862 10.7494 19.2644 11.7853 20.0484C12.0392 20.2394 12.1875 20.54 12.1875 20.8589V24.5375C12.1875 25.0981 11.7325 25.5531 11.1719 25.5531C10.6113 25.5531 10.1562 25.0961 10.1562 24.5355V21.3362C8.85828 20.1764 8.125 18.5555 8.125 16.8167V13.7698C8.125 10.4101 10.8591 7.67609 14.2188 7.67609C17.5784 7.67609 20.3125 10.4101 20.3125 13.7698V16.8167C20.3125 18.5555 19.5792 20.1744 18.2812 21.3362V24.5355C18.2812 25.0961 17.8262 25.5511 17.2656 25.5511Z" fill="white"/>
<path d="M15.2405 22.8089C14.7692 22.8089 14.3467 22.4778 14.2472 21.9984C14.1355 21.448 14.4889 20.9117 15.0394 20.8C16.9162 20.412 18.2812 18.7383 18.2812 16.8167C18.2812 16.2561 18.7362 15.8011 19.2969 15.8011C19.8575 15.8011 20.3125 16.2561 20.3125 16.8167C20.3125 19.697 18.265 22.2077 15.4456 22.7866C15.3766 22.8008 15.3095 22.8089 15.2405 22.8089Z" fill="white"/>
<path d="M21.0722 27.1436C20.9382 27.1436 20.8021 27.1172 20.6721 27.0603L16.8655 25.4251C16.3496 25.2037 16.1119 24.6065 16.3333 24.0906C16.5527 23.5726 17.1499 23.339 17.6658 23.5584L21.4724 25.1936C21.9883 25.415 22.226 26.0122 22.0046 26.5281C21.84 26.914 21.4642 27.1436 21.0722 27.1436Z" fill="white"/>
<path d="M8.125 39.4387C7.98484 39.4387 7.84062 39.4103 7.70453 39.3473L3.81672 37.5801C2.73203 37.0845 2.03125 35.9958 2.03125 34.8055V31.9901C2.03125 29.1423 3.71719 26.583 6.32531 25.4698L10.7677 23.5422C11.2877 23.3187 11.8808 23.5544 12.1042 24.0683C12.3256 24.5822 12.09 25.1814 11.5761 25.4048L7.12969 27.3345C5.265 28.1328 4.0625 29.9589 4.0625 31.9901V34.8055C4.0625 35.2015 4.29609 35.5672 4.65766 35.7317L8.54547 37.4989C9.05531 37.7305 9.28078 38.3337 9.04922 38.8436C8.87859 39.2173 8.50891 39.4387 8.125 39.4387Z" fill="white"/>
<path d="M18.1573 15.6183C16.1342 15.6183 14.2005 14.9216 12.5653 13.6033C12.1306 13.2519 12.0616 12.6141 12.4109 12.1773C12.7664 11.7406 13.4063 11.6736 13.8389 12.025C15.143 13.0751 16.6908 13.6419 18.2772 13.587C18.1797 11.4298 16.3963 9.70734 14.2188 9.70734C11.9783 9.70734 10.1562 11.5294 10.1562 13.7698V14.5214C10.1562 15.082 9.70125 15.537 9.14062 15.537C8.58 15.537 8.125 15.0841 8.125 14.5214V13.7698C8.125 10.4101 10.8591 7.67609 14.2188 7.67609C17.5784 7.67609 20.3125 10.4101 20.3125 13.7698V14.4808C20.3125 14.9805 19.9489 15.405 19.4573 15.4842C18.9881 15.5594 18.5819 15.6183 18.1573 15.6183Z" fill="white"/>
<path d="M53.8281 25.5511C53.2675 25.5511 52.8125 25.0961 52.8125 24.5355V20.8569C52.8125 20.538 52.9608 20.2394 53.2147 20.0484C54.2506 19.2644 54.8438 18.0863 54.8438 16.8167V13.7698C54.8438 11.5294 53.0217 9.70735 50.7812 9.70735C48.5408 9.70735 46.7188 11.5294 46.7188 13.7698V16.8167C46.7188 18.0863 47.3119 19.2644 48.3478 20.0484C48.6017 20.2394 48.75 20.54 48.75 20.8589V24.5375C48.75 25.0981 48.295 25.5531 47.7344 25.5531C47.1738 25.5531 46.7188 25.0981 46.7188 24.5375V21.3383C45.4208 20.1784 44.6875 18.5575 44.6875 16.8188V13.7719C44.6875 10.4122 47.4216 7.67813 50.7812 7.67813C54.1409 7.67813 56.875 10.4122 56.875 13.7719V16.8188C56.875 18.5575 56.1417 20.1764 54.8438 21.3383V24.5375C54.8438 25.0961 54.3887 25.5511 53.8281 25.5511Z" fill="white"/>
<path d="M51.803 22.8089C51.3317 22.8089 50.9092 22.4778 50.8097 21.9984C50.698 21.448 51.0514 20.9117 51.6019 20.8C53.4787 20.412 54.8437 18.7383 54.8437 16.8167C54.8437 16.2561 55.2987 15.8011 55.8594 15.8011C56.42 15.8011 56.875 16.2561 56.875 16.8167C56.875 19.697 54.8275 22.2077 52.0081 22.7866C51.9391 22.8008 51.872 22.8089 51.803 22.8089Z" fill="white"/>
<path d="M44.2264 27.0156C43.8343 27.0156 43.4585 26.7861 43.294 26.4002C43.0726 25.8863 43.3103 25.287 43.8262 25.0656L47.3342 23.5584C47.846 23.3411 48.4453 23.5727 48.6667 24.0906C48.8881 24.6045 48.6504 25.2038 48.1345 25.4252L44.6265 26.9324C44.4965 26.9892 44.3624 27.0156 44.2264 27.0156Z" fill="white"/>
<path d="M56.8749 39.4387C56.491 39.4387 56.1213 39.2173 55.9507 38.8436C55.7191 38.3337 55.9446 37.7305 56.4544 37.4989L60.3422 35.7317C60.7038 35.5672 60.9374 35.2036 60.9374 34.8055V31.9901C60.9374 29.9589 59.7349 28.1328 57.8763 27.3386L53.4238 25.4048C52.9099 25.1814 52.6743 24.5842 52.8957 24.0683C53.1191 23.5523 53.7082 23.3167 54.2322 23.5422L58.6787 25.4719C61.2827 26.583 62.9687 29.1423 62.9687 31.9901V34.8055C62.9687 35.9958 62.2679 37.0845 61.1832 37.5801L57.2954 39.3473C57.1593 39.4083 57.0151 39.4387 56.8749 39.4387Z" fill="white"/>
<path d="M35.1608 12.5836C32.2724 12.5836 29.2661 11.5659 27.6086 10.075C27.1902 9.69922 27.1557 9.05735 27.5315 8.64094C27.9072 8.22454 28.5552 8.19 28.9655 8.56579C30.9683 10.3655 35.7662 11.3059 38.5144 9.83125C39.008 9.56516 39.6255 9.75 39.8896 10.2456C40.1557 10.7413 39.9688 11.3547 39.4752 11.6208C38.2219 12.2891 36.7086 12.5836 35.1608 12.5836Z" fill="white"/>
<path d="M32.4859 31.0355C29.116 31.0355 27.359 28.407 26.8999 27.0156C26.7232 26.4814 27.0137 25.9086 27.5459 25.7319C28.078 25.5572 28.6488 25.8456 28.8255 26.3737C28.8682 26.4956 29.768 29.0022 32.4859 29.0022C35.226 29.0022 36.1909 26.4184 36.2335 26.3087C36.4224 25.7826 37.0115 25.5084 37.5295 25.6953C38.0555 25.8822 38.3338 26.457 38.149 26.9851C38.0901 27.1517 36.6865 31.0355 32.4859 31.0355Z" fill="white"/>
<path d="M51.7969 39.1605C51.2363 39.1605 50.7812 38.7055 50.7812 38.1448V37.5781C50.7812 34.5658 48.882 31.8723 46.0566 30.8791L37.5842 27.8728C36.3655 27.4483 35.5469 26.2945 35.5469 25.0047V22.5063C35.5469 21.9456 36.0019 21.4906 36.5625 21.4906C37.1231 21.4906 37.5781 21.9456 37.5781 22.5063V25.0047C37.5781 25.4313 37.8523 25.8131 38.2586 25.9553L46.733 28.9636C50.3689 30.2413 52.8125 33.7045 52.8125 37.5781V38.1469C52.8125 38.7075 52.3575 39.1605 51.7969 39.1605Z" fill="white"/>
<path d="M13.2031 39.1605C12.6425 39.1605 12.1875 38.7055 12.1875 38.1448V37.5964C12.1875 36.9626 12.2545 36.3269 12.3866 35.6992C13.0406 32.6056 15.3034 30.0259 18.2853 28.9616L26.7394 25.9959C27.1477 25.8537 27.4219 25.4698 27.4219 25.0433V22.5042C27.4219 21.9436 27.8769 21.4886 28.4375 21.4886C28.9981 21.4886 29.4531 21.9436 29.4531 22.5042V25.0433C29.4531 26.3311 28.6345 27.4848 27.4117 27.9134L18.9638 30.877C16.642 31.7037 14.883 33.7126 14.3731 36.1197C14.2695 36.6072 14.2188 37.1048 14.2188 37.5964V38.1448C14.2188 38.7075 13.7637 39.1605 13.2031 39.1605Z" fill="white"/>
<path d="M32.5 24.9417C31.9394 24.9417 31.4844 24.4867 31.4844 23.9261C31.4844 23.3655 31.9394 22.9105 32.5 22.9105C34.6084 22.9105 38.5938 21.0011 38.5938 13.7698V10.723C38.5938 7.36327 35.8597 4.62921 32.5 4.62921C29.1403 4.62921 26.4062 7.36327 26.4062 10.723V13.7698C26.4062 17.2717 27.3427 19.9509 29.1119 21.517C29.5323 21.8887 29.573 22.5306 29.1992 22.9511C28.8234 23.3736 28.1836 23.4081 27.7672 23.0384C26.2194 21.6694 24.375 18.9516 24.375 13.7698V10.723C24.375 6.24202 28.0191 2.59796 32.5 2.59796C36.9809 2.59796 40.625 6.24202 40.625 10.723V13.7698C40.625 22.6078 35.3112 24.9417 32.5 24.9417Z" fill="white"/>
<path d="M47.9741 57.4417C47.6004 57.4417 47.2429 57.2345 47.0641 56.877C46.8163 56.3733 47.0214 55.7659 47.5252 55.5161L52.5485 53.0278C52.8308 52.8877 53.168 52.8877 53.4483 53.0278L56.7308 54.6549L56.1966 51.0311C56.1519 50.7183 56.2535 50.3994 56.4769 50.1739L59.0424 47.5516L55.4268 46.9361C55.116 46.8833 54.8458 46.6863 54.6975 46.4059L52.9994 43.16L51.2993 46.4059C51.151 46.6863 50.8808 46.8833 50.57 46.9361L46.9564 47.5516L49.5199 50.1739C49.9119 50.5761 49.9038 51.218 49.5036 51.61C49.1014 52.0041 48.4575 51.9959 48.0675 51.5938L44.1493 47.5861C43.8852 47.3159 43.7918 46.9219 43.9096 46.5624C44.0274 46.2028 44.3321 45.9388 44.7058 45.8758L49.7352 45.0186L52.1016 40.5011C52.2783 40.1659 52.6257 39.9567 53.0014 39.9567C53.3813 39.9567 53.7246 40.168 53.9013 40.5011L56.2657 45.0186L61.2971 45.8758C61.6708 45.9388 61.9755 46.2049 62.0933 46.5624C62.2111 46.9199 62.1177 47.3159 61.8536 47.5861L58.2847 51.2322L59.0282 56.2778C59.081 56.6516 58.9246 57.0253 58.6199 57.2467C58.3152 57.4702 57.9089 57.5047 57.5718 57.3341L53.0014 55.0692L48.4291 57.3341C48.2808 57.4092 48.1264 57.4417 47.9741 57.4417Z" fill="white"/>
<path d="M26.5606 62.9688C26.3493 62.9688 26.1401 62.9038 25.9634 62.7758C25.6587 62.5544 25.5003 62.1806 25.5551 61.8048L26.4448 55.7456L22.1629 51.3663C21.8989 51.0961 21.8054 50.702 21.9232 50.3425C22.0411 49.983 22.3457 49.7169 22.7195 49.6559L28.7604 48.6281L31.6001 43.2027C31.9536 42.5323 33.0484 42.5323 33.4018 43.2027L36.2415 48.6281L42.2825 49.6559C42.6562 49.7189 42.9609 49.985 43.0787 50.3425C43.1965 50.7 43.1031 51.0961 42.839 51.3663L38.5551 55.7456L39.4468 61.8048C39.4996 62.1786 39.3432 62.5523 39.0386 62.7738C38.7339 62.9992 38.3276 63.0297 37.9904 62.8611L32.5 60.1413L27.0115 62.8611C26.8693 62.9322 26.715 62.9688 26.5606 62.9688ZM24.9701 51.3317L28.2486 54.6853C28.47 54.9128 28.5736 55.2297 28.5289 55.5425L27.8464 60.1798L32.049 58.0978C32.3314 57.9556 32.6686 57.9556 32.9489 58.0978L37.1495 60.1798L36.467 55.5425C36.4223 55.2297 36.5239 54.9108 36.7473 54.6853L40.0278 51.3317L35.4026 50.5436C35.0918 50.4908 34.8217 50.2937 34.6734 50.0134L32.5 45.8595L30.3265 50.0134C30.1782 50.2937 29.9081 50.4908 29.5973 50.5436L24.9701 51.3317Z" fill="white"/>
<path d="M17.1905 57.4417C17.0382 57.4417 16.8858 57.4072 16.7396 57.3361L12.1692 55.0713L7.5969 57.3381C7.26175 57.5047 6.85753 57.4722 6.54878 57.2488C6.24409 57.0274 6.08565 56.6536 6.1405 56.2799L6.88394 51.2342L3.31503 47.5881C3.05097 47.318 2.95753 46.9239 3.07534 46.5644C3.19315 46.2049 3.49784 45.9388 3.87159 45.8778L8.903 45.0206L11.2694 40.5031C11.4461 40.168 11.7935 39.9588 12.1692 39.9588C12.5491 39.9588 12.8924 40.17 13.0691 40.5031L15.4335 45.0206L20.4628 45.8778C20.8366 45.9408 21.1413 46.2069 21.2591 46.5644C21.3769 46.9219 21.2835 47.318 21.0194 47.5881L17.1011 51.5938C16.7132 51.996 16.0692 52.0041 15.665 51.61C15.2649 51.218 15.2567 50.5761 15.6488 50.1739L18.2122 47.5516L14.5986 46.9361C14.2858 46.8833 14.0177 46.6863 13.8694 46.406L12.1713 43.16L10.4711 46.406C10.3228 46.6863 10.0527 46.8833 9.7419 46.9361L6.12628 47.5516L8.69175 50.1739C8.91315 50.4014 9.01675 50.7183 8.97206 51.0311L8.43784 54.6549L11.7224 53.0278C12.0047 52.8877 12.3419 52.8877 12.6222 53.0278L17.6435 55.5161C18.1472 55.766 18.3524 56.3733 18.1046 56.877C17.9217 57.2345 17.5622 57.4417 17.1905 57.4417Z" fill="white"/>
</svg>
