<svg width="65" height="65" viewBox="0 0 65 65" fill="none" xmlns="http://www.w3.org/2000/svg">
<g clip-path="url(#clip0_28_261)">
<path d="M41.585 24.1135C48.2119 26.2743 53.7991 30.7341 57.4071 36.5511" stroke="#CC0444" stroke-width="2" stroke-miterlimit="10" stroke-linecap="round" stroke-linejoin="round"/>
<path d="M7.59326 36.5511C11.2013 30.7341 16.7885 26.2743 23.4154 24.1135" stroke="#CC0444" stroke-width="2" stroke-miterlimit="10" stroke-linecap="round" stroke-linejoin="round"/>
<path d="M7.59326 54.5022V7.30229C7.59326 6.80083 7.99951 6.39331 8.50225 6.39331H15.764" stroke="#CC0444" stroke-width="2" stroke-miterlimit="10" stroke-linecap="round" stroke-linejoin="round"/>
<path d="M49.2363 6.39331H56.498C57.0008 6.39331 57.407 6.80083 57.407 7.30229V13.8861" stroke="#CC0444" stroke-width="2" stroke-miterlimit="10" stroke-linecap="round" stroke-linejoin="round"/>
<path d="M40.1463 6.39331H24.8535" stroke="#CC0444" stroke-width="2" stroke-miterlimit="10" stroke-linecap="round" stroke-linejoin="round"/>
<path d="M7.59277 58.9454V63.1387C7.59277 63.6408 7.99979 64.0479 8.50189 64.0479H56.4984C57.0005 64.0479 57.4075 63.6408 57.4075 63.1387V18.3289" stroke="#CC0444" stroke-width="2" stroke-miterlimit="10" stroke-linecap="round" stroke-linejoin="round"/>
<path d="M40.6171 35.5281H24.3831C23.8485 35.5281 23.415 35.0946 23.415 34.56V18.3262C23.415 17.7916 23.8485 17.3582 24.3831 17.3582H40.6171C41.1517 17.3582 41.5851 17.7916 41.5851 18.3262V34.5602C41.5851 35.0948 41.1517 35.5281 40.6171 35.5281Z" stroke="#CC0444" stroke-width="2" stroke-miterlimit="10" stroke-linecap="round" stroke-linejoin="round"/>
<path d="M28.6964 24.7236C29.8081 24.7236 30.7093 23.8224 30.7093 22.7107C30.7093 21.5991 29.8081 20.6979 28.6964 20.6979C27.5848 20.6979 26.6836 21.5991 26.6836 22.7107C26.6836 23.8224 27.5848 24.7236 28.6964 24.7236Z" stroke="#CC0444" stroke-width="2" stroke-miterlimit="10" stroke-linecap="round" stroke-linejoin="round"/>
<path d="M41.585 27.1352L39.1675 25.3284C37.8807 24.3666 36.0912 24.4587 34.9099 25.5473L30.0557 30.0204C29.1142 30.8878 27.7111 31.0246 26.6201 30.3549L23.415 28.3879" stroke="#CC0444" stroke-width="2" stroke-miterlimit="10" stroke-linecap="round" stroke-linejoin="round"/>
<path d="M40.1465 5.12921V8.674C40.1465 9.10437 40.4954 9.45324 40.9257 9.45324H48.4565C48.8868 9.45324 49.2357 9.10437 49.2357 8.674V5.12921C49.2357 4.69884 48.8868 4.34998 48.4565 4.34998H40.9257C40.4954 4.34998 40.1465 4.69884 40.1465 5.12921Z" stroke="#CC0444" stroke-width="2" stroke-miterlimit="10" stroke-linecap="round" stroke-linejoin="round"/>
<path d="M44.6914 4.34992V0.952148" stroke="#CC0444" stroke-width="2" stroke-miterlimit="10" stroke-linecap="round" stroke-linejoin="round"/>
<path d="M15.7642 5.12921V8.674C15.7642 9.10437 16.113 9.45324 16.5434 9.45324H24.0741C24.5045 9.45324 24.8534 9.10437 24.8534 8.674V5.12921C24.8534 4.69884 24.5045 4.34998 24.0741 4.34998H16.5434C16.113 4.34998 15.7642 4.69884 15.7642 5.12921Z" stroke="#CC0444" stroke-width="2" stroke-miterlimit="10" stroke-linecap="round" stroke-linejoin="round"/>
<path d="M20.3091 4.34992V0.952148" stroke="#CC0444" stroke-width="2" stroke-miterlimit="10" stroke-linecap="round" stroke-linejoin="round"/>
<path d="M18.2363 48.0272H26.4548" stroke="#CC0444" stroke-width="2" stroke-miterlimit="10" stroke-linecap="round" stroke-linejoin="round"/>
<path d="M18.2363 52.798H26.4548" stroke="#CC0444" stroke-width="2" stroke-miterlimit="10" stroke-linecap="round" stroke-linejoin="round"/>
<path d="M18.2363 57.5687H26.4548" stroke="#CC0444" stroke-width="2" stroke-miterlimit="10" stroke-linecap="round" stroke-linejoin="round"/>
<path d="M38.5454 48.0272H46.7638" stroke="#CC0444" stroke-width="2" stroke-miterlimit="10" stroke-linecap="round" stroke-linejoin="round"/>
<path d="M38.5454 52.798H46.7638" stroke="#CC0444" stroke-width="2" stroke-miterlimit="10" stroke-linecap="round" stroke-linejoin="round"/>
<path d="M38.5454 57.5687H46.7638" stroke="#CC0444" stroke-width="2" stroke-miterlimit="10" stroke-linecap="round" stroke-linejoin="round"/>
</g>
<defs>
<clipPath id="clip0_28_261">
<rect width="65" height="65" fill="white"/>
</clipPath>
</defs>
</svg>
