<svg width="65" height="65" viewBox="0 0 65 65" fill="none" xmlns="http://www.w3.org/2000/svg">
<g clip-path="url(#clip0_28_342)">
<path d="M7.4902 20.3125H1.31177" stroke="#CC0444" stroke-width="2" stroke-miterlimit="10" stroke-linecap="round" stroke-linejoin="round"/>
<path d="M63.6317 20.3125H26.5754" stroke="#CC0444" stroke-width="2" stroke-miterlimit="10" stroke-linecap="round" stroke-linejoin="round"/>
<path d="M0.952148 45.0418V11.1719C0.952148 9.90983 1.97526 8.88672 3.2373 8.88672H7.49023" stroke="#CC0444" stroke-width="2" stroke-miterlimit="10" stroke-linecap="round" stroke-linejoin="round"/>
<path d="M56.6211 8.88672H61.7627C63.0247 8.88672 64.0479 9.90983 64.0479 11.1719V55.8594C64.0479 57.1214 63.0247 58.1445 61.7627 58.1445H3.2373C1.97526 58.1445 0.952148 57.1214 0.952148 55.8594V49.427" stroke="#CC0444" stroke-width="2" stroke-miterlimit="10" stroke-linecap="round" stroke-linejoin="round"/>
<path d="M26.5754 8.88672H52.069" stroke="#CC0444" stroke-width="2" stroke-miterlimit="10" stroke-linecap="round" stroke-linejoin="round"/>
<path d="M38.1042 16.5039C39.156 16.5039 40.0085 15.6513 40.0085 14.5996C40.0085 13.5479 39.156 12.6953 38.1042 12.6953C37.0525 12.6953 36.2 13.5479 36.2 14.5996C36.2 15.6513 37.0525 16.5039 38.1042 16.5039Z" stroke="#CC0444" stroke-width="2" stroke-miterlimit="10" stroke-linecap="round" stroke-linejoin="round"/>
<path d="M46.0388 16.5039C47.0905 16.5039 47.9431 15.6513 47.9431 14.5996C47.9431 13.5479 47.0905 12.6953 46.0388 12.6953C44.9871 12.6953 44.1345 13.5479 44.1345 14.5996C44.1345 15.6513 44.9871 16.5039 46.0388 16.5039Z" stroke="#CC0444" stroke-width="2" stroke-miterlimit="10" stroke-linecap="round" stroke-linejoin="round"/>
<path d="M53.9734 16.5039C55.0251 16.5039 55.8777 15.6513 55.8777 14.5996C55.8777 13.5479 55.0251 12.6953 53.9734 12.6953C52.9217 12.6953 52.0691 13.5479 52.0691 14.5996C52.0691 15.6513 52.9217 16.5039 53.9734 16.5039Z" stroke="#CC0444" stroke-width="2" stroke-miterlimit="10" stroke-linecap="round" stroke-linejoin="round"/>
<path d="M40.8931 50.8848H21.0884" stroke="#CC0444" stroke-width="2" stroke-miterlimit="10" stroke-linecap="round" stroke-linejoin="round"/>
<path d="M41.353 45.0419L42.6241 48.3456" stroke="#CC0444" stroke-width="2" stroke-miterlimit="10" stroke-linecap="round" stroke-linejoin="round"/>
<path d="M41.353 45.0419H23.0224C21.7577 45.0419 20.6448 44.2069 20.2905 42.9922L16.3422 29.4586C16.2079 28.9983 16.553 28.538 17.0322 28.538H41.3531C42.1076 28.538 42.7193 29.15 42.7193 29.9049V43.675C42.7192 44.4298 42.1075 45.0419 41.353 45.0419Z" stroke="#CC0444" stroke-width="2" stroke-miterlimit="10" stroke-linecap="round" stroke-linejoin="round"/>
<path d="M35.0527 41.2333C34.0015 41.2333 33.1494 40.3812 33.1494 39.33V34.2498C33.1494 33.1987 34.0015 32.3466 35.0527 32.3466C36.1039 32.3466 36.956 33.1987 36.956 34.2498V39.33C36.956 40.3812 36.1039 41.2333 35.0527 41.2333Z" stroke="#CC0444" stroke-width="2" stroke-miterlimit="10" stroke-linecap="round" stroke-linejoin="round"/>
<path d="M26.3188 41.2333C25.2676 41.2333 24.4155 40.3812 24.4155 39.33V34.2498C24.4155 33.1987 25.2676 32.3466 26.3188 32.3466C27.37 32.3466 28.2221 33.1987 28.2221 34.2498V39.33C28.2221 40.3812 27.37 41.2333 26.3188 41.2333Z" stroke="#CC0444" stroke-width="2" stroke-miterlimit="10" stroke-linecap="round" stroke-linejoin="round"/>
<path d="M43.6011 53.4238C45.0034 53.4238 46.1401 52.2871 46.1401 50.8848C46.1401 49.4825 45.0034 48.3457 43.6011 48.3457C42.1988 48.3457 41.062 49.4825 41.062 50.8848C41.062 52.2871 42.1988 53.4238 43.6011 53.4238Z" stroke="#CC0444" stroke-width="2" stroke-miterlimit="10" stroke-linecap="round" stroke-linejoin="round"/>
<path d="M18.2668 53.4238C19.6691 53.4238 20.8059 52.2871 20.8059 50.8848C20.8059 49.4825 19.6691 48.3457 18.2668 48.3457C16.8646 48.3457 15.7278 49.4825 15.7278 50.8848C15.7278 52.2871 16.8646 53.4238 18.2668 53.4238Z" stroke="#CC0444" stroke-width="2" stroke-miterlimit="10" stroke-linecap="round" stroke-linejoin="round"/>
<path d="M52.6731 29.0488H48.7375C47.6859 29.0488 46.8333 28.1962 46.8333 27.1445C46.8333 26.0929 47.6859 25.2402 48.7375 25.2402H52.6731C53.7248 25.2402 54.5774 26.0929 54.5774 27.1445C54.5774 28.1962 53.7248 29.0488 52.6731 29.0488Z" stroke="#CC0444" stroke-width="2" stroke-miterlimit="10" stroke-linecap="round" stroke-linejoin="round"/>
<path d="M50.1324 29.0488L48.2925 33.0208C47.7888 34.1082 46.6996 34.804 45.5013 34.804H42.8115" stroke="#CC0444" stroke-width="2" stroke-miterlimit="10" stroke-linecap="round" stroke-linejoin="round"/>
<path d="M7.74243 20.8203V8.125C7.74243 7.42384 8.3108 6.85547 9.01196 6.85547H25.0081C25.7092 6.85547 26.2776 7.42384 26.2776 8.125V20.8203C26.2776 21.5215 25.7092 22.0898 25.0081 22.0898H9.01196C8.31093 22.0898 7.74243 21.5215 7.74243 20.8203Z" stroke="#CC0444" stroke-width="2" stroke-miterlimit="10" stroke-linecap="round" stroke-linejoin="round"/>
<path d="M12.7783 10.6641H18.6182" stroke="#CC0444" stroke-width="2" stroke-miterlimit="10" stroke-linecap="round" stroke-linejoin="round"/>
<path d="M12.7783 14.4727H20.7026" stroke="#CC0444" stroke-width="2" stroke-miterlimit="10" stroke-linecap="round" stroke-linejoin="round"/>
<path d="M12.7783 18.2812H20.7026" stroke="#CC0444" stroke-width="2" stroke-miterlimit="10" stroke-linecap="round" stroke-linejoin="round"/>
</g>
<defs>
<clipPath id="clip0_28_342">
<rect width="65" height="65" fill="white"/>
</clipPath>
</defs>
</svg>
