<svg width="65" height="65" viewBox="0 0 65 65" fill="none" xmlns="http://www.w3.org/2000/svg">
<g clip-path="url(#clip0_28_60)">
<path d="M14.5885 22.4053C14.0088 23.6121 13.6841 24.9645 13.6841 26.3929C13.6841 31.4855 17.8125 35.6139 22.9051 35.6139C27.9977 35.6139 32.1261 31.4855 32.1261 26.3929C32.1261 21.3003 27.9977 17.1719 22.9051 17.1719C20.7022 17.1719 18.6797 17.9444 17.0937 19.2333" stroke="white" stroke-width="2" stroke-miterlimit="10" stroke-linecap="round" stroke-linejoin="round"/>
<path d="M37.3882 42.1963C33.8307 38.1236 28.6111 35.6138 22.905 35.6138H21.0921C13.1126 35.6138 6.21065 41.1727 4.51049 48.969C4.00598 51.2826 5.76809 53.4705 8.13615 53.4705H24.8207" stroke="white" stroke-width="2" stroke-miterlimit="10" stroke-linecap="round" stroke-linejoin="round"/>
<path d="M23.862 1.26758L25.4925 4.00989C25.583 4.16211 25.7322 4.27053 25.905 4.3095L29.017 5.0127C29.4943 5.12061 29.6826 5.69989 29.3597 6.06768L27.2555 8.46582C27.1387 8.599 27.0817 8.77432 27.0979 8.95066L27.3907 12.1277C27.4356 12.615 26.9428 12.973 26.4933 12.7797L23.5623 11.5196C23.3995 11.4496 23.2152 11.4496 23.0525 11.5196L20.1215 12.7798C19.6718 12.9732 19.1791 12.6152 19.2241 12.1278L19.5168 8.95078C19.5331 8.77444 19.4761 8.59912 19.3593 8.46595L17.255 6.0678C16.9322 5.69989 17.1204 5.12061 17.5978 5.01282L20.7098 4.30963C20.8826 4.27053 21.0317 4.16224 21.1223 4.01002L22.7527 1.26771C23.0028 0.846984 23.6119 0.846984 23.862 1.26758Z" stroke="white" stroke-width="2" stroke-miterlimit="10" stroke-linecap="round" stroke-linejoin="round"/>
<path d="M6.82858 3.36083L8.164 5.60688C8.23814 5.73155 8.36027 5.82029 8.50182 5.85229L11.0505 6.42827C11.4415 6.51663 11.5957 6.99105 11.3314 7.29231L9.60783 9.25641C9.51211 9.36546 9.46552 9.50904 9.47885 9.65352L9.71866 12.2555C9.75548 12.6547 9.3519 12.9479 8.98361 12.7896L6.58305 11.7575C6.44975 11.7003 6.2988 11.7003 6.1655 11.7575L3.76494 12.7896C3.39665 12.9479 2.99307 12.6548 3.02988 12.2555L3.2697 9.65352C3.28303 9.50904 3.23631 9.36546 3.14071 9.25641L1.41733 7.29231C1.15288 6.99105 1.30713 6.51663 1.69815 6.42827L4.24686 5.85229C4.38841 5.82029 4.51054 5.73155 4.58468 5.60688L5.9201 3.36083C6.12487 3.01628 6.6238 3.01628 6.82858 3.36083Z" stroke="white" stroke-width="2" stroke-miterlimit="10" stroke-linecap="round" stroke-linejoin="round"/>
<path d="M38.9532 3.36083L37.6178 5.60688C37.5437 5.73155 37.4216 5.82029 37.28 5.85229L34.7313 6.42827C34.3403 6.51663 34.1862 6.99105 34.4505 7.29231L36.1739 9.25641C36.2696 9.36546 36.3162 9.50904 36.3028 9.65352L36.063 12.2555C36.0262 12.6547 36.4298 12.9479 36.7981 12.7896L39.1986 11.7575C39.3319 11.7003 39.4829 11.7003 39.6162 11.7575L42.0168 12.7896C42.385 12.9479 42.7886 12.6548 42.7518 12.2555L42.512 9.65352C42.4987 9.50904 42.5454 9.36546 42.641 9.25641L44.3644 7.29231C44.6288 6.99105 44.4746 6.51663 44.0835 6.42827L41.5348 5.85229C41.3933 5.82029 41.2712 5.73155 41.197 5.60688L39.8616 3.36083C39.6569 3.01628 39.158 3.01628 38.9532 3.36083Z" stroke="white" stroke-width="2" stroke-miterlimit="10" stroke-linecap="round" stroke-linejoin="round"/>
<path d="M61.0823 48.2565H57.9567M61.0823 53.5204H57.9567M61.0823 58.7841H57.9567M63.7142 45.6246C63.7142 44.1711 62.5359 42.9928 61.0824 42.9928L51.5167 42.978C50.2634 42.9761 49.2483 41.9595 49.2483 40.7062V33.9095C49.2483 32.5077 48.529 31.2038 47.3428 30.4563C46.3959 29.8596 45.1402 30.3367 44.8257 31.4108L41.0243 44.3909C40.4152 46.4708 38.5076 47.8999 36.3402 47.8999H33.7402V61.4777H37.7616C39.8884 61.4777 42.004 61.8787 43.9545 62.7267C45.8965 63.5711 47.9914 64.0068 50.1087 64.0068L61.0823 64.0479C62.5359 64.0479 63.7141 62.8697 63.7141 61.4161C63.7141 59.9626 62.5357 58.7842 61.0823 58.7842C62.5359 58.7842 63.7141 57.6058 63.7141 56.1523C63.7141 54.6987 62.5357 53.5205 61.0823 53.5205C62.5359 53.5205 63.7141 52.3421 63.7141 50.8886C63.7141 49.4351 62.5357 48.2568 61.0823 48.2568C62.5359 48.2565 63.7142 47.0781 63.7142 45.6246Z" stroke="white" stroke-width="2" stroke-miterlimit="10" stroke-linecap="round" stroke-linejoin="round"/>
<path d="M32.6958 63.504H26.3984C25.8217 63.504 25.354 63.0365 25.354 62.4596V46.4038C25.354 45.8271 25.8216 45.3594 26.3984 45.3594H32.6958C33.2726 45.3594 33.7403 45.8269 33.7403 46.4038V62.4596C33.7403 63.0365 33.2727 63.504 32.6958 63.504Z" stroke="white" stroke-width="2" stroke-miterlimit="10" stroke-linecap="round" stroke-linejoin="round"/>
</g>
<defs>
<clipPath id="clip0_28_60">
<rect width="65" height="65" fill="white"/>
</clipPath>
</defs>
</svg>
