<svg width="65" height="65" viewBox="0 0 65 65" fill="none" xmlns="http://www.w3.org/2000/svg">
<g clip-path="url(#clip0_28_179)">
<path d="M12.5794 42.5081C11.1238 43.862 9.95475 45.4573 9.10445 47.2497L8.65529 48.1968L1.34857 57.42C1.02103 57.8335 1.09069 58.4342 1.50419 58.7618C1.67967 58.9008 1.8889 58.9682 2.09661 58.9682C2.3783 58.9682 2.65732 58.8442 2.84593 58.6061L10.2201 49.2976C10.2651 49.241 10.3033 49.1792 10.3344 49.114L10.8304 48.0685C11.5765 46.4955 12.6027 45.0951 13.8805 43.9066C14.2666 43.5474 14.2885 42.9431 13.9293 42.5567C13.57 42.1707 12.9658 42.1486 12.5794 42.5081Z" fill="white"/>
<path d="M62.9896 36.0416C61.6808 34.4971 59.3597 34.3057 57.8156 35.6144L57.3219 36.0329C57.2063 35.4358 56.9415 34.8594 56.521 34.3634C55.2124 32.8193 52.8912 32.6277 51.347 33.9362L50.9089 34.3075C50.7863 33.7293 50.5225 33.1728 50.114 32.6908C48.8052 31.1466 46.4843 30.9552 44.94 32.2637L37.5987 38.4851C37.2218 38.3784 36.8248 38.3201 36.4141 38.3201H23.2239C20.7772 38.3201 18.3294 38.9069 16.1455 40.0171C15.6754 40.2562 15.4879 40.8311 15.7269 41.3013C15.966 41.7715 16.5409 41.959 17.0111 41.7199C18.9283 40.7454 21.0766 40.2303 23.2239 40.2303H36.4143C37.7627 40.2303 38.8599 41.3274 38.8599 42.6759C38.8599 43.3395 38.5985 43.9606 38.1242 44.4246C37.65 44.8884 37.0273 45.1321 36.3609 45.121C36.3539 45.1208 36.3469 45.1207 36.3398 45.1207H27.8267C27.2991 45.1207 26.8716 45.5482 26.8716 46.0758C26.8716 46.6034 27.2991 47.0309 27.8267 47.0309H36.3298C36.3592 47.0316 36.3887 47.0318 36.4181 47.0318C37.562 47.0318 38.6389 46.5931 39.4598 45.7903C39.5801 45.6725 39.6919 45.5486 39.7966 45.4201H47.8669C48.7264 45.4201 49.5609 45.1141 50.2168 44.5582L59.0506 37.0717C59.7914 36.444 60.9046 36.5359 61.5324 37.2765C62.1601 38.0172 62.0681 39.1306 61.3276 39.7583L47.3822 51.5768C46.0806 52.6797 44.4974 53.3705 42.8036 53.5742L41.083 53.7813C40.5593 53.8443 40.1858 54.3198 40.2488 54.8437C40.3072 55.3287 40.7194 55.6848 41.1959 55.6848C41.2341 55.6848 41.2726 55.6823 41.3113 55.6778L43.0318 55.4707C45.0981 55.2222 47.0295 54.3797 48.6171 53.034L62.5626 41.2156C64.1067 39.907 64.2984 37.5858 62.9896 36.0416ZM46.175 33.7209C46.9155 33.0931 48.029 33.1851 48.6569 33.9257C49.2354 34.6084 49.2129 35.6026 48.6101 36.2555L40.764 42.905C40.7679 42.829 40.7701 42.7526 40.7701 42.6759C40.7701 41.4162 40.232 40.2803 39.3743 39.4843L46.175 33.7209ZM43.0048 43.5099L52.582 35.3935C53.3229 34.7657 54.4362 34.8577 55.0637 35.5983C55.6916 36.339 55.5996 37.4525 54.859 38.0802L48.9819 43.101C48.6707 43.3646 48.2747 43.5099 47.8669 43.5099H43.0048Z" fill="white"/>
<path d="M37.0254 54.2693L27.2314 55.4475C26.9898 55.4767 26.7684 55.5968 26.6125 55.7835L20.2231 63.4325C19.885 63.8375 19.9389 64.4397 20.3438 64.7778C20.5223 64.9271 20.7395 64.9999 20.9556 64.9999C21.2289 64.9999 21.5001 64.8832 21.6891 64.6572L27.8357 57.2988L37.2536 56.1659C37.7772 56.1028 38.1509 55.6273 38.0878 55.1036C38.0248 54.5799 37.5474 54.2068 37.0254 54.2693Z" fill="white"/>
<path d="M29.4412 27.33C29.4412 27.33 23.8595 18.6409 23.8515 18.6297C22.9067 17.2896 22.2793 15.7256 22.0369 14.1067C21.959 13.585 21.4722 13.225 20.951 13.3035C20.4293 13.3815 20.0698 13.8678 20.1479 14.3894C20.4329 16.2943 21.1693 18.1346 22.2783 19.7131L27.6825 28.1265V29.5194C27.6825 29.9227 27.8248 30.2933 28.0611 30.5844V33.8673C28.0611 35.4038 29.3112 36.654 30.8478 36.654H34.2173C35.7537 36.654 37.0039 35.4039 37.0039 33.8673V30.5844C37.2403 30.2933 37.3825 29.9227 37.3825 29.5194V28.1265L42.7868 19.7131C44.2715 17.5996 45.0564 15.1135 45.0564 12.5222C45.0564 8.38203 43.0131 4.51409 39.5905 2.17521C36.0941 -0.213966 31.7144 -0.658029 27.5748 0.956618C24.576 2.12631 22.178 4.50836 20.9959 7.49212C20.6719 8.30983 20.4241 9.14867 20.2593 9.98534C20.1573 10.5029 20.4942 11.0051 21.0117 11.1072C21.5303 11.2095 22.0315 10.8722 22.1335 10.3548C22.2758 9.63183 22.4907 8.90543 22.7719 8.19572C23.7592 5.70377 25.7629 3.71383 28.2691 2.73631C31.8121 1.35445 35.5458 1.72504 38.5127 3.75242C41.4137 5.7351 43.1459 9.01355 43.1459 12.5224C43.1459 14.7245 42.4776 16.8363 41.2131 18.6297C41.2052 18.6409 35.6235 27.33 35.6235 27.33C35.5246 27.4841 35.472 27.6632 35.472 27.8463V29.3028H35.2387L35.7828 20.0698H36.6933C38.1583 20.0698 39.35 18.8781 39.35 17.413V17.3075C39.35 15.8425 38.1583 14.6507 36.6933 14.6507C35.2888 14.6507 34.1237 15.7491 34.0412 17.1513L33.9818 18.1597H31.0919L31.0326 17.1513C30.95 15.7491 29.7849 14.6507 28.3803 14.6507C26.9153 14.6507 25.7235 15.8425 25.7235 17.3075V17.413C25.7235 18.8781 26.9153 20.0698 28.3803 20.0698H29.2909L29.8348 29.3028H29.5925V27.8463C29.5926 27.6632 29.54 27.4841 29.4412 27.33ZM35.9482 17.2635C35.9714 16.8694 36.2986 16.5607 36.6934 16.5607C37.105 16.5607 37.4399 16.8956 37.4399 17.3072V17.4128C37.4399 17.8244 37.105 18.1593 36.6934 18.1593H35.8953L35.9482 17.2635ZM28.3803 18.1594C27.9687 18.1594 27.6338 17.8245 27.6338 17.4129V17.3074C27.6338 16.8958 27.9687 16.5608 28.3803 16.5608C28.7751 16.5608 29.1025 16.8695 29.1256 17.2637L29.1785 18.1596H28.3803V18.1594ZM35.0934 33.8674C35.0934 34.3507 34.7003 34.7439 34.217 34.7439H30.8475C30.3642 34.7439 29.9711 34.3507 29.9711 33.8674V31.2129H35.0934V33.8674ZM31.2045 20.0697H33.8692L33.3252 29.3027H31.7486L31.2045 20.0697Z" fill="white"/>
<path d="M49.0742 13.5595C49.0742 14.0871 49.5017 14.5146 50.0293 14.5146H52.2808C52.8084 14.5146 53.236 14.0871 53.236 13.5595C53.236 13.0319 52.8084 12.6044 52.2808 12.6044H50.0293C49.5017 12.6044 49.0742 13.032 49.0742 13.5595Z" fill="white"/>
<path d="M48.5185 8.50966C48.6287 8.50966 48.7409 8.49043 48.8503 8.44981L50.9613 7.66725C51.4559 7.484 51.7082 6.93437 51.525 6.43975C51.3416 5.94513 50.7921 5.69272 50.2975 5.8761L48.1864 6.65866C47.6918 6.84191 47.4395 7.39155 47.6228 7.88617C47.7656 8.27139 48.1305 8.50966 48.5185 8.50966Z" fill="white"/>
<path d="M48.1865 20.4605L50.2975 21.2429C50.4069 21.2834 50.5191 21.3028 50.6293 21.3028C51.0173 21.3028 51.3823 21.0645 51.5249 20.6793C51.7081 20.1846 51.4559 19.6351 50.9612 19.4517L48.8502 18.6693C48.3556 18.4862 47.8059 18.7385 47.6227 19.233C47.4396 19.7276 47.6918 20.2771 48.1865 20.4605Z" fill="white"/>
<path d="M12.7837 14.5146H15.0352C15.5628 14.5146 15.9903 14.0871 15.9903 13.5595C15.9903 13.0319 15.5628 12.6044 15.0352 12.6044H12.7837C12.2561 12.6044 11.8286 13.0319 11.8286 13.5595C11.8286 14.0871 12.2561 14.5146 12.7837 14.5146Z" fill="white"/>
<path d="M14.1029 7.66734L16.214 8.4499C16.3234 8.49039 16.4355 8.50975 16.5457 8.50975C16.9338 8.50975 17.2986 8.27148 17.4414 7.88626C17.6246 7.39164 17.3724 6.84213 16.8777 6.65875L14.7667 5.87619C14.2723 5.69319 13.7227 5.94522 13.5392 6.43984C13.3561 6.93446 13.6085 7.48396 14.1029 7.66734Z" fill="white"/>
<path d="M17.4415 19.233C17.2582 18.7383 16.7087 18.4859 16.214 18.6693L14.1029 19.4517C13.6083 19.635 13.356 20.1846 13.5393 20.6793C13.682 21.0644 14.0467 21.3027 14.4349 21.3027C14.5451 21.3027 14.6572 21.2835 14.7666 21.2429L16.8777 20.4605C17.3724 20.2771 17.6248 19.7276 17.4415 19.233Z" fill="white"/>
</g>
<defs>
<clipPath id="clip0_28_179">
<rect width="65" height="65" fill="white"/>
</clipPath>
</defs>
</svg>
