<svg width="95" height="95" viewBox="0 0 95 95" fill="none" xmlns="http://www.w3.org/2000/svg">
<circle cx="47.5" cy="47.5" r="47.5" fill="#CB1F45"/>
<path fill-rule="evenodd" clip-rule="evenodd" d="M51.783 50.6047C50.2151 52.3594 47.5776 52.8375 45.4596 51.6148C43.0323 50.2133 42.1995 47.1055 43.601 44.6781C45.0018 42.2508 48.1104 41.418 50.5377 42.8195C52.6104 44.0156 53.5206 46.4578 52.8698 48.657C52.7471 49.0703 52.9831 49.5055 53.3963 49.6273C53.8104 49.75 54.2456 49.5141 54.3674 49.1008C55.2198 46.2242 54.0299 43.0312 51.319 41.4664C48.1448 39.6336 44.0799 40.7226 42.2479 43.8969C40.4151 47.0711 41.5041 51.1351 44.6784 52.968C47.4487 54.5672 50.8971 53.9406 52.9479 51.6453C53.2354 51.3242 53.2081 50.8297 52.8862 50.5422C52.5651 50.2555 52.0705 50.2828 51.783 50.6047Z" fill="white"/>
<path fill-rule="evenodd" clip-rule="evenodd" d="M57.643 61.2812H33.9375C33.5063 61.2812 33.1562 61.6313 33.1562 62.0625C33.1562 62.4937 33.5063 62.8438 33.9375 62.8438H59.2055L60.9969 64.6352C61.9125 65.55 63.3961 65.55 64.3117 64.6352L65.4164 63.5305C65.6211 63.3258 65.7797 63.0922 65.893 62.8438H68.3125C69.607 62.8438 70.6562 61.7945 70.6562 60.5V59.3414C70.6562 58.8234 70.4508 58.3266 70.0844 57.9602C69.718 57.5938 69.2211 57.3883 68.7031 57.3883H68.3125V34.7188C68.3125 34.0969 68.0656 33.5008 67.6258 33.0617C67.1867 32.6219 66.5906 32.375 65.9688 32.375H64.4062C63.975 32.375 63.625 32.725 63.625 33.1562C63.625 33.5875 63.975 33.9375 64.4062 33.9375H65.9688C66.1758 33.9375 66.375 34.0195 66.5211 34.1664C66.668 34.3125 66.75 34.5117 66.75 34.7188V53.4688H58.6695L58.4945 53.2938C58.1891 52.9883 57.6945 52.9883 57.3898 53.2938L56.0758 51.9797C58.1969 48.3852 57.7141 43.6742 54.6273 40.5883C50.9688 36.9289 45.0281 36.9289 41.3695 40.5883C37.8336 44.1234 37.7148 49.7898 41.0117 53.4688H29.25V34.7188C29.25 34.5117 29.332 34.3125 29.4789 34.1664C29.625 34.0195 29.8242 33.9375 30.0312 33.9375H62.0625C62.4937 33.9375 62.8438 33.5875 62.8438 33.1562C62.8438 32.725 62.4937 32.375 62.0625 32.375H30.0312C29.4094 32.375 28.8133 32.6219 28.3742 33.0617C27.9344 33.5008 27.6875 34.0969 27.6875 34.7188V57.3883H27.2969C26.7789 57.3883 26.282 57.5938 25.9156 57.9602C25.5492 58.3266 25.3438 58.8234 25.3438 59.3414V60.5C25.3438 61.7945 26.393 62.8438 27.6875 62.8438H29.25C29.6812 62.8438 30.0312 62.4937 30.0312 62.0625C30.0312 61.6313 29.6812 61.2812 29.25 61.2812H27.6875C27.2563 61.2812 26.9062 60.9312 26.9062 60.5V59.3414C26.9062 59.2375 26.9477 59.1383 27.0203 59.0648C27.0937 58.9922 27.193 58.9508 27.2969 58.9508C29.7547 58.9508 40.3414 58.9391 41.6234 58.9375L43.8469 59.6789C43.9266 59.7055 44.0102 59.7188 44.0938 59.7188H51.9062C51.9898 59.7188 52.0734 59.7055 52.1531 59.6789L54.3766 58.9375L55.3008 58.9383L57.643 61.2812ZM55.732 57.1609L57.9422 54.9508L64.3117 61.3203C64.6164 61.6258 64.6164 62.1203 64.3117 62.425L63.2063 63.5305C62.9016 63.8352 62.407 63.8352 62.1016 63.5305L55.732 57.1609ZM64.1484 58.9477L65.4164 60.2156C65.7219 60.5211 65.9258 60.8906 66.0273 61.2812H68.3125C68.7437 61.2812 69.0938 60.9312 69.0938 60.5V59.3414C69.0938 59.2375 69.0523 59.1383 68.9797 59.0648C68.9063 58.9922 68.807 58.9508 68.7031 58.9508C67.8555 58.9508 66.1258 58.9492 64.1484 58.9477ZM53.9008 57.4492C53.7898 57.168 53.8477 56.8359 54.075 56.6086L52.7609 55.2945C49.6914 57.1063 45.807 57.018 42.8156 55.0312H29.25V57.3875C33.4953 57.3844 41.7492 57.375 41.7492 57.375C41.8336 57.375 41.9172 57.3883 41.9969 57.4148L44.2203 58.1562H51.7797L53.9008 57.4492ZM66.75 57.3875V55.0312H60.232L62.5844 57.3836L66.75 57.3875ZM56.2844 54.3984L55.157 53.2711C54.9898 53.4688 54.8133 53.6602 54.6273 53.8461C54.4414 54.032 54.2492 54.2086 54.0523 54.3758L55.1797 55.5031L56.2844 54.3984ZM42.4742 41.693C45.5227 38.6437 50.4734 38.6437 53.5227 41.693C56.5719 44.7414 56.5719 49.6922 53.5227 52.7414C50.4734 55.7906 45.5227 55.7906 42.4742 52.7414C39.425 49.6922 39.425 44.7414 42.4742 41.693Z" fill="white"/>
<path d="M31.5938 62.8438C32.0252 62.8438 32.375 62.494 32.375 62.0625C32.375 61.631 32.0252 61.2812 31.5938 61.2812C31.1623 61.2812 30.8125 61.631 30.8125 62.0625C30.8125 62.494 31.1623 62.8438 31.5938 62.8438Z" fill="white"/>
</svg>
