<svg width="95" height="95" viewBox="0 0 95 95" fill="none" xmlns="http://www.w3.org/2000/svg">
<circle cx="47.5" cy="47.5" r="47.5" fill="#363535"/>
<g clip-path="url(#clip0_28_494)">
<path d="M47.0002 29.4173C47.4057 29.4173 47.7343 29.0887 47.7343 28.6832V23.7341C47.7343 23.3286 47.4057 23 47.0002 23C46.5947 23 46.2661 23.3286 46.2661 23.7341V28.6832C46.2661 29.0887 46.5947 29.4173 47.0002 29.4173Z" fill="white"/>
<path d="M33.304 34.6605C33.5907 34.9471 34.0554 34.9471 34.3422 34.6605C34.6288 34.3738 34.6288 33.909 34.3422 33.6223L30.8426 30.1227C30.5559 29.8362 30.0912 29.836 29.8044 30.1227C29.5177 30.4094 29.5177 30.8742 29.8044 31.1609L33.304 34.6605Z" fill="white"/>
<path d="M28.3649 46.5844H23.4157C23.0102 46.5844 22.6816 46.9129 22.6816 47.3184C22.6816 47.724 23.0102 48.0525 23.4157 48.0525H28.3648C28.7703 48.0525 29.0989 47.724 29.0989 47.3184C29.0989 46.9129 28.7703 46.5844 28.3649 46.5844Z" fill="white"/>
<path d="M33.304 59.9763L29.8044 63.4759C29.5177 63.7627 29.5177 64.2274 29.8044 64.5141C30.0912 64.8007 30.5558 64.8007 30.8426 64.5141L34.3422 61.0145C34.6288 60.7278 34.6288 60.263 34.3422 59.9763C34.0555 59.6899 33.5907 59.6899 33.304 59.9763Z" fill="white"/>
<path d="M60.6963 59.9764C60.4096 59.6898 59.9448 59.6898 59.6581 59.9764C59.3714 60.2632 59.3714 60.7279 59.6581 61.0146L63.1577 64.5142C63.4445 64.8008 63.9091 64.8008 64.1959 64.5142C64.4826 64.2274 64.4826 63.7627 64.1959 63.476L60.6963 59.9764Z" fill="white"/>
<path d="M70.5845 46.5844H65.6355C65.2299 46.5844 64.9014 46.9129 64.9014 47.3184C64.9014 47.724 65.2299 48.0525 65.6355 48.0525H70.5845C70.99 48.0525 71.3186 47.724 71.3186 47.3184C71.3186 46.9129 70.99 46.5844 70.5845 46.5844Z" fill="white"/>
<path d="M63.1577 30.1227L59.6581 33.6223C59.3714 33.9091 59.3714 34.3739 59.6581 34.6605C59.9449 34.9471 60.4096 34.9471 60.6963 34.6605L64.1959 31.1609C64.4826 30.8741 64.4826 30.4093 64.1959 30.1227C63.9091 29.8361 63.4444 29.8361 63.1577 30.1227Z" fill="white"/>
<path d="M61.502 45.8346C61.502 37.7231 54.9965 31.124 47 31.124C44.1989 31.124 41.4802 31.9357 39.138 33.4714C36.8592 34.9655 35.0425 37.0675 33.8845 39.55C33.7131 39.9174 33.8721 40.3542 34.2394 40.5256C34.6072 40.6972 35.0437 40.5381 35.2151 40.1707C37.3625 35.567 41.9883 32.5922 47 32.5922C54.1869 32.5922 60.0339 38.5327 60.0339 45.8346C60.0339 49.3029 58.7233 52.5818 56.3436 55.0673C54.972 56.4997 53.8045 57.8685 53.5041 59.7863H40.6879C40.3094 57.7954 38.9513 56.3985 37.731 55.1444C35.3033 52.6495 33.9662 49.3431 33.9662 45.8346C33.9662 44.9683 34.0491 44.1018 34.2125 43.2592C34.2897 42.8612 34.0297 42.476 33.6316 42.3987C33.2336 42.3221 32.8484 42.5817 32.7711 42.9798C32.5899 43.9142 32.498 44.8747 32.498 45.8346C32.498 49.7278 33.9828 53.3977 36.6788 56.1683C38.2271 57.7594 39.3232 59.0295 39.3232 60.8911C39.3232 60.8975 39.3233 60.9042 39.3235 60.9107L39.3656 65.2186C39.3656 66.6162 40.1111 67.843 41.2253 68.5223V69.3296C41.2253 71.3535 42.8718 73 44.8957 73H49.3982C51.4221 73 53.0687 71.3535 53.0687 69.3296V68.5223C54.1828 67.843 54.9284 66.6162 54.9284 65.2186C54.9284 65.2186 54.9232 60.42 54.9134 60.3721C55.0527 58.6708 56.0839 57.4615 57.4041 56.0826C60.0466 53.3225 61.502 49.6829 61.502 45.8346ZM51.6004 69.3296C51.6004 70.5439 50.6124 71.5318 49.3981 71.5318H44.8956C43.6814 71.5318 42.6934 70.5439 42.6934 69.3296V69.0466C42.8694 69.0713 43.049 69.0849 43.2317 69.0849H51.062C51.2448 69.0849 51.4243 69.0712 51.6004 69.0466V69.3296ZM51.062 67.6167H43.2317C41.9093 67.6167 40.8336 66.541 40.8336 65.2186V65.1697H48.2725C48.678 65.1697 49.0066 64.8411 49.0066 64.4356C49.0066 64.0301 48.678 63.7015 48.2725 63.7015H40.8336V61.2545H53.4374L53.4601 63.7015H51.6983C51.2927 63.7015 50.9642 64.0301 50.9642 64.4356C50.9642 64.8411 51.2927 65.1697 51.6983 65.1697H53.4601V65.2186C53.4601 66.541 52.3843 67.6167 51.062 67.6167Z" fill="white"/>
<path d="M51.7727 45.9317C51.5241 46.2519 51.5821 46.7131 51.9023 46.9617C52.2224 47.2104 52.6836 47.1525 52.9323 46.8321L54.3856 44.9605C54.7705 44.465 54.9392 43.8492 54.8609 43.2266C54.7825 42.604 54.4664 42.0492 53.9708 41.6644C53.4752 41.2795 52.8591 41.1098 52.2369 41.1892C51.6142 41.2675 51.0595 41.5835 50.6747 42.0792L45.9335 48.1853L43.2125 45.1746C42.3438 44.2138 40.8553 44.1388 39.8947 45.0071C39.4291 45.4279 39.1554 46.0047 39.1237 46.6314C39.092 47.2581 39.3063 47.8595 39.727 48.3251L44.3274 53.4149C45.2535 54.489 47.0833 54.4231 47.9256 53.2804L50.8311 49.5385C51.0797 49.2183 51.0217 48.7571 50.7015 48.5085C50.3814 48.2599 49.9202 48.3177 49.6715 48.6381L46.766 52.38C46.4506 52.8085 45.7624 52.8335 45.4167 52.4304L40.8164 47.3407C40.4906 46.9803 40.5188 46.4222 40.8793 46.0964C41.2395 45.7711 41.7977 45.7989 42.1235 46.1594L45.4318 49.8197C45.7201 50.154 46.2933 50.1348 46.5562 49.7776L51.8346 42.9798C52.1171 42.5998 52.7031 42.5261 53.0706 42.8242C53.4507 43.1069 53.5243 43.6923 53.2261 44.0603L51.7727 45.9317Z" fill="white"/>
</g>
<defs>
<clipPath id="clip0_28_494">
<rect width="50" height="50" fill="white" transform="translate(22 23)"/>
</clipPath>
</defs>
</svg>
