<svg width="95" height="95" viewBox="0 0 95 95" fill="none" xmlns="http://www.w3.org/2000/svg">
<circle cx="47.5" cy="47.5" r="47.5" fill="#CB1F45"/>
<path d="M54.9031 43.4604C54.9031 36.7201 49.4195 31.2365 42.6792 31.2365C35.9389 31.2365 30.4553 36.7201 30.4553 43.4604C30.4553 50.2008 35.9389 55.6844 42.6792 55.6844C49.4195 55.6844 54.9031 50.2008 54.9031 43.4604ZM42.6792 54.122C36.8005 54.122 32.0178 49.3393 32.0178 43.4605C32.0178 37.5818 36.8005 32.7991 42.6792 32.7991C48.5579 32.7991 53.3406 37.5818 53.3406 43.4605C53.3406 49.3393 48.5579 54.122 42.6792 54.122ZM42.6595 35.1555C38.1419 35.1555 34.4665 38.8308 34.4665 43.3483C34.4665 47.8659 38.1419 51.5412 42.6595 51.5412C47.177 51.5412 50.8523 47.8659 50.8523 43.3483C50.8523 38.8308 47.177 35.1555 42.6595 35.1555ZM42.6595 49.9786C39.0034 49.9786 36.029 47.0042 36.029 43.3482C36.029 39.6922 39.0034 36.7179 42.6595 36.7179C46.3155 36.7179 49.2898 39.6923 49.2898 43.3482C49.2897 47.0043 46.3154 49.9786 42.6595 49.9786ZM47.5157 39.6308C46.7012 38.8164 45.3762 38.8162 44.5618 39.6308L41.5295 42.6629L40.7571 41.8904C40.3637 41.497 39.8391 41.2802 39.2801 41.2803C38.7211 41.2803 38.1966 41.4971 37.8031 41.8905C36.9888 42.7049 36.9888 44.0301 37.8031 44.8444L39.8369 46.8782C40.3631 47.4043 40.9937 47.6712 41.5996 47.6712C42.1232 47.6712 42.6285 47.4719 43.0321 47.0683L47.5156 42.5847C47.9092 42.1912 48.126 41.6666 48.126 41.1076C48.126 40.5487 47.9093 40.0242 47.5157 39.6308ZM46.4108 41.4799L41.9272 45.9635C41.5584 46.3322 41.0797 45.9112 40.9418 45.7733L38.9081 43.7396C38.7064 43.5379 38.7064 43.197 38.9081 42.9953C39.0064 42.8969 39.1386 42.8428 39.2803 42.8428C39.422 42.8428 39.5541 42.897 39.6524 42.9953L40.9771 44.3201C41.1237 44.4666 41.3224 44.5489 41.5296 44.5489C41.7368 44.5489 41.9354 44.4666 42.0819 44.3201L45.6667 40.7355C45.765 40.6372 45.8972 40.583 46.0388 40.583C46.1804 40.583 46.3126 40.6372 46.411 40.7356C46.5095 40.834 46.5636 40.9661 46.5636 41.1077C46.5635 41.2493 46.5094 41.3814 46.4108 41.4799ZM70.7327 58.4401L69.3167 57.8951C69.1035 57.1403 68.8027 56.4146 68.4189 55.7293L69.0354 54.3418C69.1665 54.0465 69.1023 53.7009 68.8737 53.4723L66.8055 51.4042C66.577 51.1757 66.2315 51.1114 65.936 51.2426L64.5479 51.8591C63.8626 51.4754 63.1374 51.1746 62.383 50.9615L61.8378 49.5451C61.7218 49.2436 61.4319 49.0445 61.1087 49.0445H58.7255C58.8672 48.6374 58.9943 48.2248 59.1047 47.8069L61.858 46.7472C62.1596 46.6312 62.3586 46.3413 62.3586 46.0181V40.903C62.3586 40.5798 62.1596 40.29 61.858 40.1739L59.1053 39.1145C58.7171 37.644 58.1337 36.2365 57.3667 34.9204L58.5647 32.2231C58.6959 31.9278 58.6317 31.5821 58.4032 31.3536L54.7861 27.7367C54.5576 27.5082 54.2122 27.4439 53.9167 27.5751L51.2185 28.7734C49.9021 28.0064 48.4953 27.4231 47.0257 27.0352L45.9658 24.2818C45.8498 23.9802 45.56 23.7812 45.2367 23.7812H40.1217C39.7984 23.7812 39.5087 23.9803 39.3926 24.2818L38.3327 27.0352C36.863 27.4232 35.4563 28.0064 34.1399 28.7734L31.4418 27.5751C31.1464 27.4439 30.8009 27.5082 30.5723 27.7367L26.9553 31.3537C26.7268 31.5822 26.6626 31.9278 26.7937 32.2232L27.992 34.9211C27.225 36.2373 26.6417 37.6442 26.2536 39.1143L23.5006 40.1739C23.199 40.2899 23 40.5798 23 40.903V46.0181C23 46.3413 23.199 46.6311 23.5006 46.7472L26.2532 47.8067C26.6415 49.2773 27.2249 50.6847 27.9919 52.0008L26.7938 54.698C26.6627 54.9934 26.7269 55.339 26.9554 55.5676L30.5724 59.1845C30.801 59.413 31.1464 59.477 31.4419 59.346L34.1401 58.1477C35.4566 58.9146 36.8635 59.4979 38.333 59.8859L39.3928 62.6393C39.5088 62.9408 39.7986 63.1398 40.1219 63.1398H45.237C45.5603 63.1398 45.85 62.9408 45.9661 62.6393L47.0256 59.8866C47.3739 59.7946 47.7183 59.6903 48.0593 59.5766V62.0941C48.0593 62.4174 48.2583 62.7071 48.56 62.8232L49.9759 63.3683C50.1893 64.1231 50.49 64.8488 50.8736 65.5339L50.2572 66.9215C50.1261 67.2168 50.1902 67.5624 50.4188 67.791L52.4871 69.8592C52.7156 70.0876 53.0611 70.1517 53.3565 70.0207L54.7447 69.4042C55.4301 69.788 56.1552 70.0887 56.9096 70.3018L57.4548 71.7183C57.5708 72.0198 57.8606 72.2188 58.1839 72.2188H61.1087C61.4319 72.2188 61.7217 72.0198 61.8378 71.7183L62.3828 70.3022C63.1376 70.0891 63.8631 69.7883 64.5485 69.4044L65.936 70.0208C66.2313 70.1521 66.577 70.0879 66.8056 69.8593L68.8738 67.791C69.1023 67.5624 69.1665 67.2168 69.0354 66.9215L68.4188 65.5334C68.8026 64.8479 69.1034 64.1227 69.3163 63.3685L70.7328 62.8232C71.0344 62.7072 71.2334 62.4174 71.2334 62.0941V59.1694C71.2333 58.8461 71.0343 58.5563 70.7327 58.4401ZM46.2611 58.4677C46.0105 58.5272 45.8054 58.7065 45.7129 58.947L44.7005 61.5773H40.6582L39.6455 58.9463C39.553 58.706 39.3479 58.5266 39.0974 58.467C37.5096 58.0892 35.9976 57.4623 34.6032 56.6038C34.3837 56.4687 34.1118 56.4506 33.8766 56.5551L31.2979 57.7002L28.4395 54.8419L29.5844 52.2642C29.6889 52.0287 29.6707 51.7567 29.5355 51.5374C28.6773 50.1437 28.0503 48.6314 27.6721 47.0423C27.6125 46.7917 27.4332 46.5866 27.1928 46.4941L24.5624 45.4816V41.4395L27.1932 40.4269C27.4336 40.3344 27.6129 40.1292 27.6725 39.8786C28.0505 38.2902 28.6773 36.7781 29.5356 35.3844C29.6708 35.1649 29.689 34.8931 29.5845 34.6576L28.4396 32.0792L31.2979 29.2208L33.8765 30.366C34.1117 30.4704 34.3838 30.4523 34.6031 30.3172C35.9971 29.4589 37.5091 28.832 39.0972 28.4541C39.3477 28.3944 39.5528 28.2151 39.6453 27.9747L40.6581 25.3438H44.7004L45.7132 27.9748C45.8057 28.2151 46.0108 28.3945 46.2613 28.4542C47.8492 28.8321 49.3612 29.459 50.7554 30.3173C50.9749 30.4524 51.2468 30.4705 51.482 30.3661L54.0606 29.2209L56.919 32.0792L55.7741 34.6569C55.6696 34.8924 55.6878 35.1644 55.823 35.3837C56.6813 36.7774 57.3082 38.2897 57.6863 39.8787C57.7459 40.1293 57.9252 40.3345 58.1656 40.427L60.7961 41.4395V45.4817L58.165 46.4944C57.9247 46.5869 57.7453 46.792 57.6857 47.0426C57.3313 48.5317 56.7574 49.9544 55.9794 51.2756C55.5559 51.4417 55.1433 51.6359 54.7446 51.8593L53.3564 51.2428C53.061 51.1115 52.7155 51.1757 52.4869 51.4044L50.4188 53.4725C50.1902 53.7011 50.1261 54.0467 50.2572 54.342L50.8736 55.7301C50.6703 56.0931 50.4911 56.4676 50.3352 56.8514C49.0591 57.5824 47.6907 58.1273 46.2611 58.4677ZM69.6708 61.5575L68.3807 62.0541C68.1402 62.1466 67.9609 62.3518 67.9013 62.6023C67.6937 63.4754 67.3489 64.307 66.8767 65.0741C66.7416 65.2936 66.7234 65.5653 66.8279 65.8008L67.3896 67.0652L66.08 68.3748L64.816 67.8134C64.5808 67.7089 64.3088 67.7271 64.0893 67.8622C63.3225 68.3345 62.4907 68.6792 61.6171 68.887C61.3665 68.9467 61.1613 69.126 61.0688 69.3664L60.5722 70.6562H58.7202L58.2236 69.3661C58.1312 69.1258 57.926 68.9464 57.6755 68.8868C56.8022 68.6789 55.9706 68.3342 55.2037 67.862C54.9842 67.7269 54.7123 67.7088 54.4771 67.8133L53.2125 68.3749L51.9029 67.0654L52.4644 65.8015C52.5688 65.566 52.5507 65.2941 52.4155 65.0747C51.9436 64.3084 51.5988 63.4767 51.3906 62.6023C51.3311 62.3518 51.1517 62.1467 50.9113 62.0542L49.6217 61.5578V59.7059L50.9116 59.2093C51.1521 59.1168 51.3313 58.9116 51.3909 58.6611C51.5988 57.7876 51.9436 56.956 52.4157 56.1893C52.5508 55.9699 52.5689 55.698 52.4645 55.4626L51.9029 54.1981L53.2124 52.8887L54.477 53.4503C54.7122 53.5549 54.9843 53.5367 55.2036 53.4016C55.9705 52.9293 56.8021 52.5846 57.6753 52.3768C57.9259 52.3171 58.1311 52.1378 58.2235 51.8974L58.7202 50.6072H60.5722L61.0688 51.8973C61.1612 52.1377 61.3664 52.317 61.617 52.3767C62.4902 52.5845 63.3219 52.9293 64.0886 53.4014C64.3081 53.5367 64.5801 53.5545 64.8153 53.4502L66.0799 52.8886L67.3895 54.198L66.828 55.462C66.7235 55.6975 66.7417 55.9693 66.8769 56.1888C67.3489 56.9554 67.6938 57.7871 67.9018 58.661C67.9613 58.9116 68.1406 59.1168 68.3811 59.2093L69.6707 59.7058L69.6708 61.5575ZM59.6461 54.6968C56.3736 54.6968 53.7113 57.3592 53.7113 60.6315C53.7113 63.9039 56.3737 66.5663 59.6461 66.5663C62.9187 66.5663 65.581 63.9039 65.581 60.6315C65.581 57.3592 62.9187 54.6968 59.6461 54.6968ZM59.6461 65.0039C57.2352 65.0039 55.2738 63.0425 55.2738 60.6316C55.2738 58.2208 57.2353 56.2594 59.6461 56.2594C62.057 56.2594 64.0185 58.2208 64.0185 60.6316C64.0185 63.0425 62.0571 65.0039 59.6461 65.0039Z" fill="white"/>
</svg>
