<?xml version="1.0" encoding="UTF-8"?>
<svg id="Layer_1" data-name="Layer 1" xmlns="http://www.w3.org/2000/svg" viewBox="0 0 273.07 512">
  <g>
    <path d="m111.11,34.13c-4.71,0-8.49,3.82-8.49,8.53s3.86,8.53,8.58,8.53,8.53-3.82,8.53-8.53-3.81-8.53-8.53-8.53h-.09Z" fill="#fff"/>
    <path d="m119.47,460.8c0,9.41,7.65,17.07,17.07,17.07s17.07-7.65,17.07-17.07-7.65-17.07-17.07-17.07-17.07,7.65-17.07,17.07Z" fill="#fff"/>
    <path d="m8.53,392.53c4.71,0,8.53-3.82,8.53-8.53V42.67c0-12.44,13.16-25.6,25.6-25.6h187.73c12.44,0,25.6,13.16,25.6,25.6,0,4.71,3.82,8.53,8.53,8.53s8.53-3.82,8.53-8.53c0-21.93-20.74-42.67-42.67-42.67H42.67C20.74,0,0,20.74,0,42.67v341.33c0,4.71,3.82,8.53,8.53,8.53Z" fill="#fff"/>
    <path d="m145.07,34.13c-4.71,0-8.53,3.82-8.53,8.53s3.82,8.53,8.53,8.53h34.13c4.71,0,8.53-3.82,8.53-8.53s-3.82-8.53-8.53-8.53h-34.13Z" fill="#fff"/>
    <path d="m213.33,153.6c2.18,0,4.37-.84,6.03-2.5,3.34-3.34,3.34-8.73,0-12.07l-17.07-17.07c-3.34-3.34-8.73-3.34-12.07,0-3.34,3.34-3.34,8.73,0,12.07l17.07,17.07c1.66,1.66,3.85,2.5,6.03,2.5Z" fill="#fff"/>
    <path d="m264.53,68.27H42.67c-4.71,0-8.53,3.82-8.53,8.53s3.82,8.53,8.53,8.53h213.33v384c0,12.44-13.16,25.6-25.6,25.6H42.67c-12.44,0-25.6-13.16-25.6-25.6v-42.67h213.33c4.71,0,8.53-3.82,8.53-8.53s-3.82-8.53-8.53-8.53H8.53C3.82,409.6,0,413.42,0,418.13v51.2c0,21.93,20.74,42.67,42.67,42.67h187.73c21.93,0,42.67-20.74,42.67-42.67V76.8c0-4.71-3.82-8.53-8.53-8.53Z" fill="#fff"/>
  </g>
  <g>
    <path d="m136.52,242.75c-7.32,0-13.25,5.93-13.25,13.25s5.93,13.25,13.25,13.25,13.25-5.93,13.25-13.25-5.94-13.24-13.25-13.25Zm0,21.2c-4.39,0-7.95-3.56-7.95-7.95s3.56-7.95,7.95-7.95,7.95,3.56,7.95,7.95-3.56,7.95-7.95,7.95Z" fill="#fff"/>
    <path d="m182.63,256c3.98-3.37,7.77-6.96,11.34-10.76,11.33-12.26,15.28-22.28,11.41-28.99-5.57-9.63-24.26-7.84-45.79-.19-4.15-22.47-11.95-39.56-23.07-39.56s-18.92,17.09-23.05,39.56c-21.53-7.65-40.24-9.44-45.79.19-3.87,6.7.08,16.73,11.41,28.99,3.57,3.8,7.35,7.4,11.33,10.76-3.98,3.37-7.77,6.96-11.34,10.76-11.33,12.26-15.27,22.28-11.4,28.99,2.65,4.59,8.3,6.59,15.82,6.59,10.27-.5,20.4-2.67,29.98-6.41,4.14,22.48,11.94,39.57,23.05,39.57s18.92-17.09,23.06-39.56c9.58,3.74,19.7,5.9,29.97,6.41,7.52,0,13.16-2,15.82-6.59,3.87-6.7-.08-16.73-11.41-28.99-3.57-3.8-7.35-7.4-11.33-10.76h-.01Zm18.16-37.11c2.48,4.3-1.52,12.8-10.71,22.74-3.64,3.87-7.5,7.52-11.58,10.93-4.89-3.93-10.22-7.84-15.94-11.62-.42-6.71-1.11-13.32-2.08-19.61,21.36-7.67,36.93-8.27,40.3-2.44h0Zm-53.67,55.46c-3.59,2.07-7.13,4-10.6,5.78-3.47-1.78-7-3.71-10.6-5.78-3.55-2.05-6.97-4.17-10.31-6.32-.19-3.88-.29-7.9-.29-12.04s.1-8.15.29-12.04c3.34-2.15,6.76-4.27,10.31-6.32,3.59-2.07,7.12-4,10.6-5.78,3.47,1.79,7.01,3.71,10.6,5.78,3.55,2.05,6.97,4.17,10.31,6.32.19,3.88.29,7.9.29,12.04s-.1,8.15-.29,12.04c-3.34,2.15-6.76,4.27-10.31,6.32h0Zm9.89.24c-.39,4.98-.92,9.71-1.59,14.16-4.18-1.65-8.55-3.55-13.06-5.71,2.49-1.32,4.97-2.68,7.4-4.09,2.44-1.41,4.88-2.88,7.25-4.36h0Zm-26.34,8.44c-4.51,2.16-8.88,4.06-13.06,5.71-.66-4.44-1.2-9.17-1.59-14.16,2.37,1.48,4.78,2.93,7.24,4.36,2.44,1.41,4.92,2.76,7.41,4.09h0Zm-20.5-18.62c-4.03-2.76-7.84-5.56-11.43-8.41,3.58-2.84,7.38-5.65,11.43-8.42-.1,2.81-.15,5.62-.15,8.42s.06,5.61.15,8.42h0Zm5.86-27.03c.39-4.98.92-9.71,1.59-14.15,4.18,1.65,8.54,3.55,13.05,5.71-2.49,1.32-4.95,2.68-7.38,4.09-2.47,1.43-4.89,2.89-7.25,4.37h0v-.02Zm26.34-8.44c4.5-2.16,8.88-4.06,13.06-5.71.66,4.44,1.2,9.17,1.59,14.16-2.37-1.49-4.79-2.94-7.25-4.37-2.43-1.4-4.9-2.75-7.39-4.08h-.01Zm20.49,18.63c4.03,2.76,7.84,5.56,11.43,8.41-3.58,2.84-7.38,5.64-11.43,8.42.09-2.81.15-5.62.15-8.42s-.06-5.61-.15-8.42h0Zm-26.35-65.77c6.75,0,14,13.8,18.03,36.13-5.93,2.31-12.01,5.01-18.02,8.01-6.03-3-12.11-5.7-18.02-8.01,4-22.33,11.26-36.13,18.01-36.13h0Zm-53.55,59.84c-9.19-9.94-13.19-18.44-10.71-22.74,1.5-2.59,5.39-3.91,11.13-3.91,10.01.53,19.86,2.67,29.18,6.36-.97,6.28-1.66,12.89-2.08,19.59-5.72,3.78-11.05,7.68-15.94,11.62-4.07-3.4-7.94-7.05-11.58-10.92h0Zm-10.71,51.46c-2.48-4.3,1.52-12.8,10.71-22.74,3.64-3.87,7.5-7.52,11.58-10.93,4.89,3.93,10.22,7.84,15.94,11.62.42,6.71,1.11,13.32,2.08,19.61-21.36,7.67-36.94,8.27-40.31,2.44h0Zm64.26,37.1c-6.74,0-14-13.8-18.02-36.13,5.93-2.31,12.01-5.01,18.03-8.01,6.03,3,12.1,5.7,18.03,8.01-4.05,22.33-11.3,36.13-18.05,36.13h0Zm64.26-37.1c-3.37,5.83-18.95,5.23-40.31-2.45.97-6.28,1.66-12.89,2.08-19.61,5.72-3.78,11.05-7.68,15.94-11.61,4.08,3.41,7.94,7.06,11.58,10.93,9.19,9.95,13.19,18.45,10.71,22.74h0Z" fill="#fff"/>
  </g>
</svg>