<?xml version="1.0" encoding="UTF-8"?>
<svg id="Layer_1" data-name="Layer 1" xmlns="http://www.w3.org/2000/svg" viewBox="0 0 511 444.19">
  <path d="m283.49,294.13c7.16-11.89,12.45-24.66,15.79-38.1h19.63c4.42,0,8-3.58,8-8v-51.88c0-4.42-3.58-8-8-8h-19.63c-3.34-13.44-8.64-26.21-15.79-38.09l13.89-13.89c3.12-3.12,3.12-8.19,0-11.31l-36.69-36.69c-3.12-3.12-8.19-3.12-11.31,0l-13.89,13.89c-11.89-7.16-24.66-12.45-38.09-15.79v-19.63c0-4.42-3.58-8-8-8h-51.88c-4.42,0-8,3.58-8,8v19.63c-13.44,3.34-26.21,8.63-38.1,15.79l-13.89-13.89c-3.12-3.12-8.19-3.12-11.31,0l-36.69,36.69c-3.12,3.12-3.12,8.19,0,11.31l13.89,13.89c-7.16,11.89-12.45,24.66-15.79,38.1H8c-4.42,0-8,3.58-8,8v51.88c0,4.42,3.58,8,8,8h19.62c3.34,13.45,8.63,26.21,15.79,38.1l-13.89,13.89c-1.5,1.5-2.34,3.54-2.34,5.66s.84,4.16,2.34,5.66l36.69,36.69c3.12,3.12,8.19,3.12,11.31,0l13.89-13.89c11.89,7.16,24.66,12.45,38.1,15.79v19.62c0,4.42,3.58,8,8,8h51.88c4.42,0,8-3.58,8-8v-19.62c13.44-3.34,26.21-8.64,38.1-15.79l13.88,13.89c3.12,3.12,8.19,3.12,11.31,0l36.69-36.69c1.5-1.5,2.34-3.54,2.34-5.66s-.84-4.16-2.34-5.66l-13.89-13.89Zm-28.46,44.92l-12.76-12.76c-2.7-2.7-6.92-3.11-10.1-1-13.52,9.02-28.44,15.21-44.35,18.38-3.74.75-6.44,4.03-6.44,7.85v18.03h-35.88v-18.03c0-3.81-2.69-7.1-6.44-7.85-15.9-3.17-30.82-9.35-44.35-18.38-3.17-2.12-7.4-1.7-10.1,1l-12.76,12.76-25.37-25.38,12.76-12.76c2.7-2.7,3.12-6.93,1-10.1-9.02-13.52-15.21-28.44-18.38-44.35-.75-3.74-4.03-6.44-7.85-6.44H16v-35.88h18.03c3.82,0,7.1-2.69,7.85-6.44,3.17-15.9,9.35-30.82,18.38-44.35,2.12-3.17,1.7-7.4-1-10.1l-12.76-12.76,25.37-25.37,12.76,12.76c2.7,2.7,6.92,3.11,10.1,1,13.52-9.02,28.44-15.21,44.35-18.38,3.74-.75,6.44-4.03,6.44-7.85v-18.03h35.88v18.03c0,3.81,2.7,7.1,6.44,7.85,15.9,3.17,30.82,9.35,44.35,18.38,3.17,2.12,7.4,1.7,10.1-1l12.76-12.76,25.37,25.37-12.76,12.76c-2.7,2.7-3.11,6.93-1,10.1,9.02,13.52,15.21,28.44,18.38,44.34.75,3.74,4.03,6.44,7.85,6.44h18.03v35.88h-18.03c-3.81,0-7.1,2.7-7.85,6.44-3.17,15.9-9.35,30.82-18.38,44.35-2.12,3.17-1.7,7.4,1,10.1l12.76,12.76-25.38,25.37Zm-91.58-223.95c-59,0-107,48-107,107s48,107,107,107,107-48,107-107-48-107-107-107h0Zm0,198c-50.18,0-91-40.82-91-91s40.82-91,91-91,91,40.82,91,91-40.82,91-91,91Zm0-174.69c-46.15,0-83.69,37.54-83.69,83.69s37.54,83.69,83.69,83.69,83.69-37.54,83.69-83.69-37.54-83.69-83.69-83.69h0Zm0,151.37c-37.32,0-67.69-30.36-67.69-67.69s30.36-67.69,67.69-67.69,67.69,30.37,67.69,67.69-30.36,67.69-67.69,67.69Zm25.52-51.93c0,10.94-7.44,20.18-17.52,22.93v6.3c0,4.42-3.58,8-8,8s-8-3.58-8-8v-5.96c-5.75-1.2-10.95-4.52-14.46-9.38-2.59-3.58-1.79-8.58,1.79-11.17,3.58-2.59,8.58-1.78,11.17,1.8,1.47,2.04,3.83,3.25,6.3,3.25h4.96c4.28,0,7.76-3.48,7.76-7.76s-3.48-7.76-7.76-7.76h-3.52c-13.1,0-23.76-10.66-23.76-23.76,0-10.94,7.44-20.18,17.52-22.93v-6.3c0-4.42,3.58-8,8-8s8,3.58,8,8v5.96c5.75,1.2,10.94,4.52,14.46,9.38,2.59,3.58,1.79,8.58-1.79,11.17-3.58,2.59-8.58,1.79-11.17-1.79-1.47-2.04-3.83-3.25-6.3-3.25h-4.96c-4.28,0-7.76,3.48-7.76,7.76s3.48,7.76,7.76,7.76h3.52c13.1,0,23.76,10.66,23.76,23.76ZM503,79.3h-9.63c-1.92-6.89-4.65-13.49-8.18-19.72l6.81-6.81c1.5-1.5,2.34-3.54,2.34-5.66s-.84-4.16-2.34-5.66l-22.46-22.47c-1.5-1.5-3.54-2.34-5.66-2.34s-4.16.84-5.66,2.34l-6.81,6.81c-6.24-3.53-12.83-6.26-19.72-8.18v-9.63c0-4.42-3.58-8-8-8h-31.77c-4.42,0-8,3.58-8,8v9.63c-6.89,1.92-13.49,4.65-19.72,8.17l-6.81-6.81c-1.5-1.5-3.54-2.34-5.66-2.34s-4.16.84-5.66,2.34l-22.46,22.47c-1.5,1.5-2.34,3.54-2.34,5.66s.84,4.16,2.34,5.66l6.81,6.81c-3.53,6.24-6.26,12.83-8.18,19.72h-9.63c-4.42,0-8,3.58-8,8v31.77c0,4.42,3.58,8,8,8h9.63c1.92,6.89,4.65,13.49,8.18,19.72l-6.81,6.81c-3.12,3.12-3.12,8.19,0,11.31l22.46,22.46c1.5,1.5,3.54,2.34,5.66,2.34s4.16-.84,5.66-2.34l6.81-6.81c6.24,3.53,12.83,6.26,19.72,8.18v9.63c0,4.42,3.58,8,8,8h31.77c4.42,0,8-3.58,8-8v-9.63c6.89-1.92,13.49-4.65,19.72-8.18l6.81,6.81c3.12,3.12,8.19,3.12,11.31,0l22.46-22.46c3.12-3.12,3.12-8.19,0-11.31l-6.81-6.81c3.52-6.24,6.26-12.83,8.17-19.72h9.63c4.42,0,8-3.58,8-8v-31.77c0-4.42-3.58-8-8-8h0Zm-8,31.77h-7.94c-3.81,0-7.1,2.7-7.85,6.44-1.86,9.33-5.49,18.09-10.79,26.04-2.12,3.17-1.7,7.4,1,10.1l5.62,5.62-11.15,11.15-5.62-5.62c-2.7-2.7-6.92-3.12-10.1-1-7.94,5.3-16.7,8.93-26.04,10.79-3.74.75-6.44,4.03-6.44,7.85v7.94h-15.77v-7.94c0-3.81-2.69-7.1-6.44-7.85-9.33-1.86-18.09-5.49-26.04-10.79-3.17-2.12-7.4-1.7-10.1,1l-5.62,5.62-11.15-11.15,5.62-5.62c2.7-2.7,3.11-6.93,1-10.1-5.3-7.94-8.93-16.7-10.79-26.04-.75-3.74-4.03-6.44-7.85-6.44h-7.94v-15.77h7.94c3.82,0,7.1-2.69,7.85-6.44,1.86-9.33,5.49-18.09,10.79-26.04,2.12-3.17,1.7-7.4-1-10.1l-5.62-5.62,11.15-11.15,5.62,5.62c2.7,2.7,6.92,3.11,10.1,1,7.94-5.3,16.7-8.93,26.04-10.79,3.74-.75,6.44-4.03,6.44-7.85v-7.94h15.77v7.94c0,3.81,2.69,7.1,6.44,7.85,9.33,1.86,18.09,5.49,26.04,10.79,3.17,2.12,7.4,1.7,10.1-1l5.62-5.62,11.15,11.15-5.62,5.62c-2.7,2.7-3.11,6.92-1,10.1,5.3,7.94,8.93,16.7,10.79,26.04.75,3.74,4.03,6.44,7.85,6.44h7.94v15.77Zm-87.19-65.38c-31.7,0-57.5,25.79-57.5,57.5s25.79,57.5,57.5,57.5,57.5-25.79,57.5-57.5-25.79-57.5-57.5-57.5h0Zm0,98.99c-22.88,0-41.5-18.62-41.5-41.5s18.61-41.5,41.5-41.5,41.5,18.61,41.5,41.5-18.62,41.5-41.5,41.5h0Zm95.19,172.43h-9.63c-1.92-6.89-4.65-13.49-8.18-19.72l6.81-6.81c1.5-1.5,2.34-3.54,2.34-5.66s-.84-4.16-2.34-5.66l-22.46-22.46c-1.5-1.5-3.54-2.34-5.66-2.34s-4.16.84-5.66,2.34l-6.81,6.81c-6.23-3.52-12.83-6.26-19.72-8.18v-9.63c0-4.42-3.58-8-8-8h-31.77c-4.42,0-8,3.58-8,8v9.63c-6.89,1.91-13.49,4.65-19.72,8.17l-6.81-6.81c-1.5-1.5-3.54-2.34-5.66-2.34s-4.16.84-5.66,2.34l-22.46,22.46c-1.5,1.5-2.34,3.54-2.34,5.66s.84,4.16,2.34,5.66l6.81,6.81c-3.53,6.24-6.26,12.83-8.18,19.72h-9.63c-4.42,0-8,3.58-8,8v31.77c0,4.42,3.58,8,8,8h9.63c1.92,6.89,4.65,13.49,8.18,19.72l-6.81,6.81c-1.5,1.5-2.34,3.54-2.34,5.66s.84,4.16,2.34,5.66l22.46,22.46c1.5,1.5,3.54,2.34,5.66,2.34s4.16-.84,5.66-2.34l6.81-6.81c6.24,3.53,12.83,6.26,19.72,8.18v9.63c0,4.42,3.58,8,8,8h31.77c4.42,0,8-3.58,8-8v-9.63c6.89-1.92,13.49-4.65,19.72-8.18l6.81,6.81c3.12,3.12,8.19,3.12,11.31,0l22.46-22.46c1.5-1.5,2.34-3.54,2.34-5.66s-.84-4.16-2.34-5.66l-6.81-6.81c3.52-6.24,6.26-12.83,8.18-19.72h9.63c4.42,0,8-3.58,8-8v-31.77c0-4.42-3.58-8-8-8h0Zm-8,31.77h-7.94c-3.81,0-7.1,2.69-7.85,6.44-1.86,9.33-5.49,18.09-10.79,26.04-2.12,3.17-1.7,7.4,1,10.1l5.62,5.62-11.15,11.15-5.62-5.62c-2.7-2.7-6.92-3.11-10.1-1-7.94,5.3-16.7,8.93-26.04,10.79-3.74.75-6.44,4.03-6.44,7.85v7.94h-15.77v-7.94c0-3.81-2.69-7.1-6.44-7.85-9.33-1.86-18.09-5.49-26.04-10.79-3.17-2.12-7.4-1.7-10.1,1l-5.62,5.62-11.15-11.15,5.62-5.62c2.7-2.7,3.12-6.93,1-10.1-5.3-7.94-8.93-16.7-10.79-26.04-.75-3.74-4.03-6.44-7.85-6.44h-7.94v-15.77h7.94c3.82,0,7.1-2.69,7.85-6.44,1.86-9.33,5.49-18.09,10.79-26.04,2.12-3.17,1.7-7.4-1-10.1l-5.62-5.62,11.15-11.15,5.62,5.62c2.7,2.7,6.92,3.11,10.1,1,7.94-5.3,16.7-8.93,26.04-10.79,3.74-.75,6.44-4.03,6.44-7.85v-7.94h15.77v7.94c0,3.81,2.69,7.1,6.44,7.85,9.34,1.86,18.1,5.49,26.04,10.79,3.17,2.12,7.4,1.7,10.1-1l5.62-5.62,11.15,11.15-5.62,5.62c-2.7,2.7-3.11,6.92-1,10.1,5.3,7.94,8.93,16.7,10.79,26.04.75,3.74,4.03,6.44,7.85,6.44h7.94v15.77Zm-87.19-65.38c-31.7,0-57.5,25.79-57.5,57.5s25.79,57.5,57.5,57.5,57.5-25.79,57.5-57.5-25.79-57.5-57.5-57.5h0Zm0,98.99c-22.88,0-41.5-18.61-41.5-41.5s18.61-41.5,41.5-41.5,41.5,18.61,41.5,41.5-18.62,41.5-41.5,41.5h0Z" fill="#00a4e0"/>
</svg>