<?xml version="1.0" encoding="UTF-8" standalone="no"?>
<!-- Created with Inkscape (http://www.inkscape.org/) -->

<svg
   version="1.1"
   id="svg3960"
   xml:space="preserve"
   width="682.66669"
   height="682.66669"
   viewBox="0 0 682.66669 682.66669"
   xmlns="http://www.w3.org/2000/svg"
   xmlns:svg="http://www.w3.org/2000/svg"><defs
     id="defs3964"><clipPath
       clipPathUnits="userSpaceOnUse"
       id="clipPath3974"><path
         d="M 0,512 H 512 V 0 H 0 Z"
         id="path3972" /></clipPath></defs><g
     id="g3966"
     transform="matrix(1.3333333,0,0,-1.3333333,0,682.66667)"><g
       id="g3968"><g
         id="g3970"
         clip-path="url(#clipPath3974)"><g
           id="g3976"
           transform="translate(273.2197,313.9111)"><path
             d="m 0,0 c -18.414,0 -33.343,14.929 -33.343,33.344 0,18.414 14.929,33.343 33.343,33.343 18.415,0 33.344,-14.929 33.344,-33.343 C 33.344,14.929 18.415,0 0,0 Z M 94.146,57.961 C 82.321,53.108 68.438,57.621 61.872,68.991 55.3,80.366 58.34,94.658 68.469,102.457 56.748,114.073 42.082,122.725 25.691,127.203 24.017,114.507 13.154,104.713 0,104.713 c -13.148,0 -24.017,9.794 -25.691,22.49 -16.391,-4.478 -31.052,-13.13 -42.772,-24.746 10.124,-7.804 13.163,-22.091 6.597,-33.466 -6.568,-11.37 -20.455,-15.883 -32.274,-11.03 -2.049,-7.862 -3.143,-16.114 -3.143,-24.617 0,-8.553 1.103,-16.849 3.178,-24.751 11.813,4.838 25.676,0.32 32.239,-11.045 6.547,-11.346 3.547,-25.584 -6.513,-33.402 11.71,-11.578 26.352,-20.204 42.707,-24.667 1.735,12.622 12.572,22.346 25.672,22.346 13.104,0 23.938,-9.724 25.672,-22.346 16.361,4.463 31.003,13.089 42.713,24.667 -10.06,7.818 -13.066,22.056 -6.513,33.402 6.562,11.365 20.42,15.883 32.238,11.045 2.075,7.902 3.178,16.198 3.178,24.751 0,8.503 -1.094,16.755 -3.142,24.617 z"
             style="fill:none;stroke:#000000;stroke-width:20;stroke-linecap:round;stroke-linejoin:round;stroke-miterlimit:10;stroke-dasharray:none;stroke-opacity:1"
             id="path3978" /></g><g
           id="g3980"
           transform="translate(135.2061,83.5146)"><path
             d="m 0,0 h -49.51 l 10e-4,132.69 H 55.647 L 157.605,90.489 C 175.44,83.107 183.843,62.604 176.316,44.83 l -0.345,-0.816 C 168.385,26.096 148.143,17.505 130.153,24.444 101.22,35.604 63.275,50.192 63.275,50.192 L 160.976,12.631 C 181.582,4.709 204.083,3.109 225.604,8.036 L 325.7,30.954 c 18.342,4.199 36.556,-7.485 40.385,-25.908 3.659,-17.602 -7.189,-34.964 -24.614,-39.393 L 222.036,-64.701 c -22.518,-5.724 -46.265,-4.238 -67.896,4.245 l -70.691,27.727"
             style="fill:none;stroke:#000000;stroke-width:20;stroke-linecap:round;stroke-linejoin:round;stroke-miterlimit:10;stroke-dasharray:none;stroke-opacity:1"
             id="path3982" /></g><g
           id="g3984"
           transform="translate(85.6963,64.0098)"><path
             d="M 0,0 H -75.696 V 175.777 H 0.001 Z"
             style="fill:none;stroke:#000000;stroke-width:20;stroke-linecap:round;stroke-linejoin:round;stroke-miterlimit:10;stroke-dasharray:none;stroke-opacity:1"
             id="path3986" /></g><g
           id="g3988"
           transform="translate(377.6738,239.2012)"><path
             d="m 0,0 c 13.698,13.512 25.016,29.892 32.938,48.735 32.185,76.55 -3.78,164.697 -80.33,196.88 -76.549,32.185 -164.697,-3.78 -196.881,-80.329 -14.192,-33.755 -15.125,-69.762 -5.179,-102.233"
             style="fill:none;stroke:#000000;stroke-width:20;stroke-linecap:round;stroke-linejoin:round;stroke-miterlimit:10;stroke-dasharray:none;stroke-opacity:1"
             id="path3990" /></g><g
           id="g3992"
           transform="translate(101.416,312.9961)"><path
             d="M 0,0 28.191,-16.613 46.818,10.572"
             style="fill:none;stroke:#000000;stroke-width:20;stroke-linecap:round;stroke-linejoin:round;stroke-miterlimit:10;stroke-dasharray:none;stroke-opacity:1"
             id="path3994" /></g><g
           id="g3996"
           transform="translate(342.0898,216.2051)"><path
             d="M 0,0 V 0"
             style="fill:none;stroke:#000000;stroke-width:20;stroke-linecap:round;stroke-linejoin:round;stroke-miterlimit:10;stroke-dasharray:none;stroke-opacity:1"
             id="path3998" /></g><g
           id="g4000"
           transform="translate(175.9365,67.54)"><path
             d="M 0,0 V 0"
             style="fill:none;stroke:#000000;stroke-width:20;stroke-linecap:round;stroke-linejoin:round;stroke-miterlimit:10;stroke-dasharray:none;stroke-opacity:1"
             id="path4002" /></g></g></g></g></svg>
