<svg id="Layer_1" enable-background="new 0 0 66 66" height="512" viewBox="0 0 66 66" width="512" xmlns="http://www.w3.org/2000/svg"><g><g><g><g><path d="m47.19 6.1v53.8c0 2.83-2.28 5.1-5.09 5.1h-32.96c-2.81 0-5.1-2.27-5.1-5.1v-53.8c0-2.82 2.29-5.1 5.1-5.1h32.96c2.81 0 5.09 2.28 5.09 5.1z" fill="#44394a"/></g></g><path d="m43.63 7.12v51.77c0 .86-.43 1.62-1.09 2.08-.41.3-.92.47-1.46.47h-30.92c-1.4 0-2.55-1.15-2.55-2.55v-51.77c0-1.4 1.15-2.55 2.55-2.55h12.34c.44 0 .8.36.8.8 0 .91.49 1.79 1.27 2.19.17.1.35.16.54.2.17.04.34.06.51.06s.34-.02.51-.06c1.09-.22 1.81-1.28 1.81-2.39 0-.16.05-.31.14-.44v-.01c.14-.21.39-.35.66-.35h12.34c1.4 0 2.55 1.15 2.55 2.55z" fill="#fff"/><g><path d="m27.42 18.37v1.96c0 .15-.11.28-.26.29l-1.36.14c-.19.02-.35.16-.39.35-.02.07-.03.13-.04.16-.1.39-.24.76-.41 1.11-.06.13-.13.26-.19.38-.03.05-.05.1-.08.15-.09.16-.07.36.04.51l.85 1.04c.09.12.08.29-.02.39l-1.39 1.38c-.1.11-.27.12-.39.02l-.53-.43-.48-.39c-.15-.12-.36-.14-.52-.04-.38.22-1.1.61-1.67.74-.04.01-.1.02-.18.04-.19.05-.32.21-.34.39l-.14 1.28c-.02.14-.14.26-.29.26h-2.01c-.13 0-.23-.09-.24-.22l-.14-1.31c-.02-.19-.15-.35-.34-.39 0 0-.01 0-.02-.01-.11-.03-.22-.06-.32-.09-.53-.17-1.04-.4-1.51-.68-.17-.1-.38-.09-.53.03l-1.01.81c-.12.09-.29.08-.39-.02l-1.39-1.38c-.11-.11-.11-.28-.02-.39l.84-1.04c.12-.14.14-.35.04-.5l-.08-.15c-.06-.12-.12-.24-.18-.36-.12-.24-.22-.49-.3-.75-.04-.13-.08-.26-.12-.39-.01-.04-.02-.1-.04-.16-.04-.19-.2-.33-.39-.35l-1.36-.14c-.15-.01-.26-.14-.26-.29v-1.96c0-.15.11-.27.26-.29l.73-.07.69-.07c.19-.02.34-.16.39-.34.17-.61.42-1.18.73-1.72.1-.16.08-.37-.04-.51l-.92-1.13c-.09-.12-.08-.28.02-.39l1.39-1.39c.1-.1.27-.11.39-.02l1.16.94c.15.12.36.14.52.04.11-.06.21-.12.32-.17.07-.03.14-.07.21-.1.37-.17.75-.31 1.15-.41.18-.05.31-.21.34-.4l.16-1.49c.01-.14.14-.26.29-.26h1.96c.14 0 .27.11.29.26l.16 1.5c.02.19.15.35.34.4.4.1.79.24 1.15.41.05.02.09.04.14.07.07.04.24.13.39.22.16.09.36.07.51-.04.4-.33 1.17-.94 1.17-.94.12-.09.29-.08.39.02l1.39 1.39c.11.11.12.27.02.39l-.92 1.13c-.12.15-.14.36-.03.53.03.05.06.09.07.12.24.41.51 1.19.65 1.61.06.17.21.29.38.31l.71.04.73.08c.16.02.27.14.27.29z" fill="#fc8068"/><path d="m41.39 27.26v1.75c0 .13-.1.25-.23.26l-1.21.13c-.17.02-.31.15-.35.31-.02.06-.03.11-.04.15-.09.35-.21.67-.36.99-.05.12-.11.23-.17.34-.02.05-.05.09-.07.13-.08.15-.07.32.04.45l.75.92c.08.1.07.25-.02.35l-1.24 1.23c-.09.1-.24.1-.35.02l-.47-.38-.43-.35c-.13-.11-.32-.12-.46-.03-.34.2-.98.55-1.49.66-.03.01-.09.02-.16.04-.17.04-.29.18-.3.35l-.12 1.14c-.02.13-.13.23-.26.23h-1.79c-.11 0-.2-.08-.22-.2l-.12-1.17c-.02-.17-.14-.31-.3-.35 0 0-.01 0-.02-.01-.1-.02-.2-.05-.29-.08-.47-.15-.92-.35-1.34-.6-.15-.09-.34-.08-.47.03l-.89.72c-.1.08-.25.07-.35-.02l-1.24-1.23c-.1-.1-.1-.25-.02-.35l.74-.92c.11-.13.12-.31.04-.45l-.07-.14c-.05-.1-.11-.21-.16-.32-.1-.22-.19-.44-.27-.67-.04-.12-.07-.23-.1-.35-.01-.03-.02-.09-.04-.15-.04-.17-.18-.3-.35-.31l-1.21-.13c-.13-.01-.23-.12-.23-.26v-1.75c0-.13.1-.24.23-.26l.65-.07.61-.06c.17-.02.3-.14.35-.3.15-.54.37-1.05.65-1.53.09-.14.07-.33-.03-.46l-.82-1.01c-.08-.1-.07-.25.02-.35l1.24-1.24c.09-.09.24-.1.35-.02l1.04.84c.13.11.32.12.46.03.1-.05.19-.1.28-.15.06-.03.12-.06.18-.09.33-.15.67-.27 1.03-.37.16-.04.28-.19.3-.36l.14-1.33c.01-.13.12-.23.26-.23h1.75c.13 0 .24.1.26.23l.14 1.33c.02.17.13.31.3.35.35.09.7.22 1.02.37l.12.06c.07.03.22.12.35.19.15.08.32.07.45-.04.36-.29 1.04-.84 1.04-.84.1-.08.25-.07.35.02l1.24 1.24c.1.1.1.24.02.35l-.82 1.01c-.11.13-.12.32-.03.47.02.04.05.08.06.11.21.37.46 1.06.58 1.43.05.15.18.26.34.27l.63.07.67.1c.13.02.23.13.23.26z" fill="#fcd131"/></g><circle cx="18.63" cy="19.35" fill="#fff" r="3.64"/><circle cx="33.58" cy="28.13" fill="#fff" r="3.64"/><g><g><path d="m40.52 41.07h-29.25c-.41 0-.75-.34-.75-.75s.34-.75.75-.75h29.25c.41 0 .75.34.75.75s-.34.75-.75.75z" fill="#e5e5e5"/></g><g><path d="m39.04 45.01h-26.3c-.41 0-.75-.34-.75-.75s.34-.75.75-.75h26.3c.41 0 .75.34.75.75s-.34.75-.75.75z" fill="#e5e5e5"/></g><g><path d="m35.45 48.95h-19.12c-.41 0-.75-.34-.75-.75s.34-.75.75-.75h19.12c.41 0 .75.34.75.75s-.34.75-.75.75z" fill="#e5e5e5"/></g></g><path d="m33.25 55.53c0 .81-.33 1.55-.87 2.09-.53.54-1.27.87-2.09.87h-9.33c-1.63 0-2.96-1.33-2.96-2.96 0-.82.33-1.56.87-2.09.53-.54 1.27-.87 2.09-.87h9.33c1.64 0 2.96 1.32 2.96 2.96z" fill="#8c9ffa"/></g><g><path d="m61.96 12.43c0 5.57-5.34 10.09-11.91 10.09-1.57 0-3.06-.25-4.43-.72-.28-.1-.59-.06-.83.1-.72.48-1.56 1-2.48 1.46-.81.41-1.67-.45-1.27-1.26.24-.5.49-1.04.7-1.6.14-.38.03-.8-.27-1.06-2.06-1.82-3.33-4.29-3.33-7.01 0-5.58 5.33-10.09 11.91-10.09 6.57 0 11.91 4.51 11.91 10.09z" fill="#8c9ffa"/></g><g><g><g><path d="m52.67 18.74c-.19-.02-.37-.11-.5-.28-.26-.32-.21-.79.11-1.05l2.25-1.81-1.81-2.25c-.26-.32-.21-.79.11-1.05s.79-.21 1.05.11l2.28 2.83c.12.15.18.35.16.55s-.12.38-.28.5l-2.83 2.28c-.15.14-.35.19-.54.17z" fill="#fff"/></g><g><path d="m46.7 13.67c-.19-.02-.37-.11-.5-.28l-2.28-2.83c-.26-.32-.21-.79.11-1.05l2.83-2.28c.32-.26.79-.21 1.05.11s.21.79-.11 1.05l-2.25 1.81 1.81 2.25c.26.32.21.79-.11 1.05-.16.14-.36.19-.55.17z" fill="#fff"/></g></g><g><path d="m48.27 19.94c-.04 0-.08-.01-.12-.02-.4-.11-.64-.52-.53-.92l3.39-12.58c.11-.4.52-.64.92-.53s.64.52.53.92l-3.39 12.58c-.1.36-.44.59-.8.55z" fill="#fff"/></g></g></g></svg>