<svg id="Layer_1" enable-background="new 0 0 512 512" height="512" viewBox="0 0 512 512" width="512" xmlns="http://www.w3.org/2000/svg"><g clip-rule="evenodd" fill-rule="evenodd"><g><path d="m417.843 351.479c-34.113 0-51.228 41.327-27.109 65.445 4.444 4.443 4.444 11.65 0 16.093l-24.497 24.497c-4.444 4.443-11.65 4.443-16.092 0-24.119-24.12-65.445-7.004-65.445 27.108 0 6.286-5.095 11.378-11.378 11.378h-34.643c-6.283 0-11.378-5.092-11.378-11.378 0-34.154-41.296-51.258-65.446-27.108-4.443 4.443-11.649 4.443-16.092 0l-24.496-24.497c-4.444-4.443-4.444-11.649 0-16.093 24.119-24.119 7.003-65.445-27.109-65.445-6.286 0-11.378-5.096-11.378-11.379v-13.322c0-2.203 1.797-4 4-4h80.671c2.141 0 3.899 1.684 3.994 3.823 1.999 44.971 39.091 80.819 84.556 80.819 45.464 0 82.557-35.848 84.556-80.819.095-2.138 1.854-3.823 3.994-3.823h80.671c2.203 0 4 1.797 4 4v13.322c-.001 6.283-5.093 11.379-11.379 11.379z" fill="#fdcd56"/><path d="m190.01 327.032c2.193 34.538 30.899 61.873 65.99 61.873s63.798-27.335 65.991-61.873c.073-1.144-.291-2.155-1.075-2.991s-1.771-1.263-2.917-1.263h-123.997c-1.146 0-2.133.427-2.917 1.263s-1.148 1.847-1.075 2.991z" fill="#f5b945"/></g><g><g><path d="m306.323 280.506h-100.643c8.033-11.366 14.692-40.653 11.808-63.247h76.318c-2.884 22.594 4.488 51.88 12.517 63.247z" fill="#cad0d7"/><path d="m187.745 276.597h136.513c7.019 0 12.761 5.742 12.761 12.761 0 7.019-5.742 12.761-12.761 12.761h-136.513c-7.019 0-12.761-5.742-12.761-12.761 0-7.018 5.742-12.761 12.761-12.761z" fill="#e4e8eb"/><path d="m386.611 16c8.503 0 15.4 6.896 15.4 15.403v173.189c0 11.578-9.385 20.964-20.964 20.964h-250.093c-11.579 0-20.964-9.386-20.964-20.964v-167.627c0-11.579 9.385-20.964 20.964-20.964h255.657z" fill="#cad0d7"/><path d="m122.158 171.689h267.685c0-46.762 0-93.524 0-140.285 0-1.789-1.443-3.236-3.232-3.236h-255.657c-4.863 0-8.797 3.934-8.797 8.797.001 44.908.001 89.816.001 134.724z" fill="#38a8d2"/><path d="m402.01 183.856v20.736c0 11.578-9.385 20.964-20.965 20.964h-250.091c-11.579 0-20.964-9.386-20.964-20.964v-20.736z" fill="#e4e8eb"/></g><path d="m244.475 211.707c-3.866 0-7-3.134-7-7s3.134-7 7-7h23.051c3.866 0 7 3.134 7 7s-3.134 7-7 7z" fill="#cad0d7"/></g><path d="m470.836 128.667c3.775-.755 7.448 1.693 8.203 5.469.755 3.775-1.694 7.448-5.469 8.203l-19.462 3.934c13.213 10.248 24.462 24.608 32.818 41.794 10.148 20.872 16.074 45.973 16.074 72.927 0 29.179-6.945 56.189-18.674 78.018-12.224 22.751-29.709 39.95-50.08 48.306-3.564 1.465-7.641-.237-9.105-3.801-1.465-3.564.237-7.641 3.801-9.105 17.313-7.101 32.361-22.066 43.08-42.016 10.664-19.849 16.978-44.558 16.978-71.402 0-24.828-5.402-47.832-14.652-66.857-7.411-15.244-17.262-27.89-28.73-36.796l4.207 20.811c.755 3.775-1.693 7.448-5.469 8.203-3.775.755-7.448-1.693-8.203-5.469l-7.401-36.615c-.755-3.775 1.694-7.448 5.469-8.203zm-432.406 13.672c-3.775-.755-6.223-4.428-5.469-8.203.755-3.775 4.428-6.223 8.203-5.469l36.615 7.401c3.775.755 6.223 4.428 5.469 8.203l-7.401 36.615c-.755 3.775-4.428 6.223-8.203 5.469-3.775-.755-6.223-4.428-5.469-8.203l4.207-20.811c-11.468 8.906-21.319 21.552-28.73 36.796-9.25 19.025-14.652 42.029-14.652 66.857 0 26.844 6.314 51.553 16.979 71.401 10.719 19.95 25.767 34.915 43.08 42.016 3.564 1.465 5.265 5.542 3.801 9.105-1.465 3.564-5.542 5.265-9.105 3.801-20.371-8.355-37.856-25.555-50.08-48.306-11.73-21.828-18.675-48.838-18.675-78.017 0-26.954 5.926-52.055 16.074-72.927 8.356-17.186 19.605-31.546 32.818-41.794z" fill="#c7e0ec"/></g></svg>