<svg width="65" height="65" viewBox="0 0 65 65" fill="none" xmlns="http://www.w3.org/2000/svg">
<mask id="mask0_28_226" style="mask-type:luminance" maskUnits="userSpaceOnUse" x="0" y="0" width="65" height="65">
<path d="M0 7.62939e-06H65V65H0V7.62939e-06Z" fill="white"/>
</mask>
<g mask="url(#mask0_28_226)">
<path d="M32.4998 59.1104H13.0459V0.952109H57.4056V59.1104H37.4371" stroke="#CC0444" stroke-width="2" stroke-miterlimit="10" stroke-linecap="round" stroke-linejoin="round"/>
<path d="M52.2131 26.5747V42.0058C52.2131 42.4664 51.8351 42.8442 51.3747 42.8442H19.0773C18.6167 42.8442 18.2388 42.4664 18.2388 42.0058V6.72785C18.2388 6.26726 18.6167 5.88945 19.0773 5.88945H51.3747C51.8351 5.88945 52.2131 6.26726 52.2131 6.72785V22.1591" stroke="#CC0444" stroke-width="2" stroke-miterlimit="10" stroke-linecap="round" stroke-linejoin="round"/>
<path d="M39.7223 22.7457C42.594 23.012 45.1382 20.8995 45.4045 18.0278C45.6707 15.156 43.5584 12.6117 40.6868 12.3455C37.8152 12.0792 35.2709 14.1917 35.0046 17.0634C34.7382 19.935 36.8507 22.4793 39.7223 22.7457Z" stroke="#CC0444" stroke-width="2" stroke-miterlimit="10" stroke-linecap="round" stroke-linejoin="round"/>
<path d="M35.7855 42.8444C36.5591 41.3438 37.063 39.6704 37.2284 37.8853C37.923 30.4037 32.4208 23.7785 24.9392 23.084C22.5642 22.8645 20.2792 23.2676 18.2388 24.16" stroke="#CC0444" stroke-width="2" stroke-miterlimit="10" stroke-linecap="round" stroke-linejoin="round"/>
<path d="M18.2388 17.2577C18.7426 17.3836 19.2607 17.4736 19.7934 17.524C25.4539 18.0493 30.4668 13.8857 30.9885 8.22863C31.0641 7.42971 31.0462 6.64882 30.9418 5.88952" stroke="#CC0444" stroke-width="2" stroke-miterlimit="10" stroke-linecap="round" stroke-linejoin="round"/>
<path d="M18.2388 52.9099H31.8738" stroke="#CC0444" stroke-width="2" stroke-miterlimit="10" stroke-linecap="round" stroke-linejoin="round"/>
<path d="M18.2388 47.8754H52.2131" stroke="#CC0444" stroke-width="2" stroke-miterlimit="10" stroke-linecap="round" stroke-linejoin="round"/>
<path d="M52.2133 52.9099H45.1816" stroke="#CC0444" stroke-width="2" stroke-miterlimit="10" stroke-linecap="round" stroke-linejoin="round"/>
<path d="M45.9477 33.1063H41.8525" stroke="#CC0444" stroke-width="2" stroke-miterlimit="10" stroke-linecap="round" stroke-linejoin="round"/>
<path d="M45.8833 37.8458H41.7881" stroke="#CC0444" stroke-width="2" stroke-miterlimit="10" stroke-linecap="round" stroke-linejoin="round"/>
<path d="M26.7641 28.7159H22.6689" stroke="#CC0444" stroke-width="2" stroke-miterlimit="10" stroke-linecap="round" stroke-linejoin="round"/>
<path d="M29.7074 33.4554H22.6074" stroke="#CC0444" stroke-width="2" stroke-miterlimit="10" stroke-linecap="round" stroke-linejoin="round"/>
<path d="M29.7073 38.1948H22.5425" stroke="#CC0444" stroke-width="2" stroke-miterlimit="10" stroke-linecap="round" stroke-linejoin="round"/>
<path d="M51.9504 59.1104V64.0479H7.59424V5.88948H13.0461" stroke="#CC0444" stroke-width="2" stroke-miterlimit="10" stroke-linecap="round" stroke-linejoin="round"/>
</g>
</svg>
