<svg width="65" height="65" viewBox="0 0 65 65" fill="none" xmlns="http://www.w3.org/2000/svg">
<mask id="mask0_28_411" style="mask-type:luminance" maskUnits="userSpaceOnUse" x="0" y="0" width="65" height="65">
<path d="M0 7.62939e-06H65V65H0V7.62939e-06Z" fill="white"/>
</mask>
<g mask="url(#mask0_28_411)">
<path d="M63.7305 38.4469V45.8212C63.7305 48.9708 61.5677 51.5487 58.9335 51.5487H45.6367M19.3705 51.5487H6.0629C3.42862 51.5487 1.26953 48.9708 1.26953 45.8212V8.26303C1.26953 5.11357 3.42507 2.53909 6.0629 2.53909H11.6191H58.9335C61.5712 2.53909 63.7305 5.11713 63.7305 8.26303V27.053" stroke="#CC0444" stroke-width="2" stroke-miterlimit="10" stroke-linecap="round" stroke-linejoin="round"/>
<path d="M24.4625 19.7002H63.7305M1.26953 19.7002H13.0621" stroke="#CC0444" stroke-width="2" stroke-miterlimit="10" stroke-linecap="round" stroke-linejoin="round"/>
<path d="M12.0222 14.2244C13.7099 14.2244 15.0846 12.8509 15.0846 11.1682C15.0846 9.48203 13.7099 8.11208 12.0222 8.11208C10.338 8.11208 8.96338 9.48203 8.96338 11.1682C8.96338 12.8509 10.338 14.2244 12.0222 14.2244Z" stroke="#CC0444" stroke-width="2" stroke-miterlimit="10" stroke-linecap="round" stroke-linejoin="round"/>
<path d="M41.1421 8.11196H55.6732C57.3538 8.11196 58.7322 9.48546 58.7322 11.1681C58.7322 12.8472 57.3538 14.2242 55.6732 14.2242H41.1421C39.4579 14.2242 38.0833 12.8472 38.0833 11.1681C38.0833 9.48546 39.4579 8.11196 41.1421 8.11196Z" stroke="#CC0444" stroke-width="2" stroke-miterlimit="10" stroke-linecap="round" stroke-linejoin="round"/>
<path d="M23.3147 14.2244C24.9988 14.2244 26.3735 12.8509 26.3735 11.1682C26.3735 9.48203 24.9988 8.11208 23.3147 8.11208C21.6305 8.11208 20.2559 9.48203 20.2559 11.1682C20.2559 12.8509 21.6305 14.2244 23.3147 14.2244Z" stroke="#CC0444" stroke-width="2" stroke-miterlimit="10" stroke-linecap="round" stroke-linejoin="round"/>
<path d="M27.489 50.7972C27.489 51.635 27.7554 51.5306 28.3131 51.2107L40.4836 44.1888C40.8111 44.0019 40.8111 43.7178 40.4836 43.5272L28.3131 36.5089C27.7554 36.1853 27.489 36.081 27.489 36.9188V50.7972Z" stroke="#CC0444" stroke-width="2" stroke-miterlimit="10" stroke-linecap="round" stroke-linejoin="round"/>
<path d="M35.8376 28.998C37.5541 29.3791 39.1591 30.0515 40.6022 30.9612L41.8868 29.6811C42.6461 28.9189 43.8949 28.9189 44.6578 29.6811L46.6838 31.7018C47.4466 32.4641 47.4466 33.7116 46.6838 34.4739L45.399 35.7539C46.3024 37.1813 46.9681 38.774 47.3531 40.4711H49.156C50.2356 40.4711 51.1172 41.3521 51.1172 42.427V45.289C51.1172 46.3676 50.2356 47.2485 49.156 47.2485H47.3496C46.9609 48.9348 46.2951 50.5168 45.399 51.937L46.6838 53.217C47.4466 53.9792 47.4466 55.2269 46.6838 55.989L44.6578 58.0097C43.8949 58.7719 42.6461 58.7719 41.8868 58.0097L40.6022 56.7298C39.1734 57.6286 37.5865 58.2974 35.8916 58.6821V60.5014C35.8916 61.58 35.0099 62.4609 33.9304 62.4609H31.0658C29.9898 62.4609 29.1082 61.58 29.1082 60.5014V58.6785C27.4168 58.2938 25.8299 57.625 24.4048 56.7298L23.1238 58.0097C22.3608 58.7719 21.1121 58.7719 20.3528 58.0097L18.3268 55.989C17.5638 55.2269 17.5638 53.9792 18.3268 53.217L19.6079 51.937C18.7119 50.5168 18.046 48.9348 17.6611 47.2485H15.8401C14.7642 47.2485 13.8789 46.3676 13.8789 45.289V42.427C13.8789 41.3521 14.7642 40.4711 15.8401 40.4711H17.6539C18.0352 38.7919 18.6939 37.2172 19.5791 35.8007L18.2872 34.5098C17.5244 33.7511 17.5244 32.5036 18.2872 31.7413L20.3131 29.7171C21.0761 28.9548 22.3213 28.9548 23.0841 29.7171L24.358 30.9899C25.7795 30.0909 27.3629 29.415 29.0507 29.0268V27.2147C29.0507 26.1361 29.9359 25.2552 31.0119 25.2552H33.8764C34.9559 25.2552 35.8376 26.1361 35.8376 27.2147V28.998Z" stroke="#CC0444" stroke-width="2" stroke-miterlimit="10" stroke-linecap="round" stroke-linejoin="round"/>
<path d="M63.7305 32.7625V32.7373" stroke="#CC0444" stroke-width="2" stroke-miterlimit="10" stroke-linecap="round" stroke-linejoin="round"/>
<path d="M18.7515 19.7002H18.7766" stroke="#CC0444" stroke-width="2" stroke-miterlimit="10" stroke-linecap="round" stroke-linejoin="round"/>
</g>
</svg>
