<svg width="65" height="65" viewBox="0 0 65 65" fill="none" xmlns="http://www.w3.org/2000/svg">
<path d="M17.3743 45.2098H47.6283" stroke="#CC0444" stroke-width="2" stroke-miterlimit="10" stroke-linecap="round" stroke-linejoin="round"/>
<path d="M17.3743 51.2151H47.6283" stroke="#CC0444" stroke-width="2" stroke-miterlimit="10" stroke-linecap="round" stroke-linejoin="round"/>
<mask id="mask0_28_382" style="mask-type:luminance" maskUnits="userSpaceOnUse" x="0" y="0" width="65" height="65">
<path d="M0 7.62939e-06H65V65H0V7.62939e-06Z" fill="white"/>
</mask>
<g mask="url(#mask0_28_382)">
<path d="M55.134 64.0266H9.85185C8.6138 64.0266 7.61011 63.023 7.61011 61.7849V3.17265C7.61011 1.93461 8.6138 0.930916 9.85185 0.930916H55.134C56.372 0.930916 57.3757 1.93461 57.3757 3.17265V61.7849C57.3757 63.023 56.372 64.0266 55.134 64.0266Z" stroke="#CC0444" stroke-width="2" stroke-miterlimit="10" stroke-linecap="round" stroke-linejoin="round"/>
<path d="M28.3406 27.6914H22.0407C19.1888 27.6914 16.8767 25.3793 16.8767 22.5273C16.8767 19.6752 19.1888 17.3633 22.0407 17.3633H28.3406V27.6914Z" stroke="#CC0444" stroke-width="2" stroke-miterlimit="10" stroke-linecap="round" stroke-linejoin="round"/>
<path d="M38.5583 13.8958L28.3406 17.3632V27.6914L38.5583 31.1588C38.8989 31.2745 39.2522 31.0212 39.2522 30.6616V14.393C39.2522 14.0334 38.8989 13.7801 38.5583 13.8958Z" stroke="#CC0444" stroke-width="2" stroke-miterlimit="10" stroke-linecap="round" stroke-linejoin="round"/>
<path d="M22.0407 27.6914C22.0092 27.6914 21.9781 27.6896 21.9468 27.689V35.6957C21.9468 36.7271 22.782 37.5635 23.8134 37.5647C23.8314 37.5647 23.8494 37.5647 23.8675 37.5648C24.9006 37.5662 25.7389 36.729 25.7389 35.6958V27.6914H22.0407Z" stroke="#CC0444" stroke-width="2" stroke-miterlimit="10" stroke-linecap="round" stroke-linejoin="round"/>
<path d="M43.7688 22.5291H47.2427" stroke="#CC0444" stroke-width="2" stroke-miterlimit="10" stroke-linecap="round" stroke-linejoin="round"/>
<path d="M44.2776 17.5797L46.734 15.5843" stroke="#CC0444" stroke-width="2" stroke-miterlimit="10" stroke-linecap="round" stroke-linejoin="round"/>
<path d="M44.2776 27.4784L46.734 29.474" stroke="#CC0444" stroke-width="2" stroke-miterlimit="10" stroke-linecap="round" stroke-linejoin="round"/>
<path d="M35.293 7.06775C35.293 8.6454 34.014 9.92419 32.4365 9.92419C30.859 9.92419 29.5801 8.6454 29.5801 7.06775C29.5801 5.4901 30.859 4.2113 32.4365 4.2113C34.014 4.2113 35.293 5.4901 35.293 7.06775Z" stroke="#CC0444" stroke-width="2" stroke-miterlimit="10" stroke-linecap="round" stroke-linejoin="round"/>
<path d="M51.0346 5.62817H34.9034C35.1506 6.05105 35.2929 6.54249 35.2929 7.06769C35.2929 8.64521 34.0139 9.92414 32.4364 9.92414C30.8589 9.92414 29.58 8.64521 29.58 7.06769C29.58 6.54249 29.7223 6.05105 29.9695 5.62817H13.9513C13.0434 5.62817 12.3074 6.36425 12.3074 7.27209V57.6854C12.3074 58.5933 13.0434 59.3293 13.9513 59.3293H51.0346C51.9424 59.3293 52.6785 58.5933 52.6785 57.6854V7.27209C52.6785 6.36425 51.9424 5.62817 51.0346 5.62817Z" stroke="#CC0444" stroke-width="2" stroke-miterlimit="10" stroke-linecap="round" stroke-linejoin="round"/>
</g>
</svg>
