<svg width="65" height="65" viewBox="0 0 65 65" fill="none" xmlns="http://www.w3.org/2000/svg">
<mask id="mask0_28_313" style="mask-type:luminance" maskUnits="userSpaceOnUse" x="0" y="0" width="65" height="65">
<path d="M0 7.62939e-06H65V65H0V7.62939e-06Z" fill="white"/>
</mask>
<g mask="url(#mask0_28_313)">
<path d="M11.1289 37.5884L23.9372 24.7802C24.7319 23.9854 26.0206 23.9854 26.8156 24.7802L38.1845 36.1492C38.9794 36.944 40.2681 36.944 41.0629 36.1492L46.3259 30.8863C47.1207 30.0914 48.4094 30.0914 49.2043 30.8863L53.8712 35.5531" stroke="#CC0444" stroke-width="2" stroke-miterlimit="10" stroke-linecap="round" stroke-linejoin="round"/>
<path d="M33.5178 30.4646L35.6405 28.342C36.4353 27.5471 37.724 27.5471 38.5189 28.342L43.6945 33.5176" stroke="#CC0444" stroke-width="2" stroke-miterlimit="10" stroke-linecap="round" stroke-linejoin="round"/>
<path d="M11.1289 49.8004L21.9018 39.0276C22.6966 38.2327 23.9853 38.2327 24.7802 39.0276L32.0786 46.3258C32.8733 47.1207 34.1621 47.1207 34.9569 46.3258L37.1669 44.116C37.9617 43.321 39.2504 43.321 40.0453 44.116L51.8359 55.9065" stroke="#CC0444" stroke-width="2" stroke-miterlimit="10" stroke-linecap="round" stroke-linejoin="round"/>
<path d="M36.5708 16.2172C36.5708 18.4654 34.7483 20.288 32.5002 20.288C30.252 20.288 28.4294 18.4654 28.4294 16.2172C28.4294 13.9691 30.252 12.1466 32.5002 12.1466C34.7483 12.1466 36.5708 13.9691 36.5708 16.2172Z" stroke="#CC0444" stroke-width="2" stroke-miterlimit="10" stroke-linecap="round" stroke-linejoin="round"/>
<path d="M15.1998 62.0126H10.1114C9.54938 62.0126 9.09375 61.5569 9.09375 60.9949V56.9242C9.09375 56.3621 9.54938 55.9065 10.1114 55.9065H54.889C55.4512 55.9065 55.9068 56.3621 55.9068 56.9242V60.9949C55.9068 61.5569 55.4512 62.0126 54.889 62.0126H49.8008" stroke="#CC0444" stroke-width="2" stroke-miterlimit="10" stroke-linecap="round" stroke-linejoin="round"/>
<path d="M39.6237 62.0126H21.3057" stroke="#CC0444" stroke-width="2" stroke-miterlimit="10" stroke-linecap="round" stroke-linejoin="round"/>
<path d="M20.2879 64.0479H16.2171C15.6551 64.0479 15.1995 63.5922 15.1995 63.0302V60.9949C15.1995 60.4327 15.6551 59.9772 16.2171 59.9772H20.2879C20.8499 59.9772 21.3055 60.4327 21.3055 60.9949V63.0302C21.3055 63.5922 20.8499 64.0479 20.2879 64.0479Z" stroke="#CC0444" stroke-width="2" stroke-miterlimit="10" stroke-linecap="round" stroke-linejoin="round"/>
<path d="M48.7827 64.0479H44.712C44.15 64.0479 43.6943 63.5922 43.6943 63.0302V60.9949C43.6943 60.4327 44.15 59.9772 44.712 59.9772H48.7827C49.3448 59.9772 49.8004 60.4327 49.8004 60.9949V63.0302C49.8004 63.5922 49.3448 64.0479 48.7827 64.0479Z" stroke="#CC0444" stroke-width="2" stroke-miterlimit="10" stroke-linecap="round" stroke-linejoin="round"/>
<path d="M11.1289 55.9065V5.0228" stroke="#CC0444" stroke-width="2" stroke-miterlimit="10" stroke-linecap="round" stroke-linejoin="round"/>
<path d="M53.8711 55.9065V5.0228" stroke="#CC0444" stroke-width="2" stroke-miterlimit="10" stroke-linecap="round" stroke-linejoin="round"/>
<path d="M45.7298 5.02283H10.1113C9.54914 5.02283 9.09351 4.56719 9.09351 4.00517V1.96986C9.09351 1.40771 9.54914 0.952202 10.1113 0.952202H54.8889C55.4509 0.952202 55.9066 1.40771 55.9066 1.96986V4.00517C55.9066 4.56719 55.4509 5.02283 54.8889 5.02283H49.8005" stroke="#CC0444" stroke-width="2" stroke-miterlimit="10" stroke-linecap="round" stroke-linejoin="round"/>
</g>
</svg>
