<svg width="65" height="65" viewBox="0 0 65 65" fill="none" xmlns="http://www.w3.org/2000/svg">
<path d="M4.76074 42.2915V18.5986" stroke="#CC0444" stroke-width="2" stroke-miterlimit="10" stroke-linecap="round" stroke-linejoin="round"/>
<mask id="mask0_28_29" style="mask-type:luminance" maskUnits="userSpaceOnUse" x="0" y="0" width="65" height="65">
<path d="M0 7.62939e-06H65V65H0V7.62939e-06Z" fill="white"/>
</mask>
<g mask="url(#mask0_28_29)">
<path d="M64.0478 42.5928V47.0361C64.0478 49.1395 62.3426 50.8447 60.2393 50.8447H4.76074C2.65738 50.8447 0.952148 49.1395 0.952148 47.0361V42.5928" stroke="#CC0444" stroke-width="2" stroke-miterlimit="10" stroke-linecap="round" stroke-linejoin="round"/>
<path d="M60.2393 2.09473H4.76074C2.65738 2.09473 0.952148 3.79997 0.952148 5.90332V42.5928H64.0478V5.90332C64.0478 3.79997 62.3426 2.09473 60.2393 2.09473Z" stroke="#CC0444" stroke-width="2" stroke-miterlimit="10" stroke-linecap="round" stroke-linejoin="round"/>
<path d="M23.1282 58.9481L24.3326 51.1192" stroke="#CC0444" stroke-width="2" stroke-miterlimit="10" stroke-linecap="round" stroke-linejoin="round"/>
<path d="M40.6794 51.1995L41.8738 58.9628" stroke="#CC0444" stroke-width="2" stroke-miterlimit="10" stroke-linecap="round" stroke-linejoin="round"/>
<path d="M38.542 62.9053H18.7811C18.3478 62.9053 18.0417 62.4807 18.1788 62.0698L18.7358 60.3988C18.995 59.6212 19.7227 59.0967 20.5425 59.0967H44.4575C45.2772 59.0967 46.0048 59.6212 46.264 60.3988L46.8211 62.0698C46.9581 62.4807 46.6521 62.9053 46.2189 62.9053H42.9854" stroke="#CC0444" stroke-width="2" stroke-miterlimit="10" stroke-linecap="round" stroke-linejoin="round"/>
<path d="M60.1621 14.1552H4.76074V6.53806C4.76074 6.18741 5.04499 5.90329 5.39551 5.90329H59.6045C59.9551 5.90329 60.2393 6.18741 60.2393 6.53806V42.2413" stroke="#CC0444" stroke-width="2" stroke-miterlimit="10" stroke-linecap="round" stroke-linejoin="round"/>
<path d="M18.0908 10.0293C18.0908 10.2046 17.9488 10.3467 17.7734 10.3467C17.5981 10.3467 17.4561 10.2046 17.4561 10.0293C17.4561 9.85397 17.5981 9.71191 17.7734 9.71191C17.9488 9.71191 18.0908 9.85397 18.0908 10.0293Z" stroke="#CC0444" stroke-width="2" stroke-miterlimit="10" stroke-linecap="round" stroke-linejoin="round"/>
<path d="M13.6475 10.0293C13.6475 10.2046 13.5054 10.3467 13.3301 10.3467C13.1548 10.3467 13.0127 10.2046 13.0127 10.0293C13.0127 9.85397 13.1548 9.71191 13.3301 9.71191C13.5054 9.71191 13.6475 9.85397 13.6475 10.0293Z" stroke="#CC0444" stroke-width="2" stroke-miterlimit="10" stroke-linecap="round" stroke-linejoin="round"/>
<path d="M9.2041 10.0293C9.2041 10.2046 9.06204 10.3467 8.88672 10.3467C8.7114 10.3467 8.56934 10.2046 8.56934 10.0293C8.56934 9.85397 8.7114 9.71191 8.88672 9.71191C9.06204 9.71191 9.2041 9.85397 9.2041 10.0293Z" stroke="#CC0444" stroke-width="2" stroke-miterlimit="10" stroke-linecap="round" stroke-linejoin="round"/>
<path d="M43.2814 28.374C43.2814 32.2218 41.1458 35.2664 37.7576 35.3257C36.6298 35.3454 33.7151 35.3564 33.7151 35.3564L33.6868 21.3916H37.6419C41.3582 21.3916 43.2814 24.5262 43.2814 28.374Z" stroke="#CC0444" stroke-width="2" stroke-miterlimit="10" stroke-linecap="round" stroke-linejoin="round"/>
<path d="M29.2429 35.3248C29.2429 35.3248 22.5789 35.4086 22.2631 35.3034C21.9475 35.1981 22.7693 34.6423 27.1385 28.3997C27.9544 27.2339 28.4036 26.2504 28.5947 25.4262L28.6623 24.8963C28.6623 22.9607 27.0932 21.3916 25.1575 21.3916C23.4543 21.3916 22.035 22.6065 21.7185 24.2171" stroke="#CC0444" stroke-width="2" stroke-miterlimit="10" stroke-linecap="round" stroke-linejoin="round"/>
</g>
</svg>
