<svg width="61" height="60" viewBox="0 0 61 60" fill="none" xmlns="http://www.w3.org/2000/svg">
<g clip-path="url(#clip0_489_4039)">
<path d="M29.8636 0.0168457C14.609 0.0168457 15.5615 6.63214 15.5615 6.63214L15.5785 13.4858H30.1356V15.5434H9.79657C9.79657 15.5434 0.0351562 14.4364 0.0351562 29.8281C0.0351562 45.2204 8.55516 44.6745 8.55516 44.6745H13.6399V37.5319C13.6399 37.5319 13.3657 29.0119 22.0239 29.0119H36.462C36.462 29.0119 44.5737 29.143 44.5737 21.1721V7.99285C44.5737 7.99285 45.8057 0.0168457 29.8636 0.0168457ZM21.8368 4.62579C22.1808 4.62548 22.5215 4.693 22.8393 4.8245C23.1572 4.956 23.446 5.14889 23.6893 5.39213C23.9325 5.63537 24.1254 5.92419 24.2569 6.24206C24.3884 6.55993 24.4559 6.90061 24.4556 7.24461C24.4559 7.58861 24.3884 7.92929 24.2569 8.24716C24.1254 8.56503 23.9325 8.85385 23.6893 9.09709C23.446 9.34033 23.1572 9.53322 22.8393 9.66472C22.5215 9.79622 22.1808 9.86374 21.8368 9.86343C21.4928 9.86374 21.1521 9.79622 20.8343 9.66472C20.5164 9.53322 20.2276 9.34033 19.9843 9.09709C19.7411 8.85385 19.5482 8.56503 19.4167 8.24716C19.2852 7.92929 19.2177 7.58861 19.218 7.24461C19.2177 6.90061 19.2852 6.55993 19.4167 6.24206C19.5482 5.92419 19.7411 5.63537 19.9843 5.39213C20.2276 5.14889 20.5164 4.956 20.8343 4.8245C21.1521 4.693 21.4928 4.62548 21.8368 4.62579Z" fill="url(#paint0_linear_489_4039)"/>
<path d="M30.2949 59.7943C45.5495 59.7943 44.597 53.179 44.597 53.179L44.5801 46.3256H30.0227V44.268H50.3617C50.3617 44.268 60.1232 45.375 60.1232 29.9828C60.1232 14.5908 51.6032 15.1367 51.6032 15.1367H46.5185V22.279C46.5185 22.279 46.7926 30.799 38.1344 30.799H23.6963C23.6963 30.799 15.5846 30.668 15.5846 38.639V51.8186C15.5846 51.8186 14.3528 59.7943 30.2947 59.7943H30.2949ZM38.3217 55.1858C37.9777 55.1862 37.6371 55.1186 37.3192 54.9871C37.0013 54.8556 36.7125 54.6627 36.4693 54.4195C36.226 54.1763 36.0331 53.8874 35.9016 53.5696C35.7701 53.2517 35.7026 52.911 35.7029 52.567C35.7026 52.223 35.7701 51.8823 35.9016 51.5644C36.0331 51.2465 36.2259 50.9577 36.4692 50.7144C36.7124 50.4711 37.0013 50.2782 37.3191 50.1467C37.637 50.0152 37.9777 49.9477 38.3217 49.948C38.6657 49.9477 39.0064 50.0152 39.3243 50.1467C39.6422 50.2782 39.931 50.4711 40.1742 50.7143C40.4175 50.9576 40.6104 51.2464 40.7419 51.5642C40.8734 51.8821 40.9409 52.2228 40.9406 52.5668C40.9409 52.9108 40.8734 53.2515 40.7419 53.5693C40.6104 53.8872 40.4175 54.176 40.1742 54.4193C39.931 54.6625 39.6422 54.8554 39.3243 54.9869C39.0064 55.1184 38.6657 55.1862 38.3217 55.1858Z" fill="url(#paint1_linear_489_4039)"/>
</g>
<defs>
<linearGradient id="paint0_linear_489_4039" x1="577.497" y1="537.679" x2="3555.37" y2="3485.84" gradientUnits="userSpaceOnUse">
<stop stop-color="#387EB8"/>
<stop offset="1" stop-color="#366994"/>
</linearGradient>
<linearGradient id="paint1_linear_489_4039" x1="867.919" y1="934.193" x2="4065.81" y2="3957.26" gradientUnits="userSpaceOnUse">
<stop stop-color="#FFE052"/>
<stop offset="1" stop-color="#FFC331"/>
</linearGradient>
<clipPath id="clip0_489_4039">
<rect width="60.241" height="60" fill="white"/>
</clipPath>
</defs>
</svg>
