<svg width="96" height="50" viewBox="0 0 96 50" fill="none" xmlns="http://www.w3.org/2000/svg">
<g clip-path="url(#clip0_489_3401)">
<path d="M47.7464 49.7084C74.116 49.7084 95.4927 38.5808 95.4927 24.8542C95.4927 11.1276 74.116 0 47.7464 0C21.3768 0 0 11.1276 0 24.8542C0 38.5808 21.3768 49.7084 47.7464 49.7084Z" fill="#8993BE"/>
<path fill-rule="evenodd" clip-rule="evenodd" d="M13.4062 39.5704L18.639 13.0809H30.7386C35.9709 13.408 38.5872 16.024 38.5872 20.6028C38.5872 28.4515 32.3739 33.0299 26.814 32.7028H20.9282L19.62 39.5704H13.4062ZM22.236 27.7976L23.8713 17.9865H28.1226C30.4118 17.9865 32.0467 18.9675 32.0467 20.9296C31.72 26.4894 29.1036 27.4705 26.1605 27.7976H22.236ZM37.3716 32.7028L42.6039 6.21362H48.8176L47.5095 13.0809H53.3957C58.6284 13.408 60.5905 16.024 59.9366 19.2946L57.6474 32.7028H51.1069L53.3961 20.6028C53.7228 18.9675 53.7228 17.9865 51.434 17.9865H46.5284L43.5853 32.7028H37.3716ZM57.2285 39.5704L62.4608 13.0809H74.5608C79.7935 13.408 82.4098 16.024 82.4098 20.6028C82.4098 28.4515 76.1961 33.0299 70.6366 32.7028H64.75L63.4418 39.5704H57.2285ZM66.0578 27.7976L67.6931 17.9865H71.9448C74.234 17.9865 75.8689 18.9675 75.8689 20.9296C75.5422 26.4894 72.9258 27.4705 69.9827 27.7976H66.0582H66.0578Z" fill="#232531"/>
</g>
<defs>
<clipPath id="clip0_489_3401">
<rect width="95.4927" height="50" fill="white"/>
</clipPath>
</defs>
</svg>
