<svg width="60" height="60" viewBox="0 0 60 60" fill="none" xmlns="http://www.w3.org/2000/svg">
<path d="M27.6113 7.80066L28.9116 10.2429C29.204 10.6936 29.5207 11.0925 29.8937 11.464C30.9874 12.5441 32.0068 13.6968 32.945 14.9143C35.1482 17.8072 36.6343 21.0199 37.6955 24.4945C38.332 26.617 38.6776 28.7943 38.7035 30.996C38.8101 37.5782 36.5536 43.2301 32.004 47.9273C31.264 48.6722 30.4645 49.3556 29.6136 49.9707C29.1629 49.9707 28.9497 49.625 28.7639 49.3068C28.4257 48.7167 28.2005 48.0687 28.1001 47.396C27.9402 46.5996 27.8352 45.8033 27.8869 44.9811V44.6096C27.8504 44.5304 27.453 7.98794 27.6113 7.80066Z" fill="#599636"/>
<path d="M27.6111 7.71998C27.5578 7.6134 27.5045 7.6941 27.4512 7.74587C27.4771 8.27878 27.2914 8.75383 27.0006 9.20757C26.6808 9.65826 26.2575 10.0039 25.8327 10.3754C23.4727 12.4187 21.6151 14.8869 20.1275 17.6474C18.1481 21.3625 17.128 25.3441 16.8387 29.5358C16.7062 31.0478 17.3168 36.383 17.7934 37.9223C19.0937 42.009 21.4293 45.4333 24.4548 48.4055C25.1978 49.1211 25.9926 49.7849 26.8148 50.4229C27.0538 50.4229 27.0797 50.2097 27.1345 50.0514C27.2393 49.7126 27.3192 49.3665 27.3736 49.016L27.9065 45.0359L27.6111 7.71998Z" fill="#6CAC48"/>
<path d="M28.913 51.5877C28.9663 50.9787 29.2587 50.4732 29.5769 49.9692C29.2571 49.8367 29.0196 49.5733 28.8339 49.2794C28.6737 49.0012 28.5411 48.708 28.438 48.4039C28.0665 47.2894 27.9873 46.12 27.8807 44.9811V44.2914C27.7482 44.398 27.7208 45.2993 27.7208 45.4333C27.6434 46.6371 27.4836 47.8341 27.2427 49.016C27.1636 49.4941 27.1103 49.9707 26.8164 50.3955C26.8164 50.4488 26.8164 50.5021 26.8423 50.5813C27.3204 51.9881 27.4513 53.4209 27.532 54.8811V55.414C27.532 56.0504 27.5061 55.9165 28.0345 56.1296C28.2477 56.2088 28.4852 56.2362 28.6983 56.3946C28.8582 56.3946 28.8841 56.2621 28.8841 56.1555L28.8049 55.28V52.8378C28.779 52.4114 28.8582 51.9881 28.9115 51.5892L28.913 51.5877Z" fill="#C2BFBF"/>
</svg>
