<svg width="202" height="30" viewBox="0 0 202 30" fill="none" xmlns="http://www.w3.org/2000/svg">
<g clip-path="url(#clip0_490_4076)">
<path d="M99.9581 3.91296L92.5234 9.96963H97.3787V29.6572L99.9581 27.5798V3.91296Z" fill="#5A29E4"/>
<path d="M102.102 25.8211L109.667 19.6124H104.676V0.375L102.102 2.16718V25.8211Z" fill="#5A29E4"/>
<path d="M195.746 7.44959C196.603 7.89531 197.22 8.27245 197.597 8.58102L200.272 3.48959C198.935 2.66674 197.323 1.92959 195.437 1.27817C193.586 0.626743 191.58 0.301025 189.42 0.301025C187.363 0.301025 185.46 0.643883 183.712 1.32959C181.997 2.01531 180.626 3.02674 179.597 4.36388C178.603 5.70102 178.106 7.36388 178.106 9.35245C178.106 11.5811 178.809 13.2954 180.215 14.4954C181.655 15.6611 183.849 16.6211 186.797 17.3754C189.163 17.9925 191.066 18.5582 192.506 19.0725C193.98 19.5525 194.717 20.3582 194.717 21.4896C194.717 23.1696 193.14 24.0096 189.986 24.0096C188.409 24.0096 186.917 23.8211 185.512 23.4439C184.106 23.0668 182.872 22.6039 181.809 22.0554C180.78 21.5068 180.043 21.0096 179.597 20.5639L176.82 25.9639C178.603 27.0954 180.643 27.9868 182.94 28.6382C185.237 29.2896 187.552 29.6154 189.883 29.6154C191.906 29.6154 193.792 29.3411 195.54 28.7925C197.289 28.2096 198.695 27.2839 199.757 26.0154C200.855 24.7125 201.403 22.9981 201.403 20.8724C201.403 19.1238 200.992 17.7182 200.169 16.6554C199.38 15.5582 198.232 14.6839 196.723 14.0325C195.249 13.3811 193.5 12.7982 191.477 12.2839C189.18 11.7354 187.432 11.2382 186.232 10.7925C185.066 10.3467 184.483 9.59245 184.483 8.52959C184.483 6.71245 186.095 5.80388 189.317 5.80388C190.517 5.80388 191.683 5.97531 192.815 6.31817C193.946 6.62674 194.923 7.00388 195.746 7.44959Z" fill="#5A29E4"/>
<path fill-rule="evenodd" clip-rule="evenodd" d="M141.625 29.461C139.362 29.461 137.305 29.0668 135.454 28.2782C133.602 27.4553 132.007 26.3582 130.67 24.9868C129.332 23.581 128.304 22.0039 127.584 20.2553C126.865 18.5068 126.504 16.7068 126.504 14.8553C126.504 12.9696 126.881 11.1525 127.635 9.40385C128.39 7.65527 129.454 6.11243 130.825 4.77528C132.196 3.40385 133.807 2.32385 135.658 1.53528C137.51 0.746707 139.532 0.352417 141.727 0.352417C143.99 0.352417 146.048 0.780992 147.899 1.63813C149.751 2.46099 151.328 3.57528 152.631 4.98099C153.968 6.35242 154.995 7.91242 155.715 9.66099C156.435 11.4096 156.796 13.1924 156.796 15.0095C156.796 16.8952 156.419 18.7125 155.665 20.461C154.911 22.1753 153.847 23.7182 152.475 25.0896C151.138 26.4268 149.545 27.4896 147.694 28.2782C145.842 29.0668 143.819 29.461 141.625 29.461ZM132.778 14.9068C132.778 16.4496 133.139 17.9239 133.859 19.3296C134.578 20.701 135.59 21.8153 136.892 22.6725C138.23 23.5296 139.824 23.9582 141.675 23.9582C143.561 23.9582 145.155 23.5125 146.458 22.621C147.762 21.6953 148.755 20.5468 149.441 19.1752C150.127 17.7695 150.471 16.3296 150.471 14.8553C150.471 13.3125 150.111 11.8552 149.391 10.4838C148.671 9.11242 147.642 8.01528 146.304 7.19242C145.001 6.33528 143.442 5.9067 141.625 5.9067C139.739 5.9067 138.127 6.35242 136.79 7.24385C135.487 8.13528 134.492 9.26671 133.807 10.6381C133.121 12.0096 132.778 13.4325 132.778 14.9068Z" fill="#5A29E4"/>
<path fill-rule="evenodd" clip-rule="evenodd" d="M0 29.2553L12.5486 0.506714H17.64L30.1371 29.2553H23.5543L20.6743 22.5182H9.51429L6.63429 29.2553H0ZM15.12 8.06671L10.9029 17.1182H19.1829L15.12 8.06671Z" fill="#5A29E4"/>
<path d="M54.4526 0.506714L62.3726 10.6896L70.2926 0.506714H77.0298L65.6641 15.061L76.6698 29.2553H69.9326L62.3726 19.4839L54.8641 29.2553H48.0241L59.0812 15.061L47.6641 0.506714H54.4526Z" fill="#5A29E4"/>
</g>
<defs>
<clipPath id="clip0_490_4076">
<rect width="201.429" height="30" fill="white"/>
</clipPath>
</defs>
</svg>
