<svg width="59" height="60" viewBox="0 0 59 60" fill="none" xmlns="http://www.w3.org/2000/svg">
<path d="M43.9614 30V30.0579V30.1352V30.1931V30.251L43.9807 30.3283V30.3862V30.4441L44 30.5214V30.5793L44.0193 30.6372L44.0386 30.7145V30.7724L44.0579 30.8497L44.0772 30.9076L44.0966 30.9848V31.0621L44.1159 31.12L44.1352 31.1972L44.1545 31.2745L44.1738 31.3324L44.2124 31.4097L44.2317 31.4869L44.251 31.5641L44.2703 31.6414L44.2897 31.7186L44.3283 31.7959L44.3476 31.8924L44.3669 31.9697L44.4055 32.0469L44.4248 32.1241L44.4634 32.2207L44.4828 32.2979L44.5214 32.3945L44.5407 32.491L44.5793 32.5876L44.6179 32.6648L44.6372 32.7614L44.6759 32.8579L44.7145 32.9545L44.7338 33.0703L44.7724 33.1669L44.7917 33.2634L44.8303 33.3793L44.869 33.4759L44.8883 33.5917L44.9269 33.7076L44.9655 33.8041L44.9848 33.92L45.0234 34.0359L45.0621 34.1517L45.0814 34.2869L45.12 34.4028L45.1393 34.5186L45.1779 34.6538L45.1972 34.7697L45.2359 34.9048L45.2552 35.04L45.2745 35.1752L45.3131 35.3103L45.3324 35.4455L45.3517 35.5807L45.371 35.7352L45.4097 35.8703L45.429 36.0248L45.4483 36.16L45.4676 36.3145V36.469L45.4869 36.6234L45.5062 36.7779L45.5255 36.9324V37.0869L45.5448 37.2414V37.4152V37.5697L45.5641 37.7434V37.9172V38.0717V38.2455L45.5448 38.4193V38.5931V38.7669L45.5255 38.96V39.1338L45.5062 39.3076L45.4869 39.5007L45.4676 39.6938L45.4483 39.8676L45.429 40.0607L45.4097 40.2538L45.371 40.4469L45.3324 40.6207L45.3131 40.8138L45.2745 41.0262L45.2359 41.2193L45.1972 41.4124L45.1393 41.6055L45.1007 41.7986L45.0428 42.011L44.9848 42.2041L44.9269 42.4166L44.869 42.6097L44.811 42.8221L44.7338 43.0152L44.6759 43.2276L44.5986 43.44L44.5214 43.6331L44.4441 43.8455L44.3669 44.0579L44.2703 44.251L44.1931 44.4634L44.0966 44.6759L44 44.8883L43.9034 45.0814L43.7876 45.2938L43.691 45.5062L43.5752 45.7186L43.4593 45.931L43.3434 46.1241L43.2276 46.3366L43.0924 46.549L42.9766 46.7614L42.8414 46.9545L42.7062 47.1669L42.571 47.3793L42.4166 47.5724L42.2814 47.7848L42.1269 47.9779L41.9724 48.1903L41.8179 48.3834L41.6441 48.5959L41.4897 48.789L41.3159 48.9821L41.1421 49.1752L40.9683 49.3683L40.7945 49.5807L40.6014 49.7545L40.4276 49.9476L40.2345 50.1407L40.0414 50.3338L39.829 50.5076L39.6359 50.7007L39.4234 50.8745L39.211 51.0676L38.9986 51.2414L38.7862 51.4152L38.5738 51.589L38.3421 51.7628L38.1103 51.9172L37.8979 52.091L37.6469 52.2455L37.4152 52.4193L37.1834 52.5738L36.9324 52.7283L36.6814 52.8828L36.4303 53.0372L36.1793 53.1724L35.9283 53.3269L35.6579 53.4621L35.4069 53.5972L35.1366 53.7324L34.8662 53.8676L34.5959 53.9835L34.3255 54.1186L34.0552 54.2345L33.7655 54.3503L33.4759 54.4662L33.2055 54.5628L32.9159 54.6786L32.6262 54.7752L32.3172 54.8717L32.0276 54.9683L31.7379 55.0455L31.429 55.1421L31.12 55.2193L30.8303 55.2966L30.5214 55.3738L30.2124 55.4317L29.9034 55.509L29.5945 55.5669L29.2662 55.6248L28.9572 55.6634L28.629 55.7214L28.32 55.76L27.9917 55.7986L27.6828 55.8372L27.3545 55.8566L27.0262 55.8759L26.6979 55.8952L26.3697 55.9145H26.0414L25.7131 55.9338H25.3848L25.0566 55.9145H24.7283L24.3807 55.8952L24.0524 55.8759L23.7241 55.8566L23.3766 55.8179L23.0483 55.7793L22.72 55.7407L22.3724 55.7021L22.0441 55.6441L21.7159 55.5862L21.3683 55.5283L21.04 55.4703L20.7117 55.3931L20.3834 55.3159L20.0359 55.2386L19.7076 55.1614L19.3793 55.0648L19.051 54.9683L18.7228 54.8717L18.3945 54.7559L18.0662 54.6593L17.7379 54.5434L17.4097 54.4083L17.0814 54.2924L16.7531 54.1572L16.4441 54.0221L16.1159 53.8869L15.8069 53.7324L15.4786 53.5779L15.1697 53.4234L14.8607 53.269L14.5517 53.0952L14.2428 52.9214L13.9338 52.7476L13.6248 52.5738L13.3159 52.3807L13.0262 52.1876L12.7172 51.9945L12.4276 51.8014L12.1379 51.589L11.8483 51.3959L11.5586 51.1834L11.2883 50.9517L10.9986 50.7393L10.7283 50.5076L10.4579 50.2759L10.1876 50.0441L9.91724 49.8124L9.6469 49.5614L9.39586 49.3103L9.12552 49.0593L8.87448 48.8083L8.62345 48.5572L8.39172 48.2869L8.14069 48.0166L7.90897 47.7462L7.67724 47.4759L7.44552 47.2055L7.21379 46.9159L7.00138 46.6455L6.76965 46.3559L6.55724 46.0662L6.34483 45.7572L6.15172 45.4676L5.95862 45.1586L5.74621 44.869L5.5531 44.56L5.37931 44.251L5.18621 43.9421L5.01241 43.6138L4.83862 43.3048L4.68414 42.9766L4.51034 42.6676L4.35586 42.3393L4.20138 42.011L4.0469 41.6828L3.91172 41.3545L3.77655 41.0262L3.64138 40.6786L3.50621 40.3503L3.39034 40.0028L3.27448 39.6745L3.15862 39.3269L3.04276 38.9793L2.94621 38.6317L2.84966 38.2841L2.7531 37.9366L2.67586 37.589L2.57931 37.2414L2.52138 36.8938L2.44414 36.5462L2.3669 36.1986L2.30897 35.851L2.25103 35.4841L2.21241 35.1366L2.17379 34.789L2.13517 34.4221L2.09655 34.0745L2.05793 33.7269L2.03862 33.36L2.01931 33.0124V32.6648L2 32.2979V31.9503V31.6028L2.01931 31.2359V30.8883L2.03862 30.5407L2.07724 30.1931L2.09655 29.8455L2.13517 29.4979L2.17379 29.1503L2.21241 28.8028L2.27034 28.4552L2.32828 28.1076L2.38621 27.76L2.44414 27.4317L2.52138 27.0841L2.59862 26.7559L2.67586 26.4083L2.7531 26.08L2.84966 25.7517L2.94621 25.4234L3.04276 25.0952L3.13931 24.7669L3.25517 24.4386L3.35172 24.1103L3.46759 23.8014L3.60276 23.4924L3.71862 23.1641L3.85379 22.8552L3.98897 22.5462L4.12414 22.2372L4.25931 21.9476L4.41379 21.6386L4.56828 21.349L4.72276 21.04L4.87724 20.7503L5.05103 20.4607L5.20552 20.1903L5.37931 19.9007L5.5531 19.6303L5.7269 19.3407L5.90069 19.0703L6.09379 18.8L6.2869 18.549L6.48 18.2786L6.6731 18.0276L6.86621 17.7766L7.05931 17.5255L7.27172 17.2745L7.48414 17.0234L7.67724 16.7917L7.88966 16.56L8.12138 16.3283L8.33379 16.0966L8.54621 15.8648L8.77793 15.6524L8.99034 15.44L9.22207 15.2276L9.45379 15.0152L9.68552 14.8028L9.91724 14.6097L10.149 14.4166L10.4 14.2234L10.6317 14.0303L10.8828 13.8566L11.1145 13.6828L11.3655 13.509L11.6166 13.3352L11.8676 13.1614L12.0993 13.0069L12.3503 12.8524L12.6014 12.6979L12.8717 12.5434L13.1228 12.4083L13.3738 12.2538L13.6248 12.1186L13.8759 12.0028L14.1462 11.8676L14.3972 11.7517L14.6483 11.6166L14.9186 11.5007L15.1697 11.4041L15.44 11.2883L15.691 11.1917L15.9614 11.0952L16.2124 10.9986L16.4828 10.9021L16.7338 10.8248L16.9848 10.7476L17.2552 10.6703L17.5062 10.5931L17.7766 10.5159L18.0276 10.4579L18.2786 10.4L18.549 10.3421L18.8 10.2841L19.051 10.2262L19.3214 10.1876L19.5724 10.149L19.8234 10.1103L20.0745 10.0717L20.3255 10.0331L20.5766 10.0138L20.8276 9.99448L21.0786 9.97517L21.3297 9.95586L21.5614 9.93655H21.8124L22.0634 9.91724H22.2952H22.5462L22.7779 9.93655H23.0097H23.2414L23.4731 9.95586L23.7048 9.97517L23.9366 9.99448L24.1683 10.0138L24.4 10.0331L24.6124 10.0717L24.8441 10.091L25.0566 10.1297L25.2883 10.1683L25.5007 10.2069L25.7131 10.2455L25.9255 10.2841L26.1379 10.3421L26.331 10.3807L26.5434 10.4386L26.7366 10.4772L26.949 10.5352L27.1421 10.5931L27.3352 10.651L27.5283 10.709L27.7214 10.7862L27.9145 10.8441L28.0883 10.9021L28.2814 10.9793L28.4552 11.0372L28.629 11.1145L28.8028 11.1917L28.9766 11.269L29.1503 11.3462L29.3241 11.4234L29.4979 11.5007L29.6524 11.5779L29.8069 11.6552L29.9807 11.7324L30.1352 11.8097L30.2897 11.9062L30.4248 11.9834L30.5793 12.0607L30.7338 12.1572L30.869 12.2345L31.0041 12.331L31.1586 12.4083L31.2938 12.5048L31.4097 12.6014L31.5448 12.6786L31.68 12.7752L31.7959 12.8524L31.931 12.949L32.0469 13.0455L32.1628 13.1228L32.2786 13.2193L32.3945 13.3159L32.5103 13.3931L32.6262 13.4897L32.7228 13.5862L32.8386 13.6634L32.9352 13.76L33.051 13.8566L33.1476 13.9338L33.2441 14.0303L33.3407 14.1269L33.4372 14.2041L33.5145 14.3007L33.611 14.3779L33.7076 14.4745L33.7848 14.5517L33.8621 14.629L33.9586 14.7255L34.0359 14.8028L34.1131 14.88L34.1903 14.9766L34.2676 15.0538L34.3448 15.131L34.4221 15.2083L34.48 15.2855L34.5572 15.3628L34.6152 15.44L34.6924 15.5172L34.7503 15.5945L34.8276 15.6524L34.8855 15.7297L34.9434 15.8069L35.0014 15.8648L35.0786 15.9421L35.1366 16.0193L35.1945 16.0772L35.2524 16.1352L35.3103 16.2124L35.3683 16.2703L35.4262 16.3283L35.4648 16.3862L35.5228 16.4441L35.5807 16.5021L35.6386 16.56L35.6966 16.6179L35.7352 16.6759L35.7931 16.7338L35.851 16.7724L35.909 16.8303L35.9476 16.869L36.0055 16.9269L36.0634 16.9655L36.1021 17.0234L36.16 17.0621L36.2179 17.1007L36.2566 17.1393L36.3145 17.1779L36.3724 17.2166L36.411 17.2552L36.469 17.2938L36.5269 17.3324L36.5848 17.371L36.6234 17.4097L36.6814 17.429L36.7393 17.4676L36.7972 17.5062L36.8552 17.5255L36.9131 17.5641L36.971 17.5834L37.029 17.6221L37.0869 17.6414L37.1448 17.6607L37.2028 17.6993L37.2607 17.7186L37.3379 17.7379L37.3959 17.7572L37.4538 17.7766L37.531 17.8152L37.589 17.8345L37.6662 17.8538L37.7241 17.8731L37.8014 17.8924L37.8786 17.9117L37.9559 17.931L38.0138 17.9503L38.091 17.9697L38.1683 17.989L38.2455 18.0083H38.3228L38.4193 18.0276L38.4966 18.0469L38.5738 18.0662L38.6703 18.0855L38.7476 18.1048L38.8441 18.1241L38.9214 18.1434L39.0179 18.1628L39.1145 18.1821L39.211 18.2014L39.3076 18.2207L39.4041 18.24L39.5007 18.2593L39.5972 18.2786L39.6938 18.2979L39.8097 18.3172L39.9062 18.3559L40.0221 18.3752L40.1186 18.3945L40.2345 18.4331L40.331 18.4524L40.4469 18.4717L40.5628 18.5103L40.6786 18.549L40.7945 18.5683L40.9103 18.6069L41.0455 18.6455L41.1614 18.6648L41.2772 18.7034L41.4124 18.7421L41.5283 18.7807L41.6634 18.8386L41.7793 18.8772L41.9145 18.9159L42.0497 18.9738L42.1848 19.0124L42.3007 19.0703L42.4359 19.109L42.571 19.1669L42.7062 19.2248L42.8607 19.2828L42.9959 19.3407L43.131 19.3986L43.2662 19.4759L43.4207 19.5338L43.5559 19.611L43.691 19.669L43.8455 19.7462L43.9807 19.8234L44.1352 19.9007L44.2897 19.9779L44.4248 20.0552L44.5793 20.1517L44.7145 20.229L44.869 20.3255L45.0234 20.4221L45.1779 20.5186L45.3131 20.6152L45.4676 20.7117L45.6221 20.8276L45.7766 20.9241L45.931 21.04L46.0662 21.1559L46.2207 21.2717L46.3752 21.3876L46.5297 21.5034L46.6841 21.6193L46.8193 21.7545L46.9738 21.8897L47.1283 22.0248L47.2828 22.16L47.4179 22.2952L47.5724 22.4303L47.7269 22.5848L47.8621 22.7393L48.0166 22.8745L48.1517 23.029L48.3062 23.2028L48.4414 23.3572L48.5959 23.5117L48.731 23.6855L48.8662 23.8593L49.0014 24.0331L49.1366 24.2069L49.2717 24.3807L49.4069 24.5738L49.5421 24.7476L49.6772 24.9407L49.8124 25.1338L49.9476 25.3269L50.0634 25.52L50.1986 25.7324L50.3145 25.9255L50.4303 26.1379L50.5462 26.3503L50.6621 26.5628L50.7779 26.7752L50.8938 26.9876L51.0097 27.2193L51.1062 27.451L51.2221 27.6634L51.3186 27.8952L51.4152 28.1269L51.5117 28.3779L51.6083 28.6097L51.7048 28.8414L51.7821 29.0924L51.8786 29.3434L51.9559 29.5945L52.0331 29.8455L52.1103 30.0966L52.1876 30.3476L52.2648 30.5986L52.3228 30.869L52.3807 31.1393L52.4386 31.3903L52.4966 31.6607L52.5545 31.931L52.6124 32.2014L52.651 32.4717L52.6897 32.7614L52.7283 33.0317L52.7669 33.3021L52.8055 33.5917L52.8248 33.8814L52.8441 34.1517L52.8634 34.4414L52.8828 34.731L52.9021 35.0207V35.3103V35.6V35.8897V36.1986L52.8828 36.4883L52.8634 36.7779L52.8441 37.0869L52.8248 37.3766L52.8055 37.6855L52.7669 37.9752L52.7283 38.2841L52.6897 38.5738L52.651 38.8828L52.5931 39.1917L52.5352 39.4814L52.4772 39.7903L52.4193 40.0993L52.3421 40.389L52.2648 40.6979L52.1876 41.0069L52.1103 41.2966L52.0331 41.6055L51.9365 41.9145L51.84 42.2041L51.7434 42.5131L51.6276 42.8028L51.5117 43.1117L51.3959 43.4014L51.28 43.7103L51.1641 44L51.029 44.309L50.8938 44.5986L50.7586 44.8883L50.6041 45.1779L50.4497 45.4676L50.3145 45.7572L50.1407 46.0469L49.9862 46.3366L49.8124 46.6262L49.6386 46.9159L49.4648 47.1862L49.291 47.4759L49.0979 47.7462L48.9048 48.0166L48.7117 48.3062L48.5186 48.5766L48.3062 48.8276L48.1131 49.0979L47.9007 49.3683L47.669 49.6193L47.4566 49.8897L47.2248 50.1407L46.9931 50.3917L46.7614 50.6428L46.5297 50.8938L46.2786 51.1448L46.0276 51.3766L45.7959 51.6083L45.5255 51.84L45.2745 52.0717L45.0041 52.3034L44.7531 52.5352L44.4828 52.7476L44.2124 52.96L43.9228 53.1724L43.6524 53.3848L43.3628 53.5972L43.0731 53.7903L42.7834 53.9835L42.4938 54.1766L42.1848 54.3697L41.8952 54.5628L41.5862 54.7366L41.2772 54.9103L40.9683 55.0841L40.6593 55.2579L40.3503 55.4124L40.0221 55.5669L39.7131 55.7214L39.3848 55.8759L39.0566 56.011L38.7283 56.1655L38.4 56.2814L38.0717 56.4165L37.7241 56.5517L37.3959 56.6676L37.0483 56.7835L36.72 56.8993L36.3724 56.9959L36.0248 57.0924L35.6772 57.189L35.3297 57.2855L34.9821 57.3628L34.6345 57.44L34.2869 57.5172L33.92 57.5945L33.5724 57.6524L33.2248 57.7103L32.8579 57.7683L32.5103 57.8069L32.1434 57.8455L31.7766 57.8841L31.429 57.9228L31.0621 57.9421L30.7145 57.9614L30.3476 57.9807L29.9807 58H29.6138H29.2662H28.8993L28.5324 57.9807L28.1848 57.9614L27.8179 57.9421L27.451 57.9228L27.1034 57.8841L26.7366 57.8455L26.389 57.8069L26.0221 57.749L25.6745 57.691L25.3076 57.6331L24.96 57.5752L24.6124 57.4979L24.2455 57.4207L23.8979 57.3434L23.5503 57.2662L23.2028 57.1697L22.8552 57.0731L22.5076 56.9766L22.1793 56.8607L21.8317 56.7641L21.5034 56.6483L21.1559 56.5131L20.8276 56.3972L20.4993 56.2621L20.1517 56.1269L19.8428 55.9917L19.5145 55.8372L19.1862 55.7021L18.8579 55.5476L18.549 55.3738L18.24 55.2193L17.9117 55.0455L17.6028 54.8717L17.3131 54.6979L17.0041 54.5241L16.6952 54.331L16.4055 54.1379L16.1159 53.9448L15.8262 53.7517L15.5366 53.5586L15.2469 53.3462L14.9766 53.1338L14.7062 52.9214L14.4166 52.709L14.1655 52.4772L13.8952 52.2648L13.6248 52.0331L13.3738 51.8014L13.1228 51.5697L12.8717 51.3186L12.6207 51.0869L12.389 50.8359L12.1379 50.5848L11.9062 50.3531L11.6745 50.0828L11.4621 49.8317L11.2303 49.5807L11.0179 49.3103L10.8055 49.04L10.6124 48.789L10.4 48.5186L10.2069 48.2483L10.0138 47.9586L9.82069 47.6883L9.62759 47.4179L9.45379 47.1283L9.28 46.8579L9.10621 46.5683L8.93241 46.2786L8.77793 45.989L8.62345 45.6993L8.46897 45.4097L8.31448 45.12L8.17931 44.8303L8.04414 44.5407L7.90897 44.2317L7.77379 43.9421L7.65793 43.6524L7.52276 43.3434L7.42621 43.0538L7.31034 42.7448L7.19448 42.4552L7.09793 42.1462L7.00138 41.8372L6.90483 41.5476L6.82759 41.2386L6.75034 40.9297L6.6731 40.64L6.59586 40.331L6.53793 40.0221L6.46069 39.7324L6.40276 39.4234L6.34483 39.1145L6.30621 38.8248L6.26759 38.5159L6.20966 38.2262L6.19034 37.9172L6.15172 37.6276L6.13241 37.3186L6.09379 37.029V36.72L6.07448 36.4303L6.05517 36.1407V35.8317V35.5421V35.2524L6.07448 34.9628V34.6731L6.09379 34.3834L6.1131 34.0938L6.13241 33.8234L6.17103 33.5338L6.19034 33.2634L6.22897 32.9738L6.26759 32.7034L6.30621 32.4138L6.36414 32.1434L6.40276 31.8731L6.46069 31.6028L6.51862 31.3324L6.57655 31.0814L6.65379 30.811L6.71172 30.56L6.78897 30.2897L6.86621 30.0386L6.94345 29.7876L7.02069 29.5366L7.09793 29.2855L7.19448 29.0345L7.27172 28.8028L7.36828 28.5517L7.46483 28.32L7.56138 28.0883L7.65793 27.8566L7.75448 27.6248L7.87034 27.3931L7.9669 27.1807L8.08276 26.949L8.19862 26.7366L8.31448 26.5241L8.43034 26.3117L8.54621 26.0993L8.66207 25.8869L8.79724 25.6938L8.9131 25.4814L9.04828 25.2883L9.18345 25.0952L9.29931 24.9021L9.43448 24.709L9.56966 24.5352L9.70483 24.3421L9.84 24.1683L9.97517 23.9945L10.1103 23.8207L10.2648 23.6469L10.4 23.4924L10.5352 23.3186L10.6897 23.1641L10.8248 23.0097L10.9793 22.8552L11.1145 22.7007L11.269 22.5462L11.4234 22.411L11.5586 22.2566L11.7131 22.1214L11.8676 21.9862L12.0028 21.851L12.1572 21.7352L12.3117 21.6L12.4662 21.4841L12.6207 21.3683L12.7559 21.2331L12.9103 21.1172L13.0648 21.0207L13.2193 20.9048L13.3738 20.8083L13.509 20.6924L13.6634 20.5959L13.8179 20.4993L13.9724 20.4028L14.1076 20.3062L14.2621 20.2097L14.4166 20.1324L14.5517 20.0552L14.7062 19.9586L14.8607 19.8814L14.9959 19.8041L15.1503 19.7269L15.2855 19.6497L15.44 19.5917L15.5752 19.5145L15.7103 19.4566L15.8648 19.3986L16 19.3214L16.1352 19.2634L16.2703 19.2055L16.4055 19.1669L16.5407 19.109L16.6759 19.051L16.811 19.0124L16.9462 18.9545L17.0621 18.9159L17.1972 18.8579L17.3324 18.8193L17.4483 18.7807L17.5834 18.7421L17.6993 18.7034L17.8152 18.6648L17.9503 18.6262L18.0662 18.6069L18.1821 18.5683L18.2979 18.5297L18.4138 18.5103L18.5297 18.4717L18.6455 18.4524L18.7421 18.4138L18.8579 18.3945L18.9738 18.3752L19.0703 18.3366L19.1862 18.3172L19.2828 18.2979L19.3793 18.2786L19.4759 18.2593L19.5724 18.24L19.669 18.2207L19.7655 18.2014L19.8621 18.1821L19.9586 18.1628L20.0552 18.1434L20.1324 18.1241L20.229 18.1048L20.3062 18.0855L20.4028 18.0662L20.48 18.0469L20.5572 18.0276L20.6345 18.0083L20.7117 17.989L20.8083 17.9697L20.8662 17.9503H20.9434L21.0207 17.931L21.0979 17.9117L21.1752 17.8924L21.2331 17.8731L21.3103 17.8538L21.3683 17.8152L21.4455 17.7959L21.5034 17.7766L21.5807 17.7572L21.6386 17.7379L21.6966 17.7186L21.7545 17.68L21.8317 17.6607L21.8897 17.6414L21.9476 17.6028L22.0055 17.5834L22.0634 17.5641L22.1214 17.5255L22.1793 17.4869L22.2179 17.4676L22.2759 17.429L22.3338 17.3903L22.3917 17.371L22.4497 17.3324L22.4883 17.2938L22.5462 17.2552L22.6041 17.2166L22.6621 17.1779L22.7007 17.1393L22.7586 17.1007L22.8166 17.0428L22.8552 17.0041L22.9131 16.9655L22.971 16.9076L23.0097 16.869L23.0676 16.811L23.1255 16.7724L23.1641 16.7145L23.2221 16.6566L23.28 16.5986L23.3379 16.56L23.3766 16.5021L23.4345 16.4441L23.4924 16.3862L23.5503 16.309L23.6083 16.251L23.6662 16.1931L23.7241 16.1352L23.7821 16.0579L23.84 16L23.8979 15.9228L23.9559 15.8648L24.0138 15.7876L24.091 15.7103L24.149 15.6524L24.2069 15.5752L24.2841 15.4979L24.3421 15.4207L24.4193 15.3434L24.4966 15.2662L24.5545 15.189L24.6317 15.1117L24.709 15.0345L24.7862 14.9572L24.8634 14.8607L24.9407 14.7834L25.0179 14.7062L25.1145 14.6097L25.1917 14.5324L25.269 14.4552L25.3655 14.3586L25.4621 14.2814L25.5393 14.1848L25.6359 14.1076L25.7324 14.011L25.829 13.9145L25.9255 13.8372L26.0414 13.7407L26.1379 13.6634L26.2538 13.5669L26.3503 13.4703L26.4662 13.3931L26.5821 13.2966L26.6979 13.2L26.8138 13.1228L26.9297 13.0262L27.0455 12.9297L27.1807 12.8524L27.2966 12.7559L27.4317 12.6593L27.5669 12.5821L27.7021 12.4855L27.8372 12.389L27.9724 12.3117L28.1076 12.2152L28.2621 12.1379L28.3972 12.0607L28.5517 11.9641L28.7062 11.8869L28.8607 11.7903L29.0152 11.7131L29.1697 11.6359L29.3434 11.5586L29.4979 11.4814L29.6717 11.4041L29.8455 11.3269L30 11.2497L30.1738 11.1724L30.3669 11.0952L30.5407 11.0372L30.7145 10.96L30.9076 10.9021L31.0814 10.8248L31.2745 10.7669L31.4676 10.709L31.6607 10.651L31.8538 10.5931L32.0469 10.5352L32.2593 10.4772L32.4524 10.4193L32.6648 10.3807L32.8772 10.3228L33.0897 10.2841L33.2828 10.2455L33.5145 10.1876L33.7269 10.149L33.9393 10.1297L34.1517 10.091L34.3834 10.0524L34.6152 10.0331L34.8276 10.0138L35.0593 9.99448L35.291 9.97517L35.5228 9.95586L35.7545 9.93655H35.9862L36.2372 9.91724H36.469H36.7007L36.9517 9.93655H37.2028H37.4345L37.6855 9.95586L37.9366 9.97517L38.1876 9.99448L38.4386 10.0138L38.6897 10.0524L38.9407 10.0717L39.1917 10.1103L39.4428 10.149L39.6938 10.1876L39.9448 10.2455L40.2152 10.2841L40.4662 10.3421L40.7172 10.4L40.9876 10.4772L41.2386 10.5352L41.4897 10.6124L41.76 10.6703L42.011 10.7476L42.2814 10.8441L42.5324 10.9214L42.8028 11.0179L43.0538 11.1145L43.3241 11.211L43.5752 11.3076L43.8455 11.4234L44.0966 11.5393L44.3476 11.6552L44.6179 11.771L44.869 11.8869L45.12 12.0221L45.3903 12.1572L45.6414 12.2924L45.8924 12.4276L46.1434 12.5821L46.3945 12.7172L46.6455 12.8717L46.8966 13.0455L47.1476 13.2L47.3986 13.3738L47.6497 13.5476L47.8814 13.7214L48.1324 13.8952L48.3641 14.069L48.6152 14.2621L48.8469 14.4552L49.0786 14.6483L49.3103 14.8607L49.5421 15.0538L49.7738 15.2662L50.0055 15.4786L50.2372 15.691L50.4497 15.9228L50.6621 16.1352L50.8938 16.3669L51.1062 16.5986L51.3186 16.8303L51.531 17.0814L51.7241 17.3131L51.9365 17.5641L52.1297 17.8152L52.3228 18.0662L52.5159 18.3366L52.709 18.5876L52.9021 18.8579L53.0759 19.1283L53.269 19.3986L53.4428 19.6883L53.6165 19.9586L53.7903 20.2483L53.9448 20.5186L54.1186 20.8083L54.2731 21.1172L54.4276 21.4069L54.5628 21.6966L54.7172 22.0055L54.8524 22.3145L55.0069 22.6041L55.1228 22.9131L55.2579 23.2414L55.3931 23.5503L55.509 23.8593L55.6248 24.1876L55.7407 24.5159L55.8372 24.8248L55.9338 25.1531L56.0303 25.4814L56.1269 25.8097L56.2234 26.1572L56.3007 26.4855L56.3779 26.8138L56.4552 27.1614L56.5324 27.4897L56.5903 27.8372L56.6483 28.1848L56.7062 28.5324L56.7448 28.8607L56.7834 29.2083L56.8221 29.5559L56.8607 29.9034L56.8993 30.2703L56.9186 30.6179L56.9379 30.9655V31.3131L56.9572 31.6607V32.0276V32.3752L56.9379 32.7228V33.0897L56.9186 33.4372L56.88 33.7848L56.8607 34.1517L56.8221 34.4993L56.7834 34.8469L56.7448 35.2138L56.6869 35.5614L56.629 35.909L56.571 36.2759L56.4938 36.6234L56.4359 36.971L56.3586 37.3186L56.2621 37.6662L56.1848 38.0138L56.0883 38.3614L55.9917 38.709L55.8952 39.0566L55.7793 39.4041L55.6634 39.7324L55.5476 40.08L55.4124 40.4083L55.2966 40.7559L55.1614 41.0841L55.0262 41.4124L54.8717 41.76L54.7172 42.0883L54.5628 42.3972L54.4083 42.7255L54.2538 43.0538L54.08 43.3628L53.9062 43.691L53.7324 44L53.5393 44.309L53.3655 44.6179L53.1724 44.9269L52.96 45.2359L52.7669 45.5255L52.5545 45.8345L52.3421 46.1241L52.1297 46.4138L51.9172 46.7034L51.7048 46.9738L51.4731 47.2634L51.2414 47.5338L51.0097 47.8041L50.7586 48.0745L50.5269 48.3448L50.2759 48.6152L50.0248 48.8662L49.7738 49.1172L49.5228 49.3683L49.2524 49.6193L48.9821 49.851L48.7117 50.1021L48.4414 50.3338L48.171 50.5655L47.9007 50.7779L47.611 51.0097L47.3407 51.2221L47.051 51.4345L46.7614 51.6469L46.4717 51.84L46.1628 52.0331L45.8731 52.2262L45.5641 52.4193L45.2745 52.6124L44.9655 52.7862L44.6566 52.96L44.3476 53.1338L44.0386 53.2883L43.7297 53.4621L43.4014 53.6165L43.0924 53.7517L42.7834 53.9062L42.4552 54.0414L42.1269 54.1766L41.8179 54.3117L41.4897 54.4469L41.1614 54.5628L40.8331 54.6786L40.5048 54.7752L40.1766 54.891L39.8483 54.9876L39.52 55.0841L39.1724 55.1807L38.8441 55.2579L38.5159 55.3352L38.1876 55.4124L37.84 55.4897L37.5117 55.5476L37.1834 55.6055L36.8359 55.6634L36.5076 55.7021L36.1793 55.76L35.8317 55.7986L35.5034 55.8372L35.1752 55.8566L34.8276 55.8759L34.4993 55.8952L34.171 55.9145H33.8428L33.5145 55.9338H33.1862L32.8386 55.9145H32.5103L32.2014 55.8952L31.8731 55.8759L31.5448 55.8566L31.2166 55.8179L30.8883 55.7986L30.5793 55.76L30.251 55.7021L29.9421 55.6634L29.6138 55.6055L29.3048 55.5476L28.9959 55.4897L28.6869 55.4317L28.3779 55.3545L28.069 55.2772L27.76 55.2L27.4703 55.1228L27.1614 55.0455L26.8717 54.949L26.5628 54.8524L26.2731 54.7559L25.9834 54.6593L25.6938 54.5434L25.4234 54.4276L25.1338 54.331L24.8634 54.2152L24.5738 54.08L24.3034 53.9641L24.0331 53.829L23.7628 53.6938L23.4924 53.5586L23.2414 53.4234L22.971 53.2883L22.72 53.1531L22.469 52.9986L22.2179 52.8441L21.9669 52.6897L21.7352 52.5352L21.4841 52.3807L21.2524 52.2262L21.0207 52.0524L20.789 51.8979L20.5572 51.7241L20.3448 51.5503L20.1324 51.3766L19.9007 51.2028L19.6883 51.029L19.4952 50.8359L19.2828 50.6621L19.0897 50.4883L18.8772 50.2952L18.6841 50.1021L18.491 49.909L18.3172 49.7159L18.1241 49.5228L17.9503 49.3297L17.7766 49.1366L17.6028 48.9434L17.429 48.7503L17.2745 48.5572L17.1007 48.3448L16.9462 48.1517L16.7917 47.9393L16.6566 47.7462L16.5021 47.5338L16.3669 47.3407L16.2317 47.1283L16.0966 46.9159L15.9614 46.7034L15.8262 46.5103L15.7103 46.2979L15.5945 46.0855L15.4593 45.8731L15.3628 45.68L15.2469 45.4676L15.131 45.2552L15.0345 45.0428L14.9379 44.8303L14.8414 44.6372L14.7448 44.4248L14.6676 44.2124L14.571 44L14.4938 43.8069L14.4166 43.5945L14.3393 43.3821L14.2621 43.189L14.2041 42.9766L14.1269 42.7834L14.069 42.571L14.011 42.3779L13.9531 42.1655L13.8952 41.9724L13.8566 41.76L13.7986 41.5669L13.76 41.3738L13.7214 41.1807L13.6828 40.9876L13.6441 40.7752L13.6055 40.5821L13.5862 40.4083L13.5476 40.2152L13.5283 40.0221L13.509 39.829L13.4897 39.6552L13.4703 39.4621L13.451 39.2883L13.4317 39.0952V38.9214L13.4124 38.7476V38.5545L13.3931 38.3807V38.2069V38.0524V37.8786V37.7048L13.4124 37.5503V37.3766V37.2221L13.4317 37.0483L13.451 36.8938V36.7393L13.4703 36.5848L13.4897 36.4303L13.509 36.2759L13.5283 36.1407L13.5476 35.9862L13.5669 35.8317L13.5862 35.6966L13.6055 35.5614L13.6248 35.4262L13.6634 35.291L13.6828 35.1559L13.7021 35.0207L13.7407 34.8855L13.76 34.7503L13.7986 34.6345L13.8179 34.4993L13.8566 34.3834L13.8759 34.2483L13.9145 34.1324L13.9338 34.0166L13.9724 33.9007L14.011 33.7848L14.0303 33.669L14.069 33.5724L14.1076 33.4566L14.1269 33.36L14.1655 33.2441L14.2041 33.1476L14.2234 33.051L14.2621 32.9352L14.2814 32.8386L14.32 32.7421L14.3586 32.6455L14.3779 32.5683L14.4166 32.4717L14.4359 32.3752L14.4745 32.2979L14.4938 32.2014L14.5324 32.1241L14.5517 32.0276L14.5903 31.9503L14.6097 31.8731L14.6483 31.7766L14.6676 31.6993L14.6869 31.6221L14.7062 31.5448L14.7448 31.4676L14.7641 31.4097L14.7834 31.3324L14.8028 31.2552L14.8221 31.1779L14.8414 31.1007L14.8607 31.0428L14.88 30.9655V30.9076L14.8993 30.8303L14.9186 30.7724L14.9379 30.6952V30.6372L14.9572 30.56V30.5021L14.9766 30.4441V30.3669V30.309L14.9959 30.251V30.1738V30.1159V30.0579V29.9807V29.9228V29.8648V29.7876L14.9766 29.7297V29.6717V29.5945L14.9572 29.5366V29.4786V29.4014L14.9379 29.3434L14.9186 29.2662V29.2083L14.8993 29.131L14.88 29.0731L14.8607 28.9959L14.8414 28.9379L14.8221 28.8607L14.8028 28.7834L14.7834 28.7255L14.7641 28.6483L14.7448 28.571L14.7255 28.4938L14.7062 28.4166L14.6869 28.3393L14.6483 28.2621L14.629 28.1848L14.6097 28.1076L14.571 28.011L14.5517 27.9338L14.5131 27.8566L14.4938 27.76L14.4552 27.6828L14.4359 27.5862L14.3972 27.4897L14.3779 27.3931L14.3393 27.3159L14.3007 27.2193L14.2814 27.1228L14.2428 27.0262L14.2041 26.9103L14.1848 26.8138L14.1462 26.7172L14.1269 26.6014L14.0883 26.5048L14.0497 26.389L14.0303 26.2731L13.9917 26.1572L13.9531 26.0414L13.9338 25.9255L13.8952 25.8097L13.8759 25.6938L13.8372 25.5779L13.7986 25.4428L13.7793 25.3269L13.7407 25.1917L13.7214 25.0566L13.7021 24.9407L13.6634 24.8055L13.6441 24.6703L13.6248 24.5159L13.6055 24.3807L13.5669 24.2455L13.5476 24.091L13.5283 23.9559L13.509 23.8014L13.4897 23.6662L13.4703 23.5117V23.3572L13.451 23.2028L13.4317 23.0483V22.8745L13.4124 22.72V22.5462V22.3917L13.3931 22.2179V22.0634V21.8897V21.7159L13.4124 21.5421V21.3683V21.1945L13.4317 21.0014V20.8276L13.451 20.6538L13.4703 20.4607L13.4897 20.2869L13.509 20.0938L13.5283 19.9007L13.5669 19.7076L13.5862 19.5145L13.6248 19.3214L13.6634 19.1283L13.7021 18.9352L13.7407 18.7421L13.7793 18.549L13.8179 18.3559L13.8759 18.1434L13.9338 17.9503L13.9724 17.7572L14.0303 17.5448L14.0883 17.3517L14.1655 17.1393L14.2234 16.9462L14.3007 16.7338L14.3779 16.5214L14.4552 16.3283L14.5324 16.1159L14.6097 15.9034L14.7062 15.691L14.7834 15.4979L14.88 15.2855L14.9766 15.0731L15.0731 14.8607L15.189 14.6676L15.2855 14.4552L15.4014 14.2428L15.5172 14.0303L15.6331 13.8179L15.749 13.6248L15.8841 13.4124L16.0193 13.2L16.1352 12.9876L16.2703 12.7945L16.4248 12.5821L16.56 12.389L16.7145 12.1766L16.869 11.9641L17.0234 11.771L17.1779 11.5779L17.3324 11.3655L17.5062 11.1724L17.68 10.9793L17.8538 10.7862L18.0276 10.5738L18.2014 10.3807L18.3945 10.1876L18.5683 10.0138L18.7614 9.82069L18.9738 9.62759L19.1669 9.45379L19.36 9.26069L19.5724 9.0869L19.7848 8.89379L19.9972 8.72L20.2097 8.54621L20.4414 8.37241L20.6538 8.21793L20.8855 8.04414L21.1172 7.87034L21.349 7.71586L21.5807 7.56138L21.8317 7.38759L22.0828 7.2331L22.3145 7.09793L22.5655 6.94345L22.8166 6.78897L23.0869 6.65379L23.3379 6.51862L23.6083 6.38345L23.8786 6.24828L24.149 6.1131L24.4193 5.99724L24.6897 5.86207L24.96 5.74621L25.2497 5.63034L25.5393 5.51448L25.8097 5.41793L26.0993 5.30207L26.389 5.20552L26.6979 5.10897L26.9876 5.01241L27.2772 4.93517L27.5862 4.83862L27.8952 4.76138L28.2041 4.68414L28.4938 4.6069L28.8028 4.54897L29.131 4.49103L29.44 4.4331L29.749 4.37517L30.0579 4.31724L30.3862 4.27862L30.7145 4.24L31.0234 4.20138L31.3517 4.16276L31.68 4.14345L32.0083 4.10483H32.3172L32.6455 4.08552L32.9738 4.06621H33.3214H33.6497L33.9779 4.08552H34.3062L34.6345 4.10483L34.9628 4.12414L35.3103 4.16276L35.6386 4.18207L35.9669 4.22069L36.3145 4.25931L36.6428 4.31724L36.971 4.35586L37.3186 4.41379L37.6469 4.47172L37.9752 4.54897L38.3228 4.6069L38.651 4.68414L38.9793 4.78069L39.3076 4.85793L39.6552 4.95448L39.9834 5.05103L40.3117 5.14759L40.64 5.26345L40.9683 5.37931L41.2966 5.49517L41.6248 5.61103L41.9338 5.74621L42.2621 5.88138L42.5903 6.01655L42.8993 6.15172L43.2276 6.30621L43.5366 6.46069L43.8455 6.61517L44.1738 6.76966L44.4828 6.94345L44.7917 7.11724L45.0814 7.29103L45.3903 7.46483L45.6993 7.65793L45.989 7.85103L46.2979 8.04414L46.5876 8.23724L46.8772 8.44966L47.1669 8.66207L47.4566 8.87448L47.7269 9.0869L48.0166 9.29931L48.2869 9.53103L48.5572 9.76276L48.8276 9.99448L49.0979 10.2455L49.3683 10.4772L49.6193 10.7283L49.8703 10.9793L50.1214 11.2303L50.3724 11.5007L50.6234 11.771L50.8552 12.0221L51.1062 12.2924L51.3379 12.5821L51.5697 12.8524L51.7821 13.1421L52.0138 13.4124L52.2262 13.7021L52.4386 13.9917L52.651 14.3007L52.8441 14.5903L53.0566 14.8993L53.2497 15.189L53.4428 15.4979L53.6165 15.8069L53.7903 16.1352L53.9834 16.4441L54.1572 16.7531L54.3117 17.0814L54.4855 17.4097L54.64 17.7186L54.7945 18.0469L54.9297 18.3752L55.0841 18.7228L55.2193 19.051L55.3545 19.3793L55.4703 19.7269L55.5862 20.0552L55.7021 20.4028L55.8179 20.7503L55.9338 21.0786L56.0303 21.4262L56.1269 21.7738L56.2234 22.1214L56.3007 22.469L56.3779 22.8166L56.4552 23.1641L56.5324 23.531L56.5903 23.8786L56.6483 24.2262L56.7062 24.5738L56.7641 24.9407L56.8028 25.2883L56.8414 25.6359L56.8607 26.0028L56.8993 26.3503L56.9186 26.6979L56.9379 27.0648L56.9572 27.4124V27.76V28.1269V28.4745L56.9379 28.8221L56.9186 29.189L56.8993 29.5366L56.88 29.8841L56.8414 30.2317L56.8221 30.5793L56.7834 30.9269L56.7255 31.2745L56.6869 31.6221L56.629 31.9503L56.571 32.2979L56.4938 32.6455L56.4165 32.9738L56.3586 33.3214L56.2621 33.6497L56.1848 33.9779L56.0883 34.3255L55.9917 34.6538L55.8952 34.9821L55.7986 35.3103L55.6828 35.6193L55.5669 35.9476L55.451 36.2566L55.3352 36.5848L55.2 36.8938L55.0841 37.2028L54.949 37.5117L54.7945 37.8207L54.6593 38.1297L54.5048 38.4193L54.3697 38.709L54.1959 39.0179L54.0414 39.3076L53.8869 39.5972L53.7131 39.8676L53.5393 40.1572L53.3655 40.4276L53.1917 40.7172L53.0179 40.9876L52.8248 41.2386L52.6317 41.509L52.4386 41.7793L52.2455 42.0303L52.0524 42.2814L51.8593 42.5324L51.6469 42.7834L51.4345 43.0152L51.2221 43.2662L51.0097 43.4979L50.7972 43.7297L50.5848 43.9614L50.3531 44.1738L50.1407 44.3862L49.909 44.6179L49.6772 44.811L49.4455 45.0234L49.2138 45.2359L48.9821 45.429L48.7503 45.6221L48.5186 45.8152L48.2676 45.989L48.0359 46.1821L47.7848 46.3559L47.5338 46.5297L47.3021 46.7034L47.051 46.8579L46.8 47.0317L46.549 47.1862L46.2979 47.3407L46.0469 47.4759L45.7959 47.6303L45.5255 47.7655L45.2745 47.9007L45.0234 48.0359L44.7724 48.1517L44.5021 48.2869L44.251 48.4028L43.9807 48.5186L43.7297 48.6152L43.4786 48.731L43.2083 48.8276L42.9572 48.9241L42.6869 49.0207L42.4359 49.1172L42.1655 49.1945L41.9145 49.2717L41.6441 49.349L41.3931 49.4262L41.1421 49.4841L40.8717 49.5614L40.6207 49.6193L40.3503 49.6772L40.0993 49.7352L39.8483 49.7738L39.5972 49.8124L39.3269 49.8703L39.0759 49.909L38.8248 49.9283L38.5738 49.9669L38.3228 49.9862L38.0717 50.0055L37.84 50.0248L37.589 50.0441L37.3379 50.0634H37.0869L36.8552 50.0828H36.6041H36.3724L36.1407 50.0634H35.8897L35.6579 50.0441H35.4262L35.1945 50.0248L34.9628 50.0055L34.7503 49.9862L34.5186 49.9476L34.2869 49.9283L34.0745 49.8897L33.8428 49.8703L33.6303 49.8317L33.4179 49.7931L33.2055 49.7545L32.9931 49.6966L32.7807 49.6579L32.5876 49.6L32.3752 49.5614L32.1821 49.5034L31.9697 49.4455L31.7766 49.3876L31.5834 49.3297L31.3903 49.2717L31.1972 49.2138L31.0041 49.1366L30.8303 49.0786L30.6372 49.0014L30.4634 48.9434L30.2897 48.8662L30.1159 48.789L29.9421 48.731L29.7683 48.6538L29.5945 48.5766L29.44 48.4993L29.2662 48.4028L29.1117 48.3255L28.9572 48.2483L28.8028 48.171L28.6483 48.0745L28.4938 47.9972L28.3393 47.92L28.2041 47.8234L28.0497 47.7462L27.9145 47.6497L27.7793 47.5724L27.6441 47.4759L27.509 47.3986L27.3738 47.3021L27.2579 47.2055L27.1228 47.1283L27.0069 47.0317L26.891 46.9352L26.7559 46.8579L26.64 46.7614L26.5241 46.6648L26.4276 46.5876L26.3117 46.491L26.1959 46.3945L26.0993 46.3172L26.0028 46.2207L25.8869 46.1241L25.7903 46.0469L25.6938 45.9503L25.5972 45.8731L25.5007 45.7766L25.4234 45.68L25.3269 45.6028L25.2497 45.5255L25.1531 45.429L25.0759 45.3517L24.9986 45.2552L24.9021 45.1779L24.8248 45.1007L24.7476 45.0234L24.6703 44.9269L24.6124 44.8497L24.5352 44.7724L24.4579 44.6952L24.3807 44.6179L24.3228 44.5407L24.2455 44.4634L24.1876 44.4055L24.1297 44.3283L24.0524 44.251L23.9945 44.1738L23.9366 44.1159L23.8786 44.0386L23.8207 43.9807L23.7628 43.9034L23.7048 43.8455L23.6469 43.7876L23.589 43.7103L23.531 43.6524L23.4731 43.5945L23.4152 43.5366L23.3572 43.4786L23.3186 43.4207L23.2607 43.3628L23.2028 43.3241L23.1448 43.2662L23.1062 43.2083L23.0483 43.1697L22.9903 43.1117L22.9517 43.0731L22.8938 43.0152L22.8359 42.9766L22.7972 42.9379L22.7393 42.88L22.6814 42.8414L22.6234 42.8028L22.5848 42.7641L22.5269 42.7255L22.469 42.6869L22.4303 42.6483L22.3724 42.629L22.3145 42.5903L22.2566 42.5517L22.1986 42.5324L22.1407 42.4938L22.0828 42.4552L22.0248 42.4359L21.9669 42.3972L21.909 42.3779L21.851 42.3586L21.7931 42.32L21.7352 42.3007L21.6772 42.2814L21.6193 42.2621L21.5421 42.2234L21.4841 42.2041L21.4069 42.1848L21.349 42.1655L21.2717 42.1462L21.2138 42.1269L21.1366 42.1076L21.0593 42.0883L21.0014 42.069L20.9241 42.0497L20.8469 42.0303L20.7697 42.011L20.6924 41.9917L20.6152 41.9724L20.5186 41.9531H20.4414L20.3641 41.9338L20.2676 41.9145L20.1903 41.8952L20.0938 41.8759L20.0166 41.8566L19.92 41.8372L19.8234 41.8179L19.7269 41.7986L19.6303 41.7793L19.5338 41.76L19.4372 41.7407L19.3407 41.7214L19.2441 41.6828L19.1283 41.6634L19.0317 41.6441L18.9159 41.6248L18.8193 41.5862L18.7034 41.5669L18.5876 41.5476L18.491 41.509L18.3752 41.4897L18.2593 41.451L18.1434 41.4124L18.0083 41.3931L17.8924 41.3545L17.7766 41.3159L17.6607 41.2772L17.5255 41.2386L17.4097 41.2L17.2745 41.1614L17.1393 41.1228L17.0234 41.0648L16.8883 41.0262L16.7531 40.9683L16.6179 40.9297L16.4828 40.8717L16.3476 40.8138L16.2124 40.7559L16.0772 40.6979L15.9421 40.64L15.8069 40.5821L15.6524 40.5241L15.5172 40.4469L15.3821 40.389L15.2276 40.3117L15.0924 40.2345L14.9379 40.1572L14.8028 40.08L14.6483 40.0028L14.4938 39.9255L14.3586 39.829L14.2041 39.7517L14.0497 39.6552L13.9145 39.5586L13.76 39.4621L13.6055 39.3655L13.451 39.269L13.2966 39.1531L13.1614 39.0566L13.0069 38.9407L12.8524 38.8248L12.6979 38.709L12.5434 38.5931L12.4083 38.4772L12.2538 38.3421L12.0993 38.2262L11.9448 38.091L11.8097 37.9559L11.6552 37.8207L11.5007 37.6855L11.3655 37.531L11.211 37.3959L11.0566 37.2414L10.9214 37.0869L10.7669 36.9324L10.6317 36.7779L10.4772 36.6041L10.3421 36.4497L10.2069 36.2759L10.0524 36.1021L9.91724 35.9283L9.78207 35.7545L9.6469 35.5807L9.51172 35.3876L9.37655 35.2138L9.24138 35.0207L9.12552 34.8276L8.99034 34.6345L8.87448 34.4414L8.73931 34.229L8.62345 34.0166L8.50759 33.8234L8.39172 33.611L8.25655 33.3986L8.16 33.1862L8.04414 32.9545L7.92828 32.7421L7.83172 32.5103L7.71586 32.2786L7.61931 32.0469L7.52276 31.8152L7.42621 31.5834L7.32965 31.3517L7.2331 31.1007L7.15586 30.8497L7.05931 30.6179L6.98207 30.3669L6.90483 30.1159L6.82759 29.8648L6.75034 29.5945L6.69241 29.3434L6.61517 29.0731L6.55724 28.8221L6.49931 28.5517L6.44138 28.2814L6.38345 28.011L6.34483 27.7407L6.2869 27.4703L6.24828 27.1807L6.20966 26.9103L6.19034 26.64L6.15172 26.3503L6.13241 26.0607L6.1131 25.7903L6.09379 25.5007L6.07448 25.211L6.05517 24.9214V24.6317V24.3421V24.0331V23.7434L6.07448 23.4538L6.09379 23.1641L6.1131 22.8552L6.13241 22.5655L6.17103 22.2566L6.19034 21.9669L6.22897 21.6579L6.26759 21.349L6.32552 21.0593L6.38345 20.7503L6.42207 20.4607L6.49931 20.1517L6.55724 19.8428L6.63448 19.5531L6.69241 19.2441L6.76965 18.9352L6.86621 18.6455L6.94345 18.3366L7.04 18.0276L7.13655 17.7379L7.25241 17.429L7.34897 17.12L7.46483 16.8303L7.58069 16.5214L7.69655 16.2317L7.83172 15.9421L7.9669 15.6331L8.10207 15.3434L8.23724 15.0538L8.37241 14.7641L8.5269 14.4745L8.68138 14.1848L8.83586 13.8952L9.00965 13.6055L9.18345 13.3159L9.35724 13.0262L9.53103 12.7559L9.70483 12.4662L9.89793 12.1959L10.091 11.9255L10.2841 11.6552L10.4772 11.3848L10.6897 11.1145L10.9021 10.8441L11.1145 10.5738L11.3269 10.3228L11.5586 10.0524L11.771 9.80138L12.0028 9.55034L12.2345 9.29931L12.4855 9.06759L12.7172 8.81655L12.9683 8.58483L13.2193 8.33379L13.4703 8.10207L13.7407 7.87034L13.9917 7.65793L14.2621 7.42621L14.5324 7.21379L14.8028 6.98207L15.0924 6.78897L15.3628 6.57655L15.6524 6.36414L15.9421 6.17103L16.2317 5.97793L16.5214 5.78483L16.8303 5.59172L17.12 5.39862L17.429 5.22483L17.7379 5.05103L18.0469 4.87724L18.3559 4.72276L18.6841 4.54897L18.9931 4.39448L19.3214 4.24L19.6497 4.10483L19.9586 3.95034L20.2869 3.81517L20.6345 3.68L20.9628 3.54483L21.291 3.42897L21.6386 3.3131L21.9669 3.19724L22.3145 3.08138L22.6621 2.98483L23.0097 2.88828L23.3572 2.79172L23.7048 2.69517L24.0524 2.61793L24.4 2.54069L24.7476 2.46345L25.0952 2.40552L25.4621 2.32828L25.8097 2.27034L26.1766 2.23172L26.5241 2.17379L26.891 2.13517L27.2386 2.09655L27.6055 2.07724L27.9724 2.03862L28.32 2.01931H28.6869L29.0538 2H29.4014H29.7683H30.1352L30.4828 2.01931L30.8497 2.03862L31.2166 2.05793L31.5641 2.09655L31.931 2.11586L32.2979 2.15448L32.6455 2.21241L33.0124 2.25103L33.36 2.30897L33.7076 2.3669L34.0745 2.44414L34.4221 2.50207L34.7697 2.57931L35.1172 2.67586L35.4648 2.7531L35.8124 2.84966L36.16 2.94621L36.5076 3.04276L36.8552 3.15862L37.2028 3.27448L37.531 3.39034L37.8593 3.50621L38.2069 3.64138L38.5352 3.75724L38.8634 3.89241L39.1917 4.0469L39.52 4.18207L39.829 4.33655L40.1572 4.49103L40.4662 4.64552L40.7945 4.81931L41.1034 4.9931L41.4124 5.1669L41.7214 5.34069L42.011 5.51448L42.32 5.70759L42.6097 5.90069L42.8993 6.09379L43.189 6.2869L43.4786 6.49931L43.7683 6.69241L44.0386 6.90483L44.309 7.11724L44.5793 7.34897L44.8497 7.56138L45.12 7.7931L45.371 8.02483L45.6414 8.25655L45.8924 8.48828L46.1434 8.72L46.3752 8.97103L46.6262 9.20276L46.8579 9.45379L47.0897 9.70483L47.3214 9.95586L47.5338 10.2262L47.7655 10.4772L47.9779 10.7476L48.1903 10.9986L48.4028 11.269L48.5959 11.5393L48.789 11.8097L48.9821 12.08L49.1752 12.3697L49.3683 12.64L49.5421 12.9297L49.7159 13.2L49.8897 13.4897L50.0441 13.7793L50.2179 14.069L50.3724 14.3586L50.5269 14.6483L50.6621 14.9379L50.8166 15.2276L50.9517 15.5172L51.0869 15.8262L51.2028 16.1159L51.3379 16.4055L51.4538 16.7145L51.5697 17.0041L51.6662 17.3131L51.7821 17.6221L51.8786 17.9117L51.9752 18.2207L52.0524 18.5103L52.149 18.8193L52.2262 19.1283L52.3034 19.4179L52.3807 19.7269L52.4386 20.0359L52.4966 20.3255L52.5545 20.6345L52.6124 20.9434L52.6703 21.2331L52.709 21.5421L52.7476 21.851L52.7862 22.1407L52.8055 22.4497L52.8441 22.7393L52.8634 23.0483L52.8828 23.3379V23.6276L52.9021 23.9366V24.2262V24.5159V24.8055L52.8828 25.0952V25.3848L52.8634 25.6745L52.8441 25.9641L52.8055 26.2345L52.7862 26.5241L52.7476 26.7945L52.709 27.0841L52.6703 27.3545L52.6317 27.6248L52.5931 27.9145L52.5352 28.1848L52.4772 28.4359L52.4193 28.7062L52.3614 28.9766L52.3034 29.2469L52.2262 29.4979L52.149 29.749L52.091 30.0193L52.0138 30.2703L51.9172 30.5214L51.84 30.7531L51.7628 31.0041L51.6662 31.2552L51.5697 31.4869L51.4731 31.7186L51.3766 31.9697L51.28 32.2014L51.1641 32.4138L51.0676 32.6455L50.9517 32.8772L50.8552 33.0897L50.7393 33.3021L50.6234 33.5338L50.5076 33.7462L50.3917 33.9393L50.2566 34.1517L50.1407 34.3448L50.0055 34.5572L49.8897 34.7503L49.7545 34.9434L49.6193 35.1366L49.5034 35.3297L49.3683 35.5034L49.2331 35.6966L49.0786 35.8703L48.9434 36.0441L48.8083 36.2179L48.6731 36.3917L48.5379 36.5462L48.3834 36.72L48.2483 36.8745L48.0938 37.029L47.9586 37.1834L47.8041 37.3379L47.6497 37.4731L47.5145 37.6276L47.36 37.7628L47.2055 37.8979L47.0703 38.0331L46.9159 38.1683L46.7614 38.3034L46.6069 38.4193L46.4717 38.5545L46.3172 38.6703L46.1628 38.7862L46.0083 38.9021L45.8538 38.9986L45.7186 39.1145L45.5641 39.2303L45.4097 39.3269L45.2552 39.4234L45.1007 39.52L44.9655 39.6166L44.811 39.7131L44.6566 39.7903L44.5214 39.8869L44.3669 39.9641L44.2124 40.0607L44.0772 40.1379L43.9228 40.2152L43.7876 40.2924L43.6331 40.3503L43.4979 40.4276L43.3628 40.4855L43.2083 40.5628L43.0731 40.6207L42.9379 40.6786L42.8028 40.7366L42.6676 40.7945L42.5324 40.8524L42.3972 40.9103L42.2621 40.949L42.1269 41.0069L41.9917 41.0455L41.8566 41.1034L41.7407 41.1421L41.6055 41.1807L41.4703 41.2193L41.3545 41.2579L41.2386 41.2966L41.1034 41.3352L40.9876 41.3738L40.8717 41.4124L40.7559 41.4317L40.64 41.4703L40.5241 41.509L40.4083 41.5283L40.2924 41.5669L40.1766 41.5862L40.08 41.6055L39.9641 41.6441L39.8676 41.6634L39.7517 41.6828L39.6552 41.7021L39.5586 41.7214L39.4621 41.7407L39.3655 41.76L39.269 41.7986L39.1724 41.8179L39.0759 41.8372H38.9793L38.8828 41.8566L38.8055 41.8759L38.709 41.8952L38.6317 41.9145L38.5352 41.9338L38.4579 41.9531L38.3807 41.9724L38.3034 41.9917L38.2262 42.011L38.149 42.0303L38.0717 42.0497L37.9945 42.069L37.9172 42.0883L37.84 42.1076L37.7821 42.1269L37.7048 42.1462L37.6276 42.1655L37.5697 42.1848L37.4924 42.2041L37.4345 42.2234L37.3766 42.2428L37.2993 42.2621L37.2414 42.3007L37.1834 42.32L37.1255 42.3393L37.0676 42.3779L37.0097 42.3972L36.9517 42.4166L36.8938 42.4552L36.8359 42.4745L36.7779 42.5131L36.72 42.5517L36.6621 42.571L36.6041 42.6097L36.5655 42.6483L36.5076 42.6869L36.4497 42.7062L36.3917 42.7448L36.3531 42.7834L36.2952 42.8221L36.2372 42.88L36.1793 42.9186L36.1407 42.9572L36.0828 42.9959L36.0248 43.0538L35.9862 43.0924L35.9283 43.1503L35.8703 43.189L35.8317 43.2469L35.7738 43.3048L35.7159 43.3434L35.6772 43.4014L35.6193 43.4593L35.5614 43.5172L35.5034 43.5752L35.4455 43.6331L35.3876 43.691L35.349 43.749L35.291 43.8262L35.2331 43.8841L35.1752 43.9421L35.0979 44.0193L35.04 44.0772L34.9821 44.1545L34.9241 44.2317L34.8662 44.2897L34.789 44.3669L34.731 44.4441L34.6538 44.5214L34.5959 44.5986L34.5186 44.6759L34.4607 44.7531L34.3834 44.8303L34.3062 44.9076L34.229 44.9848L34.1517 45.0621L34.0745 45.1393L33.9972 45.2359L33.92 45.3131L33.8428 45.3903L33.7462 45.4869L33.669 45.5641L33.5724 45.6607L33.4759 45.7379L33.3986 45.8345L33.3021 45.9117L33.2055 46.0083L33.109 46.1048L32.9931 46.1821L32.8966 46.2786L32.8 46.3559L32.6841 46.4524L32.5876 46.549L32.4717 46.6262L32.3559 46.7228L32.24 46.8193L32.1241 46.8966L32.0083 46.9931L31.8731 47.0897L31.7572 47.1669L31.6221 47.2634L31.4869 47.36L31.371 47.4372L31.2359 47.5338L31.1007 47.611L30.9462 47.7076L30.811 47.7848L30.6759 47.8814L30.5214 47.9586L30.3669 48.0552L30.2124 48.1324L30.0579 48.2097L29.9034 48.3062L29.749 48.3834L29.5945 48.4607L29.4207 48.5379L29.2469 48.6152L29.0924 48.6924L28.9186 48.7697L28.7448 48.8469L28.571 48.9048L28.3779 48.9821L28.2041 49.0593L28.011 49.1172L27.8372 49.1752L27.6441 49.2524L27.451 49.3103L27.2579 49.3683L27.0648 49.4262L26.8524 49.4841L26.6593 49.5421L26.4662 49.5807L26.2538 49.6386L26.0414 49.6772L25.829 49.7352L25.6166 49.7738L25.4041 49.8124L25.1917 49.851L24.9793 49.8897L24.7476 49.909L24.5352 49.9476L24.3034 49.9669L24.0717 49.9862L23.84 50.0248H23.6276L23.3959 50.0441L23.1448 50.0634H22.9131L22.6814 50.0828H22.4497H22.1986L21.9669 50.0634H21.7159L21.4648 50.0441H21.2138L20.9821 50.0248L20.731 50.0055L20.48 49.9669L20.229 49.9476L19.9779 49.909L19.7269 49.8703L19.4566 49.8317L19.2055 49.7931L18.9545 49.7545L18.7034 49.6966L18.4331 49.6386L18.1821 49.5807L17.931 49.5228L17.6607 49.4455L17.4097 49.3876L17.1393 49.3103L16.8883 49.2331L16.6179 49.1366L16.3669 49.0593L16.1159 48.9628L15.8455 48.8662L15.5945 48.7697L15.3241 48.6731L15.0731 48.5572L14.8028 48.4414L14.5517 48.3255L14.3007 48.2097L14.0303 48.0745L13.7793 47.9586L13.5283 47.8234L13.2579 47.6883L13.0069 47.5338L12.7559 47.3986L12.5048 47.2441L12.2538 47.0897L12.0028 46.9352L11.7517 46.7614L11.5007 46.6069L11.269 46.4331L11.0179 46.2593L10.7862 46.0662L10.5352 45.8924L10.3034 45.6993L10.0524 45.5062L9.82069 45.3131L9.58897 45.1007L9.35724 44.9076L9.12552 44.6952L8.9131 44.4828L8.68138 44.251L8.46897 44.0386L8.23724 43.8069L8.02483 43.5752L7.81241 43.3434L7.6 43.1117L7.38759 42.88L7.19448 42.629L6.98207 42.3779L6.78897 42.1269L6.59586 41.8759L6.40276 41.6055L6.20966 41.3545L6.01655 41.0841L5.84276 40.8138L5.64966 40.5434L5.47586 40.2731L5.30207 39.9834L5.14759 39.6938L4.97379 39.4234L4.81931 39.1338L4.66483 38.8248L4.51034 38.5352L4.35586 38.2455L4.20138 37.9366L4.06621 37.6276L3.93103 37.3186L3.79586 37.0097L3.68 36.7007L3.54483 36.3917L3.42897 36.0634L3.3131 35.7545L3.19724 35.4262L3.10069 35.0979L3.00414 34.7697L2.90759 34.4414L2.81103 34.1131L2.71448 33.7848L2.63724 33.4566L2.56 33.109L2.48276 32.7807L2.42483 32.4331L2.3669 32.0855L2.30897 31.7572L2.25103 31.4097L2.1931 31.0621L2.15448 30.7145L2.11586 30.3669L2.09655 30.0193L2.05793 29.6717L2.03862 29.3241L2.01931 28.9572V28.6097L2 28.2621V27.9145V27.5476L2.01931 27.2L2.03862 26.8524L2.05793 26.4855L2.07724 26.1379L2.11586 25.7903L2.13517 25.4234L2.1931 25.0759L2.23172 24.7283L2.28966 24.3614L2.34759 24.0138L2.40552 23.6662L2.46345 23.3186L2.54069 22.9517L2.61793 22.6041L2.71448 22.2566L2.79172 21.909L2.88828 21.5614L2.98483 21.2138L3.10069 20.8855L3.19724 20.5379L3.3131 20.1903L3.42897 19.8621L3.56414 19.5145L3.69931 19.1862L3.83448 18.8386L3.96966 18.5103L4.10483 18.1821L4.25931 17.8538L4.41379 17.5255L4.58759 17.1972L4.74207 16.8883L4.91586 16.56L5.08966 16.251L5.26345 15.9421L5.45655 15.6331L5.63034 15.3241L5.82345 15.0152L6.03586 14.7062L6.22897 14.4166L6.44138 14.1076L6.65379 13.8179L6.86621 13.5283L7.07862 13.2386L7.31034 12.9683L7.54207 12.6786L7.77379 12.4083L8.00552 12.1379L8.23724 11.8676L8.48828 11.5972L8.73931 11.3462L8.99034 11.0759L9.24138 10.8248L9.49241 10.5738L9.76276 10.3421L10.0138 10.091L10.2841 9.85931L10.5545 9.62759L10.8441 9.39586L11.1145 9.16414L11.4041 8.95172L11.6745 8.73931L11.9641 8.5269L12.2538 8.31448L12.5434 8.12138L12.8524 7.92828L13.1421 7.73517L13.451 7.54207L13.7407 7.34897L14.0497 7.17517L14.3586 7.00138L14.6676 6.82759L14.9766 6.6731L15.3048 6.51862L15.6138 6.36414L15.9228 6.20966L16.251 6.05517L16.56 5.92L16.8883 5.78483L17.2166 5.66897L17.5448 5.53379L17.8731 5.41793L18.2014 5.30207L18.5297 5.18621L18.8579 5.08966L19.1862 4.9931L19.5145 4.89655L19.8428 4.8L20.171 4.72276L20.5186 4.64552L20.8469 4.56828L21.1752 4.51034L21.5228 4.4331L21.851 4.37517L22.1793 4.33655L22.5269 4.27862L22.8552 4.24L23.1834 4.20138L23.5117 4.16276L23.8593 4.14345L24.1876 4.10483H24.5159L24.8634 4.08552L25.1917 4.06621H25.52H25.8483L26.1766 4.08552H26.5048L26.8331 4.10483L27.1614 4.12414L27.4897 4.14345L27.7986 4.18207L28.1269 4.22069L28.4552 4.25931L28.7641 4.29793L29.0924 4.35586L29.4014 4.39448L29.7103 4.45241L30.0193 4.52966L30.3283 4.58759L30.6372 4.66483L30.9462 4.72276L31.2552 4.81931L31.5641 4.89655L31.8538 4.97379L32.1434 5.07034L32.4524 5.1669L32.7421 5.26345L33.0317 5.36L33.3214 5.47586L33.5917 5.59172L33.8814 5.70759L34.1517 5.82345L34.4414 5.93931L34.7117 6.07448L34.9821 6.19034L35.2524 6.32552L35.5034 6.46069L35.7738 6.59586L36.0248 6.73103L36.2952 6.88552L36.5462 7.04L36.7972 7.17517L37.029 7.32966L37.28 7.48414L37.5117 7.65793L37.7434 7.81241L37.9752 7.9669L38.2069 8.14069L38.4386 8.31448L38.651 8.48828L38.8828 8.66207L39.0952 8.83586L39.3076 9.00965L39.52 9.18345L39.7131 9.37655L39.9255 9.55034L40.1186 9.74345L40.3117 9.93655L40.5048 10.1297L40.6786 10.3228L40.8717 10.5159L41.0455 10.709L41.2193 10.9021L41.3931 11.0952L41.5476 11.2883L41.7214 11.5007L41.8759 11.6938L42.0303 11.8869L42.1848 12.0993L42.3393 12.2924L42.4745 12.5048L42.629 12.7172L42.7641 12.9103L42.8993 13.1228L43.0345 13.3352L43.1503 13.5283L43.2855 13.7407L43.4014 13.9531L43.5172 14.1655L43.6331 14.3779L43.7297 14.571L43.8455 14.7834L43.9421 14.9959L44.0386 15.2083L44.1352 15.4014L44.2317 15.6138L44.309 15.8262L44.4055 16.0386L44.4828 16.2317L44.56 16.4441L44.6372 16.6566L44.6952 16.8497L44.7724 17.0621L44.8303 17.2745L44.8883 17.4676L44.9655 17.68L45.0041 17.8731L45.0621 18.0662L45.12 18.2786L45.1586 18.4717L45.1972 18.6648L45.2552 18.8579L45.2938 19.0703L45.3131 19.2634L45.3517 19.4566L45.3903 19.6303L45.4097 19.8234L45.429 20.0166L45.4676 20.2097L45.4869 20.3834L45.5062 20.5766V20.7503L45.5255 20.9434L45.5448 21.1172V21.291V21.4648L45.5641 21.6386V21.8124V21.9862V22.16L45.5448 22.3338V22.4883V22.6621L45.5255 22.8166V22.971L45.5062 23.1448V23.2993L45.4869 23.4538L45.4676 23.589L45.4483 23.7434L45.429 23.8979L45.4097 24.0524L45.3903 24.1876L45.371 24.3228L45.3517 24.4772L45.3131 24.6124L45.2938 24.7476L45.2745 24.8828L45.2359 25.0179L45.2166 25.1531L45.1972 25.269L45.1586 25.4041L45.1393 25.52L45.1007 25.6552L45.0814 25.771L45.0428 25.8869L45.0041 26.0028L44.9848 26.1186L44.9462 26.2345L44.9076 26.3503L44.8883 26.4469L44.8497 26.5628L44.811 26.6786L44.7917 26.7752L44.7531 26.8717L44.7145 26.9876L44.6952 27.0841L44.6566 27.1807L44.6372 27.2772L44.5986 27.3738L44.56 27.451L44.5407 27.5476L44.5021 27.6441L44.4828 27.7214L44.4441 27.8179L44.4248 27.8952L44.3862 27.9917L44.3669 28.069L44.3476 28.1462L44.309 28.2234L44.2897 28.3007L44.2703 28.3779L44.2317 28.4552L44.2124 28.5324L44.1931 28.6097L44.1738 28.6869L44.1545 28.7641L44.1352 28.8414L44.1159 28.8993L44.0966 28.9766L44.0772 29.0345L44.0579 29.1117V29.189L44.0386 29.2469L44.0193 29.3241V29.3821L44 29.44V29.5172L43.9807 29.5752V29.6331V29.7103L43.9614 29.7683V29.8262V29.9034V29.9614" stroke="#7B61C1" stroke-width="2"/>
</svg>
