<svg width="512" height="512" viewBox="0 0 512 512" fill="none" xmlns="http://www.w3.org/2000/svg">
<g clip-path="url(#clip0_312_305)">
<path fill-rule="evenodd" clip-rule="evenodd" d="M290.58 442.84C231.43 442.84 175.83 419.81 134.01 377.99C92.1901 336.17 69.1602 280.56 69.1602 221.42C69.1602 162.28 92.1901 106.68 134.01 64.85C175.83 23.04 231.43 0 290.58 0C349.72 0 405.32 23.04 447.14 64.85C488.96 106.68 511.99 162.28 511.99 221.42C511.99 280.56 488.96 336.17 447.14 377.99C405.32 419.81 349.72 442.84 290.58 442.84ZM290.58 12C234.64 12 182.05 33.79 142.5 73.34C60.8502 154.99 60.8502 287.85 142.5 369.5C182.05 409.05 234.64 430.84 290.58 430.84C346.52 430.84 399.1 409.05 438.66 369.5C520.31 287.85 520.31 154.99 438.66 73.34C399.1 33.79 346.52 12 290.58 12Z" fill="white"/>
<path fill-rule="evenodd" clip-rule="evenodd" d="M113.479 404.52C111.949 404.52 110.409 403.93 109.239 402.76C106.899 400.42 106.899 396.62 109.239 394.28L134.019 369.5C136.359 367.16 140.159 367.16 142.499 369.5C144.839 371.84 144.839 375.64 142.499 377.98L117.729 402.76C116.549 403.93 115.019 404.52 113.479 404.52Z" fill="white"/>
<path fill-rule="evenodd" clip-rule="evenodd" d="M34.05 512C24.93 512 16.37 508.46 9.95 502.05C3.54 495.63 0 487.07 0 477.95C0 468.82 3.54 460.26 9.95 453.85L69.53 394.28C75.94 387.86 84.5 384.33 93.63 384.33C102.75 384.33 111.31 387.86 117.73 394.28C124.14 400.69 127.68 409.25 127.68 418.37C127.68 427.5 124.14 436.06 117.73 442.47L58.15 502.05C51.74 508.46 43.18 512 34.05 512ZM93.63 396.33C87.71 396.33 82.16 398.61 78.01 402.76L18.44 462.33C14.29 466.48 12.01 472.03 12.01 477.95C12.01 483.87 14.29 489.41 18.44 493.56C22.59 497.71 28.13 500 34.05 500C39.97 500 45.52 497.71 49.67 493.56L109.24 433.99C117.85 425.38 117.85 411.37 109.24 402.76C105.09 398.61 99.55 396.33 93.63 396.33Z" fill="white"/>
<path fill-rule="evenodd" clip-rule="evenodd" d="M290.58 402.23C242.28 402.23 196.88 383.42 162.73 349.27C92.2305 278.78 92.2305 164.07 162.73 93.57C196.88 59.42 242.28 40.62 290.58 40.62C338.87 40.62 384.28 59.42 418.43 93.57C488.92 164.07 488.92 278.78 418.43 349.27C384.28 383.42 338.87 402.23 290.58 402.23ZM290.58 52.62C245.49 52.62 203.1 70.17 171.22 102.06C105.4 167.88 105.4 274.97 171.22 340.78C203.1 372.67 245.49 390.23 290.58 390.23C335.67 390.23 378.06 372.67 409.94 340.78C475.76 274.97 475.76 167.88 409.94 102.06C378.06 70.17 335.67 52.62 290.58 52.62Z" fill="white"/>
<path fill-rule="evenodd" clip-rule="evenodd" d="M364.58 151.29C355.03 151.29 346.64 144.85 344.17 135.62C342.71 130.17 343.46 124.47 346.28 119.59C349.1 114.7 353.66 111.2 359.12 109.74C360.91 109.26 362.75 109.01 364.59 109.01C374.14 109.01 382.53 115.46 385 124.68C386.46 130.14 385.71 135.83 382.89 140.72C380.07 145.61 375.51 149.11 370.05 150.57C368.26 151.05 366.42 151.29 364.58 151.29ZM364.6 121.01C363.8 121.01 363 121.12 362.22 121.33C359.86 121.96 357.89 123.47 356.67 125.59C355.45 127.7 355.13 130.16 355.76 132.52C356.83 136.51 360.45 139.29 364.57 139.29C365.37 139.29 366.17 139.19 366.95 138.98C369.31 138.35 371.28 136.83 372.5 134.72C373.72 132.61 374.04 130.15 373.41 127.79C372.34 123.8 368.72 121.01 364.6 121.01Z" fill="white"/>
<path fill-rule="evenodd" clip-rule="evenodd" d="M334.019 222.3C324.469 222.3 316.079 215.85 313.609 206.63C312.149 201.18 312.899 195.48 315.719 190.59C318.539 185.7 323.099 182.2 328.549 180.74C330.349 180.26 332.189 180.02 334.029 180.02C343.579 180.02 351.969 186.46 354.439 195.69C357.459 206.94 350.749 218.56 339.489 221.57C337.699 222.06 335.859 222.3 334.019 222.3ZM334.029 192.02C333.239 192.02 332.439 192.12 331.659 192.33C329.299 192.97 327.329 194.48 326.109 196.59C324.889 198.7 324.569 201.17 325.199 203.52C326.269 207.51 329.889 210.3 334.009 210.3C334.809 210.3 335.609 210.19 336.389 209.98C341.249 208.68 344.149 203.66 342.849 198.79C341.779 194.8 338.159 192.02 334.029 192.02Z" fill="white"/>
<path fill-rule="evenodd" clip-rule="evenodd" d="M259.299 172.16C249.759 172.16 241.37 165.72 238.9 156.49C235.88 145.24 242.59 133.62 253.84 130.61C255.63 130.13 257.48 129.88 259.32 129.88C268.87 129.88 277.26 136.33 279.73 145.55C281.19 151.01 280.44 156.7 277.62 161.59C274.79 166.48 270.24 169.98 264.78 171.44C262.99 171.92 261.139 172.16 259.299 172.16ZM259.32 141.88C258.53 141.88 257.73 141.99 256.95 142.2C252.08 143.5 249.18 148.52 250.49 153.39C251.56 157.38 255.179 160.16 259.299 160.16C260.099 160.16 260.9 160.06 261.68 159.85C264.03 159.22 266 157.7 267.22 155.59C268.45 153.48 268.77 151.02 268.14 148.66C267.07 144.67 263.44 141.88 259.32 141.88Z" fill="white"/>
<path fill-rule="evenodd" clip-rule="evenodd" d="M196.329 237.51C186.789 237.51 178.399 231.07 175.919 221.84C172.909 210.58 179.609 198.97 190.869 195.96C192.659 195.48 194.499 195.23 196.349 195.23C205.889 195.23 214.279 201.68 216.749 210.9C218.219 216.35 217.469 222.05 214.639 226.94C211.819 231.83 207.259 235.33 201.809 236.79C200.019 237.27 198.169 237.51 196.329 237.51ZM196.349 207.23C195.549 207.23 194.749 207.34 193.979 207.55C189.109 208.85 186.209 213.87 187.509 218.73C188.579 222.72 192.209 225.51 196.329 225.51C197.119 225.51 197.919 225.4 198.699 225.2C201.059 224.56 203.029 223.05 204.249 220.94C205.469 218.82 205.789 216.36 205.159 214.01C204.099 210.02 200.469 207.23 196.349 207.23Z" fill="white"/>
<path fill-rule="evenodd" clip-rule="evenodd" d="M337.189 192.35C336.199 192.35 335.199 192.11 334.269 191.6C331.369 189.98 330.339 186.33 331.949 183.43L355.159 141.78C356.779 138.89 360.429 137.85 363.329 139.46C366.219 141.07 367.259 144.73 365.649 147.62L342.429 189.27C341.329 191.24 339.289 192.35 337.189 192.35Z" fill="white"/>
<path fill-rule="evenodd" clip-rule="evenodd" d="M319.299 203.62C318.009 203.62 316.719 203.21 315.619 202.36L267.579 165.06C264.959 163.02 264.489 159.25 266.519 156.64C268.549 154.02 272.329 153.55 274.939 155.58L322.979 192.88C325.599 194.92 326.079 198.69 324.039 201.3C322.859 202.83 321.089 203.62 319.299 203.62Z" fill="white"/>
<path fill-rule="evenodd" clip-rule="evenodd" d="M206.73 211.36C205.25 211.36 203.78 210.82 202.62 209.73C200.2 207.46 200.09 203.66 202.36 201.25L243.86 157.22C246.13 154.81 249.93 154.69 252.34 156.97C254.75 159.24 254.86 163.04 252.59 165.45L211.1 209.48C209.92 210.73 208.32 211.36 206.73 211.36Z" fill="white"/>
<path fill-rule="evenodd" clip-rule="evenodd" d="M399.96 333.83H373.25C369.94 333.83 367.25 331.14 367.25 327.83V213.23C367.25 209.92 369.94 207.23 373.25 207.23H399.96C403.27 207.23 405.96 209.92 405.96 213.23V327.83C405.96 331.14 403.27 333.83 399.96 333.83ZM379.25 321.83H393.96V219.23H379.25V321.83Z" fill="white"/>
<path fill-rule="evenodd" clip-rule="evenodd" d="M338.39 333.83H311.68C308.37 333.83 305.68 331.14 305.68 327.83V242.13C305.68 238.82 308.37 236.13 311.68 236.13H338.39C341.71 236.13 344.39 238.82 344.39 242.13V327.83C344.39 331.14 341.71 333.83 338.39 333.83ZM317.68 321.83H332.39V248.13H317.68V321.83Z" fill="white"/>
<path fill-rule="evenodd" clip-rule="evenodd" d="M276.829 333.83H250.109C246.799 333.83 244.109 331.14 244.109 327.83V270.53C244.109 267.22 246.799 264.53 250.109 264.53H276.829C280.139 264.53 282.829 267.22 282.829 270.53V327.83C282.829 331.14 280.139 333.83 276.829 333.83ZM256.109 321.83H270.829V276.53H256.109V321.83Z" fill="white"/>
<path fill-rule="evenodd" clip-rule="evenodd" d="M215.259 333.83H188.549C185.239 333.83 182.549 331.14 182.549 327.83V295.45C182.549 292.13 185.239 289.45 188.549 289.45H215.259C218.569 289.45 221.259 292.13 221.259 295.45V327.83C221.259 331.14 218.569 333.83 215.259 333.83ZM194.549 321.83H209.259V301.45H194.549V321.83Z" fill="white"/>
</g>
<defs>
<clipPath id="clip0_312_305">
<rect width="512" height="512" fill="white"/>
</clipPath>
</defs>
</svg>
