<svg width="512" height="512" viewBox="0 0 512 512" fill="none" xmlns="http://www.w3.org/2000/svg">
<path d="M469.333 323.925V170.667C469.3 142.387 458.051 115.276 438.054 95.2794C418.058 75.2828 390.946 64.0339 362.667 64H149.333C121.054 64.0339 93.9427 75.2828 73.9461 95.2794C53.9496 115.276 42.7006 142.387 42.6668 170.667V323.925C28.4442 328.935 16.4536 338.816 8.81848 351.819C1.1834 364.823 -1.60333 380.108 0.951844 394.969C3.50702 409.83 11.2392 423.307 22.7789 433.013C34.3186 442.72 48.9211 448.029 64.0001 448H448C463.079 448.029 477.682 442.72 489.221 433.013C500.761 423.307 508.493 409.83 511.048 394.969C513.604 380.108 510.817 364.823 503.182 351.819C495.547 338.816 483.556 328.935 469.333 323.925ZM149.333 106.667H362.667C379.641 106.667 395.919 113.41 407.922 125.412C419.924 137.414 426.667 153.693 426.667 170.667V320H338.112C331.907 319.996 325.776 321.345 320.146 323.954C314.516 326.562 309.523 330.368 305.515 335.104L300.245 341.333H211.733L206.485 335.104C202.477 330.368 197.484 326.562 191.854 323.954C186.224 321.345 180.093 319.996 173.888 320H85.3334V170.667C85.3334 153.693 92.0763 137.414 104.079 125.412C116.081 113.41 132.36 106.667 149.333 106.667ZM448 405.333H64.0001C58.3422 405.333 52.9159 403.086 48.9152 399.085C44.9144 395.084 42.6668 389.658 42.6668 384C42.6668 378.342 44.9144 372.916 48.9152 368.915C52.9159 364.914 58.3422 362.667 64.0001 362.667H173.909L179.157 368.896C183.163 373.63 188.153 377.433 193.779 380.042C199.405 382.65 205.532 384.001 211.733 384H300.245C306.45 384.004 312.581 382.655 318.211 380.046C323.841 377.438 328.834 373.632 332.843 368.896L338.112 362.667H448C453.658 362.667 459.084 364.914 463.085 368.915C467.086 372.916 469.333 378.342 469.333 384C469.333 389.658 467.086 395.084 463.085 399.085C459.084 403.086 453.658 405.333 448 405.333Z" fill="#CF0042"/>
</svg>
