<svg width="512" height="512" viewBox="0 0 512 512" fill="none" xmlns="http://www.w3.org/2000/svg">
<path d="M491.017 58.7541H499.41C504.044 58.7541 507.804 55.0022 507.804 50.3607V16.7869C507.804 12.1453 504.044 8.39344 499.41 8.39344H465.837C461.203 8.39344 457.443 12.1453 457.443 16.7869V25.1803H289.574V8.39344C289.574 3.75187 285.814 0 281.181 0H230.82C226.187 0 222.427 3.75187 222.427 8.39344V25.1803H54.5579V16.7869C54.5579 12.1453 50.7977 8.39344 46.1645 8.39344H12.5907C7.95753 8.39344 4.19727 12.1453 4.19727 16.7869V50.3607C4.19727 55.0022 7.95753 58.7541 12.5907 58.7541H20.9841V453.246H12.5907C7.95753 453.246 4.19727 456.998 4.19727 461.639V495.213C4.19727 499.855 7.95753 503.607 12.5907 503.607H46.1645C50.7977 503.607 54.5579 499.855 54.5579 495.213V486.82H222.427V503.607C222.427 508.248 226.187 512 230.82 512H281.181C285.814 512 289.574 508.248 289.574 503.607V486.82H457.443V495.213C457.443 499.855 461.203 503.607 465.837 503.607H499.41C504.044 503.607 507.804 499.855 507.804 495.213V461.639C507.804 456.998 504.044 453.246 499.41 453.246H491.017V256V58.7541ZM474.23 25.1803H491.017V41.9672H474.23V25.1803ZM239.214 16.7869H272.787V35.0007V50.3607H239.214V35.0007V33.5738V16.7869ZM20.9841 25.1803H37.771V41.9672H20.9841V25.1803ZM37.771 58.7541H46.1645C50.7977 58.7541 54.5579 55.0022 54.5579 50.3607V41.9672H167.827C108.259 65.5108 61.3734 112.12 37.771 170.135V58.7541ZM37.771 486.82H20.9841V470.033H37.771V486.82ZM46.1645 453.246H37.771V341.865C61.3734 399.88 108.259 446.489 167.827 470.033H54.5579V461.639C54.5579 456.998 50.7977 453.246 46.1645 453.246ZM207.738 200.469L237.459 281.701C226.808 289.507 221.999 303.608 226.766 316.609C229.553 324.239 235.151 330.332 242.529 333.757C246.608 335.654 250.956 336.602 255.321 336.602C258.854 336.602 262.388 335.981 265.796 334.73C273.434 331.935 279.519 326.337 282.943 318.968C286.368 311.59 286.721 303.331 283.926 295.701C279.175 282.7 266.408 275.028 253.231 275.934L223.493 194.661L339.062 286.502C325.414 305.228 321.629 327.672 329.032 348.026L338.76 374.641L237.199 411.791L227.454 385.141C219.934 364.603 202.056 350.023 178.731 344.954L207.738 200.469ZM268.163 301.467C269.413 304.883 269.254 308.593 267.718 311.892C266.182 315.199 263.454 317.709 260.021 318.968C256.605 320.21 252.887 320.067 249.596 318.523C246.289 316.987 243.78 314.259 242.529 310.834C239.944 303.767 243.587 295.919 250.654 293.334C252.198 292.772 253.776 292.495 255.329 292.495C260.894 292.503 266.131 295.944 268.163 301.467ZM242.966 427.57L344.526 390.413L363.437 442.133C362.967 442.393 362.505 442.67 362.035 442.922C357.142 445.608 352.181 448.101 347.137 450.392C346.49 450.686 345.844 450.971 345.189 451.257C344.854 451.399 344.518 451.542 344.19 451.685C339.112 453.901 333.967 455.94 328.738 457.762C328.688 457.778 328.629 457.804 328.579 457.82C327.773 458.106 326.95 458.357 326.136 458.634C321.033 460.338 315.871 461.841 310.642 463.159C309.525 463.444 308.418 463.721 307.301 463.981C301.728 465.29 296.096 466.415 290.397 467.288C290.12 467.33 289.843 467.355 289.566 467.397V453.246C289.566 448.604 285.806 444.852 281.172 444.852H249.286L242.966 427.57ZM272.787 495.213H239.214V476.999V461.639H243.41H272.787V476.999V478.426V495.213ZM491.017 486.82H474.23V478.426V470.033H482.623H491.017V486.82ZM474.23 342.226V453.246H465.837C461.203 453.246 457.443 456.998 457.443 461.639V470.033H344.048C344.199 469.974 344.342 469.898 344.493 469.831C349.52 467.817 354.464 465.567 359.357 463.192C360.642 462.571 361.909 461.941 363.185 461.295C368.212 458.744 373.198 456.066 378.083 453.137C378.092 453.128 378.1 453.12 378.108 453.12C383.161 450.107 388.021 446.892 392.78 443.56C394.299 442.502 395.751 441.386 397.237 440.295C400.494 437.903 403.683 435.46 406.789 432.925C408.358 431.641 409.911 430.349 411.447 429.031C414.511 426.404 417.465 423.693 420.369 420.923C421.637 419.714 422.938 418.531 424.18 417.297C428.184 413.293 432.07 409.197 435.746 404.942C436.099 404.539 436.409 404.102 436.753 403.691C440.069 399.796 443.241 395.801 446.28 391.714C447.363 390.253 448.378 388.759 449.427 387.282C451.677 384.101 453.851 380.878 455.924 377.587C456.965 375.942 457.989 374.297 458.979 372.635C461.044 369.169 463 365.652 464.871 362.085C465.627 360.658 466.424 359.248 467.146 357.804C469.639 352.802 471.981 347.724 474.104 342.545C474.129 342.436 474.188 342.335 474.23 342.226ZM378.058 433.236L344.803 342.268C338.542 325.061 343.041 306.335 357.142 290.866C358.711 289.146 359.492 286.854 359.299 284.538C359.114 282.221 357.972 280.089 356.151 278.637L212.665 164.612C211.314 159.526 208.594 145.408 216.635 135.176C225.793 123.535 247.061 119.279 278.117 122.771C309.282 126.346 330.912 121.579 342.47 108.72C351.551 98.6313 351.761 85.9908 350.46 80.107L334.076 83.7498C334.093 83.8253 335.47 91.413 329.997 97.5066C322.485 105.841 304.724 108.871 280.014 106.102C242.311 101.796 216.568 108.124 203.441 124.81C190.179 141.673 194.703 162.984 196.726 170.043L160.559 350.208C160.097 352.525 160.626 354.925 162.019 356.83C163.421 358.736 165.544 359.961 167.895 360.205C189.415 362.496 205.38 373.693 211.692 390.933L231.408 444.852H230.82C226.187 444.852 222.427 448.604 222.427 453.246V467.448C116.51 451.525 37.771 362.194 37.771 256C37.771 149.806 116.51 60.4748 222.427 44.5524V58.7541C222.427 63.3957 226.187 67.1475 230.82 67.1475H281.181C285.814 67.1475 289.574 63.3957 289.574 58.7541V44.5524C395.491 60.4748 474.23 149.806 474.23 256C474.23 327.923 438.44 393.401 378.058 433.236ZM344.174 41.9672H457.443V50.3607C457.443 55.0022 461.203 58.7541 465.837 58.7541H474.23V170.135C450.628 112.12 403.742 65.5108 344.174 41.9672Z" fill="#CF0042"/>
</svg>
