<svg width="512" height="512" viewBox="0 0 512 512" fill="none" xmlns="http://www.w3.org/2000/svg">
<path d="M93.9287 218.071C103.207 227.345 117.44 213.297 108.072 203.928L75.1427 171L108.072 138.071C111.977 134.166 111.977 127.834 108.072 123.928C104.166 120.024 97.8357 120.024 93.9287 123.928L53.9288 163.928C50.0238 167.833 50.0238 174.165 53.9288 178.071L93.9287 218.071Z" fill="#CF0042"/>
<path d="M208.071 218.071L248.071 178.071C251.976 174.166 251.976 167.834 248.071 163.928L208.071 123.928C204.165 120.024 197.835 120.024 193.928 123.928C190.023 127.833 190.023 134.165 193.928 138.071L226.857 171L193.928 203.929C184.555 213.302 198.819 227.319 208.071 218.071Z" fill="#CF0042"/>
<path d="M141.008 221.002C145.488 221.002 149.566 217.969 150.701 213.426L170.701 133.426C172.041 128.068 168.783 122.638 163.426 121.299C158.066 119.959 152.639 123.218 151.299 128.574L131.299 208.574C129.723 214.877 134.492 221.002 141.008 221.002Z" fill="#CF0042"/>
<path d="M251 281C245.477 281 241 285.478 241 291C241 296.522 245.477 301 251 301H451C456.522 301 461 296.522 461 291C461 285.478 456.522 281 451 281H441V201C441 195.477 436.522 191 431 191C425.478 191 421 195.477 421 201V281H401V181C401 175.477 396.522 171 391 171C385.478 171 381 175.477 381 181V281H361V241C361 235.477 356.522 231 351 231C345.478 231 341 235.477 341 241V281H321V221C321 215.477 316.522 211 311 211C305.478 211 301 215.477 301 221V281H281V251C281 245.477 276.522 241 271 241C265.478 241 261 245.477 261 251V281H251Z" fill="#CF0042"/>
<path d="M271 71H451C456.522 71 461 66.522 461 61C461 55.478 456.522 51 451 51H271C265.478 51 261 55.478 261 61C261 66.522 265.478 71 271 71Z" fill="#CF0042"/>
<path d="M271 111H391C396.522 111 401 106.522 401 101C401 95.478 396.522 91 391 91H271C265.478 91 261 95.478 261 101C261 106.522 265.478 111 271 111Z" fill="#CF0042"/>
<path d="M451 391C456.523 391 461 386.523 461 381C461 375.477 456.523 371 451 371C445.477 371 441 375.477 441 381C441 386.523 445.477 391 451 391Z" fill="#CF0042"/>
<path d="M411 371H401C395.478 371 391 375.478 391 381C391 386.522 395.478 391 401 391H411C416.522 391 421 386.522 421 381C421 375.478 416.522 371 411 371Z" fill="#CF0042"/>
<path d="M361 371H351C345.478 371 341 375.478 341 381C341 386.522 345.478 391 351 391H361C366.522 391 371 386.522 371 381C371 375.478 366.522 371 361 371Z" fill="#CF0042"/>
<path d="M456.08 1H55.92C25.637 1 1 25.637 1 55.92V376.08C1 406.363 25.637 431 55.92 431H206V451H196C168.43 451 146 473.43 146 501C146 506.522 150.477 511 156 511H356C361.522 511 366 506.522 366 501C366 473.43 343.57 451 316 451H306V431H456.08C486.363 431 511 406.363 511 376.08V55.92C511 25.637 486.363 1 456.08 1ZM55.92 21H456.08C475.335 21 491 36.665 491 55.92V331H21V55.92C21 36.665 36.665 21 55.92 21ZM344.286 491H167.714C171.841 479.359 182.963 471 196 471H316C329.037 471 340.159 479.359 344.286 491ZM286 451H226V431H286V451ZM456.08 411H55.92C36.665 411 21 395.335 21 376.08V351H491V376.08C491 395.335 475.335 411 456.08 411Z" fill="#CF0042"/>
</svg>
