<svg width="512" height="512" viewBox="0 0 512 512" fill="none" xmlns="http://www.w3.org/2000/svg">
<g clip-path="url(#clip0_311_225)">
<path d="M33 407.045H217.5V440.045H206.217C197.468 440.055 189.08 443.535 182.894 449.722C176.707 455.908 173.227 464.296 173.217 473.045V482.286C173.217 484.408 174.06 486.443 175.56 487.943C177.06 489.443 179.095 490.286 181.217 490.286H330.783C332.905 490.286 334.94 489.443 336.44 487.943C337.94 486.443 338.783 484.408 338.783 482.286V473.045C338.773 464.296 335.293 455.908 329.106 449.722C322.92 443.535 314.532 440.055 305.783 440.045H294.5V407.045H479C487.749 407.035 496.137 403.555 502.323 397.368C508.51 391.182 511.99 382.794 512 374.045V54.714C511.99 45.9649 508.51 37.5769 502.324 31.3903C496.137 25.2037 487.749 21.7238 479 21.714H33C24.2509 21.7238 15.8629 25.2037 9.67629 31.3903C3.48971 37.5769 0.00979318 45.9649 0 54.714L0 374.045C0.0100573 382.794 3.49006 391.182 9.67658 397.368C15.8631 403.555 24.2509 407.035 33 407.045ZM322.783 473.045V474.286H189.217V473.045C189.222 468.538 191.015 464.217 194.202 461.03C197.389 457.843 201.71 456.05 206.217 456.045H305.783C310.29 456.05 314.611 457.843 317.798 461.029C320.985 464.216 322.778 468.537 322.783 473.044V473.045ZM278.5 440.045H233.5V407.045H278.5V440.045ZM479 391.045H33C28.4929 391.04 24.1718 389.247 20.9847 386.06C17.7977 382.873 16.005 378.552 16 374.045V359.292H496V374.045C495.995 378.552 494.202 382.873 491.015 386.06C487.828 389.247 483.507 391.04 479 391.045ZM33 37.715H479C483.507 37.72 487.828 39.5127 491.015 42.6997C494.202 45.8868 495.995 50.2079 496 54.715V343.292H16V54.714C16.0053 50.207 17.7981 45.8862 20.9851 42.6994C24.1721 39.5126 28.493 37.72 33 37.715ZM264 374.731V375.606C264 377.728 263.157 379.763 261.657 381.263C260.157 382.763 258.122 383.606 256 383.606C253.878 383.606 251.843 382.763 250.343 381.263C248.843 379.763 248 377.728 248 375.606V374.731C248 372.609 248.843 370.574 250.343 369.074C251.843 367.574 253.878 366.731 256 366.731C258.122 366.731 260.157 367.574 261.657 369.074C263.157 370.574 264 372.609 264 374.731ZM216.091 189.356V253.673C210.883 255.113 206.29 258.22 203.015 262.518C199.74 266.817 197.963 272.069 197.956 277.473V294.16C197.956 296.282 198.799 298.317 200.299 299.817C201.799 301.317 203.834 302.16 205.956 302.16H452.6C454.722 302.16 456.757 301.317 458.257 299.817C459.757 298.317 460.6 296.282 460.6 294.16V277.47C460.595 272.712 459.216 268.057 456.63 264.063C454.044 260.07 450.36 256.907 446.021 254.956V122.609C446.021 120.487 445.178 118.452 443.678 116.952C442.178 115.452 440.143 114.609 438.021 114.609H404.649C402.527 114.609 400.492 115.452 398.992 116.952C397.492 118.452 396.649 120.487 396.649 122.609V252.783H385.837V168.192C385.837 166.07 384.994 164.035 383.494 162.535C381.994 161.035 379.959 160.192 377.837 160.192H344.463C342.341 160.192 340.306 161.035 338.806 162.535C337.306 164.035 336.463 166.07 336.463 168.192V252.783H325.651V144.583C325.651 142.461 324.808 140.426 323.308 138.926C321.808 137.426 319.773 136.583 317.651 136.583H284.277C282.155 136.583 280.12 137.426 278.62 138.926C277.12 140.426 276.277 142.461 276.277 144.583V252.783H265.465V189.356C265.465 187.234 264.622 185.199 263.122 183.699C261.622 182.199 259.587 181.356 257.465 181.356H224.091C221.969 181.356 219.934 182.199 218.434 183.699C216.934 185.199 216.091 187.234 216.091 189.356ZM444.602 286.156H213.956V277.47C213.959 275.167 214.876 272.96 216.504 271.331C218.133 269.703 220.34 268.786 222.643 268.783H435.915C438.218 268.786 440.425 269.703 442.054 271.331C443.682 272.96 444.599 275.167 444.602 277.47V286.156ZM412.649 130.609H430.023V252.783H412.649V130.609ZM352.463 176.192H369.837V252.783H352.463V176.192ZM292.277 152.586H309.651V252.786H292.277V152.586ZM249.465 197.356V252.783H232.091V197.356H249.465ZM228.055 157.35C226.691 155.725 226.028 153.625 226.212 151.511C226.396 149.397 227.412 147.443 229.037 146.079L293.656 91.818C294.802 90.8554 296.196 90.2338 297.678 90.0238C299.16 89.8138 300.671 90.0238 302.04 90.63L362.052 117.2L408.376 77.594L398.548 76.722C397.496 76.6361 396.472 76.343 395.534 75.8595C394.596 75.376 393.763 74.7117 393.082 73.9048C392.402 73.098 391.888 72.1645 391.571 71.1582C391.253 70.1519 391.137 69.0927 391.23 68.0415C391.324 66.9903 391.624 65.968 392.114 65.0334C392.604 64.0988 393.274 63.2704 394.086 62.5959C394.897 61.9214 395.834 61.4141 396.843 61.1033C397.851 60.7925 398.912 60.6843 399.962 60.785L428.747 63.339C429.794 63.4318 430.811 63.7298 431.743 64.2161C432.674 64.7023 433.501 65.3673 434.175 66.1729C434.849 66.9786 435.358 67.9091 435.673 68.9115C435.988 69.9139 436.102 70.9685 436.009 72.015L433.455 100.8C433.278 102.79 432.364 104.642 430.891 105.992C429.418 107.341 427.493 108.091 425.495 108.093C425.258 108.093 425.02 108.083 424.779 108.062C423.732 107.969 422.715 107.671 421.783 107.185C420.852 106.699 420.025 106.034 419.351 105.228C418.677 104.422 418.168 103.492 417.853 102.489C417.538 101.487 417.424 100.432 417.517 99.386L418.339 90.127L368.619 132.636C367.472 133.616 366.071 134.252 364.579 134.471C363.086 134.689 361.562 134.481 360.182 133.87L300.124 107.28L239.324 158.332C237.699 159.696 235.599 160.359 233.485 160.175C231.371 159.991 229.417 158.975 228.053 157.35H228.055ZM153.973 187.514C168.315 187.548 182.16 182.259 192.827 172.671C203.494 163.083 210.223 149.879 211.713 135.614C211.831 134.499 211.713 133.371 211.367 132.304C211.021 131.237 210.454 130.255 209.704 129.422C208.954 128.588 208.037 127.921 207.012 127.465C205.988 127.009 204.879 126.773 203.757 126.773H156.647V79.663C156.647 78.5414 156.411 77.4324 155.955 76.4079C155.499 75.3834 154.832 74.4662 153.998 73.716C153.165 72.9658 152.183 72.3992 151.116 72.0531C150.049 71.707 148.921 71.5891 147.806 71.707C133.025 73.2871 119.413 80.4756 109.774 91.7918C100.135 103.108 95.2022 117.69 95.9927 132.534C96.7832 147.378 103.236 161.354 114.023 171.582C124.809 181.81 139.108 187.513 153.973 187.514ZM140.647 89.521V134.773C140.647 136.895 141.49 138.93 142.99 140.43C144.49 141.93 146.525 142.773 148.647 142.773H193.9C191.627 149.573 187.654 155.679 182.358 160.513C177.062 165.346 170.619 168.746 163.64 170.39C156.662 172.035 149.378 171.868 142.482 169.908C135.585 167.947 129.304 164.256 124.234 159.187C119.164 154.117 115.474 147.836 113.513 140.939C111.553 134.043 111.386 126.759 113.031 119.781C114.675 112.802 118.075 106.359 122.908 101.063C127.742 95.7673 133.847 91.7943 140.647 89.521ZM167.929 123.028H212.387C213.509 123.028 214.618 122.792 215.642 122.336C216.667 121.88 217.584 121.213 218.334 120.379C219.084 119.546 219.651 118.564 219.997 117.497C220.343 116.43 220.461 115.302 220.343 114.187C218.894 101.007 212.995 88.7144 203.619 79.3383C194.243 69.9623 181.951 64.063 168.771 62.614C167.656 62.4959 166.528 62.6138 165.461 62.9598C164.394 63.3058 163.412 63.8724 162.578 64.6226C161.744 65.3728 161.077 66.29 160.621 67.3146C160.165 68.3392 159.929 69.4484 159.929 70.57V115.028C159.929 117.15 160.772 119.185 162.272 120.685C163.772 122.185 165.807 123.028 167.929 123.028ZM175.929 80.454C182.102 82.5434 187.711 86.0277 192.319 90.6365C196.928 95.2453 200.411 100.854 202.5 107.028H175.929V80.454ZM56.938 272.358L66.53 275.458C66.75 276.232 66.9877 277.001 67.243 277.766L61.058 285.729C59.9414 287.166 59.3484 288.942 59.3767 290.761C59.4051 292.581 60.0532 294.337 61.214 295.739L72.781 309.709C73.9414 311.11 75.5445 312.073 77.326 312.441C79.1076 312.808 80.9611 312.557 82.581 311.73L91.559 307.139C92.2623 307.533 92.9737 307.91 93.693 308.27L94.95 318.27C95.1768 320.076 96.0126 321.75 97.3194 323.017C98.6262 324.284 100.326 325.067 102.138 325.238L120.196 326.938C120.449 326.962 120.7 326.974 120.951 326.974C122.642 326.973 124.288 326.436 125.655 325.441C127.022 324.446 128.038 323.044 128.558 321.435L131.658 311.842C132.432 311.622 133.201 311.384 133.965 311.129L141.929 317.315C143.366 318.431 145.141 319.024 146.961 318.996C148.781 318.968 150.536 318.32 151.938 317.159L165.909 305.591C167.31 304.431 168.273 302.827 168.641 301.046C169.008 299.264 168.757 297.411 167.93 295.791L163.339 286.813C163.732 286.109 164.109 285.398 164.47 284.679L174.47 283.421C176.276 283.194 177.95 282.358 179.216 281.052C180.483 279.745 181.266 278.046 181.437 276.234L183.137 258.175C183.308 256.364 182.856 254.548 181.856 253.028C180.856 251.508 179.368 250.375 177.637 249.814L168.044 246.714C167.825 245.94 167.588 245.171 167.332 244.407L173.518 236.443C174.634 235.006 175.227 233.231 175.198 231.411C175.17 229.591 174.522 227.836 173.361 226.434L161.8 212.462C160.64 211.061 159.036 210.098 157.255 209.73C155.473 209.363 153.62 209.614 152 210.441L143.022 215.032C142.319 214.638 141.608 214.261 140.888 213.901L139.631 203.901C139.404 202.095 138.568 200.421 137.261 199.154C135.955 197.888 134.255 197.105 132.443 196.934L114.385 195.234C112.574 195.063 110.758 195.515 109.238 196.515C107.718 197.515 106.585 199.003 106.024 200.734L102.924 210.327C102.15 210.546 101.381 210.783 100.617 211.04L92.653 204.853C91.2155 203.737 89.4403 203.144 87.6204 203.172C85.8005 203.201 84.0448 203.849 82.643 205.01L68.673 216.577C67.2722 217.737 66.3086 219.34 65.9412 221.122C65.5738 222.904 65.8245 224.757 66.652 226.377L71.243 235.355C70.8497 236.058 70.473 236.769 70.113 237.489L60.113 238.746C58.3071 238.973 56.6325 239.809 55.3657 241.115C54.0989 242.422 53.3156 244.122 53.145 245.934L51.434 264C51.2644 265.811 51.7172 267.626 52.7178 269.146C53.7183 270.665 55.2069 271.798 56.938 272.358ZM68.462 253.826L76.573 252.807C78.0044 252.627 79.3606 252.063 80.4978 251.176C81.635 250.288 82.511 249.109 83.033 247.764C84.06 245.122 85.3913 242.609 87 240.275C87.8187 239.087 88.3007 237.699 88.3948 236.259C88.489 234.819 88.1919 233.38 87.535 232.095L83.81 224.811L87.896 221.427L94.358 226.445C95.4978 227.33 96.8556 227.89 98.2877 228.066C99.7198 228.242 101.173 228.027 102.493 227.445C105.087 226.301 107.805 225.462 110.593 224.945C112.011 224.683 113.332 224.042 114.416 223.09C115.5 222.139 116.306 220.912 116.75 219.54L119.266 211.762L124.548 212.262L125.567 220.373C125.747 221.804 126.311 223.161 127.198 224.298C128.086 225.435 129.265 226.311 130.61 226.833C133.252 227.86 135.766 229.191 138.1 230.8C139.288 231.619 140.676 232.101 142.116 232.195C143.557 232.289 144.995 231.992 146.28 231.334L153.565 227.609L156.948 231.696L151.93 238.158C151.045 239.298 150.485 240.656 150.309 242.088C150.133 243.52 150.347 244.974 150.93 246.294C152.074 248.888 152.913 251.606 153.43 254.394C153.692 255.812 154.333 257.133 155.285 258.217C156.236 259.301 157.463 260.107 158.835 260.551L166.613 263.066L166.113 268.348L158.003 269.368C156.571 269.548 155.215 270.111 154.078 270.999C152.94 271.887 152.064 273.066 151.542 274.411C150.515 277.053 149.183 279.566 147.574 281.9C146.755 283.089 146.274 284.476 146.18 285.916C146.086 287.356 146.383 288.795 147.04 290.08L150.765 297.364L146.679 300.748L140.217 295.729C139.077 294.844 137.719 294.284 136.286 294.107C134.854 293.931 133.4 294.146 132.08 294.729C129.486 295.874 126.768 296.713 123.98 297.229C122.561 297.491 121.24 298.132 120.156 299.083C119.071 300.035 118.265 301.262 117.821 302.635L115.307 310.413L110.024 309.913L109.01 301.8C108.83 300.369 108.266 299.012 107.379 297.875C106.491 296.738 105.312 295.862 103.967 295.34C101.325 294.312 98.8121 292.981 96.478 291.372C95.2895 290.553 93.9017 290.072 92.4616 289.978C91.0215 289.884 89.5829 290.181 88.298 290.838L81.014 294.562L77.629 290.476L82.648 284.014C83.5332 282.874 84.0935 281.516 84.2695 280.083C84.4456 278.651 84.2308 277.197 83.648 275.877C82.5028 273.283 81.6638 270.565 81.148 267.777C80.8857 266.359 80.2449 265.038 79.2935 263.954C78.342 262.87 77.1152 262.064 75.743 261.62L67.965 259.104L68.462 253.826ZM114.577 289.9C115.496 289.986 116.407 290.029 117.31 290.028C124.871 290.025 132.131 287.064 137.539 281.778C142.946 276.492 146.071 269.301 146.246 261.742C146.421 254.183 143.632 246.854 138.476 241.324C133.32 235.794 126.205 232.499 118.651 232.146C111.098 231.792 103.706 234.407 98.0557 239.431C92.4049 244.455 88.9436 251.491 88.4115 259.033C87.8794 266.576 90.3187 274.027 95.2081 279.795C100.097 285.563 107.049 289.19 114.577 289.9ZM104.4 259.874C104.706 256.668 106.194 253.692 108.574 251.523C110.955 249.354 114.057 248.15 117.277 248.143C117.681 248.143 118.088 248.162 118.499 248.201C121.047 248.441 123.467 249.432 125.452 251.047C127.438 252.663 128.9 254.831 129.653 257.277C130.406 259.723 130.417 262.338 129.685 264.79C128.952 267.242 127.509 269.423 125.537 271.055C123.566 272.687 121.154 273.698 118.608 273.96C116.062 274.222 113.495 273.723 111.233 272.526C108.97 271.329 107.114 269.489 105.897 267.236C104.681 264.984 104.16 262.422 104.4 259.874Z" fill="#CF0042"/>
</g>
<defs>
<clipPath id="clip0_311_225">
<rect width="512" height="512" fill="white"/>
</clipPath>
</defs>
</svg>
