<svg width="512" height="512" viewBox="0 0 512 512" fill="none" xmlns="http://www.w3.org/2000/svg">
<path d="M51.1992 255.982C51.1992 368.9 143.074 460.765 255.999 460.765C281.534 460.765 306.449 456.122 330.049 446.965C332.689 445.942 333.994 442.977 332.974 440.34C331.944 437.702 328.964 436.39 326.349 437.42C303.929 446.115 280.259 450.525 255.999 450.525C148.719 450.525 61.4392 363.252 61.4392 255.982C61.4392 196.506 88.883 140.247 135.284 103.454V137.647C135.284 140.475 137.574 142.767 140.404 142.767C143.234 142.767 145.524 140.475 145.524 137.647V93.0375C145.524 92.9572 145.482 92.8909 145.479 92.8115C145.45 92.3359 145.362 91.8831 145.199 91.4234C145.105 91.1469 144.99 90.8981 144.853 90.645C144.764 90.485 144.743 90.3053 144.634 90.1525C144.549 90.0328 144.42 89.9734 144.326 89.8634C144.056 89.5294 143.75 89.2556 143.405 88.9984C143.245 88.8847 143.097 88.7706 142.928 88.6769C142.484 88.4187 142.01 88.2531 141.494 88.1375C141.387 88.1153 141.286 88.089 141.178 88.0737C140.915 88.0322 140.679 87.9175 140.404 87.9175H95.7892C92.9592 87.9175 90.6692 90.21 90.6692 93.0375C90.6692 95.865 92.9592 98.1575 95.7892 98.1575H125.594C78.7842 136.906 51.1992 194.822 51.1992 255.982Z" fill="white"/>
<path d="M256 51.2C232.135 51.2 208.75 55.27 186.5 63.295C183.84 64.255 182.46 67.19 183.42 69.85C184.375 72.505 187.325 73.8825 189.97 72.93C211.105 65.305 233.32 61.44 256 61.44C363.28 61.44 450.56 148.712 450.56 255.982C450.56 313.837 424.339 369.104 379.955 405.894V372.022C379.955 369.195 377.665 366.902 374.835 366.902C372.005 366.902 369.715 369.195 369.715 372.022V415.668C369.668 415.951 369.715 416.234 369.715 416.522V416.635C369.715 416.646 369.722 416.656 369.722 416.667C369.738 417.244 369.847 417.797 370.061 418.349C370.143 418.577 370.249 418.777 370.361 418.988C370.466 419.177 370.499 419.387 370.63 419.565C370.704 419.664 370.823 419.699 370.902 419.792C371.335 420.332 371.853 420.772 372.468 421.101C372.473 421.103 372.477 421.108 372.482 421.11C373.196 421.487 373.972 421.755 374.835 421.755H419.445C422.275 421.755 424.565 419.462 424.565 416.635C424.565 413.807 422.275 411.515 419.445 411.515H389.13C434.224 372.807 460.8 315.716 460.8 255.982C460.8 143.065 368.925 51.2 256 51.2Z" fill="white"/>
<path d="M256.001 182.008C215.201 182.008 182.006 215.2 182.006 256C182.006 296.8 215.201 329.993 256.001 329.993C296.801 329.993 329.996 296.8 329.996 256C329.996 215.2 296.801 182.008 256.001 182.008ZM256.001 319.753C220.846 319.753 192.246 291.153 192.246 256C192.246 220.848 220.846 192.248 256.001 192.248C291.156 192.248 319.756 220.848 319.756 256C319.756 291.153 291.156 319.753 256.001 319.753Z" fill="white"/>
<path d="M335.546 139.733C335.316 138.298 334.491 137.03 333.271 136.24C318.756 126.855 302.866 120.265 286.051 116.655C284.636 116.35 283.146 116.66 281.971 117.515C280.796 118.368 280.036 119.678 279.886 121.123C278.591 133.365 268.326 142.595 256.001 142.595C243.676 142.595 233.411 133.365 232.116 121.123C231.966 119.678 231.206 118.368 230.031 117.515C228.861 116.66 227.366 116.355 225.951 116.655C209.136 120.265 193.246 126.855 178.731 136.24C177.511 137.03 176.686 138.298 176.456 139.733C176.226 141.165 176.616 142.628 177.526 143.758C185.256 153.325 184.521 167.105 175.811 175.813C167.096 184.518 153.321 185.255 143.761 177.528C142.631 176.618 141.166 176.223 139.731 176.455C138.301 176.683 137.031 177.51 136.241 178.73C126.856 193.245 120.266 209.133 116.656 225.953C116.351 227.373 116.661 228.858 117.516 230.033C118.366 231.21 119.681 231.968 121.126 232.12C133.366 233.408 142.596 243.673 142.596 256C142.596 268.328 133.366 278.593 121.126 279.88C119.681 280.033 118.366 280.79 117.516 281.968C116.661 283.143 116.351 284.628 116.656 286.048C120.266 302.868 126.856 318.755 136.241 333.27C137.031 334.49 138.301 335.318 139.731 335.545C141.166 335.788 142.631 335.385 143.761 334.473C153.316 326.74 167.096 327.473 175.811 336.188C184.521 344.895 185.256 358.675 177.526 368.243C176.616 369.373 176.226 370.835 176.456 372.268C176.686 373.703 177.511 374.97 178.731 375.76C193.246 385.145 209.136 391.735 225.951 395.345C227.361 395.658 228.856 395.34 230.031 394.485C231.206 393.633 231.966 392.323 232.116 390.878C233.411 378.635 243.676 369.405 256.001 369.405C268.326 369.405 278.591 378.635 279.886 390.878C280.036 392.323 280.796 393.633 281.971 394.485C282.851 395.125 283.906 395.46 284.976 395.46C285.336 395.46 285.696 395.423 286.051 395.345C302.866 391.735 318.756 385.145 333.271 375.76C334.491 374.97 335.316 373.703 335.546 372.268C335.776 370.835 335.386 369.373 334.476 368.243C326.746 358.675 327.481 344.895 336.191 336.188C344.901 327.48 358.676 326.738 368.241 334.473C369.376 335.385 370.846 335.788 372.271 335.545C373.701 335.318 374.971 334.49 375.761 333.27C385.146 318.755 391.736 302.868 395.346 286.048C395.651 284.628 395.341 283.143 394.486 281.968C393.636 280.79 392.321 280.033 390.876 279.88C378.636 278.593 369.406 268.328 369.406 256C369.406 243.673 378.636 233.408 390.876 232.12C392.321 231.968 393.636 231.21 394.486 230.033C395.341 228.858 395.651 227.373 395.346 225.953C391.736 209.133 385.146 193.245 375.761 178.73C374.971 177.51 373.701 176.683 372.271 176.455C370.846 176.223 369.376 176.618 368.241 177.528C358.681 185.25 344.901 184.518 336.191 175.813C327.481 167.105 326.746 153.325 334.476 143.758C335.386 142.628 335.776 141.165 335.546 139.733ZM369.911 188.73C376.276 199.475 381.046 210.968 384.136 223.013C369.566 227.073 359.166 240.378 359.166 256C359.166 271.623 369.566 284.928 384.136 288.988C381.046 301.033 376.276 312.525 369.911 323.27C356.736 315.848 339.986 317.91 328.951 328.948C317.911 339.983 315.851 356.735 323.271 369.91C312.526 376.278 301.036 381.045 288.986 384.135C284.926 369.565 271.621 359.165 256.001 359.165C240.381 359.165 227.076 369.565 223.016 384.135C210.966 381.045 199.476 376.278 188.731 369.91C196.151 356.735 194.091 339.983 183.051 328.948C172.016 317.913 155.266 315.86 142.091 323.27C135.726 312.525 130.956 301.033 127.866 288.988C142.436 284.928 152.836 271.623 152.836 256C152.836 240.378 142.436 227.073 127.866 223.013C130.956 210.968 135.726 199.475 142.091 188.73C155.261 196.148 172.016 194.09 183.051 183.053C194.091 172.018 196.151 155.265 188.731 142.09C199.476 135.723 210.966 130.955 223.016 127.865C227.076 142.435 240.381 152.835 256.001 152.835C271.621 152.835 284.926 142.435 288.986 127.865C301.036 130.955 312.526 135.723 323.271 142.09C315.851 155.265 317.911 172.018 328.951 183.053C339.986 194.095 356.741 196.148 369.911 188.73Z" fill="white"/>
</svg>
