<svg width="512" height="512" viewBox="0 0 512 512" fill="none" xmlns="http://www.w3.org/2000/svg">
<path d="M211.584 365.036C217.239 365.036 221.824 360.452 221.824 354.796C221.824 349.141 217.239 344.556 211.584 344.556C205.928 344.556 201.344 349.141 201.344 354.796C201.344 360.452 205.928 365.036 211.584 365.036Z" fill="#CF0042"/>
<path d="M404.416 220.469H412.133C417.57 220.469 421.979 216.06 421.979 210.623C421.979 205.185 417.57 200.776 412.133 200.776H404.416C398.979 200.776 394.57 205.185 394.57 210.623C394.57 216.06 398.979 220.469 404.416 220.469Z" fill="#CF0042"/>
<path d="M408.272 396.45C402.834 396.45 398.041 401.243 398.041 406.68C398.041 412.118 402.834 416.916 408.272 416.916C413.709 416.916 418.507 412.118 418.507 406.68C418.507 401.243 413.709 396.45 408.272 396.45Z" fill="#CF0042"/>
<path d="M493.368 196.796C493.368 181.555 480.969 169.156 465.729 169.156H404.522V95.5649C404.522 79.5985 391.532 66.6082 375.566 66.6082H47.5895C31.6232 66.6082 18.6328 79.5985 18.6328 95.5649V363.762C18.6328 379.772 31.6232 392.8 47.5895 392.8H158.807L139.695 425.7H124.46C119.022 425.7 114.614 430.108 114.614 435.546C114.614 440.983 119.022 445.392 124.46 445.392H298.71C304.147 445.392 308.556 440.983 308.556 435.546C308.556 430.108 304.147 425.7 298.71 425.7H283.474L264.359 392.8H323.195V417.695C323.195 432.969 335.594 445.392 350.835 445.392H465.729C480.969 445.392 493.368 432.969 493.368 417.695C493.368 301.02 493.368 295.725 493.368 196.796ZM342.888 250.844H473.676V367.031H342.888V250.844ZM473.676 196.796V231.151H342.888V196.796C342.888 192.416 346.455 188.849 350.835 188.849H465.729C470.109 188.849 473.676 192.416 473.676 196.796ZM47.5895 86.3005H375.566C380.676 86.3005 384.83 90.4543 384.83 95.5649V169.156H350.835C335.594 169.156 323.195 181.555 323.195 196.796V316.175H38.3251V95.5649C38.3251 90.4543 42.479 86.3005 47.5895 86.3005ZM38.3251 363.762V335.868H323.195V373.108C40.4384 373.025 389.223 373.102 47.5895 373.108C42.479 373.108 38.3251 368.916 38.3251 363.762ZM260.695 425.7H162.469L181.584 392.8H241.581L260.695 425.7ZM465.729 425.7H350.835C346.455 425.7 342.888 422.108 342.888 417.695V386.724H473.676V417.695C473.676 422.108 470.109 425.7 465.729 425.7Z" fill="#CF0042"/>
<path d="M77.8732 184.988H123.166C132.392 184.988 139.902 177.478 139.902 168.248V123.055C139.902 113.824 132.392 106.315 123.166 106.315H77.8732C68.6424 106.315 61.1328 113.824 61.1328 123.055V168.248C61.1328 177.478 68.6424 184.988 77.8732 184.988ZM80.8251 126.007H120.21V165.296H80.8251V126.007Z" fill="#CF0042"/>
<path d="M77.8732 292.079H123.166C132.392 292.079 139.902 284.57 139.902 275.339V230.147C139.902 220.916 132.392 213.406 123.166 213.406H77.8732C68.6424 213.406 61.1328 220.916 61.1328 230.147V275.339C61.1328 284.57 68.6424 292.079 77.8732 292.079ZM80.8251 233.099H120.21V272.387H80.8251V233.099Z" fill="#CF0042"/>
<path d="M176.715 126.007H285.177C290.614 126.007 295.023 121.599 295.023 116.161C295.023 110.724 290.614 106.315 285.177 106.315H176.715C171.278 106.315 166.869 110.724 166.869 116.161C166.869 121.599 171.278 126.007 176.715 126.007Z" fill="#CF0042"/>
<path d="M176.715 181.363H285.177C290.614 181.363 295.023 176.954 295.023 171.517C295.023 166.079 290.614 161.671 285.177 161.671H176.715C171.278 161.671 166.869 166.079 166.869 171.517C166.869 176.954 171.278 181.363 176.715 181.363Z" fill="#CF0042"/>
<path d="M176.715 236.724H285.177C290.614 236.724 295.023 232.315 295.023 226.877C295.023 221.44 290.614 217.031 285.177 217.031H176.715C171.278 217.031 166.869 221.44 166.869 226.877C166.869 232.315 171.278 236.724 176.715 236.724Z" fill="#CF0042"/>
<path d="M176.715 292.079H285.177C290.614 292.079 295.023 287.671 295.023 282.233C295.023 276.796 290.614 272.387 285.177 272.387H176.715C171.278 272.387 166.869 276.796 166.869 282.233C166.869 287.671 171.278 292.079 176.715 292.079Z" fill="#CF0042"/>
</svg>
