<svg width="512" height="512" viewBox="0 0 512 512" fill="none" xmlns="http://www.w3.org/2000/svg">
<g clip-path="url(#clip0_301_12)">
<path d="M448 128H106.667C88.3413 128 70.9973 120.064 58.9867 106.688C70.72 93.5894 87.7653 85.3334 106.667 85.3334H490.667C502.464 85.3334 512 75.776 512 64C512 52.224 502.464 42.6667 490.667 42.6667H106.667C47.7653 42.6667 0 90.432 0 149.333V362.667C0 421.568 47.7653 469.333 106.667 469.333H448C483.349 469.333 512 440.683 512 405.333V192C512 156.651 483.349 128 448 128ZM469.333 405.333C469.333 417.088 459.776 426.667 448 426.667H106.667C71.3813 426.667 42.6667 397.952 42.6667 362.667V149.291C60.8853 162.923 83.2853 170.667 106.667 170.667H448C459.776 170.667 469.333 180.245 469.333 192V405.333ZM426.667 298.667C426.667 310.443 417.109 320 405.333 320C393.557 320 384 310.443 384 298.667C384 286.891 393.557 277.333 405.333 277.333C417.109 277.333 426.667 286.891 426.667 298.667Z" fill="#CF0042"/>
</g>
<defs>
<clipPath id="clip0_301_12">
<rect width="512" height="512" fill="white"/>
</clipPath>
</defs>
</svg>
