<svg width="512" height="512" viewBox="0 0 512 512" fill="none" xmlns="http://www.w3.org/2000/svg">
<path d="M213.333 405.333C213.333 381.867 232.533 362.667 256 362.667C279.467 362.667 298.667 381.867 298.667 405.333C298.667 428.8 279.467 448 256 448C232.533 448 213.333 428.8 213.333 405.333ZM391.68 314.88C404.267 302.293 404.267 282.027 391.68 269.653C316.8 194.773 194.987 194.773 120.107 269.653C107.52 282.24 107.52 302.507 120.107 314.88C132.693 327.253 152.96 327.467 165.333 314.88C215.253 264.96 296.533 264.96 346.453 314.88C352.64 321.067 360.96 324.267 369.067 324.267C377.173 324.267 385.493 321.067 391.68 314.88ZM501.973 215.253C514.773 203.093 515.2 182.827 503.04 170.027C501.12 168.107 499.2 165.973 497.28 164.053C432.853 99.6267 347.093 64 256 64C164.907 64 79.1467 99.4133 14.72 163.84C12.8 165.76 10.88 167.893 8.96004 169.813C-3.19996 182.613 -2.77329 202.88 10.0267 215.04C22.8267 227.2 43.0934 226.773 55.2534 213.973L59.9467 209.067C112.427 156.587 181.973 127.787 256 127.787C330.027 127.787 399.787 156.587 452.267 209.067L456.96 213.76C463.147 220.373 471.68 223.573 480 223.573C487.893 223.573 496 220.587 502.187 214.827L501.973 215.253Z" fill="#CF0042"/>
</svg>
