<svg width="60" height="60" viewBox="0 0 60 60" fill="none" xmlns="http://www.w3.org/2000/svg">
<path d="M48.1045 31.9622C47.9525 31.962 47.8035 31.9191 47.6747 31.8383C47.5459 31.7575 47.4424 31.6421 47.376 31.5053C47.3096 31.3685 47.2831 31.2158 47.2993 31.0646C47.3156 30.9134 47.3741 30.7698 47.468 30.6503C47.9635 30.0187 48.441 29.387 48.8999 28.7546C49.0274 28.5843 49.2166 28.4709 49.4268 28.4388C49.6371 28.4067 49.8515 28.4585 50.024 28.5831C50.1964 28.7076 50.3129 28.8949 50.3485 29.1046C50.3841 29.3143 50.3359 29.5296 50.2143 29.7041C49.7456 30.3527 49.2526 31.0014 48.7435 31.65C48.6677 31.7472 48.5707 31.8258 48.46 31.8799C48.3493 31.934 48.2277 31.9621 48.1045 31.9622Z" fill="#CC0444"/>
<path d="M26.6999 48.3811C26.4849 48.381 26.2787 48.2956 26.1267 48.1435L11.8564 33.8732C11.7369 33.7537 11.6577 33.5998 11.6299 33.4331C11.6021 33.2663 11.6272 33.0951 11.7015 32.9433C12.8209 30.6537 14.0544 28.4217 15.3972 26.2557C17.1714 23.3544 19.1762 20.6006 21.3924 18.0211C29.9683 8.06514 39.308 4.18541 45.6332 2.68379C49.5096 1.68126 53.535 1.38518 57.5164 1.80973C57.6856 1.83659 57.8419 1.91634 57.9629 2.03753C58.084 2.15872 58.1635 2.31513 58.1902 2.48433C58.2567 2.90271 59.7413 12.8716 53.3675 24.6851C53.2611 24.8661 53.0888 24.9988 52.8866 25.0553C52.6844 25.1118 52.4682 25.0876 52.2834 24.988C52.0987 24.8883 51.9598 24.7209 51.896 24.5209C51.8322 24.3209 51.8484 24.1039 51.9413 23.9157C55.4349 17.6462 57.0706 10.5114 56.6569 3.34622C53.3148 3.05676 36.8318 2.58244 22.6215 19.0808C20.4617 21.5954 18.5078 24.2797 16.7788 27.1078C15.5853 29.0295 14.4559 31.0541 13.4164 33.1362L26.8621 46.586C28.9491 45.5441 30.9737 44.4146 32.888 43.2251C35.7157 41.4951 38.4 39.541 40.9151 37.3816C41.854 36.5773 42.7994 35.7049 43.7286 34.787C43.8821 34.6399 44.0873 34.5589 44.3 34.5616C44.5126 34.5643 44.7157 34.6504 44.8654 34.8014C45.0152 34.9525 45.0996 35.1563 45.1005 35.3689C45.1014 35.5816 45.0187 35.7861 44.8702 35.9384C43.9134 36.887 42.9388 37.787 41.9732 38.6141C39.3928 40.829 36.6388 42.8332 33.7378 44.6076C31.5725 45.9499 29.3413 47.1828 27.0526 48.3016C26.9426 48.3546 26.822 48.3817 26.6999 48.3811Z" fill="#CC0444"/>
<path d="M55.5575 18.3803C55.3424 18.3802 55.1362 18.2948 54.9842 18.1427L41.8564 5.01568C41.7042 4.86365 41.6187 4.6574 41.6187 4.44232C41.6186 4.22724 41.7039 4.02093 41.856 3.86879C42.008 3.71665 42.2143 3.63113 42.4293 3.63106C42.6444 3.63098 42.8507 3.71635 43.0029 3.86838L56.1315 16.9962C56.2449 17.1097 56.3221 17.2542 56.3534 17.4115C56.3846 17.5689 56.3685 17.7319 56.3071 17.8801C56.2456 18.0283 56.1416 18.1549 56.0081 18.2439C55.8747 18.3329 55.7179 18.3804 55.5575 18.3803Z" fill="#CC0444"/>
<path d="M38.4778 28.3735C37.3509 28.3734 36.2413 28.0953 35.2475 27.5639C34.2537 27.0326 33.4062 26.2643 32.7802 25.3272C32.1542 24.3901 31.769 23.3131 31.6587 22.1915C31.5483 21.07 31.7163 19.9385 32.1477 18.8974C32.579 17.8562 33.2605 16.9376 34.1317 16.2227C35.003 15.5079 36.037 15.0189 37.1424 14.7991C38.2477 14.5794 39.3902 14.6356 40.4686 14.9628C41.547 15.2901 42.528 15.8782 43.3249 16.6751C44.2836 17.6335 44.9366 18.8547 45.2011 20.1842C45.4656 21.5137 45.3299 22.8919 44.811 24.1442C44.2921 25.3966 43.4134 26.4669 42.2861 27.2197C41.1587 27.9725 39.8334 28.3741 38.4778 28.3735ZM38.4778 16.2924C37.2688 16.2939 36.0978 16.7145 35.1641 17.4826C34.2304 18.2506 33.5918 19.3186 33.3572 20.5046C33.1226 21.6906 33.3064 22.9213 33.8773 23.987C34.4482 25.0527 35.3709 25.8875 36.4883 26.3492C37.6056 26.811 38.8485 26.871 40.0052 26.5192C41.1618 26.1674 42.1608 25.4255 42.8318 24.4198C43.5029 23.4142 43.8045 22.207 43.6854 21.0038C43.5662 19.8007 43.0336 18.6761 42.1784 17.8216C41.6926 17.3356 41.1157 16.9503 40.4806 16.6879C39.8456 16.4255 39.165 16.2911 38.4778 16.2924Z" fill="#CC0444"/>
<path d="M3.38507 27.8343C3.26754 27.8343 3.15142 27.8088 3.04475 27.7595C2.93808 27.7101 2.8434 27.6382 2.76728 27.5487C2.69116 27.4591 2.63541 27.3541 2.6039 27.2409C2.57239 27.1277 2.56587 27.009 2.5848 26.893C2.87932 25.0756 3.56032 23.3425 4.58182 21.8108C6.44841 18.9473 9.3632 16.9296 12.7006 16.191C16.038 15.4523 19.532 16.0514 22.4326 17.8597C22.607 17.9766 22.7292 18.1565 22.7737 18.3616C22.8181 18.5667 22.7812 18.7811 22.6709 18.9596C22.5605 19.1381 22.3852 19.2669 22.1819 19.3188C21.9785 19.3708 21.7629 19.3418 21.5805 19.2381C19.0377 17.6516 15.9741 17.126 13.048 17.7742C10.1219 18.4223 7.56677 20.1925 5.93182 22.7043C5.36793 23.5501 4.92066 24.4681 4.60209 25.4335C6.48377 24.5753 8.5426 24.1771 10.6086 24.2717C12.6745 24.3663 14.6883 24.951 16.4837 25.9776C16.5762 26.0303 16.6575 26.1007 16.7228 26.1848C16.7881 26.2689 16.8362 26.365 16.8644 26.4677C16.8925 26.5704 16.9002 26.6777 16.8869 26.7833C16.8736 26.889 16.8397 26.991 16.787 27.0835C16.7343 27.176 16.6638 27.2573 16.5797 27.3226C16.4956 27.3879 16.3995 27.436 16.2968 27.4642C16.1941 27.4923 16.0869 27.5 15.9812 27.4867C15.8755 27.4734 15.7735 27.4395 15.681 27.3867C13.8649 26.3479 11.7983 25.8279 9.70686 25.8837C7.61538 25.9395 5.57942 26.5688 3.82128 27.703C3.69142 27.7875 3.54004 27.8331 3.38507 27.8343Z" fill="#CC0444"/>
<path d="M32.9765 57.4257C32.831 57.4256 32.6882 57.3863 32.5631 57.312C32.438 57.2378 32.3352 57.1312 32.2655 57.0035C32.1957 56.8758 32.1616 56.7317 32.1668 56.5862C32.1719 56.4408 32.2161 56.2995 32.2946 56.177C33.4288 54.4187 34.0581 52.3826 34.1139 50.291C34.1696 48.1994 33.6497 46.1327 32.6109 44.3165C32.5044 44.1296 32.4766 43.9081 32.5334 43.7007C32.5903 43.4933 32.7272 43.317 32.9141 43.2105C33.101 43.1041 33.3225 43.0762 33.5299 43.1331C33.7373 43.19 33.9136 43.3269 34.02 43.5138C35.047 45.309 35.6319 47.3229 35.7265 49.3889C35.8211 51.4549 35.4227 53.5138 34.5641 55.3954C35.5284 55.0774 36.4453 54.6306 37.29 54.0673C39.8017 52.4323 41.572 49.8775 42.2209 46.9517C42.8697 44.0258 42.3453 40.9621 40.7603 38.4186C40.6988 38.3281 40.6563 38.2261 40.6353 38.1187C40.6143 38.0113 40.6153 37.9007 40.6381 37.7937C40.661 37.6867 40.7053 37.5854 40.7683 37.496C40.8314 37.4065 40.9119 37.3308 41.005 37.2733C41.0981 37.2158 41.2019 37.1777 41.3101 37.1614C41.4183 37.145 41.5287 37.1508 41.6346 37.1782C41.7405 37.2057 41.8398 37.2544 41.9264 37.3212C42.0131 37.3881 42.0853 37.4718 42.1387 37.5673C43.9479 40.4678 44.5477 43.9621 43.8093 47.2999C43.0708 50.6378 41.0531 53.553 38.1892 55.4197C36.6587 56.4403 34.927 57.1208 33.1111 57.4151C33.0666 57.4225 33.0216 57.426 32.9765 57.4257Z" fill="#CC0444"/>
<path d="M13.5057 58.3784C13.3454 58.3784 13.1886 58.3308 13.0553 58.2417C12.922 58.1526 12.8181 58.026 12.7568 57.8778C12.6954 57.7297 12.6794 57.5667 12.7106 57.4094C12.7419 57.2522 12.8191 57.1077 12.9325 56.9943L20.0676 49.8592C20.2205 49.7115 20.4253 49.6298 20.6379 49.6316C20.8505 49.6335 21.0539 49.7187 21.2042 49.8691C21.3545 50.0194 21.4398 50.2228 21.4417 50.4354C21.4435 50.6479 21.3618 50.8528 21.2141 51.0057L14.079 58.1408C13.9269 58.2929 13.7207 58.3783 13.5057 58.3784Z" fill="#CC0444"/>
<path d="M3.5101 57.3008C3.34976 57.3008 3.19303 57.2532 3.05973 57.1641C2.92642 57.075 2.82253 56.9484 2.76117 56.8003C2.69982 56.6521 2.68376 56.4891 2.71503 56.3319C2.7463 56.1746 2.8235 56.0301 2.93686 55.9168L10.072 48.7816C10.1468 48.7042 10.2363 48.6424 10.3352 48.5999C10.4341 48.5574 10.5405 48.5351 10.6482 48.5341C10.7558 48.5332 10.8626 48.5537 10.9622 48.5945C11.0619 48.6352 11.1524 48.6954 11.2285 48.7716C11.3047 48.8477 11.3649 48.9382 11.4056 49.0379C11.4464 49.1375 11.4669 49.2443 11.466 49.3519C11.465 49.4596 11.4427 49.566 11.4002 49.6649C11.3577 49.7638 11.2959 49.8533 11.2185 49.9281L4.08334 57.0632C3.93132 57.2153 3.72512 57.3008 3.5101 57.3008Z" fill="#CC0444"/>
<path d="M2.43246 47.3043C2.27213 47.3043 2.1154 47.2567 1.98209 47.1676C1.84879 47.0785 1.74489 46.9519 1.68354 46.8038C1.62218 46.6556 1.60613 46.4926 1.6374 46.3354C1.66867 46.1781 1.74586 46.0337 1.85922 45.9203L8.99436 38.7851C9.06915 38.7077 9.15862 38.6459 9.25754 38.6034C9.35646 38.5609 9.46286 38.5386 9.57052 38.5376C9.67818 38.5367 9.78494 38.5572 9.88459 38.598C9.98423 38.6387 10.0748 38.6989 10.1509 38.7751C10.227 38.8512 10.2872 38.9417 10.328 39.0414C10.3688 39.141 10.3893 39.2478 10.3883 39.3555C10.3874 39.4631 10.365 39.5695 10.3225 39.6684C10.2801 39.7674 10.2183 39.8568 10.1408 39.9316L3.00571 47.0667C2.93062 47.1423 2.84129 47.2022 2.74289 47.243C2.64449 47.2838 2.53898 47.3046 2.43246 47.3043Z" fill="#CC0444"/>
</svg>
