<svg width="60" height="60" viewBox="0 0 60 60" fill="none" xmlns="http://www.w3.org/2000/svg">
<path d="M58.4883 21.8209L55.469 19.2116C55.0945 18.8877 54.5281 18.9291 54.2043 19.3038C53.8805 19.6785 53.9217 20.2447 54.2965 20.5685L57.3156 23.1778C58.3919 24.1079 58.5107 25.7402 57.5807 26.8165L37.9697 49.5082C37.646 49.8828 37.6871 50.4491 38.0619 50.773C38.2314 50.9196 38.4401 50.9913 38.6478 50.9913C38.8994 50.9913 39.1494 50.8861 39.3267 50.681L58.9375 27.9891C60.5143 26.1647 60.3127 23.3975 58.4883 21.8209Z" fill="#CC0444"/>
<path d="M53.1727 17.2269L39.2059 5.15649C38.322 4.39266 37.1935 4.01918 36.0287 4.10356C34.8636 4.18828 33.8014 4.72184 33.0376 5.60555L31.7068 7.14539C31.383 7.52016 31.4242 8.08641 31.7989 8.4102C32.1738 8.73422 32.7399 8.69274 33.0637 8.31809L34.3945 6.77825C34.8451 6.257 35.4717 5.94223 36.159 5.89219C36.8463 5.84168 37.5118 6.0627 38.0332 6.51328L52.0001 18.5837C52.1696 18.7303 52.3783 18.802 52.586 18.802C52.8376 18.802 53.0876 18.6968 53.2649 18.4917C53.5885 18.117 53.5474 17.5507 53.1727 17.2269Z" fill="#CC0444"/>
<path d="M44.6599 14.0569L20.4973 5.95242C18.2108 5.18555 15.7273 6.42176 14.9605 8.70785L14.6418 9.65813C14.4843 10.1276 14.7373 10.6359 15.2068 10.7934C15.6764 10.9509 16.1845 10.698 16.3422 10.2284L16.6609 9.27809C17.1132 7.92938 18.5782 7.20012 19.927 7.65258L44.0898 15.7569C45.4385 16.2094 46.1677 17.6745 45.7153 19.023L34.4732 52.541C34.3157 53.0105 34.5687 53.5187 35.0382 53.6763C35.1328 53.708 35.2289 53.7231 35.3235 53.7231C35.6982 53.7231 36.0477 53.4863 36.1736 53.1114L47.4157 19.5935C48.1823 17.3075 46.9463 14.8236 44.6599 14.0569Z" fill="#CC0444"/>
<path d="M29.8588 11.8089H4.3732C1.96184 11.8089 0 13.7706 0 16.182V51.535C0 53.9463 1.96184 55.9082 4.3732 55.9082H29.8589C32.2703 55.9082 34.2321 53.9463 34.2321 51.535V16.182C34.232 13.7706 32.2703 11.8089 29.8588 11.8089ZM32.4386 51.535C32.4386 52.9575 31.2812 54.1147 29.8588 54.1147H4.3732C2.95066 54.1147 1.79344 52.9574 1.79344 51.535V16.182C1.79344 14.7594 2.95078 13.6022 4.3732 13.6022H29.8589C31.2814 13.6022 32.4387 14.7595 32.4387 16.182V51.535H32.4386Z" fill="#CC0444"/>
<path d="M30.3255 36.5578H3.90648C3.41125 36.5578 3.00977 36.9593 3.00977 37.4545C3.00977 37.9498 3.41125 38.3513 3.90648 38.3513H30.3256C30.8208 38.3513 31.2223 37.9498 31.2223 37.4545C31.2222 36.9593 30.8207 36.5578 30.3255 36.5578Z" fill="#CC0444"/>
<path d="M26.1452 41.6857H15.0413C14.546 41.6857 14.1445 42.0872 14.1445 42.5824C14.1445 43.0777 14.546 43.4791 15.0413 43.4791H26.1452C26.6405 43.4791 27.042 43.0777 27.042 42.5824C27.042 42.0872 26.6405 41.6857 26.1452 41.6857Z" fill="#CC0444"/>
<path d="M12.0522 41.6857H8.08666C7.59143 41.6857 7.18994 42.0872 7.18994 42.5824C7.18994 43.0777 7.59143 43.4791 8.08666 43.4791H12.0522C12.5474 43.4791 12.9489 43.0777 12.9489 42.5824C12.9489 42.0872 12.5474 41.6857 12.0522 41.6857Z" fill="#CC0444"/>
<path d="M26.1453 45.1136H8.08666C7.59143 45.1136 7.18994 45.515 7.18994 46.0103C7.18994 46.5055 7.59143 46.907 8.08666 46.907H26.1453C26.6405 46.907 27.042 46.5055 27.042 46.0103C27.042 45.5149 26.6405 45.1136 26.1453 45.1136Z" fill="#CC0444"/>
<path d="M26.1453 48.5413H8.08666C7.59143 48.5413 7.18994 48.9428 7.18994 49.438C7.18994 49.9332 7.59143 50.3347 8.08666 50.3347H26.1453C26.6405 50.3347 27.042 49.9332 27.042 49.438C27.042 48.9428 26.6405 48.5413 26.1453 48.5413Z" fill="#CC0444"/>
<path d="M26.9715 22.2131C26.866 21.8885 26.5855 21.6519 26.2478 21.6029L20.4935 20.7668L17.9202 15.5525C17.769 15.2464 17.4574 15.0526 17.116 15.0526C16.7748 15.0526 16.4631 15.2464 16.3119 15.5525L13.7385 20.7668L7.98421 21.6029C7.64647 21.6519 7.36581 21.8885 7.26046 22.2131C7.15499 22.5377 7.243 22.894 7.48733 23.1322L11.6512 27.1909L10.6683 32.9221C10.6106 33.2584 10.7489 33.5984 11.025 33.799C11.1812 33.9124 11.3662 33.9702 11.5521 33.9702C11.6947 33.9702 11.838 33.9361 11.9693 33.8673L17.116 31.1613L22.2628 33.8673C22.5649 34.0261 22.931 33.9996 23.2071 33.799C23.4833 33.5984 23.6215 33.2584 23.5638 32.9221L22.5808 27.1909L26.7446 23.1322C26.989 22.894 27.077 22.5377 26.9715 22.2131ZM20.9916 26.2358C20.7801 26.4418 20.6837 26.7387 20.7336 27.0295L21.4891 31.4345L17.5332 29.3546C17.2719 29.2174 16.9598 29.2174 16.6987 29.3546L12.7428 31.4345L13.4983 27.0295C13.5482 26.7387 13.4518 26.4418 13.2404 26.2358L10.0401 23.1163L14.4629 22.4735C14.7549 22.4311 15.0074 22.2477 15.138 21.983L17.1159 17.9752L19.0938 21.983C19.2244 22.2476 19.4769 22.4311 19.7689 22.4735L24.1918 23.1163L20.9916 26.2358Z" fill="#CC0444"/>
</svg>
