<?xml version="1.0" encoding="UTF-8"?>
<svg id="Layer_2" data-name="Layer 2" xmlns="http://www.w3.org/2000/svg" viewBox="0 0 72 72">
  <defs>
    <style>
      .cls-1 {
        fill: none;
        stroke: #0195ff;
        stroke-linecap: round;
        stroke-linejoin: round;
        stroke-width: 2px;
      }
    </style>
  </defs>
  <g id="Layer_1-2" data-name="Layer 1">
    <g>
      <path class="cls-1" d="m10.77,1H3.85c-1.57,0-2.85,1.27-2.85,2.85v64.31c0,1.57,1.27,2.85,2.85,2.85h14.23"/>
      <path class="cls-1" d="m15.7,1h52.45c1.57,0,2.85,1.27,2.85,2.85v64.31c0,1.57-1.27,2.85-2.85,2.85H23"/>
      <line class="cls-1" x1="1" y1="9.82" x2="71" y2="9.82"/>
      <g>
        <line class="cls-1" x1="6.69" y1="5.41" x2="6.69" y2="5.41"/>
        <line class="cls-1" x1="10.96" y1="5.41" x2="10.96" y2="5.41"/>
        <line class="cls-1" x1="15.23" y1="5.41" x2="15.23" y2="5.41"/>
      </g>
      <path class="cls-1" d="m8.4,62.28v-3.51c0-1.11,1.21-1.79,2.15-1.22l2.93,1.76c.92.55.92,1.89,0,2.44l-2.93,1.76c-.95.57-2.15-.11-2.15-1.22Z"/>
      <line class="cls-1" x1="63.6" y1="60.52" x2="40.98" y2="60.52"/>
      <line class="cls-1" x1="36.71" y1="60.52" x2="18.44" y2="60.52"/>
      <circle class="cls-1" cx="38.85" cy="60.52" r="2.13"/>
      <path class="cls-1" d="m52.09,16.37h6.96c2.51,0,4.55,2.04,4.55,4.55v26.46c0,2.52-2.04,4.55-4.55,4.55H12.95c-2.51,0-4.55-2.04-4.55-4.55v-26.46c0-2.51,2.04-4.55,4.55-4.55h34.21"/>
      <circle class="cls-1" cx="22.34" cy="38.28" r="4.27"/>
      <path class="cls-1" d="m31.73,51.93c0-5.19-4.2-9.39-9.39-9.39s-9.39,4.2-9.39,9.39h18.78Z"/>
      <path class="cls-1" d="m55.92,20.63h-21.63c-1.89,0-3.41,1.53-3.41,3.41v13.09c0,1.89,1.53,3.41,3.41,3.41h1.06v2.6c0,.7.79,1.1,1.35.69l4.57-3.29h14.64c1.89,0,3.41-1.53,3.41-3.41v-13.09c0-1.89-1.53-3.41-3.41-3.41Z"/>
      <g>
        <line class="cls-1" x1="46.53" y1="34.86" x2="35.15" y2="34.86"/>
        <g>
          <line class="cls-1" x1="48.52" y1="30.59" x2="53.64" y2="30.59"/>
          <line class="cls-1" x1="35.15" y1="30.59" x2="43.97" y2="30.59"/>
          <line class="cls-1" x1="53.64" y1="26.33" x2="35.15" y2="26.33"/>
        </g>
      </g>
    </g>
  </g>
</svg>