<?xml version="1.0" encoding="UTF-8"?>
<svg id="Layer_2" data-name="Layer 2" xmlns="http://www.w3.org/2000/svg" viewBox="0 0 45.68 45.37">
  <defs>
    <style>
      .cls-1 {
        fill: none;
        stroke: #6a26da;
        stroke-linecap: round;
        stroke-linejoin: round;
        stroke-width: 2px;
      }
    </style>
  </defs>
  <g id="Layer_1-2" data-name="Layer 1">
    <g id="g2733">
      <g id="g2735">
        <g id="g2737">
          <g id="g2743">
            <path id="path2745" class="cls-1" d="m20.54,14.14v-5.38h-2.98c-1.38,0-2.03-1.7-1.01-2.62l5.28-4.75c.57-.51,1.44-.51,2.01,0l5.28,4.75c1.02.92.37,2.62-1.01,2.62h-2.98v10.93"/>
          </g>
          <g id="g2747">
            <path id="path2749" class="cls-1" d="m20.54,27.56v-10.78"/>
          </g>
          <g id="g2751">
            <path id="path2753" class="cls-1" d="m25.14,36.11v-8.55c0-2.44,1.98-4.42,4.42-4.42h7.36v3.1c0,1.38,1.7,2.03,2.62,1.01l1.17-1.3"/>
          </g>
          <g id="g2755">
            <path id="path2757" class="cls-1" d="m20.54,28.24v-.69c0-4.97,4.05-9.02,9.02-9.02h7.36v-2.86c0-1.38,1.7-2.03,2.62-1.01l4.75,5.29c.51.57.51,1.44,0,2.01l-1.83,2.03"/>
          </g>
          <g id="g2759">
            <path id="path2761" class="cls-1" d="m16.12,27.08h-7.36v-2.86c0-1.38-1.7-2.03-2.62-1.01l-4.75,5.29c-.51.57-.51,1.44,0,2.01l4.75,5.28c.92,1.03,2.62.37,2.62-1.01v-3.1h7.36c2.44,0,4.42,1.98,4.42,4.42v8.26h4.6v-8.26c0-4.97-4.05-9.02-9.02-9.02Z"/>
          </g>
        </g>
      </g>
    </g>
  </g>
</svg>