<?xml version="1.0" encoding="UTF-8"?>
<svg id="Layer_2" data-name="Layer 2" xmlns="http://www.w3.org/2000/svg" viewBox="0 0 68.99 69.95">
  <defs>
    <style>
      .cls-1 {
        fill: none;
        stroke: #0195ff;
        stroke-linecap: round;
        stroke-linejoin: round;
        stroke-width: 2px;
      }
    </style>
  </defs>
  <g id="Layer_1-2" data-name="Layer 1">
    <g id="g1181">
      <g id="g1183">
        <g id="g1189">
          <path id="path1191" class="cls-1" d="m50.31,39.15c0-3.85,5.45-3.85,5.45,0v8.62"/>
        </g>
        <g id="g1193">
          <path id="path1195" class="cls-1" d="m55.77,41.48c0-3.85,5.45-3.85,5.45,0v6.23"/>
        </g>
        <g id="g1197">
          <path id="path1199" class="cls-1" d="m39.41,27.35c0-3.85,5.45-3.85,5.45,0v17.68"/>
        </g>
        <g id="g1201">
          <path id="path1203" class="cls-1" d="m44.86,36.83c0-3.85,5.45-3.85,5.45,0v9.58"/>
        </g>
        <g id="g1205">
          <path id="path1207" class="cls-1" d="m39.41,27.35v19.05"/>
        </g>
        <g id="g1209">
          <path id="path1211" class="cls-1" d="m39.41,44.95v1.99c0,2.07-.44,3.64-1.84,1.89-2.16-3.14-3.74-4.85-6.78-4.33-1.78.31-2.46,1.97-1.24,3.53l8.64,12.68c1.85,2.72,2.1,4.45,2.1,6.87,0,.74.61,1.35,1.35,1.35h16.15c.74,0,1.35-.61,1.35-1.35v-4.18c0-3.51,1.6-3.18,2.06-7.46v-3.51"/>
        </g>
        <g id="g1213">
          <path id="path1215" class="cls-1" d="m56.77,12.46l-7.91,7.92"/>
        </g>
        <g id="g1217">
          <path id="path1219" class="cls-1" d="m59.13,27.11h-7.49"/>
        </g>
        <g id="g1221">
          <path id="path1223" class="cls-1" d="m31.25,16.22l4.16,4.16"/>
        </g>
        <g id="g1225">
          <path id="path1227" class="cls-1" d="m14.12,16.26H6.03c-1.34,0-2.43-1.09-2.43-2.43V3.43c0-1.34,1.09-2.43,2.43-2.43h23.27c1.34,0,2.43,1.09,2.43,2.43v10.4c0,1.33-1.09,2.43-2.43,2.43h-10.45"/>
        </g>
        <g id="g1229">
          <path id="path1231" class="cls-1" d="m16.16,6.12h10.71m-19.11,0h3.12"/>
        </g>
        <g id="g1233">
          <path id="path1235" class="cls-1" d="m20.01,37.05l12.94-7.48"/>
        </g>
        <g id="g1237">
          <path id="path1239" class="cls-1" d="m39.41,36.22c-3.05-.92-5.57-3.35-6.46-6.65-1.36-5.07,1.65-10.29,6.72-11.65,5.07-1.36,10.28,1.65,11.64,6.73.95,3.54-.23,7.15-2.75,9.47"/>
        </g>
        <g id="g1241">
          <path id="path1243" class="cls-1" d="m18.46,11.03H7.76m19.11,0h-3.12"/>
        </g>
        <g id="g1245">
          <path id="path1247" class="cls-1" d="m57.99,4.3c2.29-2.29,6-2.29,8.29,0,2.29,2.29,2.29,6.01,0,8.29-2.29,2.29-6,2.29-8.29,0-2.29-2.29-2.29-6.01,0-8.29Z"/>
        </g>
        <g id="g1249">
          <path id="path1251" class="cls-1" d="m62.97,23.27c2.12,0,3.84,1.72,3.84,3.84s-1.72,3.84-3.84,3.84-3.84-1.72-3.84-3.84,1.72-3.84,3.84-3.84Z"/>
        </g>
        <g id="g1253">
          <path id="path1255" class="cls-1" d="m16.03,51.93c-4.79,2.77-10.92,1.13-13.68-3.67-2.77-4.8-1.12-10.93,3.67-13.7,4.79-2.77,10.92-1.13,13.68,3.67,2.77,4.8,1.12,10.93-3.67,13.7Z"/>
        </g>
        <g id="g1257">
          <path id="path1259" class="cls-1" d="m13.1,46.86c-2,1.15-4.54.47-5.69-1.52-1.15-1.99-.47-4.55,1.52-5.7,2-1.15,4.54-.47,5.69,1.53,1.15,1.99.47,4.54-1.52,5.7Z"/>
        </g>
      </g>
    </g>
  </g>
</svg>