<?xml version="1.0" encoding="UTF-8"?>
<svg id="Layer_2" data-name="Layer 2" xmlns="http://www.w3.org/2000/svg" viewBox="0 0 69.95 58.99">
  <defs>
    <style>
      .cls-1 {
        fill: none;
        stroke: #0195ff;
        stroke-linecap: round;
        stroke-linejoin: round;
        stroke-width: 2px;
      }
    </style>
  </defs>
  <g id="Layer_1-2" data-name="Layer 1">
    <g id="g5263">
      <g id="g5269">
        <path id="path5271" class="cls-1" d="m26.21,21.63c1.44-1.44,2.16-3.31,2.16-5.29,0-6.66-4.3-12.06-10.96-12.06s-12.06,5.4-12.06,12.06c0,2.44,1.1,4.72,3.29,6.23"/>
      </g>
      <g id="g5273">
        <path id="path5275" class="cls-1" d="m16.31,24.02c.61.28,1.37.45,2.19.45s1.58-.17,2.19-.45"/>
      </g>
      <g id="g5277">
        <path id="path5279" class="cls-1" d="m13.02,11.96c3.48,2.47,8.46,3.27,11.19,3.53,1.12.11,1.97,1.06,1.97,2.18v3.06c0,4.84-3.93,8.77-8.77,8.77s-8.77-3.93-8.77-8.77h0c0-2.53.94-4.96,2.63-6.84l1.75-1.93"/>
      </g>
      <g id="g5281">
        <path id="path5283" class="cls-1" d="m11.96,27.78v2.81c0,2.42,1.96,4.38,4.38,4.38h0c2.42,0,4.38-1.96,4.38-4.38v-1.44"/>
      </g>
      <g id="g5285">
        <path id="path5287" class="cls-1" d="m15.21,18.54v1.1"/>
      </g>
      <g id="g5289">
        <path id="path5291" class="cls-1" d="m21.79,18.54v1.1"/>
      </g>
      <g id="g5293">
        <path id="path5295" class="cls-1" d="m1,53.61h36.17"/>
      </g>
      <g id="g5297">
        <path id="path5299" class="cls-1" d="m8.67,41.55v-.99c0-1.27,1.03-2.3,2.3-2.3h19.51c1.27,0,2.3,1.03,2.3,2.3v10.75c0,1.27-1.03,2.3-2.3,2.3H10.97c-1.27,0-2.3-1.03-2.3-2.3v-5.37"/>
      </g>
      <g id="g5301">
        <path id="path5303" class="cls-1" d="m22.92,45.93c0,1.21-.98,2.19-2.19,2.19s-2.19-.98-2.19-2.19.98-2.19,2.19-2.19,2.19.98,2.19,2.19Z"/>
      </g>
      <g id="g5305">
        <path id="path5307" class="cls-1" d="m26.21,38.26v-1.1c0-3.03-2.45-5.48-5.48-5.48"/>
      </g>
      <g id="g5309">
        <path id="path5311" class="cls-1" d="m11.96,31.69c-4.84,0-8.77,3.93-8.77,8.77v13.15"/>
      </g>
      <g id="g5313">
        <path id="path5315" class="cls-1" d="m5.66,12.74c-1.53-1.2-2.51-3.07-2.51-5.17,0-3.63,2.94-6.58,6.58-6.58,2.45,0,4.58,1.34,5.71,3.32"/>
      </g>
      <g id="g5317">
        <path id="path5319" class="cls-1" d="m44.84,47.03c0-2.42,1.96-4.38,4.38-4.38h15.34c2.42,0,4.38,1.96,4.38,4.38v10.96"/>
      </g>
      <g id="g5321">
        <path id="path5323" class="cls-1" d="m44.84,57.99v-16.06c0-1.63-.72-3.17-1.97-4.21l-4.6-3.84"/>
      </g>
      <g id="g5325">
        <path id="path5327" class="cls-1" d="m65.66,42.65v-7.16c0-1.66-.94-3.18-2.42-3.92l-5.13-2.57c-.74-.37-1.21-1.13-1.21-1.96v-5.22"/>
      </g>
      <g id="g5329">
        <path id="path5331" class="cls-1" d="m40.45,9.77v7.67c0,4.08,2.8,7.51,6.58,8.48v3.03l-7.44,3.72c-1.49.74-2.42,2.26-2.42,3.92v21.4"/>
      </g>
      <g id="g5333">
        <path id="path5335" class="cls-1" d="m55.8,21.82c2.42,0,4.38-1.96,4.38-4.38v-7.67c0-4.24-3.43-7.67-7.67-7.67h-8.77c-3.03,0-5.48,2.45-5.48,5.48,0,1.21.98,2.19,2.19,2.19h1.1c1.82,0,3.29,1.47,3.29,3.29v3.29c0,3.03,2.45,5.48,5.48,5.48h1.1"/>
      </g>
      <g id="g5337">
        <path id="path5339" class="cls-1" d="m45.93,29.49h13.15"/>
      </g>
    </g>
  </g>
</svg>