<?xml version="1.0" encoding="UTF-8"?>
<svg id="Layer_2" data-name="Layer 2" xmlns="http://www.w3.org/2000/svg" viewBox="0 0 47 34.49">
  <defs>
    <style>
      .cls-1 {
        fill: none;
        stroke: #6a26da;
        stroke-linecap: round;
        stroke-linejoin: round;
        stroke-width: 2px;
      }
    </style>
  </defs>
  <g id="Layer_1-2" data-name="Layer 1">
    <g>
      <g id="g5222">
        <path id="path5224" class="cls-1" d="m4.8,17.24h12.63"/>
      </g>
      <g id="g5226">
        <path id="path5228" class="cls-1" d="m4.8,17.24h12.63"/>
      </g>
      <g id="g5230">
        <g id="g5232">
          <g id="g5238">
            <path id="path5240" class="cls-1" d="m38.35,8.29c-.85.85-.85,2.23,0,3.08s2.23.85,3.08,0,.85-2.23,0-3.08c-.85-.85-2.23-.85-3.08,0Z"/>
          </g>
          <g id="g5242">
            <path id="path5244" class="cls-1" d="m4.8,9.23v-3.18c0-.69.56-1.25,1.25-1.25h10.13c.69,0,1.25.56,1.25,1.25v9.87c0,.69-.56,1.25-1.25,1.25H6.05c-.69,0-1.25-.56-1.25-1.25v-3.51m38.19-6.74v-2.72c0-1.08-.87-1.95-1.95-1.95H2.95c-1.08,0-1.95.87-1.95,1.95v23.99c0,1.08.87,1.95,1.95,1.95h10.57"/>
          </g>
          <g id="g5246">
            <path id="path5248" class="cls-1" d="m27.84,28.88h13.21c1.08,0,1.95-.87,1.95-1.95v-8.43"/>
          </g>
          <g id="g5250">
            <path id="path5252" class="cls-1" d="m28.3,17.48l-11.67,11.67c-.24.24-.38.57-.38.92v2.23c-.01.66.52,1.2,1.18,1.19h2.23c.34-.01.68-.15.92-.39l.36-.36c.2-.2.3-.47.29-.75l-.05-1.29c-.02-.6.47-1.08,1.07-1.04l1.2.08c.29.02.57-.09.78-.29.3-.31.41-.38.52-.57.09-.16.14-.34.13-.53l-.05-1.29c-.02-.6.47-1.08,1.07-1.04l1.2.08c.29.02.57-.09.78-.29l.36-.36c.2-.2.3-.47.29-.75l-.05-1.29c-.02-.6.47-1.08,1.07-1.04l1.2.08c.29.02.57-.09.78-.29l.75-.75"/>
          </g>
          <g id="g5254">
            <path id="path5256" class="cls-1" d="m41.43,11.38c-.85.85-2.23.85-3.08,0-.85-.85-.85-2.23,0-3.08.85-.85,2.23-.85,3.08,0,.85.85.85,2.23,0,3.08Zm-6.55,8.6c2.71.94,5.81.45,8.11-1.47.19-.16.38-.33.56-.51,3.26-3.26,3.26-8.56,0-11.82-.18-.18-.37-.35-.56-.51-3.28-2.74-8.18-2.57-11.26.51-2.34,2.34-3,5.73-1.98,8.67"/>
          </g>
          <g id="g5258">
            <path id="path5260" class="cls-1" d="m27.86,14.99h0c-.56.56-.56,1.48,0,2.04l.45.45,3.94,3.94.31.31c.56.56,1.48.56,2.04,0,.56-.56.56-1.48,0-2.04l-4.7-4.7s0,0,0,0c-.56-.56-1.48-.56-2.04,0Z"/>
          </g>
          <g id="g5262">
            <path id="path5264" class="cls-1" d="m15.03,17.17h1.15c.69,0,1.25-.56,1.25-1.25v-3.35"/>
          </g>
          <g id="g5266">
            <path id="path5268" class="cls-1" d="m15.03,17.17v-1.32c0-1.63-.99-3.03-2.41-3.62"/>
          </g>
          <g id="g5270">
            <path id="path5272" class="cls-1" d="m9.6,12.23c-1.41.59-2.41,1.99-2.41,3.62v1.32"/>
          </g>
          <g id="g5274">
            <path id="path5276" class="cls-1" d="m12.63,12.23c.59-.45.96-1.16.96-1.96,0-1.37-1.11-2.47-2.47-2.47s-2.47,1.11-2.47,2.47c0,.8.38,1.51.96,1.96.42.32.94.51,1.51.51s1.09-.19,1.51-.51Z"/>
          </g>
        </g>
      </g>
    </g>
  </g>
</svg>