<?xml version="1.0" encoding="UTF-8"?>
<svg id="Layer_2" data-name="Layer 2" xmlns="http://www.w3.org/2000/svg" viewBox="0 0 37.46 47">
  <defs>
    <style>
      .cls-1 {
        fill: none;
        stroke: #6a26da;
        stroke-linecap: round;
        stroke-linejoin: round;
        stroke-width: 2px;
      }
    </style>
  </defs>
  <g id="Layer_1-2" data-name="Layer 1">
    <g>
      <path class="cls-1" d="m24.49,36.24s-.44,1.47-1.93,1.11c-1.49-.37-5.03-1.22-5.03-1.22"/>
      <path class="cls-1" d="m24.49,36.24s-.44,1.47-1.93,1.11c-1.49-.37-5.03-1.22-5.03-1.22"/>
      <path class="cls-1" d="m9.49,43.42l-4.2-9.15c-.26-.57-.94-.82-1.51-.56l-2.09.96c-.6.27-.86.98-.58,1.57l4.16,9.07c.27.6.98.86,1.57.58l2.09-.96c.57-.26.82-.94.56-1.51Z"/>
      <path class="cls-1" d="m12.97,10.76s.44-1.47,1.93-1.11,5.03,1.22,5.03,1.22"/>
      <path class="cls-1" d="m12.97,10.76s.44-1.47,1.93-1.11,5.03,1.22,5.03,1.22"/>
      <path class="cls-1" d="m1.2,12.42c.89,1.85,2.93.98,3.1.91l8.67-2.57s-.59,1.74,1.2,2.46c4.98,1.99,5.58,2.33,6.84,2.35h0c3.9-.01,4.6-.04,6.54-.91,1.01-.45,1.98-1,2.88-1.64.47-.33.98-.59,1.51-.78l-3.49-7.61-2.33.88c-1.8.59-3.69.65-5.21.04l-3.22-1.28c-.7-.24-2.32-.62-3.99.24,0,0,0,0,0,0-.17.07-10.73,4.75-11.23,4.97-.34.17-2.05,1.2-1.28,2.94Z"/>
      <path class="cls-1" d="m27.97,3.58l4.2,9.15c.26.57.94.82,1.51.56l2.09-.96c.6-.27.86-.98.58-1.57l-4.16-9.07c-.27-.6-.98-.86-1.57-.58l-2.09.96c-.57.26-.82.94-.56,1.51Z"/>
      <g>
        <path class="cls-1" d="m20.99,20.64s-.91-.94-2.13-.94-2.11.89-2.11,1.8,1.15,1.65,2.61,2.03c1.46.38,1.76,1.14,1.76,1.94s-.71,1.84-2.37,1.84-2.41-1.21-2.41-1.21"/>
        <g>
          <line class="cls-1" x1="18.73" y1="18.28" x2="18.73" y2="19.31"/>
          <line class="cls-1" x1="18.73" y1="27.69" x2="18.73" y2="28.72"/>
        </g>
      </g>
      <path class="cls-1" d="m30.6,39.46c2.22-.98,4.18-1.85,4.39-1.94.34-.17,2.05-1.2,1.28-2.94-.89-1.85-2.93-.98-3.1-.91l-8.67,2.57s.59-1.74-1.2-2.46c-4.98-1.99-5.58-2.33-6.84-2.35h0c-3.9.01-4.6.04-6.54.91-1.01.45-1.98,1-2.88,1.64-.47.33-.98.59-1.51.78l3.49,7.61,2.33-.88c1.8-.59,3.69-.65,5.21-.04l3.22,1.28c.7.24,2.32.62,3.99-.24,0,0,0,0,0,0,.07-.03,1.83-.81,3.94-1.74"/>
      <path class="cls-1" d="m27.68,21.89c-.49-2.73-2.19-5.04-4.54-6.34-.59.01-1.29.02-2.13.02h0c-.92-.01-1.48-.2-3.64-1.06-4.38.65-7.73,4.43-7.73,8.99,0,3.42,1.89,6.4,4.68,7.95.59-.01,1.29-.02,2.13-.02h0c.92.01,1.48.2,3.64,1.06,3.86-.58,6.93-3.59,7.6-7.43"/>
    </g>
  </g>
</svg>