<?xml version="1.0" encoding="UTF-8"?>
<svg id="Layer_2" data-name="Layer 2" xmlns="http://www.w3.org/2000/svg" viewBox="0 0 95.74 70">
  <defs>
    <style>
      .cls-1 {
        fill: #0195ff;
        stroke-width: 0px;
      }
    </style>
  </defs>
  <g id="Layer_1-2" data-name="Layer 1">
    <g id="_54_Documentary" data-name=" 54 Documentary">
      <path class="cls-1" d="m90.59,70H5.15c-2.84,0-5.15-2.31-5.15-5.15v-7.82c0-.63.51-1.14,1.14-1.14s1.14.51,1.14,1.14v7.82c0,1.58,1.28,2.86,2.86,2.86h85.44c1.58,0,2.86-1.28,2.86-2.86V5.16c0-1.58-1.28-2.86-2.86-2.86H5.15c-1.58,0-2.86,1.28-2.86,2.86h0v42.95c0,.63-.51,1.14-1.14,1.14s-1.14-.51-1.14-1.14V5.15C0,2.31,2.31,0,5.15,0h85.44c2.84,0,5.15,2.31,5.15,5.15v59.69c0,2.84-2.3,5.15-5.14,5.16,0,0,0,0,0,0Z"/>
      <path class="cls-1" d="m1.14,54.57c-.63,0-1.14-.51-1.14-1.14v-1.72c0-.63.51-1.14,1.14-1.14s1.14.51,1.14,1.14v1.72c0,.63-.51,1.14-1.14,1.14Z"/>
      <path class="cls-1" d="m1.14,37.43c-.63,0-1.14-.51-1.14-1.14V9.04c0-.63.51-1.14,1.14-1.14h15.54c.63,0,1.14.51,1.14,1.14v11.7c-.01,9.21-7.48,16.68-16.69,16.69Zm1.14-27.24v24.91c7.48-.61,13.25-6.85,13.25-14.35v-10.56H2.29Z"/>
      <path class="cls-1" d="m16.69,70H5.15c-2.84,0-5.15-2.31-5.15-5.15v-7.82c0-.63.51-1.14,1.14-1.14s1.14.51,1.14,1.14v7.82c0,1.58,1.28,2.86,2.86,2.86h10.39v-15.88c-.01-7.5-5.77-13.75-13.25-14.35v10.63c0,.63-.51,1.14-1.14,1.14s-1.14-.51-1.14-1.14v-11.82c0-.63.51-1.14,1.14-1.14,9.21.01,16.68,7.48,16.69,16.69v17.02c0,.63-.51,1.14-1.14,1.14Z"/>
      <path class="cls-1" d="m2.57,37.43h-1.43c-.63,0-1.14-.51-1.14-1.14V9.04c0-.63.51-1.14,1.14-1.14h9.2c.63,0,1.14.51,1.14,1.14v19.47c0,4.92-3.99,8.91-8.92,8.92Zm-.28-2.29h.28c3.66,0,6.62-2.97,6.63-6.63V10.19H2.29v24.96Z"/>
      <path class="cls-1" d="m10.34,70h-5.19c-2.84,0-5.15-2.31-5.15-5.15v-7.82c0-.63.51-1.14,1.14-1.14s1.14.51,1.14,1.14v7.82c0,1.58,1.28,2.86,2.86,2.86h4.05v-23.65c0-3.66-2.97-6.62-6.63-6.63h-.28v10.68c0,.63-.51,1.14-1.14,1.14s-1.14-.51-1.14-1.14v-11.82c0-.63.51-1.14,1.14-1.14h1.42c4.92,0,8.91,3.99,8.92,8.91v24.79c0,.63-.51,1.15-1.14,1.15,0,0,0,0,0,0Z"/>
      <path class="cls-1" d="m94.59,37.43c-9.21,0-16.68-7.47-16.69-16.69v-11.7c0-.63.51-1.14,1.14-1.14h15.54c.63,0,1.14.51,1.14,1.14v27.24c0,.63-.51,1.14-1.14,1.14Zm-14.4-27.24v10.56c.01,7.51,5.78,13.75,13.26,14.35V10.19h-13.26Z"/>
      <path class="cls-1" d="m90.59,70h-11.54c-.63,0-1.14-.51-1.14-1.14v-17.02c.01-9.21,7.48-16.68,16.69-16.69.63,0,1.14.51,1.14,1.14v28.56c0,2.84-2.3,5.15-5.15,5.15h0Zm-10.39-2.29h10.39c1.58,0,2.86-1.28,2.86-2.86v-27.37c-7.48.61-13.25,6.85-13.26,14.35v15.88Z"/>
      <path class="cls-1" d="m94.59,37.43h-1.43c-4.92,0-8.91-3.99-8.92-8.92V9.04c0-.63.51-1.14,1.14-1.14h9.2c.63,0,1.14.51,1.14,1.14v27.24c0,.63-.51,1.14-1.14,1.14Zm-8.05-27.24v18.33c0,3.66,2.97,6.62,6.63,6.63h.28V10.19h-6.91Z"/>
      <path class="cls-1" d="m90.59,70h-5.19c-.63,0-1.14-.51-1.14-1.14v-24.79c0-4.92,3.99-8.91,8.92-8.92h1.43c.63,0,1.14.51,1.14,1.14v28.56c0,2.84-2.3,5.15-5.15,5.15h0Zm-4.05-2.29h4.05c1.58,0,2.86-1.28,2.86-2.86v-27.42h-.28c-3.66,0-6.62,2.97-6.63,6.63v23.65Z"/>
      <path class="cls-1" d="m94.59,10.19H1.14c-.63,0-1.14-.51-1.14-1.14v-3.89C0,2.31,2.31,0,5.15,0h85.44c2.84,0,5.15,2.31,5.15,5.15v3.89c0,.63-.51,1.14-1.14,1.14ZM2.29,7.9h91.16v-2.75c0-1.58-1.28-2.86-2.86-2.86H5.15c-1.58,0-2.86,1.28-2.86,2.86h0v2.75Z"/>
      <path class="cls-1" d="m53.5,56.1h-19.55c-4,0-7.25-3.24-7.25-7.25v-9.41c0-4,3.24-7.25,7.25-7.25h19.55c4,0,7.25,3.24,7.25,7.25v9.41c0,4-3.24,7.25-7.25,7.25Zm-19.55-21.62c-2.74,0-4.96,2.22-4.96,4.96v9.41c0,2.74,2.22,4.96,4.96,4.96h19.55c2.74,0,4.96-2.22,4.96-4.96h0v-9.41c0-2.74-2.22-4.96-4.96-4.96h-19.55Z"/>
      <path class="cls-1" d="m66.57,54.61c-.42,0-.83-.11-1.19-.31l-6.29-3.47c-.36-.2-.59-.58-.59-1v-11.38c0-.42.23-.8.59-1l6.29-3.47c1.19-.66,2.69-.22,3.35.97.2.36.31.77.31,1.19v16c0,1.36-1.11,2.46-2.47,2.47h0Zm-5.79-5.46l5.7,3.14h0c.05.03.12.03.18,0,.06-.03.09-.09.09-.15v-16c0-.1-.08-.18-.18-.18-.03,0-.06,0-.09.02l-5.7,3.14v10.02Z"/>
      <path class="cls-1" d="m36.04,34.57c-3.51,0-6.36-2.85-6.36-6.36,0-3.51,2.85-6.36,6.36-6.36,3.51,0,6.36,2.85,6.36,6.36h0c0,3.51-2.85,6.36-6.36,6.36Zm0-10.43c-2.25,0-4.07,1.82-4.07,4.07s1.82,4.07,4.07,4.07,4.07-1.82,4.07-4.07h0c0-2.25-1.82-4.07-4.07-4.07h0Z"/>
      <path class="cls-1" d="m47.75,34.57c-4.21,0-7.62-3.42-7.62-7.64s3.42-7.62,7.64-7.62c4.21,0,7.62,3.42,7.62,7.63,0,4.21-3.42,7.63-7.64,7.63Zm0-12.99c-2.95,0-5.34,2.4-5.33,5.35,0,2.95,2.4,5.34,5.35,5.33,2.94,0,5.33-2.39,5.33-5.33,0-2.95-2.4-5.35-5.35-5.35Z"/>
    </g>
  </g>
</svg>