<?xml version="1.0" encoding="UTF-8"?>
<svg id="Layer_2" data-name="Layer 2" xmlns="http://www.w3.org/2000/svg" viewBox="0 0 72 64.37">
  <defs>
    <style>
      .cls-1 {
        fill: none;
        stroke: #0195ff;
        stroke-linecap: round;
        stroke-linejoin: round;
        stroke-width: 2px;
      }
    </style>
  </defs>
  <g id="Layer_1-2" data-name="Layer 1">
    <g>
      <g>
        <g>
          <path class="cls-1" d="m67.23,46.66h1.5c1.25,0,2.27-1.02,2.27-2.27V3.27c0-1.25-1.02-2.27-2.27-2.27H24.17"/>
          <path class="cls-1" d="m19.24,1h-9.01c-1.25,0-2.27,1.02-2.27,2.27v3.47h12.71c2.63,0,4.4,2.71,3.34,5.12l-.83,1.89h0s0,0,0,0v5.24s0,0,0,0l1.56,2.2c.83,1.17.35,2.81-.99,3.34l-.57.23s0,0,0,0v2.24c0,1.94-1.58,3.52-3.52,3.52h-3.78v4.92c3.46,1.45,5.98,4.67,6.44,8.53l8.55-8.55v-.52c0-1.21.98-2.19,2.19-2.19h1.58c1.21,0,2.19.98,2.19,2.19v4.29c0,1.21-.98,2.19-2.19,2.19h-1.11l-5.28,5.28h14.34"/>
          <g>
            <g>
              <path class="cls-1" d="m56.94,14.91c-.25,0-.45-.2-.45-.45v-2.63c-1.41-.61-2.96-.94-4.59-.94-6.4,0-11.59,5.19-11.59,11.59s5.19,11.59,11.59,11.59,11.59-5.19,11.59-11.59c0-2.89-1.06-5.53-2.81-7.56h-3.74Z"/>
              <path class="cls-1" d="m60.66,14.91h-3.71c-.25,0-.45-.2-.45-.45v-2.62c-1.41-.62-2.96-.96-4.59-.96-6.36,0-11.59,5.23-11.59,11.59s5.23,11.59,11.59,11.59c3.09,0,6.06-1.24,8.24-3.44l-8.24-8.15h11.59c0-2.88-1.07-5.52-2.84-7.56Z"/>
              <path class="cls-1" d="m56.49,11.82c-1.41-.61-2.96-.94-4.59-.94v11.59h11.59c0-2.89-1.06-5.53-2.81-7.56"/>
            </g>
            <g>
              <line class="cls-1" x1="34.81" y1="10.88" x2="24.64" y2="10.88"/>
              <line class="cls-1" x1="34.81" y1="16.67" x2="23.18" y2="16.67"/>
              <line class="cls-1" x1="29.36" y1="22.47" x2="25.3" y2="22.47"/>
              <line class="cls-1" x1="34.81" y1="22.47" x2="32.45" y2="22.47"/>
              <line class="cls-1" x1="34.81" y1="28.26" x2="23.46" y2="28.26"/>
              <line class="cls-1" x1="30.23" y1="34.06" x2="26.14" y2="34.06"/>
            </g>
          </g>
        </g>
        <g>
          <g>
            <path class="cls-1" d="m14.91,30.52c-.64,0-1.26-.22-1.77-.61l-4.53-3.57s0,0,0,0h0s-2.33,0-2.33,0v8.29s.09,0,.13,0h5.38c1.45,0,2.84.29,4.1.82v-4.92h-.97Z"/>
            <path class="cls-1" d="m24.74,21.19l-1.56-2.2s0,0,0,0v-5.24s0,0,0,0h-9.35c-.38,0-.74.2-.93.54l-2.1,3.61c-.42-.54-1.07-.88-1.81-.88-1.24,0-2.26,1.11-2.26,2.35v2.05c0,1.12.82,2.06,1.89,2.24v2.69s4.54,3.57,4.54,3.57c.5.4,1.13.61,1.77.61h4.75c1.94,0,3.52-1.58,3.52-3.52v-2.24s0,0,0,0l.57-.23c1.34-.53,1.82-2.17.99-3.34Z"/>
            <path class="cls-1" d="m24.74,21.19l-1.56-2.2s0,0,0,0v-5.24s0,0,0,0h-9.35c-.38,0-.74.2-.93.54l-2.1,3.61c-.42-.54-1.07-.88-1.81-.88-1.24,0-2.26,1.11-2.26,2.35v2.05c0,1.12.82,2.06,1.89,2.24v2.69s4.54,3.57,4.54,3.57c.5.4,1.13.61,1.77.61h4.75c1.94,0,3.52-1.58,3.52-3.52v-2.24s0,0,0,0l.57-.23c1.34-.53,1.82-2.17.99-3.34Z"/>
            <path class="cls-1" d="m1,12.45v7.73c0,1.76.81,3.42,2.2,4.51l1.53,1.19c.38.3.85.46,1.33.46h2.55v-2.69c-1.07-.18-1.89-1.12-1.89-2.24v-2.05c0-1.24,1.02-2.34,2.26-2.35.73,0,1.39.34,1.81.88l2.1-3.61c.19-.33.55-.54.93-.54h9.36l.83-1.89c1.06-2.41-.7-5.12-3.34-5.12H6.72c-3.16,0-5.72,2.56-5.72,5.72Z"/>
            <line class="cls-1" x1="18.47" y1="19.62" x2="18.47" y2="18.54"/>
          </g>
          <path class="cls-1" d="m17.83,63.37h3.05c.84,0,1.51-.68,1.51-1.51v-9.35l-.62.62c-1.73,1.73-4.52,1.73-6.25,0l-7.55-7.55c-1.56-1.56-1.56-4.1,0-5.66s4.1-1.56,5.66,0l6.37,6.37,2.32-2.32c-.63-5.26-5.1-9.35-10.53-9.35h-5.38c-2.74,0-4.97,2.22-4.97,4.97v22.27c0,.84.68,1.51,1.51,1.51h9.96"/>
        </g>
        <path class="cls-1" d="m33.06,41.38c-1.21,0-2.19-.98-2.19-2.19v-3.76l-10.86,10.86-6.37-6.37c-1.56-1.56-4.1-1.56-5.66,0h0c-1.56,1.56-1.56,4.1,0,5.66l7.55,7.55c1.73,1.73,4.52,1.73,6.25,0l11.75-11.75h-.46Z"/>
        <path class="cls-1" d="m34.63,41.38h-1.58c-1.21,0-2.19-.98-2.19-2.19v-4.29c0-1.21.98-2.19,2.19-2.19h1.58c1.21,0,2.19.98,2.19,2.19v4.29c0,1.21-.98,2.19-2.19,2.19Z"/>
        <line class="cls-1" x1="23.18" y1="26.41" x2="18.72" y2="26.41"/>
        <path class="cls-1" d="m66.21,14.91h-9.27c-.25,0-.45-.2-.45-.45v-4.43c0-.25.2-.45.45-.45h9.27c.25,0,.45.2.45.45v4.43c0,.25-.2.45-.45.45Z"/>
      </g>
      <path class="cls-1" d="m53.17,44.4v-1.76c0-1.11-.9-2.02-2.02-2.02h-3.83c-1.11,0-2.02.9-2.02,2.02v1.76h7.86Z"/>
      <path class="cls-1" d="m57.13,44.4h-13.79c-.42,0-.76.34-.76.76v3.63c0,.42.34.76.76.76h23.13c.42,0,.76-.34.76-.76v-3.63c0-.42-.34-.76-.76-.76h-4.42"/>
      <line class="cls-1" x1="36.73" y1="33.88" x2="46.88" y2="16.24"/>
    </g>
  </g>
</svg>