<svg width="71" height="70" viewBox="0 0 71 70" fill="none" xmlns="http://www.w3.org/2000/svg">
<path d="M8.65963 41.14L1.17964 20.36C1.04964 20 1.23964 19.6 1.59964 19.46C5.55964 18.04 9.67964 16.65 13.8496 15.25M53.4996 55.87L29.6096 64.45L19.1296 68.22C18.7696 68.35 18.3696 68.16 18.2296 67.8L10.2196 45.51" stroke="#159ED9" stroke-width="2" stroke-linecap="round" stroke-linejoin="round"/>
<path d="M58.2298 55.06L33.4298 59.31L22.4498 61.19C22.0698 61.25 21.7098 61 21.6398 60.62L17.5898 36.97L13.1198 10.93C13.0498 10.55 13.3098 10.19 13.6898 10.12L26.1998 7.96997" stroke="#159ED9" stroke-width="2" stroke-linecap="round" stroke-linejoin="round"/>
<path d="M26.1997 29.3V1.73C26.1997 1.33 26.5297 1 26.9297 1H60.0297C60.2497 1 60.3097 1.09 60.6897 1.45L68.6797 9.06999C68.9997 9.38999 69.0897 9.41999 69.0897 9.62999V54.33C69.0897 54.73 68.7597 55.06 68.3597 55.06H26.9297C26.5297 55.06 26.1997 54.73 26.1997 54.33V34.05" stroke="#159ED9" stroke-width="2" stroke-linecap="round" stroke-linejoin="round"/>
<path d="M59.4897 1L59.5098 8.22C59.5098 9.84 60.9898 9.73 61.6998 9.73H69.0997" stroke="#159ED9" stroke-width="2" stroke-linecap="round" stroke-linejoin="round"/>
<path d="M62.5095 15.8999H33.1895" stroke="#159ED9" stroke-width="2" stroke-linecap="round" stroke-linejoin="round"/>
<path d="M62.5095 23.1799H33.1895" stroke="#159ED9" stroke-width="2" stroke-linecap="round" stroke-linejoin="round"/>
<path d="M62.5095 30.47H33.1895" stroke="#159ED9" stroke-width="2" stroke-linecap="round" stroke-linejoin="round"/>
<path d="M62.5095 37.75H33.1895" stroke="#159ED9" stroke-width="2" stroke-linecap="round" stroke-linejoin="round"/>
<path d="M62.5095 45.04H33.1895" stroke="#159ED9" stroke-width="2" stroke-linecap="round" stroke-linejoin="round"/>
</svg>
