<svg width="59" height="70" viewBox="0 0 59 70" fill="none" xmlns="http://www.w3.org/2000/svg">
<path d="M57.5597 60.46L50.6097 53.51C53.6597 48.06 53.0697 41.11 48.8397 36.25V14.43C48.8397 12.59 47.3397 11.09 45.4997 11.09H37.4197V10.03C37.4197 7.19001 35.1097 4.88 32.2697 4.88H31.0297V3.66C31.0297 1.64 29.3897 0 27.3697 0H21.9197C19.8997 0 18.2597 1.64 18.2597 3.66V4.88H17.0197C14.1797 4.88 11.8697 7.19001 11.8697 10.03V11.09H3.7897C1.9497 11.09 0.449707 12.59 0.449707 14.43V66.65C0.449707 68.49 1.9497 69.99 3.7897 69.99H39.1697C39.7397 69.99 40.1897 69.53 40.1897 68.97C40.1897 68.41 39.7297 67.95 39.1697 67.95H3.7897C3.0797 67.95 2.48969 67.37 2.48969 66.65V14.43C2.48969 13.72 3.0697 13.13 3.7897 13.13H11.8697V13.46C11.8697 14.42 12.6497 15.21 13.6197 15.21H16.9697C17.5397 15.21 17.9897 14.75 17.9897 14.19C17.9897 13.63 17.5297 13.17 16.9697 13.17H13.9197V10.03C13.9197 8.32001 15.3097 6.93001 17.0197 6.93001H32.2797C33.9897 6.93001 35.3797 8.32001 35.3797 10.03V13.17H21.9297C21.3597 13.17 20.9097 13.63 20.9097 14.19C20.9097 14.75 21.3697 15.21 21.9297 15.21H35.6797C36.6397 15.21 37.4297 14.43 37.4297 13.46V13.13H45.5097C46.2197 13.13 46.8097 13.71 46.8097 14.43V34.3C41.9797 30.49 35.2397 29.97 29.8397 33.15C29.3497 33.44 29.1897 34.06 29.4797 34.55C29.7697 35.04 30.3897 35.2 30.8797 34.91C35.9897 31.9 42.4897 32.73 46.6897 36.93C51.7697 42.01 51.7697 50.27 46.6897 55.35C44.2297 57.81 40.9597 59.16 37.4797 59.16C33.9997 59.16 30.7297 57.81 28.2697 55.35C23.4997 50.58 23.1897 42.83 27.5597 37.71C27.9297 37.28 27.8797 36.63 27.4497 36.27C27.0197 35.9 26.3697 35.95 26.0097 36.38C23.5597 39.25 22.2897 42.92 22.4297 46.71C22.5697 50.52 24.1397 54.1 26.8297 56.8C29.6797 59.65 33.4597 61.21 37.4797 61.21C40.1097 61.21 42.6297 60.54 44.8597 59.29L46.8097 61.24V66.66C46.8097 67.37 46.2297 67.96 45.5097 67.96H44.1197C43.5497 67.96 43.0997 68.42 43.0997 68.98C43.0997 69.54 43.5597 70 44.1197 70H45.5097C47.3497 70 48.8497 68.5 48.8497 66.66V63.29L51.7997 66.24C52.2597 66.7 52.8597 66.92 53.4597 66.92C54.0597 66.92 54.6597 66.69 55.1197 66.24L57.5797 63.78C58.0197 63.34 58.2697 62.75 58.2697 62.12C58.2697 61.49 58.0297 60.91 57.5797 60.46H57.5597ZM20.2997 3.66C20.2997 2.77 21.0297 2.04001 21.9197 2.04001H27.3697C28.2597 2.04001 28.9897 2.77 28.9897 3.66V4.88H20.3097V3.66H20.2997ZM56.1097 62.32L53.6497 64.78C53.5297 64.9 53.3497 64.9 53.2297 64.78L46.5797 58.13C47.1197 57.72 47.6297 57.27 48.1097 56.79C48.5997 56.3 49.0397 55.79 49.4497 55.25L56.0997 61.9C56.2197 62.02 56.2197 62.2 56.0997 62.32H56.1097Z" fill="#159ED9"/>
<path d="M33.1797 23.5901H41.8497C42.4197 23.5901 42.8697 23.1301 42.8697 22.5701C42.8697 22.0101 42.4097 21.55 41.8497 21.55H33.1797C32.6097 21.55 32.1597 22.0101 32.1597 22.5701C32.1597 23.1301 32.6197 23.5901 33.1797 23.5901Z" fill="#159ED9"/>
<path d="M7.88965 23.5901H26.8196C27.3896 23.5901 27.8396 23.1301 27.8396 22.5701C27.8396 22.0101 27.3796 21.55 26.8196 21.55H7.88965C7.31965 21.55 6.86963 22.0101 6.86963 22.5701C6.86963 23.1301 7.32965 23.5901 7.88965 23.5901Z" fill="#159ED9"/>
<path d="M7.88965 27.81H26.8196C27.3896 27.81 27.8396 27.35 27.8396 26.79C27.8396 26.23 27.3796 25.77 26.8196 25.77H7.88965C7.31965 25.77 6.86963 26.23 6.86963 26.79C6.86963 27.35 7.32965 27.81 7.88965 27.81Z" fill="#159ED9"/>
<path d="M19.8699 31.1999C19.8699 30.6299 19.4099 30.1799 18.8499 30.1799H7.89987C7.32987 30.1799 6.87988 30.6399 6.87988 31.1999C6.87988 31.7599 7.33987 32.2199 7.89987 32.2199H18.8499C19.4199 32.2199 19.8699 31.7599 19.8699 31.1999Z" fill="#159ED9"/>
<path d="M33.1797 27.81H41.8497C42.4197 27.81 42.8697 27.35 42.8697 26.79C42.8697 26.23 42.4097 25.77 41.8497 25.77H33.1797C32.6097 25.77 32.1597 26.23 32.1597 26.79C32.1597 27.35 32.6197 27.81 33.1797 27.81Z" fill="#159ED9"/>
<path d="M11.4795 41.1699C8.73952 41.1699 6.49951 43.3999 6.49951 46.1499C6.49951 48.8999 8.72952 51.1299 11.4795 51.1299C14.2295 51.1299 16.4595 48.8999 16.4595 46.1499C16.4595 43.3999 14.2295 41.1699 11.4795 41.1699ZM11.4795 49.0799C9.85952 49.0799 8.54953 47.7699 8.54953 46.1499C8.54953 44.5299 9.85952 43.2199 11.4795 43.2199C13.0995 43.2199 14.4095 44.5299 14.4095 46.1499C14.4095 47.7699 13.0995 49.0799 11.4795 49.0799Z" fill="#159ED9"/>
<path d="M11.4795 54.96C8.73952 54.96 6.49951 57.19 6.49951 59.94C6.49951 62.69 8.72952 64.92 11.4795 64.92C14.2295 64.92 16.4595 62.69 16.4595 59.94C16.4595 57.19 14.2295 54.96 11.4795 54.96ZM11.4795 62.87C9.85952 62.87 8.54953 61.56 8.54953 59.94C8.54953 58.32 9.85952 57.01 11.4795 57.01C13.0995 57.01 14.4095 58.32 14.4095 59.94C14.4095 61.56 13.0995 62.87 11.4795 62.87Z" fill="#159ED9"/>
<path d="M19.9199 60.9699H24.6399C25.2099 60.9699 25.6599 60.5099 25.6599 59.9499C25.6599 59.3899 25.1999 58.9299 24.6399 58.9299H19.9199C19.3499 58.9299 18.8999 59.3899 18.8999 59.9499C18.8999 60.5099 19.3599 60.9699 19.9199 60.9699Z" fill="#159ED9"/>
</svg>
