<svg width="71" height="52" viewBox="0 0 71 52" fill="none" xmlns="http://www.w3.org/2000/svg">
<path d="M66.24 51.19H3.77C1.69 51.19 0.00999975 49.5 0.00999975 47.43V41.71C0.00999975 41.25 0.38 40.87 0.85 40.87C1.32 40.87 1.69 41.24 1.69 41.71V47.43C1.69 48.59 2.63 49.52 3.78 49.52H66.25C67.41 49.52 68.34 48.58 68.34 47.43V3.78003C68.34 2.62003 67.4 1.69003 66.25 1.69003H3.77C2.61 1.69003 1.68 2.63003 1.68 3.78003V35.18C1.68 35.64 1.31 36.02 0.84 36.02C0.37 36.02 0 35.65 0 35.18V3.77002C0 1.69002 1.69 0.0100098 3.76 0.0100098H66.23C68.31 0.0100098 69.99 1.70002 69.99 3.77002V47.42C69.99 49.5 68.31 51.19 66.23 51.19H66.24Z" fill="#159ED9"/>
<path d="M0.84 39.91C0.38 39.91 0 39.54 0 39.07V37.82C0 37.36 0.37 36.98 0.84 36.98C1.31 36.98 1.68 37.35 1.68 37.82V39.07C1.68 39.53 1.31 39.91 0.84 39.91Z" fill="#159ED9"/>
<path d="M0.84 27.37C0.38 27.37 0 27 0 26.53V6.61002C0 6.15002 0.37 5.77002 0.84 5.77002H12.2C12.66 5.77002 13.04 6.14002 13.04 6.61002V15.17C13.04 21.91 7.57 27.36 0.84 27.37ZM1.68 7.45001V25.67C7.15 25.23 11.36 20.66 11.37 15.17V7.45001H1.68Z" fill="#159ED9"/>
<path d="M12.2098 51.19H3.76977C1.68977 51.19 0.00976562 49.5 0.00976562 47.43V41.71C0.00976562 41.25 0.379766 40.87 0.849766 40.87C1.31977 40.87 1.68977 41.24 1.68977 41.71V47.43C1.68977 48.59 2.62977 49.52 3.77977 49.52H11.3798V37.91C11.3798 32.42 7.15977 27.86 1.68977 27.42V35.19C1.68977 35.65 1.31977 36.03 0.849766 36.03C0.379766 36.03 0.00976562 35.66 0.00976562 35.19V26.5399C0.00976562 26.0799 0.379766 25.7 0.849766 25.7C7.58977 25.7 13.0398 31.17 13.0498 37.9V50.3499C13.0498 50.8099 12.6798 51.19 12.2098 51.19Z" fill="#159ED9"/>
<path d="M1.88977 27.37H0.849766C0.389766 27.37 0.00976562 27 0.00976562 26.53V6.61002C0.00976562 6.15002 0.379766 5.77002 0.849766 5.77002H7.57977C8.03977 5.77002 8.41977 6.14002 8.41977 6.61002V20.85C8.41977 24.45 5.49977 27.36 1.89977 27.37H1.88977ZM1.67977 25.7H1.88977C4.55977 25.7 6.72977 23.53 6.73977 20.85V7.45001H1.68977V25.7H1.67977Z" fill="#159ED9"/>
<path d="M7.56977 51.19H3.76977C1.68977 51.19 0.00976562 49.5 0.00976562 47.43V41.71C0.00976562 41.25 0.379766 40.87 0.849766 40.87C1.31977 40.87 1.68977 41.24 1.68977 41.71V47.43C1.68977 48.59 2.62977 49.52 3.77977 49.52H6.73977V32.2299C6.73977 29.5499 4.56977 27.39 1.88977 27.38H1.68977V35.19C1.68977 35.65 1.31977 36.03 0.849766 36.03C0.379766 36.03 0.00976562 35.66 0.00976562 35.19V26.5399C0.00976562 26.0799 0.379766 25.7 0.849766 25.7H1.88977C5.48977 25.7 8.39977 28.62 8.40977 32.21V50.34C8.40977 50.8 8.03977 51.18 7.57977 51.18L7.56977 51.19Z" fill="#159ED9"/>
<path d="M69.1702 27.37C62.4302 27.37 56.9802 21.9 56.9702 15.17V6.61002C56.9702 6.15002 57.3402 5.77002 57.8102 5.77002H69.1802C69.6402 5.77002 70.0202 6.14002 70.0202 6.61002V26.53C70.0202 26.99 69.6502 27.37 69.1802 27.37H69.1702ZM58.6402 7.45001V15.17C58.6402 20.66 62.8602 25.22 68.3302 25.67V7.45001H58.6402Z" fill="#159ED9"/>
<path d="M66.24 51.19H57.8C57.34 51.19 56.96 50.8199 56.96 50.3499V37.9C56.96 31.16 62.43 25.71 69.16 25.7C69.62 25.7 70 26.0699 70 26.5399V47.42C70 49.5 68.32 51.19 66.24 51.19ZM58.64 49.52H66.24C67.4 49.52 68.33 48.58 68.33 47.43V27.42C62.86 27.86 58.64 32.43 58.64 37.92V49.53V49.52Z" fill="#159ED9"/>
<path d="M69.1699 27.37H68.1299C64.5299 27.37 61.6099 24.45 61.6099 20.85V6.61002C61.6099 6.15002 61.9799 5.77002 62.4499 5.77002H69.1799C69.6399 5.77002 70.0199 6.14002 70.0199 6.61002V26.53C70.0199 26.99 69.6499 27.37 69.1799 27.37H69.1699ZM63.2799 7.45001V20.85C63.2799 23.52 65.4499 25.69 68.1299 25.7H68.3399V7.45001H63.2899H63.2799Z" fill="#159ED9"/>
<path d="M66.2401 51.19H62.4401C61.9801 51.19 61.6001 50.8199 61.6001 50.3499V32.22C61.6001 28.62 64.5201 25.7 68.1201 25.7H69.1601C69.6201 25.7 70.0001 26.0699 70.0001 26.5399V47.42C70.0001 49.5 68.3201 51.19 66.2401 51.19ZM63.2801 49.52H66.2401C67.4001 49.52 68.3301 48.58 68.3301 47.43V27.38H68.1201C65.4501 27.38 63.2801 29.5499 63.2701 32.2299V49.53L63.2801 49.52Z" fill="#159ED9"/>
<path d="M69.17 7.44998H0.84C0.38 7.44998 0 7.07999 0 6.60999V3.75998C0 1.67998 1.69 0 3.76 0H66.23C68.31 0 69.99 1.68998 69.99 3.75998V6.60999C69.99 7.06999 69.62 7.44998 69.15 7.44998H69.17ZM1.68 5.78H68.33V3.76999C68.33 2.60999 67.39 1.67999 66.24 1.67999H3.77C2.61 1.67999 1.68 2.61999 1.68 3.76999V5.78Z" fill="#159ED9"/>
<path d="M39.1298 41.0201H24.8298C21.8998 41.0201 19.5298 38.6501 19.5298 35.7201V28.8401C19.5298 25.9101 21.8998 23.54 24.8298 23.54H39.1298C42.0598 23.54 44.4298 25.9101 44.4298 28.8401V35.7201C44.4298 38.6501 42.0598 41.0201 39.1298 41.0201ZM24.8298 25.2201C22.8298 25.2201 21.1998 26.84 21.1998 28.85V35.73C21.1998 37.73 22.8198 39.36 24.8298 39.36H39.1298C41.1298 39.36 42.7598 37.74 42.7598 35.73V28.85C42.7598 26.85 41.1398 25.2201 39.1298 25.2201H24.8298Z" fill="#159ED9"/>
<path d="M48.6798 39.94C48.3798 39.94 48.0798 39.86 47.8098 39.71L43.2098 37.17C42.9398 37.02 42.7798 36.74 42.7798 36.44V28.12C42.7798 27.82 42.9498 27.54 43.2098 27.39L47.8098 24.85C48.6798 24.37 49.7798 24.69 50.2598 25.56C50.4098 25.83 50.4798 26.12 50.4798 26.43V38.13C50.4798 39.12 49.6698 39.93 48.6798 39.94ZM44.4498 35.95L48.6198 38.25C48.6198 38.25 48.7098 38.28 48.7498 38.25C48.7898 38.23 48.8198 38.18 48.8098 38.14V26.44C48.8098 26.37 48.7498 26.31 48.6798 26.31C48.6598 26.31 48.6398 26.31 48.6198 26.33L44.4498 28.63V35.96V35.95Z" fill="#159ED9"/>
<path d="M26.36 25.28C23.79 25.28 21.71 23.2 21.71 20.63C21.71 18.06 23.79 15.98 26.36 15.98C28.93 15.98 31.01 18.06 31.01 20.63C31.01 23.2 28.93 25.28 26.36 25.28ZM26.36 17.66C24.72 17.66 23.38 18.99 23.38 20.64C23.38 22.29 24.71 23.62 26.36 23.62C28.01 23.62 29.34 22.29 29.34 20.64C29.34 19 28.01 17.67 26.36 17.66Z" fill="#159ED9"/>
<path d="M34.9201 25.2799C31.8401 25.2799 29.3501 22.7799 29.3501 19.6999C29.3501 16.6199 31.8501 14.1299 34.9301 14.1299C38.0101 14.1299 40.5001 16.6299 40.5001 19.7099C40.5001 22.7899 38.0001 25.2899 34.9201 25.2899V25.2799ZM34.9201 15.7899C32.7601 15.7899 31.0201 17.5499 31.0201 19.6999C31.0201 21.8599 32.7801 23.5999 34.9301 23.5999C37.0801 23.5999 38.8201 21.8499 38.8301 19.6999C38.8301 17.5399 37.0801 15.7899 34.9201 15.7899Z" fill="#159ED9"/>
</svg>
