<svg width="72" height="73" viewBox="0 0 72 73" fill="none" xmlns="http://www.w3.org/2000/svg">
<path d="M10.77 1H3.85C2.28 1 1 2.27001 1 3.85001V68.16C1 69.73 2.27 71.01 3.85 71.01H18.08" stroke="#159ED9" stroke-width="2" stroke-linecap="round" stroke-linejoin="round"/>
<path d="M15.7002 1H68.1502C69.7202 1 71.0002 2.27001 71.0002 3.85001V68.16C71.0002 69.73 69.7302 71.01 68.1502 71.01H23.0002" stroke="#159ED9" stroke-width="2" stroke-linecap="round" stroke-linejoin="round"/>
<path d="M1 9.82007H71" stroke="#159ED9" stroke-width="2" stroke-linecap="round" stroke-linejoin="round"/>
<path d="M8.3999 62.2802V58.7702C8.3999 57.6602 9.6099 56.9802 10.5499 57.5502L13.4799 59.3102C14.3999 59.8602 14.3999 61.2002 13.4799 61.7502L10.5499 63.5102C9.5999 64.0802 8.3999 63.4002 8.3999 62.2902V62.2802Z" stroke="#159ED9" stroke-width="2" stroke-linecap="round" stroke-linejoin="round"/>
<path d="M63.6 60.52H40.98" stroke="#159ED9" stroke-width="2" stroke-linecap="round" stroke-linejoin="round"/>
<path d="M36.7099 60.52H18.4399" stroke="#159ED9" stroke-width="2" stroke-linecap="round" stroke-linejoin="round"/>
<path d="M38.8502 62.6501C40.0266 62.6501 40.9802 61.6965 40.9802 60.5201C40.9802 59.3438 40.0266 58.3901 38.8502 58.3901C37.6738 58.3901 36.7202 59.3438 36.7202 60.5201C36.7202 61.6965 37.6738 62.6501 38.8502 62.6501Z" stroke="#159ED9" stroke-width="2" stroke-linecap="round" stroke-linejoin="round"/>
<path d="M52.0899 16.3599H59.0499C61.5599 16.3599 63.5999 18.3999 63.5999 20.9099V47.3698C63.5999 49.8898 61.5599 51.9199 59.0499 51.9199H12.9499C10.4399 51.9199 8.3999 49.8798 8.3999 47.3698V20.9099C8.3999 18.3999 10.4399 16.3599 12.9499 16.3599H47.1599" stroke="#159ED9" stroke-width="2" stroke-linecap="round" stroke-linejoin="round"/>
<path d="M22.3398 42.54C24.6981 42.54 26.6098 40.6283 26.6098 38.27C26.6098 35.9118 24.6981 34 22.3398 34C19.9816 34 18.0698 35.9118 18.0698 38.27C18.0698 40.6283 19.9816 42.54 22.3398 42.54Z" stroke="#159ED9" stroke-width="2" stroke-linecap="round" stroke-linejoin="round"/>
<path d="M31.7302 51.9301C31.7302 46.7401 27.5302 42.54 22.3402 42.54C17.1502 42.54 12.9502 46.7401 12.9502 51.9301H31.7302Z" stroke="#159ED9" stroke-width="2" stroke-linecap="round" stroke-linejoin="round"/>
<path d="M55.9199 20.6299H34.2899C32.3999 20.6299 30.8799 22.1599 30.8799 24.0399V37.1299C30.8799 39.0199 32.4099 40.5399 34.2899 40.5399H35.3499V43.1399C35.3499 43.8399 36.1399 44.2399 36.6999 43.8299L41.2699 40.5399H55.9099C57.7999 40.5399 59.3199 39.0099 59.3199 37.1299V24.0399C59.3199 22.1499 57.7899 20.6299 55.9099 20.6299H55.9199Z" stroke="#159ED9" stroke-width="2" stroke-linecap="round" stroke-linejoin="round"/>
<path d="M46.5299 34.8601H35.1499" stroke="#159ED9" stroke-width="2" stroke-linecap="round" stroke-linejoin="round"/>
<path d="M48.52 30.5901H53.64" stroke="#159ED9" stroke-width="2" stroke-linecap="round" stroke-linejoin="round"/>
<path d="M35.1499 30.5901H43.9699" stroke="#159ED9" stroke-width="2" stroke-linecap="round" stroke-linejoin="round"/>
<path d="M53.6399 26.3201H35.1499" stroke="#159ED9" stroke-width="2" stroke-linecap="round" stroke-linejoin="round"/>
</svg>
