<svg width="70" height="70" viewBox="0 0 70 70" fill="none" xmlns="http://www.w3.org/2000/svg">
<path d="M17.3999 18.22H14.6699V12.75H37.3699V18.22H17.4099H17.3999Z" stroke="#159ED9" stroke-width="2" stroke-linecap="round" stroke-linejoin="round"/>
<path d="M57.2002 7.42999L53.5102 1H46.1202L42.4302 7.39996L46.1202 13.72H53.5102L57.2002 7.44" stroke="#159ED9" stroke-width="2" stroke-linecap="round" stroke-linejoin="round"/>
<path d="M53.5 13.7199L57.19 20.2799H64.58L68.27 13.7999L64.58 7.42993H57.19" stroke="#159ED9" stroke-width="2" stroke-linecap="round" stroke-linejoin="round"/>
<path d="M54.5899 28.3398C54.5899 29.0898 54.2799 29.7798 53.7899 30.2698C53.2999 30.7598 52.6099 31.0699 51.8599 31.0699C50.3499 31.0699 49.1299 29.8498 49.1299 28.3398C49.1299 26.8298 50.3499 25.6099 51.8599 25.6099C53.3699 25.6099 54.5899 26.8298 54.5899 28.3398Z" stroke="#159ED9" stroke-width="2" stroke-linecap="round" stroke-linejoin="round"/>
<path d="M62.7998 36.54C62.7998 38.05 61.5798 39.27 60.0698 39.27C58.5598 39.27 57.3398 38.05 57.3398 36.54C57.3398 35.79 57.6498 35.1 58.1398 34.61C58.6298 34.12 59.3198 33.8101 60.0698 33.8101C61.5798 33.8101 62.7998 35.03 62.7998 36.54Z" stroke="#159ED9" stroke-width="2" stroke-linecap="round" stroke-linejoin="round"/>
<path d="M58.13 34.61L53.79 30.27" stroke="#159ED9" stroke-width="2" stroke-linecap="round" stroke-linejoin="round"/>
<path d="M53.3599 26.05L57.1999 20.27" stroke="#159ED9" stroke-width="2" stroke-linecap="round" stroke-linejoin="round"/>
<path d="M38.19 3.72998C38.19 5.23998 36.97 6.45996 35.46 6.45996C33.95 6.45996 32.73 5.23998 32.73 3.72998C32.73 2.21998 33.95 1 35.46 1C36.97 1 38.19 2.21998 38.19 3.72998Z" stroke="#159ED9" stroke-width="2" stroke-linecap="round" stroke-linejoin="round"/>
<path d="M37.8701 5L42.4201 7.38995" stroke="#159ED9" stroke-width="2" stroke-linecap="round" stroke-linejoin="round"/>
<path d="M10.23 45.5701H41.81" stroke="#159ED9" stroke-width="2" stroke-linecap="round" stroke-linejoin="round"/>
<path d="M28.75 34.6299C28.75 36.1399 27.53 37.3599 26.02 37.3599C24.51 37.3599 23.29 36.1399 23.29 34.6299C23.29 33.1199 26.02 29.1599 26.02 29.1599C26.02 29.1599 28.75 33.1199 28.75 34.6299Z" stroke="#159ED9" stroke-width="2" stroke-linecap="round" stroke-linejoin="round"/>
<path d="M27.3899 68.2599C27.3899 69.0099 26.7799 69.6299 26.0199 69.6299C25.2599 69.6299 24.6499 69.0199 24.6499 68.2599C24.6499 67.4999 25.2599 66.8899 26.0199 66.8899C26.7799 66.8899 27.3899 67.4999 27.3899 68.2599Z" fill="#159ED9"/>
<path d="M34.6299 18.22V31.89L50.5499 62.21C50.8599 62.79 51.0399 63.45 51.0399 64.15C51.0399 66.42 49.1999 68.25 46.9399 68.25H32.1699" stroke="#159ED9" stroke-width="2" stroke-linecap="round" stroke-linejoin="round"/>
<path d="M19.87 68.26H5.1C2.83 68.26 1 66.42 1 64.16C1 63.46 1.18 62.79 1.49 62.22L17.41 31.9V18.23" stroke="#159ED9" stroke-width="2" stroke-linecap="round" stroke-linejoin="round"/>
</svg>
