<svg width="81" height="102" viewBox="0 0 81 102" fill="none" xmlns="http://www.w3.org/2000/svg">
<path d="M53.2739 79.3079C53.2739 79.3079 52.2955 82.5742 48.9822 81.7743C45.6688 80.9521 37.7969 79.0635 37.7969 79.0635" stroke="#363535" stroke-width="2" stroke-linecap="round" stroke-linejoin="round"/>
<path d="M53.2739 79.3079C53.2739 79.3079 52.2955 82.5742 48.9822 81.7743C45.6688 80.9521 37.7969 79.0635 37.7969 79.0635" stroke="#363535" stroke-width="2" stroke-linecap="round" stroke-linejoin="round"/>
<path d="M19.9175 95.2617L10.5779 74.9307C9.9997 73.6642 8.48759 73.1087 7.22007 73.6864L2.57249 75.8195C1.23826 76.4195 0.660092 77.997 1.28273 79.308L10.5334 99.4612C11.1338 100.794 12.7126 101.372 14.0246 100.75L18.6722 98.6168C19.9397 98.0391 20.4957 96.5282 19.9175 95.2617Z" stroke="#363535" stroke-width="2" stroke-linecap="round" stroke-linejoin="round"/>
<path d="M27.6567 22.6926C27.6567 22.6926 28.6352 19.4263 31.9485 20.2262C35.2618 21.0261 43.1338 22.937 43.1338 22.937" stroke="#363535" stroke-width="2" stroke-linecap="round" stroke-linejoin="round"/>
<path d="M27.6567 22.6926C27.6567 22.6926 28.6352 19.4263 31.9485 20.2262C35.2618 21.0261 43.1338 22.937 43.1338 22.937" stroke="#363535" stroke-width="2" stroke-linecap="round" stroke-linejoin="round"/>
<path d="M1.46076 26.3807C3.43986 30.4913 7.97624 28.5582 8.35427 28.4027L27.6339 22.6922C27.6339 22.6922 26.3219 26.5584 30.3024 28.1583C41.3765 32.58 42.7107 33.3354 45.5126 33.3799C54.1851 33.3576 55.7417 33.291 60.0557 31.3579C62.3016 30.358 64.4587 29.1359 66.46 27.7139C67.5051 26.9806 68.6392 26.4029 69.8178 25.9807L62.057 9.07161L56.8758 11.0269C52.8731 12.3379 48.6703 12.4712 45.2902 11.1158L38.1298 8.27171C36.5732 7.73844 32.9708 6.89409 29.2572 8.80498C28.8792 8.96051 5.39673 19.3593 4.28487 19.8481C3.52881 20.2259 -0.273747 22.5145 1.43851 26.3807H1.46076Z" stroke="#363535" stroke-width="2" stroke-linecap="round" stroke-linejoin="round"/>
<path d="M61.0113 6.73855L70.3509 27.0695C70.9291 28.336 72.4412 28.8915 73.7087 28.3138L78.3563 26.1807C79.6905 25.5808 80.2687 24.0032 79.646 22.6922L70.3954 2.53905C69.795 1.20587 68.2162 0.62816 66.9042 1.25031L62.2566 3.38339C60.9891 3.9611 60.4332 5.47203 61.0113 6.73855Z" stroke="#363535" stroke-width="2" stroke-linecap="round" stroke-linejoin="round"/>
<path d="M45.4907 44.6455C45.4907 44.6455 43.4671 42.5569 40.7541 42.5569C38.0412 42.5569 36.0621 44.5344 36.0621 46.5564C36.0621 48.5784 38.6194 50.2226 41.866 51.067C45.1126 51.9113 45.7798 53.6 45.7798 55.3776C45.7798 57.1552 44.2009 59.466 40.5095 59.466C36.8182 59.466 35.1504 56.7774 35.1504 56.7774" stroke="#363535" stroke-width="2" stroke-linecap="round" stroke-linejoin="round"/>
<path d="M40.4644 39.4016V41.6902" stroke="#363535" stroke-width="2" stroke-linecap="round" stroke-linejoin="round"/>
<path d="M40.4644 60.3325V62.5989" stroke="#363535" stroke-width="2" stroke-linecap="round" stroke-linejoin="round"/>
<path d="M66.8599 86.4847C71.7965 84.3072 76.155 82.374 76.622 82.1741C77.3781 81.7963 81.1806 79.5077 79.4683 75.6415C77.4892 71.5309 72.9529 73.464 72.5748 73.6195L53.2952 79.33C53.2952 79.33 54.6072 75.4637 50.6268 73.8639C39.5527 69.4422 38.2184 68.6868 35.4165 68.6423C26.744 68.6646 25.1875 68.7312 20.8734 70.6643C18.6275 71.6642 16.4705 72.8863 14.4691 74.3083C13.424 75.0416 12.2899 75.6193 11.1113 76.0415L18.8721 92.9506L24.0534 90.9952C28.056 89.6843 32.2589 89.551 35.6389 90.9064L42.7993 93.7505C44.3559 94.2838 47.9583 95.1281 51.6719 93.2172C51.8276 93.1506 55.7413 91.4174 60.4333 89.351" stroke="#363535" stroke-width="2" stroke-linecap="round" stroke-linejoin="round"/>
<path d="M60.3673 47.423C59.2777 41.357 55.4974 36.2243 50.2716 33.3357C48.9596 33.358 47.403 33.3802 45.5351 33.3802C43.4893 33.358 42.244 32.9358 37.4408 31.0249C27.7009 32.4692 20.2515 40.8682 20.2515 51.0003C20.2515 58.5994 24.4543 65.2209 30.6585 68.6649C31.9705 68.6427 33.5271 68.6205 35.395 68.6205C37.4408 68.6427 38.6861 69.0649 43.4893 70.9758C52.0729 69.687 58.8997 62.9989 60.3896 54.4666" stroke="#363535" stroke-width="2" stroke-linecap="round" stroke-linejoin="round"/>
</svg>
