<svg width="68" height="102" viewBox="0 0 68 102" fill="none" xmlns="http://www.w3.org/2000/svg">
<path d="M1 63.7556V44.3112C1 42.9556 2.08976 41.8667 3.44639 41.8667H14.8331C16.1898 41.8667 17.2795 42.9556 17.2795 44.3112V68.2667C17.2795 77.2223 24.4407 84.6445 33.3811 84.7334C42.4327 84.8223 49.8163 77.4889 49.8163 68.4667V44.2889C49.8163 42.9334 50.9061 41.8445 52.2627 41.8445H63.6494C65.0061 41.8445 66.0958 42.9334 66.0958 44.2889V47.5334" stroke="#363535" stroke-width="2" stroke-linecap="round" stroke-linejoin="round"/>
<path d="M66.096 54.5779V68.4668C66.096 77.4445 62.4487 85.5779 56.5551 91.4668C50.6616 97.3557 42.5219 101 33.537 101C16.3456 101 2.26784 87.6668 1.06689 70.8001" stroke="#363535" stroke-width="2" stroke-linecap="round" stroke-linejoin="round"/>
<path d="M49.8159 59.1335H66.0955" stroke="#363535" stroke-width="2" stroke-linecap="round" stroke-linejoin="round"/>
<path d="M1 59.1335H17.2795" stroke="#363535" stroke-width="2" stroke-linecap="round" stroke-linejoin="round"/>
<path d="M53.0851 14.0222C56.6839 14.0222 59.6014 11.1071 59.6014 7.51111C59.6014 3.91512 56.6839 1 53.0851 1C49.4863 1 46.5688 3.91512 46.5688 7.51111C46.5688 11.1071 49.4863 14.0222 53.0851 14.0222Z" stroke="#363535" stroke-width="2" stroke-linecap="round" stroke-linejoin="round"/>
<path d="M45.7691 26.2002H65.2957V20.5114C65.2957 16.9114 62.3822 14.0002 58.7794 14.0002H47.3926C45.8581 14.0002 44.4347 14.5336 43.3228 15.4225" stroke="#363535" stroke-width="2" stroke-linecap="round" stroke-linejoin="round"/>
<path d="M20.5272 7.51111C20.5272 11.1111 17.6138 14.0222 14.0109 14.0222C10.4081 14.0222 7.49463 11.1111 7.49463 7.51111C7.49463 3.91111 10.4081 1 14.0109 1C17.6138 1 20.5272 3.91111 20.5272 7.51111Z" stroke="#363535" stroke-width="2" stroke-linecap="round" stroke-linejoin="round"/>
<path d="M21.3498 26.2002H1.82324V20.5114C1.82324 16.9114 4.73664 14.0002 8.33948 14.0002H19.7262C21.2608 14.0002 22.6842 14.5336 23.7962 15.4225" stroke="#363535" stroke-width="2" stroke-linecap="round" stroke-linejoin="round"/>
<path d="M33.5587 14.0222C37.1576 14.0222 40.075 11.1071 40.075 7.51111C40.075 3.91512 37.1576 1 33.5587 1C29.9599 1 27.0425 3.91512 27.0425 7.51111C27.0425 11.1071 29.9599 14.0222 33.5587 14.0222Z" stroke="#363535" stroke-width="2" stroke-linecap="round" stroke-linejoin="round"/>
<path d="M37.2059 30.2669H45.746V20.5114C45.746 16.9114 42.8326 14.0002 39.2297 14.0002H27.843C24.2401 14.0002 21.3267 16.9114 21.3267 20.5114V30.2669H30.1337" stroke="#363535" stroke-width="2" stroke-linecap="round" stroke-linejoin="round"/>
<path d="M27.0425 51.4003V42.8669" stroke="#363535" stroke-width="2" stroke-linecap="round" stroke-linejoin="round"/>
<path d="M33.5581 36.7781V51.4003" stroke="#363535" stroke-width="2" stroke-linecap="round" stroke-linejoin="round"/>
<path d="M40.0527 42.8669V51.4003" stroke="#363535" stroke-width="2" stroke-linecap="round" stroke-linejoin="round"/>
</svg>
