<svg width="69" height="71" viewBox="0 0 69 71" fill="none" xmlns="http://www.w3.org/2000/svg">
<path d="M60.71 66.4026V69.9426H38.25V64.6926" stroke="#159ED9" stroke-width="2" stroke-linecap="round" stroke-linejoin="round"/>
<path d="M53.9297 35.8027H60.1897C64.4097 35.8027 67.8297 39.2227 67.8297 43.4427V51.9827C67.8297 54.3327 65.9197 56.2427 63.5697 56.2427H60.7197V61.6227" stroke="#159ED9" stroke-width="2" stroke-linecap="round" stroke-linejoin="round"/>
<path d="M60.7197 50.6228V43.0828" stroke="#159ED9" stroke-width="2" stroke-linecap="round" stroke-linejoin="round"/>
<path d="M59.1597 5.63257C61.2197 7.33257 62.5397 9.91257 62.5397 12.7926V16.7626" stroke="#159ED9" stroke-width="2" stroke-linecap="round" stroke-linejoin="round"/>
<path d="M37.8301 16.7627V5.17266C37.8301 2.68266 40.5801 1.16266 42.6801 2.49266L43.2901 2.87266C43.9501 3.28266 44.7101 3.50266 45.4901 3.50266H53.2601C53.7501 3.50266 54.2201 3.54266 54.6901 3.61266" stroke="#159ED9" stroke-width="2" stroke-linecap="round" stroke-linejoin="round"/>
<path d="M46.4297 33.6027V30.5627" stroke="#159ED9" stroke-width="2" stroke-linecap="round" stroke-linejoin="round"/>
<path d="M53.9297 30.5627V36.4727C53.9297 38.2527 52.4797 39.7027 50.6997 39.7027H49.6597C49.5797 39.7027 49.4897 39.7027 49.4097 39.6927" stroke="#159ED9" stroke-width="2" stroke-linecap="round" stroke-linejoin="round"/>
<path d="M57.8301 16.0127H60.4901C62.2301 16.0127 63.6401 17.4227 63.6401 19.1627C63.6401 20.9027 62.2301 22.3127 60.4901 22.3127H57.8301" stroke="#159ED9" stroke-width="2" stroke-linecap="round" stroke-linejoin="round"/>
<path d="M42.5297 22.3127H39.8697C38.1297 22.3127 36.7197 20.9027 36.7197 19.1627C36.7197 17.4227 38.1297 16.0127 39.8697 16.0127H42.5297" stroke="#159ED9" stroke-width="2" stroke-linecap="round" stroke-linejoin="round"/>
<path d="M42.5298 10.9027V24.1427C42.5298 28.1327 45.7698 31.3727 49.7598 31.3727H50.5998C54.5898 31.3727 57.8298 28.1327 57.8298 24.1427V15.5527C57.8298 12.7527 55.5598 10.4927 52.7698 10.4927H42.9398C42.7098 10.4927 42.5298 10.6727 42.5298 10.9027Z" stroke="#159ED9" stroke-width="2" stroke-linecap="round" stroke-linejoin="round"/>
<path d="M52.0998 25.8428C51.6398 26.2928 51.0198 26.5628 50.3298 26.5628H50.0298C49.3398 26.5628 48.7198 26.2928 48.2598 25.8428" stroke="#159ED9" stroke-width="2" stroke-linecap="round" stroke-linejoin="round"/>
<path d="M18.02 58.4726V42.4026" stroke="#159ED9" stroke-width="2" stroke-linecap="round" stroke-linejoin="round"/>
<path d="M29.0698 33.6025H47.8298C48.7098 33.6025 49.4198 34.3125 49.4198 35.1925V41.3225" stroke="#159ED9" stroke-width="2" stroke-linecap="round" stroke-linejoin="round"/>
<path d="M49.41 56.2426V63.1126C49.41 63.9926 48.7 64.7026 47.82 64.7026H19.61C18.73 64.7026 18.02 63.9926 18.02 63.1126V42.4026" stroke="#159ED9" stroke-width="2" stroke-linecap="round" stroke-linejoin="round"/>
<path d="M26.04 38.2427H47.8201C48.7001 38.2427 49.41 38.9527 49.41 39.8327V50.6227" stroke="#159ED9" stroke-width="2" stroke-linecap="round" stroke-linejoin="round"/>
<path d="M29.8701 43.3027V51.1527C29.8701 51.6727 30.4401 51.9827 30.8701 51.7127L37.2401 47.7927C37.6601 47.5327 37.6601 46.9327 37.2401 46.6727L30.8701 42.7527C30.4301 42.4827 29.8701 42.8027 29.8701 43.3127V43.3027Z" stroke="#159ED9" stroke-width="2" stroke-linecap="round" stroke-linejoin="round"/>
<path d="M42.2901 58.6526H31.5801" stroke="#159ED9" stroke-width="2" stroke-linecap="round" stroke-linejoin="round"/>
<path d="M27.3099 58.6526H25.1499" stroke="#159ED9" stroke-width="2" stroke-linecap="round" stroke-linejoin="round"/>
<path d="M29.4398 56.5227C28.2598 56.5227 27.2998 57.4827 27.2998 58.6627C27.2998 59.8427 28.2598 60.8027 29.4398 60.8027C30.6198 60.8027 31.5798 59.8427 31.5798 58.6627C31.5798 57.4827 30.6198 56.5227 29.4398 56.5227Z" stroke="#159ED9" stroke-width="2" stroke-linecap="round" stroke-linejoin="round"/>
<path d="M51.2697 56.2426H48.1897C46.7897 56.2426 45.6597 55.1126 45.6597 53.7126V50.6326H51.2697" stroke="#159ED9" stroke-width="2" stroke-linecap="round" stroke-linejoin="round"/>
<path d="M45.6601 50.6226H42.8501" stroke="#159ED9" stroke-width="2" stroke-linecap="round" stroke-linejoin="round"/>
<path d="M62.53 50.6226H51.27V56.2325H63.56C65.91 56.2325 67.82 54.3225 67.82 51.9725V50.6125" stroke="#159ED9" stroke-width="2" stroke-linecap="round" stroke-linejoin="round"/>
<path d="M34.6897 64.7026V67.1726C34.6897 67.9926 34.0197 68.6626 33.1997 68.6626H29.9397C29.1197 68.6626 28.4497 67.9926 28.4497 67.1726V64.7026" stroke="#159ED9" stroke-width="2" stroke-linecap="round" stroke-linejoin="round"/>
<path d="M30.1299 28.1126C30.1299 36.0926 23.7499 42.5626 15.8799 42.5626C8.00988 42.5626 1.62988 36.0926 1.62988 28.1126C1.62988 20.1326 8.00988 13.6626 15.8799 13.6626C23.7499 13.6626 30.1299 20.1326 30.1299 28.1126Z" stroke="#159ED9" stroke-width="2" stroke-linecap="round" stroke-linejoin="round"/>
<path d="M22.49 28.3525V33.8425C22.49 34.1825 22.26 34.4725 21.94 34.5525L16.24 36.0325C16 36.0925 15.75 36.0925 15.52 36.0325L9.82002 34.5525C9.50002 34.4725 9.27002 34.1725 9.27002 33.8425V28.3525" stroke="#159ED9" stroke-width="2" stroke-linecap="round" stroke-linejoin="round"/>
<path d="M15.6699 23.6028L5.65992 26.6228C5.33992 26.7228 5.33992 27.1728 5.65992 27.2628L15.6699 30.2828C15.8099 30.3228 15.9499 30.3228 16.0899 30.2828L26.0999 27.2628C26.4199 27.1628 26.4199 26.7128 26.0999 26.6228L16.0899 23.6028C15.9499 23.5628 15.8099 23.5628 15.6699 23.6028Z" stroke="#159ED9" stroke-width="2" stroke-linecap="round" stroke-linejoin="round"/>
<path d="M5.65967 27.2627V31.1027" stroke="#159ED9" stroke-width="2" stroke-linecap="round" stroke-linejoin="round"/>
</svg>
