<svg width="74" height="100" viewBox="0 0 74 100" fill="none" xmlns="http://www.w3.org/2000/svg">
<path d="M5.74115 58.1295C5.86886 60.7608 8.50014 59.5347 9.67524 58.7171C10.7993 57.9251 11.1314 58.5894 11.2335 57.0565C11.3102 56.0348 11.4122 55.0384 11.3612 54.0167C9.64959 53.8633 7.81026 54.2721 6.40512 55.2939C5.66446 55.8047 4.336 57.4909 5.74089 58.1295M58.1874 90.4709C60.2055 91.7227 63.9098 95.5037 60.8697 97.343C57.9574 99.9999 56.3227 94.405 53.7678 93.6387C54.8662 92.1315 56.2457 90.752 58.1874 90.4709ZM22.0651 94.7371C19.6892 95.0949 18.3608 97.2407 16.3683 98.3393C14.5033 99.4377 13.7881 97.9816 13.6347 97.6751C13.3539 97.5474 13.3793 97.8028 12.9195 97.343C11.1825 94.6094 14.7077 92.6169 16.5471 91.2628C19.1017 90.752 20.7112 92.9745 22.0651 94.7371ZM69.4021 57.7974C69.2744 60.4287 66.6431 59.2026 65.468 58.385C64.344 57.593 64.0119 58.2573 63.9098 56.7244C63.8328 55.7027 63.7308 54.7063 63.7821 53.6846C65.4934 53.5312 67.3328 53.94 68.7379 54.9617C69.4534 55.4726 70.8073 57.1588 69.4021 57.7974Z" fill="#F6D2A2"/>
<path d="M62.4282 25.7117C71.5482 22.4928 64.4209 10.0009 56.4758 15.5187C51.2645 11.0481 44.0862 10.2305 36.5499 10.2305C29.1675 10.8185 22.142 12.1724 17.2372 16.464C9.31747 11.3545 2.01145 23.6166 11.3102 26.708C8.70454 36.8241 11.6677 47.1448 11.2589 57.4398C10.8757 66.6878 8.44885 79.0773 13.5837 87.3799C17.9522 94.4818 27.353 97.011 35.0937 97.2921C44.98 97.6496 56.961 95.2227 61.7637 85.6429C66.362 76.523 65.0849 65.1549 64.4973 55.3197C63.9098 45.3821 65.0082 35.2914 62.428 25.7114L62.4282 25.7117Z" fill="#69D7E2"/>
<path d="M70.0926 56.2389C69.8372 55.7024 69.352 55.0892 68.8921 54.7571C67.7171 53.9141 66.2096 53.4543 64.6513 53.4032C64.6003 51.8193 64.5493 50.0821 64.5493 47.8852V45.8926C64.5236 39.6083 64.4469 36.8493 64.0894 33.4004C63.8084 30.6927 63.3739 28.1891 62.761 25.8389C64.8303 25.047 66.1842 23.7442 66.7207 22.058C67.2316 20.4997 66.9761 18.7371 66.1078 17.1788C65.2135 15.646 63.783 14.4962 62.1224 14.0367C60.3341 13.5512 58.3927 13.909 56.5277 15.1605C54.8671 13.7556 52.9514 12.6826 50.8053 11.865C46.999 10.4603 42.5796 9.92383 36.5762 9.92383V10.1793L36.5505 9.92383C30.1385 10.4347 25.3869 11.431 21.4528 13.3471C19.8689 14.1134 18.464 15.033 17.2378 16.106C15.3472 14.9309 13.3802 14.6499 11.5665 15.212C9.88053 15.7229 8.42435 16.9236 7.55573 18.4819C6.6871 20.0401 6.4827 21.8284 7.07025 23.3613C7.6578 24.8939 9.01165 26.0946 11.03 26.8355C10.3914 29.4155 10.0593 32.1491 10.0082 35.1636C9.95696 38.1013 10.0847 40.4518 10.5445 45.7651C10.8766 49.7248 11.0043 51.5385 11.0556 53.7356C9.31837 53.6589 7.58137 54.1188 6.2783 55.0641C5.81847 55.3962 5.3076 55.9837 5.07781 56.5456C4.7457 57.2612 4.87341 57.8997 5.53765 58.2829C5.63972 59.509 6.32959 60.0709 7.37697 59.9689C8.14327 59.8922 9.06294 59.4834 9.85489 58.9215C10.0222 58.8003 10.2021 58.6976 10.3914 58.615C10.4681 58.5894 10.5191 58.5637 10.5958 58.5381C10.5958 58.5381 10.7489 58.4873 10.8002 58.4616C10.8766 58.436 10.9533 58.4103 11.0043 58.3593C10.9533 59.5601 10.8512 60.8118 10.6212 63.6732C10.3658 66.8917 10.238 68.6546 10.187 70.6217C9.95696 77.9277 10.8256 83.2413 13.4312 87.4565C14.2488 88.7849 15.2452 89.96 16.4203 91.033C16.1902 91.1861 15.2195 91.9017 14.913 92.1315C13.84 92.949 13.0994 93.6387 12.6649 94.405C12.103 95.4013 12.103 96.3977 12.7416 97.445L12.7672 97.4707L12.7929 97.4963C13.0737 97.7772 13.2271 97.8538 13.4315 97.8538H13.5076C13.5333 97.9051 13.5589 97.9305 13.5846 97.9816C13.661 98.1093 13.7377 98.2113 13.8144 98.3137C14.453 99.0546 15.347 99.2333 16.5477 98.5181C17.1863 98.186 17.6461 97.8025 18.6168 96.9852L18.6681 96.9339C20.2264 95.6057 20.9927 95.1205 22.1424 94.9415L22.5512 94.8648C22.7043 94.9417 22.8576 94.9928 23.0364 95.0692C26.664 96.5254 30.8789 97.3173 35.1454 97.4707C40.6634 97.6751 45.977 96.9852 50.473 95.3503C51.6737 94.9161 52.7978 94.405 53.8708 93.8431C54.535 94.0985 55.0967 94.635 56.17 95.8868C56.221 95.9381 56.221 95.9381 56.2464 95.9889C56.2977 96.0402 56.2977 96.0658 56.3233 96.0912C56.3741 96.1679 56.4508 96.2189 56.5018 96.2956C57.3451 97.2917 57.9072 97.7772 58.5458 98.0582C59.3885 98.4157 60.2061 98.237 61.0491 97.4707C62.5309 96.551 62.633 95.1205 61.662 93.4853C60.9724 92.3359 59.7719 91.1351 58.6479 90.3688C59.9763 89.066 61.1258 87.5077 62.0198 85.7448C64.4723 80.84 65.4176 75.1177 65.3666 67.7604C65.341 65.1547 65.2386 62.8812 64.9578 58.5381V58.4106C65.0855 58.4616 65.2132 58.5383 65.341 58.6404C66.1329 59.1769 67.0526 59.6111 67.8189 59.6878C68.8662 59.7901 69.5561 59.2279 69.6582 58.0018C70.2968 57.593 70.4245 56.9544 70.0924 56.2392L70.0926 56.2389ZM61.9693 14.5729C63.5021 14.9817 64.8306 16.0548 65.6479 17.4853C66.4655 18.9158 66.6953 20.5254 66.2355 21.9559C65.7503 23.4631 64.5239 24.6638 62.6079 25.3791C62.2258 24.0114 61.774 22.6642 61.254 21.3427C61.9949 20.7041 62.3524 19.9122 61.7649 18.7884C61.1776 17.664 60.1556 17.5363 59.108 17.8684C58.4437 16.9998 57.7031 16.2335 56.9368 15.5182C58.6227 14.4452 60.36 14.1387 61.9693 14.5729ZM7.50495 23.2077C6.96843 21.8279 7.14719 20.1932 7.96478 18.7627C8.78212 17.3319 10.1106 16.2081 11.6945 15.7483C13.3294 15.2628 15.092 15.4926 16.8293 16.5146C15.8247 17.4175 14.9327 18.4382 14.1724 19.5547C12.8439 18.8648 11.4901 18.7371 10.7238 20.1419C9.93182 21.6494 10.8515 22.5945 12.1543 23.3097C11.9756 23.7442 11.7965 24.204 11.6434 24.6638C11.4644 25.2257 11.2857 25.8133 11.1326 26.4008C9.26759 25.6856 8.04146 24.5872 7.50495 23.2077ZM10.5961 58.0272C10.5704 58.0272 10.417 58.0782 10.417 58.1036C10.3406 58.1293 10.2639 58.1549 10.1873 58.206C9.98286 58.2826 9.77846 58.4103 9.57432 58.5635C8.8588 59.0746 7.99017 59.4577 7.32594 59.5088C6.55964 59.5854 6.12545 59.2533 6.04877 58.3337C6.58528 58.1549 6.81507 58.0272 7.01947 57.7207L6.61067 57.414C6.45757 57.6184 6.3042 57.6951 5.84437 57.8482C5.81873 57.8482 5.81873 57.8482 5.79308 57.8738C5.38454 57.6438 5.30786 57.2863 5.5379 56.7754C5.7423 56.3156 6.20213 55.7791 6.58528 55.4982C7.81142 54.604 9.44635 54.1698 11.0813 54.2719C11.0813 54.9104 11.1069 55.549 11.0813 56.162C11.0813 56.2389 11.0813 56.2899 11.0556 56.3666C11.0302 56.7241 11.0302 56.8775 11.0046 57.0565C10.9282 57.7972 10.8769 57.8992 10.5961 58.0272ZM18.3109 96.5762L18.2596 96.6274C17.3145 97.4448 16.8547 97.7769 16.2671 98.109C15.2964 98.6966 14.6322 98.5688 14.1724 98.0069C14.0957 97.93 14.0447 97.8279 13.9936 97.7513C13.968 97.7256 13.9423 97.6748 13.917 97.6492V97.6235C13.9682 97.1637 14.147 96.8316 14.6068 96.1163C14.6325 96.0907 14.6325 96.0907 14.6325 96.0653C14.9133 95.6565 15.041 95.4267 15.1687 95.1456L14.7089 94.9412C14.6068 95.1713 14.4791 95.3757 14.2234 95.7842C14.1978 95.8099 14.1978 95.8099 14.1978 95.8355C13.7382 96.4997 13.5335 96.9083 13.4315 97.3681H13.4058H13.3291C13.2779 97.3425 13.2014 97.2914 13.0994 97.1894C12.103 95.6055 12.895 94.2516 15.1428 92.5654C15.4239 92.3612 16.3692 91.697 16.6247 91.4926C16.6759 91.4926 16.7267 91.467 16.778 91.4413C18.1573 92.6167 19.7668 93.6384 21.5551 94.4814C21.5551 94.507 21.5807 94.5327 21.6061 94.5583C20.5587 94.8135 19.7414 95.35 18.3109 96.5762ZM61.203 93.7918C61.9949 95.1202 61.9693 96.193 60.9729 96.9339C60.8965 96.7806 60.8452 96.6018 60.7431 96.3464C60.7431 96.3207 60.7431 96.3207 60.7175 96.2951C60.36 95.3244 60.1302 94.9158 59.6958 94.456L59.338 94.8135C59.7212 95.1713 59.9002 95.5544 60.2577 96.4484C60.2577 96.4741 60.2577 96.4741 60.2833 96.4997C60.411 96.8316 60.4877 97.036 60.5644 97.215C59.9002 97.7769 59.3126 97.8792 58.6994 97.5981C58.1629 97.3681 57.652 96.8826 56.8344 95.9632C56.7834 95.9119 56.7324 95.8355 56.6813 95.7588C56.6557 95.7332 56.63 95.7075 56.6044 95.6565C56.5536 95.6055 56.5536 95.6055 56.528 95.5544C55.5827 94.456 55.0208 93.8685 54.4076 93.5361C55.8384 92.7187 57.1158 91.7991 58.2652 90.7261C59.338 91.518 60.5387 92.6931 61.203 93.7918ZM61.5605 85.5148C59.3636 89.9344 55.4806 93.0509 50.2691 94.9412C45.8241 96.5508 40.5616 97.215 35.1203 97.0106C25.7449 96.6785 17.6213 93.4086 13.8149 87.2264C11.2603 83.1133 10.417 77.8764 10.6471 70.6725C10.7238 68.7054 10.8258 66.9428 11.0813 63.7239C11.3624 60.0963 11.439 59.0489 11.5157 57.414C11.5668 56.2389 11.5668 55.0382 11.5414 53.761C11.4901 51.5129 11.3624 49.7246 11.0302 45.7138C10.5704 40.4002 10.4427 38.0754 10.4937 35.163C10.5707 31.3315 11.0813 27.9591 12.1543 24.7662C13.8908 19.5798 17.0845 16.0799 21.6828 13.8066C25.5402 11.9165 30.2152 10.9456 36.5762 10.4344C42.5286 10.4344 46.8712 10.971 50.6266 12.3504C55.1226 14.011 58.4691 16.9231 60.7683 21.394C62.2501 25.0214 63.1187 28.9301 63.5786 33.426C63.9361 36.8493 64.0127 39.6083 64.0384 45.8669V47.8596C64.064 50.9507 64.1148 53.1221 64.2428 55.2936C64.2938 56.1366 64.3192 56.4943 64.4469 58.5124C64.728 62.8553 64.8303 65.1034 64.8557 67.7091C64.907 75.0407 63.9874 80.6864 61.5605 85.5148ZM69.3776 57.5417C69.352 57.5417 69.3266 57.5161 69.3012 57.5161C68.8414 57.363 68.688 57.2606 68.5346 57.0819L68.1258 57.3884C68.3559 57.6951 68.5857 57.8228 69.0968 58.0013C68.9945 58.9212 68.5603 59.2533 67.8196 59.1766C67.1554 59.1254 66.2865 58.7168 65.5713 58.2313C65.3669 58.0782 65.1627 57.9759 64.9583 57.8738C64.9327 57.8738 64.907 57.8482 64.8814 57.8482C64.7793 56.4433 64.7793 56.0855 64.7283 55.3446L64.6516 53.9651C66.0824 53.9908 67.4873 54.425 68.56 55.2169C68.9434 55.498 69.4033 56.0345 69.6077 56.4941C69.8631 56.9285 69.8121 57.3117 69.3776 57.5417Z" fill="black"/>
<path d="M40.4233 36.5763C40.4489 37.8791 40.7044 39.3096 40.4743 40.6891C40.1166 41.3533 39.4526 41.4303 38.865 41.6855C38.0474 41.5577 37.3576 41.0212 37.0257 40.2549C36.8213 38.6967 37.0767 37.2149 37.1534 35.6566C37.1534 35.6053 38.1241 35.6823 38.9927 35.9377C39.7334 36.1675 40.4233 36.5506 40.4233 36.5763ZM33.1937 36.6783C32.4782 39.3866 34.139 43.8059 36.8723 40.1782C36.6679 38.6454 36.898 37.1638 36.9744 35.6566C37.0001 35.5289 33.2193 36.4996 33.1937 36.6783Z" fill="white"/>
<path d="M40.7292 37.7773C40.678 37.0108 40.6526 36.7043 40.6526 36.3212V36.1424L40.4738 36.0911L37.255 35.095V34.916L36.9229 34.993H36.8972V35.0183L33.2699 35.938L33.1421 35.9637L33.0908 36.0911C32.5289 37.4452 32.6567 39.4889 33.3719 40.7407C34.1895 42.1713 35.5177 42.1966 36.8718 40.5617C37.0605 40.9259 37.3322 41.2405 37.6651 41.4802C37.9979 41.7199 38.3824 41.8779 38.7876 41.9415H38.8645L38.9409 41.9158C39.0433 41.8645 39.1453 41.8389 39.3244 41.7625C39.35 41.7625 39.35 41.7625 39.3754 41.7368C40.116 41.4814 40.4228 41.277 40.6782 40.7918L40.7039 40.7661V40.7151C40.7803 40.2552 40.8059 39.7698 40.8059 39.2335C40.8059 38.8501 40.7803 38.4923 40.7292 37.7773ZM36.6418 36.832C36.6161 37.2919 36.5908 37.4706 36.5654 37.726C36.5141 38.6714 36.5141 39.3866 36.591 40.1019C35.39 41.6347 34.445 41.6347 33.8064 40.485C33.1932 39.4123 33.0652 37.5983 33.5253 36.3978L36.7439 35.5802C36.7185 35.9124 36.6931 36.2445 36.6418 36.832ZM40.2184 40.613C40.0396 40.9195 39.8096 41.0728 39.1964 41.2772C39.1707 41.2772 39.1707 41.2772 39.1453 41.3026C38.9922 41.3539 38.8899 41.4047 38.8132 41.4303C38.1234 41.3026 37.5361 40.8428 37.255 40.2042C37.1783 39.5143 37.1783 38.7991 37.2293 37.854C37.255 37.5983 37.255 37.4196 37.3063 36.9597C37.3571 36.3724 37.3827 36.0147 37.3827 35.6826L40.1673 36.5256C40.1673 36.8577 40.193 37.1641 40.244 37.8284C40.2951 38.5182 40.3204 38.8758 40.3204 39.2845C40.3204 39.7698 40.2948 40.2042 40.2184 40.613Z" fill="black"/>
<path d="M17.8164 25.446C20.1666 34.5914 34.8045 32.2412 34.2426 23.0702C33.5781 12.0853 15.5685 14.2057 17.8164 25.446Z" fill="white"/>
<path d="M34.4976 23.045C34.3443 20.3881 33.1692 18.319 31.2278 17.0162C29.4905 15.8411 27.1913 15.3812 24.9178 15.6621C22.6443 15.969 20.5493 16.9908 19.1698 18.6003C17.6372 20.3884 17.0497 22.7386 17.5862 25.4465C19.9874 34.8473 35.0595 32.5738 34.4976 23.045ZM18.0457 25.3955C17.5349 22.8155 18.097 20.6184 19.5276 18.9578C20.8304 17.4506 22.7974 16.4545 24.9689 16.1734C27.1403 15.8924 29.3118 16.3268 30.9469 17.4506C32.7604 18.677 33.859 20.593 34.0121 23.122C34.5487 32.0375 20.3193 34.1836 18.0457 25.3955Z" fill="black"/>
<path d="M21.8519 26.6215C23.2204 26.6215 24.3298 25.4205 24.3298 23.9391C24.3298 22.4577 23.2204 21.2568 21.8519 21.2568C20.4834 21.2568 19.374 22.4577 19.374 23.9391C19.374 25.4205 20.4834 26.6215 21.8519 26.6215Z" fill="black"/>
<path d="M22.9762 25.2415C23.3007 25.2415 23.5638 24.9328 23.5638 24.5519C23.5638 24.1711 23.3007 23.8623 22.9762 23.8623C22.6517 23.8623 22.3887 24.1711 22.3887 24.5519C22.3887 24.9328 22.6517 25.2415 22.9762 25.2415Z" fill="white"/>
<path d="M38.3446 23.7368C40.1585 34.2362 57.3254 31.4516 54.8475 20.8755C52.625 11.3723 37.7314 14.0036 38.3446 23.7368Z" fill="white"/>
<path d="M55.0771 20.8246C52.8036 11.0404 37.4762 13.7227 38.0892 23.7623V23.788C38.9319 28.7438 43.3517 31.273 48.2309 30.4554C50.4531 30.0723 52.4458 28.9995 53.7486 27.4156C55.1791 25.6527 55.69 23.3792 55.0771 20.8246ZM53.3657 27.1089C52.1393 28.5907 50.2746 29.6124 48.1542 29.9702C43.5302 30.7365 39.3917 28.3606 38.5744 23.7113C38.0122 14.2592 52.4714 11.73 54.6172 20.9266C55.1794 23.3535 54.7196 25.4739 53.3657 27.1089Z" fill="black"/>
<path d="M42.5597 25.9593C43.9 25.9593 44.9866 24.7584 44.9866 23.277C44.9866 21.7956 43.9 20.5947 42.5597 20.5947C41.2194 20.5947 40.1328 21.7956 40.1328 23.277C40.1328 24.7584 41.2194 25.9593 42.5597 25.9593Z" fill="black"/>
<path d="M43.684 24.5794C43.9943 24.5794 44.2459 24.2707 44.2459 23.8898C44.2459 23.5089 43.9943 23.2002 43.684 23.2002C43.3736 23.2002 43.1221 23.5089 43.1221 23.8898C43.1221 24.2707 43.3736 24.5794 43.684 24.5794Z" fill="white"/>
<path d="M33.7213 31.16C31.7029 31.3387 30.068 33.7146 31.1156 35.6049C32.4949 38.1085 35.586 35.3752 37.502 35.6306C39.7245 35.6819 41.5384 37.9808 43.3011 36.0394C45.2681 33.8933 42.4581 31.7986 40.2353 30.8789L33.7213 31.16Z" fill="#F6D2A2"/>
<path d="M43.5563 32.8712C42.8665 32.0025 41.666 31.2106 40.3629 30.6741L40.3119 30.6484H40.2608L33.7211 30.9041C31.4473 31.1085 29.8127 33.7398 30.9108 35.7322C31.3453 36.4988 31.9328 36.8819 32.7248 36.933C33.3121 36.9586 33.9255 36.8309 34.8706 36.4988C34.9472 36.4731 35.0493 36.4475 35.177 36.3965C36.4545 35.9623 36.9653 35.8346 37.4762 35.9112H37.5018C38.1148 35.9112 38.6259 36.09 39.5966 36.4731C40.6696 36.9073 41.0017 37.0353 41.538 37.0861C42.2792 37.1374 42.9177 36.8819 43.505 36.2434C44.5014 35.1447 44.4503 33.9696 43.5563 32.8712ZM43.1219 35.8856C42.6367 36.4221 42.1512 36.6011 41.5636 36.5755C41.1038 36.5498 40.7973 36.4221 39.7753 36.0133C38.7536 35.5791 38.1917 35.426 37.5275 35.4004C36.8889 35.3234 36.3524 35.4514 34.9983 35.9112C34.8706 35.9623 34.7685 35.9879 34.6918 36.0133C32.8268 36.6519 31.9328 36.6009 31.3196 35.4768C30.4 33.8165 31.8051 31.5684 33.7211 31.3896L40.1841 31.1339C41.4105 31.645 42.509 32.3857 43.1475 33.1779C43.9138 34.0973 43.9395 35.017 43.1219 35.8856Z" fill="#231F20"/>
<path d="M40.7464 30.0616C39.9544 27.1492 33.3124 27.5837 33.4655 31.0579C33.7976 33.6379 41.5127 32.948 40.7464 30.0616Z" fill="black"/>
</svg>
