<svg width="101" height="100" viewBox="0 0 101 100" fill="none" xmlns="http://www.w3.org/2000/svg">
<g clip-path="url(#clip0_53_1607)">
<path d="M0.742188 0H100.742V100H0.742188V0Z" fill="#F0DB4F"/>
<path d="M92.5577 76.1497C91.8258 71.587 88.8505 67.7562 80.0387 64.182C76.9779 62.7752 73.5653 61.7677 72.5482 59.4482C72.187 58.0984 72.1395 57.3379 72.3676 56.5204C73.0235 53.8683 76.1889 53.0413 78.6984 53.8018C80.3144 54.3436 81.8448 55.589 82.7668 57.5756C87.0824 54.781 87.0729 54.7999 90.0862 52.8799C88.9836 51.1688 88.3942 50.3798 87.6718 49.6479C85.0767 46.7487 81.5406 45.2563 75.8847 45.3703C74.9056 45.4939 73.9171 45.6269 72.9379 45.7506C70.1148 46.4635 67.4246 47.9464 65.8467 49.9331C61.1128 55.3038 62.4627 64.7048 68.2231 68.5738C73.898 72.8323 82.2345 73.8019 83.2991 77.7848C84.3353 82.6612 79.7156 84.2391 75.1242 83.6783C71.7402 82.9749 69.8582 81.2544 67.8239 78.127C64.0787 80.2943 64.0787 80.2943 60.2289 82.5091C61.1415 84.5053 62.1014 85.4084 63.6319 87.1384C70.8753 94.4863 89.0026 94.1251 92.2536 83.0034C92.3866 82.6231 93.2612 80.0756 92.5577 76.1497ZM55.1052 45.9596H45.7516C45.7516 54.0394 45.7137 62.0623 45.7137 70.1421C45.7137 75.2847 45.9799 79.9995 45.1434 81.4444C43.7745 84.2865 40.2289 83.9349 38.6129 83.3835C36.9685 82.5755 36.1319 81.4253 35.1624 79.7999C34.8962 79.3341 34.6966 78.9729 34.63 78.9444C32.092 80.4938 29.5634 82.0527 27.0254 83.6022C28.2897 86.1972 30.1528 88.4501 32.5387 89.9139C36.1033 92.0527 40.8942 92.7086 45.9038 91.5584C49.1643 90.6078 51.9779 88.6402 53.4512 85.6459C55.5805 81.7201 55.1242 76.9672 55.1052 71.7106C55.1528 63.1364 55.1052 54.5623 55.1052 45.9596Z" fill="#323330"/>
</g>
<defs>
<clipPath id="clip0_53_1607">
<rect width="100" height="100" fill="white" transform="translate(0.742188)"/>
</clipPath>
</defs>
</svg>
