<svg width="101" height="100" viewBox="0 0 101 100" fill="none" xmlns="http://www.w3.org/2000/svg">
<g clip-path="url(#clip0_53_1614)">
<path d="M0.679688 50V0H100.68V100H0.679688" fill="#007ACC"/>
<path d="M22.6045 50.1752V54.2502H35.6045V91.2502H44.8295V54.2502H57.8295V50.2502C57.8295 48.0002 57.8295 46.1752 57.7295 46.1252C57.7295 46.0502 49.8045 46.0252 40.1795 46.0252L22.6795 46.1002V50.2002L22.6045 50.1752ZM81.0295 46.0002C83.5795 46.6002 85.5295 47.7502 87.2795 49.5752C88.2045 50.5752 89.5795 52.3252 89.6795 52.7752C89.6795 52.9252 85.3545 55.8502 82.7295 57.4752C82.6295 57.5502 82.2295 57.1252 81.8295 56.4752C80.5295 54.6252 79.2045 53.8252 77.1295 53.6752C74.1295 53.4752 72.1295 55.0502 72.1295 57.6752C72.1295 58.4752 72.2795 58.9252 72.5795 59.5752C73.2545 60.9502 74.5045 61.7752 78.3795 63.4752C85.5295 66.5502 88.6295 68.5752 90.5045 71.4752C92.6295 74.7252 93.1045 79.8252 91.6795 83.6502C90.0795 87.8252 86.1795 90.6502 80.6045 91.5752C78.8545 91.8752 74.8545 91.8252 72.9795 91.5002C68.9795 90.7502 65.1545 88.7502 62.8045 86.1752C61.8795 85.1752 60.1045 82.5002 60.2045 82.3252L61.1545 81.7252L64.9045 79.5502L67.7295 77.9002L68.3795 78.7752C69.2045 80.0752 71.0545 81.8252 72.1295 82.4252C75.3795 84.1002 79.7295 83.8752 81.8795 81.9252C82.8045 81.0752 83.2045 80.1752 83.2045 78.9252C83.2045 77.7752 83.0295 77.2502 82.4545 76.3752C81.6545 75.2752 80.0545 74.3752 75.5545 72.3752C70.3795 70.1752 68.1795 68.7752 66.1295 66.6252C64.9545 65.3252 63.8795 63.3002 63.3795 61.6252C63.0045 60.1752 62.8795 56.6252 63.2295 55.2002C64.3045 50.2002 68.0795 46.7002 73.4795 45.7002C75.2295 45.3502 79.3545 45.5002 81.0795 45.9502L81.0295 46.0002Z" fill="white"/>
</g>
<defs>
<clipPath id="clip0_53_1614">
<rect width="100" height="100" fill="white" transform="translate(0.679688)"/>
</clipPath>
</defs>
</svg>
