<svg width="90" height="100" viewBox="0 0 90 100" fill="none" xmlns="http://www.w3.org/2000/svg">
<g clip-path="url(#clip0_53_1644)">
<path d="M30.5617 60.7402C34.0089 60.7402 36.8035 63.5348 36.8035 66.982V93.7577C36.8035 97.2049 34.0089 99.9991 30.5617 99.9991C27.1149 99.9991 24.3203 97.2049 24.3203 93.7577V66.982C24.3203 63.5353 27.1149 60.7407 30.5617 60.7407V60.7402Z" fill="#A4C639"/>
<path d="M16.312 28.5488C16.2914 28.7855 16.2734 29.0248 16.2734 29.2668V69.8344C16.2734 74.1972 19.7268 77.7119 24.0138 77.7119H65.2682C69.5556 77.7119 73.009 74.1967 73.009 69.8344V29.2668C73.009 29.0248 73.0002 28.7846 72.9801 28.5488H16.312Z" fill="#A4C639"/>
<path d="M58.7213 60.7409C62.1686 60.7409 64.9632 63.5355 64.9632 66.9827V93.7584C64.9632 97.2056 62.1686 99.9998 58.7213 99.9998C55.2746 99.9998 52.48 97.2056 52.48 93.7584V66.9827C52.48 63.536 55.2746 60.7414 58.7213 60.7414V60.7409ZM6.24474 32.1595C9.69152 32.1595 12.4861 34.9541 12.4861 38.4013V65.177C12.4861 68.6242 9.69152 71.4188 6.24474 71.4188C2.79752 71.4188 0.00292974 68.6242 0.00292974 65.1774V38.4017C0.00249144 34.9545 2.79708 32.1595 6.24474 32.1595ZM83.0386 32.1595C86.4854 32.1595 89.28 34.9541 89.28 38.4013V65.177C89.28 68.6242 86.4854 71.4188 83.0386 71.4188C79.5914 71.4188 76.7968 68.6242 76.7968 65.1774V38.4017C76.7968 34.9545 79.5914 32.1595 83.0386 32.1595ZM16.4944 25.8844C16.6679 13.4235 27.5439 3.2068 41.5045 1.86035H47.7775C61.739 3.20724 72.6141 13.4244 72.7877 25.8844H16.4944Z" fill="#A4C639"/>
<path d="M18.665 0.657227L25.2492 12.0618M70.6179 0.657227L64.0333 12.0618" stroke="#A4C639" stroke-width="32.8724" stroke-linecap="round" stroke-linejoin="round"/>
<path d="M36.2562 14.7175C36.2615 16.4593 34.8199 17.8754 33.036 17.8802C31.253 17.8846 29.8031 16.4768 29.7979 14.735V14.7175C29.793 12.9752 31.2346 11.5595 33.018 11.5547C34.801 11.5499 36.2509 12.9573 36.2562 14.6999V14.7175ZM60.3609 14.7175C60.3661 16.4593 58.9246 17.8754 57.1407 17.8802C55.3577 17.8846 53.9078 16.4768 53.9025 14.735V14.7175C53.8977 12.9752 55.3393 11.5595 57.1227 11.5547C58.9057 11.5499 60.3556 12.9573 60.3609 14.6999V14.7175Z" fill="white"/>
</g>
<defs>
<clipPath id="clip0_53_1644">
<rect width="89.28" height="100" fill="white" transform="translate(0.000976562)"/>
</clipPath>
</defs>
</svg>
