<svg width="116" height="100" viewBox="0 0 116 100" fill="none" xmlns="http://www.w3.org/2000/svg">
<g clip-path="url(#clip0_53_1604)">
<path d="M114.652 93.9061L61.6732 2.14585C61.3282 1.5467 60.8314 1.04905 60.2329 0.703024C59.6343 0.356995 58.9551 0.174805 58.2638 0.174805C57.5724 0.174805 56.8932 0.356995 56.2946 0.703024C55.6961 1.04905 55.1993 1.5467 54.8543 2.14585L1.87263 93.9066C1.52555 94.5054 1.34277 95.1854 1.34277 95.8775C1.34277 96.5697 1.52555 97.2496 1.87263 97.8485C2.21834 98.4468 2.7154 98.9435 3.31387 99.2889C3.91234 99.6342 4.59115 99.816 5.28212 99.8159H111.244C111.935 99.816 112.613 99.6342 113.212 99.2889C113.81 98.9435 114.307 98.4468 114.652 97.8485C114.999 97.2496 115.182 96.5697 115.182 95.8775C115.182 95.1854 114.999 94.5054 114.652 93.9066" fill="#B01C33"/>
<path d="M65.1024 72.9511C61.9103 77.0417 58.3178 77.9392 55.0244 77.9392C51.5332 77.9392 47.7421 76.8413 47.7421 71.6545C47.7421 66.2674 51.2337 64.7699 58.0201 64.7699H65.1024V72.9511ZM91.2491 77.114L78.4811 71.5237L79.8852 75.2448L74.6811 76.2133V50.5049C74.6811 39.3333 65.6023 37.3369 58.0201 37.3369C49.7363 37.3369 41.7587 38.334 41.7587 38.334V45.9153L42.4572 46.6138C42.4572 46.6138 50.0385 45.6163 56.3232 45.6163C61.9103 45.6163 65.1024 48.2094 65.1024 52.6995V57.1895H55.4252C46.5446 57.1895 38.0693 60.9793 38.0693 72.2539C38.0693 83.4233 44.5522 86.2195 51.4359 86.2195C60.7137 86.2195 64.9016 79.2367 64.9016 79.2367H65.3006L65.1024 84.5266L65.7987 85.2219L81.0854 82.5226L80.9435 86.4984L91.2491 77.114Z" fill="white"/>
</g>
<defs>
<clipPath id="clip0_53_1604">
<rect width="114.26" height="100" fill="white" transform="translate(0.923828)"/>
</clipPath>
</defs>
</svg>
