<svg width="90" height="100" viewBox="0 0 90 100" fill="none" xmlns="http://www.w3.org/2000/svg">
<g clip-path="url(#clip0_53_1617)">
<path d="M73.2914 52.6702C73.2469 44.5038 76.9407 38.34 84.4173 33.8006C80.2339 27.8149 73.9144 24.5216 65.5699 23.8763C57.6705 23.2532 49.0368 28.4824 45.877 28.4824C42.5392 28.4824 34.8846 24.0988 28.8766 24.0988C16.46 24.2991 3.26465 34.0009 3.26465 53.7383C3.26465 59.5683 4.33274 65.5912 6.46892 71.8069C9.31716 79.9733 19.5975 100 30.3229 99.6662C35.9304 99.5327 39.8913 95.6831 47.1899 95.6831C54.266 95.6831 57.9375 99.6662 64.1903 99.6662C75.0047 99.5105 84.306 81.3084 87.0208 73.1197C72.5125 66.2884 73.2914 53.093 73.2914 52.6702ZM60.6968 16.1326C66.7715 8.92301 66.2153 2.3587 66.0372 0C60.6745 0.311526 54.4663 3.64931 50.9282 7.76591C47.0341 12.1718 44.7422 17.6235 45.2317 23.765C51.0395 24.2101 56.3354 21.2283 60.6968 16.1326Z" fill="black"/>
</g>
<defs>
<clipPath id="clip0_53_1617">
<rect width="89.2" height="100" fill="white" transform="translate(0.542969)"/>
</clipPath>
</defs>
</svg>
