<svg width="92" height="100" viewBox="0 0 92 100" fill="none" xmlns="http://www.w3.org/2000/svg">
<g clip-path="url(#clip0_53_1595)">
<path d="M87.1225 14.5724C86.8272 6.86415 80.0519 5.2473 80.0519 5.2473C80.0519 5.2473 56.5687 1.70859 46.2813 0.424003C35.9906 -0.867395 36.6311 9.10501 36.6311 9.10501C36.6311 9.10501 38.968 81.7878 39.2107 90.7907C39.4863 101.516 49.4981 99.7903 49.4981 99.7903L84.8784 93.672C91.3121 92.3842 91.6307 84.3505 91.6307 84.3505C91.6307 84.3505 87.4515 22.9874 87.1225 14.5724C87.4512 22.9874 86.8272 6.86415 87.1225 14.5724ZM79.2085 76.314L52.9006 79.0391C52.9006 79.0391 45.239 80.2075 45.0666 70.8993C44.9404 64.0412 43.4232 24.757 43.4232 24.757C43.4232 24.757 42.8953 17.5534 50.7795 18.1441C58.8261 18.7416 78.1067 20.2089 78.1067 20.2089C78.1067 20.2089 83.2687 21.4373 83.4942 27.3197C83.7365 33.7132 85.9641 69.2197 85.9641 69.2197C85.9641 69.2197 86.5447 75.0555 79.2085 76.314ZM14.8049 65.724L9.94472 66.0695C9.94472 66.0695 5.0415 66.7333 4.92895 61.3688C4.84938 57.4154 4.35798 34.9745 4.35798 34.9745C4.35798 34.9745 4.01928 30.8219 9.06193 31.1606C10.3401 31.2434 12.1522 31.3595 14.154 31.4792C14.0845 27.7577 14.025 24.5043 13.9784 22.0283C11.2031 21.819 8.60709 21.5932 6.75153 21.3975C0.0888086 20.6638 0.497053 26.2573 0.497053 26.2573C0.497053 26.2573 1.301 67.414 1.45046 72.4598C1.63325 78.4749 8.1096 77.4989 8.1096 77.4989L15.0243 76.7588C14.9644 73.7742 14.8845 69.9702 14.8053 65.7244L14.8049 65.724ZM34.135 28.3154C34.1159 27.8301 34.0345 27.3492 33.8928 26.8846C31.7648 26.7122 26.4232 25.3211 24.7107 27.1305C23.625 28.2692 24.073 30.6692 24.0996 32.0337L27.9738 32.2523C27.9738 32.2523 31.2766 32.9595 31.4196 36.3455C31.5723 40.0373 31.5523 60.7147 31.5523 60.7147C31.5523 60.7147 31.9239 64.0874 27.2368 64.8014L24.777 64.9842C24.7902 65.7176 24.8035 66.3086 24.81 66.7466C24.9132 72.6426 31.1838 70.7538 35.1175 70.3717C35.4562 64.1176 34.8551 57.6742 34.716 51.4168C34.5465 43.7186 34.4834 36.0072 34.135 28.3154C34.3472 33.0226 34.1117 27.791 34.135 28.3154Z" fill="black"/>
<path d="M36.1696 72.7888L29.0821 73.4727C29.0821 73.4727 22.4728 74.4218 22.3301 66.8068C22.2273 61.1867 21.5631 29.3315 21.5631 29.3315C21.5631 29.3315 21.1051 23.4426 27.8871 23.9139C29.6298 24.0336 32.0269 24.2293 34.6362 24.4387C34.4402 18.3272 34.2839 13.5068 34.2043 11.024C30.6326 10.6752 27.2663 10.3236 24.7767 10.0383C15.8133 9.02181 16.3782 16.9458 16.3782 16.9458C16.3782 16.9458 17.4438 75.3777 17.6527 82.5182C17.895 91.053 26.6158 89.682 26.6158 89.682L36.6509 88.3971C36.5513 85.0745 36.3821 79.4939 36.1696 72.7885V72.7888ZM50.59 20.6275C49.3355 20.5279 47.8115 20.6111 46.8821 21.5903C45.8993 22.6193 45.8828 24.0799 45.9395 25.401C49.4947 25.71 52.0739 25.9387 52.0739 25.9387C52.0739 25.9387 56.5154 26.9383 56.718 31.7516C56.9237 36.9867 58.1954 65.4326 58.1954 65.4326C58.1954 65.4326 58.6932 70.2161 52.3792 71.2483L47.599 71.7064C48.2334 79.1788 57.8964 76.0254 62.8391 75.5143C62.3316 64.2774 60.7581 29.5243 60.4029 21.3645C57.1327 21.1081 53.8618 20.8624 50.59 20.6275C53.0764 20.8032 50.3445 20.6078 50.59 20.6275Z" fill="black"/>
</g>
<defs>
<clipPath id="clip0_53_1595">
<rect width="91.76" height="100" fill="white" transform="translate(0.182617)"/>
</clipPath>
</defs>
</svg>
