<svg width="101" height="100" viewBox="0 0 101 100" fill="none" xmlns="http://www.w3.org/2000/svg">
<g clip-path="url(#clip0_53_1610)">
<path d="M22.7695 0H78.1602C80.8555 0 83.4727 0.429688 86.0117 1.32813C89.6836 2.65625 93.0039 5 95.5039 8.04688C98.043 11.0938 99.7226 14.8438 100.309 18.75C100.543 20.1953 100.582 21.6406 100.582 23.0859V77.1094C100.582 78.8281 100.504 80.5859 100.152 82.2656C99.3711 86.1328 97.5352 89.7656 94.8789 92.6953C92.2617 95.625 88.8242 97.8125 85.1133 98.9844C82.8477 99.6875 80.5039 100 78.1211 100C77.0664 100 22.6133 100 21.793 99.9609C17.8086 99.7656 13.8633 98.4766 10.543 96.25C7.30079 94.0625 4.64454 91.0156 2.92579 87.5C1.44141 84.4922 0.699224 81.1328 0.699224 77.7734V22.2266C0.621099 18.9063 1.32422 15.625 2.76954 12.6563C4.44922 9.14063 7.06641 6.05469 10.3086 3.86719C13.6289 1.60156 17.5352 0.273438 21.5195 0.078125C21.9102 0 22.3398 0 22.7695 0Z" fill="url(#paint0_linear_53_1610)"/>
<path d="M84.918 81.7969C84.5664 81.25 84.1758 80.7031 83.7461 80.1953C82.7695 79.0234 81.6367 78.0078 80.3867 77.1484C78.8242 76.0937 76.9883 75.4297 75.1133 75.3516C73.7852 75.2734 72.457 75.5078 71.207 75.9766C69.957 76.4063 68.7461 77.0313 67.5742 77.6563C66.207 78.3594 64.8398 79.0625 63.3945 79.6484C61.6758 80.3516 59.8789 80.8984 58.043 81.2891C55.7383 81.7188 53.3945 81.875 51.0898 81.8359C46.9102 81.7578 42.7305 81.1328 38.7461 79.9609C35.2305 78.9062 31.8711 77.4609 28.707 75.625C25.9336 74.0234 23.3555 72.1875 20.9336 70.1172C18.9414 68.3984 17.1055 66.5625 15.3867 64.6094C14.2148 63.2422 13.082 61.7969 12.0273 60.3125C11.5977 59.7266 11.207 59.1016 10.8555 58.4766L0.542969 47.3437V22.1484C0.542969 9.92188 10.4258 0 22.6523 0H42.3789L56.9883 14.8438C89.957 37.2656 79.293 61.9922 79.293 61.9922C79.293 61.9922 88.668 72.5391 84.918 81.7969Z" fill="url(#paint1_linear_53_1610)"/>
<path d="M57.0664 14.8438C90.0352 37.2656 79.3711 61.9922 79.3711 61.9922C79.3711 61.9922 88.7461 72.5781 84.957 81.8359C84.957 81.8359 81.0899 75.3516 74.6055 75.3516C68.3555 75.3516 64.6836 81.8359 52.1055 81.8359C24.0977 81.8359 10.8555 58.4375 10.8555 58.4375C36.0898 75.0391 53.3164 63.2812 53.3164 63.2812C41.9492 56.6797 17.7695 25.1172 17.7695 25.1172C38.8242 43.0469 47.9258 47.7734 47.9258 47.7734C42.4961 43.2813 27.2617 21.3281 27.2617 21.3281C39.4492 33.6719 63.668 50.8984 63.668 50.8984C70.543 31.8359 57.0664 14.8438 57.0664 14.8438Z" fill="white"/>
</g>
<defs>
<linearGradient id="paint0_linear_53_1610" x1="60.0316" y1="-3.56836" x2="41.1383" y2="103.58" gradientUnits="userSpaceOnUse">
<stop stop-color="#FAAE42"/>
<stop offset="1" stop-color="#EF3E31"/>
</linearGradient>
<linearGradient id="paint1_linear_53_1610" x1="51.5633" y1="1.61563" x2="37.7356" y2="80.0363" gradientUnits="userSpaceOnUse">
<stop stop-color="#E39F3A"/>
<stop offset="1" stop-color="#D33929"/>
</linearGradient>
<clipPath id="clip0_53_1610">
<rect width="100" height="100" fill="white" transform="translate(0.542969)"/>
</clipPath>
</defs>
</svg>
