<svg width="97" height="102" viewBox="0 0 97 102" fill="none" xmlns="http://www.w3.org/2000/svg">
<path d="M79.3872 26.0825L89.2246 31.2395L87.3347 20.2961L95.2822 12.5486L84.2817 10.9507L79.363 1L74.4443 10.9507L63.4438 12.5486L71.3913 20.2961L69.5014 31.2395L79.3388 26.0825H79.3872Z" stroke="#363535" stroke-width="2" stroke-linecap="round" stroke-linejoin="round"/>
<path d="M59.5908 26.3247L55.084 30.8279" stroke="#363535" stroke-width="2" stroke-linecap="round" stroke-linejoin="round"/>
<path d="M79.386 45.9111L74.855 50.4386" stroke="#363535" stroke-width="2" stroke-linecap="round" stroke-linejoin="round"/>
<path d="M61.8432 40.3669L57.3364 44.8702" stroke="#363535" stroke-width="2" stroke-linecap="round" stroke-linejoin="round"/>
<path d="M12.5111 91.6218C12.5111 92.8081 11.5661 93.7523 10.3788 93.7523C9.19155 93.7523 8.24658 92.8081 8.24658 91.6218C8.24658 90.4354 9.19155 89.4912 10.3788 89.4912C11.5661 89.4912 12.5111 90.4354 12.5111 91.6218Z" fill="#6A26DA" stroke="#363535" stroke-width="2" stroke-miterlimit="10"/>
<path d="M18.0602 97.3355C30.1267 103.679 45.3917 101.79 55.5199 91.6459L79.3865 67.7981L65.8419 54.2642L41.9752 78.112C36.9838 83.0995 28.891 83.0995 23.8996 78.112C18.9082 73.1246 18.9082 65.0381 23.8996 60.0506L47.7662 36.2029L34.2216 22.6689L10.355 46.5167C0.226821 56.6369 -1.68736 71.8898 4.66093 83.9226" stroke="#363535" stroke-width="2" stroke-linecap="round" stroke-linejoin="round"/>
</svg>
