<svg width="71" height="71" viewBox="0 0 71 71" fill="none" xmlns="http://www.w3.org/2000/svg">
<path d="M18.91 65.89H34.32V63.84H24.8L28 56.58H38.85V54.53H5.14C3.44 54.53 2.06 53.15 2.06 51.45V10.35C2.06 8.64996 3.44 7.26996 5.14 7.26996H22.9V5.21997H5.14C2.31 5.21997 0 7.51997 0 10.36V51.46C0 54.29 2.3 56.6 5.14 56.6H25.76L22.56 63.86H16.86V70.02H27.25V67.97H18.92V65.92L18.91 65.89Z" fill="#159ED9"/>
<path d="M38.0902 49.2499C38.0902 47.5499 36.7102 46.1699 35.0102 46.1699C33.3102 46.1699 31.9302 47.5499 31.9302 49.2499C31.9302 50.9499 33.3102 52.3299 35.0102 52.3299C36.7102 52.3299 38.0902 50.9499 38.0902 49.2499ZM33.9802 49.2499C33.9802 48.6799 34.4402 48.2199 35.0102 48.2199C35.5802 48.2199 36.0402 48.6799 36.0402 49.2499C36.0402 49.8199 35.5802 50.2799 35.0102 50.2799C34.4402 50.2799 33.9802 49.8199 33.9802 49.2499Z" fill="#159ED9"/>
<path d="M4.58984 41.9199H6.63984V43.9699H4.58984V41.9199Z" fill="#159ED9"/>
<path d="M58.5598 23.02C62.1498 23.02 65.0698 20.1 65.0698 16.51C65.0698 12.92 62.1498 10 58.5598 10C54.9698 10 52.0498 12.92 52.0498 16.51C52.0498 20.1 54.9698 23.02 58.5598 23.02ZM58.5598 12.06C61.0098 12.06 63.0098 14.06 63.0098 16.51C63.0098 18.96 61.0098 20.96 58.5598 20.96C56.1098 20.96 54.1098 18.96 54.1098 16.51C54.1098 14.06 56.1098 12.06 58.5598 12.06Z" fill="#159ED9"/>
<path d="M64.8702 5.20995H47.1102V7.25995H64.8702C66.5702 7.25995 67.9502 8.63995 67.9502 10.34V41.92H8.7002V43.97H67.9502V51.4399C67.9502 53.1399 66.5702 54.5199 64.8702 54.5199H40.9102V56.5699H42.0102L46.1202 65.89H51.1002V67.9399H29.3002V69.9899H53.1602V63.8299H47.4602L44.2602 56.5699H64.8802C67.7102 56.5699 70.0202 54.2699 70.0202 51.4299V10.3299C70.0202 7.49994 67.7202 5.18994 64.8802 5.18994L64.8702 5.20995Z" fill="#159ED9"/>
<path d="M34.9999 21.24C40.8499 21.24 45.6199 16.48 45.6199 10.62C45.6199 4.75999 40.8599 0 34.9999 0C29.1399 0 24.3799 4.75999 24.3799 10.62C24.3799 16.48 29.1399 21.24 34.9999 21.24ZM34.9999 2.06C39.7199 2.06 43.5599 5.9 43.5599 10.62C43.5599 15.34 39.7199 19.18 34.9999 19.18C30.2799 19.18 26.4399 15.34 26.4399 10.62C26.4399 5.9 30.2799 2.06 34.9999 2.06Z" fill="#159ED9"/>
<path d="M32.2002 4.18994V17.0499L41.9402 10.6199L32.2002 4.18994ZM34.2502 8.00995L38.2102 10.6199L34.2502 13.2299V8.00995Z" fill="#159ED9"/>
<path d="M58.98 46.03H65.83V48.08H58.98V46.03Z" fill="#159ED9"/>
<path d="M54.8701 46.03H56.9201V48.08H54.8701V46.03Z" fill="#159ED9"/>
<path d="M36.3701 63.8401H38.4201V65.8901H36.3701V63.8401Z" fill="#159ED9"/>
<path d="M12.2398 31.53L10.8398 30.03C10.3298 30.51 9.82984 31.01 9.33984 31.53L10.8398 32.94C11.2998 32.45 11.7698 31.98 12.2498 31.53H12.2398Z" fill="#159ED9"/>
<path d="M13.7402 30.2201C17.0202 27.5701 20.3102 26.2 23.5102 26.16C23.5602 26.16 23.6202 26.16 23.6702 26.16C28.1702 26.16 32.2902 28.3301 35.9002 32.6001C38.6602 35.8701 40.0702 39.1901 40.0802 39.2201L40.3402 39.8501H41.9602L42.1602 39.08C42.1902 38.98 44.9202 28.7901 52.6102 22.9301L51.3602 21.3C45.3302 25.9 42.2002 32.7501 40.9002 36.2901C40.1602 34.9501 39.0302 33.1401 37.5002 31.3201C33.5302 26.6001 28.7402 24.1001 23.6602 24.1001C23.6002 24.1001 23.5402 24.1001 23.4702 24.1001C19.7902 24.1401 16.0802 25.6601 12.4302 28.6101L13.7202 30.2101L13.7402 30.2201Z" fill="#159ED9"/>
<path d="M9.51012 34.4301L7.93012 33.1201C7.10012 34.1301 6.64012 34.8101 6.62012 34.8401L8.32012 35.9901C8.32012 35.9901 8.75012 35.3601 9.51012 34.4301Z" fill="#159ED9"/>
</svg>
