<svg width="86" height="73" viewBox="0 0 86 73" fill="none" xmlns="http://www.w3.org/2000/svg">
<path d="M32.14 26.35C33.9 24.58 34.79 22.28 34.79 19.85C34.79 11.67 29.51 5.04004 21.33 5.04004C13.15 5.04004 6.52002 11.67 6.52002 19.85C6.52002 22.85 7.87003 25.65 10.56 27.5" stroke="#159ED9" stroke-width="2" stroke-linecap="round" stroke-linejoin="round"/>
<path d="M19.98 29.28C20.73 29.62 21.66 29.83 22.67 29.83C23.68 29.83 24.61 29.62 25.36 29.28" stroke="#159ED9" stroke-width="2" stroke-linecap="round" stroke-linejoin="round"/>
<path d="M15.9403 14.47C20.2203 17.5 26.3303 18.49 29.6803 18.81C31.0603 18.94 32.0903 20.11 32.0903 21.49V25.25C32.0903 31.2 27.2703 36.02 21.3203 36.02C15.3703 36.02 10.5503 31.2 10.5503 25.25C10.5503 22.14 11.7003 19.15 13.7903 16.85L15.9403 14.48" stroke="#159ED9" stroke-width="2" stroke-linecap="round" stroke-linejoin="round"/>
<path d="M14.6401 33.8999V37.3499C14.6401 40.3199 17.0501 42.7299 20.0201 42.7299C22.9901 42.7299 25.4001 40.3199 25.4001 37.3499V35.5799" stroke="#159ED9" stroke-width="2" stroke-linecap="round" stroke-linejoin="round"/>
<path d="M18.6304 22.54V23.89" stroke="#159ED9" stroke-width="2" stroke-linecap="round" stroke-linejoin="round"/>
<path d="M26.71 22.54V23.89" stroke="#159ED9" stroke-width="2" stroke-linecap="round" stroke-linejoin="round"/>
<path d="M1.18018 65.6201H45.6002" stroke="#159ED9" stroke-width="2" stroke-linecap="round" stroke-linejoin="round"/>
<path d="M10.6001 50.81V49.6C10.6001 48.04 11.8601 46.78 13.4201 46.78H37.3901C38.9501 46.78 40.2101 48.04 40.2101 49.6V62.8C40.2101 64.36 38.9501 65.62 37.3901 65.62H13.4201C11.8601 65.62 10.6001 64.36 10.6001 62.8V56.2" stroke="#159ED9" stroke-width="2" stroke-linecap="round" stroke-linejoin="round"/>
<path d="M28.1002 56.2C28.1002 57.69 26.8902 58.89 25.4102 58.89C23.9302 58.89 22.7202 57.68 22.7202 56.2C22.7202 54.72 23.9302 53.51 25.4102 53.51C26.8902 53.51 28.1002 54.72 28.1002 56.2Z" stroke="#159ED9" stroke-width="2" stroke-linecap="round" stroke-linejoin="round"/>
<path d="M32.1402 46.78V45.43C32.1402 41.71 29.1302 38.7 25.4102 38.7" stroke="#159ED9" stroke-width="2" stroke-linecap="round" stroke-linejoin="round"/>
<path d="M14.6401 38.7C8.69011 38.7 3.87012 43.52 3.87012 49.47V65.62" stroke="#159ED9" stroke-width="2" stroke-linecap="round" stroke-linejoin="round"/>
<path d="M6.91008 15.43C5.03008 13.95 3.83008 11.66 3.83008 9.07999C3.83008 4.61999 7.45008 1 11.9101 1C14.9201 1 17.5401 2.63999 18.9301 5.07999" stroke="#159ED9" stroke-width="2" stroke-linecap="round" stroke-linejoin="round"/>
<path d="M55.02 57.5402C55.02 54.5702 57.43 52.1602 60.4 52.1602H79.25C82.22 52.1602 84.63 54.5702 84.63 57.5402V71.0002" stroke="#159ED9" stroke-width="2" stroke-linecap="round" stroke-linejoin="round"/>
<path d="M55.0199 71.0099V51.2799C55.0199 49.2799 54.1299 47.3899 52.5999 46.1099L46.9399 41.3999" stroke="#159ED9" stroke-width="2" stroke-linecap="round" stroke-linejoin="round"/>
<path d="M80.6001 52.1601V43.3701C80.6001 41.3301 79.4501 39.4701 77.6201 38.5501L71.3201 35.4001C70.4101 34.9401 69.8301 34.0101 69.8301 32.9901V26.5801" stroke="#159ED9" stroke-width="2" stroke-linecap="round" stroke-linejoin="round"/>
<path d="M49.6401 11.78V21.2C49.6401 26.22 53.0701 30.42 57.7201 31.62V35.34L48.5801 39.91C46.7601 40.82 45.6001 42.69 45.6001 44.73V71.02" stroke="#159ED9" stroke-width="2" stroke-linecap="round" stroke-linejoin="round"/>
<path d="M68.4799 26.5799C71.4499 26.5799 73.8599 24.1699 73.8599 21.1999V11.7799C73.8599 6.57988 69.6399 2.35986 64.4399 2.35986H53.6699C49.9499 2.35986 46.9399 5.36987 46.9399 9.08987C46.9399 10.5799 48.1499 11.7799 49.6299 11.7799H50.9799C53.2099 11.7799 55.0199 13.5899 55.0199 15.8199V19.8599C55.0199 23.5799 58.0299 26.5899 61.7499 26.5899H63.0999" stroke="#159ED9" stroke-width="2" stroke-linecap="round" stroke-linejoin="round"/>
<path d="M56.3701 36.01H72.5201" stroke="#159ED9" stroke-width="2" stroke-linecap="round" stroke-linejoin="round"/>
</svg>
