<svg width="78" height="70" viewBox="0 0 78 70" fill="none" xmlns="http://www.w3.org/2000/svg">
<path d="M75.5 54.78C74.66 54.78 73.98 54.1 73.98 53.26V4.56003C73.98 3.72003 74.66 3.04004 75.5 3.04004C76.34 3.04004 77.02 3.72003 77.02 4.56003V53.26C77.02 54.1 76.34 54.78 75.5 54.78Z" fill="#159ED9"/>
<path d="M72.4604 57.83C71.6204 57.83 70.9404 57.15 70.9404 56.31C70.9404 55.47 71.6204 54.79 72.4604 54.79C73.3004 54.79 73.9804 54.11 73.9804 53.27C73.9804 52.43 74.6604 51.75 75.5004 51.75C76.3404 51.75 77.0204 52.43 77.0204 53.27C77.0204 55.79 74.9704 57.84 72.4504 57.84L72.4604 57.83Z" fill="#159ED9"/>
<path d="M75.5004 6.09C74.6604 6.09 73.9804 5.41001 73.9804 4.57001C73.9804 3.73001 73.3004 3.04999 72.4604 3.04999C71.6204 3.04999 70.9404 2.37 70.9404 1.53C70.9404 0.689999 71.6204 0.0100098 72.4604 0.0100098C74.9804 0.0100098 77.0304 2.06002 77.0304 4.58002C77.0304 5.42002 76.3504 6.10001 75.5104 6.10001L75.5004 6.09Z" fill="#159ED9"/>
<path d="M69.42 12.56H42.77C41.93 12.56 41.25 11.88 41.25 11.04C41.25 10.2 41.93 9.52002 42.77 9.52002H69.42C70.26 9.52002 70.94 10.2 70.94 11.04C70.94 11.88 70.26 12.56 69.42 12.56Z" fill="#159ED9"/>
<path d="M69.42 18.6498H42.77C41.93 18.6498 41.25 17.9699 41.25 17.1299C41.25 16.2899 41.93 15.6099 42.77 15.6099H69.42C70.26 15.6099 70.94 16.2899 70.94 17.1299C70.94 17.9699 70.26 18.6498 69.42 18.6498Z" fill="#159ED9"/>
<path d="M69.4203 30.82H51.9004C51.0604 30.82 50.3804 30.14 50.3804 29.3C50.3804 28.46 51.0604 27.78 51.9004 27.78H69.4203C70.2603 27.78 70.9404 28.46 70.9404 29.3C70.9404 30.14 70.2603 30.82 69.4203 30.82Z" fill="#159ED9"/>
<path d="M69.4203 36.9101H51.9004C51.0604 36.9101 50.3804 36.2301 50.3804 35.3901C50.3804 34.5501 51.0604 33.8701 51.9004 33.8701H69.4203C70.2603 33.8701 70.9404 34.5501 70.9404 35.3901C70.9404 36.2301 70.2603 36.9101 69.4203 36.9101Z" fill="#159ED9"/>
<path d="M69.4203 24.7299H51.9004C51.0604 24.7299 50.3804 24.0499 50.3804 23.2099C50.3804 22.3699 51.0604 21.6899 51.9004 21.6899H69.4203C70.2603 21.6899 70.9404 22.3699 70.9404 23.2099C70.9404 24.0499 70.2603 24.7299 69.4203 24.7299Z" fill="#159ED9"/>
<path d="M8.55026 51.7401C7.71026 51.7401 7.03027 51.0601 7.03027 50.2201V39.0901C7.03027 38.2501 7.71026 37.5701 8.55026 37.5701C9.39026 37.5701 10.0703 38.2501 10.0703 39.0901V50.2201C10.0703 51.0601 9.39026 51.7401 8.55026 51.7401Z" fill="#159ED9"/>
<path d="M29.8501 51.7399C29.0101 51.7399 28.3301 51.0599 28.3301 50.2199V37.9599C28.3301 37.1199 29.0101 36.4399 29.8501 36.4399C30.6901 36.4399 31.3701 37.1199 31.3701 37.9599V50.2199C31.3701 51.0599 30.6901 51.7399 29.8501 51.7399Z" fill="#159ED9"/>
<path d="M14.6304 51.74C13.7904 51.74 13.1104 51.06 13.1104 50.22V40.74C13.1104 39.9 13.7904 39.22 14.6304 39.22C15.4704 39.22 16.1504 39.9 16.1504 40.74V50.22C16.1504 51.06 15.4704 51.74 14.6304 51.74Z" fill="#159ED9"/>
<path d="M22.2403 33.3899C17.4203 33.3899 13.3403 29.3098 13.3403 24.4898C13.3403 19.6698 17.4203 15.5898 22.2403 15.5898C27.0603 15.5898 31.1403 19.6698 31.1403 24.4898C31.1403 29.3098 27.0603 33.3899 22.2403 33.3899ZM22.2403 18.6399C19.0703 18.6399 16.3903 21.3198 16.3903 24.4898C16.3903 27.6598 19.0703 30.3398 22.2403 30.3398C25.4103 30.3398 28.0903 27.6598 28.0903 24.4898C28.0903 21.3198 25.4103 18.6399 22.2403 18.6399Z" fill="#159ED9"/>
<path d="M8.55026 40.6101C7.71026 40.6101 7.03027 39.9301 7.03027 39.0901C7.03027 35.7101 9.20027 32.7901 12.4303 31.8101C13.2303 31.5701 14.0803 32.0201 14.3303 32.8201C14.5703 33.6201 14.1203 34.4701 13.3203 34.7201C11.3803 35.3101 10.0803 37.0601 10.0803 39.0901C10.0803 39.9301 9.40027 40.6101 8.56027 40.6101H8.55026Z" fill="#159ED9"/>
<path d="M29.8501 39.4801C29.2801 39.4801 28.7301 39.1601 28.4701 38.6001C28.1201 37.8401 28.4401 36.9301 29.2001 36.5801L43.4301 29.9501C44.1901 29.5901 45.1001 29.92 45.4501 30.68C45.8001 31.44 45.4801 32.3501 44.7101 32.7001L30.4801 39.3301C30.2701 39.4301 30.0501 39.4701 29.8401 39.4701L29.8501 39.4801Z" fill="#159ED9"/>
<path d="M44.0801 32.8501C43.5101 32.8501 42.9601 32.5301 42.7001 31.9701C42.3501 31.2101 42.6701 30.3001 43.4401 29.9501C43.9501 29.7101 44.2201 29.3601 44.2601 28.8801C44.3101 28.2801 43.9901 27.5901 43.5001 27.2501C43.1101 26.9701 42.6701 26.9501 42.1501 27.1901C41.3901 27.5401 40.4801 27.2201 40.1301 26.4601C39.7801 25.7001 40.1001 24.7901 40.8701 24.4401C42.3601 23.7401 43.9601 23.8601 45.2501 24.7601C46.6401 25.7301 47.4401 27.4601 47.3001 29.1501C47.1601 30.7201 46.2301 32.0201 44.7301 32.7101C44.5201 32.8101 44.3101 32.8501 44.0901 32.8501H44.0801Z" fill="#159ED9"/>
<path d="M27.3501 33.9301C26.7801 33.9301 26.2301 33.6101 25.9701 33.0501C25.6201 32.2901 25.9401 31.3801 26.7001 31.0301L40.8601 24.4301C41.6201 24.0801 42.5301 24.4001 42.8801 25.1601C43.2301 25.9201 42.9101 26.8301 42.1401 27.1801L27.9801 33.7801C27.7701 33.8801 27.5501 33.9201 27.3401 33.9201L27.3501 33.9301Z" fill="#159ED9"/>
<path d="M12.87 34.78C12.23 34.78 11.63 34.37 11.42 33.72C11.16 32.92 11.61 32.06 12.41 31.81C17.32 30.24 22.59 29.94 27.64 30.92C28.46 31.08 29 31.88 28.84 32.7C28.68 33.52 27.88 34.06 27.06 33.9C22.5 33.02 17.76 33.29 13.33 34.7C13.18 34.75 13.02 34.77 12.87 34.77V34.78Z" fill="#159ED9"/>
<path d="M2.46042 54.78C1.62042 54.78 0.94043 54.1 0.94043 53.26V19.78C0.94043 18.94 1.62042 18.26 2.46042 18.26C3.30042 18.26 3.98041 18.94 3.98041 19.78V53.26C3.98041 54.1 3.30042 54.78 2.46042 54.78Z" fill="#159ED9"/>
<path d="M5.50018 57.83C2.98018 57.83 0.930176 55.78 0.930176 53.26C0.930176 52.42 1.61016 51.74 2.45016 51.74C3.29016 51.74 3.97018 52.42 3.97018 53.26C3.97018 54.1 4.65017 54.78 5.49017 54.78C6.33017 54.78 7.01016 55.46 7.01016 56.3C7.01016 57.14 6.33017 57.82 5.49017 57.82L5.50018 57.83Z" fill="#159ED9"/>
<path d="M72.46 3.04001H5.5C4.66 3.04001 3.97998 2.35999 3.97998 1.51999C3.97998 0.679989 4.66 0 5.5 0H72.46C73.3 0 73.98 0.679989 73.98 1.51999C73.98 2.35999 73.3 3.04001 72.46 3.04001Z" fill="#159ED9"/>
<path d="M2.46042 15.22C2.06042 15.22 1.67043 15.05 1.38043 14.78C1.11043 14.49 0.94043 14.11 0.94043 13.7C0.94043 13.29 1.11043 12.91 1.38043 12.62C1.96043 12.06 2.98041 12.06 3.54041 12.62C3.81041 12.91 3.98041 13.3 3.98041 13.7C3.98041 14.1 3.81041 14.49 3.54041 14.78C3.25041 15.05 2.86042 15.22 2.46042 15.22Z" fill="#159ED9"/>
<path d="M2.46042 9.13007C1.62042 9.13007 0.94043 8.45008 0.94043 7.61008V4.57007C0.94043 3.73007 1.62042 3.05005 2.46042 3.05005C3.30042 3.05005 3.98041 3.73007 3.98041 4.57007V7.61008C3.98041 8.45008 3.30042 9.13007 2.46042 9.13007Z" fill="#159ED9"/>
<path d="M2.46042 6.09C1.62042 6.09 0.94043 5.41001 0.94043 4.57001C0.94043 2.05001 2.99041 0 5.51041 0C6.35041 0 7.03043 0.679989 7.03043 1.51999C7.03043 2.35999 6.35041 3.04001 5.51041 3.04001C4.67041 3.04001 3.99042 3.72 3.99042 4.56C3.99042 5.4 3.31043 6.08002 2.47043 6.08002L2.46042 6.09Z" fill="#159ED9"/>
<path d="M63.33 57.8301C62.92 57.8301 62.5401 57.6601 62.2501 57.3901C61.9801 57.1001 61.8101 56.71 61.8101 56.31C61.8101 55.91 61.9801 55.5201 62.2501 55.2301C62.8101 54.6701 63.8501 54.6701 64.4101 55.2301C64.6801 55.5201 64.85 55.91 64.85 56.31C64.85 56.71 64.6801 57.1001 64.4101 57.3901C64.1201 57.6601 63.73 57.8301 63.33 57.8301Z" fill="#159ED9"/>
<path d="M72.4604 57.83H69.4204C68.5804 57.83 67.9004 57.15 67.9004 56.31C67.9004 55.47 68.5804 54.79 69.4204 54.79H72.4604C73.3004 54.79 73.9804 55.47 73.9804 56.31C73.9804 57.15 73.3004 57.83 72.4604 57.83Z" fill="#159ED9"/>
<path d="M57.24 57.83H5.5C4.66 57.83 3.97998 57.15 3.97998 56.31C3.97998 55.47 4.66 54.79 5.5 54.79H57.24C58.08 54.79 58.76 55.47 58.76 56.31C58.76 57.15 58.08 57.83 57.24 57.83Z" fill="#159ED9"/>
<path d="M75.5004 51.7399H2.46042C1.62042 51.7399 0.94043 51.0599 0.94043 50.2199C0.94043 49.3799 1.62042 48.7 2.46042 48.7H75.5004C76.3404 48.7 77.0204 49.3799 77.0204 50.2199C77.0204 51.0599 76.3404 51.7399 75.5004 51.7399Z" fill="#159ED9"/>
<path d="M48.1103 63.91C47.2703 63.91 46.5903 63.23 46.5903 62.39V56.3C46.5903 55.46 47.2703 54.78 48.1103 54.78C48.9503 54.78 49.6303 55.46 49.6303 56.3V62.39C49.6303 63.23 48.9503 63.91 48.1103 63.91Z" fill="#159ED9"/>
<path d="M29.8501 63.91C29.0101 63.91 28.3301 63.23 28.3301 62.39V56.3C28.3301 55.46 29.0101 54.78 29.8501 54.78C30.6901 54.78 31.3701 55.46 31.3701 56.3V62.39C31.3701 63.23 30.6901 63.91 29.8501 63.91Z" fill="#159ED9"/>
<path d="M66.37 70C66.21 70 66.05 69.97 65.89 69.92L47.63 63.83C46.83 63.56 46.4 62.7 46.67 61.91C46.93 61.11 47.79 60.68 48.59 60.95L66.85 67.04C67.65 67.31 68.08 68.17 67.81 68.96C67.6 69.6 67 70 66.37 70Z" fill="#159ED9"/>
<path d="M11.59 70C10.95 70 10.36 69.6 10.15 68.96C9.87999 68.16 10.31 67.3 11.11 67.04L29.37 60.95C30.17 60.68 31.03 61.12 31.29 61.91C31.56 62.71 31.13 63.57 30.33 63.83L12.07 69.92C11.91 69.97 11.75 70 11.59 70Z" fill="#159ED9"/>
<path d="M48.1101 63.9101H29.8501C29.0101 63.9101 28.3301 63.2301 28.3301 62.3901C28.3301 61.5501 29.0101 60.8701 29.8501 60.8701H48.1101C48.9501 60.8701 49.6301 61.5501 49.6301 62.3901C49.6301 63.2301 48.9501 63.9101 48.1101 63.9101Z" fill="#159ED9"/>
</svg>
