<svg width="71" height="78" viewBox="0 0 71 78" fill="none" xmlns="http://www.w3.org/2000/svg">
<path d="M68.13 28.1999H63.52V27.6799C63.52 26.3899 62.47 25.3499 61.19 25.3499H52.11C51.48 25.3499 50.9799 25.8599 50.9799 26.4799C50.9799 27.0999 51.49 27.6099 52.11 27.6099H61.19C61.19 27.6099 61.2599 27.6399 61.2599 27.6799V41.4998C61.2599 42.1298 61.77 42.6299 62.39 42.6299C63.01 42.6299 63.52 42.1198 63.52 41.4998V30.4599H68.13C68.28 30.4599 68.41 30.5799 68.41 30.7399V70.2899C68.41 72.8799 66.3 74.9899 63.71 74.9899H7.64995C5.05995 74.9899 2.94995 72.8799 2.94995 70.2899V30.7399C2.94995 30.5899 3.06995 30.4599 3.22995 30.4599H7.98996V69.2299C7.98996 70.8299 9.28995 72.1299 10.89 72.1299H60.64C62.24 72.1299 63.5399 70.8299 63.5399 69.2299V46.3299C63.5399 45.6999 63.03 45.1999 62.41 45.1999C61.79 45.1999 61.28 45.7099 61.28 46.3299V62.6399H42.94C40.56 62.6399 38.42 63.6398 36.91 65.2498V50.5898C36.91 49.9598 36.4 49.4599 35.78 49.4599C35.16 49.4599 34.6499 49.9698 34.6499 50.5898V65.2498C33.1399 63.6498 30.9899 62.6399 28.6199 62.6399H23.47C22.84 62.6399 22.34 63.1499 22.34 63.7699C22.34 64.3899 22.85 64.8999 23.47 64.8999H28.6199C31.5799 64.8999 34.04 67.0399 34.55 69.8499H10.91C10.56 69.8499 10.28 69.5698 10.28 69.2198V64.8999H18.63C19.26 64.8999 19.7599 64.3899 19.7599 63.7699C19.7599 63.1499 19.25 62.6399 18.63 62.6399H10.28V27.6699C10.28 27.6699 10.31 27.5999 10.35 27.5999H19.4299C20.0599 27.5999 20.56 27.0898 20.56 26.4698C20.56 25.8498 20.0499 25.3398 19.4299 25.3398H10.35C9.05996 25.3398 8.01996 26.3899 8.01996 27.6699V28.1898H3.25995C1.85995 28.1898 0.709961 29.3299 0.709961 30.7399V70.2899C0.709961 74.1299 3.83995 77.2599 7.67995 77.2599H63.74C67.58 77.2599 70.71 74.1299 70.71 70.2899V30.7399C70.71 29.3399 69.57 28.1898 68.17 28.1898L68.13 28.1999ZM42.92 64.9199H61.2599V69.2399C61.2599 69.5899 60.98 69.8699 60.63 69.8699H36.99C37.5 67.0599 39.97 64.9199 42.92 64.9199Z" fill="#159ED9"/>
<path d="M20.64 15.89C21.26 15.95 21.82 15.49 21.87 14.87C22.19 11.43 23.78 8.25 26.34 5.91C28.91 3.55 32.26 2.26001 35.75 2.26001C43.44 2.26001 49.69 8.51001 49.69 16.2C49.69 19.09 48.81 21.87 47.15 24.22C47.15 24.23 47.13 24.25 47.12 24.26L39.87 35.55C39.75 35.73 39.69 35.95 39.69 36.16V37.63C39.69 37.93 39.45 38.17 39.15 38.17H39.08L39.8 25.92H41.09C42.94 25.92 44.44 24.42 44.44 22.57V22.43C44.44 20.58 42.94 19.08 41.09 19.08C39.24 19.08 37.85 20.47 37.74 22.23L37.66 23.65H33.68L33.6 22.23C33.5 20.46 32.03 19.08 30.25 19.08C28.47 19.08 26.9 20.58 26.9 22.43V22.57C26.9 24.42 28.4 25.92 30.25 25.92H31.54L32.26 38.17C32 38.13 31.8 37.91 31.8 37.64V36.17C31.8 35.95 31.74 35.74 31.62 35.56L24.37 24.27C24.37 24.27 24.35 24.24 24.34 24.23C23.3 22.75 22.56 21.11 22.16 19.34C22.02 18.73 21.41 18.35 20.8 18.49C20.19 18.63 19.81 19.24 19.95 19.85C20.42 21.89 21.27 23.8 22.48 25.52L29.54 36.51V37.65C29.54 38.79 30.23 39.78 31.21 40.22V42.14C31.21 44.16 32.85 45.8 34.87 45.8H36.62C38.64 45.8 40.28 44.16 40.28 42.14V40.22C41.26 39.78 41.95 38.8 41.95 37.65V36.51L49.01 25.52C50.93 22.78 51.95 19.57 51.95 16.21C51.95 7.27002 44.68 0 35.74 0C31.68 0 27.79 1.51 24.8 4.25C21.83 6.97 19.98 10.67 19.6 14.67C19.54 15.29 20 15.85 20.62 15.9L20.64 15.89ZM40.01 22.37C40.04 21.8 40.52 21.35 41.09 21.35C41.66 21.35 42.17 21.84 42.17 22.43V22.57C42.17 23.17 41.68 23.65 41.09 23.65H39.93L40.01 22.37ZM30.26 23.65C29.66 23.65 29.18 23.16 29.18 22.57V22.43C29.18 21.83 29.67 21.35 30.26 21.35C30.85 21.35 31.31 21.8 31.34 22.37L31.42 23.65H30.26ZM37.53 25.92L36.81 38.17H34.55L33.83 25.92H37.54H37.53ZM38.02 42.12C38.02 42.89 37.4 43.51 36.63 43.51H34.88C34.11 43.51 33.49 42.89 33.49 42.12V40.44H38.03V42.12H38.02Z" fill="#159ED9"/>
<path d="M55.6098 8.58992C55.8798 8.58992 56.1398 8.49992 56.3598 8.30992L58.8298 6.13993C59.2998 5.72993 59.3497 5.00993 58.9297 4.53993C58.5097 4.06993 57.7998 4.01992 57.3298 4.43992L54.8598 6.60994C54.3898 7.01994 54.3397 7.73994 54.7597 8.20994C54.9797 8.46994 55.2998 8.59993 55.6098 8.59993V8.58992Z" fill="#159ED9"/>
<path d="M54.8601 15.4301L57.3301 17.6001C57.5501 17.7901 57.8101 17.8801 58.0801 17.8801C58.3901 17.8801 58.7101 17.7501 58.9301 17.4901C59.3401 17.0201 59.3001 16.3001 58.8301 15.8901L56.3601 13.7201C55.8901 13.3101 55.1701 13.3501 54.7601 13.8201C54.3501 14.2901 54.3901 15.0101 54.8601 15.4201V15.4301Z" fill="#159ED9"/>
<path d="M12.6799 6.14004L15.1499 8.31002C15.3699 8.50002 15.6299 8.59002 15.8999 8.59002C16.2099 8.59002 16.5299 8.46004 16.7499 8.20004C17.1599 7.73004 17.1199 7.01003 16.6499 6.60003L14.1799 4.43005C13.7099 4.02005 12.9899 4.06002 12.5799 4.53002C12.1699 5.00002 12.2099 5.72003 12.6799 6.13003V6.14004Z" fill="#159ED9"/>
<path d="M13.4301 17.88C13.7001 17.88 13.9601 17.79 14.1801 17.6L16.6501 15.43C17.1201 15.02 17.1701 14.3 16.7501 13.83C16.3401 13.36 15.6201 13.31 15.1501 13.73L12.6801 15.9C12.2101 16.31 12.1601 17.03 12.5801 17.5C12.8001 17.76 13.1201 17.89 13.4301 17.89V17.88Z" fill="#159ED9"/>
<path d="M25.7298 39.3102C25.7298 38.6802 25.2198 38.1802 24.5998 38.1802H13.4298C12.7998 38.1802 12.2998 38.6902 12.2998 39.3102C12.2998 39.9302 12.8098 40.4402 13.4298 40.4402H24.5998C25.2298 40.4402 25.7298 39.9302 25.7298 39.3102Z" fill="#159ED9"/>
<path d="M28.0398 43.9399H15.4698C14.8398 43.9399 14.3398 44.4499 14.3398 45.0699C14.3398 45.6899 14.8498 46.2 15.4698 46.2H28.0398C28.6698 46.2 29.1698 45.6899 29.1698 45.0699C29.1698 44.4499 28.6598 43.9399 28.0398 43.9399Z" fill="#159ED9"/>
<path d="M28.0398 49.46H15.4698C14.8398 49.46 14.3398 49.9699 14.3398 50.5899C14.3398 51.2099 14.8498 51.7199 15.4698 51.7199H28.0398C28.6698 51.7199 29.1698 51.2099 29.1698 50.5899C29.1698 49.9699 28.6598 49.46 28.0398 49.46Z" fill="#159ED9"/>
<path d="M28.0398 54.98H15.4698C14.8398 54.98 14.3398 55.49 14.3398 56.11C14.3398 56.73 14.8498 57.24 15.4698 57.24H28.0398C28.6698 57.24 29.1698 56.73 29.1698 56.11C29.1698 55.49 28.6598 54.98 28.0398 54.98Z" fill="#159ED9"/>
<path d="M59.22 39.3102C59.22 38.6802 58.71 38.1802 58.09 38.1802H46.92C46.29 38.1802 45.79 38.6902 45.79 39.3102C45.79 39.9302 46.3 40.4402 46.92 40.4402H58.09C58.72 40.4402 59.22 39.9302 59.22 39.3102Z" fill="#159ED9"/>
<path d="M56.0398 43.9399H43.4698C42.8398 43.9399 42.3398 44.4499 42.3398 45.0699C42.3398 45.6899 42.8498 46.2 43.4698 46.2H56.0398C56.6698 46.2 57.1698 45.6899 57.1698 45.0699C57.1698 44.4499 56.6598 43.9399 56.0398 43.9399Z" fill="#159ED9"/>
<path d="M56.0398 49.46H43.4698C42.8398 49.46 42.3398 49.9699 42.3398 50.5899C42.3398 51.2099 42.8498 51.7199 43.4698 51.7199H56.0398C56.6698 51.7199 57.1698 51.2099 57.1698 50.5899C57.1698 49.9699 56.6598 49.46 56.0398 49.46Z" fill="#159ED9"/>
<path d="M56.0398 54.98H43.4698C42.8398 54.98 42.3398 55.49 42.3398 56.11C42.3398 56.73 42.8498 57.24 43.4698 57.24H56.0398C56.6698 57.24 57.1698 56.73 57.1698 56.11C57.1698 55.49 56.6598 54.98 56.0398 54.98Z" fill="#159ED9"/>
</svg>
