<svg width="71" height="80" viewBox="0 0 71 80" fill="none" xmlns="http://www.w3.org/2000/svg">
<path fill-rule="evenodd" clip-rule="evenodd" d="M68.5501 32.11H15.5501L66.4601 17.36C66.8601 17.25 67.1901 16.98 67.3901 16.62C67.5901 16.26 67.6401 15.83 67.5201 15.44L64.8601 6.23999C63.8001 2.56999 60.3801 0 56.5401 0C55.7301 0 54.9301 0.109996 54.1501 0.339996L6.35008 14.19C4.14008 14.83 2.31008 16.3 1.19008 18.33C0.0700797 20.36 -0.189911 22.69 0.450089 24.9L3.05007 33.88V70.89C3.05007 75.66 6.93009 79.54 11.7001 79.54H30.3701C31.2301 79.54 31.9201 78.84 31.9201 77.99C31.9201 77.14 31.2201 76.44 30.3701 76.44H11.7001C8.65009 76.44 6.16008 73.96 6.16008 70.9V49.76H67.0001V70.9C67.0001 73.95 64.5201 76.44 61.4601 76.44H42.7901C41.9301 76.44 41.2401 77.14 41.2401 77.99C41.2401 78.84 41.9401 79.54 42.7901 79.54H61.4601C66.2301 79.54 70.1101 75.66 70.1101 70.89V33.66C70.1101 32.8 69.4101 32.11 68.5601 32.11H68.5501ZM41.1601 46.65L47.7601 35.22H56.3501L49.7501 46.65H41.1601ZM28.9901 46.65L35.5901 35.22H44.1801L37.5801 46.65H28.9901ZM16.8201 46.65L23.4201 35.22H32.0101L25.4101 46.65H16.8201ZM22.6001 26.54L11.5501 15.92L19.8301 13.52C19.8901 13.6 19.9601 13.69 20.0301 13.76L31.0801 24.38L22.8001 26.78C22.7401 26.7 22.6701 26.61 22.6001 26.54ZM43.4201 6.98999L54.4701 17.61L46.1901 20.01C46.1301 19.93 46.0601 19.84 45.9901 19.77L34.9401 9.14999L43.2201 6.75C43.2801 6.83 43.3501 6.91999 43.4201 6.98999ZM31.7301 10.38L42.7801 21L34.5001 23.4C34.4401 23.32 34.3701 23.23 34.3001 23.16L23.2501 12.54L31.5301 10.14C31.5901 10.22 31.6601 10.31 31.7301 10.38ZM55.0301 3.32999C55.5301 3.18999 56.0401 3.10999 56.5601 3.10999C59.0201 3.10999 61.2101 4.74999 61.8901 7.10999L64.1201 14.81L57.8901 16.62C57.8301 16.54 57.7601 16.45 57.6901 16.38L46.6401 5.75998L55.0401 3.32999H55.0301ZM3.93007 19.83C4.65007 18.53 5.82009 17.59 7.23009 17.18L8.14009 16.92C8.20009 17 8.27007 17.09 8.34007 17.16L19.3901 27.78L5.67009 31.75L3.44008 24.05C3.03008 22.64 3.20009 21.14 3.92009 19.84L3.93007 19.83ZM6.18007 35.22H19.8501L13.2501 46.65H6.18007V35.22ZM53.3501 46.65L59.9501 35.22H67.0201V46.65H53.3501Z" fill="#159ED9"/>
<path fill-rule="evenodd" clip-rule="evenodd" d="M47.3201 62.94C47.3201 62.38 47.0201 61.87 46.5401 61.59L32.8901 53.71C32.4101 53.43 31.8201 53.43 31.3401 53.71C30.8601 53.99 30.5601 54.5 30.5601 55.06V70.82C30.5601 71.37 30.8601 71.89 31.3401 72.16C31.5801 72.3 31.8501 72.37 32.1201 72.37C32.3901 72.37 32.6601 72.3 32.9001 72.16L46.55 64.28C47.03 64 47.33 63.49 47.33 62.93L47.3201 62.94ZM33.6701 68.13V57.75L42.6601 62.94L33.6701 68.13Z" fill="#159ED9"/>
<path fill-rule="evenodd" clip-rule="evenodd" d="M36.5803 76.4399C35.7203 76.4399 35.0303 77.1399 35.0303 77.9899C35.0303 78.8399 35.7303 79.5399 36.5803 79.5399C37.4303 79.5399 38.1303 78.8399 38.1303 77.9899C38.1303 77.1399 37.4303 76.4399 36.5803 76.4399Z" fill="#159ED9"/>
</svg>
