<svg width="71" height="71" viewBox="0 0 71 71" fill="none" xmlns="http://www.w3.org/2000/svg">
<path d="M69.4697 50.1816H62.4697V47.8516H64.7997C65.4497 47.8516 65.9697 47.3316 65.9697 46.6816V39.6816C65.9697 39.0416 65.4497 38.5116 64.7997 38.5116H60.0297L57.8197 14.1616L62.3997 1.57159C62.5297 1.20159 62.4697 0.791616 62.2397 0.471616C62.0097 0.151616 61.6197 -0.0184154 61.2297 0.00158457L42.6697 1.16162L32.2697 0.0115943C32.1297 -0.00840566 31.9897 0.0116236 31.8597 0.0416236L27.3597 1.17163L1.85968 0.0115943C1.51968 -0.00840566 1.17968 0.131589 0.949677 0.381589C0.719677 0.631589 0.609674 0.971592 0.649674 1.32159L2.96968 19.8616L0.649674 44.2316C0.639674 44.3616 0.649673 44.4916 0.679673 44.6216L2.95967 53.7216L0.659684 68.6516C0.599684 69.0216 0.729686 69.3916 0.989686 69.6616C1.20969 69.8816 1.50968 70.0016 1.80968 70.0016C1.86968 70.0016 1.93968 70.0016 1.99968 69.9816L15.4097 67.7416L17.3197 69.6516C17.5697 69.9016 17.9097 70.0216 18.2697 69.9916L37.9797 67.9216V68.8316C37.9797 69.4716 38.4997 70.0016 39.1497 70.0016H69.4797C70.1297 70.0016 70.6497 69.4816 70.6497 68.8316V51.3316C70.6497 50.6916 70.1297 50.1616 69.4797 50.1616L69.4697 50.1816ZM60.1397 50.1816H48.4697V47.8516H60.1397V50.1816ZM63.6397 45.5116H44.9697V40.8416H63.6397V45.5116ZM18.5697 67.6316L16.6297 65.6916C16.3597 65.4216 15.9797 65.3016 15.6097 65.3616L3.19968 67.4316L5.28967 53.8616C5.30967 53.7116 5.30968 53.5516 5.26968 53.4016L3.40968 45.9516L6.18968 46.6516L6.74968 44.3916L3.05968 43.4716L5.22968 20.7316L7.63968 19.9316L10.7697 20.9716L11.5097 18.7616L8.00967 17.5916C7.76967 17.5116 7.50968 17.5116 7.26968 17.5916L5.11968 18.3116L3.13968 2.43164L27.4197 3.53161C27.5297 3.53161 27.6497 3.53158 27.7497 3.50158L31.5097 2.56158L33.2097 5.96161L32.1997 9.00159L34.4097 9.74164L35.5797 6.24164C35.6797 5.95164 35.6497 5.63162 35.5197 5.35162L34.1497 2.60162L42.5197 3.53161C42.5897 3.53161 42.6597 3.54161 42.7197 3.53161L59.6097 2.47162L55.5497 13.6316C55.4897 13.7916 55.4697 13.9616 55.4797 14.1316L57.6997 38.5216H43.8097C43.1597 38.5216 42.6397 39.0416 42.6397 39.6916V46.6916C42.6397 47.3316 43.1597 47.8616 43.8097 47.8616H46.1397V50.1916H39.1397C38.4897 50.1916 37.9697 50.7116 37.9697 51.3616V65.6016L18.5697 67.6416V67.6316ZM68.2997 67.6816H40.2997V52.5116H68.2997V67.6816Z" fill="#159ED9"/>
<path d="M29.7997 47.8517C30.1097 47.8517 30.4097 47.7317 30.6197 47.5117L42.2497 35.8817C47.7597 30.3717 50.7897 23.0517 50.7897 15.2617V8.19167C50.7897 7.72167 50.5097 7.29172 50.0697 7.11172C49.6297 6.93172 49.1297 7.03172 48.7997 7.36172L19.6297 36.5317C19.4097 36.7517 19.2897 37.0517 19.2897 37.3517V46.2017L11.4697 54.0217L13.1197 55.6717L20.9397 47.8517H29.7897H29.7997ZM21.6297 37.8317L48.4597 11.0017V15.2517C48.4597 22.4217 45.6697 29.1617 40.5997 34.2217L29.3097 45.5117H23.2797L44.6197 24.1717L42.9697 22.5217L21.6297 43.8617V37.8317Z" fill="#159ED9"/>
<path d="M31.4898 55.0517L28.6398 56.9517L25.7898 55.0517C25.3998 54.7917 24.8898 54.7917 24.4998 55.0517L21.6498 56.9517L18.7998 55.0517C18.4098 54.7917 17.8998 54.7917 17.5098 55.0517L14.0098 57.3816L15.2998 59.3216L18.1498 57.4217L20.9998 59.3216C21.3898 59.5816 21.8998 59.5816 22.2898 59.3216L25.1398 57.4217L27.9898 59.3216C28.1898 59.4516 28.4098 59.5217 28.6398 59.5217C28.8698 59.5217 29.0898 59.4516 29.2898 59.3216L32.1398 57.4217L34.9898 59.3216L36.2798 57.3816L32.7798 55.0517C32.3898 54.7917 31.8798 54.7917 31.4898 55.0517Z" fill="#159ED9"/>
</svg>
