<svg width="67" height="70" viewBox="0 0 67 70" fill="none" xmlns="http://www.w3.org/2000/svg">
<path d="M66.0299 66.23L65.4499 62.81C65.3499 62.25 64.8199 61.88 64.2699 61.97C63.7199 62.06 63.3399 62.6 63.4299 63.15L64.0099 66.57C64.0699 66.92 63.9799 67.25 63.7499 67.52C63.5199 67.79 63.2099 67.94 62.8599 67.94H55.6699L54.3899 60.05C54.2999 59.49 53.7699 59.11 53.2099 59.2C52.6499 59.29 52.2699 59.82 52.3599 60.38L53.5899 67.94H12.7499L13.9799 60.38C14.0699 59.82 13.6899 59.29 13.1299 59.2C12.5699 59.11 12.0399 59.49 11.9499 60.05L10.6699 67.94H3.47987C3.12987 67.94 2.80988 67.79 2.58988 67.52C2.35988 67.25 2.26987 66.91 2.32987 66.57L3.72987 58.37C4.20987 55.56 6.06987 53.19 8.60987 52.02C8.73987 51.99 8.86987 51.94 8.97987 51.86C9.25987 51.75 9.54988 51.65 9.83988 51.57L22.1499 48.96C25.4199 51.15 29.2199 52.31 33.1699 52.31C37.1199 52.31 40.9199 51.15 44.1899 48.96L56.4999 51.57C59.6599 52.46 62.0599 55.13 62.6099 58.37C62.7099 58.93 63.2399 59.3 63.7899 59.21C64.3399 59.12 64.7199 58.58 64.6299 58.03C63.9399 54 60.9499 50.69 57.0199 49.59C56.9999 49.59 56.9799 49.58 56.9599 49.58L44.1899 46.87L42.9499 46.61C42.1499 46.45 41.2599 45.36 41.2599 44.14V40.59C43.1499 38.89 45.1199 36.9 45.9599 35.68C47.3699 33.61 48.1899 31.18 48.3399 28.66L48.3799 28.01H48.8599C49.6999 28.01 50.4199 27.47 50.6799 26.72H51.7299C52.8899 26.72 53.8399 25.77 53.8399 24.61V15.73C53.8399 14.57 52.8899 13.62 51.7299 13.62H50.6799C50.4299 12.91 49.7799 12.4 48.9999 12.34C48.6199 9.59003 47.4399 7.02001 45.5999 5.01001C41.0799 0.0800099 34.4399 0 34.0699 0H32.2899C31.9999 0 25.2999 0.04001 20.7499 5.01001C18.9099 7.02001 17.7199 9.59003 17.3499 12.34C16.5699 12.4 15.9199 12.91 15.6599 13.62H14.6099C13.4499 13.62 12.4999 14.57 12.4999 15.73V19.15H10.8999C8.95988 19.15 7.37986 20.73 7.37986 22.67V50.36C4.42986 51.86 2.27988 54.71 1.70988 58.04L0.309883 66.24C0.149883 67.18 0.409874 68.13 1.01987 68.86C1.62987 69.59 2.52987 70 3.47987 70H62.8499C63.7999 70 64.6999 69.58 65.3099 68.86C65.9199 68.13 66.1799 67.18 66.0199 66.24L66.0299 66.23ZM50.7899 15.66H51.7299C51.7299 15.66 51.7899 15.69 51.7899 15.72V24.6C51.7899 24.6 51.7599 24.66 51.7299 24.66H50.7899V15.66ZM41.4699 48.2C38.9199 49.55 36.0899 50.26 33.1699 50.26C30.2499 50.26 27.4099 49.55 24.8599 48.2C26.2799 47.37 27.1199 45.62 27.1199 44.13V42.32C27.9599 42.99 28.6599 43.48 29.0599 43.65C30.3599 44.21 31.7599 44.48 33.1599 44.48C34.5599 44.48 35.9599 44.2 37.2599 43.65C37.6599 43.48 38.3599 42.99 39.1999 42.32V44.13C39.1999 45.62 40.0399 47.37 41.4599 48.2H41.4699ZM22.2599 6.38C26.1899 2.09 32.2199 2.04004 32.2799 2.04004H34.0599C34.1499 2.04004 40.1499 2.08 44.0799 6.38C45.5699 8.01 46.5599 10.09 46.9199 12.32H19.4099C19.7699 10.09 20.7599 8.01 22.2499 6.38H22.2599ZM17.5999 14.37H48.7499V25.95H37.3399C36.7899 25.95 36.2599 25.8 35.7899 25.52C34.1799 24.55 32.1799 24.55 30.5699 25.52C30.0999 25.8 29.5599 25.95 29.0199 25.95H27.1699C26.5999 25.95 26.1399 26.41 26.1399 26.98C26.1399 27.55 26.5999 28.01 27.1699 28.01H29.0199C29.9399 28.01 30.8399 27.76 31.6299 27.28C32.5899 26.7 33.7799 26.7 34.7299 27.28C35.5199 27.76 36.4199 28.01 37.3399 28.01H46.3299L46.2999 28.55C46.1799 30.69 45.4799 32.76 44.2799 34.53C42.7999 36.7 37.4199 41.39 36.4799 41.79C34.3799 42.68 31.9799 42.68 29.8899 41.79C29.5799 41.66 28.4499 40.84 26.8099 39.38C26.8099 39.38 26.7899 39.36 26.7799 39.36C26.5799 39.18 26.3699 38.99 26.1499 38.79C24.2699 37.08 22.7099 35.44 22.0899 34.53C20.8899 32.76 20.1899 30.7 20.0699 28.55L20.0399 28.02H22.3999C22.9699 28.02 23.4299 27.56 23.4299 26.99C23.4299 26.42 22.9699 25.96 22.3999 25.96H17.6199V14.38L17.5999 14.37ZM14.5499 15.72C14.5499 15.72 14.5799 15.66 14.6099 15.66H15.5499V24.66H14.6099C14.6099 24.66 14.5499 24.63 14.5499 24.6V15.72ZM9.42988 22.66C9.42988 21.85 10.0899 21.19 10.8999 21.19H12.4999V24.61C12.4999 25.77 13.4499 26.72 14.6099 26.72H15.6599C15.9299 27.47 16.6499 28.01 17.4899 28.01H17.9699L18.0099 28.66C18.1499 31.18 18.9699 33.6 20.3899 35.68C21.2199 36.9 23.1899 38.9 25.0899 40.59V44.14C25.0899 45.36 24.1999 46.45 23.3899 46.61L22.1599 46.87L9.42988 49.57V22.66Z" fill="#159ED9"/>
</svg>
