<svg width="103" height="102" viewBox="0 0 103 102" fill="none" xmlns="http://www.w3.org/2000/svg">
<path d="M46.0803 31.2854V18.8783H39.2026C36.0176 18.8783 34.5174 14.9579 36.8715 12.8363L49.0576 1.8821C50.3732 0.705967 52.3811 0.705967 53.6966 1.8821L65.8826 12.8363C68.2368 14.9579 66.7366 18.8783 63.5516 18.8783H56.6739V44.0845" stroke="#363535" stroke-width="2" stroke-linecap="round" stroke-linejoin="round"/>
<path d="M46.0806 62.2337V37.3735" stroke="#363535" stroke-width="2" stroke-linecap="round" stroke-linejoin="round"/>
<path d="M56.6968 81.9512V62.2337C56.6968 56.6067 61.2665 52.0405 66.898 52.0405H83.8846V59.1896C83.8846 62.372 87.8081 63.871 89.9314 61.5188L92.6317 58.5208" stroke="#363535" stroke-width="2" stroke-linecap="round" stroke-linejoin="round"/>
<path d="M46.0806 63.8247V62.2335C46.0806 50.772 55.4278 41.4321 66.8984 41.4321H83.885V34.8366C83.885 31.6541 87.8085 30.1551 89.9319 32.5074L100.895 44.7068C102.072 46.0213 102.072 48.0277 100.895 49.3422L96.6711 54.0236" stroke="#363535" stroke-width="2" stroke-linecap="round" stroke-linejoin="round"/>
<path d="M35.8791 61.1501H18.8925V54.5546C18.8925 51.3721 14.9689 49.8731 12.8456 52.2254L1.8828 64.4249C0.705735 65.7394 0.705735 67.7457 1.8828 69.0602L12.8456 81.2366C14.9689 83.6119 18.8925 82.0899 18.8925 78.9074V71.7584H35.8791C41.5105 71.7584 46.0803 76.3245 46.0803 81.9515V101H56.6969V81.9515C56.6969 70.49 47.3496 61.1501 35.8791 61.1501Z" stroke="#363535" stroke-width="2" stroke-linecap="round" stroke-linejoin="round"/>
</svg>
