<svg width="105" height="102" viewBox="0 0 105 102" fill="none" xmlns="http://www.w3.org/2000/svg">
<path d="M86.0857 26.2429H93.3071C96.5192 26.2429 99.1451 28.8434 99.1451 32.0763V89.0987H5.29102V32.0763C5.29102 28.8668 7.89349 26.2429 11.129 26.2429H18.3504" stroke="#363535" stroke-width="2" stroke-linecap="round" stroke-linejoin="round"/>
<path d="M20.6475 81.8832H12.4883V33.4353H29.4163" stroke="#363535" stroke-width="2" stroke-linecap="round" stroke-linejoin="round"/>
<path d="M74.9959 33.4585H91.9239V81.9064H26.8379" stroke="#363535" stroke-width="2" stroke-linecap="round" stroke-linejoin="round"/>
<path d="M57.7629 95.0495H46.6496C43.4609 95.0495 40.8818 92.4724 40.8818 89.2863V89.1223H63.5541V89.2863C63.5541 92.4724 60.9751 95.0495 57.7864 95.0495H57.7629Z" stroke="#363535" stroke-width="2" stroke-linecap="round" stroke-linejoin="round"/>
<path d="M103.412 89.0991H1V92.5195C1 97.205 4.79823 101 9.48742 101H94.9478C99.637 101 103.435 97.205 103.435 92.5195V89.0991H103.412Z" stroke="#363535" stroke-width="2" stroke-linecap="round" stroke-linejoin="round"/>
<path d="M74.9954 32.1235V40.8151C74.9954 46.016 71.9005 50.7249 67.0941 52.7162C57.5751 56.6755 46.8603 56.6755 37.3412 52.7162C32.5348 50.7249 29.4399 46.016 29.4399 40.8151V32.1235" stroke="#363535" stroke-width="2" stroke-linecap="round" stroke-linejoin="round"/>
<path d="M66.0157 7.12627L86.2262 17.8326C89.5789 19.6131 89.5789 24.4157 86.2262 26.1962L56.3326 42.0097C53.7535 43.3685 50.6586 43.3685 48.0561 42.0097L18.1625 26.1962C14.8098 24.4157 14.8098 19.6131 18.1625 17.8326L48.0561 2.01909C50.6352 0.660302 53.7301 0.660302 56.3326 2.01909L60.5997 4.29155" stroke="#363535" stroke-width="2" stroke-linecap="round" stroke-linejoin="round"/>
<path d="M52.2061 22.0029L65.4999 37.1605V57.6829" stroke="#363535" stroke-width="2" stroke-linecap="round" stroke-linejoin="round"/>
<path d="M65.5004 57.6824L62.1477 63.4924C60.9285 65.5774 62.4525 68.2013 64.8674 68.2013H66.1335C68.5485 68.2013 70.0725 65.5774 68.8533 63.4924L65.5004 57.6824Z" stroke="#363535" stroke-width="2" stroke-linecap="round" stroke-linejoin="round"/>
<path d="M20.1792 74.6912H51.1279" stroke="#363535" stroke-width="2" stroke-linecap="round" stroke-linejoin="round"/>
<path d="M20.1792 68.2014H40.8585" stroke="#363535" stroke-width="2" stroke-linecap="round" stroke-linejoin="round"/>
</svg>
