<svg width="141" height="102" viewBox="0 0 141 102" fill="none" xmlns="http://www.w3.org/2000/svg">
<path d="M12.7397 51H51.6558" stroke="#363535" stroke-width="2" stroke-linecap="round" stroke-linejoin="round"/>
<path d="M12.7397 51H51.6558" stroke="#363535" stroke-width="2" stroke-linecap="round" stroke-linejoin="round"/>
<path d="M116.115 23.4449C113.496 26.0619 113.496 30.3107 116.115 32.9276C118.734 35.5446 122.986 35.5446 125.605 32.9276C128.224 30.3107 128.224 26.0619 125.605 23.4449C122.986 20.8279 118.734 20.8279 116.115 23.4449Z" stroke="#363535" stroke-width="2" stroke-linecap="round" stroke-linejoin="round"/>
<path d="M12.7395 26.3386V16.548C12.7395 14.4236 14.465 12.6995 16.5911 12.6995H47.804C49.9301 12.6995 51.6556 14.4236 51.6556 16.548V46.9358C51.6556 49.0601 49.9301 50.7843 47.804 50.7843H16.5911C14.465 50.7843 12.7395 49.0601 12.7395 46.9358V36.1292M130.412 15.378V7.00367C130.412 3.67856 127.731 1 124.404 1H7.00845C3.68071 1 1 3.67856 1 7.00367V80.8642C1 84.1893 3.68071 86.8679 7.00845 86.8679H39.5772" stroke="#363535" stroke-width="2" stroke-linecap="round" stroke-linejoin="round"/>
<path d="M83.7305 86.8371H124.434C127.761 86.8371 130.442 84.1586 130.442 80.8335V54.8792" stroke="#363535" stroke-width="2" stroke-linecap="round" stroke-linejoin="round"/>
<path d="M85.1488 51.708L49.1908 87.6377C48.4513 88.3766 48.02 89.3926 48.02 90.4702V97.3359C47.9891 99.3679 49.6222 101.03 51.6558 101H58.5269C59.5745 100.969 60.6223 100.538 61.3618 99.7989L62.471 98.6906C63.0872 98.0748 63.3953 97.2435 63.3645 96.3815L63.2104 92.4098C63.1488 90.5625 64.6586 89.0847 66.5074 89.2078L70.2049 89.4542C71.0985 89.5157 71.9611 89.1771 72.6082 88.5613C73.5325 87.6069 73.8715 87.3914 74.2105 86.8064C74.4878 86.3138 74.6419 85.7596 74.6111 85.1746L74.457 81.203C74.3954 79.3557 75.9052 77.8778 77.754 78.001L81.4513 78.2473C82.3449 78.3089 83.2077 77.9702 83.8548 77.3545L84.964 76.2461C85.5802 75.6303 85.8883 74.799 85.8575 73.937L85.7034 69.9653C85.6418 68.118 87.1516 66.6402 89.0004 66.7634L92.6979 67.0097C93.5915 67.0712 94.4541 66.7326 95.1012 66.1168L97.4121 63.8077" stroke="#363535" stroke-width="2" stroke-linecap="round" stroke-linejoin="round"/>
<path d="M105.423 59.4054C113.773 62.2995 123.325 60.7909 130.412 54.8796C130.997 54.3869 131.583 53.8636 132.137 53.3094C142.182 43.2725 142.182 26.9548 132.137 16.9179C131.583 16.3637 130.997 15.8403 130.412 15.3477C120.305 6.91178 105.207 7.43518 95.717 16.9179C88.5069 24.1223 86.4733 34.5594 89.6162 43.6111M125.605 32.9277C122.986 35.5447 118.734 35.5447 116.115 32.9277C113.496 30.3107 113.496 26.062 116.115 23.445C118.734 20.828 122.986 20.828 125.605 23.445C128.224 26.062 128.224 30.3107 125.605 32.9277Z" stroke="#363535" stroke-width="2" stroke-linecap="round" stroke-linejoin="round"/>
<path d="M83.7931 44.0729C82.0677 45.797 82.0677 48.6295 83.7931 50.3536L85.1797 51.7391L97.3198 63.8696L98.275 64.824C100 66.5482 102.835 66.5482 104.561 64.824C106.286 63.0999 106.286 60.2674 104.561 58.5433L90.079 44.0729C88.3535 42.3488 85.5186 42.3488 83.7931 44.0729Z" stroke="#363535" stroke-width="2" stroke-linecap="round" stroke-linejoin="round"/>
<path d="M44.2603 50.7533H47.8037C49.9297 50.7533 51.6552 49.0292 51.6552 46.9048V36.5908" stroke="#363535" stroke-width="2" stroke-linecap="round" stroke-linejoin="round"/>
<path d="M44.2612 50.7532V46.6892C44.2612 41.6708 41.2108 37.3604 36.8354 35.5439" stroke="#363535" stroke-width="2" stroke-linecap="round" stroke-linejoin="round"/>
<path d="M27.5288 35.5747C23.1843 37.3912 20.103 41.7015 20.103 46.72V50.784" stroke="#363535" stroke-width="2" stroke-linecap="round" stroke-linejoin="round"/>
<path d="M36.8654 35.5747C38.6833 34.1892 39.8234 32.0032 39.8234 29.5402C39.8234 25.3222 36.4032 21.9355 32.2127 21.9355C28.0222 21.9355 24.6021 25.353 24.6021 29.5402C24.6021 32.0032 25.7729 34.1892 27.56 35.5747C28.8541 36.5599 30.4564 37.1448 32.2127 37.1448C33.969 37.1448 35.5713 36.5599 36.8654 35.5747Z" stroke="#363535" stroke-width="2" stroke-linecap="round" stroke-linejoin="round"/>
</svg>
