<svg width="100" height="100" viewBox="0 0 100 100" fill="none" xmlns="http://www.w3.org/2000/svg">
<path d="M67.2798 19.6501H18.8298C18.1498 19.6501 17.5898 20.2001 17.5898 20.8901C17.5898 21.5801 18.1398 22.1301 18.8298 22.1301H67.2798C67.9598 22.1301 68.5198 21.5801 68.5198 20.8901C68.5198 20.2001 67.9698 19.6501 67.2798 19.6501Z" fill="#159ED9"/>
<path d="M82.5898 52.7401H81.5598V27.7501C81.5598 27.0701 81.0098 26.5101 80.3198 26.5101C79.6298 26.5101 79.0798 27.0601 79.0798 27.7501V47.9501C78.1898 47.6301 77.5698 47.7601 76.8698 47.7301V11.9701C76.8698 10.8901 75.9898 10.0201 74.9198 10.0201H11.1898C10.1098 10.0201 9.23979 10.9001 9.23979 11.9701V52.7401H7.02979V10.5801C7.02979 9.05008 8.26979 7.81008 9.79979 7.81008H76.2998C77.8298 7.81008 79.0698 9.05008 79.0698 10.5801V21.9801C79.0698 22.6601 79.6198 23.2201 80.3098 23.2201C80.9998 23.2201 81.5498 22.6701 81.5498 21.9801V10.5801C81.5498 7.68008 79.1898 5.33008 76.2998 5.33008H9.80979C6.90979 5.33008 4.55979 7.69008 4.55979 10.5801V52.7401H3.52979C2.01979 52.7401 0.779785 53.9701 0.779785 55.4901V58.1501C0.779785 59.6601 2.00979 60.9001 3.52979 60.9001H32.6998L31.9198 64.9501H25.5098C25.5098 64.9501 25.4698 64.9501 25.4498 64.9501C23.0798 65.0701 20.9698 66.1001 19.6398 67.7901C18.5498 69.0701 18.3098 69.7701 17.3198 70.2301C16.9998 68.8401 15.7598 67.8001 14.2798 67.8001H12.9198C11.5898 67.8001 10.4498 68.6401 9.99979 69.8201H3.72979C2.12979 69.8201 0.839785 71.1201 0.839785 72.7101V85.2201C0.839785 86.8201 2.13979 88.1101 3.72979 88.1101H9.98979C10.4298 89.2901 11.5698 90.1401 12.9098 90.1401H14.2698C15.8698 90.1401 17.1898 88.9301 17.3698 87.3801C17.6298 87.4001 18.1598 87.3101 18.8598 87.5901L22.2398 88.9401C24.6398 89.9001 27.6198 89.9801 29.9198 89.9801C35.5898 89.9801 33.6298 89.9801 34.0498 89.9801C36.5898 89.9801 38.2898 87.3301 37.1898 85.0201C38.8598 84.0401 39.4198 81.9001 38.4198 80.2401C39.9898 78.9701 40.1698 76.6401 38.7698 75.1501C39.7798 73.8201 39.7098 71.9701 38.5798 70.7301C40.1198 69.2201 40.2098 66.9201 39.7098 66.0201L40.5398 60.8701H82.5698C84.0798 60.8701 85.3198 59.6401 85.3198 58.1201V55.4601C85.3198 53.9501 84.0898 52.7101 82.5698 52.7101L82.5898 52.7401ZM9.78979 85.6401H3.72979C3.49979 85.6401 3.30979 85.4501 3.30979 85.2201V72.7101C3.30979 72.4801 3.49979 72.2901 3.72979 72.2901H9.78979V85.6401ZM14.9098 87.0301C14.9098 87.3801 14.6198 87.6701 14.2698 87.6701H12.9098C12.5598 87.6701 12.2698 87.3801 12.2698 87.0301V70.9101C12.2698 70.5601 12.5598 70.2701 12.9098 70.2701H14.2698C14.6198 70.2701 14.9098 70.5601 14.9098 70.9101V87.0301ZM77.8098 50.2101C78.5098 50.2101 79.0698 50.7801 79.0698 51.4701V52.7301H66.7698V51.4701C66.7698 50.7701 67.3398 50.2101 68.0298 50.2101H77.8098ZM34.0498 87.5101C31.9298 87.5101 30.4898 87.5101 30.1398 87.5101C28.8898 87.3801 28.9798 85.5101 30.2398 85.5101H34.0498C35.3798 85.5101 35.3698 87.5101 34.0498 87.5101ZM35.4398 83.0301H31.0198C29.6898 83.0301 29.6998 81.0301 31.0198 81.0301H35.4398C36.7698 81.0301 36.7598 83.0301 35.4398 83.0301ZM36.2398 78.5501H32.2398C30.9098 78.5501 30.9198 76.5501 32.2398 76.5501H36.2398C37.5698 76.5501 37.5598 78.5501 36.2398 78.5501ZM33.1198 72.0601H35.9998C37.3298 72.0601 37.3198 74.0601 35.9998 74.0601H33.1198C31.7898 74.0601 31.7998 72.0601 33.1198 72.0601ZM37.4898 67.4401C37.4898 68.6201 36.5298 69.5901 35.3398 69.5901H27.1498C26.4698 69.5901 25.9098 70.1401 25.9098 70.8301C25.9098 71.5201 26.4598 72.0701 27.1498 72.0701H29.7798C29.4998 72.9901 29.6198 73.9701 30.0998 74.8001C28.7798 75.8201 28.3598 77.6101 29.1198 79.1101C27.5498 80.1301 27.0598 82.2001 28.0298 83.8101C26.9998 84.6501 26.4998 86.0301 26.8698 87.4101C25.6398 87.3101 24.4598 87.0901 23.1098 86.6301L19.7498 85.2901C18.5498 84.8101 17.5998 84.9201 17.3698 84.9101V72.8101C19.8598 72.1901 20.6498 70.2701 21.5598 69.3101C22.4398 68.1901 23.8798 67.5001 25.5198 67.4101C30.7798 67.4101 32.1798 67.4101 37.4798 67.4101V67.4301L37.4898 67.4401ZM37.3798 64.9401H34.4298C35.3498 60.1201 40.5598 32.9701 41.3298 28.9501C41.4098 28.5101 41.8198 28.1901 42.2698 28.2201C42.8098 28.2501 43.1998 28.7401 43.1098 29.2701L37.3798 64.9401ZM82.8398 58.1401C82.8398 58.2901 82.7198 58.4101 82.5698 58.4101H40.9398L42.9998 45.5801H49.4798C50.1598 45.5801 50.7198 45.0301 50.7198 44.3401C50.7198 43.6501 50.1698 43.1001 49.4798 43.1001H43.3998L44.2598 37.7601H67.2698C67.9498 37.7601 68.5098 37.2101 68.5098 36.5201C68.5098 35.8301 67.9598 35.2801 67.2698 35.2801H44.6598L45.5198 29.9401H67.2698C67.9498 29.9401 68.5098 29.3901 68.5098 28.7001C68.5098 28.0101 67.9598 27.4601 67.2698 27.4601H45.1698C44.5898 26.4301 43.5398 25.8001 42.4098 25.7401C41.0998 25.6701 39.8998 26.3701 39.2798 27.4601H18.8298C18.1498 27.4601 17.5898 28.0101 17.5898 28.7001C17.5898 29.3901 18.1398 29.9401 18.8298 29.9401H38.6298L37.6098 35.2801H18.8398C18.1598 35.2801 17.5998 35.8301 17.5998 36.5201C17.5998 37.2101 18.1498 37.7601 18.8398 37.7601H37.1398L36.1198 43.1001H18.8498C18.1698 43.1001 17.6098 43.6501 17.6098 44.3401C17.6098 45.0301 18.1598 45.5801 18.8498 45.5801H35.6498L33.1898 58.4101H3.51979C3.36979 58.4101 3.24979 58.2901 3.24979 58.1401V55.4801C3.24979 55.3301 3.36979 55.2101 3.51979 55.2101H29.5198C30.1998 55.2101 30.7598 54.6601 30.7598 53.9701C30.7598 53.2801 30.2098 52.7301 29.5198 52.7301H11.7198V12.4901H74.3998V47.7401H68.0398C65.9798 47.7401 64.2998 49.4201 64.2998 51.4801V52.7401H46.1898C45.5098 52.7401 44.9498 53.2901 44.9498 53.9801C44.9498 54.6701 45.4998 55.2201 46.1898 55.2201H82.5898C82.7398 55.2201 82.8598 55.3401 82.8598 55.4901V58.1501L82.8398 58.1401Z" fill="#159ED9"/>
</svg>
