<svg width="72" height="65" viewBox="0 0 72 65" fill="none" xmlns="http://www.w3.org/2000/svg">
<path d="M67.2299 46.67H68.7299C69.9799 46.67 70.9999 45.65 70.9999 44.4V3.27C70.9999 2.02 69.9799 1 68.7299 1H24.1699" stroke="#159ED9" stroke-width="2" stroke-linecap="round" stroke-linejoin="round"/>
<path d="M19.24 1H10.23C8.97998 1 7.95996 2.02 7.95996 3.27V6.74H20.67C23.3 6.74 25.07 9.45 24.01 11.86L23.18 13.75V18.99L24.74 21.19C25.57 22.36 25.09 24 23.75 24.53L23.18 24.76V27C23.18 28.94 21.6 30.52 19.66 30.52H15.88V35.44C19.34 36.89 21.86 40.11 22.32 43.97L30.87 35.42V34.9C30.87 33.69 31.85 32.71 33.06 32.71H34.64C35.85 32.71 36.83 33.69 36.83 34.9V39.19C36.83 40.4 35.85 41.38 34.64 41.38H33.53L28.25 46.66H42.59" stroke="#159ED9" stroke-width="2" stroke-linecap="round" stroke-linejoin="round"/>
<path d="M56.9401 14.9099C56.6901 14.9099 56.4901 14.7099 56.4901 14.4599V11.8299C55.0801 11.2199 53.5301 10.8899 51.9001 10.8899C45.5001 10.8899 40.3101 16.0799 40.3101 22.4799C40.3101 28.8799 45.5001 34.0699 51.9001 34.0699C58.3001 34.0699 63.4901 28.8799 63.4901 22.4799C63.4901 19.5899 62.4301 16.9499 60.6801 14.9199H56.9401V14.9099Z" stroke="#159ED9" stroke-width="2" stroke-linecap="round" stroke-linejoin="round"/>
<path d="M60.6603 14.9099H56.9503C56.7003 14.9099 56.5003 14.7099 56.5003 14.4599V11.8399C55.0903 11.2199 53.5403 10.8799 51.9103 10.8799C45.5503 10.8799 40.3203 16.1099 40.3203 22.4699C40.3203 28.8299 45.5503 34.0599 51.9103 34.0599C55.0003 34.0599 57.9703 32.8199 60.1503 30.6199L51.9103 22.4699H63.5003C63.5003 19.5899 62.4303 16.9499 60.6603 14.9099Z" stroke="#159ED9" stroke-width="2" stroke-linecap="round" stroke-linejoin="round"/>
<path d="M56.4899 11.8299C55.0799 11.2199 53.5299 10.8899 51.8999 10.8899V22.4799H63.4899C63.4899 19.5899 62.4299 16.9499 60.6799 14.9199" stroke="#159ED9" stroke-width="2" stroke-linecap="round" stroke-linejoin="round"/>
<path d="M34.8102 10.8799H24.6401" stroke="#159ED9" stroke-width="2" stroke-linecap="round" stroke-linejoin="round"/>
<path d="M34.8102 16.6799H23.1802" stroke="#159ED9" stroke-width="2" stroke-linecap="round" stroke-linejoin="round"/>
<path d="M29.3603 22.47H25.3003" stroke="#159ED9" stroke-width="2" stroke-linecap="round" stroke-linejoin="round"/>
<path d="M34.8102 22.47H32.4502" stroke="#159ED9" stroke-width="2" stroke-linecap="round" stroke-linejoin="round"/>
<path d="M34.81 28.2698H23.46" stroke="#159ED9" stroke-width="2" stroke-linecap="round" stroke-linejoin="round"/>
<path d="M30.2302 34.0598H26.1401" stroke="#159ED9" stroke-width="2" stroke-linecap="round" stroke-linejoin="round"/>
<path d="M14.9098 30.5201C14.2698 30.5201 13.6498 30.3001 13.1398 29.9101L8.60977 26.3401H6.27979V34.6301C6.27979 34.6301 6.36979 34.6301 6.40979 34.6301H11.7898C13.2398 34.6301 14.6298 34.9201 15.8898 35.4501V30.5301H14.9198L14.9098 30.5201Z" stroke="#159ED9" stroke-width="2" stroke-linecap="round" stroke-linejoin="round"/>
<path d="M24.74 21.19L23.18 18.99V13.75H13.83C13.45 13.75 13.09 13.95 12.9 14.29L10.8 17.9C10.38 17.36 9.72996 17.02 8.98996 17.02C7.74996 17.02 6.72998 18.13 6.72998 19.37V21.42C6.72998 22.54 7.54996 23.48 8.61996 23.66V26.35L13.16 29.92C13.66 30.32 14.29 30.53 14.93 30.53H19.68C21.62 30.53 23.2 28.95 23.2 27.01V24.77L23.77 24.54C25.11 24.01 25.59 22.37 24.76 21.2L24.74 21.19Z" stroke="#159ED9" stroke-width="2" stroke-linecap="round" stroke-linejoin="round"/>
<path d="M24.74 21.19L23.18 18.99V13.75H13.83C13.45 13.75 13.09 13.95 12.9 14.29L10.8 17.9C10.38 17.36 9.72996 17.02 8.98996 17.02C7.74996 17.02 6.72998 18.13 6.72998 19.37V21.42C6.72998 22.54 7.54996 23.48 8.61996 23.66V26.35L13.16 29.92C13.66 30.32 14.29 30.53 14.93 30.53H19.68C21.62 30.53 23.2 28.95 23.2 27.01V24.77L23.77 24.54C25.11 24.01 25.59 22.37 24.76 21.2L24.74 21.19Z" stroke="#159ED9" stroke-width="2" stroke-linecap="round" stroke-linejoin="round"/>
<path d="M1 12.45V20.18C1 21.94 1.80998 23.6 3.19998 24.69L4.73001 25.88C5.11001 26.18 5.58 26.34 6.06 26.34H8.60999V23.65C7.53999 23.47 6.72 22.53 6.72 21.41V19.36C6.72 18.12 7.74001 17.02 8.98001 17.01C9.71001 17.01 10.37 17.35 10.79 17.89L12.89 14.28C13.08 13.95 13.44 13.74 13.82 13.74H23.18L24.01 11.85C25.07 9.43998 23.31 6.72998 20.67 6.72998H6.72C3.56 6.72998 1 9.28998 1 12.45Z" stroke="#159ED9" stroke-width="2" stroke-linecap="round" stroke-linejoin="round"/>
<path d="M18.4702 19.62V18.54" stroke="#159ED9" stroke-width="2" stroke-linecap="round" stroke-linejoin="round"/>
<path d="M17.8299 63.3699H20.8799C21.7199 63.3699 22.3899 62.6899 22.3899 61.8599V52.5099L21.7699 53.1299C20.0399 54.8599 17.2499 54.8599 15.5199 53.1299L7.96994 45.5799C6.40994 44.0199 6.40994 41.4799 7.96994 39.9199C9.52994 38.3599 12.0699 38.3599 13.6299 39.9199L19.9999 46.2899L22.3199 43.9699C21.6899 38.7099 17.2199 34.6199 11.7899 34.6199H6.40994C3.66994 34.6199 1.43994 36.8399 1.43994 39.5899V61.8599C1.43994 62.6999 2.11992 63.3699 2.94992 63.3699H12.9099" stroke="#159ED9" stroke-width="2" stroke-linecap="round" stroke-linejoin="round"/>
<path d="M33.06 41.3799C31.85 41.3799 30.87 40.3999 30.87 39.1899V35.4299L20.0101 46.2899L13.64 39.9199C12.08 38.3599 9.54006 38.3599 7.98006 39.9199C6.42006 41.4799 6.42006 44.0199 7.98006 45.5799L15.53 53.1299C17.26 54.8599 20.05 54.8599 21.78 53.1299L33.53 41.3799H33.0701H33.06Z" stroke="#159ED9" stroke-width="2" stroke-linecap="round" stroke-linejoin="round"/>
<path d="M34.6299 41.38H33.0499C31.8399 41.38 30.8599 40.4 30.8599 39.19V34.9C30.8599 33.69 31.8399 32.71 33.0499 32.71H34.6299C35.8399 32.71 36.8199 33.69 36.8199 34.9V39.19C36.8199 40.4 35.8399 41.38 34.6299 41.38Z" stroke="#159ED9" stroke-width="2" stroke-linecap="round" stroke-linejoin="round"/>
<path d="M23.1802 26.4099H18.7202" stroke="#159ED9" stroke-width="2" stroke-linecap="round" stroke-linejoin="round"/>
<path d="M66.2102 14.9101H56.9402C56.6902 14.9101 56.4902 14.7101 56.4902 14.4601V10.0301C56.4902 9.78008 56.6902 9.58008 56.9402 9.58008H66.2102C66.4602 9.58008 66.6602 9.78008 66.6602 10.0301V14.4601C66.6602 14.7101 66.4602 14.9101 66.2102 14.9101Z" stroke="#159ED9" stroke-width="2" stroke-linecap="round" stroke-linejoin="round"/>
<path d="M53.1698 44.4001V42.6401C53.1698 41.5301 52.2698 40.6201 51.1498 40.6201H47.3198C46.2098 40.6201 45.2998 41.5201 45.2998 42.6401V44.4001H53.1598H53.1698Z" stroke="#159ED9" stroke-width="2" stroke-linecap="round" stroke-linejoin="round"/>
<path d="M57.1301 44.3999H43.3401C42.9201 44.3999 42.5801 44.7399 42.5801 45.1599V48.7899C42.5801 49.2099 42.9201 49.5499 43.3401 49.5499H66.4701C66.8901 49.5499 67.2301 49.2099 67.2301 48.7899V45.1599C67.2301 44.7399 66.8901 44.3999 66.4701 44.3999H62.0501" stroke="#159ED9" stroke-width="2" stroke-linecap="round" stroke-linejoin="round"/>
<path d="M36.73 33.88L46.88 16.24" stroke="#159ED9" stroke-width="2" stroke-linecap="round" stroke-linejoin="round"/>
</svg>
