<svg width="723" height="400" viewBox="0 0 723 400" fill="none" xmlns="http://www.w3.org/2000/svg">
<g clip-path="url(#clip0_28_5914)">
<path d="M646.092 34.3922H354.49C347.656 34.3922 342.116 39.9323 342.116 46.7663V210.236C342.116 217.07 347.656 222.61 354.49 222.61H646.092C652.926 222.61 658.466 217.07 658.466 210.236V46.7663C658.466 39.9323 652.926 34.3922 646.092 34.3922Z" fill="white"/>
<path d="M658.466 46.7767V51.6765H342.116V46.7767C342.116 39.9357 347.659 34.4026 354.49 34.4026H646.081C652.922 34.4026 658.455 39.946 658.455 46.7767H658.466Z" fill="#AD2446"/>
<path d="M646.092 34.3922H354.49C347.656 34.3922 342.116 39.9323 342.116 46.7663V210.236C342.116 217.07 347.656 222.61 354.49 222.61H646.092C652.926 222.61 658.466 217.07 658.466 210.236V46.7663C658.466 39.9323 652.926 34.3922 646.092 34.3922Z" stroke="#263238" stroke-width="1.33" stroke-linecap="round" stroke-linejoin="round"/>
<path d="M658.466 46.7767V51.6765H342.116V46.7767C342.116 39.9357 347.659 34.4026 354.49 34.4026H646.081C652.922 34.4026 658.455 39.946 658.455 46.7767H658.466Z" stroke="#263238" stroke-width="1.33" stroke-linecap="round" stroke-linejoin="round"/>
<path d="M377.639 43.0395C377.639 44.7836 376.227 46.1954 374.483 46.1954C372.739 46.1954 371.328 44.7836 371.328 43.0395C371.328 41.2955 372.739 39.8837 374.483 39.8837C376.227 39.8837 377.639 41.2955 377.639 43.0395Z" fill="#263238"/>
<path d="M394.166 43.0395C394.166 44.7836 392.754 46.1954 391.01 46.1954C389.266 46.1954 387.854 44.7836 387.854 43.0395C387.854 41.2955 389.266 39.8837 391.01 39.8837C392.754 39.8837 394.166 41.2955 394.166 43.0395Z" fill="#263238"/>
<path d="M407.537 46.1954C409.28 46.1954 410.692 44.7825 410.692 43.0395C410.692 41.2966 409.28 39.8837 407.537 39.8837C405.794 39.8837 404.381 41.2966 404.381 43.0395C404.381 44.7825 405.794 46.1954 407.537 46.1954Z" fill="#263238"/>
<path d="M456.67 65.3794H364.725C362.598 65.3794 360.874 67.1037 360.874 69.2307V114.762C360.874 116.889 362.598 118.613 364.725 118.613H456.67C458.797 118.613 460.521 116.889 460.521 114.762V69.2307C460.521 67.1037 458.797 65.3794 456.67 65.3794Z" stroke="#263238" stroke-width="1.33" stroke-linecap="round" stroke-linejoin="round"/>
<path d="M383.173 101.754H373.145V111.782H383.173V101.754Z" fill="#AD2446"/>
<path d="M397.851 88.5705H387.823V111.917H397.851V88.5705Z" fill="#AD2446"/>
<path d="M414.378 92.588H404.35V112.156H414.378V92.588Z" fill="#AD2446"/>
<path d="M431.745 73.1028H421.717V111.481H431.745V73.1028Z" fill="#AD2446"/>
<path d="M449.113 73.3935H439.084V111.772H449.113V73.3935Z" fill="#AD2446"/>
<path d="M584.055 121.364C599.54 121.364 612.094 108.811 612.094 93.325C612.094 77.8395 599.54 65.286 584.055 65.286C568.569 65.286 556.016 77.8395 556.016 93.325C556.016 108.811 568.569 121.364 584.055 121.364Z" fill="#EABA36"/>
<path d="M586.359 110.817V113.693H581.657V110.817C577.691 109.82 575.127 106.488 575.127 102.097V100.789L580.452 100.218V101.578C580.452 104.235 581.812 105.855 584.003 105.855C586.193 105.855 587.553 104.495 587.553 102.357C587.553 99.8028 585.155 97.602 582.331 95.2559C578.989 92.4842 575.646 89.2038 575.646 84.5531C575.646 79.9025 577.836 76.7778 581.646 75.8331V72.9576H586.349V75.8331C590.211 76.7155 592.453 79.9544 592.453 84.605V85.5497L587.127 86.1207V85.0722C587.127 82.2486 586.027 80.7952 584.096 80.7952C582.165 80.7952 581.065 81.9994 581.065 84.2936C581.065 86.8473 583.515 88.9962 586.287 91.3942C589.577 94.2178 592.972 97.4463 592.972 102.097C592.972 106.748 590.366 109.872 586.338 110.817H586.359Z" fill="#AD2446"/>
<path d="M358.539 145.811H366.74" stroke="#263238" stroke-width="1.33" stroke-linecap="round" stroke-linejoin="round"/>
<path d="M358.539 161.632H366.74" stroke="#263238" stroke-width="1.33" stroke-linecap="round" stroke-linejoin="round"/>
<path d="M358.539 177.453H366.74" stroke="#263238" stroke-width="1.33" stroke-linecap="round" stroke-linejoin="round"/>
<path d="M358.539 193.284H366.74" stroke="#263238" stroke-width="1.33" stroke-linecap="round" stroke-linejoin="round"/>
<path d="M384.782 205.242V198.879" stroke="#263238" stroke-width="1.33" stroke-linecap="round" stroke-linejoin="round"/>
<path d="M397.758 205.242V198.879" stroke="#263238" stroke-width="1.33" stroke-linecap="round" stroke-linejoin="round"/>
<path d="M410.734 205.242V198.879" stroke="#263238" stroke-width="1.33" stroke-linecap="round" stroke-linejoin="round"/>
<path d="M423.71 205.242V198.879" stroke="#263238" stroke-width="1.33" stroke-linecap="round" stroke-linejoin="round"/>
<path d="M436.687 205.242V198.879" stroke="#263238" stroke-width="1.33" stroke-linecap="round" stroke-linejoin="round"/>
<path d="M449.663 205.242V198.879" stroke="#263238" stroke-width="1.33" stroke-linecap="round" stroke-linejoin="round"/>
<path d="M462.639 205.242V198.879" stroke="#263238" stroke-width="1.33" stroke-linecap="round" stroke-linejoin="round"/>
<path d="M475.615 205.242V198.879" stroke="#263238" stroke-width="1.33" stroke-linecap="round" stroke-linejoin="round"/>
<path d="M488.592 205.242V198.879" stroke="#263238" stroke-width="1.33" stroke-linecap="round" stroke-linejoin="round"/>
<path d="M501.568 205.242V198.879" stroke="#263238" stroke-width="1.33" stroke-linecap="round" stroke-linejoin="round"/>
<path d="M514.544 205.242V198.879" stroke="#263238" stroke-width="1.33" stroke-linecap="round" stroke-linejoin="round"/>
<path d="M527.52 205.242V198.879" stroke="#263238" stroke-width="1.33" stroke-linecap="round" stroke-linejoin="round"/>
<path d="M540.497 205.242V198.879" stroke="#263238" stroke-width="1.33" stroke-linecap="round" stroke-linejoin="round"/>
<path d="M553.473 205.242V198.879" stroke="#263238" stroke-width="1.33" stroke-linecap="round" stroke-linejoin="round"/>
<path d="M566.449 205.242V198.879" stroke="#263238" stroke-width="1.33" stroke-linecap="round" stroke-linejoin="round"/>
<path d="M578.937 205.242V198.879" stroke="#263238" stroke-width="1.33" stroke-linecap="round" stroke-linejoin="round"/>
<path d="M591.415 205.242V198.879" stroke="#263238" stroke-width="1.33" stroke-linecap="round" stroke-linejoin="round"/>
<path d="M603.903 205.242V198.879" stroke="#263238" stroke-width="1.33" stroke-linecap="round" stroke-linejoin="round"/>
<path d="M636.936 136.115V197.612C636.936 201.827 632.648 205.232 627.354 205.232H368.12C364.601 205.232 361.518 203.727 359.867 201.474C359.026 200.343 358.549 199.024 358.549 197.612V136.115C358.549 131.901 362.836 128.496 368.13 128.496H627.364C632.659 128.496 636.946 131.911 636.946 136.115H636.936Z" stroke="#DA0066" stroke-width="1.33" stroke-linecap="round" stroke-linejoin="round"/>
<path d="M558.041 17.0352L475.294 128.506L443.642 171.13L409.073 149.112L366.781 205.242H366.169C363.366 205.242 360.916 203.737 359.598 201.484L407.132 138.399L441.67 160.386L465.338 128.496L551.625 12.2703L558.051 17.0248L558.041 17.0352Z" fill="#263238"/>
<path d="M537.04 18.447L567.467 0L559.048 31.8904L553.681 17.139L537.04 18.447Z" fill="#263238"/>
<path d="M688.041 182.404C688.041 206.229 671.421 226.202 649.133 231.319C649.081 231.34 649.04 231.34 648.988 231.361C647.669 231.652 646.351 231.911 645.002 232.108C642.655 232.441 640.257 232.617 637.828 232.617C610.08 232.617 587.595 210.121 587.595 182.404C587.595 154.687 609.094 133.178 635.98 132.223C636.437 132.181 636.915 132.181 637.392 132.181C637.538 132.16 637.683 132.16 637.828 132.16C637.994 132.16 638.171 132.16 638.337 132.181C645.323 132.233 651.967 133.738 658.009 136.406C675.688 144.161 688.041 161.84 688.041 182.394V182.404Z" fill="#EABA36"/>
<path opacity="0.4" d="M658.009 136.416C600.01 133.396 599.74 197.778 599.74 197.778C599.74 197.778 590.885 176.767 605.336 153.493C613.402 140.486 627.478 134.735 638.337 132.191C645.323 132.243 651.967 133.749 658.009 136.416Z" fill="white"/>
<path d="M688.041 182.404C688.041 206.291 671.348 226.285 648.988 231.361C645.396 232.181 641.669 232.627 637.828 232.627C610.08 232.627 587.595 210.132 587.595 182.415C587.595 154.697 609.094 133.188 635.98 132.233C636.583 132.191 637.205 132.181 637.828 132.181C665.556 132.181 688.041 154.677 688.041 182.415V182.404Z" stroke="#263238" stroke-width="1.33" stroke-linecap="round" stroke-linejoin="round"/>
<path d="M688.041 182.404C688.041 206.291 671.348 226.285 648.988 231.361C648.386 231.402 647.763 231.413 647.14 231.413C619.392 231.413 596.927 208.917 596.927 181.179C596.927 157.293 613.62 137.299 635.98 132.223C636.583 132.181 637.205 132.171 637.828 132.171C665.556 132.171 688.041 154.666 688.041 182.404Z" stroke="#263238" stroke-width="1.33" stroke-linecap="round" stroke-linejoin="round"/>
<path d="M655.123 213.838L656.42 219.143L647.742 221.271L646.444 215.966C638.669 215.935 632.43 210.921 630.437 202.813L629.845 200.405L639.416 196.927L640.029 199.439C641.233 204.36 644.472 206.737 648.531 205.741C652.579 204.744 654.469 201.63 653.503 197.675C652.341 192.951 646.911 189.982 640.641 186.93C633.219 183.328 625.558 178.771 623.45 170.186C621.395 161.798 623.98 154.822 630.593 151.355L629.295 146.05L637.973 143.922L639.271 149.227C646.808 149.112 652.424 154.075 654.531 162.66L654.957 164.393L645.385 167.871L644.908 165.94C643.631 160.729 640.942 158.528 637.371 159.4C633.8 160.272 632.316 162.992 633.364 167.238C634.527 171.961 640.029 174.805 646.226 177.982C653.576 181.698 661.32 186.141 663.417 194.726C665.431 202.927 662.12 210.277 655.123 213.838Z" fill="white"/>
<path d="M612.156 225.579L622.766 225.091" stroke="#263238" stroke-width="1.33" stroke-linecap="round" stroke-linejoin="round"/>
<path d="M607.049 222.049L616.309 221.271" stroke="#263238" stroke-width="1.33" stroke-linecap="round" stroke-linejoin="round"/>
<path d="M602.896 218.333L612.156 217.544" stroke="#263238" stroke-width="1.33" stroke-linecap="round" stroke-linejoin="round"/>
<path d="M601.63 147.576H609.561" stroke="#263238" stroke-width="1.33" stroke-linecap="round" stroke-linejoin="round"/>
<path d="M605.543 143.922L613.443 143.559" stroke="#263238" stroke-width="1.33" stroke-linecap="round" stroke-linejoin="round"/>
<path d="M610.485 140.257L618.821 139.479" stroke="#263238" stroke-width="1.33" stroke-linecap="round" stroke-linejoin="round"/>
<path opacity="0.3" d="M649.133 231.319C649.081 231.34 649.04 231.34 648.988 231.361C645.396 232.181 641.669 232.627 637.828 232.627C610.08 232.627 587.595 210.132 587.595 182.415C587.595 154.697 609.094 133.188 635.98 132.233C636.437 132.191 636.915 132.191 637.392 132.191C625.153 136.053 604.62 145.915 599.128 166.49C591.332 195.702 608.865 228.88 649.144 231.33L649.133 231.319Z" fill="black"/>
<path d="M716.537 103.343C708.191 115.146 692.962 119.205 680.152 113.9C680.1 113.879 680.027 113.848 679.965 113.827C679.01 113.423 678.065 112.966 677.131 112.457C676.124 111.907 675.159 111.305 674.204 110.63C660.501 100.945 657.241 81.989 666.916 68.2861C676.228 55.1126 694.114 51.5934 707.651 59.9813C707.89 60.1059 708.108 60.2512 708.326 60.4069C708.637 60.5938 708.949 60.8118 709.26 61.0298C709.738 61.362 710.194 61.7045 710.63 62.0679C723.15 71.9817 725.87 90.138 716.527 103.353L716.537 103.343Z" fill="#EABA36"/>
<path opacity="0.4" d="M670.705 103.758C670.705 103.758 665.732 89.1415 672.335 78.3764C680.619 64.8811 693.335 58.7356 710.641 62.0575C710.641 62.0575 701.256 55.7251 685.56 60.22C669.864 64.715 661.445 86.3075 670.695 103.758H670.705Z" fill="white"/>
<path d="M716.527 103.353C708.191 115.146 692.962 119.205 680.141 113.9C678.086 113.059 676.082 111.969 674.183 110.63C660.48 100.945 657.22 81.9786 666.895 68.2861C676.363 54.8946 694.706 51.4793 708.315 60.3965C708.627 60.5938 708.938 60.8014 709.25 61.0194C722.942 70.6945 726.202 89.6605 716.516 103.363L716.527 103.353Z" stroke="#263238" stroke-width="1.33" stroke-linecap="round" stroke-linejoin="round"/>
<path d="M716.527 103.353C708.191 115.146 692.962 119.205 680.141 113.9C679.83 113.703 679.518 113.495 679.207 113.277C665.504 103.592 662.255 84.6362 671.94 70.9333C680.276 59.1405 695.505 55.0815 708.326 60.3862C708.637 60.5834 708.949 60.7911 709.26 61.0091C722.952 70.6841 726.212 89.6502 716.527 103.353Z" stroke="#263238" stroke-width="1.33" stroke-linecap="round" stroke-linejoin="round"/>
<path d="M689.297 107.391L688.093 110.464L683.058 108.481L684.263 105.408C680.432 102.678 679.103 98.0172 680.951 93.325L681.501 91.9236L687.439 93.5534L686.868 95.0067C685.747 97.8615 686.515 100.166 688.872 101.09C691.218 102.014 693.242 101.131 694.145 98.8373C695.225 96.0967 693.574 92.7437 691.54 89.0376C689.131 84.6672 686.941 79.7363 688.892 74.7638C690.803 69.9055 694.519 67.3622 698.993 67.9539L700.197 64.8811L705.232 66.8639L704.028 69.9366C707.786 72.5111 708.834 76.923 706.872 81.8955L706.478 82.9025L700.54 81.2727L700.976 80.1515C702.159 77.1307 701.609 75.1064 699.533 74.2967C697.467 73.4869 695.785 74.2966 694.82 76.7673C693.74 79.5079 695.464 82.8298 697.415 86.567C699.751 90.9685 702.014 95.8683 700.062 100.841C698.194 105.595 693.99 108.066 689.297 107.381V107.391Z" fill="white"/>
<path opacity="0.3" d="M707.661 59.9709C699.315 58.4864 688.851 57.6663 683.173 61.31C672.761 67.985 666.283 76.404 666.376 90.0654C666.47 103.716 679.228 113.288 679.228 113.288L679.975 113.838C677.982 112.997 676.041 111.938 674.214 110.63C660.511 100.945 657.251 81.989 666.926 68.2861C676.238 55.1126 694.125 51.5934 707.661 59.9813V59.9709Z" fill="black"/>
<path d="M99.8443 381.802C119.911 365.379 122.506 337.766 119.662 313.371C119.184 309.301 119.288 304.952 117.025 301.536C114.762 298.111 109.976 296.045 106.405 298.069C103.446 299.751 102.398 303.384 100.914 306.447C98.9411 310.516 95.7957 314.014 91.9547 316.392C89.4322 317.959 86.2348 319.049 83.5254 317.845C79.7986 316.194 78.9785 311.367 78.6671 307.298C78.0961 299.72 77.5252 292.152 76.9542 284.574C76.6428 280.504 76.321 276.362 74.7223 272.615C73.1236 268.867 70.0093 265.514 66.0023 264.757C61.9952 263.999 57.3342 266.625 56.8359 270.663C56.6283 272.345 57.1058 274.037 57.1369 275.729C57.1577 277.421 56.5141 279.352 54.9362 279.965C53.3375 280.577 51.5935 279.56 50.2647 278.47C45.6867 274.722 42.3648 269.677 39.2401 264.642C36.1154 259.608 33.0634 254.448 28.8384 250.296C24.6237 246.143 18.9972 243.04 13.08 243.195C7.16288 243.351 1.17305 247.462 0.155712 253.296C-0.872006 259.14 2.98972 264.673 7.04868 269.002C13.0697 275.428 20.0353 280.982 27.6446 285.425C29.0148 286.224 30.4993 287.096 31.1222 288.56C32.2329 291.197 29.8557 294.104 27.2189 295.214C24.2292 296.47 20.8762 296.439 17.6996 297.073C14.523 297.706 11.1596 299.398 10.1837 302.481C8.83421 306.768 12.7167 310.838 16.4123 313.402C23.814 318.54 32.098 322.392 40.7869 324.748C43.9012 325.589 47.1712 326.285 49.7768 328.184C52.3928 330.084 54.1576 333.614 52.9222 336.593C51.6765 339.583 47.9705 340.808 44.7524 340.486C41.5343 340.164 38.555 338.7 35.4407 337.828C29.6169 336.188 22.3399 337.174 19.1114 342.292C16.9937 345.656 17.139 350.088 18.6546 353.773C20.1702 357.459 22.8797 360.511 25.7137 363.293C35.6379 373.041 47.929 380.536 61.4139 383.941C74.8988 387.346 87.1587 387.564 99.8131 381.781" fill="#EBEBEB"/>
<path d="M101.609 399.927C99.9169 390.315 96.8234 379.051 92.1312 367.02C87.4701 354.978 81.2519 342.199 74.2863 329.046C72.5319 325.766 70.7983 322.527 69.0854 319.329C67.3725 316.142 65.6804 312.987 63.8222 309.997C60.137 304.007 56.1403 298.526 52.1748 293.439C48.2092 288.353 44.2645 283.66 40.5377 279.3C36.8005 274.951 33.2399 270.954 29.8453 267.456C23.0665 260.428 16.921 255.414 12.5713 252.133C10.3913 250.483 8.66807 249.268 7.48464 248.448C6.91369 248.054 6.45692 247.753 6.13511 247.535C5.83406 247.327 5.66797 247.244 5.66797 247.244C5.66797 247.244 5.8133 247.368 6.10397 247.586C6.42578 247.825 6.86178 248.147 7.42235 248.552C8.57464 249.403 10.2875 250.649 12.4364 252.331C16.7445 255.663 22.8174 260.718 29.5442 267.767C32.918 271.276 36.4476 275.283 40.164 279.643C43.87 284.013 47.8044 288.705 51.7388 293.792C55.6835 298.879 59.6595 304.35 63.3239 310.319C65.1614 313.298 66.8431 316.433 68.556 319.62C70.2688 322.817 71.9921 326.056 73.7465 329.337C80.7121 342.479 86.9303 355.227 91.6017 367.227C96.3043 379.217 99.429 390.429 101.173 400.01" fill="#E0E0E0"/>
<path d="M63.6666 309.955C63.6666 309.955 63.7911 309.333 63.8949 308.191C64.0091 307.049 64.1233 305.398 64.2479 303.353C64.4866 299.263 64.632 293.595 64.7773 287.356C64.9227 281.107 65.1614 275.459 65.4832 271.39C65.6389 269.355 65.7843 267.705 65.9088 266.563C66.023 265.421 66.0646 264.788 66.023 264.788C65.9815 264.788 65.8569 265.4 65.6701 266.532C65.4728 267.663 65.2652 269.314 65.0472 271.349C64.6112 275.428 64.2998 281.086 64.1545 287.346C64.0195 293.533 63.9053 299.138 63.8119 303.343C63.7496 305.305 63.6977 306.935 63.6562 308.191C63.625 309.333 63.625 309.966 63.6562 309.976L63.6666 309.955Z" fill="#E0E0E0"/>
<path d="M9.95521 304.557C9.95521 304.557 10.1421 304.588 10.5054 304.599C10.9414 304.599 11.4604 304.599 12.0833 304.599C13.4536 304.599 15.426 304.599 17.8759 304.661C22.7653 304.765 29.513 305.149 36.9354 305.907C44.3578 306.675 51.0535 307.661 55.8599 308.523C58.2683 308.938 60.2095 309.322 61.5591 309.592C62.1715 309.706 62.6802 309.81 63.1058 309.883C63.4588 309.945 63.6456 309.966 63.656 309.945C63.656 309.924 63.4795 309.862 63.137 309.758C62.7217 309.644 62.2131 309.509 61.611 309.353C60.2822 309.021 58.3513 308.564 55.943 308.097C51.1366 307.132 44.4408 306.073 36.9977 305.294C29.5545 304.536 22.7861 304.215 17.8759 304.225C15.426 304.215 13.4432 304.287 12.0729 304.36C11.4501 304.402 10.931 304.443 10.495 304.474C10.1317 304.505 9.94482 304.536 9.94482 304.557H9.95521Z" fill="#E0E0E0"/>
<path d="M91.4668 366.085C91.4668 366.085 91.5914 365.857 91.7678 365.411C91.9651 364.902 92.2038 364.248 92.5049 363.438C93.1381 361.725 93.9998 359.234 95.0275 356.13C97.0829 349.932 99.647 341.285 102.367 331.714C105.087 322.132 107.578 313.485 109.53 307.256C110.495 304.204 111.284 301.713 111.855 299.896C112.115 299.076 112.322 298.412 112.488 297.893C112.623 297.436 112.686 297.187 112.665 297.176C112.644 297.176 112.54 297.405 112.364 297.851C112.177 298.36 111.928 299.014 111.627 299.824C110.993 301.536 110.132 304.028 109.114 307.132C107.059 313.329 104.495 321.977 101.775 331.548C99.0553 341.119 96.5639 349.777 94.6226 355.995C93.6572 359.047 92.8682 361.538 92.2973 363.355C92.0378 364.175 91.8301 364.84 91.664 365.359C91.5291 365.815 91.4668 366.065 91.4876 366.075L91.4668 366.085Z" fill="#E0E0E0"/>
<path d="M19.3188 349.517C19.3188 349.517 19.568 349.611 20.0455 349.735C20.5853 349.86 21.2809 350.026 22.1425 350.223C24.0422 350.659 26.6686 351.261 29.8763 351.988C36.4059 353.483 45.3855 355.663 55.3201 358.102C65.2443 360.531 74.255 362.649 80.8158 364.04C84.0962 364.736 86.7537 365.276 88.5911 365.618C89.4631 365.774 90.169 365.898 90.7192 366.002C91.2071 366.085 91.4667 366.116 91.4667 366.096C91.4667 366.075 91.2175 366.002 90.74 365.878C90.2002 365.753 89.5047 365.587 88.643 365.39C86.7433 364.954 84.1169 364.362 80.9092 363.625C74.3796 362.13 65.3896 359.94 55.4654 357.511C45.5412 355.081 36.5305 352.964 29.9801 351.573C26.6997 350.877 24.0422 350.337 22.2048 349.995C21.3328 349.839 20.6269 349.715 20.0767 349.611C19.5888 349.528 19.3292 349.497 19.3292 349.517H19.3188Z" fill="#E0E0E0"/>
<path d="M595.432 249.683C595.432 249.683 588.643 242.946 575.376 259.763C562.11 276.58 556.348 286.65 556.348 286.65C556.348 286.65 553.047 290.065 550.867 286.972C548.687 283.868 546.445 275.864 541.607 276.259C536.593 276.674 533.967 281.657 533.323 289.629C532.679 297.592 530.624 315.001 530.427 316.578C530.24 318.125 528.922 320.191 527.094 318.312C525.267 316.443 515.8 300.467 508.492 305.409C501.184 310.35 503.031 332.845 503.187 335.306C503.343 337.766 502.689 338.68 501.464 339.032C500.239 339.385 497.561 333.717 494.685 329.285C491.809 324.852 487.688 320.222 483.712 323.419C479.736 326.627 475.522 342.386 485.55 371.348L491.072 384.46L505.222 386.474C535.773 388.934 549.974 380.92 552.081 376.259C554.189 371.608 548.677 368.784 543.663 367.103C538.649 365.421 532.493 364.248 532.534 362.971C532.576 361.694 533.292 360.833 535.711 360.365C538.129 359.898 560.376 356.057 563.334 347.742C566.293 339.427 548.459 334.257 546.185 332.96C543.912 331.662 545.583 329.866 547.036 329.295C548.51 328.714 564.85 322.371 572.397 319.755C579.954 317.139 584.128 313.35 583.266 308.388C582.435 303.602 574.131 303.436 570.58 302.097C567.03 300.758 569.522 296.709 569.522 296.709C569.522 296.709 577.837 288.612 590.792 271.556C603.748 254.5 595.298 249.528 595.298 249.528" fill="#EBEBEB"/>
<path d="M583.515 264.725C583.515 264.725 583.443 264.86 583.287 265.089C583.1 265.359 582.851 265.701 582.55 266.127C581.854 267.072 580.878 268.39 579.643 270.061C577.11 273.466 573.404 278.376 568.805 284.408C559.597 296.481 546.715 313.028 532.41 331.247C518.136 349.476 505.222 365.971 495.837 377.951C491.208 383.909 487.45 388.747 484.813 392.152C483.526 393.792 482.519 395.079 481.802 396.003C481.47 396.408 481.211 396.74 481.003 396.99C480.816 397.208 480.723 397.322 480.712 397.311C480.712 397.311 480.785 397.176 480.941 396.948C481.128 396.678 481.377 396.336 481.678 395.91C482.373 394.965 483.349 393.647 484.584 391.976C487.117 388.571 490.823 383.671 495.422 377.629C504.63 365.556 517.513 348.998 531.828 330.78C546.092 312.561 559.006 296.066 568.39 284.076C573.02 278.117 576.778 273.269 579.415 269.874C580.702 268.234 581.709 266.947 582.436 266.023C582.768 265.618 583.027 265.286 583.235 265.037C583.422 264.819 583.515 264.705 583.526 264.715L583.515 264.725Z" fill="#E0E0E0"/>
<path d="M544.264 287.584C544.368 287.584 544.586 289.027 544.804 291.384C545.022 293.74 545.209 297 545.344 300.612C545.437 304.08 545.52 307.215 545.593 309.841C545.645 312.198 545.697 313.661 545.593 313.672C545.489 313.672 545.251 312.229 545.064 309.872C544.866 307.516 544.721 304.246 544.586 300.644C544.472 297.176 544.358 294.052 544.264 291.425C544.181 289.069 544.15 287.605 544.264 287.595V287.584Z" fill="#E0E0E0"/>
<path d="M546.829 314.17C546.808 313.962 553.514 313.236 561.798 312.54C570.082 311.845 576.819 311.461 576.84 311.668C576.861 311.876 570.155 312.602 561.871 313.298C553.587 313.994 546.849 314.378 546.839 314.17H546.829Z" fill="#E0E0E0"/>
<path d="M522.755 342.136C522.776 342.033 524.25 342.303 526.617 342.749C528.984 343.195 532.254 343.818 535.877 344.399C539.5 344.981 542.801 345.417 545.189 345.728C547.576 346.04 549.061 346.237 549.05 346.351C549.05 346.455 547.545 346.434 545.137 346.258C542.728 346.081 539.396 345.728 535.752 345.147C532.109 344.566 528.839 343.86 526.492 343.268C524.146 342.676 522.724 342.23 522.745 342.126L522.755 342.136Z" fill="#E0E0E0"/>
<path d="M515.156 318.603C515.26 318.572 515.79 319.848 516.558 321.935C517.336 324.022 518.354 326.928 519.444 330.157C520.534 333.385 521.478 336.313 522.122 338.451C522.766 340.59 523.119 341.918 523.025 341.96C522.932 341.991 522.392 340.714 521.624 338.628C520.845 336.541 519.818 333.634 518.738 330.406C517.648 327.188 516.703 324.25 516.06 322.122C515.416 319.983 515.063 318.655 515.156 318.613V318.603Z" fill="#E0E0E0"/>
<path d="M490.771 340.6C490.865 340.569 491.54 342.199 492.547 344.877C493.553 347.555 494.882 351.272 496.315 355.383C497.747 359.504 499.003 363.241 499.875 365.961C500.747 368.681 501.246 370.383 501.142 370.414C501.049 370.445 500.374 368.816 499.367 366.137C498.36 363.459 497.031 359.743 495.599 355.632C494.166 351.51 492.91 347.773 492.038 345.053C491.166 342.334 490.668 340.631 490.771 340.6Z" fill="#E0E0E0"/>
<path d="M501.1 369.636C501.121 369.532 502.99 369.812 506.021 370.29C509.042 370.757 513.215 371.411 517.834 372.023C522.454 372.636 526.658 373.103 529.7 373.435C532.742 373.767 534.62 373.985 534.61 374.089C534.61 374.193 532.71 374.162 529.648 373.964C526.586 373.767 522.371 373.383 517.731 372.771C513.09 372.158 508.928 371.421 505.917 370.819C502.917 370.207 501.08 369.739 501.1 369.646V369.636Z" fill="#E0E0E0"/>
<path d="M143.663 150.939C143.673 150.877 144.223 151.324 145.386 151.22C145.946 151.147 146.652 150.898 147.234 150.296C147.784 149.694 148.189 148.739 148.77 147.794C151.012 143.87 154.22 138.275 158.175 131.382C159.172 129.648 160.22 127.842 161.3 125.952C161.84 125.008 162.4 124.042 162.971 123.067C163.241 122.568 163.584 122.091 163.739 121.613C163.895 121.115 163.916 120.575 163.781 120.066C163.646 119.558 163.355 119.091 162.95 118.748C162.556 118.437 161.964 118.156 161.456 117.855C160.397 117.264 159.317 116.661 158.227 116.049C156.047 114.824 153.794 113.568 151.49 112.281C142.272 107.111 132.15 101.433 121.53 95.4635C120.357 94.7783 118.738 95.2247 118.011 96.3459C117.253 97.6331 116.506 98.9203 115.759 100.187C114.264 102.751 112.79 105.284 111.347 107.765C108.45 112.727 105.658 117.513 103 122.08C102.668 122.651 102.336 123.212 102.004 123.783C101.672 124.302 101.516 124.862 101.537 125.444C101.557 126.015 101.765 126.575 102.128 127.001C102.46 127.447 103.011 127.686 103.561 128.008C105.741 129.243 107.848 130.437 109.893 131.589C113.973 133.904 117.783 136.063 121.26 138.036C128.164 141.981 133.77 145.178 137.694 147.41C139.593 148.51 141.078 149.372 142.137 149.995C142.614 150.275 142.988 150.503 143.289 150.68C143.548 150.836 143.673 150.929 143.663 150.939C143.663 150.95 143.517 150.888 143.247 150.753C142.946 150.597 142.552 150.389 142.064 150.13C140.984 149.538 139.469 148.718 137.548 147.669C133.593 145.479 127.956 142.354 121.001 138.503C117.513 136.551 113.693 134.423 109.592 132.139C107.537 130.998 105.419 129.804 103.239 128.589C102.73 128.288 102.066 128.008 101.609 127.427C101.152 126.887 100.893 126.181 100.862 125.465C100.831 124.759 101.049 124.011 101.412 123.43C101.734 122.869 102.066 122.298 102.398 121.727C105.045 117.16 107.827 112.364 110.713 107.391C112.156 104.91 113.62 102.377 115.115 99.8131C115.873 98.5259 116.631 97.2282 117.388 95.9202C118.312 94.498 120.378 93.9167 121.904 94.8095C132.524 100.789 142.635 106.488 151.832 111.679C154.127 112.976 156.369 114.243 158.549 115.478C159.639 116.09 160.708 116.703 161.767 117.295C162.296 117.616 162.816 117.834 163.355 118.26C163.864 118.686 164.217 119.277 164.383 119.9C164.549 120.534 164.518 121.198 164.321 121.8C164.103 122.423 163.76 122.88 163.49 123.368C162.919 124.343 162.359 125.309 161.809 126.243C160.708 128.122 159.649 129.928 158.632 131.652C154.594 138.503 151.313 144.057 149.019 147.95C148.417 148.894 148.023 149.798 147.389 150.462C146.746 151.095 145.988 151.334 145.396 151.375C144.794 151.417 144.337 151.282 144.057 151.168C143.777 151.054 143.652 150.939 143.652 150.939H143.663Z" fill="#E0E0E0"/>
<path d="M136.001 121.208L139.655 127.696L132.108 127.831L124.572 127.966L128.454 121.343L132.337 114.71L136.001 121.208Z" fill="#E0E0E0"/>
<path d="M161.59 305.575L117.803 261.59L139.821 221.156C161.839 192.972 208.44 194.789 208.44 194.789C208.44 194.789 240.153 191.737 277.172 198.941C314.191 206.146 311.211 230.645 311.211 230.645L316.173 321.385L321.488 395.277L184.958 398.028L161.601 305.575" fill="#5B9CD5"/>
<path d="M235.14 393.771L112.852 395.266C83.463 395.63 63.8637 365.078 76.4351 338.513L128.724 241.545L176.352 273.747L143.86 341.171L242.863 342.936L235.14 393.771Z" fill="#5B9CD5"/>
<path d="M306.831 215.904L404.972 367.424L347.721 371.172C347.721 371.172 313.526 317.295 314.305 318.405C315.706 320.419 306.841 215.914 306.841 215.914L306.831 215.904Z" fill="#5B9CD5"/>
<path d="M173.892 282.435C173.892 282.435 173.912 282.155 174.027 281.657C174.161 281.075 174.338 280.349 174.546 279.466C175.002 277.556 175.656 274.805 176.352 271.38C177.037 267.954 177.774 263.843 178.272 259.255C178.739 254.666 179.03 249.569 178.324 244.316C177.546 239.074 175.573 234.33 173.258 230.364C170.943 226.388 168.338 223.118 165.971 220.554C163.604 217.99 161.517 216.07 160.033 214.803C158.548 213.526 157.697 212.852 157.739 212.8C157.76 212.779 157.988 212.924 158.403 213.225C158.818 213.526 159.462 213.952 160.22 214.575C161.777 215.779 163.926 217.648 166.365 220.181C168.794 222.714 171.473 225.984 173.86 230.001C176.248 233.998 178.272 238.825 179.072 244.192C179.788 249.559 179.466 254.708 178.968 259.317C178.428 263.936 177.639 268.047 176.881 271.473C176.123 274.899 175.376 277.639 174.836 279.529C174.566 280.473 174.338 281.2 174.182 281.688C174.016 282.176 173.923 282.435 173.902 282.425L173.892 282.435Z" fill="#263238"/>
<path d="M169.957 287.667C169.957 287.667 169.698 288.467 169.116 289.858C168.535 291.249 167.653 293.252 166.542 295.713C164.331 300.633 161.175 307.391 157.542 314.783C153.908 322.174 150.493 328.807 147.96 333.572C146.693 335.949 145.645 337.87 144.908 339.188C144.171 340.507 143.735 341.223 143.693 341.192C143.652 341.171 143.994 340.403 144.648 339.053C145.375 337.579 146.33 335.659 147.493 333.333C149.953 328.392 153.233 321.769 156.867 314.461C160.427 307.111 163.646 300.467 166.054 295.495C167.185 293.159 168.13 291.218 168.846 289.744C169.511 288.394 169.905 287.657 169.957 287.678V287.667Z" fill="#263238"/>
<path d="M235.139 393.771C235.139 393.771 235.139 393.688 235.139 393.512C235.16 393.315 235.171 393.065 235.202 392.764C235.274 392.059 235.368 391.103 235.492 389.879C235.773 387.304 236.177 383.629 236.686 378.999C237.766 369.625 239.292 356.421 241.088 340.86L241.43 341.244C230.426 341.244 218.187 341.264 205.304 341.275C180.639 341.233 158.32 341.192 142.105 341.161C134.06 341.109 127.53 341.067 122.952 341.036C120.731 341.005 118.987 340.984 117.741 340.963C117.18 340.953 116.734 340.932 116.391 340.922C116.09 340.911 115.935 340.901 115.935 340.88C115.935 340.859 116.09 340.849 116.391 340.839C116.734 340.839 117.18 340.818 117.741 340.797C118.987 340.776 120.731 340.756 122.952 340.725C127.53 340.693 134.06 340.652 142.105 340.6C158.32 340.569 180.639 340.538 205.304 340.486C218.187 340.496 230.426 340.507 241.43 340.517H241.825L241.773 340.901C239.863 356.452 238.243 369.646 237.091 379.01C236.499 383.629 236.032 387.294 235.7 389.868C235.534 391.093 235.399 392.048 235.305 392.744C235.254 393.045 235.222 393.283 235.191 393.481C235.16 393.647 235.139 393.73 235.129 393.73L235.139 393.771Z" fill="#263238"/>
<path d="M144.711 342.199C144.607 342.261 143.777 341.015 142.271 339.147C140.766 337.268 138.545 334.797 135.742 332.43C132.939 330.074 130.136 328.288 128.029 327.115C125.932 325.942 124.561 325.33 124.603 325.226C124.634 325.143 126.077 325.589 128.267 326.648C130.458 327.707 133.365 329.451 136.219 331.859C139.064 334.268 141.275 336.842 142.687 338.825C144.098 340.808 144.773 342.157 144.701 342.209L144.711 342.199Z" fill="#263238"/>
<path d="M318.187 351.791C318.187 351.791 318.094 351.365 317.99 350.535C317.886 349.642 317.751 348.438 317.585 346.922C317.253 343.787 316.796 339.24 316.319 333.624C315.322 322.392 314.18 306.851 313.163 289.671C312.146 272.49 311.44 256.919 311.024 245.656C310.817 240.019 310.682 235.461 310.609 232.306C310.588 230.78 310.568 229.575 310.547 228.672C310.547 227.842 310.547 227.406 310.578 227.406C310.609 227.406 310.64 227.842 310.703 228.672C310.754 229.565 310.817 230.78 310.9 232.295C311.056 235.513 311.284 240.05 311.554 245.635C312.094 256.898 312.893 272.449 313.91 289.629C314.928 306.8 315.987 322.34 316.848 333.582C317.274 339.147 317.627 343.683 317.876 346.891C317.99 348.406 318.073 349.621 318.146 350.514C318.198 351.344 318.218 351.78 318.187 351.78V351.791Z" fill="#263238"/>
<path d="M209.021 269.345C209.021 269.345 209.031 268.639 209.177 267.362C209.343 265.981 209.571 264.144 209.841 261.881C210.474 257.095 211.346 250.535 212.364 242.946L212.924 243.289C209.997 245.334 206.831 247.555 203.54 249.86C200.187 252.185 196.969 254.438 193.989 256.504L193.304 256.981L193.429 256.161C194.581 248.635 195.578 242.136 196.304 237.392C196.678 235.16 196.969 233.344 197.197 231.984C197.415 230.728 197.56 230.043 197.602 230.053C197.643 230.053 197.581 230.748 197.436 232.015C197.259 233.385 197.031 235.212 196.751 237.455C196.097 242.209 195.194 248.718 194.145 256.265L193.584 255.922C196.543 253.846 199.761 251.593 203.114 249.258C206.415 246.964 209.592 244.752 212.519 242.718L213.205 242.24L213.08 243.06C211.959 250.638 211.004 257.178 210.298 261.964C209.935 264.217 209.644 266.044 209.426 267.424C209.208 268.691 209.073 269.376 209.031 269.376L209.021 269.345Z" fill="#E0E0E0"/>
<path d="M263.604 275.231C263.604 275.231 263.075 274.774 262.182 273.84C261.227 272.823 259.95 271.483 258.383 269.822C255.102 266.272 250.618 261.414 245.427 255.777L246.05 255.569C245.759 259.12 245.437 262.981 245.105 266.988C244.752 271.058 244.42 274.971 244.109 278.574L244.036 279.404L243.486 278.781C238.43 273.082 234.07 268.161 230.883 264.58C229.399 262.867 228.195 261.476 227.291 260.428C226.461 259.452 226.035 258.912 226.067 258.881C226.098 258.85 226.586 259.338 227.468 260.262C228.413 261.269 229.669 262.618 231.215 264.269C234.454 267.809 238.877 272.667 244.015 278.293L243.392 278.501C243.693 274.899 244.015 270.985 244.347 266.916C244.69 262.909 245.022 259.057 245.323 255.507L245.396 254.677L245.946 255.289C251.064 260.988 255.476 265.919 258.704 269.511C260.21 271.224 261.424 272.615 262.348 273.663C263.189 274.639 263.625 275.179 263.594 275.21L263.604 275.231Z" fill="#E0E0E0"/>
<path d="M291.072 273.29C291.072 273.29 290.761 273.923 290.086 275.013C289.349 276.196 288.363 277.764 287.148 279.695C284.532 283.754 280.951 289.318 276.809 295.754L276.446 295.204C279.965 294.602 283.775 293.937 287.73 293.252C291.757 292.567 295.63 291.913 299.19 291.311L300.021 291.176L299.554 291.872C295.308 298.194 291.633 303.644 288.965 307.63C287.678 309.488 286.64 311.004 285.851 312.146C285.114 313.194 284.698 313.744 284.667 313.724C284.636 313.703 284.979 313.101 285.653 312.011C286.391 310.838 287.377 309.291 288.591 307.381C291.207 303.363 294.799 297.851 298.962 291.477L299.325 292.027C295.765 292.64 291.892 293.315 287.865 294C283.899 294.675 280.089 295.318 276.57 295.91L275.75 296.045L276.207 295.349C280.442 288.965 284.107 283.463 286.775 279.435C288.062 277.556 289.1 276.02 289.889 274.868C290.626 273.809 291.041 273.248 291.072 273.269V273.29Z" fill="#E0E0E0"/>
<path d="M254.542 301.391C254.542 301.391 254.23 302.024 253.555 303.114C252.818 304.298 251.832 305.865 250.618 307.796C248.002 311.855 244.42 317.419 240.278 323.855L239.915 323.305C243.434 322.703 247.244 322.039 251.199 321.354C255.227 320.668 259.099 320.014 262.659 319.412L263.49 319.277L263.023 319.973C258.777 326.295 255.102 331.745 252.434 335.731C251.147 337.589 250.109 339.105 249.32 340.247C248.583 341.296 248.168 341.846 248.136 341.825C248.105 341.804 248.448 341.202 249.123 340.112C249.86 338.939 250.846 337.392 252.061 335.482C254.677 331.465 258.268 325.952 262.431 319.578L262.794 320.129C259.234 320.741 255.362 321.416 251.334 322.101C247.368 322.776 243.558 323.419 240.039 324.011L239.219 324.146L239.676 323.451C243.911 317.066 247.576 311.564 250.244 307.537C251.531 305.658 252.569 304.121 253.358 302.969C254.095 301.91 254.51 301.349 254.542 301.37V301.391Z" fill="#E0E0E0"/>
<path d="M333.468 272.885C333.468 272.885 333.157 273.518 332.482 274.608C331.745 275.792 330.759 277.359 329.544 279.29C326.928 283.349 323.347 288.913 319.205 295.349L318.842 294.799C322.361 294.197 326.171 293.533 330.126 292.847C334.153 292.162 338.026 291.508 341.586 290.906L342.417 290.771L341.95 291.467C337.704 297.789 334.029 303.239 331.361 307.225C330.074 309.083 329.036 310.599 328.247 311.741C327.51 312.789 327.094 313.34 327.063 313.319C327.032 313.298 327.375 312.696 328.049 311.606C328.787 310.433 329.773 308.886 330.987 306.976C333.603 302.959 337.195 297.446 341.358 291.072L341.721 291.623C338.161 292.235 334.288 292.91 330.261 293.595C326.295 294.27 322.485 294.913 318.966 295.505L318.146 295.64L318.603 294.944C322.838 288.56 326.503 283.058 329.171 279.03C330.458 277.151 331.496 275.615 332.285 274.463C333.022 273.404 333.437 272.843 333.468 272.864V272.885Z" fill="#E0E0E0"/>
<path d="M148.635 249.673C148.635 249.673 148.323 250.306 147.649 251.396C146.912 252.58 145.925 254.147 144.711 256.078C142.095 260.137 138.513 265.701 134.371 272.137L134.008 271.587C137.527 270.985 141.337 270.321 145.292 269.636C149.32 268.95 153.192 268.296 156.753 267.694L157.583 267.559L157.116 268.255C152.87 274.577 149.195 280.027 146.527 284.013C145.24 285.871 144.202 287.387 143.413 288.529C142.676 289.577 142.261 290.128 142.23 290.107C142.199 290.086 142.541 289.484 143.216 288.394C143.953 287.221 144.939 285.674 146.154 283.764C148.77 279.747 152.362 274.234 156.524 267.86L156.888 268.411C153.327 269.023 149.455 269.698 145.427 270.383C141.462 271.058 137.652 271.701 134.133 272.293L133.312 272.428L133.769 271.733C138.005 265.348 141.669 259.846 144.337 255.819C145.624 253.94 146.662 252.403 147.451 251.251C148.188 250.192 148.604 249.631 148.635 249.652V249.673Z" fill="#E0E0E0"/>
<path d="M91.311 358.113C91.311 358.113 91.8093 358.601 92.6502 359.587C93.5429 360.656 94.7264 362.078 96.1901 363.833C99.2421 367.58 103.415 372.708 108.242 378.657L107.609 378.833C108.128 375.304 108.689 371.473 109.27 367.497C109.872 363.459 110.454 359.576 110.983 355.995L111.108 355.164L111.616 355.818C116.308 361.819 120.347 366.999 123.305 370.788C124.675 372.584 125.797 374.047 126.627 375.148C127.395 376.176 127.79 376.736 127.759 376.767C127.727 376.798 127.26 376.279 126.44 375.293C125.558 374.224 124.395 372.802 122.952 371.058C119.942 367.321 115.831 362.192 111.056 356.265L111.689 356.099C111.17 359.68 110.599 363.563 110.007 367.601C109.415 371.577 108.844 375.397 108.315 378.927L108.19 379.747L107.671 379.093C102.927 373.082 98.8268 367.892 95.8267 364.103C94.4357 362.296 93.3042 360.832 92.4529 359.722C91.6743 358.694 91.2695 358.123 91.311 358.102V358.113Z" fill="#E0E0E0"/>
<path d="M222.257 287.896C222.257 287.896 221.571 288.02 220.284 288.145C218.893 288.269 217.045 288.425 214.782 288.622C209.965 288.986 203.363 289.474 195.733 290.045L195.951 289.422C198.557 291.861 201.38 294.508 204.308 297.259C207.277 300.062 210.132 302.761 212.768 305.242L213.381 305.813L212.55 305.855C204.941 306.27 198.38 306.633 193.595 306.893C191.332 306.986 189.494 307.069 188.114 307.132C186.837 307.173 186.141 307.173 186.141 307.132C186.141 307.09 186.826 307.007 188.103 306.893C189.484 306.779 191.321 306.633 193.574 306.447C198.36 306.114 204.92 305.658 212.519 305.139L212.291 305.761C209.654 303.291 206.789 300.602 203.81 297.81C200.892 295.048 198.069 292.401 195.484 289.951L194.882 289.38L195.712 289.328C203.353 288.872 209.965 288.467 214.782 288.176C217.056 288.062 218.914 287.979 220.305 287.906C221.592 287.854 222.288 287.854 222.288 287.896H222.257Z" fill="#E0E0E0"/>
<path d="M190.117 360.999C190.117 360.999 190.626 361.476 191.477 362.442C192.391 363.49 193.605 364.891 195.1 366.615C198.225 370.3 202.491 375.356 207.443 381.2L206.81 381.387C207.256 377.847 207.744 374.006 208.242 370.02C208.761 365.971 209.27 362.078 209.737 358.486L209.841 357.656L210.37 358.3C215.177 364.206 219.319 369.314 222.35 373.03C223.752 374.805 224.904 376.248 225.765 377.328C226.554 378.335 226.959 378.895 226.928 378.927C226.897 378.958 226.419 378.449 225.579 377.484C224.675 376.435 223.482 375.034 222.008 373.321C218.924 369.646 214.71 364.601 209.82 358.756L210.454 358.569C209.997 362.161 209.509 366.054 209 370.103C208.481 374.089 207.993 377.92 207.526 381.46L207.422 382.29L206.893 381.646C202.024 375.729 197.83 370.622 194.757 366.885C193.335 365.11 192.173 363.667 191.301 362.577C190.501 361.559 190.086 360.999 190.128 360.978L190.117 360.999Z" fill="#E0E0E0"/>
<path d="M132.679 307.391C132.679 307.391 131.994 307.516 130.707 307.64C129.316 307.765 127.468 307.921 125.205 308.118C120.388 308.481 113.786 308.969 106.156 309.54L106.374 308.917C108.98 311.357 111.803 314.004 114.731 316.755C117.7 319.558 120.554 322.257 123.191 324.738L123.804 325.309L122.973 325.35C115.364 325.766 108.803 326.129 104.018 326.388C101.754 326.482 99.917 326.565 98.5364 326.627C97.2595 326.669 96.564 326.669 96.564 326.627C96.564 326.586 97.2491 326.503 98.526 326.388C99.9066 326.274 101.744 326.129 103.997 325.942C108.782 325.61 115.343 325.153 122.942 324.634L122.714 325.257C120.077 322.786 117.212 320.098 114.232 317.305C111.315 314.544 108.492 311.897 105.907 309.447L105.305 308.876L106.135 308.824C113.776 308.367 120.388 307.962 125.205 307.672C127.479 307.557 129.337 307.474 130.728 307.402C132.015 307.35 132.711 307.35 132.711 307.391H132.679Z" fill="#E0E0E0"/>
<path d="M182.03 359.348C182.03 359.348 181.345 359.473 180.058 359.597C178.667 359.722 176.819 359.877 174.556 360.075C169.739 360.438 163.137 360.926 155.507 361.497L155.725 360.874C158.331 363.314 161.154 365.961 164.082 368.712C167.051 371.515 169.905 374.214 172.542 376.695L173.155 377.266L172.324 377.307C164.715 377.722 158.154 378.086 153.369 378.345C151.106 378.439 149.268 378.522 147.887 378.584C146.611 378.626 145.915 378.626 145.915 378.584C145.915 378.542 146.6 378.459 147.877 378.345C149.258 378.231 151.095 378.086 153.348 377.899C158.133 377.567 164.694 377.11 172.293 376.591L172.065 377.214C169.428 374.743 166.563 372.054 163.583 369.262C160.666 366.501 157.843 363.853 155.258 361.404L154.656 360.833L155.486 360.781C163.127 360.324 169.739 359.919 174.556 359.628C176.83 359.514 178.688 359.431 180.079 359.358C181.366 359.307 182.062 359.307 182.062 359.348H182.03Z" fill="#E0E0E0"/>
<path d="M293.418 227.146C293.418 227.146 292.733 227.271 291.446 227.395C290.055 227.52 288.207 227.676 285.944 227.873C281.127 228.236 274.525 228.724 266.895 229.295L267.113 228.672C269.718 231.112 272.542 233.759 275.469 236.51C278.438 239.313 281.293 242.012 283.93 244.493L284.542 245.064L283.712 245.105C276.103 245.521 269.542 245.884 264.756 246.143C262.493 246.237 260.656 246.32 259.275 246.382C257.998 246.424 257.303 246.424 257.303 246.382C257.303 246.341 257.988 246.258 259.265 246.143C260.645 246.029 262.483 245.884 264.736 245.697C269.521 245.365 276.082 244.908 283.681 244.389L283.452 245.012C280.816 242.541 277.951 239.853 274.971 237.06C272.054 234.299 269.23 231.652 266.646 229.202L266.044 228.631L266.874 228.579C274.514 228.122 281.127 227.717 285.944 227.427C288.217 227.312 290.075 227.229 291.467 227.157C292.754 227.105 293.449 227.105 293.449 227.146H293.418Z" fill="#E0E0E0"/>
<path d="M239.23 359.348C239.23 359.348 263.635 352.32 271.701 350.265C274.847 349.465 288.321 356.576 297.633 362.483C297.633 362.483 310.454 370.082 309.415 372.428C308.274 375.003 303.55 374.473 296.014 370.933C296.014 370.933 298.64 378.574 293.481 378.408C293.481 378.408 296.045 386.66 291.207 387.512C286.37 388.363 285.228 377.837 280.961 377.266C276.695 376.695 267.871 376.124 267.871 376.124C267.871 376.124 260.521 388.29 254.832 389.152C249.143 390.003 235.949 388.467 235.949 388.467L239.24 359.358L239.23 359.348Z" fill="#FFBE9D"/>
<path d="M280.878 361.03C280.993 360.853 284.045 362.577 287.688 364.881C291.342 367.186 294.208 369.2 294.104 369.376C293.99 369.553 290.938 367.829 287.283 365.525C283.629 363.22 280.764 361.206 280.868 361.03H280.878Z" fill="#EB996E"/>
<path d="M279.435 365.722C279.518 365.535 283.141 367.02 287.522 369.044C291.903 371.068 295.38 372.864 295.297 373.051C295.214 373.238 291.591 371.753 287.21 369.729C282.83 367.705 279.352 365.919 279.435 365.722Z" fill="#EB996E"/>
<path d="M282.051 377.1C282.083 376.892 284.543 377.058 287.564 377.473C290.574 377.888 292.993 378.387 292.972 378.594C292.941 378.802 290.481 378.636 287.46 378.221C284.449 377.805 282.031 377.307 282.051 377.1Z" fill="#EB996E"/>
<path d="M207.495 107.661C208.066 109.53 207.412 111.699 205.917 112.955C204.422 114.212 202.169 114.471 200.425 113.589C197.124 111.917 196.699 107.35 197.353 103.706C198.007 100.052 199.242 96.159 197.716 92.7852C196.543 90.2003 194.01 88.5705 192.027 86.5358C188.581 82.9959 186.743 77.8366 187.584 72.9679C188.425 68.0992 192.069 63.7184 196.834 62.3897C201.692 61.0298 207.682 62.5246 211.294 59.0055C213.91 56.4518 214.076 52.2786 216.101 49.237C219.246 44.5136 225.9 43.7662 231.527 44.5344C237.153 45.3026 242.873 47.1089 248.386 45.7386C252.984 44.5967 256.763 41.3786 261.071 39.4062C270.414 35.1292 282.363 37.4442 289.432 44.8977C296.501 52.3513 298.183 64.4036 293.418 73.5077C291.705 76.7777 289.131 79.7467 285.716 81.1377" fill="#263238"/>
<path d="M235.482 227.447C251.064 227.427 263.625 214.679 263.407 199.107L263.044 172.449C263.044 172.449 285.435 170.207 286.92 148.012C288.404 125.817 287.335 74.6288 287.335 74.6288C262.234 62.182 232.357 64.2998 209.26 80.1515L205.834 82.508L207.505 199.896C207.723 215.187 220.191 227.468 235.492 227.458L235.482 227.447Z" fill="#FFBE9D"/>
<path d="M281.449 114.814C277.504 114.035 277.535 108.948 281.491 108.211C281.667 108.18 281.854 108.18 282.03 108.211C285.975 108.99 285.944 114.087 281.989 114.814C281.812 114.845 281.626 114.845 281.449 114.814Z" fill="#263238"/>
<path d="M285.799 107.723C285.425 108.087 283.339 106.291 280.287 106.114C277.235 105.886 274.92 107.391 274.608 106.976C274.452 106.789 274.837 106.114 275.843 105.429C276.83 104.744 278.501 104.132 280.411 104.256C282.311 104.381 283.889 105.211 284.781 106.021C285.695 106.831 285.986 107.547 285.799 107.713V107.723Z" fill="#263238"/>
<path d="M250.42 108.471C251.884 109.488 252.247 111.502 251.24 112.966C250.223 114.429 248.209 114.793 246.745 113.786C245.281 112.769 244.918 110.755 245.925 109.291C246.942 107.827 248.956 107.464 250.42 108.471Z" fill="#263238"/>
<path d="M252.434 108.616C252.06 108.979 249.974 107.184 246.922 107.007C243.87 106.779 241.555 108.284 241.243 107.869C241.088 107.682 241.472 107.007 242.479 106.322C243.465 105.637 245.136 105.024 247.046 105.149C248.946 105.273 250.524 106.104 251.417 106.914C252.33 107.723 252.621 108.45 252.444 108.606L252.434 108.616Z" fill="#263238"/>
<path d="M263.324 134.506C263.324 134.268 265.224 133.987 268.328 133.728C269.137 133.686 269.771 133.541 269.854 133.115C270.02 132.638 269.76 131.766 269.407 130.79C268.732 128.724 268.047 126.638 267.331 124.447C264.476 115.416 262.525 107.973 262.981 107.827C263.438 107.682 266.127 114.886 268.992 123.918C269.667 126.119 270.31 128.226 270.944 130.302C271.182 131.247 271.681 132.357 271.203 133.655C270.944 134.309 270.29 134.745 269.76 134.859C269.22 134.994 268.774 134.963 268.39 134.963C265.286 134.911 263.355 134.756 263.345 134.506H263.324Z" fill="#263238"/>
<path d="M253.202 137.351C257.116 139.167 261.798 141.42 267.964 142.52C267.964 142.52 264.082 148.033 257.812 145.344C251.303 142.552 253.202 137.351 253.202 137.351Z" fill="white"/>
<path d="M263.085 172.117C263.085 172.117 248.988 172.49 234.589 162.317C234.589 162.317 240.558 178.667 262.826 177.878L263.085 172.127V172.117Z" fill="#EB996E"/>
<path d="M287.48 80.2346C287.48 80.2346 274.079 87.0445 256.306 78.6048C244.638 73.0613 231.122 70.5076 228.195 72.8848C225.267 75.2621 224.873 87.1794 213.495 90.8751C213.495 90.8751 214.72 113.568 205.647 112.935C196.574 112.301 201.547 77.0165 201.547 77.0165L223.492 65.7635L247.576 60.7287L270.414 63.5004L288.135 67.985L287.47 80.2346H287.48Z" fill="#263238"/>
<path d="M207.308 105.647C206.934 105.46 192.297 100.301 191.954 115.509C191.612 130.717 206.955 127.925 206.986 127.489C207.017 127.053 207.308 105.647 207.308 105.647Z" fill="#FFBE9D"/>
<path d="M202.47 121.624C202.408 121.572 202.2 121.8 201.754 121.997C201.308 122.184 200.56 122.309 199.771 121.997C198.183 121.374 196.885 118.79 196.875 116.049C196.875 114.668 197.186 113.35 197.705 112.27C198.193 111.17 198.93 110.412 199.74 110.277C200.55 110.111 201.11 110.609 201.287 111.035C201.484 111.461 201.38 111.762 201.453 111.793C201.494 111.834 201.785 111.544 201.681 110.91C201.629 110.609 201.453 110.246 201.1 109.945C200.737 109.644 200.207 109.478 199.647 109.53C198.474 109.582 197.394 110.641 196.823 111.824C196.19 113.018 195.806 114.492 195.806 116.039C195.837 119.101 197.342 122.008 199.522 122.693C200.581 122.994 201.484 122.693 201.951 122.34C202.429 121.977 202.522 121.634 202.47 121.603V121.624Z" fill="#EB996E"/>
<path d="M199.564 58.0401C199.481 57.8636 201.972 57.1473 204.837 58.2373C207.713 59.2858 209.135 61.4658 208.948 61.5488C208.782 61.7046 207.225 59.9086 204.567 58.9536C201.93 57.9466 199.584 58.2788 199.553 58.0505L199.564 58.0401Z" fill="#263238"/>
<path d="M208.72 48.9255C208.99 48.9463 208.564 52.1333 209.104 55.9327C209.623 59.7737 211.429 62.4416 211.232 62.5558C211.159 62.6077 210.609 62.0159 209.955 60.874C209.322 59.7321 208.637 58.0193 208.357 56.0365C207.806 52.0502 208.575 48.884 208.72 48.9151V48.9255Z" fill="#263238"/>
<path d="M271.203 100.426C271.12 100.249 271.774 99.7197 273.009 99.2214C274.234 98.7127 276.061 98.2871 278.106 98.3079C280.151 98.3286 281.968 98.7958 283.183 99.3252C284.407 99.8546 285.051 100.394 284.958 100.571C284.771 100.976 281.843 99.8339 278.085 99.8235C274.328 99.7612 271.379 100.841 271.203 100.436V100.426Z" fill="#263238"/>
<path d="M237.288 97.2283C237.205 97.0518 237.859 96.5223 239.095 96.0241C240.32 95.5154 242.147 95.0898 244.192 95.1105C246.237 95.1313 248.053 95.5984 249.268 96.1279C250.493 96.6573 251.137 97.1971 251.043 97.3736C250.856 97.7784 247.929 96.6365 244.171 96.6262C240.413 96.5639 237.465 97.6435 237.288 97.2386V97.2283Z" fill="#263238"/>
<path d="M268.587 102.813C268.587 102.813 268.628 103.145 268.649 103.716C268.67 104.36 268.691 105.17 268.722 106.166C268.743 107.246 268.774 108.512 268.805 109.976C268.805 111.45 268.898 113.153 269.532 114.907C270.134 116.651 271.182 118.447 272.739 119.973C274.307 121.468 276.352 122.724 278.729 123.264C279.913 123.544 281.169 123.679 282.435 123.586C283.702 123.523 284.999 123.264 286.235 122.786C288.716 121.873 290.968 120.087 292.484 117.731C293.937 115.478 294.591 112.852 294.519 110.308C294.519 107.713 294.529 105.211 294.539 102.813L294.892 103.166C287.293 103.093 280.795 103.042 276.072 103C273.809 102.959 271.971 102.927 270.611 102.907C270.03 102.886 269.542 102.875 269.137 102.865C268.795 102.855 268.618 102.834 268.597 102.824C268.566 102.792 269.22 102.772 270.466 102.741C271.815 102.72 273.622 102.689 275.854 102.647C280.629 102.606 287.21 102.543 294.903 102.481H295.256V102.834C295.256 105.222 295.266 107.734 295.276 110.329C295.359 112.966 294.674 115.789 293.128 118.167C291.519 120.658 289.131 122.558 286.494 123.513C285.186 124.022 283.816 124.281 282.477 124.343C281.138 124.437 279.809 124.281 278.563 123.98C276.051 123.388 273.912 122.049 272.293 120.461C270.684 118.841 269.615 116.952 269.023 115.115C268.4 113.277 268.348 111.502 268.39 109.976C268.421 108.481 268.442 107.173 268.473 106.073C268.504 105.087 268.525 104.287 268.545 103.654C268.566 103.114 268.587 102.834 268.608 102.855L268.587 102.813Z" fill="#263238"/>
<path d="M233.032 102.066C233.032 102.066 233.073 102.398 233.094 102.969C233.115 103.613 233.136 104.422 233.167 105.419C233.187 106.498 233.219 107.765 233.25 109.229C233.25 110.703 233.343 112.405 233.976 114.16C234.579 115.904 235.627 117.7 237.184 119.226C238.752 120.72 240.797 121.976 243.174 122.516C244.357 122.797 245.614 122.932 246.88 122.838C248.146 122.776 249.444 122.516 250.679 122.039C253.16 121.125 255.413 119.34 256.929 116.983C258.382 114.731 259.036 112.104 258.963 109.561C258.963 106.966 258.974 104.464 258.984 102.066L259.337 102.419C251.738 102.346 245.24 102.294 240.516 102.253C238.253 102.211 236.416 102.18 235.056 102.159C234.475 102.138 233.987 102.128 233.582 102.118C233.239 102.107 233.063 102.087 233.042 102.076C233.011 102.045 233.665 102.024 234.911 101.993C236.26 101.972 238.067 101.941 240.298 101.9C245.074 101.858 251.655 101.796 259.348 101.734H259.701V102.087C259.701 104.474 259.711 106.986 259.721 109.582C259.804 112.218 259.119 115.042 257.572 117.419C255.963 119.911 253.576 121.81 250.939 122.765C249.631 123.274 248.261 123.534 246.922 123.596C245.582 123.689 244.254 123.534 243.008 123.233C240.496 122.641 238.357 121.302 236.738 119.713C235.129 118.094 234.059 116.205 233.468 114.367C232.845 112.53 232.793 110.755 232.835 109.229C232.866 107.734 232.886 106.426 232.918 105.325C232.949 104.339 232.969 103.54 232.99 102.907C233.011 102.367 233.032 102.087 233.053 102.107L233.032 102.066Z" fill="#263238"/>
<path d="M268.898 103.872C268.898 104.08 266.656 104.246 263.895 104.246C261.133 104.246 258.891 104.08 258.891 103.872C258.891 103.664 261.133 103.498 263.895 103.498C266.656 103.498 268.898 103.664 268.898 103.872Z" fill="#263238"/>
<path d="M205.294 104.069C205.294 103.862 211.502 103.675 219.163 103.654C226.824 103.633 233.032 103.779 233.032 103.986C233.032 104.194 226.824 104.381 219.163 104.402C211.502 104.422 205.294 104.277 205.294 104.069Z" fill="#263238"/>
<path d="M361.009 273.29L312.862 392.328H226.066V397.706H484.605L537.485 273.29H361.009Z" fill="#263238"/>
<path d="M434.589 343.569C432.845 349.559 427.769 353.348 423.243 352.029C418.717 350.711 416.474 344.794 418.218 338.794C419.962 332.804 425.039 329.015 429.565 330.333C434.091 331.652 436.333 337.569 434.589 343.569Z" fill="#FAFAFA"/>
</g>
<defs>
<clipPath id="clip0_28_5914">
<rect width="722.797" height="400" fill="white"/>
</clipPath>
</defs>
</svg>
