<svg width="89" height="100" viewBox="0 0 89 100" fill="none" xmlns="http://www.w3.org/2000/svg">
<g clip-path="url(#clip0_53_1621)">
<path d="M88.6018 50.0088C88.6018 44.1951 81.3213 38.6855 70.159 35.2688C72.7349 23.8919 71.59 14.8404 66.5455 11.9425C65.3828 11.2627 64.0233 10.9407 62.5385 10.9407V14.9298C63.3614 14.9298 64.0233 15.0908 64.5778 15.3949C67.0106 16.7902 68.066 22.103 67.2432 28.9364C67.0464 30.6179 66.7244 32.3888 66.3309 34.1955C62.8248 33.3369 58.9967 32.675 54.9718 32.2457C52.5569 28.9364 50.0525 25.9311 47.5303 23.3016C53.3619 17.8814 58.8357 14.9119 62.5564 14.9119V10.9229C57.6372 10.9229 51.1974 14.429 44.686 20.511C38.1747 14.4647 31.7349 10.9944 26.8156 10.9944V14.9835C30.5185 14.9835 36.0102 17.9351 41.8418 23.3194C39.3374 25.949 36.8331 28.9364 34.4539 32.2457C30.4112 32.675 26.5831 33.3369 23.077 34.2134C22.6655 32.4246 22.3614 30.6894 22.1468 29.0258C21.306 22.1925 22.3435 16.8797 24.7585 15.4665C25.2951 15.1445 25.9927 15.0014 26.8156 15.0014V11.0123C25.313 11.0123 23.9535 11.3343 22.7729 12.014C17.7462 14.9119 16.6193 23.9455 19.2131 35.2867C8.08656 38.7213 0.841797 44.213 0.841797 50.0088C0.841797 55.8225 8.12233 61.3321 19.2846 64.7487C16.7087 76.1257 17.8536 85.1772 22.8981 88.0751C24.0608 88.7548 25.4203 89.0768 26.9229 89.0768C31.8422 89.0768 38.282 85.5707 44.7934 79.4887C51.3047 85.5349 57.7445 89.0053 62.6638 89.0053C64.1664 89.0053 65.5259 88.6833 66.7065 88.0035C71.7331 85.1056 72.8601 76.072 70.2663 64.7309C81.357 61.3142 88.6018 55.8046 88.6018 50.0088ZM65.3112 38.0773C64.6494 40.3849 63.8265 42.764 62.8963 45.1432C62.1629 43.7121 61.3937 42.281 60.5529 40.85C59.7301 39.4189 58.8536 38.0236 57.977 36.6641C60.5172 37.0398 62.9679 37.5049 65.3112 38.0773ZM57.1184 57.1283C55.7231 59.5432 54.292 61.8329 52.8073 63.9617C50.142 64.1942 47.4408 64.3194 44.7218 64.3194C42.0207 64.3194 39.3195 64.1942 36.6721 63.9795C35.1873 61.8508 33.7384 59.579 32.3431 57.182C30.9836 54.8386 29.7493 52.4595 28.6223 50.0624C29.7314 47.6654 30.9836 45.2684 32.3252 42.925C33.7205 40.5101 35.1516 38.2204 36.6363 36.0917C39.3016 35.8591 42.0028 35.7339 44.7218 35.7339C47.4229 35.7339 50.1241 35.8591 52.7715 36.0738C54.2563 38.2025 55.7052 40.4743 57.1005 42.8714C58.46 45.2147 59.6943 47.5939 60.8213 49.9909C59.6943 52.3879 58.46 54.785 57.1184 57.1283ZM62.8963 54.8028C63.8623 57.1999 64.6851 59.5969 65.3649 61.9224C63.0215 62.4948 60.5529 62.9778 57.9949 63.3535C58.8714 61.9761 59.748 60.5629 60.5708 59.1139C61.3937 57.6829 62.1629 56.2339 62.8963 54.8028ZM44.7576 73.8897C43.094 72.1724 41.4304 70.2583 39.7846 68.1654C41.3946 68.237 43.0403 68.2906 44.7039 68.2906C46.3854 68.2906 48.049 68.2548 49.6769 68.1654C48.0669 70.2583 46.4033 72.1724 44.7576 73.8897ZM31.4487 63.3535C28.9085 62.9778 26.4578 62.5127 24.1145 61.9403C24.7763 59.6327 25.5992 57.2535 26.5294 54.8744C27.2628 56.3055 28.032 57.7365 28.8728 59.1676C29.7135 60.5987 30.5722 61.9939 31.4487 63.3535ZM44.6681 26.1279C46.3318 27.8452 47.9954 29.7592 49.6411 31.8522C48.0311 31.7806 46.3854 31.7269 44.7218 31.7269C43.0403 31.7269 41.3767 31.7627 39.7489 31.8522C41.3588 29.7592 43.0224 27.8452 44.6681 26.1279ZM31.4308 36.6641C30.5543 38.0415 29.6777 39.4547 28.8549 40.9036C28.032 42.3347 27.2628 43.7658 26.5294 45.1968C25.5634 42.7998 24.7406 40.4028 24.0608 38.0773C26.4042 37.5228 28.8728 37.0398 31.4308 36.6641ZM15.2419 59.0603C8.90942 56.3591 4.813 52.8172 4.813 50.0088C4.813 47.2003 8.90942 43.6405 15.2419 40.9573C16.7803 40.2954 18.4618 39.7051 20.1969 39.1506C21.2166 42.6567 22.5582 46.3059 24.2218 50.0446C22.5761 53.7653 21.2524 57.3966 20.2506 60.8849C18.4797 60.3303 16.7982 59.7221 15.2419 59.0603ZM24.8658 84.6226C22.433 83.2274 21.3776 77.9145 22.2004 71.0812C22.3972 69.3997 22.7192 67.6288 23.1127 65.822C26.6188 66.6807 30.4469 67.3425 34.4718 67.7719C36.8867 71.0812 39.3911 74.0864 41.9133 76.716C36.0817 82.1362 30.6079 85.1056 26.8872 85.1056C26.0822 85.0877 25.4024 84.9267 24.8658 84.6226ZM67.2968 70.9918C68.1376 77.8251 67.1001 83.1379 64.6851 84.5511C64.1485 84.8731 63.4508 85.0162 62.628 85.0162C58.9251 85.0162 53.4334 82.0646 47.6018 76.6802C50.1062 74.0507 52.6105 71.0633 54.9897 67.754C59.0324 67.3247 62.8605 66.6628 66.3666 65.7863C66.7781 67.593 67.1001 69.3281 67.2968 70.9918ZM74.1838 59.0603C72.6454 59.7221 70.9639 60.3124 69.2288 60.867C68.2091 57.3609 66.8675 53.7117 65.2039 49.973C66.8496 46.2522 68.1734 42.6209 69.1751 39.1327C70.9461 39.6872 72.6275 40.2954 74.2017 40.9573C80.5342 43.6584 84.6306 47.2003 84.6306 50.0088C84.6127 52.8172 80.5163 56.377 74.1838 59.0603Z" fill="#61DAFB"/>
<path d="M44.7038 58.1839C49.2187 58.1839 52.8787 54.5238 52.8787 50.0089C52.8787 45.494 49.2187 41.834 44.7038 41.834C40.1889 41.834 36.5288 45.494 36.5288 50.0089C36.5288 54.5238 40.1889 58.1839 44.7038 58.1839Z" fill="#61DAFB"/>
</g>
<defs>
<clipPath id="clip0_53_1621">
<rect width="87.76" height="100" fill="white" transform="translate(0.841797)"/>
</clipPath>
</defs>
</svg>
