<?xml version="1.0" encoding="UTF-8"?>
<svg id="Layer_2" data-name="Layer 2" xmlns="http://www.w3.org/2000/svg" viewBox="0 0 197.19 192.96">
  <g id="Layer_1-2" data-name="Layer 1">
    <g>
      <path d="m165.58,192.16c-8.28-4.17-11.39-13.67-12.36-22.48-.17-1.47-.55-3,0-4.37.45-1.46,1.91-2.35,3.41-2.07,1.16.35,1.81,1.55,2.57,2.5,1.01,1.28,2.37,2.25,3.91,2.79.97.43,2.08.36,3-.17,1.16-.88,1.06-2.64.84-4.1l-1.23-8.13c-.29-1.44-.35-2.92-.18-4.38.18-1.47,1.08-2.77,2.39-3.46,1.38-.63,3.01-.03,3.66,1.34.14.6.24,1.2.3,1.81.07.62.51,1.13,1.11,1.31.6.09,1.12-.41,1.5-.9,1.21-1.76,2.13-3.7,2.71-5.75.59-2.05,1.41-4.02,2.46-5.88,1.06-1.86,2.83-3.22,4.9-3.76,2.14-.48,4.32.56,5.3,2.52.82,2-.07,4.23-1.14,6.08-1.57,2.74-3.54,5.24-5.83,7.42-.46.35-.79.83-.95,1.38-.18,1,.88,1.85,1.88,2,1.15.08,2.31.04,3.46-.11,1.16-.12,2.3.37,3,1.3.81,1.4-.21,3.14-1.29,4.34-2.16,2.4-4.71,4.42-7.55,5.95-1.06.46-2.02,1.12-2.84,1.93-.83.86-1,2.16-.42,3.21.79.88,2.06,1.17,3.15.71,1.05-.47,2.05-1.03,3-1.68,1.89-1,4.49-1.28,6,.26.97,1.09,1.37,2.57,1.08,4-.3,1.41-.87,2.74-1.69,3.92-2.61,4.27-6.32,7.76-10.73,10.12-4.41,2.28-8.64,3.34-13.5,2.32" fill="#f5f5f5"/>
      <path d="m167.06,186.34c.76-4.99,1.81-9.93,3.15-14.79.34-1.29.68-2.57,1-3.83s.68-2.51,1.08-3.71c.78-2.3,1.69-4.56,2.72-6.76,1-2.11,2-4.07,2.9-5.9s1.87-3.52,2.77-5c1.41-2.39,3-4.65,4.78-6.78.62-.75,1.12-1.32,1.47-1.7l.4-.43.14-.14-.12.16-.38.45c-.33.39-.82,1-1.43,1.73-1.74,2.15-3.31,4.43-4.7,6.81-.88,1.5-1.79,3.19-2.73,5s-1.92,3.8-2.88,5.91c-1.02,2.2-1.92,4.45-2.69,6.74-.4,1.19-.73,2.43-1.07,3.69s-.68,2.54-1,3.83c-1.33,4.86-2.39,9.78-3.16,14.76" fill="#e0e0e0"/>
      <path d="m172.38,163.99c-.09-.19-.17-.4-.23-.6-.13-.39-.31-1-.52-1.67-.41-1.42-.92-3.4-1.47-5.59s-1.08-4.15-1.52-5.56c-.21-.7-.39-1.27-.52-1.66-.07-.2-.13-.41-.18-.62.12.18.21.38.28.58.16.38.37.94.6,1.64.49,1.4,1,3.37,1.6,5.56s1,4.1,1.4,5.6c.17.67.32,1.24.43,1.69.07.2.11.42.13.63Z" fill="#e0e0e0"/>
      <path d="m190.58,157.79c-.24.09-.48.16-.73.2-.48.11-1.16.27-2,.49-1.68.43-4,1.11-6.51,2s-4.75,1.75-6.36,2.43c-.8.34-1.45.63-1.89.83-.23.11-.47.21-.71.28.21-.14.43-.27.66-.38.44-.23,1.07-.54,1.87-.91,1.58-.73,3.82-1.64,6.35-2.51,2.15-.74,4.34-1.38,6.55-1.9.85-.2,1.54-.33,2-.41.25-.07.51-.11.77-.12Z" fill="#e0e0e0"/>
      <path d="m167.24,185.96s-.06-.07-.16-.21l-.42-.63c-.36-.55-.86-1.36-1.47-2.36-1.21-2-2.8-4.85-4.51-8s-3.27-6-4.43-8l-1.4-2.41-.37-.66-.12-.23s.07.06.17.21.25.37.41.63c.36.54.86,1.35,1.47,2.36,1.21,2,2.8,4.85,4.51,8s3.27,6,4.44,8l1.39,2.4.37.66c.05.07.09.15.12.24Z" fill="#e0e0e0"/>
      <path d="m190.95,174.35c-.07.06-.15.1-.24.14l-.68.35-2.54,1.24c-2.14,1.06-5.09,2.55-8.34,4.2s-6.21,3.11-8.37,4.12c-1.08.51-2,.91-2.58,1.17l-.71.3c-.08.04-.16.07-.25.09l.23-.14.69-.34,2.54-1.25c2.14-1,5.08-2.54,8.33-4.2s6.21-3.11,8.38-4.12c1.08-.51,2-.91,2.57-1.17l.71-.3c.08-.05.17-.08.26-.09Z" fill="#e0e0e0"/>
      <path d="m14.18,59.31l-4.55-9c-2.72,1.42-4.85,3.76-6,6.61-1.51,3.67-1.12,7.84,1.06,11.16.26.41.55.81.86,1.21h0l9.68-7.87-1.05-2.11Z" fill="#e0e0e0"/>
      <path d="m24.03,50.94c-3.35-2.67-7.87-3.35-11.86-1.79l-.36.14-.23.09-.66.31h0l4.55,9,1.07,2.12,12.09-3h0c-.21-.85-.52-1.68-.92-2.46-.89-1.72-2.14-3.23-3.68-4.41Z" fill="#ebebeb"/>
      <path d="m16.38,62.27l-9.69,7.87c4.35,5.35,12.21,6.16,17.56,1.82,3.76-3.06,5.42-8.02,4.23-12.73l-12.09,3" fill="#f5f5f5"/>
      <rect x="29.64" y="34.06" width="45.24" height="40.48" fill="#f5f5f5"/>
      <rect x="25.53" y="37.14" width="45.24" height="40.48" fill="#ebebeb"/>
      <path d="m164.91,17.6h14.15c0,7.81-6.34,14.15-14.15,14.15-7.81,0-14.15-6.34-14.15-14.15,0-7.68,6.14-13.96,13.82-14.14l.33,14.15Z" fill="#e0e0e0"/>
      <path d="m168.72,14.15L168.4,0c3.78,0,7.42,1.42,10.19,4,2.65,2.64,4.18,6.19,4.28,9.92l-14.15.23Z" fill="#f5f5f5"/>
      <path d="m40.96,109.2c.46-.63,1.01-1.19,1.62-1.67l-.39-2.09,3.22-1.38,1.25,1.71c.76-.11,1.52-.11,2.28,0l1.2-1.75,3.25,1.3-.33,2.09c.62.45,1.17.99,1.64,1.59l2.08-.39,1.39,3.22-1.71,1.25c.1.76.1,1.52,0,2.28l1.75,1.2-1.3,3.25-2.09-.33c-.45.62-.99,1.17-1.59,1.64l.39,2.08-3.22,1.39-1.25-1.71c-.76.1-1.52.1-2.28,0l-1.2,1.74-3.25-1.29.32-2.09c-.61-.45-1.16-.99-1.63-1.59l-2.08.38-1.39-3.21,1.71-1.25c-.1-.76-.1-1.52,0-2.28l-1.75-1.2,1.3-3.26,2.09.33-.03.04Zm3.5,3.61c-.77,1.93.17,4.12,2.1,4.89,1.93.77,4.12-.17,4.89-2.1s-.17-4.12-2.1-4.89c0,0,0,0,0,0-1.92-.77-4.11.16-4.88,2.09,0,0,0,0,0,.01Z" fill="none"/>
      <path d="m44.46,112.81c.01-.08.04-.16.07-.23.09-.21.21-.42.34-.61.85-1.23,2.35-1.83,3.82-1.55.68.13,1.31.43,1.83.89.57.51.98,1.17,1.18,1.91.43,1.64-.26,3.37-1.7,4.26-1.26.79-2.85.79-4.11,0-.5-.32-.93-.76-1.23-1.28-.45-.75-.61-1.62-.48-2.48.03-.23.09-.46.18-.67.02-.08.05-.15.1-.22-.08.3-.15.6-.19.9-.16,1.42.51,2.82,1.72,3.58.56.34,1.2.53,1.85.55.71.01,1.4-.18,2-.56,1.35-.84,1.99-2.46,1.59-4-.18-.7-.56-1.32-1.1-1.8-.49-.44-1.08-.74-1.72-.87-1.41-.27-2.84.28-3.71,1.42-.16.24-.31.5-.44.76Z" fill="#e0e0e0"/>
      <path d="m40.96,109.2h-.13l-.4-.05-1.57-.23h0c-.32.84-.75,1.93-1.27,3.26v-.07l1.75,1.19h0c-.1.75-.1,1.51,0,2.26h0l-1.71,1.26v-.11l1.39,3.22-.1-.06,2.08-.39h.06c.47.59,1.01,1.12,1.62,1.57h0v.07c-.1.64-.21,1.36-.33,2.09l-.06-.12,3.25,1.29h-.13l1.19-1.75h.07c.75.1,1.5.1,2.25,0h.07l.05.06,1.24,1.71h-.14l3.22-1.39-.07.13c-.13-.65-.26-1.36-.39-2.08v-.07h0c.59-.47,1.12-1.01,1.57-1.62h0l.12-.05h.52l.53.08,1,.16-.13.08c.44-1.1.87-2.19,1.29-3.26v.15l-1.75-1.2h-.06v-.07c.1-.75.1-1.51,0-2.26v-.07h.06l1.71-1.24v.13l-1.38-3.21.12.06-2.08.39h-.06c-.47-.6-1.01-1.13-1.62-1.58h-.05v-.06c.11-.72.23-1.41.33-2.09l.07.11-3.26-1.3h.11l-1.2,1.75h0c-.75-.1-1.51-.1-2.26,0h0c-.45-.63-.85-1.19-1.24-1.72h.09c-1.25.53-2.31,1-3.23,1.37v-.06c.14.84.27,1.52.37,2.09h0c-.45.35-.86.74-1.24,1.17l-.28.33-.09.1.08-.12c.08-.12.17-.23.26-.33.41-.45.87-.85,1.38-1.19h0c-.11-.56-.24-1.25-.4-2.08h0l3.21-1.4h0l1.25,1.7h-.07c.76-.1,1.54-.1,2.3,0h-.08l1.19-1.75v-.06h.07l3.26,1.28h.07v.08c-.1.68-.21,1.38-.32,2.09v-.1c.62.46,1.18,1,1.66,1.61h-.11l2.08-.39h.09v.08l1.38,3.21v.09l-.07.05-1.71,1.25v-.11c.11.77.11,1.54,0,2.31v-.11l1.74,1.2h.08v.09l-1.3,3.26v.09h-.1l-1-.16-.52-.08-.27-.05h-.26s-.11.05.12,0h0c-.47.62-1.01,1.18-1.62,1.66v-.12l.38,2.08v.09h-.09l-3.22,1.39h-.08l-.06-.07-1.24-1.71h.11c-.77.1-1.55.1-2.32,0h.11l-1.2,1.75v.07h-.08l-3.25-1.3h-.08v-.09c.11-.72.23-1.44.33-2.09v.1c-.62-.46-1.18-1-1.65-1.61h.1l-2.09.39h-.07v-.07c-.49-1.13-.95-2.2-1.38-3.22v-.06h.06l1.71-1.24v.07c-.1-.76-.1-1.54,0-2.3v.07l-1.74-1.21h0c.53-1.32,1-2.42,1.31-3.25h0l1.55.26.4.07.2-.09Z" fill="#e0e0e0"/>
      <path d="m44.46,112.81c.06-.14.12-.28.2-.42.23-.38.52-.72.86-1,.55-.46,1.23-.76,1.94-.86,2.06-.28,3.95,1.15,4.24,3.21.28,2.06-1.15,3.95-3.21,4.24-.28.04-.56.05-.85.02-.77-.07-1.5-.35-2.1-.83-.61-.5-1.06-1.18-1.27-1.95-.11-.39-.16-.8-.14-1.2,0-.21.03-.41.07-.61,0-.1,0-.2.07-.3v-.22h0s0,.08.08.11l.14-.06c-.08.15-.13.31-.17.47-.21.75-.16,1.56.14,2.28.77,1.9,2.94,2.82,4.85,2.05.23-.09.44-.2.64-.34.56-.37,1.01-.89,1.31-1.49.27-.57.4-1.2.38-1.83-.11-2.08-1.88-3.68-3.96-3.57-.82.04-1.61.35-2.24.89-.34.28-.63.62-.85,1-.08.14-.12.25-.16.32,0,.04,0,.07,0,.11v-.12c.04-.11.08-.22.14-.33.2-.42.48-.79.83-1.1,1.62-1.42,4.09-1.25,5.5.37.58.66.91,1.49.96,2.37.03.67-.1,1.34-.39,1.94-.66,1.33-2,2.19-3.49,2.23-.78.01-1.55-.2-2.21-.62-.68-.44-1.21-1.08-1.51-1.84-.32-.77-.37-1.63-.16-2.44.05-.18.12-.35.2-.52v-.09h.09c.09,0,.1.14.09.12v.31c-.02.09-.04.19-.06.28-.04.19-.07.38-.07.58-.02.38.03.76.13,1.12.39,1.45,1.65,2.5,3.15,2.62,1.96.16,3.68-1.3,3.84-3.26,0-.09.01-.19.01-.28-.02-2-1.66-3.6-3.66-3.58-.83,0-1.63.3-2.27.82-.35.28-.64.62-.87,1-.11.27-.21.42-.23.4Z" fill="#e0e0e0"/>
      <path d="m40.96,109.2l-2.12-.34h0c-.33.84-.78,2-1.32,3.32v-.06l1.78,1.23-.07.06v-.06h.1c-.1.76-.1,1.52,0,2.28h-.11v-.07l.08.07-1.76,1.28v-.07l1.44,3.33h-.08l2.15-.4v.14h-.09l.09-.11c.47.6,1.02,1.14,1.64,1.59l-.12.09v-.09h.15c-.1.66-.22,1.4-.34,2.16v-.09l3.4,1.36h-.1c.37-.55.8-1.18,1.24-1.81l.11.13h-.1v-.17c.76.1,1.52.1,2.28,0v.18h-.1l.11-.14,1.3,1.78h-.12l3.38-1.46-.06.11c-.13-.66-.27-1.4-.41-2.16h.2v.1l-.16-.12c.6-.47,1.14-1.02,1.6-1.64l.12.16-.11.05v-.2l2.18.34-.12.06c.42-1,.88-2.22,1.35-3.41v.13c-.55-.39-1.18-.81-1.81-1.25l.16-.13v.1h-.21c.1-.76.1-1.52,0-2.28h.21v.1l-.17-.13,1.78-1.3v.14l-1.45-3.36.12.06-2.15.41v-.22h.1l-.13.18c-.47-.6-1.03-1.13-1.64-1.58l.18-.14v.09h-.22c.1-.67.22-1.41.34-2.16l.07.13-3.39-1.34h.15c-.39.56-.81,1.18-1.23,1.8l-.15-.18h.07v.23c-.76-.1-1.52-.1-2.28,0v-.23h.07l-.14.18c-.41-.55-.84-1.15-1.29-1.75h.15l-3.29,1.44.07-.14.41,2.12h-.24l.18.13c-.51.41-.97.88-1.37,1.4l-.1.13h-.06s-.11-.12-.16-.07h0l.21-.25c.14-.17.29-.34.45-.5.31-.32.64-.61,1-.87v.11l-.38-2.1h.23v.06l-.16-.17,3.23-1.37v.22h-.07l.13-.18,1.26,1.75h-.11c.79-.11,1.59-.11,2.38,0h-.11l1.23-1.78.13.18h-.1v-.22l3.25,1.3-.14.17-.06-.1h.22c-.11.72-.23,1.44-.34,2.15v-.12c.65.47,1.23,1.04,1.72,1.68h-.11l2.14-.39v.21l-.11-.06.16-.14c.46,1.08.92,2.16,1.38,3.22h-.21v-.12l.17.12-1.76,1.28v-.11c.11.8.11,1.61,0,2.41l-.05-.1,1.8,1.23-.17.13v-.13h.21c-.45,1.11-.88,2.19-1.3,3.25l-.15-.13.12-.07v.2l-2.15-.34h.1c-.48.65-1.05,1.23-1.69,1.73v-.1l.4,2.14h-.19l.06-.11.13.14-3.22,1.38v-.18h.13l-.1.15-1.29-1.76h.09c-.8.11-1.6.11-2.4,0h.08l-1.23,1.8-.1-.14h.12v.16l-3.26-1.29.1-.12.06.1h-.15c.12-.79.23-1.47.34-2.14v.07c-.65-.47-1.22-1.03-1.71-1.66h.07l-2.14.4v-.13h.1l-.1.09-1.39-3.22h.12v.1l-.09-.07,1.74-1.27h0c-.11-.78-.11-1.58,0-2.36h0l-1.78-1.22h.06v.07h-.17c.57-1.41,1-2.46,1.29-3.25h0v-.05l2.09.32-.52-.05-1.58-.22h-.08.13v.07c-.3.8-.71,1.84-1.26,3.27v.11-.3l.1.07,1.78,1.2h0c-.09.78-.07,1.56.05,2.33h0l-1.74,1.28-.14.1v-.43l.07.16,1.4,3.21.08.19-.18-.1h-.09l-.18-.09h.2l2.13-.4h0c.48.62,1.05,1.17,1.69,1.63h0c-.1.67-.21,1.36-.33,2.15v.23l-.12-.2-.06-.11-.12-.2.22.08,3.26,1.29.23.09-.24.08h-.12l-.24.07.15-.2,1.22-1.8h.06c.78.11,1.57.11,2.35,0h.06c.42.56.84,1.14,1.29,1.76l.16.22-.26-.07h-.13l-.26-.07.25-.11,3.21-1.39.26-.11-.13.25-.06.12-.14.25-.05-.28-.4-2.15v-.06h0c.62-.49,1.17-1.06,1.64-1.7h.06l2.15.34.3.05-.26.15-.12.06-.26.15.11-.28c.42-1.06.85-2.14,1.3-3.25l.11-.29.09.3v.12l.09.3-.26-.18-1.79-1.23h-.06v-.06c.11-.78.11-1.57,0-2.35v-.07h.06l1.76-1.29.26-.19-.08.32v.12l-.08.31-.13-.3-1.38-3.21-.13-.3.29.15.11.06.29.15-.33.06-2.14.4h.1c-.48-.62-1.05-1.17-1.68-1.64h0v-.07c.11-.71.22-1.42.34-2.15l.05-.33.17.29v.1l.17.29-.31-.12-3.26-1.3-.31-.13.32-.1h.1l.33-.09-.2.28-1.22,1.78v.06h-.07c-.77-.1-1.55-.1-2.32,0h-.07v-.06c-.42-.58-.84-1.17-1.27-1.75l-.2-.28.33.09h.08l.33.09-.32.14-3.22,1.37-.32.13.17-.3h0l.17-.31.06.34c.12.7.25,1.4.38,2.11v.07l-.06.05c-.34.26-.65.55-.95.85-.15.16-.29.31-.43.48l-.21.26h0c0,.06-.19-.07-.16-.06h0s0-.05,0-.07c.01-.05.04-.09.07-.13l.1-.14c.41-.53.89-1.02,1.41-1.44l.35-.27-.16.41h0l-.15.41-.08-.42-.41-2.12v-.1h.09l3.29-1.43h.09l.06.08,1.28,1.75.26.35-.4-.17h-.07l-.39-.16.42-.07c.77-.1,1.56-.1,2.33,0h.43l-.39.18h-.07l-.39.18.24-.35c.42-.63.84-1.24,1.23-1.81v-.08h.09l3.39,1.34h.08v.1l-.34,2.16-.06.42-.16-.39v-.09l-.16-.39.34.25c.63.47,1.19,1.02,1.68,1.63l.26.33-.39-.15h-.1l-.39-.14.41-.08,2.16-.4h.09v.08l1.45,3.37v.08l-.08.06-1.78,1.29-.32.24.16-.37v-.1l.15-.37.06.39c.1.78.1,1.56,0,2.34v.4l-.17-.36v-.1l-.16-.36.32.22,1.82,1.25h.07v.08c-.48,1.19-.94,2.36-1.36,3.41v.08h-.09l-2.17-.35-.37-.06.34-.14h.11l.34-.14-.22.3c-.47.63-1.02,1.19-1.63,1.68l-.29.22.13-.34v-.11l.13-.34.06.36.4,2.17v.08h-.07c-1.19.5-2.34,1-3.38,1.45h-.07v-.07c-.45-.62-.9-1.23-1.29-1.78l-.2-.27.31.13h.1l.31.13h-.33c-.78.1-1.56.1-2.34,0h-.32l.3-.13h.09l.3-.14-.18.27-1.25,1.81h-.06l-3.4-1.36h-.06v-.06c.12-.76.24-1.51.34-2.17v-.28l.11.27v.08l.11.27-.23-.17c-.62-.47-1.18-1.01-1.66-1.63l-.16-.21.24.09h.09l.25.1h-.26l-2.15.39h-.06l-1.42-3.34h0l1.77-1.27.16-.12-.08.19v.06l-.08.19v-.2c-.1-.77-.1-1.55,0-2.32v-.18l.07.17v.06l.07.17-.15-.11-1.77-1.23h0c.55-1.36,1-2.47,1.35-3.3h0l1.58.28.4.08.04-.23Z" fill="#e0e0e0"/>
      <path d="m64.85,113.05c.2-.26.43-.49.68-.69l-.17-.88,1.37-.59.52.72c.33-.04.67-.04,1,0l.51-.74,1.37.55-.14.88c.26.2.5.42.7.68l.88-.17.58,1.37-.72.52c.05.33.05.67,0,1l.74.51-.59,1.32-.89-.14c-.19.26-.41.5-.67.7l.16.88-1.36.58-.53-.72c-.33.05-.67.05-1,0l-.51.74-1.38-.55.14-.88c-.26-.19-.49-.42-.69-.67l-.88.16-.59-1.36.72-.53c-.04-.33-.04-.67,0-1l-.74-.51.55-1.38.88.14.06.06Zm1.49,1.53c-.33.82.07,1.74.89,2.07.82.33,1.74-.07,2.07-.89.33-.82-.07-1.74-.89-2.07,0,0,0,0,0,0-.81-.33-1.73.07-2.06.88,0,0,0,0,0,.01Z" fill="#e0e0e0"/>
      <path d="m66.34,114.58c.04-.13.09-.25.17-.36.21-.3.52-.52.87-.62.24-.06.5-.06.74,0,.29.05.56.18.78.38.11.1.21.22.3.35.09.14.15.29.19.45.18.69-.1,1.42-.71,1.8-.14.09-.29.15-.45.19-.16.02-.31.02-.47,0-.29,0-.57-.09-.82-.25-.21-.14-.39-.32-.52-.54-.17-.3-.24-.65-.2-1,.02-.13.06-.26.12-.37-.03.12-.06.25-.08.38-.04.35.04.7.22,1,.13.2.3.38.5.51.24.15.51.23.79.23.15.02.29.02.44,0,.15-.04.29-.1.42-.19.28-.17.5-.43.62-.73.13-.32.15-.67.06-1-.04-.15-.1-.3-.19-.43-.07-.13-.17-.25-.28-.34-.66-.58-1.65-.51-2.23.14-.02.03-.05.06-.07.09-.07.1-.14.2-.2.31Z" fill="#e0e0e0"/>
      <path d="m64.85,113.05h-.17l-.66-.09h0c-.13.35-.32.81-.54,1.38h0l.74.5h0c-.05.33-.05.67,0,1h0l-.72.53h0l.59,1.36h0l.88-.16h0c.19.25.42.48.68.67h0l-.14.88h0l1.37.54h0l.51-.74h0c.33.05.67.05,1,0h0c.16.23.34.48.53.73h-.06l1.36-.58h0l-.17-.88h0c.25-.2.47-.42.66-.68h0l.88.14h0l.55-1.38v.05l-.74-.5h0c.04-.32.04-.63,0-.95h0l.73-.53v.05l-.58-1.36h0l-.89.16h0c-.2-.25-.43-.47-.69-.66h0l.14-.89v.05l-1.38-.56h0l-.51.74h0c-.33-.04-.67-.04-1,0h0l-.53-.72h0l-1.37.58h0l.16.88h0c-.19.15-.37.32-.53.5l-.12.14h0l.11-.14c.15-.19.33-.36.52-.51h0c0-.24-.1-.53-.17-.88h0l1.36-.59h0l.53.73h0c.33-.04.67-.04,1,0h0l.51-.74h0l1.38.54h0l-.14.88h0c.26.2.5.42.7.68h0l.88-.17h0l.58,1.36h0l-.72.53h0c.05.33.05.67,0,1h0l.74.51h0l-.54,1.38h0l-.89-.14h0c-.2.26-.43.5-.69.7h0l.17.88h0l-1.36.59h0l-.52-.72h0c-.33.04-.67.04-1,0h0l-.51.74h0l-1.37-.55h0c.05-.31.1-.61.14-.89h0c-.26-.19-.5-.42-.7-.68h0l-.88.17h0l-.58-1.36h0l.73-.52h0c-.04-.33-.04-.67,0-1h0l-.74-.51h0c.23-.56.41-1,.56-1.37h0l.66.11h.17l.09-.23Z" fill="#e0e0e0"/>
      <path d="m58.22,93.83c.32-.43.7-.82,1.13-1.15l-.28-1.48,2.28-1,.88,1.21c.54-.07,1.08-.07,1.62,0l.84-1.23,2.31.91-.24,1.48c.43.32.82.7,1.16,1.13l1.47-.28,1,2.28-1.21.88c.07.54.07,1.08,0,1.62l1.23.84-.92,2.3-1.47-.23c-.32.43-.7.82-1.13,1.16l.27,1.47-2.27,1-.88-1.21c-.54.08-1.08.08-1.62,0l-.85,1.24-2.3-.92.24-1.47c-.43-.32-.82-.7-1.16-1.13l-1.47.27-1-2.27,1.22-.88c-.07-.54-.07-1.08,0-1.62l-1.23-.85.91-2.3,1.48.23h-.01Zm2.48,2.56c-.54,1.36.12,2.91,1.49,3.45,1.36.54,2.91-.12,3.45-1.49s-.12-2.91-1.49-3.46c0,0,0,0,0,0-1.36-.54-2.9.12-3.44,1.48,0,0,0,0,0,.01h0Z" fill="#f5f5f5"/>
      <path d="m60.7,96.39c.06-.21.16-.41.29-.59.6-.87,1.66-1.3,2.7-1.1.48.1.92.31,1.29.63.2.17.36.38.5.6.15.23.26.48.33.75.31,1.16-.18,2.38-1.2,3-.23.15-.48.26-.75.33-.25.07-.52.09-.78.08-.49-.02-.96-.16-1.37-.42-.35-.24-.65-.55-.87-.91-.31-.52-.43-1.14-.34-1.74.03-.22.09-.43.2-.63-.07.21-.11.42-.14.63-.07.59.07,1.18.38,1.69.21.34.5.64.84.85.6.36,1.32.47,2,.31.25-.07.49-.17.71-.31.46-.3.81-.73,1-1.24.21-.51.24-1.07.1-1.6-.06-.25-.16-.49-.3-.71-.13-.22-.29-.41-.48-.57-.65-.59-1.56-.81-2.41-.58-.58.16-1.08.52-1.43,1-.1.17-.19.35-.27.53Z" fill="#f5f5f5"/>
      <path d="m58.22,93.83h-.37l-1.11-.16h0c-.24.59-.54,1.37-.91,2.31v-.05l1.24.84h0c-.07.53-.07,1.07,0,1.6h0l-1.2.88v-.06c.32.71.64,1.47,1,2.27h-.07l1.48-.27h0c.33.42.71.79,1.14,1.11h0l-.23,1.47v-.07l2.3.91h-.08l.84-1.24h0c.53.07,1.07.07,1.6,0h0l.88,1.21h-.09l2.27-1v.09c-.09-.47-.18-1-.28-1.48h0c.42-.33.79-.71,1.11-1.14h0l1.48.23h-.09l.92-2.31v.09l-1.24-.84h0c.08-.53.08-1.07,0-1.6h0l1.21-.88v.09c-.34-.78-.66-1.54-1-2.28h.08l-1.48.27h0c-.33-.42-.72-.8-1.15-1.12h0c.08-.51.16-1,.23-1.48v.07l-2.3-.92h.07l-.85,1.23h0c-.53-.07-1.07-.07-1.6,0h0l-.88-1.21h.06l-2.28,1h0c.1.59.19,1.07.26,1.47h0c-.32.25-.61.53-.88.83l-.19.23-.07.07.06-.08.18-.24c.26-.31.55-.6.87-.85h0c-.07-.4-.17-.88-.28-1.47h0l2.27-1h0l.88,1.2h0c.54-.07,1.09-.07,1.63,0h0c.27-.39.55-.8.84-1.24h0l2.31.91h0c-.08.48-.15,1-.23,1.48v-.06c.44.32.83.71,1.17,1.14h-.06l1.47-.28h0v.06l1,2.27h0l-1.21.88v-.07c.08.54.08,1.09,0,1.63v-.07l1.23.85h0v.06c-.3.76-.61,1.52-.91,2.3v.06h-.06l-1.48-.23h.08c-.33.44-.71.83-1.14,1.17v-.07l.28,1.47v.06h-.06l-2.27,1h-.06l-.88-1.21h.07c-.54.08-1.1.08-1.64,0h.07l-.85,1.23h0l-2.3-.92h-.05v-.06l.23-1.48v.07c-.44-.32-.83-.71-1.17-1.14h.06l-1.47.27h0c-.34-.8-.67-1.56-1-2.28h0l1.22-.87h0c-.07-.54-.07-1.08,0-1.62h0l-1.23-.85h0l.93-2.3h0l1.09.18h.28l.31-.06Z" fill="#f5f5f5"/>
      <path d="m141.84,129.33l19.2-2.93c1.64,10.62-5.65,20.55-16.26,22.18s-20.55-5.65-22.18-16.26c-1.64-10.62,5.65-20.55,16.26-22.18,1.69-.26,3.41-.3,5.11-.11l-2.13,19.3Z" fill="#f5f5f5"/>
      <path d="m148.07,110.09l-2.33,14.88,14.6-2.74s-2.14-8.34-12.27-12.14Z" fill="#e0e0e0"/>
      <path d="m191.21,192.44c0,.06-42.81.12-95.6.12s-95.61-.06-95.61-.12,42.8-.13,95.61-.13,95.6.06,95.6.13Z" fill="#263238"/>
      <rect x="113.84" y="25.46" width="83.13" height="72.15" fill="#fafbfb"/>
      <path d="m196.97,97.61V25.46l.1.11h-83.12l.12-.13v72.15l-.11-.1h77.13-77.25V25.11h83.35v70.95c0,.84-.22,1.55-.22,1.55Z" fill="#263238"/>
      <path d="m189.31,44.88h-67.82l.12-.12v33.31l-.12-.11h66-66.12v-33.54h67.93v.46Z" fill="#e0e0e0"/>
      <path d="m189.31,50.53c0,.07-15.18.12-33.9.12s-33.91,0-33.91-.12,15.18-.12,33.91-.12,33.9.02,33.9.12Z" fill="#e0e0e0"/>
      <path d="m189.31,55.08c0,.07-15.18.12-33.9.12s-33.91-.05-33.91-.12,15.18-.12,33.91-.12,33.9.05,33.9.12Z" fill="#e0e0e0"/>
      <path d="m189.31,59.67c0,.06-15.18.12-33.9.12s-33.91-.06-33.91-.12,15.18-.12,33.91-.12,33.9.05,33.9.12Z" fill="#e0e0e0"/>
      <path d="m189.31,64.26c0,.06-15.18.12-33.9.12s-33.91-.06-33.91-.12,15.18-.12,33.91-.12,33.9.05,33.9.12Z" fill="#e0e0e0"/>
      <path d="m189.31,68.84c0,.07-15.18.13-33.9.13s-33.91-.06-33.91-.13,15.18-.12,33.91-.12,33.9.06,33.9.12Z" fill="#e0e0e0"/>
      <path d="m121.5,73.43c0-.06,15.18-.12,33.9-.12s33.91.06,33.91.12-15.18.12-33.91.12-33.9-.02-33.9-.12Z" fill="#e0e0e0"/>
      <path d="m134.93,78.7c-.07,0-.12-7.57-.12-16.91s0-16.91.12-16.91.12,7.57.12,16.91-.05,16.91-.12,16.91Z" fill="#e0e0e0"/>
      <path d="m148.52,78.7c-.06,0-.12-7.57-.12-16.91s.06-16.91.12-16.91.12,7.57.12,16.91-.06,16.91-.12,16.91Z" fill="#e0e0e0"/>
      <path d="m162.12,78.7c-.07,0-.12-7.57-.12-16.91s0-16.91.12-16.91.12,7.57.12,16.91-.05,16.91-.12,16.91Z" fill="#e0e0e0"/>
      <path d="m175.71,78.7c-.06,0-.12-7.57-.12-16.91s.06-16.91.12-16.91.12,7.57.12,16.91-.05,16.91-.12,16.91Z" fill="#e0e0e0"/>
      <path d="m189.31,78.7c-.07,0-.12-7.57-.12-16.91s.05-16.91.12-16.91.12,7.57.12,16.91-.06,16.91-.12,16.91Z" fill="#e0e0e0"/>
      <path d="m189.31,50.53c-.16.15-.33.28-.51.4l-1.52,1.08c-1.35.92-3.29,2.26-5.7,3.93-4.84,3.32-11.62,7.93-19.33,13.14l-.1.07h-.11l-5.77-2-7.82-2.64h.21l-13.63,9.14h0l-9.83,3.4-2.7.9-.71.22c-.08.03-.16.05-.25.06l.23-.11.69-.27,2.67-1,9.78-3.55h0l13.56-9.22.1-.07h.11l7.82,2.64,5.77,1.95h-.21c7.72-5.2,14.53-9.76,19.43-13l5.77-3.81,1.57-1c.15-.1.31-.19.48-.26Z" fill="#cb1f46"/>
      <circle cx="134.93" cy="73.43" r=".83" fill="#e7515b"/>
      <path d="m149.35,64.26c0,.46-.37.83-.83.83s-.83-.37-.83-.83.37-.83.83-.83h0c.46,0,.83.37.83.83Z" fill="#e7515b"/>
      <path d="m162.95,68.77c0,.46-.37.83-.83.83s-.83-.37-.83-.83.37-.83.83-.83h0c.46,0,.83.37.83.83Z" fill="#e7515b"/>
      <path d="m176.68,59.71c0,.46-.37.83-.83.83s-.83-.37-.83-.83.37-.83.83-.83h0c.46,0,.83.37.83.83Z" fill="#e7515b"/>
      <path d="m189.31,73.43s-.1,0-.26-.14l-.72-.45-2.75-1.77-10-6.57h.21l-13.57,9.13-.19.12-.13-.18-7.15-9.63-6.44-8.72h.35l-13.63,13.73h0l-10.11,3.28-2.76.87-.72.22-.25.05.24-.1.7-.26,2.73-1,10-3.43h-.07l13.56-13.8.19-.2.16.22,6.46,8.71,7.14,9.64h-.32l13.62-9,.1-.07.11.07,9.88,6.7,2.69,1.86.69.5c.09.06.17.14.24.22Z" fill="#455b64"/>
      <path d="m149.35,55.08c0,.46-.37.83-.83.83s-.83-.37-.83-.83.37-.83.83-.83h0c.46,0,.83.37.83.83Z" fill="#455b64"/>
      <path d="m135.76,68.84c0,.46-.36.83-.82.84-.46,0-.83-.36-.84-.82,0-.46.36-.83.82-.84h.01c.45,0,.82.37.83.82Z" fill="#455b64"/>
      <path d="m162.95,73.43c0,.46-.36.83-.82.84-.46,0-.83-.36-.84-.82,0-.46.36-.83.82-.84h.01c.45,0,.82.37.83.82Z" fill="#455b64"/>
      <circle cx="175.72" cy="65.08" r=".83" fill="#455b64"/>
      <path d="m129.25,81.99c3.89.72,6.46,4.46,5.73,8.35s-4.46,6.46-8.35,5.73c-3.89-.72-6.46-4.46-5.73-8.35.63-3.39,3.59-5.85,7.04-5.85.44-.04.88,0,1.31.12Z" fill="#e0e0e0"/>
      <path d="m143.15,81.99c3.92.72,6.5,4.48,5.78,8.4-.72,3.92-4.48,6.5-8.4,5.78-3.92-.72-6.5-4.48-5.78-8.4.63-3.42,3.61-5.9,7.09-5.9.44-.04.88,0,1.31.12Z" fill="#e0e0e0"/>
      <path d="m157.04,81.99c3.89.72,6.46,4.46,5.73,8.35s-4.46,6.46-8.35,5.73c-3.89-.72-6.46-4.46-5.73-8.35.63-3.39,3.59-5.85,7.04-5.85.44-.04.88,0,1.31.12Z" fill="#e0e0e0"/>
      <path d="m170.94,81.99c3.92.72,6.5,4.48,5.78,8.4-.72,3.92-4.48,6.5-8.4,5.78-3.92-.72-6.5-4.48-5.78-8.4.63-3.42,3.61-5.9,7.09-5.9.44-.04.88,0,1.31.12Z" fill="#e0e0e0"/>
      <path d="m184.83,81.99c-.43.12-.87.16-1.31.12-.07.36-.41.6-.77.53-.36-.07-.6-.41-.53-.77s.41-.6.77-.53c.27.05.48.26.53.53.44-.04.88,0,1.31.12Z" fill="#e0e0e0"/>
      <path d="m119.58,78.01c2.55.59,4.15,3.13,3.56,5.68s-3.13,4.15-5.68,3.56c-2.55-.59-4.15-3.13-3.56-5.68.49-2.15,2.41-3.68,4.62-3.68.36-.04.72,0,1.06.12Z" fill="#e0e0e0"/>
      <path d="m119.58,72.67c-.7.16-1.42.16-2.12,0,.7-.16,1.42-.16,2.12,0Z" fill="#e0e0e0"/>
      <path d="m119.58,67.34c-.7.16-1.42.16-2.12,0,.7-.17,1.42-.17,2.12,0Z" fill="#e0e0e0"/>
      <path d="m119.58,62c2.55.59,4.15,3.13,3.56,5.68s-3.13,4.15-5.68,3.56c-2.55-.59-4.15-3.13-3.56-5.68.49-2.15,2.41-3.68,4.62-3.68.36-.04.72,0,1.06.12Z" fill="#e0e0e0"/>
      <path d="m119.58,56.66c-.7.16-1.42.16-2.12,0,.7-.16,1.42-.16,2.12,0Z" fill="#e0e0e0"/>
      <path d="m119.58,51.33c-.7.16-1.42.16-2.12,0,.7-.16,1.42-.16,2.12,0Z" fill="#e0e0e0"/>
      <path d="m119.58,45.99c2.55.59,4.15,3.13,3.56,5.68s-3.13,4.15-5.68,3.56c-2.55-.59-4.15-3.13-3.56-5.68.49-2.15,2.41-3.68,4.62-3.68.36-.04.72,0,1.06.12Z" fill="#e0e0e0"/>
      <rect x="121.16" y="33.34" width="19.48" height="1.38" fill="#f9bb1e"/>
      <path d="m175.42,37.38c0,.07-12.18.12-27.2.12s-27.2-.05-27.2-.12,12.17-.12,27.2-.12,27.2.05,27.2.12Z" fill="#263238"/>
      <path d="m155.58,88.65c0,.07-7.43.12-16.59.12s-16.58,0-16.58-.12,7.42-.12,16.58-.12,16.59.05,16.59.12Z" fill="#263238"/>
      <path d="m130.33,91.16c-2.36.16-4.72.16-7.08,0,2.36-.16,4.72-.16,7.08,0Z" fill="#263238"/>
      <path d="m185.58,88.21c0,.07-5.28.12-11.79.12s-11.8,0-11.8-.12,5.28-.12,11.8-.12,11.79.05,11.79.12Z" fill="#263238"/>
      <path d="m172.79,89.83c-2.46.16-4.92.16-7.38,0,2.46-.16,4.92-.16,7.38,0Z" fill="#263238"/>
      <rect x="22.44" y="40.71" width="45.24" height="40.48" fill="#fafbfb"/>
      <path d="m67.68,81.19v-11.14c0-7.07,0-17.18-.06-29.34l.11.1H22.49l.13-.12v40.47l-.11-.1h41.96H22.37v-40.7h45.47v39.85c0,.5-.16.98-.16.98Z" fill="#263238"/>
      <path d="m39.78,47.9c0,.07-2.38.12-5.32.12s-5.31,0-5.31-.12,2.38-.12,5.31-.12,5.32.05,5.32.12Z" fill="#263238"/>
      <path d="m58.95,50.94c0,.07-6.54.12-14.61.12s-14.61,0-14.61-.12,6.54-.12,14.61-.12,14.61.05,14.61.12Z" fill="#263238"/>
      <rect x="29.23" y="56.09" width="1.91" height="1.91" fill="#263238"/>
      <rect x="33.92" y="56.09" width="1.91" height="1.91" fill="#263238"/>
      <rect x="38.7" y="56" width="1.91" height="1.91" fill="#e7515b"/>
      <rect x="43.3" y="56.09" width="1.91" height="1.91" fill="#263238"/>
      <rect x="48" y="56.09" width="1.91" height="1.91" fill="#263238"/>
      <rect x="52.69" y="56.09" width="1.91" height="1.91" fill="#263238"/>
      <rect x="57.38" y="56.09" width="1.91" height="1.91" fill="#263238"/>
      <rect x="29.23" y="60.14" width="1.91" height="1.91" fill="#263238"/>
      <rect x="33.92" y="60.14" width="1.91" height="1.91" fill="#263238"/>
      <rect x="38.61" y="60.14" width="1.91" height="1.91" fill="#263238"/>
      <rect x="43.3" y="60.14" width="1.91" height="1.91" fill="#263238"/>
      <rect x="48" y="60.14" width="1.91" height="1.91" fill="#263238"/>
      <rect x="52.77" y="60.05" width="1.91" height="1.91" fill="#e7515b"/>
      <rect x="57.38" y="60.14" width="1.91" height="1.91" fill="#263238"/>
      <rect x="29.23" y="64.19" width="1.91" height="1.91" fill="#263238"/>
      <rect x="34.01" y="64.1" width="1.91" height="1.91" fill="#e7515b"/>
      <rect x="38.61" y="64.19" width="1.91" height="1.91" fill="#263238"/>
      <rect x="43.3" y="64.19" width="1.91" height="1.91" fill="#263238"/>
      <rect x="48" y="64.19" width="1.91" height="1.91" fill="#263238"/>
      <rect x="52.69" y="64.19" width="1.91" height="1.91" fill="#263238"/>
      <rect x="57.38" y="64.19" width="1.91" height="1.91" fill="#263238"/>
      <rect x="29.23" y="68.24" width="1.91" height="1.91" fill="#263238"/>
      <rect x="33.92" y="68.24" width="1.91" height="1.91" fill="#263238"/>
      <rect x="38.61" y="68.24" width="1.91" height="1.91" fill="#263238"/>
      <rect x="43.39" y="68.16" width="1.91" height="1.91" fill="#e7515b"/>
      <rect x="48" y="68.24" width="1.91" height="1.91" fill="#263238"/>
      <rect x="52.69" y="68.24" width="1.91" height="1.91" fill="#263238"/>
      <rect x="57.38" y="68.24" width="1.91" height="1.91" fill="#263238"/>
      <rect x="29.23" y="72.3" width="1.91" height="1.91" fill="#263238"/>
      <rect x="33.92" y="72.3" width="1.91" height="1.91" fill="#263238"/>
      <rect x="38.61" y="72.3" width="1.91" height="1.91" fill="#263238"/>
      <rect x="43.3" y="72.3" width="1.91" height="1.91" fill="#263238"/>
      <rect x="48" y="72.3" width="1.91" height="1.91" fill="#263238"/>
      <rect x="52.77" y="72.21" width="1.91" height="1.91" fill="#e7515b"/>
      <rect x="57.38" y="72.3" width="1.91" height="1.91" fill="#263238"/>
      <path d="m65.29,24.53v-2.43l-.05-6.22.11.1h-6.87l.12-.12h0v8.59l-.1-.1,5,.06h1.92-1.85l-5,.05h-.1v.07-8.59h0c-.11.1.14-.15.12-.13h6.97v8.62l-.27.1Z" fill="#263238"/>
      <path d="m74.39,24.53s0-.07,0-.11v-6.01c0-3.81,0-9.12-.06-15.22l.12.11h-6.42l.12-.12h0v21.32l-.08-.07h5.97-6.07v.1V3.21h0l.12-.13h6.54v21.37c-.06.07-.15.1-.24.08Z" fill="#263238"/>
      <path d="m83.74,24.53c0-.09,0-.17,0-.26v-3.41c0-2.3,0-5.52-.06-9.27l.12.12h-6.48l.12-.12h0v12.91l-.09-.09,4.71.05h1.77c-.15.02-.29.02-.44,0h-6.13v.07-12.91h0c-.11.1.14-.15.12-.13h6.59v12.82c-.07.08-.15.15-.23.22Z" fill="#263238"/>
      <path d="m93.27,24.53s0-.06,0-.09v-5.14c0-3.3,0-7.9-.06-13.22l.12.12h-6.76c.24-.24.07-.06.12-.11h0v18.44l-.09-.08,4.94.05h1.34-1.32l-5,.05h-.08V6.06h0c.06-.06-.12.11.12-.13h6.88v18.24c-.2.25-.21.36-.21.36Z" fill="#263238"/>
      <path d="m95.96,150c.73,1.7,3.76,41.23,3.43,40.63l7.64-.51.5-41-11.57.88Z" fill="#fbbd9d"/>
      <path d="m107.26,190.53v-.7l-8.14.15v2.33h.5c2.24.06,11.39.2,12.87-.2,1.69-.44-5.23-1.58-5.23-1.58Z" fill="#e7515b"/>
      <g fill="none" opacity=".3">
        <path d="m102.09,192.19c-.16-.59-.55-1.1-1.08-1.4-.57-.35-1.23-.51-1.9-.45v1.85h2.98Z"/>
      </g>
      <g fill="none" opacity=".3">
        <path d="m110.64,191.18s2.43.53,2.14.86-9.54.48-13.63.25v-.15l10.79-.1s.23-.84.7-.86Z"/>
      </g>
      <path d="m99.03,192.14h6.88c1.87,0,3.62-.08,4.86-.14l1.47-.07h.4-1.87c-1.25,0-3,.09-4.86.12s-3.62,0-4.86,0h-2l-.02.09Z" fill="#263238"/>
      <path d="m109.95,192.15c.06-.2.15-.4.26-.58.15-.17.31-.33.49-.47-.24.07-.44.22-.57.43-.15.17-.21.4-.18.62Z" fill="#263238"/>
      <path d="m107.58,191.19s.14-.1.25-.26.19-.29.17-.3-.14.11-.25.26-.24.29-.17.3Z" fill="#263238"/>
      <path d="m106.87,190.92c.1-.03.2-.09.28-.16.14-.11.24-.21.22-.22s-.15,0-.28.16-.24.2-.22.22Z" fill="#263238"/>
      <path d="m106.44,190.3c.14.02.28.02.42,0,.14.02.29.02.43,0-.14-.03-.29-.03-.43,0-.14-.02-.28-.02-.42,0Z" fill="#263238"/>
      <path d="m106.29,189.86c.15.07.31.11.47.1.17.02.34,0,.49-.06h-.48c-.16-.02-.32-.04-.48-.04Z" fill="#263238"/>
      <path d="m107.79,190.61c.18.02.35.02.53,0,.19-.03.37-.06.55-.11.11-.03.21-.07.31-.11.06-.03.11-.08.13-.14,0-.06,0-.13-.09-.17-.41-.16-.86-.06-1.17.25-.08.08-.13.18-.16.29v.11c.05-.14.12-.26.22-.37.13-.11.28-.2.44-.24.2-.07.42-.07.62,0,.09,0,.06.12,0,.17-.09.05-.19.08-.29.11-.18.05-.36.09-.54.12-.35.07-.55.07-.55.09Z" fill="#263238"/>
      <path d="m107.93,190.63c.06-.09.08-.2.05-.3-.02-.12-.07-.22-.15-.31-.11-.13-.27-.21-.44-.21-.09,0-.16.09-.15.19,0,0,0,0,0,.01.01.07.04.14.09.19.07.09.16.18.25.25.09.08.19.14.31.17,0,0-.11-.07-.26-.21-.08-.07-.16-.16-.22-.25-.07-.09-.13-.25,0-.27.13,0,.26.07.35.17.07.08.12.18.15.28.02.1.02.19.02.29Z" fill="#263238"/>
      <path d="m99.15,190.32h.6c.47.04.92.18,1.32.42.36.23.65.55.84.93.06.15.11.31.16.47v-.13c-.02-.12-.05-.24-.1-.36-.17-.41-.46-.76-.84-1-.42-.25-.89-.39-1.38-.41-.15-.02-.29-.02-.44,0-.06.02-.11.05-.16.08Z" fill="#263238"/>
      <path d="m103.09,191.53c.79.11,1.58.11,2.37,0h-2.37Z" fill="#263238"/>
      <path d="m101.5,191.53s0,.09.1.19.09.18.12.18,0-.1,0-.22-.2-.15-.22-.15Z" fill="#263238"/>
      <path d="m100.89,190.95s0,.08.12.15c.05.05.12.09.19.1,0,0,0-.09-.12-.16s-.17-.11-.19-.09Z" fill="#263238"/>
      <path d="m100.02,190.68s.12,0,.24.06.2.08.22.06,0-.1-.19-.14-.28,0-.27.02Z" fill="#263238"/>
      <path d="m99.41,190.53s0,.06.11.08.13,0,.14,0,0-.06-.11-.08-.13,0-.14,0Z" fill="#263238"/>
      <path d="m81.21,150.19c.21.75,4.21,40.72,4.21,40.72l7.64-.5.5-40.22h-12.35Z" fill="#fbbd9d"/>
      <path d="m93.29,190.8v-.71l-8.14.15v2.33h.5c2.24.07,11.39.2,12.87-.19,1.69-.43-5.23-1.58-5.23-1.58Z" fill="#e7515b"/>
      <g fill="none" opacity=".3">
        <path d="m88.12,192.47c-.16-.59-.55-1.09-1.08-1.39-.57-.35-1.23-.51-1.9-.46v1.86h2.98Z"/>
      </g>
      <g fill="none" opacity=".3">
        <path d="m96.67,191.46s2.43.53,2.14.86-9.54.48-13.63.25v-.14l10.79-.1s.23-.8.7-.87Z"/>
      </g>
      <path d="m85.06,192.42h6.88c1.86,0,3.62-.09,4.86-.14l1.47-.08h.54-2.01c-1.25,0-3,.09-4.86.12s-3.62,0-4.86,0h-2l-.02.1Z" fill="#263238"/>
      <path d="m95.98,192.43c.06-.2.15-.4.26-.58.15-.17.31-.33.49-.47-.23.07-.44.23-.57.43-.15.17-.21.4-.18.62Z" fill="#263238"/>
      <path d="m93.58,191.53s.13-.11.24-.26.19-.29.17-.3-.14.1-.25.26-.16.23-.16.3Z" fill="#263238"/>
      <path d="m92.9,191.2s.15-.05.28-.16.24-.2.22-.22c-.1.03-.2.09-.28.16-.14.11-.24.21-.22.22Z" fill="#263238"/>
      <path d="m92.47,190.58c.14.03.29.03.43,0,.14.02.28.02.42,0h-.43c-.14-.02-.28-.02-.42,0Z" fill="#263238"/>
      <path d="m92.32,190.14c.14.08.31.12.47.11.17.02.33,0,.49-.06-.16-.02-.32-.02-.48,0-.16-.03-.32-.04-.48-.05Z" fill="#263238"/>
      <path d="m93.83,190.89c.17.03.35.03.52,0,.19-.02.37-.06.55-.11.11-.02.21-.06.31-.11.06-.03.1-.07.13-.13.02-.07-.02-.14-.09-.17-.4-.17-.87-.07-1.17.24-.08.08-.13.18-.16.29v.12c.04-.14.12-.27.22-.37.12-.12.28-.2.44-.24.2-.07.42-.07.62,0,.09,0,.06.13,0,.18l-.29.1c-.18.05-.36.1-.54.13-.35.06-.55.06-.54.07Z" fill="#263238"/>
      <path d="m93.96,190.91s.08-.1,0-.3c-.02-.11-.07-.22-.15-.3-.1-.14-.27-.22-.44-.22-.09,0-.16.09-.15.19,0,0,0,0,0,.01.01.07.04.14.09.19.07.1.16.18.25.26.09.08.2.13.31.17,0,0-.11-.08-.26-.21-.08-.08-.15-.16-.22-.25-.07-.09-.13-.25,0-.28.14.01.26.08.35.18.07.08.12.17.15.27.03.09.06.19.07.29Z" fill="#263238"/>
      <path d="m85.18,190.61c.2-.01.4-.01.6,0,.47.04.92.18,1.32.42.36.23.65.55.84.93.13.29.14.48.16.48s0-.05,0-.14c-.02-.12-.05-.24-.1-.35-.16-.42-.46-.77-.84-1-.42-.25-.89-.39-1.38-.41-.15-.01-.29-.01-.44,0l-.16.07Z" fill="#263238"/>
      <path d="m89.12,191.81c.79.12,1.58.12,2.37,0h-1.19c-.66,0-1.18-.02-1.18,0Z" fill="#263238"/>
      <path d="m87.58,191.83s0,.09.1.19.09.19.12.19,0-.11,0-.22-.22-.17-.22-.16Z" fill="#263238"/>
      <path d="m86.92,191.23s0,.09.12.16.17.11.19.09,0-.08-.12-.15-.17-.11-.19-.1Z" fill="#263238"/>
      <path d="m86.05,190.97c.08,0,.16,0,.24,0,.07.03.15.05.22.07,0,0,0-.11-.19-.15s-.28.06-.27.08Z" fill="#263238"/>
      <path d="m85.44,190.85l.11.07c.11.07.13,0,.14,0s0-.05-.11-.07-.13-.02-.14,0Z" fill="#263238"/>
      <path d="m126.92,79.53h0c1.54-1,2.5-1.83,3.54-2.42,1.29-.74,1.76-1.14,1.61-1.37s-.11-.2-2.64.81c0,0,3.6-1.47,2.57-1.76-.46-.13-3.46,1.06-3.46,1.06,2.5-.74,3.32-1.41,3.19-1.78-.19-.54-3.82.93-3.82.93,1.1-.41,2.17-.87,3.22-1.4.43-.34-.21-.48-.78-.45s-4.31.82-5.38,1c-.34.1-.69-.1-.79-.44,0-.03-.02-.07-.02-.1.08-1.13-.34-2.25-1.13-3.06-.37-.24-.82.2-.64.66.16.51.24,1.04.25,1.57.03.42-.02.85-.13,1.26-.14.48-.28.87-.4,1.21l-7.11,11.12,3.08,7.61,8.84-14.45Z" fill="#fbbd9d"/>
      <path d="m127.92,77.2c.61-.12,1.21-.33,1.76-.62.59-.21,1.15-.49,1.67-.84-.61.13-1.2.33-1.76.62-.59.21-1.15.49-1.67.84Z" fill="#ec996f"/>
      <path d="m127.43,76.27c.66-.1,1.31-.28,1.92-.55.64-.18,1.26-.45,1.83-.79-.66.11-1.3.3-1.92.56-.64.18-1.25.45-1.83.78Z" fill="#ec996f"/>
      <path d="m126.93,75.3c.63-.08,1.24-.24,1.82-.49.61-.17,1.19-.41,1.74-.73-.63.09-1.24.26-1.82.5-.61.17-1.19.41-1.74.72Z" fill="#ec996f"/>
      <path d="m106.88,67.93v17l.09,12.22-19,6.24.19-9.3s-3.92-12.26-3.92-12.46-.37-13.35-.37-13.35l7-1.7,8.8-.11,7.21,1.46Z" fill="#199ed9"/>
      <path d="m83.91,68.27c-1.21.52-2.37,1.16-3.47,1.9-.67.55-6.49,11-10.29,17.87-1.74,3.15-.59,7.11,2.55,8.85.1.05.2.11.3.15l10.88,5.32,3.29-9.13-6.23-3.37,4.71-8.19-1.74-13.38" fill="#199ed9"/>
      <polygon points="83.89 102.33 79.83 102.04 79.83 98.64 85.76 97.14 83.89 102.33" fill="#199ed9"/>
      <path d="m79.86,89.69c.66.07,1.34.07,2,0,.67-.07,1.3-.36,1.78-.82.57-.74.89-1.63.93-2.56.22-1.58.44-3.15.67-4.73-1.62.22-3,1.28-3.64,2.78-.61,1.49-.95,3.07-1,4.68" fill="#199ed9"/>
      <path d="m106.88,67.93l7.65,17.37,4.91-6.74s5,2.46,4.41,9.6l-6,8.09c-2.39,1.89-5.86,1.48-7.75-.91-.17-.21-.32-.44-.46-.68l-5.36-9.36,2.6-17.37Z" fill="#199ed9"/>
      <path d="m87.58,67.38c-.08,0,11,12.35,11,12.35l2.28-13c-4.41-.92-8.98-.7-13.28.65Z" fill="#fbbd9d"/>
      <path d="m106.97,88.71s-.08-.06-.22-.19l-.61-.59c-.52-.51-1.26-1.26-2.16-2.21-1.81-1.88-4.26-4.53-6.91-7.51l-6.77-7.63-2-2.31-.56-.63c-.07-.08-.13-.16-.18-.24l.22.2.59.61c.5.52,1.22,1.3,2.1,2.26,1.77,1.92,4.18,4.61,6.83,7.58s5.07,5.65,6.85,7.56c.88.93,1.59,1.7,2.11,2.26l.57.61.14.23Z" fill="#263238"/>
      <path d="m87.66,92.38c-.09-.18-.16-.38-.2-.58-.13-.43-.29-1-.47-1.61-.4-1.37-1-3.24-1.63-5.31s-1.18-4-1.52-5.34c-.17-.7-.3-1.26-.37-1.65-.06-.2-.09-.4-.1-.61.08.19.15.39.19.59.12.43.27,1,.44,1.62.38,1.37.95,3.25,1.59,5.32s1.2,4,1.56,5.33c.18.69.32,1.25.4,1.64.06.19.1.4.11.6Z" fill="#263238"/>
      <path d="m75.84,88.83v-.26c.06-.24.2-.45.4-.59.28-.22.64-.32,1-.28.42.06.83.21,1.19.44,1.49.91,2.81,1.42,2.79,1.49-1.04-.26-2.02-.69-2.91-1.28-.33-.21-.7-.35-1.09-.43-.31-.04-.63.03-.89.2-.18.11-.32.27-.4.47-.06.14-.06.24-.09.24Z" fill="#263238"/>
      <path d="m84.8,92.07s-.42.46-1.07,1.24c-.84,1.02-1.57,2.12-2.17,3.3-.6,1.18-1.06,2.42-1.38,3.7-.24,1-.33,1.61-.37,1.61-.02-.15-.02-.3,0-.45.04-.4.1-.8.18-1.2.28-1.31.73-2.58,1.33-3.77.61-1.19,1.37-2.3,2.26-3.3.27-.3.56-.59.86-.86.23-.19.35-.29.36-.27Z" fill="#263238"/>
      <path d="m106.25,72.26c.09.22.15.44.2.67.12.43.28,1.06.46,1.85.51,2.04.79,4.14.84,6.24-.03,2.1-.27,4.2-.7,6.26-.15.79-.29,1.42-.39,1.86-.04.23-.11.46-.19.68.02-.23.05-.47.09-.7.09-.48.19-1.11.32-1.87.38-2.06.59-4.14.63-6.23-.06-2.09-.31-4.17-.76-6.21-.16-.75-.29-1.38-.39-1.86-.06-.23-.1-.46-.11-.69Z" fill="#263238"/>
      <path d="m114.37,90.86c-.08-.84-.08-1.7,0-2.54.02-.84.12-1.68.29-2.51.09.84.09,1.69,0,2.53-.02.85-.12,1.69-.29,2.52Z" fill="#263238"/>
      <path d="m116.58,90.65c-.49-.91-.9-1.85-1.24-2.82-.41-.94-.74-1.92-1-2.91.49.91.9,1.85,1.24,2.82.41.94.75,1.91,1,2.91Z" fill="#263238"/>
      <path d="m120.58,92.62v-1.65c-.03-1.32-.32-2.62-.85-3.83-.55-1.2-1.29-2.31-2.19-3.27-.69-.75-1.17-1.16-1.14-1.2.13.07.25.16.36.26.32.26.62.53.9.82.96.95,1.74,2.06,2.3,3.29.53,1.24.81,2.58.8,3.93,0,.4-.03.81-.09,1.21-.02.15-.05.3-.09.44Z" fill="#263238"/>
      <path d="m91.07,71.74s-.18-.09-.51-.23c-.48-.19-.99-.28-1.5-.26-.75.02-1.48.29-2.07.75-.65.68-1.24,1.41-1.76,2.18-.32.39-.73.71-1.2.91-.45.16-.93.22-1.4.16-.78-.11-1.52-.42-2.14-.92-.41-.33-.79-.68-1.15-1.06-.13.09-.31.06-.4-.07-.09-.13-.06-.31.07-.4.13-.09.31-.06.4.07.07.1.07.23,0,.33.37.36.77.69,1.18,1,.6.46,1.32.75,2.07.84.43.05.87,0,1.28-.16.43-.19.81-.48,1.11-.85.53-.78,1.13-1.52,1.8-2.19,1.07-.82,2.51-.98,3.74-.41.13.06.26.14.37.23.08.04.12.08.11.08Z" fill="#fafbfb"/>
      <path d="m84.24,87.39l-.13.05c-.12.05-.26.07-.39.07-.5.02-.99-.13-1.4-.42-.61-.42-1.08-1-1.38-1.68-.35-.74-.57-1.61-.91-2.46-.31-.8-.81-1.52-1.45-2.1-.53-.46-1.13-.83-1.79-1.08-.62-.21-1.26-.35-1.91-.4.18-.03.35-.03.53,0,.49.02.98.11,1.44.27.69.24,1.33.61,1.88,1.08.68.59,1.2,1.33,1.52,2.17.35.88.56,1.74.9,2.46.27.65.71,1.21,1.27,1.63.38.28.83.45,1.3.47.33-.02.52-.09.52-.06Z" fill="#fafbfb"/>
      <path d="m72.93,97.08c.16-.02.32-.06.47-.1.4-.18.72-.5.9-.9.27-.6.47-1.24.57-1.89.12-.82.35-1.61.69-2.37.2-.38.47-.72.8-1,.3-.26.64-.47,1-.63.64-.25,1.32-.36,2-.33.45,0,.91.06,1.35.15.16.03.32.07.48.13,0,0-.7-.11-1.83-.11-.66,0-1.31.12-1.92.37-.74.3-1.34.86-1.7,1.57-.32.74-.56,1.51-.7,2.31-.11.67-.32,1.32-.63,1.92-.21.42-.57.74-1,.91-.12.03-.25.03-.37,0-.07-.01-.11-.02-.11-.03Z" fill="#fafbfb"/>
      <path d="m85.81,97.17c-.92.04-1.83.16-2.73.37-.88.29-1.73.66-2.54,1.1,1.45-1.26,3.38-1.8,5.27-1.47Z" fill="#fafbfb"/>
      <path d="m97.86,79.27c-.18.08-.36.16-.55.22-.48.22-.93.49-1.35.82-.62.5-1.21,1.03-1.77,1.59-.69.7-1.48,1.3-2.34,1.77-.9.45-1.92.6-2.91.43-.79-.14-1.56-.38-2.29-.73-.62-.29-1.1-.56-1.43-.75-.17-.1-.34-.21-.49-.33,0,0,.75.38,2,.92.72.32,1.47.54,2.25.67.94.15,1.91,0,2.77-.42.84-.47,1.62-1.05,2.3-1.73.57-.56,1.18-1.08,1.81-1.56.44-.32.92-.58,1.43-.77.18-.07.38-.11.57-.13Z" fill="#fafbfb"/>
      <path d="m107.8,81.13c0,.08-1.69,0-3.73.33s-3.65.83-3.67.76c.31-.18.65-.32,1-.41,1.71-.53,3.48-.79,5.27-.78.38-.01.76.02,1.13.1Z" fill="#fafbfb"/>
      <path d="m106.58,74.9c-.34-.05-.68-.13-1-.25l-2.42-.7-2.42-.72c-.35-.07-.68-.19-1-.34.34.01.68.07,1,.18.63.14,1.5.37,2.45.65s1.79.55,2.4.77c.35.09.68.23.99.41Z" fill="#fafbfb"/>
      <path d="m110.05,75.87c0,.06-.66.35-1.4.87s-1.25,1.06-1.3,1c.27-.5.67-.92,1.16-1.22.45-.35.98-.58,1.54-.65Z" fill="#fafbfb"/>
      <path d="m114.19,84.31s0,.14-.06.37c-.1.32-.23.63-.4.93-.56.97-1.35,1.79-2.3,2.39-.94.59-1.95,1.07-3,1.43-.43.18-.87.31-1.32.39.41-.21.83-.4,1.26-.55,1.02-.4,1.99-.89,2.92-1.47.92-.58,1.7-1.36,2.29-2.27.44-.72.57-1.23.61-1.22Z" fill="#fafbfb"/>
      <path d="m115.49,97.59c-.12-.5-.19-1.01-.23-1.52-.1-.94-.21-2.25-.27-3.69s-.08-2.75-.06-3.7c-.01-.51.02-1.02.1-1.53.06.51.08,1.02.08,1.53,0,.94,0,2.25.12,3.69s.14,2.74.2,3.68c.06.51.08,1.03.06,1.54Z" fill="#fafbfb"/>
      <path d="m123.58,84.03c-1.08-.59-2.22-1.06-3.4-1.39-1.2-.25-2.43-.37-3.66-.35.35-.1.72-.15,1.09-.15.88-.04,1.77.05,2.63.26.86.21,1.69.55,2.46,1,.32.16.62.38.88.63Z" fill="#fafbfb"/>
      <path d="m126.38,77.94s-.15-.11-.41-.25c-.34-.19-.72-.28-1.11-.26h-.18l.07-.17c0-.14.09-.28.13-.42.13-.69.11-1.41-.07-2.09,0,0,.17.19.28.58.14.51.14,1.05,0,1.56-.03.16-.09.31-.15.46l-.11-.17c.43-.02.85.11,1.2.37.28.2.37.37.35.39Z" fill="#ec996f"/>
      <path d="m88.85,93.53l-.07.69s-8.53,10.31-9.22,17.4c-.57,5.85,1,50.25,1,50.25l28-3.13-1.25-64.52-18.46-.69Z" fill="#363535"/>
      <path d="m100.98,103.27v.57l-.05,1.66c0,1.43-.15,3.5-.27,6.07-.26,5.12-.69,12.2-1.25,20s-1.12,14.87-1.55,20c-.22,2.54-.4,4.6-.53,6-.06.7-.12,1.25-.15,1.65v.42c0,.1,0,.15,0,.15v-.58c0-.39.06-.94.11-1.65.11-1.44.26-3.51.45-6.06.38-5.13.9-12.19,1.48-20s1-14.88,1.32-20c.14-2.55.26-4.62.34-6.07,0-.7.08-1.26.1-1.65v-.43s0-.08,0-.08Z" fill="#455b64"/>
      <path d="m96.97,115.81c-.17.15-.3.35-.36.57-.05.23,0,.47.14.66.19.21.48.29.75.19.27-.06.48-.29.52-.57.02-.23-.07-.46-.24-.62-.17-.15-.38-.26-.6-.29h.19c.2,0,.38.08.53.21.22.19.35.48.34.77-.13.54-.66.87-1.2.75-.18-.04-.34-.13-.47-.26-.16-.25-.21-.56-.12-.84.05-.19.17-.35.33-.46.11-.12.19-.12.19-.11Z" fill="#455b64"/>
      <path d="m96.13,126.12c-.17.15-.3.34-.36.56-.05.23,0,.47.14.66.18.22.48.3.75.2.27-.07.48-.29.52-.57.02-.23-.07-.46-.24-.63-.17-.15-.38-.25-.61-.28h.2c.2,0,.38.08.53.21.23.19.35.47.34.77-.04.38-.31.69-.68.78-.36.12-.76,0-1-.29-.16-.25-.21-.56-.12-.84.05-.19.16-.35.32-.46.13-.12.21-.12.21-.11Z" fill="#455b64"/>
      <path d="m95.11,136.08c-.17.15-.3.35-.36.57-.05.23,0,.47.14.66.19.21.48.29.75.19.28-.06.49-.29.52-.57.02-.23-.07-.46-.24-.62-.17-.15-.38-.26-.6-.29h.2c.19,0,.38.08.52.21.22.19.35.47.35.77-.05.38-.31.69-.68.79-.36.12-.76,0-1-.3-.16-.25-.21-.56-.12-.84.05-.19.17-.35.33-.46.11-.12.19-.12.19-.11Z" fill="#455b64"/>
      <path d="m94.29,147.53s-.27.15-.35.57c-.06.23,0,.47.13.66.19.21.48.29.75.2.27-.07.48-.29.52-.57.02-.24-.07-.47-.24-.63-.17-.15-.38-.25-.6-.29,0,0,.06-.05.2-.05.19.01.37.09.52.21.23.19.36.48.35.78-.05.37-.32.68-.68.78-.36.12-.76,0-1-.3-.16-.25-.2-.55-.12-.83.05-.19.17-.35.33-.46.11-.07.19-.13.19-.07Z" fill="#455b64"/>
      <path d="m106.11,57.8c0,.06,0,.23-.24.43-.34.29-.75.46-1.19.5-.69.07-1.38-.14-1.91-.59-.67-.56-1.04-1.4-1-2.27.08-.76.33-1.49.72-2.14.26-.51.55-.99.88-1.46.56-.8,1-1.22,1.14-1.14s0,.67-.39,1.54l-.62,1.53c-.27.54-.45,1.13-.52,1.73-.02.51.18,1.01.54,1.38.31.31.71.51,1.15.56.8.1,1.33-.21,1.44-.07Z" fill="#263238"/>
      <path d="m90.09,45.87c1.27-.5,2.04-1.8,1.87-3.16-.22-1.34-1.16-2.44-2.44-2.89-1.28-.41-2.66-.28-3.85.34-1.11.55-1.99,1.5-2.45,2.65-.45,1.17-.32,2.48.36,3.53.98,1.3,2.63,1.89,4.21,1.51,1.55-.41,2.86-1.44,3.61-2.86" fill="#263238"/>
      <path d="m85.68,40.23c.33-.09.68-.07,1,.06.76.25,1.41.77,1.83,1.45.41.68.69,1.42.84,2.19.09.31.14.63.13.95-.13-.29-.23-.6-.3-.91-.19-.74-.49-1.44-.87-2.1-.4-.64-.99-1.14-1.69-1.42-.31-.09-.62-.17-.94-.22Z" fill="#455b64"/>
      <path d="m89.64,39.65c.17.19.3.41.39.65.24.57.38,1.17.4,1.79.02.62-.08,1.23-.29,1.81-.17.45-.33.69-.36.67.26-.8.4-1.63.41-2.47-.06-.84-.25-1.66-.55-2.45Z" fill="#455b64"/>
      <path d="m83.01,43.36s.13.37.43.88c.81,1.4,2.42,2.12,4,1.8.59-.1.93-.28,1-.24-.26.21-.58.35-.91.41-.81.2-1.65.12-2.41-.22-.75-.35-1.36-.94-1.74-1.67-.2-.28-.33-.61-.37-.96Z" fill="#455b64"/>
      <path d="m90.29,40.28s.09-.09.15-.11c.16-.08.33-.12.51-.11.26.01.51.1.72.25.27.18.46.44.56.75.2.54.18,1.14-.05,1.67-.07.16-.18.3-.32.41-.1.07-.16.09-.16.08.19-.12.33-.3.42-.51.19-.52.19-1.1,0-1.62-.1-.28-.28-.53-.52-.71-.2-.15-.43-.23-.68-.25-.22-.01-.44.04-.63.15Z" fill="#263238"/>
      <path d="m90.97,59.93c-1.53-1.87-2.71-3.98-3.51-6.26-.71-2.17-.61-4.53.28-6.64,1.2-2.39,3.4-4.14,6-4.77,2.18-.62,4.51-.39,6.53.63,2.02,1.07,3.34,3.12,3.47,5.4" fill="#263238"/>
      <path d="m98.66,43.4c1.61.15,3.16.68,4.53,1.54,1.65,1.17,2.55,3.12,2.37,5.13-.13,1.09-1.25,2.58-1.71,3.42-.72,1.35-1.53,2.65-2.44,3.89" fill="#263238"/>
      <path d="m90.85,51.22c.06-3.46,2.91-6.21,6.37-6.15.07,0,.15,0,.22,0,3.39.21,6.02,3.03,6,6.42.06,2.34,0,4.67-.2,7-.15,2.01-1.47,3.73-3.36,4.42-.29.06-.58.08-.87.08h0l.17,3.76c.12,2.3-1.64,4.26-3.94,4.38-.06,0-.12,0-.18,0-2.46,0-4.06-2.12-4.08-4.57l-.13-15.36Z" fill="#fbbd9d"/>
      <path d="m101.92,52.91c0,.28-.22.5-.5.51-.27.02-.51-.18-.53-.45,0,0,0,0,0-.01,0-.28.22-.5.5-.51.27-.02.51.18.53.45,0,0,0,0,0,.01Z" fill="#263238"/>
      <path d="m102.58,52.26c-.06.06-.45-.22-1-.22s-1,.27-1,.21,0-.15.21-.28c.24-.17.53-.25.82-.25.28,0,.56.09.79.25.11.13.18.26.18.29Z" fill="#263238"/>
      <path d="m96.63,52.91c0,.28-.22.5-.5.51-.27.02-.51-.18-.53-.45,0,0,0,0,0-.01,0-.28.22-.5.5-.51.27-.02.51.18.53.45,0,0,0,0,0,.01Z" fill="#263238"/>
      <path d="m97.12,52.36c-.06.07-.45-.22-1-.22s-1,.28-1,.21,0-.15.21-.28c.24-.17.52-.25.81-.25.29,0,.57.09.8.26.16.13.21.25.18.28Z" fill="#263238"/>
      <path d="m99.12,56.44c.29-.09.59-.14.9-.16.14,0,.27,0,.29-.14.02-.14-.01-.29-.09-.41-.13-.34-.27-.7-.42-1.07-.38-.91-.69-1.85-.93-2.81.46.88.84,1.78,1.16,2.72.14.38.27.74.4,1.08.08.17.11.36.07.55-.04.1-.12.18-.23.21-.08.01-.16.01-.24,0-.3.05-.61.06-.91.03Z" fill="#263238"/>
      <path d="m98.94,62.96c-1.7,0-3.36-.49-4.78-1.42,0,0,.84,2.81,4.83,2.44l-.05-1.02Z" fill="#ec996f"/>
      <path d="m98.89,57.77c-.21-.27-.55-.41-.89-.37-.24.03-.47.15-.63.34-.13.2-.13.46,0,.66.18.2.47.27.72.18.26-.1.5-.24.71-.42.06-.04.11-.1.15-.16.05-.06.05-.15,0-.21" fill="#ec996f"/>
      <path d="m97.5,56.83c.09,0,.09.59.6,1s1.15.36,1.16.45-.15.11-.41.12c-.36.01-.72-.11-1-.34-.26-.21-.42-.52-.46-.85,0-.24.07-.39.11-.38Z" fill="#263238"/>
      <path d="m97.37,51.39c0,.15-.6.08-1.25.16s-1.17.25-1.26.12.06-.21.27-.35c.28-.18.6-.29.93-.33.34-.04.68,0,1,.12.21.09.33.21.31.28Z" fill="#263238"/>
      <path d="m102.34,51.13c-.1.12-.48,0-.94,0s-.84.08-.93,0,0-.19.19-.31c.23-.14.49-.21.76-.2.27,0,.53.09.74.25.17.07.22.2.18.26Z" fill="#263238"/>
      <path d="m90.19,53.22c2.21.55,4.41-.49,6.2-1.94,1.83-1.56,2.92-3.81,3-6.21,0-.49.07-1.57-.4-1.67-.56-.2-1.17-.2-1.73,0-1.88.51-5.28.85-6.46,2.48s-1.42,4.31-1.42,6.4" fill="#263238"/>
      <path d="m103.58,50.77s.15,0,.4-.1c.35-.11.67-.31.92-.58.38-.4.61-.91.65-1.46.05-.67-.12-1.34-.47-1.91-.36-.57-.83-1.06-1.38-1.44-.46-.31-.94-.57-1.45-.79-.43-.19-.79-.32-1-.42l-.28-.11h-.1.1l.29.1c.25.08.61.21,1.05.39.52.21,1.01.47,1.47.78.57.38,1.06.88,1.42,1.46.36.6.53,1.3.47,2-.05.56-.3,1.09-.69,1.5-.27.28-.62.48-1,.57-.13.02-.27.03-.4.01Z" fill="#263238"/>
      <path d="m87.3,48.46s.16.13.47.32c.43.26.92.42,1.43.46.75.06,1.51-.07,2.2-.37.85-.38,1.67-.83,2.44-1.35.79-.49,1.54-1.06,2.22-1.69,1.08-1,1.82-2.3,2.15-3.73,0,.19-.01.38-.06.57-.11.51-.29,1.01-.54,1.47-.37.68-.84,1.31-1.4,1.85-.68.65-1.44,1.23-2.24,1.73-.78.53-1.62.99-2.49,1.36-.73.3-1.52.41-2.3.33-.53-.06-1.03-.25-1.47-.55-.11-.08-.22-.18-.32-.28l-.09-.12Z" fill="#455b64"/>
      <path d="m92.22,43.17c-1.8.97-3.35,2.34-4.54,4,.1-.29.25-.56.43-.81.41-.61.89-1.16,1.44-1.65.55-.49,1.16-.9,1.82-1.24.27-.14.55-.24.85-.3Z" fill="#455b64"/>
      <path d="m91.66,53.53c-.54-.25-1.17-.16-1.62.22-.61.59-.63,1.57-.04,2.18.09.1.2.18.32.25.28.23.64.34,1,.3" fill="#fbbd9d"/>
      <path d="m91.16,55.53s-.12.12-.37.09c-.14-.02-.28-.09-.39-.18-.13-.13-.21-.31-.22-.49-.02-.18.03-.36.14-.51.09-.12.21-.2.35-.25.24-.07.39,0,.38,0s-.14,0-.31.13c-.21.11-.34.34-.32.58.02.24.18.44.41.52.18.11.32.04.33.11Z" fill="#ec996f"/>
      <path d="m91.44,60.59c0,.07-.36.22-1.07.17-1.02-.12-1.96-.6-2.66-1.35-.49-.53-.83-1.18-1-1.89-.19-.83-.14-1.69.13-2.49.3-.89.86-1.67,1.6-2.25.81-.54,1.73-.88,2.7-1,.84-.11,1.66-.3,2.46-.58.72-.28,1.39-.66,2-1.13,1.04-.8,1.85-1.85,2.37-3.06.35-.83.58-1.7.68-2.6.08-.65.1-1,.18-1s.22.35.29,1c.08.98-.03,1.97-.35,2.9-.47,1.42-1.32,2.67-2.46,3.63-.68.57-1.43,1.03-2.25,1.36-.87.32-1.76.55-2.68.67-.79.1-1.54.37-2.21.8-.57.42-1.01,1-1.26,1.67-.23.61-.3,1.27-.2,1.91.11.56.35,1.09.7,1.54.55.68,1.28,1.18,2.11,1.45.54.19.92.19.92.25Z" fill="#455b64"/>
      <path d="m86.78,50.83c0-.17.92-.28,2.35-.45,1.83-.16,3.62-.64,5.28-1.41.87-.44,1.65-1.04,2.3-1.77.51-.59.92-1.27,1.19-2,.45-1.29.31-2.2.5-2.24s.21.19.32.62c.13.61.13,1.24,0,1.85-.19.91-.58,1.77-1.15,2.51-.69.9-1.58,1.63-2.6,2.14-.99.5-2.05.84-3.15,1-.88.14-1.76.2-2.65.17-1.49-.07-2.39-.26-2.39-.42Z" fill="#455b64"/>
      <path d="m91.41,86.04l-1.28,16c-.06.67.44,1.25,1.11,1.31.04,0,.09,0,.13,0l12-.32c.61-.02,1.11-.48,1.18-1.09l1.62-15.67c.07-.67-.42-1.27-1.09-1.33-.04,0-.08,0-.13,0h-12.3c-.64-.01-1.18.47-1.24,1.11Z" fill="#455b64"/>
      <path d="m99.58,87.44c0,.4-.32.72-.72.72-.4,0-.72-.32-.72-.72,0-.4.32-.72.72-.72h0c.4,0,.72.32.72.72Z" fill="#fafbfb"/>
      <path d="m91.23,92.12c-.67.18-1.32.44-1.92.79-.43.32-.89.6-1.37.83l-1.23.33-1.72,5.19,10.44.34s2.88-2,2.52-2.27c-.7-.21-1.46-.03-2,.46-.76.79-2-.31-2-.31,0,0,5.18-1.06,5.61-1.59s.94-.6.65-1.13-2.45-.23-3.17-.23c-.8.05-1.59.15-2.37.3,0,0,3.23-1.14,3.48-1.27.65-.36,0-1.07-.9-.86-1.39.47-2.8.85-4.24,1.15l-1.87-.23.09-1.5Z" fill="#fbbd9d"/>
      <rect x="19.45" y="166.37" width="31.19" height="4.29" fill="#263238"/>
      <path d="m50.7,170.71h-31.3v-4.39h31.3v4.39Zm-31.2-.11h31.08v-4.18h-31.09v4.18Z" fill="#263238"/>
      <polygon points="22.35 169.23 26.84 191.38 43.45 191.38 47.79 170.65 22.35 169.23" fill="#263238"/>
      <polygon points="22.35 189.29 24.74 192.58 44.94 192.58 47.79 189.29 22.35 189.29" fill="#455b64"/>
      <path d="m33.88,169.88c-.07,0-.14-10.27-.18-22.92s0-22.92.05-22.92.14,10.26.17,22.92.02,22.92-.04,22.92Z" fill="#263238"/>
      <path d="m40.82,144.2c-.02.08-.04.16-.08.23-.07.18-.16.4-.28.67l-.2.48-.21.58-.24.67c-.08.23-.15.49-.23.76-.37,1.25-.66,2.53-.87,3.82-.24,1.58-.41,3.17-.49,4.77-.11,2.91-.03,5.83.25,8.73.1,1.11.2,2,.28,2.63,0,.3,0,.53.08.72,0,.08,0,.17,0,.25-.03-.08-.05-.16-.06-.24,0-.19-.07-.42-.12-.71-.1-.62-.22-1.52-.35-2.64-.32-2.9-.43-5.83-.31-8.75.08-1.61.25-3.21.51-4.8.22-1.3.53-2.58.92-3.83.09-.26.16-.52.25-.76l.25-.67.23-.57c.08-.18.16-.33.22-.48l.32-.65.13-.21Z" fill="#263238"/>
      <path d="m40.03,135.89s0,.12-.1.34l-.33,1-.24.69-.25.82c-.18.6-.39,1.27-.58,2-.1.38-.2.78-.31,1.19s-.19.85-.29,1.3c-.22.89-.38,1.86-.58,2.87-.34,2-.65,4.29-.86,6.67s-.28,4.65-.31,6.72,0,3.93.11,5.49c0,.79.07,1.49.11,2.11s.08,1.16.12,1.59.06.76.08,1,0,.35,0,.35c-.03-.11-.05-.23-.06-.35l-.12-1c0-.43-.1-1-.15-1.59s-.11-1.33-.15-2.11c-.11-1.56-.15-3.43-.15-5.5s.1-4.35.29-6.74.52-4.64.88-6.68c.21-1,.37-2,.6-2.88l.3-1.3c.12-.42.23-.81.33-1.19.2-.76.42-1.43.62-2,.09-.3.18-.57.26-.83s.18-.47.26-.68c.15-.4.28-.71.37-.94.04-.12.09-.24.15-.35Z" fill="#263238"/>
      <path d="m31.9,171.69s0-.08,0-.12v-.35c0-.33-.06-.78-.1-1.36-.07-1.2-.18-2.9-.31-5-.27-4.22-.66-10-1.37-16.46-.36-3.21-.79-6.25-1.22-9-.24-1.38-.45-2.69-.69-3.91s-.45-2.35-.67-3.39-.43-2-.62-2.78-.35-1.53-.5-2.1-.24-1-.32-1.32l-.08-.35s0-.08,0-.12c0,.04,0,.08,0,.12l.1.34.37,1.31c.15.57.34,1.27.53,2.09s.44,1.74.65,2.78.48,2.16.71,3.39.46,2.53.7,3.91c.45,2.76.88,5.81,1.24,9,.71,6.41,1.08,12.25,1.31,16.47.11,2.11.19,3.82.24,5v1.71c.04.1.04.14.03.14Z" fill="#263238"/>
      <path d="m33.58,128.97c-.25-1.49-1.55-2.58-3.06-2.57-1.48.06-2.85.8-3.72,2-.84,1.21-1.45,2.57-1.79,4-1.06,3.41-1.44,7-1.1,10.56.36,3.58,1.91,6.93,4.4,9.52.36.67,1.19.93,1.87.57.17-.09.32-.22.44-.37,5.04-4.61,7.84-11.17,7.67-18,.04-1.36-.31-2.7-1-3.87-.74-1.12-2.48-2.31-3.75-1.86" fill="#f9bb1e"/>
      <path d="m22.72,117.32l-2.06,3.73c0,.09-.11.18-.21.19s-.19-.09-.25-.18l-5.43-8.35,1.25-.71,6.7,5.32Z" fill="#e7515b"/>
      <path d="m22.72,117.32l-2.06,3.73c0,.09-.11.18-.21.19s-.19-.09-.25-.18l-5.43-8.35,1.25-.71,6.7,5.32Z" fill="#199ed9"/>
      <path d="m33.75,124.04l-18.55-11c-.2-.09-.36-.25-.45-.45-.08-.28.13-.54.33-.75,2.58-2.68,6.2-4.1,9.91-3.89,3.74.25,7.11,2.34,9,5.57,1.86,3.26,1.78,7.28-.2,10.47" fill="#199ed9"/>
      <path d="m17.87,109.6h.95c.86,0,1.72.06,2.57.21,1.27.21,2.5.59,3.67,1.11,1.43.65,2.76,1.51,3.93,2.55,1.16,1.06,2.15,2.3,2.93,3.67.64,1.11,1.13,2.29,1.47,3.53.24.83.39,1.68.46,2.54.01.18.01.36,0,.54-.01.15-.06.29-.14.41.04-.31.04-.63,0-.94-.1-.85-.28-1.69-.53-2.51-1.59-5.55-6.2-9.72-11.88-10.75-.84-.16-1.69-.25-2.54-.27-.55-.08-.89-.07-.89-.09Z" fill="#263238"/>
      <path d="m31.24,116.53c-.29.18-.61.33-.94.43-.59.23-1.42.53-2.34.82s-1.77.53-2.39.68c-.32.1-.66.17-1,.19.32-.15.66-.26,1-.34l2.36-.74,2.36-.76c.31-.12.63-.22.95-.28Z" fill="#263238"/>
      <path d="m28.32,108.64c.16.68.24,1.37.22,2.07.06.69.01,1.39-.12,2.07-.09-.69-.13-1.38-.11-2.07-.05-.69-.05-1.38.01-2.07Z" fill="#263238"/>
      <path d="m15.04,112.88c.44-.19.89-.35,1.35-.47.84-.26,2-.59,3.32-.9s2.5-.56,3.37-.71c.47-.11.94-.17,1.42-.19-.46.14-.92.26-1.39.34l-3.35.77-3.33.84c-.45.14-.92.25-1.39.32Z" fill="#263238"/>
      <path d="m25.92,125.81c-1.53-1.09-3.41-1.57-5.28-1.36-2,.13-3.96.64-5.78,1.49-3.19,1.27-5.94,3.44-7.93,6.24-1.98,2.86-2.4,6.52-1.12,9.76.11.33.33.6.63.77.35.1.72.07,1.05-.08,3.59-1.05,7.07-2.44,10.4-4.15,3.35-1.73,6.12-4.39,8-7.65.45-.78.74-1.64.84-2.54.1-.91-.2-1.81-.82-2.48" fill="#cb1f46"/>
      <path d="m25.96,125.44l-.26.1-.75.26-.54.18-.63.25c-.45.18-1,.36-1.52.63l-.87.39c-.3.14-.61.32-.93.48-.64.31-1.29.72-2,1.13-2.98,1.84-5.63,4.18-7.84,6.9-.5.64-1,1.24-1.38,1.83-.2.3-.41.58-.59.86l-.5.82c-.34.51-.58,1-.82,1.42l-.33.6-.24.51c-.15.29-.26.53-.35.71-.04.09-.08.17-.14.24.02-.09.06-.18.1-.26l.31-.73.23-.52c.09-.19.2-.39.31-.6.23-.43.46-.94.79-1.46l.5-.82c.17-.29.38-.57.58-.87.39-.61.87-1.21,1.37-1.86,1.11-1.37,2.33-2.64,3.64-3.81,1.33-1.16,2.76-2.21,4.26-3.13.7-.41,1.36-.81,2-1.13.32-.16.63-.32.94-.46l.88-.39c.56-.26,1.08-.43,1.54-.6.23-.08.44-.17.64-.23l.55-.16.76-.22c.09-.04.19-.06.29-.06Z" fill="#263238"/>
      <path d="m13.49,132.19c-2.56.91-5.17,1.67-7.82,2.28,0,0,1.72-.61,3.88-1.25,1.29-.42,2.61-.76,3.94-1.03Z" fill="#263238"/>
      <path d="m13.33,140.75c-.06-.4-.09-.81-.08-1.21v-2.92c0-1.14.09-2.17.15-2.92.01-.4.06-.81.15-1.2.04.4.04.81,0,1.21,0,.82-.06,1.82-.09,2.92s-.05,2.09-.07,2.91c.02.4,0,.81-.06,1.21Z" fill="#263238"/>
      <path d="m20.67,137.01c-.06,0-.26-2.09-.44-4.69s-.27-4.7-.21-4.7.26,2.09.43,4.69.28,4.7.22,4.7Z" fill="#263238"/>
      <path d="m11.58,127.42c.41-.04.83-.04,1.24,0,.77,0,1.83,0,3,.06s2.22.09,3,.14c.42,0,.83.04,1.24.12-.41.04-.83.04-1.24,0-.77,0-1.83,0-3-.06s-2.23-.09-3-.13c-.42,0-.83-.05-1.24-.13Z" fill="#263238"/>
      <path d="m29.14,152.96v-3.59c0-1.11.1-2.42.23-3.89s.36-3.06.66-4.73.67-3.24,1-4.66.79-2.68,1.16-3.72.69-1.89.94-2.47c.11-.26.2-.48.28-.65.03-.08.06-.16.11-.23-.01.08-.04.16-.07.24l-.24.67c-.22.58-.52,1.43-.87,2.48s-.73,2.32-1.11,3.73-.73,3-1,4.65-.52,3.26-.67,4.71-.24,2.77-.28,3.88-.06,2-.06,2.62v.71c0,.09-.04.17-.08.25Z" fill="#263238"/>
      <path d="m30.12,140.82c-.22.29-.47.57-.74.81-.48.48-1.16,1.12-1.94,1.8s-1.5,1.28-2,1.69c-.28.24-.58.45-.9.63.24-.28.51-.53.8-.75l2-1.73,2-1.75c.24-.26.5-.49.78-.7Z" fill="#263238"/>
      <path d="m35.99,145.53c-.28-.35-.54-.71-.78-1.09l-1.84-2.68-1.87-2.65c-.27-.35-.52-.72-.75-1.11.32.31.62.64.88,1,.51.65,1.2,1.57,1.93,2.62s1.34,2,1.78,2.71c.26.38.47.78.65,1.2Z" fill="#263238"/>
      <path d="m32.92,130.68s-1.92,1.36-4.36,2.93-4.44,2.79-4.47,2.74,1.91-1.36,4.35-2.93,4.44-2.8,4.48-2.74Z" fill="#263238"/>
      <path d="m38.42,136.61c-1.03-.85-2.02-1.76-2.95-2.72-.98-.91-1.92-1.88-2.8-2.89,1.05.85,2.05,1.76,3,2.73.97.91,1.88,1.87,2.75,2.88Z" fill="#263238"/>
      <path d="m39.8,136.53l1.67-.14c1.19-.09,2.34-.43,3.38-1,.51-.3,1.04-.56,1.58-.79,2.07-.83,4.38-.69,6.61-.8,3.64-.18,7.21-1.1,10.5-2.68.19-.09.35-.24.46-.42.35-.63-.29-1.18-.84-1.52-2.74-1.88-5.73-3.34-8.89-4.36-3.2-.87-6.83-.72-9.56,1.16-3.2,2.2-4.37,6.73-4.91,10.58" fill="#cb1f46"/>
      <path d="m64.04,130.42c-.1-.03-.19-.07-.28-.13l-.8-.41c-.68-.37-1.68-.9-2.93-1.5-1.46-.71-2.97-1.3-4.53-1.75-1.91-.55-3.91-.71-5.88-.47-1.98.21-3.84,1.01-5.36,2.3-1.19,1.1-2.14,2.44-2.79,3.92-.59,1.25-1,2.32-1.22,3.05l-.3.84c-.03.1-.07.2-.11.29,0-.1.03-.2.07-.3.07-.22.15-.5.26-.86.33-1.05.71-2.08,1.15-3.09.65-1.51,1.6-2.87,2.8-4,1.55-1.32,3.45-2.14,5.47-2.36,2.01-.25,4.05-.08,6,.49,1.57.47,3.09,1.07,4.55,1.81,1.25.62,2.23,1.18,2.9,1.56l.78.45.22.16Z" fill="#263238"/>
      <path d="m60.02,132.58c0,.06-2.22-1.36-4.89-3.16s-4.8-3.3-4.77-3.35,2.23,1.37,4.89,3.17,4.8,3.29,4.77,3.34Z" fill="#263238"/>
      <path d="m57.69,125.96c-.52.18-1.06.27-1.6.29-.54.08-1.08.08-1.62,0,.53-.09,1.06-.15,1.6-.16.54-.08,1.08-.13,1.62-.13Z" fill="#263238"/>
      <path d="m48.1,124.71c-.18.41-.42.79-.72,1.12-.25.38-.56.71-.91,1,.18-.41.42-.79.72-1.13.26-.37.56-.7.91-.99Z" fill="#263238"/>
      <path d="m50.06,133.87c-.35-.15-.69-.34-1-.57-.63-.38-1.49-.94-2.4-1.61s-1.72-1.29-2.3-1.75c-.33-.23-.63-.49-.91-.78.35.19.69.41,1,.66l2.33,1.69c.91.66,1.75,1.24,2.35,1.66.33.21.64.45.93.7Z" fill="#263238"/>
      <path d="m42.26,143.6c-1.59-.42-3.5,1.14-3.83,2.75-.18,1.66.17,3.33,1,4.77,1.53,3.34,3.78,6.29,6.61,8.64,2.85,2.34,6.4,3.65,10.09,3.71-.67-3.13.18-6.41-.2-9.59-.67-5.77-5.23-10.3-11-10.95-1-.11-2.2-.27-2.61.67" fill="#199ed9"/>
      <path d="m56.12,163.47l-.22-.1c-.21-.12-.41-.25-.6-.4-.67-.58-1.21-1.3-1.58-2.11-.25-.5-.54-1-.82-1.63s-.55-1.23-.85-1.9c-.31-.69-.67-1.36-1.06-2-.43-.7-.91-1.37-1.45-2-1.1-1.28-2.27-2.4-3.29-3.46-.92-.92-1.76-1.93-2.5-3-.49-.73-.88-1.51-1.17-2.34-.1-.29-.18-.52-.22-.68,0-.08,0-.17,0-.25,0,0,.12.33.35.9.34.8.76,1.57,1.27,2.28.76,1.07,1.6,2.07,2.52,3,1,1,2.2,2.16,3.31,3.46.54.63,1.03,1.29,1.47,2,.39.66.74,1.35,1.05,2.06.3.67.58,1.31.84,1.91s.55,1.13.79,1.63c.35.8.86,1.51,1.49,2.11.37.35.69.5.67.52Z" fill="#263238"/>
      <path d="m47.87,160.87c0-.36.05-.73.14-1.08.13-.65.33-1.56.61-2.54s.57-1.86.81-2.49c.11-.35.26-.68.44-1-.07.34-.17.67-.29,1-.2.64-.47,1.52-.75,2.5s-.5,1.87-.66,2.52c-.07.37-.17.73-.3,1.09Z" fill="#263238"/>
      <path d="m55.82,153.17c-.38-.05-.76-.14-1.13-.26-.68-.18-1.63-.42-2.69-.66s-2-.42-2.72-.56c-.38-.05-.76-.13-1.13-.24.39-.01.78.02,1.16.09.7.09,1.68.25,2.74.49s2,.51,2.69.73c.37.1.74.23,1.08.41Z" fill="#263238"/>
      <path d="m41.94,155.41c.02-.42.07-.84.17-1.25.14-.76.37-1.81.67-3s.61-2.17.86-2.9c.11-.41.27-.8.46-1.17-.07.41-.18.82-.31,1.21-.21.75-.5,1.77-.8,2.92s-.54,2.17-.72,2.93c-.08.43-.19.85-.33,1.26Z" fill="#263238"/>
      <path d="m52.16,146.47c0,.06-2-.1-4.45-.36-1.49-.11-2.97-.31-4.43-.59,0-.06,2,.1,4.45.36,1.49.12,2.97.31,4.43.59Z" fill="#263238"/>
      <path d="m50.7,170.64c0,.06-7,.11-15.65.11s-15.65,0-15.65-.11,7-.11,15.65-.11,15.65.05,15.65.11Z" fill="#455b64"/>
      <path d="m45.82,179.66c0,.06-4.72.11-10.54.11s-10.55,0-10.55-.11,4.72-.12,10.55-.12,10.54.05,10.54.12Z" fill="#455b64"/>
      <path d="m45.64,180.94c0,.07-4.64.12-10.36.12s-10.36,0-10.36-.12,4.64-.11,10.36-.11,10.36.05,10.36.11Z" fill="#455b64"/>
      <path d="m46.01,178.59c0,.06-4.89.11-10.91.11s-10.91-.05-10.91-.11,4.89-.11,10.91-.11,10.91.05,10.91.11Z" fill="#455b64"/>
      <path d="m165.58,166.53c1.21.58,2.13,1.63,2.56,2.9.41,1.26.53,2.6.34,3.92-.46,2.63-1.6,5.09-3.3,7.15-2.14-1.87-2.63-5.13-2.78-6.81-.23-2.64,1-7.56,3.18-7.16" fill="#199ed9"/>
      <path d="m167.89,184.95c-.41-1.46,0-3.02,1.07-4.09,1.07-1.04,2.51-1.62,4-1.59.69-.05,1.37.19,1.86.68.38.53.44,1.23.16,1.82-.29.58-.72,1.07-1.25,1.43-1.77,1.29-3.72,2.22-5.86,1.75" fill="#cb1f46"/>
      <path d="m165.06,192.47c0-.18.01-.36.06-.54.06-.34.16-.83.3-1.43.32-1.59.87-3.13,1.61-4.57.76-1.45,1.9-2.67,3.29-3.53.43-.25.89-.45,1.36-.59.17-.06.35-.09.53-.1-.61.24-1.21.53-1.78.86-1.33.88-2.41,2.09-3.15,3.5-.73,1.42-1.3,2.91-1.7,4.46-.14.66-.31,1.3-.52,1.94Z" fill="#263238"/>
      <path d="m165.13,170.36c.05.29.08.58.09.88,0,.57.07,1.4.11,2.42.07,2,.13,4.86.12,8s-.1,5.93-.19,8c0,1-.09,1.85-.13,2.42,0,.3-.04.59-.09.88-.03-.3-.03-.59,0-.89v-2.41c0-2,.09-4.86.1-8s0-5.94,0-8v-2.41c-.03-.3-.03-.59-.01-.89Z" fill="#263238"/>
      <path d="m163.93,186.31c-.46-3.14-2.41-5.87-5.23-7.32-.67-.46-1.54-.5-2.24-.09-.52.63-.6,1.51-.21,2.23,1.22,3.17,4.22,5.3,7.62,5.39" fill="#f9bb1e"/>
      <path d="m158.91,181.38c.17.04.33.1.48.19.18.08.36.18.53.29.23.13.46.27.68.43.57.4,1.1.86,1.58,1.37.58.63,1.09,1.32,1.52,2.06.42.74.75,1.53,1,2.35.2.67.33,1.36.39,2.06.01.27.01.53,0,.8.02.2.02.4,0,.6,0,.17-.03.35-.08.51,0,0,0-.73-.14-1.89-.09-.68-.24-1.35-.44-2-.26-.79-.6-1.56-1-2.29-.43-.71-.92-1.38-1.48-2-.46-.51-.96-.97-1.5-1.39-.87-.73-1.57-1.04-1.54-1.09Z" fill="#263238"/>
    </g>
  </g>
</svg>