<?xml version="1.0" encoding="UTF-8"?>
<svg id="Layer_2" data-name="Layer 2" xmlns="http://www.w3.org/2000/svg" viewBox="0 0 180.93 180.77">
  <g id="Layer_1-2" data-name="Layer 1">
    <g>
      <path d="m147.86,130.83v9.56h-1.59v1.03h1.59v6.39h29.83v-5.81h-2.21v-1.26h2.21v-1.9h.98v-.86h-1.17v-7.15h-29.64Z" fill="#f5f5f5"/>
      <polygon points="169.76 130.88 169.76 147.74 177.69 147.74 177.69 141.92 175.48 141.92 175.48 140.76 177.69 140.79 177.69 138.89 178.69 138.89 178.67 137.91 177.5 137.89 177.5 130.86 169.76 130.88" fill="#e0e0e0"/>
      <path d="m170.33,141.31c0,.06-5.4.11-12.03.11s-12.03-.05-12.03-.11,5.4-.1,12.03-.1,12.03.05,12.03.1Z" fill="#e0e0e0"/>
      <path d="m170.33,140.34c0,.06-5.4.11-12.03.11s-12.03-.05-12.03-.11,5.4-.1,12.03-.1,12.03.05,12.03.1Z" fill="#e0e0e0"/>
      <path d="m171.88,137.71c0,.06-5.4.11-12.03.11s-12.03-.05-12.03-.11,5.4-.1,12.03-.1,12.03.1,12.03.1Z" fill="#e0e0e0"/>
      <path d="m172.02,144.85c0,.06-5.4.1-12.03.1s-12.03,0-12.03-.1,5.4-.11,12.03-.11,12.03.05,12.03.11Z" fill="#e0e0e0"/>
      <path d="m150.11,147.37v9.55h-1.59v1.04h1.59v6.39h29.82v-5.82h-2.21v-1.26h2.21v-1.91h.99v-.86h-1.17v-7.13h-29.64Z" fill="#f5f5f5"/>
      <polygon points="172.01 147.4 172.01 164.25 179.94 164.25 179.94 158.44 177.73 158.44 177.73 157.28 179.94 157.31 179.94 155.41 180.93 155.41 180.92 154.43 179.75 154.4 179.75 147.37 172.01 147.4" fill="#e0e0e0"/>
      <path d="m172.57,157.83c0,.06-5.39.1-12.03.1s-12.03,0-12.03-.1,5.39-.1,12.03-.1,12.03.04,12.03.1Z" fill="#e0e0e0"/>
      <path d="m172.57,156.85c0,.06-5.39.1-12.03.1s-12.03-.04-12.03-.1,5.39-.1,12.03-.1,12.03.04,12.03.1Z" fill="#e0e0e0"/>
      <path d="m174.13,154.24c0,.06-5.4.11-12.03.11s-12.03-.05-12.03-.11,5.4-.1,12.03-.1,12.03.04,12.03.1Z" fill="#e0e0e0"/>
      <path d="m174.27,161.37c0,.05-5.4.1-12.03.1s-12.03-.05-12.03-.1,5.4-.11,12.03-.11,12.03.05,12.03.11Z" fill="#e0e0e0"/>
      <path d="m147.49,163.66v9.56h-1.6v1.04h1.6v6.42h29.82v-5.82h-2.21v-1.27h2.21v-1.9h.98v-.86h-1.17v-7.14l-29.63-.03Z" fill="#f5f5f5"/>
      <polygon points="169.4 163.69 169.4 180.55 177.32 180.55 177.32 174.72 175.12 174.72 175.12 173.56 177.32 173.6 177.32 171.7 178.32 171.7 178.3 170.72 177.14 170.69 177.14 163.66 169.4 163.69" fill="#e0e0e0"/>
      <path d="m169.96,174.12c0,.06-5.4.1-12.03.1s-12.03,0-12.03-.1,5.39-.1,12.03-.1,12.03.04,12.03.1Z" fill="#e0e0e0"/>
      <path d="m169.96,173.15c0,.06-5.4.1-12.03.1s-12.03,0-12.03-.1,5.39-.1,12.03-.1,12.03.04,12.03.1Z" fill="#e0e0e0"/>
      <path d="m171.51,170.54c0,.06-5.39.1-12.03.1s-12.03,0-12.03-.1,5.39-.1,12.03-.1,12.03.04,12.03.1Z" fill="#e0e0e0"/>
      <path d="m171.66,177.65c0,.06-5.4.11-12.03.11s-12.03-.05-12.03-.11,5.4-.1,12.03-.1,12.03.05,12.03.1Z" fill="#e0e0e0"/>
      <path d="m9.22,130.83v9.56h-1.6v1.03h1.6v6.39h29.82v-5.81h-2.21v-1.26h2.21v-1.9h.98v-.86h-1.17v-7.15H9.22Z" fill="#f5f5f5"/>
      <polygon points="31.12 130.88 31.12 147.74 39.04 147.74 39.04 141.92 36.83 141.92 36.83 140.76 39.04 140.79 39.04 138.89 40.04 138.89 40.03 137.91 38.86 137.89 38.86 130.86 31.12 130.88" fill="#e0e0e0"/>
      <path d="m31.68,141.31c0,.06-5.4.11-12.03.11s-12.03-.05-12.03-.11,5.4-.1,12.03-.1,12.03.05,12.03.1Z" fill="#e0e0e0"/>
      <path d="m31.68,140.34c0,.06-5.4.11-12.03.11s-12.03-.05-12.03-.11,5.4-.1,12.03-.1,12.03.05,12.03.1Z" fill="#e0e0e0"/>
      <path d="m33.23,137.71c0,.06-5.4.11-12.03.11s-12.03-.05-12.03-.11,5.4-.1,12.03-.1,12.03.1,12.03.1Z" fill="#e0e0e0"/>
      <path d="m33.37,144.85c0,.06-5.4.1-12.03.1s-12.03,0-12.03-.1,5.39-.11,12.03-.11,12.03.05,12.03.11Z" fill="#e0e0e0"/>
      <path d="m9.4,116.43v9.56h-1.57v1.03h1.6v6.39h29.82v-5.83h-2.2v-1.26h2.21v-1.9h.98v-.86h-1.16v-7.13H9.4Z" fill="#f5f5f5"/>
      <polygon points="31.3 116.45 31.3 133.31 39.23 133.31 39.23 127.49 37.02 127.49 37.02 126.33 39.23 126.36 39.23 124.46 40.22 124.46 40.21 123.48 39.04 123.46 39.04 116.43 31.3 116.45" fill="#e0e0e0"/>
      <path d="m31.89,126.88c0,.06-5.4.11-12.03.11s-12.03-.05-12.03-.11,5.39-.1,12.03-.1,12.03.05,12.03.1Z" fill="#e0e0e0"/>
      <path d="m31.89,125.91c0,.06-5.4.11-12.03.11s-12.03-.05-12.03-.11,5.39-.1,12.03-.1,12.03.05,12.03.1Z" fill="#e0e0e0"/>
      <path d="m33.41,123.29c0,.06-5.39.11-12.03.11s-12.03-.05-12.03-.11,5.39-.1,12.03-.1,12.03.05,12.03.1Z" fill="#e0e0e0"/>
      <path d="m33.61,130.42c0,.06-5.4.1-12.03.1s-12.03-.04-12.03-.1,5.4-.11,12.03-.11,12.03.05,12.03.11Z" fill="#e0e0e0"/>
      <path d="m10.8,147.37v9.55h-1.6v1.04h1.6v6.39h29.82v-5.82h-2.21v-1.26h2.21v-1.91h.98v-.86h-1.12v-7.13H10.8Z" fill="#f5f5f5"/>
      <polygon points="32.7 147.4 32.7 164.25 40.62 164.25 40.62 158.44 38.41 158.44 38.41 157.28 40.62 157.31 40.62 155.41 41.62 155.41 41.61 154.43 40.44 154.4 40.44 147.37 32.7 147.4" fill="#e0e0e0"/>
      <path d="m33.26,157.83c0,.06-5.4.1-12.03.1s-12.03,0-12.03-.1,5.4-.1,12.03-.1,12.03.04,12.03.1Z" fill="#e0e0e0"/>
      <path d="m33.26,156.85c0,.06-5.4.1-12.03.1s-12.03-.04-12.03-.1,5.4-.1,12.03-.1,12.03.04,12.03.1Z" fill="#e0e0e0"/>
      <path d="m34.81,154.24c0,.06-5.4.11-12.03.11s-12.03-.05-12.03-.11,5.4-.1,12.03-.1,12.03.04,12.03.1Z" fill="#e0e0e0"/>
      <path d="m34.96,161.37c0,.05-5.4.1-12.03.1s-12.03-.05-12.03-.1,5.4-.11,12.03-.11,12.03.05,12.03.11Z" fill="#e0e0e0"/>
      <path d="m14.36,163.66v9.56h-1.6v1.04h1.6v6.42h29.82v-5.82h-2.21v-1.27h2.21v-1.9h.98v-.86h-1.16v-7.14l-29.64-.03Z" fill="#f5f5f5"/>
      <polygon points="36.26 163.69 36.26 180.55 44.18 180.55 44.18 174.72 41.97 174.72 41.97 173.56 44.18 173.6 44.18 171.7 45.18 171.7 45.16 170.72 44 170.69 44 163.66 36.26 163.69" fill="#e0e0e0"/>
      <path d="m36.82,174.12c0,.06-5.4.1-12.03.1s-12.03,0-12.03-.1,5.4-.1,12.03-.1,12.03.04,12.03.1Z" fill="#e0e0e0"/>
      <path d="m36.82,173.15c0,.06-5.4.1-12.03.1s-12.03,0-12.03-.1,5.4-.1,12.03-.1,12.03.04,12.03.1Z" fill="#e0e0e0"/>
      <path d="m38.37,170.54c0,.06-5.4.1-12.03.1s-12.03,0-12.03-.1,5.4-.1,12.03-.1,12.03.04,12.03.1Z" fill="#e0e0e0"/>
      <path d="m38.52,177.65c0,.06-5.4.11-12.03.11s-12.03-.05-12.03-.11,5.4-.1,12.03-.1,12.03.05,12.03.1Z" fill="#e0e0e0"/>
      <path d="m112.88,163.88v9.26h-1.55v1.01h1.55v6.2h28.9v-5.67h-2.14v-1.23h2.14v-1.84h.97v-.86h-1.13v-6.88l-28.74.02Z" fill="#f5f5f5"/>
      <polygon points="134.11 163.9 134.11 180.23 141.79 180.23 141.79 174.59 139.64 174.59 139.64 173.47 141.79 173.51 141.79 171.66 142.76 171.66 142.73 170.71 141.61 170.68 141.61 163.88 134.11 163.9" fill="#e0e0e0"/>
      <path d="m134.65,174.01c0,.05-5.23.1-11.68.1s-11.69-.05-11.69-.1,5.23-.1,11.69-.1,11.68.04,11.68.1Z" fill="#e0e0e0"/>
      <path d="m134.65,173.06c0,.06-5.23.1-11.68.1s-11.69,0-11.69-.1,5.23-.1,11.69-.1,11.68.05,11.68.1Z" fill="#e0e0e0"/>
      <path d="m136.15,170.54c0,.05-5.23.1-11.68.1s-11.68-.05-11.68-.1,5.23-.1,11.68-.1,11.68.04,11.68.1Z" fill="#e0e0e0"/>
      <path d="m136.3,177.43c0,.06-5.23.1-11.68.1s-11.68,0-11.68-.1,5.23-.09,11.68-.09,11.68.04,11.68.09Z" fill="#e0e0e0"/>
      <path d="m59.39,147.37v9.55h-1.6v1.04h1.6v6.39h29.82v-5.82h-2.21v-1.26h2.21v-1.91h.98v-.86h-1.16v-7.13h-29.64Z" fill="#f5f5f5"/>
      <polygon points="81.32 147.4 81.32 164.25 89.24 164.25 89.24 158.44 87.03 158.44 87.03 157.28 89.24 157.31 89.24 155.41 90.24 155.41 90.22 154.43 89.05 154.4 89.05 147.37 81.32 147.4" fill="#e0e0e0"/>
      <path d="m81.88,157.83c0,.06-5.4.1-12.03.1s-12.03,0-12.03-.1,5.4-.1,12.03-.1,12.03.04,12.03.1Z" fill="#e0e0e0"/>
      <path d="m81.88,156.85c0,.06-5.4.1-12.03.1s-12.03-.04-12.03-.1,5.4-.1,12.03-.1,12.03.04,12.03.1Z" fill="#e0e0e0"/>
      <path d="m83.45,154.24c0,.06-5.4.11-12.03.11s-12.03-.05-12.03-.11,5.4-.1,12.03-.1,12.03.04,12.03.1Z" fill="#e0e0e0"/>
      <path d="m83.58,161.37c0,.05-5.4.1-12.03.1s-12.03-.05-12.03-.1,5.4-.11,12.03-.11,12.03.05,12.03.11Z" fill="#e0e0e0"/>
      <path d="m56.81,163.66v9.56h-1.6v1.04h1.6v6.42h29.82v-5.82h-2.21v-1.27h2.21v-1.9h.98v-.86h-1.17v-7.14l-29.63-.03Z" fill="#f5f5f5"/>
      <polygon points="78.71 163.69 78.71 180.55 86.62 180.55 86.62 174.72 84.41 174.72 84.41 173.56 86.62 173.6 86.62 171.7 87.63 171.7 87.61 170.72 86.44 170.69 86.44 163.66 78.71 163.69" fill="#e0e0e0"/>
      <path d="m79.27,174.12c0,.06-5.4.1-12.03.1s-12.03,0-12.03-.1,5.4-.1,12.03-.1,12.03.04,12.03.1Z" fill="#e0e0e0"/>
      <path d="m79.27,173.15c0,.06-5.4.1-12.03.1s-12.03,0-12.03-.1,5.4-.1,12.03-.1,12.03.04,12.03.1Z" fill="#e0e0e0"/>
      <path d="m80.81,170.54c0,.06-5.4.1-12.03.1s-12.03,0-12.03-.1,5.4-.1,12.03-.1,12.03.04,12.03.1Z" fill="#e0e0e0"/>
      <path d="m80.96,177.65c0,.06-5.39.11-12.03.11s-12.03-.05-12.03-.11,5.39-.1,12.03-.1,12.03.05,12.03.1Z" fill="#e0e0e0"/>
      <path d="m1.53,146.13c.33,2.58,2.31,4.73,4.62,5.94,2.38,1.09,4.91,1.81,7.5,2.14,2.59.33,5.11,1.13,7.43,2.34l4.45-12.38c-3.52-1.54-7.33-2.32-11.17-2.31-4.6.18-8.24-5.9-8.24-5.9l-4.59,10.18Z" fill="#e0e0e0"/>
      <path d="m21.27,177.57c3.82-4.16,9.09-6.71,14.73-7.12-1.4-2.18-3.89-6.44-5.29-8.59-7.46,0-13.25,4.25-17.19,10.52,2.77,1.95,4.99,3.21,7.75,5.2Z" fill="#e0e0e0"/>
      <path d="m18.8,43.27c.78-.47,1.62-.84,2.5-1.08l.52-2.48,4.18-.08.61,2.46c.9.22,1.77.55,2.58,1l2.11-1.38,3.01,2.9-1.31,2.16c.47.79.83,1.63,1.08,2.51l2.48.52.08,4.18-2.46.6c-.22.9-.55,1.77-1,2.58l1.38,2.11-2.9,3.01-2.17-1.31c-.78.47-1.62.84-2.5,1.09l-.52,2.48-4.18.08-.61-2.46c-.89-.22-1.74-.55-2.54-1l-2.11,1.38-3.01-2.9,1.31-2.17c-.47-.78-.83-1.62-1.08-2.5l-2.48-.52-.08-4.19,2.46-.6c.22-.9.55-1.77,1-2.58l-1.38-2.11,2.9-3.01,2.17,1.31h-.04Zm2.23,5.58c-1.72,1.78-1.67,4.62.12,6.34,1.78,1.72,4.62,1.67,6.34-.12,1.72-1.78,1.67-4.62-.11-6.34-1.78-1.72-4.62-1.68-6.34.1h0Z" fill="#ebebeb"/>
      <path d="m17.72,84.03c.94-.57,1.95-1.02,3-1.32l.62-2.98,5.04-.09.72,2.96c1.07.26,2.1.67,3.06,1.2l2.58-1.72,3.63,3.51-1.58,2.58c.57.94,1.01,1.96,1.31,3.02l2.98.63.09,5.04-2.96.72c-.26,1.07-.67,2.1-1.2,3.06l1.67,2.58-3.5,3.63-2.58-1.58c-.94.57-1.96,1.01-3.02,1.31l-.62,2.98-5.04.09-.72-2.96c-1.07-.26-2.1-.67-3.06-1.2l-2.58,1.67-3.63-3.5,1.58-2.58c-.57-.94-1.02-1.96-1.31-3.02l-2.98-.62-.09-5.04,2.96-.72c.26-1.07.67-2.1,1.2-3.07l-1.67-2.58,3.5-3.63,2.58,1.57.02.06Zm2.69,6.72c-2.08,2.15-2.03,5.58.12,7.66,2.15,2.08,5.58,2.03,7.66-.12s2.03-5.58-.12-7.66h0c-2.15-2.08-5.57-2.02-7.65.12Z" fill="#ebebeb"/>
      <rect x="2.99" y="5.96" width="47.03" height="37.33" transform="translate(-4.01 5.19) rotate(-10.41)" fill="#fff"/>
      <rect x="5.07" y="14.05" width="47.2" height="9.81" transform="translate(-2.91 5.4) rotate(-10.25)" fill="#ebebeb"/>
      <path d="m16.46,34.66c-.05-.16-.09-.33-.12-.5-.07-.35-.16-.81-.28-1.36-.23-1.16-.56-2.8-.92-4.76l.15.1-6.64,1.22.12-.17h0v.4l.08.45c.05.3.11.59.16.86.1.58.21,1.15.3,1.72l.56,3.14-.15-.1c1.97-.34,3.62-.61,4.79-.8l1.38-.21c.17-.03.34-.05.51-.06-.15.05-.3.09-.45.11l-1.33.27c-1.15.23-2.82.57-4.84.95h-.13v-.12c-.17-.97-.37-2.02-.58-3.14l-.32-1.72c-.05-.29-.1-.59-.16-.86l-.08-.45v-.43h0l.12-.17,6.65-1.18h.12v.13c.35,2.02.63,3.7.86,4.86.07.54.14.99.21,1.34.01.16.02.32,0,.48Z" fill="#e0e0e0"/>
      <path d="m25.16,33.08c-.05-.16-.09-.33-.12-.5-.08-.35-.17-.8-.28-1.36-.23-1.16-.56-2.8-.93-4.76l.15.1-6.64,1.22.12-.17h0v.43l.09.45.15.86c.11.58.21,1.15.31,1.72l.55,3.14-.15-.1c1.97-.34,3.62-.61,4.79-.8l1.37-.21c.17-.03.34-.05.52-.06-.15.05-.3.09-.45.11l-1.33.27c-1.15.23-2.83.57-4.85.95h-.12v-.12c-.18-.97-.37-2.02-.58-3.14-.1-.56-.21-1.13-.32-1.72-.05-.29-.11-.59-.16-.86l-.08-.45v-.43h0l.12-.17,6.64-1.18h.13v.13c.36,2.02.64,3.7.82,4.86.09.54.15.99.21,1.34.03.15.04.3.04.45Z" fill="#e0e0e0"/>
      <path d="m33.85,31.51c-.05-.16-.09-.33-.12-.5-.07-.35-.16-.8-.27-1.36-.23-1.16-.56-2.8-.93-4.76l.15.1-6.63,1.22.12-.17h0v.21l.04.22.09.45.15.86c.1.58.21,1.16.31,1.72.2,1.12.38,2.17.55,3.14l-.15-.1c1.97-.34,3.62-.61,4.79-.8l1.37-.21c.17-.03.34-.05.51-.06-.14.06-.29.09-.45.11l-1.32.27c-1.16.23-2.83.57-4.85.95h-.12v-.12c-.18-.97-.38-2.02-.58-3.14-.1-.56-.21-1.13-.31-1.72-.06-.29-.11-.59-.16-.86l-.09-.45v-.43h0l.12-.17,6.64-1.18h.13v.13c.35,2.02.63,3.7.86,4.86.09.55.15.99.21,1.34,0,.15-.01.3-.04.45Z" fill="#e0e0e0"/>
      <path d="m42.54,29.94c-.05-.16-.09-.33-.12-.5-.07-.35-.16-.8-.27-1.36-.24-1.16-.57-2.8-.93-4.76l.15.1-6.63,1.22s.22-.33.11-.17h0v.4l.08.45c.06.3.11.6.16.86.1.58.21,1.16.31,1.72.19,1.11.38,2.17.55,3.13l-.15-.1,4.78-.8,1.38-.21c.17-.03.34-.06.51-.07-.14.05-.29.09-.45.11l-1.33.27c-1.15.23-2.82.57-4.84.95h-.13v-.12c-.18-.97-.38-2.02-.58-3.14-.1-.55-.21-1.13-.32-1.72l-.15-.86-.09-.45v-.43h0c-.11.15.14-.21.11-.17l6.65-1.18h.12v.13c.35,2.02.63,3.7.82,4.86.08.55.15.99.21,1.34.04.16.06.32.07.49Z" fill="#e0e0e0"/>
      <path d="m51.24,28.36c-.05-.16-.09-.33-.12-.5-.08-.35-.17-.8-.28-1.36-.23-1.16-.56-2.8-.93-4.76l.15.1-6.64,1.22.12-.17h0v.21l.04.22.08.45c.05.3.1.6.16.86.1.58.21,1.16.3,1.72.2,1.11.39,2.17.55,3.13l-.15-.1,4.79-.8,1.38-.21c.17-.03.34-.06.51-.07-.14.05-.29.09-.45.11l-1.33.27c-1.15.23-2.83.57-4.85.95h-.12v-.12c-.18-.97-.37-2.02-.58-3.14-.1-.55-.21-1.13-.32-1.72-.05-.29-.1-.59-.16-.86l-.08-.45v-.4h0l.12-.17,6.64-1.18h.13v.13c.35,2.02.63,3.7.81,4.86.09.55.15,1,.21,1.34.01.14.01.28,0,.42Z" fill="#e0e0e0"/>
      <path d="m18.01,43.17c-.05-.16-.09-.33-.12-.5-.08-.35-.17-.81-.28-1.36-.23-1.16-.56-2.8-.93-4.76l.15.1-6.64,1.22.12-.17h0v.45l.09.45c.05.3.1.59.16.86.1.59.21,1.16.3,1.72.2,1.12.39,2.17.55,3.14l-.15-.1c1.97-.34,3.62-.61,4.79-.8l1.38-.21c.17-.03.34-.05.51-.06-.15.05-.3.09-.45.11l-1.33.27c-1.15.23-2.83.56-4.85.94h-.12v-.13c-.18-.96-.37-2.01-.58-3.13-.1-.56-.21-1.13-.32-1.72-.05-.29-.1-.58-.16-.86l-.08-.45-.04-.23v-.16h0l.12-.17,6.64-1.18h.13v.13c.35,2.02.63,3.7.81,4.86.09.54.15.99.21,1.34.04.13.07.27.09.4Z" fill="#e0e0e0"/>
      <path d="m26.73,41.62c-.05-.16-.09-.33-.12-.5-.07-.35-.16-.81-.27-1.36-.23-1.16-.56-2.8-.93-4.76l.15.1-6.63,1.22.12-.17h0v.43l.09.45.15.86c.1.59.21,1.16.31,1.72.2,1.12.38,2.17.55,3.14l-.15-.1c1.97-.34,3.62-.61,4.79-.8l1.37-.21c.17-.03.34-.05.51-.06-.15.05-.29.09-.45.11l-1.32.27c-1.16.23-2.83.57-4.85.94h-.12v-.13c-.18-.96-.38-2.01-.58-3.13-.1-.56-.21-1.13-.31-1.72-.06-.3-.11-.59-.16-.86l-.09-.45v-.43h0l.12-.17,6.64-1.18h.13v.13c.35,2.02.63,3.7.86,4.86l.21,1.34c.02.15.02.3,0,.46Z" fill="#e0e0e0"/>
      <path d="m35.39,40.05c-.05-.16-.09-.33-.12-.5-.07-.35-.16-.81-.27-1.36-.24-1.16-.57-2.8-.93-4.76l.15.1-6.63,1.22s.22-.33.11-.17h0v.43l.08.45c.06.3.11.59.16.86.1.58.21,1.15.31,1.72.19,1.12.38,2.17.55,3.14l-.15-.1c1.96-.34,3.61-.61,4.79-.8l1.37-.21c.17-.03.34-.05.51-.06-.15.05-.3.09-.45.11l-1.33.27c-1.15.23-2.82.57-4.84.94h-.13v-.12c-.18-.97-.38-2.02-.58-3.14l-.32-1.72-.15-.86-.09-.45-.04-.23v-.2h0c-.11.15.14-.21.11-.17l6.65-1.18h.12v.13c.35,2.02.63,3.7.86,4.86.09.54.15.99.21,1.34.03.15.06.3.07.46Z" fill="#e0e0e0"/>
      <path d="m44.09,38.48c-.05-.16-.09-.33-.12-.5-.08-.35-.16-.81-.28-1.36-.23-1.16-.56-2.8-.93-4.76l.15.1-6.64,1.22.12-.17h0v.43l.08.45c.05.3.1.59.16.86.1.58.21,1.15.3,1.72l.56,3.14-.15-.1c1.97-.34,3.62-.61,4.79-.8l1.38-.21c.17-.03.34-.05.51-.06-.15.05-.3.09-.45.11l-1.33.27c-1.15.23-2.83.57-4.84.95h-.13v-.12c-.18-.97-.37-2.02-.58-3.14-.1-.56-.21-1.13-.32-1.72-.05-.29-.1-.59-.16-.86l-.08-.45v-.4h0l.12-.17,6.64-1.18h.13v.13c.35,2.02.63,3.7.81,4.86.09.54.15.99.21,1.34.03.14.04.27.05.41Z" fill="#e0e0e0"/>
      <path d="m52.78,36.91c-.05-.16-.09-.33-.12-.5-.07-.35-.16-.8-.27-1.36-.23-1.16-.56-2.8-.93-4.76l.15.1-6.63,1.22.12-.17h0v.43l.09.45.15.86c.1.58.21,1.15.31,1.72.2,1.12.38,2.17.55,3.14l-.15-.1c1.97-.34,3.62-.61,4.79-.8l1.37-.21c.17-.03.34-.05.51-.06-.15.05-.29.09-.45.11l-1.32.27c-1.15.23-2.83.57-4.85.95h-.12v-.12c-.18-.97-.38-2.02-.58-3.14-.1-.56-.21-1.13-.31-1.72-.05-.29-.11-.59-.16-.86l-.09-.45v-.43h0l.12-.17,6.64-1.18h.13v.13c.35,2.02.63,3.7.86,4.86.09.54.15.99.21,1.34.02.15.02.3,0,.45Z" fill="#e0e0e0"/>
      <rect x="12.14" y="45.09" width="6.75" height="6.75" transform="translate(-8.38 3.53) rotate(-10.25)" fill="#e0e0e0"/>
      <path d="m28.14,49.6s-.05-.19-.12-.5-.16-.81-.27-1.36c-.24-1.17-.57-2.8-.93-4.77l.15.1-6.63,1.22.11-.16h0v.44l.08.46c.06.29.11.59.16.86.1.58.21,1.16.31,1.72.19,1.11.38,2.17.55,3.14l-.15-.1c1.96-.34,3.61-.61,4.79-.8l1.37-.21c.17-.03.34-.05.51-.06,0,0-.15,0-.45.1l-1.33.27c-1.15.23-2.82.57-4.84.95h-.13v-.13l-.58-3.13c-.1-.56-.21-1.13-.32-1.72l-.15-.86-.09-.46v-.44h0c-.11.15.14-.21.11-.17l6.65-1.19h.12v.12c.35,2.02.63,3.7.82,4.86.09.57.15,1.02.21,1.34.03.16.06.31.07.47Z" fill="#e0e0e0"/>
      <path d="m36.84,48.03c-.05-.16-.09-.33-.12-.5-.08-.36-.16-.81-.28-1.36-.23-1.17-.56-2.8-.93-4.77l.15.1-6.64,1.22s.22-.32.12-.16h0v.21l.04.22.08.46c.05.29.1.59.16.86.1.58.21,1.16.3,1.72l.56,3.14-.15-.1c1.97-.34,3.62-.61,4.79-.8l1.38-.21c.17-.04.34-.06.51-.06-.15.05-.3.08-.45.1l-1.33.27c-1.15.24-2.83.57-4.84.95h-.13v-.13c-.18-.97-.37-2.02-.58-3.13-.1-.56-.21-1.13-.32-1.72-.05-.29-.1-.58-.16-.86l-.08-.46v-.44h0l.12-.17,6.64-1.19h.13v.12c.35,2.02.63,3.7.81,4.86.09.55.15,1,.21,1.34.01.16.02.32,0,.47Z" fill="#e0e0e0"/>
      <path d="m45.53,46.45c-.05-.16-.09-.33-.11-.5-.08-.35-.17-.81-.28-1.36-.23-1.17-.56-2.8-.93-4.77l.15.1-6.63,1.22s.22-.32.12-.16h0v.44l.09.46.15.86.31,1.72c.2,1.11.38,2.17.55,3.14l-.15-.1c1.97-.34,3.62-.61,4.79-.8l1.37-.21c.17-.03.34-.05.51-.06-.14.05-.29.09-.44.11l-1.33.27c-1.15.24-2.83.57-4.85.95h-.12v-.13l-.58-3.13c-.1-.56-.21-1.13-.31-1.72-.05-.29-.11-.58-.16-.86l-.08-.46v-.44h0l.12-.17,6.64-1.19h.13v.12c.35,2.02.63,3.7.86,4.86l.21,1.35c.02.15.02.31,0,.46Z" fill="#e0e0e0"/>
      <path d="m54.23,44.89c-.05-.16-.09-.33-.12-.5-.07-.35-.16-.81-.27-1.36-.24-1.16-.56-2.8-.93-4.76l.15.1-6.63,1.22s.22-.33.11-.17h0v.21l.04.22.08.46c.06.3.11.59.16.86.1.58.21,1.16.31,1.72.19,1.12.38,2.17.55,3.14l-.15-.1c1.97-.34,3.61-.61,4.79-.8l1.37-.21c.17-.03.34-.05.51-.06-.15.05-.3.09-.45.11l-1.32.27c-1.16.24-2.83.57-4.85.95h-.13v-.13l-.58-3.13c-.1-.56-.21-1.13-.31-1.72-.06-.29-.11-.58-.16-.86l-.09-.46v-.44h0c-.11.15.14-.21.12-.17l6.64-1.19h.12v.12c.35,2.03.63,3.7.86,4.87.09.54.15.99.21,1.34,0,.15,0,.31-.02.46Z" fill="#e0e0e0"/>
      <rect x="13.24" y="13.39" width="2.09" height="6.2" rx="1.04" ry="1.04" transform="translate(-2.71 2.81) rotate(-10.25)" fill="#e0e0e0"/>
      <rect x="26.57" y="11.01" width="2.09" height="6.2" rx="1.04" ry="1.04" transform="translate(-2.07 5.14) rotate(-10.25)" fill="#e0e0e0"/>
      <rect x="39.9" y="8.64" width="2.09" height="6.2" rx="1.04" ry="1.04" transform="translate(-1.44 7.48) rotate(-10.26)" fill="#e0e0e0"/>
      <path d="m57.81,47.47s-.05-.23-.14-.69l-.38-2.01c-.33-1.72-.8-4.3-1.4-7.61-1.2-6.55-2.92-15.91-4.98-27.2l.14.09L4.64,18.48h0l.12-.17,6.77,37.54-.15-.1,33.52-6.02,9.51-1.72,2.53-.44.65-.11h.22l-.21.05-.64.12-2.49.46-9.45,1.72-33.61,6.14h-.14v-.13c-2.03-11.17-4.35-23.97-6.81-37.53v-.15h.15l46.41-8.38h.12v.12c2.02,11.33,3.7,20.73,4.87,27.3.58,3.27,1.03,5.83,1.34,7.59.15.86.27,1.53.34,1.99s.11.7.11.7Z" fill="#e0e0e0"/>
      <path d="m135.69,12.72c1.24-.75,2.57-1.33,3.97-1.72l.86-3.94,6.64-.11.95,3.89c1.41.35,2.76.88,4.03,1.59l3.35-2.2,4.79,4.62-2.09,3.44c.75,1.24,1.33,2.57,1.72,3.97l3.94.86.11,6.64-3.89.95c-.35,1.41-.88,2.76-1.59,4.03l2.2,3.36-4.62,4.78-3.44-2.08c-1.24.75-2.58,1.33-3.98,1.72l-.86,3.94-6.64.11-.95-3.89c-1.41-.35-2.76-.88-4.03-1.59l-3.36,2.2-4.78-4.62,2.08-3.44c-.75-1.24-1.33-2.58-1.72-3.97l-3.94-.86-.12-6.64,3.9-.95c.35-1.41.88-2.76,1.59-4.03l-2.2-3.35,4.62-4.79,3.44,2.09h.02Zm3.54,8.84c-2.73,2.83-2.65,7.34.18,10.07,2.83,2.73,7.34,2.65,10.07-.18,2.73-2.83,2.65-7.33-.17-10.07-2.83-2.74-7.34-2.66-10.07.16,0,0,0,0,0,0h0Z" fill="#ebebeb"/>
      <path d="m169.86,180.42c0,.06-35.09.1-78.37.1s-78.37,0-78.37-.1,35.08-.1,78.37-.1,78.37.04,78.37.1Z" fill="#263238"/>
      <rect x="93.27" y="10.39" width="7.71" height="12.03" fill="#263238"/>
      <path d="m105.11,13.95h-15.87V1.06c5.2-1.41,10.68-1.41,15.87,0v12.89Z" fill="#cb1f46"/>
      <path d="m105.3,1.06c-.18.12-.38.22-.58.29-.55.23-1.11.44-1.68.61-.84.27-1.7.47-2.58.61-1.07.18-2.15.27-3.23.27-1.08,0-2.17-.08-3.24-.24-.87-.14-1.73-.33-2.58-.58-.57-.17-1.13-.37-1.68-.6-.21-.07-.41-.17-.59-.28,0-.05.86.31,2.32.7.85.23,1.71.4,2.58.52,1.06.15,2.13.22,3.2.22,1.07-.01,2.13-.1,3.19-.25.87-.13,1.73-.31,2.58-.55,1.42-.4,2.28-.72,2.29-.72Z" fill="#263238"/>
      <path d="m94.48,13.95c-.08,0-.14-2.48-.14-5.56s.06-5.56.14-5.56.14,2.49.14,5.56-.06,5.56-.14,5.56Z" fill="#263238"/>
      <path d="m97.5,14.02c-.08,0-.14-2.5-.14-5.59s.06-5.59.14-5.59.13,2.5.13,5.59-.06,5.59-.13,5.59Z" fill="#263238"/>
      <path d="m100.52,13.95c-.07,0-.14-2.5-.14-5.59s.07-5.59.14-5.59.14,2.5.14,5.59-.02,5.59-.14,5.59Z" fill="#263238"/>
      <path d="m103.04,13.95c-.08,0-.14-2.7-.14-6.02s.06-6.02.14-6.02.14,2.71.14,6.02-.06,6.02-.14,6.02Z" fill="#263238"/>
      <path d="m91.62,13.89c-.08,0-.14-2.7-.14-6.02s.06-6.02.14-6.02.13,2.71.13,6.02-.06,6.02-.13,6.02Z" fill="#263238"/>
      <rect x="135.5" y="28.09" width="8.7" height="5.58" transform="translate(17.41 105.17) rotate(-43.7)" fill="#263238"/>
      <path d="m145.06,33.86l-7.93-8.3,6.78-6.48c3.34,2.01,6.08,4.88,7.93,8.3l-6.78,6.48Z" fill="#cb1f46"/>
      <path d="m138.45,26.94s1.5-1.6,3.44-3.44,3.55-3.35,3.59-3.31-1.5,1.61-3.44,3.44c-1.14,1.16-2.34,2.27-3.59,3.31Z" fill="#263238"/>
      <path d="m139.97,28.56c.32-.37.67-.71,1.03-1.04.66-.63,1.57-1.47,2.58-2.41l2.62-2.37.8-.71.29-.26c-1.09,1.27-2.28,2.45-3.56,3.51-1.01.94-1.95,1.72-2.64,2.35-.35.34-.72.65-1.13.92Z" fill="#263238"/>
      <path d="m141.98,30.63c.32-.38.67-.73,1.05-1.06.67-.63,1.6-1.48,2.63-2.41l2.67-2.38c.31-.27.58-.51.86-.7.09-.09.2-.18.31-.25-.3.39-.64.76-1.01,1.07-.66.64-1.59,1.5-2.63,2.43s-1.98,1.77-2.67,2.37c-.38.34-.78.65-1.2.93Z" fill="#263238"/>
      <path d="m143.87,32.55c1.09-1.2,2.24-2.35,3.44-3.44,1.97-1.86,3.59-3.33,3.64-3.28s-1.51,1.59-3.44,3.44-3.59,3.33-3.64,3.28Z" fill="#263238"/>
      <rect x="45.72" y="29.93" width="5.58" height="8.7" transform="translate(-10.55 40.67) rotate(-41.43)" fill="#263238"/>
      <path d="m51.7,29.28l-8.59,7.6-6.2-7.04c2.14-3.25,5.11-5.87,8.59-7.6l6.2,7.04Z" fill="#cb1f46"/>
      <path d="m44.53,35.61c-.05,0-1.55-1.56-3.34-3.58s-3.21-3.68-3.16-3.72,1.54,1.56,3.34,3.57,3.21,3.69,3.16,3.73Z" fill="#263238"/>
      <path d="m46.17,34.16c-.36-.33-.7-.69-1.01-1.07-.59-.68-1.41-1.62-2.29-2.68l-2.27-2.72-.68-.86-.25-.31c1.22,1.14,2.35,2.37,3.37,3.7.86,1.06,1.72,2.03,2.25,2.73.33.38.62.78.88,1.21Z" fill="#263238"/>
      <path d="m48.35,32.23c-.36-.34-.69-.7-1-1.09-.6-.69-1.42-1.65-2.31-2.72l-2.27-2.76-.68-.86c-.16-.21-.23-.3-.24-.32.39.31.74.66,1.04,1.06.61.68,1.44,1.64,2.33,2.72s1.72,2.05,2.26,2.77c.32.38.61.78.87,1.21Z" fill="#263238"/>
      <path d="m50.35,30.43c-.05,0-1.54-1.58-3.32-3.62s-3.19-3.72-3.15-3.76,1.54,1.58,3.32,3.62,3.19,3.72,3.15,3.76Z" fill="#263238"/>
      <circle cx="95.63" cy="80.41" r="63.55" fill="#cb1f46"/>
      <circle cx="95.63" cy="80.41" r="58.39" transform="translate(-28.85 91.17) rotate(-45)" fill="#fff"/>
      <path d="m95.63,139c-32.36,0-58.59-26.23-58.59-58.59,0-32.36,26.23-58.59,58.59-58.59,32.36,0,58.59,26.23,58.59,58.59h0c-.04,32.34-26.25,58.55-58.59,58.59Zm0-116.78c-32.14,0-58.19,26.05-58.19,58.19,0,32.14,26.05,58.19,58.19,58.19,32.14,0,58.19-26.05,58.19-58.19h0c-.04-32.12-26.07-58.15-58.19-58.19Z" fill="#263238"/>
      <path d="m58.98,57.09c2.43-7.55,7.43-12.66,14.03-17.06s15.62-6.02,23.51-5.37v47.06l-37.54-24.63Z" fill="#f3725f"/>
      <path d="m58.98,57.09c2.43-7.55,7.43-12.66,14.03-17.06s15.62-6.02,23.51-5.37v47.06l-37.54-24.63Z" fill="#f9bb1e"/>
      <polygon points="91.48 81.46 65.21 61.06 95.97 75.24 96.88 80.63 91.48 81.46" fill="#f9bb1e"/>
      <g fill="none" opacity=".4">
        <polygon points="65.21 61.06 92.64 77.19 95.97 75.24 65.21 61.06"/>
      </g>
      <circle cx="96.87" cy="80.84" r="5.47" transform="translate(-23.43 42.8) rotate(-22.3)" fill="#fafbfb"/>
      <path d="m96.88,75.25c-.45.05-.89.12-1.32.22-2.04.55-3.57,2.22-3.94,4.3-.27,1.46.08,2.97.97,4.16.32.43.7.81,1.13,1.13,1.88,1.38,4.43,1.38,6.31,0,.43-.31.82-.69,1.13-1.13.31-.41.56-.86.73-1.35.63-1.71.34-3.62-.75-5.07-.73-.97-1.77-1.68-2.95-1.99-.44-.1-.88-.17-1.32-.22.45-.03.91,0,1.35.12,1.22.29,2.31.99,3.07,1.99.54.68.9,1.48,1.06,2.33.3,1.53-.06,3.11-.98,4.36-.33.46-.73.86-1.19,1.19-.96.71-2.12,1.09-3.31,1.09-1.19,0-2.35-.39-3.31-1.09-.89-.65-1.56-1.55-1.94-2.58-.34-.94-.41-1.96-.22-2.94.16-.85.52-1.65,1.06-2.33.76-1,1.85-1.7,3.07-1.99.44-.14.89-.2,1.35-.19Z" fill="#263238"/>
      <path d="m96.88,76.69c2.25,0,4.06,1.82,4.06,4.06s-1.82,4.06-4.06,4.06-4.06-1.82-4.06-4.06h0c0-2.25,1.82-4.06,4.06-4.06Z" fill="#263238"/>
      <path d="m96.62,79.12s-1.13-35.19.51-42.62c0,0,2.72,21.34-.51,42.62Z" fill="#263238"/>
      <path d="m93.44,134.39h-.08l.16-4.38h.12l-.21,4.38Zm21.91-3.56l-1.64-4.07.12-.05,1.58,4.1-.06.03Zm-43.46-2.1h-.06l1.95-3.93.11.05-2,3.88Zm62.07-10.1l-3.13-3.08.09-.09,3.1,3.11-.06.05Zm-79.43-3.82l-.07-.09,3.44-2.78.06.08-3.43,2.78Zm91.51-14.93l-4.12-1.53v-.11l4.1,1.57.02.07Zm-101.73-4.89v-.11l4.25-1.13v.08l-4.25,1.16Zm100.75-16.87v-.07l4.37-.27v.12l-4.37.21Zm0-.08v-.1l4.38-.26v.09l-4.38.27Zm-97.7-4.59l-4.3-.65v-.1l4.3.66v.09Zm92.32-15.11v-.08l3.89-2.02.05.09-3.94,2Zm-85.08-4l-3.7-2.37.05-.08,3.7,2.36-.06.09Zm72.19-11.81l-.08-.06,2.74-3.44.08.06-2.74,3.44Zm-57.8-2.73l-2.41-3.67.07-.05,2.43,3.66-.09.06Zm39.53-6.48h-.09l1.1-4.3h.11l-1.13,4.3Zm-20.51-.95l-.71-4.3h.09l.71,4.3h-.09Z" fill="#263238"/>
      <path d="m166.81,132.39c0,.06-5.41.1-12.08.1s-12.09,0-12.09-.1,5.41-.1,12.09-.1,12.08.04,12.08.1Z" fill="#263238"/>
      <path d="m174.45,129.68c0,.06-5.41.1-12.08.1s-12.09,0-12.09-.1,5.41-.1,12.09-.1,12.08.04,12.08.1Z" fill="#263238"/>
      <path d="m28.89,114.5c0,.06-5.02.1-11.17.1s-11.17,0-11.17-.1,5.02-.1,11.17-.1,11.17.02,11.17.1Z" fill="#263238"/>
      <path d="m35.94,111.77c0,.06-5.02.1-11.17.1s-11.22,0-11.22-.1,5.03-.1,11.22-.1,11.17.04,11.17.1Z" fill="#263238"/>
      <path d="m121.76,60.61c.59-.5,1.44-.57,2.11-.17,1.1-.31,2.28.18,2.84,1.18,1.21-.19,2.35.63,2.55,1.85.06.36.03.72-.09,1.07,1,.22,1.63,1.21,1.41,2.21-.13.57-.52,1.05-1.05,1.29.75.64.85,1.77.21,2.52-.54.63-1.44.81-2.18.44l-6.25-8.32c-.3-.71-.12-1.54.46-2.06Z" fill="#263238"/>
      <path d="m127.71,71.32c1.14-3.78-.81-7.8-4.48-9.24l-.36-.15c-4.02-1.31-7.39,1.37-8.59,5.42l-4.58,13.32-.11,1.86,4.09,6.16,3.44-1.6,1.99-3.73s4,.86,5.54-2.86c.77-1.81,1.99-5.68,3.06-9.19Z" fill="#fbbd9d"/>
      <path d="m119.18,83.37c-1.76-.7-3.29-1.89-4.38-3.44,0,0-.16,3.38,3.75,4.52l.64-1.08Z" fill="#ec996f"/>
      <path d="m125.24,74.39c-.11.29-.43.44-.73.34,0,0,0,0,0,0-.29-.08-.46-.39-.38-.68,0,0,0-.02,0-.02.12-.29.44-.44.74-.34.29.09.46.4.37.69,0,0,0,.01,0,.02Z" fill="#263238"/>
      <path d="m126.14,73.05c-.09,0-.39-.42-.97-.64s-1.12-.1-1.15-.2.09-.15.34-.21c.32-.08.66-.06.96.07.3.12.56.33.73.6.13.21.14.36.09.38Z" fill="#263238"/>
      <path d="m120.17,72.68c-.12.29-.44.44-.74.34-.29-.09-.46-.41-.36-.7,0,0,0,0,0,0,.1-.3.43-.47.73-.37.3.1.47.43.37.73h0Z" fill="#263238"/>
      <path d="m120.61,70.78c-.09.05-.39-.41-.97-.64s-1.12-.1-1.15-.2.09-.15.34-.21c.32-.07.66-.05.96.07.3.12.56.33.73.61.13.21.14.35.09.37Z" fill="#263238"/>
      <path d="m120.83,75.83c.35.02.69.09,1.01.2.15,0,.31.07.37,0,.07-.15.1-.31.08-.47v-1.31c-.03-1.11.03-2.23.18-3.33.12,1.11.15,2.23.09,3.34v1.31c.02.21-.04.43-.15.61-.09.09-.21.13-.33.12-.09-.01-.18-.03-.27-.07-.34-.09-.68-.22-.99-.4Z" fill="#263238"/>
      <path d="m121.08,69.07c-.11.14-.59-.14-1.23-.29s-1.19-.16-1.22-.34.14-.2.39-.27c.33-.09.68-.09,1.01,0,.32.08.62.25.86.48.19.18.25.34.2.41Z" fill="#263238"/>
      <path d="m124.8,70.22c.15-.1.51.17,1,.34s.94.21.99.38-.09.2-.32.27c-.29.07-.58.05-.86-.05-.29-.1-.54-.29-.71-.53-.19-.2-.19-.35-.09-.4Z" fill="#263238"/>
      <path d="m128.03,69.44s-.07-2.76-1-3.76c-1.12-1.21-2.3.07-3.48-.86s-2.23-2.05-3.98-1.56c-1.92.53-1.53,1.59-2.28,3.23-3.04,6.65-5.04,8.09-4.13,4.74.09-.37-.76-1.03-.33-2.58.57-1.99,1.41-4.36,2.37-5.55.85-1.01,2.01-1.7,3.3-1.96,2.41-.65,4.97.32,6.63,1.18s4.22,4.21,2.9,7.11Z" fill="#263238"/>
      <path d="m113.44,71.27c.21-.57-.09-1.2-.66-1.41-.02,0-.04-.01-.05-.02-.73-.21-1.68-.11-2.2,1.36-.94,2.62,1.88,3.02,1.92,2.94s.62-1.75,1-2.87Z" fill="#fbbd9d"/>
      <path d="m112.22,72.96h-.15c-.12,0-.25-.03-.34-.11-.26-.34-.32-.8-.15-1.2.07-.23.19-.43.36-.6.11-.15.28-.24.46-.23.12,0,.22.1.22.22v.14s.07,0,.09-.14c0-.07,0-.14-.04-.2-.05-.08-.14-.14-.23-.16-.23-.03-.47.06-.62.24-.19.19-.33.42-.42.67-.2.47-.09,1.01.27,1.37.13.09.29.12.44.08.09,0,.13-.06.12-.07Z" fill="#ec996f"/>
      <path d="m115.46,66.29c.21.38.5.7.86.94.39.23.89.13,1.17-.22.1-.17.15-.4.32-.49s.45,0,.65.15c.76.37,1.66.15,2.17-.52.13.35.5.54.86.46.35-.11.69-.27,1-.47.32-.21.72-.24,1.07-.09.18.1.31.28.52.34.34.1.67-.23.86-.55s.38-.69.74-.76c.34,0,.67.12.94.34.29.16.72.25.93,0,.09-.15.12-.34.07-.51-.18-.81-.89-1.4-1.72-1.42-2.11-.84-4.08-2-5.84-3.44-.8-.11-1.6.16-2.17.74-.58-.42-1.36-.45-1.98-.09-.6.38-.94,1.07-.86,1.78-.58.05-1.1.4-1.37.92-.21.5.02,1.07.52,1.28.05.02.09.04.14.05-.37.36-.42.94-.11,1.36.34.4.92.48,1.35.19" fill="#263238"/>
      <path d="m114.2,64.66s-.14.2,0,.56c.06.21.2.4.4.51.26.17.58.2.86.08l-.1-.06c.04.3.13.59.27.86.09.18.21.34.35.48.15.12.32.21.51.25.31.09.64.04.91-.14.17-.12.31-.28.42-.46.08-.12.11-.19.1-.2s-.06.05-.15.16c-.12.15-.27.29-.43.4-.56.29-1.24.07-1.53-.48-.02-.03-.03-.06-.04-.09-.12-.25-.21-.52-.25-.79v-.09h-.09c-.43.15-.9-.06-1.07-.48-.08-.16-.13-.32-.15-.5Z" fill="#455b64"/>
      <path d="m121.4,60.65s.06.05.15.15c.14.13.24.31.27.5v.06h.06c.49-.31,1.06-.49,1.64-.52.38-.01.75.05,1.11.18.39.15.72.41.97.74.19.26.34.55.41.86.06.28.06.58,0,.86v.09h.09c.4.04.77.24,1.02.55.2.24.32.54.34.86.02.29-.03.59-.15.86,0,0,.06-.06.12-.2.08-.2.12-.41.11-.63,0-.34-.12-.67-.34-.94-.27-.35-.66-.57-1.1-.62l.06.09c.08-.32.08-.65,0-.96-.07-.34-.22-.66-.43-.94-.27-.36-.63-.63-1.05-.79-.37-.14-.77-.2-1.16-.17-.61.04-1.21.24-1.72.58h.07c-.05-.2-.16-.39-.33-.52-.05-.04-.1-.07-.16-.09Z" fill="#455b64"/>
      <path d="m120.74,78.05c-.06,0-.28-.46-.77-.86-.32-.23-.65-.44-.99-.63.83.08,1.52.68,1.72,1.5h.04Z" fill="#263238"/>
      <path d="m148.43,97.62c1.6.1,3.19.3,4.76.58.1.4-.13.8-.53.9-.11.03-.22.03-.33,0-1.01,0-4.3-.29-4.3-.29l-2.11.93-.7-.3,3.2-1.83Z" fill="#ec996f"/>
      <path d="m139.56,98.43l6.14.58.96.11s2.26-.82,2.68-.86,4.22,1.99,4.22,1.99c0,0,.15.86-.92.65-.81-.2-1.6-.49-2.35-.86,0,0-3.44,1.61-4.13,1.92s-4.8.29-4.8.29l-1.44.95-.36-4.77Z" fill="#fbbd9d"/>
      <path d="m141.98,107.85l2.5-1.59,8.59-3.07s.76-.69.37-.96-9.56,1.1-9.56,1.1l-1.93,1.08.02,3.44Z" fill="#fbbd9d"/>
      <path d="m117.67,101.74c0,.48-7.49,12.82-9.61,15.91-3.15,4.57-6.32,5.16-6.32,5.16l-4.19-3.51,17.27-18.73,5.16-3.74-2.31,4.91Z" fill="#455b64"/>
      <path d="m113.81,107.34s6.72,3.03,9.24,3.44c2.96.51,19.21-.64,19.21-.64l-.31-6.47-23.74-.54-2.84-.75-1.56,4.96Z" fill="#199ed9"/>
      <g fill="none" opacity=".3">
        <path d="m116.02,102.23c-.49.21-.77,1.51-1.14,1.91-3.94,4.13-6.82,8.79-10.88,12.53-1.72,1.61-3.74,2.99-6.11,2.87l2.42,2.06c2.02,0,3.36-1,4.89-2.32s2.17-3.24,3.34-4.88c2.68-3.75,5.3-7.94,7.98-11.68-.13-.52-.02-.71-.51-.49Z"/>
      </g>
      <path d="m98.59,119.5s3.51.27,4.83-.56c1.58-.98,15.61-19.36,15.61-19.36l.12-14.35-7.91-7.55-.82,1.25-16.83,19.2-10.79,10.24,12.94,6.95,2.84,4.19Z" fill="#e0e0e0"/>
      <path d="m115.85,99.15c-.42.51.26,7.73-9.17,8.75-7.96.86-24.55,0-29.53-.33-1.28-.06-2.27-1.13-2.23-2.41.04-.58.32-1.11.78-1.46,1.72-1.44,3.62-1,4.71-3.95s.59-4.06,2.53-5.23c2.72-1.66,9.4,1.38,9.4,1.38,1.72-2.54,2.58-4.78,4.92-7.8,1.91-2.45,4.49-5.8,6.58-6.99,1.25-.61,2.54-1.12,3.86-1.53l1.3-.22.86-1.13c1.27,1.3,6.02,5.67,6.88,7.19l.95,5.59-1.84,8.15Z" fill="#199ed9"/>
      <g fill="none" opacity=".3">
        <path d="m138.02,104.83c-6.87-.33-13.71-1.16-20.46-2.48l-.47,1.03c4.45,2.78,7.53,2.88,10.91,3.13s6.51-.28,9.77-.28c.25-.42.34-.91.26-1.39Z"/>
      </g>
      <g fill="none" opacity=".3">
        <path d="m103.51,90.2l-2.58.16c1.05,3.44,2.75,4.6,5.65,6.73s3.36,2.76,6.63,4.22c.32.15,2.79,1.72,2.87,1.36-5.58-3.45-8.83-7.07-12.57-12.47Z"/>
      </g>
      <path d="m101.03,87.96c-.92,2.58.75,3.73.75,3.73,0,0,13.57,12.33,19.05,12.95s19.84-.14,19.84-.14v-6.69l-17.51-1.88s-7.04-8.3-10.93-12.46" fill="#199ed9"/>
      <path d="m112.23,83.47l.21.21.6.64c.52.55,1.28,1.38,2.23,2.45,1.93,2.14,4.66,5.26,7.96,9.12h-.06l17.51,1.86h.09v6.88h-.1l-3.14.15c-4.44.17-8.73.29-12.78.21l-1.5-.04c-.5,0-1-.05-1.49-.09-.49-.03-.97-.08-1.45-.17-.23-.05-.47-.12-.7-.19l-.67-.24c-1.67-.71-3.26-1.57-4.76-2.58-2.88-1.92-5.33-3.85-7.4-5.54s-3.76-3.18-5.04-4.3h0c-.46-.38-.79-.9-.93-1.48-.1-.42-.12-.85-.06-1.28.03-.26.1-.51.18-.76.02-.08.05-.17.09-.25,0,0,0,.09-.07.25-.07.25-.12.51-.15.76-.05.42-.03.84.08,1.25.15.56.47,1.06.92,1.43h0c1.28,1.13,2.98,2.58,5.06,4.3s4.53,3.6,7.41,5.5c1.49,1.01,3.08,1.87,4.74,2.58.21.09.44.16.66.24s.46.13.69.18c.47.08.95.14,1.43.17l1.48.09,1.5.04c4.04.08,8.33-.04,12.77-.21l3.14-.15-.09.1v-6.69l.09.09-17.5-1.9h0c-3.28-3.87-6.02-7-7.9-9.16l-2.2-2.48-.58-.64-.22-.34Z" fill="#263238"/>
      <path d="m117.13,103.26c-.11.21-.24.41-.38.6l-1.05,1.62c-.86,1.37-2.08,3.27-3.39,5.38s-2.5,4.02-3.39,5.4c-.44.68-.8,1.23-1.06,1.61-.12.2-.26.4-.42.58,0,0,.12-.22.35-.62l1.01-1.64,3.33-5.42c1.31-2.11,2.53-4.01,3.44-5.35.46-.68.86-1.22,1.11-1.58.13-.2.28-.39.45-.56Z" fill="#263238"/>
      <path d="m157.76,101.61l-16.41,2.51c-.31.05-.61-.16-.66-.48,0,0,0,0,0,0v-.16c-.05-.32.17-.61.49-.66l17.39-2.58-.21.86c-.08.28-.32.48-.61.52Z" fill="#e0e0e0"/>
      <path d="m157.76,101.61c.14-.04.27-.11.37-.21.12-.13.19-.29.21-.46,0-.21.1-.45.16-.71l.05.05c-2.9.46-9.45,1.46-17.04,2.58-.15.02-.31.05-.46.09-.13.05-.22.15-.27.27-.02.06-.02.13,0,.2v.22c.03.13.1.24.21.31.12.07.26.09.4.05l.46-.07.93-.15,3.52-.53,5.95-.86,4.01-.58,1.1-.15h.38-.09l-.28.05-1.08.19-4,.64-5.95.93-3.52.55-.92.14-.46.08c-.18.04-.37.01-.53-.08-.16-.1-.28-.26-.32-.45,0-.08,0-.17,0-.25-.02-.09-.02-.19,0-.28.07-.18.21-.33.39-.4.17-.05.34-.08.51-.09,7.6-1.13,14.15-2.07,17.05-2.47h.07v.06c-.07.27-.14.5-.19.71-.03.18-.11.34-.24.47-.08.08-.18.13-.29.16l-.12-.02Z" fill="#263238"/>
      <path d="m157.29,100.43l4.92-16.54c.09-.31.42-.49.72-.4,0,0,0,0,0,0h.15c.31.09.49.42.4.72,0,0,0,0,0,0l-5.16,16.96-1.03-.76Z" fill="#e0e0e0"/>
      <path d="m157.29,100.43h.08l.2.15.76.58h-.06c.74-2.58,2.78-9.27,5.16-17.07.01-.14-.03-.28-.13-.38-.11-.1-.24-.16-.38-.18-.27-.06-.54.11-.6.38,0,0,0,.02,0,.03-.18.62-.36,1.22-.54,1.81-.35,1.19-.7,2.34-1.02,3.44-.66,2.18-1.25,4.15-1.72,5.81s-.91,2.98-1.2,3.93c-.14.46-.25.81-.34,1.07l-.09.27v.1s0-.06,0-.09l.08-.27c.07-.26.17-.61.29-1.07l1.13-3.93c.49-1.72,1.07-3.65,1.72-5.85l1.02-3.44.54-1.83c.04-.18.15-.34.3-.45.16-.11.36-.15.55-.09.08.02.17.04.25.08.09.04.17.09.23.16.14.14.2.34.18.53-.02.13-.06.26-.1.39l-.11.37c-.07.24-.15.48-.21.72l-.44,1.42c-.29.94-.57,1.85-.86,2.73-.54,1.77-1.05,3.44-1.51,4.9l-2.05,6.55v.05h-.04l-.74-.62-.34-.2Z" fill="#263238"/>
      <path d="m115.7,86.47s-.34-.44-.86-1.14c-.7-.9-1.44-1.76-2.23-2.58-.92-.98-1.81-1.82-2.46-2.42-.36-.31-.71-.64-1.04-.99,0,0,.12.07.32.21s.48.38.82.67c.88.75,1.72,1.54,2.52,2.38.8.84,1.53,1.73,2.2,2.68.26.37.45.67.58.86s.18.32.16.33Z" fill="#263238"/>
      <g fill="none" opacity=".3">
        <path d="m109.82,107.24c-1.16.31-10.31-.32-14.95-1.79-3.1-.9-6.04-2.28-8.71-4.09-1.69-1.24-3.15-2.78-4.3-4.54-.53-.3-.86,1.29-1.09,1.95s-.64,2.38-1.86,3.18c-1.5.96-3.79,1.28-3.99,3.27-.04,1.25.95,2.3,2.2,2.34.01,0,.03,0,.04,0,3.94.19,14.78.71,17.68.7,3.53,0,11.14.22,14.99-1.02Z"/>
      </g>
      <path d="m111.28,106.54s-.08.08-.26.22c-.27.17-.56.3-.86.39-1.17.25-2.36.33-3.55.22-1.5-.07-3.27-.29-5.24-.58-2.14-.28-4.26-.69-6.34-1.23-2.08-.54-4.1-1.32-6.02-2.31-1.56-.83-3-1.85-4.3-3.04-.88-.8-1.66-1.7-2.34-2.68-.19-.28-.36-.56-.52-.86-.07-.09-.12-.19-.16-.3.07.09.14.18.2.27.11.19.3.46.54.8.7.93,1.5,1.8,2.37,2.58,1.3,1.16,2.75,2.16,4.3,2.97,1.91.98,3.93,1.75,6.02,2.29,2.08.53,4.18.95,6.31,1.24,1.97.29,3.73.53,5.23.62,1.18.11,2.36.06,3.52-.15.3-.08.59-.19.86-.34l.24-.1Z" fill="#263238"/>
      <path d="m113.14,104.29s-.31-.19-.61-.51-.5-.61-.46-.64.31.19.61.51.5.61.46.64Z" fill="#263238"/>
      <path d="m110.5,83.05c-.5-.15-1.01-.28-1.52-.38-1.24-.21-2.51-.09-3.7.34-1.18.44-2.22,1.17-3.04,2.11-.63.74-.86,1.29-.92,1.26.03-.14.09-.27.16-.39.18-.34.4-.67.64-.97.81-1.01,1.87-1.77,3.09-2.22,1.21-.43,2.52-.53,3.79-.28.38.08.75.19,1.12.33.25.11.39.18.38.2Z" fill="#263238"/>
      <path d="m106.78,101.61l-.15.06c-.15.06-.3.11-.46.15-.56.14-1.14.21-1.72.19-.86-.03-1.71-.18-2.53-.46-1-.33-1.96-.76-2.85-1.31-.96-.58-1.83-1.18-2.58-1.72s-1.5-1.03-2.12-1.41-1.13-.66-1.49-.86c-.19-.08-.38-.18-.56-.29h.15l.44.18c.52.23,1.04.5,1.53.79,1.27.71,2.88,1.94,4.77,3.09.89.53,1.83.97,2.81,1.31.8.27,1.63.44,2.47.49.76.03,1.52-.04,2.27-.21Z" fill="#263238"/>
      <path d="m110.5,106.56h-.3l-.86-.05c-.37,0-.86-.05-1.37-.1s-1.15-.1-1.82-.2-1.4-.17-2.19-.32-1.62-.28-2.49-.46c-1.9-.41-3.77-.93-5.61-1.56-1.84-.65-3.62-1.41-5.35-2.3-.79-.43-1.54-.86-2.21-1.25-.34-.21-.67-.4-.98-.62l-.86-.6c-.56-.38-1.03-.77-1.46-1.1-.21-.16-.41-.32-.58-.46l-.47-.41-.65-.58c-.08-.07-.15-.14-.21-.21.09.05.17.11.25.18l.67.55.48.4c.18.15.39.29.6.46.43.31.9.7,1.47,1.07l.86.59c.31.2.64.39.98.59.67.43,1.43.86,2.21,1.24,1.73.88,3.51,1.64,5.34,2.28,1.83.62,3.69,1.14,5.58,1.56.86.18,1.72.36,2.49.49s1.51.24,2.18.34,1.27.16,1.8.22.99.11,1.37.15l.86.09.29.04Z" fill="#263238"/>
      <path d="m105.66,169.76l-.65,10.81,16.38.12c-.09-1.56-8.53-4.77-8.53-4.77l.25-5.86-7.44-.3Z" fill="#f3725f"/>
      <path d="m107.79,175.18c-.33.1-.53.43-.46.76.08.33.41.53.75.46.35-.1.56-.45.49-.81-.12-.34-.5-.52-.85-.4,0,0,0,0-.01,0" fill="#e0e0e0"/>
      <path d="m105.01,180.57v-1.38l15.75.72s.72.33.63.86l-16.38-.2Z" fill="#263238"/>
      <path d="m113.12,175.85c0,.08-.4.11-.8.37s-.61.58-.69.55.05-.49.54-.79.96-.21.95-.13Z" fill="#e0e0e0"/>
      <path d="m114.83,176.57c0,.08-.33.21-.6.55s-.36.69-.44.69-.13-.46.22-.86.82-.46.82-.38Z" fill="#e0e0e0"/>
      <path d="m115.79,178.63c-.08,0-.18-.39,0-.82s.58-.61.62-.54-.21.29-.37.65-.17.7-.25.7Z" fill="#e0e0e0"/>
      <path d="m112.99,173.91c0,.07-.4-.04-.86,0s-.8.17-.86.1.3-.35.86-.38.89.21.86.27Z" fill="#e0e0e0"/>
      <path d="m112.61,171.97c-.28.08-.58.08-.86,0-.3-.05-.58-.14-.86-.27-.16-.07-.32-.16-.47-.26-.09-.05-.17-.11-.24-.19-.1-.13-.1-.3,0-.43.08-.11.21-.18.35-.18.1-.01.2-.01.3,0,.18.05.35.11.52.18.27.13.53.3.75.51.38.35.51.65.48.67s-.22-.23-.61-.52c-.22-.17-.46-.31-.72-.41-.15-.06-.31-.11-.47-.15-.17-.04-.32-.04-.37,0s0,0,0,.09c.05.05.12.1.18.15.14.09.29.18.44.25.25.13.52.23.79.31.27.06.54.15.8.26Z" fill="#e0e0e0"/>
      <path d="m112.51,172.08s-.19-.27-.21-.8c0-.29.03-.58.12-.86.05-.17.13-.34.21-.5.09-.22.29-.38.52-.41.15,0,.28.1.34.23.04.1.07.2.08.3.03.18.03.37,0,.56-.05.31-.17.61-.36.86-.32.42-.65.52-.66.49s.25-.2.5-.6c.15-.23.24-.49.27-.76.02-.16.02-.32,0-.47,0-.18-.09-.32-.15-.3s-.22.13-.29.27c-.08.14-.15.29-.21.44-.09.28-.15.57-.16.86-.03.39.05.7,0,.7Z" fill="#e0e0e0"/>
      <path d="m49.99,143.93l-10.57-2.4-2.78,16.14c1.56.17,6.09-7.65,6.09-7.65l5.74,1.2,1.51-7.3Z" fill="#f3725f"/>
      <path d="m44.3,145.15c-.04-.34-.33-.59-.67-.58-.34.03-.6.32-.58.66.04.36.35.63.71.62.35-.07.59-.4.53-.76" fill="#e0e0e0"/>
      <path d="m39.42,141.53l1.37.21-3.27,15.47s-.44.66-.93.49l2.83-16.17Z" fill="#263238"/>
      <path d="m42.78,150.3c-.08,0-.04-.41-.23-.86s-.48-.7-.44-.76.48.13.7.65.04,1.01-.03.97Z" fill="#e0e0e0"/>
      <path d="m41.79,151.87c-.08,0-.15-.36-.45-.68s-.63-.46-.61-.54.47-.05.86.36.27.88.2.86Z" fill="#e0e0e0"/>
      <path d="m39.62,152.49c0-.08.4-.12.8.15s.51.68.44.7-.27-.24-.59-.46-.64-.31-.64-.39Z" fill="#e0e0e0"/>
      <path d="m44.7,150.49c-.06,0,.11-.39.15-.86s0-.86.04-.86.29.35.23.86-.35.91-.43.86Z" fill="#e0e0e0"/>
      <path d="m46.69,150.43c-.03-.28.03-.56.15-.81.1-.28.24-.55.4-.8.1-.15.21-.29.33-.42.06-.08.14-.15.23-.21.12-.1.3-.1.42,0,.1.1.14.24.12.38-.02.1-.05.2-.09.29-.07.17-.16.32-.26.47-.17.25-.38.48-.62.66-.4.32-.72.4-.74.36s.27-.18.61-.51c.21-.19.38-.41.53-.65.09-.14.16-.29.22-.44.08-.16.1-.31,0-.37s0,0-.09,0c-.06.05-.12.1-.17.15-.11.13-.22.26-.32.39-.17.23-.31.47-.43.73-.08.26-.18.52-.29.76Z" fill="#e0e0e0"/>
      <path d="m46.59,150.31c.27-.12.57-.15.86-.08.3.04.59.13.86.27.16.08.31.17.46.28.2.13.32.35.32.59-.03.14-.14.25-.28.29-.1.02-.21.02-.31,0-.19,0-.37-.03-.55-.09-.29-.1-.56-.27-.77-.49-.36-.39-.4-.73-.37-.73s.15.28.51.59c.21.18.45.31.71.39.15.04.31.06.47.06.17,0,.33,0,.32-.1s-.09-.23-.21-.33c-.13-.1-.26-.19-.4-.27-.24-.14-.51-.23-.78-.29-.51-.07-.82-.04-.82-.09Z" fill="#e0e0e0"/>
      <path d="m81.2,109.71c-.58.93-6.64,4.13-6.5,13.61l-3.95,20.76-23.65-2.22-2.19,9.5,30.01,4.95s4.24,1.02,6.72-3.94,9.13-23.06,9.27-23.5,4.23-11.09,4.23-11.09l-13.94-8.07Z" fill="#363535"/>
      <path d="m76.82,116.77c-.05.28-1.62,6.3,4.58,10.78,6.2,4.48,24.31,16.02,24.31,16.02l.47,1.91-1.62,28.15,10.31.2s2.99-27.67,3.09-30.53-.22-6.78-3.88-9.94l-19.19-16.57s-12.89-7.15-12.79-7.06-4.51,2.87-5.28,7.06Z" fill="#363535"/>
      <path d="m81.2,109.71l1.38-1.85c3.46,1.43,6.77,3.19,9.89,5.27,2.47,1.79,6.09,4.19,5.78,6.74l-17.04-10.16Z" fill="#263238"/>
      <path d="m105.71,143.57l-.11-.05-.29-.18-1.13-.7-4.13-2.63c-3.44-2.24-8.29-5.32-13.54-8.82-1.32-.86-2.58-1.8-3.79-2.63-1.19-.8-2.32-1.69-3.37-2.67-.96-.89-1.73-1.98-2.23-3.19-.4-1.07-.59-2.2-.58-3.34,0-1.65.38-3.27,1.13-4.74.21-.4.45-.77.72-1.13l.22-.27.08-.09-.06.09-.21.28c-.26.36-.49.74-.68,1.13-.71,1.47-1.07,3.08-1.06,4.71,0,1.12.2,2.23.6,3.28.5,1.18,1.26,2.24,2.21,3.11,1.04.97,2.17,1.85,3.35,2.64,1.23.86,2.47,1.72,3.78,2.58,5.25,3.5,10.06,6.6,13.51,8.87l4.1,2.69,1.11.74.28.2.09.11Z" fill="#455b64"/>
      <path d="m106.66,126.97s-.07,0-.18-.12l-.48-.4-1.72-1.46-5.72-4.89c-1.86-1.67-3.86-3.19-5.97-4.55-.81-.53-1.46-.95-1.92-1.24l-.52-.34-.17-.12.2.09.54.3c.46.27,1.13.66,1.95,1.18,2.14,1.32,4.15,2.83,6.02,4.52l5.68,4.93,1.72,1.51.46.42s.09.1.13.15Z" fill="#455b64"/>
      <path d="m74.35,150.02c-1.34-1.86-2.57-3.79-3.69-5.79.7.9,1.35,1.85,1.93,2.84.65.95,1.23,1.94,1.75,2.96Z" fill="#455b64"/>
      <path d="m76.04,148.18c-.85-.56-1.66-1.18-2.43-1.85-.81-.62-1.58-1.3-2.3-2.02.85.57,1.66,1.19,2.43,1.86.82.61,1.59,1.29,2.3,2.01Z" fill="#455b64"/>
      <path d="m110.72,141.74c0,.06-1.19.4-2.65.86s-2.64.86-2.66.86c.23-.15.48-.27.74-.36.46-.19,1.12-.43,1.86-.66s1.41-.42,1.9-.53c.26-.09.53-.14.81-.16Z" fill="#455b64"/>
      <path d="m111.37,145.11c-.84.1-1.68.16-2.53.18-.84.09-1.68.14-2.53.15.82-.22,1.67-.34,2.52-.35.84-.08,1.69-.07,2.54.03Z" fill="#455b64"/>
      <path d="m42.34,172.55c3.83-4.16,9.09-6.71,14.73-7.12-1.4-2.18-3.89-6.44-5.29-8.59-7.46,0-13.25,4.3-17.19,10.52,2.78,1.95,5.04,3.21,7.75,5.2Z" fill="#e0e0e0"/>
      <path d="m42.34,172.55l-.14-.08-.4-.27-1.55-1.04c-1.34-.86-3.33-2.11-5.69-3.78h-.06v-.06c.73-1.16,1.53-2.26,2.41-3.32,1.01-1.19,2.13-2.27,3.36-3.23,1.35-1.05,2.83-1.92,4.4-2.58,1.69-.71,3.47-1.16,5.29-1.33.29-.04.57-.06.86-.06l.86-.04h.06v.05c1.93,3.05,3.64,6.02,5.29,8.59l.09.13h-.15c-2.25.17-4.47.68-6.57,1.5-1.64.65-3.19,1.49-4.62,2.52-.93.67-1.82,1.39-2.66,2.17l-.67.63-.16.16h-.06l.05-.06.16-.17c.15-.15.35-.37.64-.64.82-.8,1.7-1.54,2.63-2.22,1.43-1.05,2.98-1.92,4.62-2.58,2.12-.84,4.35-1.36,6.62-1.55l-.07.15c-1.67-2.58-3.38-5.58-5.3-8.59l.09.05h-.86c-.29,0-.57.02-.86.06-1.8.17-3.57.62-5.24,1.31-1.56.66-3.03,1.53-4.37,2.58-1.21.95-2.33,2.02-3.33,3.19-.87,1.04-1.68,2.14-2.41,3.29v-.1c2.34,1.72,4.3,2.91,5.65,3.83.67.46,1.18.86,1.52,1.07l.39.29.2.13Z" fill="#263238"/>
      <path d="m38.03,165.69c1.83,1.23,3.58,2.56,5.25,4-.93-.59-1.83-1.23-2.69-1.92-.9-.64-1.75-1.34-2.56-2.09Z" fill="#263238"/>
      <path d="m39.55,163.76c.88.66,1.72,1.38,2.51,2.15.84.72,1.63,1.49,2.37,2.3-.88-.66-1.72-1.38-2.51-2.15-.84-.72-1.63-1.49-2.37-2.3Z" fill="#263238"/>
      <path d="m41.83,161.94c.25.21.48.44.68.69.4.43.95,1.03,1.58,1.72s1.18,1.25,1.56,1.72c.22.24.41.5.57.78-.25-.2-.47-.43-.68-.68l-1.6-1.72c-.62-.65-1.17-1.26-1.54-1.72-.22-.24-.41-.51-.57-.79Z" fill="#263238"/>
      <path d="m48.14,166.07c-.24-.2-.46-.44-.65-.7-.49-.6-.94-1.22-1.37-1.86-.51-.75-.92-1.44-1.22-1.96-.17-.27-.32-.56-.45-.86.66.86,1.27,1.76,1.84,2.69.5.74.96,1.4,1.31,1.88.2.25.38.52.53.8Z" fill="#263238"/>
      <path d="m49.93,165.35c-.21-.21-.39-.44-.54-.7-.31-.44-.71-1.07-1.12-1.8s-.73-1.39-.95-1.89c-.15-.27-.25-.56-.31-.86.06,0,.64,1.19,1.44,2.58s1.53,2.63,1.48,2.66Z" fill="#263238"/>
      <path d="m52.33,164.57c-.21-.21-.4-.45-.55-.7-.32-.45-.74-1.08-1.18-1.8s-.86-1.38-1.07-1.87c-.16-.27-.28-.56-.37-.86.19.23.36.48.5.75l1.12,1.84,1.13,1.83c.17.26.32.53.43.82Z" fill="#263238"/>
      <path d="m75.12,122.07c-6.16.3-12.21-1.76-16.9-5.76-.58,2.77-1.92,7.98-2.5,10.76,5.83,5.68,13.55,6.88,21.4,4.99-.62-3.65-1.39-6.34-1.99-9.99Z" fill="#fafbfb"/>
      <path d="m75.12,122.07v.17l.1.52.4,1.99c.35,1.72.97,4.2,1.52,7.3v.07h-.07c-1.45.34-2.92.59-4.41.73-1.69.15-3.4.13-5.09-.06-1.85-.21-3.67-.67-5.41-1.36-1.86-.74-3.6-1.76-5.16-3.03-.26-.2-.5-.41-.74-.64l-.71-.65h-.04v-.06c.86-3.85,1.8-7.46,2.51-10.75v-.15l.12.1c1.89,1.59,4,2.89,6.27,3.87,1.77.75,3.62,1.28,5.52,1.58,1.24.19,2.48.3,3.73.34h1-.98c-1.25,0-2.51-.11-3.75-.29-1.91-.28-3.79-.8-5.57-1.55-2.28-.98-4.41-2.28-6.32-3.88l.15-.05c-.7,3.31-1.65,6.88-2.49,10.76v-.09l.7.64c.23.21.47.43.73.63,1.53,1.25,3.24,2.26,5.08,3,1.72.68,3.52,1.14,5.35,1.35,1.67.19,3.36.22,5.04.09,1.48-.14,2.94-.38,4.39-.7l-.06.09c-.52-3.1-1.13-5.58-1.45-7.31-.17-.86-.28-1.54-.36-2l-.08-.52c.06-.07.05-.14.05-.14Z" fill="#263238"/>
      <path d="m73.21,130.7c-.28-1.17-.48-2.35-.61-3.55-.21-1.19-.34-2.38-.4-3.58.27,1.17.48,2.36.61,3.55.2,1.19.33,2.38.4,3.58Z" fill="#263238"/>
      <path d="m70.56,131.04c-.17-1.19-.27-2.39-.29-3.59-.09-1.2-.12-2.41-.09-3.61.17,1.19.27,2.39.29,3.59.1,1.2.13,2.41.09,3.61Z" fill="#263238"/>
      <path d="m67.38,130.69c-.03-.35-.03-.7,0-1.05,0-.64.05-1.53.07-2.52s.05-1.87.1-2.52c0-.35.06-.7.15-1.04.02.35.02.7,0,1.05,0,.71,0,1.57-.04,2.52s-.06,1.88-.12,2.53c-.02.35-.07.69-.16,1.03Z" fill="#263238"/>
      <path d="m65.67,122.63c.04.35.04.69,0,1.04-.06.64-.18,1.53-.36,2.49s-.4,1.83-.56,2.45c-.06.34-.16.68-.29,1,.01-.35.07-.69.15-1.03.14-.7.3-1.53.49-2.46s.33-1.83.42-2.47c.02-.34.06-.69.15-1.02Z" fill="#263238"/>
      <path d="m63.69,121.84c0,.32-.03.64-.11.95-.1.58-.27,1.38-.52,2.25s-.5,1.64-.7,2.2c-.09.3-.22.59-.39.86.05-.32.13-.63.25-.93.17-.56.4-1.34.64-2.2s.43-1.66.57-2.23c.06-.31.15-.61.26-.9Z" fill="#263238"/>
      <path d="m61.24,120.6c0,.33-.03.65-.11.97-.1.59-.26,1.41-.47,2.3s-.43,1.72-.61,2.28c-.08.32-.19.63-.33.92.03-.33.1-.65.19-.96.15-.66.34-1.43.54-2.29s.38-1.62.53-2.29c.06-.32.14-.63.26-.94Z" fill="#263238"/>
      <path d="m85.33,155.98c-3.23,4.75-8.14,8.09-13.75,9.33,1.72,1.98,4.86,5.88,6.58,7.85,7.47-1.14,12.66-6.22,15.65-13.08-3.01-1.58-5.42-2.53-8.48-4.11Z" fill="#ebebeb"/>
      <path d="m85.33,155.98l.15.07.45.21,1.72.81c1.48.7,3.66,1.62,6.27,2.95h.06v.06c-.56,1.27-1.2,2.5-1.93,3.69-.83,1.34-1.8,2.59-2.88,3.73-1.19,1.26-2.55,2.36-4.03,3.26-1.59.99-3.32,1.73-5.13,2.19-.28.08-.57.15-.86.2l-.86.16h-.05v-.04c-2.38-2.77-4.53-5.49-6.57-7.86l-.1-.12h.15c2.23-.51,4.37-1.35,6.36-2.48,1.56-.89,3-1.96,4.3-3.21.83-.81,1.61-1.67,2.34-2.58l.58-.74.15-.18.05-.06v.08l-.14.2c-.13.17-.3.42-.54.74-.71.91-1.48,1.77-2.3,2.58-1.29,1.27-2.73,2.36-4.3,3.27-2,1.17-4.15,2.04-6.4,2.58l.05-.15c2.05,2.36,4.2,5.09,6.58,7.85h-.09l.86-.16c.29-.05.58-.12.86-.2,1.78-.44,3.48-1.14,5.05-2.09,1.47-.89,2.81-1.97,4-3.21,1.08-1.13,2.04-2.37,2.87-3.7.67-1.21,1.26-2.46,1.77-3.75v.1c-2.58-1.34-4.76-2.29-6.23-3.01-.74-.36-1.31-.64-1.72-.86l-.43-.22-.05-.09Z" fill="#263238"/>
      <path d="m90.67,162.22c-1.02-.45-2.02-.96-2.98-1.53-1-.51-1.96-1.09-2.88-1.72,1.03.44,2.02.95,2.98,1.52.99.52,1.96,1.09,2.88,1.73Z" fill="#263238"/>
      <path d="m89.47,164.35c-.98-.54-1.92-1.14-2.83-1.79-.95-.59-1.86-1.25-2.72-1.95.98.53,1.93,1.12,2.84,1.78.95.59,1.85,1.25,2.72,1.96Z" fill="#263238"/>
      <path d="m87.41,166.54c-.28-.17-.53-.37-.77-.59l-1.84-1.45c-.72-.56-1.37-1.08-1.81-1.49-.26-.2-.49-.43-.68-.7.27.17.53.37.77.58l1.85,1.44c.72.57,1.36,1.1,1.8,1.5.25.21.48.44.68.7Z" fill="#263238"/>
      <path d="m80.47,163.3c.28.17.53.37.76.6.57.53,1.12,1.08,1.64,1.66.62.68,1.14,1.31,1.51,1.78.21.24.41.51.58.78-.79-.77-1.54-1.57-2.23-2.42-.61-.67-1.18-1.26-1.6-1.72-.24-.21-.46-.43-.66-.68Z" fill="#263238"/>
      <path d="m78.78,164.35c.24.17.46.38.64.61.49.52.95,1.07,1.38,1.64.52.66.95,1.29,1.24,1.72.17.24.31.5.43.77-.05,0-.81-1.08-1.83-2.41s-1.91-2.34-1.86-2.34Z" fill="#263238"/>
      <path d="m76.5,165.46c.24.18.47.39.66.63.39.4.86.98,1.44,1.63s1.02,1.26,1.35,1.72c.19.23.36.49.49.76-.22-.21-.43-.43-.61-.67l-1.38-1.72-1.4-1.67c-.21-.21-.39-.44-.55-.69Z" fill="#263238"/>
      <path d="m127.16,156.19c4.59-3.41,10.3-4.95,15.99-4.3-.98-2.44-2.65-7.14-3.63-9.57-7.42-1.38-13.97,1.72-19.05,7.2,2.36,2.49,4.33,4.17,6.69,6.67Z" fill="#fafbfb"/>
      <path d="m127.16,156.19l-.12-.11-.35-.35-1.34-1.31c-1.16-1.15-2.92-2.73-4.94-4.84l-.05-.05.05-.05c.94-1.01,1.95-1.96,3.02-2.84,1.23-.99,2.55-1.85,3.94-2.58,1.54-.78,3.18-1.36,4.87-1.72,1.81-.38,3.67-.49,5.52-.32.3,0,.6.06.86.1l.86.14h.06v.05c1.34,3.44,2.47,6.67,3.63,9.58l.05.14h-.15c-2.27-.25-4.57-.17-6.82.25-1.75.33-3.45.88-5.07,1.63-1.05.48-2.06,1.04-3.04,1.65l-.78.51-.2.12h-.07l.07-.05.19-.15c.17-.12.42-.3.76-.52.97-.65,1.98-1.22,3.03-1.72,1.61-.79,3.32-1.36,5.08-1.72,2.26-.43,4.58-.53,6.88-.28l-.1.13c-1.16-2.91-2.29-6.18-3.64-9.57l.08.07-.86-.14c-.29,0-.59-.09-.86-.1-1.82-.17-3.66-.06-5.45.32-1.68.35-3.3.93-4.82,1.72-1.39.73-2.71,1.59-3.93,2.58-1.06.87-2.07,1.81-3.02,2.81v-.11c2,2.12,3.75,3.72,4.89,4.88.58.58,1.02,1.04,1.31,1.36l.33.35.14.15Z" fill="#263238"/>
      <path d="m124.18,148.56c.82.76,1.59,1.56,2.3,2.41.77.81,1.49,1.68,2.16,2.58-.82-.76-1.59-1.56-2.31-2.41-.77-.82-1.48-1.68-2.15-2.58Z" fill="#263238"/>
      <path d="m126.06,146.92c.74.82,1.44,1.68,2.09,2.58.69.88,1.33,1.79,1.92,2.74-.75-.82-1.44-1.68-2.09-2.58-.7-.87-1.34-1.79-1.92-2.74Z" fill="#263238"/>
      <path d="m128.66,145.55c.21.25.39.52.54.81.32.51.76,1.2,1.25,1.97s.93,1.48,1.22,2c.17.27.31.56.41.86-.2-.25-.39-.52-.54-.8l-1.27-1.97c-.49-.76-.92-1.48-1.2-2-.17-.27-.31-.56-.41-.87Z" fill="#263238"/>
      <path d="m134.16,150.88c-.21-.25-.38-.52-.52-.82-.29-.52-.65-1.26-1.01-2.11s-.64-1.62-.86-2.17c-.13-.3-.22-.61-.28-.93.06,0,.61,1.35,1.31,3.03.35.86.69,1.57.95,2.11.17.28.31.58.41.89Z" fill="#263238"/>
      <path d="m136.07,150.47c-.17-.24-.31-.5-.4-.78-.22-.51-.51-1.21-.77-2s-.46-1.52-.58-2.05c-.08-.28-.13-.57-.15-.86.06,0,.4,1.29.93,2.86s1.03,2.82.98,2.84Z" fill="#263238"/>
      <path d="m138.61,150.15c-.17-.25-.32-.52-.42-.8-.23-.51-.53-1.22-.86-2.02s-.55-1.53-.71-2.06c-.1-.28-.17-.57-.21-.86.16.27.28.56.36.86l.76,2.04.77,2.04c.13.26.24.53.32.81Z" fill="#263238"/>
      <path d="m85.43,150.12c2.1,1.56,5.02,1.59,7.49.76,2.43-.97,4.7-2.3,6.73-3.94,2.03-1.65,4.34-2.92,6.82-3.76l-5.87-11.77c-3.55,1.48-6.74,3.69-9.39,6.47-3.04,3.44-9.96,1.88-9.96,1.88l4.18,10.35Z" fill="#fafbfb"/>
      <path d="m85.43,150.12l-.08-.18c-.06-.12-.13-.3-.22-.52-.2-.48-.49-1.17-.86-2.05-.74-1.8-1.79-4.37-3.09-7.57l-.06-.13h.15c1.52.3,3.08.41,4.62.31.85-.07,1.7-.23,2.52-.47.86-.27,1.65-.71,2.32-1.31.34-.31.65-.65.98-1.01s.69-.68,1.04-1.01c.75-.66,1.53-1.28,2.35-1.85,1.71-1.2,3.54-2.22,5.47-3.03h.09v.09c.25.49.51,1.01.76,1.53l5.1,10.24.05.1h-.11c-1.57.47-3.06,1.18-4.43,2.09-1.32.86-2.53,1.72-3.69,2.58-1.09.79-2.24,1.5-3.44,2.12-1.02.54-2.1.94-3.22,1.19-.91.19-1.85.25-2.78.17-.69-.06-1.38-.22-2.03-.46-.41-.15-.8-.35-1.16-.58l-.27-.2-.09-.07c.48.32,1,.59,1.55.79.65.24,1.32.38,2.01.43.92.07,1.85,0,2.75-.2,1.11-.25,2.18-.66,3.18-1.19,1.17-.63,2.3-1.34,3.38-2.13,1.15-.86,2.35-1.72,3.69-2.58,1.37-.93,2.88-1.64,4.47-2.12l-.06.14c-1.58-3.17-3.32-6.63-5.16-10.24l-.76-1.53.13.05c-1.91.81-3.73,1.82-5.43,3.01-.81.57-1.58,1.18-2.32,1.84-.36.33-.71.65-1.04,1s-.64.69-.99,1.01c-.7.61-1.51,1.07-2.4,1.34-.84.25-1.7.41-2.58.47-1.57.1-3.14-.01-4.68-.33l.09-.1c1.27,3.19,2.31,5.78,3.03,7.57l.86,2.07.21.54c.15.12.16.19.16.19Z" fill="#263238"/>
      <path d="m88.97,149.37c-.05,0-.86-1.67-1.72-3.77s-1.6-3.83-1.55-3.86.86,1.67,1.72,3.77c.58,1.26,1.1,2.55,1.55,3.86Z" fill="#263238"/>
      <path d="m91.51,149.09c-.72-1.16-1.38-2.35-1.97-3.58-.66-1.19-1.25-2.42-1.79-3.67.05,0,.93,1.57,1.97,3.58.66,1.19,1.25,2.42,1.79,3.67Z" fill="#263238"/>
      <path d="m93.4,148.34c-.21-.33-.4-.68-.56-1.04-.33-.64-.77-1.54-1.3-2.51s-1.01-1.84-1.37-2.48c-.21-.33-.4-.67-.56-1.03.26.29.49.61.68.95.4.62.91,1.48,1.44,2.46s.95,1.88,1.25,2.58c.17.34.31.7.42,1.07Z" fill="#263238"/>
      <path d="m95.37,146.64c-.23-.29-.44-.6-.63-.93l-1.45-2.28-1.49-2.25c-.23-.3-.43-.62-.59-.95.26.27.5.55.71.86.41.55.96,1.33,1.54,2.23s1.07,1.72,1.41,2.31c.2.32.37.66.5,1.01Z" fill="#263238"/>
      <path d="m97.27,145.23c-.27-.26-.51-.55-.73-.86-.43-.56-1.01-1.34-1.62-2.23s-1.13-1.72-1.49-2.31c-.21-.31-.4-.65-.54-1,.25.29.47.59.67.92l1.53,2.27,1.56,2.25c.23.3.44.62.62.95Z" fill="#263238"/>
      <path d="m98.84,143.79c-.27-.26-.52-.55-.73-.86-.43-.55-1.01-1.33-1.61-2.22s-1.13-1.72-1.5-2.31c-.21-.31-.4-.65-.54-1,.25.28.48.59.67.92l1.54,2.27,1.55,2.25c.24.29.44.61.62.95Z" fill="#263238"/>
      <path d="m100.57,142.61s-1.08-1.36-2.31-3.1c-.77-1.03-1.49-2.1-2.14-3.21.83.99,1.6,2.02,2.31,3.09.77,1.03,1.49,2.11,2.14,3.22Z" fill="#263238"/>
      <path d="m102.05,142c-.24-.33-.44-.69-.6-1.06l-1.31-2.64c-.52-1.03-1.01-1.94-1.38-2.58-.23-.34-.43-.69-.62-1.05.29.29.53.62.74.97.53.83,1.01,1.69,1.44,2.58.52,1.03.95,1.98,1.26,2.66.18.36.34.73.47,1.11Z" fill="#263238"/>
      <path d="m23.29,138.14c2.1,1.56,5.02,1.6,7.49.76s4.61-2.41,6.73-3.94c2.03-1.65,4.34-2.92,6.82-3.76l-5.87-11.77c-3.54,1.49-6.74,3.69-9.38,6.48-3.04,3.44-9.97,1.87-9.97,1.87l4.19,10.35Z" fill="#fafbfb"/>
      <path d="m23.29,138.14c-.03-.05-.06-.11-.09-.17l-.22-.53-.86-2.05c-.73-1.8-1.79-4.37-3.09-7.56l-.05-.14h.14c1.53.3,3.08.4,4.63.3.85-.07,1.69-.23,2.51-.47.86-.27,1.65-.71,2.32-1.31.34-.3.66-.65.99-1.01s.68-.68,1.04-1.01c.74-.66,1.52-1.28,2.34-1.86,1.72-1.2,3.55-2.21,5.47-3.03h.09v.09c.24.48.5,1.01.76,1.52l5.1,10.24.05.11h-.11c-1.57.47-3.06,1.18-4.43,2.1-1.33.86-2.53,1.72-3.7,2.58-1.09.79-2.24,1.5-3.44,2.12-1.02.54-2.1.94-3.23,1.19-.91.19-1.85.26-2.78.18-.69-.06-1.38-.22-2.03-.46-.4-.16-.79-.35-1.15-.59l-.27-.2c-.06,0-.09-.06-.09-.07.48.33.99.6,1.54.8.65.23,1.32.37,2.01.43.92.07,1.85,0,2.75-.21,1.11-.25,2.19-.65,3.19-1.19,1.17-.63,2.3-1.34,3.37-2.13,1.16-.82,2.35-1.72,3.69-2.58,1.38-.93,2.88-1.65,4.47-2.13l-.06.14-5.11-10.24c-.26-.52-.52-1.04-.76-1.52l.14.05c-1.91.81-3.73,1.81-5.43,3-.81.57-1.59,1.18-2.33,1.84-.35.33-.7.65-1.03,1s-.64.69-1,1.01c-.7.61-1.51,1.06-2.39,1.34-.84.25-1.7.4-2.58.46-1.57.1-3.14-.01-4.68-.33l.09-.1,3.02,7.58.86,2.06.21.54c.08.14.14.2.14.2Z" fill="#263238"/>
      <path d="m26.79,137.4c-.05,0-.86-1.67-1.72-3.77s-1.61-3.83-1.56-3.85.86,1.67,1.72,3.77,1.61,3.83,1.56,3.85Z" fill="#263238"/>
      <path d="m29.31,137.12c-.72-1.16-1.38-2.35-1.98-3.58-.66-1.19-1.26-2.42-1.79-3.67.72,1.16,1.38,2.35,1.98,3.58,1.06,2,1.86,3.64,1.79,3.67Z" fill="#263238"/>
      <path d="m31.22,136.37c-.21-.33-.39-.67-.55-1.03-.33-.64-.78-1.54-1.3-2.51s-1.01-1.85-1.38-2.48c-.21-.33-.39-.68-.55-1.04.26.3.48.62.68.96.39.61.9,1.47,1.43,2.45s.95,1.88,1.25,2.58c.17.34.32.7.42,1.07Z" fill="#263238"/>
      <path d="m33.18,134.67c-.24-.29-.45-.6-.63-.93l-1.44-2.28-1.5-2.25c-.22-.3-.42-.61-.59-.95.27.26.51.55.71.86.42.56.97,1.34,1.55,2.23s1.07,1.72,1.4,2.31c.2.32.36.66.5,1.01Z" fill="#263238"/>
      <path d="m35.08,133.26c-.27-.26-.51-.55-.73-.86-.43-.56-1.01-1.34-1.61-2.23s-1.13-1.72-1.49-2.3c-.21-.32-.4-.66-.55-1.01.25.29.47.6.67.93l1.54,2.27,1.56,2.25c.23.3.44.61.61.95Z" fill="#263238"/>
      <path d="m36.67,131.82c-.27-.26-.52-.55-.74-.86-.43-.56-1.01-1.34-1.61-2.23s-1.13-1.72-1.49-2.3c-.22-.32-.4-.65-.54-1.01.24.29.47.6.66.92.43.64.96,1.42,1.54,2.27l1.56,2.26c.23.3.43.62.62.95Z" fill="#263238"/>
      <path d="m38.39,130.63c-.83-.99-1.6-2.02-2.31-3.09-.77-1.03-1.49-2.11-2.15-3.22.82.99,1.6,2.03,2.31,3.1.77,1.03,1.49,2.11,2.15,3.21Z" fill="#263238"/>
      <path d="m39.87,130.07c-.24-.34-.44-.69-.61-1.07l-1.31-2.64c-.52-1.02-1-1.94-1.38-2.58s-.64-1.03-.62-1.06c.28.3.53.63.75.98.53.83,1.01,1.69,1.44,2.58.52,1.03.95,1.99,1.26,2.67.19.36.34.73.47,1.11Z" fill="#263238"/>
    </g>
  </g>
</svg>