<svg width="60" height="60" viewBox="0 0 60 60" fill="none" xmlns="http://www.w3.org/2000/svg">
<g clip-path="url(#clip0_3_92)">
<path d="M56.25 25.3125H43.6791C45.0384 21.9788 45.9375 18.9787 45.9375 16.875C45.9375 8.08688 38.7881 0.9375 30 0.9375C21.2119 0.9375 14.0625 8.08688 14.0625 16.875C14.0625 18.9787 14.9616 21.9788 16.3209 25.3125H11.25V20.625C11.25 19.0744 9.98813 17.8125 8.4375 17.8125H6.5625C3.46031 17.8125 0.9375 20.3353 0.9375 23.4375V53.4375C0.9375 56.5397 3.46031 59.0625 6.5625 59.0625H56.25C57.8006 59.0625 59.0625 57.8006 59.0625 56.25V28.125C59.0625 26.5744 57.8006 25.3125 56.25 25.3125ZM37.7747 42.8503L52.1119 57.1875H48.2006L34.3744 43.3612C35.3288 41.7394 36.3975 39.8794 37.4944 37.8937L48.2006 27.1875H52.1119L37.7747 41.5247C37.4081 41.8912 37.4081 42.4838 37.7747 42.8503ZM26.3231 44.5387L13.6744 57.1875H8.72719C9.94594 55.9378 11.9278 53.8622 15.2625 50.3691L24.2353 40.9688C24.9816 42.2709 25.6866 43.4719 26.3231 44.5387ZM27.3178 46.1953C28.3659 47.9231 29.0822 49.0537 29.2088 49.2525C29.3813 49.5234 29.6794 49.6875 30 49.6875C30.3206 49.6875 30.6188 49.5234 30.7913 49.2525C30.945 49.0116 31.9556 47.415 33.3872 45.0253L45.5494 57.1875H16.3256L27.3178 46.1953ZM45.5494 27.1875L40.4738 32.2631C41.3325 30.5588 42.1491 28.8478 42.8803 27.1875H45.5494ZM30 2.8125C37.7541 2.8125 44.0625 9.12094 44.0625 16.875C44.0625 23.7188 33.0769 41.9944 30 46.9781C26.9231 41.9944 15.9375 23.7188 15.9375 16.875C15.9375 9.12094 22.2459 2.8125 30 2.8125ZM2.8125 23.4375C2.8125 21.3694 4.49437 19.6875 6.5625 19.6875H8.4375C8.955 19.6875 9.375 20.1075 9.375 20.625V46.875C9.375 47.3925 8.955 47.8125 8.4375 47.8125H6.5625C5.12344 47.8125 3.80813 48.3562 2.8125 49.2478V23.4375ZM2.8125 53.4375C2.8125 51.3694 4.49437 49.6875 6.5625 49.6875H8.4375C9.98813 49.6875 11.25 48.4256 11.25 46.875V27.1875H17.1197C18.885 31.1963 21.1622 35.5144 23.2697 39.2653L13.9069 49.0744C10.3725 52.7775 7.17188 56.1309 6.19781 57.1509C4.30219 56.9634 2.8125 55.3809 2.8125 53.4375ZM57.1875 56.25C57.1875 56.7675 56.7675 57.1875 56.25 57.1875H54.7631L39.7631 42.1875L54.7631 27.1875H56.25C56.7675 27.1875 57.1875 27.6075 57.1875 28.125V56.25Z" fill="white"/>
<path d="M42.1875 16.875C42.1875 10.155 36.72 4.6875 30 4.6875C23.28 4.6875 17.8125 10.155 17.8125 16.875C17.8125 23.595 23.28 29.0625 30 29.0625C36.72 29.0625 42.1875 23.595 42.1875 16.875ZM19.6875 16.875C19.6875 11.1891 24.3141 6.5625 30 6.5625C35.6859 6.5625 40.3125 11.1891 40.3125 16.875C40.3125 22.5609 35.6859 27.1875 30 27.1875C24.3141 27.1875 19.6875 22.5609 19.6875 16.875Z" fill="white"/>
<path d="M21.5625 14.0625V16.875C21.5625 17.3934 21.9816 17.8125 22.5 17.8125H24.375V18.75H21.5625V20.625H25.3125C25.8309 20.625 26.25 20.2059 26.25 19.6875V16.875C26.25 16.3566 25.8309 15.9375 25.3125 15.9375H23.4375V15H26.25V13.125H22.5C21.9816 13.125 21.5625 13.5441 21.5625 14.0625Z" fill="white"/>
<path d="M31.875 18.75H29.0625V17.8125H30.9375V15.9375H29.0625V15H31.875V13.125H28.125C27.6066 13.125 27.1875 13.5441 27.1875 14.0625V19.6875C27.1875 20.2059 27.6066 20.625 28.125 20.625H31.875V18.75Z" fill="white"/>
<path d="M33.75 20.625H37.5C38.0184 20.625 38.4375 20.2059 38.4375 19.6875V14.0625C38.4375 13.5441 38.0184 13.125 37.5 13.125H33.75C33.2316 13.125 32.8125 13.5441 32.8125 14.0625V19.6875C32.8125 20.2059 33.2316 20.625 33.75 20.625ZM34.6875 15H36.5625V18.75H34.6875V15Z" fill="white"/>
</g>
<defs>
<clipPath id="clip0_3_92">
<rect width="60" height="60" fill="white"/>
</clipPath>
</defs>
</svg>
