<svg width="60" height="60" viewBox="0 0 60 60" fill="none" xmlns="http://www.w3.org/2000/svg">
<path d="M29.816 36.4547C29.8043 36.4547 29.7926 36.4559 29.7809 36.4559C29.4082 36.4559 29.0977 36.1629 29.0789 35.7867C29.0602 35.3988 29.359 35.0695 29.7469 35.0508C37.507 34.6746 43.1449 30.8449 47.3848 23.0379L46.3746 23.373C46.0055 23.4949 45.6082 23.2957 45.4852 22.9277C45.3633 22.5598 45.5625 22.1613 45.9305 22.0383L48.5801 21.1582C48.757 21.0996 48.9504 21.1137 49.1168 21.1969C49.2832 21.2801 49.4098 21.4266 49.4684 21.6035L50.3484 24.2531C50.4703 24.6211 50.2711 25.0195 49.9031 25.1426C49.8293 25.1672 49.7543 25.1789 49.6816 25.1789C49.3875 25.1789 49.1121 24.9926 49.0148 24.6973L48.6621 23.6355C44.168 31.9652 38.1457 36.0504 29.816 36.4547ZM58.2422 4.04297V42.0117V44.1738C58.2422 44.9156 57.6387 45.5191 56.8969 45.5191H55.3816C55.2691 45.8531 55.1332 46.1824 54.975 46.5L56.0473 47.5723C56.5723 48.0973 56.5723 48.9504 56.0473 49.4754L54.518 51.0047C53.993 51.5297 53.1398 51.5297 52.6148 51.0047L51.5426 49.9324C51.225 50.0906 50.8957 50.2277 50.5617 50.3391V51.8543C50.5617 52.5961 49.9582 53.1996 49.2164 53.1996H47.0543C46.3125 53.1996 45.709 52.5961 45.709 51.8543V50.3391C45.3738 50.2266 45.0445 50.0906 44.7281 49.9324L43.6559 51.0047C43.1309 51.5297 42.2777 51.5297 41.7527 51.0047L40.2234 49.4766C39.6984 48.9516 39.6984 48.0984 40.2234 47.5734L41.2957 46.5012C41.1375 46.1848 41.0016 45.8555 40.8891 45.5203H39.375C38.6332 45.5203 38.0297 44.9168 38.0297 44.175V43.7977H33.8742C33.8965 43.9687 33.9094 44.1422 33.9094 44.3191V47.2125L35.9344 47.1633C36.8543 47.1422 37.6934 47.4691 38.3531 48.1137C39.0129 48.7582 39.3621 49.5867 39.3621 50.509V53.3637C39.3621 55.0477 38.3895 57.0527 36.5309 57.627C35.1223 58.0617 33.7676 58.2398 32.4727 58.2398C30.2578 58.2398 28.2176 57.7219 26.3789 57.0867C26.2934 57.3785 26.0238 57.593 25.7039 57.593H21.2098C20.8219 57.593 20.5066 57.2777 20.5066 56.8898V47.2395C20.5066 46.8516 20.8219 46.5363 21.2098 46.5363H25.7039C26.0355 46.5363 26.3133 46.766 26.3871 47.0754C27.4793 47.0004 28.2152 46.7379 28.575 46.2902C29.0449 45.7055 28.8996 44.7281 28.7039 43.7988H20.0344L20.291 44.7563C20.4375 45.3023 20.3613 45.8742 20.0777 46.3664C19.793 46.8586 19.3359 47.2102 18.7898 47.3566C18.6082 47.4059 18.423 47.4293 18.2391 47.4293C17.8711 47.4293 17.5066 47.332 17.1785 47.1434C16.8492 46.9535 16.5844 46.684 16.4004 46.3641C14.993 45.4453 10.9852 44.4281 10.0676 44.6555L9.31875 44.8559L11.3074 48.0305C11.816 48.8426 11.6379 49.8609 10.8926 50.3988C10.5879 50.618 10.2363 50.7234 9.88711 50.7234C9.35156 50.7234 8.82305 50.475 8.48672 50.0086L5.40938 45.7383C4.90195 45.7172 4.40625 45.5836 3.95391 45.3387C3.18164 44.9203 2.63438 44.2359 2.41289 43.4086L1.86211 41.352C1.40742 39.6562 2.47852 37.8914 4.24805 37.4168L4.49531 37.35V4.04297C4.49531 2.7832 5.5207 1.75781 6.78047 1.75781H55.957C57.2168 1.75781 58.2422 2.7832 58.2422 4.04297ZM5.90156 4.04297V10.9406H56.8359V4.04297C56.8359 3.55898 56.4422 3.16406 55.957 3.16406H6.78047C6.29648 3.16406 5.90156 3.55781 5.90156 4.04297ZM4.62305 44.1023C5.06484 44.3414 5.58281 44.3988 6.0832 44.2652L9.03516 43.4742L8.325 40.8223L7.49766 38.0027L4.6125 38.7762C3.5918 39.0492 2.96719 40.0418 3.22031 40.9887L3.77109 43.0453C3.8918 43.4953 4.19414 43.8703 4.62305 44.1023ZM7.89961 45.2344L6.96094 45.4863L9.62813 49.1848C9.72891 49.3242 9.93164 49.357 10.0711 49.2563C10.227 49.1438 10.2105 48.9246 10.1168 48.7758L7.89961 45.2344ZM9.68086 40.4508L10.4238 43.2234C11.8207 43.234 14.1668 43.8387 15.832 44.5219L12.9164 33.641C11.802 35.0707 10.0359 36.7992 8.82188 37.5211L9.67617 40.4344C9.67734 40.4402 9.67969 40.4449 9.68086 40.4508ZM18.9328 45.1172L15.2672 31.4379C15.1816 31.118 14.891 30.9059 14.5734 30.9059C14.5125 30.9059 14.4504 30.9141 14.3883 30.9305C14.2043 30.9797 14.0508 31.0992 13.9535 31.2656C13.8574 31.432 13.8316 31.6254 13.8809 31.8094L17.5465 45.4887C17.5957 45.6727 17.7152 45.8262 17.8816 45.9234C18.0492 46.0195 18.2414 46.0453 18.4254 45.9961C18.6094 45.9469 18.7629 45.8273 18.8602 45.6609C18.9563 45.4945 18.982 45.3012 18.9328 45.1172ZM19.8176 39.273C20.1316 38.7281 20.216 38.0941 20.0531 37.4871C19.7801 36.4699 18.8777 35.7867 17.877 35.7445L19.0395 40.084C19.3582 39.8836 19.6242 39.6082 19.8176 39.273ZM25.0008 47.9402H21.9129V56.1844H25.0008V47.9402ZM33.2227 48.634C33.0316 48.6398 32.85 48.566 32.7141 48.4348C32.5781 48.3023 32.502 48.1207 32.502 47.932V44.3191C32.502 42.9082 31.3547 41.7609 29.9438 41.7609C29.877 41.7609 29.8324 41.7668 29.8055 41.7715C29.7516 42.0047 29.898 42.6762 29.9977 43.1297C30.2766 44.4012 30.6234 45.9832 29.6695 47.1691C29.0391 47.9531 27.9668 48.3855 26.4059 48.4816V55.6043C29.3121 56.6543 32.4961 57.4008 36.1148 56.2828C37.2668 55.9266 37.9547 54.5191 37.9547 53.3637V50.5078C37.9547 49.957 37.7637 49.5035 37.3699 49.1191C36.9762 48.7348 36.5168 48.552 35.9672 48.5672L33.2227 48.634ZM39.375 40.6664H40.8902C41.0027 40.3312 41.1387 40.002 41.2969 39.6855L40.2246 38.6133C39.9703 38.359 39.8309 38.0215 39.8309 37.6617C39.8309 37.302 39.9703 36.9645 40.2246 36.7102L41.7539 35.1809C42.2789 34.6559 43.132 34.6559 43.657 35.1809L44.7293 36.2531C45.0457 36.0949 45.375 35.959 45.7102 35.8465V34.3312C45.7102 33.5895 46.3137 32.9859 47.0555 32.9859H49.2176C49.9594 32.9859 50.5629 33.5895 50.5629 34.3312V35.8465C50.898 35.959 51.2273 36.0949 51.5437 36.2531L52.616 35.1809C53.141 34.6559 53.9941 34.6559 54.5191 35.1809L56.0484 36.7102C56.3027 36.9633 56.4422 37.302 56.4422 37.6617C56.4422 38.0215 56.3027 38.3602 56.0484 38.6133L54.9762 39.6855C55.1344 40.002 55.2703 40.3312 55.3828 40.6664H56.8359V12.3469H5.90156V36.975L7.78594 36.4699C8.67539 36.2145 11.6613 33.3234 12.4617 31.8281C12.4195 31.391 12.5109 30.9527 12.7359 30.5637C13.0207 30.0715 13.4777 29.7199 14.0238 29.5734C14.5699 29.427 15.143 29.5031 15.6352 29.7867C16.1273 30.0715 16.4789 30.5285 16.6254 31.0746L17.502 34.3465C19.2668 34.2164 20.9355 35.352 21.4102 37.1227C21.6703 38.093 21.5367 39.1055 21.034 39.9762C20.6508 40.6395 20.0883 41.1574 19.4133 41.482L19.657 42.3902H28.425C28.3477 41.7961 28.3816 41.2781 28.7109 40.868C28.9852 40.5258 29.4 40.3535 29.9438 40.3535C31.4297 40.3535 32.727 41.1762 33.4055 42.3902H38.0273V42.0117C38.0285 41.2699 38.632 40.6664 39.375 40.6664ZM56.8359 42.0727H55.3371C54.7547 42.0727 54.2402 41.7012 54.0586 41.1469C53.9613 40.8516 53.8406 40.5598 53.7 40.282C53.4363 39.7617 53.5359 39.1348 53.9484 38.7223L55.009 37.6617L53.5664 36.2191L52.5059 37.2797C52.0934 37.6922 51.4664 37.7918 50.9461 37.5293C50.6684 37.3887 50.3766 37.268 50.0812 37.1707C49.5281 36.9891 49.1555 36.4746 49.1555 35.8922V34.3934H47.1152V35.8922C47.1152 36.4746 46.7437 36.9891 46.1895 37.1707C45.8941 37.268 45.6023 37.3887 45.3246 37.5293C44.8043 37.793 44.1773 37.6922 43.7648 37.2809L42.7043 36.2203L41.2617 37.6629L42.3223 38.7234C42.7348 39.1359 42.8344 39.7629 42.5719 40.282C42.4312 40.5609 42.3105 40.8516 42.2133 41.1469C42.0316 41.7 41.5172 42.0727 40.9348 42.0727H39.4359V44.1141H40.9348C41.5172 44.1141 42.0316 44.4855 42.2133 45.0398C42.3105 45.3352 42.4312 45.6258 42.5719 45.9047C42.8355 46.425 42.7359 47.052 42.3234 47.4645L41.2629 48.525L42.7055 49.9676L43.766 48.907C44.1785 48.4945 44.8055 48.3949 45.3258 48.6586C45.6035 48.7992 45.8953 48.9199 46.1906 49.0172C46.7437 49.1988 47.1164 49.7133 47.1164 50.2957V51.7945H49.1566V50.2957C49.1566 49.7133 49.5281 49.2 50.0824 49.0172C50.3777 48.9199 50.6684 48.7992 50.9473 48.6586C51.4676 48.3949 52.0945 48.4945 52.507 48.907L53.5676 49.9676L55.0102 48.525L53.9496 47.4645C53.5371 47.052 53.4375 46.425 53.7012 45.9047C53.8418 45.6258 53.9625 45.3352 54.0598 45.0398C54.2414 44.4867 54.7559 44.1141 55.3383 44.1141H56.8359V42.0727ZM17.5852 18.8895C17.673 19.1613 17.5887 19.459 17.3707 19.6441L15.7547 21.0117L16.2586 23.0672C16.3266 23.3449 16.2199 23.6355 15.9891 23.8031C15.7582 23.9707 15.4488 23.9824 15.2051 23.8324L13.4051 22.718L11.6051 23.8324C11.4914 23.9027 11.3625 23.9379 11.2348 23.9379C11.0895 23.9379 10.9441 23.8934 10.8211 23.8031C10.5902 23.6355 10.4836 23.3437 10.5516 23.0672L11.0555 21.0117L9.43945 19.6441C9.22148 19.4602 9.13711 19.1613 9.225 18.8895C9.31289 18.6176 9.55664 18.4266 9.84141 18.4055L11.952 18.2496L12.7523 16.2902C12.8602 16.0254 13.118 15.8531 13.4027 15.8531C13.6875 15.8531 13.9453 16.0254 14.0531 16.2902L14.8535 18.2496L16.9652 18.4055C17.2535 18.4266 17.4973 18.6176 17.5852 18.8895ZM15.1488 19.6816L14.3191 19.6207C14.0531 19.6008 13.8211 19.432 13.7203 19.1859L13.4063 18.416L13.0922 19.1859C12.9914 19.4332 12.7594 19.602 12.4934 19.6207L11.6637 19.6816L12.2988 20.2184C12.5027 20.3906 12.5906 20.6637 12.5273 20.9227L12.3293 21.7301L13.0359 21.2918C13.1496 21.2215 13.2773 21.1863 13.4063 21.1863C13.5352 21.1863 13.6629 21.2215 13.7766 21.2918L14.4832 21.7301L14.2852 20.9227C14.2219 20.6637 14.3098 20.3906 14.5137 20.2184L15.1488 19.6816ZM27.6539 18.8895C27.7418 19.1613 27.6574 19.459 27.4395 19.6441L25.8234 21.0117L26.3273 23.0672C26.3953 23.3449 26.2887 23.6355 26.0578 23.8031C25.9348 23.8922 25.7895 23.9379 25.6441 23.9379C25.5164 23.9379 25.3875 23.9027 25.2738 23.8324L23.4738 22.718L21.6738 23.8324C21.4313 23.9836 21.1219 23.9719 20.8898 23.8031C20.6578 23.6344 20.5523 23.3437 20.6203 23.0672L21.1242 21.0117L19.5082 19.6441C19.2902 19.4602 19.2059 19.1613 19.2938 18.8895C19.3816 18.6176 19.6254 18.4266 19.9102 18.4055L22.0207 18.2496L22.8211 16.2902C22.9289 16.0254 23.1867 15.8531 23.4715 15.8531C23.7563 15.8531 24.0141 16.0254 24.1219 16.2902L24.9223 18.2496L27.0328 18.4055C27.3223 18.4266 27.566 18.6176 27.6539 18.8895ZM25.2176 19.6816L24.3879 19.6207C24.1219 19.6008 23.8898 19.432 23.7891 19.1859L23.475 18.416L23.1609 19.1859C23.0602 19.4332 22.8281 19.602 22.5621 19.6207L21.7324 19.6816L22.3676 20.2184C22.5715 20.3906 22.6594 20.6637 22.5961 20.9227L22.398 21.7301L23.1047 21.2918C23.332 21.1512 23.618 21.1512 23.8453 21.2918L24.552 21.7301L24.3539 20.9227C24.2906 20.6637 24.3785 20.3906 24.5824 20.2184L25.2176 19.6816ZM29.441 18.8895C29.5289 18.6176 29.7727 18.4266 30.0574 18.4055L34.2609 18.0949L35.8547 14.1938C35.9625 13.9289 36.2203 13.7566 36.5051 13.7566C36.7898 13.7566 37.0477 13.9289 37.1555 14.1938L38.7492 18.0949L42.9527 18.4055C43.2375 18.4266 43.4813 18.6176 43.5691 18.8895C43.657 19.1613 43.5727 19.459 43.3547 19.6441L40.1367 22.3664L41.1398 26.4598C41.2078 26.7375 41.1012 27.0281 40.8703 27.1957C40.7473 27.2848 40.602 27.3305 40.4566 27.3305C40.3289 27.3305 40.2 27.2953 40.0863 27.225L36.5039 25.0055L32.9215 27.225C32.6789 27.3762 32.3695 27.3645 32.1375 27.1957C31.9055 27.027 31.8 26.7363 31.868 26.4598L32.8711 22.3664L29.6531 19.6441C29.4375 19.459 29.3531 19.1613 29.441 18.8895ZM31.8773 19.6816L34.1145 21.573C34.3184 21.7453 34.4062 22.0184 34.343 22.2773L33.6457 25.1227L36.1359 23.5805C36.2496 23.5102 36.3773 23.475 36.5062 23.475C36.6352 23.475 36.7629 23.5102 36.8766 23.5805L39.3668 25.1227L38.6695 22.2773C38.6063 22.0184 38.6941 21.7453 38.898 21.573L41.1352 19.6816L38.2137 19.466C37.9477 19.4461 37.7156 19.2773 37.6148 19.0312L36.5062 16.3195L35.3977 19.0312C35.2969 19.2785 35.0648 19.4473 34.7988 19.466L31.8773 19.6816ZM52.6898 43.0934C52.6898 45.6047 50.6473 47.6473 48.1359 47.6473C45.6246 47.6473 43.582 45.6047 43.582 43.0934C43.582 40.582 45.6246 38.5395 48.1359 38.5395C50.6461 38.5395 52.6898 40.582 52.6898 43.0934ZM51.2836 43.0934C51.2836 41.3578 49.8715 39.9457 48.1359 39.9457C46.4004 39.9457 44.9883 41.3578 44.9883 43.0934C44.9883 44.8289 46.4004 46.241 48.1359 46.241C49.8715 46.241 51.2836 44.8289 51.2836 43.0934ZM24.6867 35.802L22.8832 36.2848C22.5082 36.3855 22.2855 36.7711 22.3863 37.1461C22.4707 37.4602 22.7543 37.6676 23.0648 37.6676C23.1246 37.6676 23.1867 37.6594 23.2477 37.643L25.0512 37.1602C25.4262 37.0594 25.6488 36.6738 25.548 36.2988C25.4473 35.9238 25.0617 35.7023 24.6867 35.802ZM25.0512 39.0316L23.2477 38.5488C22.8727 38.4492 22.4871 38.6707 22.3863 39.0457C22.2855 39.4207 22.5082 39.8063 22.8832 39.907L24.6867 40.3898C24.7477 40.4063 24.8086 40.4145 24.8695 40.4145C25.1801 40.4145 25.4637 40.207 25.548 39.893C25.6488 39.518 25.4262 39.1324 25.0512 39.0316ZM23.7516 34.1824C24.0258 33.9082 24.0258 33.4629 23.7516 33.1875C23.4773 32.9121 23.032 32.9133 22.7566 33.1875L21.4359 34.5082C21.1617 34.7824 21.1617 35.2277 21.4359 35.5031C21.573 35.6402 21.7535 35.7094 21.9328 35.7094C22.1133 35.7094 22.2926 35.6402 22.4297 35.5031L23.7516 34.1824ZM34.7871 7.17188C34.7871 5.95078 35.7809 4.95703 37.002 4.95703H52.302C53.523 4.95703 54.5168 5.95078 54.5168 7.17188C54.5168 8.39297 53.523 9.38672 52.302 9.38672H37.002C35.7809 9.38789 34.7871 8.39414 34.7871 7.17188ZM36.1934 7.17188C36.1934 7.61836 36.5566 7.98047 37.002 7.98047H52.302C52.7484 7.98047 53.1105 7.61719 53.1105 7.17188C53.1105 6.72656 52.7473 6.36328 52.302 6.36328H37.002C36.5555 6.36328 36.1934 6.72656 36.1934 7.17188ZM9.73828 7.17188C9.73828 6.02461 10.6711 5.0918 11.8184 5.0918C12.9656 5.0918 13.8984 6.02461 13.8984 7.17188C13.8984 8.31914 12.9656 9.25195 11.8184 9.25195C10.6711 9.25195 9.73828 8.31914 9.73828 7.17188ZM11.1445 7.17188C11.1445 7.54336 11.4469 7.8457 11.8184 7.8457C12.1898 7.8457 12.4922 7.54336 12.4922 7.17188C12.4922 6.80039 12.1898 6.49805 11.8184 6.49805C11.4469 6.49805 11.1445 6.80039 11.1445 7.17188ZM15.1559 7.17188C15.1559 6.02461 16.0887 5.0918 17.2359 5.0918C18.3832 5.0918 19.316 6.02461 19.316 7.17188C19.316 8.31914 18.3832 9.25195 17.2359 9.25195C16.0898 9.25312 15.1559 8.31914 15.1559 7.17188ZM16.5621 7.17188C16.5621 7.54336 16.8645 7.8457 17.2359 7.8457C17.6074 7.8457 17.9098 7.54336 17.9098 7.17188C17.9098 6.80039 17.6074 6.49805 17.2359 6.49805C16.8645 6.49805 16.5621 6.80039 16.5621 7.17188ZM20.5734 7.17188C20.5734 6.02461 21.5063 5.0918 22.6535 5.0918C23.8008 5.0918 24.7336 6.02461 24.7336 7.17188C24.7336 8.31914 23.8008 9.25195 22.6535 9.25195C21.5074 9.25312 20.5734 8.31914 20.5734 7.17188ZM21.9797 7.17188C21.9797 7.54336 22.282 7.8457 22.6535 7.8457C23.025 7.8457 23.3273 7.54336 23.3273 7.17188C23.3273 6.80039 23.025 6.49805 22.6535 6.49805C22.282 6.49805 21.9797 6.80039 21.9797 7.17188Z" fill="white"/>
</svg>
