<svg width="60" height="60" viewBox="0 0 60 60" fill="none" xmlns="http://www.w3.org/2000/svg">
<path d="M54.7636 0.909058H5.23637C3.18183 0.909058 1.51819 2.58179 1.51819 4.62724V55.3636C1.51819 57.4182 3.18183 59.0909 5.23637 59.0909H54.7636C56.8182 59.0909 58.4818 57.4182 58.4818 55.3727V4.62724C58.4818 2.58179 56.8182 0.909058 54.7636 0.909058ZM5.23637 2.67269H54.7636C55.8455 2.67269 56.7273 3.55451 56.7273 4.63633V10.9818H3.28182V4.62724C3.28182 3.55451 4.15455 2.67269 5.23637 2.67269ZM54.7636 57.3272H5.23637C4.15455 57.3272 3.27273 56.4454 3.27273 55.3636V12.7454H56.7182V55.3727C56.7182 56.4454 55.8455 57.3272 54.7636 57.3272Z" fill="white"/>
<path d="M48.8455 7.70907H50.9727C51.4637 7.70907 51.8546 7.31816 51.8546 6.82725C51.8546 6.33634 51.4637 5.94543 50.9727 5.94543H48.8455C48.3546 5.94543 47.9637 6.33634 47.9637 6.82725C47.9637 7.31816 48.3546 7.70907 48.8455 7.70907Z" fill="white"/>
<path d="M43.2273 7.70907H45.3545C45.8455 7.70907 46.2364 7.31816 46.2364 6.82725C46.2364 6.33634 45.8455 5.94543 45.3545 5.94543H43.2273C42.7364 5.94543 42.3455 6.33634 42.3455 6.82725C42.3455 7.31816 42.7364 7.70907 43.2273 7.70907Z" fill="white"/>
<path d="M37.6091 7.70907H39.7364C40.2273 7.70907 40.6182 7.31816 40.6182 6.82725C40.6182 6.33634 40.2273 5.94543 39.7364 5.94543H37.6091C37.1182 5.94543 36.7273 6.33634 36.7273 6.82725C36.7273 7.31816 37.1182 7.70907 37.6091 7.70907Z" fill="white"/>
<path d="M9.19093 7.70907H23.7364C24.2273 7.70907 24.6182 7.31816 24.6182 6.82725C24.6182 6.33634 24.2273 5.94543 23.7364 5.94543H9.19093C8.70002 5.94543 8.30911 6.33634 8.30911 6.82725C8.30911 7.31816 8.70002 7.70907 9.19093 7.70907Z" fill="white"/>
<path d="M9.19093 19.7818H16.7455C17.2364 19.7818 17.6273 19.3909 17.6273 18.9C17.6273 18.4091 17.2364 18.0182 16.7455 18.0182H9.19093C8.70002 18.0182 8.30911 18.4091 8.30911 18.9C8.30911 19.3909 8.70002 19.7818 9.19093 19.7818Z" fill="white"/>
<path d="M17.6273 23.4636C17.6273 22.9727 17.2364 22.5818 16.7455 22.5818H9.19093C8.70002 22.5818 8.30911 22.9727 8.30911 23.4636C8.30911 23.9545 8.70002 24.3454 9.19093 24.3454H16.7455C17.2364 24.3454 17.6273 23.9545 17.6273 23.4636Z" fill="white"/>
<path d="M41.7455 14.6C39.5091 14.6 37.4091 15.4636 35.8364 17.0454L30.6182 22.2727C28.0636 24.8272 27.4546 28.6818 29.0455 31.8636L27.1818 33.7636C26.0455 33.1818 24.7818 32.8636 23.4818 32.8636C21.2455 32.8636 19.1545 33.7363 17.5818 35.3182L12.3636 40.5363C10.7909 42.1 9.92728 44.1909 9.92728 46.4273C9.92728 48.6636 10.7909 50.7545 12.3636 52.3273C13.9273 53.9 16.0273 54.7727 18.2636 54.7727C20.5 54.7727 22.5909 53.9091 24.1636 52.3363L29.3909 47.1091C30.9636 45.5273 31.8273 43.4273 31.8273 41.2C31.8273 39.9545 31.5273 38.7363 31 37.6273L32.9273 35.6636C34.0273 36.2 35.2545 36.5 36.5364 36.5091C38.7545 36.5091 40.8546 35.6454 42.4364 34.0636L47.6546 28.8363C49.2364 27.2545 50.1091 25.1545 50.1091 22.9272C50.1091 20.7 49.2364 18.6091 47.6546 17.0272C46.0727 15.4727 43.9818 14.6 41.7455 14.6ZM30.7546 32.6363L32 31.3545L34.9909 28.3C35.1818 28.1091 35.4273 28.0182 35.6727 28.0182C35.9091 28.0182 36.1546 28.1091 36.3364 28.2909C36.5182 28.4727 36.6182 28.7091 36.6273 28.9636C36.6273 29.2182 36.5364 29.4545 36.3546 29.6363L34.3636 31.6727L32.1 33.9818V33.9909L27.3636 38.8273L26.5091 39.7L25.2546 40.9818C24.9 41.3454 24.2727 41.3545 23.9091 41C23.7273 40.8182 23.6273 40.5818 23.6182 40.3273C23.6182 40.0727 23.7091 39.8363 23.8909 39.6454L30.7364 32.6545C30.7455 32.6454 30.7546 32.6363 30.7546 32.6363ZM37.5818 27.0272C36.5546 26.0272 34.9455 26.0091 33.8818 26.9454C34.0182 26.6363 34.2091 26.3545 34.4546 26.1091L39.6818 20.8909C40.7727 19.7909 42.7 19.7909 43.8 20.8909C44.3546 21.4454 44.6636 22.1727 44.6636 22.9454C44.6636 23.7272 44.3636 24.4636 43.8091 25.0091L38.5818 30.2363C38.3 30.5182 37.9727 30.7272 37.6182 30.8727L37.6273 30.8636C38.1364 30.3454 38.4091 29.6636 38.4 28.9363C38.3909 28.2182 38.1 27.5363 37.5818 27.0272ZM22.6727 42.2454C23.1818 42.7454 23.8546 43.0182 24.5727 43.0182C25.0909 43.0182 25.5909 42.8636 26.0182 42.5909C25.8818 42.8363 25.7273 43.0727 25.5273 43.2727L20.3091 48.4909C19.7636 49.0363 19.0364 49.3363 18.2545 49.3363C18.2545 49.3363 18.2545 49.3363 18.2455 49.3363C17.4636 49.3363 16.7364 49.0273 16.1909 48.4818C15.0545 47.3454 15.0545 45.5 16.1909 44.3727L21.4182 39.1545C21.7455 38.8273 22.1545 38.5909 22.5909 38.4545C22.1091 38.9636 21.8455 39.6273 21.8546 40.3363C21.8636 41.0636 22.1546 41.7363 22.6727 42.2454ZM29.6636 38.9909C29.9182 39.6909 30.0546 40.4363 30.0546 41.2091C30.0546 42.9636 29.3727 44.6182 28.1273 45.8727L22.9091 51.0909C21.6727 52.3273 20.0182 53.0091 18.2545 53.0091C16.4909 53.0091 14.8364 52.3272 13.6 51.0818C12.3545 49.8363 11.6727 48.1818 11.6727 46.4273C11.6727 44.6727 12.3545 43.0182 13.6 41.7818L18.8273 36.5545C20.0636 35.3091 21.7182 34.6182 23.4818 34.6182C24.3182 34.6182 25.1273 34.7727 25.8818 35.0727L24.3727 36.6091C24.0818 36.5545 23.7818 36.5182 23.4727 36.5182C22.2273 36.5182 21.0546 37.0091 20.1727 37.8909L14.9546 43.1091C13.1364 44.9273 13.1364 47.8909 14.9546 49.7091C15.8364 50.5909 17.0091 51.0818 18.2545 51.0818H18.2636C19.5091 51.0818 20.6818 50.6 21.5636 49.7182L26.7818 44.5C27.6636 43.6182 28.1545 42.4454 28.1545 41.1909C28.1545 40.9727 28.1364 40.7727 28.1091 40.5636L29.1455 39.5091L29.6636 38.9909ZM46.4 27.6091L41.1818 32.8363C39.9273 34.0818 38.2727 34.7636 36.5273 34.7636C35.7182 34.7545 34.9455 34.6182 34.2273 34.3454L35.7546 32.7909C37.2455 33.0454 38.7727 32.5545 39.8364 31.4909L45.0636 26.2636C45.9455 25.3818 46.4364 24.2 46.4364 22.9545C46.4364 21.7091 45.9455 20.5363 45.0545 19.6545C44.1727 18.7727 43 18.2818 41.7546 18.2818C40.5 18.2818 39.3273 18.7727 38.4455 19.6545L33.2182 24.8818C32.1546 25.9545 31.6818 27.4727 31.9182 28.9545L30.8727 30L30.3727 30.5091C29.4545 28.1273 30 25.3818 31.8727 23.5182L37.0909 18.2909C38.3364 17.0454 39.9909 16.3636 41.7546 16.3636C43.5091 16.3636 45.1636 17.0454 46.4091 18.2909C47.6545 19.5363 48.3455 21.1909 48.3455 22.9454C48.3364 24.7 47.6455 26.3545 46.4 27.6091Z" fill="white"/>
</svg>
