<svg width="60" height="60" viewBox="0 0 60 60" fill="none" xmlns="http://www.w3.org/2000/svg">
<path d="M52.4032 7.80262H51.6913C53.0483 5.59333 52.5473 2.62726 50.3694 1.01139C48.0227 -0.729514 44.688 -0.169135 43.0503 2.27816L39.3536 7.80274H7.59677C4.98647 7.80274 2.86284 9.92637 2.86284 12.5367V42.8026C2.86284 45.4129 4.98647 47.5365 7.59677 47.5365H25.9848L24.5954 53.372H21.5968C19.6425 53.372 18.0525 54.9618 18.0525 56.9161V57.6561H14.3559C13.7087 57.6561 13.184 58.1809 13.184 58.828C13.184 59.4751 13.7087 59.9998 14.3559 59.9998H45.6442C46.2914 59.9998 46.8161 59.4751 46.8161 58.828C46.8161 58.1809 46.2914 57.6561 45.6442 57.6561H41.9476V56.9161C41.9476 54.9618 40.3577 53.372 38.4034 53.372H35.4047L34.0154 47.5365H52.4034C55.0137 47.5365 57.1373 45.4129 57.1373 42.8026V36.1429V12.5366C57.1373 9.92626 55.0137 7.80262 52.4032 7.80262ZM35.6127 28.4037C33.7805 29.6863 30.348 27.9429 27.0701 29.692C26.2703 25.5372 26.7746 21.6297 30.9376 20.7672C31.4756 20.655 32.0548 20.6043 32.548 20.6141C33.957 21.6595 35.3822 22.7169 36.7873 23.7595C37.4024 25.5487 37.1715 27.3126 35.6127 28.4037ZM36.7937 15.8428L40.1109 18.3039L37.5599 21.4142C36.5096 20.635 35.6068 19.9652 34.5566 19.1859C34.7747 18.86 36.5944 16.1406 36.7937 15.8428ZM44.9983 3.58161C45.8859 2.25496 47.696 1.94629 48.9729 2.89374C50.2502 3.8413 50.4789 5.66306 49.4668 6.89713C47.6709 9.08651 43.4014 14.292 41.5988 16.4898L38.0984 13.8927L44.9983 3.58161ZM39.6038 56.9161V57.6561H20.3962V56.9161C20.3962 56.2543 20.9348 55.7157 21.5968 55.7157H38.4032C39.0652 55.7157 39.6038 56.2543 39.6038 56.9161ZM32.9954 53.372H27.0046L28.394 47.5365H31.606L32.9954 53.372ZM54.7936 42.8026C54.7936 44.1205 53.7213 45.1928 52.4034 45.1928C50.5432 45.1928 9.68841 45.1928 7.59689 45.1928C6.27891 45.1928 5.20666 44.1205 5.20666 42.8026V37.3148H8.55534C9.20256 37.3148 9.7272 36.79 9.7272 36.1429C9.7272 35.4958 9.20256 34.9711 8.55534 34.9711H5.20643V12.5366C5.20643 11.2186 6.27867 10.1463 7.59665 10.1463H37.7853C36.6627 11.8241 33.3875 16.7187 32.35 18.2689C30.0536 18.2896 27.7608 19.0897 26.2599 20.8418C24.2175 23.226 23.8587 26.9721 25.1934 31.9762C25.4216 32.8319 26.4893 33.1384 27.1353 32.5213C30.1654 29.626 33.9392 32.7842 37.3187 30.0488C39.3816 28.3789 39.8698 25.7242 39.0919 23.2418C40.1434 21.9598 48.7789 11.4314 49.8329 10.1463H52.4031C53.7211 10.1463 54.7933 11.2186 54.7933 12.5366V34.971H17.9299C17.2827 34.971 16.7581 35.4957 16.7581 36.1428C16.7581 36.7899 17.2827 37.3147 17.9299 37.3147H54.7936V42.8026Z" fill="white"/>
<path d="M13.0164 34.9936C12.4522 35.109 12.0742 35.5966 12.0742 36.1434C12.0742 36.8764 12.7444 37.4377 13.4746 37.2918C14.1234 37.1601 14.5187 36.5348 14.3945 35.9137C14.2641 35.2727 13.6423 34.8677 13.0164 34.9936Z" fill="white"/>
</svg>
