<svg width="60" height="60" viewBox="0 0 60 60" fill="none" xmlns="http://www.w3.org/2000/svg">
<g clip-path="url(#clip0_3_79)">
<path d="M30 19.3549C25.1971 19.3549 21.2903 23.2616 21.2903 28.0645C21.2903 32.8674 25.1971 36.7742 30 36.7742C34.8029 36.7742 38.7097 32.8674 38.7097 28.0645C38.7097 23.2616 34.8029 19.3549 30 19.3549ZM30 34.8387C26.2655 34.8387 23.2258 31.7991 23.2258 28.0645C23.2258 24.33 26.2655 21.2903 30 21.2903C33.7345 21.2903 36.7742 24.33 36.7742 28.0645C36.7742 31.7991 33.7345 34.8387 30 34.8387Z" fill="white"/>
<path d="M5.80645 9.90295V19.1284L13.4932 14.5162L5.80645 9.90295ZM7.74194 13.323L9.73258 14.5162L7.74194 15.7094V13.323Z" fill="white"/>
<path d="M46.4516 13.5483H48.3871V15.4838H46.4516V13.5483Z" fill="white"/>
<path d="M50.3226 13.5483H52.2581V15.4838H50.3226V13.5483Z" fill="white"/>
<path d="M54.1935 13.5483H56.129V15.4838H54.1935V13.5483Z" fill="white"/>
<path d="M53.7929 23.2258C55.081 23.2258 56.129 22.1777 56.129 20.8897V19.3548H58.0645C59.1319 19.3548 60 18.4868 60 17.4194V11.6129C60 10.5455 59.1319 9.67742 58.0645 9.67742H44.5161C44.0197 9.67742 43.5697 9.87097 43.2271 10.1797C41.8239 9.14129 40.3123 8.27613 38.7097 7.59387V7.03645L37.1342 6.51871C36.8768 6.43355 36.6697 6.24097 36.5642 5.98935C36.4597 5.73968 36.4684 5.45806 36.5894 5.21516L37.3287 3.72581L34.9839 1.38097L33.4926 2.11935C33.2506 2.24032 32.971 2.24903 32.7194 2.14452C32.4687 2.04 32.2761 1.83194 32.1919 1.57548L31.6732 0H28.3258L27.8081 1.57548C27.7229 1.8329 27.5303 2.04 27.2787 2.14548C27.0281 2.24903 26.7484 2.24226 26.5045 2.12032L25.0161 1.38097L22.6713 3.72581L23.4106 5.2171C23.5316 5.45806 23.5413 5.73968 23.4358 5.99032C23.3303 6.24097 23.1232 6.43355 22.8668 6.51774L21.2903 7.03645V7.59581C19.5474 8.33806 17.9129 9.29613 16.41 10.4584C14.9477 7.69548 12.0474 5.80645 8.70968 5.80645C3.90677 5.80645 0 9.71323 0 14.5161C0 19.1748 3.67839 22.979 8.28193 23.2045C7.92774 24.7935 7.74194 26.4213 7.74194 28.0645C7.74194 28.3877 7.77194 28.709 7.78548 29.0323H1.93548C0.868064 29.0323 0 29.9003 0 30.9677V38.7097C0 39.7771 0.868064 40.6452 1.93548 40.6452H11.6477C12.1113 41.3197 12.6087 41.97 13.1439 42.5903L0 42.6106V58.0926H27.0997C27.1152 59.1464 27.9745 60 29.0323 60H30.9677C32.0352 60 32.9032 59.1319 32.9032 58.0645H35.8065C37.4071 58.0645 38.7097 56.7619 38.7097 55.1613C38.7097 54.779 38.6313 54.4161 38.4968 54.0813C39.7306 53.7464 40.6452 52.6287 40.6452 51.2903C40.6452 50.5442 40.3539 49.8697 39.8903 49.3548C40.3132 48.8865 40.5803 48.2835 40.6258 47.6158C42.8032 46.4294 44.7794 44.8848 46.4526 43.0519V44.5161C46.4526 45.5835 47.3206 46.4516 48.3881 46.4516H50.3235C51.391 46.4516 52.259 45.5835 52.259 44.5161V41.0206L56.5384 42.4481C56.8065 42.5352 57.0852 42.5806 57.3668 42.5806C58.8184 42.5806 60 41.399 60 39.9474V31.6645C60 30.2129 58.8184 29.0313 57.3668 29.0313C57.0852 29.0313 56.8064 29.0768 56.5345 29.1668L52.0916 30.6474C52.1903 29.7919 52.2581 28.9306 52.2581 28.0645C52.2581 25.8929 51.9503 23.7823 51.3494 21.75L52.141 22.5416C52.5755 22.9761 53.1774 23.2258 53.7929 23.2258ZM44.5161 11.6129H58.0645L58.0664 17.4194H54.1935V20.8897C54.1935 21.2168 53.7406 21.4035 53.5094 21.1732L49.7555 17.4194H44.5161V11.6129ZM23.2258 8.43677L23.4726 8.35548C24.2632 8.09419 24.901 7.50387 25.2223 6.73548C25.5435 5.9671 25.5145 5.09903 25.1439 4.35484L25.0229 4.11097L25.4023 3.73161L25.6442 3.85258C26.3903 4.22323 27.2584 4.25323 28.0258 3.93097C28.7952 3.60968 29.3855 2.9729 29.6477 2.18032L29.7271 1.93548H30.2729L30.3542 2.18226C30.6155 2.9729 31.2058 3.61065 31.9742 3.93194C32.7416 4.25323 33.6097 4.22323 34.3548 3.85355L34.5987 3.73258L34.9781 4.11194L34.8571 4.35387C34.4865 5.1 34.4574 5.96806 34.7787 6.73548C35.1 7.50484 35.7368 8.09516 36.5294 8.35742L36.7742 8.43677V8.98258L36.5274 9.06387C35.7368 9.32516 35.099 9.91548 34.7777 10.6839C34.4565 11.4523 34.4855 12.3203 34.8561 13.0645L34.9771 13.3084L34.5977 13.6877L34.3558 13.5668C33.6106 13.1971 32.7416 13.1671 31.9742 13.4884C31.2048 13.8097 30.6145 14.4465 30.3523 15.239L30.2729 15.4819C30.0948 15.4819 29.9023 15.4819 29.7252 15.4819L29.6448 15.2381C29.3835 14.4474 28.7932 13.8097 28.0248 13.4884C27.2574 13.1671 26.3884 13.1971 25.6442 13.5668L25.4003 13.6877L25.021 13.3084L25.1419 13.0665C25.5126 12.3203 25.5416 11.4523 25.2203 10.6848C24.899 9.91548 24.2623 9.32516 23.4697 9.0629L23.2258 8.98258V8.43677ZM32.9032 46.4748L37.7419 46.4516C38.2761 46.4516 38.7097 46.8852 38.7097 47.4194C38.7097 47.9535 38.2761 48.3871 37.7371 48.3871L32.9032 48.4103V46.4748ZM37.7371 44.5161L32.9032 44.5394V44.5161C34.3297 44.5161 35.5645 43.7323 36.2361 42.5806H37.7419C38.2761 42.5806 38.7097 43.0142 38.7097 43.5484C38.7097 44.0826 38.2761 44.5161 37.7371 44.5161ZM34.8387 40.6452C34.8387 41.7126 33.9706 42.5806 32.9032 42.5806H27.4665L27.1994 43.1158C26.6681 44.1774 25.7903 45.0552 24.7287 45.5864L25.5948 47.3177C26.1387 47.0458 26.6371 46.6955 27.0977 46.3006V56.1581H20.3235V43.7855C21.3823 41.8423 23.3913 40.6452 25.6181 40.6452H34.8387ZM30 38.7097C24.1306 38.7097 19.3548 33.9339 19.3548 28.0645C19.3548 22.1952 24.1306 17.4194 30 17.4194C35.8694 17.4194 40.6452 22.1952 40.6452 28.0645C40.6452 33.9339 35.8694 38.7097 30 38.7097ZM1.93548 14.5161C1.93548 10.7816 4.97516 7.74194 8.70968 7.74194C12.4442 7.74194 15.4839 10.7816 15.4839 14.5161C15.4839 18.2506 12.4442 21.2903 8.70968 21.2903C4.97516 21.2903 1.93548 18.2506 1.93548 14.5161ZM4.43806 34.8387L1.93548 37.3413V32.3371L4.43806 34.8387ZM5.84516 36.1684C6.39774 36.5574 7.05194 36.7742 7.74194 36.7742C8.43194 36.7742 9.08613 36.5574 9.63871 36.1684L12.18 38.7097H3.30387L5.84516 36.1684ZM13.5503 37.3432L11.0458 34.8387L13.5484 32.3342L13.5503 37.3432ZM8.70968 34.4381C8.19194 34.9539 7.29194 34.9539 6.77419 34.4381L3.3029 30.9677H12.1781L8.70968 34.4381ZM14.0032 40.5852C14.85 40.38 15.4839 39.6194 15.4839 38.7097V30.9677C15.4839 29.9003 14.6158 29.0323 13.5484 29.0323H9.72097C9.70548 28.709 9.67742 28.3877 9.67742 28.0645C9.67742 26.371 9.8971 24.6968 10.3074 23.0719C14.3487 22.319 17.4194 18.7723 17.4194 14.5161C17.4194 13.7681 17.3148 13.0461 17.1368 12.3523C18.4181 11.3013 19.8058 10.4139 21.2903 9.70839V10.3829L22.8658 10.9006C23.1232 10.9858 23.3303 11.1784 23.4358 11.43C23.5403 11.6797 23.5316 11.9613 23.4106 12.2042L22.6713 13.6935L25.0161 16.0384L26.5074 15.299C26.7474 15.1771 27.029 15.1684 27.2806 15.2739C27.479 15.3571 27.6232 15.5158 27.7239 15.7006C21.871 16.7768 17.4194 21.9058 17.4194 28.0645C17.4194 32.7145 19.9616 36.7732 23.7223 38.9506C21.6735 39.4471 19.9103 40.7371 18.8042 42.5816L15.7955 42.5865C15.1548 41.9594 14.5558 41.2906 14.0032 40.5852ZM1.93548 44.5423L18.3871 44.5171V56.1571H1.93548V44.5423ZM29.0323 58.0645V44.5161H30.9677V58.0645H29.0323ZM35.8065 56.129H32.9032V54.2168L35.8519 54.2023C36.3639 54.2284 36.7742 54.6435 36.7742 55.1613C36.7742 55.6955 36.3406 56.129 35.8065 56.129ZM37.7371 52.2581L35.8955 52.2668C35.8655 52.2658 35.8365 52.2581 35.8065 52.2581V52.2677L32.9032 52.2823V50.3468L37.7419 50.3226C38.2761 50.3226 38.7097 50.7561 38.7097 51.2903C38.7097 51.8245 38.2761 52.2581 37.7371 52.2581ZM40.0771 45.7103C40.019 45.631 39.9561 45.5565 39.8903 45.4839C40.3548 44.969 40.6452 44.2945 40.6452 43.5484C40.6452 41.9477 39.3426 40.6452 37.7419 40.6452H36.7742C36.7742 40.02 36.4713 39.4684 36.0087 39.1142C39.9203 36.9784 42.5806 32.8268 42.5806 28.0645C42.5806 21.9058 38.129 16.7768 32.2761 15.7006C32.3777 15.5158 32.5219 15.3571 32.7203 15.2739C32.97 15.1694 33.2506 15.1781 33.4945 15.299L34.9839 16.0384L37.3287 13.6935L36.5894 12.2023C36.4684 11.9613 36.4587 11.6797 36.5642 11.429C36.6697 11.1784 36.8768 10.9858 37.1332 10.9016L38.7097 10.3829V9.70355C40.0848 10.3568 41.3787 11.1687 42.5806 12.119V17.4194C42.5806 18.4868 43.4487 19.3548 44.5161 19.3548H48.3581C49.6558 22.0829 50.3226 25.0084 50.3226 28.0645C50.3226 29.04 50.2335 30.0097 50.0961 30.9677H45.4839C43.8832 30.9677 42.5806 32.2703 42.5806 33.871V37.7419C42.5806 39.3426 43.8832 40.6452 45.4839 40.6452H45.9571C44.34 42.6919 42.3339 44.4165 40.0771 45.7103ZM45.4839 38.7097C44.9497 38.7097 44.5161 38.2761 44.5161 37.7419V33.871C44.5161 33.3368 44.9497 32.9032 45.4839 32.9032H50.3226V38.7097H45.4839ZM48.3871 44.5161V40.6452H50.3226V44.5161H48.3871ZM57.1442 31.0045C57.5884 30.8497 58.0645 31.2068 58.0645 31.6655V39.9484C58.0645 40.4071 57.5739 40.7516 57.1471 40.6113L52.2581 38.9797V32.6323L57.1442 31.0045Z" fill="white"/>
<path d="M30 11.6128C31.6006 11.6128 32.9032 10.3103 32.9032 8.70962C32.9032 7.10898 31.6006 5.8064 30 5.8064C28.3994 5.8064 27.0968 7.10898 27.0968 8.70962C27.0968 10.3103 28.3994 11.6128 30 11.6128ZM30 7.74188C30.5342 7.74188 30.9677 8.17543 30.9677 8.70962C30.9677 9.24382 30.5342 9.67736 30 9.67736C29.4658 9.67736 29.0323 9.24382 29.0323 8.70962C29.0323 8.17543 29.4658 7.74188 30 7.74188Z" fill="white"/>
</g>
<defs>
<clipPath id="clip0_3_79">
<rect width="60" height="60" fill="white"/>
</clipPath>
</defs>
</svg>
