<svg width="60" height="60" viewBox="0 0 60 60" fill="none" xmlns="http://www.w3.org/2000/svg">
<path d="M33.6328 37.0664H26.4141C25.9922 37.0664 25.6523 36.7266 25.6523 36.3047C25.6523 35.8828 25.9922 35.543 26.4141 35.543H33.6328C34.0547 35.543 34.3945 35.8828 34.3945 36.3047C34.3945 36.7266 34.0547 37.0664 33.6328 37.0664Z" fill="white"/>
<path d="M36.8437 35.0742H23.1562C22.7344 35.0742 22.3945 34.7344 22.3945 34.3125V29.7656C22.3945 29.3438 22.7344 29.0039 23.1562 29.0039C23.5781 29.0039 23.918 29.3438 23.918 29.7656V33.5508H36.082V29.7656C36.082 29.3438 36.4219 29.0039 36.8437 29.0039C37.2656 29.0039 37.6055 29.3438 37.6055 29.7656V34.3125C37.6055 34.7344 37.2656 35.0742 36.8437 35.0742Z" fill="white"/>
<path d="M28.0195 37.0664C27.5977 37.0664 27.2578 36.7266 27.2578 36.3047V34.3125C27.2578 33.8906 27.5977 33.5508 28.0195 33.5508C28.4414 33.5508 28.7812 33.8906 28.7812 34.3125V36.3047C28.7812 36.7266 28.4297 37.0664 28.0195 37.0664Z" fill="white"/>
<path d="M31.9922 37.0664C31.5703 37.0664 31.2305 36.7266 31.2305 36.3047L31.2188 34.3242C31.2188 33.9023 31.5586 33.5625 31.9805 33.5625C32.4023 33.5625 32.7422 33.9023 32.7422 34.3242L32.7539 36.3047C32.7539 36.7266 32.4141 37.0664 31.9922 37.0664Z" fill="white"/>
<path d="M47.6953 30.5391H12.3047C11.707 30.5391 11.2266 30.0586 11.2266 29.4609V3.43359C11.2266 2.83594 11.707 2.35547 12.3047 2.35547H47.6953C48.2813 2.35547 48.7734 2.83594 48.7734 3.43359V29.4609C48.7734 30.0586 48.293 30.5391 47.6953 30.5391ZM12.75 29.0156H47.25V3.89063H12.75V29.0156Z" fill="white"/>
<path d="M30 21.9141C27.0586 21.9141 24.6562 19.5117 24.6562 16.5703C24.6562 13.6289 27.0586 11.2266 30 11.2266C32.9414 11.2266 35.3438 13.6289 35.3438 16.5703C35.3438 19.5117 32.9414 21.9141 30 21.9141ZM30 12.75C27.8906 12.75 26.1797 14.4609 26.1797 16.5703C26.1797 18.6797 27.8906 20.3906 30 20.3906C32.1094 20.3906 33.8203 18.6797 33.8203 16.5703C33.8203 14.4609 32.1094 12.75 30 12.75Z" fill="white"/>
<path d="M32.0859 16.3243L29.168 14.6485C28.9805 14.543 28.7461 14.6719 28.7461 14.8946V18.2578C28.7461 18.4688 28.9805 18.6094 29.168 18.5039L32.0859 16.8164C32.2617 16.6993 32.2617 16.4297 32.0859 16.3243Z" fill="white"/>
<path d="M15.1523 27.164L13.8398 26.332C13.7109 26.25 13.5586 26.3437 13.5586 26.4843V28.1484C13.5586 28.289 13.7227 28.3828 13.8398 28.3007L15.1523 27.4687C15.2695 27.4101 15.2695 27.2343 15.1523 27.164Z" fill="white"/>
<path d="M22.5352 28.6523C21.8203 28.6523 21.2344 28.0547 21.2344 27.3164C21.2344 26.5781 21.8203 25.9805 22.5352 25.9805C23.25 25.9805 23.8359 26.5781 23.8359 27.3164C23.8359 28.0547 23.25 28.6523 22.5352 28.6523ZM22.5352 27.1289C22.418 27.1289 22.3125 27.2109 22.3125 27.3164C22.3125 27.4219 22.418 27.5039 22.5352 27.5039C22.6523 27.5039 22.7578 27.4219 22.7578 27.3164C22.7578 27.2109 22.6523 27.1289 22.5352 27.1289Z" fill="white"/>
<path d="M21.9961 28.0781H16.4766C16.0547 28.0781 15.7148 27.7383 15.7148 27.3164C15.7148 26.8945 16.0547 26.5547 16.4766 26.5547H21.9961C22.418 26.5547 22.7578 26.8945 22.7578 27.3164C22.7578 27.7383 22.418 28.0781 21.9961 28.0781Z" fill="white"/>
<path d="M46.2305 28.0781H23.0742C22.6523 28.0781 22.3125 27.7383 22.3125 27.3164C22.3125 26.8945 22.6523 26.5547 23.0742 26.5547H46.2305C46.6523 26.5547 46.9922 26.8945 46.9922 27.3164C46.9922 27.7383 46.6523 28.0781 46.2305 28.0781Z" fill="white"/>
<path d="M22.0898 53.7656C21.7265 53.7656 21.3633 53.6953 21.0117 53.5429C20.332 53.2499 19.8047 52.7226 19.5351 52.0429C19.2656 51.3632 19.289 50.6367 19.582 49.9687L25.7226 35.9882C25.8867 35.6015 26.3437 35.4257 26.7304 35.6015C27.1172 35.7773 27.2929 36.2226 27.1172 36.6093L20.9765 50.5898C20.8476 50.8828 20.8476 51.1992 20.9531 51.4804C21.0703 51.7734 21.3047 52.0195 21.6093 52.1367C22.2304 52.3945 22.957 52.1249 23.2265 51.5156L27.3281 42.2109C27.4922 41.8242 27.9492 41.6484 28.3359 41.8242C28.7226 41.9999 28.8984 42.4453 28.7226 42.832L24.6211 52.1367C24.164 53.1562 23.1562 53.7656 22.0898 53.7656Z" fill="white"/>
<path d="M37.9102 53.7656C36.8438 53.7656 35.8359 53.1562 35.3789 52.1367L31.2891 42.8554C31.1133 42.4687 31.2891 42.0234 31.6758 41.8476C32.0625 41.6718 32.5078 41.8476 32.6836 42.2343L36.7734 51.5156C37.043 52.125 37.7695 52.4062 38.3906 52.1367C38.6953 52.0078 38.918 51.7734 39.0469 51.4804C39.1641 51.1875 39.1523 50.871 39.0352 50.5898L32.9414 36.6093C32.7773 36.2226 32.9531 35.7773 33.3398 35.6015C33.7266 35.4375 34.1719 35.6132 34.3477 36L40.4414 49.9804C40.7344 50.6367 40.7461 51.375 40.4766 52.0546C40.207 52.7343 39.6797 53.2734 39 53.5546C38.6367 53.6953 38.2734 53.7656 37.9102 53.7656Z" fill="white"/>
<path d="M30 56.3437C28.4883 56.3437 27.2578 55.125 27.2578 53.6367V40.8633C27.2578 40.4414 27.5977 40.1016 28.0195 40.1016C28.4414 40.1016 28.7812 40.4414 28.7812 40.8633V53.6367C28.7812 54.293 29.332 54.8203 30 54.8203C30.668 54.8203 31.2305 54.2812 31.2305 53.6367V40.8633C31.2305 40.4414 31.5703 40.1016 31.9922 40.1016C32.4141 40.1016 32.7539 40.4414 32.7539 40.8633V53.6367C32.7539 55.1367 31.5234 56.3437 30 56.3437Z" fill="white"/>
<path d="M35.625 41.625H24.4102C23.9883 41.625 23.6484 41.2852 23.6484 40.8633C23.6484 40.4414 23.9883 40.1016 24.4102 40.1016H35.625C36.0469 40.1016 36.3867 40.4414 36.3867 40.8633C36.3867 41.2852 36.0352 41.625 35.625 41.625Z" fill="white"/>
</svg>
