<svg width="60" height="60" viewBox="0 0 60 60" fill="none" xmlns="http://www.w3.org/2000/svg">
<mask id="mask0_3_187" style="mask-type:luminance" maskUnits="userSpaceOnUse" x="0" y="0" width="60" height="60">
<path d="M0 0H60V60H0V0Z" fill="white"/>
</mask>
<g mask="url(#mask0_3_187)">
<path d="M11.0144 5.85938H3.80863C2.19062 5.85938 0.878938 7.17105 0.878938 8.78906V51.2109C0.878938 52.8289 2.19062 54.1406 3.80863 54.1406H56.1914C57.8093 54.1406 59.1211 52.8289 59.1211 51.2109V27.7834" stroke="white" stroke-width="2" stroke-miterlimit="10" stroke-linecap="round" stroke-linejoin="round"/>
<path d="M59.1211 23.6619V8.78901C59.1211 7.17101 57.8094 5.85933 56.1914 5.85933H15.1247" stroke="white" stroke-width="2" stroke-miterlimit="10" stroke-linecap="round" stroke-linejoin="round"/>
<path d="M9.34507 11.4844C9.34507 10.5136 8.55804 9.72656 7.58726 9.72656C6.61648 9.72656 5.82945 10.5136 5.82945 11.4844C5.82945 12.4552 6.61648 13.2422 7.58726 13.2422C8.55804 13.2422 9.34507 12.4552 9.34507 11.4844Z" stroke="white" stroke-width="2" stroke-miterlimit="10" stroke-linecap="round" stroke-linejoin="round"/>
<path d="M16.3763 11.4844C16.3763 10.5136 15.5893 9.72656 14.6185 9.72656C13.6477 9.72656 12.8607 10.5136 12.8607 11.4844C12.8607 12.4552 13.6477 13.2422 14.6185 13.2422C15.5893 13.2422 16.3763 12.4552 16.3763 11.4844Z" stroke="white" stroke-width="2" stroke-miterlimit="10" stroke-linecap="round" stroke-linejoin="round"/>
<path d="M23.4076 11.4844C23.4076 10.5136 22.6205 9.72656 21.6498 9.72656C20.679 9.72656 19.892 10.5136 19.892 11.4844C19.892 12.4552 20.679 13.2422 21.6498 13.2422C22.6205 13.2422 23.4076 12.4552 23.4076 11.4844Z" stroke="white" stroke-width="2" stroke-miterlimit="10" stroke-linecap="round" stroke-linejoin="round"/>
<path d="M0.878906 16.8164H59.0039" stroke="white" stroke-width="2" stroke-miterlimit="10" stroke-linecap="round" stroke-linejoin="round"/>
<path d="M30.8789 13.2422C29.9081 13.2422 29.1211 12.4552 29.1211 11.4844C29.1211 10.5136 29.9081 9.72656 30.8789 9.72656H52.5586C53.5294 9.72656 54.3164 10.5136 54.3164 11.4844C54.3164 12.4552 53.5294 13.2422 52.5586 13.2422H30.8789Z" stroke="white" stroke-width="2" stroke-miterlimit="10" stroke-linecap="round" stroke-linejoin="round"/>
<path d="M50.6116 39.9764C50.6698 39.8227 50.7249 39.6673 50.7768 39.5105C50.9406 39.0163 51.4024 38.6827 51.9231 38.6827H53.2252C53.8925 38.6827 54.4336 38.1416 54.4336 37.4743V34.0698C54.4336 33.4025 53.8925 32.8614 53.2252 32.8614H51.9231C51.4025 32.8614 50.9406 32.5278 50.7768 32.0336C50.5945 31.483 50.373 30.9503 50.1158 30.4388C49.8813 29.9728 49.9709 29.4095 50.3398 29.0407L51.2611 28.1195C51.7329 27.6476 51.7329 26.8825 51.2611 26.4106L48.8537 24.0032C48.3818 23.5313 47.6166 23.5313 47.1447 24.0032L46.2235 24.9244C45.8547 25.2932 45.2914 25.383 44.8255 25.1486C44.314 24.8911 43.7812 24.6696 43.2307 24.4874C42.7365 24.3237 42.4029 23.8618 42.4029 23.3411V22.039C42.4029 21.3716 41.8618 20.8307 41.1945 20.8307H37.79C37.1226 20.8307 36.5815 21.3716 36.5815 22.039V23.3411C36.5815 23.8618 36.2479 24.3237 35.7538 24.4874C35.6297 24.5284 35.5066 24.5714 35.3844 24.6166" stroke="white" stroke-width="2" stroke-miterlimit="10" stroke-linecap="round" stroke-linejoin="round"/>
<path d="M28.3508 31.6259C28.3007 31.7606 28.2529 31.8966 28.2075 32.0336C28.0438 32.5279 27.5819 32.8614 27.0613 32.8614H25.7592C25.0917 32.8614 24.5508 33.4024 24.5508 34.0698V37.4744C24.5508 38.1417 25.0917 38.6827 25.7592 38.6827H27.0613C27.5819 38.6827 28.0438 39.0163 28.2075 39.5105C28.3899 40.061 28.6114 40.5938 28.8687 41.1054C29.1031 41.5714 29.0133 42.1346 28.6445 42.5033L27.7233 43.4247C27.2514 43.8965 27.2514 44.6616 27.7233 45.1336L30.1307 47.5409C30.6026 48.0128 31.3677 48.0128 31.8396 47.5409L32.7608 46.6197C33.1296 46.2509 33.693 46.1612 34.1589 46.3956C34.6704 46.653 35.2032 46.8744 35.7537 47.0568C36.2479 47.2204 36.5815 47.6823 36.5815 48.203V49.5051C36.5815 50.1724 37.1226 50.7135 37.7898 50.7135H41.1944C41.8617 50.7135 42.4029 50.1724 42.4029 49.5051V48.203C42.4029 47.6823 42.7364 47.2204 43.2306 47.0568C43.3839 47.006 43.5358 46.9523 43.6861 46.8955" stroke="white" stroke-width="2" stroke-miterlimit="10" stroke-linecap="round" stroke-linejoin="round"/>
<path d="M41.0154 28.525C40.5396 28.4282 40.0471 28.3774 39.5429 28.3774C38.2714 28.3774 37.0754 28.7004 36.0325 29.269" stroke="white" stroke-width="2" stroke-miterlimit="10" stroke-linecap="round" stroke-linejoin="round"/>
<path d="M45.9961 39.1992C46.5717 38.1514 46.887 37.0014 46.887 35.7214C46.887 33.6292 46.012 31.7412 44.608 30.4036" stroke="white" stroke-width="2" stroke-miterlimit="10" stroke-linecap="round" stroke-linejoin="round"/>
<path d="M32.9883 32.2851C32.4627 33.297 32.1988 34.5023 32.1988 35.7214C32.1988 39.7775 35.4867 43.0656 39.5429 43.0656C40.7645 43.0656 41.9358 42.7738 42.9492 42.2461" stroke="white" stroke-width="2" stroke-miterlimit="10" stroke-linecap="round" stroke-linejoin="round"/>
<path d="M36.6275 35.8891L36.3799 35.6413L33.005 32.2665C31.2696 32.8848 29.2571 32.4997 27.8677 31.1103C26.5571 29.7997 26.1397 27.9337 26.6164 26.2697C26.6897 26.0138 27.0143 25.9339 27.2025 26.1221L28.5406 27.4602C29.2695 28.1891 30.4514 28.1891 31.1803 27.4602C31.9091 26.7313 31.9092 25.5495 31.1803 24.8206L29.8421 23.4824C29.654 23.2942 29.7338 22.9696 29.9895 22.8964C31.6472 22.4215 33.5049 22.8337 34.8151 24.1325C34.8407 24.1578 34.8664 24.1838 34.8916 24.2099C36.2377 25.6036 36.5948 27.6132 35.9652 29.3338L39.3903 32.7591L43.6229 36.9917L45.9304 39.2992C47.6511 38.6696 49.6606 39.0266 51.0543 40.3727C51.0805 40.3979 51.1066 40.4235 51.1318 40.4492C52.4307 41.7593 52.8427 43.6171 52.3679 45.2747C52.2947 45.5304 51.97 45.6104 51.7818 45.4222L50.4437 44.084C49.7149 43.3551 48.5331 43.3551 47.804 44.0841C47.0751 44.8129 47.0751 45.9947 47.804 46.7238L49.1422 48.0618C49.3303 48.2499 49.2505 48.5746 48.9947 48.6479C47.3306 49.1246 45.4647 48.7072 44.1541 47.3965C42.7646 46.0072 42.3309 43.9815 42.9492 42.2461L40.7513 40.0129L39.5223 38.7838" stroke="white" stroke-width="2" stroke-miterlimit="10" stroke-linecap="round" stroke-linejoin="round"/>
<path d="M5.80078 30.4987H19.8633" stroke="white" stroke-width="2" stroke-miterlimit="10" stroke-linecap="round" stroke-linejoin="round"/>
<path d="M13.7259 34.0143H19.8633" stroke="white" stroke-width="2" stroke-miterlimit="10" stroke-linecap="round" stroke-linejoin="round"/>
<path d="M5.80078 34.0143H10.2102" stroke="white" stroke-width="2" stroke-miterlimit="10" stroke-linecap="round" stroke-linejoin="round"/>
<path d="M5.80078 37.5299H19.8633" stroke="white" stroke-width="2" stroke-miterlimit="10" stroke-linecap="round" stroke-linejoin="round"/>
<path d="M11.5212 41.0455H19.8633" stroke="white" stroke-width="2" stroke-miterlimit="10" stroke-linecap="round" stroke-linejoin="round"/>
<path d="M5.80078 41.0455H8.00555" stroke="white" stroke-width="2" stroke-miterlimit="10" stroke-linecap="round" stroke-linejoin="round"/>
</g>
</svg>
