<svg width="60" height="60" viewBox="0 0 60 60" fill="none" xmlns="http://www.w3.org/2000/svg">
<g clip-path="url(#clip0_3_99)">
<path d="M8.47809 50.1855L9.80391 48.8597L11.1297 50.1855L9.80391 51.5114L8.47809 50.1855Z" fill="white"/>
<path d="M11.13 47.5338L12.4558 46.208L13.7817 47.5338L12.4558 48.8596L11.13 47.5338Z" fill="white"/>
<path d="M5.89412 52.7701L7.15299 51.5113L8.47882 52.8371L7.21994 54.096L5.89412 52.7701Z" fill="white"/>
<path d="M41.0887 17.0991C40.0828 17.5275 39.375 18.5259 39.375 19.6875C39.375 21.2381 40.6369 22.5 42.1875 22.5C43.7381 22.5 45 21.2381 45 19.6875C45 19.3575 44.9325 19.0444 44.8275 18.75H48.9234C48.8175 19.0444 48.75 19.3575 48.75 19.6875C48.75 21.2381 50.0119 22.5 51.5625 22.5C53.1131 22.5 54.375 21.2381 54.375 19.6875C54.375 18.6244 53.775 17.7075 52.9022 17.2303L54.1162 14.8022C54.285 14.4637 54.375 14.0831 54.375 13.7044C54.375 12.3516 53.2744 11.25 51.9206 11.25H41.8312L41.0812 7.5H36.5625V9.375H39.5438L41.0887 17.0991ZM43.125 19.6875C43.125 20.205 42.7041 20.625 42.1875 20.625C41.6709 20.625 41.25 20.205 41.25 19.6875C41.25 19.17 41.6709 18.75 42.1875 18.75C42.7041 18.75 43.125 19.17 43.125 19.6875ZM51.5625 20.625C51.0459 20.625 50.625 20.205 50.625 19.6875C50.625 19.17 51.0459 18.75 51.5625 18.75C52.0791 18.75 52.5 19.17 52.5 19.6875C52.5 20.205 52.0791 20.625 51.5625 20.625ZM51.9206 13.125C52.2403 13.125 52.5 13.3847 52.5 13.7044C52.5 13.7944 52.4794 13.8834 52.4391 13.9631L50.9831 16.875H42.9562L42.2063 13.125H51.9206Z" fill="white"/>
<path d="M42.1875 33.7501C42.1875 31.9669 41.8884 30.2326 41.3091 28.5666C43.0856 29.0551 44.9503 29.1872 46.8375 28.9444C53.0944 28.1363 58.1897 23.0157 58.9537 16.7691C59.4853 12.4238 58.0341 8.16474 54.9731 5.08599C51.9113 2.00536 47.6616 0.530676 43.3181 1.03599C37.2056 1.74661 32.2022 6.48286 31.1503 12.5522C30.7913 14.6269 30.8981 16.7091 31.4438 18.6938C29.775 18.1126 28.0378 17.8126 26.25 17.8126C17.4619 17.8126 10.3125 24.9619 10.3125 33.7501C10.3125 36.5776 11.0606 39.2307 12.3581 41.536L2.87063 49.5038C1.64156 50.5341 0.9375 52.0463 0.9375 53.6494C0.9375 56.6335 3.36563 59.0626 6.35063 59.0626C7.95375 59.0626 9.465 58.3585 10.4963 57.1294L18.4622 47.6419C20.7684 48.9394 23.4216 49.6876 26.25 49.6876C35.0381 49.6876 42.1875 42.5382 42.1875 33.7501ZM32.9972 12.8719C33.9084 7.61536 38.2416 3.5138 43.5347 2.89693C44.0222 2.83974 44.5078 2.81255 44.9906 2.81255C48.2409 2.81255 51.3328 4.08193 53.6428 6.40693C56.2959 9.07599 57.5531 12.7697 57.0919 16.5413C56.43 21.9507 52.0162 26.3841 46.5975 27.0835C43.7681 27.4482 41.0006 26.8472 38.5866 25.3472L38.0925 25.0407L31.7353 28.9829C31.4044 29.1872 30.9375 28.9257 30.9375 28.5404V28.4401C30.9375 28.366 30.9534 28.2919 30.9834 28.2254L34.3153 20.8585L34.1147 20.4582C32.9316 18.1032 32.5453 15.48 32.9972 12.8719ZM22.5197 32.8126C22.5684 31.456 22.7231 30.196 22.9509 29.0626H29.1234C29.2219 29.5041 29.4413 29.9007 29.7478 30.2138C29.8688 31.0538 29.9344 31.9266 29.9663 32.8126H22.5197ZM29.9803 34.6876C29.9316 36.0441 29.7769 37.3041 29.5491 38.4376H22.9509C22.7222 37.3041 22.5684 36.0441 22.5197 34.6876H29.9803ZM30.3075 25.17C30.1331 24.7763 29.9484 24.4097 29.7516 24.0769C30.0516 24.1866 30.345 24.3094 30.6347 24.4472L30.3075 25.17ZM29.0691 27.1876H23.4291C24.1687 24.8691 25.2431 23.4376 26.25 23.4376C27.2456 23.4376 28.3378 24.9226 29.0691 27.1876ZM21.4641 27.1876H18.3009C19.4691 25.7747 21.0112 24.6882 22.7672 24.0554C22.2497 24.9169 21.8091 25.9735 21.4641 27.1876ZM17.0756 29.0626H21.0291C20.8181 30.2222 20.6878 31.4822 20.6456 32.8126H15.9853C16.1063 31.4719 16.4888 30.2072 17.0756 29.0626ZM20.6456 34.6876C20.6887 36.0179 20.8181 37.2779 21.0291 38.4376H17.0756C16.4888 37.2929 16.1062 36.0282 15.9844 34.6876H20.6456ZM21.4641 40.3126C21.8091 41.5266 22.2497 42.5832 22.7681 43.4447C21.0112 42.8119 19.47 41.7254 18.3019 40.3126H21.4641ZM23.4291 40.3126H29.0709C28.3313 42.631 27.2569 44.0626 26.25 44.0626C25.2431 44.0626 24.1687 42.631 23.4291 40.3126ZM31.0359 40.3126H34.1991C33.0309 41.7254 31.4888 42.8119 29.7328 43.4447C30.2503 42.5832 30.6909 41.5266 31.0359 40.3126ZM35.4244 38.4376H31.4709C31.6819 37.2779 31.8122 36.0179 31.8544 34.6876H36.5147C36.3938 36.0282 36.0112 37.2929 35.4244 38.4376ZM31.8413 32.8126C31.8197 32.1657 31.7766 31.5301 31.7109 30.9029C32.0672 30.8644 32.415 30.7688 32.7225 30.5785L35.3616 28.9426C36 30.1472 36.3909 31.4597 36.5147 32.8135L31.8413 32.8126ZM26.25 19.6876C28.3153 19.6876 30.3047 20.1526 32.1788 21.0319L31.4062 22.741C29.7891 21.9816 28.0322 21.5626 26.25 21.5626C19.53 21.5626 14.0625 27.0301 14.0625 33.7501C14.0625 40.4701 19.53 45.9376 26.25 45.9376C32.97 45.9376 38.4375 40.4701 38.4375 33.7501C38.4375 31.7166 37.9275 29.7301 36.96 27.9497L38.1028 27.241C38.3625 27.3882 38.6269 27.5185 38.8931 27.6479C39.8259 29.5744 40.3125 31.6229 40.3125 33.7501C40.3125 41.5041 34.0041 47.8126 26.25 47.8126C18.4959 47.8126 12.1875 41.5041 12.1875 33.7501C12.1875 25.996 18.4959 19.6876 26.25 19.6876ZM9.06188 55.9238C8.38688 56.7272 7.39969 57.1876 6.35063 57.1876C4.39969 57.1876 2.8125 55.6004 2.8125 53.6494C2.8125 52.6013 3.27281 51.6141 4.07531 50.9391L13.3866 43.1204C14.3644 44.4582 15.5419 45.6366 16.8797 46.6135L9.06188 55.9238Z" fill="white"/>
<path d="M7.5 10.3125C9.05063 10.3125 10.3125 9.05063 10.3125 7.5C10.3125 5.94937 9.05063 4.6875 7.5 4.6875C5.94937 4.6875 4.6875 5.94937 4.6875 7.5C4.6875 9.05063 5.94937 10.3125 7.5 10.3125ZM7.5 6.5625C8.01656 6.5625 8.4375 6.9825 8.4375 7.5C8.4375 8.0175 8.01656 8.4375 7.5 8.4375C6.98344 8.4375 6.5625 8.0175 6.5625 7.5C6.5625 6.9825 6.98344 6.5625 7.5 6.5625Z" fill="white"/>
<path d="M15 10.3125C16.5506 10.3125 17.8125 9.05063 17.8125 7.5C17.8125 5.94937 16.5506 4.6875 15 4.6875C13.4494 4.6875 12.1875 5.94937 12.1875 7.5C12.1875 9.05063 13.4494 10.3125 15 10.3125ZM15 6.5625C15.5166 6.5625 15.9375 6.9825 15.9375 7.5C15.9375 8.0175 15.5166 8.4375 15 8.4375C14.4834 8.4375 14.0625 8.0175 14.0625 7.5C14.0625 6.9825 14.4834 6.5625 15 6.5625Z" fill="white"/>
<path d="M22.5 10.3125C24.0506 10.3125 25.3125 9.05063 25.3125 7.5C25.3125 5.94937 24.0506 4.6875 22.5 4.6875C20.9494 4.6875 19.6875 5.94937 19.6875 7.5C19.6875 9.05063 20.9494 10.3125 22.5 10.3125ZM22.5 6.5625C23.0166 6.5625 23.4375 6.9825 23.4375 7.5C23.4375 8.0175 23.0166 8.4375 22.5 8.4375C21.9834 8.4375 21.5625 8.0175 21.5625 7.5C21.5625 6.9825 21.9834 6.5625 22.5 6.5625Z" fill="white"/>
<path d="M3.75 14.0625H8.04938L13.0116 19.0256C13.4334 19.4456 14.0166 19.6875 14.6119 19.6875C15.8597 19.6875 16.875 18.6722 16.875 17.4244V14.0625H26.25C27.8006 14.0625 29.0625 12.8006 29.0625 11.25V3.75C29.0625 2.19937 27.8006 0.9375 26.25 0.9375H3.75C2.19937 0.9375 0.9375 2.19937 0.9375 3.75V11.25C0.9375 12.8006 2.19937 14.0625 3.75 14.0625ZM2.8125 3.75C2.8125 3.2325 3.23344 2.8125 3.75 2.8125H26.25C26.7666 2.8125 27.1875 3.2325 27.1875 3.75V11.25C27.1875 11.7675 26.7666 12.1875 26.25 12.1875H15V17.4244C15 17.7403 14.5613 17.9222 14.3372 17.6991L8.82562 12.1875H3.75C3.23344 12.1875 2.8125 11.7675 2.8125 11.25V3.75Z" fill="white"/>
<path d="M51.5625 32.8125V57.1875H49.6875V42.1875H42.1875V57.1875H40.3125V49.6875H32.8125V59.0625H59.0625V32.8125H51.5625ZM38.4375 57.1875H34.6875V51.5625H38.4375V57.1875ZM44.0625 44.0625H47.8125V57.1875H44.0625V44.0625ZM57.1875 57.1875H53.4375V34.6875H57.1875V57.1875Z" fill="white"/>
</g>
<defs>
<clipPath id="clip0_3_99">
<rect width="60" height="60" fill="white"/>
</clipPath>
</defs>
</svg>
