<svg width="60" height="60" viewBox="0 0 60 60" fill="none" xmlns="http://www.w3.org/2000/svg">
<path d="M30.5438 45.2063C30.5438 46.2164 31.6547 46.7297 32.5863 46.9828C34.5738 47.5219 35.6672 48.6352 35.6672 50.1164C35.6672 51.6117 34.5691 52.8645 33.1055 53.1738V54.1102C33.1055 54.498 32.7902 54.8133 32.4023 54.8133C32.0145 54.8133 31.6992 54.498 31.6992 54.1102V53.1738C30.2355 52.8645 29.1375 51.6117 29.1375 50.1164C29.1375 49.7285 29.4527 49.4133 29.8406 49.4133C30.2285 49.4133 30.5438 49.7285 30.5438 50.1164C30.5438 51.068 31.3781 51.8414 32.4023 51.8414C33.4266 51.8414 34.2609 51.068 34.2609 50.1164C34.2609 49.1063 33.15 48.593 32.2184 48.3398C30.232 47.8008 29.1375 46.6887 29.1375 45.2063C29.1375 43.7109 30.2355 42.4582 31.6992 42.1488V41.2125C31.6992 40.8246 32.0145 40.5094 32.4023 40.5094C32.7902 40.5094 33.1055 40.8246 33.1055 41.2125V42.1488C34.5691 42.4582 35.6672 43.7109 35.6672 45.2063C35.6672 45.5941 35.352 45.9094 34.9641 45.9094C34.5762 45.9094 34.2609 45.5941 34.2609 45.2063C34.2609 44.2547 33.4266 43.4813 32.4023 43.4813C31.377 43.4813 30.5438 44.2547 30.5438 45.2063ZM21.7594 32.0086C21.7594 34.6242 19.6312 36.7523 17.0156 36.7523C14.4 36.7523 12.2719 34.6242 12.2719 32.0086C12.2719 29.393 14.4 27.2648 17.0156 27.2648C19.6312 27.2648 21.7594 29.393 21.7594 32.0086ZM20.3531 32.0086C20.3531 30.1676 18.8555 28.6711 17.0156 28.6711C15.1758 28.6711 13.6781 30.1688 13.6781 32.0086C13.6781 33.8484 15.1758 35.3461 17.0156 35.3461C18.8555 35.3461 20.3531 33.8484 20.3531 32.0086ZM53.5547 19.582C53.5547 21.1875 52.248 22.4941 50.6426 22.4941H49.1742L41.7246 38.3379L41.3191 41.9695C42.3727 43.6137 42.9832 45.5672 42.9832 47.6613C42.9832 53.4961 38.2359 58.2422 32.4023 58.2422C26.5688 58.2422 21.8215 53.4949 21.8215 47.6613C21.8215 45.5684 22.4332 43.6148 23.4855 41.9695L23.3262 40.5434C23.1375 40.6371 22.9301 40.6875 22.7133 40.6875C22.3453 40.6875 21.9996 40.5445 21.7395 40.2844L20.5969 39.1418C20.2512 39.3152 19.8926 39.4641 19.527 39.5859V41.2008C19.527 41.9602 18.9094 42.5777 18.15 42.5777H15.8813C15.1219 42.5777 14.5043 41.9602 14.5043 41.2008V39.5859C14.1387 39.4641 13.7789 39.3152 13.4344 39.1418L12.2918 40.2844C12.0316 40.5445 11.6859 40.6875 11.318 40.6875C10.95 40.6875 10.6043 40.5445 10.3441 40.2844L8.73984 38.6801C8.47969 38.4199 8.33672 38.0742 8.33672 37.7063C8.33672 37.3383 8.47969 36.9926 8.73984 36.7324L9.88242 35.5898C9.70898 35.2441 9.56016 34.8844 9.43828 34.5199H7.82227C7.06289 34.5199 6.44531 33.9023 6.44531 33.143V30.8742C6.44531 30.1148 7.06289 29.4973 7.82227 29.4973H9.43711C9.55898 29.1316 9.70781 28.7719 9.88125 28.4273L8.73867 27.2848C8.47852 27.0246 8.33555 26.6789 8.33555 26.3109C8.33555 25.943 8.47852 25.5973 8.73867 25.3371L10.343 23.7328C10.8797 23.1961 11.7539 23.1961 12.2906 23.7328L13.4332 24.8754C13.7777 24.702 14.1375 24.5531 14.5031 24.4312V22.4941H14.1621C12.5566 22.4941 11.25 21.1875 11.25 19.582C11.25 17.9766 12.5566 16.6699 14.1621 16.6699H50.6426C52.2492 16.6699 53.5547 17.9754 53.5547 19.582ZM22.7133 39.2695L24.2766 37.7063L23.1398 36.5695C22.718 36.1477 22.6148 35.5066 22.8855 34.9734C23.0344 34.6793 23.1621 34.3723 23.2641 34.0605C23.4504 33.4945 23.9766 33.1137 24.573 33.1137H26.1797V30.9023H24.573C23.9766 30.9023 23.4504 30.5215 23.2641 29.9555C23.1621 29.6437 23.0344 29.3367 22.8855 29.0426C22.616 28.5105 22.718 27.8684 23.1398 27.4465L24.2766 26.3098L22.7133 24.7465L21.5766 25.8832C21.1547 26.3051 20.5137 26.4082 19.9805 26.1375C19.6863 25.9887 19.3793 25.8609 19.0676 25.759C18.5016 25.5727 18.1207 25.0465 18.1207 24.45V22.4918H15.9105V24.45C15.9105 25.0465 15.5297 25.5727 14.9637 25.759C14.652 25.8621 14.3449 25.9887 14.0508 26.1375C13.5176 26.407 12.8766 26.3051 12.4547 25.882L11.318 24.7453L9.75469 26.3086L10.8914 27.4453C11.3133 27.8672 11.4164 28.5082 11.1457 29.0414C10.9969 29.3344 10.8703 29.6414 10.7672 29.9543C10.5809 30.5203 10.0547 30.9012 9.4582 30.9012H7.85156V33.1113H9.4582C10.0547 33.1113 10.5809 33.4922 10.7672 34.0582C10.8703 34.3699 10.9969 34.677 11.1457 34.9711C11.4152 35.5031 11.3133 36.1441 10.8914 36.5672L9.75469 37.7039L11.318 39.2672L12.4547 38.1305C12.8766 37.7086 13.5176 37.6055 14.0508 37.8762C14.3438 38.025 14.6508 38.1516 14.9637 38.2547C15.5297 38.441 15.9105 38.9672 15.9105 39.5637V41.1715H18.1207V39.5648C18.1207 38.9684 18.5016 38.4422 19.0676 38.2559C19.3793 38.1539 19.6863 38.0262 19.9805 37.8773C20.5137 37.6078 21.1547 37.7098 21.5766 38.1316L22.7133 39.2695ZM41.5781 47.6613C41.5781 42.6023 37.4625 38.4867 32.4035 38.4867C27.3445 38.4867 23.2289 42.6023 23.2289 47.6613C23.2289 52.7203 27.3434 56.8359 32.4023 56.8359C37.4613 56.8359 41.5781 52.7203 41.5781 47.6613ZM47.6203 22.4941H19.527V24.4312C19.8926 24.5531 20.2523 24.702 20.5969 24.8754L21.7395 23.7328C22.2762 23.1961 23.1504 23.1961 23.6871 23.7328L25.2914 25.3371C25.8281 25.8738 25.8281 26.748 25.2914 27.2848L24.1488 28.4273C24.3223 28.773 24.4723 29.1328 24.593 29.4973H26.2078C26.9672 29.4973 27.5848 30.1148 27.5848 30.8742V33.143C27.5848 33.9023 26.9672 34.5199 26.2078 34.5199H24.593C24.4711 34.8855 24.3223 35.2453 24.1488 35.5898L25.2914 36.7324C25.5516 36.9926 25.6945 37.3383 25.6945 37.7063C25.6945 38.0742 25.5516 38.4199 25.2914 38.6801L24.6094 39.3621L24.7242 40.3875C26.6543 38.3508 29.3824 37.0793 32.4023 37.0793C35.4223 37.0793 38.1516 38.352 40.0805 40.3875L40.3395 38.066C40.3477 37.9898 40.3688 37.9148 40.4016 37.8445L47.6203 22.4941ZM52.1484 19.582C52.1484 18.7512 51.4734 18.0762 50.6426 18.0762H14.1621C13.3312 18.0762 12.6562 18.7512 12.6562 19.582C12.6562 20.4129 13.3312 21.0879 14.1621 21.0879H50.6426C51.4734 21.0879 52.1484 20.4117 52.1484 19.582ZM26.3543 7.80586C26.3543 4.4707 29.0672 1.75781 32.4023 1.75781C35.7375 1.75781 38.4504 4.4707 38.4504 7.80586C38.4504 11.141 35.7375 13.8539 32.4023 13.8539C29.0672 13.8539 26.3543 11.141 26.3543 7.80586ZM27.7605 7.80586C27.7605 10.3652 29.843 12.4477 32.4023 12.4477C34.9617 12.4477 37.0441 10.3652 37.0441 7.80586C37.0441 5.24648 34.9629 3.16406 32.4023 3.16406C29.8418 3.16406 27.7605 5.24648 27.7605 7.80586ZM31.9055 35.1047C32.0426 35.2418 32.223 35.3109 32.4023 35.3109C32.5828 35.3109 32.7621 35.2418 32.8992 35.1047L35.2453 32.7586C35.5195 32.4844 35.5195 32.0391 35.2453 31.7637C34.9711 31.4883 34.5258 31.4895 34.2504 31.7637L33.1043 32.9098V24.3141C33.1043 23.9262 32.7891 23.6109 32.4012 23.6109C32.0133 23.6109 31.698 23.9262 31.698 24.3141V32.9098L30.552 31.7637C30.2777 31.4895 29.8324 31.4895 29.5582 31.7637C29.284 32.0379 29.284 32.4832 29.5582 32.7574L31.9055 35.1047ZM15.3961 10.9734C15.3961 8.40938 17.482 6.32344 20.0461 6.32344C22.6102 6.32344 24.6961 8.40938 24.6961 10.9734C24.6961 13.5375 22.6102 15.6234 20.0461 15.6234C17.482 15.6234 15.3961 13.5375 15.3961 10.9734ZM16.8023 10.9734C16.8023 12.7617 18.2578 14.2172 20.0461 14.2172C21.8344 14.2172 23.2898 12.7617 23.2898 10.9734C23.2898 9.18516 21.8344 7.72969 20.0461 7.72969C18.2578 7.72969 16.8023 9.18516 16.8023 10.9734ZM40.1086 10.9734C40.1086 8.40938 42.1945 6.32344 44.7586 6.32344C47.3227 6.32344 49.4086 8.40938 49.4086 10.9734C49.4086 13.5375 47.3227 15.6234 44.7586 15.6234C42.1945 15.6234 40.1086 13.5375 40.1086 10.9734ZM41.5148 10.9734C41.5148 12.7617 42.9703 14.2172 44.7586 14.2172C46.5469 14.2172 48.0023 12.7617 48.0023 10.9734C48.0023 9.18516 46.5469 7.72969 44.7586 7.72969C42.9703 7.72969 41.5148 9.18516 41.5148 10.9734Z" fill="white"/>
</svg>
