<svg width="60" height="60" viewBox="0 0 60 60" fill="none" xmlns="http://www.w3.org/2000/svg">
<path d="M10.3125 47.4618H49.6875C50.5577 47.4618 51.3923 47.1161 52.0077 46.5008C52.623 45.8854 52.9688 45.0508 52.9688 44.1806V15.8193C52.9688 14.9491 52.623 14.1145 52.0077 13.4991C51.3923 12.8838 50.5577 12.5381 49.6875 12.5381H10.3125C9.44226 12.5381 8.60766 12.8838 7.99231 13.4991C7.37695 14.1145 7.03125 14.9491 7.03125 15.8193V44.1806C7.03125 45.0508 7.37695 45.8854 7.99231 46.5008C8.60766 47.1161 9.44226 47.4618 10.3125 47.4618ZM10.3125 13.4756H49.6875C50.3091 13.4756 50.9052 13.7225 51.3448 14.1621C51.7843 14.6016 52.0312 15.1977 52.0312 15.8193V19.9818H7.96875V15.8193C7.96875 15.1977 8.21568 14.6016 8.65522 14.1621C9.09476 13.7225 9.6909 13.4756 10.3125 13.4756ZM7.96875 20.9193H52.0312V44.1806C52.0313 44.8022 51.7843 45.3983 51.3448 45.8379C50.9052 46.2774 50.3091 46.5243 49.6875 46.5243H10.3125C9.6909 46.5243 9.09476 46.2774 8.65522 45.8379C8.21568 45.3983 7.96875 44.8022 7.96875 44.1806V20.9193Z" fill="white"/>
<path d="M38.7084 18.2896C39.0174 18.2898 39.3195 18.1984 39.5765 18.0268C39.8335 17.8553 40.0338 17.6113 40.1522 17.3259C40.2705 17.0405 40.3015 16.7264 40.2413 16.4233C40.181 16.1202 40.0323 15.8418 39.8138 15.6234C39.5953 15.4049 39.3169 15.2561 39.0138 15.1959C38.7108 15.1356 38.3967 15.1666 38.1112 15.285C37.8258 15.4033 37.5819 15.6036 37.4103 15.8606C37.2388 16.1176 37.1473 16.4197 37.1475 16.7287C37.148 17.1425 37.3126 17.5393 37.6052 17.8319C37.8979 18.1245 38.2946 18.2891 38.7084 18.2896ZM38.7084 16.1043C38.832 16.1041 38.9528 16.1406 39.0556 16.2091C39.1584 16.2776 39.2385 16.375 39.2859 16.4891C39.3333 16.6032 39.3458 16.7288 39.3219 16.8499C39.2979 16.9711 39.2385 17.0825 39.1512 17.1699C39.0639 17.2573 38.9527 17.3168 38.8315 17.341C38.7104 17.3652 38.5848 17.3529 38.4706 17.3056C38.3565 17.2584 38.2589 17.1784 38.1903 17.0757C38.1216 16.973 38.085 16.8522 38.085 16.7287C38.0852 16.5633 38.151 16.4048 38.2678 16.2878C38.3846 16.1708 38.5431 16.1048 38.7084 16.1043Z" fill="white"/>
<path d="M43.4766 18.2896C43.7855 18.2898 44.0876 18.1984 44.3446 18.0268C44.6016 17.8553 44.802 17.6113 44.9203 17.3259C45.0386 17.0405 45.0696 16.7264 45.0094 16.4233C44.9492 16.1202 44.8004 15.8418 44.5819 15.6234C44.3634 15.4049 44.085 15.2561 43.782 15.1959C43.4789 15.1356 43.1648 15.1666 42.8794 15.285C42.5939 15.4033 42.35 15.6036 42.1785 15.8606C42.0069 16.1176 41.9154 16.4197 41.9156 16.7287C41.9161 17.1425 42.0807 17.5393 42.3734 17.8319C42.666 18.1245 43.0627 18.2891 43.4766 18.2896ZM43.4766 16.1043C43.6001 16.1041 43.7209 16.1406 43.8237 16.2091C43.9265 16.2776 44.0067 16.375 44.0541 16.4891C44.1015 16.6032 44.114 16.7288 44.09 16.8499C44.066 16.9711 44.0066 17.0825 43.9193 17.1699C43.832 17.2573 43.7208 17.3168 43.5996 17.341C43.4785 17.3652 43.3529 17.3529 43.2388 17.3056C43.1246 17.2584 43.0271 17.1784 42.9584 17.0757C42.8898 16.973 42.8531 16.8522 42.8531 16.7287C42.8534 16.5633 42.9191 16.4048 43.0359 16.2878C43.1528 16.1708 43.3112 16.1048 43.4766 16.1043Z" fill="white"/>
<path d="M48.2447 18.2896C48.5538 18.2906 48.8563 18.1997 49.1138 18.0286C49.3713 17.8575 49.5722 17.6139 49.6911 17.3285C49.81 17.0431 49.8416 16.7289 49.7817 16.4256C49.7219 16.1223 49.5735 15.8436 49.3551 15.6247C49.1368 15.4058 48.8584 15.2567 48.5552 15.1961C48.2521 15.1356 47.9378 15.1664 47.6521 15.2846C47.3665 15.4028 47.1223 15.6032 46.9506 15.8602C46.7789 16.1173 46.6873 16.4196 46.6875 16.7287C46.688 17.1419 46.8521 17.5381 47.1439 17.8306C47.4357 18.1231 47.8315 18.2882 48.2447 18.2896ZM48.2447 16.1043C48.3682 16.1041 48.489 16.1406 48.5918 16.2091C48.6946 16.2776 48.7748 16.375 48.8222 16.4891C48.8696 16.6032 48.8821 16.7288 48.8581 16.8499C48.8341 16.9711 48.7747 17.0825 48.6875 17.1699C48.6002 17.2573 48.4889 17.3168 48.3678 17.341C48.2466 17.3652 48.121 17.3529 48.0069 17.3056C47.8928 17.2584 47.7952 17.1784 47.7265 17.0757C47.6579 16.973 47.6213 16.8522 47.6213 16.7287C47.6215 16.5633 47.6872 16.4048 47.8041 16.2878C47.9209 16.1708 48.0793 16.1048 48.2447 16.1043Z" fill="white"/>
<path d="M19.2094 24.7546H20.6606C21.147 24.7531 21.6195 24.916 22.0016 25.2169C22.3837 25.5178 22.6528 25.939 22.7653 26.4121L25.4897 37.6546L23.7188 40.17C23.6695 40.2402 23.6405 40.3225 23.6349 40.4081C23.6292 40.4936 23.6471 40.5791 23.6867 40.6552C23.7262 40.7313 23.7858 40.795 23.8591 40.8396C23.9324 40.8841 24.0165 40.9077 24.1022 40.9078H25.7719C25.6157 41.1788 25.5324 41.4856 25.53 41.7984C25.5452 42.2731 25.7445 42.7233 26.0857 43.0537C26.4268 43.3841 26.8832 43.5689 27.3581 43.5689C27.8331 43.5689 28.2894 43.3841 28.6306 43.0537C28.9718 42.7233 29.1711 42.2731 29.1863 41.7984C29.1839 41.4856 29.1006 41.1788 28.9444 40.9078H32.4469C32.291 41.1789 32.208 41.4857 32.2059 41.7984C32.2059 42.2832 32.3985 42.7482 32.7414 43.0911C33.0842 43.4339 33.5492 43.6265 34.0341 43.6265C34.5189 43.6265 34.9839 43.4339 35.3267 43.0911C35.6696 42.7482 35.8622 42.2832 35.8622 41.7984C35.8598 41.4856 35.7765 41.1788 35.6203 40.9078H36.9975C37.1218 40.9078 37.2411 40.8584 37.329 40.7705C37.4169 40.6826 37.4663 40.5633 37.4663 40.439C37.4663 40.3147 37.4169 40.1955 37.329 40.1076C37.2411 40.0197 37.1218 39.9703 36.9975 39.9703H25.0078L26.2331 38.2265H38.0156C38.1207 38.2265 38.2228 38.1912 38.3054 38.1263C38.388 38.0614 38.4465 37.9705 38.4713 37.8684L41.25 26.4121C41.2668 26.3432 41.2676 26.2713 41.2525 26.2019C41.2375 26.1326 41.2068 26.0676 41.163 26.0118C41.1191 25.956 41.0631 25.9109 40.9993 25.8799C40.9354 25.8489 40.8654 25.8328 40.7944 25.8328H23.5678C23.3475 25.24 22.9507 24.7291 22.4311 24.3687C21.9115 24.0083 21.2939 23.8158 20.6616 23.8171H19.2094C19.0851 23.8171 18.9658 23.8665 18.8779 23.9544C18.79 24.0423 18.7406 24.1616 18.7406 24.2859C18.7406 24.4102 18.79 24.5294 18.8779 24.6174C18.9658 24.7053 19.0851 24.7546 19.2094 24.7546ZM28.2497 41.7984C28.2499 41.9748 28.1977 42.1473 28.0998 42.2941C28.0019 42.4408 27.8627 42.5553 27.6998 42.6228C27.5368 42.6904 27.3575 42.7082 27.1844 42.6738C27.0114 42.6394 26.8524 42.5545 26.7277 42.4298C26.603 42.305 26.518 42.1461 26.4837 41.973C26.4493 41.8 26.467 41.6207 26.5346 41.4577C26.6022 41.2948 26.7166 41.1555 26.8634 41.0576C27.0102 40.9597 27.1827 40.9076 27.3591 40.9078C27.5952 40.908 27.8216 41.0019 27.9886 41.1689C28.1555 41.3359 28.2494 41.5623 28.2497 41.7984ZM34.9247 41.7984C34.9247 41.9745 34.8725 42.1467 34.7746 42.2932C34.6767 42.4397 34.5376 42.5538 34.3749 42.6212C34.2122 42.6886 34.0331 42.7063 33.8603 42.6719C33.6876 42.6375 33.5289 42.5527 33.4043 42.4282C33.2797 42.3036 33.1949 42.1449 33.1606 41.9721C33.1262 41.7994 33.1438 41.6203 33.2112 41.4576C33.2787 41.2948 33.3928 41.1557 33.5393 41.0579C33.6857 40.96 33.8579 40.9078 34.0341 40.9078C34.2702 40.908 34.4966 41.0019 34.6636 41.1689C34.8305 41.3359 34.9244 41.5623 34.9247 41.7984ZM40.1944 26.7703L37.6463 37.289H26.3663L23.8172 26.7703H40.1944Z" fill="white"/>
</svg>
