<svg width="60" height="60" viewBox="0 0 60 60" fill="none" xmlns="http://www.w3.org/2000/svg">
<path d="M41.1989 47.4291C39.2737 45.6881 36.9943 44.4371 34.5407 43.7452C37.1534 42.1905 38.9087 39.3394 38.9087 36.0847C38.9087 31.1725 34.9123 27.176 30 27.176C25.0879 27.176 21.0914 31.1725 21.0914 36.0847C21.0914 39.3394 22.8468 42.1905 25.4595 43.7452C23.0057 44.4371 20.7261 45.6881 18.801 47.4291C15.7495 50.1886 13.8289 53.9517 13.3931 58.0252C13.3648 58.2896 13.4501 58.5537 13.628 58.7515C13.8059 58.9493 14.0593 59.0624 14.3252 59.0624L45.6746 59.0623C45.9407 59.0623 46.1941 58.9493 46.3719 58.7514C46.5498 58.5536 46.6351 58.2895 46.6068 58.0249C46.1709 53.9516 44.2502 50.1886 41.1989 47.4291ZM22.9665 36.0847C22.9665 32.2064 26.1218 29.051 30.0001 29.051C33.8786 29.051 37.0338 32.2063 37.0338 36.0847C37.0338 39.9626 33.8795 43.1174 30.0018 43.1183C30.0013 43.1183 30.0007 43.1183 30.0002 43.1183C29.9998 43.1183 29.9992 43.1183 29.9987 43.1183C26.1209 43.1175 22.9665 39.9626 22.9665 36.0847ZM15.4051 57.1875C16.6554 50.1667 22.7542 44.994 29.9986 44.9933H30.0001C30.0001 44.9933 30.0012 44.9933 30.0016 44.9933C37.2457 44.994 43.3446 50.1667 44.595 57.1874L15.4051 57.1875ZM19.68 10.2975L24.396 14.0879L22.8087 19.9264C22.654 20.4957 22.8623 21.0877 23.3396 21.4344C23.588 21.6149 23.8768 21.7055 24.1664 21.7055C24.4334 21.7055 24.701 21.6284 24.9377 21.4733L30 18.1595L35.0624 21.4733C35.5559 21.7964 36.1832 21.7812 36.6607 21.4343C37.1379 21.0874 37.3462 20.4955 37.1913 19.9264L35.604 14.088L40.32 10.2975C40.7798 9.92789 40.959 9.3266 40.7767 8.76551C40.5943 8.20441 40.0958 7.82332 39.5067 7.79461L33.4634 7.5L31.3159 1.84359C31.107 1.29316 30.5906 0.937617 30.0001 0.9375C30.0001 0.9375 30.0001 0.9375 30 0.9375C29.4096 0.9375 28.8932 1.29316 28.6841 1.84359L26.5366 7.5L20.4933 7.79461C19.9041 7.82332 19.4055 8.20453 19.2232 8.76563C19.0409 9.32672 19.2202 9.92801 19.68 10.2975ZM26.9333 9.35789C27.4924 9.3307 27.982 8.97504 28.1809 8.45156L30 3.66023L31.8192 8.4518C32.018 8.97504 32.5077 9.3307 33.0666 9.35789L38.1858 9.60738L34.1911 12.8181C33.7545 13.1689 33.5675 13.7447 33.7146 14.2846L35.0591 19.2302L30.7709 16.423C30.5368 16.2698 30.2686 16.1933 30.0002 16.1933C29.7319 16.1933 29.4635 16.27 29.2293 16.4231L24.9413 19.2302L26.2857 14.2846C26.4326 13.7446 26.2455 13.1689 25.8094 12.8182L21.8146 9.60738L26.9333 9.35789ZM14.9367 24.6404H7.55684C7.0391 24.6404 6.61934 24.2207 6.61934 23.7029C6.61934 23.1852 7.0391 22.7654 7.55684 22.7654H14.9368C15.4546 22.7654 15.8743 23.1852 15.8743 23.7029C15.8743 24.2207 15.4545 24.6404 14.9367 24.6404ZM9.75164 12.0127C10.0104 11.5642 10.5838 11.4105 11.0323 11.6695L17.4236 15.3595C17.8719 15.6184 18.0257 16.1918 17.7667 16.6402C17.5931 16.9409 17.2779 17.109 16.9539 17.109C16.7948 17.109 16.6337 17.0685 16.4861 16.9833L10.0948 13.2933C9.64641 13.0344 9.49266 12.461 9.75164 12.0127ZM17.4236 32.0466L11.0323 35.7366C10.8846 35.8218 10.7234 35.8623 10.5645 35.8623C10.2403 35.8623 9.92531 35.6941 9.75164 35.3934C9.49266 34.9451 9.64641 34.3717 10.0948 34.1128L16.4861 30.4228C16.9348 30.1638 17.5079 30.3178 17.7667 30.7659C18.0257 31.2143 17.8719 31.7877 17.4236 32.0466ZM50.2482 35.3933C50.0747 35.694 49.7595 35.8622 49.4354 35.8622C49.2764 35.8622 49.1153 35.8216 48.9676 35.7364L42.5764 32.0464C42.1281 31.7876 41.9743 31.2142 42.2333 30.7658C42.4922 30.3175 43.0655 30.1636 43.5139 30.4227L49.9051 34.1127C50.3535 34.3716 50.5072 34.945 50.2482 35.3933ZM53.3807 23.7029C53.3807 24.2207 52.9609 24.6404 52.4432 24.6404H45.0633C44.5455 24.6404 44.1258 24.2207 44.1258 23.7029C44.1258 23.1852 44.5455 22.7654 45.0633 22.7654H52.4433C52.9609 22.7654 53.3807 23.1852 53.3807 23.7029ZM42.2333 16.64C41.9743 16.1917 42.1281 15.6183 42.5764 15.3594L48.9676 11.6694C49.4163 11.4104 49.9895 11.5643 50.2482 12.0125C50.5072 12.4609 50.3535 13.0343 49.9051 13.2932L43.5139 16.9832C43.3663 17.0684 43.205 17.1089 43.0461 17.1089C42.722 17.109 42.407 16.9409 42.2333 16.64Z" fill="#CC0444"/>
</svg>
