<svg width="60" height="60" viewBox="0 0 60 60" fill="none" xmlns="http://www.w3.org/2000/svg">
<g clip-path="url(#clip0_3_190)">
<path d="M9.36738 14.8242H1.2109" stroke="#CC0444" stroke-width="2" stroke-miterlimit="10" stroke-linecap="round" stroke-linejoin="round"/>
<path d="M58.737 14.8242H28.1326" stroke="#CC0444" stroke-width="2" stroke-miterlimit="10" stroke-linecap="round" stroke-linejoin="round"/>
<path d="M12.2265 4.27734H57.0117C58.1767 4.27734 59.1211 5.22176 59.1211 6.38672V39.2838" stroke="#CC0444" stroke-width="2" stroke-miterlimit="10" stroke-linecap="round" stroke-linejoin="round"/>
<path d="M7.74738 49.7461H2.98828C1.82332 49.7461 0.878906 48.8017 0.878906 47.6367V6.38672C0.878906 5.22176 1.82332 4.27734 2.98828 4.27734H7.99582" stroke="#CC0444" stroke-width="2" stroke-miterlimit="10" stroke-linecap="round" stroke-linejoin="round"/>
<path d="M59.1211 43.6288V47.6367C59.1211 48.8017 58.1767 49.7461 57.0117 49.7461H29.8046" stroke="#CC0444" stroke-width="2" stroke-miterlimit="10" stroke-linecap="round" stroke-linejoin="round"/>
<path d="M35.1731 11.3086C36.1439 11.3086 36.9309 10.5216 36.9309 9.55078C36.9309 8.57997 36.1439 7.79297 35.1731 7.79297C34.2023 7.79297 33.4153 8.57997 33.4153 9.55078C33.4153 10.5216 34.2023 11.3086 35.1731 11.3086Z" stroke="#CC0444" stroke-width="2" stroke-miterlimit="10" stroke-linecap="round" stroke-linejoin="round"/>
<path d="M42.4973 11.3086C43.4682 11.3086 44.2552 10.5216 44.2552 9.55078C44.2552 8.57997 43.4682 7.79297 42.4973 7.79297C41.5265 7.79297 40.7395 8.57997 40.7395 9.55078C40.7395 10.5216 41.5265 11.3086 42.4973 11.3086Z" stroke="#CC0444" stroke-width="2" stroke-miterlimit="10" stroke-linecap="round" stroke-linejoin="round"/>
<path d="M49.8216 11.3086C50.7924 11.3086 51.5794 10.5216 51.5794 9.55078C51.5794 8.57997 50.7924 7.79297 49.8216 7.79297C48.8508 7.79297 48.0638 8.57997 48.0638 9.55078C48.0638 10.5216 48.8508 11.3086 49.8216 11.3086Z" stroke="#CC0444" stroke-width="2" stroke-miterlimit="10" stroke-linecap="round" stroke-linejoin="round"/>
<path d="M9.36738 30.5581C8.91598 30.9436 8.37855 31.1672 7.80176 31.1672C6.2025 31.1672 5.27344 29.1926 5.27344 27.0716C5.27344 24.9506 6.2025 23.4864 7.80176 23.4864C8.16937 23.4864 8.52105 23.5772 8.84461 23.7429" stroke="#CC0444" stroke-width="2" stroke-miterlimit="10" stroke-linecap="round" stroke-linejoin="round"/>
<path d="M28.1326 30.5583C28.584 30.9439 29.1214 31.1674 29.6982 31.1674C31.2975 31.1674 32.2266 29.1928 32.2266 27.0717C32.2266 24.9508 31.2975 23.4865 29.6982 23.4865C29.3306 23.4865 28.9789 23.5773 28.6554 23.743" stroke="#CC0444" stroke-width="2" stroke-miterlimit="10" stroke-linecap="round" stroke-linejoin="round"/>
<path d="M15.8416 40.9435V38.5672" stroke="#CC0444" stroke-width="2" stroke-miterlimit="10" stroke-linecap="round" stroke-linejoin="round"/>
<path d="M21.6584 38.5152V40.8598" stroke="#CC0444" stroke-width="2" stroke-miterlimit="10" stroke-linecap="round" stroke-linejoin="round"/>
<path d="M28.1006 25.3335V29.4204C28.1006 34.5944 23.9062 38.7887 18.7323 38.7887C13.5778 38.7887 9.39926 34.6102 9.39926 29.4557V25.3336" stroke="#CC0444" stroke-width="2" stroke-miterlimit="10" stroke-linecap="round" stroke-linejoin="round"/>
<path d="M24.3996 43.2106C29.5583 43.3155 29.5583 48.5708 29.5583 48.5708V53.9854C29.5583 54.9452 28.7817 55.7226 27.8241 55.7226H9.73008C8.77242 55.7226 7.99582 54.9452 7.99582 53.9854V48.5708C7.99582 48.5708 7.99582 43.2596 13.237 43.2095" stroke="#CC0444" stroke-width="2" stroke-miterlimit="10" stroke-linecap="round" stroke-linejoin="round"/>
<path d="M18.1683 30.3802C18.6258 30.4996 18.8741 30.4996 19.3316 30.3802" stroke="#CC0444" stroke-width="2" stroke-miterlimit="10" stroke-linecap="round" stroke-linejoin="round"/>
<path d="M16.3949 24.2261C15.4107 23.9691 14.8766 23.9691 13.8925 24.2261" stroke="#CC0444" stroke-width="2" stroke-miterlimit="10" stroke-linecap="round" stroke-linejoin="round"/>
<path d="M21.1051 24.2261C22.0893 23.9691 22.6234 23.9691 23.6075 24.2261" stroke="#CC0444" stroke-width="2" stroke-miterlimit="10" stroke-linecap="round" stroke-linejoin="round"/>
<path d="M21.9971 33.0846C20.0006 34.1958 17.4994 34.1958 15.5029 33.0846" stroke="#CC0444" stroke-width="2" stroke-miterlimit="10" stroke-linecap="round" stroke-linejoin="round"/>
<path d="M14.6783 27.3114V27.8931" stroke="#CC0444" stroke-width="2" stroke-miterlimit="10" stroke-linecap="round" stroke-linejoin="round"/>
<path d="M22.8217 27.3114V27.8931" stroke="#CC0444" stroke-width="2" stroke-miterlimit="10" stroke-linecap="round" stroke-linejoin="round"/>
<path d="M18.7968 43.1259L16.0346 41.1039C15.9337 41.03 15.7957 41.0333 15.6986 41.112L13.4415 42.9366C13.2964 43.0539 13.2793 43.2688 13.404 43.4075L15.8298 46.106C15.9534 46.2435 16.17 46.2401 16.2892 46.0988L18.7968 43.1259Z" stroke="#CC0444" stroke-width="2" stroke-miterlimit="10" stroke-linecap="round" stroke-linejoin="round"/>
<path d="M18.7966 43.1259L21.5588 41.1039C21.6596 41.03 21.7977 41.0333 21.8948 41.112L24.1519 42.9366C24.297 43.0539 24.3141 43.2688 24.1894 43.4075L21.7636 46.106C21.64 46.2435 21.4234 46.2401 21.3042 46.0988L18.7966 43.1259Z" stroke="#CC0444" stroke-width="2" stroke-miterlimit="10" stroke-linecap="round" stroke-linejoin="round"/>
<path d="M9.39902 25.3335C9.39902 25.3335 11.0296 18.3596 14.0019 19.4748C16.9752 20.591 18.7502 20.4316 18.7502 20.4316C18.7502 20.4316 20.5253 20.5909 23.4976 19.4748C26.47 18.3596 28.1005 25.3335 28.1005 25.3335C28.1005 25.3335 33.9009 11.1914 18.7498 11.1914C3.5986 11.1914 9.39902 25.3335 9.39902 25.3335Z" stroke="#CC0444" stroke-width="2" stroke-miterlimit="10" stroke-linecap="round" stroke-linejoin="round"/>
<path d="M18.7771 48.3441V48.5938" stroke="#CC0444" stroke-width="2" stroke-miterlimit="10" stroke-linecap="round" stroke-linejoin="round"/>
<path d="M18.7771 52.1331V52.3828" stroke="#CC0444" stroke-width="2" stroke-miterlimit="10" stroke-linecap="round" stroke-linejoin="round"/>
<path d="M48.0966 42.3043H41.1568C39.2152 42.3043 37.6412 40.7304 37.6412 38.7887C37.6412 36.847 39.2152 35.2731 41.1568 35.2731H48.0966" stroke="#CC0444" stroke-width="2" stroke-miterlimit="10" stroke-linecap="round" stroke-linejoin="round"/>
<path d="M48.0966 42.3043C46.1549 42.3043 44.5809 40.7304 44.5809 38.7887C44.5809 36.847 46.1549 35.2731 48.0966 35.2731C50.0382 35.2731 51.6122 36.847 51.6122 38.7887C51.6122 40.7303 50.0382 42.3043 48.0966 42.3043Z" stroke="#CC0444" stroke-width="2" stroke-miterlimit="10" stroke-linecap="round" stroke-linejoin="round"/>
<path d="M40.596 21.8179H44.4336" stroke="#CC0444" stroke-width="2" stroke-miterlimit="10" stroke-linecap="round" stroke-linejoin="round"/>
<path d="M40.596 25.3335H47.6367" stroke="#CC0444" stroke-width="2" stroke-miterlimit="10" stroke-linecap="round" stroke-linejoin="round"/>
<path d="M40.596 28.8491H47.6367" stroke="#CC0444" stroke-width="2" stroke-miterlimit="10" stroke-linecap="round" stroke-linejoin="round"/>
</g>
<defs>
<clipPath id="clip0_3_190">
<rect width="60" height="60" fill="white"/>
</clipPath>
</defs>
</svg>
