<svg width="60" height="60" viewBox="0 0 60 60" fill="none" xmlns="http://www.w3.org/2000/svg">
<g clip-path="url(#clip0_3_248)">
<path d="M23.3998 41.8042C31.2765 41.8042 37.6618 35.4202 37.6618 27.5452C37.6618 19.6701 31.2765 13.2861 23.3998 13.2861C15.523 13.2861 9.1377 19.6701 9.1377 27.5452C9.1377 35.4202 15.523 41.8042 23.3998 41.8042Z" stroke="#CC0444" stroke-width="2" stroke-miterlimit="10" stroke-linecap="round" stroke-linejoin="round"/>
<path d="M21.3158 38.0766C19.295 37.68 17.3671 36.7007 15.8046 35.1385C11.6167 30.9514 11.6167 24.1386 15.8046 19.9516C19.9925 15.7646 26.8069 15.7645 30.9948 19.9516C35.1827 24.1387 35.1827 30.9515 30.9948 35.1387C29.4218 36.7113 27.4782 37.6933 25.4425 38.0846" stroke="#CC0444" stroke-width="2" stroke-miterlimit="10" stroke-linecap="round" stroke-linejoin="round"/>
<path d="M33.4846 37.6277L37.6977 41.8402" stroke="#CC0444" stroke-width="2" stroke-miterlimit="10" stroke-linecap="round" stroke-linejoin="round"/>
<path d="M49.7757 49.0285L51.384 50.6365C51.9905 51.2428 51.9905 52.226 51.384 52.8322L48.6918 55.5239C48.0855 56.13 47.1027 56.13 46.4965 55.5239L36.3519 45.3814C35.7455 44.7751 35.7455 43.7919 36.3519 43.1857L39.0442 40.494C39.6504 39.8879 40.6332 39.8879 41.2395 40.494L46.8752 46.1286" stroke="#CC0444" stroke-width="2" stroke-miterlimit="10" stroke-linecap="round" stroke-linejoin="round"/>
<path d="M5.20805 12.678C7.59897 12.678 9.53719 10.7401 9.53719 8.34975C9.53719 5.95935 7.59897 4.02155 5.20805 4.02155C2.81713 4.02155 0.878906 5.95935 0.878906 8.34975C0.878906 10.7401 2.81713 12.678 5.20805 12.678Z" stroke="#CC0444" stroke-width="2" stroke-miterlimit="10" stroke-linecap="round" stroke-linejoin="round"/>
<path d="M36.6346 12.678C39.0255 12.678 40.9637 10.7401 40.9637 8.34975C40.9637 5.95935 39.0255 4.02155 36.6346 4.02155C34.2437 4.02155 32.3054 5.95935 32.3054 8.34975C32.3054 10.7401 34.2437 12.678 36.6346 12.678Z" stroke="#CC0444" stroke-width="2" stroke-miterlimit="10" stroke-linecap="round" stroke-linejoin="round"/>
<path d="M23.3654 28.8432C25.7563 28.8432 27.6946 26.9054 27.6946 24.515C27.6946 22.1246 25.7563 20.1868 23.3654 20.1868C20.9745 20.1868 19.0363 22.1246 19.0363 24.515C19.0363 26.9054 20.9745 28.8432 23.3654 28.8432Z" stroke="#CC0444" stroke-width="2" stroke-miterlimit="10" stroke-linecap="round" stroke-linejoin="round"/>
<path d="M54.792 28.8432C57.1829 28.8432 59.1211 26.9054 59.1211 24.515C59.1211 22.1246 57.1829 20.1868 54.792 20.1868C52.401 20.1868 50.4628 22.1246 50.4628 24.515C50.4628 26.9054 52.401 28.8432 54.792 28.8432Z" stroke="#CC0444" stroke-width="2" stroke-miterlimit="10" stroke-linecap="round" stroke-linejoin="round"/>
<path d="M14.3695 16.5071L8.44101 11.2289" stroke="#CC0444" stroke-width="2" stroke-miterlimit="10" stroke-linecap="round" stroke-linejoin="round"/>
<path d="M20.1328 21.6364L17.0437 18.886" stroke="#CC0444" stroke-width="2" stroke-miterlimit="10" stroke-linecap="round" stroke-linejoin="round"/>
<path d="M51.5591 21.6366L39.8671 11.2283" stroke="#CC0444" stroke-width="2" stroke-miterlimit="10" stroke-linecap="round" stroke-linejoin="round"/>
<path d="M28.5949 18.1442L26.1117 21.1699" stroke="#CC0444" stroke-width="2" stroke-miterlimit="10" stroke-linecap="round" stroke-linejoin="round"/>
<path d="M33.8883 11.6953L30.8578 15.3879" stroke="#CC0444" stroke-width="2" stroke-miterlimit="10" stroke-linecap="round" stroke-linejoin="round"/>
<path d="M53.5887 4.02155V4.79416" stroke="#CC0444" stroke-width="2" stroke-miterlimit="10" stroke-linecap="round" stroke-linejoin="round"/>
<path d="M53.5887 9.07019V9.84281" stroke="#CC0444" stroke-width="2" stroke-miterlimit="10" stroke-linecap="round" stroke-linejoin="round"/>
<path d="M56.4994 6.93213H55.7266" stroke="#CC0444" stroke-width="2" stroke-miterlimit="10" stroke-linecap="round" stroke-linejoin="round"/>
<path d="M51.4506 6.93213H50.678" stroke="#CC0444" stroke-width="2" stroke-miterlimit="10" stroke-linecap="round" stroke-linejoin="round"/>
<path d="M51.5591 18.6085V21.6366H48.531" stroke="#CC0444" stroke-width="2" stroke-miterlimit="10" stroke-linecap="round" stroke-linejoin="round"/>
</g>
<defs>
<clipPath id="clip0_3_248">
<rect width="60" height="60" fill="white"/>
</clipPath>
</defs>
</svg>
