<svg width="60" height="60" viewBox="0 0 60 60" fill="none" xmlns="http://www.w3.org/2000/svg">
<g clip-path="url(#clip0_16_1441)">
<path d="M14.257 32.587C14.5559 32.8856 15.0175 32.9479 15.3843 32.7386L20.6674 29.7264C22.6908 31.1943 25.0269 32.1625 27.4902 32.5535L29.0958 38.4179C29.2073 38.8254 29.5775 39.1079 30 39.1079C30.4225 39.1079 30.7928 38.8254 30.9042 38.4179L32.51 32.5525C34.9724 32.1613 37.3082 31.1933 39.3314 29.7258L44.6156 32.7386C44.9827 32.9479 45.444 32.8856 45.7428 32.587C46.0416 32.2882 46.1036 31.8267 45.8944 31.4598L42.8821 26.1764C44.863 23.4527 45.9067 20.2398 45.9067 16.8441C45.9066 8.07316 38.771 0.9375 30 0.9375C21.229 0.9375 14.0933 8.07316 14.0933 16.8441C14.0933 20.2398 15.1369 23.453 17.1176 26.1769L14.1056 31.4598C13.8963 31.8267 13.9583 32.2882 14.257 32.587ZM15.9683 16.8441C15.9683 9.10711 22.2629 2.8125 30 2.8125C37.737 2.8125 44.0316 9.10711 44.0316 16.8441C44.0316 20.0277 42.992 23.0289 41.0251 25.523C40.7886 25.8229 40.7578 26.2362 40.9468 26.5678L42.5694 29.4136L39.7233 27.7909C39.3919 27.6016 38.9784 27.6327 38.6787 27.8689C36.6472 29.4703 34.2199 30.476 31.6595 30.7775C31.2802 30.8223 30.9657 31.0925 30.865 31.4611L30 34.6201L29.1354 31.4623C29.0346 31.0937 28.7202 30.8235 28.3409 30.7787C25.7795 30.4772 23.3517 29.4713 21.3204 27.8698C21.1513 27.7364 20.9461 27.6684 20.7398 27.6684C20.5805 27.6684 20.4202 27.7091 20.2757 27.7915L17.4306 29.4137L19.0528 26.5685C19.2418 26.2369 19.211 25.8237 18.9745 25.5238C17.0078 23.0292 15.9683 20.0278 15.9683 16.8441ZM13.9957 50.0155C15.1695 49.0324 15.9175 47.557 15.9175 45.9097C15.9175 42.9568 13.5151 40.5545 10.5622 40.5545C7.60933 40.5545 5.20699 42.9568 5.20699 45.9097C5.20699 47.557 5.95512 49.0323 7.12875 50.0155C3.80602 51.2708 1.34133 54.3008 0.94289 58.0253C0.914531 58.2898 0.999843 58.5538 1.17773 58.7516C1.35562 58.9494 1.6091 59.0624 1.875 59.0624H19.2495C19.5155 59.0624 19.7689 58.9494 19.9467 58.7516C20.1245 58.5538 20.2099 58.2896 20.1816 58.0252C19.783 54.3008 17.3183 51.2708 13.9957 50.0155ZM7.08199 45.9097C7.08199 43.9907 8.64316 42.4295 10.5622 42.4295C12.4813 42.4295 14.0425 43.9907 14.0425 45.9097C14.0425 47.8288 12.4813 49.39 10.5622 49.39C8.64316 49.39 7.08199 47.8288 7.08199 45.9097ZM2.98863 57.1874C3.83191 53.747 6.92215 51.265 10.5622 51.265C14.2022 51.265 17.2924 53.747 18.1357 57.1874H2.98863ZM33.4334 50.0154C34.6071 49.0323 35.3551 47.5569 35.3551 45.9096C35.3551 42.9567 32.9528 40.5544 29.9999 40.5544C27.047 40.5544 24.6446 42.9567 24.6446 45.9096C24.6446 47.5569 25.3928 49.0322 26.5664 50.0154C23.2438 51.2707 20.7791 54.3007 20.3805 58.025C20.3522 58.2895 20.4375 58.5537 20.6154 58.7515C20.7933 58.9493 21.0468 59.0623 21.3127 59.0623L38.6872 59.0625C38.9532 59.0625 39.2067 58.9494 39.3845 58.7517C39.5624 58.5539 39.6477 58.2899 39.6193 58.0253C39.2208 54.3008 36.7561 51.2707 33.4334 50.0154ZM26.5196 45.9097C26.5196 43.9907 28.0808 42.4295 29.9999 42.4295C31.9189 42.4295 33.4801 43.9907 33.4801 45.9097C33.4801 47.8288 31.9189 49.39 29.9999 49.39C28.0808 49.39 26.5196 47.8288 26.5196 45.9097ZM22.4264 57.1874C23.2698 53.747 26.36 51.265 29.9999 51.265C33.6398 51.265 36.7302 53.7471 37.5735 57.1875L22.4264 57.1874ZM59.0571 58.025C58.6586 54.3007 56.1937 51.2707 52.8712 50.0154C54.045 49.0323 54.793 47.5569 54.793 45.9096C54.793 42.9567 52.3907 40.5544 49.4378 40.5544C46.4849 40.5544 44.0825 42.9567 44.0825 45.9096C44.0825 47.5569 44.8307 49.0322 46.0043 50.0154C42.6816 51.2707 40.2169 54.3007 39.8183 58.025C39.79 58.2895 39.8753 58.5537 40.0532 58.7515C40.2311 58.9493 40.4845 59.0623 40.7504 59.0623H58.125C58.391 59.0623 58.6445 58.9493 58.8223 58.7515C59 58.5537 59.0855 58.2895 59.0571 58.025ZM45.9575 45.9097C45.9575 43.9907 47.5187 42.4295 49.4378 42.4295C51.3568 42.4295 52.918 43.9907 52.918 45.9097C52.918 47.8288 51.3568 49.39 49.4378 49.39C47.5187 49.39 45.9575 47.8288 45.9575 45.9097ZM41.8642 57.1874C42.7075 53.747 45.7978 51.265 49.4378 51.265C53.0776 51.265 56.1679 53.747 57.0112 57.1874H41.8642ZM20.1954 14.1834C20.4901 14.758 20.6524 15.0746 20.6911 15.294C20.7298 15.5134 20.6855 15.8662 20.6052 16.5069C20.5834 16.6802 20.5591 16.8732 20.5334 17.0903C20.3777 18.3933 21.0834 19.6158 22.2896 20.1322C22.4271 20.1912 22.5537 20.2448 22.672 20.2948L20.2453 25.507C20.098 25.8237 20.1388 26.196 20.3512 26.4731C20.5636 26.7502 20.9123 26.8864 21.2566 26.8263L23.8719 26.3693L25.2056 28.6646C25.374 28.9542 25.6832 29.1311 26.0161 29.1311C26.0302 29.1311 26.0445 29.1307 26.0586 29.1301C26.4076 29.1142 26.7186 28.9058 26.8661 28.5893L29.3578 23.2373C29.6529 23.1516 29.853 23.105 30 23.105C30.2227 23.105 30.5626 23.2099 31.1796 23.4004C31.2142 23.411 31.2503 23.4221 31.2865 23.4333L33.0584 27.5471C33.1965 27.8678 33.5014 28.0853 33.8497 28.1111C33.8732 28.1129 33.8964 28.1136 33.9197 28.1136C34.2422 28.1136 34.5443 27.9472 34.7161 27.6704L36.1158 25.4148L38.7165 25.9473C39.0584 26.018 39.4113 25.8915 39.6318 25.6206C39.8522 25.3496 39.9038 24.9787 39.7657 24.658L37.7982 20.09C38.9497 19.5525 39.6183 18.3605 39.4665 17.09C39.4406 16.873 39.4164 16.6801 39.3947 16.5067C39.3143 15.866 39.2701 15.513 39.3088 15.2938C39.3475 15.0745 39.5099 14.7579 39.8045 14.1832C39.8842 14.0278 39.9729 13.8548 40.0713 13.66C40.6632 12.4889 40.4182 11.0988 39.4614 10.2006C39.3022 10.0512 39.1596 9.91887 39.0315 9.80004C38.5581 9.36082 38.2972 9.11895 38.1859 8.92605C38.0746 8.73316 37.9955 8.38652 37.8518 7.75676C37.8129 7.58648 37.7696 7.39699 37.7198 7.1843C37.4205 5.90672 36.3393 4.99922 35.029 4.92633C34.811 4.91414 34.6167 4.90441 34.4423 4.89574C33.7973 4.86375 33.442 4.84594 33.2327 4.76977C33.0236 4.69371 32.74 4.47891 32.2252 4.08879C32.0859 3.98344 31.9309 3.86602 31.7561 3.735C30.7057 2.94867 29.2941 2.94867 28.2435 3.735C28.0686 3.86578 27.9136 3.98332 27.7744 4.08879C27.2596 4.47879 26.9761 4.69359 26.7668 4.76977C26.5575 4.84594 26.2022 4.86375 25.5572 4.89574C25.3828 4.90441 25.1885 4.91414 24.9705 4.92633C23.6603 4.99922 22.579 5.9066 22.2797 7.1843C22.2299 7.39687 22.1866 7.58648 22.1477 7.75676C22.0041 8.38641 21.9251 8.73316 21.8136 8.92605C21.7023 9.11895 21.4414 9.36082 20.968 9.80004C20.8399 9.91887 20.6974 10.0512 20.538 10.2006C19.5813 11.0987 19.3363 12.4888 19.9282 13.66C20.027 13.8551 20.1157 14.028 20.1954 14.1834ZM25.9245 26.1695L25.1648 24.8623C24.9675 24.5228 24.5795 24.3427 24.1929 24.4098L22.7033 24.6702L24.2665 21.3127C24.369 21.4622 24.4887 21.6468 24.638 21.8779C24.7328 22.0246 24.8382 22.1879 24.9578 22.3709C25.4517 23.1261 26.2335 23.5902 27.0821 23.683L25.9245 26.1695ZM35.8519 23.447C35.4669 23.368 35.0743 23.5376 34.8673 23.8711L34.07 25.1557L33.395 23.5886C34.0543 23.4011 34.6426 22.9819 35.0422 22.3709C35.1619 22.1879 35.2673 22.0246 35.362 21.8779C35.7123 21.3354 35.9053 21.0366 36.0758 20.8935C36.0819 20.8884 36.0896 20.8833 36.0961 20.8782L37.3331 23.7503L35.8519 23.447ZM21.8216 11.568C21.9779 11.4213 22.1179 11.2916 22.2436 11.175C23.4982 10.011 23.5953 9.84281 23.9761 8.1743C24.0142 8.00707 24.0567 7.82098 24.1055 7.61227C24.215 7.1448 24.5955 6.82547 25.0748 6.79887C25.2888 6.78691 25.4794 6.77742 25.6506 6.76898C27.36 6.68379 27.5426 6.61734 28.9066 5.58398C29.0433 5.48039 29.1955 5.3652 29.3672 5.23664C29.7516 4.94883 30.2484 4.94906 30.6326 5.23664C30.8043 5.3652 30.9565 5.48039 31.0931 5.58398C32.4573 6.61734 32.6398 6.68391 34.3492 6.76898C34.5204 6.77742 34.7109 6.78691 34.9249 6.79887C35.4043 6.82559 35.7848 7.1448 35.8943 7.61238C35.9432 7.82098 35.9856 8.00707 36.0237 8.1743C36.4044 9.84281 36.5016 10.0111 37.7562 11.175C37.8818 11.2915 38.0218 11.4213 38.178 11.568C38.5282 11.8968 38.6146 12.3859 38.3979 12.8143C38.3012 13.0056 38.2141 13.1754 38.136 13.328C37.355 14.8508 37.3213 15.0422 37.5342 16.7402C37.5555 16.9104 37.5793 17.0998 37.6048 17.3127C37.6617 17.7894 37.4133 18.2196 36.9721 18.4087C36.775 18.4931 36.5991 18.5673 36.4412 18.6337C34.8641 19.2984 34.7152 19.4232 33.7869 20.8609C33.694 21.0049 33.5904 21.1654 33.473 21.3448C33.2102 21.7467 32.7438 21.9165 32.2839 21.7775C32.0787 21.7155 31.8962 21.6593 31.7325 21.6088C30.9148 21.3566 30.4575 21.2304 30.0001 21.2304C29.5427 21.2304 29.0852 21.3566 28.2676 21.6088C28.1039 21.6594 27.9214 21.7155 27.7162 21.7775C27.257 21.9169 26.7899 21.7465 26.5271 21.3448C26.4097 21.1654 26.3061 21.005 26.2132 20.8609C25.2848 19.4232 25.136 19.2984 23.5589 18.6337C23.4009 18.5673 23.225 18.4931 23.028 18.4087C22.5867 18.2197 22.3383 17.7895 22.3953 17.3127C22.4208 17.0999 22.4446 16.9104 22.4659 16.7402C22.6788 15.0422 22.6451 14.8508 21.8641 13.328C21.786 13.1754 21.6989 13.0056 21.6022 12.8143C21.3852 12.3858 21.4716 11.8968 21.8216 11.568ZM29.9999 19.9393C33.5931 19.9393 36.5164 17.0161 36.5164 13.4229C36.5164 9.82969 33.5931 6.90633 29.9999 6.90633C26.4067 6.90633 23.4834 9.82969 23.4834 13.4229C23.4834 17.0161 26.4067 19.9393 29.9999 19.9393ZM29.9999 8.78133C32.5593 8.78133 34.6414 10.8636 34.6414 13.4229C34.6414 15.9821 32.5591 18.0643 29.9999 18.0643C27.4406 18.0643 25.3584 15.9821 25.3584 13.4229C25.3584 10.8636 27.4405 8.78133 29.9999 8.78133ZM28.2442 15.7719L26.7142 14.242C26.348 13.8759 26.348 13.2824 26.7141 12.9163C27.0803 12.5501 27.6738 12.5502 28.0398 12.9162L28.9383 13.8145L31.9928 11.0426C32.3761 10.6946 32.9689 10.7232 33.317 11.1068C33.665 11.4901 33.6363 12.0831 33.2528 12.431L29.5369 15.8032C29.3578 15.9659 29.1322 16.0465 28.907 16.0465C28.6666 16.0465 28.4266 15.9545 28.2442 15.7719Z" fill="#CC0444"/>
</g>
<defs>
<clipPath id="clip0_16_1441">
<rect width="60" height="60" fill="white"/>
</clipPath>
</defs>
</svg>
