<svg width="60" height="60" viewBox="0 0 60 60" fill="none" xmlns="http://www.w3.org/2000/svg">
<path d="M32.2382 37.9337H26.9866C26.4689 37.9337 26.0491 38.3535 26.0491 38.8712V57.8063C26.0491 58.324 26.4689 58.7438 26.9866 58.7438H32.2382C32.7559 58.7438 33.1757 58.324 33.1757 57.8063V38.8712C33.1757 38.3535 32.756 37.9337 32.2382 37.9337ZM31.3007 56.8688H27.9241V39.8087H31.3007V56.8688ZM43.4237 41.5153H38.1721C37.6543 41.5153 37.2346 41.9351 37.2346 42.4528V57.8065C37.2346 58.3242 37.6543 58.744 38.1721 58.744H43.4237C43.9414 58.744 44.3612 58.3242 44.3612 57.8065V42.4528C44.3612 41.9351 43.9414 41.5153 43.4237 41.5153ZM42.4862 56.8689H39.1096V43.3903H42.4862V56.8689ZM54.6093 31.045H49.3576C48.8399 31.045 48.4201 31.4647 48.4201 31.9825V57.8063C48.4201 58.324 48.8399 58.7438 49.3576 58.7438H54.6093C55.127 58.7438 55.5468 58.324 55.5468 57.8063V31.9825C55.5468 31.4647 55.127 31.045 54.6093 31.045ZM53.6718 56.8688H50.2951V32.92H53.6718V56.8688ZM21.0527 46.7939H15.8012C15.2835 46.7939 14.8637 47.2137 14.8637 47.7314V57.8064C14.8637 58.3241 15.2835 58.7439 15.8012 58.7439H21.0527C21.5705 58.7439 21.9902 58.3241 21.9902 57.8064V47.7314C21.9902 47.2137 21.5705 46.7939 21.0527 46.7939ZM20.1152 56.8688H16.7387V48.6688H20.1152V56.8688ZM40.6138 32.7833L48.5102 25.5995L46.768 25.6058C46.7668 25.6058 46.7657 25.6058 46.7645 25.6058C46.2483 25.6058 45.829 25.1884 45.827 24.6717C45.8251 24.154 46.2434 23.7327 46.7611 23.7308L50.9402 23.7156C51.2263 23.7178 51.4881 23.8397 51.6669 24.0566C51.8457 24.2735 51.9179 24.5591 51.8633 24.835L51.0529 28.9347C50.9646 29.3813 50.5727 29.6904 50.1342 29.6905C50.0739 29.6905 50.0127 29.6845 49.9514 29.6725C49.4435 29.5722 49.113 29.079 49.2135 28.571L49.4729 27.2585L41.4288 34.5766C41.1568 34.8238 40.7653 34.8895 40.4277 34.7445L29.7441 30.1504L18.9939 38.3131C18.8244 38.4418 18.6252 38.5039 18.4276 38.5039C18.1445 38.5039 17.8646 38.3762 17.6803 38.1334C17.3672 37.721 17.4477 37.133 17.8601 36.8199L29.0455 28.3266C29.3145 28.1222 29.6726 28.0786 29.9828 28.2118L40.6138 32.7833ZM20.0795 32.7218V28.5104L29.7199 18.9879H30.2933C31.0466 18.9879 31.6594 18.3751 31.6594 17.622V15.3431C31.6594 14.5898 31.0466 13.9771 30.2933 13.9771H2.30356C1.55027 13.9771 0.937501 14.5898 0.937501 15.3431V17.622C0.937501 18.3751 1.55027 18.9879 2.30356 18.9879H2.87695L12.5174 28.5104V35.1186C12.5174 35.4328 12.6748 35.726 12.9364 35.8997C13.0924 36.0033 13.2731 36.0561 13.4549 36.0561C13.5782 36.0561 13.7019 36.0319 13.8189 35.9825L19.506 33.5857C19.8536 33.4392 20.0795 33.0988 20.0795 32.7218ZM2.8125 15.8521H29.7843V17.113H2.8125V15.8521ZM5.54508 18.9879H27.0518L18.757 27.1812H13.8398L5.54508 18.9879ZM14.3924 33.7062V29.0562H18.2045V32.0995L14.3924 33.7062ZM1.875 12.3365H30.7219C30.9879 12.3365 31.2414 12.2235 31.4191 12.0257C31.5969 11.8279 31.6823 11.5638 31.654 11.2992C31.4398 9.29684 30.2246 7.63079 28.5362 6.77239C29.0111 6.18985 29.2965 5.447 29.2965 4.63864C29.2965 2.7736 27.7792 1.25626 25.9141 1.25626C24.049 1.25626 22.5316 2.7736 22.5316 4.63864C22.5316 5.447 22.817 6.18985 23.292 6.77239C22.4082 7.22169 21.655 7.89247 21.1063 8.71688C20.5576 7.89247 19.8043 7.22169 18.9206 6.77239C19.3955 6.18985 19.6809 5.447 19.6809 4.63864C19.6809 2.7736 18.1636 1.25626 16.2986 1.25626C14.4334 1.25626 12.9161 2.7736 12.9161 4.63864C12.9161 5.44712 13.2014 6.18985 13.6764 6.77239C12.7927 7.22169 12.0394 7.89247 11.4907 8.71688C10.942 7.89247 10.1888 7.22169 9.30504 6.77239C9.77988 6.18985 10.0654 5.447 10.0654 4.63864C10.0654 2.7736 8.54801 1.25626 6.68285 1.25626C4.8177 1.25626 3.30035 2.77348 3.30035 4.63852C3.30035 5.44688 3.5857 6.18973 4.06067 6.77227C2.37223 7.63067 1.15711 9.29672 0.942775 11.2991C0.914415 11.5637 0.999845 11.8277 1.17762 12.0256C1.35539 12.2234 1.60899 12.3365 1.875 12.3365ZM24.4066 4.63852C24.4066 3.80731 25.0829 3.13114 25.9141 3.13114C26.7454 3.13114 27.4215 3.80743 27.4215 4.63852C27.4215 5.46926 26.7462 6.14508 25.9157 6.14602C25.9151 6.14602 25.9146 6.14602 25.914 6.14602C25.9136 6.14602 25.913 6.14602 25.9125 6.14602C25.082 6.14508 24.4066 5.46926 24.4066 4.63852ZM25.9123 8.02102H25.9141H25.9159C27.5455 8.02172 28.9543 9.01758 29.5324 10.4615H22.2957C22.8738 9.01758 24.2827 8.02172 25.9123 8.02102ZM14.7909 4.63852C14.7909 3.80731 15.4672 3.13114 16.2984 3.13114C17.1296 3.13114 17.8058 3.80743 17.8058 4.63852C17.8058 5.46926 17.1305 6.14508 16.3 6.14602C16.2995 6.14602 16.2989 6.14602 16.2984 6.14602C16.298 6.14602 16.2974 6.14602 16.2969 6.14602C15.4663 6.14508 14.7909 5.46926 14.7909 4.63852ZM16.2966 8.02102H16.2983C16.2983 8.02102 16.2995 8.02102 16.3001 8.02102C17.9297 8.02172 19.3385 9.01758 19.9167 10.4615H12.68C13.2581 9.01758 14.667 8.02172 16.2966 8.02102ZM5.17535 4.63852C5.17535 3.80731 5.85164 3.13114 6.68285 3.13114C7.51406 3.13114 8.19035 3.80743 8.19035 4.63852C8.19035 5.46926 7.515 6.14508 6.68438 6.14602C6.68379 6.14602 6.68332 6.14602 6.68274 6.14602C6.68227 6.14602 6.68168 6.14602 6.68121 6.14602C5.8507 6.14508 5.17535 5.46926 5.17535 4.63852ZM6.68098 8.02102H6.68285H6.68461C8.31422 8.02172 9.72305 9.01758 10.3011 10.4615H3.06445C3.64254 9.01758 5.05137 8.02172 6.68098 8.02102ZM54.4845 15.8632C54.565 16.5263 54.3848 17.1342 53.9637 17.6213C53.5841 18.06 53.0101 18.3798 52.3497 18.5354V18.6526C52.3497 19.1704 51.9299 19.5901 51.4122 19.5901C50.8944 19.5901 50.4747 19.1704 50.4747 18.6526V18.5188C49.4127 18.234 48.6072 17.4728 48.349 16.4372C48.2237 15.9348 48.5295 15.426 49.0318 15.3007C49.5346 15.1761 50.043 15.4812 50.1683 15.9836C50.3172 16.5805 50.9655 16.777 51.4775 16.7659C51.9266 16.7552 52.3658 16.6025 52.5456 16.3947C52.6059 16.3248 52.6423 16.2461 52.6233 16.0891C52.6024 15.9179 52.5538 15.517 51.2665 15.3056C48.9841 14.9309 48.5825 13.6194 48.5462 12.8712C48.4883 11.6797 49.2552 10.6743 50.4748 10.3085V10.1569C50.4748 9.63915 50.8945 9.21938 51.4123 9.21938C51.93 9.21938 52.3498 9.63915 52.3498 10.1569V10.3C53.1328 10.527 53.8586 11.0633 54.2529 12.0026C54.4533 12.4799 54.2289 13.0295 53.7514 13.2299C53.2738 13.4303 52.7245 13.2057 52.5241 12.7284C52.2305 12.0292 51.4973 11.9912 51.1106 12.079C50.9422 12.1172 50.3946 12.2807 50.419 12.7804C50.4248 12.9015 50.4428 13.2703 51.5702 13.4555C53.3454 13.7469 54.3259 14.557 54.4845 15.8632ZM51.412 6.75434C47.1936 6.75434 43.7617 10.1863 43.7617 14.4048C43.7617 18.6232 47.1936 22.0552 51.412 22.0552C55.6306 22.0552 59.0625 18.6232 59.0625 14.4048C59.0625 10.1863 55.6306 6.75434 51.412 6.75434ZM51.412 20.1802C48.2275 20.1802 45.6367 17.5894 45.6367 14.4048C45.6367 11.2201 48.2275 8.62934 51.412 8.62934C54.5966 8.62934 57.1875 11.2201 57.1875 14.4048C57.1875 17.5894 54.5967 20.1802 51.412 20.1802Z" fill="#CC0444"/>
</svg>
