<svg width="60" height="60" viewBox="0 0 60 60" fill="none" xmlns="http://www.w3.org/2000/svg">
<g clip-path="url(#clip0_16_1397)">
<path d="M6.88195 32.9516C6.71168 32.4627 6.96996 31.9282 7.45898 31.7579C21.2505 26.9549 33.3873 19.975 43.5708 10.9982L41.6141 11.1043C41.0962 11.1316 40.6552 10.736 40.6271 10.219C40.5991 9.70195 40.9955 9.26015 41.5125 9.23202L46.1121 8.9823C46.3915 8.96742 46.6656 9.07851 46.8551 9.28616C47.0447 9.4937 47.1311 9.77531 47.0906 10.0535L46.427 14.6119C46.3591 15.0784 45.9585 15.4144 45.5005 15.4145C45.4555 15.4145 45.4102 15.4113 45.3643 15.4046C44.852 15.33 44.4971 14.8542 44.5717 14.3419L44.8601 12.361C34.4834 21.5201 22.1203 28.6375 8.07563 33.5286C7.97355 33.5641 7.86961 33.581 7.7673 33.581C7.37941 33.581 7.0166 33.3385 6.88195 32.9516ZM7.32363 10.7591C7.32363 8.0005 9.56789 5.75636 12.3264 5.75636L16.5011 5.75648C19.3938 5.13925 22.2339 3.49921 24.7429 2.05042C25.2244 1.77234 25.6793 1.50972 26.132 1.25507C26.8119 0.872806 27.6199 0.879603 28.293 1.27347C28.9664 1.66734 29.3684 2.36824 29.3684 3.14824V7.57511C30.8154 7.94226 31.8879 9.25417 31.8879 10.8122C31.8879 12.3708 30.8146 13.683 29.3684 14.0496V18.2102C29.3684 19.0141 28.9479 19.7255 28.2436 20.113C27.9115 20.2957 27.5524 20.3866 27.1945 20.3866C26.793 20.3866 26.3932 20.2724 26.0343 20.0449C23.3137 18.3216 20.6079 16.7171 17.5356 15.9735V22.243C17.5356 22.7607 17.1158 23.1805 16.5981 23.1805H15.8161C14.0673 23.1805 12.6446 21.7577 12.6446 20.0091V15.7619H12.3264C9.56789 15.7619 7.32363 13.5177 7.32363 10.7591ZM29.3685 9.59941V12.0255C29.7568 11.762 30.013 11.3164 30.013 10.8122C30.013 10.3083 29.7571 9.86308 29.3685 9.59941ZM15.6607 21.2964V15.7619H14.5198V20.0092C14.5196 20.6714 15.0189 21.2193 15.6607 21.2964ZM24.1744 4.53609C22.1202 5.69214 19.8875 6.82898 17.5358 7.43613L17.5357 14.0509C19.9325 14.5699 22.1209 15.5727 24.1744 16.73V4.53609ZM26.0494 3.46124V17.8421C26.3818 18.0476 26.7114 18.2544 27.0379 18.4611C27.1392 18.5253 27.2352 18.528 27.3397 18.4705C27.4447 18.4127 27.4935 18.3301 27.4935 18.2103V3.14824C27.4935 3.03046 27.4481 2.95136 27.3465 2.89183C27.2449 2.83253 27.1539 2.83148 27.0511 2.88937C26.7237 3.07347 26.3923 3.26355 26.0494 3.46124ZM9.19863 10.7591C9.19863 12.4839 10.6018 13.8869 12.3264 13.8869L15.6606 13.8868L15.6607 7.63136L12.3264 7.63124C10.6018 7.63124 9.19863 9.03445 9.19863 10.7591ZM32.5859 7.64999C32.8257 7.64999 33.0657 7.55847 33.2487 7.37542L34.4474 6.17671C34.8135 5.81062 34.8135 5.21706 34.4474 4.85097C34.0812 4.48488 33.4877 4.48488 33.1215 4.85097L31.923 6.04945C31.5568 6.41554 31.5568 7.0091 31.9229 7.37519C32.1061 7.55835 32.346 7.64999 32.5859 7.64999ZM33.2817 10.8122C33.2817 11.3299 33.7015 11.7497 34.2192 11.7497H35.9143C36.4321 11.7497 36.8518 11.3299 36.8518 10.8122C36.8518 10.2944 36.4321 9.87468 35.9143 9.87468H34.2192C33.7015 9.87468 33.2817 10.2944 33.2817 10.8122ZM31.735 14.1712C31.3689 14.5373 31.3689 15.1309 31.735 15.497L32.9336 16.6956C33.1166 16.8786 33.3565 16.9703 33.5965 16.9703C33.8364 16.9703 34.0764 16.8787 34.2593 16.6957C34.6255 16.3296 34.6255 15.736 34.2594 15.37L33.0608 14.1712C32.6946 13.8051 32.1012 13.8051 31.735 14.1712ZM59.0625 46.1272C59.0625 53.24 53.2757 59.0269 46.1629 59.0269C41.4394 59.0269 37.3016 56.4744 35.0541 52.6768H1.875C1.35727 52.6768 0.9375 52.2571 0.9375 51.7393V9.98449C0.9375 9.46675 1.35727 9.04699 1.875 9.04699H4.49016C5.00789 9.04699 5.42766 9.46675 5.42766 9.98449V48.1867H7.43508V38.0903C7.43508 37.5725 7.85484 37.1528 8.37258 37.1528H14.1241C14.6419 37.1528 15.0616 37.5725 15.0616 38.0903V48.1867H18.1148V32.3092C18.1148 31.7914 18.5346 31.3717 19.0523 31.3717H24.8038C25.3215 31.3717 25.7413 31.7914 25.7413 32.3092V48.1867H28.7945V26.2725C28.7945 25.7548 29.2143 25.335 29.732 25.335H35.4834C36.0012 25.335 36.4209 25.7548 36.4209 26.2725V37.6807C37.297 36.6715 38.327 35.7993 39.4739 35.1009V20.842C39.4739 20.3243 39.8937 19.9045 40.4114 19.9045H46.1629C46.6806 19.9045 47.1004 20.3243 47.1004 20.842V33.2618C53.7771 33.7438 59.0625 39.3296 59.0625 46.1272ZM41.3489 34.1601C42.5613 33.6707 43.8643 33.3601 45.2254 33.2619V21.7796H41.3489V34.1601ZM30.6695 48.1867H33.4284C33.3203 47.5158 33.2633 46.8281 33.2633 46.1272C33.2633 44.1198 33.7245 42.2181 34.5459 40.5223V27.21H30.6695V48.1867ZM19.9898 48.1867H23.8663V33.2467H19.9898V48.1867ZM9.31008 48.1867H13.1866V39.0278H9.31008V48.1867ZM34.1402 50.8019C34.0453 50.5588 33.9579 50.3119 33.8776 50.0618H4.49016C3.97242 50.0618 3.55266 49.642 3.55266 49.1243V10.922H2.8125V50.8019H34.1402ZM57.1875 46.1272C57.1875 40.0482 52.2418 35.1026 46.1629 35.1026C40.0839 35.1026 35.1383 40.0482 35.1383 46.1272C35.1383 52.2062 40.0839 57.1519 46.1629 57.1519C52.2418 57.1519 57.1875 52.2062 57.1875 46.1272ZM46.3233 45.1692C44.5192 44.873 44.486 44.1902 44.4736 43.9332C44.4267 42.9659 45.4685 42.6801 45.6778 42.6326C46.5213 42.4412 47.5623 42.7021 47.9877 43.7152C48.1882 44.1927 48.7382 44.4169 49.215 44.2166C49.6924 44.0162 49.917 43.4667 49.7164 42.9893C49.1849 41.7233 48.1688 41.0441 47.1005 40.8042V40.3468C47.1005 39.8291 46.6807 39.4093 46.163 39.4093C45.6452 39.4093 45.2255 39.8291 45.2255 40.3468V40.8126C43.5796 41.2016 42.5263 42.488 42.6009 44.0239C42.6552 45.1432 43.2923 46.5714 46.0195 47.0194C47.7941 47.3106 48.0884 47.8986 48.1466 48.3783C48.1807 48.6592 48.1235 48.8682 47.961 49.056C47.6538 49.4112 46.9703 49.6611 46.2598 49.6781C45.4387 49.6998 44.3931 49.3636 44.1423 48.3574C44.017 47.855 43.5081 47.5501 43.0058 47.6746C42.5034 47.7998 42.1977 48.3087 42.323 48.811C42.6632 50.1753 43.7752 51.157 45.2256 51.4575V51.9074C45.2256 52.4251 45.6454 52.8449 46.1631 52.8449C46.6808 52.8449 47.1006 52.4251 47.1006 51.9074V51.473C48.0402 51.3047 48.8599 50.883 49.3793 50.2826C49.8882 49.6941 50.1056 48.9573 50.0079 48.1523C49.8123 46.5422 48.5727 45.5385 46.3233 45.1692ZM56.2348 46.1272C56.2348 51.6809 51.7165 56.199 46.1629 56.199C40.6092 56.199 36.0911 51.6807 36.0911 46.1272C36.0911 40.5737 40.6093 36.0554 46.1629 36.0554C51.7165 36.0554 56.2348 40.5736 56.2348 46.1272ZM54.3598 46.1272C54.3598 41.6075 50.6827 37.9304 46.1629 37.9304C41.6432 37.9304 37.9661 41.6075 37.9661 46.1272C37.9661 50.6469 41.6432 54.324 46.1629 54.324C50.6827 54.324 54.3598 50.6469 54.3598 46.1272Z" fill="#CC0444"/>
</g>
<defs>
<clipPath id="clip0_16_1397">
<rect width="60" height="60" fill="white"/>
</clipPath>
</defs>
</svg>
