<svg width="60" height="60" viewBox="0 0 60 60" fill="none" xmlns="http://www.w3.org/2000/svg">
<g clip-path="url(#clip0_16_1390)">
<path d="M29.0625 16.875C29.0625 10.155 23.595 4.6875 16.875 4.6875C10.155 4.6875 4.6875 10.155 4.6875 16.875C4.6875 23.595 10.155 29.0625 16.875 29.0625C23.595 29.0625 29.0625 23.595 29.0625 16.875ZM16.875 17.8125C17.7422 17.8125 18.5747 17.9662 19.3528 18.2391C18.8747 19.1409 17.9316 19.7466 16.875 19.7466C15.8184 19.7466 14.8753 19.1409 14.3972 18.2391C15.1753 17.9662 16.0078 17.8125 16.875 17.8125ZM14.0625 13.125C14.0625 11.5744 15.3244 10.3125 16.875 10.3125C18.4256 10.3125 19.6875 11.5744 19.6875 13.125C19.6875 14.6756 18.4256 15.9375 16.875 15.9375C15.3244 15.9375 14.0625 14.6756 14.0625 13.125ZM17.8125 27.1397V21.5156C19.1981 21.2278 20.3775 20.3194 21.0244 19.0706C22.7025 20.1862 23.9062 21.9619 24.2587 24.0591C22.5891 25.7747 20.3316 26.9119 17.8125 27.1397ZM16.875 6.5625C22.5609 6.5625 27.1875 11.1891 27.1875 16.875C27.1875 18.8166 26.6381 20.6278 25.7016 22.1803C24.7678 19.5356 22.6988 17.4638 20.0972 16.5131C20.9953 15.6581 21.5625 14.4591 21.5625 13.125C21.5625 10.5403 19.4597 8.4375 16.875 8.4375C14.2903 8.4375 12.1875 10.5403 12.1875 13.125C12.1875 14.4591 12.7547 15.6581 13.6528 16.5122C11.0512 17.4638 8.98313 19.5347 8.04844 22.1794C7.11188 20.6278 6.5625 18.8166 6.5625 16.875C6.5625 11.1891 11.1891 6.5625 16.875 6.5625ZM9.49125 24.0591C9.84375 21.9628 11.0475 20.1872 12.7256 19.0706C13.3725 20.3194 14.5519 21.2278 15.9375 21.5156V27.1397C13.4184 26.9119 11.1609 25.7747 9.49125 24.0591Z" fill="#CC0444"/>
<path d="M46.875 0.9375H48.75V4.6875H46.875V0.9375Z" fill="#CC0444"/>
<path d="M36.8329 5.35449L38.1587 4.02867L40.9715 6.8414L39.6457 8.16723L36.8329 5.35449Z" fill="#CC0444"/>
<path d="M54.6436 6.84238L57.4563 4.02964L58.7821 5.35546L55.9694 8.1682L54.6436 6.84238Z" fill="#CC0444"/>
<path d="M51.5625 30.9375V57.1875H49.6875V34.6875H42.1875V57.1875H40.3125V44.0625H32.8125V57.1875H30.9375V42.1875H23.4375V57.1875H20.6006C21.1959 56.4019 21.5625 55.4344 21.5625 54.375V39.375C21.5625 38.3766 21.0356 37.5028 20.2491 37.0041C20.4816 36.5944 20.625 36.1284 20.625 35.625V32.3484C22.9463 31.7859 25.0725 30.7247 26.8744 29.2678L31.8525 34.7438C31.2844 35.5191 30.9375 36.4669 30.9375 37.5C30.9375 40.0847 33.0403 42.1875 35.625 42.1875C38.2097 42.1875 40.3125 40.0847 40.3125 37.5C40.3125 36.4847 39.9797 35.55 39.4284 34.7812L45.2372 28.5262C45.6994 28.86 46.2628 29.0625 46.875 29.0625H48.75C50.3006 29.0625 51.5625 27.8006 51.5625 26.25V23.6325C51.5625 23.0053 51.8719 22.4166 52.3697 22.0959C54.7997 20.535 56.25 17.8819 56.25 15C56.25 12.6 55.2225 10.3059 53.4319 8.70563C51.6422 7.10719 49.2375 6.34406 46.8328 6.61781C43.035 7.04719 39.9281 10.1081 39.4453 13.8956C39.0263 17.1844 40.4934 20.3316 43.2741 22.1091C43.7606 22.4194 44.0616 23.0184 44.0616 23.6719V26.25C44.0616 26.4872 44.1 26.7141 44.1553 26.9344L38.0494 33.5091C37.3406 33.0759 36.5156 32.8125 35.625 32.8125C34.7522 32.8125 33.9431 33.0684 33.2428 33.4856L28.2609 28.0059C31.0716 25.1306 32.8125 21.2044 32.8125 16.875C32.8125 8.08688 25.6631 0.9375 16.875 0.9375C8.08688 0.9375 0.9375 8.08688 0.9375 16.875C0.9375 24.3694 6.14344 30.6553 13.125 32.3484V35.625C13.125 36.1284 13.2684 36.5944 13.5009 37.0041C12.7144 37.5028 12.1875 38.3766 12.1875 39.375V54.375C12.1875 56.9597 14.2903 59.0625 16.875 59.0625H59.0625V30.9375H51.5625ZM44.0625 36.5625H47.8125V57.1875H44.0625V36.5625ZM34.6875 45.9375H38.4375V57.1875H34.6875V45.9375ZM25.3125 44.0625H29.0625V57.1875H25.3125V44.0625ZM48.75 27.1875H46.875C46.3584 27.1875 45.9375 26.7666 45.9375 26.25V25.3125H49.6875V26.25C49.6875 26.7666 49.2666 27.1875 48.75 27.1875ZM46.875 15C46.875 14.4834 47.2959 14.0625 47.8125 14.0625C48.3291 14.0625 48.75 14.4834 48.75 15C48.75 15.5166 48.3291 15.9375 47.8125 15.9375C47.2959 15.9375 46.875 15.5166 46.875 15ZM41.3063 14.1328C41.6813 11.1919 44.0944 8.81437 47.0438 8.48062C47.3044 8.45156 47.5631 8.4375 47.8209 8.4375C49.4381 8.4375 50.9644 9.01594 52.1822 10.1044C53.5753 11.3484 54.375 13.1334 54.375 15C54.375 17.2406 53.2462 19.3041 51.3562 20.5191C50.3653 21.1566 49.7606 22.2375 49.6997 23.4375H48.75V17.64C49.8384 17.2519 50.625 16.2206 50.625 15C50.625 13.4494 49.3631 12.1875 47.8125 12.1875C46.2619 12.1875 45 13.4494 45 15C45 16.2206 45.7866 17.2519 46.875 17.64V23.4375H45.9234C45.8541 22.2272 45.2569 21.1509 44.2847 20.5294C42.12 19.1466 40.9791 16.6959 41.3063 14.1328ZM38.4375 37.5C38.4375 39.0506 37.1756 40.3125 35.625 40.3125C34.0744 40.3125 32.8125 39.0506 32.8125 37.5C32.8125 35.9494 34.0744 34.6875 35.625 34.6875C37.1756 34.6875 38.4375 35.9494 38.4375 37.5ZM2.8125 16.875C2.8125 9.12094 9.12094 2.8125 16.875 2.8125C24.6291 2.8125 30.9375 9.12094 30.9375 16.875C30.9375 24.6291 24.6291 30.9375 16.875 30.9375C9.12094 30.9375 2.8125 24.6291 2.8125 16.875ZM16.875 32.8125C17.5106 32.8125 18.1341 32.7647 18.75 32.6925V35.625C18.75 36.1416 18.3291 36.5625 17.8125 36.5625H15.9375C15.4209 36.5625 15 36.1416 15 35.625V32.6925C15.6159 32.7647 16.2394 32.8125 16.875 32.8125ZM14.0625 54.375V39.375C14.0625 38.8584 14.4834 38.4375 15 38.4375H15.9375H17.8125H18.75C19.2666 38.4375 19.6875 38.8584 19.6875 39.375V54.375C19.6875 55.9256 18.4256 57.1875 16.875 57.1875C15.3244 57.1875 14.0625 55.9256 14.0625 54.375ZM57.1875 57.1875H53.4375V32.8125H57.1875V57.1875Z" fill="#CC0444"/>
</g>
<defs>
<clipPath id="clip0_16_1390">
<rect width="60" height="60" fill="white"/>
</clipPath>
</defs>
</svg>
