<svg width="60" height="60" viewBox="0 0 60 60" fill="none" xmlns="http://www.w3.org/2000/svg">
<path d="M45.9154 29.7406C45.7657 29.7405 45.619 29.699 45.4914 29.6207C45.3638 29.5423 45.2605 29.4302 45.1927 29.2967C45.125 29.1632 45.0955 29.0136 45.1076 28.8644C45.1196 28.7152 45.1728 28.5722 45.2611 28.4514L46.6889 26.4973C46.8158 26.3234 47.0065 26.2071 47.2192 26.1739C47.4318 26.1407 47.649 26.1933 47.8228 26.3201C47.9967 26.447 48.113 26.6378 48.1463 26.8504C48.1795 27.0631 48.1269 27.2802 48 27.4541L46.573 29.4081C46.4974 29.5115 46.3984 29.5956 46.2841 29.6533C46.1698 29.7111 46.0435 29.741 45.9154 29.7406Z" fill="#CC0444"/>
<path d="M34.8722 44.854C34.7136 44.854 34.5586 44.8075 34.4262 44.7203L18.9892 34.5446C18.8725 34.4676 18.7776 34.3618 18.7138 34.2374C18.6501 34.113 18.6196 33.9742 18.6253 33.8345C18.631 33.6948 18.6727 33.559 18.7464 33.4402C18.8201 33.3214 18.9233 33.2236 19.0459 33.1565L46.5405 18.0957L13.4749 30.8294C13.3526 30.8766 13.2207 30.8934 13.0905 30.8784C12.9603 30.8635 12.8357 30.8172 12.7273 30.7435L1.97675 23.4324C1.84358 23.3417 1.74044 23.2134 1.6805 23.0639C1.62055 22.9144 1.60652 22.7503 1.64019 22.5928C1.67386 22.4352 1.7537 22.2913 1.86953 22.1793C1.98536 22.0673 2.13193 21.9924 2.29054 21.964L57.4135 12.1849C57.5503 12.1586 57.6916 12.1678 57.8238 12.2116H57.8286L57.8724 12.2278C58.0502 12.3004 58.1965 12.4337 58.2851 12.604C58.3021 12.6358 58.3165 12.6689 58.3281 12.703C58.38 12.8458 58.3906 13.0003 58.3589 13.1489C58.3453 13.2124 58.3238 13.274 58.2949 13.3321C58.2727 13.3805 58.2455 13.4264 58.2138 13.4692L51.3462 22.8649C51.2171 23.0323 51.0277 23.1427 50.8183 23.1725C50.609 23.2023 50.3963 23.1491 50.2256 23.0243C50.0549 22.8995 49.9397 22.713 49.9045 22.5044C49.8694 22.2959 49.9172 22.0819 50.0376 21.9081L54.7654 15.4403L21.0065 33.9316L34.6743 42.9405L37.1619 39.5351C37.2247 39.4491 37.3039 39.3764 37.3948 39.321C37.4857 39.2656 37.5867 39.2286 37.6919 39.2123C37.7971 39.1959 37.9046 39.2004 38.008 39.2255C38.1115 39.2507 38.209 39.2959 38.295 39.3588C38.381 39.4216 38.4537 39.5007 38.5091 39.5917C38.5645 39.6826 38.6015 39.7836 38.6178 39.8888C38.6342 39.994 38.6297 40.1014 38.6046 40.2049C38.5794 40.3084 38.5342 40.4059 38.4713 40.4919L35.5273 44.5216C35.452 44.6247 35.3534 44.7085 35.2395 44.7663C35.1257 44.824 34.9998 44.8541 34.8722 44.854ZM4.54054 23.2094L13.2924 29.1632L49.4213 15.2489L4.54054 23.2094Z" fill="#CC0444"/>
<path d="M41.1722 36.2351C41.0227 36.235 40.8761 36.1935 40.7487 36.1153C40.6213 36.0371 40.518 35.9252 40.4502 35.792C40.3824 35.6588 40.3528 35.5094 40.3646 35.3604C40.3764 35.2113 40.4291 35.0685 40.517 34.9476L41.9043 33.0413C41.967 32.9552 42.046 32.8823 42.1369 32.8266C42.2277 32.771 42.3286 32.7339 42.4338 32.7173C42.5391 32.7007 42.6465 32.705 42.7501 32.7299C42.8537 32.7548 42.9513 32.7999 43.0374 32.8626C43.1236 32.9252 43.1965 33.0042 43.2521 33.0951C43.3077 33.186 43.3449 33.2869 43.3615 33.3921C43.3781 33.4973 43.3738 33.6048 43.3489 33.7083C43.324 33.8119 43.2789 33.9095 43.2162 33.9957L41.8289 35.9011C41.7536 36.0047 41.6548 36.089 41.5407 36.147C41.4265 36.2051 41.3002 36.2353 41.1722 36.2351Z" fill="#CC0444"/>
<path d="M19.2624 47.8224C19.0955 47.8224 18.9326 47.7709 18.796 47.6748C18.6595 47.5787 18.5559 47.4428 18.4995 47.2857L12.4184 30.3397C12.3457 30.1373 12.3564 29.9142 12.4482 29.7197C12.5399 29.5251 12.7052 29.375 12.9077 29.3023C13.1102 29.2296 13.3332 29.2403 13.5278 29.3321C13.7223 29.4239 13.8724 29.5892 13.9451 29.7916L18.5108 42.5165L18.6227 33.857C18.6255 33.642 18.7136 33.4369 18.8676 33.2868C19.0217 33.1367 19.229 33.054 19.444 33.0568C19.6591 33.0596 19.8642 33.1477 20.0143 33.3017C20.1644 33.4557 20.2471 33.6631 20.2443 33.8781L20.0732 47.0222C20.0707 47.2122 20.0015 47.3952 19.8778 47.5394C19.7541 47.6836 19.5836 47.7798 19.3962 47.8111C19.352 47.8189 19.3073 47.8227 19.2624 47.8224Z" fill="#CC0444"/>
<path d="M19.2665 47.8257C19.0997 47.8257 18.9369 47.7742 18.8004 47.6783C18.6639 47.5824 18.5603 47.4468 18.5038 47.2898C18.4472 47.1329 18.4404 46.9623 18.4843 46.8014C18.5283 46.6405 18.6207 46.497 18.7492 46.3906L27.6681 39.0065C27.7502 38.9386 27.8448 38.8875 27.9466 38.8561C28.0484 38.8247 28.1553 38.8137 28.2614 38.8237C28.3674 38.8337 28.4705 38.8644 28.5646 38.9142C28.6588 38.964 28.7422 39.0319 28.8101 39.1139C28.8781 39.196 28.9292 39.2906 28.9606 39.3924C28.9919 39.4942 29.0029 39.6011 28.9929 39.7072C28.983 39.8132 28.9522 39.9163 28.9024 40.0104C28.8526 40.1046 28.7848 40.188 28.7027 40.256L19.7838 47.64C19.6382 47.7602 19.4553 47.8259 19.2665 47.8257Z" fill="#CC0444"/>
</svg>
