<svg width="60" height="60" viewBox="0 0 60 60" fill="none" xmlns="http://www.w3.org/2000/svg">
<g clip-path="url(#clip0_16_1351)">
<path d="M30 8.4375C29.351 8.4375 28.7166 8.62994 28.177 8.99049C27.6374 9.35104 27.2169 9.8635 26.9685 10.4631C26.7202 11.0626 26.6552 11.7224 26.7818 12.3589C26.9084 12.9954 27.2209 13.5801 27.6798 14.0389C28.1387 14.4978 28.7234 14.8103 29.3599 14.937C29.9964 15.0636 30.6561 14.9986 31.2557 14.7502C31.8553 14.5019 32.3677 14.0813 32.7283 13.5417C33.0888 13.0021 33.2813 12.3677 33.2813 11.7188C33.2802 10.8488 32.9342 10.0148 32.319 9.39972C31.7039 8.78459 30.8699 8.43855 30 8.4375ZM30 13.125C29.7219 13.125 29.45 13.0425 29.2187 12.888C28.9875 12.7335 28.8072 12.5139 28.7008 12.2569C28.5944 11.9999 28.5665 11.7172 28.6208 11.4444C28.675 11.1716 28.809 10.921 29.0056 10.7244C29.2023 10.5277 29.4529 10.3938 29.7257 10.3395C29.9984 10.2853 30.2812 10.3131 30.5381 10.4195C30.7951 10.526 31.0147 10.7062 31.1693 10.9375C31.3238 11.1687 31.4063 11.4406 31.4063 11.7188C31.4058 12.0916 31.2576 12.449 30.9939 12.7127C30.7303 12.9763 30.3728 13.1246 30 13.125Z" fill="#CC0444"/>
<path d="M30 0.9375C26.275 0.9375 23.8735 7.03342 23.496 12.062L20.9212 14.4754C20.8277 14.5631 20.7531 14.669 20.7022 14.7866C20.6512 14.9043 20.625 15.0311 20.625 15.1593V20.7843C20.625 20.9584 20.6735 21.129 20.765 21.2771C20.8565 21.4252 20.9874 21.5448 21.143 21.6227C21.2987 21.7006 21.473 21.7336 21.6464 21.718C21.8197 21.7025 21.9853 21.6389 22.1246 21.5346L24.7511 19.5664C25.0267 20.1362 25.3555 20.6787 25.7332 21.1867C25.8205 21.3033 25.9338 21.398 26.0641 21.4633C26.1945 21.5285 26.3382 21.5625 26.4839 21.5625H33.5944C33.7429 21.5625 33.8892 21.5272 34.0214 21.4596C34.1536 21.392 34.2678 21.2939 34.3547 21.1734C34.7112 20.6738 35.0205 20.1422 35.2786 19.5853L37.8749 21.5341C38.0141 21.6387 38.1798 21.7024 38.3532 21.7181C38.5266 21.7338 38.701 21.7008 38.8568 21.623C39.0125 21.5451 39.1435 21.4254 39.235 21.2773C39.3266 21.1291 39.375 20.9584 39.375 20.7843V15.1593C39.375 15.0311 39.3488 14.9043 39.2978 14.7866C39.2469 14.669 39.1723 14.5631 39.0788 14.4754L36.504 12.062C36.1265 7.03342 33.725 0.9375 30 0.9375ZM22.5 18.9102V15.5653L23.4861 14.6411C23.5607 15.6946 23.7492 16.737 24.0484 17.7499L22.5 18.9102ZM30 2.8125C30.4429 2.88432 30.8635 3.05636 31.2298 3.31549C31.5961 3.57463 31.8983 3.914 32.1135 4.30773C30.742 4.76755 29.258 4.76755 27.8865 4.30773C28.1017 3.914 28.4039 3.57463 28.7702 3.31549C29.1365 3.05636 29.5571 2.88432 30 2.8125ZM33.0959 19.6875H26.9705C25.8261 17.799 25.2505 15.6207 25.3125 13.4134C25.3305 10.8465 25.8837 8.31159 26.9368 5.97058C27.9088 6.36791 28.9499 6.56908 30 6.5625C31.0501 6.56905 32.0912 6.3679 33.0632 5.97061C34.1163 8.31161 34.6695 10.8465 34.6875 13.4134C34.7396 15.6108 34.1892 17.7806 33.0959 19.6875ZM37.5 15.5653V18.9084L35.9619 17.754C36.2529 16.7381 36.4377 15.6948 36.5134 14.6408L37.5 15.5653Z" fill="#CC0444"/>
<path d="M29.0625 22.5H30.9375V29.0625H29.0625V22.5Z" fill="#CC0444"/>
<path d="M32.8125 25.3125H34.6875V30.9375H32.8125V25.3125Z" fill="#CC0444"/>
<path d="M25.3125 25.3125H27.1875V30.9375H25.3125V25.3125Z" fill="#CC0444"/>
<path d="M8.4375 59.0625C12.713 59.0625 15.9375 57.3162 15.9375 54.9999V46.5624C15.9375 44.2465 12.713 42.5002 8.4375 42.5002C4.16198 42.5002 0.9375 44.2465 0.9375 46.5624V54.9999C0.9375 57.3162 4.16198 59.0625 8.4375 59.0625ZM8.4375 44.3752C11.8712 44.3752 14.0625 45.6706 14.0625 46.5624C14.0625 47.4546 11.8712 48.75 8.4375 48.75C5.00381 48.75 2.8125 47.4546 2.8125 46.5624C2.8125 45.6706 5.00381 44.3752 8.4375 44.3752ZM2.8125 49.2997C4.53714 50.2316 6.47824 50.6889 8.4375 50.625C10.3968 50.6889 12.3379 50.2316 14.0625 49.2997V50.8333C14.0625 51.7255 11.8712 53.021 8.4375 53.021C5.00381 53.021 2.8125 51.7255 2.8125 50.8333V49.2997ZM2.8125 53.5707C4.53714 54.5025 6.47824 54.9599 8.4375 54.896C10.3968 54.9599 12.3379 54.5025 14.0625 53.5707V54.9999C14.0625 55.8921 11.8712 57.1875 8.4375 57.1875C5.00381 57.1875 2.8125 55.8921 2.8125 54.9999V53.5707Z" fill="#CC0444"/>
<path d="M51.5625 42.5002C47.287 42.5002 44.0625 44.2465 44.0625 46.5624V54.9999C44.0625 57.3162 47.287 59.0625 51.5625 59.0625C55.838 59.0625 59.0625 57.3162 59.0625 54.9999V46.5624C59.0625 44.2465 55.838 42.5002 51.5625 42.5002ZM57.1875 54.9999C57.1875 55.8921 54.9962 57.1875 51.5625 57.1875C48.1288 57.1875 45.9375 55.8921 45.9375 54.9999V53.5707C47.6621 54.5025 49.6032 54.9599 51.5625 54.896C53.5218 54.9599 55.4629 54.5025 57.1875 53.5707V54.9999ZM57.1875 50.8333C57.1875 51.7255 54.9962 53.021 51.5625 53.021C48.1288 53.021 45.9375 51.7255 45.9375 50.8333V49.2997C47.6621 50.2316 49.6032 50.6889 51.5625 50.625C53.5218 50.6889 55.4629 50.2316 57.1875 49.2997V50.8333ZM51.5625 48.75C48.1288 48.75 45.9375 47.4546 45.9375 46.5624C45.9375 45.6706 48.1288 44.3752 51.5625 44.3752C54.9962 44.3752 57.1875 45.6706 57.1875 46.5624C57.1875 47.4546 54.9962 48.75 51.5625 48.75Z" fill="#CC0444"/>
<path d="M22.5891 38.1281H22.5V55.1042C22.5 57.4205 25.7245 59.1669 30 59.1669C34.2755 59.1669 37.5 57.4205 37.5 55.1042V38.1281H37.4109C36.8888 36.1292 33.8821 34.6875 30 34.6875C26.1179 34.6875 23.1112 36.1292 22.5891 38.1281ZM30 36.5625C33.4337 36.5625 35.625 37.858 35.625 38.7502C35.625 39.6419 33.4337 40.9373 30 40.9373C26.5663 40.9373 24.375 39.6419 24.375 38.7502C24.375 37.858 26.5663 36.5625 30 36.5625ZM24.375 41.4871C26.0997 42.4189 28.0408 42.8762 30 42.8123C31.9592 42.8762 33.9003 42.4189 35.625 41.4871V42.9168C35.625 43.8089 33.4337 45.1044 30 45.1044C26.5663 45.1044 24.375 43.8089 24.375 42.9168V41.4871ZM24.375 45.654C26.0996 46.5859 28.0407 47.0433 30 46.9794C31.9593 47.0433 33.9004 46.5859 35.625 45.654V46.9794C35.625 47.8711 33.4337 49.1666 30 49.1666C26.5663 49.1666 24.375 47.8711 24.375 46.9794V45.654ZM24.375 49.7163C26.0997 50.6481 28.0408 51.1054 30 51.0416C31.9592 51.1054 33.9003 50.6481 35.625 49.7163V50.9377C35.625 51.8294 33.4337 53.1248 30 53.1248C26.5663 53.1248 24.375 51.8294 24.375 50.9377V49.7163ZM24.375 53.6746C26.0997 54.6064 28.0408 55.0637 30 54.9998C31.9592 55.0637 33.9003 54.6064 35.625 53.6746V55.1043C35.625 55.9964 33.4337 57.2919 30 57.2919C26.5663 57.2919 24.375 55.9964 24.375 55.1043V53.6746Z" fill="#CC0444"/>
<path d="M29.0625 30H30.9375V31.875H29.0625V30Z" fill="#CC0444"/>
<path d="M32.8125 31.875H34.6875V33.75H32.8125V31.875Z" fill="#CC0444"/>
<path d="M25.3125 31.875H27.1875V33.75H25.3125V31.875Z" fill="#CC0444"/>
</g>
<defs>
<clipPath id="clip0_16_1351">
<rect width="60" height="60" fill="white"/>
</clipPath>
</defs>
</svg>
