<svg width="60" height="60" viewBox="0 0 60 60" fill="none" xmlns="http://www.w3.org/2000/svg">
<path d="M36.24 21.96C41.04 26.64 41.16 34.44 36.36 39.12C31.56 43.8 23.76 43.92 18.96 39.12C14.16 34.32 14.04 26.64 18.84 21.96C23.64 17.28 31.44 17.16 36.24 21.96Z" stroke="#0195FF" stroke-width="2" stroke-miterlimit="10" stroke-linecap="round" stroke-linejoin="round"/>
<path d="M54.72 48.72L44.28 40.08L38.16 46.2L47.04 56.4C48.96 58.8 52.68 58.8 54.96 56.52C57.24 54.24 57.12 50.64 54.72 48.72Z" stroke="#0195FF" stroke-width="2" stroke-miterlimit="10" stroke-linecap="round" stroke-linejoin="round"/>
<path d="M42.6 41.76L40.32 39.6" stroke="#0195FF" stroke-width="2" stroke-miterlimit="10" stroke-linecap="round" stroke-linejoin="round"/>
<path d="M39.84 44.52L38.04 42.6" stroke="#0195FF" stroke-width="2" stroke-miterlimit="10" stroke-linecap="round" stroke-linejoin="round"/>
<path d="M38.52 19.68C44.64 25.68 44.64 35.4 38.64 41.4C32.64 47.4 22.68 47.4 16.56 41.52C10.44 35.64 10.44 25.8 16.44 19.8C22.44 13.8 32.4 13.68 38.52 19.68Z" stroke="#0195FF" stroke-width="2" stroke-miterlimit="10" stroke-linecap="round" stroke-linejoin="round"/>
<path d="M19.2 31.68L18.12 30.6L19.2 29.52C23.76 24.96 31.2 24.96 35.88 29.52L36.96 30.6L35.88 31.68C31.32 36.24 23.88 36.24 19.2 31.68Z" stroke="#0195FF" stroke-width="2" stroke-miterlimit="10" stroke-linecap="round" stroke-linejoin="round"/>
<path d="M27.6 35.04C30.0521 35.04 32.04 33.0522 32.04 30.6C32.04 28.1479 30.0521 26.16 27.6 26.16C25.1479 26.16 23.16 28.1479 23.16 30.6C23.16 33.0522 25.1479 35.04 27.6 35.04Z" stroke="#0195FF" stroke-width="2" stroke-miterlimit="10" stroke-linecap="round" stroke-linejoin="round"/>
<path d="M27.6 32.04C28.3953 32.04 29.04 31.3953 29.04 30.6C29.04 29.8047 28.3953 29.16 27.6 29.16C26.8047 29.16 26.16 29.8047 26.16 30.6C26.16 31.3953 26.8047 32.04 27.6 32.04Z" stroke="#0195FF" stroke-width="2" stroke-miterlimit="10" stroke-linecap="round" stroke-linejoin="round"/>
<path d="M40.92 49.32H5.64C3.72 49.32 2.04 47.76 2.04 45.72V5.39999C2.04 3.47999 3.6 1.79999 5.64 1.79999H54.36C56.28 1.79999 57.96 3.35999 57.96 5.39999V45.84C57.96 47.52 56.76 48.96 55.32 49.32" stroke="#0195FF" stroke-width="2" stroke-miterlimit="10" stroke-linecap="round" stroke-linejoin="round"/>
<path d="M57.96 12.24H2.04" stroke="#0195FF" stroke-width="2" stroke-miterlimit="10" stroke-linecap="round" stroke-linejoin="round"/>
<path d="M7.56 9.11998C8.68666 9.11998 9.6 8.20664 9.6 7.07998C9.6 5.95332 8.68666 5.03998 7.56 5.03998C6.43334 5.03998 5.52 5.95332 5.52 7.07998C5.52 8.20664 6.43334 9.11998 7.56 9.11998Z" stroke="#0195FF" stroke-width="2" stroke-miterlimit="10" stroke-linecap="round" stroke-linejoin="round"/>
<path d="M14.52 9.11998C15.6467 9.11998 16.56 8.20664 16.56 7.07998C16.56 5.95332 15.6467 5.03998 14.52 5.03998C13.3933 5.03998 12.48 5.95332 12.48 7.07998C12.48 8.20664 13.3933 9.11998 14.52 9.11998Z" stroke="#0195FF" stroke-width="2" stroke-miterlimit="10" stroke-linecap="round" stroke-linejoin="round"/>
<path d="M21.48 9.11998C22.6067 9.11998 23.52 8.20664 23.52 7.07998C23.52 5.95332 22.6067 5.03998 21.48 5.03998C20.3533 5.03998 19.44 5.95332 19.44 7.07998C19.44 8.20664 20.3533 9.11998 21.48 9.11998Z" stroke="#0195FF" stroke-width="2" stroke-miterlimit="10" stroke-linecap="round" stroke-linejoin="round"/>
</svg>
