<svg width="60" height="60" viewBox="0 0 60 60" fill="none" xmlns="http://www.w3.org/2000/svg">
<g clip-path="url(#clip0_16_1165)">
<path d="M50.7315 17.5993C55.3253 17.5993 59.0625 13.8621 59.0625 9.26848C59.0625 4.67473 55.3253 0.9375 50.7315 0.9375C46.1378 0.9375 42.4005 4.67473 42.4005 9.26848C42.4005 13.8621 46.1378 17.5993 50.7315 17.5993ZM50.7315 2.8125C54.2914 2.8125 57.1875 5.70856 57.1875 9.26848C57.1875 12.8283 54.2914 15.7243 50.7315 15.7243C47.1716 15.7243 44.2755 12.8283 44.2755 9.26848C44.2755 5.70856 47.1717 2.8125 50.7315 2.8125ZM49.794 9.26848V4.87582C49.794 4.35809 50.2138 3.93832 50.7315 3.93832C51.2493 3.93832 51.669 4.35809 51.669 4.87582V8.72719L54.3791 10.2919C54.8275 10.5507 54.9811 11.1241 54.7222 11.5725C54.5486 11.8732 54.2334 12.0414 53.9094 12.0414C53.7504 12.0414 53.5893 12.0008 53.4415 11.9156L50.2627 10.0804C49.9727 9.91289 49.794 9.6034 49.794 9.26848ZM23.619 39.7349L24.9768 39.1318C25.6494 39.5026 26.3586 39.7966 27.0952 40.01L27.6285 41.3955C27.7677 41.7574 28.1155 41.9963 28.5034 41.9963H31.4967C31.8846 41.9963 32.2323 41.7574 32.3716 41.3955L32.9047 40.0105C33.6417 39.7971 34.3513 39.5029 35.0239 39.1321L36.3811 39.7349C36.7356 39.8924 37.1503 39.8153 37.4245 39.5411L39.5412 37.4244C39.8154 37.1501 39.8925 36.7354 39.7351 36.381L39.1321 35.0231C39.503 34.3506 39.797 33.6412 40.0104 32.9047L41.3958 32.3714C41.7578 32.2322 41.9965 31.8844 41.9965 31.4965V28.5033C41.9965 28.1154 41.7577 27.7677 41.3958 27.6284L40.0109 27.0953C39.7975 26.3584 39.5033 25.6488 39.1323 24.9761L39.7351 23.6189C39.8926 23.2644 39.8155 22.8497 39.5413 22.5755L37.4246 20.4588C37.1504 20.1846 36.7356 20.1075 36.3812 20.2649L35.0235 20.8679C34.3508 20.497 33.6416 20.203 32.9051 19.9896L32.3718 18.6041C32.2325 18.2421 31.8847 18.0034 31.4968 18.0034H28.5036C28.1157 18.0034 27.768 18.2422 27.6287 18.6041L27.0954 19.9896C26.359 20.203 25.6496 20.497 24.977 20.8679L23.6193 20.2649C23.2649 20.1074 22.85 20.1844 22.5758 20.4587L20.4592 22.5754C20.185 22.8496 20.1079 23.2643 20.2654 23.6188L20.8683 24.9763C20.4974 25.6488 20.2032 26.3584 19.9898 27.095L18.6046 27.6282C18.2427 27.7676 18.0039 28.1153 18.0039 28.5032V31.4964C18.0039 31.8843 18.2427 32.232 18.6046 32.3713L19.9895 32.9044C20.2029 33.6414 20.4971 34.3511 20.868 35.0236L20.2652 36.3807C20.1077 36.7351 20.1848 37.1498 20.4591 37.4242L22.5757 39.5408C22.8499 39.8153 23.2645 39.892 23.619 39.7349ZM22.7175 34.4747C22.2421 33.7028 21.8947 32.8651 21.6853 31.9849C21.6137 31.6842 21.3986 31.438 21.11 31.327L19.8786 30.853V29.1471L21.1104 28.673C21.3988 28.562 21.6141 28.3158 21.6857 28.0151C21.8951 27.1354 22.2423 26.2978 22.7177 25.5258C22.8799 25.2625 22.9018 24.9362 22.7763 24.6537L22.2401 23.4463L23.4463 22.2401L24.6538 22.7763C24.9362 22.9018 25.2627 22.8799 25.5258 22.7179C26.298 22.2424 27.1355 21.8952 28.015 21.6859C28.3157 21.6143 28.5618 21.3991 28.6729 21.1106L29.1471 19.8786H30.853L31.3271 21.1105C31.4381 21.399 31.6842 21.6142 31.985 21.6858C32.8645 21.8951 33.7021 22.2423 34.4741 22.7177C34.7374 22.8798 35.0637 22.9018 35.3462 22.7763L36.5538 22.24L37.7602 23.4462L37.2241 24.6531C37.0986 24.9357 37.1205 25.262 37.2826 25.5252C37.7582 26.2973 38.1054 27.135 38.3148 28.0151C38.3863 28.3158 38.6016 28.562 38.8901 28.673L40.1215 29.147V30.8528L38.8896 31.327C38.6011 31.438 38.3859 31.6842 38.3143 31.9849C38.105 32.8644 37.7578 33.7018 37.2824 34.474C37.1203 34.7372 37.0984 35.0634 37.2238 35.346L37.7602 36.5537L36.5539 37.7599L35.3469 37.2239C35.0643 37.0983 34.738 37.1203 34.4748 37.2825C33.7029 37.7579 32.8652 38.1052 31.985 38.3147C31.6843 38.3862 31.4381 38.6014 31.3271 38.8898L30.8531 40.1214H29.1472L28.6731 38.8894C28.5621 38.601 28.316 38.3857 28.0153 38.3142C27.1357 38.1048 26.2982 37.7576 25.5261 37.2821C25.2629 37.12 24.9366 37.0982 24.6541 37.2237L23.4466 37.7599L22.2403 36.5537L22.7764 35.3467C22.9016 35.0643 22.8797 34.7379 22.7175 34.4747ZM30 36.924C33.818 36.924 36.924 33.8179 36.924 30C36.924 26.1821 33.818 23.0761 30 23.0761C26.1821 23.0761 23.0761 26.1821 23.0761 30C23.0761 33.8179 26.1821 36.924 30 36.924ZM30 24.9511C32.784 24.9511 35.049 27.2161 35.049 30C35.049 32.7839 32.784 35.049 30 35.049C27.216 35.049 24.9511 32.784 24.9511 30C24.9511 27.216 27.216 24.9511 30 24.9511ZM1.875 16.9069H16.5977C16.8638 16.9069 17.1172 16.7939 17.295 16.596C17.4728 16.3982 17.5582 16.1341 17.5298 15.8696C17.195 12.7409 15.1686 10.1811 12.4151 9.05074C13.3382 8.19516 13.9174 6.97348 13.9174 5.61867C13.9174 3.03738 11.8175 0.9375 9.23637 0.9375C6.6552 0.9375 4.55543 3.03738 4.55543 5.61855C4.55543 6.97348 5.13469 8.19504 6.05777 9.05063C3.30422 10.1811 1.2777 12.7409 0.942891 15.8696C0.914531 16.1341 0.999961 16.3982 1.17773 16.596C1.35551 16.7939 1.60898 16.9069 1.875 16.9069ZM6.43043 5.61855C6.43043 4.07133 7.68914 2.8125 9.23637 2.8125C10.7836 2.8125 12.0424 4.07133 12.0424 5.61855C12.0424 7.16578 10.7837 8.42449 9.23637 8.42449C7.68902 8.42449 6.43043 7.16578 6.43043 5.61855ZM9.23637 10.2995C12.191 10.2995 14.7089 12.2721 15.469 15.0318H3.00375C3.76383 12.2722 6.28172 10.2995 9.23637 10.2995ZM58.9834 42.6257C58.9767 42.6073 58.9707 42.5885 58.9631 42.5705C58.9492 42.5361 58.9336 42.5027 58.9159 42.4706C58.856 42.3565 58.779 42.2507 58.6853 42.1569L56.7185 40.1903C56.6249 40.0968 56.5193 40.0198 56.4054 39.9599C56.3729 39.942 56.3393 39.9263 56.3047 39.9122C56.2882 39.9053 56.2712 39.9 56.2545 39.8938C56.2462 39.891 56.2383 39.8876 56.2301 39.885C56.096 39.8386 55.9541 39.813 55.8081 39.813H45.0701C44.3599 39.813 43.7823 40.3908 43.7823 41.1008V57.7747C43.7823 58.4849 44.36 59.0625 45.0701 59.0625H57.7748C58.4849 59.0625 59.0626 58.4848 59.0626 57.7747V43.0676C59.0626 42.9213 59.0371 42.7794 58.9905 42.6452C58.9883 42.6386 58.9856 42.6322 58.9834 42.6257ZM45.6572 57.1875V41.6879H55.0155V42.7472C55.0155 43.3607 55.5146 43.8599 56.1282 43.8599H57.1875V57.1875H45.6572ZM10.3121 40.3133C5.14289 40.3133 0.9375 44.5188 0.9375 49.688C0.9375 54.8571 5.14289 59.0625 10.3121 59.0625C15.4814 59.0625 19.6868 54.8571 19.6868 49.688C19.6868 44.5188 15.4813 40.3133 10.3121 40.3133ZM10.3121 57.1875C6.17672 57.1875 2.8125 53.8232 2.8125 49.688C2.8125 45.5527 6.17672 42.1883 10.3121 42.1883C14.4476 42.1883 17.8118 45.5527 17.8118 49.688C17.8117 53.8232 14.4475 57.1875 10.3121 57.1875ZM13.9346 51.5498C14.0275 52.314 13.8207 53.0136 13.337 53.5731C12.8577 54.1273 12.1089 54.5198 11.2496 54.6851V55.0269C11.2496 55.5446 10.8299 55.9644 10.3121 55.9644C9.79441 55.9644 9.37465 55.5446 9.37465 55.0269V54.6694C8.0359 54.3728 7.0125 53.4544 6.69586 52.1843C6.57059 51.6819 6.87633 51.1731 7.37871 51.0478C7.88156 50.9234 8.38992 51.2283 8.5152 51.7307C8.73668 52.6189 9.66762 52.9158 10.4 52.8962C11.0373 52.8811 11.6476 52.6601 11.9189 52.3465C12.0546 52.1896 12.1022 52.0136 12.0734 51.7759C12.0225 51.3578 11.7601 50.844 10.168 50.5827C7.60195 50.1613 7.00195 48.8089 6.95051 47.7487C6.88066 46.3116 7.85121 45.1058 9.37465 44.723V44.349C9.37465 43.8313 9.79441 43.4115 10.3121 43.4115C10.8299 43.4115 11.2496 43.8313 11.2496 44.349V44.7144C12.2363 44.9512 13.1684 45.5898 13.6605 46.762C13.8609 47.2393 13.6365 47.7889 13.1591 47.9893C12.6816 48.1898 12.1322 47.9653 11.9318 47.4879C11.5548 46.5902 10.6298 46.3604 9.87996 46.5299C9.69645 46.5715 8.78273 46.8216 8.8234 47.6579C8.83406 47.8798 8.86266 48.4684 10.4718 48.7325C12.5846 49.0793 13.7497 50.0271 13.9346 51.5498ZM42.0425 50.7315C42.0425 51.2493 41.6228 51.669 41.105 51.669H25.4406L26.2276 52.1235C26.676 52.3823 26.8296 52.9557 26.5707 53.4041C26.3971 53.7048 26.082 53.873 25.7579 53.873C25.5989 53.873 25.4377 53.8324 25.29 53.7472L21.4729 51.5434C21.1828 51.3759 21.0041 51.0666 21.0041 50.7315C21.0041 50.3965 21.1828 50.0871 21.4729 49.9196L25.29 47.7158C25.7384 47.457 26.3118 47.6106 26.5706 48.0589C26.8295 48.5073 26.6759 49.0807 26.2275 49.3396L25.4405 49.794H41.1049C41.6229 49.794 42.0425 50.2138 42.0425 50.7315ZM17.7257 9.26848C17.7257 8.75074 18.1454 8.33098 18.6632 8.33098H35.7666L34.9794 7.87652C34.5311 7.61766 34.3774 7.04426 34.6363 6.5959C34.8952 6.14742 35.4686 5.99379 35.9169 6.25277L39.7341 8.4566C40.0241 8.62406 40.2028 8.93356 40.2028 9.26848C40.2028 9.6034 40.0241 9.91289 39.7341 10.0804L35.9169 12.2842C35.7693 12.3694 35.6081 12.4099 35.449 12.4099C35.125 12.4099 34.8098 12.2418 34.6362 11.9411C34.3773 11.4927 34.5309 10.9193 34.9793 10.6604L35.7663 10.2061H18.6632C18.1453 10.206 17.7257 9.78621 17.7257 9.26848ZM8.33098 37.8969V23.4782L7.87652 24.2653C7.61754 24.7138 7.04402 24.8673 6.5959 24.6084C6.14754 24.3496 5.99391 23.7762 6.25277 23.3278L8.4566 19.5107C8.62406 19.2206 8.93356 19.0419 9.26848 19.0419C9.6034 19.0419 9.91289 19.2206 10.0804 19.5107L12.2842 23.3278C12.543 23.7762 12.3894 24.3496 11.9411 24.6084C11.4928 24.8672 10.9193 24.7137 10.6604 24.2653L10.206 23.4782V37.8969C10.206 38.4146 9.78621 38.8344 9.26848 38.8344C8.75074 38.8344 8.33098 38.4146 8.33098 37.8969ZM51.6691 20.3061V33.8321L52.1236 33.045C52.3825 32.5965 52.956 32.4428 53.4042 32.7019C53.8526 32.9607 54.0062 33.5341 53.7473 33.9825L51.5435 37.7995C51.3761 38.0897 51.0666 38.2683 50.7316 38.2683C50.3967 38.2683 50.0872 38.0897 49.9198 37.7995L47.7159 33.9825C47.4571 33.5341 47.6107 32.9607 48.0591 32.7019C48.5074 32.443 49.0808 32.5966 49.3397 33.045L49.794 33.832V20.3061C49.794 19.7884 50.2138 19.3686 50.7315 19.3686C51.2493 19.3686 51.6691 19.7884 51.6691 20.3061Z" fill="white"/>
</g>
<defs>
<clipPath id="clip0_16_1165">
<rect width="60" height="60" fill="white"/>
</clipPath>
</defs>
</svg>
