<svg width="60" height="60" viewBox="0 0 60 60" fill="none" xmlns="http://www.w3.org/2000/svg">
<path d="M54.1273 43.5182C53.0727 42.9545 51.8364 42.8636 50.7182 43.2636L39.6727 47.2273C39.7273 47.0636 39.7636 46.8909 39.7909 46.7182C39.9909 45.4909 39.6454 44.2545 38.8545 43.3273C38.0636 42.3909 36.9 41.8545 35.6818 41.8545H29.5636C28.1545 41.8545 26.8 41.3636 25.6364 40.4363C22.9727 38.3091 17.5727 35.5091 10.5091 39.4273V38.1182C10.5091 37.1091 9.6909 36.2909 8.68181 36.2909H4.55454C3.54545 36.2909 2.72726 37.1091 2.72726 38.1182V55.7818C2.72726 56.7909 3.54545 57.6091 4.55454 57.6091H8.68181C9.6909 57.6091 10.5091 56.7909 10.5091 55.7818V55C11.8818 54.9909 15.2364 55.2 20.0818 57.0909C23.2273 58.3182 26.5 58.9454 29.7636 58.9454C31.5727 58.9454 33.3818 58.7545 35.1545 58.3636C40.0454 57.3 47.3454 55.1273 54.3636 50.8273C55.3091 50.2545 55.9909 49.2909 56.2545 48.1909C56.6909 46.3545 55.8273 44.4363 54.1273 43.5182ZM8.91817 55.7909C8.91817 55.9182 8.80908 56.0273 8.68181 56.0273H4.55454C4.42726 56.0273 4.31817 55.9182 4.31817 55.7909V38.1364C4.31817 38.0091 4.42726 37.9 4.55454 37.9H8.68181C8.80908 37.9 8.91817 38.0091 8.91817 38.1364V55.7909ZM54.7091 47.8363C54.5454 48.5273 54.1273 49.1273 53.5364 49.4818C46.7 53.6636 39.5818 55.7818 34.8182 56.8182C30.1545 57.8364 25.2636 57.4182 20.6636 55.6182C15.7454 53.6909 12.2454 53.4091 10.6273 53.4091C10.5909 53.4091 10.5454 53.4091 10.5091 53.4091V41.2636C17.1636 37.1454 22.2091 39.7454 24.6454 41.6909C26.0727 42.8273 27.8182 43.4545 29.5636 43.4545H35.6818C36.4364 43.4545 37.1545 43.7818 37.6454 44.3636C38.1454 44.9454 38.3454 45.7 38.2182 46.4727C38.1 47.1909 37.6454 47.8091 37.0182 48.1909C36.9727 48.2091 36.9182 48.2363 36.8818 48.2727C36.4727 48.4909 36 48.6182 35.5 48.6182H28.0273C27.5909 48.6182 27.2273 48.9727 27.2273 49.4182C27.2273 49.8636 27.5818 50.2182 28.0273 50.2182H35.5C36.2909 50.2182 37.0364 50.0182 37.6818 49.6545L51.2545 44.7909C51.9454 44.5454 52.7182 44.6 53.4 44.9636C54.4454 45.5 54.9818 46.6909 54.7091 47.8363Z" fill="white"/>
<path d="M19.7273 36.0091H25.1818C25.6182 36.0091 25.9818 35.6545 25.9818 35.2091V24.3C25.9818 23.8636 25.6273 23.5 25.1818 23.5H19.7273C19.2909 23.5 18.9273 23.8545 18.9273 24.3V35.2091C18.9273 35.6545 19.2818 36.0091 19.7273 36.0091ZM20.5182 25.1H24.3818V34.4182H20.5182V25.1Z" fill="white"/>
<path d="M34.2818 36.0091C34.7182 36.0091 35.0818 35.6546 35.0818 35.2091V28.8546C35.0818 28.4182 34.7273 28.0546 34.2818 28.0546H28.8273C28.3909 28.0546 28.0273 28.4091 28.0273 28.8546V35.2091C28.0273 35.6455 28.3818 36.0091 28.8273 36.0091H34.2818ZM29.6182 29.6546H33.4818V34.4182H29.6182V29.6546Z" fill="white"/>
<path d="M43.3727 36.0091C43.8091 36.0091 44.1727 35.6545 44.1727 35.2091V19.7545C44.1727 19.3182 43.8182 18.9545 43.3727 18.9545H37.9182C37.4818 18.9545 37.1182 19.3091 37.1182 19.7545V35.2091C37.1182 35.6454 37.4727 36.0091 37.9182 36.0091H43.3727ZM38.7182 20.5545H42.5818V34.4182H38.7182V20.5545Z" fill="white"/>
<path d="M52.4727 36.0091C52.9091 36.0091 53.2727 35.6545 53.2727 35.2091V15.2091C53.2727 14.7727 52.9182 14.4091 52.4727 14.4091H47.0182C46.5818 14.4091 46.2182 14.7636 46.2182 15.2091V35.2091C46.2182 35.6454 46.5727 36.0091 47.0182 36.0091H52.4727ZM47.8182 16.0091H51.6818V34.4181H47.8182V16.0091Z" fill="white"/>
<path d="M57.0364 1.28181C56.7273 0.972715 56.2182 0.972715 55.9091 1.28181L51.4 5.7909C50.9182 5.48181 50.3545 5.29999 49.7454 5.29999C48.2545 5.29999 47.0182 6.36363 46.7364 7.77272H44.1C43.8273 6.36363 42.5818 5.29999 41.1 5.29999C39.4091 5.29999 38.0273 6.67272 38.0273 8.37272C38.0273 8.86363 38.1545 9.31817 38.3636 9.73635L32.9091 15.1818C32.5 14.9727 32.0363 14.8454 31.5454 14.8454C30.9273 14.8454 30.3454 15.0364 29.8636 15.3545L25.1091 10.6C25.3636 10.1545 25.5182 9.64544 25.5182 9.09999C25.5182 7.40908 24.1454 6.02726 22.4454 6.02726C20.7454 6.02726 19.3727 7.39999 19.3727 9.09999C19.3727 10.8 20.7454 12.1727 22.4454 12.1727C23.0091 12.1727 23.5363 12.0091 23.9909 11.7364L28.8091 16.5545C28.6 16.9636 28.4727 17.4273 28.4727 17.9182C28.4727 19.6091 29.8454 20.9909 31.5454 20.9909C33.2454 20.9909 34.6182 19.6182 34.6182 17.9182C34.6182 17.3 34.4273 16.7182 34.1091 16.2364L39.4091 10.9364C39.8909 11.2545 40.4727 11.4454 41.0909 11.4454C42.4364 11.4454 43.5636 10.5727 43.9818 9.37272H46.8545C47.2727 10.5727 48.4 11.4454 49.7454 11.4454C51.4364 11.4454 52.8182 10.0727 52.8182 8.37272C52.8182 7.86363 52.6818 7.39999 52.4636 6.98181L57.0364 2.40908C57.3454 2.0909 57.3454 1.5909 57.0364 1.28181ZM22.4545 10.5727C21.6363 10.5727 20.9727 9.90908 20.9727 9.0909C20.9727 8.27272 21.6363 7.60908 22.4545 7.60908C23.2727 7.60908 23.9363 8.27272 23.9363 9.0909C23.9363 9.90908 23.2636 10.5727 22.4545 10.5727ZM31.5545 19.3909C30.7363 19.3909 30.0727 18.7273 30.0727 17.9091C30.0727 17.0909 30.7363 16.4273 31.5545 16.4273C32.3727 16.4273 33.0363 17.0909 33.0363 17.9091C33.0363 18.7273 32.3636 19.3909 31.5545 19.3909ZM41.1 9.84544C40.2818 9.84544 39.6182 9.18181 39.6182 8.36362C39.6182 7.54544 40.2818 6.88181 41.1 6.88181C41.9182 6.88181 42.5818 7.54544 42.5818 8.36362C42.5818 9.18181 41.9091 9.84544 41.1 9.84544ZM49.7454 9.84544C48.9273 9.84544 48.2636 9.18181 48.2636 8.36362C48.2636 7.54544 48.9273 6.88181 49.7454 6.88181C50.5636 6.88181 51.2273 7.54544 51.2273 8.36362C51.2273 9.18181 50.5636 9.84544 49.7454 9.84544Z" fill="white"/>
</svg>
