<svg width="60" height="60" viewBox="0 0 60 60" fill="none" xmlns="http://www.w3.org/2000/svg">
<path d="M55.7964 4.31485H4.20352C2.4027 4.31485 0.9375 5.78005 0.9375 7.58087V45.5453C0.9375 47.3462 2.4027 48.8114 4.20352 48.8114H20.6303V54.7475C20.6303 55.2653 21.05 55.685 21.5678 55.685H25.7529C26.2706 55.685 26.6904 55.2653 26.6904 54.7475V48.8114H29.5444V54.7475C29.5444 55.2653 29.9641 55.685 30.4819 55.685H34.6671C35.1848 55.685 35.6046 55.2653 35.6046 54.7475V48.8114H38.4585V54.7475C38.4585 55.2653 38.8782 55.685 39.396 55.685H43.5813C44.0991 55.685 44.5188 55.2653 44.5188 54.7475V48.8114H47.3728V54.7475C47.3728 55.2653 47.7926 55.685 48.3103 55.685H52.4954C53.0132 55.685 53.4329 55.2653 53.4329 54.7475V48.8114H55.7966C57.5975 48.8114 59.0627 47.3462 59.0627 45.5453V7.58087C59.0625 5.78005 57.5973 4.31485 55.7964 4.31485ZM4.20352 6.18985H55.7964C56.5635 6.18985 57.1875 6.81387 57.1875 7.58087V13.1708H2.8125V7.58087C2.8125 6.81399 3.43652 6.18985 4.20352 6.18985ZM24.8154 53.8102H22.5053V47.6561H24.8154V53.8102ZM33.7295 53.8102H31.4193V40.595H33.7295V53.8102ZM42.6437 53.8102H40.3334V43.4494H42.6437V53.8102ZM51.5577 53.8102H49.2476V35.105H51.5577V53.8102ZM55.7964 46.9364H53.4327V34.1675C53.4327 33.6498 53.0129 33.23 52.4952 33.23H48.3101C47.7923 33.23 47.3726 33.6498 47.3726 34.1675V46.9364H44.5186V42.5118C44.5186 41.994 44.0988 41.5743 43.5811 41.5743H39.3957C38.878 41.5743 38.4582 41.994 38.4582 42.5118V46.9364H35.6044V39.6575C35.6044 39.1398 35.1846 38.72 34.6669 38.72H30.4816C29.9639 38.72 29.5441 39.1398 29.5441 39.6575V46.9364H26.6902V46.7186C26.6902 46.2008 26.2704 45.7811 25.7527 45.7811H21.5675C21.0498 45.7811 20.63 46.2008 20.63 46.7186V46.9364H4.20352C3.43652 46.9364 2.8125 46.3124 2.8125 45.5453V15.0459H57.1875V45.5454C57.1875 46.3124 56.5635 46.9364 55.7964 46.9364ZM7.98234 9.6804C7.98234 8.92876 8.5916 8.3195 9.34324 8.3195C10.0949 8.3195 10.7041 8.92876 10.7041 9.6804C10.7041 10.432 10.0949 11.0413 9.34324 11.0413C8.5916 11.0413 7.98234 10.432 7.98234 9.6804ZM18.4303 9.6804C18.4303 8.92876 19.0396 8.3195 19.7912 8.3195C20.5429 8.3195 21.1521 8.92876 21.1521 9.6804C21.1521 10.432 20.5429 11.0413 19.7912 11.0413C19.0396 11.0413 18.4303 10.432 18.4303 9.6804ZM13.2063 9.6804C13.2063 8.92876 13.8156 8.3195 14.5672 8.3195C15.3189 8.3195 15.9281 8.92876 15.9281 9.6804C15.9281 10.432 15.3189 11.0413 14.5672 11.0413C13.8156 11.0413 13.2063 10.432 13.2063 9.6804ZM50.2972 27.7302C50.4761 27.9471 50.5482 28.2327 50.4936 28.5084L49.8478 31.7756C49.7596 32.2223 49.3677 32.5315 48.9292 32.5316C48.8688 32.5316 48.8078 32.5256 48.7464 32.5136C48.2384 32.4132 47.908 31.9201 48.0084 31.4122L48.1034 30.9322L42.1195 36.3761C41.8477 36.6233 41.4563 36.6893 41.1183 36.5439L32.7061 32.9265L24.2272 39.3646C24.0578 39.4934 23.8586 39.5555 23.661 39.5555C23.3779 39.5555 23.098 39.4277 22.9137 39.1849C22.6005 38.7725 22.6811 38.1845 23.0933 37.8714L32.0073 31.1029C32.2762 30.8986 32.6345 30.8548 32.9446 30.9881L41.3043 34.5829L47.1405 29.2733L46.247 29.2766C46.2458 29.2766 46.2445 29.2766 46.2435 29.2766C45.7274 29.2766 45.3081 28.8592 45.3061 28.3425C45.3042 27.8248 45.7225 27.4035 46.2402 27.4016L49.5705 27.3894H49.5739C49.8538 27.3892 50.1191 27.5141 50.2972 27.7302ZM24.8065 32.9809C24.9844 32.7831 25.0697 32.519 25.0413 32.2545C24.9607 31.5015 24.7575 30.79 24.4535 30.1378H31.013C31.279 30.1378 31.5325 30.0249 31.7102 29.827C31.888 29.6292 31.9734 29.3651 31.9451 29.1006C31.6887 26.7036 30.1927 24.7238 28.1333 23.7633C28.7603 23.0793 29.1437 22.1686 29.1437 21.1698C29.1437 19.0514 27.4202 17.3279 25.3018 17.3279C23.1833 17.3279 21.4598 19.0514 21.4598 21.1698C21.4598 21.5304 21.5109 21.879 21.6041 22.2102C20.916 21.1698 19.7361 20.4818 18.398 20.4818C17.0598 20.4818 15.8798 21.1699 15.1917 22.2106C15.2851 21.8793 15.3361 21.5305 15.3361 21.1698C15.3361 19.0514 13.6126 17.3279 11.4942 17.3279C9.37582 17.3279 7.65234 19.0514 7.65234 21.1698C7.65234 22.1686 8.03566 23.0793 8.66273 23.7633C6.60328 24.7238 5.10738 26.7038 4.85086 29.1007C4.8225 29.3652 4.90781 29.6293 5.0857 29.8272C5.26359 30.025 5.51707 30.1379 5.78297 30.1379H12.3424C12.0384 30.7901 11.8351 31.5016 11.7546 32.2546C11.7262 32.5191 11.8116 32.7832 11.9895 32.981C12.1673 33.1788 12.4208 33.2918 12.6867 33.2918H24.1093C24.3751 33.2917 24.6286 33.1787 24.8065 32.9809ZM29.8528 28.2628H23.1441C22.639 27.754 22.0535 27.3271 21.4082 27.0024C22.3014 25.77 23.7434 25.0116 25.3017 25.0116C27.4017 25.0116 29.205 26.352 29.8528 28.2628ZM25.3017 19.2027C26.3863 19.2027 27.2686 20.085 27.2686 21.1696C27.2686 22.2541 26.3863 23.1365 25.3017 23.1365C24.2171 23.1365 23.3347 22.2541 23.3347 21.1696C23.3347 20.085 24.2171 19.2027 25.3017 19.2027ZM22.4734 23.7667C22.3863 23.8075 22.3004 23.8505 22.2154 23.8949C22.1919 23.6854 22.1514 23.4811 22.0956 23.2832C22.2088 23.4543 22.335 23.6161 22.4734 23.7667ZM18.3979 22.3566C19.4825 22.3566 20.3648 23.2389 20.3648 24.3234C20.3648 25.4074 19.4834 26.2895 18.3994 26.2903C18.3989 26.2903 18.3983 26.2903 18.3979 26.2903C18.3974 26.2903 18.3968 26.2903 18.3963 26.2903C17.3125 26.2895 16.431 25.4074 16.431 24.3234C16.431 23.239 17.3133 22.3566 18.3979 22.3566ZM14.5805 23.8949C14.4953 23.8505 14.4094 23.8075 14.3223 23.7667C14.4608 23.616 14.5871 23.4541 14.7005 23.2828C14.6446 23.481 14.6039 23.6852 14.5805 23.8949ZM9.52723 21.1696C9.52723 20.085 10.4095 19.2027 11.4941 19.2027C12.5787 19.2027 13.461 20.085 13.461 21.1696C13.461 22.2541 12.5787 23.1365 11.4941 23.1365C10.4095 23.1365 9.52723 22.2541 9.52723 21.1696ZM6.94289 28.2628C7.5907 26.352 9.39398 25.0116 11.4941 25.0116C13.0523 25.0116 14.4945 25.77 15.3875 27.0025C14.7422 27.3272 14.1567 27.7541 13.6516 28.2629H6.94289V28.2628ZM13.8466 31.4167C14.4942 29.5066 16.2963 28.1666 18.3953 28.1654H18.3977C18.3977 28.1654 18.3994 28.1654 18.4002 28.1654C20.4993 28.1665 22.3013 29.5066 22.9488 31.4167H13.8466Z" fill="#CC0444"/>
</svg>
