<svg width="60" height="60" viewBox="0 0 60 60" fill="none" xmlns="http://www.w3.org/2000/svg">
<g clip-path="url(#clip0_16_1386)">
<path d="M58.125 29.1373H55.5435C55.4156 24.9771 54.2763 20.922 52.2241 17.3211L58.7879 10.7573C59.0306 10.5146 59.1213 10.1587 59.0243 9.82945C58.9273 9.50016 58.6581 9.25031 58.3226 9.17801L54.9196 8.44465L55.6905 7.67367C56.6181 6.74625 56.6181 5.23711 55.6905 4.30969C54.7631 3.38227 53.254 3.38227 52.3266 4.30969L51.5555 5.08078L50.822 1.67766C50.7497 1.34215 50.4997 1.07297 50.1705 0.975938C49.8414 0.879141 49.4855 0.969609 49.2427 1.2123L42.679 7.77609C39.1215 5.7484 35.1204 4.6118 31.0124 4.46156V1.875C31.0124 1.35727 30.5926 0.9375 30.0749 0.9375C29.5571 0.9375 29.1374 1.35727 29.1374 1.875V4.4625C22.6828 4.69441 16.6479 7.31602 12.0568 11.9072C7.46566 16.4984 4.84418 22.5332 4.61215 28.9879H1.875C1.35727 28.9879 0.9375 29.4076 0.9375 29.9254C0.9375 30.4431 1.35727 30.8629 1.875 30.8629H4.61203C4.84395 37.3174 7.46555 43.3522 12.0567 47.9434C16.6124 52.4991 22.5895 55.1159 28.9879 55.3826V58.125C28.9879 58.6427 29.4076 59.0625 29.9254 59.0625C30.4431 59.0625 30.8629 58.6427 30.8629 58.125V55.3934C37.3738 55.1968 43.4664 52.5698 48.0929 47.9433C52.6486 43.3876 55.2653 37.4105 55.5321 31.0121H58.125C58.6427 31.0121 59.0625 30.5924 59.0625 30.0746C59.0625 29.5569 58.6427 29.1373 58.125 29.1373ZM53.6679 29.1373H49.6958C49.5526 25.5688 48.4398 22.1176 46.494 19.1524L49.2023 19.7361C49.268 19.7503 49.3342 19.7572 49.3999 19.7572C49.6459 19.7572 49.8852 19.6603 50.0629 19.4827L50.846 18.6995C52.5799 21.9036 53.5465 25.4756 53.6679 29.1373ZM30.0748 47.6879C20.2804 47.6879 12.3121 39.7196 12.3121 29.9252C12.3121 20.1308 20.2804 12.1625 30.0748 12.1625C33.9751 12.1625 37.7569 13.4466 40.8395 15.7966L39.3218 17.3143C39.0998 17.2352 38.8513 17.2403 38.6266 17.3399L36.6954 18.1976C35.7446 17.6597 34.7358 17.2413 33.6854 16.9495L32.9268 14.9789C32.7874 14.617 32.4396 14.3782 32.0518 14.3782H28.0976C27.7097 14.3782 27.362 14.617 27.2227 14.9789L26.4641 16.9495C25.4136 17.2413 24.4049 17.6596 23.454 18.1976L21.5228 17.3399C21.1684 17.1824 20.7537 17.2595 20.4793 17.5337L17.6834 20.3299C17.4091 20.6041 17.3321 21.0189 17.4895 21.3734L18.3471 23.3044C17.8091 24.2552 17.3907 25.2642 17.0991 26.3148L15.1287 27.0732C14.7667 27.2125 14.528 27.5603 14.528 27.9482V31.9025C14.528 32.2904 14.7668 32.6381 15.1287 32.7775L17.0988 33.5358C17.3907 34.587 17.809 35.5961 18.347 36.5469L17.4896 38.4775C17.3323 38.8318 17.4093 39.2467 17.6836 39.5209L20.4797 42.3169C20.7539 42.5911 21.1688 42.6682 21.5231 42.5108L23.4544 41.6531C24.4051 42.191 25.4141 42.6094 26.4643 42.9011L27.223 44.8718C27.3623 45.2337 27.71 45.4725 28.0979 45.4725H32.0522C32.4401 45.4725 32.7878 45.2337 32.9271 44.8718L33.6854 42.9018C34.7364 42.61 35.7456 42.1915 36.6964 41.6535L38.627 42.5108C38.9814 42.6681 39.3962 42.5911 39.6704 42.3169L42.4664 39.5208C42.7406 39.2466 42.8177 38.8318 42.6604 38.4773L41.8027 36.5461C42.3405 35.5952 42.7589 34.5865 43.0507 33.536L45.0213 32.7773C45.3832 32.638 45.622 32.2902 45.622 31.9024V27.948C45.622 27.5602 45.3832 27.2125 45.0213 27.0731L43.0513 26.3148C42.7594 25.2639 42.341 24.2546 41.803 23.3038L42.6604 21.3732C42.7601 21.1487 42.765 20.9002 42.686 20.6782L44.2037 19.1605C46.5538 22.2432 47.8377 26.025 47.8377 29.9252C47.8375 39.7195 39.8692 47.6879 30.0748 47.6879ZM29.3371 30.6629C29.7852 31.1111 30.3826 31.358 31.0192 31.358C31.6556 31.358 32.253 31.1112 32.7012 30.6629L36.0819 27.2822C36.4464 28.1093 36.6364 29.0058 36.6364 29.9252C36.6364 33.5433 33.6929 36.4868 30.0749 36.4868C26.4568 36.4868 23.5133 33.5433 23.5133 29.9252C23.5133 26.3072 26.4568 23.3637 30.0749 23.3637C30.9943 23.3637 31.8909 23.5538 32.718 23.9182L29.3373 27.2989C28.8892 27.7471 28.6423 28.3445 28.6423 28.9809C28.6421 29.6174 28.8889 30.2148 29.3371 30.6629ZM34.1164 22.5196C32.8814 21.8439 31.4993 21.4886 30.0748 21.4886C25.4228 21.4886 21.6382 25.2731 21.6382 29.9251C21.6382 34.5771 25.4228 38.3617 30.0748 38.3617C34.7268 38.3617 38.5113 34.5771 38.5113 29.9251C38.5113 28.5007 38.156 27.1185 37.4804 25.8836L39.8284 23.5356C39.8491 23.6476 39.8903 23.7564 39.9517 23.8561C40.5967 24.9035 41.0678 26.0398 41.3517 27.2333C41.4233 27.534 41.6385 27.7802 41.927 27.8912L43.7467 28.5916V31.2586L41.9264 31.9593C41.638 32.0702 41.4227 32.3163 41.3511 32.617C41.0672 33.81 40.5962 34.946 39.9512 35.9936C39.7891 36.2569 39.7672 36.583 39.8926 36.8655L40.685 38.6497L38.7994 40.5355L37.0159 39.7434C36.7332 39.6179 36.407 39.64 36.1438 39.802C35.0964 40.447 33.9601 40.9181 32.7664 41.2021C32.4657 41.2737 32.2195 41.4888 32.1086 41.7773L31.4081 43.597H28.7412L28.0405 41.7766C27.9295 41.4882 27.6834 41.273 27.3826 41.2014C26.1898 40.9175 25.0537 40.4466 24.0062 39.8016C23.7429 39.6394 23.4166 39.6176 23.1342 39.743L21.35 40.5354L19.4643 38.6496L20.2563 36.8661C20.3818 36.5836 20.3599 36.2573 20.1977 35.994C19.5529 34.9467 19.0818 33.8105 18.7977 32.6166C18.7261 32.3159 18.5109 32.0696 18.2224 31.9587L16.4027 31.2582V28.5913L18.2228 27.8907C18.5113 27.7798 18.7264 27.5336 18.798 27.2329C19.0819 26.0396 19.5529 24.9036 20.198 23.8562C20.36 23.5929 20.382 23.2666 20.2566 22.9841L19.4643 21.2002L21.35 19.3143L23.1342 20.1067C23.4166 20.2322 23.743 20.2103 24.0062 20.0482C25.0537 19.4032 26.1898 18.9322 27.3827 18.6483C27.6834 18.5767 27.9295 18.3615 28.0405 18.073L28.7412 16.2527H31.408L32.1087 18.073C32.2196 18.3614 32.4657 18.5767 32.7664 18.6483C33.9594 18.9322 35.0954 19.4032 36.1429 20.0482C36.2427 20.1097 36.3517 20.1507 36.4638 20.1715L34.1164 22.5196ZM56.2452 10.6484L49.0979 17.7956L46.1941 17.1698L53.3414 10.0226L56.2452 10.6484ZM53.6522 5.63543C53.7488 5.53887 53.8786 5.4907 54.0084 5.4907C54.1383 5.4907 54.2681 5.53898 54.3647 5.63543C54.5577 5.82844 54.5577 6.1548 54.3647 6.34781L31.3753 29.3371C31.2484 29.464 31.0977 29.4829 31.0191 29.4829C30.9404 29.4829 30.7897 29.4639 30.6628 29.337C30.5359 29.2102 30.517 29.0593 30.517 28.9808C30.517 28.9023 30.536 28.7515 30.6628 28.6246L53.6522 5.63543ZM49.3515 3.7548L49.9774 6.65871L42.8303 13.8059L42.2045 10.9021L49.3515 3.7548ZM41.3006 9.1541L40.5175 9.93727C40.2923 10.1624 40.1968 10.4864 40.2639 10.7977L40.8476 13.5059C37.9239 11.5871 34.5277 10.4782 31.0123 10.3103V6.33797C34.6218 6.48047 38.1402 7.44363 41.3006 9.1541ZM29.1373 6.33902V10.3104C19.0534 10.7868 10.9363 18.9039 10.4599 28.9877H6.48855C6.97043 16.7153 16.8648 6.8209 29.1373 6.33902ZM6.48855 30.8627H10.4599C10.9339 40.8967 18.9734 48.9832 28.9877 49.5322V53.5056C16.7844 52.9498 6.96855 43.0854 6.48855 30.8627ZM30.8627 53.5171V49.5457C40.9656 49.1448 49.13 41.0762 49.6819 31.0123H53.6552C53.097 43.2653 43.1544 53.1117 30.8627 53.5171Z" fill="#CC0444"/>
</g>
<defs>
<clipPath id="clip0_16_1386">
<rect width="60" height="60" fill="white"/>
</clipPath>
</defs>
</svg>
