<svg width="60" height="60" viewBox="0 0 60 60" fill="none" xmlns="http://www.w3.org/2000/svg">
<path d="M36.8766 8.25282C34.6959 6.29907 31.7578 5.36813 28.8281 5.69063C24.0309 6.22032 20.2078 10.0959 19.7381 14.9063C19.4063 18.3028 20.7647 21.6375 23.3691 23.8256C24.0084 24.3619 24.375 25.1447 24.375 25.9734V28.125C24.375 28.6434 24.7941 29.0625 25.3125 29.0625H34.6875C35.2059 29.0625 35.625 28.6434 35.625 28.125V25.9734C35.625 25.1409 35.9812 24.3666 36.6028 23.8472C38.9606 21.8822 40.3125 18.9994 40.3125 15.9375C40.3125 13.0088 39.06 10.2075 36.8766 8.25282ZM35.4019 22.4081C34.3519 23.2847 33.75 24.5841 33.75 25.9734V27.1875H26.25V25.9734C26.25 24.5897 25.6397 23.2838 24.5756 22.3894C22.4438 20.5988 21.3328 17.8697 21.6038 15.0881C21.9881 11.1563 25.1128 7.98751 29.0344 7.55438C31.4756 7.28344 33.8156 8.02876 35.6259 9.64969C37.4128 11.2491 38.4375 13.5413 38.4375 15.9375C38.4375 18.4416 37.3303 20.8003 35.4019 22.4081Z" fill="#CC0444"/>
<path d="M25.3125 30H34.6875V31.875H25.3125V30Z" fill="#CC0444"/>
<path d="M27.1875 32.8125C26.6691 32.8125 26.25 33.2316 26.25 33.75C26.25 35.8181 27.9319 37.5 30 37.5C32.0681 37.5 33.75 35.8181 33.75 33.75C33.75 33.2316 33.3309 32.8125 32.8125 32.8125H27.1875ZM30 35.625C29.3072 35.625 28.7006 35.2481 28.3772 34.6875H31.6237C31.2994 35.2481 30.6928 35.625 30 35.625Z" fill="#CC0444"/>
<path d="M29.0625 0.9375H30.9375V3.75H29.0625V0.9375Z" fill="#CC0444"/>
<path d="M42.1875 15H45V16.875H42.1875V15Z" fill="#CC0444"/>
<path d="M15 15H17.8125V16.875H15V15Z" fill="#CC0444"/>
<path d="M37.9483 25.2202L39.2742 23.8943L41.2629 25.8831L39.9371 27.2089L37.9483 25.2202Z" fill="#CC0444"/>
<path d="M18.7282 5.99579L20.054 4.66996L22.0428 6.6587L20.7169 7.98453L18.7282 5.99579Z" fill="#CC0444"/>
<path d="M37.9505 6.66071L39.9392 4.67197L41.265 5.99779L39.2763 7.98653L37.9505 6.66071Z" fill="#CC0444"/>
<path d="M18.7261 25.8809L20.7148 23.8921L22.0407 25.2179L20.0519 27.2067L18.7261 25.8809Z" fill="#CC0444"/>
<path d="M34.8291 12.9666L32.0841 12.5475L30.8484 9.91406C30.6938 9.58594 30.3638 9.375 30 9.375C29.6363 9.375 29.3063 9.58594 29.1516 9.91406L27.9159 12.5475L25.1709 12.9666C24.8241 13.02 24.5353 13.2619 24.4238 13.5956C24.3122 13.9294 24.3966 14.2959 24.6413 14.5481L26.6541 16.6116L26.1769 19.5366C26.1188 19.8909 26.2697 20.2472 26.5622 20.4544C26.8556 20.6616 27.2438 20.6822 27.5559 20.5087L30 19.1578L32.4431 20.5078C32.5847 20.5866 32.7413 20.625 32.8969 20.625C33.0863 20.625 33.2756 20.5669 33.4369 20.4534C33.7294 20.2462 33.8803 19.89 33.8222 19.5356L33.345 16.6106L35.3578 14.5472C35.6034 14.295 35.6878 13.9284 35.5753 13.5947C35.4628 13.2609 35.1759 13.02 34.8291 12.9666ZM31.6725 15.6413C31.4644 15.855 31.3706 16.1531 31.4184 16.4466L31.6613 17.9334L30.4538 17.2659C30.3131 17.1881 30.1575 17.1487 30.0009 17.1487C29.8444 17.1487 29.6888 17.1881 29.5481 17.2659L28.3406 17.9334L28.5834 16.4466C28.6313 16.1531 28.5366 15.8541 28.3294 15.6413L27.2597 14.5453L28.695 14.3259C29.0034 14.2791 29.2688 14.0803 29.4019 13.7981L30 12.5194L30.6 13.7972C30.7331 14.0803 30.9984 14.2791 31.3069 14.325L32.7422 14.5444L31.6725 15.6413Z" fill="#CC0444"/>
<path d="M44.0625 48.75V38.4375C44.0625 37.4034 43.2216 36.5625 42.1875 36.5625H39.375C38.3409 36.5625 37.5 37.4034 37.5 38.4375V47.8125C37.5 48.33 37.08 48.75 36.5625 48.75H34.1812C35.0756 47.7534 35.625 46.4419 35.625 45C35.625 41.8978 33.1022 39.375 30 39.375C26.8978 39.375 24.375 41.8978 24.375 45C24.375 46.4419 24.9244 47.7534 25.8188 48.75H23.4375C22.92 48.75 22.5 48.33 22.5 47.8125V38.4375C22.5 37.4034 21.6591 36.5625 20.625 36.5625H17.8125C16.7784 36.5625 15.9375 37.4034 15.9375 38.4375V48.75C15.9375 52.3678 18.8822 55.3125 22.5 55.3125V59.0625H24.375V54.375C24.375 53.8566 23.9559 53.4375 23.4375 53.4375H22.5C19.9153 53.4375 17.8125 51.3347 17.8125 48.75V38.4375H20.625V47.8125C20.625 49.3631 21.8869 50.625 23.4375 50.625H36.5625C38.1131 50.625 39.375 49.3631 39.375 47.8125V38.4375H42.1875V48.75C42.1875 51.3347 40.0847 53.4375 37.5 53.4375H36.5625C36.0441 53.4375 35.625 53.8566 35.625 54.375V59.0625H37.5V55.3125C41.1178 55.3125 44.0625 52.3678 44.0625 48.75ZM26.25 45C26.25 42.9319 27.9319 41.25 30 41.25C32.0681 41.25 33.75 42.9319 33.75 45C33.75 47.0681 32.0681 48.75 30 48.75C27.9319 48.75 26.25 47.0681 26.25 45Z" fill="#CC0444"/>
<path d="M6.5625 40.3125H8.4375C8.79281 40.3125 9.11719 40.1119 9.27656 39.7941C9.435 39.4763 9.40125 39.0966 9.1875 38.8125L6.375 35.0625C6.02156 34.59 5.22843 34.59 4.875 35.0625L2.0625 38.8125C1.84875 39.0966 1.815 39.4763 1.97343 39.7941C2.13281 40.1119 2.45718 40.3125 2.8125 40.3125H4.6875V55.3125H6.5625V40.3125ZM5.625 37.1878L6.5625 38.4375H4.6875L5.625 37.1878Z" fill="#CC0444"/>
<path d="M4.6875 57.1875H6.5625V59.0625H4.6875V57.1875Z" fill="#CC0444"/>
<path d="M55.125 35.0625C54.7716 34.59 53.9784 34.59 53.625 35.0625L50.8125 38.8125C50.5987 39.0966 50.565 39.4763 50.7234 39.7941C50.8828 40.1119 51.2072 40.3125 51.5625 40.3125H53.4375V55.3125H55.3125V40.3125H57.1875C57.5428 40.3125 57.8672 40.1119 58.0266 39.7941C58.185 39.4763 58.1512 39.0966 57.9375 38.8125L55.125 35.0625ZM53.4375 38.4375L54.375 37.1878L55.3125 38.4375H53.4375Z" fill="#CC0444"/>
<path d="M53.4375 57.1875H55.3125V59.0625H53.4375V57.1875Z" fill="#CC0444"/>
</svg>
