<svg width="60" height="60" viewBox="0 0 60 60" fill="none" xmlns="http://www.w3.org/2000/svg">
<g clip-path="url(#clip0_16_1344)">
<path d="M34.293 25.293L27 32.586L25.707 31.293C25.3146 30.914 24.6909 30.9194 24.3052 31.3052C23.9195 31.6909 23.914 32.3146 24.293 32.707L26.293 34.707C26.6835 35.0974 27.3165 35.0974 27.707 34.707L35.707 26.707C36.086 26.3146 36.0806 25.6909 35.6948 25.3052C35.3091 24.9194 34.6854 24.914 34.293 25.293Z" fill="#0195FF"/>
<path d="M46 32C45.951 32 45.908 32 45.861 32C46.5151 27.0914 44.8449 22.1583 41.3433 18.6567C37.8417 15.1551 32.9086 13.4849 28 14.139C28 14.092 28 14.049 28 14C28.0089 7.46319 23.493 1.79027 17.1207 0.333182C10.7483 -1.12391 4.21583 2.0227 1.38298 7.91378C-1.44987 13.8049 0.171052 20.8722 5.288 24.94C5.304 24.957 5.327 24.966 5.344 24.982C6.6149 25.989 8.05132 26.7673 9.589 27.282C9.609 27.291 9.63 27.297 9.651 27.305C11.0547 27.7657 12.5227 28.0003 14 28H14.139C13.4849 32.9086 15.1551 37.8417 18.6567 41.3433C22.1583 44.8449 27.0914 46.5151 32 45.861V46C32.0021 50.2623 33.9493 54.2905 37.288 56.94C37.304 56.957 37.327 56.966 37.344 56.982C38.6149 57.9891 40.0513 58.7673 41.589 59.282C41.609 59.291 41.63 59.297 41.651 59.305C44.4758 60.2388 47.5262 60.2388 50.351 59.305C50.372 59.297 50.393 59.291 50.413 59.282C51.9505 58.7675 53.3866 57.9892 54.657 56.982C54.675 56.966 54.698 56.957 54.714 56.94C59.375 53.2383 61.1828 46.9924 59.2195 41.3735C57.2563 35.7545 51.9521 31.9935 46 32ZM46 48C44.3695 48.0096 42.8378 47.2196 41.9003 45.8856C40.9629 44.5515 40.7386 42.8428 41.3 41.312C42.0739 40.5355 42.7662 39.6817 43.366 38.764C44.1539 38.265 45.0674 38 46 38C48.7614 38 51 40.2386 51 43C51 45.7614 48.7614 48 46 48ZM2 14C2 7.37258 7.37258 1.99999 14 1.99999C20.6274 1.99999 26 7.37258 26 14C26 14.187 25.994 14.36 25.987 14.53C23.8745 15.0786 21.8972 16.0554 20.178 17.4C19.6386 16.9926 19.0418 16.6674 18.407 16.435C20.7113 14.5689 21.5898 11.4534 20.5999 8.65838C19.6101 5.86335 16.9666 3.99518 14.0015 3.99518C11.0364 3.99518 8.39291 5.86335 7.40306 8.65838C6.41322 11.4534 7.29175 14.5689 9.596 16.435C7.18465 17.3223 5.45186 19.4576 5.08 22C3.09845 19.8065 2.00099 16.956 2 14ZM9 11C9 8.23857 11.2386 5.99999 14 5.99999C16.7614 5.99999 19 8.23857 19 11C19 13.7614 16.7614 16 14 16C11.2399 15.9967 9.00331 13.76 9 11ZM14 26C12.9873 25.9962 11.9792 25.8635 11 25.605V23C11 22.4477 10.5523 22 10 22C9.44772 22 9 22.4477 9 23V24.9C8.29723 24.5761 7.62745 24.1849 7 23.732V23C7.00331 20.2399 9.23995 18.0033 12 18H16C16.9311 17.9991 17.8434 18.2623 18.631 18.759C16.6511 20.7648 15.2367 23.2584 14.531 25.987C14.359 25.994 14.186 26 14 26ZM16 30C16 22.268 22.268 16 30 16C37.732 16 44 22.268 44 30C44 37.732 37.732 44 30 44C22.2714 43.9917 16.0083 37.7286 16 30ZM34 46C34 45.813 34.006 45.64 34.013 45.47C35.7981 45.0123 37.49 44.2475 39.013 43.21C39.0732 45.245 40.0178 47.1527 41.6 48.434C39.1868 49.3203 37.4522 51.4563 37.08 54C35.0985 51.8065 34.001 48.956 34 46ZM43 57.6V55C43 54.4477 42.5523 54 42 54C41.4477 54 41 54.4477 41 55V56.9C40.2972 56.5761 39.6275 56.1849 39 55.732V55C39.0033 52.2399 41.24 50.0033 44 50H48C50.7601 50.0033 52.9967 52.2399 53 55V55.727C52.3728 56.1816 51.703 56.5745 51 56.9V55C51 54.4477 50.5523 54 50 54C49.4477 54 49 54.4477 49 55V57.6C47.0347 58.1267 44.9653 58.1267 43 57.6ZM54.92 54C54.5478 51.4563 52.8132 49.3203 50.4 48.434C52.6987 46.5674 53.5742 43.4563 52.5864 40.6648C51.5985 37.8733 48.9611 36.0054 46 36C45.5903 36.0033 45.1817 36.0431 44.779 36.119C45.0579 35.4339 45.2888 34.7302 45.47 34.013C45.641 34.006 45.814 34 46 34C50.7362 33.9919 55.0326 36.7748 56.9617 41.1002C58.8909 45.4257 58.0906 50.4817 54.92 54Z" fill="#0195FF"/>
<path d="M35.707 1.29297C35.3165 0.902588 34.6835 0.902588 34.293 1.29297L31.293 4.29297C30.9026 4.68347 30.9026 5.31647 31.293 5.70697L34.293 8.70697C34.6854 9.08594 35.3091 9.08052 35.6948 8.69479C36.0806 8.30905 36.086 7.68535 35.707 7.29297L34.463 6.04897C47.1181 6.83575 56.9838 17.3205 57 30C57 30.5523 57.4477 31 58 31C58.5523 31 59 30.5523 59 30C58.9836 16.1823 48.1744 4.78485 34.377 4.03697L35.707 2.70697C36.0974 2.31647 36.0974 1.68347 35.707 1.29297Z" fill="#0195FF"/>
<path d="M3 30C3 29.4477 2.55228 29 2 29C1.44771 29 0.999999 29.4477 0.999999 30C1.01637 43.8177 11.8256 55.2151 25.623 55.963L24.293 57.293C24.033 57.5441 23.9288 57.9159 24.0203 58.2655C24.1118 58.6151 24.3849 58.8882 24.7345 58.9797C25.0841 59.0712 25.4559 58.967 25.707 58.707L28.707 55.707C29.0974 55.3165 29.0974 54.6835 28.707 54.293L25.707 51.293C25.3146 50.914 24.6909 50.9194 24.3052 51.3052C23.9194 51.6909 23.914 52.3146 24.293 52.707L25.537 53.951C12.8819 53.1642 3.0162 42.6795 3 30Z" fill="#0195FF"/>
</g>
<defs>
<clipPath id="clip0_16_1344">
<rect width="60" height="60" fill="white"/>
</clipPath>
</defs>
</svg>
