<svg width="60" height="60" viewBox="0 0 60 60" fill="none" xmlns="http://www.w3.org/2000/svg">
<path d="M44.844 17.3706C40.2121 14.6467 35.184 13.2187 30 13.2187C12.3441 13.2187 2.49712 29.6364 2.136 29.9827C2.53712 30.3673 11.8251 46.7587 30 46.7587C47.656 46.7587 57.5556 30.2784 57.864 29.9827C57.3088 29.3273 53.3745 22.3743 44.844 17.3706ZM30 42.0907C23.328 42.0907 17.904 36.6667 17.904 29.9947C17.904 23.3227 23.328 17.8986 30 17.8986C36.672 17.8986 42.096 23.3227 42.096 29.9947C42.096 36.6667 36.672 42.0907 30 42.0907Z" fill="#0195FF"/>
<path d="M32.6005 27.3768C30.7703 25.5465 31.2829 23.4024 31.2001 22.7889H30.0001C26.0298 22.7889 22.8001 26.0186 22.8001 29.9889C22.8001 33.8912 26.0978 37.1889 30.0001 37.1889C33.9704 37.1889 37.2001 33.9592 37.2001 29.9889V28.7889C36.5738 28.7037 34.4378 29.2117 32.6005 27.3768Z" fill="#0195FF"/>
<path d="M28.7964 4.81921H31.1964V9.65401H28.7964V4.81921Z" fill="#0195FF"/>
<path d="M45.9247 12.3928L49.3443 8.97319L51.0413 10.6702L47.6218 14.0898L45.9247 12.3928Z" fill="#0195FF"/>
<path d="M8.94547 10.6658L10.6425 8.96872L14.0612 12.3874L12.3642 14.0845L8.94547 10.6658Z" fill="#0195FF"/>
<path d="M28.7964 50.3448H31.1964V55.1808H28.7964V50.3448Z" fill="#0195FF"/>
<path d="M8.936 49.3373L12.3547 45.9186L14.0518 47.6157L10.6331 51.0344L8.936 49.3373Z" fill="#0195FF"/>
<path d="M45.92 47.6115L47.6171 45.9144L51.0367 49.334L49.3396 51.031L45.92 47.6115Z" fill="#0195FF"/>
</svg>
