<svg width="60" height="60" viewBox="0 0 60 60" fill="none" xmlns="http://www.w3.org/2000/svg">
<g clip-path="url(#clip0_16_1324)">
<path d="M43.5865 48.9043H32.2876L31.1054 47.7221L34.072 44.7555C34.3979 44.4295 34.534 43.9659 34.4358 43.5155C34.3376 43.0651 34.0211 42.7003 33.5892 42.5396L18.1042 36.7766C17.5607 36.5742 16.9678 36.7032 16.5575 37.1137C16.1473 37.524 16.0181 38.1167 16.2205 38.6604L20.033 48.9043H4.50773C2.99133 48.9043 1.75781 47.6708 1.75781 46.1545V27.1945C1.75781 26.709 1.36441 26.3156 0.878906 26.3156C0.393398 26.3156 0 26.709 0 27.1945V46.1545C0 48.6401 2.02219 50.6623 4.50773 50.6623H20.6872L21.9834 54.1452C22.1441 54.5774 22.509 54.8939 22.9595 54.9921C23.4098 55.0904 23.8737 54.9542 24.1993 54.6283L27.1659 51.6619L30.1859 54.6818C30.4714 54.9673 30.8464 55.1098 31.2214 55.1098C31.5966 55.1098 31.9717 54.967 32.2573 54.6817L34.1254 52.8137C34.6963 52.2425 34.6962 51.3132 34.1252 50.7422C34.1252 50.7422 34.1252 50.7422 34.1251 50.7422L34.0454 50.6625H43.5864C44.0719 50.6625 44.4653 50.2691 44.4653 49.7836C44.4653 49.2981 44.0719 48.9043 43.5865 48.9043ZM31.2216 53.2311L27.7875 49.7971C27.6158 49.6255 27.3909 49.5397 27.1659 49.5397C26.9411 49.5397 26.7161 49.6255 26.5444 49.7971L23.408 52.9335L18.0912 38.6474L32.3771 43.9643L29.2407 47.1007C28.8975 47.444 28.8975 48.0005 29.2409 48.3437L32.6749 51.7776L31.2216 53.2311Z" fill="#0195FF"/>
<path d="M55.4923 4.89044H52.4194C51.9339 4.89044 51.5405 5.28384 51.5405 5.76935C51.5405 6.25486 51.9339 6.64825 52.4194 6.64825H55.4923C57.0086 6.64825 58.2422 7.88177 58.2422 9.39818V14.9049H1.75781V9.39818C1.75781 7.88189 2.99133 6.64825 4.50773 6.64825H48.3545C48.84 6.64825 49.2334 6.25486 49.2334 5.76935C49.2334 5.28384 48.84 4.89044 48.3545 4.89044H4.50773C2.02219 4.89044 0 6.91263 0 9.39818V23.2394C0 23.7249 0.393398 24.1183 0.878906 24.1183C1.36441 24.1183 1.75781 23.7249 1.75781 23.2394V16.6629H58.2422V46.1545C58.2422 47.6708 57.0087 48.9044 55.4923 48.9044H47.7979C47.3123 48.9044 46.9189 49.2978 46.9189 49.7833C46.9189 50.2688 47.3123 50.6622 47.7979 50.6622H55.4923C57.9778 50.6622 60 48.6401 60 46.1545V9.39818C60 6.91263 57.9778 4.89044 55.4923 4.89044Z" fill="#0195FF"/>
<path d="M5.82399 10.7767C5.82399 11.6758 6.5529 12.4047 7.45196 12.4047C8.35102 12.4047 9.07993 11.6758 9.07993 10.7767C9.07993 9.87747 8.35102 9.14868 7.45196 9.14868C6.5529 9.14868 5.82399 9.87747 5.82399 10.7767Z" fill="#0195FF"/>
<path d="M10.8321 10.7767C10.8321 11.6758 11.561 12.4047 12.4601 12.4047C13.3591 12.4047 14.088 11.6758 14.088 10.7767C14.088 9.87747 13.3591 9.14868 12.4601 9.14868C11.561 9.14868 10.8321 9.87747 10.8321 10.7767Z" fill="#0195FF"/>
<path d="M15.8402 10.7767C15.8402 11.6758 16.5691 12.4047 17.4682 12.4047C18.3673 12.4047 19.0962 11.6758 19.0962 10.7767C19.0962 9.87747 18.3673 9.14868 17.4682 9.14868C16.5691 9.14868 15.8402 9.87747 15.8402 10.7767Z" fill="#0195FF"/>
<path d="M10.7588 36.0128H10.7638C11.1353 36.0128 11.4669 35.7792 11.5916 35.429L13.7687 29.3198L15.849 35.4179C15.97 35.7724 16.3025 36.0113 16.6772 36.013H16.6808C17.0541 36.013 17.3866 35.7772 17.5103 35.4247L20.4615 27.0052C20.6221 26.5473 20.3809 26.0457 19.9227 25.885C19.465 25.7245 18.9632 25.9657 18.8025 26.4239L16.692 32.4448L14.6187 26.3669C14.3836 25.5945 13.204 25.5874 12.959 26.3557L10.7788 32.4734L8.70505 26.4386C8.54731 25.9795 8.04739 25.7349 7.58825 25.8931C7.12922 26.0508 6.88489 26.5509 7.04274 27.0099L9.93258 35.4195C10.0539 35.7727 10.3853 36.0106 10.7588 36.0128Z" fill="#0195FF"/>
<path d="M27.0205 36.0129H27.0255C27.397 36.0129 27.7287 35.7792 27.8534 35.4291L30.0305 29.3198L32.1108 35.4179C32.2317 35.7724 32.5643 36.0114 32.9389 36.013H32.9426C33.3158 36.013 33.6484 35.7772 33.772 35.4247L36.7233 27.0053C36.8838 26.5473 36.6427 26.0457 36.1844 25.8851C35.7267 25.7245 35.2249 25.9657 35.0643 26.4239L32.9537 32.4449L30.8804 26.3669C30.6452 25.5944 29.4657 25.5874 29.2207 26.3557L27.0405 32.4735L24.9668 26.4388C24.8091 25.9796 24.3089 25.7351 23.85 25.8933C23.391 26.051 23.1466 26.551 23.3045 27.0101L26.1943 35.4197C26.3157 35.7728 26.6471 36.0107 27.0205 36.0129Z" fill="#0195FF"/>
<path d="M43.0186 36.0128H43.0235C43.395 36.0128 43.7266 35.7792 43.8513 35.429L46.0284 29.3198L48.1087 35.4179C48.2297 35.7724 48.5623 36.0113 48.9369 36.013H48.9405C49.3138 36.013 49.6464 35.7772 49.77 35.4247L52.7211 27.0052C52.8817 26.5473 52.6405 26.0457 52.1823 25.885C51.7244 25.7245 51.2228 25.9657 51.0621 26.4239L48.9517 32.4448L46.8784 26.3669C46.6434 25.5945 45.4636 25.5874 45.2187 26.3557L43.0385 32.4734L40.9646 26.4387C40.8069 25.9797 40.3076 25.7353 39.8478 25.8932C39.3888 26.051 39.1445 26.551 39.3023 27.01L42.1923 35.4196C42.3137 35.7727 42.645 36.0106 43.0186 36.0128Z" fill="#0195FF"/>
</g>
<defs>
<clipPath id="clip0_16_1324">
<rect width="60" height="60" fill="white"/>
</clipPath>
</defs>
</svg>
