<svg width="60" height="60" viewBox="0 0 60 60" fill="none" xmlns="http://www.w3.org/2000/svg">
<path d="M36.0909 35.9455C35.1455 35 33.6091 35 32.6727 35.9455L23.1545 45.4636C20.7818 47.8364 17.0182 48.0273 14.5818 45.9C13.2364 44.7182 12.4636 43.0182 12.4636 41.2364C12.4636 39.5909 13.1 38.0364 14.2727 36.8727L23.9364 27.2091C24.8818 26.2636 24.8818 24.7273 23.9364 23.7909L19.3909 19.2455C18.4727 18.3273 16.8818 18.3273 15.9727 19.2455L12.7727 22.4455L6.04545 29.1727C-0.754549 35.9727 -0.754549 47.0455 6.05454 53.8546C9.45454 57.2546 13.9273 58.9546 18.3909 58.9546C22.8545 58.9546 27.3273 57.2546 30.7273 53.8546L37.4545 47.1273L40.6545 43.9273C41.1091 43.4727 41.3636 42.8636 41.3636 42.2182C41.3636 41.5727 41.1091 40.9636 40.6545 40.5091L36.0909 35.9455ZM16.9091 20.1727C17.1182 19.9636 17.4 19.8546 17.6818 19.8546C17.9636 19.8546 18.2364 19.9636 18.4455 20.1727L22.9909 24.7182C23.4182 25.1455 23.4182 25.8273 22.9909 26.2546L20.2545 28.9909L14.1727 22.9091L16.9091 20.1727ZM29.7727 52.9C23.4909 59.1818 13.2636 59.1818 6.97272 52.8909C0.690906 46.6091 0.690906 36.3818 6.97272 30.1L13.2273 23.8455L19.3091 29.9273L13.3182 35.9182C11.9 37.3364 11.1182 39.2273 11.1182 41.2273C11.1182 43.4 12.0545 45.4636 13.6909 46.8909C16.6455 49.4818 21.2091 49.2636 24.0818 46.3909L29.9273 40.5455L36.0091 46.6273L29.7727 52.9ZM39.7 42.9727L36.9636 45.7091L30.8818 39.6273L33.6182 36.8909C34.0455 36.4636 34.7364 36.4727 35.1545 36.8909L39.7 41.4364C40.1273 41.8546 40.1273 42.5455 39.7 42.9727Z" fill="#0195FF"/>
<path d="M29.0273 21.5273C32.4182 21.5273 35.5818 19.8546 37.4909 17.0455C38.6455 15.3273 39.2636 13.3364 39.2636 11.2909C39.2636 5.64547 34.6727 1.05457 29.0273 1.05457C23.3818 1.05457 18.7909 5.64547 18.7909 11.2909C18.7909 13.3455 19.4 15.3364 20.5636 17.0455C22.4727 19.8455 25.6364 21.5273 29.0273 21.5273ZM29.0273 20.1909C26.2364 20.1909 23.6364 18.8727 21.9545 16.6727C23.6091 14.4909 26.1727 13.1818 28.9273 13.1546C28.9636 13.1546 28.9909 13.1637 29.0273 13.1637C29.0636 13.1637 29.0909 13.1546 29.1273 13.1546C31.8818 13.1818 34.4455 14.4909 36.1 16.6727C34.4182 18.8727 31.8182 20.1909 29.0273 20.1909ZM26.3545 10.4091C25.9909 9.86366 25.7909 9.23638 25.7909 8.59093C25.7909 6.80911 27.2455 5.35457 29.0273 5.35457C30.8091 5.35457 32.2636 6.80911 32.2636 8.59093C32.2636 9.23638 32.0727 9.87275 31.7 10.4091C31.1091 11.2727 30.1364 11.7909 29.0909 11.8182C29.0727 11.8182 29.0455 11.8182 29.0273 11.8182C29.0091 11.8182 28.9818 11.8182 28.9636 11.8182C27.9091 11.7909 26.9364 11.2727 26.3545 10.4091ZM29.0273 2.38184C33.9364 2.38184 37.9273 6.37275 37.9273 11.2818C37.9273 12.7546 37.5455 14.1818 36.8545 15.4727C35.5273 13.8818 33.7636 12.7546 31.8 12.2C32.1818 11.9091 32.5273 11.5546 32.8 11.1455C33.3182 10.3818 33.5909 9.49093 33.5909 8.58184C33.5909 6.06366 31.5455 4.0182 29.0273 4.0182C26.5091 4.0182 24.4545 6.07275 24.4545 8.59093C24.4545 9.50911 24.7273 10.3909 25.2455 11.1637C25.5273 11.5727 25.8636 11.9182 26.2455 12.2091C24.2818 12.7637 22.5182 13.8909 21.1909 15.4818C20.5 14.1909 20.1182 12.7637 20.1182 11.2909C20.1182 6.38184 24.1182 2.38184 29.0273 2.38184Z" fill="#0195FF"/>
<path d="M50.1636 23.5818C45.2545 23.5818 41.2636 27.5728 41.2636 32.4818C41.2636 34.2637 41.8 36 42.8 37.4909C44.4636 39.9273 47.2091 41.3818 50.1636 41.3818C53.1091 41.3818 55.8636 39.9273 57.5273 37.4818C58.5364 35.9909 59.0636 34.2637 59.0636 32.4728C59.0727 27.5728 55.0727 23.5818 50.1636 23.5818ZM42.6 32.4818C42.6 28.3091 45.9909 24.9091 50.1727 24.9091C54.3545 24.9091 57.7455 28.3091 57.7455 32.4818C57.7455 33.6818 57.4455 34.8546 56.9091 35.9182C55.8 34.6364 54.3636 33.7182 52.7636 33.2364C53.0455 33 53.3 32.7273 53.5091 32.4182C53.9636 31.7455 54.2 30.9637 54.2 30.1546C54.2 27.9364 52.4 26.1364 50.1818 26.1364C47.9636 26.1364 46.1636 27.9364 46.1636 30.1546C46.1636 30.9637 46.4 31.7455 46.8636 32.4182C47.0727 32.7273 47.3273 33 47.6091 33.2364C46.0091 33.7273 44.5727 34.6455 43.4636 35.9273C42.9 34.8637 42.6 33.6909 42.6 32.4818ZM50.1636 32.8455C50.1455 32.8455 50.1273 32.8455 50.1091 32.8455C49.2364 32.8273 48.4364 32.4 47.9455 31.6818C47.6455 31.2273 47.4818 30.7091 47.4818 30.1637C47.4818 28.6818 48.6909 27.4728 50.1727 27.4728C51.6545 27.4728 52.8636 28.6818 52.8636 30.1637C52.8636 30.7 52.7 31.2273 52.4 31.6728C51.9091 32.3909 51.1 32.8273 50.2273 32.8455C50.2091 32.8455 50.1909 32.8455 50.1636 32.8455ZM50.1636 40.0546C47.8182 40.0546 45.6182 38.9546 44.1909 37.1182C45.6 35.2909 47.7545 34.2091 50.0727 34.1818C50.1 34.1818 50.1273 34.1909 50.1545 34.1909C50.1818 34.1909 50.2091 34.1818 50.2364 34.1818C52.5545 34.2091 54.7091 35.3 56.1182 37.1182C54.7091 38.9637 52.5182 40.0546 50.1636 40.0546Z" fill="#0195FF"/>
<path d="M43.6182 17.1636C45.0182 18.9909 47.1545 20.0454 49.4636 20.0454C51.7727 20.0454 53.9091 18.9909 55.3182 17.1545C55.4091 17.0364 55.4818 16.9273 55.5545 16.8182C56.3909 15.5818 56.8364 14.1545 56.8364 12.6818C56.8364 8.61817 53.5273 5.30908 49.4636 5.30908C45.4 5.30908 42.0909 8.61817 42.0909 12.6818C42.0909 14.1545 42.5364 15.5909 43.3636 16.8182C43.4455 16.9364 43.5273 17.0454 43.6182 17.1636ZM49.4636 18.7182C47.7455 18.7182 46.1545 18.0091 45.0182 16.7636C46.1636 15.5182 47.7545 14.8091 49.4636 14.8091C51.1727 14.8091 52.7636 15.5182 53.9091 16.7636C52.7636 18.0091 51.1818 18.7182 49.4636 18.7182ZM51.1727 12.5727C50.7909 13.1364 50.1455 13.4727 49.4636 13.4727C48.7818 13.4727 48.1364 13.1364 47.7545 12.5727C47.5182 12.2273 47.3909 11.8182 47.3909 11.4091C47.3909 10.2727 48.3182 9.34545 49.4545 9.34545C50.5909 9.34545 51.5182 10.2727 51.5182 11.4091C51.5273 11.8273 51.4091 12.2273 51.1727 12.5727ZM49.4636 6.64545C52.7909 6.64545 55.5 9.35454 55.5 12.6909C55.5 13.7364 55.2091 14.7454 54.6909 15.6636C53.8727 14.8364 52.8909 14.2273 51.8 13.8727C51.9727 13.7091 52.1273 13.5273 52.2636 13.3273C52.6455 12.7545 52.8545 12.1 52.8545 11.4182C52.8545 9.54545 51.3273 8.01817 49.4545 8.01817C47.5818 8.01817 46.0545 9.54545 46.0545 11.4182C46.0545 12.1 46.2545 12.7636 46.6455 13.3273C46.7818 13.5273 46.9364 13.7 47.1091 13.8636C46.0273 14.2273 45.0364 14.8364 44.2182 15.6636C43.7 14.7545 43.4091 13.7364 43.4091 12.6909C43.4273 9.35454 46.1364 6.64545 49.4636 6.64545Z" fill="#0195FF"/>
<path d="M30.5636 34.1273C30.6455 34.1637 30.7364 34.1819 30.8182 34.1819C31.0818 34.1819 31.3273 34.0273 31.4364 33.7728L33.2364 29.4637C33.3182 29.2546 33.3 29.0273 33.1727 28.8364C33.0455 28.6546 32.8455 28.5364 32.6182 28.5364H29.9909L31.2455 25.291C31.3818 24.9455 31.2091 24.5637 30.8636 24.4273C30.5182 24.291 30.1364 24.4637 30 24.8091L28.4 28.9546C28.3182 29.1637 28.3455 29.391 28.4727 29.5728C28.6 29.7546 28.8 29.8637 29.0182 29.8637H31.6182L30.2 33.2455C30.0636 33.591 30.2273 33.9819 30.5636 34.1273Z" fill="#0195FF"/>
<path d="M9.50909 15.0727C9.65454 15.2364 9.87273 15.3182 10.0909 15.2909C10.3091 15.2636 10.5 15.1364 10.6 14.9364L11.8 12.6364L14.1455 15.4546C14.2818 15.6091 14.4636 15.6909 14.6545 15.6909C14.8091 15.6909 14.9545 15.6364 15.0818 15.5364C15.3636 15.3 15.4 14.8818 15.1727 14.6L12.1909 11.0091C12.0455 10.8364 11.8273 10.7546 11.6091 10.7727C11.3909 10.8 11.1909 10.9273 11.0909 11.1273L9.87273 13.4546L7.58182 10.8364C7.33636 10.5636 6.91818 10.5364 6.64545 10.7727C6.36364 11.0273 6.33636 11.4546 6.57273 11.7273L9.50909 15.0727Z" fill="#0195FF"/>
<path d="M47.6727 47.4455L45.1454 48.1636L45.4636 44.7C45.5 44.3364 45.2273 44.0091 44.8636 43.9727C44.5 43.9364 44.1727 44.2091 44.1364 44.5727L43.7273 49C43.7091 49.2182 43.8 49.4364 43.9636 49.5727C44.1364 49.7091 44.3636 49.7636 44.5727 49.7L47.0727 48.9909L46.6364 52.6273C46.5909 52.9909 46.8545 53.3273 47.2182 53.3636H47.3C47.6364 53.3636 47.9182 53.1182 47.9636 52.7727L48.5182 48.1364C48.5454 47.9182 48.4545 47.6909 48.2909 47.5546C48.1182 47.4364 47.8909 47.3909 47.6727 47.4455Z" fill="#0195FF"/>
</svg>
