<svg width="60" height="60" viewBox="0 0 60 60" fill="none" xmlns="http://www.w3.org/2000/svg">
<g clip-path="url(#clip0_16_1251)">
<path d="M38.4023 19.4766C34.1789 19.4766 30.7418 22.9125 30.7418 27.1371C30.7418 31.3617 34.1777 34.7977 38.4023 34.7977C42.627 34.7977 46.0629 31.3617 46.0629 27.1371C46.0629 22.9125 42.627 19.4766 38.4023 19.4766ZM38.4023 33.1559C35.0836 33.1559 32.3836 30.4559 32.3836 27.1371C32.3836 23.8184 35.0836 21.1184 38.4023 21.1184C41.7211 21.1184 44.4211 23.8184 44.4211 27.1371C44.4211 30.4559 41.7211 33.1559 38.4023 33.1559ZM57.5836 24.7184H48.8273C47.7281 19.9781 43.4719 16.4332 38.4035 16.4332C35.8664 16.4332 33.5332 17.3215 31.6969 18.8016V14.7352C31.6969 14.2816 31.3301 13.9148 30.8766 13.9148H25.2727C24.8191 13.9148 24.4523 14.2816 24.4523 14.7352V54.0938H21.3703V22.7977C21.3703 22.3441 21.0035 21.9773 20.55 21.9773H14.9461C14.4926 21.9773 14.1258 22.3441 14.1258 22.7977V54.0938H11.0367V30.8637C11.0367 30.4102 10.6699 30.0434 10.2164 30.0434H4.61601C4.1625 30.0434 3.7957 30.4102 3.7957 30.8637V54.0938H0.819138C0.365622 54.0938 -0.00117493 54.4605 -0.00117493 54.9141C-0.00117493 55.3676 0.365622 55.7344 0.819138 55.7344H4.61601H10.2164H14.9437H20.5477H25.2715H30.8754H35.5992H41.2031H45C45.4535 55.7344 45.8203 55.3676 45.8203 54.9141C45.8203 54.4605 45.4535 54.0938 45 54.0938H42.0234V37.2047C45.4066 35.9848 48.0035 33.1055 48.8262 29.5547H57.5824C58.916 29.5547 60.0012 28.4695 60.0012 27.1359C60.0012 25.8023 58.916 24.7184 57.5836 24.7184ZM5.43632 54.0938V31.684H9.39609V54.0938H5.43632ZM15.7641 54.0938V23.6191H19.7273V54.0938H15.7641ZM26.0918 54.0938V15.5566H30.0551V20.4469C28.582 22.2809 27.6996 24.607 27.6996 27.1371C27.6996 29.666 28.582 31.9922 30.0551 33.825V54.0938H26.0918ZM31.6957 35.468C32.6121 36.2063 33.6516 36.7969 34.7777 37.2035V54.0938H31.6957V35.468ZM40.3828 54.0938H36.4195V37.6512C37.0629 37.7719 37.725 37.8363 38.4023 37.8363C39.0785 37.8363 39.7406 37.773 40.3816 37.6523V54.0938H40.3828ZM38.4023 36.1957C33.4055 36.1957 29.3402 32.1316 29.3402 27.1371C29.3402 22.1402 33.4055 18.075 38.4023 18.075C43.3969 18.075 47.4609 22.1402 47.4609 27.1371C47.4609 32.1316 43.398 36.1957 38.4023 36.1957ZM57.5836 27.9141H49.0746C49.0934 27.6574 49.1027 27.3984 49.1027 27.1371C49.1027 26.8758 49.0934 26.6168 49.0746 26.3602H57.5836C58.0125 26.3602 58.3605 26.7094 58.3605 27.1371C58.3605 27.5578 58.0043 27.9141 57.5836 27.9141ZM41.9133 24.4465C42.2332 24.7664 42.2332 25.2867 41.9133 25.6066L37.6945 29.8254C37.541 29.9789 37.3324 30.0656 37.1145 30.0656C36.8965 30.0656 36.6879 29.9789 36.5344 29.8242L34.8937 28.1801C34.5738 27.859 34.5738 27.3398 34.8949 27.0199C35.216 26.7 35.7352 26.7 36.0551 27.0211L37.1156 28.084L40.7531 24.4465C41.073 24.1266 41.5922 24.1266 41.9133 24.4465ZM0.111325 24.7266C-0.117191 24.3352 0.0140595 23.8324 0.405466 23.6039L30.6961 5.90625H26.3414C25.8879 5.90625 25.5211 5.53945 25.5211 5.08594C25.5211 4.63242 25.8879 4.26562 26.3414 4.26562H33.7254C34.0184 4.26562 34.2891 4.42148 34.4355 4.67578C34.582 4.93008 34.582 5.24297 34.4355 5.49609L30.7418 11.891C30.5894 12.1547 30.3141 12.3012 30.0305 12.3012C29.891 12.3012 29.7504 12.266 29.6203 12.191C29.2277 11.9648 29.093 11.4621 29.3203 11.0707L31.4648 7.35703L1.23281 25.0219C1.10273 25.098 0.959763 25.1344 0.819138 25.1344C0.537888 25.1332 0.263669 24.9879 0.111325 24.7266Z" fill="#0195FF"/>
</g>
<defs>
<clipPath id="clip0_16_1251">
<rect width="60" height="60" fill="white"/>
</clipPath>
</defs>
</svg>
