<svg width="60" height="60" viewBox="0 0 60 60" fill="none" xmlns="http://www.w3.org/2000/svg">
<path d="M53.6364 45.5455H6.36364C3.27273 45.5455 0.90909 43.1818 0.90909 40.0909V6.81819C0.90909 3.72728 3.27273 1.36365 6.36364 1.36365H53.6364C56.7273 1.36365 59.0909 3.72728 59.0909 6.81819V40.0909C59.0909 43.1818 56.7273 45.5455 53.6364 45.5455ZM6.36364 3.18183C4.36364 3.18183 2.72727 4.81819 2.72727 6.81819V40.0909C2.72727 42.0909 4.36364 43.7273 6.36364 43.7273H53.6364C55.6364 43.7273 57.2727 42.0909 57.2727 40.0909V6.81819C57.2727 4.81819 55.6364 3.18183 53.6364 3.18183H6.36364Z" fill="white"/>
<path d="M52.5455 39.5454H7.45454C6.90909 39.5454 6.54545 39.1818 6.54545 38.6364C6.54545 38.0909 6.90909 37.7273 7.45454 37.7273H51.6364V8.54544C51.6364 7.99999 52 7.63635 52.5455 7.63635C53.0909 7.63635 53.4545 7.99999 53.4545 8.54544V38.6364C53.4545 39.1818 53.0909 39.5454 52.5455 39.5454Z" fill="white"/>
<path d="M11.0909 39.4546H8.18182C7.63636 39.4546 7.27273 39.0909 7.27273 38.5455V32.1819C7.27273 31.6364 7.63636 31.2728 8.18182 31.2728H11.0909C11.6364 31.2728 12 31.6364 12 32.1819V38.5455C12 39.0909 11.6364 39.4546 11.0909 39.4546ZM9.09091 37.6364H10.1818V33.0909H9.09091V37.6364Z" fill="white"/>
<path d="M18.4545 39.5454H15.5455C15 39.5454 14.6364 39.1818 14.6364 38.6363V28.3636C14.6364 27.8182 15 27.4545 15.5455 27.4545H18.4545C19 27.4545 19.3636 27.8182 19.3636 28.3636V38.6363C19.3636 39.1818 19 39.5454 18.4545 39.5454ZM16.4545 37.7273H17.5455V29.2727H16.4545V37.7273Z" fill="white"/>
<path d="M25.8182 39.4545H22.9091C22.3636 39.4545 22 39.0909 22 38.5455V26.9091C22 26.3636 22.3636 26 22.9091 26H25.8182C26.3636 26 26.7273 26.3636 26.7273 26.9091V38.5455C26.7273 39.0909 26.3636 39.4545 25.8182 39.4545ZM23.8182 37.6364H24.9091V27.8182H23.8182V37.6364Z" fill="white"/>
<path d="M33.1818 39.4545H30.2727C29.7273 39.4545 29.3636 39.0909 29.3636 38.5455V24.7273C29.3636 24.1818 29.7273 23.8182 30.2727 23.8182H33.1818C33.7273 23.8182 34.0909 24.1818 34.0909 24.7273V38.5455C34.0909 39.0909 33.7273 39.4545 33.1818 39.4545ZM31.1818 37.6364H32.2727V25.6364H31.1818V37.6364Z" fill="white"/>
<path d="M40.5455 39.5454H37.6364C37.0909 39.5454 36.7273 39.1818 36.7273 38.6363V21.1818C36.7273 20.6363 37.0909 20.2727 37.6364 20.2727H40.5455C41.0909 20.2727 41.4545 20.6363 41.4545 21.1818V38.6363C41.4545 39.1818 41.0909 39.5454 40.5455 39.5454ZM38.5455 37.7273H39.6364V22.0909H38.5455V37.7273Z" fill="white"/>
<path d="M47.9091 39.5454H45C44.4545 39.5454 44.0909 39.1818 44.0909 38.6363V17.1818C44.0909 16.6363 44.4545 16.2727 45 16.2727H47.9091C48.4545 16.2727 48.8182 16.6363 48.8182 17.1818V38.6363C48.8182 39.1818 48.4545 39.5454 47.9091 39.5454ZM45.9091 37.7273H47V18.0909H45.9091V37.7273Z" fill="white"/>
<path d="M8.18182 27.0909C7.81818 27.0909 7.54545 26.9091 7.36364 26.5455C7.18182 26.0909 7.36364 25.5455 7.72727 25.3636C8.72727 24.9091 12.2727 22.4545 13.5455 21.5455C13.7273 21.3636 14 21.3636 14.1818 21.3636L21.9091 22.5455L27.8182 17C28 16.8182 28.1818 16.7273 28.4545 16.7273H36.1818L44.4545 10.6364C44.8182 10.3636 45.4545 10.4545 45.7273 10.8182C46 11.1818 45.9091 11.8182 45.5455 12.0909L37 18.3636C36.8182 18.4545 36.6364 18.5455 36.4545 18.5455H28.8182L22.8182 24.0909C22.6364 24.2727 22.3636 24.3636 22.0909 24.3636L14.2727 23.1818C13.1818 23.9091 9.72727 26.3636 8.54545 26.9091C8.45454 27.0909 8.36364 27.0909 8.18182 27.0909Z" fill="white"/>
<path d="M7.45454 21C7.09091 21 6.81818 20.8182 6.63636 20.5455C6.36364 20.0909 6.54545 19.5455 7 19.2727C7.63636 18.9091 11.4545 16.3636 12.8182 15.3636C13 15.2727 13.2727 15.1818 13.4545 15.1818L21.1818 16.3636L27.0909 10.8182C27.2727 10.6364 27.5455 10.5455 27.8182 10.5455L34.1818 11.3636L38.4545 8.18183C38.8182 7.9091 39.4545 8.00001 39.7273 8.36365C40 8.72728 39.9091 9.36365 39.5455 9.63638L35 13.0909C34.8182 13.2727 34.5455 13.2727 34.3636 13.2727L28.0909 12.4546L22.0909 18C21.9091 18.1818 21.6364 18.2727 21.3636 18.2727L13.5455 17.0909C12.3636 17.9091 8.63636 20.4546 7.90909 20.8182C7.72727 21 7.63636 21 7.45454 21Z" fill="white"/>
<path d="M44.1818 15.7273C44.0909 15.7273 44 15.7273 44 15.7273C43.5455 15.6364 43.1818 15.0909 43.3636 14.6364L44 12.1818L41.4545 11.5455C41 11.4546 40.6364 10.9091 40.8182 10.4546C40.9091 10 41.4545 9.63638 41.9091 9.8182L45.3636 10.6364C45.6364 10.7273 45.8182 10.8182 45.9091 11.0909C46 11.2727 46.0909 11.5455 46 11.8182L45.1818 15.1818C45 15.4546 44.6364 15.7273 44.1818 15.7273Z" fill="white"/>
<path d="M38.2727 13.4546C38.1818 13.4546 38.0909 13.4546 38.0909 13.4546C37.6364 13.3636 37.2727 12.8182 37.4545 12.3636L38.0909 9.81819L35.4545 9.18183C35 9.09092 34.6364 8.54546 34.8182 8.09092C34.9091 7.63637 35.4545 7.27273 35.9091 7.45455L39.2727 8.18183C39.5455 8.27273 39.7273 8.36364 39.8182 8.54546C40 8.81819 40 9.09092 40 9.27273L39.1818 12.7273C39.0909 13.1818 38.7273 13.4546 38.2727 13.4546Z" fill="white"/>
<path d="M45.0909 58.6364H15C14.7273 58.6364 14.4545 58.4546 14.2727 58.2728C14.0909 58 14.0909 57.7273 14.1818 57.4546L15.8182 52.7273C16.2727 51.1819 17.7273 50.0909 19.3636 50.0909H40.8182C42.4545 50.0909 43.9091 51.1819 44.4545 52.7273L46 57.4546C46.0909 57.7273 46 58 45.9091 58.2728C45.6364 58.4546 45.3636 58.6364 45.0909 58.6364ZM16.2727 56.8182H43.8182L42.7273 53.2728C42.4545 52.4546 41.7273 51.9091 40.9091 51.9091H19.3636C18.5455 51.9091 17.7273 52.4546 17.5455 53.2728L16.2727 56.8182Z" fill="white"/>
<path d="M35.4545 51.9091C34.9091 51.9091 34.5455 51.5455 34.5455 51V44.6364C34.5455 44.0909 34.9091 43.7273 35.4545 43.7273C36 43.7273 36.3636 44.0909 36.3636 44.6364V51C36.3636 51.5455 36 51.9091 35.4545 51.9091Z" fill="white"/>
<path d="M24.5455 51.9091C24 51.9091 23.6364 51.5455 23.6364 51V44.6364C23.6364 44.0909 24 43.7273 24.5455 43.7273C25.0909 43.7273 25.4545 44.0909 25.4545 44.6364V51C25.4545 51.5455 25.0909 51.9091 24.5455 51.9091Z" fill="white"/>
</svg>
