<svg width="60" height="60" viewBox="0 0 60 60" fill="none" xmlns="http://www.w3.org/2000/svg">
<path d="M48.0246 38.7234H22.9441C22.9418 38.7234 22.9395 38.7234 22.9371 38.7234H11.9766C11.4586 38.7234 11.0402 39.143 11.0402 39.6597L11.0438 43.2586C11.0449 43.664 11.3051 44.0226 11.6906 44.148L14.6238 45.1031C14.9871 46.4847 15.5344 47.8031 16.2539 49.0371L14.8535 51.7887C14.6695 52.1496 14.7398 52.589 15.0258 52.8762L18.1652 56.0156C18.4523 56.3027 18.8906 56.3719 19.2527 56.1879L22.0043 54.7875C23.2371 55.507 24.5555 56.0543 25.9371 56.4176L26.8922 59.3531C27.0176 59.7387 27.3773 60 27.7828 60H32.2242C32.6309 60 32.9906 59.7387 33.1148 59.3519L34.0664 56.4176C35.4481 56.0543 36.7664 55.507 37.9992 54.7875L40.7508 56.1879C41.1117 56.3719 41.55 56.3027 41.8371 56.0156L44.9777 52.875C45.2637 52.5879 45.3328 52.1496 45.15 51.7887L43.7496 49.0371C44.4691 47.8043 45.0164 46.4847 45.3797 45.1031L48.3152 44.148C48.7008 44.0226 48.9621 43.6629 48.9621 43.2574V39.6597C48.9609 39.143 48.5414 38.7234 48.0246 38.7234ZM36.2449 41.039C36.2449 44.482 33.443 47.284 30 47.284C26.557 47.284 23.7551 44.482 23.7551 41.039C23.7551 40.8926 23.7621 40.7449 23.7727 40.5972H36.2273C36.2379 40.7449 36.2449 40.8914 36.2449 41.039ZM47.0871 42.5777L44.3027 43.4836C43.9887 43.5855 43.752 43.8445 43.6781 44.1668C43.3277 45.7066 42.7242 47.1644 41.8828 48.4992C41.707 48.7793 41.6906 49.1308 41.8406 49.425L43.1695 52.0336L40.9922 54.2109L38.3836 52.882C38.0895 52.732 37.7379 52.7472 37.4578 52.9242C36.1231 53.7656 34.6652 54.3691 33.1254 54.7195C32.8031 54.7933 32.5441 55.0301 32.4422 55.343L31.5387 58.1273H28.459L27.5531 55.343C27.4512 55.0289 27.1922 54.7922 26.8699 54.7195C25.3301 54.3691 23.8723 53.7656 22.5375 52.9242C22.2574 52.7484 21.9059 52.732 21.6117 52.882L19.0043 54.2109L16.8293 52.0312L18.1582 49.4238C18.3082 49.1297 18.293 48.7781 18.116 48.498C17.2746 47.1633 16.6711 45.7055 16.3207 44.1656C16.2469 43.8433 16.0102 43.5844 15.6961 43.4824L12.9141 42.5765L12.9117 40.5961H21.8941C21.8859 40.7437 21.8813 40.8914 21.8813 41.0379C21.8813 45.5144 25.5234 49.1566 30 49.1566C34.4766 49.1566 38.1188 45.5144 38.1188 41.0379C38.1188 40.8914 38.1141 40.7437 38.1059 40.5961H47.0883V42.5777H47.0871ZM22.4613 25.5703C22.7191 25.8586 22.9863 26.1574 23.2488 26.4656C24.1148 27.4781 24.5355 28.6195 24.5355 29.9531V31.7273C24.5355 31.9183 24.5484 32.107 24.5695 32.2922C24.5707 32.3004 24.5719 32.3098 24.5731 32.318C24.8648 34.6746 26.8781 36.5051 29.3121 36.5051H30.6867C33.1207 36.5051 35.134 34.6746 35.4258 32.318C35.427 32.3098 35.4281 32.3004 35.4293 32.2922C35.4516 32.107 35.4633 31.9183 35.4633 31.7273V29.9531C35.4633 29.6226 35.4891 29.3027 35.5418 28.9945C35.5418 28.9922 35.5418 28.991 35.543 28.9887C35.7023 28.0594 36.1008 27.2273 36.75 26.4656C37.0113 26.1598 37.2762 25.8633 37.5328 25.5773C39.2543 23.6531 40.8809 21.8355 40.8809 17.8582C40.8809 11.857 35.9988 6.97616 29.9988 6.97616C23.9988 6.97616 19.1168 11.8582 19.1168 17.8582C19.118 21.8308 20.741 23.6473 22.4613 25.5703ZM33.5941 29.7738C33.593 29.8336 33.5906 29.8933 33.5906 29.9531V31.2656H26.4082V29.9531C26.4082 29.8922 26.4059 29.8336 26.4047 29.7738H33.5941ZM30.6879 34.6301H29.3133C28.2246 34.6301 27.2742 34.0277 26.7773 33.1383H33.2238C32.7258 34.0277 31.7766 34.6301 30.6879 34.6301ZM30 8.84999C34.9676 8.84999 39.0094 12.8918 39.0094 17.8594C39.0094 21.1195 37.7426 22.5363 36.1383 24.3293C35.8746 24.6246 35.6016 24.9293 35.3262 25.2515C34.6301 26.0683 34.1484 26.9461 33.8719 27.9023H30.9363V21.0387L31.9477 20.0273C32.3133 19.6617 32.3133 19.0687 31.9477 18.7031C31.582 18.3375 30.9891 18.3375 30.6234 18.7031L30 19.3242L29.3766 18.7008C29.0109 18.3351 28.418 18.3351 28.0523 18.7008C27.6867 19.0664 27.6867 19.6594 28.0523 20.025L29.0637 21.0363V27.9H26.1293C25.8527 26.9426 25.3711 26.0648 24.6738 25.2492C24.3973 24.9246 24.123 24.6187 23.8582 24.3211C22.2563 22.5293 20.9918 21.1148 20.9918 17.857C20.9918 12.8906 25.0324 8.84999 30 8.84999ZM12.1418 17.8582C12.1418 17.3402 12.5613 16.9219 13.0781 16.9219H15.9082C16.4262 16.9219 16.8445 17.3414 16.8445 17.8582C16.8445 18.375 16.425 18.7945 15.9082 18.7945H13.0781C12.5613 18.7957 12.1418 18.3762 12.1418 17.8582ZM43.1543 17.8582C43.1543 17.3402 43.5738 16.9219 44.0906 16.9219H46.9207C47.4387 16.9219 47.857 17.3414 47.857 17.8582C47.857 18.375 47.4375 18.7945 46.9207 18.7945H44.0906C43.5738 18.7957 43.1543 18.3762 43.1543 17.8582ZM17.3719 30.4863C17.0063 30.1207 17.0063 29.5277 17.3719 29.1621L19.3746 27.1594C19.7402 26.7937 20.3332 26.7937 20.6988 27.1594C21.0645 27.525 21.0645 28.118 20.6988 28.4836L18.6961 30.4863C18.5133 30.6691 18.273 30.7605 18.034 30.7605C17.7949 30.7605 17.5547 30.6691 17.3719 30.4863ZM39.3035 8.55585C38.9379 8.19022 38.9379 7.59725 39.3035 7.23163L41.3027 5.23124C41.6684 4.86561 42.2613 4.86561 42.627 5.23124C42.9926 5.59686 42.9926 6.18983 42.627 6.55546L40.6277 8.55585C40.4449 8.73866 40.2047 8.83006 39.9656 8.83006C39.7266 8.83006 39.4863 8.73866 39.3035 8.55585ZM29.0637 3.76757V0.937488C29.0637 0.419519 29.4832 0.00115967 30 0.00115967C30.5168 0.00115967 30.9363 0.420691 30.9363 0.937488V3.76757C30.9363 4.28553 30.5168 4.70389 30 4.70389C29.4832 4.70389 29.0637 4.28436 29.0637 3.76757ZM40.6289 27.1594L42.6281 29.1621C42.9938 29.5277 42.9926 30.1219 42.627 30.4863C42.4441 30.6691 42.2051 30.7605 41.9648 30.7605C41.7246 30.7605 41.4844 30.6691 41.3016 30.4851L39.3023 28.4824C38.9367 28.1168 38.9379 27.5226 39.3035 27.1582C39.6703 26.7926 40.2633 26.7926 40.6289 27.1594ZM17.3731 6.55663C17.0063 6.191 17.0063 5.59803 17.3719 5.23241C17.7375 4.86561 18.3305 4.86561 18.6961 5.23124L20.6988 7.23163C21.0656 7.59725 21.0656 8.19022 20.7 8.55585C20.5172 8.73866 20.277 8.83124 20.0367 8.83124C19.7977 8.83124 19.5574 8.73983 19.3746 8.55702L17.3731 6.55663Z" fill="white"/>
</svg>
