<svg width="61" height="61" viewBox="0 0 61 61" fill="none" xmlns="http://www.w3.org/2000/svg">
<g clip-path="url(#clip0_6_386)">
<path d="M40.0289 14.2772H1.37898V9.87923C1.37898 8.90895 2.16561 8.12231 3.13589 8.12231H39.8141" stroke="#CC0444" stroke-width="2" stroke-miterlimit="10" stroke-linecap="round" stroke-linejoin="round"/>
<path d="M54.8171 19.9863V57.8032C54.8171 58.7735 54.0304 59.5601 53.0602 59.5601H3.13589C2.16561 59.5601 1.37898 58.7735 1.37898 57.8032V14.2772H40.0289" stroke="#CC0444" stroke-width="2" stroke-miterlimit="10" stroke-linecap="round" stroke-linejoin="round"/>
<path d="M50.0284 21.4414V43.0151C50.0284 43.4751 49.6555 43.8479 49.1956 43.8479H19.2998" stroke="#CC0444" stroke-width="2" stroke-miterlimit="10" stroke-linecap="round" stroke-linejoin="round"/>
<path d="M15.2466 43.8479H7.00061C6.54061 43.8479 6.1678 43.475 6.1678 43.0151V19.1109C6.1678 18.6509 6.54072 18.2781 7.00061 18.2781H42.1371" stroke="#CC0444" stroke-width="2" stroke-miterlimit="10" stroke-linecap="round" stroke-linejoin="round"/>
<path d="M18.9248 51.6584H50.0284" stroke="#CC0444" stroke-width="2" stroke-miterlimit="10" stroke-linecap="round" stroke-linejoin="round"/>
<path d="M10.0973 55.5592C12.2516 55.5592 13.998 53.8128 13.998 51.6585C13.998 49.5042 12.2516 47.7578 10.0973 47.7578C7.94304 47.7578 6.19664 49.5042 6.19664 51.6585C6.19664 53.8128 7.94304 55.5592 10.0973 55.5592Z" stroke="#CC0444" stroke-width="2" stroke-miterlimit="10" stroke-linecap="round" stroke-linejoin="round"/>
<path d="M16.341 35.8715L19.9522 26.39C20.0261 26.2096 20.2815 26.2093 20.3555 26.3895L23.9339 35.8715" stroke="#CC0444" stroke-width="2" stroke-miterlimit="10" stroke-linecap="round" stroke-linejoin="round"/>
<path d="M17.4672 33.5101H22.8258" stroke="#CC0444" stroke-width="2" stroke-miterlimit="10" stroke-linecap="round" stroke-linejoin="round"/>
<path d="M39.6537 30.3117C39.6537 30.3117 38.5597 29.3922 37.2697 29.7808C36.0852 30.1377 35.9196 31.5034 36.7766 32.0621C36.7766 32.0621 37.6175 32.4372 38.5501 32.7812C40.7953 33.6093 39.8282 35.7814 38.0208 35.7814C37.1156 35.7814 36.3561 35.385 35.8963 34.8777" stroke="#CC0444" stroke-width="2" stroke-miterlimit="10" stroke-linecap="round" stroke-linejoin="round"/>
<path d="M32.504 26.6244V35.7815" stroke="#CC0444" stroke-width="2" stroke-miterlimit="10" stroke-linecap="round" stroke-linejoin="round"/>
<path d="M29.4335 35.7814C31.1293 35.7814 32.504 34.4067 32.504 32.711C32.504 31.0152 31.1293 29.6405 29.4335 29.6405C27.7378 29.6405 26.3631 31.0152 26.3631 32.711C26.3631 34.4067 27.7378 35.7814 29.4335 35.7814Z" stroke="#CC0444" stroke-width="2" stroke-miterlimit="10" stroke-linecap="round" stroke-linejoin="round"/>
<path d="M46.7569 1.85599C47.6641 1.58538 48.6254 1.43994 49.6205 1.43994C55.1436 1.43994 59.621 5.91725 59.621 11.4404C59.621 16.9636 55.1437 21.4409 49.6205 21.4409C44.0973 21.4409 39.62 16.9636 39.62 11.4404C39.62 8.3327 41.0375 5.55605 43.2614 3.7219" stroke="#CC0444" stroke-width="2" stroke-miterlimit="10" stroke-linecap="round" stroke-linejoin="round"/>
<path d="M29.9366 50.3519V52.9649" stroke="#CC0444" stroke-width="2" stroke-miterlimit="10" stroke-linecap="round" stroke-linejoin="round"/>
<path d="M52.2865 7.80951C52.2865 7.80951 50.6464 6.43079 48.7122 7.01327C47.539 7.36662 46.868 8.6122 47.4238 9.72136C48.0101 10.8913 49.5091 11.0984 50.6318 11.5126C53.9982 12.7544 52.548 16.0112 49.8379 16.0112C48.4808 16.0112 47.3417 15.4169 46.6524 14.6562" stroke="#CC0444" stroke-width="2" stroke-miterlimit="10" stroke-linecap="round" stroke-linejoin="round"/>
<path d="M49.6205 6.69396V5.11707" stroke="#CC0444" stroke-width="2" stroke-miterlimit="10" stroke-linecap="round" stroke-linejoin="round"/>
<path d="M49.6205 17.7639V16.187" stroke="#CC0444" stroke-width="2" stroke-miterlimit="10" stroke-linecap="round" stroke-linejoin="round"/>
</g>
<defs>
<clipPath id="clip0_6_386">
<rect width="60" height="60" fill="white" transform="translate(0.5 0.5)"/>
</clipPath>
</defs>
</svg>
