<svg width="95" height="95" viewBox="0 0 95 95" fill="none" xmlns="http://www.w3.org/2000/svg">
<circle cx="47.5" cy="47.5" r="47.5" fill="#363535"/>
<path d="M53.8967 35.3539C55.2429 35.3539 56.3381 34.2586 56.3381 32.9125C56.3381 31.5663 55.2429 30.4709 53.8967 30.4709C52.5505 30.4709 51.4553 31.5663 51.4553 32.9125C51.4553 33.4623 51.6381 33.9701 51.946 34.3787L47.9347 39.9842C47.6954 39.9056 47.44 39.8625 47.1746 39.8625C46.5331 39.8625 45.9489 40.1116 45.5127 40.5176L42.839 39.0004C42.8747 38.8348 42.8938 38.6631 42.8938 38.4871C42.8938 37.1409 41.7986 36.0457 40.4524 36.0457C39.1062 36.0457 38.011 37.1409 38.011 38.4871C38.011 38.6631 38.0301 38.8348 38.0658 39.0004L35.392 40.5176C34.9559 40.1116 34.3717 39.8625 33.7302 39.8625C32.384 39.8625 31.2888 40.9579 31.2888 42.3041C31.2888 43.6502 32.384 44.7456 33.7302 44.7456C35.0764 44.7456 36.1716 43.6502 36.1716 42.3041C36.1716 42.128 36.1525 41.9563 36.1168 41.7907L38.7906 40.2735C39.2267 40.6795 39.8109 40.9287 40.4524 40.9287C41.0939 40.9287 41.678 40.6795 42.1142 40.2736L44.7879 41.7908C44.7523 41.9564 44.7332 42.1281 44.7332 42.3042C44.7332 43.6503 45.8284 44.7457 47.1746 44.7457C48.5208 44.7457 49.6161 43.6503 49.6161 42.3042C49.6161 41.7542 49.4332 41.2463 49.1252 40.8377L53.1366 35.2322C53.3758 35.3107 53.6313 35.3539 53.8967 35.3539ZM53.8967 31.9358C54.4352 31.9358 54.8733 32.3739 54.8733 32.9125C54.8733 33.4509 54.4352 33.889 53.8967 33.889C53.3583 33.889 52.9202 33.4509 52.9202 32.9125C52.9201 32.3739 53.3582 31.9358 53.8967 31.9358ZM33.7299 43.2805C33.1915 43.2805 32.7534 42.8424 32.7534 42.3039C32.7534 41.7653 33.1915 41.3272 33.7299 41.3272C34.2684 41.3272 34.7065 41.7653 34.7065 42.3039C34.7065 42.8424 34.2684 43.2805 33.7299 43.2805ZM40.4522 39.4636C39.9137 39.4636 39.4756 39.0255 39.4756 38.487C39.4756 37.9485 39.9137 37.5104 40.4522 37.5104C40.9907 37.5104 41.4288 37.9485 41.4288 38.487C41.4289 39.0255 40.9907 39.4636 40.4522 39.4636ZM47.1745 43.2805C46.636 43.2805 46.1979 42.8424 46.1979 42.3039C46.1979 41.7653 46.636 41.3272 47.1745 41.3272C47.713 41.3272 48.1511 41.7653 48.1511 42.3039C48.1511 42.8424 47.7129 43.2805 47.1745 43.2805Z" fill="white"/>
<path d="M62.898 59.1725H57.7725H29.8543H24.0718C23.7371 59.1725 23.4648 58.9002 23.4648 58.5656V28.3489C23.4648 28.0142 23.7371 27.7419 24.0718 27.7419H27.5245C27.929 27.7419 28.2569 27.4141 28.2569 27.0095C28.2569 26.6049 27.929 26.2771 27.5245 26.2771H24.0718C22.9294 26.2771 22 27.2065 22 28.3489V58.5656C22 59.708 22.9294 60.6374 24.0718 60.6374H29.1219V62.2493C29.1219 63.1675 29.8689 63.9146 30.7872 63.9146H38.1187L34.6675 70.6527C34.4831 71.0127 34.6254 71.4541 34.9854 71.6385C35.0923 71.6933 35.2063 71.7192 35.3188 71.7192C35.5849 71.7192 35.8416 71.5737 35.9712 71.3205L39.7645 63.9146H47.8623L51.6556 71.3205C51.7853 71.5737 52.0419 71.7192 52.308 71.7192C52.4204 71.7192 52.5345 71.6931 52.6413 71.6385C53.0014 71.4541 53.1438 71.0127 52.9593 70.6527L49.5081 63.9146H56.8395C57.7578 63.9146 58.5049 63.1676 58.5049 62.2493V60.6374H62.898C63.3025 60.6374 63.6305 60.3095 63.6305 59.9049C63.6305 59.5003 63.3025 59.1725 62.898 59.1725ZM57.04 62.2493C57.04 62.3598 56.9501 62.4498 56.8395 62.4498H30.7872C30.6767 62.4498 30.5867 62.3598 30.5867 62.2493V60.6374H57.04V62.2493Z" fill="white"/>
<path d="M30.4541 27.742H40.4807H47.1458H63.5548C63.8895 27.742 64.1617 28.0143 64.1617 28.3489V35.3129C64.1617 35.7175 64.4896 36.0453 64.8941 36.0453C65.2986 36.0453 65.6266 35.7175 65.6266 35.3129V28.3489C65.6266 27.2065 64.6972 26.2771 63.5548 26.2771H47.8783V24.8375C47.8783 23.8243 47.054 23 46.0407 23H41.5858C40.5727 23 39.7482 23.8243 39.7482 24.8375V26.2771H30.4541C30.0496 26.2771 29.7217 26.605 29.7217 27.0096C29.7217 27.4142 30.0496 27.742 30.4541 27.742ZM41.2131 24.8375C41.2131 24.632 41.3803 24.4648 41.5858 24.4648H46.0407C46.2462 24.4648 46.4135 24.632 46.4135 24.8375V26.2771H41.2132V24.8375H41.2131Z" fill="white"/>
<path d="M32.2444 48.49C31.8399 48.49 31.512 48.8178 31.512 49.2224V55.6943C31.512 56.0989 31.8399 56.4267 32.2444 56.4267H35.2158C35.6203 56.4267 35.9482 56.0989 35.9482 55.6943V49.2224C35.9482 48.8178 35.6203 48.49 35.2158 48.49H32.2444ZM34.4833 54.962H32.9768V49.9549H34.4833V54.962Z" fill="white"/>
<path d="M38.9666 44.7471C38.5621 44.7471 38.2341 45.0749 38.2341 45.4795V55.6944C38.2341 56.099 38.5621 56.4269 38.9666 56.4269H41.9379C42.3424 56.4269 42.6704 56.099 42.6704 55.6944V45.4795C42.6704 45.0749 42.3424 44.7471 41.9379 44.7471H38.9666ZM41.2056 54.962H39.6991V46.2119H41.2056V54.962Z" fill="white"/>
<path d="M45.6887 48.49C45.2842 48.49 44.9563 48.8178 44.9563 49.2224V55.6943C44.9563 56.0989 45.2842 56.4267 45.6887 56.4267H48.6601C49.0646 56.4267 49.3925 56.0989 49.3925 55.6943V49.2224C49.3925 48.8178 49.0646 48.49 48.6601 48.49H45.6887ZM47.9277 54.962H46.4211V49.9549H47.9277V54.962Z" fill="white"/>
<path d="M52.4111 52.8119C52.0066 52.8119 51.6787 53.1397 51.6787 53.5443V55.6944C51.6787 56.099 52.0066 56.4268 52.4111 56.4268H55.3825C55.787 56.4268 56.1149 56.099 56.1149 55.6944C56.1149 55.2898 55.787 54.962 55.3825 54.962H53.1436V53.5443C53.1436 53.1397 52.8156 52.8119 52.4111 52.8119Z" fill="white"/>
<path d="M71.6264 59.8614L67.4246 52.5835C68.4891 51.4488 69.2643 50.0624 69.6784 48.5171C70.3402 46.0473 70.0005 43.4675 68.722 41.253C66.0828 36.6814 60.2165 35.1099 55.6452 37.749C51.0738 40.3882 49.502 46.2545 52.1413 50.8259C53.4198 53.0403 55.4841 54.6243 57.954 55.2862C58.7788 55.5072 59.6156 55.6165 60.4471 55.6165C61.1739 55.6165 61.8964 55.5329 62.6031 55.3675L66.8041 62.6456C67.319 63.5379 68.2567 64.0372 69.2198 64.0371C69.6918 64.0371 70.1699 63.9171 70.6073 63.6647C71.4663 63.1689 72 62.2444 72 61.2521C72 60.7658 71.8709 60.2851 71.6264 59.8614ZM58.3331 53.8713C56.2412 53.3107 54.4926 51.969 53.4097 50.0935C51.1744 46.2216 52.5057 41.253 56.3775 39.0176C57.6512 38.2822 59.0431 37.933 60.4179 37.933C63.2221 37.933 65.9534 39.3874 67.4534 41.9855C68.5362 43.861 68.8239 46.046 68.2633 48.138C67.7028 50.23 66.3611 51.9783 64.4855 53.0612C62.61 54.1441 60.4251 54.4316 58.3331 53.8713ZM69.8751 62.396C69.245 62.7599 68.4364 62.5433 68.0728 61.9134L64.031 54.911C64.4361 54.7457 64.8328 54.5523 65.2181 54.3299C65.6038 54.1072 65.969 53.8594 66.3148 53.591L70.3578 60.5937C70.4738 60.7949 70.5351 61.0227 70.5351 61.2522C70.5351 61.7227 70.2822 62.161 69.8751 62.396Z" fill="white"/>
<path d="M67.0725 48.1028C67.5895 46.4372 67.4664 44.654 66.7257 43.0818C66.5532 42.7157 66.1169 42.5589 65.751 42.7313C65.385 42.9037 65.2281 43.3401 65.4006 43.706C65.9849 44.9462 66.0818 46.3533 65.6735 47.6684C65.263 48.9906 64.3761 50.1003 63.1762 50.7931C61.9064 51.5263 60.427 51.7208 59.0109 51.3414C57.5947 50.9619 56.4109 50.0536 55.6779 48.7839C54.1645 46.1627 55.0659 42.799 57.6871 41.2857C59.6036 40.1793 61.982 40.3272 63.7468 41.6623C64.0694 41.9065 64.5287 41.8429 64.7728 41.5202C65.0168 41.1977 64.9532 40.7383 64.6306 40.4943C62.3951 38.8027 59.382 38.6155 56.9546 40.017C55.346 40.9457 54.1953 42.4453 53.7145 44.2395C53.2338 46.0336 53.4806 47.9076 54.4093 49.5162C55.338 51.1249 56.8376 52.2755 58.6317 52.7564C59.2309 52.9169 59.8389 52.9963 60.4429 52.9963C61.6478 52.9963 62.8371 52.6803 63.9085 52.0616C65.4287 51.1841 66.5523 49.7782 67.0725 48.1028Z" fill="white"/>
</svg>
