<?xml version="1.0" encoding="UTF-8"?>
<svg id="_Layer_" data-name="&amp;lt;Layer&amp;gt;" xmlns="http://www.w3.org/2000/svg" viewBox="0 0 480 480">
  <g id="Code_coding_mobile_development" data-name="Code, coding, mobile, development">
    <g>
      <path d="m264,48h-48c-4.42,0-8-3.58-8-8s3.58-8,8-8h48c4.42,0,8,3.58,8,8s-3.58,8-8,8Z" fill="#fff"/>
      <path d="m328,480h-176c-22.06,0-40-17.95-40-40V168c0-4.42,3.58-8,8-8s8,3.58,8,8v272c0,13.23,10.77,24,24,24h176c13.23,0,24-10.77,24-24V168c0-4.42,3.58-8,8-8s8,3.58,8,8v272c0,22.05-17.94,40-40,40Z" fill="#fff"/>
      <path d="m360,224c-4.42,0-8-3.58-8-8V40c0-13.23-10.77-24-24-24h-176c-13.23,0-24,10.77-24,24v176c0,4.42-3.58,8-8,8s-8-3.58-8-8V40c0-22.05,17.94-40,40-40h176c22.06,0,40,17.95,40,40v176c0,4.42-3.58,8-8,8Z" fill="#fff"/>
      <g>
        <path d="m408,80.8c-4.42,0-8-2.78-8-7.2v-1.6c0-4.42,3.58-8,8-8s8,3.58,8,8-3.58,8.8-8,8.8Z" fill="#fff"/>
        <path d="m408,112.8c-4.42,0-8-2.78-8-7.2v-1.6c0-4.42,3.58-8,8-8s8,3.58,8,8-3.58,8.8-8,8.8Z" fill="#fff"/>
        <path d="m408,144.8c-4.42,0-8-2.78-8-7.2v-1.6c0-4.42,3.58-8,8-8s8,3.58,8,8-3.58,8.8-8,8.8Z" fill="#fff"/>
      </g>
      <g>
        <path d="m72,351.2c-4.42,0-8-2.78-8-7.2v-1.6c0-4.42,3.58-8,8-8s8,3.58,8,8-3.58,8.8-8,8.8h0Z" fill="#fff"/>
        <path d="m72,383.2c-4.42,0-8-2.78-8-7.2v-1.6c0-4.42,3.58-8,8-8s8,3.58,8,8-3.58,8.8-8,8.8h0Z" fill="#fff"/>
        <path d="m72,415.2c-4.42,0-8-2.78-8-7.2v-1.6c0-4.42,3.58-8,8-8s8,3.58,8,8-3.58,8.8-8,8.8h0Z" fill="#fff"/>
      </g>
      <path d="m381.46,416c-.56,0-1.14-.05-1.7-.18-4.32-.93-7.06-5.18-6.13-9.5l5.28-24.48c.64-3.01,2.96-5.36,5.94-6.08,7.55-1.82,14.91-4.9,21.87-9.14,2.58-1.6,5.89-1.55,8.46.08l15.84,10.13,9.81-9.89-10.13-15.71c-1.66-2.58-1.7-5.89-.11-8.5,4.24-6.96,7.31-14.32,9.12-21.87.72-2.98,3.06-5.28,6.05-5.95l18.24-4.05v-13.71l-18.22-4.05c-2.99-.67-5.33-2.98-6.05-5.95-1.81-7.55-4.9-14.91-9.12-21.87-1.6-2.61-1.57-5.9.1-8.48l10.14-15.86-9.79-9.79-15.86,10.14c-2.58,1.65-5.87,1.68-8.46.08-6.98-4.24-14.34-7.31-21.87-9.14-2.99-.72-5.3-3.09-5.94-6.08l-3.94-18.16h-6.99c-4.42,0-8-3.58-8-8s3.58-8,8-8h13.44c3.76,0,7.02,2.64,7.81,6.32l4.27,19.73c5.86,1.78,11.6,4.18,17.14,7.17l17.18-10.99c3.17-2.02,7.3-1.57,9.97,1.09l18.9,18.88c2.66,2.66,3.1,6.8,1.07,9.97l-10.99,17.18c2.99,5.55,5.39,11.3,7.17,17.17l19.76,4.38c3.68.82,6.29,4.08,6.29,7.82v26.56c0,3.74-2.61,7.01-6.27,7.81l-19.76,4.38c-1.78,5.87-4.18,11.62-7.17,17.15l10.98,17.02c2.05,3.15,1.62,7.31-1.04,9.97l-18.9,19.04c-2.67,2.67-6.82,3.12-9.98,1.1l-17.18-10.99c-5.55,2.99-11.28,5.39-17.14,7.17l-4.27,19.73c-.82,3.78-4.14,6.34-7.81,6.34h0Z" fill="#fff"/>
      <path d="m390.26,345.25c-2.56,0-5.09-1.25-6.64-3.54-2.46-3.66-1.49-8.64,2.19-11.1,8.88-5.98,14.19-15.94,14.19-26.61,0-17.65-14.35-32-32-32-2.18,0-4.34.22-6.4.64-4.29.86-8.56-1.89-9.46-6.24-.88-4.34,1.9-8.56,6.24-9.44,3.14-.62,6.37-.96,9.62-.96,26.46,0,48,21.54,48,48,0,16.02-7.95,30.93-21.3,39.89-1.36.91-2.91,1.36-4.45,1.36h0Z" fill="#fff"/>
      <path d="m112,224c-26.46,0-48-21.54-48-48,0-16.08,8-31.01,21.41-39.97,3.63-2.43,8.62-1.47,11.09,2.22,2.45,3.66,1.46,8.64-2.22,11.09-8.93,5.98-14.27,15.94-14.27,26.66,0,17.65,14.35,32,32,32,2.14,0,4.26-.21,6.27-.62,4.24-.88,8.54,1.92,9.42,6.27.88,4.34-1.94,8.54-6.27,9.41-3.06.62-6.19.94-9.42.94h0Z" fill="#fff"/>
      <path d="m112,288h-13.44c-3.76,0-7.02-2.64-7.81-6.32l-4.27-19.73c-5.86-1.78-11.6-4.18-17.14-7.17l-17.18,10.99c-3.18,2.02-7.3,1.58-9.97-1.09l-18.9-18.88c-2.66-2.66-3.1-6.8-1.07-9.97l10.99-17.18c-2.99-5.55-5.39-11.3-7.17-17.17l-19.76-4.38c-3.68-.82-6.29-4.08-6.29-7.82v-26.56c0-3.74,2.61-7.01,6.27-7.81l19.76-4.38c1.78-5.87,4.18-11.62,7.17-17.15l-10.96-17.04c-2.05-3.15-1.62-7.31,1.04-9.97l18.9-19.04c2.64-2.69,6.8-3.14,9.98-1.1l17.18,10.99c5.55-2.99,11.28-5.39,17.14-7.17l4.27-19.73c.93-4.34,5.26-7.09,9.5-6.13,4.32.93,7.06,5.18,6.13,9.5l-5.28,24.48c-.64,3.01-2.96,5.36-5.94,6.08-7.55,1.82-14.91,4.9-21.89,9.14-2.59,1.6-5.89,1.55-8.46-.08l-15.84-10.13-9.82,9.89,10.13,15.71c1.68,2.58,1.71,5.89.11,8.5-4.24,6.96-7.31,14.32-9.12,21.87-.72,2.98-3.06,5.28-6.05,5.95l-18.22,4.03v13.71l18.22,4.05c2.99.67,5.33,2.98,6.05,5.95,1.81,7.55,4.9,14.91,9.12,21.87,1.6,2.61,1.57,5.9-.1,8.48l-10.14,15.84,9.79,9.79,15.86-10.14c2.58-1.63,5.89-1.66,8.46-.08,6.98,4.24,14.34,7.31,21.87,9.14,2.99.72,5.3,3.09,5.94,6.08l3.94,18.18h6.99c4.42,0,8,3.58,8,8s-3.58,8-8,8h0Z" fill="#fff"/>
      <g>
        <path d="m240,226.75c-7.32,0-13.25,5.93-13.25,13.25s5.93,13.25,13.25,13.25,13.25-5.93,13.25-13.25c0-7.31-5.94-13.24-13.25-13.25Zm0,21.2c-4.39,0-7.95-3.56-7.95-7.95s3.56-7.95,7.95-7.95,7.95,3.56,7.95,7.95-3.56,7.95-7.95,7.95Z" fill="#fff"/>
        <path d="m286.11,240c3.98-3.37,7.77-6.96,11.34-10.76,11.33-12.26,15.28-22.28,11.41-28.99-5.57-9.63-24.26-7.84-45.79-.19-4.15-22.47-11.95-39.56-23.07-39.56s-18.92,17.09-23.05,39.56c-21.53-7.65-40.24-9.44-45.79.19-3.87,6.7.08,16.73,11.41,28.99,3.57,3.8,7.35,7.4,11.33,10.76-3.98,3.37-7.77,6.96-11.34,10.76-11.33,12.26-15.27,22.28-11.4,28.99,2.65,4.59,8.3,6.59,15.82,6.59,10.27-.5,20.4-2.67,29.98-6.41,4.14,22.48,11.94,39.57,23.05,39.57s18.92-17.09,23.06-39.56c9.58,3.74,19.7,5.9,29.97,6.41,7.52,0,13.16-2,15.82-6.59,3.87-6.7-.08-16.73-11.41-28.99-3.57-3.8-7.35-7.4-11.33-10.76Zm18.16-37.1c2.48,4.3-1.52,12.8-10.71,22.74-3.64,3.87-7.5,7.52-11.58,10.93-4.89-3.93-10.22-7.84-15.94-11.62-.42-6.71-1.11-13.32-2.08-19.61,21.36-7.67,36.93-8.27,40.3-2.44h0Zm-53.67,55.46c-3.59,2.07-7.13,4-10.6,5.78-3.47-1.78-7-3.71-10.6-5.78-3.55-2.05-6.97-4.17-10.31-6.32-.19-3.88-.29-7.9-.29-12.04s.1-8.15.29-12.04c3.34-2.15,6.76-4.27,10.31-6.32,3.59-2.07,7.12-4,10.6-5.78,3.47,1.79,7.01,3.71,10.6,5.78,3.55,2.05,6.97,4.17,10.31,6.32.19,3.88.29,7.9.29,12.04s-.1,8.15-.29,12.04c-3.34,2.15-6.76,4.27-10.31,6.32Zm9.89.24c-.39,4.98-.92,9.71-1.59,14.16-4.18-1.65-8.55-3.55-13.06-5.71,2.49-1.32,4.97-2.68,7.4-4.09,2.44-1.41,4.88-2.88,7.25-4.36Zm-26.34,8.44c-4.51,2.16-8.88,4.06-13.06,5.71-.66-4.44-1.2-9.17-1.59-14.16,2.37,1.48,4.78,2.93,7.24,4.36,2.44,1.41,4.92,2.76,7.41,4.09Zm-20.5-18.62c-4.03-2.76-7.84-5.56-11.43-8.41,3.58-2.84,7.38-5.65,11.43-8.42-.1,2.81-.15,5.62-.15,8.42s.06,5.61.15,8.42h0Zm5.86-27.02c.39-4.98.92-9.71,1.59-14.15,4.18,1.65,8.54,3.55,13.05,5.71-2.49,1.32-4.95,2.68-7.38,4.09-2.47,1.43-4.89,2.89-7.25,4.37h0Zm26.35-8.44c4.5-2.16,8.88-4.06,13.06-5.71.66,4.44,1.2,9.17,1.59,14.16-2.37-1.49-4.79-2.94-7.25-4.37-2.43-1.4-4.9-2.75-7.39-4.08Zm20.49,18.63c4.03,2.76,7.84,5.56,11.43,8.41-3.58,2.84-7.38,5.64-11.43,8.42.09-2.81.15-5.62.15-8.42s-.06-5.61-.15-8.42h0Zm-26.35-65.78c6.75,0,14,13.8,18.03,36.13-5.93,2.31-12.01,5.01-18.02,8.01-6.03-3-12.11-5.7-18.02-8.01,4-22.33,11.26-36.13,18.01-36.13Zm-53.55,59.84c-9.19-9.94-13.19-18.44-10.71-22.74,1.5-2.59,5.39-3.91,11.13-3.91,10.01.53,19.86,2.67,29.18,6.36-.97,6.28-1.66,12.89-2.08,19.59-5.72,3.78-11.05,7.68-15.94,11.62-4.07-3.4-7.94-7.05-11.58-10.92Zm-10.71,51.46c-2.48-4.3,1.52-12.8,10.71-22.74,3.64-3.87,7.5-7.52,11.58-10.93,4.89,3.93,10.22,7.84,15.94,11.62.42,6.71,1.11,13.32,2.08,19.61-21.36,7.67-36.94,8.27-40.31,2.44Zm64.26,37.1c-6.74,0-14-13.8-18.02-36.13,5.93-2.31,12.01-5.01,18.03-8.01,6.03,3,12.1,5.7,18.03,8.01-4.05,22.33-11.3,36.13-18.05,36.13Zm64.26-37.1c-3.37,5.83-18.95,5.23-40.31-2.45.97-6.28,1.66-12.89,2.08-19.61,5.72-3.78,11.05-7.68,15.94-11.61,4.08,3.41,7.94,7.06,11.58,10.93,9.19,9.95,13.19,18.45,10.71,22.74Z" fill="#fff"/>
      </g>
    </g>
  </g>
</svg>