<?xml version="1.0" encoding="UTF-8"?>
<svg id="Layer_1" data-name="Layer 1" xmlns="http://www.w3.org/2000/svg" viewBox="0 0 496.48 488.73">
  <path d="m433.65,407.27H62.84c-4.65,0-7.76-3.1-7.76-7.76v-235.83c0-4.65,3.1-7.76,7.76-7.76h47.32c4.65,0,7.76,3.1,7.76,7.76s-3.1,7.76-7.76,7.76h-39.56v220.32h355.3v-220.32h-41.89c-4.65,0-7.76-3.1-7.76-7.76s3.1-7.76,7.76-7.76h49.65c4.65,0,7.76,3.1,7.76,7.76v235.83c0,4.65-3.1,7.76-7.76,7.76Z" fill="#fff"/>
  <path d="m456.92,488.73H39.56c-22.5,0-39.56-17.07-39.56-39.56v-18.62c0-4.65,3.1-7.76,7.76-7.76h189.28c4.65,0,7.76,3.1,7.76,7.76v6.21c0,4.65,3.88,6.98,6.98,6.98h72.92c4.65,0,6.98-3.88,6.98-6.98v-6.21c0-4.65,3.1-7.76,7.76-7.76h189.28c4.65,0,7.76,3.1,7.76,7.76v18.62c0,22.5-17.07,39.56-39.56,39.56ZM15.52,438.3v10.86c0,13.19,10.86,24.05,24.05,24.05h417.36c13.19,0,24.05-10.86,24.05-24.05v-10.86h-173.77c-.78,11.64-10.86,20.95-22.5,20.95h-72.92c-11.64,0-21.72-9.31-22.5-20.95H15.52Z" fill="#fff"/>
  <path d="m191.61,188.51h-42.67c-31.03,0-55.85-24.82-55.85-55.85,0-27.15,20.17-50.42,46.55-55.08-.78-3.88-1.55-7.76-1.55-11.64C138.08,29.48,167.56,0,204.02,0c28.7,0,52.75,17.84,62.06,42.67,9.31-7.76,20.95-12.41,34.13-12.41,29.48,0,53.53,24.05,53.53,53.53,0,4.65-3.1,7.76-7.76,7.76s-7.76-3.1-7.76-7.76c0-20.95-17.07-38.01-38.01-38.01-12.41,0-22.5,5.43-30.25,14.74v5.43c0,4.65-3.1,7.76-7.76,7.76s-7.76-3.1-7.76-7.76c0-27.93-22.5-50.42-50.42-50.42s-50.42,22.5-50.42,50.42c0,6.21,1.55,11.64,3.1,16.29.78,2.33,0,4.65-1.55,6.98s-3.88,3.1-6.21,3.1c-22.5,0-40.34,17.84-40.34,40.34s17.84,40.34,40.34,40.34h42.67c4.65,0,7.76,3.1,7.76,7.76s-3.1,7.76-7.76,7.76h0Z" fill="#fff"/>
  <path d="m346.76,187.73h-41.89c-4.65,0-7.76-3.1-7.76-7.76s3.1-7.76,7.76-7.76h41.89c22.5,0,40.34-17.84,40.34-40.34s-17.84-40.34-40.34-40.34c-4.65,0-10.86,1.55-15.52,3.1-3.88,1.55-8.53,0-10.08-3.88s0-8.53,3.88-10.08c6.21-3.1,14.74-4.65,21.72-4.65,31.03,0,55.85,24.82,55.85,55.85s-24.82,55.85-55.85,55.85Z" fill="#fff"/>
  <path d="m254.45,227.3c-3.88,0-6.98-2.33-7.76-6.21-.78-2.33-1.55-5.43-3.88-6.21-.78,0-3.1,1.55-3.88,4.65-1.55,3.88-5.43,5.43-9.31,4.65-9.31-2.33-18.62-6.98-26.38-13.96-3.1-2.33-3.1-6.21-1.55-9.31s2.33-6.21,1.55-6.98-3.1-1.55-6.98,0-7.76,0-9.31-3.88c-4.65-7.76-6.98-17.07-7.76-27.93,0-3.88,2.33-6.98,6.21-8.53,2.33-.78,5.43-1.55,6.21-3.88,0-.78-1.55-3.1-4.65-3.88-3.88-1.55-5.43-5.43-4.65-9.31,2.33-9.31,6.98-18.62,13.96-26.38,2.33-3.1,6.21-3.1,9.31-1.55,3.88,2.33,6.21,1.55,6.98,1.55.78-.78,1.55-3.1,0-6.98s0-7.76,3.88-9.31c7.76-4.65,17.07-6.98,27.93-7.76,3.88,0,6.98,2.33,8.53,6.21.78,2.33,1.55,5.43,3.88,6.21.78,0,3.1-1.55,3.88-4.65,1.55-3.88,5.43-5.43,9.31-4.65,9.31,2.33,18.62,6.98,26.38,13.96,3.1,2.33,3.1,6.21,1.55,9.31-3.1,3.88-3.1,6.98-2.33,7.76s3.1,1.55,6.98,0,7.76,0,9.31,3.88c4.65,7.76,6.98,17.07,7.76,27.93,0,3.88-2.33,7.76-6.98,8.53-3.1.78-4.65,2.33-4.65,2.33v1.55c0,.78,1.55,3.1,4.65,3.88,3.88,1.55,5.43,5.43,4.65,9.31-2.33,9.31-6.98,18.62-13.96,26.38-2.33,3.1-6.21,3.1-9.31,1.55-3.88-2.33-6.21-1.55-6.98-1.55-.78.78-1.55,3.1,0,6.98s0,7.76-3.88,9.31c-7.76,3.1-17.07,6.21-28.7,6.98h0Zm-11.64-27.15h2.33c3.88.78,10.08,2.33,13.96,10.86,3.88-.78,7.76-1.55,10.86-3.1-.78-6.98,1.55-13.19,6.21-17.07s10.86-4.65,17.84-2.33c2.33-3.1,3.88-6.98,5.43-10.08-5.43-3.88-8.53-10.86-7.76-16.29,0-6.21,4.65-11.64,10.86-14.74-.78-3.88-1.55-6.98-3.1-10.08-6.98.78-13.19-1.55-17.07-6.21s-4.65-10.86-2.33-17.84c-3.1-2.33-6.98-3.88-10.08-5.43-4.65,5.43-10.86,8.53-17.07,7.76-3.88-.78-10.08-2.33-13.96-10.86-3.88.78-7.76,1.55-10.86,3.1.78,6.98-1.55,13.19-6.21,17.07s-11.64,4.65-17.84,2.33c-2.33,3.1-3.88,6.98-5.43,10.08,5.43,4.65,8.53,10.86,7.76,17.07-.78,3.88-2.33,10.08-10.86,13.96.78,3.88,1.55,7.76,3.1,10.86,6.98-.78,13.19,1.55,17.07,6.21s4.65,10.86,2.33,17.84c3.1,2.33,6.98,3.88,10.08,5.43,3.88-5.43,9.31-8.53,14.74-8.53Z" fill="#fff"/>
  <path d="m249.79,189.28h-3.88c-17.84-2.33-31.03-18.62-29.48-36.46,2.33-17.84,18.62-31.03,36.46-29.48,17.84,2.33,31.03,18.62,29.48,36.46-1.55,17.07-16.29,29.48-32.58,29.48h0Zm-.78-50.42c-8.53,0-16.29,6.98-17.07,15.52-.78,9.31,6.21,18.62,15.52,19.39,4.65.78,9.31-.78,13.19-3.88s6.21-6.98,6.21-11.64c.78-9.31-6.21-18.62-15.52-19.39h-2.33Z" fill="#fff"/>
  <path d="m387.1,361.5h-38.01c-4.65,0-7.76-3.1-7.76-7.76v-54.3h-14.74c-3.1,0-5.43-1.55-6.98-4.65s-.78-6.21.78-8.53l41.12-49.65c1.55-1.55,3.88-3.1,6.21-3.1s4.65.78,6.21,3.1l41.12,49.65c1.55,2.33,2.33,5.43.78,8.53s-3.88,4.65-6.98,4.65h-13.96v54.3c0,4.65-3.1,7.76-7.76,7.76h0Zm-30.25-15.52h22.5v-54.3c0-4.65,3.1-7.76,7.76-7.76h5.43l-24.82-29.48-24.82,29.48h6.21c4.65,0,7.76,3.1,7.76,7.76v54.3Z" fill="#fff"/>
  <path d="m128.78,361.5c-2.33,0-4.65-.78-6.21-3.1l-41.12-49.65c-1.55-2.33-2.33-5.43-.78-8.53s3.88-4.65,6.98-4.65h13.96v-54.3c0-4.65,3.1-7.76,7.76-7.76h38.01c4.65,0,7.76,3.1,7.76,7.76v54.3h14.74c3.1,0,5.43,1.55,6.98,4.65s.78,6.21-.78,8.53l-41.12,49.65c-1.55,2.33-3.88,3.1-6.21,3.1h0Zm-24.82-49.65l24.82,29.48,24.82-29.48h-6.21c-4.65,0-7.76-3.1-7.76-7.76v-54.3h-22.5v54.3c0,4.65-3.1,7.76-7.76,7.76h-5.43Z" fill="#fff"/>
  <path d="m295.56,373.14h-94.64c-4.65,0-7.76-3.1-7.76-7.76v-119.47c0-4.65,3.1-7.76,7.76-7.76h65.16c2.33,0,3.88.78,5.43,2.33l29.48,29.48c1.55,1.55,2.33,3.1,2.33,5.43v89.99c0,4.65-3.1,7.76-7.76,7.76h0Zm-86.88-15.52h79.13v-79.13l-24.82-24.82h-54.3v103.95Z" fill="#fff"/>
  <path d="m464.68,438.3h-159.03c-4.65,0-7.76-3.1-7.76-7.76s3.1-7.76,7.76-7.76h151.27V160.58c0-11.64-8.53-20.17-20.17-20.17h-37.24c-4.65,0-7.76-3.1-7.76-7.76s3.1-7.76,7.76-7.76h37.24c19.39,0,35.68,16.29,35.68,35.68v269.96c0,4.65-3.1,7.76-7.76,7.76Z" fill="#fff"/>
  <path d="m189.28,438.3H31.81c-4.65,0-7.76-3.1-7.76-7.76V160.58c0-19.39,16.29-35.68,35.68-35.68h37.24c4.65,0,7.76,3.1,7.76,7.76s-3.1,7.76-7.76,7.76h-37.24c-11.64,0-20.17,8.53-20.17,20.17v262.21h149.72c4.65,0,7.76,3.1,7.76,7.76s-3.1,7.76-7.76,7.76Z" fill="#fff"/>
  <path d="m248.24,283.15h-15.52c-4.65,0-7.76-3.1-7.76-7.76s3.1-7.76,7.76-7.76h15.52c4.65,0,7.76,3.1,7.76,7.76s-3.1,7.76-7.76,7.76Z" fill="#fff"/>
  <path d="m263.76,313.41h-31.03c-4.65,0-7.76-3.1-7.76-7.76s3.1-7.76,7.76-7.76h31.03c4.65,0,7.76,3.1,7.76,7.76s-3.1,7.76-7.76,7.76Z" fill="#fff"/>
  <path d="m263.76,343.66h-31.03c-4.65,0-7.76-3.1-7.76-7.76s3.1-7.76,7.76-7.76h31.03c4.65,0,7.76,3.1,7.76,7.76s-3.1,7.76-7.76,7.76Z" fill="#fff"/>
</svg>