<?xml version="1.0" encoding="UTF-8"?>
<svg id="Layer_1" data-name="Layer 1" xmlns="http://www.w3.org/2000/svg" viewBox="0 0 333.34 481.89">
  <path d="m331.4,21.06c-.36-.98-.77-1.95-1.22-2.88-1.13-2.34-2.53-4.52-4.16-6.5-4.25-5.15-10.08-8.95-16.75-10.67-.51-.13-1.03-.25-1.55-.36-1.57-.32-3.18-.53-4.82-.61-.55-.03-1.1-.04-1.65-.04H32.11C14.36,0,0,14.35,0,32.12v417.66c0,17.76,14.35,32.11,32.11,32.11h269.12c17.76,0,32.11-14.35,32.11-32.11V32.12c0-3.89-.68-7.61-1.94-11.05h0Zm-186.07-.45h71.11c4.02,0,7.23,3.22,7.23,7.17s-3.22,7.23-7.23,7.23h-71.11c-3.96,0-7.17-3.22-7.17-7.23s3.22-7.17,7.17-7.17Zm-28.49,0h.11c4.02,0,7.23,3.22,7.23,7.17s-3.22,7.23-7.23,7.23h-.11c-3.96,0-7.17-3.22-7.17-7.23s3.22-7.17,7.17-7.17Zm60.71,437.58h-21.73c-7.55,0-13.41-6.05-13.41-13.41s5.86-13.41,13.41-13.41h21.73c7.55,0,13.41,6.04,13.41,13.41s-5.86,13.41-13.41,13.41Zm123.69-57.34H32.13c-4.16,0-7.53-3.37-7.53-7.53V60.08c0-4.16,3.37-7.53,7.53-7.53h269.11c4.16,0,7.53,3.37,7.53,7.53v333.25c0,4.16-3.37,7.53-7.53,7.53h0Z" fill="#fff"/>
  <g>
    <g>
      <path d="m81.12,94.71c0,1.91-.77,3.63-2.02,4.88-1.25,1.24-2.98,2.02-4.88,2.02h-11.72c-3.81,0-6.9-3.09-6.9-6.9,0-1.91.77-3.63,2.02-4.88,1.25-1.24,2.98-2.02,4.88-2.02h11.72c3.81,0,6.9,3.09,6.9,6.9Z" fill="#fff"/>
      <path d="m172.38,94.71c0,1.91-.77,3.63-2.02,4.88-1.25,1.24-2.98,2.02-4.88,2.02h-63.71c-3.81,0-6.9-3.09-6.9-6.9,0-1.91.77-3.63,2.02-4.88,1.25-1.24,2.98-2.02,4.88-2.02h63.71c3.81,0,6.9,3.09,6.9,6.9h0Z" fill="#fff"/>
    </g>
    <path d="m133.63,126.25c0,1.91-.77,3.63-2.02,4.88-1.25,1.24-2.98,2.02-4.88,2.02h-63.71c-3.81,0-6.9-3.09-6.9-6.9,0-1.91.77-3.63,2.02-4.88,1.25-1.24,2.98-2.02,4.88-2.02h63.71c3.81,0,6.9,3.09,6.9,6.9h0Z" fill="#fff"/>
  </g>
  <g>
    <path d="m189.87,147.9l3.75,30.92h-53.87l3.75-30.92c.37-3.01,2.77-5.38,5.78-5.68,11.6-1.17,23.2-1.17,34.8,0,3.02.3,5.42,2.67,5.78,5.68h0Z" fill="#fff"/>
    <path d="m143.5,359.05l-3.75-30.92h53.87l-3.75,30.92c-.37,3.01-2.77,5.38-5.78,5.68-11.6,1.17-23.2,1.17-34.8,0-3.02-.3-5.42-2.67-5.78-5.68h0Z" fill="#fff"/>
  </g>
  <g>
    <path d="m108.43,162.43l24.52,19.21-38.09,38.09-19.21-24.52c-1.87-2.39-1.85-5.76.07-8.11,7.38-9.03,15.58-17.23,24.61-24.61,2.35-1.92,5.72-1.94,8.11-.07h-.01Z" fill="#fff"/>
    <path d="m224.95,344.53l-24.52-19.21,38.09-38.09,19.21,24.52c1.87,2.39,1.85,5.76-.07,8.11-7.38,9.03-15.58,17.23-24.61,24.61-2.35,1.92-5.72,1.94-8.11.07h.01Z" fill="#fff"/>
  </g>
  <g>
    <path d="m61.11,230.29l30.92-3.75v53.87l-30.92-3.75c-3.01-.37-5.38-2.77-5.68-5.78-1.17-11.6-1.17-23.2,0-34.8.3-3.02,2.67-5.42,5.68-5.78h0Z" fill="#fff"/>
    <path d="m272.26,276.66l-30.92,3.75v-53.87l30.92,3.75c3.01.37,5.38,2.77,5.68,5.78,1.17,11.6,1.17,23.2,0,34.8-.3,3.02-2.67,5.42-5.68,5.78h0Z" fill="#fff"/>
  </g>
  <g>
    <path d="m75.64,311.74l19.21-24.52,38.09,38.09-24.52,19.21c-2.39,1.87-5.76,1.85-8.11-.07-9.03-7.38-17.23-15.58-24.61-24.61-1.92-2.35-1.94-5.72-.07-8.11h.01Z" fill="#fff"/>
    <path d="m257.74,195.22l-19.21,24.52-38.09-38.09,24.52-19.21c2.39-1.87,5.76-1.85,8.11.07,9.03,7.38,17.23,15.58,24.61,24.61,1.92,2.35,1.94,5.72.07,8.11h-.01Z" fill="#fff"/>
  </g>
  <path d="m166.69,164.91c-48.92,0-88.57,39.65-88.57,88.57s39.65,88.57,88.57,88.57,88.57-39.65,88.57-88.57-39.65-88.57-88.57-88.57Zm0,151.66c-34.84,0-63.09-28.25-63.09-63.09s28.25-63.09,63.09-63.09,63.09,28.25,63.09,63.09-28.25,63.09-63.09,63.09Z" fill="#fff"/>
  <g>
    <path d="m143.9,234.24c-.38-.86-.93-1.57-1.62-2.12-.75-.59-1.65-.89-2.71-.89h-.6c-1.05,0-1.96.3-2.71.89-.7.55-1.24,1.27-1.63,2.14l-15.37,36.28c-.25.6-.37,1.11-.37,1.56,0,1,.34,1.87,1.01,2.56,1.15,1.2,3.16,1.43,4.65.47.61-.4,1.07-.94,1.4-1.65l3.68-8.84h19.27l3.7,8.87c.31.68.78,1.22,1.38,1.62.61.4,1.3.6,2.03.6,1.06,0,1.94-.36,2.61-1.06s1.01-1.56,1.01-2.56c0-.45-.12-.96-.37-1.56l-15.37-36.29v-.02Zm2.15,23.56h-13.54l6.77-16.29,6.77,16.29h0Z" fill="#fff"/>
    <path d="m193.81,233.57c-2.53-1.35-5.82-2.03-9.77-2.03h-13.74c-1.02,0-1.89.37-2.59,1.09-.69.72-1.03,1.59-1.03,2.59v36.88c0,1.01.35,1.87,1.05,2.57h0c.7.7,1.56,1.05,2.58,1.05s1.87-.35,2.59-1.04c.72-.7,1.09-1.57,1.09-2.58v-11.98h10.06c3.95,0,7.24-.69,9.77-2.03,2.56-1.37,4.44-3.16,5.56-5.33,1.11-2.13,1.67-4.46,1.67-6.93s-.56-4.79-1.67-6.93c-1.13-2.17-3-3.96-5.56-5.33h0Zm-.08,12.25c0,2.09-.72,3.78-2.21,5.18s-4.19,2.1-8.02,2.1h-9.51v-14.57h9.51c3.84,0,6.54.71,8.02,2.11,1.49,1.4,2.21,3.09,2.21,5.18h0Z" fill="#fff"/>
    <path d="m213.4,232.31c-1.44-1.44-3.8-1.43-5.19,0-.69.72-1.03,1.59-1.03,2.59v37.18c0,1.01.35,1.87,1.05,2.57h0c.7.7,1.56,1.05,2.58,1.05s1.87-.35,2.59-1.04c.72-.7,1.09-1.57,1.09-2.58v-37.18c0-1.01-.36-1.89-1.08-2.61h0Z" fill="#fff"/>
  </g>
</svg>