<?xml version="1.0" encoding="UTF-8"?>
<svg id="Layer_1" data-name="Layer 1" xmlns="http://www.w3.org/2000/svg" viewBox="0 0 406.11 466.01">
  <path d="m365.34,466.01H40.77c-4.42,0-8-3.58-8-8v-48.38c0-4.42,3.58-8,8-8s8,3.58,8,8v40.39h308.57v-40.39c0-4.42,3.58-8,8-8s8,3.58,8,8v48.38c0,4.42-3.58,8-8,8Z" fill="#fff"/>
  <path d="m365.34,294.2c-4.42,0-8-3.58-8-8V104.12h-81.63c-4.42,0-8-3.58-8-8V16.01H48.77v270.18c0,4.42-3.58,8-8,8s-8-3.58-8-8V8.01C32.77,3.59,36.35.01,40.77.01h234.94c4.42,0,8,3.58,8,8v80.1h81.63c4.42,0,8,3.58,8,8v190.09c0,4.43-3.58,8.01-8,8.01Z" fill="#fff"/>
  <path d="m365.34,104.12c-2.02,0-4.05-.77-5.61-2.3L270.11,13.71c-3.15-3.09-3.2-8.16-.09-11.32,3.09-3.15,8.16-3.2,11.32-.09l89.63,88.11c3.15,3.09,3.2,8.16.09,11.32-1.57,1.59-3.64,2.39-5.71,2.39h0Z" fill="#fff"/>
  <path d="m389.43,417.61H16.68c-9.2,0-16.68-7.48-16.68-16.68v-106.06c0-9.2,7.48-16.68,16.68-16.68h372.74c9.2,0,16.68,7.48,16.68,16.68v106.06c-.01,9.2-7.5,16.68-16.68,16.68ZM16.68,294.2c-.37,0-.67.3-.67.67v106.06c0,.37.3.67.67.67h372.74c.37,0,.67-.3.67-.67v-106.06c0-.37-.3-.67-.67-.67H16.68Z" fill="#fff"/>
  <path d="m266.6,232.1c-1.98,0-3.97-.73-5.53-2.21-3.2-3.05-3.32-8.12-.26-11.32l26.15-27.42-26.15-27.42c-3.05-3.2-2.93-8.26.26-11.32s8.26-2.93,11.32.26l31.42,32.94c2.95,3.09,2.95,7.96,0,11.04l-31.42,32.94c-1.57,1.65-3.68,2.49-5.79,2.49Z" fill="#fff"/>
  <path d="m139.51,232.1c-2.12,0-4.22-.83-5.79-2.47l-31.42-32.94c-2.95-3.09-2.95-7.96,0-11.04l31.42-32.94c3.05-3.2,8.12-3.32,11.32-.26s3.32,8.12.26,11.32l-26.15,27.42,26.15,27.42c3.05,3.2,2.93,8.26-.26,11.32-1.56,1.45-3.54,2.19-5.53,2.19h0Z" fill="#fff"/>
  <path d="m189.19,239.25c-.87,0-1.74-.15-2.62-.44-4.18-1.44-6.39-6-4.94-10.18l27.73-80.18c1.44-4.18,6-6.39,10.18-4.94,4.18,1.44,6.39,6,4.94,10.18l-27.73,80.18c-1.15,3.3-4.24,5.38-7.56,5.38h0Z" fill="#fff"/>
  <g>
    <path d="m208.98,386.44c-3.15,0-6-1.85-7.3-4.72l-26.55-59.07c-1.81-4.03-.01-8.76,4.02-10.58s8.76-.01,10.58,4.02l19.25,42.83,19.25-42.83c1.81-4.03,6.54-5.83,10.58-4.02s5.83,6.54,4.02,10.58l-26.55,59.07c-1.28,2.87-4.14,4.72-7.3,4.72Z" fill="#fff"/>
    <g>
      <path d="m157.41,386.44c-4.42,0-8-3.58-8-8v-30.18l-10.21,17c-1.44,2.41-4.05,3.89-6.86,3.89s-5.42-1.48-6.86-3.89l-10.21-17v30.18c0,4.42-3.58,8-8,8s-8-3.58-8-8v-59.07c0-3.6,2.39-6.76,5.87-7.71,3.46-.97,7.15.52,8.99,3.6l18.2,30.34,18.2-30.34c1.85-3.08,5.53-4.55,8.99-3.6,3.46.97,5.87,4.11,5.87,7.71v59.07c.01,4.42-3.57,8-8,8Z" fill="#fff"/>
      <g>
        <path d="m261.79,384.44c-4.42,0-8-3.58-8-8v-59.07c0-4.42,3.58-8,8-8s8,3.58,8,8v59.07c0,4.42-3.58,8-8,8Z" fill="#fff"/>
        <path d="m283.58,355.87h-21.79c-4.42,0-8-3.58-8-8s3.58-8,8-8h21.79c3.99,0,7.24-3.25,7.24-7.24s-3.25-7.24-7.24-7.24h-21.79c-4.42,0-8-3.58-8-8s3.58-8,8-8h21.79c12.82,0,23.25,10.43,23.25,23.25-.01,12.8-10.44,23.23-23.25,23.23h0Z" fill="#fff"/>
      </g>
    </g>
  </g>
</svg>