<svg id="Layer_1" enable-background="new 0 0 512 512" height="512" viewBox="0 0 512 512" width="512" xmlns="http://www.w3.org/2000/svg"><path d="m504 256c0 66.243-25.797 128.521-72.638 175.362-46.841 46.842-109.119 72.638-175.362 72.638-52.735 0-104.153-16.9-146.467-47.869l5.167 18.11c1.212 4.249-1.249 8.676-5.498 9.888-.733.209-1.472.309-2.199.309-3.483 0-6.686-2.292-7.689-5.807l-12.148-42.578c-.675-2.365-.224-4.909 1.222-6.898 1.446-1.99 3.726-3.204 6.184-3.292l44.248-1.59c4.408-.17 8.124 3.292 8.282 7.708.159 4.415-3.292 8.123-7.708 8.282l-23.252.836c40.111 30.315 89.335 46.901 139.858 46.901 127.925 0 232-104.075 232-232 0-41.027-10.857-81.346-31.398-116.599-2.225-3.817-.933-8.715 2.885-10.939 3.816-2.224 8.715-.934 10.939 2.885 21.964 37.695 33.574 80.799 33.574 124.653zm-480 0c0-127.925 104.075-232 232-232 50.511 0 99.729 16.586 139.841 46.901l-23.235.835c-4.416.159-7.866 3.867-7.708 8.282.155 4.318 3.704 7.713 7.99 7.713.097 0 .195-.001.292-.005l44.249-1.59c2.458-.088 4.738-1.302 6.184-3.292 1.446-1.989 1.896-4.533 1.222-6.898l-12.148-42.578c-1.212-4.249-5.64-6.711-9.888-5.498-4.249 1.212-6.71 5.639-5.498 9.888l5.172 18.127c-42.321-30.979-93.74-47.885-146.473-47.885-66.243 0-128.521 25.797-175.362 72.638-46.842 46.841-72.638 109.119-72.638 175.362 0 43.864 11.609 86.975 33.574 124.671 1.486 2.551 4.166 3.974 6.919 3.974 1.368 0 2.753-.351 4.02-1.089 3.817-2.224 5.109-7.122 2.885-10.939-20.541-35.254-31.398-75.58-31.398-116.617zm275.886 1.437c2.122 0 4.157.843 5.657 2.343s2.343 3.535 2.343 5.657c0 28.609-23.276 51.885-51.886 51.885s-51.885-23.275-51.885-51.885c0-4.418 3.582-8 8-8zm-8.899 16h-69.973c3.645 15.949 17.948 27.885 34.986 27.885s31.341-11.936 34.987-27.885zm-204.051 21.957c-3.088-1.188-5.126-4.156-5.126-7.466v-22.491c0-4.418 3.582-8 8-8h87.742c4.418 0 8 3.582 8 8 0 38.845 31.603 70.448 70.449 70.448s70.449-31.603 70.449-70.448c0-4.418 3.582-8 8-8h87.742c4.418 0 8 3.582 8 8v22.49c0 3.31-2.038 6.277-5.126 7.466l-23.675 9.113c-3.388 12.633-8.407 24.739-14.964 36.092l10.303 23.202c1.344 3.024.686 6.563-1.654 8.904l-31.807 31.808c-2.34 2.34-5.878 2.999-8.904 1.654l-23.193-10.301c-11.351 6.557-23.462 11.578-36.103 14.967l-9.111 23.669c-1.188 3.088-4.156 5.126-7.466 5.126h-44.982c-3.31 0-6.277-2.038-7.466-5.126l-9.113-23.675c-12.634-3.388-24.741-8.408-36.092-14.964l-23.202 10.305c-3.024 1.342-6.564.686-8.904-1.655l-31.808-31.808c-2.34-2.34-2.998-5.879-1.654-8.904l10.3-23.193c-6.556-11.351-11.577-23.462-14.966-36.103zm10.874-12.959 22.407 8.625c2.462.947 4.298 3.047 4.909 5.614 3.298 13.857 8.765 27.046 16.25 39.199 1.383 2.247 1.57 5.031.499 7.442l-9.752 21.959 24.04 24.04 21.968-9.756c2.412-1.071 5.195-.883 7.442.499 12.155 7.485 25.34 12.952 39.188 16.248 2.566.611 4.667 2.447 5.614 4.909l8.627 22.414h33.997l8.625-22.408c.947-2.461 3.048-4.298 5.614-4.909 13.857-3.297 27.045-8.764 39.199-16.25 2.246-1.384 5.031-1.572 7.442-.5l21.959 9.753 24.039-24.04-9.757-21.968c-1.071-2.411-.884-5.195.5-7.441 7.486-12.159 12.953-25.344 16.248-39.189.611-2.566 2.447-4.667 4.909-5.614l22.414-8.628v-8.998h-72.109c-4.05 43.932-41.111 78.448-86.082 78.448s-82.032-34.517-86.082-78.448h-72.108zm332.334-69.179c.242 2.257-.487 4.51-2.004 6.198s-3.68 2.653-5.95 2.653h-92.322c.288 1.649.542 3.31.723 4.997.242 2.257-.487 4.511-2.004 6.199s-3.68 2.653-5.95 2.653h-133.271c-2.27 0-4.433-.964-5.95-2.652s-2.246-3.942-2.004-6.199c.181-1.688.435-3.349.723-4.998h-92.322c-2.27 0-4.433-.964-5.95-2.652s-2.246-3.942-2.004-6.199c2.54-23.74 17.67-43.25 38.352-52.233-6.659-6.627-10.788-15.794-10.788-25.908 0-20.164 16.405-36.568 36.569-36.568s36.568 16.404 36.568 36.568c0 10.151-4.16 19.345-10.861 25.978 11.509 5.038 21.445 13.366 28.383 23.992 7.659-8.548 17.235-15.295 28.038-19.601-8.587-7.676-14.004-18.827-14.004-31.224 0-23.096 18.79-41.886 41.886-41.886s41.886 18.79 41.886 41.886c0 12.397-5.418 23.548-14.005 31.224 10.802 4.306 20.379 11.053 28.037 19.601 6.938-10.626 16.875-18.955 28.384-23.992-6.701-6.632-10.86-15.827-10.86-25.977 0-20.164 16.404-36.568 36.568-36.568s36.568 16.404 36.568 36.568c0 10.114-4.129 19.282-10.788 25.908 20.681 8.983 35.811 28.493 38.352 52.232zm-64.14-57.572h.007.007c11.338-.004 20.562-9.229 20.562-20.569 0-11.341-9.227-20.568-20.568-20.568s-20.568 9.227-20.568 20.568c-.001 11.34 9.222 20.565 20.56 20.569zm-110.014 4.463h.01.01c14.269-.005 25.876-11.616 25.876-25.886 0-14.274-11.612-25.886-25.886-25.886s-25.886 11.612-25.886 25.886c0 14.27 11.607 25.881 25.876 25.886zm-110.007-4.463h.007.007c11.338-.004 20.561-9.229 20.561-20.568 0-11.341-9.227-20.568-20.568-20.568-11.342 0-20.569 9.227-20.569 20.568 0 11.339 9.223 20.564 20.562 20.568zm40.813 50.423c.934-2.236 1.976-4.412 3.112-6.528-7.921-16.823-25.121-27.892-43.908-27.896-.004 0-.007 0-.011 0s-.007 0-.011 0c-21.774.005-40.383 14.29-46.43 34.424zm126.256 13.85c-6.728-25.508-29.858-43.804-57.041-43.809-.003 0-.007 0-.01 0-.004 0-.007 0-.011 0-27.184.005-50.314 18.302-57.042 43.81zm99.399-13.85c-6.046-20.134-24.656-34.419-46.429-34.424-.004 0-.007 0-.011 0s-.007 0-.011 0c-18.788.004-35.987 11.072-43.909 27.896 1.136 2.116 2.178 4.292 3.112 6.528z"/></svg>