<?xml version="1.0" encoding="UTF-8"?>
<svg id="Layer_1" data-name="Layer 1" xmlns="http://www.w3.org/2000/svg" viewBox="0 0 479.98 475.4">
  <g id="setting-management-setting-gear-hand">
    <path d="m479.12,223.8l-32-64c-1.32-2.72-4.1-4.43-7.12-4.4h-6.08l-8-8h14.08c4.42,0,8-3.58,8-8v-32c0-4.42-3.58-8-8-8h-14.08l10-9.92c3.12-3.14,3.12-8.22,0-11.36l-22.64-22.64c-3.14-3.12-8.22-3.12-11.36,0l-9.92,10v-14.08c0-4.42-3.58-8-8-8h-32c-4.42,0-8,3.58-8,8v14.08l-9.92-10c-3.14-3.12-8.22-3.12-11.36,0l-22.64,22.64c-3.12,3.14-3.12,8.22,0,11.36l10,9.92h-14.08c-4.42,0-8,3.58-8,8v32c0,4.42,3.58,8,8,8h14.08l-8,8h-46.08v-16.56c-.02-6.74,2.83-13.17,7.84-17.68,29.73-26.41,32.41-71.92,6-101.65-7.36-8.28-16.53-14.76-26.8-18.91-4.09-1.68-8.76.27-10.44,4.36-.4.98-.61,2.02-.6,3.08v55.04l-16,10.72-16-10.72V8.04c.02-4.42-3.54-8.02-7.96-8.04-1.06,0-2.1.2-3.08.6-36.86,14.92-54.64,56.9-39.71,93.76,4.16,10.27,10.63,19.44,18.91,26.8,5.01,4.51,7.86,10.94,7.84,17.68v16.56h-8c-3.02-.03-5.8,1.68-7.12,4.4l-32,64c-1.99,3.95-.4,8.76,3.54,10.74,1.11.56,2.33.85,3.58.86h24v97.76l-16,4v-13.76c0-4.42-3.58-8-8-8h-64c-4.42,0-8,3.58-8,8v8H8c-4.42,0-8,3.58-8,8v112c0,4.42,3.58,8,8,8h56v8c0,4.42,3.58,8,8,8h64c4.42,0,8-3.58,8-8v-11.04l10.32,5.12c7.78,3.87,16.35,5.9,25.04,5.92h119.76c9.84.02,19.5-2.57,28-7.52l134.4-77.6c15.28-8.82,20.52-28.35,11.71-43.63-5.27-9.14-14.71-15.08-25.23-15.89v-87.36h24c4.42-.01,7.99-3.61,7.98-8.02,0-1.24-.3-2.47-.86-3.58ZM64,443.4H16v-96h48v96Zm64,16h-48v-128h48v128Zm176-328v-16h18.8c3.53-.01,6.64-2.31,7.68-5.68.35-1.13.81-2.23,1.36-3.28,1.62-3.1,1.03-6.89-1.44-9.36l-13.36-13.28,11.36-11.36,13.28,13.36c2.47,2.47,6.26,3.06,9.36,1.44,1.05-.55,2.15-1.01,3.28-1.36,3.37-1.04,5.67-4.15,5.68-7.68v-18.8h16v18.8c.01,3.53,2.31,6.64,5.68,7.68,1.13.35,2.23.81,3.28,1.36,3.1,1.62,6.89,1.03,9.36-1.44l13.28-13.36,11.36,11.36-13.36,13.28c-2.47,2.47-3.06,6.26-1.44,9.36.55,1.05,1.01,2.15,1.36,3.28,1.04,3.37,4.15,5.67,7.68,5.68h18.8v16h-18.8c-3.53.01-6.64,2.31-7.68,5.68-.35,1.13-.81,2.23-1.36,3.28-1.62,3.1-1.03,6.89,1.44,9.36l5.76,5.68h-86.72l5.76-5.68c2.47-2.47,3.06-6.26,1.44-9.36-.55-1.05-1.01-2.15-1.36-3.28-1.04-3.37-4.15-5.67-7.68-5.68h-18.8Zm8,65.92l16.88,33.68c1.32,2.72,4.1,4.43,7.12,4.4h96v90.24c-.8.4-1.68.8-2.48,1.2l-78,45.04c-4.26-6.38-10.68-11.01-18.08-13.04l-21.44-5.68v-155.84ZM160,67.4c-.04-18.34,8.93-35.54,24-46v46c.01,2.68,1.36,5.17,3.6,6.64l24,16c2.64,1.84,6.16,1.84,8.8,0l24-16c2.24-1.47,3.59-3.96,3.6-6.64V21.4c25.38,17.67,31.64,52.57,13.97,77.95-2.5,3.6-5.42,6.89-8.69,9.81-8.5,7.52-13.34,18.33-13.28,29.68v16.56h-16v-24c0-4.42-3.58-8-8-8s-8,3.58-8,8v24h-16v-16.56c.05-11.33-4.75-22.13-13.2-29.68-11.97-10.58-18.82-25.79-18.8-41.76Zm-11.04,152l24-48h118.08l-24,48h-118.08Zm147.04-22.08v151.52l-81.92-21.92c-9.19-2.48-18.85-2.56-28.08-.24l-10,2.48v-93.76h96c3.02.03,5.8-1.68,7.12-4.4l16.88-33.68Zm163.28,149.28c4.42,7.62,1.85,17.39-5.76,21.84l-134.4,77.6c-6.08,3.52-12.98,5.37-20,5.36h-119.76c-6.22.01-12.36-1.44-17.92-4.24l-17.44-8.72v-84.8l45.84-11.44c6.6-1.67,13.51-1.61,20.08.16l119.36,32c8.51,2.21,13.62,10.91,11.41,19.42-1.08,4.18-3.82,7.74-7.57,9.86-3.64,2.15-8,2.73-12.08,1.6l-95.44-25.6c-4.29-1.15-8.69,1.39-9.84,5.68s1.39,8.69,5.68,9.84l95.44,25.52c2.71.73,5.51,1.11,8.32,1.12,5.6,0,11.09-1.48,15.92-4.32,7.39-4.22,12.77-11.22,14.96-19.44.89-3.53,1.18-7.18.88-10.8l80.56-46.48c7.64-4.24,17.27-1.66,21.76,5.84Zm-118.32-127.2l-24-48h118.08l24,48h-118.08Z" fill="#00a4e0"/>
    <path d="m400,123.4c0-17.67-14.33-32-32-32s-32,14.33-32,32,14.33,32,32,32,32-14.33,32-32Zm-32,16c-8.84,0-16-7.16-16-16s7.16-16,16-16,16,7.16,16,16-7.16,16-16,16Z" fill="#00a4e0"/>
  </g>
</svg>