<?xml version="1.0" encoding="UTF-8"?>
<svg id="Capa_1" data-name="Capa 1" xmlns="http://www.w3.org/2000/svg" viewBox="0 0 469.91 512">
  <path d="m261.34,299.4c4.09-.67,6.86-4.52,6.19-8.61-3.5-21.41-14.55-41.01-31.09-55.2-16.73-14.35-38.1-22.26-60.18-22.26-51.01,0-92.5,41.49-92.5,92.5s41.49,92.5,92.5,92.5c42.27,0,79.12-28.57,89.6-69.46,1.03-4.01-1.39-8.1-5.4-9.13-4.01-1.03-8.1,1.39-9.13,5.4-8.78,34.26-39.66,58.19-75.07,58.19-42.73,0-77.5-34.77-77.5-77.5s34.77-77.5,77.5-77.5c18.49,0,36.4,6.62,50.41,18.64,13.87,11.89,23.12,28.32,26.05,46.24.67,4.09,4.52,6.86,8.61,6.19h0Z" fill="#00a4e0"/>
  <path d="m176.27,246.72c-32.59,0-59.1,26.51-59.1,59.1s26.51,59.1,59.1,59.1,59.1-26.51,59.1-59.1-26.51-59.1-59.1-59.1Zm0,103.21c-24.32,0-44.1-19.79-44.1-44.1s19.79-44.11,44.1-44.11,44.1,19.79,44.1,44.11-19.79,44.1-44.1,44.1Z" fill="#00a4e0"/>
  <path d="m176.27,276.62c-16.1,0-29.21,13.1-29.21,29.2s13.1,29.2,29.21,29.2,29.21-13.1,29.21-29.2-13.1-29.2-29.21-29.2Zm0,43.41c-7.83,0-14.21-6.37-14.21-14.2s6.37-14.2,14.21-14.2,14.21,6.37,14.21,14.2-6.37,14.2-14.21,14.2Z" fill="#00a4e0"/>
  <path d="m426.12,316.46v-47.46c0-4.14-3.36-7.5-7.5-7.5s-7.5,3.36-7.5,7.5v38.08c-9.74-5.04-20.33-8.64-31.5-10.54v-114.44c0-5.79-4.71-10.5-10.5-10.5h-17.23l43.42-59.02,42.68,59.02h-16.38c-5.79,0-10.5,4.71-10.5,10.5v51.9c0,4.14,3.36,7.5,7.5,7.5s7.5-3.36,7.5-7.5v-47.4h20.68c3.96,0,7.55-2.19,9.35-5.72s1.48-7.72-.84-10.93l-51.46-71.15c-1.96-2.71-5.12-4.33-8.47-4.35h-.04c-3.33,0-6.49,1.6-8.46,4.28l-52.35,71.16c-2.36,3.21-2.71,7.41-.91,10.96,1.8,3.55,5.39,5.76,9.37,5.76h21.62v108.45c-1.07-.03-2.13-.05-3.21-.05-3.1,0-6.18.14-9.21.39-.24-4.22-.61-8.43-1.16-12.6-1-7.61-7.56-13.35-15.26-13.35h-37.07c-.17,0-.31-.12-.37-.31-2.46-8.19-5.75-16.16-9.8-23.68-.09-.17-.08-.36.04-.48l26.2-26.2c5.45-5.45,6.03-14.15,1.35-20.24-2.57-3.34-5.26-6.58-8.06-9.72v-96.66h20.68c3.96,0,7.55-2.19,9.35-5.72,1.8-3.53,1.48-7.72-.84-10.93L285.81,4.35c-1.96-2.71-5.12-4.33-8.46-4.35h-.04c-3.33,0-6.48,1.6-8.46,4.28l-52.35,71.16c-2.36,3.21-2.71,7.41-.91,10.96,1.8,3.55,5.39,5.76,9.37,5.76h21.62v91.91l-9.45,9.45c-.12.12-.31.13-.48.04-7.52-4.05-15.48-7.35-23.68-9.8-.19-.06-.31-.2-.31-.37v-37.07c0-7.7-5.74-14.26-13.35-15.26-15.21-1.99-30.86-1.99-46.07,0-7.61,1-13.35,7.56-13.35,15.26v37.07c0,.17-.12.31-.31.37-8.19,2.46-16.16,5.75-23.68,9.8-.17.09-.36.08-.48-.04l-26.2-26.2c-5.45-5.45-14.15-6.03-20.24-1.35-12.22,9.39-23.18,20.35-32.57,32.57-4.68,6.09-4.1,14.79,1.35,20.24l26.2,26.2c.12.12.13.31.04.48-4.05,7.52-7.35,15.48-9.8,23.68-.06.19-.2.31-.37.31H16.76c-7.7,0-14.27,5.74-15.26,13.35-1,7.6-1.5,15.35-1.5,23.03s.5,15.43,1.5,23.03c1,7.61,7.56,13.35,15.26,13.35h37.07c.17,0,.31.12.37.31,2.46,8.19,5.75,16.16,9.8,23.68.09.17.08.36-.04.48l-26.21,26.2c-5.45,5.45-6.03,14.15-1.35,20.24,9.39,12.22,20.35,23.18,32.57,32.57,6.09,4.68,14.79,4.1,20.24-1.35l26.2-26.2c.12-.12.31-.13.48-.04,7.52,4.05,15.49,7.35,23.68,9.8.19.06.31.2.31.37v37.07c0,7.7,5.74,14.27,13.35,15.26,7.6,1,15.35,1.5,23.03,1.5s15.43-.5,23.04-1.5c7.61-1,13.35-7.56,13.35-15.26v-37.07c0-.17.12-.31.31-.37,8.19-2.46,16.16-5.75,23.68-9.8.17-.09.36-.08.48.04l22.25,22.25c15.13,41.73,55.16,71.62,102.04,71.62,59.83,0,108.5-48.67,108.5-108.5,0-35.6-17.23-67.24-43.79-87.04h0ZM233.84,77.16l43.42-59.02,42.68,59.02h-16.38c-5.79,0-10.5,4.71-10.5,10.5v86.18c-3.08-2.73-6.25-5.36-9.51-7.87-6.09-4.68-14.79-4.1-20.23,1.35l-1.75,1.75v-81.42c0-5.79-4.71-10.5-10.5-10.5h-17.23Zm19.5,335.99l-5.62-5.62c-4.83-4.83-12.15-5.9-18.2-2.64-6.63,3.57-13.65,6.48-20.87,8.64-6.58,1.97-11,7.89-11,14.73v37.07c0,.19-.13.37-.3.39-13.93,1.82-28.25,1.82-42.17,0-.16-.02-.3-.2-.3-.39v-37.07c0-6.84-4.42-12.76-11-14.73-7.22-2.17-14.24-5.07-20.87-8.64-2.34-1.26-4.86-1.87-7.36-1.87-3.97,0-7.87,1.55-10.83,4.51l-26.2,26.2c-.14.14-.36.16-.49.06-11.19-8.59-21.22-18.62-29.81-29.81-.1-.13-.07-.35.06-.49l26.2-26.2c4.84-4.84,5.9-12.15,2.64-18.2-3.57-6.63-6.47-13.65-8.64-20.87-1.97-6.58-7.89-11-14.73-11H16.76c-.19,0-.37-.13-.39-.3-.91-6.96-1.37-14.05-1.37-21.09s.46-14.12,1.37-21.09c.02-.17.2-.3.39-.3h37.07c6.84,0,12.76-4.42,14.73-11,2.17-7.22,5.07-14.25,8.64-20.87,3.26-6.05,2.19-13.36-2.64-18.2l-26.2-26.2c-.14-.14-.16-.36-.06-.49,8.6-11.19,18.63-21.22,29.81-29.81.13-.1.35-.07.49.06l26.2,26.2c4.84,4.84,12.15,5.9,18.2,2.64,6.63-3.57,13.65-6.48,20.87-8.64,6.58-1.97,11-7.89,11-14.73v-37.07c0-.19.13-.37.3-.39,13.92-1.82,28.25-1.82,42.17,0,.16.02.3.2.3.39v37.07c0,6.84,4.42,12.76,11,14.73,7.23,2.17,14.25,5.07,20.87,8.64,6.05,3.26,13.36,2.2,18.2-2.64l26.2-26.21c.14-.14.36-.16.49-.06,11.19,8.59,21.22,18.62,29.81,29.81.1.13.08.35-.06.49l-26.2,26.2c-4.84,4.84-5.9,12.15-2.64,18.2,3.57,6.63,6.48,13.65,8.64,20.87,1.97,6.58,7.89,11,14.73,11h37.07c.19,0,.37.13.39.3.56,4.29.93,8.62,1.14,12.96-48.26,10.99-84.4,54.25-84.4,105.8,0,3.25.15,6.46.43,9.64h0Zm108.07,83.85c-51.56,0-93.5-41.94-93.5-93.5s41.94-93.5,93.5-93.5,93.5,41.94,93.5,93.5-41.94,93.5-93.5,93.5Z" fill="#00a4e0"/>
  <path d="m428.96,392.23c.68,4.09,4.54,6.85,8.63,6.17,4.09-.68,6.85-4.54,6.17-8.63-3.2-19.27-13.19-36.92-28.12-49.71-15.1-12.94-34.36-20.06-54.23-20.06-46.04,0-83.5,37.46-83.5,83.5s37.46,83.5,83.5,83.5c18.16,0,35.44-5.75,49.97-16.64,14.04-10.52,24.62-25.48,29.79-42.14,1.23-3.96-.98-8.16-4.94-9.39-3.95-1.23-8.16.98-9.39,4.94-4.24,13.66-12.93,25.94-24.46,34.58-11.92,8.92-26.08,13.64-40.98,13.64-37.77,0-68.5-30.73-68.5-68.5s30.73-68.5,68.5-68.5c16.29,0,32.08,5.84,44.47,16.45,12.26,10.5,20.46,24.98,23.08,40.77h0Z" fill="#00a4e0"/>
  <path d="m361.41,342.5c-4.14,0-7.5,3.36-7.5,7.5v53.5c0,2.75,1.5,5.28,3.92,6.59,1.12.61,2.35.91,3.58.91,1.42,0,2.85-.4,4.08-1.21l34.09-22.13c3.48-2.26,4.46-6.9,2.21-10.38-2.26-3.47-6.9-4.46-10.38-2.21l-22.51,14.61v-39.69c0-4.14-3.36-7.5-7.5-7.5h0Z" fill="#00a4e0"/>
</svg>