<?xml version="1.0" encoding="UTF-8"?>
<svg id="Layer_1" data-name="Layer 1" xmlns="http://www.w3.org/2000/svg" viewBox="0 0 480 488">
  <path d="m280,424h-16v-78.4c0-4.42-3.58-8-8-8s-8,3.58-8,8v78.4H40v-160h66.56c4.42,0,8-3.58,8-8s-3.58-8-8-8H32c-4.42,0-8,3.58-8,8v168H8c-4.42,0-8,3.58-8,8v16c0,22.09,17.91,40,40,40h208c22.09,0,40-17.91,40-40v-16c0-4.42-3.58-8-8-8Zm-8,24c0,13.25-10.75,24-24,24h-16v-8c0-4.42-3.58-8-8-8s-8,3.58-8,8v8H72v-8c0-4.42-3.58-8-8-8s-8,3.58-8,8v8h-16c-13.25,0-24-10.75-24-24v-8h256v8Z" fill="#00a4e0"/>
  <path d="m416,56h16c4.42,0,8-3.58,8-8s-3.58-8-8-8h-16c-13.25,0-24,10.75-24,24v8h-8c-4.42,0-8,3.58-8,8s3.58,8,8,8h8v24c0,4.42,3.58,8,8,8s8-3.58,8-8v-24h8c4.42,0,8-3.58,8-8s-3.58-8-8-8h-8v-8c0-4.42,3.58-8,8-8Z" fill="#00a4e0"/>
  <path d="m456,8h-96c-13.25,0-24,10.75-24,24v16c0,4.42,3.58,8,8,8s8-3.58,8-8v-16c0-4.42,3.58-8,8-8h96c4.42,0,8,3.58,8,8v96c0,4.42-3.58,8-8,8h-96c-4.42,0-8-3.58-8-8v-48c0-4.42-3.58-8-8-8s-8,3.58-8,8v48c0,13.25,10.75,24,24,24h96c13.25,0,24-10.75,24-24V32c0-13.25-10.75-24-24-24Z" fill="#00a4e0"/>
  <path d="m376,328c0,17.67,14.33,32,32,32s32-14.33,32-32-14.33-32-32-32-32,14.33-32,32Zm48,0c0,8.84-7.16,16-16,16s-16-7.16-16-16,7.16-16,16-16,16,7.16,16,16Z" fill="#00a4e0"/>
  <path d="m456,256h-96c-13.25,0-24,10.75-24,24v96c0,13.25,10.75,24,24,24h96c13.25,0,24-10.75,24-24v-16c0-4.42-3.58-8-8-8s-8,3.58-8,8v16c0,4.42-3.58,8-8,8h-96c-4.42,0-8-3.58-8-8v-96c0-4.42,3.58-8,8-8h96c4.42,0,8,3.58,8,8v48c0,4.42,3.58,8,8,8s8-3.58,8-8v-48c0-13.25-10.75-24-24-24Z" fill="#00a4e0"/>
  <path d="m179.76,102.8c1.27.79,2.74,1.2,4.24,1.2,1.25,0,2.49-.31,3.6-.88l48-24c3.93-2.01,5.49-6.84,3.47-10.77-.76-1.49-1.98-2.71-3.47-3.47l-48-24c-3.95-1.99-8.76-.4-10.74,3.54-.56,1.11-.85,2.33-.86,3.58v48c0,2.76,1.42,5.34,3.76,6.8Zm12.24-41.84l22.08,11.04-22.08,11.04v-22.08Z" fill="#00a4e0"/>
  <path d="m200,144c39.76,0,72-32.24,72-72S239.76,0,200,0s-72,32.24-72,72,32.24,72,72,72Zm0-128c30.93,0,56,25.07,56,56s-25.07,56-56,56-56-25.07-56-56,25.07-56,56-56Z" fill="#00a4e0"/>
  <path d="m280,176c2.52,0,4.89-1.19,6.4-3.2l24-32c2.65-3.54,1.93-8.55-1.61-11.2-3.53-2.64-8.54-1.93-11.19,1.6l-24,32c-2.65,3.53-1.93,8.55,1.6,11.2,1.38,1.04,3.07,1.6,4.8,1.6Z" fill="#00a4e0"/>
  <path d="m297.6,204.8c1.51,2.01,3.88,3.2,6.4,3.2,1.73,0,3.42-.56,4.8-1.6l32-24c3.53-2.65,4.25-7.67,1.6-11.2-2.65-3.53-7.67-4.25-11.2-1.6l-32,24c-3.53,2.65-4.25,7.67-1.6,11.2h0Z" fill="#00a4e0"/>
  <path d="m376,222.4c-.78-4.35-4.94-7.24-9.29-6.46-.11.02-.21.04-.31.06l-40,8c-4.42.44-7.64,4.38-7.2,8.8.44,4.42,4.38,7.64,8.8,7.2h1.6l40-8c4.35-.78,7.24-4.94,6.46-9.29-.02-.11-.04-.21-.06-.31Z" fill="#00a4e0"/>
  <path d="m8,224h96c4.42,0,8-3.58,8-8V88c0-4.42-3.58-8-8-8H8c-4.42,0-8,3.58-8,8v128c0,4.42,3.58,8,8,8Zm8-128h80v112H16v-112Z" fill="#00a4e0"/>
  <path d="m72,112h-16c-4.42,0-8,3.58-8,8s3.58,8,8,8h16c4.42,0,8-3.58,8-8s-3.58-8-8-8Z" fill="#00a4e0"/>
  <path d="m72,144h-32c-4.42,0-8,3.58-8,8s3.58,8,8,8h32c4.42,0,8-3.58,8-8s-3.58-8-8-8Z" fill="#00a4e0"/>
  <path d="m72,176h-32c-4.42,0-8,3.58-8,8s3.58,8,8,8h32c4.42,0,8-3.58,8-8s-3.58-8-8-8Z" fill="#00a4e0"/>
  <path d="m272.96,221.6c-2.21-3.84-7.12-5.17-10.96-2.96-3.84,2.21-5.17,7.12-2.96,10.96l35.28,61.04-128,48h-1.2l-20.8,12-13.84,8c-3.68,2.13-8.06,2.7-12.16,1.6-4.08-1.1-7.56-3.78-9.68-7.44l-16-27.68c-3.91-7.52-1.28-16.78,6-21.12l27.68-16,20,34.64c1.43,2.49,4.09,4.01,6.96,4,4.42.02,8.01-3.55,8.03-7.97,0-1.42-.36-2.81-1.07-4.03l-20.64-35.68,100.4-82.8,3.28,5.68c2.21,3.84,7.12,5.17,10.96,2.96,3.84-2.21,5.17-7.12,2.96-10.96l-8-13.84c-1.19-2.03-3.21-3.43-5.52-3.84-2.33-.44-4.73.18-6.56,1.68l-112,92.32-34.08,19.68c-12.58,7.33-18.63,22.22-14.72,36.24l-8,4.56c-11.49,6.6-15.46,21.27-8.86,32.76,3.18,5.54,8.45,9.59,14.62,11.24,2.04.54,4.13.81,6.24.8,4.21-.02,8.34-1.12,12-3.2l8-4.56c3.84,3.97,8.68,6.84,14,8.32,2.73.76,5.56,1.14,8.4,1.12,5.62.01,11.15-1.48,16-4.32l6.96-4,16,27.76c6.62,11.45,21.25,15.38,32.72,8.8,11.48-6.62,15.43-21.29,8.81-32.78v-.02s-14.57-25.36-14.57-25.36l120-45.04c2.2-.83,3.93-2.58,4.72-4.8.79-2.19.58-4.61-.56-6.64l-39.84-69.12Zm-188.96,136.72c-1.84,1.06-4.03,1.35-6.08.8-2.05-.53-3.8-1.86-4.88-3.68-1.06-1.84-1.35-4.03-.8-6.08.55-2.06,1.91-3.82,3.76-4.88l6.96-4,8,13.84-6.96,4Zm105.28,22.4c1.06,1.84,1.35,4.03.8,6.08-.57,2.03-1.92,3.76-3.76,4.8-3.8,2.18-8.66.9-10.88-2.88l-16-27.76,13.28-7.6h.64l15.92,27.36Z" fill="#00a4e0"/>
</svg>