<?xml version="1.0" encoding="UTF-8"?>
<svg id="Layer_1" data-name="Layer 1" xmlns="http://www.w3.org/2000/svg" viewBox="0 0 496 496">
  <path d="m496,248c0,66.24-25.8,128.52-72.64,175.36-46.84,46.84-109.12,72.64-175.36,72.64-52.74,0-104.15-16.9-146.47-47.87l5.17,18.11c1.21,4.25-1.25,8.68-5.5,9.89-.73.21-1.47.31-2.2.31-3.48,0-6.69-2.29-7.69-5.81l-12.15-42.58c-.68-2.36-.22-4.91,1.22-6.9,1.45-1.99,3.73-3.2,6.18-3.29l44.25-1.59c4.41-.17,8.12,3.29,8.28,7.71.16,4.42-3.29,8.12-7.71,8.28l-23.25.84c40.11,30.32,89.34,46.9,139.86,46.9,127.92,0,232-104.07,232-232,0-41.03-10.86-81.35-31.4-116.6-2.23-3.82-.93-8.71,2.89-10.94,3.82-2.22,8.71-.93,10.94,2.88,21.96,37.69,33.57,80.8,33.57,124.65h0Zm-480,0C16,120.07,120.08,16,248,16c50.51,0,99.73,16.59,139.84,46.9l-23.23.83c-4.42.16-7.87,3.87-7.71,8.28.15,4.32,3.7,7.71,7.99,7.71.1,0,.2,0,.29,0l44.25-1.59c2.46-.09,4.74-1.3,6.18-3.29,1.45-1.99,1.9-4.53,1.22-6.9l-12.15-42.58c-1.21-4.25-5.64-6.71-9.89-5.5-4.25,1.21-6.71,5.64-5.5,9.89l5.17,18.13C352.15,16.91,300.73,0,248,0,181.76,0,119.48,25.8,72.64,72.64,25.8,119.48,0,181.76,0,248c0,43.86,11.61,86.98,33.57,124.67,1.49,2.55,4.17,3.97,6.92,3.97,1.37,0,2.75-.35,4.02-1.09,3.82-2.22,5.11-7.12,2.88-10.94-20.54-35.25-31.4-75.58-31.4-116.62h0Zm275.89,1.44c2.12,0,4.16.84,5.66,2.34s2.34,3.54,2.34,5.66c0,28.61-23.28,51.89-51.89,51.89s-51.88-23.27-51.88-51.89c0-4.42,3.58-8,8-8h87.77Zm-8.9,16h-69.97c3.65,15.95,17.95,27.89,34.99,27.89s31.34-11.94,34.99-27.89Zm-204.05,21.96c-3.09-1.19-5.13-4.16-5.13-7.47v-22.49c0-4.42,3.58-8,8-8h87.74c4.42,0,8,3.58,8,8,0,38.85,31.6,70.45,70.45,70.45s70.45-31.6,70.45-70.45c0-4.42,3.58-8,8-8h87.74c4.42,0,8,3.58,8,8v22.49c0,3.31-2.04,6.28-5.13,7.47l-23.67,9.11c-3.39,12.63-8.41,24.74-14.96,36.09l10.3,23.2c1.34,3.02.69,6.56-1.65,8.9l-31.81,31.81c-2.34,2.34-5.88,3-8.9,1.65l-23.19-10.3c-11.35,6.56-23.46,11.58-36.1,14.97l-9.11,23.67c-1.19,3.09-4.16,5.13-7.47,5.13h-44.98c-3.31,0-6.28-2.04-7.47-5.13l-9.11-23.67c-12.63-3.39-24.74-8.41-36.09-14.96l-23.2,10.3c-3.02,1.34-6.56.69-8.9-1.65l-31.81-31.81c-2.34-2.34-3-5.88-1.65-8.9l10.3-23.19c-6.56-11.35-11.58-23.46-14.97-36.1l-23.67-9.11Zm10.87-12.96l22.41,8.62c2.46.95,4.3,3.05,4.91,5.61,3.3,13.86,8.77,27.05,16.25,39.2,1.38,2.25,1.57,5.03.5,7.44l-9.75,21.96,24.04,24.04,21.97-9.76c2.41-1.07,5.2-.88,7.44.5,12.15,7.48,25.34,12.95,39.19,16.25,2.57.61,4.67,2.45,5.61,4.91l8.63,22.41h34l8.62-22.41c.95-2.46,3.05-4.3,5.61-4.91,13.86-3.3,27.05-8.76,39.2-16.25,2.25-1.38,5.03-1.57,7.44-.5l21.96,9.75,24.04-24.04-9.76-21.97c-1.07-2.41-.88-5.2.5-7.44,7.49-12.16,12.95-25.34,16.25-39.19.61-2.57,2.45-4.67,4.91-5.61l22.41-8.63v-9h-72.11c-4.05,43.93-41.11,78.45-86.08,78.45s-82.03-34.52-86.08-78.45h-72.11v9Zm332.33-69.18c.24,2.26-.49,4.51-2,6.2s-3.68,2.65-5.95,2.65h-92.32c.29,1.65.54,3.31.72,5,.24,2.26-.49,4.51-2,6.2s-3.68,2.65-5.95,2.65h-133.27c-2.27,0-4.43-.96-5.95-2.65s-2.25-3.94-2-6.2c.18-1.69.43-3.35.72-5h-92.32c-2.27,0-4.43-.96-5.95-2.65s-2.25-3.94-2-6.2c2.54-23.74,17.67-43.25,38.35-52.23-6.66-6.63-10.79-15.79-10.79-25.91,0-20.16,16.4-36.57,36.57-36.57s36.57,16.4,36.57,36.57c0,10.15-4.16,19.35-10.86,25.98,11.51,5.04,21.45,13.37,28.38,23.99,7.66-8.55,17.24-15.29,28.04-19.6-8.59-7.68-14-18.83-14-31.22,0-23.1,18.79-41.89,41.89-41.89s41.89,18.79,41.89,41.89c0,12.4-5.42,23.55-14.01,31.22,10.8,4.31,20.38,11.05,28.04,19.6,6.94-10.63,16.88-18.96,28.38-23.99-6.7-6.63-10.86-15.83-10.86-25.98,0-20.16,16.4-36.57,36.57-36.57s36.57,16.4,36.57,36.57c0,10.11-4.13,19.28-10.79,25.91,20.68,8.98,35.81,28.49,38.35,52.23h0Zm-64.14-57.57h.01c11.34,0,20.56-9.23,20.56-20.57s-9.23-20.57-20.57-20.57-20.57,9.23-20.57,20.57c0,11.34,9.22,20.57,20.56,20.57Zm-110.01,4.46h.02c14.27,0,25.88-11.62,25.88-25.89s-11.61-25.89-25.89-25.89-25.89,11.61-25.89,25.89,11.61,25.88,25.88,25.89h0Zm-110.01-4.46h.01c11.34,0,20.56-9.23,20.56-20.57s-9.23-20.57-20.57-20.57-20.57,9.23-20.57,20.57,9.22,20.56,20.56,20.57Zm40.81,50.42c.93-2.24,1.98-4.41,3.11-6.53-7.92-16.82-25.12-27.89-43.91-27.9h-.02c-21.77,0-40.38,14.29-46.43,34.42h87.25Zm126.26,13.85c-6.73-25.51-29.86-43.8-57.04-43.81h-.02c-27.18,0-50.31,18.3-57.04,43.81h114.1Zm99.4-13.85c-6.05-20.13-24.66-34.42-46.43-34.42h-.02c-18.79,0-35.99,11.07-43.91,27.9,1.14,2.12,2.18,4.29,3.11,6.53h87.25Z" fill="#00a4e0"/>
</svg>