<svg id="Line_Expand" height="512" viewBox="0 0 64 64" width="512" xmlns="http://www.w3.org/2000/svg" data-name="Line Expand"><path d="m54 12h-3v-6a5.0059 5.0059 0 0 0 -5-5h-28a5.0059 5.0059 0 0 0 -5 5v6h-3a1 1 0 0 0 -1 1v31a1 1 0 0 0 1 1h3v13a5.0059 5.0059 0 0 0 5 5h28a5.0059 5.0059 0 0 0 5-5v-13h3a1 1 0 0 0 1-1v-31a1 1 0 0 0 -1-1zm-39-6a3.0033 3.0033 0 0 1 3-3h28a3.0033 3.0033 0 0 1 3 3v6h-34zm-4 8h42v6h-42zm38 44a3.0033 3.0033 0 0 1 -3 3h-28a3.0033 3.0033 0 0 1 -3-3v-5h34zm0-7h-34v-6h34zm4-8h-42v-21h42z"/><circle cx="50" cy="17" r="1"/><circle cx="46" cy="17" r="1"/><circle cx="42" cy="17" r="1"/><path d="m32 60a3 3 0 1 0 -3-3 3.0033 3.0033 0 0 0 3 3zm0-4a1 1 0 1 1 -1 1 1.0006 1.0006 0 0 1 1-1z"/><path d="m40 58h4a1 1 0 0 0 0-2h-4a1 1 0 0 0 0 2z"/><path d="m20 58h4a1 1 0 0 0 0-2h-4a1 1 0 0 0 0 2z"/><path d="m36 5h-8a1 1 0 0 0 0 2h8a1 1 0 0 0 0-2z"/><circle cx="40" cy="6" r="1"/><path d="m23.793 37.707a1 1 0 0 0 1.414-1.414l-4.2929-4.293 4.2929-4.293a1 1 0 0 0 -1.414-1.414l-5 5a1 1 0 0 0 0 1.414z"/><path d="m38.793 37.707a1 1 0 0 0 1.414 0l5-5a1 1 0 0 0 0-1.414l-5-5a1 1 0 0 0 -1.414 1.414l4.2929 4.293-4.2929 4.293a1 1 0 0 0 0 1.414z"/><path d="m28.606 39.9194a1 1 0 0 0 1.3134-.5254l6-14a1 1 0 0 0 -1.8388-.788l-6 14a1 1 0 0 0 .5254 1.3134z"/></svg>