<svg width="45" height="45" viewBox="0 0 45 45" fill="none" xmlns="http://www.w3.org/2000/svg">
<path d="M31.3242 36.0563C28.8988 37.633 26.0936 38.5277 23.2031 38.6466V36.5625C23.2031 36.376 23.129 36.1972 22.9972 36.0653C22.8653 35.9335 22.6865 35.8594 22.5 35.8594C22.3135 35.8594 22.1347 35.9335 22.0028 36.0653C21.871 36.1972 21.7969 36.376 21.7969 36.5625V38.6529C17.7605 38.4631 13.9402 36.7744 11.0829 33.9171C8.22564 31.0598 6.53696 27.2395 6.34711 23.2031H8.4375C8.62398 23.2031 8.80282 23.1291 8.93468 22.9972C9.06655 22.8653 9.14062 22.6865 9.14062 22.5C9.14062 22.3135 9.06655 22.1347 8.93468 22.0028C8.80282 21.871 8.62398 21.7969 8.4375 21.7969H6.35836C6.42261 20.1377 6.74451 18.4986 7.3125 16.9383C7.34553 16.8516 7.36077 16.7592 7.35733 16.6665C7.35389 16.5738 7.33183 16.4828 7.29246 16.3988C7.2531 16.3148 7.19724 16.2396 7.1282 16.1777C7.05916 16.1158 6.97837 16.0684 6.89062 16.0383C6.71614 15.9763 6.52434 15.985 6.35619 16.0625C6.18803 16.14 6.05684 16.2802 5.99063 16.4531V16.4602C5.36743 18.1738 5.017 19.9746 4.95211 21.7969H2.8125C2.62602 21.7969 2.44718 21.871 2.31532 22.0028C2.18345 22.1347 2.10938 22.3135 2.10938 22.5C2.10938 22.6865 2.18345 22.8653 2.31532 22.9972C2.44718 23.1291 2.62602 23.2031 2.8125 23.2031H4.93945C5.12247 27.6153 6.95726 31.7976 10.0798 34.9202C13.2024 38.0428 17.3847 39.8775 21.7969 40.0606V42.1875C21.7969 42.374 21.871 42.5528 22.0028 42.6847C22.1347 42.8166 22.3135 42.8906 22.5 42.8906C22.6865 42.8906 22.8653 42.8166 22.9972 42.6847C23.129 42.5528 23.2031 42.374 23.2031 42.1875V40.0528C26.3665 39.9342 29.4384 38.9587 32.0906 37.2305C32.2459 37.1285 32.3545 36.9692 32.3927 36.7874C32.4309 36.6056 32.3956 36.416 32.2945 36.2602C32.1905 36.1074 32.0314 36.0008 31.8505 35.9627C31.6695 35.9247 31.4809 35.9582 31.3242 36.0563Z" fill="#CB1F45"/>
<path d="M42.1875 21.7969H40.0606C39.8785 17.3843 38.044 13.2016 34.9212 10.0788C31.7985 6.95599 27.6157 5.1215 23.2031 4.93945V2.8125C23.2031 2.62602 23.1291 2.44718 22.9972 2.31532C22.8653 2.18345 22.6865 2.10938 22.5 2.10938C22.3135 2.10938 22.1347 2.18345 22.0028 2.31532C21.871 2.44718 21.7969 2.62602 21.7969 2.8125V4.94227C19.2568 5.03416 16.7678 5.68221 14.5055 6.8407C12.12 8.06956 10.0432 9.82183 8.43048 11.9665C8.3186 12.1157 8.27055 12.3032 8.29693 12.4878C8.3233 12.6724 8.42192 12.839 8.57111 12.9509C8.7219 13.0582 8.90818 13.1034 9.09139 13.0772C9.27461 13.0511 9.44077 12.9555 9.55548 12.8102C10.9833 10.8867 12.8241 9.30778 14.9425 8.18953C17.061 7.07128 19.4032 6.44218 21.7969 6.34852V8.4375C21.7969 8.62398 21.871 8.80282 22.0028 8.93468C22.1347 9.06655 22.3135 9.14062 22.5 9.14062C22.6865 9.14062 22.8653 9.06655 22.9972 8.93468C23.1291 8.80282 23.2031 8.62398 23.2031 8.4375V6.34711C27.2395 6.53696 31.0598 8.22564 33.9171 11.0829C36.7744 13.9402 38.4631 17.7605 38.6529 21.7969H36.5625C36.376 21.7969 36.1972 21.871 36.0653 22.0028C35.9335 22.1347 35.8594 22.3135 35.8594 22.5C35.8594 22.6865 35.9335 22.8653 36.0653 22.9972C36.1972 23.129 36.376 23.2031 36.5625 23.2031H38.641C38.4905 26.7805 37.1548 30.2063 34.8441 32.9414C34.7251 33.0846 34.6673 33.2689 34.6831 33.4544C34.6988 33.6399 34.787 33.8118 34.9285 33.9328C34.9965 33.9953 35.0766 34.0433 35.1638 34.0737C35.2511 34.1042 35.3436 34.1165 35.4358 34.1099C35.528 34.1033 35.6178 34.078 35.6998 34.0354C35.7819 33.9929 35.8544 33.934 35.9128 33.8625C35.9128 33.8555 35.9128 33.8555 35.9199 33.8555C38.4413 30.8621 39.8936 27.1139 40.0472 23.2031H42.1875C42.374 23.2031 42.5528 23.129 42.6847 22.9972C42.8166 22.8653 42.8906 22.6865 42.8906 22.5C42.8906 22.3135 42.8166 22.1347 42.6847 22.0028C42.5528 21.871 42.374 21.7969 42.1875 21.7969Z" fill="#CB1F45"/>
<path d="M30.4193 22.2672C30.7488 21.9594 31.0117 21.5873 31.1915 21.1737C31.3714 20.7602 31.4644 20.3142 31.4648 19.8633C31.4637 18.9778 31.1115 18.129 30.4854 17.5029C29.8593 16.8768 29.0104 16.5245 28.125 16.5234C27.4625 16.5249 26.8158 16.7261 26.2695 17.1007C25.9205 16.3994 25.3829 15.8094 24.717 15.3969C24.051 14.9845 23.2833 14.766 22.5 14.766C21.7167 14.766 20.949 14.9845 20.283 15.3969C19.6171 15.8094 19.0795 16.3994 18.7305 17.1007C18.1842 16.7261 17.5375 16.5249 16.875 16.5234C15.9896 16.5245 15.1407 16.8768 14.5146 17.5029C13.8885 18.129 13.5363 18.9778 13.5352 19.8633C13.5356 20.3142 13.6286 20.7602 13.8085 21.1737C13.9883 21.5873 14.2512 21.9594 14.5807 22.2672C13.4924 22.7197 12.5622 23.4838 11.907 24.4635C11.2518 25.4432 10.9009 26.5948 10.8984 27.7734C10.8984 27.9599 10.9725 28.1387 11.1044 28.2706C11.2362 28.4025 11.4151 28.4765 11.6016 28.4765H14.8423C14.7928 28.826 14.7672 29.1783 14.7656 29.5312C14.7656 29.7177 14.8397 29.8966 14.9716 30.0284C15.1034 30.1603 15.2823 30.2344 15.4688 30.2344H29.5312C29.7177 30.2344 29.8966 30.1603 30.0284 30.0284C30.1603 29.8966 30.2344 29.7177 30.2344 29.5312C30.2328 29.1783 30.2072 28.826 30.1577 28.4765H33.3984C33.5849 28.4765 33.7638 28.4025 33.8956 28.2706C34.0275 28.1387 34.1016 27.9599 34.1016 27.7734C34.0991 26.5948 33.7482 25.4432 33.093 24.4635C32.4378 23.4838 31.5076 22.7197 30.4193 22.2672ZM28.125 17.9297C28.4731 17.929 28.8149 18.0223 29.1143 18.1998C29.4138 18.3772 29.6598 18.6322 29.8264 18.9378C29.993 19.2434 30.074 19.5884 30.0608 19.9362C30.0477 20.284 29.9409 20.6219 29.7518 20.9141C29.5626 21.2062 29.2981 21.442 28.9861 21.5963C28.6741 21.7507 28.3263 21.818 27.9792 21.7911C27.6322 21.7642 27.2989 21.6441 27.0144 21.4435C26.7299 21.243 26.5049 20.9693 26.363 20.6515C26.5964 20.1266 26.7176 19.5588 26.7188 18.9844C26.7188 18.8437 26.711 18.7066 26.6977 18.5702C26.8773 18.3693 27.0972 18.2084 27.3432 18.098C27.5891 17.9877 27.8555 17.9303 28.125 17.9297ZM25.1269 22.2658C25.2642 22.155 25.3945 22.0357 25.5171 21.9087C25.6123 22.036 25.7171 22.1559 25.8307 22.2672C25.7217 22.3129 25.6198 22.3706 25.515 22.424C25.3828 22.3692 25.2591 22.3137 25.1269 22.2658ZM22.5 16.1719C23.0563 16.1719 23.6 16.3368 24.0625 16.6458C24.5251 16.9549 24.8855 17.3941 25.0984 17.9081C25.3113 18.422 25.367 18.9875 25.2585 19.533C25.1499 20.0786 24.8821 20.5798 24.4887 20.9731C24.0954 21.3664 23.5943 21.6343 23.0487 21.7428C22.5031 21.8513 21.9376 21.7956 21.4237 21.5828C20.9098 21.3699 20.4705 21.0094 20.1615 20.5469C19.8525 20.0844 19.6875 19.5406 19.6875 18.9844C19.6875 18.2384 19.9838 17.5231 20.5113 16.9956C21.0387 16.4682 21.7541 16.1719 22.5 16.1719ZM19.1693 22.2672C19.2829 22.1559 19.3877 22.036 19.4829 21.9087C19.6055 22.0357 19.7358 22.155 19.8731 22.2658C19.7409 22.3137 19.6137 22.3692 19.485 22.424C19.3802 22.3706 19.2783 22.3129 19.1693 22.2672ZM16.875 17.9297C17.1445 17.9303 17.4109 17.9877 17.6568 18.098C17.9027 18.2084 18.1227 18.3693 18.3023 18.5702C18.289 18.7066 18.2812 18.8444 18.2812 18.9844C18.2824 19.5588 18.4036 20.1266 18.637 20.6515C18.495 20.9688 18.2699 21.2418 17.9856 21.4419C17.7014 21.642 17.3684 21.7617 17.0217 21.7884C16.6751 21.815 16.3277 21.7477 16.0162 21.5934C15.7047 21.4392 15.4405 21.2037 15.2516 20.9119C15.0627 20.6201 14.956 20.2827 14.9428 19.9353C14.9295 19.5879 15.0103 19.2434 15.1765 18.938C15.3427 18.6327 15.5882 18.3779 15.8872 18.2004C16.1861 18.0229 16.5274 17.9294 16.875 17.9297ZM12.3588 27.0703C12.5279 25.9936 13.0757 25.0125 13.9035 24.3036C14.7314 23.5947 15.7851 23.2045 16.875 23.2031C17.2206 23.2043 17.5648 23.2471 17.9002 23.3304C16.6307 24.27 15.6784 25.5748 15.1706 27.0703H12.3588ZM16.2105 28.8281C16.3825 27.2802 17.1191 25.8501 18.2795 24.8115C19.4399 23.7728 20.9426 23.1985 22.5 23.1985C24.0574 23.1985 25.5601 23.7728 26.7205 24.8115C27.8809 25.8501 28.6175 27.2802 28.7895 28.8281H16.2105ZM29.8294 27.0703C29.3216 25.5748 28.3693 24.27 27.0998 23.3304C27.4352 23.2471 27.7794 23.2043 28.125 23.2031C29.2149 23.2045 30.2686 23.5947 31.0965 24.3036C31.9243 25.0125 32.4721 25.9936 32.6412 27.0703H29.8294Z" fill="#CB1F45"/>
<path d="M7.49744 15.4688C7.88576 15.4688 8.20056 15.154 8.20056 14.7656C8.20056 14.3773 7.88576 14.0625 7.49744 14.0625C7.10911 14.0625 6.79431 14.3773 6.79431 14.7656C6.79431 15.154 7.10911 15.4688 7.49744 15.4688Z" fill="#CB1F45"/>
<path d="M33.9258 35.6259C34.3141 35.6259 34.6289 35.3111 34.6289 34.9228C34.6289 34.5345 34.3141 34.2197 33.9258 34.2197C33.5375 34.2197 33.2227 34.5345 33.2227 34.9228C33.2227 35.3111 33.5375 35.6259 33.9258 35.6259Z" fill="#CB1F45"/>
</svg>
