<svg width="1920" height="1080" viewBox="0 0 1920 1080" fill="none" xmlns="http://www.w3.org/2000/svg">
<rect width="1920" height="1080" fill="#00A4E1"/>
<g opacity="0.15">
<path d="M141.979 879.483C144.729 879.483 146.959 877.253 146.959 874.502C146.959 871.751 144.729 869.521 141.979 869.521C139.229 869.521 137 871.751 137 874.502C137 877.253 139.229 879.483 141.979 879.483Z" fill="black"/>
<path d="M175.318 879.483C178.068 879.483 180.297 877.253 180.297 874.502C180.297 871.751 178.068 869.521 175.318 869.521C172.568 869.521 170.338 871.751 170.338 874.502C170.338 877.253 172.568 879.483 175.318 879.483Z" fill="black"/>
<path d="M208.656 879.483C211.406 879.483 213.635 877.253 213.635 874.502C213.635 871.751 211.406 869.521 208.656 869.521C205.906 869.521 203.677 871.751 203.677 874.502C203.677 877.253 205.906 879.483 208.656 879.483Z" fill="black"/>
<path d="M241.972 869.498C239.21 869.498 236.992 871.74 236.992 874.479C236.992 877.219 239.233 879.461 241.972 879.461C244.71 879.461 246.951 877.219 246.951 874.479C246.951 871.74 244.71 869.498 241.972 869.498Z" fill="black"/>
<path d="M275.31 869.498C272.549 869.498 270.331 871.74 270.331 874.479C270.331 877.219 272.571 879.461 275.31 879.461C278.049 879.461 280.289 877.219 280.289 874.479C280.289 871.74 278.049 869.498 275.31 869.498Z" fill="black"/>
<path d="M308.648 879.483C311.398 879.483 313.628 877.253 313.628 874.502C313.628 871.751 311.398 869.521 308.648 869.521C305.898 869.521 303.669 871.751 303.669 874.502C303.669 877.253 305.898 879.483 308.648 879.483Z" fill="black"/>
<path d="M141.979 852.561C144.729 852.561 146.959 850.331 146.959 847.58C146.959 844.829 144.729 842.599 141.979 842.599C139.229 842.599 137 844.829 137 847.58C137 850.331 139.229 852.561 141.979 852.561Z" fill="black"/>
<path d="M175.318 852.561C178.068 852.561 180.297 850.331 180.297 847.58C180.297 844.829 178.068 842.599 175.318 842.599C172.568 842.599 170.338 844.829 170.338 847.58C170.338 850.331 172.568 852.561 175.318 852.561Z" fill="black"/>
<path d="M208.656 852.561C211.406 852.561 213.635 850.331 213.635 847.58C213.635 844.829 211.406 842.599 208.656 842.599C205.906 842.599 203.677 844.829 203.677 847.58C203.677 850.331 205.906 852.561 208.656 852.561Z" fill="black"/>
<path d="M241.972 842.599C239.21 842.599 236.992 844.84 236.992 847.58C236.992 850.32 239.233 852.561 241.972 852.561C244.71 852.561 246.951 850.32 246.951 847.58C246.951 844.84 244.71 842.599 241.972 842.599Z" fill="black"/>
<path d="M275.31 842.599C272.549 842.599 270.331 844.84 270.331 847.58C270.331 850.32 272.571 852.561 275.31 852.561C278.049 852.561 280.289 850.32 280.289 847.58C280.289 844.84 278.049 842.599 275.31 842.599Z" fill="black"/>
<path d="M308.648 852.561C311.398 852.561 313.628 850.331 313.628 847.58C313.628 844.829 311.398 842.599 308.648 842.599C305.898 842.599 303.669 844.829 303.669 847.58C303.669 850.331 305.898 852.561 308.648 852.561Z" fill="black"/>
<path d="M141.979 815.699C139.218 815.699 137 817.941 137 820.681C137 823.42 139.241 825.662 141.979 825.662C144.718 825.662 146.959 823.42 146.959 820.681C146.959 817.941 144.718 815.699 141.979 815.699Z" fill="black"/>
<path d="M175.318 815.699C172.556 815.699 170.338 817.941 170.338 820.681C170.338 823.42 172.579 825.662 175.318 825.662C178.056 825.662 180.297 823.42 180.297 820.681C180.297 817.941 178.056 815.699 175.318 815.699Z" fill="black"/>
<path d="M208.656 815.699C205.895 815.699 203.677 817.941 203.677 820.681C203.677 823.42 205.917 825.662 208.656 825.662C211.395 825.662 213.635 823.42 213.635 820.681C213.635 817.941 211.395 815.699 208.656 815.699Z" fill="black"/>
<path d="M241.972 815.699C239.21 815.699 236.992 817.941 236.992 820.681C236.992 823.42 239.233 825.662 241.972 825.662C244.71 825.662 246.951 823.42 246.951 820.681C246.951 817.941 244.71 815.699 241.972 815.699Z" fill="black"/>
<path d="M275.31 815.699C272.549 815.699 270.331 817.941 270.331 820.681C270.331 823.42 272.571 825.662 275.31 825.662C278.049 825.662 280.289 823.42 280.289 820.681C280.289 817.941 278.049 815.699 275.31 815.699Z" fill="black"/>
<path d="M308.648 815.699C305.887 815.699 303.669 817.941 303.669 820.681C303.669 823.42 305.91 825.662 308.648 825.662C311.387 825.662 313.628 823.42 313.628 820.681C313.628 817.941 311.387 815.699 308.648 815.699Z" fill="black"/>
<path d="M141.979 798.762C144.729 798.762 146.959 796.531 146.959 793.78C146.959 791.029 144.729 788.799 141.979 788.799C139.229 788.799 137 791.029 137 793.78C137 796.531 139.229 798.762 141.979 798.762Z" fill="black"/>
<path d="M175.318 798.762C178.068 798.762 180.297 796.531 180.297 793.78C180.297 791.029 178.068 788.799 175.318 788.799C172.568 788.799 170.338 791.029 170.338 793.78C170.338 796.531 172.568 798.762 175.318 798.762Z" fill="black"/>
<path d="M208.656 798.762C211.406 798.762 213.635 796.531 213.635 793.78C213.635 791.029 211.406 788.799 208.656 788.799C205.906 788.799 203.677 791.029 203.677 793.78C203.677 796.531 205.906 798.762 208.656 798.762Z" fill="black"/>
<path d="M241.972 788.799C239.21 788.799 236.992 791.04 236.992 793.78C236.992 796.52 239.233 798.762 241.972 798.762C244.71 798.762 246.951 796.52 246.951 793.78C246.951 791.04 244.71 788.799 241.972 788.799Z" fill="black"/>
<path d="M275.31 788.799C272.549 788.799 270.331 791.04 270.331 793.78C270.331 796.52 272.571 798.762 275.31 798.762C278.049 798.762 280.289 796.52 280.289 793.78C280.289 791.04 278.049 788.799 275.31 788.799Z" fill="black"/>
<path d="M308.648 798.762C311.398 798.762 313.628 796.531 313.628 793.78C313.628 791.029 311.398 788.799 308.648 788.799C305.898 788.799 303.669 791.029 303.669 793.78C303.669 796.531 305.898 798.762 308.648 798.762Z" fill="black"/>
<path d="M141.979 771.862C144.729 771.862 146.959 769.632 146.959 766.881C146.959 764.13 144.729 761.899 141.979 761.899C139.229 761.899 137 764.13 137 766.881C137 769.632 139.229 771.862 141.979 771.862Z" fill="black"/>
<path d="M175.318 771.862C178.068 771.862 180.297 769.632 180.297 766.881C180.297 764.13 178.068 761.899 175.318 761.899C172.568 761.899 170.338 764.13 170.338 766.881C170.338 769.632 172.568 771.862 175.318 771.862Z" fill="black"/>
<path d="M208.656 771.862C211.406 771.862 213.635 769.632 213.635 766.881C213.635 764.13 211.406 761.899 208.656 761.899C205.906 761.899 203.677 764.13 203.677 766.881C203.677 769.632 205.906 771.862 208.656 771.862Z" fill="black"/>
<path d="M241.972 761.899C239.21 761.899 236.992 764.141 236.992 766.881C236.992 769.621 239.233 771.862 241.972 771.862C244.71 771.862 246.951 769.621 246.951 766.881C246.951 764.141 244.71 761.899 241.972 761.899Z" fill="black"/>
<path d="M275.31 761.899C272.549 761.899 270.331 764.141 270.331 766.881C270.331 769.621 272.571 771.862 275.31 771.862C278.049 771.862 280.289 769.621 280.289 766.881C280.289 764.141 278.049 761.899 275.31 761.899Z" fill="black"/>
<path d="M308.648 771.862C311.398 771.862 313.628 769.632 313.628 766.881C313.628 764.13 311.398 761.899 308.648 761.899C305.898 761.899 303.669 764.13 303.669 766.881C303.669 769.632 305.898 771.862 308.648 771.862Z" fill="black"/>
<path d="M141.979 735C139.218 735 137 737.242 137 739.981C137 742.721 139.241 744.963 141.979 744.963C144.718 744.963 146.959 742.721 146.959 739.981C146.959 737.242 144.718 735 141.979 735Z" fill="black"/>
<path d="M175.318 735C172.556 735 170.338 737.242 170.338 739.981C170.338 742.721 172.579 744.963 175.318 744.963C178.056 744.963 180.297 742.721 180.297 739.981C180.297 737.242 178.056 735 175.318 735Z" fill="black"/>
<path d="M208.656 735C205.895 735 203.677 737.242 203.677 739.981C203.677 742.721 205.917 744.963 208.656 744.963C211.395 744.963 213.635 742.721 213.635 739.981C213.635 737.242 211.395 735 208.656 735Z" fill="black"/>
<path d="M241.972 735C239.21 735 236.992 737.242 236.992 739.981C236.992 742.721 239.233 744.963 241.972 744.963C244.71 744.963 246.951 742.721 246.951 739.981C246.951 737.242 244.71 735 241.972 735Z" fill="black"/>
<path d="M275.31 735C272.549 735 270.331 737.242 270.331 739.981C270.331 742.721 272.571 744.963 275.31 744.963C278.049 744.963 280.289 742.721 280.289 739.981C280.289 737.242 278.049 735 275.31 735Z" fill="black"/>
<path d="M308.648 735C305.887 735 303.669 737.242 303.669 739.981C303.669 742.721 305.91 744.963 308.648 744.963C311.387 744.963 313.628 742.721 313.628 739.981C313.628 737.242 311.387 735 308.648 735Z" fill="black"/>
</g>
<g opacity="0.15">
<path d="M1398.98 268.521C1396.22 268.521 1394 270.762 1394 273.502C1394 276.242 1396.24 278.483 1398.98 278.483C1401.72 278.483 1403.96 276.242 1403.96 273.502C1403.96 270.762 1401.72 268.521 1398.98 268.521Z" fill="#B10043"/>
<path d="M1432.32 268.521C1429.56 268.521 1427.34 270.762 1427.34 273.502C1427.34 276.242 1429.58 278.483 1432.32 278.483C1435.06 278.483 1437.3 276.242 1437.3 273.502C1437.3 270.762 1435.06 268.521 1432.32 268.521Z" fill="#B10043"/>
<path d="M1465.66 268.521C1462.89 268.521 1460.68 270.762 1460.68 273.502C1460.68 276.242 1462.92 278.483 1465.66 278.483C1468.39 278.483 1470.64 276.242 1470.64 273.502C1470.64 270.762 1468.39 268.521 1465.66 268.521Z" fill="#B10043"/>
<path d="M1498.99 268.521C1496.23 268.521 1494.02 270.762 1494.02 273.502C1494.02 276.242 1496.26 278.483 1498.99 278.483C1501.73 278.483 1503.97 276.242 1503.97 273.502C1503.97 270.762 1501.73 268.521 1498.99 268.521Z" fill="#B10043"/>
<path d="M1532.31 268.521C1529.55 268.521 1527.33 270.762 1527.33 273.502C1527.33 276.242 1529.57 278.483 1532.31 278.483C1535.05 278.483 1537.29 276.242 1537.29 273.502C1537.29 270.762 1535.05 268.521 1532.31 268.521Z" fill="#B10043"/>
<path d="M1565.65 268.521C1562.89 268.521 1560.67 270.762 1560.67 273.502C1560.67 276.242 1562.91 278.483 1565.65 278.483C1568.39 278.483 1570.63 276.242 1570.63 273.502C1570.63 270.762 1568.39 268.521 1565.65 268.521Z" fill="#B10043"/>
<path d="M1398.98 241.621C1396.22 241.621 1394 243.863 1394 246.602C1394 249.342 1396.24 251.584 1398.98 251.584C1401.72 251.584 1403.96 249.342 1403.96 246.602C1403.96 243.863 1401.72 241.621 1398.98 241.621Z" fill="#B10043"/>
<path d="M1432.32 251.584C1435.07 251.584 1437.3 249.354 1437.3 246.602C1437.3 243.851 1435.07 241.621 1432.32 241.621C1429.57 241.621 1427.34 243.851 1427.34 246.602C1427.34 249.354 1429.57 251.584 1432.32 251.584Z" fill="#B10043"/>
<path d="M1465.66 251.584C1468.41 251.584 1470.64 249.354 1470.64 246.602C1470.64 243.851 1468.41 241.621 1465.66 241.621C1462.91 241.621 1460.68 243.851 1460.68 246.602C1460.68 249.354 1462.91 251.584 1465.66 251.584Z" fill="#B10043"/>
<path d="M1498.99 251.584C1501.74 251.584 1503.97 249.354 1503.97 246.602C1503.97 243.851 1501.74 241.621 1498.99 241.621C1496.24 241.621 1494.02 243.851 1494.02 246.602C1494.02 249.354 1496.24 251.584 1498.99 251.584Z" fill="#B10043"/>
<path d="M1532.31 241.621C1529.55 241.621 1527.33 243.863 1527.33 246.602C1527.33 249.342 1529.57 251.584 1532.31 251.584C1535.05 251.584 1537.29 249.342 1537.29 246.602C1537.29 243.863 1535.05 241.621 1532.31 241.621Z" fill="#B10043"/>
<path d="M1565.65 241.621C1562.89 241.621 1560.67 243.863 1560.67 246.602C1560.67 249.342 1562.91 251.584 1565.65 251.584C1568.39 251.584 1570.63 249.342 1570.63 246.602C1570.63 243.863 1568.39 241.621 1565.65 241.621Z" fill="#B10043"/>
<path d="M1398.98 214.722C1396.22 214.722 1394 216.963 1394 219.703C1394 222.443 1396.24 224.684 1398.98 224.684C1401.72 224.684 1403.96 222.443 1403.96 219.703C1403.96 216.963 1401.72 214.722 1398.98 214.722Z" fill="#B10043"/>
<path d="M1432.32 224.684C1435.07 224.684 1437.3 222.454 1437.3 219.703C1437.3 216.952 1435.07 214.722 1432.32 214.722C1429.57 214.722 1427.34 216.952 1427.34 219.703C1427.34 222.454 1429.57 224.684 1432.32 224.684Z" fill="#B10043"/>
<path d="M1465.66 224.684C1468.41 224.684 1470.64 222.454 1470.64 219.703C1470.64 216.952 1468.41 214.722 1465.66 214.722C1462.91 214.722 1460.68 216.952 1460.68 219.703C1460.68 222.454 1462.91 224.684 1465.66 224.684Z" fill="#B10043"/>
<path d="M1498.99 224.684C1501.74 224.684 1503.97 222.454 1503.97 219.703C1503.97 216.952 1501.74 214.722 1498.99 214.722C1496.24 214.722 1494.02 216.952 1494.02 219.703C1494.02 222.454 1496.24 224.684 1498.99 224.684Z" fill="#B10043"/>
<path d="M1532.31 214.722C1529.55 214.722 1527.33 216.963 1527.33 219.703C1527.33 222.443 1529.57 224.684 1532.31 224.684C1535.05 224.684 1537.29 222.443 1537.29 219.703C1537.29 216.963 1535.05 214.722 1532.31 214.722Z" fill="#B10043"/>
<path d="M1565.65 214.722C1562.89 214.722 1560.67 216.963 1560.67 219.703C1560.67 222.443 1562.91 224.684 1565.65 224.684C1568.39 224.684 1570.63 222.443 1570.63 219.703C1570.63 216.963 1568.39 214.722 1565.65 214.722Z" fill="#B10043"/>
<path d="M1398.98 187.822C1396.22 187.822 1394 190.064 1394 192.804C1394 195.543 1396.24 197.785 1398.98 197.785C1401.72 197.785 1403.96 195.543 1403.96 192.804C1403.96 190.064 1401.72 187.822 1398.98 187.822Z" fill="#B10043"/>
<path d="M1432.32 187.822C1429.56 187.822 1427.34 190.064 1427.34 192.804C1427.34 195.543 1429.58 197.785 1432.32 197.785C1435.06 197.785 1437.3 195.543 1437.3 192.804C1437.3 190.064 1435.06 187.822 1432.32 187.822Z" fill="#B10043"/>
<path d="M1465.66 187.822C1462.89 187.822 1460.68 190.064 1460.68 192.804C1460.68 195.543 1462.92 197.785 1465.66 197.785C1468.39 197.785 1470.64 195.543 1470.64 192.804C1470.64 190.064 1468.39 187.822 1465.66 187.822Z" fill="#B10043"/>
<path d="M1498.99 187.822C1496.23 187.822 1494.02 190.064 1494.02 192.804C1494.02 195.543 1496.26 197.785 1498.99 197.785C1501.73 197.785 1503.97 195.543 1503.97 192.804C1503.97 190.064 1501.73 187.822 1498.99 187.822Z" fill="#B10043"/>
<path d="M1532.31 187.822C1529.55 187.822 1527.33 190.064 1527.33 192.804C1527.33 195.543 1529.57 197.785 1532.31 197.785C1535.05 197.785 1537.29 195.543 1537.29 192.804C1537.29 190.064 1535.05 187.822 1532.31 187.822Z" fill="#B10043"/>
<path d="M1565.65 187.822C1562.89 187.822 1560.67 190.064 1560.67 192.804C1560.67 195.543 1562.91 197.785 1565.65 197.785C1568.39 197.785 1570.63 195.543 1570.63 192.804C1570.63 190.064 1568.39 187.822 1565.65 187.822Z" fill="#B10043"/>
<path d="M1398.98 160.899C1396.22 160.899 1394 163.141 1394 165.881C1394 168.621 1396.24 170.862 1398.98 170.862C1401.72 170.862 1403.96 168.621 1403.96 165.881C1403.96 163.141 1401.72 160.899 1398.98 160.899Z" fill="#B10043"/>
<path d="M1432.32 170.885C1435.07 170.885 1437.3 168.654 1437.3 165.903C1437.3 163.152 1435.07 160.922 1432.32 160.922C1429.57 160.922 1427.34 163.152 1427.34 165.903C1427.34 168.654 1429.57 170.885 1432.32 170.885Z" fill="#B10043"/>
<path d="M1465.66 170.885C1468.41 170.885 1470.64 168.654 1470.64 165.903C1470.64 163.152 1468.41 160.922 1465.66 160.922C1462.91 160.922 1460.68 163.152 1460.68 165.903C1460.68 168.654 1462.91 170.885 1465.66 170.885Z" fill="#B10043"/>
<path d="M1498.99 170.885C1501.74 170.885 1503.97 168.654 1503.97 165.903C1503.97 163.152 1501.74 160.922 1498.99 160.922C1496.24 160.922 1494.02 163.152 1494.02 165.903C1494.02 168.654 1496.24 170.885 1498.99 170.885Z" fill="#B10043"/>
<path d="M1532.31 160.899C1529.55 160.899 1527.33 163.141 1527.33 165.881C1527.33 168.621 1529.57 170.862 1532.31 170.862C1535.05 170.862 1537.29 168.621 1537.29 165.881C1537.29 163.141 1535.05 160.899 1532.31 160.899Z" fill="#B10043"/>
<path d="M1565.65 160.899C1562.89 160.899 1560.67 163.141 1560.67 165.881C1560.67 168.621 1562.91 170.862 1565.65 170.862C1568.39 170.862 1570.63 168.621 1570.63 165.881C1570.63 163.141 1568.39 160.899 1565.65 160.899Z" fill="#B10043"/>
<path d="M1398.98 134C1396.22 134 1394 136.242 1394 138.981C1394 141.721 1396.24 143.963 1398.98 143.963C1401.72 143.963 1403.96 141.721 1403.96 138.981C1403.96 136.242 1401.72 134 1398.98 134Z" fill="#B10043"/>
<path d="M1432.32 143.985C1435.07 143.985 1437.3 141.755 1437.3 139.004C1437.3 136.253 1435.07 134.022 1432.32 134.022C1429.57 134.022 1427.34 136.253 1427.34 139.004C1427.34 141.755 1429.57 143.985 1432.32 143.985Z" fill="#B10043"/>
<path d="M1465.66 143.985C1468.41 143.985 1470.64 141.755 1470.64 139.004C1470.64 136.253 1468.41 134.022 1465.66 134.022C1462.91 134.022 1460.68 136.253 1460.68 139.004C1460.68 141.755 1462.91 143.985 1465.66 143.985Z" fill="#B10043"/>
<path d="M1498.99 143.985C1501.74 143.985 1503.97 141.755 1503.97 139.004C1503.97 136.253 1501.74 134.022 1498.99 134.022C1496.24 134.022 1494.02 136.253 1494.02 139.004C1494.02 141.755 1496.24 143.985 1498.99 143.985Z" fill="#B10043"/>
<path d="M1532.31 134C1529.55 134 1527.33 136.242 1527.33 138.981C1527.33 141.721 1529.57 143.963 1532.31 143.963C1535.05 143.963 1537.29 141.721 1537.29 138.981C1537.29 136.242 1535.05 134 1532.31 134Z" fill="#B10043"/>
<path d="M1565.65 134C1562.89 134 1560.67 136.242 1560.67 138.981C1560.67 141.721 1562.91 143.963 1565.65 143.963C1568.39 143.963 1570.63 141.721 1570.63 138.981C1570.63 136.242 1568.39 134 1565.65 134Z" fill="#B10043"/>
</g>
<g opacity="0.15">
<path d="M685.442 205.704C688.192 205.704 690.421 203.474 690.421 200.723C690.421 197.971 688.192 195.741 685.442 195.741C682.692 195.741 680.462 197.971 680.462 200.723C680.462 203.474 682.692 205.704 685.442 205.704Z" fill="white"/>
<path d="M685.442 172.351C688.192 172.351 690.421 170.121 690.421 167.37C690.421 164.619 688.192 162.389 685.442 162.389C682.692 162.389 680.462 164.619 680.462 167.37C680.462 170.121 682.692 172.351 685.442 172.351Z" fill="white"/>
<path d="M685.442 138.999C688.192 138.999 690.421 136.769 690.421 134.018C690.421 131.266 688.192 129.036 685.442 129.036C682.692 129.036 680.462 131.266 680.462 134.018C680.462 136.769 682.692 138.999 685.442 138.999Z" fill="white"/>
<path d="M680.462 100.687C680.462 103.45 682.703 105.669 685.442 105.669C688.18 105.669 690.421 103.427 690.421 100.687C690.421 97.9477 688.18 95.7061 685.442 95.7061C682.703 95.7061 680.462 97.9477 680.462 100.687Z" fill="white"/>
<path d="M680.462 67.3339C680.462 70.0964 682.703 72.3154 685.442 72.3154C688.18 72.3154 690.421 70.0737 690.421 67.3339C690.421 64.5942 688.18 62.3525 685.442 62.3525C682.703 62.3525 680.462 64.5942 680.462 67.3339Z" fill="white"/>
<path d="M685.442 38.9628C688.192 38.9628 690.421 36.7326 690.421 33.9814C690.421 31.2303 688.192 29 685.442 29C682.692 29 680.462 31.2303 680.462 33.9814C680.462 36.7326 682.692 38.9628 685.442 38.9628Z" fill="white"/>
<path d="M658.554 205.704C661.304 205.704 663.533 203.474 663.533 200.723C663.533 197.971 661.304 195.741 658.554 195.741C655.804 195.741 653.574 197.971 653.574 200.723C653.574 203.474 655.804 205.704 658.554 205.704Z" fill="white"/>
<path d="M658.554 172.351C661.304 172.351 663.533 170.121 663.533 167.37C663.533 164.619 661.304 162.389 658.554 162.389C655.804 162.389 653.574 164.619 653.574 167.37C653.574 170.121 655.804 172.351 658.554 172.351Z" fill="white"/>
<path d="M658.554 138.999C661.304 138.999 663.533 136.769 663.533 134.018C663.533 131.266 661.304 129.036 658.554 129.036C655.804 129.036 653.574 131.266 653.574 134.018C653.574 136.769 655.804 138.999 658.554 138.999Z" fill="white"/>
<path d="M653.574 100.687C653.574 103.45 655.815 105.669 658.554 105.669C661.292 105.669 663.533 103.427 663.533 100.687C663.533 97.9477 661.292 95.7061 658.554 95.7061C655.815 95.7061 653.574 97.9477 653.574 100.687Z" fill="white"/>
<path d="M653.574 67.3339C653.574 70.0964 655.815 72.3154 658.554 72.3154C661.292 72.3154 663.533 70.0737 663.533 67.3339C663.533 64.5942 661.292 62.3525 658.554 62.3525C655.815 62.3525 653.574 64.5942 653.574 67.3339Z" fill="white"/>
<path d="M658.554 38.9628C661.304 38.9628 663.533 36.7326 663.533 33.9814C663.533 31.2303 661.304 29 658.554 29C655.804 29 653.574 31.2303 653.574 33.9814C653.574 36.7326 655.804 38.9628 658.554 38.9628Z" fill="white"/>
<path d="M626.664 200.723C626.664 203.485 628.905 205.704 631.643 205.704C634.382 205.704 636.622 203.462 636.622 200.723C636.622 197.983 634.382 195.741 631.643 195.741C628.905 195.741 626.664 197.983 626.664 200.723Z" fill="white"/>
<path d="M626.664 167.37C626.664 170.132 628.905 172.351 631.643 172.351C634.382 172.351 636.622 170.11 636.622 167.37C636.622 164.63 634.382 162.389 631.643 162.389C628.905 162.389 626.664 164.63 626.664 167.37Z" fill="white"/>
<path d="M626.664 134.018C626.664 136.78 628.905 138.999 631.643 138.999C634.382 138.999 636.622 136.757 636.622 134.018C636.622 131.278 634.382 129.036 631.643 129.036C628.905 129.036 626.664 131.278 626.664 134.018Z" fill="white"/>
<path d="M626.664 100.687C626.664 103.45 628.905 105.669 631.643 105.669C634.382 105.669 636.622 103.427 636.622 100.687C636.622 97.9477 634.382 95.7061 631.643 95.7061C628.905 95.7061 626.664 97.9477 626.664 100.687Z" fill="white"/>
<path d="M626.664 67.3339C626.664 70.0964 628.905 72.3154 631.643 72.3154C634.382 72.3154 636.622 70.0737 636.622 67.3339C636.622 64.5942 634.382 62.3525 631.643 62.3525C628.905 62.3525 626.664 64.5942 626.664 67.3339Z" fill="white"/>
<path d="M626.664 33.9814C626.664 36.7438 628.905 38.9628 631.643 38.9628C634.382 38.9628 636.622 36.7212 636.622 33.9814C636.622 31.2416 634.382 29 631.643 29C628.905 29 626.664 31.2416 626.664 33.9814Z" fill="white"/>
<path d="M604.778 205.704C607.528 205.704 609.757 203.474 609.757 200.723C609.757 197.971 607.528 195.741 604.778 195.741C602.028 195.741 599.799 197.971 599.799 200.723C599.799 203.474 602.028 205.704 604.778 205.704Z" fill="white"/>
<path d="M604.778 172.351C607.528 172.351 609.757 170.121 609.757 167.37C609.757 164.619 607.528 162.389 604.778 162.389C602.028 162.389 599.799 164.619 599.799 167.37C599.799 170.121 602.028 172.351 604.778 172.351Z" fill="white"/>
<path d="M604.778 138.999C607.528 138.999 609.757 136.769 609.757 134.018C609.757 131.266 607.528 129.036 604.778 129.036C602.028 129.036 599.799 131.266 599.799 134.018C599.799 136.769 602.028 138.999 604.778 138.999Z" fill="white"/>
<path d="M599.776 100.687C599.776 103.45 602.017 105.669 604.755 105.669C607.494 105.669 609.734 103.427 609.734 100.687C609.734 97.9477 607.494 95.7061 604.755 95.7061C602.017 95.7061 599.776 97.9477 599.776 100.687Z" fill="white"/>
<path d="M599.776 67.3339C599.776 70.0964 602.017 72.3154 604.755 72.3154C607.494 72.3154 609.734 70.0737 609.734 67.3339C609.734 64.5942 607.494 62.3525 604.755 62.3525C602.017 62.3525 599.776 64.5942 599.776 67.3339Z" fill="white"/>
<path d="M604.778 38.9628C607.528 38.9628 609.757 36.7326 609.757 33.9814C609.757 31.2303 607.528 29 604.778 29C602.028 29 599.799 31.2303 599.799 33.9814C599.799 36.7326 602.028 38.9628 604.778 38.9628Z" fill="white"/>
<path d="M577.867 205.704C580.617 205.704 582.846 203.474 582.846 200.723C582.846 197.971 580.617 195.741 577.867 195.741C575.117 195.741 572.888 197.971 572.888 200.723C572.888 203.474 575.117 205.704 577.867 205.704Z" fill="white"/>
<path d="M577.867 172.351C580.617 172.351 582.846 170.121 582.846 167.37C582.846 164.619 580.617 162.389 577.867 162.389C575.117 162.389 572.888 164.619 572.888 167.37C572.888 170.121 575.117 172.351 577.867 172.351Z" fill="white"/>
<path d="M577.867 138.999C580.617 138.999 582.846 136.769 582.846 134.018C582.846 131.266 580.617 129.036 577.867 129.036C575.117 129.036 572.888 131.266 572.888 134.018C572.888 136.769 575.117 138.999 577.867 138.999Z" fill="white"/>
<path d="M572.888 100.687C572.888 103.45 575.129 105.669 577.867 105.669C580.606 105.669 582.846 103.427 582.846 100.687C582.846 97.9477 580.606 95.7061 577.867 95.7061C575.129 95.7061 572.888 97.9477 572.888 100.687V100.687Z" fill="white"/>
<path d="M572.888 67.3339C572.888 70.0964 575.129 72.3154 577.867 72.3154C580.606 72.3154 582.846 70.0737 582.846 67.3339C582.846 64.5942 580.606 62.3525 577.867 62.3525C575.129 62.3525 572.888 64.5942 572.888 67.3339V67.3339Z" fill="white"/>
<path d="M577.867 38.9628C580.617 38.9628 582.846 36.7326 582.846 33.9814C582.846 31.2303 580.617 29 577.867 29C575.117 29 572.888 31.2303 572.888 33.9814C572.888 36.7326 575.117 38.9628 577.867 38.9628Z" fill="white"/>
<path d="M546 200.723C546 203.485 548.241 205.704 550.979 205.704C553.718 205.704 555.959 203.462 555.959 200.723C555.959 197.983 553.718 195.741 550.979 195.741C548.241 195.741 546 197.983 546 200.723Z" fill="white"/>
<path d="M546 167.37C546 170.132 548.241 172.351 550.979 172.351C553.718 172.351 555.959 170.11 555.959 167.37C555.959 164.63 553.718 162.389 550.979 162.389C548.241 162.389 546 164.63 546 167.37Z" fill="white"/>
<path d="M546 134.018C546 136.78 548.241 138.999 550.979 138.999C553.718 138.999 555.959 136.757 555.959 134.018C555.959 131.278 553.718 129.036 550.979 129.036C548.241 129.036 546 131.278 546 134.018Z" fill="white"/>
<path d="M546 100.687C546 103.45 548.241 105.669 550.979 105.669C553.718 105.669 555.959 103.427 555.959 100.687C555.959 97.9477 553.718 95.7061 550.979 95.7061C548.241 95.7061 546 97.9477 546 100.687Z" fill="white"/>
<path d="M546 67.3339C546 70.0964 548.241 72.3154 550.979 72.3154C553.718 72.3154 555.959 70.0737 555.959 67.3339C555.959 64.5942 553.718 62.3525 550.979 62.3525C548.241 62.3525 546 64.5942 546 67.3339Z" fill="white"/>
<path d="M546 33.9814C546 36.7438 548.241 38.9628 550.979 38.9628C553.718 38.9628 555.959 36.7212 555.959 33.9814C555.959 31.2416 553.74 29 550.979 29C548.218 29 546 31.2416 546 33.9814Z" fill="white"/>
</g>
<g opacity="0.15">
<path d="M1750.98 892.963C1753.73 892.963 1755.96 890.733 1755.96 887.981C1755.96 885.23 1753.73 883 1750.98 883C1748.23 883 1746 885.23 1746 887.981C1746 890.733 1748.23 892.963 1750.98 892.963Z" fill="black"/>
<path d="M1750.98 926.293C1753.73 926.293 1755.96 924.063 1755.96 921.311C1755.96 918.56 1753.73 916.33 1750.98 916.33C1748.23 916.33 1746 918.56 1746 921.311C1746 924.063 1748.23 926.293 1750.98 926.293Z" fill="black"/>
<path d="M1755.96 954.664C1755.96 951.902 1753.72 949.683 1750.98 949.683C1748.24 949.683 1746 951.924 1746 954.664C1746 957.404 1748.24 959.645 1750.98 959.645C1753.72 959.645 1755.96 957.404 1755.96 954.664Z" fill="black"/>
<path d="M1755.96 988.018C1755.96 985.255 1753.72 983.036 1750.98 983.036C1748.24 983.036 1746 985.278 1746 988.018C1746 990.757 1748.24 992.999 1750.98 992.999C1753.72 992.999 1755.96 990.757 1755.96 988.018Z" fill="black"/>
<path d="M1750.98 1026.35C1753.73 1026.35 1755.96 1024.12 1755.96 1021.37C1755.96 1018.62 1753.73 1016.39 1750.98 1016.39C1748.23 1016.39 1746 1018.62 1746 1021.37C1746 1024.12 1748.23 1026.35 1750.98 1026.35Z" fill="black"/>
<path d="M1750.98 1059.68C1753.73 1059.68 1755.96 1057.45 1755.96 1054.7C1755.96 1051.95 1753.73 1049.72 1750.98 1049.72C1748.23 1049.72 1746 1051.95 1746 1054.7C1746 1057.45 1748.23 1059.68 1750.98 1059.68Z" fill="black"/>
<path d="M1777.87 892.963C1780.62 892.963 1782.85 890.733 1782.85 887.981C1782.85 885.23 1780.62 883 1777.87 883C1775.12 883 1772.89 885.23 1772.89 887.981C1772.89 890.733 1775.12 892.963 1777.87 892.963Z" fill="black"/>
<path d="M1777.87 926.293C1780.62 926.293 1782.85 924.063 1782.85 921.311C1782.85 918.56 1780.62 916.33 1777.87 916.33C1775.12 916.33 1772.89 918.56 1772.89 921.311C1772.89 924.063 1775.12 926.293 1777.87 926.293Z" fill="black"/>
<path d="M1782.85 954.664C1782.85 951.902 1780.61 949.683 1777.87 949.683C1775.13 949.683 1772.89 951.924 1772.89 954.664C1772.89 957.404 1775.13 959.645 1777.87 959.645C1780.61 959.645 1782.85 957.404 1782.85 954.664Z" fill="black"/>
<path d="M1782.85 988.018C1782.85 985.255 1780.61 983.036 1777.87 983.036C1775.13 983.036 1772.89 985.278 1772.89 988.018C1772.89 990.757 1775.13 992.999 1777.87 992.999C1780.61 992.999 1782.85 990.757 1782.85 988.018Z" fill="black"/>
<path d="M1777.87 1026.35C1780.62 1026.35 1782.85 1024.12 1782.85 1021.37C1782.85 1018.62 1780.62 1016.39 1777.87 1016.39C1775.12 1016.39 1772.89 1018.62 1772.89 1021.37C1772.89 1024.12 1775.12 1026.35 1777.87 1026.35Z" fill="black"/>
<path d="M1777.87 1059.68C1780.62 1059.68 1782.85 1057.45 1782.85 1054.7C1782.85 1051.95 1780.62 1049.72 1777.87 1049.72C1775.12 1049.72 1772.89 1051.95 1772.89 1054.7C1772.89 1057.45 1775.12 1059.68 1777.87 1059.68Z" fill="black"/>
<path d="M1809.73 887.981C1809.73 885.219 1807.49 883 1804.76 883C1802.02 883 1799.78 885.242 1799.78 887.981C1799.78 890.721 1802.02 892.963 1804.76 892.963C1807.49 892.963 1809.73 890.721 1809.73 887.981Z" fill="black"/>
<path d="M1809.73 921.311C1809.73 918.549 1807.49 916.33 1804.76 916.33C1802.02 916.33 1799.78 918.572 1799.78 921.311C1799.78 924.051 1802.02 926.293 1804.76 926.293C1807.49 926.293 1809.73 924.051 1809.73 921.311Z" fill="black"/>
<path d="M1809.73 954.664C1809.73 951.902 1807.49 949.683 1804.76 949.683C1802.02 949.683 1799.78 951.924 1799.78 954.664C1799.78 957.404 1802.02 959.645 1804.76 959.645C1807.49 959.645 1809.73 957.404 1809.73 954.664Z" fill="black"/>
<path d="M1809.73 988.018C1809.73 985.255 1807.49 983.036 1804.76 983.036C1802.02 983.036 1799.78 985.278 1799.78 988.018C1799.78 990.757 1802.02 992.999 1804.76 992.999C1807.49 992.999 1809.73 990.757 1809.73 988.018Z" fill="black"/>
<path d="M1809.73 1021.37C1809.73 1018.61 1807.49 1016.39 1804.76 1016.39C1802.02 1016.39 1799.78 1018.63 1799.78 1021.37C1799.78 1024.11 1802.02 1026.35 1804.76 1026.35C1807.49 1026.35 1809.73 1024.11 1809.73 1021.37Z" fill="black"/>
<path d="M1809.73 1054.7C1809.73 1051.94 1807.49 1049.72 1804.76 1049.72C1802.02 1049.72 1799.78 1051.96 1799.78 1054.7C1799.78 1057.44 1802.02 1059.68 1804.76 1059.68C1807.49 1059.68 1809.73 1057.44 1809.73 1054.7Z" fill="black"/>
<path d="M1831.64 892.963C1834.39 892.963 1836.62 890.733 1836.62 887.981C1836.62 885.23 1834.39 883 1831.64 883C1828.89 883 1826.66 885.23 1826.66 887.981C1826.66 890.733 1828.89 892.963 1831.64 892.963Z" fill="black"/>
<path d="M1831.64 926.293C1834.39 926.293 1836.62 924.063 1836.62 921.311C1836.62 918.56 1834.39 916.33 1831.64 916.33C1828.89 916.33 1826.66 918.56 1826.66 921.311C1826.66 924.063 1828.89 926.293 1831.64 926.293Z" fill="black"/>
<path d="M1836.62 954.664C1836.62 951.902 1834.38 949.683 1831.64 949.683C1828.9 949.683 1826.66 951.924 1826.66 954.664C1826.66 957.404 1828.9 959.645 1831.64 959.645C1834.38 959.645 1836.62 957.404 1836.62 954.664Z" fill="black"/>
<path d="M1836.62 988.018C1836.62 985.255 1834.38 983.036 1831.64 983.036C1828.9 983.036 1826.66 985.278 1826.66 988.018C1826.66 990.757 1828.9 992.999 1831.64 992.999C1834.38 992.999 1836.62 990.757 1836.62 988.018Z" fill="black"/>
<path d="M1831.64 1026.35C1834.39 1026.35 1836.62 1024.12 1836.62 1021.37C1836.62 1018.62 1834.39 1016.39 1831.64 1016.39C1828.89 1016.39 1826.66 1018.62 1826.66 1021.37C1826.66 1024.12 1828.89 1026.35 1831.64 1026.35Z" fill="black"/>
<path d="M1831.64 1059.68C1834.39 1059.68 1836.62 1057.45 1836.62 1054.7C1836.62 1051.95 1834.39 1049.72 1831.64 1049.72C1828.89 1049.72 1826.66 1051.95 1826.66 1054.7C1826.66 1057.45 1828.89 1059.68 1831.64 1059.68Z" fill="black"/>
<path d="M1858.53 892.963C1861.28 892.963 1863.51 890.733 1863.51 887.981C1863.51 885.23 1861.28 883 1858.53 883C1855.78 883 1853.55 885.23 1853.55 887.981C1853.55 890.733 1855.78 892.963 1858.53 892.963Z" fill="black"/>
<path d="M1858.53 926.293C1861.28 926.293 1863.51 924.063 1863.51 921.311C1863.51 918.56 1861.28 916.33 1858.53 916.33C1855.78 916.33 1853.55 918.56 1853.55 921.311C1853.55 924.063 1855.78 926.293 1858.53 926.293Z" fill="black"/>
<path d="M1863.53 954.664C1863.53 951.902 1861.29 949.683 1858.55 949.683C1855.82 949.683 1853.57 951.924 1853.57 954.664C1853.57 957.404 1855.82 959.645 1858.55 959.645C1861.29 959.645 1863.53 957.404 1863.53 954.664Z" fill="black"/>
<path d="M1863.53 988.018C1863.53 985.255 1861.29 983.036 1858.55 983.036C1855.82 983.036 1853.57 985.278 1853.57 988.018C1853.57 990.757 1855.82 992.999 1858.55 992.999C1861.29 992.999 1863.53 990.757 1863.53 988.018Z" fill="black"/>
<path d="M1858.53 1026.35C1861.28 1026.35 1863.51 1024.12 1863.51 1021.37C1863.51 1018.62 1861.28 1016.39 1858.53 1016.39C1855.78 1016.39 1853.55 1018.62 1853.55 1021.37C1853.55 1024.12 1855.78 1026.35 1858.53 1026.35Z" fill="black"/>
<path d="M1858.53 1059.68C1861.28 1059.68 1863.51 1057.45 1863.51 1054.7C1863.51 1051.95 1861.28 1049.72 1858.53 1049.72C1855.78 1049.72 1853.55 1051.95 1853.55 1054.7C1853.55 1057.45 1855.78 1059.68 1858.53 1059.68Z" fill="black"/>
<path d="M1890.42 887.981C1890.42 885.219 1888.18 883 1885.44 883C1882.7 883 1880.46 885.242 1880.46 887.981C1880.46 890.721 1882.7 892.963 1885.44 892.963C1888.18 892.963 1890.42 890.721 1890.42 887.981Z" fill="black"/>
<path d="M1890.42 921.311C1890.42 918.549 1888.18 916.33 1885.44 916.33C1882.7 916.33 1880.46 918.572 1880.46 921.311C1880.46 924.051 1882.7 926.293 1885.44 926.293C1888.18 926.293 1890.42 924.051 1890.42 921.311Z" fill="black"/>
<path d="M1890.42 954.664C1890.42 951.902 1888.18 949.683 1885.44 949.683C1882.7 949.683 1880.46 951.924 1880.46 954.664C1880.46 957.404 1882.7 959.645 1885.44 959.645C1888.18 959.645 1890.42 957.404 1890.42 954.664Z" fill="black"/>
<path d="M1890.42 988.018C1890.42 985.255 1888.18 983.036 1885.44 983.036C1882.7 983.036 1880.46 985.278 1880.46 988.018C1880.46 990.757 1882.7 992.999 1885.44 992.999C1888.18 992.999 1890.42 990.757 1890.42 988.018Z" fill="black"/>
<path d="M1890.42 1021.37C1890.42 1018.61 1888.18 1016.39 1885.44 1016.39C1882.7 1016.39 1880.46 1018.63 1880.46 1021.37C1880.46 1024.11 1882.7 1026.35 1885.44 1026.35C1888.18 1026.35 1890.42 1024.11 1890.42 1021.37Z" fill="black"/>
<path d="M1890.42 1054.7C1890.42 1051.94 1888.18 1049.72 1885.44 1049.72C1882.7 1049.72 1880.46 1051.96 1880.46 1054.7C1880.46 1057.44 1882.7 1059.68 1885.44 1059.68C1888.18 1059.68 1890.42 1057.44 1890.42 1054.7Z" fill="black"/>
</g>
<g opacity="0.15" clip-path="url(#clip0_174_243)">
<path d="M1712 662.02H1786.52" stroke="#EFC037" stroke-miterlimit="10"/>
<path d="M1712 655.24H1786.52" stroke="#EFC037" stroke-miterlimit="10"/>
<path d="M1712 648.47H1786.52" stroke="#EFC037" stroke-miterlimit="10"/>
<path d="M1712 641.69H1786.52" stroke="#EFC037" stroke-miterlimit="10"/>
<path d="M1712 634.92H1786.52" stroke="#EFC037" stroke-miterlimit="10"/>
<path d="M1712 628.15H1786.52" stroke="#EFC037" stroke-miterlimit="10"/>
<path d="M1712 621.37H1786.52" stroke="#EFC037" stroke-miterlimit="10"/>
<path d="M1712 614.6H1786.52" stroke="#EFC037" stroke-miterlimit="10"/>
<path d="M1712 607.82H1786.52" stroke="#EFC037" stroke-miterlimit="10"/>
<path d="M1712 601.05H1786.52" stroke="#EFC037" stroke-miterlimit="10"/>
<path d="M1712 594.27H1786.52" stroke="#EFC037" stroke-miterlimit="10"/>
<path d="M1712 587.5H1786.52" stroke="#EFC037" stroke-miterlimit="10"/>
<path d="M1734.85 607.83V684.64H1811.66V607.83H1734.85Z" stroke="#263238" stroke-miterlimit="10"/>
</g>
<g opacity="0.15" clip-path="url(#clip1_174_243)">
<path d="M118.787 150C118.787 161.278 106.54 161.278 106.54 172.556C106.54 183.833 118.787 183.833 118.787 195.111C118.787 206.389 106.54 206.389 106.54 217.667C106.54 228.944 118.787 228.944 118.787 240.222C118.787 251.5 106.54 251.5 106.54 262.778C106.54 274.056 118.787 274.056 118.787 285.333C118.787 296.611 106.54 296.611 106.54 307.889C106.54 319.167 118.787 319.167 118.787 330.469C118.787 341.77 106.54 341.746 106.54 353.048" stroke="#FFBE00" stroke-miterlimit="10"/>
<path d="M98.1239 150C98.1239 161.278 85.8761 161.278 85.8761 172.556C85.8761 183.833 98.1239 183.833 98.1239 195.111C98.1239 206.389 85.8761 206.389 85.8761 217.667C85.8761 228.944 98.1239 228.944 98.1239 240.222C98.1239 251.5 85.8761 251.5 85.8761 262.778C85.8761 274.056 98.1239 274.056 98.1239 285.333C98.1239 296.611 85.8761 296.611 85.8761 307.889C85.8761 319.167 98.1239 319.167 98.1239 330.469C98.1239 341.77 85.8761 341.746 85.8761 353.048" stroke="#FFBE00" stroke-miterlimit="10"/>
<path d="M77.4604 150C77.4604 161.278 65.2126 161.278 65.2126 172.556C65.2126 183.833 77.4604 183.833 77.4604 195.111C77.4604 206.389 65.2126 206.389 65.2126 217.643C65.2126 228.896 77.4604 228.92 77.4604 240.198C77.4604 251.476 65.2126 251.476 65.2126 262.754C65.2126 274.031 77.4604 274.031 77.4604 285.309C77.4604 296.587 65.2126 296.587 65.2126 307.865C65.2126 319.143 77.4604 319.143 77.4604 330.444C77.4604 341.746 65.2126 341.722 65.2126 353.024" stroke="#FFBE00" stroke-miterlimit="10"/>
</g>
<g opacity="0.15" clip-path="url(#clip2_174_243)">
<path d="M1866 68V100L1839.61 84.0099L1866 68Z" fill="black"/>
<path d="M1812.36 68V100L1785.95 84.0099L1812.36 68Z" fill="black"/>
<path d="M1758.69 68V100L1732.31 84.0099L1758.69 68Z" fill="black"/>
<path d="M1705.05 68V100L1678.64 84.0099L1705.05 68Z" fill="black"/>
<path d="M1651.39 68V100L1625 84.0099L1651.39 68Z" fill="black"/>
</g>
<g opacity="0.15" clip-path="url(#clip3_174_243)">
<path d="M30 1004V1036L56.3895 1020.01L30 1004Z" fill="black"/>
<path d="M83.6426 1004V1036L110.052 1020.01L83.6426 1004Z" fill="black"/>
<path d="M137.305 1004V1036L163.695 1020.01L137.305 1004Z" fill="black"/>
<path d="M190.948 1004V1036L217.357 1020.01L190.948 1004Z" fill="black"/>
<path d="M244.61 1004V1036L271 1020.01L244.61 1004Z" fill="black"/>
</g>
<g opacity="0.15" clip-path="url(#clip4_174_243)">
<path d="M1074.22 196.971H1097" stroke="white" stroke-miterlimit="10"/>
<path d="M1055.13 185.527H1097" stroke="white" stroke-miterlimit="10"/>
<path d="M1033.97 174.063H1097" stroke="white" stroke-miterlimit="10"/>
<path d="M1011.91 162.619H1097" stroke="white" stroke-miterlimit="10"/>
<path d="M993.686 151.176H1097" stroke="white" stroke-miterlimit="10"/>
<path d="M979 139.732H1097" stroke="white" stroke-miterlimit="10"/>
<path d="M979 128.268H1097" stroke="white" stroke-miterlimit="10"/>
<path d="M993.686 116.824H1097" stroke="white" stroke-miterlimit="10"/>
<path d="M1011.91 105.381H1097" stroke="white" stroke-miterlimit="10"/>
<path d="M1033.97 93.9365H1097" stroke="white" stroke-miterlimit="10"/>
<path d="M1055.13 82.4727H1097" stroke="white" stroke-miterlimit="10"/>
<path d="M1074.22 71.0293H1097" stroke="white" stroke-miterlimit="10"/>
</g>
<g opacity="0.15" clip-path="url(#clip5_174_243)">
<path d="M846.78 993.971H824" stroke="#B10043" stroke-miterlimit="10"/>
<path d="M865.874 982.527H824" stroke="#B10043" stroke-miterlimit="10"/>
<path d="M887.027 971.063H824" stroke="#B10043" stroke-miterlimit="10"/>
<path d="M909.086 959.619H824" stroke="#B10043" stroke-miterlimit="10"/>
<path d="M927.314 948.176H824" stroke="#B10043" stroke-miterlimit="10"/>
<path d="M942 936.732H824" stroke="#B10043" stroke-miterlimit="10"/>
<path d="M942 925.268H824" stroke="#B10043" stroke-miterlimit="10"/>
<path d="M927.314 913.824H824" stroke="#B10043" stroke-miterlimit="10"/>
<path d="M909.086 902.381H824" stroke="#B10043" stroke-miterlimit="10"/>
<path d="M887.027 890.937H824" stroke="#B10043" stroke-miterlimit="10"/>
<path d="M865.874 879.473H824" stroke="#B10043" stroke-miterlimit="10"/>
<path d="M846.78 868.029H824" stroke="#B10043" stroke-miterlimit="10"/>
</g>
<g opacity="0.15" clip-path="url(#clip6_174_243)">
<path d="M405.312 490.881C450.262 480.479 478.267 435.608 467.865 390.659C457.463 345.71 412.592 317.704 367.643 328.106C322.694 338.508 294.688 383.379 305.09 428.328C315.492 473.277 360.363 501.283 405.312 490.881Z" stroke="#A3E6FF" stroke-miterlimit="10"/>
<path d="M409.181 475.679C445.733 463.15 465.208 423.362 452.679 386.809C440.15 350.256 400.362 330.781 363.809 343.31C327.256 355.839 307.781 395.628 320.31 432.181C332.84 468.733 372.628 488.208 409.181 475.679Z" stroke="#A3E6FF" stroke-miterlimit="10"/>
<path d="M415.556 457.792C442.231 441.739 450.841 407.101 434.788 380.426C418.735 353.751 384.097 345.14 357.422 361.194C330.746 377.247 322.136 411.885 338.189 438.56C354.243 465.235 388.881 473.846 415.556 457.792Z" stroke="#A3E6FF" stroke-miterlimit="10"/>
<path d="M419.926 436.186C434.665 417.722 431.646 390.805 413.182 376.065C394.718 361.326 367.801 364.345 353.062 382.809C338.322 401.273 341.341 428.19 359.805 442.93C378.269 457.669 405.186 454.65 419.926 436.186Z" stroke="#A3E6FF" stroke-miterlimit="10"/>
<path d="M413.423 420.779C419.652 405.902 412.642 388.791 397.764 382.562C382.887 376.332 365.776 383.343 359.547 398.22C353.317 413.098 360.328 430.208 375.205 436.438C390.083 442.667 407.193 435.657 413.423 420.779Z" stroke="#A3E6FF" stroke-miterlimit="10"/>
</g>
<g opacity="0.15">
<path d="M1286.66 815.664L1333.36 862.361" stroke="black" stroke-width="5" stroke-miterlimit="10"/>
<path d="M1333.36 815.664L1286.66 862.361" stroke="black" stroke-width="5" stroke-miterlimit="10"/>
</g>
<g opacity="0.15">
<path d="M571.664 706.664L618.362 753.361" stroke="black" stroke-width="5" stroke-miterlimit="10"/>
<path d="M618.362 706.664L571.664 753.361" stroke="black" stroke-width="5" stroke-miterlimit="10"/>
</g>
<g opacity="0.15">
<path d="M1782.66 301.664L1829.36 348.361" stroke="black" stroke-width="5" stroke-miterlimit="10"/>
<path d="M1829.36 301.664L1782.66 348.361" stroke="black" stroke-width="5" stroke-miterlimit="10"/>
</g>
<g opacity="0.15">
<path d="M254.664 154.664L301.362 201.361" stroke="black" stroke-width="5" stroke-miterlimit="10"/>
<path d="M301.362 154.664L254.664 201.361" stroke="black" stroke-width="5" stroke-miterlimit="10"/>
</g>
<g opacity="0.15" clip-path="url(#clip7_174_243)">
<g filter="url(#filter0_d_174_243)">
<path d="M972.14 422.08H862.63V531.59H972.14V422.08Z" fill="#B10043"/>
</g>
<g style="mix-blend-mode:multiply">
<path d="M882.81 517.38H806V594.19H882.81V517.38Z" fill="#939393"/>
</g>
</g>
<g opacity="0.15" clip-path="url(#clip8_174_243)">
<path d="M1389.31 581.881C1434.26 571.479 1462.27 526.608 1451.87 481.659C1441.46 436.71 1396.59 408.704 1351.64 419.106C1306.69 429.508 1278.69 474.379 1289.09 519.328C1299.49 564.277 1344.36 592.283 1389.31 581.881Z" stroke="#B10043" stroke-miterlimit="10"/>
<path d="M1393.18 566.679C1429.73 554.15 1449.21 514.362 1436.68 477.809C1424.15 441.256 1384.36 421.781 1347.81 434.31C1311.26 446.839 1291.78 486.628 1304.31 523.181C1316.84 559.733 1356.63 579.208 1393.18 566.679Z" stroke="#B10043" stroke-miterlimit="10"/>
<path d="M1399.56 548.792C1426.23 532.739 1434.84 498.101 1418.79 471.426C1402.73 444.751 1368.1 436.14 1341.42 452.194C1314.75 468.247 1306.14 502.885 1322.19 529.56C1338.24 556.235 1372.88 564.846 1399.56 548.792Z" stroke="#B10043" stroke-miterlimit="10"/>
<path d="M1403.93 527.186C1418.67 508.722 1415.65 481.805 1397.18 467.065C1378.72 452.326 1351.8 455.345 1337.06 473.809C1322.32 492.273 1325.34 519.19 1343.81 533.93C1362.27 548.669 1389.19 545.65 1403.93 527.186Z" stroke="#B10043" stroke-miterlimit="10"/>
<path d="M1397.42 511.779C1403.65 496.902 1396.64 479.791 1381.76 473.562C1366.89 467.332 1349.78 474.343 1343.55 489.22C1337.32 504.098 1344.33 521.208 1359.21 527.438C1374.08 533.667 1391.19 526.657 1397.42 511.779Z" stroke="#B10043" stroke-miterlimit="10"/>
</g>
<defs>
<filter id="filter0_d_174_243" x="854.63" y="417.08" width="121.51" height="121.51" filterUnits="userSpaceOnUse" color-interpolation-filters="sRGB">
<feFlood flood-opacity="0" result="BackgroundImageFix"/>
<feColorMatrix in="SourceAlpha" type="matrix" values="0 0 0 0 0 0 0 0 0 0 0 0 0 0 0 0 0 0 127 0" result="hardAlpha"/>
<feOffset dx="-2" dy="1"/>
<feGaussianBlur stdDeviation="3"/>
<feColorMatrix type="matrix" values="0 0 0 0 0.807843 0 0 0 0 0.807843 0 0 0 0 0.807843 0 0 0 0.75 0"/>
<feBlend mode="normal" in2="BackgroundImageFix" result="effect1_dropShadow_174_243"/>
<feBlend mode="normal" in="SourceGraphic" in2="effect1_dropShadow_174_243" result="shape"/>
</filter>
<clipPath id="clip0_174_243">
<rect width="100.16" height="98.13" fill="white" transform="translate(1712 587)"/>
</clipPath>
<clipPath id="clip1_174_243">
<rect width="56" height="203" fill="white" transform="translate(64 150)"/>
</clipPath>
<clipPath id="clip2_174_243">
<rect width="241" height="32" fill="white" transform="translate(1625 68)"/>
</clipPath>
<clipPath id="clip3_174_243">
<rect width="241" height="32" fill="white" transform="matrix(-1 0 0 1 271 1004)"/>
</clipPath>
<clipPath id="clip4_174_243">
<rect width="118" height="128" fill="white" transform="translate(979 70)"/>
</clipPath>
<clipPath id="clip5_174_243">
<rect width="118" height="128" fill="white" transform="matrix(-1 0 0 1 942 867)"/>
</clipPath>
<clipPath id="clip6_174_243">
<rect width="169" height="169" fill="white" transform="translate(302 325)"/>
</clipPath>
<clipPath id="clip7_174_243">
<rect width="173.26" height="180.19" fill="white" transform="translate(806 414)"/>
</clipPath>
<clipPath id="clip8_174_243">
<rect width="169" height="169" fill="white" transform="translate(1286 416)"/>
</clipPath>
</defs>
</svg>
