<svg width="120" height="60" viewBox="0 0 120 60" fill="none" xmlns="http://www.w3.org/2000/svg">
<g clip-path="url(#clip0_489_3405)">
<mask id="mask0_489_3405" style="mask-type:luminance" maskUnits="userSpaceOnUse" x="28" y="21" width="13" height="22">
<path d="M28.4809 22.3468C30.8438 29.5757 31.7401 42.4717 38.6527 42.4717C39.1787 42.4717 39.7104 42.4201 40.2446 42.3185C33.9605 40.8535 33.2149 28.0976 29.3805 21.4923C29.0746 21.7709 28.7745 22.0558 28.4805 22.3468" fill="white"/>
</mask>
<g mask="url(#mask0_489_3405)">
<mask id="mask1_489_3405" style="mask-type:luminance" maskUnits="userSpaceOnUse" x="28" y="21" width="13" height="22">
<path d="M40.2208 42.4761H28.457V21.4967H40.2208V42.4761Z" fill="white"/>
</mask>
<g mask="url(#mask1_489_3405)">
<mask id="mask2_489_3405" style="mask-type:luminance" maskUnits="userSpaceOnUse" x="28" y="21" width="13" height="22">
<path d="M40.2208 21.4963V42.4761H28.457V21.4967L40.2208 21.4963Z" fill="white"/>
</mask>
<g mask="url(#mask2_489_3405)">
<path d="M40.2208 42.4761H28.457V21.4967H40.2208V42.4761Z" fill="url(#paint0_linear_489_3405)"/>
</g>
</g>
</g>
<mask id="mask3_489_3405" style="mask-type:luminance" maskUnits="userSpaceOnUse" x="29" y="20" width="13" height="23">
<path d="M29.3828 21.4922C33.2172 28.0975 33.962 40.8534 40.2469 42.3184C40.7397 42.2274 41.2354 42.0906 41.7311 41.9169C36.0901 39.1529 34.531 26.7678 30.1767 20.8044C29.9129 21.024 29.6442 21.253 29.3832 21.4918" fill="white"/>
</mask>
<g mask="url(#mask3_489_3405)">
<mask id="mask4_489_3405" style="mask-type:luminance" maskUnits="userSpaceOnUse" x="29" y="20" width="13" height="23">
<path d="M41.769 42.3467H29.4219V20.8327H41.769V42.3467Z" fill="white"/>
</mask>
<g mask="url(#mask4_489_3405)">
<mask id="mask5_489_3405" style="mask-type:luminance" maskUnits="userSpaceOnUse" x="29" y="20" width="13" height="23">
<path d="M41.769 20.8327V42.3467H29.4219V20.8327H41.769Z" fill="white"/>
</mask>
<g mask="url(#mask5_489_3405)">
<path d="M41.769 42.3467H29.4219V20.8327H41.769V42.3467Z" fill="url(#paint1_linear_489_3405)"/>
</g>
</g>
</g>
<path d="M34.9075 17.5642C34.3825 17.5642 33.8489 17.6153 33.3147 17.7176C31.916 17.9811 30.495 18.5828 29.0625 19.4948C29.4541 19.8816 29.8261 20.3227 30.1758 20.8057C31.6325 19.5932 33.0794 18.7031 34.5224 18.1659C35.0488 17.9693 35.5913 17.8185 36.1437 17.7153C35.7394 17.6136 35.324 17.563 34.9072 17.5645" fill="#14559A"/>
<path d="M46.0119 40.8992C45.7399 40.639 45.4816 40.3552 45.2273 40.0471C44.0573 40.8763 42.89 41.5055 41.7305 41.9138C42.1424 42.1157 42.575 42.2645 43.0335 42.3579C43.3888 42.4313 43.7545 42.468 44.1478 42.468C45.4479 42.468 46.4759 42.313 47.3516 41.8945C46.8699 41.6336 46.4274 41.2961 46.0145 40.8959" fill="#1969BC"/>
<mask id="mask6_489_3405" style="mask-type:luminance" maskUnits="userSpaceOnUse" x="34" y="17" width="13" height="24">
<path d="M34.5236 18.1664C40.2027 21.1364 40.6959 34.5879 45.228 40.0503C45.5311 39.8365 45.8322 39.6095 46.1292 39.3703C43.2932 33.0861 42.4812 19.2888 36.1418 17.7145C35.6002 17.8153 35.0603 17.9603 34.5195 18.1664" fill="white"/>
</mask>
<g mask="url(#mask6_489_3405)">
<mask id="mask7_489_3405" style="mask-type:luminance" maskUnits="userSpaceOnUse" x="34" y="17" width="13" height="24">
<path d="M46.1644 40.0781H34.5547V17.7411H46.1644V40.0781Z" fill="white"/>
</mask>
<g mask="url(#mask7_489_3405)">
<mask id="mask8_489_3405" style="mask-type:luminance" maskUnits="userSpaceOnUse" x="34" y="17" width="13" height="24">
<path d="M46.1644 17.7411V40.0781H34.5547V17.7411H46.1644Z" fill="white"/>
</mask>
<g mask="url(#mask8_489_3405)">
<path d="M46.1644 40.0781H34.5547V17.7411H46.1644V40.0781Z" fill="url(#paint2_linear_489_3405)"/>
</g>
</g>
</g>
<mask id="mask9_489_3405" style="mask-type:luminance" maskUnits="userSpaceOnUse" x="30" y="18" width="16" height="24">
<path d="M30.1758 20.8055C34.5304 26.7684 36.0892 39.1581 41.7302 41.918C42.8895 41.5091 44.0562 40.8807 45.2266 40.0512C40.6946 34.5884 40.2013 21.1373 34.5222 18.1673C33.0803 18.7031 31.6325 19.5961 30.1799 20.8055" fill="white"/>
</mask>
<g mask="url(#mask9_489_3405)">
<mask id="mask10_489_3405" style="mask-type:luminance" maskUnits="userSpaceOnUse" x="30" y="18" width="16" height="24">
<path d="M45.2188 41.9241H30.168V18.1721H45.2188V41.9241Z" fill="white"/>
</mask>
<g mask="url(#mask10_489_3405)">
<mask id="mask11_489_3405" style="mask-type:luminance" maskUnits="userSpaceOnUse" x="30" y="18" width="16" height="24">
<path d="M45.2188 18.1726V41.9246H30.168V18.1726H45.2188Z" fill="white"/>
</mask>
<g mask="url(#mask11_489_3405)">
<path d="M45.2188 41.9241H30.168V18.1721H45.2188V41.9241Z" fill="url(#paint3_linear_489_3405)"/>
</g>
</g>
</g>
<path d="M28.3465 19.9714L27.7422 20.4165C28.007 20.9946 28.2518 21.6438 28.4809 22.3501L29.3821 21.4957C29.06 20.9431 28.7188 20.4319 28.3465 19.975" fill="#2B74B1"/>
<path d="M29.0631 19.4944L28.3477 19.9712C28.7186 20.4284 29.0608 20.9397 29.3833 21.4919L30.1764 20.8043C29.8257 20.3219 29.4547 19.8801 29.0631 19.4934" fill="#125A9E"/>
<path d="M25.6947 22.1738C26.3777 21.5222 27.0613 20.9366 27.7417 20.4171L27.2501 19.4756C26.7008 20.1422 26.1994 21.0215 25.6914 22.1741" fill="#0D82CA"/>
<path d="M26.1864 18.1509C26.5797 18.4799 26.9303 18.9325 27.2515 19.4749L27.5612 19.1275C27.1155 18.7113 26.6337 18.3692 26.1094 18.1116L26.1739 18.1424C26.1772 18.1463 26.1815 18.1489 26.1854 18.1506" fill="#0D82CA"/>
<mask id="mask12_489_3405" style="mask-type:luminance" maskUnits="userSpaceOnUse" x="9" y="18" width="14" height="20">
<path d="M9.66406 37.1077C15.1412 26.5537 17.7364 19.8734 22.3159 18.0668C17.5942 19.9152 12.2793 26.8859 9.66406 37.1077Z" fill="white"/>
</mask>
<g mask="url(#mask12_489_3405)">
<mask id="mask13_489_3405" style="mask-type:luminance" maskUnits="userSpaceOnUse" x="9" y="18" width="14" height="20">
<path d="M9.65625 18.08H22.3085V37.1221H9.65625V18.0804V18.08Z" fill="white"/>
</mask>
<g mask="url(#mask13_489_3405)">
<mask id="mask14_489_3405" style="mask-type:luminance" maskUnits="userSpaceOnUse" x="9" y="18" width="14" height="20">
<path d="M9.65625 37.1213V18.0805H22.3085V37.1213H9.65625Z" fill="white"/>
</mask>
<g mask="url(#mask14_489_3405)">
<path d="M9.65625 18.08H22.3085V37.1221H9.65625V18.0804V18.08Z" fill="url(#paint4_linear_489_3405)"/>
</g>
</g>
</g>
<path d="M27.5636 19.1274L27.2539 19.4748C27.426 19.7622 27.5859 20.0762 27.7455 20.4164L28.3498 19.9713C28.1021 19.6652 27.8405 19.3821 27.5636 19.1274Z" fill="#127BCA"/>
<mask id="mask15_489_3405" style="mask-type:luminance" maskUnits="userSpaceOnUse" x="0" y="19" width="29" height="34">
<mask id="mask16_489_3405" style="mask-type:luminance" maskUnits="userSpaceOnUse" x="-14" y="7" width="57" height="58">
<path d="M-13.5195 7.97648H42.0415V64.2634H-13.5195V7.97648Z" fill="white"/>
</mask>
<g mask="url(#mask16_489_3405)">
<mask id="mask17_489_3405" style="mask-type:luminance" maskUnits="userSpaceOnUse" x="-14" y="7" width="57" height="58">
<path d="M-13.9297 7.56684H42.4506V64.6731H-13.9297V7.56684Z" fill="white"/>
</mask>
<g mask="url(#mask17_489_3405)">
<mask id="mask18_489_3405" style="mask-type:luminance" maskUnits="userSpaceOnUse" x="0" y="19" width="29" height="34">
<path d="M0.375 52.396H28.108V19.734H0.375V52.396Z" fill="white"/>
</mask>
<g mask="url(#mask18_489_3405)">
<mask id="mask19_489_3405" style="mask-type:luminance" maskUnits="userSpaceOnUse" x="-14" y="7" width="57" height="58">
<path d="M-13.5195 7.97648H42.0415V64.2634H-13.5195V7.97648Z" fill="white"/>
</mask>
<g mask="url(#mask19_489_3405)">
<mask id="mask20_489_3405" style="mask-type:luminance" maskUnits="userSpaceOnUse" x="0" y="19" width="29" height="34">
<path d="M0.375 52.396H28.108V19.734H0.375V52.396Z" fill="white"/>
</mask>
<g mask="url(#mask20_489_3405)">
<mask id="mask21_489_3405" style="mask-type:luminance" maskUnits="userSpaceOnUse" x="0" y="19" width="29" height="34">
<path d="M0.378906 44.9669L13.6543 52.3923L28.1152 27.1574L14.841 19.7295L0.382591 44.9665L0.378906 44.9669Z" fill="white"/>
</mask>
<g mask="url(#mask21_489_3405)">
<mask id="mask22_489_3405" style="mask-type:luminance" maskUnits="userSpaceOnUse" x="-14" y="7" width="57" height="58">
<path d="M42.0376 27.572L21.5162 64.2671L-13.5234 44.6715L6.99754 7.97647L42.0376 27.572Z" fill="white"/>
</mask>
<g mask="url(#mask22_489_3405)">
<mask id="mask23_489_3405" style="mask-type:luminance" maskUnits="userSpaceOnUse" x="-14" y="7" width="57" height="58">
<path d="M42.0376 27.572L21.5166 64.2671L-13.5234 44.6715L6.99754 7.97647L42.0376 27.572Z" fill="white"/>
</mask>
<g mask="url(#mask23_489_3405)">
<path d="M42.0376 27.572L21.5162 64.2671L-13.5234 44.6715L6.99754 7.97647L42.0376 27.572Z" fill="url(#paint5_linear_489_3405)"/>
</g>
</g>
</g>
</g>
</g>
</g>
</g>
</g>
</mask>
<g mask="url(#mask15_489_3405)">
<mask id="mask24_489_3405" style="mask-type:luminance" maskUnits="userSpaceOnUse" x="11" y="28" width="13" height="16">
<path d="M11.7109 28.3922H23.4771V43.1235H11.7109V28.3882V28.3922Z" fill="white"/>
</mask>
<g mask="url(#mask24_489_3405)">
<mask id="mask25_489_3405" style="mask-type:luminance" maskUnits="userSpaceOnUse" x="11" y="28" width="13" height="16">
<path d="M11.7148 43.1235H23.472V28.3882H11.7148V43.1235Z" fill="white"/>
</mask>
<g mask="url(#mask25_489_3405)">
<mask id="mask26_489_3405" style="mask-type:luminance" maskUnits="userSpaceOnUse" x="11" y="28" width="13" height="16">
<path d="M12.1497 43.0898L12.0505 43.1013C12.0423 43.1029 12.0374 43.1029 12.0313 43.1042L11.9469 43.1124C11.9428 43.1124 11.9375 43.1136 11.9334 43.1136L11.7314 43.1279H11.7109C17.2544 42.9723 19.7886 40.1972 21.045 36.1719L23.4743 28.3885C21.1523 31.6563 18.8197 35.5509 16.4744 39.9162C15.3438 42.0198 13.6232 42.8985 12.1497 43.0857" fill="white"/>
</mask>
<g mask="url(#mask26_489_3405)">
<mask id="mask27_489_3405" style="mask-type:luminance" maskUnits="userSpaceOnUse" x="11" y="28" width="13" height="16">
<path d="M11.7148 28.393H23.4778V43.1284H11.7148V28.393Z" fill="white"/>
</mask>
<g mask="url(#mask27_489_3405)">
<mask id="mask28_489_3405" style="mask-type:luminance" maskUnits="userSpaceOnUse" x="11" y="28" width="13" height="16">
<path d="M11.7148 43.1289V28.3935H23.4777V43.1289H11.7148Z" fill="white"/>
</mask>
<g mask="url(#mask28_489_3405)">
<path d="M11.7148 28.393H23.4778V43.1284H11.7148V28.393Z" fill="url(#paint6_linear_489_3405)"/>
</g>
</g>
</g>
</g>
</g>
</g>
<mask id="mask29_489_3405" style="mask-type:luminance" maskUnits="userSpaceOnUse" x="12" y="22" width="14" height="22">
<path d="M12.1484 43.0878V43.0898C13.6224 42.9022 15.3429 42.0247 16.4732 39.9203C18.8185 35.5575 21.1523 31.6604 23.471 28.3926C24.3157 25.7429 25.0113 23.7155 25.6954 22.1731C21.072 26.5737 16.4298 33.8918 12.1484 43.0878Z" fill="white"/>
</mask>
<g mask="url(#mask29_489_3405)">
<mask id="mask30_489_3405" style="mask-type:luminance" maskUnits="userSpaceOnUse" x="12" y="22" width="14" height="22">
<path d="M12.1797 22.2035H25.7262V43.1206H12.1797V22.2035Z" fill="white"/>
</mask>
<g mask="url(#mask30_489_3405)">
<mask id="mask31_489_3405" style="mask-type:luminance" maskUnits="userSpaceOnUse" x="12" y="22" width="14" height="22">
<path d="M12.1797 43.1206V22.2035H25.7262V43.1206H12.1797Z" fill="white"/>
</mask>
<g mask="url(#mask31_489_3405)">
<path d="M12.1797 22.2035H25.7262V43.1206H12.1797V22.2035Z" fill="url(#paint7_linear_489_3405)"/>
</g>
</g>
</g>
<path d="M9.66246 37.1082C8.67928 38.9975 7.61024 41.0107 6.41797 43.1373L8.50788 43.1367C8.78415 41.0242 9.17611 39.009 9.66246 37.1082Z" fill="#05A1E6"/>
<mask id="mask32_489_3405" style="mask-type:luminance" maskUnits="userSpaceOnUse" x="8" y="17" width="20" height="27">
<path d="M24.0867 17.6102C24.0704 17.6134 24.0581 17.6143 24.0458 17.6155C24.0212 17.6204 23.9946 17.6249 23.9688 17.6269L23.9225 17.6319L23.8405 17.6462C23.8274 17.647 23.8147 17.6495 23.8045 17.6503L23.6263 17.6818C23.6189 17.6831 23.6115 17.6851 23.6058 17.6851L23.5239 17.7015L23.4804 17.7138L23.3965 17.7302L23.3571 17.7396L23.0634 17.8158C23.0552 17.8191 23.0417 17.8215 23.0294 17.826C23.0007 17.833 22.9721 17.8432 22.9409 17.8531L22.9008 17.8641L22.8127 17.8908C22.8021 17.8936 22.7922 17.899 22.782 17.899L22.5784 17.9694L22.4801 18.0046L22.4407 18.021C22.4112 18.0292 22.3809 18.0415 22.3588 18.0518C22.3494 18.0567 22.3375 18.0608 22.3301 18.0661C17.7502 19.8735 15.1554 26.5534 9.67826 37.107C9.1721 39.0914 8.78646 41.1045 8.52344 43.1355H8.81716L11.5467 43.1314H11.5725L11.7466 43.1273L11.9486 43.113C11.9527 43.113 11.958 43.1117 11.9609 43.1117C11.9895 43.1076 12.0182 43.1056 12.0453 43.1035C12.0526 43.1023 12.0567 43.1023 12.0657 43.1007C12.0956 43.0978 12.1313 43.0941 12.1649 43.0892V43.0872C16.4458 33.8912 21.088 26.573 25.7114 22.1725C26.2202 21.0201 26.7208 20.1406 27.2702 19.4749C26.9486 18.9317 26.5975 18.4794 26.2051 18.1493C26.201 18.1472 26.1969 18.146 26.1936 18.1419C26.1723 18.1329 26.1506 18.1226 26.1289 18.1112C26.1076 18.0995 26.086 18.0885 26.0642 18.078C26.0437 18.0698 26.0207 18.0587 26.0011 18.0473C25.9754 18.0389 25.9507 18.028 25.9273 18.0145C25.9068 18.0079 25.8892 17.9981 25.87 17.9899C25.829 17.9742 25.7884 17.9574 25.7483 17.9395L25.6967 17.919C25.666 17.9088 25.636 17.8969 25.6066 17.8834C25.591 17.8793 25.5746 17.8727 25.5574 17.8678C25.514 17.8535 25.473 17.8379 25.4329 17.8244C25.4259 17.8223 25.4234 17.8224 25.4218 17.8203C25.3726 17.8052 25.3255 17.7929 25.2764 17.7793C25.2649 17.774 25.2559 17.772 25.2436 17.7687C25.2002 17.7572 25.1617 17.7449 25.1224 17.7343C25.1121 17.733 25.1019 17.7302 25.0937 17.7277C24.993 17.7013 24.8914 17.679 24.7889 17.6609C24.7795 17.6601 24.7672 17.6569 24.7569 17.6544L24.625 17.6339C24.6168 17.6298 24.6086 17.6298 24.5992 17.6282L24.4423 17.6077C24.4341 17.6065 24.4251 17.6044 24.4149 17.6044C24.3739 17.5979 24.3346 17.595 24.2952 17.5913C24.2285 17.5962 24.1658 17.6024 24.1027 17.6085" fill="white"/>
</mask>
<g mask="url(#mask32_489_3405)">
<mask id="mask33_489_3405" style="mask-type:luminance" maskUnits="userSpaceOnUse" x="4" y="14" width="28" height="33">
<path d="M9.01554 46.3394L4.08203 18.3598L26.6312 14.3841L31.5647 42.3637L9.01554 46.3398V46.3394Z" fill="white"/>
</mask>
<g mask="url(#mask33_489_3405)">
<mask id="mask34_489_3405" style="mask-type:luminance" maskUnits="userSpaceOnUse" x="4" y="14" width="28" height="33">
<path d="M9.01554 46.3394L4.08203 18.3598L26.6308 14.3836L31.5643 42.3632L9.01513 46.3394H9.01554Z" fill="white"/>
</mask>
<g mask="url(#mask34_489_3405)">
<path d="M9.01554 46.3394L4.08203 18.3598L26.6312 14.3841L31.5647 42.3637L9.01554 46.3398V46.3394Z" fill="url(#paint8_linear_489_3405)"/>
</g>
</g>
</g>
<mask id="mask35_489_3405" style="mask-type:luminance" maskUnits="userSpaceOnUse" x="52" y="17" width="10" height="16">
<path d="M55.2512 23.8713L52.6016 32.3225C55.4937 28.3431 58.3417 23.3387 61.0528 17.5613C57.8902 18.5556 56.2024 20.8287 55.2508 23.8709" fill="white"/>
</mask>
<g mask="url(#mask35_489_3405)">
<mask id="mask36_489_3405" style="mask-type:luminance" maskUnits="userSpaceOnUse" x="52" y="17" width="10" height="16">
<path d="M52.6172 17.5581H61.0684V32.3188H52.6172V17.5581Z" fill="white"/>
</mask>
<g mask="url(#mask36_489_3405)">
<mask id="mask37_489_3405" style="mask-type:luminance" maskUnits="userSpaceOnUse" x="52" y="17" width="10" height="16">
<path d="M52.6172 32.3188V17.5576H61.0684V32.3188H52.6172Z" fill="white"/>
</mask>
<g mask="url(#mask37_489_3405)">
<path d="M52.6172 17.5581H61.0684V32.3188H52.6172V17.5581Z" fill="url(#paint9_linear_489_3405)"/>
</g>
</g>
</g>
<mask id="mask38_489_3405" style="mask-type:luminance" maskUnits="userSpaceOnUse" x="45" y="14" width="37" height="14">
<mask id="mask39_489_3405" style="mask-type:luminance" maskUnits="userSpaceOnUse" x="45" y="14" width="37" height="14">
<path d="M45 14.7652H81.6623V27.5457H45V14.7652Z" fill="white"/>
</mask>
<g mask="url(#mask39_489_3405)">
<mask id="mask40_489_3405" style="mask-type:luminance" maskUnits="userSpaceOnUse" x="44" y="14" width="39" height="14">
<path d="M44.6016 14.3554H82.0729V27.9458H44.6016V14.355V14.3554Z" fill="white"/>
</mask>
<g mask="url(#mask40_489_3405)">
<mask id="mask41_489_3405" style="mask-type:luminance" maskUnits="userSpaceOnUse" x="45" y="14" width="37" height="14">
<path d="M45 27.5457H81.6562V14.7742H45V27.5457Z" fill="white"/>
</mask>
<g mask="url(#mask41_489_3405)">
<mask id="mask42_489_3405" style="mask-type:luminance" maskUnits="userSpaceOnUse" x="45" y="14" width="37" height="14">
<path d="M45 14.7652H81.6623V27.5457H45V14.7652Z" fill="white"/>
</mask>
<g mask="url(#mask42_489_3405)">
<mask id="mask43_489_3405" style="mask-type:luminance" maskUnits="userSpaceOnUse" x="45" y="14" width="37" height="14">
<path d="M45 27.5457H81.6562V14.7742H45V27.5457Z" fill="white"/>
</mask>
<g mask="url(#mask43_489_3405)">
<mask id="mask44_489_3405" style="mask-type:luminance" maskUnits="userSpaceOnUse" x="45" y="14" width="37" height="14">
<path d="M45 14.7742H81.6529V27.5457H45V14.7742Z" fill="white"/>
</mask>
<g mask="url(#mask44_489_3405)">
<mask id="mask45_489_3405" style="mask-type:luminance" maskUnits="userSpaceOnUse" x="45" y="14" width="37" height="14">
<path d="M81.6638 27.5361H45.0117V14.7647H81.6638V27.5361Z" fill="white"/>
</mask>
<g mask="url(#mask45_489_3405)">
<mask id="mask46_489_3405" style="mask-type:luminance" maskUnits="userSpaceOnUse" x="45" y="14" width="37" height="14">
<path d="M81.6638 14.7651V27.5361H45.0117V14.7647H81.6638V14.7651Z" fill="white"/>
</mask>
<g mask="url(#mask46_489_3405)">
<path d="M81.6638 27.5361H45.0117V14.7647H81.6638V27.5361Z" fill="url(#paint10_linear_489_3405)"/>
</g>
</g>
</g>
</g>
</g>
</g>
</g>
</g>
</mask>
<g mask="url(#mask38_489_3405)">
<mask id="mask47_489_3405" style="mask-type:luminance" maskUnits="userSpaceOnUse" x="47" y="14" width="26" height="31">
<path d="M47.9961 14.3182H72.043V44.4805H47.9961V14.3182Z" fill="white"/>
</mask>
<g mask="url(#mask47_489_3405)">
<mask id="mask48_489_3405" style="mask-type:luminance" maskUnits="userSpaceOnUse" x="52" y="17" width="16" height="25">
<path d="M52.2539 41.8586H67.8033V17.0137H52.2539V41.8586Z" fill="white"/>
</mask>
<g mask="url(#mask48_489_3405)">
<mask id="mask49_489_3405" style="mask-type:luminance" maskUnits="userSpaceOnUse" x="52" y="17" width="16" height="25">
<path d="M52.6986 41.6477L52.2578 41.8586C57.8824 39.3503 64.5918 29.4001 67.8043 17.0137H67.1489C59.7693 30.1965 57.3957 39.0205 52.6949 41.6477" fill="white"/>
</mask>
<g mask="url(#mask49_489_3405)">
<mask id="mask50_489_3405" style="mask-type:luminance" maskUnits="userSpaceOnUse" x="47" y="14" width="26" height="31">
<path d="M72.0393 17.7257L67.3217 44.4763L47.9961 41.0688L52.7137 14.3181L72.0393 17.7257Z" fill="white"/>
</mask>
<g mask="url(#mask50_489_3405)">
<mask id="mask51_489_3405" style="mask-type:luminance" maskUnits="userSpaceOnUse" x="47" y="14" width="26" height="31">
<path d="M72.0393 17.7257L67.3217 44.4763L47.9961 41.0688L52.7137 14.3181L72.0393 17.7257Z" fill="white"/>
</mask>
<g mask="url(#mask51_489_3405)">
<path d="M72.0393 17.7257L67.3217 44.4763L47.9961 41.0688L52.7137 14.3181L72.0393 17.7257Z" fill="url(#paint11_linear_489_3405)"/>
</g>
</g>
</g>
</g>
</g>
</g>
<path d="M49.0182 40.5407C50.2419 39.0463 51.2395 36.5071 52.5989 32.323C51.0298 34.4794 49.4527 36.3317 47.8685 37.8439C47.8666 37.8485 47.8666 37.8524 47.8633 37.8576C48.2084 38.89 48.5869 39.804 49.0182 40.5407Z" fill="#079AE1"/>
<path d="M49.0184 40.5408C48.6022 41.0497 48.1614 41.4355 47.6698 41.7226L47.3438 41.8979C47.876 42.1858 48.4583 42.3693 49.0594 42.4386H49.0637L49.3439 42.4635H49.3616L49.4927 42.4701H49.511L49.6496 42.4721L49.7987 42.4701L49.8446 42.4668L49.9495 42.4635L50.0013 42.457L50.0996 42.4504C50.1048 42.4504 50.1078 42.4504 50.1111 42.4472C50.1242 42.4472 50.1363 42.4452 50.1491 42.4452L50.2585 42.4337C50.2618 42.4337 50.2635 42.4324 50.2684 42.4324C50.2782 42.4301 50.2903 42.4285 50.3012 42.4272L50.4191 42.4101C50.4309 42.4101 50.4411 42.4069 50.4539 42.4052L50.5859 42.3836H50.5932C50.5964 42.3813 50.602 42.3813 50.6049 42.3803L50.8681 42.3246C50.1425 42.0624 49.5353 41.4315 49.0115 40.5398" fill="#1969BC"/>
<path d="M38.6523 42.4717C39.1867 42.4707 39.7197 42.4195 40.2444 42.3186C40.7373 42.2275 41.2329 42.0908 41.729 41.9175C42.1427 42.1205 42.5806 42.27 43.0321 42.3625C43.3873 42.4346 43.7531 42.472 44.1463 42.472H38.6523V42.4717Z" fill="#1E5CB3"/>
<path d="M44.1446 42.4717C45.4446 42.4717 46.4737 42.3187 47.3484 41.8982C47.8804 42.1866 48.4628 42.3701 49.064 42.4389H49.0683L49.3485 42.4639H49.3662L49.4973 42.4704H49.5157L49.6543 42.4724H44.1406L44.1446 42.4717Z" fill="#1E5CB3"/>
<path d="M49.6599 42.4718L49.809 42.4698L49.8549 42.4665L49.9597 42.4633L50.0112 42.4567L50.1095 42.4502C50.1147 42.4502 50.1167 42.4501 50.121 42.4482C50.1341 42.4482 50.1462 42.4449 50.1603 42.4449L50.2684 42.4334C50.2717 42.4334 50.2734 42.4321 50.2783 42.4321C50.2881 42.4298 50.3006 42.4282 50.3111 42.4269L50.429 42.4095C50.4408 42.4093 50.4524 42.4076 50.4638 42.4046L50.5955 42.383H50.6021C50.607 42.3807 50.6119 42.3807 50.6152 42.3797L50.8787 42.324C51.1363 42.4187 51.4088 42.4664 51.6832 42.4649L49.6562 42.4701L49.6599 42.4718Z" fill="#1D60B5"/>
<path d="M47.8677 37.858C47.8677 37.8557 47.8658 37.8528 47.8658 37.8508L46.1288 39.3705L45.2227 40.0508L46.0072 40.9029C46.4202 41.3028 46.8593 41.6403 47.3444 41.9015L47.6704 41.7262C48.162 41.4391 48.6032 41.053 49.019 40.5444C48.5884 39.807 48.2096 38.8943 47.8641 37.8616" fill="#175FAB"/>
<mask id="mask52_489_3405" style="mask-type:luminance" maskUnits="userSpaceOnUse" x="49" y="17" width="19" height="26">
<path d="M65.0875 17.0137H62.3518C62.2597 17.0137 62.1695 17.0157 62.0794 17.017L61.8221 17.0198H61.816L61.297 17.0444L61.0512 17.5614C58.3392 23.3384 55.4913 28.3436 52.5999 32.3226C51.2399 36.5068 50.2428 39.0463 49.0195 40.5403C49.5431 41.4321 50.1502 42.0593 50.8753 42.3264C50.8966 42.3195 50.913 42.3166 50.9314 42.3129C50.9355 42.31 50.9396 42.31 50.9437 42.31C50.956 42.308 50.9695 42.3027 50.9826 42.3018C51.0125 42.2949 51.0441 42.2883 51.0727 42.2781L51.1276 42.2637C51.1543 42.2564 51.1833 42.2494 51.2087 42.2433C51.2251 42.2359 51.2415 42.2322 51.2595 42.2281C51.3017 42.2146 51.3394 42.2056 51.38 42.1925C51.398 42.1843 51.4181 42.1777 51.4398 42.1728C51.4623 42.1646 51.4861 42.158 51.5066 42.1482C51.5311 42.1408 51.5549 42.1359 51.5762 42.1265C51.595 42.1216 51.6155 42.113 51.6336 42.1048C51.6807 42.0884 51.727 42.0741 51.7757 42.0556C51.788 42.0515 51.8003 42.0442 51.8138 42.0417C51.8425 42.0294 51.8724 42.0212 51.8957 42.0073C51.9072 42.0032 51.9195 41.9979 51.9367 41.9938C52.0388 41.9525 52.1402 41.9094 52.2407 41.8643C52.2415 41.8643 52.2468 41.8623 52.2501 41.8602C52.3963 41.7955 52.5434 41.7242 52.6897 41.6493C57.3917 39.0225 59.7653 30.1985 67.1448 17.0153H65.0834L65.0875 17.0137Z" fill="white"/>
</mask>
<g mask="url(#mask52_489_3405)">
<mask id="mask53_489_3405" style="mask-type:luminance" maskUnits="userSpaceOnUse" x="49" y="17" width="19" height="26">
<path d="M67.1352 42.3289H49.0078V17.012H67.1352V42.3289Z" fill="white"/>
</mask>
<g mask="url(#mask53_489_3405)">
<mask id="mask54_489_3405" style="mask-type:luminance" maskUnits="userSpaceOnUse" x="49" y="17" width="19" height="26">
<path d="M67.1352 17.0162V42.333H49.0078V17.0162H67.1352Z" fill="white"/>
</mask>
<g mask="url(#mask54_489_3405)">
<path d="M67.1352 42.3289H49.0078V17.012H67.1352V42.3289Z" fill="url(#paint12_linear_489_3405)"/>
</g>
</g>
</g>
<mask id="mask55_489_3405" style="mask-type:luminance" maskUnits="userSpaceOnUse" x="18" y="16" width="17" height="5">
<mask id="mask56_489_3405" style="mask-type:luminance" maskUnits="userSpaceOnUse" x="18" y="16" width="17" height="5">
<path d="M18.9531 16.5418H34.5144V20.1304H18.9531V16.5418Z" fill="white"/>
</mask>
<g mask="url(#mask56_489_3405)">
<mask id="mask57_489_3405" style="mask-type:luminance" maskUnits="userSpaceOnUse" x="18" y="16" width="17" height="5">
<path d="M18.543 16.1354H34.9194V20.54H18.543V16.1354Z" fill="white"/>
</mask>
<g mask="url(#mask57_489_3405)">
<mask id="mask58_489_3405" style="mask-type:luminance" maskUnits="userSpaceOnUse" x="18" y="16" width="17" height="5">
<path d="M18.9531 20.1274H34.5119V16.5417H18.9531V20.1274Z" fill="white"/>
</mask>
<g mask="url(#mask58_489_3405)">
<mask id="mask59_489_3405" style="mask-type:luminance" maskUnits="userSpaceOnUse" x="18" y="16" width="17" height="5">
<path d="M18.9531 16.5418H34.5144V20.1304H18.9531V16.5418Z" fill="white"/>
</mask>
<g mask="url(#mask59_489_3405)">
<mask id="mask60_489_3405" style="mask-type:luminance" maskUnits="userSpaceOnUse" x="18" y="16" width="17" height="5">
<path d="M18.9531 20.1274H34.5119V16.5417H18.9531V20.1274Z" fill="white"/>
</mask>
<g mask="url(#mask60_489_3405)">
<mask id="mask61_489_3405" style="mask-type:luminance" maskUnits="userSpaceOnUse" x="18" y="16" width="17" height="5">
<path d="M34.5142 20.1274H18.957V16.5417H34.5142V20.1274Z" fill="white"/>
</mask>
<g mask="url(#mask61_489_3405)">
<mask id="mask62_489_3405" style="mask-type:luminance" maskUnits="userSpaceOnUse" x="18" y="16" width="17" height="5">
<path d="M18.9531 16.5449H34.5103V20.1306H18.9531V16.5449Z" fill="white"/>
</mask>
<g mask="url(#mask62_489_3405)">
<mask id="mask63_489_3405" style="mask-type:luminance" maskUnits="userSpaceOnUse" x="18" y="16" width="17" height="5">
<path d="M18.9531 20.1301V16.5448H34.5103V20.1301H18.9531Z" fill="white"/>
</mask>
<g mask="url(#mask63_489_3405)">
<path d="M18.9531 16.5449H34.5103V20.1306H18.9531V16.5449Z" fill="url(#paint13_linear_489_3405)"/>
</g>
</g>
</g>
</g>
</g>
</g>
</g>
</g>
</mask>
<g mask="url(#mask55_489_3405)">
<mask id="mask64_489_3405" style="mask-type:luminance" maskUnits="userSpaceOnUse" x="23" y="14" width="13" height="9">
<path d="M23.3125 14.6115H35.635V22.0542H23.3125V14.6115Z" fill="white"/>
</mask>
<g mask="url(#mask64_489_3405)">
<mask id="mask65_489_3405" style="mask-type:luminance" maskUnits="userSpaceOnUse" x="23" y="17" width="12" height="3">
<path d="M23.707 19.9714H34.9099V17.5643H23.707V19.9714Z" fill="white"/>
</mask>
<g mask="url(#mask65_489_3405)">
<path d="M24.2728 17.5929L24.3072 17.597C24.3358 17.5982 24.3643 17.6014 24.3924 17.6064C24.4027 17.6064 24.4117 17.6085 24.4199 17.6097L24.5768 17.6302C24.5858 17.6322 24.5944 17.6322 24.6026 17.6351L24.7345 17.6568C24.7451 17.6602 24.7561 17.6624 24.7673 17.6634L25.0712 17.7302L25.0991 17.7367L25.222 17.7711C25.2343 17.7744 25.2437 17.7764 25.2548 17.7818L25.4002 17.8227C25.4018 17.8252 25.4043 17.8252 25.41 17.8268L25.5329 17.8703L25.5821 17.8866L25.6722 17.9276C25.6886 17.9317 25.7062 17.9383 25.7238 17.9452L25.8443 17.9956L25.9028 18.021L25.9766 18.0521C25.9971 18.0636 26.0204 18.0734 26.0405 18.0829L26.1052 18.1156C26.6287 18.3729 27.1109 18.7146 27.5566 19.1316C27.7164 18.9634 27.8883 18.807 28.0707 18.6638C27.0958 17.9727 25.9897 17.5782 24.7148 17.5782C24.5662 17.5777 24.4176 17.584 24.2695 17.597" fill="#7DCBEC"/>
<path d="M27.5631 19.1275C27.8363 19.3823 28.0981 19.6654 28.3414 19.9714L29.0567 19.4946C28.7446 19.1824 28.4148 18.9022 28.0727 18.6597C27.8949 18.799 27.7237 18.9547 27.5586 19.1275" fill="#5EC5ED"/>
<mask id="mask66_489_3405" style="mask-type:luminance" maskUnits="userSpaceOnUse" x="23" y="17" width="10" height="2">
<path d="M24.2744 17.5929L24.7197 17.5741C25.9946 17.5741 27.0957 17.9686 28.0756 18.6597C29.1059 17.8485 30.3504 17.5643 32.0792 17.5643H23.707C23.8996 17.5643 24.0888 17.5749 24.2744 17.5929Z" fill="white"/>
</mask>
<g mask="url(#mask66_489_3405)">
<mask id="mask67_489_3405" style="mask-type:luminance" maskUnits="userSpaceOnUse" x="23" y="14" width="10" height="8">
<path d="M24.9294 14.6114L32.461 17.735L30.8441 21.6333L23.3125 18.5092L24.9294 14.6114Z" fill="white"/>
</mask>
<g mask="url(#mask67_489_3405)">
<mask id="mask68_489_3405" style="mask-type:luminance" maskUnits="userSpaceOnUse" x="23" y="14" width="10" height="8">
<path d="M24.9294 14.6114L32.461 17.7355L30.8441 21.6338L23.3125 18.5097L24.9294 14.6114Z" fill="white"/>
</mask>
<g mask="url(#mask68_489_3405)">
<path d="M24.9294 14.6114L32.461 17.735L30.8441 21.6333L23.3125 18.5092L24.9294 14.6114Z" fill="url(#paint14_linear_489_3405)"/>
</g>
</g>
</g>
<mask id="mask69_489_3405" style="mask-type:luminance" maskUnits="userSpaceOnUse" x="28" y="17" width="7" height="3">
<path d="M32.0778 17.5643C30.3491 17.5643 29.1045 17.8482 28.0742 18.6597C28.4163 18.9023 28.7461 19.1825 29.0582 19.4946C30.4908 18.5827 31.9107 17.9797 33.3105 17.7167C33.8451 17.6159 34.378 17.5651 34.9032 17.5651H32.0778V17.5643Z" fill="white"/>
</mask>
<g mask="url(#mask69_489_3405)">
<mask id="mask70_489_3405" style="mask-type:luminance" maskUnits="userSpaceOnUse" x="27" y="14" width="9" height="9">
<path d="M27.3516 17.8805L33.7422 14.9842L35.6324 19.1533L29.2417 22.0496L27.3516 17.8805Z" fill="white"/>
</mask>
<g mask="url(#mask70_489_3405)">
<mask id="mask71_489_3405" style="mask-type:luminance" maskUnits="userSpaceOnUse" x="27" y="14" width="9" height="9">
<path d="M27.3516 17.8805L33.7422 14.9834L35.632 19.1525L29.2413 22.0496L27.3516 17.8805Z" fill="white"/>
</mask>
<g mask="url(#mask71_489_3405)">
<path d="M27.3516 17.8805L33.7422 14.9842L35.6324 19.1533L29.2417 22.0496L27.3516 17.8805Z" fill="url(#paint15_linear_489_3405)"/>
</g>
</g>
</g>
</g>
</g>
</g>
<mask id="mask72_489_3405" style="mask-type:luminance" maskUnits="userSpaceOnUse" x="36" y="18" width="38" height="22">
<mask id="mask73_489_3405" style="mask-type:luminance" maskUnits="userSpaceOnUse" x="36" y="18" width="38" height="22">
<path d="M36.5586 18.9607H73.2229V39.0884H36.5586V18.9607Z" fill="white"/>
</mask>
<g mask="url(#mask73_489_3405)">
<mask id="mask74_489_3405" style="mask-type:luminance" maskUnits="userSpaceOnUse" x="36" y="18" width="38" height="22">
<path d="M36.1602 18.5662H73.6315V39.498H36.1602V18.5662Z" fill="white"/>
</mask>
<g mask="url(#mask74_489_3405)">
<mask id="mask75_489_3405" style="mask-type:luminance" maskUnits="userSpaceOnUse" x="36" y="18" width="38" height="22">
<path d="M36.5586 39.0732H73.2156V18.9607H36.5586V39.0732Z" fill="white"/>
</mask>
<g mask="url(#mask75_489_3405)">
<mask id="mask76_489_3405" style="mask-type:luminance" maskUnits="userSpaceOnUse" x="36" y="18" width="38" height="22">
<path d="M36.5586 18.9607H73.2229V39.0884H36.5586V18.9607Z" fill="white"/>
</mask>
<g mask="url(#mask76_489_3405)">
<mask id="mask77_489_3405" style="mask-type:luminance" maskUnits="userSpaceOnUse" x="36" y="18" width="38" height="22">
<path d="M36.5586 39.0732H73.2156V18.9607H36.5586V39.0732Z" fill="white"/>
</mask>
<g mask="url(#mask77_489_3405)">
<mask id="mask78_489_3405" style="mask-type:luminance" maskUnits="userSpaceOnUse" x="36" y="18" width="38" height="22">
<path d="M73.2146 39.0732H36.5625V18.9607H73.2146V39.0732Z" fill="white"/>
</mask>
<g mask="url(#mask78_489_3405)">
<mask id="mask79_489_3405" style="mask-type:luminance" maskUnits="userSpaceOnUse" x="36" y="18" width="38" height="22">
<path d="M36.5742 18.9758H73.2263V39.0884H36.5742V18.9762V18.9758Z" fill="white"/>
</mask>
<g mask="url(#mask79_489_3405)">
<mask id="mask80_489_3405" style="mask-type:luminance" maskUnits="userSpaceOnUse" x="36" y="18" width="38" height="22">
<path d="M36.5742 39.0884V18.9762H73.2263V39.0884H36.5742Z" fill="white"/>
</mask>
<g mask="url(#mask80_489_3405)">
<path d="M36.5742 18.9758H73.2263V39.0884H36.5742V18.9762V18.9758Z" fill="url(#paint16_linear_489_3405)"/>
</g>
</g>
</g>
</g>
</g>
</g>
</g>
</g>
</mask>
<g mask="url(#mask72_489_3405)">
<mask id="mask81_489_3405" style="mask-type:luminance" maskUnits="userSpaceOnUse" x="47" y="17" width="15" height="21">
<path d="M47.8711 17.0385H61.3521V37.8438H47.8711V17.0385Z" fill="white"/>
</mask>
<g mask="url(#mask81_489_3405)">
<mask id="mask82_489_3405" style="mask-type:luminance" maskUnits="userSpaceOnUse" x="47" y="17" width="15" height="21">
<path d="M47.8711 37.8438H61.2886V17.0446H47.8711V37.8438Z" fill="white"/>
</mask>
<g mask="url(#mask82_489_3405)">
<mask id="mask83_489_3405" style="mask-type:luminance" maskUnits="userSpaceOnUse" x="47" y="17" width="15" height="21">
<path d="M52.5963 32.3248L55.248 23.8712C56.1984 20.8282 57.8833 18.555 61.0479 17.5616L61.2908 17.0446C56.1292 17.3531 53.7232 19.9778 52.5098 23.8621C50.3886 30.6452 49.1039 35.0425 47.8672 37.8438C49.4472 36.3329 51.0265 34.4788 52.5963 32.3248Z" fill="white"/>
</mask>
<g mask="url(#mask83_489_3405)">
<mask id="mask84_489_3405" style="mask-type:luminance" maskUnits="userSpaceOnUse" x="47" y="17" width="15" height="21">
<path d="M61.3503 37.8376H47.9258V17.0385H61.3503V37.8376Z" fill="white"/>
</mask>
<g mask="url(#mask84_489_3405)">
<mask id="mask85_489_3405" style="mask-type:luminance" maskUnits="userSpaceOnUse" x="47" y="17" width="15" height="21">
<path d="M61.3503 17.0389V37.8372H47.9258V17.0389H61.3503Z" fill="white"/>
</mask>
<g mask="url(#mask85_489_3405)">
<path d="M61.3503 37.8376H47.9258V17.0385H61.3503V37.8376Z" fill="url(#paint17_linear_489_3405)"/>
</g>
</g>
</g>
</g>
</g>
</g>
<path d="M60.3388 42.0733L60.2589 42.2755H60.251C60.2395 42.2306 60.2182 42.1641 60.1769 42.0776L59.6729 40.9305H59.4186V42.5747H59.6021V41.4736L59.5939 41.1514H59.5979C59.6156 41.2301 59.6323 41.2868 59.648 41.3218L60.21 42.5754H60.3038L60.8635 41.3123C60.8789 41.2795 60.895 41.2271 60.915 41.1485H60.9183L60.9032 41.4677V42.5721H61.0949V40.9279H60.8524L60.3379 42.071L60.3388 42.0733ZM58.0195 41.1052H58.4934V42.5747H58.6901V41.1052H59.162V40.9302H58.0215V41.1052H58.0195ZM69.9664 40.2072C69.7945 40.2042 69.6238 40.2373 69.4655 40.3043C69.3071 40.3714 69.1646 40.471 69.0472 40.5966C68.7955 40.8571 68.6703 41.1701 68.6703 41.5404C68.6703 41.9009 68.7948 42.2139 69.0472 42.4777C69.2995 42.7415 69.6056 42.8733 69.9664 42.8733C70.1426 42.8762 70.3175 42.8425 70.48 42.7744C70.6425 42.7063 70.7891 42.6053 70.9106 42.4777C71.1708 42.2142 71.3039 41.9019 71.3039 41.5404C71.3039 41.1789 71.1745 40.8653 70.9106 40.6018C70.7893 40.4741 70.6427 40.373 70.4801 40.3051C70.3175 40.2371 70.1426 40.2038 69.9664 40.2072ZM102.383 27.4783H107.265V42.6009H109.247V27.4783H114.119V25.6857H102.386V27.4783H102.383ZM93.5345 34.8981H99.644V33.1054H93.5349V27.4783H100.129V25.6857H91.5587V42.6009H100.524V40.8083H93.5431V34.8977L93.5345 34.8981ZM85.8376 37.5998L85.9565 40.0863H85.9106C85.7927 39.8569 85.5633 39.4826 85.2224 38.9556L76.754 25.6827H74.1892V42.598H76.1719V30.3833L76.0776 28.0607H76.1497C76.2988 28.4458 76.4751 28.7988 76.6789 29.1226L85.4086 42.6052H87.8141V25.6899H85.8477V37.6038L85.8376 37.5998ZM109.262 22.3032C109.262 23.2091 109.663 23.6623 110.468 23.6623C110.755 23.6623 110.986 23.6131 111.161 23.5132V22.884C111.026 22.9833 110.867 23.0331 110.684 23.0331C110.438 23.0331 110.263 22.9675 110.157 22.8358C110.051 22.7047 110 22.4864 110 22.1803V19.5815H111.16V18.9565H110V17.5931L109.261 17.8324V18.9565H108.47V19.5815H109.261V22.3068L109.262 22.3032ZM106.247 23.5601H106.984V19.5782H108.064V18.9532H106.984V18.2434C106.984 17.5925 107.24 17.2667 107.757 17.2667C107.928 17.2641 108.097 17.3059 108.247 17.388V16.7221C108.118 16.6696 107.94 16.6421 107.713 16.6421C107.319 16.6421 106.992 16.7656 106.718 17.0157C106.401 17.3025 106.247 17.7039 106.247 18.2066V18.9539H105.46V19.5788H106.247V23.5607V23.5601ZM101.219 21.2824C101.219 20.6944 101.363 20.2415 101.653 19.9203C101.93 19.6205 102.297 19.4704 102.756 19.4704C103.22 19.4704 103.582 19.6185 103.84 19.9154C104.107 20.2248 104.24 20.6744 104.24 21.265C104.24 21.8287 104.115 22.2626 103.866 22.57C103.612 22.8846 103.242 23.0419 102.756 23.0419C102.288 23.0419 101.915 22.8866 101.634 22.5759C101.357 22.2665 101.219 21.8339 101.219 21.2827M104.375 23.0052C104.788 22.5628 104.998 21.9729 104.998 21.2355C104.998 20.4893 104.803 19.9017 104.419 19.4756C104.032 19.0515 103.497 18.8378 102.813 18.8378C102.113 18.8378 101.555 19.0427 101.139 19.4491C100.69 19.8882 100.464 20.5063 100.464 21.3073C100.464 22.0099 100.663 22.5749 101.058 23.0026C101.463 23.4463 102.009 23.6679 102.705 23.6679C103.407 23.6679 103.965 23.4457 104.378 23.0026M99.313 23.2635C99.449 23.1485 99.5577 23.0046 99.631 22.8422C99.7043 22.6799 99.7404 22.5033 99.7368 22.3252C99.7368 21.9824 99.6234 21.7005 99.3979 21.4796C99.2255 21.3043 98.9417 21.1336 98.5478 20.9697C98.1981 20.8206 97.9651 20.6921 97.8595 20.5863C97.737 20.4732 97.6747 20.3143 97.6747 20.1111C97.6729 20.0218 97.692 19.9333 97.7305 19.8526C97.7689 19.772 97.8257 19.7015 97.8962 19.6467C98.0424 19.5277 98.2387 19.4681 98.4862 19.4681C98.8807 19.4681 99.2281 19.5769 99.5349 19.7965V19.0535C99.2445 18.9093 98.9168 18.8378 98.5501 18.8378C98.0726 18.8378 97.6832 18.964 97.3801 19.2193C97.0769 19.4746 96.9259 19.7912 96.9259 20.1697C96.9259 20.5115 97.0242 20.7924 97.2188 21.0022C97.3804 21.1824 97.6554 21.3551 98.0381 21.5245C98.4124 21.6891 98.6651 21.8293 98.7939 21.9506C98.9227 22.0719 98.9882 22.2128 98.9882 22.3956C98.9882 22.8243 98.6959 23.0396 98.1116 23.0396C97.674 23.0396 97.2759 22.8921 96.9137 22.5985V23.3916C97.2414 23.5771 97.6203 23.6689 98.0608 23.6689C98.5923 23.6689 99.0158 23.5378 99.3241 23.2641M92.7493 19.9213C93.0246 19.6214 93.3917 19.4713 93.8505 19.4713C94.3158 19.4713 94.6763 19.6195 94.932 19.9164C95.1941 20.2258 95.3318 20.6754 95.3318 21.266C95.3318 21.8297 95.2072 22.2636 94.9582 22.571C94.7039 22.8856 94.3355 23.0429 93.8482 23.0429C93.3795 23.0429 93.0059 22.8876 92.7287 22.5769C92.4491 22.2675 92.3108 21.8349 92.3108 21.2837C92.3108 20.6957 92.4563 20.2428 92.7467 19.9216M93.7934 23.6721C94.4948 23.6721 95.0526 23.4499 95.4648 23.0069C95.8771 22.5638 96.0875 21.9745 96.0875 21.2371C96.0875 20.4909 95.8909 19.9033 95.5107 19.4772C95.124 19.0532 94.5875 18.8395 93.9003 18.8395C93.2022 18.8395 92.6451 19.0443 92.2289 19.4507C91.7783 19.8898 91.5538 20.5079 91.5538 21.3089C91.5538 22.0115 91.752 22.5766 92.1437 23.0042C92.5478 23.448 93.0941 23.6695 93.7898 23.6695M90.0642 19.1194C89.8401 19.3029 89.6736 19.5608 89.5648 19.898H89.5464V18.9476H88.8097V23.5555H89.5464V21.2057C89.5464 20.6715 89.6612 20.2536 89.8938 19.9505C90.098 19.6811 90.3526 19.5467 90.6489 19.5467C90.8954 19.5467 91.0822 19.5949 91.2126 19.6942V18.9293C91.1126 18.888 90.9668 18.8637 90.7708 18.8637C90.51 18.8637 90.274 18.9476 90.0649 19.1154M86.4317 23.662C86.9187 23.662 87.3402 23.5545 87.6935 23.3342V22.6329C87.3395 22.8971 86.9633 23.0262 86.5595 23.0262C86.0827 23.0262 85.7075 22.8705 85.4204 22.5585C85.1333 22.2465 84.9943 21.8218 84.9943 21.2853C84.9943 20.7275 85.151 20.2802 85.4584 19.9459C85.7543 19.6188 86.1358 19.455 86.6054 19.455C86.9987 19.455 87.3599 19.5742 87.7033 19.8155V19.0617C87.3936 18.907 87.038 18.8277 86.6375 18.8277C85.9057 18.8277 85.3266 19.0571 84.8908 19.5248C84.4562 19.9895 84.2399 20.5997 84.2399 21.3545C84.2399 22.027 84.4385 22.5769 84.8298 23.0013C85.2362 23.4391 85.7671 23.658 86.4281 23.658M82.3568 23.5473H83.0925V18.9394H82.3568V23.5473ZM82.7337 17.7708C82.8687 17.7708 82.9841 17.7239 83.0778 17.6305C83.1715 17.5371 83.2197 17.424 83.2197 17.2887C83.2207 17.2254 83.2086 17.1626 83.1842 17.1043C83.1598 17.0459 83.1236 16.9932 83.0778 16.9495C83.0327 16.9047 82.979 16.8694 82.9199 16.8459C82.8608 16.8224 82.7976 16.811 82.734 16.8125C82.6029 16.8125 82.4882 16.8574 82.3938 16.9495C82.3482 16.9932 82.3122 17.0459 82.288 17.1043C82.2639 17.1627 82.2521 17.2255 82.2536 17.2887C82.2536 17.4306 82.3007 17.5453 82.3938 17.6354C82.4869 17.7255 82.6023 17.7708 82.734 17.7708M74.9132 19.2236L74.8781 17.9651H74.8945C74.96 18.2679 75.0256 18.4895 75.0865 18.6271L77.2915 23.5483H77.6605L79.8608 18.5911C79.9179 18.4616 79.9831 18.2535 80.0535 17.9684H80.0712L80.0083 19.2187V23.5512H80.7621V17.0999H79.8117L77.7906 21.5799C77.7119 21.7536 77.6103 22.0178 77.4812 22.3707H77.4497C77.4032 22.1951 77.3065 21.9375 77.1568 21.5986L75.1773 17.0996H74.1787V23.5509H74.9082V19.2269L74.9132 19.2236ZM112.138 18.4285C112.345 18.2207 112.604 18.1172 112.915 18.1172C113.057 18.1143 113.198 18.1401 113.33 18.1932C113.462 18.2462 113.582 18.3254 113.682 18.4259C113.891 18.6324 113.996 18.8913 113.996 19.1993C113.996 19.5074 113.891 19.7689 113.68 19.9744C113.47 20.1842 113.214 20.2877 112.915 20.2877C112.613 20.2877 112.357 20.1855 112.148 19.9783C111.936 19.7712 111.829 19.5097 111.829 19.1993C111.829 18.8945 111.932 18.637 112.137 18.4282M112.908 20.4119C113.257 20.4119 113.549 20.2939 113.787 20.0606C114.024 19.8273 114.147 19.5379 114.147 19.1921C114.147 18.8408 114.028 18.5498 113.788 18.3204C113.555 18.0962 113.266 17.9828 112.921 17.9828C112.571 17.9828 112.278 18.1008 112.042 18.3368C111.927 18.4495 111.836 18.5845 111.775 18.7336C111.714 18.8827 111.685 19.0426 111.688 19.2036C111.688 19.5533 111.803 19.8417 112.035 20.0711C112.267 20.2982 112.56 20.4129 112.911 20.4129M112.654 18.5907H112.848C112.98 18.5907 113.079 18.6137 113.136 18.6563C113.186 18.6989 113.211 18.7618 113.211 18.8516C113.211 19.0302 113.104 19.1194 112.888 19.1194H112.654V18.5875V18.5907ZM112.654 19.3091H112.798C112.899 19.3091 112.994 19.4022 113.076 19.591L113.247 19.9646H113.509L113.304 19.549C113.219 19.3773 113.132 19.2813 113.042 19.2606V19.2541C113.166 19.2278 113.265 19.1767 113.337 19.1007C113.409 19.0247 113.442 18.9352 113.442 18.8274C113.443 18.7718 113.433 18.7166 113.411 18.6656C113.389 18.6146 113.356 18.5691 113.314 18.5324C113.213 18.4439 113.066 18.4013 112.87 18.4013H112.431V19.9629H112.651V19.3075L112.654 19.3091Z" fill="#231F20"/>
</g>
<defs>
<linearGradient id="paint0_linear_489_3405" x1="2159.16" y1="-8644.83" x2="2159.16" y2="-7042.47" gradientUnits="userSpaceOnUse">
<stop stop-color="#0994DC"/>
<stop offset="0.11" stop-color="#0994DC"/>
<stop offset="0.35" stop-color="#66CEF5"/>
<stop offset="0.45" stop-color="#66CEF5"/>
<stop offset="0.846" stop-color="#127BCA"/>
<stop offset="1" stop-color="#127BCA"/>
</linearGradient>
<linearGradient id="paint1_linear_489_3405" x1="2303.61" y1="-8906.67" x2="2303.61" y2="-7221.59" gradientUnits="userSpaceOnUse">
<stop stop-color="#0E76BC"/>
<stop offset="0.176" stop-color="#0E76BC"/>
<stop offset="0.36" stop-color="#36AEE8"/>
<stop offset="0.52" stop-color="#36AEE8"/>
<stop offset="0.846" stop-color="#00ADEF"/>
<stop offset="1" stop-color="#00ADEF"/>
</linearGradient>
<linearGradient id="paint2_linear_489_3405" x1="2307.88" y1="-9428.57" x2="2307.88" y2="-7612.1" gradientUnits="userSpaceOnUse">
<stop stop-color="#166AB8"/>
<stop offset="0.099" stop-color="#166AB8"/>
<stop offset="0.4" stop-color="#36AEE8"/>
<stop offset="0.516" stop-color="#36AEE8"/>
<stop offset="0.846" stop-color="#0798DD"/>
<stop offset="1" stop-color="#0798DD"/>
</linearGradient>
<linearGradient id="paint3_linear_489_3405" x1="2879.48" y1="-10017.6" x2="2879.48" y2="-7963.69" gradientUnits="userSpaceOnUse">
<stop stop-color="#124379"/>
<stop offset="0.11" stop-color="#124379"/>
<stop offset="0.39" stop-color="#1487CB"/>
<stop offset="0.52" stop-color="#1487CB"/>
<stop offset="0.78" stop-color="#165197"/>
<stop offset="1" stop-color="#165197"/>
</linearGradient>
<linearGradient id="paint4_linear_489_3405" x1="1734.33" y1="-6716.16" x2="1734.33" y2="-7899.88" gradientUnits="userSpaceOnUse">
<stop stop-color="#318ED5"/>
<stop offset="0.675" stop-color="#38A7E4"/>
<stop offset="1" stop-color="#38A7E4"/>
</linearGradient>
<linearGradient id="paint5_linear_489_3405" x1="8119.22" y1="-22108.6" x2="4820.12" y2="-16285.8" gradientUnits="userSpaceOnUse">
<stop stop-color="#231F20"/>
<stop offset="0.129" stop-color="white"/>
<stop offset="0.4" stop-color="white"/>
<stop offset="1" stop-color="white"/>
</linearGradient>
<linearGradient id="paint6_linear_489_3405" x1="1661.46" y1="-5180.02" x2="1661.46" y2="-6070.4" gradientUnits="userSpaceOnUse">
<stop stop-color="#05A1E6"/>
<stop offset="1" stop-color="#05A1E6"/>
</linearGradient>
<linearGradient id="paint7_linear_489_3405" x1="1956.96" y1="-7305.21" x2="1956.96" y2="-8373.23" gradientUnits="userSpaceOnUse">
<stop stop-color="#1959A6"/>
<stop offset="0.154" stop-color="#1959A6"/>
<stop offset="0.484" stop-color="#05A1E6"/>
<stop offset="0.5" stop-color="#05A1E6"/>
<stop offset="0.918" stop-color="#7EC5EA"/>
<stop offset="1" stop-color="#7EC5EA"/>
</linearGradient>
<linearGradient id="paint8_linear_489_3405" x1="3997.67" y1="-11286.8" x2="3638.72" y2="-13037.4" gradientUnits="userSpaceOnUse">
<stop stop-color="#165096"/>
<stop offset="0.104" stop-color="#165096"/>
<stop offset="1" stop-color="#0D82CA"/>
</linearGradient>
<linearGradient id="paint9_linear_489_3405" x1="2047.64" y1="-5664.8" x2="2047.64" y2="-6091.87" gradientUnits="userSpaceOnUse">
<stop stop-color="#05A1E6"/>
<stop offset="0.649" stop-color="#05A1E6"/>
<stop offset="0.874" stop-color="#0495D6"/>
<stop offset="1" stop-color="#0495D6"/>
</linearGradient>
<linearGradient id="paint10_linear_489_3405" x1="9277.89" y1="-5343.19" x2="9277.89" y2="-4945.03" gradientUnits="userSpaceOnUse">
<stop stop-color="#231F20"/>
<stop offset="1" stop-color="white"/>
</linearGradient>
<linearGradient id="paint11_linear_489_3405" x1="6049.04" y1="-12551.1" x2="5611.59" y2="-10573.2" gradientUnits="userSpaceOnUse">
<stop stop-color="#38A7E4"/>
<stop offset="0.357" stop-color="#38A7E4"/>
<stop offset="0.962" stop-color="#0E88D3"/>
<stop offset="1" stop-color="#0E88D3"/>
</linearGradient>
<linearGradient id="paint12_linear_489_3405" x1="4382.59" y1="-10469.6" x2="4382.59" y2="-8871.55" gradientUnits="userSpaceOnUse">
<stop stop-color="#168CD4"/>
<stop offset="0.5" stop-color="#1C87CC"/>
<stop offset="1" stop-color="#154B8D"/>
</linearGradient>
<linearGradient id="paint13_linear_489_3405" x1="2547.85" y1="-1440.8" x2="2547.85" y2="-1472.18" gradientUnits="userSpaceOnUse">
<stop stop-color="white"/>
<stop offset="0.363" stop-color="white"/>
<stop offset="1" stop-color="#918F90"/>
</linearGradient>
<linearGradient id="paint14_linear_489_3405" x1="1473.92" y1="-2903.02" x2="1594.58" y2="-2837.81" gradientUnits="userSpaceOnUse">
<stop stop-color="#97D6EE"/>
<stop offset="0.703" stop-color="#55C1EA"/>
<stop offset="1" stop-color="#55C1EA"/>
</linearGradient>
<linearGradient id="paint15_linear_489_3405" x1="1410.22" y1="-2869.85" x2="1499.61" y2="-2917.34" gradientUnits="userSpaceOnUse">
<stop stop-color="#7ACCEC"/>
<stop offset="0.335" stop-color="#7ACCEC"/>
<stop offset="0.841" stop-color="#3FB7ED"/>
<stop offset="1" stop-color="#3FB7ED"/>
</linearGradient>
<linearGradient id="paint16_linear_489_3405" x1="8514.67" y1="-7224.56" x2="8514.67" y2="-8212.02" gradientUnits="userSpaceOnUse">
<stop stop-color="#231F20"/>
<stop offset="1" stop-color="white"/>
</linearGradient>
<linearGradient id="paint17_linear_489_3405" x1="3144.79" y1="-8526.08" x2="3144.79" y2="-7242" gradientUnits="userSpaceOnUse">
<stop stop-color="#1DA7E7"/>
<stop offset="1" stop-color="#37ABE7"/>
</linearGradient>
<clipPath id="clip0_489_3405">
<rect width="120" height="60" fill="white"/>
</clipPath>
</defs>
</svg>
