<svg width="1013" height="821" viewBox="0 0 1013 821" fill="none" xmlns="http://www.w3.org/2000/svg">
<g clip-path="url(#clip0_116_981)">
<path d="M985.17 599.692C1006.47 495.214 998.775 398.655 944.201 306.734C905.32 241.245 837.783 186.537 760.532 185.094C687.662 183.733 622.072 228.51 550.079 239.835C431.651 258.464 309.245 185.24 194.221 218.713C132.669 236.625 82.6164 284.293 54.3493 340.916C26.0822 397.54 18.0748 462.347 22.5237 525.192C30.4301 636.878 80.5737 747.949 166.226 820.205H863.929C922.539 753.14 971.394 667.272 985.17 599.692V599.692Z" fill="#E3FAFF"/>
<path d="M352.434 698.843H409.208C411.59 698.843 413.524 700.776 413.524 703.157V718.416C413.524 720.797 411.59 722.73 409.208 722.73H352.434C350.051 722.73 348.117 720.797 348.117 718.416V703.157C348.117 700.776 350.051 698.843 352.434 698.843V698.843Z" fill="#E0E0FF"/>
<path d="M426.65 698.843H483.424C485.806 698.843 487.74 700.776 487.74 703.157V718.416C487.74 720.797 485.806 722.73 483.424 722.73H426.65C424.267 722.73 422.333 720.797 422.333 718.416V703.157C422.333 700.776 424.267 698.843 426.65 698.843Z" fill="#E0E0FF"/>
<path d="M389.012 665.998H445.786C448.168 665.998 450.102 667.931 450.102 670.311V685.571C450.102 687.952 448.168 689.885 445.786 689.885H389.012C386.629 689.885 384.695 687.952 384.695 685.571V670.311C384.695 667.931 386.629 665.998 389.012 665.998Z" fill="#E0E0FF"/>
<path d="M761.807 129.926C761.807 121.717 755.148 115.062 746.933 115.062H251.866C243.651 115.062 236.992 121.717 236.992 129.926V142.112H761.807V129.926Z" fill="white"/>
<path d="M762.593 142.898H236.205V129.926C236.205 121.297 243.231 114.276 251.866 114.276H746.933C755.568 114.276 762.593 121.297 762.593 129.926V142.898ZM237.779 141.326H761.02V129.926C761.02 122.164 754.7 115.849 746.933 115.849H251.866C244.098 115.849 237.779 122.164 237.779 129.926V141.326Z" fill="#5254CF"/>
<path d="M236.992 142.112V457.728C236.992 465.937 243.651 472.592 251.866 472.592H746.933C755.148 472.592 761.807 465.937 761.807 457.728V142.112H236.992Z" fill="white"/>
<path d="M746.933 473.378H251.866C243.231 473.378 236.205 466.358 236.205 457.728V141.326H762.593V457.728C762.593 466.358 755.568 473.378 746.933 473.378ZM237.779 142.898V457.728C237.779 465.49 244.098 471.806 251.866 471.806H746.933C754.7 471.806 761.02 465.49 761.02 457.728V142.898H237.779Z" fill="#5254CF"/>
<path d="M262.914 133.864C265.829 133.601 267.98 131.026 267.717 128.112C267.454 125.198 264.877 123.048 261.961 123.311C259.045 123.574 256.895 126.149 257.158 129.063C257.421 131.977 259.998 134.126 262.914 133.864Z" fill="white"/>
<path d="M262.437 134.68C259.075 134.68 256.341 131.947 256.341 128.587C256.341 125.228 259.075 122.495 262.437 122.495C265.798 122.495 268.533 125.228 268.533 128.587C268.533 131.947 265.798 134.68 262.437 134.68V134.68ZM262.437 124.084C259.952 124.084 257.931 126.104 257.931 128.587C257.931 131.07 259.952 133.09 262.437 133.09C264.922 133.09 266.943 131.07 266.943 128.587C266.943 126.105 264.922 124.084 262.437 124.084Z" fill="#5254CF"/>
<path d="M283.588 133.864C286.504 133.601 288.655 131.026 288.392 128.112C288.129 125.198 285.552 123.048 282.636 123.311C279.72 123.574 277.57 126.149 277.833 129.063C278.095 131.977 280.672 134.126 283.588 133.864Z" fill="white"/>
<path d="M283.112 134.68C279.75 134.68 277.016 131.947 277.016 128.587C277.016 125.228 279.75 122.495 283.112 122.495C286.473 122.495 289.208 125.228 289.208 128.587C289.208 131.947 286.473 134.68 283.112 134.68V134.68ZM283.112 124.084C280.627 124.084 278.606 126.104 278.606 128.587C278.606 131.07 280.627 133.09 283.112 133.09C285.596 133.09 287.618 131.07 287.618 128.587C287.618 126.105 285.596 124.084 283.112 124.084Z" fill="#5254CF"/>
<path d="M304.262 133.864C307.178 133.601 309.329 131.026 309.066 128.112C308.803 125.198 306.226 123.048 303.31 123.311C300.394 123.574 298.243 126.149 298.506 129.063C298.769 131.977 301.346 134.126 304.262 133.864Z" fill="white"/>
<path d="M303.786 134.68C300.424 134.68 297.689 131.947 297.689 128.587C297.689 125.228 300.424 122.495 303.786 122.495C307.147 122.495 309.882 125.228 309.882 128.587C309.882 131.947 307.147 134.68 303.786 134.68V134.68ZM303.786 124.084C301.301 124.084 299.28 126.104 299.28 128.587C299.28 131.07 301.301 133.09 303.786 133.09C306.27 133.09 308.292 131.07 308.292 128.587C308.292 126.105 306.27 124.084 303.786 124.084Z" fill="#5254CF"/>
<path opacity="0.4" d="M707.108 176.527H291.69V425.736H707.108V176.527Z" fill="#E0E0FF"/>
<path d="M574.909 471.687H439.284C434.275 424.883 432.987 382.926 437.471 355.034C438.696 347.437 440.334 340.889 442.449 335.565L499.559 323.947L565.956 329.891C577.12 358.753 578.869 410.643 574.909 471.687V471.687Z" fill="#FFC11D"/>
<path d="M504.568 336.932H502.978V390.967H504.568V336.932Z" fill="#1B1B43"/>
<path d="M565.956 329.891C565.956 329.891 512.488 367.366 437.472 355.034C438.696 347.437 440.334 340.889 442.449 335.565L499.559 323.947L565.956 329.891V329.891Z" fill="#CE8F02"/>
<path d="M472.636 118.09C472.636 118.09 446.88 150.912 453.081 178.798L543.562 175.025C543.562 175.025 544.337 120.414 524.571 115.766L472.636 118.09Z" fill="#1B1B43"/>
<path d="M550.555 171.779H548.965C548.965 136.004 530.345 119.567 530.157 119.405L531.195 118.201C531.389 118.367 550.555 135.283 550.555 171.779V171.779Z" fill="#1B1B43"/>
<path d="M450.608 304.558C450.496 308.293 449.765 311.885 448.508 315.254C445.232 324.122 438.362 331.321 429.504 334.85C427.373 335.724 425.114 336.36 422.761 336.757C418.498 337.488 413.537 337.901 407.7 337.901C378.438 337.901 357.191 315.691 354.678 308.921C352.165 302.134 359.25 304.55 359.25 304.55C361.834 298.789 367.591 303.43 367.591 303.43C369.325 297.422 374.764 303.032 374.764 303.032C374.764 303.032 374.955 299.742 378.056 299.933C379.964 300.06 386.214 303.859 390.731 306.751C393.053 308.229 395.725 308.992 398.428 308.992C399.51 308.992 400.591 308.881 401.657 308.627C407.207 307.355 411.469 302.889 412.503 297.295L421.266 249.585H442.004L448.651 258.103C451.26 268.608 451.101 290.127 450.608 304.558V304.558Z" fill="#FFBC96"/>
<path opacity="0.4" d="M448.508 315.254C445.232 324.122 438.362 331.321 429.503 334.85C428.772 333.086 428.358 331.147 428.358 329.112C428.358 320.928 435.006 314.284 443.212 314.284C445.073 314.284 446.854 314.634 448.508 315.254V315.254Z" fill="#FE5B52"/>
<path d="M495.423 158.182L452.776 166.866C437.097 170.059 424.809 182.248 421.497 197.892L409.898 252.686L448.656 258.109L495.423 158.182V158.182Z" fill="#363535"/>
<path d="M510.28 158.182L552.927 166.866C568.607 170.059 580.894 182.248 584.206 197.892L589.474 236.806L551.88 243.391L510.28 158.182V158.182Z" fill="#363535"/>
<path d="M448.655 258.109C448.655 258.109 446.588 320.595 442.454 335.571C442.454 335.571 500.332 355.712 565.961 329.891L560.793 214.73L510.279 158.182H495.422L445.038 223.509L448.655 258.109V258.109Z" fill="#363535"/>
<path d="M639.08 159.727C639.318 163.811 632.591 176.176 627.422 185.028C623.621 191.528 621.188 198.76 620.298 206.245C613.634 262.188 609.229 308.992 589.747 322.104C585.23 325.139 579.919 326.379 573.589 325.505C569.12 324.885 565.447 323.089 562.441 320.403C541.925 302.158 551.881 243.387 551.881 243.387L577.326 239C577.326 239 583.02 190.972 586.63 174.444C590.256 157.931 595.934 166.704 595.934 166.704C598.001 161.539 603.678 164.638 603.678 164.638C607.813 157.931 612.982 163.08 612.982 163.08C616.083 156.898 624.878 167.737 624.878 167.737C630.555 165.146 638.571 151.145 639.08 159.727V159.727Z" fill="#FFBC96"/>
<path d="M450.366 205.646L447.861 258.071L449.45 258.147L451.954 205.721L450.366 205.646Z" fill="#1B1B43"/>
<path d="M551.154 244.322L547.907 202.566L549.493 202.443L552.604 242.459L577.194 238.218L577.465 239.784L551.154 244.322Z" fill="#1B1B43"/>
<path d="M582.629 194.454L570.977 282.395L572.553 282.604L584.206 194.662L582.629 194.454Z" fill="#D28572"/>
<path opacity="0.4" d="M589.747 322.104C585.23 325.139 579.918 326.379 573.589 325.505C569.12 324.885 565.446 323.089 562.44 320.403C564.874 315.524 569.915 312.171 575.736 312.171C582.208 312.171 587.727 316.319 589.747 322.104Z" fill="#FE5B52"/>
<path d="M596.719 166.583L595.147 166.825L596.619 176.337L598.19 176.094L596.719 166.583Z" fill="#D28572"/>
<path d="M604.641 164.469L603.13 164.965L606.191 174.278L607.702 173.782L604.641 164.469Z" fill="#D28572"/>
<path d="M613.779 162.067L612.28 162.6L615.739 172.31L617.238 171.777L613.779 162.067Z" fill="#D28572"/>
<path d="M535.815 199.26H519.243C518.714 199.26 518.285 199.689 518.285 200.217V204.065C518.285 204.593 518.714 205.021 519.243 205.021H535.815C536.344 205.021 536.773 204.593 536.773 204.065V200.217C536.773 199.689 536.344 199.26 535.815 199.26Z" fill="#CBCBFF"/>
<path d="M501.554 187.073C490.637 187.073 483.076 180.417 482.963 180.315L484.028 179.135C484.681 179.722 500.221 193.341 519.064 179.092L520.024 180.359C513.368 185.393 507.037 187.073 501.554 187.073Z" fill="#1B1B43"/>
<path d="M384.408 311.449C381.022 310.133 377.342 307.312 373.765 303.29L374.953 302.234C378.364 306.069 381.833 308.743 384.984 309.968L384.408 311.449V311.449Z" fill="#D28572"/>
<path d="M375.325 313.764C372.073 311.711 369.188 308.369 366.507 303.545L367.897 302.774C370.446 307.358 373.153 310.514 376.175 312.421L375.325 313.764Z" fill="#D28572"/>
<path d="M368.914 316.71C365.03 313.822 361.455 309.79 357.984 304.383L359.323 303.525C362.689 308.768 366.136 312.664 369.863 315.435L368.914 316.71Z" fill="#D28572"/>
<path d="M485.356 133.394H517.654V160.635C517.654 169.542 510.418 176.773 501.505 176.773H501.505C492.593 176.773 485.356 169.542 485.356 160.635V133.394Z" fill="#FFBC96"/>
<path d="M485.352 136.153C495.336 152.921 506.052 154.298 517.689 136.285L485.352 136.153Z" fill="#D28572"/>
<path d="M479.103 82.9231H523.908V120.689C523.908 133.045 513.87 143.077 501.505 143.077H501.505C489.141 143.077 479.103 133.045 479.103 120.689V82.9231V82.9231Z" fill="#FFBC96"/>
<path d="M501.078 121.255C498.459 118.783 497.474 116.829 498.067 115.282C498.636 113.796 500.457 113.324 501.531 113.174L501.476 108.292L503.066 108.274L503.139 114.674L502.355 114.693C501.577 114.716 499.866 115.028 499.552 115.852C499.402 116.245 499.358 117.444 502.171 120.1L501.078 121.255Z" fill="#1B1B43"/>
<path d="M509.465 126.127C510.448 124.626 510.926 123.324 510.926 123.324C505.5 123.776 494.002 123.776 494.002 123.776C494.002 123.776 494.334 125.114 495.29 126.606C498.724 126.746 504.354 126.811 509.465 126.127Z" fill="white"/>
<path d="M495.29 126.606C496.463 128.437 498.578 130.501 502.206 130.618C505.711 130.731 508.087 128.232 509.465 126.127C504.354 126.811 498.724 126.746 495.29 126.606Z" fill="#1B1B43"/>
<path d="M523.653 106.685C523.672 107.545 524.448 88.8052 495.225 84.832C495.225 84.832 478.725 94.2683 480.614 107.877L471.652 106.185C468.189 96.7516 469.382 71.5218 489.659 73.3097C489.659 73.3097 494.031 67.0699 501.189 66.9526C537.568 66.3566 531.823 106.669 530.951 107.831L523.653 106.685Z" fill="#1B1B43"/>
<path d="M535.199 115.355C536.911 110.167 534.809 104.81 530.503 103.391C526.198 101.972 521.32 105.028 519.607 110.216C517.895 115.405 519.997 120.761 524.302 122.18C528.608 123.599 533.486 120.544 535.199 115.355Z" fill="#FFBC96"/>
<path d="M526.249 115.612L524.671 115.414C524.945 113.223 526.52 109.016 530.516 108.781L530.609 110.368C526.92 110.584 526.255 115.561 526.249 115.612V115.612Z" fill="#1B1B43"/>
<path d="M467.663 115.355C469.375 120.544 474.253 123.599 478.559 122.18C482.864 120.761 484.966 115.405 483.254 110.216C481.542 105.028 476.663 101.972 472.358 103.391C468.052 104.81 465.95 110.167 467.663 115.355Z" fill="#FFBC96"/>
<path d="M476.612 115.613C476.585 115.407 475.923 110.583 472.251 110.368L472.344 108.781C476.341 109.016 477.916 113.223 478.19 115.414L476.612 115.613V115.613Z" fill="#1B1B43"/>
<path d="M513.058 103.623C513.058 105.056 511.977 106.217 510.644 106.217C509.311 106.217 508.23 105.056 508.23 103.623C508.23 102.19 509.311 101.028 510.644 101.028C511.977 101.028 513.058 102.19 513.058 103.623Z" fill="#1B1B43"/>
<path d="M515.317 95.0358L507.87 94.1401C507.163 94.0552 506.522 94.5585 506.437 95.2642L506.395 95.6152C506.31 96.321 506.813 96.962 507.52 97.0469L514.967 97.9426C515.673 98.0275 516.314 97.5242 516.399 96.8185L516.442 96.4675C516.527 95.7617 516.023 95.1207 515.317 95.0358Z" fill="#1B1B43"/>
<path d="M489.804 103.623C489.804 105.056 490.884 106.217 492.217 106.217C493.55 106.217 494.631 105.056 494.631 103.623C494.631 102.19 493.55 101.028 492.217 101.028C490.884 101.028 489.804 102.19 489.804 103.623Z" fill="#1B1B43"/>
<path d="M487.894 97.9425L495.341 97.0469C496.048 96.9619 496.551 96.3209 496.466 95.6151L496.424 95.2642C496.339 94.5585 495.698 94.0552 494.991 94.1401L487.544 95.0358C486.838 95.1207 486.334 95.7617 486.419 96.4675L486.462 96.8184C486.547 97.5242 487.188 98.0275 487.894 97.9425Z" fill="#1B1B43"/>
<path opacity="0.4" d="M515.153 119.071C518.027 119.071 520.357 116.743 520.357 113.871C520.357 110.999 518.027 108.67 515.153 108.67C512.279 108.67 509.949 110.999 509.949 113.871C509.949 116.743 512.279 119.071 515.153 119.071Z" fill="#FE5B52"/>
<path opacity="0.4" d="M487.708 119.071C490.582 119.071 492.912 116.743 492.912 113.871C492.912 110.999 490.582 108.67 487.708 108.67C484.834 108.67 482.504 110.999 482.504 113.871C482.504 116.743 484.834 119.071 487.708 119.071Z" fill="#FE5B52"/>
<path d="M354.585 200.03H199.29C194.867 200.03 191.282 203.613 191.282 208.032V271.847C191.282 276.267 194.867 279.85 199.29 279.85H354.585C359.007 279.85 362.592 276.267 362.592 271.847V208.032C362.592 203.613 359.007 200.03 354.585 200.03Z" fill="white"/>
<path d="M354.584 280.615H199.289C194.452 280.615 190.517 276.682 190.517 271.848V208.032C190.517 203.198 194.452 199.265 199.289 199.265H354.584C359.421 199.265 363.357 203.198 363.357 208.032V271.848C363.357 276.682 359.421 280.615 354.584 280.615ZM199.289 200.794C195.296 200.794 192.047 204.041 192.047 208.032V271.848C192.047 275.839 195.296 279.085 199.289 279.085H354.584C358.578 279.085 361.827 275.839 361.827 271.848V208.032C361.827 204.041 358.578 200.794 354.584 200.794H199.289V200.794Z" fill="#5254CF"/>
<path d="M343.532 219.677H210.341V221.266H343.532V219.677Z" fill="#E0E0FF"/>
<path d="M343.532 239.145H210.341V240.735H343.532V239.145Z" fill="#E0E0FF"/>
<path d="M343.532 258.614H210.341V260.203H343.532V258.614Z" fill="#E0E0FF"/>
<path d="M212.566 260.345L211.32 259.358L220.814 247.396L237.155 252.972L251.224 237.708L265.528 249.223L282.325 230.439L297.557 248.002L311.166 212.803L325.284 234.974L341.698 211.323L343.005 212.229L325.227 237.845L311.514 216.311L298.087 251.04L282.307 232.844L265.707 251.408L251.385 239.879L237.623 254.811L221.362 249.263L212.566 260.345Z" fill="#5254CF"/>
<path d="M641.937 63.242L634.27 1.27905C603.378 5.05875 579.447 31.3489 579.447 63.242C579.447 97.7308 607.425 125.69 641.937 125.69C676.449 125.69 704.426 97.7308 704.426 63.242C704.426 61.4161 704.331 59.6132 704.177 57.8271L641.937 63.242V63.242Z" fill="white"/>
<path d="M641.936 126.484C607.041 126.484 578.651 98.1141 578.651 63.2421C578.651 31.3401 602.52 4.36262 634.173 0.4903L634.961 0.393799L642.631 62.3842L704.901 56.9663L704.969 57.7591C705.139 59.7283 705.221 61.5218 705.221 63.2421C705.221 98.1141 676.831 126.484 641.936 126.484Z" fill="#00A4E1"/>
<path d="M633.579 2.16919C603.116 6.29236 580.242 32.4078 580.242 63.242C580.242 97.2374 607.918 124.895 641.936 124.895C675.955 124.895 703.631 97.2374 703.631 63.242C703.631 61.8005 703.571 60.3037 703.449 58.688L641.241 64.1L633.579 2.16919V2.16919Z" fill="#00A4E1"/>
<path d="M674.538 50.5277L736.779 45.1128C735.776 33.4579 731.576 22.721 725.05 13.7791L674.538 50.5277Z" fill="#CF0042"/>
<path d="M692.45 26.4933C681.086 10.9213 662.699 0.794434 641.937 0.794434C639.34 0.794434 636.785 0.971473 634.271 1.27904L641.937 63.242L692.45 26.4933V26.4933Z" fill="#FFC11D"/>
<path d="M641.313 64.6787L633.383 0.586947L634.173 0.490389C636.871 0.160454 639.411 0 641.937 0C662.076 0 681.2 9.72907 693.092 26.0254L693.561 26.6679L641.313 64.6787ZM635.157 1.97573L642.56 61.8056L691.334 26.3221C679.71 10.8201 661.305 1.58928 641.937 1.58928C639.724 1.58928 637.498 1.71592 635.157 1.97573V1.97573Z" fill="white"/>
<path d="M798.754 241.47H684.603C679.153 241.47 674.735 245.885 674.735 251.331V376.483C674.735 381.929 679.153 386.344 684.603 386.344H798.754C804.204 386.344 808.622 381.929 808.622 376.483V251.331C808.622 245.885 804.204 241.47 798.754 241.47Z" fill="white"/>
<path d="M798.754 387.107H684.603C678.741 387.107 673.972 382.341 673.972 376.483V251.331C673.972 245.473 678.741 240.707 684.603 240.707H798.754C804.616 240.707 809.385 245.473 809.385 251.331V376.483C809.385 382.341 804.616 387.107 798.754 387.107ZM684.603 242.233C679.583 242.233 675.499 246.314 675.499 251.331V376.483C675.499 381.5 679.583 385.582 684.603 385.582H798.754C803.774 385.582 807.858 381.5 807.858 376.483V251.331C807.858 246.314 803.774 242.233 798.754 242.233H684.603Z" fill="#5254CF"/>
<path d="M793.365 262.213H689.992V263.887H793.365V262.213Z" fill="#E0E0FF"/>
<path d="M793.365 287.642H689.992V289.315H793.365V287.642Z" fill="#E0E0FF"/>
<path d="M793.365 313.07H689.992V314.743H793.365V313.07Z" fill="#E0E0FF"/>
<path d="M793.365 338.499H689.992V340.172H793.365V338.499Z" fill="#E0E0FF"/>
<path d="M793.365 363.927H689.992V365.601H793.365V363.927Z" fill="#E0E0FF"/>
<path d="M698.796 296.388H689.992V365.601H698.796V296.388Z" fill="#CBCBFF"/>
<path d="M717.938 322.106H709.134V365.601H717.938V322.106Z" fill="#E0E0FF"/>
<path d="M737.079 306.127H728.275V365.601H737.079V306.127Z" fill="#CBCBFF"/>
<path d="M756.22 295.39H747.416V365.6H756.22V295.39Z" fill="#E0E0FF"/>
<path d="M775.362 282.428H766.558V365.6H775.362V282.428Z" fill="#CBCBFF"/>
<path d="M794.503 268.626H785.699V365.601H794.503V268.626Z" fill="#E0E0FF"/>
<path d="M418.566 9.93701H340.596C335.478 9.93701 331.329 14.0831 331.329 19.1974V50.7389C331.329 55.8533 335.478 59.9994 340.596 59.9994H393.844L414.315 77.4815V59.9994H418.566C423.684 59.9994 427.833 55.8533 427.833 50.7389V19.1974C427.833 14.0831 423.684 9.93701 418.566 9.93701Z" fill="white"/>
<path d="M415.15 79.2926L393.536 60.834H340.596C335.026 60.834 330.494 56.3055 330.494 50.739V19.1973C330.494 13.6308 335.026 9.10229 340.596 9.10229H418.567C424.137 9.10229 428.668 13.6308 428.668 19.1973V50.739C428.668 56.3055 424.137 60.834 418.567 60.834H415.15V79.2926V79.2926ZM340.596 10.7717C335.947 10.7717 332.165 14.5515 332.165 19.1973V50.739C332.165 55.3848 335.947 59.1646 340.596 59.1646H394.152L413.48 75.6702V59.1646H418.567C423.215 59.1646 426.998 55.3848 426.998 50.739V19.1973C426.998 14.5515 423.215 10.7717 418.567 10.7717H340.596V10.7717Z" fill="#5254CF"/>
<path d="M405.569 22.6511H343.147V24.2404H405.569V22.6511Z" fill="#9192FF"/>
<path d="M413.918 33.3787H343.147V34.9679H413.918V33.3787Z" fill="#9192FF"/>
<path d="M392.846 44.1064H343.147V45.6957H392.846V44.1064Z" fill="#9192FF"/>
<path d="M397.772 549.969H375.507V820.147H397.772V549.969Z" fill="#B0B0D2"/>
<path d="M624.396 549.969H602.131V820.147H624.396V549.969Z" fill="#B0B0D2"/>
<path opacity="0.3" d="M397.772 549.229H375.507V596.852H397.772V549.229Z" fill="#1B1B43"/>
<path opacity="0.3" d="M624.396 549.229H602.131V596.852H624.396V549.229Z" fill="#1B1B43"/>
<path d="M749.971 540.757H249.931V563.145H749.971V540.757Z" fill="#B0B0D2"/>
<path d="M691.164 533.109H633.258V540.782H691.164V533.109Z" fill="#1B1B43"/>
<path d="M641.824 540.782H633.257L599.127 450.796C598.134 448.178 600.07 445.375 602.872 445.375C604.537 445.375 606.028 446.404 606.618 447.959L641.824 540.782V540.782Z" fill="#1B1B43"/>
<path d="M321.936 540.782H379.842V533.109H321.936V540.782Z" fill="#1B1B43"/>
<path d="M371.274 540.782H379.841L413.972 450.796C414.965 448.178 413.029 445.375 410.226 445.375C408.562 445.375 407.071 446.404 406.481 447.959L371.274 540.782V540.782Z" fill="#1B1B43"/>
<path d="M208.097 437.176L239.687 442.25L240.035 424.952L240.368 407.732L240.657 393.011L231.896 388.878L216.887 406.454L208.097 437.176Z" fill="#D28572"/>
<path d="M227.129 407.552C227.129 407.552 230.941 415.547 240.034 424.952L240.367 407.732L227.129 407.552Z" fill="#925D4F"/>
<path d="M262.252 386.262C262.619 386.469 272.254 401.213 267.924 402.548C263.595 403.882 258.13 403.369 258.13 403.369L262.252 386.262Z" fill="#925D4F"/>
<path d="M265.423 373.719L261.437 410.37C261.099 413.479 259.057 416.141 256.141 417.275C254.103 418.067 251.836 418.033 249.824 417.18L227.124 407.554L224.062 386.891L242.438 367.654L265.423 373.719V373.719Z" fill="#D28572"/>
<path d="M210.817 417.058L199.949 441.162L242.093 447.784L245.009 428.977L210.817 417.058Z" fill="#FED3D1"/>
<path d="M238.498 386.842C238.498 386.842 257.131 383.699 265.423 373.719C265.423 373.719 268.496 354.419 240.085 351.861C209.261 349.087 180.358 392.671 180.358 392.671L218.013 425.538L238.498 386.842V386.842Z" fill="#1B1B43"/>
<path d="M231.568 391.447C233.688 395.568 237.97 397.591 241.133 395.965C244.295 394.34 245.141 389.683 243.021 385.562C240.9 381.442 236.618 379.419 233.455 381.044C230.293 382.669 229.448 387.327 231.568 391.447V391.447Z" fill="#D28572"/>
<path d="M238.59 391.479C238.46 390.6 237.826 388.113 236.465 387.18C235.944 386.822 235.36 386.721 234.681 386.875L234.332 385.325C235.452 385.073 236.474 385.257 237.369 385.872C239.581 387.393 240.141 391.094 240.164 391.25L238.59 391.479Z" fill="#1B1B43"/>
<path opacity="0.3" d="M252.001 402.191C255.404 402.191 258.163 399.434 258.163 396.033C258.163 392.632 255.404 389.875 252.001 389.875C248.597 389.875 245.838 392.632 245.838 396.033C245.838 399.434 248.597 402.191 252.001 402.191Z" fill="#BE443D"/>
<path d="M255.845 495.208C253.38 504.346 246.955 512.182 237.842 515.948C237.301 516.171 236.761 516.377 236.204 516.584C235.663 516.775 235.139 516.981 234.614 517.172C217.613 523.847 204.302 537.833 198.99 555.347C198.688 556.364 198.433 557.333 198.227 558.239C198.227 558.239 162.841 563.404 127.059 543.538C127.059 543.538 146.779 473.626 190.307 440.362C200.374 432.67 213.589 430.445 225.676 434.275C230.972 435.96 235.918 438.455 240.371 441.649C244.808 444.86 248.752 448.753 252.028 453.235L252.807 454.316L256.656 482.383C257.26 486.753 256.942 491.108 255.845 495.208V495.208Z" fill="#CF0042"/>
<path d="M255.845 495.208C253.38 504.346 246.955 512.182 237.842 515.948C237.302 516.171 236.761 516.377 236.204 516.584C235.663 516.775 235.139 516.981 234.614 517.172C229.111 503.679 224.595 482.224 224.595 482.224L251.106 485.736L255.845 495.208V495.208Z" fill="#AD003E"/>
<path d="M313.129 465.266C313.129 465.266 336.415 440.391 343.743 442.222C346.924 443.016 337.382 452.949 337.382 452.949C337.382 452.949 346.482 453.124 361.071 445.597C362.666 444.774 364.632 445.477 365.322 447.133C365.757 448.175 365.585 449.365 364.875 450.244C361.787 454.068 352.585 464.359 339.767 468.842L334.328 475.867L320.683 482.351L313.129 465.266Z" fill="#D28572"/>
<path d="M334.329 475.867L303.874 530.125C300.089 536.847 292.98 541.027 285.251 541.027C282.149 541.027 279.128 540.344 276.376 539.088C273.625 537.833 271.144 535.989 269.109 533.637L224.595 482.224L252.807 454.316L283.708 496.654L313.129 465.266L334.329 475.867Z" fill="#AD003E"/>
<path d="M292.381 512.38C274.516 484.508 250.793 451.517 238.064 440.64L239.098 439.432C253.784 451.982 280.343 490.652 293.72 511.523L292.381 512.38V512.38Z" fill="#1B1B43"/>
<path d="M286.044 542.529C282.791 542.529 279.398 541.622 275.999 539.787C266.255 534.528 225.7 484.838 223.979 482.725L225.212 481.722C225.631 482.237 267.287 533.279 276.755 538.389C287.525 544.202 294.835 538.917 298.233 535.25C303.648 529.407 333.334 476.019 333.634 475.481L335.024 476.252C333.798 478.458 304.944 530.347 299.4 536.331C295.594 540.438 290.981 542.529 286.044 542.529V542.529Z" fill="#1B1B43"/>
<path d="M235.998 757.428L208.571 811.474L214.562 812.322L224.505 798.213L255.678 820.204L273.956 820.128C273.956 820.128 277.664 816.451 268.17 806.59C257.008 794.998 250.626 779.797 250.919 763.934L250.944 762.567L243.469 754.945L235.998 757.428V757.428Z" fill="black"/>
<path d="M237.144 774.318L231.094 820.11H237.144L245.01 804.748L274.054 819.519H297.046C297.046 819.519 300.202 815.359 289.419 806.926C276.741 797.012 268.29 782.855 266.355 767.107L266.188 765.75L257.717 759.25L237.144 774.318Z" fill="black"/>
<path d="M269.394 779.944L311.961 630.363C315.393 618.302 309.641 605.524 298.334 600.088L260.001 581.663L257.717 759.25L269.394 779.944Z" fill="black"/>
<path d="M127.059 543.538L118.484 584.335C113.476 608.158 131.667 630.551 156.026 630.551H236.263C228.236 669.749 233.452 723.669 236.263 779.149L269.395 779.944L292.25 637.347C296.074 613.492 282.604 590.234 260.001 581.663L198.227 558.239L127.059 543.538V543.538Z" fill="#363535"/>
<path opacity="0.4" d="M259.846 780.046L258.269 779.841C258.444 778.497 275.692 645.125 271 620.636C266.151 595.331 217.336 588.027 191.111 584.103C188.777 583.754 186.63 583.432 184.717 583.128C178.147 582.083 173.473 579.249 170.826 574.704C165.605 565.74 170.119 553.446 170.314 552.927L171.803 553.485C171.758 553.605 167.36 565.602 172.204 573.91C174.6 578.02 178.894 580.593 184.967 581.559C186.875 581.862 189.018 582.182 191.347 582.531C217.961 586.513 267.501 593.926 272.561 620.336C274.555 630.738 273.02 660.782 267.999 709.633C264.264 745.975 259.89 779.71 259.846 780.046Z" fill="white"/>
<path d="M145.283 637.004L139.797 668.694L113.54 820.359H102.503L128.76 668.694L134.246 637.004H145.283Z" fill="#B0B0D2"/>
<path d="M218.44 820.359H207.403L181.146 668.694L175.659 637.004H186.696L192.183 668.694L218.44 820.359Z" fill="#B0B0D2"/>
<path opacity="0.3" d="M145.284 637.004L139.797 668.694H128.76L134.246 637.004H145.284Z" fill="#1B1B43"/>
<path opacity="0.3" d="M192.183 668.694H181.146L175.659 637.004H186.696L192.183 668.694Z" fill="#1B1B43"/>
<path d="M209.218 645.649H105.936V630.551H209.218C213.39 630.551 216.772 633.931 216.772 638.1C216.772 642.27 213.39 645.649 209.218 645.649Z" fill="#CBCBFF"/>
<path d="M120.514 645.649H105.935L56.6947 525.027C55.3236 521.669 56.8223 517.825 60.1059 516.279V516.279C63.6478 514.611 67.8648 516.256 69.3396 519.881L120.514 645.649Z" fill="#CBCBFF"/>
<path d="M791.362 385.222C790.988 385.411 780.773 399.643 785.016 401.157C789.26 402.671 794.713 402.399 794.713 402.399L791.362 385.222Z" fill="#D28572"/>
<path d="M842.954 438.166L808.931 442.192L809.56 424.956L810.202 407.798L810.744 393.13L820.338 389.3L835.347 407.289L842.954 438.166Z" fill="#FFBC96"/>
<path d="M824.347 408.05C824.347 408.05 819.814 415.887 809.561 424.956L810.202 407.799L824.347 408.05V408.05Z" fill="#D28572"/>
<path d="M788.757 372.621L791.121 409.211C791.322 412.315 793.235 415.049 796.083 416.303H796.083C798.073 417.179 800.327 417.243 802.364 416.483L825.339 407.906L829.281 387.507L811.859 367.594L788.757 372.621V372.621Z" fill="#FFBC96"/>
<path d="M815.346 387.495C815.346 387.495 809.703 376.548 803.828 374.874C803.828 374.874 781.207 382.241 776.225 364.904C776.225 364.904 788.97 365.025 799.895 357.382C810.82 349.74 822.216 353.408 830.106 360.541C830.106 360.541 855.884 361.812 835.559 407.263C835.559 407.263 830.451 408.956 817.443 390.799L815.346 387.495V387.495Z" fill="#1B1B43"/>
<path d="M821.683 391.238C819.397 395.24 815.074 397.075 812.028 395.338C808.982 393.6 808.366 388.947 810.652 384.945C812.938 380.943 817.261 379.108 820.307 380.845C823.353 382.583 823.969 387.236 821.683 391.238V391.238Z" fill="#FFBC96"/>
<path opacity="0.4" d="M802.062 400.503C805.52 400.503 808.324 397.657 808.324 394.146C808.324 390.635 805.52 387.789 802.062 387.789C798.603 387.789 795.8 390.635 795.8 394.146C795.8 397.657 798.603 400.503 802.062 400.503Z" fill="#FE5B52"/>
<path d="M814.296 390.887C813.986 388.827 814.555 384.601 818.939 383.349L819.377 384.878C815.226 386.062 815.841 390.463 815.869 390.65L814.296 390.887V390.887Z" fill="#1B1B43"/>
<path d="M808.931 442.192L809.318 424.474L839.269 416.793L848.016 438.778L808.931 442.192Z" fill="#CBCBFF"/>
<path d="M813.558 435.07C798.524 449.692 787.582 471.623 773.799 493.873C773.799 493.873 727.083 505.925 713.697 519.302L737.751 531.486L819.919 508.707L813.558 435.07Z" fill="#B20040"/>
<path d="M692.082 766.881L673.343 820.054L614.707 805.434C614.707 805.434 623.83 792.967 651.346 796.552L665.976 755.458L692.082 766.881V766.881Z" fill="#1B1B43"/>
<path d="M809.317 556.65L724.63 584.154C704.746 590.612 689.561 606.802 684.396 627.048L650.282 768.024L696.402 779.944C714.481 737.114 732.042 686.004 744.113 636.379L809.317 556.65Z" fill="#161616"/>
<path d="M778.571 770.908L785.462 820.176H721.318C721.318 820.176 727.15 805.872 754.716 802.694L753.125 773.027L778.571 770.908Z" fill="#1B1B43"/>
<path d="M886.091 542.606L894.666 583.403C899.673 607.226 881.784 630.949 857.425 630.949H780.293C784.627 670.553 788.802 722.737 785.992 778.217L743.755 779.012L720.899 636.415C717.076 612.56 730.546 589.302 753.149 580.731L809.317 556.65L886.091 542.606Z" fill="#363535"/>
<path d="M888.835 555.855C881.891 489.544 871.952 426.974 821.969 429.852C819.005 430.023 816.221 431.35 814.121 433.448C805.523 442.04 801.127 453.967 802.093 466.079L809.318 556.65C809.318 556.65 848.281 563.801 888.835 555.855V555.855Z" fill="#CF0042"/>
<path d="M713.697 518.706C713.697 518.706 684.276 524.268 679.505 540.956H721.252L729.203 535.393L713.697 518.706Z" fill="#FFBC96"/>
<path d="M822.238 444.407L784.07 503.607L713.697 518.706L721.251 540.956L780.255 540.654C796.098 540.345 809.654 532.068 818.461 518.904L851.262 471.822L822.238 444.407Z" fill="#CF0042"/>
<path d="M713.864 519.482L713.53 517.929L783.47 502.924C785.333 497.669 787.183 492.226 788.974 486.958C796.322 465.349 803.262 444.939 811.868 433.79L813.127 434.761C804.683 445.701 797.784 465.989 790.48 487.469C788.64 492.882 786.737 498.48 784.819 503.873L784.671 504.292L784.237 504.384L713.864 519.482Z" fill="#5254CF"/>
<path d="M755.876 542.06C739.51 542.06 722.519 541.772 721.238 541.75L721.266 540.161C721.839 540.171 778.703 541.135 785.687 539.584L785.901 539.536C802.769 535.783 816.773 523.98 823.362 507.963L831.244 488.803L832.715 489.408L824.833 508.567C818.046 525.064 803.622 537.221 786.248 541.087L786.035 541.134C782.773 541.86 769.542 542.06 755.876 542.06V542.06Z" fill="#5254CF"/>
<path d="M903.089 820.354H914.129L882.384 637H871.344L903.089 820.354Z" fill="#B0B0D2"/>
<path d="M809.228 820.354H798.188L829.932 637H840.972L809.228 820.354Z" fill="#B0B0D2"/>
<path opacity="0.3" d="M840.952 637L835.466 668.69H824.429L829.915 637H840.952Z" fill="#1B1B43"/>
<path opacity="0.3" d="M887.852 668.69H876.815L871.328 637H882.365L887.852 668.69Z" fill="#1B1B43"/>
<path d="M807.411 645.649H910.693V630.551H807.411C803.239 630.551 799.856 633.931 799.856 638.1C799.856 642.27 803.239 645.649 807.411 645.649Z" fill="#CBCBFF"/>
<path d="M896.115 645.649H910.693L959.934 525.027C961.305 521.669 959.807 517.825 956.523 516.279V516.279C952.981 514.611 948.764 516.256 947.289 519.881L896.115 645.649Z" fill="#CBCBFF"/>
<path d="M1013 819.411H0V821H1013V819.411Z" fill="#1B1B43"/>
</g>
<defs>
<clipPath id="clip0_116_981">
<rect width="1013" height="821" fill="white"/>
</clipPath>
</defs>
</svg>
