<svg width="70" height="70" viewBox="0 0 70 70" fill="none" xmlns="http://www.w3.org/2000/svg">
<g clip-path="url(#clip0_36_528)">
<path d="M61.747 27.7078L55.4868 20.5353C55.1409 20.1391 54.6411 19.9119 54.1153 19.9119C53.5894 19.9119 53.0896 20.1391 52.7437 20.5353L46.4833 27.7078C46.008 28.2524 45.8983 28.9997 46.1976 29.658C46.4968 30.3164 47.1319 30.7253 47.8548 30.7253H49.8514V37.7935C49.8514 38.3727 50.3207 38.842 50.8999 38.842C51.4792 38.842 51.9485 38.3727 51.9485 37.7935V30.4486C51.9485 29.4448 51.1319 28.6282 50.1281 28.6282H48.4633L54.115 22.1531L59.7668 28.6282H58.1022C57.0984 28.6282 56.2817 29.4448 56.2817 30.4486V37.7935C56.2817 38.3727 56.7511 38.842 57.3303 38.842C57.9095 38.842 58.3788 38.3727 58.3788 37.7935V30.7253H60.3754C61.0985 30.7253 61.7336 30.3164 62.0326 29.658C62.332 28.9998 62.2225 28.2524 61.747 27.7078Z" fill="#0195FF"/>
<path d="M53.1906 44.9603C53.1906 42.4923 51.1829 40.4844 48.7148 40.4844H47.5214C46.9422 40.4844 46.4729 40.9538 46.4729 41.533C46.4729 42.1122 46.9422 42.5815 47.5214 42.5815H48.7148C50.0264 42.5815 51.0936 43.6487 51.0936 44.9603C51.0936 46.2721 50.0264 47.3392 48.7148 47.3392C48.1356 47.3392 47.6662 47.8086 47.6662 48.3878C47.6662 48.967 48.1356 49.4363 48.7148 49.4363C50.0264 49.4363 51.0936 50.5033 51.0936 51.815C51.0936 53.1268 50.0264 54.1939 48.7148 54.1939C48.1356 54.1939 47.6662 54.6632 47.6662 55.2424C47.6662 55.8216 48.1356 56.291 48.7148 56.291C50.0264 56.291 51.0936 57.358 51.0936 58.6696C51.0936 59.9814 50.0264 61.0486 48.7148 61.0486C48.1356 61.0486 47.6662 61.5179 47.6662 62.0971C47.6662 62.6763 48.1356 63.1456 48.7148 63.1456C50.0264 63.1456 51.0936 64.2128 51.0936 65.5244C51.0936 66.8361 50.0264 67.9032 48.7148 67.9032H32.4333C29.4981 67.9032 26.6388 67.0683 24.1638 65.4882L24.019 65.3959C23.8505 65.2886 23.6551 65.2317 23.4556 65.2317H20.4512C20.4642 65.0867 20.472 64.9402 20.472 64.7918V61.337C20.472 60.7578 20.0025 60.2884 19.4234 60.2884C18.8444 60.2884 18.3749 60.7578 18.3749 61.337V64.7918C18.3749 66.3196 17.1319 67.5625 15.6041 67.5625H8.84926C8.27019 67.5625 7.80072 68.0318 7.80072 68.611C7.80072 69.1903 8.27019 69.6596 8.84926 69.6596H15.604C17.3592 69.6596 18.9001 68.7255 19.7567 67.3287H23.1505C25.936 69.077 29.1426 70.0003 32.4332 70.0003H48.7146C51.1826 70.0003 53.1905 67.9925 53.1905 65.5244C53.1905 64.1504 52.5681 62.9187 51.5903 62.0971C52.5681 61.2753 53.1905 60.0438 53.1905 58.6696C53.1905 57.2956 52.5681 56.0641 51.5904 55.2424C52.5681 54.4207 53.1905 53.1891 53.1905 51.815C53.1905 50.441 52.5681 49.2094 51.5904 48.3878C52.5682 47.566 53.1906 46.3345 53.1906 44.9603Z" fill="#0195FF"/>
<path d="M11.2078 17.7618H18.9205V22.4398C18.9205 23.019 19.39 23.4884 19.9691 23.4884C20.5482 23.4884 21.0176 23.019 21.0176 22.4398V16.7133C21.0176 16.134 20.5482 15.6647 19.9691 15.6647H12.0318L26.7179 2.30562C27.0188 2.0316 27.4729 2.0316 27.7741 2.30562L42.4604 15.6647H34.5231C33.9439 15.6647 33.4746 16.134 33.4746 16.7133V22.8139C33.4746 23.3932 33.9439 23.8625 34.5231 23.8625C35.1023 23.8625 35.5716 23.3932 35.5716 22.8139V17.7618H43.2844C44.025 17.7618 44.676 17.3155 44.9431 16.6249C45.2101 15.9343 45.0288 15.166 44.481 14.6679L29.1852 0.754474C28.0796 -0.251146 26.4123 -0.251146 25.3067 0.754474L10.011 14.6679C9.46326 15.1662 9.28193 15.9344 9.54896 16.625C9.81613 17.3155 10.4672 17.7618 11.2078 17.7618Z" fill="#0195FF"/>
<path d="M19.9691 25.8597C19.39 25.8597 18.9205 26.329 18.9205 26.9082V34.1276C18.9205 34.7068 19.39 35.1762 19.9691 35.1762C20.5481 35.1762 21.0176 34.7068 21.0176 34.1276V26.9082C21.0176 26.3291 20.5481 25.8597 19.9691 25.8597Z" fill="#0195FF"/>
<path d="M8.84926 41.6607H15.604C17.1318 41.6607 18.3748 42.9038 18.3748 44.4314V56.8681C18.3748 57.4473 18.8442 57.9166 19.4233 57.9166C20.0024 57.9166 20.4718 57.4473 20.4718 56.8681C20.4718 56.8681 20.4644 44.1504 20.4525 44.0121H23.1947C23.4455 44.0121 23.6879 43.9222 23.8782 43.7588L32.6524 36.2178C33.8631 35.1774 34.7333 33.8153 35.1686 32.2795L36.1639 28.7685C36.2994 28.2906 36.7409 27.9569 37.2374 27.9569C37.692 27.9569 38.0971 28.2285 38.2699 28.6493L38.3748 28.9048C39.0795 30.6227 39.4369 32.4353 39.4369 34.292C39.4369 35.4876 39.2853 36.681 38.9866 37.8389L38.28 40.5764C38.155 41.0604 38.259 41.5647 38.565 41.9599C38.8711 42.3552 39.3334 42.5816 39.8332 42.5816H43.0526C43.6319 42.5816 44.1012 42.1123 44.1012 41.5331C44.1012 40.9539 43.6319 40.4846 43.0526 40.4846H40.4693L41.0168 38.3629C41.3597 37.0339 41.5337 35.6642 41.5337 34.292C41.5337 32.161 41.1235 30.0805 40.3146 28.1086L40.2096 27.8531C39.7128 26.6423 38.5462 25.8598 37.2372 25.8598C35.8072 25.8598 34.5361 26.8207 34.1461 28.1964L33.1508 31.7076C32.828 32.8463 32.1829 33.856 31.2852 34.6276L22.8059 41.9152H19.7693C18.9154 40.5068 17.3676 39.5638 15.6038 39.5638H8.84926C8.27019 39.5638 7.80072 40.0331 7.80072 40.6123C7.80072 41.1916 8.27019 41.6607 8.84926 41.6607Z" fill="#0195FF"/>
</g>
<defs>
<clipPath id="clip0_36_528">
<rect width="70" height="70" fill="white"/>
</clipPath>
</defs>
</svg>
