<svg width="70" height="70" viewBox="0 0 70 70" fill="none" xmlns="http://www.w3.org/2000/svg">
<g clip-path="url(#clip0_36_535)">
<path d="M32.0204 55.371C31.7214 55.0927 31.4751 54.7677 31.2885 54.4048L29.5859 51.0951C29.3259 50.59 28.7061 50.3914 28.201 50.6512C27.6961 50.911 27.4973 51.5309 27.7571 52.0359L29.4597 55.3455C29.7556 55.9206 30.1458 56.4357 30.6196 56.8766L37.2772 63.0697V68.9719C37.2772 69.5399 37.7374 70.0001 38.3054 70.0001C38.8734 70.0001 39.3336 69.5399 39.3336 68.9719V62.622C39.3336 62.3364 39.2149 62.0637 39.0057 61.8692L32.0204 55.371Z" fill="#0195FF"/>
<path d="M27.5727 47.1819L23.0069 38.3067C23.004 38.301 23.001 38.2954 22.9979 38.2898C22.6196 37.5866 22.7893 36.7041 23.4014 36.1914C24.0547 35.6442 25.0174 35.6696 25.6409 36.2507L31.6732 41.8716C31.9727 42.1506 32.409 42.2254 32.7844 42.0622C33.1596 41.899 33.4024 41.5286 33.4024 41.1193V27.9159C33.4024 27.3479 32.942 26.8877 32.3742 26.8877C31.8063 26.8877 31.3459 27.3479 31.3459 27.9159V38.7557L27.0429 34.7461C25.6616 33.459 23.5285 33.4025 22.0812 34.6148C20.7273 35.7486 20.3503 37.6985 21.1822 39.2551L25.7441 48.1227C25.9266 48.4772 26.2864 48.6808 26.6594 48.6808C26.8177 48.6808 26.9784 48.6439 27.129 48.5666C27.6336 48.3068 27.8324 47.6869 27.5727 47.1819Z" fill="#0195FF"/>
<path d="M56.3813 24.6967C55.0035 24.6967 53.77 25.3252 52.9515 26.3102C52.1332 25.3252 50.8996 24.6967 49.5219 24.6967C48.1442 24.6967 46.9107 25.3252 46.0923 26.3102C45.2739 25.3252 44.0403 24.6967 42.6626 24.6967C41.7788 24.6967 40.955 24.9564 40.2612 25.4018V17.2187C40.2612 14.7607 38.2614 12.7609 35.8032 12.7609C33.3452 12.7609 31.3455 14.7607 31.3455 17.2187V23.5339C31.3455 24.1019 31.8059 24.5621 32.3738 24.5621C32.9416 24.5621 33.402 24.1019 33.402 23.5339V17.2187C33.402 15.8947 34.4793 14.8173 35.8034 14.8173C37.1275 14.8173 38.2048 15.8945 38.2048 17.2187V35.4819C38.2048 36.0499 38.665 36.5101 39.233 36.5101C39.801 36.5101 40.2612 36.0499 40.2612 35.4819V29.1546C40.2612 27.8305 41.3384 26.7532 42.6626 26.7532C43.9869 26.7532 45.064 27.8304 45.064 29.1546V35.4761C45.064 36.0441 45.5243 36.5044 46.0923 36.5044C46.6603 36.5044 47.1205 36.0441 47.1205 35.4761V29.1546C47.1205 27.8305 48.1977 26.7532 49.5219 26.7532C50.8461 26.7532 51.9233 27.8304 51.9233 29.1546V35.4761C51.9233 36.0441 52.3835 36.5044 52.9515 36.5044C53.5195 36.5044 53.9797 36.0441 53.9797 35.4761V29.1546C53.9797 27.8305 55.0571 26.7532 56.3813 26.7532C57.7055 26.7532 58.7827 27.8304 58.7827 29.1546V56.7057C58.7827 57.2292 58.6434 57.7454 58.38 58.198L56.729 61.0353C56.6377 61.1925 56.5894 61.3708 56.5894 61.5525V68.8328C56.5894 69.4007 57.0496 69.861 57.6176 69.861C58.1856 69.861 58.6459 69.4007 58.6459 68.8328V61.83L60.1574 59.2322C60.6033 58.4659 60.839 57.5923 60.839 56.7057V29.1546C60.8391 26.6966 58.8394 24.6967 56.3813 24.6967Z" fill="#0195FF"/>
<path d="M44.2911 14.4649C44.2911 16.357 43.6825 18.1495 42.5307 19.6489C42.185 20.0993 42.2696 20.7448 42.7199 21.0908C42.9067 21.2342 43.127 21.3036 43.3455 21.3036C43.6541 21.3036 43.9594 21.1652 44.1618 20.9016C45.5918 19.0398 46.3475 16.814 46.3475 14.465C46.3475 12.8411 45.9879 11.2813 45.2787 9.8292C45.0297 9.31879 44.414 9.10697 43.9036 9.35649C43.3933 9.6056 43.1817 10.2214 43.4309 10.7316C44.0016 11.9002 44.2911 13.1563 44.2911 14.4649Z" fill="#0195FF"/>
<path d="M27.4529 20.9981C27.6558 21.2561 27.9573 21.3906 28.2618 21.3906C28.4843 21.3906 28.7083 21.3188 28.8968 21.1706C29.3432 20.8195 29.4204 20.1732 29.0693 19.7268C27.8776 18.2117 27.2478 16.3923 27.2478 14.4649C27.2478 9.766 31.0706 5.94317 35.7695 5.94317C37.6599 5.94317 39.4514 6.55106 40.9501 7.7009C41.4005 8.04652 42.0462 7.96138 42.3919 7.51102C42.7375 7.06052 42.6525 6.41506 42.202 6.0693C40.3409 4.6413 38.1166 3.88671 35.7695 3.88671C29.9367 3.88671 25.1913 8.63206 25.1913 14.4649C25.1913 16.8579 25.9733 19.117 27.4529 20.9981Z" fill="#0195FF"/>
<path d="M25.6232 28.7389C25.804 28.8676 26.0123 28.9297 26.2188 28.9297C26.5401 28.9297 26.8567 28.7793 27.0572 28.4977C27.3867 28.0352 27.2787 27.3932 26.8161 27.0638C22.745 24.1651 20.3145 19.4554 20.3145 14.465C20.3145 9.4748 22.7451 4.76482 26.8161 1.86617C27.2788 1.53686 27.3867 0.894838 27.0572 0.432134C26.7279 -0.0304324 26.0859 -0.138465 25.6233 0.19098C21.0114 3.47474 18.2581 8.81084 18.2581 14.465C18.2579 20.1192 21.0112 25.4553 25.6232 28.7389Z" fill="#0195FF"/>
<path d="M44.7228 1.8659C48.7939 4.76468 51.2245 9.47453 51.2245 14.4647C51.2245 16.4573 50.8509 18.3966 50.1143 20.2282C49.9023 20.7552 50.1576 21.354 50.6845 21.5658C50.8103 21.6164 50.94 21.6404 51.0679 21.6404C51.4753 21.6404 51.8609 21.3967 52.0221 20.9956C52.8575 18.9189 53.281 16.7215 53.281 14.4647C53.281 8.81057 50.5276 3.47446 45.9157 0.190705C45.4527 -0.13874 44.8108 -0.030707 44.4816 0.43186C44.1523 0.894563 44.2602 1.53659 44.7228 1.8659Z" fill="#0195FF"/>
<path d="M12.1695 8.01732C12.3722 8.23489 12.6468 8.34498 12.9223 8.34498C13.1732 8.34498 13.4247 8.25367 13.6228 8.06928C14.0385 7.68239 14.0618 7.03172 13.6747 6.61605L11.4385 4.2141C11.0514 3.79842 10.4009 3.77539 9.98531 4.16214C9.56963 4.54903 9.54632 5.19969 9.93335 5.61537L12.1695 8.01732Z" fill="#0195FF"/>
<path d="M12.1696 18.2109L9.93337 20.6127C9.54648 21.0283 9.56965 21.6789 9.98519 22.066C10.1833 22.2504 10.4347 22.3417 10.6856 22.3417C10.9611 22.3417 11.2358 22.2316 11.4384 22.014L13.6746 19.6122C14.0615 19.1967 14.0383 18.546 13.6228 18.159C13.2073 17.7723 12.5567 17.7954 12.1696 18.2109Z" fill="#0195FF"/>
<path d="M12.9221 11.6718H10.1891C9.6212 11.6718 9.16083 12.132 9.16083 12.7C9.16083 13.268 9.6212 13.7282 10.1891 13.7282H12.9222C13.4901 13.7282 13.9505 13.268 13.9505 12.7C13.9505 12.132 13.49 11.6718 12.9221 11.6718Z" fill="#0195FF"/>
</g>
<defs>
<clipPath id="clip0_36_535">
<rect width="70" height="70" fill="white"/>
</clipPath>
</defs>
</svg>
