<svg width="70" height="70" viewBox="0 0 70 70" fill="none" xmlns="http://www.w3.org/2000/svg">
<path d="M51.5558 40.1227C50.514 39.1326 49.1323 38.5797 47.6951 38.5777C46.2579 38.5757 44.8746 39.1248 43.8301 40.112L38.4201 45.5209H32.7637C32.8934 45.1707 32.9615 44.8007 32.9652 44.4272C32.9643 43.5572 32.6183 42.7232 32.0031 42.108C31.388 41.4929 30.5539 41.1469 29.684 41.1459H19.8402C19.2655 41.145 18.6964 41.258 18.1656 41.4784C17.6349 41.6987 17.153 42.0221 16.748 42.4298L13.6574 45.5204L12.8847 44.7476C12.7831 44.646 12.6626 44.5655 12.5299 44.5105C12.3972 44.4555 12.255 44.4272 12.1114 44.4272C11.9678 44.4272 11.8255 44.4555 11.6929 44.5105C11.5602 44.5655 11.4396 44.646 11.3381 44.7476L5.92428 50.1614L5.15043 49.3875C5.04926 49.2843 4.92862 49.2021 4.7955 49.1458C4.66237 49.0895 4.51941 49.0601 4.37486 49.0594C4.23031 49.0586 4.08706 49.0866 3.95337 49.1415C3.81969 49.1965 3.69823 49.2775 3.59602 49.3797C3.4938 49.4819 3.41287 49.6033 3.35789 49.737C3.30291 49.8707 3.27498 50.014 3.27571 50.1585C3.27644 50.3031 3.30582 50.446 3.36214 50.5791C3.41847 50.7123 3.50063 50.8329 3.60387 50.9341L19.0723 66.4025C19.1735 66.5058 19.2941 66.5879 19.4272 66.6443C19.5604 66.7006 19.7033 66.73 19.8479 66.7307C19.9924 66.7314 20.1357 66.7035 20.2694 66.6485C20.4031 66.5935 20.5245 66.5126 20.6267 66.4104C20.7289 66.3082 20.8099 66.1867 20.8649 66.053C20.9198 65.9193 20.9478 65.7761 20.947 65.6315C20.9463 65.487 20.9169 65.344 20.8606 65.2109C20.8043 65.0778 20.7221 64.9571 20.6189 64.856L19.8454 64.0825L25.2588 58.6673C25.3604 58.5658 25.4409 58.4452 25.4959 58.3125C25.5509 58.1799 25.5792 58.0376 25.5792 57.894C25.5792 57.7504 25.5509 57.6082 25.4959 57.4755C25.4409 57.3428 25.3604 57.2223 25.2588 57.1207L25.159 57.0211L38.6284 54.3159C38.8374 54.2733 39.0297 54.1708 39.1816 54.0211L41.3254 51.8998C41.4298 51.7993 41.5132 51.6791 41.5708 51.5462C41.6283 51.4132 41.6589 51.2701 41.6607 51.1252C41.6624 50.9804 41.6354 50.8366 41.5812 50.7022C41.5269 50.5679 41.4465 50.4456 41.3446 50.3426C41.2428 50.2396 41.1214 50.1578 40.9877 50.1021C40.8539 50.0464 40.7105 50.0178 40.5656 50.018C40.4207 50.0182 40.2773 50.0471 40.1437 50.1032C40.0101 50.1593 39.8889 50.2414 39.7873 50.3446L37.8765 52.2352L23.3052 55.1618L20.8945 52.7566L15.2048 47.0674L18.2936 43.9765C18.4963 43.7727 18.7373 43.611 19.0027 43.5006C19.2681 43.3903 19.5528 43.3335 19.8402 43.3335H29.6839C29.9739 43.3339 30.2519 43.4492 30.4569 43.6542C30.662 43.8593 30.7773 44.1373 30.7777 44.4272C30.7792 44.5713 30.752 44.7142 30.6975 44.8476C30.6431 44.981 30.5626 45.1021 30.4607 45.204C30.3589 45.3059 30.2377 45.3864 30.1043 45.4408C29.9709 45.4953 29.828 45.5225 29.6839 45.521H22.4871C22.197 45.521 21.9188 45.6362 21.7137 45.8413C21.5085 46.0465 21.3933 46.3246 21.3933 46.6147C21.3933 46.9048 21.5085 47.183 21.7137 47.3881C21.9188 47.5932 22.197 47.7085 22.4871 47.7085H38.6241C38.6968 47.7234 38.7683 47.7234 38.8495 47.732C39.1395 47.7318 39.4176 47.6166 39.6228 47.4115L45.3884 41.6479C45.8696 41.1769 46.4829 40.8637 47.1465 40.7499C47.8102 40.6362 48.4928 40.7274 49.1033 41.0114L45.9716 44.1602C45.7717 44.3667 45.6611 44.6438 45.6638 44.9313C45.6665 45.2188 45.7824 45.4937 45.9862 45.6964C46.1901 45.8992 46.4656 46.0135 46.7532 46.0146C47.0407 46.0158 47.3171 45.9036 47.5226 45.7025L51.5472 41.6566C51.7496 41.4532 51.864 41.1783 51.8656 40.8914C51.8672 40.6044 51.7559 40.3283 51.5558 40.1227ZM18.2989 62.536L7.47145 51.7075L12.1113 47.0676L12.8519 47.808C12.8629 47.8198 12.8669 47.8359 12.8782 47.8473L18.7409 53.6967L22.9387 57.8941L18.2989 62.536Z" fill="#0195FF"/>
<path d="M18.2984 58.9881C18.9025 58.9881 19.3922 58.4984 19.3922 57.8944C19.3922 57.2903 18.9025 56.8006 18.2984 56.8006C17.6943 56.8006 17.2047 57.2903 17.2047 57.8944C17.2047 58.4984 17.6943 58.9881 18.2984 58.9881Z" fill="#0195FF"/>
<path d="M35 36.5114C34.8563 36.5116 34.714 36.4833 34.5813 36.4283C34.4486 36.3734 34.3281 36.2927 34.2266 36.1909L18.974 20.9383C17.0352 18.9995 15.946 16.3699 15.946 13.6281C15.946 10.8862 17.0352 8.25669 18.974 6.31791C20.9127 4.37912 23.5423 3.28993 26.2841 3.28992C29.026 3.28992 31.6555 4.37912 33.5943 6.3179L35 7.72354L36.4056 6.3179C38.3444 4.37912 40.9739 3.28992 43.7158 3.28992C46.4576 3.28993 49.0872 4.37912 51.026 6.31791C52.9648 8.25669 54.0539 10.8862 54.0539 13.6281C54.0539 16.3699 52.9647 18.9995 51.026 20.9383L35.7733 36.1909C35.6719 36.2927 35.5513 36.3734 35.4186 36.4283C35.2859 36.4833 35.1436 36.5116 35 36.5114ZM26.2841 5.48157C24.672 5.48035 23.0958 5.95747 21.7549 6.85253C20.4141 7.7476 19.369 9.02037 18.7519 10.5097C18.1348 11.9991 17.9735 13.638 18.2883 15.2191C18.6032 16.8002 19.38 18.2523 20.5206 19.3916L35 33.871L49.4793 19.3916C51.0079 17.8631 51.8667 15.7898 51.8667 13.6281C51.8667 11.4663 51.0079 9.39313 49.4793 7.86453C47.9508 6.33594 45.8775 5.47719 43.7158 5.47719C41.554 5.47719 39.4808 6.33594 37.9522 7.86452L35.7733 10.0435C35.6718 10.1451 35.5512 10.2256 35.4185 10.2806C35.2858 10.3356 35.1436 10.3639 35 10.3639C34.8564 10.3639 34.7142 10.3356 34.5815 10.2806C34.4488 10.2256 34.3283 10.1451 34.2267 10.0435L32.0478 7.86452C31.2914 7.10725 30.3928 6.50689 29.4037 6.09795C28.4146 5.68901 27.3544 5.47953 26.2841 5.48157Z" fill="#0195FF"/>
<path d="M65.625 14.2188H61.25C60.9599 14.2188 60.6817 14.1035 60.4766 13.8984C60.2715 13.6933 60.1562 13.4151 60.1562 13.125C60.1562 12.8349 60.2715 12.5567 60.4766 12.3516C60.6817 12.1465 60.9599 12.0312 61.25 12.0312H65.625C65.9151 12.0312 66.1933 12.1465 66.3984 12.3516C66.6035 12.5567 66.7188 12.8349 66.7188 13.125C66.7188 13.4151 66.6035 13.6933 66.3984 13.8984C66.1933 14.1035 65.9151 14.2188 65.625 14.2188Z" fill="#0195FF"/>
<path d="M59.2035 8.59405C58.979 8.59411 58.76 8.52513 58.5761 8.39647C58.3923 8.26781 58.2524 8.08571 58.1756 7.87485C58.0987 7.664 58.0886 7.43461 58.1465 7.21781C58.2045 7.001 58.3278 6.80728 58.4996 6.66291L61.8513 3.85055C62.0734 3.66415 62.3605 3.57361 62.6493 3.59885C62.9382 3.62409 63.2051 3.76304 63.3915 3.98513C63.5779 4.20723 63.6685 4.49427 63.6432 4.78312C63.618 5.07197 63.4791 5.33896 63.257 5.52536L59.9052 8.3377C59.7089 8.50326 59.4603 8.59406 59.2035 8.59405Z" fill="#0195FF"/>
<path d="M62.5531 22.6558C62.2962 22.6558 62.0477 22.565 61.8513 22.3995L58.4996 19.5871C58.3891 19.495 58.2979 19.3819 58.2312 19.2545C58.1645 19.127 58.1236 18.9877 58.1108 18.8444C58.0981 18.7011 58.1137 18.5567 58.1569 18.4194C58.2 18.2822 58.2699 18.1549 58.3624 18.0447C58.4548 17.9345 58.5682 17.8436 58.6958 17.7773C58.8235 17.711 58.963 17.6705 59.1063 17.6582C59.2496 17.6459 59.394 17.662 59.5311 17.7056C59.6682 17.7492 59.7953 17.8195 59.9052 17.9123L63.257 20.7246C63.4288 20.869 63.552 21.0627 63.61 21.2795C63.668 21.4964 63.6578 21.7257 63.581 21.9366C63.5041 22.1475 63.3643 22.3296 63.1804 22.4582C62.9965 22.5869 62.7775 22.6558 62.5531 22.6558Z" fill="#0195FF"/>
<path d="M8.75 14.2188H4.375C4.08492 14.2188 3.80672 14.1035 3.6016 13.8984C3.39648 13.6933 3.28125 13.4151 3.28125 13.125C3.28125 12.8349 3.39648 12.5567 3.6016 12.3516C3.80672 12.1465 4.08492 12.0312 4.375 12.0312H8.75C9.04008 12.0312 9.31828 12.1465 9.5234 12.3516C9.72852 12.5567 9.84375 12.8349 9.84375 13.125C9.84375 13.4151 9.72852 13.6933 9.5234 13.8984C9.31828 14.1035 9.04008 14.2188 8.75 14.2188Z" fill="#0195FF"/>
<path d="M10.7965 8.59405C10.5396 8.59406 10.2911 8.50326 10.0947 8.3377L6.74298 5.52536C6.52088 5.33896 6.38193 5.07197 6.35669 4.78312C6.33145 4.49427 6.42199 4.20723 6.60839 3.98513C6.79479 3.76304 7.06178 3.62409 7.35063 3.59885C7.63948 3.57361 7.92653 3.66415 8.14862 3.85055L11.5004 6.66291C11.6722 6.80728 11.7954 7.001 11.8534 7.21781C11.9114 7.43461 11.9012 7.664 11.8244 7.87485C11.7475 8.08571 11.6077 8.26781 11.4238 8.39647C11.2399 8.52513 11.0209 8.59411 10.7965 8.59405Z" fill="#0195FF"/>
<path d="M7.44689 22.6558C7.22246 22.6558 7.00346 22.5869 6.81957 22.4582C6.63569 22.3296 6.49583 22.1475 6.41898 21.9366C6.34212 21.7257 6.33199 21.4964 6.38995 21.2795C6.44792 21.0627 6.57117 20.869 6.74299 20.7246L10.0947 17.9123C10.2046 17.8195 10.3318 17.7492 10.4689 17.7056C10.606 17.662 10.7503 17.6459 10.8937 17.6582C11.037 17.6705 11.1765 17.711 11.3041 17.7773C11.4318 17.8436 11.5451 17.9345 11.6376 18.0447C11.7301 18.1549 11.7999 18.2822 11.8431 18.4194C11.8862 18.5567 11.9019 18.7011 11.8892 18.8444C11.8764 18.9877 11.8355 19.127 11.7688 19.2545C11.7021 19.3819 11.6109 19.495 11.5004 19.5871L8.14864 22.3995C7.95228 22.565 7.70372 22.6558 7.44689 22.6558Z" fill="#0195FF"/>
<path d="M43.6406 49.1312C44.2447 49.1312 44.7344 48.6416 44.7344 48.0375C44.7344 47.4334 44.2447 46.9437 43.6406 46.9437C43.0366 46.9437 42.5469 47.4334 42.5469 48.0375C42.5469 48.6416 43.0366 49.1312 43.6406 49.1312Z" fill="#0195FF"/>
<path d="M48.125 14.2188C47.9813 14.2188 47.8391 14.1906 47.7063 14.1357C47.5736 14.0807 47.453 14.0002 47.3514 13.8986C47.2498 13.797 47.1693 13.6764 47.1143 13.5437C47.0594 13.4109 47.0312 13.2687 47.0312 13.125C47.0303 12.255 46.6843 11.421 46.0691 10.8059C45.454 10.1907 44.62 9.8447 43.75 9.84375C43.4599 9.84375 43.1817 9.72852 42.9766 9.5234C42.7715 9.31828 42.6562 9.04008 42.6562 8.75C42.6562 8.45992 42.7715 8.18172 42.9766 7.9766C43.1817 7.77148 43.4599 7.65625 43.75 7.65625C45.1999 7.65795 46.5899 8.23467 47.6151 9.25989C48.6403 10.2851 49.217 11.6751 49.2188 13.125C49.2188 13.2687 49.1906 13.4109 49.1357 13.5437C49.0807 13.6764 49.0002 13.797 48.8986 13.8986C48.797 14.0002 48.6764 14.0807 48.5437 14.1357C48.4109 14.1906 48.2687 14.2188 48.125 14.2188Z" fill="#0195FF"/>
</svg>
