<svg width="70" height="70" viewBox="0 0 70 70" fill="none" xmlns="http://www.w3.org/2000/svg">
<mask id="mask0_36_609" style="mask-type:luminance" maskUnits="userSpaceOnUse" x="0" y="0" width="70" height="70">
<path d="M0 7.62939e-06H70V70H0V7.62939e-06Z" fill="white"/>
</mask>
<g mask="url(#mask0_36_609)">
<path d="M10.4268 8.3673C10.6191 8.27542 10.7778 8.12585 10.881 7.9395L12.1331 5.68077L13.3853 7.9395C13.4887 8.12599 13.6475 8.27556 13.8399 8.36743L15.4137 9.1198L13.8399 9.87202C13.6475 9.96404 13.4887 10.1136 13.3853 10.3001L12.1331 12.5588L10.881 10.3001C10.7778 10.1137 10.6191 9.96417 10.4268 9.8723L8.85431 9.1198L10.4268 8.3673ZM6.03613 10.0447L9.24614 11.5807L11.2364 15.171C11.4171 15.4969 11.7604 15.6992 12.1331 15.6992C12.5059 15.6992 12.8492 15.4969 13.03 15.171L15.0201 11.581L18.2336 10.045C18.5899 9.87462 18.8167 9.51478 18.8167 9.1198C18.8167 8.72482 18.5899 8.36497 18.2336 8.19462L15.0201 6.65859L13.03 3.06863C12.8492 2.74255 12.5059 2.54034 12.1331 2.54034C11.7604 2.54034 11.4171 2.74255 11.2364 3.06863L9.24614 6.65872L6.03613 8.19489C5.67997 8.36525 5.45343 8.72495 5.45343 9.1198C5.45343 9.51464 5.67997 9.87435 6.03613 10.0447Z" fill="#0195FF"/>
<path d="M67.9492 65.1511C67.9492 65.2883 67.827 65.4089 67.6875 65.4089H37.226C39.9094 62.735 43.8968 60.9626 55.1381 60.9626H61.4999C63.1522 60.9626 64.4964 59.6166 64.4964 57.9621V41.8102C64.4964 41.2439 64.0373 40.7848 63.471 40.7848C62.9047 40.7848 62.4456 41.2439 62.4456 41.8102V57.9621C62.4456 58.4858 62.0214 58.9118 61.4999 58.9118H55.1381C48.5621 58.9118 43.9791 59.4984 40.7152 60.7579C38.7059 61.5334 37.246 62.538 35.981 63.7602V37.172C39.2492 37.4431 41.924 39.9776 42.3544 43.2343C41.6243 44.0446 41.1808 45.1111 41.1808 46.2627C41.1808 48.7611 43.215 50.7937 45.7155 50.7937H55.714C58.2124 50.7937 60.2448 48.7611 60.2448 46.2627C60.2448 44.7559 59.5122 43.3812 58.2959 42.5397C58.2307 41.4564 57.8071 40.4675 57.1424 39.685C55.4055 31.2061 48.9184 24.665 40.788 22.6292C43.2697 21.5135 47.3464 20.6271 55.1497 20.6271H55.649L57.7585 24.4316C57.9392 24.7575 58.2825 24.9597 58.6552 24.9597C59.028 24.9597 59.3713 24.7575 59.5521 24.4316L61.6539 20.6408C62.1022 20.715 62.4456 21.1058 62.4456 21.5768V37.0099C62.4456 37.5761 62.9047 38.0352 63.471 38.0352C64.0373 38.0352 64.4964 37.5761 64.4964 37.0099V26.7338H67.6875C67.827 26.7338 67.9492 26.8544 67.9492 26.9917V65.1511ZM2.05078 65.1511V26.9917C2.05078 26.8519 2.16877 26.7338 2.3085 26.7338H5.41475V37.0099C5.41475 37.5761 5.87385 38.0352 6.44014 38.0352C7.00643 38.0352 7.46553 37.5761 7.46553 37.0099V21.5768C7.46553 21.062 7.89865 20.6271 8.41121 20.6271H14.7652C22.8624 20.6271 26.9746 21.5898 29.4466 22.7817C26.3869 23.6341 23.5215 25.1375 21.0677 27.2149C17.1836 30.5034 14.5379 35.0376 13.5953 40.0056C13.0253 40.7527 12.6652 41.6647 12.6049 42.6561C11.4013 43.4983 10.6518 44.8977 10.6518 46.3786C10.6518 48.8791 12.6842 50.9135 15.1826 50.9135H25.185C27.6834 50.9135 29.716 48.8791 29.716 46.3786C29.716 45.1758 29.2342 44.0662 28.4473 43.2455C28.8362 40.2822 31.0726 37.9178 33.9302 37.3037V63.7601C32.6653 62.5377 31.2056 61.5331 29.1974 60.758C25.9339 59.4984 21.3505 58.9118 14.7729 58.9118H8.41121C7.89865 58.9118 7.46553 58.4769 7.46553 57.9621V41.8102C7.46553 41.2439 7.00643 40.7848 6.44014 40.7848C5.87385 40.7848 5.41475 41.2439 5.41475 41.8102V57.9621C5.41475 59.6166 6.75896 60.9626 8.41121 60.9626H14.7729C26.0143 60.9626 30.0016 62.735 32.6849 65.4089H2.3085C2.16645 65.4089 2.05078 65.2933 2.05078 65.1511ZM45.3716 43.8034C45.8717 43.7329 46.2459 43.3089 46.2537 42.804C46.272 41.6322 47.2598 40.6788 48.4557 40.6788C48.937 40.6788 49.3928 40.8266 49.7738 41.1064C50.2009 41.4196 50.7966 41.3561 51.148 40.9595C51.6998 40.3366 52.4992 39.9793 53.341 39.9793C54.9471 39.9793 56.254 41.26 56.254 42.8345C56.254 42.9027 56.2513 42.9675 56.2455 43.0385C56.2122 43.4557 56.4357 43.8514 56.8103 44.0382C57.6639 44.4635 58.1941 45.3159 58.1941 46.2627C58.1941 47.6303 57.0816 48.7429 55.714 48.7429H45.7155C44.3458 48.7429 43.2316 47.6303 43.2316 46.2627C43.2316 45.0326 44.1517 43.9753 45.3716 43.8034ZM47.4216 38.7564C46.484 36.6337 45.0319 34.8241 43.1773 33.4822C40.9597 31.8776 38.2717 31.0295 35.4039 31.0295C30.3379 31.0295 25.5381 34.2006 23.3949 38.8527C23.0877 38.7819 22.7685 38.7441 22.4409 38.7441C21.8199 38.7441 21.2172 38.8754 20.6626 39.1284C20.6345 39.1062 20.6056 39.0851 20.5771 39.0635C22.7328 32.8006 28.7204 28.4886 35.4 28.4886C42.0524 28.4886 48.0292 32.7727 50.2015 38.9969C49.6579 38.7545 49.067 38.6281 48.4557 38.6281C48.0996 38.6281 47.7533 38.6732 47.4216 38.7564ZM14.0875 44.1534C14.4487 43.9729 14.6702 43.5971 14.6534 43.1935C14.6501 43.1149 14.6465 43.0363 14.6465 42.9542C14.6465 41.3799 15.9517 40.0992 17.5556 40.0992C18.3971 40.0992 19.1971 40.4557 19.7503 41.0772C20.1007 41.471 20.6927 41.5351 21.1191 41.225C21.5063 40.9435 21.9633 40.7949 22.4409 40.7949C23.6389 40.7949 24.6285 41.7499 24.6467 42.9238C24.6546 43.4296 25.0302 43.8541 25.5311 43.9234C26.7478 44.0922 27.6652 45.1476 27.6652 46.3786C27.6652 47.7483 26.5526 48.8627 25.185 48.8627H15.1826C13.815 48.8627 12.7025 47.7483 12.7025 46.3786C12.7025 45.4476 13.2461 44.5742 14.0875 44.1534ZM35.4 35.0955C35.212 35.0955 35.0175 35.0928 34.8307 35.1155C30.8442 35.3653 27.5149 38.2165 26.5915 42.0276C26.3871 41.1418 25.8981 40.3599 25.2264 39.7814C27.0226 35.8007 31.1005 33.0803 35.4039 33.0803C40.0155 33.0803 43.8592 35.6068 45.6055 39.7239C44.957 40.3063 44.4879 41.0823 44.2971 41.9573C44.2653 41.968 44.2348 41.9815 44.2031 41.9927C43.2242 38.0214 39.6207 35.0955 35.4 35.0955ZM54.615 38.0936C54.2082 37.9867 53.7815 37.9285 53.341 37.9285C52.9025 37.9285 52.4709 37.9864 52.0557 38.0966C50.8972 34.9256 48.8188 32.094 46.115 30.0401C43.0125 27.6835 39.3073 26.4378 35.4 26.4378C31.4824 26.4378 27.7694 27.6899 24.6628 30.0587C21.946 32.1302 19.8641 34.9874 18.7145 38.1851C18.3382 38.0957 17.9497 38.0484 17.5556 38.0484C17.0622 38.0484 16.5853 38.12 16.1351 38.2533C18.686 29.8755 26.4362 24.0168 35.4 24.0168C44.2668 24.0168 52.0084 29.8134 54.615 38.0936ZM56.2654 15.3241C56.4573 15.2322 56.6158 15.0828 56.719 14.8966L58.6552 11.4045L60.5916 14.8966C60.6946 15.0828 60.8532 15.2322 61.0452 15.3241L63.736 16.6132L61.0459 17.8999C60.8536 17.9917 60.6948 18.1413 60.5916 18.3277L58.6552 21.8199L56.719 18.3277C56.6158 18.1413 56.4569 17.9917 56.2647 17.8999L53.5746 16.6132L56.2654 15.3241ZM67.6875 24.683H64.4964V21.5768C64.4964 20.567 63.9952 19.6728 63.2294 19.1288L66.5532 17.5391C66.9093 17.3687 67.136 17.0091 67.1361 16.6144C67.1363 16.2197 66.9097 15.8599 66.5537 15.6894L62.2264 13.6161L59.5521 8.79262C59.3713 8.46668 59.028 8.26447 58.6552 8.26447C58.2825 8.26447 57.9392 8.46668 57.7585 8.79262L55.0841 13.6161L50.7568 15.6894C50.4008 15.8599 50.1743 16.2197 50.1744 16.6144C50.1745 17.0091 50.4012 17.3687 50.7574 17.5391L52.9743 18.5993C45.4195 18.7605 40.8473 19.8061 37.6357 22.0796C36.899 22.0053 36.1534 21.966 35.4 21.966C34.3936 21.966 33.3931 22.0353 32.4048 22.1701C28.8851 19.6221 23.7158 18.5763 14.7652 18.5763H8.41121C6.75896 18.5763 5.41475 19.9223 5.41475 21.5768V24.683H2.3085C1.03565 24.683 0 25.7187 0 26.9917V65.1511C0 66.4241 1.03565 67.4597 2.3085 67.4597H67.6875C68.9627 67.4597 70 66.4241 70 65.1511V26.9917C70 25.7187 68.9627 24.683 67.6875 24.683Z" fill="#0195FF"/>
</g>
</svg>
