<svg width="70" height="70" viewBox="0 0 70 70" fill="none" xmlns="http://www.w3.org/2000/svg">
<path fill-rule="evenodd" clip-rule="evenodd" d="M37.765 55.9285C40.2252 61.6306 45.8996 65.625 52.5 65.625C54.9194 65.625 57.2148 65.0883 59.2725 64.1273C59.2711 64.1273 63.9246 65.4062 63.9246 65.4062C65.2007 65.7562 66.5671 65.3873 67.4946 64.4437C68.4207 63.4987 68.7619 62.125 68.3871 60.8562L67.0513 56.3398C68.0065 54.2864 68.5417 51.9969 68.5417 49.5833C68.5417 41.5887 62.6792 34.9518 55.0229 33.74C54.2282 33.6131 53.48 34.1571 53.3546 34.9519C53.2292 35.7467 53.7717 36.4948 54.5665 36.6202C60.83 37.6118 65.625 43.0427 65.625 49.5833C65.625 51.73 65.1088 53.757 64.1944 55.5464C64.0238 55.8789 63.9873 56.2654 64.0938 56.6241L65.59 61.6831C65.6659 61.9368 65.5973 62.2125 65.4121 62.4006C65.2269 62.5902 64.9527 62.6631 64.6975 62.5931C62.2475 61.9208 59.5131 61.1698 59.5131 61.1698C59.1617 61.0721 58.7869 61.1115 58.4631 61.2777C56.6737 62.1921 54.6467 62.7083 52.5 62.7083C47.0998 62.7083 42.4565 59.4387 40.4425 54.7735C40.1231 54.0341 39.2642 53.6929 38.5263 54.0122C37.7869 54.3316 37.4456 55.1906 37.765 55.9285Z" fill="#0195FF"/>
<path fill-rule="evenodd" clip-rule="evenodd" d="M14.5833 30.625H37.9167C38.7217 30.625 39.375 29.9717 39.375 29.1667C39.375 28.3617 38.7217 27.7083 37.9167 27.7083H14.5833C13.7783 27.7083 13.125 28.3617 13.125 29.1667C13.125 29.9717 13.7783 30.625 14.5833 30.625Z" fill="#0195FF"/>
<path fill-rule="evenodd" clip-rule="evenodd" d="M14.5833 24.7917H26.25C27.055 24.7917 27.7083 24.1383 27.7083 23.3333C27.7083 22.5283 27.055 21.875 26.25 21.875H14.5833C13.7783 21.875 13.125 22.5283 13.125 23.3333C13.125 24.1383 13.7783 24.7917 14.5833 24.7917Z" fill="#0195FF"/>
<path fill-rule="evenodd" clip-rule="evenodd" d="M14.5833 36.4583H37.9167C38.7217 36.4583 39.375 35.805 39.375 35C39.375 34.195 38.7217 33.5417 37.9167 33.5417H14.5833C13.7783 33.5417 13.125 34.195 13.125 35C13.125 35.805 13.7783 36.4583 14.5833 36.4583Z" fill="#0195FF"/>
<path fill-rule="evenodd" clip-rule="evenodd" d="M12.8407 11.8883C16.5463 9.00668 21.1984 7.29167 26.25 7.29167C38.3236 7.29167 48.125 17.0931 48.125 29.1667C48.125 41.2402 38.3236 51.0417 26.25 51.0417C22.365 51.0417 18.7163 50.0267 15.5532 48.2489C15.228 48.0652 14.8459 48.0142 14.4842 48.1046C14.4842 48.1046 9.61485 49.3223 6.10027 50.2017C5.85089 50.2629 5.58839 50.19 5.40755 50.0092C5.22672 49.8283 5.15377 49.5658 5.21502 49.3164L7.31214 40.9325C7.40255 40.5708 7.35151 40.1887 7.16776 39.8635C5.39005 36.7004 4.37504 33.0517 4.37504 29.1667C4.37504 24.115 6.09005 19.4629 8.97172 15.7573C9.46609 15.1214 9.35089 14.2042 8.71506 13.7098C8.07923 13.2169 7.16337 13.3306 6.669 13.9665C3.40379 18.1665 1.45837 23.4413 1.45837 29.1667C1.45837 33.3608 2.50255 37.3144 4.34442 40.7794C4.34442 40.7779 2.38585 48.6092 2.38585 48.6092C2.07523 49.8517 2.43984 51.1656 3.34547 52.0712C4.25109 52.9769 5.56504 53.3415 6.80754 53.0309L14.6388 51.0723C18.1023 52.9142 22.0559 53.9583 26.25 53.9583C39.9336 53.9583 51.0417 42.8502 51.0417 29.1667C51.0417 15.4831 39.9336 4.375 26.25 4.375C20.5246 4.375 15.2498 6.32041 11.0498 9.58562C10.414 10.08 10.3003 10.9959 10.7932 11.6317C11.2875 12.2675 12.2048 12.3827 12.8407 11.8883Z" fill="#0195FF"/>
</svg>
