<svg width="70" height="70" viewBox="0 0 70 70" fill="none" xmlns="http://www.w3.org/2000/svg">
<g clip-path="url(#clip0_36_562)">
<path d="M42.6048 20.6024C40.9645 20.6024 39.5961 21.7845 39.3043 23.3413L28.5291 27.8171H24.6231C22.9122 27.8171 21.5204 29.1357 21.5204 30.7567V35.8133C21.5204 37.027 22.3007 38.0711 23.411 38.5193V45.1195C23.411 46.8703 24.8354 48.2947 26.5862 48.2947C28.337 48.2947 29.7614 46.8703 29.7614 45.1195V39.2648L39.3043 43.2287C39.5961 44.7855 40.9646 45.9677 42.6048 45.9677C44.457 45.9677 45.9638 44.4609 45.9638 42.6088V38.825C48.437 38.1834 50.2615 35.9115 50.2615 33.285C50.2615 30.6584 48.437 28.3866 45.9638 27.7452V23.9612C45.9638 22.1091 44.457 20.6024 42.6048 20.6024ZM29.7614 29.5303L39.2461 25.5906V40.9797L29.7614 37.0398V29.5303ZM23.5751 30.7567C23.5751 30.2688 24.0451 29.8718 24.6229 29.8718H27.7065V36.698H24.6231C24.0453 36.698 23.5752 36.3011 23.5752 35.8132V30.7567H23.5751ZM26.5862 46.2399C25.9684 46.2399 25.4658 45.7373 25.4658 45.1195V38.7529H27.7065V45.1195C27.7066 45.7373 27.2039 46.2399 26.5862 46.2399ZM43.9089 42.6089C43.9089 43.3279 43.3238 43.913 42.6048 43.913C41.8858 43.913 41.3008 43.3279 41.3008 42.6089V23.9612C41.3008 23.2422 41.8858 22.6572 42.6048 22.6572C43.3238 22.6572 43.9089 23.242 43.9089 23.9612V42.6089ZM48.2068 33.285C48.2068 34.7818 47.2825 36.0989 45.9638 36.6617V29.9085C47.2824 30.471 48.2068 31.7881 48.2068 33.285Z" fill="#0195FF"/>
<path d="M60.5758 52.5673C58.7832 52.5673 57.0817 53.1542 55.6869 54.2339L51.0296 49.5765C54.5346 45.7264 56.4026 40.9088 56.6323 36.0273H60.3652C60.8382 38.2221 62.7934 39.8722 65.1276 39.8722C67.8143 39.8724 70 37.6867 70 35C70 32.3133 67.8143 30.1276 65.1276 30.1276C62.7934 30.1276 60.8383 31.7778 60.3652 33.9726H56.6323C56.4026 29.0912 54.5346 24.2736 51.0296 20.4233L55.6869 15.766C57.0746 16.8399 58.7668 17.4269 60.5495 17.4326H60.553C61.1188 17.4326 61.5784 16.9749 61.5803 16.4086C61.5822 15.8412 61.1237 15.3798 60.5563 15.3779C58.9735 15.3727 57.4853 14.7535 56.366 13.6341C54.0448 11.3128 54.0448 7.53566 56.366 5.21432C57.4905 4.0898 58.9855 3.47061 60.576 3.47061C62.1663 3.47061 63.6613 4.0898 64.7858 5.21432C65.9105 6.33883 66.5297 7.83385 66.5297 9.42416C66.5297 11.0145 65.9105 12.5095 64.7858 13.6341C64.5224 13.8976 64.2348 14.1364 63.9308 14.3443C63.4622 14.6643 63.3421 15.3037 63.6621 15.7721C63.9822 16.2404 64.6215 16.3609 65.09 16.0407C65.4991 15.7611 65.8857 15.4402 66.2389 15.0869C67.7515 13.5743 68.5844 11.5631 68.5844 9.42402C68.5844 7.28492 67.7514 5.27379 66.2389 3.76127C64.7263 2.24875 62.7152 1.41572 60.576 1.41572C58.4367 1.41572 56.4257 2.24875 54.9129 3.76127C52.0369 6.63742 51.8123 11.1739 54.2347 14.3123L49.5768 18.9703C45.7265 15.4652 40.9091 13.5972 36.0276 13.3675V9.63484C38.2223 9.1618 39.8725 7.20658 39.8725 4.87238C39.8724 2.18572 37.6867 0 35 0C32.3133 0 30.1276 2.18572 30.1276 4.87238C30.1276 7.20658 31.7778 9.1618 33.9726 9.63484V13.3677C29.0912 13.5974 24.2736 15.4654 20.4233 18.9704L15.7653 14.3124C18.1877 11.174 17.9631 6.63756 15.0871 3.76141C13.5745 2.24889 11.5634 1.41586 9.4243 1.41586C7.2852 1.41586 5.27406 2.24889 3.76141 3.76141C2.24875 5.27393 1.41572 7.2852 1.41572 9.4243C1.41572 11.5634 2.24875 13.5745 3.76127 15.0872C5.27379 16.5998 7.28492 17.4327 9.42416 17.4327C11.2168 17.4327 12.9183 16.8458 14.3131 15.7661L18.9718 20.425C17.8302 21.6788 16.8398 23.0543 16.0251 24.5294C15.7508 25.0261 15.931 25.651 16.4277 25.9254C16.9243 26.1998 17.5494 26.0195 17.8237 25.5229C18.7097 23.9188 19.8229 22.4416 21.1322 21.1322C28.7786 13.4857 41.221 13.4855 48.8677 21.1322C56.5145 28.779 56.5145 41.221 48.8677 48.8678C41.221 56.5143 28.7789 56.5143 21.1322 48.8678C15.9458 43.6814 14.0904 36.1087 16.2904 29.1048C16.4605 28.5636 16.1595 27.9867 15.6182 27.8168C15.076 27.6467 14.5001 27.9479 14.33 28.489C13.7622 30.2965 13.4422 32.1382 13.3532 33.9727H9.63484C9.1618 31.7779 7.20658 30.1278 4.87238 30.1278C2.18572 30.1276 0 32.3133 0 35C0 37.6867 2.18572 39.8724 4.87238 39.8724C7.20658 39.8724 9.16166 38.2222 9.63484 36.0274H13.3509C13.5826 40.9943 15.525 45.7898 18.9719 49.5752L14.3132 54.2339C12.9184 53.1542 11.217 52.5673 9.4243 52.5673C7.28506 52.5673 5.27406 53.4003 3.76141 54.9129C2.24875 56.4256 1.41586 58.4366 1.41586 60.5757C1.41586 62.7148 2.24889 64.7259 3.76141 66.2386C5.27393 67.7513 7.2852 68.5841 9.4243 68.5841C9.99182 68.5841 10.4517 68.1241 10.4517 67.5567C10.4517 66.9893 9.99182 66.5293 9.4243 66.5293C7.83398 66.5293 6.33883 65.9099 5.21445 64.7855C4.0898 63.661 3.47061 62.166 3.47061 60.5756C3.47061 58.9853 4.0898 57.4902 5.21445 56.3657C6.33883 55.2412 7.83398 54.622 9.4243 54.622C11.0146 54.622 12.5096 55.2412 13.6343 56.3657C15.9555 58.6871 15.9555 62.4642 13.6344 64.7854C13.3481 65.0716 13.0337 65.3286 12.6995 65.5491C12.2259 65.8618 12.0955 66.499 12.4082 66.9725C12.7207 67.4461 13.3581 67.5765 13.8316 67.264C14.2808 66.9674 14.7033 66.6224 15.0873 66.2385C17.9633 63.3622 18.188 58.8257 15.7656 55.6875L20.4236 51.0295C24.2739 54.5345 29.0914 56.4025 33.9728 56.6322V60.365C31.7781 60.8381 30.1279 62.7933 30.1279 65.1275C30.1276 67.8143 32.3133 70 35 70C37.6867 70 39.8724 67.8143 39.8724 65.1276C39.8724 62.7934 38.2222 60.8382 36.0274 60.3652V56.6323C40.9088 56.4026 45.7264 54.5346 49.5767 51.0296L54.2346 55.6876C51.8122 58.826 52.0368 63.3624 54.9128 66.2386C56.4256 67.7513 58.4366 68.5841 60.5758 68.5841C62.7151 68.5841 64.7261 67.7511 66.2387 66.2386C67.7514 64.7261 68.5843 62.7149 68.5843 60.5758C68.5843 58.4367 67.7513 56.4256 66.2387 54.9129C64.7262 53.4003 62.7149 52.5673 60.5758 52.5673ZM32.1824 4.87238C32.1824 3.31871 33.4463 2.05475 35 2.05475C36.5537 2.05475 37.8176 3.31871 37.8176 4.87238C37.8176 6.42605 36.5537 7.69002 35 7.69002C33.4463 7.69002 32.1824 6.42605 32.1824 4.87238ZM5.21445 13.6341C4.0898 12.5096 3.47061 11.0146 3.47061 9.42416C3.47061 7.83385 4.0898 6.33883 5.21445 5.21432C6.33883 4.0898 7.83398 3.47061 9.4243 3.47061C11.0146 3.47061 12.5096 4.0898 13.6343 5.21432C15.9555 7.53566 15.9555 11.3128 13.6343 13.6341C12.5098 14.7587 11.0147 15.3779 9.4243 15.3779C7.83385 15.3779 6.33883 14.7587 5.21445 13.6341ZM65.1276 32.1824C66.6813 32.1824 67.9453 33.4463 67.9453 35C67.9453 36.5537 66.6813 37.8176 65.1276 37.8176C63.5739 37.8176 62.31 36.5537 62.31 35C62.31 33.4463 63.5739 32.1824 65.1276 32.1824ZM4.87238 37.8176C3.31871 37.8176 2.05475 36.5537 2.05475 35C2.05475 33.4463 3.31871 32.1824 4.87238 32.1824C6.42605 32.1824 7.69002 33.4465 7.69002 35C7.69002 36.5535 6.42605 37.8176 4.87238 37.8176ZM37.8176 65.1276C37.8176 66.6812 36.5537 67.9453 35 67.9453C33.4463 67.9453 32.1824 66.6813 32.1824 65.1276C32.1824 63.5739 33.4463 62.31 35 62.31C36.5537 62.31 37.8176 63.5739 37.8176 65.1276ZM64.7855 64.7857C63.6612 65.9102 62.166 66.5294 60.5757 66.5294C58.9854 66.5294 57.4902 65.9102 56.3657 64.7857C54.0445 62.4643 54.0445 58.6872 56.3657 56.3659C57.4902 55.2413 58.9853 54.6221 60.5757 54.6221C62.166 54.6221 63.661 55.2413 64.7855 56.3659C65.9102 57.4904 66.5294 58.9854 66.5294 60.5758C66.5295 62.166 65.9102 63.661 64.7855 64.7857Z" fill="#0195FF"/>
</g>
<defs>
<clipPath id="clip0_36_562">
<rect width="70" height="70" fill="white"/>
</clipPath>
</defs>
</svg>
