<svg width="70" height="70" viewBox="0 0 70 70" fill="none" xmlns="http://www.w3.org/2000/svg">
<g clip-path="url(#clip0_36_517)">
<path d="M62.1543 20.9386V8.86918C62.1543 7.52728 61.0626 6.43541 59.7206 6.43541H56.9967C55.8618 6.43541 54.9087 7.21736 54.6407 8.27L43.6016 15.6707C39.9669 18.1075 35.7326 19.3955 31.3567 19.3955H9.61928C4.31511 19.3956 0 23.7109 0 29.015V33.8502C0 38.3135 3.05591 42.0759 7.1851 43.1567V45.2878C7.1851 45.854 7.64402 46.3131 8.21039 46.3131C8.77676 46.3131 9.23568 45.854 9.23568 45.2878V43.4597C9.36309 43.4648 9.49064 43.4694 9.61941 43.4694H12.0558H12.0571C12.0571 43.4694 12.058 43.4694 12.0585 43.4694H16.7233H16.7247C16.7247 43.4694 16.7255 43.4694 16.726 43.4694H18.6757L14.8889 48.5535C14.5241 49.0433 14.3232 49.6494 14.3232 50.26V60.737C14.3232 61.1654 13.9746 61.514 13.5461 61.514H10.0126C9.58414 61.514 9.23554 61.1654 9.23554 60.737V49.6571C9.23554 49.0909 8.77662 48.6319 8.21025 48.6319C7.64388 48.6319 7.18496 49.0909 7.18496 49.6571V60.737C7.18496 62.2961 8.45332 63.5646 10.0126 63.5646H13.5461C15.1053 63.5646 16.3738 62.2961 16.3738 60.737V50.26C16.3738 50.0876 16.4305 49.9165 16.5333 49.7784L21.2325 43.4694H22.7307C23.2971 43.4694 23.756 43.0104 23.756 42.4442C23.756 41.8779 23.2971 41.4189 22.7307 41.4189H17.7498V21.4462H31.3567C36.1408 21.4462 40.7699 20.038 44.7437 17.374L54.5631 10.791V52.0742L50.2874 49.2077C49.8168 48.8924 49.18 49.0179 48.8648 49.4883C48.5494 49.9586 48.6751 50.5955 49.1455 50.9109L54.6409 54.5951C54.9088 55.6477 55.8621 56.4297 56.9969 56.4297H59.7207C61.0626 56.4297 62.1545 55.3379 62.1545 53.996V41.9265C66.5645 41.4163 70.0001 37.6612 70.0001 33.1167V29.7485C70 25.204 66.5643 21.4488 62.1543 20.9386ZM2.05058 33.85V29.0149C2.05058 24.8414 5.44593 21.4461 9.61928 21.4461H11.0317V41.4187H9.61928C5.44593 41.4189 2.05058 38.0235 2.05058 33.85ZM15.6992 41.4189H13.0823V21.4462H15.6992V41.4189ZM67.9494 33.1166C67.9494 36.5288 65.4305 39.3636 62.1543 39.8596V30.4131C62.1543 29.8469 61.6954 29.3878 61.1291 29.3878C60.5627 29.3878 60.1038 29.8469 60.1038 30.4131V53.9959C60.1038 54.2071 59.9319 54.3789 59.7206 54.3789H56.9967C56.7854 54.3789 56.6135 54.2071 56.6135 53.9959V53.9956C56.6135 53.9941 56.6135 53.9926 56.6135 53.9911V8.87396C56.6135 8.87246 56.6135 8.87095 56.6135 8.86945V8.86918C56.6135 8.65797 56.7854 8.48599 56.9967 8.48599H59.7206C59.9319 8.48599 60.1038 8.65783 60.1038 8.86918V26.0437C60.1038 26.61 60.5627 27.069 61.1291 27.069C61.6954 27.069 62.1543 26.61 62.1543 26.0437V23.0053C65.4304 23.5014 67.9494 26.3362 67.9494 29.7485V33.1166Z" fill="#0195FF"/>
<path d="M50.5375 39.7728C50.5375 32.891 44.9387 27.2923 38.0569 27.2923C31.175 27.2923 25.5762 32.891 25.5762 39.7728C25.5762 43.7919 27.4864 47.3729 30.4461 49.6571V61.1081C30.4461 61.714 30.7244 62.2695 31.2096 62.6321C31.695 62.9949 32.3063 63.1044 32.8875 62.9329L38.0567 61.4063L43.2261 62.9329C43.406 62.9861 43.5889 63.0122 43.7702 63.0122C44.1739 63.0122 44.569 62.8824 44.9039 62.6321C45.3891 62.2695 45.6674 61.7139 45.6674 61.1081V57.5892C45.6674 57.023 45.2085 56.5639 44.6421 56.5639C44.0757 56.5639 43.6168 57.023 43.6168 57.5892V60.9103L38.5958 59.4275C38.2428 59.323 37.8698 59.323 37.5177 59.4273L32.4964 60.9103V50.9442C34.1717 51.7814 36.0599 52.2536 38.0566 52.2536C40.0533 52.2536 41.9415 51.7816 43.6168 50.9442V53.2197C43.6168 53.7859 44.0757 54.245 44.6421 54.245C45.2085 54.245 45.6674 53.7859 45.6674 53.2197V49.6571C48.6272 47.3729 50.5375 43.7919 50.5375 39.7728ZM27.6268 39.7728C27.6268 34.0217 32.3058 29.3429 38.0569 29.3429C43.8079 29.3429 48.4869 34.0217 48.4869 39.7728C48.4869 45.524 43.8079 50.2029 38.0569 50.2029C32.3058 50.2029 27.6268 45.524 27.6268 39.7728Z" fill="#0195FF"/>
<path d="M43.2331 35.8394H40.4636L39.5995 33.9054C39.3237 33.2883 38.7326 32.9051 38.0569 32.9051C37.3811 32.9051 36.7899 33.2885 36.5143 33.9054L35.6502 35.8394H32.8807C32.2197 35.8394 31.634 36.2108 31.3523 36.8086C31.0704 37.4066 31.1568 38.0945 31.5773 38.6042L33.581 41.0324L32.5746 44.0924C32.3445 44.7914 32.5759 45.5287 33.1641 45.9709C33.4688 46.2 33.8231 46.3153 34.1784 46.3153C34.5087 46.3153 34.8398 46.2156 35.1325 46.0157L38.0569 44.0181L40.9813 46.0157C41.5889 46.4308 42.3616 46.4133 42.9494 45.9712C43.5377 45.5291 43.7691 44.7917 43.5392 44.0927L42.5326 41.0325L44.5363 38.6042C44.9568 38.0945 45.0431 37.4063 44.7613 36.8086C44.4794 36.2107 43.8939 35.8394 43.2331 35.8394ZM40.8241 39.8812C40.4529 40.3312 40.3403 40.9306 40.5225 41.4842L41.2585 43.7218L39.01 42.1858C39.01 42.1858 39.0098 42.1858 39.0098 42.1857C38.431 41.7903 37.683 41.7903 37.1039 42.1858L34.8554 43.7218L35.5913 41.4845C35.7736 40.9306 35.661 40.3312 35.2897 39.8811L33.6466 37.8901H35.8843C36.5501 37.8901 37.1557 37.4973 37.4269 36.8898L38.0569 35.4798L38.6867 36.8895C38.958 37.4975 39.5636 37.8902 40.2294 37.8902H42.4671L40.8241 39.8812Z" fill="#0195FF"/>
</g>
<defs>
<clipPath id="clip0_36_517">
<rect width="70" height="70" fill="white"/>
</clipPath>
</defs>
</svg>
