<svg width="70" height="70" viewBox="0 0 70 70" fill="none" xmlns="http://www.w3.org/2000/svg">
<path d="M55.166 2.46094H14.834C13.8372 2.46206 12.8815 2.85854 12.1767 3.56339C11.4718 4.26824 11.0753 5.2239 11.0742 6.2207V58.1738C11.0753 59.1706 11.4718 60.1263 12.1767 60.8311C12.8815 61.536 13.8372 61.9325 14.834 61.9336H23.7385C24.0104 61.9336 24.2712 61.8256 24.4635 61.6333C24.6558 61.441 24.7639 61.1802 24.7639 60.9082C24.7639 60.6363 24.6558 60.3754 24.4635 60.1831C24.2712 59.9908 24.0104 59.8828 23.7385 59.8828H14.834C14.3809 59.8823 13.9465 59.7021 13.6261 59.3817C13.3057 59.0613 13.1255 58.6269 13.125 58.1738V6.2207C13.1255 5.76761 13.3057 5.33322 13.6261 5.01283C13.9465 4.69244 14.3809 4.51223 14.834 4.51172H55.166C55.6191 4.51223 56.0535 4.69244 56.3739 5.01283C56.6943 5.33322 56.8745 5.76761 56.875 6.2207V58.1738C56.8745 58.6269 56.6943 59.0613 56.3739 59.3817C56.0535 59.7021 55.6191 59.8823 55.166 59.8828H50.0717C50.3713 59.0028 50.5176 57.9865 50.5176 56.2734V52.3633H51.748C52.3824 52.3625 52.9905 52.1102 53.439 51.6617C53.8875 51.2131 54.1399 50.605 54.1406 49.9707V18.8908C54.1406 18.6189 54.0326 18.3581 53.8403 18.1658C53.648 17.9735 53.3872 17.8654 53.1152 17.8654C52.8433 17.8654 52.5825 17.9735 52.3902 18.1658C52.1979 18.3581 52.0898 18.6189 52.0898 18.8908V49.9707C52.0898 50.0614 52.0538 50.1483 51.9897 50.2124C51.9256 50.2765 51.8387 50.3125 51.748 50.3125H50.5176V46.7865C50.5048 45.7689 50.0952 44.7965 49.3759 44.0765C48.6567 43.3565 47.6848 42.9459 46.6672 42.932C46.6469 42.932 46.6262 42.932 46.6066 42.932C45.9583 42.9429 45.324 43.1219 44.7657 43.4515C44.589 42.7524 44.2228 42.1156 43.7073 41.6113C43.3438 41.2534 42.913 40.9709 42.4398 40.7803C41.9666 40.5897 41.4603 40.4947 40.9501 40.5007C40.1255 40.5197 39.3298 40.8091 38.6857 41.3243C38.4174 40.8792 38.0636 40.4915 37.6448 40.1837C37.1654 39.8265 36.608 39.5883 36.0185 39.489C35.4289 39.3896 34.8242 39.4318 34.2542 39.6121C34.0282 39.6827 33.8092 39.7743 33.6001 39.8855V33.7955C33.6003 33.4089 33.541 33.0246 33.4243 32.6561C35.9597 33.0418 38.549 32.4968 40.7138 31.1218C42.8786 29.7467 44.4725 27.6346 45.201 25.1757C45.9295 22.7168 45.7434 20.0773 44.677 17.7449C43.6106 15.4126 41.7361 13.5451 39.3998 12.4874C37.0634 11.4298 34.4232 11.2536 31.9671 11.9913C29.5109 12.729 27.4048 14.3308 26.0379 16.5008C24.671 18.6707 24.1357 21.262 24.5309 23.7959C24.9261 26.3299 26.2252 28.6351 28.188 30.2857C27.5073 30.6037 26.9314 31.1093 26.5279 31.7431C26.1243 32.3768 25.9098 33.1125 25.9096 33.8639V47.2181C24.548 46.4244 23.1287 46.2824 21.7931 46.808C21.3109 46.9994 20.8751 47.2916 20.5148 47.6649C20.1545 48.0383 19.8781 48.4842 19.7039 48.9729C19.5499 49.4024 19.4753 49.8563 19.4838 50.3125H18.252C18.1613 50.3125 18.0744 50.2765 18.0103 50.2124C17.9462 50.1483 17.9102 50.0614 17.9102 49.9707V9.63867C17.9102 9.54802 17.9462 9.46108 18.0103 9.39698C18.0744 9.33289 18.1613 9.29688 18.252 9.29688H51.748C51.8387 9.29688 51.9256 9.33289 51.9897 9.39698C52.0538 9.46108 52.0898 9.54802 52.0898 9.63867V14.7893C52.0898 15.0612 52.1979 15.322 52.3902 15.5143C52.5825 15.7066 52.8433 15.8147 53.1152 15.8147C53.3872 15.8147 53.648 15.7066 53.8403 15.5143C54.0326 15.322 54.1406 15.0612 54.1406 14.7893V9.63867C54.1399 9.00434 53.8876 8.3962 53.4391 7.94766C52.9905 7.49912 52.3824 7.24682 51.748 7.24609H18.252C17.6176 7.24682 17.0095 7.49912 16.5609 7.94766C16.1124 8.3962 15.8601 9.00434 15.8594 9.63867V49.9707C15.8601 50.605 16.1125 51.2131 16.561 51.6617C17.0095 52.1102 17.6176 52.3625 18.252 52.3633H20.1493L28.0451 64.0134V66.5137C28.0451 66.7856 28.1532 67.0464 28.3454 67.2387C28.5377 67.431 28.7986 67.5391 29.0705 67.5391H47.0217C47.2936 67.5391 47.5544 67.431 47.7467 67.2387C47.939 67.0464 48.0471 66.7856 48.0471 66.5137V64.1949C48.0476 64.1463 48.058 64.0983 48.0774 64.0537C48.4682 63.143 48.8035 62.4943 49.1028 61.9336H55.166C56.1628 61.9324 57.1185 61.5359 57.8233 60.8311C58.5281 60.1263 58.9246 59.1706 58.9258 58.1738V6.2207C58.9247 5.2239 58.5282 4.26824 57.8233 3.56339C57.1185 2.85854 56.1628 2.46206 55.166 2.46094ZM26.4551 22.1782C26.4551 20.4882 26.9562 18.8361 27.8952 17.4309C28.8341 16.0257 30.1686 14.9305 31.73 14.2838C33.2914 13.637 35.0095 13.4678 36.667 13.7975C38.3246 14.1272 39.8471 14.941 41.0422 16.1361C42.2372 17.3311 43.051 18.8537 43.3807 20.5112C43.7104 22.1688 43.5412 23.8869 42.8945 25.4482C42.2477 27.0096 41.1525 28.3442 39.7473 29.2831C38.3421 30.222 36.69 30.7232 35 30.7232C32.7345 30.7206 30.5626 29.8195 28.9607 28.2176C27.3587 26.6156 26.4576 24.4437 26.4551 22.1782ZM47.4258 60.7205C47.092 61.343 46.6766 62.1176 46.1926 63.2454C46.0632 63.5452 45.9964 63.8684 45.9963 64.1949V65.4883H30.0959V63.6986C30.0959 63.4935 30.0344 63.2931 29.9193 63.1233L21.7273 51.0363C21.618 50.8269 21.5532 50.5971 21.5371 50.3614C21.5211 50.1257 21.554 49.8892 21.634 49.6669C21.7082 49.4522 21.8281 49.2561 21.9853 49.092C22.1425 48.928 22.3334 48.8 22.5448 48.7167C23.3052 48.4172 24.1153 48.5241 24.9524 49.035C25.3945 49.3085 25.7923 49.6478 26.1321 50.0411C26.2645 50.2077 26.4454 50.329 26.6498 50.3881C26.8541 50.4473 27.0718 50.4415 27.2727 50.3714C27.4736 50.3013 27.6477 50.1705 27.7709 49.997C27.8941 49.8236 27.9603 49.6161 27.9604 49.4033V33.8639C27.9604 32.8515 28.7492 32.0116 29.7181 31.9919C30.1981 31.995 30.6579 32.1852 30.9998 32.522C31.3417 32.8588 31.5388 33.3157 31.5492 33.7955V43.359C31.5492 43.6309 31.6573 43.8917 31.8495 44.084C32.0418 44.2763 32.3027 44.3844 32.5746 44.3844C32.8466 44.3844 33.1074 44.2763 33.2997 44.084C33.492 43.8917 33.6 43.6309 33.6 43.359C33.5954 42.9655 33.7154 42.5805 33.9427 42.2593C34.1701 41.9381 34.4932 41.6969 34.8659 41.5704C35.1289 41.4865 35.4083 41.4669 35.6805 41.5133C35.9527 41.5597 36.2098 41.6708 36.4302 41.8372C36.6613 42.0037 36.8502 42.222 36.9817 42.4746C37.1132 42.7273 37.1837 43.0072 37.1875 43.292V44.424C37.1875 44.696 37.2955 44.9568 37.4878 45.1491C37.6801 45.3414 37.9409 45.4494 38.2129 45.4494C38.4848 45.4494 38.7457 45.3414 38.938 45.1491C39.1303 44.9568 39.2383 44.696 39.2383 44.424C39.2383 43.4123 40.0258 42.5727 40.9937 42.5522C41.474 42.5549 41.9342 42.7449 42.2766 43.0817C42.619 43.4185 42.8165 43.8755 42.8271 44.3557V46.8521C42.8271 47.1241 42.9352 47.3849 43.1275 47.5772C43.3198 47.7695 43.5806 47.8775 43.8525 47.8775C44.1245 47.8775 44.3853 47.7695 44.5776 47.5772C44.7699 47.3849 44.8779 47.1241 44.8779 46.8521C44.8779 45.8378 45.6688 44.9993 46.6416 44.9831C47.1198 44.99 47.5767 45.1816 47.9169 45.5177C48.2571 45.8538 48.4541 46.3085 48.4668 46.7865V56.2734C48.4668 58.7792 48.162 59.3476 47.4258 60.7205Z" fill="#0195FF"/>
<path d="M35 28.9458C36.5561 28.9451 38.0682 28.4293 39.3004 27.4789C40.5325 26.5284 41.4153 25.1968 41.8111 23.6919C41.8472 23.561 41.8571 23.4242 41.84 23.2895C41.8229 23.1548 41.7793 23.0248 41.7116 22.9071C41.6438 22.7895 41.5534 22.6864 41.4456 22.6039C41.3377 22.5214 41.2145 22.4612 41.0832 22.4267C40.9518 22.3922 40.815 22.3842 40.6805 22.403C40.546 22.4219 40.4166 22.4672 40.2998 22.5365C40.183 22.6057 40.0812 22.6975 40.0001 22.8064C39.919 22.9154 39.8604 23.0393 39.8277 23.1711C39.5476 24.238 38.922 25.1821 38.0485 25.8558C37.1751 26.5295 36.1031 26.8949 35.0001 26.8949C33.897 26.8949 32.825 26.5295 31.9516 25.8558C31.0782 25.1821 30.4525 24.238 30.1725 23.1711C30.1034 22.908 29.9327 22.6832 29.6979 22.546C29.4631 22.4088 29.1834 22.3705 28.9203 22.4396C28.6573 22.5086 28.4324 22.6793 28.2952 22.9141C28.1581 23.149 28.1198 23.4287 28.1888 23.6917C28.5846 25.1967 29.4675 26.5283 30.6996 27.4787C31.9317 28.4292 33.4439 28.9451 35 28.9458Z" fill="#0195FF"/>
<path d="M37.7344 21.6523C38.0063 21.6523 38.2671 21.5443 38.4594 21.352C38.6517 21.1597 38.7598 20.8988 38.7598 20.6269V19.2597C38.7598 18.9878 38.6517 18.7269 38.4594 18.5346C38.2671 18.3423 38.0063 18.2343 37.7344 18.2343C37.4624 18.2343 37.2016 18.3423 37.0093 18.5346C36.817 18.7269 36.709 18.9878 36.709 19.2597V20.6269C36.709 20.8988 36.817 21.1597 37.0093 21.352C37.2016 21.5443 37.4624 21.6523 37.7344 21.6523Z" fill="#0195FF"/>
<path d="M32.2656 21.6523C32.4003 21.6523 32.5336 21.6258 32.658 21.5742C32.7824 21.5227 32.8955 21.4472 32.9907 21.352C33.0859 21.2567 33.1614 21.1437 33.213 21.0193C33.2645 20.8949 33.291 20.7615 33.291 20.6269V19.2597C33.291 18.9878 33.183 18.7269 32.9907 18.5346C32.7984 18.3423 32.5376 18.2343 32.2656 18.2343C31.9937 18.2343 31.7329 18.3423 31.5406 18.5346C31.3483 18.7269 31.2402 18.9878 31.2402 19.2597V20.6269C31.2402 20.8988 31.3483 21.1597 31.5406 21.352C31.7329 21.5443 31.9937 21.6523 32.2656 21.6523Z" fill="#0195FF"/>
</svg>
