<svg width="70" height="70" viewBox="0 0 70 70" fill="none" xmlns="http://www.w3.org/2000/svg">
<g clip-path="url(#clip0_36_547)">
<mask id="mask0_36_547" style="mask-type:luminance" maskUnits="userSpaceOnUse" x="0" y="0" width="70" height="70">
<path d="M0 7.62939e-06H70V70H0V7.62939e-06Z" fill="white"/>
</mask>
<g mask="url(#mask0_36_547)">
<path d="M41.1523 27.6855C41.1523 31.0834 38.3979 33.8379 35 33.8379C31.6021 33.8379 28.8477 31.0834 28.8477 27.6855C28.8477 24.2877 31.6021 21.5332 35 21.5332C38.3979 21.5332 41.1523 24.2877 41.1523 27.6855Z" stroke="#0195FF" stroke-width="2" stroke-miterlimit="10" stroke-linecap="round" stroke-linejoin="round"/>
<path d="M42.1783 37.9395H27.8217C25.5659 37.9395 23.7202 39.7852 23.7202 42.041V42.3577C26.1242 46.0359 30.2779 48.4668 35 48.4668C39.7221 48.4668 43.8758 46.0359 46.2798 42.3577V42.041C46.2798 39.7852 44.4341 37.9395 42.1783 37.9395Z" stroke="#0195FF" stroke-width="2" stroke-miterlimit="10" stroke-linecap="round" stroke-linejoin="round"/>
<path d="M68.3739 33.5499L64.0134 29.1894C63.2127 28.3886 61.9141 28.3886 61.1133 29.1894C60.3124 29.9903 60.3124 31.2887 61.1133 32.0896L61.9729 32.9492H56.5728C56.1554 28.5047 54.397 24.4502 51.7045 21.1957L55.5228 17.3775V18.5932C55.5228 19.7256 56.441 20.6438 57.5736 20.6438C58.7061 20.6438 59.6243 19.7256 59.6243 18.593V12.4265C59.6243 11.2939 58.7061 10.3757 57.5736 10.3757H51.4069C50.2743 10.3757 49.3562 11.2939 49.3562 12.4265C49.3562 13.559 50.2743 14.4772 51.4069 14.4772H52.6226L48.8043 18.2955C45.55 15.6031 41.4953 13.8446 37.0508 13.4274V8.02712L37.9104 8.88667C38.7112 9.68757 40.0097 9.68757 40.8106 8.88667C41.6114 8.08591 41.6114 6.78736 40.8106 5.9866L36.4501 1.62609C35.6493 0.825188 34.3508 0.825188 33.5499 1.62609L29.1895 5.9866C28.3886 6.78736 28.3886 8.08591 29.1895 8.88667C29.9903 9.68757 31.2888 9.68757 32.0896 8.88667L32.9493 8.02712V13.4274C28.5047 13.8446 24.4502 15.6031 21.1957 18.2955L17.3774 14.4772H18.5931C19.7257 14.4772 20.6438 13.559 20.6438 12.4265C20.6438 11.2939 19.7257 10.3757 18.5931 10.3757H12.4264C11.2939 10.3757 10.3757 11.2939 10.3757 12.4265V18.593C10.3757 19.7256 11.2939 20.6438 12.4264 20.6438C13.559 20.6438 14.4772 19.7256 14.4772 18.5932V17.3775L18.2955 21.1957C15.6031 24.4502 13.8446 28.5047 13.4272 32.9492H8.0271L8.88679 32.0896C9.68755 31.2887 9.68755 29.9903 8.88679 29.1894C8.08589 28.3886 6.78734 28.3886 5.98657 29.1894L1.62606 33.5499C0.825166 34.3507 0.825166 35.6492 1.62606 36.4501L5.98657 40.8105C6.78734 41.6114 8.08589 41.6114 8.88679 40.8105C9.68755 40.0097 9.68755 38.7112 8.88679 37.9104L8.0271 37.0507H13.4272C13.8446 41.4953 15.6031 45.5499 18.2955 48.8043L14.4772 52.6226V51.4069C14.4772 50.2743 13.559 49.3562 12.4264 49.3562C11.2939 49.3562 10.3757 50.2744 10.3757 51.407V57.5736C10.3757 58.7062 11.2939 59.6244 12.4264 59.6244H18.5931C19.7257 59.6244 20.6438 58.7062 20.6438 57.5736C20.6438 56.441 19.7257 55.5228 18.5931 55.5228H17.3774L21.1957 51.7045C24.4502 54.3969 28.5047 56.1554 32.9493 56.5727V61.9729L32.0896 61.1132C31.2888 60.3125 29.9903 60.3125 29.1895 61.1132C28.3886 61.9141 28.3886 63.2125 29.1895 64.0134L33.5499 68.374C34.3508 69.1748 35.6493 69.1748 36.4501 68.374L40.8106 64.0134C41.6114 63.2125 41.6114 61.9141 40.8106 61.1132C40.0097 60.3125 38.7112 60.3125 37.9104 61.1132L37.0508 61.9729V56.5727C41.4953 56.1554 45.55 54.3969 48.8043 51.7045L52.6226 55.5228H51.4069C50.2743 55.5228 49.3562 56.441 49.3562 57.5736C49.3562 58.7062 50.2743 59.6244 51.4069 59.6244H57.5736C58.7061 59.6244 59.6243 58.7062 59.6243 57.5736V51.407C59.6243 50.2744 58.7061 49.3562 57.5736 49.3562C56.441 49.3562 55.5228 50.2743 55.5228 51.4069V52.6226L51.7045 48.8043C54.397 45.5499 56.1554 41.4953 56.5728 37.0507H61.9729L61.1133 37.9104C60.3124 38.7112 60.3124 40.0097 61.1133 40.8105C61.9141 41.6114 63.2127 41.6114 64.0134 40.8105L68.3739 36.4501C69.1748 35.6492 69.1748 34.3507 68.3739 33.5499Z" stroke="#0195FF" stroke-width="2" stroke-miterlimit="10" stroke-linecap="round" stroke-linejoin="round"/>
<path d="M18.0912 30.2159C17.6617 31.7369 17.4317 33.3416 17.4317 35C17.4317 44.7028 25.2973 52.5683 35.0001 52.5683C44.7029 52.5683 52.5684 44.7028 52.5684 35C52.5684 25.2972 44.7029 17.4316 35.0001 17.4316C28.4106 17.4316 22.6694 21.0601 19.663 26.4274" stroke="#0195FF" stroke-width="2" stroke-miterlimit="10" stroke-linecap="round" stroke-linejoin="round"/>
</g>
</g>
<defs>
<clipPath id="clip0_36_547">
<rect width="70" height="70" fill="white"/>
</clipPath>
</defs>
</svg>
