<svg width="70" height="70" viewBox="0 0 70 70" fill="none" xmlns="http://www.w3.org/2000/svg">
<path d="M48.7266 56.0875C44.9536 58.5402 40.59 59.932 36.0938 60.1169V56.875C36.0938 56.5849 35.9785 56.3067 35.7734 56.1016C35.5683 55.8965 35.2901 55.7812 35 55.7812C34.7099 55.7812 34.4317 55.8965 34.2266 56.1016C34.0215 56.3067 33.9062 56.5849 33.9062 56.875V60.1267C27.6275 59.8314 21.6847 57.2046 17.2401 52.7599C12.7954 48.3153 10.1686 42.3725 9.87328 36.0937H13.125C13.4151 36.0937 13.6933 35.9785 13.8984 35.7734C14.1035 35.5683 14.2188 35.2901 14.2188 35C14.2188 34.7099 14.1035 34.4317 13.8984 34.2266C13.6933 34.0215 13.4151 33.9062 13.125 33.9062H9.89078C9.99073 31.3253 10.4915 28.7755 11.375 26.3484C11.4264 26.2136 11.4501 26.0698 11.4447 25.9257C11.4394 25.7815 11.4051 25.6399 11.3438 25.5092C11.2826 25.3786 11.1957 25.2616 11.0883 25.1653C10.9809 25.0689 10.8552 24.9952 10.7188 24.9484C10.4473 24.852 10.149 24.8656 9.8874 24.9861C9.62582 25.1067 9.42175 25.3248 9.31875 25.5937V25.6047C8.34934 28.2703 7.80422 31.0716 7.70328 33.9062H4.375C4.08492 33.9062 3.80672 34.0215 3.6016 34.2266C3.39648 34.4317 3.28125 34.7099 3.28125 35C3.28125 35.2901 3.39648 35.5683 3.6016 35.7734C3.80672 35.9785 4.08492 36.0937 4.375 36.0937H7.68359C7.96828 42.9572 10.8224 49.4629 15.6798 54.3202C20.5371 59.1776 27.0428 62.0317 33.9062 62.3164V65.625C33.9062 65.9151 34.0215 66.1933 34.2266 66.3984C34.4317 66.6035 34.7099 66.7187 35 66.7187C35.2901 66.7187 35.5683 66.6035 35.7734 66.3984C35.9785 66.1933 36.0938 65.9151 36.0938 65.625V62.3044C41.0146 62.1199 45.793 60.6024 49.9187 57.9141C50.1603 57.7554 50.3292 57.5076 50.3887 57.2248C50.4481 56.942 50.3932 56.6471 50.2359 56.4047C50.0741 56.167 49.8266 56.0011 49.5452 55.942C49.2637 55.8829 48.9704 55.935 48.7266 56.0875Z" fill="#0195FF"/>
<path d="M65.625 33.9062H62.3164C62.0332 27.0423 59.1796 20.5358 54.3219 15.6781C49.4643 10.8204 42.9577 7.96679 36.0938 7.68359V4.375C36.0938 4.08492 35.9785 3.80672 35.7734 3.6016C35.5683 3.39648 35.2901 3.28125 35 3.28125C34.7099 3.28125 34.4317 3.39648 34.2266 3.6016C34.0215 3.80672 33.9063 4.08492 33.9063 4.375V7.68797C29.9551 7.83092 26.0833 8.83899 22.5641 10.6411C18.8533 12.5526 15.6228 15.2784 13.1141 18.6145C12.94 18.8466 12.8653 19.1383 12.9063 19.4255C12.9473 19.7126 13.1008 19.9717 13.3328 20.1458C13.5674 20.3127 13.8572 20.3831 14.1422 20.3424C14.4272 20.3017 14.6856 20.153 14.8641 19.927C17.0851 16.9349 19.9486 14.4788 23.244 12.7393C26.5394 10.9998 30.1828 10.0212 33.9063 9.87547V13.125C33.9063 13.4151 34.0215 13.6933 34.2266 13.8984C34.4317 14.1035 34.7099 14.2187 35 14.2187C35.2901 14.2187 35.5683 14.1035 35.7734 13.8984C35.9785 13.6933 36.0938 13.4151 36.0938 13.125V9.87328C42.3725 10.1686 48.3153 12.7954 52.7599 17.2401C57.2046 21.6847 59.8314 27.6275 60.1267 33.9062H56.875C56.5849 33.9062 56.3067 34.0215 56.1016 34.2266C55.8965 34.4317 55.7813 34.7099 55.7813 35C55.7813 35.2901 55.8965 35.5683 56.1016 35.7734C56.3067 35.9785 56.5849 36.0937 56.875 36.0937H60.1081C59.8741 41.6585 57.7963 46.9876 54.2019 51.2422C54.0168 51.465 53.9268 51.7516 53.9514 52.0402C53.976 52.3288 54.1131 52.5961 54.3331 52.7844C54.439 52.8816 54.5636 52.9562 54.6993 53.0036C54.835 53.0509 54.979 53.0701 55.1223 53.0598C55.2657 53.0496 55.4055 53.0102 55.5331 52.944C55.6607 52.8778 55.7734 52.7863 55.8644 52.675C55.8644 52.6641 55.8644 52.6641 55.8753 52.6641C59.7976 48.0077 62.0567 42.1772 62.2956 36.0937H65.625C65.9151 36.0937 66.1933 35.9785 66.3984 35.7734C66.6035 35.5683 66.7188 35.2901 66.7188 35C66.7188 34.7099 66.6035 34.4317 66.3984 34.2266C66.1933 34.0215 65.9151 33.9062 65.625 33.9062Z" fill="#0195FF"/>
<path d="M47.3189 34.638C47.8315 34.1592 48.2404 33.5802 48.5201 32.937C48.7999 32.2937 48.9446 31.5999 48.9453 30.8984C48.9436 29.5211 48.3957 28.2006 47.4217 27.2267C46.4478 26.2528 45.1273 25.7049 43.75 25.7031C42.7195 25.7054 41.7135 26.0183 40.8636 26.6011C40.3208 25.5102 39.4845 24.5924 38.4486 23.9508C37.4127 23.3092 36.2184 22.9693 35 22.9693C33.7816 22.9693 32.5873 23.3092 31.5514 23.9508C30.5155 24.5924 29.6792 25.5102 29.1364 26.6011C28.2865 26.0183 27.2805 25.7054 26.25 25.7031C24.8727 25.7049 23.5522 26.2528 22.5783 27.2267C21.6043 28.2006 21.0564 29.5211 21.0547 30.8984C21.0554 31.5999 21.2001 32.2937 21.4799 32.937C21.7596 33.5802 22.1685 34.1592 22.6811 34.638C20.9882 35.3418 19.5411 36.5304 18.522 38.0544C17.5028 39.5784 16.957 41.3697 16.9531 43.2031C16.9531 43.4932 17.0684 43.7714 17.2735 43.9765C17.4786 44.1816 17.7568 44.2969 18.0469 44.2969H23.088C23.0111 44.8404 22.9712 45.3885 22.9688 45.9375C22.9688 46.2276 23.084 46.5058 23.2891 46.7109C23.4942 46.916 23.7724 47.0312 24.0625 47.0312H45.9375C46.2276 47.0312 46.5058 46.916 46.7109 46.7109C46.916 46.5058 47.0312 46.2276 47.0312 45.9375C47.0288 45.3885 46.9889 44.8404 46.912 44.2969H51.9531C52.2432 44.2969 52.5214 44.1816 52.7265 43.9765C52.9316 43.7714 53.0469 43.4932 53.0469 43.2031C53.043 41.3697 52.4972 39.5784 51.478 38.0544C50.4589 36.5304 49.0118 35.3418 47.3189 34.638ZM43.75 27.8906C44.2915 27.8896 44.8231 28.0348 45.2889 28.3108C45.7548 28.5868 46.1374 28.9835 46.3966 29.4589C46.6557 29.9343 46.7817 30.4708 46.7613 31.0119C46.7409 31.553 46.5748 32.0785 46.2805 32.533C45.9863 32.9875 45.5748 33.3542 45.0895 33.5943C44.6042 33.8344 44.0631 33.9391 43.5233 33.8973C42.9834 33.8554 42.4649 33.6686 42.0224 33.3566C41.5799 33.0446 41.2298 32.6189 41.0091 32.1245C41.3722 31.3081 41.5607 30.4248 41.5625 29.5312C41.5625 29.3125 41.5505 29.0992 41.5297 28.887C41.8092 28.5745 42.1513 28.3242 42.5338 28.1525C42.9163 27.9809 43.3307 27.8916 43.75 27.8906ZM39.0863 34.6358C39.2999 34.4633 39.5026 34.2777 39.6933 34.0802C39.8414 34.2783 40.0044 34.4648 40.1811 34.638C40.0116 34.7091 39.853 34.7987 39.69 34.8819C39.4844 34.7966 39.2919 34.7102 39.0863 34.6358ZM35 25.1562C35.8653 25.1562 36.7112 25.4128 37.4306 25.8936C38.1501 26.3743 38.7108 27.0576 39.042 27.857C39.3731 28.6564 39.4597 29.5361 39.2909 30.3848C39.1221 31.2334 38.7054 32.013 38.0936 32.6248C37.4817 33.2367 36.7022 33.6534 35.8535 33.8222C35.0049 33.991 34.1252 33.9044 33.3258 33.5732C32.5263 33.2421 31.8431 32.6813 31.3623 31.9619C30.8816 31.2424 30.625 30.3965 30.625 29.5312C30.625 28.3709 31.0859 27.2581 31.9064 26.4377C32.7269 25.6172 33.8397 25.1562 35 25.1562ZM29.8189 34.638C29.9956 34.4648 30.1586 34.2783 30.3067 34.0802C30.4974 34.2777 30.7001 34.4633 30.9137 34.6358C30.7081 34.7102 30.5102 34.7966 30.31 34.8819C30.147 34.7987 29.9884 34.7091 29.8189 34.638ZM26.25 27.8906C26.6693 27.8916 27.0837 27.9809 27.4662 28.1525C27.8487 28.3242 28.1908 28.5745 28.4703 28.887C28.4495 29.0992 28.4375 29.3136 28.4375 29.5312C28.4393 30.4248 28.6278 31.3081 28.9909 32.1245C28.7699 32.6181 28.4199 33.0429 27.9777 33.3541C27.5354 33.6654 27.0174 33.8515 26.4783 33.893C25.9391 33.9345 25.3987 33.8297 24.9141 33.5898C24.4295 33.3498 24.0186 32.9836 23.7247 32.5296C23.4308 32.0757 23.2648 31.5508 23.2443 31.0105C23.2237 30.4701 23.3494 29.9342 23.6079 29.4592C23.8665 28.9842 24.2484 28.5878 24.7134 28.3118C25.1784 28.0357 25.7092 27.8902 26.25 27.8906ZM19.2248 42.1094C19.4879 40.4345 20.3399 38.9084 21.6277 37.8056C22.9155 36.7029 24.5546 36.0959 26.25 36.0937C26.7876 36.0957 27.323 36.1621 27.8447 36.2917C25.87 37.7534 24.3887 39.7831 23.5988 42.1094H19.2248ZM25.2164 44.8437C25.4838 42.436 26.6297 40.2114 28.4348 38.5956C30.2399 36.9799 32.5774 36.0866 35 36.0866C37.4226 36.0866 39.7601 36.9799 41.5652 38.5956C43.3703 40.2114 44.5162 42.436 44.7836 44.8437H25.2164ZM46.4012 42.1094C45.6113 39.7831 44.13 37.7534 42.1553 36.2917C42.677 36.1621 43.2124 36.0957 43.75 36.0937C45.4454 36.0959 47.0845 36.7029 48.3723 37.8056C49.6601 38.9084 50.5121 40.4345 50.7752 42.1094H46.4012Z" fill="#0195FF"/>
<path d="M11.6627 24.0625C12.2667 24.0625 12.7564 23.5728 12.7564 22.9688C12.7564 22.3647 12.2667 21.875 11.6627 21.875C11.0586 21.875 10.5689 22.3647 10.5689 22.9688C10.5689 23.5728 11.0586 24.0625 11.6627 24.0625Z" fill="#0195FF"/>
<path d="M52.7734 55.4181C53.3775 55.4181 53.8672 54.9284 53.8672 54.3244C53.8672 53.7203 53.3775 53.2306 52.7734 53.2306C52.1694 53.2306 51.6797 53.7203 51.6797 54.3244C51.6797 54.9284 52.1694 55.4181 52.7734 55.4181Z" fill="#0195FF"/>
</svg>
