<svg width="70" height="70" viewBox="0 0 70 70" fill="none" xmlns="http://www.w3.org/2000/svg">
<g clip-path="url(#clip0_36_620)">
<path d="M21.9556 15.3429C21.9556 12.608 19.7302 10.3826 16.9953 10.3826C14.2604 10.3826 12.035 12.608 12.035 15.3429C12.035 18.0778 14.2604 20.3033 16.9953 20.3033C19.7302 20.3033 21.9556 18.0778 21.9556 15.3429ZM14.0858 15.3429C14.0858 13.7386 15.391 12.4334 16.9953 12.4334C18.5996 12.4334 19.9048 13.7386 19.9048 15.3429C19.9048 16.9472 18.5996 18.2525 16.9953 18.2525C15.391 18.2525 14.0858 16.9472 14.0858 15.3429Z" fill="#0195FF"/>
<path d="M40.7086 20.3033C43.4435 20.3033 45.6684 18.0778 45.6684 15.3429C45.6684 12.608 43.4435 10.3826 40.7086 10.3826C37.9731 10.3826 35.7482 12.608 35.7482 15.3429C35.7482 18.0778 37.9731 20.3033 40.7086 20.3033ZM40.7086 12.4334C42.3123 12.4334 43.6176 13.7386 43.6176 15.3429C43.6176 16.9472 42.3123 18.2525 40.7086 18.2525C39.1042 18.2525 37.799 16.9472 37.799 15.3429C37.799 13.7386 39.1042 12.4334 40.7086 12.4334Z" fill="#0195FF"/>
<path d="M52.0295 47.8868C51.4628 47.8868 51.0041 48.3456 51.0041 48.9122V60.0105C51.0041 60.3069 50.7632 60.5482 50.4668 60.5482H7.237C6.9406 60.5482 6.69974 60.3074 6.69974 60.0105V48.9122C6.69974 48.3456 6.24045 47.8868 5.67435 47.8868C5.10771 47.8868 4.64896 48.3456 4.64896 48.9122V60.0105C4.64896 61.438 5.81 62.599 7.237 62.599H50.4668C51.8938 62.599 53.0549 61.438 53.0549 60.0105V48.9122C53.0549 48.3456 52.5956 47.8868 52.0295 47.8868Z" fill="#0195FF"/>
<path d="M50.4668 31.0715H7.237C5.81 31.0715 4.64896 32.2325 4.64896 33.6595V44.7583C4.64896 45.3249 5.10771 45.7837 5.67435 45.7837C6.24045 45.7837 6.69974 45.3249 6.69974 44.7583V33.6595C6.69974 33.3631 6.9406 33.1223 7.237 33.1223H50.4668C50.7632 33.1223 51.0041 33.3631 51.0041 33.6595V44.7583C51.0041 45.3249 51.4628 45.7837 52.0295 45.7837C52.5961 45.7837 53.0549 45.3249 53.0549 44.7583V33.6595C53.0549 32.2325 51.8938 31.0715 50.4668 31.0715Z" fill="#0195FF"/>
<path d="M40.9387 46.9357C40.9387 40.2711 35.5164 34.8494 28.8519 34.8494C22.1874 34.8494 16.7657 40.2711 16.7657 46.9357C16.7657 53.6007 22.1874 59.0224 28.8519 59.0224C35.5164 59.0224 40.9387 53.6007 40.9387 46.9357ZM18.8159 46.9357C18.8159 41.4017 23.318 36.9002 28.8519 36.9002C34.3853 36.9002 38.8874 41.4017 38.8874 46.9357C38.8874 52.4696 34.3853 56.9717 28.8519 56.9717C23.318 56.9717 18.8159 52.4696 18.8159 46.9357Z" fill="#0195FF"/>
<path d="M35.2991 46.9341C35.2991 46.3931 35.0299 45.891 34.5792 45.5914L27.1424 40.6439C26.6468 40.3139 26.0123 40.284 25.4874 40.5649C24.9624 40.8463 24.6361 41.3911 24.6361 41.9865V51.8816C24.6361 52.477 24.9619 53.0218 25.4874 53.3032C25.7266 53.4314 25.9883 53.495 26.2489 53.495C26.5614 53.495 26.8722 53.4042 27.1424 53.2242L34.5792 48.2772C35.0299 47.9776 35.2991 47.4751 35.2991 46.9341ZM26.6869 51.0645V42.8042L32.8953 46.9341L26.6869 51.0645Z" fill="#0195FF"/>
<path d="M68.4192 29.2124C67.4445 28.727 66.2984 28.8332 65.4295 29.4891L57.7033 35.3199V29.261C57.7033 27.4062 56.1946 25.897 54.3398 25.897H48.0876C49.0612 25.2166 49.9435 24.4011 50.7008 23.4713C52.5641 21.1845 53.59 18.2979 53.59 15.3429C53.59 8.23997 47.8115 2.46094 40.7085 2.46094C35.3915 2.46094 30.8162 5.69893 28.8519 10.3068C26.8871 5.69893 22.3124 2.46094 16.9953 2.46094C9.89235 2.46094 4.11331 8.23997 4.11331 15.3429C4.11331 18.2979 5.13924 21.1845 7.00256 23.4713C7.76039 24.4011 8.64265 25.2166 9.61624 25.897H3.36403C1.50871 25.897 0 27.4062 0 29.261V64.4095C0 66.2643 1.50871 67.773 3.36403 67.773H54.3398C56.1946 67.773 57.7033 66.2643 57.7033 64.4095V58.3501L65.4295 64.1814C65.9369 64.5638 66.5377 64.7598 67.1444 64.7598C67.5775 64.7598 68.0133 64.66 68.4192 64.4576C69.3944 63.9721 70 62.9942 70 61.9048V31.7657C70 30.6768 69.3944 29.6984 68.4192 29.2124ZM40.7085 4.51172C46.6804 4.51172 51.5392 9.37058 51.5392 15.3429C51.5392 17.8274 50.6767 20.2541 49.1109 22.1757C47.5893 24.0433 45.4729 25.3619 43.1401 25.897H38.2764C35.9437 25.3619 33.8272 24.0433 32.3057 22.1757C30.7398 20.2541 29.8773 17.8274 29.8773 15.3429C29.8773 9.37058 34.7362 4.51172 40.7085 4.51172ZM28.8519 20.3754C29.3219 21.4846 29.9478 22.5287 30.7158 23.4713C31.4731 24.4011 32.3553 25.2166 33.3289 25.897H24.3744C25.348 25.2166 26.2302 24.4011 26.9881 23.4713C27.756 22.5287 28.3814 21.4846 28.8519 20.3754ZM8.59245 22.1757C7.0266 20.2541 6.16409 17.8274 6.16409 15.3429C6.16409 9.37058 11.0229 4.51172 16.9953 4.51172C22.9677 4.51172 27.8265 9.37058 27.8265 15.3429C27.8265 17.8274 26.964 20.2541 25.3982 22.1757C23.8766 24.0433 21.7596 25.3619 19.4274 25.897H14.5632C12.231 25.3619 10.114 24.0433 8.59245 22.1757ZM55.6531 64.4095C55.6531 65.1331 55.064 65.7222 54.3398 65.7222H3.36403C2.63985 65.7222 2.05078 65.1331 2.05078 64.4095V29.261C2.05078 28.5368 2.63985 27.9478 3.36403 27.9478H54.3398C55.064 27.9478 55.6525 28.5368 55.6525 29.261V64.4095H55.6531ZM67.9492 61.9048C67.9492 62.3528 67.6389 62.5558 67.5049 62.622C67.3714 62.6888 67.0226 62.8143 66.6648 62.5446L57.7033 55.7812V37.8893L66.6648 31.1259C67.0221 30.8562 67.3714 30.9818 67.5049 31.0485C67.6389 31.1147 67.9492 31.3177 67.9492 31.7657V61.9048Z" fill="#0195FF"/>
</g>
<defs>
<clipPath id="clip0_36_620">
<rect width="70" height="70" fill="white"/>
</clipPath>
</defs>
</svg>
