<svg width="812" height="599" viewBox="0 0 812 599" fill="none" xmlns="http://www.w3.org/2000/svg">
<g clip-path="url(#clip0_114_2)">
<path d="M730.64 558.034H676.85V558.44H730.64V558.034Z" fill="#EBEBEB"/>
<path d="M537.901 562.442H523.783V562.848H537.901V562.442Z" fill="#EBEBEB"/>
<path d="M675.224 542.95H644.056V543.356H675.224V542.95Z" fill="#EBEBEB"/>
<path d="M155.339 545.679H85.1934V546.085H155.339V545.679Z" fill="#EBEBEB"/>
<path d="M180.084 545.679H169.799V546.085H180.084V545.679Z" fill="#EBEBEB"/>
<path d="M365.639 552.538H213.51V552.944H365.639V552.538Z" fill="#EBEBEB"/>
<path d="M387.163 459.444H73.5706C68.4592 459.444 64.3008 455.285 64.3008 450.173V9.27117C64.3008 4.15932 68.4592 0 73.5706 0H387.163C392.273 0 396.431 4.15932 396.431 9.27117V450.173C396.431 455.285 392.273 459.444 387.163 459.444V459.444ZM73.5706 0.406089C68.6828 0.406089 64.7068 4.383 64.7068 9.27117V450.173C64.7068 455.062 68.6828 459.038 73.5706 459.038H387.163C392.049 459.038 396.025 455.062 396.025 450.173V9.27117C396.025 4.383 392.049 0.406089 387.163 0.406089H73.5706Z" fill="#EBEBEB"/>
<path d="M738.429 459.444H424.837C419.727 459.444 415.568 455.285 415.568 450.173V9.27117C415.568 4.15932 419.727 0 424.837 0H738.429C743.54 0 747.699 4.15932 747.699 9.27117V450.173C747.699 455.285 743.54 459.444 738.429 459.444V459.444ZM424.837 0.406089C419.95 0.406089 415.974 4.383 415.974 9.27117V450.173C415.974 455.062 419.95 459.038 424.837 459.038H738.429C743.317 459.038 747.293 455.062 747.293 450.173V9.27117C747.293 4.383 743.317 0.406089 738.429 0.406089H424.837Z" fill="#EBEBEB"/>
<path d="M812 531.888H0V532.294H812V531.888Z" fill="#EBEBEB"/>
<path d="M147.589 328.412C137.418 325.267 130.721 323.197 122.768 320.737C120.954 320.177 121.437 317.486 123.333 317.586C132.608 318.075 140.202 318.478 151.936 319.102C145.18 307.35 141.192 300.017 136.641 290.817C135.806 289.13 138.041 287.622 139.291 289.028C145.398 295.897 150.506 301.48 158.695 310.268C160.65 298.893 162.913 288.424 165.747 277.899C166.257 276.003 169.085 276.496 168.911 278.452C168.155 286.991 167.879 295.605 168.085 303.928C168.466 304.063 168.483 304.069 168.864 304.204C175.738 296.367 182.954 288.833 190.471 281.614C191.919 280.224 194.082 282.219 192.84 283.794C185.543 293.048 178.788 302.728 172.644 312.788C182.461 309.085 192.335 305.491 202.244 302.013C204.093 301.363 205.28 303.973 203.575 304.939C193.295 310.765 183.13 316.729 172.979 322.903C183.688 326.315 190.673 328.54 199.135 331.235C200.943 331.811 200.445 334.497 198.55 334.382C189.878 333.858 182.676 333.423 171.672 332.761C176.984 338.984 180.677 343.252 184.972 348.081C186.227 349.492 184.449 351.541 182.876 350.496C177.473 346.909 172.72 343.728 165.801 339.081C166.504 344.61 167.113 348.887 167.843 353.085C168.178 355.006 165.463 355.762 164.754 353.947C162.958 349.35 161.315 344.774 159.228 338.709C151.417 376.095 153.442 412.335 160.995 449.498C157.25 448.821 155.379 448.483 151.634 447.807C146.163 409.704 147.579 375.587 156.023 338.13C151.331 342.971 147.883 346.628 144.595 350.306C143.294 351.762 141.005 350.072 142.013 348.4C144.22 344.738 146.621 341.01 149.825 336.196C141.468 338.028 135.743 339.295 129.434 340.716C127.575 341.135 126.656 338.548 128.361 337.699C134.241 334.771 139.639 332.171 147.589 328.412Z" fill="#EBEBEB"/>
<path d="M134.385 341.327C142.093 337.24 147.644 334.296 153.444 331.22C155.692 330.027 154.386 326.608 151.915 327.214C144.675 328.99 137.94 330.644 128.377 332.993C132.213 321.94 134.638 314.506 137 306.32C137.7 303.895 134.378 302.446 133.074 304.607C129.203 311.022 125.518 316.961 120.089 325.577C116.797 316.777 113.418 308.606 109.714 300.579C108.615 298.197 105.029 299.491 105.677 302.033C107.3 308.396 108.645 314.806 109.68 321.101C109.331 321.304 109.316 321.313 108.967 321.516C102.805 316.705 96.4865 312.097 90.0284 307.693C87.8063 306.178 85.3615 309.246 87.3459 311.061C94.1485 317.284 100.663 323.821 106.854 330.656C98.5138 329.199 90.1505 327.819 81.7752 326.517C79.177 326.113 78.2672 329.831 80.7524 330.691C89.9978 333.889 99.1965 337.201 108.413 340.656C100.198 345.103 94.3581 348.265 88.1359 351.633C85.8995 352.843 87.2281 356.252 89.6932 355.627C96.3802 353.933 102.694 352.335 111.537 350.097C108.372 355.64 105.952 359.83 103.466 364.037C102.182 366.211 105.035 368.444 106.838 366.677C110.356 363.228 113.856 359.781 118.484 355.209C118.686 358.499 118.838 361.353 118.943 364.016C119.044 366.612 122.802 366.845 123.23 364.283C123.766 361.08 124.287 357.662 124.872 353.617C139.522 388.887 144.296 424.869 143.81 462.788C147.362 461.425 149.138 460.743 152.69 459.38C150.955 420.925 143.198 387.672 127.913 352.45C131.278 354.819 134.106 356.841 136.69 358.739C138.808 360.295 141.349 357.437 139.547 355.523C137.791 353.659 135.866 351.664 133.641 349.392C140.154 349.575 145.106 349.721 149.953 349.876C152.509 349.958 153.061 346.313 150.594 345.635C145.813 344.32 140.895 343.017 134.385 341.327V341.327Z" fill="#F0F0F0"/>
<path d="M168.05 361.815C162.287 358.759 158.179 356.581 153.833 354.275C152.242 353.431 153.163 351.009 154.912 351.439C160.327 352.767 165.301 353.988 172.429 355.739C169.581 347.534 167.801 342.064 166.048 335.965C165.554 334.246 167.904 333.22 168.828 334.752C171.715 339.543 174.43 343.921 178.471 350.333C180.931 343.758 183.457 337.664 186.238 331.671C187.018 329.988 189.561 330.906 189.097 332.703C187.851 337.529 186.824 342.395 186.042 347.171C186.266 347.301 186.275 347.306 186.498 347.436C191.178 343.78 195.981 340.283 200.895 336.95C202.47 335.88 204.186 338.071 202.777 339.353C197.66 344.009 192.765 348.907 188.119 354.036C194.363 352.945 200.625 351.913 206.895 350.941C208.731 350.657 209.382 353.29 207.625 353.896C200.724 356.278 193.86 358.747 186.983 361.325C193.112 364.644 197.428 366.98 202.086 369.501C203.669 370.358 202.727 372.771 200.982 372.329C195.975 371.061 191.307 369.878 184.706 368.208C187.087 372.378 188.889 375.497 190.763 378.664C191.674 380.204 189.656 381.789 188.379 380.537C185.729 377.941 183.124 375.374 179.641 371.935C179.483 374.515 179.366 376.728 179.29 378.796C179.223 380.633 176.563 380.806 176.256 378.994C175.839 376.53 175.438 373.911 174.984 370.773C164.305 396.485 160.825 422.715 161.179 450.358C158.59 449.364 157.295 448.867 154.705 447.873C155.97 419.841 161.625 395.6 172.768 369.923C170.139 371.773 167.96 373.333 165.968 374.803C164.473 375.906 162.673 373.885 163.944 372.528C165.316 371.064 166.824 369.499 168.592 367.694C163.673 367.832 159.974 367.941 156.318 368.059C154.508 368.118 154.118 365.538 155.864 365.056C159.467 364.063 163.136 363.09 168.05 361.815V361.815Z" fill="#F5F5F5"/>
<path d="M127.955 531.62H176.385C179.772 531.62 182.573 528.985 182.781 525.604L187.915 442.055C188.141 438.368 116.199 438.368 116.425 442.055L121.559 525.604C121.767 528.985 124.568 531.62 127.955 531.62Z" fill="#F0F0F0"/>
<path d="M125.013 338.564C123.732 337.506 123.076 335.87 123.27 334.22L124.36 324.96L121.876 329.267C120.406 331.815 117.036 332.5 114.687 330.728L109.83 327.061L114.27 334.23C115.541 336.282 115.127 338.954 113.294 340.525L107.555 345.446L113.182 344.162C115.647 343.6 118.135 345.008 118.922 347.411L120.859 353.325L122.097 347.034C122.654 344.207 125.518 342.47 128.281 343.283L132.062 344.395L125.013 338.564V338.564Z" fill="#E6E6E6"/>
<path d="M157.319 322.612C158.254 321.839 158.733 320.644 158.591 319.439L157.796 312.676L159.61 315.821C160.684 317.683 163.145 318.183 164.86 316.888L168.408 314.21L165.165 319.446C164.237 320.945 164.539 322.897 165.878 324.044L170.07 327.638L165.96 326.701C164.159 326.29 162.342 327.318 161.767 329.074L160.353 333.393L159.448 328.798C159.041 326.734 156.95 325.465 154.931 326.058L152.17 326.871L157.319 322.612V322.612Z" fill="#F5F5F5"/>
<path d="M176.463 361.375C177.134 360.82 177.478 359.963 177.376 359.098L176.806 354.245L178.107 356.502C178.878 357.838 180.644 358.197 181.875 357.268L184.421 355.346L182.094 359.103C181.428 360.179 181.645 361.58 182.605 362.403L185.614 364.982L182.664 364.309C181.372 364.014 180.068 364.753 179.656 366.012L178.641 369.112L177.991 365.814C177.699 364.333 176.198 363.422 174.75 363.848L172.769 364.431L176.463 361.375V361.375Z" fill="#E6E6E6"/>
<path d="M624.647 131.093H582.149C580.966 131.093 580.007 132.052 580.007 133.235V141.507C580.007 142.69 580.966 143.649 582.149 143.649H624.647C625.83 143.649 626.789 142.69 626.789 141.507V133.235C626.789 132.052 625.83 131.093 624.647 131.093Z" fill="#F5F5F5"/>
<path d="M610.361 146.653H567.864C566.681 146.653 565.722 147.612 565.722 148.795V157.067C565.722 158.25 566.681 159.21 567.864 159.21H610.361C611.544 159.21 612.503 158.25 612.503 157.067V148.795C612.503 147.612 611.544 146.653 610.361 146.653Z" fill="#F5F5F5"/>
<path d="M659.325 146.653H616.828C615.645 146.653 614.686 147.612 614.686 148.795V157.067C614.686 158.25 615.645 159.21 616.828 159.21H659.325C660.508 159.21 661.467 158.25 661.467 157.067V148.795C661.467 147.612 660.508 146.653 659.325 146.653Z" fill="#F0F0F0"/>
<path d="M682.04 31.1469H636.698C635.515 31.1469 634.556 32.1061 634.556 33.2894V42.3245C634.556 43.5078 635.515 44.4671 636.698 44.4671H682.04C683.223 44.4671 684.182 43.5078 684.182 42.3245V33.2894C684.182 32.1061 683.223 31.1469 682.04 31.1469Z" fill="#F5F5F5"/>
<path d="M682.04 64.1938H636.698C635.515 64.1938 634.556 65.1531 634.556 66.3364V75.3714C634.556 76.5546 635.515 77.5139 636.698 77.5139H682.04C683.223 77.5139 684.182 76.5546 684.182 75.3714V66.3364C684.182 65.1531 683.223 64.1938 682.04 64.1938Z" fill="#F5F5F5"/>
<path d="M666.886 47.6532H621.544C620.361 47.6532 619.402 48.6124 619.402 49.7957V58.8309C619.402 60.0142 620.361 60.9734 621.544 60.9734H666.886C668.069 60.9734 669.028 60.0142 669.028 58.8309V49.7957C669.028 48.6124 668.069 47.6532 666.886 47.6532Z" fill="#F5F5F5"/>
<path d="M718.828 47.6532H673.486C672.303 47.6532 671.344 48.6124 671.344 49.7957V58.8309C671.344 60.0142 672.303 60.9734 673.486 60.9734H718.828C720.011 60.9734 720.97 60.0142 720.97 58.8309V49.7957C720.97 48.6124 720.011 47.6532 718.828 47.6532Z" fill="#F0F0F0"/>
<path d="M355.552 435.73L667.436 435.73V426.763L355.552 426.763V435.73Z" fill="#F5F5F5"/>
<path d="M665.102 435.73H734.961V426.763H665.102V435.73Z" fill="#EBEBEB"/>
<path d="M387.963 457.531V435.73H373.433L387.963 457.531Z" fill="#E0E0E0"/>
<path d="M380.698 457.531L366.167 435.73H373.432L387.963 457.531H380.698Z" fill="#FAFAFA"/>
<path d="M723.587 457.531V435.73H709.057L723.587 457.531Z" fill="#E0E0E0"/>
<path d="M716.322 457.531L701.791 435.73H709.056L723.587 457.531H716.322Z" fill="#FAFAFA"/>
<path d="M685.059 427.985H693.27C696.967 427.985 699.928 424.921 699.803 421.225L698.759 390.267H679.57L678.525 421.225C678.401 424.921 681.362 427.985 685.059 427.985Z" fill="#F0F0F0"/>
<path d="M650.207 408.384C657.323 401.267 657.323 389.727 650.207 382.609C643.09 375.491 631.553 375.491 624.437 382.609C617.321 389.727 617.321 401.267 624.437 408.384C631.553 415.502 643.09 415.502 650.207 408.384Z" fill="#F0F0F0"/>
<path d="M636.049 427.709H638.594V415.632H637.322C626.222 415.632 617.19 406.6 617.19 395.497C617.19 384.394 626.222 375.361 637.322 375.361V372.816C624.818 372.816 614.646 382.99 614.646 395.497C614.646 407.576 624.135 417.48 636.049 418.142V427.709V427.709Z" fill="#EBEBEB"/>
<path d="M626.62 427.985H648.288C648.288 425.301 646.113 423.126 643.43 423.126H631.478C628.795 423.126 626.62 425.301 626.62 427.985Z" fill="#EBEBEB"/>
<path d="M686.28 427.985L669.162 410.863L652.044 427.985H686.28Z" fill="#F5F5F5"/>
<path d="M669.162 410.863L686.281 427.985H669.162V410.863Z" fill="#E6E6E6"/>
<path d="M549.818 405.581C549.905 407.204 549.955 408.499 549.955 409.36C549.955 416.833 546.595 423.501 541.316 427.985H511.228C505.95 423.501 502.59 416.833 502.59 409.36C502.59 408.499 502.639 407.204 502.727 405.581H549.818V405.581Z" fill="#F5F5F5"/>
<path d="M545.615 418.911C545.615 422.552 547.252 425.8 549.824 427.985H564.483C566.146 426.571 567.41 424.708 568.101 422.586C568.386 422.637 568.679 422.674 568.988 422.674C571.926 422.674 575.212 420.337 575.212 417.21C575.212 413.942 573.323 411.747 570.511 411.747C569.878 411.747 569.231 411.861 568.602 412.062C568.601 411.99 568.6 411.923 568.599 411.851C568.573 410.282 567.294 409.019 565.725 409.019H548.582C547.013 409.019 545.734 410.282 545.708 411.851C545.653 415.119 545.615 417.778 545.615 418.911V418.911ZM568.522 420.812C568.622 420.191 568.691 419.56 568.691 418.911C568.691 418.04 568.669 416.263 568.634 414.005C569.244 413.733 569.897 413.578 570.511 413.578C573.175 413.578 573.381 416.359 573.381 417.21C573.381 419.223 570.978 420.843 568.988 420.843C568.823 420.843 568.668 420.832 568.522 420.812V420.812Z" fill="#EBEBEB"/>
<path d="M409.959 427.985L412.359 400.552H377.577L375.178 427.985H409.959Z" fill="#F0F0F0"/>
<path d="M409.959 427.985L412.358 400.552H414.232L411.832 427.985H409.959Z" fill="#E0E0E0"/>
<path d="M406.658 425.188L408.568 403.349H380.879L378.969 425.188H406.658Z" fill="#FAFAFA"/>
<path d="M404.536 423.39L406.131 405.147H383.001L381.405 423.39H404.536Z" fill="#EBEBEB"/>
<path d="M449.172 427.985H414.232L418.109 383.665H453.049L449.172 427.985Z" fill="#F0F0F0"/>
<path d="M449.172 427.985H450.84L454.717 383.665H453.048L449.172 427.985Z" fill="#E0E0E0"/>
<path d="M446.005 423.466H418.189L421.276 388.183H449.091L446.005 423.466Z" fill="#E0E0E0"/>
<path d="M443.969 420.561H420.733L423.311 391.088H446.547L443.969 420.561Z" fill="#FAFAFA"/>
<path d="M429.51 409.362L427.22 407.073C425.207 405.059 425.208 401.789 427.221 399.776L429.51 397.486C431.523 395.473 434.792 395.473 436.806 397.486L439.095 399.776C441.108 401.79 441.108 405.059 439.095 407.073L436.805 409.363C434.792 411.376 431.523 411.376 429.51 409.362V409.362Z" fill="#EBEBEB"/>
<path d="M427.197 416.682L426.065 415.55C424.052 413.536 424.052 410.267 426.065 408.253L427.197 407.121C429.21 405.107 432.479 405.107 434.492 407.121L435.625 408.254C437.638 410.267 437.638 413.536 435.625 415.55L434.493 416.682C432.479 418.696 429.21 418.696 427.197 416.682V416.682Z" fill="#E6E6E6"/>
<path d="M112.678 111.731H162.31C163.493 111.731 164.452 110.772 164.452 109.589V99.4022C164.452 98.2189 163.493 97.2597 162.31 97.2597H112.678C111.495 97.2597 110.536 98.2189 110.536 99.4022V109.589C110.536 110.772 111.495 111.731 112.678 111.731Z" fill="#F5F5F5"/>
<path d="M137.864 93.7979H187.496C188.679 93.7979 189.638 92.8386 189.638 91.6553V81.4687C189.638 80.2854 188.679 79.3261 187.496 79.3261H137.864C136.681 79.3261 135.722 80.2854 135.722 81.4687V91.6553C135.722 92.8386 136.681 93.7979 137.864 93.7979Z" fill="#F5F5F5"/>
<path d="M81.4321 93.7979H131.064C132.247 93.7979 133.206 92.8386 133.206 91.6553V81.4687C133.206 80.2854 132.247 79.3261 131.064 79.3261H81.4321C80.2491 79.3261 79.2901 80.2854 79.2901 81.4687V91.6553C79.2901 92.8386 80.2491 93.7979 81.4321 93.7979Z" fill="#F0F0F0"/>
<path d="M406 599C579.901 599 720.876 590.765 720.876 580.607C720.876 570.449 579.901 562.214 406 562.214C232.099 562.214 91.124 570.449 91.124 580.607C91.124 590.765 232.099 599 406 599Z" fill="#F5F5F5"/>
<path d="M637.812 43.1029H542.799C526.091 43.1029 512.546 56.6505 512.546 73.3624V331.286C512.546 347.998 526.091 361.546 542.799 361.546H637.812C654.52 361.546 668.065 347.998 668.065 331.286V73.3624C668.065 56.6505 654.52 43.1029 637.812 43.1029Z" fill="#5CA3DE"/>
<path d="M668.065 58.726V121.877H512.545V58.726C512.545 50.1025 519.54 43.1061 528.17 43.1061H652.44C661.07 43.1061 668.065 50.1025 668.065 58.726Z" fill="#B10043"/>
<path d="M556.544 77.1086C556.544 80.2193 554.241 82.1378 550.526 82.1378H547.335V86.2187H544.709V72.0785H550.526C554.241 72.0785 556.544 73.9772 556.544 77.1086ZM553.898 77.1086C553.898 75.3303 552.707 74.3 550.404 74.3H547.335V79.9163H550.404C552.707 79.9163 553.898 78.886 553.898 77.1086Z" fill="white"/>
<path d="M565.068 75.3105V77.7146C564.846 77.6741 564.664 77.6535 564.483 77.6535C562.564 77.6535 561.352 78.7854 561.352 80.987V86.2187H558.827V75.4319H561.231V77.0072C561.958 75.8761 563.271 75.3105 565.068 75.3105V75.3105Z" fill="white"/>
<path d="M577.206 81.6335H568.744C569.047 83.2087 570.36 84.2192 572.238 84.2192C573.45 84.2192 574.399 83.8353 575.166 83.0469L576.52 84.6022C575.55 85.7539 574.035 86.3599 572.177 86.3599C568.562 86.3599 566.22 84.0367 566.22 80.8252C566.22 77.6131 568.583 75.3105 571.793 75.3105C574.944 75.3105 577.247 77.5124 577.247 80.8855C577.247 81.0879 577.226 81.3908 577.206 81.6335V81.6335ZM568.724 79.9569H574.843C574.641 78.4015 573.45 77.3308 571.793 77.3308C570.158 77.3308 568.967 78.3809 568.724 79.9569Z" fill="white"/>
<path d="M597.705 80.0377V86.2187H595.18V80.3605C595.18 78.442 594.292 77.5124 592.757 77.5124C591.101 77.5124 589.95 78.603 589.95 80.7443V86.2187H587.425V80.3605C587.425 78.442 586.537 77.5124 585.002 77.5124C583.326 77.5124 582.195 78.603 582.195 80.7443V86.2187H579.67V75.4319H582.073V76.8056C582.882 75.8357 584.134 75.3105 585.608 75.3105C587.183 75.3105 588.496 75.896 589.244 77.1087C590.112 75.9975 591.566 75.3105 593.282 75.3105C595.888 75.3105 597.705 76.785 597.705 80.0377V80.0377Z" fill="white"/>
<path d="M600.595 72.1388C600.595 71.2909 601.281 70.6239 602.211 70.6239C603.14 70.6239 603.826 71.2504 603.826 72.0785C603.826 72.9667 603.16 73.6536 602.211 73.6536C601.281 73.6536 600.595 72.9873 600.595 72.1388ZM600.938 75.4318H603.463V86.2187H600.938V75.4318Z" fill="white"/>
<path d="M617.216 75.4319V86.2187H614.813V84.8449C614.005 85.8347 612.733 86.3599 611.339 86.3599C608.572 86.3599 606.694 84.8449 606.694 81.5931V75.4319H609.218V81.2497C609.218 83.2086 610.148 84.1383 611.743 84.1383C613.5 84.1383 614.691 83.0469 614.691 80.8855V75.4319H617.216V75.4319Z" fill="white"/>
<path d="M638.565 80.0377V86.2187H636.04V80.3605C636.04 78.442 635.152 77.5124 633.616 77.5124C631.961 77.5124 630.809 78.603 630.809 80.7443V86.2187H628.285V80.3605C628.285 78.442 627.396 77.5124 625.861 77.5124C624.185 77.5124 623.054 78.603 623.054 80.7443V86.2187H620.529V75.4319H622.933V76.8056C623.741 75.8357 624.993 75.3105 626.467 75.3105C628.043 75.3105 629.355 75.896 630.103 77.1087C630.971 75.9975 632.425 75.3105 634.141 75.3105C636.747 75.3105 638.565 76.785 638.565 80.0377V80.0377Z" fill="white"/>
<path d="M557.843 311.444H622.767C631.59 311.444 638.753 318.608 638.753 327.433V328.644C638.753 337.469 631.59 344.634 622.767 344.634H557.843C549.02 344.634 541.857 337.469 541.857 328.645V327.433C541.857 318.608 549.02 311.444 557.843 311.444V311.444Z" fill="#EFC037"/>
<path d="M565.175 330.582C565.175 333.6 562.748 335.619 558.959 335.936L558.46 338.433H556.191L556.691 335.936C554.535 335.732 552.629 335.052 551.473 334.189L552.992 331.375C554.195 332.261 555.715 332.828 557.28 332.987L558.052 329.152C555.942 328.517 553.627 327.678 553.627 324.931C553.627 321.913 556.101 319.872 559.957 319.598L560.456 317.102H562.725L562.226 319.622C563.837 319.78 565.311 320.235 566.4 320.915L565.017 323.729C564.041 323.071 562.861 322.684 561.636 322.549L560.842 326.542C562.93 327.155 565.175 327.972 565.175 330.582V330.582ZM558.687 325.907L559.345 322.639C558.052 322.889 557.326 323.592 557.303 324.455C557.303 325.158 557.87 325.566 558.687 325.907V325.907ZM561.5 331.171C561.5 330.514 560.978 330.104 560.184 329.81L559.572 332.918C560.796 332.668 561.5 332.034 561.5 331.171Z" fill="#393838"/>
<path d="M628.777 243.548H548.496V246.797H628.777V243.548Z" fill="#EFC037"/>
<path d="M628.777 190.205H548.496V193.454H628.777V190.205Z" fill="#EFC037"/>
<path d="M628.777 138.79H548.496V142.039H628.777V138.79Z" fill="#EFC037"/>
<path d="M597.86 175.863C603.312 170.41 603.312 161.568 597.86 156.115C592.408 150.662 583.568 150.662 578.116 156.115C572.664 161.568 572.664 170.41 578.116 175.863C583.568 181.316 592.408 181.316 597.86 175.863Z" fill="#EFC037"/>
<path d="M597.98 162.967L589.948 171.001L586.202 174.753L582.45 171.001L586.196 167.254L594.227 159.214L597.98 162.967Z" fill="#393838"/>
<path d="M589.948 171.001L586.202 174.753L578.246 166.795L581.992 163.049L586.196 167.254L589.948 171.001Z" fill="#393838"/>
<path d="M587.988 231.501C595.699 231.501 601.949 225.249 601.949 217.537C601.949 209.825 595.699 203.573 587.988 203.573C580.278 203.573 574.027 209.825 574.027 217.537C574.027 225.249 580.278 231.501 587.988 231.501Z" fill="#EFC037"/>
<path d="M597.981 214.515L589.949 222.549L586.203 226.302L582.451 222.549L586.197 218.802L594.228 210.763L597.981 214.515Z" fill="#393838"/>
<path d="M589.949 222.549L586.203 226.302L578.247 218.344L581.993 214.597L586.197 218.802L589.949 222.549Z" fill="#393838"/>
<path d="M587.988 286.771C595.699 286.771 601.949 280.519 601.949 272.807C601.949 265.095 595.699 258.843 587.988 258.843C580.278 258.843 574.027 265.095 574.027 272.807C574.027 280.519 580.278 286.771 587.988 286.771Z" fill="#EFC037"/>
<path d="M597.981 269.786L589.949 277.819L586.203 281.572L582.451 277.819L586.197 274.073L594.228 266.033L597.981 269.786Z" fill="#393838"/>
<path d="M589.949 277.819L586.203 281.572L578.247 273.614L581.993 269.867L586.197 274.073L589.949 277.819Z" fill="#393838"/>
<path d="M569.678 99.5117L572.291 103.691L577.072 104.885L573.905 108.662L574.248 113.579L569.678 111.734L565.108 113.579L565.451 108.662L562.284 104.885L567.066 103.691L569.678 99.5117Z" fill="#EFC037"/>
<path d="M587.988 99.5117L590.601 103.691L595.382 104.885L592.215 108.662L592.558 113.579L587.988 111.734L583.418 113.579L583.761 108.662L580.594 104.885L585.375 103.691L587.988 99.5117Z" fill="#EFC037"/>
<path d="M606.297 99.5117L608.91 103.691L613.692 104.885L610.525 108.662L610.867 113.579L606.297 111.734L601.728 113.579L602.07 108.662L598.903 104.885L603.685 103.691L606.297 99.5117Z" fill="#EFC037"/>
<path d="M360.089 24.9779H455.102C471.799 24.9779 485.354 38.5367 485.354 55.2374V313.161C485.354 329.862 471.799 343.421 455.102 343.421H360.089C343.392 343.421 329.836 329.862 329.836 313.161V55.2374C329.836 38.5367 343.392 24.9779 360.089 24.9779V24.9779Z" fill="#407BFF"/>
<path d="M454.091 24.9811H361.096C343.833 24.9811 329.838 38.979 329.838 56.2462V312.147C329.838 329.419 343.836 343.421 361.104 343.421H454.091C471.359 343.421 485.357 329.419 485.357 312.147V56.2545C485.357 38.9827 471.359 24.9811 454.091 24.9811V24.9811Z" fill="#5CA3DE"/>
<path d="M485.357 40.601V103.752H329.838V40.601C329.838 31.9773 336.833 24.9811 345.463 24.9811H469.733C478.363 24.9811 485.357 31.9773 485.357 40.601V40.601Z" fill="#B10043"/>
<path d="M361.901 66.5985L362.811 64.5587C363.942 65.4675 365.739 66.114 367.476 66.114C369.677 66.114 370.606 65.3263 370.606 64.2755C370.606 61.2258 362.204 63.2254 362.204 57.9732C362.204 55.6905 364.022 53.7513 367.9 53.7513C369.596 53.7513 371.373 54.1963 372.606 55.0037L371.778 57.0444C370.505 56.2965 369.112 55.9332 367.879 55.9332C365.699 55.9332 364.81 56.7819 364.81 57.8519C364.81 60.8618 373.191 58.9027 373.191 64.0938C373.191 66.3567 371.354 68.296 367.476 68.296C365.275 68.296 363.073 67.609 361.901 66.5985V66.5985Z" fill="white"/>
<path d="M382.038 67.5076C381.432 67.9929 380.524 68.235 379.615 68.235C377.252 68.235 375.898 66.9826 375.898 64.5992V59.4072H374.121V57.3879H375.898V54.9227H378.423V57.3879H381.311V59.4072H378.423V64.5389C378.423 65.5891 378.948 66.1545 379.918 66.1545C380.443 66.1545 380.948 66.0133 381.331 65.7104L382.038 67.5076V67.5076Z" fill="white"/>
<path d="M393.146 61.7708V68.0936H390.764V66.7809C390.158 67.7097 388.986 68.2349 387.37 68.2349C384.907 68.2349 383.352 66.8818 383.352 65.0028C383.352 63.2056 384.563 61.7914 387.835 61.7914H390.622V61.6296C390.622 60.155 389.733 59.2866 387.936 59.2866C386.724 59.2866 385.472 59.6903 384.664 60.3566L383.674 58.5188C384.826 57.6298 386.502 57.1855 388.239 57.1855C391.349 57.1855 393.146 58.66 393.146 61.7708ZM390.622 64.7204V63.4681H388.017C386.3 63.4681 385.835 64.1144 385.835 64.902C385.835 65.811 386.603 66.3971 387.895 66.3971C389.128 66.3971 390.198 65.8317 390.622 64.7204V64.7204Z" fill="white"/>
<path d="M407.001 61.9127V68.0936H404.476V62.2355C404.476 60.3168 403.527 59.3874 401.912 59.3874C400.114 59.3874 398.903 60.478 398.903 62.6392V68.0936H396.378V57.3069H398.781V58.7004C399.609 57.7107 400.922 57.1855 402.497 57.1855C405.082 57.1855 407.001 58.66 407.001 61.9127V61.9127Z" fill="white"/>
<path d="M420.877 53.1049V68.0936H418.453V66.7001C417.605 67.7304 416.353 68.2349 414.878 68.2349C411.748 68.2349 409.426 66.0537 409.426 62.7002C409.426 59.3468 411.748 57.1856 414.878 57.1856C416.272 57.1856 417.504 57.6503 418.352 58.6402V53.1049H420.877V53.1049ZM418.393 62.7002C418.393 60.6398 416.999 59.3271 415.181 59.3271C413.364 59.3271 411.97 60.6398 411.97 62.7002C411.97 64.7609 413.364 66.0735 415.181 66.0735C416.999 66.0735 418.393 64.7609 418.393 62.7002Z" fill="white"/>
<path d="M433.218 61.7708V68.0936H430.835V66.7809C430.229 67.7097 429.057 68.2349 427.442 68.2349C424.978 68.2349 423.423 66.8818 423.423 65.0028C423.423 63.2056 424.635 61.7914 427.906 61.7914H430.693V61.6296C430.693 60.155 429.805 59.2866 428.007 59.2866C426.795 59.2866 425.543 59.6903 424.735 60.3566L423.746 58.5188C424.897 57.6298 426.573 57.1855 428.31 57.1855C431.42 57.1855 433.218 58.66 433.218 61.7708V61.7708ZM430.693 64.7204V63.4681H428.088C426.371 63.4681 425.906 64.1144 425.906 64.902C425.906 65.811 426.674 66.3971 427.967 66.3971C429.199 66.3971 430.269 65.8317 430.693 64.7204Z" fill="white"/>
<path d="M442.69 57.1855V59.5896C442.468 59.5491 442.286 59.5285 442.105 59.5285C440.186 59.5285 438.974 60.6604 438.974 62.862V68.0936H436.449V57.3069H438.853V58.882C439.58 57.7511 440.893 57.1855 442.69 57.1855V57.1855Z" fill="white"/>
<path d="M455.293 53.1049V68.0936H452.869V66.7001C452.021 67.7304 450.769 68.2349 449.294 68.2349C446.164 68.2349 443.842 66.0537 443.842 62.7002C443.842 59.3468 446.164 57.1856 449.294 57.1856C450.688 57.1856 451.92 57.6503 452.768 58.6402V53.1049H455.293V53.1049ZM452.809 62.7002C452.809 60.6398 451.415 59.3271 449.597 59.3271C447.78 59.3271 446.386 60.6398 446.386 62.7002C446.386 64.7609 447.78 66.0735 449.597 66.0735C451.415 66.0735 452.809 64.7609 452.809 62.7002Z" fill="white"/>
<path d="M441.371 293.319H376.448C367.619 293.319 360.462 300.478 360.462 309.308V310.519C360.462 319.35 367.619 326.509 376.448 326.509H441.371C450.2 326.509 457.357 319.35 457.357 310.519V309.308C457.357 300.478 450.2 293.319 441.371 293.319Z" fill="#EFC037"/>
<path d="M447.381 225.423H367.101V228.672H447.381V225.423Z" fill="#EFC037"/>
<path d="M447.381 172.08H367.101V175.329H447.381V172.08Z" fill="#EFC037"/>
<path d="M447.381 120.665H367.101V123.914H447.381V120.665Z" fill="#EFC037"/>
<path d="M419.611 202.62C421.382 195.114 416.735 187.593 409.231 185.821C401.727 184.049 394.208 188.698 392.436 196.204C390.665 203.709 395.312 211.23 402.816 213.002C410.32 214.774 417.839 210.126 419.611 202.62Z" fill="#EFC037"/>
<path d="M416.016 196.39L407.984 204.424L404.238 208.177L400.486 204.424L404.232 200.677L412.264 192.638L416.016 196.39Z" fill="#393838"/>
<path d="M407.984 204.424L404.239 208.177L396.282 200.219L400.028 196.472L404.232 200.677L407.984 204.424Z" fill="#393838"/>
<path d="M412.583 267.583C419.707 264.632 423.09 256.463 420.139 249.338C417.188 242.213 409.022 238.83 401.898 241.781C394.775 244.732 391.392 252.901 394.343 260.026C397.293 267.151 405.46 270.534 412.583 267.583Z" fill="#EFC037"/>
<path d="M417.232 251.661L409.201 259.694L405.455 263.447L401.703 259.694L405.449 255.948L413.48 247.908L417.232 251.661Z" fill="#393838"/>
<path d="M409.201 259.694L405.455 263.447L397.499 255.489L401.245 251.742L405.449 255.948L409.201 259.694Z" fill="#393838"/>
<path d="M406.024 161.824C413.656 161.824 419.842 155.636 419.842 148.002C419.842 140.369 413.656 134.181 406.024 134.181C398.392 134.181 392.205 140.369 392.205 148.002C392.205 155.636 398.392 161.824 406.024 161.824Z" fill="#B10043"/>
<path opacity="0.5" d="M406.024 161.824C413.656 161.824 419.842 155.636 419.842 148.002C419.842 140.369 413.656 134.181 406.024 134.181C398.392 134.181 392.205 140.369 392.205 148.002C392.205 155.636 398.392 161.824 406.024 161.824Z" fill="#B10043"/>
<path d="M410.123 140.191L398.214 152.102L401.925 155.814L413.833 143.902L410.123 140.191Z" fill="white"/>
<path d="M398.214 143.902L410.123 155.814L413.834 152.102L401.925 140.191L398.214 143.902Z" fill="white"/>
<path d="M469.822 42.4532V79.5301L477.645 71.7061V42.4532H469.822Z" fill="#124C06"/>
<path d="M485.467 42.4532V79.5301L477.645 71.7061V42.4532H485.467Z" fill="#124C06"/>
<path d="M481.464 5.39435C482.586 7.50016 485.173 8.34093 487.319 7.29728C490.512 5.74472 494.144 8.3843 493.654 11.9012C493.325 14.265 494.924 16.466 497.273 16.8834C500.769 17.5042 502.156 21.7752 499.693 24.3324C498.038 26.0513 498.038 28.7719 499.693 30.4908C502.156 33.048 500.769 37.3191 497.273 37.9399C494.924 38.3572 493.325 40.5582 493.654 42.9222C494.144 46.439 490.512 49.0786 487.319 47.5259C485.173 46.4823 482.586 47.323 481.464 49.429C479.793 52.5621 475.303 52.5621 473.633 49.429C472.51 47.323 469.923 46.4823 467.777 47.5259C464.584 49.0786 460.952 46.439 461.442 42.9222C461.771 40.5582 460.172 38.3572 457.823 37.9399C454.328 37.3191 452.94 33.048 455.403 30.4908C457.059 28.7719 457.059 26.0513 455.403 24.3324C452.94 21.7752 454.328 17.5042 457.823 16.8834C460.172 16.466 461.771 14.265 461.442 11.9012C460.952 8.3843 464.584 5.74472 467.777 7.29728C469.923 8.34093 472.51 7.50016 473.633 5.39435C475.303 2.26113 479.793 2.26113 481.464 5.39435V5.39435Z" fill="#1F6D12"/>
<path d="M481.464 5.39435C482.586 7.50016 485.173 8.34093 487.319 7.29728C490.512 5.74472 494.144 8.3843 493.654 11.9012C493.325 14.265 494.924 16.466 497.273 16.8834C500.769 17.5042 502.156 21.7752 499.693 24.3324C498.038 26.0513 498.038 28.7719 499.693 30.4908C502.156 33.048 500.769 37.3191 497.273 37.9399C494.924 38.3572 493.325 40.5582 493.654 42.9222C494.144 46.439 490.512 49.0786 487.319 47.5259C485.173 46.4823 482.586 47.323 481.464 49.429C479.793 52.5621 475.303 52.5621 473.633 49.429C472.51 47.323 469.923 46.4823 467.777 47.5259C464.584 49.0786 460.952 46.439 461.442 42.9222C461.771 40.5582 460.172 38.3572 457.823 37.9399C454.328 37.3191 452.94 33.048 455.403 30.4908C457.059 28.7719 457.059 26.0513 455.403 24.3324C452.94 21.7752 454.328 17.5042 457.823 16.8834C460.172 16.466 461.771 14.265 461.442 11.9012C460.952 8.3843 464.584 5.74472 467.777 7.29728C469.923 8.34093 472.51 7.50016 473.633 5.39435C475.303 2.26113 479.793 2.26113 481.464 5.39435V5.39435Z" fill="#1F6D12"/>
<path d="M470.522 22.762H468.511C467.562 22.762 466.75 23.533 466.701 24.483L466.214 33.764C466.165 34.7138 466.896 35.4847 467.844 35.4847H469.856C470.804 35.4847 471.615 34.7138 471.665 33.764L472.151 24.483C472.201 23.533 471.471 22.762 470.522 22.762V22.762Z" fill="white"/>
<path d="M486.582 22.7619H481.864L483.178 19.6719C483.321 19.3354 483.375 18.971 483.333 18.6198L483.056 16.1835C482.944 15.2079 482.119 14.4711 481.137 14.4711H478.787C478.658 16.926 477.769 19.28 476.242 21.2063L474.798 23.0283C474.419 23.501 474.195 24.0889 474.163 24.6831L473.709 33.3643C473.648 34.5306 474.553 35.4847 475.721 35.4847H483.953C484.675 35.4847 485.376 35.1673 485.876 34.6136L486.643 33.7598C486.946 33.4226 487.158 33.0129 487.257 32.5703L488.828 25.5688C488.974 24.9194 488.831 24.2386 488.437 23.702C488.004 23.111 487.314 22.7619 486.582 22.7619V22.7619Z" fill="white"/>
<path d="M406.023 79.53L408.636 83.7097L413.417 84.9034L410.25 88.6802L410.593 93.5976L406.023 91.7522L401.453 93.5976L401.796 88.6802L398.629 84.9034L403.41 83.7097L406.023 79.53Z" fill="#EFC037"/>
<path d="M384.277 312.507C384.277 315.525 381.85 317.544 378.061 317.861L377.562 320.357H375.293L375.792 317.861C373.637 317.657 371.731 316.977 370.574 316.114L372.094 313.3C373.297 314.185 374.816 314.752 376.382 314.911L377.153 311.077C375.044 310.441 372.729 309.602 372.729 306.856C372.729 303.838 375.202 301.796 379.059 301.523L379.558 299.027H381.827L381.328 301.546C382.939 301.704 384.413 302.16 385.502 302.839L384.119 305.653C383.143 304.996 381.963 304.609 380.738 304.473L379.944 308.467C382.031 309.08 384.277 309.897 384.277 312.507V312.507ZM377.789 307.832L378.446 304.564C377.153 304.814 376.427 305.516 376.405 306.379C376.405 307.083 376.972 307.491 377.789 307.832V307.832ZM380.602 313.096C380.602 312.438 380.079 312.029 379.286 311.735L378.674 314.843C379.898 314.593 380.602 313.959 380.602 313.096V313.096Z" fill="#393838"/>
<path d="M269.201 43.1029H174.188C157.48 43.1029 143.936 56.6505 143.936 73.3624V331.286C143.936 347.998 157.48 361.546 174.188 361.546H269.201C285.91 361.546 299.454 347.998 299.454 331.286V73.3624C299.454 56.6505 285.91 43.1029 269.201 43.1029Z" fill="#263238"/>
<path d="M268.732 43.1029H174.657C157.69 43.1029 143.936 56.8606 143.936 73.8315V330.817C143.936 347.788 157.69 361.546 174.657 361.546H268.732C285.699 361.546 299.454 347.788 299.454 330.817V73.8315C299.454 56.8606 285.699 43.1029 268.732 43.1029Z" fill="#5CA3DE"/>
<path d="M299.455 58.726V121.877H143.936V58.726C143.936 50.1025 150.93 43.1061 159.561 43.1061H283.83C292.461 43.1061 299.455 50.1025 299.455 58.726Z" fill="#407BFF"/>
<path d="M299.455 58.726V121.877H143.936V58.726C143.936 50.1025 150.93 43.1061 159.561 43.1061H283.83C292.461 43.1061 299.455 50.1025 299.455 58.726Z" fill="#B10043"/>
<path d="M208.919 82.3806C208.919 84.8043 207.02 86.2187 203.384 86.2187H196.356V72.0785H202.981C206.374 72.0785 208.192 73.5125 208.192 75.7547C208.192 77.2093 207.464 78.28 206.374 78.8654C207.889 79.3507 208.919 80.542 208.919 82.3806V82.3806ZM198.982 74.139V78.0373H202.698C204.515 78.0373 205.545 77.3909 205.545 76.0981C205.545 74.7855 204.515 74.139 202.698 74.139H198.982ZM206.272 82.118C206.272 80.7038 205.202 80.0781 203.223 80.0781H198.982V84.158H203.223C205.202 84.158 206.272 83.5321 206.272 82.118Z" fill="white"/>
<path d="M220.511 79.8958V86.2187H218.129V84.9059C217.523 85.8347 216.351 86.3599 214.736 86.3599C212.272 86.3599 210.717 85.0068 210.717 83.1278C210.717 81.3306 211.928 79.9164 215.2 79.9164H217.987V79.7546C217.987 78.28 217.098 77.4116 215.301 77.4116C214.089 77.4116 212.837 77.8153 212.029 78.4816L211.039 76.6438C212.191 75.7548 213.867 75.3105 215.604 75.3105C218.714 75.3105 220.511 76.785 220.511 79.8958V79.8958ZM217.987 82.8454V81.5931H215.382C213.665 81.5931 213.2 82.2394 213.2 83.027C213.2 83.936 213.968 84.5221 215.26 84.5221C216.493 84.5221 217.563 83.9567 217.987 82.8454V82.8454Z" fill="white"/>
<path d="M222.512 85.148L223.481 83.2293C224.43 83.8551 225.884 84.2992 227.238 84.2992C228.833 84.2992 229.499 83.8551 229.499 83.1079C229.499 81.0474 222.834 82.9866 222.834 78.6838C222.834 76.6438 224.672 75.3105 227.58 75.3105C229.015 75.3105 230.651 75.6539 231.62 76.2394L230.651 78.1587C229.621 77.5528 228.591 77.3506 227.56 77.3506C226.025 77.3506 225.299 77.8557 225.299 78.5625C225.299 80.7443 231.963 78.8052 231.963 83.027C231.963 85.0473 230.105 86.3599 227.076 86.3599C225.278 86.3599 223.481 85.8347 222.512 85.148V85.148Z" fill="white"/>
<path d="M233.802 72.1388C233.802 71.2909 234.489 70.6239 235.418 70.6239C236.347 70.6239 237.033 71.2504 237.033 72.0785C237.033 72.9667 236.367 73.6536 235.418 73.6536C234.489 73.6536 233.802 72.9873 233.802 72.1388ZM234.145 75.4318H236.67V86.2187H234.145V75.4318Z" fill="white"/>
<path d="M239.094 80.8252C239.094 77.5933 241.517 75.3105 244.93 75.3105C247.031 75.3105 248.707 76.1791 249.535 77.8153L247.596 78.9463C246.95 77.916 245.981 77.4521 244.91 77.4521C243.052 77.4521 241.638 78.7449 241.638 80.8252C241.638 82.9263 243.052 84.1985 244.91 84.1985C245.981 84.1985 246.95 83.7338 247.596 82.7035L249.535 83.8353C248.707 85.4509 247.031 86.3599 244.93 86.3599C241.517 86.3599 239.094 84.0574 239.094 80.8252V80.8252Z" fill="white"/>
<path d="M229.15 230.223C234.547 224.825 234.547 216.074 229.15 210.676C223.753 205.278 215.004 205.278 209.607 210.676C204.211 216.074 204.211 224.825 209.607 230.223C215.004 235.621 223.753 235.621 229.15 230.223Z" fill="#B10043"/>
<path opacity="0.5" d="M229.15 230.223C234.547 224.825 234.547 216.074 229.15 210.676C223.753 205.278 215.004 205.278 209.607 210.676C204.211 216.074 204.211 224.825 209.607 230.223C215.004 235.621 223.753 235.621 229.15 230.223Z" fill="#B10043"/>
<path d="M223.477 212.638L211.568 224.549L215.279 228.261L227.188 216.35L223.477 212.638Z" fill="white"/>
<path d="M211.569 216.35L223.478 228.261L227.188 224.549L215.279 212.638L211.569 216.35Z" fill="white"/>
<path d="M220.027 285.492C227.738 285.492 233.988 279.24 233.988 271.528C233.988 263.816 227.738 257.564 220.027 257.564C212.317 257.564 206.066 263.816 206.066 271.528C206.066 279.24 212.317 285.492 220.027 285.492Z" fill="#EFC037"/>
<path d="M230.02 268.507L221.988 276.54L218.242 280.293L214.49 276.54L218.236 272.794L226.267 264.754L230.02 268.507Z" fill="#393838"/>
<path d="M221.988 276.54L218.242 280.293L210.286 272.335L214.032 268.588L218.236 272.794L221.988 276.54Z" fill="#393838"/>
<path d="M254.158 311.444H189.234C180.405 311.444 173.248 318.603 173.248 327.433V328.645C173.248 337.475 180.405 344.634 189.234 344.634H254.158C262.986 344.634 270.143 337.475 270.143 328.645V327.433C270.143 318.603 262.986 311.444 254.158 311.444Z" fill="#EFC037"/>
<path d="M194.25 331.182C194.25 334.2 191.822 336.219 188.033 336.536L187.534 339.032H185.266L185.765 336.536C183.609 336.332 181.703 335.652 180.547 334.789L182.066 331.975C183.269 332.86 184.789 333.427 186.355 333.586L187.126 329.752C185.016 329.116 182.702 328.277 182.702 325.531C182.702 322.513 185.175 320.471 189.032 320.198L189.531 317.702H191.799L191.3 320.222C192.911 320.379 194.386 320.834 195.475 321.514L194.091 324.328C193.115 323.671 191.936 323.284 190.71 323.148L189.917 327.142C192.004 327.755 194.25 328.572 194.25 331.182V331.182ZM187.761 326.507L188.419 323.239C187.126 323.489 186.4 324.191 186.378 325.054C186.378 325.758 186.944 326.166 187.761 326.507V326.507ZM190.574 331.771C190.574 331.113 190.052 330.704 189.259 330.41L188.646 333.518C189.871 333.268 190.574 332.634 190.574 331.771Z" fill="#393838"/>
<path d="M260.168 243.548H179.887V246.797H260.168V243.548Z" fill="#EFC037"/>
<path d="M260.168 190.205H179.887V193.454H260.168V190.205Z" fill="#EFC037"/>
<path d="M260.168 138.79H179.887V142.039H260.168V138.79Z" fill="#EFC037"/>
<path d="M229.15 175.901C234.547 170.503 234.547 161.752 229.15 156.354C223.753 150.956 215.004 150.956 209.607 156.354C204.211 161.752 204.211 170.503 209.607 175.901C215.004 181.299 223.753 181.299 229.15 175.901Z" fill="#B10043"/>
<path opacity="0.5" d="M229.15 175.901C234.547 170.503 234.547 161.752 229.15 156.354C223.753 150.956 215.004 150.956 209.607 156.354C204.211 161.752 204.211 170.503 209.607 175.901C215.004 181.299 223.753 181.299 229.15 175.901Z" fill="#B10043"/>
<path d="M223.477 158.316L211.568 170.227L215.279 173.939L227.188 162.027L223.477 158.316Z" fill="white"/>
<path d="M211.569 162.027L223.478 173.939L227.188 170.227L215.279 158.316L211.569 162.027Z" fill="white"/>
<path d="M422.385 575.287L434.839 577.567L444.261 554.578L430.655 549.143L422.385 575.287Z" fill="#FFC2BC"/>
<path opacity="0.1" d="M426.854 560.711L430.407 550.021L436.684 551.551L444.261 554.578L440.199 564.595L426.854 560.711Z" fill="black"/>
<path d="M419.951 570.979C419.897 570.93 419.467 570.537 418.822 570.03C418.355 569.67 417.8 569.245 417.191 568.836C415.884 567.954 414.363 567.155 413.205 567.162C412.742 567.165 412.297 567.332 411.978 567.614C411.553 567.93 411.396 568.458 411.577 568.935C411.957 569.741 413.638 570.456 415.351 570.875C415.744 570.955 416.119 571.035 416.512 571.115C417.565 571.307 418.618 571.449 419.688 571.525L419.705 571.525C419.83 571.524 419.954 571.457 420.007 571.325C420.077 571.209 420.041 571.078 419.951 570.979ZM417.347 570.649C415.009 570.25 412.544 569.523 412.199 568.701C412.145 568.586 412.108 568.372 412.463 568.056C412.657 567.874 412.924 567.773 413.209 567.788C413.441 567.787 413.655 567.819 413.869 567.867C415.388 568.451 416.784 569.267 418.039 570.298C418.272 570.462 418.505 570.658 418.738 570.855C418.292 570.808 417.828 570.728 417.347 570.649V570.649Z" fill="#407BFF"/>
<path d="M419.31 565.857C418.914 565.348 418.324 565.006 417.646 564.91C416.718 564.768 416.328 565.133 416.188 565.463C415.819 566.19 416.381 567.555 417.192 568.836C417.516 569.329 417.876 569.805 418.235 570.231C418.685 570.756 419.133 571.182 419.491 571.46C419.527 571.493 419.581 571.509 419.634 571.509C419.652 571.509 419.67 571.525 419.688 571.525L419.706 571.525C419.759 571.541 419.813 571.557 419.866 571.54C419.973 571.507 420.062 571.407 420.078 571.308C420.096 571.242 420.181 570.665 420.211 569.874C420.274 568.653 420.155 566.923 419.31 565.857V565.857ZM419.467 570.521C419.305 570.357 419.126 570.193 418.964 569.996C417.671 568.586 416.48 566.401 416.778 565.658C416.813 565.591 416.918 565.377 417.525 565.472L417.704 565.537C418.114 565.633 418.472 565.862 418.724 566.173C419.356 567.34 419.633 568.624 419.534 569.91C419.518 570.108 419.501 570.306 419.467 570.521V570.521Z" fill="#407BFF"/>
<path d="M421.588 570.069L436.641 573.669C437.208 573.804 437.598 574.286 437.58 574.827L437.134 586.803C437.103 587.866 436.146 588.704 434.997 588.676C434.849 588.672 434.703 588.653 434.56 588.621C429.157 587.236 424.409 585.808 417.651 584.201C409.677 582.297 411.454 583.662 402.046 581.544C396.379 580.263 397.006 574.079 399.482 574.359C410.798 575.704 412.792 572.916 418.034 570.299C419.148 569.822 420.413 569.74 421.588 570.069V570.069Z" fill="#263238"/>
<path d="M512.028 577.548H523.952L527.471 557.791L512.892 555.068L512.028 577.548Z" fill="#FFC2BC"/>
<path opacity="0.1" d="M512.892 555.068L527.471 557.791L525.1 571.101L512.406 570.581L512.892 555.068Z" fill="black"/>
<path d="M530.047 567.465L508.632 566.244L507.986 557.802L531.941 559.44L530.047 567.465Z" fill="#407BFF"/>
<path opacity="0.5" d="M530.047 567.465L508.632 566.244L507.986 557.802L531.941 559.44L530.047 567.465Z" fill="white"/>
<path d="M510.293 577.862C510.226 577.828 509.744 577.545 509.028 577.196C508.546 576.963 507.947 576.697 507.299 576.447C505.885 575.882 504.271 575.449 503.207 575.749C502.791 575.849 502.442 576.115 502.226 576.481C501.926 576.897 501.926 577.446 502.209 577.862C502.758 578.56 504.471 578.86 506.117 578.843C506.484 578.843 506.85 578.826 507.215 578.81C508.197 578.743 509.178 578.627 510.143 578.444H510.193C510.309 578.41 510.409 578.311 510.442 578.178C510.459 578.061 510.392 577.928 510.293 577.862V577.862ZM507.847 578.161C505.636 578.327 503.24 578.194 502.725 577.479C502.625 577.379 502.542 577.196 502.775 576.797C502.908 576.564 503.124 576.398 503.39 576.348C503.589 576.298 503.789 576.264 503.989 576.264C505.519 576.481 506.999 576.947 508.38 577.645C508.646 577.745 508.912 577.878 509.162 578.028C508.745 578.078 508.296 578.128 507.847 578.161Z" fill="#407BFF"/>
<path d="M510.492 578.144C510.492 578.078 510.425 577.495 510.259 576.714C509.976 575.499 509.427 573.852 508.396 573.004C507.914 572.605 507.282 572.405 506.65 572.488C505.768 572.571 505.502 573.004 505.469 573.37C505.319 574.185 506.201 575.399 507.299 576.447C507.698 576.847 508.13 577.213 508.546 577.512C509.078 577.928 509.594 578.244 510.009 578.427C510.043 578.444 510.093 578.46 510.142 578.444H510.193C510.194 578.443 510.196 578.441 510.198 578.441C510.251 578.449 510.305 578.454 510.359 578.427C510.442 578.361 510.509 578.261 510.492 578.144V578.144ZM506.051 573.42C506.068 573.336 506.117 573.12 506.683 573.054L506.85 573.07C507.249 573.07 507.648 573.203 507.947 573.47C508.812 574.451 509.378 575.649 509.627 576.913C509.677 577.13 509.71 577.329 509.727 577.529C509.544 577.412 509.344 577.279 509.144 577.146C507.614 576.065 505.984 574.218 506.051 573.42Z" fill="#407BFF"/>
<path d="M511.532 576.577L526.041 576.495C526.588 576.492 527.064 576.868 527.186 577.401L529.876 589.192C530.122 590.236 529.475 591.282 528.432 591.528C528.298 591.56 528.161 591.577 528.023 591.58C522.793 591.519 518.14 591.258 511.629 591.305C503.944 591.35 505.899 592.259 496.866 592.438C491.424 592.541 490.392 586.358 492.698 586.041C503.254 584.651 504.333 581.454 508.386 577.65C509.268 576.918 510.387 576.536 511.532 576.577V576.577Z" fill="#263238"/>
<path d="M485.153 285.729L428.925 548.942L449.652 554.461C465.152 520.533 478.135 485.827 487.823 458.677C492.419 445.798 494.266 433.682 497.779 422.33C501.955 408.835 507.589 396.419 510.459 385.082C525.485 325.733 524.27 295.995 524.27 295.995L527.472 288.17L485.153 285.729V285.729Z" fill="#263238"/>
<path opacity="0.3" d="M519.639 342.22C517.595 354.188 514.663 368.474 510.459 385.082C509.093 390.476 499.94 416.448 497.778 422.33C495.241 384.314 503.923 320.051 503.923 320.051L519.639 342.22V342.22Z" fill="black"/>
<path d="M502.423 287.085L506.66 431.68L510.372 558.339L529.914 559.688C535.356 528.681 539.342 500.55 542.212 475.218C544.087 458.669 540.9 446.564 541.917 432.384C542.085 430.028 542.276 427.605 542.482 425.146C545.892 384.54 546.194 343.719 543.182 303.081C542.609 295.337 542.226 290.16 542.226 290.16L502.423 285.07V287.085V287.085Z" fill="#263238"/>
<path d="M446.911 561.797L426.413 555.475L427.811 547.125L450.674 554.461L446.911 561.797Z" fill="#407BFF"/>
<path opacity="0.5" d="M446.911 561.797L426.413 555.475L427.811 547.125L450.674 554.461L446.911 561.797Z" fill="white"/>
<path d="M499.628 195.395C499.074 196.173 494.44 202.584 491.193 213.892C490.401 216.625 489.688 219.631 489.154 222.931L487.727 226.82L475.193 221.838L473.213 221.06C476.262 207.292 488.084 194.848 496.856 195.037C498.025 195.059 498.935 195.142 499.628 195.395V195.395Z" fill="#393838"/>
<path d="M484.014 284.499C485.531 281.13 485.34 274.537 490.325 273.299C496.951 271.653 502.4 271.175 528.484 273.393C540.785 274.439 543.517 284.274 543.164 289.32C543.116 289.996 542.887 290.639 542.502 291.197L541.983 291.946C540.756 292.415 484.945 286.224 484.393 286.567C484.393 286.567 483.514 285.607 484.014 284.499V284.499Z" fill="#080B0C"/>
<path d="M497.528 195.294C497.171 195.955 486.079 197.11 486.956 245.731C487.069 251.976 485.481 265.252 485.481 265.252C485.483 265.265 485.481 265.278 485.477 265.289L483.871 269.328C482.55 272.652 482.753 276.39 484.428 279.551L485.23 281.063C485.241 281.084 485.262 281.099 485.286 281.101L541.531 286.824C541.546 286.825 541.562 286.822 541.575 286.814L543.193 286.824C543.193 286.824 546.819 257.453 551.66 237.825C553.24 231.418 554.957 223.562 554.957 223.562C553.027 209.573 553.254 201.091 553.303 201.184C553.321 201.22 553.293 201.102 553.254 201.091C546.439 199.075 539.485 197.557 532.45 196.548C524.979 195.399 517.435 194.784 509.877 194.71C502.753 194.89 497.539 195.274 497.528 195.294V195.294Z" fill="#B10043"/>
<path d="M532.306 170.964C530.282 178.127 527.764 191.325 532.462 196.6L528.902 200.316C522.643 206.85 511.619 203.629 509.861 194.752C518.084 193.461 516.344 185.195 517.849 177.206L532.306 170.964Z" fill="#FFC2BC"/>
<path opacity="0.2" d="M513.561 168.959C515.267 174.679 517.581 183.877 515.865 190.222C523.258 190.876 528.164 184.162 528.459 182.028C528.459 182.028 526.635 176.823 526.33 174.277L513.561 168.959V168.959Z" fill="black"/>
<path d="M534.472 159.761C533.588 171.942 533.478 177.111 527.26 183.293C517.904 192.594 503.15 188.846 500.373 176.664C497.871 165.686 499.732 147.631 511.711 142.904C520.26 139.502 529.947 143.675 533.349 152.226C534.3 154.617 534.685 157.196 534.472 159.761V159.761Z" fill="#FFC2BC"/>
<path d="M541.51 154.118C540.208 158.731 539.591 162.945 539.051 168.179C537.556 168.158 535.909 168.156 534.413 168.135C533.564 168.983 533.211 170.307 533.646 171.425C532.907 171.052 532.157 170.605 531.736 169.892C531.339 169.22 531.29 168.405 531.237 167.626C531.037 164.691 530.899 161.591 530.29 158.712C527.9 157.743 525.14 157.99 522.907 156.701C517.921 153.824 513.516 149.995 510.135 145.336C506.443 146.919 503.587 150.481 502.413 154.323C501.36 154.621 500.206 154.031 499.564 153.144C498.922 152.257 498.702 151.135 498.609 150.045C498.366 147.187 498.939 144.174 500.678 141.894C501.888 140.308 503.722 139.132 505.702 138.811C506.562 138.671 507.437 138.881 508.216 138.512C509.057 138.113 509.812 137.1 510.65 136.595C514.343 134.372 519.04 134.08 523.142 135.192C528.338 136.6 532.776 139.975 536.7 143.66C538.835 145.666 542.306 151.298 541.51 154.118V154.118Z" fill="#263238"/>
<path d="M538.721 171.473C537.53 173.516 535.578 175.002 533.293 175.608C530.269 176.376 528.823 173.657 529.722 170.836C530.522 168.285 533.094 164.87 536.088 165.282C538.271 165.67 539.727 167.755 539.339 169.939C539.242 170.488 539.031 171.01 538.721 171.473V171.473Z" fill="#FFC2BC"/>
<path d="M515.616 162.826C515.603 163.887 515.021 164.729 514.337 164.74C513.655 164.75 513.081 163.863 513.094 162.803C513.107 161.742 513.689 160.899 514.372 160.889C515.055 160.879 515.629 161.765 515.616 162.826V162.826Z" fill="#263238"/>
<path d="M503.57 162.695C503.543 163.761 502.975 164.599 502.278 164.615C501.58 164.63 501.021 163.738 501.043 162.657C501.065 161.577 501.623 160.759 502.321 160.744C503.018 160.728 503.621 161.603 503.57 162.695V162.695Z" fill="#263238"/>
<path d="M508.314 164.903C507.334 167.322 506.029 169.598 504.436 171.666C505.526 172.462 506.912 172.735 508.222 172.411L508.314 164.903Z" fill="#EC837E"/>
<path d="M511.999 176.016C511.397 176.27 510.771 176.463 510.13 176.59C509.986 176.623 509.843 176.534 509.81 176.39C509.81 176.39 509.81 176.389 509.81 176.388C509.793 176.247 509.883 176.116 510.02 176.081C512.686 175.594 514.957 173.857 516.126 171.411C516.159 171.277 516.29 171.191 516.426 171.213C516.555 171.228 516.647 171.345 516.632 171.473C516.631 171.487 516.628 171.501 516.624 171.514C515.728 173.56 514.068 175.175 511.999 176.016Z" fill="#263238"/>
<path d="M519.85 156.803C519.712 156.847 519.553 156.806 519.43 156.694C518.35 155.659 516.941 155.193 515.654 155.443C515.432 155.497 515.186 155.344 515.096 155.096C515.009 154.848 515.115 154.598 515.333 154.537C515.336 154.536 515.339 154.535 515.342 154.534C516.896 154.21 518.605 154.761 519.919 156.009C520.109 156.186 520.157 156.475 520.028 156.666C519.982 156.729 519.921 156.776 519.85 156.803Z" fill="#263238"/>
<path d="M500.385 157.363C500.213 157.428 500.019 157.392 499.881 157.272C499.662 157.088 499.634 156.763 499.817 156.544C499.818 156.543 499.818 156.542 499.819 156.541C501.064 154.999 502.984 154.163 504.961 154.304C505.237 154.326 505.444 154.566 505.422 154.842C505.422 154.856 505.42 154.87 505.417 154.884C505.379 155.166 505.119 155.364 504.836 155.326C504.835 155.326 504.834 155.326 504.833 155.326C503.204 155.238 501.634 155.94 500.611 157.21C500.551 157.28 500.473 157.334 500.385 157.363V157.363Z" fill="#263238"/>
<path d="M530.478 192.713L534.973 196.942C534.973 196.942 518.723 208.315 518.462 207.587C518.202 206.86 514.832 203.06 514.832 203.06L530.478 192.713Z" fill="#393838"/>
<path d="M514.063 192.317L508.329 194.599C508.329 194.599 509.297 206.873 509.807 206.292C510.317 205.711 514.846 203.416 514.846 203.416L514.063 192.317Z" fill="#393838"/>
<path d="M511.003 243.02C512.045 244.557 520.508 243.021 520.508 243.021L527.759 243.515C528.552 243.528 529.24 242.928 529.352 242.135L531.375 232.968C531.43 232.512 531.13 232.118 530.694 232.043L524.955 231.007C522.646 230.591 520.266 231.095 518.325 232.413L512.256 236.533L511.003 243.02V243.02Z" fill="#FFC2BC"/>
<path d="M512.599 236.081L512.223 243.151C512.223 243.151 479.59 255.411 470.224 250.044C464.086 246.538 470.224 231.664 475.194 221.801L487.728 226.495L483.59 237.289L512.599 236.081Z" fill="#FFC2BC"/>
<g opacity="0.1">
<path d="M511.003 243.02C512.045 244.557 520.508 243.021 520.508 243.021L527.759 243.515C528.552 243.528 529.24 242.928 529.352 242.135L531.375 232.968C531.43 232.512 531.13 232.118 530.694 232.043L524.955 231.007C522.646 230.591 520.266 231.095 518.325 232.413L512.256 236.533L511.003 243.02V243.02Z" fill="black"/>
<path d="M512.599 236.081L512.223 243.151C512.223 243.151 479.59 255.411 470.224 250.044C464.086 246.538 470.224 231.664 475.194 221.801L487.728 226.495L483.59 237.289L512.599 236.081Z" fill="black"/>
</g>
<path d="M551.234 206.256L527.16 239.385L491.913 232.887L490.325 239.834C490.325 239.834 524.474 258.418 533.797 252.974C543.12 247.53 558.807 214.581 558.807 214.581L551.234 206.256V206.256Z" fill="#FFC2BC"/>
<path d="M490.325 239.834C489.263 241.357 480.82 239.715 480.82 239.715L473.563 240.118C472.771 240.121 472.091 239.513 471.988 238.718L470.08 229.526C470.031 229.07 470.336 228.68 470.773 228.609L476.525 227.646C478.839 227.259 481.212 227.793 483.136 229.136L491.933 233.116L490.325 239.834V239.834Z" fill="#FFC2BC"/>
<path d="M555.801 203.147C561.471 209.846 559.802 226.41 551.638 236.947L531.739 225.252C531.739 225.252 543.416 205.529 549.862 201.648C552.612 199.993 553.727 200.696 555.801 203.147Z" fill="#393838"/>
<path d="M376.68 579.695L389.303 581.431L402.196 556.257L388.24 553.938L376.68 579.695Z" fill="#FFC2BC"/>
<path opacity="0.2" d="M388.241 553.938L402.196 556.257L395.167 569.957L381.94 567.964L388.241 553.938Z" fill="black"/>
<path d="M392.974 576.647L377.366 575.795C376.836 575.756 376.355 576.104 376.225 576.62L373.069 587.93C372.792 588.928 373.376 589.962 374.375 590.239C374.384 590.242 374.394 590.245 374.403 590.247L374.82 590.27C379.871 590.459 383.512 590.344 389.911 590.694C393.813 590.907 405.583 591.967 410.976 592.261C416.37 592.556 417.355 587.252 415.179 586.646C405.394 583.954 398.121 580.495 395.083 577.528C394.518 576.976 393.763 576.661 392.974 576.647V576.647Z" fill="#263238"/>
<path d="M393.765 578.396C393.644 578.359 393.559 578.25 393.554 578.123C393.532 578.003 393.596 577.883 393.709 577.835C394.176 577.565 398.477 575.243 399.859 576.049C400.176 576.223 400.361 576.567 400.333 576.927C400.435 577.588 400.149 578.249 399.597 578.627C398.845 579.072 397.965 579.25 397.099 579.134C395.964 579.01 394.846 578.763 393.765 578.396ZM399.152 576.584C397.581 576.779 396.061 577.268 394.673 578.027C396.137 578.627 397.776 578.635 399.246 578.051C399.572 577.795 399.75 577.394 399.722 576.981C399.718 576.737 399.551 576.606 399.551 576.606C399.422 576.564 399.284 576.557 399.152 576.584V576.584Z" fill="#407BFF"/>
<path d="M393.74 578.551C393.651 578.484 393.604 578.376 393.616 578.265C393.627 578.075 394.071 574.393 395.628 573.278C396 572.981 396.483 572.861 396.95 572.95C397.423 572.975 397.812 573.332 397.878 573.801C398.064 575.168 395.343 577.855 393.985 578.512L393.829 578.503C393.803 578.525 393.772 578.541 393.74 578.551V578.551ZM396.698 573.423C396.447 573.422 396.203 573.507 396.007 573.664C395.041 574.772 394.433 576.145 394.261 577.605C395.633 576.688 397.398 574.627 397.27 573.785C397.257 573.697 397.235 573.47 396.853 573.449L396.697 573.441L396.698 573.423V573.423Z" fill="#407BFF"/>
<path d="M309.368 506.563L318.619 506.912C334.007 506.194 349.282 503.921 364.213 500.129C377.573 496.892 399.725 486.646 399.725 486.646C392.6 517.155 379.762 563.647 379.762 563.647L399.607 565.942C399.607 565.942 451.277 467.472 428.473 456.194C408.097 445.318 329.241 452.458 329.241 452.458L321.109 443.931L266.034 448.363C266.034 448.363 255.487 506.492 309.368 506.563V506.563Z" fill="#263238"/>
<path d="M400.875 569.951L378.17 563.066L380.895 553.601L405.501 562.96L400.875 569.951Z" fill="#407BFF"/>
<path opacity="0.5" d="M400.875 569.951L378.17 563.066L380.895 553.601L405.501 562.96L400.875 569.951Z" fill="white"/>
<path opacity="0.4" d="M316.214 485.034C321.74 501.229 363.832 499.659 369.69 498.873C335.051 505.549 328.512 506.45 318.619 506.912L309.367 506.563C306.281 506.56 303.431 506.325 300.755 505.93C305.034 478.006 309.524 465.425 316.214 485.034Z" fill="black"/>
<path d="M202.78 551.65L201.15 564.406L230.587 569.219L232.218 556.428L202.78 551.65Z" fill="#FFC2BC"/>
<path d="M203.763 566.18L212.915 553.422C213.22 552.999 213.19 552.421 212.843 552.031L205.027 543.273C204.317 542.502 203.119 542.448 202.342 543.15C202.258 543.261 202.187 543.382 202.132 543.51C199.244 547.657 197.372 550.788 193.644 555.993C191.365 559.167 184.133 568.54 180.997 572.904C177.861 577.268 181.766 580.982 183.453 579.473C190.991 572.674 197.773 568.371 201.936 567.446C202.683 567.269 203.336 566.817 203.763 566.18V566.18Z" fill="#263238"/>
<path d="M201.799 565.856C201.897 565.783 202.028 565.773 202.136 565.831C202.254 565.874 202.32 566 202.288 566.122C202.267 566.673 201.916 571.54 200.491 572.255C200.17 572.427 199.779 572.402 199.484 572.189C198.924 571.904 198.563 571.338 198.538 570.71C198.552 569.833 198.875 568.988 199.45 568.325C200.141 567.419 200.929 566.591 201.799 565.856V565.856ZM201.634 566.826C200.338 567.742 199.444 569.122 199.139 570.68C199.175 571.097 199.42 571.468 199.791 571.664C200.001 571.787 200.149 571.774 200.193 571.699C200.321 571.647 200.426 571.552 200.491 571.43C201.157 569.981 201.545 568.419 201.634 566.826V566.826Z" fill="#407BFF"/>
<path d="M201.813 565.764C201.913 565.729 202.024 565.742 202.114 565.799C202.261 565.926 205.076 568.337 205.184 570.252C205.233 570.72 205.077 571.187 204.757 571.532C204.479 571.916 203.971 572.055 203.537 571.864C202.267 571.282 201.478 567.54 201.661 566.057L201.74 565.922C201.74 565.861 201.766 565.803 201.813 565.764ZM204.67 570.374C204.255 568.963 203.423 567.711 202.283 566.783C202.313 568.452 203.145 570.951 203.88 571.381C203.964 571.409 204.197 571.526 204.39 571.196L204.469 571.061C204.612 570.862 204.683 570.619 204.67 570.374Z" fill="#407BFF"/>
<path opacity="0.2" d="M232.201 556.427L230.57 569.219L215.394 566.728L217.024 553.954L232.201 556.427Z" fill="black"/>
<path d="M317.375 472.95C321.854 480.048 337.36 565.676 308.433 584.813C287.126 598.861 220.045 572.267 220.045 572.267L222.193 551.01C222.193 551.01 276.686 561.207 283.415 555.724C290.144 550.241 267.67 490.797 266.559 476.822C265.447 462.846 317.375 472.95 317.375 472.95Z" fill="#263238"/>
<path d="M218.55 573.809L219.286 550.089L229.132 550.258L226.502 576.457L218.55 573.809Z" fill="#407BFF"/>
<path opacity="0.5" d="M218.55 573.809L219.286 550.089L229.132 550.258L226.502 576.457L218.55 573.809Z" fill="white"/>
<path d="M323.456 446.176C321.712 442.917 316.421 436.542 311.322 435.649C304.543 434.461 303.105 434.204 276.974 438.212C264.651 440.103 263.759 449.785 264.438 454.799C264.529 455.471 264.8 456.097 265.224 456.627L265.794 457.34C267.061 457.724 322.628 447.962 323.206 448.266C323.206 448.266 324.03 447.247 323.456 446.176V446.176Z" fill="#407BFF"/>
<path opacity="0.2" d="M323.456 446.176C321.712 442.917 316.421 436.542 311.322 435.649C304.543 434.461 303.105 434.204 276.974 438.212C264.651 440.103 263.759 449.785 264.438 454.799C264.529 455.471 264.8 456.097 265.224 456.627L265.794 457.34C267.061 457.724 322.628 447.962 323.206 448.266C323.206 448.266 324.03 447.247 323.456 446.176V446.176Z" fill="white"/>
<path d="M383.763 352.559C387.353 352.292 390.876 351.16 393.951 349.286C396.081 347.988 398.01 345.581 399.296 343.698C399.747 343.038 399.925 342.238 399.821 341.446C399.576 339.593 398.864 337.858 397.715 336.407C397.083 335.609 395.908 335.493 395.083 336.089C393.208 337.445 391.061 338.848 389.369 340.172C384.604 341.067 380.094 345.447 379.699 350.28C380.99 350.955 382.471 351.884 383.763 352.559V352.559Z" fill="#FFC2BC"/>
<path d="M385.848 346.174L387.147 352.471C387.147 352.471 355.889 374.606 349.928 374.937C345.835 375.15 341.094 375.369 336.188 375.526C330.56 375.722 324.7 375.84 319.377 375.807C309.749 375.721 301.876 375.099 300.265 373.406C295.399 368.25 300.601 360.139 308.225 360.207C318.148 360.312 335.481 362.665 351.958 362.039C357.592 361.825 385.848 346.174 385.848 346.174V346.174Z" fill="#FFC2BC"/>
<path opacity="0.2" d="M336.189 375.526C330.56 375.722 324.7 375.84 319.377 375.807L313.482 367.334C322.116 369.307 330.696 372.937 336.189 375.526V375.526Z" fill="black"/>
<path d="M316.705 358.389C316.705 358.389 302.928 355.786 300.592 362.438C298.257 369.09 304.387 380.961 323.545 378.879L325.5 358.607L316.705 358.389Z" fill="#407BFF"/>
<path opacity="0.2" d="M316.705 358.389C316.705 358.389 302.928 355.786 300.592 362.438C298.257 369.09 304.387 380.961 323.545 378.879L325.5 358.607L316.705 358.389Z" fill="white"/>
<path d="M306.143 358.558C306.521 359.207 317.001 373.005 318.464 383.754C319.52 391.509 318.461 399.949 318.315 408.632C318.21 414.878 320.411 428.097 320.411 428.097C320.409 428.11 320.411 428.123 320.416 428.134L322.149 432.119C323.576 435.4 323.491 439.142 321.918 442.355L321.165 443.892C321.154 443.913 321.133 443.929 321.109 443.931L265.075 451.442C265.06 451.444 265.045 451.441 265.031 451.434L264.7 451.255C264.7 451.255 259.704 447.086 261.359 441.78L261.387 437.663C263.618 430.336 262.923 420.895 257.46 401.431C255.676 395.078 253.71 387.28 253.71 387.28C255.194 373.237 250.63 366.126 250.584 366.221C250.566 366.257 250.591 366.138 250.63 366.126C257.378 363.894 264.279 362.155 271.279 360.924C278.709 359.536 286.23 358.682 293.782 358.368C300.907 358.321 306.131 358.538 306.143 358.558V358.558Z" fill="#B10043"/>
<path d="M300.609 309.165C304.13 313.244 304.895 318.974 306.387 324.152C307.602 328.371 310.244 336.944 308.6 341.016C306.733 345.639 297.546 341.722 294.494 345.665C282.343 361.366 275.075 354.604 270.348 350.73C268.012 348.815 259.127 346.908 256.832 344.945C254.518 342.965 250.63 341.984 252.318 334.349C259.08 303.768 270.303 301.97 285.265 302.789C291.01 303.103 296.731 304.674 300.609 309.165Z" fill="#263238"/>
<path d="M270.607 335.348C272.858 342.442 275.795 355.554 271.268 360.975L274.943 364.576C281.408 370.908 292.323 367.338 293.798 358.409C285.538 357.38 287.015 349.063 285.256 341.126L270.607 335.348V335.348Z" fill="#FFC2BC"/>
<path opacity="0.2" d="M289.28 332.747C287.757 338.518 285.736 347.786 287.653 354.072C280.285 354.962 275.168 348.407 274.805 346.283C274.805 346.283 276.462 341.023 276.687 338.469L289.28 332.747V332.747Z" fill="black"/>
<path d="M268.086 324.219C269.357 336.366 269.632 341.528 276.043 347.51C285.69 356.508 300.318 352.292 302.705 340.028C304.857 328.976 302.422 310.989 290.299 306.646C281.646 303.518 272.097 307.998 268.969 316.652C268.094 319.073 267.792 321.663 268.086 324.219Z" fill="#FFC2BC"/>
<path d="M271.011 330.6C271.956 332.217 272.469 334.085 272.482 335.958C273.669 335.338 273.786 333.656 273.4 332.373C273.015 331.091 272.342 330.463 271.011 330.6Z" fill="#263238"/>
<path d="M264.212 336.06C265.468 338.064 267.466 339.488 269.769 340.02C272.817 340.692 274.175 337.929 273.187 335.137C272.306 332.614 269.626 329.282 266.648 329.789C264.478 330.246 263.089 332.376 263.546 334.547C263.661 335.093 263.888 335.608 264.212 336.06Z" fill="#FFC2BC"/>
<path d="M285.461 327.067C285.508 328.127 286.116 328.951 286.799 328.939C287.482 328.928 288.028 328.023 287.981 326.964C287.934 325.904 287.325 325.08 286.643 325.092C285.96 325.103 285.414 326.008 285.461 327.067V327.067Z" fill="#263238"/>
<path d="M297.496 326.553C297.557 327.618 298.151 328.437 298.849 328.43C299.547 328.424 300.078 327.514 300.021 326.435C299.965 325.355 299.38 324.556 298.683 324.563C297.985 324.569 297.41 325.463 297.496 326.553Z" fill="#263238"/>
<path d="M298.375 324.638L300.883 323.852C300.883 323.852 299.697 325.792 298.375 324.638Z" fill="#263238"/>
<path d="M294.395 328.525C295.452 330.913 296.828 333.145 298.486 335.162C297.422 335.992 296.045 336.309 294.725 336.027L294.395 328.525V328.525Z" fill="#EC837E"/>
<path d="M291.065 339.75C291.675 339.985 292.307 340.158 292.952 340.264C293.096 340.293 293.236 340.199 293.265 340.055C293.265 340.054 293.265 340.053 293.265 340.052C293.278 339.911 293.184 339.783 293.045 339.753C290.365 339.351 288.04 337.687 286.794 335.279C286.756 335.146 286.623 335.065 286.487 335.091C286.359 335.11 286.271 335.23 286.29 335.358C286.292 335.371 286.295 335.385 286.299 335.398C287.26 337.414 288.97 338.976 291.065 339.75Z" fill="#263238"/>
<path d="M282.556 319.173C282.694 319.213 282.853 319.167 282.972 319.051C284.019 317.982 285.412 317.471 286.706 317.681C286.93 317.728 287.171 317.566 287.253 317.315C287.332 317.065 287.218 316.818 286.998 316.764C286.995 316.764 286.992 316.763 286.989 316.763C285.426 316.488 283.735 317.093 282.462 318.382C282.277 318.565 282.238 318.856 282.374 319.043C282.421 319.104 282.484 319.149 282.556 319.173V319.173Z" fill="#263238"/>
<path d="M302.028 319.114C302.202 319.173 302.394 319.131 302.529 319.006C302.742 318.816 302.76 318.49 302.57 318.277C302.569 318.276 302.568 318.275 302.568 318.274C301.274 316.773 299.328 315.998 297.357 316.202C297.082 316.232 296.883 316.479 296.913 316.754C296.914 316.768 296.917 316.782 296.919 316.796C296.967 317.077 297.233 317.267 297.514 317.22C297.515 317.219 297.517 317.219 297.518 317.219C299.143 317.08 300.735 317.731 301.797 318.968C301.859 319.036 301.939 319.087 302.028 319.114V319.114Z" fill="#263238"/>
<path d="M286.34 325.152L288.848 324.366C288.848 324.366 287.641 326.366 286.34 325.152Z" fill="#263238"/>
<path d="M279.705 312.349C283.286 316.734 270.319 328.204 271.01 330.6C267.487 330.826 264.878 323.441 264.687 319.61C264.497 315.778 265.732 311.893 268.099 308.875C269.617 306.94 272.417 306.572 274.855 306.254C275.574 306.16 276.337 306.104 276.994 306.41C277.832 306.8 278.325 307.717 278.453 308.633C278.581 309.548 279.12 311.633 279.705 312.349V312.349Z" fill="#263238"/>
<path d="M274.855 306.254C280.575 310.882 281.107 317.051 279.813 322.242C281.367 320.813 282.739 319.472 283.649 317.567C284.559 315.661 284.64 313.204 283.287 311.583C286.731 313.944 289.04 318.089 289.676 322.217C291.192 321.23 292.012 319.382 292.192 317.582C292.373 315.782 291.699 313.914 290.41 312.645C292.806 314.782 294.257 318.433 293.588 321.574C295.243 320.08 296.256 318.329 296.101 316.105C295.947 313.88 294.723 311.754 292.877 310.503C296.237 312.45 298.697 316.117 298.615 320C302.325 316.398 301.073 311.253 296.527 308.424C291.982 305.595 282.374 303.684 274.855 306.254Z" fill="#263238"/>
<path d="M273.08 357.027L268.722 361.397C268.722 361.397 285.325 372.247 285.563 371.511C285.8 370.776 289.047 366.871 289.047 366.871L273.08 357.027Z" fill="#407BFF"/>
<path d="M289.474 356.109L295.278 358.207C295.278 358.207 294.701 370.506 294.173 369.941C293.645 369.377 289.045 367.227 289.045 367.227L289.474 356.109Z" fill="#407BFF"/>
<path opacity="0.2" d="M273.08 357.027L268.722 361.397C268.722 361.397 285.325 372.247 285.563 371.511C285.8 370.776 289.047 366.871 289.047 366.871L273.08 357.027Z" fill="white"/>
<path opacity="0.2" d="M289.474 356.109L295.278 358.207C295.278 358.207 294.701 370.506 294.173 369.941C293.645 369.377 289.045 367.227 289.045 367.227L289.474 356.109Z" fill="white"/>
<path d="M183.832 408.259L169.854 409.587L174.735 420.575C174.735 420.575 182.299 417.208 185.574 414.548L183.832 408.259V408.259Z" fill="#FFC2BC"/>
<path d="M164.693 417.999L164.923 418.397C165.793 419.906 167.424 420.813 169.166 420.757L174.735 420.575L169.854 409.587L166.439 411.54C164.17 412.838 163.387 415.733 164.693 417.999V417.999Z" fill="#FFC2BC"/>
<path d="M186.976 414.135C186.976 414.135 211.417 416.389 234.29 405.581C234.29 405.581 249.676 392.763 257.982 381.989C270.323 365.983 258.845 361.147 249.74 371.486C242.984 379.158 227.322 393.966 227.322 393.966C207.653 405.388 182.113 408.88 182.113 408.88C177.166 416.019 186.976 414.135 186.976 414.135V414.135Z" fill="#FFC2BC"/>
<path d="M265.068 365.397C270.879 370.057 262.21 382.24 250.914 396.885L236.897 378.697C236.897 378.697 254.67 357.057 265.068 365.397V365.397Z" fill="#407BFF"/>
<path opacity="0.2" d="M265.068 365.397C270.879 370.057 262.21 382.24 250.914 396.885L236.897 378.697C236.897 378.697 254.67 357.057 265.068 365.397V365.397Z" fill="white"/>
</g>
<defs>
<clipPath id="clip0_114_2">
<rect width="812" height="599" fill="white"/>
</clipPath>
</defs>
</svg>
