<svg width="45" height="45" viewBox="0 0 45 45" fill="none" xmlns="http://www.w3.org/2000/svg">
<g clip-path="url(#clip0_38_896)">
<path d="M34.9283 3.37827C35.2926 3.37827 35.5875 3.08301 35.5875 2.71909V1.62595C35.5875 1.26168 35.2926 0.966766 34.9283 0.966766C34.5641 0.966766 34.2692 1.26168 34.2692 1.62595V2.71909C34.2692 3.08301 34.5644 3.37827 34.9283 3.37827Z" fill="#CB1F45"/>
<path d="M30.9039 3.72709C31.0134 3.97188 31.2537 4.11711 31.5057 4.11711C31.5957 4.11711 31.6874 4.09857 31.7749 4.05977C32.1069 3.91077 32.2559 3.5211 32.1072 3.18876L31.6602 2.19072C31.5116 1.85838 31.1216 1.70972 30.7892 1.85838C30.4572 2.00704 30.3082 2.39706 30.4572 2.72939L30.9039 3.72709Z" fill="#CB1F45"/>
<path d="M27.4263 5.28578L28.2424 6.01534C28.3681 6.12761 28.5253 6.18323 28.6815 6.18323C28.8628 6.18323 29.0431 6.10907 29.1732 5.9635C29.4159 5.69193 29.3926 5.27514 29.1213 5.03241L28.3053 4.30285C28.0337 4.06012 27.6169 4.08347 27.3745 4.35503C27.1318 4.62626 27.1551 5.04305 27.4263 5.28578Z" fill="#CB1F45"/>
<path d="M38.0818 4.05944C38.1693 4.09857 38.2606 4.11711 38.3509 4.11711C38.6026 4.11711 38.8432 3.97189 38.9528 3.7271L39.3998 2.72906C39.5484 2.39672 39.3998 2.00671 39.0674 1.85805C38.7354 1.70939 38.3451 1.85805 38.1964 2.19038L37.7498 3.18843C37.6008 3.52076 37.7494 3.91078 38.0818 4.05944Z" fill="#CB1F45"/>
<path d="M41.1751 6.18323C41.3313 6.18323 41.4886 6.12761 41.6142 6.01534L42.4303 5.28578C42.7015 5.04305 42.7249 4.62626 42.4821 4.35503C42.2394 4.08347 41.8226 4.06012 41.5514 4.30285L40.7353 5.03241C40.4641 5.27514 40.4407 5.69193 40.6835 5.9635C40.8136 6.10907 40.9942 6.18323 41.1751 6.18323Z" fill="#CB1F45"/>
<path d="M41.4422 9.06131C41.3399 8.7118 40.9746 8.51096 40.6244 8.61327C40.2749 8.71524 40.0744 9.08122 40.1763 9.43072C40.3202 9.9227 40.393 10.4343 40.393 10.9513C40.393 11.9112 40.1396 12.8543 39.66 13.6787C39.1934 14.4803 38.525 15.1556 37.7267 15.6315L37.4507 15.7956C37.2509 15.9147 37.1287 16.1296 37.1287 16.3621V17.1946H35.5875V14.515C36.294 14.2582 36.8015 13.5815 36.8015 12.7867V11.3472C36.8015 10.3326 35.9765 9.50728 34.9626 9.50728H34.8943C33.8805 9.50728 33.0555 10.3326 33.0555 11.3472V12.7867C33.0555 13.5815 33.5626 14.2582 34.2691 14.5147V17.1946H32.7283V16.3621C32.7283 16.1296 32.6057 15.9147 32.4062 15.7956L32.1302 15.6315C31.3316 15.1556 30.6632 14.4803 30.197 13.6787C29.7173 12.8543 29.4636 11.9112 29.4636 10.9513C29.4636 7.94722 31.915 5.50345 34.9283 5.50345C36.3586 5.50345 37.7123 6.05311 38.7399 7.05149C39.0008 7.30487 39.4183 7.29869 39.672 7.03776C39.9257 6.77684 39.9195 6.35935 39.6583 6.10564C38.3835 4.86727 36.7036 4.18509 34.9283 4.18509C31.1881 4.18509 28.1453 7.22041 28.1453 10.9513C28.1453 12.1437 28.4608 13.3161 29.0571 14.3416C29.627 15.3211 30.4397 16.1482 31.4099 16.7366V17.3017C31.0594 17.4731 30.817 17.8318 30.817 18.2476V21.2616C30.817 21.8419 31.2891 22.3143 31.8693 22.3143H32.8495V23.2409C32.8495 23.8733 33.3634 24.3876 33.9958 24.3876H35.8611C36.4932 24.3876 37.0078 23.8733 37.0078 23.2409V22.3143H37.9876C38.5679 22.3143 39.0403 21.8419 39.0403 21.2616V18.2476C39.0403 17.8318 38.7975 17.4731 38.447 17.3017V16.7366C39.4172 16.1482 40.2299 15.3211 40.7998 14.3416C41.3962 13.3161 41.7117 12.1437 41.7117 10.9513C41.7113 10.3093 41.6207 9.67345 41.4422 9.06131ZM34.3738 11.3472C34.3738 11.0594 34.6073 10.8256 34.8943 10.8256H34.9626C35.2496 10.8256 35.4831 11.0594 35.4831 11.3472V12.7867C35.4831 13.0744 35.2496 13.3082 34.9626 13.3082H34.8943C34.6073 13.3082 34.3738 13.0744 34.3738 12.7867V11.3472ZM35.6891 23.0692H34.1675V22.3143H35.6891V23.0692ZM37.7216 20.9959H32.135V18.513H37.7216V20.9959Z" fill="#CB1F45"/>
<path d="M25.7036 8.85152L26.7469 9.18626C26.8139 9.20755 26.8815 9.21785 26.9485 9.21785C27.2273 9.21785 27.4861 9.03966 27.5757 8.75985C27.687 8.4131 27.4961 8.04197 27.1493 7.93073L26.106 7.59633C25.7592 7.4851 25.3881 7.67598 25.2768 8.02274C25.1659 8.3695 25.3568 8.74063 25.7036 8.85152Z" fill="#CB1F45"/>
<path d="M25.5151 12.8121C25.5391 12.8121 25.5628 12.8107 25.5872 12.808L26.6766 12.6895C27.0384 12.6504 27.3 12.3253 27.2606 11.9631C27.2214 11.6012 26.8966 11.3392 26.5341 11.3791L25.4447 11.4975C25.0825 11.5366 24.8212 11.8621 24.8604 12.224C24.8975 12.5618 25.1831 12.8121 25.5151 12.8121Z" fill="#CB1F45"/>
<path d="M26.4348 15.3293C26.1204 15.5123 26.0139 15.9161 26.1973 16.2306C26.3198 16.4407 26.5406 16.5581 26.7675 16.5581C26.8801 16.5581 26.9941 16.5293 27.0988 16.4685L28.045 15.9171C28.3598 15.7338 28.4663 15.3304 28.2829 15.0159C28.0996 14.7011 27.6962 14.5946 27.3814 14.778L26.4348 15.3293Z" fill="#CB1F45"/>
<path d="M42.2809 8.75985C42.3709 9.03966 42.6297 9.21785 42.9085 9.21785C42.9751 9.21785 43.0431 9.20755 43.11 9.18626L44.1534 8.85152C44.4998 8.74063 44.6907 8.3695 44.5798 8.02274C44.4686 7.67598 44.0971 7.4851 43.7507 7.59633L42.7073 7.93073C42.3606 8.04197 42.1697 8.4131 42.2809 8.75985Z" fill="#CB1F45"/>
<path d="M44.4119 11.4975L43.3226 11.3791C42.96 11.3386 42.6352 11.6012 42.5957 11.9631C42.5566 12.3253 42.8179 12.6504 43.1801 12.6899L44.2694 12.8083C44.2938 12.8108 44.3178 12.8121 44.3415 12.8121C44.6735 12.8121 44.9592 12.5618 44.9959 12.2244C45.0354 11.8621 44.7741 11.537 44.4119 11.4975Z" fill="#CB1F45"/>
<path d="M43.4215 15.3294L42.4753 14.778C42.1608 14.595 41.757 14.7011 41.5737 15.0156C41.3904 15.3304 41.4968 15.7338 41.8116 15.9171L42.7578 16.4685C42.8622 16.5293 42.9765 16.5581 43.0891 16.5581C43.3161 16.5581 43.5368 16.4407 43.6594 16.2306C43.8424 15.9161 43.736 15.5123 43.4215 15.3294Z" fill="#CB1F45"/>
<path d="M7.34473 16.1653H14.0303C14.3942 16.1653 14.6894 15.8701 14.6894 15.5062C14.6894 15.1419 14.3942 14.847 14.0303 14.847H7.34473C6.98046 14.847 6.68555 15.1419 6.68555 15.5062C6.68555 15.8701 6.9808 16.1653 7.34473 16.1653Z" fill="#CB1F45"/>
<path d="M4.26477 32.7523H17.1099C17.4741 32.7523 17.769 32.4574 17.769 32.0931C17.769 31.7292 17.4741 31.434 17.1099 31.434H4.26477C3.90085 31.434 3.60559 31.7292 3.60559 32.0931C3.60559 32.4574 3.90085 32.7523 4.26477 32.7523Z" fill="#CB1F45"/>
<path d="M25.7969 25.7221C25.7969 23.5664 24.0443 21.8127 21.8903 21.8127C19.7359 21.8127 17.9836 23.5664 17.9836 25.7221C17.9836 27.8778 19.7359 29.6315 21.8903 29.6315C24.0443 29.6315 25.7969 27.8778 25.7969 25.7221ZM21.8899 23.131C23.2718 23.131 24.4037 24.2204 24.4748 25.5861C24.3687 25.5992 24.2616 25.6074 24.1538 25.6074C22.7719 25.6074 21.6396 24.5177 21.5692 23.152C21.6743 23.1386 21.7814 23.131 21.8899 23.131ZM19.3019 25.7221C19.3019 24.8916 19.695 24.1514 20.3041 23.6769C20.6186 25.5189 22.2247 26.9258 24.1538 26.9258C24.1631 26.9258 24.1723 26.9251 24.1816 26.9251C23.7476 27.7494 22.8838 28.3132 21.8899 28.3132C20.4631 28.3132 19.3019 27.1507 19.3019 25.7221Z" fill="#CB1F45"/>
<path d="M37.8428 36.1285L34.5053 34.3093C34.0614 34.0672 33.3453 33.8849 32.8395 33.8849H21.375V31.7913C21.5459 31.7996 21.7176 31.8051 21.8899 31.8051C25.8138 31.8051 29.4664 29.6881 31.423 26.2807C31.6207 25.9363 31.6207 25.5082 31.423 25.1631C29.4667 21.756 25.8138 19.6394 21.8899 19.6394C21.7176 19.6394 21.5459 19.6449 21.375 19.6528V11.4625C21.375 10.8569 20.8819 10.3639 20.2763 10.3639H8.17384C7.80957 10.3639 7.51466 10.6591 7.51466 11.023C7.51466 11.3873 7.80957 11.6822 8.17384 11.6822H20.0566V19.7949C19.5845 19.8753 19.1207 19.9862 18.6668 20.1263V19.5502C18.6668 18.9442 18.1742 18.4515 17.5682 18.4515H3.80677C3.2008 18.4515 2.70813 18.9442 2.70813 19.5502V28.733C2.70813 29.3386 3.2008 29.8317 3.80677 29.8317H15.6191C16.9392 30.749 18.4533 31.3763 20.0566 31.6496V33.8849H12.1293C11.6263 33.8849 11.1865 34.1562 10.9458 34.5592H4.26476C3.90084 34.5592 3.60558 34.8545 3.60558 35.2184C3.60558 35.5827 3.90084 35.8776 4.26476 35.8776H10.7508V37.6848H4.26476C3.90084 37.6848 3.60558 37.9797 3.60558 38.344C3.60558 38.7079 3.90084 39.0032 4.26476 39.0032H10.7611C10.8415 39.6861 11.4241 40.2182 12.1293 40.2182H20.0566V42.7499H1.31836V11.6822H5.00977C5.37404 11.6822 5.66895 11.3873 5.66895 11.023C5.66895 10.6591 5.37404 10.3639 5.00977 10.3639H1.09863C0.492669 10.3639 0 10.8569 0 11.4625V42.9693C0 43.5752 0.492669 44.0679 1.09863 44.0679H20.2763C20.8819 44.0679 21.375 43.5752 21.375 42.9693V40.2182H32.8395C33.3453 40.2182 34.0614 40.0356 34.5053 39.7935L37.8431 37.9743C38.2266 37.7648 38.4467 37.4287 38.4467 37.0514C38.4467 36.6744 38.2266 36.338 37.8428 36.1285ZM14.9215 38.8998H12.1293C12.098 38.8998 12.0692 38.872 12.0692 38.8418V35.2613C12.0692 35.2311 12.0977 35.2033 12.1293 35.2033H14.9215V38.8998ZM4.02649 28.5133V19.7699H17.3485V20.6272C15.2847 21.5668 13.5208 23.1369 12.3576 25.1631C12.1595 25.5082 12.1595 25.9367 12.3576 26.281C12.8303 27.1046 13.403 27.8521 14.0543 28.5133H4.02649ZM13.5575 25.7221C15.2923 22.7801 18.4746 20.9578 21.8903 20.9578C25.3057 20.9578 28.4879 22.7805 30.2231 25.7221C28.4876 28.6637 25.3053 30.4867 21.8903 30.4867C18.4749 30.4867 15.2926 28.6644 13.5575 25.7221ZM31.8906 36.3922H29.1797C28.8155 36.3922 28.5205 36.6875 28.5205 37.0514C28.5205 37.4157 28.8155 37.7106 29.1797 37.7106H31.8906V38.8998H16.2399V37.7106H26.1035C26.4675 37.7106 26.7627 37.4157 26.7627 37.0514C26.7627 36.6875 26.4675 36.3922 26.1035 36.3922H16.2399V35.2033H31.8906V36.3922ZM34.6248 38.2269L33.8743 38.6362C33.7154 38.7227 33.452 38.8065 33.209 38.8552V35.2476C33.4524 35.2967 33.7154 35.3801 33.8743 35.4666L34.6248 35.8759V38.2269ZM35.9432 37.5084V36.5948L36.7812 37.0514L35.9432 37.5084Z" fill="#CB1F45"/>
</g>
<defs>
<clipPath id="clip0_38_896">
<rect width="45" height="45" fill="white"/>
</clipPath>
</defs>
</svg>
