<svg width="45" height="45" viewBox="0 0 45 45" fill="none" xmlns="http://www.w3.org/2000/svg">
<path d="M43.3141 11.0239L32.4833 0.193096C32.364 0.0871875 32.2366 0.0028125 32.0171 0H13.7798C11.9624 0 10.4839 1.4785 10.4839 3.2959V11.1647H8.96702C8.49733 11.1647 8.11536 11.5467 8.11536 12.0163V13.1426C7.32153 13.4518 6.58527 13.8783 5.91941 14.4146L4.94699 13.852C4.74985 13.7378 4.52002 13.7076 4.30003 13.7665C4.08004 13.8255 3.89617 13.9666 3.78244 14.1639L1.60574 17.9421C1.3716 18.3483 1.51126 18.8699 1.91714 19.1046L2.89105 19.6681C2.82698 20.0883 2.79464 20.5147 2.79464 20.9399C2.79464 21.3651 2.82698 21.7914 2.89105 22.2118L1.91722 22.7753C1.51134 23.01 1.3716 23.5316 1.60565 23.9376L3.78244 27.7158C3.89617 27.9132 4.08004 28.0543 4.30003 28.1133C4.52002 28.1722 4.74985 28.142 4.9469 28.0278L5.91941 27.4651C6.58536 28.0015 7.32171 28.428 8.11545 28.7372V29.8635C8.11545 30.3331 8.49751 30.7151 8.96702 30.7151H13.32C13.7896 30.7151 14.1715 30.3331 14.1715 29.8635V28.7372C14.9654 28.428 15.7017 28.0015 16.3676 27.4652L17.3402 28.0279C17.5373 28.1419 17.767 28.1723 17.9871 28.1132C18.207 28.0542 18.3908 27.9131 18.5046 27.7158L20.6813 23.9377C20.9154 23.5315 20.7757 23.01 20.3699 22.7753L19.3959 22.2117C19.46 21.7915 19.4924 21.3651 19.4924 20.9399C19.4924 20.5147 19.46 20.0884 19.3959 19.668L20.3698 19.1045C20.7757 18.8698 20.9154 18.3482 20.6813 17.9421L18.5046 14.1639C18.3908 13.9666 18.207 13.8254 17.9871 13.7665C17.767 13.7074 17.5373 13.7378 17.34 13.8519L16.3676 14.4146C15.7017 13.8783 14.9655 13.4518 14.1715 13.1426V12.0163C14.1715 11.5467 13.7895 11.1647 13.32 11.1647H11.8022V3.2959C11.8022 2.20544 12.6894 1.31836 13.7797 1.31836H31.3578V3.95508H25.2255C24.8613 3.95508 24.5663 4.25021 24.5663 4.61426C24.5663 4.9783 24.8613 5.27344 25.2255 5.27344H31.3578V8.8534C31.3578 8.87599 31.359 8.8984 31.3595 8.9209H16.094C15.9728 8.9209 15.8743 8.82229 15.8743 8.70117V5.49316C15.8743 5.37205 15.9728 5.27344 16.094 5.27344H22.1493C22.5134 5.27344 22.8085 4.9783 22.8085 4.61426C22.8085 4.25021 22.5134 3.95508 22.1493 3.95508H16.094C15.2459 3.95508 14.5559 4.64511 14.5559 5.49316V8.70117C14.5559 9.54923 15.2459 10.2393 16.094 10.2393H31.6644C32.1889 11.3659 33.3313 12.1493 34.6538 12.1493H42.1887V41.7041C42.1887 42.7946 41.3015 43.6816 40.2112 43.6816H13.7798C12.6894 43.6816 11.8023 42.7946 11.8023 41.7041V33.1321C11.8023 32.7681 11.5072 32.4729 11.1431 32.4729C10.779 32.4729 10.4839 32.7681 10.4839 33.1321V41.7041C10.4839 43.5215 11.9624 45 13.7798 45H40.2112C42.0286 45 43.5071 43.5215 43.5071 41.7041V11.4918C43.5154 11.4217 43.4447 11.149 43.3141 11.0239ZM12.8533 12.483V13.4695C12.8533 13.8324 13.0845 14.1558 13.4286 14.2741C14.2868 14.5696 15.0705 15.0236 15.7579 15.6235C16.0329 15.8635 16.4292 15.9022 16.7442 15.7199L17.5958 15.2272L19.3066 18.1968L18.4537 18.6902C18.1398 18.8717 17.9756 19.2335 18.0449 19.5897C18.1307 20.0328 18.1742 20.4871 18.1742 20.94C18.1742 21.3928 18.1307 21.8471 18.045 22.2898C17.9756 22.6466 18.1398 23.0082 18.4536 23.1897L19.3066 23.6832L17.5958 26.6527L16.7443 26.16C16.4294 25.9777 16.0328 26.0165 15.7579 26.2565C15.0704 26.8564 14.2868 27.3103 13.4284 27.6059C13.0844 27.7245 12.8533 28.0477 12.8533 28.4105V29.397H9.4338V28.4105C9.4338 28.0477 9.20265 27.7244 8.85847 27.6058C8.0004 27.3104 7.21668 26.8565 6.5292 26.2564C6.2541 26.0164 5.85771 25.9778 5.5428 26.16L4.69131 26.6527L2.98052 23.6832L3.83368 23.1896C4.14727 23.008 4.31154 22.6463 4.24219 22.2904C4.15641 21.8472 4.11291 21.3928 4.11291 20.94C4.11291 20.4872 4.15641 20.0328 4.24211 19.5903C4.31145 19.2336 4.14736 18.8721 3.8335 18.6903L2.98052 18.1968L4.69131 15.2273L5.54306 15.7201C5.85789 15.9021 6.25427 15.8634 6.52928 15.6235C7.21668 15.0236 8.00031 14.5696 8.8583 14.2742C9.20248 14.1558 9.43372 13.8325 9.43372 13.4695V12.483H12.8533ZM34.6538 10.8309C33.7532 10.8309 32.9919 10.2256 32.7538 9.40069C32.7517 9.39322 32.7499 9.38575 32.7475 9.37846C32.7014 9.21111 32.6762 9.03516 32.6762 8.8534V4.61602C32.6762 4.6154 32.6763 4.61487 32.6763 4.61426C32.6763 4.61364 32.6762 4.61312 32.6762 4.6125V2.25044L41.2566 10.8308L34.6538 10.8309ZM6.90466 20.9399C6.90466 23.2773 8.80627 25.1788 11.1435 25.1788C13.4808 25.1788 15.3824 23.2773 15.3824 20.9399C15.3824 18.6026 13.4808 16.7011 11.1435 16.7011C8.80627 16.7011 6.90466 18.6026 6.90466 20.9399ZM14.0641 20.9399C14.0641 22.5504 12.754 23.8605 11.1436 23.8605C9.53321 23.8605 8.22302 22.5504 8.22302 20.9399C8.22302 19.3295 9.53312 18.0194 11.1435 18.0194C12.754 18.0194 14.0641 19.3295 14.0641 20.9399ZM38.893 18.5449H24.444C24.0799 18.5449 23.7848 18.8401 23.7848 19.2041C23.7848 19.5681 24.0799 19.8633 24.444 19.8633H38.8929C39.257 19.8633 39.5521 19.5681 39.5521 19.2041C39.5521 18.8401 39.257 18.5449 38.893 18.5449ZM18.5114 31.0693C18.5114 31.4334 18.8065 31.7285 19.1706 31.7285H38.8929C39.257 31.7285 39.5521 31.4334 39.5521 31.0693C39.5521 30.7053 39.257 30.4102 38.8929 30.4102H19.1706C18.8065 30.4102 18.5114 30.7053 18.5114 31.0693ZM14.5563 35.0244C14.5563 35.3885 14.8514 35.6836 15.2155 35.6836H38.8929C39.257 35.6836 39.5521 35.3885 39.5521 35.0244C39.5521 34.6604 39.257 34.3652 38.8929 34.3652H15.2155C14.8515 34.3652 14.5563 34.6604 14.5563 35.0244ZM15.2155 39.6387H38.8929C39.257 39.6387 39.5521 39.3435 39.5521 38.9795C39.5521 38.6154 39.257 38.3203 38.8929 38.3203H15.2155C14.8514 38.3203 14.5563 38.6154 14.5563 38.9795C14.5563 39.3435 14.8515 39.6387 15.2155 39.6387ZM38.893 14.5898H23.5228C23.1587 14.5898 22.8637 14.885 22.8637 15.249C22.8637 15.6131 23.1587 15.9082 23.5228 15.9082H38.893C39.2571 15.9082 39.5522 15.6131 39.5522 15.249C39.5522 14.885 39.257 14.5898 38.893 14.5898ZM22.4665 27.1143C22.4665 27.4783 22.7615 27.7734 23.1257 27.7734H38.8929C39.257 27.7734 39.5521 27.4783 39.5521 27.1143C39.5521 26.7502 39.257 26.4551 38.8929 26.4551H23.1257C22.7616 26.4551 22.4665 26.7502 22.4665 27.1143ZM38.893 22.5H24.444C24.0799 22.5 23.7848 22.7951 23.7848 23.1592C23.7848 23.5232 24.0799 23.8184 24.444 23.8184H38.8929C39.257 23.8184 39.5521 23.5232 39.5521 23.1592C39.5521 22.7951 39.257 22.5 38.893 22.5Z" fill="#6A26DA"/>
</svg>
