<svg width="61" height="60" viewBox="0 0 61 60" fill="none" xmlns="http://www.w3.org/2000/svg">
<g clip-path="url(#clip0_489_4048)">
<path d="M56.1033 46.2398C52.7896 46.1571 50.2213 46.4886 48.0674 47.3997C47.4459 47.6481 46.4517 47.6483 46.3688 48.4354C46.7002 48.7668 46.7417 49.3054 47.0317 49.7609C47.5293 50.5892 48.3985 51.7077 49.1857 52.2879C50.0554 52.9505 50.9256 53.6131 51.8365 54.1931C53.4522 55.1874 55.275 55.7671 56.849 56.7614C57.7607 57.3409 58.6714 58.0871 59.5828 58.7083C60.0385 59.0392 60.3282 59.5782 60.9085 59.7851V59.6611C60.6182 59.288 60.5354 58.7497 60.2456 58.3354C59.8318 57.9211 59.4171 57.5483 59.0028 57.134C57.8016 55.5188 56.3105 54.1103 54.695 52.9505C53.3696 52.0391 50.4697 50.7965 49.9314 49.2637C49.9314 49.2637 49.8897 49.2225 49.8485 49.1811C50.7597 49.0983 51.8365 48.7668 52.7068 48.5183C54.1151 48.1452 55.3991 48.2283 56.849 47.8554C57.5116 47.6897 58.1745 47.4826 58.8371 47.2754V46.9028C58.0919 46.1571 57.5533 45.1631 56.7662 44.4589C54.6536 42.6358 52.3337 40.8549 49.9314 39.3637C48.6471 38.5352 46.99 37.9966 45.6231 37.2926C45.1265 37.0438 44.2977 36.9198 44.0079 36.5055C43.262 35.5943 42.8477 34.3932 42.3094 33.316C41.1085 31.0375 39.9483 28.5109 38.9126 26.1086C38.1674 24.4929 37.7117 22.8773 36.8003 21.3863C32.5337 14.3444 27.8943 10.0778 20.7697 5.89388C19.2369 5.02414 17.4143 4.65129 15.4675 4.19583C14.4323 4.15416 13.3963 4.07154 12.3609 4.02988C11.698 3.73989 11.0352 2.953 10.4552 2.58015C8.09457 1.08876 2.00496 -2.14187 0.265241 2.12469C-0.853302 4.817 1.92234 7.46789 2.8747 8.83523C3.57944 9.78783 4.49037 10.8647 4.9875 11.9418C5.27749 12.6456 5.36011 13.3918 5.6501 14.1372C6.31318 15.9593 6.93412 17.9895 7.80433 19.6881C8.26004 20.5578 8.75693 21.469 9.33691 22.2561C9.66833 22.7115 10.2481 22.9189 10.3726 23.6644C9.79286 24.4929 9.75119 25.7358 9.41953 26.7712C7.92838 31.452 8.5086 37.2512 10.6209 40.6892C11.2835 41.7244 12.8578 44.0034 14.9703 43.1332C16.8346 42.3877 16.4203 40.0266 16.9584 37.9554C17.0831 37.4578 17.0003 37.1269 17.2486 36.7955V36.8786C17.8286 38.0381 18.4083 39.1568 18.9469 40.3166C20.2312 42.346 22.4678 44.4589 24.3318 45.8674C25.3263 46.6126 26.1132 47.8969 27.356 48.3526V48.228H27.2729C27.0243 47.8552 26.6515 47.6897 26.3203 47.3995C25.5748 46.6543 24.746 45.7429 24.1663 44.9143C22.4268 42.5944 20.8938 40.0263 19.5269 37.3752C18.8643 36.0914 18.2841 34.6829 17.7457 33.3989C17.4969 32.9013 17.4969 32.1561 17.0829 31.9077C16.4615 32.8189 15.5503 33.606 15.0946 34.7243C14.308 36.5055 14.2249 38.7009 13.9349 40.9789C13.7692 41.0208 13.8518 40.9789 13.7689 41.0623C12.4437 40.7304 11.988 39.3637 11.4907 38.2038C10.2478 35.2629 10.0407 30.5406 11.1181 27.1441C11.4081 26.2741 12.6509 23.5403 12.1537 22.7118C11.9052 21.9247 11.0764 21.469 10.6209 20.8478C10.0826 20.0607 9.50239 19.0669 9.12978 18.1967C8.13552 15.877 7.63839 13.3087 6.56151 10.989C6.06438 9.91187 5.19488 8.7938 4.49037 7.79954C3.70349 6.68124 2.83351 5.89388 2.2121 4.56844C2.0052 4.11297 1.71497 3.36728 2.04639 2.87015C2.12924 2.53873 2.29471 2.41468 2.62637 2.33183C3.16493 1.87589 4.69775 2.45587 5.23583 2.70444C6.76865 3.32537 8.05266 3.90583 9.33691 4.77557C9.91666 5.18985 10.5381 5.97697 11.2835 6.18411H12.1535C13.4792 6.47386 14.9701 6.26696 16.2129 6.63957C18.4086 7.3436 20.3966 8.37929 22.178 9.49783C27.6045 12.9358 32.0778 17.8238 35.102 23.6644C35.5991 24.6167 35.806 25.4872 36.2617 26.481C37.1319 28.5109 38.2088 30.5821 39.0783 32.5703C39.9483 34.517 40.7766 36.5055 42.0194 38.1212C42.6408 38.9907 45.126 39.4466 46.2445 39.9023C47.0731 40.2749 48.3573 40.6066 49.1028 41.062C50.5111 41.9315 51.9194 42.9263 53.2451 43.8786C53.9079 44.3758 55.9788 45.4114 56.1033 46.2398Z" fill="#00546B"/>
<path d="M13.8543 10.243C13.1503 10.243 12.6534 10.3264 12.1562 10.4504V10.5333H12.2391C12.5708 11.1961 13.1503 11.6518 13.5643 12.2316C13.896 12.8942 14.1857 13.5572 14.5174 14.2201C14.5586 14.1784 14.6 14.1372 14.6 14.1372C15.1802 13.7227 15.47 13.0601 15.47 12.0659C15.2214 11.7761 15.18 11.4861 14.9728 11.1961C14.7245 10.7816 14.1857 10.5747 13.8543 10.243Z" fill="#00546B"/>
</g>
<defs>
<clipPath id="clip0_489_4048">
<rect width="60.9508" height="60" fill="white"/>
</clipPath>
</defs>
</svg>
