<?xml version="1.0" encoding="UTF-8"?>
<svg id="Layer_2" data-name="Layer 2" xmlns="http://www.w3.org/2000/svg" viewBox="0 0 512 512">
  <defs>
    <style>
      .cls-1 {
        fill: #ff6b0f;
        stroke-width: 0px;
      }
    </style>
  </defs>
  <g id="Layer_1-2" data-name="Layer 1">
    <g>
      <path class="cls-1" d="m205.07,58.93c-1.86-1.86-4.44-2.93-7.07-2.93s-5.21,1.07-7.07,2.93c-1.86,1.86-2.93,4.44-2.93,7.07s1.07,5.21,2.93,7.07c1.86,1.86,4.44,2.93,7.07,2.93s5.21-1.07,7.07-2.93c1.86-1.86,2.93-4.44,2.93-7.07s-1.07-5.21-2.93-7.07Z"/>
      <path class="cls-1" d="m161.05,56h-40.17c-5.52,0-10,4.48-10,10s4.48,10,10,10h40.17c5.52,0,10-4.48,10-10s-4.48-10-10-10Z"/>
      <path class="cls-1" d="m169.07,112h-48.19c-5.52,0-10,4.48-10,10s4.48,10,10,10h48.19c5.52,0,10-4.48,10-10s-4.48-10-10-10Z"/>
      <path class="cls-1" d="m508.14,208.12s0,0,0,0l-66-51.4s-.1-.07-.14-.1v-10.61c0-5.52-4.48-10-10-10s-10,4.48-10,10v135.67c0,.06,0,.12,0,.18l-82.74,82.74-9.58-8.7c-14.97-13.6-33.22-22.67-52.78-26.46l25.96-25.96c3.9-3.9,3.9-10.24,0-14.14l-33.59-33.59,146.38-62.41c3.05-1.3,5.27-4.04,5.9-7.3.63-3.26-.4-6.62-2.75-8.97l-47.8-47.8c4.05-6.6,6.21-14.21,6.21-22.15,0-11.35-4.42-22.03-12.45-30.06-8.03-8.03-18.7-12.45-30.06-12.45-7.94,0-15.54,2.17-22.15,6.22l-47.8-47.8c-2.35-2.35-5.71-3.38-8.97-2.75-3.26.63-6,2.84-7.3,5.9l-67.39,158.27-36.27,36.27c-10.19,10.19-15.81,23.74-15.81,38.16s5.61,27.96,15.81,38.16c10.19,10.19,23.74,15.81,38.16,15.81s27.96-5.61,38.16-15.81l3.81-3.81,34.25,34.25c-1.07-.03-2.15-.05-3.23-.05-27.3,0-53.47,10.11-73.68,28.47l-9.58,8.7-82.75-82.74c0-.06,0-.12,0-.18V20h111.99c5.52,0,10-4.48,10-10s-4.48-10-10-10h-121.98c-5.52,0-10,4.48-10,10v145.01c-.09.07-.18.12-.26.19L3.74,208.2s0,0,0,0c-2.28,1.83-3.74,4.64-3.74,7.79v245c0,28.12,22.88,51,51,51h410c28.12,0,51-22.88,51-51v-245c0-3.21-1.51-6.05-3.86-7.88Zm-66.14-26.17l44.92,34.98-44.92,44.92v-79.91Zm-107.27-97.35c6.01,0,11.66,2.34,15.91,6.59,4.25,4.25,6.59,9.9,6.59,15.91,0,2.48-.42,4.89-1.19,7.18l-28.49-28.5c2.29-.77,4.7-1.19,7.18-1.19Zm-73.62-36.97l43.55,43.55s0,0,.01.01,0,0,.01.01l45.95,45.96s0,0,0,0,0,0,0,0l43.57,43.57-21.23,9.05-120.91-120.91,9.04-21.24Zm-17.49,41.08l109.53,109.53-99.1,42.25-52.64-52.64,42.21-99.14Zm-36.6,194.18c-6.41,6.42-14.94,9.95-24.01,9.95s-17.6-3.53-24.02-9.95c-6.41-6.41-9.95-14.94-9.95-24.02s3.53-17.6,9.95-24.02l30.57-30.57,48.03,48.03-30.57,30.57Zm32.1-3.81l12.61-12.61,29.93,29.93-12.61,12.61-29.93-29.93Zm-169.12-98.43v81.21l-45.04-45.04,45.04-36.17Zm-32.67,306.96c-.28.26-.54.53-.79.81-9.83-5.2-16.54-15.54-16.54-27.41v-220.86l137.91,137.91-120.58,109.54Zm24.9,4.4l33.02-30h73.4c5.52,0,10-4.48,10-10s-4.48-10-10-10h-51.39l78.5-71.31c34.34-31.2,86.13-31.2,120.47,0l133.53,121.31H62.23Zm429.77-31c0,11.87-6.71,22.2-16.54,27.41-.25-.28-.51-.55-.79-.81l-120.58-109.54,137.91-137.91v220.86Z"/>
      <path class="cls-1" d="m439.47,3.32c-3.9-3.9-10.24-3.9-14.14,0l-40.4,40.4c-3.9,3.9-3.9,10.24,0,14.14,1.95,1.95,4.51,2.93,7.07,2.93s5.12-.98,7.07-2.93l40.4-40.4c3.9-3.9,3.9-10.24,0-14.14Z"/>
      <path class="cls-1" d="m354.41,0c-5.52,0-10,4.48-10,10v20.09c0,5.52,4.48,10,10,10s10-4.48,10-10V10c0-5.52-4.48-10-10-10Z"/>
      <path class="cls-1" d="m432.69,77.52h-20.76c-5.52,0-10,4.48-10,10s4.48,10,10,10h20.76c5.52,0,10-4.48,10-10s-4.48-10-10-10Z"/>
      <path class="cls-1" d="m216.73,444.93c-1.87-1.86-4.44-2.93-7.07-2.93s-5.21,1.07-7.08,2.93c-1.86,1.86-2.92,4.44-2.92,7.07s1.06,5.21,2.92,7.07c1.87,1.86,4.45,2.93,7.08,2.93s5.2-1.07,7.07-2.93c1.86-1.86,2.93-4.44,2.93-7.07s-1.07-5.21-2.93-7.07Z"/>
    </g>
  </g>
</svg>