<?xml version="1.0" encoding="UTF-8"?>
<svg id="Layer_2" data-name="Layer 2" xmlns="http://www.w3.org/2000/svg" viewBox="0 0 512 507.48">
  <defs>
    <style>
      .cls-1 {
        fill: #6a26da;
        stroke-width: 0px;
      }
    </style>
  </defs>
  <g id="Layer_1-2" data-name="Layer 1">
    <g>
      <path class="cls-1" d="m376.1,291.83c-32.96,0-62.45,20.88-73.39,51.95-2.92,8.29-4.4,16.98-4.4,25.84,0,42.89,34.9,77.79,77.79,77.79s77.79-34.89,77.79-77.79-34.89-77.79-77.79-77.79h0Zm0,140.57c-34.62,0-62.79-28.17-62.79-62.79,0-7.16,1.19-14.18,3.55-20.86,8.83-25.08,32.64-41.93,59.24-41.93,34.62,0,62.79,28.17,62.79,62.79s-28.17,62.79-62.79,62.79Z"/>
      <path class="cls-1" d="m504.91,466.39l-39.06-40.02c10.39-16.43,16.42-35.88,16.42-56.72,0-10.54-1.54-20.86-4.51-30.73l15.36-1.84c3.3-.4,5.95-2.92,6.5-6.2l12.07-71.63c.55-3.25-1.09-6.47-4.03-7.95l-39.41-19.8c-1.12-11.63-3.21-23.23-6.23-34.6l30.42-32.45c2.26-2.41,2.68-6.02,1.02-8.88l-36.14-62.64c-1.65-2.86-4.98-4.31-8.2-3.55l-43.54,10.19c-4.38-4.31-8.99-8.47-13.73-12.38-4.13-3.41-8.44-6.71-12.83-9.81-.15-.11-.3-.21-.45-.32l2.45-44.41c.18-3.3-1.82-6.33-4.92-7.46L308.16.45c-3.11-1.13-6.58-.1-8.57,2.55l-26.8,35.81c-11.67-.94-23.47-.9-35.18.1L210.98,3.35c-1.98-2.65-5.46-3.68-8.57-2.55l-67.93,24.74c-3.1,1.13-5.1,4.16-4.92,7.46l2.47,44.67c-9.55,6.79-18.57,14.4-26.89,22.7l-43.25-10.12c-3.22-.76-6.55.69-8.2,3.55l-36.15,62.63c-1.65,2.86-1.24,6.47,1.02,8.88l30.62,32.67c-2.96,11.36-4.98,22.97-6.04,34.64l-39.03,19.68c-2.93,1.48-4.56,4.7-4.02,7.93l11.97,71.61c.55,3.29,3.2,5.82,6.5,6.21l44.44,5.33c5.03,10.62,10.94,20.82,17.63,30.43l-17.47,40.85c-1.3,3.04-.46,6.57,2.07,8.7l55.38,46.49c2.53,2.13,6.16,2.34,8.92.53l37.49-24.51c10.68,4.89,21.76,8.9,33.03,11.96l12.87,42.56c.96,3.16,3.87,5.33,7.18,5.33h72.29c3.3,0,6.22-2.16,7.18-5.33l12.97-42.87c.84-.23,1.67-.49,2.51-.73,17.26,12.11,38.26,19.23,60.9,19.23,20.64,0,39.93-5.92,56.26-16.15l38.82,40.5c8.9,9.43,25.06,9.49,34.02.11,9.33-8.99,9.25-25.18-.14-34.1h0Zm-220.28-96.74c0-10.42,1.74-20.63,5.16-30.35,12.84-36.5,47.47-61.01,86.17-61.01,18.3,0,35.96,5.39,51.06,15.6,3.43,2.32,8.09,1.42,10.41-2.02,2.32-3.43,1.42-8.1-2.02-10.41-9.39-6.34-19.62-11.07-30.36-14.12.52-5.08.8-10.21.8-15.33,0-82.44-67.04-149.51-149.44-149.51-17.28,0-34.21,2.93-50.34,8.7-3.9,1.39-5.93,5.69-4.53,9.59s5.69,5.93,9.58,4.54c14.5-5.19,29.74-7.82,45.29-7.82,74.13,0,134.45,60.34,134.45,134.51,0,4.09-.21,8.18-.57,12.25-4.72-.64-9.5-.97-14.32-.97-11.27,0-22.25,1.79-32.61,5.14,1.01-5.38,1.52-10.86,1.52-16.42,0-48.8-39.68-88.51-88.46-88.51s-88.46,39.71-88.46,88.51c0,18.95,5.9,37.03,17.07,52.27,2.46,3.36,7.17,4.05,10.48,1.61,3.34-2.45,4.06-7.14,1.62-10.48-9.27-12.65-14.17-27.66-14.17-43.4,0-40.53,32.96-73.51,73.47-73.51s73.47,32.98,73.47,73.51c0,8.19-1.34,16.19-3.96,23.84-18.89,10.1-34.59,25.8-44.59,45.32-7.97,2.88-16.34,4.35-24.92,4.35-12.41,0-24.67-3.15-35.46-9.11-3.62-2-8.19-.69-10.19,2.94-2,3.63-.69,8.19,2.94,10.19,13,7.18,27.77,10.98,42.71,10.98,6.04,0,11.99-.62,17.81-1.81-3.04,10-4.58,20.39-4.58,30.95,0,5.47.42,10.84,1.21,16.09-4.79.51-9.62.77-14.45.77-74.13,0-134.45-60.34-134.45-134.51,0-44.89,22.27-86.67,59.57-111.74,3.44-2.31,4.35-6.97,2.04-10.41-2.31-3.44-6.97-4.35-10.4-2.04-41.45,27.86-66.2,74.29-66.2,124.19,0,82.44,67.04,149.51,149.44,149.51,5.94,0,11.9-.36,17.79-1.05,5.26,17.36,14.85,32.86,27.5,45.23-1.06.91-1.87,2.11-2.29,3.49l-12.56,41.54h-61.16l-12.48-41.26c-.76-2.53-2.8-4.46-5.36-5.11-13.07-3.27-25.91-7.91-38.15-13.81-2.37-1.14-5.15-.96-7.35.48l-36.33,23.76-46.85-39.33,16.93-39.6c1.04-2.43.72-5.22-.83-7.36-7.94-10.93-14.79-22.76-20.36-35.13-1.08-2.4-3.33-4.06-5.94-4.37l-43.02-5.16-10.13-60.62,37.87-19.09c2.36-1.19,3.92-3.54,4.1-6.18.94-13.49,3.29-26.95,6.97-40,.71-2.53.05-5.25-1.75-7.17l-29.68-31.66,30.58-52.99,41.93,9.81c2.57.61,5.27-.19,7.11-2.1,9.41-9.77,19.85-18.59,31.03-26.2,2.17-1.48,3.41-3.99,3.27-6.61l-2.39-43.29,57.47-20.93,25.82,34.48c1.58,2.12,4.16,3.24,6.79,2.96,13.51-1.44,27.17-1.48,40.6-.12,2.61.26,5.18-.86,6.75-2.97l25.98-34.7,57.47,20.93-2.38,43.06c-.15,2.64,1.11,5.17,3.3,6.64,11.24,7.56,21.74,16.3,31.2,25.98,1.83,1.88,4.51,2.66,7.07,2.06l42.19-9.87,30.58,52.99-29.49,31.46c-1.81,1.93-2.47,4.67-1.74,7.21,3.77,13.07,6.19,26.52,7.2,39.96.2,2.63,1.76,4.96,4.11,6.14l38.2,19.2-10.22,60.63-13.54,1.62c-2.73-5.81-6-11.41-9.8-16.72-2.41-3.37-7.1-4.14-10.46-1.73-3.36,2.41-4.14,7.1-1.73,10.47,11.15,15.56,17.04,33.94,17.04,53.16,0,50.38-40.97,91.37-91.32,91.37s-91.33-40.99-91.33-91.37h0Zm172.21,68.95l8.93,9.15-12.72,12.18-8.61-8.98c4.46-3.77,8.61-7.9,12.4-12.34Zm37.59,51.29c-3.33,3.48-9.28,3.47-12.63.03l-18.37-19.17,12.82-12.27,17.99,18.43c3.65,3.34,3.76,9.55.19,12.98h0Z"/>
    </g>
  </g>
</svg>