<?xml version="1.0" encoding="UTF-8"?>
<svg id="Layer_2" data-name="Layer 2" xmlns="http://www.w3.org/2000/svg" viewBox="0 0 514.92 682.67">
  <defs>
    <style>
      .cls-1 {
        fill: none;
        stroke: #f6412d;
        stroke-linecap: round;
        stroke-linejoin: round;
        stroke-width: 20px;
      }
    </style>
  </defs>
  <g id="Layer_1-2" data-name="Layer 1">
    <g id="g5397">
      <g id="g5399">
        <g id="g5401">
          <g id="g5407">
            <path id="path5409" class="cls-1" d="m317.53,123s-15.64-14.42-39.74-7.16c-22.13,6.67-27.63,36.95-12.59,48.74,8.63,6.77,21.63,12.34,39.14,18.53,39.19,13.85,24.71,69.13-15.16,69.39-15.56.1-22.83-.88-36.5-9.83"/>
          </g>
          <g id="g5411">
            <path id="path5413" class="cls-1" d="m290.06,95.14v177.54"/>
          </g>
          <g id="g5415">
            <path id="path5417" class="cls-1" d="m30.02,118.89v40.05"/>
          </g>
          <g id="g5419">
            <path id="path5421" class="cls-1" d="m50.05,138.91H10"/>
          </g>
          <g id="g5423">
            <path id="path5425" class="cls-1" d="m385.33,401.76v40.05"/>
          </g>
          <g id="g5427">
            <path id="path5429" class="cls-1" d="m405.36,421.79h-40.05"/>
          </g>
          <g id="g5431">
            <path id="path5433" class="cls-1" d="m484.9,10v40.05"/>
          </g>
          <g id="g5435">
            <path id="path5437" class="cls-1" d="m504.92,30.03h-40.05"/>
          </g>
          <g id="g5439">
            <path id="path5441" class="cls-1" d="m47.47,672.67h182.08c9.63,0,17.44-7.81,17.44-17.44v-18.28c0-9.63-7.81-17.44-17.44-17.44H47.47c-9.63,0-17.44,7.81-17.44,17.44v18.28c0,9.63,7.81,17.44,17.44,17.44Z"/>
          </g>
          <g id="g5443">
            <path id="path5445" class="cls-1" d="m11.31,507.45v5.12c0,15.15,3.08,30.14,9.05,44.06l23.74,56.12c.94,2.23,1.77,4.5,2.53,6.79"/>
          </g>
          <g id="g5447">
            <path id="path5449" class="cls-1" d="m233.27,619.91c3.27-7.11,7.3-13.9,12.04-20.23l12.42-16.57c14.5-19.34,22.33-42.87,22.33-67.04v-81.37c0-15.15-12.38-28.37-27.53-28.56-3.02-.04-5.94.41-8.67,1.26-4.68,1.46-9.46-1.88-9.46-6.79v-157.23c0-15.12-11.76-28-26.87-28.54-15.87-.56-28.9,12.13-28.9,27.87v135.13c0-15.74-13.04-28.43-28.91-27.87-15.11.54-26.87,13.42-26.87,28.54v26.87c0-15.74-13.04-28.43-28.9-27.87-15.11.54-26.87,13.42-26.87,28.54v15.45c0-15.74-13.04-28.43-28.9-27.87-15.11.54-26.87,13.42-26.87,28.54v37.98"/>
          </g>
          <g id="g5451">
            <path id="path5453" class="cls-1" d="m234.41,306.08c17.19,7.97,36.35,12.43,56.55,12.43,74.34,0,134.6-60.26,134.6-134.6s-60.26-134.6-134.6-134.6-134.6,60.26-134.6,134.6c0,27.41,8.2,52.9,22.27,74.17"/>
          </g>
          <g id="g5455">
            <path id="path5457" class="cls-1" d="m279.73,357.47c3.71.24,7.46.36,11.23.36,96.05,0,173.91-77.86,173.91-173.91S387.01,10,290.96,10,117.05,87.86,117.05,183.91c0,34.17,9.86,66.03,26.88,92.9"/>
          </g>
        </g>
      </g>
    </g>
  </g>
</svg>