<?xml version="1.0" encoding="UTF-8"?>
<svg id="Layer_2" data-name="Layer 2" xmlns="http://www.w3.org/2000/svg" viewBox="0 0 682.67 617.79">
  <defs>
    <style>
      .cls-1 {
        fill: none;
        stroke: #0fbc49;
        stroke-linecap: round;
        stroke-linejoin: round;
        stroke-width: 20px;
      }
    </style>
  </defs>
  <g id="Layer_1-2" data-name="Layer 1">
    <g id="g1248">
      <g id="g1250">
        <g id="g1252">
          <g id="g1258">
            <path id="path1260" class="cls-1" d="m548.44,271.6V61.13c0-28.24-22.89-51.13-51.12-51.13H61.13c-28.24,0-51.13,22.89-51.13,51.13v326.16c0,32.79,26.57,59.35,59.35,59.35h303.47"/>
          </g>
          <g id="g1262">
            <path id="path1264" class="cls-1" d="m10,107.74h538.44"/>
          </g>
          <g id="g1266">
            <path id="path1268" class="cls-1" d="m85.19,59.9c0-12.44-10.09-22.53-22.53-22.53s-22.53,10.09-22.53,22.53,10.09,22.53,22.53,22.53,22.53-10.09,22.53-22.53Z"/>
          </g>
          <g id="g1270">
            <path id="path1272" class="cls-1" d="m156.33,59.9c0-12.44-10.09-22.53-22.53-22.53s-22.53,10.09-22.53,22.53,10.09,22.53,22.53,22.53,22.53-10.09,22.53-22.53Z"/>
          </g>
          <g id="g1274">
            <path id="path1276" class="cls-1" d="m227.48,59.9c0-12.44-10.09-22.53-22.53-22.53s-22.53,10.09-22.53,22.53,10.09,22.53,22.53,22.53,22.53-10.09,22.53-22.53Z"/>
          </g>
          <g id="g1278">
            <path id="path1280" class="cls-1" d="m650.5,460.82l-3.72-1.54c-8.17-3.38-13.4-11.38-13.4-20.22v-.29c0-8.84,5.23-16.84,13.4-20.23l3.72-1.54c18.32-7.59,27.01-28.58,19.43-46.9-5.72-13.82-19.09-22.16-33.18-22.16-4.57,0-9.23.88-13.72,2.74l-3.72,1.54c-8.16,3.38-17.51,1.42-23.75-4.83-.07-.07-.14-.14-.21-.21-6.27-6.25-8.25-15.61-4.86-23.79l1.54-3.72c7.59-18.32-1.11-39.31-19.42-46.9-4.49-1.86-9.14-2.74-13.72-2.74-14.08,0-27.45,8.35-33.17,22.17l-1.55,3.73c-3.39,8.18-11.41,13.4-20.25,13.38h-.29c-8.84,0-16.83-5.21-20.22-13.38l-1.55-3.73c-7.59-18.31-28.58-27.01-46.89-19.43-13.82,5.72-22.17,19.09-22.17,33.17,0,4.58.88,9.23,2.74,13.73l1.54,3.72c3.38,8.17,1.43,17.52-4.82,23.77l-.2.2c-6.25,6.27-15.62,8.26-23.79,4.87l-3.74-1.55c-18.31-7.59-39.31,1.11-46.88,19.42-1.86,4.49-2.75,9.14-2.75,13.72,0,14.09,8.35,27.45,22.17,33.17l3.72,1.54c8.15,3.37,13.36,11.36,13.39,20.17v.29c.01,8.86-5.21,16.88-13.39,20.27l-3.72,1.54c-13.82,5.72-22.17,19.08-22.17,33.17,0,4.58.88,9.23,2.75,13.71,7.58,18.32,28.57,27.01,46.88,19.43l3.74-1.55c8.18-3.39,17.54-1.4,23.79,4.87l.2.2c6.25,6.25,8.2,15.6,4.82,23.76l-1.54,3.73c-1.86,4.5-2.74,9.15-2.74,13.73,0,14.08,8.35,27.45,22.17,33.17,18.31,7.58,39.31-1.12,46.89-19.43l1.55-3.74c3.39-8.16,11.38-13.38,20.22-13.38h.29c8.85-.01,16.87,5.21,20.25,13.38l1.55,3.73c5.72,13.82,19.09,22.16,33.17,22.16,4.57,0,9.22-.88,13.72-2.73,18.31-7.59,27.01-28.58,19.42-46.9l-1.54-3.72c-3.39-8.18-1.41-17.55,4.86-23.8.07-.07.14-.14.21-.21,6.24-6.25,15.59-8.21,23.75-4.83l3.72,1.54c4.49,1.86,9.15,2.73,13.72,2.73,14.09,0,27.46-8.33,33.18-22.16,7.58-18.31-1.11-39.3-19.43-46.89Z"/>
          </g>
          <g id="g1282">
            <path id="path1284" class="cls-1" d="m569.01,467.34c3.79-8.69,5.89-18.31,5.89-28.4,0-39.29-31.85-71.13-71.13-71.13s-71.13,31.84-71.13,71.13,31.85,71.12,71.13,71.12c14.95,0,28.81-4.6,40.25-12.48"/>
          </g>
          <g id="g1286">
            <path id="path1288" class="cls-1" d="m477.74,464.96c-14.38-14.38-14.38-37.69,0-52.07,14.38-14.38,37.7-14.38,52.08,0,14.38,14.38,14.38,37.69,0,52.08-14.38,14.38-37.69,14.37-52.07,0Z"/>
          </g>
          <g id="g1290">
            <path id="path1292" class="cls-1" d="m529.81,412.89l-52.07,52.07"/>
          </g>
          <g id="g1294">
            <path id="path1296" class="cls-1" d="m215.27,320.72v11.68c0,10.6-8.6,19.2-19.2,19.2h-10.39"/>
          </g>
          <g id="g1298">
            <path id="path1300" class="cls-1" d="m92.1,265.23h-9c-6.42,0-12.23-2.6-16.45-6.81-4.21-4.21-6.81-10.02-6.81-16.45,0-12.84,10.41-23.26,23.25-23.26h8.99"/>
          </g>
          <g id="g1302">
            <path id="path1304" class="cls-1" d="m179.55,314.85l11.71,70.09h-50.85l-13.25-79.39"/>
          </g>
          <g id="g1306">
            <path id="path1308" class="cls-1" d="m195.07,416.26h-58.42c-8.65,0-15.66-7.01-15.66-15.66s7.01-15.66,15.66-15.66h58.42c8.65,0,15.66,7.01,15.66,15.66s-7.01,15.66-15.66,15.66Z"/>
          </g>
          <g id="g1310">
            <path id="path1312" class="cls-1" d="m300.35,195.68c17.43,8.12,29.51,25.8,29.51,46.29s-12.08,38.16-29.51,46.28"/>
          </g>
          <g id="g1314">
            <path id="path1316" class="cls-1" d="m278.8,349.17h0c11.9,0,21.55-9.65,21.55-21.55v-171.29c0-11.9-9.65-21.55-21.55-21.55s-21.55,9.65-21.55,21.55v171.29c0,11.9,9.65,21.55,21.55,21.55Z"/>
          </g>
          <g id="g1318">
            <path id="path1320" class="cls-1" d="m179.63,169.07l77.61-12.75v171.29l-122.01-20.04c-25.37-4.17-43.99-26.11-43.99-51.81v-27.6c0-25.71,18.61-47.64,43.99-51.8l5.03-.83"/>
          </g>
        </g>
      </g>
    </g>
  </g>
</svg>