<?xml version="1.0" encoding="UTF-8"?>
<svg id="Layer_2" data-name="Layer 2" xmlns="http://www.w3.org/2000/svg" viewBox="0 0 512 472.64">
  <defs>
    <style>
      .cls-1 {
        fill: #0fbc49;
        stroke-width: 0px;
      }
    </style>
  </defs>
  <g id="Layer_1-2" data-name="Layer 1">
    <g>
      <path class="cls-1" d="m449.86,260.18v-23.71c0-4.15-3.36-7.51-7.52-7.51s-7.52,3.36-7.52,7.51v17.51c-11-3.62-22.75-5.58-34.95-5.58-.88,0-1.76.02-2.64.04v-105.35c0-4.15-3.36-7.51-7.52-7.51h-2.97l29.28-31.13,29.28,31.13h-2.97c-4.15,0-7.52,3.36-7.52,7.51v64.06c0,4.15,3.36,7.51,7.52,7.51s7.52-3.36,7.52-7.51v-56.54h12.84c6.39.21,10-8.16,5.47-12.66l-46.67-49.61c-2.82-3.13-8.13-3.13-10.95,0l-46.67,49.61c-4.53,4.51-.91,12.88,5.47,12.66h12.84v56.38c-9.68-16.3-23.47-29.85-39.89-39.25v-91.3h12.84c6.39.21,10-8.16,5.47-12.66l-46.67-49.61c-2.82-3.13-8.13-3.13-10.95,0l-46.67,49.61c-4.53,4.51-.91,12.88,5.47,12.66h12.84v77.76c-14.3,1.76-27.79,6.29-39.89,13.06v-37.87h12.84c6.39.21,10-8.16,5.47-12.66l-46.67-49.61c-2.82-3.13-8.13-3.13-10.95,0l-46.67,49.61c-4.53,4.51-.91,12.88,5.47,12.66h12.84v103.05c-3.57-.4-7.17-.61-10.79-.61-10.13,0-19.91,1.57-29.1,4.46V64.62h12.84c6.39.21,10-8.16,5.47-12.66L98.89,2.35c-2.82-3.13-8.13-3.13-10.95,0l-46.67,49.61c-4.53,4.51-.91,12.88,5.47,12.66h12.84v61.64c0,4.15,3.37,7.51,7.51,7.51s7.51-3.36,7.51-7.51V57.11c0-4.15-3.36-7.51-7.51-7.51h-2.97l29.28-31.13,29.28,31.13h-2.97c-4.15,0-7.51,3.36-7.51,7.51v185.35c-15.34,7.87-28.33,19.71-37.59,34.16v-120.3c0-4.15-3.36-7.51-7.51-7.51s-7.51,3.36-7.51,7.51v165.53c-.02.34-.05.68-.08,1.02C25.17,330.39,0,361.13,0,396.87c0,41.77,33.99,75.76,75.76,75.76h231.09c4.15,0,7.52-3.36,7.52-7.52s-3.36-7.52-7.52-7.52H75.76c-33.49,0-60.73-27.24-60.73-60.73,0-30.4,22.7-56.28,52.81-60.2,3.75-.49,6.56-3.7,6.54-7.48,0-.14,0-.27-.01-.43.04-45.17,36.8-81.91,81.98-81.91,9.96,0,19.73,1.78,29.01,5.3,4.25,1.73,9.39-1.21,10.07-5.75,7.83-45.21,46.85-78.02,92.79-78.02,49.74,0,91.04,38.86,94.01,88.47.76,9.35,11.28,6.53,17.65,6.57,53.54,0,97.09,43.55,97.09,97.09s-43.55,97.09-97.09,97.09h-62.97c-4.15,0-7.52,3.36-7.52,7.52s3.36,7.52,7.52,7.52h62.97c61.82,0,112.12-50.3,112.12-112.12,0-43.87-25.33-81.93-62.14-100.34h0ZM308.5,30.27l29.28,31.13h-2.97c-4.15,0-7.52,3.36-7.52,7.51v91.67c-11.72-4.5-24.39-7.04-37.59-7.21v-84.46c0-4.15-3.36-7.51-7.52-7.51h-2.97l29.28-31.13Zm-126.08,205.11c-.09-.02-.17-.04-.26-.07v-113.45c0-4.15-3.37-7.51-7.51-7.51h-2.97l29.28-31.13,29.28,31.13h-2.97c-4.15,0-7.51,3.36-7.51,7.51v55.53c-17.98,14.44-31.35,34.54-37.33,57.99h0Z"/>
      <path class="cls-1" d="m283.18,321.31c4.15,0,7.52-3.36,7.52-7.52s-3.36-7.52-7.52-7.52h-35.19c-4.15,0-7.51,3.36-7.51,7.52v83.51c0,4.15,3.37,7.52,7.51,7.52h35.19c4.15,0,7.52-3.36,7.52-7.52s-3.36-7.52-7.52-7.52h-27.68v-26.73h25.08c4.15,0,7.52-3.36,7.52-7.52s-3.36-7.52-7.52-7.52h-25.08v-26.73h27.68Z"/>
      <path class="cls-1" d="m194.1,390.18c-9.22,0-18.11-3.75-23.8-10.02-2.79-3.08-7.54-3.31-10.62-.52-3.07,2.79-3.31,7.54-.52,10.61,8.49,9.37,21.55,14.96,34.94,14.96,16.03,0,30-10.52,32.49-24.46,2.87-16.09-9.78-26.86-22.57-31.58-10.85-4-20.91-8.37-23.45-9.48-2.69-1.97-4-5.13-3.51-8.54.62-4.29,3.91-7.74,8.82-9.22,13.52-4.08,25.74,5.72,25.98,5.92,3.18,2.65,7.9,2.23,10.56-.94,2.67-3.18,2.26-7.92-.92-10.59-.75-.63-18.48-15.25-39.96-8.78-10.5,3.16-17.92,11.39-19.37,21.47-1.35,9.39,2.72,18.41,10.61,23.56.33.22.68.41,1.04.57.48.21,12,5.34,24.98,10.13,9.32,3.44,14.05,8.85,12.98,14.84-1.04,5.85-7.6,12.07-17.69,12.07h0Z"/>
      <path class="cls-1" d="m397.4,355.55c0-27.38-22.28-49.66-49.66-49.66s-49.66,22.28-49.66,49.66,22.28,49.66,49.66,49.66c27.38,0,49.66-22.27,49.66-49.66Zm-84.28,0c0-19.09,15.53-34.63,34.63-34.63s34.63,15.53,34.63,34.63-15.53,34.63-34.63,34.63c-19.09,0-34.63-15.53-34.63-34.63h0Z"/>
    </g>
  </g>
</svg>