<?xml version="1.0" encoding="UTF-8"?>
<svg id="Layer_2" data-name="Layer 2" xmlns="http://www.w3.org/2000/svg" viewBox="0 0 632.48 636.6">
  <defs>
    <style>
      .cls-1 {
        fill: #ffb30c;
        stroke-width: 0px;
      }
    </style>
  </defs>
  <g id="Layer_1-2" data-name="Layer 1">
    <path class="cls-1" d="m330.98,395.15c-19.62-8.13-42.2,1.22-50.33,20.85-8.13,19.62,1.22,42.2,20.84,50.33,4.75,1.97,9.75,2.95,14.74,2.95s9.99-.99,14.74-2.95c9.51-3.94,16.91-11.34,20.85-20.85,8.13-19.62-1.22-42.2-20.84-50.33h0Zm6.93,44.56c-2.4,5.79-6.91,10.3-12.7,12.69-5.79,2.4-12.17,2.4-17.96,0-11.95-4.95-17.65-18.7-12.69-30.65,3.74-9.02,12.49-14.48,21.71-14.48,2.99,0,6.02.57,8.95,1.79,11.95,4.95,17.65,18.7,12.69,30.65h0Z"/>
    <path class="cls-1" d="m520.4,371.06l-17.6-42.5c-4.32-10.44-15.82-16.11-26.73-13.17l-45.61,12.26c-3.53-3.92-7.26-7.65-11.13-11.16l12.25-45.59c2.94-10.91-2.73-22.41-13.17-26.73l-42.49-17.6c-10.44-4.32-22.57-.2-28.21,9.59l-23.57,40.9c-5.22-.26-10.49-.26-15.76.02l-23.58-40.92c-5.64-9.79-17.77-13.91-28.21-9.59l-42.5,17.6c-10.44,4.33-16.1,15.82-13.17,26.73l12.26,45.61c-3.92,3.53-7.66,7.26-11.16,11.13l-45.59-12.25c-10.92-2.93-22.41,2.73-26.73,13.17l-17.6,42.5c-4.32,10.44-.2,22.57,9.59,28.21l40.9,23.57c-.26,5.21-.26,10.49.02,15.76l-40.92,23.58c-9.79,5.64-13.91,17.77-9.59,28.21l17.6,42.5c4.32,10.44,15.81,16.1,26.73,13.17l45.61-12.26c3.53,3.92,7.25,7.65,11.13,11.16l-12.25,45.59c-2.93,10.92,2.73,22.41,13.17,26.73l42.49,17.6c10.44,4.32,22.57.2,28.21-9.59l23.57-40.9c5.21.26,10.49.26,15.76-.02l23.58,40.92c4.13,7.17,11.74,11.3,19.62,11.3,2.88,0,5.8-.55,8.59-1.71l42.5-17.6c10.44-4.33,16.1-15.82,13.17-26.73l-12.26-45.61c3.92-3.53,7.65-7.26,11.16-11.13l45.59,12.25c10.92,2.93,22.41-2.73,26.73-13.17l17.6-42.5c4.32-10.44.2-22.57-9.59-28.21l-40.9-23.57c.26-5.22.26-10.49-.02-15.76l40.92-23.58c9.79-5.64,13.91-17.77,9.59-28.21h0Zm-17.11,15.17l-44.99,25.93c-2.53,1.46-3.99,4.24-3.74,7.15.64,7.66.65,15.35.03,22.87-.24,2.91,1.22,5.69,3.74,7.15l44.96,25.92c3.27,1.88,4.64,5.92,3.2,9.41l-17.6,42.49c-1.44,3.48-5.27,5.37-8.91,4.39l-50.12-13.47c-2.81-.76-5.82.18-7.7,2.41-4.87,5.75-10.32,11.19-16.19,16.15-2.23,1.88-3.16,4.89-2.41,7.7l13.48,50.15c.98,3.64-.91,7.47-4.39,8.91l-42.5,17.6c-3.48,1.44-7.52.07-9.4-3.2l-25.93-44.99c-1.35-2.35-3.85-3.77-6.52-3.77-.21,0-.42,0-.63.03-7.66.64-15.36.65-22.87.03-2.9-.24-5.69,1.22-7.15,3.74l-25.92,44.96c-1.88,3.26-5.92,4.64-9.41,3.2l-42.49-17.6c-3.48-1.44-5.37-5.27-4.39-8.91l13.47-50.12c.76-2.82-.18-5.82-2.4-7.7-5.75-4.87-11.19-10.32-16.15-16.19-1.88-2.23-4.89-3.17-7.7-2.41l-50.15,13.48c-3.64.98-7.47-.91-8.91-4.39l-17.6-42.5c-1.44-3.48-.07-7.52,3.2-9.4l44.99-25.93c2.53-1.46,3.99-4.24,3.74-7.15-.64-7.66-.65-15.36-.03-22.87.24-2.91-1.22-5.69-3.74-7.15l-44.96-25.92c-3.27-1.88-4.64-5.92-3.2-9.4l17.6-42.5c1.44-3.48,5.27-5.37,8.91-4.39l50.12,13.47c2.82.76,5.82-.18,7.7-2.41,4.87-5.75,10.32-11.19,16.19-16.15,2.23-1.88,3.16-4.89,2.41-7.7l-13.48-50.15c-.98-3.64.91-7.47,4.39-8.91l42.5-17.6c3.48-1.44,7.52-.07,9.4,3.2l25.93,44.99c1.46,2.53,4.25,4,7.15,3.74,7.66-.64,15.35-.65,22.87-.03,2.91.24,5.69-1.22,7.15-3.74l25.92-44.96c1.88-3.26,5.92-4.64,9.41-3.2l42.49,17.6c3.48,1.44,5.37,5.27,4.39,8.91l-13.47,50.12c-.76,2.82.18,5.82,2.4,7.7,5.75,4.87,11.19,10.32,16.15,16.19,1.88,2.23,4.89,3.17,7.7,2.41l50.15-13.48c3.63-.98,7.47.91,8.91,4.39l17.6,42.5c1.44,3.48.07,7.52-3.2,9.41Z"/>
    <circle class="cls-1" cx="397.79" cy="386.12" r="7.53"/>
    <path class="cls-1" d="m406.45,407.13c-4.09.73-6.82,4.64-6.09,8.73,2.85,16.04,1.06,32.49-5.18,47.57-8.73,21.08-25.15,37.5-46.24,46.24-21.08,8.73-44.31,8.73-65.39,0-21.08-8.73-37.5-25.15-46.24-46.24-8.73-21.08-8.73-44.3,0-65.39,8.73-21.08,25.15-37.5,46.24-46.24,21.08-8.73,44.31-8.73,65.39,0,9.36,3.88,17.85,9.3,25.24,16.11,3.06,2.82,7.82,2.63,10.64-.43,2.82-3.06,2.63-7.82-.43-10.64-8.69-8.02-18.68-14.39-29.68-18.95-24.8-10.27-52.11-10.27-76.91,0-24.8,10.27-44.11,29.59-54.39,54.39-10.27,24.8-10.27,52.11,0,76.91,10.27,24.8,29.59,44.11,54.39,54.39,12.4,5.14,25.43,7.71,38.46,7.7,13.03,0,26.06-2.57,38.46-7.7,24.8-10.27,44.11-29.59,54.39-54.39,7.35-17.74,9.46-37.09,6.1-55.97-.73-4.09-4.63-6.82-8.73-6.09h0Z"/>
    <path class="cls-1" d="m244.88,109.94h63.83v59.04c-8.76,3.11-15.06,11.46-15.06,21.27,0,12.46,10.13,22.59,22.59,22.59s22.59-10.13,22.59-22.59c0-9.81-6.3-18.16-15.06-21.27v-59.04h63.83c12.46,0,22.59-10.13,22.59-22.59V22.59c0-12.46-10.13-22.59-22.59-22.59h-142.72c-12.46,0-22.59,10.13-22.59,22.59v64.76c0,12.46,10.13,22.59,22.59,22.59h0Zm71.36,87.84c-4.15,0-7.53-3.38-7.53-7.53s3.38-7.53,7.53-7.53,7.53,3.38,7.53,7.53-3.38,7.53-7.53,7.53ZM237.35,22.59c0-4.15,3.38-7.53,7.53-7.53h142.72c4.15,0,7.53,3.38,7.53,7.53v64.76c0,4.15-3.38,7.53-7.53,7.53h-142.72c-4.15,0-7.53-3.38-7.53-7.53V22.59Z"/>
    <path class="cls-1" d="m609.89,113.71h-142.72c-12.46,0-22.59,10.13-22.59,22.59v64.76c0,12.46,10.13,22.59,22.59,22.59h117.29v72.83l-25.03,25.03c-2.95-1.41-6.23-2.23-9.71-2.23-12.46,0-22.59,10.13-22.59,22.59s10.13,22.59,22.59,22.59,22.59-10.13,22.59-22.59c0-3.48-.81-6.77-2.23-9.71l27.23-27.23c1.41-1.41,2.21-3.33,2.21-5.32v-75.95h10.37c12.46,0,22.59-10.13,22.59-22.59v-64.76c0-12.46-10.13-22.59-22.59-22.59h0Zm-60.17,235.69c-4.15,0-7.53-3.38-7.53-7.53s3.38-7.53,7.53-7.53,7.53,3.38,7.53,7.53-3.38,7.53-7.53,7.53Zm67.7-148.34c0,4.15-3.38,7.53-7.53,7.53h-142.72c-4.15,0-7.53-3.38-7.53-7.53v-64.76c0-4.15,3.38-7.53,7.53-7.53h142.72c4.15,0,7.53,3.38,7.53,7.53v64.76Z"/>
    <path class="cls-1" d="m82.75,319.28c-3.48,0-6.77.81-9.71,2.23l-25.03-25.03v-72.83h117.29c12.46,0,22.59-10.13,22.59-22.59v-64.76c0-12.46-10.13-22.59-22.59-22.59H22.59c-12.46,0-22.59,10.13-22.59,22.59v64.76c0,12.46,10.13,22.59,22.59,22.59h10.37v75.95c0,2,.79,3.91,2.21,5.32l27.23,27.23c-1.41,2.95-2.23,6.23-2.23,9.71,0,12.46,10.13,22.59,22.59,22.59s22.59-10.13,22.59-22.59-10.13-22.59-22.59-22.59h0ZM15.06,201.06v-64.76c0-4.15,3.38-7.53,7.53-7.53h142.72c4.15,0,7.53,3.38,7.53,7.53v64.76c0,4.15-3.38,7.53-7.53,7.53H22.59c-4.15,0-7.53-3.38-7.53-7.53Zm67.7,148.34c-4.15,0-7.53-3.38-7.53-7.53s3.38-7.53,7.53-7.53,7.53,3.38,7.53,7.53-3.38,7.53-7.53,7.53Z"/>
  </g>
</svg>