<?xml version="1.0" encoding="UTF-8"?>
<svg id="Layer_2" data-name="Layer 2" xmlns="http://www.w3.org/2000/svg" viewBox="0 0 546.56 604.22">
  <defs>
    <style>
      .cls-1 {
        fill: #ff6b0f;
        stroke-width: 0px;
      }
    </style>
  </defs>
  <g id="Layer_1-2" data-name="Layer 1">
    <g>
      <path class="cls-1" d="m498.89,78.57h-7.17c13.67-22.25,8.62-52.12-13.31-68.39-23.63-17.53-57.21-11.89-73.71,12.76l-37.23,55.63H47.67C21.39,78.58,0,99.96,0,126.25v304.79c0,26.29,21.39,47.67,47.67,47.67h185.17l-13.99,58.77h-30.2c-19.68,0-35.69,16.01-35.69,35.69v7.45h-37.23c-6.52,0-11.8,5.28-11.8,11.8s5.28,11.8,11.8,11.8h315.08c6.52,0,11.8-5.28,11.8-11.8s-5.28-11.8-11.8-11.8h-37.23v-7.45c0-19.68-16.01-35.69-35.69-35.69h-30.2l-13.99-58.77h185.17c26.29,0,47.67-21.39,47.67-47.67V126.25c0-26.29-21.39-47.67-47.67-47.67h0Zm-169.09,207.46c-18.45,12.92-53.02-4.64-86.03,12.97-8.05-41.84-2.98-81.19,38.95-89.88,5.42-1.13,11.25-1.64,16.22-1.54,14.19,10.53,28.54,21.18,42.69,31.67,6.19,18.02,3.87,35.78-11.83,46.77h0Zm11.89-126.49l33.4,24.78-25.69,31.32c-10.58-7.85-19.67-14.59-30.24-22.44,2.2-3.28,20.52-30.67,22.53-33.67Zm82.62-123.47c8.94-13.36,27.17-16.47,40.03-6.93,12.86,9.54,15.17,27.89,4.97,40.32-18.08,22.05-61.08,74.47-79.23,96.6l-35.25-26.15,69.48-103.84Zm-54.32,537.1v7.45h-193.43v-7.45c0-6.67,5.42-12.09,12.09-12.09h169.25c6.67,0,12.09,5.42,12.09,12.09h0Zm-66.55-35.69h-60.33l13.99-58.77h32.35l13.99,58.77Zm219.52-106.44c0,13.27-10.8,24.07-24.07,24.07H47.67c-13.27,0-24.07-10.8-24.07-24.07v-55.26h33.72c6.52,0,11.8-5.28,11.8-11.8s-5.28-11.8-11.8-11.8H23.6V126.25c0-13.27,10.8-24.07,24.07-24.07h304.01c-11.31,16.9-44.29,66.19-54.74,81.8-23.13.21-46.21,8.27-61.33,25.91-20.57,24.01-24.18,61.73-10.74,112.13,2.3,8.62,13.05,11.7,19.56,5.49,30.51-29.16,68.52,2.65,102.55-24.9,20.77-16.82,25.69-43.55,17.86-68.55,10.59-12.91,97.55-118.93,108.17-131.88h25.88c13.27,0,24.07,10.8,24.07,24.07v225.92H151.73c-6.52,0-11.8,5.28-11.8,11.8s5.28,11.8,11.8,11.8h371.23v55.26Z"/>
      <path class="cls-1" d="m102.25,352.4c-5.68,1.16-9.49,6.07-9.49,11.58,0,7.38,6.75,13.03,14.1,11.56,6.53-1.33,10.51-7.62,9.26-13.88-1.31-6.46-7.58-10.53-13.88-9.26h0Z"/>
    </g>
  </g>
</svg>