<?xml version="1.0" encoding="UTF-8"?>
<svg id="Layer_2" data-name="Layer 2" xmlns="http://www.w3.org/2000/svg" viewBox="0 0 476.17 475.61">
  <defs>
    <style>
      .cls-1 {
        fill: #ffb30c;
        stroke-width: 0px;
      }
    </style>
  </defs>
  <g id="Layer_1-2" data-name="Layer 1">
    <g id="Layer_9_copy" data-name="Layer 9 copy">
      <path class="cls-1" d="m101.98,453.44c4,13.14,16.11,22.14,29.85,22.17,3.03,0,6.05-.43,8.96-1.28l202.85-61.08,36.51-4.76c17.05-2.2,29.09-17.81,26.89-34.86,0-.02,0-.04,0-.06l-19.25-146.94,60.62-92.98,14.95-22.58,7.17-11.21c10.48-16.03,5.97-37.52-10.06-48s-37.52-5.97-48,10.06l-7.37,11.32-14.75,22.53-16.54,25.29-12.34-93.95c-2.23-17.05-17.86-29.06-34.9-26.83,0,0-.01,0-.02,0L111.1,28.58c-16.27,2.1-28.09,16.5-26.98,32.87l-61.95,18.64C5.71,85.04-3.62,102.39,1.32,118.85l100.66,334.59ZM413.74,88.03l16.18,10.55,16.13,10.55-6.35,9.73-32.31-21.09,6.35-9.73Zm11.57-17.77c5.84-8.94,17.82-11.45,26.75-5.61,8.94,5.84,11.45,17.82,5.61,26.75l-3.17,4.86-32.1-21.15,2.92-4.86Zm-26.32,40.35l16.18,10.55,16.13,10.55-98.56,150.94-16.18-10.55-16.13-10.55,98.56-150.94Zm-117.76,206.39l3.07-9.83c5.15,1.33,9.72,4.32,13,8.5l-7.78,6.76c-2.09,1.9-5.33,1.75-7.23-.35-1.25-1.38-1.66-3.32-1.06-5.08h0Zm27.65-11.42c-5.16-6.36-12.17-10.94-20.07-13.11l5.12-16.74,28.11,18.38-13.16,11.47ZM102.6,49.83c2.56-3.33,6.33-5.5,10.5-6.04l215.45-28.26c.7-.05,1.4-.05,2.1,0,7.8.16,14.33,5.98,15.36,13.72l14.95,111.56-39.22,59.96-77.11,10.24c-4.24.27-7.46,3.92-7.19,8.17.27,4.24,3.92,7.46,8.17,7.19h1.02l64.05-8.76-27.29,41.83c0,.17,0,.34,0,.51-.2.32-.35.66-.46,1.02h0l-4.76,15.36-109.16,14.69c-4.24.28-7.45,3.95-7.17,8.19.28,4.24,3.95,7.45,8.19,7.17h.97l101.73-13.31-6.04,19.56c-2.7,8.73.7,18.19,8.35,23.19,3.33,2.19,7.23,3.37,11.21,3.38,4.94-.03,9.71-1.85,13.41-5.12l40.35-34.92.41-.46c.31-.29.59-.62.82-.97l33.38-51.2,17.05,129.02c.56,4.15-.57,8.35-3.12,11.67-2.47,3.29-6.16,5.45-10.24,5.99l-215.65,28.31c-8.64,1.12-16.55-4.98-17.66-13.61,0,0,0,0,0,0L99.47,61.5c-.54-4.15.58-8.35,3.12-11.67h0ZM26.62,94.73l59.39-17.87,43.72,333.06c2.04,15.43,15.16,26.99,30.72,27.08,1.37,0,2.74-.1,4.1-.31l84.38-11.06-112.64,33.89c-8.3,2.49-17.05-2.21-19.56-10.5L16.02,114.44c-2.52-8.37,2.22-17.19,10.59-19.71,0,0,0,0,0,0Zm154.83-8.19c-.54-4.2,2.41-8.04,6.6-8.6l122.88-16.18c4.24-.55,8.13,2.44,8.68,6.68s-2.44,8.13-6.68,8.68l-122.88,16.13h-.97c-3.86-.02-7.12-2.88-7.63-6.71Zm-37.17,75.06c-.54-4.21,2.44-8.05,6.65-8.59.04,0,.07,0,.11-.01l168.96-22.43c4.24-.55,8.13,2.44,8.68,6.68s-2.44,8.13-6.68,8.68h0l-169.11,22.32h-.97c-3.84-.01-7.09-2.85-7.63-6.66Zm57.4,62.67c.6,4.2-2.31,8.09-6.51,8.69-.03,0-.06,0-.09.01l-33.13,4.35h-.97c-4.24.28-7.91-2.93-8.19-7.17-.28-4.24,2.93-7.91,7.17-8.19l33.13-4.35c4.21-.54,8.06,2.43,8.6,6.63,0,0,0,.01,0,.02Zm-30.16,144.38c-.54-4.2,2.41-8.04,6.6-8.6l58.93-7.73c4.24-.57,8.14,2.41,8.7,6.66.57,4.24-2.41,8.14-6.66,8.7l-59.03,7.58h-.97c-3.82-.01-7.04-2.83-7.58-6.6h0Z"/>
    </g>
  </g>
</svg>