<?xml version="1.0" encoding="UTF-8"?>
<svg id="Layer_2" data-name="Layer 2" xmlns="http://www.w3.org/2000/svg" viewBox="0 0 682.67 589.33">
  <defs>
    <style>
      .cls-1 {
        fill: none;
        stroke: #0195ff;
        stroke-linecap: round;
        stroke-linejoin: round;
        stroke-width: 20px;
      }
    </style>
  </defs>
  <g id="Layer_1-2" data-name="Layer 1">
    <g id="g3685">
      <g id="g3691">
        <path id="path3693" class="cls-1" d="m672.67,496.31v48.36c0,19.15-15.52,34.67-34.67,34.67H44.67c-19.15,0-34.67-15.52-34.67-34.67V166h392.87"/>
      </g>
      <g id="g3695">
        <path id="path3697" class="cls-1" d="m543.8,166h128.87v281.49"/>
      </g>
      <g id="g3699">
        <path id="path3701" class="cls-1" d="m516.53,59.33h121.47c19.15,0,34.67,15.52,34.67,34.67v72h-128.87"/>
      </g>
      <g id="g3703">
        <path id="path3705" class="cls-1" d="m402.87,166H10v-72c0-19.15,15.52-34.67,34.67-34.67h385.47"/>
      </g>
      <g id="g3707">
        <path id="path3709" class="cls-1" d="m120.31,112.23c0,11.78-9.55,21.33-21.33,21.33s-21.33-9.55-21.33-21.33,9.55-21.33,21.33-21.33,21.33,9.55,21.33,21.33Z"/>
      </g>
      <g id="g3711">
        <path id="path3713" class="cls-1" d="m198.53,112.23c0,11.78-9.55,21.33-21.33,21.33s-21.33-9.55-21.33-21.33,9.55-21.33,21.33-21.33,21.33,9.55,21.33,21.33Z"/>
      </g>
      <g id="g3715">
        <path id="path3717" class="cls-1" d="m276.75,112.23c0,11.78-9.55,21.33-21.33,21.33s-21.33-9.55-21.33-21.33,9.55-21.33,21.33-21.33,21.33,9.55,21.33,21.33Z"/>
      </g>
      <g id="g3719">
        <path id="path3721" class="cls-1" d="m162.97,244.82h175.15c6.96,0,12.57,5.74,12.39,12.69-1.37,52.39-12.41,98.49-61.35,129.72-52.85,33.72-43.27,66.87-43.27,66.87h-70.41s9.59-33.15-43.27-66.87c-48.94-31.24-59.99-77.33-61.36-129.72-.18-6.96,5.43-12.69,12.39-12.69h32.55"/>
      </g>
      <g id="g3723">
        <path id="path3725" class="cls-1" d="m285.6,502.1h-149.82c-5.76,0-10.42-4.67-10.42-10.42v-3.21c0-18.98,15.39-34.37,34.37-34.37h101.94c18.98,0,34.36,15.39,34.36,34.37v3.21c0,5.75-4.67,10.42-10.42,10.42Z"/>
      </g>
      <g id="g3727">
        <path id="path3729" class="cls-1" d="m493.49,22.52l14.31,28.97c3.28,6.63,9.61,11.23,16.93,12.29l31.99,4.65c18.44,2.68,25.8,25.32,12.46,38.32l-23.15,22.55c-5.3,5.16-7.72,12.6-6.47,19.89l5.46,31.84c3.15,18.35-16.13,32.35-32.62,23.68l-28.62-15.03c-6.55-3.44-14.38-3.44-20.93,0l-28.62,15.03c-16.49,8.66-35.77-5.33-32.62-23.68l5.46-31.84c1.25-7.29-1.17-14.72-6.47-19.89l-23.15-22.55c-13.34-13-5.98-35.64,12.46-38.32l31.99-4.65c7.32-1.06,13.65-5.66,16.93-12.29l14.31-28.97c8.25-16.7,32.07-16.7,40.32,0Z"/>
      </g>
      <g id="g3731">
        <path id="path3733" class="cls-1" d="m428.86,311.92h66.29"/>
      </g>
      <g id="g3735">
        <path id="path3737" class="cls-1" d="m428.86,362.59h141.33"/>
      </g>
      <g id="g3739">
        <path id="path3741" class="cls-1" d="m428.86,413.25h141.33"/>
      </g>
      <g id="g3743">
        <path id="path3745" class="cls-1" d="m428.86,463.92h141.33"/>
      </g>
    </g>
  </g>
</svg>