<svg width="45" height="45" viewBox="0 0 45 45" fill="none" xmlns="http://www.w3.org/2000/svg">
<path d="M22.2327 28.1514C22.7202 27.7365 23.0712 27.1851 23.2405 26.5534C23.4608 25.7312 23.3478 24.8722 22.9222 24.135C22.4965 23.3977 21.8092 22.8704 20.9869 22.65C20.3555 22.4809 19.7028 22.509 19.0992 22.7239L16.7035 18.5744C16.3479 17.9587 15.7113 17.5887 15.0002 17.5846C14.2929 17.5796 13.6485 17.9435 13.2861 18.555C13.0131 19.0157 12.742 19.4853 12.455 19.9825C10.9427 22.6022 9.23029 25.5689 6.91709 27.6462L3.1545 29.8186C0.811332 31.1715 0.0056392 34.1784 1.35845 36.5214C2.26627 38.0938 3.91897 38.9739 5.61614 38.9739C6.44793 38.9739 7.29054 38.7624 8.06125 38.3174L8.57682 38.0197L10.9058 42.0537C11.4634 43.0193 12.4782 43.5597 13.5204 43.5597C14.0312 43.5597 14.5486 43.4298 15.0218 43.1567L15.7221 42.7524C15.8835 42.659 16.0014 42.5055 16.0497 42.3254C16.098 42.1453 16.0727 41.9534 15.9795 41.7919L12.5707 35.8876C15.8442 34.8527 19.2305 34.8879 22.6952 35.0304C23.4273 35.0607 24.0908 34.704 24.4701 34.0771C24.8493 33.4503 24.857 32.6972 24.4906 32.0627L22.2327 28.1514ZM20.6229 24.0084C21.0824 24.1315 21.4664 24.4262 21.7043 24.8381C21.9421 25.2501 22.0053 25.7299 21.8821 26.1894C21.8111 26.4545 21.6815 26.6931 21.5068 26.8943L19.8249 23.981C20.0865 23.9303 20.358 23.9374 20.6229 24.0084ZM7.35813 37.0995C5.68645 38.0644 3.54139 37.4897 2.57626 35.8181C1.61123 34.1466 2.18603 32.0015 3.85762 31.0364L7.07407 29.1794L10.5745 35.2425L7.35813 37.0995ZM14.3188 41.9388C13.5515 42.3818 12.5668 42.1179 12.1237 41.3506L9.79472 37.3166L11.2777 36.4604L14.4101 41.8859L14.3188 41.9388ZM11.8521 34.6428L8.22122 28.3539C10.1744 26.4841 11.6795 24.1002 13.0025 21.8412L19.7628 33.5504C17.0944 33.5463 14.4622 33.7671 11.8521 34.6428ZM23.267 33.3491C23.1522 33.5388 22.9751 33.6357 22.753 33.6253C22.3015 33.6067 21.8513 33.5901 21.4021 33.5771L13.8161 20.4377C14.0486 20.0352 14.2726 19.6487 14.4958 19.272C14.6049 19.088 14.7752 18.991 14.9884 18.991H14.9923C15.2075 18.9922 15.378 19.0913 15.4856 19.2777L23.2729 32.7658C23.3838 32.9577 23.3817 33.1595 23.267 33.3491ZM25.4525 23.4859C25.3418 23.5499 25.2209 23.5803 25.1016 23.5803C24.8586 23.5803 24.6222 23.4541 24.492 23.2286C24.2978 22.8923 24.413 22.4623 24.7493 22.2681L26.5489 21.2292C26.8851 21.0351 27.3152 21.1503 27.5093 21.4865C27.7035 21.8228 27.5883 22.2528 27.252 22.447L25.4525 23.4859ZM22.4361 17.0655C22.8112 17.1661 23.0338 17.5516 22.9333 17.9267L22.3955 19.9338C22.3113 20.248 22.0273 20.4552 21.7167 20.4552C21.6564 20.4552 21.5953 20.4474 21.5344 20.4311C21.1592 20.3306 20.9367 19.9451 21.0372 19.57L21.575 17.5628C21.6755 17.1877 22.0614 16.9651 22.4361 17.0655ZM28.5928 28.1181C28.5086 28.4323 28.2245 28.6395 27.914 28.6395C27.8537 28.6395 27.7925 28.6317 27.7315 28.6154L25.7245 28.0776C25.3493 27.9771 25.1268 27.5916 25.2273 27.2165C25.3278 26.8413 25.7134 26.6191 26.0884 26.7193L28.0955 27.2571C28.4707 27.3575 28.6933 27.743 28.5928 28.1181ZM35.8262 23.308C39.4782 23.308 42.4494 20.3367 42.4494 16.6848C42.4494 13.0327 39.4782 10.0615 35.8262 10.0615C32.1741 10.0615 29.2029 13.0328 29.2029 16.6848C29.2029 20.3368 32.1741 23.308 35.8262 23.308ZM32.4701 20.6747C32.8004 19.1042 34.1863 17.9588 35.8263 17.9588C37.4662 17.9588 38.8521 19.1042 39.1824 20.6746C38.2745 21.4395 37.1036 21.9017 35.8263 21.9017C34.5488 21.9017 33.378 21.4396 32.4701 20.6747ZM34.4391 15.1654C34.4391 14.4006 35.0613 13.7783 35.8262 13.7783C36.5911 13.7783 37.2133 14.4006 37.2133 15.1654C37.2133 15.9303 36.5911 16.5525 35.8262 16.5525C35.0613 16.5525 34.4391 15.9303 34.4391 15.1654ZM35.8262 11.4678C38.7028 11.4678 41.0432 13.8081 41.0432 16.6848C41.0432 17.695 40.7537 18.6384 40.2545 19.4382C39.7869 18.3724 38.9501 17.5173 37.9106 17.0224C38.3511 16.5284 38.6196 15.8778 38.6196 15.1654C38.6196 13.6252 37.3665 12.3721 35.8262 12.3721C34.2859 12.3721 33.0328 13.6252 33.0328 15.1654C33.0328 15.8778 33.3012 16.5284 33.7418 17.0224C32.7023 17.5173 31.8654 18.3725 31.3978 19.4383C30.8987 18.6385 30.6092 17.6951 30.6092 16.6849C30.6092 13.808 32.9495 11.4678 35.8262 11.4678ZM37.6748 24.1022C34.0227 24.1022 31.0515 27.0735 31.0515 30.7255C31.0515 34.3775 34.0227 37.3487 37.6748 37.3487C41.3268 37.3487 44.298 34.3774 44.298 30.7255C44.298 27.0735 41.3268 24.1022 37.6748 24.1022ZM37.6748 25.5085C40.5514 25.5085 42.8918 27.8488 42.8918 30.7255C42.8918 31.7357 42.6023 32.6791 42.1031 33.4789C41.6355 32.4131 40.7987 31.5579 39.7592 31.0631C40.1997 30.5691 40.4681 29.9185 40.4681 29.2061C40.4681 27.6659 39.2151 26.4128 37.6748 26.4128C36.1345 26.4128 34.8813 27.6659 34.8813 29.2061C34.8813 29.9185 35.1498 30.5691 35.5904 31.063C34.5509 31.5579 33.714 32.413 33.2464 33.4788C32.7473 32.679 32.4578 31.7356 32.4578 30.7254C32.4578 27.8488 34.7981 25.5085 37.6748 25.5085ZM37.6748 30.5933C36.9099 30.5933 36.2876 29.971 36.2876 29.2062C36.2876 28.4414 36.9099 27.8191 37.6748 27.8191C38.4396 27.8191 39.0619 28.4414 39.0619 29.2062C39.0619 29.971 38.4396 30.5933 37.6748 30.5933ZM34.3186 34.7155C34.649 33.1449 36.0348 31.9996 37.6748 31.9996C39.3147 31.9996 40.7006 33.1449 41.031 34.7155C40.1231 35.4804 38.9522 35.9425 37.6748 35.9425C36.3975 35.9425 35.2265 35.4804 34.3186 34.7155ZM24.5908 14.6869C28.2429 14.6869 31.214 11.7156 31.214 8.0636C31.214 4.41157 28.2428 1.44043 24.5908 1.44043C20.9387 1.44043 17.9675 4.41166 17.9675 8.0636C17.9675 11.7156 20.9386 14.6869 24.5908 14.6869ZM21.2347 12.0535C21.5649 10.483 22.9509 9.33758 24.5908 9.33758C26.2308 9.33758 27.6167 10.4831 27.9469 12.0535C27.039 12.8184 25.8681 13.2805 24.5908 13.2805C23.3134 13.2806 22.1425 12.8184 21.2347 12.0535ZM24.5908 7.93133C23.8259 7.93133 23.2037 7.30906 23.2037 6.54424C23.2037 5.77941 23.8259 5.15715 24.5908 5.15715C25.3557 5.15715 25.9779 5.77941 25.9779 6.54424C25.9779 7.30906 25.3557 7.93133 24.5908 7.93133ZM24.5908 2.84659C27.4674 2.84659 29.8078 5.18694 29.8078 8.06352C29.8078 9.07373 29.5183 10.0172 29.0191 10.817C28.5515 9.75119 27.7147 8.89602 26.6752 8.40119C27.1157 7.90725 27.3842 7.25659 27.3842 6.54424C27.3842 5.00404 26.1311 3.7509 24.5908 3.7509C23.0506 3.7509 21.7974 5.00404 21.7974 6.54424C21.7974 7.25659 22.0658 7.90716 22.5063 8.4011C21.4669 8.89602 20.63 9.75119 20.1624 10.817C19.6633 10.0172 19.3737 9.07373 19.3737 8.06352C19.3737 5.18694 21.7141 2.84659 24.5908 2.84659Z" fill="#6A26DA"/>
</svg>
