<svg width="45" height="45" viewBox="0 0 45 45" fill="none" xmlns="http://www.w3.org/2000/svg">
<path d="M28.125 15.4688H19.6875C19.1282 15.4694 18.5921 15.6918 18.1966 16.0872C17.8012 16.4827 17.5787 17.0189 17.5781 17.5781V18.9844C17.5797 19.505 17.7753 20.0064 18.1268 20.3906C17.7753 20.7748 17.5797 21.2762 17.5781 21.7969V23.2031C17.5797 23.7238 17.7753 24.2252 18.1268 24.6094C17.7753 24.9936 17.5797 25.495 17.5781 26.0156V27.4219C17.5787 27.9811 17.8012 28.5173 18.1966 28.9128C18.5921 29.3082 19.1282 29.5306 19.6875 29.5312H28.125C28.6843 29.5306 29.2204 29.3082 29.6159 28.9128C30.0113 28.5173 30.2338 27.9811 30.2344 27.4219V26.0156C30.2328 25.495 30.0372 24.9936 29.6857 24.6094C30.0372 24.2252 30.2328 23.7238 30.2344 23.2031V21.7969C30.2328 21.2762 30.0372 20.7748 29.6857 20.3906C30.0372 20.0064 30.2328 19.505 30.2344 18.9844V17.5781C30.2338 17.0189 30.0113 16.4827 29.6159 16.0872C29.2204 15.6918 28.6843 15.4694 28.125 15.4688ZM28.8281 27.4219C28.8279 27.6083 28.7538 27.787 28.622 27.9189C28.4902 28.0507 28.3114 28.1248 28.125 28.125H19.6875C19.5011 28.1248 19.3223 28.0507 19.1905 27.9189C19.0587 27.787 18.9846 27.6083 18.9844 27.4219V26.0156C18.9846 25.8292 19.0587 25.6505 19.1905 25.5186C19.3223 25.3868 19.5011 25.3127 19.6875 25.3125H28.125C28.3114 25.3127 28.4902 25.3868 28.622 25.5186C28.7538 25.6505 28.8279 25.8292 28.8281 26.0156V27.4219ZM28.8281 23.2031C28.8279 23.3895 28.7538 23.5683 28.622 23.7001C28.4902 23.8319 28.3114 23.9061 28.125 23.9062H19.6875C19.5011 23.9061 19.3223 23.8319 19.1905 23.7001C19.0587 23.5683 18.9846 23.3895 18.9844 23.2031V21.7969C18.9846 21.6105 19.0587 21.4317 19.1905 21.2999C19.3223 21.1681 19.5011 21.0939 19.6875 21.0938H28.125C28.3114 21.0939 28.4902 21.1681 28.622 21.2999C28.7538 21.4317 28.8279 21.6105 28.8281 21.7969V23.2031ZM28.8281 18.9844C28.8279 19.1708 28.7538 19.3495 28.622 19.4814C28.4902 19.6132 28.3114 19.6873 28.125 19.6875H19.6875C19.5011 19.6873 19.3223 19.6132 19.1905 19.4814C19.0587 19.3495 18.9846 19.1708 18.9844 18.9844V17.5781C18.9846 17.3917 19.0587 17.213 19.1905 17.0811C19.3223 16.9493 19.5011 16.8752 19.6875 16.875H28.125C28.3114 16.8752 28.4902 16.9493 28.622 17.0811C28.7538 17.213 28.8279 17.3917 28.8281 17.5781V18.9844Z" fill="#6A26DA"/>
<path d="M19.6875 17.5781H21.0938V18.9844H19.6875V17.5781Z" fill="#6A26DA"/>
<path d="M22.5 17.5781H28.125V18.9844H22.5V17.5781Z" fill="#6A26DA"/>
<path d="M19.6875 21.7969H21.0938V23.2031H19.6875V21.7969Z" fill="#6A26DA"/>
<path d="M22.5 21.7969H28.125V23.2031H22.5V21.7969Z" fill="#6A26DA"/>
<path d="M19.6875 26.0156H21.0938V27.4219H19.6875V26.0156Z" fill="#6A26DA"/>
<path d="M22.5 26.0156H28.125V27.4219H22.5V26.0156Z" fill="#6A26DA"/>
<path d="M29.5312 37.2656C29.9041 37.2652 30.2615 37.1169 30.5251 36.8533C30.7888 36.5896 30.9371 36.2322 30.9375 35.8594V34.4531H32.3438C32.7166 34.4527 33.074 34.3044 33.3376 34.0408C33.6013 33.7771 33.7496 33.4197 33.75 33.0469V13.3594C33.75 13.267 33.7318 13.1756 33.6965 13.0903C33.6611 13.005 33.6093 12.9275 33.544 12.8623L28.6221 7.94039C28.4903 7.80853 28.3115 7.73442 28.125 7.73438H15.4688C15.0959 7.7348 14.7385 7.8831 14.4749 8.14673C14.2112 8.41036 14.0629 8.7678 14.0625 9.14062V10.5469H12.6562C12.2834 10.5473 11.926 10.6956 11.6624 10.9592C11.3987 11.2229 11.2504 11.5803 11.25 11.9531V35.8594C11.2504 36.2322 11.3987 36.5896 11.6624 36.8533C11.926 37.1169 12.2834 37.2652 12.6562 37.2656H29.5312ZM28.8281 10.1349L31.3495 12.6562H28.8281V10.1349ZM15.4688 9.14062H27.4219V13.3594C27.4219 13.4517 27.44 13.5432 27.4753 13.6285C27.5107 13.7138 27.5625 13.7913 27.6278 13.8566C27.6931 13.9219 27.7706 13.9737 27.8559 14.009C27.9412 14.0444 28.0327 14.0625 28.125 14.0625H32.3438L32.3448 33.0469H15.4688V9.14062ZM12.6562 11.9531H14.0625V33.0469C14.0629 33.4197 14.2112 33.7771 14.4749 34.0408C14.7385 34.3044 15.0959 34.4527 15.4688 34.4531H29.5312V35.8594H12.6562V11.9531Z" fill="#6A26DA"/>
<path d="M40.7813 40.0781C40.7807 40.6374 40.5582 41.1736 40.1628 41.569C39.7673 41.9645 39.2312 42.1869 38.6719 42.1875H6.32815C5.7689 42.1869 5.23273 41.9645 4.83727 41.569C4.44182 41.1736 4.21939 40.6374 4.21878 40.0781V25.3125H5.62503C5.74948 25.3125 5.87171 25.2795 5.97923 25.2169C6.08675 25.1542 6.17571 25.0641 6.23702 24.9558C6.29833 24.8475 6.32979 24.7249 6.32818 24.6004C6.32658 24.476 6.29198 24.3542 6.2279 24.2475L4.11853 20.7319C4.05131 20.6341 3.96131 20.5541 3.85627 20.4988C3.75124 20.4436 3.63434 20.4147 3.51565 20.4147C3.39697 20.4147 3.28006 20.4436 3.17503 20.4988C3.07 20.5541 2.97999 20.6341 2.91278 20.7319L0.803405 24.2475C0.73933 24.3542 0.704724 24.476 0.703122 24.6004C0.701521 24.7249 0.732981 24.8475 0.794289 24.9558C0.855597 25.0641 0.944556 25.1542 1.05208 25.2169C1.1596 25.2795 1.28183 25.3125 1.40628 25.3125H2.81253V40.0781C2.81362 41.0102 3.18437 41.9038 3.84344 42.5629C4.50251 43.2219 5.39609 43.5927 6.32815 43.5938H38.6719C39.604 43.5927 40.4975 43.2219 41.1566 42.5629C41.8157 41.9038 42.1864 41.0102 42.1875 40.0781V29.5313H40.7813V40.0781ZM2.64807 23.9063L3.51565 22.4602L4.38323 23.9063H2.64807Z" fill="#6A26DA"/>
<path d="M43.5938 20.3906H42.1875V4.92188C42.1864 3.98981 41.8157 3.09623 41.1566 2.43716C40.4975 1.77809 39.6039 1.40734 38.6719 1.40625H6.32812C5.39606 1.40734 4.50248 1.77809 3.84341 2.43716C3.18434 3.09623 2.81359 3.98981 2.8125 4.92188V16.1719H4.21875V4.92188C4.21936 4.36262 4.44179 3.82645 4.83725 3.431C5.2327 3.03554 5.76887 2.81311 6.32812 2.8125H38.6719C39.2311 2.81311 39.7673 3.03554 40.1628 3.431C40.5582 3.82645 40.7806 4.36262 40.7812 4.92188V20.3906H39.375C39.2505 20.3906 39.1283 20.4236 39.0208 20.4863C38.9133 20.5489 38.8243 20.639 38.763 20.7473C38.7017 20.8556 38.6702 20.9783 38.6718 21.1027C38.6734 21.2271 38.7081 21.3489 38.7721 21.4556L40.8815 24.9712C40.944 25.0753 41.0323 25.1615 41.138 25.2213C41.2436 25.2811 41.363 25.3125 41.4844 25.3125C41.6058 25.3125 41.7251 25.2811 41.8308 25.2213C41.9364 25.1615 42.0248 25.0753 42.0872 24.9712L44.1966 21.4556C44.2607 21.3489 44.2953 21.2271 44.2969 21.1027C44.2985 20.9783 44.267 20.8556 44.2057 20.7473C44.1444 20.639 44.0555 20.5489 43.948 20.4863C43.8404 20.4236 43.7182 20.3906 43.5938 20.3906ZM41.4844 23.243L40.6168 21.7969H42.352L41.4844 23.243Z" fill="#6A26DA"/>
<path d="M40.7812 26.7188H42.1875V28.125H40.7812V26.7188Z" fill="#6A26DA"/>
<path d="M2.8125 17.5781H4.21875V18.9844H2.8125V17.5781Z" fill="#6A26DA"/>
</svg>
