<svg width="133" height="30" viewBox="0 0 133 30" fill="none" xmlns="http://www.w3.org/2000/svg">
<g clip-path="url(#clip0_489_3385)">
<path fill-rule="evenodd" clip-rule="evenodd" d="M126.698 2.23584L132.238 2.26636C132.238 2.26636 121.939 16.2226 121.098 17.36C120.825 17.7283 120.41 18.1255 120.199 18.6179C119.667 19.8557 119.121 22.5709 119.121 22.5709L114.052 22.5963C114.052 22.5963 114.841 19.7659 114.809 18.2584C114.78 16.9415 114.108 15.6262 113.731 14.3054C113.35 12.9683 112.832 10.3521 112.832 10.3521H118.043L118.762 13.2272L126.698 2.23584Z" fill="#1A1918"/>
<path fill-rule="evenodd" clip-rule="evenodd" d="M116.209 5.17929C117.231 5.79558 117.859 9.19541 117.859 9.19541C117.859 9.19541 112.509 9.27429 109.598 9.27429H107.083L104.028 22.571H99.3562C99.3562 22.571 102.264 8.12084 102.95 5.50101C103.172 4.65274 104.474 4.79834 106.671 4.79834H110.181C112.447 4.79834 115.095 4.50894 116.209 5.17929ZM94.4598 11.6552C94.4598 11.6552 94.6054 10.8017 93.9658 9.81325C93.4193 8.97067 92.9148 8.77463 91.4771 8.72963C87.4181 8.60213 87.4969 11.6102 87.4969 11.6102L94.4598 11.6552ZM98.862 8.21032C99.4568 10.3561 98.323 15.3979 98.323 15.3979C98.323 15.3979 92.4022 15.2991 89.1591 15.3979C88.1507 15.4287 86.9437 15.2883 86.6435 15.7574C86.2212 16.4148 86.7979 17.4268 87.2867 17.8543C87.8492 18.3464 88.945 18.4026 89.3388 18.4525C91.9711 18.7869 97.4802 18.5389 97.4802 18.5389L96.5259 22.7647C96.5259 22.7647 88.7406 23.1552 84.8466 22.2258C84.0777 22.0427 83.3569 21.6726 82.87 21.1478C82.737 21.0043 82.6217 20.8085 82.496 20.6394C82.3956 20.5044 82.1029 20.0608 81.9715 19.7101C81.0821 17.3401 82.0757 12.7998 83.0497 10.3667C83.1627 10.0848 83.3047 9.72713 83.4542 9.42325C83.6409 9.04437 83.7989 8.61662 83.9481 8.39006C84.0485 8.23386 84.1729 8.13325 84.2771 7.98584C84.3974 7.81153 84.5373 7.64265 84.6668 7.49187C85.0263 7.07498 85.4342 6.78015 85.9248 6.41394C87.5471 5.19894 90.4832 4.25575 94.0106 4.61679C95.3386 4.75334 97.3442 5.22765 98.323 6.59343C98.5853 6.95808 98.7149 7.68196 98.862 8.21032ZM77.4345 4.78179L81.9645 4.75515C81.9645 4.75515 79.4399 16.7311 78.1532 22.571H72.942C69.3001 22.571 66.0568 23.022 64.6768 20.4146C63.3381 17.883 64.6157 13.7197 65.2157 10.8912C65.6399 8.88946 66.5331 4.79808 66.5331 4.79808L71.2266 4.75515C71.2266 4.75515 69.9004 11.125 69.3485 14.3055C69.1509 15.4447 68.7433 16.5175 69.169 17.3598C69.5732 18.1615 70.1393 18.2189 71.8641 18.2585C72.4106 18.2714 74.2002 18.2585 74.2002 18.2585L77.4345 4.78179ZM56.2315 13.4068C56.7058 11.7216 57.3976 9.8942 57.3097 8.37558C57.2145 6.75144 55.8526 5.27265 54.9738 4.96179C52.3271 4.02739 49.8493 5.33368 48.8644 6.3992C47.5905 7.7792 47.1591 9.39118 46.7081 11.6104C46.3724 13.2578 46.0972 14.997 46.7081 16.2819C47.7896 18.5533 51.1625 18.0573 54.7941 18.079C55.3331 16.6344 55.7787 15.0118 56.2315 13.4068ZM62.5206 6.75868C63.0379 10.5211 61.0527 14.674 59.6851 18.2854C61.0796 18.4114 62.3016 18.266 62.3895 18.37C62.4811 18.5047 61.4549 22.6807 61.0972 22.6915C59.9906 22.7202 56.3233 22.7508 54.7941 22.7508C49.804 22.7508 45.1359 23.0758 42.7553 20.5946C41.7886 19.5865 41.12 17.8576 40.9581 16.6414C40.6887 14.6109 41.0264 12.3754 41.4974 10.5322C41.9233 8.86799 42.4693 7.29765 43.2943 5.85998C45.3912 2.19998 49.0387 -0.516832 55.1533 0.110323C56.3393 0.232392 58.0426 0.751702 59.1066 1.368C59.18 1.41118 59.4374 1.61601 59.4963 1.65196C60.934 2.5667 62.2439 4.74972 62.5206 6.75868ZM40.4425 4.80351C40.1406 6.17808 39.8388 7.73627 39.5207 9.09455H34.4895C34.8793 7.58886 35.1777 6.09196 35.5677 4.78205C37.1776 4.78205 38.6745 4.80351 40.4427 4.80351M34.3098 10.3525H39.1615C38.5271 13.8635 37.271 19.527 36.2864 23.4695C35.6701 25.9367 35.2587 27.737 33.5911 29.0396C33.4418 29.1565 33.3557 29.1009 33.2316 29.2194C32.9243 29.5124 31.503 29.8522 30.7162 29.9381C29.4368 30.0767 27.9904 29.9562 26.418 29.9239C26.8294 28.42 27.295 26.614 27.6617 25.2661C31.4944 25.7301 31.5914 22.1073 32.3334 18.618C32.7627 16.6018 34.0638 11.1609 34.3098 10.3525Z" fill="#1A1918"/>
<path fill-rule="evenodd" clip-rule="evenodd" d="M22.9889 19.5164L22.8849 19.7859C21.1133 23.2359 17.974 25.3524 13.4962 25.4458C11.4029 25.489 9.40844 24.9518 8.1055 24.3679C5.29378 23.1045 2.92869 20.7617 1.63714 18.2585C-0.215616 14.6701 -0.549754 9.67847 3.30266 5.9502C3.36214 5.9502 2.83533 6.75864 2.89481 6.75864L2.78878 7.10364C0.012746 15.7948 8.56559 23.2431 16.8797 22.3912C18.8778 22.1864 21.4258 21.0922 22.9889 19.5164Z" fill="#21609B"/>
<path fill-rule="evenodd" clip-rule="evenodd" d="M17.9579 15.9227C20.0496 15.9369 22.2344 14.9593 23.5283 13.5868C22.3963 16.4601 19.1188 18.3069 14.7238 17.7196C11.0437 17.2272 7.53805 13.524 7.17702 9.81331C6.91297 7.11279 7.85409 5.50107 9.40504 3.5459C8.86607 4.56848 8.6646 5.35702 8.61443 5.86004C8.02529 11.7018 13.281 15.8919 17.9579 15.9227Z" fill="#21609B"/>
<path fill-rule="evenodd" clip-rule="evenodd" d="M23.3169 8.66677C22.9919 9.41263 21.1197 10.8211 20.2929 10.9972C17.019 11.6947 14.9224 10.1422 13.824 8.37556C13.6608 8.11177 13.359 7.39125 13.305 7.20789C12.879 5.75961 13.0748 3.5691 14.3454 2.4353C13.9626 3.51349 13.9068 4.76573 14.1082 5.57987C14.2303 6.07203 14.6022 6.93142 14.9744 7.47194C15.6514 8.45651 16.081 8.69573 16.9507 9.21866C17.3425 9.45401 17.7628 9.6428 17.9444 9.69453C18.7691 9.93737 20.5101 10.5769 23.3169 8.66677Z" fill="#21609B"/>
</g>
<defs>
<clipPath id="clip0_489_3385">
<rect width="132.509" height="30" fill="white"/>
</clipPath>
</defs>
</svg>
