<svg width="60" height="60" viewBox="0 0 60 60" fill="none" xmlns="http://www.w3.org/2000/svg">
<g clip-path="url(#clip0_489_3397)">
<path d="M30.0273 25C27.2661 25 25.0273 27.2388 25.0273 30C25.0273 32.7612 27.2661 35 30.0273 35C32.7891 35 35.0273 32.7612 35.0273 30C35.0244 27.2397 32.7876 25.0034 30.0273 25ZM30.0273 33C28.3706 33 27.0273 31.6567 27.0273 30C27.0273 28.3433 28.3706 27 30.0273 27C31.6846 27 33.0273 28.3433 33.0273 30C33.0273 31.6567 31.6846 33 30.0273 33Z" fill="url(#paint0_linear_489_3397)"/>
<path d="M47.4259 30C48.9288 28.7295 50.3571 27.373 51.7038 25.938C55.9806 21.312 57.4699 17.5288 56.0099 15C53.9098 11.3672 46.8556 12.041 38.7296 14.9292C37.1647 6.44824 34.2199 0 30.0255 0C25.8317 0 22.8869 6.44824 21.3258 14.9302C13.1998 12.042 6.14271 11.3682 4.04554 15C2.58558 17.5288 4.07484 21.312 8.3517 25.938C9.6974 27.373 11.1242 28.729 12.6256 30C11.1227 31.2705 9.69447 32.627 8.34779 34.062C4.07387 38.688 2.58461 42.4712 4.04457 45C5.04457 46.7339 7.17592 47.4868 10.0138 47.4868C13.8903 47.2969 17.7106 46.4805 21.3258 45.0688C22.8869 53.5518 25.8317 60 30.0255 60C34.2199 60 37.1647 53.5518 38.7257 45.0698C42.341 46.4805 46.1608 47.2969 50.0368 47.4868C52.8737 47.4868 55.0045 46.7329 56.006 45C57.466 42.4712 55.9767 38.688 51.6998 34.062C50.3541 32.627 48.9274 31.271 47.4259 30ZM54.278 16C55.214 17.6221 53.7028 20.8301 50.236 24.5801C48.8629 26.041 47.4039 27.418 45.8659 28.7041C44.0197 27.2192 42.0089 25.7471 39.8507 24.3208C39.694 21.7891 39.4308 19.2949 39.0665 16.9209C47.1256 14.0278 53.0016 13.7998 54.2746 16H54.278ZM34.0255 36.9282C32.6696 37.7095 31.3366 38.4365 30.0255 39.1099C28.7164 38.438 27.383 37.7104 26.0255 36.9282C24.6867 36.1548 23.3947 35.354 22.1359 34.542C22.0626 33.0762 22.0255 31.562 22.0255 30C22.0255 28.438 22.0626 26.9238 22.1359 25.458C23.3947 24.646 24.6867 23.8452 26.0255 23.0718C27.3805 22.29 28.714 21.563 30.0255 20.8911C31.3356 21.5649 32.6715 22.291 34.0255 23.0718C35.3649 23.8452 36.6569 24.646 37.9157 25.458C37.9889 26.9238 38.0255 28.438 38.0255 30C38.0255 31.562 37.9889 33.0762 37.9157 34.542C36.6569 35.354 35.3649 36.1548 34.0255 36.9282ZM37.7589 37.0171C37.6129 38.8979 37.4108 40.6831 37.1588 42.3599C35.5807 41.7368 33.9328 41.019 32.2296 40.2041C33.1696 39.7041 34.1037 39.1909 35.0226 38.6611C35.9415 38.1309 36.8649 37.5742 37.7589 37.0171ZM27.819 40.2002C26.1188 41.0142 24.4679 41.7329 22.8898 42.356C22.6408 40.6792 22.4386 38.894 22.2897 37.0132C23.1837 37.5698 24.0949 38.1177 25.0226 38.6572C25.945 39.1909 26.8786 39.7002 27.819 40.2002ZM20.0827 33.1729C18.5607 32.1309 17.1237 31.0732 15.7706 30C17.1203 28.9287 18.5573 27.8696 20.0827 26.8232C20.0465 27.8828 20.0255 28.9438 20.0255 30C20.0255 31.0562 20.0465 32.1172 20.0827 33.1768V33.1729ZM22.2926 22.979C22.4386 21.0991 22.6408 19.3149 22.8927 17.6392C24.4689 18.2612 26.1149 18.98 27.8156 19.793C26.8771 20.2915 25.9479 20.8057 25.0289 21.335C24.0968 21.875 23.1847 22.4243 22.2926 22.9829V22.979ZM32.235 19.7998C33.9347 18.9858 35.5846 18.2681 37.1618 17.645C37.4108 19.3218 37.6129 21.1069 37.7619 22.9878C36.8659 22.4272 35.9538 21.8774 35.0255 21.3389C34.1076 20.8091 33.1749 20.2998 32.235 19.7998ZM39.9689 26.8281C41.4909 27.8691 42.9279 28.9268 44.2809 30C42.9313 31.0708 41.4943 32.1299 39.9689 33.1768C40.0045 32.1172 40.0255 31.0562 40.0255 30C40.0255 28.9438 40.0045 27.8828 39.9689 26.8232V26.8281ZM30.0255 2C32.5709 2 35.3097 7.20703 36.8307 15.6348C34.5929 16.5059 32.2999 17.5259 30.0309 18.6572C27.757 17.5259 25.4625 16.5059 23.2306 15.6348C24.7418 7.20801 27.4806 2 30.0255 2ZM9.81898 24.5801C6.3517 20.8301 4.84096 17.6221 5.77699 16C6.34193 15.022 7.81166 14.5229 9.9767 14.5229C13.7526 14.7217 17.4713 15.5322 20.9879 16.9229C20.6237 19.293 20.361 21.7861 20.2038 24.3169C18.0455 25.7432 16.0348 27.2168 14.1886 28.7002C12.651 27.4155 11.1915 26.0396 9.81898 24.5801ZM5.77699 44C4.84096 42.3779 6.3517 39.1699 9.81898 35.4199C11.1915 33.959 12.6505 32.582 14.1886 31.2959C16.0348 32.7808 18.0455 34.2529 20.2038 35.6792C20.361 38.2109 20.6237 40.7051 20.9879 43.0791C12.9259 45.9722 7.04994 46.2002 5.77699 44ZM30.0255 58C27.4806 58 24.7428 52.793 23.2257 44.3662C25.4625 43.4951 27.757 42.4751 30.0309 41.3442C32.3048 42.4751 34.5988 43.4951 36.8356 44.3662C35.3087 52.793 32.5709 58 30.0255 58ZM54.2746 44C53.0026 46.2002 47.1227 45.9722 39.0636 43.0762C39.4279 40.7051 39.6906 38.2109 39.8478 35.6758C42.006 34.25 44.0167 32.7759 45.8629 31.293C47.401 32.5786 48.86 33.9561 50.2326 35.417C53.6998 39.1699 55.2106 42.3779 54.2746 44Z" fill="url(#paint1_linear_489_3397)"/>
</g>
<defs>
<linearGradient id="paint0_linear_489_3397" x1="30.0276" y1="59.554" x2="30.0276" y2="-3.276" gradientUnits="userSpaceOnUse">
<stop stop-color="#006DF0"/>
<stop offset="1" stop-color="#00E7F0"/>
</linearGradient>
<linearGradient id="paint1_linear_489_3397" x1="30.0258" y1="59.554" x2="30.0258" y2="-3.276" gradientUnits="userSpaceOnUse">
<stop stop-color="#006DF0"/>
<stop offset="1" stop-color="#00E7F0"/>
</linearGradient>
<clipPath id="clip0_489_3397">
<rect width="60" height="60" fill="white"/>
</clipPath>
</defs>
</svg>
