<svg width="111" height="30" viewBox="0 0 111 30" fill="none" xmlns="http://www.w3.org/2000/svg">
<g clip-path="url(#clip0_489_3377)">
<path fill-rule="evenodd" clip-rule="evenodd" d="M32.4883 22.1839V8.59261H34.2357L42.5416 19.5304V8.59261H44.2027V22.1839H42.4553L34.1494 11.1383V22.1839H32.4883ZM57.7293 21.6446C56.6291 22.0545 55.4425 22.2702 54.1913 22.2702C49.2725 22.2702 46.8131 19.9187 46.8131 15.1941C46.8131 10.7284 49.1862 8.48474 53.9324 8.48474C55.2915 8.48474 56.5644 8.6789 57.7293 9.04565V10.5558C56.5644 10.1028 55.3562 9.88702 54.1265 9.88702C50.4159 9.88702 48.5606 11.656 48.5606 15.151C48.5606 18.9263 50.3943 20.8032 54.0403 20.8032C54.6227 20.8032 55.2699 20.7169 55.9819 20.5659V16.0139H57.7293V21.6446ZM60.5339 16.9416V8.59261H62.2814V16.9416C62.2814 19.552 63.5758 20.868 66.1862 20.868C68.775 20.868 70.091 19.552 70.091 16.9416V8.59261H71.8384V16.9416C71.8384 20.5012 69.9615 22.2918 66.1862 22.2918C62.4108 22.2918 60.5339 20.5012 60.5339 16.9416ZM76.7141 8.59261V20.7601H83.8333V22.1839H74.9666V8.59261H76.7141ZM86.3574 22.1839H84.5237L91.2762 6.802L98.0287 22.1839H96.0871L94.3396 17.9124H89.8523L90.327 16.4885H93.7572L91.2115 10.3401L86.3574 22.1839ZM99.9056 22.1839V8.59261H105.709C108.298 8.59261 109.592 9.67128 109.592 11.8502C109.592 13.6192 108.319 14.9352 105.795 15.7766L110.455 22.1839H108.147L103.832 16.0786V14.9352C106.421 14.5253 107.737 13.5329 107.737 11.9365C107.737 10.6852 107.025 10.0596 105.579 10.0596H101.696V22.1839H99.9056Z" fill="#B52E31"/>
<path fill-rule="evenodd" clip-rule="evenodd" d="M0 4.96826L13.9149 0.00634766L28.1966 4.88197L25.8883 23.2842L13.9149 29.9073L2.13578 23.3705L0 4.96826Z" fill="#E23237"/>
<path fill-rule="evenodd" clip-rule="evenodd" d="M28.1958 4.88197L13.9141 0.00634766V29.9073L25.8874 23.2842L28.1958 4.88197Z" fill="#B52E31"/>
<path fill-rule="evenodd" clip-rule="evenodd" d="M13.9382 3.50122L5.26562 22.788L8.50166 22.7232L10.2491 18.3654H17.994L19.8925 22.7664L22.9775 22.8311L13.9382 3.50122ZM13.9598 9.69283L16.8938 15.8197H11.3925L13.9598 9.69283Z" fill="white"/>
</g>
<defs>
<clipPath id="clip0_489_3377">
<rect width="110.457" height="30" fill="white"/>
</clipPath>
</defs>
</svg>
