<svg width="311" height="170" viewBox="0 0 311 170" fill="none" xmlns="http://www.w3.org/2000/svg">
<g clip-path="url(#clip0_4_890)">
<path d="M113.44 15.2642L86.2976 21.1276L94.3213 58.2701L121.464 52.4067L113.44 15.2642Z" fill="#F5F5F5"/>
<path d="M242.663 0H150.156V60.1553H242.663V0Z" fill="#F5F5F5"/>
<path d="M208.638 30.4539C210.253 23.6927 206.08 16.9028 199.319 15.2884C192.558 13.6739 185.768 17.8461 184.154 24.6073C182.539 31.3685 186.711 38.1583 193.472 39.7728C200.234 41.3873 207.024 37.2151 208.638 30.4539Z" fill="#E0E0E0"/>
<path d="M200.638 27.5334L197.352 29.4336L194.066 31.3289V27.5334V23.7379L197.352 25.6381L200.638 27.5334Z" fill="#F5F5F5"/>
<path d="M242.663 49.3515H150.156V60.1602H242.663V49.3515Z" fill="#E0E0E0"/>
<path d="M159.142 54.7534L157.81 55.5223L156.478 56.2961V54.7534V53.2107L157.81 53.9845L159.142 54.7534Z" fill="#F5F5F5"/>
<path d="M235.048 54.5085H166.812V54.9983H235.048V54.5085Z" fill="#F5F5F5"/>
<path d="M168.193 54.7534C168.193 55.3166 167.737 55.7721 167.174 55.7721C166.611 55.7721 166.156 55.3166 166.156 54.7534C166.156 54.1902 166.611 53.7347 167.174 53.7347C167.737 53.7347 168.193 54.1902 168.193 54.7534Z" fill="#F5F5F5"/>
<path d="M307.652 43.3276H218.323C216.838 43.3276 215.634 44.5314 215.634 46.0163V125.992C215.634 127.476 216.838 128.68 218.323 128.68H307.652C309.137 128.68 310.341 127.476 310.341 125.992V46.0163C310.341 44.5314 309.137 43.3276 307.652 43.3276Z" fill="#F5F5F5"/>
<path d="M218.774 43.3276H307.202C308.936 43.3276 310.341 44.7332 310.341 46.4669V52.8581H215.634V46.4669C215.634 44.7332 217.04 43.3276 218.774 43.3276Z" fill="#EBEBEB"/>
<path d="M221.413 48.8568C221.827 48.8568 222.163 48.5214 222.163 48.1075C222.163 47.6937 221.827 47.3582 221.413 47.3582C221 47.3582 220.664 47.6937 220.664 48.1075C220.664 48.5214 221 48.8568 221.413 48.8568Z" fill="#FAFAFA"/>
<path d="M226.644 48.1075C226.644 48.5189 226.311 48.8568 225.895 48.8568C225.478 48.8568 225.145 48.5238 225.145 48.1075C225.145 47.6912 225.478 47.3582 225.895 47.3582C226.311 47.3582 226.644 47.6912 226.644 48.1075Z" fill="#FAFAFA"/>
<path d="M230.376 48.8568C230.789 48.8568 231.125 48.5214 231.125 48.1075C231.125 47.6937 230.789 47.3582 230.376 47.3582C229.962 47.3582 229.626 47.6937 229.626 48.1075C229.626 48.5214 229.962 48.8568 230.376 48.8568Z" fill="#FAFAFA"/>
<path d="M298.955 60.5372H263.193V61.8302H298.955V60.5372Z" fill="#FAFAFA"/>
<path d="M298.955 65.8657H263.193V67.1586H298.955V65.8657Z" fill="#FAFAFA"/>
<path d="M298.955 71.1941H263.193V72.487H298.955V71.1941Z" fill="#FAFAFA"/>
<path d="M298.955 76.5176H263.193V77.8105H298.955V76.5176Z" fill="#FAFAFA"/>
<path d="M281.074 81.846H263.193V83.1389H281.074V81.846Z" fill="#FAFAFA"/>
<path d="M225.209 93.6146H260.97V92.3216H225.209V93.6146Z" fill="#FAFAFA"/>
<path d="M225.209 98.943H260.97V97.6501H225.209V98.943Z" fill="#FAFAFA"/>
<path d="M225.209 104.266H260.97V102.974H225.209V104.266Z" fill="#FAFAFA"/>
<path d="M225.209 109.595H260.97V108.302H225.209V109.595Z" fill="#FAFAFA"/>
<path d="M243.089 114.918H260.97V113.626H243.089V114.918Z" fill="#FAFAFA"/>
<path d="M297.75 90.8916H267.146V116.353H297.75V90.8916Z" fill="#FAFAFA"/>
<path d="M267.097 108.664L276.137 102.327L282.45 106.691L292.372 98.2965L297.75 103.62V116.353H267.146L267.097 108.664Z" fill="#EBEBEB"/>
<path d="M282.979 100.858C284.394 100.858 285.54 99.7111 285.54 98.2965C285.54 96.8819 284.394 95.7352 282.979 95.7352C281.564 95.7352 280.418 96.8819 280.418 98.2965C280.418 99.7111 281.564 100.858 282.979 100.858Z" fill="#EBEBEB"/>
<path d="M255.813 59.7537H225.209V85.2155H255.813V59.7537Z" fill="#FAFAFA"/>
<path d="M225.155 77.5265L234.201 71.1941L240.508 75.5577L250.436 67.1586L255.808 72.487V85.2154H225.209L225.155 77.5265Z" fill="#EBEBEB"/>
<path d="M241.037 69.72C242.452 69.72 243.599 68.5732 243.599 67.1586C243.599 65.744 242.452 64.5972 241.037 64.5972C239.623 64.5972 238.476 65.744 238.476 67.1586C238.476 68.5732 239.623 69.72 241.037 69.72Z" fill="#EBEBEB"/>
<path d="M0 83.1047H113.934V142.54C113.934 143.799 112.915 144.817 111.657 144.817H2.27731C1.01867 144.817 0 143.799 0 142.54V83.1047Z" fill="#F5F5F5"/>
<path d="M113.934 83.1047H0V94.5696H113.934V83.1047Z" fill="#EBEBEB"/>
<path d="M6.95437 89.7554C7.45205 89.7554 7.8555 89.3519 7.8555 88.8543C7.8555 88.3566 7.45205 87.9531 6.95437 87.9531C6.45669 87.9531 6.05324 88.3566 6.05324 88.8543C6.05324 89.3519 6.45669 89.7554 6.95437 89.7554Z" fill="#FAFAFA"/>
<path d="M12.3465 89.7554C12.8441 89.7554 13.2476 89.3519 13.2476 88.8543C13.2476 88.3566 12.8441 87.9531 12.3465 87.9531C11.8488 87.9531 11.4453 88.3566 11.4453 88.8543C11.4453 89.3519 11.8488 89.7554 12.3465 89.7554Z" fill="#FAFAFA"/>
<path d="M17.7385 89.7554C18.2362 89.7554 18.6397 89.3519 18.6397 88.8543C18.6397 88.3566 18.2362 87.9531 17.7385 87.9531C17.2409 87.9531 16.8374 88.3566 16.8374 88.8543C16.8374 89.3519 17.2409 89.7554 17.7385 89.7554Z" fill="#FAFAFA"/>
<path d="M100.236 103.811H57.2119V105.368H100.236V103.811Z" fill="#EBEBEB"/>
<path d="M100.236 110.217H57.2119V111.774H100.236V110.217Z" fill="#EBEBEB"/>
<path d="M100.236 116.628H57.2119V118.185H100.236V116.628Z" fill="#EBEBEB"/>
<path d="M100.236 123.034H57.2119V124.591H100.236V123.034Z" fill="#EBEBEB"/>
<path d="M78.7215 129.444H57.2119V131.002H78.7215V129.444Z" fill="#EBEBEB"/>
<path d="M46.2906 102.719H9.47656V133.352H46.2906V102.719Z" fill="#FAFAFA"/>
<path d="M9.41289 124.101L20.295 116.481L27.886 121.731L39.826 111.627L46.2955 118.038V133.352H9.47655L9.41289 124.101Z" fill="#EBEBEB"/>
<path d="M31.6032 111.627C31.6032 113.332 30.2221 114.713 28.5178 114.713C26.8135 114.713 25.4324 113.332 25.4324 111.627C25.4324 109.923 26.8135 108.542 28.5178 108.542C30.2221 108.542 31.6032 109.923 31.6032 111.627Z" fill="#EBEBEB"/>
<path d="M110.016 21.9674L82.8734 27.8309L90.8971 64.9733L118.04 59.1099L110.016 21.9674Z" fill="white"/>
<path d="M118.038 59.117C118.038 59.117 118.019 59.0534 117.994 58.9358C117.965 58.8085 117.926 58.6371 117.877 58.4118C117.774 57.9416 117.622 57.2658 117.426 56.3842C117.034 54.6114 116.466 52.0304 115.746 48.7638C114.321 42.2306 112.298 32.9647 109.908 21.9993L110.046 22.0875C101.872 23.8554 92.6449 25.8536 82.9088 27.9595L83.0067 27.8077C85.9942 41.6821 88.7612 54.5281 91.0043 64.9548L90.8818 64.8764C99.0997 63.1231 105.873 61.6784 110.604 60.6744C112.969 60.1749 114.821 59.7831 116.094 59.5186C116.721 59.3864 117.206 59.2884 117.539 59.2199C117.867 59.1513 118.043 59.1219 118.043 59.1219C118.043 59.1219 117.886 59.166 117.563 59.2346C117.235 59.308 116.76 59.4158 116.138 59.5529C114.874 59.832 113.033 60.2385 110.682 60.7577C105.941 61.7959 99.1536 63.2798 90.9161 65.0821L90.8133 65.1066L90.7888 65.0037C88.5311 54.582 85.7493 41.7409 82.7423 27.8664L82.7129 27.744L82.8353 27.7195C92.5714 25.6185 101.803 23.6302 109.977 21.8671L110.09 21.8426L110.114 21.9552C112.465 32.9598 114.453 42.26 115.859 48.8177C116.549 52.0794 117.093 54.6555 117.47 56.4283C117.651 57.3001 117.793 57.9759 117.891 58.4363C117.935 58.6567 117.97 58.8281 117.994 58.9505C118.019 59.0632 118.023 59.1219 118.023 59.1219L118.038 59.117Z" fill="#263238"/>
<path d="M101.083 31.7158C101.098 31.7844 98.1594 32.4798 94.5157 33.2634C90.872 34.0519 87.9091 34.6298 87.8944 34.5613C87.8797 34.4927 90.8182 33.7973 94.4619 33.0137C98.1056 32.2252 101.069 31.6473 101.083 31.7158Z" fill="#263238"/>
<path d="M108.914 33.4005C108.929 33.4691 104.389 34.5074 98.7814 35.7219C93.1689 36.9365 88.6094 37.8621 88.5947 37.7935C88.58 37.725 93.1151 36.6867 98.7324 35.4722C104.345 34.2625 108.904 33.332 108.919 33.4005H108.914Z" fill="#263238"/>
<path d="M109.644 36.77C109.659 36.8385 105.119 37.8768 99.5111 39.0914C93.8986 40.3059 89.3391 41.2315 89.3244 41.163C89.3097 41.0944 93.8448 40.0562 99.4621 38.8416C105.075 37.6319 109.634 36.7014 109.649 36.77H109.644Z" fill="#263238"/>
<path d="M110.369 40.1345C110.383 40.2031 105.844 41.2414 100.236 42.4559C94.6235 43.6705 90.064 44.5961 90.0493 44.5275C90.0346 44.459 94.5696 43.4207 100.182 42.2062C105.795 40.9965 110.354 40.066 110.369 40.1345Z" fill="#263238"/>
<path d="M111.098 43.504C111.113 43.5726 106.573 44.6108 100.966 45.8254C95.3532 47.0399 90.7937 47.9656 90.779 47.897C90.7643 47.8284 95.2993 46.7902 100.912 45.5756C106.524 44.3659 111.084 43.4354 111.098 43.504Z" fill="#263238"/>
<path d="M111.823 46.8685C111.838 46.9371 107.298 47.9754 101.69 49.1899C96.078 50.4045 91.5185 51.3301 91.4989 51.2616C91.4842 51.193 96.0192 50.1547 101.632 48.9402C107.244 47.7305 111.804 46.8 111.818 46.8685H111.823Z" fill="#263238"/>
<path d="M112.553 50.2379C112.568 50.3065 108.028 51.3448 102.42 52.5593C96.8077 53.7739 92.2482 54.6995 92.2335 54.6309C92.2188 54.5624 96.7539 53.5241 102.366 52.3095C107.979 51.0999 112.538 50.1694 112.553 50.2379Z" fill="#263238"/>
<path d="M103.88 55.6349C103.894 55.7035 101.46 56.2863 98.4435 56.9377C95.4267 57.589 92.9681 58.0592 92.9535 57.9906C92.9388 57.922 95.3728 57.3392 98.3896 56.6879C101.406 56.0365 103.865 55.5664 103.88 55.6349Z" fill="#263238"/>
<path d="M237.002 117.044L243.946 134.88L246.846 130.203L250.857 135.468L255.642 130.918L251.082 126.525L255.289 123.68L237.002 117.044Z" fill="#00A4E1"/>
<path d="M234.387 119.679C234.426 119.738 233.29 120.526 231.855 121.437C230.42 122.348 229.225 123.038 229.186 122.98C229.146 122.921 230.283 122.132 231.718 121.221C233.153 120.311 234.347 119.62 234.387 119.679Z" fill="#263238"/>
<path d="M234.925 116.089C234.916 116.123 234.49 116.011 233.809 115.795C233.133 115.58 232.202 115.247 231.198 114.84C230.19 114.434 229.293 114.032 228.652 113.728C228.01 113.425 227.618 113.219 227.633 113.19C227.648 113.155 228.064 113.302 228.725 113.567C229.475 113.87 230.341 114.218 231.296 114.61C232.256 114.992 233.123 115.335 233.872 115.633C234.534 115.893 234.94 116.064 234.93 116.099L234.925 116.089Z" fill="#263238"/>
<path d="M237.021 107.989C237.056 107.984 237.154 108.356 237.276 108.973C237.399 109.585 237.536 110.442 237.653 111.387C237.771 112.338 237.844 113.199 237.883 113.821C237.918 114.448 237.918 114.835 237.883 114.835C237.81 114.84 237.643 113.307 237.403 111.417C237.168 109.526 236.953 107.998 237.026 107.984L237.021 107.989Z" fill="#263238"/>
<path d="M246.64 111.98C246.669 112.053 245.381 112.607 243.937 113.533C242.487 114.458 241.341 115.271 241.297 115.207C241.277 115.178 241.542 114.948 241.988 114.595C242.438 114.248 243.065 113.777 243.804 113.317C245.274 112.377 246.625 111.921 246.645 111.98H246.64Z" fill="#263238"/>
<path d="M75.4059 120.08C75.3618 120.08 75.4206 119.287 75.0778 117.925C74.9162 117.245 74.5929 116.437 74.0885 115.585C73.5792 114.732 72.8397 113.846 71.8406 113.097C70.8464 112.352 69.5878 111.72 68.1381 111.466C66.6983 111.221 65.0772 111.265 63.5296 111.853C62.7509 112.122 62.0016 112.533 61.3111 113.048C60.9536 113.293 60.645 113.596 60.3169 113.895C60.0231 114.223 59.7145 114.541 59.4598 114.909C58.3824 116.344 57.7751 118.185 57.7555 120.085C57.7702 121.985 58.3775 123.827 59.4598 125.262C59.7145 125.634 60.0231 125.952 60.3169 126.281C60.645 126.574 60.9536 126.883 61.3111 127.128C62.0016 127.642 62.7509 128.053 63.5296 128.323C65.0723 128.91 66.6983 128.959 68.1381 128.71C69.5878 128.455 70.8415 127.823 71.8406 127.079C72.8397 126.325 73.5743 125.438 74.0885 124.591C74.5978 123.739 74.9211 122.931 75.0778 122.25C75.4206 120.884 75.3569 120.09 75.4059 120.095C75.4059 120.095 75.4108 120.144 75.4108 120.237C75.4108 120.345 75.4059 120.487 75.401 120.663C75.401 120.849 75.3912 121.079 75.3422 121.349C75.308 121.618 75.2688 121.932 75.1708 122.274C75.0239 122.97 74.7105 123.793 74.206 124.664C73.6967 125.536 72.9572 126.447 71.9483 127.226C70.9395 127.995 69.6612 128.651 68.1773 128.925C66.7081 129.185 65.0429 129.146 63.4513 128.548C62.653 128.274 61.8792 127.857 61.1691 127.329C60.8017 127.079 60.4834 126.765 60.1455 126.462C59.8418 126.129 59.5235 125.801 59.259 125.419C58.1473 123.944 57.5205 122.049 57.5009 120.095C57.5205 118.141 58.1473 116.246 59.259 114.772C59.5186 114.39 59.8418 114.061 60.1455 113.728C60.4834 113.425 60.8017 113.111 61.1691 112.862C61.8792 112.333 62.653 111.916 63.4513 111.642C65.0429 111.045 66.7032 111.005 68.1773 111.265C69.6612 111.534 70.9395 112.191 71.9483 112.964C72.9621 113.743 73.7016 114.654 74.206 115.526C74.7105 116.402 75.0239 117.225 75.1708 117.916C75.2688 118.259 75.3031 118.572 75.3422 118.841C75.3863 119.111 75.401 119.341 75.401 119.527C75.401 119.703 75.4059 119.84 75.4108 119.953C75.4108 120.046 75.4108 120.095 75.4059 120.095V120.08Z" fill="#263238"/>
<path d="M66.522 124.542C66.4534 124.542 66.3946 122.544 66.3946 120.08C66.3946 117.617 66.4534 115.619 66.522 115.619C66.5905 115.619 66.6493 117.617 66.6493 120.08C66.6493 122.544 66.5905 124.542 66.522 124.542Z" fill="#263238"/>
<path d="M70.9835 120.08C70.9835 120.149 68.9854 120.208 66.5219 120.208C64.0585 120.208 62.0604 120.149 62.0604 120.08C62.0604 120.012 64.0585 119.953 66.5219 119.953C68.9854 119.953 70.9835 120.012 70.9835 120.08Z" fill="#263238"/>
<path d="M211.721 148.799C211.663 148.838 205.511 139.322 197.984 127.549C190.452 115.771 184.399 106.201 184.457 106.162C184.516 106.123 190.667 115.638 198.199 127.412C205.727 139.185 211.785 148.76 211.721 148.799Z" fill="#263238"/>
<path d="M214.395 169.574C222.28 169.574 228.671 163.182 228.671 155.298C228.671 147.413 222.28 141.022 214.395 141.022C206.511 141.022 200.119 147.413 200.119 155.298C200.119 163.182 206.511 169.574 214.395 169.574Z" fill="white"/>
<path d="M200.119 155.298C200.119 155.298 200.119 155.22 200.119 155.068C200.124 154.901 200.134 154.676 200.139 154.387C200.144 154.235 200.149 154.069 200.158 153.887C200.173 153.701 200.212 153.505 200.237 153.285C200.3 152.849 200.354 152.35 200.516 151.801C200.756 150.689 201.265 149.372 202.073 147.971C202.891 146.58 204.076 145.121 205.702 143.877C207.319 142.648 209.371 141.6 211.741 141.169C212.333 141.081 212.936 140.958 213.558 140.953C213.866 140.943 214.18 140.909 214.493 140.914C214.807 140.929 215.125 140.943 215.443 140.958C215.767 140.958 216.085 141.007 216.403 141.061C216.722 141.115 217.05 141.149 217.373 141.218C218.01 141.389 218.666 141.516 219.293 141.776C219.939 141.982 220.546 142.3 221.173 142.599C221.477 142.765 221.771 142.956 222.07 143.133C222.378 143.304 222.657 143.515 222.941 143.73C223.529 144.132 224.038 144.631 224.577 145.116C225.062 145.65 225.571 146.174 225.992 146.781C226.85 147.971 227.599 149.294 228.054 150.748C228.524 152.193 228.779 153.731 228.799 155.293C228.779 156.855 228.524 158.393 228.054 159.838C227.599 161.292 226.85 162.615 225.992 163.805C225.576 164.412 225.067 164.936 224.577 165.475C224.038 165.96 223.529 166.459 222.941 166.861C222.657 167.076 222.378 167.287 222.07 167.458C221.766 167.635 221.477 167.826 221.173 167.992C220.546 168.291 219.939 168.609 219.293 168.815C218.666 169.074 218.01 169.202 217.373 169.373C217.05 169.437 216.726 169.476 216.403 169.53C216.085 169.584 215.762 169.628 215.443 169.633C215.125 169.647 214.807 169.662 214.493 169.677C214.18 169.677 213.866 169.647 213.558 169.638C212.936 169.633 212.333 169.51 211.741 169.422C209.371 168.991 207.323 167.943 205.702 166.714C204.081 165.475 202.891 164.015 202.073 162.62C201.265 161.219 200.756 159.901 200.516 158.79C200.359 158.241 200.3 157.737 200.237 157.306C200.207 157.09 200.173 156.89 200.158 156.708C200.154 156.527 200.144 156.356 200.139 156.209C200.129 155.92 200.124 155.695 200.119 155.528C200.119 155.376 200.119 155.298 200.119 155.298C200.119 155.298 200.134 155.376 200.144 155.528C200.154 155.69 200.168 155.915 200.193 156.204C200.203 156.356 200.212 156.522 200.222 156.703C200.242 156.885 200.281 157.085 200.315 157.301C200.384 157.732 200.447 158.231 200.614 158.77C200.869 159.872 201.383 161.17 202.196 162.551C203.019 163.922 204.199 165.357 205.81 166.572C207.416 167.777 209.439 168.8 211.775 169.216C212.363 169.3 212.955 169.422 213.568 169.422C213.871 169.432 214.18 169.461 214.493 169.456C214.802 169.442 215.115 169.422 215.429 169.407C215.747 169.407 216.06 169.358 216.374 169.305C216.687 169.251 217.011 169.216 217.329 169.148C217.956 168.976 218.602 168.849 219.214 168.594C219.851 168.389 220.449 168.075 221.061 167.781C221.359 167.62 221.648 167.429 221.942 167.253C222.246 167.086 222.52 166.875 222.794 166.665C223.367 166.268 223.872 165.774 224.401 165.298C224.876 164.77 225.375 164.255 225.787 163.658C226.629 162.487 227.364 161.19 227.809 159.759C228.27 158.339 228.52 156.831 228.539 155.293C228.52 153.76 228.27 152.252 227.809 150.831C227.364 149.401 226.629 148.104 225.787 146.933C225.375 146.336 224.876 145.821 224.401 145.292C223.872 144.817 223.372 144.323 222.794 143.926C222.52 143.715 222.241 143.505 221.942 143.338C221.648 143.162 221.359 142.976 221.061 142.809C220.449 142.516 219.851 142.202 219.214 141.996C218.597 141.737 217.951 141.614 217.329 141.443C217.011 141.379 216.692 141.34 216.374 141.286C216.06 141.232 215.742 141.188 215.429 141.183C215.115 141.169 214.802 141.149 214.493 141.134C214.185 141.13 213.876 141.159 213.568 141.169C212.955 141.169 212.363 141.291 211.775 141.374C209.439 141.786 207.412 142.814 205.81 144.019C204.199 145.234 203.019 146.669 202.196 148.04C201.383 149.416 200.864 150.719 200.609 151.821C200.442 152.364 200.379 152.864 200.31 153.29C200.276 153.505 200.237 153.701 200.217 153.887C200.207 154.069 200.198 154.235 200.188 154.387C200.168 154.676 200.154 154.901 200.139 155.063C200.129 155.215 200.114 155.293 200.114 155.293L200.119 155.298Z" fill="#263238"/>
<path d="M210.502 150.053L208.548 161.224L214.395 160.421L220.243 161.224L217.892 150.053H210.502Z" fill="#EFC037"/>
<path d="M216.864 150.2C216.82 150.214 216.702 149.803 216.393 149.21C216.237 148.917 216.016 148.584 215.693 148.304C215.527 148.172 215.336 148.055 215.12 147.971C214.905 147.898 214.665 147.854 214.42 147.849C213.92 147.849 213.44 147.937 213.088 148.172C212.73 148.402 212.505 148.73 212.358 149.024C212.064 149.622 211.966 150.043 211.922 150.028C211.898 150.023 211.932 149.597 212.191 148.946C212.329 148.628 212.554 148.246 212.955 147.971C213.352 147.692 213.886 147.584 214.42 147.589C214.694 147.589 214.959 147.643 215.203 147.731C215.443 147.829 215.659 147.966 215.84 148.118C216.193 148.441 216.408 148.809 216.55 149.122C216.829 149.759 216.883 150.185 216.859 150.19L216.864 150.2Z" fill="#EFC037"/>
<path d="M157.428 149.754C157.36 149.754 157.301 139.925 157.301 127.799C157.301 115.673 157.36 105.844 157.428 105.844C157.497 105.844 157.556 115.673 157.556 127.799C157.556 139.925 157.497 149.754 157.428 149.754Z" fill="#263238"/>
<path d="M157.134 169.892C165.019 169.892 171.41 163.501 171.41 155.616C171.41 147.732 165.019 141.34 157.134 141.34C149.25 141.34 142.858 147.732 142.858 155.616C142.858 163.501 149.25 169.892 157.134 169.892Z" fill="white"/>
<path d="M142.863 155.616C142.863 155.616 142.863 155.538 142.863 155.386C142.868 155.22 142.878 154.994 142.883 154.705C142.888 154.553 142.893 154.387 142.902 154.206C142.917 154.02 142.956 153.824 142.981 153.603C143.044 153.167 143.098 152.668 143.26 152.119C143.5 151.008 144.009 149.69 144.817 148.29C145.635 146.899 146.82 145.439 148.446 144.195C150.063 142.966 152.115 141.918 154.485 141.487C155.077 141.399 155.68 141.276 156.302 141.272C156.61 141.262 156.924 141.228 157.237 141.232C157.551 141.247 157.869 141.262 158.187 141.276C158.511 141.276 158.829 141.325 159.147 141.379C159.466 141.433 159.794 141.467 160.117 141.536C160.754 141.707 161.41 141.835 162.037 142.094C162.683 142.3 163.291 142.618 163.917 142.917C164.221 143.084 164.515 143.275 164.814 143.451C165.122 143.622 165.401 143.833 165.685 144.048C166.273 144.45 166.782 144.95 167.321 145.434C167.806 145.968 168.315 146.492 168.736 147.1C169.594 148.29 170.343 149.612 170.798 151.066C171.268 152.511 171.523 154.049 171.543 155.611C171.523 157.174 171.268 158.711 170.798 160.156C170.343 161.611 169.594 162.933 168.736 164.123C168.32 164.73 167.811 165.254 167.321 165.793C166.782 166.278 166.273 166.777 165.685 167.179C165.401 167.395 165.122 167.605 164.814 167.777C164.51 167.953 164.221 168.144 163.917 168.31C163.291 168.609 162.683 168.927 162.037 169.133C161.41 169.393 160.754 169.52 160.117 169.691C159.794 169.755 159.47 169.794 159.147 169.848C158.829 169.902 158.506 169.946 158.187 169.951C157.869 169.966 157.551 169.98 157.237 170C156.924 170 156.61 169.971 156.302 169.961C155.68 169.956 155.077 169.833 154.485 169.745C152.115 169.314 150.067 168.266 148.446 167.037C146.825 165.798 145.635 164.339 144.817 162.943C144.009 161.542 143.5 160.225 143.26 159.113C143.103 158.564 143.044 158.06 142.981 157.629C142.951 157.414 142.917 157.213 142.902 157.032C142.898 156.85 142.888 156.679 142.883 156.532C142.873 156.243 142.868 156.018 142.863 155.851C142.863 155.699 142.863 155.621 142.863 155.621C142.863 155.621 142.878 155.699 142.888 155.851C142.898 156.013 142.912 156.238 142.937 156.527C142.947 156.679 142.956 156.845 142.966 157.027C142.986 157.208 143.025 157.409 143.059 157.624C143.128 158.055 143.191 158.555 143.358 159.093C143.613 160.195 144.127 161.493 144.94 162.874C145.763 164.245 146.943 165.68 148.554 166.895C150.16 168.1 152.183 169.123 154.519 169.54C155.107 169.623 155.699 169.745 156.312 169.745C156.615 169.755 156.924 169.785 157.237 169.78C157.546 169.765 157.859 169.745 158.173 169.731C158.491 169.731 158.804 169.682 159.118 169.628C159.431 169.574 159.755 169.54 160.073 169.471C160.7 169.3 161.346 169.172 161.958 168.918C162.595 168.712 163.193 168.399 163.805 168.105C164.103 167.943 164.392 167.752 164.686 167.576C164.99 167.409 165.264 167.199 165.538 166.988C166.111 166.591 166.616 166.097 167.145 165.622C167.62 165.093 168.119 164.579 168.531 163.981C169.373 162.811 170.108 161.513 170.553 160.083C171.014 158.662 171.264 157.154 171.283 155.616C171.264 154.083 171.014 152.575 170.553 151.155C170.108 149.725 169.373 148.427 168.531 147.256C168.119 146.659 167.62 146.145 167.145 145.616C166.616 145.141 166.116 144.646 165.538 144.249C165.264 144.039 164.985 143.828 164.686 143.662C164.392 143.485 164.103 143.299 163.805 143.133C163.193 142.839 162.595 142.525 161.958 142.32C161.341 142.06 160.695 141.938 160.073 141.766C159.755 141.703 159.436 141.663 159.118 141.61C158.804 141.556 158.486 141.512 158.173 141.507C157.859 141.492 157.546 141.472 157.237 141.458C156.929 141.453 156.62 141.482 156.312 141.492C155.699 141.492 155.107 141.614 154.519 141.698C152.183 142.109 150.156 143.138 148.554 144.342C146.943 145.557 145.763 146.992 144.94 148.363C144.127 149.739 143.608 151.042 143.353 152.144C143.187 152.688 143.123 153.187 143.054 153.613C143.02 153.829 142.981 154.025 142.961 154.211C142.951 154.392 142.942 154.558 142.932 154.71C142.912 154.999 142.898 155.224 142.883 155.386C142.873 155.538 142.858 155.616 142.858 155.616H142.863Z" fill="#263238"/>
<path d="M157.134 149.225L150.944 154.852V161.983H155.768V157.707H158.834V161.983H163.33V154.852L157.134 149.225Z" fill="#B10043"/>
<path d="M102.166 149.299C102.107 149.259 108.253 139.543 115.893 127.593C123.538 115.643 129.777 105.986 129.836 106.025C129.895 106.064 123.749 115.78 116.109 127.73C108.469 139.68 102.224 149.333 102.166 149.299V149.299Z" fill="#263238"/>
<path d="M99.8539 169.711C107.738 169.711 114.13 163.319 114.13 155.435C114.13 147.551 107.738 141.159 99.8539 141.159C91.9695 141.159 85.5779 147.551 85.5779 155.435C85.5779 163.319 91.9695 169.711 99.8539 169.711Z" fill="white"/>
<path d="M114.13 155.435C114.13 155.435 114.115 155.357 114.106 155.205C114.096 155.043 114.081 154.818 114.057 154.529C114.047 154.377 114.037 154.211 114.027 154.029C114.008 153.848 113.968 153.647 113.934 153.432C113.866 153.001 113.802 152.501 113.635 151.963C113.381 150.861 112.866 149.563 112.049 148.182C111.226 146.811 110.046 145.376 108.434 144.161C106.828 142.956 104.805 141.933 102.469 141.516C101.881 141.433 101.289 141.316 100.677 141.311C100.373 141.301 100.065 141.272 99.7511 141.276C99.4426 141.291 99.1291 141.311 98.8157 141.325C98.4974 141.325 98.1839 141.374 97.8705 141.428C97.557 141.482 97.2338 141.516 96.9204 141.585C96.2935 141.756 95.647 141.884 95.0349 142.138C94.3982 142.344 93.8007 142.658 93.1885 142.951C92.8898 143.113 92.6008 143.304 92.307 143.48C92.0033 143.647 91.7291 143.857 91.4548 144.068C90.8818 144.465 90.3774 144.959 89.8485 145.434C89.3734 145.963 88.8739 146.478 88.4625 147.075C87.6201 148.246 86.8855 149.543 86.4399 150.973C85.9795 152.394 85.7297 153.902 85.7101 155.435C85.7297 156.973 85.9795 158.481 86.4399 159.901C86.8855 161.332 87.6201 162.629 88.4625 163.8C88.8739 164.397 89.3734 164.912 89.8485 165.44C90.3774 165.916 90.8769 166.41 91.4548 166.807C91.7291 167.017 92.0082 167.228 92.307 167.395C92.6008 167.571 92.8898 167.757 93.1885 167.923C93.8007 168.217 94.3982 168.531 95.0349 168.736C95.6519 168.996 96.2984 169.123 96.9204 169.29C97.2387 169.354 97.557 169.393 97.8754 169.447C98.1888 169.5 98.5071 169.545 98.8206 169.549C99.134 169.564 99.4475 169.584 99.756 169.598C100.065 169.603 100.373 169.574 100.682 169.564C101.294 169.564 101.886 169.442 102.474 169.358C104.81 168.942 106.838 167.919 108.439 166.714C110.05 165.499 111.231 164.064 112.053 162.693C112.866 161.317 113.386 160.014 113.635 158.912C113.802 158.369 113.866 157.869 113.934 157.443C113.968 157.227 114.008 157.032 114.027 156.845C114.037 156.664 114.047 156.498 114.057 156.346C114.076 156.057 114.091 155.832 114.106 155.67C114.115 155.518 114.13 155.44 114.13 155.44C114.13 155.44 114.13 155.518 114.13 155.67C114.125 155.837 114.115 156.062 114.11 156.351C114.105 156.503 114.101 156.669 114.091 156.85C114.076 157.036 114.037 157.232 114.012 157.448C113.949 157.884 113.895 158.383 113.733 158.932C113.493 160.043 112.984 161.361 112.176 162.762C111.358 164.152 110.173 165.612 108.547 166.856C106.931 168.085 104.879 169.133 102.508 169.564C101.916 169.652 101.313 169.775 100.691 169.78C100.383 169.789 100.069 169.824 99.756 169.819C99.4426 169.804 99.1242 169.789 98.8059 169.775C98.4827 169.775 98.1643 169.726 97.846 169.672C97.5277 169.618 97.1995 169.584 96.8763 169.515C96.2396 169.344 95.5834 169.216 94.9565 168.957C94.31 168.751 93.7028 168.433 93.0759 168.134C92.7722 167.968 92.4784 167.777 92.1797 167.6C91.8711 167.429 91.592 167.218 91.3079 167.003C90.7202 166.601 90.2109 166.102 89.6722 165.617C89.1873 165.083 88.678 164.559 88.2568 163.947C87.3998 162.757 86.6504 161.434 86.195 159.98C85.7248 158.535 85.4702 156.997 85.4506 155.435C85.4702 153.873 85.7248 152.335 86.195 150.89C86.6504 149.436 87.3998 148.113 88.2568 146.923C88.6731 146.316 89.1824 145.792 89.6722 145.258C90.2109 144.773 90.7202 144.274 91.3079 143.872C91.592 143.657 91.8711 143.446 92.1797 143.275C92.4833 143.098 92.7722 142.907 93.0759 142.741C93.7028 142.442 94.31 142.124 94.9565 141.918C95.5834 141.658 96.2396 141.531 96.8763 141.36C97.1995 141.296 97.5228 141.257 97.846 141.203C98.1643 141.149 98.4876 141.105 98.8059 141.1C99.1242 141.085 99.4426 141.071 99.756 141.056C100.069 141.056 100.383 141.081 100.691 141.095C101.313 141.1 101.916 141.223 102.508 141.311C104.879 141.742 106.926 142.79 108.547 144.019C110.168 145.258 111.358 146.718 112.176 148.113C112.989 149.514 113.493 150.831 113.733 151.943C113.89 152.492 113.949 152.996 114.012 153.427C114.042 153.643 114.076 153.843 114.091 154.029C114.096 154.211 114.105 154.382 114.11 154.529C114.12 154.818 114.125 155.043 114.13 155.21C114.13 155.362 114.13 155.44 114.13 155.44V155.435Z" fill="#263238"/>
<path d="M105.378 148.006H94.168V162.869H105.378V148.006Z" fill="#00A4E1"/>
<path d="M100.319 150.381C100.319 150.449 99.4964 150.508 98.4778 150.508C97.4591 150.508 96.6363 150.449 96.6363 150.381C96.6363 150.312 97.4591 150.253 98.4778 150.253C99.4964 150.253 100.319 150.312 100.319 150.381Z" fill="#455A64"/>
<path d="M103.561 152.472C103.561 152.541 101.911 152.599 99.8784 152.599C97.846 152.599 96.1956 152.541 96.1956 152.472C96.1956 152.403 97.8411 152.345 99.8784 152.345C101.916 152.345 103.561 152.403 103.561 152.472Z" fill="#455A64"/>
<path d="M103.561 153.74C103.561 153.809 101.911 153.868 99.8784 153.868C97.846 153.868 96.1956 153.809 96.1956 153.74C96.1956 153.672 97.8411 153.613 99.8784 153.613C101.916 153.613 103.561 153.672 103.561 153.74Z" fill="#455A64"/>
<path d="M103.561 155.014C103.561 155.082 101.911 155.141 99.8784 155.141C97.846 155.141 96.1956 155.082 96.1956 155.014C96.1956 154.945 97.8411 154.886 99.8784 154.886C101.916 154.886 103.561 154.945 103.561 155.014Z" fill="#455A64"/>
<path d="M103.561 156.282C103.561 156.351 101.911 156.41 99.8784 156.41C97.846 156.41 96.1956 156.351 96.1956 156.282C96.1956 156.214 97.8411 156.155 99.8784 156.155C101.916 156.155 103.561 156.214 103.561 156.282Z" fill="#455A64"/>
<path d="M103.561 157.556C103.561 157.624 101.911 157.683 99.8784 157.683C97.846 157.683 96.1956 157.624 96.1956 157.556C96.1956 157.487 97.8411 157.428 99.8784 157.428C101.916 157.428 103.561 157.487 103.561 157.556Z" fill="#455A64"/>
<path d="M103.561 158.824C103.561 158.893 101.911 158.951 99.8784 158.951C97.846 158.951 96.1956 158.893 96.1956 158.824C96.1956 158.755 97.8411 158.697 99.8784 158.697C101.916 158.697 103.561 158.755 103.561 158.824Z" fill="#455A64"/>
<path d="M103.561 160.097C103.561 160.166 101.911 160.225 99.8784 160.225C97.846 160.225 96.1956 160.166 96.1956 160.097C96.1956 160.029 97.8411 159.97 99.8784 159.97C101.916 159.97 103.561 160.029 103.561 160.097Z" fill="#455A64"/>
<path d="M223.098 81.8118H96.7098C90.2751 81.8118 85.0588 87.0281 85.0588 93.4628V94.741C85.0588 101.176 90.2751 106.392 96.7098 106.392H223.098C229.533 106.392 234.749 101.176 234.749 94.741V93.4628C234.749 87.0281 229.533 81.8118 223.098 81.8118Z" fill="white"/>
<path d="M201.584 81.5865V106.387H222.496C229.347 106.387 234.896 100.833 234.896 93.9868C234.896 87.1353 229.342 81.5865 222.496 81.5865H201.584V81.5865Z" fill="#00A4E1"/>
<path d="M221.046 93.3012C221.012 93.3012 221.041 92.8359 220.835 92.0328C220.63 91.2492 220.106 90.0983 218.925 89.2069C218.343 88.7711 217.608 88.4038 216.761 88.2568C215.918 88.1148 214.973 88.1442 214.072 88.487C213.617 88.6437 213.181 88.8837 212.779 89.1873C212.373 89.4812 212.005 89.8485 211.702 90.2746C211.075 91.112 210.717 92.1846 210.708 93.2963C210.717 94.4031 211.07 95.4806 211.702 96.318C212.005 96.7441 212.373 97.1114 212.779 97.4053C213.181 97.7089 213.617 97.944 214.072 98.1056C214.973 98.4484 215.923 98.4778 216.761 98.3358C217.608 98.1888 218.343 97.8215 218.925 97.3857C220.106 96.4992 220.63 95.3434 220.835 94.5598C221.041 93.7616 221.012 93.2914 221.046 93.2914C221.046 93.2914 221.11 93.7567 220.928 94.5794C220.747 95.3875 220.238 96.5825 219.033 97.5228C218.436 97.9832 217.677 98.3749 216.795 98.5366C215.923 98.6933 214.929 98.6737 213.984 98.3162C213.509 98.1546 213.049 97.9048 212.627 97.5914C212.201 97.2828 211.814 96.9008 211.491 96.4552C210.83 95.5785 210.453 94.4472 210.443 93.2865C210.453 92.1258 210.83 90.9945 211.491 90.1179C211.809 89.6722 212.201 89.2902 212.627 88.9817C213.049 88.6682 213.509 88.4185 213.984 88.2568C214.929 87.9042 215.918 87.8797 216.795 88.0364C217.677 88.1981 218.436 88.5899 219.033 89.0502C220.238 89.9905 220.752 91.1855 220.928 91.9936C221.11 92.8164 221.046 93.2865 221.046 93.2865V93.3012Z" fill="white"/>
<path d="M225.909 100.623C225.87 100.682 224.518 99.7805 222.892 98.6198C221.266 97.4542 219.983 96.4649 220.022 96.4062C220.062 96.3474 221.413 97.2436 223.039 98.4092C224.665 99.5748 225.948 100.564 225.909 100.618V100.623Z" fill="white"/>
<path d="M194 92H112V99H194V92Z" fill="#EBEBEB"/>
<path d="M223.098 106.392C223.098 106.392 223.387 106.368 223.945 106.338C224.224 106.338 224.572 106.275 224.979 106.211C225.39 106.167 225.855 106.03 226.384 105.893C227.423 105.569 228.686 105.045 229.974 104.09C230.136 103.973 230.297 103.85 230.459 103.723C230.616 103.591 230.767 103.444 230.929 103.297C231.257 103.018 231.551 102.685 231.86 102.342C232.178 102.009 232.428 101.602 232.731 101.22C232.859 101.01 232.986 100.799 233.118 100.584L233.314 100.26L233.481 99.9127C233.965 98.9969 234.284 97.9391 234.509 96.8175C234.553 96.5335 234.597 96.2445 234.641 95.9556C234.656 95.6617 234.671 95.363 234.685 95.0643C234.71 94.4668 234.705 93.8399 234.685 93.213C234.651 90.7055 233.706 87.963 231.742 85.7689C229.808 83.5749 226.805 81.9979 223.465 81.9146C220.125 81.8803 216.58 81.9146 212.867 81.9048C183.14 81.9146 142.08 81.9293 96.7245 81.944C93.9133 81.944 91.1512 83.0068 89.0796 84.8531C87.0031 86.6847 85.6171 89.2657 85.2987 91.9838C85.2302 92.3217 85.24 92.6645 85.2155 93.0024C85.191 93.3404 85.1861 93.6832 85.191 94.0309C85.1812 94.7214 85.2106 95.3973 85.2743 96.0731C85.4114 97.4248 85.8326 98.7324 86.435 99.9323C87.6495 102.332 89.6966 104.271 92.1307 105.32C93.3452 105.844 94.6431 106.147 95.9507 106.235C96.602 106.284 97.2632 106.275 97.9243 106.275C98.5855 106.275 99.2418 106.275 99.898 106.275C102.523 106.275 105.124 106.275 107.695 106.275C112.837 106.275 117.877 106.275 122.789 106.275C142.442 106.284 160.141 106.294 175 106.304C189.859 106.319 201.887 106.333 210.203 106.343C214.356 106.353 217.584 106.363 219.773 106.368C220.865 106.372 221.697 106.377 222.261 106.382C222.819 106.382 223.108 106.397 223.108 106.397C223.108 106.397 222.819 106.407 222.261 106.412C221.697 106.412 220.865 106.417 219.773 106.426C217.584 106.431 214.356 106.441 210.203 106.451C201.887 106.461 189.864 106.475 175 106.49C160.137 106.5 142.437 106.505 122.789 106.519C117.877 106.519 112.842 106.519 107.695 106.519C105.124 106.519 102.523 106.519 99.898 106.519C99.2418 106.519 98.5855 106.519 97.9243 106.519C97.2632 106.519 96.6069 106.529 95.936 106.48C94.6039 106.392 93.2767 106.079 92.0327 105.545C89.5448 104.472 87.4536 102.489 86.2097 100.04C85.5926 98.8157 85.1665 97.4787 85.0245 96.0976C84.9608 95.4071 84.9314 94.7117 84.9412 94.026C84.9412 93.6832 84.9412 93.3355 84.9657 92.9877C84.9902 92.64 84.9804 92.2923 85.049 91.9446C85.3771 89.1677 86.7925 86.528 88.9131 84.6572C91.0239 82.7717 93.8546 81.6893 96.7245 81.6844C142.075 81.6991 183.135 81.7138 212.867 81.7236C216.584 81.7334 220.12 81.7089 223.47 81.753C226.859 81.8461 229.896 83.4524 231.85 85.6759C233.828 87.8993 234.778 90.6811 234.808 93.213C234.827 93.8497 234.827 94.4619 234.803 95.0692C234.788 95.3728 234.769 95.6715 234.754 95.9703C234.71 96.2641 234.666 96.5531 234.622 96.842C234.396 97.9733 234.068 99.041 233.574 99.9617C233.515 100.079 233.461 100.197 233.402 100.309L233.202 100.638C233.069 100.853 232.937 101.069 232.81 101.279C232.506 101.666 232.251 102.073 231.928 102.406C231.62 102.748 231.321 103.081 230.988 103.361C230.826 103.503 230.674 103.649 230.513 103.787C230.346 103.909 230.18 104.031 230.023 104.154C228.725 105.104 227.452 105.628 226.404 105.941C225.87 106.074 225.405 106.211 224.993 106.25C224.582 106.314 224.239 106.368 223.955 106.368C223.392 106.392 223.108 106.397 223.108 106.397L223.098 106.392Z" fill="#263238"/>
<path d="M158.241 91.1071C157.796 90.588 157.752 90.1472 158.751 90.0591C160.959 89.8583 162.59 88.8935 162.845 88.3352C163.1 87.7769 162.399 87.2333 161.802 87.5663C161.317 87.8356 160.367 88.0462 159.652 88.1736C159.059 88.2813 158.452 88.2911 157.859 88.198C157.345 88.1197 156.894 88.0315 156.488 87.9434C156.488 87.9434 154.152 87.4389 153.138 86.6505L148.192 91.9348L150.513 94.5549C150.513 94.5549 151.62 96.2103 153.608 96.0144C155.597 95.8185 158.276 94.3884 158.276 94.3884C158.638 93.835 161.841 95.8087 162.874 96.5482C163.893 97.2828 164.667 97.1016 164.628 96.3915C164.603 95.9066 161.498 93.5607 160.46 92.8555C159.892 92.4686 158.775 91.7242 158.236 91.0973" fill="#FFBE9D"/>
<path d="M155.337 95.7009C155.342 95.7303 155.195 95.7939 154.94 95.7891C154.686 95.7842 154.333 95.6862 154.02 95.4462C153.706 95.2112 153.515 94.8928 153.442 94.6528C153.363 94.408 153.388 94.2513 153.417 94.2464C153.486 94.2317 153.608 94.8292 154.176 95.2405C154.73 95.6715 155.337 95.6274 155.342 95.7009H155.337Z" fill="#EB996E"/>
<path d="M157.296 94.9271C157.296 94.9565 157.154 95.0104 156.909 94.9957C156.669 94.981 156.331 94.8781 156.037 94.648C155.744 94.4178 155.557 94.119 155.484 93.884C155.411 93.6538 155.425 93.4971 155.455 93.4922C155.523 93.4775 155.655 94.0407 156.189 94.4423C156.713 94.8634 157.291 94.8488 157.291 94.9222L157.296 94.9271Z" fill="#EB996E"/>
<path d="M162.629 39.9484C162.835 44.2876 168.129 50.2331 172.067 51.193C174.138 51.6974 176.518 51.4623 178.159 52.8532C180.97 55.2382 179.325 60.1798 181.225 63.3827C182.391 65.3515 184.707 66.3163 186.02 68.1822C188.199 71.2872 186.735 75.9789 183.762 78.2905C180.789 80.6021 176.822 81.0429 173.095 80.9449C164.892 80.7343 156.493 78.124 150.567 72.3107C147.78 69.5779 136.884 61.1495 140.684 41.163" fill="#263238"/>
<path d="M194.458 72.6584L163.276 63.4023C160.69 62.3053 158.736 62.0359 158.736 62.0359L148.206 62.1045C146.776 62.1045 145.43 62.413 144.166 62.9468L115.78 72.3744C113.679 73.0404 112.23 75.1953 112.23 77.6489C112.23 80.6756 114.409 83.1243 117.098 83.1243H130.203C130.164 83.2467 130.145 83.3153 130.145 83.3153L175.73 83.4867C175.73 83.4867 175.73 83.4769 175.73 83.4671L193.131 83.5063C195.819 83.5063 197.999 81.0282 197.999 77.9771C197.999 75.499 196.549 73.3245 194.448 72.6535L194.458 72.6584Z" fill="#B10043"/>
<path d="M188.209 76.0279C188.209 76.0279 188.111 76.0279 187.925 76.0132C187.714 75.9887 187.45 75.9593 187.121 75.9201C186.426 75.832 185.417 75.7193 184.168 75.6018C181.676 75.3569 178.213 75.1414 174.388 75.1904C170.563 75.2443 167.106 75.5479 164.618 75.8565C163.374 76.0083 162.37 76.1503 161.674 76.2532C161.351 76.2972 161.087 76.3364 160.876 76.3658C160.695 76.3903 160.597 76.3952 160.592 76.3854C160.592 76.3756 160.685 76.3511 160.866 76.3119C161.077 76.2679 161.336 76.2189 161.66 76.1503C162.35 76.0132 163.354 75.8467 164.598 75.6704C167.086 75.3177 170.549 74.9798 174.388 74.926C178.223 74.877 181.695 75.1218 184.193 75.4108C185.442 75.5528 186.451 75.6948 187.141 75.8124C187.464 75.8663 187.729 75.9152 187.939 75.9495C188.121 75.9838 188.214 76.0083 188.214 76.0132L188.209 76.0279Z" fill="#263238"/>
<g opacity="0.6">
<path d="M180.892 68.4515C180.892 68.4515 180.867 68.4907 180.804 68.5544C180.73 68.6278 180.642 68.7258 180.529 68.8433C180.285 69.0931 179.922 69.4604 179.428 69.911C178.933 70.3615 178.316 70.8953 177.532 71.4389C176.749 71.9679 175.789 72.5213 174.623 72.8249C173.462 73.1531 172.091 73.1188 170.725 72.7466C169.354 72.3793 168.002 71.6887 166.621 70.9345C165.235 70.1999 163.805 69.3428 162.179 68.8531C160.572 68.3193 158.731 68.3389 157.1 69.1127C155.459 69.8522 154.064 70.9786 152.536 71.7916C152.159 72.0022 151.757 72.1638 151.37 72.3401C150.969 72.4821 150.577 72.6388 150.175 72.7368C149.377 72.9719 148.564 73.0894 147.775 73.1531C144.587 73.3832 141.737 72.345 139.797 70.959C138.818 70.2587 138.074 69.4653 137.388 68.8188C136.707 68.1626 136.085 67.6434 135.522 67.2957C134.386 66.5954 133.592 66.6248 133.612 66.5807C133.612 66.5807 133.798 66.5807 134.146 66.6444C134.494 66.708 134.998 66.8696 135.576 67.2125C136.154 67.5553 136.795 68.0695 137.486 68.7209C138.181 69.3624 138.931 70.1411 139.9 70.817C141.825 72.1638 144.626 73.1628 147.756 72.9229C148.53 72.8592 149.328 72.7417 150.107 72.5066C150.503 72.4086 150.885 72.2519 151.277 72.1148C151.654 71.9434 152.046 71.7818 152.413 71.5761C153.912 70.7778 155.308 69.6416 156.992 68.8825C158.667 68.0793 160.612 68.0646 162.247 68.6131C163.912 69.1225 165.347 69.9893 166.729 70.7288C168.105 71.4879 169.437 72.1736 170.774 72.5458C172.106 72.918 173.428 72.9572 174.569 72.6535C175.715 72.3695 176.665 71.8356 177.444 71.3214C178.228 70.7974 178.85 70.2734 179.354 69.8375C179.854 69.4016 180.231 69.0441 180.485 68.8041C180.603 68.6915 180.701 68.6033 180.779 68.5348C180.848 68.476 180.882 68.4466 180.887 68.4466L180.892 68.4515Z" fill="white"/>
</g>
<g opacity="0.2">
<path d="M132.437 75.9642L152.149 79.6814L149.872 83.3888L149.269 83.3985L132.437 75.9642Z" fill="black"/>
</g>
<g opacity="0.6">
<path d="M192.102 72.0707C192.102 72.0707 192.112 72.1736 192.112 72.3744C192.107 72.5703 192.087 72.8641 192.024 73.2363C191.901 73.9758 191.598 75.0582 190.839 76.1846C190.089 77.3061 188.826 78.4472 187.117 79.0398C186.269 79.3385 185.324 79.5051 184.345 79.4757C183.365 79.4365 182.371 79.2161 181.387 78.9369C180.397 78.6578 179.452 78.3493 178.517 78.1632C177.581 77.9624 176.661 77.9232 175.794 78.0211C174.055 78.2317 172.586 78.9516 171.543 79.7597C170.475 80.558 169.829 81.4444 169.432 82.0664C169.339 82.2231 169.256 82.3652 169.177 82.4925C169.118 82.6149 169.065 82.7227 169.016 82.8157C168.927 82.992 168.874 83.0802 168.869 83.0802C168.859 83.0802 168.898 82.9773 168.972 82.7961C169.016 82.6982 169.06 82.5855 169.114 82.4582C169.182 82.326 169.265 82.1791 169.349 82.0174C169.721 81.371 170.362 80.4503 171.435 79.6177C172.483 78.7753 173.977 78.0162 175.769 77.7861C176.661 77.6734 177.62 77.7126 178.571 77.9183C179.526 78.1093 180.481 78.4178 181.46 78.6921C182.44 78.9712 183.409 79.1916 184.359 79.2308C185.305 79.2651 186.225 79.1084 187.048 78.8243C188.708 78.2611 189.952 77.169 190.697 76.0866C191.461 74.9994 191.784 73.9465 191.936 73.2216C192.083 72.4919 192.083 72.0756 192.112 72.0756L192.102 72.0707Z" fill="white"/>
</g>
<path d="M115.81 82.4925C115.81 82.4925 151.444 98.2133 151.257 97.8607C151.076 97.5032 156.914 87.194 156.914 87.194L128.044 72.9278L115.805 82.4974L115.81 82.4925Z" fill="#B10043"/>
<path d="M132.167 74.9553C132.167 74.9553 132.437 75.0484 132.902 75.2639C133.406 75.4989 134.067 75.8124 134.861 76.1895C136.511 76.978 138.784 78.0848 141.286 79.3238C143.789 80.5629 146.052 81.6942 147.682 82.5268C148.466 82.9333 149.112 83.2663 149.607 83.5258C150.058 83.7658 150.307 83.9078 150.298 83.9225C150.288 83.9372 150.028 83.8295 149.563 83.614C149.059 83.3789 148.397 83.0655 147.604 82.6884C145.954 81.8999 143.681 80.7882 141.174 79.554C138.671 78.315 136.408 77.1837 134.778 76.3511C133.994 75.9446 133.348 75.6116 132.853 75.352C132.402 75.112 132.153 74.97 132.162 74.9553H132.167Z" fill="#263238"/>
<g opacity="0.6">
<path d="M139.993 79.7255C139.993 79.7255 139.974 80.132 139.66 80.7833C139.357 81.4298 138.671 82.2819 137.535 82.9088C136.972 83.2174 136.306 83.4769 135.556 83.614C134.807 83.7512 133.989 83.7561 133.147 83.6434C131.452 83.4279 129.704 82.7178 127.951 81.8999C126.197 81.0772 124.522 80.2887 122.896 79.9067C122.088 79.7108 121.3 79.6177 120.56 79.6373C119.826 79.6569 119.14 79.7891 118.547 79.9801C117.348 80.3621 116.515 81.0037 116.06 81.5375C115.599 82.0665 115.443 82.4387 115.413 82.424C115.413 82.424 115.536 82.0371 115.981 81.4739C116.422 80.9107 117.264 80.225 118.489 79.8087C119.096 79.603 119.796 79.4561 120.555 79.4267C121.315 79.3973 122.123 79.4855 122.95 79.6814C124.611 80.0585 126.305 80.8519 128.058 81.6747C129.807 82.4925 131.526 83.1929 133.181 83.4182C134.004 83.5357 134.797 83.5357 135.522 83.4182C136.247 83.2957 136.898 83.0508 137.452 82.7619C138.563 82.1742 139.254 81.371 139.572 80.749C139.905 80.1271 139.959 79.7304 139.993 79.7402V79.7255Z" fill="white"/>
</g>
<g opacity="0.6">
<path d="M155.122 90.5047C155.117 90.5537 154.333 90.4214 153.06 90.4019C152.423 90.3872 151.664 90.4263 150.831 90.5145C149.999 90.6173 149.088 90.7839 148.153 91.0434C147.222 91.3128 146.36 91.6458 145.596 91.9935C144.837 92.3559 144.171 92.7183 143.637 93.0661C142.565 93.7517 141.967 94.2708 141.933 94.2366C141.923 94.2219 142.065 94.0847 142.329 93.8448C142.594 93.5999 143.005 93.2816 143.534 92.9142C144.063 92.5469 144.724 92.1551 145.488 91.778C146.257 91.4107 147.129 91.0679 148.079 90.7937C149.029 90.5292 149.955 90.3676 150.797 90.2745C151.644 90.1962 152.413 90.1766 153.055 90.2158C153.696 90.25 154.216 90.3088 154.568 90.3774C154.921 90.441 155.117 90.4851 155.112 90.4998L155.122 90.5047Z" fill="white"/>
</g>
<g opacity="0.2">
<path d="M159.515 61.9673C158.927 63.6178 159.808 65.3907 160.67 66.9187C161.268 67.9814 161.875 69.0539 162.737 69.9159C163.599 70.7778 164.76 71.4096 165.979 71.3704C167.581 71.3166 169.011 70.1363 170.607 70.2293C171.695 70.293 172.65 70.9346 173.551 71.5418C175.113 72.5997 176.719 73.6282 178.492 74.2795C180.265 74.926 182.239 75.1709 184.046 74.6272C185.853 74.0836 187.45 72.6585 187.89 70.8219" fill="black"/>
</g>
<path d="M157.423 59.8566C157.507 57.9368 157.609 56.2031 157.609 56.2031C157.609 56.2031 161.895 55.6644 162.081 51.2861C162.267 46.9077 161.831 36.8337 161.831 36.8337L153.941 33.0431L145.449 39.8848L146.781 59.9839C146.972 62.8783 149.445 65.092 152.345 64.9548C155.102 64.8275 157.306 62.6138 157.423 59.8615V59.8566Z" fill="#FFBE9D"/>
<path d="M161.092 44.7479C161.096 45.0565 160.856 45.3111 160.558 45.316C160.259 45.3209 160.009 45.0761 160.004 44.7675C159.999 44.459 160.239 44.2043 160.538 44.1994C160.842 44.1945 161.087 44.4394 161.092 44.7479Z" fill="#263238"/>
<path d="M161.62 43.5774C161.552 43.6509 161.145 43.3081 160.558 43.2836C159.97 43.2542 159.534 43.5579 159.471 43.4795C159.441 43.4452 159.51 43.3081 159.701 43.171C159.887 43.0338 160.205 42.9016 160.572 42.9212C160.94 42.9359 161.243 43.0926 161.42 43.2493C161.596 43.406 161.655 43.5432 161.625 43.5774H161.62Z" fill="#263238"/>
<path d="M154.583 44.748C154.588 45.0565 154.348 45.3112 154.049 45.3161C153.75 45.321 153.501 45.0761 153.496 44.7676C153.491 44.459 153.731 44.2044 154.029 44.1995C154.333 44.1946 154.578 44.4395 154.583 44.748Z" fill="#263238"/>
<path d="M155.112 43.6901C155.043 43.7636 154.632 43.4208 154.044 43.3963C153.456 43.3669 153.021 43.6705 152.957 43.5922C152.928 43.5579 152.996 43.4208 153.187 43.2836C153.373 43.1465 153.692 43.0143 154.059 43.0339C154.426 43.0486 154.73 43.2053 154.906 43.362C155.082 43.5187 155.141 43.6558 155.112 43.6901V43.6901Z" fill="#263238"/>
<path d="M157.316 48.7443C157.316 48.71 157.678 48.6561 158.271 48.5974C158.422 48.5876 158.564 48.5582 158.589 48.4504C158.628 48.3378 158.564 48.1615 158.496 47.9705C158.359 47.5738 158.222 47.1624 158.07 46.7314C157.482 44.9635 157.056 43.5138 157.125 43.4893C157.193 43.4648 157.722 44.8802 158.31 46.6433C158.452 47.0791 158.589 47.4954 158.716 47.8921C158.77 48.0782 158.863 48.2888 158.785 48.5239C158.741 48.6414 158.633 48.7247 158.535 48.7492C158.437 48.7786 158.354 48.7737 158.28 48.7786C157.683 48.7884 157.316 48.7786 157.311 48.7394L157.316 48.7443Z" fill="#263238"/>
<path d="M155.391 49.3467C154.789 48.95 157.046 50.3213 158.246 50.3017C158.246 50.3017 157.526 51.4036 156.312 50.904C155.048 50.3849 155.391 49.3516 155.391 49.3516V49.3467Z" fill="white"/>
<path d="M157.609 56.2031C157.609 56.2031 154.74 56.2863 151.933 54.3469C151.933 54.3469 153.265 57.5352 157.536 57.2805L157.609 56.2079V56.2031Z" fill="#EB996E"/>
<path d="M140.846 44.1945C140.831 47.9803 139.837 57.9955 146.742 59.3864L146.492 45.5952C146.492 45.5952 153.177 42.4413 154.304 35.8787L154.343 35.9179C154.769 36.9071 155.533 39.0375 155.073 40.7712L161.332 42.3139L162.051 42.9751C162.051 42.9751 164.28 38.0923 159.98 33.6601C155.68 29.228 152.002 32.4407 149.7 32.1615C148.167 31.9754 142.849 32.0146 140.684 41.1679L140.846 44.1994V44.1945Z" fill="#263238"/>
<path d="M146.659 45.7471C146.076 45.3846 145.278 45.6834 144.817 46.1878C144.088 46.9812 143.96 48.2692 144.519 49.19C145.077 50.1107 146.277 50.5955 147.32 50.3164" fill="#FFBE9D"/>
<path d="M146.527 49.0087C146.527 49.0381 146.331 49.0724 146.027 48.9891C145.738 48.9108 145.283 48.6806 145.111 48.1762C145.028 47.9313 145.043 47.6668 145.136 47.4611C145.229 47.2554 145.376 47.1134 145.508 47.0253C145.782 46.849 145.993 46.8587 145.998 46.8881C146.007 46.9273 145.826 46.9812 145.621 47.1673C145.41 47.3436 145.214 47.706 145.351 48.0929C145.479 48.4798 145.831 48.7051 146.086 48.8177C146.345 48.9353 146.531 48.9646 146.527 49.0038V49.0087Z" fill="#EB996E"/>
<path d="M145.954 49.8707C145.635 49.9442 145.474 50.3849 145.665 50.6445C145.856 50.909 146.321 50.8894 146.492 50.6102C146.664 50.3311 146.463 49.9099 146.145 49.8609" fill="#E8505B"/>
<path d="M158.643 81.8558V74.6615C158.643 74.6615 147.962 76.8751 147.766 81.7677L158.643 81.8509V81.8558Z" fill="#FFBE9D"/>
<path d="M157.531 59.1023C157.707 61.2915 158.721 63.4072 160.323 64.9107C161.924 66.4142 164.099 67.3006 166.293 67.3349C167.87 67.3643 169.53 66.9872 170.97 67.6337C172.223 68.192 173.027 69.4065 174.011 70.3615C176.323 72.5997 179.917 73.4127 182.968 72.3842C184.261 71.9483 186.318 71.0227 186.558 69.6759C186.739 68.6523 185.491 67.6337 184.756 66.904C184.016 66.1693 183.066 65.6992 182.126 65.2584C174.515 61.6833 166.351 59.0876 157.957 58.642" fill="#263238"/>
<path d="M91.1463 95.265C91.1463 95.265 95.2748 93.8742 96.4796 98.2819L97.9635 95.7744C97.9635 95.7744 94.3933 90.299 94.5549 89.3734L91.1463 95.265V95.265Z" fill="#B10043"/>
<path d="M92.5812 102.072C94.3718 102.072 95.8233 100.621 95.8233 98.8304C95.8233 97.0398 94.3718 95.5883 92.5812 95.5883C90.7907 95.5883 89.3391 97.0398 89.3391 98.8304C89.3391 100.621 90.7907 102.072 92.5812 102.072Z" fill="#00A4E1"/>
<path d="M97.1389 85.9693L96.7021 86.2215C95.3341 87.0113 94.8654 88.7605 95.6552 90.1285L101.721 100.634C102.51 102.002 104.26 102.471 105.628 101.681L106.065 101.429C107.432 100.639 107.901 98.8898 107.111 97.5219L101.046 87.0162C100.256 85.6482 98.5069 85.1795 97.1389 85.9693Z" fill="#EFC037"/>
</g>
<defs>
<clipPath id="clip0_4_890">
<rect width="310.341" height="170" fill="white"/>
</clipPath>
</defs>
</svg>
