<svg width="45" height="45" viewBox="0 0 45 45" fill="none" xmlns="http://www.w3.org/2000/svg">
<g clip-path="url(#clip0_38_913)">
<mask id="mask0_38_913" style="mask-type:luminance" maskUnits="userSpaceOnUse" x="0" y="0" width="45" height="45">
<path d="M0 3.8147e-06H45V45H0V3.8147e-06Z" fill="white"/>
</mask>
<g mask="url(#mask0_38_913)">
<path d="M39.4164 35.4912C42.572 31.6988 44.439 26.8046 44.3368 21.5055C44.1166 10.0938 34.9068 0.883784 23.4953 0.663179C18.1812 0.560435 13.2742 2.43813 9.47717 5.60984" stroke="#CB1F45" stroke-miterlimit="10" stroke-linecap="round" stroke-linejoin="round"/>
<path d="M7.25867 7.75026C3.88657 11.5052 1.82202 16.4586 1.81139 21.8816C1.80365 25.8875 2.90457 29.6352 4.82305 32.8371C4.9221 33.0022 4.93915 33.2036 4.86585 33.3816L0.706428 43.5006C0.501204 43.9997 1.00025 44.4987 1.49947 44.2935L11.6184 40.134C11.7965 40.0608 11.9978 40.0778 12.163 40.1768C15.3647 42.0954 19.1122 43.1963 23.1179 43.1886C28.5477 43.1781 33.5069 41.1084 37.2636 37.729" stroke="#CB1F45" stroke-miterlimit="10" stroke-linecap="round" stroke-linejoin="round"/>
<path d="M25.2273 25.238H18.6709L19.7328 20.129H26.2893L25.2273 25.238ZM33.3643 16.565H30.6704L31.6944 11.6383C31.8946 10.6747 31.276 9.73118 30.3123 9.53088C29.3494 9.33075 28.4054 9.9495 28.205 10.913L27.0301 16.565H20.4737L21.4978 11.6383C21.6981 10.6747 21.0794 9.73118 20.1158 9.53088C19.1528 9.33075 18.2087 9.9495 18.0083 10.913L16.8334 16.565H13.4178C12.4337 16.565 11.6358 17.3629 11.6358 18.3471C11.6358 19.3312 12.4337 20.129 13.4178 20.129H16.0926L15.0306 25.238H11.6151C10.631 25.238 9.83319 26.0359 9.83319 27.02C9.83319 28.0042 10.631 28.802 11.6151 28.802H14.2899L13.4882 32.6587C13.2879 33.6223 13.9066 34.5657 14.8702 34.766C14.9925 34.7914 15.1145 34.8036 15.2348 34.8036C16.0613 34.8036 16.8027 34.2252 16.9776 33.384L17.93 28.802H24.4864L23.6848 32.6587C23.4845 33.6223 24.1032 34.5657 25.0668 34.766C25.1891 34.7914 25.3112 34.8036 25.4313 34.8036C26.258 34.8036 26.9993 34.2252 27.1742 33.384L28.1267 28.802H31.5614C32.5456 28.802 33.3435 28.0042 33.3435 27.02C33.3435 26.0359 32.5456 25.238 31.5614 25.238H28.8675L29.9295 20.129H33.3643C34.3484 20.129 35.1462 19.3312 35.1462 18.3471C35.1462 17.3629 34.3484 16.565 33.3643 16.565Z" stroke="#CB1F45" stroke-miterlimit="10" stroke-linecap="round" stroke-linejoin="round"/>
</g>
</g>
<defs>
<clipPath id="clip0_38_913">
<rect width="45" height="45" fill="white"/>
</clipPath>
</defs>
</svg>
