<svg width="164" height="150" viewBox="0 0 164 150" fill="none" xmlns="http://www.w3.org/2000/svg">
<circle cx="75" cy="75" r="75" fill="#D9D9D9"/>
<path d="M75 69.1667C80.9334 69.1667 86.7336 67.7982 91.6671 65.2343C96.6006 62.6704 100.446 59.0262 102.716 54.7626C104.987 50.499 105.581 45.8075 104.424 41.2812C103.266 36.755 100.409 32.5974 96.2132 29.3342C92.0176 26.071 86.6721 23.8487 80.8527 22.9484C75.0333 22.048 69.0013 22.5101 63.5195 24.2762C58.0377 26.0422 53.3524 29.0329 50.0559 32.87C46.7595 36.7072 45 41.2184 45 45.8333C45 52.0217 48.1607 57.9567 53.7868 62.3325C59.4129 66.7084 67.0435 69.1667 75 69.1667Z" fill="#231F20"/>
<path d="M120 127.5C121.989 127.5 123.897 126.885 125.303 125.791C126.71 124.698 127.5 123.214 127.5 121.667C127.5 110.837 121.969 100.451 112.123 92.7932C102.277 85.1354 88.9239 80.8333 75 80.8333C61.0761 80.8333 47.7226 85.1354 37.8769 92.7932C28.0312 100.451 22.5 110.837 22.5 121.667C22.5 123.214 23.2902 124.698 24.6967 125.791C26.1032 126.885 28.0109 127.5 30 127.5H120Z" fill="#231F20"/>
</svg>
