<svg width="45" height="45" viewBox="0 0 45 45" fill="none" xmlns="http://www.w3.org/2000/svg">
<path d="M6.52563 40.7043C5.93269 40.7037 5.36423 40.4678 4.94502 40.0485C4.52581 39.6291 4.29009 39.0606 4.28961 38.4677V24.7567C4.28961 24.5954 4.35368 24.4407 4.46772 24.3267C4.58177 24.2126 4.73644 24.1486 4.89772 24.1486C5.059 24.1486 5.21367 24.2126 5.32772 24.3267C5.44176 24.4407 5.50583 24.5954 5.50583 24.7567V38.4677C5.50251 38.6037 5.52643 38.7391 5.57621 38.8658C5.62598 38.9924 5.70059 39.1079 5.79564 39.2053C5.89069 39.3027 6.00427 39.3801 6.12969 39.4329C6.25511 39.4858 6.38983 39.513 6.52593 39.513C6.66203 39.513 6.79675 39.4858 6.92217 39.4329C7.04759 39.3801 7.16116 39.3027 7.25622 39.2053C7.35127 39.1079 7.42588 38.9924 7.47565 38.8658C7.52542 38.7391 7.54935 38.6037 7.54603 38.4677V31.7548C7.54603 31.5935 7.6101 31.4388 7.72414 31.3248C7.83818 31.2107 7.99286 31.1467 8.15414 31.1467C8.31542 31.1467 8.47009 31.2107 8.58414 31.3248C8.69818 31.4388 8.76225 31.5935 8.76225 31.7548V38.4677C8.7616 39.0607 8.52575 39.6292 8.10644 40.0485C7.68714 40.4678 7.11862 40.7037 6.52563 40.7043Z" fill="#6A26DA"/>
<path d="M9.78448 40.7068C9.19102 40.7066 8.62191 40.4708 8.20227 40.0511C7.78263 39.6315 7.54681 39.0624 7.54665 38.4689V31.7554C7.54665 31.5941 7.61071 31.4395 7.72476 31.3254C7.8388 31.2114 7.99347 31.1473 8.15475 31.1473C8.31603 31.1473 8.47071 31.2114 8.58475 31.3254C8.69879 31.4395 8.76286 31.5941 8.76286 31.7554V38.4689C8.76316 38.6039 8.79018 38.7375 8.84236 38.8621C8.89455 38.9866 8.97086 39.0995 9.06692 39.1944C9.20975 39.3358 9.39127 39.4317 9.58857 39.4701C9.78586 39.5084 9.9901 39.4875 10.1755 39.4099C10.3609 39.3322 10.5192 39.2015 10.6303 39.034C10.7415 38.8665 10.8005 38.6699 10.8 38.4689V24.7561C10.8 24.5993 10.8606 24.4485 10.9691 24.3353L21.2893 13.5657C21.4837 13.3657 21.5928 13.0979 21.5933 12.8189C21.5936 12.6696 21.5621 12.5218 21.501 12.3856C21.4399 12.2493 21.3505 12.1275 21.2388 12.0284C21.0365 11.8461 20.7732 11.7465 20.5009 11.7494C20.2287 11.7522 19.9675 11.8572 19.769 12.0436L12.2662 19.212C12.153 19.3201 12.0025 19.3804 11.846 19.3804H4.0257C3.60415 19.3802 3.19973 19.5472 2.90107 19.8447C2.60242 20.1422 2.43391 20.546 2.43246 20.9676V30.296C2.4318 30.4174 2.45552 30.5377 2.50221 30.6498C2.5489 30.7618 2.61762 30.8634 2.70428 30.9485C2.83388 31.0773 2.99865 31.1649 3.1779 31.2004C3.35714 31.2359 3.54288 31.2176 3.71179 31.1479C3.88069 31.0782 4.02524 30.9602 4.12729 30.8086C4.22933 30.657 4.28433 30.4787 4.28536 30.296V25.0662C4.28536 24.9049 4.34943 24.7503 4.46347 24.6362C4.57752 24.5222 4.73219 24.4581 4.89347 24.4581C5.05475 24.4581 5.20943 24.5222 5.32347 24.6362C5.43751 24.7503 5.50158 24.9049 5.50158 25.0662V30.296C5.50158 30.8645 5.27574 31.4097 4.87374 31.8117C4.47174 32.2137 3.92651 32.4395 3.358 32.4395C2.78948 32.4395 2.24426 32.2137 1.84226 31.8117C1.44026 31.4097 1.21442 30.8645 1.21442 30.296V20.9676C1.21603 20.2235 1.51273 19.5105 2.03943 18.9849C2.56614 18.4594 3.27981 18.1642 4.02388 18.1642H11.6027L18.9298 11.163C19.3504 10.7676 19.9037 10.5438 20.4809 10.5358C21.0582 10.5278 21.6175 10.7362 22.0488 11.1199C22.2781 11.3245 22.4636 11.5735 22.5942 11.8517C22.7248 12.1299 22.7978 12.4317 22.8087 12.7389C22.8197 13.046 22.7684 13.3522 22.658 13.639C22.5476 13.9259 22.3803 14.1874 22.1662 14.4079L12.0162 25.0005V38.4689C12.0162 39.0614 11.7813 39.6297 11.3629 40.0492C10.9446 40.4687 10.3769 40.7052 9.78448 40.7068Z" fill="#6A26DA"/>
<path d="M8.15413 17.3487C7.36978 17.3489 6.60302 17.1164 5.9508 16.6807C5.29859 16.245 4.79023 15.6257 4.49002 14.9011C4.18981 14.1764 4.11123 13.3791 4.26422 12.6098C4.41721 11.8405 4.79489 11.1339 5.34951 10.5792C5.90413 10.0246 6.61076 9.64694 7.38005 9.49395C8.14933 9.34096 8.9467 9.41954 9.67133 9.71976C10.3959 10.02 11.0153 10.5283 11.4509 11.1805C11.8866 11.8328 12.1191 12.5995 12.119 13.3839C12.1179 14.4351 11.6998 15.4429 10.9565 16.1862C10.2132 16.9295 9.20533 17.3476 8.15413 17.3487ZM8.15413 10.6346C7.61035 10.6345 7.07875 10.7956 6.62656 11.0976C6.17437 11.3997 5.82189 11.829 5.61372 12.3314C5.40554 12.8337 5.35101 13.3865 5.45702 13.9198C5.56303 14.4532 5.82482 14.9431 6.20929 15.3277C6.59376 15.7122 7.08363 15.9741 7.61695 16.0803C8.15027 16.1864 8.70308 16.132 9.20548 15.9239C9.70787 15.7158 10.1373 15.3635 10.4394 14.9113C10.7415 14.4592 10.9028 13.9276 10.9028 13.3839C10.902 12.6551 10.6121 11.9563 10.0969 11.441C9.58159 10.9256 8.88293 10.6356 8.15413 10.6346Z" fill="#6A26DA"/>
<path d="M33.5919 23.6128H31.7858C31.6245 23.6128 31.4698 23.5488 31.3558 23.4347C31.2417 23.3207 31.1777 23.166 31.1777 23.0047C31.1777 22.8434 31.2417 22.6888 31.3558 22.5747C31.4698 22.4607 31.6245 22.3966 31.7858 22.3966H33.5919C33.7531 22.3966 33.9078 22.4607 34.0219 22.5747C34.1359 22.6888 34.2 22.8434 34.2 23.0047C34.2 23.166 34.1359 23.3207 34.0219 23.4347C33.9078 23.5488 33.7531 23.6128 33.5919 23.6128Z" fill="#6A26DA"/>
<path d="M41.9595 23.6129H37.8487C37.6874 23.6129 37.5327 23.5488 37.4187 23.4347C37.3046 23.3207 37.2406 23.166 37.2406 23.0047C37.2406 22.8435 37.3046 22.6888 37.4187 22.5747C37.5327 22.4607 37.6874 22.3966 37.8487 22.3966H41.9595C42.1208 22.3966 42.2754 22.3326 42.3895 22.2185C42.5035 22.1045 42.5676 21.9498 42.5676 21.7885V6.12974C42.5676 5.96846 42.5035 5.81379 42.3895 5.69975C42.2754 5.5857 42.1208 5.52164 41.9595 5.52164H18.7419C18.5806 5.52164 18.426 5.5857 18.3119 5.69975C18.1979 5.81379 18.1338 5.96846 18.1338 6.12974V11.9244L18.9298 11.1631C19.3504 10.7676 19.9037 10.5438 20.4809 10.5358C21.0582 10.5278 21.6175 10.7362 22.0488 11.1199C22.2781 11.3246 22.4636 11.5735 22.5942 11.8517C22.7248 12.1299 22.7978 12.4317 22.8088 12.7389C22.8197 13.046 22.7684 13.3522 22.658 13.6391C22.5476 13.9259 22.3803 14.1874 22.1662 14.4079L18.1338 18.6154V21.7885C18.1338 21.9498 18.1979 22.1045 18.3119 22.2185C18.426 22.3326 18.5806 22.3966 18.7419 22.3966H21.5088C21.6701 22.3966 21.8248 22.4607 21.9388 22.5747C22.0529 22.6888 22.1169 22.8435 22.1169 23.0047C22.1169 23.166 22.0529 23.3207 21.9388 23.4347C21.8248 23.5488 21.6701 23.6129 21.5088 23.6129H18.7419C18.2581 23.6129 17.7941 23.4206 17.4519 23.0785C17.1098 22.7364 16.9176 22.2724 16.9176 21.7885V18.371C16.9177 18.2141 16.9785 18.0633 17.0873 17.9501L21.2893 13.5657C21.4837 13.3657 21.5928 13.0979 21.5933 12.8189C21.5936 12.6696 21.5621 12.5219 21.501 12.3856C21.4399 12.2493 21.3505 12.1275 21.2388 12.0284C21.0366 11.8461 20.7732 11.7465 20.5009 11.7494C20.2287 11.7522 19.9675 11.8572 19.769 12.0436L17.9447 13.7883C17.8586 13.8708 17.7502 13.9262 17.6329 13.9475C17.5156 13.9689 17.3946 13.9553 17.2849 13.9085C17.1753 13.8616 17.0818 13.7836 17.0162 13.684C16.9506 13.5845 16.9156 13.4678 16.9158 13.3486V6.12974C16.9158 5.6459 17.108 5.18188 17.4501 4.83975C17.7922 4.49763 18.2563 4.30542 18.7401 4.30542H41.9595C42.4433 4.30542 42.9074 4.49763 43.2495 4.83975C43.5916 5.18188 43.7838 5.6459 43.7838 6.12974V21.7885C43.7838 22.2724 43.5916 22.7364 43.2495 23.0785C42.9074 23.4206 42.4433 23.6129 41.9595 23.6129Z" fill="#6A26DA"/>
<path d="M27.529 23.6128H25.7655C25.6042 23.6128 25.4496 23.5488 25.3355 23.4347C25.2215 23.3207 25.1574 23.166 25.1574 23.0047C25.1574 22.8434 25.2215 22.6888 25.3355 22.5747C25.4496 22.4607 25.6042 22.3966 25.7655 22.3966H27.529C27.6903 22.3966 27.845 22.4607 27.959 22.5747C28.0731 22.6888 28.1371 22.8434 28.1371 23.0047C28.1371 23.166 28.0731 23.3207 27.959 23.4347C27.845 23.5488 27.6903 23.6128 27.529 23.6128Z" fill="#6A26DA"/>
<path d="M38.0676 18.8349C37.9063 18.8349 37.7516 18.7709 37.6376 18.6568C37.5235 18.5428 37.4595 18.3881 37.4595 18.2268V9.97664C37.4595 9.81536 37.5235 9.66068 37.6376 9.54664C37.7516 9.4326 37.9063 9.36853 38.0676 9.36853C38.2289 9.36853 38.3835 9.4326 38.4976 9.54664C38.6116 9.66068 38.6757 9.81536 38.6757 9.97664V18.2268C38.6757 18.3881 38.6116 18.5428 38.4976 18.6568C38.3835 18.7709 38.2289 18.8349 38.0676 18.8349Z" fill="#6A26DA"/>
<path d="M34.0236 18.8349C33.8624 18.8349 33.7077 18.7709 33.5936 18.6568C33.4796 18.5428 33.4155 18.3881 33.4155 18.2268V12.8147C33.4155 12.6534 33.4796 12.4987 33.5936 12.3847C33.7077 12.2706 33.8624 12.2065 34.0236 12.2065C34.1849 12.2065 34.3396 12.2706 34.4536 12.3847C34.5677 12.4987 34.6317 12.6534 34.6317 12.8147V18.2268C34.6317 18.3881 34.5677 18.5428 34.4536 18.6568C34.3396 18.7709 34.1849 18.8349 34.0236 18.8349Z" fill="#6A26DA"/>
<path d="M29.9798 18.8349C29.8185 18.8349 29.6638 18.7709 29.5498 18.6568C29.4357 18.5428 29.3716 18.3881 29.3716 18.2268V9.97664C29.3716 9.81536 29.4357 9.66068 29.5498 9.54664C29.6638 9.4326 29.8185 9.36853 29.9798 9.36853C30.141 9.36853 30.2957 9.4326 30.4097 9.54664C30.5238 9.66068 30.5879 9.81536 30.5879 9.97664V18.2268C30.5879 18.3881 30.5238 18.5428 30.4097 18.6568C30.2957 18.7709 30.141 18.8349 29.9798 18.8349Z" fill="#6A26DA"/>
<path d="M25.9401 18.8349C25.7788 18.8349 25.6241 18.7709 25.5101 18.6568C25.396 18.5428 25.332 18.3881 25.332 18.2268V12.8147C25.332 12.6534 25.396 12.4987 25.5101 12.3847C25.6241 12.2706 25.7788 12.2065 25.9401 12.2065C26.1014 12.2065 26.256 12.2706 26.3701 12.3847C26.4841 12.4987 26.5482 12.6534 26.5482 12.8147V18.2268C26.5482 18.3881 26.4841 18.5428 26.3701 18.6568C26.256 18.7709 26.1014 18.8349 25.9401 18.8349Z" fill="#6A26DA"/>
</svg>
