<svg width="45" height="45" viewBox="0 0 45 45" fill="none" xmlns="http://www.w3.org/2000/svg">
<path d="M42.8906 38.6719H41.4844V16.1719C41.4844 15.426 41.1881 14.7106 40.6606 14.1831C40.1332 13.6557 39.4178 13.3594 38.6719 13.3594H33.75C33.5635 13.3594 33.3847 13.4335 33.2528 13.5653C33.121 13.6972 33.0469 13.876 33.0469 14.0625C33.0469 14.249 33.121 14.4278 33.2528 14.5597C33.3847 14.6915 33.5635 14.7656 33.75 14.7656H38.6719C39.0448 14.7656 39.4025 14.9138 39.6662 15.1775C39.93 15.4412 40.0781 15.7989 40.0781 16.1719V38.6719H38.6719V16.875C38.6719 16.6885 38.5978 16.5097 38.4659 16.3778C38.3341 16.246 38.1552 16.1719 37.9688 16.1719H33.75C33.5635 16.1719 33.3847 16.246 33.2528 16.3778C33.121 16.5097 33.0469 16.6885 33.0469 16.875C33.0469 17.0615 33.121 17.2403 33.2528 17.3722C33.3847 17.504 33.5635 17.5781 33.75 17.5781H37.2656V38.6719H7.73438V17.5781H11.25C11.4365 17.5781 11.6153 17.504 11.7472 17.3722C11.879 17.2403 11.9531 17.0615 11.9531 16.875C11.9531 16.6885 11.879 16.5097 11.7472 16.3778C11.6153 16.246 11.4365 16.1719 11.25 16.1719H7.03125C6.84477 16.1719 6.66593 16.246 6.53407 16.3778C6.4022 16.5097 6.32812 16.6885 6.32812 16.875V38.6719H4.92188V16.1719C4.92188 15.7989 5.07003 15.4412 5.33376 15.1775C5.59748 14.9138 5.95516 14.7656 6.32812 14.7656H11.25C11.4365 14.7656 11.6153 14.6915 11.7472 14.5597C11.879 14.4278 11.9531 14.249 11.9531 14.0625C11.9531 13.876 11.879 13.6972 11.7472 13.5653C11.6153 13.4335 11.4365 13.3594 11.25 13.3594H6.32812C5.5822 13.3594 4.86683 13.6557 4.33939 14.1831C3.81194 14.7106 3.51562 15.426 3.51562 16.1719V38.6719H2.10938C1.92289 38.6719 1.74405 38.746 1.61219 38.8778C1.48033 39.0097 1.40625 39.1885 1.40625 39.375C1.40737 40.4935 1.8522 41.5659 2.64313 42.3569C3.43405 43.1478 4.50646 43.5926 5.625 43.5938H39.375C40.4935 43.5926 41.5659 43.1478 42.3569 42.3569C43.1478 41.5659 43.5926 40.4935 43.5938 39.375C43.5938 39.1885 43.5197 39.0097 43.3878 38.8778C43.2559 38.746 43.0771 38.6719 42.8906 38.6719ZM39.375 42.1875H5.625C5.00163 42.1866 4.39616 41.979 3.90329 41.5974C3.41043 41.2157 3.05798 40.6814 2.90109 40.0781H42.0989C41.942 40.6814 41.5896 41.2157 41.0967 41.5974C40.6038 41.979 39.9984 42.1866 39.375 42.1875Z" fill="#CB1F45"/>
<path d="M32.2376 18.7664C32.3959 18.6273 32.5245 18.4576 32.6156 18.2675C32.7067 18.0774 32.7584 17.8709 32.7676 17.6603C32.7768 17.4497 32.7433 17.2394 32.6691 17.0421C32.5949 16.8448 32.4816 16.6646 32.336 16.5122L30.5965 14.7727C30.3104 14.4875 29.9229 14.3274 29.5189 14.3274C29.115 14.3274 28.7275 14.4875 28.4414 14.7727L27.5695 15.6445C27.5466 15.6617 27.5189 15.6714 27.4903 15.6724C27.4616 15.6734 27.4333 15.6657 27.4092 15.6502C26.778 15.3058 26.1119 15.0296 25.4222 14.8261C25.3716 14.8113 25.3125 14.7727 25.3125 14.7108V13.616C25.326 13.4058 25.2969 13.195 25.2269 12.9963C25.1569 12.7976 25.0474 12.6151 24.9051 12.4598C24.7628 12.3045 24.5905 12.1795 24.3987 12.0925C24.2069 12.0054 23.9994 11.958 23.7888 11.9531H21.2112C20.8072 11.9535 20.4198 12.1141 20.1342 12.3998C19.8485 12.6855 19.6879 13.0728 19.6875 13.4768V14.7094C19.684 14.738 19.6715 14.7648 19.6518 14.786C19.6321 14.8071 19.6062 14.8214 19.5778 14.8268C18.888 15.0304 18.2216 15.3066 17.5901 15.6509C17.5663 15.6661 17.5385 15.6739 17.5103 15.6731C17.4821 15.6724 17.4548 15.6631 17.4319 15.6466L16.6584 14.8732C16.5193 14.7149 16.3496 14.5864 16.1595 14.4954C15.9694 14.4044 15.7629 14.3527 15.5523 14.3435C15.3418 14.3343 15.1315 14.3678 14.9342 14.4419C14.7369 14.516 14.5567 14.6292 14.4042 14.7748L12.6633 16.5129C12.3781 16.799 12.218 17.1865 12.218 17.5904C12.218 17.9944 12.3781 18.3818 12.6633 18.668L13.5352 19.5398C13.5523 19.5628 13.5621 19.5905 13.5631 19.6191C13.5641 19.6478 13.5563 19.676 13.5408 19.7002C13.1964 20.3314 12.9202 20.9975 12.7167 21.6872C12.702 21.7378 12.6633 21.7969 12.6014 21.7969H11.5066C11.2964 21.7834 11.0856 21.8125 10.8869 21.8825C10.6882 21.9525 10.5058 22.062 10.3504 22.2043C10.1951 22.3466 10.0702 22.5188 9.98309 22.7107C9.89602 22.9025 9.84862 23.1099 9.84375 23.3205V25.8982C9.84412 26.3022 10.0048 26.6895 10.2904 26.9752C10.5761 27.2609 10.9634 27.4215 11.3674 27.4219H12.6C12.6287 27.4254 12.6555 27.4379 12.6766 27.4576C12.6977 27.4773 12.712 27.5032 12.7174 27.5316C12.921 28.2214 13.1973 28.8877 13.5415 29.5193C13.5576 29.5427 13.5659 29.5707 13.5652 29.5991C13.5644 29.6275 13.5546 29.655 13.5373 29.6775L12.7638 30.4509C12.4523 30.7463 12.2626 31.1477 12.2323 31.5759C12.2201 31.7835 12.2525 31.9912 12.3272 32.1853C12.4019 32.3793 12.5172 32.5551 12.6654 32.7009L14.4049 34.4412C14.6911 34.7261 15.0786 34.8861 15.4825 34.8861C15.8863 34.8861 16.2738 34.7261 16.56 34.4412L17.4319 33.5693C17.4545 33.5513 17.4823 33.5411 17.5111 33.5401C17.54 33.5391 17.5684 33.5473 17.5922 33.5637C18.2235 33.908 18.8895 34.1842 19.5792 34.3877C19.6079 34.3937 19.634 34.4087 19.6535 34.4306C19.673 34.4525 19.6849 34.4802 19.6875 34.5094V35.742C19.6879 36.1459 19.8485 36.5333 20.1342 36.8189C20.4198 37.1046 20.8072 37.2653 21.2112 37.2656H23.7888C24.1928 37.2653 24.5802 37.1046 24.8658 36.8189C25.1515 36.5333 25.3121 36.1459 25.3125 35.742V34.5094C25.316 34.4807 25.3285 34.4539 25.3482 34.4328C25.3679 34.4117 25.3938 34.3974 25.4222 34.392C26.112 34.1883 26.7784 33.9121 27.4099 33.5679C27.4333 33.5518 27.4613 33.5435 27.4897 33.5442C27.5181 33.545 27.5456 33.5547 27.5681 33.5721L28.3416 34.3455C28.4806 34.504 28.6503 34.6327 28.8404 34.7238C29.0305 34.8149 29.2371 34.8667 29.4477 34.8759C29.6583 34.8851 29.8686 34.8515 30.0659 34.7773C30.2632 34.7031 30.4434 34.5897 30.5958 34.444L32.3346 32.7045C32.6199 32.4184 32.7802 32.0309 32.7802 31.6269C32.7802 31.2229 32.6199 30.8354 32.3346 30.5494L31.4627 29.6775C31.4456 29.6545 31.4358 29.6269 31.4348 29.5982C31.4338 29.5696 31.4416 29.5413 31.4571 29.5172C31.8014 28.8859 32.0777 28.2198 32.2812 27.5302C32.2959 27.4795 32.3346 27.4205 32.3965 27.4205H33.492C33.7022 27.4342 33.913 27.4052 34.1118 27.3354C34.3105 27.2656 34.4931 27.1563 34.6486 27.0141C34.804 26.8719 34.9291 26.6998 35.0164 26.508C35.1036 26.3162 35.1512 26.1088 35.1562 25.8982V23.3205C35.1559 22.9166 34.9952 22.5292 34.7096 22.2436C34.4239 21.9579 34.0366 21.7972 33.6326 21.7969H32.4C32.3713 21.7934 32.3445 21.7809 32.3234 21.7612C32.3023 21.7414 32.288 21.7155 32.2826 21.6872C32.079 20.9973 31.8027 20.331 31.4585 19.6995C31.4424 19.676 31.4341 19.6481 31.4348 19.6197C31.4356 19.5912 31.4454 19.5638 31.4627 19.5412L32.2376 18.7664ZM32.4 23.2031H33.6326C33.648 23.2031 33.6633 23.2062 33.6775 23.2121C33.6918 23.218 33.7047 23.2266 33.7156 23.2375C33.7265 23.2484 33.7352 23.2614 33.7411 23.2756C33.747 23.2899 33.75 23.3051 33.75 23.3205V25.8982C33.75 26.0121 33.5194 26.0156 33.4934 26.0156H32.3979C32.0653 26.0173 31.7423 26.1274 31.4779 26.3293C31.2136 26.5312 31.0224 26.8138 30.9333 27.1343C30.7586 27.7279 30.521 28.3012 30.2245 28.8443C30.0608 29.1342 29.9961 29.4696 30.0404 29.7995C30.0847 30.1295 30.2355 30.436 30.4699 30.6724L31.3418 31.5436C31.3638 31.5657 31.3762 31.5957 31.3762 31.6269C31.3762 31.6581 31.3638 31.6881 31.3418 31.7102L29.6016 33.4512C29.52 33.5313 29.3555 33.3717 29.3365 33.3527L28.563 32.5793C28.3266 32.3449 28.0201 32.1942 27.6901 32.15C27.3601 32.1058 27.0247 32.1706 26.7349 32.3346C26.1917 32.6315 25.6181 32.8693 25.0242 33.0441C24.7039 33.1335 24.4214 33.325 24.2197 33.5894C24.018 33.8538 23.9079 34.1768 23.9062 34.5094V35.742C23.9062 35.7731 23.8939 35.803 23.8719 35.825C23.8498 35.847 23.82 35.8594 23.7888 35.8594H21.2112C21.18 35.8594 21.1502 35.847 21.1281 35.825C21.1061 35.803 21.0938 35.7731 21.0938 35.742V34.5094C21.0924 34.1765 20.9824 33.8531 20.7804 33.5884C20.5785 33.3236 20.2958 33.132 19.9751 33.0427C19.3815 32.868 18.8082 32.6304 18.2651 32.3339C18.0321 32.2052 17.7704 32.1374 17.5043 32.137C17.3058 32.1366 17.1092 32.1755 16.9258 32.2514C16.7423 32.3273 16.5757 32.4388 16.4355 32.5793L15.5644 33.4512C15.542 33.4731 15.512 33.4853 15.4807 33.4853C15.4494 33.4853 15.4194 33.4731 15.397 33.4512L13.635 31.6554C13.6483 31.5725 13.6916 31.4975 13.7566 31.4445L14.5301 30.671C14.7646 30.4346 14.9154 30.1281 14.9596 29.7981C15.0037 29.468 14.9388 29.1326 14.7748 28.8429C14.4779 28.2996 14.24 27.7261 14.0653 27.1322C13.9756 26.8121 13.784 26.53 13.5196 26.3285C13.2553 26.127 12.9324 26.0172 12.6 26.0156H11.3674C11.3363 26.0156 11.3064 26.0033 11.2844 25.9812C11.2624 25.9592 11.25 25.9293 11.25 25.8982V23.3205C11.25 23.2066 11.4806 23.2031 11.5066 23.2031H12.6021C12.9347 23.2015 13.2577 23.0914 13.5221 22.8895C13.7864 22.6876 13.9776 22.4049 14.0667 22.0845C14.2414 21.4908 14.479 20.9176 14.7755 20.3745C14.9392 20.0846 15.0039 19.7492 14.9596 19.4192C14.9153 19.0892 14.7645 18.7828 14.5301 18.5463L13.6582 17.6752C13.6363 17.6528 13.624 17.6228 13.624 17.5915C13.624 17.5602 13.6363 17.5302 13.6582 17.5078L15.3984 15.7676C15.4814 15.6881 15.6452 15.8477 15.6635 15.866L16.437 16.6395C16.6732 16.8742 16.9798 17.0251 17.3099 17.0693C17.6399 17.1135 17.9754 17.0485 18.2651 16.8841C18.8083 16.5873 19.3819 16.3494 19.9758 16.1747C20.2961 16.0852 20.5786 15.8938 20.7803 15.6294C20.982 15.3649 21.0921 15.042 21.0938 14.7094V13.4768C21.0938 13.4614 21.0968 13.4461 21.1027 13.4319C21.1086 13.4176 21.1172 13.4047 21.1281 13.3938C21.139 13.3829 21.152 13.3742 21.1662 13.3683C21.1805 13.3624 21.1958 13.3594 21.2112 13.3594H23.7888C23.9027 13.3594 23.9062 13.59 23.9062 13.616V14.7115C23.9079 15.0441 24.018 15.3671 24.2199 15.6314C24.4218 15.8958 24.7044 16.087 25.0249 16.1761C25.6185 16.3508 26.1918 16.5884 26.7349 16.8848C27.0248 17.0487 27.3602 17.1134 27.6902 17.0691C28.0202 17.0248 28.3267 16.874 28.563 16.6395L29.4342 15.7676C29.4566 15.7457 29.4866 15.7334 29.5179 15.7334C29.5492 15.7334 29.5792 15.7457 29.6016 15.7676L31.3418 17.5078C31.4227 17.5894 31.2623 17.7546 31.2434 17.7729L30.4699 18.5463C30.2354 18.7827 30.0846 19.0893 30.0404 19.4193C29.9963 19.7493 30.0612 20.0847 30.2252 20.3745C30.5221 20.9177 30.76 21.4912 30.9347 22.0852C31.0241 22.4055 31.2156 22.6879 31.48 22.8897C31.7444 23.0914 32.0674 23.2015 32.4 23.2031Z" fill="#CB1F45"/>
<path d="M22.5 17.5781C21.1094 17.5781 19.7499 17.9905 18.5937 18.7631C17.4374 19.5357 16.5362 20.6338 16.004 21.9186C15.4718 23.2034 15.3326 24.6172 15.6039 25.9811C15.8752 27.345 16.5448 28.5979 17.5282 29.5812C18.5115 30.5646 19.7643 31.2342 21.1283 31.5055C22.4922 31.7768 23.906 31.6376 25.1907 31.1054C26.4755 30.5732 27.5737 29.672 28.3463 28.5157C29.1189 27.3594 29.5313 26 29.5313 24.6094C29.5292 22.7452 28.7878 20.958 27.4696 19.6398C26.1514 18.3216 24.3642 17.5802 22.5 17.5781ZM22.5 30.2344C21.3875 30.2344 20.2999 29.9045 19.3749 29.2864C18.4499 28.6683 17.7289 27.7898 17.3032 26.762C16.8774 25.7341 16.766 24.6031 16.9831 23.512C17.2001 22.4208 17.7359 21.4186 18.5225 20.6319C19.3092 19.8452 20.3115 19.3095 21.4026 19.0925C22.4938 18.8754 23.6248 18.9868 24.6526 19.4126C25.6804 19.8383 26.5589 20.5593 27.177 21.4843C27.7951 22.4093 28.125 23.4969 28.125 24.6094C28.1233 26.1007 27.5302 27.5305 26.4756 28.585C25.4211 29.6395 23.9913 30.2327 22.5 30.2344Z" fill="#CB1F45"/>
<path d="M4.21873 7.03123C4.84045 7.0289 5.44387 6.82063 5.93466 6.43899C6.42546 6.05734 6.77597 5.52383 6.93139 4.92186H10.5469V11.25C10.5469 11.4365 10.6209 11.6153 10.7528 11.7472C10.8847 11.879 11.0635 11.9531 11.25 11.9531C11.4365 11.9531 11.6153 11.879 11.7472 11.7472C11.879 11.6153 11.9531 11.4365 11.9531 11.25V4.21873C11.9531 4.03225 11.879 3.85341 11.7472 3.72155C11.6153 3.58968 11.4365 3.51561 11.25 3.51561H6.93139C6.79899 3.00756 6.52678 2.54681 6.14568 2.18569C5.76458 1.82457 5.28986 1.57755 4.77542 1.47267C4.26098 1.36779 3.72744 1.40925 3.23539 1.59236C2.74334 1.77546 2.31248 2.09287 1.99176 2.50854C1.67103 2.9242 1.47328 3.42147 1.42096 3.94388C1.36864 4.46628 1.46385 4.99289 1.69578 5.46391C1.92771 5.93492 2.28706 6.33147 2.73303 6.60851C3.179 6.88556 3.69372 7.03201 4.21873 7.03123ZM4.21873 2.81248C4.49686 2.81248 4.76875 2.89496 5.00001 3.04948C5.23126 3.204 5.4115 3.42362 5.51794 3.68058C5.62438 3.93754 5.65222 4.22029 5.59796 4.49308C5.5437 4.76586 5.40977 5.01643 5.2131 5.2131C5.01644 5.40977 4.76587 5.5437 4.49308 5.59796C4.22029 5.65222 3.93754 5.62437 3.68059 5.51794C3.42363 5.4115 3.204 5.23126 3.04948 5C2.89496 4.76874 2.81248 4.49686 2.81248 4.21873C2.81248 3.84577 2.96064 3.48808 3.22437 3.22436C3.48809 2.96064 3.84577 2.81248 4.21873 2.81248Z" fill="#CB1F45"/>
<path d="M22.5 10.5469C22.6865 10.5469 22.8653 10.4728 22.9972 10.3409C23.1291 10.209 23.2031 10.0302 23.2031 9.84373V6.93138C23.8659 6.76025 24.4436 6.35325 24.8278 5.78669C25.212 5.22013 25.3763 4.53289 25.2901 3.8538C25.2038 3.17472 24.8729 2.5504 24.3592 2.09787C23.8456 1.64535 23.1846 1.39569 22.5 1.39569C21.8155 1.39569 21.1544 1.64535 20.6408 2.09787C20.1271 2.5504 19.7962 3.17472 19.7099 3.8538C19.6237 4.53289 19.788 5.22013 20.1722 5.78669C20.5564 6.35325 21.1341 6.76025 21.7969 6.93138V9.84373C21.7969 10.0302 21.871 10.209 22.0028 10.3409C22.1347 10.4728 22.3135 10.5469 22.5 10.5469ZM21.0938 4.21873C21.0938 3.9406 21.1762 3.66871 21.3308 3.43746C21.4853 3.2062 21.7049 3.02596 21.9619 2.91952C22.2188 2.81308 22.5016 2.78524 22.7744 2.8395C23.0471 2.89376 23.2977 3.02769 23.4944 3.22436C23.691 3.42102 23.825 3.67159 23.8792 3.94438C23.9335 4.21717 23.9056 4.49992 23.7992 4.75687C23.6928 5.01383 23.5125 5.23346 23.2813 5.38798C23.05 5.5425 22.7781 5.62498 22.5 5.62498C22.127 5.62498 21.7694 5.47682 21.5056 5.21309C21.2419 4.94937 21.0938 4.59169 21.0938 4.21873Z" fill="#CB1F45"/>
<path d="M40.7812 1.40625C40.1595 1.40858 39.5561 1.61685 39.0653 1.99849C38.5745 2.38014 38.224 2.91365 38.0686 3.51563H33.75C33.5635 3.51563 33.3847 3.58971 33.2528 3.72157C33.121 3.85343 33.0469 4.03227 33.0469 4.21875V11.25C33.0469 11.4365 33.121 11.6153 33.2528 11.7472C33.3847 11.8791 33.5635 11.9531 33.75 11.9531C33.9365 11.9531 34.1153 11.8791 34.2472 11.7472C34.379 11.6153 34.4531 11.4365 34.4531 11.25V4.92188H38.0686C38.201 5.42993 38.4732 5.89067 38.8543 6.25179C39.2354 6.61291 39.7101 6.85994 40.2246 6.96482C40.739 7.0697 41.2725 7.02823 41.7646 6.84512C42.2566 6.66202 42.6875 6.34461 43.0082 5.92895C43.329 5.51328 43.5267 5.01601 43.579 4.4936C43.6313 3.9712 43.5361 3.44459 43.3042 2.97358C43.0723 2.50256 42.7129 2.10602 42.267 1.82897C41.821 1.55192 41.3063 1.40547 40.7812 1.40625ZM40.7812 5.625C40.5031 5.625 40.2312 5.54253 40 5.38801C39.7687 5.23349 39.5885 5.01386 39.482 4.7569C39.3756 4.49994 39.3478 4.21719 39.402 3.94441C39.4563 3.67162 39.5902 3.42105 39.7869 3.22438C39.9835 3.02772 40.2341 2.89378 40.5069 2.83952C40.7797 2.78526 41.0624 2.81311 41.3194 2.91955C41.5764 3.02598 41.796 3.20623 41.9505 3.43748C42.105 3.66874 42.1875 3.94062 42.1875 4.21875C42.1875 4.59171 42.0393 4.9494 41.7756 5.21312C41.5119 5.47685 41.1542 5.625 40.7812 5.625Z" fill="#CB1F45"/>
</svg>
