<svg width="937" height="610" viewBox="0 0 937 610" fill="none" xmlns="http://www.w3.org/2000/svg">
<g clip-path="url(#clip0_116_980)">
<path d="M924.392 568.112H12.9424V567.2H924.392V568.112Z" fill="#73B2F5"/>
<path d="M867.676 285.918C829.067 257.755 782.799 244.128 740.204 223.728C699.238 204.109 670.089 172.586 633.436 146.61C573.548 104.165 504.325 72.3398 433.881 52.9166C362.644 33.2756 275.625 22.3976 210.692 65.9328C178.755 87.3451 152.763 120.554 142.172 158.057C129.57 202.681 141.902 248.275 147.947 292.87C152.858 329.107 129.879 349.097 102.805 369.69C39.4121 417.902 41.1731 505.144 80.3438 567.674H896.209C944.654 478.812 965.961 357.616 867.676 285.918V285.918Z" fill="#00A4E1"/>
<path d="M114.657 290.453C114.657 307.362 101.118 321.071 84.4169 321.071C67.716 321.071 54.1768 307.362 54.1768 290.453C54.1768 273.545 67.7159 259.838 84.4169 259.838C101.118 259.838 114.657 273.545 114.657 290.453Z" fill="#73B2F5"/>
<path d="M845.173 138.505C845.173 163.5 825.158 183.762 800.474 183.762C775.785 183.762 755.771 163.5 755.771 138.505C755.771 113.509 775.785 93.2484 800.474 93.2484C825.158 93.2484 845.173 113.511 845.173 138.505Z" fill="#73B2F5"/>
<path d="M103.251 209.75C103.251 217.24 97.2534 223.313 89.855 223.313C82.4567 223.313 76.459 217.24 76.459 209.75C76.459 202.259 82.4567 196.188 89.855 196.188C97.2534 196.188 103.251 202.259 103.251 209.75Z" fill="#73B2F5"/>
<path d="M848.506 217.27C848.506 224.76 842.508 230.833 835.11 230.833C827.711 230.833 821.717 224.76 821.717 217.27C821.717 209.78 827.711 203.707 835.11 203.707C842.508 203.707 848.506 209.78 848.506 217.27Z" fill="#73B2F5"/>
<path d="M57.2315 567.857C19.2344 535.452 18.8846 478.756 35.3945 436.942C53.7769 390.38 96.8668 352.053 153.614 331.789C154.993 331.302 156.37 330.815 157.751 330.335L158.263 331.809C156.886 332.285 155.512 332.769 154.138 333.256C97.814 353.369 55.0617 391.371 36.8442 437.511C20.5376 478.811 20.8311 534.767 58.2441 566.671L57.2315 567.857H57.2315Z" fill="#73B2F5"/>
<path d="M880.582 568.251L879.196 567.538C907.26 513.014 923.881 458.028 927.265 408.523C930.599 359.72 920.915 319.466 899.256 292.116C879.601 267.295 840.488 241.602 765.771 260.157L765.397 258.645C840.913 239.892 880.537 265.969 900.477 291.149C922.383 318.808 932.182 359.432 928.819 408.632C925.421 458.343 908.741 513.539 880.582 568.251V568.251Z" fill="#73B2F5"/>
<path fill-rule="evenodd" clip-rule="evenodd" d="M101.802 352.236C160.192 365.207 218.988 478.625 224.523 514.332C157.027 532.304 70.8414 403.155 101.802 352.236V352.236Z" fill="#3656EA"/>
<path d="M110.864 365.837C110.864 365.837 152.107 491.561 229.644 515.315" stroke="#9DAFFF" stroke-width="4.755" stroke-linecap="round" stroke-linejoin="round"/>
<path fill-rule="evenodd" clip-rule="evenodd" d="M37.1203 398.136C37.3258 393.624 39.4996 389.428 43.0674 386.656C46.6357 383.884 51.2399 382.813 55.6653 383.727C132.894 399.549 227.718 517.743 243.455 559.846C166.151 598.532 33.38 475.429 37.1203 398.136H37.1203Z" fill="#CF0042"/>
<path d="M55.6592 397.231C55.6592 397.231 143.129 549.689 250.381 559.749" stroke="#DD84BC" stroke-width="4.755" stroke-linecap="round" stroke-linejoin="round"/>
<path fill-rule="evenodd" clip-rule="evenodd" d="M918.129 536.642C880.395 497.654 764.747 505.998 734.492 518.657C752.603 579.363 893.416 584.731 918.129 536.642Z" fill="#3656EA"/>
<path d="M903.306 536.088C903.306 536.088 786.462 563.841 731.302 515.164" stroke="#9DAFFF" stroke-width="4.755" stroke-linecap="round" stroke-linejoin="round"/>
<path fill-rule="evenodd" clip-rule="evenodd" d="M878.51 377.114C877.799 372.507 875.045 368.467 871.015 366.123C866.985 363.779 862.111 363.38 857.753 365.039C790.911 390.415 721.685 506.588 712.878 546.008C786.412 570.885 889.013 446.563 878.51 377.114V377.114Z" fill="#CF0042"/>
<path d="M861.372 376.465C861.372 376.465 801.775 524.379 706.642 546.783" stroke="#DD84BC" stroke-width="4.755" stroke-linecap="round" stroke-linejoin="round"/>
<path d="M803.277 567.674H186.441V221.669C186.441 208.364 197.527 197.58 211.205 197.58H778.514C792.191 197.58 803.277 208.364 803.277 221.669V567.674Z" fill="#363664"/>
<path fill-rule="evenodd" clip-rule="evenodd" d="M210.539 223.859H762.634V550.156H210.539V223.859Z" fill="#5B89DF"/>
<path d="M174.81 223.592H813.917M174.81 271.463H813.917M174.81 319.335H813.917M174.81 367.208H813.917M174.81 415.079H813.917M174.81 462.951H813.917M174.81 510.823H813.917M210.539 197.579V575.651M258.165 197.579V575.651M305.79 197.579V575.651M353.415 197.579V575.651M401.041 197.579V575.651M448.667 197.579V575.651M496.292 197.579V575.651M543.916 197.579V575.651M591.542 197.579V575.651M639.167 197.579V575.651M686.793 197.579V575.651M734.417 197.579V575.651" stroke="#ABCAF6" stroke-miterlimit="10"/>
<path d="M726.072 333.864V441.729M682.53 386.045V478.152M638.986 308.387V432.098M595.668 260.277V389.923M551.9 317.75V441.462M508.357 366.75V513.739M464.814 352.232V471.582M377.654 407.801V471.581M290.642 330.505V452.421M334.538 369.835V434.331M247.901 305.872V473.205M421.27 337.724V448.042" stroke="#363664" stroke-width="5" stroke-miterlimit="10"/>
<path fill-rule="evenodd" clip-rule="evenodd" d="M738.396 350.042H713.75V429.618H738.396V350.042Z" fill="#3DEA87"/>
<path fill-rule="evenodd" clip-rule="evenodd" d="M694.853 394.387H670.206V462.823H694.853V394.387Z" fill="#FA366C"/>
<path fill-rule="evenodd" clip-rule="evenodd" d="M651.311 316.837H626.663V419.747H651.311V316.837Z" fill="#3DEA87"/>
<path fill-rule="evenodd" clip-rule="evenodd" d="M607.767 270.092H583.119V379.606H607.767V270.092Z" fill="#CF0042"/>
<path fill-rule="evenodd" clip-rule="evenodd" d="M564.223 329.163H539.576V428.606H564.223V329.163Z" fill="#3DEA87"/>
<path fill-rule="evenodd" clip-rule="evenodd" d="M520.681 379.606H496.033V500.598H520.681V379.606Z" fill="#CF0042"/>
<path fill-rule="evenodd" clip-rule="evenodd" d="M477.138 363.253H452.49V462.823H477.138V363.253Z" fill="#3DEA87"/>
<path fill-rule="evenodd" clip-rule="evenodd" d="M433.594 345.661H408.947V439.979H433.594V345.661Z" fill="#CF0042"/>
<path fill-rule="evenodd" clip-rule="evenodd" d="M390.051 413.866H365.404V462.823H390.051V413.866Z" fill="#3DEA87"/>
<path fill-rule="evenodd" clip-rule="evenodd" d="M346.508 380.788H321.861V423.034H346.508V380.788Z" fill="#CF0042"/>
<path fill-rule="evenodd" clip-rule="evenodd" d="M302.965 337.93H278.318V441.73H302.965V337.93Z" fill="#3DEA87"/>
<path fill-rule="evenodd" clip-rule="evenodd" d="M259.423 316.838H234.775V462.823H259.423V316.838Z" fill="#CF0042"/>
<path fill-rule="evenodd" clip-rule="evenodd" d="M834.833 579.426H533.651C533.651 579.426 520.17 593.281 511.759 601.924C510.639 603.075 510.315 604.785 510.938 606.266C511.561 607.748 513.01 608.712 514.617 608.718C565.25 608.879 804.277 609.641 855.67 609.805C857.294 609.81 858.76 608.834 859.382 607.335C860.004 605.835 859.658 604.108 858.507 602.964C849.485 593.994 834.833 579.426 834.833 579.426V579.426Z" fill="#BFCCFF"/>
<path fill-rule="evenodd" clip-rule="evenodd" d="M834.833 579.426H533.651C533.651 579.426 521.657 589.831 513.237 597.135C511.977 598.229 511.527 599.989 512.108 601.553C512.69 603.116 514.181 604.156 515.849 604.161C568.587 604.329 800.966 605.07 854.426 605.24C856.109 605.246 857.616 604.199 858.197 602.619C858.778 601.04 858.309 599.267 857.024 598.181C847.97 590.528 834.833 579.426 834.833 579.426V579.426Z" fill="#E8F7FC"/>
<path fill-rule="evenodd" clip-rule="evenodd" d="M816.671 586.385H552.52L546.098 592.356V594.14H823.371V591.215L816.671 586.385Z" fill="#3B52ED"/>
<path d="M673.591 126.596H646.16C645.062 126.596 644.172 127.486 644.172 128.585V195.59C644.172 196.69 643.28 197.58 642.179 197.58H553.603C552.503 197.58 551.613 196.69 551.613 195.59V128.585C551.613 127.486 550.722 126.596 549.624 126.596H522.192C520.357 126.596 519.5 124.321 520.882 123.112L596.58 56.7929C597.331 56.1366 598.453 56.1366 599.204 56.7929L674.902 123.112C676.284 124.321 675.428 126.596 673.591 126.596" fill="#0D5430"/>
<path d="M629.463 237.525H566.321C563.87 237.525 561.881 235.537 561.881 233.086V214.463C561.881 212.011 563.87 210.023 566.321 210.023H629.463C631.914 210.023 633.903 212.011 633.903 214.463V233.086C633.903 235.537 631.914 237.525 629.463 237.525Z" fill="#0D5430"/>
<path d="M576.265 216.476H583.183C584.336 216.476 585.221 216.761 585.838 217.332C586.456 217.903 586.765 218.61 586.765 219.453C586.765 220.159 586.544 220.765 586.104 221.271C585.81 221.608 585.381 221.874 584.815 222.07C585.674 222.277 586.306 222.631 586.712 223.134C587.117 223.637 587.319 224.269 587.319 225.03C587.319 225.65 587.175 226.207 586.887 226.702C586.599 227.197 586.204 227.588 585.704 227.876C585.394 228.056 584.926 228.186 584.301 228.267C583.469 228.376 582.917 228.43 582.644 228.43H576.265V216.476V216.476ZM579.993 221.165H581.6C582.177 221.165 582.578 221.065 582.804 220.867C583.029 220.669 583.142 220.382 583.142 220.007C583.142 219.659 583.029 219.387 582.804 219.191C582.578 218.995 582.185 218.898 581.625 218.898H579.993V221.165V221.165ZM579.993 225.862H581.877C582.514 225.862 582.963 225.749 583.224 225.523C583.485 225.298 583.616 224.995 583.616 224.614C583.616 224.261 583.487 223.977 583.228 223.762C582.97 223.547 582.517 223.44 581.87 223.44H579.993V225.862V225.862Z" fill="white"/>
<path d="M597.956 216.476H601.644V223.598C601.644 224.305 601.534 224.972 601.314 225.599C601.094 226.226 600.748 226.775 600.278 227.245C599.807 227.715 599.314 228.045 598.797 228.235C598.079 228.502 597.217 228.635 596.211 228.635C595.629 228.635 594.994 228.594 594.306 228.512C593.618 228.431 593.043 228.269 592.58 228.027C592.118 227.786 591.695 227.442 591.312 226.996C590.928 226.551 590.666 226.092 590.525 225.619C590.296 224.859 590.182 224.185 590.182 223.598V216.476H593.87V223.768C593.87 224.42 594.05 224.929 594.412 225.296C594.774 225.663 595.275 225.846 595.917 225.846C596.553 225.846 597.053 225.665 597.414 225.304C597.776 224.943 597.956 224.431 597.956 223.768V216.476V216.476Z" fill="white"/>
<path d="M604.238 216.476H608.343L610.753 220.509L613.168 216.476H617.251L612.6 223.423V228.43H608.897V223.423L604.238 216.476Z" fill="white"/>
<path d="M274.853 205.933H296.213C298.237 205.933 299.877 204.292 299.877 202.27V138.501C299.877 136.478 301.517 134.839 303.541 134.839H388.913C390.935 134.839 392.575 136.478 392.575 138.501V202.27C392.575 204.292 394.215 205.933 396.239 205.933H417.601C420.981 205.933 422.557 210.121 420.015 212.349L348.641 274.875C347.259 276.085 345.193 276.085 343.813 274.875L272.439 212.349C269.896 210.121 271.472 205.933 274.853 205.933" fill="#CF0042"/>
<path d="M377.944 119.21H314.705C312.25 119.21 310.259 117.221 310.259 114.765V96.1127C310.259 93.6565 312.25 91.668 314.705 91.668H377.944C380.399 91.668 382.391 93.6565 382.391 96.1127V114.765C382.391 117.221 380.399 119.21 377.944 119.21Z" fill="#CA0837"/>
<path d="M322.408 106.782L325.924 106.563C326 107.133 326.155 107.568 326.389 107.867C326.77 108.351 327.314 108.593 328.021 108.593C328.548 108.593 328.955 108.469 329.241 108.222C329.526 107.974 329.669 107.688 329.669 107.361C329.669 107.052 329.533 106.775 329.261 106.53C328.989 106.285 328.358 106.054 327.368 105.837C325.748 105.473 324.591 104.989 323.901 104.385C323.205 103.782 322.857 103.012 322.857 102.077C322.857 101.463 323.035 100.882 323.391 100.336C323.747 99.7897 324.283 99.3605 324.998 99.0476C325.714 98.7353 326.694 98.5789 327.939 98.5789C329.467 98.5789 330.633 98.8628 331.435 99.4312C332.237 99.999 332.714 100.903 332.867 102.142L329.383 102.347C329.291 101.808 329.097 101.417 328.8 101.172C328.503 100.928 328.095 100.805 327.572 100.805C327.143 100.805 326.819 100.896 326.601 101.078C326.384 101.261 326.275 101.482 326.275 101.743C326.275 101.933 326.365 102.104 326.544 102.256C326.718 102.415 327.132 102.561 327.784 102.697C329.4 103.045 330.557 103.397 331.256 103.753C331.955 104.109 332.463 104.551 332.781 105.078C333.099 105.606 333.259 106.196 333.259 106.848C333.259 107.614 333.046 108.321 332.622 108.968C332.198 109.615 331.605 110.106 330.844 110.44C330.082 110.774 329.122 110.942 327.964 110.942C325.93 110.942 324.521 110.55 323.738 109.767C322.955 108.984 322.511 107.989 322.408 106.782V106.782Z" fill="white"/>
<path d="M335.866 98.7826H345.77V101.335H339.57V103.235H345.321V105.673H339.57V108.031H345.95V110.738H335.866V98.7826Z" fill="white"/>
<path d="M348.696 98.7826H352.392V107.794H358.16V110.738H348.696V98.7826Z" fill="white"/>
<path d="M360.596 98.7826H364.292V107.794H370.059V110.738H360.596V98.7826Z" fill="white"/>
<path d="M165.66 105.43C144.864 105.219 127.835 121.9 127.624 142.687C127.413 163.476 144.102 180.498 164.898 180.708C185.694 180.918 202.724 164.237 202.934 143.45C203.145 122.663 186.457 105.641 165.66 105.43V105.43Z" fill="#F9A140"/>
<path d="M161.914 180.561C142.53 178.843 127.424 162.47 127.624 142.687C127.8 125.289 139.76 110.767 155.848 106.618C158.981 105.81 162.27 105.395 165.66 105.43C166.665 105.44 167.658 105.489 168.643 105.577C179.932 106.576 189.77 112.546 195.978 121.265C200.43 127.518 203.018 135.188 202.934 143.45C202.724 164.237 185.694 180.918 164.898 180.708C163.892 180.698 162.899 180.649 161.914 180.561V180.561ZM168.33 109.064C167.439 108.985 166.535 108.941 165.625 108.932C146.763 108.74 131.318 123.87 131.127 142.724C130.945 160.667 144.645 175.516 162.227 177.073C163.119 177.152 164.023 177.197 164.933 177.206C183.795 177.397 199.24 162.268 199.431 143.414C199.613 125.471 185.913 110.622 168.33 109.064Z" fill="#E4943D"/>
<path d="M164.898 180.708C144.102 180.498 127.414 163.475 127.624 142.687C127.835 121.9 144.864 105.219 165.66 105.43C186.457 105.641 203.145 122.663 202.934 143.45C202.724 164.237 185.694 180.918 164.898 180.708V180.708ZM165.737 97.8312C140.743 97.5785 120.275 117.627 120.022 142.611C119.769 167.595 139.826 188.054 164.821 188.307C189.816 188.56 210.283 168.511 210.536 143.527C210.79 118.543 190.732 98.0846 165.737 97.8312V97.8312Z" fill="#F4D242"/>
<path d="M173.913 155.914C172.279 156.899 169.482 157.371 165.519 157.331L164.034 157.316C164.078 152.997 164.122 148.677 164.165 144.359L165.966 144.377C169.866 144.416 172.586 144.939 174.125 145.945C175.664 146.951 176.422 148.623 176.399 150.962C176.375 153.28 175.546 154.93 173.913 155.914L173.913 155.914ZM159.92 157.274C159.964 152.955 160.007 148.636 160.051 144.317L161.672 144.333C161.628 148.652 161.584 152.972 161.54 157.291L159.92 157.274V157.274ZM161.829 128.816C161.79 132.692 161.75 136.569 161.711 140.446L160.091 140.429C160.13 136.553 160.169 132.676 160.208 128.8L161.829 128.816V128.816ZM166.63 128.864C169.075 128.89 170.946 129.409 172.243 130.423C173.539 131.437 174.178 132.882 174.159 134.757C174.139 136.737 173.402 138.194 171.949 139.127C170.495 140.061 168.272 140.512 165.279 140.482L164.205 140.471C164.244 136.594 164.283 132.717 164.322 128.841L166.63 128.864V128.864ZM180.295 145.502C179.204 144.016 177.524 142.85 175.256 142.005C176.676 141.219 177.751 140.208 178.48 138.972C179.209 137.737 179.583 136.286 179.6 134.621C179.633 131.314 178.489 128.779 176.166 127.018C173.844 125.255 170.449 124.351 165.981 124.307L164.369 124.29C164.384 122.792 164.399 121.293 164.414 119.795C164.428 118.417 161.935 118.392 161.921 119.77C161.906 121.268 161.89 122.766 161.875 124.265L160.254 124.248C160.27 122.75 160.285 121.252 160.3 119.754C160.314 118.376 157.82 118.351 157.806 119.728C157.791 121.227 157.776 122.725 157.761 124.223L151.216 124.157C150.499 124.15 149.949 124.34 149.565 124.725C149.182 125.111 148.987 125.673 148.979 126.411C148.97 127.275 149.196 127.872 149.657 128.203C150.117 128.535 151.159 128.708 152.782 128.724L153.826 128.735L153.537 157.209L152.494 157.199C150.744 157.182 149.636 157.323 149.169 157.623C148.702 157.925 148.465 158.497 148.456 159.339C148.448 160.098 148.627 160.668 148.992 161.051C149.357 161.434 149.908 161.629 150.646 161.636L157.381 161.705C157.366 163.204 157.351 164.702 157.336 166.2C157.322 167.577 159.815 167.603 159.83 166.225C159.844 164.727 159.86 163.229 159.875 161.73L161.495 161.747C161.48 163.245 161.465 164.743 161.45 166.241C161.436 167.619 163.93 167.644 163.944 166.267C163.959 164.768 163.974 163.27 163.989 161.772L164.81 161.78L167.529 161.808C169.848 161.831 171.641 161.718 172.908 161.467C174.176 161.217 175.329 160.801 176.367 160.222C178.106 159.228 179.457 157.946 180.422 156.376C181.387 154.805 181.879 153.061 181.898 151.143C181.922 148.868 181.387 146.988 180.295 145.502H180.295Z" fill="#F4D242"/>
<path d="M475.174 102.734C458.262 102.563 444.412 116.128 444.241 133.034C444.07 149.94 457.642 163.783 474.554 163.954C491.467 164.125 505.316 150.559 505.488 133.654C505.658 116.748 492.087 102.905 475.174 102.734V102.734Z" fill="#FFCD48"/>
<path d="M472.128 163.835C456.363 162.437 444.078 149.122 444.241 133.034C444.385 118.885 454.111 107.074 467.195 103.7C469.743 103.043 472.417 102.706 475.174 102.734C475.992 102.742 476.8 102.782 477.6 102.853C486.781 103.667 494.781 108.521 499.83 115.612C503.451 120.698 505.555 126.935 505.487 133.654C505.316 150.559 491.467 164.125 474.554 163.954C473.736 163.946 472.928 163.906 472.128 163.835V163.835ZM477.346 105.69C476.62 105.626 475.886 105.589 475.145 105.582C459.806 105.426 447.245 117.73 447.09 133.063C446.942 147.655 458.083 159.732 472.382 160.998C473.108 161.062 473.843 161.099 474.583 161.106C489.922 161.261 502.483 148.958 502.638 133.625C502.786 119.033 491.645 106.956 477.346 105.69V105.69Z" fill="#E4943D"/>
<path d="M474.554 163.954C457.642 163.783 444.07 149.94 444.241 133.034C444.412 116.128 458.262 102.563 475.174 102.734C492.087 102.905 505.658 116.748 505.487 133.654C505.316 150.559 491.466 164.125 474.554 163.954ZM475.237 96.5547C454.91 96.3487 438.265 112.653 438.059 132.971C437.853 153.29 454.164 169.928 474.491 170.134C494.818 170.339 511.464 154.035 511.669 133.717C511.875 113.398 495.564 96.7601 475.237 96.5547V96.5547Z" fill="#FFCD48"/>
<path d="M844.435 302.743C830.925 302.607 819.861 313.443 819.725 326.948C819.588 340.453 830.429 351.511 843.94 351.647C857.45 351.784 868.513 340.948 868.649 327.443C868.786 313.939 857.945 302.88 844.435 302.743Z" fill="#F9A140"/>
<path d="M842.001 351.552C829.408 350.436 819.595 339.8 819.725 326.948C819.84 315.645 827.609 306.211 838.061 303.516C840.095 302.991 842.233 302.721 844.435 302.743C845.088 302.75 845.733 302.782 846.373 302.839C853.707 303.488 860.097 307.367 864.13 313.031C867.023 317.094 868.704 322.076 868.649 327.443C868.513 340.948 857.45 351.784 843.94 351.647C843.286 351.641 842.641 351.609 842.001 351.552V351.552ZM846.169 305.105C845.59 305.054 845.003 305.025 844.412 305.019C832.159 304.895 822.125 314.723 822.001 326.971C821.883 338.628 830.782 348.274 842.205 349.286C842.784 349.338 843.371 349.367 843.962 349.373C856.216 349.496 866.249 339.668 866.374 327.42C866.492 315.764 857.592 306.117 846.169 305.105Z" fill="#E4943D"/>
<path d="M843.94 351.647C830.429 351.511 819.588 340.452 819.725 326.948C819.862 313.443 830.925 302.607 844.435 302.743C857.945 302.88 868.786 313.939 868.649 327.443C868.513 340.948 857.45 351.784 843.94 351.647V351.647ZM844.485 297.808C828.247 297.643 814.951 310.668 814.787 326.898C814.622 343.129 827.652 356.419 843.89 356.584C860.127 356.748 873.423 343.724 873.588 327.493C873.753 311.263 860.723 297.972 844.485 297.808V297.808Z" fill="#F4D242"/>
<path d="M849.797 335.54C848.735 336.18 846.918 336.487 844.344 336.461L843.379 336.451C843.407 333.645 843.436 330.839 843.464 328.033L844.634 328.045C847.167 328.071 848.934 328.411 849.934 329.064C850.934 329.717 851.427 330.803 851.411 332.323C851.396 333.829 850.858 334.901 849.797 335.54V335.54ZM840.706 336.424C840.735 333.618 840.763 330.812 840.791 328.006L841.844 328.017C841.816 330.823 841.787 333.629 841.759 336.434L840.706 336.424ZM841.946 317.936C841.921 320.455 841.895 322.973 841.87 325.491L840.817 325.481C840.843 322.962 840.868 320.444 840.893 317.926L841.946 317.936V317.936ZM845.065 317.968C846.653 317.984 847.869 318.322 848.711 318.98C849.554 319.639 849.969 320.577 849.957 321.795C849.943 323.082 849.465 324.029 848.521 324.635C847.576 325.241 846.131 325.535 844.188 325.515L843.49 325.508C843.516 322.99 843.541 320.471 843.566 317.952L845.065 317.968V317.968ZM853.943 328.776C853.234 327.811 852.142 327.053 850.669 326.505C851.591 325.994 852.29 325.337 852.764 324.534C853.237 323.732 853.48 322.79 853.491 321.708C853.513 319.559 852.769 317.912 851.26 316.768C849.752 315.623 847.546 315.036 844.643 315.007L843.596 314.996C843.606 314.023 843.616 313.05 843.626 312.076C843.635 311.181 842.015 311.165 842.006 312.06C841.996 313.033 841.986 314.007 841.976 314.98L840.924 314.969C840.934 313.996 840.943 313.022 840.953 312.049C840.962 311.154 839.342 311.138 839.333 312.033C839.323 313.006 839.313 313.979 839.303 314.952L835.052 314.91C834.586 314.905 834.229 315.028 833.979 315.279C833.731 315.53 833.604 315.894 833.599 316.374C833.593 316.935 833.74 317.323 834.039 317.538C834.338 317.754 835.015 317.866 836.069 317.877L836.747 317.883L836.559 336.382L835.881 336.375C834.745 336.364 834.025 336.456 833.722 336.65C833.419 336.846 833.264 337.218 833.259 337.765C833.254 338.258 833.37 338.629 833.607 338.878C833.844 339.126 834.202 339.253 834.681 339.258L839.057 339.303C839.047 340.276 839.037 341.249 839.027 342.222C839.018 343.117 840.638 343.134 840.647 342.239C840.657 341.265 840.667 340.292 840.677 339.319L841.729 339.329C841.72 340.303 841.71 341.276 841.7 342.25C841.691 343.144 843.311 343.16 843.32 342.266C843.33 341.292 843.34 340.319 843.35 339.345L843.883 339.351L845.65 339.369C847.156 339.384 848.321 339.31 849.144 339.148C849.967 338.985 850.716 338.715 851.391 338.339C852.521 337.693 853.398 336.86 854.025 335.84C854.652 334.819 854.971 333.687 854.984 332.441C854.999 330.963 854.652 329.741 853.943 328.776H853.943Z" fill="#F4D242"/>
<path d="M264.077 567.496V555.97H337.957V567.496C337.957 573.076 321.419 577.6 301.017 577.6C280.616 577.6 264.077 573.076 264.077 567.496" fill="#FBC02D"/>
<path d="M301.017 566.074C321.419 566.074 337.957 561.551 337.957 555.97C337.957 550.39 321.419 545.866 301.017 545.866C280.616 545.866 264.077 550.39 264.077 555.97C264.077 561.551 280.616 566.074 301.017 566.074Z" fill="#FDD835"/>
<path d="M301.018 563.526C319.624 563.526 334.708 560.209 334.708 556.119C334.708 552.027 319.624 548.711 301.018 548.711C282.411 548.711 267.327 552.027 267.327 556.119C267.327 560.209 282.411 563.526 301.018 563.526Z" fill="#FBC02D"/>
<path d="M302.489 553.574C302.489 552.837 300.531 552.601 296.818 552.6L290.608 552.599V551.348H313.829V552.603L308.159 552.602C309.035 552.882 309.577 553.208 309.847 553.577L313.829 553.578V554.834L309.847 554.832C309.305 556.263 304.245 557.057 298.506 557.052L314.234 561.688L306.27 561.677L290.608 557.046V555.794L296.818 555.798C300.531 555.8 302.489 555.566 302.489 554.828L290.608 554.823V553.571L302.489 553.574V553.574Z" fill="#FDD835"/>
<path d="M184.489 567.496V555.97H258.369V567.496C258.369 573.076 241.831 577.6 221.429 577.6C201.028 577.6 184.489 573.076 184.489 567.496" fill="#FBC02D"/>
<path d="M221.429 566.074C241.831 566.074 258.369 561.551 258.369 555.97C258.369 550.39 241.831 545.866 221.429 545.866C201.028 545.866 184.489 550.39 184.489 555.97C184.489 561.551 201.028 566.074 221.429 566.074Z" fill="#FDD835"/>
<path d="M221.429 563.526C240.035 563.526 255.12 560.209 255.12 556.119C255.12 552.027 240.035 548.711 221.429 548.711C202.823 548.711 187.738 552.027 187.738 556.119C187.738 560.209 202.822 563.526 221.429 563.526Z" fill="#FBC02D"/>
<path d="M222.901 553.574C222.901 552.837 220.943 552.601 217.23 552.6L211.02 552.599V551.348H234.241V552.603L228.57 552.602C229.447 552.882 229.989 553.208 230.258 553.577L234.241 553.578V554.834L230.258 554.832C229.717 556.263 224.656 557.057 218.917 557.052L234.646 561.688L226.681 561.677L211.02 557.046V555.794L217.23 555.798C220.943 555.8 222.901 555.566 222.901 554.828L211.02 554.823V553.571L222.901 553.574V553.574Z" fill="#FDD835"/>
<path d="M341.089 569.95V558.423H414.969V569.95C414.969 575.53 398.431 580.053 378.029 580.053C357.627 580.053 341.089 575.53 341.089 569.95" fill="#FBC02D"/>
<path d="M378.029 568.528C398.431 568.528 414.969 564.004 414.969 558.423C414.969 552.844 398.431 548.32 378.029 548.32C357.627 548.32 341.089 552.844 341.089 558.423C341.089 564.004 357.628 568.528 378.029 568.528Z" fill="#FDD835"/>
<path d="M378.029 565.979C396.636 565.979 411.72 562.663 411.72 558.572C411.72 554.481 396.636 551.165 378.029 551.165C359.422 551.165 344.339 554.481 344.339 558.572C344.339 562.663 359.423 565.979 378.029 565.979Z" fill="#FBC02D"/>
<path d="M379.5 556.028C379.5 555.291 377.542 555.055 373.829 555.054L367.619 555.053V553.801H390.84V555.057L385.169 555.056C386.046 555.336 386.588 555.661 386.858 556.03L390.84 556.032V557.288L386.858 557.285C386.316 558.717 381.255 559.511 375.517 559.506L391.245 564.142L383.28 564.13L367.619 559.499V558.247L373.829 558.252C377.542 558.254 379.5 558.019 379.5 557.282L367.619 557.276V556.024L379.5 556.028V556.028Z" fill="#FDD835"/>
<path d="M419.389 570.931V559.405H493.268V570.931C493.268 576.511 476.731 581.035 456.329 581.035C435.927 581.035 419.389 576.511 419.389 570.931" fill="#FBC02D"/>
<path d="M456.329 569.509C476.731 569.509 493.269 564.986 493.269 559.405C493.269 553.825 476.731 549.301 456.329 549.301C435.928 549.301 419.389 553.825 419.389 559.405C419.389 564.986 435.928 569.509 456.329 569.509Z" fill="#FDD835"/>
<path d="M456.329 566.961C474.935 566.961 490.019 563.644 490.019 559.553C490.019 555.462 474.935 552.146 456.329 552.146C437.722 552.146 422.638 555.462 422.638 559.553C422.638 563.644 437.722 566.961 456.329 566.961Z" fill="#FBC02D"/>
<path d="M457.8 557.009C457.8 556.272 455.842 556.036 452.129 556.035L445.919 556.034V554.782H469.139V556.038L463.47 556.037C464.346 556.317 464.888 556.642 465.158 557.011L469.139 557.013V558.269L465.158 558.267C464.616 559.698 459.556 560.491 453.816 560.487L469.545 565.123L461.581 565.111L445.919 560.48V559.229L452.129 559.233C455.842 559.235 457.8 559.001 457.8 558.263L445.919 558.257V557.005L457.8 557.009V557.009Z" fill="#FDD835"/>
<path d="M264.077 551.242V540.49H337.957V551.242C337.957 556.447 321.419 560.667 301.017 560.667C280.616 560.667 264.077 556.447 264.077 551.242" fill="#FBC02D"/>
<path d="M301.017 549.915C321.419 549.915 337.957 545.696 337.957 540.49C337.957 535.285 321.419 531.065 301.017 531.065C280.616 531.065 264.077 535.285 264.077 540.49C264.077 545.696 280.616 549.915 301.017 549.915Z" fill="#FDD835"/>
<path d="M301.018 547.538C319.624 547.538 334.708 544.445 334.708 540.628C334.708 536.813 319.624 533.719 301.018 533.719C282.411 533.719 267.327 536.813 267.327 540.628C267.327 544.445 282.411 547.538 301.018 547.538Z" fill="#FBC02D"/>
<path d="M302.489 538.256C302.489 537.568 300.531 537.348 296.818 537.347L290.608 537.346V536.178H313.829V537.35L308.159 537.349C309.035 537.611 309.577 537.913 309.847 538.258L313.829 538.259V539.43L309.847 539.429C309.305 540.764 304.245 541.504 298.506 541.5L314.234 545.824L306.27 545.814L290.608 541.494V540.326L296.818 540.33C300.531 540.332 302.489 540.113 302.489 539.425L290.608 539.42V538.252L302.489 538.256V538.256Z" fill="#FDD835"/>
<path d="M184.489 551.242V540.49H258.369V551.242C258.369 556.447 241.831 560.667 221.429 560.667C201.028 560.667 184.489 556.447 184.489 551.242" fill="#FBC02D"/>
<path d="M221.429 549.915C241.831 549.915 258.369 545.696 258.369 540.49C258.369 535.285 241.831 531.065 221.429 531.065C201.028 531.065 184.489 535.285 184.489 540.49C184.489 545.696 201.028 549.915 221.429 549.915Z" fill="#FDD835"/>
<path d="M221.429 547.538C240.035 547.538 255.12 544.445 255.12 540.628C255.12 536.813 240.035 533.719 221.429 533.719C202.823 533.719 187.738 536.813 187.738 540.628C187.738 544.445 202.822 547.538 221.429 547.538Z" fill="#FBC02D"/>
<path d="M222.901 538.256C222.901 537.568 220.943 537.348 217.23 537.347L211.02 537.346V536.178H234.241V537.35L228.57 537.349C229.447 537.611 229.989 537.913 230.258 538.258L234.241 538.259V539.43L230.258 539.429C229.717 540.764 224.656 541.504 218.917 541.5L234.646 545.824L226.681 545.814L211.02 541.494V540.326L217.23 540.33C220.943 540.332 222.901 540.113 222.901 539.425L211.02 539.42V538.252L222.901 538.256V538.256Z" fill="#FDD835"/>
<path d="M341.089 553.695V542.944H414.969V553.695C414.969 558.9 398.431 563.12 378.029 563.12C357.627 563.12 341.089 558.9 341.089 553.695" fill="#FBC02D"/>
<path d="M378.029 552.369C398.431 552.369 414.969 548.149 414.969 542.944C414.969 537.739 398.431 533.519 378.029 533.519C357.627 533.519 341.089 537.739 341.089 542.944C341.089 548.149 357.628 552.369 378.029 552.369Z" fill="#FDD835"/>
<path d="M378.029 549.992C396.636 549.992 411.72 546.898 411.72 543.082C411.72 539.266 396.636 536.173 378.029 536.173C359.422 536.173 344.339 539.266 344.339 543.082C344.339 546.898 359.423 549.992 378.029 549.992Z" fill="#FBC02D"/>
<path d="M379.5 540.709C379.5 540.022 377.542 539.801 373.829 539.801L367.619 539.799V538.632H390.84V539.803L385.169 539.803C386.046 540.064 386.588 540.367 386.858 540.711L390.84 540.712V541.884L386.858 541.882C386.316 543.217 381.255 543.957 375.517 543.953L391.245 548.277L383.28 548.267L367.619 543.947V542.779L373.829 542.783C377.542 542.786 379.5 542.567 379.5 541.879L367.619 541.874V540.705L379.5 540.709V540.709Z" fill="#FDD835"/>
<path d="M264.077 536.399V525.648H337.957V536.399C337.957 541.604 321.419 545.824 301.017 545.824C280.616 545.824 264.077 541.604 264.077 536.399" fill="#FBC02D"/>
<path d="M301.017 535.073C321.419 535.073 337.957 530.853 337.957 525.648C337.957 520.443 321.419 516.223 301.017 516.223C280.616 516.223 264.077 520.443 264.077 525.648C264.077 530.853 280.616 535.073 301.017 535.073Z" fill="#FDD835"/>
<path d="M301.018 532.696C319.624 532.696 334.708 529.602 334.708 525.786C334.708 521.97 319.624 518.876 301.018 518.876C282.411 518.876 267.327 521.97 267.327 525.786C267.327 529.602 282.411 532.696 301.018 532.696Z" fill="#FBC02D"/>
<path d="M302.489 523.414C302.489 522.725 300.531 522.505 296.818 522.504L290.608 522.503V521.336H313.829V522.507L308.159 522.507C309.035 522.768 309.577 523.071 309.847 523.415L313.829 523.417V524.588L309.847 524.586C309.305 525.921 304.245 526.661 298.506 526.657L314.234 530.982L306.27 530.971L290.608 526.651V525.483L296.818 525.487C300.531 525.489 302.489 525.271 302.489 524.583L290.608 524.578V523.409L302.489 523.414V523.414Z" fill="#FDD835"/>
<path d="M184.489 536.399V525.648H258.369V536.399C258.369 541.604 241.831 545.824 221.429 545.824C201.028 545.824 184.489 541.604 184.489 536.399" fill="#FBC02D"/>
<path d="M221.429 535.073C241.831 535.073 258.369 530.853 258.369 525.648C258.369 520.443 241.831 516.223 221.429 516.223C201.028 516.223 184.489 520.443 184.489 525.648C184.489 530.853 201.028 535.073 221.429 535.073Z" fill="#FDD835"/>
<path d="M221.429 532.696C240.035 532.696 255.12 529.602 255.12 525.786C255.12 521.97 240.035 518.876 221.429 518.876C202.823 518.876 187.738 521.97 187.738 525.786C187.738 529.602 202.822 532.696 221.429 532.696Z" fill="#FBC02D"/>
<path d="M222.901 523.414C222.901 522.725 220.943 522.505 217.23 522.504L211.02 522.503V521.336H234.241V522.507L228.57 522.507C229.447 522.768 229.989 523.071 230.258 523.415L234.241 523.417V524.588L230.258 524.586C229.717 525.921 224.656 526.661 218.917 526.657L234.646 530.982L226.681 530.971L211.02 526.651V525.483L217.23 525.487C220.943 525.489 222.901 525.271 222.901 524.583L211.02 524.578V523.409L222.901 523.414V523.414Z" fill="#FDD835"/>
<path d="M341.089 538.853V528.101H414.969V538.853C414.969 544.058 398.431 548.278 378.029 548.278C357.627 548.278 341.089 544.058 341.089 538.853" fill="#FBC02D"/>
<path d="M378.029 537.526C398.431 537.526 414.969 533.307 414.969 528.101C414.969 522.896 398.431 518.676 378.029 518.676C357.627 518.676 341.089 522.896 341.089 528.101C341.089 533.307 357.628 537.526 378.029 537.526Z" fill="#FDD835"/>
<path d="M378.029 535.149C396.636 535.149 411.72 532.056 411.72 528.24C411.72 524.423 396.636 521.33 378.029 521.33C359.422 521.33 344.339 524.423 344.339 528.24C344.339 532.056 359.423 535.149 378.029 535.149Z" fill="#FBC02D"/>
<path d="M379.5 525.867C379.5 525.179 377.542 524.959 373.829 524.958L367.619 524.957V523.789H390.84V524.961L385.169 524.96C386.046 525.221 386.588 525.525 386.858 525.869L390.84 525.87V527.042L386.858 527.039C386.316 528.375 381.255 529.115 375.517 529.11L391.245 533.435L383.28 533.425L367.619 529.104V527.937L373.829 527.941C377.542 527.943 379.5 527.724 379.5 527.036L367.619 527.031V525.863L379.5 525.867V525.867Z" fill="#FDD835"/>
<path d="M264.077 520.957V510.205H337.957V520.957C337.957 526.161 321.419 530.382 301.017 530.382C280.616 530.382 264.077 526.161 264.077 520.957" fill="#FBC02D"/>
<path d="M301.017 519.63C321.419 519.63 337.957 515.411 337.957 510.205C337.957 505 321.419 500.78 301.017 500.78C280.616 500.78 264.077 505 264.077 510.205C264.077 515.411 280.616 519.63 301.017 519.63Z" fill="#FDD835"/>
<path d="M301.018 517.253C319.624 517.253 334.708 514.16 334.708 510.343C334.708 506.528 319.624 503.434 301.018 503.434C282.411 503.434 267.327 506.528 267.327 510.343C267.327 514.16 282.411 517.253 301.018 517.253Z" fill="#FBC02D"/>
<path d="M302.489 507.971C302.489 507.283 300.531 507.063 296.818 507.062L290.608 507.06V505.893H313.829V507.064L308.159 507.064C309.035 507.325 309.577 507.628 309.847 507.973L313.829 507.974V509.145L309.847 509.144C309.305 510.479 304.245 511.219 298.506 511.214L314.234 515.539L306.27 515.528L290.608 511.208V510.041L296.818 510.045C300.531 510.047 302.489 509.828 302.489 509.14L290.608 509.135V507.967L302.489 507.971V507.971Z" fill="#FDD835"/>
<path d="M184.489 520.957V510.205H258.369V520.957C258.369 526.161 241.831 530.382 221.429 530.382C201.028 530.382 184.489 526.161 184.489 520.957" fill="#FBC02D"/>
<path d="M221.429 519.63C241.831 519.63 258.369 515.411 258.369 510.205C258.369 505 241.831 500.78 221.429 500.78C201.028 500.78 184.489 505 184.489 510.205C184.489 515.411 201.028 519.63 221.429 519.63Z" fill="#FDD835"/>
<path d="M221.429 517.253C240.035 517.253 255.12 514.16 255.12 510.343C255.12 506.528 240.035 503.434 221.429 503.434C202.823 503.434 187.738 506.528 187.738 510.343C187.738 514.16 202.822 517.253 221.429 517.253Z" fill="#FBC02D"/>
<path d="M222.901 507.971C222.901 507.283 220.943 507.063 217.23 507.062L211.02 507.06V505.893H234.241V507.064L228.57 507.064C229.447 507.325 229.989 507.628 230.258 507.973L234.241 507.974V509.145L230.258 509.144C229.717 510.479 224.656 511.219 218.917 511.214L234.646 515.539L226.681 515.528L211.02 511.208V510.041L217.23 510.045C220.943 510.047 222.901 509.828 222.901 509.14L211.02 509.135V507.967L222.901 507.971V507.971Z" fill="#FDD835"/>
<path d="M264.384 506.542V495.791H338.264V506.542C338.264 511.747 321.726 515.967 301.324 515.967C280.922 515.967 264.384 511.747 264.384 506.542" fill="#FBC02D"/>
<path d="M301.324 505.215C321.726 505.215 338.264 500.996 338.264 495.791C338.264 490.586 321.726 486.366 301.324 486.366C280.922 486.366 264.384 490.586 264.384 495.791C264.384 500.996 280.922 505.215 301.324 505.215Z" fill="#FDD835"/>
<path d="M301.325 502.839C319.932 502.839 335.016 499.745 335.016 495.929C335.016 492.113 319.932 489.019 301.325 489.019C282.718 489.019 267.634 492.113 267.634 495.929C267.634 499.745 282.718 502.839 301.325 502.839Z" fill="#FBC02D"/>
<path d="M302.796 493.557C302.796 492.869 300.837 492.649 297.125 492.648L290.915 492.646V491.479H314.136V492.65L308.465 492.65C309.342 492.911 309.884 493.214 310.154 493.558L314.136 493.56V494.731L310.154 494.729C309.612 496.065 304.551 496.805 298.812 496.8L314.541 501.125L306.576 501.114L290.915 496.794V495.626L297.125 495.631C300.837 495.633 302.796 495.414 302.796 494.726L290.915 494.721V493.553L302.796 493.557V493.557Z" fill="#FDD835"/>
<path d="M263.904 489.014V478.263H337.785V489.014C337.785 494.219 321.246 498.439 300.845 498.439C280.444 498.439 263.904 494.219 263.904 489.014" fill="#FBC02D"/>
<path d="M300.844 487.688C321.246 487.688 337.785 483.469 337.785 478.263C337.785 473.058 321.246 468.838 300.844 468.838C280.443 468.838 263.904 473.058 263.904 478.263C263.904 483.469 280.443 487.688 300.844 487.688Z" fill="#FDD835"/>
<path d="M300.845 485.311C319.451 485.311 334.536 482.217 334.536 478.401C334.536 474.585 319.451 471.491 300.845 471.491C282.238 471.491 267.154 474.585 267.154 478.401C267.154 482.217 282.238 485.311 300.845 485.311Z" fill="#FBC02D"/>
<path d="M302.316 476.028C302.316 475.34 300.358 475.12 296.645 475.12L290.436 475.118V473.951H313.656V475.122L307.986 475.121C308.863 475.383 309.404 475.686 309.674 476.03L313.656 476.032V477.203L309.674 477.201C309.133 478.536 304.072 479.277 298.333 479.272L314.061 483.597L306.097 483.586L290.436 479.266V478.099L296.645 478.103C300.358 478.104 302.316 477.885 302.316 477.198L290.436 477.192V476.024L302.316 476.028V476.028Z" fill="#FDD835"/>
<path d="M184.796 506.542V495.791H258.676V506.542C258.676 511.747 242.138 515.967 221.736 515.967C201.334 515.967 184.796 511.747 184.796 506.542Z" fill="#FBC02D"/>
<path d="M221.736 505.215C242.137 505.215 258.676 500.996 258.676 495.791C258.676 490.586 242.137 486.366 221.736 486.366C201.334 486.366 184.795 490.586 184.795 495.791C184.795 500.996 201.334 505.215 221.736 505.215" fill="#FDD835"/>
<path d="M221.736 502.839C240.342 502.839 255.426 499.745 255.426 495.929C255.426 492.113 240.342 489.019 221.736 489.019C203.13 489.019 188.045 492.113 188.045 495.929C188.045 499.745 203.129 502.839 221.736 502.839Z" fill="#FBC02D"/>
<path d="M223.207 493.557C223.207 492.869 221.249 492.649 217.536 492.648L211.326 492.646V491.479H234.547V492.65L228.877 492.65C229.754 492.911 230.295 493.214 230.565 493.558L234.547 493.56V494.731L230.565 494.729C230.024 496.065 224.963 496.805 219.224 496.8L234.952 501.125L226.988 501.114L211.326 496.794V495.626L217.536 495.631C221.249 495.633 223.207 495.414 223.207 494.726L211.326 494.721V493.553L223.207 493.557H223.207Z" fill="#FDD835"/>
<path d="M184.55 490.104V479.352H258.43V490.104C258.43 495.309 241.892 499.529 221.49 499.529C201.088 499.529 184.55 495.309 184.55 490.104" fill="#FBC02D"/>
<path d="M221.49 488.777C241.892 488.777 258.431 484.558 258.431 479.352C258.431 474.147 241.892 469.927 221.49 469.927C201.088 469.927 184.55 474.147 184.55 479.352C184.55 484.558 201.089 488.777 221.49 488.777Z" fill="#FDD835"/>
<path d="M221.49 486.401C240.097 486.401 255.181 483.307 255.181 479.491C255.181 475.675 240.097 472.581 221.49 472.581C202.883 472.581 187.8 475.675 187.8 479.491C187.8 483.307 202.884 486.401 221.49 486.401Z" fill="#FBC02D"/>
<path d="M222.962 477.118C222.962 476.43 221.003 476.21 217.291 476.209L211.081 476.208V475.041H234.302V476.212L228.631 476.211C229.508 476.472 230.05 476.776 230.32 477.12L234.302 477.121V478.293L230.32 478.291C229.778 479.626 224.717 480.366 218.978 480.362L234.707 484.687L226.742 484.675L211.081 480.355V479.188L217.291 479.192C221.003 479.194 222.962 478.975 222.962 478.287L211.081 478.282V477.114L222.962 477.118V477.118Z" fill="#FDD835"/>
<path d="M184.796 473.736V462.984H258.676V473.736C258.676 478.941 242.138 483.161 221.736 483.161C201.334 483.161 184.796 478.941 184.796 473.736Z" fill="#FBC02D"/>
<path d="M221.736 472.41C242.137 472.41 258.676 468.19 258.676 462.985C258.676 457.78 242.137 453.56 221.736 453.56C201.334 453.56 184.795 457.78 184.795 462.985C184.795 468.19 201.334 472.41 221.736 472.41" fill="#FDD835"/>
<path d="M221.736 470.033C240.342 470.033 255.426 466.939 255.426 463.123C255.426 459.307 240.342 456.213 221.736 456.213C203.13 456.213 188.045 459.307 188.045 463.123C188.045 466.939 203.129 470.033 221.736 470.033Z" fill="#FBC02D"/>
<path d="M223.207 460.75C223.207 460.062 221.249 459.842 217.536 459.842L211.326 459.84V458.673H234.547V459.844L228.877 459.843C229.754 460.105 230.295 460.408 230.565 460.752L234.547 460.754V461.925L230.565 461.923C230.024 463.258 224.963 463.999 219.224 463.994L234.952 468.319L226.988 468.308L211.326 463.988V462.821L217.536 462.824C221.249 462.826 223.207 462.607 223.207 461.92L211.326 461.914V460.746L223.207 460.75H223.207Z" fill="#FDD835"/>
<path d="M184.55 457.254V446.502H258.43V457.254C258.43 462.459 241.892 466.679 221.49 466.679C201.089 466.679 184.55 462.459 184.55 457.254Z" fill="#FBC02D"/>
<path d="M221.49 455.928C241.892 455.928 258.431 451.708 258.431 446.503C258.431 441.297 241.892 437.078 221.49 437.078C201.088 437.078 184.55 441.297 184.55 446.503C184.55 451.708 201.089 455.928 221.49 455.928Z" fill="#FDD835"/>
<path d="M221.49 453.55C240.097 453.55 255.181 450.457 255.181 446.641C255.181 442.825 240.097 439.731 221.49 439.731C202.883 439.731 187.8 442.825 187.8 446.641C187.8 450.457 202.884 453.55 221.49 453.55Z" fill="#FBC02D"/>
<path d="M222.962 444.268C222.962 443.58 221.003 443.36 217.291 443.359L211.081 443.358V442.19H234.302V443.362L228.632 443.361C229.509 443.623 230.05 443.926 230.32 444.27L234.302 444.271V445.443L230.32 445.441C229.779 446.776 224.717 447.516 218.978 447.512L234.707 451.836L226.742 451.826L211.081 447.506V446.338L217.291 446.342C221.003 446.344 222.962 446.125 222.962 445.438L211.081 445.432V444.264L222.962 444.268V444.268Z" fill="#FDD835"/>
<path d="M184.795 440.886V430.134H258.675V440.886C258.675 446.091 242.137 450.311 221.735 450.311C201.333 450.311 184.795 446.091 184.795 440.886" fill="#FBC02D"/>
<path d="M221.735 439.559C242.137 439.559 258.675 435.34 258.675 430.134C258.675 424.93 242.137 420.709 221.735 420.709C201.333 420.709 184.795 424.93 184.795 430.134C184.795 435.34 201.333 439.559 221.735 439.559Z" fill="#FDD835"/>
<path d="M221.736 437.183C240.343 437.183 255.427 434.089 255.427 430.273C255.427 426.457 240.343 423.363 221.736 423.363C203.129 423.363 188.045 426.457 188.045 430.273C188.045 434.089 203.129 437.183 221.736 437.183" fill="#FBC02D"/>
<path d="M223.207 427.9C223.207 427.212 221.249 426.992 217.536 426.991L211.326 426.99V425.823H234.547V426.994L228.876 426.994C229.753 427.255 230.295 427.558 230.565 427.902L234.547 427.904V429.075L230.565 429.073C230.023 430.408 224.962 431.148 219.224 431.144L234.952 435.469L226.987 435.458L211.326 431.138V429.97L217.536 429.974C221.249 429.976 223.207 429.757 223.207 429.069L211.326 429.064V427.896L223.207 427.9V427.9Z" fill="#FDD835"/>
<path fill-rule="evenodd" clip-rule="evenodd" d="M913.542 160.006C913.542 156.166 910.422 153.048 906.58 153.048H721.254C717.411 153.048 714.292 156.166 714.292 160.006V246.836C714.292 250.676 717.411 253.794 721.254 253.794H906.58C910.422 253.794 913.542 250.676 913.542 246.836V160.006V160.006Z" fill="#FFF577"/>
<path fill-rule="evenodd" clip-rule="evenodd" d="M754.419 251.676L732.327 281.492V251.676H754.419Z" fill="#FFF577"/>
<path fill-rule="evenodd" clip-rule="evenodd" d="M782.951 203.421C782.951 197.877 778.448 193.376 772.902 193.376C767.356 193.376 762.853 197.877 762.853 203.421C762.853 208.965 767.356 213.466 772.902 213.466C778.448 213.466 782.951 208.965 782.951 203.421Z" fill="#D1C63D"/>
<path fill-rule="evenodd" clip-rule="evenodd" d="M820.984 203.421C820.984 197.877 816.481 193.376 810.934 193.376C805.388 193.376 800.885 197.877 800.885 203.421C800.885 208.965 805.388 213.466 810.934 213.466C816.481 213.466 820.984 208.965 820.984 203.421Z" fill="#D1C63D"/>
<path fill-rule="evenodd" clip-rule="evenodd" d="M864.982 203.421C864.982 197.877 860.479 193.376 854.932 193.376C849.386 193.376 844.883 197.877 844.883 203.421C844.883 208.965 849.386 213.466 854.932 213.466C860.479 213.466 864.982 208.965 864.982 203.421Z" fill="#D1C63D"/>
<path fill-rule="evenodd" clip-rule="evenodd" d="M282.192 591.56H485.985L505.31 599.071L485.985 607.949H281.753C276.374 602.486 275.858 597.023 282.192 591.56V591.56Z" fill="#FFD660"/>
<path fill-rule="evenodd" clip-rule="evenodd" d="M484.972 589.509H484.992L505.311 598.901L484.992 610H484.972V589.509Z" fill="white"/>
<path d="M781.181 484.795C760.385 484.584 743.355 501.265 743.145 522.052C742.934 542.841 759.622 559.863 780.418 560.073C801.214 560.283 818.245 543.602 818.455 522.815C818.666 502.028 801.977 485.006 781.181 484.795V484.795Z" fill="#FFCD48"/>
<path d="M777.435 559.926C758.051 558.208 742.944 541.836 743.145 522.052C743.321 504.654 755.28 490.132 771.368 485.983C774.501 485.175 777.791 484.76 781.181 484.795C782.186 484.805 783.179 484.854 784.164 484.942C795.452 485.941 805.29 491.911 811.498 500.63C815.95 506.883 818.539 514.553 818.455 522.815C818.245 543.602 801.214 560.283 780.418 560.073C779.413 560.063 778.419 560.014 777.435 559.926V559.926ZM783.851 488.429C782.959 488.35 782.056 488.306 781.145 488.297C762.283 488.105 746.838 503.235 746.647 522.089C746.466 540.032 760.165 554.881 777.748 556.438C778.639 556.517 779.543 556.562 780.453 556.571C799.315 556.762 814.76 541.633 814.951 522.779C815.133 504.836 801.434 489.987 783.851 488.429V488.429Z" fill="#E4943D"/>
<path d="M780.418 560.073C759.622 559.863 742.934 542.84 743.145 522.052C743.355 501.265 760.385 484.584 781.181 484.795C801.977 485.006 818.666 502.028 818.455 522.815C818.245 543.602 801.214 560.283 780.418 560.073ZM781.258 477.196C756.263 476.943 735.796 496.992 735.542 521.976C735.29 546.96 755.346 567.419 780.341 567.672C805.336 567.925 825.804 547.876 826.056 522.892C826.31 497.908 806.253 477.45 781.258 477.196V477.196Z" fill="#FFCD48"/>
<path d="M622.335 478.271H486.483V588.895H622.335V478.271Z" fill="url(#paint0_linear_116_980)"/>
<path fill-rule="evenodd" clip-rule="evenodd" d="M575.323 482.619C575.837 484.129 576.372 484.728 575.733 486.667C574.766 489.604 570.106 495.06 568.319 497.205C564.925 501.275 564.528 505.422 566.811 507.599C575.761 516.138 621.153 586.072 570.565 587.538C580.53 575.223 580.522 567.984 577.133 554.818C573.597 541.08 566.329 521.382 560.496 506.991C560.496 506.991 559.604 506.557 560.224 502.274C561.484 493.578 573.571 490.038 575.323 482.619" fill="#00A551"/>
<path d="M568.474 500.612H531.45V506.991H568.474V500.612Z" fill="#EA6200"/>
<path d="M536.142 500.612H531.45V506.991H536.142V500.612Z" fill="#EA6200"/>
<path d="M540.89 500.612H536.142V506.991H540.89V500.612Z" fill="#EA6200"/>
<path d="M557.96 500.612H540.89V506.991H557.96V500.612Z" fill="#FF822B"/>
<path d="M566.721 506.991H533.258V507.599H566.721V506.991Z" fill="#8B3202"/>
<path d="M562.48 525.908H538.794V569.614H562.48V525.908Z" fill="url(#paint1_linear_116_980)"/>
<path d="M762.575 495.711C762.575 495.711 761.446 497.536 761.033 498.056C760.62 498.576 762.047 498.903 762.658 498.377C763.27 497.85 762.575 495.711 762.575 495.711" fill="#C88362"/>
<path d="M716.434 584.625C716.507 585.17 715.593 585.881 715.206 586.148C714.511 586.629 713.92 586.925 713.098 587.086C711.624 587.375 709.996 587.464 708.579 587.95C706.901 588.526 704.601 588.856 703.955 590.587C703.035 593.018 724.107 591.83 726.673 591.83C726.673 591.83 728.131 586.502 725.561 583.934L716.434 584.625V584.625Z" fill="#000446"/>
<path d="M742.105 585.073C742.175 585.592 741.307 586.267 740.94 586.52C740.281 586.976 739.719 587.258 738.938 587.411C737.538 587.685 735.996 587.77 734.651 588.231C733.057 588.776 731.28 589.871 730.667 591.513C730.657 591.539 731.488 592.316 732.633 592.348C737.489 592.486 750.299 591.915 751.824 591.915C751.824 591.915 753.208 586.857 750.769 584.419L742.105 585.073V585.073Z" fill="#000446"/>
<path d="M734.242 486.276C730.192 519.566 727.739 551.97 726.083 585.348C726.083 585.348 722.433 586.623 716.434 584.625C712.55 537.885 709.501 521.645 712.624 480.343C719.83 482.32 727.036 484.298 734.242 486.276" fill="#000446"/>
<path d="M749.15 484.513C753.808 490.946 749.58 550.951 751.389 584.645C751.389 584.645 747.104 587.499 741.962 585.215C732.912 549.335 731.836 515.497 726.313 480.566C733.169 481.613 742.294 483.466 749.15 484.513" fill="#000446"/>
<path fill-rule="evenodd" clip-rule="evenodd" d="M753.382 498.354C753.382 498.354 753.239 494.723 754.243 494.29C755.248 493.858 759.065 494.247 759.065 494.247C759.065 494.247 760.113 494.506 760.199 495.868C760.285 497.229 760.285 498.354 760.285 498.354H758.993C758.993 498.354 759.094 496.343 758.864 496.062C758.635 495.782 755.054 495.965 755.054 495.965C755.054 495.965 754.566 495.976 754.544 497.003C754.523 498.029 754.544 498.354 754.544 498.354H753.382V498.354Z" fill="#092978"/>
<path d="M749.105 497.734H740.354V533.43H749.105V497.734Z" fill="#3566E2"/>
<path fill-rule="evenodd" clip-rule="evenodd" d="M748.841 497.734L768.936 498.306L768.988 533.43H748.841V497.734Z" fill="#1A47B6"/>
<path fill-rule="evenodd" clip-rule="evenodd" d="M768.418 498.306H768.666L768.936 501.377L768.988 533.429H748.841V522.597C759.951 539.735 767.141 513.312 768.418 498.306" fill="#1B42A2"/>
<path d="M761.958 484.289C761.958 486.011 762.259 487.597 762.855 489.196C763.291 490.365 763.576 491.292 763.632 492.55C763.676 493.531 764.374 497.558 762.675 497.694C762.485 497.71 762.338 497.662 762.185 497.531C761.962 498.312 760.731 497.767 760.296 497.566C759.99 498.317 758.651 497.962 758.245 497.565C757.913 498.803 753.911 497.581 754.554 496.27C754.728 495.913 755.268 496.042 755.525 496.164C756.58 495.187 756.768 496.011 756.639 494.094C755.959 494.087 754.178 493.985 753.865 494.678C753.444 494.437 754.549 492.577 754.649 492.119C754.859 491.168 754.894 490.203 754.939 489.216C754.988 488.141 754.987 487.189 755.378 486.162C755.727 485.243 756.346 484.432 756.18 483.43L761.958 484.289V484.289Z" fill="#F7AAAC"/>
<path d="M737.891 420.103C737.891 420.103 747.843 420.153 754.734 425.164C754.734 425.164 764.107 448.764 764.678 457.187L762.814 488.276L755.245 487.847L755.868 461.784L751.222 451.868C750.995 473.441 751.717 482.238 751.693 489.096C741.666 491.289 723.329 491.582 711.335 489.231L712.238 455.729C707.024 464.912 704.219 474.537 692.002 479.289L689.568 474.808L701.713 452.692C701.713 452.692 710.369 426.665 713.369 423.524C713.369 423.524 722.687 419.903 727.944 419.728C727.944 419.728 726.636 426.266 731.392 426.732C736.716 426.469 737.034 422.53 737.891 420.103" fill="#000446"/>
<path fill-rule="evenodd" clip-rule="evenodd" d="M727.469 419.736L727.852 425.278L730.346 476.286L721.083 435.75L724.408 431.499L721.914 428.311L723.153 420.501C724.193 420.19 725.384 419.736 727.469 419.736" fill="#6D6E9B"/>
<path fill-rule="evenodd" clip-rule="evenodd" d="M738.905 419.736L737.972 424.747L730.346 476.286L743.143 436.393L740.27 431.634L743.062 428.879L742.727 420.603C741.912 420.396 739.759 419.736 738.905 419.736Z" fill="#6D6E9B"/>
<path fill-rule="evenodd" clip-rule="evenodd" d="M726.287 419.737C725.115 430.981 729.33 463.993 730.346 476.286C730.654 475.319 738.897 428.404 739.698 419.737H731.697C729.889 419.737 727.832 419.456 726.287 419.737" fill="white"/>
<path fill-rule="evenodd" clip-rule="evenodd" d="M727.879 451.654C728.74 460.478 729.949 471.355 730.345 476.286L730.486 475.643L731.06 473.037C731.834 468.938 733.332 460.04 734.682 451.805L732.845 432.597L734.01 429.39L731.825 426.733L729.657 429.45L730.866 432.54L727.879 451.654V451.654Z" fill="#FF0066"/>
<path d="M748.006 446.603H741.983V447.929H748.006V446.603Z" fill="#6D6E9B"/>
<path d="M738.32 411.894C737.517 413.004 737.59 414.799 737.647 416.123C737.702 417.349 737.684 418.601 737.793 419.818L737.835 420.269C737.017 422.705 736.597 426.475 731.393 426.732C726.642 426.266 727.941 419.745 727.944 419.729C728.078 419.294 728.161 418.858 728.176 418.374C728.192 417.89 728.126 417.534 728.026 417.075C727.961 416.772 727.669 415.932 727.847 416L738.32 411.894V411.894Z" fill="#F7AAAC"/>
<path d="M722.679 396.119C722.679 396.119 717.436 415.204 725.965 417.605C725.965 417.605 733.385 419.475 737.748 412.251C737.748 412.251 744.033 408.111 740.534 404.684C740.534 404.684 739.318 403.685 738.034 404.684L739.534 397.117L733.821 391.907L726.822 390.836L722.679 396.119V396.119Z" fill="#F7AAAC"/>
<path d="M738.748 405.184C738.652 405.384 737.888 407.767 737.591 407.712C737.151 407.631 737.308 406.434 737.307 406.117C739.184 394.171 722.172 408.387 719.083 397.765C718.635 394.885 723.304 389.956 729.821 389.299C733.335 388.945 738.714 389.184 740.164 394.507C744.656 395.97 743.628 405.721 740.835 405.47C740.272 405.418 739.348 404.777 738.845 405.407C738.92 405.371 738.967 405.289 739.034 405.256L738.748 405.184V405.184Z" fill="#000446"/>
<path d="M685.835 485.449C685.835 485.449 685.179 484.763 685.037 484.323C685.037 484.323 684.842 483.504 684.667 482.929C684.611 482.748 684.558 482.59 684.513 482.492C684.327 482.082 683.794 481.238 683.623 480.128C683.45 479.019 682.966 474.04 682.966 474.04L686.152 474.573C689.354 473.897 693.055 475.867 693.921 479.004C693.947 479.103 693.97 479.202 693.985 479.296C694.138 480.179 693.881 480.9 693.909 481.372C693.918 481.546 693.892 483.276 693.489 483.601C692.929 484.051 692.358 484.136 691.89 483.986C691.89 483.986 690.755 484.819 689.808 484.769C689.808 484.769 688.787 485.571 687.626 485.174C687.626 485.174 686.498 485.871 685.835 485.449" fill="#F7AAAC"/>
<path d="M612.143 487.113C612.308 488.448 613.362 489.721 613.054 491.018C612.828 491.965 612.695 492.712 612.772 493.692C612.832 494.457 612.677 497.646 614.007 497.589C614.156 497.583 614.265 497.532 614.371 497.416C614.619 498 615.521 497.459 615.839 497.262C616.148 497.815 617.152 497.412 617.429 497.065C617.805 497.993 620.791 496.663 620.166 495.707C620.888 495.023 620.521 494.949 620.352 494.186C620.478 494.091 618.797 488.399 618.559 487.95C618.2 487.271 617.643 486.701 617.676 485.909L612.143 487.113V487.113Z" fill="#F7AAAC"/>
<path d="M630.178 581.597C630.178 581.597 632.2 584.048 634.157 585.114C636.113 586.182 639.187 586.604 640.345 587.71C641.179 588.508 643.386 591.943 635.261 591.872C627.136 591.802 623.218 592.356 622.348 591.039C621.477 589.725 622.761 580.869 622.761 580.869C622.761 580.869 625.531 582.02 630.178 581.597" fill="#000446"/>
<path d="M660.271 582.764C660.271 582.764 660.512 585.461 662.583 586.589C664.654 587.721 672.277 588.647 673.502 589.819C674.386 590.664 675.857 594.063 663.752 593.745C655.152 593.519 651.001 594.257 650.079 592.863C649.157 591.471 649.853 582.983 649.853 582.983C649.853 582.983 655.233 583.263 660.271 582.764" fill="#000446"/>
<path d="M623.758 474.479C623.758 474.479 620.361 484.565 620.808 493.256C621.256 501.948 625.589 516.631 624.688 525.71C623.683 535.832 622.359 554.737 622.21 560.151C622.061 565.564 622.848 582.854 622.848 582.854L631.077 583.045C636.075 552.753 643.952 530.052 646.64 499.2C646.939 495.779 623.758 474.479 623.758 474.479" fill="#000446"/>
<path d="M658.355 476.273C658.355 476.273 662.875 500.096 663.473 505.415C664.069 510.735 662.71 531.159 663.009 534.484C663.307 537.809 658.849 578.62 660.439 583.56H649.919C646.927 557.362 648.932 526.738 638.415 502.927C634.387 493.809 626.235 491.398 623.759 474.479C623.759 474.479 655.003 470.907 658.355 476.273" fill="#000446"/>
<path d="M636.607 393.948C636.607 393.948 645.499 390.629 649.601 397.394C650.627 399.087 652.226 399.352 652.195 401.649C652.171 403.374 653.316 408.101 653.365 410.316C653.383 411.156 652.237 411.23 652.178 412.055C651.867 416.354 650.802 418.633 648.824 419.367C644.341 421.033 637.607 420.162 635.312 415.929C633.017 411.696 630.945 405.577 631.044 401.487C631.144 397.397 634.272 395.129 636.607 393.948" fill="#F7AAAC"/>
<path d="M647.33 418.952C647.33 418.952 646.971 421.281 647.564 422.428C648.158 423.577 636.379 423.606 636.379 423.606C636.379 423.606 635.422 417.364 633.61 412.091C631.797 406.817 647.33 418.952 647.33 418.952" fill="#F7AAAC"/>
<path d="M637.809 415.937C640.257 415.554 642.776 415.658 644.609 413.641C645.26 412.923 646.131 407.621 646.495 407.495C647.88 407.01 648.887 410.467 648.887 410.467C649.794 409.368 657.11 399.838 652.908 394.207C652.632 393.837 652.271 394.555 651.167 394.615C650.17 394.67 648.347 392.686 647.964 392.505C639.205 388.365 623.558 394.928 632.61 412.614C633.878 415.091 634.633 416.436 637.809 415.937" fill="#000446"/>
<path d="M648.264 422.291C648.264 422.291 648.227 420.098 647.233 419.888C646.238 419.678 635.617 418.988 634.396 419.467L634.262 422.257C634.262 422.257 637.387 423.198 648.264 422.291Z" fill="#D0D2D3"/>
<path d="M648.181 408.745C647.995 407.966 645.74 404.897 644.981 407.282C644.221 409.666 646.128 412.873 647.191 412.599C648.255 412.324 648.653 410.72 648.181 408.745Z" fill="#F7AAAC"/>
<path d="M647.844 421.291C651.991 422.78 656.65 424.281 659.5 425.676C663.433 427.602 667.53 445.809 672.799 458.457C676.755 467.95 683.241 471.996 685.723 476.452C686.054 477.047 685.39 484.247 684.86 483.983C684.33 483.718 665.516 469.921 664.655 467.999C664.655 467.999 659.132 457.308 658.998 454.99C658.998 454.99 658.964 457.969 658.699 459.824C658.434 461.679 663.092 497.701 662.959 498.695C662.827 499.689 641.788 500.951 633.368 500.024C624.948 499.097 618.153 497.161 618.153 497.161C622.023 480.557 623.339 474.641 622.202 451.739L615.944 462.856L619.565 488.401L612.073 491.306C612.073 491.306 607.131 464.371 606.602 462.118C606.071 459.866 607.402 456.996 608.264 455.141C611.658 447.836 618.941 429.199 623.379 424.157C627.908 422.305 635.507 420.788 635.507 420.788L647.844 421.291V421.291Z" fill="#000446"/>
<path d="M115.51 461.72H46.6904V470.542H115.51V461.72Z" fill="#FC8600"/>
<path d="M55.411 461.72H46.6904V470.542H55.411V461.72Z" fill="#FC8600"/>
<path d="M64.2367 461.72H55.4111V470.542H64.2367V461.72Z" fill="#FFD115"/>
<path d="M95.9672 461.72H64.2363V470.542H95.9672V461.72Z" fill="#FC8600"/>
<path d="M109.312 461.72H95.9678V470.542H109.312V461.72Z" fill="#F85C24"/>
<path d="M112.252 470.542H50.0508V471.383H112.252V470.542Z" fill="#F85C24"/>
<path d="M115.511 471.383H46.6904V480.205H115.511V471.383Z" fill="#FC8600"/>
<path d="M55.4114 471.383H46.6904V480.205H55.4114V471.383Z" fill="#FC8600"/>
<path d="M64.2367 471.383H55.4111V480.205H64.2367V471.383Z" fill="#FFD115"/>
<path d="M95.9672 471.383H64.2363V480.205H95.9672V471.383Z" fill="#FC8600"/>
<path d="M109.312 471.383H95.9678V480.205H109.312V471.383Z" fill="#F85C24"/>
<path d="M112.252 480.205H50.0508V481.045H112.252V480.205Z" fill="#F85C24"/>
<path d="M115.51 481.045H46.6904V489.867H115.51V481.045Z" fill="#FC8600"/>
<path d="M55.411 481.045H46.6904V489.867H55.411V481.045Z" fill="#FC8600"/>
<path d="M64.2367 481.045H55.4111V489.867H64.2367V481.045Z" fill="#FFD115"/>
<path d="M95.9672 481.045H64.2363V489.867H95.9672V481.045Z" fill="#FC8600"/>
<path d="M109.312 481.045H95.9678V489.867H109.312V481.045Z" fill="#F85C24"/>
<path d="M112.252 489.867H50.0508V490.708H112.252V489.867Z" fill="#F85C24"/>
<path d="M115.51 490.708H46.6904V499.53H115.51V490.708Z" fill="#FC8600"/>
<path d="M55.411 490.708H46.6904V499.53H55.411V490.708Z" fill="#FC8600"/>
<path d="M64.2367 490.708H55.4111V499.53H64.2367V490.708Z" fill="#FFD115"/>
<path d="M95.9672 490.708H64.2363V499.53H95.9672V490.708Z" fill="#FC8600"/>
<path d="M109.312 490.708H95.9678V499.53H109.312V490.708Z" fill="#F85C24"/>
<path d="M112.252 499.53H50.0508V500.37H112.252V499.53Z" fill="#F85C24"/>
<path d="M115.51 500.37H46.6904V509.192H115.51V500.37Z" fill="#FC8600"/>
<path d="M55.411 500.37H46.6904V509.192H55.411V500.37Z" fill="#FC8600"/>
<path d="M64.2367 500.37H55.4111V509.192H64.2367V500.37Z" fill="#FFD115"/>
<path d="M95.9672 500.37H64.2363V509.192H95.9672V500.37Z" fill="#FC8600"/>
<path d="M109.312 500.37H95.9678V509.192H109.312V500.37Z" fill="#F85C24"/>
<path d="M112.252 509.192H50.0508V510.033H112.252V509.192Z" fill="#F85C24"/>
<path d="M115.51 510.033H46.6904V518.855H115.51V510.033Z" fill="#FC8600"/>
<path d="M55.411 510.033H46.6904V518.855H55.411V510.033Z" fill="#FC8600"/>
<path d="M64.2367 510.033H55.4111V518.855H64.2367V510.033Z" fill="#FFD115"/>
<path d="M95.9672 510.033H64.2363V518.855H95.9672V510.033Z" fill="#FC8600"/>
<path d="M109.312 510.033H95.9678V518.855H109.312V510.033Z" fill="#F85C24"/>
<path d="M112.252 518.855H50.0508V519.696H112.252V518.855Z" fill="#F85C24"/>
<path d="M115.51 519.696H46.6904V528.517H115.51V519.696Z" fill="#FC8600"/>
<path d="M55.411 519.696H46.6904V528.517H55.411V519.696Z" fill="#FC8600"/>
<path d="M64.2367 519.696H55.4111V528.517H64.2367V519.696Z" fill="#FFD115"/>
<path d="M95.9672 519.696H64.2363V528.517H95.9672V519.696Z" fill="#FC8600"/>
<path d="M109.312 519.696H95.9678V528.517H109.312V519.696Z" fill="#F85C24"/>
<path d="M112.252 528.517H50.0508V529.358H112.252V528.517Z" fill="#F85C24"/>
<path d="M115.51 529.358H46.6904V538.18H115.51V529.358Z" fill="#FC8600"/>
<path d="M55.411 529.358H46.6904V538.18H55.411V529.358Z" fill="#FC8600"/>
<path d="M64.2367 529.358H55.4111V538.18H64.2367V529.358Z" fill="#FFD115"/>
<path d="M95.9672 529.358H64.2363V538.18H95.9672V529.358Z" fill="#FC8600"/>
<path d="M109.312 529.358H95.9678V538.18H109.312V529.358Z" fill="#F85C24"/>
<path d="M112.252 538.18H50.0508V539.021H112.252V538.18Z" fill="#F85C24"/>
<path d="M115.51 539.021H46.6904V547.842H115.51V539.021Z" fill="#FC8600"/>
<path d="M55.411 539.021H46.6904V547.842H55.411V539.021Z" fill="#FC8600"/>
<path d="M64.2367 539.021H55.4111V547.842H64.2367V539.021Z" fill="#FFD115"/>
<path d="M95.9672 539.021H64.2363V547.842H95.9672V539.021Z" fill="#FC8600"/>
<path d="M109.312 539.021H95.9678V547.842H109.312V539.021Z" fill="#F85C24"/>
<path d="M112.252 547.842H50.0508V548.683H112.252V547.842Z" fill="#F85C24"/>
<path d="M115.51 548.683H46.6904V557.505H115.51V548.683Z" fill="#FC8600"/>
<path d="M55.411 548.683H46.6904V557.505H55.411V548.683Z" fill="#FC8600"/>
<path d="M64.2367 548.683H55.4111V557.505H64.2367V548.683Z" fill="#FFD115"/>
<path d="M95.9672 548.683H64.2363V557.505H95.9672V548.683Z" fill="#FC8600"/>
<path d="M109.312 548.683H95.9678V557.505H109.312V548.683Z" fill="#F85C24"/>
<path d="M112.252 557.505H50.0508V558.346H112.252V557.505Z" fill="#F85C24"/>
<path d="M115.51 558.346H46.6904V567.168H115.51V558.346Z" fill="#FC8600"/>
<path d="M55.411 558.346H46.6904V567.168H55.411V558.346Z" fill="#FC8600"/>
<path d="M64.2367 558.346H55.4111V567.168H64.2367V558.346Z" fill="#FFD115"/>
<path d="M95.9672 558.346H64.2363V567.168H95.9672V558.346Z" fill="#FC8600"/>
<path d="M109.312 558.346H95.9678V567.168H109.312V558.346Z" fill="#F85C24"/>
<path d="M112.252 567.167H50.0508V568.009H112.252V567.167Z" fill="#F85C24"/>
<path d="M90.0457 532.581C93.9516 509.426 78.3391 487.491 55.1743 483.586C32.0093 479.682 10.0642 495.288 6.1584 518.443C2.2524 541.598 17.8646 563.533 41.0295 567.438C64.1946 571.342 86.1397 555.736 90.0457 532.581" fill="#F85C24"/>
<path d="M84.4859 532.581C88.3919 509.426 72.7795 487.491 49.6147 483.586C26.4497 479.682 4.50481 495.288 0.598812 518.443C-3.30714 541.598 12.3052 563.533 35.47 567.438C58.635 571.342 80.5801 555.736 84.4859 532.581" fill="#FBCA0D"/>
<path d="M84.4859 532.581C84.5066 532.46 84.5232 532.338 84.5427 532.217L0.664715 518.08C0.643245 518.201 0.619324 518.321 0.598812 518.443C-3.30714 541.598 12.3052 563.533 35.47 567.438C58.635 571.342 80.5801 555.736 84.4859 532.581" fill="#FFDD26"/>
<path d="M76.5219 531.239C79.6861 512.48 67.0379 494.709 48.2714 491.547C29.5051 488.384 11.7265 501.026 8.56229 519.785C5.39785 538.543 18.0459 556.314 36.8126 559.477C55.5789 562.64 73.3575 549.997 76.5219 531.239" fill="#FFC801"/>
<path fill-rule="evenodd" clip-rule="evenodd" d="M28.2839 513.757C28.1456 514.667 28.1207 515.702 28.1677 516.68L28.1256 516.8C28.278 517.023 28.5562 518.709 28.7089 519.159C28.9652 519.912 29.4466 520.632 29.6263 521.218C29.7648 521.315 30.5373 522.394 30.7279 522.618C31.1789 523.146 31.4921 523.31 32.0335 523.831C32.5602 524.181 33.0294 524.57 33.6703 524.977C35.3851 526.067 37.2675 526.94 39.2332 527.64C41.7603 528.54 45.2042 529.749 46.5035 531.431C48.3266 533.792 47.0366 537.194 43.2873 537.74C41.1412 538.054 37.8474 537.876 35.6583 537.349C34.9642 537.181 34.2561 536.919 33.5651 536.752C32.9414 536.477 30.5765 535.625 30.267 535.332L29.665 535.183C29.6295 535.458 29.5969 535.688 29.4265 535.917C29.4949 536.268 29.2296 537.221 29.0808 537.517C29.039 537.795 28.2932 541.01 28.0452 541.369C28.0698 541.676 27.9552 542.513 27.9512 542.973C28.1136 543.077 27.9797 542.979 28.1422 543.1L28.4583 543.395C28.7535 543.414 29.8617 543.835 30.0849 544.009L33.8297 545.079L35.5705 545.436L38.2027 545.777C38.4519 545.747 38.463 545.731 38.74 545.781C38.7477 545.783 38.914 545.833 38.9383 545.842C39.1208 545.917 39.0269 545.878 39.086 545.935L39.1873 546.204C39.2632 546.68 39.0825 551.155 39.2259 552.113L45.7618 552.111C45.8946 550.128 45.8246 547.816 45.8382 545.824C45.8431 545.12 45.985 545.28 46.6574 545.122C48.4838 544.692 49.2979 544.171 50.3383 543.893C50.5358 543.71 51.7739 543.117 52.1619 542.861C52.4688 542.658 52.7393 542.491 53.024 542.261C53.3422 542.005 53.5113 541.804 53.799 541.691C53.9523 541.403 55.2211 540.237 56.2116 538.501C57.5819 536.099 57.2301 535.122 57.6034 534.285V531.562C57.4422 531.154 57.4732 530.46 57.3793 529.981C56.7935 527.001 54.4317 524.429 51.9477 522.884C47.5918 520.175 38.9085 518.579 38.4353 514.851C38.1629 512.708 40.017 511.491 41.7607 511.075C43.789 510.592 46.3788 510.776 48.338 511.205C49.7505 511.514 53.6524 512.917 53.7635 512.921C54.0752 512.526 53.9916 512.077 54.2611 511.768C54.2488 511.328 54.457 510.677 54.6064 510.283C54.7618 509.348 55.7006 506.215 55.5931 505.44C54.8595 504.939 54.4619 505.003 54.0862 504.69L54.0373 504.722C53.6141 504.627 52.1466 504.31 51.8816 504.055C51.4779 504.141 49.8178 503.685 49.2227 503.587C48.6438 503.492 46.776 503.414 46.4643 503.231C45.7721 502.824 46.2381 499.017 46.0763 497.398H39.5247C39.4355 498.599 39.7137 503.028 39.3181 503.697C38.7749 504.298 30.1802 504.838 28.2839 513.757" fill="#F85C24"/>
<path d="M72.8732 503.942C78.3963 511.702 80.9581 521.567 79.2498 531.695C77.5406 541.828 71.8841 550.31 64.1208 555.83C56.3575 561.351 46.4886 563.912 36.3557 562.204C26.2188 560.495 17.7335 554.841 12.2108 547.081C6.68767 539.321 4.12567 529.457 5.8342 519.328C7.54359 509.196 13.2003 500.714 20.9636 495.193C28.7267 489.673 38.5956 487.112 48.728 488.82C58.8652 490.528 67.3505 496.182 72.8732 503.942M75.844 531.128C77.395 521.933 75.0721 512.981 70.062 505.942C65.0525 498.903 57.3556 493.774 48.1607 492.224C38.9611 490.674 30.0056 492.996 22.9635 498.003C15.9217 503.011 10.7906 510.704 9.23996 519.895C7.68899 529.091 10.0121 538.043 15.022 545.082C20.0314 552.121 27.7282 557.25 36.9231 558.799C46.1227 560.35 55.0789 558.028 62.1205 553.02C69.1625 548.013 74.2939 540.319 75.844 531.128V531.128Z" fill="#F85C24"/>
<path d="M75.8441 531.128C77.3663 522.104 75.1571 513.314 70.3391 506.337L73.2811 504.528C78.5211 512.196 80.9156 521.82 79.2499 531.695C77.5407 541.828 71.8842 550.31 64.1209 555.83C56.3576 561.351 46.4887 563.912 36.3558 562.204C32.4071 561.538 28.709 560.274 25.3389 558.52L26.8388 555.409C29.9205 557.026 33.3058 558.19 36.9232 558.8C46.1227 560.35 55.079 558.028 62.1206 553.02C69.1626 548.013 74.294 540.319 75.8441 531.128" fill="white"/>
<path d="M173.66 500.37H104.84V509.192H173.66V500.37Z" fill="#FC8600"/>
<path d="M113.56 500.37H104.84V509.192H113.56V500.37Z" fill="#FC8600"/>
<path d="M122.386 500.37H113.561V509.192H122.386V500.37Z" fill="#FFD115"/>
<path d="M154.117 500.37H122.386V509.192H154.117V500.37Z" fill="#FC8600"/>
<path d="M167.461 500.37H154.117V509.192H167.461V500.37Z" fill="#F85C24"/>
<path d="M170.401 509.192H108.2V510.033H170.401V509.192Z" fill="#F85C24"/>
<path d="M179.709 510.033H110.889V518.855H179.709V510.033Z" fill="#FC8600"/>
<path d="M119.609 510.033H110.889V518.855H119.609V510.033Z" fill="#FC8600"/>
<path d="M128.435 510.033H119.609V518.855H128.435V510.033Z" fill="#FFD115"/>
<path d="M160.167 510.033H128.436V518.855H160.167V510.033Z" fill="#FC8600"/>
<path d="M173.51 510.033H160.166V518.855H173.51V510.033Z" fill="#F85C24"/>
<path d="M176.45 518.855H114.249V519.696H176.45V518.855Z" fill="#F85C24"/>
<path d="M173.66 519.696H104.84V528.517H173.66V519.696Z" fill="#FC8600"/>
<path d="M113.56 519.696H104.84V528.517H113.56V519.696Z" fill="#FC8600"/>
<path d="M122.386 519.696H113.561V528.517H122.386V519.696Z" fill="#FFD115"/>
<path d="M154.117 519.696H122.386V528.517H154.117V519.696Z" fill="#FC8600"/>
<path d="M167.461 519.696H154.117V528.517H167.461V519.696Z" fill="#F85C24"/>
<path d="M170.401 528.517H108.2V529.358H170.401V528.517Z" fill="#F85C24"/>
<path d="M173.66 529.358H104.84V538.18H173.66V529.358Z" fill="#FC8600"/>
<path d="M113.56 529.358H104.84V538.18H113.56V529.358Z" fill="#FC8600"/>
<path d="M122.386 529.358H113.561V538.18H122.386V529.358Z" fill="#FFD115"/>
<path d="M154.117 529.358H122.386V538.18H154.117V529.358Z" fill="#FC8600"/>
<path d="M167.461 529.358H154.117V538.18H167.461V529.358Z" fill="#F85C24"/>
<path d="M170.401 538.18H108.2V539.021H170.401V538.18Z" fill="#F85C24"/>
<path d="M173.66 539.021H104.84V547.842H173.66V539.021Z" fill="#FC8600"/>
<path d="M113.56 539.021H104.84V547.842H113.56V539.021Z" fill="#FC8600"/>
<path d="M122.386 539.021H113.561V547.842H122.386V539.021Z" fill="#FFD115"/>
<path d="M154.117 539.021H122.386V547.842H154.117V539.021Z" fill="#FC8600"/>
<path d="M167.461 539.021H154.117V547.842H167.461V539.021Z" fill="#F85C24"/>
<path d="M170.401 547.842H108.2V548.683H170.401V547.842Z" fill="#F85C24"/>
<path d="M173.66 548.683H104.84V557.505H173.66V548.683Z" fill="#FC8600"/>
<path d="M113.56 548.683H104.84V557.505H113.56V548.683Z" fill="#FC8600"/>
<path d="M122.386 548.683H113.561V557.505H122.386V548.683Z" fill="#FFD115"/>
<path d="M154.117 548.683H122.386V557.505H154.117V548.683Z" fill="#FC8600"/>
<path d="M167.461 548.683H154.117V557.505H167.461V548.683Z" fill="#F85C24"/>
<path d="M170.401 557.505H108.2V558.346H170.401V557.505Z" fill="#F85C24"/>
<path d="M173.66 558.346H104.84V567.168H173.66V558.346Z" fill="#FC8600"/>
<path d="M113.56 558.346H104.84V567.168H113.56V558.346Z" fill="#FC8600"/>
<path d="M122.386 558.346H113.561V567.168H122.386V558.346Z" fill="#FFD115"/>
<path d="M154.117 558.346H122.386V567.168H154.117V558.346Z" fill="#FC8600"/>
<path d="M167.461 558.346H154.117V567.168H167.461V558.346Z" fill="#F85C24"/>
<path d="M170.401 567.167H108.2V568.009H170.401V567.167Z" fill="#F85C24"/>
<path d="M110.182 452.057H41.3623V460.879H110.182V452.057Z" fill="#FC8600"/>
<path d="M50.0829 452.057H41.3623V460.879H50.0829V452.057Z" fill="#FC8600"/>
<path d="M58.9088 452.057H50.083V460.879H58.9088V452.057Z" fill="#FFD115"/>
<path d="M90.6401 452.057H58.9092V460.879H90.6401V452.057Z" fill="#FC8600"/>
<path d="M103.983 452.057H90.6396V460.879H103.983V452.057Z" fill="#F85C24"/>
<path d="M106.924 460.879H44.7227V461.72H106.924V460.879Z" fill="#F85C24"/>
<path d="M115.51 442.395H46.6904V451.217H115.51V442.395Z" fill="#FC8600"/>
<path d="M55.411 442.395H46.6904V451.217H55.411V442.395Z" fill="#FC8600"/>
<path d="M64.2367 442.395H55.4111V451.217H64.2367V442.395Z" fill="#FFD115"/>
<path d="M95.9672 442.395H64.2363V451.217H95.9672V442.395Z" fill="#FC8600"/>
<path d="M109.312 442.395H95.9678V451.217H109.312V442.395Z" fill="#F85C24"/>
<path d="M112.252 451.217H50.0508V452.057H112.252V451.217Z" fill="#F85C24"/>
<path d="M643.473 49.4232H634.131V63.563H643.473V49.4232Z" fill="#2299F4"/>
<path d="M658.565 35.543H649.223V63.563H658.565V35.543Z" fill="#2299F4"/>
<path d="M673.657 31.2125H664.315V63.5629H673.657V31.2125Z" fill="#2299F4"/>
<path d="M688.749 36.1787H679.407V63.563H688.749V36.1787Z" fill="#2299F4"/>
<path d="M703.841 22.5513H694.499V63.563H703.841V22.5513Z" fill="#2299F4"/>
<path d="M718.934 26.7542H709.592V63.563H718.934V26.7542Z" fill="#2299F4"/>
<path d="M734.026 5.86609H724.684V63.563H734.026V5.86609Z" fill="#2299F4"/>
<path d="M740.946 69.2877H628.309V71.4537H740.946V69.2877Z" fill="#93C1E7"/>
<path d="M675.81 10.6765L635.79 31.1556L636.668 32.8693L675.846 12.8202L681.046 22.5015L717.69 3.18L718.405 4.53495L721.656 0L716.076 0.121873L716.791 1.47689L681.839 19.9065L676.65 10.2462L675.81 10.6765Z" fill="#2299F4"/>
</g>
<defs>
<linearGradient id="paint0_linear_116_980" x1="554.41" y1="560.597" x2="554.408" y2="486.543" gradientUnits="userSpaceOnUse">
<stop stop-color="#00A551"/>
<stop offset="1" stop-color="#A0CC3A"/>
</linearGradient>
<linearGradient id="paint1_linear_116_980" x1="550.637" y1="572.081" x2="550.637" y2="536.833" gradientUnits="userSpaceOnUse">
<stop stop-color="#00A551"/>
<stop offset="0.03527" stop-color="#0AA74F"/>
<stop offset="0.19906" stop-color="#38B248"/>
<stop offset="0.3638" stop-color="#5DBB43"/>
<stop offset="0.52702" stop-color="#7AC23F"/>
<stop offset="0.68841" stop-color="#8FC73C"/>
<stop offset="0.84708" stop-color="#9BCA3A"/>
<stop offset="1" stop-color="#A0CC3A"/>
</linearGradient>
<clipPath id="clip0_116_980">
<rect width="937" height="610" fill="white"/>
</clipPath>
</defs>
</svg>
