<svg width="39" height="51" viewBox="0 0 39 51" fill="none" xmlns="http://www.w3.org/2000/svg">
<path d="M19.6546 16.6723C20.0311 16.6713 20.396 16.8407 20.686 17.1512L30.3568 27.565C30.686 27.9186 30.8931 28.4266 30.9325 28.9775C30.972 29.5284 30.8405 30.0769 30.5672 30.5025C30.2938 30.928 29.9009 31.1957 29.4748 31.2466C29.0487 31.2975 28.6245 31.1275 28.2953 30.774L19.656 21.4432L11.022 30.4457C10.8573 30.6188 10.6677 30.7481 10.4641 30.8261C10.2606 30.9042 10.0471 30.9294 9.83595 30.9005C9.62481 30.8715 9.42018 30.7888 9.23382 30.6573C9.04745 30.5257 8.88303 30.3478 8.75 30.1339C8.60237 29.9197 8.49054 29.6684 8.42151 29.3958C8.35248 29.1232 8.32773 28.835 8.34883 28.5495C8.36992 28.2639 8.4364 27.9871 8.54409 27.7363C8.65179 27.4855 8.79838 27.2662 8.97469 27.0921L18.6396 17.0268C18.9377 16.7652 19.2951 16.6404 19.6546 16.6723Z" fill="#808080"/>
</svg>
