<svg width="45" height="45" viewBox="0 0 45 45" fill="none" xmlns="http://www.w3.org/2000/svg">
<g clip-path="url(#clip0_38_813)">
<path d="M31.6392 11.4518H17.5974C17.2331 11.4518 16.9378 11.7472 16.9378 12.1115C16.9378 12.4758 17.2331 12.7711 17.5974 12.7711H31.6391C32.0034 12.7711 32.2988 12.4758 32.2988 12.1115C32.2988 11.7471 32.0035 11.4518 31.6392 11.4518Z" fill="#CB1F45"/>
<path d="M14.5281 11.4518H12.3039C11.9396 11.4518 11.6443 11.7472 11.6443 12.1115C11.6443 12.4758 11.9395 12.7711 12.3039 12.7711H14.5281C14.8924 12.7711 15.1877 12.4758 15.1877 12.1115C15.1877 11.7472 14.8924 11.4518 14.5281 11.4518Z" fill="#CB1F45"/>
<path d="M19.2032 31.6707H12.3039C11.9396 31.6707 11.6443 31.966 11.6443 32.3303C11.6443 32.6947 11.9396 32.9899 12.3039 32.9899H19.2032C19.5676 32.9899 19.8629 32.6946 19.8629 32.3303C19.8629 31.9659 19.5676 31.6707 19.2032 31.6707Z" fill="#CB1F45"/>
<path d="M21.9715 24.9311H12.3039C11.9396 24.9311 11.6443 25.2264 11.6443 25.5907C11.6443 25.9551 11.9396 26.2503 12.3039 26.2503H21.9715C22.3358 26.2503 22.6312 25.955 22.6312 25.5907C22.6312 25.2263 22.3359 24.9311 21.9715 24.9311Z" fill="#CB1F45"/>
<path d="M26.6775 18.1913H12.3039C11.9396 18.1913 11.6443 18.4867 11.6443 18.851C11.6443 19.2153 11.9396 19.5106 12.3039 19.5106H26.6775C27.0418 19.5107 27.3371 19.2154 27.3371 18.851C27.3371 18.4866 27.0418 18.1913 26.6775 18.1913Z" fill="#CB1F45"/>
<path d="M39.1609 4.70306H11.8999C9.48515 4.70306 7.5207 6.6676 7.5207 9.08231V35.0368H0.659508C0.483463 35.0368 0.314624 35.1072 0.190786 35.2323C0.0668601 35.3574 -0.00187051 35.5269 -2.47991e-05 35.7029C0.0259909 38.3221 1.90817 40.2971 4.37808 40.2971H31.6392H31.7222C34.1369 40.2971 36.1014 38.3325 36.1014 35.9178V27.9248C36.1014 27.5605 35.806 27.2652 35.4417 27.2652C35.0774 27.2652 34.7821 27.5606 34.7821 27.9249V35.9179C34.7821 37.6052 33.4094 38.9778 31.7222 38.9778H31.6392C29.914 38.9778 28.5989 37.5643 28.5803 35.6899C28.5767 35.3282 28.2824 35.0368 27.9207 35.0368H8.84029V9.08222C8.84029 7.3949 10.213 6.0223 11.9001 6.0223H36.0312C36.0119 6.04208 35.9936 6.06282 35.9746 6.08304C35.9516 6.10756 35.9283 6.13182 35.9058 6.15678C35.882 6.18323 35.8591 6.21039 35.836 6.23746C35.8137 6.26339 35.7913 6.28905 35.7697 6.31551C35.7473 6.34293 35.7258 6.37106 35.704 6.399C35.6829 6.42608 35.6617 6.45288 35.6412 6.48048C35.6203 6.50878 35.6002 6.5377 35.5799 6.56652C35.56 6.59483 35.5398 6.62295 35.5204 6.65169C35.501 6.68078 35.4825 6.71049 35.4637 6.74011C35.445 6.76955 35.426 6.79873 35.408 6.82862C35.3899 6.85867 35.3729 6.88935 35.3555 6.91985C35.3382 6.95017 35.3205 6.98031 35.3039 7.01116C35.2872 7.04201 35.2717 7.07357 35.2558 7.10494C35.2399 7.13623 35.2235 7.16726 35.2084 7.1989C35.1932 7.23072 35.1792 7.26315 35.1647 7.29532C35.1503 7.3274 35.1355 7.35921 35.1218 7.39164C35.108 7.42443 35.0956 7.45783 35.0826 7.49096C35.0697 7.52366 35.0564 7.55609 35.0444 7.58913C35.032 7.62306 35.021 7.6576 35.0095 7.69197C34.9984 7.72501 34.9868 7.75771 34.9764 7.79111C34.9655 7.82626 34.9561 7.86204 34.9461 7.89763C34.9367 7.93085 34.9267 7.96381 34.9181 7.99739C34.9087 8.0343 34.9008 8.07174 34.8923 8.10901C34.8848 8.14179 34.8765 8.1744 34.8699 8.20745C34.8619 8.24621 34.8557 8.2854 34.8489 8.32452C34.8432 8.35686 34.8367 8.38885 34.8318 8.42137C34.8255 8.46312 34.8209 8.5054 34.8157 8.5475C34.812 8.57791 34.8074 8.60796 34.8043 8.63855C34.7995 8.68566 34.7966 8.7333 34.7934 8.78085C34.7916 8.80695 34.7888 8.83288 34.7875 8.85907C34.7838 8.93298 34.7819 9.00743 34.7819 9.08231V9.30371V14.9369C34.7819 15.3013 35.0772 15.5965 35.4415 15.5965C35.8058 15.5965 36.1011 15.3012 36.1011 14.9369V9.96333H42.8866C43.0626 9.96333 43.2314 9.89293 43.3553 9.76786C43.4792 9.6427 43.5479 9.47325 43.5461 9.2972C43.5201 6.67806 41.6379 4.70306 39.1609 4.70306ZM27.307 36.3561C27.3161 36.4244 27.3266 36.492 27.3383 36.5592C27.3422 36.5817 27.3469 36.6037 27.3512 36.6261C27.3595 36.6705 27.3679 36.7149 27.3773 36.7587C27.383 36.785 27.3894 36.8108 27.3954 36.8368C27.4045 36.8763 27.4137 36.9157 27.4238 36.9547C27.4309 36.982 27.4385 37.0091 27.446 37.0362C27.4563 37.0732 27.4666 37.1102 27.4777 37.1469C27.486 37.1744 27.4947 37.2017 27.5035 37.229C27.5149 37.2647 27.5268 37.3002 27.539 37.3354C27.5484 37.3626 27.558 37.3897 27.5679 37.4165C27.5807 37.4515 27.594 37.4862 27.6076 37.5206C27.618 37.5468 27.6283 37.573 27.639 37.5989C27.6535 37.6338 27.6686 37.6683 27.6838 37.7027C27.6947 37.7274 27.7055 37.7522 27.7169 37.7766C27.7336 37.8127 27.7511 37.8482 27.7686 37.8836C27.7795 37.9056 27.79 37.9277 27.8012 37.9495C27.8227 37.9911 27.8451 38.032 27.8677 38.0727C27.8759 38.0876 27.8837 38.1027 27.892 38.1174C27.9234 38.1726 27.9558 38.2269 27.9893 38.2803C27.9972 38.2928 28.0055 38.3048 28.0134 38.3172C28.0395 38.358 28.066 38.3986 28.0933 38.4384C28.106 38.4568 28.1191 38.4747 28.132 38.4929C28.1555 38.5261 28.1791 38.5592 28.2035 38.5916C28.2182 38.6112 28.2332 38.6301 28.2482 38.6494C28.2717 38.6797 28.2955 38.7099 28.3197 38.7395C28.3357 38.7589 28.352 38.7781 28.3682 38.7972C28.3925 38.8259 28.4171 38.8542 28.4421 38.8821C28.4588 38.9009 28.4759 38.9195 28.493 38.9379C28.5052 38.9511 28.517 38.9648 28.5294 38.9778H4.37799C2.86416 38.9778 1.66612 37.8893 1.38267 36.3561H27.307ZM36.1336 8.64391C36.1339 8.63943 36.1343 8.63477 36.135 8.6302C36.1379 8.61007 36.1416 8.59012 36.1451 8.57017C36.1498 8.54205 36.1546 8.51392 36.1602 8.48597C36.1644 8.4647 36.1691 8.44361 36.1738 8.42251C36.1796 8.39632 36.1855 8.37022 36.1919 8.34429C36.1974 8.3225 36.2032 8.30079 36.209 8.27916C36.2158 8.25447 36.2228 8.22977 36.2301 8.20534C36.2366 8.18319 36.2436 8.16122 36.2507 8.13933C36.2583 8.11595 36.2662 8.09275 36.2744 8.06955C36.2823 8.04713 36.2903 8.02472 36.2987 8.00257C36.307 7.98069 36.3157 7.95907 36.3245 7.93736C36.3337 7.91451 36.3429 7.89174 36.3528 7.86915C36.3615 7.84903 36.3707 7.82916 36.3798 7.8093C36.3906 7.78583 36.4014 7.76219 36.4127 7.73908C36.4211 7.72185 36.4302 7.70497 36.439 7.68792C36.452 7.66261 36.4648 7.6373 36.4785 7.61243C36.4838 7.60276 36.4896 7.59344 36.495 7.58386C36.5559 7.47602 36.6228 7.37196 36.6959 7.27273C36.6966 7.27176 36.6972 7.27088 36.6979 7.26991C36.7215 7.2381 36.7458 7.2069 36.7705 7.17596C36.7745 7.17104 36.7782 7.16603 36.7822 7.16111C36.8064 7.13122 36.8313 7.10196 36.8565 7.07304C36.8612 7.06768 36.8659 7.06223 36.8706 7.05687C36.8963 7.02786 36.9226 6.99947 36.9494 6.97144C36.9538 6.96687 36.9581 6.96221 36.9625 6.95764C36.9903 6.92899 37.0186 6.90077 37.0474 6.87318C37.0507 6.8701 37.0539 6.86702 37.0572 6.86386C37.0876 6.83503 37.1185 6.80673 37.1502 6.77913C37.1512 6.77817 37.1524 6.77729 37.1534 6.77632C37.5574 6.42449 38.0545 6.17638 38.6031 6.07425C38.6034 6.07416 38.6037 6.07416 38.604 6.07407C38.6489 6.06572 38.6943 6.05834 38.7399 6.05201C38.7426 6.05166 38.7453 6.05131 38.748 6.05096C38.7915 6.04498 38.8353 6.03988 38.8793 6.03575C38.886 6.03514 38.8928 6.03479 38.8996 6.03426C38.9399 6.03074 38.9803 6.02775 39.0211 6.02582C39.0447 6.02477 39.0684 6.02459 39.0921 6.02398C39.1176 6.02336 39.143 6.02222 39.1687 6.02222C40.6825 6.02222 41.8806 7.11074 42.164 8.64391H36.1336Z" fill="#CB1F45"/>
<path d="M44.9994 16.8602C44.9993 16.8525 44.9991 16.8449 44.9989 16.8372C44.9962 16.7751 44.9851 16.7153 44.9663 16.6587C44.9655 16.6559 44.9651 16.653 44.9641 16.6503C44.9634 16.648 44.962 16.6459 44.9612 16.6436C44.9509 16.6147 44.9389 16.5866 44.9249 16.5597C44.9231 16.5564 44.9211 16.5533 44.9193 16.5499C44.9063 16.5262 44.8919 16.5034 44.8762 16.4816C44.8728 16.4769 44.8697 16.4721 44.8662 16.4675C44.8489 16.4446 44.8301 16.423 44.81 16.4026C44.8056 16.3981 44.8009 16.394 44.7965 16.3897C44.7775 16.3714 44.7574 16.3543 44.7363 16.3384C44.7335 16.3363 44.7309 16.3339 44.728 16.3318C44.7043 16.3146 44.6791 16.2992 44.6532 16.2851C44.6482 16.2824 44.6432 16.2799 44.6381 16.2774C44.6116 16.264 44.5845 16.2518 44.5562 16.2421C44.556 16.242 44.5558 16.2419 44.5556 16.2419C44.5274 16.2322 44.4981 16.2249 44.4684 16.219C44.4618 16.2177 44.4552 16.2166 44.4485 16.2155C44.4187 16.2106 44.3885 16.2069 44.3574 16.2061C38.8381 16.0633 31.641 17.3919 28.0025 21.5457C26.41 23.3635 25.6753 25.6697 24.9648 27.9C24.9066 28.0825 24.8485 28.265 24.7899 28.4472C24.7874 28.4548 24.785 28.4626 24.7828 28.4704L23.668 32.4298C23.5693 32.7804 23.7736 33.1448 24.1242 33.2436C24.1839 33.2604 24.2442 33.2684 24.3033 33.2684C24.5913 33.2684 24.856 33.0782 24.938 32.7872L25.9719 29.115C27.2359 28.5226 28.2536 28.2456 29.6284 27.8718C30.3416 27.6777 31.1499 27.458 32.128 27.1571C34.2427 26.5067 38.2994 23.7856 40.1664 21.7653C41.7992 19.9982 43.1732 18.6849 44.7605 17.3742C44.7623 17.3727 44.7638 17.3708 44.7656 17.3693C44.7887 17.3497 44.8107 17.3288 44.8309 17.3062C44.8321 17.3048 44.8335 17.3036 44.8347 17.3023C44.8546 17.2797 44.8727 17.2554 44.8895 17.2301C44.8926 17.2255 44.8956 17.2208 44.8986 17.2161C44.9302 17.1657 44.9552 17.1109 44.9724 17.0526C44.9741 17.047 44.9757 17.0416 44.9772 17.036C44.9848 17.0073 44.9911 16.9781 44.9949 16.9481C44.9951 16.9469 44.9951 16.9457 44.9952 16.9445C44.9976 16.9241 44.9994 16.9034 44.9999 16.8825C45.0002 16.875 44.9995 16.8676 44.9994 16.8602ZM28.9949 22.4149C30.5303 20.6621 32.8836 19.3408 35.9894 18.4879C36.8241 18.2587 37.7062 18.0685 38.6153 17.9184C36.3054 19.0386 34.0968 20.4416 32.8625 21.2661C30.8707 22.5967 28.7205 24.2109 27.1327 25.6465C27.6025 24.4562 28.1706 23.3559 28.9949 22.4149ZM39.1975 20.8699C37.3804 22.8362 33.456 25.3684 31.7403 25.896C30.7828 26.1904 29.9856 26.4073 29.2822 26.5986C28.6458 26.7716 28.0669 26.9293 27.4944 27.1111C27.7505 26.8658 28.0507 26.5908 28.4046 26.282C29.829 25.0396 31.6724 23.6478 33.5954 22.3632C36.9249 20.139 39.9379 18.5777 42.1485 17.9008C41.1884 18.785 40.2441 19.737 39.1975 20.8699Z" fill="#CB1F45"/>
</g>
<defs>
<clipPath id="clip0_38_813">
<rect width="45" height="45" fill="white"/>
</clipPath>
</defs>
</svg>
