<svg width="60" height="60" viewBox="0 0 60 60" fill="none" xmlns="http://www.w3.org/2000/svg">
<g clip-path="url(#clip0_24_3822)">
<path d="M23.6728 42.0471C23.4462 42.0471 23.2179 41.9692 23.0316 41.8105L16.6217 36.3525C16.4006 36.164 16.2734 35.8887 16.2734 35.5979C16.2734 35.3077 16.4011 35.0324 16.6217 34.8439L23.0316 29.3859C23.4479 29.031 24.073 29.0813 24.4279 29.4975C24.7822 29.9143 24.7325 30.5395 24.3157 30.8938L18.7919 35.5979L24.3157 40.302C24.7325 40.6569 24.7822 41.2821 24.4279 41.6983C24.2317 41.9288 23.9531 42.0471 23.6728 42.0471Z" fill="white"/>
<path d="M36.327 42.0471C36.0467 42.0471 35.7681 41.9288 35.5725 41.6983C35.2176 41.2821 35.2679 40.6569 35.6841 40.302L41.208 35.5979L35.6841 30.8938C35.2679 30.5395 35.2176 29.9143 35.5725 29.4975C35.9268 29.0813 36.5525 29.031 36.9682 29.3859L43.3781 34.8439C43.5993 35.0324 43.7264 35.3077 43.7264 35.5979C43.7264 35.8887 43.5993 36.164 43.3781 36.3525L36.9682 41.8105C36.7819 41.9692 36.5536 42.0471 36.327 42.0471Z" fill="white"/>
<path d="M27.7309 46.1409C27.6629 46.1409 27.5944 46.1337 27.5253 46.1194C26.9902 46.0066 26.6475 45.4809 26.7602 44.9458L30.7551 25.9786C30.8679 25.4435 31.393 25.1008 31.9286 25.2135C32.4637 25.3263 32.8064 25.8514 32.6937 26.3871L28.6988 45.3543C28.6004 45.8209 28.1891 46.1409 27.7309 46.1409Z" fill="white"/>
<path d="M53.3491 56.4744H6.65094C2.98386 56.4744 0 53.4911 0 49.8235V10.1887C0 6.52158 2.98386 3.53772 6.65094 3.53772H53.3491C57.0162 3.53772 60 6.52158 60 10.1887V49.8235C60 53.4911 57.0162 56.4744 53.3491 56.4744ZM6.65094 5.51885C4.07614 5.51885 1.98113 7.61385 1.98113 10.1887V49.8235C1.98113 52.3983 4.07614 54.4933 6.65094 54.4933H53.3491C55.9239 54.4933 58.0189 52.3983 58.0189 49.8235V10.1887C58.0189 7.61385 55.9239 5.51885 53.3491 5.51885H6.65094Z" fill="white"/>
<path d="M59.0094 19.3995H0.990566C0.443323 19.3995 0 18.9562 0 18.409C0 17.8623 0.443323 17.4184 0.990566 17.4184H59.0094C59.5567 17.4184 60 17.8623 60 18.409C60 18.9562 59.5567 19.3995 59.0094 19.3995Z" fill="white"/>
<path d="M16.9248 14.6595C15.1968 14.6595 13.79 13.2527 13.79 11.5247C13.79 9.7962 15.1968 8.38995 16.9248 8.38995C18.6533 8.38995 20.0596 9.7962 20.0596 11.5247C20.0596 13.2527 18.6533 14.6595 16.9248 14.6595ZM16.9248 10.3711C16.2891 10.3711 15.7712 10.8885 15.7712 11.5247C15.7712 12.161 16.2891 12.6784 16.9248 12.6784C17.561 12.6784 18.0784 12.161 18.0784 11.5247C18.0784 10.8885 17.561 10.3711 16.9248 10.3711Z" fill="white"/>
<path d="M7.29346 14.6291C5.56494 14.6291 4.15869 13.2228 4.15869 11.4943C4.15869 9.76581 5.56494 8.35956 7.29346 8.35956C9.02197 8.35956 10.4282 9.76581 10.4282 11.4943C10.4282 13.2228 9.02197 14.6291 7.29346 14.6291ZM7.29346 10.3407C6.65777 10.3407 6.13982 10.8586 6.13982 11.4943C6.13982 12.1306 6.65777 12.648 7.29346 12.648C7.9297 12.648 8.44709 12.1306 8.44709 11.4943C8.44709 10.8586 7.9297 10.3407 7.29346 10.3407Z" fill="white"/>
<path d="M26.5561 14.6893C24.8281 14.6893 23.4219 13.2831 23.4219 11.5546C23.4219 9.8266 24.8281 8.42035 26.5561 8.42035C28.2846 8.42035 29.6909 9.8266 29.6909 11.5546C29.6909 13.2831 28.2846 14.6893 26.5561 14.6893ZM26.5561 10.4009C25.9204 10.4009 25.403 10.9183 25.403 11.5546C25.403 12.1908 25.9204 12.7082 26.5561 12.7082C27.1923 12.7082 27.7097 12.1908 27.7097 11.5546C27.7097 10.9183 27.1923 10.4009 26.5561 10.4009Z" fill="white"/>
</g>
<defs>
<clipPath id="clip0_24_3822">
<rect width="60" height="60" fill="white"/>
</clipPath>
</defs>
</svg>
