<svg width="61" height="60" viewBox="0 0 61 60" fill="none" xmlns="http://www.w3.org/2000/svg">
<mask id="mask0_24_3122" style="mask-type:luminance" maskUnits="userSpaceOnUse" x="0" y="0" width="61" height="60">
<path d="M0.5 3.8147e-06H60.5V60H0.5V3.8147e-06Z" fill="white"/>
</mask>
<g mask="url(#mask0_24_3122)">
<path d="M44.9438 28.9522C46.4144 27.4817 46.4144 25.0972 44.9438 23.6266C43.4734 22.1562 41.0888 22.1562 39.6184 23.6266C37.9926 25.2534 35.9196 27.3254 34.2928 28.9522C32.8223 30.4227 32.8223 32.8072 34.2928 34.2777C35.7643 35.7483 38.1479 35.7483 39.6184 34.2777C41.2452 32.651 43.3181 30.5789 44.9438 28.9522Z" stroke="#B10043" stroke-width="2" stroke-miterlimit="10" stroke-linecap="round" stroke-linejoin="round"/>
<path d="M48.9384 35.6089C50.4089 34.1384 50.4089 31.7539 48.9384 30.2833C47.4679 28.8128 45.0834 28.8128 43.6129 30.2833C42.3608 31.5354 40.8705 33.0257 39.6185 34.2777C38.148 35.7482 38.148 38.1318 39.6185 39.6032C41.0889 41.0737 43.4735 41.0737 44.9439 39.6032C46.1961 38.3502 47.6862 36.8609 48.9384 35.6089Z" stroke="#B10043" stroke-width="2" stroke-miterlimit="10" stroke-linecap="round" stroke-linejoin="round"/>
<path d="M52.9319 42.2655C53.6389 41.5595 54.0352 40.6011 54.0352 39.6033C54.0352 38.6044 53.6389 37.646 52.9319 36.94C52.226 36.2339 51.2686 35.8376 50.2696 35.8376C49.2709 35.8376 48.3134 36.2339 47.6073 36.94C46.7497 37.7967 45.8007 38.7456 44.9441 39.6033C44.238 40.3093 43.8418 41.2668 43.8418 42.2655C43.8418 43.2643 44.238 44.2218 44.9441 44.9278C45.6501 45.6348 46.6085 46.0311 47.6073 46.0311C48.6052 46.0311 49.5636 45.6348 50.2696 44.9278C51.1264 44.0712 52.0753 43.1222 52.9319 42.2655Z" stroke="#B10043" stroke-width="2" stroke-miterlimit="10" stroke-linecap="round" stroke-linejoin="round"/>
<path d="M39.6184 23.6266C39.6184 23.6266 45.4081 17.8379 48.9384 14.3077C49.6445 13.6007 50.0409 12.6432 50.0409 11.6445C50.0409 10.6457 49.6445 9.68825 48.9384 8.98219C48.2323 8.27602 47.2739 7.87887 46.2752 7.87887C45.2764 7.87887 44.3188 8.27602 43.6129 8.98219L23.6429 28.9522C23.6429 28.9522 22.8022 25.3118 21.8927 21.3691C21.4409 19.4101 19.9609 17.8502 18.0273 17.2957C16.0947 16.7412 14.0132 17.2797 12.5916 18.7022C12.5907 18.7022 12.5907 18.7031 12.5907 18.7031L12.6133 41.2969L6.96484 46.9453L18.2617 58.2422H34.6168C36.1146 58.2422 37.5511 57.6463 38.6102 56.5872C42.6959 52.5025 52.9318 42.2655 52.9318 42.2655" stroke="#B10043" stroke-width="2" stroke-miterlimit="10" stroke-linecap="round" stroke-linejoin="round"/>
<path d="M23.6431 28.9522C23.6431 28.9522 24.1797 29.4888 24.9742 30.2834C28.6504 33.9595 28.6504 39.9205 24.9742 43.5967" stroke="#B10043" stroke-width="2" stroke-miterlimit="10" stroke-linecap="round" stroke-linejoin="round"/>
<path d="M23.9102 9.28906V1.75777" stroke="#B10043" stroke-width="2" stroke-miterlimit="10" stroke-linecap="round" stroke-linejoin="round"/>
<path d="M16.3788 9.28906L14.4961 7.40633" stroke="#B10043" stroke-width="2" stroke-miterlimit="10" stroke-linecap="round" stroke-linejoin="round"/>
<path d="M31.4414 9.28906L33.3241 7.40633" stroke="#B10043" stroke-width="2" stroke-miterlimit="10" stroke-linecap="round" stroke-linejoin="round"/>
</g>
</svg>
