<svg width="61" height="60" viewBox="0 0 61 60" fill="none" xmlns="http://www.w3.org/2000/svg">
<path d="M23 3.75H9.875C6.77375 3.75 4.25 6.27375 4.25 9.375V22.5C4.25 25.6013 6.77375 28.125 9.875 28.125H23C26.1013 28.125 28.625 25.6013 28.625 22.5V9.375C28.625 6.27375 26.1013 3.75 23 3.75ZM24.875 22.5C24.875 23.5331 24.0331 24.375 23 24.375H9.875C8.84187 24.375 8 23.5331 8 22.5V9.375C8 8.34187 8.84187 7.5 9.875 7.5H23C24.0331 7.5 24.875 8.34187 24.875 9.375V22.5ZM23 31.875H9.875C6.77375 31.875 4.25 34.3987 4.25 37.5V50.625C4.25 53.7263 6.77375 56.25 9.875 56.25H23C26.1013 56.25 28.625 53.7263 28.625 50.625V37.5C28.625 34.3987 26.1013 31.875 23 31.875ZM24.875 50.625C24.875 51.6581 24.0331 52.5 23 52.5H9.875C8.84187 52.5 8 51.6581 8 50.625V37.5C8 36.4669 8.84187 35.625 9.875 35.625H23C24.0331 35.625 24.875 36.4669 24.875 37.5V50.625ZM51.125 31.875H38C34.8987 31.875 32.375 34.3987 32.375 37.5V50.625C32.375 53.7263 34.8987 56.25 38 56.25H51.125C54.2263 56.25 56.75 53.7263 56.75 50.625V37.5C56.75 34.3987 54.2263 31.875 51.125 31.875ZM53 50.625C53 51.6581 52.1581 52.5 51.125 52.5H38C36.9669 52.5 36.125 51.6581 36.125 50.625V37.5C36.125 36.4669 36.9669 35.625 38 35.625H51.125C52.1581 35.625 53 36.4669 53 37.5V50.625ZM32.375 15C32.375 13.965 33.215 13.125 34.25 13.125H42.6875V5.625C42.6875 4.59 43.5275 3.75 44.5625 3.75C45.5975 3.75 46.4375 4.59 46.4375 5.625V13.125H54.875C55.91 13.125 56.75 13.965 56.75 15C56.75 16.035 55.91 16.875 54.875 16.875H46.4375V26.25C46.4375 27.285 45.5975 28.125 44.5625 28.125C43.5275 28.125 42.6875 27.285 42.6875 26.25V16.875H34.25C33.215 16.875 32.375 16.035 32.375 15Z" fill="#B10043"/>
</svg>
