<svg width="60" height="60" viewBox="0 0 60 60" fill="none" xmlns="http://www.w3.org/2000/svg">
<g clip-path="url(#clip0_24_3304)">
<path d="M51.1875 10.875C50.625 10.875 50.25 10.4063 50.25 9.9375V4.78125C50.25 3.1875 48.9375 1.875 47.3437 1.875H12.6562C11.0625 1.875 9.75 3.1875 9.75 4.78125V9.9375C9.75 10.5 9.28125 10.875 8.8125 10.875C8.34375 10.875 7.875 10.4063 7.875 9.9375V4.78125C7.875 2.15625 10.0313 -0.09375 12.75 -0.09375H47.4375C50.0625 -0.09375 52.3125 2.0625 52.3125 4.78125V9.9375C52.2188 10.5 51.75 10.875 51.1875 10.875Z" fill="#B10043"/>
<path d="M47.3438 60H12.6562C10.0312 60 7.78125 57.8438 7.78125 55.125V49.9688C7.78125 49.4062 8.25 49.0312 8.71875 49.0312C9.1875 49.0312 9.65625 49.5 9.65625 49.9688V55.125C9.65625 56.7188 10.9687 58.0313 12.5625 58.0313H47.25C48.8438 58.0313 50.1563 56.7188 50.1563 55.125V49.9688C50.1563 49.4062 50.625 49.0312 51.0938 49.0312C51.5625 49.0312 52.0313 49.5 52.0313 49.9688V55.125C52.2188 57.8438 50.0625 60 47.3438 60Z" fill="#B10043"/>
<path d="M8.8125 51C8.25 51 7.875 50.5313 7.875 50.0625V9.9375C7.875 9.375 8.34375 9 8.8125 9C9.28125 9 9.75 9.46875 9.75 9.9375V50.0625C9.75 50.625 9.28125 51 8.8125 51Z" fill="#B10043"/>
<path d="M51.2812 51C50.7187 51 50.3438 50.5313 50.3438 50.0625V9.9375C50.3438 9.375 50.8125 9 51.2812 9C51.75 9 52.2188 9.46875 52.2188 9.9375V50.0625C52.2188 50.625 51.75 51 51.2812 51Z" fill="#B10043"/>
<path d="M47.3438 51H12.6562C12.0937 51 11.7188 50.5312 11.7188 50.0625C11.7188 49.5938 12.1875 49.125 12.6562 49.125H47.3438C47.9062 49.125 48.2812 49.5938 48.2812 50.0625C48.2812 50.5312 47.9062 51 47.3438 51Z" fill="#B10043"/>
<path d="M47.3438 10.875H12.6562C12.0937 10.875 11.7188 10.4062 11.7188 9.9375C11.7188 9.46875 12.1875 9 12.6562 9H47.3438C47.9062 9 48.2812 9.46875 48.2812 9.9375C48.2812 10.4062 47.9062 10.875 47.3438 10.875Z" fill="#B10043"/>
<path d="M35.4375 6.375H24.6562C24.0937 6.375 23.7188 5.90625 23.7188 5.4375C23.7188 4.96875 24.1875 4.5 24.6562 4.5H35.4375C36 4.5 36.375 4.96875 36.375 5.4375C36.375 5.90625 35.9062 6.375 35.4375 6.375Z" fill="#B10043"/>
<path d="M42.75 6.375H41.1562C40.5937 6.375 40.2188 5.90625 40.2188 5.4375C40.2188 4.96875 40.6875 4.5 41.1562 4.5H42.75C43.3125 4.5 43.6875 4.96875 43.6875 5.4375C43.6875 5.90625 43.3125 6.375 42.75 6.375Z" fill="#B10043"/>
<path d="M32.5313 55.5H27.4688C26.9062 55.5 26.5312 55.0312 26.5312 54.5625C26.5312 54.0938 27 53.625 27.4688 53.625H32.5313C33.0938 53.625 33.4688 54.0938 33.4688 54.5625C33.4688 55.0312 33.0938 55.5 32.5313 55.5Z" fill="#B10043"/>
<path d="M30.75 45.75H29.25C28.0313 45.75 27 44.9062 26.8125 43.6875L26.4375 41.3437C26.4375 41.1562 26.25 40.9688 26.1562 40.9688C25.7812 40.875 25.4062 40.6875 25.125 40.5C25.0312 40.4062 24.8438 40.4062 24.5625 40.5937L22.6875 42C21.75 42.75 20.3437 42.5625 19.5 41.7188L18.375 40.5937C17.5313 39.75 17.4375 38.4375 18.1875 37.4063L19.5938 35.5313C19.6875 35.3438 19.6875 35.1562 19.5938 34.9687C19.4062 34.5937 19.3125 34.3125 19.125 33.9375C19.0312 33.75 18.9375 33.6562 18.75 33.5625L16.5 33.1875C15.2813 33 14.4375 31.9687 14.4375 30.75V29.1562C14.4375 27.9375 15.375 26.9062 16.5 26.7188L18.75 26.3438C18.9375 26.3438 19.125 26.1562 19.125 25.9688C19.2188 25.5938 19.4062 25.2188 19.5938 24.9375C19.6875 24.75 19.6875 24.5625 19.5 24.4688L18.0937 22.5938C17.3437 21.6562 17.5313 20.25 18.2813 19.4063L19.4063 18.2812C20.25 17.4375 21.6563 17.3438 22.5938 18L24.4688 19.4063C24.6563 19.5938 24.8438 19.5 25.0313 19.4063C25.3125 19.2188 25.6875 19.125 26.0625 18.9375C26.25 18.8438 26.3438 18.75 26.4375 18.5625L26.8125 16.2187C27 15 28.0313 14.1562 29.25 14.1562H30.75C31.9688 14.1562 33 15 33.1875 16.2187L33.5625 18.5625C33.5625 18.75 33.75 18.9375 33.8437 18.9375C34.2187 19.0313 34.5938 19.2188 34.875 19.4063C34.9688 19.5 35.1562 19.5 35.4375 19.3125L37.3125 17.9062C38.25 17.1562 39.6563 17.3437 40.5 18.1875L41.625 19.3125C42.4688 20.1562 42.5625 21.4687 41.8125 22.5L40.4062 24.375C40.3125 24.5625 40.3125 24.75 40.4062 24.9375C40.5937 25.3125 40.6875 25.5938 40.875 25.9688C40.9687 26.1562 41.0625 26.25 41.25 26.3438L43.5 26.7188C44.7188 26.9062 45.5625 27.9375 45.5625 29.1562V30.75C45.5625 31.9687 44.625 33 43.5 33.1875L41.25 33.5625C41.0625 33.5625 40.875 33.75 40.7812 33.9375C40.6875 34.3125 40.5 34.6875 40.3125 34.9687C40.2188 35.1562 40.2187 35.3438 40.4062 35.5313L41.8125 37.4063C42.5625 38.3438 42.375 39.6562 41.625 40.5937L40.5 41.7188C39.6563 42.5625 38.25 42.6562 37.3125 42L35.4375 40.5937C35.25 40.4062 35.0625 40.5 34.875 40.5937C34.5938 40.7812 34.2187 40.875 33.8437 41.0625C33.6562 41.1562 33.5625 41.25 33.4688 41.4375L33.0938 43.7812C33 44.8125 31.9688 45.75 30.75 45.75ZM24.8438 38.5312C25.2188 38.5312 25.5938 38.625 25.875 38.8125C26.1563 38.9063 26.4375 39.0937 26.7188 39.1875C27.5625 39.4687 28.125 40.2188 28.3125 41.1563L28.6875 43.5C28.6875 43.7813 28.9688 43.9688 29.1563 43.9688H30.6563C30.9375 43.9688 31.125 43.7813 31.125 43.5L31.5 41.1563C31.5937 40.3125 32.25 39.5625 33.0938 39.1875C33.375 39.0937 33.6563 39 33.9375 38.8125C34.7813 38.4375 35.7188 38.5312 36.4688 39.0938L38.3438 40.5C38.625 40.6875 38.8125 40.5937 39 40.4062L40.125 39.2813C40.3125 39.0938 40.3125 38.8125 40.2188 38.625L38.8125 36.75C38.25 36 38.1563 35.0625 38.625 34.2188C38.7188 33.9375 38.9062 33.6562 39 33.2812C39.2812 32.4375 40.0313 31.7812 40.9688 31.6875L43.2187 31.3125C43.5 31.3125 43.6875 31.0313 43.6875 30.8438V29.25C43.6875 28.9688 43.5 28.7812 43.2187 28.7812L40.9688 28.4062C40.0313 28.2187 39.375 27.6562 39 26.8125C38.9062 26.5312 38.8125 26.25 38.625 25.9688C38.25 25.125 38.3438 24.1875 38.8125 23.5312L40.2188 21.6562C40.4063 21.4688 40.3125 21.1875 40.125 21L39.0938 19.6875C38.9063 19.5 38.7188 19.4062 38.4375 19.5937L36.5625 21C35.8125 21.5625 34.875 21.6563 34.0312 21.2813C33.75 21.0938 33.4688 21 33.1875 20.9062C32.3438 20.625 31.6875 19.875 31.5938 18.9375L31.2188 16.5938C31.2188 16.3125 30.9375 16.125 30.75 16.125H29.25C28.9688 16.125 28.7813 16.3125 28.7813 16.5938L28.4062 18.9375C28.3125 19.7813 27.6563 20.5312 26.8125 20.9062C26.5313 21 26.25 21.0938 25.9688 21.2813C25.125 21.6563 24.1875 21.5625 23.4375 21L21.5625 19.6875C21.4688 19.5937 21.375 19.5937 21.2813 19.5937C21.1875 19.5937 21.0937 19.5938 20.9062 19.7812L19.7813 20.9062C19.5938 21.0937 19.5938 21.375 19.7813 21.5625L21.1875 23.4375C21.75 24.1875 21.8437 25.125 21.375 25.9688C21.2812 26.25 21.0938 26.5312 21 26.8125C20.7188 27.6562 19.9688 28.3125 19.125 28.4062L16.875 28.6875C16.5938 28.6875 16.4063 28.9688 16.4063 29.1562V30.75C16.4063 31.0312 16.5938 31.2187 16.875 31.2187L19.125 31.5938C19.9688 31.6875 20.7188 32.3438 21.0938 33.1875C21.1875 33.4688 21.2812 33.75 21.4688 34.0312C21.8438 34.875 21.75 35.8125 21.2813 36.4688L19.875 38.3438C19.6875 38.5313 19.7812 38.8125 19.9687 39L21.0938 40.125C21.2813 40.3125 21.4688 40.4063 21.75 40.2188L23.625 38.8125C23.8125 38.625 24.375 38.5312 24.8438 38.5312Z" fill="#B10043"/>
<path d="M30 36.4688C26.4375 36.4688 23.5312 33.5625 23.5312 30C23.5312 26.4375 26.4375 23.5312 30 23.5312C33.5625 23.5312 36.4688 26.4375 36.4688 30C36.4688 33.5625 33.5625 36.4688 30 36.4688ZM30 25.5C27.4687 25.5 25.5 27.5625 25.5 30C25.5 32.4375 27.5625 34.5 30 34.5C32.4375 34.5 34.5 32.4375 34.5 30C34.5 27.5625 32.5312 25.5 30 25.5Z" fill="#B10043"/>
</g>
<defs>
<clipPath id="clip0_24_3304">
<rect width="60" height="60" fill="white"/>
</clipPath>
</defs>
</svg>
