<svg width="60" height="60" viewBox="0 0 60 60" fill="none" xmlns="http://www.w3.org/2000/svg">
<path d="M32.8125 7.5H27.1875C26.67 7.5 26.25 7.08 26.25 6.5625C26.25 6.045 26.67 5.625 27.1875 5.625H32.8125C33.33 5.625 33.75 6.045 33.75 6.5625C33.75 7.08 33.33 7.5 32.8125 7.5Z" fill="#B10043"/>
<path d="M40.3125 58.125H19.6875C17.1019 58.125 15 56.0213 15 53.4375V21.5625C15 21.045 15.42 20.625 15.9375 20.625C16.455 20.625 16.875 21.045 16.875 21.5625V53.4375C16.875 54.9881 18.1369 56.25 19.6875 56.25H40.3125C41.8631 56.25 43.125 54.9881 43.125 53.4375V21.5625C43.125 21.045 43.545 20.625 44.0625 20.625C44.58 20.625 45 21.045 45 21.5625V53.4375C45 56.0213 42.8981 58.125 40.3125 58.125Z" fill="#B10043"/>
<path d="M44.0625 28.125C43.545 28.125 43.125 27.705 43.125 27.1875V6.5625C43.125 5.01187 41.8631 3.75 40.3125 3.75H19.6875C18.1369 3.75 16.875 5.01187 16.875 6.5625V27.1875C16.875 27.705 16.455 28.125 15.9375 28.125C15.42 28.125 15 27.705 15 27.1875V6.5625C15 3.97875 17.1019 1.875 19.6875 1.875H40.3125C42.8981 1.875 45 3.97875 45 6.5625V27.1875C45 27.705 44.58 28.125 44.0625 28.125Z" fill="#B10043"/>
<path d="M49.6875 11.3438C49.17 11.3438 48.75 11.0175 48.75 10.5V10.3125C48.75 9.795 49.17 9.375 49.6875 9.375C50.205 9.375 50.625 9.795 50.625 10.3125C50.625 10.83 50.205 11.3438 49.6875 11.3438Z" fill="#B10043"/>
<path d="M49.6875 15.0938C49.17 15.0938 48.75 14.7675 48.75 14.25V14.0625C48.75 13.545 49.17 13.125 49.6875 13.125C50.205 13.125 50.625 13.545 50.625 14.0625C50.625 14.58 50.205 15.0938 49.6875 15.0938Z" fill="#B10043"/>
<path d="M49.6875 18.8438C49.17 18.8438 48.75 18.5175 48.75 18V17.8125C48.75 17.295 49.17 16.875 49.6875 16.875C50.205 16.875 50.625 17.295 50.625 17.8125C50.625 18.33 50.205 18.8438 49.6875 18.8438Z" fill="#B10043"/>
<path d="M10.3125 43.0313C9.795 43.0313 9.375 42.705 9.375 42.1875V42C9.375 41.4825 9.795 41.0625 10.3125 41.0625C10.83 41.0625 11.25 41.4825 11.25 42C11.25 42.5175 10.83 43.0313 10.3125 43.0313Z" fill="#B10043"/>
<path d="M10.3125 46.7813C9.795 46.7813 9.375 46.455 9.375 45.9375V45.75C9.375 45.2325 9.795 44.8125 10.3125 44.8125C10.83 44.8125 11.25 45.2325 11.25 45.75C11.25 46.2675 10.83 46.7813 10.3125 46.7813Z" fill="#B10043"/>
<path d="M10.3125 50.5313C9.795 50.5313 9.375 50.205 9.375 49.6875V49.5C9.375 48.9825 9.795 48.5625 10.3125 48.5625C10.83 48.5625 11.25 48.9825 11.25 49.5C11.25 50.0175 10.83 50.5313 10.3125 50.5313Z" fill="#B10043"/>
<path d="M46.5769 50.625C46.5112 50.625 46.4438 50.6194 46.3781 50.6044C45.8719 50.4956 45.5512 49.9969 45.66 49.4906L46.2787 46.6219C46.3537 46.2694 46.6256 45.9938 46.9744 45.9094C47.8594 45.6956 48.7219 45.3356 49.5375 44.8387C49.8394 44.6512 50.2275 44.6569 50.5294 44.8481L52.3856 46.035L53.535 44.8762L52.3481 43.035C52.1531 42.7331 52.1494 42.345 52.335 42.0394C52.8319 41.2237 53.1919 40.3613 53.4038 39.4763C53.4881 39.1275 53.7619 38.8575 54.1125 38.7787L56.25 38.3044V36.6975L54.1144 36.2231C53.7638 36.1444 53.49 35.8744 53.4056 35.5256C53.1937 34.6406 52.8319 33.7781 52.3369 32.9625C52.1494 32.6569 52.1531 32.2706 52.3481 31.9687L53.5369 30.1106L52.3894 28.9631L50.5313 30.1519C50.2294 30.345 49.8431 30.3488 49.5394 30.1613C48.7219 29.6644 47.8594 29.3044 46.9763 29.0906C46.6256 29.0063 46.3556 28.7288 46.2806 28.3781L45.8194 26.25H45C44.4825 26.25 44.0625 25.83 44.0625 25.3125C44.0625 24.795 44.4825 24.375 45 24.375H46.575C47.0156 24.375 47.3981 24.6844 47.49 25.1156L47.9906 27.4275C48.6769 27.6356 49.35 27.9169 49.9988 28.2675L52.0125 26.9794C52.3837 26.7431 52.8675 26.7956 53.1806 27.1069L55.395 29.3194C55.7063 29.6306 55.7587 30.1163 55.5206 30.4875L54.2325 32.5012C54.5831 33.1519 54.8644 33.825 55.0725 34.5131L57.3881 35.0269C57.8194 35.1225 58.125 35.505 58.125 35.9438V39.0562C58.125 39.495 57.8194 39.8775 57.39 39.9713L55.0744 40.485C54.8662 41.1731 54.585 41.8462 54.2344 42.495L55.5206 44.49C55.7606 44.8594 55.71 45.3469 55.3987 45.6581L53.1844 47.8894C52.8712 48.2025 52.3856 48.255 52.0144 48.0188L50.0006 46.7306C49.35 47.0813 48.6788 47.3625 47.9925 47.5706L47.4919 49.8825C47.3963 50.325 47.0062 50.625 46.5769 50.625Z" fill="#B10043"/>
<path d="M47.6083 42.3337C47.3083 42.3337 47.0121 42.1875 46.8302 41.9194C46.5414 41.49 46.6558 40.9069 47.0871 40.6181C48.1277 39.9169 48.7502 38.7506 48.7502 37.5C48.7502 35.4319 47.0683 33.75 45.0002 33.75C44.7452 33.75 44.4921 33.7763 44.2502 33.825C43.7477 33.9263 43.2471 33.6037 43.1421 33.0937C43.039 32.5856 43.3652 32.0906 43.8733 31.9875C44.2408 31.9144 44.6196 31.875 45.0002 31.875C48.1014 31.875 50.6252 34.3987 50.6252 37.5C50.6252 39.3769 49.6933 41.1244 48.1296 42.1744C47.9702 42.2812 47.7883 42.3337 47.6083 42.3337Z" fill="#B10043"/>
<path d="M15 28.125C11.8987 28.125 9.375 25.6013 9.375 22.5C9.375 20.6157 10.3125 18.8663 11.8837 17.8163C12.3094 17.5313 12.8944 17.6438 13.1831 18.0769C13.47 18.5063 13.3538 19.0894 12.9225 19.3763C11.8763 20.0775 11.25 21.2438 11.25 22.5C11.25 24.5682 12.9319 26.25 15 26.25C15.2512 26.25 15.4988 26.2257 15.735 26.1769C16.2319 26.0738 16.7362 26.4019 16.8394 26.9119C16.9425 27.42 16.6125 27.9132 16.1044 28.0144C15.7462 28.0875 15.3787 28.125 15 28.125Z" fill="#B10043"/>
<path d="M15 35.625H13.425C12.9844 35.625 12.6019 35.3156 12.51 34.8844L12.0094 32.5725C11.3231 32.3644 10.65 32.0831 10.0013 31.7325L7.9875 33.0206C7.61438 33.2569 7.1325 33.2063 6.81938 32.8931L4.605 30.6806C4.29375 30.3694 4.24125 29.8838 4.47937 29.5125L5.7675 27.4988C5.41687 26.8481 5.13563 26.175 4.9275 25.4869L2.61187 24.9731C2.18062 24.8775 1.875 24.495 1.875 24.0563V20.9438C1.875 20.505 2.18062 20.1225 2.61 20.0288L4.92563 19.515C5.13375 18.8269 5.415 18.1538 5.76562 17.505L4.48125 15.5081C4.24125 15.1388 4.29187 14.6513 4.60312 14.34L6.8175 12.1088C7.12687 11.7938 7.61438 11.7413 7.9875 11.9794L10.0013 13.2675C10.6519 12.9169 11.3231 12.6356 12.0094 12.4275L12.51 10.1156C12.6187 9.60751 13.1269 9.28501 13.6237 9.39751C14.13 9.50626 14.4506 10.005 14.3419 10.5113L13.7231 13.38C13.6481 13.7325 13.3763 14.0081 13.0275 14.0925C12.1425 14.3063 11.28 14.6663 10.4625 15.1631C10.1587 15.3506 9.7725 15.345 9.47063 15.1538L7.61437 13.9669L6.46313 15.1256L7.65 16.9669C7.84687 17.2688 7.85063 17.6569 7.66313 17.9625C7.16625 18.7781 6.80625 19.6406 6.59438 20.5256C6.51 20.8744 6.23625 21.1444 5.88562 21.2231L3.75 21.6956V23.3025L5.88562 23.7769C6.23625 23.8556 6.51 24.1256 6.59438 24.4744C6.80625 25.3594 7.16812 26.2219 7.66313 27.0375C7.85063 27.3431 7.84687 27.7294 7.65187 28.0313L6.46313 29.8875L7.61063 31.035L9.46875 29.8463C9.77063 29.655 10.1587 29.6513 10.4606 29.8369C11.2781 30.3338 12.1406 30.6938 13.0238 30.9075C13.3744 30.9919 13.6444 31.2694 13.7194 31.62L14.1806 33.75H15C15.5175 33.75 15.9375 34.17 15.9375 34.6875C15.9375 35.205 15.5175 35.625 15 35.625Z" fill="#B10043"/>
<path d="M29.0627 34.6875C28.9877 34.6875 28.9127 34.6781 28.8358 34.6593C28.3315 34.5337 28.0277 34.0256 28.1533 33.5231L30.0283 26.0231C30.1521 25.5187 30.6527 25.215 31.1646 25.3406C31.669 25.4662 31.9727 25.9743 31.8471 26.4768L29.9721 33.9768C29.8671 34.4043 29.4846 34.6875 29.0627 34.6875Z" fill="#B10043"/>
<path d="M34.6875 34.6874C34.4475 34.6874 34.2075 34.5956 34.0237 34.4137C33.6581 34.0481 33.6581 33.4537 34.0237 33.0881L37.1119 29.9999L34.0256 26.9137C33.66 26.5481 33.66 25.9537 34.0256 25.5881C34.3912 25.2224 34.9856 25.2224 35.3512 25.5881L39.1012 29.3381C39.4669 29.7037 39.4669 30.2981 39.1012 30.6637L35.3512 34.4137C35.1675 34.5956 34.9275 34.6874 34.6875 34.6874Z" fill="#B10043"/>
<path d="M25.3125 34.6874C25.0725 34.6874 24.8325 34.5956 24.6487 34.4137L20.8987 30.6637C20.5331 30.2981 20.5331 29.7037 20.8987 29.3381L24.6487 25.5881C25.0144 25.2224 25.6087 25.2224 25.9744 25.5881C26.34 25.9537 26.34 26.5481 25.9744 26.9137L22.8881 29.9999L25.9744 33.0862C26.34 33.4518 26.34 34.0462 25.9744 34.4118C25.7925 34.5956 25.5525 34.6874 25.3125 34.6874Z" fill="#B10043"/>
</svg>
