<svg width="60" height="60" viewBox="0 0 60 60" fill="none" xmlns="http://www.w3.org/2000/svg">
<path d="M52.9358 27.8039C50.8942 26.7832 47.0662 26.7714 46.9043 26.7714C46.4189 26.7714 46.0254 27.1649 46.0254 27.6503C46.0254 28.1357 46.4189 28.5292 46.9043 28.5292C47.8921 28.5293 50.76 28.6814 52.1497 29.3762C52.2759 29.4394 52.41 29.4691 52.5421 29.4691C52.8645 29.4691 53.1749 29.291 53.3289 28.9832C53.546 28.549 53.37 28.021 52.9358 27.8039Z" fill="#0195FF"/>
<path d="M57.3178 40.3173L53.6879 39.2801C53.5312 39.2354 53.4218 39.0903 53.4218 38.9273V37.7157C53.7171 37.5111 53.9988 37.2821 54.2621 37.0265C55.5383 35.7881 56.2411 34.1269 56.2411 32.349V30.6771L56.5921 29.9752C56.9773 29.2047 57.1808 28.3421 57.1808 27.4808V22.9515C57.1808 22.4661 56.7873 22.0726 56.3019 22.0726H47.8441C44.7687 22.0726 42.2665 24.5748 42.2665 27.6502V27.7026C42.2665 28.4189 42.4358 29.1362 42.7561 29.7767L43.2062 30.6769V32.1125C43.2062 34.3876 44.3273 36.4289 46.0255 37.6572L46.0257 38.9271C46.0257 39.1229 46.0257 39.204 45.3 39.4114L43.5288 39.9174L38.4053 38.0544C38.4237 37.8126 38.3421 37.5668 38.1657 37.3815L36.5285 35.6614V32.7739C36.7016 32.6313 36.8722 32.4848 37.0376 32.3299C39.103 30.3939 40.2875 27.6607 40.2875 24.8309V22.5249C40.9112 21.1678 41.2273 19.7316 41.2273 18.2526V8.85535C41.2273 8.36996 40.8338 7.97644 40.3484 7.97644H27.1918C22.5618 7.97644 18.795 11.7433 18.795 16.3733V18.2528C18.795 19.7319 19.1111 21.168 19.7347 22.5251V24.5093C19.7347 27.7947 21.1956 30.7546 23.4937 32.706V35.6615L21.8565 37.3816C21.6802 37.5669 21.5986 37.8127 21.617 38.0545L16.2094 40.0208C15.8175 40.1633 15.4534 40.3563 15.1228 40.5901L14.2737 40.1655C16.8014 39.0652 17.6021 37.5178 17.6406 37.4409C17.7643 37.1935 17.7643 36.9022 17.6406 36.6548C17.007 35.3875 16.9302 33.0648 16.8686 31.1984C16.848 30.5771 16.8286 29.9901 16.7914 29.4675C16.4918 25.2518 13.287 22.0726 9.33656 22.0726C5.38617 22.0726 2.18121 25.2516 1.88168 29.4675C1.84453 29.9902 1.82508 30.5772 1.80457 31.1987C1.74293 33.0649 1.66605 35.3874 1.03254 36.6547C0.908789 36.9021 0.908789 37.1934 1.03254 37.4408C1.07098 37.5176 1.87008 39.0619 4.40285 40.1635L2.04422 41.3428C0.783281 41.9737 0 43.2411 0 44.6507V51.144C0 51.6294 0.393516 52.0229 0.878906 52.0229C1.3643 52.0229 1.75781 51.6294 1.75781 51.144V44.6507C1.75781 43.911 2.16879 43.246 2.83031 42.9152L5.76738 41.4467L6.78902 42.4176C7.5034 43.0965 8.4198 43.4357 9.33656 43.4357C10.2531 43.4357 11.17 43.0962 11.8841 42.4176L12.9056 41.4468L13.8633 41.9257C13.4123 42.6472 13.1564 43.4933 13.1564 44.3796V51.1442C13.1564 51.6296 13.5499 52.0231 14.0353 52.0231C14.5207 52.0231 14.9142 51.6296 14.9142 51.1442V44.3796C14.9142 43.173 15.6761 42.0853 16.8101 41.6729L22.5115 39.5997L24.8849 43.16C25.1883 43.6152 25.6745 43.9071 26.2188 43.961C26.2795 43.9669 26.3399 43.9699 26.4001 43.9699C26.8804 43.9699 27.3403 43.7808 27.6841 43.4371L29.1321 41.9892V51.1443C29.1321 51.6297 29.5256 52.0232 30.011 52.0232C30.4964 52.0232 30.8899 51.6297 30.8899 51.1443V41.9892L32.3379 43.4371C32.6816 43.781 33.1416 43.97 33.6219 43.97C33.682 43.97 33.7425 43.9671 33.8031 43.9611C34.3475 43.9072 34.8338 43.6153 35.1371 43.1601L37.5107 39.6L43.212 41.6731C44.3459 42.0855 45.1078 43.1732 45.1078 44.3798V51.1444C45.1078 51.6298 45.5013 52.0234 45.9867 52.0234C46.4721 52.0234 46.8656 51.6298 46.8656 51.1444V44.3798C46.8656 43.1578 46.3801 42.0117 45.5657 41.1641L45.7828 41.1021C46.0018 41.0395 46.3007 40.9538 46.6007 40.8067L48.8447 43.0508V51.1444C48.8447 51.6298 49.2382 52.0234 49.7236 52.0234C50.209 52.0234 50.6025 51.6298 50.6025 51.1444V43.0508L52.8309 40.8223C52.9494 40.8826 53.0739 40.9334 53.2049 40.9708L56.8349 42.0079C57.6634 42.2446 58.2422 43.0119 58.2422 43.8737V51.1444C58.2422 51.6298 58.6357 52.0234 59.1211 52.0234C59.6065 52.0234 60 51.6298 60 51.1444V43.8737C60 42.2309 58.897 40.7685 57.3178 40.3173ZM5.63848 38.7649C3.99445 38.1733 3.1698 37.3846 2.81777 36.954C3.05777 36.3266 3.2134 35.608 3.31875 34.8494C3.80344 36.0116 4.6152 37.0037 5.63848 37.7115V38.7649ZM10.6734 41.1435C9.92379 41.8558 8.74945 41.8557 8.00004 41.1434L7.18266 40.3667C7.32059 40.1083 7.39641 39.8153 7.39641 39.5084V38.5716C8.00953 38.7632 8.66133 38.8666 9.3368 38.8666C10.0114 38.8666 10.6629 38.7628 11.2771 38.5722L11.277 39.5083C11.277 39.8153 11.3527 40.1084 11.4907 40.3669L10.6734 41.1435ZM9.33703 37.1088C6.7125 37.1088 4.57746 34.9736 4.57746 32.3492C4.57746 31.8638 4.18395 31.4703 3.69855 31.4703C3.64934 31.4703 3.60129 31.4753 3.5543 31.4832C3.55687 31.4076 3.55934 31.3319 3.56191 31.257C3.58148 30.6527 3.60035 30.0819 3.63516 29.5923C3.74742 28.013 4.37848 26.5578 5.41207 25.4944C6.45492 24.4215 7.84875 23.8306 9.3368 23.8306C10.8248 23.8306 12.2186 24.4215 13.2615 25.4944C14.2951 26.5578 14.9262 28.013 15.0384 29.5923C15.0731 30.0818 15.0921 30.6525 15.112 31.2567C15.1138 31.3086 15.1155 31.3612 15.1173 31.4135C14.1611 29.9402 12.6843 28.8544 10.7761 28.2413C9.01324 27.675 7.49707 27.71 7.43309 27.7116C7.20293 27.7181 6.98449 27.8144 6.82477 27.9801L5.23898 29.6247C4.90207 29.9742 4.91215 30.5306 5.2616 30.8675C5.61105 31.2044 6.16746 31.1942 6.50437 30.8449L7.82391 29.4765C8.96027 29.532 12.6162 29.9572 14.038 33.0881C13.6802 35.3953 11.6972 37.1088 9.33703 37.1088ZM13.0346 38.7678L13.0348 37.7196C14.0572 37.0156 14.8702 36.0254 15.3552 34.8544C15.4605 35.6112 15.6161 36.3282 15.8556 36.9542C15.5055 37.3808 14.677 38.1765 13.0346 38.7678ZM21.4925 24.5091V22.3285C21.4925 22.1962 21.4627 22.0655 21.4051 21.9464C20.8396 20.7752 20.5528 19.5325 20.5528 18.2528V16.3734C20.5528 12.7126 23.5311 9.73437 27.1918 9.73437H39.4695V18.253C39.4695 19.5327 39.1827 20.7753 38.6171 21.9465C38.5596 22.0657 38.5297 22.1963 38.5297 22.3286V24.8312C38.5297 27.2114 37.5729 29.4191 35.8355 31.0476C35.6186 31.2508 35.3934 31.4414 35.1607 31.6189C35.1555 31.6224 35.1506 31.6263 35.1456 31.6299C33.518 32.8657 31.5244 33.4662 29.4424 33.3314C24.9845 33.0427 21.4925 29.1676 21.4925 24.5091ZM26.4412 42.194C26.4352 42.2001 26.421 42.2145 26.3923 42.2115C26.3637 42.2087 26.3524 42.1919 26.3476 42.1846L23.6142 38.0845L24.4938 37.1602L28.6405 39.9946L26.4412 42.194ZM30.0111 38.8023L25.2516 35.5489V33.9083C26.4831 34.574 27.862 34.9904 29.3286 35.0853C29.5603 35.1003 29.7906 35.1077 30.0202 35.1077C31.7007 35.1077 33.3182 34.706 34.7707 33.9434V35.5489L30.0111 38.8023ZM33.6746 42.1849C33.6698 42.1921 33.6586 42.2089 33.63 42.2117C33.6013 42.2153 33.5872 42.2002 33.581 42.1943L31.3818 39.995L35.5284 37.1605L36.4082 38.0847L33.6746 42.1849ZM49.7236 41.4433L47.7291 39.4489C47.7639 39.2908 47.7836 39.1177 47.7834 38.9268L47.7833 38.5559C48.3368 38.7376 48.9202 38.8454 49.5238 38.8634C49.5915 38.8655 49.6587 38.8665 49.7262 38.8665C50.3932 38.8665 51.0443 38.7657 51.664 38.5734V38.9273C51.664 39.1026 51.686 39.2744 51.7275 39.4395L49.7236 41.4433ZM53.038 35.7651C52.1065 36.6691 50.8759 37.1465 49.5766 37.1064C47.0332 37.0301 44.964 34.7899 44.964 32.1127V30.4696C44.964 30.3331 44.9323 30.1986 44.8712 30.0766L44.3283 28.9907C44.1294 28.5929 44.0243 28.1476 44.0243 27.7027V27.6503C44.0243 25.544 45.7379 23.8305 47.8441 23.8305H55.423V27.4809C55.423 28.0708 55.2836 28.6616 55.0198 29.1893L54.5761 30.0766C54.515 30.1987 54.4833 30.3331 54.4833 30.4696V32.3491C54.4833 33.6475 53.97 34.8607 53.038 35.7651Z" fill="#0195FF"/>
<path d="M55.3623 44.6266C54.8769 44.6266 54.4834 45.0201 54.4834 45.5055V51.144C54.4834 51.6294 54.8769 52.0229 55.3623 52.0229C55.8477 52.0229 56.2412 51.6294 56.2412 51.144V45.5055C56.2412 45.0202 55.8477 44.6266 55.3623 44.6266Z" fill="#0195FF"/>
<path d="M4.6377 45.7885C4.1523 45.7885 3.75879 46.182 3.75879 46.6674V51.144C3.75879 51.6294 4.1523 52.0229 4.6377 52.0229C5.12309 52.0229 5.5166 51.6294 5.5166 51.144V46.6674C5.5166 46.1821 5.12309 45.7885 4.6377 45.7885Z" fill="#0195FF"/>
<path d="M37.2106 18.5712C33.8864 15.2471 26.9315 15.8826 24.0953 16.3101C23.202 16.4447 22.5537 17.2007 22.5537 18.1076V20.1324C22.5537 20.6178 22.9472 21.0113 23.4326 21.0113C23.918 21.0113 24.3115 20.6178 24.3115 20.1324V18.1075C24.3115 18.0776 24.3312 18.0521 24.3575 18.0481C25.4903 17.8774 27.7383 17.6139 30.0674 17.7692C32.8082 17.9517 34.7934 18.6397 35.9677 19.8141C36.3109 20.1574 36.8675 20.1574 37.2106 19.8141C37.5538 19.4709 37.5538 18.9144 37.2106 18.5712Z" fill="#0195FF"/>
<path d="M19.6738 46.5062C19.1884 46.5062 18.7949 46.8997 18.7949 47.3851V51.1442C18.7949 51.6295 19.1884 52.0231 19.6738 52.0231C20.1592 52.0231 20.5527 51.6295 20.5527 51.1442V47.3851C20.5527 46.8999 20.1592 46.5062 19.6738 46.5062Z" fill="#0195FF"/>
<path d="M40.3481 46.5062C39.8628 46.5062 39.4692 46.8997 39.4692 47.3851V51.1442C39.4692 51.6295 39.8628 52.0231 40.3481 52.0231C40.8335 52.0231 41.2271 51.6295 41.2271 51.1442V47.3851C41.2271 46.8999 40.8335 46.5062 40.3481 46.5062Z" fill="#0195FF"/>
</svg>
