<svg width="60" height="60" viewBox="0 0 60 60" fill="none" xmlns="http://www.w3.org/2000/svg">
<g clip-path="url(#clip0_24_3700)">
<path fill-rule="evenodd" clip-rule="evenodd" d="M50.1556 47.6988L57.3744 54.9175C57.9588 55.5019 57.9588 56.4488 57.3744 57.0332L57.2869 57.1207C56.7031 57.7044 55.7556 57.7044 55.1719 57.1207L49.2031 51.1519C48.8375 50.7857 48.2431 50.7857 47.8775 51.1519C47.5113 51.5175 47.5113 52.1119 47.8775 52.4775C47.8775 52.4775 50.0219 54.6225 53.8463 58.4463C55.1625 59.7625 57.2963 59.7625 58.6131 58.4463L58.7 58.3588C60.0169 57.0425 60.0169 54.9082 58.7 53.5919L51.2338 46.1257C52.4481 44.0625 53.1444 41.66 53.1444 39.0963C53.1444 31.4332 46.9231 25.2119 39.2606 25.2119C31.5981 25.2119 25.3769 31.4332 25.3769 39.0963C25.3769 46.7588 31.5981 52.98 39.2606 52.98C43.675 52.98 47.6113 50.9157 50.1556 47.6988ZM39.2606 27.0869C45.8888 27.0869 51.2694 32.4682 51.2694 39.0963C51.2694 45.7238 45.8888 51.105 39.2606 51.105C32.6325 51.105 27.2519 45.7238 27.2519 39.0963C27.2519 32.4682 32.6325 27.0869 39.2606 27.0869ZM8.39125 31.2513C8.39125 30.6713 8.16063 30.115 7.75 29.7044C7.34 29.2944 6.78375 29.0638 6.20375 29.0638C5.12563 29.0638 3.5775 29.0638 2.5 29.0638C1.92 29.0638 1.36375 29.2944 0.953125 29.7044C0.543125 30.115 0.3125 30.6713 0.3125 31.2513V48.4725C0.3125 48.9907 0.7325 49.41 1.25 49.41H7.45375C7.97125 49.41 8.39125 48.9907 8.39125 48.4725V31.2513ZM19.1263 28.1344C19.1263 26.9263 18.1469 25.9469 16.9388 25.9469C15.8613 25.9469 14.3131 25.9469 13.235 25.9469C12.0269 25.9469 11.0475 26.9263 11.0475 28.1344V48.4725C11.0475 48.9907 11.4675 49.41 11.985 49.41H18.1888C18.7063 49.41 19.1263 48.9907 19.1263 48.4725V28.1344ZM26.4238 47.535H23.6581V23.7807C23.6581 23.6975 23.6906 23.6182 23.7494 23.5594C23.8081 23.5013 23.8875 23.4682 23.9706 23.4682H27.6738C27.7569 23.4682 27.8363 23.5013 27.895 23.5594C27.9538 23.6182 27.9863 23.6975 27.9863 23.7807V27.2763C27.9863 27.7938 28.4063 28.2138 28.9238 28.2138C29.4413 28.2138 29.8613 27.7938 29.8613 27.2763V23.7807C29.8613 23.2007 29.6313 22.6438 29.2206 22.2338C28.8106 21.8238 28.2544 21.5932 27.6738 21.5932C26.5963 21.5932 25.0481 21.5932 23.9706 21.5932C23.3906 21.5932 22.8338 21.8238 22.4238 22.2338C22.0138 22.6438 21.7831 23.2007 21.7831 23.7807V48.4725C21.7831 48.9907 22.2025 49.41 22.7206 49.41H26.4238C26.9413 49.41 27.3613 48.99 27.3613 48.4725C27.3613 47.9557 26.9413 47.535 26.4238 47.535ZM34.0763 33.6994C35.4219 32.4063 37.2488 31.6107 39.2606 31.6107C43.3919 31.6107 46.7456 34.965 46.7456 39.0963C46.7456 43.2275 43.3919 46.5813 39.2606 46.5813C35.1294 46.5813 31.7756 43.2275 31.7756 39.0963C31.7756 38.0863 31.9756 37.1232 32.3388 36.2444C32.5363 35.7657 32.3081 35.2175 31.83 35.02C31.3519 34.8219 30.8031 35.05 30.6056 35.5282C30.1513 36.6282 29.9006 37.8332 29.9006 39.0963C29.9006 44.2625 34.0944 48.4563 39.2606 48.4563C44.4269 48.4563 48.6206 44.2625 48.6206 39.0963C48.6206 33.93 44.4269 29.7357 39.2606 29.7357C36.745 29.7357 34.4594 30.73 32.7769 32.3475C32.4038 32.7057 32.3919 33.3 32.7506 33.6732C33.1094 34.0463 33.7031 34.0582 34.0763 33.6994ZM17.2513 28.1344V47.535H12.9225V28.1344C12.9225 27.9619 13.0625 27.8219 13.235 27.8219H16.9388C17.1113 27.8219 17.2513 27.9619 17.2513 28.1344ZM6.51625 31.2513V47.535H2.1875V31.2513C2.1875 31.1688 2.22063 31.0894 2.27875 31.0307C2.3375 30.9719 2.41688 30.9388 2.5 30.9388H6.20375C6.28625 30.9388 6.36563 30.9719 6.42438 31.0307C6.48313 31.0894 6.51625 31.1688 6.51625 31.2513ZM34.3931 24.2544V15.1963C34.3931 15.1138 34.4263 15.0344 34.485 14.9757C34.5431 14.9169 34.6231 14.8838 34.7056 14.8838H38.4094C38.4919 14.8838 38.5719 14.9169 38.63 14.9757C38.6888 15.0344 38.7219 15.1138 38.7219 15.1963V23.0044C38.7219 23.5219 39.1419 23.9419 39.6594 23.9419C40.1769 23.9419 40.5969 23.5219 40.5969 23.0044C40.5969 23.0044 40.5969 17.6813 40.5969 15.1963C40.5969 14.6163 40.3663 14.06 39.9563 13.65C39.5456 13.2394 38.9894 13.0088 38.4094 13.0088C37.3313 13.0088 35.7831 13.0088 34.7056 13.0088C34.1256 13.0088 33.5694 13.2394 33.1588 13.65C32.7488 14.06 32.5181 14.6163 32.5181 15.1963V24.2544C32.5181 24.7719 32.9381 25.1919 33.4556 25.1919C33.9731 25.1919 34.3931 24.7719 34.3931 24.2544ZM30.855 6.44441L23.24 11.7913C22.4838 11.105 21.4806 10.6863 20.38 10.6863C18.0406 10.6863 16.1394 12.5775 16.1219 14.9125L8.42938 16.5888C7.75063 15.1375 6.2775 14.1313 4.57063 14.1313C2.22063 14.1313 0.3125 16.0388 0.3125 18.3894C0.3125 20.7394 2.22063 22.6469 4.57063 22.6469C6.91 22.6469 8.81125 20.7563 8.82813 18.4207L16.5206 16.745C17.1994 18.1957 18.6731 19.2025 20.38 19.2025C22.73 19.2025 24.6381 17.2944 24.6381 14.9444C24.6381 14.3713 24.5244 13.8238 24.3188 13.3244L31.9338 7.97816C32.69 8.66378 33.6931 9.08253 34.7938 9.08253C37.1438 9.08253 39.0519 7.17441 39.0519 4.82441C39.0519 2.47441 37.1438 0.566284 34.7938 0.566284C32.4438 0.566284 30.5356 2.47441 30.5356 4.82441C30.5356 5.39816 30.6494 5.94503 30.855 6.44441ZM4.57063 20.7719C3.255 20.7719 2.1875 19.7044 2.1875 18.3894C2.1875 17.0738 3.255 16.0063 4.57063 16.0063C5.88563 16.0063 6.95313 17.0738 6.95313 18.3894C6.95313 19.7044 5.88563 20.7719 4.57063 20.7719ZM22.3263 13.57L22.3344 13.5813C22.6044 13.9675 22.7631 14.4375 22.7631 14.9444C22.7631 16.2594 21.695 17.3275 20.38 17.3275C19.065 17.3275 17.9969 16.2594 17.9969 14.9444C17.9969 13.6294 19.065 12.5613 20.38 12.5613C21.1831 12.5613 21.8944 12.96 22.3263 13.57ZM32.8475 6.19941L32.8394 6.18753C32.5694 5.80128 32.4106 5.33128 32.4106 4.82441C32.4106 3.50941 33.4788 2.44128 34.7938 2.44128C36.1088 2.44128 37.1769 3.50941 37.1769 4.82441C37.1769 6.13941 36.1088 7.20753 34.7938 7.20753C33.9906 7.20753 33.2794 6.80878 32.8475 6.19941Z" fill="#0195FF"/>
</g>
<defs>
<clipPath id="clip0_24_3700">
<rect width="60" height="60" fill="white"/>
</clipPath>
</defs>
</svg>
