<svg width="60" height="60" viewBox="0 0 60 60" fill="none" xmlns="http://www.w3.org/2000/svg">
<g clip-path="url(#clip0_24_3844)">
<path d="M10.3901 59.1211L12.6718 57.5707C14.1319 56.5781 15.8862 56.1094 17.6476 56.243L35.8456 57.6188C36.9073 57.7066 37.9655 57.4277 38.8456 56.8289L45.1198 52.5645" stroke="white" stroke-width="2" stroke-miterlimit="10" stroke-linecap="round" stroke-linejoin="round"/>
<path d="M48.5111 50.2594L55.5775 45.4559C56.024 45.1524 56.2654 44.6578 56.2654 44.1551C56.2654 43.8516 56.1775 43.5446 55.9936 43.2739C54.6846 41.3473 52.0607 40.8469 50.1342 42.1559L37.8529 50.5043C37.8506 50.5067 37.8482 50.509 37.8447 50.5102" stroke="white" stroke-width="2" stroke-miterlimit="10" stroke-linecap="round" stroke-linejoin="round"/>
<path d="M23.2007 49.1847L35.673 51.0211C35.823 51.0433 35.9706 51.0539 36.1183 51.0539C36.7499 51.0539 37.3487 50.8558 37.8444 50.5101L37.8585 50.5008C38.4843 50.059 38.9448 49.3816 39.0937 48.5719C39.3937 46.9383 38.3237 45.3679 36.6937 45.0504L26.7151 43.1039" stroke="white" stroke-width="2" stroke-miterlimit="10" stroke-linecap="round" stroke-linejoin="round"/>
<path d="M3.73486 50.0778L12.531 43.4801C14.6474 41.8922 17.338 41.2746 19.9349 41.782L22.6876 42.3188" stroke="white" stroke-width="2" stroke-miterlimit="10" stroke-linecap="round" stroke-linejoin="round"/>
<path d="M17.6195 8.78543L14.5213 10.4142L15.113 6.96434L12.6064 4.52109L16.0704 4.01777L17.6195 0.878906L19.1686 4.01777L22.6324 4.52109L20.126 6.96434L20.7177 10.4142L17.6195 8.78543Z" stroke="white" stroke-width="2" stroke-miterlimit="10" stroke-linecap="round" stroke-linejoin="round"/>
<path d="M17.6195 21.5841L14.5213 23.2129L15.113 19.763L12.6064 17.3197L16.0704 16.8164L17.6195 13.6777L19.1686 16.8164L22.6324 17.3197L20.126 19.763L20.7177 23.2129L17.6195 21.5841Z" stroke="white" stroke-width="2" stroke-miterlimit="10" stroke-linecap="round" stroke-linejoin="round"/>
<path d="M17.6195 34.3828L14.5213 36.0116L15.113 32.5617L12.6064 30.1185L16.0704 29.6152L17.6195 26.4763L19.1686 29.6152L22.6324 30.1185L20.126 32.5617L20.7177 36.0116L17.6195 34.3828Z" stroke="white" stroke-width="2" stroke-miterlimit="10" stroke-linecap="round" stroke-linejoin="round"/>
<path d="M36.4196 10.4145H52.6267C53.4118 10.4145 54.0493 9.77697 54.0493 8.99181V4.98868C54.0493 4.20353 53.4118 3.5672 52.6267 3.5672H28.5177C27.7325 3.5672 27.0962 4.20353 27.0962 4.98868V8.99181C27.0962 9.77697 27.7325 10.4145 28.5177 10.4145H32.3181" stroke="white" stroke-width="2" stroke-miterlimit="10" stroke-linecap="round" stroke-linejoin="round"/>
<path d="M52.627 23.2129H28.5183C27.7329 23.2129 27.0962 22.5762 27.0962 21.7908V17.7877C27.0962 17.0023 27.7329 16.3656 28.5183 16.3656H52.627C53.4124 16.3656 54.0491 17.0023 54.0491 17.7877V21.7908C54.0491 22.5762 53.4124 23.2129 52.627 23.2129Z" stroke="white" stroke-width="2" stroke-miterlimit="10" stroke-linecap="round" stroke-linejoin="round"/>
<path d="M46.5763 29.1644H52.6267C53.4118 29.1644 54.0493 29.8008 54.0493 30.5859V34.589C54.0493 35.3754 53.4118 36.0117 52.6267 36.0117H28.5177C27.7325 36.0117 27.0962 35.3754 27.0962 34.589V30.5859C27.0962 29.8008 27.7325 29.1644 28.5177 29.1644H42.4747" stroke="white" stroke-width="2" stroke-miterlimit="10" stroke-linecap="round" stroke-linejoin="round"/>
</g>
<defs>
<clipPath id="clip0_24_3844">
<rect width="60" height="60" fill="white"/>
</clipPath>
</defs>
</svg>
