<?xml version="1.0" encoding="UTF-8"?>
<svg id="Layer_2" data-name="Layer 2" xmlns="http://www.w3.org/2000/svg" viewBox="0 0 613.65 339.6">
  <g id="Plant">
    <g>
      <g>
        <rect x="290.45" y="29.2" width="268.58" height="159.79" rx="10.51" ry="10.51" fill="#fff"/>
        <path d="m559.04,39.71v4.16h-268.58v-4.16c0-5.81,4.7-10.51,10.51-10.51h247.56c5.81,0,10.51,4.7,10.51,10.51Z" fill="#ad2446"/>
        <rect x="290.45" y="29.2" width="268.58" height="159.79" rx="10.51" ry="10.51" fill="none" stroke="#263238" stroke-linecap="round" stroke-linejoin="round" stroke-width="1.17"/>
        <path d="m559.04,39.71v4.16h-268.58v-4.16c0-5.81,4.7-10.51,10.51-10.51h247.56c5.81,0,10.51,4.7,10.51,10.51Z" fill="none" stroke="#263238" stroke-linecap="round" stroke-linejoin="round" stroke-width="1.17"/>
        <path d="m320.62,36.54c0,1.48-1.2,2.68-2.68,2.68s-2.68-1.2-2.68-2.68,1.2-2.68,2.68-2.68,2.68,1.2,2.68,2.68Z" fill="#263238"/>
        <path d="m334.65,36.54c0,1.48-1.2,2.68-2.68,2.68s-2.68-1.2-2.68-2.68,1.2-2.68,2.68-2.68,2.68,1.2,2.68,2.68Z" fill="#263238"/>
        <circle cx="346" cy="36.54" r="2.68" fill="#263238"/>
        <g>
          <rect x="306.38" y="55.5" width="84.6" height="45.19" rx="3.27" ry="3.27" fill="none" stroke="#263238" stroke-linecap="round" stroke-linejoin="round" stroke-width="1.17"/>
          <g>
            <rect x="316.8" y="86.39" width="8.51" height="8.51" fill="#ad2446"/>
            <rect x="329.26" y="75.2" width="8.51" height="19.82" fill="#ad2446"/>
            <rect x="343.3" y="78.6" width="8.51" height="16.61" fill="#ad2446"/>
            <rect x="358.04" y="62.06" width="8.51" height="32.59" fill="#ad2446"/>
            <rect x="372.78" y="62.31" width="8.51" height="32.59" fill="#ad2446"/>
          </g>
        </g>
        <g>
          <circle cx="495.87" cy="79.24" r="23.8" fill="#eaba36"/>
          <path d="m497.82,94.08v2.44h-3.99v-2.44c-3.37-.84-5.54-3.68-5.54-7.4v-1.11l4.52-.49v1.15c0,2.26,1.15,3.63,3.01,3.63s3.01-1.15,3.01-2.97c0-2.17-2.04-4.03-4.43-6.03-2.84-2.35-5.67-5.14-5.67-9.09s1.86-6.6,5.1-7.4v-2.44h3.99v2.44c3.28.75,5.19,3.5,5.19,7.45v.8l-4.52.49v-.89c0-2.39-.93-3.63-2.57-3.63s-2.57,1.02-2.57,2.97c0,2.17,2.08,3.99,4.43,6.03,2.79,2.39,5.67,5.14,5.67,9.09s-2.22,6.6-5.63,7.4Z" fill="#ad2446"/>
        </g>
        <g>
          <g>
            <line x1="304.4" y1="123.79" x2="311.36" y2="123.79" fill="none" stroke="#263238" stroke-linecap="round" stroke-linejoin="round" stroke-width="1.17"/>
            <line x1="304.4" y1="137.23" x2="311.36" y2="137.23" fill="none" stroke="#263238" stroke-linecap="round" stroke-linejoin="round" stroke-width="1.17"/>
            <line x1="304.4" y1="150.66" x2="311.36" y2="150.66" fill="none" stroke="#263238" stroke-linecap="round" stroke-linejoin="round" stroke-width="1.17"/>
            <line x1="304.4" y1="164.09" x2="311.36" y2="164.09" fill="none" stroke="#263238" stroke-linecap="round" stroke-linejoin="round" stroke-width="1.17"/>
          </g>
          <g>
            <line x1="326.68" y1="174.25" x2="326.68" y2="168.85" fill="none" stroke="#263238" stroke-linecap="round" stroke-linejoin="round" stroke-width="1.17"/>
            <line x1="337.69" y1="174.25" x2="337.69" y2="168.85" fill="none" stroke="#263238" stroke-linecap="round" stroke-linejoin="round" stroke-width="1.17"/>
            <line x1="348.71" y1="174.25" x2="348.71" y2="168.85" fill="none" stroke="#263238" stroke-linecap="round" stroke-linejoin="round" stroke-width="1.17"/>
            <line x1="359.73" y1="174.25" x2="359.73" y2="168.85" fill="none" stroke="#263238" stroke-linecap="round" stroke-linejoin="round" stroke-width="1.17"/>
            <line x1="370.74" y1="174.25" x2="370.74" y2="168.85" fill="none" stroke="#263238" stroke-linecap="round" stroke-linejoin="round" stroke-width="1.17"/>
            <line x1="381.76" y1="174.25" x2="381.76" y2="168.85" fill="none" stroke="#263238" stroke-linecap="round" stroke-linejoin="round" stroke-width="1.17"/>
            <line x1="392.78" y1="174.25" x2="392.78" y2="168.85" fill="none" stroke="#263238" stroke-linecap="round" stroke-linejoin="round" stroke-width="1.17"/>
            <line x1="403.8" y1="174.25" x2="403.8" y2="168.85" fill="none" stroke="#263238" stroke-linecap="round" stroke-linejoin="round" stroke-width="1.17"/>
            <line x1="414.81" y1="174.25" x2="414.81" y2="168.85" fill="none" stroke="#263238" stroke-linecap="round" stroke-linejoin="round" stroke-width="1.17"/>
            <line x1="425.83" y1="174.25" x2="425.83" y2="168.85" fill="none" stroke="#263238" stroke-linecap="round" stroke-linejoin="round" stroke-width="1.17"/>
            <line x1="436.85" y1="174.25" x2="436.85" y2="168.85" fill="none" stroke="#263238" stroke-linecap="round" stroke-linejoin="round" stroke-width="1.17"/>
            <line x1="447.86" y1="174.25" x2="447.86" y2="168.85" fill="none" stroke="#263238" stroke-linecap="round" stroke-linejoin="round" stroke-width="1.17"/>
            <line x1="458.88" y1="174.25" x2="458.88" y2="168.85" fill="none" stroke="#263238" stroke-linecap="round" stroke-linejoin="round" stroke-width="1.17"/>
            <line x1="469.9" y1="174.25" x2="469.9" y2="168.85" fill="none" stroke="#263238" stroke-linecap="round" stroke-linejoin="round" stroke-width="1.17"/>
            <line x1="480.92" y1="174.25" x2="480.92" y2="168.85" fill="none" stroke="#263238" stroke-linecap="round" stroke-linejoin="round" stroke-width="1.17"/>
            <line x1="491.52" y1="174.25" x2="491.52" y2="168.85" fill="none" stroke="#263238" stroke-linecap="round" stroke-linejoin="round" stroke-width="1.17"/>
            <line x1="502.12" y1="174.25" x2="502.12" y2="168.85" fill="none" stroke="#263238" stroke-linecap="round" stroke-linejoin="round" stroke-width="1.17"/>
            <line x1="512.71" y1="174.25" x2="512.71" y2="168.85" fill="none" stroke="#263238" stroke-linecap="round" stroke-linejoin="round" stroke-width="1.17"/>
          </g>
          <path d="m540.75,115.57v52.21c0,3.58-3.64,6.47-8.13,6.47h-220.09c-2.99,0-5.6-1.28-7.01-3.19-.71-.96-1.12-2.08-1.12-3.28v-52.21c0-3.58,3.64-6.47,8.13-6.47h220.09c4.49,0,8.13,2.9,8.13,6.47Z" fill="none" stroke="#da0066" stroke-linecap="round" stroke-linejoin="round" stroke-width="1.17"/>
          <g>
            <path d="m473.77,14.46l-70.26,94.64-26.87,36.19-29.35-18.69-35.91,47.65h-.52c-2.38,0-4.46-1.28-5.58-3.19l40.35-53.56,29.32,18.67,20.09-27.07L468.32,10.42l5.45,4.04Z" fill="#263238"/>
            <polygon points="455.95 15.66 481.77 0 474.63 27.08 470.08 14.55 455.95 15.66" fill="#263238"/>
          </g>
        </g>
      </g>
      <g>
        <g>
          <path d="m584.15,154.86c0,20.23-14.11,37.18-33.03,41.53-.05.02-.08.02-.12.03-1.12.25-2.24.47-3.39.64-1.99.28-4.02.44-6.09.44-23.55,0-42.65-19.1-42.65-42.63s18.26-41.79,41.08-42.6c.39-.03.79-.03,1.2-.03.12-.02.25-.02.37-.02.14,0,.3,0,.44.02,5.94.05,11.58,1.32,16.7,3.59,15.01,6.59,25.5,21.6,25.5,39.04Z" fill="#eaba36"/>
          <path d="m558.65,115.82c-49.24-2.56-49.47,52.1-49.47,52.1,0,0-7.52-17.84,4.75-37.6,6.85-11.05,18.8-15.93,28.01-18.09,5.94.05,11.58,1.32,16.7,3.59Z" fill="#fff" opacity=".4"/>
          <path d="m584.15,154.86c0,20.28-14.17,37.26-33.16,41.56-3.05.7-6.21,1.07-9.48,1.07-23.55,0-42.65-19.1-42.65-42.63s18.26-41.8,41.08-42.6c.51-.03,1.04-.05,1.57-.05,23.54,0,42.63,19.1,42.63,42.65Z" fill="none" stroke="#263238" stroke-linecap="round" stroke-linejoin="round" stroke-width="1.17"/>
          <path d="m584.15,154.86c0,20.28-14.17,37.26-33.16,41.56-.51.03-1.04.05-1.57.05-23.55,0-42.63-19.1-42.63-42.65,0-20.28,14.17-37.26,33.16-41.56.51-.03,1.04-.05,1.57-.05,23.54,0,42.63,19.1,42.63,42.65Z" fill="none" stroke="#263238" stroke-linecap="round" stroke-linejoin="round" stroke-width="1.17"/>
          <path d="m556.2,181.55l1.1,4.5-7.37,1.81-1.1-4.5c-6.6-.03-11.9-4.29-13.59-11.16l-.5-2.05,8.13-2.95.52,2.13c1.02,4.18,3.78,6.19,7.21,5.35,3.44-.84,5.05-3.49,4.22-6.85-.98-4.01-5.59-6.53-10.92-9.13-6.3-3.05-12.81-6.93-14.6-14.21-1.75-7.12.45-13.04,6.06-15.98l-1.1-4.5,7.37-1.81,1.1,4.5c6.4-.09,11.17,4.12,12.95,11.4l.36,1.47-8.13,2.95-.4-1.64c-1.08-4.42-3.37-6.29-6.4-5.55-3.03.74-4.29,3.05-3.4,6.65.98,4.01,5.65,6.42,10.92,9.13,6.24,3.16,12.81,6.93,14.6,14.22,1.71,6.96-1.1,13.2-7.04,16.22Z" fill="#fff"/>
          <line x1="519.72" y1="191.51" x2="528.73" y2="191.1" fill="none" stroke="#263238" stroke-linecap="round" stroke-linejoin="round" stroke-width="1.17"/>
          <line x1="515.39" y1="188.52" x2="523.25" y2="187.86" fill="none" stroke="#263238" stroke-linecap="round" stroke-linejoin="round" stroke-width="1.17"/>
          <line x1="511.86" y1="185.36" x2="519.72" y2="184.7" fill="none" stroke="#263238" stroke-linecap="round" stroke-linejoin="round" stroke-width="1.17"/>
          <line x1="510.79" y1="125.29" x2="517.52" y2="125.29" fill="none" stroke="#263238" stroke-linecap="round" stroke-linejoin="round" stroke-width="1.17"/>
          <line x1="514.11" y1="122.19" x2="520.81" y2="121.88" fill="none" stroke="#263238" stroke-linecap="round" stroke-linejoin="round" stroke-width="1.17"/>
          <line x1="518.31" y1="119.08" x2="525.38" y2="118.41" fill="none" stroke="#263238" stroke-linecap="round" stroke-linejoin="round" stroke-width="1.17"/>
          <path d="m551.11,196.39s-.08.02-.12.03c-3.05.7-6.21,1.07-9.48,1.07-23.55,0-42.65-19.1-42.65-42.63s18.26-41.79,41.08-42.6c.39-.03.79-.03,1.2-.03-10.39,3.28-27.83,11.65-32.49,29.12-6.62,24.8,8.27,52.97,42.46,55.05Z" opacity=".3"/>
        </g>
        <g>
          <path d="m608.34,87.74c-7.08,10.02-20.01,13.47-30.89,8.97-.05-.02-.11-.05-.16-.06-.81-.34-1.62-.73-2.41-1.17-.85-.47-1.68-.98-2.49-1.55-11.64-8.22-14.4-24.32-6.18-35.95,7.91-11.19,23.09-14.17,34.59-7.05.2.11.39.23.57.36.26.16.53.34.79.53.4.28.79.57,1.17.89,10.63,8.42,12.94,23.83,5,35.05Z" fill="#eaba36"/>
          <path d="m569.43,88.09s-4.22-12.41,1.39-21.54c7.04-11.46,17.83-16.68,32.52-13.86,0,0-7.97-5.38-21.29-1.56-13.33,3.81-20.48,22.15-12.62,36.96Z" fill="#fff" opacity=".4"/>
          <path d="m608.33,87.75c-7.08,10.02-20.01,13.46-30.89,8.95-1.75-.72-3.44-1.64-5.06-2.78-11.63-8.22-14.4-24.32-6.18-35.95,8.04-11.37,23.61-14.27,35.16-6.7.26.16.53.34.79.52,11.63,8.22,14.39,24.32,6.17,35.95Z" fill="none" stroke="#263238" stroke-linecap="round" stroke-linejoin="round" stroke-width="1.17"/>
          <path d="m608.33,87.75c-7.08,10.02-20.01,13.46-30.89,8.95-.26-.16-.53-.34-.79-.52-11.63-8.22-14.39-24.32-6.17-35.95,7.08-10.02,20.01-13.46,30.89-8.95.26.16.53.34.79.52,11.63,8.22,14.39,24.32,6.17,35.95Z" fill="none" stroke="#263238" stroke-linecap="round" stroke-linejoin="round" stroke-width="1.17"/>
          <path d="m585.22,91.17l-1.03,2.61-4.27-1.68,1.03-2.61c-3.25-2.32-4.38-6.27-2.81-10.26l.47-1.19,5.05,1.38-.49,1.23c-.95,2.42-.3,4.38,1.7,5.16,1.99.78,3.71.04,4.48-1.91.91-2.32-.48-5.18-2.21-8.32-2.05-3.71-3.91-7.89-2.25-12.12,1.62-4.13,4.77-6.29,8.57-5.78l1.03-2.61,4.27,1.68-1.03,2.61c3.19,2.19,4.08,5.93,2.42,10.16l-.34.85-5.05-1.38.37-.95c1.01-2.56.53-4.28-1.22-4.97-1.76-.69-3.18,0-4,2.1-.91,2.32.55,5.15,2.21,8.32,1.98,3.74,3.91,7.89,2.25,12.12-1.59,4.03-5.15,6.14-9.14,5.55Z" fill="#fff"/>
          <path d="m600.8,50.92c-7.08-1.26-15.97-1.96-20.79,1.13-8.84,5.67-14.34,12.82-14.26,24.41.08,11.59,10.91,19.72,10.91,19.72l.64.47c-1.69-.71-3.34-1.62-4.89-2.72-11.64-8.22-14.4-24.32-6.18-35.95,7.91-11.19,23.09-14.17,34.59-7.05Z" opacity=".3"/>
        </g>
      </g>
      <g>
        <path d="m84.77,324.15c17.04-13.94,19.24-37.38,16.83-58.1-.4-3.46-.32-7.15-2.24-10.05-1.92-2.9-5.99-4.66-9.02-2.94-2.51,1.43-3.4,4.52-4.66,7.11-1.67,3.46-4.34,6.42-7.6,8.45-2.14,1.33-4.85,2.26-7.16,1.24-3.17-1.4-3.86-5.5-4.12-8.95-.48-6.43-.97-12.86-1.46-19.29-.26-3.45-.54-6.97-1.89-10.16-1.35-3.18-4-6.03-7.4-6.67-3.4-.64-7.36,1.59-7.78,5.02-.18,1.43.23,2.86.25,4.3.02,1.44-.53,3.08-1.87,3.59-1.36.52-2.84-.34-3.97-1.27-3.89-3.19-6.71-7.47-9.36-11.74-2.65-4.27-5.25-8.65-8.83-12.18-3.58-3.53-8.36-6.16-13.38-6.03-5.03.13-10.11,3.62-10.98,8.57-.87,4.97,2.41,9.66,5.86,13.34,5.12,5.46,11.03,10.17,17.49,13.94,1.16.68,2.43,1.42,2.95,2.66.95,2.24-1.07,4.7-3.31,5.65-2.54,1.07-5.38,1.04-8.08,1.58-2.7.54-5.55,1.97-6.38,4.6-1.14,3.64,2.15,7.09,5.28,9.27,6.28,4.36,13.31,7.63,20.69,9.64,2.65.72,5.42,1.31,7.64,2.92,2.22,1.61,3.72,4.61,2.67,7.14-1.05,2.54-4.2,3.58-6.94,3.31-2.73-.27-5.26-1.51-7.9-2.26-4.95-1.39-11.12-.55-13.86,3.79-1.8,2.86-1.67,6.62-.39,9.75,1.28,3.13,3.58,5.72,5.99,8.09,8.42,8.28,18.86,14.64,30.31,17.53,11.45,2.89,21.86,3.07,32.6-1.83" fill="#ebebeb"/>
        <path d="m86.26,339.54c-1.44-8.16-4.07-17.72-8.04-27.94-3.96-10.22-9.24-21.07-15.15-32.24-1.49-2.78-2.96-5.54-4.41-8.25-1.45-2.71-2.89-5.38-4.47-7.92-3.13-5.09-6.52-9.74-9.89-14.06-3.37-4.32-6.72-8.3-9.88-12-3.17-3.69-6.19-7.08-9.08-10.05-5.76-5.97-10.97-10.23-14.67-13.01-1.85-1.4-3.32-2.44-4.32-3.13-.49-.33-.87-.59-1.15-.78-.26-.17-.4-.25-.4-.25,0,0,.12.11.37.29.27.2.64.47,1.12.82.98.72,2.43,1.78,4.26,3.2,3.66,2.83,8.82,7.12,14.52,13.11,2.86,2.98,5.86,6.38,9.02,10.08,3.15,3.71,6.48,7.7,9.83,12.02,3.35,4.32,6.73,8.96,9.83,14.03,1.56,2.53,2.99,5.19,4.45,7.9,1.45,2.71,2.92,5.46,4.41,8.25,5.91,11.16,11.19,21.98,15.16,32.17,3.99,10.18,6.65,19.7,8.13,27.83" fill="#e0e0e0"/>
        <path d="m54.05,263.15s.1-.53.2-1.5c.1-.97.2-2.37.3-4.11.2-3.47.32-8.28.45-13.58.12-5.3.33-10.1.6-13.56.13-1.73.26-3.13.36-4.1.1-.97.13-1.5.1-1.51-.04,0-.14.52-.3,1.48-.16.96-.34,2.36-.53,4.09-.37,3.46-.64,8.27-.76,13.58-.11,5.25-.21,10.01-.29,13.58-.05,1.66-.1,3.05-.13,4.11-.03.97-.03,1.51,0,1.51Z" fill="#e0e0e0"/>
        <path d="m8.46,258.57s.16.03.47.04c.37,0,.81,0,1.34,0,1.16,0,2.84,0,4.92.05,4.15.09,9.88.42,16.18,1.06,6.3.65,11.98,1.49,16.07,2.22,2.05.35,3.69.68,4.83.9.52.1.95.18,1.32.25.3.05.46.07.47.05,0-.02-.15-.07-.44-.16-.35-.09-.78-.21-1.29-.35-1.13-.28-2.77-.67-4.81-1.07-4.08-.82-9.77-1.72-16.09-2.38-6.32-.64-12.07-.92-16.23-.91-2.08-.01-3.77.05-4.93.11-.53.04-.97.07-1.34.09-.31.03-.47.05-.46.07Z" fill="#e0e0e0"/>
        <path d="m77.65,310.81s.1-.19.25-.57c.16-.43.37-.99.63-1.67.54-1.45,1.27-3.57,2.14-6.2,1.74-5.26,3.92-12.6,6.23-20.73,2.31-8.13,4.43-15.48,6.08-20.76.82-2.59,1.49-4.71,1.98-6.25.22-.7.4-1.26.53-1.7.12-.39.17-.6.15-.61-.02,0-.1.19-.25.57-.16.43-.37.99-.63,1.67-.54,1.45-1.27,3.57-2.14,6.2-1.74,5.26-3.92,12.6-6.23,20.73-2.3,8.13-4.43,15.47-6.08,20.76-.82,2.59-1.49,4.71-1.98,6.25-.22.7-.4,1.26-.53,1.7-.12.39-.17.6-.15.6Z" fill="#e0e0e0"/>
        <path d="m16.41,296.74s.21.08.61.18c.46.11,1.05.25,1.78.42,1.61.37,3.84.88,6.56,1.5,5.54,1.27,13.17,3.12,21.6,5.19,8.43,2.07,16.08,3.86,21.64,5.04,2.78.59,5.04,1.05,6.6,1.34.74.13,1.34.24,1.8.32.41.07.63.09.64.08,0-.02-.21-.08-.62-.18-.46-.11-1.05-.25-1.78-.42-1.61-.37-3.84-.88-6.56-1.5-5.54-1.27-13.17-3.12-21.6-5.19-8.43-2.06-16.08-3.86-21.64-5.04-2.78-.59-5.04-1.05-6.6-1.34-.74-.13-1.34-.24-1.8-.32-.41-.07-.63-.1-.64-.08Z" fill="#e0e0e0"/>
      </g>
      <g>
        <path d="m505.52,211.98s-5.77-5.72-17.03,8.56c-11.26,14.28-16.16,22.83-16.16,22.83,0,0-2.8,2.9-4.66.27-1.85-2.63-3.76-9.43-7.86-9.09-4.26.35-6.49,4.58-7.03,11.35-.55,6.76-2.29,21.54-2.46,22.88-.16,1.31-1.28,3.07-2.83,1.48-1.55-1.59-9.59-15.15-15.79-10.95-6.21,4.2-4.64,23.29-4.51,25.38.13,2.09-.43,2.86-1.47,3.16-1.04.3-3.31-4.51-5.76-8.27-2.44-3.76-5.94-7.7-9.31-4.98-3.38,2.72-6.95,16.1,1.56,40.69l4.69,11.14,12.02,1.71c25.94,2.09,38-4.72,39.79-8.67,1.79-3.95-2.89-6.35-7.15-7.77-4.25-1.42-9.48-2.42-9.45-3.5s.64-1.82,2.7-2.21c2.06-.4,20.94-3.66,23.45-10.72,2.51-7.06-12.63-11.45-14.56-12.55-1.93-1.1-.51-2.62.72-3.11,1.25-.49,15.12-5.88,21.53-8.1,6.41-2.22,9.96-5.44,9.23-9.65-.7-4.06-7.76-4.2-10.77-5.34-3.01-1.14-.9-4.58-.9-4.58,0,0,7.06-6.88,18.06-21.36,11-14.48,3.83-18.7,3.83-18.7" fill="#ebebeb"/>
        <path d="m495.41,224.75s-.06.11-.2.31c-.16.23-.37.52-.63.88-.59.8-1.42,1.92-2.46,3.34-2.15,2.89-5.29,7.06-9.2,12.18-7.82,10.25-18.75,24.3-30.9,39.77-12.12,15.47-23.08,29.48-31.05,39.66-3.93,5.06-7.12,9.17-9.36,12.05-1.09,1.39-1.95,2.48-2.56,3.27-.28.35-.5.62-.68.84-.16.19-.24.28-.25.27,0,0,.06-.11.2-.31.16-.23.37-.52.63-.88.59-.8,1.42-1.92,2.46-3.34,2.15-2.89,5.29-7.05,9.2-12.18,7.82-10.25,18.75-24.3,30.9-39.77,12.11-15.47,23.07-29.47,31.04-39.65,3.93-5.06,7.12-9.17,9.36-12.05,1.09-1.39,1.95-2.48,2.56-3.27.28-.35.5-.62.68-.84.16-.19.24-.28.25-.27Z" fill="#e0e0e0"/>
        <path d="m462.08,244.16c.08,0,.27,1.22.46,3.22.18,2,.35,4.77.46,7.83.08,2.94.15,5.61.21,7.83.04,2,.09,3.24,0,3.25-.09,0-.29-1.22-.45-3.23-.16-2-.29-4.78-.4-7.83-.1-2.94-.19-5.6-.27-7.83-.07-2-.09-3.25,0-3.25Z" fill="#e0e0e0"/>
        <path d="m464.25,266.73c-.01-.18,5.68-.8,12.71-1.38,7.04-.59,12.75-.92,12.77-.74.01.18-5.68.8-12.71,1.38-7.03.59-12.75.92-12.77.74Z" fill="#e0e0e0"/>
        <path d="m443.82,290.48c.02-.09,1.27.14,3.28.52,2.01.38,4.78.91,7.86,1.4,3.08.5,5.88.87,7.91,1.13,2.03.26,3.29.44,3.28.53,0,.09-1.28.07-3.32-.08-2.05-.15-4.87-.45-7.96-.95-3.09-.49-5.87-1.1-7.86-1.59-1.99-.5-3.2-.89-3.18-.97Z" fill="#e0e0e0"/>
        <path d="m437.37,270.5c.08-.03.53,1.06,1.19,2.83.66,1.77,1.53,4.24,2.45,6.98.92,2.74,1.72,5.23,2.27,7.04s.85,2.95.76,2.97c-.08.03-.53-1.06-1.19-2.83-.66-1.77-1.53-4.24-2.45-6.98-.92-2.74-1.72-5.22-2.27-7.04-.55-1.81-.85-2.95-.76-2.97Z" fill="#e0e0e0"/>
        <path d="m416.67,289.17c.08-.03.65,1.36,1.5,3.63.85,2.27,1.99,5.42,3.2,8.92,1.22,3.5,2.28,6.67,3.03,8.98.74,2.31,1.16,3.75,1.08,3.78-.08.03-.65-1.36-1.5-3.63-.85-2.27-1.99-5.43-3.2-8.92-1.22-3.5-2.28-6.67-3.03-8.98-.74-2.31-1.16-3.75-1.08-3.78Z" fill="#e0e0e0"/>
        <path d="m425.44,313.82c.02-.09,1.61.15,4.17.55,2.57.4,6.11.95,10.03,1.47,3.93.52,7.49.92,10.07,1.2,2.58.28,4.18.46,4.17.56,0,.08-1.62.06-4.21-.1-2.6-.17-6.18-.49-10.12-1.01-3.94-.52-7.48-1.14-10.03-1.66-2.55-.52-4.11-.91-4.09-1Z" fill="#e0e0e0"/>
      </g>
      <g>
        <path d="m121.97,128.14c.01-.05.47.33,1.46.24.48-.06,1.08-.27,1.57-.78.47-.51.81-1.32,1.3-2.12,1.91-3.33,4.63-8.08,7.98-13.94.85-1.47,1.73-3.01,2.66-4.61.46-.8.93-1.62,1.41-2.45.23-.42.52-.83.65-1.24.14-.42.15-.88.04-1.31-.12-.43-.36-.83-.71-1.12-.33-.27-.84-.5-1.27-.76-.9-.5-1.81-1.01-2.74-1.53-1.85-1.04-3.76-2.1-5.72-3.2-7.82-4.39-16.42-9.21-25.44-14.28-.99-.58-2.37-.2-2.99.75-.64,1.1-1.28,2.18-1.91,3.26-1.27,2.18-2.52,4.32-3.74,6.43-2.46,4.21-4.83,8.28-7.09,12.15-.28.48-.56.96-.84,1.44-.28.44-.41.92-.4,1.41.02.48.19.96.5,1.32.28.38.74.58,1.22.86,1.85,1.05,3.64,2.06,5.38,3.04,3.47,1.97,6.7,3.8,9.65,5.47,5.86,3.35,10.62,6.06,13.95,7.96,1.61.94,2.88,1.67,3.78,2.19.4.24.72.43.97.58.22.13.33.21.32.22,0,0-.12-.05-.35-.16-.26-.14-.59-.31-1.01-.53-.91-.5-2.2-1.2-3.84-2.09-3.36-1.86-8.15-4.51-14.05-7.78-2.96-1.65-6.21-3.46-9.69-5.4-1.74-.97-3.54-1.98-5.39-3.02-.43-.25-1-.49-1.38-.98-.39-.46-.61-1.06-.64-1.66-.03-.6.16-1.23.47-1.72.28-.48.56-.96.84-1.45,2.25-3.88,4.61-7.95,7.06-12.17,1.22-2.11,2.47-4.26,3.74-6.44.64-1.09,1.28-2.2,1.93-3.31.79-1.2,2.54-1.7,3.83-.94,9.01,5.08,17.6,9.92,25.41,14.32,1.95,1.1,3.85,2.18,5.7,3.22.92.52,1.83,1.04,2.73,1.54.45.27.89.46,1.35.82.43.36.73.86.87,1.39.14.53.11,1.1-.05,1.61-.18.53-.48.91-.7,1.33-.49.83-.96,1.64-1.43,2.44-.94,1.6-1.83,3.13-2.69,4.59-3.43,5.81-6.21,10.53-8.16,13.83-.51.8-.84,1.57-1.38,2.13-.54.53-1.19.74-1.69.78-.51.03-.9-.08-1.13-.18-.24-.1-.34-.19-.34-.19Z" fill="#e0e0e0"/>
        <polygon points="115.46 102.9 118.57 108.41 112.16 108.53 105.76 108.65 109.06 103.02 112.36 97.39 115.46 102.9" fill="#e0e0e0"/>
      </g>
      <g>
        <g>
          <path d="m137.19,259.43l-37.18-37.34,18.69-34.33c18.69-23.93,58.26-22.39,58.26-22.39,0,0,26.93-2.59,58.35,3.52,31.43,6.12,28.9,26.91,28.9,26.91l4.21,77.04,4.51,62.73-115.92,2.34-19.83-78.49" fill="#5b9cd5"/>
          <path d="m199.63,334.31l-103.82,1.27c-24.95.31-41.59-25.63-30.92-48.19l44.39-82.33,40.44,27.34-27.58,57.25,84.05,1.5-6.55,43.16Z" fill="#5b9cd5"/>
          <path d="m260.5,183.31l83.32,128.64-48.61,3.18s-29.03-45.74-28.37-44.8c1.19,1.71-6.34-87.02-6.34-87.02Z" fill="#5b9cd5"/>
          <path d="m147.63,239.79s.02-.23.12-.66c.12-.5.26-1.11.44-1.86.38-1.62.94-3.96,1.53-6.87.58-2.91,1.21-6.39,1.63-10.29.39-3.89.64-8.22.04-12.69-.66-4.45-2.33-8.48-4.3-11.84-1.97-3.38-4.18-6.15-6.18-8.33-2.01-2.18-3.78-3.8-5.04-4.88-1.26-1.08-1.98-1.66-1.95-1.7.01-.02.21.11.57.36.35.26.9.62,1.54,1.15,1.32,1.02,3.15,2.61,5.22,4.76,2.07,2.15,4.34,4.92,6.36,8.34,2.02,3.4,3.75,7.5,4.43,12.05.61,4.55.34,8.92-.09,12.84-.46,3.92-1.13,7.41-1.77,10.32-.65,2.91-1.27,5.24-1.73,6.84-.23.8-.42,1.42-.56,1.83-.14.42-.22.63-.24.63Z" fill="#263238"/>
          <path d="m144.29,244.23s-.22.68-.71,1.86c-.5,1.18-1.24,2.88-2.18,4.97-1.88,4.18-4.56,9.91-7.64,16.19-3.08,6.28-5.98,11.91-8.13,15.95-1.08,2.02-1.96,3.65-2.59,4.77-.63,1.12-1,1.72-1.03,1.7-.04-.02.25-.67.81-1.82.62-1.25,1.43-2.88,2.41-4.86,2.09-4.2,4.88-9.81,7.96-16.03,3.02-6.24,5.76-11.88,7.8-16.1.96-1.98,1.76-3.63,2.37-4.88.57-1.15.9-1.77.94-1.76Z" fill="#263238"/>
          <path d="m199.63,334.31s0-.07,0-.22c.01-.17.03-.38.05-.63.06-.6.14-1.41.25-2.45.24-2.19.58-5.31,1.02-9.24.92-7.96,2.21-19.17,3.74-32.38l.29.33c-9.34,0-19.73.02-30.67.03-20.94-.04-39.89-.07-53.66-.09-6.83-.04-12.38-.08-16.26-.1-1.89-.03-3.37-.05-4.42-.06-.48-.01-.86-.02-1.15-.03-.26-.01-.39-.02-.39-.03s.13-.02.39-.03c.29,0,.67-.02,1.15-.03,1.05-.01,2.53-.03,4.42-.06,3.88-.02,9.43-.06,16.26-.1,13.77-.02,32.72-.06,53.66-.09,10.94,0,21.33.02,30.67.03h.33s-.04.33-.04.33c-1.62,13.2-2.99,24.4-3.97,32.35-.5,3.92-.9,7.04-1.18,9.22-.14,1.04-.26,1.85-.34,2.44-.04.25-.07.46-.1.63-.02.14-.04.21-.05.21Z" fill="#263238"/>
          <path d="m122.86,290.52c-.09.05-.79-1-2.07-2.59-1.27-1.59-3.17-3.69-5.54-5.7-2.38-2-4.76-3.52-6.55-4.51-1.78-.99-2.94-1.51-2.9-1.61.03-.07,1.25.3,3.11,1.21,1.86.9,4.33,2.38,6.75,4.42,2.42,2.04,4.29,4.23,5.49,5.91,1.2,1.68,1.77,2.83,1.71,2.87Z" fill="#263238"/>
          <path d="m270.14,298.67s-.08-.36-.16-1.06c-.09-.76-.2-1.78-.35-3.06-.28-2.66-.67-6.52-1.08-11.29-.84-9.54-1.81-22.73-2.68-37.31-.86-14.59-1.47-27.8-1.81-37.37-.18-4.78-.29-8.66-.35-11.33-.02-1.29-.04-2.32-.05-3.08,0-.7,0-1.08.03-1.08.02,0,.06.37.1,1.07.04.76.1,1.79.17,3.08.13,2.73.32,6.59.55,11.32.46,9.56,1.14,22.77,2,37.35.87,14.58,1.77,27.77,2.49,37.31.37,4.73.66,8.57.87,11.3.1,1.29.17,2.32.23,3.07.04.7.06,1.07.04,1.08Z" fill="#263238"/>
          <path d="m177.46,228.67s.01-.6.13-1.68c.14-1.17.33-2.74.56-4.66.54-4.07,1.28-9.63,2.14-16.08l.48.29c-2.48,1.74-5.17,3.62-7.97,5.58-2.84,1.98-5.58,3.88-8.1,5.64l-.58.41.11-.7c.98-6.39,1.82-11.91,2.44-15.94.31-1.9.57-3.44.76-4.6.19-1.07.31-1.64.34-1.64.04,0-.02.59-.14,1.67-.15,1.17-.34,2.72-.58,4.62-.56,4.04-1.32,9.56-2.21,15.97l-.48-.29c2.52-1.76,5.25-3.67,8.09-5.66,2.8-1.95,5.5-3.82,7.98-5.55l.58-.4-.1.7c-.95,6.43-1.77,11.99-2.36,16.05-.3,1.91-.55,3.46-.74,4.63-.18,1.08-.3,1.66-.34,1.65Z" fill="#e0e0e0"/>
          <path d="m223.8,233.67s-.45-.39-1.21-1.18c-.81-.86-1.89-2-3.22-3.41-2.78-3.01-6.59-7.14-11-11.92l.53-.18c-.25,3.02-.52,6.29-.8,9.69-.3,3.45-.58,6.78-.85,9.84l-.06.71-.47-.53c-4.29-4.84-7.99-9.01-10.7-12.06-1.26-1.45-2.28-2.63-3.05-3.52-.7-.83-1.07-1.29-1.04-1.31.03-.02.44.39,1.19,1.17.8.86,1.87,2,3.18,3.4,2.75,3.01,6.51,7.13,10.87,11.91l-.53.18c.25-3.06.53-6.39.81-9.84.29-3.4.57-6.67.83-9.69l.06-.7.47.52c4.34,4.84,8.09,9.02,10.83,12.08,1.27,1.46,2.31,2.64,3.09,3.53.71.83,1.08,1.29,1.06,1.31Z" fill="#e0e0e0"/>
          <path d="m247.12,232.02s-.27.53-.84,1.47c-.63,1-1.46,2.33-2.49,3.97-2.22,3.45-5.26,8.17-8.78,13.64l-.31-.47c2.98-.51,6.22-1.07,9.58-1.65,3.42-.58,6.7-1.14,9.73-1.65l.7-.12-.4.59c-3.61,5.37-6.72,10-8.99,13.38-1.09,1.58-1.98,2.87-2.64,3.83-.63.89-.98,1.36-1.01,1.34-.03-.02.27-.53.84-1.45.63-.99,1.47-2.31,2.5-3.93,2.22-3.41,5.27-8.09,8.8-13.51l.31.47c-3.03.52-6.31,1.09-9.73,1.68-3.36.57-6.6,1.12-9.59,1.62l-.7.12.39-.59c3.6-5.42,6.71-10.1,8.97-13.51,1.09-1.6,1.98-2.9,2.64-3.88.62-.9.98-1.37,1.01-1.35Z" fill="#e0e0e0"/>
          <path d="m216.11,255.88s-.27.53-.84,1.47c-.63,1-1.46,2.33-2.49,3.97-2.22,3.45-5.26,8.17-8.78,13.64l-.31-.47c2.98-.51,6.22-1.07,9.58-1.65,3.42-.58,6.7-1.14,9.73-1.65l.7-.12-.4.59c-3.61,5.37-6.72,10-8.99,13.38-1.09,1.58-1.98,2.87-2.64,3.84-.63.89-.98,1.36-1.01,1.34-.03-.02.27-.53.84-1.45.63-.99,1.47-2.31,2.5-3.93,2.22-3.41,5.27-8.09,8.8-13.51l.31.47c-3.03.52-6.31,1.09-9.73,1.68-3.36.57-6.6,1.12-9.59,1.62l-.7.12.39-.59c3.6-5.42,6.71-10.1,8.97-13.51,1.09-1.6,1.98-2.9,2.64-3.88.62-.9.98-1.37,1.01-1.35Z" fill="#e0e0e0"/>
          <path d="m283.11,231.68s-.27.53-.84,1.47c-.63,1-1.46,2.33-2.49,3.97-2.22,3.45-5.26,8.17-8.78,13.64l-.31-.47c2.98-.51,6.22-1.07,9.58-1.65,3.42-.58,6.7-1.14,9.73-1.65l.7-.12-.4.59c-3.61,5.37-6.72,10-8.99,13.38-1.09,1.58-1.98,2.87-2.64,3.84-.63.89-.98,1.36-1.01,1.34-.03-.02.27-.53.84-1.45.63-.99,1.47-2.31,2.5-3.93,2.22-3.41,5.27-8.09,8.8-13.51l.31.47c-3.03.52-6.31,1.09-9.73,1.68-3.36.57-6.6,1.12-9.59,1.62l-.7.12.39-.59c3.6-5.42,6.71-10.1,8.97-13.51,1.09-1.6,1.98-2.9,2.64-3.88.62-.9.98-1.37,1.01-1.35Z" fill="#e0e0e0"/>
          <path d="m126.2,211.97s-.27.53-.84,1.47c-.63,1-1.46,2.33-2.49,3.97-2.22,3.45-5.26,8.17-8.78,13.64l-.31-.47c2.98-.51,6.22-1.07,9.58-1.65,3.42-.58,6.7-1.14,9.73-1.65l.7-.12-.4.59c-3.61,5.37-6.72,10-8.99,13.38-1.09,1.58-1.98,2.87-2.64,3.83-.63.89-.98,1.36-1.01,1.34-.03-.02.27-.53.84-1.45.63-.99,1.47-2.31,2.5-3.93,2.22-3.41,5.27-8.09,8.8-13.51l.31.47c-3.03.52-6.31,1.09-9.73,1.68-3.36.57-6.6,1.12-9.59,1.62l-.7.12.39-.59c3.6-5.42,6.71-10.1,8.97-13.51,1.09-1.6,1.98-2.9,2.64-3.88.62-.9.98-1.37,1.01-1.35Z" fill="#e0e0e0"/>
          <path d="m77.52,304.04s.42.42,1.13,1.25c.76.91,1.76,2.12,3,3.6,2.59,3.18,6.13,7.54,10.23,12.59l-.54.15c.44-3,.91-6.25,1.41-9.62.51-3.43,1-6.73,1.46-9.76l.11-.7.44.56c3.98,5.1,7.41,9.49,9.92,12.71,1.16,1.53,2.11,2.77,2.82,3.71.65.87.99,1.35.96,1.37-.03.02-.42-.42-1.12-1.25-.75-.91-1.74-2.11-2.96-3.6-2.55-3.17-6.05-7.52-10.1-12.56l.54-.14c-.44,3.04-.93,6.34-1.43,9.77-.5,3.37-.99,6.62-1.44,9.62l-.1.7-.44-.55c-4.03-5.1-7.51-9.51-10.05-12.73-1.18-1.53-2.14-2.78-2.86-3.72-.66-.87-1-1.36-.97-1.38Z" fill="#e0e0e0"/>
          <path d="m188.69,244.43s-.59.11-1.67.22c-1.18.1-2.75.24-4.67.4-4.09.3-9.69.72-16.18,1.21l.19-.53c2.21,2.07,4.61,4.32,7.09,6.65,2.52,2.38,4.95,4.67,7.18,6.78l.52.49-.71.04c-6.46.35-12.03.66-16.1.88-1.92.08-3.48.15-4.65.2-1.08.04-1.67.04-1.68,0s.58-.11,1.66-.21c1.17-.09,2.73-.22,4.64-.38,4.06-.28,9.63-.67,16.08-1.11l-.19.53c-2.24-2.1-4.67-4.38-7.2-6.75-2.48-2.34-4.87-4.6-7.07-6.67l-.51-.49.7-.04c6.49-.39,12.1-.73,16.19-.98,1.93-.09,3.5-.17,4.69-.23,1.09-.04,1.68-.05,1.69-.01Z" fill="#e0e0e0"/>
          <path d="m161.41,306.48s.43.41,1.16,1.23c.77.89,1.81,2.08,3.07,3.54,2.65,3.13,6.28,7.42,10.48,12.38l-.54.16c.38-3,.79-6.26,1.22-9.65.44-3.44.87-6.74,1.27-9.79l.09-.71.45.55c4.08,5.02,7.6,9.35,10.17,12.51,1.19,1.5,2.17,2.73,2.9,3.65.67.86,1.01,1.33.99,1.35-.03.02-.43-.41-1.14-1.22-.76-.89-1.78-2.08-3.03-3.54-2.61-3.12-6.2-7.4-10.35-12.36l.54-.16c-.38,3.05-.8,6.36-1.24,9.79-.44,3.38-.86,6.64-1.25,9.64l-.09.7-.45-.54c-4.13-5.02-7.7-9.36-10.3-12.53-1.21-1.51-2.2-2.74-2.94-3.66-.68-.86-1.03-1.34-1-1.36Z" fill="#e0e0e0"/>
          <path d="m112.65,260.97s-.59.11-1.67.22c-1.18.1-2.75.24-4.67.4-4.09.3-9.69.72-16.18,1.21l.19-.53c2.21,2.07,4.61,4.32,7.09,6.65,2.52,2.38,4.95,4.67,7.18,6.78l.52.49-.71.04c-6.46.35-12.03.66-16.1.88-1.92.08-3.48.15-4.65.2-1.08.04-1.67.04-1.68,0,0-.04.58-.11,1.66-.21,1.17-.09,2.73-.22,4.64-.38,4.06-.28,9.63-.67,16.08-1.11l-.19.53c-2.24-2.1-4.67-4.38-7.2-6.75-2.48-2.34-4.87-4.6-7.07-6.67l-.51-.49.7-.04c6.49-.39,12.1-.73,16.19-.98,1.93-.09,3.5-.17,4.69-.23,1.09-.04,1.69-.05,1.69-.01Z" fill="#e0e0e0"/>
          <path d="m154.54,305.09s-.59.11-1.67.22c-1.18.1-2.75.24-4.67.4-4.09.3-9.69.72-16.18,1.21l.19-.53c2.21,2.07,4.61,4.32,7.09,6.65,2.52,2.38,4.95,4.67,7.18,6.78l.52.49-.71.04c-6.46.35-12.03.66-16.1.88-1.92.08-3.48.15-4.65.2-1.08.04-1.67.04-1.68,0s.58-.11,1.66-.21c1.17-.09,2.73-.22,4.64-.38,4.06-.28,9.63-.67,16.08-1.11l-.19.53c-2.24-2.1-4.67-4.38-7.2-6.75-2.48-2.34-4.87-4.6-7.07-6.67l-.51-.49.7-.04c6.49-.39,12.1-.73,16.19-.98,1.93-.09,3.5-.17,4.69-.23,1.09-.04,1.68-.05,1.69-.01Z" fill="#e0e0e0"/>
          <path d="m249.11,192.85s-.59.11-1.67.22c-1.18.1-2.75.24-4.67.4-4.09.3-9.69.72-16.18,1.21l.19-.53c2.21,2.07,4.61,4.32,7.09,6.65,2.52,2.38,4.95,4.67,7.18,6.78l.52.49-.71.04c-6.46.35-12.03.66-16.1.88-1.92.08-3.48.15-4.65.2-1.08.04-1.67.04-1.68,0,0-.04.58-.11,1.66-.21,1.17-.09,2.73-.22,4.64-.38,4.06-.28,9.63-.67,16.08-1.11l-.19.53c-2.24-2.1-4.67-4.38-7.2-6.75-2.48-2.34-4.87-4.6-7.07-6.67l-.51-.49.7-.04c6.49-.39,12.1-.73,16.19-.98,1.93-.09,3.5-.17,4.69-.23,1.09-.04,1.69-.05,1.69-.01Z" fill="#e0e0e0"/>
        </g>
        <g>
          <path d="m203.11,305.09s20.72-5.97,27.57-7.72c2.67-.68,14.11,5.35,22.02,10.37,0,0,10.88,6.45,10,8.44-.97,2.19-4.98,1.74-11.38-1.27,0,0,2.23,6.48-2.15,6.34,0,0,2.17,7.01-1.93,7.73-4.11.72-5.08-8.22-8.7-8.7-3.63-.48-11.12-.97-11.12-.97,0,0-6.24,10.33-11.07,11.06-4.83.72-16.03-.58-16.03-.58l2.8-24.72Z" fill="#ffbe9d"/>
          <path d="m238.47,306.52c.09-.15,2.69,1.31,5.79,3.27,3.1,1.96,5.54,3.66,5.44,3.81-.09.15-2.68-1.31-5.79-3.27-3.1-1.96-5.54-3.66-5.44-3.81Z" fill="#eb996e"/>
          <path d="m237.24,310.5c.07-.16,3.15,1.1,6.87,2.82,3.72,1.72,6.67,3.24,6.6,3.4-.07.16-3.15-1.1-6.87-2.82-3.72-1.72-6.67-3.24-6.6-3.4Z" fill="#eb996e"/>
          <path d="m239.46,320.16c.02-.18,2.12-.03,4.68.32,2.56.35,4.61.78,4.59.95-.02.18-2.12.03-4.68-.32-2.56-.35-4.61-.78-4.59-.95Z" fill="#eb996e"/>
        </g>
        <g>
          <g>
            <path d="m176.16,91.4c.48,1.58-.07,3.43-1.34,4.5-1.27,1.07-3.18,1.29-4.66.54-2.81-1.42-3.16-5.3-2.61-8.39.55-3.1,1.61-6.41.31-9.27-.99-2.19-3.15-3.58-4.83-5.31-2.93-3.01-4.48-7.39-3.77-11.52.71-4.13,3.81-7.85,7.85-8.98,4.12-1.15,9.21.11,12.28-2.87,2.23-2.16,2.36-5.71,4.08-8.29,2.67-4.01,8.32-4.65,13.1-3.99,4.77.65,9.63,2.18,14.31,1.02,3.91-.97,7.11-3.7,10.77-5.37,7.93-3.63,18.07-1.66,24.08,4.67,6,6.33,7.43,16.56,3.39,24.29-1.45,2.78-3.64,5.3-6.54,6.47" fill="#263238"/>
            <g>
              <path d="m199.92,193.1h0c13.23-.01,23.89-10.84,23.71-24.06l-.31-22.64s19.01-1.9,20.27-20.74c1.26-18.84.35-62.31.35-62.31h0c-21.31-10.57-46.67-8.77-66.28,4.69l-2.91,2,1.42,99.66c.18,12.99,10.77,23.41,23.76,23.4Z" fill="#ffbe9d"/>
              <g>
                <path d="m238.95,97.48c-3.35-.66-3.32-4.98.03-5.61.15-.03.31-.03.46,0,3.35.66,3.32,4.98-.03,5.61-.15.03-.31.03-.46,0Z" fill="#263238"/>
                <path d="m242.64,91.46c-.31.31-2.09-1.22-4.68-1.37-2.59-.19-4.55,1.08-4.82.74-.13-.16.19-.73,1.05-1.31.84-.58,2.26-1.1,3.88-.99,1.62.11,2.95.81,3.71,1.5.77.69,1.02,1.3.87,1.44Z" fill="#263238"/>
              </g>
              <g>
                <path d="m212.61,92.09c1.24.86,1.55,2.57.69,3.81-.86,1.24-2.57,1.55-3.81.69-1.24-.86-1.55-2.57-.69-3.81.86-1.24,2.57-1.55,3.81-.69Z" fill="#263238"/>
                <path d="m214.32,92.21c-.31.31-2.09-1.22-4.68-1.37-2.59-.19-4.55,1.08-4.82.74-.13-.16.19-.73,1.05-1.31.84-.58,2.26-1.1,3.88-.99,1.62.11,2.95.81,3.71,1.5.77.69,1.02,1.3.87,1.44Z" fill="#263238"/>
              </g>
              <path d="m223.56,114.2c0-.2,1.62-.44,4.25-.66.68-.04,1.22-.16,1.29-.52.14-.4-.08-1.14-.38-1.97-.57-1.75-1.16-3.53-1.77-5.39-2.43-7.67-4.08-13.99-3.69-14.11.39-.12,2.67,5.99,5.1,13.66.57,1.87,1.12,3.66,1.65,5.42.21.8.63,1.74.22,2.84-.22.55-.77.93-1.23,1.02-.46.11-.84.09-1.17.09-2.64-.05-4.27-.18-4.28-.38Z" fill="#263238"/>
              <path d="m214.97,116.61c3.33,1.54,7.29,3.46,12.53,4.39,0,0-3.3,4.68-8.62,2.39-5.53-2.37-3.91-6.79-3.91-6.79Z" fill="#fff"/>
              <path d="m223.36,146.13s-11.97.32-24.2-8.32c0,0,5.07,13.88,23.97,13.21l.22-4.89Z" fill="#eb996e"/>
            </g>
            <path d="m244.07,68.12s-11.38,5.78-26.47-1.39c-9.9-4.7-21.38-6.87-23.87-4.85-2.48,2.02-2.82,12.14-12.48,15.28,0,0,1.04,19.27-6.66,18.73-7.7-.54-3.48-30.5-3.48-30.5l18.63-9.55,20.45-4.28,19.39,2.35,15.04,3.81-.57,10.4Z" fill="#263238"/>
            <g>
              <path d="m176.01,89.69c-.31-.16-12.74-4.54-13.03,8.37-.29,12.91,12.73,10.54,12.76,10.17.03-.37.27-18.54.27-18.54Z" fill="#ffbe9d"/>
              <path d="m171.9,103.26c-.06-.04-.23.15-.61.32-.37.16-1.01.26-1.68,0-1.35-.53-2.45-2.72-2.46-5.05,0-1.18.26-2.29.7-3.21.42-.94,1.04-1.58,1.73-1.69.69-.14,1.16.28,1.31.65.16.36.08.62.15.64.04.03.28-.21.19-.75-.05-.26-.19-.57-.49-.82-.3-.26-.76-.4-1.24-.36-1,.05-1.91.94-2.39,1.95-.54,1.01-.87,2.26-.86,3.58.02,2.6,1.3,5.07,3.16,5.65.9.26,1.67,0,2.06-.3.41-.31.48-.6.44-.62Z" fill="#eb996e"/>
            </g>
            <path d="m169.43,49.27c-.07-.15,2.05-.76,4.48.17,2.44.89,3.65,2.74,3.49,2.81-.14.13-1.47-1.39-3.72-2.21-2.23-.86-4.23-.57-4.25-.77Z" fill="#263238"/>
            <path d="m177.2,41.54c.23.01-.13,2.72.32,5.95.44,3.26,1.98,5.52,1.8,5.63-.06.04-.53-.46-1.08-1.43-.54-.97-1.12-2.42-1.35-4.1-.47-3.38.19-6.08.31-6.05Z" fill="#263238"/>
            <path d="m230.25,85.26c-.07-.15.48-.6,1.53-1.02,1.04-.43,2.59-.79,4.33-.78,1.74.02,3.28.41,4.31.86,1.04.45,1.58.9,1.51,1.05-.16.34-2.64-.63-5.84-.64-3.19-.06-5.7.86-5.85.52Z" fill="#263238"/>
            <path d="m201.46,82.54c-.07-.15.48-.6,1.53-1.02,1.04-.43,2.59-.79,4.33-.78,1.74.02,3.28.41,4.31.86,1.04.45,1.58.9,1.51,1.05-.16.34-2.65-.63-5.84-.64-3.19-.06-5.7.86-5.85.52Z" fill="#263238"/>
          </g>
          <g>
            <path d="m228.03,87.29s.03.28.05.76c.02.55.04,1.24.06,2.08.02.92.04,1.99.07,3.23,0,1.25.08,2.7.61,4.19.51,1.48,1.4,3.01,2.72,4.3,1.33,1.27,3.07,2.33,5.09,2.8,1,.24,2.07.35,3.15.28,1.08-.05,2.18-.27,3.22-.68,2.11-.77,4.02-2.3,5.31-4.3,1.24-1.91,1.79-4.14,1.73-6.3,0-2.2.01-4.33.02-6.36l.3.3c-6.45-.06-11.97-.11-15.98-.15-1.92-.03-3.48-.06-4.64-.08-.5-.01-.91-.03-1.25-.04-.29-.01-.44-.02-.46-.04-.02-.02.53-.05,1.58-.07,1.14-.02,2.68-.05,4.57-.08,4.06-.04,9.64-.09,16.18-.14h.3s0,.3,0,.3c0,2.03.01,4.16.02,6.36.07,2.24-.51,4.64-1.82,6.65-1.37,2.12-3.39,3.73-5.63,4.54-1.11.43-2.27.66-3.41.7-1.14.08-2.26-.05-3.32-.31-2.13-.51-3.95-1.64-5.32-2.99-1.36-1.37-2.27-2.98-2.78-4.54-.53-1.56-.57-3.06-.54-4.36.03-1.27.05-2.38.07-3.32.03-.84.05-1.52.06-2.05.02-.46.03-.7.05-.68Z" fill="#263238"/>
            <path d="m197.84,86.65s.03.28.05.76c.02.55.04,1.24.06,2.08.02.92.04,1.99.07,3.23,0,1.25.08,2.7.61,4.19.51,1.48,1.4,3.01,2.72,4.3,1.33,1.27,3.07,2.33,5.09,2.8,1,.24,2.07.35,3.15.28,1.08-.05,2.18-.27,3.22-.68,2.11-.77,4.02-2.3,5.31-4.3,1.24-1.91,1.79-4.14,1.73-6.3,0-2.2.01-4.33.02-6.36l.3.3c-6.45-.06-11.97-.11-15.98-.15-1.92-.03-3.48-.06-4.64-.08-.5-.01-.91-.03-1.25-.04-.29-.01-.44-.02-.46-.04-.02-.02.53-.05,1.58-.07,1.14-.02,2.68-.05,4.57-.08,4.06-.04,9.64-.09,16.18-.15h.3s0,.3,0,.3c0,2.03.01,4.16.02,6.36.07,2.24-.51,4.64-1.82,6.65-1.37,2.12-3.39,3.73-5.63,4.54-1.11.43-2.27.66-3.41.7-1.14.08-2.26-.05-3.32-.31-2.13-.51-3.95-1.64-5.32-2.99-1.36-1.37-2.27-2.98-2.78-4.54-.53-1.56-.57-3.06-.54-4.36.03-1.27.05-2.38.07-3.32.03-.84.05-1.52.06-2.05.02-.46.03-.7.05-.68Z" fill="#263238"/>
            <path d="m228.3,88.19c0,.18-1.9.32-4.25.32s-4.25-.14-4.25-.32,1.9-.32,4.25-.32,4.25.14,4.25.32Z" fill="#263238"/>
            <path d="m174.3,88.36c0-.18,5.27-.34,11.77-.36,6.5-.02,11.77.11,11.77.29,0,.18-5.27.34-11.77.36-6.5.02-11.77-.11-11.77-.28Z" fill="#263238"/>
          </g>
        </g>
      </g>
      <g>
        <polygon points="306.5 232.02 265.62 333.09 191.93 333.09 191.93 337.65 411.43 337.65 456.33 232.02 306.5 232.02" fill="#263238"/>
        <path d="m368.97,291.69c-1.48,5.09-5.79,8.3-9.63,7.19-3.84-1.12-5.75-6.15-4.27-11.23,1.48-5.09,5.79-8.3,9.63-7.19,3.84,1.12,5.75,6.15,4.27,11.23Z" fill="#fafafa"/>
      </g>
    </g>
  </g>
</svg>