<svg width="100" height="100" viewBox="0 0 100 100" fill="none" xmlns="http://www.w3.org/2000/svg">
<g clip-path="url(#clip0_18_1605)">
<path d="M81.3068 57.769H88.9156V91.2617H81.3068V57.769Z" fill="#5CAEFF"/>
<path d="M81.3068 57.769H83.3113V91.2617H81.3068V57.769Z" fill="#2A92FA"/>
<path d="M9.80859 13.8199H23.5471V17.5547H9.80859V13.8199Z" fill="#0062D9"/>
<path d="M5.75916 17.0934H29.7881V78.8525H5.75916V17.0934Z" fill="#2A92FA"/>
<path d="M16.6754 17.0934H27.5965V78.8525H16.6754V17.0934Z" fill="#0E82F5"/>
<path d="M58.2838 13.8199H72.0223V17.5547H58.2838V13.8199Z" fill="#0062D9"/>
<path fill-rule="evenodd" clip-rule="evenodd" d="M52.0426 17.0934H76.0715V53.91C68.99 60.9131 60.8726 66.7297 52.0426 71.1758V17.0934Z" fill="#2A92FA"/>
<path fill-rule="evenodd" clip-rule="evenodd" d="M54.2342 17.0934H65.1529V63.1834C61.6711 65.7142 58.0227 68.0031 54.2342 70.0361V17.0934Z" fill="#0E82F5"/>
<path d="M39.2117 2.16797H42.6192V7.78203H39.2117V2.16797Z" fill="#FDC72E"/>
<path fill-rule="evenodd" clip-rule="evenodd" d="M27.5965 13.8199H54.2342V70.0361C46.891 73.9764 39.0217 76.9517 30.8195 78.8525H27.5965V13.8199Z" fill="#70C1F9"/>
<path fill-rule="evenodd" clip-rule="evenodd" d="M27.5965 13.8201H40.9152V75.9141C37.6174 77.076 34.2475 78.0576 30.8195 78.8523H27.5965V13.8201Z" fill="#4EB1FC"/>
<path d="M31.0086 6.4416H50.8221V10.6336H31.0086V6.4416Z" fill="#004CBD"/>
<path d="M33.3844 18.0447H48.4465V21.7795H33.3844V18.0447Z" fill="#F0F0FF"/>
<path d="M26.5856 9.84883H55.2453V13.8201H26.5856V9.84883Z" fill="#0062D9"/>
<path fill-rule="evenodd" clip-rule="evenodd" d="M33.3844 30.3371H39.8946V35.7973H33.3844V30.3371ZM41.8369 30.3371H48.3471V35.7973H41.8369V30.3371ZM48.3471 37.7395V42.2283H41.8369V37.7395H48.3471ZM48.3471 44.1705V48.6594H41.8369V44.1705H48.3471ZM48.3471 50.6018V56.0617H41.8369V50.6018H48.3471ZM39.8948 56.0617H33.3846V50.6018H39.8948V56.0617ZM33.3846 48.6596V44.1707H39.8948V48.6596H33.3846ZM33.3846 42.2283V37.7395H39.8948V42.2283H33.3846Z" fill="#F0F0FF"/>
<path fill-rule="evenodd" clip-rule="evenodd" d="M62.7211 26.0016C63.2603 26.0016 63.6977 26.4389 63.6977 26.9781C63.6977 27.5174 63.2603 27.9547 62.7211 27.9547H59.9062V30.7693C59.9062 31.3086 59.4689 31.7459 58.9297 31.7459C58.3904 31.7459 57.9531 31.3086 57.9531 30.7693V26.9781C57.9531 26.4389 58.3904 26.0016 58.9297 26.0016H62.7211ZM71.3381 26.0016C71.8773 26.0016 72.3146 26.4389 72.3146 26.9781C72.3146 27.5174 71.8773 27.9547 71.3381 27.9547H68.5234V30.7693C68.5234 31.3086 68.0861 31.7459 67.5469 31.7459C67.0076 31.7459 66.5703 31.3086 66.5703 30.7693V26.9781C66.5703 26.4389 67.0076 26.0016 67.5469 26.0016H71.3381ZM62.7211 35.5453C63.2603 35.5453 63.6977 35.9826 63.6977 36.5219C63.6977 37.0611 63.2603 37.4984 62.7211 37.4984H59.9062V40.3133C59.9062 40.8525 59.4689 41.2898 58.9297 41.2898C58.3904 41.2898 57.9531 40.8525 57.9531 40.3133V36.5219C57.9531 35.9826 58.3904 35.5453 58.9297 35.5453H62.7211ZM71.3381 35.5453C71.8773 35.5453 72.3146 35.9826 72.3146 36.5219C72.3146 37.0611 71.8773 37.4984 71.3381 37.4984H68.5234V40.3133C68.5234 40.8525 68.0861 41.2898 67.5469 41.2898C67.0076 41.2898 66.5703 40.8525 66.5703 40.3133V36.5219C66.5703 35.9826 67.0076 35.5453 67.5469 35.5453H71.3381ZM62.7211 45.0891C63.2603 45.0891 63.6977 45.5264 63.6977 46.0656C63.6977 46.6049 63.2603 47.0422 62.7211 47.0422H59.9062V49.8568C59.9062 50.3961 59.4689 50.8334 58.9297 50.8334C58.3904 50.8334 57.9531 50.3961 57.9531 49.8568V46.0656C57.9531 45.5264 58.3904 45.0891 58.9297 45.0891H62.7211ZM71.3381 45.0891C71.8773 45.0891 72.3146 45.5264 72.3146 46.0656C72.3146 46.6049 71.8773 47.0422 71.3381 47.0422H68.5234V49.8568C68.5234 50.3961 68.0861 50.8334 67.5469 50.8334C67.0076 50.8334 66.5703 50.3961 66.5703 49.8568V46.0656C66.5703 45.5264 67.0076 45.0891 67.5469 45.0891H71.3381ZM62.7211 54.6328C63.2603 54.6328 63.6977 55.0701 63.6977 55.6094C63.6977 56.1486 63.2603 56.5859 62.7211 56.5859H59.9062V59.4008C59.9062 59.94 59.4689 60.3773 58.9297 60.3773C58.3904 60.3773 57.9531 59.94 57.9531 59.4008V55.6094C57.9531 55.0701 58.3904 54.6328 58.9297 54.6328H62.7211Z" fill="#F0F0FF"/>
<path d="M54.6559 76.3721H62.2646V91.2617H54.6559V76.3721Z" fill="#2DD62D"/>
<path d="M41.3304 81.5779H48.9392V91.2617H41.3304V81.5779Z" fill="#FB545C"/>
<path d="M67.9814 68.6178H75.5902V91.2617H67.9814V68.6178Z" fill="#FDC72E"/>
<path fill-rule="evenodd" clip-rule="evenodd" d="M15.3422 78.6848C44.2356 76.8793 70.6764 61.9697 87.1836 38.2828L84.3565 36.4062L94.2408 32.0471L93.8926 42.7359L91.067 40.8603C73.7524 65.7625 45.9819 81.4387 15.6328 83.3353C12.3293 83.5418 9.06975 83.4807 5.76038 83.4807V78.8303C8.97581 78.8303 12.1321 78.8855 15.3422 78.685V78.6848Z" fill="#F9AC00"/>
<path fill-rule="evenodd" clip-rule="evenodd" d="M94.2119 32.9318L93.8924 42.7359L91.0668 40.8603C73.7522 65.7625 45.9817 81.4387 15.6326 83.3353C13.8584 83.4463 12.0969 83.4799 10.3336 83.4873C9.47073 83.4848 6.62854 83.4807 5.76038 83.4807V80.1527C6.53538 80.1551 9.28577 80.1568 10.0582 80.1537C12.4807 80.1601 14.8848 80.1553 17.3198 80.0031C46.2131 78.1976 72.6539 61.9697 89.1612 38.2828L86.334 36.4062L94.2119 32.9318Z" fill="#FDC72E"/>
<path fill-rule="evenodd" clip-rule="evenodd" d="M22.8797 64.1764C23.419 64.1764 23.8563 64.6137 23.8563 65.1529C23.8563 65.6922 23.419 66.1295 22.8797 66.1295H20.0649V68.9443C20.0649 69.4836 19.6276 69.9209 19.0883 69.9209C18.549 69.9209 18.1117 69.4836 18.1117 68.9443V65.1529C18.1117 64.6137 18.549 64.1764 19.0883 64.1764H22.8797ZM14.2627 26.0016C14.802 26.0016 15.2393 26.4389 15.2393 26.9781C15.2393 27.5174 14.802 27.9547 14.2627 27.9547H11.4479V30.7693C11.4479 31.3086 11.0106 31.7459 10.4713 31.7459C9.93206 31.7459 9.49475 31.3086 9.49475 30.7693V26.9781C9.49475 26.4389 9.93206 26.0016 10.4713 26.0016H14.2627ZM22.8797 26.0016C23.419 26.0016 23.8563 26.4389 23.8563 26.9781C23.8563 27.5174 23.419 27.9547 22.8797 27.9547H20.0649V30.7693C20.0649 31.3086 19.6276 31.7459 19.0883 31.7459C18.549 31.7459 18.1117 31.3086 18.1117 30.7693V26.9781C18.1117 26.4389 18.549 26.0016 19.0883 26.0016H22.8797ZM14.2627 35.5453C14.802 35.5453 15.2393 35.9826 15.2393 36.5219C15.2393 37.0611 14.802 37.4984 14.2627 37.4984H11.4479V40.3133C11.4479 40.8525 11.0106 41.2898 10.4713 41.2898C9.93206 41.2898 9.49475 40.8525 9.49475 40.3133V36.5219C9.49475 35.9826 9.93206 35.5453 10.4713 35.5453H14.2627ZM22.8797 35.5453C23.419 35.5453 23.8563 35.9826 23.8563 36.5219C23.8563 37.0611 23.419 37.4984 22.8797 37.4984H20.0649V40.3133C20.0649 40.8525 19.6276 41.2898 19.0883 41.2898C18.549 41.2898 18.1117 40.8525 18.1117 40.3133V36.5219C18.1117 35.9826 18.549 35.5453 19.0883 35.5453H22.8797ZM14.2627 64.1764C14.802 64.1764 15.2393 64.6137 15.2393 65.1529C15.2393 65.6922 14.802 66.1295 14.2627 66.1295H11.4479V68.9443C11.4479 69.4836 11.0106 69.9209 10.4713 69.9209C9.93206 69.9209 9.49475 69.4836 9.49475 68.9443V65.1529C9.49475 64.6137 9.93206 64.1764 10.4713 64.1764H14.2627ZM14.2627 45.0891C14.802 45.0891 15.2393 45.5264 15.2393 46.0656C15.2393 46.6049 14.802 47.0422 14.2627 47.0422H11.4479V49.8568C11.4479 50.3961 11.0106 50.8334 10.4713 50.8334C9.93206 50.8334 9.49475 50.3961 9.49475 49.8568V46.0656C9.49475 45.5264 9.93206 45.0891 10.4713 45.0891H14.2627ZM22.8797 45.0891C23.419 45.0891 23.8563 45.5264 23.8563 46.0656C23.8563 46.6049 23.419 47.0422 22.8797 47.0422H20.0649V49.8568C20.0649 50.3961 19.6276 50.8334 19.0883 50.8334C18.549 50.8334 18.1117 50.3961 18.1117 49.8568V46.0656C18.1117 45.5264 18.549 45.0891 19.0883 45.0891H22.8797ZM14.2627 54.6328C14.802 54.6328 15.2393 55.0701 15.2393 55.6094C15.2393 56.1486 14.802 56.5859 14.2627 56.5859H11.4479V59.4008C11.4479 59.94 11.0106 60.3773 10.4713 60.3773C9.93206 60.3773 9.49475 59.94 9.49475 59.4008V55.6094C9.49475 55.0701 9.93206 54.6328 10.4713 54.6328H14.2627ZM22.8797 54.6328C23.419 54.6328 23.8563 55.0701 23.8563 55.6094C23.8563 56.1486 23.419 56.5859 22.8797 56.5859H20.0649V59.4008C20.0649 59.94 19.6276 60.3773 19.0883 60.3773C18.549 60.3773 18.1117 59.94 18.1117 59.4008V55.6094C18.1117 55.0701 18.549 54.6328 19.0883 54.6328H22.8797Z" fill="#F0F0FF"/>
<path d="M85.165 97.0672C90.1984 94.9809 92.5874 89.2093 90.5011 84.1759C88.4147 79.1426 82.6431 76.7536 77.6098 78.8399C72.5764 80.9262 70.1874 86.6979 72.2737 91.7312C74.3601 96.7645 80.1317 99.1536 85.165 97.0672Z" fill="#29B933"/>
<path fill-rule="evenodd" clip-rule="evenodd" d="M82.3412 78.1551C87.3229 78.6526 91.2129 82.8563 91.2129 87.969C91.2129 93.0817 87.3229 97.2856 82.3412 97.7828C77.3596 97.2854 73.4695 93.0817 73.4695 87.969C73.4695 82.8563 77.3594 78.6526 82.3412 78.1551Z" fill="#2DD62D"/>
<path fill-rule="evenodd" clip-rule="evenodd" d="M85.3461 84.7129C85.443 85.2416 85.0928 85.7488 84.564 85.8459C84.0353 85.9428 83.5279 85.5926 83.431 85.0639C83.3619 84.6895 83.1603 84.3945 82.8855 84.1799C82.7117 84.0439 82.5066 83.9365 82.2834 83.8576V87.31C82.3254 87.3238 82.3668 87.3379 82.4078 87.3521C83.3844 87.6934 84.2674 88.2156 84.8156 88.9951C85.3205 89.7129 85.5306 90.5955 85.2738 91.6764C85.0392 92.6627 84.3457 93.3684 83.4469 93.7793C83.0865 93.9439 82.6922 94.0598 82.2834 94.125V95.1934C82.2834 95.7326 81.8461 96.1699 81.3068 96.1699C80.7676 96.1699 80.3303 95.7326 80.3303 95.1934V94.057C79.9281 93.9645 79.5385 93.8221 79.1795 93.6289C78.2267 93.1162 77.4828 92.2602 77.2508 91.0367C77.1517 90.508 77.5002 89.999 78.0289 89.9C78.5576 89.801 79.0666 90.1494 79.1656 90.6781C79.2746 91.2527 79.6365 91.6615 80.1025 91.9123C80.1762 91.952 80.2521 91.9879 80.3303 92.0203V88.7514C79.6517 88.5301 78.9836 88.2434 78.4445 87.7293C77.7846 87.1 77.4398 86.3139 77.3777 85.5184C77.3127 84.6855 77.5648 83.8439 78.0947 83.1658C78.6365 82.4723 79.4469 82.034 80.3305 81.8498V80.7441C80.3305 80.2049 80.7678 79.7676 81.307 79.7676C81.8463 79.7676 82.2836 80.2049 82.2836 80.7441V81.8432L82.3279 81.8521C82.966 81.9855 83.5762 82.25 84.0836 82.6463C84.717 83.141 85.183 83.8295 85.3463 84.7129H85.3461ZM80.3303 83.8715C80.0426 83.9832 79.7969 84.1475 79.6281 84.3635C79.4023 84.6525 79.2951 85.0137 79.3232 85.3734C79.3492 85.708 79.4992 86.0432 79.7871 86.3178C79.9293 86.4533 80.1164 86.5674 80.3303 86.6674V83.8715ZM82.2834 92.1375C82.4076 92.1031 82.5265 92.0604 82.6383 92.0094C83.0107 91.8391 83.2916 91.5736 83.3742 91.2262C83.4871 90.7512 83.4133 90.3895 83.2213 90.1164C83.018 89.8273 82.6846 89.5916 82.2836 89.4008V92.1373L82.2834 92.1375Z" fill="#009914"/>
<path d="M67.9814 68.6178H69.9859V91.2617H67.9814V68.6178Z" fill="#F9AC00"/>
<path d="M54.6559 76.3721H56.6603V91.2617H54.6559V76.3721Z" fill="#29B933"/>
<path d="M41.3304 81.5779H43.3349V91.2617H41.3304V81.5779Z" fill="#F0414A"/>
</g>
<defs>
<clipPath id="clip0_18_1605">
<rect width="100" height="100" fill="white"/>
</clipPath>
</defs>
</svg>
