<?xml version="1.0" encoding="UTF-8"?>
<svg id="Layer_2" data-name="Layer 2" xmlns="http://www.w3.org/2000/svg" viewBox="0 0 49.08 60">
  <defs>
    <style>
      .cls-1 {
        fill: #c73e9b;
      }
    </style>
  </defs>
  <g id="Layer_1-2" data-name="Layer 1">
    <path class="cls-1" d="m29.92,22.84l-2.28-.37c-.19-.67-.45-1.31-.79-1.91l1.35-1.87c.24-.34.21-.8-.09-1.1l-1.75-1.75c-.3-.3-.76-.33-1.1-.09l-1.87,1.35c-.61-.34-1.25-.6-1.91-.79l-.37-2.28c-.07-.41-.42-.71-.84-.71h-2.47c-.42,0-.77.3-.84.71l-.37,2.28c-.67.19-1.31.45-1.91.79l-1.87-1.35c-.34-.24-.8-.21-1.1.09l-1.75,1.75c-.3.3-.33.76-.09,1.1l1.35,1.87c-.34.61-.6,1.25-.79,1.91l-2.28.37c-.41.07-.71.42-.71.84v2.47c0,.42.3.77.71.84l2.28.37c.19.67.45,1.31.79,1.91l-1.35,1.87c-.24.34-.21.8.09,1.1l1.75,1.75c.3.3.76.33,1.1.09l1.87-1.35c.61.34,1.25.6,1.91.79l.37,2.28c.07.41.42.71.84.71h2.47c.42,0,.77-.3.84-.71l.37-2.28c.67-.19,1.31-.45,1.91-.79l1.87,1.35c.34.24.8.21,1.1-.09l1.75-1.75c.3-.3.33-.76.09-1.1l-1.35-1.87c.34-.61.6-1.25.79-1.91l2.28-.37c.41-.07.71-.42.71-.84v-2.47c0-.42-.3-.77-.71-.84h0Zm-.99,2.59l-2.12.34c-.35.06-.62.32-.7.66-.18.86-.52,1.68-1,2.42-.19.29-.18.68.02.96l1.26,1.74-.73.73-1.74-1.26c-.28-.21-.67-.21-.96-.02-.74.48-1.56.82-2.42,1-.34.07-.61.35-.66.7l-.34,2.12h-1.03l-.34-2.12c-.06-.35-.32-.62-.66-.7-.86-.18-1.68-.52-2.42-1-.29-.19-.68-.18-.96.02l-1.74,1.26-.73-.73,1.26-1.74c.21-.28.21-.67.02-.96-.48-.74-.82-1.56-1-2.42-.07-.34-.35-.61-.7-.66l-2.12-.34v-1.03l2.12-.34c.35-.06.62-.32.7-.66.18-.86.52-1.68,1-2.42.19-.29.18-.68-.02-.96l-1.26-1.74.73-.73,1.74,1.26c.28.21.67.21.96.02.74-.48,1.56-.82,2.42-1,.34-.07.61-.35.66-.7l.34-2.12h1.03l.34,2.12c.06.35.32.62.66.7.86.18,1.68.52,2.42,1,.29.19.68.18.96-.02l1.74-1.26.73.73-1.26,1.74c-.21.28-.21.67-.02.96.48.74.82,1.56,1,2.42.07.34.35.61.7.66l2.12.34v1.03h0Zm-9.9-6.56c-3.34,0-6.05,2.71-6.05,6.05s2.71,6.05,6.05,6.05,6.05-2.71,6.05-6.05-2.71-6.05-6.05-6.05h0Zm0,10.4c-2.4,0-4.35-1.95-4.35-4.35s1.95-4.35,4.35-4.35,4.35,1.95,4.35,4.35-1.95,4.35-4.35,4.35ZM47.47,0h-15.16C31.42,0,30.7.72,30.7,1.61v5.1c-3.33-2.52-7.41-3.89-11.66-3.89,0,0,0,0,0,0-6.79,0-12.97,3.47-16.54,9.3-.01.02-.03.04-.04.07C-.32,17.75-.74,23.11,1.19,28.11c.78,2.01,1.47,3.18,2.08,4.21.88,1.49,1.64,2.78,2.41,6.33.71,3.25,1.48,5.51,2.38,6.89-1.1.45-1.87,1.53-1.87,2.79,0,.85.35,1.62.92,2.17-.57.55-.92,1.32-.92,2.17,0,1.66,1.35,3.02,3.02,3.02h2.04c-.19.4-.3.84-.3,1.32,0,1.66,1.35,3.02,3.02,3.02h9.93c1.66,0,3.02-1.35,3.02-3.02,0-.47-.11-.92-.3-1.32h2.04c1.66,0,3.02-1.35,3.02-3.02,0-.85-.35-1.62-.92-2.17.57-.55.92-1.32.92-2.17,0-1.19-.7-2.23-1.71-2.72.92-1.37,1.71-3.65,2.43-6.96.77-3.55,1.53-4.84,2.41-6.33.61-1.03,1.3-2.2,2.08-4.21,1.64-4.24,1.58-8.74-.16-13.4h10.76c.89,0,1.61-.72,1.61-1.61V1.61c0-.89-.72-1.61-1.61-1.61h0Zm-22.27,56.98c0,.73-.59,1.32-1.32,1.32h-9.93c-.73,0-1.32-.59-1.32-1.32s.59-1.32,1.32-1.32h9.93c.73,0,1.32.59,1.32,1.32Zm4.76-4.33c0,.73-.59,1.32-1.32,1.32H9.2c-.73,0-1.32-.59-1.32-1.32s.59-1.32,1.32-1.32h19.45c.73,0,1.32.59,1.32,1.32h0Zm-1.32-3.02H9.2c-.73,0-1.32-.59-1.32-1.32s.59-1.32,1.32-1.32h19.45c.73,0,1.32.59,1.32,1.32,0,.73-.59,1.32-1.32,1.32Zm6.64-22.14c-.72,1.88-1.35,2.93-1.95,3.96-.96,1.62-1.78,3.01-2.61,6.83-1.07,4.94-2.12,6.52-2.73,7.02H10.07c-.61-.5-1.66-2.08-2.73-7.02-.83-3.82-1.65-5.21-2.61-6.83-.6-1.02-1.23-2.08-1.95-3.96-1.75-4.52-1.35-9.41,1.19-14.52,3.26-5.29,8.89-8.45,15.07-8.45h0c4.33,0,8.45,1.55,11.65,4.38v8.26c-.01.34.19.65.5.78.11.05.22.07.33.07.22,0,.43-.08.59-.24l2.89-2.77c1.7,4.37,1.8,8.56.28,12.49h0Zm12.09-14.48h-12.41c-.22,0-.43.08-.59.24l-2,1.92.02-13.47h14.98v11.31Zm-13.11-7.38c0-.47.38-.85.85-.85h9.52c.47,0,.85.38.85.85s-.38.85-.85.85h-9.52c-.47,0-.85-.38-.85-.85Zm0,3.73c0-.47.38-.85.85-.85h9.52c.47,0,.85.38.85.85s-.38.85-.85.85h-9.52c-.47,0-.85-.38-.85-.85Z"/>
  </g>
</svg>