<?xml version="1.0" encoding="UTF-8"?>
<svg id="Layer_2" data-name="Layer 2" xmlns="http://www.w3.org/2000/svg" viewBox="0 0 60 60">
  <defs>
    <style>
      .cls-1 {
        fill: #c73e9b;
      }
    </style>
  </defs>
  <g id="Layer_1-2" data-name="Layer 1">
    <g>
      <path class="cls-1" d="m24.61,35.16c-.65,0-1.17.53-1.17,1.17s.53,1.17,1.17,1.17,1.17-.53,1.17-1.17-.53-1.17-1.17-1.17Z"/>
      <path class="cls-1" d="m59.28,27.28c-.44-.18-.94-.08-1.28.25l-2.69,2.69V12.89c0-.65-.52-1.17-1.17-1.17h-6.5c.9-.9,2.81-2.81,3.72-3.72,1.83-1.83,1.83-4.8,0-6.63-1.83-1.83-4.8-1.83-6.63,0-.16.16-10.32,10.32-10.35,10.35H9.38V3.52c0-.65-.53-1.17-1.17-1.17C3.68,2.34,0,6.02,0,10.55v36.56c0,3.43,2.92,5.86,6.11,5.86h26.45l-5.03,5.03c-.34.34-.44.84-.25,1.28.18.44.61.72,1.08.72h30.47c.65,0,1.17-.53,1.17-1.17v-30.47c0-.47-.29-.9-.72-1.08Zm-32.75,2.25l-3.31-3.32,12.49-12.49,4.09-4.08,3.31,3.31-16.57,16.57Zm-4.62-1.31l2.61,2.61-4.76,2.15,2.15-4.76ZM43.1,6.32l3.31,3.31-1.66,1.66-3.31-3.31,1.66-1.66Zm6.6-3.29c.92.91.92,2.4,0,3.31l-1.63,1.63-3.31-3.31,1.63-1.63c.91-.92,2.4-.92,3.31,0ZM2.34,10.55c0-2.83,2.02-5.2,4.69-5.74v36.44h-1.17c-1.32,0-2.54.44-3.52,1.17V10.55Zm3.77,40.08c-1.94,0-3.77-1.41-3.77-3.52,0-1.94,1.58-3.52,3.52-3.52h2.34c.65,0,1.17-.52,1.17-1.17V14.06h22.67l-11.07,11.07c-.29.29-.55.67-.65.89l-3.98,8.81c-.2.44-.11.97.24,1.31.34.34.87.44,1.31.24l8.81-3.98c.23-.11.61-.37.89-.65l17.7-17.7h7.67v18.5l-18.06,18.06H6.11Zm51.55,7.03h-26.47l26.47-26.47v26.47Z"/>
      <path class="cls-1" d="m41.42,53.42c.18.44.61.72,1.08.72h10.46c.65,0,1.17-.52,1.17-1.17v-10.46c0-.47-.29-.9-.72-1.08-.44-.18-.94-.08-1.28.25l-10.46,10.46c-.34.34-.44.84-.25,1.28Zm10.37-8.08v6.46h-6.46l6.46-6.46Z"/>
      <path class="cls-1" d="m42.42,35.16h-13.12c-.65,0-1.17.52-1.17,1.17s.52,1.17,1.17,1.17h13.12c.65,0,1.17-.53,1.17-1.17s-.52-1.17-1.17-1.17Z"/>
      <path class="cls-1" d="m48.75,16.41h-3.05c-.65,0-1.17.53-1.17,1.17s.52,1.17,1.17,1.17h1.88v3.52c0,.65.52,1.17,1.17,1.17s1.17-.52,1.17-1.17v-4.69c0-.65-.52-1.17-1.17-1.17Z"/>
      <path class="cls-1" d="m12.89,23.44c.65,0,1.17-.52,1.17-1.17v-3.52h1.17c.65,0,1.17-.52,1.17-1.17s-.52-1.17-1.17-1.17h-2.34c-.65,0-1.17.53-1.17,1.17v4.69c0,.65.53,1.17,1.17,1.17Z"/>
      <path class="cls-1" d="m15.23,45.94h-1.17v-3.52c0-.65-.52-1.17-1.17-1.17s-1.17.52-1.17,1.17v4.69c0,.65.53,1.17,1.17,1.17h2.34c.65,0,1.17-.52,1.17-1.17s-.52-1.17-1.17-1.17Z"/>
    </g>
  </g>
</svg>