<?xml version="1.0" encoding="UTF-8"?>
<svg id="Layer_2" data-name="Layer 2" xmlns="http://www.w3.org/2000/svg" viewBox="0 0 54.27 60">
  <defs>
    <style>
      .cls-1 {
        fill: #c73e9b;
      }
    </style>
  </defs>
  <g id="Layer_1-2" data-name="Layer 1">
    <g>
      <path class="cls-1" d="m49.54,7.8h-.71c1.36-2.21.86-5.18-1.32-6.79-2.35-1.74-5.68-1.18-7.32,1.27l-3.7,5.52H4.73c-2.61,0-4.73,2.12-4.73,4.73v30.27c0,2.61,2.12,4.73,4.73,4.73h18.39l-1.39,5.84h-3c-1.95,0-3.54,1.59-3.54,3.54v.74h-3.7c-.65,0-1.17.52-1.17,1.17s.52,1.17,1.17,1.17h31.29c.65,0,1.17-.52,1.17-1.17s-.52-1.17-1.17-1.17h-3.7v-.74c0-1.95-1.59-3.54-3.54-3.54h-3l-1.39-5.84h18.39c2.61,0,4.73-2.12,4.73-4.73V12.54c0-2.61-2.12-4.73-4.73-4.73h0Zm-16.79,20.6c-1.83,1.28-5.26-.46-8.54,1.29-.8-4.15-.3-8.06,3.87-8.92.54-.11,1.12-.16,1.61-.15,1.41,1.05,2.83,2.1,4.24,3.15.62,1.79.38,3.55-1.17,4.64h0Zm1.18-12.56l3.32,2.46-2.55,3.11c-1.05-.78-1.95-1.45-3-2.23.22-.33,2.04-3.05,2.24-3.34Zm8.2-12.26c.89-1.33,2.7-1.64,3.97-.69,1.28.95,1.51,2.77.49,4-1.8,2.19-6.07,7.39-7.87,9.59l-3.5-2.6,6.9-10.31Zm-5.39,53.33v.74h-19.21v-.74c0-.66.54-1.2,1.2-1.2h16.81c.66,0,1.2.54,1.2,1.2h0Zm-6.61-3.54h-5.99l1.39-5.84h3.21l1.39,5.84Zm21.8-10.57c0,1.32-1.07,2.39-2.39,2.39H4.73c-1.32,0-2.39-1.07-2.39-2.39v-5.49h3.35c.65,0,1.17-.52,1.17-1.17s-.52-1.17-1.17-1.17h-3.35V12.54c0-1.32,1.07-2.39,2.39-2.39h30.19c-1.12,1.68-4.4,6.57-5.44,8.12-2.3.02-4.59.82-6.09,2.57-2.04,2.38-2.4,6.13-1.07,11.13.23.86,1.3,1.16,1.94.55,3.03-2.9,6.8.26,10.18-2.47,2.06-1.67,2.55-4.32,1.77-6.81,1.05-1.28,9.69-11.81,10.74-13.1h2.57c1.32,0,2.39,1.07,2.39,2.39v22.43H15.07c-.65,0-1.17.52-1.17,1.17s.52,1.17,1.17,1.17h36.86v5.49Z"/>
      <path class="cls-1" d="m10.15,34.99c-.56.12-.94.6-.94,1.15,0,.73.67,1.29,1.4,1.15.65-.13,1.04-.76.92-1.38-.13-.64-.75-1.05-1.38-.92h0Z"/>
    </g>
  </g>
</svg>