<?xml version="1.0" encoding="UTF-8"?>
<svg id="Layer_2" data-name="Layer 2" xmlns="http://www.w3.org/2000/svg" viewBox="0 0 51.69 60.8">
  <defs>
    <style>
      .cls-1 {
        fill: #c73e9b;
      }
    </style>
  </defs>
  <g id="Layer_1-2" data-name="Layer 1">
    <path class="cls-1" d="m1.28,49.12c-.71,0-1.28-.57-1.28-1.28V3.17C0,1.42,1.42,0,3.17,0h39.78c1.75,0,3.17,1.42,3.17,3.17v9.31c0,.71-.57,1.28-1.28,1.28s-1.28-.57-1.28-1.28V3.17c0-.34-.28-.61-.61-.61H3.17c-.34,0-.61.28-.61.61v44.67c0,.71-.57,1.28-1.28,1.28Z"/>
    <path class="cls-1" d="m7.59,21.97c-1.64,0-2.97-1.33-2.97-2.97v-8.46c0-1.64,1.33-2.97,2.97-2.97h8.46c1.64,0,2.97,1.33,2.97,2.97v8.46c0,1.64-1.33,2.97-2.97,2.97H7.59Zm0-11.84c-.23,0-.41.18-.41.41v8.46c0,.23.18.41.41.41h8.46c.23,0,.41-.18.41-.41v-8.46c0-.23-.18-.41-.41-.41H7.59Z"/>
    <path class="cls-1" d="m11.18,17.55c-.34,0-.66-.13-.9-.38l-1.5-1.5c-.24-.24-.37-.56-.37-.9s.13-.66.37-.9c.24-.24.56-.38.91-.38s.66.13.9.38l.59.59,2.09-2.1c.24-.24.56-.37.9-.37s.66.13.9.37c.5.5.5,1.31,0,1.81l-3,3c-.24.24-.56.38-.91.38Z"/>
    <path class="cls-1" d="m23.18,15.82c-.71,0-1.28-.57-1.28-1.28s.57-1.28,1.28-1.28h13.85c.71,0,1.28.57,1.28,1.28s-.57,1.28-1.28,1.28h-13.85Z"/>
    <path class="cls-1" d="m31.82,12.03c-.71,0-1.28-.57-1.28-1.28s.57-1.28,1.28-1.28h8.4c.71,0,1.28.57,1.28,1.28s-.57,1.28-1.28,1.28h-8.4Z"/>
    <path class="cls-1" d="m23.18,12.03c-.71,0-1.28-.57-1.28-1.28s.57-1.28,1.28-1.28h4.5c.71,0,1.28.57,1.28,1.28s-.57,1.28-1.28,1.28h-4.5Z"/>
    <path class="cls-1" d="m28.51,19.61c-.71,0-1.28-.57-1.28-1.28s.57-1.28,1.28-1.28h4.62c.71,0,1.28.57,1.28,1.28s-.57,1.28-1.28,1.28h-4.62Z"/>
    <path class="cls-1" d="m23.18,19.61c-.71,0-1.28-.57-1.28-1.28s.57-1.28,1.28-1.28h1.18c.71,0,1.28.57,1.28,1.28s-.57,1.28-1.28,1.28h-1.18Z"/>
    <path class="cls-1" d="m7.59,37.6c-1.64,0-2.97-1.33-2.97-2.97v-8.46c0-1.64,1.33-2.97,2.97-2.97h8.46c1.64,0,2.97,1.33,2.97,2.97v8.46c0,1.64-1.33,2.97-2.97,2.97H7.59Zm0-11.84c-.23,0-.41.18-.41.41v8.46c0,.23.18.41.41.41h8.46c.23,0,.41-.18.41-.41v-8.46c0-.23-.18-.41-.41-.41H7.59Z"/>
    <path class="cls-1" d="m11.18,33.18c-.34,0-.66-.13-.9-.37l-1.5-1.5c-.24-.24-.37-.56-.37-.9s.13-.66.37-.9c.24-.24.56-.38.91-.38s.66.13.9.38l.59.59,2.09-2.1c.24-.24.56-.37.9-.37s.66.13.9.37c.24.24.38.56.38.91,0,.34-.13.66-.38.9l-3,3c-.24.24-.56.37-.91.37Z"/>
    <path class="cls-1" d="m23.18,31.44c-.71,0-1.28-.57-1.28-1.28s.57-1.28,1.28-1.28h13.85c.71,0,1.28.57,1.28,1.28s-.57,1.28-1.28,1.28h-13.85Z"/>
    <path class="cls-1" d="m31.82,27.66c-.71,0-1.28-.57-1.28-1.28s.57-1.28,1.28-1.28h8.4c.71,0,1.28.57,1.28,1.28s-.57,1.28-1.28,1.28h-8.4Z"/>
    <path class="cls-1" d="m23.18,27.66c-.71,0-1.28-.57-1.28-1.28s.57-1.28,1.28-1.28h4.5c.71,0,1.28.57,1.28,1.28s-.57,1.28-1.28,1.28h-4.5Z"/>
    <path class="cls-1" d="m28.51,35.23c-.71,0-1.28-.57-1.28-1.28s.57-1.28,1.28-1.28h4.62c.71,0,1.28.57,1.28,1.28s-.57,1.28-1.28,1.28h-4.62Z"/>
    <path class="cls-1" d="m23.18,35.23c-.71,0-1.28-.57-1.28-1.28s.57-1.28,1.28-1.28h1.18c.71,0,1.28.57,1.28,1.28s-.57,1.28-1.28,1.28h-1.18Z"/>
    <path class="cls-1" d="m7.59,53.22c-1.64,0-2.97-1.33-2.97-2.97v-8.46c0-1.64,1.33-2.97,2.97-2.97h8.46c1.64,0,2.97,1.33,2.97,2.97v8.46c0,1.64-1.33,2.97-2.97,2.97H7.59Zm0-11.84c-.23,0-.41.18-.41.41v8.46c0,.23.18.41.41.41h8.46c.23,0,.41-.18.41-.41v-8.46c0-.23-.18-.41-.41-.41H7.59Z"/>
    <path class="cls-1" d="m23.18,43.28c-.71,0-1.28-.57-1.28-1.28s.57-1.28,1.28-1.28h4.5c.71,0,1.28.57,1.28,1.28s-.57,1.28-1.28,1.28h-4.5Z"/>
    <path class="cls-1" d="m3.17,60.8c-1.75,0-3.17-1.42-3.17-3.17v-5.68c0-.71.57-1.28,1.28-1.28s1.28.57,1.28,1.28v5.68c0,.34.28.61.61.61h26.94l-.11-.97c-.15-1.29.12-2.57.77-3.69l1.57-2.72h-3.83c-.71,0-1.28-.57-1.28-1.28s.57-1.28,1.28-1.28h5.31l.71-1.23h-11.35c-.71,0-1.28-.57-1.28-1.28s.57-1.28,1.28-1.28h12.82l.71-1.23h-4.89c-.71,0-1.28-.57-1.28-1.28s.57-1.28,1.28-1.28h6.37l5.37-9.31v-14.83c0-.71.57-1.28,1.28-1.28s1.28.57,1.28,1.28v11.37c.06,0,.12-.01.19-.01.22,0,.44.06.64.17l4.1,2.37c.29.17.51.45.6.78.09.33.04.68-.13.97l-5.39,9.34v16.06c0,1.75-1.42,3.17-3.17,3.17H3.17Zm39.78-2.56c.34,0,.61-.28.61-.61v-11.63l-.99,1.72c-.23.39-.65.64-1.11.64-.22,0-.44-.06-.64-.17-.61-.35-.82-1.14-.47-1.75l4.28-7.41-1.88-1.09-9.77,16.92c-.37.65-.53,1.38-.44,2.12l.08.68.63-.27c.67-.29,1.25-.8,1.62-1.44l3.44-5.96c.23-.39.65-.64,1.11-.64.22,0,.44.06.64.17.61.35.82,1.14.47,1.75l-3.44,5.96c-.21.37-.46.71-.74,1.02h6.61Zm2.96-21.43l.62-1.07-1.88-1.09-.62,1.07,1.88,1.09Zm1.89-3.28l.85-1.48-1.88-1.09-.85,1.48,1.88,1.09Z"/>
  </g>
</svg>