<?xml version="1.0" encoding="UTF-8"?>
<svg id="Layer_2" data-name="Layer 2" xmlns="http://www.w3.org/2000/svg" viewBox="0 0 60.39 60.4">
  <defs>
    <style>
      .cls-1 {
        fill: #c73e9b;
      }
    </style>
  </defs>
  <g id="Layer_1-2" data-name="Layer 1">
    <path class="cls-1" d="m30.01,60.4c-.27,0-.52-.1-.71-.28l-2.51-2.37c-.23-.24-.33-.51-.33-.79,0-.28.12-.54.33-.74l2.46-2.35c.2-.18.45-.29.72-.29.29,0,.55.11.75.32.4.41.4,1.08-.02,1.49l-.7.67c.07,0,.14,0,.21,0,10.33,0,19.64-6.14,23.72-15.64.17-.38.54-.63.96-.63.14,0,.28.03.42.09.53.23.78.85.55,1.38-4.4,10.25-14.43,16.87-25.57,16.91l.45.43c.41.4.43,1.06.04,1.47-.2.21-.48.33-.77.33Zm-10.47-4.43c-.14,0-.27-.03-.4-.08C8.87,51.47,2.28,41.48,2.23,30.33l-.43.46c-.2.2-.47.31-.75.31-.26,0-.51-.09-.7-.27-.21-.19-.33-.44-.35-.72-.02-.28.08-.55.27-.76l2.37-2.51c.2-.21.47-.33.76-.33.29,0,.57.12.76.32l2.36,2.45c.19.2.3.47.29.75,0,.28-.12.54-.32.74-.2.19-.46.29-.73.29-.29,0-.56-.11-.76-.32l-.67-.7c-.07,10.43,6.03,19.78,15.63,23.92.52.23.76.83.54,1.36-.16.39-.54.65-.97.65h0Zm8.3-4.89c-1.56,0-2.83-1.27-2.83-2.83v-2.85c-.64-.22-1.27-.48-1.88-.78l-2.02,2.02c-.54.53-1.25.83-2,.83s-1.47-.29-2-.83l-3.34-3.34c-1.1-1.11-1.1-2.9,0-4.01l2.02-2.02c-.3-.61-.56-1.24-.78-1.88h-2.85c-1.56,0-2.83-1.27-2.83-2.83v-4.72c0-1.56,1.27-2.83,2.83-2.83h2.85c.22-.63.48-1.27.78-1.88l-2.02-2.02c-1.1-1.11-1.1-2.9,0-4.01l3.34-3.34c.54-.53,1.25-.83,2-.83s1.47.29,2,.83l2.02,2.02c.6-.3,1.23-.56,1.88-.78v-2.85c0-1.56,1.27-2.83,2.83-2.83h4.72c1.56,0,2.83,1.27,2.83,2.83v2.85c.64.22,1.27.48,1.88.78l2.02-2.02c.54-.53,1.25-.83,2-.83s1.47.29,2,.83l3.34,3.34c1.1,1.1,1.1,2.9,0,4.01l-2.02,2.02c.3.6.56,1.23.78,1.88h2.85c1.56,0,2.83,1.27,2.83,2.83v4.72c0,1.56-1.27,2.83-2.83,2.83h-2.85c-.22.64-.48,1.27-.78,1.88l2.02,2.02c1.1,1.11,1.1,2.9,0,4.01l-3.34,3.34c-.54.53-1.25.83-2,.83s-1.47-.29-2-.83l-2.02-2.02c-.61.3-1.24.56-1.88.78v2.85c0,1.56-1.27,2.83-2.83,2.83h-4.72Zm-4.91-8.8c.18,0,.35.05.51.13.92.51,1.9.92,2.91,1.21.45.13.76.54.76,1.01v3.62c0,.4.33.73.73.73h4.72c.4,0,.73-.33.73-.73v-3.62c0-.47.31-.88.76-1.01,1.01-.29,1.99-.7,2.9-1.2.15-.09.33-.13.51-.13.28,0,.54.11.74.31l2.56,2.56c.14.14.32.21.52.21s.38-.08.52-.21l3.34-3.34c.29-.29.29-.75,0-1.04l-2.56-2.56c-.33-.33-.4-.84-.18-1.25.51-.92.92-1.9,1.2-2.9.13-.45.54-.76,1.01-.76h3.62c.4,0,.73-.33.73-.73v-4.72c0-.41-.33-.73-.73-.73h-3.62c-.47,0-.88-.31-1.01-.76-.29-1.01-.7-1.99-1.21-2.9-.23-.41-.15-.92.18-1.25l2.56-2.56c.29-.29.29-.75,0-1.04l-3.34-3.34c-.14-.14-.32-.21-.52-.21s-.38.08-.52.21l-2.56,2.56c-.2.2-.46.31-.74.31-.18,0-.35-.04-.51-.13-.92-.51-1.89-.91-2.9-1.2-.45-.13-.76-.54-.76-1.01v-3.62c0-.4-.33-.73-.73-.73h-4.72c-.4,0-.73.33-.73.73v3.62c0,.47-.31.88-.76,1.01-1.01.29-1.99.7-2.9,1.21-.15.09-.33.13-.51.13-.28,0-.54-.11-.74-.31l-2.56-2.56c-.14-.14-.32-.21-.52-.21s-.38.08-.52.21l-3.34,3.34c-.28.29-.28.75,0,1.04l2.56,2.56c.33.33.4.84.18,1.25-.51.92-.92,1.9-1.21,2.9-.13.45-.54.76-1.01.76h-3.62c-.4,0-.73.33-.73.73v4.72c0,.4.33.73.73.73h3.62c.47,0,.88.31,1.01.76.29,1.01.69,1.98,1.2,2.9.23.41.15.92-.17,1.25l-2.56,2.56c-.29.29-.29.75,0,1.04l3.34,3.34c.14.14.32.21.52.21s.38-.08.52-.21l2.56-2.56c.2-.2.46-.31.74-.31Zm7.27-.79c-6.23,0-11.29-5.07-11.29-11.29s5.07-11.29,11.29-11.29,11.29,5.07,11.29,11.29c0,6.22-5.07,11.29-11.29,11.29h0Zm0-20.49c-5.07,0-9.19,4.12-9.19,9.19,0,5.06,4.13,9.19,9.19,9.19,5.07,0,9.19-4.12,9.19-9.19s-4.12-9.19-9.19-9.19Zm26.66,13.52c-.29,0-.56-.14-.76-.35l-2.27-2.53c-.2-.22-.29-.49-.27-.77s.14-.54.35-.72c.19-.17.44-.26.69-.26.3,0,.59.13.79.35l.65.72c.38-10.48-5.41-19.98-14.84-24.3-.53-.24-.76-.86-.52-1.39.17-.37.54-.62.96-.62.15,0,.3.03.43.09,5.33,2.42,9.65,6.4,12.51,11.5,2.48,4.42,3.71,9.42,3.57,14.48l.44-.43c.2-.2.46-.3.74-.3s.55.11.75.31c.41.41.4,1.08,0,1.48l-2.45,2.42c-.2.2-.46.3-.74.3h-.03ZM5.42,20.6c-.14,0-.27-.03-.4-.08-.26-.11-.46-.31-.57-.57-.11-.26-.11-.54,0-.8,2.3-5.46,6.37-10.09,11.47-13.06,4.34-2.53,9.29-3.87,14.32-3.87.13,0,.26,0,.39,0l-.43-.43c-.41-.41-.41-1.08,0-1.48.2-.2.46-.31.74-.31s.55.11.74.31l2.43,2.45c.2.2.31.46.31.74s-.11.54-.31.74l-2.57,2.31c-.19.17-.44.26-.7.26-.3,0-.59-.13-.79-.36-.37-.43-.34-1.08.08-1.47l.74-.66c-.18,0-.37,0-.55,0-10.52,0-19.92,6.14-23.95,15.63-.16.39-.54.65-.97.65Z"/>
  </g>
</svg>