<?xml version="1.0" encoding="UTF-8"?>
<svg id="Layer_2" data-name="Layer 2" xmlns="http://www.w3.org/2000/svg" viewBox="0 0 60.41 60">
  <defs>
    <style>
      .cls-1 {
        fill: #c73e9b;
      }
    </style>
  </defs>
  <g id="Layer_1-2" data-name="Layer 1">
    <g>
      <path class="cls-1" d="m55.88,0H4.53C2.03,0,0,2.03,0,4.53v36.25c0,2.5,2.03,4.53,4.53,4.53h19.63v-3.02H4.53c-.83,0-1.51-.68-1.51-1.51V4.53c0-.83.68-1.51,1.51-1.51h51.35c.83,0,1.51.68,1.51,1.51v27.18h3.02V4.53c0-2.5-2.03-4.53-4.53-4.53Z"/>
      <rect class="cls-1" x="18.12" y="43.8" width="3.02" height="9.06"/>
      <path class="cls-1" d="m10.57,36.25c-.83,0-1.51-.68-1.51-1.51v-3.02h-3.02v3.02c0,2.5,2.03,4.53,4.53,4.53h3.02v-3.02h-3.02Z"/>
      <path class="cls-1" d="m55.19,31.99c-3.08-3.08-7.25-4.81-11.6-4.81-9.06,0-16.41,7.35-16.41,16.41,0,9.06,7.35,16.41,16.41,16.41,4.35,0,8.52-1.73,11.6-4.8,6.41-6.41,6.41-16.8,0-23.21Zm-11.61,24.99c-7.39,0-13.39-6-13.38-13.39,0-7.39,6-13.39,13.39-13.38,3.55,0,6.96,1.4,9.47,3.93,2.51,2.51,3.92,5.92,3.92,9.47,0,7.39-6,13.39-13.39,13.38Z"/>
      <path class="cls-1" d="m43.8,33.23v3.02c4.17,0,7.55,3.38,7.55,7.55h3.02c0-5.84-4.74-10.56-10.57-10.57Z"/>
      <rect class="cls-1" x="15.1" y="51.35" width="12.08" height="3.02"/>
      <path class="cls-1" d="m22.65,6.04c-2.5,0-4.53,2.03-4.53,4.53s2.03,4.53,4.53,4.53,4.53-2.03,4.53-4.53-2.03-4.53-4.53-4.53Zm0,6.04c-.83,0-1.51-.68-1.51-1.51s.68-1.51,1.51-1.51,1.51.68,1.51,1.51-.68,1.51-1.51,1.51Z"/>
      <path class="cls-1" d="m33.23,16.61c-2.5,0-4.53,2.03-4.53,4.53s2.03,4.53,4.53,4.53,4.53-2.03,4.53-4.53-2.03-4.53-4.53-4.53Zm0,6.04c-.83,0-1.51-.68-1.51-1.51s.68-1.51,1.51-1.51,1.51.68,1.51,1.51c0,.83-.68,1.51-1.51,1.51Z"/>
      <rect class="cls-1" x="12.03" y="14.35" width="10.68" height="3.02" transform="translate(-6.13 16.93) rotate(-45)"/>
      <rect class="cls-1" x="26.42" y="10.52" width="3.02" height="10.68" transform="translate(-3.03 24.4) rotate(-45)"/>
      <path class="cls-1" d="m43.8,6.04c-2.5,0-4.53,2.03-4.53,4.53s2.03,4.53,4.53,4.53,4.53-2.03,4.53-4.53c0-2.5-2.03-4.53-4.53-4.53Zm0,6.04c-.83,0-1.51-.68-1.51-1.51s.68-1.51,1.51-1.51,1.51.68,1.51,1.51-.68,1.51-1.51,1.51Z"/>
      <rect class="cls-1" x="33.17" y="14.35" width="10.68" height="3.02" transform="translate(.06 31.88) rotate(-45)"/>
    </g>
  </g>
</svg>