<svg width="100" height="100" viewBox="0 0 100 100" fill="none" xmlns="http://www.w3.org/2000/svg">
<g clip-path="url(#clip0_48_1871)">
<path d="M27.2152 93.0889C27.2151 93.0889 27.2151 93.0889 27.2152 93.0889V93.0889ZM99.6539 66.8361C99.2137 67.8424 98.4104 68.6162 97.392 69.0146L91.6613 71.2568C91.1787 71.4455 90.6744 71.5398 90.1705 71.5398C89.6108 71.5398 89.0514 71.4236 88.5219 71.192C87.7401 70.85 87.1016 70.2869 86.6674 69.576L80.149 72.3553C80.3563 73.6195 80.1619 74.9523 79.5059 76.1453C78.7332 77.5502 77.4541 78.5664 75.9045 79.0066C75.8885 79.0111 75.8723 79.0143 75.8561 79.0186C76.4391 80.5871 76.369 82.384 75.509 83.9477C74.4272 85.9145 72.3879 87.0279 70.2873 87.0279C69.8528 87.0279 69.4158 86.9775 68.984 86.8799C69.0346 87.935 68.8063 89.0129 68.2643 89.998C67.1826 91.9648 65.1434 93.0783 63.0428 93.0783C62.7875 93.0783 62.5317 93.0607 62.2762 93.0275C62.3555 94.1311 62.1309 95.2676 61.5602 96.3053C60.4785 98.2719 58.4393 99.3855 56.3387 99.3855C55.3703 99.3855 54.3893 99.149 53.4824 98.6504L51.4256 97.5193C50.6684 98.5783 49.5879 99.3566 48.3156 99.7422C47.742 99.916 47.1565 100.002 46.5748 100.002C45.611 100.002 44.658 99.7658 43.7869 99.2998C42.4213 98.5695 41.457 97.3785 40.982 96.0205C40.7307 96.1363 40.4701 96.2365 40.2004 96.3184C39.627 96.4922 39.0412 96.5783 38.4598 96.5783C37.4959 96.5783 36.5428 96.342 35.6717 95.876C34.436 95.215 33.5299 94.1766 33.0162 92.9787C32.6197 93.2082 32.1944 93.3949 31.7442 93.5312C31.1705 93.7051 30.5852 93.7912 30.0035 93.7912C29.0399 93.7912 28.0865 93.5547 27.2156 93.0889C25.819 92.3418 24.7953 91.0914 24.3336 89.5676C24.05 88.632 24.0008 87.6648 24.1772 86.7342C24.0596 86.7412 23.9422 86.7473 23.825 86.7473C22.8611 86.7473 21.9082 86.5109 21.0371 86.0451C19.6404 85.298 18.6168 84.0475 18.1551 82.5236C17.6934 81 17.8504 79.3916 18.5975 77.9949L20.0985 75.1885C19.71 74.3227 19.5361 73.3732 19.367 72.4469C19.0524 70.7219 18.8248 69.8783 18.1 69.5969C17.5645 69.3891 15.9486 68.6791 12.9252 67.3225C12.1404 68.3193 10.9391 68.8893 9.69455 68.8893C9.12443 68.8893 8.54591 68.7701 7.99454 68.518L2.39767 65.9602C0.339272 65.0195 -0.570103 62.5793 0.370522 60.5209L11.8733 35.352C12.8139 33.2934 15.2543 32.3842 17.3125 33.325L22.9094 35.8826C24.9678 36.8236 25.8772 39.2637 24.9365 41.3221L24.5883 42.084L29.6547 44.4213C29.6926 44.4389 29.7299 44.458 29.7664 44.4783C31.782 45.6129 33.8733 45.1189 36.5199 44.4936C39.9701 43.6785 44.2174 42.6773 49.1912 45.6131C56.0315 41.3795 61.284 43.5211 65.1643 45.107C67.9854 46.2602 69.8033 46.9209 71.5576 46.0086L76.3672 43.4342L76.26 43.16C75.4354 41.0523 76.4791 38.6668 78.5865 37.842L84.3174 35.5996C86.4254 34.7754 88.8104 35.8191 89.6354 37.9262C89.6356 37.9262 89.6356 37.9262 89.6356 37.9264L99.719 63.6965C100.117 64.715 100.094 65.8299 99.6539 66.8361ZM10.5912 65.1922L22.0938 40.0232C22.3145 39.5402 22.093 38.9457 21.6098 38.725L16.0131 36.1674C15.7776 36.0596 15.5119 36.051 15.2651 36.1432C15.018 36.2352 14.8227 36.4156 14.7152 36.651L3.21232 61.8199C2.99162 62.3029 3.2131 62.8973 3.69611 63.118L9.29298 65.6758C9.77619 65.8967 10.3705 65.6748 10.5912 65.1922ZM24.659 83.4967C25.3807 83.2779 25.9721 82.7963 26.3258 82.14C26.3258 82.14 29.1141 76.9277 29.1156 76.925C29.836 75.5785 29.307 73.8232 27.96 73.1059C26.6162 72.3902 24.8637 72.9039 24.1373 74.2621C24.1373 74.2621 21.3539 79.4662 21.3526 79.4688C20.6307 80.8186 21.1631 82.5689 22.5104 83.2895C23.1713 83.6428 23.9346 83.7162 24.659 83.4967ZM32.5094 89.1756C32.5094 89.1756 36.2813 82.1234 36.2826 82.1205C37.0018 80.7762 36.4727 79.018 35.1272 78.3014C33.7926 77.5906 32.0406 78.0953 31.3102 79.4479L27.5311 86.5125C27.1776 87.173 27.1039 87.9363 27.3236 88.6611C27.5434 89.3859 28.0281 89.9797 28.6889 90.3332C29.3496 90.6865 30.1123 90.7602 30.8373 90.5406C31.5623 90.3211 32.1563 89.8361 32.5094 89.1756ZM40.9656 91.9627C40.9656 91.9627 44.0153 86.2602 44.0168 86.2572C44.7371 84.9102 44.2086 83.1553 42.8613 82.4379C41.508 81.7172 39.761 82.2432 39.0385 83.5941L35.9873 89.2996C35.2531 90.6723 35.7727 92.3861 37.1453 93.1203C37.8061 93.4736 38.569 93.5475 39.294 93.3275C40.0188 93.108 40.6125 92.6232 40.9656 91.9627ZM49.0809 95.3865C49.0809 95.3865 51.7502 90.3951 51.751 90.3938C52.4645 89.0598 51.934 87.2873 50.5955 86.5746C49.2424 85.8541 47.4953 86.3795 46.7727 87.7309L44.1022 92.7242C43.3688 94.0967 43.8883 95.8102 45.2606 96.5441C45.9215 96.8977 46.6848 96.9715 47.4092 96.7514C48.1338 96.5318 48.7276 96.0471 49.0809 95.3865ZM57.924 91.0994L55.225 89.615C55.2112 89.6074 55.1986 89.5982 55.185 89.5904C55.1164 90.3787 54.8897 91.1512 54.5067 91.8676L52.9445 94.7887L54.9881 95.9125C56.3524 96.6627 58.0719 96.1635 58.8219 94.7996C59.5285 93.515 59.1201 91.91 57.924 91.0994ZM75.634 70.7939L60.4666 62.149C57.8736 60.6707 54.6475 61.9771 50.9127 63.4893C45.2811 65.7691 38.2721 68.6066 32.3438 60.4373C32.0832 60.0783 31.9875 59.6254 32.0805 59.1918C32.1735 58.7582 32.4467 58.3844 32.8317 58.1639C37.3332 55.5852 41.1162 52.7611 44.076 49.7703C44.8324 49.0059 45.5992 48.3025 46.3692 47.6611C43.0356 46.1662 40.2057 46.8338 37.2381 47.535C34.343 48.2188 31.3502 48.9258 28.2908 47.2338L23.2889 44.9262L14.3305 64.5283C16.1172 65.3299 18.6256 66.449 19.2303 66.6838C21.4725 67.5543 22.0297 69.7107 22.36 71.4498C23.0533 70.7361 23.9207 70.2041 24.9027 69.9064C26.427 69.4447 28.035 69.6018 29.4317 70.3488C30.8242 71.0904 31.8477 72.3389 32.3108 73.8625C32.4231 74.232 32.4985 74.6064 32.5385 74.9816C33.9195 74.6801 35.3444 74.8734 36.5988 75.5443C37.9914 76.2859 39.0149 77.5342 39.4779 79.058C39.5045 79.1457 39.5287 79.2336 39.5512 79.3217C39.6348 79.2924 39.7188 79.2643 39.8041 79.2383C41.3279 78.7766 42.9363 78.9338 44.333 79.6807C45.7256 80.4225 46.7488 81.6707 47.2121 83.1943C47.2389 83.282 47.2629 83.3701 47.2854 83.4582C47.3688 83.4289 47.4529 83.4006 47.5381 83.3748C49.0613 82.9131 50.6699 83.0701 52.067 83.8172C52.7473 84.1795 53.3387 84.6633 53.8205 85.2404L61.6922 89.6047C63.0555 90.3543 64.7758 89.8559 65.5262 88.492C66.2692 87.1414 65.7639 85.4182 64.3998 84.6506L55.0377 79.3812C54.2856 78.958 54.0192 78.0053 54.4424 77.2531C54.8656 76.5012 55.8182 76.2346 56.5705 76.6578L68.9367 83.5543C70.3 84.3041 72.0203 83.8053 72.7707 82.4414C73.5084 81.1002 73.0141 79.3922 71.6711 78.617C71.5842 78.5734 60.5393 72.34 60.5393 72.34C59.7879 71.9156 59.5229 70.9625 59.9473 70.2111C60.3715 69.46 61.3244 69.1941 62.0762 69.6191L72.9492 75.7607C73.585 76.1197 74.3313 76.2049 75.05 76.0006C75.7905 75.7902 76.4004 75.3066 76.7676 74.6393C77.5063 73.2965 76.9979 71.5713 75.634 70.7939ZM85.4672 66.6906L77.5139 46.3648L73.0156 48.7725C69.8723 50.4074 66.8776 49.1836 63.9815 47.9998C60.026 46.383 55.9358 44.7113 50.0242 48.7979C48.7859 49.6537 47.532 50.7205 46.2973 51.9684C43.4957 54.7992 40.0256 57.4771 35.9649 59.9436C40.1444 64.4766 44.6213 62.6648 49.7401 60.5928C53.8526 58.9279 58.1049 57.2061 62.0143 59.4342L77.1815 68.0791C77.8447 68.457 78.4096 68.9441 78.8664 69.5051L85.4672 66.6906ZM96.8084 64.8354C96.8084 64.8354 86.7295 39.0766 86.725 39.0652C86.534 38.577 85.944 38.3188 85.4559 38.51L79.7252 40.7521C79.2309 40.9457 78.9764 41.527 79.1699 42.0215L89.2535 67.7916C89.3477 68.0326 89.5328 68.2236 89.7742 68.3293C90.0158 68.4352 90.2817 68.4414 90.5225 68.3469L96.2531 66.1047C96.4942 66.0104 96.6852 65.8254 96.7908 65.5838C96.8965 65.3422 96.9029 65.0764 96.8084 64.8354ZM84.0578 41.0836C82.859 41.0836 81.8811 42.0613 81.8811 43.2602C81.8811 44.459 82.859 45.4369 84.0578 45.4369C85.2567 45.4369 86.2346 44.459 86.2346 43.2602C86.2346 42.0613 85.2569 41.0836 84.0578 41.0836ZM17.2654 38.815C16.0651 38.748 15.0379 39.6668 14.9709 40.8672C14.9039 42.0676 15.8227 43.0947 17.0231 43.1617C18.2235 43.2287 19.2506 42.31 19.3176 41.1096C19.3846 39.9092 18.4658 38.8818 17.2654 38.815ZM17.4846 28.5463C16.7129 27.4994 16.4998 26.2389 16.8846 24.9969C17.9561 21.5369 20.4332 18.8441 23.5809 17.4553C22.3541 16.2035 21.5957 14.491 21.5957 12.6041C21.5957 8.7793 24.7076 5.66738 28.5324 5.66738C32.3572 5.66738 35.4688 8.7791 35.4688 12.6039C35.4688 14.49 34.7111 16.2018 33.4856 17.4533C35.0291 18.1361 36.4188 19.1393 37.5674 20.4141C39.3174 18.1758 41.6565 16.4352 44.3432 15.4074C42.4553 13.802 41.2545 11.4119 41.2545 8.74551C41.2545 3.92324 45.1779 0 50.0002 0C54.8225 0 58.7457 3.92324 58.7457 8.7457C58.7457 11.4123 57.5447 13.8023 55.657 15.4078C58.3438 16.4355 60.6828 18.1764 62.4328 20.4146C63.5817 19.1398 64.9711 18.1367 66.5147 17.4539C65.2891 16.2021 64.5313 14.4904 64.5313 12.6043C64.5313 8.77949 67.6432 5.66777 71.468 5.66777C75.2928 5.66777 78.4047 8.77949 78.4047 12.6043C78.4047 14.4914 77.6463 16.2039 76.4195 17.4557C79.567 18.8445 82.0443 21.5371 83.1156 24.9973C83.5004 26.2393 83.2873 27.4998 82.5156 28.5467C81.7436 29.5936 80.6026 30.1701 79.3024 30.1701H65.6879V31.4787C65.6877 34.4338 63.2834 36.8379 60.3287 36.8379H39.6715C36.7164 36.8379 34.3125 34.4338 34.3125 31.4787V30.1697H20.6979C19.3971 30.1695 18.2561 29.5932 17.4846 28.5463ZM71.4664 16.4158H71.4678H71.4694C73.5703 16.415 75.2797 14.7055 75.2797 12.6043C75.2797 10.5025 73.5697 8.79277 71.468 8.79277C69.3662 8.79277 67.6563 10.5025 67.6563 12.6043C67.6563 14.7055 69.3654 16.415 71.4664 16.4158ZM64.1803 23.2188C64.7613 24.4139 65.1986 25.6953 65.4652 27.0451H79.3024C79.601 27.0451 79.8229 26.933 80.0004 26.6924C80.1776 26.4521 80.219 26.207 80.1307 25.9217C78.949 22.1059 75.4688 19.542 71.4701 19.541C71.4695 19.541 71.4688 19.541 71.4682 19.541C71.4676 19.541 71.467 19.541 71.4664 19.541C68.5496 19.5414 65.8865 20.9033 64.1803 23.2188ZM49.9961 14.3662H50H50.0041C53.1016 14.3641 55.6209 11.8436 55.6209 8.7457C55.6207 5.64648 53.0994 3.125 50.0002 3.125C46.901 3.125 44.3795 5.64648 44.3795 8.7457C44.3795 11.8436 46.8988 14.3641 49.9961 14.3662ZM37.4375 28.6928V31.4785C37.4375 32.7105 38.4397 33.7127 39.6715 33.7127H60.3285C61.5606 33.7127 62.5625 32.7104 62.5627 31.4785V28.6928C61.8383 22.302 56.4537 17.4932 50.0039 17.4912C50.0027 17.4912 50.0014 17.4912 50 17.4912C49.9986 17.4912 49.9973 17.491 49.9959 17.491C43.5461 17.4932 38.1615 22.3021 37.4375 28.6928ZM28.5309 16.4154H28.5322C28.5322 16.4154 28.5332 16.4154 28.5336 16.4154C30.6348 16.4146 32.3438 14.7051 32.3438 12.6039C32.3438 10.5021 30.634 8.79219 28.5322 8.79219C26.4305 8.79219 24.7205 10.5021 24.7205 12.6039C24.7205 14.7053 26.4297 16.4146 28.5309 16.4154ZM19.9998 26.6922C20.1772 26.9326 20.3988 27.0447 20.6977 27.0447H34.535C34.8016 25.6951 35.2389 24.4135 35.8197 23.2186C34.1135 20.9031 31.4502 19.5412 28.5336 19.5406C28.5332 19.5406 28.5326 19.5406 28.532 19.5406C28.5315 19.5406 28.5307 19.5406 28.5299 19.5406C24.5311 19.5416 21.0508 22.1055 19.8692 25.9213C19.7811 26.2064 19.8225 26.4516 19.9998 26.6922Z" fill="#0195FF"/>
</g>
<defs>
<clipPath id="clip0_48_1871">
<rect width="100" height="100" fill="white"/>
</clipPath>
</defs>
</svg>
