<svg width="100" height="100" viewBox="0 0 100 100" fill="none" xmlns="http://www.w3.org/2000/svg">
<g clip-path="url(#clip0_48_1783)">
<path d="M97.1924 16.2939C97.1924 12.5184 96.5484 8.81309 95.2781 5.28047C94.8351 4.04922 93.4703 3.37402 92.2357 3.77715C90.4816 4.34961 88.275 3.3166 85.9394 2.22285C83.7148 1.18086 81.1929 0 78.5379 0C75.8828 0 73.3607 1.18086 71.1359 2.22266C68.8006 3.31621 66.5947 4.34922 64.8396 3.77695C63.6047 3.37461 62.2398 4.04922 61.7974 5.28066C60.5273 8.8127 59.8832 12.5182 59.8832 16.2939C59.8832 16.8457 59.9017 17.3916 59.9295 17.934C55.1994 16.0072 50.0304 14.9414 44.6164 14.9414C22.1619 14.9414 3.89373 33.2096 3.89373 55.6641C3.89373 60.7984 4.8531 65.7115 6.59529 70.2397L3.64744 73.1875C2.52751 74.3076 2.52751 76.1303 3.64744 77.2506L25.5554 99.1584C26.098 99.7012 26.8197 100 27.5871 100C28.3545 100 29.076 99.7012 29.6187 99.1584L33.8408 94.9363C37.2744 95.8801 40.8871 96.3867 44.6162 96.3867C48.3453 96.3867 51.958 95.8801 55.3916 94.9363L59.6136 99.1582C60.1562 99.701 60.8779 99.9998 61.6453 99.9998C62.4127 99.9998 63.1341 99.701 63.6769 99.1582L72.0668 90.7684C72.6388 90.1963 72.6388 89.2687 72.0668 88.6969C71.4945 88.1248 70.5672 88.1248 69.9951 88.6969L61.6453 97.0467L54.0049 89.4062L75.833 67.5783L83.4732 75.2188L74.8287 83.8631C74.2566 84.4352 74.2566 85.3627 74.8287 85.9346C75.4009 86.5066 76.3283 86.5066 76.9004 85.9346L85.5847 77.2502C86.1273 76.7074 86.4263 75.9859 86.4263 75.2186C86.4263 74.451 86.1275 73.7295 85.5847 73.1869L82.6371 70.2393C84.3793 65.7111 85.3386 60.798 85.3386 55.6637C85.3386 50.7215 84.449 45.9846 82.8289 41.5984C92.1228 35.6758 97.1924 26.8072 97.1924 16.2939ZM27.5873 97.0469L5.75916 75.2189L13.3994 67.5787L35.2275 89.4066L27.5873 97.0469ZM42.6836 39.9936H45.5748L48.3037 42.7225C48.84 43.259 49.1263 43.9723 49.1095 44.7311C49.0929 45.4891 48.7742 46.19 48.2123 46.7045C47.1424 47.6836 45.3943 47.6025 44.3156 46.5234L34.6324 36.8402C33.5588 35.7664 33.5588 34.0195 34.6322 32.9457C35.0363 32.5418 35.5357 32.2922 36.0584 32.193C36.0547 32.2619 36.0478 32.3301 36.0478 32.3998V33.3578C36.0478 37.0168 39.0246 39.9936 42.6836 39.9936ZM38.9775 33.3578V32.3998C38.9775 31.9348 39.356 31.5564 39.8209 31.5564H47.3535C48.3369 31.5564 49.2238 32.0785 49.7121 32.8895L45.5373 37.0643H42.6836C40.64 37.0639 38.9775 35.4014 38.9775 33.3578ZM43.4427 49.7938C43.9685 50.3195 44.2549 51.0187 44.2492 51.7625C44.2433 52.5062 43.9459 53.201 43.4119 53.7186C42.3384 54.7588 40.6051 54.7453 39.5484 53.6883L28.6664 42.8063H28.6662C28.1461 42.2861 27.8595 41.5945 27.8595 40.859C27.8595 40.1234 28.1461 39.4318 28.6664 38.9117C29.1863 38.3916 29.8779 38.1053 30.6136 38.1053C31.3492 38.1053 32.0408 38.3916 32.5607 38.9117L43.4427 49.7938ZM35.5289 53.8121C36.0549 54.3381 36.3412 55.0373 36.3353 55.7811C36.3297 56.5248 36.0322 57.2193 35.498 57.7371C34.4246 58.7775 32.6914 58.7637 31.6345 57.7068L24.5261 50.5984L22.7002 48.7725C22.1801 48.2523 21.8937 47.5607 21.8937 46.8252C21.8937 46.0896 22.1801 45.398 22.7002 44.8779C23.2371 44.341 23.9424 44.0727 24.6476 44.0727C25.3525 44.0727 26.0576 44.3408 26.5943 44.8773L26.5949 44.8779L35.5289 53.8121ZM22.4525 52.668L27.2133 57.4287C27.7385 57.9545 28.0246 58.6533 28.0187 59.3963C28.0129 60.14 27.7154 60.8348 27.1814 61.3523C26.1078 62.3926 24.3748 62.3791 23.3179 61.3221L18.5599 56.5641C17.4863 55.4902 17.4863 53.7434 18.5597 52.6695C19.0967 52.1326 19.8019 51.8643 20.5072 51.8643C21.2115 51.8647 21.9158 52.1324 22.4525 52.668ZM25.266 65.0484C26.6947 65.0484 28.1244 64.5186 29.2205 63.4562C30.007 62.6939 30.5431 61.7451 30.7912 60.7066C31.6529 61.1895 32.6174 61.4328 33.5826 61.4328C35.0113 61.4328 36.4408 60.9029 37.5369 59.8406C38.3685 59.0348 38.9217 58.0207 39.1484 56.9123C39.8914 57.2463 40.6935 57.4145 41.4963 57.4145C42.925 57.4145 44.3547 56.8846 45.4508 55.8223C46.5531 54.7539 47.1668 53.3203 47.1787 51.7854C47.1826 51.2771 47.1191 50.7793 46.9947 50.301C48.1525 50.1795 49.2748 49.7037 50.1904 48.8654C51.3476 47.8061 52.0039 46.3607 52.0385 44.7959C52.0728 43.2303 51.482 41.7582 50.375 40.6512L48.2342 38.5104L52.9101 33.8344C53.9843 32.7609 55.7312 32.7607 56.8047 33.8344C57.8771 34.9068 57.8783 36.6512 56.8086 37.7252C56.8074 37.7264 56.8062 37.7275 56.8049 37.7289C56.2328 38.301 56.2328 39.2285 56.805 39.8004C57.3769 40.3725 58.3045 40.3723 58.8765 39.8004C59.95 38.7268 61.6972 38.7268 62.7707 39.8004C63.8431 40.8729 63.8443 42.6172 62.7744 43.6912C62.7732 43.6924 62.772 43.6936 62.7709 43.6949H62.7707C62.1986 44.267 62.1986 45.1945 62.7707 45.7664C63.3427 46.3385 64.2703 46.3385 64.8422 45.7664C65.3625 45.2461 66.0539 44.9598 66.7896 44.9598C67.5252 44.9598 68.2168 45.2461 68.7367 45.7662C69.8105 46.84 69.8105 48.5871 68.7367 49.6607C68.1646 50.2328 68.1646 51.1604 68.7367 51.7322C69.3088 52.3043 70.2363 52.3043 70.8082 51.7322C71.341 51.1996 72.0437 50.9125 72.8021 50.9262C73.5547 50.9387 74.2533 51.2494 74.7691 51.801C75.7711 52.8719 75.7062 54.6232 74.6246 55.7049L64.1144 66.215C63.5424 66.7871 63.5424 67.7147 64.1144 68.2865C64.6867 68.8586 65.614 68.8586 66.1861 68.2865L68.75 65.7236L71.1474 68.1211L55.6019 83.6666L47.1949 75.2596C48.3906 74.8408 49.6636 74.6398 50.9486 74.6877L53.7363 74.7906C56.192 74.883 58.6152 74.2844 60.7511 73.0639C61.4537 72.6625 61.6978 71.7676 61.2963 71.0652C60.8949 70.3627 59.9998 70.1188 59.2978 70.5199C57.6369 71.4689 55.7492 71.9338 53.8447 71.8627L51.057 71.7598C47.4131 71.623 43.8435 73.0266 41.265 75.6051L33.4174 83.4527L18.3543 68.3898L22.441 64.3031C23.3111 64.799 24.2881 65.0484 25.266 65.0484ZM44.6164 93.457C41.7445 93.457 38.9488 93.1287 36.259 92.5184L37.3392 91.4381C37.8818 90.8955 38.1808 90.1738 38.1808 89.4064C38.1808 88.6389 37.882 87.9174 37.3392 87.3748L35.489 85.5246L43.3369 77.6768C43.6955 77.318 44.0799 76.99 44.484 76.6914L53.5304 85.7379L51.8935 87.3748C50.7738 88.4949 50.7738 90.3176 51.8937 91.4379L52.974 92.5182C50.284 93.1287 47.4883 93.457 44.6164 93.457ZM82.4093 55.6641C82.4093 59.966 81.6855 64.1018 80.3552 67.9576L77.8648 65.4672C77.3222 64.9244 76.6006 64.6256 75.8332 64.6256C75.0658 64.6256 74.3441 64.9244 73.8015 65.4672L73.2191 66.0496L70.8216 63.6521L76.697 57.7768C78.8832 55.5904 78.9787 52.0119 76.9095 49.8C75.8465 48.6633 74.4052 48.023 72.8517 47.9971C72.722 47.9947 72.5926 47.9971 72.4638 48.0035C72.5422 46.4531 71.9906 44.8764 70.8092 43.6947C69.7357 42.6213 68.3084 42.0301 66.7904 42.0301C66.6924 42.0301 66.5947 42.0326 66.4976 42.0375C66.5759 40.4871 66.0246 38.9102 64.8429 37.7287C63.6605 36.5463 62.084 35.9957 60.5314 36.0742C60.6107 34.5229 60.0592 32.9449 58.8767 31.7627C56.9904 29.8764 54.0976 29.5969 51.9115 30.9223C50.8627 29.5129 49.1916 28.6268 47.3539 28.6268H39.8213C39.0129 28.6268 38.2648 28.8846 37.65 29.3191C35.8623 28.9781 33.9424 29.493 32.5609 30.874C31.3793 32.0557 30.8283 33.6324 30.9068 35.183C30.8095 35.1781 30.7119 35.1754 30.6138 35.1754C29.0957 35.1754 27.6683 35.7666 26.5951 36.84C25.5215 37.9135 24.9302 39.3408 24.9302 40.859C24.9302 40.957 24.933 41.0547 24.9379 41.152C23.3875 41.0734 21.8107 41.6246 20.6291 42.8063C19.5554 43.8797 18.9644 45.307 18.9644 46.8252C18.9644 47.5996 19.1191 48.35 19.4123 49.0422C18.3404 49.2512 17.3174 49.7697 16.4886 50.5982C14.2728 52.8143 14.2728 56.4199 16.4886 58.6359L20.2273 62.3746L16.2832 66.3187L15.4316 65.4672C14.889 64.9244 14.1674 64.6256 13.4 64.6256C12.6326 64.6256 11.9111 64.9244 11.3685 65.4672L8.8781 67.9576C7.54802 64.1018 6.82419 59.966 6.82419 55.6641C6.82419 34.825 23.7781 17.8711 44.6172 17.8711C50.2037 17.8711 55.5088 19.0936 60.2849 21.2789C61.8213 30.6887 67.7683 38.4389 77.4201 43.4232C77.7703 43.6041 78.1545 43.6947 78.5386 43.6947C78.9226 43.6947 79.3068 43.6043 79.6566 43.4234C79.8607 43.318 80.0595 43.2088 80.2601 43.101C81.6498 47.0334 82.4093 51.2613 82.4093 55.6641ZM78.5379 40.7023C73.6902 38.1596 69.8761 34.8813 67.1988 30.9551C64.2884 26.6867 62.8127 21.7541 62.8127 16.2939C62.8127 13.0082 63.348 9.78203 64.405 6.69668C67.1011 7.34707 69.7816 6.09199 72.3781 4.87598C74.4216 3.91914 76.5345 2.92969 78.5379 2.92969C80.541 2.92969 82.6539 3.91914 84.6972 4.87598C87.2939 6.09219 89.9746 7.34727 92.6705 6.69668C93.7273 9.78184 94.2627 13.0084 94.2627 16.2939C94.2627 21.7541 92.7869 26.6867 89.8765 30.9551C87.1994 34.8811 83.3853 38.1596 78.5379 40.7023Z" fill="#0195FF"/>
<path d="M88.6465 18.195C89.4186 17.9534 89.8484 17.1315 89.6068 16.3595C88.085 11.497 83.6367 8.22998 78.5379 8.22998C72.1432 8.22998 66.9404 13.4325 66.9404 19.8272C66.9404 26.222 72.1432 31.4245 78.5379 31.4245C83.2826 31.4245 87.5016 28.5823 89.2859 24.1835C89.59 23.4339 89.2289 22.5796 88.4791 22.2755C87.7291 21.971 86.875 22.3325 86.5709 23.0821C85.2371 26.37 82.0838 28.4946 78.5377 28.4946C73.7582 28.4946 69.8699 24.6063 69.8699 19.8271C69.8699 15.0478 73.7582 11.1595 78.5377 11.1595C82.3488 11.1595 85.6734 13.6009 86.8107 17.2345C87.0525 18.0067 87.8752 18.4366 88.6465 18.195Z" fill="#0195FF"/>
<path d="M82.3762 16.2652L77.8527 20.7889L74.6992 17.6354C74.127 17.0633 73.1996 17.0633 72.6275 17.6354C72.0555 18.2074 72.0555 19.135 72.6275 19.7068L76.8168 23.8961C77.1029 24.182 77.4779 24.3252 77.8527 24.3252C78.2275 24.3252 78.6025 24.1822 78.8887 23.8961L84.448 18.3367C85.0201 17.7646 85.0201 16.8371 84.448 16.2652C83.8758 15.6932 82.9484 15.6932 82.3762 16.2652Z" fill="#0195FF"/>
</g>
<defs>
<clipPath id="clip0_48_1783">
<rect width="100" height="100" fill="white"/>
</clipPath>
</defs>
</svg>
