<svg width="100" height="100" viewBox="0 0 100 100" fill="none" xmlns="http://www.w3.org/2000/svg">
<path d="M87.3802 28.8604L73.7158 18.3012C72.8084 17.5996 71.6088 17.4762 70.5855 17.9789C69.5529 18.4861 68.9119 19.5141 68.9125 20.6605V25.3727C64.3129 25.9795 59.8869 27.7188 56.0904 30.3939V19.8221H60.5592C61.706 19.8221 62.7336 19.1809 63.2406 18.1484C63.7427 17.1256 63.6191 15.9264 62.9181 15.0189L52.3586 1.3541C51.7896 0.617773 50.9301 0.195312 50 0.195312C49.0701 0.195312 48.2103 0.617578 47.6414 1.35391L37.0822 15.0186C36.3806 15.9262 36.2572 17.1258 36.7601 18.149C37.2674 19.1811 38.2941 19.8217 39.4398 19.8217H39.4418H43.9099V30.3936C40.1135 27.7184 35.6875 25.9791 31.0879 25.3723V20.6611C31.0886 19.5139 30.4478 18.4859 29.4154 17.9787C28.392 17.4758 27.1926 17.599 26.2847 18.3008L12.6199 28.8602C11.8836 29.4293 11.4613 30.2889 11.4613 31.2188C11.4613 32.1484 11.8836 33.008 12.6201 33.5771L26.2849 44.1363C27.1924 44.8377 28.3918 44.9613 29.4148 44.4586C30.4472 43.9516 31.0883 42.924 31.0879 41.7773V37.734C34.7822 38.5873 38.0638 40.6902 40.4129 43.7104C36.4398 46.6535 33.8584 51.3738 33.8584 56.6869C33.8584 62.7477 37.2177 68.0363 42.1705 70.7959C30.2291 74.2074 21.4623 85.2197 21.4623 98.2414C21.4623 99.1043 22.1619 99.8039 23.0248 99.8039H76.9756C77.8384 99.8039 78.5381 99.1043 78.5381 98.2414C78.5381 85.2197 69.7713 74.2074 57.8301 70.7959C62.7828 68.0363 66.1422 62.7477 66.1422 56.6869C66.1422 51.3738 63.5609 46.6533 59.5875 43.7102C61.9367 40.6898 65.2183 38.5871 68.9125 37.7338V41.7773C68.9121 42.9244 69.5531 43.952 70.5855 44.459C71.6082 44.9613 72.808 44.8381 73.7156 44.1367L87.3802 33.5775C88.1168 33.0084 88.539 32.149 88.539 31.2191C88.539 30.2893 88.1168 29.4295 87.3802 28.8604ZM53.5504 73.0779L50.0002 77.4045L46.4498 73.0779C47.6103 72.915 48.7953 72.8293 50.0002 72.8293C51.2051 72.8293 52.3898 72.915 53.5504 73.0779ZM60.7463 75.2158L58.9107 84.051L52.2914 79.5387L56.9927 73.8092C58.2888 74.1809 59.5431 74.6522 60.7463 75.2158ZM43.0072 73.8094L47.7088 79.5389L41.0892 84.0512L39.2537 75.216C40.4568 74.6521 41.7111 74.1809 43.0072 73.8094ZM75.3654 96.6797H24.6345C25.1435 88.3209 29.7127 81.042 36.389 76.791L38.1484 85.2596C38.3373 86.1695 38.94 86.8912 39.8017 87.2391C40.1396 87.3754 40.4888 87.443 40.8347 87.443C41.3705 87.443 41.8988 87.2811 42.3658 86.9631L50 81.7588L57.6345 86.9631C58.1013 87.2809 58.6293 87.4426 59.165 87.4426C59.5109 87.4426 59.8601 87.3752 60.1976 87.2387C61.0597 86.8908 61.6625 86.1691 61.8513 85.2594L63.6107 76.7906C70.2873 81.0418 74.8562 88.3207 75.3654 96.6797ZM63.017 56.6875C63.017 63.865 57.1777 69.7043 50.0002 69.7043C42.8226 69.7043 36.9834 63.865 36.9834 56.6875C36.9834 49.51 42.8226 43.6707 50.0002 43.6707C57.1777 43.6707 63.017 49.5102 63.017 56.6875ZM72.0375 41.4842V35.8771C72.0375 35.4303 71.8463 35.0049 71.5119 34.7082C71.1775 34.4117 70.7318 34.2734 70.2886 34.3258C64.9269 34.9701 60.1179 37.7766 56.8904 42.0938C54.7994 41.1025 52.4638 40.5457 50.0002 40.5457C47.5365 40.5457 45.201 41.1025 43.1099 42.0939C39.8822 37.7766 35.0734 34.9701 29.7115 34.3258C29.2685 34.2732 28.8226 34.4117 28.4883 34.7082C28.1539 35.0049 27.9627 35.4303 27.9627 35.8771V41.4842L14.6783 31.2188L27.9627 20.9533V26.7777C27.9627 27.5924 28.5886 28.2705 29.4008 28.3354C34.94 28.7777 40.2773 31.0715 44.4291 34.7943C44.8881 35.2055 45.5457 35.309 46.1094 35.0576C46.6722 34.8062 47.0347 34.2475 47.0347 33.6309V18.2594C47.0347 17.3965 46.3351 16.6969 45.4722 16.6969H39.7347L50 3.4125L60.2654 16.6969H54.5277C53.6648 16.6969 52.9652 17.3965 52.9652 18.2594V33.6309C52.9652 34.2475 53.3277 34.8062 53.8906 35.0576C54.4539 35.309 55.1117 35.2057 55.5709 34.7943C59.723 31.0715 65.0601 28.7777 70.5992 28.3354C71.4113 28.2705 72.0373 27.5926 72.0373 26.7777V20.9533L85.3216 31.2188L72.0375 41.4842Z" fill="#0195FF"/>
</svg>
