<svg width="100" height="100" viewBox="0 0 100 100" fill="none" xmlns="http://www.w3.org/2000/svg">
<path d="M21.875 68.75C11.5344 68.75 3.125 60.3406 3.125 50C3.125 42.8594 7.09375 36.4344 13.475 33.2344C14.2375 32.8469 15.1844 33.1562 15.575 33.9312C15.9594 34.7031 15.6469 35.6406 14.8781 36.0281C9.55625 38.6938 6.25 44.05 6.25 50C6.25 58.6156 13.2594 65.625 21.875 65.625C22.5906 65.625 23.2906 65.5594 23.9781 65.4656C29.0781 64.75 33.4625 61.6281 35.7781 57.1C36.0469 56.5781 36.5844 56.25 37.1719 56.25H50.9156L53.5844 53.5812C53.875 53.2906 54.2719 53.125 54.6875 53.125H64.0625C64.3719 53.125 64.6719 53.2156 64.9281 53.3875L68.4469 55.7344L74.4469 48.5344L69.6656 43.75H37.1719C36.5844 43.75 36.05 43.4219 35.7812 42.9C33.0906 37.6406 27.7625 34.375 21.875 34.375C21.3937 34.375 20.9188 34.3969 20.45 34.4406C19.6375 34.5125 18.8312 33.8844 18.7562 33.0219C18.6812 32.1594 19.3156 31.4031 20.175 31.3281C20.7375 31.275 21.3 31.25 21.875 31.25C28.6156 31.25 34.7469 34.8187 38.0969 40.625H70.3125C70.7281 40.625 71.125 40.7906 71.4187 41.0812L77.6687 47.3312C78.2406 47.9031 78.2812 48.8156 77.7625 49.4375L69.95 58.8125C69.4406 59.425 68.5469 59.5531 67.8844 59.1125L63.5906 56.25H55.3344L52.6656 58.9188C52.375 59.2094 51.9781 59.375 51.5625 59.375H38.0969C35.2188 64.3469 30.1969 67.75 24.4875 68.55C23.5719 68.675 22.7313 68.75 21.875 68.75ZM15.625 56.25C12.1781 56.25 9.375 53.4469 9.375 50C9.375 46.5531 12.1781 43.75 15.625 43.75C19.0719 43.75 21.875 46.5531 21.875 50C21.875 53.4469 19.0719 56.25 15.625 56.25ZM15.625 46.875C13.9 46.875 12.5 48.2781 12.5 50C12.5 51.7219 13.9 53.125 15.625 53.125C17.35 53.125 18.75 51.7219 18.75 50C18.75 48.2781 17.35 46.875 15.625 46.875Z" fill="#0195FF"/>
<path d="M21.875 76.5625C17.3719 76.5625 12.9219 75.4125 9.0063 73.2406C8.25005 72.8219 7.97817 71.8719 8.39692 71.1156C8.8188 70.3594 9.7813 70.0906 10.5219 70.5094C16.4188 73.7781 23.7438 74.3125 30.0375 71.9781C31.825 71.3125 33.5282 70.4281 35.1 69.3531C35.8157 68.8625 36.7875 69.0437 37.2719 69.7562C37.7594 70.4687 37.5813 71.4406 36.8688 71.9281C35.0844 73.1531 33.1532 74.1531 31.1219 74.9094C28.1688 76.0062 25.0594 76.5625 21.875 76.5625Z" fill="#0195FF"/>
<path d="M5.34375 32.8064C4.90937 32.8064 4.48125 32.6282 4.17187 32.2782C3.6 31.6314 3.6625 30.6439 4.30937 30.072C11.5437 23.6907 22.15 21.7595 31.1187 25.0907C31.9281 25.3907 32.3406 26.2907 32.0406 27.1001C31.7406 27.9095 30.8344 28.3251 30.0312 28.022C22.125 25.0845 12.7594 26.7876 6.37812 32.4157C6.07812 32.6782 5.7125 32.8064 5.34375 32.8064Z" fill="#0195FF"/>
<path d="M67.1875 90.625H64.0625C63.2 90.625 62.5 89.925 62.5 89.0625C62.5 88.2 63.2 87.5 64.0625 87.5H67.1875C68.05 87.5 68.75 88.2 68.75 89.0625C68.75 89.925 68.05 90.625 67.1875 90.625Z" fill="#0195FF"/>
<path d="M73.4375 12.5H57.8125C56.95 12.5 56.25 11.8 56.25 10.9375C56.25 10.075 56.95 9.375 57.8125 9.375H73.4375C74.3 9.375 75 10.075 75 10.9375C75 11.8 74.3 12.5 73.4375 12.5Z" fill="#0195FF"/>
<path d="M82.8125 96.875H48.4375C44.1281 96.875 40.625 93.3688 40.625 89.0625V64.0625C40.625 63.2 41.325 62.5 42.1875 62.5C43.05 62.5 43.75 63.2 43.75 64.0625V89.0625C43.75 91.6469 45.8531 93.75 48.4375 93.75H82.8125C85.3969 93.75 87.5 91.6469 87.5 89.0625V10.9375C87.5 8.35313 85.3969 6.25 82.8125 6.25H48.4375C45.8531 6.25 43.75 8.35313 43.75 10.9375V35.9375C43.75 36.8 43.05 37.5 42.1875 37.5C41.325 37.5 40.625 36.8 40.625 35.9375V10.9375C40.625 6.63125 44.1281 3.125 48.4375 3.125H82.8125C87.1219 3.125 90.625 6.63125 90.625 10.9375V89.0625C90.625 93.3688 87.1219 96.875 82.8125 96.875Z" fill="#0195FF"/>
<path d="M67.1875 50H39.0625C38.2 50 37.5 49.3 37.5 48.4375C37.5 47.575 38.2 46.875 39.0625 46.875H67.1875C68.05 46.875 68.75 47.575 68.75 48.4375C68.75 49.3 68.05 50 67.1875 50Z" fill="#0195FF"/>
<path d="M35.9375 31.2501C35.5312 31.2501 35.125 31.0938 34.8406 30.8126C34.5313 30.5001 34.375 30.0938 34.375 29.6876C34.375 29.2813 34.5313 28.8751 34.8125 28.5938C35.4688 27.9688 36.4688 28.0001 37.0313 28.5938C37.3438 28.9063 37.5 29.2813 37.5 29.6876C37.5 30.0938 37.3438 30.5001 37.0594 30.7813C36.75 31.0938 36.3438 31.2501 35.9375 31.2501Z" fill="#0195FF"/>
<path d="M4.6875 70.3125C4.28125 70.3125 3.875 70.1563 3.59063 69.875C3.28125 69.5313 3.125 69.1563 3.125 68.75C3.125 68.3438 3.28125 67.9375 3.5625 67.6562C4.15625 67.0625 5.21875 67.0625 5.8125 67.6562C6.09375 67.9375 6.25 68.3438 6.25 68.75C6.25 69.1563 6.09375 69.5313 5.80937 69.8438C5.5 70.1563 5.09375 70.3125 4.6875 70.3125Z" fill="#0195FF"/>
</svg>
