<svg width="100" height="100" viewBox="0 0 100 100" fill="none" xmlns="http://www.w3.org/2000/svg">
<path fill-rule="evenodd" clip-rule="evenodd" d="M5.07812 62.1455H50C50.8629 62.1455 51.5625 62.8451 51.5625 63.708V88.6521C51.5625 89.515 50.8629 90.2146 50 90.2146H31.8479V93.3594H36.952C37.8148 93.3594 38.5145 94.059 38.5145 94.9219C38.5145 95.7847 37.8148 96.4844 36.952 96.4844C30.6768 96.4844 24.4014 96.4844 18.1262 96.4844C17.2633 96.4844 16.5637 95.7847 16.5637 94.9219C16.5637 94.059 17.2633 93.3594 18.1262 93.3594H23.2305V90.2146H5.07812C4.21523 90.2146 3.51562 89.515 3.51562 88.6521V63.708C3.51562 62.8451 4.21523 62.1455 5.07812 62.1455ZM55.6154 82.1328C54.7525 82.1328 54.0529 81.4332 54.0529 80.5703C54.0529 79.7074 54.7525 79.0078 55.6154 79.0078H72.4609C77.7752 79.0078 82.1289 74.6541 82.1289 69.3398V52.4941C82.1289 51.6312 82.8285 50.9316 83.6914 50.9316C84.5543 50.9316 85.2539 51.6312 85.2539 52.4941V69.3398C85.2539 76.3791 79.5002 82.1328 72.4609 82.1328H55.6154ZM22.4305 69.2107C21.3508 68.9736 20.3412 69.9254 20.5641 71.042L22.2471 79.4693C22.4859 80.7295 24.0109 81.175 24.8893 80.2967L25.8367 79.349L29.2154 82.7277C29.8256 83.3379 30.8148 83.3379 31.425 82.7277L34.0871 80.0656C34.6973 79.4554 34.6973 78.4662 34.0871 77.856L30.7084 74.4773L31.6559 73.5297C32.527 72.6593 32.0912 71.1394 30.8564 70.8931L22.4305 69.2107ZM27.3818 73.3855L24.0863 72.7273L24.7445 76.0228C25.3557 75.425 26.3355 75.4291 26.9414 76.0349L30.3201 79.4136L30.7727 78.9611L27.3939 75.5824C26.7881 74.9765 26.7842 73.9967 27.3818 73.3855ZM44.3848 22.8554C45.2477 22.8554 45.9473 23.5551 45.9473 24.4179C45.9473 25.2808 45.2477 25.9804 44.3848 25.9804H27.5391C22.2248 25.9804 17.8711 30.3342 17.8711 35.6484V52.4941C17.8711 53.357 17.1715 54.0566 16.3086 54.0566C15.4457 54.0566 14.7461 53.357 14.7461 52.4941V35.6484C14.7461 28.6092 20.4996 22.8554 27.5391 22.8554H44.3848ZM68.0215 14.5004C67.0863 17.1287 66.5869 20.0035 66.457 22.8554H74.0195V15.1269C71.9229 15.0547 69.9064 14.8383 68.0215 14.5004ZM66.4576 25.9804C66.5992 29.0552 67.1545 31.9025 68.0215 34.3371C69.9064 33.9992 71.9229 33.783 74.0195 33.7107V25.9804H66.4576ZM69.3289 37.2783C70.6133 39.6217 72.2465 41.2939 74.0195 41.9205V36.8367C72.3797 36.8957 70.8072 37.0469 69.3289 37.2783ZM67.4996 40.2558C67.0029 39.5215 66.5574 38.7416 66.159 37.9306C65.6152 38.0717 65.0904 38.2244 64.5867 38.3879C65.4908 39.1008 66.466 39.7273 67.4996 40.2558ZM64.9637 35.025C64.0498 32.3424 63.4703 29.265 63.3299 25.9804H61.6658C60.8029 25.9804 60.1033 25.2808 60.1033 24.4179C60.1033 23.5551 60.8029 22.8554 61.6658 22.8554H63.3305C63.4631 19.79 63.9895 16.6707 64.9641 13.8125C63.9414 13.5316 62.976 13.2111 62.0783 12.8554C56.3781 19.5064 56.3785 29.3308 62.0793 35.9814C62.9764 35.626 63.9416 35.3056 64.9637 35.025ZM77.1445 6.91541V12.0008C78.7742 11.9424 80.3195 11.7967 81.8357 11.5588C80.5516 9.21501 78.9178 7.54216 77.1445 6.91541ZM77.1445 15.1267V22.8554H84.7066C84.565 19.781 84.0098 16.9345 83.143 14.5004C81.1988 14.849 79.1766 15.0562 77.1445 15.1267ZM77.1445 25.9804V33.7107C79.1748 33.7812 81.1996 33.9883 83.1422 34.3369C84.0775 31.7086 84.5773 28.8324 84.707 25.9802H77.1445V25.9804ZM77.1445 36.8365V42.1275C80.7074 41.8172 83.9693 40.4558 86.6184 38.3554C86.5012 38.3474 86.3832 38.326 86.2662 38.29C83.4139 37.4082 80.2854 36.949 77.1445 36.8365ZM74.0195 12.0008V6.70837C70.4742 7.01716 67.2271 8.36638 64.5854 10.4488C67.4986 11.3951 70.7939 11.8847 74.0195 12.0008ZM86.1996 35.0246C87.1742 32.1662 87.701 29.0461 87.8336 25.9804H93.2916C92.924 30.2021 91.0811 34.0011 88.2812 36.8588C88.3072 36.1705 87.8713 35.5236 87.1818 35.3117C86.8609 35.2119 86.5334 35.1162 86.1996 35.0246ZM87.834 22.8554H93.2916C92.924 18.634 91.0809 14.8351 88.2811 11.9775C88.3076 12.6662 87.8717 13.314 87.1816 13.526C86.8611 13.6256 86.5342 13.7211 86.2008 13.8127C87.1146 16.4947 87.6936 19.5717 87.834 22.8554ZM85.0057 10.9062C85.401 10.8035 86.3395 10.5008 86.6205 10.4818C85.7043 9.75505 84.7146 9.11677 83.6645 8.57986C84.1615 9.31482 84.607 10.0947 85.0057 10.9062ZM60.802 9.63787C68.9648 1.47498 82.1992 1.47478 90.3621 9.63787C98.525 17.801 98.525 31.0349 90.3621 39.198C82.1992 47.3611 68.9648 47.3609 60.802 39.198C52.6391 31.0351 52.6389 17.801 60.802 9.63787ZM41.9113 55.8359C41.0191 55.8359 41.0191 57.191 41.9113 57.191C42.8033 57.191 42.8033 55.8359 41.9113 55.8359ZM39.2227 53.8248C37.7377 55.3099 37.7375 57.717 39.2227 59.2021C41.6123 61.592 45.7139 59.8896 45.7139 56.5135C45.7139 53.1377 41.6127 51.4347 39.2227 53.8248ZM51.182 56.5135C51.182 51.3937 47.0311 47.2427 41.9113 47.2427C41.0484 47.2427 40.3488 47.9424 40.3488 48.8052C40.3488 49.6681 41.0484 50.3677 41.9113 50.3677C45.3059 50.3677 48.057 53.1189 48.057 56.5135C48.057 57.3763 48.7566 58.076 49.6195 58.076C50.4824 58.076 51.182 57.3763 51.182 56.5135ZM41.9113 43.7892C48.9389 43.7892 54.6355 49.4857 54.6355 56.5135C54.6355 57.3763 55.3352 58.076 56.198 58.076C57.0609 58.076 57.7605 57.3763 57.7605 56.5135C57.7605 47.7603 50.6643 40.6644 41.9113 40.6644C41.0484 40.6644 40.3488 41.364 40.3488 42.2269C40.3488 43.0896 41.0484 43.7892 41.9113 43.7892ZM41.9113 37.2109C52.5721 37.2109 61.2139 45.8527 61.2139 56.5135C61.2139 57.3763 61.9135 58.076 62.7764 58.076C63.6393 58.076 64.3389 57.3763 64.3389 56.5135C64.3389 44.1275 54.2975 34.0859 41.9113 34.0859C41.0484 34.0859 40.3488 34.7855 40.3488 35.6484C40.3488 36.5113 41.0484 37.2109 41.9113 37.2109ZM28.7229 90.2146H26.3555V93.3594H28.7229V90.2146ZM48.4375 65.2705H6.64062V87.0896H48.4375V65.2705Z" fill="#0195FF"/>
</svg>
