<svg width="60" height="60" viewBox="0 0 60 60" fill="none" xmlns="http://www.w3.org/2000/svg">
<g clip-path="url(#clip0_48_2186)">
<path d="M11.059 37.4261V26.1046C11.059 25.3195 11.6953 24.6843 12.4804 24.6843H19.1097C19.8937 24.6843 20.5301 25.3195 20.5301 26.1046V40.0593C20.5301 45.273 24.6926 49.5996 29.9062 49.65C35.1715 49.7015 39.4699 45.4335 39.4699 40.18V26.1046C39.4699 25.3195 40.1062 24.6843 40.8902 24.6843H47.5195C48.3047 24.6843 48.941 25.3195 48.941 26.1046V27.9878" stroke="#B10043" stroke-width="2" stroke-miterlimit="10" stroke-linecap="round" stroke-linejoin="round"/>
<path d="M48.941 32.0895V40.1801C48.941 45.4102 46.8211 50.1457 43.3933 53.5735C39.9656 57.0012 35.23 59.1211 30 59.1211C19.9922 59.1211 11.7961 51.3598 11.107 41.5266" stroke="#B10043" stroke-width="2" stroke-miterlimit="10" stroke-linecap="round" stroke-linejoin="round"/>
<path d="M39.4703 34.7352H48.9406" stroke="#B10043" stroke-width="2" stroke-miterlimit="10" stroke-linecap="round" stroke-linejoin="round"/>
<path d="M11.0594 34.7352H20.5297" stroke="#B10043" stroke-width="2" stroke-miterlimit="10" stroke-linecap="round" stroke-linejoin="round"/>
<path d="M41.3643 8.45508C43.4564 8.45508 45.1523 6.75909 45.1523 4.66699C45.1523 2.57489 43.4564 0.878906 41.3643 0.878906C39.2722 0.878906 37.5762 2.57489 37.5762 4.66699C37.5762 6.75909 39.2722 8.45508 41.3643 8.45508Z" stroke="#B10043" stroke-width="2" stroke-miterlimit="10" stroke-linecap="round" stroke-linejoin="round"/>
<path d="M37.1027 15.5578H48.4671V12.2432C48.4671 10.1514 46.7706 8.45508 44.679 8.45508H38.0498C37.1537 8.45508 36.3309 8.76527 35.6823 9.28605" stroke="#B10043" stroke-width="2" stroke-miterlimit="10" stroke-linecap="round" stroke-linejoin="round"/>
<path d="M22.4238 4.66699C22.4238 6.75914 20.7279 8.45508 18.6357 8.45508C16.5436 8.45508 14.8477 6.75914 14.8477 4.66699C14.8477 2.57484 16.5436 0.878906 18.6357 0.878906C20.7279 0.878906 22.4238 2.57484 22.4238 4.66699Z" stroke="#B10043" stroke-width="2" stroke-miterlimit="10" stroke-linecap="round" stroke-linejoin="round"/>
<path d="M22.8972 15.5578H11.533V12.2432C11.533 10.1514 13.2294 8.45508 15.321 8.45508H21.9502C22.8464 8.45508 23.6691 8.76527 24.3178 9.28605" stroke="#B10043" stroke-width="2" stroke-miterlimit="10" stroke-linecap="round" stroke-linejoin="round"/>
<path d="M30 8.45508C32.0921 8.45508 33.7881 6.75909 33.7881 4.66699C33.7881 2.57489 32.0921 0.878906 30 0.878906C27.9079 0.878906 26.2119 2.57489 26.2119 4.66699C26.2119 6.75909 27.9079 8.45508 30 8.45508Z" stroke="#B10043" stroke-width="2" stroke-miterlimit="10" stroke-linecap="round" stroke-linejoin="round"/>
<path d="M32.1269 17.925H37.1027V12.2437C37.1027 10.1508 35.407 8.45508 33.314 8.45508H26.6859C24.5929 8.45508 22.8972 10.1508 22.8972 12.2437V17.925H28.0253" stroke="#B10043" stroke-width="2" stroke-miterlimit="10" stroke-linecap="round" stroke-linejoin="round"/>
<path d="M26.2119 30.2367V25.2648" stroke="#B10043" stroke-width="2" stroke-miterlimit="10" stroke-linecap="round" stroke-linejoin="round"/>
<path d="M30 21.7135V30.2367" stroke="#B10043" stroke-width="2" stroke-miterlimit="10" stroke-linecap="round" stroke-linejoin="round"/>
<path d="M33.7881 25.2648V30.2367" stroke="#B10043" stroke-width="2" stroke-miterlimit="10" stroke-linecap="round" stroke-linejoin="round"/>
</g>
<defs>
<clipPath id="clip0_48_2186">
<rect width="60" height="60" fill="white"/>
</clipPath>
</defs>
</svg>
