<svg width="60" height="60" viewBox="0 0 60 60" fill="none" xmlns="http://www.w3.org/2000/svg">
<g clip-path="url(#clip0_48_2209)">
<path d="M59.9877 5.59852V3.24551C59.9877 1.45594 58.5318 0 56.7421 0C54.9525 0 53.4967 1.45594 53.4967 3.24551V5.61211C53.4967 5.61598 53.4971 5.61961 53.4973 5.62348V12.3848L50.7696 15.1125H49.5438C50.1329 14.1639 50.4742 13.0461 50.4742 11.8498C50.4742 8.42906 47.6912 5.64609 44.2705 5.64609C40.8498 5.64609 38.0668 8.42906 38.0668 11.8498C38.0668 13.0461 38.4082 14.1639 38.9972 15.1124H38.7327C37.6112 15.1124 36.5509 15.7063 35.9659 16.6621L33.655 20.4329L28.6652 17.3755C28.2798 17.1394 27.8639 16.9938 27.4425 16.9324V15.105H27.7675C28.9045 15.105 29.8297 14.1799 29.8297 13.0427V10.6762C29.8297 9.53918 28.9045 8.6141 27.7675 8.6141H25.667L22.5675 6.54773C22.2729 6.35133 21.9301 6.2475 21.576 6.2475C20.5905 6.2475 19.7889 7.04918 19.7889 8.03461V15.6844C19.7889 16.6698 20.5905 17.4716 21.576 17.4716C21.93 17.4716 22.2727 17.3679 22.5674 17.1714L25.667 15.105H25.6846V17.1648C25.0898 17.4204 24.5653 17.8546 24.2023 18.4473C24.2021 18.4473 24.2021 18.4474 24.2021 18.4474C23.2673 19.9733 23.7482 21.9754 25.2741 22.9103L33.6371 28.0338C34.2144 28.3881 34.8952 28.496 35.5545 28.3375C35.9152 28.2507 36.2454 28.0898 36.5284 27.8674V51.6449C36.4807 51.7129 36.4346 51.7819 36.3899 51.8518C35.3926 50.2887 33.6442 49.249 31.6564 49.249H31.5884C32.5409 48.2428 33.127 46.8864 33.127 45.3947C33.127 42.3002 30.6095 39.7826 27.5149 39.7826C24.4203 39.7826 21.9028 42.3001 21.9028 45.3947C21.9028 46.8862 22.4889 48.2428 23.4415 49.249H23.3733C21.3855 49.249 19.6372 50.2887 18.64 51.8518C17.6428 50.2887 15.8948 49.249 13.9076 49.249H13.8389C14.7914 48.2428 15.3776 46.8864 15.3776 45.3947C15.3776 42.3002 12.86 39.7826 9.76546 39.7826C6.67089 39.7826 4.15335 42.3001 4.15335 45.3947C4.15335 46.8862 4.73941 48.2428 5.69203 49.249H5.62382C2.52925 49.249 0.0115967 51.7665 0.0115967 54.8611V59.1209C0.0115967 59.6062 0.404995 59.9998 0.890503 59.9998H7.71433C8.19984 59.9998 8.59324 59.6062 8.59324 59.1209C8.59324 58.6355 8.19984 58.242 7.71433 58.242H5.31984V56.0443C5.31984 55.5589 4.92644 55.1654 4.44093 55.1654C3.95542 55.1654 3.56203 55.5589 3.56203 56.0443V58.2422H1.76953V54.8613C1.76953 52.736 3.49863 51.007 5.62394 51.007H13.9078C16.0324 51.007 17.7609 52.736 17.7609 54.8613V58.2422H15.9695V56.0446C15.9695 55.5592 15.5761 55.1657 15.0906 55.1657C14.6051 55.1657 14.2117 55.5592 14.2117 56.0446V58.2422H11.816C11.3305 58.2422 10.9371 58.6357 10.9371 59.1211C10.9371 59.6065 11.3305 60 11.816 60H43.4238C43.9093 60 44.3027 59.6065 44.3027 59.1211C44.3027 58.6357 43.9093 58.2422 43.4238 58.2422H40.8186V56.0446C40.8186 55.5592 40.4252 55.1657 39.9397 55.1657C39.4542 55.1657 39.0608 55.5592 39.0608 56.0446V58.2422H37.2691V54.8613C37.2691 52.736 38.9981 51.007 41.1234 51.007H49.4062C51.5316 51.007 53.2607 52.736 53.2607 54.8613V58.2422H51.4683V56.0446C51.4683 55.5592 51.0749 55.1657 50.5894 55.1657C50.1039 55.1657 49.7105 55.5592 49.7105 56.0446V58.2422H47.5254C47.0399 58.2422 46.6465 58.6357 46.6465 59.1211C46.6465 59.6065 47.0399 60 47.5254 60H54.1394C54.625 60 55.0184 59.6065 55.0184 59.1211V54.8613C55.0184 52.7072 53.7977 50.8338 52.0125 49.8934V31.2715C52.0125 30.7861 51.6191 30.3926 51.1336 30.3926C50.6481 30.3926 50.2547 30.7861 50.2547 31.2715V35.9379H38.2863V25.0523C38.2863 24.6589 38.0249 24.3134 37.6461 24.2065C37.2674 24.0996 36.8638 24.2575 36.6581 24.5929L35.6238 26.2793C35.5158 26.456 35.3453 26.58 35.1436 26.6285C34.9418 26.6771 34.7331 26.6441 34.5559 26.5354L28.9596 23.1073L30.5141 20.5702L33.486 22.391C33.6293 22.4788 33.7877 22.5206 33.9443 22.5206C34.2398 22.5206 34.5286 22.3714 34.6944 22.1009L37.4647 17.5802C37.7328 17.1423 38.2187 16.8702 38.7326 16.8702H40.6324C41.6553 17.6134 42.9121 18.0534 44.2704 18.0534C45.6286 18.0534 46.8854 17.6135 47.9082 16.8703H51.1335C51.3666 16.8703 51.59 16.7777 51.755 16.6129L54.9976 13.3703C55.1624 13.2055 55.255 12.9819 55.255 12.7488V6.49102H58.2305V13.4355C58.2305 14.0222 58.0014 14.5744 57.5855 14.9903L50.512 22.0637C50.3473 22.2285 50.2547 22.4521 50.2547 22.6852V27.1699C50.2547 27.6553 50.6481 28.0488 51.1336 28.0488C51.6191 28.0488 52.0125 27.6553 52.0125 27.1699V23.0491L58.8286 16.2332C59.5765 15.4852 59.9883 14.4916 59.9883 13.4354V5.61211C59.9883 5.60754 59.9877 5.60309 59.9877 5.59852ZM28.0719 10.6762V13.0429C28.0719 13.2107 27.9354 13.3473 27.7675 13.3473H26.2799V10.3719H27.7675C27.9354 10.3719 28.0719 10.5084 28.0719 10.6762ZM21.5925 15.7089C21.574 15.7214 21.5467 15.7065 21.5467 15.6845V8.03473C21.5467 8.01855 21.5598 8.00543 21.576 8.00543C21.5818 8.00543 21.5875 8.00719 21.5924 8.01035L24.5221 9.96352V13.7559L21.5925 15.7089ZM5.9114 45.3949C5.9114 43.2697 7.64039 41.5406 9.7657 41.5406C11.891 41.5406 13.62 43.2696 13.62 45.3949C13.62 47.5202 11.891 49.2492 9.7657 49.2492C7.64039 49.2492 5.9114 47.5201 5.9114 45.3949ZM23.6609 45.3949C23.6609 43.2697 25.3898 41.5406 27.5152 41.5406C29.6405 41.5406 31.3694 43.2696 31.3694 45.3949C31.3694 47.5202 29.6405 49.2492 27.5152 49.2492C25.3898 49.2492 23.6609 47.5201 23.6609 45.3949ZM35.5109 58.2422H33.7187V56.0446C33.7187 55.5592 33.3253 55.1657 32.8398 55.1657C32.3543 55.1657 31.9609 55.5592 31.9609 56.0446V58.2422H23.0692V56.0446C23.0692 55.5592 22.6758 55.1657 22.1903 55.1657C21.7048 55.1657 21.3114 55.5592 21.3114 56.0446V58.2422H19.5192V54.8612C19.5192 52.736 21.2482 51.0069 23.3735 51.0069H31.6567C33.782 51.0069 35.511 52.7359 35.511 54.8612V58.2422H35.5109ZM38.2863 50.0221V37.6962H50.2547V42.8323C49.322 41.0235 47.436 39.7829 45.2645 39.7829C42.17 39.7829 39.6524 42.3005 39.6524 45.395C39.6524 46.8866 40.2384 48.2432 41.1909 49.2493H41.1233C40.0888 49.2492 39.1194 49.5318 38.2863 50.0221ZM41.4102 45.3949C41.4102 43.2697 43.1392 41.5406 45.2645 41.5406C47.3898 41.5406 49.1188 43.2696 49.1188 45.3949C49.1188 47.5202 47.3898 49.2492 45.2645 49.2492C43.1392 49.2492 41.4102 47.5201 41.4102 45.3949ZM27.461 22.1887L26.1925 21.4116C25.4931 20.983 25.2727 20.0653 25.7012 19.3658C26.1296 18.6664 27.0473 18.4459 27.7469 18.8745L29.0154 19.6516L27.461 22.1887ZM39.8245 11.8498C39.8245 9.39832 41.8191 7.40391 44.2704 7.40391C46.7217 7.40391 48.7162 9.39832 48.7162 11.8498C48.7162 14.3012 46.7217 16.2956 44.2704 16.2956C41.8191 16.2956 39.8245 14.3012 39.8245 11.8498ZM55.2545 4.7332V3.24551C55.2545 2.4252 55.9218 1.75781 56.7421 1.75781C57.5624 1.75781 58.2298 2.4252 58.2298 3.24551V4.7332H55.2545Z" fill="#B10043"/>
<path d="M13.3042 12.7385H14.7242C15.2097 12.7385 15.6031 12.345 15.6031 11.8596C15.6031 11.3742 15.2097 10.9807 14.7242 10.9807H13.3042C12.8187 10.9807 12.4253 11.3742 12.4253 11.8596C12.4253 12.345 12.8188 12.7385 13.3042 12.7385Z" fill="#B10043"/>
<path d="M15.2861 8.93126C15.4576 9.10294 15.6826 9.18873 15.9075 9.18873C16.1324 9.18873 16.3574 9.10294 16.5291 8.93126C16.8723 8.58802 16.8723 8.0315 16.529 7.68837L15.5249 6.68431C15.1819 6.34107 14.6254 6.34107 14.282 6.68431C13.9388 7.02755 13.9388 7.58408 14.2821 7.9272L15.2861 8.93126Z" fill="#B10043"/>
<path d="M15.2861 14.7879L14.282 15.792C13.9386 16.1353 13.9386 16.6917 14.2819 17.0349C14.4536 17.2066 14.6785 17.2924 14.9035 17.2924C15.1283 17.2924 15.3533 17.2066 15.5249 17.0349L16.529 16.0308C16.8723 15.6876 16.8723 15.1312 16.5291 14.7879C16.1858 14.4447 15.6293 14.4447 15.2861 14.7879Z" fill="#B10043"/>
</g>
<defs>
<clipPath id="clip0_48_2209">
<rect width="60" height="60" fill="white"/>
</clipPath>
</defs>
</svg>
