<svg width="60" height="60" viewBox="0 0 60 60" fill="none" xmlns="http://www.w3.org/2000/svg">
<path d="M30.1906 14.5425C30.4793 14.5425 30.7629 14.4251 30.9671 14.2208C31.1714 14.0165 31.2892 13.7329 31.2892 13.4438C31.2892 13.1548 31.1714 12.8715 30.9671 12.6673C30.7629 12.463 30.4793 12.3452 30.1906 12.3452C29.9015 12.3452 29.6179 12.463 29.4136 12.6673C29.2093 12.8715 29.0919 13.1548 29.0919 13.4438C29.0919 13.7329 29.2093 14.0165 29.4136 14.2208C29.6179 14.4251 29.9015 14.5425 30.1906 14.5425Z" fill="#B10043"/>
<path d="M31.065 40.8835C30.4584 40.8835 29.9664 41.3755 29.9664 41.9822C29.9664 42.5892 30.4584 43.0808 31.065 43.0808H31.0732C31.6799 43.0808 32.1681 42.5892 32.1681 41.9822C32.1681 41.3755 31.672 40.8835 31.065 40.8835Z" fill="#B10043"/>
<path d="M50.1153 19.0973C50.1153 18.0983 49.7263 17.1593 49.0201 16.4527C48.672 16.1046 48.2716 15.8413 47.8446 15.6593L49.0201 14.4834C49.7263 13.7769 50.1153 12.8382 50.1153 11.8391C50.1153 10.8404 49.7263 9.90143 49.0201 9.19487C48.2545 8.42892 47.2358 8.06637 46.2306 8.10482V5.51651C46.2306 3.49228 44.5833 1.8457 42.5594 1.8457H19.5791C17.5549 1.8457 15.9083 3.49228 15.9083 5.51651V20.9695C14.9216 20.0226 13.6585 19.351 12.23 19.0929C11.3971 18.9428 10.5473 19.1677 9.89846 19.7102C9.24889 20.2519 8.87708 21.0484 8.87708 21.8944V52.6025C8.87708 53.2088 9.36871 53.7012 9.97571 53.7012C10.5824 53.7012 11.0743 53.2088 11.0743 52.6025V21.8944C11.0743 21.63 11.2203 21.4687 11.3071 21.3962C11.3943 21.3231 11.5797 21.2084 11.8393 21.2551C14.1972 21.6808 15.9083 23.7288 15.9083 26.1241V39.0447C15.9083 39.3475 16.0309 39.6222 16.23 39.8213C18.6793 42.2706 20.0282 45.527 20.0282 48.9908V49.9308C20.0282 50.5371 20.5198 51.0294 21.1268 51.0294C21.7335 51.0294 22.2255 50.5371 22.2255 49.9308V48.9908C22.2255 48.0549 22.14 47.1317 21.9752 46.2305H40.3563C40.0206 49.8117 38.0537 53.0097 34.9511 54.933L33.127 56.0632C32.6113 56.3825 32.4524 57.0596 32.7723 57.5756C32.9801 57.911 33.3395 58.0957 33.7069 58.0957C33.9043 58.0957 34.1044 58.0425 34.2847 57.9309L36.1084 56.8007C38.0904 55.5723 39.737 53.8467 40.8713 51.8095C41.8268 50.0932 42.4012 48.1836 42.5588 46.2305H42.5594C44.5833 46.2305 46.2306 44.5832 46.2306 42.5597V39.0406C46.2502 39.0214 46.2708 39.0032 46.29 38.9836L49.0201 36.2535C49.7263 35.547 50.1153 34.6083 50.1153 33.6096C50.1153 32.6109 49.7263 31.6715 49.0201 30.965C48.672 30.6168 48.2716 30.3532 47.8446 30.1715L49.0201 28.9957C49.7263 28.2891 50.1153 27.3505 50.1153 26.3514C50.1153 25.3527 49.7263 24.4137 49.0201 23.7071C48.6726 23.36 48.2734 23.0967 47.847 22.9147L49.0201 21.7416C49.7263 21.0354 50.1153 20.0961 50.1153 19.0973ZM41.0018 24.4714C41.3437 24.8137 41.7406 25.0804 42.1729 25.2655L41.0018 26.4365C40.2952 27.1431 39.9059 28.0824 39.9059 29.0812C39.9059 30.0799 40.2952 31.0192 41.0018 31.7254C41.3444 32.0684 41.7423 32.3359 42.1753 32.5209L41.0018 33.6951C40.2952 34.4013 39.9059 35.3403 39.9059 36.339C39.9059 36.8797 40.0209 37.4023 40.2379 37.8805H18.1056V14.5425H25.796C26.4027 14.5425 26.8947 14.0508 26.8947 13.4438C26.8947 12.8375 26.4027 12.3452 25.796 12.3452H18.1056V10.2001H42.7263L41.0018 11.925C40.2952 12.6312 39.9059 13.5702 39.9059 14.5692C39.9059 15.568 40.2952 16.507 41.0018 17.2132C41.3444 17.5562 41.7423 17.8236 42.1753 18.009L41.0018 19.1828C40.2952 19.889 39.9059 20.8284 39.9059 21.8271C39.9059 22.8258 40.2952 23.7651 41.0018 24.4714ZM47.4666 10.7484C47.7574 11.0399 47.918 11.4272 47.918 11.8391C47.918 12.2511 47.7574 12.6384 47.4666 12.9299L44.7361 15.6596C44.4453 15.9511 44.0577 16.1115 43.6457 16.1115C43.2337 16.1115 42.8465 15.9511 42.5553 15.6596C42.2638 15.3685 42.1032 14.9812 42.1032 14.5692C42.1032 14.1573 42.2638 13.7696 42.5553 13.4789L45.2851 10.7484C45.8862 10.1472 46.8647 10.1472 47.4666 10.7484ZM19.5791 4.04297H42.5594C43.3717 4.04297 44.0333 4.70421 44.0333 5.51651V8.00285H18.1056V5.51651C18.1056 4.70421 18.7665 4.04297 19.5791 4.04297ZM42.5594 44.0332H21.3991C20.9133 42.6249 20.2194 41.2938 19.3323 40.0781H43.6104C43.6224 40.0781 43.634 40.0788 43.6457 40.0788C43.6577 40.0788 43.6694 40.0781 43.6814 40.0781H44.0333V42.5597C44.0333 43.372 43.3717 44.0332 42.5594 44.0332ZM47.4666 34.7L44.7361 37.4297C44.4494 37.7168 44.0687 37.8761 43.6632 37.8809H43.6282C43.2231 37.8761 42.8423 37.7168 42.5553 37.4297C42.2638 37.1389 42.1032 36.7513 42.1032 36.3393C42.1032 35.9274 42.2638 35.5401 42.5553 35.2489L45.2851 32.5188C45.5858 32.2181 45.9807 32.0681 46.3755 32.0681C46.7706 32.0681 47.1655 32.2181 47.4666 32.5188C47.7574 32.81 47.918 33.1976 47.918 33.6096C47.918 34.0216 47.7574 34.4085 47.4666 34.7ZM47.4666 27.4421L44.7361 30.1719C44.4453 30.463 44.0577 30.6234 43.6457 30.6234C43.2337 30.6234 42.8465 30.463 42.5553 30.1719C42.2638 29.8808 42.1032 29.4931 42.1032 29.0812C42.1032 28.6692 42.2638 28.2819 42.5553 27.9904L45.2851 25.2607C45.5855 24.9599 45.9807 24.8099 46.3755 24.8099C46.7703 24.8099 47.1655 24.9599 47.4659 25.2607C47.7574 25.5521 47.918 25.9394 47.918 26.3514C47.918 26.7634 47.7574 27.1507 47.4666 27.4421ZM47.4666 20.1877L44.7361 22.9175C44.4453 23.209 44.0577 23.3693 43.6457 23.3693C43.2337 23.3693 42.8465 23.209 42.5553 22.9175C42.2638 22.6267 42.1032 22.2391 42.1032 21.8271C42.1032 21.4151 42.2638 21.0278 42.5553 20.7367L45.2851 18.0066C45.8862 17.4051 46.8647 17.4051 47.4666 18.0066C47.7574 18.2977 47.918 18.6853 47.918 19.0973C47.918 19.5093 47.7574 19.8962 47.4666 20.1877Z" fill="#B10043"/>
<path d="M31.2332 16.3528C27.1762 16.3528 23.8755 19.6535 23.8755 23.7105C23.8755 27.7672 27.1762 31.0679 31.2332 31.0679C35.2906 31.0679 38.591 27.7672 38.591 23.7105C38.591 19.6535 35.2899 16.3528 31.2332 16.3528ZM31.2332 28.8707C28.3874 28.8707 26.0727 26.556 26.0727 23.7102C26.0727 20.8651 28.3874 18.5497 31.2332 18.5497C34.0787 18.5497 36.3937 20.8651 36.3937 23.7102C36.3937 26.556 34.0787 28.8707 31.2332 28.8707Z" fill="#B10043"/>
<path d="M32.817 21.4498L30.6266 23.6402L29.9197 22.9333C29.4905 22.5048 28.7949 22.5041 28.3661 22.9333C27.937 23.3624 27.937 24.058 28.3661 24.4872L29.8496 25.971C30.0556 26.177 30.3351 26.293 30.6266 26.293C30.9177 26.293 31.1972 26.177 31.4031 25.971L34.3708 23.0033C34.7996 22.5742 34.7996 21.8786 34.3708 21.4498C33.9417 21.0206 33.2461 21.0206 32.817 21.4498Z" fill="#B10043"/>
<path d="M9.97571 55.8984C9.68663 55.8984 9.40305 56.0155 9.19877 56.2205C8.99449 56.4244 8.87708 56.708 8.87708 56.9971C8.87708 57.2858 8.99449 57.5697 9.19877 57.7733C9.40305 57.9783 9.68663 58.0957 9.97571 58.0957C10.2644 58.0957 10.548 57.9783 10.7523 57.7733C10.9566 57.5697 11.0743 57.2858 11.0743 56.9971C11.0743 56.708 10.9566 56.4244 10.7523 56.2205C10.548 56.0155 10.2644 55.8984 9.97571 55.8984Z" fill="#B10043"/>
</svg>
