<svg width="60" height="60" viewBox="0 0 60 60" fill="none" xmlns="http://www.w3.org/2000/svg">
<g clip-path="url(#clip0_48_1897)">
<path d="M46.062 18.1378H47.4627V23.6664C47.4627 24.1468 47.852 24.5361 48.3325 24.5361C48.8129 24.5361 49.2022 24.1468 49.2022 23.6664V18.1378H50.6028C51.0833 18.1378 51.4726 17.7485 51.4726 17.2681C51.4726 16.7876 51.0833 16.3983 50.6028 16.3983H49.2022V13.8714C49.2022 13.3858 49.5972 12.9908 50.0829 12.9908H52.1438C52.6242 12.9908 53.0135 12.6015 53.0135 12.1211C53.0135 11.6406 52.6242 11.2513 52.1438 11.2513H50.0829C48.6382 11.2513 47.4627 12.4267 47.4627 13.8714V16.3983H46.062C45.5815 16.3983 45.1922 16.7876 45.1922 17.2681C45.1922 17.7485 45.5817 18.1378 46.062 18.1378ZM30.3128 5.03951C30.7931 5.03951 31.1826 4.65009 31.1826 4.16976C31.1826 3.68944 30.7931 3.30002 30.3128 3.30002C29.8325 3.30002 29.4431 3.68944 29.4431 4.16976C29.4431 4.65009 29.8324 5.03951 30.3128 5.03951ZM11.5226 20.1514C12.9612 20.1514 14.1318 18.9809 14.1318 17.5422C14.1318 16.1035 12.9612 14.933 11.5226 14.933C10.0839 14.933 8.91334 16.1035 8.91334 17.5422C8.91334 18.9809 10.0839 20.1514 11.5226 20.1514ZM11.5226 16.6725C12.0022 16.6725 12.3923 17.0626 12.3923 17.5422C12.3923 18.0219 12.0022 18.412 11.5226 18.412C11.0429 18.412 10.6528 18.0219 10.6528 17.5422C10.6528 17.0626 11.0431 16.6725 11.5226 16.6725ZM15.0015 23.6304C16.4402 23.6304 17.6108 22.4599 17.6108 21.0212V14.0633C17.6108 12.6246 16.4402 11.454 15.0015 11.454H8.0436C6.60493 11.454 5.43438 12.6246 5.43438 14.0633V21.0212C5.43438 22.4599 6.60493 23.6304 8.0436 23.6304H15.0015ZM7.17386 21.0212V14.0633C7.17386 13.5836 7.56397 13.1935 8.0436 13.1935H15.0015C15.4812 13.1935 15.8713 13.5836 15.8713 14.0633V21.0212C15.8713 21.5008 15.4812 21.8909 15.0015 21.8909H8.0436C7.56409 21.8909 7.17386 21.5007 7.17386 21.0212ZM16.7937 36.514C16.3714 36.1963 15.8126 36.143 15.3349 36.3743C15.2178 36.431 15.0948 36.4739 14.9692 36.5021C14.8159 36.5363 14.6598 36.5491 14.5025 36.5395C13.99 36.0684 13.3378 35.7865 12.6331 35.7374C11.8117 35.6793 11.0157 35.9464 10.3936 36.4873C9.81985 36.9864 9.45548 37.6722 9.35888 38.4153C8.34685 38.2522 7.41971 37.7399 6.73597 36.9488C6.45545 36.624 6.02082 36.4788 5.60276 36.5694C5.18679 36.6594 4.85385 36.9692 4.73383 37.3777C4.44125 38.3716 3.82373 41.4165 6.39399 43.4466C5.90346 43.5962 5.34404 43.5849 5.05795 44.0817C4.80005 44.5296 4.93793 45.0571 5.04311 45.3319C5.2486 45.8683 5.78483 46.2545 6.63659 46.4796C7.1015 46.6025 7.70916 46.6819 8.39394 46.6819C9.9822 46.6818 11.9836 46.2542 13.5697 44.9499C15.1504 43.6498 15.7968 41.8774 16.0575 40.5325C16.4633 40.07 16.7847 39.5481 17.0147 38.9773C17.1585 38.6201 17.2644 38.2462 17.3297 37.8658C17.4184 37.3472 17.2131 36.8291 16.7937 36.514ZM14.6217 39.5243C14.4986 39.6515 14.417 39.8132 14.3882 39.9879C14.2107 41.063 13.7329 42.5635 12.4648 43.6064C10.9316 44.8672 8.77361 45.0443 7.53254 44.8845C7.94666 44.7126 8.34361 44.4992 8.71307 44.2484C8.97434 44.0711 9.11907 43.7661 9.091 43.4515C9.06294 43.137 8.86649 42.8624 8.57786 42.734C6.4122 41.7714 6.07103 40.1328 6.20555 38.8475C7.33134 39.7595 8.74856 40.2504 10.2255 40.2088C10.6969 40.1967 11.0727 39.811 11.0727 39.3395V38.8449C11.0727 38.841 11.0727 38.8371 11.0726 38.8331C11.0673 38.4365 11.2359 38.0598 11.5352 37.7995C11.8065 37.5636 12.1533 37.4478 12.5121 37.4724C12.8708 37.4975 13.1983 37.6606 13.4341 37.9319C13.5607 38.0773 13.7316 38.1764 13.9206 38.2141C14.4354 38.3165 14.9564 38.3033 15.4595 38.1728C15.2819 38.6785 14.9971 39.1369 14.6217 39.5243ZM49.1029 30.3094C49.0823 30.3094 49.0619 30.3103 49.0413 30.3104V28.4385C49.0619 28.4386 49.0823 28.4393 49.1029 28.4393C55.1116 28.4393 60 23.551 60 17.5422C60 11.5091 55.0722 6.61177 49.0413 6.64598V5.82123C49.0413 2.78398 46.5701 0.312866 43.5329 0.312866H17.0927C14.0555 0.312866 11.5844 2.78398 11.5844 5.82123V6.64598C9.45363 6.63357 7.38619 7.23671 5.60543 8.39021C5.20221 8.65137 5.08706 9.18991 5.34822 9.59301C5.60949 9.99622 6.14791 10.1114 6.55101 9.85022C8.03108 8.89142 9.75027 8.38465 11.5226 8.38465C16.5721 8.38465 20.6801 12.4927 20.6801 17.5422C20.6801 22.5917 16.5721 26.6998 11.5226 26.6998C6.47308 26.6998 2.365 22.5917 2.365 17.5422C2.365 15.7116 2.9032 13.945 3.92114 12.4335C4.18937 12.035 4.08396 11.4946 3.68562 11.2263C3.28716 10.9582 2.74676 11.0635 2.47842 11.4618C1.26634 13.2616 0.625518 15.364 0.625518 17.5422C0.625518 23.5509 5.51381 28.4393 11.5226 28.4393C11.5432 28.4393 11.5636 28.4386 11.5843 28.4385V30.3318C11.3569 30.3176 11.1278 30.3096 10.8969 30.3096C4.8883 30.3094 0 35.1979 0 41.2065C0 47.2151 4.8883 52.1037 10.8971 52.1037C11.1279 52.1037 11.357 52.0955 11.5844 52.0814V54.1789C11.5844 57.2161 14.0555 59.6872 17.0927 59.6872H43.5329C46.5701 59.6872 49.0413 57.2161 49.0413 54.1789V52.103C49.0619 52.1031 49.0823 52.1038 49.1029 52.1038C55.1116 52.1038 60 47.2154 60 41.2066C60 35.1979 55.1116 30.3094 49.1029 30.3094ZM49.1029 8.38465C54.1524 8.38465 58.2605 12.4927 58.2605 17.5422C58.2605 22.5917 54.1524 26.6998 49.1029 26.6998C44.0535 26.6998 39.9454 22.5917 39.9454 17.5422C39.9454 12.4927 44.0535 8.38465 49.1029 8.38465ZM47.3018 28.2894V30.4572C46.7071 30.5553 46.1258 30.702 45.5623 30.8944V27.8482C46.1229 28.0414 46.7042 28.1897 47.3018 28.2894ZM15.0633 6.40094V7.23601C14.5027 7.04281 13.9214 6.89461 13.3239 6.79476V5.82111C13.3239 3.7429 15.0145 2.05223 17.0927 2.05223H43.5329C45.6111 2.05223 47.3018 3.7429 47.3018 5.82111V6.79476C46.7042 6.89461 46.123 7.04281 45.5623 7.23601V6.40094C45.5623 4.96227 44.3917 3.79172 42.9531 3.79172H39.7582C38.7671 3.79172 37.9607 4.59803 37.9607 5.58918C37.9607 5.97407 37.6475 6.2873 37.2625 6.2873H23.363C22.9781 6.2873 22.6648 5.97419 22.6648 5.58918C22.6648 5.10851 22.478 4.65705 22.1363 4.31553C21.796 3.97784 21.3454 3.79172 20.8673 3.79172H17.6725C16.2338 3.79172 15.0633 4.96227 15.0633 6.40094ZM13.3239 28.2894C13.9214 28.1896 14.5027 28.0414 15.0633 27.8482V31.1379C14.5052 30.9061 13.924 30.7192 13.3239 30.5822V28.2894ZM10.8971 50.3642C5.84756 50.3642 1.73948 46.2561 1.73948 41.2065C1.73948 36.157 5.84756 32.0489 10.8971 32.0489C15.9465 32.0489 20.0546 36.157 20.0546 41.2065C20.0546 46.5438 15.8415 50.3642 10.8971 50.3642ZM47.3018 54.1788C47.3018 56.257 45.6111 57.9476 43.5329 57.9476H17.0927C15.0145 57.9476 13.3239 56.257 13.3239 54.1788V51.8309C13.924 51.694 14.5052 51.5069 15.0633 51.2751V53.5989C15.0633 55.0376 16.2339 56.2081 17.6726 56.2081H42.9531C44.3917 56.2081 45.5623 55.0376 45.5623 53.5989V51.5127C46.123 51.7059 46.7042 51.8541 47.3018 51.954V54.1788ZM49.1029 50.3642C44.0535 50.3642 39.9454 46.2561 39.9454 41.2065C39.9454 40.4218 40.0445 39.6428 40.2404 38.8912C40.3615 38.4263 40.0828 37.9515 39.618 37.8304C39.1531 37.7091 38.6782 37.988 38.5572 38.4528C38.3241 39.3475 38.206 40.2739 38.206 41.2065C38.206 45.3007 40.4759 48.874 43.8229 50.736V53.5989C43.8229 54.0786 43.4328 54.4687 42.9532 54.4687H17.6727C17.1931 54.4687 16.8029 54.0786 16.8029 53.5989V50.3604C19.8041 48.4174 21.7942 45.0401 21.7942 41.2065C21.7942 37.3729 19.8041 33.9956 16.8029 32.0526V27.0715C20.1499 25.2095 22.4199 21.6362 22.4199 17.5421C22.4199 13.4481 20.1499 9.87469 16.8029 8.01275V6.40094C16.8029 5.92131 17.1931 5.5312 17.6727 5.5312H20.8675C20.8839 5.5312 20.8986 5.53758 20.9088 5.5479C20.9238 5.56274 20.9255 5.57863 20.9255 5.58918C20.9255 6.93322 22.0191 8.02678 23.3632 8.02678H37.2627C38.6069 8.02678 39.7005 6.93322 39.7005 5.58918C39.7005 5.55729 39.7266 5.5312 39.7584 5.5312H42.9533C43.4329 5.5312 43.823 5.92131 43.823 6.40094V8.01275C40.476 9.87469 38.2061 13.4481 38.2061 17.5421C38.2061 21.6387 40.4788 25.2139 43.8292 27.0749C43.8255 27.1078 43.823 27.141 43.823 27.1749V31.6661C42.5405 32.3772 41.3981 33.3525 40.4685 34.5582C40.1752 34.9386 40.2458 35.4846 40.6262 35.778C41.0068 36.0714 41.5527 36.0009 41.8461 35.6203C43.5959 33.3497 46.2035 32.0489 49.1032 32.0489C54.1527 32.0489 58.2607 36.157 58.2607 41.2065C58.2605 46.2561 54.1524 50.3642 49.1029 50.3642ZM33.5 29.7123C33.0894 29.4634 32.5545 29.5939 32.3051 30.0045C32.1439 30.2699 31.9167 30.4973 31.6559 30.666C31.4046 30.8286 31.0774 30.8333 30.8218 30.6781L29.5201 29.8879C29.2605 29.7303 29.1186 29.4278 29.1479 29.121C29.1769 28.8184 29.2757 28.5209 29.4336 28.261C29.6829 27.8504 29.5522 27.3156 29.1417 27.0661C28.7313 26.8168 28.1962 26.9474 27.9468 27.358C27.6536 27.8408 27.4702 28.3931 27.416 28.9586L27.4144 28.9761C27.3225 29.9337 27.7946 30.8751 28.6171 31.3748L29.9188 32.165C30.3191 32.4082 30.774 32.5294 31.2287 32.5294C31.7081 32.5294 32.1873 32.3946 32.6015 32.1262C33.0815 31.8151 33.4954 31.3962 33.792 30.9074C34.0413 30.4965 33.9105 29.9617 33.5 29.7123ZM53.6795 40.2739L47.5811 36.7512C46.7923 36.2869 45.7644 36.8905 45.7713 37.7961V44.8416C45.7631 45.745 46.7986 46.3479 47.581 45.8864L53.6794 42.3638C54.468 41.9169 54.4651 40.7187 53.6795 40.2739ZM47.5106 43.9182V38.7194L52.0108 41.3189L47.5106 43.9182ZM30.1016 22.1241C26.0597 22.2301 22.6984 25.4728 22.4495 29.5063C22.386 30.5335 22.5195 31.5453 22.8459 32.5141L21.9198 35.1487C21.7481 35.6371 21.8689 36.1679 22.2349 36.534C22.6009 36.9 23.1318 37.0207 23.6201 36.8491L25.4569 36.2035C26.898 37.3332 28.6999 37.9253 30.5309 37.8756C34.7408 37.7615 38.1774 34.2404 38.1914 30.0268C38.1986 27.878 37.3562 25.8674 35.8194 24.3654C34.283 22.8636 32.2513 22.0665 30.1016 22.1241ZM30.4837 36.1367C29.0475 36.1732 27.6402 35.7095 26.517 34.8242C26.2102 34.5822 25.8407 34.4564 25.4666 34.4564C25.28 34.4564 25.0922 34.4877 24.9106 34.5516L23.8412 34.9274L24.4938 33.0712C24.6181 32.7176 24.6208 32.3296 24.501 31.9787C24.2417 31.2179 24.1356 30.4222 24.1854 29.6134C24.3794 26.4713 26.9981 23.9455 30.147 23.8628C31.8235 23.8173 33.4061 24.4392 34.6033 25.6092C35.8008 26.7797 36.4571 28.3465 36.4516 30.0208C36.4408 33.3043 33.7635 36.0478 30.4837 36.1367Z" fill="#B10043"/>
</g>
<defs>
<clipPath id="clip0_48_1897">
<rect width="60" height="60" fill="white"/>
</clipPath>
</defs>
</svg>
