<svg width="60" height="60" viewBox="0 0 60 60" fill="none" xmlns="http://www.w3.org/2000/svg">
<path d="M55.0299 26.2018C54.1403 26.203 53.2793 26.5159 52.5966 27.0861C51.9139 27.6563 51.4526 28.4478 51.293 29.3229H45.8078C45.644 25.5887 44.1588 22.0342 41.617 19.2936L45.5077 15.4029C46.2804 15.9478 47.2286 16.1847 48.1668 16.0672C49.1049 15.9496 49.9654 15.4862 50.5798 14.7675C51.1942 14.0489 51.5183 13.1268 51.4886 12.1818C51.4588 11.2368 51.0775 10.3369 50.4191 9.65826C49.7607 8.97966 48.8728 8.57121 47.9291 8.51288C46.9854 8.45455 46.054 8.75054 45.317 9.3429C44.5801 9.93527 44.0908 10.7813 43.9449 11.7155C43.7991 12.6497 44.0071 13.6047 44.5283 14.3935L40.6184 18.3035C37.8621 15.7974 34.3074 14.3484 30.5845 14.2136V8.72349C31.5201 8.57839 32.3679 8.0893 32.9618 7.35198C33.5557 6.61466 33.853 5.68221 33.7955 4.73719C33.738 3.79217 33.3298 2.90264 32.6509 2.24276C31.972 1.58289 31.0712 1.20019 30.1249 1.16959C29.1787 1.13899 28.255 1.4627 27.5349 2.07734C26.8148 2.69198 26.35 3.55329 26.2316 4.49262C26.1131 5.43195 26.3496 6.38166 26.8946 7.15581C27.4397 7.92996 28.254 8.47279 29.1783 8.67802V14.2231C25.49 14.4131 21.9854 15.892 19.276 18.4018L15.3884 14.5142C15.938 13.7466 16.1813 12.8015 16.0708 11.8639C15.9603 10.9263 15.5038 10.0637 14.7907 9.44499C14.0777 8.82625 13.1594 8.49589 12.2156 8.51858C11.2718 8.54126 10.3704 8.91537 9.68791 9.56766C9.00542 10.22 8.59093 11.1035 8.52557 12.0453C8.46021 12.9871 8.7487 13.9194 9.33456 14.6597C9.92041 15.4 10.7615 15.895 11.6931 16.0479C12.6247 16.2007 13.5799 16.0004 14.3715 15.486L18.2856 19.4001C15.7752 22.1574 14.3236 25.7154 14.1888 29.4419H8.7279C8.58923 28.5054 8.106 27.6544 7.37284 27.0555C6.63967 26.4566 5.70936 26.1529 4.76404 26.2039C3.81873 26.2549 2.92648 26.6569 2.262 27.3312C1.59751 28.0055 1.20863 28.9035 1.17151 29.8495C1.13438 30.7955 1.45167 31.7212 2.06126 32.4455C2.67085 33.1698 3.52884 33.6405 4.46725 33.7655C5.40566 33.8904 6.35691 33.6606 7.13477 33.121C7.91262 32.5814 8.46106 31.7709 8.67271 30.8481H14.1979C14.3871 34.5278 15.8593 38.0248 18.3587 40.732L14.4933 44.5974C13.7206 44.0525 12.7724 43.8157 11.8342 43.9332C10.8961 44.0507 10.0355 44.5142 9.42114 45.2328C8.80674 45.9515 8.48268 46.8735 8.5124 47.8186C8.54213 48.7636 8.9235 49.6635 9.58186 50.3421C10.2402 51.0207 11.1282 51.4291 12.0718 51.4875C13.0155 51.5458 13.947 51.2498 14.6839 50.6574C15.4208 50.0651 15.9101 49.219 16.056 48.2848C16.2019 47.3507 15.9939 46.3957 15.4726 45.6068L19.3552 41.7243C22.0846 44.2176 25.6036 45.6722 29.2969 45.8338V51.2979C28.367 51.4731 27.536 51.9891 26.9665 52.7448C26.3971 53.5005 26.1302 54.4415 26.2182 55.3837C26.3061 56.3258 26.7426 57.2012 27.4421 57.8384C28.1416 58.4757 29.0538 58.8289 30 58.8289C30.9463 58.8289 31.8584 58.4757 32.5579 57.8384C33.2574 57.2012 33.6939 56.3258 33.7818 55.3837C33.8698 54.4415 33.6029 53.5005 33.0335 52.7448C32.464 51.9891 31.633 51.4731 30.7031 51.2979V45.8338C34.4284 45.6706 37.9752 44.192 40.7134 41.6609L44.5819 45.5294C44.0419 46.306 43.8112 47.2561 43.935 48.1938C44.0587 49.1316 44.5281 49.9893 45.251 50.5992C45.974 51.2091 46.8986 51.5272 47.8438 51.4911C48.7889 51.4551 49.6866 51.0676 50.3611 50.4045C51.0356 49.7414 51.4383 48.8504 51.4903 47.9059C51.5424 46.9615 51.24 46.0317 50.6425 45.2985C50.045 44.5652 49.1953 44.0814 48.2598 43.9418C47.3243 43.8021 46.3704 44.0166 45.5848 44.5434L41.7052 40.6641C44.1944 37.9355 45.6464 34.4194 45.8078 30.7294H51.3025C51.4407 31.436 51.7769 32.0888 52.272 32.6116C52.767 33.1344 53.4004 33.5057 54.0984 33.6823C54.7964 33.8589 55.5302 33.8335 56.2143 33.609C56.8984 33.3844 57.5046 32.9701 57.9622 32.4143C58.4199 31.8584 58.7101 31.184 58.799 30.4695C58.888 29.755 58.772 29.03 58.4647 28.3789C58.1574 27.7278 57.6713 27.1774 57.0632 26.792C56.455 26.4066 55.7498 26.202 55.0299 26.202V26.2018ZM46.0078 10.6099C46.3424 10.2753 46.7686 10.0475 47.2326 9.95521C47.6966 9.86292 48.1776 9.91029 48.6146 10.0913C49.0517 10.2724 49.4253 10.579 49.6881 10.9723C49.951 11.3657 50.0913 11.8282 50.0913 12.3013C50.0913 12.7744 49.951 13.2369 49.6881 13.6302C49.4253 14.0236 49.0517 14.3302 48.6146 14.5112C48.1776 14.6923 47.6966 14.7396 47.2326 14.6474C46.7686 14.5551 46.3424 14.3272 46.0078 13.9927C45.7848 13.7711 45.6077 13.5076 45.4869 13.2173C45.3661 12.927 45.3039 12.6157 45.3039 12.3013C45.3039 11.9869 45.3661 11.6755 45.4869 11.3853C45.6077 11.095 45.7848 10.8314 46.0078 10.6099ZM27.608 4.97021C27.608 4.49711 27.7483 4.03463 28.0111 3.64127C28.274 3.2479 28.6475 2.94131 29.0846 2.76026C29.5217 2.57921 30.0027 2.53184 30.4667 2.62414C30.9307 2.71644 31.3569 2.94426 31.6914 3.27879C32.026 3.61332 32.2538 4.03954 32.3461 4.50355C32.4384 4.96756 32.391 5.44851 32.21 5.8856C32.0289 6.32269 31.7223 6.69627 31.329 6.95911C30.9356 7.22195 30.4731 7.36224 30 7.36224C29.3658 7.36153 28.7578 7.10928 28.3094 6.66084C27.8609 6.2124 27.6087 5.6044 27.608 4.97021ZM10.6098 13.9922C10.2753 13.6577 10.0475 13.2315 9.95517 12.7675C9.86288 12.3035 9.91025 11.8225 10.0913 11.3854C10.2723 10.9483 10.5789 10.5748 10.9723 10.3119C11.3657 10.0491 11.8281 9.90879 12.3012 9.90879C12.7743 9.90879 13.2368 10.0491 13.6302 10.3119C14.0235 10.5748 14.3301 10.9483 14.5112 11.3854C14.6922 11.8225 14.7396 12.3035 14.6473 12.7675C14.555 13.2315 14.3272 13.6577 13.9927 13.9922C13.7716 14.2162 13.5082 14.3941 13.2179 14.5155C12.9275 14.6369 12.616 14.6994 12.3012 14.6994C11.9865 14.6994 11.675 14.6369 11.3846 14.5155C11.0942 14.3941 10.8309 14.2162 10.6098 13.9922ZM4.97017 32.3921C4.49707 32.3921 4.03459 32.2518 3.64123 31.989C3.24786 31.7261 2.94127 31.3525 2.76022 30.9154C2.57917 30.4784 2.5318 29.9974 2.6241 29.5334C2.7164 29.0694 2.94421 28.6432 3.27875 28.3086C3.61328 27.9741 4.0395 27.7463 4.50351 27.654C4.96751 27.5617 5.44847 27.6091 5.88556 27.7901C6.32264 27.9712 6.69623 28.2777 6.95907 28.6711C7.22191 29.0645 7.3622 29.527 7.3622 30.0001C7.36149 30.6342 7.10924 31.2422 6.6608 31.6907C6.21236 32.1391 5.60435 32.3914 4.97017 32.3921ZM13.9922 49.3902C13.661 49.7222 13.2396 49.9496 12.7803 50.044C12.321 50.1384 11.844 50.0957 11.4088 49.9213C10.9735 49.7468 10.5991 49.4483 10.3321 49.0628C10.0652 48.6773 9.9174 48.2218 9.9072 47.753C9.89699 47.2842 10.0248 46.8227 10.2747 46.426C10.5247 46.0292 10.8857 45.7147 11.313 45.5214C11.7402 45.3282 12.2149 45.2648 12.6779 45.3392C13.1409 45.4135 13.5718 45.6223 13.9171 45.9395C13.9699 46.0275 14.042 46.1023 14.128 46.1582C14.5137 46.6163 14.7137 47.2023 14.6885 47.8006C14.6634 48.3989 14.4149 48.9661 13.9922 49.3902ZM32.3916 55.0299C32.3921 55.4966 32.2561 55.9532 32.0004 56.3435C31.7447 56.7339 31.3803 57.0409 30.9523 57.2268C30.5242 57.4127 30.0511 57.4693 29.5913 57.3896C29.1315 57.31 28.705 57.0976 28.3644 56.7786C28.0238 56.4596 27.7839 56.0479 27.6744 55.5943C27.5648 55.1406 27.5903 54.6649 27.7478 54.2256C27.9052 53.7863 28.1878 53.4026 28.5606 53.1219C28.9333 52.8412 29.3801 52.6756 29.8458 52.6456C29.947 52.6689 30.0521 52.6689 30.1533 52.6456C30.7593 52.6848 31.3278 52.9529 31.7435 53.3957C32.1592 53.8384 32.391 54.4226 32.392 55.0299H32.3916ZM49.3902 46.0079C49.7247 46.3424 49.9526 46.7686 50.0448 47.2326C50.1371 47.6966 50.0898 48.1776 49.9087 48.6147C49.7277 49.0518 49.4211 49.4253 49.0277 49.6882C48.6344 49.951 48.1719 50.0913 47.6988 50.0913C47.2257 50.0913 46.7632 49.951 46.3698 49.6882C45.9765 49.4253 45.6699 49.0518 45.4888 48.6147C45.3078 48.1776 45.2604 47.6966 45.3527 47.2326C45.445 46.7686 45.6728 46.3424 46.0074 46.0079C46.2284 45.7839 46.4918 45.606 46.7821 45.4846C47.0725 45.3632 47.3841 45.3007 47.6988 45.3007C48.0135 45.3007 48.3251 45.3632 48.6154 45.4846C48.9058 45.606 49.1691 45.7839 49.3902 46.0079ZM30 44.444C27.1484 44.444 24.3609 43.5984 21.9898 42.0141C19.6188 40.4299 17.7708 38.1781 16.6796 35.5436C15.5883 32.909 15.3028 30.0101 15.8591 27.2133C16.4154 24.4165 17.7886 21.8474 19.805 19.8311C21.8214 17.8147 24.3904 16.4415 27.1872 15.8852C29.984 15.3289 32.883 15.6144 35.5175 16.7056C38.1521 17.7969 40.4038 19.6449 41.9881 22.0159C43.5723 24.3869 44.4179 27.1745 44.4179 30.0261C44.4136 33.8486 42.8932 37.5134 40.1903 40.2163C37.4873 42.9193 33.8226 44.4397 30 44.444ZM55.0299 32.3921C54.5568 32.3921 54.0943 32.2518 53.7009 31.989C53.3075 31.7261 53.001 31.3525 52.8199 30.9154C52.6389 30.4784 52.5915 29.9974 52.6838 29.5334C52.7761 29.0694 53.0039 28.6432 53.3384 28.3086C53.673 27.9741 54.0992 27.7463 54.5632 27.654C55.0272 27.5617 55.5082 27.6091 55.9452 27.7901C56.3823 27.9712 56.7559 28.2777 57.0188 28.6711C57.2816 29.0645 57.4219 29.527 57.4219 30.0001C57.4212 30.6342 57.1689 31.2422 56.7205 31.6907C56.2721 32.1391 55.664 32.3914 55.0299 32.3921Z" fill="#B10043"/>
<path d="M38.3972 22.5214L38.395 22.5197C37.3802 21.3778 36.1431 20.455 34.7593 19.8078C33.3756 19.1606 31.8743 18.8027 30.3473 18.7559C30.3043 18.7508 30.2609 18.7498 30.2177 18.7528C30.1453 18.7514 30.0728 18.75 30 18.75C29.9272 18.75 29.8547 18.7514 29.7822 18.7528C29.7392 18.7498 29.696 18.7508 29.6532 18.7559C28.1261 18.8027 26.6247 19.1607 25.2407 19.808C23.8568 20.4554 22.6196 21.3784 21.6048 22.5205C21.6034 22.5217 21.602 22.5226 21.6007 22.5238C21.5545 22.5644 21.5139 22.611 21.4799 22.6622C19.7192 24.7015 18.7505 27.3058 18.7505 30C18.7505 32.6942 19.7192 35.2985 21.4799 37.3378C21.5139 37.3891 21.5545 37.4357 21.6007 37.4763C21.602 37.4775 21.6035 37.4786 21.605 37.4797C22.6188 38.6207 23.8545 39.5429 25.2367 40.1901C26.6189 40.8373 28.1186 41.1958 29.6441 41.2438C29.6738 41.2478 29.7038 41.2499 29.7338 41.2501C29.7483 41.2501 29.7625 41.248 29.7769 41.2472C29.8513 41.2486 29.9258 41.25 30.0006 41.25C30.0754 41.25 30.1499 41.2486 30.2243 41.2472C30.2387 41.248 30.2529 41.2501 30.2674 41.2501C30.2974 41.2499 30.3274 41.2478 30.3571 41.2438C31.8825 41.1958 33.3822 40.8373 34.7644 40.1901C36.1467 39.543 37.3824 38.6208 38.3961 37.4798L38.3979 37.4786C38.4452 37.4374 38.4869 37.3901 38.5216 37.3379C40.2821 35.2987 41.2507 32.6945 41.2507 30.0005C41.2507 27.3065 40.2821 24.7022 38.5216 22.663C38.4867 22.6104 38.4449 22.5628 38.3972 22.5214ZM37.8943 35.8737C37.3464 35.3302 36.7433 34.8453 36.0948 34.4269C36.4545 33.2163 36.6599 31.9652 36.7062 30.7031H39.8159C39.6842 32.5752 39.0173 34.37 37.8943 35.8737ZM20.1841 30.7031H23.2938C23.3402 31.9688 23.5466 33.2236 23.9082 34.4374C23.2603 34.8541 22.657 35.3364 22.1079 35.8767C20.9836 34.3724 20.3158 32.5765 20.1841 30.7031ZM22.1078 24.1234C22.6569 24.6639 23.2602 25.1466 23.908 25.5637C23.5466 26.7772 23.3402 28.0316 23.2938 29.2969H20.1841C20.3158 27.4236 20.9836 25.6277 22.1078 24.1234ZM30.7031 27.3328C32.135 27.2509 33.5375 26.8924 34.8331 26.2771C35.1004 27.2632 35.2567 28.2761 35.2989 29.2969H30.7031V27.3328ZM30.7031 25.9233V20.4915C32.3357 21.4876 33.5911 23.0239 34.3767 24.9356C33.2293 25.5039 31.9808 25.8395 30.7031 25.9233ZM29.2969 20.4915V25.9202C28.0206 25.8306 26.7741 25.4925 25.6275 24.9248C26.4141 23.0181 27.668 21.4853 29.2969 20.4915ZM29.2969 27.3298V29.2969H24.7011C24.7435 28.2722 24.9007 27.2555 25.1699 26.2659C26.4649 26.8812 27.8659 27.2423 29.2969 27.3298ZM24.701 30.7031H29.2969V32.6711C27.8662 32.76 26.4656 33.1213 25.1705 33.7357C24.901 32.7456 24.7435 31.7284 24.701 30.7031ZM29.2969 34.0799V39.5091C27.6673 38.5151 26.4134 36.9821 25.6275 35.0754C26.7742 34.5079 28.0206 34.1698 29.2969 34.0799ZM30.7031 39.5091V34.0764C31.9809 34.1599 33.2295 34.4956 34.377 35.0641C33.5913 36.9761 32.3359 38.5132 30.7031 39.5091ZM30.7031 32.6679V30.7031H35.299C35.2567 31.7243 35.1003 32.7376 34.8328 33.7241C33.5371 33.1094 32.1349 32.7508 30.7031 32.6679ZM36.7062 29.2969C36.6599 28.0351 36.4545 26.7843 36.0949 25.5739C36.7434 25.1552 37.3464 24.6701 37.8943 24.1263C39.0172 25.63 39.6842 27.4248 39.8159 29.2969H36.7062ZM36.9728 23.0589C36.5517 23.4852 36.0922 23.8716 35.5999 24.2133C35.0483 22.9044 34.249 21.7144 33.2461 20.7087C34.6496 21.2011 35.9235 22.0045 36.9727 23.0589H36.9728ZM26.754 20.7087C25.7533 21.7121 24.9553 22.899 24.4038 24.2045C23.9116 23.8643 23.4516 23.4799 23.0293 23.0561C24.0782 22.003 25.3515 21.2005 26.754 20.7087ZM23.0295 36.9435C23.4517 36.5196 23.9117 36.1352 24.4038 35.795C24.9553 37.1006 25.7532 38.2876 26.7539 39.2911C25.3514 38.7991 24.0782 37.9966 23.0295 36.9435ZM33.2461 39.2911C34.2489 38.2855 35.0481 37.0958 35.5998 35.7872C36.092 36.1289 36.5514 36.5154 36.9724 36.9417C35.9233 37.9957 34.6494 38.7989 33.2461 39.2911Z" fill="#B10043"/>
</svg>
