<svg width="60" height="60" viewBox="0 0 60 60" fill="none" xmlns="http://www.w3.org/2000/svg">
<g clip-path="url(#clip0_48_2041)">
<path d="M40.1362 38.854C39.8516 39.031 39.6775 39.3417 39.6775 39.6776V53.226C39.6775 53.5618 39.8516 53.8724 40.1362 54.0496C40.292 54.1454 40.4682 54.1937 40.6452 54.1937C40.7932 54.1937 40.9414 54.1598 41.0778 54.0921L54.6262 47.318C54.9542 47.1534 55.1614 46.8186 55.1614 46.4518C55.1614 46.085 54.9543 45.7502 54.6262 45.5857L41.0778 38.8114C40.7787 38.6624 40.4216 38.6769 40.1362 38.854ZM41.613 41.2433L52.0298 46.4517L41.613 51.6601V41.2433Z" fill="#353535"/>
<path d="M57.0968 27.0968C58.6975 27.0968 60 25.7943 60 24.1936V6.77414C60 5.17348 58.6975 3.87094 57.0968 3.87094H50.3227V2.9032C50.3225 1.30254 49.02 0 47.4193 0H6.77414C5.17359 0 3.87094 1.30254 3.87094 2.9032V34.8387H2.9032C1.30254 34.8387 0 36.1413 0 37.742V57.0968C0 58.6975 1.30254 60 2.9032 60H26.1291C27.7297 60 29.0323 58.6975 29.0323 57.0968V46.4516H32.9032C32.9032 53.9225 38.9807 60 46.4516 60C53.9225 60 60 53.9225 60 46.4516C60 40.3268 55.9113 35.1445 50.3225 33.4741V27.0967L57.0968 27.0968ZM58.0645 6.77414V24.1935C58.0645 24.7276 57.63 25.1612 57.0968 25.1612H48.8709L46.2571 28.646C45.8941 29.1299 45.0725 29.1299 44.7096 28.646L42.0967 25.1612H33.8708C33.3376 25.1612 32.9031 24.7276 32.9031 24.1935V6.77414C32.9031 6.24 33.3376 5.80641 33.8708 5.80641H57.0967C57.63 5.80641 58.0645 6.24 58.0645 6.77414ZM6.77414 1.93547H47.4193C47.9525 1.93547 48.3871 2.36906 48.3871 2.9032V3.87094H33.8709C32.2703 3.87094 30.9677 5.17348 30.9677 6.77414V7.74188H5.80641V2.9032C5.80641 2.36906 6.24094 1.93547 6.77414 1.93547ZM5.80641 9.67746H15.4839V34.8388H5.80641V9.67746ZM27.0968 57.0968C27.0968 57.6309 26.6623 58.0645 26.1291 58.0645H2.9032C2.37 58.0645 1.93547 57.6309 1.93547 57.0968V37.742C1.93547 37.2079 2.37 36.7743 2.9032 36.7743H26.1291C26.6623 36.7743 27.0968 37.2079 27.0968 37.742V57.0968ZM58.0645 46.4516C58.0645 52.8552 52.8552 58.0645 46.4516 58.0645C40.048 58.0645 34.8387 52.8552 34.8387 46.4516C34.8387 40.048 40.048 34.8387 46.4516 34.8387C52.8552 34.8387 58.0645 40.048 58.0645 46.4516ZM46.4516 32.9032C39.6396 32.9032 34.0016 37.9616 33.058 44.5161H29.0321V37.742C29.0321 36.1413 27.7296 34.8388 26.1289 34.8388H17.4192V9.67746H30.9676V24.1936C30.9676 25.7943 32.2702 27.0968 33.8708 27.0968H41.1288L43.1611 29.8075C43.7059 30.5343 44.575 30.9677 45.4836 30.9677C46.3934 30.9677 47.2614 30.5341 47.8052 29.8075L48.3868 29.0323V33.0581C47.7532 32.9661 47.1107 32.9032 46.4516 32.9032Z" fill="#353535"/>
<path d="M34.9509 20.7754C35.1251 21.1034 35.46 21.2902 35.8073 21.2902C35.9603 21.2902 36.1151 21.2544 36.2593 21.178L44.9457 16.5793L48.5012 18.4616C48.4325 18.749 48.3871 19.0461 48.3871 19.3548C48.3871 21.4896 50.1232 23.2257 52.258 23.2257C54.3928 23.2257 56.1289 21.4896 56.1289 19.3548C56.1289 17.22 54.3928 15.4838 52.258 15.4838C51.1287 15.4838 50.1193 15.9783 49.4109 16.7525L47.0138 15.4838L49.4109 14.2151C50.1193 14.9893 51.1287 15.4838 52.258 15.4838C54.3928 15.4838 56.1289 13.7477 56.1289 11.6129C56.1289 9.47808 54.3928 7.74194 52.258 7.74194C50.1232 7.74194 48.3871 9.47808 48.3871 11.6129C48.3871 11.9216 48.4325 12.2187 48.5012 12.5061L44.9457 14.3883L36.2593 9.78968C35.787 9.53808 35.2016 9.72101 34.9509 10.1922C34.7012 10.6645 34.8812 11.25 35.3535 11.5006L42.8776 15.4838L35.3535 19.467C34.8813 19.7177 34.7013 20.3022 34.9509 20.7754ZM52.258 17.4193C53.3254 17.4193 54.1935 18.2873 54.1935 19.3548C54.1935 20.4222 53.3254 21.2902 52.258 21.2902C51.1905 21.2902 50.3225 20.4222 50.3225 19.3548C50.3225 18.2873 51.1906 17.4193 52.258 17.4193ZM52.258 9.67741C53.3254 9.67741 54.1935 10.5454 54.1935 11.6129C54.1935 12.6803 53.3254 13.5483 52.258 13.5483C51.1905 13.5483 50.3225 12.6803 50.3225 11.6129C50.3225 10.5454 51.1906 9.67741 52.258 9.67741Z" fill="#353535"/>
<path d="M15.4839 3.87085H17.4194V5.80632H15.4839V3.87085Z" fill="#353535"/>
<path d="M7.742 3.87085H9.67747V5.80632H7.742V3.87085Z" fill="#353535"/>
<path d="M11.6129 3.87085H13.5484V5.80632H11.6129V3.87085Z" fill="#353535"/>
<path d="M7.74197 48.5652V38.7097H5.80638V48.5652C4.68279 48.9658 3.87091 50.0304 3.87091 51.2904C3.87091 52.5504 4.6829 53.6149 5.80638 54.0156V56.1292H7.74185V54.0156C8.86544 53.6149 9.67732 52.5504 9.67732 51.2904C9.67732 50.0304 8.86544 48.9658 7.74197 48.5652ZM6.77411 52.258C6.24091 52.258 5.80638 51.8244 5.80638 51.2903C5.80638 50.7561 6.24091 50.3225 6.77411 50.3225C7.30732 50.3225 7.74185 50.7561 7.74185 51.2903C7.74185 51.8244 7.30743 52.258 6.77411 52.258Z" fill="#353535"/>
<path d="M15.4839 44.6943V38.7097H13.5484V44.6943C12.4248 45.0949 11.6129 46.1594 11.6129 47.4194C11.6129 48.6794 12.4249 49.744 13.5484 50.1446V56.1292H15.4839V50.1446C16.6074 49.744 17.4193 48.6794 17.4193 47.4194C17.4193 46.1594 16.6074 45.0949 15.4839 44.6943ZM14.5161 48.3872C13.9829 48.3872 13.5484 47.9536 13.5484 47.4194C13.5484 46.8853 13.9829 46.4517 14.5161 46.4517C15.0493 46.4517 15.4839 46.8853 15.4839 47.4194C15.4839 47.9536 15.0493 48.3872 14.5161 48.3872Z" fill="#353535"/>
<path d="M23.2259 42.7588V38.7097H21.2904V42.7588C20.1668 43.1594 19.3549 44.224 19.3549 45.484C19.3549 46.744 20.1669 47.8085 21.2904 48.2092V56.1292H23.2259V48.2092C24.3495 47.8085 25.1613 46.744 25.1613 45.484C25.1613 44.224 24.3493 43.1594 23.2259 42.7588ZM22.258 46.4517C21.7248 46.4517 21.2903 46.0181 21.2903 45.484C21.2903 44.9498 21.7248 44.5162 22.258 44.5162C22.7912 44.5162 23.2257 44.9498 23.2257 45.484C23.2257 46.0181 22.7913 46.4517 22.258 46.4517Z" fill="#353535"/>
<path d="M7.742 11.613H13.5484V13.5485H7.742V11.613Z" fill="#353535"/>
<path d="M7.742 15.4839H13.5484V17.4194H7.742V15.4839Z" fill="#353535"/>
<path d="M7.742 19.3547H13.5484V21.2902H7.742V19.3547Z" fill="#353535"/>
<path d="M7.742 23.2258H13.5484V25.1613H7.742V23.2258Z" fill="#353535"/>
<path d="M7.742 27.0967H13.5484V29.0321H7.742V27.0967Z" fill="#353535"/>
<path d="M7.742 30.9678H13.5484V32.9032H7.742V30.9678Z" fill="#353535"/>
<path d="M19.3548 21.2904H29.0323V11.613H19.3548V21.2904ZM21.2903 13.5485H27.0967V19.3549H21.2903V13.5485Z" fill="#353535"/>
<path d="M19.3548 32.9033H29.0323V23.2258H19.3548V32.9033ZM21.2903 25.1614H27.0967V30.9678H21.2903V25.1614Z" fill="#353535"/>
</g>
<defs>
<clipPath id="clip0_48_2041">
<rect width="60" height="60" fill="white"/>
</clipPath>
</defs>
</svg>
