<svg width="60" height="60" viewBox="0 0 60 60" fill="none" xmlns="http://www.w3.org/2000/svg">
<path d="M55.6735 31.5141H4.32658C3.80884 31.5141 3.38908 31.9338 3.38908 32.4516V35.9261C3.38908 36.3139 3.62791 36.6616 3.98978 36.801L7.78841 38.2632C8.31834 40.2929 9.12294 42.234 10.1857 44.046L8.53255 47.7682C8.37505 48.1226 8.45216 48.5373 8.72638 48.8116L13.6402 53.7254C13.9144 53.9996 14.3292 54.0765 14.6836 53.9193L18.4071 52.2655C20.2198 53.3283 22.1601 54.1328 24.1881 54.6621L25.6506 58.4618C25.7898 58.8237 26.1376 59.0625 26.5255 59.0625H33.4744C33.8623 59.0625 34.21 58.8237 34.3493 58.4618L35.8115 54.6633C37.8409 54.1336 39.7819 53.3289 41.5942 52.2659L45.3164 53.9193C45.6708 54.0769 46.0856 53.9996 46.3599 53.7253L51.2735 48.8114C51.5477 48.5372 51.6249 48.1225 51.4674 47.7681L49.8136 44.0446C50.8764 42.232 51.6809 40.2919 52.2103 38.2636L56.0101 36.8011C56.372 36.6619 56.6108 36.3141 56.6108 35.9262V32.4516C56.611 31.9338 56.1913 31.5141 55.6735 31.5141ZM41.7182 33.3891C41.2389 39.4344 36.1664 44.2071 30 44.2071C23.8335 44.2071 18.761 39.4344 18.2817 33.3891H41.7182ZM54.736 35.2823L51.0822 36.6888C50.7938 36.7998 50.5785 37.046 50.5069 37.3466C49.9904 39.5167 49.1338 41.5828 47.9608 43.4879C47.7987 43.7511 47.7768 44.0774 47.9023 44.3599L49.4926 47.9408L45.4893 51.9443L41.9098 50.3543C41.627 50.2287 41.3008 50.2507 41.0376 50.4129C39.1329 51.5862 37.0662 52.4429 34.8947 52.9595C34.594 53.0311 34.3478 53.2463 34.2368 53.5348L32.8308 57.1875H27.1692L25.7629 53.5337C25.6519 53.2452 25.4057 53.03 25.105 52.9586C22.9351 52.4422 20.869 51.5856 18.9636 50.4124C18.7003 50.2502 18.374 50.2284 18.0917 50.3539L14.5109 51.9443L10.5074 47.9409L12.0972 44.3614C12.2227 44.0789 12.2008 43.7527 12.0386 43.4893C10.8658 41.5852 10.009 39.5182 9.49209 37.3462C9.42048 37.0457 9.20533 36.7995 8.91681 36.6885L5.26408 35.2825V33.3891H16.4022C16.8856 40.4693 22.7992 46.0822 30 46.0822C37.2007 46.0822 43.1143 40.4694 43.5977 33.3892H54.736V35.2823ZM33.0925 12.5606C32.5747 12.5606 32.155 12.9804 32.155 13.4981V28.9773C32.155 29.495 32.5747 29.9148 33.0925 29.9148H37.3855C37.9033 29.9148 38.323 29.495 38.323 28.9773V13.4981C38.323 12.9804 37.9033 12.5606 37.3855 12.5606H33.0925ZM36.448 28.0398H34.03V14.4356H36.448V28.0398ZM42.2364 15.4884C41.7186 15.4884 41.2989 15.9082 41.2989 16.4259V28.9772C41.2989 29.4949 41.7186 29.9147 42.2364 29.9147H46.5295C47.0473 29.9147 47.467 29.4949 47.467 28.9772V16.4259C47.467 15.9082 47.0473 15.4884 46.5295 15.4884H42.2364ZM45.592 28.0398H43.1739V17.3636H45.592V28.0398ZM55.6735 6.92906H51.3803C50.8626 6.92906 50.4428 7.34883 50.4428 7.86656V28.9772C50.4428 29.4949 50.8626 29.9147 51.3803 29.9147H55.6735C56.1912 29.9147 56.611 29.4949 56.611 28.9772V7.86656C56.611 7.34883 56.1913 6.92906 55.6735 6.92906ZM54.736 28.0397H52.3178V8.80406H54.736V28.0397ZM23.9486 29.9147H28.2416C28.7593 29.9147 29.1791 29.4949 29.1791 28.9772V20.7411C29.1791 20.2234 28.7593 19.8036 28.2416 19.8036H23.9486C23.4308 19.8036 23.0111 20.2234 23.0111 20.7411V28.9772C23.0111 29.4949 23.4307 29.9147 23.9486 29.9147ZM24.8861 21.6786H27.3041V28.0397H24.8861V21.6786ZM25.3484 12.9983C25.0352 12.5859 25.1158 11.9979 25.5281 11.6848L34.672 4.74176C34.941 4.53738 35.2991 4.49367 35.6093 4.62703L44.1988 8.32055L50.2436 2.82129L49.264 2.8248C49.2628 2.8248 49.2617 2.8248 49.2606 2.8248C48.7444 2.8248 48.3251 2.40738 48.3231 1.8907C48.3212 1.37285 48.7395 0.951562 49.2572 0.949805L52.6736 0.9375H52.677C52.9568 0.9375 53.2221 1.06254 53.4002 1.27852C53.5791 1.49543 53.6513 1.78102 53.5967 2.05687L52.9342 5.40832C52.846 5.85492 52.4541 6.16406 52.0156 6.16418C51.9552 6.16418 51.8942 6.1582 51.8327 6.14613C51.3249 6.04582 50.9944 5.5527 51.0948 5.04469L51.2064 4.48055L45.0141 10.114C44.7421 10.3612 44.3506 10.4269 44.0129 10.2818L35.3707 6.56555L26.662 13.1781C26.4926 13.3069 26.2934 13.369 26.0958 13.369C25.8127 13.369 25.5328 13.2413 25.3484 12.9983ZM4.32658 29.9148H21.2483C21.5144 29.9148 21.7678 29.8018 21.9456 29.604C22.1234 29.4062 22.2088 29.1421 22.1804 28.8776C21.7928 25.2553 19.4039 22.3051 16.1789 21.0704C17.3088 20.1086 18.0277 18.6772 18.0277 17.0804C18.0277 14.1911 15.6769 11.8403 12.7875 11.8403C9.89802 11.8403 7.54724 14.1911 7.54724 17.0804C7.54724 18.6772 8.26595 20.1084 9.39599 21.0704C6.17099 22.305 3.78201 25.2553 3.39435 28.8776C3.36599 29.1422 3.45142 29.4062 3.62919 29.604C3.80697 29.8018 4.06056 29.9148 4.32658 29.9148ZM9.42236 17.0803C9.42236 15.2248 10.932 13.7152 12.7876 13.7152C14.6432 13.7152 16.1528 15.2248 16.1528 17.0803C16.1528 18.9352 14.6445 20.4443 12.79 20.4455C12.7892 20.4455 12.7883 20.4455 12.7875 20.4455C12.7867 20.4455 12.786 20.4455 12.7852 20.4455C10.9307 20.4443 9.42236 18.9353 9.42236 17.0803ZM12.7851 22.3206H12.7875H12.79C16.3118 22.3218 19.3033 24.7164 20.1324 28.0398H5.44244C6.27166 24.7162 9.2631 22.3216 12.7851 22.3206Z" fill="white"/>
</svg>
