<svg height="512" viewBox="0 0 512 512" width="512" xmlns="http://www.w3.org/2000/svg"><g id="BULINE"><circle cx="256" cy="256" fill="#7cc8fb" r="256"/></g><g id="Icons"><path d="m512 256a256.2 256.2 0 0 1 -315.47 249.07 252.91 252.91 0 0 1 -29.41-8.9c-97.58-36.17-167.12-130.01-167.12-240.17s69.54-204 167.12-240.12a253 253 0 0 1 29.41-8.88 257.31 257.31 0 0 1 148.34 8.91 252.21 252.21 0 0 1 29.41 13.05 256 256 0 0 1 137.72 227.04z" fill="#db1b1b"/><path d="m167.12 15.84v480.29c-97.58-36.13-167.12-130.01-167.12-240.13s69.54-204 167.12-240.16z" fill="#db1b1b"/><path d="m344.87 15.84v480.29a256.53 256.53 0 0 1 -177.75 0v-480.29a253 253 0 0 1 29.41-8.91 257.31 257.31 0 0 1 148.34 8.91z" fill="#fff"/><path d="m512 256a256.09 256.09 0 0 1 -167.13 240.13v-480.29a252.21 252.21 0 0 1 29.41 13.05 256 256 0 0 1 137.72 227.11z" fill="#db1b1b"/><path d="m196.53 6.93v498.07a252.91 252.91 0 0 1 -29.41-8.9v-480.26a253 253 0 0 1 29.41-8.91z" fill="#e0e0e0"/><path d="m374.28 28.89v454.19a253.9 253.9 0 0 1 -29.41 13.05v-480.29a252.21 252.21 0 0 1 29.41 13.05z" fill="#c11616"/><circle cx="444.71" cy="166.36" fill="#ea3434" r="16.28"/><circle cx="444.71" cy="132.44" fill="#ea3434" r="11.53"/><path d="m57.87 256a255.68 255.68 0 0 0 109.25 209.81v30.32c-97.58-36.13-167.12-130.01-167.12-240.13s69.54-204 167.12-240.16v30.41a255.66 255.66 0 0 0 -109.25 209.75z" fill="#c11616"/><path d="m196.53 483.61a254.3 254.3 0 0 0 88.19 26.78 259.42 259.42 0 0 1 -28.72 1.61 256.16 256.16 0 0 1 -59.47-7 252.91 252.91 0 0 1 -29.41-8.9v-30.29a253.77 253.77 0 0 0 29.41 17.8z" fill="#e0e0e0"/><path d="m196.53 28.45a253.77 253.77 0 0 0 -29.41 17.8v-30.41a253 253 0 0 1 29.41-8.91 256.16 256.16 0 0 1 59.47-6.93 260.14 260.14 0 0 1 29.17 1.64 254.1 254.1 0 0 0 -88.64 26.81z" fill="#e0e0e0"/><path d="m196.53 6.93v21.52a253.77 253.77 0 0 0 -29.41 17.8v-30.41a253 253 0 0 1 29.41-8.91z" fill="#ccc"/><path d="m167.12 465.81a253.77 253.77 0 0 0 29.41 17.8v21.39a252.91 252.91 0 0 1 -29.41-8.9z" fill="#ccc"/><path d="m295.92 289.93 31.63-27.43a2.7 2.7 0 0 0 -.89-4.6l-2.66-.9a3.31 3.31 0 0 1 -2.15-3.82l4.4-20.37a2.71 2.71 0 0 0 -3.12-3.24l-16.13 2.82a3.31 3.31 0 0 1 -3.68-2.1l-1.91-5.1a2.71 2.71 0 0 0 -4.51-.9l-12.9 13.71a3.24 3.24 0 0 1 -3.32.87 3.22 3.22 0 0 1 -2.21-3.78l7.24-33.49a2.71 2.71 0 0 0 -3.36-3.19l-9.44 2.59a3.31 3.31 0 0 1 -3.7-1.47l-10.89-17.93a2.71 2.71 0 0 0 -4.64 0l-10.89 17.93a3.31 3.31 0 0 1 -3.7 1.47l-9.45-2.58a2.71 2.71 0 0 0 -3.36 3.19l7.24 33.49a3.22 3.22 0 0 1 -2.21 3.78 3.24 3.24 0 0 1 -3.31-.88l-12.9-13.71a2.71 2.71 0 0 0 -4.51.9l-1.91 5.1a3.31 3.31 0 0 1 -3.68 2.1l-16.08-2.86a2.71 2.71 0 0 0 -3.12 3.24l4.4 20.37a3.31 3.31 0 0 1 -2.15 3.82l-2.71.94a2.7 2.7 0 0 0 -.89 4.6l31.63 27.43a5.1 5.1 0 0 1 1.59 5.11l-1.6 6.24a2.7 2.7 0 0 0 3 3.35l27.75-4a4.29 4.29 0 0 1 4.89 4.49l-1.71 30.94a6.19 6.19 0 0 0 5.55 6.59 6.07 6.07 0 0 0 6.56-6.4l-1.77-31.11a4.29 4.29 0 0 1 4.89-4.49l27.75 4a2.7 2.7 0 0 0 3-3.35l-1.6-6.24a5.1 5.1 0 0 1 1.54-5.13z" fill="#ec2227"/></g></svg>