<?xml version="1.0" encoding="UTF-8"?>
<svg id="Layer_2" data-name="Layer 2" xmlns="http://www.w3.org/2000/svg" viewBox="0 0 500 373.43">
  <g id="Plant">
    <g>
      <path d="m66.97,328.38s-1.72-11-5.09-12.38.62,8.5.62,8.5c0,0-5.5-5.25-8.75-4.25s8.25,8.12,8.25,8.12h4.97Z" fill="#e6e6e6"/>
      <path d="m185.24,343.97s-3.7-15.18-13.66-18.14-17.62,3.43-17.62,3.43c0,0-2.42-6.08-8.1-6.71-5.69-.62-10.59,3.59-10.59,3.59,0,0-4.6-18.41-20.22-19.66-15.63-1.25-21.45,16.07-21.45,16.07,0,0-3.06-3.97-10.57-2.38-7.51,1.6-10.08,9.24-10.08,9.24,0,0-9.69-5.59-18.73-1.08-9.04,4.51-11.03,15.63-11.03,15.63h142.05Z" fill="#f0f0f0"/>
    </g>
    <g>
      <g>
        <path d="m444.71,282.9h-180.75c-3.23,0-5.86-2.63-5.86-5.86V13.77c0-3.23,2.63-5.86,5.86-5.86h180.75c3.23,0,5.86,2.63,5.86,5.86v263.27c0,3.23-2.63,5.86-5.86,5.86ZM263.96,8.16c-3.09,0-5.61,2.52-5.61,5.61v263.27c0,3.09,2.52,5.61,5.61,5.61h180.75c3.09,0,5.61-2.52,5.61-5.61V13.77c0-3.09-2.52-5.61-5.61-5.61h-180.75Z" fill="#f0f0f0"/>
        <path d="m236.28,282.9H55.53c-3.23,0-5.86-2.63-5.86-5.86V13.77c0-3.23,2.63-5.86,5.86-5.86h180.75c3.23,0,5.86,2.63,5.86,5.86v263.27c0,3.23-2.63,5.86-5.86,5.86ZM55.53,8.16c-3.09,0-5.61,2.52-5.61,5.61v263.27c0,3.09,2.52,5.61,5.61,5.61h180.75c3.09,0,5.61-2.52,5.61-5.61V13.77c0-3.09-2.52-5.61-5.61-5.61H55.53Z" fill="#f0f0f0"/>
      </g>
      <rect y="343.97" width="500" height=".25" fill="#f0f0f0"/>
    </g>
    <path d="m379.15,72.9c-1.9-4.44-6.7-12.73-16.62-15-9.07-2.07-15.93,9.4-21.56,10.24-5.63.84-5-1.69-16.25-5.91-9.62-3.61-16.08,5.78-18.36,10.67h72.79Z" fill="#f5f5f5"/>
    <path d="m158.91,54.64s0-10.1-9.92-10.52c-4.74-.2-10.53,3.68-14.19-2.46-4.25-7.13-11.68-11.38-18.37-8.62-7.39,3.05-11.58,14.73-18.8,13.78-7.22-.96-20.99-5.76-28.11,7.83h89.39Z" fill="#f5f5f5"/>
    <g>
      <path d="m435.61,45.18c-.98,13.09-12.38,22.91-25.47,21.93-1.79-.13-3.52-.46-5.16-.96-2.07-.63-4.02-1.53-5.8-2.66-1.59-1.01-3.05-2.2-4.34-3.54-.4-.41-.78-.83-1.14-1.27-1.61-1.92-2.92-4.09-3.86-6.44-.18-.46-.35-.92-.51-1.4-.95-2.88-1.36-5.99-1.12-9.2.02-.29.05-.59.08-.88,1.41-12.65,12.59-22.01,25.39-21.05,3.15.24,6.11,1.07,8.77,2.39.51.26,1.02.53,1.51.82,2.15,1.27,4.08,2.86,5.72,4.71.36.41.71.83,1.04,1.26,1.18,1.53,2.18,3.21,2.97,5,.81,1.84,1.39,3.8,1.71,5.84.23,1.49.33,3.02.27,4.58,0,.29-.03.59-.05.88Z" fill="#f5f5f5"/>
      <path d="m430.77,45.69c.02-.48.01-.96-.01-1.43-.1-2.15-.56-4.22-1.34-6.15-.79-1.98-1.9-3.8-3.28-5.38-.35-.41-.73-.81-1.11-1.18-1.79-1.75-3.93-3.15-6.31-4.09-.58-.23-1.18-.43-1.79-.6-1.2-.34-2.44-.56-3.73-.66-10.16-.76-19.07,6.65-20.28,16.66.01-.29.03-.58.05-.87.78-10.44,9.92-18.31,20.36-17.53,10.45.78,18.31,9.92,17.53,20.36-.02.29-.05.58-.08.87Z" fill="#e0e0e0"/>
      <g fill="none" opacity=".3">
        <path d="m410.5,62.35c-.23-.01-.45-.04-.67-.06h0c-.23-.03-.45-.05-.68-.09-.06,0-.11-.02-.17-.03-.24-.04-.48-.08-.72-.13-.04,0-.07-.02-.11-.02-.78-.15-1.54-.36-2.28-.61-.25-.09-.5-.17-.74-.27-.49-.19-.97-.39-1.44-.62h-.01c-.15-.08-.3-.16-.45-.23-.08-.04-.16-.08-.24-.13-.12-.06-.24-.13-.35-.2-.18-.1-.36-.21-.54-.32-.23-.14-.46-.28-.68-.43-.22-.15-.44-.3-.66-.46-.18-.13-.35-.26-.53-.4-.11-.09-.23-.18-.34-.27-.09-.07-.18-.15-.27-.22-.1-.09-.21-.18-.3-.27-.16-.14-.32-.29-.48-.44-.14-.13-.28-.26-.4-.4-.03-.03-.06-.06-.09-.09-.19-.2-.37-.39-.56-.6-.17-.19-.33-.38-.5-.58-.01,0-.02-.02-.03-.03-.1-.12-.2-.24-.29-.36-.1-.12-.19-.25-.28-.37-.09-.12-.18-.24-.26-.36-.09-.13-.18-.26-.27-.4-.08-.13-.17-.26-.25-.39-.08-.13-.16-.26-.24-.39-.17-.27-.32-.55-.48-.84-.06-.12-.12-.23-.18-.35-.15-.28-.29-.57-.42-.87-.07-.14-.13-.28-.19-.43-.19-.45-.36-.92-.52-1.39-.04-.12-.08-.25-.12-.38-.09-.28-.17-.56-.24-.85,0-.01,0-.03-.01-.04-.07-.29-.14-.58-.2-.86-.03-.13-.06-.27-.08-.41-.01-.07-.02-.14-.03-.2-.03-.14-.05-.28-.07-.43,0-.02,0-.04,0-.06-.03-.16-.05-.33-.06-.49-.02-.18-.04-.36-.05-.54-.02-.18-.03-.36-.04-.54-.01-.15-.02-.29-.02-.44,0-.09,0-.18,0-.28,0-.13,0-.26,0-.39,0-.19,0-.37,0-.56,1.21-10.01,10.12-17.42,20.28-16.66,1.29.1,2.53.32,3.73.66.61.17,1.21.38,1.79.6,2.38.94,4.52,2.34,6.31,4.09.39.38.76.77,1.11,1.18,1.38,1.59,2.49,3.41,3.28,5.38.77,1.92,1.24,4,1.34,6.15.02.47.03.95.01,1.43-1.21,10.01-10.12,17.42-20.28,16.66Z"/>
      </g>
      <path d="m410.5,62.35c-.23-.01-.45-.04-.67-.06h0c-.23-.03-.45-.05-.68-.09-.06,0-.11-.02-.17-.03-.24-.04-.48-.08-.72-.13-.04,0-.07-.02-.11-.02-.78-.16-1.54-.36-2.28-.61-.25-.09-.5-.17-.74-.27-.49-.19-.97-.39-1.44-.62l-.19-.09c-.09-.05-.18-.09-.27-.14-.08-.04-.16-.08-.24-.13-.12-.06-.24-.13-.35-.2-.18-.1-.36-.21-.54-.32-.23-.14-.46-.28-.68-.43-.22-.15-.44-.3-.66-.46-.18-.13-.35-.26-.53-.4-.11-.09-.23-.18-.34-.27-.09-.07-.18-.15-.27-.22-.1-.09-.21-.18-.3-.27-.16-.14-.32-.29-.48-.44-.14-.13-.28-.26-.4-.4-.03-.03-.06-.06-.09-.09-.19-.2-.37-.39-.56-.6-.17-.19-.33-.38-.5-.58-.01,0-.02-.02-.03-.03-.1-.12-.2-.24-.29-.36-.1-.12-.19-.25-.28-.37-.09-.12-.18-.24-.26-.36-.09-.13-.18-.26-.27-.4-.08-.13-.17-.26-.25-.39-.08-.13-.16-.26-.24-.39-.17-.27-.32-.55-.48-.84-.06-.12-.12-.23-.18-.35-.15-.28-.29-.57-.42-.87-.07-.14-.13-.28-.19-.43-.19-.45-.36-.92-.52-1.39-.04-.12-.08-.25-.12-.38-.09-.28-.17-.56-.24-.85,0-.01,0-.03-.01-.04-.07-.29-.14-.58-.2-.86-.03-.13-.06-.27-.08-.41-.01-.07-.02-.14-.03-.2-.03-.14-.05-.28-.07-.43,0-.02,0-.04,0-.06-.03-.16-.05-.33-.06-.49-.02-.18-.04-.36-.05-.54-.02-.18-.03-.36-.04-.54-.01-.15-.02-.29-.02-.44,0-.09,0-.18,0-.28,0-.13,0-.26,0-.39,0-.19,0-.37,0-.56,1.21-10.01,10.12-17.42,20.28-16.66,1.29.1,2.53.32,3.73.66.61.17,1.21.38,1.79.6,2.38.94,4.52,2.34,6.31,4.09.39.38.76.77,1.11,1.18,1.38,1.59,2.49,3.41,3.28,5.38.77,1.92,1.24,4,1.34,6.15.02.47.03.95.01,1.43-1.21,10.01-10.12,17.42-20.28,16.66Z" fill="#f0f0f0"/>
      <g>
        <path d="m413.74,54.36l-.23,3.15-4-.3.22-3.01c-2.82-.38-5.52-1.35-7.14-2.53l2.52-4.72c1.79,1.25,4.23,2.14,6.41,2.3,1.9.14,2.61-.2,2.66-.89.19-2.5-10.94-1.3-10.39-8.7.24-3.2,2.77-5.72,7.47-6.03l.23-3.09,4,.3-.23,3.03c2.08.36,4.08,1.05,5.63,2.07l-2.38,4.7c-1.88-1.14-3.69-1.76-5.42-1.89-1.96-.15-2.62.37-2.67,1.05-.18,2.38,10.94,1.22,10.4,8.53-.23,3.06-2.64,5.56-7.09,6Z" fill="#e0e0e0"/>
        <path d="m413.71,53.3l-.24,3.15-4-.3.22-3.01c-2.82-.38-5.52-1.35-7.14-2.53l2.52-4.72c1.79,1.25,4.23,2.14,6.41,2.3,1.9.14,2.61-.2,2.66-.88.19-2.5-10.94-1.3-10.39-8.7.24-3.2,2.77-5.72,7.46-6.03l.23-3.09,4,.3-.23,3.03c2.08.36,4.09,1.05,5.63,2.07l-2.38,4.7c-1.88-1.14-3.69-1.76-5.42-1.89-1.96-.15-2.62.37-2.67,1.05-.18,2.38,10.94,1.22,10.4,8.53-.23,3.06-2.64,5.56-7.09,6Z" fill="#f5f5f5"/>
      </g>
    </g>
    <g>
      <path d="m156.43,104.65c5.17,12.06-.41,26.04-12.48,31.21-1.65.71-3.33,1.21-5.03,1.53-2.13.4-4.27.49-6.37.31-1.87-.16-3.72-.55-5.49-1.14-.54-.18-1.08-.38-1.6-.6-2.31-.96-4.48-2.28-6.39-3.94-.38-.32-.74-.66-1.1-1-2.17-2.12-3.97-4.69-5.24-7.64-.12-.27-.23-.54-.33-.82-4.59-11.87,1.02-25.34,12.81-30.39,2.9-1.24,5.91-1.87,8.89-1.92.57-.01,1.15,0,1.72.03,2.49.13,4.94.66,7.24,1.54.51.19,1.01.41,1.5.63,1.76.81,3.42,1.84,4.94,3.06,1.57,1.26,2.99,2.73,4.21,4.4.89,1.21,1.68,2.53,2.35,3.94.13.26.25.53.36.8Z" fill="#f5f5f5"/>
      <path d="m152.37,107.34c-.21-.43-.43-.86-.67-1.27-1.08-1.86-2.45-3.49-4.02-4.84-1.61-1.39-3.44-2.49-5.4-3.26-.5-.2-1.02-.38-1.53-.54-2.4-.72-4.94-.98-7.49-.71-.62.07-1.25.17-1.87.29-1.22.25-2.43.63-3.61,1.14-9.36,4.01-13.85,14.7-10.3,24.14-.12-.26-.24-.53-.36-.8-4.13-9.63.35-20.82,9.98-24.95,9.63-4.13,20.82.35,24.95,9.98.12.27.22.54.33.81Z" fill="#e0e0e0"/>
      <g fill="none" opacity=".3">
        <path d="m142.07,131.48c-.21.09-.42.18-.63.25h0c-.21.08-.43.16-.64.24-.05.02-.11.03-.16.05-.23.08-.47.15-.7.22-.04.01-.07.02-.1.03-.76.22-1.53.39-2.3.51-.26.04-.52.08-.78.11-.52.06-1.04.1-1.56.12h-.01c-.17,0-.34,0-.51,0-.09,0-.18,0-.28,0-.14,0-.27,0-.4-.01-.21,0-.42-.01-.63-.03-.27-.01-.54-.04-.8-.07-.26-.03-.53-.06-.8-.1-.22-.03-.43-.07-.65-.11-.14-.02-.28-.05-.42-.09-.11-.02-.23-.05-.34-.07-.13-.03-.26-.06-.39-.1-.21-.05-.42-.11-.63-.17-.18-.05-.37-.11-.54-.17-.04-.01-.08-.02-.12-.04-.26-.09-.51-.17-.77-.27-.24-.09-.47-.18-.71-.29-.01,0-.02,0-.04-.01-.14-.06-.28-.12-.42-.19-.14-.06-.28-.13-.42-.2-.13-.06-.27-.13-.4-.2-.14-.08-.29-.15-.42-.23-.13-.07-.27-.15-.41-.23-.13-.08-.26-.15-.4-.24-.27-.16-.54-.34-.81-.52-.11-.07-.22-.15-.32-.23-.26-.18-.52-.38-.77-.58-.13-.1-.25-.19-.36-.29-.38-.31-.74-.65-1.1-.99-.09-.09-.19-.19-.28-.28-.21-.21-.41-.42-.6-.64,0,0-.02-.02-.03-.03-.2-.22-.39-.45-.57-.68-.08-.11-.17-.21-.26-.32-.04-.05-.08-.11-.12-.16-.09-.11-.17-.23-.26-.35-.01-.02-.03-.04-.04-.05-.1-.13-.19-.27-.28-.41-.1-.15-.2-.3-.3-.46-.1-.15-.19-.31-.29-.46-.08-.12-.15-.25-.22-.38-.05-.08-.09-.16-.13-.24-.06-.11-.12-.23-.18-.34-.09-.16-.17-.33-.25-.5-3.55-9.44.94-20.13,10.3-24.14,1.18-.51,2.39-.88,3.61-1.14.62-.13,1.24-.22,1.87-.29,2.55-.27,5.09-.01,7.49.71.52.16,1.03.34,1.53.54,1.95.77,3.79,1.87,5.4,3.26,1.57,1.35,2.94,2.98,4.02,4.84.24.41.46.83.67,1.27,3.55,9.44-.94,20.13-10.3,24.14Z"/>
      </g>
      <path d="m142.07,131.48c-.21.09-.42.18-.63.25h0c-.21.08-.43.16-.64.24-.05.02-.11.03-.16.05-.23.08-.47.15-.7.22-.04.01-.07.02-.1.03-.76.22-1.53.39-2.3.51-.26.04-.52.08-.78.11-.52.06-1.04.1-1.56.12h-.21c-.1,0-.2,0-.31,0-.09,0-.18,0-.28,0-.14,0-.27,0-.4-.01-.21,0-.42-.01-.63-.03-.27-.01-.54-.04-.8-.07-.26-.03-.53-.06-.8-.1-.22-.03-.43-.07-.65-.11-.14-.02-.28-.05-.42-.09-.11-.02-.23-.05-.34-.07-.13-.03-.26-.06-.39-.1-.21-.05-.42-.11-.63-.17-.18-.05-.37-.11-.54-.17-.04-.01-.08-.02-.12-.04-.26-.09-.51-.17-.77-.27-.24-.09-.47-.18-.71-.29-.01,0-.02,0-.04-.01-.14-.06-.28-.12-.42-.19-.14-.06-.28-.13-.42-.2-.13-.06-.27-.13-.4-.2-.14-.08-.29-.15-.42-.23-.13-.07-.27-.15-.41-.23-.13-.08-.26-.15-.4-.24-.27-.16-.54-.34-.81-.52-.11-.07-.22-.15-.32-.23-.26-.18-.52-.38-.77-.58-.13-.1-.25-.19-.36-.29-.38-.31-.74-.65-1.1-.99-.09-.09-.19-.19-.28-.28-.21-.21-.41-.42-.6-.64,0,0-.02-.02-.03-.03-.2-.22-.39-.45-.57-.68-.08-.11-.17-.21-.26-.32-.04-.05-.08-.11-.12-.16-.09-.11-.17-.23-.26-.35-.01-.02-.03-.04-.04-.05-.1-.13-.19-.27-.28-.41-.1-.15-.2-.3-.3-.46-.1-.15-.19-.31-.29-.46-.08-.12-.15-.25-.22-.38-.05-.08-.09-.16-.13-.24-.06-.11-.12-.23-.18-.34-.09-.16-.17-.33-.25-.5-3.55-9.44.94-20.13,10.3-24.14,1.18-.51,2.39-.88,3.61-1.14.62-.13,1.24-.22,1.87-.29,2.55-.27,5.09-.01,7.49.71.52.16,1.03.34,1.53.54,1.95.77,3.79,1.87,5.4,3.26,1.57,1.35,2.94,2.98,4.02,4.84.24.41.46.83.67,1.27,3.55,9.44-.94,20.13-10.3,24.14Z" fill="#f0f0f0"/>
      <g>
        <path d="m141.26,122.88l1.24,2.9-3.69,1.58-1.19-2.77c-2.68.96-5.52,1.34-7.5,1.05l.06-5.35c2.16.28,4.74-.05,6.75-.92,1.75-.75,2.22-1.39,1.95-2.01-.99-2.3-10.3,3.89-13.23-2.93-1.27-2.95-.19-6.35,3.84-8.79l-1.22-2.85,3.68-1.58,1.2,2.8c2.01-.65,4.11-.96,5.96-.76l.06,5.26c-2.2-.14-4.08.14-5.68.83-1.8.77-2.15,1.54-1.89,2.17.94,2.2,10.27-3.97,13.16,2.77,1.21,2.82.22,6.15-3.52,8.6Z" fill="#e0e0e0"/>
        <path d="m140.74,121.96l1.24,2.9-3.68,1.58-1.19-2.77c-2.68.96-5.52,1.34-7.5,1.05l.06-5.35c2.16.28,4.74-.05,6.75-.92,1.75-.75,2.22-1.39,1.95-2.01-.99-2.3-10.3,3.89-13.23-2.93-1.27-2.95-.19-6.35,3.84-8.79l-1.22-2.85,3.69-1.58,1.2,2.8c2.01-.65,4.11-.96,5.96-.76l.06,5.26c-2.2-.14-4.08.14-5.68.83-1.8.77-2.15,1.54-1.89,2.17.94,2.2,10.27-3.97,13.16,2.77,1.21,2.82.22,6.15-3.52,8.6Z" fill="#f5f5f5"/>
      </g>
    </g>
    <g>
      <polygon points="329.26 284.87 329.26 154.92 323.85 154.92 314.57 138.85 306.28 124.48 306.28 97.96 304.31 97.96 304.31 124.48 296.01 138.85 286.73 154.92 281.32 154.92 281.32 284.87 329.26 284.87" fill="#f5f5f5"/>
      <polygon points="112.39 284.87 112.39 154.92 106.98 154.92 97.7 138.85 89.41 124.48 89.41 97.96 87.43 97.96 87.43 124.48 79.14 138.85 69.86 154.92 64.45 154.92 64.45 284.87 112.39 284.87" fill="#f5f5f5"/>
      <rect x="220.56" y="143.67" width="46.64" height="141.19" fill="#f5f5f5"/>
      <rect x="395.31" y="128.14" width="55.02" height="156.73" fill="#f5f5f5"/>
      <rect x="49.92" y="121.88" width="21.41" height="162.99" fill="#f5f5f5"/>
      <polygon points="185.5 284.87 185.5 146.32 130.48 168.93 130.48 284.87 185.5 284.87" fill="#f5f5f5"/>
      <polygon points="397.37 284.87 397.37 121.62 391.6 121.62 391.6 109.58 387.35 107.66 387.35 75.31 385.3 75.31 385.3 106.73 345.59 88.73 345.59 121.62 341.63 121.62 341.63 284.87 397.37 284.87" fill="#f5f5f5"/>
      <g>
        <rect x="178.68" y="154.92" width="47.94" height="129.94" fill="#e6e6e6"/>
        <g>
          <g>
            <rect x="184.09" y="162.87" width="7.44" height="3.49" fill="#f5f5f5"/>
            <rect x="198.93" y="162.87" width="7.44" height="3.49" fill="#f5f5f5"/>
            <rect x="213.77" y="162.87" width="7.44" height="3.49" fill="#f5f5f5"/>
          </g>
          <g>
            <rect x="184.09" y="171.5" width="7.44" height="3.49" fill="#f5f5f5"/>
            <rect x="198.93" y="171.5" width="7.44" height="3.49" fill="#f5f5f5"/>
            <rect x="213.77" y="171.5" width="7.44" height="3.49" fill="#f5f5f5"/>
          </g>
          <g>
            <rect x="184.09" y="180.14" width="7.44" height="3.49" fill="#f5f5f5"/>
            <rect x="198.93" y="180.14" width="7.44" height="3.49" fill="#f5f5f5"/>
            <rect x="213.77" y="180.14" width="7.44" height="3.49" fill="#f5f5f5"/>
          </g>
          <g>
            <rect x="184.09" y="188.77" width="7.44" height="3.49" fill="#f5f5f5"/>
            <rect x="198.93" y="188.77" width="7.44" height="3.49" fill="#f5f5f5"/>
            <rect x="213.77" y="188.77" width="7.44" height="3.49" fill="#f5f5f5"/>
          </g>
          <g>
            <rect x="184.09" y="197.4" width="7.44" height="3.49" fill="#f5f5f5"/>
            <rect x="198.93" y="197.4" width="7.44" height="3.49" fill="#f5f5f5"/>
            <rect x="213.77" y="197.4" width="7.44" height="3.49" fill="#f5f5f5"/>
          </g>
          <g>
            <rect x="184.09" y="206.04" width="7.44" height="3.49" fill="#f5f5f5"/>
            <rect x="198.93" y="206.04" width="7.44" height="3.49" fill="#f5f5f5"/>
            <rect x="213.77" y="206.04" width="7.44" height="3.49" fill="#f5f5f5"/>
          </g>
          <g>
            <rect x="184.09" y="214.67" width="7.44" height="3.49" fill="#f5f5f5"/>
            <rect x="198.93" y="214.67" width="7.44" height="3.49" fill="#f5f5f5"/>
            <rect x="213.77" y="214.67" width="7.44" height="3.49" fill="#f5f5f5"/>
          </g>
          <g>
            <rect x="184.09" y="223.31" width="7.44" height="3.49" fill="#f5f5f5"/>
            <rect x="198.93" y="223.31" width="7.44" height="3.49" fill="#f5f5f5"/>
            <rect x="213.77" y="223.31" width="7.44" height="3.49" fill="#f5f5f5"/>
          </g>
          <g>
            <rect x="184.09" y="231.94" width="7.44" height="3.49" fill="#f5f5f5"/>
            <rect x="198.93" y="231.94" width="7.44" height="3.49" fill="#f5f5f5"/>
            <rect x="213.77" y="231.94" width="7.44" height="3.49" fill="#f5f5f5"/>
          </g>
          <g>
            <rect x="184.09" y="240.57" width="7.44" height="3.49" fill="#f5f5f5"/>
            <rect x="198.93" y="240.57" width="7.44" height="3.49" fill="#f5f5f5"/>
            <rect x="213.77" y="240.57" width="7.44" height="3.49" fill="#f5f5f5"/>
          </g>
          <g>
            <rect x="184.09" y="249.21" width="7.44" height="3.49" fill="#f5f5f5"/>
            <rect x="198.93" y="249.21" width="7.44" height="3.49" fill="#f5f5f5"/>
            <rect x="213.77" y="249.21" width="7.44" height="3.49" fill="#f5f5f5"/>
          </g>
          <g>
            <rect x="184.09" y="257.84" width="7.44" height="3.49" fill="#f5f5f5"/>
            <rect x="198.93" y="257.84" width="7.44" height="3.49" fill="#f5f5f5"/>
            <rect x="213.77" y="257.84" width="7.44" height="3.49" fill="#f5f5f5"/>
          </g>
        </g>
      </g>
      <g>
        <rect x="49.92" y="154.92" width="47.94" height="129.94" fill="#e6e6e6"/>
        <g>
          <g>
            <rect x="55.33" y="162.87" width="7.44" height="3.49" fill="#f5f5f5"/>
            <rect x="70.17" y="162.87" width="7.44" height="3.49" fill="#f5f5f5"/>
            <rect x="85.01" y="162.87" width="7.44" height="3.49" fill="#f5f5f5"/>
          </g>
          <g>
            <rect x="55.33" y="171.5" width="7.44" height="3.49" fill="#f5f5f5"/>
            <rect x="70.17" y="171.5" width="7.44" height="3.49" fill="#f5f5f5"/>
            <rect x="85.01" y="171.5" width="7.44" height="3.49" fill="#f5f5f5"/>
          </g>
          <g>
            <rect x="55.33" y="180.14" width="7.44" height="3.49" fill="#f5f5f5"/>
            <rect x="70.17" y="180.14" width="7.44" height="3.49" fill="#f5f5f5"/>
            <rect x="85.01" y="180.14" width="7.44" height="3.49" fill="#f5f5f5"/>
          </g>
          <g>
            <rect x="55.33" y="188.77" width="7.44" height="3.49" fill="#f5f5f5"/>
            <rect x="70.17" y="188.77" width="7.44" height="3.49" fill="#f5f5f5"/>
            <rect x="85.01" y="188.77" width="7.44" height="3.49" fill="#f5f5f5"/>
          </g>
          <g>
            <rect x="55.33" y="197.4" width="7.44" height="3.49" fill="#f5f5f5"/>
            <rect x="70.17" y="197.4" width="7.44" height="3.49" fill="#f5f5f5"/>
            <rect x="85.01" y="197.4" width="7.44" height="3.49" fill="#f5f5f5"/>
          </g>
          <g>
            <rect x="55.33" y="206.04" width="7.44" height="3.49" fill="#f5f5f5"/>
            <rect x="70.17" y="206.04" width="7.44" height="3.49" fill="#f5f5f5"/>
            <rect x="85.01" y="206.04" width="7.44" height="3.49" fill="#f5f5f5"/>
          </g>
          <g>
            <rect x="55.33" y="214.67" width="7.44" height="3.49" fill="#f5f5f5"/>
            <rect x="70.17" y="214.67" width="7.44" height="3.49" fill="#f5f5f5"/>
            <rect x="85.01" y="214.67" width="7.44" height="3.49" fill="#f5f5f5"/>
          </g>
          <g>
            <rect x="55.33" y="223.31" width="7.44" height="3.49" fill="#f5f5f5"/>
            <rect x="70.17" y="223.31" width="7.44" height="3.49" fill="#f5f5f5"/>
            <rect x="85.01" y="223.31" width="7.44" height="3.49" fill="#f5f5f5"/>
          </g>
          <g>
            <rect x="55.33" y="231.94" width="7.44" height="3.49" fill="#f5f5f5"/>
            <rect x="70.17" y="231.94" width="7.44" height="3.49" fill="#f5f5f5"/>
            <rect x="85.01" y="231.94" width="7.44" height="3.49" fill="#f5f5f5"/>
          </g>
          <g>
            <rect x="55.33" y="240.57" width="7.44" height="3.49" fill="#f5f5f5"/>
            <rect x="70.17" y="240.57" width="7.44" height="3.49" fill="#f5f5f5"/>
            <rect x="85.01" y="240.57" width="7.44" height="3.49" fill="#f5f5f5"/>
          </g>
          <g>
            <rect x="55.33" y="249.21" width="7.44" height="3.49" fill="#f5f5f5"/>
            <rect x="70.17" y="249.21" width="7.44" height="3.49" fill="#f5f5f5"/>
            <rect x="85.01" y="249.21" width="7.44" height="3.49" fill="#f5f5f5"/>
          </g>
          <g>
            <rect x="55.33" y="257.84" width="7.44" height="3.49" fill="#f5f5f5"/>
            <rect x="70.17" y="257.84" width="7.44" height="3.49" fill="#f5f5f5"/>
            <rect x="85.01" y="257.84" width="7.44" height="3.49" fill="#f5f5f5"/>
          </g>
        </g>
      </g>
      <polygon points="202.65 154.92 184.09 154.92 193.37 138.85 202.65 122.77 211.93 138.85 221.21 154.92 202.65 154.92" fill="#e6e6e6"/>
      <rect x="201.67" y="97.96" width="1.97" height="36.64" fill="#e6e6e6"/>
      <g>
        <rect x="277.65" y="83.3" width="1.97" height="36.64" fill="#e6e6e6"/>
        <rect x="235.62" y="127.86" width="53.64" height="157" fill="#e6e6e6"/>
        <g>
          <g>
            <rect x="243.88" y="137.69" width="7.44" height="3.49" fill="#f5f5f5"/>
            <rect x="258.72" y="137.69" width="7.44" height="3.49" fill="#f5f5f5"/>
            <rect x="273.56" y="137.69" width="7.44" height="3.49" fill="#f5f5f5"/>
          </g>
          <g>
            <rect x="243.88" y="146.32" width="7.44" height="3.49" fill="#f5f5f5"/>
            <rect x="258.72" y="146.32" width="7.44" height="3.49" fill="#f5f5f5"/>
            <rect x="273.56" y="146.32" width="7.44" height="3.49" fill="#f5f5f5"/>
          </g>
          <g>
            <rect x="243.88" y="154.96" width="7.44" height="3.49" fill="#f5f5f5"/>
            <rect x="258.72" y="154.96" width="7.44" height="3.49" fill="#f5f5f5"/>
            <rect x="273.56" y="154.96" width="7.44" height="3.49" fill="#f5f5f5"/>
          </g>
          <g>
            <rect x="243.88" y="163.59" width="7.44" height="3.49" fill="#f5f5f5"/>
            <rect x="258.72" y="163.59" width="7.44" height="3.49" fill="#f5f5f5"/>
            <rect x="273.56" y="163.59" width="7.44" height="3.49" fill="#f5f5f5"/>
          </g>
          <g>
            <rect x="243.88" y="172.22" width="7.44" height="3.49" fill="#f5f5f5"/>
            <rect x="258.72" y="172.22" width="7.44" height="3.49" fill="#f5f5f5"/>
            <rect x="273.56" y="172.22" width="7.44" height="3.49" fill="#f5f5f5"/>
          </g>
          <g>
            <rect x="243.88" y="180.86" width="7.44" height="3.49" fill="#f5f5f5"/>
            <rect x="258.72" y="180.86" width="7.44" height="3.49" fill="#f5f5f5"/>
            <rect x="273.56" y="180.86" width="7.44" height="3.49" fill="#f5f5f5"/>
          </g>
          <g>
            <rect x="243.88" y="189.49" width="7.44" height="3.49" fill="#f5f5f5"/>
            <rect x="258.72" y="189.49" width="7.44" height="3.49" fill="#f5f5f5"/>
            <rect x="273.56" y="189.49" width="7.44" height="3.49" fill="#f5f5f5"/>
          </g>
          <g>
            <rect x="243.88" y="198.13" width="7.44" height="3.49" fill="#f5f5f5"/>
            <rect x="258.72" y="198.13" width="7.44" height="3.49" fill="#f5f5f5"/>
            <rect x="273.56" y="198.13" width="7.44" height="3.49" fill="#f5f5f5"/>
          </g>
          <g>
            <rect x="243.88" y="206.76" width="7.44" height="3.49" fill="#f5f5f5"/>
            <rect x="258.72" y="206.76" width="7.44" height="3.49" fill="#f5f5f5"/>
            <rect x="273.56" y="206.76" width="7.44" height="3.49" fill="#f5f5f5"/>
          </g>
          <g>
            <rect x="243.88" y="215.39" width="7.44" height="3.49" fill="#f5f5f5"/>
            <rect x="258.72" y="215.39" width="7.44" height="3.49" fill="#f5f5f5"/>
            <rect x="273.56" y="215.39" width="7.44" height="3.49" fill="#f5f5f5"/>
          </g>
          <g>
            <rect x="243.88" y="224.03" width="7.44" height="3.49" fill="#f5f5f5"/>
            <rect x="258.72" y="224.03" width="7.44" height="3.49" fill="#f5f5f5"/>
            <rect x="273.56" y="224.03" width="7.44" height="3.49" fill="#f5f5f5"/>
          </g>
          <g>
            <rect x="243.88" y="232.66" width="7.44" height="3.49" fill="#f5f5f5"/>
            <rect x="258.72" y="232.66" width="7.44" height="3.49" fill="#f5f5f5"/>
            <rect x="273.56" y="232.66" width="7.44" height="3.49" fill="#f5f5f5"/>
          </g>
        </g>
        <g>
          <g>
            <rect x="243.88" y="240.4" width="7.44" height="3.49" fill="#f5f5f5"/>
            <rect x="258.72" y="240.4" width="7.44" height="3.49" fill="#f5f5f5"/>
            <rect x="273.56" y="240.4" width="7.44" height="3.49" fill="#f5f5f5"/>
          </g>
          <g>
            <rect x="243.88" y="249.03" width="7.44" height="3.49" fill="#f5f5f5"/>
            <rect x="258.72" y="249.03" width="7.44" height="3.49" fill="#f5f5f5"/>
            <rect x="273.56" y="249.03" width="7.44" height="3.49" fill="#f5f5f5"/>
          </g>
        </g>
        <polygon points="283.71 143.67 239.43 143.67 239.43 96.21 283.71 116.28 283.71 143.67" fill="#e6e6e6"/>
      </g>
      <g>
        <rect x="303.71" y="162.87" width="51.39" height="122" fill="#e6e6e6"/>
        <rect x="307.48" y="158.69" width="19.39" height="16.55" fill="#e6e6e6"/>
        <rect x="309.23" y="157.48" width="5.2" height="14.86" fill="#e6e6e6"/>
        <rect x="320.05" y="157.48" width="5.2" height="14.86" fill="#e6e6e6"/>
        <rect x="340.27" y="158.75" width="11.54" height="11.54" fill="#e6e6e6"/>
        <g>
          <g>
            <rect x="311.25" y="173.25" width="7.44" height="3.49" fill="#f5f5f5"/>
            <rect x="326.09" y="173.25" width="7.44" height="3.49" fill="#f5f5f5"/>
            <rect x="340.93" y="173.25" width="7.44" height="3.49" fill="#f5f5f5"/>
          </g>
          <g>
            <rect x="311.25" y="181.88" width="7.44" height="3.49" fill="#f5f5f5"/>
            <rect x="326.09" y="181.88" width="7.44" height="3.49" fill="#f5f5f5"/>
            <rect x="340.93" y="181.88" width="7.44" height="3.49" fill="#f5f5f5"/>
          </g>
          <g>
            <rect x="311.25" y="190.51" width="7.44" height="3.49" fill="#f5f5f5"/>
            <rect x="326.09" y="190.51" width="7.44" height="3.49" fill="#f5f5f5"/>
            <rect x="340.93" y="190.51" width="7.44" height="3.49" fill="#f5f5f5"/>
          </g>
          <g>
            <rect x="311.25" y="199.15" width="7.44" height="3.49" fill="#f5f5f5"/>
            <rect x="326.09" y="199.15" width="7.44" height="3.49" fill="#f5f5f5"/>
            <rect x="340.93" y="199.15" width="7.44" height="3.49" fill="#f5f5f5"/>
          </g>
          <g>
            <rect x="311.25" y="207.78" width="7.44" height="3.49" fill="#f5f5f5"/>
            <rect x="326.09" y="207.78" width="7.44" height="3.49" fill="#f5f5f5"/>
            <rect x="340.93" y="207.78" width="7.44" height="3.49" fill="#f5f5f5"/>
          </g>
          <g>
            <rect x="311.25" y="216.42" width="7.44" height="3.49" fill="#f5f5f5"/>
            <rect x="326.09" y="216.42" width="7.44" height="3.49" fill="#f5f5f5"/>
            <rect x="340.93" y="216.42" width="7.44" height="3.49" fill="#f5f5f5"/>
          </g>
          <g>
            <rect x="311.25" y="225.05" width="7.44" height="3.49" fill="#f5f5f5"/>
            <rect x="326.09" y="225.05" width="7.44" height="3.49" fill="#f5f5f5"/>
            <rect x="340.93" y="225.05" width="7.44" height="3.49" fill="#f5f5f5"/>
          </g>
          <g>
            <rect x="311.25" y="233.68" width="7.44" height="3.49" fill="#f5f5f5"/>
            <rect x="326.09" y="233.68" width="7.44" height="3.49" fill="#f5f5f5"/>
            <rect x="340.93" y="233.68" width="7.44" height="3.49" fill="#f5f5f5"/>
          </g>
          <g>
            <rect x="311.25" y="242.32" width="7.44" height="3.49" fill="#f5f5f5"/>
            <rect x="326.09" y="242.32" width="7.44" height="3.49" fill="#f5f5f5"/>
            <rect x="340.93" y="242.32" width="7.44" height="3.49" fill="#f5f5f5"/>
          </g>
          <g>
            <rect x="311.25" y="250.95" width="7.44" height="3.49" fill="#f5f5f5"/>
            <rect x="326.09" y="250.95" width="7.44" height="3.49" fill="#f5f5f5"/>
            <rect x="340.93" y="250.95" width="7.44" height="3.49" fill="#f5f5f5"/>
          </g>
          <g>
            <rect x="311.25" y="259.59" width="7.44" height="3.49" fill="#f5f5f5"/>
            <rect x="326.09" y="259.59" width="7.44" height="3.49" fill="#f5f5f5"/>
            <rect x="340.93" y="259.59" width="7.44" height="3.49" fill="#f5f5f5"/>
          </g>
          <g>
            <rect x="311.25" y="268.22" width="7.44" height="3.49" fill="#f5f5f5"/>
            <rect x="326.09" y="268.22" width="7.44" height="3.49" fill="#f5f5f5"/>
            <rect x="340.93" y="268.22" width="7.44" height="3.49" fill="#f5f5f5"/>
          </g>
        </g>
      </g>
      <g>
        <rect x="104.76" y="162.87" width="51.39" height="122" fill="#e6e6e6"/>
        <rect x="108.54" y="158.69" width="19.39" height="16.55" fill="#e6e6e6"/>
        <rect x="110.28" y="157.48" width="5.2" height="14.86" fill="#e6e6e6"/>
        <rect x="121.1" y="157.48" width="5.2" height="14.86" fill="#e6e6e6"/>
        <rect x="141.32" y="158.75" width="11.54" height="11.54" fill="#e6e6e6"/>
        <g>
          <g>
            <rect x="112.31" y="173.25" width="7.44" height="3.49" fill="#f5f5f5"/>
            <rect x="127.15" y="173.25" width="7.44" height="3.49" fill="#f5f5f5"/>
            <rect x="141.99" y="173.25" width="7.44" height="3.49" fill="#f5f5f5"/>
          </g>
          <g>
            <rect x="112.31" y="181.88" width="7.44" height="3.49" fill="#f5f5f5"/>
            <rect x="127.15" y="181.88" width="7.44" height="3.49" fill="#f5f5f5"/>
            <rect x="141.99" y="181.88" width="7.44" height="3.49" fill="#f5f5f5"/>
          </g>
          <g>
            <rect x="112.31" y="190.51" width="7.44" height="3.49" fill="#f5f5f5"/>
            <rect x="127.15" y="190.51" width="7.44" height="3.49" fill="#f5f5f5"/>
            <rect x="141.99" y="190.51" width="7.44" height="3.49" fill="#f5f5f5"/>
          </g>
          <g>
            <rect x="112.31" y="199.15" width="7.44" height="3.49" fill="#f5f5f5"/>
            <rect x="127.15" y="199.15" width="7.44" height="3.49" fill="#f5f5f5"/>
            <rect x="141.99" y="199.15" width="7.44" height="3.49" fill="#f5f5f5"/>
          </g>
          <g>
            <rect x="112.31" y="207.78" width="7.44" height="3.49" fill="#f5f5f5"/>
            <rect x="127.15" y="207.78" width="7.44" height="3.49" fill="#f5f5f5"/>
            <rect x="141.99" y="207.78" width="7.44" height="3.49" fill="#f5f5f5"/>
          </g>
          <g>
            <rect x="112.31" y="216.42" width="7.44" height="3.49" fill="#f5f5f5"/>
            <rect x="127.15" y="216.42" width="7.44" height="3.49" fill="#f5f5f5"/>
            <rect x="141.99" y="216.42" width="7.44" height="3.49" fill="#f5f5f5"/>
          </g>
          <g>
            <rect x="112.31" y="225.05" width="7.44" height="3.49" fill="#f5f5f5"/>
            <rect x="127.15" y="225.05" width="7.44" height="3.49" fill="#f5f5f5"/>
            <rect x="141.99" y="225.05" width="7.44" height="3.49" fill="#f5f5f5"/>
          </g>
          <g>
            <rect x="112.31" y="233.68" width="7.44" height="3.49" fill="#f5f5f5"/>
            <rect x="127.15" y="233.68" width="7.44" height="3.49" fill="#f5f5f5"/>
            <rect x="141.99" y="233.68" width="7.44" height="3.49" fill="#f5f5f5"/>
          </g>
          <g>
            <rect x="112.31" y="242.32" width="7.44" height="3.49" fill="#f5f5f5"/>
            <rect x="127.15" y="242.32" width="7.44" height="3.49" fill="#f5f5f5"/>
            <rect x="141.99" y="242.32" width="7.44" height="3.49" fill="#f5f5f5"/>
          </g>
          <g>
            <rect x="112.31" y="250.95" width="7.44" height="3.49" fill="#f5f5f5"/>
            <rect x="127.15" y="250.95" width="7.44" height="3.49" fill="#f5f5f5"/>
            <rect x="141.99" y="250.95" width="7.44" height="3.49" fill="#f5f5f5"/>
          </g>
          <g>
            <rect x="112.31" y="259.59" width="7.44" height="3.49" fill="#f5f5f5"/>
            <rect x="127.15" y="259.59" width="7.44" height="3.49" fill="#f5f5f5"/>
            <rect x="141.99" y="259.59" width="7.44" height="3.49" fill="#f5f5f5"/>
          </g>
          <g>
            <rect x="112.31" y="268.22" width="7.44" height="3.49" fill="#f5f5f5"/>
            <rect x="127.15" y="268.22" width="7.44" height="3.49" fill="#f5f5f5"/>
            <rect x="141.99" y="268.22" width="7.44" height="3.49" fill="#f5f5f5"/>
          </g>
        </g>
      </g>
      <rect x="370.36" y="146.91" width="79.98" height="137.95" fill="#e6e6e6"/>
      <g>
        <g>
          <g>
            <rect x="378.51" y="158.55" width="7.44" height="3.49" fill="#f5f5f5"/>
            <rect x="393.35" y="158.55" width="7.44" height="3.49" fill="#f5f5f5"/>
            <rect x="408.19" y="158.55" width="7.44" height="3.49" fill="#f5f5f5"/>
          </g>
          <g>
            <rect x="378.51" y="167.18" width="7.44" height="3.49" fill="#f5f5f5"/>
            <rect x="393.35" y="167.18" width="7.44" height="3.49" fill="#f5f5f5"/>
            <rect x="408.19" y="167.18" width="7.44" height="3.49" fill="#f5f5f5"/>
          </g>
          <g>
            <rect x="378.51" y="175.82" width="7.44" height="3.49" fill="#f5f5f5"/>
            <rect x="393.35" y="175.82" width="7.44" height="3.49" fill="#f5f5f5"/>
            <rect x="408.19" y="175.82" width="7.44" height="3.49" fill="#f5f5f5"/>
          </g>
          <g>
            <rect x="378.51" y="184.45" width="7.44" height="3.49" fill="#f5f5f5"/>
            <rect x="393.35" y="184.45" width="7.44" height="3.49" fill="#f5f5f5"/>
            <rect x="408.19" y="184.45" width="7.44" height="3.49" fill="#f5f5f5"/>
          </g>
          <g>
            <rect x="378.51" y="193.09" width="7.44" height="3.49" fill="#f5f5f5"/>
            <rect x="393.35" y="193.09" width="7.44" height="3.49" fill="#f5f5f5"/>
            <rect x="408.19" y="193.09" width="7.44" height="3.49" fill="#f5f5f5"/>
          </g>
          <g>
            <rect x="378.51" y="201.72" width="7.44" height="3.49" fill="#f5f5f5"/>
            <rect x="393.35" y="201.72" width="7.44" height="3.49" fill="#f5f5f5"/>
            <rect x="408.19" y="201.72" width="7.44" height="3.49" fill="#f5f5f5"/>
          </g>
          <g>
            <rect x="378.51" y="210.35" width="7.44" height="3.49" fill="#f5f5f5"/>
            <rect x="393.35" y="210.35" width="7.44" height="3.49" fill="#f5f5f5"/>
            <rect x="408.19" y="210.35" width="7.44" height="3.49" fill="#f5f5f5"/>
          </g>
          <g>
            <rect x="378.51" y="218.99" width="7.44" height="3.49" fill="#f5f5f5"/>
            <rect x="393.35" y="218.99" width="7.44" height="3.49" fill="#f5f5f5"/>
            <rect x="408.19" y="218.99" width="7.44" height="3.49" fill="#f5f5f5"/>
          </g>
          <g>
            <rect x="378.51" y="227.62" width="7.44" height="3.49" fill="#f5f5f5"/>
            <rect x="393.35" y="227.62" width="7.44" height="3.49" fill="#f5f5f5"/>
            <rect x="408.19" y="227.62" width="7.44" height="3.49" fill="#f5f5f5"/>
          </g>
          <g>
            <rect x="378.51" y="236.26" width="7.44" height="3.49" fill="#f5f5f5"/>
            <rect x="393.35" y="236.26" width="7.44" height="3.49" fill="#f5f5f5"/>
            <rect x="408.19" y="236.26" width="7.44" height="3.49" fill="#f5f5f5"/>
          </g>
          <g>
            <rect x="378.51" y="244.89" width="7.44" height="3.49" fill="#f5f5f5"/>
            <rect x="393.35" y="244.89" width="7.44" height="3.49" fill="#f5f5f5"/>
            <rect x="408.19" y="244.89" width="7.44" height="3.49" fill="#f5f5f5"/>
          </g>
          <g>
            <rect x="378.51" y="253.52" width="7.44" height="3.49" fill="#f5f5f5"/>
            <rect x="393.35" y="253.52" width="7.44" height="3.49" fill="#f5f5f5"/>
            <rect x="408.19" y="253.52" width="7.44" height="3.49" fill="#f5f5f5"/>
          </g>
        </g>
        <g>
          <g>
            <rect x="422.35" y="158.55" width="7.44" height="3.49" fill="#f5f5f5"/>
            <rect x="437.19" y="158.55" width="7.44" height="3.49" fill="#f5f5f5"/>
          </g>
          <g>
            <rect x="422.35" y="167.18" width="7.44" height="3.49" fill="#f5f5f5"/>
            <rect x="437.19" y="167.18" width="7.44" height="3.49" fill="#f5f5f5"/>
          </g>
          <g>
            <rect x="422.35" y="175.82" width="7.44" height="3.49" fill="#f5f5f5"/>
            <rect x="437.19" y="175.82" width="7.44" height="3.49" fill="#f5f5f5"/>
          </g>
          <g>
            <rect x="422.35" y="184.45" width="7.44" height="3.49" fill="#f5f5f5"/>
            <rect x="437.19" y="184.45" width="7.44" height="3.49" fill="#f5f5f5"/>
          </g>
          <g>
            <rect x="422.35" y="193.09" width="7.44" height="3.49" fill="#f5f5f5"/>
            <rect x="437.19" y="193.09" width="7.44" height="3.49" fill="#f5f5f5"/>
          </g>
          <g>
            <rect x="422.35" y="201.72" width="7.44" height="3.49" fill="#f5f5f5"/>
            <rect x="437.19" y="201.72" width="7.44" height="3.49" fill="#f5f5f5"/>
          </g>
          <g>
            <rect x="422.35" y="210.35" width="7.44" height="3.49" fill="#f5f5f5"/>
            <rect x="437.19" y="210.35" width="7.44" height="3.49" fill="#f5f5f5"/>
          </g>
          <g>
            <rect x="422.35" y="218.99" width="7.44" height="3.49" fill="#f5f5f5"/>
            <rect x="437.19" y="218.99" width="7.44" height="3.49" fill="#f5f5f5"/>
          </g>
          <g>
            <rect x="422.35" y="227.62" width="7.44" height="3.49" fill="#f5f5f5"/>
            <rect x="437.19" y="227.62" width="7.44" height="3.49" fill="#f5f5f5"/>
          </g>
          <g>
            <rect x="422.35" y="236.26" width="7.44" height="3.49" fill="#f5f5f5"/>
            <rect x="437.19" y="236.26" width="7.44" height="3.49" fill="#f5f5f5"/>
          </g>
          <g>
            <rect x="422.35" y="244.89" width="7.44" height="3.49" fill="#f5f5f5"/>
            <rect x="437.19" y="244.89" width="7.44" height="3.49" fill="#f5f5f5"/>
          </g>
          <g>
            <rect x="422.35" y="253.52" width="7.44" height="3.49" fill="#f5f5f5"/>
            <rect x="437.19" y="253.52" width="7.44" height="3.49" fill="#f5f5f5"/>
          </g>
        </g>
      </g>
    </g>
    <g>
      <path d="m440.91,328.38s1.72-11,5.09-12.38-.62,8.5-.62,8.5c0,0,5.5-5.25,8.75-4.25s-8.25,8.12-8.25,8.12h-4.97Z" fill="#e6e6e6"/>
      <path d="m322.65,343.97s3.7-15.18,13.66-18.14c9.96-2.96,17.62,3.43,17.62,3.43,0,0,2.42-6.08,8.1-6.71,5.69-.62,10.59,3.59,10.59,3.59,0,0,4.6-18.41,20.22-19.66,15.63-1.25,21.45,16.07,21.45,16.07,0,0,3.06-3.97,10.57-2.38,7.51,1.6,10.08,9.24,10.08,9.24,0,0,9.69-5.59,18.73-1.08,9.04,4.51,11.03,15.63,11.03,15.63h-142.05Z" fill="#f0f0f0"/>
    </g>
    <ellipse cx="247.49" cy="367.35" rx="212" ry="6.07" fill="#f0f0f0"/>
    <g>
      <path d="m94.11,356.77c1.88,1.09,6.65,4.57,10.13,7.14h11.82c-1.74-3.03-3.83-6.41-6.21-9.69,0,0,0,0,0,0-6.4-8.81-14.77-16.82-23.22-14.89-5.4,1.24-7.16,8.91,7.48,17.44Z" fill="#407bff"/>
      <path d="m94.11,356.77c1.88,1.09,6.65,4.57,10.13,7.14h11.82c-1.74-3.03-3.83-6.41-6.21-9.69,0,0,0,0,0,0-6.4-8.81-14.77-16.82-23.22-14.89-5.4,1.24-7.16,8.91,7.48,17.44Z" fill="#ad2446"/>
      <path d="m103.99,354.22s0,0,0,0c1.66,3.3,3.13,6.57,4.42,9.69h12.38c-1.48-18.62-6.49-46.13-23.12-49.84-7.83-1.75-14.91,7.18-1.08,27.45,2.78,4.07,5.24,8.41,7.4,12.7Z" fill="#eaba36"/>
    </g>
    <g>
      <path d="m423.26,356.77c-1.88,1.09-6.65,4.57-10.13,7.14h-11.82c1.74-3.03,3.83-6.41,6.21-9.69,0,0,0,0,0,0,6.4-8.81,14.77-16.82,23.22-14.89,5.4,1.24,7.16,8.91-7.48,17.44Z" fill="#ad2446"/>
      <path d="m413.38,354.22s0,0,0,0c-1.66,3.3-3.13,6.57-4.42,9.69h-12.38c1.48-18.62,6.49-46.13,23.12-49.84,7.83-1.75,14.91,7.18,1.08,27.45-2.78,4.07-5.24,8.41-7.4,12.7Z" fill="#eaba36"/>
    </g>
    <g>
      <path d="m162.02,303.66s23.62-14.01,12.59-22.49c-7.43-5.71-16.3,11.49-12.59,22.49Z" fill="#5b9cd5"/>
      <path d="m153.34,301.57s-29.99,1.47-24.49-10.22c3.94-8.37,21.1-.88,24.49,10.22Z" fill="#ad2446"/>
      <path d="m154.2,292.08s5.64-29.2-7.91-26.23c-9.64,2.11-2.8,21.5,7.91,26.23Z" fill="#eaba36"/>
      <path d="m173.18,338.97c.1.06.24.07.35,0,.16-.1.22-.3.12-.47-6.32-10.73-13.01-28.62-17.5-41.73-4.87-14.22-8.29-26.05-8.32-26.16-.05-.18-.24-.28-.42-.23s-.28.24-.23.42c.03.12,3.46,11.96,8.33,26.2,4.5,13.15,11.21,31.08,17.56,41.86.03.05.07.09.12.12Z" fill="#263238"/>
      <path d="m163.57,318.59c.14.08.32.06.43-.07.12-.14.11-.36-.03-.48-.08-.07-7.73-6.77-14.38-8.84-.18-.06-.37.04-.43.22s.04.37.22.43c6.51,2.03,14.06,8.63,14.13,8.7.02.01.03.03.05.04Z" fill="#263238"/>
      <path d="m151.12,311.43c1.42-1,1.74-2.95.72-4.37-.85-1.17-2.35-1.6-3.65-1.15-.27.09-.53.22-.77.4-1.42,1-1.74,2.95-.72,4.37.08.11.17.22.27.32,1.07,1.14,2.85,1.35,4.15.43Z" fill="#407bff"/>
      <g fill="none" opacity=".5">
        <path d="m151.12,311.43c1.42-1,1.74-2.95.72-4.37-.85-1.17-2.35-1.6-3.65-1.15-.27.09-.53.22-.77.4-1.42,1-1.74,2.95-.72,4.37.08.11.17.22.27.32,1.07,1.14,2.85,1.35,4.15.43Z" fill="#ad2446"/>
      </g>
      <path d="m166.41,325.35c.06.04.13.05.21.05.19-.02.32-.19.3-.38-.58-5.18,6.8-15.36,6.87-15.47.11-.15.08-.36-.07-.47-.15-.11-.36-.08-.47.07-.31.43-7.61,10.5-7,15.94.01.11.08.2.16.25Z" fill="#263238"/>
      <path d="m174.84,311.55c-1.72.29-3.37-.85-3.68-2.56-.26-1.41.49-2.77,1.73-3.36.26-.12.53-.21.83-.26,1.72-.29,3.37.85,3.68,2.56.03.14.04.28.05.41.07,1.55-1.02,2.94-2.6,3.21Z" fill="#407bff"/>
      <g fill="none" opacity=".5">
        <path d="m174.84,311.55c-1.72.29-3.37-.85-3.68-2.56-.26-1.41.49-2.77,1.73-3.36.26-.12.53-.21.83-.26,1.72-.29,3.37.85,3.68,2.56.03.14.04.28.05.41.07,1.55-1.02,2.94-2.6,3.21Z" fill="#5b9cd5"/>
      </g>
      <path d="m159.94,309.22s.06.03.1.04c.18.04.36-.08.41-.26,2.06-9.33,11.05-20.17,11.14-20.28.12-.14.1-.36-.04-.48-.14-.12-.36-.1-.48.04-.02.03-2.32,2.79-4.84,6.68-2.33,3.6-5.34,8.93-6.44,13.89-.03.15.04.29.16.37Z" fill="#263238"/>
      <path d="m159.06,306.82c.12.07.28.06.4-.04.14-.12.16-.34.03-.48-2.63-3.02-7.18-6.17-13.5-9.36-4.7-2.37-8.68-3.88-8.72-3.9-.18-.07-.37.02-.44.2-.07.18.02.37.2.44.16.06,15.8,6.02,21.95,13.07.02.03.05.05.08.07Z" fill="#263238"/>
    </g>
    <g>
      <path d="m320.48,298.62s-17.64-21.05-4.43-25.39c8.9-2.93,11.57,16.24,4.43,25.39Z" fill="#5b9cd5"/>
      <path d="m329.37,299.53s27.81,11.33,26.49-1.52c-.94-9.21-19.62-7.83-26.49,1.52Z" fill="#ad2446"/>
      <path d="m331.7,290.29s4.36-29.42,16.16-22.13c8.4,5.19-4.49,21.21-16.16,22.13Z" fill="#eaba36"/>
      <path d="m298.25,328.23c-.12.02-.24-.02-.33-.11-.12-.14-.1-.36.04-.48,9.52-8.03,21.76-22.69,30.35-33.57,9.31-11.8,16.46-21.82,16.53-21.92.11-.15.32-.19.47-.08.15.11.19.32.08.47-.07.1-7.23,10.14-16.55,21.95-8.61,10.91-20.88,25.6-30.44,33.67-.05.04-.1.06-.15.07Z" fill="#263238"/>
      <path d="m314.07,312.19c-.16.03-.32-.05-.38-.21-.07-.17.01-.37.19-.44.09-.04,9.53-3.82,16.49-3.57.19,0,.33.16.33.35,0,.19-.16.33-.35.33-6.82-.25-16.12,3.48-16.22,3.52-.02,0-.04.01-.06.02Z" fill="#263238"/>
      <path d="m328.19,309.56c-1.01-1.41-.67-3.36.77-4.36,1.19-.83,2.75-.73,3.83.13.22.18.42.39.59.63,1.01,1.41.67,3.36-.77,4.36-.12.08-.24.15-.36.22-1.39.72-3.14.33-4.06-.97Z" fill="#407bff"/>
      <g fill="none" opacity=".5">
        <path d="m328.19,309.56c-1.01-1.41-.67-3.36.77-4.36,1.19-.83,2.75-.73,3.83.13.22.18.42.39.59.63,1.01,1.41.67,3.36-.77,4.36-.12.08-.24.15-.36.22-1.39.72-3.14.33-4.06-.97Z" fill="#ad2446"/>
      </g>
      <path d="m309.16,317.63c-.07.01-.14,0-.21-.03-.17-.08-.24-.28-.16-.45,2.27-4.69-1.32-16.75-1.36-16.87-.05-.18.05-.37.23-.42.18-.05.37.05.42.23.15.51,3.7,12.43,1.32,17.36-.05.1-.14.17-.24.19Z" fill="#263238"/>
      <path d="m305.78,301.82c1.53.85,3.46.31,4.32-1.19.71-1.25.46-2.78-.52-3.74-.2-.2-.43-.37-.69-.52-1.53-.85-3.46-.31-4.32,1.19-.07.12-.13.25-.18.37-.58,1.43-.01,3.11,1.39,3.89Z" fill="#407bff"/>
      <g fill="none" opacity=".5">
        <path d="m305.78,301.82c1.53.85,3.46.31,4.32-1.19.71-1.25.46-2.78-.52-3.74-.2-.2-.43-.37-.69-.52-1.53-.85-3.46-.31-4.32,1.19-.07.12-.13.25-.18.37-.58,1.43-.01,3.11,1.39,3.89Z" fill="#5b9cd5"/>
      </g>
      <path d="m320.6,304.55s-.07,0-.11,0c-.19-.02-.32-.19-.3-.38,1.15-9.49-3.73-22.69-3.78-22.83-.07-.18.02-.37.2-.44.18-.07.37.02.44.2.01.03,1.26,3.4,2.35,7.9,1.01,4.17,2.08,10.19,1.47,15.24-.02.15-.13.26-.27.29Z" fill="#263238"/>
      <path d="m322.23,302.58c-.14.03-.29-.03-.36-.17-.09-.16-.04-.37.13-.46,3.48-1.97,8.81-3.44,15.84-4.35,5.22-.68,9.48-.78,9.52-.78.19,0,.34.14.35.33,0,.19-.14.34-.33.35-.17,0-16.9.44-25.04,5.05-.03.02-.07.03-.1.04Z" fill="#263238"/>
    </g>
    <path d="m137.35,325.4s1.01-11.82-3.73-12.53c-4.74-.7-.36,10.87-.36,10.87,0,0-4.93-6.18-8.23-3.42-3.3,2.76,8.21,7.58,8.21,7.58l4.11-2.5Z" fill="#eaba36"/>
    <g>
      <g>
        <path d="m327.14,347.76s15.01-14.5,17.51-14.5,21.82.5,30.91,0c9.09-.5,19.09,8.5,27.09,14.5s29.5,11.5,29.5,11.5l3.5,5.5h-108.51v-17Z" fill="#263238"/>
        <path d="m435.66,364.76h-108.51v-17s15.01-14.5,17.51-14.5c.52,0,1.75.02,3.46.05,6.58.11,20.24.35,27.45-.05,9.09-.5,19.09,8.5,27.09,14.5s29.5,11.5,29.5,11.5l3,4.71.5.79Z" fill="#fff" opacity=".4"/>
        <path d="m435.66,364.76h-108.51v-17s15.01-14.5,17.51-14.5c.52,0,1.75.02,3.46.05.6,9.27,9.22,16.2,18.65,14.49.08-.01.15-.03.23-.04,3.69-.67,16.25,1.25,20.25,7.75s23.1,5.77,23.1,5.77c0,0,17.46.8,24.81,2.69l.5.79Z" opacity=".2"/>
      </g>
      <g>
        <path d="m195.89,348.43s-17.33-24.33-21.67-27c-4.33-2.67-20.67,1.67-31.67,1.67s-17.33,15.54-24,18.33c-6.67,2.8-29.33,23.33-29.33,23.33h112.67l-6-16.33Z" fill="#fff" opacity=".5"/>
        <path d="m195.89,348.43s-17.33-24.33-21.67-27c-4.33-2.67-20.67,1.67-31.67,1.67s-17.33,15.54-24,18.33c-6.67,2.8-29.33,23.33-29.33,23.33h112.67l-6-16.33Z" fill="#263238"/>
        <path d="m201.89,364.76h-112.67s.73-.66,1.96-1.76c5.64-5.02,21.9-19.28,27.38-21.57,6.66-2.8,13-18.34,24-18.34,10.21,0,25.02-3.73,30.55-2.12.43.11.8.27,1.11.46,4.34,2.66,21.67,27,21.67,27l6,16.33Z" fill="#fff" opacity=".4"/>
        <path d="m201.89,364.76h-112.67s.73-.66,1.96-1.76c5.72-.75,18.6-2.62,22.08-4.74,4.51-2.75,26.24-5.5,37.24-3.75s10.5-15.25,16-19.75c3.36-2.75,5.48-9.2,6.61-13.79.43.11.8.27,1.11.46,4.34,2.66,21.67,27,21.67,27l6,16.33Z" opacity=".2"/>
      </g>
    </g>
    <g>
      <circle cx="211.83" cy="17.53" r="17.17" transform="translate(145.75 219.55) rotate(-76.62)" fill="#407bff"/>
      <circle cx="211.83" cy="17.53" r="17.17" transform="translate(145.75 219.55) rotate(-76.62)" fill="#aad4f2"/>
      <path d="m211.83,35.05c-9.66,0-17.53-7.86-17.53-17.53S202.16,0,211.83,0s17.53,7.86,17.53,17.53-7.86,17.53-17.53,17.53Zm0-34.35c-9.27,0-16.82,7.54-16.82,16.82s7.54,16.82,16.82,16.82,16.82-7.55,16.82-16.82S221.1.71,211.83.71Z" fill="#5b9cd5"/>
      <path d="m211.97,7.98c3.72,0,6.25,2.19,6.25,5.8,0,3.91-2.78,5.63-6.5,5.63l-.11,2.19h-2.75l-.14-4.36h.92c3.14,0,5.55-.55,5.55-3.47,0-1.94-1.19-3.14-3.19-3.14s-3.22,1.11-3.22,3.05h-2.97c-.03-3.36,2.39-5.72,6.16-5.72Zm-1.78,19.76c-1.14,0-2.03-.89-2.03-2.03s.89-2.03,2.03-2.03,2,.89,2,2.03-.89,2.03-2,2.03Z" fill="#ad2446"/>
      <path d="m224.49,29.19l5.96,1.91c.31.1.58-.24.42-.52l-3.38-5.91c-.97,1.94-1.96,3.49-3,4.52Z" fill="#5b9cd5"/>
    </g>
    <path d="m329.25,335.1s-2.37-11.62,2.25-12.88,1.62,10.75,1.62,10.75c0,0,4.18-6.72,7.78-4.36,3.6,2.36-7.28,8.48-7.28,8.48l-4.37-2Z" fill="#eaba36"/>
    <g>
      <path d="m213.48,307.18s-.94-11.83-5.73-11.75c-4.79.08,1.42,10.78,1.42,10.78,0,0-5.88-5.29-8.68-2.03-2.8,3.26,9.34,6.13,9.34,6.13l3.65-3.14Z" fill="#407bff"/>
      <path d="m213.48,307.18s-.94-11.83-5.73-11.75c-4.79.08,1.42,10.78,1.42,10.78,0,0-5.88-5.29-8.68-2.03-2.8,3.26,9.34,6.13,9.34,6.13l3.65-3.14Z" fill="#eaba36"/>
    </g>
    <g>
      <path d="m174.16,364.76s13.33-40.33,20-44.2c14.62-8.48,24.76-26.57,27-27.8,10.52-5.77,48.96-4.94,63.81-2.64,14.86,2.31,27.19,35.77,35.86,36.87,8.67,1.1,25.33,21.77,26.33,23.77s0,14,0,14h-173Z" fill="#263238"/>
      <path d="m347.16,364.76h-173s13.33-40.33,20-44.2c14.62-8.48,24.76-26.57,27-27.8,10.52-5.77,48.95-4.94,63.81-2.64,6.97,1.09,13.38,9.03,19.12,17.26,5.91,8.48,11.11,17.28,15.46,19.23.43.2.85.33,1.27.38,8.67,1.1,25.34,21.77,26.34,23.77s0,14,0,14Z" fill="#fff" opacity=".5"/>
      <path d="m319.55,326.61c-3.93-.22-8.54-.31-13.05-.04-11.5.69-20.5-.02-24.17-.17-3.66-.14.36-7.57,6.93-10.52,4.36-1.96,10.68-5.56,14.83-8.5,5.91,8.48,11.11,17.28,15.46,19.23Z" opacity=".2"/>
      <path d="m339.66,364.76h-149.75c7.65-5.4,25.64-17.41,34.86-17.67,11.9-.33,23.71,10.67,37.63,5.67,13.93-5,33.45-12.04,42.89-11.75,17.76.54,30.91,12.97,34.37,23.75Z" opacity=".2"/>
    </g>
    <g>
      <path d="m240.92,67.66c4.35-6.71,6.78-8.93,17.8-6.38,11.02,2.55,12.14-5.78,10.06-7.81-2.08-2.03-1.36-2.62-.28-4.55,1.09-1.94,1.71-3.08.95-4.43-.75-1.36-1.4-2.25.33-4.35s.44-8.88.44-8.88l-12.07-11.86s-8.25-.59-11.57,3.79c-3.32,4.39-2.72,7.33-5.72,8.56-2.62,1.07-3.16,4.49-2.79,6.43.45,2.42-1,3.65-3.2,4-2.65.43-3.85,2.73-3.85,4.49,0,1.56-.8,3.1-3.05,3.26-1.82.13-4.84,2.11-4.98,5.78-.16,4.44-4.12,5.14-1.77,11.37,2.88,7.63,14.82,8.09,19.69.58Z" fill="#263238"/>
      <g>
        <path d="m300.61,73.34c-.02.33-.03.69-.11,1.2-.02.11-.04.25-.08.4-.03.14-.08.32-.13.49-.04.15-.13.4-.2.58l-.17.38c-.05.11-.11.24-.21.4-.3.53-.85,1.34-1.88,2.03-.5.34-1.15.63-1.77.8-.33.09-.62.14-.92.17-.15.02-.3.03-.45.03h-.13l-.66-.02c-.2,0-.5-.03-.62-.05l-.88-.13-.71-.14c-.92-.21-1.66-.42-2.41-.63-1.46-.44-2.82-.91-4.17-1.39-2.66-.98-5.23-2-7.76-3.08-.27-.11-.54-.22-.8-.34-.93-.4-1.87-.81-2.8-1.22-.35-.15-.69-.31-1.04-.47-1.26-.57-2.51-1.15-3.75-1.75-2.18-1.04-4.34-2.11-6.5-3.24l1.34-13.28c4.8,2.23,13.84,6.83,18.61,9.14,2.25,1.08,4.51,2.17,6.74,3.17-.36-2.33-.8-4.72-1.22-7.1l-3.31-18,5.86-1.9c2.18,5.06,4.44,12.38,6.21,17.61.9,2.6,1.73,5.24,2.47,7.98.39,1.37.74,2.76,1.03,4.27.14.76.28,1.55.37,2.47.04.48.08.97.07,1.63Z" fill="#ad2446"/>
        <path d="m272.7,72.35c-1.26-.57-2.51-1.15-3.75-1.75l-.17-8.79c.19.51,1.44,6.09,3.42,9.58.18.32.35.64.5.96Z" opacity=".2"/>
        <g>
          <rect x="272.05" y="33.94" width="30.01" height="3.18" fill="#263238"/>
          <path d="m284.6,41.29s-3.4-2.65-3.79-3.71c-.39-1.06,1.23-3.56,2.01-3.51,1.1.07-.33,2.85-.33,2.85l6.72.2s1.28.13,1.26,2.28c-1.71,1.45-3.6,2.28-5.86,1.9Z" fill="#ffc3bd"/>
          <path d="m281.47,34.48s-.73-1.61.22-2.06c.95-.45,6.47-.19,7.78.51,1.31.69.59,2.59-.42,2.83-1,.24-6.39.81-7.59-1.27Z" fill="#ffc3bd"/>
          <rect x="293.26" y="32.01" width="18.37" height="7.04" fill="#407bff"/>
          <rect x="293.26" y="32.01" width="18.37" height="7.04" fill="#eaba36"/>
          <rect x="305.04" y="30.84" width="26.99" height="9.38" fill="#ad2446"/>
          <rect x="330.63" y="29.82" width="1.87" height="11.87" fill="#407bff"/>
          <rect x="330.63" y="29.82" width="1.87" height="11.87" fill="#891536"/>
          <rect x="270.18" y="33.22" width="1.87" height="4.61" fill="#eaba36"/>
        </g>
      </g>
      <g>
        <g>
          <g>
            <polygon points="263.67 274.45 265.73 284.3 270.91 284.3 271.48 274.45 263.67 274.45" fill="#ffc3bd"/>
            <path d="m285.74,291.27c-.17-3.21-1.55-4.17-3.29-4.28-1.81-.11-8.2-2.28-8.2-2.28,0,0-1.28-2.04-2.46-2.45-1.18-.41-2.37.8-2.37.8l-3.24-.4s-.93-1.47-1.64-.18c-1.11,1.99-1.17,7.5-1.11,8.79h22.31Z" fill="#5b9cd5"/>
            <path d="m285.35,290.43c-1.35,0-2.69-.01-4.04-.02-5.9-.03-11.79-.06-17.69-.09-.23,0-.17-.34.06-.34.4,0,.8,0,1.2,0,0-.01.01-.03.02-.05,1.16-1.85.49-3.73-1.05-4.67-.18-.1.05-.4.22-.29,1.67,1.01,2.34,3.02,1.16,5,.83,0,1.66.01,2.5.01,5.89.03,11.79.06,17.68.09.23,0,.17.34-.06.34Z"/>
            <path d="m273.23,286.1c.96-1.08,2.31-1.39,3.26-.57.15.13.38-.16.22-.3-1.09-.94-2.67-.53-3.75.69-.16.18.11.35.27.17h0Z" fill="#fff"/>
            <path d="m275.04,286.68c.96-1.08,2.31-1.39,3.26-.57.15.13.38-.16.22-.3-1.09-.94-2.67-.53-3.75.69-.16.18.11.35.27.17h0Z" fill="#fff"/>
            <path d="m276.91,287.25c.96-1.08,2.31-1.39,3.26-.57.15.13.38-.17.22-.3-1.09-.94-2.67-.53-3.75.7-.16.18.11.35.27.17h0Z" fill="#fff"/>
          </g>
          <path d="m274.53,199.39c.04,26.66-2.67,77.59-2.67,77.59l-8.01.17s-13.4-45.57-8.52-77.11c-1.21-5.44-2.27-10.56-3.2-15.36-.57-2.95-1.1-5.79-1.57-8.51-1.63-9.28-2.7-17.24-3.4-24.06-.25-2.39-.44-4.63-.6-6.74-1.79-24.79,2.2-31.35,2.2-31.35l21.79.09s3.91,41.61,3.98,85.29Z" fill="#263238"/>
          <path d="m250.56,176.17c-1.63-9.28-2.7-17.24-3.4-24.06l3.1-22.19s2.52,27.16.3,46.25Z" opacity=".2"/>
          <polygon points="272.71 278.86 273.08 275.43 262.4 275.43 262.89 278.86 272.71 278.86" fill="#263238"/>
        </g>
        <g>
          <g>
            <polygon points="226.85 274.56 228.94 284.35 234.12 284.35 234.66 274.56 226.85 274.56" fill="#ffc3bd"/>
            <path d="m248.97,291.27c-.18-3.19-1.56-4.14-3.3-4.25-1.81-.11-8.2-2.26-8.2-2.26,0,0-1.29-2.03-2.46-2.44-1.18-.41-2.37.79-2.37.79l-3.24-.39s-.93-1.46-1.64-.18c-1.1,1.98-1.15,7.45-1.09,8.73h22.31Z" fill="#5b9cd5"/>
            <path d="m248.57,290.44c-1.35,0-2.69-.01-4.04-.02-5.9-.03-11.79-.06-17.69-.09-.23,0-.17-.34.06-.34.4,0,.8,0,1.2,0,0-.01.01-.03.02-.05,1.15-1.84.48-3.7-1.06-4.64-.18-.1.05-.4.22-.29,1.67,1.01,2.35,3,1.18,4.97.83,0,1.66.01,2.5.01,5.89.03,11.79.06,17.68.09.23,0,.17.34-.06.34Z"/>
            <path d="m236.45,286.14c.95-1.07,2.31-1.38,3.26-.57.15.13.38-.16.22-.29-1.1-.93-2.67-.53-3.75.69-.16.18.11.35.27.17h0Z" fill="#fff"/>
            <path d="m238.26,286.71c.95-1.07,2.31-1.38,3.26-.57.15.13.38-.16.22-.29-1.1-.93-2.67-.53-3.75.69-.16.18.11.35.27.17h0Z" fill="#fff"/>
            <path d="m240.13,287.28c.95-1.07,2.31-1.38,3.26-.57.15.13.38-.16.22-.29-1.1-.93-2.67-.53-3.75.69-.16.18.11.35.27.17h0Z" fill="#fff"/>
          </g>
          <path d="m221.77,146.32c-.21,9.86.23,22.63,1.89,39.05.48,4.77,1.06,9.86,1.77,15.27-7.83,31.34,1.32,76.61,1.32,76.61l8.03-.18s7.48-50.59,9.93-77.08c4.01-43.4,3.98-84.74,3.98-84.74l-21.79-.09s-4.6,6.52-5.12,31.15Z" fill="#263238"/>
          <polygon points="235.45 278.94 236.14 275.53 225.46 275.53 225.63 278.94 235.45 278.94" fill="#263238"/>
        </g>
        <path d="m271.36,117.11c0,3.98-29.21,5.86-46.59.13.29-1.08.7-2.96.95-4.05.13-.51.25-1.03.36-1.56.36-1.74.65-3.64.91-5.7,0-.08.02-.19.04-.28.3-2.63.51-5.49.62-8.58.04-1.13.07-2.28.08-3.47,0-1.14,0-2.31-.01-3.52,0-.81-.02-1.63-.05-2.47-.02-.69-.05-1.38-.09-2.09-.07-1.77-.18-3.59-.33-5.45-.15-1.92-.33-3.87-.56-5.88h0c-.41-3.65-.95-7.42-1.63-11.3-.98-5.47,3.02-10.56,8.54-10.95,1.49-.1,3.05-.17,4.66-.2,1.6,0,3.13-.05,4.63-.05,4.26-.02,8.11.08,12.15.57.3.04.6.08.92.12,1.51.2,3.04.45,4.54.7,6.42,1.11,9.2,5.56,9.42,13.26.25,8.55,6.75,13.9-1.47,19.65-1.06,7.3,2.91,19.91,2.91,31.12Z" fill="#ad2446"/>
        <path d="m227.73,93.6c0-1.14,0-2.31-.01-3.52,0-.81-.02-1.63-.05-2.47l4.64-9.37-4.66,18.83c.04-1.13.07-2.28.08-3.47Z" opacity=".2"/>
        <path d="m226.11,56.71s-10.89,34.2-13.2,37.05c-3.73,4.61-24.58,17.21-24.58,17.21l.86,7.05s24.48-5.52,32.54-16.4c5.03-6.79,15.16-35.85,15.16-35.85l-10.78-9.06Z" fill="#ad2446"/>
        <g>
          <path d="m267.87,38.9s4.87-6.68.64-13-11.1-3.69-11.1-3.69l10.46,16.69Z" fill="#263238"/>
          <path d="m256.06,54.53c.03.11.08.22.15.33,1.4,2.21-1.23,6.25-1.23,6.25-.23-.02.23.05,0,0,0,0-3.66-2.91-4.25-3.56,0,0,0,0,0,0-2.89-3.13-5.99-5.51-5.99-5.51,3.62-1.94,4.94-8.83,5.28-13.14l5.62,7.16,1.05,1.56c-.51.9-.96,1.84-1.22,2.76-.41,1.44-.24,1.9.6,4.15Z" fill="#ffc3bd"/>
          <g fill="none" opacity=".2">
            <path d="m255.46,50.38c.26-.93.71-1.86,1.22-2.76l-1.05-1.56-3.54.08s.93,2.86,3.37,4.25Z"/>
          </g>
          <path d="m248.98,31.23c-.56,7.07-.95,10.06,2.02,14.15,4.47,6.15,13.11,5.26,15.74-1.51,2.36-6.1,2.89-16.64-3.46-20.38-6.25-3.68-13.74.67-14.3,7.74h0Z" fill="#ffc3bd"/>
          <path d="m250.53,35.86c-3.55-.94-2.15-4.61-2.15-4.61l5.22.81s.48,4.73-3.07,3.8Z" fill="#263238"/>
          <path d="m264.85,24.14s-.09,3.91-4.89,4.12c-4.8.21-4.44,7.55-9.75,6.18-6.56-1.69-4.08-7.3-2.49-9.73,1.01-1.55,11.75-10.82,17.14-.57Z" fill="#263238"/>
          <path d="m263.79,42.13s-3.45-1.56-4.2-3.06c0,0-.51,2.68,1.3,3.67,1.81.99,2.9-.61,2.9-.61Z" fill="#fff"/>
          <path d="m260.62,34.38c-.08.57.16,1.08.53,1.13.37.05.74-.37.82-.94.08-.57-.16-1.08-.53-1.13-.37-.05-.74.37-.82.94h0Z" fill="#263238"/>
          <path d="m266.42,35.33c-.08.57.16,1.08.53,1.13.37.05.74-.37.82-.94.08-.57-.16-1.08-.53-1.13-.37-.05-.74.37-.82.94h0Z" fill="#263238"/>
          <path d="m267.08,34.4l1.43-.2s-.85.97-1.43.2h0Z" fill="#263238"/>
          <path d="m264.29,35.21s.77,1.65,1.66,3.12c.29.48.07,1.1-.46,1.27-.91.3-1.86.35-1.86.35l.66-4.75Z" fill="#ed847e"/>
          <path d="m245.8,35.74c.44,1.43,1.42,2.43,2.42,2.86,1.5.65,2.51-.95,2.32-2.74-.17-1.62-1.16-3.91-2.78-3.79-1.59.12-2.46,2.03-1.96,3.67h0Z" fill="#ffc3bd"/>
          <path d="m249.54,37.58c0,.53-.43.96-.96.96s-.96-.43-.96-.96.43-.96.96-.96.96.43.96.96Z" fill="#fff"/>
          <path d="m259.06,32.1c.09,0,.18-.04.25-.11,1.04-1.1,2.27-.89,2.28-.89.18.03.36-.09.39-.27.03-.18-.09-.36-.27-.39-.06-.01-1.61-.27-2.89,1.09-.13.14-.12.35.01.48.07.06.15.09.23.09h0Z" fill="#263238"/>
          <path d="m269.09,33.13c.08,0,.17-.02.24-.07.15-.12.17-.33.05-.48-1.17-1.46-2.73-1.32-2.8-1.32-.19.02-.32.18-.3.37.02.19.18.32.37.3.06,0,1.27-.1,2.2,1.07.06.07.15.12.23.13h0Z" fill="#263238"/>
          <path d="m261.27,33.45l1.43-.2s-.85.97-1.43.2h0Z" fill="#263238"/>
        </g>
      </g>
      <path d="m245.59,51.69s-2.27-1.44-5.48.03l6.63,10.1s-.8-2.13,2.35-1.85,5.88,1.16,5.88,1.16c0,0-5.94-6.1-9.39-9.43Z" fill="#891536"/>
      <path d="m255.32,52.3s1.8,5.5-.34,8.82c0,0,4.07-2.46,5.14-2.19,1.07.26.8,1.92.8,1.92,0,0,1.89-3.48.73-5.99s-6.33-2.56-6.33-2.56Z" fill="#891536"/>
      <g>
        <polygon points="185.14 335.69 183.79 338.85 183.56 48.31 185.14 48.31 185.14 335.69" fill="#263238"/>
        <path d="m185.48,53.71s-15.49-5.48-25.85,4.68c-18.99,18.61-28.08,8.66-28.08,8.66,0,0,3.96,20.38,23.86,10.39,15.55-7.81,30.07-2.91,30.07-2.91.77,0,.77-20.81,0-20.81Z" fill="#5b9cd5"/>
        <path d="m186.36,48.31c0,1.11-.9,2.01-2.01,2.01s-2.01-.9-2.01-2.01.9-2.01,2.01-2.01,2.01.9,2.01,2.01Z" fill="#407bff"/>
        <path d="m186.36,48.31c0,1.11-.9,2.01-2.01,2.01s-2.01-.9-2.01-2.01.9-2.01,2.01-2.01,2.01.9,2.01,2.01Z" fill="#5b9cd5"/>
      </g>
      <path d="m189.12,111.01s-2.61-.74-3.82-.99c-1.22-.25-3.67,1.93-3.48,2.77.26,1.18,2.57-.26,2.57-.26l.13,7.87s1.73-.36,3.44-1.46c4.01-2.43,3.3-6.32,1.17-7.93Z" fill="#ffc3bd"/>
      <path d="m183.79,111.28s-1.76-.83-2.27.21-.33,7.11.41,8.56c.74,1.45,2.83.69,3.11-.4.28-1.1,1.02-7-1.25-8.36Z" fill="#ffc3bd"/>
    </g>
  </g>
</svg>