<?xml version="1.0" encoding="UTF-8"?>
<svg id="Layer_2" data-name="Layer 2" xmlns="http://www.w3.org/2000/svg" viewBox="0 0 500 362.66">
  <g id="Plant">
    <g>
      <path d="m237.18,282.8H44.09c-3.15,0-5.7-2.56-5.7-5.71V5.66c.03-3.13,2.57-5.65,5.7-5.66h193.09c3.15,0,5.71,2.56,5.71,5.71h0v271.38c0,3.15-2.56,5.71-5.71,5.71ZM44.09.2c-3.01,0-5.45,2.45-5.45,5.46v271.43c0,3.01,2.44,5.45,5.45,5.46h193.09c3.01,0,5.45-2.45,5.46-5.46V5.66c0-3.01-2.45-5.45-5.46-5.46H44.09Z" fill="#e6e6e6"/>
      <path d="m453.49,282.8h-193.1c-3.15,0-5.7-2.56-5.71-5.71V5.66c.03-3.13,2.58-5.65,5.71-5.66h193.1c3.13.01,5.66,2.53,5.69,5.66v271.43c0,3.15-2.54,5.7-5.69,5.71ZM260.39.2c-3.01,0-5.45,2.45-5.46,5.46v271.43c0,3.01,2.45,5.45,5.46,5.46h193.1c3.01,0,5.45-2.45,5.46-5.46V5.66c0-3.01-2.45-5.45-5.46-5.46h-193.1Z" fill="#e6e6e6"/>
    </g>
    <g>
      <rect x="52.57" y="333.48" width="41.21" height=".25" fill="#e0e0e0"/>
      <rect x="136.45" y="331.48" width="41.33" height=".25" fill="#e0e0e0"/>
      <rect x="221.56" y="331.48" width="10" height=".25" fill="#e0e0e0"/>
      <rect x="85.36" y="340.02" width="46.25" height=".25" fill="#e0e0e0"/>
      <rect x="269.98" y="333.35" width="21.6" height=".25" fill="#e0e0e0"/>
      <rect x="300.48" y="333.35" width="27.93" height=".25" fill="#e0e0e0"/>
      <rect x="400.67" y="337.58" width="62.44" height=".25" fill="#e0e0e0"/>
    </g>
    <rect y="322.83" width="500" height=".25" fill="#e0e0e0"/>
    <g>
      <g>
        <g>
          <rect x="80.27" y="41.59" width="1.8" height="140.37" fill="#e0e0e0"/>
          <rect x="192.32" y="41.59" width="1.8" height="140.37" fill="#e0e0e0"/>
        </g>
        <polygon points="201.17 50.42 73.22 50.42 70.52 44.12 203.87 44.12 201.17 50.42" fill="#ebebeb"/>
        <polygon points="201.17 59.07 73.22 59.07 70.52 52.77 203.87 52.77 201.17 59.07" fill="#ebebeb"/>
        <polygon points="201.17 67.72 73.22 67.72 70.52 61.42 203.87 61.42 201.17 67.72" fill="#ebebeb"/>
        <polygon points="201.17 76.37 73.22 76.37 70.52 70.07 203.87 70.07 201.17 76.37" fill="#ebebeb"/>
        <polygon points="201.17 85.02 73.22 85.02 70.52 78.72 203.87 78.72 201.17 85.02" fill="#ebebeb"/>
        <polygon points="201.17 93.67 73.22 93.67 70.52 87.37 203.87 87.37 201.17 93.67" fill="#ebebeb"/>
        <polygon points="201.17 102.32 73.22 102.32 70.52 96.02 203.87 96.02 201.17 102.32" fill="#ebebeb"/>
        <polygon points="201.17 110.97 73.22 110.97 70.52 104.67 203.87 104.67 201.17 110.97" fill="#ebebeb"/>
        <polygon points="201.17 119.61 73.22 119.61 70.52 113.31 203.87 113.31 201.17 119.61" fill="#ebebeb"/>
        <polygon points="201.17 128.26 73.22 128.26 70.52 121.96 203.87 121.96 201.17 128.26" fill="#ebebeb"/>
        <polygon points="201.17 136.91 73.22 136.91 70.52 130.61 203.87 130.61 201.17 136.91" fill="#ebebeb"/>
        <polygon points="201.17 145.56 73.22 145.56 70.52 139.26 203.87 139.26 201.17 145.56" fill="#ebebeb"/>
        <polygon points="201.17 154.21 73.22 154.21 70.52 147.91 203.87 147.91 201.17 154.21" fill="#ebebeb"/>
        <polygon points="201.17 162.86 73.22 162.86 70.52 156.56 203.87 156.56 201.17 162.86" fill="#ebebeb"/>
        <polygon points="201.17 171.51 73.22 171.51 70.52 165.21 203.87 165.21 201.17 171.51" fill="#ebebeb"/>
        <polygon points="201.17 180.16 73.22 180.16 70.52 173.86 203.87 173.86 201.17 180.16" fill="#ebebeb"/>
        <rect x="70.52" y="180.16" width="133.35" height="3.6" fill="#e0e0e0"/>
        <rect x="65.87" y="36.23" width="142.65" height="8.4" fill="#e0e0e0"/>
        <path d="m67.34,120.79h0c-.8,0-1.45-.65-1.45-1.45v-48.99c0-.8.65-1.45,1.45-1.45h0c.8,0,1.45.65,1.45,1.45v48.99c0,.8-.65,1.45-1.45,1.45Z" fill="#e0e0e0"/>
        <rect x="66.81" y="42.94" width="1.05" height="29.1" fill="#e0e0e0"/>
      </g>
      <g>
        <g>
          <rect x="360.84" y="231.73" width="75.81" height="81.59" fill="#e6e6e6"/>
          <rect x="438.69" y="225.66" width="9.53" height="98.25" fill="#e6e6e6"/>
          <rect x="372.9" y="238.16" width="6.21" height="30.49" fill="#fafafa"/>
          <rect x="398.66" y="238.16" width="6.21" height="30.49" fill="#f5f5f5"/>
          <rect x="379.11" y="240.3" width="6.21" height="28.35" fill="#f5f5f5"/>
          <rect x="392.44" y="240.3" width="6.21" height="28.35" fill="#fafafa"/>
          <rect x="388.43" y="238.16" width="4.01" height="30.49" fill="#ebebeb"/>
          <rect x="385.33" y="240.3" width="3.11" height="28.35" fill="#fafafa"/>
          <rect x="404.87" y="238.16" width="6.21" height="30.49" fill="#ebebeb"/>
          <rect x="411.08" y="240.3" width="6.21" height="28.35" fill="#e6e6e6"/>
          <rect x="424.41" y="240.3" width="6.21" height="28.35" fill="#e6e6e6"/>
          <rect x="420.4" y="238.16" width="4.01" height="30.49" fill="#fafafa"/>
          <rect x="417.29" y="240.3" width="3.11" height="28.35" fill="#ebebeb"/>
          <rect x="430.62" y="238.88" width="3.11" height="29.77" fill="#fafafa"/>
          <rect x="427.52" y="279.02" width="6.21" height="30.49" transform="translate(861.24 588.54) rotate(180)" fill="#fafafa"/>
          <rect x="401.76" y="279.02" width="6.21" height="30.49" transform="translate(809.74 588.54) rotate(180)" fill="#fafafa"/>
          <rect x="421.3" y="281.17" width="6.21" height="28.35" transform="translate(848.82 590.68) rotate(180)" fill="#f0f0f0"/>
          <rect x="407.97" y="281.17" width="6.21" height="28.35" transform="translate(822.16 590.68) rotate(180)" fill="#ebebeb"/>
          <rect x="414.18" y="279.02" width="4.01" height="30.49" transform="translate(832.38 588.54) rotate(180)" fill="#fafafa"/>
          <rect x="418.2" y="281.17" width="3.11" height="28.35" transform="translate(839.5 590.68) rotate(180)" fill="#f5f5f5"/>
          <rect x="395.55" y="279.02" width="6.21" height="30.49" transform="translate(797.31 588.54) rotate(180)" fill="#ebebeb"/>
          <rect x="389.34" y="281.17" width="6.21" height="28.35" transform="translate(784.89 590.68) rotate(180)" fill="#f5f5f5"/>
          <rect x="376.01" y="281.17" width="6.21" height="28.35" transform="translate(758.23 590.68) rotate(180)" fill="#e6e6e6"/>
          <rect x="382.22" y="279.02" width="4.01" height="30.49" transform="translate(768.45 588.54) rotate(180)" fill="#fafafa"/>
          <rect x="368.89" y="279.02" width="4.01" height="30.49" transform="translate(741.79 588.54) rotate(180)" fill="#fafafa"/>
          <rect x="386.23" y="281.17" width="3.11" height="28.35" transform="translate(775.57 590.68) rotate(180)" fill="#ebebeb"/>
          <rect x="372.9" y="279.75" width="3.11" height="29.77" transform="translate(748.91 589.26) rotate(180)" fill="#f0f0f0"/>
          <path d="m436.26,225.66h-77.83v92.75h75.28v5.51h5.08v-98.25h-2.54Zm-2.54,83.85h-70.49v-35.75h70.49v35.75Zm0-40.83h-70.49v-34.13h70.49v34.13Z" fill="#f0f0f0"/>
          <rect x="284.9" y="231.73" width="75.81" height="81.59" transform="translate(645.62 545.06) rotate(180)" fill="#e6e6e6"/>
          <rect x="287.82" y="317.41" width="9.53" height="6.5" transform="translate(585.17 641.33) rotate(180)" fill="#e6e6e6"/>
          <rect x="351.95" y="238.16" width="6.21" height="30.49" transform="translate(710.1 506.81) rotate(180)" fill="#fafafa"/>
          <rect x="326.19" y="238.16" width="6.21" height="30.49" transform="translate(658.6 506.81) rotate(180)" fill="#f5f5f5"/>
          <rect x="345.73" y="240.3" width="6.21" height="28.35" transform="translate(697.68 508.95) rotate(180)" fill="#f5f5f5"/>
          <rect x="332.4" y="240.3" width="6.21" height="28.35" transform="translate(671.02 508.95) rotate(180)" fill="#fafafa"/>
          <rect x="338.62" y="238.16" width="4.01" height="30.49" transform="translate(681.24 506.81) rotate(180)" fill="#ebebeb"/>
          <rect x="342.63" y="240.3" width="3.11" height="28.35" transform="translate(688.36 508.95) rotate(180)" fill="#fafafa"/>
          <rect x="324.08" y="238.16" width="6.21" height="30.49" transform="translate(654.36 506.81) rotate(180)" fill="#ebebeb"/>
          <rect x="317.86" y="240.3" width="6.21" height="28.35" transform="translate(641.94 508.95) rotate(180)" fill="#e6e6e6"/>
          <rect x="304.53" y="240.3" width="6.21" height="28.35" transform="translate(615.28 508.95) rotate(180)" fill="#e6e6e6"/>
          <rect x="310.75" y="238.16" width="4.01" height="30.49" transform="translate(625.5 506.81) rotate(180)" fill="#fafafa"/>
          <rect x="314.76" y="240.3" width="3.11" height="28.35" transform="translate(632.62 508.95) rotate(180)" fill="#ebebeb"/>
          <rect x="301.43" y="238.88" width="3.11" height="29.77" transform="translate(605.96 507.53) rotate(180)" fill="#f5f5f5"/>
          <rect x="298.51" y="279.02" width="6.21" height="30.49" fill="#fafafa"/>
          <rect x="324.26" y="279.02" width="6.21" height="30.49" fill="#fafafa"/>
          <rect x="304.72" y="281.17" width="6.21" height="28.35" fill="#f5f5f5"/>
          <rect x="318.05" y="281.17" width="6.21" height="28.35" fill="#ebebeb"/>
          <rect x="314.04" y="279.02" width="4.01" height="30.49" fill="#fafafa"/>
          <rect x="310.93" y="281.17" width="3.11" height="28.35" fill="#f5f5f5"/>
          <rect x="326.38" y="279.02" width="6.21" height="30.49" fill="#ebebeb"/>
          <rect x="332.59" y="281.17" width="6.21" height="28.35" fill="#f5f5f5"/>
          <rect x="345.92" y="281.17" width="6.21" height="28.35" fill="#e6e6e6"/>
          <rect x="341.91" y="279.02" width="4.01" height="30.49" fill="#fafafa"/>
          <rect x="354.42" y="279.02" width="4.01" height="30.49" fill="#fafafa"/>
          <rect x="338.8" y="281.17" width="3.11" height="28.35" fill="#ebebeb"/>
          <rect x="352.13" y="279.75" width="3.11" height="29.77" fill="#ebebeb"/>
          <path d="m282.75,225.66v98.25h5.08v-5.51h75.28v-92.75h-80.37Zm5.08,48.1h70.49v35.75h-70.49v-35.75Zm0-39.21h70.49v34.13h-70.49v-34.13Z" fill="#f0f0f0"/>
        </g>
        <g>
          <path d="m92.43,291.41s-7.28-34.4,5.98-53.03c13.26-18.63-11.98-.21-14.88,17.23,0,0-4.35-31.18,8.51-53.12,12.86-21.94-11.2-3.93-13.24,18.68,0,0-3.94-27.82,1.97-43.46,5.91-15.63-4.37-5.58-8.32,4.22-3.95,9.8,1.23,34.07,1.23,34.07,0,0-10.31-44.87-20.07-41.3-9.76,3.57,14.59,32.97,17.97,48.27,0,0-11.51-20.58-20.24-16.3-8.73,4.28,13.52,6.42,23.71,37.11l3.58,14.39s-10.59-20.31-17.52-13.9c-6.93,6.41,20.53,17.47,26.91,48.25l4.41-1.1Z" fill="#ebebeb"/>
          <g>
            <path d="m67.13,301.92h49.96v11.01c0,6.07-4.93,10.99-10.99,10.99h-27.97c-6.07,0-10.99-4.93-10.99-10.99v-11.01h0Z" fill="#ebebeb"/>
            <rect x="60.58" y="289.22" width="63.04" height="19.7" rx="4.21" ry="4.21" fill="#f5f5f5"/>
          </g>
          <path d="m91.01,293.39s-1.53-43.37-22.96-61.73c-21.43-18.37,14.29-3.83,22.96,16.2,0,0-4.08-38.65-26.02-61.09-21.94-22.45,12.24-8.04,21.43,18.43,0,0-3.57-34.5-15.31-51.46-11.73-16.97,3.57-7.99,11.22,2.57,7.65,10.56,8.67,41.17,8.67,41.17,0,0-1.02-56.82,11.73-55.45,12.75,1.37-7.65,43.84-7.14,63.16,0,0,7.65-28.08,19.39-25.55,11.73,2.53-14.29,11.71-17.35,51.51v18.3s6.63-27.48,16.84-21.87c10.2,5.61-19.39,27.04-17.86,65.81h-5.61Z" fill="#f5f5f5"/>
        </g>
      </g>
      <g>
        <rect x="365.8" y="37.22" width="59.5" height="88.69" fill="#ebebeb"/>
        <rect x="369.91" y="43.34" width="51.29" height="76.45" fill="#f5f5f5"/>
        <g>
          <circle cx="397.8" cy="68.83" r="10.29" transform="translate(239.42 440.17) rotate(-76.72)" fill="#e0e0e0"/>
          <polygon points="387.51 108.83 402.56 90.83 408.09 108.83 387.51 108.83" fill="#ebebeb"/>
          <path d="m380.26,56.04c-7.2,11.73-1.99,26.29,6.19,35.85,1.26,1.47,3.37-.66,2.12-2.12-7.31-8.54-12.17-21.7-5.72-32.21,1.01-1.65-1.58-3.16-2.59-1.51h0Z" fill="#ebebeb"/>
          <polygon points="410.56 48.2 405.06 53.83 410.56 58.54 415.56 53.37 410.56 48.2" fill="#ebebeb"/>
        </g>
      </g>
      <g>
        <g>
          <polygon points="409.81 211.28 383.45 211.28 390.02 200.78 405.89 200.78 405.89 203.78 391.68 203.78 388.87 208.28 409.81 208.28 409.81 211.28" fill="#e0e0e0"/>
          <rect x="400.72" y="202.02" width="3" height="6.04" transform="translate(-26.47 63.46) rotate(-8.74)" fill="#e0e0e0"/>
        </g>
        <g>
          <rect x="407.55" y="205.23" width="7.33" height="3" transform="translate(33.55 469.81) rotate(-61.55)" fill="#ebebeb"/>
          <path d="m427.52,205.48l-16.18.5c-1.18.04-2.16-.78-2.16-1.79v-1c0-1.02.98-1.83,2.16-1.79l16.18.5c1.12.03,2.01.83,2.01,1.79h0c0,.97-.89,1.76-2.01,1.79Z" fill="#e0e0e0"/>
        </g>
        <g>
          <polygon points="377.28 221.06 385.21 216.96 385.21 214.63 377.28 210.53 377.28 221.06" fill="#e6e6e6"/>
          <rect x="376.18" y="210.53" width="1.1" height="10.53" fill="#e0e0e0"/>
        </g>
        <g>
          <polygon points="419.53 224.04 407.12 217.62 407.12 213.97 419.53 207.55 419.53 224.04" fill="#e6e6e6"/>
          <rect x="419.53" y="207.55" width="1.72" height="16.5" fill="#e0e0e0"/>
        </g>
        <path d="m411.23,225.47h-22.59c-4.39,0-7.95-3.56-7.95-7.96v-2.01c0-4.39,3.56-7.95,7.95-7.95h22.59v17.92Z" fill="#ebebeb"/>
      </g>
    </g>
    <g id="Shadow--inject-214">
      <ellipse id="path--inject-214" cx="248.78" cy="351.34" rx="193.89" ry="11.32" fill="#f5f5f5"/>
    </g>
    <g>
      <path d="m295.29,231.96h-6.24l-9.99,118.35c-.11,1.32.93,2.45,2.26,2.45h0c1.16,0,2.14-.88,2.25-2.04l11.73-118.77Z" fill="#263238"/>
      <path d="m295.29,231.96h-6.24l-9.99,118.35c-.11,1.32.93,2.45,2.26,2.45h0c1.16,0,2.14-.88,2.25-2.04l11.73-118.77Z" fill="#fff" opacity=".1"/>
      <g>
        <path d="m145.31,231.13h-6.24l-9.99,119.18c-.11,1.32.93,2.45,2.26,2.45h0c1.16,0,2.14-.88,2.25-2.04l11.73-119.59Z" fill="#263238"/>
        <path d="m145.31,231.13h-6.24l-9.99,119.18c-.11,1.32.93,2.45,2.26,2.45h0c1.16,0,2.14-.88,2.25-2.04l11.73-119.59Z" fill="#fff" opacity=".1"/>
      </g>
      <g>
        <g>
          <path d="m172.99,231.13h6.24l.18,119.54c0,1.25-1.01,2.27-2.27,2.27h0c-1.24,0-2.25-1-2.27-2.23l-1.89-119.58Z" fill="#263238"/>
          <path d="m172.99,231.13h6.24l.18,119.54c0,1.25-1.01,2.27-2.27,2.27h0c-1.24,0-2.25-1-2.27-2.23l-1.89-119.58Z" fill="#fff" opacity=".2"/>
        </g>
        <g>
          <path d="m320.97,231.13h6.24l.18,119.54c0,1.25-1.01,2.27-2.27,2.27h0c-1.24,0-2.25-1-2.27-2.23l-1.89-119.58Z" fill="#263238"/>
          <path d="m327.22,231.13l.18,119.54c0,1.25-1.01,2.27-2.27,2.27h0c-1.24,0-2.25-1-2.27-2.23l-1.89-119.58h6.24Z" fill="#fff" opacity=".2"/>
        </g>
        <polygon points="137.19 253.54 327.08 252.13 327.08 231.13 139.06 231.13 137.19 253.54" fill="#5b9cd5"/>
        <polygon points="172.99 231.29 173.34 253.27 137.19 253.54 139.06 231.13 172.99 231.29" opacity=".3"/>
      </g>
      <path d="m334.41,226.09h0c0-2.83-1.05-5.12-2.35-5.13h-195.83c-1.3,0-2.35,2.3-2.35,5.13h0c0,2.83,1.05,5.12,2.35,5.13h195.83c1.3,0,2.35-2.3,2.35-5.13Z" fill="#263238"/>
      <path d="m334.41,226.09h0c0-2.83-1.05-5.12-2.35-5.13h-195.83c-1.3,0-2.35,2.3-2.35,5.13h0c0,2.83,1.05,5.12,2.35,5.13h195.83c1.3,0,2.35-2.3,2.35-5.13Z" fill="#fff" opacity=".1"/>
      <path d="m184.42,226.09h0c0-2.83-1.05-5.12-2.35-5.13h-45.84c-1.3,0-2.35,2.3-2.35,5.13h0c0,2.83,1.05,5.12,2.35,5.13h45.84c1.3,0,2.35-2.3,2.35-5.13Z" opacity=".3"/>
    </g>
    <g>
      <path d="m284.06,221.49h-20.57l.47-2.23c2.19-5.9,13.44-5.9,13.44-5.9,2.79.16,5.51,2.77,6.29,6.42l.37,1.72Z" fill="#407bff"/>
      <g>
        <path d="m226.98,218.19h20.66l2.46-21.6h-18.76l-4.36,21.6Z" fill="#263238"/>
        <path d="m223.33,220.93h.98v.24h35.05v-2.99h-32.38l4.36-21.6h18.76l1.04-9.16c-.05-1.25-1.09-2.23-2.34-2.23h-16.08c-1.26,0-2.29.99-2.35,2.23l-7.04,33.51Z" fill="#263238"/>
        <polygon points="226.98 218.19 247.64 218.19 249.91 198.29 250.1 196.59 231.34 196.59 226.98 218.19" fill="#263238"/>
        <polygon points="249.24 203.78 250.1 196.59 228.45 196.59 226.94 203.78 249.24 203.78" opacity=".1"/>
      </g>
      <g>
        <g>
          <g>
            <path d="m259.79,218.82h2.45c.26,0,.47-.19.47-.43v-2.37c0-.24-.21-.43-.47-.43h-1.76c-.21,0-.4.13-.45.32l-.69,2.37c-.08.27.14.54.45.54Z" fill="#263238"/>
            <path d="m256.4,218.82h2.45c.26,0,.47-.19.47-.43v-2.37c0-.24-.21-.43-.47-.43h-1.76c-.21,0-.4.13-.45.32l-.69,2.37c-.08.27.15.54.45.54Z" fill="#263238"/>
            <path d="m253.01,218.82h2.45c.26,0,.47-.19.47-.43v-2.37c0-.24-.21-.43-.47-.43h-1.76c-.21,0-.4.13-.45.32l-.69,2.37c-.08.27.14.54.45.54Z" fill="#263238"/>
            <path d="m249.62,218.82h2.45c.26,0,.47-.19.47-.43v-2.37c0-.24-.21-.43-.47-.43h-1.76c-.21,0-.4.13-.45.32l-.69,2.37c-.08.27.14.54.45.54Z" fill="#263238"/>
            <path d="m246.23,218.82h2.45c.26,0,.47-.19.47-.43v-2.37c0-.24-.21-.43-.47-.43h-1.76c-.21,0-.4.13-.45.32l-.69,2.37c-.08.27.14.54.45.54Z" fill="#263238"/>
            <path d="m242.84,218.82h2.45c.26,0,.47-.19.47-.43v-2.37c0-.24-.21-.43-.47-.43h-1.76c-.21,0-.4.13-.45.32l-.69,2.37c-.08.27.14.54.45.54Z" fill="#263238"/>
            <path d="m239.45,218.82h2.45c.26,0,.47-.19.47-.43v-2.37c0-.24-.21-.43-.47-.43h-1.76c-.21,0-.4.13-.45.32l-.69,2.37c-.08.27.14.54.45.54Z" fill="#263238"/>
            <path d="m236.06,218.82h2.45c.26,0,.47-.19.47-.43v-2.37c0-.24-.21-.43-.47-.43h-1.76c-.21,0-.4.13-.45.32l-.69,2.37c-.08.27.14.54.45.54Z" fill="#263238"/>
            <path d="m232.67,218.82h2.45c.26,0,.47-.19.47-.43v-2.37c0-.24-.21-.43-.47-.43h-1.76c-.21,0-.4.13-.45.32l-.69,2.37c-.08.27.14.54.45.54Z" fill="#263238"/>
            <path d="m229.28,218.82h2.45c.26,0,.47-.19.47-.43v-2.37c0-.24-.21-.43-.47-.43h-1.76c-.21,0-.4.13-.45.32l-.69,2.37c-.08.27.14.54.45.54Z" fill="#263238"/>
            <path d="m225.88,218.82h2.45c.26,0,.47-.19.47-.43v-2.37c0-.24-.21-.43-.47-.43h-1.76c-.21,0-.4.13-.45.32l-.69,2.37c-.08.27.14.54.45.54Z" fill="#263238"/>
            <path d="m222.49,218.82h2.45c.26,0,.47-.19.47-.43v-2.37c0-.24-.21-.43-.47-.43h-1.76c-.21,0-.4.13-.45.32l-.69,2.37c-.08.27.14.54.45.54Z" fill="#263238"/>
            <path d="m219.1,218.82h2.45c.26,0,.47-.19.47-.43v-2.37c0-.24-.21-.43-.47-.43h-1.76c-.21,0-.4.13-.45.32l-.69,2.37c-.08.27.14.54.45.54Z" fill="#263238"/>
            <path d="m215.71,218.82h2.45c.26,0,.47-.19.47-.43v-2.37c0-.24-.21-.43-.47-.43h-1.76c-.21,0-.4.13-.45.32l-.69,2.37c-.08.27.14.54.45.54Z" fill="#263238"/>
            <path d="m212.32,218.82h2.45c.26,0,.47-.19.47-.43v-2.37c0-.24-.21-.43-.47-.43h-1.76c-.21,0-.4.13-.45.32l-.69,2.37c-.08.27.14.54.45.54Z" fill="#263238"/>
          </g>
          <path d="m209.85,219.08c0,1.03.92,1.86,2.04,1.86h50.77c1.13,0,2.04-.83,2.04-1.86,0-.52-.23-.99-.59-1.32-.36-.33-.85-.53-1.4-.54h-50.82c-.2,0-.39.03-.57.07-.85.23-1.48.94-1.48,1.79Z" fill="#263238"/>
        </g>
        <path d="m209.85,219.08c0,1.03.92,1.86,2.04,1.86h50.77c1.13,0,2.04-.83,2.04-1.86,0-.52-.23-.99-.59-1.32-.36-.33-.85-.53-1.4-.54h-50.82c-.2,0-.39.03-.57.07-.85.23-1.48.94-1.48,1.79Z" fill="#fff" opacity=".2"/>
        <path d="m209.85,219.08c0,1.03.92,1.86,2.04,1.86h17.19c.82-.24,1.42-.95,1.42-1.78,0-.12,0-.23-.03-.33-.08-.38-.28-.72-.57-.99-.13-.12-.28-.22-.44-.31-.08-.04-.16-.07-.24-.11-.25-.09-.51-.14-.78-.14h-17.11c-.85.23-1.48.94-1.48,1.79Z" fill="#263238"/>
      </g>
      <g>
        <g>
          <path d="m195.24,135.92h5.19l5.83,63.28h-5.19c-.86,0-1.63-.8-1.72-1.8l-5.5-59.68c-.09-.99.53-1.8,1.39-1.8Z" fill="#407bff"/>
          <path d="m195.24,135.92h5.19l5.83,63.28h-5.19c-.86,0-1.63-.8-1.72-1.8l-5.5-59.68c-.09-.99.53-1.8,1.39-1.8Z" fill="#10578c"/>
          <path d="m203.26,199.19h77.76c.86,0,1.48-.8,1.39-1.8l-5.5-59.68c-.09-.99-.86-1.8-1.72-1.8h-77.76c-.86,0-1.48.8-1.39,1.8l5.5,59.68c.09.99.86,1.8,1.72,1.8Z" fill="#5b9cd5"/>
        </g>
        <g>
          <polygon points="205.61 186.5 276.23 186.5 272.31 141.73 201.69 141.73 205.61 186.5" fill="#407bff"/>
          <path d="m206.58,190h69.59c1.97,0,3.43-1.6,3.26-3.57l-3.89-44.49c-.17-1.97-1.91-3.57-3.89-3.57h-69.59c-1.97,0-3.43,1.6-3.26,3.57l3.89,44.49c.17,1.97,1.91,3.57,3.89,3.57Z" fill="#263238"/>
          <g>
            <polygon points="205.61 186.5 276.23 186.5 272.31 141.73 201.69 141.73 205.61 186.5" fill="#407bff"/>
            <polygon points="205.61 186.5 276.23 186.5 272.31 141.73 201.69 141.73 205.61 186.5" fill="#9ccbef"/>
          </g>
          <g>
            <path d="m228.73,144.18l3.41,39h-25.89l-3.41-39h25.89m.92-1h-27.9l.09,1.09,3.41,39,.08.91h27.9l-.1-1.09-3.41-39-.08-.91h0Z" fill="#ad2446"/>
            <polygon points="232.14 183.18 206.26 183.18 202.84 144.18 228.73 144.18 232.14 183.18" fill="#fff"/>
            <g>
              <polygon points="213.87 156.1 205.99 156.1 205.13 146.2 213 146.2 213.87 156.1" fill="#5b9cd5"/>
              <g fill="none" opacity=".2">
                <path d="m206.06,146.2h0s-.68,0-.68,0h0s-.26,0-.26,0l.67,7.68h.26l-.05-.56h.68l.05.56h.26l-.67-7.68h-.26Zm-.32,4.12l-.1-1.12h.68l.1,1.12h-.68Zm.7.26l.1,1.12h-.68l-.1-1.12h.68Zm-.82-1.63l-.1-1.12h.68l.1,1.12h-.68Zm-.12-1.37l-.1-1.12h.68l.1,1.12h-.68Zm.48,5.49l-.1-1.12h.68l.1,1.12h-.68Z"/>
              </g>
              <g fill="none" opacity=".2">
                <path d="m212.74,146.2h0s-.68,0-.68,0h0s-.26,0-.26,0l.67,7.68h.26l-.05-.56h.68l.05.56h.26l-.67-7.68h-.26Zm-.32,4.12l-.1-1.12h.68l.1,1.12h-.68Zm.7.26l.1,1.12h-.68l-.1-1.12h.68Zm-.82-1.63l-.1-1.12h.68l.1,1.12h-.68Zm-.12-1.37l-.1-1.12h.68l.1,1.12h-.68Zm.48,5.49l-.1-1.12h.68l.1,1.12h-.68Z"/>
              </g>
              <polygon points="212.48 153.87 206.99 153.88 206.32 146.2 211.81 146.2 212.48 153.87" fill="#fff" opacity=".2"/>
              <path d="m211.68,150.14c.11,1.26-.82,2.27-2.07,2.27s-2.36-1.02-2.47-2.27c-.11-1.26.82-2.27,2.07-2.27s2.36,1.02,2.47,2.27Z" fill="#fff" opacity=".2"/>
              <polygon points="208.69 148.95 210.7 150.27 208.92 151.58 208.69 148.95" fill="#fff"/>
            </g>
            <g>
              <polygon points="214.95 168.5 207.08 168.5 206.21 158.6 214.08 158.6 214.95 168.5" fill="#5b9cd5"/>
              <g fill="none" opacity=".2">
                <path d="m207.15,158.6h0s-.68,0-.68,0h0s-.26,0-.26,0l.67,7.68h.26l-.05-.56h.68l.05.56h.26l-.67-7.68h-.26Zm-.32,4.12l-.1-1.12h.68l.1,1.12h-.68Zm.7.26l.1,1.12h-.68l-.1-1.12h.68Zm-.82-1.63l-.1-1.12h.68l.1,1.12h-.68Zm-.12-1.37l-.1-1.12h.68l.1,1.12h-.68Zm.48,5.49l-.1-1.12h.68l.1,1.12h-.68Z"/>
              </g>
              <g fill="none" opacity=".2">
                <path d="m213.83,158.6h0s-.68,0-.68,0h0s-.26,0-.26,0l.67,7.68h.26l-.05-.56h.68l.05.56h.26l-.67-7.68h-.26Zm-.32,4.12l-.1-1.12h.68l.1,1.12h-.68Zm.7.26l.1,1.12h-.68l-.1-1.12h.68Zm-.82-1.63l-.1-1.12h.68l.1,1.12h-.68Zm-.12-1.37l-.1-1.12h.68l.1,1.12h-.68Zm.48,5.49l-.1-1.12h.68l.1,1.12h-.68Z"/>
              </g>
              <polygon points="213.57 166.27 208.07 166.28 207.4 158.6 212.89 158.6 213.57 166.27" fill="#fff" opacity=".2"/>
              <path d="m212.77,162.54c.11,1.26-.82,2.27-2.07,2.27s-2.36-1.02-2.47-2.27c-.11-1.26.82-2.27,2.07-2.27s2.36,1.02,2.47,2.27Z" fill="#fff" opacity=".2"/>
              <polygon points="209.78 161.36 211.78 162.67 210.01 163.98 209.78 161.36" fill="#fff"/>
            </g>
            <g>
              <polygon points="224.19 156.1 216.32 156.1 215.45 146.2 223.33 146.2 224.19 156.1" fill="#5b9cd5"/>
              <g fill="none" opacity=".2">
                <path d="m216.39,146.2h0s-.68,0-.68,0h0s-.26,0-.26,0l.67,7.68h.26l-.05-.56h.68l.05.56h.26l-.67-7.68h-.26Zm-.32,4.12l-.1-1.12h.68l.1,1.12h-.68Zm.7.26l.1,1.12h-.68l-.1-1.12h.68Zm-.82-1.63l-.1-1.12h.68l.1,1.12h-.68Zm-.12-1.37l-.1-1.12h.68l.1,1.12h-.68Zm.48,5.49l-.1-1.12h.68l.1,1.12h-.68Z"/>
              </g>
              <g fill="none" opacity=".2">
                <path d="m223.07,146.2h0s-.68,0-.68,0h0s-.26,0-.26,0l.67,7.68h.26l-.05-.56h.68l.05.56h.26l-.67-7.68h-.26Zm-.32,4.12l-.1-1.12h.68l.1,1.12h-.68Zm.7.26l.1,1.12h-.68l-.1-1.12h.68Zm-.82-1.63l-.1-1.12h.68l.1,1.12h-.68Zm-.12-1.37l-.1-1.12h.68l.1,1.12h-.68Zm.48,5.49l-.1-1.12h.68l.1,1.12h-.68Z"/>
              </g>
              <polygon points="222.81 153.87 217.32 153.88 216.64 146.2 222.14 146.2 222.81 153.87" fill="#fff" opacity=".2"/>
              <path d="m222.01,150.14c.11,1.26-.82,2.27-2.07,2.27s-2.36-1.02-2.47-2.27c-.11-1.26.82-2.27,2.07-2.27s2.36,1.02,2.47,2.27Z" fill="#fff" opacity=".2"/>
              <polygon points="219.02 148.95 221.02 150.27 219.25 151.58 219.02 148.95" fill="#fff"/>
            </g>
            <g>
              <polygon points="216.04 180.91 208.16 180.91 207.3 171.01 215.17 171.01 216.04 180.91" fill="#5b9cd5"/>
              <g fill="none" opacity=".2">
                <path d="m208.23,171.01h0s-.68,0-.68,0h0s-.26,0-.26,0l.67,7.68h.26l-.05-.56h.68l.05.56h.26l-.67-7.68h-.26Zm-.32,4.12l-.1-1.12h.68l.1,1.12h-.68Zm.7.26l.1,1.12h-.68l-.1-1.12h.68Zm-.82-1.63l-.1-1.12h.68l.1,1.12h-.68Zm-.12-1.37l-.1-1.12h.68l.1,1.12h-.68Zm.48,5.49l-.1-1.12h.68l.1,1.12h-.68Z"/>
              </g>
              <g fill="none" opacity=".2">
                <path d="m214.91,171.01h0s-.68,0-.68,0h0s-.26,0-.26,0l.67,7.68h.26l-.05-.56h.68l.05.56h.26l-.67-7.68h-.26Zm-.32,4.12l-.1-1.12h.68l.1,1.12h-.68Zm.7.26l.1,1.12h-.68l-.1-1.12h.68Zm-.82-1.63l-.1-1.12h.68l.1,1.12h-.68Zm-.12-1.37l-.1-1.12h.68l.1,1.12h-.68Zm.48,5.49l-.1-1.12h.68l.1,1.12h-.68Z"/>
              </g>
              <polygon points="214.65 178.68 209.16 178.69 208.49 171.01 213.98 171.01 214.65 178.68" fill="#fff" opacity=".2"/>
              <path d="m213.85,174.95c.11,1.26-.82,2.27-2.07,2.27s-2.36-1.02-2.47-2.27c-.11-1.26.82-2.27,2.07-2.27s2.36,1.02,2.47,2.27Z" fill="#fff" opacity=".2"/>
              <polygon points="210.86 173.76 212.87 175.07 211.09 176.39 210.86 173.76" fill="#fff"/>
            </g>
          </g>
          <g>
            <polygon points="225.93 138.39 212.14 189.98 216.78 189.98 230.42 138.39 225.93 138.39" fill="#fff" isolation="isolate" opacity=".1"/>
            <polygon points="233.09 138.39 219.3 189.98 228.5 189.98 242.14 138.39 233.09 138.39" fill="#fff" isolation="isolate" opacity=".1"/>
          </g>
          <g>
            <g>
              <g>
                <polygon points="274.51 176.86 229.64 176.86 227.32 150.36 272.19 150.36 274.51 176.86" fill="#263238"/>
                <g>
                  <path d="m256.2,160.69c.27,3.08-2.01,5.58-5.09,5.58s-5.8-2.5-6.07-5.58c-.27-3.08,2.01-5.58,5.09-5.58s5.8,2.5,6.07,5.58Z" fill="#fff"/>
                  <polygon points="253.68 160.89 248.8 158.21 249.27 163.57 253.68 160.89" fill="#263238"/>
                </g>
              </g>
              <g>
                <g>
                  <polygon points="273.46 171.66 229.78 171.66 229.7 170.8 273.38 170.8 273.46 171.66" fill="#fff"/>
                  <polygon points="254.26 171.66 229.78 171.66 229.7 170.8 254.19 170.8 254.26 171.66" fill="#ad2446"/>
                </g>
                <g>
                  <g>
                    <polygon points="230.53 174.85 230.11 174.85 229.96 173.19 230.38 173.19 230.53 174.85" fill="#fff"/>
                    <polygon points="231.26 174.85 230.84 174.85 230.7 173.19 231.12 173.19 231.26 174.85" fill="#fff"/>
                  </g>
                  <g>
                    <polygon points="235.05 174.85 233.39 174.85 233.25 173.19 234.9 173.19 235.05 174.85" fill="#fff"/>
                    <polygon points="237.25 174.02 238.61 173.19 238.75 174.85 237.25 174.02" fill="#fff"/>
                    <polygon points="237.32 174.85 236.9 174.85 236.75 173.19 237.17 173.19 237.32 174.85" fill="#fff"/>
                    <g>
                      <polygon points="241.89 174.02 240.39 173.19 240.53 174.85 241.89 174.02" fill="#fff"/>
                      <polygon points="241.97 174.85 242.39 174.85 242.24 173.19 241.82 173.19 241.97 174.85" fill="#fff"/>
                    </g>
                    <g>
                      <polygon points="244.97 173.16 244.23 174.16 245.89 174.16 244.97 173.16" fill="#fff"/>
                      <polygon points="245.98 174.88 245.95 174.46 244.23 174.46 244.27 174.88 245.98 174.88" fill="#fff"/>
                    </g>
                  </g>
                </g>
                <g>
                  <path d="m273.77,174.98h-3.2l-.17-1.96h3.2l.17,1.96Zm-2.95-.27h2.65l-.12-1.42h-2.65l.12,1.42Z" fill="#fff"/>
                  <polygon points="268.22 174.98 267.57 174.98 267.52 174.41 267.79 174.39 267.82 174.71 268.22 174.71 268.22 174.98" fill="#fff"/>
                  <polygon points="269.65 174.98 269 174.98 269 174.71 269.36 174.71 269.33 174.41 269.6 174.39 269.65 174.98" fill="#fff"/>
                  <polygon points="269.26 173.65 269.24 173.3 268.86 173.3 268.86 173.03 269.48 173.03 269.54 173.63 269.26 173.65" fill="#fff"/>
                  <polygon points="267.46 173.65 267.4 173.03 268.07 173.03 268.07 173.3 267.7 173.3 267.73 173.63 267.46 173.65" fill="#fff"/>
                </g>
              </g>
              <polygon points="235.7 150.36 240.77 150.36 234.76 176.86 229.63 176.86 235.7 150.36" fill="#fff" opacity=".1" stroke="#263238" stroke-linecap="round" stroke-linejoin="round"/>
              <polygon points="260.93 176.86 267 150.36 272.07 150.36 266.06 176.86 260.93 176.86" fill="#fff" opacity=".1" stroke="#263238" stroke-linecap="round" stroke-linejoin="round"/>
              <polyline points="272.47 153.58 268.53 170.8 268.33 171.66 267.99 173.16 267.67 174.54 267.14 176.86 268.46 176.86 269.3 173.16 269.64 171.66 269.83 170.8 272.82 157.63" fill="#fff" opacity=".1" stroke="#263238" stroke-linecap="round" stroke-linejoin="round"/>
            </g>
            <g>
              <polygon points="272.19 150.36 227.32 150.36 227.11 147.96 271.98 147.96 272.19 150.36" fill="#eaba36"/>
              <g>
                <path d="m230.5,149.18c.04.41-.27.74-.68.74s-.77-.33-.81-.74c-.04-.41.27-.74.68-.74s.77.33.81.74Z" fill="#fff"/>
                <path d="m232.72,149.18c.04.41-.27.74-.68.74s-.77-.33-.81-.74c-.04-.41.27-.74.68-.74s.77.33.81.74Z" fill="#fff"/>
                <path d="m234.93,149.18c.04.41-.27.74-.68.74s-.77-.33-.81-.74c-.04-.41.27-.74.68-.74s.77.33.81.74Z" fill="#fff"/>
              </g>
            </g>
          </g>
        </g>
      </g>
      <g>
        <g>
          <polygon points="187.9 220.97 162.26 220.97 155.56 144.38 181.2 144.38 187.9 220.97" fill="#407bff"/>
          <polygon points="187.9 220.97 162.26 220.97 155.56 144.38 181.2 144.38 187.9 220.97" fill="#10578c"/>
        </g>
        <polygon points="190.42 220.97 164.77 220.97 158.07 144.38 183.72 144.38 190.42 220.97" fill="#5b9cd5"/>
        <g>
          <path d="m171.72,150.27c-5.39,0-9.38,4.37-8.91,9.76.47,5.39,5.22,9.76,10.61,9.76s9.38-4.37,8.91-9.76c-.47-5.39-5.22-9.76-10.61-9.76Z" opacity=".5"/>
          <path d="m169.93,160.69c.13,1.53,1.49,2.78,3.02,2.78s2.67-1.24,2.53-2.78c-.13-1.53-1.49-2.78-3.02-2.78s-2.67,1.24-2.53,2.78Z" fill="#ad2446"/>
          <g>
            <path d="m169.55,179.07c.23,2.63,2.55,4.76,5.18,4.76s4.58-2.13,4.35-4.76c-.23-2.63-2.55-4.76-5.18-4.76h0c-2.63,0-4.58,2.13-4.35,4.76Z" opacity=".5"/>
            <path d="m171.24,191.26c.2,2.27,2.2,4.12,4.48,4.12s3.96-1.84,3.76-4.12-2.2-4.12-4.48-4.12h0c-2.27,0-3.96,1.84-3.76,4.12Z" opacity=".5"/>
            <path d="m172.84,202.49c.17,1.92,1.86,3.47,3.78,3.47s3.34-1.55,3.17-3.47c-.17-1.92-1.86-3.47-3.78-3.47h0c-1.92,0-3.34,1.55-3.17,3.47Z" opacity=".5"/>
            <path d="m174.27,211.78c.14,1.56,1.51,2.83,3.07,2.83s2.72-1.27,2.58-2.83c-.14-1.56-1.51-2.83-3.07-2.83h0c-1.56,0-2.72,1.27-2.58,2.83Z" opacity=".5"/>
          </g>
        </g>
      </g>
      <g>
        <g>
          <polygon points="318.45 220.87 292.81 220.87 286.11 144.28 311.75 144.28 318.45 220.87" fill="#407bff"/>
          <polygon points="318.45 220.87 292.81 220.87 286.11 144.28 311.75 144.28 318.45 220.87" fill="#10578c"/>
        </g>
        <polygon points="320.97 220.87 295.32 220.87 288.62 144.28 314.27 144.28 320.97 220.87" fill="#5b9cd5"/>
        <g>
          <path d="m302.27,150.17c-5.39,0-9.38,4.37-8.91,9.76.47,5.39,5.22,9.76,10.61,9.76s9.38-4.37,8.91-9.76c-.47-5.39-5.22-9.76-10.61-9.76Z" opacity=".5"/>
          <path d="m300.48,160.6c.13,1.53,1.49,2.78,3.02,2.78s2.67-1.24,2.53-2.78c-.13-1.53-1.49-2.78-3.02-2.78s-2.67,1.24-2.53,2.78Z" fill="#ad2446"/>
          <g>
            <path d="m300.1,178.97c.23,2.63,2.55,4.76,5.18,4.76s4.58-2.13,4.35-4.76c-.23-2.63-2.55-4.76-5.18-4.76h0c-2.63,0-4.58,2.13-4.35,4.76Z" opacity=".5"/>
            <path d="m301.79,191.16c.2,2.27,2.2,4.12,4.48,4.12s3.96-1.84,3.76-4.12c-.2-2.27-2.2-4.12-4.48-4.12h0c-2.27,0-3.96,1.84-3.76,4.12Z" opacity=".5"/>
            <path d="m303.39,202.39c.17,1.92,1.86,3.47,3.78,3.47s3.34-1.55,3.17-3.47c-.17-1.92-1.86-3.47-3.78-3.47h0c-1.92,0-3.34,1.55-3.17,3.47Z" opacity=".5"/>
            <path d="m304.82,211.69c.14,1.56,1.51,2.83,3.07,2.83s2.72-1.27,2.58-2.83c-.14-1.56-1.51-2.83-3.07-2.83h0c-1.56,0-2.72,1.27-2.58,2.83Z" opacity=".5"/>
          </g>
        </g>
      </g>
    </g>
    <g>
      <g>
        <g>
          <path d="m114.06,121.56l-4.67-77.4c0-.1-.01-.2,0-.3.02-2.05,1.69-3.7,3.74-3.68l206.2-.47c2.23.04,4.06,1.76,4.23,3.98l4.67,77.4c0,.1.01.21.01.31-.02,2.05-1.7,3.69-3.75,3.67l-206.2.47c-2.23-.03-4.06-1.76-4.22-3.98Z" fill="#fff"/>
          <polygon points="190.62 40.57 134.02 40.57 133.98 40.14 190.57 40 190.62 40.57" fill="#fff"/>
          <g>
            <path d="m328.23,121.4c-.02,2.04-1.7,3.69-3.75,3.67l-206.2.47c-2.23-.03-4.06-1.76-4.22-3.97l-4.67-77.41c0-.1-.01-.2-.01-.31.02-2.04,1.7-3.69,3.75-3.68l15.84-.03-.32-3.69c-.3-3.36,2.19-6.08,5.55-6.08h44.43c3.36,0,6.33,2.72,6.61,6.08l.32,3.55,133.76-.3c2.22.04,4.06,1.77,4.22,3.99l4.67,77.39c.01.11.01.21.01.32Z" fill="#fff"/>
            <path d="m178.64,30.37c3.36,0,6.33,2.72,6.61,6.08l.32,3.55,133.76-.3c2.22.04,4.06,1.77,4.22,3.99l4.67,77.39c.01.11.01.21.01.32-.02,2.03-1.68,3.67-3.71,3.67-.01,0-.03,0-.04,0l-206.2.47c-2.23-.03-4.06-1.76-4.22-3.97l-4.67-77.41c0-.1-.01-.2-.01-.31.02-2.04,1.69-3.68,3.73-3.68,0,0,.01,0,.02,0l15.84-.03-.32-3.69c-.3-3.36,2.19-6.08,5.55-6.08h44.43m0-3.07h-44.43c-2.49,0-4.77.98-6.4,2.77-1.64,1.79-2.42,4.15-2.2,6.65l.03.36-12.51.02c-3.72,0-6.77,3.01-6.81,6.71,0,.13,0,.23,0,.34v.18s4.68,77.4,4.68,77.4c.29,3.87,3.4,6.8,7.24,6.86l206.25-.47c3.73,0,6.77-3.01,6.81-6.7,0-.2,0-.38-.02-.57l-4.67-77.36c-.28-3.86-3.39-6.79-7.22-6.87h-.03s-.03,0-.03,0l-130.95.29-.07-.75c-.42-4.97-4.67-8.87-9.66-8.87h0Z" fill="#5b9cd5"/>
          </g>
        </g>
        <g>
          <g>
            <rect x="120.51" y="23.04" width="45.8" height="57.59" fill="#ad2446"/>
            <g fill="none" opacity=".2">
              <path d="m125.94,23.04h0s-3.94,0-3.94,0h0s-1.49,0-1.49,0v44.67h1.49v-3.25h3.94v3.25h1.49V23.04h-1.49Zm-3.94,23.96v-6.5h3.94v6.5h-3.94Zm3.94,1.49v6.5h-3.94v-6.5h3.94Zm-3.94-9.48v-6.5h3.94v6.5h-3.94Zm0-7.98v-6.5h3.94v6.5h-3.94Zm0,31.95v-6.5h3.94v6.5h-3.94Z"/>
            </g>
            <g fill="none" opacity=".2">
              <path d="m164.82,23.04h0s-3.94,0-3.94,0h0s-1.49,0-1.49,0v44.67h1.49v-3.25h3.94v3.25h1.49V23.04h-1.49Zm-3.94,23.96v-6.5h3.94v6.5h-3.94Zm3.94,1.49v6.5h-3.94v-6.5h3.94Zm-3.94-9.48v-6.5h3.94v6.5h-3.94Zm0-7.98v-6.5h3.94v6.5h-3.94Zm0,31.95v-6.5h3.94v6.5h-3.94Z"/>
            </g>
            <polygon points="159.39 67.65 127.43 67.71 127.43 23.04 159.39 23.04 159.39 67.65" fill="#fff" opacity=".2"/>
            <path d="m156.63,45.96c0,7.3-5.92,13.22-13.22,13.22s-13.22-5.92-13.22-13.22,5.92-13.22,13.22-13.22,13.22,5.92,13.22,13.22Z" fill="#fff" opacity=".2"/>
            <polygon points="139.85 39.04 150.83 46.69 139.85 54.34 139.85 39.04" fill="#fff"/>
          </g>
          <polygon points="150.83 46.68 149.99 47.27 139.84 40.21 139.84 39.04 150.83 46.68" fill="#393838"/>
          <g>
            <path d="m138.02,78.13v-4.57s-2.25,3.77-2.25,3.77h-.79l-2.23-3.67v4.47h-1.65v-7.62h1.46l2.85,4.73,2.81-4.73h1.45l.02,7.62h-1.65Z" fill="#fff"/>
            <path d="m144.25,75.14l-1.02,1.07v1.93h-1.75v-7.62h1.75v3.56l3.37-3.56h1.96l-3.16,3.4,3.34,4.22h-2.06l-2.44-2.99Z" fill="#fff"/>
            <path d="m156.42,70.51l-3.3,7.62h-1.74l-3.29-7.62h1.9l2.32,5.44,2.35-5.44h1.75Z" fill="#fff"/>
          </g>
        </g>
        <g>
          <g>
            <rect x="170.43" y="35.87" width="45.8" height="57.59" fill="#eaba36"/>
            <g fill="none" opacity=".2">
              <path d="m175.87,35.87h0s-3.94,0-3.94,0h0s-1.49,0-1.49,0v44.67h1.49v-3.25h3.94v3.25h1.49v-44.67h-1.49Zm-3.94,23.96v-6.5h3.94v6.5h-3.94Zm3.94,1.49v6.5h-3.94v-6.5h3.94Zm-3.94-9.48v-6.5h3.94v6.5h-3.94Zm0-7.98v-6.5h3.94v6.5h-3.94Zm0,31.95v-6.5h3.94v6.5h-3.94Z"/>
            </g>
            <g fill="none" opacity=".2">
              <path d="m214.75,35.87h0s-3.94,0-3.94,0h0s-1.49,0-1.49,0v44.67h1.49v-3.25h3.94v3.25h1.49v-44.67h-1.49Zm-3.94,23.96v-6.5h3.94v6.5h-3.94Zm3.94,1.49v6.5h-3.94v-6.5h3.94Zm-3.94-9.48v-6.5h3.94v6.5h-3.94Zm0-7.98v-6.5h3.94v6.5h-3.94Zm0,31.95v-6.5h3.94v6.5h-3.94Z"/>
            </g>
            <polygon points="209.32 80.49 177.36 80.54 177.36 35.87 209.32 35.87 209.32 80.49" fill="#fff" opacity=".2"/>
            <path d="m206.56,58.8c0,7.3-5.92,13.22-13.22,13.22s-13.22-5.92-13.22-13.22,5.92-13.22,13.22-13.22,13.22,5.92,13.22,13.22Z" fill="#fff" opacity=".2"/>
            <g>
              <polygon points="189.78 51.88 200.76 59.53 189.78 67.17 189.78 51.88" fill="#fff"/>
              <polygon points="200.76 59.52 199.93 60.1 189.78 53.04 189.78 51.88 200.76 59.52" fill="#393838"/>
            </g>
          </g>
          <g>
            <path d="m188.71,89.34h-3.54l-.67,1.63h-1.81l3.4-7.62h1.74l3.41,7.62h-1.85l-.67-1.63Zm-.55-1.34l-1.21-2.92-1.21,2.92h2.42Z" fill="#fff"/>
            <path d="m198.94,83.35l-3.3,7.62h-1.74l-3.29-7.62h1.9l2.32,5.44,2.35-5.44h1.75Z" fill="#fff"/>
            <path d="m199.57,83.35h1.76v7.62h-1.76v-7.62Z" fill="#fff"/>
          </g>
        </g>
        <g>
          <g>
            <rect x="220.15" y="14.19" width="45.8" height="57.59" fill="#ad2446"/>
            <g fill="none" opacity=".2">
              <path d="m225.58,14.19h0s-3.94,0-3.94,0h0s-1.49,0-1.49,0v44.67h1.49v-3.25h3.94v3.25h1.49V14.19h-1.49Zm-3.94,23.96v-6.5h3.94v6.5h-3.94Zm3.94,1.49v6.5h-3.94v-6.5h3.94Zm-3.94-9.48v-6.5h3.94v6.5h-3.94Zm0-7.98v-6.5h3.94v6.5h-3.94Zm0,31.95v-6.5h3.94v6.5h-3.94Z"/>
            </g>
            <g fill="none" opacity=".2">
              <path d="m264.46,14.19h0s-3.94,0-3.94,0h0s-1.49,0-1.49,0v44.67h1.49v-3.25h3.94v3.25h1.49V14.19h-1.49Zm-3.94,23.96v-6.5h3.94v6.5h-3.94Zm3.94,1.49v6.5h-3.94v-6.5h3.94Zm-3.94-9.48v-6.5h3.94v6.5h-3.94Zm0-7.98v-6.5h3.94v6.5h-3.94Zm0,31.95v-6.5h3.94v6.5h-3.94Z"/>
            </g>
            <polygon points="259.03 58.8 227.07 58.86 227.07 14.19 259.03 14.19 259.03 58.8" fill="#fff" opacity=".2"/>
            <path d="m256.27,37.11c0,7.3-5.92,13.22-13.22,13.22s-13.22-5.92-13.22-13.22,5.92-13.22,13.22-13.22,13.22,5.92,13.22,13.22Z" fill="#fff" opacity=".2"/>
            <polygon points="239.49 30.2 250.48 37.84 239.49 45.49 239.49 30.2" fill="#fff"/>
            <polygon points="250.48 37.84 249.64 38.42 239.49 31.36 239.49 30.2 250.48 37.84" fill="#393838"/>
          </g>
          <g>
            <path d="m237.66,69.28v-4.57s-2.25,3.77-2.25,3.77h-.79l-2.23-3.67v4.47h-1.65v-7.62h1.46l2.85,4.73,2.81-4.73h1.45l.02,7.62h-1.65Z" fill="#fff"/>
            <path d="m247.73,64.43c0,1.7-1.27,2.75-3.31,2.75h-1.53v2.1h-1.76v-7.62h3.3c2.03,0,3.31,1.06,3.31,2.76Zm-1.78,0c0-.84-.54-1.33-1.62-1.33h-1.44v2.64h1.44c1.08,0,1.62-.49,1.62-1.32Z" fill="#fff"/>
            <path d="m255.25,67.69h-1.24v1.6h-1.72v-1.6h-4.1v-1.19l3.59-4.83h1.85l-3.33,4.58h2.05v-1.43h1.67v1.43h1.24v1.44Z" fill="#fff"/>
          </g>
        </g>
        <g>
          <g>
            <rect x="269.74" y="24.08" width="45.8" height="57.59" fill="#eaba36"/>
            <g fill="none" opacity=".2">
              <path d="m275.18,24.08h0s-3.94,0-3.94,0h0s-1.49,0-1.49,0v44.67h1.49v-3.25h3.94v3.25h1.49V24.08h-1.49Zm-3.94,23.96v-6.5h3.94v6.5h-3.94Zm3.94,1.49v6.5h-3.94v-6.5h3.94Zm-3.94-9.48v-6.5h3.94v6.5h-3.94Zm0-7.98v-6.5h3.94v6.5h-3.94Zm0,31.95v-6.5h3.94v6.5h-3.94Z"/>
            </g>
            <g fill="none" opacity=".2">
              <path d="m314.06,24.08h0s-3.94,0-3.94,0h0s-1.49,0-1.49,0v44.67h1.49v-3.25h3.94v3.25h1.49V24.08h-1.49Zm-3.94,23.96v-6.5h3.94v6.5h-3.94Zm3.94,1.49v6.5h-3.94v-6.5h3.94Zm-3.94-9.48v-6.5h3.94v6.5h-3.94Zm0-7.98v-6.5h3.94v6.5h-3.94Zm0,31.95v-6.5h3.94v6.5h-3.94Z"/>
            </g>
            <polygon points="308.63 68.7 276.67 68.75 276.67 24.08 308.63 24.08 308.63 68.7" fill="#fff" opacity=".2"/>
            <circle cx="292.65" cy="47.01" r="13.22" fill="#fff" opacity=".2"/>
            <polygon points="289.09 40.09 300.07 47.74 289.09 55.38 289.09 40.09" fill="#fff"/>
            <polygon points="300.08 47.74 299.24 48.32 289.1 41.26 289.1 40.1 300.08 47.74" fill="#393838"/>
          </g>
          <g>
            <path d="m287.26,79.18v-4.57s-2.25,3.77-2.25,3.77h-.79l-2.23-3.67v4.47h-1.65v-7.62h1.46l2.85,4.73,2.81-4.73h1.45l.02,7.62h-1.65Z" fill="#fff"/>
            <path d="m290.24,75.37c0-2.26,1.76-3.94,4.17-3.94s4.17,1.66,4.17,3.94-1.77,3.94-4.17,3.94-4.17-1.68-4.17-3.94Zm6.55,0c0-1.45-1.02-2.44-2.38-2.44s-2.38.99-2.38,2.44,1.02,2.44,2.38,2.44,2.38-.99,2.38-2.44Z" fill="#fff"/>
            <path d="m306.97,71.56l-3.3,7.62h-1.74l-3.29-7.62h1.9l2.32,5.44,2.35-5.44h1.75Z" fill="#fff"/>
          </g>
        </g>
      </g>
      <g>
        <path d="m232.2,119.54h-14.88c-2.89,0-5.45-2.35-5.7-5.24l-.12-1.32c-.25-2.89,1.89-5.24,4.78-5.24h14.88l1.03,11.81Z" fill="#5b9cd5"/>
        <g>
          <polygon points="241.23 118.6 232.68 114.36 232.47 111.96 240.28 107.73 241.23 118.6" fill="#5b9cd5"/>
          <polygon points="242.36 118.6 241.23 118.6 240.28 107.73 241.41 107.73 242.36 118.6" fill="#5b9cd5"/>
        </g>
        <g>
          <path d="m221.13,102.65c.2,2.27-1.48,4.12-3.76,4.12s-4.28-1.84-4.48-4.12c-.2-2.27,1.48-4.12,3.76-4.12s4.28,1.84,4.48,4.12Z" fill="#5b9cd5"/>
          <path d="m229.37,102.65c.2,2.27-1.48,4.12-3.76,4.12s-4.28-1.84-4.48-4.12,1.48-4.12,3.76-4.12,4.28,1.84,4.48,4.12Z" fill="#5b9cd5"/>
        </g>
      </g>
    </g>
    <g>
      <g>
        <g>
          <g id="Character">
            <g>
              <path d="m300.52,144.84c-.53,1.92-1.32,3.76-2.34,5.47,1.14.85,2.89.16,2.89.16l-.55-5.63Z" fill="#a02724"/>
              <path d="m322.63,150.64l-4.76,4.97-6.5,6.77c.53.79.92,1.66,1.13,2.59.58,2.03,1.08,3.52-3.32,5.49-.96.39-1.6,1.31-1.65,2.34,0,1.25.98,2.61,5.34,2.69,4.21-.02,8.3-1.38,11.67-3.89,1.66-1.18,1.49-2.26.46-3.96-3.07-4.84-2.99-11.63-2.38-17Z" fill="#ff8b7b"/>
              <path d="m298.98,144.51c-.05.67.19,1.23.53,1.26.35.03.67-.49.72-1.16.05-.67-.19-1.23-.53-1.26-.35-.03-.67.49-.72,1.16Z" fill="#263238"/>
              <path d="m299.57,140.77c1.48-.22,3.06.39,4.01,1.55" fill="none" stroke="#263238" stroke-linecap="round" stroke-linejoin="round"/>
              <path d="m300.47,153.57c1.04,3.83,3.81,6.69,7.1,8.04,1.17.48,2.41.77,3.67.84,2.9.15,5.86-.86,8.21-3.35,4.13-4.38,3.86-9.33,4.13-17.75.07-1.71-.24-3.41-.89-4.98-2.5-5.97-9.35-8.79-15.33-6.31-8.14,3.46-8.92,15.98-6.89,23.52Z" fill="#ff8b7b"/>
              <path d="m307.57,161.61c1.17.48,2.41.77,3.67.84l.14-.06-.8-1.56s-.49,1.33-3.01.79Z" opacity=".2"/>
              <path d="m326.94,146.79c-.9,3.04-2.13,6.15-4.43,8.33-.85.81-8.19,1.56-8.19,1.56-.35-2.48-4.9-10.45-6.89-13.05-.27,1.25-.74,6.6-1.15,7.78-.83-.02-2.14-1.28-2.14-1.28,1.34-3.47,1.66-7.24.96-10.89l-.29-1.51c-.03.32-4.85,2.6-7.21-1.81-8.81-16.49,13.79-13.57,20.06-7.13,2.02-1.03,4.58-.56,6.39.79,1.82,1.36,2.93,3.48,3.51,5.66,1,3.78.49,7.81-.61,11.56Z" fill="#263238"/>
            </g>
          </g>
          <path d="m320.28,125.12c-1.16-.1-2.29.73-2.71,1.82-.25.65-.5,2.22.23,2.55.81-1.51,1.35-3.03,2.48-4.37Z" fill="#263238"/>
        </g>
        <path d="m313.06,145.83c-.38,1.86-1.44,3.51-2.97,4.64-1.97,1.43-3.96-.6-3.94-2.99.02-2.15,1.43-5.12,3.67-5.59,2.24-.47,3.71,1.65,3.24,3.95Z" fill="#ff8b7b"/>
      </g>
      <g>
        <g>
          <polygon points="273.42 340.66 265.25 338.23 267.73 318.93 277.78 322.51 273.42 340.66" fill="#ff8b7b"/>
          <polygon points="278.91 317.13 268.3 313.18 266.71 327.06 276.12 329.7 278.91 317.13" isolation="isolate" opacity=".2"/>
        </g>
        <g>
          <path d="m264.56,336.85l9.31,2.53c.33.07.54.44.48.83l-1.41,8.87c-.21.95-1.02,1.55-1.83,1.35-3.22-.94-4.73-1.58-8.82-2.69-2.52-.68-8.27-2.32-11.8-2.97-3.53-.65-2.81-4.77-1.26-4.88,6.97-.43,10.97-1.27,13.77-2.82.49-.28,1.04-.35,1.56-.22Z" fill="#263238"/>
          <g>
            <path d="m260.21,338.17c.74.15,1.49.23,2.24.22.08,0,.15-.04.18-.11.04-.06.05-.14.01-.21-.22-.25-2.2-2.41-3.3-2.26-.26.03-.48.19-.58.43-.2.35-.21.78-.01,1.13.37.44.89.72,1.46.8Zm1.83-.18c-1.56-.11-2.64-.37-2.94-.85-.11-.23-.1-.51.05-.72.04-.12.15-.21.28-.23.58-.08,1.79.95,2.61,1.79Z" fill="#407bff"/>
            <path d="m262.46,338.39s.06,0,.09,0c.07-.02.12-.07.14-.14,0-.1.79-2.45.14-3.45-.16-.27-.44-.45-.76-.47-.34-.07-.69.1-.84.41-.41.86.42,2.89,1.12,3.58.02.03.06.05.1.05Zm-.33-3.64c.16.04.29.14.38.27.27.91.23,1.88-.09,2.76-.63-.82-.92-1.84-.81-2.86,0-.11.14-.23.43-.2l.1.02Z" fill="#407bff"/>
          </g>
        </g>
        <g>
          <g>
            <g>
              <path d="m314.81,236.06s-45.71-.15-47.19,25.09c-1.45,17.74-2.37,25.01-1.49,63.66l12.17.67s12.38-41.83,10.71-58.44c13.64,0,44.85,1.2,49.39-11.11,2.25-6.25,3.35-12.85,3.23-19.49l-26.83-.38Z" fill="#407bff"/>
              <path d="m314.81,236.06s-45.71-.15-47.19,25.09c-1.45,17.74-2.37,25.01-1.49,63.66l12.17.67s12.38-41.83,10.71-58.44c13.64,0,44.85,1.2,49.39-11.11,2.25-6.25,3.35-12.85,3.23-19.49l-26.83-.38Z" fill="#ad2446"/>
            </g>
            <polygon points="280.24 327.84 264.34 325.11 264.6 318.08 281.06 321.74 280.24 327.84" fill="#eaba36"/>
          </g>
          <g>
            <polygon points="241.87 343.19 234.17 339.54 239.57 320.85 248.95 325.91 241.87 343.19" fill="#ff8b7b"/>
            <polygon points="250.89 320.77 241.01 315.25 237.31 328.73 246.21 332.77 250.89 320.77" isolation="isolate" opacity=".2"/>
          </g>
          <g>
            <path d="m233.7,338.07l8.81,3.92c.31.12.47.52.35.9l-2.75,8.55c-.35.91-1.25,1.38-2.01,1.05-3.04-1.42-4.44-2.28-8.31-4.01-2.39-1.06-7.82-3.56-11.21-4.73-3.39-1.18-2.05-5.15-.5-5.01,6.95.64,11.04.42,14.04-.68.52-.2,1.08-.19,1.57.02Z" fill="#263238"/>
            <g>
              <path d="m229.2,338.71c.7.26,1.43.45,2.18.56.08.02.15-.02.19-.08.05-.06.07-.14.05-.21-.18-.28-1.8-2.71-2.92-2.74-.26-.01-.51.12-.64.34-.26.31-.32.73-.18,1.11.3.49.77.85,1.33,1.01Zm1.83.1c-1.52-.35-2.56-.76-2.77-1.29-.08-.25-.02-.51.16-.7.06-.11.18-.18.31-.18.59,0,1.63,1.21,2.31,2.17Z" fill="#407bff"/>
              <path d="m231.39,339.28s.05.01.09.02c.07-.01.13-.05.16-.11.02-.1,1.15-2.3.66-3.39-.12-.29-.37-.51-.68-.58-.33-.13-.7,0-.89.28-.54.79-.03,2.92.56,3.71.02.03.05.06.09.07Zm.23-3.65c.15.06.27.18.33.33.13.94-.05,1.89-.51,2.72-.49-.9-.63-1.96-.37-2.95.02-.11.17-.2.46-.13l.1.03Z" fill="#407bff"/>
            </g>
          </g>
          <g>
            <g>
              <path d="m300.41,236.06c-.32,0-50.91-4.92-54.3,23.84-5.37,35.22-8.75,64.91-8.75,64.91l10.66,5.28s18.56-37.58,18.28-61.16c14.83-4.26,53.2,2.9,57.74-9.4,3.72-10.06,1.71-23.47,1.71-23.47h-25.32Z" fill="#407bff"/>
              <path d="m300.41,236.06c-.32,0-50.91-4.92-54.3,23.84-5.37,35.22-8.75,64.91-8.75,64.91l10.66,5.28s18.56-37.58,18.28-61.16c14.83-4.26,53.2,2.9,57.74-9.4,3.72-10.06,1.71-23.47,1.71-23.47h-25.32Z" fill="#ad2446"/>
            </g>
            <polygon points="249.72 331.62 235.43 325.19 236.58 319.34 251.65 324.54 249.72 331.62" fill="#eaba36"/>
          </g>
          <g>
            <path d="m324.87,173.57c1.15,3.16,2.05,6.19,2.95,9.33.9,3.14,1.66,6.27,2.33,9.47.68,3.2,1.22,6.46,1.59,9.83.42,3.5.47,7.03.16,10.54-.19,2.06-.68,4.08-1.45,6-.48,1.18-1.12,2.28-1.91,3.28-.45.57-.96,1.09-1.52,1.55l-.45.37c-.25.17-.52.36-.77.5-.43.24-.88.44-1.35.6-.69.24-1.41.4-2.13.48-.57.07-1.15.1-1.72.1-.98-.02-1.96-.11-2.93-.26-1.73-.24-3.44-.58-5.12-1.03-6.28-1.72-12.37-4.06-18.19-6.99l1.86-5.17c6.04,1.27,12.2,2.6,18.05,3.38,1.46.13,2.88.32,4.21.37.59.02,1.19,0,1.78-.07.49-.04.92-.18.77-.18-.1.02-.19.06-.28.11-.1.05-.2.11-.29.18h0s.05-.07.1-.16c.15-.26.27-.54.36-.83.31-1.04.49-2.11.54-3.19.1-2.77-.07-5.54-.5-8.27-.4-2.94-1-5.82-1.67-8.76-.67-2.94-1.42-5.88-2.26-8.82s-1.75-5.9-2.65-8.68l10.49-3.69Z" fill="#ff8b7b"/>
            <path d="m298.74,213.85l-6.06-4.15-3.81,6.62s7.18,3.76,8.91,1.96l.95-4.43Z" fill="#ff8b7b"/>
            <polygon points="287.41 210.55 284.09 214.91 288.88 216.27 292.69 209.65 287.41 210.55" fill="#ff8b7b"/>
          </g>
          <g>
            <path d="m261.43,208.02l-8.88-1.01-2.55,9.76s10.15.08,11.75-2.82l-.32-5.93Z" fill="#ff8b7b"/>
            <path d="m245.89,210.63l-1.52,3.74c-.46,1.12.36,2.35,1.57,2.36l4.06.04,2.55-9.76-5.79,2.71c-.39.18-.7.51-.86.91Z" fill="#ff8b7b"/>
          </g>
          <path d="m338.62,171.56c-.72-1.93-4.1-3.86-6.18-3.86h-1.37c-2.39,0-5.38.19-8.27.53-5.52.61-10.99,1.53-16.41,2.76-2.49.66-4.89,1.49-6.8,2.2-.02,0-.05.02-.07.03-2.22.88-3.55,3.17-3.22,5.54.86,6.21,2.5,18.84,3.48,31.41.77,9.81.45,19.55.69,26.24h41.17c1.42-8.05,1.2-15.07,1.31-29.6.07-8.72-1.35-27.31-4.33-35.25Z" fill="#407bff"/>
          <path d="m338.62,171.56c-.72-1.93-4.1-3.86-6.18-3.86h-1.37c-2.39,0-5.38.19-8.27.53-5.52.61-10.99,1.53-16.41,2.76-2.49.66-4.89,1.49-6.8,2.2-.02,0-.05.02-.07.03-2.22.88-3.55,3.17-3.22,5.54.86,6.21,2.5,18.84,3.48,31.41.77,9.81.45,19.55.69,26.24h41.17c1.42-8.05,1.2-15.07,1.31-29.6.07-8.72-1.35-27.31-4.33-35.25Z" fill="#fff" opacity=".8"/>
          <g>
            <path d="m303.03,173.7c3.37,1.27,5.06,5.04,3.76,8.39-2.94,7.61-7.88,19.67-10.06,23.92-.83,1.51-1.66,3.01-2.61,4.52-.47.76-1,1.52-1.57,2.3-.31.4-.56.76-.93,1.17l-.53.61-.3.34c-.84.87-1.87,1.54-3,1.96-.6.23-1.21.42-1.83.57-1.02.22-2.05.36-3.08.41-1.79.11-3.58.09-5.37-.04-6.62-.55-13.17-1.77-19.54-3.65l-.67-6.76c6.29.18,12.71.39,18.71.09,1.41-.08,2.82-.22,4.22-.45.56-.1,1.12-.24,1.66-.42.18-.06.34-.14.5-.24.06,0,0-.07-.25.12-.09.06-.17.13-.24.22,0,0,.06-.09.09-.12l.24-.32c.16-.19.34-.5.52-.75.35-.54.7-1.11,1.05-1.73.69-1.22,1.35-2.56,2-3.92,1.3-2.72,2.48-5.59,3.63-8.48.81-2.05,3.2-8.29,5.22-13.87,1.23-3.4,4.99-5.14,8.38-3.86h0Z" fill="#407bff"/>
            <path d="m298.88,200.31c.31,3.7.19,2.5.53,6.38,10.06-15.53,6.73-25.78,6.73-25.78l-7.26,19.41Z" isolation="isolate" opacity=".2"/>
            <path d="m303.03,173.7c3.37,1.27,5.06,5.04,3.76,8.39-2.94,7.61-7.88,19.67-10.06,23.92-.83,1.51-1.66,3.01-2.61,4.52-.47.76-1,1.52-1.57,2.3-.31.4-.56.76-.93,1.17l-.53.61-.3.34c-.84.87-1.87,1.54-3,1.96-.6.23-1.21.42-1.83.57-1.02.22-2.05.36-3.08.41-1.79.11-3.58.09-5.37-.04-6.62-.55-13.17-1.77-19.54-3.65l-.67-6.76c6.29.18,12.71.39,18.71.09,1.41-.08,2.82-.22,4.22-.45.56-.1,1.12-.24,1.66-.42.18-.06.34-.14.5-.24.06,0,0-.07-.25.12-.09.06-.17.13-.24.22,0,0,.06-.09.09-.12l.24-.32c.16-.19.34-.5.52-.75.35-.54.7-1.11,1.05-1.73.69-1.22,1.35-2.56,2-3.92,1.3-2.72,2.48-5.59,3.63-8.48.81-2.05,3.2-8.29,5.22-13.87,1.23-3.4,4.99-5.14,8.38-3.86h0Z" fill="#fff" opacity=".8"/>
          </g>
        </g>
      </g>
      <g>
        <g>
          <path d="m289.52,351.41c0,2.32-1.88,4.2-4.2,4.2-2.32,0-4.2-1.88-4.2-4.2s1.88-4.2,4.2-4.2,4.2,1.88,4.2,4.2h0Z" fill="#263238"/>
          <path d="m351.17,351.41c0,2.32,1.88,4.2,4.2,4.2,2.32,0,4.2-1.88,4.2-4.2,0-2.32-1.88-4.2-4.2-4.2s-4.2,1.88-4.2,4.2h0Z" fill="#263238"/>
          <path d="m314.81,350.07c0,2.32,1.88,4.2,4.2,4.2s4.2-1.88,4.2-4.2c0-2.32-1.88-4.2-4.2-4.2s-4.2,1.88-4.2,4.2h0Z" fill="#263238"/>
        </g>
        <path d="m364.52,345.77c-.19.98-1.07,1.67-2.07,1.64l-43.78-.6-41,.93c-1,.03-1.87-.67-2.06-1.64-.22-1.11.5-2.17,1.6-2.4l22.39-4.35c2.33-.43,4.68-.66,7.04-.66h24.06c2.36,0,4.72.22,7.03.66l25.16,4.03c1.1.21,1.83,1.28,1.61,2.39Z" fill="#263238"/>
        <g>
          <rect x="311.22" y="302.17" width="14.89" height="42.86" fill="#263238"/>
          <rect x="313.36" y="275.02" width="10.62" height="27.37" fill="#263238"/>
          <polygon points="313.36 280.09 323.98 282.76 323.98 275.02 313.36 275.02 313.36 280.09" isolation="isolate" opacity=".2"/>
        </g>
        <g>
          <g>
            <g>
              <rect x="274.13" y="235.91" width="5.39" height="23.02" fill="#263238"/>
              <rect x="274.13" y="235.91" width="5.39" height="23.02" fill="#263238"/>
            </g>
            <path d="m315.29,184.31c-.09.63-.14,1.26-.14,1.89v88.81h-8.57v-88.81c0-.07,0-.14,0-.21l8.71-1.69Z" fill="#263238"/>
            <path d="m365.19,274.91v.1h-1.44c.5,0,.97-.04,1.44-.1Z" fill="#263238"/>
            <path d="m373.76,183.74l-.64-10.55c-.18-2.98-1.42-5.8-3.48-7.96l-6.73-7.03-3.46-17.58c-.53-2.74-2.93-4.71-5.73-4.71h-15.49c-2.49,0-4.71,1.58-5.52,3.95l-6.49,18.91-12.38,7.62c-3.17,1.95-5.31,5.2-5.86,8.87l-1.6,10.77.18-.04,8.71-1.69c-.09.63-.14,1.26-.14,1.89v88.81h48.6c.5,0,.97-.04,1.44-.1h0c4.85-.7,8.57-4.88,8.57-9.91v-79.57c0-.57-.04-1.14-.11-1.72l.11.04Zm-41.09-6.71l-15.01,1.43-.66.07,1.61-6.87,10.05-4.85,3.35-1.61.66,1.61.11.27.61,1.48-.71,8.46Zm29.71.18h0l-1.88-.48c-.07-.58-.15-1.18-.23-1.77-.42-3.29-.8-6.39-.8-6.39l.15-1.09.31-2.28,7.15,6.46.1,1.54.37,5.33-5.16-1.32Z" fill="#263238"/>
            <path d="m315.14,255.66v19.35h-56.51c-3.83,0-6.94-3.1-6.95-6.93,0-1.26.34-2.47.97-3.55,3.25-5.49,9.15-8.87,15.53-8.87h46.96Z" fill="#263238"/>
          </g>
          <g>
            <path d="m295.15,242.94c-11.87-4.14-24.8-4.14-36.67,0-2.46.93-5.24-.13-6.46-2.46h0c-1.1-2.33.38-5.34,3.37-6.39,13.86-4.84,28.96-4.84,42.83,0,2.99,1.04,4.47,4.06,3.37,6.39h0c-1.22,2.32-3.98,3.37-6.44,2.46Z" fill="#263238"/>
            <path d="m295.15,242.94c-11.87-4.14-24.8-4.14-36.67,0-2.46.93-5.24-.13-6.46-2.46h0c-1.1-2.33.38-5.34,3.37-6.39,13.86-4.84,28.96-4.84,42.83,0,2.99,1.04,4.47,4.06,3.37,6.39h0c-1.22,2.32-3.98,3.37-6.44,2.46Z" fill="#263238" opacity=".4"/>
          </g>
        </g>
      </g>
    </g>
  </g>
</svg>