<svg width="60" height="60" viewBox="0 0 60 60" fill="none" xmlns="http://www.w3.org/2000/svg">
<mask id="mask0_33_6429" style="mask-type:luminance" maskUnits="userSpaceOnUse" x="5" y="0" width="50" height="60">
<path d="M54.0775 27.6863L37.9267 43.8429L54.0775 59.9995H35.6219L19.4653 43.8429L35.6219 27.6863H54.0775ZM35.6219 0L5.625 29.9969L14.8557 39.2276L54.0775 0H35.6219V0Z" fill="white"/>
</mask>
<g mask="url(#mask0_33_6429)">
<path d="M19.4712 43.8431L28.6961 53.0738L54.0776 27.6865H35.622L19.4712 43.8431Z" fill="black"/>
</g>
<mask id="mask1_33_6429" style="mask-type:luminance" maskUnits="userSpaceOnUse" x="5" y="0" width="50" height="60">
<path d="M54.0775 27.6863L37.9267 43.8429L54.0775 59.9995H35.6219L19.4653 43.8429L35.6219 27.6863H54.0775ZM35.6219 0L5.625 29.9969L14.8557 39.2276L54.0775 0H35.6219V0Z" fill="white"/>
</mask>
<g mask="url(#mask1_33_6429)">
<path d="M35.6219 0H54.0775L14.8557 39.2276L5.625 29.9969L35.6219 0Z" fill="black"/>
</g>
<mask id="mask2_33_6429" style="mask-type:luminance" maskUnits="userSpaceOnUse" x="5" y="0" width="50" height="60">
<path d="M54.0775 27.6863L37.9267 43.8429L54.0775 59.9995H35.6219L19.4653 43.8429L35.6219 27.6863H54.0775ZM35.6219 0L5.625 29.9969L14.8557 39.2276L54.0775 0H35.6219V0Z" fill="white"/>
</mask>
<g mask="url(#mask2_33_6429)">
<path d="M28.6958 53.0735L35.6217 59.9936H54.0773L37.9265 43.8428L28.6958 53.0735Z" fill="black"/>
</g>
<mask id="mask3_33_6429" style="mask-type:luminance" maskUnits="userSpaceOnUse" x="5" y="0" width="50" height="60">
<path d="M54.0775 27.6863L37.9267 43.8429L54.0775 59.9995H35.6219L19.4653 43.8429L35.6219 27.6863H54.0775ZM35.6219 0L5.625 29.9969L14.8557 39.2276L54.0775 0H35.6219V0Z" fill="white"/>
</mask>
<g mask="url(#mask3_33_6429)">
<path d="M42.3859 48.331L37.9265 43.8428L28.6958 53.0735L42.3859 48.331Z" fill="url(#paint0_linear_33_6429)"/>
</g>
<mask id="mask4_33_6429" style="mask-type:luminance" maskUnits="userSpaceOnUse" x="5" y="0" width="50" height="60">
<path d="M54.0775 27.6863L37.9267 43.8429L54.0775 59.9995H35.6219L19.4653 43.8429L35.6219 27.6863H54.0775ZM35.6219 0L5.625 29.9969L14.8557 39.2276L54.0775 0H35.6219V0Z" fill="white"/>
</mask>
<g mask="url(#mask4_33_6429)">
<path d="M19.4702 43.8399L28.7011 34.6089L37.9326 43.8399L28.7011 53.0709L19.4702 43.8399Z" fill="black"/>
</g>
<path d="M54.0775 27.6863L37.9267 43.8429L54.0775 59.9995H35.6219L19.4653 43.8429L35.6219 27.6863H54.0775ZM35.6219 0L5.625 29.9969L14.8557 39.2276L54.0775 0H35.6219Z" fill="url(#paint1_radial_33_6429)"/>
<defs>
<linearGradient id="paint0_linear_33_6429" x1="31.3896" y1="54.8549" x2="38.2644" y2="47.9801" gradientUnits="userSpaceOnUse">
<stop stop-color="#1A237E" stop-opacity="0.4"/>
<stop offset="1" stop-color="#1A237E" stop-opacity="0"/>
</linearGradient>
<radialGradient id="paint1_radial_33_6429" cx="0" cy="0" r="1" gradientUnits="userSpaceOnUse" gradientTransform="translate(6.9862 4.08939) scale(73.4021)">
<stop stop-color="white" stop-opacity="0.1"/>
<stop offset="1" stop-color="white" stop-opacity="0"/>
</radialGradient>
</defs>
</svg>
