<?xml version="1.0" encoding="UTF-8"?>
<svg id="Layer_2" data-name="Layer 2" xmlns="http://www.w3.org/2000/svg" viewBox="0 0 287.82 172.31">
  <g id="Layer_1-2" data-name="Layer 1">
    <g>
      <rect x="12.03" y="31.32" width="58.57" height="40.79" fill="#fafbfb"/>
      <rect x="12.03" y="31.32" width="58.57" height="5.1" fill="#e0e0e0"/>
      <path d="m15.21,34.01c0,.34-.27.61-.61.61-.34,0-.61-.27-.61-.61h0c0-.35.27-.62.61-.62.34,0,.61.27.61.61h0Z" fill="#fff"/>
      <path d="m17.66,34.01c0,.34-.27.63-.61.64-.34,0-.62-.29-.61-.63,0,0,0,0,0-.01,0-.34.27-.63.61-.64.34.01.62.3.61.64Z" fill="#fff"/>
      <path d="m20.17,34.01c-.01.34-.3.61-.64.6-.34-.01-.61-.3-.6-.64.01-.33.28-.6.62-.6.35,0,.63.29.62.64h0Z" fill="#fff"/>
      <rect x="17.6" y="41.41" width="8.35" height="20.03" fill="#e0e0e0"/>
      <rect x="30.47" y="41.41" width="8.35" height="20.03" fill="#f5f5f5"/>
      <rect x="43.35" y="41.41" width="8.35" height="20.03" fill="#fff"/>
      <rect x="56.22" y="41.57" width="8.35" height="20.03" fill="#ebebeb"/>
      <rect x="16.64" y="63.65" width="50.59" height="4.58" fill="#ebebeb"/>
      <rect x="6.85" y="119.2" width="67.67" height="47.13" fill="#ebebeb"/>
      <rect x="6.85" y="119.2" width="67.67" height="5.89" fill="#e0e0e0"/>
      <path d="m10.52,122.31c0,.4-.31.73-.71.74-.41,0-.74-.34-.74-.74,0-.41.33-.73.74-.74.4.01.72.34.71.74Z" fill="#fafbfb"/>
      <path d="m13.38,122.31c.01.4-.3.73-.7.74h0c-.41.02-.76-.29-.78-.7s.29-.76.7-.78c.41-.02.76.29.78.7,0,.01,0,.03,0,.04Z" fill="#fafbfb"/>
      <path d="m16.25,122.31c0,.4-.31.73-.71.74-.41,0-.74-.34-.74-.74,0-.41.33-.73.74-.74.4.01.72.34.71.74Z" fill="#fafbfb"/>
      <rect x="239.35" y="68.51" width="44.25" height="32.15" fill="#f5f5f5"/>
      <rect x="239.35" y="68.51" width="44.25" height="3.27" fill="#e0e0e0"/>
      <rect x="244.82" y="76.51" width="7.07" height="7.07" fill="#e0e0e0"/>
      <rect x="244.82" y="87.12" width="7.07" height="7.07" fill="#e0e0e0"/>
      <rect x="256.08" y="79.09" width="15.47" height="1.92" fill="#e0e0e0"/>
      <rect x="256.08" y="89.51" width="15.47" height="1.92" fill="#e0e0e0"/>
      <rect x="250.95" y="28.94" width="32.64" height="20.45" fill="#e0e0e0"/>
      <rect x="250.95" y="28.94" width="32.64" height="3.93" fill="#ebebeb"/>
      <rect x="259.09" y="38.18" width="4.63" height="4.63" transform="translate(-.63 4.29) rotate(-.94)" fill="#f5f5f5"/>
      <rect x="258" y="39.29" width="4.63" height="4.63" transform="translate(-.65 4.28) rotate(-.94)" fill="#e0e0e0"/>
      <rect x="256.88" y="40.2" width="4.63" height="4.63" transform="translate(-.66 4.26) rotate(-.94)" fill="#f5f5f5"/>
      <rect x="268.07" y="40.25" width="11.2" height="1.76" fill="#f5f5f5"/>
      <path d="m29.23,11.22c.97-.55,2.11-.68,3.18-.36,1.06.32,2.02.88,2.83,1.64,1.57,1.56,2.7,3.5,3.29,5.63-2.29.57-4.74-.65-5.95-1.34-1.9-1.1-4.68-4.24-3.35-5.57" fill="#199ed9"/>
      <path d="m42.57,18.44c-1.15-.5-1.94-1.58-2.07-2.83-.11-1.24.28-2.46,1.08-3.41.33-.47.85-.78,1.42-.84.54.03,1.02.36,1.25.85.22.48.31,1.02.26,1.55.08,1.77-.63,3.48-1.94,4.68" fill="#cb1f46"/>
      <path d="m46.56,24.02c-.11-.09-.22-.19-.31-.3l-.84-.85c-.96-.91-1.76-1.97-2.38-3.14-.6-1.19-.87-2.51-.79-3.84.03-.4.11-.79.23-1.17,0-.14.09-.24.11-.31v-.1c-.15.52-.24,1.05-.29,1.59-.04,1.3.24,2.6.83,3.76.62,1.15,1.4,2.21,2.32,3.14l.8.88c.12.1.23.21.32.34Z" fill="#263238"/>
      <path d="m31.55,13.43s.06,0,.17.09l.47.29,1.68,1.08c1.42.92,3.36,2.23,5.47,3.72s4,2.88,5.33,3.91c.68.51,1.22.93,1.59,1.23l.42.34c.1.08.15.12.14.13l-.16-.11-.44-.32-1.61-1.18c-1.36-1-3.25-2.39-5.36-3.88s-4-2.8-5.44-3.75l-1.66-1.12-.45-.31-.15-.12Z" fill="#263238"/>
      <path d="m41.86,21.73c-2.38-1.14-5.15-1.05-7.46.22-.57.32-1.17.85-1.09,1.5s.8,1,1.44,1.18c2.75.61,5.6-.48,7.23-2.77" fill="#f9bb1e"/>
      <path d="m36.21,22.83c.11-.08.23-.15.35-.21.14-.09.28-.16.43-.22.19-.1.39-.18.59-.25.24-.1.49-.18.74-.24.29-.09.58-.15.87-.2.66-.11,1.33-.14,2-.1.68.05,1.35.18,2,.39.28.09.56.2.83.33.26.11.48.24.69.35.19.11.37.22.54.35.14.09.27.18.39.28.11.09.21.18.31.28,0,0-.47-.36-1.29-.81-.22-.12-.45-.23-.69-.33-.27-.12-.55-.22-.83-.31-.65-.2-1.32-.33-2-.38-.67-.04-1.34-.01-2,.09-.29.04-.58.1-.86.18-.27.06-.51.15-.73.22-.82.31-1.33.61-1.34.58Z" fill="#263238"/>
      <rect x="47.08" y=".12" width="187.4" height="172.11" fill="#fff"/>
      <path d="m234.47,172.23c0-.76,0-68.62-.09-172.11l.09.09H47.09l.11-.11v172.11l-.1-.09,187.4.09-187.4.1h-.09V0h187.55v.09c-.05,103.52-.09,171.38-.09,172.14Z" fill="#263238"/>
      <rect x="47.08" y=".12" width="187.4" height="8.17" fill="#f9bb1e"/>
      <path d="m53.04,3.67c.04.62-.43,1.16-1.06,1.2-.62.04-1.16-.43-1.2-1.06-.04-.62.43-1.16,1.06-1.2.02,0,.05,0,.07,0,.6-.02,1.11.46,1.13,1.06Z" fill="#fff"/>
      <path d="m57.55,3.67c.04.62-.43,1.16-1.06,1.2-.62.04-1.16-.43-1.2-1.06-.04-.62.43-1.16,1.06-1.2.02,0,.05,0,.07,0,.6-.02,1.11.46,1.13,1.06Z" fill="#fff"/>
      <path d="m62.07,3.67c.04.62-.43,1.16-1.06,1.2-.62.04-1.16-.43-1.2-1.06-.04-.62.43-1.16,1.06-1.2.02,0,.05,0,.07,0,.6-.02,1.11.46,1.13,1.06Z" fill="#fff"/>
      <path d="m128.06,65.99c-1.26,1.32-2.92,2.2-4.72,2.48-1.23.14-2.48-.09-3.7.1-2.94.47-4.94,3.23-4.47,6.17.17,1.06.65,2.04,1.38,2.83.35.46.9.71,1.48.67.31-.09.59-.26.81-.49l6.52-5.59,6.15-10.25c-.99,1.48-2.15,2.85-3.45,4.08Z" fill="#199ed9"/>
      <g fill="none" opacity=".3">
        <path d="m120.29,76.53c-.56-.84-1.23-1.6-2-2.26-.47-.43-.88-.93-1.5-.85-.68.13-1.2.68-1.31,1.36-.1.67.05,1.36.42,1.93.26.49.66.88,1.16,1.12.62.16,1.28.07,1.83-.27.5-.26.96-.6,1.36-1"/>
      </g>
      <path d="m144.78,134.47l-2,7.77s8.35,3.11,8.44,4.66h-16.14l2.39-12.79,7.31.36Z" fill="#cb1f46"/>
      <g fill="none" opacity=".6">
        <path d="m137.83,141.54c-.32.09-.52.42-.45.75.08.33.41.53.74.46.34-.11.54-.45.48-.8-.12-.34-.49-.51-.83-.39" fill="#fff"/>
      </g>
      <g fill="none" opacity=".6">
        <path d="m135.12,146.87l.24-1.3,15.26.51s.72.31.64.82l-16.14-.03Z" fill="#fff"/>
      </g>
      <path d="m142.84,142.34c0,.08-.39.11-.78.37s-.6.58-.67.55,0-.49.52-.78.95-.21.93-.14Z" fill="#263238"/>
      <path d="m144.66,143.08c0,.07-.33.21-.59.54s-.35.68-.43.68-.13-.45.22-.86.8-.44.8-.36Z" fill="#263238"/>
      <path d="m145.66,145.11c-.07,0-.18-.38,0-.81s.57-.6.61-.54-.2.3-.36.65-.25.69-.25.7Z" fill="#263238"/>
      <path d="m143.28,140.6c0,.07-.39-.07-.84-.08s-.8.1-.84,0,.33-.32.85-.29.87.32.83.37Z" fill="#263238"/>
      <path d="m92.94,124.17l-8,2.45s1.16,8.83-.16,9.64l-7.54-14.27,12.41-3.89,3.29,6.07Z" fill="#cb1f46"/>
      <g fill="none" opacity=".6">
        <path d="m83.17,121.88c-.24-.23-.62-.26-.88-.05-.24.23-.27.61-.06.87.26.24.67.24.93,0,.25-.25.25-.66,0-.91" fill="#fff"/>
      </g>
      <g fill="none" opacity=".6">
        <path d="m77.19,121.99l1.26-.4,6.71,13.72s.06.78-.43,1l-7.54-14.32Z" fill="#fff"/>
      </g>
      <path d="m84.81,126.73c-.07,0-.29-.3-.69-.53s-.8-.25-.8-.33.45-.18.93.1.63.7.56.76Z" fill="#263238"/>
      <path d="m85.01,128.62c-.06.06-.34-.18-.76-.26s-.77,0-.8-.06.34-.32.86-.21.76.5.7.53Z" fill="#263238"/>
      <path d="m83.66,130.43s.25-.33.72-.36.8.23.76.29-.35,0-.74,0-.69.14-.74.07Z" fill="#263238"/>
      <path d="m86.55,126.25c-.08,0-.12-.37-.32-.77s-.46-.67-.42-.73.44.13.67.61.18.91.07.89Z" fill="#263238"/>
      <path d="m97.34,95.26l-4-7.38s-8.4,2.94-9.46,1.82l12.43-10.31,6.34,11.36-5.31,4.51Z" fill="#ebebeb"/>
      <path d="m97.58,85.23c.19-.28.13-.66-.13-.87-.27-.2-.65-.14-.86.12-.2.3-.14.7.14.92.31.18.7.07.88-.23" fill="#e0e0e0"/>
      <path d="m96.26,79.39l.64,1.16-12,9.37s-.76.22-1-.22l12.36-10.31Z" fill="#e0e0e0"/>
      <path d="m93.22,87.82c0-.07.23-.35.36-.79s.09-.83.16-.85.28.4.11.94-.6.76-.63.7Z" fill="#e0e0e0"/>
      <path d="m91.36,88.4c-.06,0,.11-.36.11-.79s-.18-.75-.11-.8.38.27.38.8-.33.85-.38.79Z" fill="#e0e0e0"/>
      <path d="m89.31,87.46s.38.18.5.64-.05.83-.12.8,0-.35-.14-.73-.29-.65-.24-.71Z" fill="#e0e0e0"/>
      <path d="m93.99,89.43c0-.08.35-.2.7-.47s.56-.59.63-.56,0,.45-.46.77-.86.33-.87.26Z" fill="#e0e0e0"/>
      <path d="m118.85,107.73s-2.63-2.56-4.15-2.68-13-18.65-13-18.65l-7.52,3.91s11.17,23.06,13.06,24.32l2.73,1.71,8.88-8.61Z" fill="#e0e0e0"/>
      <path d="m110.84,111.11c.27-.21.55-.39.86-.54.73-.38,1.49-.7,2.28-.95,1.03-.34,2.1-.55,3.19-.63v.08h-.22.22v.08c-1.06.18-2.11.43-3.14.75-.77.25-1.53.54-2.27.88-.3.13-.61.24-.92.33Z" fill="#e0e0e0"/>
      <path d="m111.04,110.73c.5-.69,1.09-1.31,1.76-1.84.62-.58,1.33-1.06,2.1-1.42,0,0-.91.68-2,1.59s-1.81,1.67-1.86,1.67Z" fill="#e0e0e0"/>
      <path d="m116.11,108.73c-.06,0-.27-.34-.64-.68s-.74-.53-.72-.59c.33.03.64.18.87.43.27.21.44.51.49.84Z" fill="#e0e0e0"/>
      <path d="m101.33,87.87c3.59,6.86,7.86,13.35,12.73,19.37" fill="#ebebeb"/>
      <path d="m114.06,107.24c-.07-.05-.12-.1-.17-.17l-.44-.52c-.37-.45-.91-1.11-1.55-1.94-1.29-1.65-3-4-4.78-6.68s-3.23-5.19-4.23-7c-.51-.92-.91-1.68-1.17-2.2l-.3-.61c-.06-.14-.1-.21-.09-.22.05.06.09.13.13.2l.33.59,1.23,2.17c1,1.82,2.52,4.31,4.28,7s3.46,5,4.72,6.7l1.5,2,.41.54.13.14Z" fill="#e0e0e0"/>
      <path d="m91.14,108.29l-7.07-4.58s-6,6.58-7.47,6.09l6.06-15,11,7-2.52,6.49Z" fill="#f5f5f5"/>
      <path d="m86.59,99.34c.03-.33-.2-.64-.53-.7-.33-.04-.63.18-.7.51-.03.36.21.68.56.75.33,0,.71-.3.68-.62" fill="#e0e0e0"/>
      <path d="m82.66,94.83l1.12.71-6.18,14s-.56.55-1,.29l6.06-15Z" fill="#e0e0e0"/>
      <path d="m83.97,103.73c-.07,0,0-.41,0-.86s-.32-.77-.27-.83.44.22.54.78-.2.91-.27.91Z" fill="#e0e0e0"/>
      <path d="m82.66,105.09c-.08,0-.08-.38-.28-.75s-.51-.58-.48-.65.47,0,.72.52.04.91.04.88Z" fill="#e0e0e0"/>
      <path d="m80.37,105.23c0-.07.42,0,.74.32s.35.76.28.77-.21-.3-.48-.58-.56-.43-.54-.51Z" fill="#e0e0e0"/>
      <path d="m85.42,104.73c0-.06.22-.33.39-.74s.22-.79.3-.79.17.42,0,.9-.65.7-.69.63Z" fill="#e0e0e0"/>
      <path d="m115.96,109.04s-3.52-1-4.92-.39-20.26-10.28-20.26-10.28l-4.76,7s19.51,13.11,21.77,13.33l6.09-2.11,2.08-7.55Z" fill="#ebebeb"/>
      <path d="m110.53,115.85c.13-.32.31-.61.51-.89.46-.68.98-1.32,1.55-1.91.75-.79,1.6-1.49,2.52-2.07v.06c-.13.07-.2.1-.21.09.05-.06.11-.11.17-.15v.06c-.85.67-1.65,1.39-2.41,2.15-.56.59-1.09,1.21-1.58,1.86-.16.28-.34.55-.55.8Z" fill="#e0e0e0"/>
      <path d="m110.53,115.4c.1-.85.32-1.67.67-2.45.28-.8.67-1.56,1.17-2.25,0,0-.47,1-1,2.33s-.78,2.39-.84,2.37Z" fill="#e0e0e0"/>
      <path d="m114.02,111.21s-.39-.17-.88-.3-.91-.11-.91-.17c.32-.14.68-.14,1,0,.5.11.83.43.79.47Z" fill="#e0e0e0"/>
      <path d="m111.53,110.92l-.22-.08-.63-.24c-.55-.22-1.33-.55-2.29-1-1.93-.85-4.55-2.1-7.37-3.62s-5.31-3-7.07-4.19c-.88-.57-1.59-1-2.07-1.38l-.55-.4-.18-.14.21.11.57.36,2.1,1.33c1.78,1.11,4.27,2.6,7.09,4.12s5.42,2.79,7.33,3.67l2.26,1,.61.28c.14.13.22.17.21.18Z" fill="#e0e0e0"/>
      <path d="m119.07,75.2s-3.16,3.94-3.8,4.9-6.73,24.12-6.73,24.12c0,0-2.87,2.28-3.19,3.77s-20.18,10.43-20.18,10.43l2.9,8s24.31-8.07,25.81-9.78,14.3-20.81,14.3-20.81l13.14,17.75s-2.93,8.55-3.53,11.6-2.94,13.44-2.94,13.44l9-.35s6.29-18.59,8-22.22,1.18-5.81.22-7.73l-11-22,.37-1.46-22.37-9.66Z" fill="#363535"/>
      <path d="m110.9,112.61c-.19-.29-.33-.6-.43-.93-.28-.77-.5-1.57-.64-2.38-.21-1.07-.28-2.16-.21-3.25h.07v.22c-.01-.08-.01-.15,0-.23h.07c.05,1.08.16,2.15.34,3.22.15.8.34,1.58.58,2.36.09.33.17.66.22.99Z" fill="#455b64"/>
      <path d="m110.53,112.36c-.63-.58-1.17-1.26-1.6-2-.49-.7-.87-1.46-1.14-2.27.06,0,.56,1,1.32,2.16s1.46,2.07,1.42,2.11Z" fill="#455b64"/>
      <path d="m147.13,112.65c-.74-.12-1.5-.14-2.25-.05-.74.15-1.45.4-2.13.73.16-.16.34-.3.54-.4.48-.27,1.01-.46,1.56-.54.54-.1,1.1-.1,1.64,0,.42.12.65.23.64.26Z" fill="#455b64"/>
      <path d="m145.8,113.55c0,.06-.79-.18-1.78-.17s-1.76.24-1.78.18c.54-.29,1.16-.43,1.78-.39.62-.04,1.23.1,1.78.38Z" fill="#455b64"/>
      <path d="m132.01,90.09c-.15.35-.33.68-.54,1-.36.63-.89,1.48-1.5,2.4s-1.21,1.73-1.65,2.3c-.22.32-.47.63-.75.9.18-.35.39-.69.63-1l1.59-2.34,1.55-2.35c.2-.32.42-.63.67-.91Z" fill="#455b64"/>
      <path d="m110.02,106.41c.02-.11.05-.21.09-.31.07-.2.18-.49.3-.87.25-.75.59-1.85,1-3.23s.74-3,1.12-4.87.78-3.87,1.28-6c.45-2,1.03-3.96,1.74-5.88.57-1.57,1.27-3.08,2.11-4.52.56-.98,1.21-1.9,1.93-2.77.25-.31.47-.53.61-.68.07-.09.14-.16.23-.23-.06.09-.13.18-.2.26-.13.16-.34.39-.57.71-.7.88-1.32,1.81-1.88,2.79-.81,1.45-1.51,2.96-2.07,4.52-.69,1.92-1.26,3.88-1.72,5.87-.49,2.11-.9,4.14-1.29,6s-.78,3.5-1.16,4.87-.75,2.47-1,3.22c-.14.37-.26.66-.34.85-.05.1-.11.19-.18.27Z" fill="#455b64"/>
      <path d="m109.17,107.07c0,.06-.37.22-.76.54s-.62.67-.67.64.11-.45.54-.8c.23-.24.55-.38.89-.38Z" fill="#455b64"/>
      <path d="m107.48,108.92l-.19.14-.57.36c-.5.32-1.22.76-2.13,1.29-1.81,1.07-4.36,2.47-7.24,3.87s-5.57,2.52-7.53,3.28c-1,.38-1.78.68-2.33.87l-.64.22c-.07.03-.15.05-.23.06l.21-.1.63-.26,2.3-.93c2-.79,4.61-1.94,7.49-3.33s5.44-2.77,7.27-3.81l2.16-1.23.58-.33c.14-.07.21-.11.22-.1Z" fill="#455b64"/>
      <path d="m124.09,81c-.15.25-.35.47-.58.64-1.11.92-2.6,1.27-4,.92-.29-.06-.56-.17-.8-.33,0,0,.32.09.83.18.66.13,1.34.13,2,0,.66-.16,1.28-.44,1.83-.83.23-.21.47-.4.72-.58Z" fill="#455b64"/>
      <path d="m143.38,112.84s-.06,0-.16-.17l-.43-.54c-.36-.47-.88-1.15-1.51-2-1.26-1.7-3-4.07-4.77-6.74s-3.39-5.14-4.5-6.94c-.56-.9-1-1.63-1.3-2.14l-.34-.59c-.05-.06-.08-.13-.11-.21.06.06.1.12.14.19l.38.57,1.35,2.1c1.15,1.78,2.74,4.23,4.55,6.9s3.5,5,4.73,6.77l1.45,2,.39.56.13.24Z" fill="#455b64"/>
      <path d="m137.05,138.42c-.01-.09-.01-.17,0-.26l.11-.75c.1-.64.26-1.57.47-2.72.43-2.29,1.1-5.44,2-8.88s1.86-6.52,2.62-8.72c.38-1.1.69-2,.93-2.6l.27-.7c.06-.16.1-.24.1-.24,0,.09-.03.17-.06.25l-.24.72-.86,2.62c-.72,2.21-1.66,5.29-2.56,8.72s-1.59,6.58-2,8.86c-.22,1.13-.41,2-.54,2.71l-.14.73c-.02.09-.06.18-.1.26Z" fill="#455b64"/>
      <path d="m163.32,76.73v5.08l7.65-11.16,3.92,1.26s-4.77,12.45-7.49,14.78c-1.71,1.4-3.87,2.12-6.08,2l-1.2-3.65,2.06-8.51,1.14.2Z" fill="#e0e0e0"/>
      <path d="m174.57,73.15l1.27-1.53,1.16-1.18.32-.37c.29-.43.35-.97.16-1.45l.19-.79c.13-.44-.05-.9-.44-1.14.61-.77,1.28-1.48,2-2.15,1-.84,1.05-1.11.51-1.38s-3.89,2.51-3.89,2.51c0,0,.56-1.47,1-2.81s-.2-1.45-.48-1.31c-.84,1.12-1.53,2.33-2.08,3.62-.34.7-.58,1.22-.58,1.22,0,0-.92.63-1.5,1.1-.15.12-.28.25-.4.4-.33.94-.6,1.91-.8,2.89l-.44,1.12" fill="#e0e0e0"/>
      <path d="m173.19,70.94c.07-.01.14-.03.2-.07.18-.09.35-.21.49-.36.22-.23.37-.52.44-.83.09-.41.03-.84-.16-1.21l-.1.08c.28.32.62.59,1,.78.45.22.98.18,1.4-.1l.08-.07h0v-.06c-.45-.61-.87-1.19-1.27-1.72-.09-.14-.2-.26-.32-.37-.12-.11-.27-.18-.43-.2-.28-.02-.57.05-.81.2-.19.11-.37.24-.55.37-.13.1-.28.19-.43.26-.13.06-.26.09-.4.11h.11c.11,0,.21-.03.31-.07.16-.06.31-.14.45-.24.17-.1.35-.24.56-.35.22-.13.48-.19.74-.17.29.07.53.26.66.53l1.26,1.73v-.1l-.07.06c-.37.25-.85.29-1.25.09-.38-.18-.71-.43-1-.74l-.31-.32.21.4c.18.34.23.74.16,1.12-.05.3-.19.57-.39.8-.17.18-.37.33-.58.45Z" fill="#ebebeb"/>
      <path d="m175.07,69.32s-.05,0-.12.08c-.11.08-.21.19-.28.31-.12.19-.12.44,0,.63.08.11.21.18.35.19.14,0,.27-.03.4-.07.59-.19,1.17-.43,1.72-.72-.6.14-1.2.33-1.77.57-.23.09-.48.11-.59,0-.09-.15-.09-.35,0-.5.06-.12.13-.23.22-.32.05-.12.08-.16.07-.17Z" fill="#ebebeb"/>
      <path d="m176.08,68.57s.26-.08.57-.12.58,0,.59,0c-.17-.12-.39-.17-.6-.12-.36.02-.59.21-.56.24Z" fill="#ebebeb"/>
      <path d="m175.34,67.39s.33-.18.75-.34c.18-.07.36-.12.54-.16h.22s0,0,0-.07c-.05-.04-.12-.07-.19-.07-.2.02-.4.06-.59.13-.3.08-.55.26-.73.51Z" fill="#ebebeb"/>
      <path d="m155.96,69.32c0,1.39-2.64,13.25-2.42,16.09s18.37,8.58,18.37,8.58l1.07-4.13-11.39-7.24,2.06-10.14-7.69-3.16Z" fill="#ebebeb"/>
      <path d="m171.38,93.73l1.73,1,1.37.92.43.26c.47.21,1.02.17,1.45-.11h.81c.44.03.84-.22,1-.63.87.46,1.7.98,2.49,1.56,1,.81,1.28.84,1.45.25s-3.17-3.37-3.17-3.37l3,.52c1.42.23,1.4-.46,1.21-.71-1.25-.62-2.58-1.09-3.94-1.39l-1.3-.35s-.78-.81-1.36-1.28c-.14-.13-.3-.24-.46-.33-.99-.15-2-.24-3-.26l-1.18-.24" fill="#ebebeb"/>
      <path d="m173.31,91.94s0,.07.1.19c.12.16.28.3.45.41.27.17.57.27.89.28.42.02.83-.11,1.16-.37l-.1-.09c-.27.33-.46.72-.58,1.13-.14.48-.01,1,.34,1.36l.09.07h0l1.46-1.56c.11-.12.22-.24.31-.38.08-.14.12-.3.12-.46-.03-.28-.15-.55-.34-.76-.15-.17-.3-.33-.47-.48-.12-.11-.23-.24-.33-.37-.08-.12-.14-.25-.18-.38v.11c.03.11.07.21.13.3.09.15.19.28.31.4.13.15.3.29.45.48.17.2.28.44.3.7-.03.3-.18.57-.41.75l-1.47,1.55h.1l-.08-.06c-.31-.33-.42-.79-.3-1.22.11-.39.3-.76.55-1.08l.26-.37-.36.28c-.31.24-.68.37-1.07.37-.3,0-.59-.09-.85-.24-.19-.16-.35-.35-.48-.56Z" fill="#e0e0e0"/>
      <path d="m175.24,93.5l-.11-.11c-.1-.09-.22-.16-.35-.21-.21-.09-.45-.05-.62.11-.1.1-.14.24-.12.38.03.13.07.26.14.37.29.55.62,1.07,1,1.57-.26-.57-.56-1.11-.89-1.64-.13-.21-.19-.45-.05-.59.13-.12.32-.16.49-.1.12.04.24.09.35.16.1.04.15.07.16.06Z" fill="#e0e0e0"/>
      <path d="m176.16,94.35s.12.25.22.55c.03.19.08.38.13.57,0,0,.12-.28,0-.61s-.33-.54-.35-.51Z" fill="#e0e0e0"/>
      <path d="m177.18,93.42s.24.29.47.67c.1.16.19.33.26.51.02.07.02.15,0,.22h.06c.02-.06.02-.14,0-.2-.05-.2-.12-.39-.23-.57-.21-.45-.53-.67-.56-.63Z" fill="#e0e0e0"/>
      <path d="m154.04,73.17c.18,1.37-1.58,12.51-.91,15.28s7.49,13.1,7.49,13.1l3.5-1.6-4-14.93,2-10.19-8.08-1.66Z" fill="#fbbd9d"/>
      <path d="m160.23,101.14l.55,2.15.41,1.6c.06.2.11.36.15.47.22.47.65.8,1.16.89l.58.56c.3.34.8.43,1.2.22.33.93.59,1.88.79,2.85.21,1.27.4,1.48.91,1.15s-.13-4.63-.13-4.63c0,0,1,1.24,1.86,2.34s1.35.59,1.38.28c-.52-1.29-1.19-2.52-2-3.65-.42-.66-.74-1.13-.74-1.13,0,0-.05-1.12-.17-1.86-.02-.19-.07-.37-.13-.55-.61-.77-1.28-1.5-2-2.17l-.73-1" fill="#fbbd9d"/>
      <path d="m162.73,101.38c0,.07,0,.14,0,.21-.01.2,0,.4.06.6.08.31.25.58.48.8.3.29.69.46,1.11.49v-.13c-.42.08-.83.23-1.19.46-.42.27-.66.74-.64,1.24,0,.04,0,.07,0,.11v.07h.07l2.13-.19c.16-.01.32-.04.48-.09.16-.04.3-.13.4-.26.17-.23.25-.51.25-.79.01-.22.01-.45,0-.67-.02-.17-.02-.33,0-.5.02-.14.06-.28.11-.41l-.07.1c-.05.1-.08.2-.1.3-.02.17-.02.34,0,.51v.66c0,.26-.08.51-.23.72-.22.21-.51.31-.81.29l-2.12.18.08.06s0-.06,0-.09c-.02-.45.2-.87.58-1.11.34-.22.73-.37,1.13-.45l.43-.1h-.44c-.7-.04-1.31-.51-1.53-1.18-.11-.26-.17-.55-.18-.83Z" fill="#ec996f"/>
      <path d="m163.15,103.82v-.15c-.02-.14-.06-.27-.12-.39-.1-.21-.31-.33-.54-.33-.14.01-.26.08-.34.2-.07.12-.12.25-.14.38-.15.61-.24,1.23-.29,1.85.19-.6.33-1.2.43-1.82,0-.24.16-.46.35-.47.18,0,.35.09.44.24.07.11.12.23.16.36.02.04.03.13.05.13Z" fill="#ec996f"/>
      <path d="m163.27,105.07s-.07.27-.2.56-.31.48-.28.51.27-.13.42-.45c.11-.19.13-.41.06-.62Z" fill="#ec996f"/>
      <path d="m164.66,105.05s0,.38-.1.82c-.04.19-.08.37-.14.55,0,.13-.14.15-.14.17s0,0,.08,0c.06-.03.11-.07.15-.13.1-.18.16-.38.2-.58.08-.27.06-.57-.05-.83Z" fill="#ec996f"/>
      <path d="m165.73,41.39c-.4-.19-.87-.19-1.27,0-.41.14-.78.38-1.18.54-.39.2-.85.23-1.27.09-.11-.06-.22-.1-.34-.14-.12-.03-.25.02-.32.12-.04.09-.04.2,0,.29.14.37.38.69.71.92l-1.38-.14c-.12-.03-.26,0-.36.07-.1.1-.07.26,0,.4.23.71.74,1.29,1.41,1.61-.39.23-.73.54-1,.91-.26.38-.26.88,0,1.26.31.28.75.38,1.15.26.88-.33,1.6-.99,2-1.84.39-.84.91-1.62,1.54-2.31" fill="#263238"/>
      <path d="m174.44,34.96h0c-3.68-1.31-7.72.62-9.03,4.3-.02.05-.04.1-.05.15l-3,9-3.09,3.27,5.83,9c.52-1.28,5.34-5.75,5.34-5.75,0,0,3.74.94,5.27-2.54.74-1.68,2-5.27,3.06-8.52,1.19-3.65-.72-7.59-4.33-8.91Z" fill="#fbbd9d"/>
      <path d="m170.39,54.95c-1.62-.66-3.02-1.79-4-3.24,0,0-.4,2.83,3.23,4l.77-.76Z" fill="#ec996f"/>
      <path d="m176.66,45.93c-.12.27-.42.4-.7.3-.27-.09-.42-.37-.33-.64,0,0,0-.02.01-.03.11-.27.42-.4.69-.3.27.09.42.38.34.65,0,0,0,.01,0,.02Z" fill="#263238"/>
      <path d="m177.22,45.32c-.09,0-.35-.41-.89-.63s-1.05-.13-1.08-.22.1-.13.32-.19c.3-.06.62-.03.9.1.28.12.51.32.67.58.11.2.12.34.08.36Z" fill="#263238"/>
      <path d="m171.44,43.99c-.11.28-.42.41-.7.3-.27-.09-.42-.39-.32-.66,0,0,0,0,0,0,.11-.28.42-.41.7-.3.27.09.42.39.32.66,0,0,0,0,0,0Z" fill="#263238"/>
      <path d="m171.88,43.17c-.09,0-.35-.41-.89-.63s-1-.13-1.08-.22.1-.13.33-.18c.3-.07.61-.04.89.09.28.12.52.32.68.58.11.2.11.34.07.36Z" fill="#263238"/>
      <path d="m172.14,47.99c.32.03.64.11.94.22.14,0,.29.07.35,0,.07-.14.1-.29.08-.44v-1.22c0-1.05.08-2.09.25-3.13.08,1.04.08,2.1,0,3.14,0,.42,0,.83-.06,1.22.02.2-.04.41-.16.57-.08.08-.2.12-.31.1-.08-.01-.16-.03-.24-.06-.3-.1-.58-.24-.85-.4Z" fill="#263238"/>
      <path d="m170.39,47.73c.09,0-.15.62.17,1.24s1,.83.94.92-.18.05-.45,0c-.34-.14-.63-.4-.8-.73-.16-.31-.19-.67-.1-1,.08-.37.21-.49.24-.43Z" fill="#263238"/>
      <path d="m172.92,41.12c-.12.12-.63-.18-1.29-.37s-1.25-.24-1.28-.41.14-.17.41-.23c.33-.05.68-.03,1,.07.34.1.65.28.91.52.23.19.3.36.25.42Z" fill="#263238"/>
      <path d="m177.66,43.67c-.14.09-.46-.2-.91-.4s-.85-.26-.89-.43.1-.17.32-.22c.28-.05.57,0,.82.12.26.11.48.31.63.55.12.19.12.34.03.38Z" fill="#263238"/>
      <path d="m173.19,43.01c-.1-.15-.25-.27-.42-.33-1.02-.39-2.07-.7-3.14-.94l-.42.06c-.13.54-.21,1.09-.23,1.65-.05,1.06.72,1.98,1.77,2.13.42.11.86.08,1.26-.09.58-.39.99-.99,1.14-1.67.14-.25.15-.55.04-.81Z" fill="#263238"/>
      <path d="m172.76,43.28c-.08-.12-.2-.21-.34-.26-.81-.33-1.64-.6-2.49-.8h-.34c-.11.43-.18.87-.21,1.32,0,.39.11.76.33,1.08.27.33.64.56,1.06.64.32.11.68.11,1,0,.47-.3.8-.78.93-1.32.12-.2.14-.44.06-.66Z" fill="#455b64"/>
      <path d="m178.45,44.93c-.1-.15-.25-.27-.43-.33-.96-.37-1.95-.67-2.95-.9-.12-.02-.24-.02-.36,0h-.24c-.13.54-.21,1.09-.24,1.65,0,.48.15.95.43,1.35.35.41.82.69,1.35.78.42.11.86.07,1.25-.1.58-.38.99-.98,1.15-1.66.12-.25.14-.53.04-.79Z" fill="#263238"/>
      <path d="m178.04,45.11c-.08-.12-.2-.21-.34-.26-.81-.33-1.64-.6-2.49-.8h-.34c-.11.43-.18.87-.21,1.32-.01.39.1.76.32,1.08.27.33.65.56,1.07.64.33.09.68.08,1-.05.47-.3.81-.78.94-1.32.1-.19.12-.41.05-.61Z" fill="#455b64"/>
      <path d="m165.27,41.73l4.36.06-.15.61h-4.42l.21-.67Z" fill="#263238"/>
      <polygon points="174.45 44.16 173.12 43.6 173.2 43.01 174.92 43.78 174.45 44.16" fill="#263238"/>
      <path d="m164.59,41.87s-.94-7.37,5.24-8.9,6.87-.65,7.73.93,1.82,4.08,1.82,4.08c0,0,5.48-.59,5.64.24s-3.95,2.07-3.95,2.07c-1.05-.39-2.14-.66-3.25-.79-1.29-.17-4.35-.28-6.32-.34-1.06-.06-2.13.07-3.15.38l-.15.07-3.61,2.26Z" fill="#cb1f46"/>
      <path d="m166.27,41.14c0-.06-2.09-1.75-3,.67-.45,1.01,0,2.19,1.01,2.64.22.1.45.15.69.17-.02-.06,1.3-3.48,1.3-3.48Z" fill="#fbbd9d"/>
      <path d="m164.54,43.41h-.14c-.12,0-.23-.04-.31-.12-.24-.33-.29-.76-.12-1.13.08-.21.2-.4.36-.55.11-.14.28-.21.45-.2.11.01.2.1.2.21v.14s.07,0,.09-.13c.02-.06.02-.13,0-.19-.04-.08-.11-.14-.2-.16-.22-.04-.44.04-.59.21-.19.16-.34.37-.42.61-.2.43-.12.94.2,1.29.12.09.27.12.42.09.03-.01.07-.06.06-.07Z" fill="#ec996f"/>
      <path d="m168.31,39.52c-1.21.78-2,1.26-3.12,1-.19-.04-.38.02-.52.15-.15.19-.12.47.07.62,0,0,.02.01.03.02.26.2.57.32.89.35.07,0,.14.03.2.07.07.1,0,.23-.12.31l-1.17,1c-.14.11-.26.23-.35.38-.09.15-.09.34,0,.49.15.28.57.25.87.14.92-.38,1.7-1.05,2.21-1.9.52-.88.96-1.8,1.29-2.77l-.28.14Z" fill="#263238"/>
      <path d="m168.31,39.52c.13-.09.27-.16.41-.21.39-.18.79-.32,1.2-.44,1.35-.38,2.73-.64,4.12-.77,1.63-.17,3.11-.22,4.18-.23h1.27c.15-.02.31-.02.46,0-.15.02-.31.02-.46,0h-1.27c-1.06,0-2.54.12-4.16.29-1.38.13-2.75.37-4.1.71-1.03.41-1.64.69-1.65.65Z" fill="#263238"/>
      <g fill="none" opacity=".3">
        <path d="m183.73,38.47c-.16-.17-.38-.26-.61-.24-4.23-.28-8.48.02-12.63.87,1.78.06,3.27.13,5,.2,1.89.03,3.77.34,5.57.91.82-.07,1.61-.37,2.27-.87.16-.09.29-.21.4-.36.09-.16.09-.35,0-.51Z"/>
      </g>
      <path d="m181.49,40.45c.53-.09.97-.44,1.17-.94-.59.09-1.19.09-1.78,0,.44-.02.84-.25,1.08-.61-1.37.33-2.8.33-4.17,0-.48-.12-.98-.16-1.47-.14-.5-.01-.97.21-1.29.59.34.06.68.14,1,.26.36.11.69.27,1,.48.78.62.55,1.93,1.22,2.66,1.16-.63,2.5-.85,3.8-.61.26-.12.43-.39.4-.68-.14-.5-.79-.58-.96-1.01Z" fill="#263238"/>
      <path d="m167.48,38.41c-.02-.33,0-.67.07-1,.1-.78.3-1.55.6-2.28.31-.74.81-1.39,1.46-1.86.26-.21.56-.35.89-.41,0,0-.34.16-.8.53-.59.49-1.05,1.11-1.35,1.82-.29.72-.51,1.46-.65,2.22-.04.33-.12.66-.22.98Z" fill="#263238"/>
      <path d="m174.71,36.87c-.1-.24-.18-.5-.22-.76-.14-.62-.35-1.22-.62-1.79-.28-.56-.68-1.05-1.17-1.44-.39-.29-.68-.39-.67-.42s.32,0,.75.3c.55.37.99.87,1.28,1.46.28.59.47,1.22.58,1.86.07.26.09.52.07.79Z" fill="#263238"/>
      <path d="m171.74,43.8c0,.06-.35.17-.81.26-.27.08-.56.1-.84.06,0-.06.35-.18.8-.27s.83-.12.85-.05Z" fill="#263238"/>
      <path d="m172.18,43.4c0,.06-.35.18-.8.27s-.83.11-.84,0,.35-.17.8-.26c.28-.07.56-.07.84-.01Z" fill="#263238"/>
      <path d="m177.02,45.85c0,.06-.28.14-.63.19s-.65,0-.66,0,.27-.14.63-.19.65-.06.66,0Z" fill="#263238"/>
      <path d="m177.53,45.33c-.68.29-1.42.39-2.15.27.34-.12.71-.18,1.07-.19.35-.08.72-.11,1.08-.08Z" fill="#263238"/>
      <path d="m176.07,47.11c-.18,0-.36-.06-.51-.16-.8-.42-1.19-1.35-.92-2.21.04-.18.13-.34.25-.47,0,0-.09.18-.16.49-.1.4-.07.82.08,1.21.17.38.45.7.8.91.27.16.47.21.46.23Z" fill="#fff"/>
      <path d="m169.75,44.56c-.42-.59-.48-1.36-.14-2-.06.33-.09.66-.09,1,.04.34.12.68.23,1Z" fill="#fff"/>
      <polygon points="154.39 71.64 153.46 74.98 163.71 76.77 165.51 67.98 154.39 71.64" fill="#199ed9"/>
      <path d="m165.51,67.98l-15.44,8.29-8.12,9.28s-13.59-1.49-16.08-3.15-6.8-7.46-6.8-7.46c0,0,8.54-8,11-11.27s5.27-5.14,6.1-6.3,12.26-9.61,19.72-9.61c0,0,4.13-.5,6,1.2,0,0,3.75,10.39,4,10.85s-.28,8.17-.28,8.17" fill="#199ed9"/>
      <g fill="none" opacity=".3">
        <path d="m137.15,71.89c2.22-2.55,1.57-6.68,3.65-9.35,1.1-1.27,2.56-2.17,4.19-2.58,1.59-.5,3.25-.75,4.84-1.24,1.83-.57,3.55-1.44,5.11-2.55l-6.81,1.68c-.32.11-.66.14-1,.09-.41-.16-.79-.39-1.11-.69-1.3-.89-3-.53-4.57-.13-1.26.32-2.65.74-3.33,1.85-.45.93-.61,1.97-.48,3,.07,3.09-.09,6.18-.47,9.25"/>
      </g>
      <path d="m160.29,54.44c.03-.34.09-.67.16-1,.11-.82.09-1.66-.06-2.48-.15-.82-.42-1.61-.81-2.34-.3-.57-.54-.89-.51-.91.26.23.48.52.64.83.88,1.48,1.19,3.23.89,4.93-.05.34-.16.66-.31.97Z" fill="#263238"/>
      <path d="m120.59,77.3c-.26-.27-.51-.57-.72-.88-.43-.55-1-1.33-1.62-2.19-.14-.2-.32-.38-.52-.52-.18-.12-.41-.17-.63-.14-.39.05-.75.26-1,.57-.17.21-.31.45-.43.69-.04.09-.09.18-.15.27,0,0,0-.12.07-.3.09-.27.23-.52.39-.75.25-.36.64-.6,1.07-.67.26-.04.53,0,.76.15.23.15.43.34.58.57.62.87,1.18,1.66,1.57,2.24.24.3.46.62.63.96Z" fill="#263238"/>
      <path d="m154.33,57.36c-1.22.36-2.47.65-3.72.87-1.24.29-2.5.51-3.77.67,1.22-.36,2.46-.66,3.72-.88,1.24-.29,2.5-.51,3.77-.66Z" fill="#263238"/>
      <path d="m164.66,68.73c0,.06-2.94,1.58-6.63,3.41s-6.7,3.27-6.72,3.22,2.94-1.58,6.63-3.41,6.72-3.3,6.72-3.22Z" fill="#263238"/>
      <path d="m145.52,48.92s-11.85,2.49-12.66,4.16c-.92,1.89-1.35,22.8-1.35,22.8l4.87.21s3.15-16.55,3.13-16.79l7.15-1.57-1.14-8.81Z" fill="#fbbd9d"/>
      <path d="m131.49,75.33c-.29,1.59-.48,3.2-.56,4.82.17.49-.64,5,0,5.12s.35-.14.56-.84.35-2.42.66-2.38-.11,5.44.08,5.66.29.72.63.12c0,0,.2.89.71.83.48-.01.89-.35,1-.82.07-.48.84-4.36.84-4.36,0,0-.79,4.29-.37,4.37s.35.22.77-.23c.49-1.03.86-2.12,1.1-3.24l.11-3.4c.2,1.01.52,1.99.95,2.93.38.38,1.17.73,1.55.35s0-.65-.24-1.06-1-3.54-1.22-4.13-2-3.65-2-3.65l-4.57-.09Z" fill="#fbbd9d"/>
      <path d="m84.81,144.83c-.61.36,4.49,3.48,9.68,4.23,3.52.5,67.28-.11,67.28-.11,0,0,3.64,0,3.15-.85s-3-1.13-4.85-1.1c-1.18,0-60.6.25-63.5,0-4.11-.37-11.15-2.54-11.76-2.17Z" fill="#f9bb1e"/>
      <path d="m164.72,147.86h-69.16c-2.73-.24-5.4-.89-7.93-1.93-.92-.36-1.82-.8-2.68-1.29l.18.08.51.26c.46.21,1.13.53,2,.88,2.53,1,5.2,1.63,7.91,1.86h69.16v.14Z" fill="#263238"/>
      <circle cx="146.26" cy="152.4" r="3.14" fill="#363535"/>
      <path d="m149.08,152.4s0-.25-.13-.68c-.16-.6-.51-1.13-1-1.51-.34-.26-.74-.43-1.16-.5-1.03-.18-2.08.23-2.7,1.08-.71.96-.71,2.26,0,3.22.31.46.75.81,1.26,1,.46.17.96.21,1.44.13,1.05-.19,1.91-.97,2.19-2,.12-.43.1-.68.13-.68s0,.06,0,.18c0,.18-.02.35-.06.52-.14.64-.49,1.2-1,1.61-.36.28-.78.46-1.22.55-1.1.22-2.24-.22-2.9-1.13-.37-.5-.57-1.11-.57-1.73,0-.62.2-1.23.57-1.73.34-.47.82-.81,1.37-1,.49-.17,1.02-.21,1.53-.11.44.09.86.27,1.22.55.51.41.86.97,1,1.61.04.17.06.34.06.52-.02.04-.02.1-.03.1Z" fill="#263238"/>
      <circle cx="101.46" cy="152.4" r="3.14" fill="#363535"/>
      <path d="m104.29,152.4s0-.25-.13-.68c-.16-.6-.51-1.13-1-1.51-.74-.55-1.72-.69-2.59-.37-1.41.52-2.14,2.09-1.61,3.51.28.75.87,1.34,1.61,1.61.87.32,1.85.18,2.59-.37.49-.38.84-.91,1-1.51.11-.43.1-.68.13-.68,0,.06,0,.12,0,.18,0,.18-.02.35-.06.52-.14.63-.49,1.2-1,1.61-.35.28-.77.47-1.21.55-1.58.31-3.11-.72-3.42-2.3-.04-.19-.05-.37-.05-.56,0-1.23.77-2.33,1.93-2.75.49-.17,1.03-.21,1.54-.11.44.08.86.27,1.21.55.51.41.86.98,1,1.61.04.17.06.34.06.52,0,.06,0,.12,0,.18Z" fill="#263238"/>
      <path d="m184.56,155.54c0-.83,0-54.72-.09-134.88l.09.1h-108l.11-.11v134.88l-.09-.09,108,.09-108,.09h-.08V20.55h108.16v.09c-.06,80.18-.1,134.09-.1,134.9Z" fill="#f9bb1e"/>
      <rect x="182.61" y="153.58" width="2.89" height="2.89" fill="#fff"/>
      <path d="m185.49,156.47c-.01-.28-.01-.55,0-.83v-2.06l.09.09h-2.89l.11-.11h0v2.88l-.1-.09h2.07c.27-.02.55-.02.82,0h-2.98v-3h0l.1-.1h3v2.21c-.05.34-.12.68-.22,1.01Z" fill="#f9bb1e"/>
      <rect x="129.17" y="153.58" width="2.89" height="2.89" fill="#fff"/>
      <path d="m132.05,156.47c-.01-.28-.01-.55,0-.83v-2.06l.09.09h-2.89l.11-.11h0v2.88l-.1-.09h2.07c.27-.02.55-.02.82,0h-2.98v-2.97h0l.1-.1h3v2.21c-.04.33-.12.66-.22.98Z" fill="#f9bb1e"/>
      <rect x="75.73" y="153.58" width="2.89" height="2.89" fill="#fff"/>
      <path d="m78.66,156.47v-2.89l.09.09h-2.89l.11-.11h0v2.88l-.1-.09h2.07c.27-.02.55-.02.82,0h-3.1v-3h0l.1-.1h3v2.21c0,.34-.04.68-.1,1.01Z" fill="#f9bb1e"/>
      <rect x="182.59" y="19.37" width="2.89" height="2.89" fill="#fff"/>
      <path d="m185.47,22.26c-.02-.27-.02-.55,0-.82v-2.07l.09.1h-2.89l.11-.11h0v2.86l-.09-.09h2.06c.28-.01.55-.01.83,0-.26.03-.51.05-.77.05h-2.21v-2.95h0c-.09.1.13-.12.11-.1h3v.09c0,.89,0,1.62-.05,2.13s-.18.92-.19.91Z" fill="#f9bb1e"/>
      <rect x="129.15" y="19.37" width="2.89" height="2.89" fill="#fff"/>
      <path d="m132.03,22.26c-.02-.27-.02-.55,0-.82v-2.07l.1.1h-2.89l.11-.11h0v2.86l-.09-.09h2.06c.28-.01.55-.01.83,0-.26.03-.51.05-.77.05h-2.21v-3h0c-.09.1.13-.12.11-.1h3v2.22c0,.51-.24.97-.25.96Z" fill="#f9bb1e"/>
      <rect x="75.71" y="19.37" width="2.89" height="2.89" fill="#fff"/>
      <path d="m78.59,22.26c-.02-.27-.02-.55,0-.82,0-.51,0-1.22-.05-2.07l.1.1h-2.98l.11-.11h0v2.86l-.09-.09h2.06c.28-.01.55-.01.83,0-.26.03-.51.05-.77.05h-2.14v-3h0c-.09.1.13-.12.11-.1h3v2.22c0,.51-.17.97-.18.96Z" fill="#f9bb1e"/>
      <rect x="75.71" y="84.04" width="2.89" height="2.89" fill="#fff"/>
      <path d="m78.59,86.92c-.02-.27-.02-.55,0-.82,0-.51,0-1.22-.05-2.06l.1.09h-2.98s.2-.2.11-.1h0v2.86l-.09-.09c.85,0,1.56,0,2.06.05h.83c-.26.02-.51.02-.77,0h-2.14v-3h0l.11-.11h2.98v2.21c0,.5-.15.99-.16.97Z" fill="#f9bb1e"/>
      <rect x="183.29" y="79.11" width="2.89" height="2.89" fill="#fff"/>
      <path d="m186.17,82c-.02-.28-.02-.55,0-.83v-2.06l.09.09h-2.89l.11-.11h0v2.87l-.09-.1h2.06c.28-.02.55-.02.83,0h-2.98v-3h0c-.1.1.12-.13.1-.11h2.98v2.21c0,.5-.2,1.05-.21,1.04Z" fill="#f9bb1e"/>
      <circle cx="136.22" cy="56.17" r=".39" fill="#e7515b"/>
      <circle cx="163.71" cy="67.01" r=".39" fill="#e7515b"/>
      <circle cx="156.41" cy="84.23" r=".39" fill="#e7515b"/>
      <circle cx="162.17" cy="100.99" r=".39" fill="#e7515b"/>
      <path d="m158.55,50.62c.02.21-.14.4-.35.42-.21.02-.4-.14-.42-.35-.02-.21.13-.4.34-.42.22-.02.41.13.44.35Z" fill="#e7515b"/>
      <circle cx="134.51" cy="77.86" r=".39" fill="#e7515b"/>
      <path d="m161.31,58.4c0,.38-.31.69-.69.69s-.69-.31-.69-.69.31-.69.69-.69h0c.38,0,.69.31.69.69Z" fill="#e7515b"/>
      <circle cx="144.65" cy="68.01" r=".69" fill="#e7515b"/>
      <circle cx="138" cy="87.36" r=".69" fill="#e7515b"/>
      <circle cx="150" cy="111" r=".69" fill="#e7515b"/>
      <path d="m113.79,113.96c0,.38-.31.69-.69.69s-.69-.31-.69-.69.31-.69.69-.69h0c.38,0,.69.31.69.69Z" fill="#e7515b"/>
      <circle cx="85.02" cy="123.51" r=".69" fill="#e7515b"/>
      <path d="m141,139.93c0,.38-.31.69-.69.69s-.69-.31-.69-.69.31-.69.69-.69h0c.38,0,.69.31.69.69Z" fill="#e7515b"/>
      <circle cx="121.92" cy="80.08" r=".69" fill="#e7515b"/>
      <path d="m162.17,101.38l-.11-.3-.32-.9c-.27-.79-.66-1.94-1.17-3.42l-4.24-12.51v-.06c2.08-4.9,4.56-10.78,7.28-17.22v.08l-4.2-11.82-1.62-4.53.13.06-21.68,5.5.06-.08c-.53,6.65-1,12.17-1.28,16l-.36,4.55-.1,1.17c0,.27-.05.4-.05.4v-.4c0-.27,0-.67.08-1.18.07-1,.18-2.54.32-4.47.29-3.86.71-9.38,1.21-16v-.07h.06l21.68-5.53h.09v.1l1.62,4.53,4.19,11.82h0c-2.74,6.44-5.23,12.31-7.32,17.21v-.06c1.75,5.26,3.17,9.55,4.17,12.53.49,1.48.87,2.64,1.13,3.44.12.39.22.69.29.9l.14.26Z" fill="#e7515b"/>
      <path d="m140.31,139.93s0-.09,0-.14l.13-.41c.12-.37.29-.9.52-1.59l2-6c1.7-5.13,4.11-12.36,6.93-20.84v.08l-7.87-15.49c-1.42-2.8-2.81-5.52-4.14-8.15h0v-.05c2.51-7.25,4.79-13.85,6.68-19.33h0l11.67-6.47,3.21-1.77.84-.46.29-.15-.28.17-.83.48-3.19,1.81-11.63,6.54h0l-6.64,19.35v-.08c1.34,2.63,2.73,5.36,4.14,8.15,2.79,5.48,5.44,10.72,7.87,15.5v.07c-2.85,8.47-5.28,15.7-7,20.81-.86,2.55-1.55,4.57-2,6l-.55,1.58-.14.41v-.02Z" fill="#e7515b"/>
      <path d="m85.16,123.52l.14-.06.41-.15,1.6-.57,5.92-2.06,19.84-6.82-.07.08c.22-.85.45-1.75.69-2.65l5.77-22.08c.75-2.81,1.36-5.09,1.78-6.68.21-.78.37-1.39.49-1.82l.13-.47c0-.1,0-.16.06-.16s0,.06,0,.17l-.11.47c-.11.43-.26,1.04-.45,1.83l-1.71,6.7c-1.47,5.66-3.48,13.47-5.72,22.09-.23.91-.47,1.81-.68,2.65h0l-19.86,6.76-5.94,2-1.61.53-.42.14-.26.1Z" fill="#e7515b"/>
      <rect x=".07" y="82.22" width="60.07" height="23.35" fill="#fff"/>
      <rect x=".07" y="82.22" width="60.07" height="5" fill="#f9bb1e"/>
      <rect x="3.46" y="93.47" width="5.93" height="5.93" fill="#fff"/>
      <path d="m9.39,99.4c-.01-.15-.01-.3,0-.45v-1.21l-.05-4.27.11.11H3.51l.13-.13h0v5.91l-.11-.11,4.27.06h1.67c-.14.01-.27.01-.41,0H3.42v-6.02h0c-.12.11.15-.16.12-.13h6.05v.11c0,1.8,0,3.3-.06,4.34v1.19c-.02.2-.07.41-.14.6Z" fill="#263238"/>
      <line x1="9.39" y1="93.47" x2="3.46" y2="99.4" fill="none"/>
      <path d="m3.45,99.4c.9-1.08,1.86-2.09,2.88-3.05.96-1.02,1.98-1.98,3.06-2.88-.9,1.08-1.86,2.1-2.88,3.06-.96,1.02-1.98,1.97-3.06,2.87Z" fill="#e7515b"/>
      <rect x="11.18" y="93.47" width="5.93" height="5.93" fill="#263238"/>
      <rect x="18.9" y="93.47" width="5.93" height="5.93" fill="#455b64"/>
      <rect x="26.62" y="93.47" width="5.93" height="5.93" fill="#199ed9"/>
      <rect x="34.35" y="93.47" width="5.93" height="5.93" fill="#e7515b"/>
      <g fill="none" opacity=".5">
        <rect x="34.35" y="93.47" width="5.93" height="5.93" fill="#f9bb1e"/>
      </g>
      <rect x="42.07" y="93.47" width="5.93" height="5.93" fill="#e7515b"/>
      <rect x="42.07" y="93.47" width="5.93" height="5.93" fill="#cb1f46"/>
      <rect x="49.79" y="93.47" width="5.93" height="5.93" fill="#e7515b"/>
      <rect x="49.79" y="93.47" width="5.93" height="5.93" fill="#363535"/>
      <path d="m60.13,105.57v-23.35l.08.09H.15l.12-.13v23.35l-.12-.12h58.89-15.8l-43.12.06h-.12v-23.6h60.28v23.04c0,.28-.15.66-.15.66Z" fill="#263238"/>
      <rect x="191.65" y="107.1" width="96.11" height="37.42" fill="#fff"/>
      <path d="m287.75,144.52v-37.42l.07.07h-96.1l.11-.1v37.42l-.11-.1h88.9-20l-69,.05h-.1v-37.63h96.28v36.84c-.04.65-.05.87-.05.87Z" fill="#263238"/>
      <rect x="193.97" y="109.28" width="91.05" height="8.12" fill="#199ed9"/>
      <rect x="193.97" y="119.39" width="58.87" height="2.32" fill="#f9bb1e"/>
      <rect x="219.36" y="123.33" width="58.87" height="2.32" fill="#fff" stroke="#231f20" stroke-miterlimit="10"/>
      <rect x="193.97" y="127.18" width="28.33" height="2.32" fill="#cb1f46"/>
      <rect x="193.97" y="138.49" width="43.89" height="2.32" fill="#f9bb1e"/>
      <rect x="243.29" y="127.18" width="12.26" height="2.32" fill="#f9bb1e"/>
      <rect x="272.06" y="127.18" width="12.95" height="2.32" fill="#cb1f46"/>
      <path d="m209.2,120.56c0,.64-.52,1.16-1.16,1.16-.64,0-1.16-.52-1.16-1.16,0-.64.52-1.16,1.16-1.16s1.16.52,1.16,1.16h0Z" fill="#e0e0e0"/>
      <path d="m208.04,121.92c-.76,0-1.37-.6-1.38-1.36,0-.76.6-1.37,1.36-1.38.76,0,1.37.6,1.38,1.36v.02c0,.75-.61,1.36-1.36,1.36Zm0-2.32c-.55,0-1,.45-1,1s.45,1,1,1,1-.45,1-1-.45-1-1-1Z" fill="#263238"/>
      <path d="m233.91,124.45c0,.64-.52,1.16-1.16,1.16-.64,0-1.16-.52-1.16-1.16,0-.64.52-1.16,1.16-1.16s1.16.52,1.16,1.16h0Z" fill="#e0e0e0"/>
      <path d="m232.75,125.81c-.76,0-1.37-.6-1.38-1.36,0-.76.6-1.37,1.36-1.38.76,0,1.37.6,1.38,1.36v.02c0,.75-.61,1.35-1.36,1.36Zm0-2.32c-.53-.16-1.09.13-1.25.66s.13,1.09.66,1.25c.19.06.4.06.59,0,.53-.16.82-.72.66-1.25-.1-.31-.34-.56-.66-.66Z" fill="#263238"/>
      <path d="m249.41,120.44c0,.64-.52,1.16-1.16,1.16-.64,0-1.16-.52-1.16-1.16,0-.64.52-1.16,1.16-1.16s1.16.52,1.16,1.16h0Z" fill="#e0e0e0"/>
      <path d="m248.25,121.8c-.76,0-1.37-.6-1.38-1.36,0-.76.6-1.37,1.36-1.38.76,0,1.37.6,1.38,1.36v.02c0,.75-.61,1.36-1.36,1.36Zm0-2.32c-.55,0-1,.45-1,1s.45,1,1,1,1-.45,1-1-.45-1-1-1Z" fill="#263238"/>
      <rect x="193.97" y="132.37" width="76.94" height="2.32" fill="#199ed9"/>
      <path d="m209.2,133.53c0,.64-.52,1.16-1.16,1.16-.64,0-1.16-.52-1.16-1.16,0-.64.52-1.16,1.16-1.16s1.16.52,1.16,1.16h0Z" fill="#e0e0e0"/>
      <path d="m208.04,134.89c-.75,0-1.36-.61-1.36-1.36s.61-1.36,1.36-1.36,1.36.61,1.36,1.36h0c0,.75-.61,1.36-1.36,1.36Zm0-2.32c-.55,0-1,.45-1,1s.45,1,1,1,1-.45,1-1c0-.55-.45-1-1-1h0Z" fill="#263238"/>
      <path d="m249.41,133.41c0,.64-.52,1.16-1.16,1.16-.64,0-1.16-.52-1.16-1.16,0-.64.52-1.16,1.16-1.16s1.16.52,1.16,1.16h0Z" fill="#e0e0e0"/>
      <path d="m248.25,134.73c-.75,0-1.36-.61-1.36-1.36s.61-1.36,1.36-1.36,1.36.61,1.36,1.36h0c0,.75-.61,1.36-1.36,1.36Zm0-2.32c-.55,0-1,.45-1,1s.45,1,1,1,1-.45,1-1c-.02-.54-.46-.96-1-.96v-.04Z" fill="#263238"/>
      <path d="m269.59,124.49c0,.64-.52,1.16-1.16,1.16-.64,0-1.16-.52-1.16-1.16,0-.64.52-1.16,1.16-1.16s1.16.52,1.16,1.16h0Z" fill="#e0e0e0"/>
      <path d="m268.43,125.86c-.76,0-1.37-.6-1.38-1.36,0-.76.6-1.37,1.36-1.38.76,0,1.37.6,1.38,1.36h0c0,.76-.61,1.37-1.36,1.38Zm0-2.32c-.55,0-1,.45-1,1s.45,1,1,1,1-.45,1-1-.45-1-1-1Z" fill="#263238"/>
      <path d="m218.73,128.34c0,.64-.52,1.16-1.16,1.16-.64,0-1.16-.52-1.16-1.16,0-.64.52-1.16,1.16-1.16s1.16.52,1.16,1.16h0Z" fill="#e0e0e0"/>
      <path d="m217.57,129.73c-.76,0-1.37-.6-1.38-1.36,0-.76.6-1.37,1.36-1.38.76,0,1.37.6,1.38,1.36v.02c0,.75-.61,1.36-1.36,1.36Zm0-2.32c-.55,0-1,.45-1,1s.45,1,1,1,1-.45,1-1c.02-.55-.42-1.01-.97-1.03-.01,0-.02,0-.03,0v.03Z" fill="#263238"/>
      <path d="m234.66,139.8c0,.64-.52,1.16-1.16,1.16-.64,0-1.16-.52-1.16-1.16,0-.64.52-1.16,1.16-1.16s1.16.52,1.16,1.16h0Z" fill="#e0e0e0"/>
      <path d="m233.53,141.16c-.75,0-1.36-.61-1.36-1.36s.61-1.36,1.36-1.36,1.36.61,1.36,1.36h0c0,.75-.61,1.36-1.36,1.36Zm0-2.32c-.55,0-1,.45-1,1s.45,1,1,1,1-.45,1-1c0-.55-.45-1-1-1h0Z" fill="#263238"/>
      <polygon points="201.07 111.79 201.07 114.03 202.28 115.2 203.48 114.03 203.48 111.79 201.07 111.79" fill="#cb1f46"/>
      <path d="m201.07,111.79c.21-.01.42-.01.63,0h1.86v2.33h0l-.34.34-.87.84-.07.07-.07-.07-1.19-1.18h0v-1.65c0-.2.01-.4.05-.59v2.24-.06l1.21,1.16h-.14l.86-.84.34-.34v.08-2.24l.09.09h-1.73c-.21-.04-.43-.1-.63-.18Z" fill="#263238"/>
      <path d="m202.27,140.81c-.06,0-.1-5.73-.1-12.8s0-12.81.1-12.81.11,5.73.11,12.81-.05,12.8-.11,12.8Z" fill="#263238"/>
      <rect x="206.51" y="15.51" width="36.6" height="47.33" fill="#fff"/>
      <path d="m243.1,62.83v-13.16c0-8.32,0-20.13-.05-34.16l.09.09h-36.6l.11-.1v47.32l-.09-.08h33.98-34.09V15.22h36.8v47.21c-.03.14-.08.27-.15.4Z" fill="#263238"/>
      <polygon points="206.43 19.97 233.28 19.97 233.28 18.36 243.11 18.36 243.11 15.51 206.51 15.51 206.43 19.97" fill="#f9bb1e"/>
      <rect x="208.68" y="22.17" width="22.35" height="24.64" fill="#e0e0e0"/>
      <rect x="237.09" y="25.13" width="4.34" height="1.03" fill="#263238"/>
      <rect x="237.09" y="29.44" width="4.34" height="1.03" fill="#263238"/>
      <rect x="237.09" y="33.88" width="4.34" height="1.03" fill="#263238"/>
      <rect x="209.01" y="48.91" width="30.34" height="2.75" fill="#cb1f46"/>
      <rect x="209.01" y="53.25" width="30.34" height="2.75" fill="#e0e0e0"/>
      <rect x="209.01" y="57.48" width="30.34" height="2.75" fill="#ebebeb"/>
      <rect x="232.67" y="24.25" width="2.79" height="2.79" fill="#e0e0e0"/>
      <rect x="232.67" y="28.5" width="2.79" height="2.79" fill="#ebebeb"/>
      <rect x="232.67" y="32.81" width="2.79" height="2.79" fill="#f5f5f5"/>
      <path d="m210.06,17.88c0,.38-.31.69-.69.69s-.69-.31-.69-.69.31-.69.69-.69h0c.38,0,.69.31.69.69Z" fill="#fff"/>
      <path d="m209.37,18.59c-.39,0-.71-.31-.72-.7,0-.39.31-.71.7-.72s.71.31.72.7c0,0,0,0,0,0,0,.39-.3.7-.69.71,0,0,0,0-.01,0Zm0-1.39c-.38,0-.69.3-.7.68,0,.38.3.69.68.7.38,0,.69-.3.7-.68,0,0,0-.01,0-.02,0-.37-.31-.67-.68-.68Z" fill="#263238"/>
      <path d="m212.29,17.88c0,.38-.31.69-.69.69s-.69-.31-.69-.69.31-.69.69-.69h0c.38,0,.69.31.69.69Z" fill="#fff"/>
      <path d="m211.6,18.59c-.39,0-.71-.31-.72-.7,0-.39.31-.71.7-.72s.71.31.72.7c0,0,0,0,0,0,0,.39-.3.7-.69.71,0,0,0,0-.01,0Zm0-1.39c-.38.05-.65.39-.6.77.04.32.29.56.6.6.38-.05.65-.39.6-.77-.04-.32-.29-.56-.6-.6Z" fill="#263238"/>
      <path d="m214.53,17.88c0,.38-.31.69-.69.69s-.69-.31-.69-.69.31-.69.69-.69h0c.38,0,.69.31.69.69Z" fill="#fff"/>
      <path d="m213.84,18.59c-.39-.05-.67-.4-.62-.79.04-.33.3-.58.62-.62.39.05.67.4.62.79-.04.33-.3.58-.62.62Zm0-1.39c-.38,0-.69.3-.7.68,0,.38.3.69.68.7.38,0,.69-.3.7-.68,0,0,0-.01,0-.02,0-.37-.31-.67-.68-.68Z" fill="#263238"/>
      <polygon points="204.08 79.94 206.37 92.1 208.26 88.71 212.31 94.77 214.33 93.41 210.28 87.35 214 86.78 204.08 79.94" fill="#263238"/>
    </g>
  </g>
</svg>