<?xml version="1.0" encoding="UTF-8"?>
<svg id="Layer_2" data-name="Layer 2" xmlns="http://www.w3.org/2000/svg" viewBox="0 0 229.1 182.3">
  <g id="Layer_1-2" data-name="Layer 1">
    <g>
      <path d="m19.66,148.7c1.83-.87,3.89-1.12,5.88-.72,1.08.1,2.1.56,2.9,1.3.77.81.77,2.08,0,2.89-.54.36-1.18.53-1.83.47-1.55,0-3.28-.29-4.52.64-.7.53-1.17,1.42-2,1.68-.87.2-1.77-.21-2.2-1-.4-.78-.49-1.68-.25-2.52.21-1.18.96-2.19,2.02-2.74Z" fill="#ebebeb"/>
      <path d="m15.57,140.79c1.09,1.57,3.22,1,4.2.1.9-1.04,1.51-2.3,1.78-3.65.87-3,1.74-6.16,1.1-9.23-.16-.92-.57-1.79-1.18-2.5-.64-.71-1.6-1.04-2.54-.85-1.04.42-1.85,1.27-2.22,2.33-1.42,2.95-2.16,6.17-2.17,9.44-.11,1.52.24,3.04,1,4.36" fill="#ebebeb"/>
      <path d="m12.57,143.03c1.14-1.49,1.47-3.44.89-5.22-.6-1.75-1.67-3.31-3.1-4.49-1.62-1.44-3.5-2.55-5.54-3.27-.79-.32-1.64-.46-2.49-.42-.86.05-1.65.52-2.09,1.26-.58,1.12,0,2.47.58,3.57,1.07,1.94,2.28,3.79,3.64,5.54,1,1.48,2.38,2.67,4,3.43,1.66.63,3.39.56,4.27-.6" fill="#ebebeb"/>
      <path d="m15.5,164.32c.06-.23.09-.47.1-.71,0-.52.11-1.16.19-1.93.09-.95.24-1.9.43-2.84.25-1.14.58-2.26,1-3.35.43-1.08,1-2.09,1.71-3,.58-.75,1.32-1.37,2.16-1.8.58-.28,1.19-.48,1.83-.57.24,0,.47-.04.7-.1-.24-.02-.48-.02-.72,0-.66.05-1.3.22-1.9.49-.89.42-1.67,1.05-2.28,1.82-.74.94-1.34,1.98-1.77,3.09-.43,1.1-.77,2.24-1,3.4-.19.95-.32,1.91-.38,2.88-.06.82-.09,1.48-.1,1.94-.01.23,0,.46.03.68Z" fill="#e0e0e0"/>
      <path d="m15.63,162.84c.02-.11.02-.22,0-.33v-4.4c.07-2.91.32-6,.81-10.48.46-4.16,1.07-9,1.73-12.16.14-.71.28-1.36.41-1.92s.23-1.06.34-1.45l.22-.91c.01-.11.01-.22,0-.33-.05.1-.09.2-.11.31l-.27.9c-.13.39-.25.88-.39,1.44s-.3,1.2-.46,1.92c-.8,3.73-1.41,7.49-1.81,11.28-.49,4.44-.71,8.48-.73,11.4,0,1.46,0,2.65.05,3.46l.06.94c.04.11.09.23.15.33Z" fill="#e0e0e0"/>
      <path d="m15.65,155.05c.03-.33.03-.67,0-1-.05-.89-.15-1.78-.3-2.66-.21-1.31-.5-2.6-.86-3.88-.42-1.57-.96-3.1-1.62-4.59-1.13-2.74-2.75-5.25-4.77-7.42-.35-.36-.73-.69-1.12-1-.17-.15-.32-.29-.48-.41l-.43-.3c-.53-.35-.82-.54-.83-.53.95.76,1.85,1.56,2.71,2.42,1.96,2.18,3.53,4.68,4.65,7.39.64,1.48,1.19,3,1.63,4.55.42,1.43.71,2.74.92,3.84.21,1.1.32,2,.39,2.64.01.32.05.64.11.95Z" fill="#e0e0e0"/>
      <polygon points="8.13 168.79 8.91 179.49 22.65 179.49 23.43 168.79 8.13 168.79" fill="#e0e0e0"/>
      <rect x="6.8" y="164.58" width="18.27" height="4.22" fill="#e0e0e0"/>
      <polygon points="6.8 179.08 6.8 180.24 7.66 180.24 24.76 180.24 24.76 179.08 6.8 179.08" fill="#ebebeb"/>
      <polygon points="8.5 182.3 7.66 180.24 24.11 180.24 23.13 182.3 8.5 182.3" fill="#e0e0e0"/>
      <path d="m23.17,172.32l-.07.1-.2.27-.8,1v.05-.05l-2-2.72h.11l-1.93,2.74-.06.09-.07-.08c-.72-.85-1.49-1.78-2.3-2.73h.14l-.13.16-2,2.58-.07.08-.07-.09-1.93-2.74h.11c-1,1.08-1.76,2-2.39,2.71v.05-.05l-.75-1.26-.19-.33-.06-.12.08.11.22.32.78,1.23h-.08c.62-.71,1.41-1.65,2.35-2.75l.06-.07v.08l2,2.73h-.13c.65-.82,1.33-1.68,2-2.57l.12-.16.07-.08.06.08,2.29,2.73h-.13l2-2.73.06-.08v.08l1.93,2.75h-.07l.83-1,.22-.26c-.03-.07-.01-.07,0-.07Z" fill="#f5f5f5"/>
      <path d="m23.61,168.72s-3.44.09-7.69.09-7.68,0-7.68-.09,3.44-.08,7.68-.08,7.69.03,7.69.08Z" fill="#f5f5f5"/>
      <path d="m24.3,180.32s-3.74.09-8.36.09-8.36,0-8.36-.09,3.75-.08,8.36-.08,8.36.08,8.36.08Z" fill="#f5f5f5"/>
      <rect x="3.56" width="171.41" height="102.58" fill="#f5f5f5"/>
      <rect x="194.62" y="155.02" width="28.03" height="27.12" fill="#f5f5f5"/>
      <polygon points="196.79 179.82 204.55 165.87 210.89 174.79 214.75 170.05 220.48 179.82 196.79 179.82" fill="#e0e0e0"/>
      <path d="m213.59,163.15c0,1.1-.9,2-2,2s-2-.9-2-2,.9-2,2-2,2,.9,2,2Z" fill="#e0e0e0"/>
      <g fill="none" opacity=".3">
        <path d="m220.47,179.9v-6.26c0-4,0-9.6-.06-16.37l.11.11h-23.68l.13-.13h0v22.61l-.12-.12,17.12.06h4.83-22.12v-22.48h0l.13-.14h23.8v.12c0,6.8,0,12.47-.06,16.45v6.08c-.07.04-.07.07-.08.07Z" fill="#e0e0e0"/>
      </g>
      <rect x="10.45" y="10.56" width="173.31" height="98.52" fill="#e0e0e0"/>
      <path d="m203.91,181.85c0,.06-45.54.11-101.72.11s-101.73-.05-101.73-.11,45.54-.11,101.73-.11,101.72.05,101.72.11Z" fill="#263238"/>
      <path d="m221.73,155.88c.91.42,1.61,1.2,1.94,2.15.32.94.42,1.95.29,2.94-.32,1.97-1.14,3.83-2.4,5.39-1.62-1.38-2-3.82-2.15-5.08-.2-2,.65-5.67,2.32-5.4" fill="#cb1f46"/>
      <path d="m223.47,169.49c-.23-1.11.15-2.25,1-3,.85-.74,1.96-1.1,3.08-1,.52-.02,1.02.2,1.36.59.25.42.25.95,0,1.37-.24.41-.59.76-1,1-1.27.97-2.9,1.34-4.46,1" fill="#199ed9"/>
      <path d="m220.78,170.6c-.49-2.33-2.07-4.28-4.25-5.24-.51-.32-1.17-.32-1.68,0-.36.5-.38,1.16-.06,1.68,1.06,2.33,3.44,3.79,6,3.68" fill="#f9bb1e"/>
      <path d="m221.3,175.48c0-.14.03-.27.06-.4,0-.25.12-.62.22-1.07.24-1.19.64-2.34,1.18-3.42.55-1.09,1.38-2.01,2.41-2.67.31-.2.65-.35,1-.46.09-.04.19-.07.29-.08h.1c-.47.17-.92.38-1.34.63-1,.67-1.81,1.59-2.35,2.66-.53,1.08-.93,2.21-1.2,3.38l-.26,1.06c-.03.13-.06.25-.11.37Z" fill="#263238"/>
      <path d="m221.3,158.76v.66c0,.43.06,1,.09,1.81.07,1.53.13,3.64.15,6s0,4.45-.06,6c0,.76,0,1.38-.06,1.81v.49c0,.06,0,.11,0,.17v-8.48c0-2.36-.06-4.45-.11-6,0-.75,0-1.37-.05-1.81v-.49c.04-.1.04-.16.04-.16Z" fill="#263238"/>
      <path d="m216.89,167.13l.35.16c.14.06.27.13.4.21.15.09.32.19.5.32l.28.21.3.24c.21.18.42.37.61.57.43.47.82.98,1.15,1.52.32.55.58,1.14.78,1.75.08.28.16.55.21.81s0,.25.07.37v.35c.01.2.01.39,0,.59.01.15.01.31,0,.46.02.13.02.25,0,.38,0,0,0-.55-.09-1.42l-.05-.34c0-.12,0-.24-.07-.37s-.14-.52-.22-.79c-.2-.6-.46-1.17-.78-1.72-.32-.54-.7-1.05-1.13-1.51-.19-.2-.38-.39-.59-.57-.1-.08-.19-.17-.29-.24l-.27-.21c-.67-.52-1.18-.74-1.16-.77Z" fill="#263238"/>
      <polygon points="224.57 182.27 218.75 182.27 217.56 173.74 225.68 173.74 224.57 182.27" fill="#263238"/>
      <path d="m225.15,177.67c-2.33.12-4.67.12-7,0,0,0,1.58-.08,3.52-.08s3.48.04,3.48.08Z" fill="#fafbfb"/>
      <path d="m225.15,178.18s-1.57.08-3.51.08-3.52,0-3.52-.08,1.58-.08,3.52-.08,3.51.03,3.51.08Z" fill="#fafbfb"/>
      <rect x="162.1" y="154.09" width="45.75" height="28.17" rx=".68" ry=".68" fill="#363535"/>
      <polygon points="185.45 165.34 189.21 167.36 185.6 169.74 182 172.11 181.85 167.72 181.7 163.32 185.45 165.34" fill="#fff"/>
      <path d="m204.55,179.44c0,.05-8.76.09-19.57.09s-19.58,0-19.58-.07,8.77-.09,19.58-.09,19.57.02,19.57.07Z" fill="#fff"/>
      <path d="m166.09,179.46c0,.28-.22.5-.5.5s-.5-.22-.5-.5.22-.5.5-.5.5.22.5.5Z" fill="#fff"/>
      <rect x="85.08" y="140.61" width="66.78" height="41.12" rx=".93" ry=".93" fill="#cb1f46"/>
      <polygon points="119.16 157.03 124.65 159.98 119.39 163.44 114.12 166.91 113.9 160.5 113.68 154.08 119.16 157.03" fill="#fff"/>
      <path d="m147.04,177.61c0,.06-12.79.12-28.57.12s-28.57,0-28.57-.1,12.79-.12,28.57-.12,28.57.04,28.57.1Z" fill="#fff"/>
      <path d="m90.9,177.63c0,.4-.32.72-.72.72-.4,0-.72-.32-.72-.72s.32-.72.72-.72h0c.4,0,.72.32.72.72Z" fill="#fff"/>
      <rect x="88.65" y="158.25" width="38.32" height="23.59" rx="2.14" ry="2.14" fill="#f9bb1e"/>
      <polygon points="108.21 167.67 111.35 169.36 108.33 171.35 105.31 173.34 105.19 169.66 105.06 165.98 108.21 167.67" fill="#fff"/>
      <path d="m124.2,179.48c0,.06-7.34.11-16.39.12s-16.4,0-16.4-.11,7.34-.12,16.4-.12,16.39.04,16.39.11Z" fill="#fff"/>
      <path d="m91.99,179.49c-.04.23-.25.39-.48.35-.18-.03-.32-.17-.35-.35,0-.23.18-.41.41-.41.23,0,.41.17.42.4,0,0,0,0,0,.01Z" fill="#fff"/>
      <rect x="17.1" y="21.38" width="171.6" height="109.31" fill="#fff"/>
      <path d="m188.81,130.32c0-.85,0-42.23-.1-109.31l.1.1H17.22l.12-.13v109.31l-.11-.13,171.6.13-171.6.13h-.12V20.83h171.81v.11c-.08,67.11-.11,108.49-.11,109.38Z" fill="#263238"/>
      <path d="m188.9,27.52c0,.07-38.46.12-85.89.12s-85.9-.05-85.9-.12,38.45-.13,85.9-.13,85.89.06,85.89.13Z" fill="#263238"/>
      <path d="m22.78,23.47c0,.61-.5,1.11-1.11,1.11-.61,0-1.11-.5-1.11-1.11s.5-1.11,1.11-1.11c0,0,0,0,0,0,.61,0,1.1.5,1.1,1.11Z" fill="#263238"/>
      <path d="m26.17,23.47c0,.61-.5,1.11-1.11,1.11-.61,0-1.11-.5-1.11-1.11s.5-1.11,1.11-1.11,1.11.5,1.11,1.11h0Z" fill="#263238"/>
      <path d="m29.55,23.47c0,.61-.5,1.11-1.11,1.11-.61,0-1.11-.5-1.11-1.11s.5-1.11,1.11-1.11,1.11.5,1.11,1.11h0Z" fill="#263238"/>
      <rect x="28.61" y="86.42" width="35.39" height="34.24" fill="#f9bb1e"/>
      <g fill="none" opacity=".3">
        <polygon points="31.35 117.72 41.14 100.11 49.15 111.37 54.01 105.39 61.25 117.72 31.35 117.72"/>
      </g>
      <g fill="none" opacity=".3">
        <path d="m52.55,96.68c0,1.41-1.14,2.55-2.55,2.55s-2.55-1.14-2.55-2.55c0-1.41,1.14-2.55,2.55-2.55s2.55,1.14,2.55,2.55h0Z"/>
      </g>
      <g fill="none" opacity=".3">
        <path d="m61.24,117.82v-7.89c0-5,0-12.13-.07-20.68l.14.15h-29.89l.16-.16h0v28.5l-.15-.15,21.62.08h6.16-6.06l-21.72.08h-.14v-28.65h0c-.15.15.2-.21.17-.17h30.04v.14c0,8.59-.06,15.74-.07,20.77v7.68c-.13.26-.13.3-.19.3Z"/>
      </g>
      <rect x="68.9" y="92.93" width="23.95" height="1.2" fill="#363535"/>
      <path d="m101.17,98.1c0,.07-7.19.12-16.06.12s-16.07-.05-16.07-.12,7.19-.12,16.07-.12,16.06.05,16.06.12Z" fill="#263238"/>
      <path d="m101.17,101.46c0,.07-7.19.12-16.06.12s-16.07,0-16.07-.12,7.19-.12,16.07-.12,16.06.05,16.06.12Z" fill="#263238"/>
      <path d="m101.17,104.82c0,.07-7.19.12-16.06.12s-16.07,0-16.07-.12,7.19-.12,16.07-.12,16.06.05,16.06.12Z" fill="#263238"/>
      <path d="m101.17,108.18c0,.07-7.19.12-16.06.12s-16.07,0-16.07-.12,7.19-.13,16.07-.13,16.06.06,16.06.13Z" fill="#263238"/>
      <path d="m101.17,111.54c0,.07-7.19.12-16.06.12s-16.07,0-16.07-.12,7.19-.13,16.07-.13,16.06.06,16.06.13Z" fill="#263238"/>
      <path d="m85.54,114.62c0,.07-3.69.13-8.25.13s-8.25-.06-8.25-.13,3.69-.12,8.25-.12,8.25.06,8.25.12Z" fill="#263238"/>
      <rect x="146.27" y="90.9" width="23.95" height="1.2" fill="#f9bb1e"/>
      <path d="m178.55,96.07c0,.07-7.2.13-16.07.13s-16.07-.06-16.07-.13,7.2-.12,16.07-.12,16.07.06,16.07.12Z" fill="#263238"/>
      <path d="m178.55,99.43c0,.07-7.2.13-16.07.13s-16.07-.06-16.07-.13,7.2-.12,16.07-.12,16.07.06,16.07.12Z" fill="#263238"/>
      <path d="m178.55,102.79c0,.07-7.2.13-16.07.13s-16.07-.06-16.07-.13,7.2-.12,16.07-.12,16.07.05,16.07.12Z" fill="#263238"/>
      <path d="m178.55,106.15c0,.07-7.2.13-16.07.13s-16.07-.06-16.07-.13,7.2-.12,16.07-.12,16.07.05,16.07.12Z" fill="#263238"/>
      <path d="m178.55,109.51c0,.07-7.2.13-16.07.13s-16.07-.06-16.07-.13,7.2-.12,16.07-.12,16.07.05,16.07.12Z" fill="#263238"/>
      <path d="m162.92,112.6c0,.07-3.7.12-8.25.12s-8.26-.05-8.26-.12,3.7-.13,8.26-.13,8.25.06,8.25.13Z" fill="#263238"/>
      <path d="m141.3,121.81c.39-.11.79-.16,1.19-.12-.25.25-.07.07-.13.12h0v-.87c0-.11.05-.34.09-.34s.06.13.08.34,0,.24,0,.38v.45h0l-.12.13c-.37.04-.75.01-1.11-.09Z" fill="#263238"/>
      <path d="m136.24,121.81c.84-.16,1.7-.16,2.54,0-.84.17-1.7.17-2.54,0Z" fill="#263238"/>
      <path d="m131.16,121.81c.84-.16,1.7-.16,2.54,0-.84.17-1.7.17-2.54,0Z" fill="#263238"/>
      <path d="m126.08,121.81c.84-.16,1.7-.16,2.54,0-.84.17-1.7.17-2.54,0Z" fill="#263238"/>
      <path d="m121,121.81c.84-.16,1.7-.16,2.54,0-.84.17-1.7.17-2.54,0Z" fill="#263238"/>
      <path d="m115.92,121.81c.41-.11.84-.16,1.27-.12.43-.04.86,0,1.27.12-.41.13-.84.17-1.27.13-.43.04-.86,0-1.27-.13Z" fill="#263238"/>
      <path d="m110.85,121.81c.84-.16,1.69-.16,2.53,0-.83.17-1.7.17-2.53,0Z" fill="#263238"/>
      <path d="m107.12,120.63c.12.38.16.78.12,1.18-.24-.24-.07-.06-.12-.12h.84c.11,0,.35,0,.35.08s-.14.07-.35.09h-.84l-.12-.13c-.03-.37.01-.74.12-1.1Z" fill="#263238"/>
      <path d="m107.12,115.73c.12.39.16.81.12,1.22.34.07.55.39.49.73s-.39.55-.73.49-.55-.39-.49-.73c.05-.25.24-.44.49-.49-.04-.41,0-.83.12-1.22Z" fill="#263238"/>
      <path d="m107.12,110.82c.12.4.16.82.12,1.23.34.07.55.39.49.73s-.39.55-.73.49-.55-.39-.49-.73c.05-.25.24-.44.49-.49-.04-.41,0-.83.12-1.23Z" fill="#263238"/>
      <path d="m107.12,105.92c.12.4.16.82.12,1.23.34.07.55.39.49.73s-.39.55-.73.49-.55-.39-.49-.73c.05-.25.24-.44.49-.49-.04-.41,0-.83.12-1.23Z" fill="#263238"/>
      <path d="m107.12,101.02c.12.39.16.81.12,1.22.34.07.55.39.49.73s-.39.55-.73.49-.55-.39-.49-.73c.05-.25.24-.44.49-.49-.04-.41,0-.83.12-1.22Z" fill="#263238"/>
      <path d="m107.12,96.12c.12.39.16.81.12,1.22.34.07.55.39.49.73s-.39.55-.73.49-.55-.39-.49-.73c.05-.25.24-.44.49-.49-.04-.41,0-.83.12-1.22Z" fill="#263238"/>
      <path d="m107.12,91.21c.68-3.45,4.02-5.69,7.47-5.01,3.45.68,5.69,4.02,5.01,7.47s-4.02,5.69-7.47,5.01c-2.98-.59-5.13-3.2-5.13-6.24-.04-.41,0-.83.12-1.23Z" fill="#263238"/>
      <path d="m108.3,87.58c-.38.12-.79.16-1.19.12l.12-.12h0v.83c0,.11-.06.34-.09.34s-.07-.13-.09-.34,0-.24,0-.38v-.45h0c.05-.06-.13.12.12-.13.38-.03.77.01,1.13.13Z" fill="#263238"/>
      <path d="m113.38,87.58c-.84.16-1.69.16-2.53,0,.83-.17,1.7-.17,2.53,0Z" fill="#263238"/>
      <path d="m118.46,87.58c-.41.12-.84.16-1.27.12-.43.04-.86,0-1.27-.12.41-.13.84-.17,1.27-.13.43-.04.86,0,1.27.13Z" fill="#263238"/>
      <path d="m123.54,87.58c-.84.16-1.7.16-2.54,0,.84-.17,1.7-.17,2.54,0Z" fill="#263238"/>
      <path d="m128.62,87.58c-.84.16-1.7.16-2.54,0,.84-.17,1.7-.17,2.54,0Z" fill="#263238"/>
      <path d="m133.7,87.58c-.84.16-1.7.16-2.54,0,.84-.17,1.7-.17,2.54,0Z" fill="#263238"/>
      <path d="m138.78,87.58c-.84.16-1.7.16-2.54,0,.84-.17,1.7-.17,2.54,0Z" fill="#263238"/>
      <path d="m142.51,88.76c-.13-.38-.17-.78-.13-1.18l.13.12h-.47c-.12,0-.25,0-.37,0-.22,0-.35,0-.35-.08s.13-.07.35-.09h.84c.05.06-.13-.12.12.13.02.37-.02.74-.12,1.1Z" fill="#263238"/>
      <path d="m142.51,93.67c-.17-.81-.17-1.65,0-2.46.16.81.16,1.65,0,2.46Z" fill="#263238"/>
      <path d="m142.51,98.57c-.17-.81-.17-1.64,0-2.45.16.81.16,1.64,0,2.45Z" fill="#263238"/>
      <path d="m142.51,103.47c-.17-.81-.17-1.64,0-2.45.16.81.16,1.64,0,2.45Z" fill="#263238"/>
      <path d="m142.51,108.37c-.17-.81-.17-1.64,0-2.45.16.81.16,1.64,0,2.45Z" fill="#263238"/>
      <path d="m142.51,113.32c-.13-.39-.17-.81-.13-1.22-.04-.41,0-.83.13-1.23.11.4.16.82.12,1.23.04.41,0,.82-.12,1.22Z" fill="#263238"/>
      <path d="m142.51,118.18c-.13-.4-.17-.82-.13-1.23-.04-.41,0-.83.13-1.22.12.4.16.81.12,1.22.04.41,0,.83-.12,1.23Z" fill="#263238"/>
      <path d="m131.65,54.98v-13.73l.09.09h-22.23l.11-.11h0v13.68l-.1-.11h21.83-22.05v-13.48h0c-.1.1.14-.14.12-.11h22.32v.09c0,4.19,0,7.62-.05,10v3.44c-.04.16-.04.24-.04.24Z" fill="#cb1f46"/>
      <polygon points="120.67 47 122.5 47.98 120.75 49.13 118.99 50.29 118.92 48.15 118.85 46.01 120.67 47" fill="#cb1f46"/>
      <path d="m130.04,53.61c0,.06-4.26.11-9.51.11s-9.51-.05-9.51-.11,4.26-.11,9.51-.11,9.51.05,9.51.11Z" fill="#cb1f46"/>
      <circle cx="111.12" cy="53.61" r=".24" fill="#e7515b"/>
      <rect x="136.65" y="42.89" width="23.95" height="1.2" fill="#199ed9"/>
      <path d="m168.92,48.06c0,.07-7.19.13-16.06.13s-16.07-.06-16.07-.13,7.19-.12,16.07-.12,16.06.05,16.06.12Z" fill="#263238"/>
      <path d="m168.92,51.42c0,.07-7.19.12-16.06.12s-16.07,0-16.07-.12,7.19-.12,16.07-.12,16.06.02,16.06.12Z" fill="#263238"/>
      <path d="m131.65,75.09v-13.73l.09.09h-22.23l.11-.11h0v13.67l-.1-.11h20.6-20.82v-13.77h0l.12-.12h22.32v.09c0,4.19,0,7.62-.05,10v3.44c-.04.47-.04.55-.04.55Z" fill="#cb1f46"/>
      <polygon points="120.67 67.1 122.5 68.09 120.75 69.24 118.99 70.39 118.92 68.26 118.85 66.12 120.67 67.1" fill="#cb1f46"/>
      <path d="m130.04,73.72c0,.06-4.26.11-9.51.11s-9.51,0-9.51-.11,4.26-.12,9.51-.12,9.51.06,9.51.12Z" fill="#cb1f46"/>
      <circle cx="111.12" cy="73.72" r=".24" fill="#e7515b"/>
      <rect x="136.65" y="63" width="23.95" height="1.2" fill="#199ed9"/>
      <path d="m168.92,68.17c0,.07-7.19.12-16.06.12s-16.07,0-16.07-.12,7.19-.12,16.07-.12,16.06.05,16.06.12Z" fill="#263238"/>
      <path d="m168.92,71.53c0,.07-7.19.12-16.06.12s-16.07,0-16.07-.12,7.19-.13,16.07-.13,16.06.06,16.06.13Z" fill="#263238"/>
      <path d="m97.72,79.91c.35-.12.72-.16,1.09-.12l-.11.12h0v-.4c0-.11,0-.23,0-.34,0-.2.05-.32.08-.32s.06.12.08.32,0,.21,0,.34v.4h0c-.05.05.11-.12-.12.11-.34.03-.69-.01-1.02-.11Z" fill="#e0e0e0"/>
      <path d="m93.37,79.91c.35-.12.72-.16,1.09-.12.36-.04.73,0,1.08.12-.35.11-.72.15-1.08.11-.37.03-.74,0-1.09-.11Z" fill="#e0e0e0"/>
      <path d="m89.02,79.91c.35-.12.72-.16,1.08-.12.37-.04.74,0,1.09.12-.35.11-.72.15-1.09.11-.36.04-.73,0-1.08-.11Z" fill="#e0e0e0"/>
      <path d="m84.66,79.91c.72-.16,1.46-.16,2.18,0-.72.15-1.46.15-2.18,0Z" fill="#e0e0e0"/>
      <path d="m80.3,79.91c.72-.16,1.46-.16,2.18,0-.72.15-1.46.15-2.18,0Z" fill="#e0e0e0"/>
      <path d="m75.96,79.91c.35-.12.72-.16,1.09-.12.36-.04.73,0,1.08.12-.35.11-.72.15-1.08.11-.37.03-.74,0-1.09-.11Z" fill="#e0e0e0"/>
      <path d="m71.61,79.91c.35-.12.72-.16,1.08-.12.37-.04.74,0,1.09.12-.35.11-.72.14-1.09.11-.36.04-.73,0-1.08-.11Z" fill="#e0e0e0"/>
      <path d="m67.3,79.91c.72-.16,1.46-.16,2.18,0-.72.15-1.46.15-2.18,0Z" fill="#e0e0e0"/>
      <path d="m62.9,79.91c.72-.16,1.46-.16,2.18,0-.72.15-1.46.15-2.18,0Z" fill="#e0e0e0"/>
      <path d="m58.55,79.91c.35-.12.72-.16,1.09-.12.36-.04.73,0,1.08.12-.35.11-.72.15-1.08.11-.37.04-.74,0-1.09-.11Z" fill="#e0e0e0"/>
      <path d="m54.19,79.91c.72-.16,1.46-.16,2.18,0-.72.15-1.46.15-2.18,0Z" fill="#e0e0e0"/>
      <path d="m49.84,79.91c.72-.16,1.46-.16,2.18,0-.72.15-1.46.15-2.18,0Z" fill="#e0e0e0"/>
      <path d="m45.49,79.91c.72-.16,1.46-.16,2.18,0-.72.15-1.46.15-2.18,0Z" fill="#e0e0e0"/>
      <path d="m41.14,79.91c.35-.12.72-.16,1.08-.12.37-.04.74,0,1.09.12-.35.11-.72.15-1.09.11-.36.04-.73,0-1.08-.11Z" fill="#e0e0e0"/>
      <path d="m36.78,79.91c.72-.16,1.46-.16,2.18,0-.72.15-1.46.15-2.18,0Z" fill="#e0e0e0"/>
      <path d="m32.43,79.91c.72-.16,1.46-.16,2.18,0-.72.15-1.46.15-2.18,0Z" fill="#e0e0e0"/>
      <path d="m29.16,78.82c.12.35.16.72.12,1.09l-.12-.12h.78c.19,0,.31,0,.31.08s-.12.06-.31.08h-.78l-.11-.11c-.03-.34.01-.69.11-1.02Z" fill="#e0e0e0"/>
      <path d="m29.16,74.53c.16.7.16,1.44,0,2.14-.15-.71-.15-1.43,0-2.14Z" fill="#e0e0e0"/>
      <path d="m29.16,70.25c.16.7.16,1.44,0,2.14-.15-.71-.15-1.43,0-2.14Z" fill="#e0e0e0"/>
      <path d="m29.16,65.96c.12.34.16.71.12,1.07.04.36,0,.73-.12,1.08-.11-.35-.15-.72-.11-1.08-.03-.36,0-.72.11-1.07Z" fill="#e0e0e0"/>
      <path d="m29.16,61.68c.16.7.16,1.44,0,2.14-.15-.71-.15-1.43,0-2.14Z" fill="#e0e0e0"/>
      <path d="m29.16,57.39c.12.35.16.72.12,1.08.04.36,0,.73-.12,1.07-.11-.35-.15-.71-.11-1.07-.04-.36,0-.73.11-1.08Z" fill="#e0e0e0"/>
      <path d="m29.16,53.11c.16.7.16,1.44,0,2.14-.15-.71-.15-1.43,0-2.14Z" fill="#e0e0e0"/>
      <path d="m29.16,48.83c.16.7.16,1.44,0,2.14-.15-.71-.15-1.43,0-2.14Z" fill="#e0e0e0"/>
      <path d="m29.16,44.54c.12.34.16.71.12,1.07.04.36,0,.73-.12,1.07-.11-.35-.15-.71-.11-1.07-.03-.36,0-.72.11-1.07Z" fill="#e0e0e0"/>
      <path d="m29.16,40.26c.16.7.16,1.44,0,2.14-.15-.71-.15-1.43,0-2.14Z" fill="#e0e0e0"/>
      <path d="m30.3,37.03c-.35.11-.72.15-1.09.11.23-.23.07-.06.12-.11h0v.75c0,.1,0,.32-.08.32s-.06-.13-.08-.32c0-.12,0-.23,0-.35v-.4h0c.05-.06-.11.11.11-.12.34-.03.69,0,1.02.12Z" fill="#e0e0e0"/>
      <path d="m34.61,37.03c-.72.15-1.46.15-2.18,0,.72-.16,1.46-.16,2.18,0Z" fill="#e0e0e0"/>
      <path d="m38.96,37.03c-.72.15-1.46.15-2.18,0,.72-.16,1.46-.16,2.18,0Z" fill="#e0e0e0"/>
      <path d="m43.3,37.03c-.35.11-.72.15-1.09.11-.36.04-.73,0-1.08-.11.35-.12.72-.16,1.08-.12.37-.04.74,0,1.09.12Z" fill="#e0e0e0"/>
      <path d="m47.67,37.03c-.72.15-1.46.15-2.18,0,.72-.16,1.46-.16,2.18,0Z" fill="#e0e0e0"/>
      <path d="m52.02,37.03c-.72.15-1.46.15-2.18,0,.72-.16,1.46-.16,2.18,0Z" fill="#e0e0e0"/>
      <path d="m56.37,37.03c-.72.15-1.46.15-2.18,0,.72-.16,1.46-.16,2.18,0Z" fill="#e0e0e0"/>
      <path d="m60.72,37.03c-.35.11-.72.15-1.08.11-.37.04-.74,0-1.09-.11.35-.12.72-.16,1.09-.12.36-.04.73,0,1.08.12Z" fill="#e0e0e0"/>
      <path d="m65.08,37.03c-.72.15-1.46.15-2.18,0,.72-.16,1.46-.16,2.18,0Z" fill="#e0e0e0"/>
      <path d="m69.43,37.03c-.72.15-1.46.15-2.18,0,.72-.16,1.46-.16,2.18,0Z" fill="#e0e0e0"/>
      <path d="m73.78,37.03c-.35.11-.72.14-1.09.11-.36.04-.73,0-1.08-.11.35-.12.72-.16,1.08-.12.37-.04.74,0,1.09.12Z" fill="#e0e0e0"/>
      <path d="m78.13,37.03c-.35.11-.72.15-1.08.11-.37.03-.74,0-1.09-.11.35-.12.72-.16,1.09-.12.36-.04.73,0,1.08.12Z" fill="#e0e0e0"/>
      <path d="m82.49,37.03c-.72.15-1.46.15-2.18,0,.72-.16,1.46-.16,2.18,0Z" fill="#e0e0e0"/>
      <path d="m86.84,37.03c-.72.15-1.46.15-2.18,0,.72-.16,1.46-.16,2.18,0Z" fill="#e0e0e0"/>
      <path d="m91.19,37.03c-.35.11-.72.15-1.09.11-.36.04-.73,0-1.08-.11.35-.12.72-.16,1.08-.12.37-.04.74,0,1.09.12Z" fill="#e0e0e0"/>
      <path d="m95.54,37.03c-.35.11-.72.15-1.08.11-.37.03-.74,0-1.09-.11.35-.12.72-.16,1.09-.12.36-.04.73,0,1.08.12Z" fill="#e0e0e0"/>
      <path d="m98.81,38.12c-.11-.35-.15-.72-.11-1.09l.11.11h-.77c-.2,0-.32,0-.32-.08s.12-.06.32-.09h.77l.12.12c.03.35-.01.7-.12,1.03Z" fill="#e0e0e0"/>
      <path d="m98.81,42.4c-.15-.71-.15-1.43,0-2.14.16.7.16,1.44,0,2.14Z" fill="#e0e0e0"/>
      <path d="m98.81,46.68c-.15-.71-.15-1.43,0-2.14.16.7.16,1.44,0,2.14Z" fill="#e0e0e0"/>
      <path d="m98.81,50.97c-.15-.71-.15-1.43,0-2.14.16.7.16,1.44,0,2.14Z" fill="#e0e0e0"/>
      <path d="m98.81,55.25c-.15-.71-.15-1.43,0-2.14.16.7.16,1.44,0,2.14Z" fill="#e0e0e0"/>
      <path d="m98.81,59.54c-.11-.35-.15-.71-.11-1.07-.04-.36,0-.73.11-1.08.11.35.16.72.12,1.08.03.36,0,.73-.12,1.07Z" fill="#e0e0e0"/>
      <path d="m98.81,63.82c-.15-.71-.15-1.43,0-2.14.16.7.16,1.44,0,2.14Z" fill="#e0e0e0"/>
      <path d="m98.81,68.11c-.11-.35-.15-.72-.11-1.08-.03-.36,0-.72.11-1.07.11.34.15.71.12,1.07.04.36,0,.73-.12,1.08Z" fill="#e0e0e0"/>
      <path d="m98.81,72.39c-.15-.71-.15-1.43,0-2.14.16.7.16,1.44,0,2.14Z" fill="#e0e0e0"/>
      <path d="m98.81,76.67c-.15-.71-.15-1.43,0-2.14.16.7.16,1.44,0,2.14Z" fill="#e0e0e0"/>
      <rect x="23.95" y="38.56" width="69.65" height="42.88" rx=".93" ry=".93" transform="translate(-3.2 3.31) rotate(-3.14)" fill="#199ed9"/>
      <polygon points="59.26 55.67 65.14 58.43 59.86 62.34 54.58 66.25 53.98 59.58 53.39 52.91 59.26 55.67" fill="#fff"/>
      <path d="m89.46,75.52c0,.06-13.32.84-29.74,1.74s-29.76,1.59-29.76,1.52,13.31-.84,29.74-1.74,29.75-1.58,29.76-1.52Z" fill="#fff"/>
      <path d="m31,78.73c.02.41-.3.76-.71.79-.41.02-.77-.29-.79-.71h0c-.03-.41.28-.76.69-.79,0,0,.01,0,.02,0,.41-.02.77.29.79.71h0Z" fill="#fff"/>
      <g fill="none" opacity=".3">
        <path d="m87.82,37.01c-1.08,2.08-2.19,4.45-1.45,6.67.44.98.97,1.92,1.58,2.81,1.62,2.87,1.56,6.34,1.46,9.63.35,1.39-.49,2.8-1.87,3.15-.37.09-.75.1-1.13.03l-9.2.35v16.21l17.08-3.78-.82-24.25-.41-4.09-1.73-7-3.51.27Z"/>
      </g>
      <polygon points="73.19 168.1 73.77 181.77 81.15 181.61 80.6 167.9 73.19 168.1" fill="#f9bb1e"/>
      <path d="m77.39,181.18c.06,0-.05-3-.26-6.69s-.41-6.68-.47-6.68,0,3,.25,6.69.39,6.68.48,6.68Z" fill="#263238"/>
      <polygon points="73.73 180.83 81.12 180.64 81.15 181.61 73.77 181.77 73.73 180.83" fill="#e0e0e0"/>
      <path d="m80.97,177.23c-.05-.11-.12-.21-.2-.29-.21-.24-.44-.47-.69-.67-.37-.31-.79-.56-1.23-.75-.55-.24-1.14-.34-1.74-.32-1.09.06-2.11.56-2.82,1.39-.2.25-.37.53-.5.83-.05.11-.09.22-.1.34.21-.38.45-.73.72-1.07.71-.76,1.68-1.21,2.72-1.26,1.04,0,2.04.35,2.85,1,.64.44.96.83.99.8Z" fill="#263238"/>
      <g fill="none" opacity=".3">
        <polygon points="80.76 171.8 80.82 173.31 73.41 173.44 73.37 172.31 80.76 171.8"/>
      </g>
      <path d="m55.3,168.45l.37,8.56s-8.57,3.25-8.66,4.84l16.62-.12v-13.36l-8.33.08Z" fill="#f9bb1e"/>
      <path d="m60.71,176.32c.33.1.54.44.48.78-.09.34-.43.55-.77.48-.35-.11-.57-.46-.5-.82.13-.34.5-.53.85-.42" fill="#e0e0e0"/>
      <path d="m63.65,181.73v-1.34l-16.07.61s-.75.32-.66.85l16.73-.12Z" fill="#e0e0e0"/>
      <path d="m55.54,177.07c0,.08.41.11.82.37s.62.6.69.57-.05-.5-.54-.81-.99-.21-.97-.13Z" fill="#263238"/>
      <path d="m53.79,177.8c0,.08.34.22.62.56s.36.71.44.71.13-.47-.23-.89-.83-.45-.83-.38Z" fill="#263238"/>
      <path d="m52.81,179.91c.07,0,.18-.39,0-.84s-.6-.62-.63-.55.2.31.37.68.18.71.26.71Z" fill="#263238"/>
      <path d="m55.67,175.09c0,.08.41,0,.87,0s.83.17.87.1-.31-.36-.85-.38-.93.22-.89.28Z" fill="#263238"/>
      <path d="m55.36,173.25c.28.07.56.07.84,0,.3-.06.59-.15.87-.28.17-.07.33-.15.48-.25.09-.05.18-.12.25-.2.1-.13.1-.31,0-.44-.08-.11-.22-.18-.36-.18-.11-.02-.21-.02-.32,0-.18.05-.35.11-.51.19-.28.12-.54.3-.77.51-.39.36-.52.67-.49.68s.22-.23.62-.53c.23-.17.47-.32.74-.42.16-.07.32-.12.48-.16.18,0,.33-.05.37,0s0,0,0,.1c-.06.05-.12.1-.19.14-.14.09-.29.18-.44.26-.26.13-.53.24-.81.31-.26.07-.51.16-.76.27Z" fill="#263238"/>
      <path d="m55.47,173.37c.16-.24.23-.52.21-.81.01-.31-.03-.62-.12-.92-.05-.18-.13-.35-.22-.51-.1-.22-.29-.38-.53-.42-.15,0-.29.1-.35.24-.05.1-.08.2-.09.31-.03.19-.03.37,0,.56.04.31.17.61.36.86.33.44.67.53.68.5s-.26-.19-.51-.61c-.15-.23-.24-.5-.27-.78-.02-.16-.02-.33,0-.49,0-.18.09-.32.16-.3s.22.13.29.27c.09.14.16.29.21.45.1.27.16.55.17.84.05.49-.04.76.01.81Z" fill="#263238"/>
      <g fill="none" opacity=".3">
        <polygon points="63.66 173.5 63.64 175.4 55.62 175.4 55.62 174.36 63.66 173.5"/>
      </g>
      <path d="m88.53,38.32c-.43.9-.73,1.86-.91,2.84-.08.34-.03.7.14,1l1.92,3.41c.36.63.88,1.15,1.51,1.51l1,.55.12,2,5.42.08-1.65-6.32-.69-3.85c-.19-.39-.57-.67-1-.72l-.51-.08-.19-.48c-.12-.29-.38-.5-.69-.54h-.32l-.44-1.09c-.15-.36-.5-.6-.89-.59h-2.63s-.57.78.75,1.14c.36.11.74.15,1.12.14l.61,2.36s.43,2.48-.73,2.48-1.11-1.33-1.11-1.33c0,0,.5-2.63-.83-2.51Z" fill="#fbbd9d"/>
      <path d="m93.91,40.71c-.03-.17-.06-.33-.11-.49-.13-.39-.39-.72-.73-.94-.18-.38-.32-.77-.41-1.18-.05-.16-.07-.33-.06-.5.05.16.09.32.12.49.11.39.25.77.42,1.13l.26.22c.08.08.16.16.22.25.11.15.19.33.24.51.04.12.06.24.06.37,0,.05,0,.09-.01.14Z" fill="#ec996f"/>
      <path d="m94.73,40.25c-.01-.08-.04-.16-.08-.24-.1-.19-.29-.32-.5-.33h0v-.08c-.13-.33-.23-.66-.31-1,.16.3.29.62.39.94v.09h0c.24.03.45.17.55.39,0,.12-.04.24-.05.23Z" fill="#ec996f"/>
      <path d="m90.59,37.4s-.12-.11-.09-.3.11-.3.13-.28,0,.14,0,.29-.02.28-.04.29Z" fill="#ec996f"/>
      <path d="m62.85,61.96l9.82-.13-1.09-8.36s.67-.15.71-3.79.21-9.82.21-9.82h0c-4.21-1.81-9.07-1.19-12.7,1.6l-.54.42,3.59,20.08Z" fill="#fbbd9d"/>
      <path d="m60.4,46.32c-.06,0-2.5-.74-2.42,1.75-.05,1.03.75,1.91,1.79,1.95.26.01.53-.03.77-.13,0-.04-.14-3.57-.14-3.57Z" fill="#fbbd9d"/>
      <path d="m72.08,45.83c.85-.32,1.8.11,2.12.96.11.29.13.6.07.9.05,1.03-.74,1.91-1.77,1.96-.27.01-.54-.03-.79-.13,0-.07.36-3.69.36-3.69Z" fill="#fbbd9d"/>
      <path d="m74.87,38.65c.05-.46-.13-.91-.49-1.2-.38-.26-.9-.22-1.24.09.13-.6-.24-1.19-.84-1.33-.05-.01-.11-.02-.16-.02-.6,0-1.1.41-1.68.57-.57.12-1.16.05-1.69-.2-.54-.21-1.05-.51-1.59-.71-2.4-.88-5.05.34-5.95,2.73-.83-.21-1.71.12-2.19.83-.47.7-.65,1.56-.52,2.39.08.56.21,1.1.41,1.63v.14c0,2,1.08,8.32,1.93,8.33,1.49,0,.32-6.75.32-6.75,1.83-.7,1.15-3.44,1.6-3.85s1.41-1.38,5.24.57c1.42.64,3.01.81,4.53.49h.1c.35-.08.69-.22,1-.41.36-.21.64-.52.81-.9.16-.39.08-.84-.21-1.14.33-.35.55-.79.62-1.26Z" fill="#263238"/>
      <path d="m59.59,46.07c.37,2.09.3,3.18.64,4.58.42,2.12,1.74,3.95,3.63,5,2.01,1.18,4.53,1.01,6.37-.42,1.19-.93,1.98-2.28,2.2-3.78.17-1.56.35-4.33.36-5.91,0-2.84.21-5.55.21-5.55l-8.11-1.47-4.62,2.74-.68,4.81Z" fill="#263238"/>
      <path d="m67.96,56.89c-.45.18-.94.22-1.42.13-.48-.02-.95-.17-1.36-.43.46.04.92.11,1.38.2.74.09,1.39.04,1.4.1Z" fill="#263238"/>
      <path d="m70.07,38.14c-.12.05-.25.07-.38.07-.35,0-.69-.08-1-.24-.47-.24-.92-.54-1.32-.88-.49-.42-1.08-.69-1.71-.79-.64-.09-1.28.02-1.85.32-.46.25-.85.62-1.12,1.06-.26.41-.42.87-.49,1.35,0-.13,0-.26,0-.39.07-.35.21-.69.39-1,.62-1.04,1.8-1.6,3-1.43.65.1,1.25.38,1.75.81.4.34.84.64,1.3.89.31.16.65.26,1,.27.14,0,.29-.01.43-.04Z" fill="#455b64"/>
      <path d="m62.3,39.17c-.19-.09-.39-.17-.59-.22-.49-.11-1-.03-1.43.22-.42.28-.72.7-.84,1.19-.04.2-.06.41-.06.62v-.17c-.02-.15-.02-.31,0-.46.1-.51.41-.97.85-1.25.45-.27.99-.35,1.5-.21.15.04.3.1.43.18.05.02.1.06.14.1Z" fill="#455b64"/>
      <path d="m62.04,48.04c-.29-.39-.52-.82-.68-1.28-.22-.43-.38-.89-.48-1.36.3.38.53.81.69,1.27.22.43.38.89.47,1.37Z" fill="#455b64"/>
      <path d="m64.16,49.47c-.48-.27-.88-.67-1.15-1.15-.33-.44-.53-.96-.58-1.51.06,0,.29.66.77,1.38s1.01,1.23.96,1.28Z" fill="#455b64"/>
      <path d="m66.3,49.93c-.38-.11-.72-.32-1-.6-.48-.42-.77-.84-.72-.88s.41.3.87.71.85.71.85.77Z" fill="#455b64"/>
      <path d="m69.97,46.56c.05.42-.03.85-.22,1.23-.14.4-.39.75-.73,1,.15-.38.32-.76.52-1.12.12-.38.26-.75.43-1.11Z" fill="#455b64"/>
      <path d="m71.22,44.59c.1.51.05,1.04-.14,1.52-.12.51-.39.97-.76,1.34-.05,0,.3-.62.54-1.4s.29-1.46.36-1.46Z" fill="#455b64"/>
      <path d="m72.19,39.56c-.1.1-.21.18-.33.25-.33.19-.69.31-1.07.33-.56.04-1.12-.04-1.64-.25-.63-.25-1.23-.56-1.81-.91-.58-.34-1.2-.61-1.85-.79-.53-.15-1.09-.15-1.62,0-.35.1-.68.28-.94.54-.1.1-.19.2-.27.31.06-.12.14-.24.24-.34.28-.27.62-.47,1-.57.54-.15,1.11-.15,1.65,0,.66.18,1.28.45,1.87.79.58.35,1.18.65,1.8.91.51.21,1.06.3,1.61.27.5-.05.97-.23,1.36-.54Z" fill="#455b64"/>
      <path d="m72.91,40.74l-.13.09c-.13.07-.26.13-.39.19-.89.36-1.86.46-2.8.26-.14-.03-.28-.07-.41-.12l-.15-.06s.22,0,.57.11c.46.08.93.1,1.4.06.47-.04.93-.15,1.37-.31.33-.13.53-.23.54-.22Z" fill="#455b64"/>
      <polyline points="68.39 115.92 70.78 138.95 72.49 173.62 81.64 173.62 81.89 99.82 55.69 101.69 50.27 140.41 54.97 174.3 65.01 174.3 62.66 142.08 68.39 115.92" fill="#363535"/>
      <path d="m68.39,115.92c-.54.64-1.13,1.23-1.78,1.76-.6.59-1.25,1.12-1.94,1.59.54-.64,1.13-1.23,1.78-1.76.6-.59,1.25-1.12,1.94-1.59Z" fill="#455b64"/>
      <path d="m68.36,115.46c-.04-1-.02-2,.05-3,0-1,.05-2,.17-3,.1,1,.1,2,0,3,.03,1-.05,2.01-.22,3Z" fill="#455b64"/>
      <path d="m71.38,106.87h.6l1.74-.09,6.2-.26h.11v6.75h-.07l-4,1.61h0l-3.57-1.24h-.06c-.26-2-.48-3.69-.64-4.89-.07-.56-.12-1-.16-1.34s-.05-.47-.05-.46v.13l.06.36.22,1.36c.18,1.19.43,2.83.72,4.81l-.06-.08,3.58,1.22h-.08l4-1.63-.07.11v-6.56l.11.1-6.14.15h-2.41l-.03-.05Z" fill="#455b64"/>
      <path d="m58.18,106.98h.54l1.56-.05,5.66-.13h.11v.1c-.06,1.91-.13,4.12-.2,6.46v.06h0l-.66.42-3.32,2.17h-.06l-3.74-2.28h0v-.05c.07-2,.13-3.68.17-4.88,0-.56,0-1,.06-1.34-.01-.15-.01-.31,0-.46v1.86c0,1.19-.05,2.84-.08,4.82v-.08l3.75,2.25h-.12l3.32-2.17.65-.42-.05.09c.09-2.35.17-4.55.24-6.46l.1.1h-7.93Z" fill="#455b64"/>
      <path d="m79.06,117.41c-.41.04-.83.04-1.24,0-.76,0-1.82-.16-3-.31s-2.2-.32-2.95-.46c-.41-.05-.82-.14-1.21-.28.41.01.82.06,1.23.13l3,.39,3,.37c.39.02.78.08,1.17.16Z" fill="#455b64"/>
      <path d="m78.85,143.08s0,.13-.22.29c-.27.21-.6.32-.94.32-.5-.02-.98-.21-1.36-.53-.46-.38-.87-.8-1.25-1.26-.7-.81-1.32-1.68-1.85-2.61-.25-.37-.44-.77-.58-1.19,0,0,.28.43.72,1.11.57.89,1.19,1.74,1.88,2.54.37.45.77.87,1.21,1.25.34.31.78.49,1.24.53.31.01.62-.07.88-.23.18-.13.25-.23.27-.22Z" fill="#455b64"/>
      <path d="m60.78,143.89c-.02.11-.07.2-.13.29-.16.25-.37.45-.63.6-.38.22-.82.34-1.26.33-.54-.02-1.06-.19-1.51-.48-.79-.55-1.42-1.3-1.82-2.17-.2-.34-.35-.7-.45-1.08.22.32.42.65.59,1,.44.8,1.05,1.48,1.8,2,.42.27.9.43,1.4.46.41.02.81-.07,1.17-.26.32-.17.61-.41.84-.69Z" fill="#455b64"/>
      <path d="m61.36,140.41c-.22.19-.48.34-.75.44-.64.27-1.31.42-2,.46-.71.03-1.42-.07-2.09-.29-.28-.07-.55-.2-.78-.37.93.28,1.89.43,2.86.43.95-.08,1.88-.31,2.76-.67Z" fill="#455b64"/>
      <path d="m91.14,59.15h-13.34s-1.82-1-2.69-.87c-.64.21-1.21.6-1.64,1.12l1.77,14.7,4.32-3.2,16.08-1.68c1.4-.01,2.72-.59,3.68-1.61h0c1.04-1.1,1.53-2.61,1.35-4.11l-3-15.81-6.11.2-.24,4-.18,7.26Z" fill="#cb1f46"/>
      <path d="m54.41,62.86c-1.43.89-2.56,2.19-3.22,3.74-.78,1.87-6.09,11.2-8.89,16.08-1.02,1.77-.75,4.01.67,5.48h0c1.88,1.75,4.58,2.32,7,1.46,1.11-.36,5.56-4,5.56-4l-1.12-22.76Z" fill="#cb1f46"/>
      <polygon points="56.74 96.19 53.68 69.87 54.42 62.86 62.21 59.54 72.29 58.88 81.89 59.93 79.65 86.93 82.1 102.15 55.21 103.37 56.74 96.19" fill="#cb1f46"/>
      <path d="m56.72,96.08c-.06,0-.79-5.86-1.63-13.09s-1.48-13.11-1.41-13.12.79,5.85,1.63,13.09,1.47,13.11,1.41,13.12Z" fill="#263238"/>
      <path d="m81.69,65.84c.01.08.01.16,0,.24,0,.18,0,.4-.07.68l-.25,2.48c-.21,2.12-.5,5-.82,8.19s-.55,6.09-.71,8.19c-.07,1-.13,1.87-.18,2.49l-.05.68c.01.08.01.15,0,.23,0-.08,0-.15,0-.23v-.68c0-.59.06-1.44.11-2.5.12-2.1.34-5,.64-8.21s.64-6.09.89-8.18c.13-1.05.24-1.89.33-2.47l.1-.68c0-.08,0-.15.01-.23Z" fill="#263238"/>
      <path d="m77.06,92.05c-.12.19-.26.36-.42.52-.17.2-.36.39-.55.57-.25.25-.51.48-.78.7-.32.27-.65.53-1,.76-.4.28-.81.54-1.23.78-.98.53-2.01.97-3.08,1.3-1.07.31-2.17.51-3.28.6h-1.46c-.42,0-.85-.04-1.27-.09-.39,0-.73-.11-1-.16-.26-.04-.52-.1-.77-.18-.22-.04-.44-.11-.64-.2,0,0,.93.24,2.46.38.42.04.83.06,1.25.06h1.44c1.1-.1,2.18-.31,3.24-.61,1.04-.33,2.04-.75,3-1.26.43-.26.86-.49,1.23-.75.35-.23.68-.47,1-.74,1.21-.98,1.83-1.72,1.86-1.68Z" fill="#263238"/>
      <g fill="none" opacity=".3">
        <path d="m62.84,96.96c-.73-.1-1.24-.78-1.14-1.51.03-.23.12-.44.26-.63.57-.48,1.33-.66,2.06-.49.71.17,1.44.27,2.17.29,1.18-.21,2.25-.84,3-1.78.75-.94,1.67-1.72,2.71-2.32,1.1-.59,2.46-.28,3.19.73.33.7.28,1.52-.13,2.18-.41.64-.97,1.19-1.62,1.59-3.08,2.1-6.9,2.81-10.53,1.94"/>
      </g>
      <g fill="none" opacity=".2">
        <path d="m54.78,79.54l-2.51,3.43c-.7,1.09-1.45,2.15-2.26,3.16,0,0,1.95-1.09,3.46-1.86.63-.38,1.24-.81,1.8-1.29,0,0-.34-2.14-.49-2.94-.33-1.79-.56-5.83-.56-5.83"/>
      </g>
      <path d="m78.75,59.69c1.43.6,2.4,1.95,2.52,3.49-.4-1.43-1.29-2.66-2.52-3.49Z" fill="#263238"/>
      <path d="m54.78,79.54c-.19.37-.41.73-.66,1.06-.43.64-1,1.51-1.72,2.47-.77,1.19-1.66,2.31-2.64,3.33l.71-1,1.74-2.46c.69-.95,1.32-1.81,1.78-2.42.23-.35.49-.68.79-.98Z" fill="#263238"/>
    </g>
  </g>
</svg>