<?xml version="1.0" encoding="UTF-8"?>
<svg id="Layer_2" data-name="Layer 2" xmlns="http://www.w3.org/2000/svg" viewBox="0 0 208.67 213.44">
  <g id="Layer_1-2" data-name="Layer 1">
    <g>
      <path d="m192.1,167.69s-7-8-9.63-16.11-1.39-7.13-1.39-7.13c0,0,3.56,7.83,6.27,11.61s7.53,9.32,7.53,9.32l-2.78,2.31Z" fill="#ebebeb"/>
      <path d="m193.5,145.7c-.11-.2-.37-.26-.56-.15-.14.08-.22.24-.2.41.74,4.56,1.18,9.16,1.31,13.77v7.76h2.92s-.52-11.57-1.18-15.09c-.43-2.33-1.2-4.59-2.29-6.7Z" fill="#ebebeb"/>
      <path d="m195.09,166.56c1.22-2.77,2.02-5.7,2.39-8.7.24-2.06-.18-4.84-.82-8.55-.25-1.36-.37-2.74-.37-4.12,0-.39.33-.69.71-.69.25,0,.48.14.6.36.71,1.3,1.25,2.69,1.62,4.12.71,3.66,1.51,5.5.9,9-.7,3.02-1.66,5.97-2.87,8.83l-2.16-.25Z" fill="#ebebeb"/>
      <path d="m197.71,166.79s7.69-16.51,8.22-19,2.34-8.09,2.55-7.77.54,3.3-.85,6.71-7.3,20.53-7.3,20.53h-2.62" fill="#ebebeb"/>
      <path d="m194.25,166.05s-.08,0-.22-.14-.34-.25-.59-.46c-.72-.57-1.41-1.18-2.07-1.82-2.16-2.13-4.04-4.54-5.57-7.16-1.54-2.62-2.81-5.38-3.81-8.24-.39-1.1-.67-2-.85-2.62-.09-.31-.16-.55-.2-.72-.03-.08-.05-.16-.06-.25l.09.24.23.71c.2.62.5,1.51.9,2.6,1.03,2.84,2.31,5.59,3.84,8.2,1.53,2.61,3.38,5.01,5.51,7.16.82.81,1.53,1.44,2,1.85.24.22.44.37.57.48l.23.17Z" fill="#e0e0e0"/>
      <path d="m195.09,158.14c-.04-.16-.06-.32-.07-.48,0-.34-.09-.79-.14-1.33-.13-1.11-.32-2.65-.59-4.35s-.57-3.21-.81-4.31l-.28-1.3c-.04-.16-.07-.32-.08-.48.06.15.11.3.14.46.09.31.2.75.34,1.29.26,1.1.58,2.62.86,4.32s.44,3.24.53,4.36c0,.56.08,1,.09,1.33.02.16.02.33.01.49Z" fill="#e0e0e0"/>
      <path d="m196.89,144.72l.09.21.23.62c.1.26.22.59.33,1s.26.82.37,1.32l.19.78c.07.27.11.56.17.85.13.59.2,1.22.3,1.89.16,1.45.22,2.91.18,4.37-.06,1.46-.23,2.92-.5,4.36-.14.66-.26,1.28-.43,1.86-.08.29-.14.57-.23.84l-.24.76c-.15.48-.33.91-.47,1.29s-.28.7-.4,1l-.27.59c-.07.14-.1.21-.11.2.02-.07.05-.14.08-.21l.24-.61c.11-.26.24-.58.37-1s.31-.81.45-1.3l.23-.76c.08-.26.14-.55.22-.83.16-.58.28-1.2.42-1.86.25-1.43.41-2.88.48-4.33.04-1.45-.02-2.91-.17-4.35-.09-.67-.16-1.3-.28-1.89-.06-.29-.1-.57-.16-.84l-.18-.78c-.11-.5-.25-.93-.35-1.32s-.21-.72-.3-1l-.2-.63c-.05-.15-.07-.22-.06-.23Z" fill="#e0e0e0"/>
      <path d="m208.4,140.39s0,.05,0,.07v.22c0,.18-.08.46-.16.82-.21,1.01-.47,2.01-.78,3-.38,1.24-.9,2.7-1.53,4.29s-1.34,3.34-2,5.2-1.22,3.66-1.73,5.29-1,3.12-1.42,4.33c-.35.96-.76,1.91-1.21,2.83-.16.33-.3.57-.39.74l-.11.19v.06s0-.05,0-.07l.1-.2c.08-.17.21-.42.36-.75.44-.93.82-1.87,1.16-2.84.44-1.21.9-2.69,1.39-4.33s1-3.45,1.72-5.31,1.41-3.6,2-5.19,1.17-3,1.56-4.27.66-2.25.83-3c.09-.35.14-.62.18-.81v-.21s.02-.06.03-.06Z" fill="#e0e0e0"/>
      <path d="m184.7,136.74c-.26-.25-.68-.25-.93.01-.17.17-.23.43-.16.66.27.85.61,1.68,1,2.49,1,2.24,4.16,10.3,5.61,14.72s3.5,12.68,3.5,12.68l3.1-.51s-2.84-13.56-5.61-18.44c-2.26-3.93-4.49-9.6-6.51-11.61Z" fill="#ebebeb"/>
      <path d="m191.04,157.39c.07.12.12.24.16.37.09.24.22.6.36,1,.28.88.63,2.12,1,3.49s.65,2.63.85,3.53l.24,1.08c.03.13.05.26.06.4-.06-.13-.1-.26-.13-.39l-.28-1.06-.9-3.52c-.35-1.37-.68-2.61-.93-3.5l-.31-1c-.06-.13-.1-.26-.12-.4Z" fill="#e0e0e0"/>
      <path d="m195.25,167.04v-.32c0-.22-.06-.53-.12-.94-.12-.82-.32-2-.65-3.42-.4-1.69-.88-3.36-1.45-5-.64-1.84-1.44-3.82-2.34-5.88-1.83-4.1-3.65-7.74-4.85-10.43-.6-1.35-1.07-2.44-1.38-3.21-.16-.38-.27-.68-.35-.88l-.09-.23s0-.05,0-.08c0,.02,0,.05,0,.07l.1.23.38.87c.32.75.81,1.84,1.43,3.18,1.22,2.68,3.06,6.31,4.89,10.42.9,2.06,1.7,4,2.33,5.89.56,1.64,1.04,3.31,1.42,5,.26,1.14.46,2.28.6,3.44.06.41.08.73.1.94v.25l-.02.1Z" fill="#e0e0e0"/>
      <path d="m196.79,166.79c-.05-.17-.08-.34-.1-.52-.07-.36-.15-.84-.24-1.42-.22-1.21-.55-2.86-1-4.66s-1-3.41-1.39-4.56l-.49-1.36c-.08-.16-.13-.33-.16-.51.08.15.16.31.22.48.13.32.32.78.53,1.35.57,1.49,1.05,3.01,1.44,4.56.41,1.54.75,3.1,1,4.68.09.6.16,1.09.19,1.43.02.18.01.35,0,.53Z" fill="#e0e0e0"/>
      <rect x="191.06" y="166.35" width="12.11" height="14.75" fill="#e0e0e0"/>
      <rect x="188.56" y="166.35" width="10.74" height="14.75" fill="#ebebeb"/>
      <path d="m200.52,109.37l3.93-4.65c.24-.3.21-.74-.07-1l-17.79-15c-.31-.24-.75-.19-1,.1l-3.94,4.65c-.24.3-.21.74.07,1l17.79,15c.31.24.75.2,1.01-.1Z" fill="#f5f5f5"/>
      <path d="m200.52,109.37s-.07.09-.12.12c-.13.1-.29.15-.45.16-.12,0-.24-.03-.35-.08-.12-.08-.23-.16-.34-.26l-.82-.69-5.2-4.37-7.7-6.5-2.22-1.88-1.15-1c-.2-.16-.39-.31-.59-.5-.19-.21-.25-.51-.16-.78.05-.13.12-.25.21-.35l.25-.3.51-.59,1-1.22,2.1-2.47c.19-.23.5-.34.8-.27.14.04.27.11.38.21l.31.26,1.22,1,2.41,2,4.54,3.84,7.68,6.52,1.56,1.33c.26.22.34.59.19.9-.08.13-.17.26-.28.37l-.28.33-1.9,2.22-1.2,1.41-.31.36-.11.12s.06-.09.1-.13l.3-.37c.28-.33.67-.81,1.19-1.42l1.87-2.24.28-.33c.1-.1.2-.22.27-.35.12-.28.05-.6-.17-.81l-1.57-1.32-7.7-6.5-4.54-3.84-2.41-2c-.4-.35-.81-.69-1.23-1l-.31-.26c-.09-.09-.2-.15-.32-.18-.25-.06-.51.03-.68.22l-2.09,2.48-1,1.21-.51.6-.25.29c-.09.09-.15.19-.19.31-.08.23-.02.48.14.66.17.16.38.33.57.49l1.15,1,2.22,1.88,7.72,6.49,5.18,4.4.81.7c.1.09.21.18.33.26.1.05.22.08.33.08.16,0,.31-.05.44-.14l.09-.07Z" fill="#e0e0e0"/>
      <rect x="182.72" y="90.91" width="6.21" height="4.26" transform="translate(-4.69 176.05) rotate(-50.14)" fill="#e0e0e0"/>
      <rect x="193.39" y="99.8" width="6.21" height="4.26" transform="translate(-7.68 187.44) rotate(-50.14)" fill="#e0e0e0"/>
      <rect x="185.45" y="94.82" width="6.22" height="4.27" transform="translate(-6.53 179.99) rotate(-50.27)" fill="#e0e0e0"/>
      <rect x="186.27" y="93.86" width="6.21" height="4.26" transform="translate(-5.68 179.83) rotate(-50.14)" fill="#e0e0e0"/>
      <path d="m199.74,109.14l5-3.48c.33-.22.42-.67.2-1,0,0,0,0,0,0l-13.13-18.85c-.24-.31-.68-.38-1-.16l-5,3.49c-.32.23-.41.67-.2,1l13.13,18.84c.23.32.68.39,1,.16Z" fill="#f5f5f5"/>
      <path d="m199.74,109.14s-.09.07-.14.09c-.15.05-.32.05-.47,0-.12-.02-.23-.08-.32-.16-.1-.1-.18-.21-.26-.33l-.6-.87c-.92-1.3-2.23-3.18-3.86-5.5s-3.56-5.09-5.71-8.17l-1.65-2.36-.85-1.22-.21-.31c-.08-.1-.15-.21-.21-.33-.1-.26-.06-.56.12-.78.09-.1.2-.19.31-.26l.31-.22.64-.44,1.29-.9,2.63-1.83c.24-.17.56-.2.83-.06.13.07.24.17.31.29l.23.33.91,1.31c.61.86,1.2,1.71,1.78,2.55l3.36,4.83,5.69,8.19c.4.58.79,1.13,1.15,1.67.15.3.09.67-.15.9-.24.2-.49.35-.72.51l-2.38,1.65-1.5,1-.39.27-.14.08.13-.09.38-.28,1.5-1.05,2.36-1.67c.23-.16.48-.32.71-.5.21-.22.26-.54.13-.81l-1.16-1.66c-1.62-2.33-3.56-5.09-5.7-8.17l-3.37-4.83c-.59-.83-1.18-1.69-1.78-2.55l-.91-1.31-.23-.33c-.07-.11-.16-.19-.27-.25-.23-.11-.5-.09-.7.06-.89.61-1.77,1.22-2.63,1.83l-1.29.89-.63.45-.32.22c-.11.06-.2.14-.28.23-.15.18-.19.43-.1.65.05.11.11.22.19.31l.21.31.85,1.22,1.65,2.37,5.68,8.18,3.83,5.53.59.86c.07.12.16.24.26.34.09.07.18.13.29.16.15.05.31.05.46,0,.05,0,.1-.02.15-.04Z" fill="#e0e0e0"/>
      <rect x="187.31" y="88.01" width="6.21" height="4.26" transform="translate(-17.14 126.25) rotate(-35.2)" fill="#ebebeb"/>
      <rect x="195.35" y="99.35" width="6.21" height="4.26" transform="translate(-22.21 132.95) rotate(-35.2)" fill="#ebebeb"/>
      <rect x="192.67" y="95.57" width="6.21" height="4.26" transform="translate(-20.52 130.71) rotate(-35.2)" fill="#ebebeb"/>
      <rect x="189.99" y="91.78" width="6.21" height="4.26" transform="translate(-18.83 128.48) rotate(-35.2)" fill="#ebebeb"/>
      <path d="m199.77,109.91l5.79-1.91c.39-.13.6-.56.47-.95l-7.56-22.91c-.12-.39-.54-.61-.93-.48,0,0,0,0-.01,0l-5.79,1.9c-.39.13-.6.56-.47.95l7.56,22.91c.12.39.55.61.94.49Z" fill="#fafbfb"/>
      <path d="m199.77,109.91h-.17c-.17.01-.33-.03-.47-.12-.11-.06-.2-.15-.26-.26-.06-.14-.11-.28-.15-.42l-.35-1-2.21-6.63c-.92-2.8-2-6.13-3.25-9.82l-.94-2.84c-.16-.49-.32-1-.49-1.47l-.24-.75c-.05-.13-.08-.27-.07-.41.02-.14.07-.28.15-.4.08-.12.2-.21.33-.27l.38-.13.77-.25,1.55-.51,3.16-1c.3-.09.62,0,.84.22.1.11.17.25.21.39l.13.39c.17.53.35,1,.52,1.57l1,3.08,1.91,5.8c1.21,3.71,2.31,7,3.23,9.84.23.7.45,1.37.65,2,.03.08.06.16.08.24.01.08.01.17,0,.25-.02.17-.09.32-.2.45-.11.11-.25.2-.41.24l-.43.14-2.85.93-1.81.58-.47.15h-.16c.05-.03.1-.05.16-.06l.46-.16,1.8-.61,2.85-1,.42-.14c.15-.03.28-.11.38-.22.11-.11.17-.26.18-.41,0-.16-.02-.31-.08-.46-.21-.63-.44-1.29-.67-2-.92-2.8-2-6.13-3.25-9.83-.61-1.85-1.26-3.79-1.92-5.81l-1-3.07c-.18-.52-.35-1-.52-1.57l-.13-.39c-.03-.13-.09-.25-.19-.34-.18-.19-.45-.26-.7-.18l-3.16,1-1.55.51-.77.25c-.12,0-.26.08-.37.13-.11.05-.21.13-.28.23-.14.2-.16.47-.06.69l.24.75c.17.49.33,1,.49,1.47.31,1,.63,1.91.93,2.84,1.22,3.7,2.31,7,3.23,9.84s1.65,5.06,2.17,6.63c.12.39.24.74.33,1s.09.3.15.41c.06.11.14.2.24.26.14.09.3.13.46.12l.18.13Z" fill="#e0e0e0"/>
      <path d="m199.8,109.95s0,.3.18.8c.22.71.61,1.35,1.14,1.87.81.77,1.89,1.19,3,1.16,2.08-.06,3.79-1.66,4-3.73.05-.64-.04-1.28-.26-1.88-.21-.54-.53-1.03-.94-1.44-.36-.36-.78-.65-1.25-.86-.67-.3-1.42-.42-2.15-.35h-.81s.06,0,.19-.08l.25-.08.35-.07c.76-.11,1.54-.01,2.25.29.49.21.93.5,1.32.86.94.91,1.42,2.2,1.3,3.5-.07.72-.32,1.41-.73,2-.2.31-.45.59-.72.84-.27.23-.57.43-.89.6-.62.32-1.3.48-2,.48-1.98.02-3.71-1.32-4.19-3.24-.05-.2-.08-.4-.09-.61.01-.02.03-.04.05-.06Z" fill="#e0e0e0"/>
      <path d="m201.69,105.06c.49-.16,1.01.1,1.17.59s-.1,1.01-.59,1.17c-.49.16-1.01-.1-1.17-.59-.16-.49.1-1.01.59-1.18Z" fill="#e0e0e0"/>
      <rect x="192.56" y="85.18" width="6.21" height="4.26" transform="translate(-17.5 65.67) rotate(-18.25)" fill="#f5f5f5"/>
      <rect x="193.98" y="89.54" width="6.21" height="4.26" transform="translate(-18.79 66.33) rotate(-18.25)" fill="#f5f5f5"/>
      <rect x="195.45" y="93.94" width="6.21" height="4.26" transform="translate(-20.1 67.01) rotate(-18.25)" fill="#f5f5f5"/>
      <rect x="201.48" y="102.2" width="6.21" height="4.26" transform="translate(-22.27 68.61) rotate(-18.07)" fill="#f5f5f5"/>
      <path d="m122.21,27.79h32s-2.83-5.15-11.06-4.4c-7.86.72-8.26-2.53-12.26-2.93s-7.35,2.68-8.68,7.33Z" fill="#e0e0e0"/>
      <path d="m38.61,112.33s-3.2,1.73,1.47,8.42c2.34,3.47,4.91,6.78,7.7,9.9,0,0,.88,1.59-.49,2s-4.54.39-4.93,2.19,1.13,3.38,4,4.5,9,3.78,9.5,4,1.15.94.27,1.4-7.75,2.15-6.76,5.36,9.4,5,10.31,5.23,1.18.56,1.17,1-2.37.83-4.3,1.39-4.08,1.55-3.35,3.35,6,5.08,17.68,4.62l5.39-.56,2.29-4.94c4.27-10.86,2.92-16.93,1.45-18.21s-3.1.42-4.26,2.06-2.28,3.76-2.74,3.6-.69-.51-.6-1.44,1.16-9.47-1.55-11.46-6.55,3.93-7.28,4.61-1.19-.12-1.24-.71-.56-7.26-.68-10.3-1-5-2.94-5.21-2.81,2.78-3.69,3.93-2.09-.21-2.09-.21c-2.04-3.66-4.31-7.18-6.82-10.53-4.78-6.61-7.53-4.07-7.53-4.07" fill="#ebebeb"/>
      <path d="m76.68,166.47c-3.5-4.86-9.56-13.62-14.81-21.1s-10-14.26-13.47-19.14l-4.12-5.78-1.12-1.57c-.12-.18-.22-.31-.28-.41l-.1-.14.11.13.3.4,1.14,1.55c1,1.35,2.42,3.32,4.16,5.75,3.5,4.87,8.27,11.63,13.52,19.11s11.3,16.25,14.77,21.13" fill="#e0e0e0"/>
      <path d="m46.79,135.14h.38l1.05.21c.88.19,2.09.49,3.42.84l3.39.91,1,.27.38.11c-.13,0-.26-.02-.39-.05-.25,0-.61-.12-1-.22-.88-.2-2.08-.51-3.41-.86l-3.4-.88-1-.27c-.14,0-.28-.02-.42-.06Z" fill="#e0e0e0"/>
      <path d="m56.76,137.14c-.05,0,.45-2.53,1.11-5.63s1.24-5.6,1.29-5.59-.46,2.53-1.12,5.63-1.24,5.59-1.28,5.59Z" fill="#e0e0e0"/>
      <path d="m64.34,149.03c.04-.13.1-.25.17-.36l.51-1c.44-.81,1-1.93,1.64-3.19s1.13-2.42,1.5-3.26l.44-1c.1-.23.16-.36.18-.35-.03.13-.07.26-.12.38-.09.24-.22.59-.39,1-.34.85-.84,2-1.45,3.28s-1.23,2.38-1.69,3.18l-.57.93c-.06.14-.13.27-.22.39Z" fill="#e0e0e0"/>
      <path d="m54.88,149.2c.12-.02.25-.02.37,0l1-.06c.85,0,2-.09,3.31-.13s2.47-.07,3.32-.08h1c.12-.01.25-.01.37,0h-.37l-1,.06c-.84,0-2,.09-3.31.13s-2.47.07-3.32.08h-1c-.12.02-.25.02-.37,0Z" fill="#e0e0e0"/>
      <path d="m60.2,160.51c.16-.01.31-.01.47,0l1.29-.08c1.09-.06,2.59-.13,4.25-.19s3.16-.12,4.25-.15h1.29c.16-.01.31-.01.47,0-.15.04-.31.06-.47.06l-1.29.08c-1.08,0-2.59.13-4.25.19s-3.16.12-4.24.15h-1.29c-.16,0-.32-.02-.48-.06Z" fill="#e0e0e0"/>
      <path d="m71.93,159.95c.05-.16.12-.31.2-.46l.62-1.24c.51-1,1.21-2.49,1.95-4.11s1.36-3.1,1.8-4.17c.22-.52.4-.95.53-1.28.06-.16.13-.31.22-.46-.04.17-.09.33-.15.49-.11.3-.27.75-.48,1.29-.42,1.09-1,2.58-1.77,4.2s-1.46,3.07-2,4.1c-.27.51-.5.93-.66,1.21-.07.15-.16.3-.26.43Z" fill="#e0e0e0"/>
      <path d="m117.16,88.14c-5.79-6.49-5.23-15.86-3-23.89.36-1.34.55-2.8,1.48-3.83.89-1.11,2.47-1.38,3.68-.63.89.71,1.06,2,1.39,3.08.44,1.46,1.29,2.77,2.45,3.77.7.73,1.71,1.07,2.71.91,1.32-.37,1.84-1.94,2.15-3.29.57-2.51,1.15-5,1.73-7.52.24-1.36.69-2.67,1.35-3.89.67-1.22,1.89-2.05,3.28-2.2,1.43-.07,2.64,1.02,2.73,2.44-.08.57-.2,1.13-.36,1.68-.15.56.05,1.16.51,1.52.55.2,1.16.1,1.62-.26,1.66-1.12,3.14-2.49,4.36-4.08,1.22-1.59,2.62-3.03,4.17-4.29,1.57-1.26,3.57-1.83,5.57-1.6,2.02.32,3.57,1.96,3.76,4,0,2-1.52,3.67-3.09,4.91-2.32,1.86-4.9,3.36-7.65,4.47-.52.15-.98.46-1.31.88-.5.83.14,1.92,1,2.42.96.46,1.97.83,3,1.09,1.07.29,1.91,1.12,2.21,2.19.22,1.5-1.27,2.67-2.62,3.35-2.71,1.35-5.63,2.23-8.64,2.58-1.08.04-2.15.28-3.15.71-1.02.46-1.62,1.54-1.47,2.65.38,1.05,1.39,1.74,2.5,1.71,1.08-.05,2.16-.19,3.22-.42,2-.26,4.36.43,5.16,2.3.47,1.29.31,2.72-.43,3.87-.74,1.13-1.71,2.09-2.83,2.84-3.76,2.82-8.19,4.59-12.86,5.13-4.63.47-8.69-.06-12.58-2.63" fill="#f5f5f5"/>
      <path d="m118.34,88.95c1.06-3.13,0-1.56,2.12-5.35,2.38-4.09,5.01-8.04,7.85-11.83l2.21-3c.73-1,1.46-2,2.22-2.87,1.48-1.75,3.05-3.42,4.7-5,1.58-1.51,3.12-2.88,4.58-4.15s2.84-2.43,4.14-3.43c2.05-1.59,4.23-3.02,6.51-4.27.8-.44,1.44-.76,1.87-1l.49-.24c.12,0,.17-.08.18-.07l-.16.09-.49.26-1.85,1c-2.25,1.28-4.4,2.73-6.44,4.32-1.29,1-2.66,2.17-4.11,3.45s-3,2.65-4.56,4.16c-1.64,1.58-3.2,3.25-4.67,5-.76.9-1.48,1.87-2.21,2.85l-2.21,3c-2.83,3.78-5.45,7.72-7.85,11.79-2.17,3.78-1.08,2.18-2.15,5.3" fill="#e0e0e0"/>
      <path d="m132.8,65.92c-.02-.2-.02-.4,0-.6,0-.39.06-1,.12-1.64.13-1.38.37-3.29.64-5.38s.49-4,.6-5.38c.05-.69.09-1.25.11-1.64,0-.2.02-.4.06-.6.02.2.02.4,0,.6v1.65c-.06,1.39-.24,3.3-.51,5.4s-.53,3.94-.72,5.37c-.08.64-.15,1.19-.2,1.63,0,.2-.04.4-.1.59Z" fill="#e0e0e0"/>
      <path d="m150.84,66.78c-.24,0-.48-.03-.71-.08-.45-.06-1.11-.16-1.92-.25-1.62-.21-3.87-.41-6.37-.53s-4.75-.11-6.38-.07l-1.94.07c-.24.03-.48.03-.72,0,.23-.06.47-.09.71-.1.46,0,1.12-.11,1.94-.15,1.64-.09,3.91-.12,6.41,0,2.13.08,4.26.28,6.37.6.82.11,1.47.24,1.92.34.23.04.46.1.69.17Z" fill="#e0e0e0"/>
      <path d="m120.74,83.32c-.03-.08-.06-.16-.07-.24l-.15-.7c-.12-.6-.28-1.48-.46-2.57-.37-2.17-.78-5.19-1.18-8.53s-.79-6.36-1.11-8.54c-.16-1.06-.29-1.93-.38-2.58,0-.28-.08-.52-.1-.71-.01-.08-.01-.16,0-.24,0,0,0,.08.07.23l.14.7c.13.6.29,1.48.47,2.57.36,2.17.77,5.19,1.18,8.54s.79,6.36,1.1,8.54c.16,1.06.29,1.93.39,2.58,0,.28.07.51.1.7.01.08.01.17,0,.25Z" fill="#e0e0e0"/>
      <path d="m145.43,81.37h-.25l-.71.06-2.65.22c-2.23.18-5.32.46-8.72.79s-6.5.57-8.74.71c-1.11.07-2,.11-2.65.13h-.97.25l.72-.07,2.64-.21c2.24-.18,5.32-.47,8.73-.79s6.49-.58,8.73-.71c1.12-.07,2-.12,2.65-.14h.72c.16-.01.25,0,.25,0Z" fill="#e0e0e0"/>
      <path d="m164.59,130.87c-.02.08-.04.16-.08.23l-.27.65c-.24.58-.59,1.4-1,2.44l-3.75,8.67h-.15l-11.78,2-4,.65h-.18v-.17l2.6-10.24v.11l-6.92-3.09-1.91-.87-.5-.24c-.11-.05-.16-.08-.16-.09l.18.06.5.21c.47.2,1.11.48,1.94.82l7,3h.08v.09l-2.56,10.25-.13-.15,4-.65,11.78-1.92-.08.07c1.58-3.56,2.9-6.53,3.83-8.64.47-1,.83-1.84,1.09-2.42l.3-.64.17-.13Z" fill="#e0e0e0"/>
      <polygon points="145.03 144.12 144.71 144.97 145.23 145.72 144.32 145.67 143.77 146.38 143.53 145.51 142.68 145.22 143.44 144.72 143.46 143.81 144.17 144.38 145.03 144.12" fill="#e0e0e0"/>
      <polygon points="136.95 130.38 136.78 130.8 137.04 131.17 136.59 131.14 136.32 131.5 136.2 131.08 135.77 130.93 136.15 130.68 136.16 130.23 136.51 130.5 136.95 130.38" fill="#e0e0e0"/>
      <polygon points="159.79 142.33 159.63 142.75 159.89 143.12 159.44 143.1 159.16 143.46 159.05 143.01 158.62 142.88 159 142.63 159.01 142.18 159.36 142.46 159.79 142.33" fill="#e0e0e0"/>
      <polygon points="146.61 134.74 146.45 135.17 146.7 135.54 146.25 135.5 145.98 135.87 145.86 135.44 145.44 135.29 145.81 135.04 145.82 134.59 146.18 134.87 146.61 134.74" fill="#e0e0e0"/>
      <polygon points="165.14 130.45 164.98 130.87 165.24 131.24 164.79 131.22 164.52 131.58 164.4 131.13 163.97 130.99 164.35 130.74 164.36 130.29 164.71 130.58 165.14 130.45" fill="#e0e0e0"/>
      <path d="m17.71,165.83h25.46s-2.25-4.09-8.8-3.5c-6.26.57-6.58-2-9.76-2.33s-5.84,2.13-6.9,5.83Z" fill="#e0e0e0"/>
      <path d="m22.77,65.58h25.46s-2.25-4.1-8.81-3.5c-6.26.57-6.57-2-9.76-2.34s-5.83,2.13-6.89,5.84Z" fill="#f5f5f5"/>
      <path d="m152.09,83.3h20.92s-1.85-3.37-7.23-2.88c-5.14.47-5.41-1.66-8-1.92s-4.82,1.75-5.69,4.8Z" fill="#f5f5f5"/>
      <path d="m110.34,124.58c1-7.84-4.48-14.31-11.36-18.19s-14.88-5.19-22.49-7.35c-7.17-2-14.31-5-19.62-10.25s-8.5-13.1-6.59-20.31c.37-1.85,1.4-3.51,2.89-4.67,1.55-1,3.93-1,5.09.45,2.46,3.13-2.35,8.74.67,11.35.69.6,1.64.82,2.35,1.39,1.91,1.52,1.29,4.48,1.56,6.9.53,4.79,5,8.12,9.44,10.06,5.91,2.6,12.31,3.82,18.58,5.36s12.59,3.48,17.81,7.28,9.75,9.73,9.72,16.19c0,1.8-.24,4-1.37,5.42-.95,1.35-2.78,1.76-4.21.93-1.85-.68-2.91-2.64-2.47-4.56" fill="#e7515b"/>
      <g fill="none" opacity=".8">
        <path d="m110.34,124.58c1-7.84-4.48-14.31-11.36-18.19s-14.88-5.19-22.49-7.35c-7.17-2-14.31-5-19.62-10.25s-8.5-13.1-6.59-20.31c.37-1.85,1.4-3.51,2.89-4.67,1.55-1,3.93-1,5.09.45,2.46,3.13-2.35,8.74.67,11.35.69.6,1.64.82,2.35,1.39,1.91,1.52,1.29,4.48,1.56,6.9.53,4.79,5,8.12,9.44,10.06,5.91,2.6,12.31,3.82,18.58,5.36s12.59,3.48,17.81,7.28,9.75,9.73,9.72,16.19c0,1.8-.24,4-1.37,5.42-.95,1.35-2.78,1.76-4.21.93-1.85-.68-2.91-2.64-2.47-4.56" fill="#fff"/>
      </g>
      <path d="m77,62.27c-.25-2.9,1.91-5.43,4.37-6.79s5.28-1.9,7.82-3.11c6.29-3,10.3-10,10.59-17.21s-2.82-14.41-7.71-19.71c-2-2.15-4.43-4.4-4.46-7.34s2.94-5.47,5.91-5.43,5.7,2,7.47,4.52c1.66,2.6,2.91,5.43,3.72,8.4-.69-1.22.71-2.74,2.06-2.61s2.41,1.26,3.25,2.38c3.6,4.9,5.33,10.93,4.85,17-.49,5.94-3.18,11.47-7.54,15.53-4.8,4.38-11.15,6.43-17.31,8.37l-12.84,4.06" fill="#e7515b"/>
      <g fill="none" opacity=".8">
        <path d="m77,62.27c-.25-2.9,1.91-5.43,4.37-6.79s5.28-1.9,7.82-3.11c6.29-3,10.3-10,10.59-17.21s-2.82-14.41-7.71-19.71c-2-2.15-4.43-4.4-4.46-7.34s2.94-5.47,5.91-5.43,5.7,2,7.47,4.52c1.66,2.6,2.91,5.43,3.72,8.4-.69-1.22.71-2.74,2.06-2.61s2.41,1.26,3.25,2.38c3.6,4.9,5.33,10.93,4.85,17-.49,5.94-3.18,11.47-7.54,15.53-4.8,4.38-11.15,6.43-17.31,8.37l-12.84,4.06" fill="#fff"/>
      </g>
      <path d="m73.42,1.25c-1.41.57-2.08,2.18-1.51,3.59s2.18,2.08,3.59,1.51,2.08-2.18,1.51-3.59c-.51-1.24-1.83-1.93-3.14-1.65" fill="#e7515b"/>
      <g fill="none" opacity=".8">
        <path d="m73.42,1.25c-1.41.57-2.08,2.18-1.51,3.59s2.18,2.08,3.59,1.51,2.08-2.18,1.51-3.59c-.51-1.24-1.83-1.93-3.14-1.65" fill="#fff"/>
      </g>
      <path d="m89.27,188.67c-1.58-3.26-.21-7.33,2.3-10s5.94-4.11,9.26-5.57c7.32-3.23,15.07-7.07,18.8-14.15,1.17-2.43,2.06-4.99,2.67-7.62,1.37-5,2.65-10.77-.1-15.21-.73-1.34-1.98-2.31-3.46-2.68-1.74-.2-3.44.57-4.45,2-.97,1.42-1.56,3.07-1.7,4.78-.41,3.23-.07,6.51-.41,9.75s-1.52,6.62-4.19,8.48c-3.24,2.26-7.87,1.75-11,4.14-2.54,1.93-3.51,5.27-5.49,7.77-1.68,2.09-4,3.53-6.16,5.14s-4.21,3.58-4.94,6.16c-1.09,3.89,1.18,7.92,5.07,9.01,1.69.47,3.5.32,5.09-.43" fill="#e7515b"/>
      <g fill="none" opacity=".8">
        <path d="m89.27,188.67c-1.58-3.26-.21-7.33,2.3-10s5.94-4.11,9.26-5.57c7.32-3.23,15.07-7.07,18.8-14.15,1.17-2.43,2.06-4.99,2.67-7.62,1.37-5,2.65-10.77-.1-15.21-.73-1.34-1.98-2.31-3.46-2.68-1.74-.2-3.44.57-4.45,2-.97,1.42-1.56,3.07-1.7,4.78-.41,3.23-.07,6.51-.41,9.75s-1.52,6.62-4.19,8.48c-3.24,2.26-7.87,1.75-11,4.14-2.54,1.93-3.51,5.27-5.49,7.77-1.68,2.09-4,3.53-6.16,5.14s-4.21,3.58-4.94,6.16c-1.09,3.89,1.18,7.92,5.07,9.01,1.69.47,3.5.32,5.09-.43" fill="#fff"/>
      </g>
      <path d="m40.56,23.79c-4.49-3.34-5.43-9.69-2.09-14.19.66-.89,1.47-1.67,2.39-2.3,1.49-1,3.27-1.66,4.6-2.9s2-2.62,3.27-3.54c2.16-1.5,5.14-.97,6.64,1.19.88,1.26,1.09,2.87.58,4.32-.61,1.71-2.14,3-2.78,4.65s-.25,3.87-.5,5.8c-.56,4.38-4.57,7.48-8.96,6.91-.61-.08-1.21-.23-1.78-.44" fill="#e7515b"/>
      <g fill="none" opacity=".8">
        <path d="m40.56,23.79c-4.49-3.34-5.43-9.69-2.09-14.19.66-.89,1.47-1.67,2.39-2.3,1.49-1,3.27-1.66,4.6-2.9s2-2.62,3.27-3.54c2.16-1.5,5.14-.97,6.64,1.19.88,1.26,1.09,2.87.58,4.32-.61,1.71-2.14,3-2.78,4.65s-.25,3.87-.5,5.8c-.56,4.38-4.57,7.48-8.96,6.91-.61-.08-1.21-.23-1.78-.44" fill="#fff"/>
      </g>
      <path d="m40.75,13.36h6v12c0,1.66-1.34,3-3,3h0c-1.66,0-3-1.34-3-3v-12h0Z" fill="#199ed9"/>
      <polygon points="40.75 13.36 43.74 7.88 46.73 13.36 40.75 13.36" fill="#fbbd9d"/>
      <path d="m42.55,10.05s.91,1.36,2.37,0l-1.18-2.17-1.19,2.17Z" fill="#363535"/>
      <path d="m46.81,25.07c-2.02.16-4.06.16-6.08,0,2.02-.16,4.06-.16,6.08,0Z" fill="#263238"/>
      <path d="m46.75,24.14c-2,.16-4,.16-6,0,2-.16,4-.16,6,0Z" fill="#263238"/>
      <path d="m42.5,13.45c.07,0,.12,2.38.12,5.33s0,5.33-.12,5.33-.12-2.39-.12-5.33.06-5.33.12-5.33Z" fill="#fafbfb"/>
      <path d="m44.92,13.45c.07,0,.12,2.38.12,5.33s0,5.33-.12,5.33-.12-2.39-.12-5.33.06-5.33.12-5.33Z" fill="#fafbfb"/>
      <polygon points="92.69 181.8 119.85 182.96 120.5 184.55 102.71 213.44 70.57 212.5 92.69 181.8" fill="#263238"/>
      <polygon points="69.35 209.69 101.68 211.52 118.56 185.33 106.71 186.29 76.7 196.86 69.35 209.69" fill="#e0e0e0"/>
      <path d="m64.81,207.74l29.68.47c-1.23-3.8,1.68-9.14,5.67-10.94,2.64-1.2,7.62-2.74,10.19-4.06,4.88-2.5,9.29-7.24,8.9-11.31l-12.19-.39-15.56-.6c-1.3,3.86-4.08,6.39-8.31,7.91-3.79,1.36-8.1,1.36-11.79,2.91-6,2.49-8.81,10.55-6.59,16" fill="#ebebeb"/>
      <path d="m64.81,207.74s0-.06-.08-.19l-.2-.57c-.11-.33-.19-.66-.25-1-.1-.44-.17-.9-.21-1.35-.22-2.99.53-5.96,2.14-8.49.26-.41.55-.81.86-1.19.16-.19.31-.4.48-.59l.55-.55c.18-.2.38-.38.59-.54.21-.16.42-.35.64-.51.46-.32.95-.61,1.45-.86,2.25-.97,4.63-1.63,7.07-1.94,1.28-.23,2.6-.48,3.93-.84,1.36-.38,2.67-.91,3.91-1.58.64-.34,1.26-.74,1.83-1.19.59-.45,1.13-.97,1.62-1.53,1.01-1.17,1.78-2.53,2.26-4v-.07h.09l13,.49c4.5.18,9.15.3,13.92.46h.97v.11c.07.93-.07,1.87-.39,2.74-.16.43-.34.86-.54,1.27-.23.39-.45.8-.71,1.16-1.02,1.48-2.26,2.79-3.68,3.89-1.36,1.09-2.85,2.01-4.44,2.74-1.56.71-3.15,1.28-4.7,1.86s-3.09,1.12-4.55,1.75c-.72.31-1.39.72-2,1.21-.32.23-.58.51-.87.76-.27.27-.52.56-.76.86-.95,1.15-1.66,2.47-2.08,3.9-.43,1.35-.46,2.79-.07,4.15v.13h-.14l-21.59-.38-6-.12h-2.11,2.11l6,.07,21.59.29-.09.13c-.39-1.4-.37-2.88.06-4.27.42-1.46,1.14-2.83,2.11-4,.23-.31.52-.58.77-.87s.57-.55.89-.78c.61-.5,1.28-.91,2-1.24,1.47-.65,3-1.19,4.56-1.77s3.13-1.15,4.69-1.85c1.56-.72,3.03-1.63,4.38-2.71,1.4-1.09,2.62-2.39,3.63-3.84.25-.37.48-.75.69-1.14.21-.4.38-.81.53-1.24.32-.84.45-1.74.38-2.64l.12.11h-.87c-4.77-.16-9.42-.28-13.92-.46l-13-.51.11-.07c-.5,1.47-1.29,2.83-2.31,4-.5.57-1.05,1.09-1.65,1.55-.58.46-1.21.87-1.86,1.22-1.27.68-2.61,1.21-4,1.58-1.34.36-2.66.61-4,.84-2.41.3-4.77.94-7,1.9-.5.24-.98.52-1.43.84-.22.16-.42.34-.63.5-.21.16-.41.33-.59.52l-.54.55c-.17.19-.32.39-.48.58-.31.37-.59.76-.85,1.17-.92,1.43-1.57,3-1.92,4.66-.26,1.23-.35,2.49-.27,3.75.03.45.1.9.19,1.35.05.34.13.67.24,1l.18.58.24.21Z" fill="#263238"/>
      <path d="m99.84,181.39s0-.19.07-.53c.03-.48-.05-.96-.24-1.4-.26-.66-.76-1.19-1.4-1.5-.79-.37-1.69-.4-2.5-.09-.81.32-1.46.94-1.81,1.74-.29.64-.39,1.36-.28,2.06.07.48.24.93.5,1.34.19.29.32.42.31.44-.15-.1-.28-.23-.38-.39-.31-.4-.51-.87-.6-1.36-.15-.74-.06-1.5.25-2.19.36-.86,1.05-1.53,1.92-1.87.88-.33,1.85-.29,2.69.12.68.34,1.2.93,1.46,1.64.19.47.25.97.17,1.47-.02.13-.05.27-.1.39-.03.09-.05.13-.06.13Z" fill="#263238"/>
      <path d="m104.49,181.39s0-.19.07-.53c.04-.48-.04-.96-.23-1.4-.27-.66-.77-1.19-1.41-1.5-.79-.37-1.69-.4-2.5-.09-.81.32-1.46.94-1.81,1.74-.29.64-.39,1.36-.28,2.06.08.48.25.93.51,1.34.18.29.32.42.3.44-.15-.1-.28-.23-.38-.39-.3-.4-.51-.87-.6-1.36-.14-.74-.05-1.5.25-2.19.36-.86,1.06-1.53,1.93-1.87.87-.33,1.84-.29,2.68.12.68.34,1.2.93,1.46,1.64.19.47.25.97.17,1.47-.02.13-.05.27-.1.39-.03.09-.05.13-.06.13Z" fill="#263238"/>
      <path d="m108.03,181.63c-.01-.18-.01-.35,0-.53,0-.48-.1-.96-.31-1.39-.31-.64-.84-1.14-1.49-1.42-.8-.33-1.7-.33-2.5,0-.79.36-1.4,1.03-1.7,1.84-.26.66-.32,1.39-.17,2.08.1.47.3.92.58,1.31.2.28.35.4.33.42-.16-.09-.29-.22-.4-.36-.32-.39-.56-.84-.68-1.33-.18-.73-.14-1.5.13-2.2.31-.88.96-1.6,1.81-2,.86-.37,1.83-.37,2.69,0,1.19.51,1.91,1.71,1.81,3-.01.13-.04.26-.08.39,0,.06,0,.13-.02.19Z" fill="#263238"/>
      <path d="m111.81,181.84v-.54c-.02-.48-.15-.94-.38-1.36-.34-.63-.89-1.11-1.56-1.35-1.68-.57-3.5.34-4.07,2.02-.01.03-.02.07-.03.1-.23.67-.25,1.4-.06,2.08.13.46.35.9.65,1.27.21.27.36.39.35.41-.16-.08-.3-.2-.42-.34-.34-.37-.6-.81-.75-1.29-.22-.72-.22-1.48,0-2.2.27-.89.89-1.64,1.71-2.08.83-.42,1.8-.48,2.68-.17.71.26,1.3.79,1.64,1.47.23.44.34.94.33,1.44,0,.14-.02.28-.06.41,0,.09-.02.13-.03.13Z" fill="#263238"/>
      <path d="m115.61,181.76v-.54c-.03-.48-.17-.94-.42-1.35-.35-.62-.92-1.08-1.6-1.3-1.71-.5-3.49.49-3.99,2.19,0,.01,0,.02-.01.04-.2.68-.2,1.4,0,2.08.14.46.38.89.69,1.26.22.26.38.37.36.39-.16-.08-.31-.19-.43-.33-.35-.35-.62-.79-.78-1.26-.23-.72-.23-1.49,0-2.21.24-.9.84-1.66,1.65-2.12.82-.44,1.78-.53,2.67-.25.72.24,1.32.75,1.68,1.42.25.44.38.94.37,1.44.02.13.02.27,0,.4-.17.1-.18.14-.19.14Z" fill="#263238"/>
      <path d="m118.81,182.19v-.54c0-.48-.14-.95-.37-1.37-.33-.63-.88-1.11-1.54-1.36-.82-.28-1.72-.23-2.5.15-.77.4-1.36,1.09-1.63,1.91-.23.67-.26,1.4-.08,2.09.13.47.34.9.64,1.28.21.27.36.39.34.41-.16-.09-.3-.21-.41-.35-.34-.37-.59-.82-.73-1.3-.23-.72-.23-1.48,0-2.2.29-.87.92-1.59,1.74-2,.84-.41,1.8-.47,2.68-.15.71.27,1.29.81,1.62,1.49.22.45.33.95.31,1.45,0,.13-.03.27-.06.4.01.04,0,.09-.01.09Z" fill="#263238"/>
      <path d="m132.8,82.54c-1.34-.04-2.67.03-4,.19-8.38,1.07-14.65,8.23-14.61,16.68-.04,2.7.3,5.39,1,8,2.33,8.3,3.06,15.61,2.79,19.17l7.83,4.21s3.62-5.21,7.12-7.45,15.16-8.25,19.77-14.43c3-4,3.55-12.15-3.54-19.29-4.35-4.37-10.2-6.9-16.36-7.08Z" fill="#f9bb1e"/>
      <polygon points="114.29 135.59 121.37 139.42 116.76 145.25 112.05 143.12 114.29 135.59" fill="#455b64"/>
      <path d="m114.63,135.82c-.06,0,.64-2.12,1.57-4.69.52-1.57,1.12-3.11,1.8-4.61.06,0-.64,2.12-1.57,4.69-.52,1.57-1.12,3.11-1.8,4.61Z" fill="#263238"/>
      <path d="m120.92,139.14c-.06,0,1.05-2,2.47-4.43s2.63-4.34,2.69-4.31-1,2-2.48,4.43-2.63,4.31-2.68,4.31Z" fill="#263238"/>
      <path d="m135.16,82.77c-.32,0-4.21,4.57-5.93,7.65-5.8,10.38-6.06,20.47-7.66,32.24-.23,1.69-1.07,5.31-1,5.23,1.2.75,2.44,1.42,3.73,2,0,0,2.72-3.28,3.8-4.93,4.32-6.6,9-11.75,12.71-18.72s7.27-13.15,3.84-20.27c-.05.01-5.98-3.4-9.49-3.2Z" fill="#f9bb1e"/>
      <path d="m152.75,109.91s0-.08-.1-.23-.14-.37-.27-.66c-.36-.81-.82-1.58-1.36-2.29-.83-1.1-1.85-2.05-3-2.81-1.48-.98-3.17-1.6-4.93-1.82h0c-.95-1.3-2-2.51-3.16-3.62-1.26-1.24-2.72-2.25-4.32-3-1.59-.73-3.34-1.07-5.09-1-1.6.07-3.15.58-4.47,1.49l-.07.05-.06-.06c-1.34-1.17-3-1.9-4.77-2.11-1.35-.15-2.73.03-4,.51-.84.32-1.62.76-2.33,1.31-.24.19-.42.35-.54.46l-.19.16s.05-.07.16-.19.29-.28.53-.48c1.79-1.51,4.11-2.23,6.44-2,1.81.19,3.52.94,4.89,2.13h-.13c1.35-.94,2.93-1.47,4.57-1.54,1.79-.09,3.58.25,5.21,1,1.62.75,3.1,1.76,4.38,3,1.17,1.12,2.23,2.35,3.17,3.67h-.07c1.79.23,3.5.88,5,1.89,1.16.78,2.18,1.75,3,2.88.54.73.98,1.52,1.33,2.35.12.29.18.52.24.67,0,.08-.03.16-.06.24Z" fill="#263238"/>
      <path d="m138.2,120.24c-.12-.6-.35-1.18-.67-1.7-.39-.59-.91-1.08-1.51-1.44-.77-.48-1.68-.7-2.59-.62h-.1v-.09c-.18-1.09-.63-2.12-1.29-3-.74-1.01-1.74-1.79-2.9-2.25-.95-.38-1.98-.54-3-.47-.94.06-1.86.33-2.7.77h-.08l-.06-.06c-.73-.77-1.68-1.28-2.72-1.47-.81-.16-1.64-.13-2.43.08-.7.21-1.36.55-1.94,1l.11-.11c.1-.1.21-.19.33-.27.44-.32.94-.56,1.46-.71.82-.24,1.67-.28,2.51-.13,1.09.18,2.08.71,2.84,1.51h-.13c3.41-1.83,7.65-.55,9.48,2.85.38.72.64,1.49.76,2.3l-.11-.09c.95-.08,1.9.16,2.7.67.62.39,1.14.91,1.52,1.53.24.4.42.83.52,1.28v.36c0,.08.01.06,0,.06Z" fill="#263238"/>
      <path d="m120,141.26s-.08-.1-.26-.17c-.27-.1-.56-.1-.83,0-.2.07-.42.1-.63.11-.26,0-.52-.11-.7-.3-.37-.39-.51-1-.87-1.35-.16-.19-.4-.29-.65-.27-.25.02-.5.07-.74.14-.24.06-.5.06-.74,0-.21-.05-.41-.15-.58-.29-.24-.2-.4-.48-.46-.79,0-.22,0-.34,0-.33s0,.11.08.31c.09.27.25.5.48.67.15.12.32.2.51.24.22.02.44,0,.65-.06.25-.08.52-.14.78-.17.32-.03.63.1.84.34.41.47.54,1,.86,1.36.13.16.33.26.54.26.2,0,.39-.03.58-.08.3-.09.62-.07.91.06.21.2.24.32.23.32Z" fill="#263238"/>
      <path d="m120.81,140.14c-2.34-1.06-4.61-2.27-6.79-3.62,1.19.49,2.34,1.06,3.45,1.7,1.15.57,2.27,1.21,3.34,1.92Z" fill="#263238"/>
      <path d="m119.4,141.91c-.09.05-.18.09-.27.12l-.32.16c-.15.05-.32.07-.48.06-.43-.03-.83-.18-1.17-.45-.2-.16-.35-.37-.44-.61-.08-.23-.2-.45-.35-.64-.36-.3-.82-.43-1.28-.37-.41.05-.83,0-1.23-.11-.27-.11-.49-.31-.62-.57-.08-.19-.05-.31,0-.31s0,.11.12.26c.14.21.36.38.6.46.38.07.78.07,1.16,0,.53-.08,1.07.08,1.47.43.16.21.29.45.38.7.08.21.21.39.38.54.28.24.63.4,1,.45.26.02.52-.02.76-.13.23-.01.29-.01.29,0Z" fill="#263238"/>
      <path d="m66,96.47l12.23-1.82-5.85-8.28-3.13.18c-2.11.13-3.97,1.43-4.81,3.37h0c-.45,1.03-.57,2.18-.36,3.28l1.92,3.27Z" fill="#e7515b"/>
      <path d="m66,96.47l12.23-1.82-5.85-8.28-3.13.18c-2.11.13-3.97,1.43-4.81,3.37h0c-.45,1.03-.57,2.18-.36,3.28l1.92,3.27Z" isolation="isolate" opacity=".4"/>
      <path d="m118.54,110.03c.13.35.26.77.4,1.26.12.43.16.87.13,1.31-.01.55-.1,1.1-.27,1.62-.2.46.26.93.66.7.74-.86,1.1-1.99,1-3.12,0-1.63,1.62.32,2.24,1s2.63,2.78,3,2.76c.53,0,.6-.61,0-1.3s-2.39-2.87-2-3.18,3.47,3.31,3.47,3.31c0,0,.54.87,1,.53.82-.61-2.75-4.21-3.1-4.54s.16-.58.41-.32,3,3.67,3.85,3c.65-.47-2.91-3-3.09-4s2.51,2.17,3.11,1.69c.22-.18.36-.34-1.44-2-.88-.79-4.22-3.12-4.22-3.12l-10-28.75-7.75,4.44,12.6,28.71Z" fill="#fbbd9d"/>
      <path d="m58.78,55.67l-11.22-13.39h0c-.14-.46-.33-.9-.55-1.33-.52-1.09-1.49-1.89-2.65-2.21-.71-.16-1.52-.08-2.08-.55-.25-.21-.42-.51-.68-.7s-.7-.23-.86.05c-.1.21-.1.46,0,.67.44,1,1.13,1.86,2,2.51l-2.55.8s-2.37-2.57-3.59-2.56,1,2.3,1,2.3c0,0-1.94-1.8-2.55-1.3s1,1.85,1,1.85c-.46-.32-1.02-.48-1.58-.45-.55.09-1,.74-.73,1.21.13.18.3.31.5.4l3,1.66c.48.32,1.03.52,1.6.59,1.51,0,2.66-.89,4.18-.85,0,0,8.46,17.8,9.31,18.72s19.45,2.17,19.45,2.17l10.75-9.27-23.75-.32Z" fill="#fbbd9d"/>
      <path d="m92.47,152.67l11.46,5-6.14,14.29c-1.33-.67-.89-9.24-.89-9.24l-7.47-2.89,3.04-7.16Z" fill="#f9bb1e"/>
      <g fill="none" opacity=".6">
        <path d="m98.18,158.03c.21-.25.57-.3.84-.12.25.2.31.57.12.83-.22.26-.61.31-.89.12-.24-.24-.24-.64,0-.88" fill="#fff"/>
      </g>
      <path d="m103.93,157.66l-1.18-.46-5.44,13.87s0,.76.48.88l6.14-14.29Z" fill="#fff" isolation="isolate" opacity=".6"/>
      <path d="m96.73,162.91c.07,0,.25-.31.62-.55s.74-.31.74-.38-.44-.15-.89.16-.54.76-.47.77Z" fill="#263238"/>
      <path d="m96.7,164.68c.06,0,.31-.21.71-.32s.74,0,.76-.12-.34-.28-.84-.13-.69.54-.63.57Z" fill="#263238"/>
      <path d="m98.13,166.3c0-.06-.26-.31-.72-.29s-.75.27-.71.33.34-.06.71-.07.68.09.72.03Z" fill="#263238"/>
      <path d="m95.1,162.06c.07,0,.11-.36.31-.74s.45-.64.41-.7-.42.12-.65.58-.14.87-.07.86Z" fill="#263238"/>
      <path d="m93.55,160.99s.19-.24.3-.71c.07-.28.1-.56.09-.85.01-.17.01-.33,0-.5,0-.1-.03-.2-.07-.29-.06-.14-.21-.22-.36-.19-.13.03-.24.11-.29.23-.04.09-.07.19-.08.29-.01.17-.01.34,0,.51,0,.29.06.57.15.84.17.47.38.69.4.67s-.11-.27-.22-.72c-.06-.26-.09-.52-.08-.79-.02-.16-.02-.31,0-.47,0-.17.07-.29.16-.3s0,0,.07,0c.03.07.05.14.06.21v.47c.03.27.03.53,0,.8-.06.26-.11.53-.13.8Z" fill="#263238"/>
      <path d="m93.69,160.95s-.17-.27-.61-.49c-.26-.13-.54-.21-.83-.24-.17-.02-.34-.02-.51,0-.23,0-.44.11-.56.3-.05.13-.02.28.07.38.07.07.15.14.23.19.15.09.32.16.49.21.29.07.58.07.87,0,.49-.12.69-.38.67-.39s-.26.14-.71.21c-.26.03-.52.01-.77-.07-.15-.04-.28-.1-.41-.19-.14-.09-.24-.19-.2-.25.09-.1.22-.15.35-.14.15-.01.31-.01.46,0,.26.02.52.08.77.17.43.15.66.34.69.31Z" fill="#263238"/>
      <path d="m83.65,172.3l4.74,9.92,1.48,8.94c.11.62.69,1.03,1.3.92.02,0,.04,0,.07-.01h0c.36-.08.65-.33.79-.67.87-2.16,4-10.11,3.64-10.82s-4.3-10.8-4.3-10.8l-7.72,2.52Z" fill="#f9bb1e"/>
      <path d="m91.24,192.07l4.13-12.16.19.42c.17.37.2.78.09,1.17-.3,1-1.2,3.88-3.59,9.88-.14.35-.45.61-.82.69Z" fill="#fff" isolation="isolate" opacity=".6"/>
      <g fill="none" opacity=".6">
        <path d="m91.86,177.59c-.17.3-.09.69.19.89.3.18.68.09.88-.19.18-.32.09-.73-.21-.94-.33-.16-.72-.03-.89.29" fill="#fff"/>
      </g>
      <path d="m91.57,186.65c-.39-.2-.81-.33-1.24-.38-.43.01-.86.12-1.25.3,0,0,.07-.16.29-.3.3-.18.65-.27,1-.24.36,0,.71.11,1,.31.13.15.22.3.2.31Z" fill="#263238"/>
      <path d="m91.45,188.32c-.36-.03-.72-.03-1.08,0-.34.09-.67.19-1,.31-.06,0,.33-.47,1-.55.38-.09.78,0,1.08.24Z" fill="#263238"/>
      <path d="m92.12,184.32c-.55-.09-1.11-.15-1.67-.16-.55.07-1.1.18-1.64.32.98-.69,2.27-.75,3.31-.16h0Z" fill="#263238"/>
      <path d="m90.93,181.2c0,.07-.65.09-1.39.38s-1.22.73-1.27.68c.27-.43.69-.75,1.18-.9.46-.23.98-.28,1.48-.16Z" fill="#263238"/>
      <path d="m89.62,178.25c-.5.05-.99.17-1.46.36-.44.25-.83.57-1.18.93,0,0,0-.18.2-.42.22-.31.52-.56.87-.72.34-.17.72-.26,1.11-.26.29,0,.46.08.46.11Z" fill="#263238"/>
      <path d="m87.92,178.04s-.09-.11-.18-.37c-.13-.36-.18-.75-.15-1.13,0-.28.09-.55.25-.78.13-.14.33-.19.51-.12.16.08.29.21.36.38.27.72-.01,1.53-.67,1.92-.64.35-1.42.3-2-.14-.15-.11-.23-.29-.24-.47,0-.19.14-.36.32-.41.27-.07.55-.07.82,0,.36.1.7.26,1,.47.22.15.32.27.31.28-.43-.27-.89-.46-1.38-.59-.23-.06-.48-.06-.71,0-.1.03-.17.12-.18.22.01.12.08.23.18.3.52.38,1.22.42,1.78.1.55-.34.8-1.01.59-1.62-.04-.12-.13-.21-.24-.27-.1-.05-.21-.02-.28.06-.14.19-.22.42-.23.66-.04.51,0,1.02.14,1.51Z" fill="#263238"/>
      <path d="m99.61,153.89l-13-8.75,4.3-42.22-12.3-7.18-11.27-2.6s-4.7,9.78-6.79,16c-4.45,13.31-7.57,18.08-6.85,27.73.22,3,11.5,10.69,18.62,14.93.08.85.2,1.69.38,2.53,2.43,11,9.86,25.63,9.86,25.63l11.29-5.25-3.65-12.47,3.8,2.21,5.61-10.56Zm-27.92-27.23l1.52-6.76c-.32,4.3-.62,8.79-.83,13.09-.73-2.02-.97-4.2-.69-6.33Z" fill="#363535"/>
      <path d="m82.59,179.99c-.04-.05-.07-.12-.09-.18l-.23-.53c-.21-.48-.5-1.17-.88-2.06-.75-1.79-1.82-4.39-3.11-7.61s-2.82-7.07-4.36-11.4c-.38-1.08-.76-2.19-1.11-3.35-.16-.58-.35-1.15-.46-1.77l-.09-.46-.05-.46c0-.31-.07-.62-.1-.93-.14-1.24-.25-2.51-.33-3.8,0-.64-.07-1.29-.1-2s0-1.32,0-2c.19-5.3.63-10.33,1-14.91s.73-8.69,1-12.15.47-6.26.58-8.2c.06-1,.1-1.72.12-2.23v-.78.78c0,.51,0,1.26-.07,2.23-.08,1.94-.25,4.75-.51,8.21s-.6,7.59-1,12.16-.79,9.61-1,14.9v2c0,.69.06,1.3.1,2,.08,1.28.19,2.55.32,3.79,0,.31.07.62.1.92l.06.46c0,.15.06.3.08.45.1.59.3,1.17.45,1.75.35,1.14.72,2.26,1.1,3.34,1.53,4.33,3,8.17,4.31,11.41s2.32,5.82,3,7.64l.83,2.07.21.54.23.17Z" fill="#455b64"/>
      <path d="m73.91,103.81s-.12-.07-.3-.24c-.23-.26-.42-.56-.55-.88-.39-1.07-.57-2.21-.55-3.35-.02-1.13.04-2.26.16-3.38.03-.47.09-.93.19-1.39.04.47.04.93,0,1.4,0,.86-.12,2.05-.09,3.36-.02,1.12.14,2.23.47,3.3.11.31.27.61.46.88.08.09.15.19.21.3Z" fill="#455b64"/>
      <path d="m69.05,93.76c.11.38.14.78.09,1.18-.12,1.97-1.31,3.72-3.1,4.56-.35.19-.74.31-1.14.35,0,0,.43-.16,1.06-.5,1.66-.89,2.78-2.54,3-4.42.1-.71.05-1.16.09-1.17Z" fill="#455b64"/>
      <path d="m89.23,118.31v.5c0,.35-.08.83-.15,1.44-.13,1.27-.33,3.08-.57,5.3-.51,4.49-1.21,10.65-2,17.46-.27,3.21-.06,6.44.64,9.59.31,1.36.7,2.69,1.18,4l1.21,3.47c.73,2.11,1.33,3.83,1.75,5l.46,1.38.11.36v.12l-.06-.12-.14-.35-.5-1.35c-.44-1.2-1.06-2.91-1.82-5-.38-1.06-.8-2.22-1.24-3.47-.48-1.31-.89-2.64-1.21-4-.71-3.17-.93-6.43-.66-9.66.76-6.83,1.51-13,2-17.46.27-2.22.49-4,.65-5.29.08-.61.14-1.09.19-1.43l.06-.38s.06-.08.1-.11Z" fill="#455b64"/>
      <polyline points="67.37 93.05 69.36 87.96 73.91 94.74 67.85 93.22" fill="#fbbd9d"/>
      <path d="m114.95,77.74l-5.4-12.09c-.64-2-1.85-2.25-2.87-3.38l-13.52-7.62c-9.85-4-15.21,9.49-15.21,9.49l-9,20.43c-10.53,3.49-3.07,11.58-3.07,11.58,0,0-2.87-5,0-6.78s6.22,3.08,9.36,7.78c3.71,5.56,15.76,9.17,15.76,9.17,1.41-1.49,1-6.69,2.12-9.48.35-.88,8.7-20.22,8.7-20.22l3.24,7.84s4.14-4.86,6.15-5.63c1.21-.47,2.46-.84,3.74-1.09Z" fill="#cb1f46"/>
      <path d="m90.99,86.33c-.12.11-.25.21-.4.29-.39.23-.81.42-1.23.58-1.42.53-2.95.68-4.45.46-1.49-.23-2.9-.85-4.09-1.78-.36-.27-.7-.58-1-.92-.21-.24-.32-.39-.3-.4s.48.52,1.4,1.19c2.42,1.77,5.54,2.25,8.38,1.29,1.04-.36,1.67-.75,1.69-.71Z" fill="#263238"/>
      <path d="m68.59,67.14h0l8.34.79,13.35-14.11-7.85-.27-14,1.38c.75,4.03.8,8.16.16,12.21Z" fill="#cb1f46"/>
      <path d="m80.18,59.72c-.02.09-.06.17-.1.25l-.34.72c-.3.66-.72,1.55-1.24,2.65-1,2.23-2.41,5.35-3.9,8.8s-2.85,6.58-3.88,8.82c-.51,1.12-.93,2-1.24,2.65l-.35.71c-.04.09-.08.17-.14.24.02-.09.06-.18.1-.26l.31-.73c.29-.66.68-1.57,1.17-2.68,1-2.29,2.32-5.4,3.81-8.85s2.89-6.56,4-8.78c.54-1.11,1-2,1.31-2.61l.37-.7c.06-.16.11-.24.12-.23Z" fill="#263238"/>
      <path d="m105.64,63.82s-.49.31-1.2.91c-.41.36-.79.75-1.13,1.17-.39.52-.72,1.08-1,1.67-.29.6-.51,1.22-.66,1.87-.13.53-.2,1.07-.22,1.61,0,.92.07,1.5,0,1.5s0-.13-.1-.39c-.04-.16-.06-.32-.07-.48-.01-.21-.01-.42,0-.63,0-.56.06-1.11.17-1.66.15-.66.37-1.31.66-1.92.3-.61.67-1.18,1.1-1.71.36-.43.75-.82,1.19-1.16.16-.14.34-.26.52-.37.13-.09.27-.18.42-.25.18-.12.31-.18.32-.16Z" fill="#263238"/>
      <path d="m107.97,44.45l-7.82,14.63c-1.28,2.39-4.19,3.39-6.66,2.28h0c-2.6-1.17-3.77-4.23-2.6-6.83.04-.1.09-.19.14-.29l1.35-2.54s-3.4-2.2-1.81-5.88c1.42-3.28,6.63-12.54,7.74-14.5l6.6,3c3.62,1.89,5.03,6.36,3.14,9.98-.03.05-.05.1-.08.15Z" fill="#fbbd9d"/>
      <path d="m92.4,51.65c1.68.79,3.55,1.06,5.38.78,0,0-2.31,2.12-5.81.16l.43-.94Z" fill="#ec996f"/>
      <path d="m94.92,39.95c-.14.28-.02.61.26.75,0,0,0,0,0,0,.26.15.59.06.74-.2,0,0,0-.02.01-.03.14-.28.02-.61-.26-.75,0,0,0,0,0,0-.27-.14-.6-.05-.75.22,0,0,0,0,0,0Z" fill="#263238"/>
      <path d="m94.95,39.47c0,.1.56,0,1.12.24s.84.72.94.68,0-.17-.09-.38c-.17-.28-.42-.5-.72-.63-.29-.14-.62-.17-.93-.1-.23.05-.34.15-.32.19Z" fill="#263238"/>
      <path d="m100.17,42.54c-.12.28,0,.61.27.75.27.14.6.05.75-.22,0,0,0,0,0,0,.13-.28,0-.61-.27-.75-.27-.14-.6-.05-.75.22,0,0,0,0,0,0Z" fill="#263238"/>
      <path d="m100.42,42.06c0,.1.56,0,1.12.24s.85.71.94.67,0-.17-.09-.38c-.16-.28-.41-.5-.71-.62-.29-.13-.62-.17-.93-.11-.23.06-.35.16-.33.2Z" fill="#263238"/>
      <path d="m96.52,45.32c-.26-.22-.54-.42-.84-.58-.14-.08-.26-.17-.24-.27s.14-.25.28-.39l.92-.9c.8-.75,1.55-1.56,2.23-2.43-.87.68-1.68,1.43-2.42,2.25l-.9.91c-.17.13-.28.32-.33.53,0,.12.05.24.14.32.07.06.15.1.23.14.29.18.6.32.93.42Z" fill="#263238"/>
      <path d="m98,46.44c-.09,0-.37.57-1.08.77-.46.07-.93.04-1.38-.08,0,0,.09.19.36.32.36.16.76.19,1.14.09.36-.09.67-.33.86-.65.14-.25.14-.43.1-.45Z" fill="#263238"/>
      <path d="m101.26,39.79c0,.18.58.36,1.21.74s1.07.79,1.22.69,0-.23-.11-.48c-.2-.31-.48-.57-.8-.75-.3-.19-.65-.3-1-.33-.33-.01-.51.05-.52.13Z" fill="#263238"/>
      <path d="m95.88,37.95c0,.17.49.21,1,.42s.82.47,1,.37.06-.2-.06-.4c-.16-.25-.4-.44-.68-.55-.27-.12-.58-.15-.87-.09-.29.06-.41.17-.39.25Z" fill="#263238"/>
      <path d="m105.51,46.65c.08,0,2.85.38,1.65,2.84-.41,1.06-1.61,1.58-2.67,1.17-.28-.11-.53-.27-.73-.49l1.75-3.52Z" fill="#fbbd9d"/>
      <path d="m104.97,49.59s0,.06.08.12c.08.09.2.15.32.17.44-.04.83-.31,1-.72.1-.21.17-.44.18-.67.03-.18-.04-.36-.17-.49-.09-.08-.22-.08-.31,0-.06.05-.07.11-.09.1s0-.06,0-.15c.04-.06.1-.1.17-.11.09-.03.18-.03.27,0,.19.14.28.37.26.6,0,.26-.06.52-.18.76-.2.46-.65.76-1.15.76-.15-.03-.28-.12-.36-.26-.04-.04-.03-.11-.02-.11Z" fill="#ec996f"/>
      <path d="m106.94,47.14c-.47-.24-1.04-.21-1.48.08-.32.29-.54.68-.86,1-.31.31-.78.38-1.17.18-.23-.2-.33-.5-.27-.8.07-.29.18-.56.35-.81.67-1.1,1.44-2.15,2-3.3.62-1.14.89-2.44.78-3.73-.12-1.33-.96-2.48-2.19-3-.8-.28-1.69-.2-2.51-.43-.99-.29-1.79-1.03-2.16-2,0-.12-.32-.55-.32-.55,0,0,.31-.56.6-.65,2.41-.59,4.96-.03,6.9,1.52,1.86,1.45,2.98,3.65,3.07,6,0,2.29-1.41,4.81-2.75,6.51" fill="#263238"/>
      <path d="m106.96,46.94c.81-1.08,1.69-2.11,2.65-3.06.85-1,1.43-2.53.82-3.74-.2-.41-.53-.76-.7-1.19-.14-.44-.22-.9-.24-1.36-.22-1.44-1.09-2.7-2.36-3.42-.87-.49-1.86-.69-2.74-1.15-1.39-.73-2.41-2.08-3.87-2.66-.48-.21-1.03-.21-1.51,0-.45.21-.65.74-.44,1.2.02.04.04.07.06.1-.11-.42-.54-.67-.96-.56-.04.01-.09.03-.13.04-.42.23-.67.69-.62,1.17.06.47.24.91.53,1.28.9,1.28,2.23,2.2,3.75,2.58l3.36-.26,2.75,2,2,3.24-3.69,4.8,1.34.99Z" fill="#263238"/>
      <path d="m85.96,27.8c-.42-6.54-6.06-11.5-12.59-11.08-6.54.42-11.5,6.06-11.08,12.59.29,4.58,3.21,8.59,7.48,10.27.09,1.41.2,3,.2,3l10.37-.67s0-1.68-.12-3.18c3.81-2.29,6.02-6.51,5.74-10.94Z" fill="#f9bb1e"/>
      <path d="m76.58,42.14v-.57c0-.38,0-.94.11-1.66s.14-1.59.3-2.6c.18-1.15.47-2.27.86-3.36.23-.63.52-1.25.86-1.83.18-.32.44-.59.76-.78.35-.18.78-.18,1.13,0,.19.09.33.25.41.44.08.2.08.42,0,.62-.18.38-.49.67-.87.84-.79.33-1.68.33-2.47,0-.83-.35-1.48-1.03-1.8-1.87-.17-.43-.23-.9-.16-1.36.08-.49.5-.86,1-.89.26.01.5.15.63.38.13.22.18.47.14.72-.12.48-.38.91-.76,1.23-.72.7-1.7,1.06-2.7,1-1.01-.09-1.9-.68-2.4-1.56-.26-.43-.32-.95-.18-1.43.14-.47.63-.73,1.1-.59.04.01.08.03.12.05.23.1.41.28.54.49.11.21.19.44.22.67.06.46.03.92-.09,1.37-.46,1.77-2.2,2.89-4,2.58-.41-.04-.8-.21-1.1-.49-.3-.3-.36-.77-.14-1.14.12-.16.31-.27.51-.29.2-.03.4,0,.58.07.33.16.61.44.77.77.34.62.62,1.23.9,1.81,1.1,2.32,1.9,4.24,2.44,5.57.27.67.47,1.19.6,1.55l.15.4v.14s-.04-.09-.06-.14l-.17-.39c-.14-.36-.35-.87-.62-1.53-.56-1.33-1.37-3.24-2.48-5.56-.28-.57-.57-1.19-.9-1.8-.16-.31-.42-.56-.73-.71-.32-.15-.7-.08-.94.18-.2.32-.15.74.13,1,.28.26.63.42,1,.46.81.12,1.64-.05,2.34-.49.73-.45,1.25-1.17,1.47-2,.12-.43.15-.87.09-1.31-.04-.43-.3-.8-.68-1-.19-.09-.42-.09-.61,0-.2.09-.35.26-.41.47-.13.44-.07.92.16,1.31.48.83,1.33,1.38,2.29,1.48.96.07,1.9-.27,2.59-.94.35-.29.61-.69.72-1.14.03-.22-.01-.44-.13-.63-.11-.18-.3-.3-.51-.31-.21,0-.42.08-.57.23-.16.15-.27.34-.31.55-.07.43-.02.88.15,1.28.61,1.62,2.42,2.45,4.04,1.84.02,0,.03-.01.05-.02.35-.16.64-.43.8-.78.14-.34,0-.73-.33-.9-.31-.16-.69-.16-1,0-.3.18-.55.43-.72.74-.34.58-.63,1.18-.86,1.81-.4,1.08-.7,2.2-.88,3.34-.17,1-.26,1.87-.33,2.59s-.1,1.26-.13,1.65v.43c.09-.08.08.01.08.01Z" fill="#263238"/>
      <path d="m79.66,43.88l-8.9.58c-.37.02-.69-.26-.71-.63,0,0,0,0,0,0h0c-.03-.36.24-.68.61-.71,0,0,0,0,.01,0l8.91-.58c.37-.02.69.26.71.63,0,0,0,0,0,0h0c.02.37-.26.69-.63.71,0,0,0,0,0,0Z" fill="#263238"/>
      <path d="m79.7,44.45l-8.9.58c-.37.02-.65.34-.63.71s.34.65.71.63h0l1-.07,1.46,2.39c.17.27.47.43.79.41l3.18-.21c.32-.02.6-.22.73-.51l1.1-2.55h.67c.36-.02.64-.33.62-.7,0,0,0,0,0-.01,0-.37-.3-.67-.67-.67-.02,0-.04,0-.06,0Z" fill="#263238"/>
      <g fill="none" opacity=".2">
        <path d="m66.03,21.51c.66-.69,1.42-1.27,2.27-1.72.56-.31,1.16-.53,1.79-.65.45-.08.7,0,.73,0s-.81.59-2,1.47c-3.09,2.25-4.58,6.1-3.81,9.85.25,1.43.65,2.3.46,2.41s-.3-.1-.57-.46c-.38-.51-.68-1.08-.89-1.68-.32-.9-.49-1.85-.51-2.81-.02-1.18.19-2.36.61-3.47" fill="#fff"/>
      </g>
      <g fill="none" opacity=".2">
        <path d="m73.7,19.51c-.75,0-1.42-.12-1.53-.51-.02-.25.12-.49.34-.6.68-.42,1.52-.47,2.24-.13.28.15.43.35.41.55" fill="#fff"/>
      </g>
      <path d="m77.87,48.61s-.24-.07-.62-.15c-.5-.11-1.02-.14-1.53-.09-.51.05-1.01.17-1.48.37-.36.15-.57.28-.58.26.16-.15.34-.27.54-.35.47-.24.98-.38,1.51-.43.52-.05,1.05,0,1.56.14.22.04.42.13.6.25Z" fill="#455b64"/>
      <path d="m79.14,45.87s-1.6.18-3.59.31-3.59.2-3.6.16,1.61-.18,3.59-.31,3.6-.2,3.6-.16Z" fill="#455b64"/>
      <path d="m78.66,46.96c-.29.07-.58.12-.88.14-.54.07-1.29.15-2.11.22s-1.59.1-2.13.12c-.29.02-.59.02-.88,0,.29-.05.58-.09.87-.1l2.12-.16,2.12-.17c.29-.04.59-.06.89-.05Z" fill="#455b64"/>
      <path d="m14.53,106.54l1.93,3.09s8.25-7.59,16.43-5.44c0,0-7.35-6.24-18.36,2.35Z" fill="#cb1f46"/>
      <path d="m32.89,104.19s6.06-6.58,14.94-5.08l2.42.37-.77-1.4s-15.45-5.29-16.59,6.11Z" fill="#e7515b"/>
      <path d="m20.11,82.02S7.98,79.93.03,84.22l12.63,23.79s10.34-10,20.23-3.83l-12.78-22.17Z" fill="#f5f5f5"/>
      <path d="m20.11,82.02l.07.09.18.3c.16.28.4.67.7,1.18l2.63,4.51,9.3,16s.04.1,0,.14c-.03.02-.08.02-.11,0-1.43-.88-3-1.48-4.65-1.79-.87-.14-1.74-.2-2.62-.18-.9.04-1.8.15-2.69.34-3.73.93-7.16,2.77-10,5.36l-.11.09s-.11.05-.15.02c0,0-.01,0-.02-.02h0L.03,84.26s-.04-.09,0-.13c0,0,0,0,0,0H.03c2.53-1.26,5.27-2.08,8.08-2.4,2.15-.26,4.31-.36,6.47-.28,1.8.06,3.19.2,4.14.32l1.08.15h.36-.37l-1.08-.12c-1-.1-2.34-.22-4.13-.27-2.15-.05-4.3.06-6.44.33-2.79.34-5.49,1.15-8,2.41v-.13c3.59,6.73,8,14.93,12.66,23.77h-.19l.1-.1c1.48-1.31,3.1-2.45,4.84-3.39,1.67-.91,3.45-1.59,5.31-2,.9-.19,1.81-.3,2.73-.34.89-.01,1.79.05,2.67.19,1.67.31,3.28.93,4.72,1.83l-.15.14-9.2-16c-1.1-2-2-3.48-2.58-4.54-.3-.52-.52-.93-.68-1.21l-.17-.31-.09-.17Z" fill="#263238"/>
      <path d="m39.18,77.14s-9.18-5.85-18.91,4.88l12.78,22.17s2.61-9,17.87-5.87l-11.74-21.18Z" fill="#f5f5f5"/>
      <path d="m39.18,77.14l.06.09.17.28c.15.27.36.65.64,1.13l2.42,4.3,8.54,15.33s.04.1,0,.14c-.02.01-.05.01-.07,0h0l-2.27-.37c-.39-.07-.78-.11-1.18-.13l-1.2-.1c-.4-.03-.81-.03-1.21,0h-1.24c-.42,0-.83.09-1.25.12-.42.04-.84.1-1.25.19l-1.26.29-1.22.43c-.41.16-.8.35-1.19.55-.21.09-.4.2-.58.33l-.56.35c-.36.25-.7.55-1,.83-.33.31-.64.65-.92,1-.59.69-1.05,1.48-1.36,2.33h0c-.02.06-.09.09-.15.07-.03,0-.05-.03-.06-.05-.17-.28-.34-.59-.52-.89l-12.25-21.29s-.03-.08,0-.12c1.93-2.19,4.29-3.96,6.93-5.21,2.04-.94,4.29-1.36,6.53-1.22,1.43.08,2.85.39,4.18.93.34.14.68.3,1,.48l.25.15c.06,0,.08,0,.08.06h-.09l-.25-.13c-.33-.17-.66-.32-1-.45-3.44-1.32-7.27-1.18-10.61.38-2.61,1.25-4.94,3.02-6.85,5.19v-.12l12.28,21.27c.18.31.35.62.52.9h-.23c.32-.89.8-1.71,1.41-2.43.3-.35.61-.68.94-1,.36-.29.7-.6,1.08-.85l.57-.37c.19-.12.38-.23.58-.33.4-.21.8-.4,1.22-.56l1.25-.44,1.27-.28c.42-.1.84-.16,1.27-.2.43,0,.85-.11,1.27-.12h1.25c.41-.03.82-.03,1.23,0l1.2.1c.4.02.8.06,1.19.13l2.28.39-.11.15c-3.49-6.32-6.41-11.62-8.46-15.35-1-1.85-1.81-3.32-2.37-4.33-.26-.5-.47-.88-.62-1.15l-.15-.3-.13-.1Z" fill="#cb1f46"/>
      <path d="m3.44,72.8l13.68,26.34s11.12-.49,15.83,4.93l-12.68-22s-7.44-9.27-16.83-9.27Z" fill="#f5f5f5"/>
      <path d="m3.44,72.8h1.72l.4.06.92.15c.34.07.67.15,1,.25.36.12.77.19,1.17.35,4.51,1.71,8.51,4.55,11.6,8.26h0l12.7,22c.04.05.04.12,0,.17-.05.02-.1.02-.15,0h0l-.54-.53c-1.02-.98-2.2-1.77-3.5-2.32-1.26-.55-2.57-.98-3.92-1.28-2.55-.57-5.16-.82-7.77-.77h0s-.08-.02-.1-.06c-4-7.73-7.39-14.34-9.81-19-1.19-2.32-2.13-4.17-2.79-5.44-.32-.62-.56-1.1-.73-1.44l-.19-.37-.06-.12.08.13.2.38.77,1.45,2.86,5.45,9.87,18.88-.1-.06c2.63-.07,5.27.19,7.84.76,1.37.29,2.71.72,4,1.29,1.32.57,2.53,1.37,3.57,2.36.19.19.37.38.55.55l-.2.14c-4.7-8.2-9.06-15.79-12.66-22.06h0c-1.76-2.06-3.77-3.88-6-5.42-1.69-1.2-3.54-2.16-5.49-2.86-.4-.16-.8-.24-1.16-.36-.33-.11-.66-.2-1-.26l-.91-.17-.39-.07h-.36l-1.42-.04Z" fill="#263238"/>
      <path d="m46.14,147.5l.3.49c.33.55.81.99,1.38,1.27l.51.26-.49.29c-.55.33-.99.81-1.27,1.38l-.25.51-.3-.48c-.33-.55-.81-.99-1.38-1.28l-.51-.25.49-.29c.55-.33.99-.81,1.27-1.39l.25-.51Z" fill="#e7515b"/>
      <path d="m19.17,47.14l.3.49c.33.55.81.99,1.38,1.28l.51.25-.49.29c-.55.33-.99.81-1.27,1.38l-.25.51-.3-.48c-.33-.55-.81-.99-1.38-1.28l-.51-.25.49-.29c.55-.33.99-.81,1.27-1.39l.25-.51Z" fill="#e7515b"/>
      <path d="m143.98,64.47l.29.49c.33.55.81.99,1.39,1.28l.51.25-.49.29c-.55.33-.99.81-1.27,1.38l-.26.51-.29-.48c-.33-.55-.81-.99-1.38-1.28l-.51-.25.48-.29c.55-.33.99-.81,1.28-1.39l.25-.51Z" fill="#e7515b"/>
      <path d="m129.24,153.8l.3.49c.33.55.81.99,1.38,1.28l.51.25-.49.29c-.55.33-.99.81-1.27,1.38l-.26.52-.29-.49c-.33-.55-.81-.99-1.38-1.28l-.51-.25.49-.29c.55-.33.99-.81,1.27-1.38l.25-.52Z" fill="#e7515b"/>
      <path d="m132.05,172.57l.14.06c.16.04.34.04.5,0h.14v.14c-.05.16-.05.34,0,.5v.15l-.14-.06c-.16-.04-.34-.04-.5,0h-.15l.06-.14c.04-.16.04-.34,0-.5l-.05-.15Z" fill="#e7515b"/>
      <path d="m140.53,45.66h.14c.16.05.34.05.5,0h.15l-.06.14c-.05.16-.05.34,0,.5v.15l-.14-.06c-.16-.04-.33-.04-.49,0h-.15l.05-.14c.05-.16.05-.34,0-.5v-.09Z" fill="#e7515b"/>
      <path d="m24.66,34.07h.14c.16.05.34.05.5,0h.15l-.06.14c-.04.16-.04.34,0,.5v.15l-.14-.06c-.16-.05-.34-.05-.5,0h-.15l.06-.14c.04-.16.04-.33,0-.49v-.1Z" fill="#e7515b"/>
      <path d="m38.96,132.89l.14.06c.16.04.34.04.5,0h.15l-.06.14c-.04.16-.04.34,0,.5v.15l-.14-.06c-.16-.04-.34-.04-.5,0h-.15l.06-.14c.06-.16.08-.33.05-.5l-.05-.15Z" fill="#e7515b"/>
      <path d="m54.46,171.14l-.13.14-.4.4-1.59,1.46-5.83,5.63v-.06c.28,6.1.65,14.4,1.07,23.62v.21l-.17-.11-2.11-1.41-13.35-8.94h0c-2-6-3.67-11-4.85-14.5-.59-1.76-1-3.16-1.36-4.12-.16-.47-.28-.84-.36-1.09-.02-.1-.05-.19-.09-.28,0-.03,0-.07,0-.1,0,.03,0,.06,0,.09l.1.28.38,1.08c.33,1,.81,2.35,1.42,4.1,1.2,3.53,2.9,8.54,4.93,14.48h0l13.36,8.92,2.1,1.41-.16.09c-.39-9.22-.75-17.52-1-23.62h0l5.92-5.68,1.6-1.5.42-.38.1-.12Z" fill="#cb1f46"/>
      <polygon points="48.25 199.58 48.21 200.95 49.32 201.76 48 202.14 47.57 203.46 46.79 202.32 45.41 202.31 46.26 201.22 45.84 199.9 47.14 200.38 48.25 199.58" fill="#e7515b"/>
      <polygon points="32.18 190.23 32.2 191.12 32.95 191.6 32.11 191.89 31.88 192.76 31.34 192.06 30.45 192.11 30.95 191.37 30.63 190.54 31.48 190.79 32.18 190.23" fill="#e7515b"/>
      <polygon points="25.25 170.32 25.92 171.19 27.01 171.12 26.4 172.02 26.8 173.05 25.75 172.74 24.9 173.44 24.86 172.34 23.94 171.75 24.97 171.38 25.25 170.32" fill="#e7515b"/>
      <polygon points="53.8 169.46 54.47 170.32 55.56 170.25 54.95 171.15 55.35 172.18 54.3 171.88 53.45 172.57 53.41 171.48 52.49 170.88 53.52 170.51 53.8 169.46" fill="#e7515b"/>
      <polygon points="46.3 177.8 46.73 178.35 47.43 178.31 47.04 178.88 47.29 179.54 46.62 179.34 46.08 179.79 46.06 179.09 45.47 178.71 46.13 178.47 46.3 177.8" fill="#e7515b"/>
      <circle cx="20.56" cy="131.31" r="9.7" fill="#199ed9"/>
      <g fill="none" opacity=".3">
        <path d="m19.34,134.33c0,.87-.71,1.58-1.58,1.58s-1.58-.71-1.58-1.58.71-1.58,1.58-1.58h0c.87,0,1.58.71,1.58,1.58Z" fill="#fff"/>
      </g>
      <g fill="none" opacity=".3">
        <path d="m17.05,129.77c0,.51-.41.92-.92.92s-.92-.41-.92-.92.41-.92.92-.92.92.41.92.92h0Z" fill="#fff"/>
      </g>
      <path d="m11.14,133.67c0,.17-8.3,8.18-6.15,9.88s11.2-2.67,18.92-8.9,14.76-13.8,12.83-15.8-11.57,3.93-11.57,3.93l1.15.73s5.83-3.74,7.68-2.29-3.41,7.13-10.83,12.54-14.59,9.22-15.7,7.73,4.14-6.43,4.14-6.43l-.47-1.39Z" fill="#e7515b"/>
      <g fill="none" opacity=".3">
        <path d="m11.14,133.67c0,.17-8.3,8.18-6.15,9.88s11.2-2.67,18.92-8.9,14.76-13.8,12.83-15.8-11.57,3.93-11.57,3.93l1.15.73s5.83-3.74,7.68-2.29-3.41,7.13-10.83,12.54-14.59,9.22-15.7,7.73,4.14-6.43,4.14-6.43l-.47-1.39Z" fill="#cb1f46"/>
      </g>
      <g fill="none" opacity=".3">
        <path d="m15.21,124.47c.08.09-.58.65-1.32,1.77-2.02,2.94-2.1,6.79-.2,9.81.7,1.15,1.33,1.73,1.25,1.82s-.83-.38-1.69-1.52c-.5-.67-.9-1.42-1.18-2.21-.34-.96-.51-1.98-.5-3,.03-1.03.24-2.04.62-3,.31-.78.74-1.5,1.27-2.15.88-1.17,1.7-1.59,1.75-1.52Z" fill="#fff"/>
      </g>
      <circle cx="127.46" cy="40.39" r="8" fill="#363535"/>
      <g fill="none" opacity=".4">
        <path d="m130.06,37.38c.02-.72.62-1.29,1.34-1.27.71.01,1.28.6,1.27,1.31,0,0,0,.01,0,.02-.02.72-.61,1.29-1.33,1.28-.72-.02-1.29-.62-1.28-1.34Z"/>
      </g>
      <g fill="none" opacity=".4">
        <path d="m132.67,40.43c.01-.42.36-.75.78-.74h0c.41,0,.75.35.74.76,0,0,0,0,0,.01,0,.42-.34.76-.76.76s-.76-.34-.76-.76v-.03Z"/>
      </g>
      <g fill="none" opacity=".4">
        <path d="m131.65,42.76c.15,0,.28.13.28.28h0c0,.16-.13.28-.29.28-.15,0-.28-.14-.27-.29h0c0-.15.12-.27.27-.27,0,0,0,0,.01,0Z"/>
      </g>
    </g>
  </g>
</svg>