<?xml version="1.0" encoding="UTF-8"?>
<svg id="Layer_2" data-name="Layer 2" xmlns="http://www.w3.org/2000/svg" viewBox="0 0 85.46 72">
  <defs>
    <style>
      .cls-1 {
        fill: none;
        stroke: #0195ff;
        stroke-linecap: round;
        stroke-linejoin: round;
        stroke-width: 2px;
      }
    </style>
  </defs>
  <g id="Layer_1-2" data-name="Layer 1">
    <g id="g5263">
      <g id="g5269">
        <path id="path5271" class="cls-1" d="m31.96,26.34c1.76-1.77,2.65-4.07,2.65-6.5,0-8.18-5.28-14.81-13.46-14.81s-14.81,6.63-14.81,14.81c0,3,1.35,5.8,4.04,7.65"/>
      </g>
      <g id="g5273">
        <path id="path5275" class="cls-1" d="m19.8,29.27c.75.34,1.68.55,2.69.55s1.94-.21,2.69-.55"/>
      </g>
      <g id="g5277">
        <path id="path5279" class="cls-1" d="m15.76,14.46c4.28,3.03,10.39,4.02,13.74,4.34,1.38.13,2.41,1.3,2.41,2.68v3.76c0,5.95-4.82,10.77-10.77,10.77s-10.77-4.82-10.77-10.77h0c0-3.11,1.15-6.1,3.24-8.4l2.15-2.37"/>
      </g>
      <g id="g5281">
        <path id="path5283" class="cls-1" d="m14.46,33.9v3.45c0,2.97,2.41,5.38,5.38,5.38h0c2.97,0,5.38-2.41,5.38-5.38v-1.77"/>
      </g>
      <g id="g5285">
        <path id="path5287" class="cls-1" d="m18.45,22.54v1.35"/>
      </g>
      <g id="g5289">
        <path id="path5291" class="cls-1" d="m26.53,22.54v1.35"/>
      </g>
      <g id="g5293">
        <path id="path5295" class="cls-1" d="m1,65.62h44.42"/>
      </g>
      <g id="g5297">
        <path id="path5299" class="cls-1" d="m10.42,50.81v-1.21c0-1.56,1.26-2.82,2.82-2.82h23.97c1.56,0,2.82,1.26,2.82,2.82v13.2c0,1.56-1.26,2.82-2.82,2.82H13.25c-1.56,0-2.82-1.26-2.82-2.82v-6.6"/>
      </g>
      <g id="g5301">
        <path id="path5303" class="cls-1" d="m27.92,56.19c0,1.49-1.21,2.69-2.69,2.69s-2.69-1.21-2.69-2.69,1.21-2.69,2.69-2.69,2.69,1.21,2.69,2.69Z"/>
      </g>
      <g id="g5305">
        <path id="path5307" class="cls-1" d="m31.96,46.77v-1.35c0-3.72-3.01-6.73-6.73-6.73"/>
      </g>
      <g id="g5309">
        <path id="path5311" class="cls-1" d="m14.46,38.69c-5.95,0-10.77,4.82-10.77,10.77v16.15"/>
      </g>
      <g id="g5313">
        <path id="path5315" class="cls-1" d="m6.73,15.42c-1.88-1.48-3.08-3.77-3.08-6.35C3.65,4.62,7.26,1,11.72,1c3.01,0,5.63,1.64,7.02,4.08"/>
      </g>
      <g id="g5317">
        <path id="path5319" class="cls-1" d="m54.85,57.54c0-2.97,2.41-5.38,5.38-5.38h18.85c2.97,0,5.38,2.41,5.38,5.38v13.46"/>
      </g>
      <g id="g5321">
        <path id="path5323" class="cls-1" d="m54.85,71v-19.73c0-2-.89-3.89-2.42-5.17l-5.66-4.71"/>
      </g>
      <g id="g5325">
        <path id="path5327" class="cls-1" d="m80.42,52.15v-8.79c0-2.04-1.15-3.9-2.98-4.82l-6.3-3.15c-.91-.46-1.49-1.39-1.49-2.41v-6.41"/>
      </g>
      <g id="g5329">
        <path id="path5331" class="cls-1" d="m49.46,11.77v9.42c0,5.02,3.43,9.22,8.08,10.42v3.72l-9.14,4.57c-1.82.91-2.98,2.78-2.98,4.82v26.29"/>
      </g>
      <g id="g5333">
        <path id="path5335" class="cls-1" d="m68.31,26.58c2.97,0,5.38-2.41,5.38-5.38v-9.42c0-5.2-4.22-9.42-9.42-9.42h-10.77c-3.72,0-6.73,3.01-6.73,6.73,0,1.49,1.21,2.69,2.69,2.69h1.35c2.23,0,4.04,1.81,4.04,4.04v4.04c0,3.72,3.01,6.73,6.73,6.73h1.35"/>
      </g>
      <g id="g5337">
        <path id="path5339" class="cls-1" d="m56.19,36h16.15"/>
      </g>
    </g>
  </g>
</svg>