<?xml version="1.0" encoding="UTF-8"?>
<svg id="Layer_2" data-name="Layer 2" xmlns="http://www.w3.org/2000/svg" viewBox="0 0 70 70">
  <defs>
    <style>
      .cls-1 {
        fill: #0195ff;
        stroke-width: 0px;
      }
    </style>
  </defs>
  <g id="Layer_1-2" data-name="Layer 1">
    <g>
      <path class="cls-1" d="m68.83,50.17h-7v-2.33h2.33c.65,0,1.17-.52,1.17-1.17v-7c0-.64-.52-1.17-1.17-1.17h-4.77l-2.21-24.35,4.58-12.59c.13-.37.07-.78-.16-1.1s-.62-.49-1.01-.47l-18.56,1.16L31.63,0c-.14-.02-.28,0-.41.03l-4.5,1.13L1.22,0C.88-.02.54.12.31.38.08.63-.03.97.01,1.31l2.32,18.54L0,44.22c-.01.13,0,.26.03.39l2.28,9.1L.01,68.65c-.06.37.07.74.33,1.01.22.22.52.34.82.34.06,0,.13,0,.19-.02l13.41-2.24,1.91,1.91c.25.25.59.37.95.34l19.71-2.07v.91c0,.64.52,1.17,1.17,1.17h30.33c.65,0,1.17-.52,1.17-1.17v-17.5c0-.64-.52-1.17-1.17-1.17h0Zm-9.33,0h-11.67v-2.33h11.67v2.33Zm3.5-4.67h-18.67v-4.67h18.67v4.67Zm-45.07,22.12l-1.94-1.94c-.27-.27-.65-.39-1.02-.33l-12.41,2.07,2.09-13.57c.02-.15.02-.31-.02-.46l-1.86-7.45,2.78.7.56-2.26-3.69-.92,2.17-22.74,2.41-.8,3.13,1.04.74-2.21-3.5-1.17c-.24-.08-.5-.08-.74,0l-2.15.72L2.5,2.4l24.28,1.1c.11,0,.23,0,.33-.03l3.76-.94,1.7,3.4-1.01,3.04,2.21.74,1.17-3.5c.1-.29.07-.61-.06-.89l-1.37-2.75,8.37.93c.07,0,.14.01.2,0l16.89-1.06-4.06,11.16c-.06.16-.08.33-.07.5l2.22,24.39h-13.89c-.65,0-1.17.52-1.17,1.17v7c0,.64.52,1.17,1.17,1.17h2.33v2.33h-7c-.65,0-1.17.52-1.17,1.17v14.24l-19.4,2.04Zm49.73.05h-28v-15.17h28v15.17Z"/>
      <path class="cls-1" d="m29.17,47.83c.31,0,.61-.12.82-.34l11.63-11.63c5.51-5.51,8.54-12.83,8.54-20.62v-7.07c0-.47-.28-.9-.72-1.08s-.94-.08-1.27.25l-29.17,29.17c-.22.22-.34.52-.34.82v8.85l-7.82,7.82,1.65,1.65,7.82-7.82h8.85Zm-8.17-10.02l26.83-26.83v4.25c0,7.17-2.79,13.91-7.86,18.97l-11.29,11.29h-6.03l21.34-21.34-1.65-1.65-21.34,21.34v-6.03Z"/>
      <path class="cls-1" d="m30.85,55.03l-2.85,1.9-2.85-1.9c-.39-.26-.9-.26-1.29,0l-2.85,1.9-2.85-1.9c-.39-.26-.9-.26-1.29,0l-3.5,2.33,1.29,1.94,2.85-1.9,2.85,1.9c.39.26.9.26,1.29,0l2.85-1.9,2.85,1.9c.2.13.42.2.65.2s.45-.07.65-.2l2.85-1.9,2.85,1.9,1.29-1.94-3.5-2.33c-.39-.26-.9-.26-1.29,0h0Z"/>
    </g>
  </g>
</svg>