<?xml version="1.0" encoding="UTF-8"?>
<svg id="Layer_2" data-name="Layer 2" xmlns="http://www.w3.org/2000/svg" viewBox="0 0 70 70">
  <defs>
    <style>
      .cls-1 {
        fill: #0195ff;
        stroke-width: 0px;
      }
    </style>
  </defs>
  <g id="Layer_1-2" data-name="Layer 1">
    <g>
      <path class="cls-1" d="m18.9,65.89h15.41v-2.05h-9.52l3.2-7.26h10.85v-2.05H5.14c-1.7,0-3.08-1.38-3.08-3.08V10.34c0-1.7,1.38-3.08,3.08-3.08h17.76v-2.05H5.14C2.3,5.21,0,7.51,0,10.34v41.1c0,2.83,2.3,5.14,5.14,5.14h20.62l-3.2,7.26h-5.7v6.16h10.39v-2.05h-8.33v-2.05Z"/>
      <path class="cls-1" d="m38.08,49.25c0-1.7-1.38-3.08-3.08-3.08s-3.08,1.38-3.08,3.08,1.38,3.08,3.08,3.08,3.08-1.38,3.08-3.08Zm-4.11,0c0-.57.46-1.03,1.03-1.03s1.03.46,1.03,1.03-.46,1.03-1.03,1.03-1.03-.46-1.03-1.03Z"/>
      <path class="cls-1" d="m4.59,41.92h2.05v2.05h-2.05v-2.05Z"/>
      <path class="cls-1" d="m58.56,23.01c3.59,0,6.51-2.92,6.51-6.51s-2.92-6.51-6.51-6.51-6.51,2.92-6.51,6.51,2.92,6.51,6.51,6.51Zm0-10.96c2.45,0,4.45,2,4.45,4.45s-2,4.45-4.45,4.45-4.45-2-4.45-4.45,2-4.45,4.45-4.45Z"/>
      <path class="cls-1" d="m64.86,5.21h-17.76v2.05h17.76c1.7,0,3.08,1.38,3.08,3.08v31.58H8.7v2.05h59.25v7.47c0,1.7-1.38,3.08-3.08,3.08h-23.96v2.05h1.1l4.11,9.32h4.98v2.05h-21.8v2.05h23.86v-6.16h-5.7l-3.2-7.26h20.62c2.83,0,5.14-2.3,5.14-5.14V10.34c0-2.83-2.3-5.14-5.14-5.14Z"/>
      <path class="cls-1" d="m35,21.23c5.85,0,10.62-4.76,10.62-10.62S40.85,0,35,0s-10.62,4.76-10.62,10.62,4.76,10.62,10.62,10.62Zm0-19.18c4.72,0,8.56,3.84,8.56,8.56s-3.84,8.56-8.56,8.56-8.56-3.84-8.56-8.56,3.84-8.56,8.56-8.56Z"/>
      <path class="cls-1" d="m32.19,4.19v12.86l9.74-6.43-9.74-6.43Zm2.05,3.82l3.96,2.61-3.96,2.61v-5.22Z"/>
      <path class="cls-1" d="m58.97,46.03h6.85v2.05h-6.85v-2.05Z"/>
      <path class="cls-1" d="m54.86,46.03h2.05v2.05h-2.05v-2.05Z"/>
      <path class="cls-1" d="m36.37,63.84h2.05v2.05h-2.05v-2.05Z"/>
      <path class="cls-1" d="m12.24,31.52l-1.4-1.5c-.51.48-1.01.98-1.5,1.5l1.5,1.41c.46-.49.93-.96,1.41-1.41Z"/>
      <path class="cls-1" d="m13.73,30.22c3.28-2.65,6.57-4.02,9.77-4.06.05,0,.11,0,.16,0,4.5,0,8.62,2.17,12.23,6.44,2.76,3.27,4.17,6.59,4.18,6.62l.26.63h1.62s.2-.77.2-.77c.03-.1,2.76-10.29,10.45-16.15l-1.25-1.63c-6.03,4.6-9.16,11.45-10.46,14.99-.74-1.34-1.87-3.15-3.4-4.97-3.97-4.72-8.76-7.22-13.84-7.22-.06,0-.12,0-.19,0-3.68.04-7.39,1.56-11.04,4.51l1.29,1.6Z"/>
      <path class="cls-1" d="m9.51,34.43l-1.58-1.31c-.83,1.01-1.29,1.69-1.31,1.72l1.7,1.15s.43-.63,1.19-1.56Z"/>
    </g>
  </g>
</svg>