<?xml version="1.0" encoding="UTF-8"?>
<svg id="Layer_2" data-name="Layer 2" xmlns="http://www.w3.org/2000/svg" viewBox="0 0 70 79.54">
  <defs>
    <style>
      .cls-1 {
        fill: #0195ff;
        fill-rule: evenodd;
        stroke-width: 0px;
      }
    </style>
  </defs>
  <g id="Layer_1-2" data-name="Layer 1">
    <g>
      <path class="cls-1" d="m68.45,32.11H15.44l50.91-14.75c.4-.11.73-.38.93-.74.2-.36.25-.79.13-1.18l-2.66-9.2c-1.06-3.67-4.48-6.24-8.32-6.24-.81,0-1.61.11-2.39.34L6.24,14.19c-2.21.64-4.04,2.11-5.16,4.14C-.04,20.35-.3,22.69.34,24.9l2.6,8.98v37.01c0,4.77,3.88,8.65,8.65,8.65h18.67c.86,0,1.55-.7,1.55-1.55s-.7-1.55-1.55-1.55H11.59c-3.05,0-5.54-2.48-5.54-5.54v-21.14h60.84v21.14c0,3.05-2.48,5.54-5.54,5.54h-18.67c-.86,0-1.55.7-1.55,1.55s.7,1.55,1.55,1.55h18.67c4.77,0,8.65-3.88,8.65-8.65v-37.23c0-.86-.7-1.55-1.55-1.55Zm-27.39,14.54l6.6-11.43h8.59l-6.6,11.43h-8.59Zm-12.17,0l6.6-11.43h8.59l-6.6,11.43h-8.59Zm-12.17,0l6.6-11.43h8.59l-6.6,11.43h-8.59Zm5.78-20.11l-11.05-10.62,8.28-2.4c.06.08.13.17.2.24l11.05,10.62-8.28,2.4c-.06-.08-.13-.17-.2-.24ZM43.3,6.99l11.05,10.62-8.28,2.4c-.06-.08-.13-.17-.2-.24l-11.05-10.62,8.28-2.4c.06.08.13.17.2.24Zm-11.69,3.39l11.05,10.62-8.28,2.4c-.06-.08-.13-.17-.2-.24l-11.05-10.62,8.28-2.4c.06.08.13.17.2.24Zm23.3-7.05c.5-.14,1.01-.22,1.53-.22,2.46,0,4.65,1.64,5.33,4l2.23,7.7-6.23,1.81c-.06-.08-.13-.17-.2-.24l-11.05-10.62,8.4-2.43ZM3.8,19.82c.72-1.3,1.89-2.24,3.3-2.65l.91-.26c.06.08.13.17.2.24l11.05,10.62-13.72,3.97-2.23-7.7c-.41-1.41-.24-2.91.48-4.21Zm2.25,15.39h13.67l-6.6,11.43h-7.07v-11.43Zm47.17,11.43l6.6-11.43h7.07v11.43h-13.67Z"/>
      <path class="cls-1" d="m47.21,62.94c0-.56-.3-1.07-.78-1.35l-13.65-7.88c-.48-.28-1.07-.28-1.55,0s-.78.79-.78,1.35v15.76c0,.55.3,1.07.78,1.34.24.14.51.21.78.21s.54-.07.78-.21l13.65-7.88c.48-.28.78-.79.78-1.35Zm-13.65,5.19v-10.38l8.99,5.19-8.99,5.19Z"/>
      <path class="cls-1" d="m36.47,76.43c-.86,0-1.55.7-1.55,1.55s.7,1.55,1.55,1.55,1.55-.7,1.55-1.55-.7-1.55-1.55-1.55Z"/>
    </g>
  </g>
</svg>