<?xml version="1.0" encoding="UTF-8"?>
<svg id="Layer_2" data-name="Layer 2" xmlns="http://www.w3.org/2000/svg" viewBox="0 0 76.09 70">
  <defs>
    <style>
      .cls-1 {
        fill: #0195ff;
        stroke-width: 0px;
      }
    </style>
  </defs>
  <g id="Layer_1-2" data-name="Layer 1">
    <g>
      <g id="LINE">
        <path class="cls-1" d="m68.48,12.56h-26.65c-.84,0-1.52-.68-1.52-1.52s.68-1.52,1.52-1.52h26.65c.84,0,1.52.68,1.52,1.52s-.68,1.52-1.52,1.52Z"/>
      </g>
      <g id="LINE-2" data-name="LINE">
        <path class="cls-1" d="m68.48,18.65h-26.65c-.84,0-1.52-.68-1.52-1.52s.68-1.52,1.52-1.52h26.65c.84,0,1.52.68,1.52,1.52s-.68,1.52-1.52,1.52Z"/>
      </g>
      <g id="LINE-3" data-name="LINE">
        <path class="cls-1" d="m68.48,30.82h-17.52c-.84,0-1.52-.68-1.52-1.52s.68-1.52,1.52-1.52h17.52c.84,0,1.52.68,1.52,1.52s-.68,1.52-1.52,1.52Z"/>
      </g>
      <g id="LINE-4" data-name="LINE">
        <path class="cls-1" d="m68.48,36.91h-17.52c-.84,0-1.52-.68-1.52-1.52s.68-1.52,1.52-1.52h17.52c.84,0,1.52.68,1.52,1.52s-.68,1.52-1.52,1.52Z"/>
      </g>
      <g id="LINE-5" data-name="LINE">
        <path class="cls-1" d="m68.48,24.73h-17.52c-.84,0-1.52-.68-1.52-1.52s.68-1.52,1.52-1.52h17.52c.84,0,1.52.68,1.52,1.52s-.68,1.52-1.52,1.52Z"/>
      </g>
      <g id="LINE-6" data-name="LINE">
        <path class="cls-1" d="m7.61,51.74c-.84,0-1.52-.68-1.52-1.52v-11.13c0-.84.68-1.52,1.52-1.52s1.52.68,1.52,1.52v11.13c0,.84-.68,1.52-1.52,1.52Z"/>
      </g>
      <g id="LINE-7" data-name="LINE">
        <path class="cls-1" d="m28.91,51.74c-.84,0-1.52-.68-1.52-1.52v-12.26c0-.84.68-1.52,1.52-1.52s1.52.68,1.52,1.52v12.26c0,.84-.68,1.52-1.52,1.52Z"/>
      </g>
      <g id="LINE-8" data-name="LINE">
        <path class="cls-1" d="m13.7,51.74c-.84,0-1.52-.68-1.52-1.52v-9.48c0-.84.68-1.52,1.52-1.52s1.52.68,1.52,1.52v9.48c0,.84-.68,1.52-1.52,1.52Z"/>
      </g>
      <g id="CIRCLE">
        <path class="cls-1" d="m21.3,33.39c-4.82,0-8.9-4.08-8.9-8.9s4.08-8.9,8.9-8.9,8.9,4.08,8.9,8.9-4.08,8.9-8.9,8.9Zm0-14.75c-3.17,0-5.85,2.68-5.85,5.85s2.68,5.85,5.85,5.85,5.85-2.68,5.85-5.85-2.68-5.85-5.85-5.85Z"/>
      </g>
      <g id="ARC">
        <path class="cls-1" d="m7.61,40.61c-.84,0-1.52-.68-1.52-1.52,0-3.38,2.17-6.3,5.4-7.28.8-.24,1.65.21,1.9,1.01.24.8-.21,1.65-1.01,1.9-1.94.59-3.24,2.34-3.24,4.37,0,.84-.68,1.52-1.52,1.52Z"/>
      </g>
      <g id="LINE-9" data-name="LINE">
        <path class="cls-1" d="m28.91,39.48c-.57,0-1.12-.32-1.38-.88-.35-.76-.03-1.67.73-2.02l14.23-6.63c.76-.36,1.67-.03,2.02.73s.03,1.67-.74,2.02l-14.23,6.63c-.21.1-.43.14-.64.14h0Z"/>
      </g>
      <g id="ARC-2" data-name="ARC">
        <path class="cls-1" d="m43.14,32.85c-.57,0-1.12-.32-1.38-.88-.35-.76-.03-1.67.74-2.02.51-.24.78-.59.82-1.07.05-.6-.27-1.29-.76-1.63-.39-.28-.83-.3-1.35-.06-.76.35-1.67.03-2.02-.73-.35-.76-.03-1.67.74-2.02,1.49-.7,3.09-.58,4.38.32,1.39.97,2.19,2.7,2.05,4.39-.14,1.57-1.07,2.87-2.57,3.56-.21.1-.42.14-.64.14h0Z"/>
      </g>
      <g id="LINE-10" data-name="LINE">
        <path class="cls-1" d="m26.41,33.93c-.57,0-1.12-.32-1.38-.88-.35-.76-.03-1.67.73-2.02l14.16-6.6c.76-.35,1.67-.03,2.02.73.35.76.03,1.67-.74,2.02l-14.16,6.6c-.21.1-.43.14-.64.14h0Z"/>
      </g>
      <g id="ARC-3" data-name="ARC">
        <path class="cls-1" d="m11.93,34.78c-.64,0-1.24-.41-1.45-1.06-.26-.8.19-1.66.99-1.91,4.91-1.57,10.18-1.87,15.23-.89.82.16,1.36.96,1.2,1.78s-.96,1.36-1.78,1.2c-4.56-.88-9.3-.61-13.73.8-.15.05-.31.07-.46.07Z"/>
      </g>
      <g id="LINE-11" data-name="LINE">
        <path class="cls-1" d="m74.57,54.78c-.84,0-1.52-.68-1.52-1.52V4.57c0-.84.68-1.52,1.52-1.52s1.52.68,1.52,1.52v48.7c0,.84-.68,1.52-1.52,1.52Z"/>
      </g>
      <g id="ARC-4" data-name="ARC">
        <path class="cls-1" d="m71.52,57.83c-.84,0-1.52-.68-1.52-1.52s.68-1.52,1.52-1.52,1.52-.68,1.52-1.52.68-1.52,1.52-1.52,1.52.68,1.52,1.52c0,2.52-2.05,4.57-4.57,4.57Z"/>
      </g>
      <g id="LINE-12" data-name="LINE">
        <path class="cls-1" d="m1.52,54.78c-.84,0-1.52-.68-1.52-1.52V19.78c0-.84.68-1.52,1.52-1.52s1.52.68,1.52,1.52v33.48c0,.84-.68,1.52-1.52,1.52Z"/>
      </g>
      <g id="ARC-5" data-name="ARC">
        <path class="cls-1" d="m4.57,57.83c-2.52,0-4.57-2.05-4.57-4.57,0-.84.68-1.52,1.52-1.52s1.52.68,1.52,1.52.68,1.52,1.52,1.52,1.52.68,1.52,1.52-.68,1.52-1.52,1.52Z"/>
      </g>
      <g id="LINE-13" data-name="LINE">
        <path class="cls-1" d="m71.52,3.04H4.57c-.84,0-1.52-.68-1.52-1.52s.68-1.52,1.52-1.52h66.96c.84,0,1.52.68,1.52,1.52s-.68,1.52-1.52,1.52Z"/>
      </g>
      <g id="ARC-6" data-name="ARC">
        <path class="cls-1" d="m74.57,6.09c-.84,0-1.52-.68-1.52-1.52s-.68-1.52-1.52-1.52-1.52-.68-1.52-1.52.68-1.52,1.52-1.52c2.52,0,4.57,2.05,4.57,4.57,0,.84-.68,1.52-1.52,1.52Z"/>
      </g>
      <g id="POINT">
        <path class="cls-1" d="m1.52,15.22c-.4,0-.79-.17-1.08-.44-.27-.29-.44-.67-.44-1.08s.17-.79.44-1.08c.58-.56,1.6-.56,2.16,0,.27.29.44.68.44,1.08s-.17.79-.44,1.08c-.29.27-.68.44-1.08.44Z"/>
      </g>
      <g id="LINE-14" data-name="LINE">
        <path class="cls-1" d="m1.52,9.13c-.84,0-1.52-.68-1.52-1.52v-3.04c0-.84.68-1.52,1.52-1.52s1.52.68,1.52,1.52v3.04c0,.84-.68,1.52-1.52,1.52Z"/>
      </g>
      <g id="ARC-7" data-name="ARC">
        <path class="cls-1" d="m1.52,6.09c-.84,0-1.52-.68-1.52-1.52C0,2.05,2.05,0,4.57,0c.84,0,1.52.68,1.52,1.52s-.68,1.52-1.52,1.52-1.52.68-1.52,1.52-.68,1.52-1.52,1.52Z"/>
      </g>
      <g id="POINT-2" data-name="POINT">
        <path class="cls-1" d="m62.39,57.83c-.41,0-.79-.17-1.08-.44-.27-.29-.44-.68-.44-1.08s.17-.79.44-1.08c.56-.56,1.6-.56,2.16,0,.27.29.44.68.44,1.08s-.17.79-.44,1.08c-.29.27-.68.44-1.08.44Z"/>
      </g>
      <g id="LINE-15" data-name="LINE">
        <path class="cls-1" d="m71.52,57.83h-3.04c-.84,0-1.52-.68-1.52-1.52s.68-1.52,1.52-1.52h3.04c.84,0,1.52.68,1.52,1.52s-.68,1.52-1.52,1.52Z"/>
      </g>
      <g id="LINE-16" data-name="LINE">
        <path class="cls-1" d="m56.3,57.83H4.57c-.84,0-1.52-.68-1.52-1.52s.68-1.52,1.52-1.52h51.74c.84,0,1.52.68,1.52,1.52s-.68,1.52-1.52,1.52Z"/>
      </g>
      <g id="LINE-17" data-name="LINE">
        <path class="cls-1" d="m74.57,51.74H1.52c-.84,0-1.52-.68-1.52-1.52s.68-1.52,1.52-1.52h73.04c.84,0,1.52.68,1.52,1.52s-.68,1.52-1.52,1.52Z"/>
      </g>
      <g id="LINE-18" data-name="LINE">
        <path class="cls-1" d="m47.17,63.91c-.84,0-1.52-.68-1.52-1.52v-6.09c0-.84.68-1.52,1.52-1.52s1.52.68,1.52,1.52v6.09c0,.84-.68,1.52-1.52,1.52Z"/>
      </g>
      <g id="LINE-19" data-name="LINE">
        <path class="cls-1" d="m28.91,63.91c-.84,0-1.52-.68-1.52-1.52v-6.09c0-.84.68-1.52,1.52-1.52s1.52.68,1.52,1.52v6.09c0,.84-.68,1.52-1.52,1.52Z"/>
      </g>
      <g id="LINE-20" data-name="LINE">
        <path class="cls-1" d="m65.43,70c-.16,0-.32-.03-.48-.08l-18.26-6.09c-.8-.27-1.23-1.13-.96-1.92.26-.8,1.12-1.23,1.92-.96l18.26,6.09c.8.27,1.23,1.13.96,1.92-.21.64-.81,1.04-1.44,1.04h0Z"/>
      </g>
      <g id="LINE-21" data-name="LINE">
        <path class="cls-1" d="m10.65,70c-.64,0-1.23-.4-1.44-1.04-.27-.8.16-1.66.96-1.92l18.26-6.09c.8-.27,1.66.17,1.92.96.27.8-.16,1.66-.96,1.92l-18.26,6.09c-.16.05-.32.08-.48.08h0Z"/>
      </g>
      <g id="LINE-22" data-name="LINE">
        <path class="cls-1" d="m47.17,63.91h-18.26c-.84,0-1.52-.68-1.52-1.52s.68-1.52,1.52-1.52h18.26c.84,0,1.52.68,1.52,1.52s-.68,1.52-1.52,1.52Z"/>
      </g>
    </g>
  </g>
</svg>