<?xml version="1.0" encoding="UTF-8"?>
<svg id="Layer_2" data-name="Layer 2" xmlns="http://www.w3.org/2000/svg" viewBox="0 0 70 77.27">
  <defs>
    <style>
      .cls-1 {
        fill: #0195ff;
        stroke-width: 0px;
      }
    </style>
  </defs>
  <g id="Layer_1-2" data-name="Layer 1">
    <g>
      <path class="cls-1" d="m67.46,28.21h-4.61v-.52c0-1.29-1.05-2.33-2.33-2.33h-9.08c-.63,0-1.13.51-1.13,1.13s.51,1.13,1.13,1.13h9.08s.07.03.07.07v13.82c0,.63.51,1.13,1.13,1.13s1.13-.51,1.13-1.13v-11.04h4.61c.15,0,.28.12.28.28v39.55c0,2.59-2.11,4.7-4.7,4.7H6.97c-2.59,0-4.7-2.11-4.7-4.7V30.76c0-.15.12-.28.28-.28h4.76v38.77c0,1.6,1.3,2.9,2.9,2.9h49.75c1.6,0,2.9-1.3,2.9-2.9v-22.9c0-.63-.51-1.13-1.13-1.13s-1.13.51-1.13,1.13v16.31h-18.34c-2.38,0-4.52,1-6.03,2.61v-14.66c0-.63-.51-1.13-1.13-1.13s-1.13.51-1.13,1.13v14.66c-1.51-1.6-3.66-2.61-6.03-2.61h-5.15c-.63,0-1.13.51-1.13,1.13s.51,1.13,1.13,1.13h5.15c2.96,0,5.42,2.14,5.93,4.95H10.2c-.35,0-.63-.28-.63-.63v-4.32h8.35c.63,0,1.13-.51,1.13-1.13s-.51-1.13-1.13-1.13h-8.35V27.69s.03-.07.07-.07h9.08c.63,0,1.13-.51,1.13-1.13s-.51-1.13-1.13-1.13h-9.08c-1.29,0-2.33,1.05-2.33,2.33v.52H2.55c-1.4,0-2.55,1.14-2.55,2.55v39.55c0,3.84,3.13,6.97,6.97,6.97h56.06c3.84,0,6.97-3.13,6.97-6.97V30.76c0-1.4-1.14-2.55-2.54-2.55h0Zm-25.21,36.72h18.34v4.32c0,.35-.28.63-.63.63h-23.64c.51-2.81,2.98-4.95,5.93-4.95h0Z"/>
      <path class="cls-1" d="m19.96,15.9c.62.06,1.18-.4,1.23-1.02.32-3.44,1.91-6.62,4.47-8.96,2.57-2.36,5.92-3.65,9.41-3.65,7.69,0,13.94,6.25,13.94,13.94,0,2.89-.88,5.67-2.54,8.02,0,.01-.02.03-.03.04l-7.25,11.29c-.12.18-.18.4-.18.61v1.47c0,.3-.24.54-.54.54h-.07l.72-12.25h1.29c1.85,0,3.35-1.5,3.35-3.35v-.14c0-1.85-1.5-3.35-3.35-3.35s-3.24,1.39-3.35,3.15l-.08,1.42h-3.98l-.08-1.42c-.1-1.77-1.57-3.15-3.35-3.15s-3.35,1.5-3.35,3.35v.14c0,1.85,1.5,3.35,3.35,3.35h1.29l.72,12.25c-.26-.04-.46-.26-.46-.53v-1.47c0-.22-.06-.43-.18-.61l-7.25-11.29s-.02-.03-.03-.04c-1.04-1.48-1.78-3.12-2.18-4.89-.14-.61-.75-.99-1.36-.85-.61.14-.99.75-.85,1.36.47,2.04,1.32,3.95,2.53,5.67l7.06,10.99v1.14c0,1.14.69,2.13,1.67,2.57v1.92c0,2.02,1.64,3.66,3.66,3.66h1.75c2.02,0,3.66-1.64,3.66-3.66v-1.92c.98-.44,1.67-1.42,1.67-2.57v-1.14l7.06-10.99c1.92-2.74,2.94-5.95,2.94-9.31,0-8.94-7.27-16.21-16.21-16.21-4.06,0-7.95,1.51-10.94,4.25-2.97,2.72-4.82,6.42-5.2,10.42-.06.62.4,1.18,1.02,1.23h0Zm19.37,6.48c.03-.57.51-1.02,1.08-1.02s1.08.49,1.08,1.08v.14c0,.6-.49,1.08-1.08,1.08h-1.16l.08-1.28Zm-9.75,1.28c-.6,0-1.08-.49-1.08-1.08v-.14c0-.6.49-1.08,1.08-1.08s1.05.45,1.08,1.02l.08,1.28h-1.16Zm7.27,2.27l-.72,12.25h-2.26l-.72-12.25h3.71Zm.49,16.2c0,.77-.62,1.39-1.39,1.39h-1.75c-.77,0-1.39-.62-1.39-1.39v-1.68h4.54v1.68h0Z"/>
      <path class="cls-1" d="m54.93,8.61c.27,0,.53-.09.75-.28l2.47-2.17c.47-.41.52-1.13.1-1.6s-1.13-.52-1.6-.1l-2.47,2.17c-.47.41-.52,1.13-.1,1.6.22.26.54.39.85.39h0Z"/>
      <path class="cls-1" d="m54.18,15.44l2.47,2.17c.22.19.48.28.75.28.31,0,.63-.13.85-.39.41-.47.37-1.19-.1-1.6l-2.47-2.17c-.47-.41-1.19-.37-1.6.1-.41.47-.37,1.19.1,1.6h0Z"/>
      <path class="cls-1" d="m12,6.15l2.47,2.17c.22.19.48.28.75.28.31,0,.63-.13.85-.39.41-.47.37-1.19-.1-1.6l-2.47-2.17c-.47-.41-1.19-.37-1.6.1-.41.47-.37,1.19.1,1.6Z"/>
      <path class="cls-1" d="m12.75,17.9c.27,0,.53-.09.75-.28l2.47-2.17c.47-.41.52-1.13.1-1.6-.41-.47-1.13-.52-1.6-.1l-2.47,2.17c-.47.41-.52,1.13-.1,1.6.22.26.54.39.85.39Z"/>
      <path class="cls-1" d="m25.05,39.32c0-.63-.51-1.13-1.13-1.13h-11.17c-.63,0-1.13.51-1.13,1.13s.51,1.13,1.13,1.13h11.17c.63,0,1.13-.51,1.13-1.13Z"/>
      <path class="cls-1" d="m27.37,43.95h-12.57c-.63,0-1.13.51-1.13,1.13s.51,1.13,1.13,1.13h12.57c.63,0,1.13-.51,1.13-1.13s-.51-1.13-1.13-1.13Z"/>
      <path class="cls-1" d="m27.37,49.47h-12.57c-.63,0-1.13.51-1.13,1.13s.51,1.13,1.13,1.13h12.57c.63,0,1.13-.51,1.13-1.13s-.51-1.13-1.13-1.13Z"/>
      <path class="cls-1" d="m27.37,55h-12.57c-.63,0-1.13.51-1.13,1.13s.51,1.13,1.13,1.13h12.57c.63,0,1.13-.51,1.13-1.13s-.51-1.13-1.13-1.13Z"/>
      <path class="cls-1" d="m58.54,39.32c0-.63-.51-1.13-1.13-1.13h-11.17c-.63,0-1.13.51-1.13,1.13s.51,1.13,1.13,1.13h11.17c.63,0,1.13-.51,1.13-1.13Z"/>
      <path class="cls-1" d="m55.36,43.95h-12.57c-.63,0-1.13.51-1.13,1.13s.51,1.13,1.13,1.13h12.57c.63,0,1.13-.51,1.13-1.13s-.51-1.13-1.13-1.13Z"/>
      <path class="cls-1" d="m55.36,49.47h-12.57c-.63,0-1.13.51-1.13,1.13s.51,1.13,1.13,1.13h12.57c.63,0,1.13-.51,1.13-1.13s-.51-1.13-1.13-1.13Z"/>
      <path class="cls-1" d="m55.36,55h-12.57c-.63,0-1.13.51-1.13,1.13s.51,1.13,1.13,1.13h12.57c.63,0,1.13-.51,1.13-1.13s-.51-1.13-1.13-1.13Z"/>
    </g>
  </g>
</svg>