<?xml version="1.0" encoding="UTF-8"?>
<svg id="Layer_2" data-name="Layer 2" xmlns="http://www.w3.org/2000/svg" viewBox="0 0 84.56 84.82">
  <defs>
    <style>
      .cls-1 {
        fill: #0195ff;
        stroke-width: 0px;
      }
    </style>
  </defs>
  <g id="Layer_1-2" data-name="Layer 1">
    <g>
      <path class="cls-1" d="m66.5,14.32H18.06c-.68,0-1.24.55-1.24,1.24s.55,1.24,1.24,1.24h48.45c.68,0,1.24-.55,1.24-1.24s-.55-1.24-1.24-1.24Z"/>
      <path class="cls-1" d="m81.81,47.41h-1.03v-24.99c0-.68-.55-1.24-1.24-1.24s-1.24.55-1.24,1.24v20.2c-.89-.32-1.51-.19-2.21-.22V6.64c0-1.08-.88-1.95-1.95-1.95H10.42c-1.08,0-1.95.88-1.95,1.95v40.77h-2.21V5.25c0-1.53,1.24-2.77,2.77-2.77h66.5c1.53,0,2.77,1.24,2.77,2.77v11.4c0,.68.55,1.24,1.24,1.24s1.24-.55,1.24-1.24V5.25c0-2.9-2.36-5.25-5.25-5.25H9.03C6.13,0,3.78,2.36,3.78,5.25v42.16h-1.03c-1.51,0-2.75,1.23-2.75,2.75v2.66c0,1.51,1.23,2.75,2.75,2.75h29.17l-.78,4.05h-6.41s-.04,0-.06,0c-2.37.12-4.48,1.15-5.81,2.84-1.09,1.28-1.33,1.98-2.32,2.44-.32-1.39-1.56-2.43-3.04-2.43h-1.36c-1.33,0-2.47.84-2.92,2.02H2.96c-1.6,0-2.89,1.3-2.89,2.89v12.51c0,1.6,1.3,2.89,2.89,2.89h6.26c.44,1.18,1.58,2.03,2.92,2.03h1.36c1.6,0,2.92-1.21,3.1-2.76.26.02.79-.07,1.49.21l3.38,1.35c2.4.96,5.38,1.04,7.68,1.04,5.67,0,3.71,0,4.13,0,2.54,0,4.24-2.65,3.14-4.96,1.67-.98,2.23-3.12,1.23-4.78,1.57-1.27,1.75-3.6.35-5.09,1.01-1.33.94-3.18-.19-4.42,1.54-1.51,1.63-3.81,1.13-4.71l.83-5.15h42.03c1.51,0,2.75-1.23,2.75-2.75v-2.66c0-1.51-1.23-2.75-2.75-2.75h0ZM9.02,80.31H2.96c-.23,0-.42-.19-.42-.42v-12.51c0-.23.19-.42.42-.42h6.06v13.35Zm5.12,1.39c0,.35-.29.64-.64.64h-1.36c-.35,0-.64-.29-.64-.64v-16.12c0-.35.29-.64.64-.64h1.36c.35,0,.64.29.64.64v16.12Zm62.9-36.82c.7,0,1.26.57,1.26,1.26v1.26h-12.3v-1.26c0-.7.57-1.26,1.26-1.26h9.78Zm-43.76,37.3c-2.12,0-3.56,0-3.91,0-1.25-.13-1.16-2,.1-2h3.81c1.33,0,1.32,2,0,2Zm1.39-4.48h-4.42c-1.33,0-1.32-2,0-2h4.42c1.33,0,1.32,2,0,2Zm.8-4.48h-4c-1.33,0-1.32-2,0-2h4c1.33,0,1.32,2,0,2Zm-3.12-6.49h2.88c1.33,0,1.32,2,0,2h-2.88c-1.33,0-1.32-2,0-2Zm4.37-4.62c0,1.18-.96,2.15-2.15,2.15h-8.19c-.68,0-1.24.55-1.24,1.24s.55,1.24,1.24,1.24h2.63c-.28.92-.16,1.9.32,2.73-1.32,1.02-1.74,2.81-.98,4.31-1.57,1.02-2.06,3.09-1.09,4.7-1.03.84-1.53,2.22-1.16,3.6-1.23-.1-2.41-.32-3.76-.78l-3.36-1.34c-1.2-.48-2.15-.37-2.38-.38v-12.1c2.49-.62,3.28-2.54,4.19-3.5.88-1.12,2.32-1.81,3.96-1.9,5.26,0,6.66,0,11.96,0v.02h0Zm-.11-2.5h-2.95c.92-4.82,6.13-31.97,6.9-35.99.08-.44.49-.76.94-.73.54.03.93.52.84,1.05l-5.73,35.67Zm45.46-6.8c0,.15-.12.27-.27.27h-41.63l2.06-12.83h6.48c.68,0,1.24-.55,1.24-1.24s-.55-1.24-1.24-1.24h-6.08l.86-5.34h23.01c.68,0,1.24-.55,1.24-1.24s-.55-1.24-1.24-1.24h-22.61l.86-5.34h21.75c.68,0,1.24-.55,1.24-1.24s-.55-1.24-1.24-1.24h-22.1c-.58-1.03-1.63-1.66-2.76-1.72-1.31-.07-2.51.63-3.13,1.72h-20.45c-.68,0-1.24.55-1.24,1.24s.55,1.24,1.24,1.24h19.8l-1.02,5.34h-18.77c-.68,0-1.24.55-1.24,1.24s.55,1.24,1.24,1.24h18.3l-1.02,5.34h-17.27c-.68,0-1.24.55-1.24,1.24s.55,1.24,1.24,1.24h16.8l-2.46,12.83H2.75c-.15,0-.27-.12-.27-.27v-2.66c0-.15.12-.27.27-.27h26c.68,0,1.24-.55,1.24-1.24s-.55-1.24-1.24-1.24H10.94V7.16h62.68v35.25h-6.36c-2.06,0-3.74,1.68-3.74,3.74v1.26h-18.11c-.68,0-1.24.55-1.24,1.24s.55,1.24,1.24,1.24h36.4c.15,0,.27.12.27.27v2.66Z"/>
    </g>
  </g>
</svg>