<?xml version="1.0" encoding="UTF-8"?>
<svg id="Layer_2" data-name="Layer 2" xmlns="http://www.w3.org/2000/svg" viewBox="0 0 68.2 69.95">
  <defs>
    <style>
      .cls-1 {
        fill: none;
        stroke: #0195ff;
        stroke-linecap: round;
        stroke-linejoin: round;
        stroke-width: 2px;
      }
    </style>
  </defs>
  <g id="Layer_1-2" data-name="Layer 1">
    <g id="g1605">
      <g id="g1607">
        <g id="g1609">
          <g id="g1615">
            <path id="path1617" class="cls-1" d="m60.09,65.41v3.54h-22.46v-5.25"/>
          </g>
          <g id="g1619">
            <path id="path1621" class="cls-1" d="m53.3,34.8h6.26c4.22,0,7.64,3.42,7.64,7.64v8.54c0,2.35-1.91,4.26-4.26,4.26h-2.85v5.38"/>
          </g>
          <g id="g1623">
            <path id="path1625" class="cls-1" d="m60.09,49.63v-7.54"/>
          </g>
          <g id="g1627">
            <path id="path1629" class="cls-1" d="m58.53,4.63c2.06,1.7,3.38,4.28,3.38,7.16v3.97"/>
          </g>
          <g id="g1631">
            <path id="path1633" class="cls-1" d="m37.2,15.76V4.17c0-2.49,2.75-4.01,4.85-2.68l.61.38c.66.41,1.42.63,2.2.63h7.77c.49,0,.96.04,1.43.11"/>
          </g>
          <g id="g1635">
            <path id="path1637" class="cls-1" d="m45.8,32.61v-3.04"/>
          </g>
          <g id="g1639">
            <path id="path1641" class="cls-1" d="m53.3,29.56v5.91c0,1.78-1.45,3.23-3.23,3.23h-1.04c-.08,0-.17,0-.25-.01"/>
          </g>
          <g id="g1643">
            <path id="path1645" class="cls-1" d="m57.2,15.01h2.66c1.74,0,3.15,1.41,3.15,3.15s-1.41,3.15-3.15,3.15h-2.66"/>
          </g>
          <g id="g1647">
            <path id="path1649" class="cls-1" d="m41.9,21.31h-2.66c-1.74,0-3.15-1.41-3.15-3.15s1.41-3.15,3.15-3.15h2.66"/>
          </g>
          <g id="g1651">
            <path id="path1653" class="cls-1" d="m41.9,9.9v13.24c0,3.99,3.24,7.23,7.23,7.23h.84c3.99,0,7.23-3.24,7.23-7.23v-8.59c0-2.8-2.27-5.06-5.06-5.06h-9.83c-.23,0-.41.18-.41.41Z"/>
          </g>
          <g id="g1655">
            <path id="path1657" class="cls-1" d="m51.47,24.84c-.46.45-1.08.72-1.77.72h-.3c-.69,0-1.31-.27-1.77-.72"/>
          </g>
          <g id="g1659">
            <path id="path1661" class="cls-1" d="m17.39,57.47v-16.07"/>
          </g>
          <g id="g1663">
            <path id="path1665" class="cls-1" d="m28.44,32.61h18.76c.88,0,1.59.71,1.59,1.59v6.13"/>
          </g>
          <g id="g1667">
            <path id="path1669" class="cls-1" d="m48.78,55.24v6.87c0,.88-.71,1.59-1.59,1.59h-28.21c-.88,0-1.59-.71-1.59-1.59v-20.71"/>
          </g>
          <g id="g1671">
            <path id="path1673" class="cls-1" d="m25.41,37.25h21.78c.88,0,1.59.71,1.59,1.59v10.79"/>
          </g>
          <g id="g1675">
            <path id="path1677" class="cls-1" d="m29.25,42.3v7.85c0,.52.57.83,1,.56l6.37-3.92c.42-.26.42-.86,0-1.12l-6.37-3.92c-.44-.27-1,.05-1,.56Z"/>
          </g>
          <g id="g1679">
            <path id="path1681" class="cls-1" d="m41.66,57.66h-10.71"/>
          </g>
          <g id="g1683">
            <path id="path1685" class="cls-1" d="m26.68,57.66h-2.16"/>
          </g>
          <g id="g1687">
            <path id="path1689" class="cls-1" d="m28.81,55.52c-1.18,0-2.14.96-2.14,2.14s.96,2.14,2.14,2.14,2.14-.96,2.14-2.14-.96-2.14-2.14-2.14Z"/>
          </g>
          <g id="g1691">
            <path id="path1693" class="cls-1" d="m50.65,55.24h-3.08c-1.4,0-2.53-1.13-2.53-2.53v-3.08h5.61"/>
          </g>
          <g id="g1695">
            <path id="path1697" class="cls-1" d="m45.03,49.63h-2.81"/>
          </g>
          <g id="g1699">
            <path id="path1701" class="cls-1" d="m61.91,49.63h-11.26v5.61h12.29c2.35,0,4.26-1.91,4.26-4.26v-1.36"/>
          </g>
          <g id="g1703">
            <path id="path1705" class="cls-1" d="m34.06,63.7v2.47c0,.82-.67,1.49-1.49,1.49h-3.26c-.82,0-1.49-.67-1.49-1.49v-2.47"/>
          </g>
          <g id="g1707">
            <path id="path1709" class="cls-1" d="m29.5,27.12c0,7.98-6.38,14.45-14.25,14.45S1,35.1,1,27.12s6.38-14.45,14.25-14.45,14.25,6.47,14.25,14.45Z"/>
          </g>
          <g id="g1711">
            <path id="path1713" class="cls-1" d="m21.86,27.36v5.49c0,.34-.23.63-.55.71l-5.7,1.48c-.24.06-.49.06-.72,0l-5.7-1.48c-.32-.08-.55-.38-.55-.71v-5.49"/>
          </g>
          <g id="g1715">
            <path id="path1717" class="cls-1" d="m15.04,22.6l-10.01,3.02c-.32.1-.32.55,0,.64l10.01,3.02c.14.04.28.04.42,0l10.01-3.02c.32-.1.32-.55,0-.64l-10.01-3.02c-.14-.04-.28-.04-.42,0Z"/>
          </g>
          <g id="g1719">
            <path id="path1721" class="cls-1" d="m5.03,26.27v3.84"/>
          </g>
        </g>
      </g>
    </g>
  </g>
</svg>