<svg width="104" height="100" viewBox="0 0 104 100" fill="none" xmlns="http://www.w3.org/2000/svg">
<path d="M18.7876 0.0117188H85.0133C95.054 0.0117188 103.172 8.12971 103.172 18.1704V81.8325C103.172 91.8732 95.054 99.9912 85.0133 99.9912H18.7876C8.7469 99.9912 0.628906 91.8732 0.628906 81.8325V18.1704C0.628906 8.12971 8.7469 0.0117188 18.7876 0.0117188Z" fill="#001E36"/>
<path d="M23.6992 70.1253V26.1599C23.6992 25.8609 23.8274 25.69 24.1265 25.69C24.8528 25.69 25.5364 25.69 26.5192 25.6472C27.5446 25.6045 28.6127 25.6045 29.7663 25.5618C30.92 25.519 32.159 25.519 33.4835 25.4763C34.8081 25.4336 36.0898 25.4336 37.3716 25.4336C40.8752 25.4336 43.7806 25.8609 46.1732 26.7581C48.3096 27.4845 50.275 28.6808 51.8986 30.2617C53.2658 31.6289 54.334 33.2952 55.0176 35.1325C55.6585 36.927 56.0003 38.7642 56.0003 40.6869C56.0003 44.3613 55.1458 47.3949 53.4367 49.7876C51.7277 52.1802 49.335 53.9747 46.5578 55.0002C43.6524 56.0683 40.4479 56.4529 36.9444 56.4529C35.9189 56.4529 35.2353 56.4529 34.8081 56.4101C34.3808 56.3674 33.7826 56.3674 32.9708 56.3674V70.0826C33.0135 70.3816 32.7999 70.638 32.5008 70.6807H24.2119C23.8701 70.6807 23.6992 70.5098 23.6992 70.1253ZM33.0135 33.9361V48.2922C33.6117 48.3349 34.1672 48.3776 34.6799 48.3776H36.9444C38.6107 48.3776 40.277 48.1212 41.8579 47.6085C43.2251 47.224 44.4215 46.4122 45.3614 45.344C46.2587 44.2759 46.686 42.8232 46.686 40.9432C46.7287 39.6187 46.3869 38.2942 45.7033 37.1406C44.9769 36.0297 43.9515 35.1752 42.7124 34.7052C41.1315 34.0643 39.4225 33.8079 37.6707 33.8507C36.5598 33.8507 35.5771 33.8507 34.7653 33.8934C33.9108 33.8507 33.3126 33.8934 33.0135 33.9361ZM82.6615 45.6859C81.3797 45.0022 80.0125 44.5322 78.5598 44.2332C76.9789 43.8913 75.398 43.6777 73.7744 43.6777C72.9199 43.635 72.0226 43.7632 71.2108 43.9768C70.6554 44.105 70.1854 44.4041 69.8863 44.8313C69.6727 45.1731 69.5445 45.6004 69.5445 45.9849C69.5445 46.3695 69.7154 46.754 69.9718 47.0958C70.3563 47.5658 70.869 47.9503 71.4245 48.2494C72.4072 48.7621 73.4326 49.2321 74.458 49.6594C76.7653 50.4285 78.987 51.4966 81.0379 52.7784C82.4479 53.6757 83.6015 54.872 84.4133 56.3247C85.0969 57.6919 85.4387 59.1874 85.396 60.7255C85.4387 62.7336 84.8405 64.7418 83.7296 66.4081C82.5333 68.1171 80.867 69.4417 78.9443 70.2107C76.8507 71.108 74.2871 71.578 71.2108 71.578C69.2454 71.578 67.3228 71.4071 65.4001 71.0225C63.9046 70.7662 62.4092 70.2962 61.042 69.6553C60.7429 69.4844 60.5293 69.1853 60.572 68.8435V61.4091C60.572 61.2809 60.6147 61.11 60.7429 61.0246C60.8711 60.9391 60.9993 60.9819 61.1274 61.0673C62.7938 62.05 64.5455 62.7336 66.4255 63.1609C68.0491 63.5882 69.7581 63.8018 71.4672 63.8018C73.0908 63.8018 74.2444 63.5882 75.0135 63.2036C75.6971 62.9045 76.1671 62.1782 76.1671 61.4091C76.1671 60.811 75.8253 60.2555 75.1417 59.7001C74.458 59.1446 73.0481 58.5037 70.9545 57.6919C68.7754 56.9229 66.7673 55.8974 64.8873 54.6156C63.5628 53.6757 62.452 52.4366 61.6402 50.9839C60.9565 49.6167 60.6147 48.1212 60.6574 46.6258C60.6574 44.7886 61.1702 43.0368 62.1101 41.4559C63.1783 39.7469 64.7592 38.3797 66.5964 37.5251C68.6045 36.4997 71.1254 36.0297 74.159 36.0297C75.9107 36.0297 77.7052 36.1579 79.457 36.4142C80.7388 36.5852 81.9779 36.927 83.1315 37.397C83.3024 37.4397 83.4733 37.6106 83.5587 37.7815C83.6015 37.9524 83.6442 38.1233 83.6442 38.2942V45.2586C83.6442 45.4295 83.5587 45.6004 83.4306 45.6859C83.046 45.7713 82.8324 45.7713 82.6615 45.6859Z" fill="#31A8FF"/>
</svg>
