<svg width="103" height="100" viewBox="0 0 103 100" fill="none" xmlns="http://www.w3.org/2000/svg">
<path d="M18.2446 0.0117188H84.4703C94.511 0.0117188 102.629 8.12971 102.629 18.1704V81.8325C102.629 91.8732 94.511 99.9912 84.4703 99.9912H18.2446C8.20393 99.9912 0.0859375 91.8732 0.0859375 81.8325V18.1704C0.0859375 8.12971 8.20393 0.0117188 18.2446 0.0117188Z" fill="#330000"/>
<path d="M49.647 59.8254H33.7529L30.5057 69.8661C30.4202 70.2507 30.0784 70.507 29.6939 70.4643H21.6613C21.1913 70.4643 21.0632 70.2079 21.1913 69.6952L34.9492 30.088C35.0774 29.6607 35.2056 29.1907 35.3765 28.678C35.5474 27.7807 35.6328 26.8408 35.6328 25.9008C35.5901 25.6871 35.761 25.4735 35.9746 25.4308H47.0407C47.3826 25.4308 47.5535 25.559 47.5962 25.7726L63.1913 69.7807C63.3195 70.2507 63.1913 70.4643 62.764 70.4643H53.8342C53.5351 70.507 53.2361 70.2934 53.1506 69.9943L49.647 59.8254ZM36.231 51.152H47.0835C46.8271 50.2548 46.4853 49.1866 46.1008 48.0757C45.7162 46.9221 45.3317 45.683 44.9472 44.4013C44.5199 43.0767 44.1354 41.795 43.7081 40.4704C43.2808 39.1459 42.8963 37.9069 42.5545 36.6678C42.2127 35.4715 41.9136 34.3606 41.6145 33.3352H41.529C41.1445 35.1724 40.6745 37.0096 40.0764 38.8468C39.4355 40.8977 38.7946 43.034 38.1109 45.1703C37.5128 47.3494 36.8719 49.3575 36.231 51.152ZM72.7192 32.9079C71.3093 32.9506 69.942 32.3952 68.9166 31.4125C67.9339 30.3443 67.4212 28.9343 67.4639 27.4817C67.4212 26.029 67.9766 24.6617 69.0021 23.679C70.0275 22.6963 71.3947 22.1836 72.8047 22.1836C74.471 22.1836 75.7528 22.6963 76.6928 23.679C77.6328 24.7044 78.1455 26.0717 78.1027 27.4817C78.1455 28.9343 77.6328 30.3443 76.6073 31.4125C75.6246 32.4379 74.1719 32.9933 72.7192 32.9079ZM67.9339 69.9943V37.0951C67.9339 36.6678 68.1048 36.4969 68.4893 36.4969H76.9491C77.3337 36.4969 77.5046 36.7105 77.5046 37.0951V69.9943C77.5046 70.4643 77.3337 70.6779 76.9491 70.6779H68.5748C68.1475 70.6779 67.9339 70.4216 67.9339 69.9943Z" fill="#FF9A00"/>
</svg>
