<svg width="103" height="100" viewBox="0 0 103 100" fill="none" xmlns="http://www.w3.org/2000/svg">
<path d="M18.1587 0.0117188H84.3843C94.4249 0.0117188 102.543 8.12985 102.543 18.1705V81.8325C102.543 91.8731 94.4249 99.9912 84.3843 99.9912H18.1587C8.11813 99.9912 0 91.8731 0 81.8325V18.1705C0 8.12985 8.11813 0.0117188 18.1587 0.0117188Z" fill="#00005B"/>
<path d="M41.1899 59.8264H25.2957L22.0484 69.9097C21.9631 70.294 21.621 70.5504 21.2367 70.5077H13.2043C12.7342 70.5077 12.6062 70.2514 12.7342 69.7387L26.4922 30.3022C26.6202 29.8749 26.7486 29.4905 26.9196 28.9778C27.0907 28.0808 27.176 27.1406 27.176 26.2005C27.1333 25.9868 27.304 25.7731 27.5177 25.7305H38.5837C38.8827 25.7305 39.0964 25.8584 39.1391 26.0721L54.7342 69.6529C54.8626 70.123 54.7342 70.3367 54.3068 70.3367H45.377C45.0779 70.3794 44.7789 70.1657 44.6932 69.8666L41.1895 59.6123V59.826L41.1899 59.8264ZM27.774 51.324H38.6263C38.37 50.4269 38.0283 49.3584 37.6436 48.2477C37.2588 47.0943 36.8745 45.8552 36.4902 44.5734C36.0628 43.2489 35.6784 41.9671 35.251 40.6427C34.8236 39.3182 34.4393 38.0791 34.0976 36.84C33.756 35.6435 33.4569 34.5328 33.1575 33.5073H33.0722C32.6875 35.3445 32.2178 37.1817 31.6194 39.0192C30.9787 41.0701 30.3376 43.2063 29.6538 45.3429C29.0985 47.5217 28.4147 49.5299 27.774 51.3244V51.324ZM79.8999 55.9811H66.3556C66.5267 57.3055 66.9537 58.63 67.6801 59.7838C68.4492 60.9372 69.5172 61.8347 70.799 62.3474C72.5082 63.0738 74.388 63.4581 76.2679 63.4155C77.7633 63.3728 79.2588 63.2444 80.7113 62.9454C82.0357 62.7744 83.3175 62.4327 84.514 61.9626C84.7277 61.7916 84.8556 61.8773 84.8556 62.3043V68.8416C84.8556 69.0127 84.813 69.1833 84.7703 69.3543C84.685 69.4827 84.5993 69.568 84.4713 69.6534C83.1042 70.2514 81.694 70.6788 80.1985 70.9351C78.1903 71.3195 76.1821 71.4905 74.1313 71.4479C70.8839 71.4479 68.1497 70.9351 65.9278 69.9524C63.8343 69.0549 61.9971 67.6452 60.5443 65.8933C59.1772 64.2272 58.1944 62.347 57.5964 60.2961C56.9984 58.2879 56.6989 56.1944 56.6989 54.0582C56.6989 51.751 57.0406 49.4864 57.767 47.2645C58.4508 45.1283 59.5189 43.1628 60.9713 41.4109C62.3815 39.7018 64.1329 38.3347 66.1411 37.3519C68.1493 36.3691 70.5418 36.0274 73.2765 36.0274C75.541 35.9848 77.8056 36.4122 79.8991 37.3519C81.651 38.121 83.1891 39.2748 84.3856 40.7698C85.4963 42.2227 86.3938 43.8461 86.9492 45.6406C87.5045 47.3498 87.7609 49.1013 87.7609 50.8531C87.7609 51.8785 87.7182 52.776 87.6756 53.5877C87.5903 54.3995 87.5472 54.9979 87.5045 55.3822C87.4619 55.6812 87.2055 55.9376 86.9065 55.9376C86.6501 55.9376 86.1801 55.9803 85.4963 56.0229C84.8126 56.1082 84.0008 56.1513 83.0181 56.1513C82.0353 56.1513 81.0099 55.9803 79.8991 55.9803L79.8999 55.9811ZM66.3556 49.7432H75.3708C76.4816 49.7432 77.2937 49.7432 77.806 49.7005C78.1477 49.6579 78.4898 49.5721 78.7888 49.3589V48.9315C78.7888 48.3761 78.7035 47.8634 78.5324 47.3507C77.7633 44.9581 75.4988 43.3342 72.9779 43.42C70.628 43.2916 68.4061 44.5307 67.2953 46.6673C66.7826 47.6501 66.4836 48.6755 66.3552 49.7436L66.3556 49.7432Z" fill="#9999FF"/>
</svg>
