<?xml version="1.0" encoding="UTF-8"?>
<svg id="Layer_2" data-name="Layer 2" xmlns="http://www.w3.org/2000/svg" viewBox="0 0 65.82 70">
  <defs>
    <style>
      .cls-1 {
        fill: #0195ff;
        stroke-width: 0px;
      }
    </style>
  </defs>
  <g id="Layer_1-2" data-name="Layer 1">
    <path class="cls-1" d="m65.77,66.24l-.58-3.42c-.1-.56-.63-.93-1.18-.84s-.93.63-.84,1.18l.58,3.42c.06.35-.03.68-.26.95-.23.27-.54.42-.89.42h-7.19l-1.28-7.89c-.09-.56-.62-.94-1.18-.85-.56.09-.94.62-.85,1.18l1.23,7.56H12.49l1.23-7.56c.09-.56-.29-1.09-.85-1.18-.56-.09-1.09.29-1.18.85l-1.28,7.89H3.22c-.35,0-.67-.15-.89-.42-.23-.27-.32-.61-.26-.95l1.4-8.2c.48-2.81,2.34-5.18,4.88-6.35.13-.03.26-.08.37-.16.28-.11.57-.21.86-.29l12.31-2.61c3.27,2.19,7.07,3.35,11.02,3.35s7.75-1.16,11.02-3.35l12.31,2.61c3.16.89,5.56,3.56,6.11,6.8.1.56.63.93,1.18.84s.93-.63.84-1.18c-.69-4.03-3.68-7.34-7.61-8.44-.02,0-.04-.01-.06-.01l-12.77-2.71-1.24-.26c-.8-.16-1.69-1.25-1.69-2.47v-3.55c1.89-1.7,3.86-3.69,4.7-4.91,1.41-2.07,2.23-4.5,2.38-7.02l.04-.65h.48c.84,0,1.56-.54,1.82-1.29h1.05c1.16,0,2.11-.95,2.11-2.11v-8.88c0-1.16-.95-2.11-2.11-2.11h-1.05c-.25-.71-.9-1.22-1.68-1.28-.38-2.75-1.56-5.32-3.4-7.33C40.82.07,34.18,0,33.8,0h-1.78c-.29,0-6.99.04-11.54,5.01-1.84,2.01-3.03,4.58-3.4,7.33-.78.06-1.43.57-1.69,1.28h-1.05c-1.16,0-2.11.95-2.11,2.11v3.42h-1.6c-1.94,0-3.52,1.58-3.52,3.52v27.69c-2.95,1.5-5.1,4.35-5.67,7.68L.05,66.24c-.16.94.1,1.89.71,2.62.61.73,1.51,1.14,2.46,1.14h59.37c.95,0,1.85-.42,2.46-1.14.61-.73.87-1.68.71-2.62Zm-15.24-50.57h.94s.06.03.06.06v8.88s-.03.06-.06.06h-.94v-9Zm-9.32,32.54c-2.55,1.35-5.38,2.06-8.3,2.06s-5.76-.71-8.31-2.06c1.42-.83,2.26-2.58,2.26-4.07v-1.81c.84.67,1.54,1.16,1.94,1.33,1.3.56,2.7.83,4.1.83s2.8-.28,4.1-.83c.4-.17,1.1-.66,1.94-1.33v1.81c0,1.49.84,3.24,2.26,4.07ZM22,6.39c3.93-4.29,9.96-4.34,10.02-4.34h1.78c.09,0,6.09.04,10.02,4.34,1.49,1.63,2.48,3.71,2.84,5.94h-27.51c.36-2.23,1.35-4.31,2.84-5.94Zm-4.66,7.99h31.15v11.58h-11.41c-.55,0-1.08-.15-1.55-.43-1.61-.97-3.61-.97-5.22,0-.47.28-1.01.43-1.55.43h-1.85c-.57,0-1.03.46-1.03,1.03s.46,1.03,1.03,1.03h1.85c.92,0,1.82-.25,2.61-.73.96-.58,2.15-.58,3.1,0,.79.48,1.69.73,2.61.73h8.99l-.03.54c-.12,2.14-.82,4.21-2.02,5.98-1.48,2.17-6.86,6.86-7.8,7.26-2.1.89-4.5.89-6.59,0-.31-.13-1.44-.95-3.08-2.41,0,0-.02-.02-.03-.02-.2-.18-.41-.37-.63-.57-1.88-1.71-3.44-3.35-4.06-4.26-1.2-1.77-1.9-3.83-2.02-5.98l-.03-.53h2.36c.57,0,1.03-.46,1.03-1.03s-.46-1.03-1.03-1.03h-4.78v-11.58Zm-3.05,1.35s.03-.06.06-.06h.94v9h-.94s-.06-.03-.06-.06v-8.88Zm-5.12,6.94c0-.81.66-1.47,1.47-1.47h1.6v3.42c0,1.16.95,2.11,2.11,2.11h1.05c.27.75.99,1.29,1.83,1.29h.48l.04.65c.14,2.52.96,4.94,2.38,7.02.83,1.22,2.8,3.22,4.7,4.91v3.55c0,1.22-.89,2.31-1.7,2.47l-1.23.26-12.73,2.7v-26.91Z"/>
  </g>
</svg>