<?xml version="1.0" encoding="UTF-8"?>
<svg id="Layer_2" data-name="Layer 2" xmlns="http://www.w3.org/2000/svg" viewBox="0 0 57.8 70">
  <defs>
    <style>
      .cls-1 {
        fill: #0195ff;
        stroke-width: 0px;
      }
    </style>
  </defs>
  <g id="Layer_1-2" data-name="Layer 1">
    <g>
      <path class="cls-1" d="m57.11,60.46l-6.95-6.95c3.05-5.45,2.46-12.4-1.77-17.26V14.43c0-1.84-1.5-3.34-3.34-3.34h-8.08v-1.06c0-2.84-2.31-5.15-5.15-5.15h-1.24v-1.22c0-2.02-1.64-3.66-3.66-3.66h-5.45c-2.02,0-3.66,1.64-3.66,3.66v1.22h-1.24c-2.84,0-5.15,2.31-5.15,5.15v1.06H3.34c-1.84,0-3.34,1.5-3.34,3.34v52.22c0,1.84,1.5,3.34,3.34,3.34h35.38c.57,0,1.02-.46,1.02-1.02s-.46-1.02-1.02-1.02H3.34c-.71,0-1.3-.58-1.3-1.3V14.43c0-.71.58-1.3,1.3-1.3h8.08v.33c0,.96.78,1.75,1.75,1.75h3.35c.57,0,1.02-.46,1.02-1.02s-.46-1.02-1.02-1.02h-3.05v-3.14c0-1.71,1.39-3.1,3.1-3.1h15.26c1.71,0,3.1,1.39,3.1,3.1v3.14h-13.45c-.57,0-1.02.46-1.02,1.02s.46,1.02,1.02,1.02h13.75c.96,0,1.75-.78,1.75-1.75v-.33h8.08c.71,0,1.3.58,1.3,1.3v19.87c-4.83-3.81-11.57-4.33-16.97-1.15-.49.29-.65.91-.36,1.4.29.49.91.65,1.4.36,5.11-3.01,11.61-2.18,15.81,2.02,5.08,5.08,5.08,13.34,0,18.42-2.46,2.46-5.73,3.81-9.21,3.81s-6.75-1.35-9.21-3.81c-4.77-4.77-5.08-12.52-.71-17.64.37-.43.32-1.08-.11-1.44-.43-.37-1.08-.32-1.44.11-2.45,2.87-3.72,6.54-3.58,10.33.14,3.81,1.71,7.39,4.4,10.09,2.85,2.85,6.63,4.41,10.65,4.41,2.63,0,5.15-.67,7.38-1.92l1.95,1.95v5.42c0,.71-.58,1.3-1.3,1.3h-1.39c-.57,0-1.02.46-1.02,1.02s.46,1.02,1.02,1.02h1.39c1.84,0,3.34-1.5,3.34-3.34v-3.37l2.95,2.95c.46.46,1.06.68,1.66.68s1.2-.23,1.66-.68l2.46-2.46c.44-.44.69-1.03.69-1.66,0-.63-.24-1.21-.69-1.66h0ZM19.86,3.66c0-.89.73-1.62,1.62-1.62h5.45c.89,0,1.62.73,1.62,1.62v1.22h-8.68v-1.22Zm35.81,58.66l-2.46,2.46c-.12.12-.3.12-.42,0l-6.65-6.65c.54-.41,1.05-.86,1.53-1.34.49-.49.93-1,1.34-1.54l6.65,6.65c.12.12.12.3,0,.42Z"/>
      <path class="cls-1" d="m32.74,23.59h8.67c.57,0,1.02-.46,1.02-1.02s-.46-1.02-1.02-1.02h-8.67c-.57,0-1.02.46-1.02,1.02s.46,1.02,1.02,1.02Z"/>
      <path class="cls-1" d="m7.45,23.59h18.93c.57,0,1.02-.46,1.02-1.02s-.46-1.02-1.02-1.02H7.45c-.57,0-1.02.46-1.02,1.02s.46,1.02,1.02,1.02Z"/>
      <path class="cls-1" d="m7.45,27.81h18.93c.57,0,1.02-.46,1.02-1.02s-.46-1.02-1.02-1.02H7.45c-.57,0-1.02.46-1.02,1.02s.46,1.02,1.02,1.02Z"/>
      <path class="cls-1" d="m19.42,31.2c0-.57-.46-1.02-1.02-1.02H7.45c-.57,0-1.02.46-1.02,1.02s.46,1.02,1.02,1.02h10.95c.57,0,1.02-.46,1.02-1.02Z"/>
      <path class="cls-1" d="m32.74,27.81h8.67c.57,0,1.02-.46,1.02-1.02s-.46-1.02-1.02-1.02h-8.67c-.57,0-1.02.46-1.02,1.02s.46,1.02,1.02,1.02Z"/>
      <path class="cls-1" d="m11.03,41.17c-2.74,0-4.98,2.23-4.98,4.98s2.23,4.98,4.98,4.98,4.98-2.23,4.98-4.98-2.23-4.98-4.98-4.98Zm0,7.91c-1.62,0-2.93-1.31-2.93-2.93s1.31-2.93,2.93-2.93,2.93,1.31,2.93,2.93-1.31,2.93-2.93,2.93Z"/>
      <path class="cls-1" d="m11.03,54.96c-2.74,0-4.98,2.23-4.98,4.98s2.23,4.98,4.98,4.98,4.98-2.23,4.98-4.98-2.23-4.98-4.98-4.98Zm0,7.91c-1.62,0-2.93-1.31-2.93-2.93s1.31-2.93,2.93-2.93,2.93,1.31,2.93,2.93-1.31,2.93-2.93,2.93Z"/>
      <path class="cls-1" d="m19.47,60.96h4.72c.57,0,1.02-.46,1.02-1.02s-.46-1.02-1.02-1.02h-4.72c-.57,0-1.02.46-1.02,1.02s.46,1.02,1.02,1.02Z"/>
    </g>
  </g>
</svg>