<?xml version="1.0" encoding="UTF-8"?>
<svg id="Layer_2" data-name="Layer 2" xmlns="http://www.w3.org/2000/svg" viewBox="0 0 70 51.18">
  <defs>
    <style>
      .cls-1 {
        fill: #0195ff;
        stroke-width: 0px;
      }
    </style>
  </defs>
  <g id="Layer_1-2" data-name="Layer 1">
    <g id="_54_Documentary" data-name=" 54 Documentary">
      <path class="cls-1" d="m66.24,51.18H3.76c-2.08,0-3.76-1.69-3.76-3.76v-5.72c0-.46.37-.84.84-.84s.84.37.84.84v5.72c0,1.16.94,2.09,2.09,2.09h62.47c1.16,0,2.09-.94,2.09-2.09V3.77c0-1.16-.94-2.09-2.09-2.09H3.76c-1.16,0-2.09.94-2.09,2.09h0v31.4c0,.46-.37.84-.84.84s-.84-.37-.84-.84V3.76C0,1.69,1.69,0,3.76,0h62.47c2.08,0,3.76,1.69,3.76,3.76v43.65c0,2.08-1.68,3.77-3.76,3.77,0,0,0,0,0,0Z"/>
      <path class="cls-1" d="m.84,39.9c-.46,0-.84-.37-.84-.84v-1.25c0-.46.37-.84.84-.84s.84.37.84.84v1.25c0,.46-.37.84-.84.84Z"/>
      <path class="cls-1" d="m.84,27.37c-.46,0-.84-.37-.84-.84V6.61c0-.46.37-.84.84-.84h11.36c.46,0,.84.37.84.84v8.56c0,6.74-5.47,12.19-12.2,12.2ZM1.67,7.45v18.22c5.47-.44,9.68-5.01,9.69-10.5v-7.72H1.67Z"/>
      <path class="cls-1" d="m12.2,51.18H3.76c-2.08,0-3.76-1.69-3.76-3.76v-5.72c0-.46.37-.84.84-.84s.84.37.84.84v5.72c0,1.16.94,2.09,2.09,2.09h7.6v-11.61c0-5.49-4.22-10.05-9.69-10.49v7.77c0,.46-.37.84-.84.84s-.84-.37-.84-.84v-8.65c0-.46.37-.84.84-.84,6.74,0,12.19,5.47,12.2,12.2v12.45c0,.46-.37.84-.84.84Z"/>
      <path class="cls-1" d="m1.88,27.37H.84c-.46,0-.84-.37-.84-.84V6.61c0-.46.37-.84.84-.84h6.73c.46,0,.84.37.84.84v14.24c0,3.6-2.92,6.51-6.52,6.52Zm-.21-1.67h.21c2.67,0,4.84-2.17,4.85-4.85V7.45H1.67v18.25Z"/>
      <path class="cls-1" d="m7.56,51.18h-3.8c-2.08,0-3.76-1.69-3.76-3.76v-5.72c0-.46.37-.84.84-.84s.84.37.84.84v5.72c0,1.16.94,2.09,2.09,2.09h2.96v-17.29c0-2.68-2.17-4.84-4.85-4.85h-.2v7.81c0,.46-.37.84-.84.84s-.84-.37-.84-.84v-8.65c0-.46.37-.84.84-.84h1.04c3.6,0,6.51,2.92,6.52,6.51v18.13c0,.46-.37.84-.83.84,0,0,0,0,0,0Z"/>
      <path class="cls-1" d="m69.16,27.37c-6.74,0-12.19-5.47-12.2-12.2V6.61c0-.46.37-.84.84-.84h11.37c.46,0,.84.37.84.84v19.92c0,.46-.37.84-.84.84Zm-10.53-19.92v7.72c0,5.49,4.22,10.05,9.69,10.5V7.45h-9.69Z"/>
      <path class="cls-1" d="m66.24,51.18h-8.44c-.46,0-.84-.37-.84-.84v-12.45c0-6.74,5.47-12.19,12.2-12.2.46,0,.84.37.84.84v20.88c0,2.08-1.68,3.77-3.76,3.77h0Zm-7.6-1.67h7.6c1.16,0,2.09-.94,2.09-2.09v-20.01c-5.47.44-9.69,5.01-9.69,10.5v11.61Z"/>
      <path class="cls-1" d="m69.16,27.37h-1.04c-3.6,0-6.52-2.92-6.52-6.52V6.61c0-.46.37-.84.84-.84h6.73c.46,0,.84.37.84.84v19.92c0,.46-.37.84-.84.84Zm-5.89-19.92v13.4c0,2.67,2.17,4.84,4.85,4.85h.21V7.45h-5.05Z"/>
      <path class="cls-1" d="m66.24,51.18h-3.8c-.46,0-.84-.37-.84-.84v-18.13c0-3.6,2.92-6.52,6.52-6.52h1.04c.46,0,.84.37.84.84v20.88c0,2.08-1.68,3.77-3.76,3.77h0Zm-2.96-1.67h2.96c1.16,0,2.09-.94,2.09-2.09v-20.05h-.21c-2.67,0-4.84,2.17-4.85,4.85v17.3Z"/>
      <path class="cls-1" d="m69.16,7.45H.84c-.46,0-.84-.37-.84-.84v-2.85C0,1.69,1.69,0,3.76,0h62.47c2.08,0,3.76,1.69,3.76,3.76v2.85c0,.46-.37.84-.84.84ZM1.67,5.77h66.65v-2.01c0-1.16-.94-2.09-2.09-2.09H3.76c-1.16,0-2.09.94-2.09,2.09h0v2.01Z"/>
      <path class="cls-1" d="m39.12,41.02h-14.3c-2.93,0-5.3-2.37-5.3-5.3v-6.88c0-2.93,2.37-5.3,5.3-5.3h14.3c2.93,0,5.3,2.37,5.3,5.3v6.88c0,2.93-2.37,5.3-5.3,5.3Zm-14.3-15.8c-2,0-3.63,1.62-3.63,3.63v6.88c0,2,1.62,3.63,3.63,3.63h14.3c2,0,3.63-1.62,3.63-3.63h0v-6.88c0-2-1.62-3.63-3.63-3.63h-14.3Z"/>
      <path class="cls-1" d="m48.68,39.93c-.3,0-.6-.08-.87-.23l-4.6-2.54c-.27-.15-.43-.43-.43-.73v-8.32c0-.3.17-.58.43-.73l4.6-2.54c.87-.48,1.97-.16,2.45.71.15.27.22.56.22.87v11.7c0,.99-.81,1.8-1.8,1.81h0Zm-4.23-3.99l4.17,2.3h0s.09.03.13,0c.04-.02.07-.07.06-.11v-11.7c0-.07-.06-.13-.13-.13-.02,0-.04,0-.06.02l-4.17,2.3v7.33Z"/>
      <path class="cls-1" d="m26.35,25.27c-2.57,0-4.65-2.08-4.65-4.65,0-2.57,2.08-4.65,4.65-4.65,2.57,0,4.65,2.08,4.65,4.65h0c0,2.57-2.08,4.65-4.65,4.65Zm0-7.62c-1.64,0-2.98,1.33-2.98,2.98s1.33,2.98,2.98,2.98,2.98-1.33,2.98-2.98h0c0-1.64-1.33-2.97-2.98-2.98h0Z"/>
      <path class="cls-1" d="m34.91,25.27c-3.08,0-5.57-2.5-5.57-5.58s2.5-5.57,5.58-5.57c3.08,0,5.57,2.5,5.57,5.58,0,3.08-2.5,5.58-5.58,5.58Zm0-9.49c-2.16,0-3.9,1.76-3.9,3.91,0,2.16,1.76,3.9,3.91,3.9,2.15,0,3.89-1.75,3.9-3.9,0-2.16-1.75-3.91-3.91-3.91Z"/>
    </g>
  </g>
</svg>