<svg width="100" height="100" viewBox="0 0 100 100" fill="none" xmlns="http://www.w3.org/2000/svg">
<g clip-path="url(#clip0_48_1757)">
<path d="M36.9395 98.535H34.2961C33.0221 98.535 31.9893 97.5021 31.9893 96.2281V80.8777C31.9893 79.6051 31.4285 78.4043 30.4707 77.5672C24.8641 72.674 21.2969 65.315 21.2969 57.0836C21.2969 46.7463 26.9244 37.7816 35.152 33.3535" stroke="#6610F2" stroke-width="3" stroke-miterlimit="10" stroke-linecap="round" stroke-linejoin="round"/>
<path d="M70.1432 38.2578C73.233 41.5021 75.2687 45.8455 75.9078 51.3723C76.2004 53.9022 75.598 55.1928 74.6385 56.4939C74.107 57.2146 73.7723 58.6848 74.5285 59.7816L78.2439 65.2691C79.2201 66.7098 78.5785 68.6805 76.9439 69.2732L75.4529 69.8156C74.6096 70.1211 74.049 70.9217 74.049 71.8184V72.4188C74.049 73.6424 74.0598 81.0533 73.7877 82.2068C72.7473 86.5898 68.7432 89.8102 64.0394 89.6713L61.016 89.5826H61.0129L56.96 89.4619C55.3926 89.416 54.0955 90.675 54.0955 92.2424V96.2281C54.0955 97.5021 53.0627 98.535 51.7887 98.535H43.8672" stroke="#6610F2" stroke-width="3" stroke-miterlimit="10" stroke-linecap="round" stroke-linejoin="round"/>
<path d="M28.1152 23.1211L22.1055 21.168" stroke="#6610F2" stroke-width="3" stroke-miterlimit="10" stroke-linecap="round" stroke-linejoin="round"/>
<path d="M36.4746 11.6152L33 6.83398" stroke="#6610F2" stroke-width="3" stroke-miterlimit="10" stroke-linecap="round" stroke-linejoin="round"/>
<path d="M50 7.2207V1.46484" stroke="#6610F2" stroke-width="3" stroke-miterlimit="10" stroke-linecap="round" stroke-linejoin="round"/>
<path d="M66.998 6.83203L63.5234 11.6152" stroke="#6610F2" stroke-width="3" stroke-miterlimit="10" stroke-linecap="round" stroke-linejoin="round"/>
<path d="M77.8945 21.168L71.8828 23.1211" stroke="#6610F2" stroke-width="3" stroke-miterlimit="10" stroke-linecap="round" stroke-linejoin="round"/>
<path d="M36.877 21.8868C35.5166 24.154 34.7262 26.7966 34.7112 29.6122C34.6893 33.6607 36.242 37.345 38.7918 40.0915C41.0008 42.4712 42.4377 45.4642 43.0477 48.6534L43.1473 49.1743H56.8561L56.961 48.6255C57.5842 45.3669 59.1498 42.3843 61.3696 39.9187C63.8078 37.2107 65.2922 33.6275 65.2922 29.6964C65.2922 21.2792 58.491 14.4505 50.0842 14.406C47.0024 14.3896 44.1174 15.3036 41.6979 16.8823" stroke="#6610F2" stroke-width="3" stroke-miterlimit="10" stroke-linecap="round" stroke-linejoin="round"/>
<path d="M56.8572 49.1743H43.1484V52.9874C43.1484 54.3995 44.2932 55.5442 45.7053 55.5442H54.3004C55.7125 55.5442 56.8572 54.3995 56.8572 52.9874V49.1743Z" stroke="#6610F2" stroke-width="3" stroke-miterlimit="10" stroke-linecap="round" stroke-linejoin="round"/>
<path d="M50.0006 61.4033C47.7912 61.4033 46 59.6121 46 57.4027V55.5439H54.0012V57.4027C54.0012 59.6121 52.21 61.4033 50.0006 61.4033Z" stroke="#6610F2" stroke-width="3" stroke-miterlimit="10" stroke-linecap="round" stroke-linejoin="round"/>
<path d="M48.1506 49.1743L43.6836 31.1343H56.3219L51.8549 49.1743" stroke="#6610F2" stroke-width="3" stroke-miterlimit="10" stroke-linecap="round" stroke-linejoin="round"/>
<path d="M30.4727 77.5674C30.4727 77.5674 33.092 79.9014 36.6664 81.3113" stroke="#6610F2" stroke-width="3" stroke-miterlimit="10" stroke-linecap="round" stroke-linejoin="round"/>
</g>
<defs>
<clipPath id="clip0_48_1757">
<rect width="100" height="100" fill="white"/>
</clipPath>
</defs>
</svg>
