<svg width="100" height="100" viewBox="0 0 100 100" fill="none" xmlns="http://www.w3.org/2000/svg">
<g clip-path="url(#clip0_48_1871)">
<path d="M27.2159 93.0889C27.2157 93.0889 27.2157 93.0889 27.2159 93.0889ZM99.6545 66.8361C99.2143 67.8424 98.411 68.6162 97.3926 69.0147L91.662 71.2568C91.1793 71.4455 90.675 71.5398 90.1711 71.5398C89.6114 71.5398 89.052 71.4236 88.5225 71.192C87.7407 70.85 87.1022 70.2869 86.668 69.576L80.1497 72.3553C80.3569 73.6195 80.1625 74.9523 79.5065 76.1453C78.7338 77.5502 77.4547 78.5664 75.9051 79.0066C75.8891 79.0111 75.8729 79.0143 75.8567 79.0186C76.4397 80.5871 76.3696 82.384 75.5096 83.9477C74.4278 85.9145 72.3885 87.0279 70.2879 87.0279C69.8534 87.0279 69.4164 86.9775 68.9846 86.8799C69.0352 87.935 68.8069 89.0129 68.2649 89.998C67.1832 91.9648 65.144 93.0783 63.0434 93.0783C62.7881 93.0783 62.5323 93.0607 62.2768 93.0275C62.3561 94.1311 62.1315 95.2676 61.5608 96.3053C60.4791 98.2719 58.4399 99.3855 56.3393 99.3855C55.3709 99.3855 54.3899 99.149 53.483 98.6504L51.4262 97.5193C50.669 98.5783 49.5885 99.3566 48.3163 99.7422C47.7426 99.916 47.1571 100.002 46.5754 100.002C45.6116 100.002 44.6586 99.7658 43.7875 99.2998C42.4219 98.5695 41.4577 97.3785 40.9827 96.0205C40.7313 96.1363 40.4707 96.2365 40.201 96.3184C39.6276 96.4922 39.0418 96.5783 38.4604 96.5783C37.4965 96.5783 36.5434 96.342 35.6723 95.876C34.4366 95.215 33.5305 94.1766 33.0168 92.9787C32.6204 93.2082 32.195 93.3949 31.7448 93.5313C31.1711 93.7051 30.5858 93.7912 30.0041 93.7912C29.0405 93.7912 28.0871 93.5547 27.2162 93.0889C25.8196 92.3418 24.7959 91.0914 24.3342 89.5676C24.0506 88.632 24.0014 87.6648 24.1778 86.7342C24.0602 86.7412 23.9428 86.7473 23.8256 86.7473C22.8618 86.7473 21.9088 86.5109 21.0377 86.0451C19.6411 85.298 18.6174 84.0475 18.1557 82.5236C17.694 81 17.851 79.3916 18.5981 77.9949L20.0991 75.1885C19.7106 74.3227 19.5368 73.3732 19.3676 72.4469C19.053 70.7219 18.8254 69.8783 18.1006 69.5969C17.5651 69.3891 15.9493 68.6791 12.9258 67.3225C12.1411 68.3193 10.9397 68.8893 9.69516 68.8893C9.12504 68.8893 8.54652 68.7701 7.99516 68.518L2.39828 65.9602C0.339882 65.0195 -0.569493 62.5793 0.371132 60.5209L11.8739 35.352C12.8145 33.2934 15.2549 32.3842 17.3131 33.325L22.91 35.8826C24.9684 36.8236 25.8778 39.2637 24.9371 41.3221L24.5889 42.084L29.6553 44.4213C29.6932 44.4389 29.7305 44.458 29.767 44.4783C31.7827 45.6129 33.8739 45.1189 36.5205 44.4936C39.9707 43.6785 44.218 42.6773 49.1918 45.6131C56.0321 41.3795 61.2846 43.5211 65.1649 45.107C67.986 46.2602 69.8039 46.9209 71.5582 46.0086L76.3678 43.4342L76.2606 43.16C75.436 41.0523 76.4797 38.6668 78.5872 37.842L84.318 35.5996C86.426 34.7754 88.811 35.8191 89.636 37.9262C89.6362 37.9262 89.6362 37.9262 89.6362 37.9264L99.7196 63.6965C100.118 64.715 100.095 65.8299 99.6545 66.8361ZM10.5918 65.1922L22.0944 40.0232C22.3151 39.5402 22.0936 38.9457 21.6104 38.725L16.0137 36.1674C15.7782 36.0596 15.5125 36.051 15.2657 36.1432C15.0186 36.2352 14.8233 36.4156 14.7159 36.651L3.21293 61.8199C2.99223 62.3029 3.21371 62.8973 3.69672 63.118L9.29359 65.6758C9.7768 65.8967 10.3711 65.6748 10.5918 65.1922ZM24.6596 83.4967C25.3813 83.2779 25.9727 82.7963 26.3264 82.14C26.3264 82.14 29.1147 76.9277 29.1163 76.925C29.8366 75.5785 29.3077 73.8232 27.9606 73.1059C26.6168 72.3902 24.8643 72.9039 24.1379 74.2621C24.1379 74.2621 21.3545 79.4662 21.3532 79.4688C20.6313 80.8186 21.1637 82.5689 22.511 83.2895C23.1719 83.6428 23.9352 83.7162 24.6596 83.4967ZM32.51 89.1756C32.51 89.1756 36.2819 82.1234 36.2832 82.1205C37.0024 80.7762 36.4733 79.018 35.1278 78.3014C33.7932 77.5906 32.0413 78.0953 31.3108 79.4479L27.5317 86.5125C27.1782 87.173 27.1045 87.9363 27.3243 88.6611C27.544 89.3859 28.0287 89.9797 28.6895 90.3332C29.3502 90.6865 30.1129 90.7602 30.8379 90.5406C31.5629 90.3211 32.1569 89.8361 32.51 89.1756ZM40.9663 91.9627C40.9663 91.9627 44.0159 86.2602 44.0174 86.2572C44.7377 84.9102 44.2092 83.1553 42.862 82.4379C41.5086 81.7172 39.7616 82.2432 39.0391 83.5941L35.9879 89.2996C35.2538 90.6723 35.7733 92.3861 37.1459 93.1203C37.8067 93.4736 38.5696 93.5475 39.2946 93.3275C40.0194 93.108 40.6131 92.6232 40.9663 91.9627ZM49.0815 95.3865C49.0815 95.3865 51.7508 90.3951 51.7516 90.3938C52.4651 89.0598 51.9346 87.2873 50.5961 86.5746C49.243 85.8541 47.4959 86.3795 46.7733 87.7309L44.1028 92.7242C43.3694 94.0967 43.8889 95.8102 45.2612 96.5441C45.9221 96.8977 46.6854 96.9715 47.4098 96.7514C48.1344 96.5318 48.7282 96.0471 49.0815 95.3865ZM57.9247 91.0994L55.2256 89.615C55.2118 89.6074 55.1993 89.5982 55.1856 89.5904C55.117 90.3787 54.8903 91.1512 54.5073 91.8676L52.9452 94.7887L54.9887 95.9125C56.353 96.6627 58.0725 96.1635 58.8225 94.7996C59.5291 93.515 59.1207 91.91 57.9247 91.0994ZM75.6346 70.7939L60.4672 62.149C57.8743 60.6707 54.6481 61.9771 50.9133 63.4893C45.2817 65.7691 38.2727 68.6066 32.3444 60.4373C32.0838 60.0783 31.9881 59.6254 32.0811 59.1918C32.1741 58.7582 32.4473 58.3844 32.8323 58.1639C37.3338 55.5852 41.1168 52.7611 44.0766 49.7703C44.833 49.0059 45.5998 48.3025 46.3698 47.6611C43.0362 46.1662 40.2063 46.8338 37.2387 47.535C34.3436 48.2187 31.3508 48.9258 28.2914 47.2338L23.2895 44.9262L14.3311 64.5283C16.1178 65.3299 18.6262 66.449 19.2309 66.6838C21.4731 67.5543 22.0303 69.7107 22.3606 71.4498C23.0539 70.7361 23.9213 70.2041 24.9034 69.9064C26.4276 69.4447 28.0356 69.6018 29.4323 70.3488C30.8248 71.0904 31.8483 72.3389 32.3114 73.8625C32.4237 74.232 32.4991 74.6064 32.5391 74.9816C33.9202 74.6801 35.345 74.8734 36.5995 75.5443C37.992 76.2859 39.0155 77.5342 39.4786 79.058C39.5051 79.1457 39.5293 79.2336 39.5518 79.3217C39.6354 79.2924 39.7194 79.2643 39.8047 79.2383C41.3286 78.7766 42.937 78.9338 44.3336 79.6807C45.7262 80.4225 46.7495 81.6707 47.2127 83.1943C47.2395 83.282 47.2635 83.3701 47.286 83.4582C47.3694 83.4289 47.4536 83.4006 47.5387 83.3748C49.062 82.9131 50.6705 83.0701 52.0676 83.8172C52.7479 84.1795 53.3393 84.6633 53.8211 85.2404L61.6928 89.6047C63.0561 90.3543 64.7764 89.8559 65.5268 88.492C66.2698 87.1414 65.7645 85.4182 64.4004 84.6506L55.0383 79.3813C54.2862 78.958 54.0198 78.0053 54.443 77.2531C54.8662 76.5012 55.8188 76.2346 56.5711 76.6578L68.9373 83.5543C70.3006 84.3041 72.0209 83.8053 72.7713 82.4414C73.509 81.1002 73.0147 79.3922 71.6717 78.617C71.5848 78.5734 60.5399 72.34 60.5399 72.34C59.7885 71.9156 59.5235 70.9625 59.9479 70.2111C60.3721 69.46 61.325 69.1941 62.0768 69.6191L72.9498 75.7607C73.5856 76.1197 74.3319 76.2049 75.0506 76.0006C75.7911 75.7902 76.401 75.3066 76.7682 74.6393C77.5069 73.2965 76.9985 71.5713 75.6346 70.7939ZM85.4678 66.6906L77.5145 46.3648L73.0163 48.7725C69.8729 50.4074 66.8782 49.1836 63.9821 47.9998C60.0266 46.383 55.9364 44.7113 50.0248 48.7979C48.7866 49.6537 47.5327 50.7205 46.2979 51.9684C43.4963 54.7992 40.0262 57.4772 35.9655 59.9436C40.145 64.4766 44.6219 62.6648 49.7407 60.5928C53.8532 58.9279 58.1055 57.2061 62.0149 59.4342L77.1821 68.0791C77.8454 68.457 78.4102 68.9441 78.867 69.5051L85.4678 66.6906ZM96.809 64.8354C96.809 64.8354 86.7301 39.0766 86.7256 39.0652C86.5346 38.577 85.9446 38.3188 85.4565 38.51L79.7258 40.7521C79.2315 40.9457 78.977 41.527 79.1705 42.0215L89.2541 67.7916C89.3483 68.0326 89.5334 68.2236 89.7748 68.3293C90.0164 68.4352 90.2823 68.4414 90.5231 68.3469L96.2538 66.1047C96.4948 66.0104 96.6858 65.8254 96.7914 65.5838C96.8971 65.3422 96.9036 65.0764 96.809 64.8354ZM84.0584 41.0836C82.8596 41.0836 81.8817 42.0613 81.8817 43.2602C81.8817 44.459 82.8596 45.4369 84.0584 45.4369C85.2573 45.4369 86.2352 44.459 86.2352 43.2602C86.2352 42.0613 85.2575 41.0836 84.0584 41.0836ZM17.2661 38.815C16.0657 38.748 15.0385 39.6668 14.9715 40.8672C14.9045 42.0676 15.8233 43.0947 17.0237 43.1617C18.2241 43.2287 19.2512 42.31 19.3182 41.1096C19.3852 39.9092 18.4664 38.8818 17.2661 38.815ZM17.4852 28.5463C16.7135 27.4994 16.5004 26.2389 16.8852 24.9969C17.9567 21.5369 20.4338 18.8441 23.5815 17.4553C22.3547 16.2035 21.5963 14.491 21.5963 12.6041C21.5963 8.7793 24.7082 5.66738 28.533 5.66738C32.3579 5.66738 35.4694 8.7791 35.4694 12.6039C35.4694 14.49 34.7118 16.2018 33.4862 17.4533C35.0297 18.1361 36.4194 19.1393 37.568 20.4141C39.318 18.1758 41.6571 16.4352 44.3438 15.4074C42.4559 13.802 41.2551 11.4119 41.2551 8.74551C41.2551 3.92324 45.1786 0 50.0008 0C54.8231 0 58.7463 3.92324 58.7463 8.7457C58.7463 11.4123 57.5454 13.8023 55.6577 15.4078C58.3444 16.4355 60.6834 18.1764 62.4334 20.4146C63.5823 19.1398 64.9717 18.1367 66.5153 17.4539C65.2897 16.2021 64.5319 14.4904 64.5319 12.6043C64.5319 8.77949 67.6438 5.66777 71.4686 5.66777C75.2934 5.66777 78.4053 8.77949 78.4053 12.6043C78.4053 14.4914 77.6469 16.2039 76.4202 17.4557C79.5676 18.8445 82.045 21.5371 83.1163 24.9973C83.501 26.2393 83.2879 27.4998 82.5163 28.5467C81.7442 29.5936 80.6032 30.1701 79.303 30.1701H65.6885V31.4787C65.6883 34.4338 63.284 36.8379 60.3293 36.8379H39.6721C36.717 36.8379 34.3131 34.4338 34.3131 31.4787V30.1697H20.6985C19.3977 30.1695 18.2567 29.5932 17.4852 28.5463ZM71.467 16.4158H71.4684H71.47C73.5709 16.415 75.2803 14.7055 75.2803 12.6043C75.2803 10.5025 73.5703 8.79277 71.4686 8.79277C69.3668 8.79277 67.6569 10.5025 67.6569 12.6043C67.6569 14.7055 69.3661 16.415 71.467 16.4158ZM64.1809 23.2187C64.762 24.4139 65.1993 25.6953 65.4659 27.0451H79.303C79.6016 27.0451 79.8235 26.933 80.001 26.6924C80.1782 26.4521 80.2196 26.207 80.1313 25.9217C78.9497 22.1059 75.4694 19.542 71.4707 19.541C71.4702 19.541 71.4694 19.541 71.4688 19.541C71.4682 19.541 71.4676 19.541 71.467 19.541C68.5502 19.5414 65.8871 20.9033 64.1809 23.2187ZM49.9967 14.3662H50.0006H50.0047C53.1022 14.3641 55.6215 11.8436 55.6215 8.7457C55.6213 5.64648 53.1 3.125 50.0008 3.125C46.9016 3.125 44.3801 5.64648 44.3801 8.7457C44.3801 11.8436 46.8995 14.3641 49.9967 14.3662ZM37.4381 28.6928V31.4785C37.4381 32.7105 38.4403 33.7127 39.6721 33.7127H60.3291C61.5612 33.7127 62.5631 32.7104 62.5633 31.4785V28.6928C61.8389 22.302 56.4543 17.4932 50.0045 17.4912C50.0034 17.4912 50.002 17.4912 50.0006 17.4912C49.9993 17.4912 49.9979 17.491 49.9965 17.491C43.5467 17.4932 38.1621 22.3021 37.4381 28.6928ZM28.5315 16.4154H28.5329C28.5329 16.4154 28.5338 16.4154 28.5342 16.4154C30.6354 16.4146 32.3444 14.7051 32.3444 12.6039C32.3444 10.5021 30.6346 8.79219 28.5329 8.79219C26.4311 8.79219 24.7211 10.5021 24.7211 12.6039C24.7211 14.7053 26.4303 16.4146 28.5315 16.4154ZM20.0004 26.6922C20.1778 26.9326 20.3995 27.0447 20.6983 27.0447H34.5356C34.8022 25.6951 35.2395 24.4135 35.8204 23.2186C34.1141 20.9031 31.4508 19.5412 28.5342 19.5406C28.5338 19.5406 28.5332 19.5406 28.5327 19.5406C28.5321 19.5406 28.5313 19.5406 28.5305 19.5406C24.5317 19.5416 21.0514 22.1055 19.8698 25.9213C19.7817 26.2064 19.8231 26.4516 20.0004 26.6922Z" fill="#6610F2"/>
</g>
<defs>
<clipPath id="clip0_48_1871">
<rect width="100" height="100" fill="white"/>
</clipPath>
</defs>
</svg>
