<svg width="100" height="100" viewBox="0 0 100 100" fill="none" xmlns="http://www.w3.org/2000/svg">
<path d="M87.6593 62.5231C87.5039 62.0212 70.8002 67.5566 70.0656 67.6945C70.5982 63.6808 67.2523 60.0673 63.2357 60.0956C63.2357 60.0955 49.3181 60.0955 49.3181 60.0955C47.1989 60.2535 44.8305 58.2762 43.124 57.259C38.2873 54.1876 32.091 53.852 26.9506 56.3787L22.1016 58.762C20.8428 59.383 19.4322 59.711 18.0238 59.711H7.81926C5.80229 59.738 5.73512 62.7968 7.81935 62.8359C7.81926 62.8359 18.0238 62.8359 18.0238 62.8359C19.909 62.8359 21.7964 62.3964 23.4809 61.5664L28.3299 59.1831C32.5007 57.134 37.5259 57.4055 41.4495 59.8972C43.7366 61.3632 46.463 63.388 49.3181 63.2202C49.3181 63.2204 63.2357 63.2204 63.2357 63.2204C68.2096 63.3486 68.2172 70.6429 63.2356 70.7731H43.7024C41.6572 70.8022 41.6426 73.8648 43.7024 73.8979C43.7024 73.8979 63.2357 73.8979 63.2357 73.8979C65.3266 73.8979 67.1806 72.9431 68.4471 71.4691L86.7667 65.7807C90.2783 64.7211 92.2295 69.7734 88.876 71.3346C88.8761 71.3346 75.2362 77.4896 75.2362 77.4896C73.3654 78.366 74.6548 81.1554 76.521 80.3367C76.5209 80.3368 90.1623 74.1817 90.1623 74.1817C96.0669 71.4823 94.189 62.5563 87.6593 62.5231Z" fill="#6610F2"/>
<path d="M7.8163 81.8184H18.2085C19.5139 81.8184 20.781 82.0885 21.9758 82.621L40.2854 90.7916C42.3544 91.7147 44.5737 92.177 46.7937 92.177C49.0321 92.177 51.2704 91.7071 53.3539 90.7687L69.3924 83.5425C70.1797 83.187 70.5299 82.2624 70.1752 81.4751C69.8219 80.6893 68.8965 80.3399 68.1092 80.6924L52.07 87.9185C48.7338 89.4245 44.9017 89.4321 41.5595 87.9384L23.2491 79.7677C21.6508 79.0552 19.9548 78.6936 18.2086 78.6936H9.37873V69.0856C9.35819 67.0442 6.28225 67.025 6.25391 69.0857C6.25391 69.0856 6.25391 80.256 6.25391 80.256C6.25391 81.1196 6.95345 81.8184 7.8163 81.8184Z" fill="#6610F2"/>
<path d="M79.654 15.5832L73.0877 14.6281L70.1521 8.67898C69.6257 7.61091 67.8756 7.61091 67.3492 8.67898L64.4135 14.6281L57.8472 15.5832C56.6028 15.7241 56.0518 17.3994 56.9814 18.2473C56.9813 18.2473 61.7319 22.8781 61.7319 22.8781L60.6105 29.4176C60.3601 30.6452 61.7878 31.6887 62.8778 31.0639C62.8778 31.064 68.7506 27.9773 68.7506 27.9773L74.6234 31.064C75.1487 31.3409 75.7862 31.2962 76.269 30.945C76.7496 30.5956 76.9907 30.0035 76.8908 29.4176L75.7693 22.8781L80.5199 18.2473C81.445 17.4011 80.9028 15.7222 79.654 15.5832ZM72.9992 21.2149C72.6315 21.5735 72.4636 22.0908 72.5499 22.5973L73.2754 26.8253L69.4776 24.8296C69.0227 24.5893 68.4785 24.5893 68.0236 24.8296L64.2258 26.8253L64.9513 22.5973C65.0375 22.0908 64.8697 21.5735 64.502 21.2149L61.4298 18.2198L65.6761 17.6019C66.185 17.5286 66.6244 17.2082 66.8525 16.7474L68.7506 12.9009L70.6487 16.7474C70.8768 17.2082 71.3162 17.5286 71.8251 17.6019L76.0714 18.2198L72.9992 21.2149Z" fill="#6610F2"/>
<path d="M81.2499 35.9312H62.5008C60.4528 35.9637 60.4425 39.0213 62.5008 39.056C62.5008 39.056 81.2499 39.056 81.2499 39.056C83.2978 39.0234 83.3081 35.9659 81.2499 35.9312Z" fill="#6610F2"/>
<path d="M81.2499 43.7437H62.5008C60.4528 43.7762 60.4425 46.8338 62.5008 46.8685C62.5008 46.8685 81.2499 46.8685 81.2499 46.8685C83.2978 46.8359 83.3081 43.7784 81.2499 43.7437Z" fill="#6610F2"/>
<path d="M81.2499 51.5557H62.5008C60.4528 51.5882 60.4425 54.6458 62.5008 54.6805C62.5008 54.6805 81.2499 54.6805 81.2499 54.6805C83.2978 54.6479 83.3081 51.5904 81.2499 51.5557Z" fill="#6610F2"/>
<path d="M54.6914 37.4938C54.7263 39.5474 57.7817 39.5472 57.8163 37.4937C57.7814 35.4401 54.7259 35.4404 54.6914 37.4938Z" fill="#6610F2"/>
<path d="M56.2511 46.8685C58.3048 46.8336 58.3045 43.7782 56.251 43.7437C54.1974 43.7785 54.1977 46.8339 56.2511 46.8685Z" fill="#6610F2"/>
<path d="M56.2511 54.6805C58.3048 54.6456 58.3045 51.5902 56.251 51.5557C54.1974 51.5905 54.1977 54.6459 56.2511 54.6805Z" fill="#6610F2"/>
</svg>
