<svg width="60" height="60" viewBox="0 0 60 60" fill="none" xmlns="http://www.w3.org/2000/svg">
<path d="M47.6014 34.5974H41.9339C41.4161 34.5974 40.9964 35.0172 40.9964 35.5349V58.0533C40.9964 58.5711 41.4161 58.9908 41.9339 58.9908H47.6014C48.1191 58.9908 48.5389 58.5711 48.5389 58.0533V35.5349C48.5389 35.0172 48.1193 34.5974 47.6014 34.5974ZM46.6639 57.1158H42.8714V36.4724H46.6639V57.1158ZM58.1251 29.2463H52.4575C51.9398 29.2463 51.52 29.6661 51.52 30.1838V58.0531C51.52 58.5708 51.9398 58.9906 52.4575 58.9906H58.1251C58.6428 58.9906 59.0626 58.5708 59.0626 58.0531V30.1838C59.0626 29.6661 58.6428 29.2463 58.1251 29.2463ZM57.1876 57.1157H53.395V31.1213H57.1876V57.1157ZM26.5537 46.2427H20.8862C20.3684 46.2427 19.9487 46.6625 19.9487 47.1802V58.0531C19.9487 58.5708 20.3684 58.9906 20.8862 58.9906H26.5537C27.0714 58.9906 27.4912 58.5708 27.4912 58.0531V47.1802C27.4912 46.6625 27.0716 46.2427 26.5537 46.2427ZM25.6162 57.1157H21.8237V48.1178H25.6162V57.1157ZM56.8222 21.861L56.5433 23.7766C56.4686 24.2889 56.8236 24.7648 57.3359 24.8392C57.3818 24.846 57.4272 24.8492 57.4722 24.8492C57.9302 24.8492 58.3309 24.5132 58.3988 24.0466L59.0528 19.5546C59.0934 19.2766 59.0069 18.9948 58.8173 18.7873C58.6277 18.5798 58.3544 18.4688 58.0743 18.4834L53.5418 18.7295C53.0247 18.7575 52.6284 19.1995 52.6564 19.7165C52.6844 20.2335 53.1267 20.6274 53.6434 20.6018L55.5317 20.4993C50.7857 24.6798 45.5917 28.44 40.0512 31.703C39.9773 31.6437 39.8937 31.595 39.8021 31.5597L38.5238 31.0676C38.3251 30.3883 38.0535 29.7334 37.713 29.1118L38.2694 27.8591C38.4269 27.5048 38.3498 27.09 38.0756 26.8157L36.0832 24.8233C35.8089 24.5491 35.3941 24.4723 35.0397 24.6295L33.7864 25.1861C33.1648 24.8457 32.5103 24.5743 31.8312 24.3754L31.6283 23.848L34.1874 21.3203H34.9167C35.7084 21.3203 36.3525 20.6762 36.3525 19.8845V17.235C36.3525 16.4434 35.7083 15.7994 34.9167 15.7994H2.37335C1.58163 15.7993 0.93757 16.4433 0.93757 17.2349V19.8844C0.93757 20.6761 1.58163 21.3202 2.37335 21.3202H3.10249L14.4012 32.4804V40.2273C14.4012 40.5415 14.5586 40.8347 14.8203 41.0084C14.9763 41.112 15.157 41.1648 15.3387 41.1648C15.462 41.1648 15.5858 41.1406 15.7027 41.0912L20.1034 39.2365L19.8407 39.828C19.6834 40.1823 19.7603 40.5971 20.0347 40.8714L22.0271 42.8638C22.3013 43.1382 22.7162 43.2149 23.0705 43.0577L24.3236 42.501C24.9453 42.8414 25.5999 43.113 26.2789 43.3116L26.7712 44.5905C26.9104 44.9523 27.2582 45.1912 27.6461 45.1912H30.4638C30.4667 45.1912 30.4694 45.1906 30.4723 45.1905V58.0531C30.4723 58.5708 30.8921 58.9906 31.4098 58.9906H37.0775C37.5952 58.9906 38.015 58.5708 38.015 58.0531V40.9316L38.0752 40.8714C38.3494 40.5972 38.4264 40.1825 38.2691 39.8281L37.7124 38.5749C38.0528 37.9532 38.3243 37.2986 38.523 36.6197L39.8019 36.1274C40.1637 35.9882 40.4026 35.6404 40.4026 35.2525V33.668C46.2904 30.253 51.8026 26.2886 56.8222 21.861ZM2.81257 17.6743H34.4772V19.4452H2.81257V17.6743ZM5.77073 21.3203H31.5191L30.3289 22.4959H27.6464C27.2586 22.4959 26.9108 22.7346 26.7714 23.0966L26.2791 24.3754C25.6 24.5743 24.9455 24.8457 24.3239 25.1861L23.0707 24.6295C22.7163 24.4723 22.3016 24.5491 22.0272 24.8233L20.0348 26.8157C19.7606 27.09 19.6835 27.5048 19.8409 27.8591L20.3974 29.1122C20.0568 29.7338 19.7854 30.3885 19.5867 31.0677L19.3693 31.1514H15.7238L5.77073 21.3203ZM16.2762 33.0264H17.7073V35.2525C17.7073 35.6404 17.9462 35.9881 18.308 36.1274L19.5863 36.6195C19.6557 36.8564 19.7344 37.0902 19.8213 37.3209L16.2761 38.815L16.2762 33.0264ZM36.1402 57.1159H32.3476V43.1453C32.8433 42.9699 33.3242 42.7548 33.7869 42.5015L35.0395 43.0579C35.3939 43.2154 35.8086 43.1384 36.0829 42.8639L36.1401 42.8068V57.1159H36.1402ZM38.5278 34.6088L37.4034 35.0416C37.115 35.1525 36.8997 35.3987 36.8281 35.6993C36.6325 36.5215 36.3079 37.3043 35.8634 38.0263C35.7014 38.2895 35.6794 38.6158 35.8048 38.8983L36.2944 40.0006L35.2123 41.0827L34.1107 40.5933C33.8281 40.4678 33.5018 40.4895 33.2385 40.6519C32.5166 41.0965 31.7334 41.4211 30.911 41.6167C30.6103 41.6883 30.3641 41.9035 30.2531 42.192L29.8204 43.3161H28.2901L27.8573 42.1915C27.7463 41.903 27.5001 41.6878 27.1994 41.6164C26.3773 41.4207 25.5944 41.0962 24.8724 40.6516C24.6091 40.4895 24.2828 40.4677 24.0003 40.5931L22.8982 41.0827L21.816 40.0007L22.3053 38.8989C22.4308 38.6164 22.4089 38.2901 22.2467 38.0268C21.8022 37.3052 21.4776 36.522 21.2818 35.6993C21.2102 35.3986 20.995 35.1524 20.7065 35.0414L19.5826 34.6088V33.0784L20.7068 32.6458C20.9953 32.5348 21.2104 32.2886 21.282 31.9879C21.4777 31.1655 21.8023 30.3825 22.2468 29.6608C22.409 29.3975 22.4309 29.0712 22.3054 28.7887L21.8159 27.6865L22.898 26.6045L24.0003 27.0941C24.2827 27.2195 24.6091 27.1977 24.8723 27.0357C25.5943 26.5911 26.3772 26.2666 27.1994 26.0707C27.5001 25.9993 27.7462 25.7841 27.8572 25.4956L28.2901 24.3712H29.8204L30.2532 25.4956C30.3642 25.784 30.6103 25.9993 30.911 26.0707C31.7333 26.2666 32.5162 26.5912 33.238 27.0355C33.5013 27.1979 33.8275 27.2195 34.1101 27.0941L35.2123 26.6045L36.2944 27.6865L35.8052 28.7882C35.6797 29.0707 35.7016 29.397 35.8638 29.6603C36.3084 30.3822 36.633 31.1654 36.8287 31.9879C36.9002 32.2886 37.1155 32.5348 37.404 32.6458L38.5279 33.0784V34.6088H38.5278ZM1.87507 13.5865H35.4148C35.6809 13.5865 35.9343 13.4736 36.1121 13.2757C36.2899 13.0779 36.3753 12.8138 36.3469 12.5493C36.096 10.2055 34.6384 8.26809 32.6293 7.32086C33.2354 6.65019 33.6051 5.76203 33.6051 4.78902C33.6051 2.70461 31.9093 1.00879 29.8249 1.00879C27.7405 1.00879 26.0446 2.70461 26.0446 4.78902C26.0446 5.76203 26.4144 6.65019 27.0205 7.32086C25.8697 7.86344 24.9005 8.73086 24.2349 9.81391C23.5693 8.73086 22.6001 7.86344 21.4494 7.32086C22.0555 6.65019 22.4252 5.76203 22.4252 4.78902C22.4252 2.70461 20.7294 1.00879 18.645 1.00879C16.5605 1.00879 14.8647 2.70461 14.8647 4.78902C14.8647 5.76203 15.2344 6.65019 15.8405 7.32086C14.6898 7.86344 13.7206 8.73086 13.055 9.81391C12.3894 8.73086 11.4202 7.86344 10.2694 7.32086C10.8755 6.65019 11.2453 5.76203 11.2453 4.78902C11.2453 2.70461 9.54944 1.00879 7.46503 1.00879C5.38062 1.00879 3.6848 2.70449 3.6848 4.78891C3.6848 5.76191 4.05452 6.65008 4.66062 7.32074C2.65155 8.26797 1.19374 10.2055 0.942843 12.5492C0.914484 12.8137 0.999913 13.0778 1.17769 13.2756C1.35546 13.4734 1.60894 13.5865 1.87507 13.5865ZM29.8249 2.88367C30.8755 2.88367 31.7301 3.73832 31.7301 4.78891C31.7301 5.83949 30.8755 6.69414 29.8249 6.69414C28.7743 6.69414 27.9196 5.83949 27.9196 4.78891C27.9196 3.73832 28.7743 2.88367 29.8249 2.88367ZM29.8248 8.56914C31.8619 8.56914 33.6124 9.86336 34.2514 11.7115H25.3981C26.0371 9.86336 27.7877 8.56914 29.8248 8.56914ZM18.6448 2.88367C19.6954 2.88367 20.5501 3.73832 20.5501 4.78891C20.5501 5.83949 19.6954 6.69414 18.6448 6.69414C17.5942 6.69414 16.7396 5.83949 16.7396 4.78891C16.7396 3.73832 17.5942 2.88367 18.6448 2.88367ZM18.645 8.56914C20.6821 8.56914 22.4327 9.86336 23.0716 11.7115H14.2183C14.8572 9.86336 16.6078 8.56914 18.645 8.56914ZM7.46503 2.88367C8.51562 2.88367 9.37027 3.73832 9.37027 4.78891C9.37027 5.83949 8.51562 6.69414 7.46503 6.69414C6.41444 6.69414 5.5598 5.83949 5.5598 4.78891C5.5598 3.73832 6.41444 2.88367 7.46503 2.88367ZM7.46503 8.56914C9.50222 8.56914 11.2526 9.86336 11.8917 11.7115H3.03827C3.6773 9.86336 5.42784 8.56914 7.46503 8.56914ZM29.0551 27.9921C25.8285 27.9921 23.2034 30.617 23.2034 33.8437C23.2034 37.0703 25.8284 39.6952 29.0551 39.6952C32.2817 39.6952 34.9066 37.0703 34.9066 33.8437C34.9066 30.617 32.2816 27.9921 29.0551 27.9921ZM29.0551 37.8201C26.8624 37.8201 25.0784 36.0362 25.0784 33.8436C25.0784 31.6509 26.8624 29.867 29.0551 29.867C31.2478 29.867 33.0316 31.6509 33.0316 33.8436C33.0316 36.0362 31.2478 37.8201 29.0551 37.8201ZM52.5457 11.6788C52.606 11.609 52.6423 11.5302 52.6234 11.3733C52.6025 11.2021 52.5539 10.8012 51.2664 10.5898C48.9841 10.2149 48.5825 8.90359 48.5462 8.15535C48.4883 6.96379 49.255 5.95844 50.4747 5.5927V5.44105C50.4747 4.92332 50.8945 4.50355 51.4122 4.50355C51.93 4.50355 52.3497 4.92332 52.3497 5.44105V5.58414C53.1327 5.81125 53.8585 6.3475 54.253 7.28664C54.4534 7.76406 54.2289 8.31355 53.7515 8.51406C53.2742 8.71457 52.7246 8.48992 52.5242 8.01273C52.2305 7.31336 51.4973 7.27516 51.1107 7.36316C50.9423 7.40137 50.3947 7.56484 50.4191 8.06453C50.4249 8.1857 50.4428 8.55449 51.5703 8.73965C53.3455 9.03109 54.3261 9.84121 54.4846 11.1475C54.5651 11.8105 54.385 12.4185 53.9639 12.9055C53.5843 13.3443 53.0102 13.6641 52.3497 13.8197V13.9369C52.3497 14.4546 51.93 14.8744 51.4122 14.8744C50.8945 14.8744 50.4747 14.4546 50.4747 13.9369V13.8031C49.4128 13.5183 48.6072 12.7571 48.3491 11.7215C48.2238 11.2191 48.5295 10.7103 49.0319 10.585C49.5345 10.4601 50.043 10.7656 50.1683 11.2679C50.3171 11.8649 50.964 12.0598 51.4775 12.0502C51.9266 12.0394 52.3658 11.8868 52.5457 11.6788ZM51.4121 17.3393C55.6306 17.3393 59.0626 13.9074 59.0626 9.68898C59.0626 5.47047 55.6305 2.03852 51.4121 2.03852C47.1937 2.03852 43.7618 5.47047 43.7618 9.68898C43.7618 13.9074 47.1937 17.3393 51.4121 17.3393ZM51.4121 3.9134C54.5967 3.9134 57.1876 6.50418 57.1876 9.68887C57.1876 12.8734 54.5967 15.4642 51.4121 15.4642C48.2275 15.4642 45.6368 12.8734 45.6368 9.68887C45.6368 6.5043 48.2277 3.9134 51.4121 3.9134Z" fill="#C73E9B"/>
</svg>
