<svg width="60" height="60" viewBox="0 0 60 60" fill="none" xmlns="http://www.w3.org/2000/svg">
<g clip-path="url(#clip0_48_1897)">
<path d="M46.062 18.1379H47.4627V23.6665C47.4627 24.1469 47.852 24.5362 48.3325 24.5362C48.8129 24.5362 49.2022 24.1469 49.2022 23.6665V18.1379H50.6028C51.0833 18.1379 51.4726 17.7486 51.4726 17.2682C51.4726 16.7878 51.0833 16.3985 50.6028 16.3985H49.2022V13.8716C49.2022 13.3859 49.5972 12.9909 50.0829 12.9909H52.1438C52.6242 12.9909 53.0135 12.6016 53.0135 12.1212C53.0135 11.6407 52.6242 11.2514 52.1438 11.2514H50.0829C48.6382 11.2514 47.4627 12.4269 47.4627 13.8716V16.3985H46.062C45.5815 16.3985 45.1922 16.7878 45.1922 17.2682C45.1922 17.7486 45.5817 18.1379 46.062 18.1379ZM30.3128 5.03963C30.7931 5.03963 31.1826 4.65022 31.1826 4.16989C31.1826 3.68956 30.7931 3.30015 30.3128 3.30015C29.8325 3.30015 29.4431 3.68956 29.4431 4.16989C29.4431 4.65022 29.8324 5.03963 30.3128 5.03963ZM11.5226 20.1516C12.9612 20.1516 14.1318 18.981 14.1318 17.5423C14.1318 16.1037 12.9612 14.9331 11.5226 14.9331C10.0839 14.9331 8.91334 16.1037 8.91334 17.5423C8.91334 18.981 10.0839 20.1516 11.5226 20.1516ZM11.5226 16.6726C12.0022 16.6726 12.3923 17.0627 12.3923 17.5423C12.3923 18.022 12.0022 18.4121 11.5226 18.4121C11.0429 18.4121 10.6528 18.022 10.6528 17.5423C10.6528 17.0627 11.0431 16.6726 11.5226 16.6726ZM15.0015 23.6305C16.4402 23.6305 17.6108 22.46 17.6108 21.0213V14.0634C17.6108 12.6247 16.4402 11.4541 15.0015 11.4541H8.0436C6.60493 11.4541 5.43438 12.6247 5.43438 14.0634V21.0213C5.43438 22.46 6.60493 23.6305 8.0436 23.6305H15.0015ZM7.17386 21.0213V14.0634C7.17386 13.5837 7.56397 13.1936 8.0436 13.1936H15.0015C15.4812 13.1936 15.8713 13.5837 15.8713 14.0634V21.0213C15.8713 21.5009 15.4812 21.891 15.0015 21.891H8.0436C7.56409 21.891 7.17386 21.5008 7.17386 21.0213ZM16.7937 36.5141C16.3714 36.1964 15.8126 36.1431 15.3349 36.3745C15.2178 36.4312 15.0948 36.4741 14.9692 36.5022C14.8159 36.5365 14.6598 36.5492 14.5025 36.5396C13.99 36.0685 13.3378 35.7866 12.6331 35.7376C11.8117 35.6795 11.0157 35.9465 10.3936 36.4874C9.81985 36.9865 9.45548 37.6723 9.35888 38.4154C8.34685 38.2523 7.41971 37.7401 6.73597 36.9489C6.45545 36.6241 6.02082 36.4789 5.60276 36.5695C5.18679 36.6595 4.85385 36.9694 4.73383 37.3778C4.44125 38.3717 3.82373 41.4166 6.39399 43.4467C5.90346 43.5963 5.34404 43.5851 5.05795 44.0819C4.80005 44.5297 4.93793 45.0573 5.04311 45.332C5.2486 45.8684 5.78483 46.2546 6.63659 46.4797C7.1015 46.6026 7.70916 46.682 8.39393 46.682C9.9822 46.6819 11.9836 46.2544 13.5697 44.95C15.1504 43.6499 15.7968 41.8775 16.0575 40.5326C16.4633 40.0702 16.7847 39.5482 17.0147 38.9774C17.1585 38.6202 17.2644 38.2464 17.3297 37.8659C17.4184 37.3473 17.2131 36.8293 16.7937 36.5141ZM14.6217 39.5244C14.4986 39.6516 14.417 39.8133 14.3882 39.9881C14.2107 41.0632 13.7329 42.5636 12.4648 43.6065C10.9316 44.8673 8.77361 45.0444 7.53254 44.8846C7.94666 44.7127 8.34361 44.4993 8.71307 44.2485C8.97434 44.0712 9.11907 43.7662 9.091 43.4516C9.06294 43.1371 8.86649 42.8625 8.57786 42.7341C6.4122 41.7715 6.07103 40.1329 6.20555 38.8476C7.33134 39.7596 8.74856 40.2505 10.2255 40.209C10.6969 40.1968 11.0727 39.8111 11.0727 39.3396V38.845C11.0727 38.8412 11.0727 38.8372 11.0726 38.8333C11.0673 38.4367 11.2359 38.0599 11.5352 37.7997C11.8065 37.5637 12.1533 37.4479 12.5121 37.4725C12.8708 37.4976 13.1983 37.6607 13.4341 37.932C13.5607 38.0774 13.7316 38.1766 13.9206 38.2142C14.4354 38.3166 14.9564 38.3034 15.4595 38.173C15.2819 38.6786 14.9971 39.137 14.6217 39.5244ZM49.1029 30.3096C49.0823 30.3096 49.0619 30.3104 49.0413 30.3105V28.4386C49.0619 28.4387 49.0823 28.4394 49.1029 28.4394C55.1116 28.4394 60 23.5511 60 17.5423C60 11.5092 55.0722 6.61189 49.0413 6.6461V5.82135C49.0413 2.7841 46.5701 0.312988 43.5329 0.312988H17.0927C14.0555 0.312988 11.5844 2.7841 11.5844 5.82135V6.6461C9.45363 6.63369 7.38619 7.23683 5.60543 8.39034C5.20221 8.65149 5.08706 9.19004 5.34822 9.59313C5.60949 9.99634 6.14791 10.1115 6.55101 9.85034C8.03108 8.89154 9.75027 8.38477 11.5226 8.38477C16.5721 8.38477 20.6801 12.4929 20.6801 17.5423C20.6801 22.5918 16.5721 26.6999 11.5226 26.6999C6.47308 26.6999 2.365 22.5918 2.365 17.5423C2.365 15.7117 2.9032 13.9451 3.92114 12.4336C4.18937 12.0351 4.08396 11.4947 3.68562 11.2264C3.28716 10.9583 2.74676 11.0636 2.47842 11.4619C1.26634 13.2617 0.625518 15.3642 0.625518 17.5423C0.625518 23.551 5.51381 28.4394 11.5226 28.4394C11.5432 28.4394 11.5636 28.4387 11.5843 28.4386V30.3319C11.3569 30.3177 11.1278 30.3097 10.8969 30.3097C4.8883 30.3096 0 35.198 0 41.2066C0 47.2153 4.8883 52.1038 10.8971 52.1038C11.1279 52.1038 11.357 52.0957 11.5844 52.0815V54.179C11.5844 57.2162 14.0555 59.6874 17.0927 59.6874H43.5329C46.5701 59.6874 49.0413 57.2162 49.0413 54.179V52.1031C49.0619 52.1032 49.0823 52.1039 49.1029 52.1039C55.1116 52.1039 60 47.2155 60 41.2067C60 35.198 55.1116 30.3096 49.1029 30.3096ZM49.1029 8.38477C54.1524 8.38477 58.2605 12.4929 58.2605 17.5423C58.2605 22.5918 54.1524 26.6999 49.1029 26.6999C44.0535 26.6999 39.9454 22.5918 39.9454 17.5423C39.9454 12.4929 44.0535 8.38477 49.1029 8.38477ZM47.3018 28.2896V30.4573C46.7071 30.5554 46.1258 30.7021 45.5623 30.8945V27.8483C46.1229 28.0415 46.7042 28.1898 47.3018 28.2896ZM15.0633 6.40106V7.23613C14.5027 7.04293 13.9214 6.89473 13.3239 6.79488V5.82124C13.3239 3.74302 15.0145 2.05236 17.0927 2.05236H43.5329C45.6111 2.05236 47.3018 3.74302 47.3018 5.82124V6.79488C46.7042 6.89473 46.123 7.04293 45.5623 7.23613V6.40106C45.5623 4.9624 44.3917 3.79184 42.9531 3.79184H39.7582C38.7671 3.79184 37.9607 4.59815 37.9607 5.58931C37.9607 5.9742 37.6475 6.28742 37.2625 6.28742H23.363C22.9781 6.28742 22.6648 5.97431 22.6648 5.58931C22.6648 5.10863 22.478 4.65717 22.1363 4.31566C21.796 3.97796 21.3454 3.79184 20.8673 3.79184H17.6725C16.2338 3.79184 15.0633 4.9624 15.0633 6.40106ZM13.3239 28.2896C13.9214 28.1897 14.5027 28.0415 15.0633 27.8483V31.138C14.5052 30.9062 13.924 30.7193 13.3239 30.5823V28.2896ZM10.8971 50.3643C5.84756 50.3643 1.73948 46.2562 1.73948 41.2066C1.73948 36.1571 5.84756 32.0491 10.8971 32.0491C15.9465 32.0491 20.0546 36.1571 20.0546 41.2066C20.0546 46.5439 15.8415 50.3643 10.8971 50.3643ZM47.3018 54.1789C47.3018 56.2571 45.6111 57.9478 43.5329 57.9478H17.0927C15.0145 57.9478 13.3239 56.2571 13.3239 54.1789V51.831C13.924 51.6941 14.5052 51.507 15.0633 51.2752V53.599C15.0633 55.0377 16.2339 56.2083 17.6726 56.2083H42.9531C44.3917 56.2083 45.5623 55.0377 45.5623 53.599V51.5128C46.123 51.706 46.7042 51.8542 47.3018 51.9541V54.1789ZM49.1029 50.3643C44.0535 50.3643 39.9454 46.2562 39.9454 41.2066C39.9454 40.4219 40.0445 39.6429 40.2404 38.8914C40.3615 38.4265 40.0828 37.9516 39.618 37.8305C39.1531 37.7092 38.6782 37.9881 38.5572 38.4529C38.3241 39.3476 38.206 40.274 38.206 41.2066C38.206 45.3008 40.4759 48.8741 43.8229 50.7361V53.599C43.8229 54.0787 43.4328 54.4688 42.9532 54.4688H17.6727C17.1931 54.4688 16.8029 54.0787 16.8029 53.599V50.3605C19.8041 48.4175 21.7942 45.0402 21.7942 41.2066C21.7942 37.373 19.8041 33.9958 16.8029 32.0528V27.0716C20.1499 25.2096 22.4199 21.6363 22.4199 17.5422C22.4199 13.4482 20.1499 9.87481 16.8029 8.01287V6.40106C16.8029 5.92143 17.1931 5.53132 17.6727 5.53132H20.8675C20.8839 5.53132 20.8986 5.5377 20.9088 5.54802C20.9238 5.56286 20.9255 5.57875 20.9255 5.58931C20.9255 6.93335 22.0191 8.0269 23.3632 8.0269H37.2627C38.6069 8.0269 39.7005 6.93335 39.7005 5.58931C39.7005 5.55741 39.7265 5.53132 39.7584 5.53132H42.9533C43.4329 5.53132 43.823 5.92143 43.823 6.40106V8.01287C40.476 9.87481 38.2061 13.4482 38.2061 17.5422C38.2061 21.6388 40.4788 25.214 43.8292 27.0751C43.8255 27.1079 43.823 27.1412 43.823 27.175V31.6662C42.5405 32.3774 41.3981 33.3526 40.4685 34.5583C40.1752 34.9387 40.2458 35.4848 40.6262 35.7782C41.0068 36.0715 41.5527 36.001 41.8461 35.6204C43.5959 33.3498 46.2035 32.0491 49.1032 32.0491C54.1527 32.0491 58.2607 36.1571 58.2607 41.2066C58.2605 46.2562 54.1524 50.3643 49.1029 50.3643ZM33.5 29.7125C33.0894 29.4635 32.5545 29.5941 32.3051 30.0046C32.1439 30.27 31.9167 30.4974 31.6559 30.6662C31.4046 30.8287 31.0774 30.8334 30.8218 30.6782L29.5201 29.888C29.2605 29.7304 29.1186 29.4279 29.1479 29.1212C29.1769 28.8185 29.2757 28.521 29.4336 28.2612C29.6829 27.8505 29.5522 27.3157 29.1417 27.0662C28.7313 26.8169 28.1962 26.9475 27.9468 27.3581C27.6536 27.8409 27.4702 28.3932 27.416 28.9587L27.4144 28.9762C27.3225 29.9338 27.7946 30.8752 28.6171 31.3749L29.9188 32.1651C30.3191 32.4083 30.774 32.5295 31.2287 32.5295C31.7081 32.5295 32.1873 32.3947 32.6015 32.1263C33.0815 31.8153 33.4954 31.3963 33.792 30.9075C34.0413 30.4966 33.9105 29.9618 33.5 29.7125ZM53.6795 40.274L47.5811 36.7513C46.7923 36.287 45.7644 36.8906 45.7713 37.7962V44.8417C45.7631 45.7452 46.7986 46.3481 47.581 45.8865L53.6794 42.364C54.468 41.917 54.4651 40.7189 53.6795 40.274ZM47.5106 43.9184V38.7195L52.0108 41.319L47.5106 43.9184ZM30.1016 22.1243C26.0597 22.2302 22.6984 25.4729 22.4495 29.5064C22.386 30.5336 22.5195 31.5454 22.8459 32.5142L21.9198 35.1488C21.7481 35.6373 21.8689 36.168 22.2349 36.5341C22.6009 36.9001 23.1318 37.0208 23.6201 36.8492L25.4569 36.2036C26.898 37.3334 28.6999 37.9254 30.5309 37.8757C34.7408 37.7616 38.1774 34.2406 38.1914 30.027C38.1986 27.8781 37.3562 25.8675 35.8194 24.3655C34.283 22.8638 32.2513 22.0666 30.1016 22.1243ZM30.4837 36.1368C29.0475 36.1734 27.6402 35.7096 26.517 34.8243C26.2102 34.5823 25.8407 34.4565 25.4666 34.4565C25.28 34.4565 25.0922 34.4878 24.9106 34.5517L23.8412 34.9275L24.4938 33.0713C24.6181 32.7177 24.6208 32.3297 24.501 31.9788C24.2417 31.218 24.1356 30.4223 24.1854 29.6135C24.3794 26.4715 26.9981 23.9456 30.147 23.8629C31.8235 23.8175 33.4061 24.4393 34.6033 25.6094C35.8008 26.7798 36.4571 28.3466 36.4516 30.0209C36.4408 33.3044 33.7635 36.0479 30.4837 36.1368Z" fill="#C73E9B"/>
</g>
<defs>
<clipPath id="clip0_48_1897">
<rect width="60" height="60" fill="white"/>
</clipPath>
</defs>
</svg>
