<svg width="60" height="60" viewBox="0 0 60 60" fill="none" xmlns="http://www.w3.org/2000/svg">
<g clip-path="url(#clip0_48_2107)">
<path d="M58.1252 54.5478V45.7647C58.7504 45.5448 59.2776 45.1107 59.6134 44.5392C59.9491 43.9677 60.0717 43.2958 59.9594 42.6426C59.847 41.9894 59.5071 41.3971 58.9997 40.9706C58.4924 40.544 57.8505 40.3109 57.1877 40.3125H52.3274C52.4385 40.0123 52.497 39.6951 52.5002 39.375C52.4984 38.7953 52.3172 38.2303 51.9815 37.7577C51.6458 37.285 51.172 36.9279 50.6252 36.7353V34.6875H53.6071L51.9673 24.8516C52.3794 24.4558 52.6802 23.9585 52.8395 23.4098C52.9989 22.861 53.0112 22.28 52.8753 21.725C52.7393 21.1699 52.4599 20.6604 52.065 20.2474C51.6701 19.8344 51.1735 19.5324 50.6252 19.3718V15.2911L48.184 14.3612L55.9618 11.25L30.0002 0.865234L4.03853 11.25L15.0002 15.6348V27.1875H11.2502C9.66296 27.1858 8.11624 27.6882 6.83301 28.6223C5.54979 29.5564 4.59638 30.8739 4.11027 32.3848C3.62416 33.8957 3.63046 35.522 4.12827 37.0291C4.62608 38.5362 5.58967 39.8463 6.88009 40.7704C4.63829 41.4781 2.72379 42.9647 1.48293 44.9614C0.242066 46.958 -0.243208 49.3329 0.114893 51.6563C0.472993 53.9797 1.65082 56.0982 3.4353 57.6286C5.21978 59.159 7.49306 60.0002 9.8439 60H57.1877C57.8505 60.0016 58.4924 59.7685 58.9997 59.342C59.5071 58.9155 59.847 58.3231 59.9594 57.6699C60.0717 57.0167 59.9491 56.3448 59.6134 55.7733C59.2776 55.2018 58.7504 54.7677 58.1252 54.5478ZM56.2502 47.8125H39.3752V49.6875H56.2502V54.375H9.67778C8.5589 54.375 7.48584 53.9305 6.69467 53.1394C5.9035 52.3482 5.45903 51.2751 5.45903 50.1563C5.45903 49.0374 5.9035 47.9643 6.69467 47.1732C7.48584 46.382 8.5589 45.9375 9.67778 45.9375H56.2502V47.8125ZM48.7502 36.5625H11.2502C10.7529 36.5625 10.276 36.365 9.92433 36.0133C9.5727 35.6617 9.37515 35.1848 9.37515 34.6875C9.37515 34.1902 9.5727 33.7133 9.92433 33.3617C10.276 33.0101 10.7529 32.8125 11.2502 32.8125H22.4772C24.9313 33.4618 27.4618 33.7771 30.0002 33.75C32.5386 33.7772 35.069 33.4618 37.5231 32.8125H46.0809L45.7682 34.6875H48.7502V36.5625ZM44.4836 29.0625H46.7064L46.3938 30.9375H42.0576C42.9471 30.4247 43.7632 29.794 44.4836 29.0625ZM51.393 32.8125H47.9821L49.1627 25.7282C49.5091 25.7989 49.8662 25.7989 50.2127 25.7282L51.393 32.8125ZM51.0939 22.5C51.0939 22.7781 51.0114 23.05 50.8569 23.2813C50.7024 23.5125 50.4828 23.6928 50.2258 23.7992C49.9688 23.9057 49.6861 23.9335 49.4133 23.8792C49.1405 23.825 48.89 23.6911 48.6933 23.4944C48.4966 23.2977 48.3627 23.0471 48.3084 22.7744C48.2542 22.5016 48.282 22.2188 48.3884 21.9619C48.4949 21.7049 48.6751 21.4853 48.9064 21.3308C49.1376 21.1762 49.4095 21.0938 49.6877 21.0938C50.0605 21.0942 50.4179 21.2425 50.6816 21.5061C50.9452 21.7697 51.0935 22.1272 51.0939 22.5ZM48.7502 16.5844V19.3722C48.2018 19.5329 47.7052 19.8348 47.3103 20.2478C46.9154 20.6609 46.636 21.1704 46.5 21.7254C46.3641 22.2805 46.3764 22.8615 46.5358 23.4102C46.6951 23.959 46.9959 24.4562 47.408 24.8521L47.0186 27.1875H45.0002V15.6348L45.614 15.3892L48.7502 16.5844ZM30.0002 2.8848L50.9135 11.25L45.5979 13.3762L30.3339 7.56133L29.6664 9.3137L43.0283 14.4043L30.0002 19.6152L9.08678 11.25L30.0002 2.8848ZM30.0002 21.6348L43.1252 16.3848V27.7698C42.2852 28.6406 38.5832 31.875 30.0002 31.875C21.408 31.875 17.7074 28.6331 16.8752 27.7707V16.3848L30.0002 21.6348ZM5.62515 34.6875C5.62679 33.1962 6.21995 31.7664 7.27449 30.7118C8.32902 29.6573 9.75881 29.0642 11.2502 29.0625H15.5167C16.2372 29.794 17.0532 30.4247 17.9427 30.9375H11.2502C10.2556 30.9375 9.30176 31.3326 8.5985 32.0359C7.89524 32.7391 7.50015 33.693 7.50015 34.6875C7.50015 35.6821 7.89524 36.6359 8.5985 37.3392C9.30176 38.0424 10.2556 38.4375 11.2502 38.4375H49.6877C49.9363 38.4375 50.1748 38.5363 50.3506 38.7121C50.5264 38.8879 50.6252 39.1264 50.6252 39.375C50.6252 39.6237 50.5264 39.8621 50.3506 40.0379C50.1748 40.2137 49.9363 40.3125 49.6877 40.3125H11.2502C9.75881 40.3109 8.32902 39.7177 7.27449 38.6632C6.21995 37.6086 5.62679 36.1789 5.62515 34.6875ZM57.1877 58.125H9.8439C7.73046 58.125 5.70358 57.2855 4.20915 55.791C2.71471 54.2966 1.87515 52.2697 1.87515 50.1563C1.87515 48.0428 2.71471 46.0159 4.20915 44.5215C5.70358 43.0271 7.73046 42.1875 9.8439 42.1875H57.1877C57.4363 42.1875 57.6748 42.2863 57.8506 42.4621C58.0264 42.6379 58.1252 42.8764 58.1252 43.125C58.1252 43.3737 58.0264 43.6121 57.8506 43.7879C57.6748 43.9637 57.4363 44.0625 57.1877 44.0625H9.67778C8.06161 44.0625 6.51165 44.7045 5.36885 45.8473C4.22605 46.9901 3.58403 48.5401 3.58403 50.1563C3.58403 51.7724 4.22605 53.3224 5.36885 54.4652C6.51165 55.608 8.06161 56.25 9.67778 56.25H57.1877C57.4363 56.25 57.6748 56.3488 57.8506 56.5246C58.0264 56.7004 58.1252 56.9389 58.1252 57.1875C58.1252 57.4362 58.0264 57.6746 57.8506 57.8504C57.6748 58.0262 57.4363 58.125 57.1877 58.125Z" fill="#C73E9B"/>
<path d="M35.625 50.625H9.375V52.5H35.625V50.625Z" fill="#C73E9B"/>
</g>
<defs>
<clipPath id="clip0_48_2107">
<rect width="60" height="60" fill="white"/>
</clipPath>
</defs>
</svg>
