<svg width="61" height="60" viewBox="0 0 61 60" fill="none" xmlns="http://www.w3.org/2000/svg">
<path d="M8 5.625H9.875V7.5H8V5.625Z" fill="#0195FF"/>
<path d="M11.75 5.625H13.625V7.5H11.75V5.625Z" fill="#0195FF"/>
<path d="M15.5 5.625H17.375V7.5H15.5V5.625Z" fill="#0195FF"/>
<path d="M8.9375 26.25H23.9375C24.1861 26.25 24.4246 26.1512 24.6004 25.9754C24.7762 25.7996 24.875 25.5611 24.875 25.3125V15.9375C24.875 15.6889 24.7762 15.4504 24.6004 15.2746C24.4246 15.0988 24.1861 15 23.9375 15H8.9375C8.68886 15 8.4504 15.0988 8.27459 15.2746C8.09877 15.4504 8 15.6889 8 15.9375V25.3125C8 25.5611 8.09877 25.7996 8.27459 25.9754C8.4504 26.1512 8.68886 26.25 8.9375 26.25ZM9.875 16.875H23V24.375H9.875V16.875Z" fill="#0195FF"/>
<path d="M32.375 15.9375H47.375V17.8125H32.375V15.9375Z" fill="#0195FF"/>
<path d="M28.625 19.6875H45.5V21.5625H28.625V19.6875Z" fill="#0195FF"/>
<path d="M28.625 23.4375H41.75V25.3125H28.625V23.4375Z" fill="#0195FF"/>
<path d="M11.75 30H36.125V31.875H11.75V30Z" fill="#0195FF"/>
<path d="M8 33.75H32.375V35.625H8V33.75Z" fill="#0195FF"/>
<path d="M8 37.5H28.625V39.375H8V37.5Z" fill="#0195FF"/>
<path d="M8 41.25H28.625V43.125H8V41.25Z" fill="#0195FF"/>
<path d="M8 45H28.625V46.875H8V45Z" fill="#0195FF"/>
<path d="M8 30H9.875V31.875H8V30Z" fill="#0195FF"/>
<path d="M53.9375 7.5H53V6.5625C53 5.3193 52.5061 4.12701 51.6271 3.24794C50.748 2.36886 49.5557 1.875 48.3125 1.875H7.0625C5.8193 1.875 4.62701 2.36886 3.74794 3.24794C2.86886 4.12701 2.375 5.3193 2.375 6.5625V47.8125C2.375 49.0557 2.86886 50.248 3.74794 51.1271C4.62701 52.0061 5.8193 52.5 7.0625 52.5H8V53.4375C8 54.6807 8.49386 55.873 9.37294 56.7521C10.252 57.6311 11.4443 58.125 12.6875 58.125H53.9375C55.1807 58.125 56.373 57.6311 57.2521 56.7521C58.1311 55.873 58.625 54.6807 58.625 53.4375V12.1875C58.625 10.9443 58.1311 9.75201 57.2521 8.87294C56.373 7.99386 55.1807 7.5 53.9375 7.5ZM52.2594 22.0688L56.2437 26.0531L53.5906 28.7063L49.6063 24.7219L52.2594 22.0688ZM35.3094 40.9219L36.05 39L39.3125 42.2625L37.3906 43.0031L35.3094 40.9219ZM35.4781 43.7344L34.0063 44.3062L34.5781 42.8344L35.4781 43.7344ZM38.3375 38.6438L37.0156 37.3219L48.2844 26.0531L49.6063 27.375L38.3375 38.6438ZM50.9375 28.7063L52.2594 30.0281L40.9906 41.2969L39.6687 39.975L50.9375 28.7063ZM4.25 6.5625C4.25223 5.81726 4.54926 5.10319 5.07622 4.57622C5.60319 4.04926 6.31726 3.75223 7.0625 3.75H48.3125C49.0577 3.75223 49.7718 4.04926 50.2988 4.57622C50.8257 5.10319 51.1228 5.81726 51.125 6.5625V9.375H4.25V6.5625ZM7.0625 50.625C6.31726 50.6228 5.60319 50.3257 5.07622 49.7988C4.54926 49.2718 4.25223 48.5577 4.25 47.8125V11.25H51.125V20.5594L35.0281 36.6562C34.9342 36.7494 34.8608 36.8612 34.8125 36.9844L31.5031 45.6C31.4351 45.769 31.4183 45.9542 31.455 46.1327C31.4917 46.3111 31.5802 46.4747 31.7094 46.6031C31.8867 46.778 32.1259 46.8757 32.375 46.875C32.4908 46.8759 32.6055 46.8536 32.7125 46.8094L41.3281 43.5C41.4513 43.4517 41.5631 43.3783 41.6563 43.2844L51.125 33.8156V47.8125C51.1228 48.5577 50.8257 49.2718 50.2988 49.7988C49.7718 50.3257 49.0577 50.6228 48.3125 50.625H7.0625ZM56.75 53.4375C56.7478 54.1827 56.4507 54.8968 55.9238 55.4238C55.3968 55.9507 54.6827 56.2478 53.9375 56.25H12.6875C11.9423 56.2478 11.2282 55.9507 10.7012 55.4238C10.1743 54.8968 9.87723 54.1827 9.875 53.4375V52.5H48.3125C49.5557 52.5 50.748 52.0061 51.6271 51.1271C52.5061 50.248 53 49.0557 53 47.8125V31.9406L56.75 28.1906V53.4375ZM56.75 23.9062L53 20.1562V16.875H56.75V23.9062ZM56.75 15H53V9.375H53.9375C54.6827 9.37723 55.3968 9.67426 55.9238 10.2012C56.4507 10.7282 56.7478 11.4423 56.75 12.1875V15Z" fill="#0195FF"/>
<path d="M28.625 15.9375H30.5V17.8125H28.625V15.9375Z" fill="#0195FF"/>
</svg>
