<svg width="61" height="60" viewBox="0 0 61 60" fill="none" xmlns="http://www.w3.org/2000/svg">
<g clip-path="url(#clip0_48_1965)">
<path d="M57.9745 45.0527L44.6756 31.734C44.455 31.5244 44.1623 31.4075 43.858 31.4075C43.5537 31.4075 43.261 31.5244 43.0404 31.734L40.403 34.3714L37.2975 31.2725L44.7942 23.7362C47.9261 23.5714 52.0997 23.5846 52.2843 23.5582C53.0624 23.4395 54.5525 22.2395 59.5964 15.4549C59.7365 15.2631 59.8147 15.0331 59.8206 14.7956V11.7428C59.8201 11.5396 59.7663 11.3401 59.6644 11.1642C59.5626 10.9883 59.4164 10.8422 59.2404 10.7406C59.0647 10.6368 58.8643 10.582 58.6602 10.582C58.4561 10.582 58.2557 10.6368 58.08 10.7406L52.7459 13.9055C52.2909 14.0505 50.2931 14.5187 48.5854 12.0857C46.7393 9.44833 47.5635 8.18239 48.7305 7.18679C50.4731 5.94181 52.2824 4.79285 54.1503 3.74503C54.3189 3.64652 54.4603 3.5075 54.5616 3.34056C54.6629 3.17362 54.721 2.98403 54.7305 2.78898C54.7379 2.59422 54.6958 2.40076 54.6081 2.22666C54.5205 2.05257 54.3902 1.9035 54.2294 1.79338C54.0646 1.68129 50.0492 -1.00222 43.1525 1.66811C37.825 3.72525 37.08 6.43514 37.014 6.73843L35.8799 14.7494L28.3371 22.2989L21.5986 15.5406C21.8907 14.8061 22.0428 14.0234 22.047 13.2329C22.0486 12.412 21.8874 11.5989 21.5728 10.8406C21.2581 10.0824 20.7963 9.39402 20.214 8.81536C20.1589 8.75749 20.0969 8.70656 20.0294 8.66371L8.61621 1.23953C8.39569 1.09359 8.13151 1.02831 7.86839 1.05474C7.60526 1.08117 7.35935 1.19769 7.17226 1.38459L2.4316 6.12525C2.2447 6.31234 2.12818 6.55825 2.10175 6.82138C2.07532 7.0845 2.1406 7.34868 2.28654 7.5692L9.7305 18.9626C9.77536 19.0286 9.82612 19.0904 9.88215 19.1472C10.4595 19.729 11.1468 20.1902 11.9041 20.5037C12.6614 20.8173 13.4735 20.977 14.2931 20.9736C15.0856 20.9749 15.8711 20.8249 16.6074 20.5318L23.3459 27.2901L15.0909 35.545L7.17885 36.6659H7.09314C6.78984 36.7384 4.08654 37.4769 2.02281 42.811C-0.614557 49.7077 2.02281 53.7165 2.15467 53.8879C2.26368 54.0471 2.41048 54.1769 2.58193 54.2655C2.75338 54.3541 2.94413 54.3988 3.13709 54.3956C3.33108 54.3887 3.5201 54.3323 3.68624 54.232C3.85239 54.1316 3.99017 53.9905 4.08654 53.822C5.13522 51.9546 6.28415 50.1454 7.5283 48.4022C8.52391 47.2351 9.80962 46.4242 12.4338 48.2505C14.8734 49.9714 14.4118 51.9824 14.2536 52.411L11.0887 57.745C10.9832 57.9196 10.9262 58.1191 10.9234 58.323C10.9207 58.5269 10.9724 58.7279 11.0731 58.9052C11.1739 59.0825 11.32 59.2298 11.4966 59.3318C11.6732 59.4339 11.8738 59.487 12.0778 59.4857H15.1305C15.3693 59.4814 15.6005 59.4005 15.7898 59.2549C22.7129 54.1384 23.814 52.6615 23.9063 51.9165C23.9063 51.7582 23.9063 47.5846 24.0712 44.4593L32.3063 36.2637L35.4448 39.356L32.8074 41.9934C32.5916 42.2108 32.4705 42.5047 32.4705 42.811C32.4705 43.1173 32.5916 43.4112 32.8074 43.6285L46.1261 56.9406C47.622 58.4344 49.6495 59.2734 51.7635 59.2734C53.8774 59.2734 55.905 58.4344 57.4008 56.9406L58.0008 56.3406C58.7428 55.6013 59.3316 54.7227 59.7333 53.7553C60.135 52.7879 60.3418 51.7508 60.3418 50.7033C60.3418 49.6558 60.135 48.6186 59.7333 47.6512C59.3316 46.6838 58.7428 45.8053 58.0008 45.0659L57.9745 45.0527ZM37.7854 16.1143C37.9605 15.9344 38.0737 15.7035 38.1085 15.4549L39.2756 7.25272C39.3481 7.0681 40.1195 5.34723 43.9832 3.85052C46.1662 2.90077 48.5762 2.59866 50.9261 2.98019C49.6433 3.72244 48.408 4.5438 47.2272 5.43953C44.0558 8.15602 45.1898 11.2747 46.6931 13.4176C49.047 16.7604 52.2909 16.5956 53.669 16.0549C53.7217 16.0549 57.5129 13.7934 57.5129 13.7934V14.4527C55.3503 17.3538 52.7459 20.578 51.8624 21.2901C50.3459 21.211 46.1261 21.4154 44.2338 21.5209C43.948 21.5345 43.6775 21.6544 43.4756 21.8571L35.669 29.6242L33.6909 27.6461L41.2206 20.0835C41.3433 19.9805 41.4433 19.8531 41.5141 19.7094C41.5848 19.5657 41.6249 19.4088 41.6318 19.2487C41.6386 19.0887 41.612 18.929 41.5537 18.7797C41.4954 18.6305 41.4067 18.4951 41.2932 18.382C41.1797 18.269 41.0439 18.1808 40.8944 18.1231C40.745 18.0654 40.5851 18.0395 40.4251 18.047C40.2651 18.0545 40.1084 18.0952 39.9649 18.1665C39.8215 18.2379 39.6945 18.3384 39.592 18.4615L32.0426 26.0044L29.9723 23.9274L37.7854 16.1143ZM14.2734 18.6659C13.2704 18.6708 12.3042 18.2882 11.5767 17.5978L4.7261 7.09448L8.14149 3.67909L18.6448 10.5494C19.3434 11.2966 19.7254 12.2854 19.7106 13.3082C19.6959 14.331 19.2855 15.3084 18.5657 16.0351L17.0558 17.545C16.6908 17.9106 16.257 18.2002 15.7794 18.3971C15.3018 18.594 14.7899 18.6943 14.2734 18.6923V18.6659ZM22.1459 43.1472C21.9425 43.346 21.8223 43.6147 21.8096 43.8989C21.7041 45.7978 21.4997 50.011 21.5854 51.5274C20.8734 52.411 17.6294 55.022 14.7415 57.1846H14.0821C14.0821 57.1846 16.3239 53.4066 16.3635 53.3406C16.9239 51.956 17.0953 48.7252 13.7261 46.3648C11.5832 44.8615 8.45138 43.7274 5.74149 46.8989C4.84649 48.0801 4.02515 49.3154 3.28215 50.5978C2.90005 48.2473 3.20454 45.8365 4.15907 43.6549C5.66237 39.7582 7.38984 39.0395 7.56127 38.9406L15.7964 37.7736C16.0458 37.7415 16.2776 37.6279 16.4558 37.4505L24.9745 28.9187L27.0514 30.989L18.7239 39.3231C18.6157 39.4292 18.5297 39.5559 18.471 39.6958C18.4123 39.8356 18.382 39.9857 18.382 40.1373C18.382 40.289 18.4123 40.4391 18.471 40.5789C18.5297 40.7187 18.6157 40.8454 18.7239 40.9516C18.8301 41.0599 18.9568 41.1459 19.0966 41.2046C19.2364 41.2633 19.3866 41.2935 19.5382 41.2935C19.6898 41.2935 19.8399 41.2633 19.9798 41.2046C20.1196 41.1459 20.2463 41.0599 20.3525 40.9516L28.68 32.6242L30.658 34.6022L22.1459 43.1472ZM18.5723 19.2527L18.6909 19.1472L20.1942 17.6439L20.2997 17.5252L38.7613 35.9868L37.0338 37.7143L18.5723 19.2527ZM56.3459 54.7252L55.7459 55.3318C54.6808 56.3916 53.2395 56.9865 51.7371 56.9865C50.2347 56.9865 48.7933 56.3916 47.7283 55.3318L35.2338 42.8044L37.8712 40.167L41.2338 36.811L43.8712 34.1736L56.3986 46.7011C56.9241 47.2303 57.3397 47.8582 57.6216 48.5486C57.9035 49.239 58.0461 49.9784 58.0412 50.7241C58.0363 51.4699 57.884 52.2073 57.593 52.894C57.3021 53.5806 56.8782 54.203 56.3459 54.7252Z" fill="#0195FF"/>
<path d="M43.1446 40.4703C43.0384 40.3621 42.9117 40.2761 42.7719 40.2174C42.6321 40.1587 42.482 40.1284 42.3303 40.1284C42.1787 40.1284 42.0286 40.1587 41.8888 40.2174C41.7489 40.2761 41.6222 40.3621 41.516 40.4703C41.3006 40.6866 41.1797 40.9794 41.1797 41.2846C41.1797 41.5898 41.3006 41.8826 41.516 42.0989L51.4061 51.989C51.5135 52.0963 51.641 52.1815 51.7813 52.2396C51.9215 52.2977 52.0719 52.3276 52.2237 52.3276C52.3756 52.3276 52.5259 52.2977 52.6662 52.2396C52.8065 52.1815 52.9339 52.0963 53.0413 51.989C53.1487 51.8816 53.2338 51.7542 53.292 51.6139C53.3501 51.4736 53.38 51.3232 53.38 51.1714C53.38 51.0196 53.3501 50.8692 53.292 50.7289C53.2338 50.5886 53.1487 50.4612 53.0413 50.3538L43.1446 40.4703Z" fill="#0195FF"/>
</g>
<defs>
<clipPath id="clip0_48_1965">
<rect width="60" height="60" fill="white" transform="translate(0.5)"/>
</clipPath>
</defs>
</svg>
