<svg width="61" height="60" viewBox="0 0 61 60" fill="none" xmlns="http://www.w3.org/2000/svg">
<path d="M56.0097 35.3904L51.4369 27.4704C51.3303 27.2856 51.1637 27.1427 50.9648 27.0654L41.3101 23.3114C41.6105 22.2971 41.7727 21.2241 41.7727 20.1137C41.7727 13.8975 36.7155 8.84027 30.4993 8.84027C24.2831 8.84027 19.2258 13.8975 19.2258 20.1137C19.2258 21.2242 19.388 22.2971 19.6885 23.3114L10.0338 27.0654C9.83491 27.1427 9.66827 27.2856 9.56163 27.4704L4.98885 35.3904C4.8521 35.6272 4.82561 35.9121 4.91643 36.1702C5.00714 36.4282 5.20612 36.6338 5.461 36.7329L9.43589 38.2785V51.1785C9.43589 51.5651 9.67331 51.9121 10.0338 52.0522L30.1594 59.8777C30.2688 59.9202 30.384 59.9414 30.4992 59.9414C30.6144 59.9414 30.7297 59.9202 30.8389 59.8777L50.9646 52.0522C51.325 51.9121 51.5624 51.5651 51.5624 51.1785V38.2785L55.5373 36.7329C55.7923 36.6338 55.9912 36.4282 56.0819 36.1702C56.173 35.9121 56.1465 35.6273 56.0097 35.3904ZM30.4994 10.7153C35.6818 10.7153 39.8978 14.9314 39.8978 20.1137C39.8978 25.296 35.6817 29.5121 30.4994 29.5121C25.3171 29.5121 21.101 25.296 21.101 20.1137C21.101 14.9314 25.317 10.7153 30.4994 10.7153ZM30.4994 31.3871C34.9664 31.3871 38.8348 28.7756 40.6583 24.9991L48.0569 27.9319L30.4994 34.7588L12.9418 27.9319L20.3404 24.9991C22.1639 28.7756 26.0323 31.3871 30.4994 31.3871ZM7.15928 35.3814L10.7834 29.1043L29.141 36.2423L25.5168 42.5195L7.15928 35.3814ZM11.3111 39.0075L25.587 44.5584C26.0182 44.7259 26.5073 44.5541 26.7386 44.1534L29.5619 39.2634V57.6335L11.3111 50.5371V39.0075ZM49.6877 50.5371L31.4369 57.6335V39.2634L34.2602 44.1536C34.4916 44.5542 34.9807 44.7261 35.4118 44.5586L49.6877 39.0076V50.5371ZM35.482 42.5195L31.8577 36.2423L50.2154 29.1043L53.8395 35.3814L35.482 42.5195ZM28.1668 26.2035C28.8158 26.2035 29.4266 25.9501 29.8865 25.4902L37.1948 18.182C38.1444 17.2323 38.1444 15.6871 37.1947 14.7371C36.7347 14.2772 36.123 14.0238 35.4725 14.0238C34.822 14.0238 34.2103 14.2772 33.7502 14.7371L28.3706 20.1169L26.9348 18.3102C26.4705 17.7261 25.7759 17.3911 25.0293 17.3911C24.4824 17.3911 23.9451 17.5788 23.5162 17.9196C22.4662 18.7546 22.2911 20.2881 23.1257 21.338L26.1847 25.1873C26.6419 25.8244 27.3805 26.2036 28.1668 26.2035ZM24.6828 19.3873C24.8089 19.2871 24.9407 19.266 25.0292 19.266C25.2009 19.266 25.3604 19.3429 25.4668 19.4767L27.5562 22.1061C27.7225 22.3153 27.97 22.4436 28.2369 22.4589C28.503 22.4738 28.7642 22.3747 28.9531 22.1858L35.0758 16.063C35.1816 15.9571 35.3225 15.8988 35.4724 15.8988C35.6223 15.8988 35.7629 15.9572 35.8687 16.0629C36.0874 16.2817 36.0875 16.6376 35.8688 16.8562L28.5607 24.1644C28.4249 24.3 28.2714 24.3285 28.1666 24.3285C27.9789 24.3285 27.8101 24.2406 27.7031 24.0874C27.6919 24.0715 27.6805 24.056 27.6684 24.0409L24.5935 20.1714C24.402 19.9305 24.4422 19.5788 24.6828 19.3873ZM29.5619 5.38699V0.996094C29.5619 0.478359 29.9816 0.0585938 30.4994 0.0585938C31.0171 0.0585938 31.4369 0.478359 31.4369 0.996094V5.38699C31.4369 5.90473 31.0171 6.32449 30.4994 6.32449C29.9816 6.32449 29.5619 5.90473 29.5619 5.38699ZM20.0956 3.9027C19.8367 3.45434 19.9905 2.88094 20.4389 2.62207C20.8871 2.36332 21.4606 2.51684 21.7195 2.9652L23.9149 6.76781C24.1737 7.21617 24.0201 7.78957 23.5717 8.04844C23.4241 8.13363 23.2628 8.17418 23.1038 8.17418C22.7798 8.17418 22.4648 8.00602 22.291 7.70531L20.0956 3.9027ZM13.0078 9.87246C13.2666 9.42398 13.84 9.27035 14.2884 9.52934L18.091 11.7247C18.5394 11.9836 18.693 12.557 18.4341 13.0054C18.2606 13.3061 17.9453 13.4742 17.6213 13.4742C17.4623 13.4742 17.3012 13.4337 17.1535 13.3485L13.3509 11.1531C12.9025 10.8942 12.7489 10.3208 13.0078 9.87246ZM10.1976 19.8669C10.1976 19.3492 10.6173 18.9294 11.1351 18.9294H15.5259C16.0437 18.9294 16.4634 19.3492 16.4634 19.8669C16.4634 20.3846 16.0437 20.8044 15.5259 20.8044H11.1351C10.6173 20.8044 10.1976 20.3848 10.1976 19.8669ZM37.0178 7.01449L39.2132 3.21188C39.4721 2.7634 40.0455 2.60965 40.4939 2.86875C40.9422 3.12762 41.096 3.70102 40.8371 4.14938L38.6416 7.95199C38.4679 8.2527 38.1528 8.42086 37.8288 8.42086C37.6698 8.42086 37.5085 8.38031 37.3608 8.29512C36.9126 8.03637 36.759 7.46297 37.0178 7.01449ZM42.318 13.4327C42.0591 12.9844 42.2128 12.411 42.6611 12.1521L46.4637 9.95672C46.9121 9.69797 47.4855 9.8516 47.7444 10.2998C48.0032 10.7482 47.8496 11.3216 47.4012 11.5805L43.5986 13.7759C43.451 13.8611 43.2898 13.9016 43.1308 13.9016C42.8067 13.9016 42.4915 13.7334 42.318 13.4327ZM44.9794 19.4229H49.3702C49.8881 19.4229 50.3077 19.8427 50.3077 20.3604C50.3077 20.8781 49.8881 21.2979 49.3702 21.2979H44.9794C44.4616 21.2979 44.0419 20.8781 44.0419 20.3604C44.0419 19.8427 44.4617 19.4229 44.9794 19.4229Z" fill="#0195FF"/>
</svg>
