<svg width="60" height="60" viewBox="0 0 60 60" fill="none" xmlns="http://www.w3.org/2000/svg">
<path d="M45.0586 48.457H46.8164V50.2148H45.0586V48.457Z" fill="#0195FF"/>
<path d="M56.4844 45.0298V14.9702C58.4878 14.562 60 12.7863 60 10.6641C60 8.24086 58.0287 6.26953 55.6055 6.26953C53.4833 6.26953 51.7077 7.78172 51.2994 9.78516H8.70059C8.29231 7.78172 6.5168 6.26953 4.39453 6.26953C1.97133 6.26953 0 8.24086 0 10.6641C0 12.7863 1.51219 14.562 3.51562 14.9702V17.6953H5.27344V14.9702C6.99281 14.6198 8.3502 13.2623 8.70059 11.543H20.5859V22.6758H5.27344V19.4531H3.51562V45.0299C1.51219 45.438 0 47.2138 0 49.3359C0 51.7591 1.97133 53.7305 4.39453 53.7305C6.51668 53.7305 8.29231 52.2183 8.70059 50.2148H43.3008V48.457H39.414V37.3242H54.7266V45.0298C53.0072 45.3802 51.6498 46.7377 51.2994 48.457H48.5742V50.2148H51.2994C51.7077 52.2183 53.4832 53.7305 55.6055 53.7305C58.0287 53.7305 60 51.7591 60 49.3359C60 47.2138 58.4878 45.438 56.4844 45.0298ZM4.39453 13.3008C2.94059 13.3008 1.75781 12.118 1.75781 10.6641C1.75781 9.21023 2.94059 8.02734 4.39453 8.02734C5.84836 8.02734 7.03125 9.21012 7.03125 10.6641C7.03125 12.118 5.84836 13.3008 4.39453 13.3008ZM55.6055 8.02734C57.0594 8.02734 58.2422 9.21023 58.2422 10.6641C58.2422 12.118 57.0594 13.3009 55.6055 13.3009C54.1516 13.3008 52.9688 12.118 52.9688 10.6641C52.9688 9.21012 54.1516 8.02734 55.6055 8.02734ZM54.7266 14.9702V22.6758H39.4141V11.543H51.2994C51.6498 13.2623 53.0072 14.6198 54.7266 14.9702ZM22.3437 11.543H37.6563V22.6758H22.3437V11.543ZM37.6563 24.4336V35.5664H22.3437V24.4336H37.6563ZM20.5859 24.4336V35.5664H5.27344V24.4336H20.5859ZM4.39453 51.9727C2.94059 51.9727 1.75781 50.7899 1.75781 49.3359C1.75781 47.882 2.94059 46.6991 4.39453 46.6991C5.84836 46.6992 7.03125 47.882 7.03125 49.3359C7.03125 50.7899 5.84836 51.9727 4.39453 51.9727ZM5.27344 45.0298V37.3242H20.5859V48.457H8.70059C8.3502 46.7377 6.99281 45.3802 5.27344 45.0298ZM37.6563 48.457H22.3437V37.3242H37.6563V48.457ZM39.4141 35.5664V24.4336H54.7266V35.5664H39.4141ZM55.6055 51.9727C54.1516 51.9727 52.9688 50.7898 52.9688 49.3359C52.9688 47.882 54.1515 46.6991 55.6055 46.6991C57.0594 46.6991 58.2422 47.882 58.2422 49.3359C58.2422 50.7899 57.0594 51.9727 55.6055 51.9727Z" fill="#0195FF"/>
<path d="M48.5039 13.3008H50.2617V15.0586H48.5039V13.3008Z" fill="#0195FF"/>
<path d="M44.9883 13.3008H46.7461V15.0586H44.9883V13.3008Z" fill="#0195FF"/>
</svg>
