<svg width="60" height="60" viewBox="0 0 60 60" fill="none" xmlns="http://www.w3.org/2000/svg">
<g clip-path="url(#clip0_48_2203)">
<path d="M8 27C7.44772 27 7 27.4477 7 28V30C7 30.5523 7.44772 31 8 31C8.55228 31 9 30.5523 9 30V28C9 27.4477 8.55228 27 8 27Z" fill="#0195FF"/>
<path d="M8 33C7.44772 33 7 33.4477 7 34V55C7 55.5523 7.44772 56 8 56C8.55228 56 9 55.5523 9 55V34C9 33.4477 8.55228 33 8 33Z" fill="#0195FF"/>
<path d="M15 0H11C9.89543 0 9 0.89543 9 2V22H6C4.34315 22 3 23.3431 3 25V57C3 58.6569 4.34315 60 6 60H54C55.6569 60 57 58.6569 57 57V29C57 27.3431 55.6569 26 54 26H49V2C49 0.89543 48.1046 0 47 0H43C41.8954 0 41 0.89543 41 2V3H17V2C17 0.89543 16.1046 0 15 0ZM15 12H11V8H15V12ZM11 14H15V18H11V14ZM11 2H15V6H11V2ZM11 20H15V22H11V20ZM6 58C5.44772 58 5 57.5523 5 57V25C5 24.4477 5.44772 24 6 24H17.343C18.1392 23.9978 18.9032 24.3139 19.465 24.878L25.121 30.536C26.0569 31.4766 27.3301 32.0038 28.657 32H50C50.5523 32 51 32.4477 51 33V57C51 57.5523 50.5523 58 50 58H6ZM47 18H43V14H47V18ZM43 20H47V24H43V20ZM47 12H43V8H47V12ZM43 26H47V30H43V26ZM54 28C54.5523 28 55 28.4477 55 29V57C55 57.5523 54.5523 58 54 58H52.816C53.079 57.261 53 59.3 53 33C53 31.3431 51.6569 30 50 30H49V28H54ZM43 2H47V6H43V2ZM41 5V30L28.657 30C27.8608 30.0022 27.0968 29.6861 26.535 29.122L20.879 23.464C19.8558 22.4422 18.4431 21.9091 17 22V5H41Z" fill="#0195FF"/>
<path d="M27.045 23.7001L35.029 18.7111C35.6289 18.3514 35.9973 17.7045 36.0006 17.0051C36.0039 16.3056 35.6415 15.6553 35.045 15.2901L27.029 10.2831C26.4108 9.91216 25.6409 9.90264 25.0137 10.2581C24.3866 10.6136 23.9993 11.2792 24 12.0001V22.0001C24.0019 22.723 24.3938 23.3887 25.0251 23.7411C25.6563 24.0935 26.4286 24.0778 27.045 23.7001ZM26 12.0001L33.984 17.0081L26 22.0001V12.0001Z" fill="#0195FF"/>
</g>
<defs>
<clipPath id="clip0_48_2203">
<rect width="60" height="60" fill="white"/>
</clipPath>
</defs>
</svg>
