<svg width="60" height="60" viewBox="0 0 60 60" fill="none" xmlns="http://www.w3.org/2000/svg">
<g clip-path="url(#clip0_48_2041)">
<path d="M40.1345 38.854C39.8499 39.031 39.6758 39.3417 39.6758 39.6776V53.226C39.6758 53.5618 39.8499 53.8724 40.1345 54.0496C40.2903 54.1454 40.4664 54.1937 40.6435 54.1937C40.7915 54.1937 40.9396 54.1598 41.0761 54.0921L54.6245 47.318C54.9525 47.1534 55.1596 46.8186 55.1596 46.4518C55.1596 46.085 54.9526 45.7502 54.6245 45.5857L41.0761 38.8114C40.777 38.6624 40.4199 38.6769 40.1345 38.854ZM41.6112 41.2433L52.028 46.4517L41.6112 51.6601V41.2433Z" fill="#0195FF"/>
<path d="M57.0968 27.0968C58.6975 27.0968 60 25.7943 60 24.1936V6.77414C60 5.17348 58.6975 3.87094 57.0968 3.87094H50.3227V2.9032C50.3225 1.30254 49.02 0 47.4193 0H6.77414C5.17359 0 3.87094 1.30254 3.87094 2.9032V34.8387H2.9032C1.30254 34.8387 0 36.1413 0 37.742V57.0968C0 58.6975 1.30254 60 2.9032 60H26.1291C27.7297 60 29.0323 58.6975 29.0323 57.0968V46.4516H32.9032C32.9032 53.9225 38.9807 60 46.4516 60C53.9225 60 60 53.9225 60 46.4516C60 40.3268 55.9113 35.1445 50.3225 33.4741V27.0967L57.0968 27.0968ZM58.0645 6.77414V24.1935C58.0645 24.7276 57.63 25.1612 57.0968 25.1612H48.8709L46.2571 28.646C45.8941 29.1299 45.0725 29.1299 44.7096 28.646L42.0967 25.1612H33.8708C33.3376 25.1612 32.9031 24.7276 32.9031 24.1935V6.77414C32.9031 6.24 33.3376 5.80641 33.8708 5.80641H57.0967C57.63 5.80641 58.0645 6.24 58.0645 6.77414ZM6.77414 1.93547H47.4193C47.9525 1.93547 48.3871 2.36906 48.3871 2.9032V3.87094H33.8709C32.2703 3.87094 30.9677 5.17348 30.9677 6.77414V7.74188H5.80641V2.9032C5.80641 2.36906 6.24094 1.93547 6.77414 1.93547ZM5.80641 9.67746H15.4839V34.8388H5.80641V9.67746ZM27.0968 57.0968C27.0968 57.6309 26.6623 58.0645 26.1291 58.0645H2.9032C2.37 58.0645 1.93547 57.6309 1.93547 57.0968V37.742C1.93547 37.2079 2.37 36.7743 2.9032 36.7743H26.1291C26.6623 36.7743 27.0968 37.2079 27.0968 37.742V57.0968ZM58.0645 46.4516C58.0645 52.8552 52.8552 58.0645 46.4516 58.0645C40.048 58.0645 34.8387 52.8552 34.8387 46.4516C34.8387 40.048 40.048 34.8387 46.4516 34.8387C52.8552 34.8387 58.0645 40.048 58.0645 46.4516ZM46.4516 32.9032C39.6396 32.9032 34.0016 37.9616 33.058 44.5161H29.0321V37.742C29.0321 36.1413 27.7296 34.8388 26.1289 34.8388H17.4192V9.67746H30.9676V24.1936C30.9676 25.7943 32.2702 27.0968 33.8708 27.0968H41.1288L43.1611 29.8075C43.7059 30.5343 44.575 30.9677 45.4836 30.9677C46.3934 30.9677 47.2614 30.5341 47.8052 29.8075L48.3868 29.0323V33.0581C47.7532 32.9661 47.1107 32.9032 46.4516 32.9032Z" fill="#0195FF"/>
<path d="M34.9523 20.7757C35.1265 21.1037 35.4614 21.2905 35.8087 21.2905C35.9617 21.2905 36.1165 21.2546 36.2607 21.1782L44.9471 16.5795L48.5026 18.4618C48.4339 18.7493 48.3885 19.0463 48.3885 19.355C48.3885 21.4898 50.1246 23.2259 52.2594 23.2259C54.3942 23.2259 56.1303 21.4898 56.1303 19.355C56.1303 17.2202 54.3942 15.4841 52.2594 15.4841C51.1301 15.4841 50.1207 15.9786 49.4123 16.7527L47.0152 15.4841L49.4123 14.2154C50.1207 14.9895 51.1301 15.4841 52.2594 15.4841C54.3942 15.4841 56.1303 13.7479 56.1303 11.6131C56.1303 9.47832 54.3942 7.74219 52.2594 7.74219C50.1246 7.74219 48.3885 9.47832 48.3885 11.6131C48.3885 11.9218 48.4339 12.219 48.5026 12.5063L44.9471 14.3886L36.2607 9.78992C35.7885 9.53832 35.203 9.72125 34.9523 10.1925C34.7026 10.6647 34.8826 11.2502 35.3549 11.5009L42.879 15.4841L35.3549 19.4673C34.8827 19.7179 34.7027 20.3025 34.9523 20.7757ZM52.2594 17.4195C53.3269 17.4195 54.1949 18.2875 54.1949 19.355C54.1949 20.4225 53.3269 21.2905 52.2594 21.2905C51.1919 21.2905 50.3239 20.4225 50.3239 19.355C50.3239 18.2875 51.192 17.4195 52.2594 17.4195ZM52.2594 9.67766C53.3269 9.67766 54.1949 10.5457 54.1949 11.6131C54.1949 12.6806 53.3269 13.5486 52.2594 13.5486C51.1919 13.5486 50.3239 12.6806 50.3239 11.6131C50.3239 10.5457 51.192 9.67766 52.2594 9.67766Z" fill="#0195FF"/>
<path d="M15.4844 3.87109H17.4198V5.80656H15.4844V3.87109Z" fill="#0195FF"/>
<path d="M7.74219 3.87109H9.67766V5.80656H7.74219V3.87109Z" fill="#0195FF"/>
<path d="M11.6133 3.87109H13.5487V5.80656H11.6133V3.87109Z" fill="#0195FF"/>
<path d="M7.74215 48.5654V38.71H5.80656V48.5654C4.68297 48.9661 3.87109 50.0306 3.87109 51.2906C3.87109 52.5506 4.68309 53.6152 5.80656 54.0158V56.1294H7.74203V54.0158C8.86563 53.6152 9.6775 52.5506 9.6775 51.2906C9.6775 50.0306 8.86563 48.9661 7.74215 48.5654ZM6.7743 52.2582C6.24109 52.2582 5.80656 51.8246 5.80656 51.2905C5.80656 50.7564 6.24109 50.3228 6.7743 50.3228C7.3075 50.3228 7.74203 50.7564 7.74203 51.2905C7.74203 51.8246 7.30762 52.2582 6.7743 52.2582Z" fill="#0195FF"/>
<path d="M15.4842 44.694V38.7095H13.5487V44.694C12.4252 45.0947 11.6133 46.1592 11.6133 47.4192C11.6133 48.6792 12.4253 49.7437 13.5487 50.1444V56.1289H15.4842V50.1444C16.6078 49.7437 17.4197 48.6792 17.4197 47.4192C17.4197 46.1592 16.6078 45.0947 15.4842 44.694ZM14.5165 48.3869C13.9833 48.3869 13.5487 47.9533 13.5487 47.4192C13.5487 46.8851 13.9833 46.4515 14.5165 46.4515C15.0497 46.4515 15.4842 46.8851 15.4842 47.4192C15.4842 47.9533 15.0497 48.3869 14.5165 48.3869Z" fill="#0195FF"/>
<path d="M23.2264 42.7585V38.7095H21.2909V42.7585C20.1673 43.1592 19.3555 44.2237 19.3555 45.4837C19.3555 46.7437 20.1675 47.8083 21.2909 48.2089V56.1289H23.2264V48.2089C24.35 47.8083 25.1619 46.7437 25.1619 45.4837C25.1619 44.2237 24.3499 43.1592 23.2264 42.7585ZM22.2586 46.4515C21.7254 46.4515 21.2908 46.0179 21.2908 45.4837C21.2908 44.9496 21.7254 44.516 22.2586 44.516C22.7918 44.516 23.2263 44.9496 23.2263 45.4837C23.2263 46.0179 22.7919 46.4515 22.2586 46.4515Z" fill="#0195FF"/>
<path d="M7.74219 11.6128H13.5486V13.5483H7.74219V11.6128Z" fill="#0195FF"/>
<path d="M7.74219 15.4839H13.5486V17.4194H7.74219V15.4839Z" fill="#0195FF"/>
<path d="M7.74219 19.355H13.5486V21.2904H7.74219V19.355Z" fill="#0195FF"/>
<path d="M7.74219 23.2261H13.5486V25.1615H7.74219V23.2261Z" fill="#0195FF"/>
<path d="M7.74219 27.0967H13.5486V29.0321H7.74219V27.0967Z" fill="#0195FF"/>
<path d="M7.74219 30.9678H13.5486V32.9032H7.74219V30.9678Z" fill="#0195FF"/>
<path d="M19.3555 21.2901H29.0329V11.6128H19.3555V21.2901ZM21.2909 13.5483H27.0973V19.3547H21.2909V13.5483Z" fill="#0195FF"/>
<path d="M19.3555 32.903H29.0329V23.2256H19.3555V32.903ZM21.2909 25.1612H27.0973V30.9676H21.2909V25.1612Z" fill="#0195FF"/>
</g>
<defs>
<clipPath id="clip0_48_2041">
<rect width="60" height="60" fill="white"/>
</clipPath>
</defs>
</svg>
