<svg width="60" height="60" viewBox="0 0 60 60" fill="none" xmlns="http://www.w3.org/2000/svg">
<g clip-path="url(#clip0_48_2174)">
<path d="M59.1202 26.3052C58.6352 26.3052 58.2422 26.6983 58.2422 27.1832V32.8175C58.2422 33.9163 59.9983 33.9663 59.9983 32.8175V27.1832C59.9983 26.6983 59.6053 26.3052 59.1202 26.3052Z" fill="#0195FF"/>
<path d="M55.4835 20.5776C54.9985 20.5776 54.6055 20.9708 54.6055 21.4557V38.545C54.6055 39.6438 56.3616 39.6938 56.3616 38.545V21.4557C56.3616 20.9708 55.9684 20.5776 55.4835 20.5776Z" fill="#0195FF"/>
<path d="M51.8507 22.4897C51.3657 22.4897 50.9727 22.8829 50.9727 23.3678V36.6327C50.9727 37.7315 52.7288 37.7815 52.7288 36.6327V23.3678C52.7288 22.8829 52.3357 22.4897 51.8507 22.4897Z" fill="#0195FF"/>
<path d="M48.214 16.5942C47.729 16.5942 47.3359 16.9874 47.3359 17.4723V42.5279C47.3359 43.6268 49.092 43.6768 49.092 42.5279V17.4723C49.092 16.9874 48.6989 16.5942 48.214 16.5942Z" fill="#0195FF"/>
<path d="M0.878049 26.3052C0.393015 26.3052 0 26.6983 0 27.1832V32.8175C0 33.9163 1.7561 33.9663 1.7561 32.8175V27.1832C1.7561 26.6983 1.36308 26.3052 0.878049 26.3052Z" fill="#0195FF"/>
<path d="M4.51477 20.5776C4.02973 20.5776 3.63672 20.9708 3.63672 21.4557V38.545C3.63672 39.6438 5.39282 39.6938 5.39282 38.545V21.4557C5.39282 20.9708 4.99968 20.5776 4.51477 20.5776Z" fill="#0195FF"/>
<path d="M8.15149 22.4897C7.66645 22.4897 7.27344 22.8829 7.27344 23.3678V36.6327C7.27344 37.7315 9.02954 37.7815 9.02954 36.6327V23.3678C9.02954 22.8829 8.63652 22.4897 8.15149 22.4897Z" fill="#0195FF"/>
<path d="M11.7882 16.5942C11.3032 16.5942 10.9102 16.9874 10.9102 17.4723V42.5279C10.9102 43.6268 12.6663 43.6768 12.6663 42.5279V17.4723C12.6663 16.9874 12.2731 16.5942 11.7882 16.5942Z" fill="#0195FF"/>
<path d="M45.4302 23.5736C45.4461 23.5075 45.4555 23.4388 45.4555 23.3677V13.9184C45.4555 12.8195 43.6994 12.7695 43.6994 13.9184V20.4391C43.1379 19.6388 42.5087 18.8893 41.8189 18.2002V6.23427C41.8189 5.13542 40.0628 5.08543 40.0628 6.23427V16.674C39.4658 16.2235 38.8376 15.8126 38.1822 15.4442V8.63427C38.1822 7.53542 36.4261 7.48543 36.4261 8.63427V14.5881C35.8165 14.3342 35.189 14.1152 34.5456 13.9342V3.65866C34.5456 2.55981 32.7895 2.50982 32.7895 3.65866V13.5426C32.1544 13.4365 31.5075 13.3655 30.8504 13.3336V0.90744C30.8504 -0.191409 29.0943 -0.241399 29.0943 0.90744V13.34C28.4573 13.3755 27.8299 13.447 27.2138 13.5523V3.65866C27.2138 2.55981 25.4577 2.50982 25.4577 3.65866V13.9503C24.8142 14.1339 24.1866 14.3555 23.5771 14.6121V8.63427C23.5771 7.53542 21.821 7.48543 21.821 8.63427V15.4771C21.1653 15.8493 20.5373 16.2645 19.9405 16.719V6.23427C19.9405 5.13542 18.1844 5.08543 18.1844 6.23427V18.2599C17.4936 18.9568 16.8641 19.7144 16.3038 20.5235V13.9184C16.3038 12.8195 14.5477 12.7695 14.5477 13.9184V23.6196C14.5477 23.6646 14.5522 23.7084 14.5587 23.7516C13.776 25.6826 13.3438 27.7917 13.3438 30.0001C13.3438 32.1567 13.7493 34.2514 14.5477 36.2318V46.0819C14.5477 47.1807 16.3038 47.2307 16.3038 46.0819V36.4098C16.3038 34.2624 15.0998 33.3952 15.0998 30.0001C15.0998 21.7673 21.7978 15.0693 30.0307 15.0693C38.2635 15.0693 44.9615 21.7672 44.9615 30.0001C44.9615 38.2331 38.2639 44.9309 30.0311 44.9309C26.1963 44.9309 22.5513 43.4797 19.7679 40.8444C19.2157 40.3214 18.1848 40.7164 18.1848 41.482V53.766C18.1848 54.8648 19.9409 54.9148 19.9409 53.766V43.2911C20.542 43.7485 21.1701 44.1627 21.8215 44.5316V51.3661C21.8215 52.4649 23.5776 52.5149 23.5776 51.3661V45.3935C24.1901 45.6503 24.818 45.8701 25.4581 46.0519V56.3417C25.4581 57.4405 27.2142 57.4905 27.2142 56.3417V46.4497C27.8334 46.555 28.4612 46.625 29.0948 46.6602V59.0928C29.0948 60.1916 30.8509 60.2416 30.8509 59.0928V46.6667C31.5079 46.6347 32.1547 46.5637 32.79 46.4577V56.3416C32.79 57.4404 34.5461 57.4904 34.5461 56.3416V46.0661C35.1894 45.8851 35.817 45.666 36.4266 45.4121V51.366C36.4266 52.4648 38.1827 52.5148 38.1827 51.366V44.5559C38.838 44.1875 39.4663 43.7766 40.0632 43.3261V53.7659C40.0632 54.8647 41.8193 54.9147 41.8193 53.7659V41.7999C42.5091 41.1108 43.1383 40.3613 43.6999 39.561V46.0818C43.6999 47.1806 45.456 47.2306 45.456 46.0818V36.6324C45.456 36.5614 45.4466 36.4926 45.4307 36.4265C46.2597 34.4475 46.7185 32.2764 46.7185 30C46.7185 27.7236 46.2592 25.5526 45.4302 23.5736Z" fill="#0195FF"/>
<path d="M33.2276 23.1399C34.2624 22.7704 33.7188 21.0996 32.637 21.4861L26.3398 23.7351C25.9936 23.8586 25.757 24.1962 25.757 24.5619V32.9663C25.3134 32.7372 24.8109 32.607 24.2781 32.607C22.4943 32.607 21.043 34.0582 21.043 35.8421C21.043 37.6259 22.4942 39.0771 24.2781 39.0771C26.0619 39.0771 27.5131 37.6259 27.5131 35.8421V28.2112L35.1851 25.4713V29.5993C34.7415 29.3701 34.2389 29.24 33.7061 29.24C31.9223 29.24 30.471 30.6912 30.471 32.475C30.471 34.2589 31.9222 35.7101 33.7061 35.7101C35.4899 35.7101 36.9412 34.2589 36.9412 32.475V21.195C36.9412 20.0962 35.1851 20.0462 35.1851 21.195V23.6067L27.5131 26.3467V25.181L33.2276 23.1399ZM33.7062 33.9538C32.8907 33.9538 32.2272 33.2903 32.2272 32.4748C32.2272 31.6593 32.8907 30.9958 33.7062 30.9958C34.5217 30.9958 35.1852 31.6593 35.1852 32.4748C35.1852 33.2903 34.5217 33.9538 33.7062 33.9538ZM24.2782 37.321C23.4626 37.321 22.7992 36.6576 22.7992 35.8421C22.7992 35.0265 23.4626 34.3631 24.2782 34.3631C25.0937 34.3631 25.7572 35.0265 25.7572 35.8421C25.7572 36.6576 25.0936 37.321 24.2782 37.321Z" fill="#0195FF"/>
</g>
<defs>
<clipPath id="clip0_48_2174">
<rect width="60" height="60" fill="white"/>
</clipPath>
</defs>
</svg>
