<svg width="60" height="60" viewBox="0 0 60 60" fill="none" xmlns="http://www.w3.org/2000/svg">
<g clip-path="url(#clip0_48_1943)">
<path d="M39.6687 23.9721C38.7078 23.4178 37.5922 23.2689 36.5246 23.5537L34.2055 24.1748L32.0387 16.0877C31.5254 14.1834 29.5566 13.0467 27.6488 13.5553C27.6477 13.5553 27.6477 13.5553 27.6465 13.5553C25.741 14.0686 24.6043 16.0385 25.1141 17.9463L25.4211 19.0912L22.8746 20.7061C22.9109 20.3334 22.9309 19.9561 22.9309 19.574C22.9309 13.2518 17.7875 8.1084 11.4652 8.1084C5.1418 8.1084 -0.00390625 13.2518 -0.00390625 19.574C-0.00390625 23.201 1.68828 26.4389 4.325 28.5424C4.36953 28.5846 4.41875 28.6232 4.47148 28.6572C4.99531 29.0615 5.55547 29.4225 6.14609 29.7318C5.19219 31.3818 4.91211 33.3588 5.41016 35.2174L5.89531 37.0197C6.39219 38.8771 7.58867 40.4322 9.26445 41.4002C10.3824 42.0459 11.6211 42.3764 12.8738 42.3764C13.4984 42.3764 14.1266 42.2943 14.7441 42.1279L14.8602 42.0963L17.1043 50.4682C17.2344 50.9615 17.5496 51.374 17.9914 51.6307C18.2879 51.8029 18.616 51.8896 18.9488 51.8896C19.1152 51.8896 19.2816 51.8674 19.4469 51.8229L22.6121 50.9756C23.1066 50.8432 23.5191 50.5256 23.7758 50.0826C24.0312 49.6385 24.0992 49.1229 23.9668 48.6307L21.8117 40.5822L31.2828 40.9725L31.591 42.1209C31.8395 43.042 32.4336 43.8143 33.2645 44.2936C33.8187 44.6135 34.4328 44.7775 35.0527 44.7775C35.3633 44.7775 35.675 44.7365 35.9809 44.6545C36.9031 44.4084 37.6742 43.8143 38.1547 42.9834C38.634 42.1537 38.7617 41.1881 38.5156 40.2658L36.3488 32.1799L38.668 31.5564C39.7332 31.2717 40.625 30.5861 41.1793 29.6252C41.7336 28.6643 41.8824 27.5498 41.5977 26.4857C41.3164 25.4205 40.6309 24.5275 39.6687 23.9721ZM1.87344 19.574C1.87344 14.2865 6.17656 9.98574 11.4652 9.98574C16.7527 9.98574 21.0535 14.2877 21.0535 19.574C21.0535 21.8732 20.2391 23.9861 18.8855 25.6408C18.7754 22.7158 16.3625 20.3697 13.4117 20.3697H9.51523C6.56445 20.3697 4.15156 22.7158 4.04141 25.6396C2.68789 23.9861 1.87344 21.8732 1.87344 19.574ZM5.91289 27.3881V25.8494C5.91289 23.8631 7.52891 22.2471 9.51523 22.2471H13.4117C15.398 22.2471 17.0141 23.8631 17.0141 25.8494V27.3893C15.4461 28.5061 13.5324 29.1658 11.4652 29.1658C9.39687 29.1658 7.48203 28.5061 5.91289 27.3881ZM10.2031 39.776C8.96211 39.0588 8.07617 37.908 7.7082 36.5346L7.22305 34.7311C6.83398 33.2814 7.08476 31.7322 7.88984 30.4713C9.01601 30.8416 10.2172 31.0432 11.4664 31.0432C13.4469 31.0432 15.3125 30.5381 16.9391 29.6498L19.4281 38.9311L14.259 40.3162C12.8855 40.6854 11.4453 40.4932 10.2031 39.776ZM22.1516 49.1475C22.1434 49.1615 22.1328 49.1639 22.1281 49.165L18.9605 50.0123C18.957 50.0135 18.9465 50.0158 18.9336 50.0076C18.9219 50.0006 18.9207 49.9947 18.9184 49.9877L16.673 41.6111L19.9133 40.7428L22.1551 49.1182C22.1574 49.124 22.1598 49.1334 22.1516 49.1475ZM21.3055 38.6861L18.5879 28.5553C18.5891 28.5541 18.5902 28.5529 18.5914 28.5529C20.2895 27.2018 21.5973 25.3795 22.3156 23.2842L25.932 20.9908L30.7777 39.0764L21.3055 38.6861ZM36.5316 42.0482C36.3031 42.4443 35.9363 42.7268 35.4969 42.8439C34.5887 43.0889 33.6512 42.5463 33.4051 41.6369L32.9258 39.8463C32.9223 39.8311 32.9176 39.8158 32.9141 39.8006L27.4145 19.2729C27.4133 19.2705 27.4133 19.267 27.4121 19.2646L26.9281 17.4611C26.6855 16.5518 27.227 15.6119 28.1363 15.367C29.0457 15.1256 29.9832 15.6682 30.2281 16.574L32.634 25.5553C32.6352 25.5588 32.6352 25.5623 32.6363 25.5658C32.6375 25.5693 32.6387 25.5729 32.6398 25.5764L36.7051 40.7533C36.8223 41.1916 36.7613 41.651 36.5316 42.0482ZM39.5574 28.6889C39.2539 29.215 38.7664 29.5912 38.1852 29.7459L35.866 30.3693L34.6918 25.9877L37.0098 25.3666C37.5922 25.2107 38.2027 25.2928 38.7301 25.5975C39.2562 25.9021 39.6324 26.3896 39.7883 26.9721C39.943 27.5521 39.8621 28.1627 39.5574 28.6889ZM48.5469 23.6533L58.8184 20.8994C59.3199 20.7646 59.8332 21.0623 59.968 21.5627C60.1027 22.0631 59.8051 22.5775 59.3047 22.7123L49.0332 25.4662C48.9512 25.4885 48.8703 25.499 48.7895 25.499C48.3746 25.499 47.9961 25.2225 47.8836 24.8029C47.75 24.3025 48.0465 23.7881 48.5469 23.6533ZM59.968 35.692C59.8555 36.1115 59.477 36.3881 59.0621 36.3881C58.9812 36.3881 58.9004 36.3775 58.8184 36.3564L48.5469 33.6061C48.0465 33.4725 47.7488 32.9568 47.8836 32.4564C48.0172 31.9561 48.5328 31.6584 49.0332 31.7932L59.3047 34.5436C59.8051 34.6771 60.1016 35.1916 59.968 35.692ZM52.9051 10.6537L45.384 18.1748C45.2012 18.3576 44.9609 18.4502 44.7207 18.4502C44.4805 18.4502 44.2402 18.3588 44.0574 18.1748C43.6906 17.808 43.6906 17.2139 44.0574 16.8482L51.5785 9.32715C51.9453 8.96035 52.5395 8.96035 52.9051 9.32715C53.2719 9.69394 53.2719 10.2881 52.9051 10.6537ZM11.4652 20.2561C13.7504 20.2561 15.609 18.3975 15.609 16.1123C15.609 13.8271 13.7504 11.9686 11.4652 11.9686C9.18008 11.9686 7.32148 13.8271 7.32148 16.1123C7.32148 18.3975 9.18125 20.2561 11.4652 20.2561ZM11.4652 13.8459C12.7156 13.8459 13.7328 14.8631 13.7328 16.1135C13.7328 17.3639 12.7156 18.3811 11.4652 18.3811C10.2148 18.3811 9.19766 17.3639 9.19766 16.1135C9.19766 14.8631 10.216 13.8459 11.4652 13.8459Z" fill="white"/>
</g>
<defs>
<clipPath id="clip0_48_1943">
<rect width="60" height="60" fill="white"/>
</clipPath>
</defs>
</svg>
