<svg width="60" height="60" viewBox="0 0 60 60" fill="none" xmlns="http://www.w3.org/2000/svg">
<g clip-path="url(#clip0_48_1910)">
<path d="M58.4618 25.3188L54.2575 23.7005C53.9277 22.4286 53.495 21.1772 52.969 19.9737C52.8604 19.7251 52.6493 19.5357 52.3904 19.4545C52.1316 19.3737 51.8503 19.4082 51.6191 19.5504L46.9859 22.3977C46.5997 22.6349 46.4386 23.1145 46.6031 23.5369C47.4056 25.5959 47.8125 27.7705 47.8125 30.0001C47.8125 39.8218 39.8218 47.8125 30 47.8125C20.1782 47.8125 12.1875 39.8218 12.1875 30.0001C12.1875 27.7705 12.5944 25.5959 13.3968 23.537C13.5613 23.1146 13.4002 22.6351 13.014 22.3978L8.38148 19.5509C8.15027 19.4087 7.86891 19.3739 7.61016 19.455C7.35129 19.5361 7.14035 19.7256 7.0316 19.9741C6.50543 21.1778 6.07289 22.429 5.74312 23.7004L1.53797 25.3189C1.17633 25.4582 0.9375 25.806 0.9375 26.1939V33.8064C0.9375 34.1943 1.17633 34.542 1.5382 34.6813L5.74242 36.2996C6.32449 38.5461 7.21465 40.6935 8.39391 42.696L6.56414 46.8156C6.40664 47.17 6.48375 47.5847 6.75797 47.859L12.141 53.242C12.4152 53.5163 12.8302 53.5931 13.1844 53.4359L17.3058 51.6055C19.3087 52.7848 21.4557 53.6748 23.7 54.2564L25.3187 58.4619C25.4579 58.8238 25.8057 59.0626 26.1936 59.0626H33.8061C34.194 59.0626 34.5417 58.8238 34.6811 58.4619L36.2993 54.2577C38.5453 53.6759 40.6927 52.7856 42.6956 51.6061L46.8154 53.4359C47.1697 53.5934 47.5846 53.5163 47.8588 53.242L53.2417 47.859C53.5159 47.5847 53.593 47.17 53.4356 46.8156L51.6052 42.6943C52.7845 40.6911 53.6746 38.5446 54.2562 36.3L58.4616 34.6813C58.8236 34.5421 59.0623 34.1943 59.0623 33.8064V26.1939C59.0625 25.8059 58.8237 25.458 58.4618 25.3188ZM57.1875 33.1624L53.1274 34.7252C52.839 34.8362 52.6238 35.0824 52.5521 35.3831C51.9843 37.7694 51.0422 40.0419 49.7521 42.1372C49.59 42.4004 49.5681 42.7267 49.6936 43.0092L51.4608 46.9882L46.9882 51.4608L43.0107 49.6942C42.7281 49.5686 42.402 49.5906 42.1386 49.7528C40.0439 51.0429 37.7709 51.9852 35.3829 52.5533C35.0822 52.6248 34.836 52.84 34.725 53.1285L33.1627 57.1875H26.8375L25.2748 53.1274C25.1638 52.8389 24.9177 52.6238 24.6169 52.5523C22.2306 51.9843 19.9582 51.0422 17.8629 49.7521C17.5997 49.59 17.2734 49.5681 16.9909 49.6936L13.0118 51.4608L8.5391 46.9882L10.3057 43.0107C10.4312 42.7282 10.4093 42.402 10.2471 42.1386C8.95734 40.0444 8.01504 37.7714 7.44656 35.3828C7.37496 35.0822 7.1598 34.836 6.87129 34.725L2.8125 33.1625V26.8375L6.87211 25.2748C7.16051 25.1638 7.37578 24.9176 7.44738 24.6169C7.68035 23.6379 7.97953 22.6695 8.34012 21.726L11.3791 23.5937C10.671 25.6498 10.3125 27.801 10.3125 30.0001C10.3125 40.8558 19.1442 49.6875 30 49.6875C40.8558 49.6875 49.6875 40.8558 49.6875 30.0001C49.6875 27.801 49.329 25.6498 48.6209 23.5937L51.6606 21.7257C52.0211 22.6692 52.3202 23.6378 52.5533 24.6172C52.6248 24.9179 52.8401 25.1641 53.1286 25.2751L57.1875 26.8375V33.1624ZM18.025 38.9872C17.9967 39.2518 18.082 39.5159 18.2598 39.7137C18.4376 39.9115 18.6911 40.0245 18.9571 40.0245L41.0427 40.0243C41.3087 40.0243 41.5622 39.9114 41.74 39.7136C41.9177 39.5157 42.0032 39.2516 41.9748 38.9871C41.4615 34.1916 38.1974 30.319 33.8448 28.8614C35.4843 27.6691 36.553 25.7373 36.553 23.5595C36.553 19.9461 33.6132 17.0064 29.9999 17.0064C26.3865 17.0064 23.4468 19.9461 23.4468 23.5595C23.4468 25.7372 24.5155 27.6691 26.155 28.8614C21.8025 30.3191 18.5381 34.1917 18.025 38.9872ZM25.3219 23.5596C25.3219 20.9801 27.4205 18.8815 30 18.8815C32.5795 18.8815 34.6781 20.9801 34.6781 23.5596C34.6781 26.1382 32.5812 28.2361 30.003 28.2377C30.002 28.2377 30.0009 28.2377 30 28.2377C29.9991 28.2377 29.9979 28.2377 29.997 28.2377C27.4188 28.2361 25.3219 26.1382 25.3219 23.5596ZM29.9977 30.1127H30.0001C30.0001 30.1127 30.0018 30.1127 30.0026 30.1127C34.8573 30.1139 38.9618 33.5019 39.9459 38.1495L20.0541 38.1496C21.0383 33.502 25.1428 30.1139 29.9977 30.1127ZM23.1496 7.55543L26.0137 9.8577L25.0498 13.4036C24.9134 13.905 25.0969 14.4265 25.5173 14.732C25.9377 15.0374 26.4904 15.0511 26.9255 14.7664L30 12.7536L33.0746 14.7664C33.2832 14.9029 33.5189 14.9708 33.754 14.9708C34.0091 14.9708 34.2638 14.8908 34.4825 14.7319C34.9029 14.4264 35.0864 13.9049 34.9501 13.4036L33.986 9.85758L36.8502 7.55531C37.2553 7.22977 37.4133 6.69996 37.2526 6.20566C37.092 5.71137 36.6527 5.37563 36.1338 5.35043L32.4635 5.17148L31.1592 1.73637C30.9751 1.25109 30.5201 0.9375 30 0.9375C29.4799 0.9375 29.0249 1.25109 28.8408 1.73613L27.5365 5.17148L23.8662 5.35043C23.347 5.37563 22.9079 5.71125 22.7473 6.20555C22.5866 6.69984 22.7445 7.22965 23.1496 7.55543ZM28.0426 7.02398C28.5352 7.0002 28.9665 6.68695 29.1417 6.2257L30 3.96539L30.8582 6.22559C31.0331 6.68684 31.4646 7.0002 31.957 7.02398L34.3719 7.14176L32.4873 8.65664C32.1033 8.96543 31.9385 9.47238 32.0678 9.94828L32.7021 12.2814L30.679 10.957C30.2664 10.6871 29.7335 10.687 29.3209 10.9571L27.298 12.2815L27.9323 9.94852C28.0617 9.4725 27.897 8.96543 27.5126 8.65664L25.6281 7.14188L28.0426 7.02398ZM38.5978 17.0541L42.195 17.8049L42.9459 21.4022C43.0521 21.9108 43.4524 22.292 43.9656 22.3733C44.0323 22.3839 44.0987 22.389 44.1643 22.389C44.6043 22.389 45.011 22.1572 45.2358 21.7648L47.0614 18.5757L50.7147 18.9732C51.2309 19.0289 51.7177 18.7664 51.9537 18.3033C52.1896 17.8402 52.1163 17.2922 51.7672 16.9075L49.2984 14.1855L50.8054 10.834C51.0182 10.3608 50.9181 9.81738 50.5505 9.44965C50.1827 9.08203 49.6393 8.98172 49.166 9.19465L45.8145 10.7016L43.0925 8.23266C42.7077 7.88355 42.1598 7.81031 41.6966 8.04633C41.2335 8.28234 40.9706 8.76867 41.0269 9.28523L41.4244 12.9383L38.2354 14.7641C37.7843 15.0223 37.5455 15.5208 37.6267 16.0341C37.7078 16.5475 38.089 16.9478 38.5978 17.0541ZM42.7167 14.3591C43.1445 14.1141 43.3864 13.6391 43.3332 13.149L43.0717 10.7453L44.8625 12.3697C45.2275 12.7008 45.754 12.7845 46.2041 12.5821L48.4092 11.5905L47.4175 13.7962C47.2154 14.2461 47.2991 14.7727 47.6302 15.1372L49.2546 16.9281L46.8516 16.6668C46.3614 16.6118 45.8861 16.8547 45.6407 17.2833L44.4395 19.3815L43.9454 17.0146C43.8446 16.5322 43.4679 16.1554 42.9851 16.0543L40.6182 15.5603L42.7167 14.3591ZM9.28535 18.9732L12.9386 18.5757L14.7642 21.7646C14.9889 22.1572 15.3955 22.3891 15.8357 22.389C15.9013 22.389 15.9676 22.3839 16.0343 22.3733C16.5477 22.2921 16.948 21.9108 17.0542 21.4021L17.8051 17.805L21.4023 17.0541C21.911 16.9479 22.2922 16.5476 22.3736 16.0343C22.4549 15.521 22.2161 15.0225 21.765 14.7642L18.576 12.9384L18.9735 9.28535C19.0296 8.76879 18.7668 8.28234 18.3038 8.04645C17.8407 7.81055 17.2928 7.88367 16.9077 8.23277L14.1859 10.7017L10.8343 9.19477C10.3609 8.98195 9.8175 9.08215 9.44988 9.44977C9.08215 9.81762 8.98219 10.361 9.195 10.8341L10.7019 14.1857L8.23324 16.9075C7.88402 17.2923 7.81078 17.8403 8.04668 18.3034C8.28246 18.7665 8.76914 19.03 9.28535 18.9732ZM12.3694 15.1378C12.701 14.7728 12.7846 14.246 12.5823 13.796L11.5908 11.5908L13.7962 12.5825C14.246 12.7846 14.7724 12.701 15.1376 12.37L16.9284 10.7455L16.6669 13.1494C16.6136 13.6399 16.8559 14.1149 17.2835 14.3593L19.3819 15.5606L17.0155 16.0547C16.5322 16.1552 16.1551 16.5325 16.0546 17.0152L15.5605 19.3819L14.3591 17.2833C14.1364 16.8948 13.7244 16.6597 13.2841 16.6597C13.2394 16.6597 13.1943 16.6622 13.1491 16.667L10.7454 16.9284L12.3694 15.1378Z" fill="white"/>
</g>
<defs>
<clipPath id="clip0_48_1910">
<rect width="60" height="60" fill="white"/>
</clipPath>
</defs>
</svg>
