<svg width="60" height="60" viewBox="0 0 60 60" fill="none" xmlns="http://www.w3.org/2000/svg">
<g clip-path="url(#clip0_48_1912)">
<path d="M43.7109 22.1987H50.4343" stroke="white" stroke-width="2" stroke-miterlimit="10" stroke-linecap="round" stroke-linejoin="round"/>
<path d="M43.7109 26.522H52.5391" stroke="white" stroke-width="2" stroke-miterlimit="10" stroke-linecap="round" stroke-linejoin="round"/>
<path d="M43.7109 30.3125H52.5391" stroke="white" stroke-width="2" stroke-miterlimit="10" stroke-linecap="round" stroke-linejoin="round"/>
<path d="M37.6055 37.6954V28.5874C37.6055 27.8108 36.9758 27.1812 36.1992 27.1812H8.77734C8.00074 27.1812 7.37109 27.8108 7.37109 28.5874V40.5405C7.37109 41.3171 8.00074 41.9468 8.77734 41.9468H35.495" stroke="white" stroke-width="2" stroke-miterlimit="10" stroke-linecap="round" stroke-linejoin="round"/>
<path d="M28.4492 30.9321L30.7693 34.4853L33.0703 30.9505" stroke="white" stroke-width="2" stroke-miterlimit="10" stroke-linecap="round" stroke-linejoin="round"/>
<path d="M30.7617 38.1955L30.7707 34.4854" stroke="white" stroke-width="2" stroke-miterlimit="10" stroke-linecap="round" stroke-linejoin="round"/>
<path d="M19.957 30.9322V35.9302C19.957 36.7813 20.3793 37.3544 21.0964 37.8126C21.4458 38.0358 21.887 38.1947 22.4352 38.1954C22.91 38.1961 23.3068 38.0861 23.6351 37.9208C24.471 37.4999 25.0039 36.8606 25.0039 35.9248V30.9321" stroke="white" stroke-width="2" stroke-miterlimit="10" stroke-linecap="round" stroke-linejoin="round"/>
<path d="M11.9884 34.2767C12.3531 34.2767 13.8316 34.2767 14.3845 34.2767C15.4643 34.2767 16.3396 35.1519 16.3396 36.2317C16.3396 37.3115 15.4643 38.1867 14.3845 38.1867C13.9104 38.1867 11.9062 38.1948 11.9062 38.1948V30.9321C12.1533 30.9321 13.5261 30.9321 14.0161 30.9321C14.9391 30.9321 15.6874 31.6804 15.6874 32.6035C15.6874 33.5264 14.9392 34.2748 14.0161 34.2748C13.6196 34.2748 12.3275 34.2803 11.9884 34.2818" stroke="white" stroke-width="2" stroke-miterlimit="10" stroke-linecap="round" stroke-linejoin="round"/>
<path d="M46.4866 46.6538L42.9926 43.1599C42.8635 43.0307 42.8635 42.8213 42.9926 42.6922L45.044 40.6408C45.2529 40.4319 45.1606 40.0754 44.8765 39.9943L35.289 37.2547C34.8756 37.1365 34.4935 37.5187 34.6116 37.932L37.3512 47.5196C37.4324 47.8037 37.7889 47.896 37.9977 47.6872L40.049 45.6358C40.1781 45.5067 40.3875 45.5067 40.5167 45.6358L44.0106 49.1298C44.3982 49.5173 45.0264 49.5173 45.414 49.1298L46.4866 48.0571C46.8741 47.6696 46.8741 47.0414 46.4866 46.6538Z" stroke="white" stroke-width="2" stroke-miterlimit="10" stroke-linecap="round" stroke-linejoin="round"/>
<path d="M58.8674 17.498H1.15234" stroke="white" stroke-width="2" stroke-miterlimit="10" stroke-linecap="round" stroke-linejoin="round"/>
<path d="M0.878906 40.5079V9.375C0.878906 8.21004 1.82332 7.26562 2.98828 7.26562H49.6615" stroke="white" stroke-width="2" stroke-miterlimit="10" stroke-linecap="round" stroke-linejoin="round"/>
<path d="M53.8281 7.26562H57.0117C58.1767 7.26562 59.1211 8.21004 59.1211 9.375V50.625C59.1211 51.79 58.1767 52.7344 57.0117 52.7344H2.98828C1.82332 52.7344 0.878906 51.79 0.878906 50.625V44.6224" stroke="white" stroke-width="2" stroke-miterlimit="10" stroke-linecap="round" stroke-linejoin="round"/>
<path d="M7.37109 14.1396C8.34191 14.1396 9.12891 13.3526 9.12891 12.3818C9.12891 11.411 8.34191 10.624 7.37109 10.624C6.40028 10.624 5.61328 11.411 5.61328 12.3818C5.61328 13.3526 6.40028 14.1396 7.37109 14.1396Z" stroke="white" stroke-width="2" stroke-miterlimit="10" stroke-linecap="round" stroke-linejoin="round"/>
<path d="M14.6953 14.1396C15.6661 14.1396 16.4531 13.3526 16.4531 12.3818C16.4531 11.411 15.6661 10.624 14.6953 10.624C13.7245 10.624 12.9375 11.411 12.9375 12.3818C12.9375 13.3526 13.7245 14.1396 14.6953 14.1396Z" stroke="white" stroke-width="2" stroke-miterlimit="10" stroke-linecap="round" stroke-linejoin="round"/>
<path d="M22.0195 14.1396C22.9903 14.1396 23.7773 13.3526 23.7773 12.3818C23.7773 11.411 22.9903 10.624 22.0195 10.624C21.0487 10.624 20.2617 11.411 20.2617 12.3818C20.2617 13.3526 21.0487 14.1396 22.0195 14.1396Z" stroke="white" stroke-width="2" stroke-miterlimit="10" stroke-linecap="round" stroke-linejoin="round"/>
</g>
<defs>
<clipPath id="clip0_48_1912">
<rect width="60" height="60" fill="white"/>
</clipPath>
</defs>
</svg>
