<svg width="95" height="95" viewBox="0 0 95 95" fill="none" xmlns="http://www.w3.org/2000/svg">
<circle cx="47.5" cy="47.5" r="47.5" fill="#CB1F45"/>
<g clip-path="url(#clip0_23_1687)">
<path d="M47 59.6536C46.4606 59.6536 46.0234 60.0908 46.0234 60.6302C46.0234 60.6315 46.0234 60.6328 46.0234 60.6341C46.0234 60.6354 46.0234 60.6367 46.0234 60.638V60.6458C46.0234 61.1852 46.4606 61.6224 47 61.6224C47.5394 61.6224 47.9766 61.1852 47.9766 60.6458C47.9766 60.6444 47.9766 60.6433 47.9766 60.6419C47.9766 60.6405 47.9766 60.6394 47.9766 60.638C47.9766 60.6366 47.9766 60.6354 47.9766 60.6341C47.9766 60.6328 47.9766 60.6315 47.9766 60.6302C47.9766 60.0908 47.5394 59.6536 47 59.6536Z" fill="white"/>
<path d="M62.4297 23H31.5703C26.2932 23 22 27.2932 22 32.5703V63.4297C22 68.7068 26.2932 73 31.5703 73H47C47.5394 73 47.9766 72.5628 47.9766 72.0234V64.4551C47.9766 63.9157 47.5394 63.4785 47 63.4785C46.4606 63.4785 46.0234 63.9157 46.0234 64.4551V71.0469H31.5703C27.3702 71.0469 23.9531 67.6298 23.9531 63.4297V32.5703C23.9531 28.3702 27.3702 24.9531 31.5703 24.9531H62.4297C66.6298 24.9531 70.0469 28.3702 70.0469 32.5703V63.4297C70.0469 67.6298 66.6298 71.0469 62.4297 71.0469H56.1797V53.8106H61.8419C62.3435 53.8106 62.7634 53.4308 62.8136 52.9318L63.5158 45.9538C63.5435 45.6791 63.4536 45.4057 63.2685 45.201C63.0833 44.9963 62.8201 44.8795 62.5441 44.8795H56.1797V41.2153C56.1797 40.5521 56.3909 40.3056 56.9591 40.3056H62.5003C63.0396 40.3056 63.4769 39.8684 63.4769 39.329V32.5263C63.4769 31.9869 63.0396 31.5497 62.5003 31.5497H55.2232C51.0999 31.5497 48.9132 33.3608 47.8049 34.8802C46.2548 37.005 46.0233 39.5144 46.0233 40.821V44.9232H41.2382C40.6988 44.9232 40.2616 45.3604 40.2616 45.8998V52.834C40.2616 53.3733 40.6988 53.8105 41.2382 53.8105H46.0233V56.5938C46.0233 57.1331 46.4605 57.5703 46.9999 57.5703C47.5393 57.5703 47.9765 57.1331 47.9765 56.5938V52.834C47.9765 52.2946 47.5393 51.8574 46.9999 51.8574H42.2147V46.8763H46.9999C47.5393 46.8763 47.9765 46.4391 47.9765 45.8997V40.8209C47.9765 38.6205 48.6826 33.5027 55.2232 33.5027H61.5237V38.3523H56.9591C55.6985 38.3523 54.2266 39.1021 54.2266 41.2152V45.856C54.2266 46.3953 54.6638 46.8325 55.2031 46.8325H61.4644L60.9587 51.8574H55.2031C54.6638 51.8574 54.2266 52.2946 54.2266 52.834V72.0234C54.2266 72.5628 54.6638 73 55.2031 73H62.4297C67.7068 73 72 68.7068 72 63.4297V32.5703C72 27.2932 67.7068 23 62.4297 23Z" fill="white"/>
<path d="M27.6641 33.0098C27.1247 33.0098 26.6875 33.447 26.6875 33.9863V42.1406C26.6875 42.68 27.1247 43.1172 27.6641 43.1172C28.2034 43.1172 28.6406 42.68 28.6406 42.1406V33.9863C28.6406 33.447 28.2034 33.0098 27.6641 33.0098Z" fill="white"/>
<path d="M27.6641 45.4006C27.1247 45.4006 26.6875 45.8378 26.6875 46.3771V46.3887C26.6875 46.928 27.1247 47.3652 27.6641 47.3652C28.2034 47.3652 28.6406 46.928 28.6406 46.3887V46.3771C28.6406 45.8378 28.2034 45.4006 27.6641 45.4006Z" fill="white"/>
</g>
<defs>
<clipPath id="clip0_23_1687">
<rect width="50" height="50" fill="white" transform="translate(22 23)"/>
</clipPath>
</defs>
</svg>
