<svg width="65" height="65" viewBox="0 0 65 65" fill="none" xmlns="http://www.w3.org/2000/svg">
<g clip-path="url(#clip0_23_1458)">
<path d="M53.6661 35.7546C52.7489 35.9558 51.7958 36.0619 50.8182 36.0619C43.5116 36.0619 37.5884 30.1388 37.5884 22.8321C37.5884 15.5255 43.5115 9.60236 50.8182 9.60236C58.1248 9.60236 64.048 15.5255 64.048 22.8321C64.048 27.7056 61.4129 31.9635 57.4898 34.2589" stroke="white" stroke-width="2" stroke-miterlimit="10" stroke-linecap="round" stroke-linejoin="round"/>
<path d="M50.8505 40.1325H50.7855C49.6794 40.1325 48.7827 41.0292 48.7827 42.1353V55.4301C48.7827 56.5362 49.6794 57.4329 50.7855 57.4329H50.8505C51.9567 57.4329 52.8533 56.5362 52.8533 55.4301V42.1353C52.8535 41.0292 51.9567 40.1325 50.8505 40.1325Z" stroke="white" stroke-width="2" stroke-miterlimit="10" stroke-linecap="round" stroke-linejoin="round"/>
<path d="M50.8179 36.4834V40.1026" stroke="white" stroke-width="2" stroke-miterlimit="10" stroke-linecap="round" stroke-linejoin="round"/>
<path d="M48.7827 44.2031H52.8535" stroke="white" stroke-width="2" stroke-miterlimit="10" stroke-linecap="round" stroke-linejoin="round"/>
<path d="M39.6235 9.60233C39.6235 8.47829 38.7122 7.56702 37.5882 7.56702H35.5529C34.4288 7.56702 33.5176 8.47829 33.5176 9.60233V45.2209" stroke="white" stroke-width="2" stroke-miterlimit="10" stroke-linecap="round" stroke-linejoin="round"/>
<path d="M39.6235 45.2209V36.0618" stroke="white" stroke-width="2" stroke-miterlimit="10" stroke-linecap="round" stroke-linejoin="round"/>
<path d="M29.4472 45.2209V17.7437C29.4472 16.6196 28.536 15.7084 27.4119 15.7084H25.3766C24.2526 15.7084 23.3413 16.6196 23.3413 17.7437V45.2208" stroke="white" stroke-width="2" stroke-miterlimit="10" stroke-linecap="round" stroke-linejoin="round"/>
<path d="M19.27 45.221V25.8851C19.27 24.7611 18.3587 23.8498 17.2347 23.8498H15.1994C14.0753 23.8498 13.1641 24.7611 13.1641 25.8851V45.2208" stroke="white" stroke-width="2" stroke-miterlimit="10" stroke-linecap="round" stroke-linejoin="round"/>
<path d="M9.09373 45.2209V34.0266C9.09373 32.9025 8.18246 31.9913 7.05842 31.9913H5.02311C3.89906 31.9913 2.98779 32.9025 2.98779 34.0266V45.2209" stroke="white" stroke-width="2" stroke-miterlimit="10" stroke-linecap="round" stroke-linejoin="round"/>
<path d="M44.7121 45.2209H0.952148" stroke="white" stroke-width="2" stroke-miterlimit="10" stroke-linecap="round" stroke-linejoin="round"/>
<path d="M53.3711 17.4325C53.3711 17.4325 51.9675 16.138 49.8041 16.7896C47.8175 17.3881 47.3242 20.1062 48.6742 21.165C49.4494 21.7729 50.6157 22.2727 52.1875 22.8284C55.7056 24.0719 54.405 29.0334 50.8264 29.0572C49.43 29.0665 48.777 28.9779 47.5503 28.1754" stroke="white" stroke-width="2" stroke-miterlimit="10" stroke-linecap="round" stroke-linejoin="round"/>
<path d="M50.8135 14.6907V30.9735" stroke="white" stroke-width="2" stroke-miterlimit="10" stroke-linecap="round" stroke-linejoin="round"/>
</g>
<defs>
<clipPath id="clip0_23_1458">
<rect width="65" height="65" fill="white"/>
</clipPath>
</defs>
</svg>
