<svg width="65" height="65" viewBox="0 0 65 65" fill="none" xmlns="http://www.w3.org/2000/svg">
<path d="M28.2201 33.8681C27.9867 33.7334 27.7094 33.6969 27.4491 33.7667C27.1889 33.8365 26.967 34.0069 26.8323 34.2403C26.6976 34.4737 26.6612 34.751 26.731 35.0113C26.8008 35.2716 26.9711 35.4935 27.2045 35.6281L32.4858 38.675C32.7192 38.8097 32.9965 38.8461 33.2568 38.7763C33.5171 38.7065 33.7389 38.5362 33.8736 38.3028C34.0083 38.0694 34.0448 37.792 33.9749 37.5318C33.9051 37.2715 33.7348 37.0496 33.5014 36.9149L28.2201 33.8681Z" fill="white"/>
<path d="M35.5288 34.4124C35.7244 34.4123 35.9158 34.3557 36.08 34.2494C36.2442 34.1432 36.3742 33.9918 36.4544 33.8134C36.5347 33.635 36.5617 33.4373 36.5322 33.2439C36.5028 33.0506 36.4182 32.8698 36.2885 32.7234L32.0229 27.9175C31.9344 27.8175 31.827 27.7358 31.707 27.6773C31.587 27.6187 31.4566 27.5844 31.3233 27.5762C31.19 27.5681 31.0564 27.5863 30.9301 27.6297C30.8038 27.6732 30.6873 27.7411 30.5873 27.8296C30.4873 27.9181 30.4056 28.0255 30.3471 28.1455C30.2885 28.2655 30.2542 28.3959 30.246 28.5292C30.2379 28.6625 30.2561 28.7961 30.2995 28.9224C30.343 29.0487 30.4109 29.1652 30.4994 29.2652L34.7651 34.0712C34.8608 34.179 34.9785 34.2652 35.1102 34.3241C35.2419 34.3829 35.3846 34.413 35.5288 34.4124Z" fill="white"/>
<path d="M23.1635 40.7022C23.1098 40.9659 23.163 41.2401 23.3113 41.4646C23.4597 41.6891 23.691 41.8456 23.9546 41.8996L30.2515 43.1874C30.3835 43.2177 30.5202 43.2213 30.6536 43.1979C30.7871 43.1746 30.9144 43.1248 31.0283 43.0515C31.1422 42.9782 31.2403 42.8829 31.3168 42.7711C31.3932 42.6593 31.4466 42.5334 31.4737 42.4007C31.5008 42.268 31.5011 42.1312 31.4745 41.9984C31.448 41.8656 31.3951 41.7395 31.3191 41.6274C31.2431 41.5153 31.1454 41.4196 31.0318 41.3458C30.9183 41.272 30.7911 41.2217 30.6578 41.1978L24.3609 39.91C24.0971 39.8564 23.8227 39.9097 23.5982 40.0582C23.3737 40.2068 23.2173 40.4384 23.1635 40.7022Z" fill="white"/>
<path d="M59.4141 44.8409L50.7264 39.8257L42.6562 32.0237V27.6616C44.865 28.5267 47.2919 28.6658 49.585 28.0585C51.8781 27.4513 53.9181 26.1294 55.4092 24.2845C56.9003 22.4396 57.7649 20.1676 57.8776 17.7982C57.9903 15.4287 57.3453 13.085 56.0361 11.1069C55.8873 10.8822 55.6553 10.7259 55.3912 10.6723C55.1271 10.6187 54.8526 10.6722 54.6279 10.821C54.4033 10.9698 54.247 11.2018 54.1933 11.4658C54.1397 11.7299 54.1932 12.0045 54.342 12.2291C55.5917 14.1203 56.0945 16.4081 55.7532 18.649C55.4118 20.8899 54.2506 22.9243 52.4945 24.3576C50.7385 25.7909 48.5127 26.5211 46.2489 26.4067C43.985 26.2922 41.8443 25.3412 40.2418 23.738C38.6393 22.1349 37.6891 19.9938 37.5756 17.7299C37.462 15.466 38.1931 13.2406 39.6271 11.4851C41.0611 9.72962 43.0959 8.56914 45.3369 8.22866C47.5779 7.88819 49.8656 8.39197 51.7562 9.64234C51.8673 9.72282 51.9935 9.77997 52.1272 9.81036C52.261 9.84074 52.3995 9.84372 52.5344 9.81912C52.6693 9.79452 52.7979 9.74285 52.9123 9.66723C53.0267 9.5916 53.1246 9.49359 53.2001 9.3791C53.2756 9.26461 53.3271 9.13602 53.3516 9.00107C53.376 8.86613 53.3729 8.72763 53.3424 8.59392C53.3119 8.46022 53.2546 8.33408 53.174 8.22312C53.0934 8.11215 52.9911 8.01866 52.8734 7.94828C51.3833 6.95857 49.6761 6.34363 47.8971 6.15584C46.1182 5.96804 44.3202 6.21294 42.6562 6.86969V3.04688C42.6562 2.77751 42.5492 2.51919 42.3588 2.32872C42.1683 2.13825 41.91 2.03125 41.6406 2.03125H3.04688C2.77751 2.03125 2.51919 2.13825 2.32872 2.32872C2.13825 2.51919 2.03125 2.77751 2.03125 3.04688V41.6406C2.03125 41.91 2.13825 42.1683 2.32872 42.3588C2.51919 42.5492 2.77751 42.6562 3.04688 42.6562C3.31624 42.6562 3.57456 42.5492 3.76503 42.3588C3.9555 42.1683 4.0625 41.91 4.0625 41.6406V4.0625H40.625V7.91375C39.0663 8.9259 37.7853 10.3116 36.8985 11.9449C36.0116 13.5781 35.5471 15.4071 35.5471 17.2656C35.5471 19.1241 36.0116 20.9531 36.8985 22.5864C37.7853 24.2197 39.0663 25.6054 40.625 26.6175V31.0243C40.4491 31.1061 40.3009 31.2374 40.1984 31.4021L31.0578 47.2347C30.9807 47.3683 30.9351 47.5178 30.9244 47.6717C30.9137 47.8256 30.9382 47.9799 30.9961 48.123C31.0539 48.266 31.1436 48.394 31.2583 48.4972C31.373 48.6003 31.5097 48.6761 31.658 48.7185L35.4159 49.7941C35.5441 49.8308 35.6783 49.8419 35.8109 49.8268C35.9434 49.8117 36.0717 49.7706 36.1883 49.7059C36.305 49.6412 36.4078 49.5542 36.4908 49.4497C36.5738 49.3453 36.6354 49.2256 36.6722 49.0973C36.7089 48.9691 36.7201 48.8349 36.7049 48.7023C36.6898 48.5698 36.6487 48.4415 36.584 48.3249C36.5193 48.2082 36.4323 48.1054 36.3279 48.0224C36.2235 47.9394 36.1037 47.8778 35.9755 47.841L33.4679 47.125L41.3075 33.5471L48.8333 40.8241L43.5327 50.0043L39.8958 48.9643C39.6368 48.8901 39.3589 48.9218 39.1233 49.0525C38.8877 49.1831 38.7137 49.402 38.6395 49.661C38.5652 49.92 38.597 50.1979 38.7276 50.4335C38.8583 50.6691 39.0772 50.8431 39.3362 50.9173L40.625 51.2891V52.8125H4.0625V45.7031C4.0625 45.4338 3.9555 45.1754 3.76503 44.985C3.57456 44.7945 3.31624 44.6875 3.04688 44.6875C2.77751 44.6875 2.51919 44.7945 2.32872 44.985C2.13825 45.1754 2.03125 45.4338 2.03125 45.7031V53.8281C2.03125 54.0975 2.13825 54.3558 2.32872 54.5463C2.51919 54.7367 2.77751 54.8438 3.04688 54.8438H41.6406C41.91 54.8438 42.1683 54.7367 42.3588 54.5463C42.5492 54.3558 42.6562 54.0975 42.6562 53.8281V51.8649L43.616 52.1391L44.9648 52.9181L40.6199 57.0121C40.2819 57.3204 40.0085 57.6929 39.8159 58.1079C39.6232 58.5229 39.5151 58.9721 39.4978 59.4293C39.4804 59.8865 39.5543 60.3426 39.715 60.771C39.8757 61.1994 40.1201 61.5915 40.4339 61.9245C40.7477 62.2575 41.1246 62.5247 41.5427 62.7106C41.9608 62.8964 42.4117 62.9972 42.8691 63.0071C43.3266 63.0169 43.7814 62.9356 44.2071 62.7679C44.6328 62.6002 45.0208 62.3495 45.3487 62.0303L51.1987 56.5175L52.3037 57.1553C53.1123 57.6221 54.0049 57.9251 54.9305 58.0469C55.8562 58.1688 56.7968 58.1071 57.6986 57.8654C58.6005 57.6238 59.4459 57.2068 60.1866 56.6385C60.9273 56.0701 61.5488 55.3614 62.0156 54.5528C62.4824 53.7442 62.7854 52.8516 62.9072 51.9259C63.0291 51.0003 62.9674 50.0596 62.7257 49.1578C62.4841 48.256 62.0671 47.4106 61.4987 46.6699C60.9303 45.9292 60.2226 45.3077 59.4141 44.8409ZM52.4408 54.8874L45.4045 50.8249L46.4202 49.0659L53.4564 53.1284L52.4408 54.8874ZM56.5033 47.8512L51.8517 45.1659C51.6186 45.0333 51.3425 44.9983 51.0836 45.0686C50.8248 45.1389 50.6043 45.3087 50.4702 45.5409C50.3361 45.7732 50.2993 46.0491 50.3679 46.3084C50.4364 46.5676 50.6047 46.7893 50.8361 46.9249L55.4877 49.6112L54.472 51.3703L47.4358 47.3078L50.4827 42.0266L57.5189 46.0891L56.5033 47.8512ZM43.9562 60.5516C43.8249 60.6982 43.6646 60.8159 43.4854 60.8974C43.3062 60.9788 43.1121 61.0222 42.9153 61.0247C42.7185 61.0272 42.5233 60.9888 42.3421 60.912C42.1609 60.8352 41.9976 60.7216 41.8626 60.5783C41.7275 60.4351 41.6237 60.2655 41.5577 60.08C41.4916 59.8946 41.4648 59.6975 41.4789 59.5012C41.4929 59.3049 41.5476 59.1136 41.6395 58.9395C41.7313 58.7654 41.8583 58.6123 42.0123 58.4898L46.801 53.9784L49.3594 55.4531L43.9562 60.5516ZM60.256 53.5366C59.6709 54.5502 58.7535 55.3306 57.6592 55.7457C56.5649 56.1608 55.3608 56.1852 54.2506 55.8147L55.7223 53.2655L59.2262 47.1981C60.1005 47.9751 60.6803 49.0298 60.8679 50.1843C61.0555 51.3389 60.8394 52.5228 60.256 53.5366Z" fill="white"/>
<path d="M44.1259 12.2941C43.971 12.2167 43.7989 12.1802 43.6259 12.1881C43.453 12.1959 43.2849 12.2478 43.1376 12.3389C42.9904 12.43 42.8689 12.5572 42.7846 12.7084C42.7004 12.8597 42.6562 13.03 42.6563 13.2031V21.3281C42.6562 21.5012 42.7004 21.6715 42.7846 21.8228C42.8689 21.9741 42.9904 22.1013 43.1376 22.1923C43.2849 22.2834 43.453 22.3353 43.6259 22.3432C43.7989 22.351 43.971 22.3145 44.1259 22.2371L52.2509 18.1746C52.4199 18.0904 52.562 17.9607 52.6614 17.8001C52.7608 17.6395 52.8134 17.4544 52.8134 17.2656C52.8134 17.0768 52.7608 16.8917 52.6614 16.7311C52.562 16.5705 52.4199 16.4409 52.2509 16.3566L44.1259 12.2941ZM44.6875 19.6848V14.8464L49.5259 17.2656L44.6875 19.6848Z" fill="white"/>
<path d="M18.2812 7.1094H8.125C7.85564 7.1094 7.59731 7.2164 7.40684 7.40687C7.21638 7.59733 7.10938 7.85566 7.10938 8.12502V12.1875C7.11156 13.1833 7.40751 14.1563 7.96015 14.9846C8.5128 15.813 9.29757 16.4598 10.2162 16.8442C10.3359 17.8773 10.7726 18.848 11.4664 19.6229C10.4897 19.9773 9.64541 20.6231 9.04779 21.4731C8.45016 22.323 8.12804 23.336 8.125 24.375V28.4375C8.125 28.7069 8.232 28.9652 8.42247 29.1557C8.61294 29.3461 8.87126 29.4531 9.14062 29.4531C9.40999 29.4531 9.66831 29.3461 9.85878 29.1557C10.0492 28.9652 10.1562 28.7069 10.1562 28.4375V24.375C10.1589 23.7471 10.3554 23.1353 10.719 22.6234C11.0826 22.1114 11.5955 21.7243 12.1875 21.515V22.3438C12.1876 22.6131 12.2946 22.8714 12.4851 23.0618L14.5163 25.0931C14.7068 25.2835 14.9651 25.3904 15.2344 25.3904C15.5037 25.3904 15.762 25.2835 15.9524 25.0931L17.9837 23.0618C18.1742 22.8714 18.2812 22.6131 18.2812 22.3438V21.515C18.8733 21.7243 19.3862 22.1114 19.7498 22.6234C20.1134 23.1353 20.3099 23.7471 20.3125 24.375V28.4375C20.3125 28.7069 20.4195 28.9652 20.61 29.1557C20.8004 29.3461 21.0588 29.4531 21.3281 29.4531C21.5975 29.4531 21.8558 29.3461 22.0463 29.1557C22.2367 28.9652 22.3438 28.7069 22.3438 28.4375V24.375C22.3407 23.336 22.0186 22.323 21.421 21.4731C20.8233 20.6231 19.9791 19.9773 19.0023 19.6229C19.6961 18.848 20.1329 17.8773 20.2526 16.8442C21.3329 16.3918 22.2229 15.5789 22.7713 14.544C23.3196 13.5091 23.4922 12.3161 23.2597 11.1682C23.0273 10.0203 22.4041 8.98851 21.4964 8.24845C20.5886 7.50839 19.4524 7.10586 18.2812 7.1094ZM15.2344 19.2969C14.4263 19.2969 13.6513 18.9759 13.0799 18.4045C12.5085 17.8331 12.1875 17.0581 12.1875 16.25V14.2188C12.1875 13.9494 12.2945 13.6911 12.485 13.5006C12.6754 13.3102 12.9338 13.2031 13.2031 13.2031H17.2656C17.535 13.2031 17.7933 13.3102 17.9838 13.5006C18.1742 13.6911 18.2812 13.9494 18.2812 14.2188V16.25C18.2812 17.0581 17.9602 17.8331 17.3888 18.4045C16.8174 18.9759 16.0425 19.2969 15.2344 19.2969ZM15.2344 22.9389L14.2188 21.9233V21.2266C14.8889 21.3634 15.5798 21.3634 16.25 21.2266V21.9243L15.2344 22.9389ZM20.3125 14.4402V14.2188C20.3125 13.4107 19.9915 12.6357 19.4201 12.0643C18.8487 11.4929 18.0737 11.1719 17.2656 11.1719H13.2031C12.395 11.1719 11.6201 11.4929 11.0487 12.0643C10.4773 12.6357 10.1562 13.4107 10.1562 14.2188V14.4402C9.83763 14.1576 9.58241 13.8108 9.40736 13.4225C9.23232 13.0343 9.14142 12.6134 9.14062 12.1875V9.14065H18.2812C19.0893 9.14065 19.8643 9.46166 20.4357 10.0331C21.0071 10.6045 21.3281 11.3794 21.3281 12.1875C21.3273 12.6134 21.2364 13.0343 21.0614 13.4225C20.8863 13.8108 20.6311 14.1576 20.3125 14.4402Z" fill="white"/>
<path d="M21.3281 36.5625H9.14062C8.87126 36.5625 8.61294 36.6695 8.42247 36.86C8.232 37.0504 8.125 37.3088 8.125 37.5781C8.125 37.8475 8.232 38.1058 8.42247 38.2963C8.61294 38.4867 8.87126 38.5938 9.14062 38.5938H21.3281C21.5975 38.5938 21.8558 38.4867 22.0463 38.2963C22.2367 38.1058 22.3438 37.8475 22.3438 37.5781C22.3438 37.3088 22.2367 37.0504 22.0463 36.86C21.8558 36.6695 21.5975 36.5625 21.3281 36.5625Z" fill="white"/>
<path d="M9.14062 48.75C8.87126 48.75 8.61294 48.857 8.42247 49.0475C8.232 49.2379 8.125 49.4963 8.125 49.7656C8.125 50.035 8.232 50.2933 8.42247 50.4838C8.61294 50.6742 8.87126 50.7812 9.14062 50.7812H19.2969C19.5662 50.7812 19.8246 50.6742 20.015 50.4838C20.2055 50.2933 20.3125 50.035 20.3125 49.7656C20.3125 49.4963 20.2055 49.2379 20.015 49.0475C19.8246 48.857 19.5662 48.75 19.2969 48.75H9.14062Z" fill="white"/>
<path d="M9.14062 42.6562H19.2969C19.5662 42.6562 19.8246 42.5492 20.015 42.3588C20.2055 42.1683 20.3125 41.91 20.3125 41.6406C20.3125 41.3713 20.2055 41.1129 20.015 40.9225C19.8246 40.732 19.5662 40.625 19.2969 40.625H9.14062C8.87126 40.625 8.61294 40.732 8.42247 40.9225C8.232 41.1129 8.125 41.3713 8.125 41.6406C8.125 41.91 8.232 42.1683 8.42247 42.3588C8.61294 42.5492 8.87126 42.6562 9.14062 42.6562Z" fill="white"/>
<path d="M22.3438 45.7031C22.3438 45.4338 22.2367 45.1754 22.0463 44.985C21.8558 44.7945 21.5975 44.6875 21.3281 44.6875H9.14062C8.87126 44.6875 8.61294 44.7945 8.42247 44.985C8.232 45.1754 8.125 45.4338 8.125 45.7031C8.125 45.9725 8.232 46.2308 8.42247 46.4213C8.61294 46.6117 8.87126 46.7188 9.14062 46.7188H21.3281C21.5975 46.7188 21.8558 46.6117 22.0463 46.4213C22.2367 46.2308 22.3438 45.9725 22.3438 45.7031Z" fill="white"/>
<path d="M21.3281 32.5H13.2031C12.9338 32.5 12.6754 32.607 12.485 32.7975C12.2945 32.9879 12.1875 33.2463 12.1875 33.5156C12.1875 33.785 12.2945 34.0433 12.485 34.2338C12.6754 34.4242 12.9338 34.5312 13.2031 34.5312H21.3281C21.5975 34.5312 21.8558 34.4242 22.0463 34.2338C22.2367 34.0433 22.3438 33.785 22.3438 33.5156C22.3438 33.2463 22.2367 32.9879 22.0463 32.7975C21.8558 32.607 21.5975 32.5 21.3281 32.5Z" fill="white"/>
<path d="M25.811 22.1691C26.0015 22.3595 26.2598 22.4664 26.5291 22.4664C26.7984 22.4664 27.0567 22.3595 27.2471 22.1691C28.0087 21.4072 28.4366 20.3741 28.4366 19.2969C28.4366 18.2196 28.0087 17.1865 27.2471 16.4247C27.0556 16.2397 26.799 16.1373 26.5327 16.1396C26.2664 16.1419 26.0117 16.2488 25.8234 16.4371C25.6351 16.6254 25.5283 16.8801 25.526 17.1464C25.5237 17.4127 25.626 17.6692 25.811 17.8608C26.1918 18.2417 26.4058 18.7583 26.4058 19.2969C26.4058 19.8355 26.1918 20.3521 25.811 20.733C25.6206 20.9234 25.5137 21.1817 25.5137 21.451C25.5137 21.7203 25.6206 21.9786 25.811 22.1691Z" fill="white"/>
<path d="M28.6841 13.5515C28.4937 13.742 28.3867 14.0003 28.3867 14.2696C28.3867 14.5389 28.4937 14.7971 28.6841 14.9876C29.8251 16.1315 30.4659 17.6812 30.4659 19.2969C30.4659 20.9126 29.8251 22.4623 28.6841 23.6062C28.5871 23.6999 28.5097 23.812 28.4565 23.9359C28.4032 24.0598 28.3752 24.193 28.3741 24.3279C28.3729 24.4628 28.3986 24.5965 28.4497 24.7213C28.5007 24.8461 28.5761 24.9595 28.6715 25.0549C28.7669 25.1502 28.8802 25.2257 29.0051 25.2767C29.1299 25.3278 29.2636 25.3535 29.3985 25.3523C29.5333 25.3511 29.6666 25.3231 29.7905 25.2699C29.9144 25.2167 30.0265 25.1393 30.1202 25.0423C31.6415 23.5172 32.4959 21.451 32.4959 19.2969C32.4959 17.1428 31.6415 15.0766 30.1202 13.5515C29.9297 13.3611 29.6714 13.2542 29.4021 13.2542C29.1328 13.2542 28.8745 13.3611 28.6841 13.5515Z" fill="white"/>
</svg>
