<svg width="65" height="65" viewBox="0 0 65 65" fill="none" xmlns="http://www.w3.org/2000/svg">
<g clip-path="url(#clip0_23_1516)">
<path d="M35.6104 25.8984C35.6104 26.4241 36.0368 26.8506 36.5625 26.8506H38.1494V38.1494H26.8506V26.8506H32.5C33.0257 26.8506 33.4521 26.4241 33.4521 25.8984C33.4521 25.3728 33.0257 24.9463 32.5 24.9463H26.4062C25.6014 24.9463 24.9463 25.6014 24.9463 26.4062V38.5938C24.9463 39.3986 25.6014 40.0537 26.4062 40.0537H38.5938C39.3986 40.0537 40.0537 39.3986 40.0537 38.5938V26.4062C40.0537 25.6014 39.3986 24.9463 38.5938 24.9463H36.5625C36.0368 24.9463 35.6104 25.3728 35.6104 25.8984Z" fill="white"/>
<path d="M5.26855 3.80859C4.46369 3.80859 3.80859 4.46369 3.80859 5.26855V11.8701C3.80859 12.675 4.46369 13.3301 5.26855 13.3301H11.8701C12.675 13.3301 13.3301 12.675 13.3301 11.8701V5.26855C13.3301 4.46369 12.675 3.80859 11.8701 3.80859H5.26855ZM11.4258 11.4258H5.71289V5.71289H11.4258V11.4258Z" fill="white"/>
<path d="M11.8701 51.6699H5.26855C4.46369 51.6699 3.80859 52.325 3.80859 53.1299V59.7314C3.80859 60.5363 4.46369 61.1914 5.26855 61.1914H11.8701C12.675 61.1914 13.3301 60.5363 13.3301 59.7314V53.1299C13.3301 52.325 12.675 51.6699 11.8701 51.6699ZM11.4258 59.2871H5.71289V53.5742H11.4258V59.2871Z" fill="white"/>
<path d="M50.3369 17.1387H62.5244C63.8897 17.1387 65 16.0283 65 14.6631V2.47559C65 1.11034 63.8897 0 62.5244 0H50.3369C48.9717 0 47.8613 1.11034 47.8613 2.47559V7.61719H36.4355C35.9099 7.61719 35.4834 8.04367 35.4834 8.56934V21.1377H30.2783V17.4194C31.3867 17.0261 32.1826 15.9678 32.1826 14.7266C32.1826 13.1516 30.9012 11.8701 29.3262 11.8701C27.7512 11.8701 26.4697 13.1516 26.4697 14.7266C26.4697 15.9678 27.2657 17.0261 28.374 17.4194V21.1377H24.1201C22.4757 21.1377 21.1377 22.4757 21.1377 24.1201V29.6436H9.52148V17.1387H14.6631C16.0283 17.1387 17.1387 16.0283 17.1387 14.6631V12.1875C17.1387 11.6618 16.7122 11.2354 16.1865 11.2354C15.6609 11.2354 15.2344 11.6618 15.2344 12.1875V14.6631C15.2344 14.978 14.978 15.2344 14.6631 15.2344H2.47559C2.16068 15.2344 1.9043 14.978 1.9043 14.6631V2.47559C1.9043 2.16068 2.16068 1.9043 2.47559 1.9043H14.6631C14.978 1.9043 15.2344 2.16068 15.2344 2.47559V8.125C15.2344 8.65067 15.6609 9.07715 16.1865 9.07715C16.7122 9.07715 17.1387 8.65067 17.1387 8.125V2.47559C17.1387 1.11034 16.0283 0 14.6631 0H2.47559C1.11034 0 0 1.11034 0 2.47559V14.6631C0 16.0283 1.11034 17.1387 2.47559 17.1387H7.61719V30.5957C7.61719 31.1214 8.04367 31.5479 8.56934 31.5479H21.1377V35.6104H19.8315C19.4382 34.502 18.3799 33.7061 17.1387 33.7061C15.5637 33.7061 14.2822 34.9875 14.2822 36.5625C14.2822 38.1375 15.5637 39.4189 17.1387 39.4189C18.3799 39.4189 19.4382 38.623 19.8315 37.5146H21.1377V40.8799C21.1377 42.5243 22.4757 43.8623 24.1201 43.8623H28.374V55.172H17.1387V50.3369C17.1387 48.9717 16.0283 47.8613 14.6631 47.8613H2.47559C1.11034 47.8613 0 48.9717 0 50.3369V62.5244C0 63.8897 1.11034 65 2.47559 65H14.6631C16.0283 65 17.1387 63.8897 17.1387 62.5244V57.0763H29.3262C29.8518 57.0763 30.2783 56.6499 30.2783 56.1242V43.8623H35.4834V48.0885C34.375 48.4817 33.5791 49.54 33.5791 50.7812C33.5791 52.3563 34.8605 53.6377 36.4355 53.6377C38.0106 53.6377 39.292 52.3563 39.292 50.7812C39.292 49.54 38.4961 48.4817 37.3877 48.0885V43.8623H40.8799C42.5243 43.8623 43.8623 42.5243 43.8623 40.8799V34.3979H55.48V47.8613H50.3369C48.9717 47.8613 47.8613 48.9717 47.8613 50.3369V52.8125C47.8613 53.3382 48.2878 53.7646 48.8135 53.7646C49.3391 53.7646 49.7656 53.3382 49.7656 52.8125V50.3369C49.7656 50.022 50.022 49.7656 50.3369 49.7656H62.5244C62.8393 49.7656 63.0957 50.022 63.0957 50.3369V62.5244C63.0957 62.8393 62.8393 63.0957 62.5244 63.0957H50.3369C50.022 63.0957 49.7656 62.8393 49.7656 62.5244V56.8591C49.7656 56.3335 49.3391 55.907 48.8135 55.907C48.2878 55.907 47.8613 56.3335 47.8613 56.8591V62.5244C47.8613 63.8897 48.9717 65 50.3369 65H62.5244C63.8897 65 65 63.8897 65 62.5244V50.3369C65 48.9717 63.8897 47.8613 62.5244 47.8613H57.3843V33.4457C57.3843 32.92 56.9578 32.4936 56.4322 32.4936H43.8623V29.2627H48.3994C48.7926 30.3711 49.8509 31.167 51.0922 31.167C52.6672 31.167 53.9486 29.8856 53.9486 28.3105C53.9486 26.7355 52.6672 25.4541 51.0922 25.4541C49.8509 25.4541 48.7926 26.25 48.3994 27.3584H43.8623V24.1201C43.8623 22.4757 42.5243 21.1377 40.8799 21.1377H37.3877V9.52148H47.8613V14.6631C47.8613 16.0283 48.9717 17.1387 50.3369 17.1387ZM29.3262 13.7744C29.8513 13.7744 30.2783 14.2014 30.2783 14.7266C30.2783 15.2517 29.8513 15.6787 29.3262 15.6787C28.801 15.6787 28.374 15.2517 28.374 14.7266C28.374 14.2014 28.801 13.7744 29.3262 13.7744ZM17.1387 37.5146C16.6135 37.5146 16.1865 37.0877 16.1865 36.5625C16.1865 36.0373 16.6135 35.6104 17.1387 35.6104C17.6638 35.6104 18.0908 36.0373 18.0908 36.5625C18.0908 37.0877 17.6638 37.5146 17.1387 37.5146ZM15.2344 62.5244C15.2344 62.8393 14.978 63.0957 14.6631 63.0957H2.47559C2.16068 63.0957 1.9043 62.8393 1.9043 62.5244V50.3369C1.9043 50.022 2.16068 49.7656 2.47559 49.7656H14.6631C14.978 49.7656 15.2344 50.022 15.2344 50.3369V62.5244ZM36.4355 51.7334C35.9104 51.7334 35.4834 51.3064 35.4834 50.7812C35.4834 50.2561 35.9104 49.8291 36.4355 49.8291C36.9607 49.8291 37.3877 50.2561 37.3877 50.7812C37.3877 51.3064 36.9607 51.7334 36.4355 51.7334ZM51.0922 27.3584C51.6174 27.3584 52.0443 27.7854 52.0443 28.3105C52.0443 28.8357 51.6174 29.2627 51.0922 29.2627C50.567 29.2627 50.14 28.8357 50.14 28.3105C50.14 27.7854 50.567 27.3584 51.0922 27.3584ZM41.958 24.1201V40.8799C41.958 41.4745 41.4745 41.958 40.8799 41.958H24.1201C23.5255 41.958 23.042 41.4745 23.042 40.8799V24.1201C23.042 23.5255 23.5255 23.042 24.1201 23.042H40.8799C41.4745 23.042 41.958 23.5255 41.958 24.1201ZM50.3369 1.9043H62.5244C62.8393 1.9043 63.0957 2.16068 63.0957 2.47559V14.6631C63.0957 14.978 62.8393 15.2344 62.5244 15.2344H50.3369C50.022 15.2344 49.7656 14.978 49.7656 14.6631V8.59413C49.7661 8.5857 49.7671 8.57777 49.7671 8.56934C49.7671 8.56091 49.7661 8.55297 49.7656 8.54454V2.47559C49.7656 2.16068 50.022 1.9043 50.3369 1.9043Z" fill="white"/>
<path d="M53.1299 13.3301H59.7314C60.5363 13.3301 61.1914 12.675 61.1914 11.8701V5.26855C61.1914 4.46369 60.5363 3.80859 59.7314 3.80859H53.1299C52.325 3.80859 51.6699 4.46369 51.6699 5.26855V11.8701C51.6699 12.675 52.325 13.3301 53.1299 13.3301ZM53.5742 5.71289H59.2871V11.4258H53.5742V5.71289Z" fill="white"/>
<path d="M59.7314 61.1914C60.5363 61.1914 61.1914 60.5363 61.1914 59.7314V53.1299C61.1914 52.325 60.5363 51.6699 59.7314 51.6699H53.1299C52.325 51.6699 51.6699 52.325 51.6699 53.1299V59.7314C51.6699 60.5363 52.325 61.1914 53.1299 61.1914H59.7314ZM53.5742 53.5742H59.2871V59.2871H53.5742V53.5742Z" fill="white"/>
</g>
<defs>
<clipPath id="clip0_23_1516">
<rect width="65" height="65" fill="white"/>
</clipPath>
</defs>
</svg>
