<svg width="65" height="65" viewBox="0 0 65 65" fill="none" xmlns="http://www.w3.org/2000/svg">
<path d="M51.5682 37.4808H45.4283C44.8675 37.4808 44.4127 37.9355 44.4127 38.4964V62.8913C44.4127 63.4522 44.8675 63.9069 45.4283 63.9069H51.5682C52.1291 63.9069 52.5838 63.4522 52.5838 62.8913V38.4964C52.5838 37.9355 52.1292 37.4808 51.5682 37.4808ZM50.5526 61.8757H46.444V39.512H50.5526V61.8757ZM62.9688 31.6837H56.829C56.2681 31.6837 55.8134 32.1385 55.8134 32.6993V62.8911C55.8134 63.4519 56.2681 63.9067 56.829 63.9067H62.9688C63.5297 63.9067 63.9845 63.4519 63.9845 62.8911V32.6993C63.9845 32.1385 63.5297 31.6837 62.9688 31.6837ZM61.9532 61.8756H57.8446V33.715H61.9532V61.8756ZM28.7665 50.0965H22.6267C22.0658 50.0965 21.6111 50.5512 21.6111 51.1121V62.8911C21.6111 63.4519 22.0658 63.9067 22.6267 63.9067H28.7665C29.3274 63.9067 29.7821 63.4519 29.7821 62.8911V51.1121C29.7821 50.5512 29.3275 50.0965 28.7665 50.0965ZM27.7509 61.8756H23.6423V52.1279H27.7509V61.8756ZM61.5574 23.683L61.2552 25.7582C61.1743 26.3132 61.5589 26.8288 62.1139 26.9094C62.1636 26.9167 62.2128 26.9202 62.2616 26.9202C62.7577 26.9202 63.1918 26.5562 63.2654 26.0507L63.9739 21.1844C64.0178 20.8832 63.9242 20.578 63.7187 20.3531C63.5133 20.1283 63.2173 20.0081 62.9139 20.0239L58.0036 20.2905C57.4434 20.3209 57.0141 20.7996 57.0444 21.3597C57.0748 21.9199 57.5539 22.3466 58.1136 22.3189L60.1594 22.2078C55.0179 26.7367 49.3911 30.8103 43.3888 34.3452C43.3087 34.2809 43.2182 34.2281 43.1189 34.1899L41.7341 33.6568C41.5188 32.9209 41.2247 32.2114 40.8557 31.538L41.4585 30.181C41.6292 29.7971 41.5456 29.3478 41.2485 29.0506L39.0901 26.8921C38.793 26.595 38.3436 26.5119 37.9597 26.6821L36.6019 27.2852C35.9286 26.9164 35.2195 26.6223 34.4838 26.4069L34.264 25.8356L37.0364 23.0972H37.8264C38.6841 23.0972 39.3818 22.3995 39.3818 21.5418V18.6715C39.3818 17.8139 38.684 17.1162 37.8264 17.1162H2.57113C1.71344 17.1161 1.0157 17.8138 1.0157 18.6714V21.5417C1.0157 22.3994 1.71344 23.0971 2.57113 23.0971H3.36103L15.6013 35.1874V43.5798C15.6013 43.9202 15.7718 44.2378 16.0553 44.426C16.2243 44.5382 16.4201 44.5955 16.617 44.5955C16.7505 44.5955 16.8846 44.5692 17.0113 44.5157L21.7786 42.5065L21.4941 43.1472C21.3236 43.5311 21.407 43.9804 21.7042 44.2776L23.8627 46.436C24.1598 46.7332 24.6092 46.8164 24.9931 46.646L26.3506 46.043C27.0241 46.4118 27.7332 46.7059 28.4688 46.9211L29.0021 48.3066C29.153 48.6986 29.5298 48.9573 29.95 48.9573H33.0024C33.0056 48.9573 33.0085 48.9567 33.0117 48.9566V62.8911C33.0117 63.4519 33.4664 63.9067 34.0273 63.9067H40.1673C40.7282 63.9067 41.1829 63.4519 41.1829 62.8911V44.3428L41.2482 44.2776C41.5452 43.9805 41.6286 43.5312 41.4581 43.1473L40.8551 41.7897C41.2239 41.1162 41.5179 40.407 41.7333 39.6716L43.1187 39.1383C43.5107 38.9874 43.7695 38.6106 43.7695 38.1904V36.4739C50.148 32.7744 56.1195 28.4795 61.5574 23.683ZM3.04695 19.1473H37.3503V21.0659H3.04695V19.1473ZM6.25163 23.0972H34.1456L32.8563 24.3708H29.9502C29.5301 24.3708 29.1533 24.6294 29.0024 25.0216L28.4691 26.4069C27.7334 26.6223 27.0243 26.9164 26.3508 27.2852L24.9932 26.6821C24.6093 26.5119 24.16 26.595 23.8628 26.8921L21.7044 29.0506C21.4073 29.3478 21.3238 29.7971 21.4943 30.181L22.0972 31.5385C21.7282 32.2118 21.4342 32.9211 21.2189 33.6569L20.9834 33.7476H17.0341L6.25163 23.0972ZM17.6326 35.7788H19.1829V38.1904C19.1829 38.6106 19.4417 38.9873 19.8337 39.1383L21.2185 39.6713C21.2937 39.928 21.379 40.1813 21.4731 40.4312L17.6325 42.0498L17.6326 35.7788ZM39.1519 61.8758H35.0432V46.741C35.5802 46.5509 36.1012 46.318 36.6024 46.0435L37.9594 46.6463C38.3433 46.8169 38.7926 46.7335 39.0898 46.4362L39.1518 46.3742V61.8758H39.1519ZM41.7385 37.4931L40.5203 37.9619C40.2079 38.0821 39.9747 38.3489 39.8971 38.6745C39.6852 39.5652 39.3336 40.4133 38.852 41.1954C38.6765 41.4806 38.6527 41.834 38.7886 42.1401L39.319 43.3342L38.1467 44.5065L36.9532 43.9763C36.6471 43.8404 36.2936 43.8638 36.0084 44.0398C35.2263 44.5215 34.3778 44.8731 33.4869 45.085C33.1611 45.1626 32.8944 45.3957 32.7742 45.7082L32.3055 46.926H30.6476L30.1787 45.7077C30.0585 45.3952 29.7918 45.1621 29.466 45.0846C28.5754 44.8726 27.7273 44.5211 26.9451 44.0394C26.6599 43.8638 26.3064 43.8402 26.0003 43.9761L24.8063 44.5065L23.634 43.3343L24.1641 42.1407C24.3 41.8346 24.2763 41.4812 24.1006 41.1959C23.6191 40.4141 23.2674 39.5657 23.0553 38.6745C22.9777 38.3487 22.7446 38.082 22.4321 37.9618L21.2145 37.4931V35.8352L22.4323 35.3665C22.7449 35.2463 22.978 34.9795 23.0555 34.6538C23.2675 33.7628 23.6192 32.9146 24.1007 32.1327C24.2764 31.8475 24.3002 31.494 24.1642 31.188L23.6339 29.994L24.8062 28.8218L26.0003 29.3522C26.3063 29.488 26.6599 29.4644 26.945 29.2889C27.7271 28.8072 28.5753 28.4557 29.466 28.2435C29.7918 28.1661 30.0584 27.933 30.1786 27.6204L30.6476 26.4023H32.3055L32.7743 27.6204C32.8945 27.9329 33.1611 28.1661 33.4869 28.2435C34.3777 28.4557 35.2259 28.8073 36.0078 29.2887C36.2931 29.4646 36.6465 29.488 36.9526 29.3522L38.1467 28.8218L39.319 29.994L38.789 31.1874C38.653 31.4935 38.6767 31.847 38.8524 32.1322C39.3341 32.9143 39.6858 33.7627 39.8978 34.6538C39.9752 34.9795 40.2084 35.2463 40.521 35.3665L41.7386 35.8352V37.4931H41.7385ZM2.03133 14.719H38.3661C38.6543 14.719 38.9289 14.5966 39.1214 14.3823C39.314 14.168 39.4066 13.8818 39.3759 13.5953C39.1041 11.0562 37.5249 8.95732 35.3484 7.93115C36.005 7.2046 36.4055 6.24242 36.4055 5.18833C36.4055 2.93022 34.5684 1.09308 32.3103 1.09308C30.0522 1.09308 28.215 2.93022 28.215 5.18833C28.215 6.24242 28.6156 7.2046 29.2722 7.93115C28.0255 8.51895 26.9756 9.45865 26.2545 10.632C25.5334 9.45865 24.4835 8.51895 23.2368 7.93115C23.8934 7.2046 24.294 6.24242 24.294 5.18833C24.294 2.93022 22.4568 1.09308 20.1987 1.09308C17.9406 1.09308 16.1034 2.93022 16.1034 5.18833C16.1034 6.24242 16.504 7.2046 17.1606 7.93115C15.9139 8.51895 14.864 9.45865 14.1429 10.632C13.4218 9.45865 12.3719 8.51895 11.1252 7.93115C11.7818 7.2046 12.1824 6.24242 12.1824 5.18833C12.1824 2.93022 10.3452 1.09308 8.08712 1.09308C5.829 1.09308 3.99186 2.93009 3.99186 5.18821C3.99186 6.2423 4.3924 7.20448 5.049 7.93103C2.87252 8.95719 1.29322 11.0562 1.02141 13.5952C0.990691 13.8817 1.08324 14.1679 1.27583 14.3822C1.46842 14.5964 1.74302 14.719 2.03133 14.719ZM32.3103 3.1242C33.4484 3.1242 34.3743 4.05007 34.3743 5.18821C34.3743 6.32634 33.4484 7.25221 32.3103 7.25221C31.1721 7.25221 30.2463 6.32634 30.2463 5.18821C30.2463 4.05007 31.1721 3.1242 32.3103 3.1242ZM32.3102 9.28346C34.5171 9.28346 36.4134 10.6855 37.1057 12.6877H27.5146C28.2069 10.6855 30.1033 9.28346 32.3102 9.28346ZM20.1986 3.1242C21.3367 3.1242 22.2626 4.05007 22.2626 5.18821C22.2626 6.32634 21.3367 7.25221 20.1986 7.25221C19.0604 7.25221 18.1346 6.32634 18.1346 5.18821C18.1346 4.05007 19.0604 3.1242 20.1986 3.1242ZM20.1987 9.28346C22.4057 9.28346 24.3021 10.6855 24.9942 12.6877H15.4032C16.0953 10.6855 17.9917 9.28346 20.1987 9.28346ZM8.08712 3.1242C9.22525 3.1242 10.1511 4.05007 10.1511 5.18821C10.1511 6.32634 9.22525 7.25221 8.08712 7.25221C6.94898 7.25221 6.02311 6.32634 6.02311 5.18821C6.02311 4.05007 6.94898 3.1242 8.08712 3.1242ZM8.08712 9.28346C10.2941 9.28346 12.1904 10.6855 12.8826 12.6877H3.29146C3.98374 10.6855 5.88016 9.28346 8.08712 9.28346ZM31.4763 30.3251C27.9809 30.3251 25.137 33.1687 25.137 36.6642C25.137 40.1597 27.9808 43.0034 31.4763 43.0034C34.9719 43.0034 37.8155 40.1597 37.8155 36.6642C37.8155 33.1687 34.9717 30.3251 31.4763 30.3251ZM31.4763 40.972C29.1009 40.972 27.1683 39.0395 27.1683 36.6641C27.1683 34.2887 29.1009 32.3562 31.4763 32.3562C33.8517 32.3562 35.7842 34.2887 35.7842 36.6641C35.7842 39.0395 33.8517 40.972 31.4763 40.972ZM56.9245 12.6523C56.9898 12.5766 57.0292 12.4913 57.0086 12.3213C56.986 12.1358 56.9333 11.7015 55.5386 11.4725C53.0661 11.0664 52.631 9.64578 52.5917 8.83519C52.529 7.54433 53.3596 6.4552 54.6809 6.05898V5.8947C54.6809 5.33382 55.1357 4.87907 55.6966 4.87907C56.2575 4.87907 56.7122 5.33382 56.7122 5.8947V6.04971C57.5604 6.29574 58.3467 6.87668 58.774 7.89408C58.9911 8.41129 58.748 9.00657 58.2308 9.22379C57.7137 9.44101 57.1183 9.19764 56.9012 8.68069C56.5831 7.92303 55.7887 7.88164 55.3699 7.97698C55.1875 8.01837 54.5942 8.19547 54.6206 8.7368C54.627 8.86807 54.6464 9.26759 55.8678 9.46818C57.7909 9.78391 58.8533 10.6615 59.025 12.0767C59.1122 12.795 58.9171 13.4536 58.4608 13.9812C58.0496 14.4565 57.4277 14.803 56.7122 14.9716V15.0985C56.7122 15.6594 56.2575 16.1142 55.6966 16.1142C55.1357 16.1142 54.6809 15.6594 54.6809 15.0985V14.9536C53.5305 14.6451 52.6578 13.8204 52.3781 12.6985C52.2424 12.1543 52.5737 11.603 53.1179 11.4673C53.6624 11.332 54.2133 11.6629 54.349 12.2071C54.5102 12.8539 55.211 13.065 55.7673 13.0546C56.2538 13.0429 56.7296 12.8776 56.9245 12.6523ZM55.6964 18.7845C60.2665 18.7845 63.9845 15.0666 63.9845 10.4966C63.9845 5.92656 60.2664 2.20862 55.6964 2.20862C51.1265 2.20862 47.4086 5.92656 47.4086 10.4966C47.4086 15.0666 51.1265 18.7845 55.6964 18.7845ZM55.6964 4.23974C59.1464 4.23974 61.9532 7.04642 61.9532 10.4965C61.9532 13.9464 59.1464 16.7531 55.6964 16.7531C52.2465 16.7531 49.4398 13.9464 49.4398 10.4965C49.4398 7.04655 52.2466 4.23974 55.6964 4.23974Z" fill="white"/>
</svg>
