<svg width="65" height="65" viewBox="0 0 65 65" fill="none" xmlns="http://www.w3.org/2000/svg">
<path d="M42.5045 13.4208H38.3834C34.9136 13.4208 32.0898 16.2441 32.0898 19.7144V23.835C32.0898 24.918 32.9711 25.7993 34.0541 25.7993H38.1747C41.6451 25.7993 44.4683 22.976 44.4683 19.5057V15.3851C44.4683 14.3021 43.5875 13.4208 42.5045 13.4208ZM42.564 19.5057C42.564 21.9262 40.5952 23.895 38.1747 23.895H35.286L38.925 20.256C39.2969 19.8845 39.2969 19.2815 38.925 18.9096C38.553 18.5376 37.9505 18.5376 37.5786 18.9096L33.9941 22.494V19.7144C33.9941 17.2944 35.9634 15.3251 38.3834 15.3251H42.5045C42.5372 15.3251 42.564 15.3519 42.564 15.3851V19.5057Z" fill="white"/>
<path d="M56.5239 31.3054C55.9978 31.3054 55.5718 31.7313 55.5718 32.2575V45.6917C55.5718 46.2179 55.9978 46.6439 56.5239 46.6439C57.0496 46.6439 57.4761 46.2179 57.4761 45.6917V32.2575C57.4761 31.7313 57.0496 31.3054 56.5239 31.3054Z" fill="white"/>
<path d="M56.5239 49.0788C55.9977 49.0788 55.5717 49.5048 55.5717 50.0309V53.902H25.2215C25.3445 53.3263 25.4115 52.7292 25.4115 52.1167V44.0086H26.7073V45.7453C26.7073 46.9702 27.704 47.967 28.9289 47.967H47.6292C48.8541 47.967 49.8509 46.9702 49.8509 45.7453V42.6186C49.8509 41.3937 48.8541 40.3969 47.6292 40.3969H32.3041C32.4514 39.953 32.5417 39.4834 32.5645 38.9964H49.0986C50.3235 38.9964 51.3203 37.9997 51.3203 36.7748V33.648C51.3203 32.4231 50.3235 31.4264 49.0986 31.4264H27.4596C26.2347 31.4264 25.2379 32.4231 25.2379 33.648V35.2493H22.0854C21.71 35.2493 21.3435 35.285 20.9869 35.3505V17.9118C20.9869 17.3856 20.5605 16.9597 20.0348 16.9597C19.5091 16.9597 19.0826 17.3856 19.0826 17.9118V26.2996H16.1959C11.4655 26.2996 7.61719 30.1479 7.61719 34.8779V63.9844C7.61719 64.51 8.04367 64.9365 8.56934 64.9365C9.095 64.9365 9.52148 64.51 9.52148 63.9844V34.8779C9.52148 31.1977 12.5158 28.2039 16.1959 28.2039H19.0826V36.0458C17.2463 37.0931 16.0045 39.0688 16.0045 41.3302V47.9347C16.0045 48.4604 16.431 48.8869 16.9567 48.8869C17.4823 48.8869 17.9088 48.4604 17.9088 47.9347V41.3302C17.9088 39.0272 19.7824 37.1536 22.0854 37.1536H30.3492C30.5243 37.1536 30.6666 37.296 30.6666 37.471V38.7455C30.6666 40.5977 29.16 42.1043 27.3078 42.1043H24.4593C23.9331 42.1043 23.5072 42.5308 23.5072 43.0565V52.1172C23.5072 55.7557 20.5684 58.7163 16.9567 58.7163C16.431 58.7163 16.0045 59.1423 16.0045 59.6685V63.9849C16.0045 64.5105 16.431 64.937 16.9567 64.937C17.4823 64.937 17.9088 64.5105 17.9088 63.9849V60.5666C18.3323 60.519 18.7454 60.4381 19.1476 60.3295C19.5567 62.9712 21.8464 65 24.6011 65H51.9571C55 65 57.476 62.5244 57.476 59.481V50.0309C57.476 49.5048 57.0496 49.0788 56.5239 49.0788ZM30.3492 35.2493H27.1422V33.6475C27.1422 33.473 27.285 33.3302 27.4596 33.3302H49.0986C49.2737 33.3302 49.416 33.473 49.416 33.6475V36.7748C49.416 36.9498 49.2737 37.0921 49.0986 37.0921H32.5362C32.3557 36.0473 31.4447 35.2493 30.3492 35.2493ZM31.1843 42.3012H47.6292C47.8043 42.3012 47.9466 42.4435 47.9466 42.6186V45.7453C47.9466 45.9203 47.8043 46.0627 47.6292 46.0627H28.9289C28.7539 46.0627 28.6116 45.9203 28.6116 45.7453V43.845C29.6153 43.5881 30.504 43.0421 31.1843 42.3012ZM51.9571 63.0957H24.6011C22.6438 63.0957 21.0455 61.5311 20.9894 59.5866C22.5411 58.7357 23.7992 57.4111 24.5714 55.8063H55.5713V59.481C55.5717 61.4741 53.9501 63.0957 51.9571 63.0957Z" fill="white"/>
<path d="M51.9569 0H24.601C21.5581 0 19.0825 2.47559 19.0825 5.51899V13.5726C19.0825 14.0987 19.5085 14.5247 20.0347 14.5247C20.5603 14.5247 20.9868 14.0987 20.9868 13.5726V10.0824H55.5716V27.9183C55.5716 28.4444 55.9976 28.8704 56.5238 28.8704C57.0494 28.8704 57.4759 28.4444 57.4759 27.9183V5.51899C57.4759 2.47559 54.9998 0 51.9569 0ZM20.9868 8.17806V5.51899C20.9868 3.52592 22.6079 1.9043 24.601 1.9043H51.9569C53.95 1.9043 55.5716 3.52592 55.5716 5.51899V8.17806H20.9868Z" fill="white"/>
<path d="M38.2084 56.3741C36.5317 56.3741 35.1675 57.7384 35.1675 59.4151C35.1675 61.0922 36.5317 62.456 38.2084 62.456C39.8851 62.456 41.2493 61.0922 41.2493 59.4151C41.2493 57.7384 39.8851 56.3741 38.2084 56.3741ZM38.2084 60.5517C37.5816 60.5517 37.0718 60.0419 37.0718 59.4151C37.0718 58.7882 37.5816 58.2784 38.2084 58.2784C38.8352 58.2784 39.345 58.7882 39.345 59.4151C39.345 60.0419 38.8352 60.5517 38.2084 60.5517Z" fill="white"/>
<path d="M39.9228 4.57031H36.2104C35.6843 4.57031 35.2583 4.9968 35.2583 5.52246C35.2583 6.04813 35.6843 6.47461 36.2104 6.47461H39.9228C40.4485 6.47461 40.875 6.04813 40.875 5.52246C40.875 4.9968 40.4485 4.57031 39.9228 4.57031Z" fill="white"/>
<path d="M43.9953 4.57623L42.8527 4.56433C42.8493 4.56433 42.8458 4.56433 42.8423 4.56433C42.3211 4.56433 41.8961 4.98437 41.8907 5.50706C41.8852 6.03272 42.3067 6.46317 42.8329 6.46863L43.9755 6.48053H43.9854C44.5066 6.48053 44.9321 6.06049 44.9376 5.5383C44.943 5.01214 44.521 4.58169 43.9953 4.57623Z" fill="white"/>
<path d="M32.4912 4.57032C31.965 4.5733 31.541 5.00771 31.544 5.53338C31.5469 6.05756 31.9724 6.48057 32.4961 6.48057H32.5011C33.0272 6.47759 33.4512 6.04913 33.4483 5.52346V5.51156C33.4453 4.98589 33.0178 4.56834 32.4912 4.57032Z" fill="white"/>
<path d="M26.5698 30.1896H29.1372C29.6628 30.1896 30.0893 29.7631 30.0893 29.2374C30.0893 28.7113 29.6628 28.2853 29.1372 28.2853H26.5698C26.0442 28.2853 25.6177 28.7113 25.6177 29.2374C25.6177 29.7631 26.0442 30.1896 26.5698 30.1896Z" fill="white"/>
<path d="M43.6733 29.2374C43.6733 29.7631 44.0993 30.1896 44.6255 30.1896H50.2531C50.7787 30.1896 51.2052 29.7631 51.2052 29.2374C51.2052 28.7113 50.7787 28.2853 50.2531 28.2853H44.6255C44.0993 28.2853 43.6733 28.7113 43.6733 29.2374Z" fill="white"/>
</svg>
