<svg width="65" height="65" viewBox="0 0 65 65" fill="none" xmlns="http://www.w3.org/2000/svg">
<g clip-path="url(#clip0_23_1474)">
<path d="M55.4811 9.51907C49.3425 3.38051 41.1811 0 32.5 0C24.2921 0 16.4549 3.0696 10.4321 8.64348C10.0462 9.0006 10.0228 9.60312 10.3801 9.98905C10.7373 10.375 11.3397 10.3983 11.7256 10.0411C17.3952 4.794 24.7731 1.9043 32.5 1.9043C40.6725 1.9043 48.3557 5.08676 54.1345 10.8655C59.9132 16.6443 63.0957 24.3275 63.0957 32.5C63.0957 40.6725 59.9132 48.3557 54.1345 54.1345C48.3557 59.9132 40.6725 63.0957 32.5 63.0957C24.3275 63.0957 16.6443 59.9132 10.8655 54.1345C5.08676 48.3557 1.9043 40.6725 1.9043 32.5C1.9043 25.1973 4.52017 18.1264 9.27012 12.5898C9.61251 12.1907 9.56655 11.5896 9.16741 11.2472C8.7684 10.9048 8.16728 10.9507 7.82476 11.3499C2.77888 17.2315 0 24.7427 0 32.5C0 41.1811 3.38051 49.3425 9.51895 55.4809C15.6575 61.6195 23.8189 65 32.5 65C41.1811 65 49.3425 61.6195 55.4811 55.4809C61.6195 49.3425 65 41.1811 65 32.5C65 23.8189 61.6195 15.6575 55.4811 9.51907Z" fill="white"/>
<path d="M22.0239 50.5942C21.4981 50.5942 21.0718 51.0205 21.0718 51.5464V53.4424C21.0718 53.9683 21.4981 54.3946 22.0239 54.3946C22.5498 54.3946 22.9761 53.9683 22.9761 53.4424V51.5464C22.9761 51.0205 22.5498 50.5942 22.0239 50.5942Z" fill="white"/>
<path d="M42.9761 50.5942C42.4502 50.5942 42.0239 51.0205 42.0239 51.5464V53.4424C42.0239 53.9683 42.4502 54.3946 42.9761 54.3946C43.5019 54.3946 43.9282 53.9683 43.9282 53.4424V51.5464C43.9282 51.0205 43.5019 50.5942 42.9761 50.5942Z" fill="white"/>
<path d="M35.7121 52.5936C35.3161 52.2474 34.7146 52.288 34.3685 52.684C33.9139 53.2041 33.2328 53.5023 32.4998 53.5023C31.7667 53.5023 31.0856 53.2039 30.631 52.6838C30.2848 52.2877 29.6834 52.2476 29.2875 52.5936C28.8915 52.9398 28.8511 53.5411 29.1972 53.9371C30.0135 54.871 31.2173 55.4066 32.4998 55.4066C33.7822 55.4066 34.9859 54.871 35.8023 53.9371C36.1484 53.5413 36.108 52.9398 35.7121 52.5936Z" fill="white"/>
<path d="M52.3392 12.6605C47.0391 7.36163 39.9933 4.44336 32.5 4.44336C25.0167 4.44336 17.9742 7.3648 12.6694 12.6695C7.3648 17.9744 4.44336 25.0169 4.44336 32.5C4.44336 39.9933 7.36163 47.0391 12.6605 52.3393C13.0275 52.7065 13.6404 52.7062 14.0071 52.3393C14.0071 52.3393 20.2875 46.059 20.2913 46.0552C20.6586 45.6879 20.6579 45.0753 20.2913 44.7087C17.0303 41.4477 15.2344 37.112 15.2344 32.5C15.2344 27.895 17.0325 23.5616 20.2979 20.2975C23.5616 17.0325 27.8952 15.2344 32.5 15.2344C36.1467 15.2344 39.5804 16.3318 42.4988 18.4187L31.5749 28.0456C29.5085 28.4741 27.9508 30.3085 27.9508 32.5C27.9508 35.0083 29.9915 37.0491 32.4999 37.0491C34.6913 37.0491 36.5257 35.4913 36.9543 33.425L40.9684 28.87C41.316 28.4755 41.278 27.8738 40.8836 27.5261C40.4893 27.1785 39.8875 27.2165 39.5398 27.6109L36.7227 30.8077C36.4672 30.1705 36.0614 29.5915 35.5531 29.1307C35.1556 28.7702 34.6906 28.4772 34.1923 28.2774C34.1923 28.2774 48.1085 16.0136 48.1102 16.0122C48.3495 15.8072 48.7179 15.8116 48.9477 16.0306C49.1863 16.2581 49.2083 16.6404 48.9877 16.8902L41.9819 24.8399C41.6343 25.2343 41.6722 25.8361 42.0667 26.1837C42.4611 26.5313 43.0629 26.4933 43.4105 26.0989L46.5809 22.5013C48.6682 25.4194 49.7656 28.8531 49.7656 32.5C49.7656 37.1118 47.9697 41.4477 44.7087 44.7087C44.3421 45.0753 44.3423 45.689 44.7087 46.0552C44.7087 46.0552 50.9883 52.3348 50.9929 52.3393C51.36 52.7065 51.9727 52.7061 52.3395 52.3393C57.6384 47.0391 60.5566 39.9934 60.5566 32.5C60.5566 25.0067 57.6385 17.9611 52.3392 12.6605ZM18.2879 45.3656L13.3459 50.3075C9.04186 45.685 6.58899 39.7631 6.36454 33.4521H13.3531C13.5693 37.8987 15.2965 42.0687 18.2879 45.3656ZM13.3533 31.5479H6.36467C6.58963 25.2458 9.04541 19.3272 13.3547 14.7012L18.2941 19.6405C15.2991 22.9393 13.5698 27.1068 13.3533 31.5479ZM31.5479 13.3532C27.1068 13.5698 22.9393 15.2991 19.6405 18.2939L14.7012 13.3547C19.3271 9.04541 25.2456 6.58963 31.5479 6.36454V13.3532ZM35.1449 32.5C35.1448 33.9385 33.9374 35.1448 32.5 35.1448C31.0416 35.1448 29.8552 33.9583 29.8552 32.5C29.8552 31.1566 30.9348 29.9848 32.2709 29.8667C33.793 29.7322 35.1449 30.9717 35.1449 32.5ZM46.8509 14.5835L43.9617 17.1297C40.8962 14.83 37.2943 13.536 33.4521 13.3527V6.36454C39.7631 6.58899 45.6848 9.04186 50.3076 13.3459L49.5025 14.1511C49.4838 14.1432 49.4641 14.1378 49.4452 14.1303C48.5805 13.7917 47.5493 13.9681 46.8509 14.5835ZM47.8702 21.0384L50.4158 18.1499C50.6804 17.8502 50.8743 17.4784 50.9703 17.0906C51.1004 16.565 51.0589 15.9971 50.8489 15.4975L51.6539 14.6925C55.958 19.315 58.4108 25.2369 58.6352 31.5479H51.6471C51.464 27.7052 50.1702 24.104 47.8702 21.0384ZM51.6541 50.3076L46.7121 45.3657C49.7035 42.0687 51.4307 37.8988 51.6469 33.4523H58.6355C58.411 39.7631 55.9581 45.685 51.6541 50.3076Z" fill="white"/>
</g>
<defs>
<clipPath id="clip0_23_1474">
<rect width="65" height="65" fill="white"/>
</clipPath>
</defs>
</svg>
