<svg width="65" height="65" viewBox="0 0 65 65" fill="none" xmlns="http://www.w3.org/2000/svg">
<g clip-path="url(#clip0_23_1448)">
<path d="M32.5002 8.125C31.7527 8.125 31.146 7.51833 31.146 6.77083V1.35417C31.146 0.606667 31.7527 0 32.5002 0C33.2477 0 33.8543 0.606667 33.8543 1.35417V6.77083C33.8543 7.51833 33.2477 8.125 32.5002 8.125Z" fill="white"/>
<path d="M50.6947 15.6595C50.348 15.6595 50.0014 15.5268 49.7359 15.2641C49.2078 14.736 49.2078 13.8775 49.7359 13.3493L53.5655 9.51975C54.0936 8.99163 54.9522 8.99163 55.4803 9.51975C56.0084 10.0479 56.0084 10.9064 55.4803 11.4345L51.6507 15.2641C51.388 15.5268 51.0414 15.6595 50.6947 15.6595Z" fill="white"/>
<path d="M63.6458 33.8542H58.2292C57.4817 33.8542 56.875 33.2475 56.875 32.5C56.875 31.7525 57.4817 31.1459 58.2292 31.1459H63.6458C64.3933 31.1459 65 31.7525 65 32.5C65 33.2475 64.3933 33.8542 63.6458 33.8542Z" fill="white"/>
<path d="M54.5243 55.8783C54.1776 55.8783 53.8309 55.7456 53.5655 55.4829L49.7359 51.6533C49.2078 51.1252 49.2078 50.2666 49.7359 49.7385C50.2641 49.2104 51.1226 49.2104 51.6507 49.7385L55.4803 53.5681C56.0084 54.0962 56.0084 54.9548 55.4803 55.4829C55.2176 55.7456 54.8709 55.8783 54.5243 55.8783Z" fill="white"/>
<path d="M32.5002 65C31.7527 65 31.146 64.3933 31.146 63.6458V58.2292C31.146 57.4817 31.7527 56.875 32.5002 56.875C33.2477 56.875 33.8543 57.4817 33.8543 58.2292V63.6458C33.8543 64.3933 33.2477 65 32.5002 65Z" fill="white"/>
<path d="M10.4759 55.8783C10.1293 55.8783 9.7826 55.7456 9.51719 55.4829C8.98906 54.9548 8.98906 54.0962 9.51719 53.5681L13.3468 49.7385C13.8749 49.2104 14.7334 49.2104 15.2616 49.7385C15.7897 50.2666 15.7897 51.1252 15.2616 51.6533L11.432 55.4829C11.1693 55.7456 10.8226 55.8783 10.4759 55.8783Z" fill="white"/>
<path d="M6.77083 33.8542H1.35417C0.606667 33.8542 0 33.2475 0 32.5C0 31.7525 0.606667 31.1459 1.35417 31.1459H6.77083C7.51833 31.1459 8.125 31.7525 8.125 32.5C8.125 33.2475 7.51833 33.8542 6.77083 33.8542Z" fill="white"/>
<path d="M14.3053 15.6595C13.9586 15.6595 13.6119 15.5268 13.3465 15.2641L9.51963 11.4345C8.9915 10.9064 8.9915 10.0479 9.51963 9.51975C10.0478 8.99163 10.9063 8.99163 11.4344 9.51975L15.264 13.3493C15.7921 13.8775 15.7921 14.736 15.264 15.2641C14.9986 15.5268 14.6519 15.6595 14.3053 15.6595Z" fill="white"/>
<path d="M28.6352 54.1667C28.4754 54.1667 28.3183 54.1396 28.1612 54.0827C27.5681 53.8607 27.2079 53.2594 27.2919 52.6365L29.6021 35.2084H20.3125C19.8006 35.2084 19.3321 34.9186 19.1019 34.4609C18.8716 34.0032 18.9204 33.4534 19.2291 33.0417L35.4791 11.375C35.8556 10.8713 36.5246 10.6925 37.096 10.9417C37.6702 11.1882 38.0033 11.7921 37.9004 12.4096L35.4521 27.0834H44.6875C45.1858 27.0834 45.6435 27.3569 45.8791 27.7957C46.1148 28.2344 46.0904 28.7652 45.8196 29.185L29.7673 53.56C29.51 53.9473 29.0794 54.1667 28.6352 54.1667ZM23.0208 32.5H31.1458C31.5385 32.5 31.9069 32.6707 32.1641 32.9632C32.4214 33.2529 32.5406 33.6457 32.4891 34.0329L30.7531 47.1359L42.1741 29.7917H33.8541C33.456 29.7917 33.0796 29.6184 32.8196 29.3123C32.5623 29.009 32.4512 28.6054 32.5189 28.2154L34.3146 17.4417L23.0208 32.5Z" fill="white"/>
</g>
<defs>
<clipPath id="clip0_23_1448">
<rect width="65" height="65" fill="white"/>
</clipPath>
</defs>
</svg>
