<svg width="65" height="65" viewBox="0 0 65 65" fill="none" xmlns="http://www.w3.org/2000/svg">
<g clip-path="url(#clip0_23_1436)">
<path d="M29.7332 51.416C29.4556 51.1575 29.2268 50.8557 29.0535 50.5187L27.4725 47.4454C27.2312 46.9765 26.6556 46.792 26.1866 47.0332C25.7178 47.2745 25.5332 47.8502 25.7744 48.319L27.3554 51.3923C27.6301 51.9263 27.9925 52.4046 28.4324 52.814L34.6145 58.5648V64.0453C34.6145 64.5728 35.0418 65.0001 35.5693 65.0001C36.0967 65.0001 36.524 64.5728 36.524 64.0453V58.149C36.524 57.8838 36.4138 57.6306 36.2195 57.4499L29.7332 51.416Z" fill="white"/>
<path d="M25.6032 43.8118L21.3635 35.5705C21.3608 35.5653 21.358 35.5601 21.3552 35.5548C21.0038 34.9019 21.1614 34.0824 21.7298 33.6063C22.3364 33.0982 23.2304 33.1218 23.8094 33.6614L29.4108 38.8808C29.6889 39.1399 30.094 39.2094 30.4426 39.0578C30.791 38.9063 31.0165 38.5623 31.0165 38.1823V25.9219C31.0165 25.3945 30.589 24.9672 30.0617 24.9672C29.5344 24.9672 29.1069 25.3945 29.1069 25.9219V35.9874L25.1112 32.2643C23.8286 31.0691 21.8478 31.0167 20.5039 32.1423C19.2468 33.1951 18.8967 35.0058 19.6692 36.4512L23.9052 44.6854C24.0747 45.0146 24.4087 45.2036 24.7551 45.2036C24.9021 45.2036 25.0513 45.1694 25.1911 45.0976C25.6597 44.8564 25.8443 44.2807 25.6032 43.8118Z" fill="white"/>
<path d="M52.3539 22.9328C51.0745 22.9328 49.9292 23.5163 49.1692 24.431C48.4093 23.5163 47.2638 22.9328 45.9845 22.9328C44.7052 22.9328 43.5599 23.5163 42.7998 24.431C42.04 23.5163 40.8945 22.9328 39.6152 22.9328C38.7945 22.9328 38.0295 23.1739 37.3853 23.5875V15.9889C37.3853 13.7065 35.5283 11.8495 33.2458 11.8495C30.9633 11.8495 29.1064 13.7065 29.1064 15.9889V21.853C29.1064 22.3804 29.5339 22.8077 30.0612 22.8077C30.5885 22.8077 31.016 22.3804 31.016 21.853V15.9889C31.016 14.7594 32.0164 13.7591 33.2459 13.7591C34.4754 13.7591 35.4758 14.7593 35.4758 15.9889V32.9476C35.4758 33.475 35.9031 33.9024 36.4305 33.9024C36.958 33.9024 37.3853 33.475 37.3853 32.9476V27.0722C37.3853 25.8427 38.3856 24.8423 39.6152 24.8423C40.8448 24.8423 41.8451 25.8426 41.8451 27.0722V32.9422C41.8451 33.4696 42.2724 33.897 42.7998 33.897C43.3273 33.897 43.7546 33.4696 43.7546 32.9422V27.0722C43.7546 25.8427 44.7549 24.8423 45.9845 24.8423C47.2141 24.8423 48.2144 25.8426 48.2144 27.0722V32.9422C48.2144 33.4696 48.6417 33.897 49.1692 33.897C49.6966 33.897 50.1239 33.4696 50.1239 32.9422V27.0722C50.1239 25.8427 51.1243 24.8423 52.3539 24.8423C53.5836 24.8423 54.5838 25.8426 54.5838 27.0722V52.6554C54.5838 53.1415 54.4545 53.6208 54.2099 54.0411L52.6768 56.6758C52.592 56.8217 52.5472 56.9873 52.5472 57.156V63.9162C52.5472 64.4436 52.9746 64.871 53.502 64.871C54.0294 64.871 54.4568 64.4436 54.4568 63.9162V57.4136L55.8603 55.0015C56.2744 54.2898 56.4933 53.4786 56.4933 52.6554V27.0722C56.4934 24.7898 54.6365 22.9328 52.3539 22.9328Z" fill="white"/>
<path d="M41.1271 13.4317C41.1271 15.1886 40.5619 16.8531 39.4925 18.2454C39.1714 18.6636 39.2499 19.263 39.6681 19.5843C39.8415 19.7175 40.0461 19.7819 40.249 19.7819C40.5356 19.7819 40.8191 19.6534 41.007 19.4086C42.3349 17.6798 43.0366 15.613 43.0366 13.4318C43.0366 11.9239 42.7027 10.4755 42.0442 9.1271C41.813 8.65314 41.2412 8.45646 40.7673 8.68815C40.2935 8.91947 40.0969 9.49132 40.3283 9.96502C40.8583 11.0502 41.1271 12.2165 41.1271 13.4317Z" fill="white"/>
<path d="M25.4916 19.4983C25.68 19.7379 25.96 19.8628 26.2427 19.8628C26.4493 19.8628 26.6573 19.7961 26.8324 19.6584C27.2469 19.3324 27.3186 18.7323 26.9925 18.3178C25.886 16.9109 25.3012 15.2215 25.3012 13.4317C25.3012 9.06847 28.8509 5.5187 33.2142 5.5187C34.9696 5.5187 36.6331 6.08317 38.0248 7.15088C38.443 7.47181 39.0426 7.39275 39.3635 6.97456C39.6844 6.55623 39.6055 5.95688 39.1872 5.63582C37.459 4.30982 35.3936 3.60913 33.2142 3.60913C27.798 3.60913 23.3916 8.01553 23.3916 13.4317C23.3916 15.6538 24.1177 17.7515 25.4916 19.4983Z" fill="white"/>
<path d="M23.7927 26.6862C23.9606 26.8057 24.154 26.8634 24.3457 26.8634C24.6441 26.8634 24.938 26.7237 25.1243 26.4622C25.4302 26.0327 25.3299 25.4365 24.9004 25.1307C21.12 22.439 18.8632 18.0657 18.8632 13.4318C18.8632 8.79806 21.1202 4.42451 24.9004 1.73291C25.33 1.42712 25.4302 0.830952 25.1243 0.401299C24.8185 -0.0282271 24.2223 -0.128543 23.7928 0.17737C19.5103 3.22657 16.9536 8.18153 16.9536 13.4318C16.9535 18.6821 19.5101 23.6371 23.7927 26.6862Z" fill="white"/>
<path d="M41.528 1.73266C45.3083 4.42439 47.5652 8.79782 47.5652 13.4316C47.5652 15.2818 47.2183 17.0826 46.5343 18.7833C46.3375 19.2727 46.5746 19.8288 47.0638 20.0255C47.1807 20.0724 47.3011 20.0947 47.4199 20.0947C47.7981 20.0947 48.1562 19.8684 48.3059 19.496C49.0816 17.5676 49.4748 15.5271 49.4748 13.4316C49.4748 8.18128 46.9182 3.22633 42.6356 0.177126C42.2057 -0.128787 41.6097 -0.0284712 41.304 0.401055C40.9982 0.830708 41.0984 1.42688 41.528 1.73266Z" fill="white"/>
<path d="M11.3002 7.44472C11.4884 7.64675 11.7434 7.74898 11.9993 7.74898C12.2322 7.74898 12.4657 7.66419 12.6497 7.49297C13.0357 7.13372 13.0573 6.52953 12.6979 6.14354L10.6215 3.91316C10.2619 3.52717 9.65789 3.50579 9.27203 3.86491C8.88604 4.22417 8.8644 4.82835 9.22378 5.21434L11.3002 7.44472Z" fill="white"/>
<path d="M11.3002 16.9101L9.22374 19.1404C8.86449 19.5262 8.886 20.1304 9.27186 20.4898C9.45582 20.661 9.68929 20.7458 9.92226 20.7458C10.178 20.7458 10.4331 20.6436 10.6213 20.4416L12.6978 18.2113C13.057 17.8255 13.0355 17.2213 12.6496 16.8619C12.2638 16.5029 11.6597 16.5243 11.3002 16.9101Z" fill="white"/>
<path d="M11.999 10.8381H9.46113C8.93384 10.8381 8.50635 11.2655 8.50635 11.7929C8.50635 12.3203 8.93384 12.7477 9.46113 12.7477H11.9991C12.5264 12.7477 12.9539 12.3203 12.9539 11.7929C12.9539 11.2655 12.5262 10.8381 11.999 10.8381Z" fill="white"/>
</g>
<defs>
<clipPath id="clip0_23_1436">
<rect width="65" height="65" fill="white"/>
</clipPath>
</defs>
</svg>
