<svg width="65" height="65" viewBox="0 0 65 65" fill="none" xmlns="http://www.w3.org/2000/svg">
<mask id="mask0_23_1620" style="mask-type:luminance" maskUnits="userSpaceOnUse" x="0" y="0" width="65" height="65">
<path d="M0 7.62939e-06H65V65H0V7.62939e-06Z" fill="white"/>
</mask>
<g mask="url(#mask0_23_1620)">
<path d="M31.7891 26.8426C31.263 27.3099 30.8737 27.868 30.6208 28.47C30.3166 29.1937 29.3703 29.3705 28.8153 28.8155L24.6904 24.6906C22.9056 22.9059 20.0118 22.9059 18.2271 24.6906L14.1023 28.8155C13.5472 29.3705 12.6008 29.1937 12.2967 28.47C12.0439 27.868 11.6545 27.3099 11.1284 26.8426C9.44805 25.3501 6.8756 25.3364 5.18103 26.8128C3.1885 28.5486 3.11068 31.5749 4.94731 33.4117C5.37108 33.8353 5.8582 34.157 6.37807 34.3768C7.10475 34.6837 7.28985 35.6279 6.73201 36.1857L2.60718 40.3106C0.822346 42.0954 0.822346 44.9892 2.60718 46.774L6.72249 50.8892C7.27487 51.4417 8.21749 51.2702 8.52446 50.5519C8.7804 49.9535 9.17155 49.3991 9.69802 48.9354C11.3789 47.4552 13.9409 47.4474 15.6299 48.9184C17.6228 50.6541 17.7009 53.6808 15.8641 55.5176C15.4476 55.9342 14.97 56.2522 14.46 56.4717C13.7379 56.7827 13.5556 57.7223 14.1117 58.2784L18.2271 62.3938C20.0118 64.1786 22.9056 64.1786 24.6904 62.3938L28.8057 58.2785C29.3581 57.7261 29.1867 56.7835 28.4684 56.4765C27.87 56.2207 27.3157 55.8296 26.8519 55.303C25.3716 53.6222 25.3639 51.0602 26.8348 49.3712C28.5705 47.3782 31.5973 47.3 33.4342 49.1368C33.8506 49.5534 34.1686 50.031 34.3882 50.5408C34.6993 51.2631 35.6389 51.4454 36.1949 50.8894L40.3103 46.774C42.0952 44.9892 42.0952 42.0954 40.3103 40.3106L36.1854 36.1856C35.6276 35.6278 35.8128 34.6837 36.5393 34.3768C37.0593 34.157 37.5463 33.8353 37.9701 33.4115C39.8069 31.5749 39.7289 28.5486 37.7365 26.8128C36.0419 25.3364 33.4695 25.3501 31.7891 26.8426Z" stroke="white" stroke-width="2" stroke-miterlimit="10" stroke-linecap="round" stroke-linejoin="round"/>
<path d="M60.7843 26.2975L58.2676 28.8142C57.7126 29.3693 57.8894 30.3157 58.6131 30.6198C59.2149 30.8726 59.7732 31.262 60.2405 31.7881C61.7329 33.4686 61.7466 36.0409 60.2703 37.7355C58.5345 39.728 55.5082 39.806 53.6714 37.9692C53.2476 37.5454 52.9261 37.0583 52.7063 36.5384C52.3992 35.8118 51.4552 35.6267 50.8974 36.1845L46.7725 40.3093C44.9877 42.0942 42.0939 42.0942 40.3091 40.3093" stroke="white" stroke-width="2" stroke-miterlimit="10" stroke-linecap="round" stroke-linejoin="round"/>
<path d="M24.6892 24.6896C22.9044 22.9047 22.9044 20.011 24.6892 18.2261L28.8045 14.1108C29.3569 13.5585 30.2995 13.73 30.6066 14.4483C30.8624 15.0466 31.2536 15.601 31.7801 16.0646C33.4609 17.5449 36.0228 17.5528 37.7118 16.0818C39.705 14.3461 39.783 11.3194 37.9462 9.4825C37.5296 9.06596 37.052 8.74795 36.5422 8.52832C35.82 8.21741 35.6376 7.2777 36.1937 6.72177L40.3091 2.60634C42.0939 0.821502 44.9876 0.821502 46.7725 2.60634L50.8974 6.73117C51.4552 7.289 52.3993 7.1039 52.7064 6.37722C52.926 5.85735 53.2477 5.37023 53.6715 4.94646C55.5081 3.10983 58.5344 3.18765 60.2702 5.18018C61.7466 6.87475 61.7329 9.44708 60.2404 11.1276C59.7732 11.6536 59.215 12.043 58.613 12.2959C57.8894 12.6 57.7125 13.5464 58.2675 14.1014L60.6992 16.533" stroke="white" stroke-width="2" stroke-miterlimit="10" stroke-linecap="round" stroke-linejoin="round"/>
</g>
</svg>
