<svg width="65" height="65" viewBox="0 0 65 65" fill="none" xmlns="http://www.w3.org/2000/svg">
<g clip-path="url(#clip0_23_1524)">
<mask id="mask0_23_1524" style="mask-type:luminance" maskUnits="userSpaceOnUse" x="0" y="0" width="65" height="65">
<path d="M0 7.62939e-06H65V65H0V7.62939e-06Z" fill="white"/>
</mask>
<g mask="url(#mask0_23_1524)">
<path d="M12.8628 40.8267V42.0018C12.8628 42.4968 12.4615 42.8979 11.9665 42.8979H11.8271" stroke="white" stroke-width="2" stroke-miterlimit="10" stroke-linecap="round" stroke-linejoin="round"/>
<path d="M4.45801 58.4655V64.0479" stroke="white" stroke-width="2" stroke-miterlimit="10" stroke-linecap="round" stroke-linejoin="round"/>
<path d="M52.1367 40.8267V42.0018C52.1367 42.4968 52.538 42.8979 53.033 42.8979H53.1724" stroke="white" stroke-width="2" stroke-miterlimit="10" stroke-linecap="round" stroke-linejoin="round"/>
<path d="M60.5415 58.4655V64.0479" stroke="white" stroke-width="2" stroke-miterlimit="10" stroke-linecap="round" stroke-linejoin="round"/>
<path d="M33.0438 20.2314V22.0053C33.0438 22.7525 32.4381 23.3582 31.6908 23.3582H31.4805" stroke="white" stroke-width="2" stroke-miterlimit="10" stroke-linecap="round" stroke-linejoin="round"/>
<path d="M19.9937 46.8576V64.0477" stroke="white" stroke-width="2" stroke-miterlimit="10" stroke-linecap="round" stroke-linejoin="round"/>
<path d="M23.5803 17.1536H21.8644C20.6996 17.1536 19.7554 18.0979 19.7554 19.2627C19.7554 21.5517 21.6108 23.4071 23.8996 23.4071H23.9794" stroke="white" stroke-width="2" stroke-miterlimit="10" stroke-linecap="round" stroke-linejoin="round"/>
<path d="M40.5449 23.4072H40.6245C42.9135 23.4072 44.7689 21.5517 44.7689 19.2628C44.7689 18.098 43.8246 17.1538 42.6598 17.1538H40.9439" stroke="white" stroke-width="2" stroke-miterlimit="10" stroke-linecap="round" stroke-linejoin="round"/>
<path d="M27.1391 32.5901L32.2619 36.0052L28.9275 39.3397C28.8391 39.428 28.6919 39.4136 28.6226 39.3095L25.3413 34.3879C25.289 34.3093 25.2993 34.2045 25.3662 34.1378L26.889 32.6148C26.9559 32.5481 27.0605 32.5376 27.1391 32.5901Z" stroke="white" stroke-width="2" stroke-miterlimit="10" stroke-linecap="round" stroke-linejoin="round"/>
<path d="M37.385 32.5901L32.2622 36.0052L35.5966 39.3397C35.685 39.428 35.8323 39.4136 35.9016 39.3095L39.1828 34.3879C39.2351 34.3093 39.2248 34.2045 39.158 34.1378L37.6351 32.6148C37.5683 32.5481 37.4636 32.5376 37.385 32.5901Z" stroke="white" stroke-width="2" stroke-miterlimit="10" stroke-linecap="round" stroke-linejoin="round"/>
<path d="M32.4543 56.7927L35.7187 52.6403C35.7497 52.6008 35.763 52.5503 35.7552 52.5005L34.0147 41.2633H30.5093L28.7688 52.5005C28.761 52.5503 28.7743 52.6008 28.8053 52.6403L32.0699 56.7927C32.1678 56.9172 32.3565 56.9172 32.4543 56.7927Z" stroke="white" stroke-width="2" stroke-miterlimit="10" stroke-linecap="round" stroke-linejoin="round"/>
<path d="M23.7451 19.7385L23.9823 23.4556C24.2609 27.8238 27.8851 31.2241 32.2621 31.2241C36.6392 31.2241 40.2634 27.8238 40.5422 23.4556L40.7408 20.3412" stroke="white" stroke-width="2" stroke-miterlimit="10" stroke-linecap="round" stroke-linejoin="round"/>
<path d="M27.3011 13.3693C29.4109 14.4243 31.7373 14.9734 34.0963 14.9734H37.2396C37.4135 14.9734 37.5748 15.0646 37.6641 15.2138L40.7406 20.3412L41.1535 13.8696C41.481 8.73615 37.4058 4.3927 32.2619 4.3927C31.9136 4.3927 29.3488 4.33278 26.9058 6.18147C26.7169 6.32442 26.6724 6.58899 26.8038 6.78615C27.0067 7.09046 27.2862 7.50978 27.3874 7.66162L27.0742 7.19176C26.9454 6.99854 26.7362 6.87387 26.505 6.85255C26.2738 6.83122 26.0453 6.91564 25.8833 7.08195C24.1896 8.81918 23.2028 11.2408 23.3705 13.8695L23.7449 19.7385C24.9744 17.2796 26.3992 14.4301 26.8555 13.5177C26.9376 13.3536 27.1371 13.2873 27.3011 13.3693Z" stroke="white" stroke-width="2" stroke-miterlimit="10" stroke-linecap="round" stroke-linejoin="round"/>
<path d="M51.7798 14.9734L50.5695 30.7061C50.5414 31.0726 50.2856 31.3814 49.931 31.4774L39.1826 34.3878" stroke="white" stroke-width="2" stroke-miterlimit="10" stroke-linecap="round" stroke-linejoin="round"/>
<path d="M58.7905 23.2535V14.9733" stroke="white" stroke-width="2" stroke-miterlimit="10" stroke-linecap="round" stroke-linejoin="round"/>
<path d="M25.6003 34.7759C25.3996 34.8706 25.1874 34.9469 24.9658 35.0023L19.8206 36.2885C17.0256 36.9873 15.0649 39.4985 15.0649 42.3795V63.9055C15.0649 63.9841 15.1287 64.0477 15.2071 64.0477H44.6267C44.7053 64.0477 44.7691 63.9841 44.7691 63.9055L44.7689 42.3841C44.7689 42.065 44.9794 41.7842 45.2859 41.695L55.3425 38.7631C57.3855 38.1674 58.7903 36.2946 58.7903 34.1665V27.6971" stroke="white" stroke-width="2" stroke-miterlimit="10" stroke-linecap="round" stroke-linejoin="round"/>
<path d="M56.6589 0.952056H53.9111C52.7339 0.952056 51.7797 1.90636 51.7797 3.08347V9.71538V9.31725C51.7797 7.60123 50.3886 6.21007 48.6725 6.21007H48.602C48.421 6.21007 48.2744 6.3567 48.2744 6.53761V11.9462C48.2744 13.618 49.6296 14.9733 51.3015 14.9733H58.7903V3.08347C58.7903 1.90636 57.836 0.952056 56.6589 0.952056Z" stroke="white" stroke-width="2" stroke-miterlimit="10" stroke-linecap="round" stroke-linejoin="round"/>
<path d="M44.769 43.016V37.758" stroke="white" stroke-width="2" stroke-miterlimit="10" stroke-linecap="round" stroke-linejoin="round"/>
<path d="M51.7798 20.2313H55.2851" stroke="white" stroke-width="2" stroke-miterlimit="10" stroke-linecap="round" stroke-linejoin="round"/>
<path d="M58.4253 38.4899C58.4593 37.9564 58.4979 37.3517 58.545 36.6122C58.5646 36.3072 58.5605 36.0064 58.5347 35.7116" stroke="white" stroke-width="2" stroke-miterlimit="10" stroke-linecap="round" stroke-linejoin="round"/>
<path d="M47.0557 41.1789C47.0958 41.8083 47.1345 42.4138 47.1694 42.9626C47.3541 45.8562 49.7549 48.1088 52.6546 48.1088C55.4973 48.1088 57.8606 45.9437 58.1262 43.1319" stroke="white" stroke-width="2" stroke-miterlimit="10" stroke-linecap="round" stroke-linejoin="round"/>
<path d="M44.627 64.0479H63.9573C64.0069 64.0479 64.0471 64.0077 64.0471 63.9581V55.499C64.0471 53.5903 62.7482 51.9267 60.8966 51.4639L57.4883 50.6119C56.4652 50.3561 55.7618 49.4386 55.7618 48.4006V47.1468" stroke="white" stroke-width="2" stroke-miterlimit="10" stroke-linecap="round" stroke-linejoin="round"/>
<path d="M49.5477 47.1467V48.4005C49.5477 49.4385 48.8442 50.3561 47.8212 50.6118L44.769 51.3749" stroke="white" stroke-width="2" stroke-miterlimit="10" stroke-linecap="round" stroke-linejoin="round"/>
<path d="M6.5713 35.0011C6.46136 35.5172 6.41921 36.0576 6.45463 36.6123C6.64049 39.5257 6.69292 40.3479 6.85974 42.9626C7.04446 45.8562 9.44527 48.1089 12.3449 48.1089C13.3319 48.1089 14.2612 47.8476 15.0648 47.3892" stroke="white" stroke-width="2" stroke-miterlimit="10" stroke-linecap="round" stroke-linejoin="round"/>
<path d="M18.2148 36.9358C18.2218 36.8261 18.2287 36.7182 18.2354 36.6124C18.4525 33.2117 15.7527 30.3342 12.3451 30.3342C11.0714 30.3344 9.89443 30.7376 8.93213 31.4212" stroke="white" stroke-width="2" stroke-miterlimit="10" stroke-linecap="round" stroke-linejoin="round"/>
<path d="M9.23798 47.1467V48.4005C9.23798 49.4385 8.53453 50.3561 7.51154 50.6118L4.10311 51.4639C2.25162 51.9268 0.952637 53.5903 0.952637 55.4988V63.958C0.952637 64.0076 0.992881 64.0477 1.04239 64.0477H15.2073" stroke="white" stroke-width="2" stroke-miterlimit="10" stroke-linecap="round" stroke-linejoin="round"/>
<path d="M9.37651 10.0081L10.4919 9.45035C11.9547 8.71897 13.1407 7.53285 13.872 6.07009L14.4298 4.95481C14.4818 4.85058 14.6307 4.85058 14.6829 4.95481L15.2405 6.07009C15.9719 7.53285 17.158 8.71897 18.6207 9.45035L19.736 10.0081C19.8404 10.0602 19.8404 10.209 19.736 10.2612L18.6207 10.8188C17.158 11.5502 15.9719 12.7363 15.2405 14.199L14.6829 15.3143C14.6307 15.4187 14.4818 15.4187 14.4298 15.3143L13.872 14.199C13.1407 12.7363 11.9547 11.5502 10.4919 10.8188L9.37651 10.2612C9.27228 10.209 9.27228 10.0602 9.37651 10.0081Z" stroke="white" stroke-width="2" stroke-miterlimit="10" stroke-linecap="round" stroke-linejoin="round"/>
<path d="M5.52665 21.0023L6.45607 20.5375C7.67508 19.9281 8.66341 18.9396 9.27291 17.7206L9.73768 16.7913C9.7811 16.7044 9.90513 16.7044 9.94868 16.7913L10.4133 17.7206C11.0228 18.9396 12.0112 19.9281 13.2302 20.5375L14.1596 21.0023C14.2465 21.0457 14.2465 21.1697 14.1596 21.2132L13.2302 21.6779C12.0112 22.2874 11.0228 23.2759 10.4133 24.4947L9.94868 25.4242C9.90513 25.5111 9.7811 25.5111 9.73768 25.4242L9.27291 24.4947C8.66341 23.2759 7.67508 22.2874 6.45607 21.6779L5.52665 21.2132C5.43969 21.1697 5.43969 21.0457 5.52665 21.0023Z" stroke="white" stroke-width="2" stroke-miterlimit="10" stroke-linecap="round" stroke-linejoin="round"/>
<path d="M37.1308 32.7594C37.0146 32.4136 36.9521 32.0449 36.9521 31.6644V29.7717" stroke="white" stroke-width="2" stroke-miterlimit="10" stroke-linecap="round" stroke-linejoin="round"/>
<path d="M27.5722 29.7717V31.6644C27.5722 32.0449 27.5097 32.4136 27.3936 32.7594" stroke="white" stroke-width="2" stroke-miterlimit="10" stroke-linecap="round" stroke-linejoin="round"/>
<path d="M34.0146 41.2633L34.891 38.6344" stroke="white" stroke-width="2" stroke-miterlimit="10" stroke-linecap="round" stroke-linejoin="round"/>
<path d="M29.6333 38.6342L30.5097 41.2632" stroke="white" stroke-width="2" stroke-miterlimit="10" stroke-linecap="round" stroke-linejoin="round"/>
</g>
</g>
<defs>
<clipPath id="clip0_23_1524">
<rect width="65" height="65" fill="white"/>
</clipPath>
</defs>
</svg>
