<svg width="95" height="95" viewBox="0 0 95 95" fill="none" xmlns="http://www.w3.org/2000/svg">
<circle cx="47.5" cy="47.5" r="47.5" fill="#363535"/>
<g clip-path="url(#clip0_23_1689)">
<path d="M43.4196 67.0625C39.5309 67.0757 35.7337 65.8832 32.5508 63.6492C32.4357 63.5685 32.3446 63.4582 32.2869 63.33C32.2293 63.2018 32.2073 63.0604 32.2233 62.9207C32.2393 62.781 32.2927 62.6483 32.3778 62.5364C32.463 62.4246 32.5767 62.3378 32.7071 62.2851C34.1122 61.7196 35.4223 60.9418 36.5914 59.9789C35.6006 59.2627 34.6845 58.4485 33.8571 57.5484C33.7867 57.472 33.7322 57.3824 33.6969 57.2847C33.6616 57.1871 33.6461 57.0833 33.6513 56.9796C33.6565 56.8758 33.6824 56.7742 33.7274 56.6806C33.7724 56.587 33.8356 56.5033 33.9133 56.4344C33.2455 56.106 32.6209 55.6961 32.0539 55.214C31.9932 55.1631 31.9405 55.1034 31.8977 55.0367C31.2603 54.0466 30.7212 52.9966 30.2883 51.9015C30.2484 51.7999 30.2303 51.691 30.2351 51.5819C30.2399 51.4728 30.2676 51.3659 30.3162 51.2682C30.3649 51.1704 30.4335 51.0839 30.5176 51.0143C30.6018 50.9447 30.6996 50.8935 30.8047 50.8641C30.8657 50.8469 30.9243 50.8289 30.9805 50.8101C30.5997 50.6217 30.234 50.4042 29.8868 50.1594C29.7318 50.0529 29.6208 49.8938 29.5742 49.7117C29.2109 48.2731 29.0285 46.7947 29.0313 45.3109C29.0302 44.3496 29.1086 43.3898 29.2657 42.4414C29.2909 42.2909 29.3596 42.1512 29.4633 42.0393C29.567 41.9275 29.7013 41.8484 29.8494 41.8119C29.9975 41.7755 30.1531 41.7832 30.2969 41.8341C30.4407 41.885 30.5664 41.9769 30.6586 42.0984C31.9994 43.8449 33.7047 45.2782 35.6558 46.2985C37.6069 47.3188 39.757 47.9016 41.9563 48.0062C42.1938 45.5103 43.3585 43.1942 45.2204 41.5152C47.0824 39.8362 49.5062 38.9164 52.0133 38.9375C53.7127 38.937 55.3857 39.3584 56.8821 40.164C58.2446 40.9012 59.4177 41.9441 60.3094 43.2109C61.2867 42.8145 62.1512 42.1834 62.8266 41.3734C62.9209 41.2358 63.0567 41.132 63.2143 41.0771C63.3718 41.0223 63.5428 41.0193 63.7022 41.0686C63.8615 41.118 64.0009 41.217 64.0999 41.3513C64.1989 41.4856 64.2524 41.648 64.2524 41.8148C64.2446 42.5087 64.1443 43.1983 63.9539 43.8656C64.1492 43.8035 64.361 43.8215 64.543 43.9156C64.6886 43.99 64.8071 44.1082 64.882 44.2536C64.9568 44.3989 64.9842 44.5641 64.9602 44.7258C64.9399 44.8625 64.4594 47.9359 62.0844 49.4578C61.9318 53.6788 60.2977 57.7112 57.4688 60.8476C55.693 62.8098 53.5247 64.377 51.1044 65.4476C48.6842 66.5183 46.066 67.0684 43.4196 67.0625ZM34.6235 63.1266C38.0718 65.1367 42.1053 65.9033 46.0506 65.2985C49.996 64.6937 53.6146 62.7539 56.3024 59.8031C58.92 56.9017 60.418 53.1624 60.5274 49.2562C60.5352 49.1453 60.5344 49.0742 60.5344 49.0031C60.5345 48.8598 60.5739 48.7193 60.6485 48.597C60.723 48.4746 60.8298 48.3751 60.9571 48.3094C61.8636 47.7885 62.5659 46.9746 62.9485 46.0015C62.6486 46.0587 62.3443 46.0895 62.0391 46.0937C61.8621 46.0941 61.6903 46.0344 61.5517 45.9243C61.413 45.8143 61.3159 45.6604 61.2762 45.488C61.2364 45.3155 61.2564 45.1347 61.3328 44.9751C61.4093 44.8154 61.5376 44.6865 61.6969 44.6094C61.9659 44.4462 62.1716 44.1967 62.2805 43.9015C61.6603 44.2859 61.0133 44.6253 60.3446 44.9172C60.1703 44.9944 59.9738 45.0053 59.792 44.9478C59.6103 44.8902 59.4559 44.7682 59.3578 44.6047C58.5777 43.3123 57.4665 42.2518 56.1391 41.5328C54.8706 40.8523 53.4529 40.4974 52.0133 40.5C49.7818 40.4733 47.6307 41.3326 46.0319 42.8896C44.4331 44.4465 43.5169 46.574 43.4844 48.8055C43.4844 49.0127 43.4021 49.2114 43.2556 49.3579C43.1091 49.5044 42.9104 49.5867 42.7032 49.5867C40.4469 49.5868 38.2138 49.1324 36.137 48.2505C34.0602 47.3687 32.1824 46.0774 30.6157 44.4539C30.6016 44.7367 30.5938 45.0226 30.5938 45.3133C30.593 46.5683 30.7367 47.8192 31.0219 49.0414C31.6005 49.4485 32.2685 49.7106 32.9696 49.8055C33.1151 49.8186 33.254 49.8724 33.3705 49.9605C33.487 50.0487 33.5765 50.1678 33.6287 50.3042C33.6809 50.4407 33.6939 50.589 33.666 50.7325C33.6382 50.8759 33.5706 51.0086 33.4711 51.1156C33.0629 51.5194 32.5824 51.843 32.0547 52.0695C32.3721 52.7685 32.7375 53.4446 33.1485 54.093C33.9032 54.7719 34.8342 55.2241 35.8344 55.3976C35.9801 55.4109 36.1191 55.4647 36.2357 55.5531C36.3523 55.6414 36.4417 55.7607 36.4938 55.8974C36.5459 56.0341 36.5586 56.1827 36.5304 56.3262C36.5023 56.4698 36.4343 56.6025 36.3344 56.7094C36.1461 56.8997 35.9384 57.0699 35.7149 57.2172C36.5023 57.9757 37.3627 58.6545 38.2836 59.2437C38.3838 59.3078 38.468 59.3939 38.5298 59.4954C38.5916 59.5969 38.6295 59.7112 38.6405 59.8295C38.6515 59.9479 38.6353 60.0672 38.5933 60.1784C38.5512 60.2896 38.4843 60.3897 38.3977 60.4711C37.2715 61.5303 36.0008 62.4243 34.6235 63.1266Z" fill="white"/>
<path d="M66.5312 78H27.4688C26.0189 77.9983 24.6288 77.4216 23.6036 76.3964C22.5784 75.3712 22.0017 73.9811 22 72.5312V33.4688C22.0017 32.0189 22.5784 30.6288 23.6036 29.6036C24.6288 28.5784 26.0189 28.0017 27.4688 28H29.0312V29.5625H27.4688C26.4331 29.5637 25.4403 29.9757 24.708 30.708C23.9757 31.4403 23.5637 32.4331 23.5625 33.4688V72.5312C23.5637 73.5669 23.9757 74.5597 24.708 75.292C25.4403 76.0243 26.4331 76.4363 27.4688 76.4375H66.5312C67.5669 76.4363 68.5597 76.0243 69.292 75.292C70.0243 74.5597 70.4363 73.5669 70.4375 72.5312V70.9688H72V72.5312C71.9983 73.9811 71.4216 75.3712 70.3964 76.3964C69.3712 77.4216 67.9811 77.9983 66.5312 78Z" fill="white"/>
<path d="M72 69.4062H70.4375V36.5938C70.4375 33.968 69.9305 29.5625 66.5312 29.5625H33.7188V28H66.5312C68.1719 28 72 28.8375 72 36.5938V69.4062Z" fill="white"/>
<path d="M32.1562 28H30.5938V29.5625H32.1562V28Z" fill="white"/>
</g>
<defs>
<clipPath id="clip0_23_1689">
<rect width="50" height="50" fill="white" transform="translate(22 28)"/>
</clipPath>
</defs>
</svg>
