<svg width="95" height="95" viewBox="0 0 95 95" fill="none" xmlns="http://www.w3.org/2000/svg">
<circle cx="47.5" cy="47.5" r="47.5" fill="#CB1F45"/>
<g clip-path="url(#clip0_23_1690)">
<path d="M71.2171 32.0814C71.6495 32.0814 72 31.731 72 31.2985V27.1231C72 24.8497 70.1503 23 67.8769 23H26.1231C23.8497 23 22 24.8497 22 27.1231V68.8768C22 71.1503 23.8497 73 26.1231 73H67.8768C70.1503 73 72 71.1503 72 68.8769V34.6389C72 34.2065 71.6496 33.856 71.2171 33.856C70.7847 33.856 70.4342 34.2064 70.4342 34.6389V68.8769C70.4342 70.287 69.287 71.4343 67.8768 71.4343H26.1231C24.713 71.4343 23.5657 70.287 23.5657 68.8769V27.1231C23.5657 25.713 24.713 24.5657 26.1231 24.5657H67.8768C69.287 24.5657 70.4342 25.713 70.4342 27.1231V31.2985C70.4343 31.731 70.7847 32.0814 71.2171 32.0814Z" fill="white"/>
<path d="M36.9791 46.3299C37.4114 46.3299 37.762 45.9794 37.762 45.547V42.1545C37.762 41.7222 37.4115 41.3716 36.9791 41.3716H30.2985C29.8662 41.3716 29.5156 41.7221 29.5156 42.1545V64.7015C29.5156 65.1338 29.8661 65.4844 30.2985 65.4844H36.9791C37.4114 65.4844 37.762 65.1339 37.762 64.7015V48.9916C37.762 48.5593 37.4115 48.2087 36.9791 48.2087C36.5467 48.2087 36.1962 48.5592 36.1962 48.9916V63.9186H31.0814V42.9374H36.1963V45.547C36.1963 45.9793 36.5468 46.3299 36.9791 46.3299Z" fill="white"/>
<path d="M61.8485 43.5162C60.2549 42.1533 58.1909 41.3717 56.1857 41.3717C52.8761 41.3717 50.7796 42.4721 49.4529 43.8278V42.1546C49.4529 41.7223 49.1025 41.3717 48.67 41.3717H41.9895C41.5571 41.3717 41.2065 41.7222 41.2065 42.1546V64.7016C41.2065 65.1339 41.557 65.4845 41.9895 65.4845H48.67C49.1024 65.4845 49.4529 65.134 49.4529 64.7016V53.8455C49.4529 51.7501 51.2139 50.453 52.8454 50.453C54.8111 50.453 56.2379 51.8798 56.2379 53.8455V64.7015C56.2379 65.1338 56.5883 65.4844 57.0208 65.4844H63.7014C64.1338 65.4844 64.4843 65.1339 64.4843 64.7015V48.8351C64.4843 46.8589 63.5481 44.9699 61.8485 43.5162ZM62.9185 63.9185H57.8036V53.8455C57.8036 51.0187 55.672 48.8873 52.8454 48.8873C50.4608 48.8873 47.8872 50.783 47.8872 53.8455V63.9185H42.7724V42.9374H47.8872V46.3299C47.8872 46.6869 48.1385 47.0062 48.4854 47.0905C48.8428 47.1772 49.2227 46.9955 49.3789 46.6623C50.5382 44.1906 52.8284 42.9374 56.1858 42.9374C59.3641 42.9374 62.9187 45.4597 62.9187 48.8351V63.9185H62.9185Z" fill="white"/>
<path d="M33.6388 30.5156C31.3652 30.5156 29.5156 32.3653 29.5156 34.6388C29.5156 36.9122 31.3653 38.7619 33.6388 38.7619C35.9122 38.7619 37.7619 36.9122 37.7619 34.6388C37.7619 32.3653 35.9122 30.5156 33.6388 30.5156ZM33.6388 37.1963C32.2286 37.1963 31.0813 36.049 31.0813 34.6389C31.0813 33.2287 32.2286 32.0814 33.6388 32.0814C35.0489 32.0814 36.1962 33.2287 36.1962 34.6389C36.1962 36.049 35.0488 37.1963 33.6388 37.1963Z" fill="white"/>
</g>
<defs>
<clipPath id="clip0_23_1690">
<rect width="50" height="50" fill="white" transform="translate(22 23)"/>
</clipPath>
</defs>
</svg>
