<svg width="95" height="95" viewBox="0 0 95 95" fill="none" xmlns="http://www.w3.org/2000/svg">
<circle cx="47.5" cy="47.5" r="47.5" fill="#CB1F45"/>
<path d="M47.2473 29.9339L47.1766 29.9337C47.1756 29.9337 47.1748 29.9337 47.1738 29.9337C46.6357 29.9337 46.1987 30.3691 46.1973 30.9076C46.1973 30.9084 46.1973 30.9092 46.1973 30.91C46.1971 31.4482 46.6326 31.8853 47.1712 31.8868L47.242 31.887C47.2429 31.887 47.2437 31.887 47.2446 31.887C47.7827 31.887 48.2197 31.4516 48.2212 30.9131C48.2212 30.9123 48.2212 30.9115 48.2212 30.9107C48.2214 30.3725 47.7858 29.9353 47.2473 29.9339Z" fill="white"/>
<path d="M70.964 35.9988C70.3228 33.5608 68.4312 31.6408 66.0282 30.9881C63.5502 30.3132 56.6415 30.0646 51.2821 29.9751C50.746 29.9678 50.2983 30.396 50.2894 30.9352C50.2804 31.4745 50.7103 31.919 51.2495 31.928C58.6675 32.052 63.7337 32.3875 65.5156 32.8727C67.2471 33.3431 68.611 34.7312 69.0752 36.4962C70.0352 40.1371 70.0469 47.9217 70.0469 47.9998C70.0469 48.078 70.0352 55.8626 69.0751 59.5041C68.611 61.2685 67.2471 62.6566 65.515 63.1271C61.9361 64.1018 47.1489 64.1132 47 64.1132C46.8511 64.1132 32.0639 64.1017 28.4844 63.1269C26.7529 62.6566 25.389 61.2685 24.9248 59.5035C23.9648 55.8626 23.9531 48.078 23.9531 47.9999C23.9531 47.9217 23.9648 40.1371 24.9249 36.4957C25.389 34.7313 26.7529 33.3432 28.485 32.8727C30.306 32.3768 35.522 32.039 43.1724 31.9213C43.7116 31.9131 44.142 31.4691 44.1338 30.9299C44.1255 30.3906 43.6802 29.9638 43.1423 29.9685C37.618 30.0533 30.5018 30.2992 27.9724 30.988C25.5688 31.6408 23.6772 33.5609 23.0362 35.9983C22.0118 39.8839 22 47.6703 22 47.9999C22 48.3295 22.0118 56.1159 23.036 60.0009C23.6772 62.4389 25.5688 64.3589 27.9718 65.0116C31.8007 66.0543 46.3813 66.0663 47 66.0663C47.6187 66.0663 62.1993 66.0543 66.0276 65.0118C68.4312 64.359 70.3228 62.4389 70.9638 60.0015C71.9882 56.1159 72 48.3295 72 47.9999C72 47.6703 71.9882 39.8839 70.964 35.9988Z" fill="white"/>
<path d="M27.6641 45.4142C27.1247 45.4142 26.6875 45.8514 26.6875 46.3907V54.3497C26.6875 54.8891 27.1247 55.3263 27.6641 55.3263C28.2034 55.3263 28.6406 54.8891 28.6406 54.3497V46.3907C28.6406 45.8514 28.2034 45.4142 27.6641 45.4142Z" fill="white"/>
<path d="M27.6641 40.9708C27.1247 40.9708 26.6875 41.408 26.6875 41.9474V41.9589C26.6875 42.4982 27.1247 42.9354 27.6641 42.9354C28.2034 42.9354 28.6406 42.4982 28.6406 41.9589V41.9474C28.6406 41.408 28.2034 40.9708 27.6641 40.9708Z" fill="white"/>
<path d="M54.9206 47.304L42.8112 40.2728C42.5091 40.0973 42.1363 40.0966 41.8336 40.2709C41.5309 40.4452 41.3442 40.768 41.3442 41.1173V55.1798C41.3442 55.5292 41.5309 55.8519 41.8336 56.0262C41.9844 56.113 42.1525 56.1564 42.3208 56.1564C42.4902 56.1564 42.6597 56.1124 42.8112 56.0243L54.9206 48.9931C55.2217 48.8183 55.4068 48.4966 55.4068 48.1485C55.4068 47.8005 55.2216 47.4788 54.9206 47.304ZM43.2974 53.4835V42.8136L52.4854 48.1485L43.2974 53.4835Z" fill="white"/>
</svg>
