<svg width="95" height="95" viewBox="0 0 95 95" fill="none" xmlns="http://www.w3.org/2000/svg">
<circle cx="47.5" cy="47.5" r="47.5" fill="#363535"/>
<g clip-path="url(#clip0_23_1692)">
<path d="M47 73C41.7016 73 36.6476 71.3664 32.3652 68.2534L25.0221 71.1477C24.7392 71.2634 24.4306 71.1991 24.2119 70.9933C23.9933 70.7875 23.9162 70.4788 24.0062 70.1829L26.6039 62.452C23.5947 58.2071 22 53.2032 22 47.9936C22 44.4819 22.7202 41.0859 24.1348 37.8829C25.4979 34.7957 27.4527 32.0687 29.9218 29.7404C30.2305 29.4446 30.7191 29.4703 31.0149 29.779C31.3107 30.0877 31.285 30.5765 30.9763 30.8724C26.2438 35.2974 23.5432 41.5361 23.5432 47.9936C23.5432 52.8945 25.035 57.5897 27.8771 61.5773L28.0957 61.886C28.2371 62.0918 28.2757 62.3491 28.1986 62.5807L25.9995 69.1153L32.1852 66.6841C32.4295 66.594 32.7124 66.6198 32.9182 66.7741L33.2526 67.0185C37.2778 69.9385 42.0231 71.4693 47 71.4693C52.3884 71.4693 57.6481 69.5912 61.8277 66.1695C62.162 65.8994 62.6379 65.9509 62.9079 66.2724C63.178 66.6069 63.1265 67.0828 62.805 67.353C58.3555 71.0062 52.7485 73 47 73ZM64.0653 65.9637C63.8724 65.9637 63.6667 65.8865 63.5123 65.7322C63.2166 65.4235 63.2166 64.9347 63.5123 64.6388C67.9877 60.1881 70.4568 54.2838 70.4568 47.9936C70.4568 35.053 59.9372 24.5307 47 24.5307C43.8879 24.5307 40.8657 25.1353 38.0108 26.3188C37.6121 26.486 37.162 26.293 37.0077 25.9071C36.8405 25.5084 37.0334 25.0581 37.4192 24.9038C40.4542 23.6432 43.6821 23 47 23C60.786 23 72 34.2169 72 48.0064C72 54.7083 69.3765 61.0113 64.6055 65.745C64.464 65.8865 64.2582 65.9637 64.0653 65.9637ZM55.2948 62.2462C54.1502 62.2462 52.8771 62.0018 51.4882 61.513C41.2901 57.9112 34.4743 51.6082 32.2752 43.7744C31.0278 39.3365 32.4424 36.8281 33.8313 35.5161C35.2202 34.204 36.8405 33.8567 37.4964 33.8567C37.6764 33.8567 37.8179 33.8824 37.9465 33.921C37.9594 33.921 37.9594 33.921 37.9722 33.9339C38.7438 34.2297 39.9527 36.0178 40.7629 37.4713C41.573 38.9249 42.4604 40.893 42.2932 41.6905C42.2803 41.7291 42.2804 41.7548 42.2675 41.7934C42.0617 42.3594 41.5345 42.8997 40.9686 43.4785C40.2485 44.2117 39.5154 44.9707 39.554 45.7682C39.554 45.8711 39.7083 46.5271 42.0617 48.9326C43.695 50.6048 45.5211 52.1999 47.0643 53.3061C48.2731 54.1809 49.9064 55.1585 50.7809 54.9141C51.6168 54.6825 52.0669 53.9622 52.5298 53.1904C52.9928 52.4443 53.4686 51.6725 54.3302 51.5181C55.912 51.2351 60.2716 53.0489 61.7248 54.5925C61.9563 54.8369 62.0592 55.1713 62.0077 55.5058C61.8148 56.7793 61.0818 59.9051 58.5484 61.4229C57.6096 61.9632 56.5293 62.2462 55.2948 62.2462ZM37.445 35.4003C37.0463 35.426 35.9146 35.6833 34.8987 36.6352C33.3426 38.1016 32.9568 40.417 33.767 43.3499C35.8117 50.682 42.2932 56.6249 52.0026 60.0594C54.4203 60.9213 56.3621 60.9213 57.7639 60.0852C59.6157 58.9789 60.2459 56.6506 60.4516 55.4801C59.0885 54.2323 55.4619 52.8688 54.6003 53.0103C54.4203 53.036 54.0473 53.6535 53.8416 53.975C53.2886 54.8755 52.607 55.9817 51.1924 56.3805C50.3693 56.612 49.0448 56.612 46.1641 54.541C44.5566 53.3833 42.6662 51.724 40.9558 49.9874C38.3066 47.2732 38.0494 46.4242 38.0108 45.8325C37.9336 44.3661 39.001 43.2727 39.8627 42.3851C40.1842 42.0635 40.5957 41.6262 40.7629 41.3561C40.6986 41.0345 40.3899 39.9668 39.4126 38.2174C38.448 36.468 37.6893 35.6319 37.445 35.4003ZM33.2912 28.7885C33.0468 28.7885 32.8025 28.6728 32.661 28.4541C32.4167 28.1068 32.5067 27.618 32.8539 27.3864C33.3812 27.0262 33.9342 26.6661 34.4871 26.3445C34.8601 26.1258 35.323 26.2544 35.5417 26.6275C35.7603 27.0005 35.6317 27.4636 35.2587 27.6823C34.7443 27.9781 34.2171 28.3126 33.7284 28.6599C33.5869 28.7499 33.4326 28.7885 33.2912 28.7885Z" fill="white"/>
</g>
<defs>
<clipPath id="clip0_23_1692">
<rect width="50" height="50" fill="white" transform="translate(22 23)"/>
</clipPath>
</defs>
</svg>
