<svg width="65" height="65" viewBox="0 0 65 65" fill="none" xmlns="http://www.w3.org/2000/svg">
<g clip-path="url(#clip0_23_1419)">
<path d="M11.9805 40.545V28.2801C11.9805 27.4295 12.6698 26.7414 13.5204 26.7414H20.7021C21.5515 26.7414 22.2408 27.4295 22.2408 28.2801V43.3976C22.2408 49.0458 26.7502 53.7329 32.3983 53.7875C38.1023 53.8433 42.759 49.2197 42.759 43.5284V28.2801C42.759 27.4295 43.4483 26.7414 44.2977 26.7414H51.4794C52.33 26.7414 53.0193 27.4295 53.0193 28.2801V30.3202" stroke="white" stroke-width="2" stroke-miterlimit="10" stroke-linecap="round" stroke-linejoin="round"/>
<path d="M53.0195 34.7635V43.5284C53.0195 49.1943 50.723 54.3245 47.0096 58.0379C43.2962 61.7512 38.166 64.0478 32.5001 64.0478C21.6583 64.0478 12.7792 55.6397 12.0327 44.9871" stroke="white" stroke-width="2" stroke-miterlimit="10" stroke-linecap="round" stroke-linejoin="round"/>
<path d="M42.7593 37.6298H53.0187" stroke="white" stroke-width="2" stroke-miterlimit="10" stroke-linecap="round" stroke-linejoin="round"/>
<path d="M11.981 37.6298H22.2404" stroke="white" stroke-width="2" stroke-miterlimit="10" stroke-linecap="round" stroke-linejoin="round"/>
<path d="M44.8113 9.15967C47.0777 9.15967 48.915 7.32235 48.915 5.05591C48.915 2.78946 47.0777 0.952148 44.8113 0.952148C42.5448 0.952148 40.7075 2.78946 40.7075 5.05591C40.7075 7.32235 42.5448 9.15967 44.8113 9.15967Z" stroke="white" stroke-width="2" stroke-miterlimit="10" stroke-linecap="round" stroke-linejoin="round"/>
<path d="M40.1946 16.8543H52.506V13.2634C52.506 10.9973 50.6682 9.15967 48.4022 9.15967H41.2206C40.2498 9.15967 39.3584 9.49571 38.6558 10.0599" stroke="white" stroke-width="2" stroke-miterlimit="10" stroke-linecap="round" stroke-linejoin="round"/>
<path d="M24.2925 5.05591C24.2925 7.3224 22.4552 9.15967 20.1887 9.15967C17.9222 9.15967 16.085 7.3224 16.085 5.05591C16.085 2.78941 17.9222 0.952148 20.1887 0.952148C22.4552 0.952148 24.2925 2.78941 24.2925 5.05591Z" stroke="white" stroke-width="2" stroke-miterlimit="10" stroke-linecap="round" stroke-linejoin="round"/>
<path d="M24.8054 16.8543H12.4941V13.2634C12.4941 10.9973 14.3319 9.15967 16.5979 9.15967H23.7795C24.7503 9.15967 25.6417 9.49571 26.3443 10.0599" stroke="white" stroke-width="2" stroke-miterlimit="10" stroke-linecap="round" stroke-linejoin="round"/>
<path d="M32.4998 9.15967C34.7662 9.15967 36.6035 7.32235 36.6035 5.05591C36.6035 2.78946 34.7662 0.952148 32.4998 0.952148C30.2333 0.952148 28.396 2.78946 28.396 5.05591C28.396 7.32235 30.2333 9.15967 32.4998 9.15967Z" stroke="white" stroke-width="2" stroke-miterlimit="10" stroke-linecap="round" stroke-linejoin="round"/>
<path d="M34.804 19.4188H40.1944V13.2641C40.1944 10.9967 38.3574 9.15967 36.09 9.15967H28.9096C26.6422 9.15967 24.8052 10.9967 24.8052 13.2641V19.4188H30.3606" stroke="white" stroke-width="2" stroke-miterlimit="10" stroke-linecap="round" stroke-linejoin="round"/>
<path d="M28.396 32.7564V27.3702" stroke="white" stroke-width="2" stroke-miterlimit="10" stroke-linecap="round" stroke-linejoin="round"/>
<path d="M32.5 23.523V32.7564" stroke="white" stroke-width="2" stroke-miterlimit="10" stroke-linecap="round" stroke-linejoin="round"/>
<path d="M36.6035 27.3702V32.7564" stroke="white" stroke-width="2" stroke-miterlimit="10" stroke-linecap="round" stroke-linejoin="round"/>
</g>
<defs>
<clipPath id="clip0_23_1419">
<rect width="65" height="65" fill="white"/>
</clipPath>
</defs>
</svg>
