<svg width="65" height="65" viewBox="0 0 65 65" fill="none" xmlns="http://www.w3.org/2000/svg">
<path d="M2.03125 55.8634H3.575C3.68062 56.1641 3.80352 56.4576 3.93961 56.745L2.84781 57.8368C2.65687 58.0277 2.55023 58.2857 2.55023 58.5548C2.55023 58.824 2.65687 59.083 2.84781 59.2729L5.72609 62.1512C6.10695 62.532 6.78133 62.532 7.16219 62.1512L8.255 61.0584C8.54242 61.1955 8.83594 61.3163 9.13555 61.422V62.9688C9.13555 63.5294 9.59055 63.9844 10.1512 63.9844H14.2218C14.7824 63.9844 15.2374 63.5294 15.2374 62.9688V61.4199C15.536 61.3143 15.8295 61.1924 16.1149 61.0563L17.2108 62.1522C17.4017 62.3431 17.6597 62.4498 17.9288 62.4498C18.198 62.4498 18.457 62.3431 18.6469 62.1522L21.5252 59.2739C21.7161 59.083 21.8227 58.825 21.8227 58.5559C21.8227 58.2867 21.7161 58.0277 21.5252 57.8378L20.4283 56.7409C20.5644 56.4555 20.6852 56.163 20.7909 55.8645H22.3438C22.9044 55.8645 23.3594 55.4095 23.3594 54.8488V50.7782C23.3594 50.2176 22.9044 49.7626 22.3438 49.7626H20.7919C20.6863 49.464 20.5654 49.1715 20.4293 48.8861L21.5262 47.7892C21.7171 47.5983 21.8238 47.3403 21.8238 47.0712C21.8238 46.802 21.7171 46.543 21.5262 46.3531L18.6479 43.4748C18.267 43.094 17.5927 43.094 17.2118 43.4748L16.1159 44.5707C15.8305 44.4346 15.537 44.3138 15.2384 44.2071V42.6562C15.2384 42.0956 14.7834 41.6406 14.2228 41.6406H10.1522C9.59156 41.6406 9.13656 42.0956 9.13656 42.6562V44.202C8.83695 44.3077 8.54344 44.4295 8.25602 44.5656L7.1632 43.4728C6.97227 43.2819 6.7143 43.1752 6.44516 43.1752C6.17602 43.1752 5.91703 43.2819 5.72711 43.4728L2.84883 46.3511C2.65789 46.542 2.55125 46.8 2.55125 47.0691C2.55125 47.3383 2.65789 47.5973 2.84883 47.7872L3.94063 48.879C3.80352 49.1674 3.68164 49.4609 3.575 49.7616H2.03125C1.47063 49.7616 1.01562 50.2166 1.01562 50.7772V54.8478C1.01562 55.4084 1.47063 55.8634 2.03125 55.8634ZM3.04688 51.7928H4.32555C4.78867 51.7928 5.19289 51.479 5.30867 51.0311C5.47422 50.3902 5.72812 49.7768 6.06328 49.2091C6.29891 48.8099 6.23391 48.3021 5.90687 47.9751L5.00195 47.0702L6.44414 45.628L7.34906 46.5339C7.67508 46.8609 8.18188 46.9259 8.58305 46.6903C9.15078 46.3562 9.7632 46.1023 10.4041 45.9377C10.853 45.822 11.1658 45.4177 11.1658 44.9546V43.6719H13.2052V44.9556C13.2052 45.4187 13.518 45.823 13.9659 45.9387C14.6077 46.1053 15.2191 46.3592 15.7859 46.6934C16.184 46.928 16.6938 46.864 17.0198 46.537L17.9278 45.628L19.37 47.0702L18.46 47.9802C18.133 48.3072 18.068 48.815 18.3036 49.2141C18.6367 49.7798 18.8896 50.3913 19.0552 51.0331C19.1709 51.481 19.5752 51.7948 20.0383 51.7948H21.3281V53.8342H20.0413C19.5782 53.8342 19.174 54.147 19.0582 54.5959C18.8927 55.2368 18.6387 55.8492 18.3066 56.4149C18.071 56.8141 18.136 57.3219 18.463 57.6489L19.372 58.5579L17.9298 60.0001L17.0219 59.0891C16.6959 58.762 16.187 58.697 15.7879 58.9327C15.2222 59.2668 14.6098 59.5207 13.9679 59.6873C13.52 59.803 13.2072 60.2073 13.2072 60.6704V61.9531H11.1678V60.6714C11.1678 60.2083 10.854 59.8041 10.4061 59.6883C9.76523 59.5227 9.1518 59.2698 8.58508 58.9357C8.18391 58.7011 7.67711 58.7661 7.35109 59.0921L6.44617 59.997L5.00398 58.5548L5.90789 57.6509C6.23594 57.3239 6.29992 56.8161 6.0643 56.417C5.72914 55.8482 5.47523 55.2358 5.30969 54.5949C5.19391 54.147 4.78969 53.8332 4.32656 53.8332H3.04688V51.7928Z" fill="white"/>
<path d="M12.1875 57.8906C14.9876 57.8906 17.2656 55.6126 17.2656 52.8125C17.2656 50.0124 14.9876 47.7344 12.1875 47.7344C9.38742 47.7344 7.10938 50.0124 7.10938 52.8125C7.10938 55.6126 9.38742 57.8906 12.1875 57.8906ZM12.1875 49.7656C13.8673 49.7656 15.2344 51.1327 15.2344 52.8125C15.2344 54.4923 13.8673 55.8594 12.1875 55.8594C10.5077 55.8594 9.14062 54.4923 9.14062 52.8125C9.14062 51.1327 10.5077 49.7656 12.1875 49.7656Z" fill="white"/>
<path d="M63.9317 6.36391C63.8109 6.00336 63.4981 5.7393 63.1223 5.68242L59.4478 5.1218L57.7953 1.60062C57.6278 1.24312 57.2692 1.01562 56.8752 1.01562C56.4811 1.01562 56.1226 1.24313 55.956 1.59961L54.3036 5.12078L50.6291 5.68141C50.2523 5.7393 49.9405 6.00234 49.8196 6.36289C49.6988 6.72344 49.7902 7.12258 50.0553 7.39477L52.7436 10.1502L52.1078 14.0542C52.0449 14.4381 52.2074 14.8241 52.5253 15.0485C52.8431 15.272 53.2606 15.2943 53.6018 15.1074L56.8752 13.2976L60.1495 15.1074C60.3029 15.1917 60.4725 15.2344 60.6411 15.2344C60.8463 15.2344 61.0514 15.1714 61.2261 15.0485C61.544 14.8251 61.7065 14.4381 61.6435 14.0542L61.0078 10.1502L63.6961 7.39477C63.9622 7.12359 64.0526 6.72547 63.9317 6.36391ZM59.1949 9.1C58.9694 9.33055 58.8678 9.65453 58.9196 9.97242L59.3015 12.3175L57.3657 11.248C57.2134 11.1637 57.0438 11.1211 56.8742 11.1211C56.7045 11.1211 56.536 11.1637 56.3826 11.248L54.4468 12.3175L54.8287 9.97242C54.8805 9.65453 54.7789 9.33055 54.5535 9.1L52.8868 7.39172L55.1435 7.04742C55.4787 6.99563 55.7661 6.78133 55.9093 6.47461L56.8752 4.42203L57.839 6.47461C57.9832 6.78133 58.2706 6.99563 58.6048 7.04742L60.8615 7.39172L59.1949 9.1Z" fill="white"/>
<path d="M48.1174 13.2803C47.5649 13.196 46.9941 13.3423 46.5533 13.6876L38.5847 19.9215C39.0224 19.0795 39.2245 18.134 39.1433 17.1651C39.0295 15.8133 38.3958 14.5874 37.3588 13.712C36.3219 12.8365 35.0087 12.4191 33.6559 12.5318C32.3041 12.6466 31.0782 13.2803 30.2028 14.3163C29.3283 15.3532 28.9088 16.6674 29.0226 18.0192C29.1201 19.1648 29.6076 20.2059 30.3795 21.0336C29.1973 21.3261 28.1542 22.0259 27.4545 23.0263L19.4524 33.9483C18.9953 34.6013 18.9588 35.4362 19.3569 36.1268C19.754 36.8164 20.4893 37.2003 21.2886 37.1373L23.722 36.9312C24.3131 36.8814 24.8514 36.5767 25.1835 36.1146L30.0149 29.7588L30.3805 34.0955L27.9806 50.5568C27.0746 50.7427 26.1646 50.9092 25.2495 51.0372L25.5309 53.0481C28.7179 52.6023 31.8633 51.8192 34.8787 50.7193C40.7287 48.5865 45.4046 45.5163 49.0101 42.4338L49.2376 42.3658L49.2061 42.2602C52.6846 39.2519 55.1506 36.2487 56.6852 34.1067C56.8812 33.8325 56.9289 33.4801 56.8121 33.1652C56.6963 32.8494 56.4313 32.6117 56.1053 32.5305L54.5392 32.1384L60.2419 28.9707L61.5886 35.032L60.2439 34.5841C59.8062 34.4378 59.3278 34.6054 59.0749 34.9883L58.9063 35.2422C46.1389 54.6802 31.9466 59.3927 22.288 59.9229L22.3987 61.9511C32.4564 61.3986 47.1738 56.5673 60.3394 36.7565L62.6459 37.5253C62.9922 37.6421 63.3751 37.5609 63.6473 37.3161C63.9195 37.0713 64.0373 36.6986 63.9581 36.3421L61.9268 27.2015C61.8578 26.8887 61.6445 26.6266 61.352 26.4956C61.0595 26.3656 60.7233 26.3778 60.442 26.5342L51.3013 31.6123C50.9367 31.8145 50.7336 32.2197 50.7885 32.6331C50.8423 33.0464 51.1449 33.3846 51.5492 33.4852L54.1339 34.1311C52.7943 35.8638 50.9449 37.9732 48.5653 40.1152L46.7544 34.0407C46.5858 33.5187 46.207 33.0809 45.7367 32.8504L41.5615 30.6759L40.9085 25.7116L50.2075 18.6266C51.0678 17.9725 51.2648 16.7598 50.6554 15.8671L49.4813 14.1426C49.1685 13.6815 48.6709 13.3666 48.1174 13.2803ZM33.8265 14.557C33.9138 14.5498 34.0012 14.5458 34.0885 14.5458C34.8066 14.5458 35.4942 14.7966 36.0487 15.2648C36.6703 15.7899 37.0501 16.5252 37.1192 17.3367C37.1872 18.1482 36.9363 18.9373 36.4113 19.5589C35.8862 20.1805 35.1509 20.5613 34.3394 20.6294C33.5269 20.6995 32.7388 20.4466 32.1172 19.9215C31.4956 19.3964 31.1148 18.6611 31.0467 17.8496C30.9056 16.1748 32.1527 14.6981 33.8265 14.557ZM35.2067 48.4118L37.3202 36.2152L41.0537 38.027L43.2606 44.2223C40.9074 45.7783 38.2272 47.2215 35.2067 48.4118ZM39.2113 24.4532C38.9219 24.6736 38.7726 25.0321 38.8193 25.3937L39.6176 31.4661C39.6613 31.7941 39.8613 32.0816 40.1559 32.2339L44.8156 34.643L46.8793 41.5665C46.2791 42.056 45.6463 42.5415 44.9882 43.0229L42.9549 37.3151C42.7681 36.8418 42.4146 36.4589 41.9596 36.2365L36.9963 33.801C36.7099 33.6609 36.3737 33.6639 36.0873 33.8081C35.8019 33.9534 35.6018 34.2245 35.548 34.5394L33.0069 49.207C32.0502 49.5249 31.0833 49.8174 30.1053 50.0693L32.4087 34.2753C32.4199 34.1981 32.4219 34.1209 32.4158 34.0427L31.8176 26.9588C31.782 26.5393 31.4926 26.1859 31.0894 26.0691C30.6852 25.9502 30.2515 26.0955 29.9976 26.4296L23.5524 34.9091L21.1058 35.1325L29.1079 24.2105C29.6279 23.468 30.4445 22.9978 31.3484 22.9206L34.51 22.6535H34.512L38.5603 22.3113C38.7574 22.294 38.9453 22.2209 39.1006 22.099L47.8066 15.2882L48.9817 17.0127L39.2113 24.4532Z" fill="white"/>
<path d="M4.0625 2.03125H6.09375V4.0625H4.0625V2.03125Z" fill="white"/>
<path d="M6.09375 4.0625H8.125V6.09375H6.09375V4.0625Z" fill="white"/>
<path d="M2.03125 4.0625H4.0625V6.09375H2.03125V4.0625Z" fill="white"/>
<path d="M4.0625 6.09375H6.09375V8.125H4.0625V6.09375Z" fill="white"/>
<path d="M12.1875 5.07812H14.2188V7.10938H12.1875V5.07812Z" fill="white"/>
<path d="M14.2188 7.10938H16.25V9.14062H14.2188V7.10938Z" fill="white"/>
<path d="M10.1562 7.10938H12.1875V9.14062H10.1562V7.10938Z" fill="white"/>
<path d="M12.1875 9.14062H14.2188V11.1719H12.1875V9.14062Z" fill="white"/>
<path d="M58.9062 56.875H60.9375V58.9062H58.9062V56.875Z" fill="white"/>
<path d="M60.9375 58.9062H62.9688V60.9375H60.9375V58.9062Z" fill="white"/>
<path d="M56.875 58.9062H58.9062V60.9375H56.875V58.9062Z" fill="white"/>
<path d="M58.9062 60.9375H60.9375V62.9688H58.9062V60.9375Z" fill="white"/>
</svg>
