<svg width="65" height="65" viewBox="0 0 65 65" fill="none" xmlns="http://www.w3.org/2000/svg">
<g clip-path="url(#clip0_23_1634)">
<path d="M52.3047 17.2656C52.3047 17.9663 52.8735 18.5352 53.5742 18.5352C54.2749 18.5352 54.8437 17.9663 54.8437 17.2656C54.8437 16.5649 54.2749 15.9961 53.5742 15.9961C52.8735 15.9961 52.3047 16.5649 52.3047 17.2656Z" fill="white"/>
<path d="M57.3827 32.5C57.3827 34.1261 57.2196 35.7492 56.8982 37.3242C56.7579 38.0111 57.2012 38.6815 57.8881 38.8219C57.9739 38.8397 58.0592 38.8482 58.1435 38.8482C58.7341 38.8482 59.2632 38.4331 59.3862 37.832C59.7418 36.0899 59.9218 34.2962 59.9218 32.5C59.9218 28.5025 59.055 24.6557 57.3446 21.0663C57.043 20.4335 56.2858 20.1647 55.6525 20.4663C55.0192 20.7678 54.751 21.5255 55.0525 22.1588C56.5987 25.404 57.3827 28.8833 57.3827 32.5Z" fill="white"/>
<path d="M38.8476 43.9258H37.5781V27.4219C37.5781 26.7207 37.0098 26.1523 36.3086 26.1523H26.1523C25.4511 26.1523 24.8828 26.7207 24.8828 27.4219V32.5C24.8828 33.2012 25.4511 33.7695 26.1523 33.7695H27.4219V43.9258H26.1523C25.4511 43.9258 24.8828 44.4941 24.8828 45.1953V50.2734C24.8828 50.9746 25.4511 51.5429 26.1523 51.5429H38.8476C39.5489 51.5429 40.1172 50.9746 40.1172 50.2734V45.1953C40.1172 44.4941 39.5489 43.9258 38.8476 43.9258ZM37.5781 49.0039H27.4219V46.4648H28.6914C29.3926 46.4648 29.9609 45.8965 29.9609 45.1953V32.5C29.9609 31.7988 29.3926 31.2305 28.6914 31.2305H27.4219V28.6914H35.039V45.1953C35.039 45.8965 35.6079 46.4648 36.3086 46.4648H37.5781V49.0039Z" fill="white"/>
<path d="M32.5 23.6133C35.2999 23.6133 37.5781 21.3351 37.5781 18.5351C37.5781 15.7352 35.2999 13.457 32.5 13.457C29.7001 13.457 27.4219 15.7352 27.4219 18.5351C27.4219 21.3351 29.7001 23.6133 32.5 23.6133ZM32.5 15.9961C33.8999 15.9961 35.0391 17.1352 35.0391 18.5351C35.0391 19.9351 33.8999 21.0742 32.5 21.0742C31.1 21.0742 29.9609 19.9351 29.9609 18.5351C29.9609 17.1352 31.1 15.9961 32.5 15.9961Z" fill="white"/>
<path d="M32.5 6.10352e-05C14.9835 6.10352e-05 5.53616e-05 14.9552 5.53616e-05 32.5C5.53616e-05 38.4931 1.71739 44.8665 4.61301 49.6873L0.0650196 63.3293C-0.0867289 63.785 0.0317936 64.2883 0.371988 64.628C0.71367 64.9697 1.21751 65.0863 1.67127 64.9345L15.3133 60.387C20.1335 63.2831 26.5069 65 32.5 65C50.021 65 65 50.0428 65 32.5C65 14.979 50.0433 6.10352e-05 32.5 6.10352e-05ZM32.5 62.4609C26.7509 62.4609 20.6403 60.7644 16.1538 57.9228C15.8359 57.7215 15.4397 57.6684 15.0727 57.7909L3.27703 61.723L7.2091 49.9273C7.3301 49.5653 7.2815 49.1685 7.07719 48.8462C4.23562 44.3602 2.53911 38.2491 2.53911 32.5C2.53911 16.2595 16.2595 2.53912 32.5 2.53912C48.7406 2.53912 62.4609 16.2595 62.4609 32.5C62.4609 48.7406 48.7406 62.4609 32.5 62.4609Z" fill="white"/>
</g>
<defs>
<clipPath id="clip0_23_1634">
<rect width="65" height="65" fill="white"/>
</clipPath>
</defs>
</svg>
