<svg width="100" height="100" viewBox="0 0 100 100" fill="none" xmlns="http://www.w3.org/2000/svg">
<g clip-path="url(#clip0_48_1757)">
<path d="M36.938 98.5352H34.2946C33.0206 98.5352 31.9878 97.5024 31.9878 96.2284V80.878C31.9878 79.6053 31.4271 78.4045 30.4692 77.5674C24.8626 72.6743 21.2954 65.3153 21.2954 57.0838C21.2954 46.7465 26.9229 37.7819 35.1505 33.3538" stroke="#0195FF" stroke-width="3" stroke-miterlimit="10" stroke-linecap="round" stroke-linejoin="round"/>
<path d="M70.1432 38.2581C73.233 41.5024 75.2687 45.8458 75.9078 51.3725C76.2004 53.9024 75.598 55.193 74.6385 56.4942C74.107 57.2149 73.7723 58.685 74.5285 59.7819L78.2439 65.2694C79.2201 66.71 78.5785 68.6807 76.9439 69.2735L75.4529 69.8159C74.6096 70.1213 74.049 70.9219 74.049 71.8186V72.419C74.049 73.6426 74.0598 81.0536 73.7877 82.2071C72.7473 86.5901 68.7432 89.8104 64.0394 89.6715L61.016 89.5829H61.0129L56.96 89.4622C55.3926 89.4163 54.0955 90.6752 54.0955 92.2426V96.2284C54.0955 97.5024 53.0627 98.5352 51.7887 98.5352H43.8672" stroke="#0195FF" stroke-width="3" stroke-miterlimit="10" stroke-linecap="round" stroke-linejoin="round"/>
<path d="M28.1152 23.1211L22.1055 21.168" stroke="#0195FF" stroke-width="3" stroke-miterlimit="10" stroke-linecap="round" stroke-linejoin="round"/>
<path d="M36.4746 11.6152L33 6.83398" stroke="#0195FF" stroke-width="3" stroke-miterlimit="10" stroke-linecap="round" stroke-linejoin="round"/>
<path d="M50 7.2207V1.46484" stroke="#0195FF" stroke-width="3" stroke-miterlimit="10" stroke-linecap="round" stroke-linejoin="round"/>
<path d="M67 6.83203L63.5254 11.6152" stroke="#0195FF" stroke-width="3" stroke-miterlimit="10" stroke-linecap="round" stroke-linejoin="round"/>
<path d="M77.8965 21.168L71.8848 23.1211" stroke="#0195FF" stroke-width="3" stroke-miterlimit="10" stroke-linecap="round" stroke-linejoin="round"/>
<path d="M36.8758 21.8868C35.5154 24.154 34.725 26.7966 34.7099 29.6122C34.6881 33.6607 36.2408 37.345 38.7906 40.0915C40.9996 42.4712 42.4365 45.4642 43.0465 48.6534L43.1461 49.1743H56.8549L56.9598 48.6255C57.583 45.3669 59.1486 42.3843 61.3683 39.9187C63.8066 37.2107 65.291 33.6275 65.291 29.6964C65.291 21.2792 58.4898 14.4505 50.083 14.406C47.0012 14.3896 44.1162 15.3036 41.6967 16.8823" stroke="#0195FF" stroke-width="3" stroke-miterlimit="10" stroke-linecap="round" stroke-linejoin="round"/>
<path d="M56.8548 49.1741H43.146V52.9872C43.146 54.3993 44.2907 55.544 45.7028 55.544H54.298C55.7101 55.544 56.8548 54.3993 56.8548 52.9872V49.1741Z" stroke="#0195FF" stroke-width="3" stroke-miterlimit="10" stroke-linecap="round" stroke-linejoin="round"/>
<path d="M50.0003 61.4033C47.791 61.4033 45.9998 59.6121 45.9998 57.4027V55.5439H54.0009V57.4027C54.0009 59.6121 52.2097 61.4033 50.0003 61.4033Z" stroke="#0195FF" stroke-width="3" stroke-miterlimit="10" stroke-linecap="round" stroke-linejoin="round"/>
<path d="M48.1481 49.1741L43.6812 31.134H56.3194L51.8524 49.1741" stroke="#0195FF" stroke-width="3" stroke-miterlimit="10" stroke-linecap="round" stroke-linejoin="round"/>
<path d="M30.4692 77.5674C30.4692 77.5674 33.0886 79.9014 36.663 81.3113" stroke="#0195FF" stroke-width="3" stroke-miterlimit="10" stroke-linecap="round" stroke-linejoin="round"/>
</g>
<defs>
<clipPath id="clip0_48_1757">
<rect width="100" height="100" fill="white"/>
</clipPath>
</defs>
</svg>
