<svg width="100" height="100" viewBox="0 0 100 100" fill="none" xmlns="http://www.w3.org/2000/svg">
<path d="M87.6578 62.5231C87.5024 62.0212 70.7987 67.5566 70.0642 67.6945C70.5967 63.6808 67.2508 60.0673 63.2343 60.0956C63.2342 60.0955 49.3166 60.0955 49.3166 60.0955C47.1974 60.2535 44.829 58.2762 43.1226 57.259C38.2858 54.1876 32.0895 53.852 26.9491 56.3787L22.1001 58.762C20.8413 59.383 19.4307 59.711 18.0224 59.711H7.81779C5.80082 59.738 5.73365 62.7968 7.81789 62.8359C7.81779 62.8359 18.0224 62.8359 18.0224 62.8359C19.9075 62.8359 21.7949 62.3964 23.4794 61.5664L28.3284 59.1831C32.4992 57.134 37.5244 57.4055 41.448 59.8972C43.7352 61.3632 46.4615 63.388 49.3167 63.2202C49.3166 63.2204 63.2342 63.2204 63.2342 63.2204C68.2082 63.3486 68.2158 70.6429 63.2341 70.7731H43.7009C41.6557 70.8022 41.6412 73.8648 43.701 73.8979C43.7009 73.8979 63.2342 73.8979 63.2342 73.8979C65.3252 73.8979 67.1791 72.9431 68.4456 71.4691L86.7652 65.7807C90.2768 64.7211 92.228 69.7734 88.8745 71.3346C88.8746 71.3346 75.2347 77.4896 75.2347 77.4896C73.3639 78.366 74.6533 81.1554 76.5195 80.3367C76.5194 80.3368 90.1609 74.1817 90.1609 74.1817C96.0655 71.4823 94.1876 62.5563 87.6578 62.5231Z" fill="#0195FF"/>
<path d="M7.81776 81.8184H18.21C19.5153 81.8184 20.7825 82.0885 21.9772 82.621L40.2869 90.7916C42.3559 91.7147 44.5752 92.177 46.7952 92.177C49.0336 92.177 51.2719 91.7071 53.3554 90.7687L69.3939 83.5425C70.1812 83.187 70.5314 82.2624 70.1766 81.4751C69.8234 80.6893 68.898 80.3399 68.1107 80.6924L52.0714 87.9185C48.7353 89.4245 44.9032 89.4321 41.5609 87.9384L23.2505 79.7677C21.6522 79.0552 19.9563 78.6936 18.21 78.6936H9.3802V69.0856C9.35965 67.0442 6.28371 67.025 6.25537 69.0857C6.25537 69.0856 6.25537 80.256 6.25537 80.256C6.25537 81.1196 6.95492 81.8184 7.81776 81.8184Z" fill="#0195FF"/>
<path d="M79.6557 15.5832L73.0894 14.6281L70.1538 8.67898C69.6274 7.61091 67.8773 7.61091 67.3509 8.67898L64.4152 14.6281L57.8489 15.5832C56.6045 15.7241 56.0535 17.3994 56.9831 18.2473C56.983 18.2473 61.7336 22.8781 61.7336 22.8781L60.6122 29.4176C60.3618 30.6452 61.7895 31.6887 62.8795 31.0639C62.8795 31.064 68.7523 27.9773 68.7523 27.9773L74.6251 31.064C75.1504 31.3409 75.7879 31.2962 76.2707 30.945C76.7514 30.5956 76.9924 30.0035 76.8925 29.4176L75.771 22.8781L80.5216 18.2473C81.4468 17.4011 80.9045 15.7222 79.6557 15.5832ZM73.0009 21.2149C72.6332 21.5735 72.4654 22.0908 72.5516 22.5973L73.2771 26.8253L69.4794 24.8296C69.0244 24.5893 68.4802 24.5893 68.0253 24.8296L64.2275 26.8253L64.953 22.5973C65.0392 22.0908 64.8714 21.5735 64.5037 21.2149L61.4315 18.2198L65.6778 17.6019C66.1867 17.5286 66.6261 17.2082 66.8542 16.7474L68.7523 12.9009L70.6504 16.7474C70.8785 17.2082 71.3179 17.5286 71.8268 17.6019L76.0731 18.2198L73.0009 21.2149Z" fill="#0195FF"/>
<path d="M81.2517 35.9314H62.5026C60.4546 35.964 60.4444 39.0216 62.5027 39.0562C62.5026 39.0562 81.2517 39.0562 81.2517 39.0562C83.2997 39.0237 83.3099 35.9661 81.2517 35.9314Z" fill="#0195FF"/>
<path d="M81.2517 43.7434H62.5026C60.4546 43.776 60.4444 46.8336 62.5027 46.8683C62.5026 46.8683 81.2517 46.8683 81.2517 46.8683C83.2997 46.8357 83.3099 43.7781 81.2517 43.7434Z" fill="#0195FF"/>
<path d="M81.2517 51.5557H62.5026C60.4546 51.5882 60.4444 54.6458 62.5027 54.6805C62.5026 54.6805 81.2517 54.6805 81.2517 54.6805C83.2997 54.6479 83.3099 51.5904 81.2517 51.5557Z" fill="#0195FF"/>
<path d="M54.6904 37.4938C54.7253 39.5474 57.7807 39.5472 57.8153 37.4937C57.7804 35.4401 54.725 35.4404 54.6904 37.4938Z" fill="#0195FF"/>
<path d="M56.2529 46.8682C58.3066 46.8333 58.3063 43.7779 56.2529 43.7434C54.1992 43.7782 54.1995 46.8336 56.2529 46.8682Z" fill="#0195FF"/>
<path d="M56.2529 54.6805C58.3066 54.6456 58.3063 51.5902 56.2529 51.5557C54.1992 51.5905 54.1995 54.6459 56.2529 54.6805Z" fill="#0195FF"/>
</svg>
