<svg width="100" height="100" viewBox="0 0 100 100" fill="none" xmlns="http://www.w3.org/2000/svg">
<g clip-path="url(#clip0_48_1778)">
<path d="M76.77 30.2297H79.1046V39.444C79.1046 40.2447 79.7534 40.8935 80.5541 40.8935C81.3549 40.8935 82.0037 40.2447 82.0037 39.444V30.2297H84.3381C85.1388 30.2297 85.7876 29.5809 85.7876 28.7802C85.7876 27.9794 85.1388 27.3306 84.3381 27.3306H82.0037V23.1191C82.0037 22.3097 82.662 21.6514 83.4714 21.6514H86.9063C87.7071 21.6514 88.3559 21.0025 88.3559 20.2018C88.3559 19.4011 87.7071 18.7522 86.9063 18.7522H83.4714C81.0636 18.7522 79.1046 20.7113 79.1046 23.1191V27.3306H76.77C75.9692 27.3306 75.3204 27.9794 75.3204 28.7802C75.3204 29.5809 75.9694 30.2297 76.77 30.2297ZM50.5214 8.39922C51.3219 8.39922 51.9709 7.7502 51.9709 6.94965C51.9709 6.1491 51.3219 5.50008 50.5214 5.50008C49.7208 5.50008 49.0718 6.1491 49.0718 6.94965C49.0718 7.7502 49.7206 8.39922 50.5214 8.39922ZM19.2043 33.5858C21.6021 33.5858 23.553 31.6348 23.553 29.2371C23.553 26.8393 21.6021 24.8884 19.2043 24.8884C16.8065 24.8884 14.8556 26.8393 14.8556 29.2371C14.8556 31.6348 16.8065 33.5858 19.2043 33.5858ZM19.2043 27.7875C20.0037 27.7875 20.6539 28.4377 20.6539 29.2371C20.6539 30.0365 20.0037 30.6866 19.2043 30.6866C18.4049 30.6866 17.7547 30.0365 17.7547 29.2371C17.7547 28.4377 18.4051 27.7875 19.2043 27.7875ZM25.0026 39.3841C27.4003 39.3841 29.3513 37.4331 29.3513 35.0353V23.4388C29.3513 21.041 27.4003 19.0901 25.0026 19.0901H13.406C11.0082 19.0901 9.0573 21.041 9.0573 23.4388V35.0353C9.0573 37.4331 11.0082 39.3841 13.406 39.3841H25.0026ZM11.9564 35.0353V23.4388C11.9564 22.6394 12.6066 21.9892 13.406 21.9892H25.0026C25.802 21.9892 26.4521 22.6394 26.4521 23.4388V35.0353C26.4521 35.8347 25.802 36.4849 25.0026 36.4849H13.406C12.6068 36.4849 11.9564 35.8345 11.9564 35.0353ZM27.9894 60.8566C27.2857 60.3272 26.3543 60.2383 25.5582 60.6239C25.363 60.7184 25.158 60.7899 24.9486 60.8369C24.6931 60.8939 24.433 60.9152 24.1709 60.8991C23.3166 60.1141 22.2296 59.6442 21.0551 59.5625C19.6861 59.4656 18.3595 59.9107 17.3227 60.8122C16.3664 61.644 15.7591 62.7871 15.5981 64.0256C13.9114 63.7536 12.3662 62.8999 11.2266 61.5814C10.7591 61.04 10.0347 60.7981 9.33793 60.949C8.64465 61.099 8.08976 61.6154 7.88972 62.2961C7.40208 63.9527 6.37289 69.0276 10.6567 72.411C9.8391 72.6604 8.90673 72.6416 8.42992 73.4696C8.00008 74.216 8.22988 75.0953 8.40518 75.5531C8.74767 76.4472 9.64138 77.0908 11.061 77.466C11.8358 77.6709 12.8486 77.8032 13.9899 77.8032C16.637 77.8031 19.9727 77.0905 22.6162 74.9165C25.2507 72.7497 26.328 69.7956 26.7625 67.5542C27.4388 66.7834 27.9746 65.9135 28.3578 64.9622C28.5975 64.3669 28.774 63.7438 28.8828 63.1096C29.0306 62.2453 28.6885 61.3819 27.9894 60.8566ZM24.3696 65.8739C24.1643 66.0859 24.0283 66.3553 23.9803 66.6466C23.6844 68.4385 22.8881 70.9392 20.7747 72.6774C18.2193 74.7787 14.6227 75.0738 12.5542 74.8075C13.2444 74.521 13.906 74.1654 14.5218 73.7474C14.9572 73.4518 15.1984 72.9435 15.1517 72.4192C15.1049 71.895 14.7775 71.4373 14.2964 71.2234C10.687 69.619 10.1184 66.888 10.3426 64.7459C12.2189 66.2658 14.5809 67.084 17.0425 67.0148C17.8282 66.9945 18.4546 66.3517 18.4546 65.5658V64.7415C18.4546 64.7351 18.4546 64.7285 18.4544 64.722C18.4455 64.0609 18.7265 63.433 19.2253 62.9993C19.6774 62.606 20.2555 62.4131 20.8535 62.4541C21.4513 62.4958 21.9971 62.7677 22.3902 63.2198C22.6011 63.4622 22.886 63.6274 23.201 63.6902C24.059 63.8609 24.9274 63.8389 25.7658 63.6214C25.4699 64.4641 24.9952 65.2281 24.3696 65.8739ZM81.8382 50.5158C81.8038 50.5158 81.7698 50.5171 81.7354 50.5173V47.3975C81.7698 47.3977 81.8038 47.3988 81.8382 47.3988C91.8526 47.3988 100 39.2517 100 29.2371C100 19.1819 91.7869 11.0197 81.7354 11.0767V9.70209C81.7354 4.64 77.6169 0.521484 72.5548 0.521484H28.4879C23.4258 0.521484 19.3073 4.64 19.3073 9.70209V11.0767C15.756 11.056 12.3103 12.0612 9.34238 13.9837C8.67036 14.419 8.47843 15.3166 8.91369 15.9884C9.34914 16.6604 10.2465 16.8523 10.9184 16.4171C13.3851 14.8191 16.2504 13.9745 19.2043 13.9745C27.6201 13.9745 34.4669 20.8213 34.4669 29.2371C34.4669 37.6529 27.6201 44.4997 19.2043 44.4997C10.7885 44.4997 3.94167 37.6529 3.94167 29.2371C3.94167 26.186 4.83866 23.2417 6.53524 20.7225C6.98229 20.0584 6.8066 19.1577 6.1427 18.7105C5.4786 18.2636 4.57793 18.4391 4.13069 19.103C2.11057 22.1027 1.04253 25.6068 1.04253 29.2371C1.04253 39.2515 9.18969 47.3988 19.2043 47.3988C19.2387 47.3988 19.2727 47.3977 19.3071 47.3975V50.5531C18.9281 50.5293 18.5464 50.516 18.1616 50.516C8.14716 50.5158 0 58.6631 0 68.6775C0 78.6919 8.14716 86.8395 18.1618 86.8395C18.5466 86.8395 18.9283 86.826 19.3073 86.8024V90.2982C19.3073 95.3602 23.4258 99.4788 28.4879 99.4788H72.5548C77.6169 99.4788 81.7354 95.3602 81.7354 90.2982V86.8383C81.7698 86.8385 81.8038 86.8397 81.8382 86.8397C91.8526 86.8397 100 78.6923 100 68.6777C100 58.6631 91.8526 50.5158 81.8382 50.5158ZM81.8382 13.9745C90.2541 13.9745 97.1009 20.8213 97.1009 29.2371C97.1009 37.6529 90.2541 44.4997 81.8382 44.4997C73.4224 44.4997 66.5756 37.6529 66.5756 29.2371C66.5756 20.8213 73.4224 13.9745 81.8382 13.9745ZM78.8363 47.1491V50.762C77.8452 50.9255 76.8763 51.17 75.9371 51.4907V46.4137C76.8714 46.7357 77.8403 46.9829 78.8363 47.1491ZM25.1056 10.6683V12.0601C24.1711 11.7381 23.2024 11.4911 22.2064 11.3246V9.7019C22.2064 6.2382 25.0242 3.42043 28.4879 3.42043H72.5548C76.0185 3.42043 78.8363 6.2382 78.8363 9.7019V11.3246C77.8403 11.4911 76.8716 11.7381 75.9371 12.0601V10.6683C75.9371 8.2705 73.9862 6.31957 71.5884 6.31957H66.2637C64.6118 6.31957 63.2679 7.66342 63.2679 9.31535C63.2679 9.95683 62.7459 10.4789 62.1042 10.4789H38.9383C38.2969 10.4789 37.7746 9.95702 37.7746 9.31535C37.7746 8.51422 37.4633 7.76179 36.8939 7.1926C36.3266 6.62978 35.5757 6.31957 34.7788 6.31957H29.4541C27.0563 6.31957 25.1056 8.2705 25.1056 10.6683ZM22.2064 47.1491C23.2024 46.9827 24.1711 46.7357 25.1056 46.4137V51.8965C24.1753 51.5102 23.2066 51.1986 22.2064 50.9704V47.1491ZM18.1618 83.9403C9.74594 83.9403 2.89914 77.0935 2.89914 68.6775C2.89914 60.2617 9.74594 53.4149 18.1618 53.4149C26.5776 53.4149 33.4244 60.2617 33.4244 68.6775C33.4244 77.5731 26.4025 83.9403 18.1618 83.9403ZM78.8363 90.298C78.8363 93.7617 76.0185 96.5794 72.5548 96.5794H28.4879C25.0242 96.5794 22.2064 93.7617 22.2064 90.298V86.3849C23.2066 86.1566 24.1753 85.8449 25.1056 85.4585V89.3316C25.1056 91.7294 27.0565 93.6803 29.4543 93.6803H71.5884C73.9862 93.6803 75.9371 91.7294 75.9371 89.3316V85.8545C76.8716 86.1765 77.8403 86.4236 78.8363 86.59V90.298ZM81.8382 83.9403C73.4224 83.9403 66.5756 77.0935 66.5756 68.6775C66.5756 67.3696 66.7409 66.0714 67.0673 64.8188C67.2691 64.0439 66.8047 63.2525 66.03 63.0507C65.2552 62.8485 64.4637 63.3134 64.2619 64.088C63.8734 65.5791 63.6767 67.1232 63.6767 68.6775C63.6767 75.5011 67.4599 81.4567 73.0382 84.56V89.3316C73.0382 90.131 72.388 90.7812 71.5886 90.7812H29.4545C28.6551 90.7812 28.0049 90.131 28.0049 89.3316V83.934C33.0069 80.6956 36.3237 75.0669 36.3237 68.6775C36.3237 62.2882 33.0069 56.6594 28.0049 53.4211V45.1191C33.5832 42.0159 37.3664 36.0603 37.3664 29.2369C37.3664 22.4135 33.5832 16.4579 28.0049 13.3546V10.6683C28.0049 9.86889 28.6551 9.21871 29.4545 9.21871H34.7792C34.8065 9.21871 34.831 9.22934 34.848 9.24654C34.873 9.27128 34.8759 9.29776 34.8759 9.31535C34.8759 11.5554 36.6985 13.378 38.9387 13.378H62.1046C64.3448 13.378 66.1674 11.5554 66.1674 9.31535C66.1674 9.26219 66.2109 9.21871 66.2641 9.21871H71.5888C72.3882 9.21871 73.0384 9.86889 73.0384 10.6683V13.3546C67.4601 16.4579 63.6769 22.4135 63.6769 29.2369C63.6769 36.0645 67.4647 42.0232 73.0486 45.1249C73.0425 45.1796 73.0384 45.2351 73.0384 45.2915V52.7769C70.9008 53.9621 68.9968 55.5875 67.4475 57.597C66.9587 58.231 67.0764 59.1411 67.7104 59.6301C68.3447 60.1191 69.2544 60.0016 69.7434 59.3672C72.6598 55.5829 77.0058 53.4149 81.8386 53.4149C90.2544 53.4149 97.1012 60.2617 97.1012 68.6775C97.1009 77.0935 90.2541 83.9403 81.8382 83.9403ZM55.8334 49.5206C55.149 49.1056 54.2576 49.3233 53.8418 50.0075C53.5732 50.4499 53.1946 50.8289 52.7599 51.1101C52.3411 51.3811 51.7956 51.3888 51.3696 51.1302L49.2001 49.8132C48.7676 49.5506 48.531 49.0463 48.5799 48.5351C48.6282 48.0306 48.7929 47.5349 49.0559 47.1018C49.4715 46.4174 49.2537 45.526 48.5695 45.1102C47.8855 44.6947 46.9937 44.9123 46.578 45.5967C46.0894 46.4013 45.7836 47.3219 45.6933 48.2643L45.6906 48.2935C45.5375 49.8896 46.3244 51.4586 47.6951 52.2914L49.8646 53.6084C50.5318 54.0137 51.29 54.2157 52.0479 54.2157C52.8469 54.2157 53.6455 53.9911 54.3359 53.5436C55.1358 53.0253 55.8256 52.327 56.32 51.5123C56.7356 50.8275 56.5176 49.9361 55.8334 49.5206ZM89.4659 67.1232L79.3019 61.2521C77.9872 60.4782 76.274 61.4842 76.2854 62.9935V74.736C76.2719 76.2418 77.9977 77.2466 79.3017 76.4774L89.4657 70.6064C90.78 69.8615 90.7751 67.8646 89.4659 67.1232ZM79.1844 73.1971V64.5323L86.6846 68.8648L79.1844 73.1971ZM50.1694 36.8736C43.4328 37.0502 37.8307 42.4546 37.4159 49.1772C37.31 50.8892 37.5324 52.5755 38.0765 54.1902L36.533 58.5812C36.2468 59.3953 36.4482 60.2799 37.0581 60.8901C37.6681 61.5 38.5529 61.7012 39.3668 61.4152L42.4281 60.3392C44.83 62.2221 47.8331 63.2088 50.8849 63.1261C57.9014 62.9359 63.629 57.0674 63.6523 50.0448C63.6643 46.4634 62.2604 43.1123 59.6991 40.609C57.1384 38.1061 53.7522 36.7775 50.1694 36.8736ZM50.8062 60.2279C48.4125 60.2888 46.0669 59.5159 44.1951 58.0404C43.6836 57.637 43.0679 57.4273 42.4444 57.4273C42.1334 57.4273 41.8203 57.4795 41.5176 57.586L39.7354 58.2124L40.823 55.1186C41.0302 54.5294 41.0346 53.8827 40.835 53.2978C40.4028 52.0299 40.2259 50.7036 40.309 49.3557C40.6324 44.1189 44.9968 39.9092 50.245 39.7714C53.0392 39.6956 55.6768 40.732 57.6722 42.6821C59.668 44.6329 60.7619 47.2442 60.7526 50.0347C60.7346 55.5071 56.2725 60.0797 50.8062 60.2279Z" fill="#0195FF"/>
</g>
<defs>
<clipPath id="clip0_48_1778">
<rect width="100" height="100" fill="white"/>
</clipPath>
</defs>
</svg>
