<svg width="100" height="100" viewBox="0 0 100 100" fill="none" xmlns="http://www.w3.org/2000/svg">
<path d="M92.1875 37.6094V34.4844C92.1885 33.8371 92.059 33.1963 91.8066 32.6003C91.5542 32.0043 91.1842 31.4653 90.7188 31.0156C90.2484 30.57 89.6937 30.2229 89.0873 29.9949C88.4808 29.7668 87.8349 29.6623 87.1875 29.6875C81.4228 29.8435 75.6778 30.4285 70 31.4375L67.9375 31.8437C67.4947 27.459 65.4641 23.3874 62.228 20.3957C58.992 17.404 54.7738 15.6986 50.3679 15.6007C45.9619 15.5027 41.6721 17.019 38.3064 19.8639C34.9406 22.7088 32.731 26.6861 32.0938 31.0469C32.0938 31.3281 32.0938 31.5937 32.0938 31.8594C25.7391 30.5948 19.2892 29.8683 12.8125 29.6875C12.1639 29.6687 11.5182 29.78 10.9133 30.0148C10.3085 30.2496 9.75675 30.6032 9.29073 31.0546C8.82471 31.5061 8.45381 32.0463 8.19993 32.6434C7.94605 33.2405 7.81431 33.8824 7.8125 34.5312V37.6562C6.04787 38.0164 4.46188 38.9753 3.32296 40.3704C2.18404 41.7656 1.56213 43.5115 1.5625 45.3125V89.0625C1.5625 91.1345 2.3856 93.1216 3.85073 94.5868C4.57619 95.3122 5.43743 95.8877 6.38529 96.2803C7.33314 96.6729 8.34905 96.875 9.375 96.875H90.625C92.697 96.875 94.6841 96.0519 96.1493 94.5868C97.6144 93.1216 98.4375 91.1345 98.4375 89.0625V45.3125C98.4487 43.5034 97.8318 41.7466 96.6919 40.3417C95.5521 38.9369 93.96 37.9711 92.1875 37.6094ZM35.2188 31.4844C35.7156 28.2368 37.2639 25.2418 39.6261 22.9586C41.9884 20.6753 45.0343 19.2299 48.2969 18.8437C48.8625 18.7815 49.431 18.7502 50 18.75C53.6713 18.7412 57.2142 20.1004 59.9375 22.5625C61.5768 24.0275 62.8725 25.8362 63.7321 27.8597C64.5918 29.8831 64.9942 32.0714 64.9106 34.2683C64.827 36.4652 64.2595 38.6166 63.2486 40.5689C62.2377 42.5212 60.8083 44.2263 59.0625 45.5625C57.7385 46.5441 56.661 47.8203 55.9153 49.2901C55.1695 50.7599 54.7759 52.3831 54.7656 54.0312C54.7615 54.6184 54.5265 55.1804 54.1112 55.5956C53.696 56.0108 53.1341 56.2459 52.5469 56.25H51.5625V45.3125C51.5632 44.9474 51.4361 44.5936 51.2031 44.3125L45.5156 37.5H54.0313L51.2344 40.2969C50.9784 40.5958 50.8446 40.9803 50.8598 41.3735C50.875 41.7668 51.038 42.1398 51.3163 42.4181C51.5946 42.6963 51.9676 42.8593 52.3609 42.8745C52.7541 42.8897 53.1386 42.756 53.4375 42.5L58.9062 37.0312C59.1204 36.8128 59.2657 36.5364 59.3242 36.2362C59.3827 35.936 59.3518 35.6252 59.2354 35.3424C59.1189 35.0596 58.922 34.8172 58.6691 34.6452C58.4162 34.4732 58.1183 34.3793 57.8125 34.375H42.1875C41.8903 34.3745 41.5992 34.4588 41.3482 34.6179C41.0973 34.777 40.8969 35.0044 40.7706 35.2734C40.6443 35.5424 40.5973 35.8418 40.6352 36.1366C40.6731 36.4313 40.7942 36.7092 40.9844 36.9375L48.4375 45.875V56.25H47.4531C47.1584 56.25 46.8666 56.1917 46.5944 56.0784C46.3223 55.9652 46.0753 55.7992 45.8676 55.59C45.6599 55.3809 45.4957 55.1327 45.3843 54.8598C45.273 54.587 45.2167 54.2947 45.2188 54C45.2006 52.3538 44.8019 50.7342 44.0538 49.2677C43.3056 47.8013 42.2284 46.5278 40.9062 45.5469C38.7826 43.9298 37.1337 41.7705 36.1329 39.296C35.1321 36.8215 34.8163 34.1231 35.2188 31.4844ZM10.9375 34.5312C10.9394 34.2994 10.9878 34.0704 11.0798 33.8576C11.1718 33.6448 11.3055 33.4526 11.473 33.2924C11.6405 33.1322 11.8384 33.0071 12.0551 32.9247C12.2717 32.8423 12.5027 32.8041 12.7344 32.8125C19.2136 32.9925 25.6649 33.7349 32.0156 35.0312C32.195 37.5732 32.9167 40.0473 34.1322 42.287C35.3477 44.5267 37.0289 46.48 39.0625 48.0156C40.0126 48.7053 40.7894 49.6063 41.3317 50.6475C41.874 51.6888 42.167 52.8418 42.1875 54.0156C42.1873 55.4209 42.739 56.7701 43.7239 57.7725C44.7088 58.7749 46.048 59.3504 47.4531 59.375H52.5469C53.2541 59.3729 53.9539 59.2314 54.6062 58.9584C55.2586 58.6854 55.8507 58.2863 56.3485 57.7841C56.8464 57.2819 57.2403 56.6864 57.5076 56.0316C57.7749 55.3769 57.9104 54.6759 57.9063 53.9687C57.9316 52.8046 58.2271 51.6623 58.7694 50.6319C59.3117 49.6015 60.086 48.7112 61.0313 48.0312C63.0552 46.4866 64.7264 44.528 65.9335 42.2863C67.1406 40.0446 67.8558 37.5712 68.0312 35.0312L70.625 34.5156C76.1222 33.5379 81.6843 32.9686 87.2656 32.8125C87.5001 32.8004 87.7344 32.8388 87.9527 32.9251C88.1711 33.0113 88.3683 33.1434 88.5312 33.3125C88.6961 33.4728 88.8267 33.6648 88.9153 33.8769C89.0039 34.0891 89.0487 34.317 89.0469 34.5469V84.2187C89.0473 84.6614 88.877 85.0871 88.5714 85.4073C88.2658 85.7274 87.8484 85.9174 87.4062 85.9375C75.1424 86.1015 63.0056 88.4453 51.5625 92.8594V65.625H53.125C53.5394 65.625 53.9368 65.4604 54.2299 65.1673C54.5229 64.8743 54.6875 64.4769 54.6875 64.0625C54.6875 63.6481 54.5229 63.2507 54.2299 62.9576C53.9368 62.6646 53.5394 62.5 53.125 62.5H46.875C46.4606 62.5 46.0632 62.6646 45.7701 62.9576C45.4771 63.2507 45.3125 63.6481 45.3125 64.0625C45.3125 64.4769 45.4771 64.8743 45.7701 65.1673C46.0632 65.4604 46.4606 65.625 46.875 65.625H48.4375V92.875C36.9973 88.4491 24.8592 86.0998 12.5938 85.9375C12.1488 85.9213 11.7275 85.7331 11.4186 85.4125C11.1097 85.0919 10.9372 84.664 10.9375 84.2187V34.5312ZM4.6875 89.0625V45.3125C4.69022 44.3454 4.992 43.4028 5.55147 42.6139C6.11093 41.8251 6.9007 41.2286 7.8125 40.9062V84.2187C7.81962 85.4744 8.311 86.6789 9.18424 87.5813C10.0575 88.4836 11.2452 89.0142 12.5 89.0625C22.3096 89.2952 32.0409 90.8724 41.4219 93.75H9.375C8.1318 93.75 6.93951 93.2561 6.06044 92.377C5.18136 91.498 4.6875 90.3057 4.6875 89.0625ZM95.3125 89.0625C95.3125 90.3057 94.8186 91.498 93.9396 92.377C93.0605 93.2561 91.8682 93.75 90.625 93.75H58.5625C67.9485 90.871 77.6851 89.2937 87.5 89.0625C88.7548 89.0142 89.9425 88.4836 90.8158 87.5813C91.689 86.6789 92.1804 85.4744 92.1875 84.2187V40.8594C93.1069 41.1844 93.902 41.788 94.4621 42.5862C95.0222 43.3844 95.3195 44.3374 95.3125 45.3125V89.0625Z" fill="#0195FF"/>
<path d="M17.078 42.1874C19.1405 42.328 21.2186 42.5155 23.2499 42.7655H23.4374C23.8518 42.7904 24.2591 42.6496 24.5697 42.3742C24.8803 42.0987 25.0688 41.7112 25.0936 41.2968C25.1185 40.8824 24.9777 40.4751 24.7023 40.1644C24.4268 39.8538 24.0393 39.6654 23.6249 39.6405C21.5468 39.3905 19.4061 39.1874 17.2968 39.0468C16.8824 39.0198 16.4742 39.1586 16.1622 39.4326C15.8501 39.7066 15.6596 40.0933 15.6327 40.5077C15.6058 40.9221 15.7445 41.3302 16.0185 41.6423C16.2925 41.9544 16.6792 42.1448 17.0936 42.1718L17.078 42.1874Z" fill="#0195FF"/>
<path d="M17.078 48.6405C20.8898 48.8892 24.6864 49.3324 28.453 49.9686H28.7186C28.9238 49.9861 29.1304 49.9629 29.3267 49.9005C29.5229 49.8381 29.705 49.7377 29.8624 49.6049C30.0198 49.4721 30.1495 49.3097 30.2442 49.1268C30.3388 48.9439 30.3965 48.7441 30.4139 48.5389C30.4314 48.3338 30.4082 48.1271 30.3458 47.9309C30.2834 47.7346 30.183 47.5526 30.0502 47.3952C29.9175 47.2378 29.755 47.108 29.5721 47.0134C29.3892 46.9188 29.1894 46.8611 28.9843 46.8436C25.1143 46.187 21.2134 45.7281 17.2968 45.4686C16.8824 45.4417 16.4742 45.5805 16.1622 45.8545C15.8501 46.1284 15.6596 46.5152 15.6327 46.9296C15.6058 47.344 15.7445 47.7521 16.0185 48.0642C16.2925 48.3762 16.6792 48.5667 17.0936 48.5936L17.078 48.6405Z" fill="#0195FF"/>
<path d="M15.6251 57.9218C15.5994 58.3338 15.7378 58.7393 16.01 59.0496C16.2823 59.36 16.6663 59.5499 17.0782 59.578C25.4355 60.0901 33.702 61.5954 41.7032 64.0624C42.099 64.1867 42.5279 64.1487 42.8957 63.9568C43.2634 63.7649 43.5399 63.4347 43.6642 63.039C43.7885 62.6432 43.7505 62.2143 43.5586 61.8465C43.3666 61.4788 43.0365 61.2023 42.6407 61.078C34.4035 58.5151 25.8905 56.9415 17.2814 56.3905C17.071 56.3778 16.8603 56.4078 16.6619 56.4787C16.4634 56.5496 16.2814 56.6598 16.1266 56.8029C15.9719 56.9459 15.8477 57.1188 15.7615 57.3111C15.6753 57.5034 15.6289 57.7111 15.6251 57.9218Z" fill="#0195FF"/>
<path d="M42.6561 68.7499C34.4188 66.1871 25.9059 64.6135 17.2968 64.0624C17.0916 64.049 16.8858 64.0763 16.6911 64.1425C16.4964 64.2087 16.3167 64.3126 16.1622 64.4482C15.8501 64.7222 15.6596 65.1089 15.6327 65.5233C15.6058 65.9377 15.7445 66.3458 16.0185 66.6579C16.2925 66.97 16.6792 67.1604 17.0936 67.1874C25.4515 67.7046 33.718 69.2153 41.7186 71.6874C42.0851 71.7412 42.4588 71.663 42.7729 71.4669C43.0871 71.2707 43.3214 70.9694 43.4341 70.6165C43.5467 70.2637 43.5303 69.8823 43.3878 69.5404C43.2453 69.1985 42.986 68.9183 42.6561 68.7499Z" fill="#0195FF"/>
<path d="M42.6561 76.5624C34.4189 73.9994 25.9059 72.4259 17.2968 71.8749C16.8824 71.8479 16.4742 71.9867 16.1622 72.2607C15.8501 72.5347 15.6596 72.9214 15.6327 73.3358C15.6058 73.7502 15.7445 74.1583 16.0185 74.4704C16.2925 74.7825 16.6792 74.9729 17.0936 74.9999C25.4539 75.5791 33.7152 77.1527 41.703 79.6874C42.1174 79.8138 42.565 79.7704 42.9474 79.5667C43.3298 79.3631 43.6157 79.0158 43.7421 78.6014C43.8685 78.187 43.8251 77.7394 43.6214 77.357C43.4178 76.9746 43.0705 76.6888 42.6561 76.5624Z" fill="#0195FF"/>
<path d="M57.8124 64.1561C57.9678 64.1797 58.1258 64.1797 58.2812 64.1561C66.2817 61.6839 74.5483 60.1732 82.9062 59.6561C83.3206 59.6292 83.7073 59.4387 83.9813 59.1267C84.2553 58.8146 84.394 58.4065 84.3671 57.9921C84.3402 57.5777 84.1497 57.1909 83.8376 56.917C83.5256 56.643 83.1174 56.5042 82.703 56.5311C74.0939 57.0821 65.5809 58.6557 57.3437 61.2186C57.1385 61.2494 56.9414 61.3203 56.7636 61.4273C56.5858 61.5342 56.4308 61.6752 56.3075 61.842C56.0584 62.179 55.9534 62.6011 56.0155 63.0155C56.0777 63.4299 56.3019 63.8026 56.6389 64.0517C56.9759 64.3008 57.398 64.4058 57.8124 64.3436V64.1561Z" fill="#0195FF"/>
<path d="M57.8124 71.7655C57.9678 71.7891 58.1258 71.7891 58.2812 71.7655C66.2785 69.2669 74.5451 67.73 82.9062 67.1874C83.1114 67.174 83.3119 67.1204 83.4964 67.0296C83.6808 66.9387 83.8456 66.8124 83.9813 66.6579C84.1169 66.5034 84.2208 66.3237 84.287 66.129C84.3532 65.9343 84.3804 65.7285 84.3671 65.5233C84.3538 65.3181 84.3001 65.1176 84.2093 64.9331C84.1185 64.7486 83.9922 64.5839 83.8376 64.4482C83.6831 64.3126 83.5034 64.2087 83.3087 64.1425C83.114 64.0763 82.9082 64.049 82.703 64.0624C74.0939 64.6135 65.5809 66.1871 57.3437 68.7499C56.9293 68.812 56.5565 69.0363 56.3075 69.3733C56.0584 69.7102 55.9534 70.1324 56.0155 70.5468C56.0777 70.9612 56.3019 71.3339 56.6389 71.583C56.9759 71.832 57.398 71.937 57.8124 71.8749V71.7655Z" fill="#0195FF"/>
<path d="M57.8124 79.6874C57.9678 79.711 58.1258 79.711 58.2812 79.6874C66.2817 77.2151 74.5483 75.7045 82.9062 75.1874C83.3206 75.1604 83.7073 74.97 83.9813 74.6579C84.2553 74.3458 84.394 73.9377 84.3671 73.5233C84.3402 73.1089 84.1497 72.7222 83.8376 72.4482C83.5256 72.1742 83.1174 72.0354 82.703 72.0624C74.1015 72.5524 65.5887 74.063 57.3437 76.5624C56.9293 76.6245 56.5565 76.8488 56.3075 77.1858C56.0584 77.5227 55.9534 77.9449 56.0155 78.3593C56.0777 78.7737 56.3019 79.1464 56.6389 79.3955C56.9759 79.6445 57.398 79.7495 57.8124 79.6874Z" fill="#0195FF"/>
<path d="M50 10.9375C50.4144 10.9375 50.8118 10.7729 51.1049 10.4799C51.3979 10.1868 51.5625 9.7894 51.5625 9.375V3.125C51.5625 2.7106 51.3979 2.31317 51.1049 2.02015C50.8118 1.72712 50.4144 1.5625 50 1.5625C49.5856 1.5625 49.1882 1.72712 48.8951 2.02015C48.6021 2.31317 48.4375 2.7106 48.4375 3.125V9.375C48.4375 9.7894 48.6021 10.1868 48.8951 10.4799C49.1882 10.7729 49.5856 10.9375 50 10.9375Z" fill="#0195FF"/>
<path d="M61.0469 15.5156C61.2526 15.5168 61.4564 15.4774 61.6468 15.3996C61.8372 15.3219 62.0103 15.2073 62.1563 15.0625L66.5782 10.6406C66.8342 10.3417 66.9679 9.9572 66.9527 9.56396C66.9375 9.17072 66.7745 8.79769 66.4962 8.51941C66.218 8.24114 65.8449 8.07812 65.4517 8.06293C65.0585 8.04774 64.674 8.1815 64.3751 8.43748L59.9376 12.8437C59.7172 13.0623 59.5669 13.3415 59.5059 13.6458C59.4448 13.9501 59.4758 14.2657 59.5948 14.5523C59.7138 14.8389 59.9155 15.0836 60.1741 15.2552C60.4327 15.4268 60.7366 15.5174 61.0469 15.5156Z" fill="#0195FF"/>
<path d="M37.8437 15.0625C38.1426 15.3185 38.5271 15.4522 38.9204 15.437C39.3136 15.4218 39.6867 15.2588 39.9649 14.9805C40.2432 14.7023 40.4062 14.3292 40.4214 13.936C40.4366 13.5428 40.3028 13.1583 40.0469 12.8594L35.6406 8.42186C35.3417 8.16588 34.9572 8.03212 34.564 8.04731C34.1707 8.0625 33.7977 8.22552 33.5194 8.50379C33.2411 8.78206 33.0781 9.15509 33.0629 9.54834C33.0477 9.94158 33.1815 10.3261 33.4375 10.625L37.8437 15.0625Z" fill="#0195FF"/>
</svg>
