<svg width="100" height="100" viewBox="0 0 100 100" fill="none" xmlns="http://www.w3.org/2000/svg">
<mask id="mask0_48_1838" style="mask-type:luminance" maskUnits="userSpaceOnUse" x="0" y="0" width="100" height="100">
<path d="M0 7.62939e-06H100V100H0V7.62939e-06Z" fill="white"/>
</mask>
<g mask="url(#mask0_48_1838)">
<path d="M36.328 91.2104V96.0938M63.6718 96.0938V55.0777C63.6718 52.9293 61.9139 51.1715 59.7655 51.1715H40.2343C38.086 51.1715 36.328 52.9295 36.328 55.0777V73.6322M34.3749 58.9842H12.8905C10.7421 58.9842 8.98425 60.7422 8.98425 62.8904V98.0469H91.0155V70.7029C91.0155 68.5545 89.2577 66.7967 87.1093 66.7967H65.6249" stroke="#0195FF" stroke-width="3" stroke-miterlimit="2.613" stroke-linecap="round" stroke-linejoin="round"/>
<path d="M73.4374 75.9738C74.1505 75.1387 75.2085 74.6094 76.3897 74.6094C78.5372 74.6094 80.2778 76.3582 80.2778 78.5156C80.2778 79.6084 79.8309 80.5963 79.1108 81.3053C80.4016 82.1832 81.2499 83.6678 81.2499 85.3516C81.2499 88.0482 79.0739 90.2344 76.3897 90.2344C75.2792 90.2344 74.2557 89.8598 73.4374 89.2301" stroke="#0195FF" stroke-width="3" stroke-miterlimit="2.613" stroke-linecap="round" stroke-linejoin="round"/>
<path d="M19.0896 68.9903C21.2001 65.011 26.6132 66.8594 26.562 71.2329C26.4939 77.053 18.7499 77.9485 18.7499 82.4221H26.562" stroke="#0195FF" stroke-width="3" stroke-miterlimit="2.613" stroke-linecap="round" stroke-linejoin="round"/>
<path d="M49.9999 74.2249V58.9844L47.8345 60.2346" stroke="#0195FF" stroke-width="3" stroke-miterlimit="2.613" stroke-linecap="round" stroke-linejoin="round"/>
<path d="M47.8345 74.6091H52.1653" stroke="#0195FF" stroke-width="3" stroke-miterlimit="2.613" stroke-linecap="round" stroke-linejoin="round"/>
<path d="M52.7176 7.47576L56.8967 15.1633L65.3465 16.6601C67.0371 16.9553 68.1683 18.5652 67.8732 20.256C67.7525 20.9486 67.4109 21.5469 66.9338 21.9922L61.0385 28.2105L62.2265 36.7127C62.4613 38.4101 61.2756 39.9767 59.5781 40.2115C58.9541 40.2978 58.3455 40.1967 57.8164 39.9443L49.9121 36.1785L42.201 39.932C40.6578 40.6834 38.7974 40.0416 38.0461 38.4984C37.734 37.8574 37.6625 37.1615 37.7961 36.5129L38.9057 28.0529L32.9461 21.8719C31.7586 20.6373 31.7967 18.6738 33.031 17.4863C33.5121 17.0236 34.1041 16.7469 34.7174 16.6547L43.2287 15.073L47.2633 7.49979C48.0683 5.99022 49.9449 5.41912 51.4545 6.2242C52.0096 6.52029 52.4377 6.96151 52.7176 7.47576Z" stroke="#0195FF" stroke-width="3" stroke-miterlimit="2.613" stroke-linecap="round" stroke-linejoin="round"/>
<path d="M20.41 1.95288L28.1198 6.40405" stroke="#0195FF" stroke-width="3" stroke-miterlimit="2.613" stroke-linecap="round" stroke-linejoin="round"/>
<path d="M13.7999 25.1062L22.6095 23.8244" stroke="#0195FF" stroke-width="3" stroke-miterlimit="2.613" stroke-linecap="round" stroke-linejoin="round"/>
<path d="M22.3033 46.6201L28.5982 40.3252" stroke="#0195FF" stroke-width="3" stroke-miterlimit="2.613" stroke-linecap="round" stroke-linejoin="round"/>
<path d="M79.5897 1.95288L71.8799 6.40405" stroke="#0195FF" stroke-width="3" stroke-miterlimit="2.613" stroke-linecap="round" stroke-linejoin="round"/>
<path d="M86.1998 25.1062L77.3903 23.8244" stroke="#0195FF" stroke-width="3" stroke-miterlimit="2.613" stroke-linecap="round" stroke-linejoin="round"/>
<path d="M77.6965 46.6201L71.4016 40.3252" stroke="#0195FF" stroke-width="3" stroke-miterlimit="2.613" stroke-linecap="round" stroke-linejoin="round"/>
<path d="M36.328 82.4205V82.4219" stroke="#0195FF" stroke-width="3" stroke-miterlimit="2.613" stroke-linecap="round" stroke-linejoin="round"/>
</g>
</svg>
