<svg width="60" height="60" viewBox="0 0 60 60" fill="none" xmlns="http://www.w3.org/2000/svg">
<path d="M47.6013 34.5977H41.9338C41.4161 34.5977 40.9963 35.0174 40.9963 35.5352V58.0536C40.9963 58.5713 41.4161 58.9911 41.9338 58.9911H47.6013C48.1191 58.9911 48.5388 58.5713 48.5388 58.0536V35.5352C48.5388 35.0174 48.1192 34.5977 47.6013 34.5977ZM46.6638 57.1161H42.8713V36.4727H46.6638V57.1161ZM58.125 29.2465H52.4575C51.9397 29.2465 51.52 29.6663 51.52 30.184V58.0533C51.52 58.5711 51.9397 58.9908 52.4575 58.9908H58.125C58.6427 58.9908 59.0625 58.5711 59.0625 58.0533V30.184C59.0625 29.6663 58.6427 29.2465 58.125 29.2465ZM57.1875 57.1159H53.395V31.1215H57.1875V57.1159ZM26.5536 46.2429H20.8861C20.3684 46.2429 19.9486 46.6627 19.9486 47.1804V58.0533C19.9486 58.5711 20.3684 58.9908 20.8861 58.9908H26.5536C27.0714 58.9908 27.4911 58.5711 27.4911 58.0533V47.1804C27.4911 46.6627 27.0715 46.2429 26.5536 46.2429ZM25.6161 57.1159H21.8236V48.1181H25.6161V57.1159ZM56.8221 21.8613L56.5432 23.7768C56.4686 24.2892 56.8235 24.765 57.3359 24.8395C57.3817 24.8463 57.4272 24.8494 57.4722 24.8494C57.9301 24.8494 58.3308 24.5134 58.3988 24.0468L59.0528 19.5549C59.0933 19.2768 59.0068 18.9951 58.8172 18.7875C58.6276 18.58 58.3543 18.469 58.0743 18.4837L53.5417 18.7298C53.0247 18.7578 52.6283 19.1997 52.6563 19.7167C52.6843 20.2338 53.1266 20.6276 53.6433 20.6021L55.5317 20.4995C50.7857 24.6801 45.5917 28.4403 40.0512 31.7033C39.9772 31.644 39.8937 31.5952 39.802 31.5599L38.5238 31.0679C38.325 30.3885 38.0535 29.7337 37.7129 29.112L38.2693 27.8594C38.4268 27.505 38.3497 27.0903 38.0755 26.8159L36.0831 24.8235C35.8089 24.5493 35.394 24.4725 35.0397 24.6297L33.7863 25.1863C33.1648 24.8459 32.5103 24.5745 31.8312 24.3756L31.6282 23.8483L34.1874 21.3206H34.9166C35.7083 21.3206 36.3524 20.6765 36.3524 19.8848V17.2353C36.3524 16.4437 35.7082 15.7996 34.9166 15.7996H2.37329C1.58157 15.7995 0.937509 16.4436 0.937509 17.2352V19.8847C0.937509 20.6764 1.58157 21.3204 2.37329 21.3204H3.10243L14.4012 32.4807V40.2276C14.4012 40.5418 14.5586 40.835 14.8202 41.0086C14.9762 41.1122 15.1569 41.1651 15.3387 41.1651C15.462 41.1651 15.5857 41.1408 15.7027 41.0915L20.1033 39.2368L19.8407 39.8282C19.6833 40.1826 19.7603 40.5973 20.0346 40.8717L22.027 42.8641C22.3013 43.1384 22.7161 43.2152 23.0705 43.0579L24.3236 42.5013C24.9452 42.8417 25.5999 43.1132 26.2788 43.3118L26.7711 44.5907C26.9104 44.9526 27.2582 45.1914 27.6461 45.1914H30.4637C30.4667 45.1914 30.4693 45.1908 30.4723 45.1907V58.0533C30.4723 58.5711 30.892 58.9908 31.4098 58.9908H37.0774C37.5952 58.9908 38.0149 58.5711 38.0149 58.0533V40.9319L38.0752 40.8717C38.3494 40.5974 38.4264 40.1827 38.269 39.8283L37.7124 38.5751C38.0528 37.9534 38.3242 37.2988 38.5229 36.62L39.8018 36.1277C40.1637 35.9884 40.4025 35.6406 40.4025 35.2527V33.6683C46.2904 30.2533 51.8025 26.2888 56.8221 21.8613ZM2.81251 17.6745H34.4772V19.4454H2.81251V17.6745ZM5.77067 21.3206H31.519L30.3288 22.4962H27.6463C27.2585 22.4962 26.9107 22.7349 26.7714 23.0969L26.2791 24.3756C25.6 24.5745 24.9455 24.8459 24.3238 25.1863L23.0706 24.6297C22.7162 24.4725 22.3015 24.5493 22.0272 24.8235L20.0347 26.8159C19.7605 27.0903 19.6834 27.505 19.8408 27.8594L20.3973 29.1125C20.0568 29.734 19.7854 30.3888 19.5866 31.068L19.3692 31.1516H15.7238L5.77067 21.3206ZM16.2762 33.0266H17.7073V35.2527C17.7073 35.6406 17.9461 35.9883 18.308 36.1277L19.5863 36.6197C19.6556 36.8567 19.7344 37.0905 19.8212 37.3211L16.2761 38.8152L16.2762 33.0266ZM36.1402 57.1162H32.3475V43.1456C32.8432 42.9701 33.3242 42.7551 33.7868 42.5017L35.0394 43.0581C35.3938 43.2156 35.8085 43.1386 36.0829 42.8642L36.14 42.807V57.1162H36.1402ZM38.5277 34.609L37.4033 35.0418C37.1149 35.1528 36.8997 35.399 36.8281 35.6996C36.6325 36.5218 36.3079 37.3046 35.8634 38.0266C35.7013 38.2898 35.6794 38.616 35.8048 38.8986L36.2944 40.0008L35.2123 41.0829L34.1106 40.5936C33.8281 40.4681 33.5017 40.4897 33.2385 40.6522C32.5165 41.0968 31.7333 41.4214 30.9109 41.617C30.6102 41.6886 30.364 41.9037 30.253 42.1922L29.8204 43.3163H28.29L27.8572 42.1918C27.7463 41.9033 27.5 41.6881 27.1993 41.6166C26.3773 41.4209 25.5943 41.0964 24.8724 40.6518C24.609 40.4897 24.2828 40.4679 24.0002 40.5933L22.8981 41.0829L21.816 40.0009L22.3052 38.8992C22.4307 38.6166 22.4088 38.2904 22.2466 38.027C21.8022 37.3054 21.4775 36.5222 21.2817 35.6996C21.2101 35.3989 20.995 35.1527 20.7065 35.0417L19.5825 34.609V33.0787L20.7067 32.646C20.9952 32.535 21.2104 32.2888 21.282 31.9881C21.4777 31.1657 21.8023 30.3828 22.2468 29.661C22.409 29.3977 22.4309 29.0715 22.3054 28.7889L21.8159 27.6868L22.898 26.6048L24.0002 27.0944C24.2827 27.2198 24.609 27.198 24.8722 27.0359C25.5942 26.5913 26.3772 26.2668 27.1993 26.071C27.5 25.9995 27.7461 25.7843 27.8571 25.4958L28.29 24.3714H29.8204L30.2531 25.4958C30.3641 25.7842 30.6102 25.9995 30.9109 26.071C31.7332 26.2668 32.5161 26.5914 33.2379 27.0358C33.5012 27.1981 33.8275 27.2198 34.11 27.0944L35.2123 26.6048L36.2944 27.6868L35.8051 28.7884C35.6796 29.071 35.7015 29.3972 35.8637 29.6606C36.3083 30.3824 36.6329 31.1656 36.8286 31.9881C36.9001 32.2888 37.1154 32.535 37.4039 32.646L38.5279 33.0787V34.609H38.5277ZM1.87501 13.5868H35.4148C35.6808 13.5868 35.9343 13.4738 36.112 13.276C36.2898 13.0782 36.3752 12.814 36.3469 12.5495C36.096 10.2058 34.6383 8.26833 32.6292 7.3211C33.2353 6.65044 33.605 5.76228 33.605 4.78927C33.605 2.70485 31.9092 1.00903 29.8248 1.00903C27.7404 1.00903 26.0446 2.70485 26.0446 4.78927C26.0446 5.76228 26.4143 6.65044 27.0204 7.3211C25.8696 7.86368 24.9005 8.7311 24.2349 9.81415C23.5692 8.7311 22.6001 7.86368 21.4493 7.3211C22.0554 6.65044 22.4251 5.76228 22.4251 4.78927C22.4251 2.70485 20.7293 1.00903 18.6449 1.00903C16.5605 1.00903 14.8647 2.70485 14.8647 4.78927C14.8647 5.76228 15.2344 6.65044 15.8405 7.3211C14.6897 7.86368 13.7206 8.7311 13.0549 9.81415C12.3893 8.7311 11.4202 7.86368 10.2694 7.3211C10.8755 6.65044 11.2452 5.76228 11.2452 4.78927C11.2452 2.70485 9.54938 1.00903 7.46497 1.00903C5.38056 1.00903 3.68474 2.70474 3.68474 4.78915C3.68474 5.76216 4.05446 6.65032 4.66056 7.32099C2.65149 8.26821 1.19368 10.2058 0.942782 12.5494C0.914423 12.8139 0.999852 13.0781 1.17763 13.2759C1.3554 13.4737 1.60888 13.5868 1.87501 13.5868ZM29.8248 2.88392C30.8754 2.88392 31.73 3.73856 31.73 4.78915C31.73 5.83974 30.8754 6.69438 29.8248 6.69438C28.7742 6.69438 27.9196 5.83974 27.9196 4.78915C27.9196 3.73856 28.7742 2.88392 29.8248 2.88392ZM29.8247 8.56938C31.8619 8.56938 33.6123 9.8636 34.2513 11.7118H25.3981C26.0371 9.8636 27.7876 8.56938 29.8247 8.56938ZM18.6448 2.88392C19.6954 2.88392 20.55 3.73856 20.55 4.78915C20.55 5.83974 19.6954 6.69438 18.6448 6.69438C17.5942 6.69438 16.7395 5.83974 16.7395 4.78915C16.7395 3.73856 17.5942 2.88392 18.6448 2.88392ZM18.6449 8.56938C20.6821 8.56938 22.4326 9.8636 23.0715 11.7118H14.2183C14.8572 9.8636 16.6077 8.56938 18.6449 8.56938ZM7.46497 2.88392C8.51556 2.88392 9.3702 3.73856 9.3702 4.78915C9.3702 5.83974 8.51556 6.69438 7.46497 6.69438C6.41438 6.69438 5.55974 5.83974 5.55974 4.78915C5.55974 3.73856 6.41438 2.88392 7.46497 2.88392ZM7.46497 8.56938C9.50216 8.56938 11.2526 9.8636 11.8916 11.7118H3.03821C3.67724 9.8636 5.42778 8.56938 7.46497 8.56938ZM29.055 27.9924C25.8285 27.9924 23.2034 30.6173 23.2034 33.8439C23.2034 37.0706 25.8284 39.6954 29.055 39.6954C32.2817 39.6954 34.9065 37.0706 34.9065 33.8439C34.9065 30.6173 32.2815 27.9924 29.055 27.9924ZM29.055 37.8203C26.8623 37.8203 25.0784 36.0365 25.0784 33.8438C25.0784 31.6511 26.8623 29.8673 29.055 29.8673C31.2477 29.8673 33.0315 31.6511 33.0315 33.8438C33.0315 36.0365 31.2477 37.8203 29.055 37.8203ZM52.5456 11.6791C52.6059 11.6092 52.6423 11.5305 52.6233 11.3736C52.6024 11.2024 52.5538 10.8015 51.2664 10.59C48.984 10.2152 48.5824 8.90384 48.5461 8.1556C48.4882 6.96403 49.255 5.95868 50.4747 5.59294V5.4413C50.4747 4.92356 50.8944 4.5038 51.4122 4.5038C51.9299 4.5038 52.3497 4.92356 52.3497 5.4413V5.58438C53.1326 5.81149 53.8584 6.34774 54.2529 7.28688C54.4533 7.76431 54.2289 8.3138 53.7515 8.51431C53.2742 8.71481 52.7245 8.49017 52.5242 8.01298C52.2305 7.3136 51.4972 7.2754 51.1106 7.36341C50.9422 7.40161 50.3946 7.56509 50.419 8.06477C50.4249 8.18595 50.4428 8.55474 51.5702 8.73989C53.3454 9.03134 54.326 9.84145 54.4846 11.1477C54.5651 11.8108 54.385 12.4188 53.9638 12.9058C53.5842 13.3445 53.0101 13.6643 52.3497 13.82V13.9372C52.3497 14.4549 51.9299 14.8747 51.4122 14.8747C50.8944 14.8747 50.4747 14.4549 50.4747 13.9372V13.8033C49.4127 13.5186 48.6072 12.7573 48.349 11.7217C48.2237 11.2193 48.5295 10.7105 49.0318 10.5852C49.5345 10.4603 50.0429 10.7658 50.1682 11.2681C50.317 11.8652 50.9639 12.06 51.4774 12.0504C51.9265 12.0397 52.3657 11.8871 52.5456 11.6791ZM51.412 17.3396C55.6306 17.3396 59.0625 13.9076 59.0625 9.68923C59.0625 5.47071 55.6304 2.03876 51.412 2.03876C47.1936 2.03876 43.7617 5.47071 43.7617 9.68923C43.7617 13.9076 47.1936 17.3396 51.412 17.3396ZM51.412 3.91364C54.5966 3.91364 57.1875 6.50442 57.1875 9.68911C57.1875 12.8737 54.5966 15.4645 51.412 15.4645C48.2275 15.4645 45.6367 12.8737 45.6367 9.68911C45.6367 6.50454 48.2276 3.91364 51.412 3.91364Z" fill="#B10043"/>
</svg>
