<svg width="60" height="60" viewBox="0 0 60 60" fill="none" xmlns="http://www.w3.org/2000/svg">
<g clip-path="url(#clip0_48_2161)">
<path d="M48.7903 13.0819L45.9375 10.2291L43.0847 13.0819L41.759 11.7562L45.9375 7.57776L50.116 11.7562L48.7903 13.0819Z" fill="#B10043"/>
<path d="M45 9.37219H46.875V19.6847H45V9.37219Z" fill="#B10043"/>
<path d="M50.625 31.8723H48.75V27.8407C55.8234 26.3969 60.6546 19.8317 59.9286 12.6489C59.203 5.46661 53.1569 0 45.9375 0C38.7181 0 32.672 5.46661 31.9464 12.6489C31.2204 19.8317 36.0516 26.3969 43.125 27.8407V31.8723H41.25V58.1223H37.5V28.1223H28.125V58.1223H24.375V35.6223H15V58.1223H11.25V44.9973H1.875V58.1223H0V59.9973H60V58.1223H50.625V31.8723ZM9.375 58.1223H3.75V46.8723H9.375V58.1223ZM22.5 58.1223H16.875V37.4973H22.5V58.1223ZM35.625 58.1223H30V29.9973H35.625V58.1223ZM33.75 14.0598C33.75 7.55493 38.8582 2.19681 45.3557 1.88644C51.8527 1.57562 57.4489 6.42242 58.0696 12.897C58.6899 19.3721 54.1164 25.1935 47.6784 26.1223L46.875 26.2376V31.8723H45V26.2376L44.1966 26.1223C38.2127 25.2338 33.7747 20.1091 33.75 14.0598ZM48.75 58.1223H43.125V33.7473H48.75V58.1223Z" fill="#B10043"/>
<path d="M56.25 14.0597C56.25 8.3642 51.633 3.74719 45.9375 3.74719C40.242 3.74719 35.625 8.3642 35.625 14.0597C35.625 19.7552 40.242 24.3722 45.9375 24.3722C51.6302 24.3653 56.2431 19.7524 56.25 14.0597ZM37.5 14.0597C37.5 9.39966 41.2775 5.62219 45.9375 5.62219C50.5975 5.62219 54.375 9.39966 54.375 14.0597C54.375 18.7193 50.5975 22.4972 45.9375 22.4972C41.2798 22.4917 37.505 18.7174 37.5 14.0597Z" fill="#B10043"/>
<path d="M13.4917 31.8722H20.0757L28.125 23.8229V26.2472H30V20.6222H24.375V22.4972H26.7993L19.2993 29.9972H12.7583L0.300751 41.4962L1.57425 42.8727L13.4917 31.8722Z" fill="#B10043"/>
<path d="M54.375 31.8722H60V33.7472H54.375V31.8722Z" fill="#B10043"/>
<path d="M54.375 35.6223H60V37.4973H54.375V35.6223Z" fill="#B10043"/>
<path d="M54.375 39.3723H60V41.2473H54.375V39.3723Z" fill="#B10043"/>
<path d="M54.375 43.1222H60V44.9972H54.375V43.1222Z" fill="#B10043"/>
<path d="M54.375 46.8722H60V48.7472H54.375V46.8722Z" fill="#B10043"/>
<path d="M54.375 50.6223H60V52.4973H54.375V50.6223Z" fill="#B10043"/>
<path d="M54.375 54.3723H60V56.2473H54.375V54.3723Z" fill="#B10043"/>
</g>
<defs>
<clipPath id="clip0_48_2161">
<rect width="60" height="60" fill="white"/>
</clipPath>
</defs>
</svg>
