<svg width="60" height="60" viewBox="0 0 60 60" fill="none" xmlns="http://www.w3.org/2000/svg">
<g clip-path="url(#clip0_48_2107)">
<path d="M58.125 54.5478V45.7647C58.7503 45.5448 59.2775 45.1107 59.6133 44.5392C59.949 43.9677 60.0716 43.2958 59.9592 42.6426C59.8469 41.9894 59.507 41.3971 58.9996 40.9706C58.4923 40.544 57.8503 40.3109 57.1875 40.3125H52.3273C52.4384 40.0123 52.4969 39.6951 52.5 39.375C52.4983 38.7953 52.3171 38.2303 51.9813 37.7577C51.6456 37.285 51.1718 36.9279 50.625 36.7353V34.6875H53.6069L51.9672 24.8516C52.3792 24.4558 52.68 23.9585 52.8394 23.4098C52.9988 22.861 53.0111 22.28 52.8752 21.725C52.7392 21.1699 52.4598 20.6604 52.0649 20.2474C51.67 19.8344 51.1734 19.5324 50.625 19.3718V15.2911L48.1839 14.3612L55.9617 11.25L30 0.865234L4.03841 11.25L15 15.6348V27.1875H11.25C9.66284 27.1858 8.11611 27.6882 6.83289 28.6223C5.54967 29.5564 4.59626 30.8739 4.11015 32.3848C3.62403 33.8957 3.63034 35.522 4.12815 37.0291C4.62595 38.5362 5.58954 39.8463 6.87997 40.7704C4.63817 41.4781 2.72367 42.9647 1.48281 44.9614C0.241944 46.958 -0.24333 49.3329 0.114771 51.6563C0.472871 53.9797 1.6507 56.0982 3.43518 57.6286C5.21966 59.159 7.49294 60.0002 9.84378 60H57.1875C57.8503 60.0016 58.4923 59.7685 58.9996 59.342C59.507 58.9155 59.8469 58.3231 59.9592 57.6699C60.0716 57.0167 59.949 56.3448 59.6133 55.7733C59.2775 55.2018 58.7503 54.7677 58.125 54.5478ZM56.25 47.8125H39.375V49.6875H56.25V54.375H9.67766C8.55877 54.375 7.48572 53.9305 6.69455 53.1394C5.90338 52.3482 5.45891 51.2751 5.45891 50.1563C5.45891 49.0374 5.90338 47.9643 6.69455 47.1732C7.48572 46.382 8.55877 45.9375 9.67766 45.9375H56.25V47.8125ZM48.75 36.5625H11.25C10.7527 36.5625 10.2758 36.365 9.92421 36.0133C9.57258 35.6617 9.37503 35.1848 9.37503 34.6875C9.37503 34.1902 9.57258 33.7133 9.92421 33.3617C10.2758 33.0101 10.7527 32.8125 11.25 32.8125H22.4771C24.9312 33.4618 27.4616 33.7771 30 33.75C32.5384 33.7771 35.0689 33.4618 37.523 32.8125H46.0808L45.7681 34.6875H48.75V36.5625ZM44.4835 29.0625H46.7063L46.3937 30.9375H42.0575C42.947 30.4247 43.763 29.794 44.4835 29.0625ZM51.3928 32.8125H47.9819L49.1625 25.7282C49.509 25.7989 49.8661 25.7989 50.2125 25.7282L51.3928 32.8125ZM51.0938 22.5C51.0938 22.7781 51.0113 23.05 50.8568 23.2813C50.7023 23.5125 50.4826 23.6928 50.2257 23.7992C49.9687 23.9057 49.686 23.9335 49.4132 23.8792C49.1404 23.825 48.8898 23.6911 48.6932 23.4944C48.4965 23.2977 48.3626 23.0471 48.3083 22.7744C48.254 22.5016 48.2819 22.2188 48.3883 21.9619C48.4948 21.7049 48.675 21.4853 48.9063 21.3308C49.1375 21.1762 49.4094 21.0938 49.6875 21.0938C50.0604 21.0942 50.4178 21.2425 50.6814 21.5061C50.9451 21.7697 51.0934 22.1272 51.0938 22.5ZM48.75 16.5844V19.3722C48.2016 19.5329 47.7051 19.8348 47.3102 20.2478C46.9153 20.6609 46.6358 21.1704 46.4999 21.7254C46.364 22.2805 46.3763 22.8615 46.5357 23.4102C46.695 23.959 46.9958 24.4562 47.4079 24.8521L47.0185 27.1875H45V15.6348L45.6139 15.3892L48.75 16.5844ZM30 2.8848L50.9134 11.25L45.5978 13.3762L30.3338 7.56133L29.6663 9.3137L43.0282 14.4043L30 19.6152L9.08666 11.25L30 2.8848ZM30 21.6348L43.125 16.3848V27.7698C42.285 28.6406 38.5831 31.875 30 31.875C21.4078 31.875 17.7072 28.6331 16.875 27.7707V16.3848L30 21.6348ZM5.62503 34.6875C5.62667 33.1962 6.21983 31.7664 7.27436 30.7118C8.3289 29.6573 9.75869 29.0642 11.25 29.0625H15.5166C16.237 29.794 17.0531 30.4247 17.9426 30.9375H11.25C10.2555 30.9375 9.30164 31.3326 8.59838 32.0359C7.89512 32.7391 7.50003 33.693 7.50003 34.6875C7.50003 35.6821 7.89512 36.6359 8.59838 37.3392C9.30164 38.0424 10.2555 38.4375 11.25 38.4375H49.6875C49.9362 38.4375 50.1746 38.5363 50.3504 38.7121C50.5263 38.8879 50.625 39.1264 50.625 39.375C50.625 39.6237 50.5263 39.8621 50.3504 40.0379C50.1746 40.2137 49.9362 40.3125 49.6875 40.3125H11.25C9.75869 40.3109 8.3289 39.7177 7.27436 38.6632C6.21983 37.6086 5.62667 36.1789 5.62503 34.6875ZM57.1875 58.125H9.84378C7.73034 58.125 5.70345 57.2854 4.20902 55.791C2.71459 54.2966 1.87503 52.2697 1.87503 50.1563C1.87503 48.0428 2.71459 46.0159 4.20902 44.5215C5.70345 43.0271 7.73034 42.1875 9.84378 42.1875H57.1875C57.4362 42.1875 57.6746 42.2863 57.8504 42.4621C58.0263 42.6379 58.125 42.8764 58.125 43.125C58.125 43.3737 58.0263 43.6121 57.8504 43.7879C57.6746 43.9637 57.4362 44.0625 57.1875 44.0625H9.67766C8.06149 44.0625 6.51152 44.7045 5.36872 45.8473C4.22592 46.9901 3.58391 48.5401 3.58391 50.1563C3.58391 51.7724 4.22592 53.3224 5.36872 54.4652C6.51152 55.608 8.06149 56.25 9.67766 56.25H57.1875C57.4362 56.25 57.6746 56.3488 57.8504 56.5246C58.0263 56.7004 58.125 56.9389 58.125 57.1875C58.125 57.4362 58.0263 57.6746 57.8504 57.8504C57.6746 58.0262 57.4362 58.125 57.1875 58.125Z" fill="#B10043"/>
<path d="M35.625 50.625H9.375V52.5H35.625V50.625Z" fill="#B10043"/>
</g>
<defs>
<clipPath id="clip0_48_2107">
<rect width="60" height="60" fill="white"/>
</clipPath>
</defs>
</svg>
