<svg width="60" height="60" viewBox="0 0 60 60" fill="none" xmlns="http://www.w3.org/2000/svg">
<g clip-path="url(#clip0_48_1998)">
<path d="M56.6116 8.06578L54.0477 5.80809L56.6116 3.55087C57.0103 3.1993 57.1467 2.65136 56.9595 2.15423C56.7714 1.65664 56.3067 1.33529 55.7753 1.33529H45.1652V0.879362C45.1652 0.393676 44.7716 0 44.2859 0C43.8002 0 43.4065 0.393676 43.4065 0.879362V12.7391L36.1844 16.6607C36.1446 16.343 36.0493 16.0309 35.8987 15.737L34.8811 13.7503C34.1826 12.3861 32.5044 11.8455 31.1412 12.5436L30.3543 12.9464C29.6933 13.2852 29.204 13.8601 28.976 14.5669C28.748 15.2733 28.8089 16.0263 29.1477 16.6868L30.1653 18.674C30.4028 19.1377 30.7539 19.5048 31.1668 19.7621C30.6267 20.4895 30.3703 21.3839 30.1067 22.3132L29.9172 22.9843C29.7849 23.4516 30.0568 23.9378 30.5241 24.0696C30.6038 24.0925 30.6844 24.103 30.7636 24.103C31.1472 24.103 31.4996 23.8504 31.6095 23.4626L31.799 22.7929C32.1845 21.4338 32.4211 20.706 33.1746 20.2967L34.5255 19.563L34.6921 19.4778C34.7475 19.4494 34.7992 19.4174 34.8518 19.3858L44.4795 14.1577C44.4186 15.3611 43.7709 16.4982 42.7043 17.146L36.4435 20.95C36.4362 20.9541 36.4288 20.9582 36.422 20.9628L34.4733 22.1466C34.0585 22.3988 33.9262 22.9399 34.1785 23.3551C34.416 23.7464 34.9104 23.8856 35.3137 23.6892L33.8351 28.1588L32.7544 28.6019L29.8155 29.8063L30.6624 26.8125C30.7942 26.3452 30.5228 25.859 30.0554 25.7267C29.5876 25.594 29.1019 25.8663 28.9696 26.3337L27.6315 31.0656C27.6141 31.1265 27.6027 31.1933 27.6 31.257L27.2498 37.6894C27.2392 37.9348 27.2914 38.3985 27.1779 38.6379L23.2887 46.82H20.4625C18.8068 46.82 17.4601 48.1667 17.4601 49.822V52.3603C17.081 52.1868 16.6603 52.0897 16.2168 52.0897H9.03951C7.38424 52.0897 6.0375 53.436 6.0375 55.0918V58.2412H3.9263C3.44061 58.2412 3.04694 58.6348 3.04694 59.1205C3.04694 59.6062 3.44061 59.9999 3.9263 59.9999H55.7743C56.26 59.9999 56.6537 59.6062 56.6537 59.1205C56.6537 58.6348 56.26 58.2412 55.7743 58.2412H53.4874V35.575C53.4874 33.9198 52.1406 32.573 50.4854 32.573H45.1652V17.232C46.1403 15.9105 46.5014 14.1783 46.0487 12.5322C45.9778 12.2735 45.7924 12.0611 45.5452 11.9563C45.4239 11.9046 45.2939 11.8817 45.1652 11.8867V10.2814H55.7748C56.3067 10.2814 56.7714 9.96 56.959 9.46287C57.1467 8.96574 57.0103 8.41734 56.6116 8.06578ZM30.65 15.1071C30.7338 14.8475 30.9132 14.636 31.1559 14.512L31.9428 14.1092C32.0911 14.0332 32.2495 13.997 32.406 13.997C32.7768 13.997 33.1352 14.1998 33.3156 14.5518L34.3337 16.539C34.5712 17.0031 34.4174 17.5657 33.9949 17.85L33.7083 18.0052L33.1036 18.3151C32.6033 18.5714 31.9872 18.3728 31.7308 17.872L30.7127 15.8853C30.5887 15.6427 30.5663 15.3662 30.65 15.1071ZM28.8831 47.0905C28.5841 46.9541 28.2591 46.8648 27.9176 46.8333L28.8831 45.5511V47.0905ZM33.0583 40.0048C33.4813 39.4981 33.598 38.9062 33.6923 38.4292C33.7161 38.3157 34.1501 35.9454 34.1501 35.9454C34.1501 35.9454 34.5607 36.2013 34.6037 36.2196C34.6335 36.2328 34.6545 36.2621 34.6577 36.2965L35.1361 41.1593H32.189L33.0583 40.0048ZM38.2585 35.1511L37.516 41.1552H36.9031L36.4082 36.1243C36.3451 35.4798 35.9505 34.9172 35.3723 34.6375L34.4879 34.0768L35.0771 30.8116C35.0771 30.8116 37.559 33.76 37.6167 33.8351C38.1303 34.503 38.3061 34.7703 38.2585 35.1511ZM28.7599 39.407C28.9375 38.8723 29.0199 38.328 29.0062 37.7746L29.3257 31.9079L33.3929 30.2412L32.6537 34.3363C32.6514 34.3473 32.6491 34.3588 32.6477 34.3697L32.0361 37.7558C31.9565 38.1065 31.8869 38.6384 31.6681 38.9272L25.7259 46.82H25.2361L28.7599 39.407ZM7.79623 55.0913C7.79623 54.406 8.35378 53.8485 9.03951 53.8485H16.2168C16.9025 53.8485 17.4605 54.406 17.4605 55.0913V58.2412H7.79623V55.0913ZM19.2188 55.0913V49.822C19.2188 49.1363 19.7768 48.5787 20.4625 48.5787H27.6398C28.3255 48.5787 28.8831 49.1363 28.8831 49.822V58.2412H19.2192V55.0913H19.2188ZM51.7286 35.575V58.2412H42.0648V52.9686C42.0648 52.483 41.6711 52.0893 41.1854 52.0893C40.6993 52.0893 40.3056 52.483 40.3056 52.9686V58.2412H30.6418V44.1608C30.6418 43.4756 31.1993 42.918 31.8851 42.918H39.0623C39.7481 42.918 40.3056 43.4756 40.3056 44.1608V48.5691C40.3056 49.0548 40.6993 49.4484 41.185 49.4484C41.6711 49.4484 42.0643 49.0548 42.0643 48.5691V35.575C42.0643 34.8893 42.6224 34.3317 43.3081 34.3317H44.2767C44.2795 34.3317 44.2827 34.3322 44.2859 34.3322C44.2886 34.3322 44.2918 34.3317 44.2946 34.3317H50.4849C51.1706 34.3317 51.7286 34.8898 51.7286 35.575ZM43.3081 32.573C41.6528 32.573 40.3061 33.9198 40.3061 35.575V41.4298C39.9911 41.2861 39.6478 41.195 39.2866 41.1684L40.004 35.3677C40.1449 34.237 39.5682 33.4876 39.0106 32.7625C38.9516 32.6856 35.5334 28.6271 35.5334 28.6271L37.6305 22.2871L43.4065 18.7779V32.573H43.3081ZM45.1652 8.52217V3.09448H54.4683L52.4647 4.85869C52.1919 5.09902 52.0353 5.44509 52.0353 5.80855C52.0353 6.17202 52.1919 6.51808 52.4647 6.75841L54.4683 8.52263H45.1652V8.52217Z" fill="#353535"/>
</g>
<defs>
<clipPath id="clip0_48_1998">
<rect width="60" height="60" fill="white"/>
</clipPath>
</defs>
</svg>
