<svg width="61" height="60" viewBox="0 0 61 60" fill="none" xmlns="http://www.w3.org/2000/svg">
<g clip-path="url(#clip0_48_1875)">
<path d="M55.3823 42.067C54.5312 41.5995 53.4625 41.9104 52.9953 42.7612C52.5279 43.6121 52.8386 44.6809 53.6895 45.1482C55.7834 46.2985 56.9844 47.5737 56.9844 48.647C56.9844 49.9596 55.1246 51.9939 49.9047 53.7673C44.7479 55.5195 37.8564 56.4843 30.5 56.4843C23.1436 56.4843 16.2521 55.5195 11.0953 53.7673C5.87539 51.9941 4.01562 49.9596 4.01562 48.647C4.01562 47.5737 5.21656 46.2985 7.31047 45.1481C8.16137 44.6807 8.47215 43.612 8.00469 42.7611C7.53723 41.9103 6.46883 41.5994 5.6177 42.0669C3.28309 43.3495 0.5 45.5322 0.5 48.647C0.5 51.0345 2.14203 54.4386 9.9643 57.0962C15.4759 58.9687 22.7689 60 30.5 60C38.2311 60 45.5241 58.9687 51.0357 57.0962C58.858 54.4386 60.5 51.0345 60.5 48.647C60.5 45.5322 57.7169 43.3495 55.3823 42.067Z" fill="#353535"/>
<path d="M17.2287 51.2262C20.7971 52.2342 25.5103 52.7894 30.5 52.7894C35.4897 52.7894 40.2029 52.2343 43.7712 51.2262C48.1368 49.993 50.3504 48.2078 50.3504 45.9205C50.3504 43.6331 48.1368 41.8481 43.7712 40.615C42.8021 40.3412 41.7481 40.1011 40.6276 39.8962C40.019 40.9476 39.3814 42.0299 38.7147 43.1433C39.955 43.3294 41.1195 43.5575 42.177 43.8269C45.3898 44.6453 46.5636 45.5665 46.8049 45.9206C46.5635 46.2749 45.3899 47.1961 42.1771 48.0143C39.1362 48.7888 35.2238 49.2306 31.1032 49.2701C30.9036 49.2848 30.7025 49.2932 30.5 49.2932C30.2974 49.2932 30.0964 49.2848 29.8967 49.2701C25.776 49.2306 21.8636 48.7889 18.8227 48.0143C15.6099 47.1961 14.4363 46.2748 14.195 45.9206C14.4363 45.5665 15.61 44.6453 18.8228 43.8269C19.8803 43.5576 21.0448 43.3294 22.2853 43.1433C21.6186 42.03 20.981 40.9475 20.3724 39.8962C19.2519 40.1012 18.1978 40.3412 17.2287 40.615C12.8632 41.8481 10.6496 43.6332 10.6496 45.9205C10.6496 48.2078 12.8632 49.9929 17.2287 51.2262Z" fill="#353535"/>
<path d="M33.0226 42.8622C32.4787 43.7522 31.542 44.2774 30.5 44.2774C29.4581 44.2774 28.5213 43.7522 27.9774 42.8622C25.1279 38.2002 22.021 32.823 19.6314 27.9295C18.4362 25.4821 17.4326 23.1802 16.7306 21.165C16.0188 19.1214 15.6594 17.4888 15.6594 16.3405C15.6594 8.15875 22.3181 1.5 30.5 1.5C38.6819 1.5 45.3406 8.15875 45.3406 16.3405C45.3406 17.4888 44.9812 19.1214 44.2694 21.165C43.5674 23.1802 42.5638 25.4821 41.3687 27.9295C38.979 32.823 35.8721 38.2002 33.0226 42.8622ZM30.5 7.15078C26.0501 7.15078 22.432 10.7686 22.432 15.2186C22.432 19.6687 26.0501 23.2864 30.5 23.2864C34.9499 23.2864 38.568 19.6686 38.568 15.2186C38.568 10.7686 34.9499 7.15078 30.5 7.15078Z" stroke="#353535" stroke-width="3"/>
</g>
<defs>
<clipPath id="clip0_48_1875">
<rect width="60" height="60" fill="white" transform="translate(0.5)"/>
</clipPath>
</defs>
</svg>
