<svg width="61" height="60" viewBox="0 0 61 60" fill="none" xmlns="http://www.w3.org/2000/svg">
<g clip-path="url(#clip0_48_1965)">
<path d="M57.9747 45.0527L44.6758 31.734C44.4552 31.5244 44.1625 31.4075 43.8582 31.4075C43.5539 31.4075 43.2612 31.5244 43.0406 31.734L40.4033 34.3714L37.2978 31.2725L44.7945 23.7362C47.9263 23.5714 52.1 23.5846 52.2846 23.5582C53.0626 23.4395 54.5527 22.2395 59.5967 15.4549C59.7368 15.2631 59.815 15.0331 59.8209 14.7956V11.7428C59.8204 11.5396 59.7665 11.3401 59.6647 11.1642C59.5629 10.9883 59.4166 10.8422 59.2406 10.7406C59.0649 10.6368 58.8645 10.582 58.6604 10.582C58.4563 10.582 58.2559 10.6368 58.0802 10.7406L52.7461 13.9055C52.2912 14.0505 50.2934 14.5187 48.5857 12.0857C46.7395 9.44833 47.5637 8.18239 48.7307 7.18679C50.4734 5.94181 52.2827 4.79285 54.1505 3.74503C54.3191 3.64652 54.4605 3.5075 54.5618 3.34056C54.6631 3.17362 54.7212 2.98403 54.7307 2.78898C54.7381 2.59422 54.696 2.40076 54.6084 2.22666C54.5208 2.05257 54.3905 1.9035 54.2296 1.79338C54.0648 1.68129 50.0494 -1.00222 43.1527 1.66811C37.8253 3.72525 37.0802 6.43514 37.0143 6.73843L35.8802 14.7494L28.3373 22.2989L21.5989 15.5406C21.891 14.8061 22.043 14.0234 22.0472 13.2329C22.0488 12.412 21.8876 11.5989 21.573 10.8406C21.2584 10.0824 20.7966 9.39402 20.2143 8.81536C20.1591 8.75749 20.0971 8.70656 20.0296 8.66371L8.61646 1.23953C8.39593 1.09359 8.13175 1.02831 7.86863 1.05474C7.60551 1.08117 7.35959 1.19769 7.1725 1.38459L2.43184 6.12525C2.24495 6.31234 2.12843 6.55825 2.10199 6.82138C2.07556 7.0845 2.14084 7.34868 2.28679 7.5692L9.73074 18.9626C9.7756 19.0286 9.82636 19.0904 9.88239 19.1472C10.4597 19.729 11.147 20.1902 11.9043 20.5037C12.6616 20.8173 13.4737 20.977 14.2934 20.9736C15.0859 20.9749 15.8714 20.8249 16.6077 20.5318L23.3461 27.2901L15.0912 35.545L7.17909 36.6659H7.09338C6.79008 36.7384 4.08679 37.4769 2.02305 42.811C-0.614313 49.7077 2.02305 53.7165 2.15492 53.8879C2.26393 54.0471 2.41073 54.1769 2.58218 54.2655C2.75363 54.3541 2.94437 54.3988 3.13734 54.3956C3.33133 54.3887 3.52034 54.3323 3.68649 54.232C3.85263 54.1316 3.99041 53.9905 4.08679 53.822C5.13546 51.9546 6.28439 50.1454 7.52854 48.4022C8.52415 47.2351 9.80986 46.4242 12.434 48.2505C14.8736 49.9714 14.4121 51.9824 14.2538 52.411L11.089 57.745C10.9835 57.9196 10.9264 58.1191 10.9237 58.323C10.9209 58.5269 10.9726 58.7279 11.0733 58.9052C11.1741 59.0825 11.3203 59.2298 11.4969 59.3318C11.6735 59.4338 11.8741 59.487 12.078 59.4857H15.1307C15.3696 59.4814 15.6007 59.4005 15.7901 59.2549C22.7132 54.1384 23.8143 52.6615 23.9066 51.9165C23.9066 51.7582 23.9066 47.5846 24.0714 44.4593L32.3066 36.2637L35.445 39.356L32.8077 41.9934C32.5919 42.2108 32.4707 42.5047 32.4707 42.811C32.4707 43.1173 32.5919 43.4112 32.8077 43.6285L46.1263 56.9406C47.6222 58.4344 49.6497 59.2734 51.7637 59.2734C53.8777 59.2734 55.9052 58.4344 57.4011 56.9406L58.0011 56.3406C58.7431 55.6013 59.3318 54.7227 59.7335 53.7553C60.1353 52.7879 60.342 51.7508 60.342 50.7033C60.342 49.6558 60.1353 48.6186 59.7335 47.6512C59.3318 46.6838 58.7431 45.8053 58.0011 45.0659L57.9747 45.0527ZM37.7857 16.1143C37.9607 15.9344 38.0739 15.7035 38.1088 15.4549L39.2758 7.25272C39.3483 7.0681 40.1198 5.34723 43.9835 3.85052C46.1665 2.90077 48.5765 2.59866 50.9264 2.98019C49.6436 3.72244 48.4082 4.5438 47.2275 5.43953C44.056 8.15602 45.1901 11.2747 46.6934 13.4176C49.0472 16.7604 52.2912 16.5956 53.6692 16.0549C53.722 16.0549 57.5132 13.7934 57.5132 13.7934V14.4527C55.3505 17.3538 52.7461 20.578 51.8626 21.2901C50.3461 21.211 46.1264 21.4154 44.234 21.5209C43.9482 21.5345 43.6778 21.6544 43.4758 21.8571L35.6692 29.6242L33.6912 27.6461L41.2209 20.0835C41.3436 19.9805 41.4435 19.8531 41.5143 19.7094C41.5851 19.5657 41.6252 19.4088 41.632 19.2487C41.6388 19.0887 41.6123 18.929 41.554 18.7797C41.4957 18.6305 41.407 18.4951 41.2934 18.382C41.1799 18.269 41.0441 18.1808 40.8947 18.1231C40.7452 18.0654 40.5854 18.0395 40.4254 18.047C40.2653 18.0545 40.1086 18.0952 39.9652 18.1665C39.8217 18.2379 39.6948 18.3384 39.5923 18.4615L32.0428 26.0044L29.9725 23.9274L37.7857 16.1143ZM14.2736 18.6659C13.2706 18.6708 12.3045 18.2882 11.5769 17.5978L4.72635 7.09448L8.14173 3.67909L18.645 10.5494C19.3436 11.2966 19.7256 12.2854 19.7109 13.3082C19.6961 14.331 19.2858 15.3084 18.5659 16.0351L17.056 17.545C16.691 17.9106 16.2572 18.2002 15.7796 18.3971C15.302 18.594 14.7902 18.6943 14.2736 18.6923V18.6659ZM22.1461 43.1472C21.9427 43.346 21.8225 43.6147 21.8099 43.8989C21.7044 45.7978 21.5 50.011 21.5857 51.5274C20.8736 52.411 17.6296 55.022 14.7417 57.1846H14.0824C14.0824 57.1846 16.3241 53.4066 16.3637 53.3406C16.9241 51.956 17.0956 48.7253 13.7263 46.3648C11.5835 44.8615 8.45162 43.7274 5.74173 46.8989C4.84673 48.0801 4.02539 49.3154 3.28239 50.5978C2.90029 48.2473 3.20479 45.8365 4.15931 43.6549C5.66261 39.7582 7.39008 39.0395 7.56151 38.9406L15.7967 37.7736C16.0461 37.7415 16.2779 37.6279 16.456 37.4505L24.9747 28.9187L27.0516 30.989L18.7241 39.3231C18.6159 39.4292 18.5299 39.5559 18.4712 39.6958C18.4125 39.8356 18.3823 39.9857 18.3823 40.1373C18.3823 40.289 18.4125 40.4391 18.4712 40.5789C18.5299 40.7187 18.6159 40.8454 18.7241 40.9516C18.8303 41.0599 18.957 41.1459 19.0969 41.2046C19.2367 41.2633 19.3868 41.2935 19.5384 41.2935C19.6901 41.2935 19.8402 41.2633 19.98 41.2046C20.1198 41.1459 20.2465 41.0599 20.3527 40.9516L28.6802 32.6241L30.6582 34.6022L22.1461 43.1472ZM18.5725 19.2527L18.6912 19.1472L20.1945 17.6439L20.3 17.5252L38.7615 35.9868L37.034 37.7143L18.5725 19.2527ZM56.3461 54.7253L55.7461 55.3318C54.6811 56.3916 53.2398 56.9865 51.7373 56.9865C50.2349 56.9865 48.7936 56.3916 47.7285 55.3318L35.234 42.8044L37.8714 40.167L41.234 36.811L43.8714 34.1736L56.3989 46.7011C56.9243 47.2303 57.3399 47.8582 57.6218 48.5486C57.9037 49.239 58.0463 49.9784 58.0414 50.7241C58.0365 51.4699 57.8842 52.2073 57.5933 52.894C57.3023 53.5806 56.8785 54.203 56.3461 54.7253Z" fill="#353535"/>
<path d="M43.1461 40.4703C43.0399 40.3621 42.9132 40.2761 42.7734 40.2174C42.6336 40.1587 42.4835 40.1284 42.3319 40.1284C42.1802 40.1284 42.0301 40.1587 41.8903 40.2174C41.7505 40.2761 41.6238 40.3621 41.5176 40.4703C41.3022 40.6866 41.1812 40.9794 41.1812 41.2846C41.1812 41.5898 41.3022 41.8826 41.5176 42.0989L51.4077 51.989C51.515 52.0963 51.6425 52.1815 51.7828 52.2396C51.9231 52.2977 52.0734 52.3276 52.2253 52.3276C52.3771 52.3276 52.5275 52.2977 52.6677 52.2396C52.808 52.1815 52.9355 52.0963 53.0428 51.989C53.1502 51.8816 53.2354 51.7542 53.2935 51.6139C53.3516 51.4736 53.3815 51.3232 53.3815 51.1714C53.3815 51.0196 53.3516 50.8692 53.2935 50.7289C53.2354 50.5886 53.1502 50.4612 53.0428 50.3538L43.1461 40.4703Z" fill="#353535"/>
</g>
<defs>
<clipPath id="clip0_48_1965">
<rect width="60" height="60" fill="white" transform="translate(0.5)"/>
</clipPath>
</defs>
</svg>
