<svg width="61" height="60" viewBox="0 0 61 60" fill="none" xmlns="http://www.w3.org/2000/svg">
<path d="M56.0103 35.3904L51.4375 27.4704C51.3309 27.2856 51.1643 27.1427 50.9654 27.0654L41.3107 23.3114C41.6111 22.2971 41.7733 21.2241 41.7733 20.1137C41.7733 13.8975 36.7161 8.84027 30.4999 8.84027C24.2837 8.84027 19.2265 13.8975 19.2265 20.1137C19.2265 21.2242 19.3886 22.2971 19.6891 23.3114L10.0344 27.0654C9.83552 27.1427 9.66888 27.2856 9.56224 27.4704L4.98947 35.3904C4.85271 35.6272 4.82622 35.9121 4.91704 36.1702C5.00775 36.4282 5.20673 36.6338 5.46161 36.7329L9.4365 38.2785V51.1785C9.4365 51.5651 9.67392 51.9121 10.0344 52.0522L30.1601 59.8777C30.2694 59.9202 30.3846 59.9414 30.4998 59.9414C30.615 59.9414 30.7303 59.9202 30.8395 59.8777L50.9652 52.0522C51.3256 51.9121 51.5631 51.5651 51.5631 51.1785V38.2785L55.5379 36.7329C55.7929 36.6338 55.9918 36.4282 56.0825 36.1702C56.1736 35.9121 56.1471 35.6273 56.0103 35.3904ZM30.5 10.7153C35.6824 10.7153 39.8985 14.9314 39.8985 20.1137C39.8985 25.296 35.6823 29.5121 30.5 29.5121C25.3177 29.5121 21.1016 25.296 21.1016 20.1137C21.1016 14.9314 25.3176 10.7153 30.5 10.7153ZM30.5 31.3871C34.967 31.3871 38.8354 28.7756 40.6589 24.9991L48.0575 27.9319L30.5 34.7588L12.9424 27.9319L20.341 24.9991C22.1645 28.7756 26.0329 31.3871 30.5 31.3871ZM7.15989 35.3814L10.784 29.1043L29.1416 36.2423L25.5174 42.5195L7.15989 35.3814ZM11.3117 39.0075L25.5876 44.5584C26.0188 44.7259 26.5079 44.5541 26.7392 44.1534L29.5625 39.2634V57.6335L11.3117 50.5371V39.0075ZM49.6883 50.5371L31.4375 57.6335V39.2634L34.2608 44.1536C34.4922 44.5542 34.9813 44.7261 35.4124 44.5586L49.6883 39.0076V50.5371ZM35.4826 42.5195L31.8583 36.2423L50.216 29.1043L53.8401 35.3814L35.4826 42.5195ZM28.1674 26.2035C28.8164 26.2035 29.4272 25.9501 29.8871 25.4902L37.1954 18.182C38.145 17.2323 38.145 15.6871 37.1953 14.7371C36.7353 14.2772 36.1236 14.0238 35.4731 14.0238C34.8226 14.0238 34.2109 14.2772 33.7508 14.7371L28.3712 20.1169L26.9354 18.3102C26.4711 17.7261 25.7765 17.3911 25.0299 17.3911C24.483 17.3911 23.9457 17.5788 23.5168 17.9196C22.4668 18.7546 22.2917 20.2881 23.1263 21.338L26.1853 25.1873C26.6426 25.8244 27.3811 26.2036 28.1674 26.2035ZM24.6834 19.3873C24.8095 19.2871 24.9413 19.266 25.0298 19.266C25.2015 19.266 25.361 19.3429 25.4674 19.4767L27.5568 22.1061C27.7231 22.3153 27.9706 22.4436 28.2375 22.4589C28.5036 22.4738 28.7648 22.3747 28.9537 22.1858L35.0764 16.063C35.1822 15.9571 35.3231 15.8988 35.473 15.8988C35.6229 15.8988 35.7635 15.9572 35.8693 16.0629C36.088 16.2817 36.0881 16.6376 35.8694 16.8562L28.5613 24.1644C28.4256 24.3 28.272 24.3285 28.1672 24.3285C27.9795 24.3285 27.8107 24.2406 27.7037 24.0874C27.6926 24.0715 27.6811 24.056 27.669 24.0409L24.5941 20.1714C24.4026 19.9305 24.4428 19.5788 24.6834 19.3873ZM29.5625 5.38699V0.996094C29.5625 0.478359 29.9822 0.0585938 30.5 0.0585938C31.0177 0.0585938 31.4375 0.478359 31.4375 0.996094V5.38699C31.4375 5.90473 31.0177 6.32449 30.5 6.32449C29.9822 6.32449 29.5625 5.90473 29.5625 5.38699ZM20.0962 3.9027C19.8374 3.45434 19.9911 2.88094 20.4395 2.62207C20.8877 2.36332 21.4612 2.51684 21.7201 2.9652L23.9155 6.76781C24.1743 7.21617 24.0207 7.78957 23.5724 8.04844C23.4247 8.13363 23.2635 8.17418 23.1044 8.17418C22.7804 8.17418 22.4654 8.00602 22.2916 7.70531L20.0962 3.9027ZM13.0084 9.87246C13.2672 9.42398 13.8406 9.27035 14.289 9.52934L18.0916 11.7247C18.54 11.9836 18.6936 12.557 18.4347 13.0054C18.2612 13.3061 17.9459 13.4742 17.6219 13.4742C17.4629 13.4742 17.3018 13.4337 17.1541 13.3485L13.3515 11.1531C12.9031 10.8942 12.7495 10.3208 13.0084 9.87246ZM10.1982 19.8669C10.1982 19.3492 10.6179 18.9294 11.1357 18.9294H15.5265C16.0443 18.9294 16.464 19.3492 16.464 19.8669C16.464 20.3846 16.0443 20.8044 15.5265 20.8044H11.1357C10.6179 20.8044 10.1982 20.3848 10.1982 19.8669ZM37.0184 7.01449L39.2138 3.21188C39.4727 2.7634 40.0461 2.60965 40.4945 2.86875C40.9428 3.12762 41.0966 3.70102 40.8377 4.14937L38.6422 7.95199C38.4685 8.2527 38.1534 8.42086 37.8294 8.42086C37.6704 8.42086 37.5091 8.38031 37.3615 8.29512C36.9132 8.03637 36.7596 7.46297 37.0184 7.01449ZM42.3186 13.4327C42.0597 12.9844 42.2134 12.411 42.6617 12.1521L46.4643 9.95672C46.9127 9.69797 47.4861 9.8516 47.745 10.2998C48.0038 10.7482 47.8502 11.3216 47.4018 11.5805L43.5992 13.7759C43.4516 13.8611 43.2904 13.9016 43.1314 13.9016C42.8073 13.9016 42.4922 13.7334 42.3186 13.4327ZM44.98 19.4229H49.3708C49.8887 19.4229 50.3083 19.8427 50.3083 20.3604C50.3083 20.8781 49.8887 21.2979 49.3708 21.2979H44.98C44.4622 21.2979 44.0425 20.8781 44.0425 20.3604C44.0425 19.8427 44.4623 19.4229 44.98 19.4229Z" fill="#353535"/>
</svg>
