<svg width="61" height="60" viewBox="0 0 61 60" fill="none" xmlns="http://www.w3.org/2000/svg">
<g clip-path="url(#clip0_48_1969)">
<path d="M30.5 9.99988C19.4542 9.99988 10.4998 18.9542 10.4998 30C10.4998 41.0459 19.4542 50.0002 30.5 50.0002C41.5458 50.0002 50.5001 41.0459 50.5001 30C50.4873 18.9597 41.5403 10.0127 30.5 9.99988ZM30.5 48.0002C20.5587 48.0002 12.4998 39.9413 12.4998 30C12.4998 20.0588 20.5587 11.9998 30.5 11.9998C40.4413 11.9998 48.5002 20.0588 48.5002 30C48.4883 39.9362 40.4362 47.9883 30.5 48.0002Z" fill="#353535"/>
<path d="M37.6159 20.1168C37.3097 20.0724 37.0414 19.8875 36.8908 19.617L35.6649 17.443C35.128 16.5335 34.1438 15.9823 33.0882 16.0002H27.9118C26.8557 15.9828 25.8716 16.5339 25.3351 17.444L24.1092 19.6188C23.9586 19.8893 23.6912 20.0743 23.385 20.1191L19.06 20.76C17.5938 20.9857 16.5089 22.2427 16.5002 23.7259V37.3082C16.53 38.8215 17.7792 40.0254 19.293 39.9998H41.707C43.2208 40.0254 44.47 38.8215 44.4998 37.3082V23.7259C44.492 22.2418 43.4062 20.9829 41.9391 20.7582L37.6159 20.1168ZM42.4998 23.7259V37.3082C42.4696 37.7169 42.1162 38.025 41.707 37.9998H19.293C18.8838 38.025 18.5304 37.7169 18.5002 37.3082V23.7259C18.5025 23.231 18.8646 22.8112 19.3539 22.7362L23.6779 22.0958C24.5967 21.9612 25.4001 21.4068 25.8519 20.5961L27.0768 18.4217C27.2622 18.1448 27.579 17.9846 27.9118 18.0001H33.0882C33.4219 17.9855 33.7391 18.1475 33.9232 18.4268L35.1481 20.5998C35.5995 21.4109 36.4033 21.9658 37.3221 22.0999L41.6461 22.7398C42.1336 22.8149 42.4952 23.2324 42.4998 23.7259Z" fill="#353535"/>
<path d="M30.5 22.0001C26.6342 22.0001 23.4999 25.134 23.4999 28.9998C23.4999 32.8661 26.6342 35.9999 30.5 35.9999C34.3658 35.9999 37.5001 32.8661 37.5001 28.9998C37.4955 25.1358 34.364 22.0042 30.5 22.0001ZM30.5 33.9999C27.7388 33.9999 25.4998 31.7615 25.4998 28.9998C25.4998 26.2386 27.7388 24.0001 30.5 24.0001C33.2612 24.0001 35.5002 26.2386 35.5002 28.9998C35.4965 31.7601 33.2599 33.9967 30.5 33.9999Z" fill="#353535"/>
<path d="M59.1739 26.321L54.9528 24.814C54.7706 23.9534 54.5431 23.1029 54.2712 22.2661L57.1711 18.8498C57.7191 18.2039 57.8019 17.2833 57.378 16.55L55.5781 13.4399C55.1551 12.7089 54.3179 12.3221 53.4871 12.4741L49.0619 13.2811C48.4768 12.6315 47.8584 12.0131 47.2088 11.4281L48.0168 7.00287C48.1688 6.17157 47.7815 5.33478 47.05 4.9118L43.939 3.11188C43.2071 2.69028 42.2888 2.77359 41.6452 3.32108L38.2298 6.22101C37.393 5.94864 36.542 5.72113 35.681 5.53894L34.179 1.32706C33.8952 0.532837 33.1436 0.00183105 32.2999 0H28.7101C27.8642 0 27.1103 0.531464 26.826 1.32797L25.319 5.5481C24.458 5.72983 23.607 5.95779 22.7702 6.23016L19.3539 3.33023C18.7098 2.7832 17.792 2.69989 17.0601 3.12195L13.9509 4.92187C13.219 5.34439 12.8312 6.18164 12.9832 7.01294L13.7912 11.4381C13.1416 12.0232 12.5232 12.6416 11.9381 13.2912L7.51385 12.4841C6.68256 12.3317 5.84531 12.7185 5.42188 13.45L3.62698 16.5601C3.20218 17.2934 3.28549 18.2149 3.83481 18.8599L6.7352 22.2748C6.46283 23.112 6.23532 23.963 6.05313 24.8241L1.82614 26.321C1.03146 26.6071 0.500916 27.3605 0.5 28.2051V31.7999C0.499543 32.6454 1.03101 33.3993 1.82706 33.6841L6.0481 35.191C6.23029 36.0521 6.45779 36.9031 6.73016 37.7399L3.82977 41.1502C3.28046 41.7952 3.19714 42.7167 3.62195 43.45L5.42188 46.5591C5.84485 47.2906 6.68164 47.6779 7.51294 47.5259L11.9381 46.7189C12.5232 47.3685 13.1416 47.9869 13.7912 48.5719L12.9832 52.9971C12.8312 53.8284 13.2185 54.6652 13.95 55.0882L17.061 56.8881C17.7929 57.3097 18.7112 57.2264 19.3548 56.6789L22.7702 53.779C23.607 54.0514 24.458 54.2789 25.319 54.4611L26.826 58.6812C27.1125 59.4722 27.8637 59.9995 28.7051 60H32.2999C33.1454 60 33.8998 59.4685 34.1841 58.672L35.691 54.4519C36.5521 54.2702 37.4031 54.0427 38.2399 53.7698L41.6562 56.6702C42.3011 57.2145 43.2176 57.2974 43.95 56.878L47.0591 55.0781C47.7911 54.6556 48.1784 53.8184 48.0269 52.9871L47.2189 48.5619C47.8685 47.9768 48.4869 47.3584 49.0719 46.7088L53.4962 47.5159C54.3275 47.6683 55.1648 47.2815 55.5882 46.55L57.3881 43.4399C57.8116 42.7066 57.7287 41.786 57.1812 41.1401L54.2808 37.7238C54.5532 36.8875 54.7807 36.037 54.9629 35.1759L59.1848 33.669C59.9704 33.381 60.4945 32.6363 60.5 31.7999V28.2101C60.5009 27.3637 59.9704 26.6075 59.1739 26.321ZM58.5 28.2051V31.7999L53.7462 33.5001C53.4115 33.6195 53.1657 33.9079 53.0998 34.2572C52.8865 35.4011 52.5853 36.5268 52.1998 37.625C52.0817 37.9605 52.1504 38.3336 52.3811 38.605L55.6491 42.4521L53.8491 45.5621L48.8682 44.653C48.5185 44.5871 48.1605 44.7134 47.9298 44.984C47.1745 45.8629 46.3537 46.6832 45.4748 47.439C45.2057 47.6706 45.0793 48.0276 45.1429 48.3769L46.0521 53.3578L42.9429 55.1578L39.1 51.8788C38.829 51.6481 38.4559 51.579 38.1199 51.6971C37.0227 52.083 35.8966 52.3842 34.7531 52.597C34.4033 52.6625 34.1145 52.9088 33.995 53.2439L32.2999 58H28.7101L27.01 53.2462C26.8905 52.9111 26.6026 52.6648 26.2529 52.5989C25.1089 52.3865 23.9828 52.0853 22.8851 51.6989C22.5491 51.5808 22.176 51.6504 21.905 51.8811L18.058 55.1482L14.9479 53.3542L15.858 48.3719C15.9216 48.0226 15.7953 47.6656 15.5261 47.4339C14.6472 46.6782 13.8269 45.8578 13.0711 44.9789C12.8404 44.7079 12.4824 44.5816 12.1331 44.648L7.15222 45.5571L5.35687 42.447L8.6221 38.6C8.85236 38.329 8.92148 37.9555 8.80292 37.6199C8.41794 36.5213 8.11719 35.3952 7.90295 34.2508C7.83749 33.902 7.59167 33.6136 7.25705 33.4941L2.49997 31.7999V28.2001L7.25385 26.4999C7.58664 26.3814 7.832 26.0966 7.90021 25.7501C8.11398 24.6057 8.41473 23.4796 8.80017 22.381C8.91827 22.0454 8.84961 21.6724 8.6189 21.4009L5.35413 17.5548L7.15405 14.4452L12.135 15.3539C12.4843 15.4207 12.8427 15.2943 13.0729 15.0229C13.8287 14.1444 14.6495 13.3237 15.5279 12.5679C15.7975 12.3363 15.9239 11.9792 15.8598 11.6299L14.9511 6.64902L18.0598 4.85413L21.9 8.12118C22.171 8.3519 22.5441 8.42102 22.8801 8.30292C23.9778 7.91656 25.1039 7.61581 26.2478 7.40295C26.5976 7.33704 26.8855 7.09076 27.005 6.75613L28.7051 1.99997H32.2999L34.0001 6.75384C34.1195 7.08939 34.4084 7.33566 34.7581 7.40112C35.9016 7.61444 37.0272 7.91519 38.125 8.30109C38.461 8.41919 38.834 8.34961 39.105 8.1189L42.9521 4.85184L46.0621 6.64581L45.1521 11.6281C45.088 11.9774 45.2148 12.3344 45.484 12.5661C46.3629 13.3218 47.1832 14.1421 47.939 15.0211C48.1692 15.2921 48.5276 15.4184 48.8769 15.352L53.8578 14.4429L55.6578 17.5529L52.3779 21.4C52.1476 21.671 52.0785 22.0445 52.1971 22.3801C52.5825 23.4782 52.8833 24.6039 53.097 25.7478C53.1625 26.0971 53.4083 26.3855 53.7429 26.505L58.5 28.2001L58.836 27.2589L58.5 28.2051Z" fill="#353535"/>
</g>
<defs>
<clipPath id="clip0_48_1969">
<rect width="60" height="60" fill="white" transform="translate(0.5)"/>
</clipPath>
</defs>
</svg>
