<svg width="60" height="60" viewBox="0 0 60 60" fill="none" xmlns="http://www.w3.org/2000/svg">
<g clip-path="url(#clip0_48_2105)">
<path d="M30 0C13.4531 0 0 13.4531 0 30C0 46.5469 13.4531 60 30 60C46.5469 60 60 46.5469 60 30C60 13.4531 46.5469 0 30 0ZM30 58.125C14.4961 58.125 1.875 45.5039 1.875 30C1.875 14.4961 14.4961 1.875 30 1.875C45.5039 1.875 58.125 14.4961 58.125 30C58.125 45.5039 45.5039 58.125 30 58.125ZM27.3984 25.1367V29.0625H34.1016C34.6172 29.0625 35.0391 29.4844 35.0391 30C35.0391 30.5156 34.6172 30.9375 34.1016 30.9375H27.3984V34.8633H34.1016C34.6172 34.8633 35.0391 35.2852 35.0391 35.8008C35.0391 36.3164 34.6172 36.7383 34.1016 36.7383H26.4492C25.9336 36.7383 25.5117 36.3164 25.5117 35.8008V24.1992C25.5117 23.6836 25.9336 23.2617 26.4492 23.2617H34.1016C34.6172 23.2617 35.0391 23.6836 35.0391 24.1992C35.0391 24.7148 34.6172 25.1367 34.1016 25.1367H27.3984ZM39.1172 27.4688V32.5195C39.1172 33.8086 40.1602 34.8516 41.4492 34.8516H42.5625C43.8281 34.8516 44.8711 33.8203 44.8945 32.5664C44.9062 32.0508 45.3281 31.6289 45.8555 31.6406C46.3711 31.6523 46.7812 32.0742 46.7812 32.6016C46.7344 34.875 44.8477 36.7266 42.5742 36.7266H41.4609C39.1406 36.7266 37.2539 34.8398 37.2539 32.5195V27.4688C37.2539 25.1484 39.1406 23.2617 41.4609 23.2617H42.5742C44.8477 23.2617 46.7344 25.1133 46.7812 27.3867C46.793 27.9023 46.3828 28.3359 45.8555 28.3477C45.3281 28.3594 44.9062 27.9492 44.8945 27.4219C44.8711 26.1562 43.8281 25.1367 42.5625 25.1367H41.4492C40.1602 25.1367 39.1172 26.1914 39.1172 27.4688ZM18.8672 23.2617H14.1797C13.6641 23.2617 13.2422 23.6836 13.2422 24.1992V30.8555V35.7891C13.2422 36.3047 13.6641 36.7266 14.1797 36.7266C14.6953 36.7266 15.1172 36.3047 15.1172 35.7891V31.793H16.5938L20.0391 36.1875C20.2266 36.4219 20.4961 36.5508 20.7773 36.5508C20.9766 36.5508 21.1875 36.4805 21.3516 36.3516C21.7617 36.0352 21.832 35.4375 21.5156 35.0391L18.9727 31.8047C21.2812 31.7461 23.1328 29.8594 23.1328 27.5391C23.1445 25.1836 21.2227 23.2617 18.8672 23.2617ZM18.8672 29.9297H15.1172V25.1484H18.8672C20.1914 25.1484 21.2578 26.2148 21.2578 27.5391C21.2578 28.8516 20.1914 29.9297 18.8672 29.9297Z" fill="#353535"/>
</g>
<defs>
<clipPath id="clip0_48_2105">
<rect width="60" height="60" fill="white"/>
</clipPath>
</defs>
</svg>
