<svg width="60" height="60" viewBox="0 0 60 60" fill="none" xmlns="http://www.w3.org/2000/svg">
<g clip-path="url(#clip0_48_2174)">
<path d="M59.1219 26.3049C58.6369 26.3049 58.2439 26.6981 58.2439 27.183V32.8172C58.2439 33.9161 60 33.9661 60 32.8172V27.183C60 26.6981 59.607 26.3049 59.1219 26.3049Z" fill="#353535"/>
<path d="M55.4854 20.5774C55.0004 20.5774 54.6074 20.9705 54.6074 21.4554V38.5447C54.6074 39.6436 56.3635 39.6936 56.3635 38.5447V21.4554C56.3635 20.9705 55.9703 20.5774 55.4854 20.5774Z" fill="#353535"/>
<path d="M51.8488 22.4895C51.3637 22.4895 50.9707 22.8826 50.9707 23.3676V36.6324C50.9707 37.7313 52.7268 37.7812 52.7268 36.6324V23.3676C52.7268 22.8826 52.3338 22.4895 51.8488 22.4895Z" fill="#353535"/>
<path d="M48.2123 16.5942C47.7272 16.5942 47.3342 16.9874 47.3342 17.4723V42.5279C47.3342 43.6268 49.0903 43.6768 49.0903 42.5279V17.4723C49.0903 16.9874 48.6972 16.5942 48.2123 16.5942Z" fill="#353535"/>
<path d="M0.878049 26.3049C0.393015 26.3049 0 26.6981 0 27.183V32.8172C0 33.9161 1.7561 33.9661 1.7561 32.8172V27.183C1.7561 26.6981 1.36308 26.3049 0.878049 26.3049Z" fill="#353535"/>
<path d="M4.51471 20.5774C4.02967 20.5774 3.63666 20.9705 3.63666 21.4554V38.5447C3.63666 39.6436 5.39276 39.6936 5.39276 38.5447V21.4554C5.39276 20.9705 4.99962 20.5774 4.51471 20.5774Z" fill="#353535"/>
<path d="M8.15124 22.4895C7.66621 22.4895 7.27319 22.8826 7.27319 23.3676V36.6324C7.27319 37.7313 9.02929 37.7812 9.02929 36.6324V23.3676C9.02929 22.8826 8.63628 22.4895 8.15124 22.4895Z" fill="#353535"/>
<path d="M11.7878 16.5942C11.3028 16.5942 10.9098 16.9874 10.9098 17.4723V42.5279C10.9098 43.6268 12.6659 43.6768 12.6659 42.5279V17.4723C12.6659 16.9874 12.2728 16.5942 11.7878 16.5942Z" fill="#353535"/>
<path d="M45.4284 23.5735C45.4443 23.5074 45.4537 23.4386 45.4537 23.3676V13.9182C45.4537 12.8194 43.6976 12.7694 43.6976 13.9182V20.439C43.1361 19.6387 42.5068 18.8892 41.817 18.2001V6.23415C41.817 5.1353 40.0609 5.08531 40.0609 6.23415V16.6739C39.464 16.2234 38.8358 15.8125 38.1804 15.4441V8.63415C38.1804 7.5353 36.4243 7.48531 36.4243 8.63415V14.588C35.8147 14.3341 35.1872 14.115 34.5438 13.934V3.65854C34.5438 2.55969 32.7877 2.5097 32.7877 3.65854V13.5424C32.1525 13.4364 31.5057 13.3654 30.8486 13.3335V0.907318C30.8486 -0.191531 29.0925 -0.241521 29.0925 0.907318V13.3399C28.4555 13.3754 27.8281 13.4469 27.2119 13.5522V3.65854C27.2119 2.55969 25.4558 2.5097 25.4558 3.65854V13.9502C24.8124 14.1338 24.1848 14.3554 23.5753 14.612V8.63415C23.5753 7.5353 21.8192 7.48531 21.8192 8.63415V15.477C21.1635 15.8491 20.5355 16.2644 19.9386 16.7189V6.23415C19.9386 5.1353 18.1825 5.08531 18.1825 6.23415V18.2598C17.4918 18.9567 16.8623 19.7143 16.302 20.5234V13.9182C16.302 12.8194 14.5459 12.7694 14.5459 13.9182V23.6195C14.5459 23.6645 14.5503 23.7083 14.5569 23.7515C13.7742 25.6825 13.3419 27.7915 13.3419 30C13.3419 32.1566 13.7475 34.2513 14.5459 36.2317V46.0818C14.5459 47.1806 16.302 47.2306 16.302 46.0818V36.4096C16.302 34.2623 15.098 33.3951 15.098 30C15.098 21.7672 21.796 15.0692 30.0288 15.0692C38.2616 15.0692 44.9596 21.7671 44.9596 30C44.9596 38.2329 38.2621 44.9308 30.0293 44.9308C26.1944 44.9308 22.5495 43.4796 19.7661 40.8442C19.2138 40.3213 18.183 40.7163 18.183 41.4818V53.7659C18.183 54.8647 19.9391 54.9147 19.9391 53.7659V43.291C20.5402 43.7484 21.1683 44.1626 21.8197 44.5315V51.366C21.8197 52.4648 23.5758 52.5148 23.5758 51.366V45.3934C24.1883 45.6502 24.8161 45.87 25.4563 46.0518V56.3416C25.4563 57.4404 27.2124 57.4904 27.2124 56.3416V46.4496C27.8316 46.5548 28.4593 46.6249 29.0929 46.6601V59.0927C29.0929 60.1915 30.849 60.2415 30.849 59.0927V46.6665C31.5061 46.6346 32.1529 46.5636 32.7881 46.4576V56.3415C32.7881 57.4403 34.5442 57.4903 34.5442 56.3415V46.0659C35.1875 45.885 35.8152 45.6659 36.4248 45.412V51.3658C36.4248 52.4647 38.1809 52.5147 38.1809 51.3658V44.5558C38.8361 44.1874 39.4645 43.7765 40.0614 43.326V53.7657C40.0614 54.8646 41.8175 54.9146 41.8175 53.7657V41.7998C42.5073 41.1107 43.1365 40.3612 43.6981 39.5609V46.0816C43.6981 47.1805 45.4542 47.2305 45.4542 46.0816V36.6323C45.4542 36.5612 45.4448 36.4925 45.4289 36.4264C46.2579 34.4474 46.7167 32.2763 46.7167 29.9999C46.7167 27.7235 46.2574 25.5525 45.4284 23.5735Z" fill="#353535"/>
<path d="M33.2294 23.1399C34.2642 22.7704 33.7206 21.0996 32.6387 21.4861L26.3416 23.7351C25.9954 23.8586 25.7588 24.1962 25.7588 24.5619V32.9663C25.3152 32.7372 24.8126 32.607 24.2798 32.607C22.4961 32.607 21.0447 34.0582 21.0447 35.8421C21.0447 37.6259 22.496 39.0771 24.2798 39.0771C26.0637 39.0771 27.5149 37.6259 27.5149 35.8421V28.2112L35.1868 25.4713V29.5993C34.7432 29.3701 34.2406 29.24 33.7078 29.24C31.9241 29.24 30.4728 30.6912 30.4728 32.475C30.4728 34.2589 31.924 35.7101 33.7078 35.7101C35.4917 35.7101 36.9429 34.2589 36.9429 32.475V21.195C36.9429 20.0962 35.1868 20.0462 35.1868 21.195V23.6067L27.5149 26.3467V25.181L33.2294 23.1399ZM33.708 33.9538C32.8924 33.9538 32.229 33.2903 32.229 32.4748C32.229 31.6593 32.8924 30.9958 33.708 30.9958C34.5235 30.9958 35.1869 31.6593 35.1869 32.4748C35.1869 33.2903 34.5235 33.9538 33.708 33.9538ZM24.2799 37.321C23.4644 37.321 22.801 36.6576 22.801 35.8421C22.801 35.0265 23.4644 34.3631 24.2799 34.3631C25.0955 34.3631 25.7589 35.0265 25.7589 35.8421C25.7589 36.6576 25.0954 37.321 24.2799 37.321Z" fill="#353535"/>
</g>
<defs>
<clipPath id="clip0_48_2174">
<rect width="60" height="60" fill="white"/>
</clipPath>
</defs>
</svg>
