<svg width="60" height="60" viewBox="0 0 60 60" fill="none" xmlns="http://www.w3.org/2000/svg">
<g clip-path="url(#clip0_48_1945)">
<path d="M33.5227 48.6282H8.48698C7.97217 48.6282 7.55557 49.0448 7.55557 49.5596C7.55557 50.0744 7.97217 50.491 8.48698 50.491H33.5227C34.0375 50.491 34.4541 50.0744 34.4541 49.5596C34.454 49.0447 34.0374 48.6282 33.5227 48.6282Z" fill="#353535"/>
<path d="M33.5227 40.8025H8.48698C7.97217 40.8025 7.55557 41.2191 7.55557 41.7339C7.55557 42.2487 7.97217 42.6653 8.48698 42.6653H33.5227C34.0375 42.6653 34.4541 42.2487 34.4541 41.7339C34.4541 41.2191 34.0374 40.8025 33.5227 40.8025Z" fill="#353535"/>
<path d="M33.5227 32.9778H8.48698C7.97217 32.9778 7.55557 33.3944 7.55557 33.9092C7.55557 34.424 7.97217 34.8406 8.48698 34.8406H33.5227C34.0375 34.8406 34.4541 34.424 34.4541 33.9092C34.454 33.3943 34.0374 32.9778 33.5227 32.9778Z" fill="#353535"/>
<path d="M8.48698 27.0149H19.5569C20.0717 27.0149 20.4883 26.5983 20.4883 26.0835C20.4883 25.5687 20.0717 25.1521 19.5569 25.1521H8.48698C7.97217 25.1521 7.55557 25.5687 7.55557 26.0835C7.55557 26.5984 7.97217 27.0149 8.48698 27.0149Z" fill="#353535"/>
<path d="M11.5875 17.4549H20.0444C22.2654 17.4549 24.0717 15.6476 24.0717 13.4266C24.0717 11.2055 22.2654 9.39917 20.0444 9.39917H11.5875C9.36647 9.39917 7.5592 11.2055 7.5592 13.4266C7.5592 15.6476 9.36647 17.4549 11.5875 17.4549ZM11.5875 11.2619H20.0444C21.2377 11.2619 22.209 12.2332 22.209 13.4266C22.209 14.6208 21.2377 15.5922 20.0444 15.5922H11.5875C10.3933 15.5922 9.4219 14.6208 9.4219 13.4266C9.4219 12.2332 10.3933 11.2619 11.5875 11.2619Z" fill="#353535"/>
<path d="M47.794 13.6767C47.5193 13.4284 47.1254 13.3657 46.7898 13.513C46.4524 13.6622 46.2351 13.996 46.2351 14.3652V19.3431C44.6463 19.4735 43.1526 19.9357 41.8092 20.6463V12.5844C41.8092 12.3733 41.709 12.0907 41.5401 11.9223L30.0728 0.465835C29.9031 0.296147 29.6167 0.196655 29.4134 0.196655H3.92205C1.8674 0.196655 0.196655 1.86751 0.196655 3.92205V56.0781C0.196655 58.1327 1.86751 59.8035 3.92205 59.8035H38.084C40.1386 59.8035 41.8093 58.1326 41.8093 56.0781V32.3476C43.1145 31.4762 44.6258 30.9226 46.2352 30.7695V35.6882C46.2352 36.497 47.1976 36.9195 47.7932 36.3767L59.4988 25.7206C59.6925 25.5441 59.8035 25.294 59.8035 25.0321C59.8035 24.7702 59.6935 24.52 59.4997 24.3436L47.794 13.6767ZM30.3456 3.37619L38.625 11.6494H32.2083C31.1814 11.6494 30.3456 10.8135 30.3456 9.78669V3.37619ZM38.084 57.9408H3.92205C2.89513 57.9408 2.05935 57.1049 2.05935 56.0781V3.92205C2.05935 2.89513 2.89525 2.05935 3.92205 2.05935H28.483V9.78669C28.483 11.8413 30.1539 13.5121 32.2084 13.5121H39.9467V21.8766C35.6093 25.3794 34.449 31.3276 36.8616 36.0738C37.0207 36.3867 37.3181 36.556 37.6947 36.5831C38.0458 36.5822 38.3669 36.3839 38.5241 36.0693C38.9119 35.2967 39.3933 34.5953 39.9467 33.9701V56.078C39.9467 57.1049 39.1108 57.9408 38.084 57.9408ZM48.0979 33.5808V29.7935C48.0979 29.2787 47.6813 28.8621 47.1665 28.8621C43.2669 28.8621 39.8462 30.8705 37.871 33.5743C36.0709 27.3198 40.7872 21.1795 47.1682 21.1665C47.6821 21.1656 48.0977 20.7491 48.0977 20.2351V16.4742L57.4887 25.032L48.0979 33.5808Z" fill="#353535"/>
</g>
<defs>
<clipPath id="clip0_48_1945">
<rect width="60" height="60" fill="white"/>
</clipPath>
</defs>
</svg>
