<svg width="60" height="60" viewBox="0 0 60 60" fill="none" xmlns="http://www.w3.org/2000/svg">
<g clip-path="url(#clip0_48_1943)">
<path d="M39.6703 23.9718C38.7094 23.4175 37.5938 23.2687 36.5262 23.5535L34.2071 24.1746L32.0403 16.0875C31.527 14.1832 29.5582 13.0464 27.6504 13.555C27.6492 13.555 27.6492 13.555 27.6481 13.555C25.7426 14.0683 24.6059 16.0382 25.1157 17.946L25.4227 19.091L22.8762 20.7058C22.9125 20.3332 22.9324 19.9558 22.9324 19.5738C22.9324 13.2515 17.7891 8.10815 11.4668 8.10815C5.14338 8.10815 -0.00231934 13.2515 -0.00231934 19.5738C-0.00231934 23.2007 1.68987 26.4386 4.32659 28.5421C4.37112 28.5843 4.42034 28.623 4.47307 28.657C4.9969 29.0613 5.55706 29.4222 6.14768 29.7316C5.19377 31.3816 4.9137 33.3585 5.41174 35.2171L5.8969 37.0195C6.39377 38.8769 7.59026 40.432 9.26604 41.4C10.384 42.0457 11.6227 42.3761 12.8754 42.3761C13.5 42.3761 14.1281 42.2941 14.7457 42.1277L14.8617 42.096L17.1059 50.4679C17.236 50.9613 17.5512 51.3738 17.993 51.6304C18.2895 51.8027 18.6176 51.8894 18.9504 51.8894C19.1168 51.8894 19.2832 51.8671 19.4485 51.8226L22.6137 50.9753C23.1082 50.8429 23.5207 50.5253 23.7774 50.0824C24.0328 49.6382 24.1008 49.1226 23.9684 48.6304L21.8133 40.582L31.2844 40.9722L31.5926 42.1207C31.841 43.0417 32.4352 43.814 33.266 44.2933C33.8203 44.6132 34.4344 44.7773 35.0543 44.7773C35.3649 44.7773 35.6766 44.7363 35.9824 44.6542C36.9047 44.4082 37.6758 43.814 38.1563 42.9832C38.6356 42.1535 38.7633 41.1878 38.5172 40.2656L36.3504 32.1796L38.6696 31.5562C39.7348 31.2714 40.6266 30.5859 41.1809 29.625C41.7352 28.664 41.884 27.5496 41.5992 26.4855C41.318 25.4203 40.6324 24.5273 39.6703 23.9718ZM1.87502 19.5738C1.87502 14.2863 6.17815 9.9855 11.4668 9.9855C16.7543 9.9855 21.0551 14.2875 21.0551 19.5738C21.0551 21.873 20.2407 23.9859 18.8871 25.6406C18.777 22.7156 16.3641 20.3695 13.4133 20.3695H9.51682C6.56604 20.3695 4.15315 22.7156 4.04299 25.6394C2.68948 23.9859 1.87502 21.873 1.87502 19.5738ZM5.91448 27.3878V25.8492C5.91448 23.8628 7.53049 22.2468 9.51682 22.2468H13.4133C15.3996 22.2468 17.0156 23.8628 17.0156 25.8492V27.389C15.4477 28.5058 13.534 29.1656 11.4668 29.1656C9.39846 29.1656 7.48362 28.5058 5.91448 27.3878ZM10.2047 39.7757C8.9637 39.0585 8.07776 37.9078 7.70979 36.5343L7.22463 34.7308C6.83557 33.2812 7.08635 31.732 7.89143 30.471C9.0176 30.8414 10.2188 31.0429 11.468 31.0429C13.4485 31.0429 15.3141 30.5378 16.9406 29.6496L19.4297 38.9308L14.2606 40.316C12.8871 40.6851 11.4469 40.4929 10.2047 39.7757ZM22.1531 49.1472C22.1449 49.1613 22.1344 49.1636 22.1297 49.1648L18.9621 50.0121C18.9586 50.0132 18.9481 50.0156 18.9352 50.0074C18.9235 50.0003 18.9223 49.9945 18.9199 49.9874L16.6746 41.6109L19.9149 40.7425L22.1567 49.1179C22.159 49.1238 22.1614 49.1332 22.1531 49.1472ZM21.3071 38.6859L18.5895 28.555C18.5907 28.5539 18.5918 28.5527 18.593 28.5527C20.291 27.2015 21.5989 25.3792 22.3172 23.2839L25.9336 20.9906L30.7793 39.0761L21.3071 38.6859ZM36.5332 42.048C36.3047 42.4441 35.9379 42.7265 35.4985 42.8437C34.5903 43.0886 33.6528 42.546 33.4067 41.6367L32.9274 39.846C32.9239 39.8308 32.9192 39.8156 32.9156 39.8003L27.416 19.2726C27.4149 19.2703 27.4149 19.2667 27.4137 19.2644L26.9297 17.4609C26.6871 16.5515 27.2285 15.6117 28.1379 15.3667C29.0473 15.1253 29.9848 15.6679 30.2297 16.5738L32.6356 25.555C32.6367 25.5585 32.6367 25.5621 32.6379 25.5656C32.6391 25.5691 32.6403 25.5726 32.6414 25.5761L36.7067 40.7531C36.8239 41.1914 36.7629 41.6507 36.5332 42.048ZM39.559 28.6886C39.2555 29.2148 38.768 29.591 38.1867 29.7457L35.8676 30.3691L34.6934 25.9874L37.0113 25.3664C37.5938 25.2105 38.2043 25.2925 38.7317 25.5972C39.2578 25.9019 39.634 26.3894 39.7899 26.9718C39.9446 27.5519 39.8637 28.1625 39.559 28.6886ZM48.5485 23.6531L58.8199 20.8992C59.3215 20.7644 59.8348 21.0621 59.9696 21.5625C60.1043 22.0628 59.8067 22.5773 59.3063 22.7121L49.0348 25.466C48.9528 25.4882 48.8719 25.4988 48.791 25.4988C48.3762 25.4988 47.9977 25.2222 47.8852 24.8027C47.7516 24.3023 48.0481 23.7878 48.5485 23.6531ZM59.9696 35.6917C59.8571 36.1113 59.4785 36.3878 59.0637 36.3878C58.9828 36.3878 58.902 36.3773 58.8199 36.3562L48.5485 33.6058C48.0481 33.4722 47.7504 32.9566 47.8852 32.4562C48.0188 31.9558 48.5344 31.6582 49.0348 31.7929L59.3063 34.5433C59.8067 34.6769 60.1031 35.1914 59.9696 35.6917ZM52.9067 10.6535L45.3856 18.1746C45.2028 18.3574 44.9625 18.45 44.7223 18.45C44.4821 18.45 44.2418 18.3585 44.059 18.1746C43.6922 17.8078 43.6922 17.2136 44.059 16.848L51.5801 9.3269C51.9469 8.96011 52.541 8.96011 52.9067 9.3269C53.2735 9.6937 53.2735 10.2878 52.9067 10.6535ZM11.4668 20.2558C13.752 20.2558 15.6106 18.3972 15.6106 16.1121C15.6106 13.8269 13.752 11.9683 11.4668 11.9683C9.18166 11.9683 7.32307 13.8269 7.32307 16.1121C7.32307 18.3972 9.18284 20.2558 11.4668 20.2558ZM11.4668 13.8457C12.7172 13.8457 13.7344 14.8628 13.7344 16.1132C13.7344 17.3636 12.7172 18.3808 11.4668 18.3808C10.2164 18.3808 9.19924 17.3636 9.19924 16.1132C9.19924 14.8628 10.2176 13.8457 11.4668 13.8457Z" fill="white"/>
</g>
<defs>
<clipPath id="clip0_48_1943">
<rect width="60" height="60" fill="white"/>
</clipPath>
</defs>
</svg>
