<svg width="60" height="60" viewBox="0 0 60 60" fill="none" xmlns="http://www.w3.org/2000/svg">
<path d="M48.4594 36.0319L37.515 42.3479C37.0173 41.5475 36.2347 40.9656 35.325 40.7194L22.8609 37.3801C20.7464 36.8081 18.492 37.086 16.5797 38.1544L12.1875 40.5938V38.4375C12.1875 38.1889 12.0887 37.9505 11.9129 37.7746C11.7371 37.5988 11.4986 37.5 11.25 37.5H3.75C3.50136 37.5 3.2629 37.5988 3.08709 37.7746C2.91127 37.9505 2.8125 38.1889 2.8125 38.4375V57.1875C2.8125 57.4362 2.91127 57.6746 3.08709 57.8505C3.2629 58.0263 3.50136 58.125 3.75 58.125H11.25C11.4986 58.125 11.7371 58.0263 11.9129 57.8505C12.0887 57.6746 12.1875 57.4362 12.1875 57.1875V54.6122C13.6294 55.6778 15.3755 56.252 17.1684 56.25H26.1328C27.6025 56.2493 29.0465 55.8655 30.3225 55.1363L52.2131 42.5288C52.7827 42.2002 53.255 41.7266 53.5821 41.1562C53.9091 40.5857 54.0792 39.9388 54.075 39.2813C54.0744 38.6243 53.9011 37.9789 53.5726 37.4099C53.2441 36.8409 52.7718 36.3682 52.2031 36.0391C51.6344 35.7101 50.9893 35.5362 50.3322 35.5349C49.6752 35.5337 49.0293 35.705 48.4594 36.0319ZM10.3125 56.25H4.6875V39.375H10.3125V56.25ZM51.2728 40.906L29.3897 53.5107C28.3975 54.0767 27.2751 54.3746 26.1328 54.375H17.1684C16.3063 54.3774 15.4523 54.2086 14.6559 53.8786C13.8595 53.5485 13.1365 53.0637 12.5288 52.4522L12.1875 52.111V42.736L17.49 39.7904C18.9773 38.9594 20.7308 38.7433 22.3753 39.1885L34.8394 42.5279C35.0814 42.5877 35.309 42.6952 35.509 42.8441C35.7089 42.9929 35.8772 43.1802 36.0039 43.3948C36.1307 43.6095 36.2133 43.8473 36.2471 44.0943C36.2808 44.3413 36.2649 44.5925 36.2004 44.8333C36.1359 45.0741 36.024 45.2996 35.8713 45.4966C35.7186 45.6937 35.5282 45.8583 35.3111 45.9808C35.094 46.1034 34.8546 46.1814 34.607 46.2104C34.3594 46.2393 34.1086 46.2186 33.8691 46.1494L25.635 43.9435C25.5161 43.9116 25.392 43.9034 25.27 43.9195C25.1479 43.9356 25.0302 43.9755 24.9235 44.037C24.8169 44.0986 24.7234 44.1805 24.6484 44.2782C24.5734 44.3759 24.5184 44.4874 24.4866 44.6063C24.4547 44.7252 24.4465 44.8493 24.4626 44.9713C24.4786 45.0934 24.5186 45.2111 24.5801 45.3178C24.6417 45.4244 24.7236 45.5179 24.8213 45.5929C24.919 45.6678 25.0304 45.7229 25.1494 45.7547C25.1494 45.7547 34.0313 48.0938 34.3603 48.0938C34.8665 48.0995 35.3684 48.0008 35.8348 47.8041C36.3013 47.6074 36.7222 47.3167 37.0714 46.9503C37.4207 46.5838 37.6907 46.1494 37.8647 45.674C38.0388 45.1987 38.1131 44.6926 38.0831 44.1872L49.3941 37.6575C49.8228 37.4115 50.3313 37.3446 50.809 37.4716C51.2867 37.5985 51.695 37.9089 51.945 38.3354C52.1112 38.6233 52.1991 38.9498 52.2 39.2822C52.2026 39.6107 52.1181 39.9339 51.9553 40.2191C51.7924 40.5043 51.557 40.7413 51.2728 40.906Z" fill="white"/>
<path d="M36.5625 39.375C38.7875 39.375 40.9626 38.7152 42.8127 37.479C44.6627 36.2429 46.1047 34.4859 46.9561 32.4302C47.8076 30.3745 48.0304 28.1125 47.5963 25.9302C47.1623 23.748 46.0908 21.7434 44.5175 20.1701C42.9441 18.5967 40.9396 17.5253 38.7573 17.0912C36.575 16.6571 34.313 16.8799 32.2573 17.7314C30.2016 18.5828 28.4446 20.0248 27.2085 21.8748C25.9723 23.7249 25.3125 25.9 25.3125 28.125C25.3157 31.1077 26.502 33.9673 28.6111 36.0764C30.7202 38.1855 33.5798 39.3718 36.5625 39.375ZM36.5625 18.75C38.4167 18.75 40.2293 19.2998 41.771 20.33C43.3127 21.3601 44.5143 22.8243 45.2239 24.5373C45.9334 26.2504 46.1191 28.1354 45.7574 29.954C45.3956 31.7725 44.5027 33.443 43.1916 34.7541C41.8805 36.0652 40.21 36.9581 38.3915 37.3199C36.5729 37.6816 34.6879 37.4959 32.9748 36.7864C31.2618 36.0768 29.7976 34.8752 28.7675 33.3335C27.7373 31.7918 27.1875 29.9792 27.1875 28.125C27.1902 25.6394 28.1788 23.2565 29.9364 21.4989C31.694 19.7413 34.0769 18.7527 36.5625 18.75Z" fill="white"/>
<path d="M16.875 14.0625C16.6264 14.0625 16.3879 13.9637 16.2121 13.7879C16.0363 13.6121 15.9375 13.3736 15.9375 13.125C15.9375 12.8764 15.8387 12.6379 15.6629 12.4621C15.4871 12.2863 15.2486 12.1875 15 12.1875C14.7514 12.1875 14.5129 12.2863 14.3371 12.4621C14.1613 12.6379 14.0625 12.8764 14.0625 13.125C14.0649 13.7046 14.2463 14.2693 14.582 14.7419C14.9176 15.2145 15.391 15.5718 15.9375 15.765V16.875C15.9375 17.1236 16.0363 17.3621 16.2121 17.5379C16.3879 17.7137 16.6264 17.8125 16.875 17.8125C17.1236 17.8125 17.3621 17.7137 17.5379 17.5379C17.7137 17.3621 17.8125 17.1236 17.8125 16.875V15.765C18.4375 15.5449 18.9644 15.1106 19.3 14.5392C19.6355 13.9678 19.758 13.296 19.6457 12.643C19.5334 11.9899 19.1936 11.3976 18.6865 10.9711C18.1794 10.5445 17.5376 10.3112 16.875 10.3125C16.6896 10.3125 16.5083 10.2575 16.3542 10.1545C16.2 10.0515 16.0798 9.90507 16.0089 9.73377C15.9379 9.56246 15.9193 9.37396 15.9555 9.1921C15.9917 9.01025 16.081 8.8432 16.2121 8.71209C16.3432 8.58098 16.5102 8.49169 16.6921 8.45551C16.874 8.41934 17.0625 8.43791 17.2338 8.50886C17.4051 8.57982 17.5515 8.69998 17.6545 8.85415C17.7575 9.00832 17.8125 9.18958 17.8125 9.375C17.8125 9.62364 17.9113 9.8621 18.0871 10.0379C18.2629 10.2137 18.5014 10.3125 18.75 10.3125C18.9986 10.3125 19.2371 10.2137 19.4129 10.0379C19.5887 9.8621 19.6875 9.62364 19.6875 9.375C19.6851 8.79538 19.5037 8.23066 19.168 7.75809C18.8324 7.28553 18.359 6.9282 17.8125 6.735V5.625C17.8125 5.37636 17.7137 5.1379 17.5379 4.96209C17.3621 4.78627 17.1236 4.6875 16.875 4.6875C16.6264 4.6875 16.3879 4.78627 16.2121 4.96209C16.0363 5.1379 15.9375 5.37636 15.9375 5.625V6.735C15.3125 6.95514 14.7856 7.38939 14.45 7.96081C14.1145 8.53224 13.992 9.20397 14.1043 9.85704C14.2166 10.5101 14.5564 11.1024 15.0635 11.5289C15.5706 11.9555 16.2124 12.1888 16.875 12.1875C17.1236 12.1875 17.3621 12.2863 17.5379 12.4621C17.7137 12.6379 17.8125 12.8764 17.8125 13.125C17.8125 13.3736 17.7137 13.6121 17.5379 13.7879C17.3621 13.9637 17.1236 14.0625 16.875 14.0625Z" fill="white"/>
<path d="M16.875 20.625C18.7292 20.625 20.5418 20.0752 22.0835 19.045C23.6252 18.0149 24.8268 16.5507 25.5364 14.8377C26.2459 13.1246 26.4316 11.2396 26.0699 9.42103C25.7081 7.60246 24.8152 5.932 23.5041 4.62088C22.193 3.30976 20.5225 2.41688 18.704 2.05514C16.8854 1.69341 15.0004 1.87906 13.2873 2.58863C11.5743 3.29821 10.1101 4.49982 9.07997 6.04153C8.04983 7.58324 7.5 9.3958 7.5 11.25C7.50273 13.7356 8.49133 16.1186 10.2489 17.8761C12.0065 19.6337 14.3894 20.6223 16.875 20.625ZM16.875 3.75C18.3584 3.75 19.8084 4.18987 21.0418 5.01398C22.2751 5.83809 23.2364 7.00943 23.8041 8.37988C24.3718 9.75032 24.5203 11.2583 24.2309 12.7132C23.9415 14.168 23.2272 15.5044 22.1783 16.5533C21.1294 17.6022 19.793 18.3165 18.3382 18.6059C16.8833 18.8953 15.3753 18.7468 14.0049 18.1791C12.6344 17.6114 11.4631 16.6501 10.639 15.4168C9.81487 14.1834 9.375 12.7334 9.375 11.25C9.37723 9.26157 10.1681 7.35521 11.5742 5.94917C12.9802 4.54313 14.8866 3.75224 16.875 3.75Z" fill="white"/>
<path d="M36.5625 32.8125C36.0652 32.8125 35.5883 32.615 35.2367 32.2633C34.885 31.9117 34.6875 31.4348 34.6875 30.9375C34.6875 30.6889 34.5887 30.4504 34.4129 30.2746C34.2371 30.0988 33.9986 30 33.75 30C33.5014 30 33.2629 30.0988 33.0871 30.2746C32.9113 30.4504 32.8125 30.6889 32.8125 30.9375C32.8156 31.7665 33.0933 32.571 33.6022 33.2254C34.111 33.8798 34.8224 34.3471 35.625 34.5544V35.625C35.625 35.8736 35.7238 36.1121 35.8996 36.2879C36.0754 36.4637 36.3139 36.5625 36.5625 36.5625C36.8111 36.5625 37.0496 36.4637 37.2254 36.2879C37.4012 36.1121 37.5 35.8736 37.5 35.625V34.5544C38.3828 34.3272 39.1523 33.7856 39.6641 33.0313C40.1759 32.277 40.3948 31.3618 40.2797 30.4575C40.1646 29.5533 39.7235 28.7221 39.0391 28.12C38.3547 27.518 37.474 27.1864 36.5625 27.1875C36.1917 27.1875 35.8291 27.0775 35.5208 26.8715C35.2125 26.6655 34.9721 26.3726 34.8302 26.03C34.6883 25.6874 34.6512 25.3104 34.7235 24.9467C34.7959 24.583 34.9744 24.2489 35.2367 23.9867C35.4989 23.7245 35.833 23.5459 36.1967 23.4735C36.5604 23.4012 36.9374 23.4383 37.28 23.5802C37.6226 23.7221 37.9155 23.9625 38.1215 24.2708C38.3275 24.5791 38.4375 24.9417 38.4375 25.3125C38.4375 25.5611 38.5363 25.7996 38.7121 25.9754C38.8879 26.1512 39.1264 26.25 39.375 26.25C39.6236 26.25 39.8621 26.1512 40.0379 25.9754C40.2137 25.7996 40.3125 25.5611 40.3125 25.3125C40.3094 24.4835 40.0317 23.679 39.5228 23.0246C39.014 22.3702 38.3026 21.9029 37.5 21.6956V20.625C37.5 20.3764 37.4012 20.1379 37.2254 19.9621C37.0496 19.7863 36.8111 19.6875 36.5625 19.6875C36.3139 19.6875 36.0754 19.7863 35.8996 19.9621C35.7238 20.1379 35.625 20.3764 35.625 20.625V21.6956C34.7422 21.9228 33.9727 22.4644 33.4609 23.2187C32.9491 23.973 32.7302 24.8882 32.8453 25.7925C32.9604 26.6967 33.4015 27.5279 34.0859 28.13C34.7703 28.732 35.651 29.0636 36.5625 29.0625C37.0598 29.0625 37.5367 29.26 37.8883 29.6117C38.24 29.9633 38.4375 30.4402 38.4375 30.9375C38.4375 31.4348 38.24 31.9117 37.8883 32.2633C37.5367 32.615 37.0598 32.8125 36.5625 32.8125Z" fill="white"/>
<path d="M50.625 1.875C49.1416 1.875 47.6916 2.31487 46.4582 3.13898C45.2249 3.96309 44.2636 5.13443 43.6959 6.50487C43.1282 7.87532 42.9797 9.38332 43.2691 10.8382C43.5585 12.293 44.2728 13.6294 45.3217 14.6783C46.3706 15.7272 47.707 16.4415 49.1618 16.7309C50.6167 17.0203 52.1247 16.8718 53.4951 16.3041C54.8656 15.7364 56.0369 14.7751 56.861 13.5418C57.6851 12.3084 58.125 10.8584 58.125 9.375C58.1228 7.38656 57.3319 5.4802 55.9258 4.07417C54.5198 2.66813 52.6134 1.87723 50.625 1.875ZM50.625 12.1875C50.3764 12.1875 50.1379 12.0887 49.9621 11.9129C49.7863 11.7371 49.6875 11.4986 49.6875 11.25C49.6875 11.0014 49.5887 10.7629 49.4129 10.5871C49.2371 10.4113 48.9986 10.3125 48.75 10.3125C48.5014 10.3125 48.2629 10.4113 48.0871 10.5871C47.9113 10.7629 47.8125 11.0014 47.8125 11.25C47.8149 11.8296 47.9963 12.3943 48.332 12.8669C48.6676 13.3395 49.141 13.6968 49.6875 13.89V14.9156C48.3774 14.6953 47.1877 14.0178 46.3297 13.0035C45.4717 11.9891 45.0009 10.7035 45.0009 9.375C45.0009 8.04645 45.4717 6.76089 46.3297 5.74654C47.1877 4.7322 48.3774 4.05472 49.6875 3.83438V4.86C49.0625 5.08014 48.5356 5.51439 48.2 6.08581C47.8645 6.65724 47.742 7.32897 47.8543 7.98204C47.9666 8.63511 48.3064 9.22736 48.8135 9.65391C49.3206 10.0805 49.9624 10.3138 50.625 10.3125C50.8736 10.3125 51.1121 10.4113 51.2879 10.5871C51.4637 10.7629 51.5625 11.0014 51.5625 11.25C51.5625 11.4986 51.4637 11.7371 51.2879 11.9129C51.1121 12.0887 50.8736 12.1875 50.625 12.1875ZM51.5625 14.9156V13.89C52.1875 13.6699 52.7145 13.2356 53.05 12.6642C53.3855 12.0928 53.508 11.421 53.3957 10.768C53.2834 10.1149 52.9436 9.52264 52.4365 9.09609C51.9294 8.66955 51.2877 8.43624 50.625 8.4375C50.4396 8.4375 50.2583 8.38252 50.1042 8.2795C49.95 8.17649 49.8298 8.03007 49.7589 7.85877C49.6879 7.68746 49.6693 7.49896 49.7055 7.3171C49.7417 7.13525 49.831 6.9682 49.9621 6.83709C50.0932 6.70598 50.2602 6.61669 50.4421 6.58051C50.624 6.54434 50.8125 6.56291 50.9838 6.63386C51.1551 6.70482 51.3015 6.82498 51.4045 6.97915C51.5075 7.13332 51.5625 7.31458 51.5625 7.5C51.5625 7.74864 51.6613 7.9871 51.8371 8.16291C52.0129 8.33873 52.2514 8.4375 52.5 8.4375C52.7486 8.4375 52.9871 8.33873 53.1629 8.16291C53.3387 7.9871 53.4375 7.74864 53.4375 7.5C53.4351 6.92038 53.2537 6.35566 52.918 5.88309C52.5824 5.41053 52.109 5.0532 51.5625 4.86V3.83438C52.8727 4.05472 54.0623 4.7322 54.9203 5.74654C55.7783 6.76089 56.2491 8.04645 56.2491 9.375C56.2491 10.7035 55.7783 11.9891 54.9203 13.0035C54.0623 14.0178 52.8727 14.6953 51.5625 14.9156Z" fill="white"/>
</svg>
