<svg width="60" height="60" viewBox="0 0 60 60" fill="none" xmlns="http://www.w3.org/2000/svg">
<g clip-path="url(#clip0_48_1912)">
<path d="M43.7109 22.1986H50.4343" stroke="white" stroke-width="2" stroke-miterlimit="10" stroke-linecap="round" stroke-linejoin="round"/>
<path d="M43.7108 26.5219H52.539" stroke="white" stroke-width="2" stroke-miterlimit="10" stroke-linecap="round" stroke-linejoin="round"/>
<path d="M43.7108 30.3125H52.539" stroke="white" stroke-width="2" stroke-miterlimit="10" stroke-linecap="round" stroke-linejoin="round"/>
<path d="M37.6051 37.6953V28.5873C37.6051 27.8107 36.9755 27.181 36.1989 27.181H8.77698C8.00038 27.181 7.37073 27.8107 7.37073 28.5873V40.5404C7.37073 41.317 8.00038 41.9467 8.77698 41.9467H35.4947" stroke="white" stroke-width="2" stroke-miterlimit="10" stroke-linecap="round" stroke-linejoin="round"/>
<path d="M28.449 30.9321L30.7691 34.4853L33.0701 30.9505" stroke="white" stroke-width="2" stroke-miterlimit="10" stroke-linecap="round" stroke-linejoin="round"/>
<path d="M30.7599 38.1955L30.769 34.4854" stroke="white" stroke-width="2" stroke-miterlimit="10" stroke-linecap="round" stroke-linejoin="round"/>
<path d="M19.9583 30.9321V35.9301C19.9583 36.7812 20.3805 37.3542 21.0977 37.8124C21.4471 38.0357 21.8883 38.1946 22.4365 38.1953C22.9113 38.196 23.3081 38.086 23.6364 37.9207C24.4723 37.4998 25.0052 36.8605 25.0052 35.9247V30.932" stroke="white" stroke-width="2" stroke-miterlimit="10" stroke-linecap="round" stroke-linejoin="round"/>
<path d="M11.988 34.2768C12.3527 34.2768 13.8313 34.2768 14.3842 34.2768C15.4639 34.2768 16.3392 35.1521 16.3392 36.2318C16.3392 37.3116 15.4639 38.1869 14.3842 38.1869C13.91 38.1869 11.9059 38.1949 11.9059 38.1949V30.9323C12.1529 30.9323 13.5258 30.9323 14.0157 30.9323C14.9387 30.9323 15.6871 31.6805 15.6871 32.6036C15.6871 33.5266 14.9388 34.2749 14.0157 34.2749C13.6193 34.2749 12.3272 34.2804 11.988 34.2819" stroke="white" stroke-width="2" stroke-miterlimit="10" stroke-linecap="round" stroke-linejoin="round"/>
<path d="M46.4859 46.6539L42.992 43.16C42.8628 43.0309 42.8628 42.8214 42.992 42.6923L45.0433 40.6409C45.2523 40.432 45.16 40.0755 44.8759 39.9944L35.2883 37.2548C34.875 37.1367 34.4928 37.5188 34.611 37.9321L37.3506 47.5197C37.4318 47.8038 37.7883 47.8961 37.9971 47.6873L40.0484 45.6359C40.1775 45.5068 40.3869 45.5068 40.516 45.6359L44.01 49.1299C44.3975 49.5174 45.0258 49.5174 45.4133 49.1299L46.4859 48.0573C46.8735 47.6697 46.8735 47.0415 46.4859 46.6539Z" stroke="white" stroke-width="2" stroke-miterlimit="10" stroke-linecap="round" stroke-linejoin="round"/>
<path d="M58.8676 17.498H1.15253" stroke="white" stroke-width="2" stroke-miterlimit="10" stroke-linecap="round" stroke-linejoin="round"/>
<path d="M0.878906 40.5079V9.375C0.878906 8.21004 1.82332 7.26562 2.98828 7.26562H49.6615" stroke="white" stroke-width="2" stroke-miterlimit="10" stroke-linecap="round" stroke-linejoin="round"/>
<path d="M53.8281 7.26562H57.0117C58.1767 7.26562 59.1211 8.21004 59.1211 9.375V50.625C59.1211 51.79 58.1767 52.7344 57.0117 52.7344H2.98828C1.82332 52.7344 0.878906 51.79 0.878906 50.625V44.6224" stroke="white" stroke-width="2" stroke-miterlimit="10" stroke-linecap="round" stroke-linejoin="round"/>
<path d="M7.37073 14.1396C8.34154 14.1396 9.12854 13.3526 9.12854 12.3818C9.12854 11.411 8.34154 10.624 7.37073 10.624C6.39991 10.624 5.61292 11.411 5.61292 12.3818C5.61292 13.3526 6.39991 14.1396 7.37073 14.1396Z" stroke="white" stroke-width="2" stroke-miterlimit="10" stroke-linecap="round" stroke-linejoin="round"/>
<path d="M14.6949 14.1396C15.6658 14.1396 16.4528 13.3526 16.4528 12.3818C16.4528 11.411 15.6658 10.624 14.6949 10.624C13.7241 10.624 12.9371 11.411 12.9371 12.3818C12.9371 13.3526 13.7241 14.1396 14.6949 14.1396Z" stroke="white" stroke-width="2" stroke-miterlimit="10" stroke-linecap="round" stroke-linejoin="round"/>
<path d="M22.0192 14.1396C22.99 14.1396 23.777 13.3526 23.777 12.3818C23.777 11.411 22.99 10.624 22.0192 10.624C21.0484 10.624 20.2614 11.411 20.2614 12.3818C20.2614 13.3526 21.0484 14.1396 22.0192 14.1396Z" stroke="white" stroke-width="2" stroke-miterlimit="10" stroke-linecap="round" stroke-linejoin="round"/>
</g>
<defs>
<clipPath id="clip0_48_1912">
<rect width="60" height="60" fill="white"/>
</clipPath>
</defs>
</svg>
