<svg width="60" height="60" viewBox="0 0 60 60" fill="none" xmlns="http://www.w3.org/2000/svg">
<path d="M56.9191 35.4012H50.0355C49.4925 35.4012 49.0522 35.8415 49.0522 36.3846C49.0522 36.9276 49.4925 37.3679 50.0355 37.3679H54.5449L37.2517 54.6612L32.2926 49.7021C31.9189 49.3286 31.3168 49.3169 30.929 49.676L24.9856 55.1791L21.4857 51.6792C21.1017 51.2953 20.4791 51.2953 20.0951 51.6792C19.711 52.0633 19.711 52.6859 20.0951 53.07L24.2641 57.239C24.4557 57.4306 24.7074 57.5269 24.9596 57.5269C25.199 57.5269 25.4388 57.44 25.6276 57.2652L31.571 51.762L36.5563 56.7473C36.9404 57.1312 37.5629 57.1312 37.947 56.7473L55.9357 38.7587V43.268C55.9357 43.8111 56.376 44.2514 56.919 44.2514C57.4621 44.2514 57.9023 43.8111 57.9023 43.268V36.3844C57.9024 35.8415 57.4622 35.4012 56.9191 35.4012Z" fill="white"/>
<path d="M22.0093 31.9595H29.3846H36.7599C37.303 31.9595 37.7433 31.5192 37.7433 30.9762V19.6675C37.7433 18.583 36.861 17.7007 35.7765 17.7007H30.3715C30.3806 17.7627 30.3799 17.8265 30.3678 17.8902V15.7341C30.3678 14.6496 29.4857 13.7673 28.4012 13.7673H22.9926C21.9082 13.7673 21.0259 14.6496 21.0259 15.7341V23.1094H15.6173C14.5329 23.1094 13.6506 23.9917 13.6506 25.0762V30.9763C13.6506 31.5194 14.0908 31.9596 14.6339 31.9596L22.0093 31.9595ZM30.3681 19.6675H35.7766V29.9929H30.3681V19.6675ZM22.9928 15.734H28.4013V29.9928H22.9928V15.734ZM15.6174 25.076H21.026V29.9929H15.6174V25.076Z" fill="white"/>
<path d="M25.9429 41.7933C35.9742 41.7933 44.1353 33.6322 44.1353 23.601C44.1353 13.5697 35.9742 5.40857 25.9429 5.40857C15.9116 5.40857 7.75043 13.5696 7.75043 23.601C7.75054 33.6321 15.9116 41.7933 25.9429 41.7933ZM25.9429 7.37533C34.8898 7.37533 42.1685 14.6541 42.1685 23.601C42.1685 32.5478 34.8898 39.8265 25.9429 39.8265C16.9959 39.8265 9.71718 32.5478 9.71718 23.601C9.7173 14.6541 16.9961 7.37533 25.9429 7.37533Z" fill="white"/>
<path d="M5.53791 59.079C6.61932 59.7035 7.80092 60.0001 8.96811 60C11.3488 59.9998 13.6676 58.7653 14.941 56.5595L20.6851 46.6106C22.3765 46.9969 24.1362 47.2017 25.9428 47.2017C38.9565 47.2017 49.5438 36.6144 49.5438 23.6009C49.5438 10.5873 38.9565 0 25.9428 0C12.9293 0 2.34198 10.5873 2.34198 23.6009C2.34198 29.8425 4.77854 35.525 8.74909 39.7499L3.01827 49.6759C1.12053 52.9631 2.25081 57.1813 5.53791 59.079ZM25.9428 1.96676C37.8721 1.96676 47.5771 11.6718 47.5771 23.601C47.5771 35.5301 37.8721 45.2351 25.9428 45.2351C14.0137 45.2351 4.30862 35.5301 4.30862 23.601C4.30873 11.6718 14.0137 1.96676 25.9428 1.96676ZM4.72159 50.6593L10.201 41.1687C12.6402 43.3566 15.5356 45.0447 18.7254 46.0716L13.2378 55.5762C11.8823 57.924 8.86932 58.7316 6.52123 57.3759C4.17338 56.0203 3.36596 53.0073 4.72159 50.6593Z" fill="white"/>
</svg>
