<svg width="65" height="65" viewBox="0 0 65 65" fill="none" xmlns="http://www.w3.org/2000/svg">
<g clip-path="url(#clip0_42_1052)">
<path d="M41.4658 16.8926C43.2159 16.8926 44.6396 15.4688 44.6396 13.7188C44.6396 11.9687 43.2159 10.5448 41.4658 10.5448C39.7158 10.5448 38.292 11.9687 38.292 13.7188C38.292 14.4335 38.5296 15.0937 38.9299 15.6248L33.7152 22.9121C33.404 22.8099 33.0721 22.7538 32.727 22.7538C31.893 22.7538 31.1336 23.0776 30.5666 23.6055L27.0908 21.6331C27.1371 21.4178 27.162 21.1946 27.162 20.9657C27.162 19.2157 25.7382 17.7919 23.9882 17.7919C22.2381 17.7919 20.8144 19.2157 20.8144 20.9657C20.8144 21.1946 20.8392 21.4178 20.8856 21.6331L17.4097 23.6055C16.8427 23.0776 16.0833 22.7539 15.2494 22.7539C13.4993 22.7539 12.0755 24.1778 12.0755 25.9278C12.0755 27.6779 13.4993 29.1018 15.2494 29.1018C16.9994 29.1018 18.4232 27.6779 18.4232 25.9278C18.4232 25.6989 18.3983 25.4758 18.352 25.2604L21.8278 23.2881C22.3948 23.816 23.1542 24.1398 23.9882 24.1398C24.8221 24.1398 25.5814 23.816 26.1485 23.2882L29.6244 25.2606C29.5781 25.4759 29.5532 25.6991 29.5532 25.928C29.5532 27.678 30.9769 29.1019 32.727 29.1019C34.4772 29.1019 35.901 27.678 35.901 25.928C35.901 25.2131 35.6632 24.5528 35.2629 24.0216L40.4776 16.7344C40.7886 16.8365 41.1208 16.8926 41.4658 16.8926ZM41.4658 12.4491C42.1658 12.4491 42.7353 13.0186 42.7353 13.7188C42.7353 14.4188 42.1658 14.9883 41.4658 14.9883C40.7658 14.9883 40.1963 14.4188 40.1963 13.7188C40.1962 13.0186 40.7657 12.4491 41.4658 12.4491ZM15.249 27.1972C14.549 27.1972 13.9794 26.6277 13.9794 25.9276C13.9794 25.2274 14.549 24.6579 15.249 24.6579C15.949 24.6579 16.5185 25.2274 16.5185 25.9276C16.5185 26.6277 15.949 27.1972 15.249 27.1972ZM23.9879 22.2353C23.2879 22.2353 22.7184 21.6658 22.7184 20.9656C22.7184 20.2656 23.2879 19.6961 23.9879 19.6961C24.6879 19.6961 25.2575 20.2656 25.2575 20.9656C25.2576 21.6658 24.6879 22.2353 23.9879 22.2353ZM32.7269 27.1972C32.0268 27.1972 31.4573 26.6277 31.4573 25.9276C31.4573 25.2274 32.0268 24.6579 32.7269 24.6579C33.427 24.6579 33.9965 25.2274 33.9965 25.9276C33.9965 26.6277 33.4269 27.1972 32.7269 27.1972Z" fill="#CC0444"/>
<path d="M53.1675 47.8568H46.5042H10.2106H2.69331C2.25824 47.8568 1.9043 47.5029 1.9043 47.0678V7.78608C1.9043 7.35102 2.25824 6.99707 2.69331 6.99707H7.18187C7.7077 6.99707 8.13401 6.57089 8.13401 6.04492C8.13401 5.51896 7.7077 5.09277 7.18187 5.09277H2.69331C1.20821 5.09277 0 6.30099 0 7.78608V47.0678C0 48.5529 1.20821 49.7611 2.69331 49.7611H9.25844V51.8566C9.25844 53.0503 10.2296 54.0215 11.4234 54.0215H20.9542L16.4677 62.781C16.228 63.2491 16.413 63.8228 16.8811 64.0626C17.02 64.1338 17.1683 64.1675 17.3144 64.1675C17.6603 64.1675 17.9941 63.9783 18.1625 63.6491L23.0938 54.0215H33.621L38.5522 63.6491C38.7208 63.9783 39.0545 64.1675 39.4004 64.1675C39.5465 64.1675 39.6948 64.1336 39.8337 64.0626C40.3018 63.8228 40.4869 63.2491 40.2471 62.781L35.7605 54.0215H45.2914C46.4852 54.0215 47.4563 53.0505 47.4563 51.8566V49.7611H53.1675C53.6933 49.7611 54.1196 49.3349 54.1196 48.809C54.1196 48.283 53.6933 47.8568 53.1675 47.8568ZM45.5521 51.8566C45.5521 52.0003 45.4351 52.1172 45.2914 52.1172H11.4234C11.2797 52.1172 11.1627 52.0003 11.1627 51.8566V49.7611H45.5521V51.8566Z" fill="#CC0444"/>
<path d="M10.9904 6.99711H24.025H32.6897H54.0213C54.4564 6.99711 54.8104 7.35106 54.8104 7.78612V16.8393C54.8104 17.3652 55.2367 17.7914 55.7625 17.7914C56.2883 17.7914 56.7146 17.3652 56.7146 16.8393V7.78612C56.7146 6.30103 55.5064 5.09281 54.0213 5.09281H33.6419V3.22127C33.6419 1.90413 32.5703 0.83252 31.2531 0.83252H25.4617C24.1446 0.83252 23.0728 1.90413 23.0728 3.22127V5.09281H10.9904C10.4646 5.09281 10.0383 5.51899 10.0383 6.04496C10.0383 6.57093 10.4646 6.99711 10.9904 6.99711ZM24.9771 3.22127C24.9771 2.95416 25.1945 2.73682 25.4617 2.73682H31.2531C31.5202 2.73682 31.7376 2.95416 31.7376 3.22127V5.09281H24.9773V3.22127H24.9771Z" fill="#CC0444"/>
<path d="M13.3176 33.9696C12.7918 33.9696 12.3655 34.3958 12.3655 34.9218V43.3352C12.3655 43.8612 12.7918 44.2873 13.3176 44.2873H17.1804C17.7063 44.2873 18.1326 43.8612 18.1326 43.3352V34.9218C18.1326 34.3958 17.7063 33.9696 17.1804 33.9696H13.3176ZM16.2283 42.3832H14.2698V35.874H16.2283V42.3832Z" fill="#CC0444"/>
<path d="M22.0565 29.1038C21.5306 29.1038 21.1043 29.5299 21.1043 30.0559V43.3353C21.1043 43.8613 21.5306 44.2875 22.0565 44.2875H25.9193C26.4451 44.2875 26.8714 43.8613 26.8714 43.3353V30.0559C26.8714 29.5299 26.4451 29.1038 25.9193 29.1038H22.0565ZM24.9672 42.3832H23.0087V31.0081H24.9672V42.3832Z" fill="#CC0444"/>
<path d="M30.7954 33.9696C30.2696 33.9696 29.8433 34.3958 29.8433 34.9218V43.3352C29.8433 43.8612 30.2696 44.2873 30.7954 44.2873H34.6582C35.1841 44.2873 35.6104 43.8612 35.6104 43.3352V34.9218C35.6104 34.3958 35.1841 33.9696 34.6582 33.9696H30.7954ZM33.7061 42.3832H31.7476V35.874H33.7061V42.3832Z" fill="#CC0444"/>
<path d="M39.5344 39.588C39.0085 39.588 38.5822 40.0142 38.5822 40.5402V43.3353C38.5822 43.8613 39.0085 44.2874 39.5344 44.2874H43.3972C43.923 44.2874 44.3493 43.8613 44.3493 43.3353C44.3493 42.8093 43.923 42.3831 43.3972 42.3831H40.4865V40.5402C40.4865 40.0142 40.0602 39.588 39.5344 39.588Z" fill="#CC0444"/>
<path d="M64.5144 48.7524L59.052 39.2911C60.4359 37.816 61.4437 36.0137 61.982 34.0048C62.8423 30.794 62.4008 27.4403 60.7387 24.5615C57.3077 18.6184 49.6815 16.5754 43.7388 20.0063C37.796 23.4372 35.7527 31.0634 39.1837 37.0062C40.8458 39.885 43.5295 41.9441 46.7402 42.8046C47.8125 43.0919 48.9003 43.234 49.9813 43.234C50.9261 43.234 51.8655 43.1253 52.7841 42.9103L58.2454 52.3718C58.9148 53.5318 60.1338 54.1809 61.3858 54.1808C61.9994 54.1808 62.6209 54.0248 63.1896 53.6967C64.3062 53.0522 65 51.8503 65 50.5602C65 49.9281 64.8322 49.3031 64.5144 48.7524ZM47.2331 40.9652C44.5136 40.2365 42.2405 38.4923 40.8327 36.054C37.9268 31.0206 39.6575 24.5615 44.6908 21.6554C46.3467 20.6994 48.1561 20.2454 49.9434 20.2454C53.5888 20.2454 57.1395 22.1362 59.0895 25.5136C60.4971 27.9519 60.8711 30.7923 60.1424 33.5119C59.4137 36.2315 57.6695 38.5044 55.2312 39.9121C52.7931 41.3199 49.9527 41.6937 47.2331 40.9652ZM62.2378 52.0473C61.4186 52.5204 60.3674 52.2388 59.8947 51.4199L54.6404 42.3169C55.167 42.102 55.6827 41.8506 56.1836 41.5614C56.685 41.2719 57.1598 40.9497 57.6093 40.6009L62.8652 49.7043C63.016 49.9659 63.0957 50.262 63.0957 50.5603C63.0957 51.172 62.7669 51.7419 62.2378 52.0473Z" fill="#CC0444"/>
<path d="M58.5942 33.4662C59.2664 31.3009 59.1063 28.9827 58.1434 26.9388C57.9192 26.463 57.352 26.2591 56.8763 26.4832C56.4004 26.7074 56.1966 27.2746 56.4208 27.7503C57.1803 29.3626 57.3064 31.1918 56.7756 32.9014C56.2419 34.6203 55.0889 36.0629 53.529 36.9635C51.8784 37.9167 49.9552 38.1696 48.1142 37.6764C46.2731 37.183 44.7342 36.0022 43.7813 34.3516C41.8139 30.944 42.9857 26.5713 46.3932 24.6039C48.8847 23.1656 51.9766 23.3578 54.2708 25.0935C54.6903 25.4109 55.2873 25.3283 55.6046 24.9088C55.9218 24.4895 55.8392 23.8923 55.4197 23.575C52.5136 21.3761 48.5966 21.1327 45.441 22.9546C43.3498 24.1619 41.8539 26.1114 41.2289 28.4438C40.6039 30.7762 40.9247 33.2124 42.1321 35.3036C43.3394 37.3949 45.2889 38.8907 47.6213 39.5158C48.4001 39.7245 49.1905 39.8277 49.9757 39.8277C51.5421 39.8277 53.0882 39.4169 54.481 38.6126C56.4573 37.4718 57.918 35.6442 58.5942 33.4662Z" fill="#CC0444"/>
</g>
<defs>
<clipPath id="clip0_42_1052">
<rect width="65" height="65" fill="white"/>
</clipPath>
</defs>
</svg>
