<svg width="60" height="60" viewBox="0 0 60 60" fill="none" xmlns="http://www.w3.org/2000/svg">
<g clip-path="url(#clip0_43_1342)">
<mask id="mask0_43_1342" style="mask-type:luminance" maskUnits="userSpaceOnUse" x="0" y="0" width="60" height="60">
<path d="M0 3.8147e-06H60V60H0V3.8147e-06Z" fill="white"/>
</mask>
<g mask="url(#mask0_43_1342)">
<path d="M11.0156 31.7578C11.0156 26.0648 13.7555 21.0199 17.9648 17.8054L11.7117 13.8972C6.96797 18.3832 3.98438 24.7125 3.98438 31.7578C3.98438 34.9863 4.60664 38.0695 5.73633 40.8949L1.17188 43.6546L15.5988 51.4382L16.1801 34.8656L11.9191 37.3253C11.3332 35.5746 11.0156 33.7031 11.0156 31.7578Z" stroke="#C73E9B" stroke-width="2" stroke-miterlimit="10" stroke-linecap="round" stroke-linejoin="round"/>
<path d="M49.2656 29.4703C48.5672 21.6938 42.7828 15.361 35.2734 13.8293V18.75L21.2109 9.96096L35.2734 1.1719V6.69495C45.5238 8.16096 53.7363 15.9434 55.8422 25.9735L49.2656 29.4703Z" stroke="#C73E9B" stroke-width="2" stroke-miterlimit="10" stroke-linecap="round" stroke-linejoin="round"/>
<path d="M45.4687 57.4219C44.8221 57.4219 44.2969 56.8955 44.2969 56.25C44.2969 55.6045 44.8221 55.0781 45.4687 55.0781C46.1154 55.0781 46.6406 55.6045 46.6406 56.25C46.6406 56.8955 46.1154 57.4219 45.4687 57.4219Z" fill="#C73E9B"/>
<path d="M40.508 58.0397C38.4754 58.5543 36.3615 58.8281 34.2188 58.8281C30.7969 58.8281 27.5391 58.1297 24.5778 56.8676L24.8508 49.0863C27.5649 50.8031 30.7781 51.7969 34.2188 51.7969C39.4453 51.7969 44.6157 49.5035 47.8383 45.8707L43.5856 43.4156L58.2282 35.632L58.8282 52.2047L54.0246 49.4426C52.8501 50.9323 51.4753 52.2829 49.9458 53.4657" stroke="#C73E9B" stroke-width="2" stroke-miterlimit="10" stroke-linecap="round" stroke-linejoin="round"/>
</g>
</g>
<defs>
<clipPath id="clip0_43_1342">
<rect width="60" height="60" fill="white"/>
</clipPath>
</defs>
</svg>
