<svg width="60" height="60" viewBox="0 0 60 60" fill="none" xmlns="http://www.w3.org/2000/svg">
<path d="M9.68281 26.5656C10.1246 26.5656 10.4828 26.2074 10.4828 25.7656C10.4828 25.3237 10.1246 24.9656 9.68281 24.9656C9.24098 24.9656 8.88281 25.3237 8.88281 25.7656C8.88281 26.2074 9.24098 26.5656 9.68281 26.5656Z" fill="#C73E9B"/>
<path d="M17.586 9.06235C17.7422 9.21855 17.947 9.29675 18.1516 9.29675C18.3562 9.29675 18.561 9.21855 18.7172 9.06235L19.2828 8.49675L19.8484 9.06235C20.0046 9.21855 20.2094 9.29675 20.414 9.29675C20.6186 9.29675 20.8234 9.21855 20.9796 9.06235C21.292 8.74995 21.292 8.24355 20.9796 7.93115L20.414 7.36555L20.9798 6.79995C21.2922 6.48755 21.2922 5.98115 20.9798 5.66875C20.6674 5.35635 20.161 5.35635 19.8486 5.66875L19.283 6.23435L18.7174 5.66875C18.405 5.35635 17.8986 5.35635 17.5862 5.66875C17.2738 5.98115 17.2738 6.48755 17.5862 6.79995L18.1518 7.36555L17.5862 7.93115C17.2734 8.24375 17.2734 8.74995 17.586 9.06235Z" fill="#C73E9B"/>
<path d="M11.2828 12.9656C9.95941 12.9656 8.88281 14.0422 8.88281 15.3656C8.88281 16.689 9.95941 17.7656 11.2828 17.7656C12.6062 17.7656 13.6828 16.689 13.6828 15.3656C13.6828 14.0422 12.6064 12.9656 11.2828 12.9656ZM11.2828 16.1656C10.8418 16.1656 10.4828 15.8066 10.4828 15.3656C10.4828 14.9246 10.8418 14.5656 11.2828 14.5656C11.7238 14.5656 12.0828 14.9246 12.0828 15.3656C12.0828 15.8066 11.7238 16.1656 11.2828 16.1656Z" fill="#C73E9B"/>
<path d="M36.4828 44.9656H32.8828V30.5656C32.8828 30.3784 32.8172 30.1971 32.6972 30.0533L28.6972 25.2533C28.4758 24.9869 28.1078 24.8939 27.7854 25.0225L23.7854 26.6226C23.3752 26.787 23.1756 27.2521 23.3396 27.6627C23.504 28.0725 23.9688 28.2717 24.3798 28.1085L27.84 26.7242L31.2826 30.8549V44.9656H27.6826H26.7916C26.1802 44.9656 25.6826 44.468 25.6826 43.8566V42.5758C25.6826 39.9688 24.5642 37.4894 22.533 35.5946C19.4182 32.6892 17.81 28.5773 18.1212 24.3145C18.6028 17.7091 23.9176 12.1805 30.4836 11.4543C31.0144 11.3953 31.5524 11.3657 32.0824 11.3657C32.5242 11.3657 32.8824 11.0075 32.8824 10.5657C32.8824 10.1239 32.5242 9.76575 32.0824 9.76575C31.4938 9.76575 30.8964 9.79895 30.3078 9.86375C22.988 10.6733 17.0626 16.8359 16.5254 24.1979C16.179 28.9463 17.9712 33.527 21.4418 36.7648C23.145 38.3534 24.0828 40.4172 24.0828 42.5758V43.8566C24.0828 44.994 24.789 45.9658 25.7846 46.3668C25.7242 46.557 25.6828 46.7556 25.6828 46.9656C25.6828 47.4176 25.8392 47.8302 26.093 48.1656C25.8392 48.501 25.6828 48.9136 25.6828 49.3656C25.6828 50.3314 26.371 51.1392 27.2828 51.3252V52.1995C27.2828 53.5041 28.3442 54.5656 29.6488 54.5656H34.5168C35.8214 54.5656 36.8828 53.5041 36.8828 52.1995V51.3252C37.7946 51.1394 38.4828 50.3314 38.4828 49.3656C38.4828 48.9136 38.3264 48.501 38.0726 48.1656C38.3264 47.8302 38.4828 47.4176 38.4828 46.9656C38.4828 45.8628 37.5856 44.9656 36.4828 44.9656ZM36.4828 46.5656C36.7036 46.5656 36.8828 46.7448 36.8828 46.9656C36.8828 47.1864 36.7036 47.3656 36.4828 47.3656H27.6828C27.462 47.3656 27.2828 47.1864 27.2828 46.9656C27.2828 46.7448 27.462 46.5656 27.6828 46.5656H36.4828ZM34.5168 52.9656H29.6488C29.2266 52.9656 28.8828 52.6217 28.8828 52.1995V51.3656H35.2828V52.1995C35.2828 52.6217 34.9392 52.9656 34.5168 52.9656ZM36.4828 49.7656H27.6828C27.462 49.7656 27.2828 49.5864 27.2828 49.3656C27.2828 49.1448 27.462 48.9656 27.6828 48.9656H36.4828C36.7036 48.9656 36.8828 49.1448 36.8828 49.3656C36.8828 49.5864 36.7036 49.7656 36.4828 49.7656Z" fill="#C73E9B"/>
<path d="M22.5426 17.2315C21.5692 18.3193 20.795 19.5523 20.2414 20.8963C20.0734 21.3049 20.268 21.7725 20.6766 21.9409C20.7762 21.9819 20.8794 22.0015 20.9808 22.0015C21.2952 22.0015 21.5936 21.8147 21.721 21.5057C22.2054 20.3295 22.8828 19.2507 23.7346 18.2987C24.0292 17.9695 24.0014 17.4635 23.6722 17.1691C23.3426 16.8737 22.836 16.9027 22.5426 17.2315Z" fill="#C73E9B"/>
<path d="M27.6552 13.7523C26.6908 14.1081 25.768 14.5819 24.9126 15.1609C24.5466 15.4085 24.4508 15.9059 24.6986 16.2719C24.8532 16.5005 25.1052 16.6235 25.3618 16.6235C25.516 16.6235 25.672 16.5789 25.8094 16.4859C26.5578 15.9793 27.3648 15.5645 28.2082 15.2539C28.623 15.1007 28.8352 14.6411 28.6824 14.2265C28.529 13.8121 28.0692 13.5995 27.6552 13.7523Z" fill="#C73E9B"/>
<path d="M49.4341 20.1847C48.6607 19.4113 47.6787 18.8785 46.6063 18.6401C46.7257 17.3313 46.2859 16.0423 45.3725 15.1287C45.3449 15.0875 45.3275 15.0415 45.2913 15.0049C44.3171 14.0195 42.9543 13.6485 41.6867 13.8915C41.6615 12.9441 41.2915 12.0421 40.6183 11.3689C39.1609 9.91154 36.2929 10.0229 34.7171 11.5997C34.5671 11.7497 34.4827 11.9533 34.4827 12.1653V40.9653C34.4827 41.2657 34.6511 41.5411 34.9187 41.6777C35.6003 42.0257 36.4265 42.2351 37.2429 42.2351C38.1957 42.2351 39.1351 41.9503 39.8159 41.2691C39.9667 41.1183 40.1053 40.9563 40.2307 40.7835C41.9167 41.5049 43.9525 41.1135 45.3425 39.7233C46.5801 38.4861 47.0351 36.6975 46.5675 35.1003C46.6737 35.0113 46.7741 34.9191 46.8703 34.8229C48.2437 33.4499 48.6875 31.4549 48.0707 29.7369C48.4895 29.4759 48.8757 29.1693 49.2249 28.8205C51.6639 26.3819 51.7575 22.5077 49.4341 20.1847ZM47.0953 28.4357C46.3443 27.8679 45.4433 27.5439 44.4849 27.5381C43.3083 27.5487 42.2021 27.9815 41.3657 28.8077C41.0513 29.1183 41.0481 29.6249 41.3587 29.9389C41.6697 30.2537 42.1759 30.2565 42.4899 29.9459C43.5741 28.8747 45.3161 28.8767 46.4047 29.9329C47.0233 31.1427 46.7657 32.6649 45.7391 33.6919C45.5767 33.8543 45.3907 34.0033 45.1707 34.1465C44.8375 34.3641 44.7149 34.7933 44.8829 35.1539C45.4087 36.2831 45.1387 37.6649 44.2115 38.5921C43.2873 39.5163 41.9467 39.7797 40.8505 39.3069C40.8505 39.3053 40.8513 39.3041 40.8513 39.3027L40.8575 38.2563C40.8685 36.5211 39.4653 35.1005 37.7297 35.0895C37.7277 35.0895 37.7261 35.0895 37.7247 35.0895C37.2853 35.0895 36.9275 35.4441 36.9247 35.8845C36.9219 36.3263 37.2779 36.6869 37.7197 36.6895C38.5733 36.6949 39.2631 37.3931 39.2575 38.2465L39.2513 39.2933C39.2513 39.2999 39.2549 39.3055 39.2551 39.3121C39.2399 39.3379 39.2145 39.3555 39.2021 39.3831C39.0731 39.6699 38.8993 39.9233 38.6853 40.1373C38.0947 40.7291 36.9869 40.7491 36.0829 40.4369V12.5261C37.0817 11.7609 38.7067 11.7207 39.4871 12.5003C40.0381 13.0513 40.2215 13.8883 39.9785 14.6933C39.8631 14.7845 39.7417 14.8647 39.6347 14.9705C38.8745 15.7213 38.4523 16.7237 38.4457 17.7919C38.4391 18.8601 38.8493 19.8673 39.5999 20.6275C39.7565 20.7857 39.9627 20.8651 40.1691 20.8651C40.3723 20.8651 40.5753 20.7881 40.7315 20.6343C41.0455 20.3237 41.0487 19.8171 40.7381 19.5027C40.2873 19.0469 40.0417 18.4429 40.0455 17.8019C40.0493 17.1609 40.3029 16.5597 40.7587 16.1089C41.0929 15.7785 41.5019 15.5725 41.9305 15.4789C42.7877 15.3819 43.6353 15.6541 44.2401 16.2589C44.9601 16.9789 45.2069 18.0359 44.9003 19.0871C44.8323 19.3195 44.8737 19.5703 45.0125 19.7687C45.1511 19.9675 45.3723 20.0925 45.6141 20.1089C46.6543 20.1799 47.5841 20.5971 48.3027 21.3159C50.0019 23.0155 49.9081 25.8745 48.0937 27.6893C47.7991 27.9841 47.4573 28.2241 47.0953 28.4357Z" fill="#C73E9B"/>
</svg>
