<svg width="60" height="60" viewBox="0 0 60 60" fill="none" xmlns="http://www.w3.org/2000/svg">
<g clip-path="url(#clip0_43_1273)">
<path d="M51.1969 11.734L55.0278 11.7364C55.9981 11.7364 56.7856 12.5239 56.7844 13.4942L56.7692 45.6035" stroke="#C73E9B" stroke-width="2" stroke-miterlimit="10" stroke-linecap="round" stroke-linejoin="round"/>
<path d="M47.0954 11.7329L43.2024 11.7306" stroke="#C73E9B" stroke-width="2" stroke-miterlimit="10" stroke-linecap="round" stroke-linejoin="round"/>
<path d="M3.21472 45.5791L3.21847 37.5923" stroke="#C73E9B" stroke-width="2" stroke-miterlimit="10" stroke-linecap="round" stroke-linejoin="round"/>
<path d="M7.59258 50.3965H4.39453C2.45273 50.3965 0.878906 48.8215 0.878906 46.8809C0.878906 46.5563 1.01016 46.2633 1.22227 46.0523C1.43438 45.8402 1.72734 45.709 2.05078 45.709H33.109" stroke="#C73E9B" stroke-width="2" stroke-miterlimit="10" stroke-linecap="round" stroke-linejoin="round"/>
<path d="M33.1089 50.3965H11.6941" stroke="#C73E9B" stroke-width="2" stroke-miterlimit="10" stroke-linecap="round" stroke-linejoin="round"/>
<path d="M52.9762 45.7086H57.9492C58.5964 45.7086 59.121 46.2333 59.121 46.8805C59.121 48.8222 57.5471 50.3961 55.6054 50.3961H53.0061" stroke="#C73E9B" stroke-width="2" stroke-miterlimit="10" stroke-linecap="round" stroke-linejoin="round"/>
<path d="M33.1092 37.3761H2.64984C1.6718 37.3761 0.878906 36.5832 0.878906 35.6051V5.64264C0.878906 4.66459 1.6718 3.8717 2.64984 3.8717H41.2556C42.2336 3.8717 43.0262 4.66448 43.0262 5.64229V24.6524" stroke="#C73E9B" stroke-width="2" stroke-miterlimit="10" stroke-linecap="round" stroke-linejoin="round"/>
<path d="M13.111 7.27039H39.6281V24.6528" stroke="#C73E9B" stroke-width="2" stroke-miterlimit="10" stroke-linecap="round" stroke-linejoin="round"/>
<path d="M9.00937 7.27039H4.27734V33.9774H33.109" stroke="#C73E9B" stroke-width="2" stroke-miterlimit="10" stroke-linecap="round" stroke-linejoin="round"/>
<path d="M21.9525 28.2462C26.2916 28.2462 29.8092 24.7286 29.8092 20.3896C29.8092 16.0505 26.2916 12.533 21.9525 12.533C17.6135 12.533 14.0959 16.0505 14.0959 20.3896C14.0959 24.7286 17.6135 28.2462 21.9525 28.2462Z" stroke="#C73E9B" stroke-width="2" stroke-miterlimit="10" stroke-linecap="round" stroke-linejoin="round"/>
<path d="M18.9364 20.375L21.4047 23.1545L25.4374 17.979" stroke="#C73E9B" stroke-width="2" stroke-miterlimit="10" stroke-linecap="round" stroke-linejoin="round"/>
<path d="M33.3317 44.0285V53.768C33.3317 55.0723 34.3887 56.1281 35.6918 56.1281H50.3555C51.6586 56.1281 52.7145 55.0723 52.7145 53.768V27.2133C52.7145 25.909 51.6586 24.8531 50.3555 24.8531H35.6918C34.3887 24.8531 33.3317 25.909 33.3317 27.2133V39.927" stroke="#C73E9B" stroke-width="2" stroke-miterlimit="10" stroke-linecap="round" stroke-linejoin="round"/>
<path d="M41.45 27.9127H44.5967" stroke="#C73E9B" stroke-width="2" stroke-miterlimit="10" stroke-linecap="round" stroke-linejoin="round"/>
<path d="M43.0233 46.6139C46.405 46.6139 49.1465 43.8724 49.1465 40.4907C49.1465 37.109 46.405 34.3676 43.0233 34.3676C39.6416 34.3676 36.9001 37.109 36.9001 40.4907C36.9001 43.8724 39.6416 46.6139 43.0233 46.6139Z" stroke="#C73E9B" stroke-width="2" stroke-miterlimit="10" stroke-linecap="round" stroke-linejoin="round"/>
<path d="M40.856 40.4902L42.6405 42.4996L45.5561 38.7579" stroke="#C73E9B" stroke-width="2" stroke-miterlimit="10" stroke-linecap="round" stroke-linejoin="round"/>
</g>
<defs>
<clipPath id="clip0_43_1273">
<rect width="60" height="60" fill="white"/>
</clipPath>
</defs>
</svg>
