<svg width="100" height="100" viewBox="0 0 100 100" fill="none" xmlns="http://www.w3.org/2000/svg">
<path d="M50 73.3071C48.9213 73.3071 48.0469 74.1815 48.0469 75.2603C48.0469 75.2628 48.0469 75.2655 48.0469 75.2681C48.0469 75.2706 48.0469 75.2733 48.0469 75.2759V75.2915C48.0469 76.3702 48.9213 77.2446 50 77.2446C51.0787 77.2446 51.9531 76.3702 51.9531 75.2915C51.9531 75.2888 51.9531 75.2864 51.9531 75.2837C51.9531 75.281 51.9531 75.2786 51.9531 75.2759C51.9531 75.2731 51.9531 75.2706 51.9531 75.2681C51.9531 75.2655 51.9531 75.2628 51.9531 75.2603C51.9531 74.1815 51.0787 73.3071 50 73.3071Z" fill="#6A26DA"/>
<path d="M80.8594 0H19.1406C8.58633 0 0 8.58633 0 19.1406V80.8594C0 91.4137 8.58633 100 19.1406 100H50C51.0787 100 51.9531 99.1256 51.9531 98.0469V82.9102C51.9531 81.8314 51.0787 80.957 50 80.957C48.9213 80.957 48.0469 81.8314 48.0469 82.9102V96.0938H19.1406C10.7404 96.0938 3.90625 89.2596 3.90625 80.8594V19.1406C3.90625 10.7404 10.7404 3.90625 19.1406 3.90625H80.8594C89.2596 3.90625 96.0938 10.7404 96.0938 19.1406V80.8594C96.0938 89.2596 89.2596 96.0938 80.8594 96.0938H68.3594V61.6213H79.6838C80.6869 61.6213 81.5268 60.8615 81.6271 59.8637L83.0316 45.9076C83.0869 45.3582 82.9072 44.8113 82.5369 44.402C82.1666 43.9926 81.6402 43.759 81.0883 43.759H68.3594V36.4307C68.3594 35.1043 68.7818 34.6111 69.9182 34.6111H81.0006C82.0793 34.6111 82.9537 33.7367 82.9537 32.658V19.0525C82.9537 17.9738 82.0793 17.0994 81.0006 17.0994H66.4465C58.1998 17.0994 53.8264 20.7217 51.6098 23.7604C48.5096 28.01 48.0467 33.0287 48.0467 35.642V43.8465H38.4764C37.3977 43.8465 36.5232 44.7209 36.5232 45.7996V59.668C36.5232 60.7467 37.3977 61.6211 38.4764 61.6211H48.0467V67.1875C48.0467 68.2662 48.9211 69.1406 49.9998 69.1406C51.0785 69.1406 51.9529 68.2662 51.9529 67.1875V59.668C51.9529 58.5893 51.0785 57.7148 49.9998 57.7148H40.4295V47.7525H49.9998C51.0785 47.7525 51.9529 46.8781 51.9529 45.7994V35.6418C51.9529 31.241 53.3652 21.0055 66.4465 21.0055H79.0475V30.7047H69.9182C67.3971 30.7047 64.4531 32.2043 64.4531 36.4305V45.7119C64.4531 46.7906 65.3275 47.665 66.4062 47.665H78.9287L77.9174 57.7148H66.4062C65.3275 57.7148 64.4531 58.5893 64.4531 59.668V98.0469C64.4531 99.1256 65.3275 100 66.4062 100H80.8594C91.4137 100 100 91.4137 100 80.8594V19.1406C100 8.58633 91.4137 0 80.8594 0Z" fill="#6A26DA"/>
<path d="M11.3281 20.0195C10.2494 20.0195 9.375 20.8939 9.375 21.9727V38.2812C9.375 39.36 10.2494 40.2344 11.3281 40.2344C12.4068 40.2344 13.2812 39.36 13.2812 38.2812V21.9727C13.2812 20.8939 12.4068 20.0195 11.3281 20.0195Z" fill="#6A26DA"/>
<path d="M11.3281 44.8013C10.2494 44.8013 9.375 45.6757 9.375 46.7544V46.7774C9.375 47.8562 10.2494 48.7306 11.3281 48.7306C12.4068 48.7306 13.2812 47.8562 13.2812 46.7774V46.7544C13.2812 45.6757 12.4068 44.8013 11.3281 44.8013Z" fill="#6A26DA"/>
</svg>
