<svg width="100" height="100" viewBox="0 0 100 100" fill="none" xmlns="http://www.w3.org/2000/svg">
<path d="M98.4342 18.1629C99.299 18.1629 100 17.4619 100 16.5971V8.24629C100 3.69941 96.3006 0 91.7537 0H8.24629C3.69941 0 0 3.69941 0 8.24629V91.7535C0 96.3006 3.69941 100 8.24629 100H91.7535C96.3006 100 100 96.3006 100 91.7537V23.2777C100 22.4131 99.2992 21.7119 98.4342 21.7119C97.5693 21.7119 96.8684 22.4129 96.8684 23.2777V91.7537C96.8684 94.574 94.574 96.8686 91.7535 96.8686H8.24629C5.42598 96.8686 3.13145 94.574 3.13145 91.7537V8.24629C3.13145 5.42598 5.42598 3.13145 8.24629 3.13145H91.7535C94.574 3.13145 96.8684 5.42598 96.8684 8.24629V16.5971C96.8686 17.4619 97.5693 18.1629 98.4342 18.1629Z" fill="#6A26DA"/>
<path d="M29.9582 46.6598C30.8229 46.6598 31.524 45.9588 31.524 45.0939V38.309C31.524 37.4443 30.823 36.7432 29.9582 36.7432H16.5971C15.7324 36.7432 15.0312 37.4441 15.0312 38.309V83.4029C15.0312 84.2676 15.7322 84.9688 16.5971 84.9688H29.9582C30.8229 84.9688 31.524 84.2678 31.524 83.4029V51.9832C31.524 51.1186 30.823 50.4174 29.9582 50.4174C29.0934 50.4174 28.3924 51.1184 28.3924 51.9832V81.8371H18.1629V39.8748H28.3926V45.0939C28.3926 45.9586 29.0936 46.6598 29.9582 46.6598Z" fill="#6A26DA"/>
<path d="M79.6973 41.0325C76.51 38.3067 72.3821 36.7434 68.3717 36.7434C61.7524 36.7434 57.5594 38.9442 54.9061 41.6557V38.3092C54.9061 37.4446 54.2053 36.7434 53.3403 36.7434H39.9792C39.1145 36.7434 38.4133 37.4444 38.4133 38.3092V83.4032C38.4133 84.2678 39.1143 84.969 39.9792 84.969H53.3403C54.2051 84.969 54.9061 84.268 54.9061 83.4032V61.6911C54.9061 57.5002 58.428 54.9061 61.6911 54.9061C65.6225 54.9061 68.476 57.7596 68.476 61.6911V83.403C68.476 84.2676 69.1768 84.9688 70.0419 84.9688H83.403C84.2678 84.9688 84.9688 84.2678 84.9688 83.403V51.6702C84.9688 47.7178 83.0965 43.9399 79.6973 41.0325ZM81.8372 81.8372H71.6075V61.6911C71.6075 56.0375 67.3442 51.7747 61.6911 51.7747C56.9219 51.7747 51.7747 55.5661 51.7747 61.6911V81.8372H41.545V39.8749H51.7747V46.6598C51.7747 47.3739 52.2772 48.0125 52.9709 48.1811C53.6858 48.3545 54.4456 47.9911 54.7581 47.3247C57.0766 42.3813 61.6571 39.8749 68.3719 39.8749C74.7284 39.8749 81.8376 44.9194 81.8376 51.6702V81.8372H81.8372Z" fill="#6A26DA"/>
<path d="M23.2778 15.0312C18.7307 15.0312 15.0315 18.7307 15.0315 23.2775C15.0315 27.8244 18.7309 31.5238 23.2778 31.5238C27.8247 31.5238 31.5241 27.8244 31.5241 23.2775C31.5241 18.7307 27.8247 15.0312 23.2778 15.0312ZM23.2778 28.3926C20.4575 28.3926 18.1629 26.098 18.1629 23.2777C18.1629 20.4574 20.4575 18.1629 23.2778 18.1629C26.0981 18.1629 28.3926 20.4574 28.3926 23.2777C28.3926 26.098 26.0979 28.3926 23.2778 28.3926Z" fill="#6A26DA"/>
</svg>
