<svg width="140" height="101" viewBox="0 0 140 101" fill="none" xmlns="http://www.w3.org/2000/svg">
<path d="M70.6917 0.934256L70.4937 0.933716C70.491 0.933716 70.4888 0.933716 70.4861 0.933716C68.9794 0.933716 67.7558 2.13886 67.7517 3.62914C67.7517 3.6313 67.7517 3.63347 67.7517 3.63563C67.7512 5.12537 68.9707 6.33511 70.4787 6.33916L70.6769 6.3397C70.6794 6.3397 70.6819 6.3397 70.6843 6.3397C72.191 6.3397 73.4146 5.13456 73.4187 3.64428C73.4187 3.64211 73.4187 3.63995 73.4187 3.63779C73.4192 2.14805 72.1997 0.93831 70.6917 0.934256Z" fill="#6A26DA"/>
<path d="M137.099 17.7193C135.304 10.972 130.007 5.65818 123.279 3.85168C116.341 1.98383 96.9962 1.29599 81.99 1.04815C80.4888 1.02788 79.2354 2.21302 79.2102 3.70546C79.185 5.19791 80.3887 6.42818 81.8986 6.45305C102.669 6.79629 116.854 7.72468 121.844 9.06766C126.692 10.3693 130.511 14.2112 131.811 19.0958C134.498 29.1724 134.531 50.7169 134.531 50.9331C134.531 51.1496 134.498 72.6941 131.81 82.7722C130.511 87.6552 126.692 91.4972 121.842 92.7993C111.821 95.4967 70.417 95.5283 70 95.5283C69.583 95.5283 28.1788 95.4964 18.1563 92.7988C13.3082 91.4972 9.4891 87.6552 8.18945 82.7706C5.50156 72.6941 5.46875 51.1496 5.46875 50.9334C5.46875 50.7169 5.50156 29.1724 8.18973 19.0945C9.4891 14.2115 13.3082 10.3696 18.1579 9.06739C23.2567 7.69495 37.8615 6.76008 59.2826 6.4344C60.7925 6.4117 61.9976 5.18304 61.9746 3.6906C61.9514 2.19816 60.7045 1.0168 59.1984 1.02977C43.7303 1.26464 23.8049 1.94518 16.7226 3.85141C9.9925 5.65818 4.69629 10.9723 2.90145 17.718C0.033086 28.4716 0 50.0212 0 50.9334C0 51.8455 0.033086 73.3951 2.9009 84.1471C4.69629 90.8945 9.9925 96.2083 16.721 98.0148C27.4419 100.9 68.2675 100.934 70 100.934C71.7325 100.934 112.558 100.9 123.277 98.0153C130.007 96.2085 135.304 90.8945 137.099 84.1487C139.967 73.3951 140 51.8455 140 50.9334C140 50.0212 139.967 28.4716 137.099 17.7193Z" fill="#6A26DA"/>
<path d="M15.8594 43.7772C14.3492 43.7772 13.125 44.9872 13.125 46.4799V68.5071C13.125 69.9998 14.3492 71.2098 15.8594 71.2098C17.3696 71.2098 18.5938 69.9998 18.5938 68.5071V46.4799C18.5938 44.9872 17.3696 43.7772 15.8594 43.7772Z" fill="#6A26DA"/>
<path d="M15.8594 31.4799C14.3492 31.4799 13.125 32.6899 13.125 34.1826V34.2145C13.125 35.7072 14.3492 36.9172 15.8594 36.9172C17.3696 36.9172 18.5938 35.7072 18.5938 34.2145V34.1826C18.5938 32.6899 17.3696 31.4799 15.8594 31.4799Z" fill="#6A26DA"/>
<path d="M92.1774 49.0075L58.2712 29.5479C57.4251 29.0622 56.3814 29.0603 55.5338 29.5427C54.6861 30.0252 54.1636 30.9184 54.1636 31.8852V70.8044C54.1636 71.7714 54.6861 72.6644 55.5338 73.1468C55.956 73.3871 56.4268 73.5071 56.8979 73.5071C57.3724 73.5071 57.8468 73.3855 58.2712 73.1417L92.1774 53.6821C93.0204 53.1983 93.5388 52.308 93.5388 51.3448C93.5388 50.3815 93.0201 49.4913 92.1774 49.0075ZM59.6323 66.1097V36.5798L85.3587 51.3448L59.6323 66.1097Z" fill="#6A26DA"/>
</svg>
