<svg width="100" height="100" viewBox="0 0 100 100" fill="none" xmlns="http://www.w3.org/2000/svg">
<g clip-path="url(#clip0_44_1573)">
<path d="M85.3555 14.6447C75.9115 5.20098 63.3555 0 50 0C36.6445 0 24.0885 5.20098 14.6445 14.6447C5.20098 24.0885 0 36.6445 0 50C0 69.9016 11.7928 87.9004 30.0434 95.8541C30.2932 95.9631 30.559 96.0168 30.8234 96.0168C31.1953 96.0168 31.5648 95.9107 31.8867 95.7031C32.4367 95.3467 32.7713 94.7381 32.7775 94.0828C32.8205 89.6002 33.3502 85.116 34.3479 80.7697L39.335 59.7855C39.6643 58.3998 39.7082 56.985 39.466 55.5805L38.8027 51.7416C38.7453 51.41 38.7164 51.0709 38.7164 50.7334V49.7324C38.7164 46.5463 39.6432 43.4564 41.3967 40.7969C42.3082 39.4143 43.8408 38.5885 45.4965 38.5883H45.6309C45.6313 38.5883 45.6312 38.5883 45.6318 38.5883C47.81 38.5883 49.7039 40.0773 50.2371 42.2102L50.2912 42.4264C50.6764 43.9672 50.6709 45.5945 50.2758 47.1326L46.6484 61.2502C45.9738 63.876 46.5334 66.6176 48.184 68.7719C49.8094 70.8936 52.2641 72.1283 54.9211 72.1596L55.0479 72.1604C65.3895 72.1604 72.8957 61.601 72.8957 47.0525C72.8957 40.667 70.5896 34.9051 66.4025 30.8283C62.2305 26.7664 56.342 24.5293 49.8217 24.5293C42.5217 24.5293 36.2201 27.0859 31.5988 31.9225C27.4285 36.2867 25.0369 42.3018 25.0369 48.4254C25.0369 52.2379 26.2312 56.5453 28.1539 59.6664C28.4111 60.0842 28.4693 60.5801 28.3135 61.0268L27.2078 64.1947C27.1271 64.4258 26.9438 64.5057 26.8416 64.5326C26.7205 64.565 26.5408 64.5721 26.3723 64.425C22.5049 61.05 19.698 54.2418 19.698 48.2361C19.698 34.0551 28.9588 23.0957 43.2908 20.3162C44.3498 20.1107 45.0416 19.0859 44.8363 18.027C44.6309 16.968 43.6055 16.275 42.5469 16.4814C34.2822 18.0844 27.391 22.1105 22.6186 28.1248C18.2162 33.6727 15.7918 40.8148 15.7918 48.2361C15.7918 55.3842 19.0865 63.2514 23.8039 67.3682C24.9104 68.3334 26.4199 68.6852 27.8412 68.3086C29.268 67.9309 30.41 66.874 30.8959 65.4814L32.0016 62.3133C32.5463 60.752 32.3561 59.0404 31.4799 57.6176C29.9389 55.1156 28.9432 51.5076 28.9432 48.425C28.9432 38.7344 36.2604 28.4352 49.8215 28.4352C61.1072 28.4352 68.9893 36.0906 68.9893 47.0521C68.9893 53.2055 67.4887 58.7414 64.7643 62.6404C62.2346 66.2602 58.784 68.2537 55.0477 68.2537L54.965 68.2533C53.5172 68.2361 52.1758 67.5592 51.2846 66.3959C50.3682 65.1998 50.0572 63.6785 50.4314 62.2221L54.0588 48.1045C54.615 45.9391 54.6227 43.6479 54.0801 41.4779L54.026 41.2617C53.0574 37.3873 49.6057 34.6816 45.6316 34.6816C45.6311 34.6816 45.6305 34.6816 45.6299 34.6816H45.4955C42.5229 34.6822 39.7711 36.1643 38.1348 38.6463C35.9596 41.9459 34.8096 45.7793 34.8096 49.7318V50.7328C34.8096 51.2922 34.8578 51.8553 34.9527 52.4059L35.616 56.2445C35.768 57.1254 35.7404 58.0127 35.5338 58.8818L30.5436 79.8805C29.7041 83.5359 29.1766 87.2721 28.9688 91.025C13.6518 83.1691 3.90625 67.3707 3.90625 50C3.90625 24.5838 24.5838 3.90625 50 3.90625C75.4162 3.90625 96.0938 24.5838 96.0938 50C96.0938 62.642 91.0773 74.4346 81.9687 83.2059C81.1916 83.9541 81.1684 85.1904 81.9166 85.9676C82.665 86.7445 83.9012 86.768 84.6783 86.0197C89.4713 81.4043 93.24 75.9826 95.8803 69.9055C98.6139 63.6129 100 56.9158 100 50C100 36.6445 94.799 24.0885 85.3555 14.6447Z" fill="#6A26DA"/>
<path d="M78.1494 88.9961C77.5555 88.096 76.3443 87.8475 75.4436 88.4417L75.3023 88.535C74.402 89.129 74.1537 90.3407 74.7479 91.2409C75.1232 91.81 75.7455 92.1184 76.3797 92.1184C76.749 92.1184 77.1225 92.0137 77.4537 91.7954L77.5949 91.702C78.4953 91.1081 78.7436 89.8963 78.1494 88.9961Z" fill="#6A26DA"/>
<path d="M77.4813 27.5633C73.1417 22.2627 67.1528 18.534 60.162 16.7803C59.1157 16.5176 58.0545 17.1532 57.7922 18.1995C57.5299 19.2457 58.1653 20.3067 59.2114 20.5692C71.869 23.7444 80.3731 34.3024 80.3731 46.8416C80.3731 63.6577 69.9325 76.3387 56.0872 76.3387C52.6448 76.3387 48.7401 74.3139 46.8139 72.4088C46.3168 71.9172 45.5944 71.7288 44.9202 71.9149C44.2459 72.1012 43.7231 72.6338 43.5489 73.3114L42.1432 78.7825C40.7368 84.2559 38.6717 89.5582 36.0057 94.5418L35.5385 95.4149C35.2584 95.9387 35.2317 96.5616 35.4663 97.1075C35.7008 97.6534 36.1709 98.0625 36.744 98.2198C41.0501 99.4012 45.51 100 50.0001 100C56.1547 100 62.1649 98.8944 67.8637 96.7139C68.8713 96.3284 69.3756 95.1993 68.9901 94.1918C68.6043 93.184 67.4749 92.6805 66.468 93.0655C61.2165 95.0748 55.6758 96.0938 50.0001 96.0938C46.6797 96.0938 43.378 95.7389 40.1534 95.0368C42.6288 90.1735 44.5686 85.0397 45.9266 79.7543L46.5872 77.1832C49.1768 78.8684 52.6497 80.245 56.0874 80.245C63.9803 80.245 71.2073 76.7268 76.437 70.3385C81.4942 64.1608 84.2793 55.8161 84.2793 46.8414C84.2793 39.662 81.9286 32.9955 77.4813 27.5633Z" fill="#6A26DA"/>
<path d="M51.4838 15.6865C51.374 15.6856 51.2637 15.6852 51.1537 15.6852C50.0752 15.6852 49.2006 16.5596 49.2006 17.6383C49.2006 18.717 50.0752 19.5914 51.1537 19.5914C51.2519 19.5914 51.35 19.5918 51.448 19.5926C51.4541 19.5926 51.4603 19.5926 51.4664 19.5926C52.5365 19.5926 53.4092 18.7299 53.4189 17.6574C53.4287 16.5789 52.5623 15.6965 51.4838 15.6865Z" fill="#6A26DA"/>
</g>
<defs>
<clipPath id="clip0_44_1573">
<rect width="100" height="100" fill="white"/>
</clipPath>
</defs>
</svg>
