<svg width="65" height="65" viewBox="0 0 65 65" fill="none" xmlns="http://www.w3.org/2000/svg">
<mask id="mask0_42_1191" style="mask-type:luminance" maskUnits="userSpaceOnUse" x="0" y="0" width="65" height="65">
<path d="M0 7.62939e-06H65V65H0V7.62939e-06Z" fill="white"/>
</mask>
<g mask="url(#mask0_42_1191)">
<path d="M52.0734 39.4914C51.1163 38.5365 49.5692 38.526 48.6237 39.4696L45.8483 42.2463C44.9013 43.1801 44.9244 44.7614 45.8703 45.696L50.5141 50.3397H50.4925C48.428 50.3397 46.3973 49.5084 44.9052 48.0172C43.0447 46.1556 42.2288 43.5245 42.7228 40.9786C42.837 40.3877 42.6512 39.7824 42.2276 39.3614L31.2525 28.3863C31.8459 28.3597 32.4114 28.2032 32.9173 27.9382C33.1577 28.3929 33.4893 28.8017 33.9027 29.143C34.8368 29.9141 36.0152 30.1962 37.1576 30.0066C37.1658 31.17 37.6863 32.2602 38.5942 33.0082C39.9246 34.1042 41.796 34.2196 43.2504 33.3629L45.7403 35.8528C46.1608 36.2714 46.7728 36.4561 47.3526 36.345C49.9013 35.857 52.5305 36.6662 54.3941 38.5285C55.8907 40.024 56.7224 42.0625 56.7167 44.1349L52.0734 39.4914ZM32.7161 20.8028L30.9703 20.0095L33.1336 17.4987C33.8883 16.6231 35.2316 16.512 36.1284 17.2515C36.9945 17.9656 37.1202 19.2735 36.3821 20.1213L34.4657 22.3448C34.0648 21.6908 33.4699 21.1454 32.7161 20.8028ZM25.2447 17.4077C25.3109 17.2903 28.4428 13.6343 28.4428 13.6343C29.1973 12.7587 30.5408 12.6471 31.4376 13.3858C32.3027 14.0983 32.4295 15.4074 31.691 16.2557L29.1639 19.1887L25.2447 17.4077ZM37.8247 21.3644C38.5795 20.4885 39.9234 20.3771 40.8208 21.1161C41.6861 21.8287 41.8105 23.1385 41.073 23.9859L38.1086 27.4262C37.354 28.3019 36.0109 28.4129 35.1146 27.6741C34.7573 27.3791 34.5194 26.9881 34.4219 26.5531C34.7937 25.97 35.0161 25.261 35.0454 24.5888L37.8247 21.3644ZM46.1892 33.6087L44.6462 32.0656L45.9203 30.5869L46.1892 33.6087ZM42.5161 25.2286C43.2753 24.3473 44.6203 24.247 45.5113 24.981C46.3753 25.6928 46.5037 27.0019 45.7647 27.8505L42.8002 31.2906C42.0458 32.1665 40.7022 32.2773 39.805 31.5385C38.9368 30.8233 38.8134 29.5177 39.5516 28.6689L42.5161 25.2286ZM55.7407 37.1819C53.7141 35.1541 50.9469 34.1277 48.1569 34.3231C48.1462 34.07 47.6719 28.7501 47.6445 28.4761C48.5883 26.8448 48.174 24.7075 46.722 23.5112C45.7859 22.7398 44.5906 22.4621 43.4681 22.6483C43.4601 21.4857 42.9379 20.3926 42.0314 19.6461C41.095 18.8749 39.8996 18.5972 38.7772 18.7837C38.7691 17.6219 38.2464 16.5289 37.3396 15.7821C36.4037 15.0103 35.2085 14.7323 34.0861 14.9183C34.0779 13.7559 33.5554 12.6629 32.6483 11.916C30.9588 10.5245 28.425 10.7376 27.0003 12.3913L26.0619 13.4801L24.157 11.5752C24.5518 9.47579 24.2292 7.26883 23.2468 5.35425C23.0066 4.8863 22.433 4.70172 21.9648 4.94191C21.497 5.18198 21.3124 5.75593 21.5524 6.22376C22.3495 7.77677 22.607 9.56757 22.2773 11.2665C22.1633 11.8551 22.3484 12.4596 22.7723 12.8837L24.8155 14.9268C24.8155 14.9268 23.6305 16.3705 23.4834 16.6702C22.2685 16.3283 20.9947 16.4822 19.9262 17.0588L19.2618 16.3944C18.8384 15.9708 18.2331 15.7865 17.6434 15.9005C15.0966 16.3931 12.4662 15.5769 10.6062 13.7169C9.08425 12.1949 8.26451 10.194 8.28063 8.10749L12.9267 12.7536C13.8845 13.7094 15.4319 13.7187 16.3762 12.7744L19.1518 9.99871C20.0967 9.06383 20.0658 7.47425 19.1298 6.54787L14.4855 1.90354C14.5002 1.90354 14.5152 1.90341 14.5299 1.90341C16.0954 1.90341 17.6334 2.37645 18.9495 3.27654C19.3836 3.57336 19.9762 3.46227 20.2729 3.02809C20.5698 2.59404 20.4585 2.00155 20.0244 1.70461C18.0164 0.331482 15.5919 -0.241202 13.1951 0.0915419C12.6605 0.165936 12.222 0.530292 12.0508 1.04268C11.8773 1.56141 12.0114 2.12431 12.399 2.51038L17.7831 7.89433C17.9834 8.10241 18.0461 8.40443 17.8059 8.65148L15.0296 11.4279C14.827 11.6306 14.4871 11.6204 14.2726 11.4064L8.88848 6.02228C8.49975 5.63381 7.93646 5.50076 7.419 5.6743C6.90763 5.84582 6.54391 6.28418 6.46965 6.81827C6.05273 9.81716 7.09565 12.8995 9.25957 15.0635C11.5553 17.3591 14.8025 18.3723 17.9541 17.7798L18.4643 18.2899C18.2647 18.5383 14.2101 24.579 14.0183 24.8635C12.5277 27.0748 12.6021 29.9957 14.2033 32.1316L17.5236 36.562C17.841 36.9855 18.439 37.0657 18.8566 36.7528C19.2773 36.4375 19.3628 35.8408 19.0474 35.4199L15.7271 30.9895C14.6117 29.5016 14.5596 27.4676 15.5975 25.9278L19.834 19.6395C20.595 18.5096 22.1202 18.0854 23.3793 18.6517L31.9282 22.5365C32.9475 22.9997 33.4119 24.1726 32.9857 25.2067C32.5539 26.2544 31.3165 26.7669 30.2718 26.3259C30.2099 26.2997 27.2377 25.0471 27.1796 25.0274C25.7154 24.5301 24.0897 25.0008 23.1347 26.198L22.067 27.5347C21.7388 27.9457 21.8058 28.5448 22.2167 28.873C22.6275 29.2011 23.2266 29.134 23.5549 28.7233L24.6229 27.386C25.3232 26.5054 26.4156 26.6495 27.325 27.152L40.843 40.6698C40.3976 43.037 40.8586 45.4577 42.0889 47.4895V52.352C41.8304 52.3085 41.5655 52.2846 41.295 52.2846H26.669C26.4458 52.2846 26.2265 52.3011 26.0114 52.3311V46.8178C26.0114 45.4406 25.572 44.1264 24.7409 43.0171L21.6859 38.9406C21.3704 38.5197 20.7736 38.4342 20.3529 38.7497C19.932 39.065 19.8466 39.6618 20.1619 40.0825L23.2169 44.1591C23.7993 44.9362 24.1071 45.8556 24.1071 46.8178V53.0358C22.7862 53.8828 21.9083 55.363 21.9083 57.0454V64.0479C21.9083 64.5737 22.3345 65 22.8604 65C23.3863 65 23.8126 64.5737 23.8126 64.0479V57.0454C23.8126 55.4703 25.0939 54.1889 26.669 54.1889H41.295C42.87 54.1889 44.1515 55.4703 44.1515 57.0454V64.0479C44.1515 64.5737 44.5777 65 45.1036 65C45.6295 65 46.0558 64.5737 46.0558 64.0479V57.0454C46.0558 55.4214 45.238 53.9855 43.9932 53.1259V49.7694C45.7936 51.3621 48.1246 52.2436 50.4969 52.2435C50.9335 52.2435 51.3718 52.2137 51.8079 52.153C52.3414 52.0771 52.779 51.7125 52.9495 51.2012C53.1223 50.6838 52.9887 50.1213 52.601 49.7335L47.2161 44.3487C47.0206 44.146 46.9563 43.8412 47.1942 43.5934L49.9696 40.8166C50.1724 40.6143 50.5127 40.6242 50.7274 40.8387L56.1117 46.2229C56.5001 46.6112 57.0631 46.7444 57.5812 46.5707C58.0923 46.3992 58.4561 45.9608 58.5303 45.4268C58.9475 42.4267 57.9046 39.3443 55.7407 37.1819ZM39.4189 57.1289C38.8931 57.1289 38.4668 57.5552 38.4668 58.0811C38.4668 58.6069 38.8931 59.0332 39.4189 59.0332C39.9449 59.0332 40.3711 58.6069 40.3711 58.0811C40.3711 57.5552 39.9449 57.1289 39.4189 57.1289Z" fill="#CC0444"/>
</g>
</svg>
