<svg width="65" height="65" viewBox="0 0 65 65" fill="none" xmlns="http://www.w3.org/2000/svg">
<g clip-path="url(#clip0_42_1140)">
<path d="M21.2171 16.924L24.9844 23.5705V25.2025C24.4765 25.5537 24.1426 26.1394 24.1426 26.8021V28.7409C24.1426 29.8129 25.0147 30.6849 26.0865 30.6849H26.2842C26.417 32.9653 28.3135 34.7799 30.6266 34.7799C32.9397 34.7799 34.8362 32.9653 34.969 30.6849H35.1665C36.2385 30.6849 37.1105 29.8128 37.1105 28.7409V26.8021C37.1105 26.1392 36.7766 25.5536 36.2687 25.2025V23.5708L40.0359 16.924C40.0429 16.9118 40.0494 16.8997 40.0557 16.8872C40.8175 15.495 41.2523 13.9836 41.3481 12.3946C41.3798 11.87 40.9802 11.4193 40.4558 11.3876C39.9305 11.3569 39.4805 11.7555 39.4488 12.28C39.3694 13.5953 39.0079 14.8456 38.3743 15.9959C38.3717 16.001 38.3689 16.0059 38.3662 16.011L34.5963 22.6624C34.4456 22.9284 34.3658 23.2306 34.3658 23.5364V24.8582H31.5779V17.3802L36.4149 12.6064C36.6946 12.3304 36.8494 11.9618 36.8507 11.5688C36.8519 11.1758 36.6996 10.8064 36.4216 10.5287L34.6887 8.79568C34.4121 8.51901 34.0444 8.36665 33.6531 8.36665C33.262 8.36665 32.8943 8.51901 32.6175 8.79555L32.2918 9.12119L31.4746 8.54083C30.9674 8.18055 30.2858 8.18055 29.7785 8.54083L28.9612 9.12132L28.6356 8.79581C28.3589 8.51913 27.9911 8.36678 27.5999 8.36678C27.2088 8.36678 26.8411 8.51913 26.5644 8.79568L24.8314 10.5287C24.5535 10.8065 24.4011 11.176 24.4024 11.569C24.4036 11.962 24.5584 12.3305 24.8382 12.6066L29.6752 17.3802V24.8584H26.8872V23.5365C26.8872 23.2308 26.8077 22.9286 26.6569 22.6626L22.8858 16.0092C22.8834 16.0048 22.8811 16.0004 22.8787 15.9959C22.165 14.7 21.7877 13.228 21.7877 11.7394C21.7877 9.3673 22.7147 7.1402 24.3976 5.46836C26.0661 3.81085 28.2758 2.90041 30.6263 2.90041C30.6464 2.90041 30.6669 2.90041 30.6871 2.90066C34.3021 2.92476 37.5994 5.22366 38.8919 8.621C39.0788 9.11219 39.6282 9.35867 40.1195 9.17194C40.6106 8.98508 40.8572 8.43554 40.6704 7.94435C39.1007 3.81872 35.0938 1.02712 30.6998 0.997812C30.6752 0.997685 30.6507 0.997559 30.6261 0.997559C27.7699 0.997559 25.0842 2.10425 23.0567 4.11836C21.0114 6.15009 19.885 8.85657 19.885 11.7394C19.885 13.5387 20.339 15.3186 21.1984 16.8889C21.2042 16.9007 21.2105 16.9125 21.2171 16.924ZM26.489 11.562L27.6 10.4509L27.8777 10.7285C28.3846 11.2355 29.1769 11.302 29.7613 10.8869L30.6267 10.2723L31.4921 10.8869C32.0766 11.3021 32.8689 11.2356 33.3758 10.7285L33.6534 10.4509L34.7645 11.562L30.6268 15.6456L26.489 11.562ZM30.6266 32.8771C29.3632 32.8771 28.3203 31.915 28.1922 30.6849H33.0611C32.933 31.915 31.8901 32.8771 30.6266 32.8771ZM35.2078 28.7409C35.2078 28.7637 35.1892 28.782 35.1667 28.782H26.0866C26.0639 28.782 26.0455 28.7635 26.0455 28.7409V26.8021C26.0455 26.7794 26.0641 26.761 26.0866 26.761H35.1667C35.1894 26.761 35.2078 26.7795 35.2078 26.8021V28.7409Z" fill="#CC0444"/>
<path d="M43.0037 5.52866C43.1642 5.52866 43.3268 5.48794 43.4761 5.40244L44.595 4.76092C45.0508 4.4996 45.2085 3.91822 44.9472 3.46242C44.6858 3.0065 44.1046 2.84882 43.6485 3.11027L42.5297 3.75178C42.0739 4.0131 41.9162 4.59449 42.1775 5.05028C42.3532 5.3569 42.674 5.52866 43.0037 5.52866Z" fill="#CC0444"/>
<path d="M42.9973 12.659C42.7885 13.141 43.0098 13.7014 43.4919 13.9103L44.8225 14.4869C44.9458 14.5403 45.074 14.5655 45.2004 14.5655C45.568 14.5655 45.9183 14.351 46.0739 13.9921C46.2827 13.5101 46.0614 12.9497 45.5793 12.7408L44.2487 12.1642C43.7664 11.9553 43.2063 12.1769 42.9973 12.659Z" fill="#CC0444"/>
<path d="M16.7917 4.76103L17.9107 5.40254C18.0599 5.48804 18.2226 5.52876 18.383 5.52876C18.7129 5.52876 19.0336 5.357 19.2094 5.05039C19.4707 4.59459 19.313 4.01308 18.8571 3.75176L17.7381 3.11024C17.2823 2.84905 16.7009 3.0066 16.4395 3.46253C16.1781 3.91819 16.3358 4.4997 16.7917 4.76103Z" fill="#CC0444"/>
<path d="M16.1864 14.5655C16.3126 14.5655 16.441 14.5403 16.5642 14.4869L17.8948 13.9103C18.3769 13.7014 18.5984 13.1412 18.3895 12.659C18.1806 12.1768 17.6204 11.9553 17.1382 12.1643L15.8076 12.7408C15.3254 12.9497 15.1039 13.5099 15.3128 13.9921C15.4684 14.351 15.8186 14.5655 16.1864 14.5655Z" fill="#CC0444"/>
<path d="M40.8459 19.6049C40.8459 20.1303 41.2717 20.5563 41.7973 20.5563H58.1199V42.5149C58.1199 43.0403 58.5458 43.4663 59.0714 43.4663C59.5969 43.4663 60.0228 43.0403 60.0228 42.5149V20.4557C60.0228 19.462 59.2143 18.6534 58.2207 18.6534H41.7973C41.2719 18.6534 40.8459 19.0794 40.8459 19.6049Z" fill="#CC0444"/>
<path d="M59.0714 57.1953C58.5458 57.1953 58.1199 57.6213 58.1199 58.1467V62.0995H7.84696C4.69394 62.0995 2.08704 59.6362 1.91211 56.4915C1.82204 54.8724 2.39505 53.3226 3.52547 52.1277C4.67745 50.9097 6.29995 50.2112 7.97674 50.2112H8.95619C9.78 50.2112 10.4503 49.5409 10.4503 48.7171V29.354C10.4503 28.8286 10.0243 28.4026 9.49889 28.4026C8.97345 28.4026 8.54746 28.8286 8.54746 29.354V48.3084H7.97674C5.7792 48.3084 3.65296 49.2238 2.14299 50.82C2.0604 50.9073 1.98086 50.9967 1.90272 51.0869V22.6707C1.90272 19.3826 4.57787 16.7074 7.86599 16.7074H8.54734V25.2994C8.54734 25.8248 8.97332 26.2508 9.49876 26.2508C10.0242 26.2508 10.4502 25.8248 10.4502 25.2994V20.5562H19.4556C19.981 20.5562 20.407 20.1303 20.407 19.6048C20.407 19.0794 19.981 18.6534 19.4556 18.6534H10.4503V16.2986C10.4503 15.4748 9.78 14.8044 8.95619 14.8044H7.86612C3.52877 14.8046 0 18.3333 0 22.6707C0 22.6707 0.00431312 56.4538 0.0123051 56.5972C0.243184 60.7496 3.68467 64.0023 7.84696 64.0023H58.2207C59.2143 64.0023 60.0228 63.1939 60.0228 62.2001V58.1467C60.0228 57.6213 59.5969 57.1953 59.0714 57.1953Z" fill="#CC0444"/>
<path d="M61.5352 45.3693H21.6219C21.4622 45.3693 21.3049 45.4095 21.1649 45.4862L14.5562 49.1059C14.1085 49.3512 13.8304 49.8205 13.8304 50.331C13.8304 50.8413 14.1085 51.3108 14.5563 51.5561L21.165 55.1757C21.3051 55.2524 21.4622 55.2926 21.6221 55.2926H27.2276C27.753 55.2926 28.179 54.8666 28.179 54.3412C28.179 53.8157 27.753 53.3898 27.2276 53.3898H22.5735V47.2721H51.5989V53.3898H31.2822C30.7567 53.3898 30.3308 53.8157 30.3308 54.3412C30.3308 54.8666 30.7567 55.2926 31.2822 55.2926H61.5352C63.4458 55.2926 65 53.7384 65 51.8278V48.834C65 46.9235 63.4458 45.3693 61.5352 45.3693ZM20.6705 47.9266V52.7352L16.2806 50.3309L20.6705 47.9266ZM53.5016 47.2721H55.6842V53.3898H53.5016V47.2721ZM63.0972 51.8278C63.0972 52.689 62.3965 53.3898 61.5352 53.3898H57.587V47.2721H61.5352C62.3964 47.2721 63.0972 47.9727 63.0972 48.8341V51.8278Z" fill="#CC0444"/>
<path d="M48.6348 38.4521H19.2425C16.2583 38.4521 13.8304 40.8799 13.8304 43.8642V44.8425C13.8304 45.368 14.2564 45.7939 14.7818 45.7939C15.3073 45.7939 15.7333 45.368 15.7333 44.8425V43.8642C15.7333 41.9293 17.3074 40.355 19.2425 40.355H48.6348C51.4597 40.355 53.758 38.0567 53.758 35.2317C53.758 32.4068 51.4597 30.1085 48.6348 30.1085H39.4152C38.8896 30.1085 38.4638 30.5345 38.4638 31.0599C38.4638 31.5854 38.8896 32.0114 39.4152 32.0114H48.6348C50.4105 32.0114 51.8551 33.456 51.8551 35.2317C51.8551 37.0075 50.4105 38.4521 48.6348 38.4521Z" fill="#CC0444"/>
</g>
<defs>
<clipPath id="clip0_42_1140">
<rect width="65" height="65" fill="white"/>
</clipPath>
</defs>
</svg>
