<svg width="65" height="65" viewBox="0 0 65 65" fill="none" xmlns="http://www.w3.org/2000/svg">
<path d="M31.8586 33.1869V38.1635L37.4293 42.358L43.0002 38.1635V33.1869" stroke="#CC0444" stroke-width="2" stroke-miterlimit="10" stroke-linecap="round" stroke-linejoin="round"/>
<mask id="mask0_42_1081" style="mask-type:luminance" maskUnits="userSpaceOnUse" x="0" y="0" width="65" height="65">
<path d="M0 7.62939e-06H65V65H0V7.62939e-06Z" fill="white"/>
</mask>
<g mask="url(#mask0_42_1081)">
<path d="M27.8761 16.7263H25.9641C24.4989 16.7263 23.3112 17.914 23.3112 19.3792V21.3672C23.3112 22.8324 24.4989 24.0201 25.9641 24.0201H27.8761V16.7263Z" stroke="#CC0444" stroke-width="2" stroke-miterlimit="10" stroke-linecap="round" stroke-linejoin="round"/>
<path d="M46.9824 16.7263H48.8945C50.3597 16.7263 51.5475 17.914 51.5475 19.3792V21.3672C51.5475 22.8324 50.3597 24.0201 48.8945 24.0201H46.9824V16.7263Z" stroke="#CC0444" stroke-width="2" stroke-miterlimit="10" stroke-linecap="round" stroke-linejoin="round"/>
<path d="M41.5405 20.1979V21.4476" stroke="#CC0444" stroke-width="2" stroke-miterlimit="10" stroke-linecap="round" stroke-linejoin="round"/>
<path d="M33.3371 20.1979V21.4476" stroke="#CC0444" stroke-width="2" stroke-miterlimit="10" stroke-linecap="round" stroke-linejoin="round"/>
<path d="M39.8173 26.6251C39.8173 27.9439 38.7482 29.0131 37.4293 29.0131C36.1106 29.0131 35.0416 27.9439 35.0416 26.6251" stroke="#CC0444" stroke-width="2" stroke-miterlimit="10" stroke-linecap="round" stroke-linejoin="round"/>
<path d="M50.5895 14.1996V16.726H36.3085C34.2049 16.726 32.4999 15.0211 32.4999 12.9174V4.76062C32.4999 2.65701 34.2049 0.952028 36.3085 0.952028H42.7717C47.0895 0.952028 50.5895 4.45225 50.5895 8.7698V10.0496" stroke="#CC0444" stroke-width="2" stroke-miterlimit="10" stroke-linecap="round" stroke-linejoin="round"/>
<path d="M24.3101 16.7263H28.6915C30.7948 16.7263 32.5001 15.0211 32.5001 12.9177V4.89556H30.0229C26.8678 4.89556 24.3101 7.45328 24.3101 10.6084V16.7263Z" stroke="#CC0444" stroke-width="2" stroke-miterlimit="10" stroke-linecap="round" stroke-linejoin="round"/>
<path d="M59.1183 54.2547V64.0428H21.6556V54.1885L14.8991 62.3516C14.1934 63.4105 13.0038 64.0479 11.7304 64.0479H11.6618C9.55819 64.0479 7.85321 62.3429 7.85321 60.2393V56.1603H11.8651C12.9161 56.1603 13.7694 55.3084 13.7694 54.256V52.217L20.9917 42.8416C21.4259 42.2778 22.0085 41.8476 22.675 41.5975L31.8627 38.1634L37.4295 42.3579L42.9965 38.1634L55.4403 42.0837C57.6329 42.7984 59.1183 44.8423 59.1183 47.1517V50.1046" stroke="#CC0444" stroke-width="2" stroke-miterlimit="10" stroke-linecap="round" stroke-linejoin="round"/>
<path d="M51.2316 50.4573V64.0476" stroke="#CC0444" stroke-width="2" stroke-miterlimit="10" stroke-linecap="round" stroke-linejoin="round"/>
<path d="M7.78607 56.1608H11.8644C12.9161 56.1608 13.7687 55.3081 13.7687 54.2565V46.2346C13.7687 45.1829 12.9161 44.3303 11.8644 44.3303H7.78607C6.73439 44.3303 5.88177 45.1829 5.88177 46.2346V54.2565C5.88177 55.3081 6.73439 56.1608 7.78607 56.1608Z" stroke="#CC0444" stroke-width="2" stroke-miterlimit="10" stroke-linecap="round" stroke-linejoin="round"/>
<path d="M13.7687 48.2738H9.82532" stroke="#CC0444" stroke-width="2" stroke-miterlimit="10" stroke-linecap="round" stroke-linejoin="round"/>
<path d="M13.7687 52.2173H9.82532" stroke="#CC0444" stroke-width="2" stroke-miterlimit="10" stroke-linecap="round" stroke-linejoin="round"/>
<path d="M12.7827 55.9247V58.1324" stroke="#CC0444" stroke-width="2" stroke-miterlimit="10" stroke-linecap="round" stroke-linejoin="round"/>
<path d="M21.6556 54.1888V50.2454" stroke="#CC0444" stroke-width="2" stroke-miterlimit="10" stroke-linecap="round" stroke-linejoin="round"/>
<path d="M8.83929 44.3303H12.7827V40.1353C12.7827 39.0464 11.8999 38.1636 10.811 38.1636C9.722 38.1636 8.83929 39.0464 8.83929 40.1353V44.3303Z" stroke="#CC0444" stroke-width="2" stroke-miterlimit="10" stroke-linecap="round" stroke-linejoin="round"/>
<path d="M33.9332 60.1047H51.232V52.1802H21.6556V60.1047H29.7844" stroke="#CC0444" stroke-width="2" stroke-miterlimit="10" stroke-linecap="round" stroke-linejoin="round"/>
<path d="M8.83942 24.568L10.8111 26.5397L14.7547 22.5963" stroke="#CC0444" stroke-width="2" stroke-miterlimit="10" stroke-linecap="round" stroke-linejoin="round"/>
<path d="M15.8079 32.5H7.78601C6.73433 32.5 5.88171 31.6474 5.88171 30.5957V18.5405C5.88171 17.4887 6.73433 16.6362 7.78601 16.6362H15.8079C16.8596 16.6362 17.7122 17.4887 17.7122 18.5405V24.5681L21.6556 28.5566H17.7122V30.5957C17.7122 31.6474 16.8596 32.5 15.8079 32.5Z" stroke="#CC0444" stroke-width="2" stroke-miterlimit="10" stroke-linecap="round" stroke-linejoin="round"/>
<path d="M27.8762 16.7263V25.8098C27.8762 30.6834 31.8269 34.6343 36.7008 34.6343H38.1581C43.0319 34.6343 46.9826 30.6834 46.9826 25.8098V16.7263" stroke="#CC0444" stroke-width="2" stroke-miterlimit="10" stroke-linecap="round" stroke-linejoin="round"/>
</g>
</svg>
