<svg width="100" height="100" viewBox="0 0 100 100" fill="none" xmlns="http://www.w3.org/2000/svg">
<g clip-path="url(#clip0_142_22)">
<path d="M85 0H15C6.71573 0 0 6.71573 0 15V85C0 93.2843 6.71573 100 15 100H85C93.2843 100 100 93.2843 100 85V15C100 6.71573 93.2843 0 85 0Z" fill="#BD081B"/>
<path d="M51.7578 10.9375C30.4688 10.9375 19.7266 26.1719 19.7266 39.0625C19.7266 46.6797 22.6562 53.5156 28.9062 56.0547C29.8828 56.4453 30.8594 56.0547 31.25 55.0781L32.0312 51.3672C32.4219 50.1953 32.2266 49.8047 31.4453 48.8281C29.6875 46.6797 28.5156 43.9453 28.5156 40.0391C28.5156 28.7109 36.9141 18.5547 50.5859 18.5547C62.6953 18.5547 69.3359 25.9766 69.3359 35.7422C69.3359 48.8281 63.4766 59.5703 55.0781 59.5703C50.3906 59.5703 46.875 55.8594 48.0469 50.9766C49.2188 45.3125 51.9531 39.2578 51.9531 35.1563C51.9531 31.4453 50 28.3203 45.8984 28.3203C41.0156 28.3203 37.3047 33.3984 37.3047 40.0391C37.3047 44.1406 38.6719 47.0703 38.6719 47.0703L32.8125 71.4844C31.25 78.7109 32.6172 87.6953 32.8125 88.4766C32.8125 89.0625 33.5938 89.2578 33.7891 88.8672C34.1797 88.2813 40.0391 81.25 41.9922 74.2188L45.1172 61.7188C46.6797 64.8438 51.1719 67.3828 56.0547 67.3828C70.5078 67.3828 80.2734 54.2969 80.2734 36.7188C80.2734 23.2422 68.9453 10.9375 51.7578 10.9375Z" fill="white"/>
</g>
<defs>
<clipPath id="clip0_142_22">
<rect width="100" height="100" fill="white"/>
</clipPath>
</defs>
</svg>
