<svg width="100" height="100" viewBox="0 0 100 100" fill="none" xmlns="http://www.w3.org/2000/svg">
<g clip-path="url(#clip0_142_14)">
<path d="M27.8701 25.8065L63.983 74.0814H72.1605L36.0477 25.8065H27.8701Z" fill="black"/>
<path d="M79.9639 0.549438H19.9243C9.22324 0.549438 0.549561 9.22312 0.549561 19.9242V79.9649C0.549561 90.6648 9.22324 99.3385 19.9243 99.3385H79.965C90.6649 99.3385 99.3386 90.6648 99.3386 79.9638V19.9242C99.3386 9.22312 90.6649 0.549438 79.9639 0.549438ZM62.0534 77.9386L45.6127 55.9558L25.2644 77.9386H20.0341L43.2758 52.8308L20.18 21.9493H37.9807L53.1218 42.1945L71.861 21.9493H77.0913L55.4587 45.3206L79.8541 77.9386H62.0534Z" fill="black"/>
</g>
<defs>
<clipPath id="clip0_142_14">
<rect width="100" height="100" fill="white"/>
</clipPath>
</defs>
</svg>
