<svg width="143" height="100" viewBox="0 0 143 100" fill="none" xmlns="http://www.w3.org/2000/svg">
<g clip-path="url(#clip0_142_18)">
<path d="M94.8558 48.5432C81.7994 41.5674 69.2978 35.1542 56.5188 28.4584V68.5145C69.9662 61.2059 84.1402 54.5127 94.9113 48.5432H94.8558Z" fill="white"/>
<path d="M94.8558 48.5432C81.7994 41.5674 56.5188 28.4584 56.5188 28.4584L90.2245 51.108C90.2245 51.108 84.0847 54.5127 94.8558 48.5432Z" fill="#E8E0E0"/>
<path d="M58.9757 99.8701C31.8563 99.3709 22.5937 98.9218 16.9004 97.7491C13.0484 96.9699 9.70112 95.2398 7.24677 92.7305C5.34986 90.8314 3.84132 87.9338 2.67094 83.9137C1.66701 80.5644 1.276 77.7778 0.718557 70.971C-0.134786 55.6089 -0.338215 43.0493 0.718557 29.0157C1.59039 21.266 2.0131 12.0662 7.80421 6.69893C10.5386 4.187 13.7195 2.57049 17.2914 1.90223C22.8711 0.843048 46.6432 0.0057373 71.2528 0.0057373C95.8069 0.0057373 119.632 0.843048 125.217 1.90223C129.679 2.73954 133.864 5.24882 136.321 8.48448C141.605 16.7942 141.697 27.1272 142.234 35.2097C142.455 39.0608 142.455 60.9286 142.234 64.7797C141.399 77.5533 140.728 82.0726 138.831 86.7584C137.658 89.7167 136.656 91.2778 134.923 93.0078C132.205 95.6702 128.74 97.4411 124.99 98.0845C101.521 99.849 81.5933 100.232 58.9757 99.8701ZM94.9139 48.5433C81.8575 41.5675 69.3559 35.0988 56.5769 28.4029V68.4617C70.0243 61.1531 84.2009 54.4573 94.9694 48.4878L94.9139 48.5433Z" fill="#CD201F"/>
</g>
<defs>
<clipPath id="clip0_142_18">
<rect width="142.4" height="100" fill="white"/>
</clipPath>
</defs>
</svg>
