<?xml version="1.0" encoding="UTF-8"?>
<svg id="Layer_2" data-name="Layer 2" xmlns="http://www.w3.org/2000/svg" viewBox="0 0 55.12 63.62">
  <defs>
    <style>
      .cls-1 {
        fill: none;
        stroke: #0195ff;
        stroke-linecap: round;
        stroke-linejoin: round;
        stroke-width: 1.5px;
      }
    </style>
  </defs>
  <g id="Layer_1-2" data-name="Layer 1">
    <g id="g2523">
      <g id="g2525">
        <g id="g2527">
          <g id="g2533">
            <path id="path2535" class="cls-1" d="m12.33,19.31l1.09,1.5c.15.2.44.2.59,0l2.32-3.15"/>
          </g>
          <g id="g2537">
            <path id="path2539" class="cls-1" d="m12.33,34.69l1.09,1.5c.15.2.44.2.59,0l2.32-3.15"/>
          </g>
          <g id="g2541">
            <path id="path2543" class="cls-1" d="m12.33,49.41l1.09,1.5c.15.2.44.2.59,0l2.32-3.15"/>
          </g>
          <g id="g2545">
            <path id="path2547" class="cls-1" d="m24.06,17.36h11.59"/>
          </g>
          <g id="g2549">
            <path id="path2551" class="cls-1" d="m24.06,21.28h5.79"/>
          </g>
          <g id="g2553">
            <path id="path2555" class="cls-1" d="m24.06,32.41h7.78"/>
          </g>
          <g id="g2557">
            <path id="path2559" class="cls-1" d="m24.06,36.33h5.79"/>
          </g>
          <g id="g2561">
            <path id="path2563" class="cls-1" d="m47.89,23.43l-18.44,29.13"/>
          </g>
          <g id="g2565">
            <path id="path2567" class="cls-1" d="m32.69,9.61v-3.71c0-.89-.72-1.62-1.62-1.62h-2.69c-.37,0-.67-.3-.67-.67v-1.21c0-.91-.74-1.65-1.65-1.65h-6.45c-.91,0-1.65.74-1.65,1.65v1.21c0,.37-.3.67-.67.67h-2.69c-.89,0-1.62.72-1.62,1.62v3.71"/>
          </g>
          <g id="g2569">
            <path id="path2571" class="cls-1" d="m9.27,22.93v-7.22c0-.8.65-1.45,1.45-1.45h7.22c.8,0,1.45.65,1.45,1.45v7.22c0,.8-.65,1.45-1.45,1.45h-7.22c-.8,0-1.45-.65-1.45-1.45Z"/>
          </g>
          <g id="g2573">
            <path id="path2575" class="cls-1" d="m9.27,37.98v-7.22c0-.8.65-1.45,1.45-1.45h7.22c.8,0,1.45.65,1.45,1.45v7.22c0,.8-.65,1.45-1.45,1.45h-7.22c-.8,0-1.45-.65-1.45-1.45Z"/>
          </g>
          <g id="g2577">
            <path id="path2579" class="cls-1" d="m9.27,53.03v-7.22c0-.8.65-1.45,1.45-1.45h7.22c.8,0,1.45.65,1.45,1.45v7.22c0,.8-.65,1.45-1.45,1.45h-7.22c-.8,0-1.45-.65-1.45-1.45Z"/>
          </g>
          <g id="g2581">
            <path id="path2583" class="cls-1" d="m41.16,27.74V10.43c0-.45-.37-.82-.82-.82H5.32c-.45,0-.82.37-.82.82v47.87c0,.45.37.82.82.82h35.02c.45,0,.82-.37.82-.82v-17.97"/>
          </g>
          <g id="g2585">
            <path id="path2587" class="cls-1" d="m12.98,5.9s0-.02,0-.04H3.04c-1.27,0-2.29,1.03-2.29,2.29v52.42c0,1.27,1.03,2.29,2.29,2.29h39.57c1.27,0,2.3-1.03,2.3-2.29v-21.03"/>
          </g>
          <g id="g2589">
            <path id="path2591" class="cls-1" d="m44.91,16.28v-8.12c0-1.27-1.03-2.29-2.29-2.29h-9.94s0,.02,0,.04"/>
          </g>
          <g id="g2593">
            <path id="path2595" class="cls-1" d="m31.51,54.86c.62-.5,1.15-1.1,1.58-1.77l17.64-27.87"/>
          </g>
          <g id="g2597">
            <path id="path2599" class="cls-1" d="m28.86,47.19l-1.46,2.3c-.43.67-.74,1.41-.92,2.18"/>
          </g>
          <g id="g2601">
            <path id="path2603" class="cls-1" d="m45.04,21.62l-13.83,21.86"/>
          </g>
          <g id="g2605">
            <path id="path2607" class="cls-1" d="m52.62,22.23h0l1.37-2.16c.73-1.16.39-2.69-.77-3.43l-1.49-.94c-1.16-.73-2.7-.39-3.43.77l-1.36,2.16"/>
          </g>
          <g id="g2609">
            <path id="path2611" class="cls-1" d="m45.04,21.62l5.69,3.6,1.89-2.99-5.69-3.6-1.89,2.99Z"/>
          </g>
          <g id="g2613">
            <path id="path2615" class="cls-1" d="m31.51,54.86l-5.02,4.05c-.71.57-1.74-.08-1.52-.97l1.51-6.27c2.15.03,4.09,1.26,5.03,3.19Z"/>
          </g>
        </g>
      </g>
    </g>
  </g>
</svg>