<?xml version="1.0" encoding="UTF-8"?>
<svg id="Layer_2" data-name="Layer 2" xmlns="http://www.w3.org/2000/svg" viewBox="0 0 63.63 63.63">
  <defs>
    <style>
      .cls-1 {
        fill: none;
        stroke: #0195ff;
        stroke-linecap: round;
        stroke-linejoin: round;
        stroke-width: 1.5px;
      }
    </style>
  </defs>
  <g id="Layer_1-2" data-name="Layer 1">
    <g id="g2625">
      <g id="g2627">
        <g id="g2629">
          <g id="g2635">
            <path id="path2637" class="cls-1" d="m62.88,38.86v5.83h-15.53"/>
          </g>
          <g id="g2639">
            <path id="path2641" class="cls-1" d="m41.93,30.57h0c.68-2,2.56-3.43,4.79-3.43h11.11c2.79,0,5.05,2.26,5.05,5.05v2.3"/>
          </g>
          <g id="g2643">
            <path id="path2645" class="cls-1" d="m58.58,20.83c0,3.49-2.83,6.31-6.31,6.31s-6.31-2.83-6.31-6.31,2.83-6.31,6.31-6.31,6.31,2.83,6.31,6.31Z"/>
          </g>
          <g id="g2647">
            <path id="path2649" class="cls-1" d="m.75,38.86v5.83h15.53"/>
          </g>
          <g id="g2651">
            <path id="path2653" class="cls-1" d="m.75,34.49v-2.3c0-2.79,2.26-5.05,5.05-5.05h11.11c2.22,0,4.11,1.43,4.79,3.43h0"/>
          </g>
          <g id="g2655">
            <path id="path2657" class="cls-1" d="m17.67,20.83c0,3.49-2.83,6.31-6.31,6.31s-6.31-2.83-6.31-6.31,2.83-6.31,6.31-6.31,6.31,2.83,6.31,6.31Z"/>
          </g>
          <g id="g2659">
            <path id="path2661" class="cls-1" d="m39.14,13.38h2.02c1.12,0,2.02.9,2.02,2.02s-.9,2.02-2.02,2.02h-2.02"/>
          </g>
          <g id="g2663">
            <path id="path2665" class="cls-1" d="m24.66,29.69l.8,2.89c.49,1.77,2.64,2.44,4.05,1.27l2.3-1.91"/>
          </g>
          <g id="g2667">
            <path id="path2669" class="cls-1" d="m38.96,29.69l-.8,2.89c-.49,1.77-2.64,2.44-4.05,1.27l-2.3-1.91"/>
          </g>
          <g id="g2671">
            <path id="path2673" class="cls-1" d="m35.1,24.74v3.91c0,1.81-1.47,3.28-3.28,3.28s-3.28-1.47-3.28-3.28v-3.91"/>
          </g>
          <g id="g2675">
            <path id="path2677" class="cls-1" d="m24.49,13.38h-2.02c-1.12,0-2.02.9-2.02,2.02s.9,2.02,2.02,2.02h2.02"/>
          </g>
          <g id="g2679">
            <path id="path2681" class="cls-1" d="m24.49,13.38v4.8c0,4.04,3.28,7.32,7.32,7.32s7.32-3.28,7.32-7.32v-4.8"/>
          </g>
          <g id="g2683">
            <path id="path2685" class="cls-1" d="m23.73,44.69h-7.45v-5.97c0-4,2.69-7.5,6.55-8.54l5.7-1.53"/>
          </g>
          <g id="g2687">
            <path id="path2689" class="cls-1" d="m35.09,28.66l5.7,1.53c3.86,1.04,6.55,4.54,6.55,8.54v5.97h-7.45"/>
          </g>
          <g id="g2691">
            <path id="path2693" class="cls-1" d="m22.47,9.97v3.41h9.34c1.39,0,2.53-1.13,2.53-2.53,0,1.39,1.13,2.53,2.53,2.53h4.04v-3.41c0-5.09-4.13-9.22-9.22-9.22s-9.22,4.13-9.22,9.22Z"/>
          </g>
          <g id="g2695">
            <path id="path2697" class="cls-1" d="m21.14,54.16c1.01,4.97,5.4,8.71,10.67,8.71,6.01,0,10.89-4.88,10.89-10.89s-4.88-10.89-10.89-10.89c-5.27,0-9.66,3.74-10.67,8.71"/>
          </g>
          <g id="g2699">
            <path id="path2701" class="cls-1" d="m30.5,56.6c-.56,0-1.13-.22-1.56-.65l-2.21-2.21c-.86-.86-.86-2.26,0-3.12s2.26-.86,3.12,0l.65.65,3.26-3.26c.86-.86,2.26-.86,3.12,0s.86,2.26,0,3.12l-4.82,4.82c-.43.43-1,.65-1.56.65Z"/>
          </g>
        </g>
      </g>
    </g>
  </g>
</svg>