<?xml version="1.0" encoding="UTF-8"?>
<svg id="Layer_2" data-name="Layer 2" xmlns="http://www.w3.org/2000/svg" viewBox="0 0 78.57 64">
  <defs>
    <style>
      .cls-1 {
        fill: #0195ff;
      }
    </style>
  </defs>
  <g id="Layer_1-2" data-name="Layer 1">
    <g>
      <path class="cls-1" d="m8.3,60.34c-4.57,0-8.29-3.73-8.3-8.3V8.3C0,3.73,3.73,0,8.3,0h61.98c4.57,0,8.29,3.73,8.29,8.3v20.05c0,.54-.45.98-.99.99-.55,0-1.01-.45-1.01-.99v-12.75c0-.45-.37-.82-.82-.82H2.83c-.45,0-.82.37-.82.82v29.17c0,.45.37.82.82.82h27.35c.28,0,.54.11.73.3.19.19.29.44.29.71,0,.55-.46.99-1,.99h-1.84c-.45,0-.82.37-.82.82v9.11c0,.45.36.82.81.82.54,0,.99.45.99.99,0,.55-.44,1.01-.99,1.01H8.3Zm7.29-12.76c-.45,0-.82.37-.82.82v9.11c0,.45.37.82.82.82h9.12c.45,0,.82-.37.82-.82v-9.11c0-.45-.37-.82-.82-.82h-9.12Zm-12.76,0c-.45,0-.82.37-.82.82v3.65c0,3.46,2.82,6.29,6.29,6.29h3.65c.45,0,.82-.37.82-.82v-9.11c0-.45-.37-.82-.82-.82H2.83ZM66.63,2.01c-.45,0-.82.37-.82.82v9.12c0,.45.37.82.82.82h9.12c.45,0,.82-.37.82-.82v-3.65c0-3.47-2.82-6.29-6.29-6.29h-3.65Zm-12.76,0c-.45,0-.82.37-.82.82v9.12c0,.45.37.82.82.82h9.12c.45,0,.82-.37.82-.82V2.83c0-.45-.37-.82-.82-.82h-9.12Zm-12.76,0c-.45,0-.82.37-.82.82v9.12c0,.45.37.82.82.82h9.12c.45,0,.82-.37.82-.82V2.83c0-.45-.37-.82-.82-.82h-9.12Zm-12.76,0c-.45,0-.82.37-.82.82v9.12c0,.45.37.82.82.82h9.12c.45,0,.82-.37.82-.82V2.83c0-.45-.37-.82-.82-.82h-9.12Zm-12.76,0c-.45,0-.82.37-.82.82v9.12c0,.45.37.82.82.82h9.12c.45,0,.82-.37.82-.82V2.83c0-.45-.37-.82-.82-.82h-9.12Zm-7.29,0c-3.46,0-6.29,2.82-6.29,6.29v3.65c0,.45.37.82.82.82h9.12c.45,0,.82-.37.82-.82V2.83c0-.45-.37-.82-.82-.82h-3.65Z"/>
      <path class="cls-1" d="m43.32,64c-1.9,0-3.66-.76-4.97-2.13-1.27-1.33-1.95-3.07-1.9-4.91.04-1.84.8-3.55,2.12-4.82,1.29-1.23,2.97-1.91,4.75-1.91,1.9,0,3.66.76,4.98,2.13.15.16.37.25.59.25.15,0,.29-.04.41-.11l7.32-4.23c.25-.15.41-.42.41-.71s-.16-.56-.41-.71l-7.31-4.22c-.12-.07-.26-.11-.41-.11-.22,0-.44.09-.59.25-1.29,1.35-3.1,2.13-4.97,2.13-.64,0-1.28-.09-1.9-.27-3.63-1.05-5.73-4.85-4.69-8.48.84-2.92,3.55-4.96,6.58-4.96.64,0,1.28.09,1.9.27,3.63,1.05,5.73,4.85,4.69,8.48-.11.36.05.75.38.94l9.15,5.28c.12.07.27.11.41.11s.29-.04.41-.11l16.8-9.7c.15-.09.33-.13.5-.13.36,0,.69.19.87.5.28.48.11,1.09-.37,1.37l-14.98,8.65c-.25.15-.41.42-.41.71s.16.56.41.71l14.98,8.65c.48.28.64.89.37,1.37-.18.31-.51.5-.87.5-.18,0-.35-.05-.5-.13l-16.8-9.7c-.12-.07-.27-.11-.41-.11s-.29.04-.41.11l-9.15,5.28c-.33.19-.48.58-.38.94.72,2.48.02,5.12-1.85,6.91-1.29,1.23-2.97,1.91-4.75,1.91Zm.02-11.77c-.85,0-1.69.23-2.43.65-1.13.65-1.93,1.7-2.27,2.96-.34,1.26-.17,2.57.49,3.7.87,1.5,2.49,2.44,4.22,2.44.85,0,1.69-.23,2.43-.65,2.32-1.34,3.12-4.33,1.78-6.66-.87-1.5-2.49-2.44-4.22-2.44Zm0-19.07c-.42,0-.85.06-1.26.17-1.26.34-2.31,1.14-2.96,2.27-.65,1.13-.82,2.44-.49,3.7.57,2.13,2.5,3.61,4.71,3.61.42,0,.85-.06,1.26-.17,1.24-.33,2.32-1.16,2.96-2.27.65-1.13.82-2.44.49-3.7-.57-2.13-2.5-3.61-4.7-3.61Z"/>
    </g>
  </g>
</svg>