<?xml version="1.0" encoding="UTF-8"?>
<svg id="Layer_2" data-name="Layer 2" xmlns="http://www.w3.org/2000/svg" viewBox="0 0 64 64">
  <defs>
    <style>
      .cls-1 {
        fill: #0195ff;
      }
    </style>
  </defs>
  <g id="Layer_1-2" data-name="Layer 1">
    <g>
      <path class="cls-1" d="m32.71,32.21c-.24,0-.47-.09-.65-.27-.36-.36-.36-.94,0-1.29.17-.17.4-.27.65-.27s.47.1.65.27c.36.36.36.94,0,1.29-.17.17-.4.27-.65.27Z"/>
      <path class="cls-1" d="m45.21,24.75c-1.6,0-3.1-.62-4.22-1.75-2.33-2.33-2.33-6.12,0-8.44,1.13-1.13,2.63-1.75,4.22-1.75s3.09.62,4.22,1.75c1.13,1.13,1.75,2.63,1.75,4.22s-.62,3.09-1.75,4.22c-1.13,1.13-2.62,1.75-4.22,1.75h0Zm0-10.11c-1.11,0-2.14.43-2.93,1.21-.78.78-1.21,1.82-1.21,2.93s.43,2.15,1.21,2.93c.78.78,1.82,1.21,2.93,1.21s2.15-.43,2.93-1.21c.78-.78,1.21-1.82,1.21-2.93s-.43-2.14-1.21-2.93c-.78-.78-1.82-1.21-2.93-1.21Z"/>
      <path class="cls-1" d="m34.49,51.87c-.37,0-.7-.22-.85-.57-.14-.34-.06-.73.2-1,2.68-2.68,2.47-6.02,2.34-6.98-.01-.08-.04-.15-.1-.2l-.44-.44c-.07-.07-.16-.1-.25-.1-.05,0-.09,0-.14.03-2.06.86-4.11,1.56-6.09,2.07-.25.06-.51.1-.77.1-.41,0-.82-.08-1.22-.23-.04-.02-.08-.02-.13-.02-.13,0-.26.07-.32.2-.55,1.18-1.35,2.33-2.33,3.31-3.17,3.17-10.97,3.81-11.3,3.84h-.01c-.31,0-.54-.1-.71-.27-.19-.19-.29-.45-.26-.72.03-.33.68-8.14,3.84-11.3.98-.98,2.13-1.79,3.31-2.34.17-.08.25-.27.18-.44-.26-.65-.3-1.34-.14-1.98.51-1.98,1.21-4.03,2.07-6.09.06-.13.03-.28-.07-.38l-.44-.44c-.05-.05-.12-.09-.2-.1-.25-.03-.61-.07-1.06-.07-1.6,0-3.93.42-5.92,2.41-.17.17-.4.27-.65.27-.12,0-.24-.02-.35-.07-.34-.14-.57-.47-.57-.85,0-4.9,2.91-11.75,7.61-14.26,1.26-.67,2.6-1.02,3.98-1.02,1.7,0,3.45.52,5.2,1.56.06.03.12.05.18.05.1,0,.2-.04.27-.12.87-1.03,1.78-2.02,2.7-2.94,4.13-4.13,9.49-7.38,15.92-9.65C56.02.28,62.77.01,63.05,0h0c.28,0,.5.1.68.27.18.18.28.43.27.68-.01.28-.28,7.03-3.12,15.07-2.27,6.43-5.52,11.79-9.65,15.92-.93.92-1.91,1.83-2.94,2.7-.13.11-.16.3-.07.44,2.36,4.01,1.6,7.21.54,9.18-2.51,4.7-9.36,7.61-14.26,7.61Zm-13.74-13.22s-.08,0-.12.02c-1.19.44-2.36,1.2-3.36,2.21-1.98,1.98-2.85,6.66-3.13,8.59-.02.11.02.22.1.3.07.07.15.1.25.1.02,0,.03,0,.05,0,1.92-.28,6.6-1.14,8.59-3.13,1.01-1.01,1.77-2.17,2.21-3.36.05-.13.02-.27-.08-.37l-4.25-4.25c-.07-.07-.16-.1-.25-.1Zm25.77-2.49c-.08,0-.15.02-.21.07-2.67,2.03-5.56,3.8-8.59,5.27-.09.04-.15.12-.18.22-.03.1-.01.2.04.28.01.02.05.07.07.09.06.05.2.2.27.45.41,1.62.19,4.44-1.01,6.69-.06.12-.05.26.03.37.07.09.17.14.28.14.02,0,.05,0,.07,0,3.62-.75,8.07-3,9.86-6.34,1.16-2.17,1.06-4.55-.32-7.06-.05-.09-.13-.15-.23-.17-.02,0-.05,0-.07,0Zm-23.57-5.96c-.12.02-.21.1-.25.21-.65,1.65-1.18,3.29-1.59,4.87-.12.48.05,1.03.45,1.44l5.74,5.74c.31.31.72.49,1.12.49.11,0,.22-.01.32-.04,1.58-.41,3.22-.94,4.87-1.59.11-.04.19-.14.21-.25.02-.11-.01-.23-.1-.32l-10.45-10.45c-.07-.07-.15-.1-.25-.1-.02,0-.05,0-.07,0ZM47.96,5.1s-.08,0-.12.02c-5.84,2.16-10.72,5.17-14.49,8.95-1.15,1.15-2.26,2.39-3.3,3.67-2.49,3.09-4.61,6.51-6.29,10.15-.06.13-.03.29.07.39l11.88,11.88c.07.07.16.1.25.1.05,0,.1-.01.15-.03,3.64-1.68,7.05-3.8,10.15-6.29,1.29-1.03,2.52-2.14,3.67-3.29,3.77-3.77,6.78-8.65,8.95-14.49.05-.13.02-.27-.08-.37l-10.59-10.59c-.07-.07-.16-.1-.25-.1Zm-24.25,10.96c-1.07,0-2.12.27-3.11.8-3.34,1.79-5.59,6.24-6.33,9.86-.03.13.02.27.13.35.06.05.14.07.21.07.06,0,.11-.01.16-.04,1.83-.97,3.65-1.18,4.86-1.18,1.04,0,1.74.15,1.81.17.18.04.34.13.48.28.07.05.17.09.26.09.02,0,.04,0,.06,0,.1-.03.22-.06.26-.15,1.47-3.04,3.24-5.93,5.27-8.6.06-.08.08-.18.06-.28s-.08-.18-.17-.23c-1.35-.74-2.68-1.12-3.95-1.12ZM61.68,1.94c-2.08.2-6.3.76-11.16,2.27-.12.04-.21.13-.23.25-.03.12,0,.24.09.33l8.83,8.83c.07.07.15.1.25.1.03,0,.06,0,.08-.01.12-.03.21-.12.25-.23,1.51-4.86,2.07-9.07,2.27-11.16,0-.1-.03-.21-.1-.28-.07-.07-.15-.1-.25-.1-.01,0-.02,0-.03,0Z"/>
      <path class="cls-1" d="m25.56,57.23c-.24,0-.47-.1-.65-.27-.36-.36-.36-.94,0-1.29l3.57-3.57c.17-.17.4-.27.65-.27s.47.1.65.27c.36.36.36.94,0,1.29l-3.57,3.57c-.17.17-.4.27-.65.27Z"/>
      <path class="cls-1" d="m7.69,39.36c-.24,0-.47-.1-.65-.27-.36-.36-.36-.94,0-1.29l3.58-3.57c.17-.17.4-.27.65-.27s.47.1.65.27c.36.36.36.94,0,1.29l-3.57,3.57c-.17.17-.4.27-.65.27Z"/>
      <path class="cls-1" d="m11.64,64c-.24,0-.47-.1-.65-.27s-.27-.4-.27-.65.09-.47.27-.65l8.56-8.56c.17-.17.4-.27.65-.27s.47.1.65.27c.36.36.36.94,0,1.29l-8.56,8.56c-.17.17-.4.27-.65.27h0Z"/>
      <path class="cls-1" d="m1.53,64c-.24,0-.47-.1-.65-.27s-.27-.4-.27-.65.09-.47.27-.65l8.56-8.56c.17-.17.4-.27.65-.27s.47.1.65.27c.36.36.36.94,0,1.29l-8.56,8.56c-.17.17-.4.27-.65.27h0Z"/>
      <path class="cls-1" d="m.91,53.28c-.24,0-.47-.1-.65-.27-.36-.36-.36-.94,0-1.29l8.56-8.56c.17-.17.4-.27.65-.27s.47.1.65.27c.36.36.36.94,0,1.29L1.56,53.01c-.17.17-.4.27-.65.27Z"/>
      <path class="cls-1" d="m36.28,28.63c-.24,0-.47-.1-.65-.27-.36-.36-.36-.94,0-1.29l1.79-1.79c.17-.17.4-.27.65-.27s.47.1.65.27c.36.36.36.94,0,1.29l-1.79,1.79c-.17.17-.4.27-.65.27Z"/>
    </g>
  </g>
</svg>