<?xml version="1.0" encoding="UTF-8"?>
<svg id="Layer_2" data-name="Layer 2" xmlns="http://www.w3.org/2000/svg" viewBox="0 0 69.99 70">
  <defs>
    <style>
      .cls-1 {
        fill: #0195ff;
      }
    </style>
  </defs>
  <g id="Layer_1-2" data-name="Layer 1">
    <g>
      <path class="cls-1" d="m69.67,55.76l-15.09-15.09c.07-.06.15-.11.24-.16l4.02-2.14c2.14-1.12,2.99-3.75,1.92-5.92l-2-4.1c-.31-.63-.31-1.37,0-2.01l2-4.1c1.07-2.17.22-4.79-1.92-5.92l-4.03-2.14c-.62-.33-1.06-.93-1.18-1.62l-.79-4.49c-.41-2.38-2.64-4-5.03-3.66l-4.52.64c-.7.1-1.4-.13-1.91-.62l-3.28-3.17c-1.73-1.69-4.49-1.69-6.22,0l-3.28,3.17c-.51.49-1.21.72-1.91.62l-4.52-.64c-2.39-.35-4.62,1.28-5.03,3.66l-.79,4.49c-.12.7-.56,1.3-1.18,1.62l-4.02,2.14c-2.14,1.12-2.99,3.75-1.92,5.92l2,4.1c.31.63.31,1.37,0,2.01l-2.01,4.1c-1.07,2.17-.22,4.79,1.92,5.92l4.03,2.14c.08.05.16.1.23.16L.32,55.76c-.43.43-.43,1.12,0,1.55.15.15.33.25.53.29l9.39,2.17,2.17,9.39c.14.59.72.96,1.31.82.2-.05.38-.15.53-.29l16.93-16.93.71.69c1.73,1.69,4.49,1.69,6.22,0l.71-.69,16.94,16.94c.43.43,1.12.43,1.55,0,.15-.15.25-.33.29-.53l2.17-9.39,9.39-2.17c.59-.14.96-.72.82-1.31-.05-.2-.15-.38-.29-.53h0Zm-55.58,10.98l-1.88-8.13c-.09-.41-.41-.73-.82-.82l-8.13-1.88,13.2-13.2.69,3.91c.41,2.38,2.64,4,5.03,3.66l4.52-.64c.7-.1,1.4.13,1.91.62l1,.96-15.51,15.52Zm19.32-14.88l-1.47-1.42-1.81-1.75c-.83-.81-1.94-1.26-3.1-1.26-.21,0-.42.02-.64.04l-4.52.64c-1.22.18-2.36-.65-2.57-1.87l-.79-4.49c-.1-.51-.28-1-.55-1.45-.02-.05-.05-.1-.09-.15-.41-.66-.98-1.21-1.67-1.58l-4.03-2.14c-1.09-.57-1.53-1.92-.98-3.02l2-4.09c.61-1.24.61-2.69,0-3.93l-2-4.1c-.55-1.11-.11-2.45.98-3.02l4.03-2.14c1.22-.64,2.08-1.82,2.31-3.18l.79-4.49c.2-1.22,1.34-2.05,2.57-1.87l4.52.64c1.37.2,2.75-.25,3.74-1.22l3.28-3.17c.88-.86,2.29-.86,3.18,0l3.28,3.17c.99.96,2.37,1.41,3.73,1.22l4.52-.64c1.22-.18,2.37.65,2.57,1.87l.79,4.49c.23,1.36,1.09,2.53,2.31,3.18l4.03,2.14c1.09.57,1.53,1.92.98,3.02l-2.01,4.09c-.61,1.24-.61,2.69,0,3.93l2,4.1c.55,1.11.11,2.45-.98,3.02l-4.03,2.14c-1.22.64-2.08,1.82-2.31,3.18l-.79,4.49c-.21,1.22-1.34,2.05-2.57,1.87l-4.52-.64c-1.37-.2-2.75.25-3.74,1.22l-3.28,3.17c-.88.86-2.29.86-3.18,0h0Zm25.19,5.93c-.41.09-.73.41-.82.82l-1.88,8.13-15.52-15.52,1-.96c.51-.49,1.21-.72,1.91-.62l4.52.64c2.39.34,4.62-1.28,5.03-3.66l.69-3.91,13.2,13.2-8.13,1.88Z"/>
      <path class="cls-1" d="m51.4,27.35c0-3.93-1.41-7.73-3.97-10.7-.36-.48-1.05-.58-1.53-.22-.48.36-.58,1.05-.22,1.53.03.04.06.08.1.11,5.11,5.95,4.44,14.91-1.51,20.03-5.95,5.11-14.91,4.44-20.03-1.51s-4.44-14.91,1.51-20.03c4.84-4.16,11.85-4.58,17.16-1.03.49.35,1.17.24,1.53-.25.35-.49.24-1.17-.25-1.53-.02-.01-.03-.02-.05-.04-7.53-5.04-17.72-3.02-22.76,4.51-5.04,7.53-3.02,17.72,4.51,22.76,7.53,5.04,17.72,3.02,22.76-4.51,1.81-2.7,2.77-5.87,2.77-9.12Z"/>
      <path class="cls-1" d="m41.31,22.22l-8.52,8.97-4.08-4.65c-.37-.48-1.06-.56-1.54-.19-.48.37-.56,1.06-.19,1.54.03.03.05.06.08.09l4.87,5.55c.2.23.49.37.8.37h.02c.3,0,.59-.12.79-.34l9.35-9.84c.43-.42.43-1.12,0-1.55-.42-.43-1.12-.43-1.55,0-.02.02-.03.03-.05.05h0Z"/>
    </g>
  </g>
</svg>