<?xml version="1.0" encoding="UTF-8"?>
<svg id="Layer_2" data-name="Layer 2" xmlns="http://www.w3.org/2000/svg" viewBox="0 0 59.1 72">
  <defs>
    <style>
      .cls-1 {
        fill: none;
        stroke: #0195ff;
        stroke-linecap: round;
        stroke-linejoin: round;
        stroke-width: 2px;
      }
    </style>
  </defs>
  <g id="Layer_1-2" data-name="Layer 1">
    <g>
      <path class="cls-1" d="m51.76,31.63v8.75h2.12c2.33,0,4.22-1.95,4.22-4.37h0M37.54,1h14.22v8.75m0,41.62v19.63H1V9.75L9.46,1h23.63m18.67,45.77v-15.15"/>
      <path class="cls-1" d="m1,9.75h8.46V1m14.64,30.63h29.77c2.34,0,4.23,1.96,4.23,4.37V14.12c0-2.41-1.89-4.37-4.22-4.37H13.69v21.87h5.96"/>
      <path class="cls-1" d="m49.62,17.06c-.7-.49-1.52-.75-2.37-.75-2.34,0-4.23,1.96-4.23,4.37s1.89,4.37,4.23,4.37c.95,0,1.73-.32,2.32-.87.12-.11.24-.24.34-.37"/>
      <ellipse class="cls-1" cx="35.32" cy="20.69" rx="4.23" ry="4.37"/>
      <path class="cls-1" d="m23.39,25.06h-1.51v-8.75h1.51c2.34,0,4.23,1.96,4.23,4.37h0c0,2.42-1.89,4.37-4.23,4.37Zm-13.93,28.39h33.84m-33.84,4.37h33.84m-33.84,4.38h19.04m0-21.87h14.81m-14.81,4.37h14.81m-14.81,4.38h14.81m-29.61-8.75l1.65,8.62c.06.18.3.17.36,0l2.57-8.6m0-.02l2.57,8.62c.06.18.3.17.36,0l1.65-8.6"/>
    </g>
  </g>
</svg>