<?xml version="1.0" encoding="UTF-8"?>
<svg id="Layer_2" data-name="Layer 2" xmlns="http://www.w3.org/2000/svg" viewBox="0 0 70 70">
  <defs>
    <style>
      .cls-1 {
        fill: #0195ff;
      }
    </style>
  </defs>
  <g id="Layer_1-2" data-name="Layer 1">
    <g>
      <path class="cls-1" d="m61.18,8.82C55.5,3.13,47.94,0,39.9,0s-15.6,3.13-21.29,8.82c-.42.42-.82.84-1.21,1.28-.38.42-.34,1.07.08,1.45.42.38,1.07.34,1.45-.08,0,0,0,0,0,0,.37-.41.74-.81,1.13-1.2,5.3-5.3,12.34-8.22,19.83-8.22s14.54,2.92,19.83,8.22c10.94,10.94,10.94,28.73,0,39.67-5.3,5.3-12.34,8.22-19.83,8.22s-14.54-2.92-19.83-8.22c-4.61-4.61-7.48-10.71-8.09-17.18-.6-6.39,1.01-12.84,4.54-18.15.31-.48.17-1.11-.31-1.42-.47-.3-1.09-.17-1.4.28-3.79,5.7-5.52,12.62-4.87,19.48.5,5.3,2.42,10.38,5.5,14.68l-3.02,3.02c-.4-.4-1.05-.4-1.45,0L1.74,59.86c-2.32,2.32-2.32,6.09,0,8.4,1.16,1.16,2.68,1.74,4.2,1.74s3.04-.58,4.2-1.74l2.6-2.6c.4-.4.4-1.05,0-1.45-.4-.4-1.05-.4-1.45,0l-2.6,2.6c-.73.73-1.71,1.14-2.75,1.14s-2.01-.4-2.75-1.14-1.14-1.71-1.14-2.75.4-2.01,1.14-2.75l8.49-8.49,5.5,5.5-2.98,2.98c-.4.4-.4,1.05,0,1.45.4.4,1.05.4,1.45,0h0l3.7-3.7c.4-.4.4-1.05,0-1.45l3.01-3.01c5.08,3.65,11.15,5.62,17.53,5.62,8.04,0,15.6-3.13,21.29-8.82s8.82-13.25,8.82-21.29-3.13-15.6-8.82-21.29ZM17.9,56.14l-4.04-4.04,2.83-2.83c.61.74,1.25,1.44,1.92,2.12.68.67,1.38,1.32,2.12,1.93l-2.82,2.82Z"/>
      <path class="cls-1" d="m50.41,52.01c2.47-1.18,4.71-2.78,6.66-4.73,9.47-9.47,9.47-24.88,0-34.35-9.47-9.47-24.88-9.47-34.35,0-9.47,9.47-9.47,24.88,0,34.35,4.61,4.61,10.84,7.11,17.2,7.11,2.18,0,4.36-.29,6.46-.88.55-.15.86-.72.71-1.27-.15-.54-.71-.86-1.26-.71-7.71,2.13-16.01-.06-21.66-5.71-8.67-8.67-8.67-22.77,0-31.44,8.67-8.67,22.77-8.67,31.44,0,8.67,8.67,8.67,22.77,0,31.44-1.79,1.79-3.84,3.25-6.1,4.33-.51.25-.72.87-.47,1.38.25.5.85.71,1.36.48h0Z"/>
      <path class="cls-1" d="m41.13,25.42c.57,0,1.03-.46,1.03-1.03,0-.57-.46-1.03-1.03-1.03h-4.81c-.57,0-1.03.46-1.03,1.03h0v11.42c0,.57.46,1.03,1.03,1.03h4.81c.57,0,1.03-.46,1.03-1.03,0-.57-.46-1.03-1.03-1.03h-3.78v-3.65h3.43c.57,0,1.03-.46,1.03-1.03,0-.57-.46-1.03-1.03-1.03h-3.43v-3.65h3.78Zm-12.18,9.42c-1.26,0-2.48-.51-3.25-1.37-.38-.42-1.03-.45-1.45-.07,0,0,0,0,0,0-.42.38-.45,1.03-.07,1.45,0,0,0,0,0,0,1.16,1.28,2.95,2.05,4.78,2.05,2.19,0,4.1-1.44,4.44-3.34.39-2.2-1.34-3.67-3.09-4.32-1.48-.55-2.86-1.14-3.21-1.3-.37-.27-.55-.7-.48-1.17.08-.59.54-1.06,1.21-1.26,1.85-.56,3.52.78,3.55.81.44.36,1.09.29,1.45-.15.35-.43.29-1.06-.13-1.42-.1-.09-2.53-2.09-5.46-1.2-1.44.43-2.45,1.56-2.65,2.94-.18,1.28.37,2.52,1.45,3.22.05.03.09.06.14.08.07.03,1.64.73,3.42,1.39,1.27.47,1.92,1.21,1.77,2.03-.14.8-1.04,1.65-2.42,1.65h0Zm27.8-4.73c0-3.74-3.05-6.79-6.79-6.79s-6.79,3.05-6.79,6.79,3.05,6.79,6.79,6.79c3.74,0,6.79-3.05,6.79-6.79Zm-11.52,0c0-2.61,2.12-4.73,4.73-4.73s4.73,2.12,4.73,4.73-2.12,4.73-4.73,4.73-4.73-2.12-4.73-4.73Z"/>
    </g>
  </g>
</svg>