<?xml version="1.0" encoding="UTF-8"?>
<svg id="Layer_2" data-name="Layer 2" xmlns="http://www.w3.org/2000/svg" viewBox="0 0 70 70">
  <defs>
    <style>
      .cls-1 {
        fill: #0195ff;
      }
    </style>
  </defs>
  <g id="Layer_1-2" data-name="Layer 1">
    <path class="cls-1" d="m69.28,29.36l-5.06-1.95c-.4-1.53-.92-3.04-1.55-4.49-.25-.57-.92-.83-1.49-.58-.05.02-.09.05-.14.07l-5.58,3.43c-.47.29-.66.86-.46,1.37.97,2.48,1.46,5.1,1.46,7.78,0,11.83-9.62,21.45-21.45,21.45s-21.45-9.62-21.45-21.45c0-2.69.49-5.3,1.46-7.78.2-.51,0-1.09-.46-1.37l-5.58-3.43c-.53-.33-1.23-.16-1.55.37-.03.04-.05.09-.07.14-.63,1.45-1.15,2.95-1.55,4.49l-5.06,1.95C.29,29.53,0,29.95,0,30.42v9.17c0,.47.29.89.72,1.05l5.06,1.95c.7,2.7,1.78,5.3,3.19,7.7l-2.2,4.96c-.19.43-.1.93.23,1.26l6.48,6.48c.33.33.83.42,1.26.23l4.96-2.2c2.41,1.42,5,2.49,7.7,3.19l1.95,5.06c.17.44.59.72,1.05.72h9.17c.47,0,.89-.29,1.05-.72l1.95-5.06c2.7-.7,5.3-1.78,7.7-3.19l4.96,2.2c.43.19.93.1,1.26-.23l6.48-6.48c.33-.33.42-.83.23-1.26l-2.2-4.96c1.42-2.41,2.49-5,3.19-7.7l5.06-1.95c.44-.17.72-.59.72-1.05v-9.17c0-.47-.29-.89-.72-1.05h0Zm-1.53,9.45l-4.89,1.88c-.35.13-.61.43-.69.79-.68,2.87-1.82,5.62-3.37,8.13-.2.32-.22.71-.07,1.05l2.13,4.79-5.39,5.39-4.79-2.13c-.34-.15-.73-.12-1.05.07-2.51,1.55-5.26,2.69-8.14,3.37-.36.09-.66.35-.79.69l-1.88,4.89h-7.62l-1.88-4.89c-.13-.35-.43-.61-.79-.69-2.87-.68-5.62-1.82-8.13-3.37-.32-.2-.71-.22-1.05-.07l-4.79,2.13-5.39-5.39,2.13-4.79c.15-.34.12-.73-.07-1.05-1.55-2.52-2.69-5.26-3.37-8.14-.09-.36-.35-.66-.69-.79l-4.89-1.88v-7.62l4.89-1.88c.35-.13.61-.43.69-.79.28-1.18.64-2.35,1.08-3.48l3.66,2.25c-.85,2.48-1.28,5.07-1.28,7.72,0,13.07,10.64,23.71,23.71,23.71s23.71-10.64,23.71-23.71c0-2.65-.43-5.24-1.28-7.72l3.66-2.25c.43,1.14.79,2.3,1.08,3.48.09.36.35.66.69.79l4.89,1.88v7.62Zm-47.16,7.01c-.07.62.38,1.18,1,1.24.04,0,.08,0,.12,0h26.6c.62,0,1.13-.51,1.13-1.13,0-.04,0-.08,0-.12-.62-5.78-4.55-10.44-9.79-12.19,1.97-1.44,3.26-3.76,3.26-6.39,0-4.35-3.54-7.89-7.89-7.89s-7.89,3.54-7.89,7.89c0,2.62,1.29,4.95,3.26,6.39-5.24,1.76-9.17,6.42-9.79,12.19h0Zm8.79-18.58c0-3.11,2.53-5.63,5.63-5.63s5.63,2.53,5.63,5.63-2.53,5.63-5.63,5.63h0c-3.1,0-5.63-2.53-5.63-5.63h0Zm5.63,7.89h0c5.85,0,10.79,4.08,11.97,9.68h-23.96c1.19-5.6,6.13-9.68,11.98-9.68h0ZM26.75,7.97l3.45,2.77-1.16,4.27c-.16.6.06,1.23.56,1.6.51.37,1.17.38,1.7.04l3.7-2.42,3.7,2.42c.24.16.53.25.82.25.31,0,.61-.1.88-.29.51-.37.73-1,.56-1.6l-1.16-4.27,3.45-2.77c.49-.39.68-1.03.48-1.63s-.72-1-1.35-1.03l-4.42-.22-1.57-4.14c-.22-.58-.77-.96-1.4-.96s-1.17.38-1.4.96l-1.57,4.14-4.42.22c-.63.03-1.15.43-1.35,1.03s0,1.23.48,1.63h0Zm5.89-.64c.59-.03,1.11-.41,1.32-.96l1.03-2.72,1.03,2.72c.21.56.73.93,1.32.96l2.91.14-2.27,1.82c-.46.37-.66.98-.51,1.56l.76,2.81-2.44-1.59c-.5-.33-1.14-.33-1.64,0l-2.44,1.59.76-2.81c.16-.57-.04-1.18-.51-1.56l-2.27-1.82,2.91-.14Zm12.71,12.08l4.33.9.9,4.33c.13.61.61,1.07,1.23,1.17.08.01.16.02.24.02.53,0,1.02-.28,1.29-.75l2.2-3.84,4.4.48c.62.07,1.21-.25,1.49-.81.28-.56.2-1.22-.22-1.68l-2.97-3.28,1.81-4.04c.26-.57.14-1.22-.31-1.67-.44-.44-1.1-.56-1.67-.31l-4.04,1.81-3.28-2.97c-.46-.42-1.12-.51-1.68-.22-.56.28-.87.87-.81,1.49l.48,4.4-3.84,2.2c-.54.31-.83.91-.73,1.53.1.62.56,1.1,1.17,1.23h0Zm4.96-3.25c.52-.3.81-.87.74-1.46l-.31-2.89,2.16,1.96c.44.4,1.07.5,1.62.26l2.66-1.19-1.19,2.66c-.24.54-.14,1.18.26,1.61l1.96,2.16-2.89-.31c-.59-.07-1.16.23-1.46.74l-1.45,2.53-.59-2.85c-.12-.58-.58-1.04-1.16-1.16l-2.85-.59,2.53-1.45Zm-40.26,5.56l4.4-.48,2.2,3.84c.27.47.76.75,1.29.75.08,0,.16,0,.24-.02.62-.1,1.1-.56,1.23-1.17l.9-4.33,4.33-.9c.61-.13,1.07-.61,1.17-1.23s-.19-1.22-.73-1.53l-3.84-2.2.48-4.4c.07-.62-.25-1.21-.81-1.49s-1.22-.2-1.68.22l-3.28,2.97-4.04-1.81c-.57-.26-1.22-.14-1.67.31-.44.44-.56,1.1-.31,1.67l1.81,4.04-2.97,3.28c-.42.46-.51,1.12-.22,1.68.28.56.87.87,1.49.81h0Zm3.71-4.62c.4-.44.5-1.07.26-1.62l-1.19-2.66,2.66,1.19c.54.24,1.18.14,1.62-.26l2.16-1.96-.31,2.89c-.06.59.23,1.16.74,1.46l2.53,1.45-2.85.59c-.58.12-1.04.58-1.16,1.16l-.59,2.85-1.45-2.53c-.3-.52-.87-.81-1.46-.74l-2.89.31,1.96-2.16Z"/>
  </g>
</svg>