<?xml version="1.0" encoding="UTF-8"?>
<svg id="Layer_2" data-name="Layer 2" xmlns="http://www.w3.org/2000/svg" viewBox="0 0 80.96 70">
  <defs>
    <style>
      .cls-1 {
        fill: #0195ff;
      }
    </style>
  </defs>
  <g id="Layer_1-2" data-name="Layer 1">
    <path class="cls-1" d="m75.48,22.41l.98-.98c1.08-1.08,1.08-2.83,0-3.91l-3.49-3.49c-1.08-1.08-2.83-1.08-3.91,0l-.98.98c-3.55-2.5-7.67-4.25-12.11-5.03v-2.74h2.72c1.53,0,2.77-1.24,2.77-2.77v-1.7c0-1.53-1.24-2.77-2.77-2.77h-15.92c-1.53,0-2.77,1.24-2.77,2.77v1.7c0,1.53,1.24,2.77,2.77,2.77h2.72v2.74c-4.44.78-8.56,2.53-12.11,5.03l-.98-.98c-1.08-1.08-2.83-1.08-3.91,0l-3.49,3.49c-1.08,1.08-1.08,2.83,0,3.91l.98.98c-3.45,4.91-5.49,10.9-5.49,17.35,0,16.67,13.57,30.24,30.24,30.24s30.24-13.57,30.24-30.24c0-6.45-2.03-12.43-5.49-17.35Zm-4.8-6.77c.18-.18.48-.18.67,0l3.49,3.49c.18.18.18.48,0,.67l-.76.76c-1.25-1.52-2.64-2.91-4.16-4.16l.76-.76Zm-28.39-11.18v-1.7c0-.26.21-.47.47-.47h15.92c.26,0,.47.21.47.47v1.7c0,.26-.21.47-.47.47h-15.92c-.26,0-.47-.21-.47-.47Zm5.49,2.77h5.88v2.43c-.97-.09-1.95-.14-2.94-.14s-1.97.05-2.94.14v-2.43Zm-21.17,12.57c-.18-.18-.18-.48,0-.67l3.49-3.49c.18-.18.48-.18.67,0l.76.76c-1.52,1.25-2.91,2.64-4.16,4.16l-.76-.76Zm24.12,47.9c-15.41,0-27.95-12.54-27.95-27.95s12.54-27.95,27.95-27.95,27.95,12.54,27.95,27.95-12.54,27.95-27.95,27.95h0Zm0-51.77c-13.13,0-23.82,10.69-23.82,23.82s10.69,23.82,23.82,23.82,23.82-10.69,23.82-23.82-10.69-23.82-23.82-23.82h0Zm0,45.35c-11.87,0-21.53-9.66-21.53-21.53s9.66-21.53,21.53-21.53,21.53,9.66,21.53,21.53-9.66,21.53-21.53,21.53Zm10.68-37.73l-1.63,2.81c-.32.55-1.02.74-1.57.42h0c-.55-.32-.74-1.02-.42-1.57l1.63-2.81c.31-.55,1.01-.74,1.56-.43s.74,1.01.43,1.56c0,0,0,0,0,.01h0Zm2.29,8.72c-.32-.55-.13-1.25.42-1.57l2.81-1.63c.55-.32,1.25-.14,1.57.41.32.55.14,1.25-.41,1.57,0,0,0,0-.01,0l-2.81,1.63c-.55.32-1.25.13-1.57-.42,0,0,0,0,0,0h0Zm7.55,7.49c0,.63-.51,1.15-1.15,1.15h-3.25c-.63,0-1.15-.51-1.15-1.15s.51-1.15,1.15-1.15h3.25c.63,0,1.15.51,1.15,1.15h0Zm-2.75,10.26c-.32.55-1.02.74-1.57.42h0s-2.81-1.63-2.81-1.63c-.55-.31-.74-1.01-.43-1.56.31-.55,1.01-.74,1.56-.43,0,0,0,0,.01,0l2.81,1.63c.55.32.74,1.02.42,1.57,0,0,0,0,0,0h0Zm-7.09,5.94c.32.55.14,1.25-.41,1.57-.55.32-1.25.14-1.57-.41,0,0,0,0,0-.01l-1.63-2.82c-.32-.55-.14-1.25.41-1.57.55-.32,1.25-.14,1.57.41,0,0,0,0,0,.01l1.63,2.82Zm-9.53-.08v3.25c0,.63-.51,1.15-1.15,1.15s-1.15-.51-1.15-1.15v-3.25c0-.63.51-1.15,1.15-1.15s1.15.51,1.15,1.15h0Zm-8.22-1.59l-1.63,2.82c-.32.55-1.02.74-1.57.42,0,0,0,0,0,0-.55-.32-.74-1.02-.42-1.57l1.63-2.82c.32-.55,1.02-.74,1.57-.42s.74,1.02.42,1.57h0Zm-5.9-7.05c.32.55.13,1.25-.42,1.57l-2.81,1.63c-.55.32-1.25.13-1.57-.42,0,0,0,0,0,0-.32-.55-.13-1.25.42-1.57l2.81-1.63c.55-.32,1.25-.13,1.57.42Zm-3.15-6.34h-3.25c-.63,0-1.15-.51-1.15-1.15s.51-1.15,1.15-1.15h3.25c.63,0,1.15.51,1.15,1.15s-.51,1.15-1.15,1.15Zm3.15-8.63c-.32.55-1.02.74-1.57.42,0,0,0,0,0,0l-2.81-1.63c-.55-.31-.74-1.01-.43-1.56s1.01-.74,1.56-.43c0,0,0,0,.01,0l2.81,1.63c.55.32.74,1.02.42,1.57Zm5.9-7.05c.32.55.14,1.25-.41,1.57-.55.32-1.25.14-1.57-.41,0,0,0,0,0-.01l-1.63-2.81c-.32-.55-.14-1.25.41-1.57s1.25-.14,1.57.41c0,0,0,0,0,.01l1.63,2.81Zm8.22,11.48v-8.63c0-.63-.51-1.15-1.15-1.15s-1.15.51-1.15,1.15v8.63c-1.24.47-2.12,1.66-2.12,3.06,0,1.8,1.47,3.27,3.27,3.27s3.27-1.47,3.27-3.27c0-1.4-.88-2.59-2.12-3.06Zm-1.15,4.03c-.54,0-.97-.44-.97-.97s.44-.97.97-.97.97.44.97.97-.44.97-.97.97Zm-1.15-17.1v-3.25c0-.63.51-1.15,1.15-1.15s1.15.51,1.15,1.15v3.25c0,.63-.51,1.15-1.15,1.15s-1.15-.51-1.15-1.15ZM4.28,36.06c0-.63.51-1.15,1.15-1.15h10.8c.63,0,1.15.51,1.15,1.15s-.51,1.15-1.15,1.15H5.43c-.63,0-1.15-.51-1.15-1.15Zm14.78-7.41c0,.63-.51,1.15-1.15,1.15h-9.42c-.63,0-1.15-.51-1.15-1.15s.51-1.15,1.15-1.15h9.42c.63,0,1.15.51,1.15,1.15h0Zm-2.77,15.96H1.15c-.63,0-1.15-.51-1.15-1.15s.51-1.15,1.15-1.15h15.15c.63,0,1.15.51,1.15,1.15s-.51,1.15-1.15,1.15Zm2.77,6.26c0,.63-.51,1.15-1.15,1.15H7.87c-.63,0-1.15-.51-1.15-1.15s.51-1.15,1.15-1.15h10.05c.63,0,1.15.51,1.15,1.15,0,0,0,0,0,0Z"/>
  </g>
</svg>