<?xml version="1.0" encoding="UTF-8"?>
<svg id="Layer_2" data-name="Layer 2" xmlns="http://www.w3.org/2000/svg" viewBox="0 0 82.59 70">
  <defs>
    <style>
      .cls-1 {
        fill: #0195ff;
      }
    </style>
  </defs>
  <g id="Layer_1-2" data-name="Layer 1">
    <path class="cls-1" d="m82.2,31.77c-.25-.25-.59-.39-.94-.39h-16.41c-6.23,0-7.06-.62-11.06-3.59-.85-.63-1.82-1.35-3-2.19-2.74-1.94-5.7-3.37-8.82-4.28l5.51-9.54c.94-1.64,1.19-3.55.7-5.38-.49-1.83-1.66-3.36-3.3-4.3l-1.99-1.15c-3.39-1.95-7.73-.79-9.68,2.59l-11.19,19.38c-1.41.66-2.78,1.44-4.07,2.31l-6.88,4.63c-2.63,1.77-4.42,3.95-5.65,6.87L.41,48.65c-.61,1.45-.53,3.22.22,4.85.67,1.47,1.82,2.67,3.17,3.37v11.8c0,.74.6,1.33,1.33,1.33.23,0,.46-.06.67-.18l11.96-6.91c.2-.12.37-.29.49-.49l1.45-2.51c.41,2.64,2.7,4.66,5.45,4.66,1.67,0,3.18-.75,4.19-1.93.09.11.19.21.29.31,1.04,1.04,2.43,1.62,3.9,1.62,1.71,0,3.32-.82,4.35-2.14,2.89,1.67,6.15,2.78,10.61,2.78h.04l32.73-.02c.74,0,1.33-.6,1.33-1.33v-31.16c0-.35-.14-.69-.39-.94ZM35.52,4.87c1.22-2.11,3.93-2.84,6.04-1.62l1.99,1.15c1.02.59,1.75,1.54,2.06,2.69s.15,2.34-.44,3.36l-16.86,29.2-.25-.13c-3.01-1.56-6.12-3.16-10.07-4.31L35.52,4.87ZM2.86,49.68l5.02-11.91c1.02-2.42,2.51-4.23,4.69-5.7l6.83-4.6-4.3,7.44c-.97.11-1.9.41-2.74.9-1.62.93-2.77,2.44-3.25,4.23-.43,1.6-.26,3.22.36,4.63l-5.33,9.23c-.45-.41-.83-.92-1.1-1.5-.44-.96-.51-1.94-.19-2.71Zm3.6,7.48l7.97,4.6-7.97,4.6v-9.2Zm10.14,2.78l-9.66-5.57,4.23-7.33c.81.74,1.79,1.27,2.85,1.55,2.89.81,5.35,1.77,7.51,2.81l-4.93,8.55Zm8.54,1.98c-1.57,0-2.85-1.28-2.85-2.85v-3.64l1.61-2.8c1.5.84,2.85,1.72,4.1,2.6v3.6s0,.08,0,.12c0,.04,0,.08,0,.12,0,1.57-1.28,2.85-2.85,2.85h0Zm8.37,0c-.76,0-1.47-.3-2.02-.84s-.84-1.26-.84-2.02c0-.04,0-.08,0-.12,0-.04,0-.08,0-.12v-1.62c.46.35.9.71,1.35,1.05,1.22.96,2.4,1.88,3.6,2.73-.53.58-1.29.93-2.1.93Zm15,.64h-.04c-6.69,0-10.29-2.82-14.83-6.39-4.49-3.53-9.58-7.53-18.91-10.15h-.02c-1.1-.3-2.03-1.02-2.61-2.02-.58-1.01-.74-2.16-.44-3.27.3-1.11,1.01-2.03,2.01-2.61,1-.58,2.16-.73,3.26-.44,3.84,1.08,6.92,2.67,9.9,4.21,4.42,2.28,8.99,4.64,15.82,5.17.73.06,1.37-.49,1.43-1.23.06-.73-.49-1.37-1.23-1.43-5.03-.39-8.68-1.83-12.17-3.55l9.9-17.15c3.07.81,5.97,2.17,8.65,4.07,1.15.82,2.11,1.52,2.95,2.15,3.93,2.92,5.33,3.95,11.11,4.1v28.51l-14.78.02Zm31.4-.02h-13.95v-28.49h13.95v28.49Z"/>
  </g>
</svg>