<?xml version="1.0" encoding="UTF-8"?>
<svg id="Layer_2" data-name="Layer 2" xmlns="http://www.w3.org/2000/svg" viewBox="0 0 70.29 70">
  <defs>
    <style>
      .cls-1 {
        fill: #0195ff;
      }
    </style>
  </defs>
  <g id="Layer_1-2" data-name="Layer 1">
    <g>
      <path class="cls-1" d="m33.12,51.87c-.53-.39-1.27-.27-1.66.25l-.15.2c-.39.53-.28,1.27.25,1.66.2.15.45.23.7.23.38,0,.73-.18.96-.48l.15-.2c.39-.53.27-1.27-.25-1.66h0Z"/>
      <path class="cls-1" d="m33.43,63.17l-3.06-5.56,2.85-3.89c.39-.53.27-1.27-.25-1.66,0,0,0,0,0,0-.53-.39-1.27-.27-1.66.25,0,0,0,0,0,0l-3.3,4.5c-.27.37-.31.87-.08,1.28l3.42,6.22h0c.32.57,1.04.78,1.61.47.57-.32.78-1.04.47-1.61,0,0,0,0,0,0h0Zm8.86-6.35l-3.29-4.48c-.39-.53-1.14-.63-1.66-.24-.52.39-.63,1.12-.25,1.65l2.84,3.87-3.04,5.52c-.32.58-.11,1.3.47,1.61.58.32,1.3.11,1.61-.47l3.4-6.18c.22-.41.19-.9-.08-1.28h0Zm1.88-18.67c-.39-.21-.86-.18-1.23.07-.71.49-1.36,1-1.95,1.53-3.2,2.89-6.24,2.5-6.36,2.48-.07-.01-.14-.02-.22-.01-1.26.03-3.54-1.12-5.95-3.02-.36-.29-.74-.56-1.12-.82-.54-.37-1.28-.22-1.65.32-.13.2-.2.43-.2.67v4.08c0,.41.21.78.55,1l8.43,5.63s0,0,0,0h.02c.19.14.42.21.66.21.24,0,.47-.07.67-.21h.01s0-.01.01-.02l8.41-5.62c.35-.22.56-.6.56-1.01v-4.25c0-.44-.24-.85-.64-1.05h0Zm-1.74,4.66l-7.28,4.87-7.28-4.87v-1.08c1.77,1.29,4.38,2.87,6.51,2.87h.01c.71.08,4.35.29,8.04-2.94v1.15h0Z"/>
      <path class="cls-1" d="m36.32,48.91c-.11-.65-.72-1.08-1.37-.98-.31.05-.58.22-.76.47l-2.73,3.72c-.39.53-.27,1.27.25,1.66,0,0,0,0,0,0,.2.15.45.23.7.23.38,0,.74-.18.96-.49l2.72-3.7c.2-.26.28-.59.23-.92h0ZM53.25,10.6c-.02-.19-.58-4.2-4.36-5.79.11-.71.1-1.61-.35-2.49-.6-1.19-1.79-1.96-3.53-2.3C44.93,0,44.85,0,44.78,0h-15.95C22.35,0,17.08,5.27,17.08,11.75v6.26c0,1.63.56,3.22,1.56,4.48.5.62,1.12,1.71,1.21,3.36.04.64.58,1.14,1.22,1.12.64-.02,1.15-.54,1.15-1.19v-8.16c.81-3.34,3.56-3.99,4.03-4.07h5.16c.61,0,1.2-.09,1.77-.28.98-.31,2.54-.89,3.67-1.32.76-.29,1.6-.3,2.36-.03l5.52,1.94c2.76,1.02,3.25,3.44,3.32,3.82v9.79c0,.66.53,1.19,1.19,1.19,0,0,0,0,0,0,.59,0,1.09-.43,1.17-1.01,0-.03.48-3.1,2.01-5.55.53-.85.81-1.83.81-2.82v-8.52c0-.05,0-.1,0-.15h0Zm-2.37,8.67c0,.53-.15,1.06-.43,1.53v-3.21s0-.09,0-.13c-.02-.17-.51-4.25-4.87-5.85h-.02s-5.53-1.95-5.53-1.95c-.62-.22-1.27-.33-1.93-.33-.7,0-1.4.13-2.07.38-1.59.6-2.81,1.05-3.55,1.28-.34.11-.69.16-1.05.16h-5.26c-.05,0-.1,0-.15,0-.2.03-4.94.7-6.13,6.05-.02.08-.03.17-.03.26v2.45c-.26-.6-.4-1.26-.4-1.92v-6.26c0-5.17,4.2-9.37,9.37-9.37h15.83c.66.14,1.45.43,1.75,1.01.37.71-.05,1.7-.05,1.7-.28.59-.02,1.3.57,1.58.07.03.15.06.23.08,3.03.73,3.64,3.63,3.72,4.1v8.43h0Z"/>
      <path class="cls-1" d="m50.44,17.46c-.02-.17-.51-4.25-4.87-5.85h-.02s-5.53-1.95-5.53-1.95c-1.3-.45-2.71-.44-3.99.05-1.59.6-2.81,1.05-3.55,1.28-.34.11-.69.16-1.05.16h-5.26c-.05,0-.1,0-.15,0-.2.03-4.94.7-6.13,6.05-.02.08-.03.17-.03.26v10.24c0,.35.26,8.74,6.05,12.57l.03.02s.05.04.08.05c.34.23.67.47.99.72,1.69,1.32,4.87,3.52,7.37,3.52h.01c.14.01.38.04.71.04,1.42,0,4.45-.37,7.49-3.12.51-.46,1.08-.91,1.7-1.34l.09-.06s.06-.04.09-.06c1.93-1.3,5.28-4.64,5.98-12.49,0-.04,0-.07,0-.11v-9.87s0-.09,0-.13h0Zm-2.37,9.95c-.65,7.08-3.66,9.82-4.93,10.67-.05.03-.09.06-.13.09l-.07.05c-.71.49-1.36,1-1.95,1.53-3.19,2.88-6.21,2.5-6.36,2.48-.07-.01-.14-.01-.21-.01-1.26.03-3.54-1.12-5.95-3.02-.37-.29-.75-.57-1.12-.82l-.03-.02s-.06-.04-.09-.06c-4.67-3.09-4.98-10.33-4.99-10.63v-10.06c.81-3.35,3.58-3.99,4.03-4.07h5.16c.61,0,1.2-.09,1.77-.28.98-.31,2.54-.89,3.67-1.32.76-.29,1.6-.3,2.36-.03l5.52,1.94c2.76,1.02,3.25,3.44,3.32,3.82v9.74h0Zm-11.86,21.17c-.19-.37-.55-.62-.96-.65-.41-.03-.81.15-1.06.48l-2.85,3.88c-.39.53-.27,1.27.25,1.66.2.15.45.23.7.23.38,0,.73-.18.96-.48l2.85-3.86c.15-.2.23-.47.23-.72,0-.18-.04-.37-.13-.53h0Zm.08,19.13c-.45-.47-1.18-.49-1.66-.06l-.27.25c-.41.37-.5.97-.24,1.46h0c.32.59,1.04.79,1.62.47.1-.05.18-.12.26-.2l.26-.26c.46-.46.46-1.19.02-1.66Z"/>
      <path class="cls-1" d="m35.94,67.9l-.27-.25c-.48-.44-1.24-.41-1.68.08-.43.47-.41,1.19.04,1.64l.26.26c.46.46,1.22.46,1.68,0,.08-.08.15-.17.2-.27h0c.26-.5.16-1.09-.24-1.46Z"/>
      <path class="cls-1" d="m35.96,67.92h0c-.46-.43-1.16-.43-1.62,0h0c-.48.45-.52,1.2-.08,1.68.01.01.03.03.04.04h.01c.22.23.52.36.84.36.32,0,.62-.12.84-.35h.01c.23-.24.36-.56.35-.88,0-.32-.15-.63-.39-.85h0Zm-.43-19.96c-.49-.16-1.03.03-1.33.45-.34.47-.28,1.12.13,1.53.22.22.53.35.84.35.24,0,.48-.07.69-.22.32-.22.5-.59.5-.97h0c0-.52-.34-.98-.83-1.13Z"/>
      <path class="cls-1" d="m36.11,48.39h-.01c-.39-.54-1.13-.65-1.66-.26-.3.22-.48.58-.48.96v.02c0,.44.25.84.63,1.04.17.09.36.14.56.14.23,0,.46-.07.66-.2.55-.36.7-1.1.34-1.65-.01-.02-.02-.03-.04-.05h0Z"/>
      <path class="cls-1" d="m49.28,44.66c-.12-.33-.38-.58-.71-.7l-4.56-1.63c-.35-.13-.75-.08-1.06.13l-8.44,5.64h0s.66.99.66.99l-.68-.98c-.39.26-.59.72-.52,1.19.03.18.1.36.21.51l6.18,8.42c.39.53,1.13.64,1.66.26.14-.1.26-.23.34-.39l6.84-12.44c.17-.3.19-.67.07-.99h0Zm-8.1,10.66l-4.34-5.92,6.94-4.64,2.68.96-5.28,9.59h0Z"/>
      <path class="cls-1" d="m36.31,48.9c-.06-.32-.24-.6-.51-.78l-8.47-5.66c-.31-.21-.71-.26-1.06-.13l-4.56,1.63c-.62.22-.94.9-.72,1.52.02.06.05.12.08.17l6.84,12.44c.21.38.61.62,1.04.62.38,0,.73-.18.96-.49l3.3-4.5h0s2.87-3.92,2.87-3.92c.19-.26.27-.59.21-.91Zm-5.01,3.42h0s-2.19,3-2.19,3l-5.28-9.59,2.68-.96,6.94,4.64-2.14,2.92h0Zm38.92,12.62l-1.53-9.26c-.48-2.92-2.51-5.35-5.29-6.36l-14.83-5.37c-.62-.22-1.3.1-1.52.71-.11.31-.09.64.05.93l3.1,6.21-3.04.05c-.66,0-1.18.55-1.17,1.21,0,.19.05.37.14.53l1.25,2.38-12.75,11.67s-.03.02-.04.04l-.26.26c-.37.37-.46.95-.2,1.41v.02c.22.38.62.62,1.05.62h30.77c1.28,0,2.49-.56,3.31-1.53.83-.97,1.18-2.26.97-3.52h0Zm-2.78,1.98c-.37.44-.92.7-1.5.69h-27.77l11.48-10.5c.4-.36.5-.95.25-1.43l-.78-1.48,3-.05c.66-.01,1.18-.55,1.17-1.21,0-.18-.05-.35-.12-.51l-2.61-5.24,12.04,4.35c1.97.71,3.41,2.44,3.75,4.51l1.53,9.26h0c.09.57-.07,1.15-.44,1.59h0Z"/>
      <path class="cls-1" d="m35.97,67.93h-.01c-.47-.44-1.19-.42-1.64.03h-.01c-.46.48-.46,1.23,0,1.69.22.22.52.35.84.35h.03c.49,0,.93-.3,1.11-.76.18-.46.05-.98-.31-1.31Z"/>
      <path class="cls-1" d="m35.93,67.9c-.27-.24-.64-.35-.99-.29-.36.06-.67.28-.84.6h0c-.25.47-.17,1.04.19,1.41h0c.22.24.53.37.85.37.29,0,.57-.1.8-.31h.01c.11-.11.2-.23.26-.36.24-.48.12-1.06-.28-1.42h0Z"/>
      <path class="cls-1" d="m35.98,67.97h0s0-.01,0-.01l-.26-.26s-.03-.02-.04-.04l-12.75-11.67,1.25-2.38c.3-.58.08-1.3-.5-1.6-.16-.09-.35-.13-.53-.14l-3.04-.05,3.1-6.21c.22-.43.15-.96-.18-1.32s-.83-.49-1.29-.33l-14.83,5.37c-2.78,1.01-4.81,3.44-5.29,6.36L.06,64.95c-.21,1.26.15,2.55.97,3.52.82.97,2.04,1.53,3.31,1.53h30.8c.66,0,1.19-.53,1.19-1.19,0-.32-.13-.62-.35-.84Zm-31.64-.35c-.58,0-1.13-.25-1.5-.69-.37-.44-.53-1.02-.44-1.59l1.53-9.26c.34-2.07,1.78-3.8,3.75-4.51l12.04-4.35-2.61,5.24c-.18.37-.16.8.05,1.15.21.35.59.56,1,.57l3,.05-.78,1.48c-.25.48-.15,1.06.25,1.43l11.48,10.5H4.34Z"/>
      <path class="cls-1" d="m39.19,53.33c.09-.34.01-.71-.2-.99l-2.89-3.94c-.3-.41-.84-.58-1.33-.42-.26.08-.48.26-.62.48l-2.84,3.85c-.3.41-.31.97-.02,1.39l1.21,1.74-1.29,8.12c-.04.26,0,.53.13.76l2.76,5.02c.32.58,1.04.78,1.61.47.2-.11.36-.27.47-.47l2.78-5.05c.1-.18.15-.37.15-.57h0c0-.06,0-.13-.01-.19l-1.28-8.08,1.2-1.72c.08-.12.14-.25.18-.39h0Zm-4.04,12.96l-1.52-2.77,1.3-8.19c.05-.3-.02-.61-.2-.87l-1-1.43,1.42-1.93,1.43,1.94-.98,1.41c-.18.25-.25.56-.2.87l1.29,8.15-1.54,2.8h0Z"/>
    </g>
  </g>
</svg>