<?xml version="1.0" encoding="UTF-8"?>
<svg id="Layer_2" data-name="Layer 2" xmlns="http://www.w3.org/2000/svg" viewBox="0 0 71.62 70">
  <defs>
    <style>
      .cls-1 {
        fill: #0195ff;
      }
    </style>
  </defs>
  <g id="Layer_1-2" data-name="Layer 1">
    <path class="cls-1" d="m43.03,70c-1.65,0-3.13-1.21-4.56-2.38-.88-.72-2.08-1.7-2.66-1.7s-1.78.98-2.65,1.7c-1.57,1.28-3.35,2.74-5.31,2.29-2.02-.46-3.01-2.59-3.89-4.46-.44-.94-1.1-2.36-1.57-2.58-.5-.24-2.04.13-3.07.38-1.99.48-4.25,1.02-5.84-.25-1.6-1.28-1.57-3.61-1.55-5.66.01-1.05.03-2.63-.3-3.05-.33-.42-1.87-.75-2.89-.96-2.02-.43-4.3-.92-5.2-2.78-.88-1.83.15-3.9,1.05-5.73.47-.95,1.18-2.38,1.06-2.93-.11-.49-1.34-1.44-2.15-2.07-1.64-1.27-3.5-2.72-3.5-4.81s1.86-3.53,3.5-4.81c.81-.63,2.04-1.58,2.15-2.07.12-.55-.59-1.98-1.06-2.93-.91-1.83-1.94-3.9-1.05-5.73.9-1.85,3.18-2.34,5.2-2.78,1.02-.22,2.56-.55,2.89-.96.34-.42.32-2.01.31-3.05-.03-2.05-.05-4.38,1.55-5.66,1.59-1.27,3.85-.73,5.84-.25,1.02.25,2.57.62,3.07.38.47-.23,1.13-1.64,1.57-2.58.87-1.88,1.86-4,3.89-4.46,1.96-.44,3.74,1.01,5.31,2.29.88.72,2.08,1.7,2.66,1.7s1.78-.98,2.65-1.7c1.57-1.29,3.35-2.74,5.31-2.29,2.02.46,3.01,2.59,3.89,4.46.44.94,1.1,2.36,1.57,2.58.5.24,2.04-.13,3.07-.38,1.99-.48,4.25-1.02,5.84.25,1.6,1.28,1.57,3.61,1.55,5.66-.01,1.05-.03,2.63.3,3.05.33.42,1.87.75,2.89.96,2.02.43,4.3.92,5.2,2.78.88,1.83-.15,3.9-1.05,5.73-.47.95-1.18,2.38-1.06,2.93.11.49,1.34,1.44,2.15,2.07,1.64,1.27,3.5,2.72,3.5,4.81s-1.86,3.53-3.5,4.81c-.81.63-2.04,1.58-2.15,2.07-.12.55.59,1.98,1.06,2.93.91,1.83,1.94,3.9,1.05,5.73-.9,1.85-3.18,2.34-5.2,2.77-1.02.22-2.56.55-2.89.96-.34.42-.32,2.01-.31,3.05.03,2.05.05,4.38-1.55,5.66-1.59,1.27-3.85.73-5.84.25-1.02-.25-2.57-.62-3.07-.38-.47.23-1.13,1.64-1.57,2.58-.87,1.88-1.86,4-3.89,4.46-.25.06-.5.08-.75.08h0Zm-21.14-10.46c.67,0,1.32.11,1.92.4,1.52.73,2.32,2.47,3.1,4.14.39.83,1.19,2.56,1.66,2.66.43.08,1.85-1.08,2.53-1.64,1.46-1.2,2.98-2.43,4.72-2.43s3.25,1.24,4.72,2.43c.68.56,2.05,1.69,2.53,1.64.46-.11,1.27-1.83,1.66-2.66.78-1.68,1.59-3.41,3.1-4.14,1.54-.74,3.42-.29,5.24.15.87.21,2.7.65,3.05.37.36-.28.33-2.17.32-3.07-.02-1.87-.05-3.79,1.02-5.13,1.06-1.32,2.94-1.73,4.76-2.12.89-.19,2.74-.59,2.94-1.01.19-.39-.64-2.06-1.04-2.87-.83-1.68-1.7-3.42-1.32-5.1.37-1.63,1.87-2.8,3.33-3.92.79-.61,2.25-1.74,2.25-2.24s-1.46-1.63-2.24-2.24c-1.45-1.13-2.96-2.29-3.33-3.92-.38-1.68.48-3.42,1.32-5.1.4-.8,1.23-2.47,1.04-2.87-.2-.42-2.05-.82-2.94-1.01-1.82-.39-3.7-.79-4.76-2.12-1.06-1.33-1.04-3.26-1.02-5.13.01-.91.03-2.79-.32-3.07-.35-.28-2.17.16-3.05.37-1.82.44-3.7.89-5.24.14-1.52-.73-2.32-2.47-3.1-4.14-.39-.83-1.19-2.56-1.66-2.66-.45-.08-1.85,1.08-2.53,1.64-1.46,1.2-2.97,2.43-4.72,2.43s-3.25-1.24-4.72-2.43c-.68-.56-2.09-1.71-2.53-1.64-.47.11-1.27,1.83-1.66,2.66-.78,1.68-1.59,3.41-3.1,4.14-1.54.74-3.42.29-5.24-.14-.87-.21-2.7-.65-3.05-.37-.36.29-.33,2.17-.32,3.07.02,1.87.05,3.79-1.02,5.13-1.06,1.33-2.94,1.73-4.76,2.12-.89.19-2.74.59-2.94,1.01-.19.39.64,2.06,1.04,2.87.83,1.68,1.7,3.42,1.32,5.1-.37,1.63-1.87,2.8-3.33,3.92-.79.61-2.25,1.74-2.25,2.24s1.46,1.63,2.24,2.24c1.45,1.13,2.96,2.29,3.33,3.92.38,1.68-.48,3.42-1.32,5.1-.4.8-1.23,2.47-1.04,2.87.2.42,2.05.82,2.94,1.01,1.82.39,3.7.79,4.76,2.12,1.06,1.33,1.04,3.26,1.02,5.13-.01.91-.03,2.79.32,3.07.35.28,2.17-.16,3.05-.37,1.11-.27,2.25-.54,3.32-.54h0Zm3.68-11.99l22.79-22.79c.65-.62.66-1.66.04-2.3s-1.66-.66-2.3-.04c-.01.01-.03.03-.04.04l-22.79,22.79c-.65.62-.66,1.66-.04,2.3.62.65,1.66.66,2.3.04.01-.01.03-.03.04-.04Zm2.1-14.99c-3.14,0-5.7-2.56-5.7-5.7s2.56-5.7,5.7-5.7,5.7,2.56,5.7,5.7-2.56,5.7-5.7,5.7Zm0-8.14c-1.35,0-2.44,1.1-2.44,2.44s1.1,2.44,2.44,2.44,2.44-1.1,2.44-2.44-1.1-2.44-2.44-2.44Zm16.28,24.42c-3.14,0-5.7-2.56-5.7-5.7s2.56-5.7,5.7-5.7,5.7,2.56,5.7,5.7-2.56,5.7-5.7,5.7Zm0-8.14c-1.35,0-2.44,1.1-2.44,2.44s1.1,2.44,2.44,2.44,2.44-1.1,2.44-2.44-1.1-2.44-2.44-2.44Z"/>
  </g>
</svg>