<?xml version="1.0" encoding="UTF-8"?>
<svg id="Layer_2" data-name="Layer 2" xmlns="http://www.w3.org/2000/svg" viewBox="0 0 70.08 70">
  <defs>
    <style>
      .cls-1 {
        fill: #0195ff;
      }
    </style>
  </defs>
  <g id="Layer_1-2" data-name="Layer 1">
    <path class="cls-1" d="m15.01,66.74c.59,1.93,2.37,3.26,4.39,3.26.45,0,.89-.06,1.32-.19l29.86-8.99,5.37-.7c2.51-.32,4.28-2.62,3.96-5.13,0,0,0,0,0,0l-2.83-21.63,8.92-13.68,2.2-3.32,1.05-1.65c1.54-2.36.88-5.52-1.48-7.06s-5.52-.88-7.06,1.48h0l-1.09,1.67-2.17,3.32-2.43,3.72-1.82-13.83c-.33-2.51-2.63-4.28-5.14-3.95,0,0,0,0,0,0l-31.71,4.17c-2.39.31-4.13,2.43-3.97,4.84l-9.12,2.74c-2.42.73-3.79,3.28-3.07,5.7l14.81,49.25ZM60.89,12.96l2.38,1.55,2.37,1.55-.93,1.43-4.75-3.1.93-1.43Zm1.7-2.61c.86-1.32,2.62-1.68,3.94-.83,1.32.86,1.68,2.62.83,3.94l-.47.72-4.72-3.11.43-.72Zm-3.87,5.94l2.38,1.55,2.37,1.55-14.51,22.21-2.38-1.55-2.37-1.55,14.51-22.21Zm-17.33,30.38l.45-1.45c.76.2,1.43.64,1.91,1.25l-1.15.99c-.31.28-.78.26-1.06-.05-.18-.2-.24-.49-.16-.75h0Zm4.07-1.68c-.76-.94-1.79-1.61-2.95-1.93l.75-2.46,4.14,2.71-1.94,1.69ZM15.1,7.33c.38-.49.93-.81,1.54-.89l31.71-4.16c.1,0,.21,0,.31,0,1.15.02,2.11.88,2.26,2.02l2.2,16.42-5.77,8.82-11.35,1.51c-.62.04-1.1.58-1.06,1.2.04.62.58,1.1,1.2,1.06h.15l9.43-1.29-4.02,6.16s0,.05,0,.08c-.03.05-.05.1-.07.15l-.7,2.26-16.07,2.16c-.62.04-1.1.58-1.05,1.21.04.62.58,1.1,1.21,1.05h.14l14.97-1.96-.89,2.88c-.4,1.28.1,2.68,1.23,3.41.49.32,1.06.5,1.65.5.73,0,1.43-.27,1.97-.75l5.94-5.14.06-.07s.09-.09.12-.14l4.91-7.54,2.51,18.99c.08.61-.08,1.23-.46,1.72-.36.48-.91.8-1.51.88l-31.74,4.17c-1.27.16-2.44-.73-2.6-2,0,0,0,0,0,0L14.64,9.05c-.08-.61.09-1.23.46-1.72h0ZM3.92,13.94l8.74-2.63,6.44,49.02c.3,2.27,2.23,3.97,4.52,3.99.2,0,.4-.02.6-.05l12.42-1.63-16.58,4.99c-1.22.37-2.51-.32-2.88-1.54L2.36,16.84c-.37-1.23.33-2.53,1.56-2.9,0,0,0,0,0,0Zm22.79-1.21c-.08-.62.35-1.18.97-1.27l18.09-2.38c.62-.08,1.2.36,1.28.98s-.36,1.2-.98,1.28l-18.09,2.37h-.14c-.57,0-1.05-.42-1.12-.99h0Zm-5.47,11.05c-.08-.62.36-1.19.98-1.26,0,0,.01,0,.02,0l24.87-3.3c.62-.08,1.2.36,1.28.98s-.36,1.2-.98,1.28h0l-24.89,3.29h-.14c-.57,0-1.04-.42-1.12-.98h0Zm8.45,9.22c.09.62-.34,1.19-.96,1.28,0,0,0,0-.01,0l-4.88.64h-.14c-.62.04-1.16-.43-1.21-1.05-.04-.62.43-1.16,1.05-1.21l4.88-.64c.62-.08,1.19.36,1.27.98,0,0,0,0,0,0Zm-4.44,21.25c-.08-.62.35-1.18.97-1.27l8.67-1.14c.62-.08,1.2.36,1.28.98.08.62-.36,1.2-.98,1.28l-8.69,1.12h-.14c-.56,0-1.04-.42-1.12-.97Z"/>
  </g>
</svg>