<svg width="45" height="45" viewBox="0 0 45 45" fill="none" xmlns="http://www.w3.org/2000/svg">
<path d="M43.5186 26.2405C39.1954 17.6557 31.1418 12.3225 22.5 12.3225C20.3456 12.3225 18.2091 12.6463 16.1496 13.2848C15.7784 13.3999 15.5711 13.7936 15.6861 14.1644C15.8007 14.5359 16.1969 14.744 16.5657 14.6279C18.4903 14.0312 20.4871 13.7288 22.5 13.7288C30.5015 13.7288 37.9818 18.6345 42.1006 26.5567C37.9818 34.4788 30.5015 39.3846 22.5 39.3846C14.4985 39.3846 7.0182 34.4788 2.89936 26.5567C5.52063 21.5157 9.55639 17.5905 14.296 15.4818C14.651 15.3238 14.8106 14.9084 14.6527 14.5538C14.4951 14.1991 14.0783 14.0381 13.7247 14.1971C8.59028 16.4812 4.24244 20.7583 1.48144 26.2405C1.38119 26.4393 1.38119 26.6741 1.48144 26.8729C5.80456 35.4577 13.8582 40.7908 22.5 40.7908C31.1418 40.7908 39.1954 35.4577 43.5186 26.8729C43.6188 26.6741 43.6188 26.4392 43.5186 26.2405Z" fill="#363535"/>
<path d="M31.1843 32.0337C31.5276 32.2187 31.9534 32.091 32.137 31.7491C32.9926 30.1643 33.4447 28.3687 33.4447 26.5567C33.4447 20.5217 28.5349 15.6119 22.5 15.6119C16.465 15.6119 11.5552 20.5217 11.5552 26.5567C11.5552 32.5916 16.465 37.5015 22.5 37.5015C25.5336 37.5015 28.4576 36.226 30.5227 34.0016C30.7867 33.7173 30.7703 33.2724 30.4857 33.008C30.2017 32.7444 29.7568 32.7602 29.4921 33.0451C27.6924 34.9835 25.1439 36.0952 22.5 36.0952C17.2403 36.0952 12.9614 31.8164 12.9614 26.5567C12.9614 21.297 17.2403 17.0181 22.5 17.0181C27.7597 17.0181 32.0385 21.297 32.0385 26.5567C32.0385 28.1363 31.6447 29.7008 30.8997 31.081C30.7153 31.4229 30.8427 31.8493 31.1843 32.0337Z" fill="#363535"/>
<path d="M17.5293 26.5567C17.5293 29.2974 19.7592 31.5273 22.4999 31.5273C25.2407 31.5273 27.4706 29.2974 27.4706 26.5567C27.4706 23.8159 25.2407 21.5861 22.4999 21.5861C19.7592 21.5861 17.5293 23.8159 17.5293 26.5567ZM26.0643 26.5567C26.0643 28.5222 24.4654 30.1211 22.4999 30.1211C20.5344 30.1211 18.9355 28.5222 18.9355 26.5567C18.9355 24.5912 20.5344 22.9923 22.4999 22.9923C24.4654 22.9923 26.0643 24.5912 26.0643 26.5567Z" fill="#363535"/>
<path d="M22.5 9.68791C22.8883 9.68791 23.2031 9.37309 23.2031 8.98479V4.91229C23.2031 4.52399 22.8883 4.20917 22.5 4.20917C22.1117 4.20917 21.7969 4.52399 21.7969 4.91229V8.98479C21.7969 9.37309 22.1117 9.68791 22.5 9.68791Z" fill="#363535"/>
<path d="M11.8449 12.566C11.9818 12.7613 12.1999 12.8657 12.4216 12.8657C12.5607 12.8657 12.7014 12.8245 12.8244 12.7387C13.1423 12.5158 13.2195 12.0774 12.997 11.7592L10.6611 8.42309C10.4379 8.10552 10.0005 8.02827 9.68158 8.2504C9.36366 8.47321 9.28641 8.91164 9.50888 9.2299L11.8449 12.566Z" fill="#363535"/>
<path d="M32.5782 12.8657C32.8 12.8657 33.018 12.7613 33.155 12.566L35.491 9.22991C35.7134 8.91165 35.6362 8.47323 35.3183 8.25041C35 8.02827 34.5616 8.10484 34.3388 8.4231L32.0028 11.7592C31.7803 12.0774 31.8576 12.5159 32.1755 12.7387C32.2984 12.8245 32.4388 12.8657 32.5782 12.8657Z" fill="#363535"/>
</svg>
