<svg width="70" height="70" viewBox="0 0 70 70" fill="none" xmlns="http://www.w3.org/2000/svg">
<g clip-path="url(#clip0_1_186)">
<mask id="mask0_1_186" style="mask-type:luminance" maskUnits="userSpaceOnUse" x="0" y="0" width="70" height="70">
<path d="M0 7.62939e-06H70V70H0V7.62939e-06Z" fill="white"/>
</mask>
<g mask="url(#mask0_1_186)">
<path d="M48.4031 23.7156C48.4031 31.1179 42.4023 37.1188 34.9999 37.1188C27.5974 37.1188 21.5967 31.1179 21.5967 23.7156C21.5967 16.3131 27.5974 10.3122 34.9999 10.3122C42.4023 10.3122 48.4031 16.3131 48.4031 23.7156Z" stroke="#159ED9" stroke-width="2" stroke-miterlimit="10" stroke-linecap="round" stroke-linejoin="round"/>
<path d="M36.5899 26.8475L41.8002 23.8393C41.8955 23.7843 41.8955 23.6468 41.8002 23.5919L30.4122 17.017C30.3171 16.962 30.198 17.0308 30.198 17.1407V30.2905C30.198 30.4004 30.3171 30.469 30.4122 30.4141L32.4283 29.2502" stroke="#159ED9" stroke-width="2" stroke-miterlimit="10" stroke-linecap="round" stroke-linejoin="round"/>
<path d="M44.155 50.6727C44.155 51.9549 43.1156 52.9941 41.8337 52.9941C40.5515 52.9941 39.5122 51.9549 39.5122 50.6727C39.5122 49.3907 40.5515 48.3514 41.8337 48.3514C43.1156 48.3514 44.155 49.3907 44.155 50.6727Z" stroke="#159ED9" stroke-width="2" stroke-miterlimit="10" stroke-linecap="round" stroke-linejoin="round"/>
<path d="M29.4521 63.9285C27.5237 63.9285 25.9603 62.3652 25.9603 60.4368C25.9603 58.5084 27.5237 56.945 29.4521 56.945C31.3805 56.945 32.9437 58.5084 32.9437 60.4368C32.9437 62.3652 31.3805 63.9285 29.4521 63.9285ZM50.6238 31.596C50.4334 31.4865 50.189 31.558 50.0791 31.7483L37.08 54.2634C36.6707 54.9724 35.7 55.1232 35.1102 54.5554C33.5454 53.0492 31.3816 52.1614 29.0109 52.2862C24.8313 52.5062 21.4587 55.9291 21.2961 60.1113C21.1151 64.7675 24.8361 68.5991 29.4521 68.5991C32.5268 68.5991 35.2033 66.8983 36.5951 64.3868L52.1828 37.3903C53.3548 35.3604 52.6569 32.7644 50.6238 31.596Z" stroke="#159ED9" stroke-width="2" stroke-miterlimit="10" stroke-linecap="round" stroke-linejoin="round"/>
<path d="M41.8335 55.3141L44.617 60.1345M47.0721 64.3868C48.4639 66.8983 51.1405 68.5991 54.2152 68.5991C58.8311 68.5991 62.5521 64.7675 62.3711 60.1113C62.2086 55.9291 58.836 52.5062 54.6563 52.2862C52.2855 52.1614 50.1218 53.0492 48.5569 54.5554C47.9671 55.1232 46.9965 54.9724 46.5871 54.2634L44.5137 50.6722M54.2152 63.9285C52.2867 63.9285 50.7234 62.3652 50.7234 60.4368C50.7234 58.5084 52.2867 56.945 54.2152 56.945C56.1434 56.945 57.7068 58.5084 57.7068 60.4368C57.7068 62.3652 56.1434 63.9285 54.2152 63.9285Z" stroke="#159ED9" stroke-width="2" stroke-miterlimit="10" stroke-linecap="round" stroke-linejoin="round"/>
<path d="M47.1941 46.0301H68.8237C68.9071 46.0301 68.9746 45.9627 68.9746 45.8794V1.55165C68.9746 1.46839 68.9071 1.40085 68.8237 1.40085H16.2181M11.433 1.40085H1.17619C1.09293 1.40085 1.02539 1.46839 1.02539 1.55165V45.8794C1.02539 45.9627 1.09293 46.0301 1.17619 46.0301H41.8335M65.5566 8.87075C65.5566 8.9521 65.4907 9.01814 65.4093 9.01814H61.5047C61.4234 9.01814 61.3573 8.9521 61.3573 8.87075V4.9662C61.3573 4.88486 61.4234 4.81882 61.5047 4.81882H65.4093C65.4907 4.81882 65.5566 4.88486 65.5566 4.9662V8.87075ZM65.5566 17.2692C65.5566 17.3506 65.4907 17.4166 65.4093 17.4166H61.5047C61.4234 17.4166 61.3573 17.3506 61.3573 17.2692V13.3647C61.3573 13.2834 61.4234 13.2173 61.5047 13.2173H65.4093C65.4907 13.2173 65.5566 13.2834 65.5566 13.3647V17.2692ZM65.5566 25.6677C65.5566 25.7492 65.4907 25.8151 65.4093 25.8151H61.5047C61.4234 25.8151 61.3573 25.7492 61.3573 25.6677V21.7632C61.3573 21.6818 61.4234 21.6159 61.5047 21.6159H65.4093C65.4907 21.6159 65.5566 21.6818 65.5566 21.7632V25.6677ZM65.5566 34.0664C65.5566 34.1477 65.4907 34.2138 65.4093 34.2138H61.5047C61.4234 34.2138 61.3573 34.1477 61.3573 34.0664V30.1618C61.3573 30.0803 61.4234 30.0144 61.5047 30.0144H65.4093C65.4907 30.0144 65.5566 30.0803 65.5566 30.1618V34.0664ZM65.5566 42.4649C65.5566 42.5462 65.4907 42.6123 65.4093 42.6123H61.5047C61.4234 42.6123 61.3573 42.5462 61.3573 42.4649V38.5603C61.3573 38.4788 61.4234 38.4129 61.5047 38.4129H65.4093C65.4907 38.4129 65.5566 38.4788 65.5566 38.5603V42.4649ZM8.64267 8.87075C8.64267 8.9521 8.57664 9.01814 8.49529 9.01814H4.59074C4.50926 9.01814 4.44336 8.9521 4.44336 8.87075V4.9662C4.44336 4.88486 4.50926 4.81882 4.59074 4.81882H8.49529C8.57664 4.81882 8.64267 4.88486 8.64267 4.9662V8.87075ZM8.64267 17.2692C8.64267 17.3506 8.57664 17.4166 8.49529 17.4166H4.59074C4.50926 17.4166 4.44336 17.3506 4.44336 17.2692V13.3647C4.44336 13.2834 4.50926 13.2173 4.59074 13.2173H8.49529C8.57664 13.2173 8.64267 13.2834 8.64267 13.3647V17.2692ZM8.64267 25.6677C8.64267 25.7492 8.57664 25.8151 8.49529 25.8151H4.59074C4.50926 25.8151 4.44336 25.7492 4.44336 25.6677V21.7632C4.44336 21.6818 4.50926 21.6159 4.59074 21.6159H8.49529C8.57664 21.6159 8.64267 21.6818 8.64267 21.7632V25.6677ZM8.64267 34.0664C8.64267 34.1477 8.57664 34.2138 8.49529 34.2138H4.59074C4.50926 34.2138 4.44336 34.1477 4.44336 34.0664V30.1618C4.44336 30.0803 4.50926 30.0144 4.59074 30.0144H8.49529C8.57664 30.0144 8.64267 30.0803 8.64267 30.1618V34.0664ZM8.64267 42.4649C8.64267 42.5462 8.57664 42.6123 8.49529 42.6123H4.59074C4.50926 42.6123 4.44336 42.5462 4.44336 42.4649V38.5603C4.44336 38.4788 4.50926 38.4129 4.59074 38.4129H8.49529C8.57664 38.4129 8.64267 38.4788 8.64267 38.5603V42.4649Z" stroke="#159ED9" stroke-width="2" stroke-miterlimit="10" stroke-linecap="round" stroke-linejoin="round"/>
<path d="M36.4729 46.0302L39.1531 50.6729" stroke="#159ED9" stroke-width="2" stroke-miterlimit="10" stroke-linecap="round" stroke-linejoin="round"/>
</g>
</g>
<defs>
<clipPath id="clip0_1_186">
<rect width="70" height="70" fill="white"/>
</clipPath>
</defs>
</svg>
