<svg width="65" height="65" viewBox="0 0 65 65" fill="none" xmlns="http://www.w3.org/2000/svg">
<g clip-path="url(#clip0_3_637)">
<mask id="mask0_3_637" style="mask-type:luminance" maskUnits="userSpaceOnUse" x="0" y="0" width="65" height="65">
<path d="M0 7.62939e-06H65V65H0V7.62939e-06Z" fill="white"/>
</mask>
<g mask="url(#mask0_3_637)">
<path d="M44.9459 22.0216C44.9459 28.8952 39.3737 34.4675 32.5 34.4675C25.6263 34.4675 20.0542 28.8952 20.0542 22.0216C20.0542 15.1479 25.6263 9.57564 32.5 9.57564C39.3737 9.57564 44.9459 15.1479 44.9459 22.0216Z" stroke="white" stroke-width="2" stroke-miterlimit="10" stroke-linecap="round" stroke-linejoin="round"/>
<path d="M33.9763 24.9298L38.8145 22.1365C38.903 22.0854 38.903 21.9577 38.8145 21.9068L28.24 15.8015C28.1516 15.7505 28.041 15.8143 28.041 15.9164V28.1269C28.041 28.2289 28.1516 28.2927 28.24 28.2416L30.112 27.1609" stroke="white" stroke-width="2" stroke-miterlimit="10" stroke-linecap="round" stroke-linejoin="round"/>
<path d="M41.0011 47.0533C41.0011 48.2438 40.0359 49.2088 38.8456 49.2088C37.655 49.2088 36.6899 48.2438 36.6899 47.0533C36.6899 45.8628 37.655 44.8977 38.8456 44.8977C40.0359 44.8977 41.0011 45.8628 41.0011 47.0533Z" stroke="white" stroke-width="2" stroke-miterlimit="10" stroke-linecap="round" stroke-linejoin="round"/>
<path d="M27.3483 59.3622C25.5576 59.3622 24.1059 57.9106 24.1059 56.1199C24.1059 54.3293 25.5576 52.8775 27.3483 52.8775C29.139 52.8775 30.5906 54.3293 30.5906 56.1199C30.5906 57.9106 29.139 59.3622 27.3483 59.3622ZM47.0078 29.3392C46.8309 29.2375 46.6041 29.3039 46.502 29.4806L34.4314 50.3875C34.0513 51.0459 33.1499 51.1859 32.6023 50.6587C31.1493 49.26 29.14 48.4356 26.9386 48.5515C23.0576 48.7558 19.9259 51.9342 19.7749 55.8177C19.6068 60.1413 23.062 63.6992 27.3483 63.6992C30.2034 63.6992 32.6887 62.1199 33.9811 59.7877L48.4554 34.7196C49.5437 32.8347 48.8957 30.4241 47.0078 29.3392Z" stroke="white" stroke-width="2" stroke-miterlimit="10" stroke-linecap="round" stroke-linejoin="round"/>
<path d="M38.8455 51.3631L41.4301 55.8392M43.7099 59.7877C45.0023 62.1199 47.4877 63.6992 50.3427 63.6992C54.6289 63.6992 58.0842 60.1413 57.9161 55.8177C57.7652 51.9342 54.6335 48.7558 50.7524 48.5515C48.5509 48.4356 46.5417 49.26 45.0886 50.6587C44.541 51.1859 43.6397 51.0459 43.2595 50.3875L41.3342 47.0528M50.3427 59.3622C48.552 59.3622 47.1003 57.9106 47.1003 56.1199C47.1003 54.3293 48.552 52.8775 50.3427 52.8775C52.1333 52.8775 53.585 54.3293 53.585 56.1199C53.585 57.9106 52.1333 59.3622 50.3427 59.3622Z" stroke="white" stroke-width="2" stroke-miterlimit="10" stroke-linecap="round" stroke-linejoin="round"/>
<path d="M43.8231 42.7422H63.9077C63.9851 42.7422 64.0478 42.6797 64.0478 42.6023V1.44084C64.0478 1.36353 63.9851 1.30081 63.9077 1.30081H15.0597M10.6163 1.30081H1.09218C1.01486 1.30081 0.952148 1.36353 0.952148 1.44084V42.6023C0.952148 42.6797 1.01486 42.7422 1.09218 42.7422H38.8454M60.874 8.23715C60.874 8.31269 60.8128 8.37401 60.7372 8.37401H57.1115C57.036 8.37401 56.9747 8.31269 56.9747 8.23715V4.6115C56.9747 4.53596 57.036 4.47464 57.1115 4.47464H60.7372C60.8128 4.47464 60.874 4.53596 60.874 4.6115V8.23715ZM60.874 16.0358C60.874 16.1113 60.8128 16.1726 60.7372 16.1726H57.1115C57.036 16.1726 56.9747 16.1113 56.9747 16.0358V12.4101C56.9747 12.3346 57.036 12.2732 57.1115 12.2732H60.7372C60.8128 12.2732 60.874 12.3346 60.874 12.4101V16.0358ZM60.874 23.8344C60.874 23.91 60.8128 23.9712 60.7372 23.9712H57.1115C57.036 23.9712 56.9747 23.91 56.9747 23.8344V20.2087C56.9747 20.1332 57.036 20.072 57.1115 20.072H60.7372C60.8128 20.072 60.874 20.1332 60.874 20.2087V23.8344ZM60.874 31.6331C60.874 31.7086 60.8128 31.7699 60.7372 31.7699H57.1115C57.036 31.7699 56.9747 31.7086 56.9747 31.6331V28.0074C56.9747 27.9318 57.036 27.8706 57.1115 27.8706H60.7372C60.8128 27.8706 60.874 27.9318 60.874 28.0074V31.6331ZM60.874 39.4317C60.874 39.5072 60.8128 39.5685 60.7372 39.5685H57.1115C57.036 39.5685 56.9747 39.5072 56.9747 39.4317V35.806C56.9747 35.7304 57.036 35.6692 57.1115 35.6692H60.7372C60.8128 35.6692 60.874 35.7304 60.874 35.806V39.4317ZM8.02534 8.23715C8.02534 8.31269 7.96402 8.37401 7.88848 8.37401H4.26283C4.18717 8.37401 4.12598 8.31269 4.12598 8.23715V4.6115C4.12598 4.53596 4.18717 4.47464 4.26283 4.47464H7.88848C7.96402 4.47464 8.02534 4.53596 8.02534 4.6115V8.23715ZM8.02534 16.0358C8.02534 16.1113 7.96402 16.1726 7.88848 16.1726H4.26283C4.18717 16.1726 4.12598 16.1113 4.12598 16.0358V12.4101C4.12598 12.3346 4.18717 12.2732 4.26283 12.2732H7.88848C7.96402 12.2732 8.02534 12.3346 8.02534 12.4101V16.0358ZM8.02534 23.8344C8.02534 23.91 7.96402 23.9712 7.88848 23.9712H4.26283C4.18717 23.9712 4.12598 23.91 4.12598 23.8344V20.2087C4.12598 20.1332 4.18717 20.072 4.26283 20.072H7.88848C7.96402 20.072 8.02534 20.1332 8.02534 20.2087V23.8344ZM8.02534 31.6331C8.02534 31.7086 7.96402 31.7699 7.88848 31.7699H4.26283C4.18717 31.7699 4.12598 31.7086 4.12598 31.6331V28.0074C4.12598 27.9318 4.18717 27.8706 4.26283 27.8706H7.88848C7.96402 27.8706 8.02534 27.9318 8.02534 28.0074V31.6331ZM8.02534 39.4317C8.02534 39.5072 7.96402 39.5685 7.88848 39.5685H4.26283C4.18717 39.5685 4.12598 39.5072 4.12598 39.4317V35.806C4.12598 35.7304 4.18717 35.6692 4.26283 35.6692H7.88848C7.96402 35.6692 8.02534 35.7304 8.02534 35.806V39.4317Z" stroke="white" stroke-width="2" stroke-miterlimit="10" stroke-linecap="round" stroke-linejoin="round"/>
<path d="M33.8677 42.7423L36.3565 47.0534" stroke="white" stroke-width="2" stroke-miterlimit="10" stroke-linecap="round" stroke-linejoin="round"/>
</g>
</g>
<defs>
<clipPath id="clip0_3_637">
<rect width="65" height="65" fill="white"/>
</clipPath>
</defs>
</svg>
