<svg width="65" height="65" viewBox="0 0 65 65" fill="none" xmlns="http://www.w3.org/2000/svg">
<g clip-path="url(#clip0_3_632)">
<path d="M54.99 20.3898L51.9381 16.6873C51.5191 16.179 51.2642 15.5641 51.2017 14.909L50.7415 10.1329C50.5025 7.65137 48.5278 5.67666 46.0463 5.43763L41.2702 4.97793C40.6151 4.91495 40.0001 4.66005 39.4918 4.2415L35.7894 1.18919C33.8657 -0.396233 31.0733 -0.396233 29.1497 1.18919L25.4472 4.2415C24.9394 4.66005 24.3245 4.91495 23.6689 4.97793L18.8928 5.43763C16.4113 5.67666 14.437 7.65137 14.1975 10.1329L13.7378 14.909C13.6748 15.5641 13.4199 16.179 13.0014 16.6873L9.94907 20.3898C8.36365 22.3134 8.36365 25.1059 9.94907 27.0295L13.0014 30.7319C13.4199 31.2402 13.6748 31.8552 13.7378 32.5103L14.1975 37.2864C14.4366 39.7679 16.4113 41.7421 18.8928 41.9816L21.8122 42.2628L14.8759 58.8376C14.688 59.2888 14.7728 59.7966 15.0976 60.1626C15.4224 60.5281 15.9158 60.6729 16.385 60.5395L22.4028 58.8405C22.4291 58.8331 22.4544 58.8445 22.4663 58.8658L25.4799 64.3456C25.7041 64.7537 26.1231 64.9997 26.5843 64.9997C26.6061 64.9997 26.628 64.9992 26.6503 64.9982C27.1378 64.9734 27.5593 64.6789 27.7522 64.2246L35.0753 46.724C35.3237 46.5812 35.5627 46.417 35.7899 46.2301L39.4923 43.1782C39.961 42.7914 40.5218 42.547 41.1204 42.4617L47.7532 58.3104L43.0594 56.9853C42.1668 56.7339 41.232 57.1252 40.7842 57.937L38.4341 62.2102L35.3202 54.7691C35.1144 54.2777 34.5501 54.0466 34.0587 54.2519C33.5677 54.4572 33.3361 55.022 33.5419 55.513L37.1893 64.2296C37.3803 64.6789 37.8013 64.9734 38.2893 64.9982C38.3116 64.9992 38.3334 65.0002 38.3552 65.0002C38.8164 65.0002 39.2354 64.7537 39.4596 64.3456L42.4727 58.8668C42.4851 58.8445 42.5109 58.8341 42.5362 58.8405L48.5531 60.5395C49.0232 60.6724 49.5171 60.5281 49.8414 60.1626C50.1663 59.7966 50.2511 59.2893 50.0626 58.8366L43.1268 42.2623L46.0463 41.9811C48.5278 41.7421 50.5025 39.7679 50.7415 37.2864L51.2017 32.5098C51.2642 31.8547 51.5191 31.2402 51.9381 30.7319L54.99 27.0295C56.5759 25.1059 56.5759 22.3134 54.99 20.3898ZM26.5055 62.2102L24.1549 57.936C23.7076 57.1247 22.7718 56.7334 21.8796 56.9853L17.1864 58.3099L23.8186 42.4617C24.4177 42.547 24.9786 42.7914 25.4472 43.1778L29.1497 46.2301C30.1117 47.023 31.2905 47.4193 32.4698 47.4193C32.5456 47.4193 32.621 47.4173 32.6969 47.4138L26.5055 62.2102ZM53.5027 25.8036L50.4509 29.5061C49.7864 30.3114 49.3827 31.2864 49.2826 32.3253L48.8228 37.1014C48.6721 38.6665 47.4269 39.9117 45.8618 40.0625L41.6664 40.4666C41.65 40.4676 41.6332 40.4691 41.6168 40.4716L41.0857 40.5227C40.0463 40.6228 39.0713 41.0265 38.2659 41.6905L34.5635 44.7423C33.3505 45.7426 31.589 45.7426 30.376 44.7423L26.6736 41.6905C25.8682 41.0265 24.8933 40.6223 23.8539 40.5227L23.3203 40.4711C23.3054 40.4691 23.291 40.4681 23.2761 40.4671L19.0778 40.0625C17.5127 39.9117 16.2674 38.6665 16.1167 37.1014L15.657 32.3258C15.5568 31.2864 15.1531 30.3114 14.4886 29.5061L11.4368 25.8036C10.4366 24.5901 10.4366 22.8286 11.4368 21.6157L14.4886 17.9132C15.1531 17.1078 15.5568 16.1329 15.657 15.0935L16.1167 10.3174C16.2674 8.75229 17.5127 7.50706 19.0778 7.3563L23.8539 6.8966C24.8933 6.79642 25.8682 6.39275 26.6736 5.72873L30.376 2.67691C30.9825 2.17704 31.7264 1.9266 32.4698 1.9266C33.2131 1.9266 33.957 2.17654 34.5635 2.67691L38.2659 5.72873C39.0713 6.39275 40.0463 6.79692 41.0857 6.8966L45.8618 7.3563C47.4269 7.50706 48.6721 8.75229 48.8228 10.3174L49.2826 15.0935C49.3827 16.1329 49.7864 17.1078 50.4509 17.9132L53.5027 21.6157C54.5025 22.8291 54.5025 24.5901 53.5027 25.8036Z" fill="white"/>
<path d="M32.4699 8.65262C31.8262 8.65262 31.1785 8.69328 30.5438 8.77461C30.0161 8.84206 29.6427 9.32507 29.7101 9.85272C29.7776 10.3809 30.2611 10.7538 30.7882 10.6868C31.3417 10.6159 31.9075 10.5802 32.4699 10.5802C39.7096 10.5802 45.5995 16.4701 45.5995 23.7099C45.5995 30.9497 39.7091 36.8391 32.4699 36.8391C25.2301 36.8391 19.3402 30.9492 19.3402 23.7094C19.3402 18.5455 22.3851 13.8418 27.0972 11.7258C27.5827 11.5081 27.7999 10.9373 27.5817 10.4518C27.3635 9.96578 26.7927 9.74907 26.3077 9.96727C20.9038 12.3938 17.4126 17.7877 17.4126 23.7094C17.4126 32.0124 24.1674 38.7667 32.4699 38.7667C40.7724 38.7667 47.5271 32.0124 47.5271 23.7094C47.5271 15.4069 40.7724 8.65262 32.4699 8.65262Z" fill="white"/>
<path d="M22.8972 22.5931C21.7481 23.7421 21.7481 25.6122 22.8972 26.7612L27.1069 30.9715C27.6638 31.5279 28.4037 31.8343 29.1912 31.8343C29.9782 31.8343 30.7186 31.5279 31.2755 30.9715L40.4652 21.7813C41.6142 20.6318 41.6142 18.7622 40.4652 17.6127C39.3162 16.4637 37.4461 16.4637 36.2966 17.6127L29.1912 24.7186L27.0653 22.5931C25.9163 21.4441 24.0462 21.4441 22.8972 22.5931ZM29.1912 27.0459C29.4466 27.0459 29.6916 26.9442 29.8726 26.7632L37.6599 18.9759C38.0576 18.5782 38.7042 18.5787 39.102 18.9759C39.4997 19.3737 39.4997 20.0208 39.102 20.418L29.9123 29.6082C29.7199 29.8006 29.4635 29.9067 29.1912 29.9067C28.9185 29.9067 28.6626 29.8006 28.4702 29.6082L24.2599 25.3984C23.8627 25.0007 23.8627 24.3536 24.2599 23.9563C24.4588 23.7575 24.7201 23.6578 24.9815 23.6578C25.2423 23.6578 25.5037 23.7575 25.702 23.9558L28.5094 26.7632C28.6904 26.9442 28.9353 27.0459 29.1912 27.0459Z" fill="white"/>
</g>
<defs>
<clipPath id="clip0_3_632">
<rect width="65" height="65" fill="white"/>
</clipPath>
</defs>
</svg>
