<svg width="45" height="45" viewBox="0 0 45 45" fill="none" xmlns="http://www.w3.org/2000/svg">
<g clip-path="url(#clip0_1_68)">
<path d="M45.0001 21.1446C45.0001 20.3009 44.3137 19.6145 43.4699 19.6145H40.0604V16.2768C40.0604 15.9113 39.7642 15.6152 39.3988 15.6152C39.0334 15.6152 38.7373 15.9113 38.7373 16.2768V19.6145H37.6839V2.94209H38.7373V13.4576C38.7373 13.8231 39.0334 14.1192 39.3988 14.1192C39.7642 14.1192 40.0604 13.8231 40.0604 13.4576V2.74522C40.0604 2.12426 39.5551 1.61902 38.9341 1.61902H37.4871C36.866 1.61902 36.3608 2.12426 36.3608 2.74522V2.94941H27.1031C26.8457 2.94941 26.6056 3.07652 26.461 3.28936C26.3163 3.5022 26.2865 3.77219 26.3812 4.01149L27.6757 7.28134L26.3811 10.5517C26.2866 10.791 26.3165 11.0608 26.4612 11.2737C26.6058 11.4865 26.8458 11.6134 27.1031 11.6134H36.3608V19.6146H32.9511C32.1074 19.6146 31.421 20.3009 31.421 21.1447V23.8963C31.421 24.2187 31.5218 24.5178 31.6929 24.7648C31.5218 25.0118 31.421 25.3108 31.421 25.6334V28.3849C31.421 28.7074 31.5219 29.0065 31.693 29.2535C31.5219 29.5005 31.421 29.7996 31.421 30.122V32.8736C31.421 33.1961 31.5218 33.4952 31.6929 33.7421C31.5218 33.9891 31.421 34.2881 31.421 34.6107V37.3623C31.421 37.6847 31.5219 37.9838 31.693 38.2308C31.5219 38.4778 31.421 38.7769 31.421 39.0994V41.8509C31.421 42.6946 32.1073 43.381 32.9511 43.381H43.4699C44.3136 43.381 45.0001 42.6947 45.0001 41.8509V39.0994C45.0001 38.7769 44.8992 38.4778 44.7282 38.2308C44.8992 37.9838 45.0001 37.6847 45.0001 37.3623V34.6107C45.0001 34.2882 44.8992 33.9891 44.7282 33.7421C44.8992 33.4952 45.0001 33.1962 45.0001 32.8736V30.122C45.0001 29.7996 44.8992 29.5005 44.7282 29.2535C44.8992 29.0065 45.0001 28.7074 45.0001 28.3849V25.6333C45.0001 25.3108 44.8992 25.0117 44.7282 24.7647C44.8992 24.5177 45.0001 24.2187 45.0001 23.8962V21.1446ZM27.9075 10.2904L28.986 7.56598C29.0583 7.38251 29.0583 7.18035 28.9856 6.99564L27.9075 4.27249H36.3609V10.2904H27.9075ZM32.7442 21.1446C32.7442 21.0305 32.8371 20.9376 32.9512 20.9376H43.47C43.5842 20.9376 43.6771 21.0305 43.6771 21.1446V23.8962C43.6771 24.0103 43.5842 24.1032 43.47 24.1032H32.9511C32.837 24.1032 32.7441 24.0103 32.7441 23.8962L32.7442 21.1446ZM43.677 25.6333V28.3848C43.677 28.4991 43.5841 28.5919 43.4699 28.5919H32.9511C32.837 28.5919 32.7441 28.4991 32.7441 28.3848V25.6333C32.7441 25.5191 32.837 25.4263 32.9511 25.4263H43.4699C43.5841 25.4263 43.677 25.5191 43.677 25.6333ZM43.677 30.122V32.8736C43.677 32.9877 43.5841 33.0806 43.4699 33.0806H32.9511C32.837 33.0806 32.7441 32.9877 32.7441 32.8736V30.122C32.7441 30.0079 32.837 29.915 32.9511 29.915H43.4699C43.5841 29.915 43.677 30.0079 43.677 30.122ZM43.677 34.6106V37.3622C43.677 37.4764 43.5841 37.5693 43.4699 37.5693H32.9511C32.837 37.5693 32.7441 37.4764 32.7441 37.3622V34.6106C32.7441 34.4965 32.837 34.4036 32.9511 34.4036H43.4699C43.5841 34.4037 43.677 34.4965 43.677 34.6106ZM43.677 41.8509C43.677 41.9651 43.5841 42.0579 43.4699 42.0579H32.9511C32.837 42.0579 32.7441 41.9651 32.7441 41.8509V39.0994C32.7441 38.9852 32.837 38.8923 32.9511 38.8923H43.4699C43.5841 38.8923 43.677 38.9852 43.677 39.0994V41.8509Z" fill="#363535"/>
<path d="M29.2894 32.8736V30.122C29.2894 29.2783 28.6031 28.5918 27.7594 28.5918H25.3193C24.9538 28.5918 24.6577 28.888 24.6577 29.2534C24.6577 29.6188 24.9538 29.9149 25.3193 29.9149H27.7594C27.8735 29.9149 27.9664 30.0078 27.9664 30.122V32.8736C27.9664 32.9877 27.8735 33.0806 27.7594 33.0806H17.2406C17.1264 33.0806 17.0335 32.9877 17.0335 32.8736V30.122C17.0335 30.0078 17.1264 29.9149 17.2406 29.9149H17.6561C17.6571 29.9149 17.6582 29.9152 17.6594 29.9152C17.6605 29.9152 17.6616 29.9149 17.6628 29.9149H22.5C22.8654 29.9149 23.1615 29.6188 23.1615 29.2534C23.1615 28.888 22.8654 28.5918 22.5 28.5918H20.6813L19.1215 22.8254C19.0372 22.5137 18.8676 22.2328 18.631 22.0131L12.9257 16.7125V15.1969L18.4434 9.51539C18.6078 9.34577 18.6984 9.12235 18.6984 8.88623V7.6226C18.6984 7.28372 18.5115 6.97632 18.2106 6.82029C17.9099 6.66425 17.5509 6.68869 17.274 6.88406L12.5142 10.241C12.5162 10.1928 12.5179 10.1446 12.5179 10.0959C12.5179 8.2336 11.0028 6.7185 9.14051 6.7185C7.27824 6.7185 5.76314 8.2336 5.76314 10.0959C5.76314 11.6114 6.76665 12.8969 8.14406 13.323L8.13409 13.3301C7.55044 13.7416 7.20194 14.4138 7.20194 15.1281V15.6595L0.763326 21.194C0.584358 21.3479 0.481688 21.5716 0.481688 21.8076V22.8927C0.481688 23.172 0.622727 23.4279 0.858941 23.5771C0.990983 23.6605 1.14031 23.7027 1.29062 23.7027C1.40916 23.7027 1.52815 23.6764 1.63964 23.6234L7.20185 20.9714V26.1071C7.20185 26.115 7.20097 26.1231 7.19938 26.1308L5.73333 33.0806H1.53009C0.686323 33.0806 0 33.7669 0 34.6106V37.3622C0 37.6846 0.100907 37.9837 0.271936 38.2307C0.100907 38.4778 0 38.7769 0 39.0994V41.8509C0 42.6946 0.686323 43.381 1.53009 43.381H12.0489C12.8926 43.381 13.579 42.6947 13.579 41.8509V39.0994C13.579 38.7769 13.4781 38.4778 13.3071 38.2308C13.4781 37.9838 13.579 37.6847 13.579 37.3622V34.6107C13.579 33.767 12.8927 33.0806 12.0489 33.0806H9.24362L12.7298 27.1028C12.858 26.8833 12.9258 26.6327 12.9258 26.3783V24.2123L16.0688 26.379L16.7819 28.6623C16.1616 28.8577 15.7105 29.4381 15.7105 30.122V32.8736C15.7105 33.1961 15.8114 33.4952 15.9824 33.7421C15.8114 33.9891 15.7105 34.2881 15.7105 34.6107V37.3622C15.7105 37.6847 15.8115 37.9838 15.9825 38.2308C15.8115 38.4778 15.7105 38.7769 15.7105 39.0994V41.8509C15.7105 42.6946 16.3969 43.381 17.2406 43.381H27.7594C28.6031 43.381 29.2896 42.6947 29.2896 41.8509V39.0994C29.2896 38.7769 29.1887 38.4778 29.0177 38.2308C29.1887 37.9838 29.2896 37.6847 29.2896 37.3622V34.6107C29.2896 34.2882 29.1887 33.9891 29.0177 33.7421C29.1885 33.4951 29.2894 33.1961 29.2894 32.8736ZM7.08613 10.0959C7.08613 8.96314 8.00769 8.04158 9.14042 8.04158C10.2732 8.04158 11.1947 8.96314 11.1947 10.0959C11.1947 11.2286 10.2732 12.1502 9.14042 12.1502C8.00769 12.1502 7.08613 11.2286 7.08613 10.0959ZM27.7594 34.4037C27.8736 34.4037 27.9665 34.4966 27.9665 34.6107V37.3622C27.9665 37.4765 27.8736 37.5694 27.7594 37.5694H17.2406C17.1264 37.5694 17.0335 37.4765 17.0335 37.3622V34.6107C17.0335 34.4966 17.1264 34.4037 17.2406 34.4037H27.7594ZM1.80476 22.0789V22.0435L7.20185 17.4042V19.5055L1.80476 22.0789ZM12.2558 41.8509C12.2558 41.965 12.1629 42.0579 12.0488 42.0579H1.53009C1.41596 42.0579 1.32308 41.965 1.32308 41.8509V39.0994C1.32308 38.9852 1.41596 38.8923 1.53009 38.8923H12.0489C12.163 38.8923 12.2559 38.9852 12.2559 39.0994L12.2558 41.8509ZM12.2558 34.6106V37.3622C12.2558 37.4764 12.1629 37.5693 12.0488 37.5693H1.53009C1.41596 37.5693 1.32308 37.4764 1.32308 37.3622V34.6106C1.32308 34.4965 1.41596 34.4036 1.53009 34.4036H12.0489C12.163 34.4037 12.2558 34.4965 12.2558 34.6106ZM11.5871 26.4359L7.71194 33.0805H7.08551L8.49388 26.4036C8.51434 26.3062 8.52484 26.2064 8.52484 26.1069V15.1281C8.52484 14.8433 8.66376 14.5754 8.89645 14.4113L17.3752 8.43153V8.71617L11.7897 14.4676C11.6698 14.5911 11.6027 14.7564 11.6027 14.9285V26.3783C11.6027 26.3985 11.5973 26.4183 11.5871 26.4359ZM12.9257 22.6052V18.5183L17.7305 22.9824C17.7854 23.0333 17.8246 23.0984 17.8442 23.1708L19.3105 28.5918H18.146L17.2636 25.7667C17.2195 25.6256 17.1294 25.5033 17.0076 25.4194L12.9257 22.6052ZM27.9665 41.8509C27.9665 41.965 27.8736 42.0579 27.7594 42.0579H17.2406C17.1264 42.0579 17.0335 41.965 17.0335 41.8509V39.0994C17.0335 38.9852 17.1264 38.8923 17.2406 38.8923H27.7594C27.8736 38.8923 27.9665 38.9852 27.9665 39.0994V41.8509Z" fill="#363535"/>
</g>
<defs>
<clipPath id="clip0_1_68">
<rect width="45" height="45" fill="white"/>
</clipPath>
</defs>
</svg>
