<svg width="45" height="45" viewBox="0 0 45 45" fill="none" xmlns="http://www.w3.org/2000/svg">
<g clip-path="url(#clip0_1_2)">
<mask id="mask0_1_2" style="mask-type:luminance" maskUnits="userSpaceOnUse" x="0" y="0" width="45" height="45">
<path d="M0 3.8147e-06H45V45H0V3.8147e-06Z" fill="white"/>
</mask>
<g mask="url(#mask0_1_2)">
<path d="M38.4158 7.84392C41.9669 11.6984 44.1358 16.8459 44.1358 22.4999C44.1358 34.4491 34.449 44.1358 22.5 44.1358C10.5508 44.1358 0.864014 34.4491 0.864014 22.4999C0.864014 10.5508 10.5508 0.864085 22.5 0.864085C23.393 0.864085 24.2735 0.918226 25.1383 1.02334" stroke="#363535" stroke-width="2" stroke-miterlimit="10" stroke-linecap="round" stroke-linejoin="round"/>
<path d="M14.0277 9.03143C20.1741 5.1573 28.3948 5.89716 33.7488 11.2512C39.9613 17.4637 39.9613 27.5362 33.7488 33.7487C27.5363 39.9613 17.4638 39.9613 11.2512 33.7487C5.88929 28.3869 5.15514 20.1497 9.04869 14.0004" stroke="#363535" stroke-width="2" stroke-miterlimit="10" stroke-linecap="round" stroke-linejoin="round"/>
<path d="M38.2617 11.0595V7.71967H41.6016" stroke="#363535" stroke-width="2" stroke-miterlimit="10" stroke-linecap="round" stroke-linejoin="round"/>
<path d="M20.3511 22.5C20.3511 23.6868 21.3132 24.6489 22.5 24.6489C23.6868 24.6489 24.6489 23.6868 24.6489 22.5C24.6489 21.3132 23.6868 20.3511 22.5 20.3511C21.3132 20.3511 20.3511 21.3132 20.3511 22.5Z" stroke="#363535" stroke-width="2" stroke-miterlimit="10" stroke-linecap="round" stroke-linejoin="round"/>
<path d="M35.0097 22.5143H33.9258" stroke="#363535" stroke-width="2" stroke-miterlimit="10" stroke-linecap="round" stroke-linejoin="round"/>
<path d="M9.99023 22.4857H11.0742" stroke="#363535" stroke-width="2" stroke-miterlimit="10" stroke-linecap="round" stroke-linejoin="round"/>
<path d="M22.5142 9.9902V11.0742" stroke="#363535" stroke-width="2" stroke-miterlimit="10" stroke-linecap="round" stroke-linejoin="round"/>
<path d="M22.4856 35.0097V33.9257" stroke="#363535" stroke-width="2" stroke-miterlimit="10" stroke-linecap="round" stroke-linejoin="round"/>
<path d="M20.9804 20.9805L17.4729 17.473" stroke="#363535" stroke-width="2" stroke-miterlimit="10" stroke-linecap="round" stroke-linejoin="round"/>
<path d="M24.0195 20.9805L30.5584 14.4416" stroke="#363535" stroke-width="2" stroke-miterlimit="10" stroke-linecap="round" stroke-linejoin="round"/>
</g>
</g>
<defs>
<clipPath id="clip0_1_2">
<rect width="45" height="45" fill="white"/>
</clipPath>
</defs>
</svg>
