<svg width="45" height="45" viewBox="0 0 45 45" fill="none" xmlns="http://www.w3.org/2000/svg">
<g clip-path="url(#clip0_1_72)">
<mask id="mask0_1_72" style="mask-type:luminance" maskUnits="userSpaceOnUse" x="0" y="0" width="45" height="45">
<path d="M0 3.8147e-06H45V45H0V3.8147e-06Z" fill="white"/>
</mask>
<g mask="url(#mask0_1_72)">
<path d="M11.7456 38.4765V43.4619C11.7456 43.9473 12.1392 44.3408 12.6245 44.3408H29.7431C30.2284 44.3408 30.622 43.9473 30.622 43.4619V39.3317C30.622 38.8463 31.0154 38.4528 31.5009 38.4528H36.4123C38.354 38.4528 39.9279 36.8788 39.9279 34.9371V34.3643" stroke="#363535" stroke-width="2" stroke-miterlimit="10" stroke-linecap="round" stroke-linejoin="round"/>
<path d="M39.9281 31.5256V30.2677C39.9281 29.7822 40.3216 29.3888 40.807 29.3888H43.1797C43.8411 29.3888 44.2655 28.686 43.9576 28.1007L40.0796 20.7269C39.9801 20.5376 39.9281 20.3271 39.9281 20.1132V17.707C39.9281 8.45269 32.5478 0.8055 23.2947 0.661272C13.8359 0.513791 6.12183 8.13716 6.12183 17.5622C6.12183 22.3598 8.12195 26.6888 11.3322 29.7654C11.5942 30.0165 11.7458 30.3612 11.7458 30.724V35.5498" stroke="#363535" stroke-width="2" stroke-miterlimit="10" stroke-linecap="round" stroke-linejoin="round"/>
<path d="M14.0607 8.22156L9.35889 3.51976C9.11156 3.27252 8.77626 3.13357 8.42663 3.13357H4.08545" stroke="#363535" stroke-width="2" stroke-miterlimit="10" stroke-linecap="round" stroke-linejoin="round"/>
<path d="M10.3247 17.1799H3.90967" stroke="#363535" stroke-width="2" stroke-miterlimit="10" stroke-linecap="round" stroke-linejoin="round"/>
<path d="M14.0225 25.9591L7.47628 32.5053C7.22904 32.7525 7.09009 33.0878 7.09009 33.4375V35.3069" stroke="#363535" stroke-width="2" stroke-miterlimit="10" stroke-linecap="round" stroke-linejoin="round"/>
<path d="M3.71498 3.13362C3.71498 3.89985 3.09386 4.52106 2.32754 4.52106C1.56131 4.52106 0.940186 3.89985 0.940186 3.13362C0.940186 2.36739 1.56131 1.74617 2.32754 1.74617C3.09386 1.74617 3.71498 2.36739 3.71498 3.13362Z" stroke="#363535" stroke-width="2" stroke-miterlimit="10" stroke-linecap="round" stroke-linejoin="round"/>
<path d="M3.71498 17.1798C3.71498 17.946 3.09386 18.5673 2.32754 18.5673C1.56131 18.5673 0.940186 17.946 0.940186 17.1798C0.940186 16.4136 1.56131 15.7924 2.32754 15.7924C3.09386 15.7924 3.71498 16.4136 3.71498 17.1798Z" stroke="#363535" stroke-width="2" stroke-miterlimit="10" stroke-linecap="round" stroke-linejoin="round"/>
<path d="M8.47752 37.0647C8.47752 37.8309 7.8564 38.4521 7.09008 38.4521C6.32385 38.4521 5.70264 37.8309 5.70264 37.0647C5.70264 36.2985 6.32385 35.6773 7.09008 35.6773C7.8564 35.6773 8.47752 36.2985 8.47752 37.0647Z" stroke="#363535" stroke-width="2" stroke-miterlimit="10" stroke-linecap="round" stroke-linejoin="round"/>
<path d="M16.45 15.8569C17.0621 12.8655 19.7089 10.6152 22.8813 10.6152C26.5068 10.6152 29.4458 13.5543 29.4458 17.1799C29.4458 20.8055 26.5068 23.7445 22.8813 23.7445C19.7566 23.7445 17.1417 21.5614 16.479 18.6372M34.8355 14.9332H31.9779C31.7829 14.9332 31.6121 14.8046 31.5569 14.6177C31.3749 14.0012 31.1291 13.4123 30.827 12.8582C30.7336 12.6869 30.7633 12.4749 30.9014 12.337L32.9228 10.3155C33.0944 10.144 33.0944 9.86563 32.9228 9.69407L30.3671 7.1383C30.1954 6.96673 29.9173 6.96673 29.7455 7.1383L27.724 9.15978C27.5861 9.29777 27.3741 9.32748 27.2029 9.23414C26.6489 8.93206 26.0599 8.68614 25.4434 8.5042C25.2564 8.4491 25.1278 8.27815 25.1278 8.0833V5.22562C25.1278 4.98295 24.9311 4.78617 24.6884 4.78617H21.0741C20.8314 4.78617 20.6346 4.98295 20.6346 5.22562V8.0833C20.6346 8.27815 20.5059 8.4491 20.3191 8.5042C19.7026 8.68614 19.1137 8.93206 18.5596 9.23414C18.3883 9.32748 18.1763 9.29777 18.0383 9.15978L16.0169 7.1383C15.8453 6.96673 15.567 6.96673 15.3954 7.1383L12.8397 9.69407C12.6681 9.86563 12.6681 10.144 12.8397 10.3155L14.8612 12.337C14.9991 12.4749 15.0289 12.6869 14.9355 12.8582C14.6334 13.4123 14.3874 14.0012 14.2056 14.6177C14.1505 14.8046 13.9795 14.9332 13.7847 14.9332H10.927C10.6842 14.9332 10.4875 15.13 10.4875 15.3727V18.987C10.4875 19.2298 10.6842 19.4265 10.927 19.4265H13.7847C13.9795 19.4265 14.1505 19.5551 14.2056 19.7421C14.3874 20.3585 14.6334 20.9475 14.9355 21.5016C15.0289 21.6729 14.9991 21.8848 14.8612 22.0227L12.8397 24.0442C12.6681 24.2158 12.6681 24.4941 12.8397 24.6657L15.3954 27.2214C15.567 27.393 15.8453 27.393 16.0169 27.2214L18.0383 25.2C18.1763 25.062 18.3883 25.0322 18.5596 25.1256C19.1137 25.4277 19.7026 25.6736 20.3191 25.8556C20.5059 25.9107 20.6346 26.0815 20.6346 26.2765V29.1342C20.6346 29.3768 20.8314 29.5736 21.0741 29.5736H24.6884C24.9311 29.5736 25.1278 29.3768 25.1278 29.1342V26.2765C25.1278 26.0815 25.2564 25.9107 25.4434 25.8556C26.0599 25.6736 26.6489 25.4277 27.2029 25.1256C27.3741 25.0322 27.5861 25.062 27.724 25.2L29.7455 27.2214C29.9173 27.393 30.1954 27.393 30.3671 27.2214L32.9228 24.6657C33.0944 24.4941 33.0944 24.2158 32.9228 24.0442L30.9014 22.0227C30.7633 21.8848 30.7336 21.6729 30.827 21.5016C31.1291 20.9475 31.3749 20.3585 31.5569 19.7421C31.6121 19.5551 31.7829 19.4265 31.9779 19.4265H34.8355C35.0782 19.4265 35.275 19.2298 35.275 18.987V15.3727C35.275 15.13 35.0782 14.9332 34.8355 14.9332Z" stroke="#363535" stroke-width="2" stroke-miterlimit="10" stroke-linecap="round" stroke-linejoin="round"/>
</g>
</g>
<defs>
<clipPath id="clip0_1_72">
<rect width="45" height="45" fill="white"/>
</clipPath>
</defs>
</svg>
