<svg width="101" height="100" viewBox="0 0 101 100" fill="none" xmlns="http://www.w3.org/2000/svg">
<g clip-path="url(#clip0_51_2216)">
<path d="M55.789 6.74471L63.1933 1.63255L67.1067 9.71294L75.1659 6.69059L77.0549 15.078L85.7941 14.5337L85.1863 23.4016L93.6055 24.5537L90.6922 32.8773L98.5996 36.9427L93.4773 43.6016L100.392 49.78L93.6055 55.318L98.6635 62.6812L90.8522 66.7467L94.0855 75.518L84.5459 76.1584L86.9149 85.1859L77.0549 84.7059L75.262 93.2533L67.291 90.2122L63.1294 98.0553L56.0545 93.0294L50.3243 99.7518L44.3698 93.0933L37.3588 98.0871L33.1333 90.2761L25.002 93.2855L24.1698 84.2898L14.502 85.3463L15.142 75.8384L5.95451 75.7424L9.7 66.8427L1.76078 62.6812L6.40235 55.4463L0 49.9078L6.43451 44.0494L1.76078 37.1988L9.57177 32.749L6.75451 25.002L15.1741 23.1133L14.6298 14.4698L23.4333 15.1102L25.1941 6.40235L33.3255 9.66784L37.2627 1.60078L44.3698 6.53059L50.1961 0L55.789 6.74471Z" fill="#C82334"/>
<path d="M83.5673 63.5176C83.5673 71.4329 68.9854 77.8498 50.9975 77.8498C33.0097 77.8498 18.4277 71.4329 18.4277 63.5176C18.4277 55.6019 33.0097 49.1851 50.9975 49.1851C68.9854 49.1851 83.5673 55.6019 83.5673 63.5176Z" fill="#B8271A"/>
<path d="M49.3184 24.1846L59.907 42.7622L59.3133 57.8618L75.5478 64.7234L80.914 32.8873L49.3184 24.1846Z" fill="#CCB463"/>
<path d="M80.9144 32.8874L82.452 28.5396C82.452 28.5396 79.5151 47.5901 79.1097 50.138C78.7042 52.6858 75.9246 64.4411 75.9246 64.4411L75.5481 64.7235L77.083 55.4945L57.452 48.6611L58.263 46.3741L77.5751 52.5992L78.7622 45.7368L54.2383 37.8905L54.2673 35.2266L79.1097 42.8125L80.9144 32.8874Z" fill="#DFD26F"/>
<path d="M18.0674 30.708L21.8827 58.1606C21.8827 58.1606 21.929 66.0225 32.2262 71.4029C42.5231 76.7833 58.6642 74.4641 58.6642 74.4641L59.907 42.7625C56.7952 43.2284 53.4791 43.4802 50.0372 43.4802C33.8968 43.4802 20.5191 37.9464 18.0674 30.708Z" fill="#E6D273"/>
<path d="M59.0357 64.5844C43.9612 65.744 30.8299 63.1409 21.1357 52.7974L21.6463 56.566C29.5981 65.3785 42.822 68.0856 58.9197 67.4832L59.0357 64.5844Z" fill="white"/>
<path d="M59.4765 53.8004C44.402 54.96 29.5369 53.8255 19.8428 43.4819L20.302 46.829C28.2538 55.6415 43.2169 57.3015 59.3141 56.6992L59.4765 53.8004Z" fill="white"/>
<path d="M82.4127 28.3126C82.4127 29.9071 81.8876 31.4439 80.9143 32.8875L49.3186 24.1847L59.9072 42.7624C56.7954 43.2283 53.4794 43.48 50.0374 43.48C32.157 43.48 17.6621 36.6894 17.6621 28.3126C17.6621 19.9361 32.157 13.1455 50.0374 13.1455C67.9178 13.1455 82.4127 19.9361 82.4127 28.3126Z" fill="white"/>
<path d="M18.8084 76.0779C17.7064 75.401 16.7049 75.1508 15.5025 75.1508C12.6472 75.1508 10.9692 77.2045 10.9692 80.9614C10.9692 84.7935 12.6974 86.872 15.6527 86.872C16.8049 86.872 17.857 86.5214 18.9339 85.8704L19.1092 89.2269C17.8319 89.7273 16.479 89.9532 15.0264 89.9532C10.0174 89.9532 6.76172 86.5214 6.76172 80.9614C6.76172 75.4516 10.0425 71.9951 14.9013 71.9951C16.279 71.9951 17.6315 72.2708 19.0088 72.8214L18.8084 76.0779Z" fill="white"/>
<path d="M31.0312 87.0228C31.0312 87.8993 31.0559 88.7758 31.1814 89.6777H27.625L27.4748 87.9997C26.4728 89.302 25.1952 89.9534 23.6426 89.9534C21.4136 89.9534 19.8857 88.3754 19.8857 85.9707C19.8857 83.1158 22.0399 81.4875 26.0469 81.4875H27.3242V81.1118C27.3242 79.7346 26.4477 79.0083 24.8199 79.0083C23.6426 79.0083 22.4403 79.4338 21.4387 80.2099L21.2383 77.3299C22.841 76.7291 24.3438 76.4287 25.7214 76.4287C30.0042 76.4287 31.0312 78.1817 31.0312 82.2389V87.0228ZM26.1971 83.5417C24.394 83.5417 23.4422 84.2428 23.4422 85.595C23.4422 86.6722 24.0936 87.3236 25.1453 87.3236C26.6732 87.3236 27.3242 86.3217 27.3242 84.3177V83.5915C26.8736 83.5417 26.4728 83.5417 26.1971 83.5417Z" fill="white"/>
<path d="M37.3685 70.918V81.9635L40.7246 76.7039H44.5818L40.6748 82.6144L44.9324 89.6776H40.7246L37.3685 83.5662V89.6776H33.5869V70.918H37.3685Z" fill="white"/>
<path d="M51.8696 87.2985C53.0221 87.2985 54.1488 86.9475 55.2762 86.2962L55.4013 89.0766C54.0488 89.6777 52.6213 89.9534 51.3441 89.9534C47.2864 89.9534 44.9072 87.5236 44.9072 83.266C44.9072 79.1581 47.1613 76.4287 50.4672 76.4287C53.9739 76.4287 56.0523 78.9075 56.0523 83.366C56.0523 83.6417 56.0523 83.9169 56.0272 84.2177H48.7143C48.9143 86.2711 49.9413 87.2985 51.8696 87.2985ZM52.546 81.5381C52.546 79.935 51.8696 79.0083 50.7178 79.0083C49.3908 79.0083 48.7641 80.0099 48.639 82.1134H52.521C52.521 81.7879 52.546 81.613 52.546 81.5381Z" fill="white"/>
<path d="M63.4358 71.6914C65.4931 71.6914 67.0692 71.8247 68.1919 72.4926C69.9284 73.5079 70.8366 75.2718 70.8366 77.6228C70.8366 81.4973 68.5656 83.4475 64.077 83.4475H63.0617V90.2342H58.8135V71.6914H63.4358ZM63.0617 80.3216H64.0503C65.9476 80.3216 66.6954 79.5463 66.6954 77.5161C66.6954 75.4318 65.8401 74.7906 63.9433 74.7906H63.0617V80.3216Z" fill="black"/>
<path d="M75.9387 71.6914V78.9855H80.454V71.6914H84.7022V90.2342H80.454V82.3522H75.9387V90.2342H71.6904V71.6914H75.9387Z" fill="black"/>
<path d="M91.4075 71.6914C93.4648 71.6914 95.0412 71.8247 96.1636 72.4926C97.9001 73.5079 98.8083 75.2718 98.8083 77.6228C98.8083 81.4973 96.5373 83.4475 92.0487 83.4475H91.0334V90.2342H86.7852V71.6914H91.4075ZM91.0334 80.3216H92.022C93.9193 80.3216 94.6671 79.5463 94.6671 77.5161C94.6671 75.4318 93.8122 74.7906 91.915 74.7906H91.0334V80.3216Z" fill="black"/>
</g>
<defs>
<clipPath id="clip0_51_2216">
<rect width="100.392" height="100" fill="white"/>
</clipPath>
</defs>
</svg>
