<svg width="100" height="100" viewBox="0 0 100 100" fill="none" xmlns="http://www.w3.org/2000/svg">
<path d="M12.2051 94.5085C10.4932 94.5085 9.99541 93.512 9.99541 92.0185C9.99541 91.5207 10.0581 90.9594 10.1351 90.3679C10.5099 87.785 11.4254 86.3074 13.635 86.3074C15.1293 86.3074 15.8582 86.976 15.8582 88.19V88.7815H17.3405C17.3572 88.7815 17.3572 88.2368 17.3572 88.113C17.3572 86.3392 16.283 84.6567 13.6374 84.6567C10.0423 84.6567 8.56386 86.6099 8.01919 90.4385C7.94138 90.9522 7.89453 91.4318 7.89453 91.9439C7.89453 94.2004 8.7822 96.2529 11.9565 96.2529C14.3687 96.2529 15.801 95.077 16.641 93.6295L15.2246 92.676C14.3067 94.1234 13.3103 94.5085 12.2051 94.5085ZM21.9321 87.3809C19.0524 87.3809 17.8082 88.8585 17.3882 91.7994C17.3405 92.1432 17.3096 92.5005 17.3096 92.8268C17.3096 94.7252 18.1964 96.2354 20.6546 96.2354C23.5344 96.2354 24.7952 94.6943 25.2152 91.7994C25.2621 91.4262 25.2931 91.084 25.2931 90.7418C25.2939 88.8124 24.376 87.3809 21.9321 87.3809ZM23.1303 91.8002C22.819 93.9328 22.1505 94.5863 20.8888 94.5863C19.8781 94.5863 19.3803 94.1663 19.3803 92.9054C19.3803 92.5942 19.412 92.221 19.474 91.8002C19.7852 89.6842 20.4077 89.0308 21.6836 89.0308C22.711 89.0308 23.2239 89.4508 23.2239 90.7267C23.2239 91.038 23.1922 91.3961 23.1303 91.8002ZM32.5318 84.8116L32.0498 87.6683C32.0189 87.9168 32.0348 87.8343 32.1284 88.0677C31.6775 87.7255 30.8676 87.4992 30.3229 87.4992C27.7393 87.4992 26.2927 88.6687 25.8258 91.9368C25.7639 92.3258 25.748 92.6537 25.748 92.9801C25.748 95.362 27.1486 96.2497 29.0311 96.2497C29.8259 96.2497 30.6032 96.2664 31.2098 95.7534L31.3646 96.7213H32.8589L34.6017 84.8116H32.5318ZM31.0534 94.1345C30.3539 94.5537 29.6695 94.6482 29.2495 94.6482C28.1133 94.6482 27.802 94.0567 27.802 93.1079C27.802 92.7498 27.8489 92.3306 27.9116 91.878C28.2689 89.404 29.0629 88.9673 30.0903 88.9673C30.7588 88.9673 31.2717 89.0768 31.7553 89.342L31.0534 94.1345ZM39.1465 87.3809C36.2976 87.3809 34.9606 88.7338 34.5088 91.7994C34.4612 92.1734 34.4302 92.5315 34.4302 92.8737C34.4302 94.9745 35.5045 96.2354 37.8689 96.2354C39.7054 96.2354 41.0758 95.4724 41.8071 94.0718L40.235 93.4334C39.784 94.1178 39.1774 94.5847 38.1032 94.5847C36.9519 94.5847 36.485 94.275 36.485 93.2476C36.485 93.0452 36.5009 92.7506 36.5319 92.7506H42.1493C42.2279 91.9566 42.32 91.3953 42.32 90.93C42.32 89.3746 41.7293 87.3809 39.1465 87.3809ZM40.2199 91.1634H36.7963C37.1393 90.3694 37.7141 89.1404 38.8971 89.1404C39.815 89.1404 40.2668 89.6771 40.2668 90.5949C40.266 90.7506 40.2517 91.1634 40.2199 91.1634ZM48.309 87.1935L48.4956 85.6056H44.1065L43.9207 87.1935H45.0719L43.8278 95.1333H42.6749L42.4891 96.7213H46.8775L47.0648 95.1333H45.9128L47.1569 87.1935H48.309ZM57.227 89.5755L57.7876 87.9875H56.2782L55.1897 88.2122C54.5823 87.8239 53.7573 87.5325 52.98 87.5325C50.7537 87.5325 48.8561 88.6076 48.8561 91.0515C48.8561 91.7367 49.1046 92.2901 49.3999 92.6641C48.9339 92.9126 48.5289 93.3286 48.5289 93.89C48.5289 94.1385 48.6218 94.3933 48.8092 94.626C47.8747 95.1873 47.3007 96.1171 47.3007 97.2056C47.3007 99.3073 49.4944 99.7559 51.1753 99.7559C53.2912 99.7559 55.8129 99.2724 55.8129 96.58C55.8129 95.6621 55.2373 94.9452 53.5723 94.6339L50.5687 94.0726C50.2265 94.0098 50.1487 93.9011 50.1487 93.7455C50.1487 93.512 50.29 93.3882 50.5226 93.3882L50.7251 93.4191C51.13 93.512 51.5969 93.5597 52.0788 93.5597C54.2424 93.5597 56.1718 92.6251 56.1718 90.1979C56.1718 89.8549 56.1099 89.6231 55.9543 89.2491C56.2187 89.3738 56.5617 89.5763 56.7006 89.5763H57.227V89.5755ZM52.9482 96.017C53.539 96.1266 53.7406 96.3442 53.7406 96.7332C53.7406 97.9941 52.3869 98.1497 51.4071 98.1497C49.9129 98.1497 49.3531 97.7924 49.3531 96.9976C49.3531 96.2973 49.5548 95.971 50.0224 95.4724L52.9482 96.017ZM52.3091 91.9407C51.4063 91.9407 50.9085 91.6144 50.9085 90.8355C50.9085 89.6842 51.5778 89.0149 52.745 89.0149C53.6787 89.0149 54.1305 89.404 54.1305 90.1654C54.1305 91.3175 53.4762 91.9407 52.3091 91.9407ZM62.7555 87.3809C61.8837 87.3809 61.1064 87.8089 60.1409 88.5703L60.0012 87.9875H58.2886L57.0904 96.7213H59.1604L60.0631 90.0979C60.6705 89.7247 61.4169 89.1824 62.0552 89.1824C62.8325 89.1824 63.1136 89.558 63.1136 90.2734C63.1136 90.4449 63.0969 90.9522 63.066 91.1388L62.3045 96.7213H64.3744L65.1359 91.0936C65.1676 90.83 65.1986 90.3964 65.1986 90.1479C65.1994 88.6679 64.4983 87.3809 62.7555 87.3809ZM69.1304 94.5331L69.1463 94.3195L70.0482 87.9875H66.6087L66.3919 89.5755H67.9005C67.7759 89.5755 67.698 89.7144 67.683 89.8399L67.0605 94.0567C67.0295 94.26 67.0144 94.6824 67.0144 94.8523C67.0144 95.9416 67.6052 96.7213 68.8184 96.7213H69.8767L70.1102 95.1333H69.4416C69.2074 95.1333 69.1304 94.7197 69.1304 94.5331ZM70.4683 84.8116H68.4452C68.3205 84.8116 68.3205 84.3534 68.3054 84.5091L68.0244 86.7465C68.0085 86.887 68.0085 87.1935 68.1332 87.1935H70.157C70.2817 87.1935 70.2817 86.6496 70.2968 86.5083L70.5778 84.7814C70.5937 84.6258 70.5937 84.8116 70.4683 84.8116ZM74.6891 94.5863C74.1761 94.5863 73.9268 94.3679 73.9268 93.9019L73.9427 93.8701L74.5962 89.5755H76.9614L77.6768 87.9875H74.8137L75.2957 84.4932L73.1178 85.1895L72.7279 87.9875H71.4679L71.2503 89.5755H72.7128C72.5731 90.3694 72.4326 89.8541 72.4175 90.0106L71.8569 93.7764C71.826 93.9479 71.826 94.0726 71.826 94.2274C71.826 95.7058 72.9153 96.2592 74.2238 96.2592C75.437 96.2592 76.4176 95.9051 77.1806 95.2659L76.2151 94.0781C75.7316 94.3735 75.4052 94.5863 74.6891 94.5863ZM82.2835 87.3809C79.4355 87.3809 78.0976 88.7338 77.6458 91.7994C77.599 92.1734 77.568 92.5315 77.568 92.8737C77.568 94.9745 78.6415 96.2354 81.0068 96.2354C82.8433 96.2354 84.2137 95.4724 84.9441 94.0718L83.3728 93.4334C82.9219 94.1178 82.3145 94.5847 81.2402 94.5847C80.0897 94.5847 79.6221 94.275 79.6221 93.2476C79.6221 93.0452 79.6387 92.7506 79.6697 92.7506H85.2871C85.3649 91.9566 85.4586 91.3953 85.4586 90.93C85.4586 89.3746 84.8671 87.3809 82.2835 87.3809ZM83.3578 91.1634H79.9341C80.2763 90.3694 80.8512 89.1404 82.035 89.1404C82.9528 89.1404 83.4046 89.6771 83.4046 90.5949C83.4038 90.7506 83.3887 91.1634 83.3578 91.1634ZM91.1856 87.3809C90.4385 87.3809 89.7382 87.8089 89.0379 88.4766L88.9132 87.9875H87.2022L86.0033 96.7213H88.0891L89.0069 89.9582C89.5516 89.6318 90.1741 89.3531 90.7656 89.3531C91.1396 89.3531 91.4969 89.2936 91.8391 89.3404L92.1051 87.5357C91.7922 87.4738 91.481 87.3809 91.1856 87.3809ZM38.3358 78.5558C33.6251 76.52 29.2169 71.3448 29.2066 66.0498C29.1939 60.2767 32.8526 55.3755 37.4029 52.1543C36.8558 54.221 36.5573 56.1115 37.9126 57.9599C39.1727 59.6789 41.3791 60.5141 43.4625 60.0608C48.3312 58.9952 48.5543 53.643 45.6682 50.525C42.8147 47.4372 40.054 43.9493 41.1401 39.4712C41.684 37.2266 43.0624 35.1242 44.8083 33.6212C43.4665 37.148 47.28 40.6265 49.793 42.3589C54.1519 45.365 58.9341 47.6365 62.9421 51.1602C67.1581 54.8634 70.2713 59.871 69.6425 65.6782C68.9613 71.9729 63.9592 76.3509 58.3489 78.5613C70.2047 75.9444 82.455 66.7429 82.7059 53.5938C82.9139 42.7766 75.4934 34.4517 66.3006 29.6854L65.8203 29.4234C66.0728 30.0355 66.1553 30.5564 66.1458 31.0225C66.2284 30.6787 66.284 30.3253 66.2998 29.9609C66.2959 30.4143 66.2379 30.8422 66.1315 31.244L66.1458 31.0225C66.0077 31.606 65.7758 32.1483 65.4654 32.6446L65.6003 32.4993C63.7663 35.541 58.8015 36.2016 56.3489 33.0519C52.406 27.9855 56.4314 22.5229 56.9944 17.158C57.6994 10.4337 53.4826 3.90639 48.2542 0C51.134 4.65829 47.3404 10.8212 44.305 14.2663C41.3617 17.6066 37.7824 20.395 34.5334 23.4296C31.0431 26.6889 27.6877 30.1221 24.8191 33.9475C19.0817 41.6039 15.5692 51.2333 18.1504 60.7857C20.73 70.3309 28.9986 76.4073 38.3358 78.5558Z" fill="#EE4323"/>
</svg>
