<svg width="100" height="100" viewBox="0 0 100 100" fill="none" xmlns="http://www.w3.org/2000/svg">
<path d="M10.7723 73.5896L14.3662 75.6646L54.4037 6.3196L50.8098 4.2446L10.7723 73.5896Z" fill="#E535AB"/>
<path d="M90.0242 68.0498H9.94922V72.1998H90.0242V68.0498Z" fill="#E535AB"/>
<path d="M11.5344 70.3809L51.5869 93.5059L53.6619 89.912L13.6094 66.787L11.5344 70.3809Z" fill="#E535AB"/>
<path d="M46.3284 10.1113L86.3809 33.2363L88.4559 29.6424L48.4034 6.51743L46.3284 10.1113Z" fill="#E535AB"/>
<path d="M11.5451 29.6268L13.6201 33.2207L53.6726 10.0957L51.5976 6.5018L11.5451 29.6268Z" fill="#E535AB"/>
<path d="M45.6041 6.32058L85.6416 75.6655L89.2355 73.5905L49.198 4.24558L45.6041 6.32058Z" fill="#E535AB"/>
<path d="M17.275 26.875H13.125V73.125H17.275V26.875Z" fill="#E535AB"/>
<path d="M86.8746 26.875H82.7246V73.125H86.8746V26.875Z" fill="#E535AB"/>
<path d="M49.0674 88.6108L50.8799 91.75L85.7147 71.6375L83.9022 68.4983L49.0674 88.6108Z" fill="#E535AB"/>
<path d="M92.375 74.4748C89.975 78.6498 84.625 80.0748 80.45 77.6748C76.275 75.2748 74.85 69.9248 77.25 65.7498C79.65 61.5748 85 60.1498 89.175 62.5498C93.375 64.9748 94.8 70.2998 92.375 74.4748Z" fill="#E535AB"/>
<path d="M22.7246 34.2497C20.3246 38.4247 14.9746 39.8497 10.7996 37.4497C6.62459 35.0497 5.19959 29.6997 7.59959 25.5247C9.99959 21.3497 15.3496 19.9247 19.5246 22.3247C23.6996 24.7497 25.1246 30.0747 22.7246 34.2497Z" fill="#E535AB"/>
<path d="M7.62498 74.4748C5.22498 70.2998 6.64998 64.9748 10.825 62.5498C15 60.1498 20.325 61.5748 22.75 65.7498C25.15 69.9248 23.725 75.2498 19.55 77.6748C15.35 80.0748 10.025 78.6498 7.62498 74.4748Z" fill="#E535AB"/>
<path d="M77.2744 34.2497C74.8744 30.0747 76.2994 24.7497 80.4744 22.3247C84.6494 19.9247 89.9744 21.3497 92.3994 25.5247C94.7994 29.6997 93.3744 35.0247 89.1994 37.4497C85.0244 39.8497 79.6744 38.4247 77.2744 34.2497Z" fill="#E535AB"/>
<path d="M49.9994 98.95C45.1744 98.95 41.2744 95.05 41.2744 90.225C41.2744 85.4 45.1744 81.5 49.9994 81.5C54.8244 81.5 58.7244 85.4 58.7244 90.225C58.7244 95.025 54.8244 98.95 49.9994 98.95Z" fill="#E535AB"/>
<path d="M49.9994 18.4998C45.1744 18.4998 41.2744 14.5998 41.2744 9.7748C41.2744 4.9498 45.1744 1.0498 49.9994 1.0498C54.8244 1.0498 58.7244 4.9498 58.7244 9.7748C58.7244 14.5998 54.8244 18.4998 49.9994 18.4998Z" fill="#E535AB"/>
</svg>
