<svg width="100" height="100" viewBox="0 0 100 100" fill="none" xmlns="http://www.w3.org/2000/svg">
<path fill-rule="evenodd" clip-rule="evenodd" d="M41.6962 52.7757C41.6962 52.7757 39.3077 54.1655 43.3978 54.635C48.3544 55.201 50.8861 55.1196 56.3463 54.0867C56.3463 54.0867 57.7839 54.9868 59.7906 55.7655C47.5466 61.012 32.0804 55.462 41.6962 52.7757ZM40.1995 45.9292C40.1995 45.9292 37.5199 47.9125 41.6137 48.3359C46.9085 48.8827 51.0879 48.9273 58.3245 47.5349C58.3245 47.5349 59.3237 48.5491 60.8961 49.1032C46.0945 53.4325 29.6094 49.444 40.1995 45.9292Z" fill="#3174B9"/>
<path fill-rule="evenodd" clip-rule="evenodd" d="M52.8114 34.3144C55.8297 37.7887 52.0202 40.9134 52.0202 40.9134C52.0202 40.9134 59.6807 36.9597 56.1622 32.0068C52.8772 27.3901 50.3575 25.0965 63.997 17.187C63.997 17.187 42.5865 22.5321 52.8114 34.3144Z" fill="#CA3132"/>
<path fill-rule="evenodd" clip-rule="evenodd" d="M69.0045 57.8403C69.0045 57.8403 70.7725 59.2981 67.057 60.4255C59.9915 62.5655 37.6446 63.2109 31.4373 60.5106C29.2075 59.5394 33.3911 58.1931 34.7072 57.9088C36.08 57.6121 36.8633 57.666 36.8633 57.666C34.382 55.9187 20.8244 61.0978 29.978 62.5836C54.938 66.6307 75.478 60.7616 69.0045 57.8403ZM42.8455 38.835C42.8455 38.835 31.4799 41.5353 38.8213 42.5168C41.9221 42.9313 48.0988 42.8359 53.8568 42.3529C58.5612 41.9581 63.2833 41.1135 63.2833 41.1135C63.2833 41.1135 61.6257 41.8248 60.4247 42.6434C48.8811 45.6799 26.5845 44.2657 33.0041 41.1617C38.4316 38.5361 42.8455 38.835 42.8455 38.835ZM63.2361 50.2312C74.9695 44.1354 69.5446 38.2762 65.7569 39.0658C64.8308 39.2593 64.4153 39.4264 64.4153 39.4264C64.4153 39.4264 64.7608 38.8858 65.4176 38.6534C72.9094 36.0205 78.6701 46.4207 63.0021 50.5394C63.0016 50.5394 63.1821 50.3765 63.2361 50.2312Z" fill="#3174B9"/>
<path fill-rule="evenodd" clip-rule="evenodd" d="M56.1627 4.41162C56.1627 4.41162 62.6595 10.9126 49.9989 20.906C39.8457 28.9255 47.6841 33.4966 49.9958 38.7213C44.0681 33.3741 39.7201 28.6661 42.6367 24.2855C46.9188 17.855 58.7841 14.7366 56.1627 4.41162Z" fill="#CA3132"/>
<path fill-rule="evenodd" clip-rule="evenodd" d="M44 66.7549C55.2608 67.475 72.5568 66.3549 72.9671 61.0254C72.9671 61.0254 72.1796 63.0456 63.6595 64.6481C54.0469 66.4576 42.1889 66.247 35.1582 65.0865C35.1582 65.0865 36.5989 66.2787 44 66.7549Z" fill="#3174B9"/>
<path fill-rule="evenodd" clip-rule="evenodd" d="M72.4466 76.3118H72.1041V76.1198H73.0281V76.3118H72.6857V77.2705H72.4466V76.3118ZM74.2903 76.3595H74.2862L73.9459 77.27H73.7897L73.4514 76.3595H73.4473V77.27H73.2201V76.1193H73.5537L73.867 76.9333L74.1803 76.1193H74.5108V77.27H74.2908L74.2903 76.3595ZM42.1544 87.1156C41.0924 88.0359 39.9697 88.5537 38.9617 88.5537C37.5257 88.5537 36.7465 87.6909 36.7465 86.3104C36.7465 84.8158 37.5807 83.7222 40.9196 83.7222H42.1538L42.1544 87.1156ZM45.0855 90.4224V80.1856C45.0855 77.5693 43.5935 75.8428 39.9967 75.8428C37.8982 75.8428 36.0586 76.3611 34.5629 77.0215L34.9935 78.8347C36.1717 78.402 37.6948 78.001 39.19 78.001C41.262 78.001 42.1538 78.8347 42.1538 80.5607V81.8551H41.1183C36.085 81.8551 33.8138 83.8078 33.8138 86.7436C33.8138 89.2732 35.3105 90.7113 38.128 90.7113C39.9391 90.7113 41.2921 89.9638 42.5554 88.8696L42.7852 90.4224H45.0855ZM54.8684 90.4224H51.2135L46.8126 76.1032H50.0052L52.7367 84.9024L53.3447 87.5462C54.7226 83.7222 55.7005 79.8401 56.1897 76.1032H59.2942C58.4631 80.818 56.9658 85.9945 54.8684 90.4224ZM68.8949 87.1156C67.8298 88.0359 66.7072 88.5537 65.7012 88.5537C64.2652 88.5537 63.487 87.6909 63.487 86.3104C63.487 84.8158 64.3218 83.7222 67.6586 83.7222H68.8949V87.1156ZM71.8271 90.4224V80.1856C71.8271 77.5693 70.3304 75.8428 66.7373 75.8428C64.6367 75.8428 62.7976 76.3611 61.3019 77.0215L61.7325 78.8347C62.9107 78.402 64.4369 78.001 65.9326 78.001C68.0016 78.001 68.8944 78.8347 68.8944 80.5607V81.8551H67.8589C62.8251 81.8551 60.5553 83.8078 60.5553 86.7436C60.5553 89.2732 62.049 90.7113 64.867 90.7113C66.6797 90.7113 68.0306 89.9638 69.297 88.8696L69.5278 90.4224H71.8271ZM30.5999 92.8555C29.7646 94.0762 28.4137 95.0427 26.9367 95.588L25.4893 93.8832C26.6145 93.3058 27.5784 92.3735 28.0272 91.5061C28.4137 90.7331 28.575 89.7391 28.575 87.3599V71.0103H31.6904V87.1343C31.6904 90.3165 31.4362 91.6026 30.5999 92.8555Z" fill="#CA3132"/>
</svg>
