<svg width="200" height="100" viewBox="0 0 200 100" fill="none" xmlns="http://www.w3.org/2000/svg">
<path d="M177.973 42.2192C177.521 42.2192 177.081 42.3126 176.692 42.5327L164.382 49.6414C163.586 50.1002 163.102 50.9672 163.102 51.8891V66.0811C163.102 67.0026 163.586 67.8682 164.382 68.3284L167.597 70.181C169.159 70.9511 169.735 70.9387 170.446 70.9387C172.758 70.9387 174.078 69.5355 174.078 67.0967V53.0955C174.078 52.8975 173.907 52.7558 173.713 52.7558H172.171C171.973 52.7558 171.805 52.9011 171.805 53.0955V67.1039C171.805 68.185 170.679 69.2725 168.852 68.3586L165.51 66.3985C165.392 66.3342 165.301 66.2169 165.301 66.0851V51.8931C165.301 51.7587 165.391 51.6214 165.51 51.5535L177.794 44.4703C177.909 44.4041 178.046 44.4041 178.159 44.4703L190.443 51.5535C190.56 51.6236 190.652 51.7544 190.652 51.8931V66.0851C190.652 66.2205 190.585 66.3593 190.469 66.4247L178.16 73.5079C178.051 73.5708 177.906 73.5708 177.794 73.5079L174.632 71.6263C174.537 71.5711 174.409 71.5755 174.318 71.6263C173.445 72.1211 173.281 72.1785 172.463 72.4625C172.261 72.5326 171.954 72.642 172.567 72.9856L176.697 75.4193C177.09 75.6467 177.528 75.7589 177.977 75.7589C178.433 75.7589 178.865 75.65 179.258 75.4193L191.568 68.3361C192.364 67.8726 192.849 67.0102 192.849 66.0887V51.8968C192.849 50.9749 192.364 50.1096 191.568 49.649L179.258 42.5403C178.873 42.3202 178.43 42.2269 177.977 42.2269L177.973 42.2192ZM181.266 52.3603C177.761 52.3603 175.673 53.8521 175.673 56.3327C175.673 59.0207 177.745 59.7632 181.109 60.0959C185.134 60.49 185.448 61.081 185.448 61.8732C185.448 63.2474 184.352 63.8333 181.763 63.8333C178.51 63.8333 177.794 63.0211 177.555 61.3996C177.527 61.2259 177.393 61.0861 177.215 61.0861H175.617C175.521 61.0882 175.429 61.1274 175.361 61.1956C175.293 61.2637 175.253 61.3555 175.251 61.4519C175.251 63.5235 176.378 65.9732 181.759 65.9732C185.654 65.9732 187.901 64.4476 187.901 61.7654C187.901 59.1137 186.086 58.397 182.308 57.8968C178.494 57.3883 178.126 57.1449 178.126 56.2502C178.126 55.5121 178.435 54.5248 181.263 54.5248C183.788 54.5248 184.722 55.0697 185.105 56.7726C185.138 56.9324 185.279 57.0632 185.444 57.0632H187.043C187.141 57.0632 187.236 57.0029 187.304 56.9324C187.371 56.8572 187.418 56.7726 187.409 56.6709C187.162 53.738 185.206 52.3584 181.267 52.3584L181.266 52.3603Z" fill="#83CD29"/>
<path d="M105.604 23.6152C105.467 23.6155 105.332 23.6515 105.212 23.7198C105.094 23.7893 104.995 23.8885 104.926 24.0077C104.857 24.1269 104.821 24.2619 104.82 24.3995V44.3931C104.82 44.5893 104.729 44.7651 104.559 44.8635C104.475 44.9121 104.381 44.9377 104.284 44.9377C104.188 44.9377 104.093 44.9121 104.01 44.8635L100.743 42.9819C100.505 42.844 100.234 42.7714 99.9589 42.7714C99.6836 42.7714 99.4131 42.844 99.1748 42.9819L86.1337 50.5087C85.6462 50.7898 85.349 51.3311 85.349 51.8937V66.9476C85.3487 67.2231 85.421 67.4938 85.5587 67.7324C85.6964 67.971 85.8946 68.169 86.1333 68.3065L99.1748 75.8336C99.413 75.9719 99.6835 76.0447 99.9589 76.0447C100.234 76.0447 100.505 75.9719 100.743 75.8336L113.784 68.3065C114.023 68.169 114.221 67.971 114.359 67.7324C114.497 67.4938 114.569 67.2231 114.569 66.9476V29.4173C114.569 28.8463 114.257 28.3105 113.759 28.0323L105.997 23.6933C105.874 23.6254 105.739 23.6138 105.604 23.6152ZM21.7095 42.4065C21.4607 42.4167 21.2272 42.4599 21.0038 42.5896L7.9626 50.1164C7.7237 50.2536 7.52535 50.4516 7.38768 50.6903C7.25001 50.9289 7.17792 51.1997 7.17872 51.4753L7.20523 71.6785C7.20523 71.9596 7.35053 72.2204 7.59754 72.3578C7.83982 72.5031 8.14022 72.5031 8.38142 72.3578L16.1174 67.9146C16.6078 67.624 16.9274 67.1169 16.9274 66.556V57.1208C16.9274 56.5578 17.2235 56.042 17.712 55.7623L21.0052 53.8545C21.2432 53.7161 21.5138 53.6439 21.7891 53.6453C22.0645 53.6436 22.3353 53.7159 22.5733 53.8545L25.865 55.7612C26.3529 56.0409 26.6489 56.5574 26.6489 57.1197V66.5546C26.6489 67.1162 26.9758 67.6261 27.459 67.9131L35.195 72.3563C35.4383 72.5016 35.738 72.5016 35.9788 72.3563C36.2186 72.2183 36.3711 71.9578 36.3711 71.677L36.3973 51.4745C36.3988 51.1989 36.3271 50.9278 36.1893 50.689C36.0516 50.4502 35.8528 50.2523 35.6134 50.1156L22.5722 42.5892C22.3518 42.4599 22.1171 42.4163 21.8665 42.4062H21.7103L21.7095 42.4065ZM138.901 42.5896C138.625 42.5888 138.355 42.661 138.116 42.7988L125.075 50.326C124.588 50.6075 124.29 51.1222 124.29 51.6845V66.7384C124.29 67.3043 124.609 67.8172 125.1 68.0969L138.037 75.4707C138.515 75.7432 139.098 75.7639 139.579 75.4962L147.42 71.1314C147.669 70.9934 147.837 70.7355 147.837 70.4522C147.838 70.1689 147.691 69.9139 147.445 69.7729L134.325 62.2458C134.079 62.1056 133.907 61.8219 133.907 61.54V56.8327C133.907 56.5516 134.081 56.2937 134.325 56.1535L138.402 53.8011C138.644 53.6609 138.942 53.6609 139.186 53.8011L143.265 56.1535C143.385 56.2221 143.484 56.321 143.553 56.4403C143.622 56.5596 143.658 56.695 143.657 56.8327V60.544C143.657 60.6817 143.693 60.8171 143.762 60.9364C143.831 61.0557 143.93 61.1547 144.049 61.2233C144.294 61.3642 144.59 61.3649 144.834 61.2233L152.648 56.6765C153.133 56.3947 153.432 55.8785 153.432 55.318V51.6856C153.432 51.4102 153.36 51.1396 153.222 50.9011C153.085 50.6626 152.887 50.4644 152.648 50.3267L139.685 42.7996C139.447 42.6616 139.176 42.5894 138.901 42.5903L138.901 42.5896ZM99.9064 53.8283C99.9794 53.828 100.051 53.8459 100.116 53.8803L104.585 56.4677C104.706 56.5378 104.794 56.6675 104.794 56.8073V61.9821C104.794 62.1226 104.707 62.252 104.585 62.3217L100.116 64.9091C99.9939 64.9781 99.8454 64.9781 99.7233 64.9091L95.2543 62.3217C95.1326 62.2516 95.0451 62.1219 95.0451 61.9821V56.8066C95.0451 56.6664 95.133 56.5378 95.2543 56.4669L99.7233 53.8799C99.7843 53.8447 99.8381 53.8283 99.9064 53.8283Z" fill="#404137"/>
<path d="M60.8864 42.5106C60.611 42.5102 60.3404 42.5823 60.1018 42.7199L47.0603 50.2208C46.5728 50.502 46.2764 51.0436 46.2764 51.6059V66.6598C46.2756 66.9352 46.3478 67.206 46.4854 67.4446C46.6231 67.6832 46.8214 67.8811 47.0603 68.0183L60.1018 75.5454C60.34 75.6837 60.6104 75.7565 60.8858 75.7565C61.1612 75.7565 61.4317 75.6837 61.6699 75.5454L74.7114 68.0183C74.9501 67.8808 75.1484 67.6828 75.2861 67.4442C75.4238 67.2056 75.4961 66.9349 75.4957 66.6594V51.6055C75.4957 51.0425 75.1993 50.5013 74.7111 50.2205L61.6695 42.7195C61.4312 42.5813 61.1604 42.5091 60.8849 42.5103L60.8864 42.5106ZM138.875 55.9445C138.823 55.9445 138.765 55.9445 138.718 55.9699L136.209 57.4338C136.162 57.4597 136.123 57.4975 136.095 57.5434C136.068 57.5892 136.053 57.6415 136.052 57.6949V60.57C136.052 60.6782 136.115 60.777 136.209 60.8315L138.718 62.2689C138.761 62.2956 138.811 62.3097 138.861 62.3097C138.912 62.3097 138.962 62.2956 139.005 62.2689L141.514 60.8315C141.607 60.7781 141.671 60.6782 141.671 60.57V57.6949C141.671 57.5867 141.607 57.4879 141.514 57.4334L139.005 55.9695C138.958 55.9419 138.926 55.9441 138.874 55.9441L138.875 55.9445Z" fill="#83CD29"/>
</svg>
