<svg width="200" height="100" viewBox="0 0 200 100" fill="none" xmlns="http://www.w3.org/2000/svg">
<path d="M72.067 63.9968C80.8639 63.9968 87.9953 56.8654 87.9953 48.0685C87.9953 39.2715 80.8639 32.1401 72.067 32.1401C63.27 32.1401 56.1387 39.2715 56.1387 48.0685C56.1387 56.8654 63.27 63.9968 72.067 63.9968Z" fill="white"/>
<path d="M173.567 60.6418V57.2785C171.929 58.1718 170.117 58.5335 168.567 58.5335C165.395 58.5335 163.204 56.9368 163.055 53.3002H174.314C174.447 52.3695 174.511 51.4303 174.505 50.4902C174.505 46.4235 172.122 43.3235 167.865 43.2968C162.672 43.2535 159.415 47.0418 159.415 52.8735V52.9568C159.415 58.4685 162.969 61.7235 168.249 61.7235C170.015 61.7018 172.015 61.3835 173.569 60.6402M167.735 46.2102C170.012 46.2102 171.14 47.8068 171.14 50.2768V50.4685H163.287C163.797 47.7018 165.354 46.2118 167.737 46.2118M150.54 53.7668L150.924 53.9335C153.499 54.8702 154.095 55.4235 154.095 56.5935C154.095 57.9552 153.074 58.7002 150.924 58.7002C149.2 58.7002 147.179 58.1468 145.135 57.1668V60.7002C146.859 61.3602 148.965 61.7218 150.775 61.7218C155.309 61.7218 157.629 59.5552 157.629 56.5285C157.629 53.8685 156.374 52.2285 152.629 50.8885L152.245 50.7218C149.412 49.7002 148.84 49.1252 148.84 48.1052C148.84 46.9768 149.777 46.1468 151.82 46.1468C153.417 46.1468 155.034 46.7002 156.779 47.5085V44.2085C155.289 43.6552 153.692 43.2718 151.945 43.2718C147.945 43.2718 145.434 45.4635 145.434 48.5502C145.434 51.0168 146.689 52.3602 150.562 53.7635M137.112 49.3368C138.24 47.6135 139.857 46.6768 141.837 46.6768C142.497 46.6768 143.242 46.7602 143.795 46.9535V43.7818C143.164 43.5704 142.503 43.4624 141.837 43.4618C139.77 43.4618 138.24 44.3552 136.837 46.1652L136.667 43.6752H133.624V61.3418H137.074V49.3335L137.112 49.3368ZM127.279 61.3818H130.322V49.4652C130.322 45.2718 128.215 43.2485 123.83 43.2485C121.724 43.2485 119.53 43.9085 117.892 44.7818V48.1868C119.85 47.0168 121.959 46.3135 123.639 46.3135C125.98 46.3135 126.915 47.3352 126.915 49.2085V50.6135C122.105 50.8052 119.212 51.5918 117.722 53.0802C116.659 54.1018 116.125 55.5468 116.125 56.9968C116.125 60.0402 118.359 61.7635 121.404 61.7635C123.362 61.7635 125.32 60.9768 127.044 59.3368L127.279 61.3818ZM122.112 58.8485C120.622 58.8485 119.6 58.0618 119.6 56.7418C119.6 54.6752 121.324 53.5285 126.879 53.3368V56.4235C125.579 57.8702 124.045 58.8502 122.112 58.8502M102.32 50.5502V41.4418H106.854C109.94 41.4418 111.687 42.8885 111.687 45.9318V45.9752C111.687 49.0618 109.92 50.5085 106.854 50.5085H102.32V50.5502ZM98.6803 61.3835H102.32V53.8068H106.577C112.047 53.8068 115.244 50.9118 115.244 46.0168V45.9735C115.244 41.1402 111.967 38.2268 106.577 38.2268H98.682L98.6803 61.3835ZM60.4136 57.2802H45.7053C43.562 57.2802 42.3153 58.6018 42.3153 60.4968C42.3153 62.1918 43.4619 63.3885 45.1069 63.3885C47.0269 63.3885 48.1069 62.0668 48.2236 60.1718H52.487C52.262 64.8085 49.3703 67.2768 45.0569 67.2768C41.0186 67.2768 38.0019 64.5352 38.0019 60.4435C38.0019 56.1802 41.1686 53.2135 45.9303 53.2135H60.4903C65.402 53.2135 69.1569 49.5968 69.1569 44.7368C69.1569 39.8252 65.817 36.3602 61.057 36.3602C56.3453 36.3602 52.5303 39.8002 52.5303 46.1602V50.3235H48.2169V46.1602C48.2169 37.7335 53.627 32.2735 61.1303 32.2735C68.2853 32.2735 73.4969 37.4068 73.4969 44.6902C73.5469 51.9702 67.9636 57.2802 60.4336 57.2802M55.447 79.9168C72.1753 79.9168 85.3636 66.6785 85.3636 50.0002C85.3636 33.3218 72.1753 20.0835 55.447 20.0835C38.7186 20.0835 25.5303 33.3718 25.5303 50.0002C25.5303 66.6785 38.7186 79.9168 55.447 79.9168Z" fill="#169CEE"/>
</svg>
