<svg width="100" height="100" viewBox="0 0 100 100" fill="none" xmlns="http://www.w3.org/2000/svg">
<path fill-rule="evenodd" clip-rule="evenodd" d="M40.6762 6.25C33.8103 6.25 28.2445 11.6392 28.2445 18.287V26.6204H49.7609V28.9352H18.6817C11.8158 28.9352 6.25 34.3244 6.25 40.9722V59.0278C6.25 65.6756 11.8158 71.0647 18.6817 71.0647H25.8538V60.8797C25.8538 54.2319 31.4197 48.8425 38.2856 48.8425H61.2362C67.0459 48.8425 71.7553 44.2825 71.7553 38.6575V18.287C71.7553 11.6392 66.1897 6.25 59.3237 6.25H40.6762ZM37.8075 21.0648C40.1841 21.0648 42.1106 19.1993 42.1106 16.8982C42.1106 14.597 40.1841 12.7315 37.8075 12.7315C35.4306 12.7315 33.5041 14.597 33.5041 16.8982C33.5041 19.1993 35.4306 21.0648 37.8075 21.0648Z" fill="url(#paint0_linear_51_2986)"/>
<path fill-rule="evenodd" clip-rule="evenodd" d="M59.3232 93.7498C66.1892 93.7498 71.7551 88.3607 71.7551 81.7129V73.3795H50.2385V71.0648H81.3179C88.1839 71.0648 93.7495 65.6754 93.7495 59.0276V40.972C93.7495 34.3242 88.1839 28.9351 81.3179 28.9351H74.1457V39.1201C74.1457 45.7682 68.5798 51.1573 61.7142 51.1573H38.7632C32.9535 51.1573 28.2441 55.7173 28.2441 61.3423V81.7129C28.2441 88.3607 33.8101 93.7498 40.6757 93.7498H59.3232ZM62.1923 78.9351C59.8154 78.9351 57.8889 80.8004 57.8889 83.1017C57.8889 85.4029 59.8154 87.2682 62.1923 87.2682C64.5689 87.2682 66.4954 85.4029 66.4954 83.1017C66.4954 80.8004 64.5689 78.9351 62.1923 78.9351Z" fill="url(#paint1_linear_51_2986)"/>
<defs>
<linearGradient id="paint0_linear_51_2986" x1="39.0028" y1="6.25" x2="39.0028" y2="71.0647" gradientUnits="userSpaceOnUse">
<stop stop-color="#327EBD"/>
<stop offset="1" stop-color="#1565A7"/>
</linearGradient>
<linearGradient id="paint1_linear_51_2986" x1="60.997" y1="28.9351" x2="60.997" y2="93.7498" gradientUnits="userSpaceOnUse">
<stop stop-color="#FFDA4B"/>
<stop offset="1" stop-color="#F9C600"/>
</linearGradient>
</defs>
</svg>
