<svg width="94" height="100" viewBox="0 0 94 100" fill="none" xmlns="http://www.w3.org/2000/svg">
<g clip-path="url(#clip0_51_2235)">
<path d="M80.9594 0.00146484C87.748 3.46054 93.5784 12.5376 93.2861 24.8553C92.3988 40.0324 81.3948 53.1125 69.4221 65.1635C68.7517 50.4669 65.5563 41.1006 60.5665 27.9302C55.8555 14.6573 69.6285 0.426317 80.9594 0.00146484Z" fill="url(#paint0_linear_51_2235)"/>
<path d="M44.2398 64.6468C47.8849 60.1125 50.4684 56.0746 52.2714 52.4263C64.6221 58.8837 61.7077 57.6778 67.6643 64.5579C67.6844 64.7718 67.7033 64.9853 67.7211 65.1982C68.2153 74.7378 61.2565 96.7909 33.855 99.8131C31.9583 84.9945 38.1247 72.3544 44.2398 64.6468Z" fill="url(#paint1_linear_51_2235)"/>
<path d="M0.143054 9.21408C19.6666 1.48841 40.6787 9.40241 52.8096 25.8918C53.983 27.4866 55.096 29.1434 56.1456 30.8488C58.0411 42.949 56.5958 49.6692 52.9063 53.2315C50.4804 52.0076 47.8921 50.9221 45.1291 49.9185C38.7051 47.5848 32.7768 46.0406 24.3099 43.5337C4.20476 38.0468 -0.753353 20.8071 0.143054 9.21408Z" fill="url(#paint2_linear_51_2235)"/>
<path d="M55.3997 29.6641C55.5278 29.8629 55.6544 30.0603 55.7794 30.2607L55.9331 30.5077C56.2464 31.0109 56.5538 31.5171 56.8566 32.0294L56.9078 32.1152L56.9892 32.2539L57.063 32.3819L57.2799 32.754L57.295 32.7811L57.5888 33.2964L57.5978 33.3115C57.8102 33.6866 58.0197 34.0632 58.2261 34.4429L58.2517 34.4911L58.4807 34.916L58.4867 34.9265L58.7383 35.3996L58.8106 35.5382L58.9507 35.8078L59.1225 36.1408L59.2882 36.4632C59.4569 36.7977 59.6241 37.1321 59.7884 37.4666L59.8305 37.5494C60.1273 38.1566 60.4151 38.7652 60.6968 39.3784L60.9108 39.8469L60.9318 39.8936L61.0689 40.198L61.2286 40.558L61.319 40.766L61.4637 41.0989L61.5676 41.3384L61.7861 41.8537L61.8011 41.8898L62.0347 42.4503L62.0633 42.5181C62.3119 43.1237 62.5529 43.7294 62.7864 44.3395L62.809 44.3953L63.0019 44.906L63.0139 44.9346L63.1254 45.2359C63.249 45.5704 63.371 45.9048 63.4915 46.2408L63.5382 46.3719C63.6708 46.747 63.8019 47.1237 63.9284 47.4988L63.9691 47.6178C64.0881 47.9703 64.2026 48.3229 64.3171 48.6754L64.3729 48.8487L64.3864 48.8894L64.5672 49.4603L64.5747 49.486L64.742 50.0313L64.9092 50.5933L64.9137 50.6053L65.0523 51.0799L65.096 51.2336L65.1804 51.5274C65.2753 51.8663 65.3687 52.2038 65.4591 52.5428L65.5269 52.7959L65.6579 53.2961L65.664 53.3202C65.8237 53.9348 65.9743 54.5495 66.1175 55.1627L66.131 55.226L66.1461 55.2908C66.3329 56.0998 66.5046 56.9058 66.6628 57.7088L66.6779 57.7886C66.922 59.0376 67.1314 60.279 67.3046 61.5099L67.3076 61.5264C67.3619 61.9061 67.4116 62.2842 67.4583 62.6624L67.4779 62.8251L67.5412 63.366V63.3675L67.5954 63.8676L67.6135 64.0334L67.6526 64.4296L67.6677 64.5893L67.6737 64.6541L67.7219 65.1979C63.4086 59.6432 58.2562 55.815 52.0732 52.82C57.063 42.955 56.3624 35.9254 55.3997 29.6641Z" fill="url(#paint3_linear_51_2235)"/>
</g>
<defs>
<linearGradient id="paint0_linear_51_2235" x1="1743.59" y1="0.00146484" x2="1743.59" y2="6516.2" gradientUnits="userSpaceOnUse">
<stop stop-color="#73B723"/>
<stop offset="1" stop-color="#D8EE61"/>
</linearGradient>
<linearGradient id="paint1_linear_51_2235" x1="2938.99" y1="1296.38" x2="-302.359" y2="3719.76" gradientUnits="userSpaceOnUse">
<stop stop-color="#98C9EA"/>
<stop offset="0.688649" stop-color="#026FB2"/>
<stop offset="1" stop-color="#086EB6"/>
</linearGradient>
<linearGradient id="paint2_linear_51_2235" x1="0.0439679" y1="303.266" x2="4194.84" y2="4067.44" gradientUnits="userSpaceOnUse">
<stop stop-color="#D73721"/>
<stop offset="1" stop-color="#F7D768"/>
</linearGradient>
<linearGradient id="paint3_linear_51_2235" x1="536.569" y1="1130.96" x2="1911.64" y2="1681.66" gradientUnits="userSpaceOnUse">
<stop stop-color="#D4C883"/>
<stop offset="1" stop-color="#A1D1A7"/>
</linearGradient>
<clipPath id="clip0_51_2235">
<rect width="93.4307" height="100" fill="white"/>
</clipPath>
</defs>
</svg>
