<svg width="200" height="100" viewBox="0 0 200 100" fill="none" xmlns="http://www.w3.org/2000/svg">
<path d="M146.953 57.7266C147.682 57.7468 148.407 57.6222 149.087 57.3598C149.767 57.0974 150.388 56.7026 150.913 56.1982L152.877 58.3332C151.58 59.6665 149.782 60.6582 146.987 60.6582C142.195 60.6582 139.1 57.4815 139.1 53.1782C139.082 52.1923 139.262 51.2128 139.63 50.2979C139.998 49.3829 140.545 48.551 141.24 47.8516C141.935 47.1522 142.764 46.5994 143.676 46.2261C144.589 45.8528 145.567 45.6665 146.553 45.6782C151.312 45.6782 154.01 49.2999 153.773 54.3199H142.523C142.923 56.4032 144.385 57.7365 146.948 57.7365M150.377 51.9265C150.07 49.9765 148.91 48.5432 146.582 48.5432C144.42 48.5432 142.912 49.7665 142.523 51.9265H150.377ZM73.0935 57.5715L81.7518 48.7766H73.3018V45.9999H85.7685V48.8332L77.1101 57.6249H85.8835V60.3865H73.0968L73.0935 57.5715ZM95.6018 57.7282C96.3302 57.7485 97.0554 57.6238 97.7352 57.3615C98.415 57.0991 99.0359 56.7043 99.5618 56.1999L101.528 58.3332C100.232 59.6665 98.4335 60.6582 95.6385 60.6582C90.8468 60.6582 87.7518 57.4815 87.7518 53.1782C87.7339 52.1923 87.9141 51.2128 88.2817 50.2979C88.6493 49.3829 89.1969 48.551 89.892 47.8516C90.5871 47.1522 91.4155 46.5994 92.3282 46.2261C93.2408 45.8528 94.2191 45.6665 95.2051 45.6782C99.9635 45.6782 102.662 49.2999 102.425 54.3199H91.1751C91.5751 56.4032 93.0368 57.7365 95.6001 57.7365M99.0285 51.9265C98.7235 49.9765 97.5618 48.5432 95.2335 48.5432C93.0718 48.5432 91.5635 49.7665 91.1751 51.9265H99.0285ZM121.115 53.1599C121.115 48.5732 124.548 45.6849 128.332 45.6849C129.24 45.6727 130.139 45.8595 130.967 46.2321C131.795 46.6046 132.531 47.154 133.123 47.8415V39.3666H136.182V60.3666H133.123V58.3666C132.542 59.0821 131.806 59.6577 130.972 60.0506C130.138 60.4435 129.226 60.6438 128.303 60.6365C124.633 60.6365 121.117 57.7365 121.117 53.1649M133.295 53.1382C133.187 49.1049 128.295 47.1882 125.462 50.0782C122.628 52.9682 124.695 57.8249 128.733 57.8232C131.36 57.8232 133.293 55.7232 133.293 53.1565M155.765 57.3232L158.535 55.8866C159.282 57.2199 160.702 58.0249 162.23 57.9865C163.963 57.9865 164.857 57.0965 164.857 56.0899C164.857 54.9232 163.183 54.6799 161.365 54.3065C158.918 53.8065 156.372 52.9815 156.372 50.0232C156.372 47.7515 158.533 45.6532 161.938 45.6832C164.605 45.6832 166.615 46.7499 167.748 48.4699L165.182 49.8799C164.827 49.3543 164.343 48.928 163.778 48.641C163.212 48.3541 162.582 48.216 161.948 48.2399C160.303 48.2399 159.448 49.0449 159.448 49.9649C159.448 50.9982 160.775 51.2865 162.855 51.7482C165.222 52.2482 167.905 53.0415 167.905 56.0315C167.905 58.0315 166.172 60.6866 162.077 60.6582C159.077 60.6582 156.97 59.4499 155.755 57.3249M176.208 53.9916L173.783 56.6365V60.3699H170.725V39.3699H173.783V53.1099L180.277 45.9816H184.002L178.372 52.1482L184.145 60.3682H180.683L176.208 53.9916ZM111.855 45.7082C108.218 45.7082 105.188 48.0665 105.188 51.9749V60.3699H108.305V52.3332C108.305 49.9749 109.66 48.5665 111.975 48.5665C114.29 48.5665 115.442 49.9765 115.442 52.3332V60.3399H118.542V51.9449C118.542 48.0365 115.483 45.6782 111.875 45.6782M38.2335 41.3332V68.3666H15.8418L38.2335 41.3332ZM38.2335 31.6299C38.2339 34.5997 37.0548 37.4482 34.9554 39.5488C32.856 41.6494 30.0083 42.8302 27.0385 42.8315C24.0686 42.8302 21.2209 41.6494 19.1215 39.5488C17.0221 37.4482 15.843 34.5997 15.8435 31.6299H38.2335ZM41.9218 68.3632C41.9231 65.3945 43.103 62.5478 45.2022 60.4486C47.3014 58.3494 50.1481 57.1695 53.1168 57.1682C56.0855 57.1695 58.9322 58.3494 61.0314 60.4486C63.1306 62.5478 64.3105 65.3945 64.3118 68.3632H41.9218ZM41.9218 58.6599V31.6332H64.3135L41.9218 58.6599Z" fill="#03363D"/>
</svg>
