<?xml version="1.0" encoding="UTF-8"?>
<svg id="Layer_2" data-name="Layer 2" xmlns="http://www.w3.org/2000/svg" viewBox="0 0 734.92 457.48">
  <g id="Plant">
    <g>
      <path d="m342.48,344.6c2.54-1.81,5.29-3.24,8.15-4.28l1.12-8.47,14.07-1.29,2.64,8.12c3.01.51,5.97,1.42,8.8,2.73l6.77-5.19,10.86,9.04-3.87,7.6c1.81,2.55,3.24,5.29,4.28,8.15l8.46,1.12,1.29,14.07-8.12,2.64c-.51,3.01-1.42,5.96-2.73,8.79l5.19,6.77-9.03,10.86-7.6-3.87c-2.54,1.81-5.29,3.24-8.15,4.28l-1.12,8.47-14.07,1.29-2.64-8.12c-3.01-.51-5.96-1.42-8.8-2.73l-6.77,5.19-10.86-9.04,3.87-7.6c-1.81-2.54-3.24-5.29-4.28-8.15l-8.47-1.12-1.29-14.07,8.12-2.64c.51-3.01,1.42-5.96,2.73-8.79l-5.19-6.77,9.03-10.86,7.61,3.87h0Zm8.9,18.21c-5.35,6.43-4.48,15.99,1.96,21.34,6.43,5.35,15.99,4.48,21.34-1.96,5.35-6.43,4.48-15.99-1.96-21.34-6.43-5.35-15.99-4.48-21.34,1.96Z" fill="#ebebeb"/>
      <path d="m425.97,390.8c1.6-1.13,3.32-2.03,5.11-2.69l.7-5.31,8.82-.81,1.65,5.09c1.88.32,3.74.89,5.51,1.71l4.25-3.26,6.81,5.67-2.43,4.77c1.13,1.6,2.03,3.32,2.69,5.11l5.31.7.81,8.82-5.09,1.65c-.32,1.88-.89,3.74-1.71,5.51l3.26,4.25-5.66,6.81-4.77-2.43c-1.6,1.13-3.32,2.03-5.11,2.69l-.7,5.31-8.82.81-1.65-5.09c-1.88-.32-3.74-.89-5.51-1.71l-4.25,3.26-6.81-5.67,2.43-4.77c-1.13-1.6-2.03-3.32-2.69-5.11l-5.31-.7-.81-8.82,5.09-1.66c.32-1.88.89-3.74,1.71-5.51l-3.26-4.25,5.66-6.81,4.77,2.43h0Zm5.58,11.42c-3.36,4.03-2.81,10.02,1.23,13.38,4.03,3.36,10.02,2.81,13.38-1.23,3.36-4.03,2.81-10.02-1.23-13.38-4.03-3.36-10.02-2.81-13.38,1.23Z" fill="#ebebeb"/>
      <path d="m184.28,72.95c1.85-1.31,3.85-2.36,5.93-3.12l.81-6.16,10.24-.94,1.92,5.91c2.19.37,4.34,1.03,6.4,1.99l4.93-3.78,7.9,6.58-2.82,5.53c1.32,1.85,2.36,3.85,3.12,5.93l6.16.81.94,10.24-5.91,1.92c-.37,2.19-1.03,4.34-1.99,6.4l3.78,4.93-6.58,7.9-5.53-2.82c-1.85,1.32-3.85,2.36-5.93,3.12l-.81,6.16-10.24.94-1.92-5.91c-2.19-.37-4.34-1.03-6.4-1.99l-4.93,3.78-7.9-6.58,2.82-5.53c-1.31-1.85-2.36-3.85-3.12-5.93l-6.16-.81-.94-10.24,5.91-1.92c.37-2.19,1.03-4.34,1.99-6.4l-3.78-4.93,6.58-7.9,5.54,2.82h0Zm6.48,13.25c-3.9,4.68-3.26,11.64,1.42,15.53,4.68,3.9,11.64,3.26,15.53-1.42,3.9-4.68,3.26-11.64-1.42-15.53-4.68-3.9-11.64-3.26-15.53,1.42Z" fill="#e0e0e0"/>
      <path d="m378.1,10.17c1.84-1.31,3.83-2.34,5.9-3.1l.81-6.13,10.19-.93,1.91,5.88c2.18.37,4.32,1.03,6.37,1.98l4.91-3.76,7.87,6.55-2.81,5.51c1.31,1.84,2.34,3.83,3.1,5.91l6.13.81.93,10.19-5.88,1.91c-.37,2.18-1.03,4.32-1.98,6.37l3.76,4.91-6.54,7.87-5.51-2.81c-1.84,1.31-3.83,2.34-5.91,3.1l-.81,6.13-10.19.93-1.91-5.88c-2.18-.37-4.32-1.03-6.37-1.98l-4.91,3.76-7.87-6.55,2.81-5.51c-1.31-1.84-2.34-3.83-3.1-5.91l-6.13-.81-.93-10.19,5.88-1.91c.37-2.18,1.03-4.32,1.98-6.37l-3.76-4.91,6.54-7.87,5.51,2.81h0Zm6.44,13.19c-3.88,4.66-3.24,11.58,1.42,15.46,4.66,3.88,11.58,3.24,15.46-1.42,3.88-4.66,3.24-11.58-1.42-15.46-4.66-3.88-11.58-3.24-15.46,1.42Z" fill="#f5f5f5"/>
      <path d="m472.24,24.45c1.05-.74,2.18-1.33,3.36-1.77l.46-3.49,5.8-.53,1.09,3.35c1.24.21,2.46.58,3.62,1.12l2.79-2.14,4.47,3.72-1.6,3.13c.74,1.05,1.33,2.18,1.76,3.36l3.49.46.53,5.8-3.35,1.09c-.21,1.24-.58,2.46-1.12,3.62l2.14,2.79-3.72,4.47-3.13-1.6c-1.05.74-2.18,1.33-3.36,1.76l-.46,3.49-5.8.53-1.09-3.35c-1.24-.21-2.46-.58-3.62-1.12l-2.79,2.14-4.47-3.72,1.6-3.13c-.74-1.05-1.33-2.18-1.77-3.36l-3.49-.46-.53-5.8,3.35-1.09c.21-1.24.58-2.46,1.12-3.62l-2.14-2.79,3.72-4.47,3.13,1.6h0Zm3.67,7.5c-2.21,2.65-1.84,6.59.81,8.79,2.65,2.21,6.59,1.84,8.79-.81,2.21-2.65,1.84-6.59-.81-8.79-2.65-2.21-6.59-1.84-8.79.81Z" fill="#f5f5f5"/>
      <path d="m129.24,191.31c1.71-1.21,3.55-2.17,5.47-2.88l.75-5.68,9.44-.87,1.77,5.45c2.02.34,4,.95,5.9,1.83l4.55-3.49,7.29,6.07-2.6,5.1c1.21,1.71,2.17,3.55,2.88,5.47l5.68.75.87,9.44-5.45,1.77c-.34,2.02-.95,4-1.83,5.9l3.49,4.55-6.06,7.29-5.1-2.6c-1.71,1.21-3.55,2.17-5.47,2.88l-.75,5.68-9.44.87-1.77-5.45c-2.02-.34-4-.95-5.9-1.83l-4.55,3.49-7.29-6.07,2.6-5.1c-1.21-1.71-2.17-3.55-2.88-5.47l-5.68-.75-.87-9.44,5.45-1.77c.34-2.02.95-4,1.83-5.9l-3.49-4.55,6.06-7.29,5.11,2.6h0Zm5.97,12.22c-3.59,4.32-3.01,10.73,1.31,14.33,4.32,3.59,10.73,3.01,14.33-1.31,3.59-4.32,3.01-10.73-1.31-14.33-4.32-3.59-10.73-3-14.33,1.31Z" fill="#e0e0e0"/>
      <g>
        <path d="m49.99,115.42H12.78c-2.57,0-4.66-2.08-4.66-4.66v-51.51c0-2.57,2.08-4.66,4.66-4.66h23.6l18.27,18.83v37.34c0,2.57-2.08,4.66-4.66,4.66Z" fill="#ebebeb"/>
        <path d="m8.12,96.97h46.53v12.43c0,3.33-2.7,6.03-6.03,6.03H14.15c-3.33,0-6.03-2.7-6.03-6.03v-12.43h0Z" fill="#e0e0e0"/>
        <g>
          <path d="m24.61,108.87l1.17-1.41c.49.66,1.04,1,1.69,1,.85,0,1.29-.51,1.29-1.51v-4.33h-3.2v-1.69h5.29v5.91c0,2.25-1.13,3.36-3.28,3.36-1.22,0-2.3-.47-2.97-1.33Z" fill="#fafafa"/>
          <path d="m32.11,109.39l.68-1.46c.62.4,1.57.68,2.43.68.94,0,1.29-.25,1.29-.64,0-1.14-4.23.03-4.23-2.77,0-1.33,1.2-2.26,3.24-2.26.96,0,2.03.22,2.69.61l-.68,1.44c-.69-.39-1.38-.52-2.02-.52-.91,0-1.3.29-1.3.65,0,1.2,4.23.04,4.23,2.8,0,1.3-1.21,2.22-3.3,2.22-1.18,0-2.38-.33-3.03-.75Z" fill="#fafafa"/>
        </g>
        <g>
          <path d="m17.98,87.28l1.46-1.71c.96,1.36,2.19,2.09,3.67,2.09,1.99,0,3.02-1.21,3.02-3.57v-9.89h-6.36v-2.19h8.85v11.95c0,3.92-1.91,5.86-5.51,5.86-2.09,0-4-.91-5.13-2.54Z" fill="#fafafa"/>
          <path d="m31.72,88.21l1.01-1.91c1.13.81,2.94,1.38,4.68,1.38,2.24,0,3.17-.68,3.17-1.81,0-2.99-8.43-.4-8.43-5.71,0-2.39,2.14-4,5.56-4,1.74,0,3.7.45,4.85,1.21l-1.03,1.91c-1.21-.78-2.54-1.06-3.85-1.06-2.11,0-3.14.78-3.14,1.84,0,3.14,8.45.58,8.45,5.76,0,2.41-2.21,3.95-5.76,3.95-2.21,0-4.4-.68-5.51-1.56Z" fill="#fafafa"/>
        </g>
        <g fill="none" opacity=".3">
          <path d="m36.38,54.6v14.5c0,2.39,1.94,4.33,4.33,4.33h13.94s-18.27-18.83-18.27-18.83Z" fill="#fff"/>
        </g>
        <path d="m36.57,70.37s-.18,3.52,3.82,4.67c.15.04.3.08.46.1,1.82.33,13.8,2.46,13.8,2.18v-3.9h-13.94s-3.48-.12-4.14-3.06Z" fill="#e0e0e0"/>
      </g>
      <g>
        <g>
          <path d="m114.41,85.4h-45.98c-3.18,0-5.75-2.58-5.75-5.75V16.01c0-3.18,2.58-5.75,5.75-5.75h29.16l22.57,23.26v46.13c0,3.18-2.58,5.75-5.75,5.75Z" fill="#ebebeb"/>
          <path d="m63.99,62.6h54.87c.72,0,1.31.59,1.31,1.31v14.67c0,3.77-3.06,6.83-6.83,6.83h-43.83c-3.77,0-6.83-3.06-6.83-6.83v-14.67c0-.72.59-1.31,1.31-1.31Z" fill="#e0e0e0"/>
          <g fill="none" opacity=".2">
            <path d="m97.6,10.26v17.91c0,2.95,2.4,5.35,5.35,5.35h17.22s-22.57-23.26-22.57-23.26Z" fill="#fff"/>
          </g>
          <path d="m97.83,29.74s-.23,4.34,4.72,5.77c.19.05.38.09.57.13,2.25.4,17.05,3.03,17.05,2.7v-4.81h-17.22s-4.3-.15-5.11-3.78Z" fill="#e0e0e0"/>
        </g>
        <g>
          <path d="m79.14,72.54c0-2.7,2.07-4.62,4.85-4.62,1.55,0,2.84.56,3.68,1.58l-1.33,1.23c-.6-.69-1.35-1.05-2.25-1.05-1.67,0-2.86,1.17-2.86,2.86s1.19,2.86,2.86,2.86c.89,0,1.65-.36,2.25-1.06l1.33,1.23c-.84,1.03-2.13,1.6-3.69,1.6-2.77,0-4.84-1.93-4.84-4.62Z" fill="#fafafa"/>
          <path d="m88.28,76.13l.7-1.56c.75.55,1.88.93,2.95.93,1.23,0,1.72-.41,1.72-.96,0-1.67-5.2-.52-5.2-3.84,0-1.52,1.23-2.78,3.77-2.78,1.12,0,2.27.27,3.1.79l-.64,1.57c-.83-.47-1.69-.7-2.48-.7-1.23,0-1.7.46-1.7,1.02,0,1.65,5.2.51,5.2,3.79,0,1.49-1.24,2.77-3.79,2.77-1.42,0-2.85-.42-3.64-1.03Z" fill="#fafafa"/>
          <path d="m96.42,76.13l.7-1.56c.75.55,1.88.93,2.95.93,1.23,0,1.72-.41,1.72-.96,0-1.67-5.2-.52-5.2-3.84,0-1.52,1.23-2.78,3.77-2.78,1.12,0,2.27.27,3.1.79l-.64,1.57c-.83-.47-1.69-.7-2.48-.7-1.23,0-1.7.46-1.7,1.02,0,1.65,5.2.51,5.2,3.79,0,1.49-1.24,2.77-3.79,2.77-1.42,0-2.85-.42-3.64-1.03Z" fill="#fafafa"/>
        </g>
        <g>
          <path d="m82.06,43.6c.94.29,1.38.88,1.38,2.3v3.29c0,.96.49,1.52,1.5,1.52h.37v2.51h-1.19c-2.57,0-3.88-1.31-3.88-3.68v-3.72c0-.66-.35-.97-.9-.97h-.68v-2.51h.68c.55,0,.9-.31.9-.97v-3.72c0-2.36,1.31-3.68,3.88-3.68h1.19v2.51h-.37c-1.01,0-1.5.55-1.5,1.52v3.29c0,1.42-.43,2.01-1.38,2.3Z" fill="#fafafa"/>
          <path d="m104.2,42.35v2.51h-.68c-.55,0-.9.31-.9.97v3.72c0,2.36-1.31,3.68-3.88,3.68h-1.19v-2.51h.37c1.01,0,1.5-.56,1.5-1.52v-3.29c0-1.42.43-2.01,1.38-2.3-.94-.29-1.38-.88-1.38-2.3v-3.29c0-.97-.49-1.52-1.5-1.52h-.37v-2.51h1.19c2.57,0,3.88,1.31,3.88,3.68v3.72c0,.66.35.97.9.97h.68Z" fill="#fafafa"/>
        </g>
      </g>
      <path d="m734.92,457.2c0,.15-164.53.27-367.44.27s-367.48-.12-367.48-.27,164.5-.27,367.48-.27,367.44.12,367.44.27Z" fill="#263238"/>
      <g>
        <g>
          <path d="m153.29,102.45h361.3c5.64,0,10.22,4.58,10.22,10.22v238.46c0,7.2-5.84,13.04-13.04,13.04H152.72c-5.32,0-9.65-4.32-9.65-9.65V112.67c0-5.64,4.58-10.22,10.22-10.22Z" fill="#263238"/>
          <g>
            <rect x="191.8" y="139.98" width="26.92" height="5.87" fill="#455a64"/>
            <rect x="191.8" y="166.28" width="13.46" height="5.87" fill="#b00043"/>
            <rect x="201.93" y="179.5" width="18.96" height="5.87" fill="#455a64"/>
            <rect x="223.9" y="179.5" width="11.04" height="5.87" fill="#455a64"/>
            <rect x="311.26" y="179.5" width="22.72" height="5.87" fill="#455a64"/>
            <rect x="361.99" y="192.4" width="38.38" height="5.87" fill="#455a64"/>
            <rect x="441.14" y="179.5" width="18.43" height="5.87" fill="#455a64"/>
            <rect x="465.22" y="179.5" width="37.05" height="5.87" fill="#455a64"/>
            <rect x="201.93" y="192.4" width="18.96" height="5.87" fill="#455a64"/>
            <rect x="190.28" y="205.26" width="18.96" height="5.87" fill="#b00043"/>
            <rect x="200.38" y="218.12" width="8.86" height="5.87" fill="#455a64"/>
            <rect x="232.89" y="245.21" width="8.86" height="5.87" fill="#455a64"/>
            <rect x="354.72" y="294.15" width="17.3" height="5.87" fill="#455a64"/>
            <rect x="426.31" y="294.15" width="42.39" height="5.87" fill="#455a64"/>
            <rect x="289.57" y="281.3" width="17.3" height="5.87" fill="#e0e0e0"/>
            <rect x="226.87" y="270.28" width="17.3" height="5.87" fill="#455a64"/>
            <rect x="323.85" y="294.15" width="27.28" height="5.87" fill="#455a64"/>
            <rect x="200.38" y="231.21" width="14.37" height="5.87" fill="#455a64"/>
            <rect x="200.38" y="245.43" width="26.66" height="5.87" fill="#455a64"/>
            <rect x="200.38" y="256.31" width="39.01" height="5.87" fill="#455a64"/>
            <rect x="271.05" y="256.31" width="39.01" height="5.87" fill="#455a64"/>
            <rect x="226.53" y="281.3" width="54.77" height="5.87" fill="#455a64"/>
            <rect x="226.53" y="294.15" width="92.63" height="5.87" fill="#455a64"/>
            <rect x="198.5" y="307" width="92.63" height="5.87" fill="#455a64"/>
            <rect x="243.51" y="256.31" width="23.4" height="5.87" fill="#455a64"/>
            <rect x="212.73" y="218.12" width="24.15" height="5.87" fill="#455a64"/>
            <rect x="218.05" y="231.22" width="24.15" height="5.87" fill="#455a64"/>
            <rect x="271.82" y="231.22" width="63.93" height="5.87" fill="#455a64"/>
            <rect x="337.49" y="231.22" width="73.84" height="5.87" fill="#455a64"/>
            <rect x="246.17" y="231.22" width="19.98" height="5.87" fill="#455a64"/>
            <rect x="240.19" y="218.12" width="31.65" height="5.87" fill="#455a64"/>
            <rect x="275.33" y="218.12" width="17.62" height="5.87" fill="#e0e0e0"/>
            <rect x="223.9" y="192.4" width="19.76" height="5.87" fill="#455a64"/>
            <rect x="257.09" y="192.4" width="97.58" height="5.87" fill="#455a64"/>
            <rect x="418.07" y="231.22" width="46.14" height="5.87" fill="#455a64"/>
            <rect x="376.52" y="294.15" width="46.14" height="5.87" fill="#455a64"/>
            <rect x="337.84" y="179.5" width="96.12" height="5.87" fill="#455a64"/>
            <rect x="238.4" y="179.5" width="66.89" height="5.87" fill="#455a64"/>
            <rect x="191.8" y="152.43" width="45.04" height="5.87" fill="#455a64"/>
            <rect x="241.33" y="152.43" width="61.67" height="5.87" fill="#455a64"/>
            <rect x="222.93" y="139.98" width="19.83" height="5.87" fill="#e0e0e0"/>
            <rect x="165.56" y="139.98" width="5.69" height="5.87" fill="#455a64"/>
            <rect x="165.56" y="152.83" width="5.69" height="5.87" fill="#455a64"/>
            <rect x="165.56" y="165.68" width="5.69" height="5.87" fill="#455a64"/>
            <rect x="165.56" y="178.52" width="5.69" height="5.87" fill="#455a64"/>
            <rect x="165.56" y="191.37" width="5.69" height="5.87" fill="#455a64"/>
            <rect x="165.56" y="204.22" width="5.69" height="5.87" fill="#455a64"/>
            <rect x="165.56" y="217.07" width="5.69" height="5.87" fill="#455a64"/>
            <rect x="165.56" y="229.91" width="5.69" height="5.87" fill="#455a64"/>
            <rect x="165.56" y="242.76" width="5.69" height="5.87" fill="#455a64"/>
            <rect x="230.72" y="334.75" width="8.86" height="5.87" fill="#e0e0e0"/>
            <rect x="198.68" y="334.75" width="26.66" height="5.87" fill="#b00043"/>
            <rect x="165.56" y="334.1" width="5.69" height="5.87" fill="#455a64"/>
            <rect x="165.56" y="255.61" width="5.69" height="5.87" fill="#455a64"/>
            <rect x="165.56" y="268.46" width="5.69" height="5.87" fill="#455a64"/>
            <rect x="165.56" y="281.3" width="5.69" height="5.87" fill="#455a64"/>
            <rect x="165.56" y="294.15" width="5.69" height="5.87" fill="#455a64"/>
            <rect x="165.56" y="307" width="5.69" height="5.87" fill="#455a64"/>
            <rect x="198.5" y="320.52" width="27.01" height="5.87" fill="#455a64"/>
            <rect x="230.72" y="320.52" width="61.09" height="5.87" fill="#455a64"/>
            <rect x="165.56" y="320.52" width="5.69" height="5.87" fill="#455a64"/>
            <rect x="310.52" y="152.39" width="19.83" height="5.87" fill="#e0e0e0"/>
          </g>
          <circle cx="164.37" cy="119.37" r="4.03" fill="#455a64"/>
          <circle cx="175.56" cy="119.37" r="4.03" fill="#455a64"/>
          <circle cx="186.76" cy="119.37" r="4.03" fill="#455a64"/>
          <g fill="none" opacity=".3">
            <rect x="339.91" y="259.24" width="158.99" height="91.12" rx="7.63" ry="7.63"/>
          </g>
          <rect x="351.13" y="249.5" width="158.99" height="91.12" rx="4.68" ry="4.68" fill="#efc037"/>
          <g>
            <path d="m413.43,306.2h-14.52l-2.7,6.67h-9.91l15.15-34.33h9.56l15.2,34.33h-10.1l-2.7-6.67Zm-2.84-7.16l-4.41-10.99-4.41,10.99h8.83Z" fill="#fff"/>
            <path d="m452.76,280.09c2.29,1.03,4.05,2.5,5.3,4.41,1.24,1.91,1.86,4.16,1.86,6.74s-.62,4.82-1.86,6.72c-1.24,1.9-3.01,3.36-5.3,4.39-2.29,1.03-4.99,1.54-8.09,1.54h-5.98v8.98h-9.71v-34.33h15.69c3.1,0,5.8.51,8.09,1.54Zm-4.17,14.86c1.01-.87,1.52-2.1,1.52-3.7s-.51-2.84-1.52-3.73c-1.01-.88-2.52-1.32-4.51-1.32h-5.39v10.05h5.39c1.99,0,3.5-.43,4.51-1.3Z" fill="#fff"/>
            <path d="m464.63,278.54h9.71v34.33h-9.71v-34.33Z" fill="#fff"/>
          </g>
        </g>
        <path d="m181.29,138.31c.15,0,.27,50.54.27,112.87s-.12,112.88-.27,112.88-.27-50.53-.27-112.88.12-112.87.27-112.87Z" fill="#455a64"/>
      </g>
      <g>
        <g>
          <path d="m302.54,381.91s.02.15.03.45c0,.32.02.76.03,1.31.01,1.18.03,2.88.05,5.05.02,4.42.05,10.76.09,18.59.01,3.93.02,8.22.03,12.84,0,1.15,0,2.33,0,3.52-.02,1.2.06,2.39-.07,3.66-.29,2.51-1.68,4.95-3.84,6.52-1.08.78-2.33,1.36-3.67,1.63-1.36.28-2.72.17-4.07.2-2.72,0-5.49,0-8.31,0-5.65,0-11.49,0-17.48,0-23.94-.03-45.62-.06-61.34-.08-7.83-.04-14.17-.07-18.59-.09-2.17-.02-3.87-.04-5.05-.05-.56-.01-.99-.02-1.31-.03-.3,0-.45-.02-.45-.03s.15-.02.45-.03c.32,0,.76-.02,1.31-.03,1.18-.01,2.88-.03,5.05-.05,4.42-.02,10.76-.05,18.59-.09,15.72-.02,37.39-.05,61.34-.08,5.99,0,11.83,0,17.48,0,2.82,0,5.6,0,8.31,0,1.36-.02,2.71.09,3.97-.18,1.27-.26,2.46-.79,3.48-1.53,2.05-1.48,3.38-3.79,3.66-6.17.13-1.18.06-2.41.08-3.6,0-1.19,0-2.37,0-3.52.01-4.61.02-8.91.03-12.84.04-7.83.07-14.17.09-18.59.02-2.17.04-3.87.05-5.05.01-.56.02-.99.03-1.31,0-.3.02-.45.03-.45Z" fill="#efc037"/>
          <path d="m306.22,378.23c0,2.03-1.65,3.67-3.67,3.67s-3.67-1.65-3.67-3.67,1.65-3.67,3.67-3.67,3.67,1.65,3.67,3.67Z" fill="#b00043"/>
          <path d="m182.39,434.82c0,2.03-1.65,3.67-3.67,3.67s-3.67-1.65-3.67-3.67,1.65-3.67,3.67-3.67,3.67,1.65,3.67,3.67Z" fill="#5ca3de"/>
        </g>
        <g>
          <path d="m598.49,349.35c0,2.83-2.29,5.13-5.13,5.13s-5.13-2.29-5.13-5.13,2.29-5.13,5.13-5.13,5.13,2.29,5.13,5.13Z" fill="#efc037"/>
          <path d="m623.35,326.62c0,2.83-2.29,5.13-5.13,5.13s-5.13-2.29-5.13-5.13,2.29-5.13,5.13-5.13,5.13,2.29,5.13,5.13Z" fill="#b00043"/>
          <path d="m598.98,303.89c0,2.83-2.29,5.13-5.13,5.13s-5.13-2.29-5.13-5.13,2.29-5.13,5.13-5.13,5.13,2.29,5.13,5.13Z" fill="#5ca3de"/>
          <path d="m617.51,326.62c0,.15-19.97.27-44.6.27s-44.6-.12-44.6-.27,19.97-.27,44.6-.27,44.6.12,44.6.27Z" fill="#efc037"/>
          <path d="m593.36,351.69c-.15,0-.27-10.49-.27-23.42s.12-23.42.27-23.42.27,10.48.27,23.42-.12,23.42-.27,23.42Z" fill="#ff725e"/>
        </g>
      </g>
      <g>
        <path d="m256.37,53.64h77.24c4.88,0,8.83,3.96,8.83,8.83v45.09c0,4.88-3.96,8.83-8.83,8.83h-77.24c-4.88,0-8.83-3.96-8.83-8.83v-45.09c0-4.88,3.96-8.83,8.83-8.83Z" fill="#ff725e"/>
        <path d="m256.37,53.64h77.24c4.88,0,8.83,3.96,8.83,8.83v45.09c0,4.88-3.96,8.83-8.83,8.83h-77.24c-4.88,0-8.83-3.96-8.83-8.83v-45.09c0-4.88,3.96-8.83,8.83-8.83Z" fill="#7a0032"/>
        <path d="m250,53.64h77.24c4.88,0,8.83,3.96,8.83,8.83v45.09c0,4.88-3.96,8.83-8.83,8.83h-77.24c-4.88,0-8.83-3.96-8.83-8.83v-45.09c0-4.88,3.96-8.83,8.83-8.83Z" fill="#b00043"/>
        <g>
          <path d="m278.37,81.49l-12.94,4.58,12.94,4.58v5.92l-19.99-7.38v-6.24l19.99-7.38v5.92Z" fill="#fff"/>
          <path d="m292.6,66.12h6.85l-13.38,38.2h-6.85l13.38-38.2Z" fill="#fff"/>
          <path d="m319.89,82.95v6.24l-19.99,7.38v-5.92l12.94-4.58-12.94-4.58v-5.92l19.99,7.38Z" fill="#fff"/>
        </g>
      </g>
      <g>
        <path d="m427.63,76.04c3.19-1.93,6.58-3.38,10.07-4.38l2.08-9.97,16.85-.3,2.42,9.89c3.53.87,6.97,2.21,10.22,4.02l4.67-5.58h3.84l12.12,11.71-5.28,8.7c1.93,3.19,3.39,6.58,4.38,10.08l9.97,2.08.3,16.85-9.89,2.43c-.87,3.53-2.21,6.97-4.02,10.22l5.58,8.52-11.7,12.12h-3.84l-4.86-5.28c-3.19,1.93-6.58,3.38-10.08,4.38l-2.08,9.97-16.85.3-2.43-9.89c-3.53-.87-6.97-2.21-10.22-4.02l-8.52,5.58h-3.84l-8.28-11.71,5.28-8.7c-1.93-3.19-3.39-6.58-4.38-10.08l-9.97-2.08-.3-16.85,9.89-2.43c.87-3.53,2.21-6.97,4.02-10.22l-5.58-8.52,7.86-12.12h3.84l8.71,5.28h0Zm8.98,22.45c-6.93,7.18-6.73,18.63.45,25.56,7.18,6.93,18.63,6.73,25.56-.45,6.93-7.18,6.73-18.63-.45-25.56-7.18-6.93-18.63-6.73-25.56.45Z" fill="#e0e0e0"/>
        <g fill="none" opacity=".3">
          <path d="m427.63,76.04c3.19-1.93,6.58-3.38,10.07-4.38l2.08-9.97,16.85-.3,2.42,9.89c3.53.87,6.97,2.21,10.22,4.02l4.67-5.58h3.84l12.12,11.71-5.28,8.7c1.93,3.19,3.39,6.58,4.38,10.08l9.97,2.08.3,16.85-9.89,2.43c-.87,3.53-2.21,6.97-4.02,10.22l5.58,8.52-11.7,12.12h-3.84l-4.86-5.28c-3.19,1.93-6.58,3.38-10.08,4.38l-2.08,9.97-16.85.3-2.43-9.89c-3.53-.87-6.97-2.21-10.22-4.02l-8.52,5.58h-3.84l-8.28-11.71,5.28-8.7c-1.93-3.19-3.39-6.58-4.38-10.08l-9.97-2.08-.3-16.85,9.89-2.43c.87-3.53,2.21-6.97,4.02-10.22l-5.58-8.52,7.86-12.12h3.84l8.71,5.28h0Zm8.98,22.45c-6.93,7.18-6.73,18.63.45,25.56,7.18,6.93,18.63,6.73,25.56-.45,6.93-7.18,6.73-18.63-.45-25.56-7.18-6.93-18.63-6.73-25.56.45Z"/>
        </g>
        <path d="m423.79,76.04c3.19-1.93,6.58-3.38,10.07-4.38l2.08-9.97,16.85-.3,2.42,9.89c3.53.87,6.97,2.21,10.22,4.02l8.52-5.58,12.12,11.71-5.28,8.7c1.93,3.19,3.39,6.58,4.38,10.08l9.97,2.08.3,16.85-9.89,2.43c-.87,3.53-2.21,6.97-4.02,10.22l5.58,8.52-11.7,12.12-8.71-5.28c-3.19,1.93-6.58,3.38-10.08,4.38l-2.08,9.97-16.85.3-2.43-9.89c-3.53-.87-6.97-2.21-10.22-4.02l-8.52,5.58-12.12-11.71,5.28-8.7c-1.93-3.19-3.39-6.58-4.38-10.08l-9.97-2.08-.3-16.85,9.89-2.43c.87-3.53,2.21-6.97,4.02-10.22l-5.58-8.52,11.7-12.12,8.71,5.28h0Zm8.98,22.45c-6.93,7.18-6.73,18.63.45,25.56,7.18,6.93,18.63,6.73,25.56-.45,6.93-7.18,6.73-18.63-.45-25.56-7.18-6.93-18.63-6.73-25.56.45Z" fill="#e0e0e0"/>
      </g>
      <g>
        <rect x="551.06" y="28.34" width="181.14" height="249.04" rx="10.63" ry="10.63" fill="#fff"/>
        <rect x="619.61" y="165.7" width="44.03" height="36.75" fill="#e0e0e0"/>
        <rect x="675.32" y="166.17" width="44.03" height="36.75" fill="#e0e0e0"/>
        <rect x="563.91" y="166.17" width="44.03" height="36.75" fill="#e0e0e0"/>
        <rect x="551.06" y="81.23" width="181.14" height="67.16" fill="#e0e0e0"/>
        <path d="m560.84,28.34h160.4c6.05,0,10.96,4.91,10.96,10.96v13.91h-181.14v-15.09c0-5.4,4.38-9.78,9.78-9.78Z" fill="#e0e0e0"/>
        <path d="m576.23,67.22c0,4.36-3.53,7.89-7.89,7.89s-7.89-3.53-7.89-7.89,3.53-7.89,7.89-7.89,7.89,3.53,7.89,7.89Z" fill="#b00043"/>
        <rect x="618.13" y="63.72" width="28.98" height="6.75" fill="#e0e0e0"/>
        <rect x="654.24" y="63.72" width="28.98" height="6.75" fill="#e0e0e0"/>
        <rect x="690.35" y="63.72" width="28.98" height="6.75" fill="#e0e0e0"/>
        <rect x="563.91" y="215.34" width="44.03" height="5.89" fill="#e0e0e0"/>
        <rect x="563.91" y="228.18" width="44.03" height="5.89" fill="#e0e0e0"/>
        <rect x="563.91" y="241.03" width="23.84" height="5.89" fill="#e0e0e0"/>
        <rect x="620.51" y="215.34" width="44.03" height="5.89" fill="#e0e0e0"/>
        <rect x="620.51" y="228.18" width="44.03" height="5.89" fill="#e0e0e0"/>
        <rect x="620.51" y="241.03" width="23.84" height="5.89" fill="#e0e0e0"/>
        <rect x="677.11" y="215.34" width="44.03" height="5.89" fill="#e0e0e0"/>
        <rect x="677.11" y="228.18" width="44.03" height="5.89" fill="#e0e0e0"/>
        <rect x="677.11" y="241.03" width="23.84" height="5.89" fill="#e0e0e0"/>
        <path d="m721.56,277.38s.18-.02.55-.04c.36,0,.9-.08,1.61-.21,1.37-.31,3.5-1.04,5.46-3.06.96-1.01,1.84-2.34,2.39-3.97.62-1.63.55-3.55.54-5.59,0-4.1-.02-8.83-.03-14.16-.02-21.31-.05-52.14-.09-90.23-.01-19.05-.02-39.91-.03-62.31,0-11.2,0-22.78-.01-34.71,0-5.97,0-12.02,0-18.15,0-1.53,0-3.07,0-4.62.02-1.55,0-3.07-.5-4.52-.93-2.89-3.18-5.36-6.06-6.48-1.44-.58-2.97-.77-4.55-.74-1.58,0-3.17,0-4.77,0-3.19,0-6.39,0-9.62,0-6.45,0-12.97,0-19.56,0-13.18,0-26.64,0-40.35,0-27.41,0-55.78,0-84.84,0-1.77.02-3.54.46-5.08,1.32-1.53.88-2.86,2.11-3.77,3.63-.94,1.49-1.45,3.23-1.52,4.98-.04,1.78-.01,3.59-.02,5.38,0,7.18,0,14.31,0,21.39,0,14.16,0,28.11,0,41.81,0,27.41-.01,53.85-.02,79.04,0,25.19-.02,49.12-.03,71.52,0,2.8,0,5.58,0,8.33-.13,2.72.72,5.42,2.45,7.44,1.7,2.03,4.18,3.36,6.76,3.63,1.28.12,2.62.06,3.93.08,1.31,0,2.62,0,3.92,0,10.4,0,20.38.01,29.9.02,38.09.04,68.92.07,90.23.09,10.65.02,18.92.04,24.53.05,2.8.01,4.94.02,6.38.03,1.44,0,2.17.03,2.17.03,0,0-.74.02-2.17.03-1.44,0-3.58.02-6.38.03-5.61.01-13.88.03-24.53.05-21.31.02-52.14.05-90.23.09-9.52,0-19.5.01-29.9.02-1.3,0-2.61,0-3.92,0-1.32-.02-2.62.05-3.98-.07-2.7-.28-5.28-1.67-7.05-3.78-1.81-2.09-2.7-4.95-2.56-7.73,0-2.75,0-5.53,0-8.33,0-22.4-.02-46.34-.03-71.52,0-25.19-.01-51.63-.02-79.04,0-13.71,0-27.66,0-41.81,0-7.08,0-14.21,0-21.39,0-1.8-.02-3.58.02-5.4.07-1.84.61-3.68,1.6-5.25.95-1.59,2.35-2.9,3.96-3.82,1.62-.91,3.48-1.38,5.34-1.39,29.06,0,57.44,0,84.84,0,13.7,0,27.16,0,40.35,0,6.59,0,13.11,0,19.56,0,3.22,0,6.43,0,9.62,0,1.59,0,3.18,0,4.77,0,1.58-.03,3.24.17,4.73.78,3.02,1.17,5.37,3.77,6.35,6.79.52,1.51.54,3.15.52,4.67,0,1.54,0,3.08,0,4.62,0,6.14,0,12.19,0,18.15,0,11.93,0,23.51-.01,34.71-.01,22.4-.02,43.26-.03,62.31-.04,38.09-.07,68.92-.09,90.23,0,5.33-.02,10.06-.03,14.16-.02,1.03.03,2.01-.04,2.96-.06.95-.25,1.85-.53,2.67-.57,1.65-1.46,2.99-2.44,4-1.99,2.03-4.15,2.74-5.53,3.04-.71.11-1.25.18-1.62.18-.36.01-.55.01-.55.01Z" fill="#263238"/>
        <g>
          <path d="m568.75,42.07c0,1.67-1.35,3.02-3.02,3.02s-3.02-1.35-3.02-3.02,1.35-3.02,3.02-3.02,3.02,1.35,3.02,3.02Z" fill="#fff"/>
          <path d="m578.29,42.07c0,1.67-1.35,3.02-3.02,3.02s-3.02-1.35-3.02-3.02,1.35-3.02,3.02-3.02,3.02,1.35,3.02,3.02Z" fill="#fff"/>
          <path d="m587.83,42.07c0,1.67-1.35,3.02-3.02,3.02s-3.02-1.35-3.02-3.02,1.35-3.02,3.02-3.02,3.02,1.35,3.02,3.02Z" fill="#fff"/>
        </g>
        <path d="m629.08,116.19v-14.71c0-2.76,3.08-4.49,5.55-3.11l13.13,7.36,13.13,7.36c2.47,1.38,2.47,4.84,0,6.22l-13.13,7.36-13.13,7.36c-2.47,1.38-5.55-.35-5.55-3.11v-14.71Z" fill="#fff"/>
      </g>
      <g>
        <g>
          <path d="m715.78,457.2l-69.55-.3c-8.36-.04-15.12-6.46-15.08-14.34l.74-164.38c.04-7.89,6.85-14.26,15.22-14.22l69.55.3c8.36.04,15.12,6.46,15.08,14.34l-.74,164.38c-.04,7.89-6.85,14.26-15.22,14.22Z" fill="#263238"/>
          <path d="m716.56,269.93l-13.48-.06-39.38-.17-4.74-.02-11.8-.05c-5.86-.03-10.63,4.43-10.66,9.96l-.72,160.44c-.02,5.52,4.7,10.02,10.56,10.05l69.41.3c5.86.03,10.63-4.43,10.66-9.96l.72-160.44c.02-5.52-4.7-10.02-10.56-10.04Z" fill="#fff"/>
        </g>
        <g>
          <path d="m717.15,284.86c0,.46-.39.83-.86.83-.48,0-.86-.38-.86-.84,0-.46.39-.83.86-.83.48,0,.86.38.86.84Z" fill="#263238"/>
          <path d="m717.14,287.87c0,.46-.39.83-.86.83-.48,0-.86-.38-.86-.84,0-.46.39-.83.86-.83s.86.38.86.84Z" fill="#263238"/>
          <path d="m717.13,290.87c0,.46-.39.83-.86.83s-.86-.38-.86-.84c0-.46.39-.83.86-.83s.86.38.86.84Z" fill="#263238"/>
        </g>
        <path d="m658.17,288.7c0,3.04-2.54,5.51-5.68,5.51s-5.68-2.47-5.68-5.51,2.54-5.51,5.68-5.51,5.68,2.47,5.68,5.51Z" fill="#efc037"/>
        <path d="m700.37,289.76h-29.12c-1.05,0-1.89-.85-1.89-1.89h0c0-1.05.85-1.89,1.89-1.89h29.12c1.05,0,1.89.85,1.89,1.89h0c0,1.05-.85,1.89-1.89,1.89Z" fill="#e0e0e0"/>
        <path d="m664.35,360.01v-16.29c0-3.06,3.41-4.97,6.14-3.44l14.53,8.15,14.53,8.15c2.73,1.53,2.73,5.35,0,6.88l-14.53,8.15-14.53,8.15c-2.73,1.53-6.14-.38-6.14-3.44v-16.29Z" fill="#b00043"/>
      </g>
      <g>
        <path d="m510.73,430.88c6.17-9.81,16.61-12.09,26.1-9.93-1.46-13.97,4.83-28.49,16-37,11.17-8.5,26.85-10.69,39.92-5.57,13.07,5.12,23.09,17.38,25.51,31.21,9.83-6.97,24.59-2.25,31.8,7.4,7.21,9.66,7.65,30.28-.8,40l-136.16-.78s-10.37-12.61-2.37-25.33Z" fill="#ff725e"/>
        <path d="m510.73,430.88c6.17-9.81,16.61-12.09,26.1-9.93-1.46-13.97,4.83-28.49,16-37,11.17-8.5,26.85-10.69,39.92-5.57,13.07,5.12,23.09,17.38,25.51,31.21,9.83-6.97,24.59-2.25,31.8,7.4,7.21,9.66,7.65,30.28-.8,40l-136.16-.78s-10.37-12.61-2.37-25.33Z" fill="#2c84bf"/>
        <path d="m499.03,430.88c6.17-9.81,16.61-12.09,26.1-9.93-1.46-13.97,4.83-28.49,16-37,11.17-8.5,26.85-10.69,39.92-5.57,13.07,5.12,23.09,17.38,25.51,31.21,9.83-6.97,24.59-2.25,31.8,7.4,7.21,9.66,7.65,30.28-.8,40l-136.16-.78s-10.37-12.61-2.37-25.33Z" fill="#5ca3de"/>
      </g>
      <g>
        <rect x="20.39" y="321.01" width="142.46" height="136.19" rx="4.08" ry="4.08" fill="#e0e0e0"/>
        <path d="m163.1,364.49c0,.15-31.82.27-71.06.27s-71.07-.12-71.07-.27,31.81-.27,71.07-.27,71.06.12,71.06.27Z" fill="#263238"/>
        <path d="m163.1,408.21c0,.15-31.82.27-71.06.27s-71.07-.12-71.07-.27,31.81-.27,71.07-.27,71.06.12,71.06.27Z" fill="#263238"/>
        <circle cx="46.29" cy="344" r="3.1" fill="#fff"/>
        <circle cx="57.41" cy="344" r="3.1" fill="#fff"/>
        <rect x="125.88" y="339.23" width="2.83" height="10.55" rx="1.15" ry="1.15" fill="#263238"/>
        <rect x="133.02" y="339.23" width="2.83" height="10.55" rx="1.15" ry="1.15" fill="#263238"/>
        <rect x="139.6" y="339.23" width="2.83" height="10.55" rx="1.15" ry="1.15" fill="#fff"/>
        <rect x="118.64" y="339.23" width="2.83" height="10.55" rx="1.15" ry="1.15" fill="#b00043"/>
        <circle cx="46.29" cy="386.48" r="3.1" fill="#fff"/>
        <circle cx="56.8" cy="386.48" r="3.1" fill="#fff"/>
        <rect x="125.88" y="381.71" width="2.83" height="10.55" rx="1.15" ry="1.15" fill="#263238"/>
        <rect x="133.02" y="381.71" width="2.83" height="10.55" rx="1.15" ry="1.15" fill="#263238"/>
        <rect x="139.6" y="381.71" width="2.83" height="10.55" rx="1.15" ry="1.15" fill="#fff"/>
        <rect x="118.64" y="381.71" width="2.83" height="10.55" rx="1.15" ry="1.15" fill="#b00043"/>
        <circle cx="46.29" cy="432.2" r="3.1" fill="#fff"/>
        <circle cx="57.7" cy="432.2" r="3.1" fill="#fff"/>
        <rect x="125.88" y="427.43" width="2.83" height="10.55" rx="1.15" ry="1.15" fill="#263238"/>
        <rect x="133.02" y="427.43" width="2.83" height="10.55" rx="1.15" ry="1.15" fill="#263238"/>
        <rect x="139.6" y="427.43" width="2.83" height="10.55" rx="1.15" ry="1.15" fill="#fff"/>
        <rect x="118.64" y="427.43" width="2.83" height="10.55" rx="1.15" ry="1.15" fill="#b00043"/>
      </g>
      <g>
        <g>
          <path d="m91.41,126.38c-.21-2.47-2.83-4.44-5.26-3.96-1.38-2.71-5.15-3.86-7.81-2.38-1.26.7-2.22,1.86-3.45,2.61-1.19.72-2.57,1.04-3.82,1.64-1.25.6-2.45,1.64-2.61,3.02-.17,1.53,1.04,2.95,2.48,3.52,1.43.57,3.03.5,4.57.41-.67.39-.82,1.36-.47,2.06.35.7,1.05,1.14,1.77,1.43,2.39.96,5.32.42,7.21-1.33l2.88-2.21c2.48.06,4.73-2.33,4.51-4.8Z" fill="#263238"/>
          <path d="m84.21,136.02c-.53.53-1.48.47-2.03-.04-.55-.51-.7-1.36-.49-2.07.21-.72.75-1.31,1.38-1.72.63-.41,1.34-.66,2.06-.87,1.11-.33,2.24-.59,3.4-.64.41-.02.83-.01,1.21.15s.7.5.74.91c.05.57-.46,1.03-.92,1.37-1.73,1.28-3.57,2.4-5.5,3.34" fill="#ff725e"/>
          <path d="m82.52,135.72c-2.73-3.05-9.54-2.64-11.16-.66-2.35-1.24-5.63-.18-6.81,2.21-2.41.51-4.83,1.02-7.24,1.53-1.24.26-2.53.55-3.48,1.38-.95.83-1.41,2.38-.63,3.37-2.55.64-3.58,4.43-1.7,6.28-1.05,1.09-.86,3.1.38,3.97-2.01,2.38-3.62,5.11-4.72,8.02-.46,1.22-.83,2.58-.39,3.81.44,1.23,2.05,2.08,3.11,1.32-.73.98-.8,2.41-.18,3.46-1.22.02-1.6,1.91-.77,2.81.83.9,2.2,1,3.42.98,1.22-.02,2.55-.07,3.55.63-.05.37-.19.6-.4.77-2.11,1.69-2.73,4.63-1.17,6.85.14.21.28.39.4.57.7,1.01,2.45,1.95,3.54,2.52,2.76,1.46,4.41,1.2,7.49,1.67-.86,1.99,4.13,6.43,9.9,2.14,11.43,3.16,19.68,4.39,31.55,4.5,1.69.02,3.73-.2,4.49-1.71,1.37.37,2.86-.25,3.88-1.24,1.02-.99,1.67-2.29,2.29-3.56,2.94-.77,5.21-3.58,5.35-6.61,2-1.54,3.3-3.95,3.48-6.46,2.86-.85,4.45-4.53,3.12-7.2-.59-3.5-1.76-6.89-3.45-10.01,1.94-.41,2.69-3.02,1.91-4.84-.78-1.82-2.54-3.01-4.21-4.08,1.45.4,2.73-1.42,2.39-2.88-.34-1.46-1.64-2.48-2.92-3.26-1.88-1.15-3.9-2.06-5.99-2.72-.67-2.56-3.92-5.49-6.3-6.64-9.61-4.63-16.37-5.84-28.72,3.08" fill="#263238"/>
          <path d="m75.09,151.19c-.13-2.03-.47-4.04,1.54-4.34l20.5-6.18c6.61-1,11.4,6.97,12.12,13.62.8,7.38,1.49,16.43.86,22-1.26,11.19-11.12,14.2-11.12,14.2,0-.01.26,6.79.26,6.79-.85,5.22-2.17,11.1-4.29,13.19-7.25-1.35-19.12-17.3-19.12-17.3l-.74-41.97Z" fill="#ae7461"/>
          <path d="m98.52,171.18c-.01-.09.93-.29,2.47-.56.39-.06.76-.15.81-.42.08-.29-.1-.7-.31-1.15-.41-.93-.84-1.91-1.29-2.93-1.8-4.17-3.12-7.61-2.95-7.68.17-.07,1.77,3.25,3.57,7.43.43,1.03.85,2.01,1.25,2.95.17.44.45.93.27,1.53-.09.3-.37.52-.62.6-.25.09-.47.1-.66.12-1.55.15-2.51.2-2.52.12Z" fill="#263238"/>
          <path d="m98.99,190.49s-6.04-.39-13.65-4.5c0,0,2.58,7.01,13.75,7.87l-.1-3.37Z" fill="#6f4439"/>
          <path d="m91.97,154.1c-.13.42-1.67.3-3.46.59-1.8.26-3.22.85-3.48.49-.11-.17.12-.58.69-1.01.56-.43,1.47-.85,2.55-1.02,1.07-.17,2.07-.04,2.74.2.67.24,1.02.55.96.75Z" fill="#263238"/>
          <path d="m106.72,153.84c-.25.36-1.33.05-2.6.09-1.27,0-2.34.34-2.6-.01-.12-.17.04-.53.49-.88.45-.35,1.21-.65,2.08-.67.87-.01,1.64.27,2.1.61.47.34.63.69.52.87Z" fill="#263238"/>
          <path d="m114.25,159.63c-.11-1.74-.65-3.51-1.85-4.78-.65-.7-1.48-1.23-2.06-1.99-1.25-1.64-1.08-3.92-1.61-5.92-.69-2.57-2.7-4.75-5.2-5.64-2.09-.74-4.45-.64-6.4-1.68-1.45-.77-2.55-2.1-4.04-2.78-2.9-1.32-6.26.17-9,1.8-.54,2.18.84,4.06,2.16,5.86,1.33,1.81,3.48,2.98,5.72,3.11,1.74.1,3.76-.29,4.98.95,1.28,1.3.79,3.6,1.84,5.09,1.51,2.13,4.94,1.32,7.2,2.64,1.74,1.02,2.48,3.1,3.36,4.92.88,1.82,2.4,3.71,4.41,3.62.29-1.72.59-3.46.48-5.2Z" fill="#263238"/>
          <path d="m88.42,142.6c-5.07-.07-10.16.85-14.88,2.7-1.41.55-2.86,1.25-3.67,2.53-.71,1.13-.79,2.53-.77,3.86.05,4.16,1.73,9.26,3.32,13.11l5.2,3.11c4-.95,2.16-7.86,1.96-11.33,2.79-1.23,4.74-4.18,4.77-7.23,2.29-1.47,3.83-4.04,4.06-6.74Z" fill="#263238"/>
          <path d="m77.55,166.4c-.16-2.38-3.08-2.84-5.13-1.61-1.12.67-1.97,2.01-1.82,4.53.39,6.74,7.08,4.96,7.08,4.76,0-.12.06-4.9-.13-7.68Z" fill="#ae7461"/>
          <path d="m75.47,171.65s-.11.09-.31.19c-.19.1-.52.18-.88.07-.73-.22-1.39-1.32-1.5-2.53-.05-.61.04-1.2.23-1.7.18-.5.48-.87.83-.95.35-.1.62.1.71.28.1.18.07.32.1.33.02.02.14-.12.07-.4-.04-.13-.12-.29-.29-.41-.17-.12-.41-.18-.66-.13-.52.07-.96.57-1.17,1.12-.24.55-.36,1.21-.3,1.9.12,1.36.89,2.59,1.88,2.81.48.1.87-.07,1.06-.24.2-.18.23-.33.2-.34Z" fill="#6f4439"/>
          <path d="m74.73,174.48s0,.03-.02.09c-.02.06-.02.15-.09.26-.09.23-.36.5-.78.7-.42.21-.99.33-1.67.35-.34.01-.7,0-1.08-.07-.38-.06-.79-.16-1.18-.36l.08-.04c-.14.92-.75,1.91-1.78,2.45-1.02.54-2.46.5-3.55-.31l.11-.02c-.2.3-.52.52-.88.59-.36.08-.74.04-1.09-.09-.35-.13-.67-.38-.88-.71-.21-.33-.32-.72-.34-1.11-.05-.79.24-1.6.73-2.25.49-.66,1.13-1.2,1.78-1.73v.16c-.56-.33-.93-.95-1.06-1.6-.13-.65-.07-1.35.19-1.99.26-.63.69-1.19,1.18-1.68.49-.49,1.04-.92,1.59-1.35v.15c-.51-.5-.72-1.24-.68-1.96.04-.72.31-1.42.76-2,.87-1.11,2.12-1.72,3.29-2.3l-.05.12c-.36-1.48.07-3.07,1.06-4.13.99-1.06,2.45-1.56,3.8-1.4l-.1.12c-.27-1.21.18-2.43.91-3.28.73-.86,1.79-1.41,2.85-1.4l-.08.09c0-1.23.69-2.3,1.53-2.94.85-.66,1.89-.93,2.82-.78l-.08.07c.02-.66.26-1.24.55-1.73.29-.49.64-.91,1.02-1.24.75-.68,1.62-.95,2.3-1,.09,0,.17-.01.25-.02.08,0,.16.01.24.02.15.02.3.02.43.05.26.07.48.1.64.18.16.07.28.12.38.16.08.04.13.06.12.06,0,0-.05-.01-.13-.04-.09-.04-.22-.08-.38-.14-.16-.07-.39-.1-.64-.16-.13-.03-.27-.02-.42-.04-.08,0-.15-.01-.23-.01-.08,0-.16.01-.25.02-.67.06-1.51.33-2.24,1-.37.32-.71.73-.99,1.22-.27.48-.5,1.05-.52,1.67v.08s-.08-.01-.08-.01c-.88-.14-1.89.13-2.7.77-.81.63-1.46,1.65-1.45,2.82v.09s-.08,0-.08,0c-1,0-2.01.52-2.71,1.35-.7.82-1.12,1.99-.86,3.12l.03.13-.13-.02c-1.29-.15-2.69.34-3.63,1.35-.94,1.01-1.36,2.54-1.01,3.94l.02.08-.07.04c-1.16.58-2.39,1.18-3.21,2.24-.42.54-.68,1.22-.72,1.89-.04.67.15,1.35.61,1.8l.08.08-.09.07c-1.1.84-2.2,1.73-2.71,2.95-.25.6-.31,1.26-.18,1.87.12.61.46,1.17.98,1.47l.12.07-.11.09c-.65.53-1.28,1.06-1.75,1.69-.48.63-.75,1.39-.7,2.13.03.73.44,1.45,1.11,1.68.63.25,1.43.12,1.78-.43l.05-.07.07.05c1.03.78,2.42.83,3.4.32.99-.51,1.59-1.46,1.73-2.35v-.08s.08.04.08.04c.38.19.77.29,1.15.36.37.06.73.09,1.06.08.66,0,1.23-.12,1.64-.32.41-.19.68-.45.78-.66.11-.21.12-.34.14-.33Z" fill="#455a64"/>
          <path d="m49.04,167.28s-.11-.13-.25-.41c-.14-.28-.32-.73-.36-1.33-.04-.6.06-1.38.55-2.12.48-.72,1.33-1.39,2.44-1.55l-.06.08c-.22-1.03-.05-2.26.61-3.33.32-.53.77-1.03,1.32-1.4.55-.39,1.22-.59,1.84-.87.31-.14.62-.3.88-.52.26-.22.47-.51.62-.83.3-.65.4-1.41.77-2.11.75-1.37,2.42-2.29,4.1-2.04l-.12.11c-.22-1.54.27-3.24,1.41-4.46,1.18-1.26,2.95-1.86,4.57-1.67l-.11.11c-.2-1.98.91-3.89,2.52-4.71,1.62-.83,3.54-.62,4.86.27h-.11c.69-.68,1.53-1.12,2.35-1.43.83-.3,1.64-.49,2.42-.56,1.55-.18,2.92,0,4,.27,1.08.28,1.88.66,2.37.99.26.15.42.31.55.4.12.09.18.15.18.15-.01.01-.25-.19-.75-.5-.5-.31-1.3-.67-2.37-.93-1.07-.25-2.43-.41-3.96-.23-.77.07-1.57.27-2.38.56-.8.3-1.62.74-2.29,1.41l-.05.05-.06-.04c-1.27-.85-3.13-1.05-4.67-.25-1.53.79-2.6,2.64-2.4,4.52v.13s-.11-.02-.11-.02c-1.56-.19-3.26.39-4.4,1.61-1.09,1.16-1.57,2.81-1.36,4.29l.02.13-.14-.02c-1.59-.25-3.19.63-3.9,1.93-.36.65-.46,1.41-.77,2.09-.15.34-.38.66-.67.89-.28.24-.61.41-.93.55-.64.28-1.29.48-1.82.85-.53.36-.96.83-1.28,1.35-.64,1.03-.81,2.22-.61,3.22v.07s-.06.01-.06.01c-1.07.15-1.9.79-2.37,1.48-.48.7-.59,1.46-.57,2.05.03.6.19,1.04.32,1.32.13.28.23.42.22.42Z" fill="#455a64"/>
          <path d="m113.52,169.1s-.14-.18-.03-.55c.06-.18.19-.38.39-.56.2-.19.5-.31.83-.42.33-.11.71-.2,1.05-.44.34-.23.61-.62.76-1.08.16-.46.2-.99.17-1.54-.02-.56-.11-1.15-.11-1.78-.01-1.28.53-2.58.86-3.99.16-.7.23-1.46.09-2.22-.13-.75-.53-1.49-1.22-1.9-.69-.42-1.53-.55-2.36-.8-.42-.13-.84-.29-1.21-.56-.38-.26-.65-.65-.85-1.07-.4-.84-.5-1.76-.71-2.65-.1-.45-.24-.89-.47-1.28-.22-.39-.58-.7-.99-.87-.58-.22-1.23-.19-1.87-.25-.32-.03-.64-.1-.94-.24-.3-.14-.56-.36-.75-.63-.38-.54-.51-1.16-.71-1.72-.18-.57-.46-1.09-.85-1.52-.76-.87-1.86-1.38-2.94-1.4-1.08-.03-2.12.37-2.86,1.04l-.09.08-.05-.11c-.83-1.83-2.46-3.01-4-3.46-.78-.23-1.55-.27-2.25-.19-.7.07-1.33.26-1.85.52-1.06.52-1.65,1.28-1.97,1.81-.17.27-.27.49-.33.63-.03.07-.06.12-.08.17-.02.04-.03.06-.03.05s0-.02.02-.06c.02-.05.04-.1.07-.17.06-.15.15-.38.31-.65.31-.54.9-1.33,1.97-1.88.53-.27,1.17-.47,1.88-.55.71-.08,1.5-.05,2.31.18,1.59.45,3.26,1.64,4.12,3.52l-.14-.03c.77-.7,1.85-1.12,2.98-1.09,1.13.02,2.29.55,3.08,1.46.4.45.71,1,.89,1.59.2.57.34,1.18.68,1.67.33.5.93.73,1.55.78.62.07,1.28.03,1.92.27.46.19.86.53,1.1.96.25.42.39.88.49,1.34.21.9.31,1.82.69,2.61.19.39.44.75.79.99.34.25.74.41,1.15.54.81.25,1.67.38,2.4.83.36.22.67.53.88.89.21.36.35.75.42,1.14.14.79.06,1.57-.1,2.29-.34,1.43-.88,2.71-.88,3.95,0,.62.08,1.21.1,1.77.03.56-.02,1.11-.19,1.59-.16.48-.45.88-.81,1.13-.37.24-.76.33-1.08.44-.33.1-.62.22-.82.39-.2.17-.33.36-.39.53-.12.35,0,.54-.01.54Z" fill="#455a64"/>
          <path d="m126.6,158.65s-.03-.04-.07-.13c-.05-.09-.11-.22-.19-.38-.16-.35-.4-.84-.7-1.46-.31-.63-.65-1.42-1.14-2.29-.49-.85-1.16-1.82-2.26-2.42-.55-.3-1.18-.49-1.81-.77-.32-.14-.63-.31-.92-.54-.29-.23-.53-.53-.69-.88-.32-.7-.33-1.49-.58-2.22-.13-.36-.33-.69-.65-.92-.31-.24-.69-.37-1.08-.5-.39-.13-.81-.24-1.19-.46-.39-.2-.72-.55-.92-.95-.4-.82-.41-1.74-.58-2.62-.08-.44-.2-.87-.45-1.24-.24-.37-.64-.61-1.07-.7-.89-.18-1.84.12-2.83-.03-.49-.08-.96-.34-1.3-.69-.34-.35-.6-.76-.84-1.16-.24-.4-.47-.8-.74-1.16-.27-.36-.6-.67-.99-.85-.8-.37-1.71-.17-2.55.02-.84.19-1.71.4-2.56.22-.84-.17-1.56-.6-2.23-1.01-.67-.41-1.3-.85-1.98-1.1-1.38-.49-2.8-.43-4-.13-1.21.3-2.21.89-2.96,1.53-.76.64-1.26,1.35-1.63,1.94-.34.61-.58,1.1-.7,1.45-.07.16-.12.29-.16.39-.04.09-.06.13-.06.13,0,0,.01-.05.04-.14.03-.1.08-.23.14-.4.11-.36.33-.85.67-1.48.37-.6.86-1.32,1.63-1.98.76-.65,1.77-1.26,3-1.58,1.22-.31,2.67-.39,4.1.11.71.26,1.35.7,2.02,1.11.67.41,1.37.82,2.17.98.8.17,1.64-.03,2.48-.23.42-.1.86-.2,1.31-.23.45-.03.93.02,1.36.22.44.19.79.53,1.07.91.28.37.51.78.75,1.18.24.4.49.79.81,1.12.32.33.73.55,1.19.63.92.15,1.87-.16,2.84.03.48.1.93.38,1.19.79.27.4.39.87.48,1.32.17.89.18,1.8.55,2.56.19.37.47.68.84.87.36.2.76.31,1.16.45.39.13.8.27,1.14.53.35.25.57.63.71,1.01.26.77.27,1.55.57,2.21.28.67.91,1.07,1.52,1.34.62.28,1.25.48,1.81.79,1.13.63,1.8,1.63,2.29,2.49.48.88.81,1.67,1.11,2.31.28.63.5,1.13.66,1.48.07.16.13.29.17.39.04.09.05.13.05.13Z" fill="#455a64"/>
          <path d="m119.42,151.6s.04-.01.12-.02c.08,0,.21,0,.36.08.29.14.62.57.67,1.19.02.31-.06.65-.14,1.01-.08.36-.19.75-.17,1.17.02.42.21.84.48,1.24.26.41.6.8.86,1.29.28.47.41,1.12.17,1.7-.22.57-.63,1.05-.84,1.64-.21.58-.09,1.25.18,1.86.26.62.64,1.21.9,1.9.13.34.22.71.22,1.09,0,.38-.1.77-.26,1.12-.32.7-.84,1.29-1.28,1.92-.44.62-.81,1.35-.71,2.13.09.78.52,1.49.82,2.27.15.39.25.81.25,1.24,0,.43-.13.84-.32,1.21-.38.74-.95,1.32-1.45,1.91-.51.59-.96,1.2-1.18,1.91-.24.7-.37,1.44-.7,2.1-.17.33-.39.63-.68.85-.29.23-.63.35-.95.46-.32.11-.64.2-.93.33-.29.14-.55.32-.78.53-.46.43-.79.94-1.1,1.44-.31.5-.6,1-.92,1.44-.64.9-1.52,1.47-2.35,1.73-.83.27-1.6.3-2.2.21-.61-.08-1.06-.25-1.34-.39-.29-.14-.42-.24-.42-.24.01-.04.57.41,1.78.56.59.07,1.35.03,2.16-.24.81-.26,1.65-.82,2.27-1.71.31-.44.59-.93.9-1.44.31-.51.65-1.03,1.12-1.48.24-.22.52-.41.82-.56.31-.15.63-.24.95-.35.32-.11.64-.23.9-.44.27-.2.47-.48.63-.79.31-.63.44-1.36.68-2.08.22-.74.7-1.39,1.21-1.98.51-.59,1.07-1.17,1.42-1.87.18-.35.29-.73.29-1.12,0-.39-.1-.78-.24-1.16-.28-.76-.73-1.48-.83-2.32-.05-.42.02-.84.17-1.22.15-.38.36-.73.58-1.05.45-.64.96-1.22,1.27-1.89.15-.33.24-.68.24-1.04,0-.35-.08-.7-.2-1.03-.25-.66-.62-1.26-.88-1.89-.28-.62-.41-1.35-.18-1.98.23-.62.65-1.1.85-1.64.23-.53.11-1.11-.15-1.57-.25-.47-.58-.87-.85-1.29-.26-.41-.46-.86-.48-1.31-.01-.45.1-.84.19-1.2.09-.35.17-.69.16-.98-.03-.6-.34-1.02-.61-1.16-.28-.15-.47-.07-.46-.09Z" fill="#455a64"/>
          <path d="m93.68,173.44c.19-.45.7-.67,1.16-.5,1.41.52,2.82,1.03,4.22,1.55l.47.17c-.2.74-.52,1.82-.93,2.47-.41.65-1.06,1.2-1.83,1.29-.58.07-1.29-.14-1.78-.44-.86-.54-1.68-1.13-1.87-2.13-.13-.71.28-1.75.55-2.41Z" fill="#6f4439"/>
          <path d="m70.74,173.38s-.41.12-1.01.58c-.59.45-1.36,1.34-1.64,2.69-.14.67-.15,1.43.05,2.21.21.77.62,1.55,1.23,2.22.6.67,1.41,1.23,2.34,1.54.93.32,2,.35,3.01.06,1.01-.28,1.91-.84,2.57-1.57.67-.73,1.08-1.63,1.23-2.52.29-1.8-.37-3.47-1.33-4.43-.49-.49-1.04-.78-1.53-.99-.5-.21-.95-.31-1.33-.35-.38-.04-.67-.01-.87.03-.19.04-.29.09-.29.09,0,.03.41-.13,1.14-.02.36.05.81.16,1.29.38.47.22,1.01.51,1.46.98.9.94,1.51,2.55,1.22,4.27-.15.85-.54,1.7-1.18,2.39-.63.69-1.49,1.22-2.45,1.49-.96.27-1.97.24-2.86-.06-.89-.29-1.67-.82-2.25-1.46-.59-.63-.99-1.38-1.2-2.11-.2-.74-.21-1.48-.08-2.12.24-1.3.96-2.18,1.52-2.65.57-.48.96-.63.94-.66Z" fill="#e0e0e0"/>
          <path d="m93.09,164.69c.06.77-.54,1.46-1.35,1.54-.8.08-1.5-.48-1.57-1.25-.06-.77.54-1.46,1.34-1.54.8-.08,1.51.48,1.57,1.25Z" fill="#263238"/>
          <path d="m107.16,164.33c.06.77-.54,1.46-1.35,1.54-.8.08-1.5-.48-1.56-1.25-.06-.77.54-1.46,1.34-1.54.8-.08,1.51.48,1.57,1.25Z" fill="#263238"/>
          <path d="m106.57,158.94c-.14.22-1.26-.54-2.7-.38-1.44.14-2.39,1.11-2.57.92-.09-.08.04-.47.45-.9.4-.44,1.13-.9,2.02-.99.9-.09,1.7.21,2.18.55.49.35.68.7.61.8Z" fill="#263238"/>
          <path d="m92.84,160.12c-.2.23-1.43-.73-3.16-.72-1.73-.01-2.98.95-3.18.72-.09-.1.1-.51.65-.94.54-.43,1.46-.86,2.54-.86,1.08,0,1.99.42,2.51.85.54.43.72.84.63.94Z" fill="#263238"/>
          <path d="m97.73,177.9s-.12.18-.46.34c-.34.16-.9.26-1.57.13-.66-.13-1.42-.46-2.06-1.1-.33-.31-.59-.76-.71-1.25-.11-.49-.08-1.02.04-1.52.12-.5.32-.96.53-1.38.11-.22.28-.48.61-.57.33-.07.57.06.76.12.75.3,1.45.58,2.1.85,1.19.49,1.91.83,1.89.89-.02.06-.79-.17-2-.59-.66-.23-1.37-.49-2.13-.76-.43-.18-.63-.16-.83.26-.2.4-.38.83-.49,1.29-.24.91-.05,1.81.52,2.37.56.58,1.24.92,1.83,1.07.6.15,1.11.12,1.44.02.33-.1.5-.21.52-.18Z" fill="#263238"/>
          <path d="m125.9,130.83s-.56-.56-1.84-1.07c-.64-.24-1.46-.45-2.42-.43-.96.01-2.07.25-3.09.89l-.15.09-.09-.15c-.65-1.12-1.87-2.08-3.38-2.48-1.49-.41-3.32-.27-4.74.75l-.18.13-.13-.18c-1.27-1.74-3.37-3.1-5.76-3.49-1.84-.31-3.7.03-5.25.79-1.56.76-2.82,1.93-3.65,3.24l-.06.09h-.11c-2.05.08-3.92.61-5.44,1.35-1.53.72-2.73,1.64-3.62,2.48-1.79,1.7-2.41,3.04-2.48,2.99-.01,0,.03-.09.11-.24.08-.15.2-.39.38-.67.36-.57.94-1.37,1.82-2.26.89-.88,2.08-1.84,3.64-2.61,1.54-.79,3.45-1.35,5.58-1.45l-.17.1c.86-1.38,2.17-2.62,3.8-3.42,1.62-.81,3.59-1.17,5.52-.84,2.51.42,4.72,1.85,6.04,3.69l-.3-.05c1.57-1.11,3.53-1.23,5.1-.78,1.6.44,2.89,1.48,3.56,2.7l-.24-.06c1.1-.66,2.27-.89,3.26-.87,1.01,0,1.85.25,2.5.52.65.28,1.09.61,1.38.84.28.25.4.39.39.4Z" fill="#263238"/>
          <path d="m80.21,128.48s-.55.33-1.68.4c-1.1.07-2.88-.18-4.43-1.59-.75-.7-1.39-1.71-1.64-2.91-.26-1.19-.19-2.57.37-3.85.55-1.28,1.68-2.39,3.1-2.97,1.41-.58,3.11-.67,4.64-.04l-.26.06c.61-.74,1.54-1.26,2.54-1.45.83-.16,1.68-.08,2.46.21.77.3,1.43.85,1.87,1.51.89,1.32,1.03,3.04.38,4.38l-.3-.27c1.11-.66,2.46-.56,3.47-.07,1.04.48,1.78,1.43,2.05,2.41.56,2-.28,3.87-1.34,4.85-1.07,1.02-2.22,1.38-2.97,1.54-.38.08-.68.11-.89.12-.2,0-.31,0-.31-.01,0-.04.42-.04,1.16-.24.73-.2,1.83-.6,2.82-1.59.98-.95,1.73-2.72,1.18-4.56-.26-.9-.93-1.73-1.88-2.16-.93-.44-2.13-.5-3.08.08l-.62.38.31-.65c.57-1.19.44-2.76-.37-3.94-.4-.6-.98-1.07-1.66-1.34-.69-.26-1.46-.33-2.21-.18-.9.17-1.73.64-2.27,1.29l-.11.13-.16-.07c-1.4-.59-2.98-.51-4.3.02-1.33.53-2.36,1.54-2.89,2.73-.54,1.19-.62,2.48-.39,3.61.23,1.14.8,2.09,1.5,2.77,1.44,1.37,3.15,1.66,4.22,1.64,1.1-.02,1.68-.29,1.69-.24Z" fill="#263238"/>
          <path d="m48.16,146s-.06-.08-.13-.25c-.08-.17-.17-.44-.26-.79-.17-.7-.33-1.78-.07-3.1.25-1.3.94-2.88,2.36-4.08,1.39-1.19,3.46-1.99,5.69-1.73l-.22.12c.86-1.79,2.47-3.41,4.54-4.28,1.53-.65,3.21-.8,4.73-.55,1.53.25,2.91.88,4,1.73l-.23-.02c1.62-.85,3.31-1.18,4.8-1.14,1.49.01,2.77.36,3.76.76.99.41,1.7.89,2.15,1.24.44.37.66.59.65.6-.05.07-.92-.86-2.89-1.61-.98-.36-2.23-.67-3.67-.65-1.43-.01-3.06.33-4.6,1.16l-.12.06-.11-.08c-1.04-.8-2.37-1.39-3.82-1.62-1.45-.23-3.03-.09-4.48.53-1.96.83-3.5,2.36-4.32,4.05l-.07.14-.16-.02c-2.08-.26-4.06.47-5.39,1.58-1.36,1.11-2.05,2.6-2.33,3.85-.28,1.27-.18,2.32-.05,3.01.13.7.28,1.06.25,1.07Z" fill="#263238"/>
        </g>
        <g>
          <g>
            <path d="m168.18,270.97l-3.8-5.74-6.09-3.06-.23-.17c-1.99-1.45-4.53-1.92-6.91-1.28-2.48.66-5.79,1.48-8.66,1.97l-6.56-1.79v12.8l33.08-2.09-.83-.64Z" fill="#ae7461"/>
            <g>
              <path d="m167.95,270.62s-.5-.53-1.4-1.28c-.9-.75-2.15-1.76-3.55-2.85-.46-.35-.89-.69-1.31-1.02l-.04-.03h-.05c-1.36-.26-2.53-.47-3.38-.6-.84-.13-1.35-.18-1.36-.14,0,.05.48.19,1.31.39.83.2,2,.45,3.35.73l-.08-.04c.41.33.85.67,1.3,1.03,1.4,1.1,2.68,2.07,3.63,2.76.94.69,1.54,1.09,1.58,1.05Z" fill="#6f4439"/>
              <path d="m165.37,271.74c.06-.1-2.08-1.39-4.76-2.87-.4-.22-.79-.43-1.16-.64l-.04-.02h-.04c-2.43-.14-4.23-.17-4.23-.07,0,.1,1.78.29,4.21.47l-.08-.02c.37.21.76.42,1.15.65,2.68,1.49,4.9,2.61,4.96,2.51Z" fill="#6f4439"/>
            </g>
          </g>
          <path d="m206.69,234.76c-1.11-.62-2.51-.32-3.26.7l-26.64,36.08-42.16.57c-1.68.1-3.73,3.5-2.22,5.15l47.61-.65,27.48-38.19c.88-1.22.5-2.93-.81-3.67Z" fill="#e0e0e0"/>
        </g>
        <g>
          <path d="m78.98,192.97c-2.27.25-5.44,1.72-7.09,3.31-2.68,2.6-4.62,6.15-5.67,9.29-1.41,4.22-.78,20.88-.78,25.7s1.23,22.95,1.83,25.97c.61,3.02-.39,7.5-1.79,10.42-2.51,5.23,1.4,7.91,1.4,7.91l51.73-.39-.21-1.93c-.36-3.36.9-6.79-.38-9.92-1.34-3.28-2.84-8.45-2.38-14.5.66-8.62,3.24-14.5,1.65-19.5-2.41-7.63-10.38-24.97-20-32.38,0,0-7.59-1.63-9.31-2.23-3.91-1.37-5.97-2.11-9.02-1.77Z" fill="#efc037"/>
          <path d="m139.8,259.41l-44.2-9.23-1.14-38.37s-1.55-15.63-9.38-17.08l-18.86,23.48c1.05,11.83.09,34.23,5.53,42.86,5.44,8.64,10.73,15.56,24.12,14.94,13.39-.61,42.91-.9,42.91-.9l1.02-15.71Z" fill="#efc037"/>
          <path d="m95.69,250.34c.11.08-.96,1.47-1.85,3.39-.91,1.92-1.28,3.62-1.42,3.6-.11-.01.08-1.8,1.01-3.79.92-1.99,2.17-3.28,2.25-3.21Z" fill="#263238"/>
          <g fill="none" opacity=".3">
            <path d="m94.16,210.18c4.41,13.56,3.46,34.48,11.87,42.19l-10.43-2.18s.35-4.03.09-7.37c-.85-10.72-.95-21.63-1.53-32.64"/>
          </g>
          <path d="m93.18,205.34s.37,1.04.77,3.08c.2,1.02.4,2.29.54,3.8.14,1.51.17,3.25.24,5.2.25,7.83.61,19.07,1.05,32.76l-.14-.17c12.67,2.63,27.77,5.77,44.2,9.19l.19.04v.19c-.34,5.03-.68,10.32-1.03,15.71v.21s-.22,0-.22,0c-1.7.02-3.53.04-5.37.06-7.68.1-15.18.21-22.42.37-3.62.08-7.18.17-10.66.28-3.47.09-6.91.42-10.24-.11-1.67-.21-3.27-.68-4.81-1.24-1.51-.63-2.96-1.37-4.24-2.32-2.6-1.85-4.62-4.24-6.38-6.62-.86-1.21-1.68-2.42-2.44-3.63l-.57-.9c-.18-.31-.34-.63-.51-.94-.17-.31-.33-.62-.5-.93-.13-.33-.25-.65-.38-.97-1-2.58-1.58-5.18-1.97-7.67-.83-4.98-1.08-9.54-1.29-13.53-.2-4-.29-7.44-.39-10.25-.09-2.81-.19-5-.27-6.48-.05-.73-.08-1.29-.1-1.68-.02-.38-.02-.57-.02-.57,0,0,.03.19.07.57.03.39.08.95.15,1.68.11,1.48.23,3.66.35,6.47.13,2.81.24,6.25.46,10.25.24,3.99.51,8.54,1.36,13.49.4,2.47.99,5.06,1.98,7.59.12.32.25.64.38.96.16.3.32.61.49.91.17.3.32.61.5.92l.57.9c.77,1.2,1.58,2.4,2.44,3.6,1.75,2.36,3.75,4.71,6.3,6.52,1.26.93,2.68,1.64,4.16,2.26,1.51.54,3.08,1,4.72,1.2,3.27.51,6.68.18,10.17.09,3.48-.12,7.04-.22,10.66-.3,7.24-.16,14.74-.28,22.43-.38,1.84-.02,3.67-.04,5.38-.06l-.22.21c.35-5.39.7-10.68,1.02-15.71l.17.23c-16.43-3.44-31.52-6.61-44.19-9.27l-.14-.03v-.14c-.38-13.7-.69-24.94-.9-32.77-.06-1.95-.06-3.7-.19-5.2-.12-1.5-.3-2.77-.49-3.79-.18-1.02-.36-1.79-.49-2.31-.06-.25-.11-.44-.14-.59-.03-.13-.05-.2-.04-.2Z" fill="#263238"/>
        </g>
        <g>
          <polygon points="164.12 353.59 157.56 401.93 174.73 404.75 186.94 361.85 164.12 353.59" fill="#ae7461"/>
          <path d="m112.07,279.31s62.74-4.13,75.77-2.05c7.87,1.26,14.66,13.56,10.37,20.95-2.03,3.5-5.23,14.4-5.23,14.4l-33.72-7.69-47.19-25.61Z" fill="#455a64"/>
          <polygon points="159.26 312.61 145.67 333.33 161.66 343.69 179.01 317.11 159.26 312.61" fill="#ae7461"/>
          <path d="m68.14,275.51s-6.63,29.22,4.07,40.71c7.62,8.18,26.33,7.32,42.12,7.32s52.92-.87,52.92-.87c0,0-1.68,10.28-2.9,21.97-1.23,11.73-1.48,19.09-1.48,19.09l23.53,1.96s13.11-39.9,15.13-47.8c2.01-7.89,1.33-18.52-5.64-22.46-5.91-3.34-52.51-16.26-74.82-18.18l-2.42-2.08-50.49.33Z" fill="#455a64"/>
          <path d="m178.75,313.07c.01.08-.91.21-2.31.71-.7.24-1.5.61-2.35,1.09-.84.5-1.72,1.11-2.57,1.86-.83.76-1.54,1.58-2.12,2.36-.56.8-1.01,1.56-1.33,2.23-.64,1.34-.86,2.24-.94,2.22-.03,0,0-.24.1-.65.08-.42.27-1,.56-1.7.28-.7.72-1.5,1.28-2.34.58-.82,1.3-1.67,2.15-2.45.87-.77,1.79-1.4,2.66-1.89.89-.47,1.73-.82,2.45-1.03.73-.22,1.33-.34,1.75-.38.42-.05.65-.06.66-.03Z" fill="#263238"/>
          <path d="m175.95,288.97c-.11-.06.39-1.19,1.24-2.44.85-1.25,1.72-2.12,1.81-2.05.1.08-.61,1.07-1.44,2.3-.84,1.23-1.5,2.24-1.61,2.18Z" fill="#263238"/>
          <path d="m202.5,306.79s-.03-.08-.07-.23c-.04-.18-.09-.4-.16-.67-.14-.59-.36-1.45-.71-2.54-.35-1.09-.86-2.4-1.67-3.8-.82-1.37-1.98-2.91-3.79-3.82-3.72-1.69-8.35-3.3-13.56-4.82-5.2-1.56-10.94-3.21-17-4.81-12.12-3.22-23.24-5.52-31.34-6.86-4.05-.68-7.34-1.15-9.62-1.47-1.11-.15-1.99-.27-2.62-.36-.28-.04-.5-.08-.68-.1-.15-.03-.23-.04-.23-.05,0,0,.08,0,.24,0,.18.02.41.04.69.06.64.07,1.52.16,2.63.27,2.28.26,5.58.68,9.64,1.33,8.12,1.27,19.27,3.52,31.4,6.74,6.06,1.6,11.8,3.27,17,4.85,5.21,1.54,9.84,3.18,13.58,4.93,1.89.97,3.06,2.57,3.87,3.98.81,1.44,1.29,2.77,1.62,3.88.33,1.11.52,1.98.63,2.58.05.28.09.5.12.68.02.15.03.23.02.23Z" fill="#263238"/>
          <g>
            <g>
              <path d="m176.06,403.49l.57-2.1c-7.29-.76-13.79-3.46-18.95-8.17l-5.82,12.57,38.79,17.25c1.46-3.71-14.6-19.56-14.6-19.56Z" fill="#263238"/>
              <path d="m151.87,405.8l1.42-3.07,36.73,17.72s1.38,1.5.63,2.6l-38.79-17.25Z" fill="#e0e0e0"/>
              <path d="m175.54,403.25c-.09.18-1.08-.16-2.29.02-1.21.15-2.07.73-2.21.58-.16-.11.64-1.09,2.11-1.28,1.47-.2,2.51.53,2.39.68Z" fill="#e0e0e0"/>
              <path d="m160.45,401.9c-.27.54-.94.77-1.49.51-.56-.26-.79-.91-.53-1.45.27-.54.93-.77,1.49-.51.56.26.79.91.53,1.45Z" fill="#e0e0e0"/>
              <path d="m175.31,402.99s-.32-.01-.88-.16c-.54-.16-1.4-.39-2.18-1.16-.19-.19-.36-.42-.51-.67-.15-.25-.29-.53-.33-.89-.05-.37.22-.82.61-.96.38-.17.83-.1,1.18.05,1.34.64,2.37,2.1,2.4,3.78l-.57-.08c.09-.29.22-.59.38-.87.88-1.58,2.65-2.42,4.2-2.38.2,0,.42.01.65.13.23.11.4.35.44.57.08.45-.08.82-.28,1.12-.4.59-.96.96-1.49,1.19-1.09.48-2.05.39-2.66.4-.63-.02-.97-.04-.97-.08,0-.04.34-.09.97-.14.61-.07,1.54-.06,2.49-.54.47-.24.94-.59,1.26-1.08.15-.23.24-.53.19-.76-.05-.22-.23-.29-.59-.28-1.38,0-2.92.75-3.69,2.13-.14.25-.25.51-.34.76-.05.15-.21.23-.37.19-.12-.04-.2-.15-.21-.27,0-1.45-.93-2.77-2.03-3.32-.52-.28-1.14-.04-1.09.42.04.47.36.98.66,1.32.64.71,1.44,1,1.95,1.22.53.21.82.32.81.36Z" fill="#e0e0e0"/>
            </g>
            <path d="m178.52,405.94c-.03.13-1.19-.18-2.57.18-1.38.33-2.26,1.14-2.35,1.04-.1-.06.72-1.11,2.24-1.48,1.52-.39,2.74.15,2.67.25Z" fill="#e0e0e0"/>
            <path d="m180.68,408.4c-.01.13-1.06.1-2.27.47-1.22.35-2.08.95-2.16.85-.08-.08.72-.89,2.03-1.28,1.31-.39,2.42-.15,2.4-.04Z" fill="#e0e0e0"/>
          </g>
          <g>
            <g>
              <path d="m164.7,341.36l.92-1.97c-7.05-1.98-13.01-5.74-17.3-11.24l-7.85,11.41,35.33,23.53c2.07-3.41-11.1-21.74-11.1-21.74Z" fill="#263238"/>
              <path d="m140.47,339.56l1.92-2.79,33.23,23.65s1.11,1.71.19,2.67l-35.33-23.53Z" fill="#e0e0e0"/>
              <path d="m164.24,341.03c-.12.16-1.04-.34-2.26-.36-1.22-.06-2.16.37-2.28.2-.14-.14.82-.97,2.3-.91,1.48.05,2.38.94,2.24,1.07Z" fill="#fff"/>
              <path d="m149.58,337.16c-.35.49-1.05.6-1.56.25-.51-.35-.63-1.03-.27-1.52.35-.49,1.05-.6,1.56-.25.51.35.63,1.03.27,1.52Z" fill="#e0e0e0"/>
              <path d="m164.05,340.74s-.32-.07-.84-.31c-.5-.25-1.32-.62-1.95-1.51-.15-.22-.29-.47-.39-.74-.1-.27-.2-.57-.17-.93.01-.37.35-.77.76-.84.4-.1.84.04,1.15.25,1.21.86,1.98,2.47,1.73,4.13l-.55-.18c.14-.27.32-.54.52-.79,1.13-1.41,3.02-1.94,4.55-1.64.19.04.41.08.62.24.21.15.34.41.34.64,0,.46-.22.8-.46,1.06-.49.51-1.11.78-1.67.93-1.15.29-2.09.04-2.69-.06-.61-.12-.95-.2-.94-.24,0-.04.35-.03.98.02.62.03,1.53.2,2.54-.11.5-.15,1.03-.42,1.42-.86.19-.2.33-.48.31-.71-.01-.22-.18-.32-.53-.38-1.36-.24-3,.24-3.99,1.48-.18.22-.34.46-.46.69-.07.14-.25.2-.39.12-.12-.06-.18-.18-.16-.3.24-1.43-.45-2.89-1.44-3.62-.47-.37-1.12-.23-1.15.23-.04.47.19,1.02.43,1.41.51.81,1.25,1.23,1.72,1.53.48.29.75.46.74.49Z" fill="#fff"/>
            </g>
            <path d="m166.72,344.19c-.05.12-1.15-.37-2.56-.25-1.42.09-2.42.74-2.49.63-.09-.08.9-.97,2.46-1.08,1.56-.13,2.67.61,2.59.7Z" fill="#fff"/>
            <path d="m168.43,346.98c-.03.13-1.06-.08-2.32.08-1.26.14-2.21.59-2.27.47-.07-.09.86-.76,2.22-.91,1.36-.17,2.42.26,2.37.37Z" fill="#fff"/>
          </g>
        </g>
      </g>
    </g>
  </g>
</svg>