<?xml version="1.0" encoding="UTF-8"?>
<svg id="Layer_2" data-name="Layer 2" xmlns="http://www.w3.org/2000/svg" viewBox="0 0 476.18 502.05">
  <g id="Plant">
    <rect x="28.62" y="15.2" width="249.17" height="341.17" rx="8.03" ry="8.03" fill="#f5f5f5"/>
    <g>
      <path d="m458.98,35.52l.47,2.37-4.69,25.39h0c-3.37,2.47-7.6,3.44-11.71,2.68l-26.55-4.91s-4.22-.94-3.04-6.42c0,0,.21-2.89,2.69-3.08,0,0-5.15-2.09-4.58-6.05.57-3.96,3.49-3.91,3.49-3.91,0,0-4.82-1.22-4.32-5.68.5-4.46,3.11-4.47,3.11-4.47,0,0-5.61-1.36-4.2-6.31,1.4-4.95,6.22-3.73,6.22-3.73l18.89,3.49,16.56,3.06c3.88.72,6.92,3.73,7.69,7.59Z" fill="#ebebeb"/>
      <path d="m454.31,29.02s-5.82-5.26-7.86-10.99c-1.49-4.15-1.38-8.84-1.38-8.84.04-.23.38-2.23.66-3.86.23-1.34-.64-2.61-1.97-2.9-2.79-.61-7.71.99-9.19,6.09-2.21,7.61-.32,12.79-.26,15.11l.06,2.32,19.94,3.07Z" fill="#ebebeb"/>
      <rect x="453.99" y="30.78" width="18.86" height="38.32" transform="translate(910.04 183.28) rotate(-169.53)" fill="#ebebeb"/>
      <path d="m450.66,67.07s1.49-8.45,3.41-18.85c1.92-10.41,3.52-18.84,3.56-18.83.04,0-1.49,8.45-3.41,18.86-1.92,10.4-3.52,18.83-3.56,18.83Z" fill="#e0e0e0"/>
      <path d="m469.21,70.5s1.49-8.45,3.41-18.85c1.92-10.41,3.52-18.84,3.56-18.83.04,0-1.49,8.45-3.41,18.86-1.92,10.4-3.51,18.83-3.56,18.83Z" fill="#e0e0e0"/>
      <path d="m462.58,39.22c-.35,1.92.91,3.76,2.83,4.11,1.92.35,3.76-.91,4.11-2.83.35-1.92-.91-3.76-2.83-4.11-1.92-.35-3.76.91-4.11,2.83Z" fill="#fff"/>
      <path d="m430.4,24.06s2.04.3,4.53.76c2.49.46,4.51.87,4.5.91,0,.04-2.04-.3-4.53-.76-2.49-.46-4.51-.87-4.5-.91Z" fill="#e0e0e0"/>
      <path d="m414.64,41.68s1.31.17,2.9.46c1.59.29,2.88.57,2.87.61,0,.04-1.31-.17-2.9-.46-1.59-.29-2.88-.57-2.87-.61Z" fill="#e0e0e0"/>
      <path d="m413.49,31.26s1.85.27,4.11.68c2.26.42,4.09.79,4.08.83,0,.04-1.85-.27-4.11-.68-2.26-.42-4.09-.79-4.08-.83Z" fill="#e0e0e0"/>
      <path d="m414.97,51.37s1.85.27,4.11.68c2.26.42,4.09.79,4.08.83,0,.04-1.85-.27-4.11-.68-2.26-.42-4.09-.79-4.08-.83Z" fill="#e0e0e0"/>
      <path d="m461.8,31.26s2.61.41,5.8,1c3.2.59,5.78,1.1,5.78,1.14,0,.04-2.6-.41-5.8-1-3.2-.59-5.78-1.1-5.77-1.14Z" fill="#fff"/>
      <path d="m412.5,37.79s-.04-.07-.08-.21c-.05-.14-.09-.35-.12-.61-.03-.26-.04-.58-.01-.93.04-.35.11-.73.24-1.11.14-.38.31-.73.5-1.02.19-.29.39-.54.58-.72.19-.19.35-.32.48-.4.12-.08.19-.12.2-.12.02.02-.25.21-.6.59-.18.19-.36.43-.54.72-.18.29-.34.63-.48,1-.13.37-.2.74-.25,1.08-.04.34-.04.65-.02.9.04.52.13.83.1.83Z" fill="#fff"/>
      <path d="m411.52,27.74s-.19-.15-.37-.48c-.18-.33-.35-.84-.34-1.42.01-.58.19-1.08.39-1.4.2-.32.38-.47.39-.46.02.02-.13.19-.29.51-.17.32-.32.8-.33,1.36,0,.55.13,1.04.28,1.37.15.33.3.51.28.52Z" fill="#fff"/>
      <path d="m413.89,48.61s-.25-.12-.52-.46c-.27-.34-.54-.91-.53-1.58.01-.67.3-1.24.58-1.57.28-.33.52-.46.53-.45.02.02-.2.18-.45.51-.25.33-.5.87-.51,1.51,0,.63.23,1.18.47,1.52.24.34.45.51.43.53Z" fill="#fff"/>
      <path d="m416.01,58.25s-.18-.16-.36-.51c-.18-.34-.34-.86-.34-1.46,0-.59.16-1.12.33-1.46.18-.34.34-.52.35-.51.02.01-.11.21-.26.55-.15.34-.28.85-.28,1.42,0,.57.14,1.07.29,1.41.15.34.28.54.26.55Z" fill="#fff"/>
      <path d="m434.77,17.34s-.06-.15-.13-.42c-.04-.14-.08-.3-.12-.5-.04-.2-.09-.42-.12-.67-.08-.5-.13-1.1-.15-1.77,0-.67.03-1.41.14-2.17.11-.77.29-1.48.49-2.12.21-.64.43-1.2.65-1.66.1-.23.22-.43.31-.61.09-.18.18-.33.26-.45.15-.24.23-.37.24-.37,0,0-.06.15-.19.39-.07.12-.15.27-.23.46-.09.18-.19.38-.29.61-.21.46-.42,1.02-.61,1.65-.19.64-.36,1.35-.47,2.1-.11.76-.15,1.49-.15,2.15,0,.66.05,1.26.12,1.76.02.25.07.47.1.67.03.2.06.37.09.5.06.28.08.43.07.43Z" fill="#fff"/>
    </g>
    <g>
      <path d="m430.28,267.65l1.26,1.44,6.83,19.26h0c-1.33,3.02-3.85,5.37-6.97,6.47l-20.15,7.14s-3.27,1.02-4.63-3.2c0,0-1-2.06.62-3.18,0,0-4.36.6-5.53-2.34-1.18-2.94.84-4.06.84-4.06,0,0-3.79,1.07-5.21-2.19-1.42-3.26.36-4.29.36-4.29,0,0-4.38,1.28-5.38-2.66-1-3.95,2.79-5.02,2.79-5.02l14.33-5.08,12.56-4.45c2.94-1.04,6.22-.18,8.27,2.17Z" fill="#ebebeb"/>
      <path d="m424.5,265.05s-6.07-1.31-9.74-4.42c-2.66-2.26-4.44-5.51-4.44-5.51-.06-.17-.62-1.68-1.07-2.91-.37-1.01-1.47-1.53-2.5-1.21-2.16.68-4.89,3.73-3.89,7.81,1.5,6.09,4.84,8.9,5.8,10.46l.96,1.56,14.89-5.78Z" fill="#ebebeb"/>
      <rect x="431.56" y="260.62" width="14.93" height="30.33" transform="translate(944.95 389.06) rotate(160.48)" fill="#ebebeb"/>
      <path d="m437.05,292.57s-2.32-6.38-5.12-14.28c-2.8-7.9-5.04-14.3-5.01-14.32s2.32,6.38,5.12,14.28c2.8,7.89,5.04,14.3,5.01,14.31Z" fill="#e0e0e0"/>
      <path d="m451.13,287.59s-2.32-6.38-5.12-14.28c-2.8-7.9-5.04-14.31-5.01-14.32.03-.01,2.32,6.38,5.12,14.28,2.8,7.89,5.04,14.3,5.01,14.31Z" fill="#e0e0e0"/>
      <path d="m434.21,268.77c.52,1.45,2.11,2.22,3.57,1.7,1.45-.52,2.22-2.11,1.7-3.57-.52-1.45-2.11-2.22-3.57-1.7-1.45.52-2.22,2.11-1.7,3.57Z" fill="#fff"/>
      <path d="m406.14,271.11s1.51-.6,3.41-1.27c1.89-.67,3.44-1.19,3.45-1.16s-1.51.6-3.41,1.27c-1.89.67-3.44,1.19-3.45,1.16Z" fill="#e0e0e0"/>
      <path d="m402.31,289.42s.96-.4,2.17-.83c1.21-.43,2.2-.75,2.21-.72.01.03-.96.4-2.17.83-1.21.43-2.2.75-2.21.72Z" fill="#e0e0e0"/>
      <path d="m397.4,282.73s1.37-.55,3.09-1.16c1.72-.61,3.12-1.08,3.13-1.05.01.03-1.37.55-3.09,1.16-1.72.61-3.12,1.08-3.13,1.05Z" fill="#e0e0e0"/>
      <path d="m406.37,295.94s1.37-.55,3.09-1.16c1.72-.61,3.12-1.08,3.13-1.05.01.03-1.37.55-3.09,1.16-1.72.61-3.12,1.08-3.13,1.05Z" fill="#e0e0e0"/>
      <path d="m430.53,263.62s1.95-.75,4.37-1.61c2.43-.86,4.4-1.53,4.41-1.5.01.03-1.95.75-4.37,1.61-2.43.86-4.4,1.53-4.41,1.5Z" fill="#fff"/>
      <path d="m399.31,287.6s-.06-.03-.14-.11c-.09-.08-.2-.2-.33-.37-.13-.17-.26-.38-.37-.63-.11-.25-.21-.54-.27-.86-.06-.32-.07-.62-.06-.9.02-.28.06-.52.11-.73.06-.2.11-.36.17-.46.05-.11.08-.16.09-.16.02,0-.09.24-.18.64-.05.2-.08.44-.09.71,0,.27.01.57.07.87.06.31.15.59.26.84.11.25.23.46.34.63.23.34.42.52.4.53Z" fill="#fff"/>
      <path d="m394.66,281.1s-.19-.03-.44-.18c-.26-.15-.57-.44-.79-.84-.22-.4-.3-.82-.29-1.12,0-.3.07-.47.08-.47.02,0-.01.18,0,.47.01.29.1.68.31,1.06.21.38.5.66.73.83.23.17.4.23.4.25Z" fill="#fff"/>
      <path d="m404.54,294.47s-.22.01-.54-.11c-.32-.12-.73-.41-.99-.87-.26-.47-.28-.97-.22-1.3.06-.34.18-.52.19-.52.02,0-.07.2-.1.53-.04.32,0,.8.24,1.24.25.44.63.72.92.86.3.14.51.17.5.19Z" fill="#fff"/>
      <path d="m409.81,300.24s-.19-.04-.45-.21c-.26-.16-.58-.46-.81-.86-.24-.41-.33-.83-.35-1.13-.02-.31.03-.49.04-.49.02,0,0,.19.04.48.04.29.14.69.37,1.08.23.39.52.68.76.85.24.18.41.26.4.27Z" fill="#fff"/>
      <path d="m406.48,264.77s-.1-.08-.25-.24c-.08-.08-.18-.18-.28-.3-.1-.12-.23-.25-.35-.41-.25-.31-.53-.7-.8-1.16-.27-.46-.53-.98-.76-1.54-.22-.57-.39-1.13-.51-1.65-.11-.52-.18-.99-.21-1.39-.02-.2-.02-.38-.03-.54,0-.16,0-.3,0-.41,0-.22.01-.35.02-.35,0,0,.02.12.02.35,0,.11,0,.25.02.4.01.16.02.34.05.53.04.4.12.86.23,1.37.12.51.29,1.06.51,1.63.23.56.49,1.08.75,1.53.27.45.53.84.77,1.16.12.16.23.3.33.42.1.12.19.23.26.31.15.17.23.26.22.27Z" fill="#fff"/>
    </g>
    <g>
      <rect x="186.89" y="404.83" width="84.03" height="84.03" rx="13.31" ry="13.31" fill="#e0e0e0"/>
      <rect x="171.8" y="404.83" width="84.03" height="84.03" rx="13.31" ry="13.31" fill="#ebebeb"/>
      <polygon points="184.8 448.05 193.27 439.59 209.59 454.1 236.85 426.73 244.71 435.2 208.38 470.42 184.8 448.05" fill="#fff"/>
    </g>
    <g>
      <rect x="11.71" y="422.86" width="65.19" height="65.19" rx="13.31" ry="13.31" fill="#e0e0e0"/>
      <rect y="422.86" width="65.19" height="65.19" rx="13.31" ry="13.31" fill="#ebebeb"/>
      <polygon points="10.09 456.4 16.65 449.83 29.32 461.09 50.47 439.86 56.56 446.42 28.38 473.75 10.09 456.4" fill="#fff"/>
    </g>
    <path d="m460.85,486.13c0,.16-100.37.29-224.15.29s-224.17-.13-224.17-.29,100.35-.29,224.17-.29,224.15.13,224.15.29Z" fill="#263238"/>
    <g>
      <g>
        <path d="m415.93,454.17s-4.65-31.97-4.26-50.58c.39-18.6-.02-39.53-.02-39.53h2.14s-1.45,36.92.13,59.19c1.58,22.25,5.74,30.91,5.74,30.91h-3.72" fill="#263238"/>
        <path d="m429.78,328.09c-.43-1.09-.96-2.23-1.95-2.86-1.36-.86-3.14-.5-4.66.03-6.48,2.29-12.22,14.36-14.83,20.71l8.6,28.97c15.52-14.39,18.2-33.28,12.85-46.85Z" fill="#5b9cd5"/>
        <path d="m427.32,326.4s-.03.14-.12.38c-.11.28-.25.63-.42,1.06-.38.91-.91,2.24-1.54,3.88-1.27,3.29-2.88,7.89-4.32,13.07-1.44,5.18-2.42,9.96-3.03,13.43-.31,1.74-.54,3.14-.68,4.12-.07.46-.14.83-.18,1.12-.05.26-.08.39-.09.39-.01,0,0-.14.02-.4.03-.3.07-.67.12-1.13.1-.98.3-2.4.57-4.14.55-3.49,1.5-8.28,2.94-13.48,1.45-5.19,3.1-9.79,4.43-13.07.66-1.64,1.23-2.95,1.64-3.84.2-.42.36-.76.48-1.03.11-.23.18-.35.19-.35Z" fill="#263238"/>
        <path d="m413.11,381.89c-8.06-4.45-12.81-12.83-13.25-22.02-.31-6.43,1.66-12.74,3.9-18.77.19-.52.42-1.09.91-1.36.68-.38,1.52-.04,2.2.34,5.86,3.33,9.4,9.69,11.29,16.16,1.26,4.3,1.91,8.84,1.33,13.29-.58,4.45-3.12,9.28-6.38,12.37" fill="#455a64"/>
        <path d="m413.11,381.89s-.02-.13-.03-.39c0-.29-.01-.66-.02-1.11,0-.96-.04-2.36-.12-4.08-.15-3.45-.61-8.19-1.5-13.38-.89-5.19-1.98-9.83-2.78-13.19-.39-1.64-.72-2.99-.95-3.98-.1-.44-.18-.8-.25-1.08-.05-.25-.07-.38-.06-.38.01,0,.06.12.13.37.08.28.19.63.31,1.07.26.93.63,2.28,1.06,3.95.86,3.34,1.99,7.99,2.88,13.19.89,5.2,1.31,9.97,1.4,13.43.05,1.73.05,3.13,0,4.09-.02.45-.03.82-.05,1.11-.01.25-.03.39-.04.39Z" fill="#263238"/>
        <path d="m413.11,381.89c-8.06-4.45-12.81-12.83-13.25-22.02-.31-6.43,1.66-12.74,3.9-18.77.19-.52.42-1.09.91-1.36.68-.38,1.52-.04,2.2.34,5.86,3.33,9.4,9.69,11.29,16.16,1.26,4.3,1.91,8.84,1.33,13.29-.58,4.45-3.12,9.28-6.38,12.37" fill="#eaba36"/>
        <path d="m422.2,430.81c7.93,1.74,14.46,7.34,22.11,10.06,5.06,1.8,10.79,2.44,14.83,5.98-.97-2.45-3.27-4.08-5.5-5.47-6.29-3.93-13.03-7.15-20.04-9.57-3.6-1.24-7.5-2.28-11.17-1.26" fill="#5b9cd5"/>
        <path d="m410.73,437.87c-9.93-.16-20.39-8.62-30.27-9.12,10.35-3.34,25.16-.61,30.27,9.12" fill="#ad2446"/>
        <path d="m414.61,414.05c5.04-1.82,10.58-1.9,15.88-1.08,5.3.82,10.41,2.52,15.5,4.21-.51-3.45-3.3-6.04-5.92-8.33-1.97-1.73-3.96-3.46-6.22-4.78-2.26-1.32-4.85-2.22-7.46-2.11-3.16.13-6.17,1.76-8.24,4.15-2.07,2.39-3.19,4.79-3.53,7.94" fill="#ad2446"/>
        <path d="m394.23,403.09c-6.25-5.34-15.72-4.82-23.94-4.63,12.63,6.04,26.25,14.32,37.13,23.14.33-5.81-5.29-11.76-13.19-18.51Z" fill="#455a64"/>
        <path d="m394.23,403.09c-6.25-5.34-15.72-4.82-23.94-4.63,12.63,6.04,26.25,14.32,37.13,23.14.33-5.81-5.29-11.76-13.19-18.51Z" fill="#5b9cd5"/>
        <path d="m417.43,395.72c3.14-2.1,6.32-4.09,9.61-5.59,3.29-1.49,6.36-3.88,9.54-5.6,4.12-2.23,7.69-5.33,11.47-8.1,3.78-2.77,7.94-5.26,12.57-6-3.77-.78-7.72-.35-11.44.66-3.72,1.02-7.25,2.6-10.76,4.19-4.88,2.2-9.84,4.45-13.83,8.01s-7.59,7.09-7.17,12.42" fill="#eaba36"/>
        <path d="m444.13,437.87s-.11-.04-.31-.14c-.23-.12-.52-.27-.87-.45-.75-.4-1.82-.99-3.17-1.67-.67-.35-1.41-.72-2.22-1.1-.8-.4-1.66-.79-2.58-1.18-1.83-.78-3.88-1.6-6.12-2.13-2.23-.55-4.45-.67-6.37-.16-.97.23-1.89.47-2.7.81-.82.33-1.54.72-2.18,1.12-1.27.8-2.16,1.65-2.74,2.26-.58.62-.86.99-.88.97,0,0,.05-.11.18-.29.12-.19.33-.45.6-.77.55-.65,1.43-1.54,2.7-2.38.64-.42,1.37-.83,2.2-1.18.83-.36,1.76-.61,2.74-.85,1.97-.54,4.27-.42,6.53.13,2.27.54,4.33,1.37,6.16,2.18.92.41,1.78.81,2.58,1.22.8.39,1.54.77,2.2,1.14,1.34.71,2.4,1.33,3.13,1.77.33.2.61.37.83.51.19.12.28.19.28.2Z" fill="#263238"/>
        <path d="m403.33,432.95s.23.04.62.18c.39.13.95.37,1.62.7,1.34.66,3.09,1.78,4.75,3.36,1.65,1.59,2.84,3.3,3.55,4.61.36.65.62,1.2.77,1.59.15.39.23.6.21.61-.06.03-.43-.82-1.19-2.08-.76-1.26-1.96-2.92-3.58-4.48-1.62-1.55-3.33-2.69-4.62-3.4-1.29-.71-2.15-1.05-2.12-1.11Z" fill="#263238"/>
        <path d="m381.35,402.59s.15.03.42.13c.31.11.7.25,1.19.42.53.2,1.16.43,1.88.69.73.27,1.53.67,2.43,1.07,3.58,1.62,8.33,4.36,12.93,8.24,2.27,1.97,4.32,3.98,6.03,5.94,1.71,1.96,3.15,3.81,4.28,5.42,1.13,1.61,1.99,2.94,2.58,3.87.28.44.5.79.68,1.07.15.24.23.38.22.38s-.11-.11-.28-.34c-.17-.23-.43-.58-.74-1.03-.63-.9-1.52-2.22-2.67-3.8-1.15-1.59-2.61-3.41-4.32-5.35-1.72-1.94-3.76-3.92-6.01-5.88-4.57-3.86-9.27-6.61-12.81-8.28-.89-.41-1.67-.83-2.4-1.11-.71-.29-1.33-.54-1.85-.75-.48-.2-.87-.36-1.17-.49-.27-.11-.4-.18-.4-.19Z" fill="#263238"/>
        <path d="m429.52,408.47s-.29-.01-.79-.1c-.27-.05-.58-.11-.91-.17-.35-.07-.77-.07-1.22-.12-1.79-.13-4.39.02-6.83,1.35-1.23.62-2.26,1.46-3.11,2.3-.86.84-1.51,1.71-2,2.47-1,1.53-1.3,2.63-1.37,2.61-.02,0,.04-.29.2-.77.18-.48.46-1.18.95-1.96.47-.79,1.11-1.7,1.98-2.57.85-.87,1.91-1.75,3.17-2.39,2.51-1.37,5.21-1.48,7.01-1.28.46.06.88.08,1.23.17.34.08.64.16.91.23.5.13.77.21.76.24Z" fill="#263238"/>
        <path d="m439.5,377.5s-.12.09-.38.23c-.29.16-.65.35-1.11.6-.96.52-2.35,1.28-4.03,2.28-1.68,1.01-3.65,2.24-5.75,3.74-2.1,1.51-4.35,3.26-6.42,5.38-1.02,1.07-1.97,2.19-2.63,3.4-.65,1.25-1.27,2.46-1.84,3.62-1.15,2.32-2.08,4.45-2.76,6.28-.67,1.83-1.09,3.36-1.34,4.42-.25,1.06-.35,1.66-.38,1.66-.01,0,0-.15.04-.44.04-.29.1-.71.21-1.25.21-1.08.59-2.62,1.24-4.48.65-1.85,1.57-4.01,2.7-6.34.57-1.17,1.18-2.38,1.83-3.63.68-1.27,1.64-2.4,2.68-3.49,2.1-2.15,4.37-3.9,6.49-5.4,2.12-1.5,4.12-2.71,5.82-3.69,1.71-.97,3.11-1.7,4.1-2.18.47-.22.85-.4,1.14-.54.26-.12.4-.18.41-.17Z" fill="#263238"/>
        <path d="m411.65,407.57s-.09-.29-.2-.84c-.12-.61-.26-1.38-.43-2.29-.38-1.93-.96-4.6-1.88-7.45-.91-2.86-2.02-5.35-2.84-7.14-.39-.85-.71-1.56-.97-2.13-.23-.5-.34-.79-.32-.8.02-.01.18.25.44.74.26.49.63,1.19,1.07,2.08.87,1.77,2.03,4.26,2.95,7.14.93,2.88,1.47,5.57,1.79,7.52.16.98.27,1.77.32,2.32.06.55.08.85.06.86Z" fill="#263238"/>
        <path d="m410.93,384.98c-.25-3.75-1.47-7.4-3.23-10.72-4.82-9.11-13.88-15.87-23.99-17.89,7.4,11.03,14.81,22.07,22.21,33.1l2.87,5.91c1.96-3.21,2.39-6.65,2.14-10.4Z" fill="#ad2446"/>
      </g>
      <g>
        <rect x="391.15" y="450.22" width="51.65" height="9.15" fill="#393838"/>
        <polygon points="395 457.55 399.4 485.96 433.69 485.96 438.93 457.55 395 457.55" fill="#393838"/>
        <path d="m442.76,459.38c0,.1-11.65.18-26.02.18s-26.02-.08-26.02-.18,11.65-.18,26.02-.18,26.02.08,26.02.18Z" fill="#263238"/>
      </g>
    </g>
    <g>
      <rect x="61.26" y="410.61" width="75.52" height="75.52" rx="13.31" ry="13.31" fill="#ff725e"/>
      <g fill="none" opacity=".3">
        <rect x="61.26" y="410.61" width="75.52" height="75.52" rx="13.31" ry="13.31" fill="#eaba36"/>
      </g>
      <rect x="47.7" y="410.61" width="75.52" height="75.52" rx="13.31" ry="13.31" fill="#eaba36"/>
      <polygon points="59.39 449.46 66.99 441.85 81.66 454.89 106.16 430.3 113.23 437.91 80.58 469.56 59.39 449.46" fill="#fff"/>
    </g>
    <g>
      <rect x="122.47" y="437.82" width="48.31" height="48.31" rx="8.23" ry="8.23" fill="#263238"/>
      <rect x="113.79" y="437.82" width="48.31" height="48.31" rx="8.23" ry="8.23" fill="#455a64"/>
      <polygon points="121.27 462.67 126.13 457.81 135.52 466.15 151.19 450.42 155.71 455.28 134.82 475.53 121.27 462.67" fill="#fff"/>
    </g>
    <g>
      <g>
        <rect x="42.57" y=".29" width="249.17" height="341.17" rx="8.03" ry="8.03" fill="#fff"/>
        <path d="m283.71,341.46c-.02-.07,1.06.13,2.93-.59.92-.37,2.02-1,3-2.1.99-1.07,1.81-2.66,2.01-4.59.06-7.76-.02-19.23-.02-33.99-.02-29.53-.05-72.25-.09-125.04-.01-26.4-.02-55.31-.04-86.35,0-15.52,0-31.57-.01-48.1,0-8.27,0-16.65,0-25.16,0-2.13,0-4.26,0-6.4.13-2.12-.45-4.22-1.83-5.82-1.34-1.6-3.35-2.62-5.44-2.74-2.13-.05-4.33-.01-6.51-.02-69.8,0-146.53.01-227.08.02-2.43,0-4.83,1.18-6.25,3.15-.73.97-1.21,2.11-1.4,3.31-.19,1.18-.09,2.46-.12,3.7,0,5.01,0,9.99,0,14.97,0,9.95,0,19.83,0,29.63,0,19.62,0,38.95,0,57.94,0,37.99-.01,74.63-.02,109.53,0,34.9-.02,68.07-.03,99.11,0,3.88,0,7.73,0,11.54,0,1.85.7,3.68,1.9,5.06,1.19,1.4,2.89,2.33,4.69,2.6.89.14,1.83.09,2.76.1.93,0,1.86,0,2.79,0,1.85,0,3.7,0,5.54,0,3.67,0,7.31,0,10.91,0,14.41,0,28.23.01,41.43.02,52.79.04,95.5.07,125.03.09,14.76.02,26.22.04,33.99.05,3.88.01,6.84.02,8.84.03,1.99,0,3.01.03,3.01.03,0,0-1.02.02-3.01.03-2,0-4.96.02-8.84.03-7.78.01-19.24.03-33.99.05-29.53.02-72.24.05-125.03.09-13.2,0-27.02.01-41.43.02-3.6,0-7.24,0-10.91,0-1.84,0-3.68,0-5.54,0-.93,0-1.86,0-2.79,0-.93-.01-1.87.05-2.83-.11-1.9-.28-3.71-1.27-4.97-2.75-1.28-1.47-2.01-3.4-2.02-5.37,0-3.81,0-7.66,0-11.54,0-31.04-.02-64.21-.03-99.11,0-34.9-.01-71.54-.02-109.53,0-18.99,0-38.32,0-57.94,0-9.81,0-19.69,0-29.63,0-4.97,0-9.96,0-14.97.03-1.25-.08-2.49.12-3.8.2-1.28.73-2.51,1.51-3.55C45.43,1.27,48.02-.01,50.63,0c80.54,0,157.28.02,227.08.02,2.19.01,4.34-.03,6.54.03,2.24.13,4.39,1.23,5.81,2.93,1.47,1.68,2.09,4.02,1.95,6.16,0,2.14,0,4.27,0,6.4,0,8.5,0,16.89,0,25.16,0,16.53,0,32.58-.01,48.1-.01,31.04-.02,59.95-.04,86.35-.04,52.79-.07,95.51-.09,125.04-.03,14.76,0,26.22-.09,34-.21,1.95-1.05,3.56-2.06,4.64-1,1.11-2.11,1.74-3.04,2.1-.93.37-1.69.45-2.19.51-.5.02-.76.02-.76.02Z" fill="#263238"/>
      </g>
      <g>
        <rect x="125.95" y="101.76" width="124.52" height="14.74" rx="6.3" ry="6.3" fill="#e0e0e0"/>
        <g>
          <rect x="78.38" y="92.97" width="34.15" height="34.15" rx="5.14" ry="5.14" fill="#5b9cd5"/>
          <polygon points="83.66 110.54 87.1 107.1 93.73 112.99 104.81 101.87 108.01 105.31 93.24 119.63 83.66 110.54" fill="#fff"/>
        </g>
      </g>
      <g>
        <rect x="125.95" y="154.73" width="124.52" height="14.74" rx="6.3" ry="6.3" fill="#e0e0e0"/>
        <g>
          <rect x="78.38" y="145.94" width="34.15" height="34.15" rx="5.14" ry="5.14" fill="#5b9cd5"/>
          <polygon points="83.66 163.51 87.1 160.07 93.73 165.96 104.81 154.84 108.01 158.28 93.24 172.6 83.66 163.51" fill="#fff"/>
        </g>
      </g>
      <g>
        <rect x="125.95" y="207.7" width="124.52" height="14.74" rx="6.3" ry="6.3" fill="#e0e0e0"/>
        <g>
          <rect x="78.38" y="198.91" width="34.15" height="34.15" rx="5.14" ry="5.14" fill="#5b9cd5"/>
          <polygon points="83.66 216.48 87.1 213.04 93.73 218.93 104.81 207.81 108.01 211.25 93.24 225.57 83.66 216.48" fill="#fff"/>
        </g>
      </g>
      <g>
        <rect x="125.95" y="260.67" width="124.52" height="14.74" rx="6.3" ry="6.3" fill="#e0e0e0"/>
        <g>
          <rect x="78.38" y="251.88" width="34.15" height="35.71" rx="5.14" ry="5.14" fill="#5b9cd5"/>
          <polygon points="83.66 270.25 87.1 266.65 93.73 272.82 104.81 261.19 108.01 264.79 93.24 279.75 83.66 270.25" fill="#fff"/>
        </g>
      </g>
      <text transform="translate(103.86 54.65)" font-family="Poppins-Bold, Poppins" font-size="19.99" font-weight="700"><tspan x="0" y="0">Advantages</tspan></text>
    </g>
    <g>
      <g>
        <g>
          <g>
            <path d="m332.88,446.72l-.96,25.19s25.28,9.43,25.56,14.11l-48.91-.1-.12-39.31,24.43.12Z" fill="#263238"/>
            <path d="m316.8,469.76c-.95.26-1.6,1.32-1.39,2.28.22.96,1.29,1.63,2.24,1.39.95-.24,1.78-1.49,1.45-2.42-.32-.93-1.63-1.65-2.5-1.19" fill="#e0e0e0"/>
            <path d="m308.57,485.91l.14-3.96,46.84,1.58s2.18.95,1.93,2.48l-48.91-.1Z" fill="#455a64"/>
            <path d="m332.71,471.66c0,.24-1.2.34-2.38,1.11-1.2.73-1.8,1.77-2.02,1.67-.22-.05.14-1.47,1.58-2.38,1.43-.91,2.88-.63,2.82-.41Z" fill="#fff"/>
            <path d="m337.84,473.8c.05.23-.98.64-1.79,1.64-.84.98-1.05,2.08-1.29,2.07-.22.04-.39-1.36.65-2.6,1.02-1.24,2.43-1.34,2.43-1.11Z" fill="#fff"/>
            <path d="m340.74,479.94c-.22.05-.55-1.14.07-2.45.61-1.31,1.73-1.83,1.83-1.63.13.2-.59.9-1.08,1.98-.51,1.07-.58,2.08-.82,2.1Z" fill="#fff"/>
            <path d="m332.29,465.9c-.1.22-1.2-.11-2.55-.03-1.35.06-2.4.51-2.53.31-.14-.17.89-1.05,2.48-1.14,1.59-.09,2.71.67,2.59.86Z" fill="#fff"/>
          </g>
          <g>
            <path d="m273.01,443.29l-2.65,30.38,4.83,24.63c.35,1.78-.88,3.48-2.67,3.7h0c-1.01.13-2-.23-2.69-.98-4.36-4.75-20.31-22.31-19.99-24.53.37-2.56.67-32.23.67-32.23l22.5-.98Z" fill="#263238"/>
            <path d="m272.52,502.01l-22.54-27.56-.08,1.29c-.07,1.11.25,2.22.92,3.11,1.79,2.4,6.87,8.9,18.93,22.17.7.77,1.75,1.14,2.78.99h0Z" fill="#455a64"/>
            <g fill="none" opacity=".6">
              <path d="m256.85,465.04c.73.58.9,1.75.36,2.5-.55.75-1.73.94-2.47.38-.74-.56-.99-1.96-.37-2.65.63-.69,2.03-.83,2.62-.11" fill="#fff"/>
            </g>
            <path d="m266.42,488.27c.17.1.96-1.45,2.82-2.2,1.84-.8,3.5-.26,3.55-.45.03-.07-.34-.33-1.04-.48-.7-.15-1.74-.12-2.76.31-1.02.43-1.78,1.14-2.17,1.74-.4.6-.47,1.05-.4,1.08Z" fill="#fff"/>
            <path d="m268.32,492.48c.14.14,1.18-.79,2.78-1.14,1.6-.39,2.94,0,3-.19.1-.15-1.33-.89-3.15-.46-1.83.41-2.78,1.7-2.63,1.79Z" fill="#fff"/>
            <path d="m262.71,482.79c.13.15,1.73-1.28,4.17-2.04,2.43-.8,4.56-.56,4.58-.76.06-.16-2.17-.73-4.79.13-2.62.82-4.11,2.59-3.97,2.68Z" fill="#fff"/>
            <path d="m262.75,473.48c.07.19,1.8-.41,3.99-.35,2.19.03,3.89.7,3.97.51.09-.14-1.6-1.14-3.96-1.18-2.36-.06-4.09.87-4,1.02Z" fill="#fff"/>
            <path d="m263.3,464.55c.08.18,1.84-.72,4.14-.47,2.31.2,3.85,1.43,3.97,1.27.05-.06-.25-.46-.93-.91-.67-.45-1.73-.9-2.98-1.02-1.24-.12-2.37.11-3.12.42-.75.31-1.13.64-1.09.71Z" fill="#fff"/>
            <path d="m267.5,462.37s.13-.4.12-1.15c-.02-.74-.16-1.84-.72-3.07-.29-.59-.59-1.34-1.41-1.79-.41-.23-1.04-.19-1.43.19-.38.37-.53.86-.57,1.34-.09,1.93,1.45,3.91,3.6,4.33,2.17.38,4.22-.74,5.19-2.35.22-.42.38-.94.18-1.47-.2-.53-.8-.78-1.24-.73-.91.08-1.52.56-2.07.91-1.1.78-1.81,1.62-2.23,2.23-.42.61-.57,1-.54,1.02.1.09.87-1.45,3.03-2.86.54-.32,1.17-.73,1.83-.75.32-.01.58.13.68.4.1.25.01.63-.17.96-.82,1.32-2.7,2.34-4.53,1.99-1.82-.33-3.17-2.07-3.11-3.63.02-.37.14-.74.36-.95.21-.21.51-.25.79-.12.58.28.93.94,1.22,1.49,1.14,2.32.9,4.04,1.03,4.02Z" fill="#fff"/>
          </g>
          <path d="m356.44,234.37s3.71,14.36,2.36,31.85c-.52,6.77-23.36,194.01-23.36,194.01h-30.84l8.67-175.98-2.53.55s-16.83,75.06-18.21,87.21c-1.23,10.92-15.43,90.28-15.43,90.28l-28.2.32,9.01-104.96,10.48-100.72,3.94-29.32,84.1,6.76Z" fill="#263238"/>
        </g>
        <g>
          <path d="m312.15,272.31s.05.09.2.21c.15.11.4.26.75.36.7.2,1.86.1,2.92-.69,1.11-.78,1.77-2.33,2-3.98.22-1.68.25-3.48.38-5.38.21-3.81.36-7.26.44-9.76.08-2.5.09-4.05,0-4.05-.08,0-.24,1.53-.43,4.03-.19,2.49-.41,5.94-.62,9.75-.12,1.9-.14,3.74-.33,5.34-.19,1.59-.76,3-1.71,3.73-.93.75-1.97.91-2.62.8-.67-.1-.97-.39-1-.34Z" fill="#455a64"/>
          <path d="m266.78,254.21s.29.16.86.31c.57.15,1.41.32,2.46.41,2.1.2,5.1,0,8.13-1.21,3.03-1.21,5.33-3.15,6.71-4.75.7-.8,1.19-1.5,1.49-2,.31-.5.44-.8.41-.82-.09-.06-.77,1.05-2.21,2.54-1.43,1.49-3.7,3.3-6.62,4.48-2.92,1.17-5.82,1.43-7.88,1.35-2.07-.08-3.33-.4-3.35-.3Z" fill="#455a64"/>
          <path d="m344.15,246.37c-.06,0-.01,1.21.47,3.1.47,1.88,1.46,4.42,3.1,6.9,1.65,2.48,3.61,4.37,5.16,5.53,1.55,1.17,2.64,1.69,2.67,1.63.14-.16-4.12-2.59-7.33-7.49-3.28-4.86-3.87-9.73-4.07-9.66Z" fill="#455a64"/>
        </g>
      </g>
      <g>
        <polygon points="438.34 193.39 445.42 195.63 458.28 188.53 465.57 208.84 448.08 213 434.83 211.54 438.34 193.39" fill="#ae7461"/>
        <path d="m356.03,111.84s7.23,4.34,13.22,19.09c11.76,28.97,19.15,44.61,19.15,44.61l54,17.06-4.31,21.65s-54.74-7.63-62.07-10.38c-10.03-3.76-17.47-23.54-17.47-23.54l-2.52-68.49Z" fill="#e0e0e0"/>
      </g>
      <g>
        <g>
          <path d="m341.19,46.84c2.79.18,5.53-2,5.98-4.76.45-2.75-1.44-5.7-4.13-6.43,1.63-1.85,1.92-4.77.67-6.91-1.24-2.13-3.92-3.32-6.34-2.81-.22-2.43-1.8-4.69-4-5.74-2.2-1.05-4.95-.87-6.98.48-2.81-2.17-7.15-2.04-9.82.3-2.39-.32-4.9,1.07-5.91,3.26-1,2.19-.41,5,1.39,6.6" fill="#263238"/>
          <g>
            <g>
              <path d="m315.64,26.65l1.25-.06c12.58-.63,23.54,8.52,25.17,21.01,1.52,11.62,3.05,24.48,3.28,30.74.48,12.97-12.38,15.63-12.38,15.63l1.87,15.51-31.5.59-5.59-56.33c-1.83-13.4,4.44-25.63,17.89-27.09Z" fill="#ae7461"/>
              <path d="m333.07,93.94s-8.25.91-17.23-4.13c0,0,4.46,9.13,17.33,7.32l-.1-3.19Z" fill="#6f4439"/>
              <path d="m337.4,59.55c.08.98-.67,1.85-1.69,1.96-1.02.1-1.91-.6-1.99-1.57-.08-.98.67-1.85,1.69-1.96,1.02-.11,1.91.6,1.99,1.57Z" fill="#263238"/>
              <path d="m339.59,54.08c-.22.25-1.67-.72-3.66-.61-1.99.08-3.4,1.17-3.63.94-.11-.1.1-.55.71-1.05.6-.49,1.65-.99,2.89-1.05,1.24-.05,2.31.35,2.93.79.64.44.86.87.76.98Z" fill="#263238"/>
              <path d="m319.23,60.05c.08.98-.67,1.85-1.69,1.96-1.02.11-1.91-.6-1.99-1.57-.08-.98.67-1.85,1.69-1.96,1.02-.11,1.91.6,1.99,1.57Z" fill="#263238"/>
              <path d="m320.03,55.42c-.22.25-1.67-.71-3.66-.61-1.99.08-3.4,1.17-3.63.94-.11-.1.1-.55.71-1.04.6-.49,1.65-.99,2.89-1.05,1.24-.05,2.31.35,2.93.79.63.44.86.87.76.98Z" fill="#263238"/>
              <path d="m328,69.83c-.02-.11,1.21-.39,3.21-.74.51-.08.98-.2,1.05-.55.1-.37-.14-.91-.41-1.49-.54-1.21-1.1-2.47-1.7-3.8-2.36-5.41-4.1-9.87-3.88-9.96.22-.09,2.31,4.22,4.67,9.62.57,1.33,1.12,2.61,1.63,3.82.22.57.58,1.21.36,1.98-.12.39-.48.68-.8.79-.32.12-.61.14-.86.16-2.01.21-3.26.28-3.28.17Z" fill="#263238"/>
              <path d="m321.38,47.67c-.24.52-1.97.06-4.08.09-2.1-.01-3.86.47-4.07-.04-.1-.25.26-.72.99-1.16.73-.44,1.86-.81,3.12-.82,1.26,0,2.37.35,3.09.78.72.43,1.05.9.95,1.15Z" fill="#263238"/>
              <path d="m339.28,45.86c-.4.47-2.06.09-4.04.16-1.98.02-3.63.49-4.04.03-.18-.22.06-.69.77-1.15.7-.46,1.89-.87,3.25-.9,1.36-.03,2.56.32,3.27.75.72.43.97.88.8,1.11Z" fill="#263238"/>
              <path d="m340.52,41.72s-3.82-7.95-7.83-9.64c-4.85-2.06-6.63,3.24-11.21,2.21-4.58-1.04-9.21-3.01-13.65.71-4.86,4.07-2.36,6.63-2.39,12.4-.11,23.37-4.04,30.18-5.79,19.26-.19-1.2-3.58-1.99-4.33-7.04-.97-6.56-1.62-14.55-.38-19.3,1.04-4,3.16-6.84,7.04-10.04,6.13-5.06,14.86-5.59,20.83-5.29,5.96.3,17.75,6.56,17.71,16.75Z" fill="#263238"/>
              <path d="m300.46,66.25c-.18-2-1.98-3.49-3.97-3.2-2.41.35-5.03,1.86-4.62,6.84.72,8.85,9.45,6.29,9.45,6.04,0-.17-.53-5.98-.86-9.68Z" fill="#ae7461"/>
              <path d="m299.13,72.76s-.15.12-.4.26c-.24.14-.67.25-1.15.12-.96-.27-1.87-1.69-2.04-3.28-.09-.8.02-1.58.25-2.24.22-.67.6-1.16,1.06-1.28.46-.15.82.11.94.35.14.24.1.42.15.43.03.02.18-.16.08-.52-.05-.17-.17-.37-.39-.53-.23-.16-.55-.22-.87-.16-.68.1-1.24.78-1.5,1.5-.29.73-.43,1.61-.33,2.51.2,1.78,1.25,3.37,2.56,3.64.64.11,1.14-.12,1.39-.35.26-.24.29-.44.25-.46Z" fill="#6f4439"/>
            </g>
            <path d="m299.78,49.07c1.19.73,2.45,1.48,3.84,1.55,1.39.07,2.94-.81,3.1-2.19.07-.62-.11-1.33.27-1.83.46-.59,1.36-.46,2.1-.42,2.59.15,5.46-2.85,5.99-5.39.71.95,2.16,1.18,3.12.49.96-.69,1.31-1.07,2.04-2,.73-.93,1.79-1.78,2.97-1.67.66.06,1.29.42,1.95.33,1.16-.16,1.66-1.55,1.78-2.72.12-1.16.19-2.52,1.14-3.19.88-.63,2.08-.35,3.16-.25,1.08.1,2.45-.22,2.67-1.28.12-.56-.15-1.12-.48-1.59-1.49-2.1-4.54-2.92-6.88-1.84-1.01-2.88-3.86-5.03-6.92-5.2-3.05-.17-6.12,1.64-7.45,4.4-1.96-1.61-4.71-2.18-7.15-1.5-2.44.68-4.49,2.61-5.32,5-2.18-.46-4.6.5-5.88,2.32-1.28,1.83-1.34,4.43-.16,6.32-1.55.99-2.83,2.64-2.77,4.47.06,1.84,1.94,3.57,3.68,3-.64,1.46.03,3.37,1.46,4.1,1.42.73,3.37.16,4.18-1.21" fill="#263238"/>
            <path d="m327.35,29.66s0,.06,0,.16c0,.11,0,.27-.03.48-.06.41-.2,1.03-.56,1.74-.37.7-.95,1.52-1.86,2.19-.89.68-2.14,1.22-3.58,1.22l.14-.2c.31.74.28,1.66-.06,2.45-.32.81-.85,1.54-1.41,2.25-.29.34-.53.74-.94,1.07-.4.31-.88.5-1.38.59-.99.18-2.14-.08-2.9-.88l.33-.11c-.14,1.77-1.05,3.58-2.59,4.74-.81.65-1.84,1.07-2.86,1.1-1.03.04-1.99-.21-2.9-.49l.23-.12c-.42,1.13-1.11,2.1-1.96,2.84-.84.74-1.98,1.2-3.04.99-2.11-.34-3.59-2.01-3.95-3.63l.21.08c-1.01.62-2.12.73-3.02.6-.91-.12-1.64-.48-2.17-.84-.53-.37-.85-.76-1.04-1.03-.18-.28-.26-.44-.25-.45.04-.04.33.66,1.37,1.36.52.33,1.24.66,2.11.75.87.1,1.92-.02,2.85-.61l.16-.1.04.19c.36,1.51,1.77,3.07,3.73,3.36.96.18,1.97-.24,2.76-.93.8-.7,1.45-1.64,1.84-2.69l.06-.17.17.05c.89.27,1.82.5,2.77.46.95-.03,1.87-.4,2.64-1.02,1.45-1.09,2.31-2.79,2.45-4.46l.03-.42.29.31c.65.69,1.67.93,2.56.78.45-.08.88-.25,1.22-.51.34-.26.59-.65.89-1,.56-.7,1.08-1.4,1.38-2.16.32-.75.35-1.55.08-2.22l-.08-.21h.22c1.36.03,2.56-.47,3.43-1.11.89-.63,1.48-1.41,1.85-2.08.74-1.38.67-2.32.73-2.3Z" fill="#455a64"/>
          </g>
        </g>
        <path d="m327.9,76.67c-.07-.33-2.22.24-4.24-1.21-2.02-1.44-2.38-3.8-2.69-3.74-.14,0-.28.62-.05,1.6.22.96.89,2.27,2.12,3.15,1.24.88,2.61,1.03,3.52.87.92-.16,1.39-.54,1.34-.68Z" fill="#263238"/>
      </g>
      <g>
        <g>
          <path d="m380.49,158.59c-.2-.7-11.73-32.1-15.41-38.97-4.4-8.22-13.66-11.86-19.4-12.21-5.75-.35-67.23,4.55-67.23,4.55,0,0-18.37,4.11-20.71,19.91-2.69,18.18-5.06,59.81-5.06,59.81l27.99-14.34,3.63-9.13,57.9,12.92,14.14-20.91,24.16-1.61Z" fill="#e0e0e0"/>
          <g>
            <path d="m274.38,113.74l24.02-10.59,2.69-10.36,28.03,13.25,5.87-6.49,2.46,7.31,6.14,2.01,14.36,25.25-.04,53.81,2.91,46.41-3.11,7.33-25.72,3.79c-2.81.41-5.67.42-8.48,0l-52.21-8.53-1.35-15.33,5.58-42.27-1.14-65.61Z" fill="#e0e0e0"/>
            <path d="m301.08,92.79s3.13.91,11.18,5.2c7.89,4.21,16.85,8.05,16.85,8.05l-.68,12.66-29.83-14.98" fill="#e0e0e0"/>
            <polyline points="334.99 99.56 329.12 106.04 332.26 119.61 337.49 107.35" fill="#e0e0e0"/>
            <g fill="none" opacity=".3">
              <path d="m329.23,107.44c.26.19,1.89,15.66,1.89,15.66l-29.9-18.07,27.22,13.67.79-11.26Z"/>
            </g>
          </g>
          <path d="m329.02,165.16c-.45-11.83,1.42-42.01,1.42-42.01l3.9-.63s7.28,29.34,10,65.28c1.1,14.55,1.1,31.4,1.1,31.4l-7.83,16.81-8.65-16.7s.62-39.78.07-54.16Z" fill="#455a64"/>
          <path d="m272.59,115.57c-.05.06.81.72,2.02,1.97,1.21,1.24,2.73,3.12,3.99,5.45,1.25,2.34,1.98,4.64,2.35,6.34.37,1.7.46,2.78.53,2.77.03,0,.03-.27,0-.76-.02-.49-.1-1.2-.25-2.07-.3-1.73-1-4.1-2.27-6.48-1.28-2.37-2.87-4.26-4.15-5.46-.64-.6-1.19-1.06-1.59-1.35-.4-.29-.62-.44-.64-.42Z" fill="#263238"/>
          <polygon points="329.02 112.1 331.69 111.06 334.23 115.4 334.68 122.53 331.12 123.1 328.44 118.7 329.02 112.1" fill="#455a64"/>
          <path d="m357.9,133.31c-.11,0-.21,15.44-.21,34.48s.09,34.48.21,34.48.21-15.44.21-34.48-.09-34.48-.21-34.48Z" fill="#263238"/>
          <path d="m328.84,105.93c-.05.04.58.99,1.52,2.58.95,1.58,2.2,3.81,3.39,6.36.1.21.19.42.28.61l.19.4.19-.4c1.15-2.42,1.98-4.68,2.5-6.32.26-.82.44-1.49.56-1.96s.16-.73.13-.73c-.06-.02-.38.99-.96,2.6-.58,1.61-1.45,3.83-2.6,6.23h.38c-.09-.19-.19-.4-.28-.61-1.2-2.57-2.51-4.78-3.52-6.34-.51-.78-.94-1.39-1.25-1.81-.31-.41-.5-.63-.52-.62Z" fill="#263238"/>
          <path d="m298.39,103.15s.13.1.41.25c.32.17.72.38,1.21.63,1.1.57,2.61,1.35,4.46,2.31,3.76,1.96,8.91,4.74,14.62,7.79,3.48,1.85,6.77,3.57,9.63,5l.26.13v-.29c.04-3.71.07-6.84.09-9.11,0-1.06,0-1.92,0-2.57,0-.59-.02-.91-.04-.91-.02,0-.04.32-.07.91-.02.64-.06,1.5-.1,2.56-.06,2.26-.14,5.39-.24,9.1l.27-.16c-2.85-1.46-6.13-3.19-9.6-5.04-5.7-3.05-10.88-5.8-14.68-7.69-1.9-.95-3.44-1.69-4.52-2.19-.51-.23-.92-.42-1.24-.56-.29-.12-.44-.18-.45-.17Z" fill="#263238"/>
          <path d="m354.3,112.9c-.06.04.41.83,1.01,2.18.61,1.35,1.3,3.28,1.71,5.5.4,2.22.44,4.27.36,5.75-.08,1.48-.24,2.39-.17,2.4.03,0,.09-.22.19-.63.1-.41.2-1.01.28-1.75.16-1.49.17-3.59-.24-5.85-.42-2.26-1.17-4.22-1.85-5.55-.34-.67-.64-1.19-.88-1.54-.23-.35-.37-.53-.4-.52Z" fill="#263238"/>
          <path d="m331.77,123.56c.06.1.74-.22,1.51-.71.78-.49,1.35-.96,1.29-1.06-.06-.1-.74.22-1.51.71-.77.49-1.35.96-1.29,1.06Z" fill="#263238"/>
          <path d="m330.49,121.82c.11.05.92-1.57,1.81-3.61.9-2.04,1.54-3.73,1.43-3.78-.1-.05-.92,1.57-1.81,3.61-.9,2.04-1.54,3.73-1.43,3.78Z" fill="#263238"/>
        </g>
        <path d="m269.46,116.39s-9.25,6.66-10.41,10.34c-1.16,3.68-6.07,63.48-6.94,70.59-.87,7.11-1.73,20.42,3.76,24.75,5.49,4.34,17.35,7.59,17.35,7.59l10.95-22.63-5.8-12.14,5.8-45.41-14.71-33.09Z" fill="#e0e0e0"/>
        <path d="m270.58,228.87s.2-.03.59-.04c.39-.01.96,0,1.7-.11,1.45-.18,3.68-.56,5.92-2.14,2.25-1.52,4.33-4.24,5.65-7.73,1.33-3.48,2.1-7.68,2.14-12.17l.05.15c-2.63-3.64-5.51-7.62-8.5-11.76l-.07-.09v-.11c.05-.3.09-.63.14-.96,1.64-12.74,3.11-24.26,4.19-32.67.54-4.14.97-7.51,1.28-9.9.15-1.13.27-2.02.35-2.69.07-.61.11-.94.14-.94.01,0,.01.08.01.24,0,.16,0,.4-.03.71-.06.67-.14,1.57-.24,2.7-.23,2.35-.61,5.74-1.1,9.92-.98,8.37-2.4,19.93-4.03,32.7-.04.33-.08.65-.12.96l-.05-.21c2.98,4.15,5.85,8.13,8.47,11.78l.05.07v.08c-.06,4.59-.87,8.81-2.26,12.35-1.38,3.54-3.54,6.32-5.89,7.84-1.16.78-2.33,1.27-3.37,1.56-.26.07-.51.14-.76.21-.25.04-.49.08-.71.12-.45.09-.87.13-1.25.15-.75.07-1.33.04-1.72.02-.39-.02-.59-.03-.59-.05Z" fill="#263238"/>
        <path d="m259.4,199.09s.82-.81,2.43-1.73c1.6-.92,3.98-1.93,6.76-2.48,2.78-.54,5.37-.49,7.2-.23,1.83.25,2.92.63,2.9.69-.01.2-4.51-.99-9.99.11-5.48,1.03-9.21,3.82-9.3,3.64Z" fill="#263238"/>
      </g>
      <g>
        <path d="m332,139.55h0s.53,1.99,1.37,5.49c1.89-2.73,4.31-5.04,7.13-6.82h-.04s14.29-14.18,18.85-29.11c3.31-10.83,2.49-22.83,2.49-22.83-.13-.57-1.25-5.66-2.16-9.82-.75-3.41,1.34-6.77,4.71-7.68,7.09-1.91,26.3-5.65,30.7,7.25,6.57,19.25-4.05,40.03-3.94,45.98.02,1.12.04,2.03.05,2.77,5.63-1.3,10-2.24,10.02-2.15,0,0,0,0,0,0l36.98-8.63s12.22-3.7,16.41,8.83c4.19,12.52-10.03,16.69-10.03,16.69,0,0,6.68-.29,8.5,11.1,1.82,11.39-10.4,15.09-10.4,15.09,0,0,7.48-.48,9.42,9.62,1.88,9.83-10.33,15.75-10.98,16.06,1.81-.39,2.93-.6,2.95-.55.01.04-.83.28-2.24.64,5.7.73,6.52,7.51,6.52,7.51,3.67,13.91-7.04,16.84-7.04,16.84l-67.51,15.77c-6.79,1.59-13.81,1.29-20.35-.74.65,2.88,1,4.5.97,4.51h0s-47.16,11.01-47.16,11.01c-.1.02-5.19-21.41-11.37-47.86-6.18-26.46-11.11-47.93-11-47.95l47.16-11.01Z" fill="#ff725e"/>
        <g fill="none" opacity=".3">
          <path d="m332,139.55h0s.53,1.99,1.37,5.49c1.89-2.73,4.31-5.04,7.13-6.82h-.04s14.29-14.18,18.85-29.11c3.31-10.83,2.49-22.83,2.49-22.83-.13-.57-1.25-5.66-2.16-9.82-.75-3.41,1.34-6.77,4.71-7.68,7.09-1.91,26.3-5.65,30.7,7.25,6.57,19.25-4.05,40.03-3.94,45.98.02,1.12.04,2.03.05,2.77,5.63-1.3,10-2.24,10.02-2.15,0,0,0,0,0,0l36.98-8.63s12.22-3.7,16.41,8.83c4.19,12.52-10.03,16.69-10.03,16.69,0,0,6.68-.29,8.5,11.1,1.82,11.39-10.4,15.09-10.4,15.09,0,0,7.48-.48,9.42,9.62,1.88,9.83-10.33,15.75-10.98,16.06,1.81-.39,2.93-.6,2.95-.55.01.04-.83.28-2.24.64,5.7.73,6.52,7.51,6.52,7.51,3.67,13.91-7.04,16.84-7.04,16.84l-67.51,15.77c-6.79,1.59-13.81,1.29-20.35-.74.65,2.88,1,4.5.97,4.51h0s-47.16,11.01-47.16,11.01c-.1.02-5.19-21.41-11.37-47.86-6.18-26.46-11.11-47.93-11-47.95l47.16-11.01Z" fill="#42232d"/>
        </g>
        <g>
          <path d="m341.12,152.99l-.91,6.13,15.07,64.55h0c8.93,5.93,19.91,7.91,30.34,5.47l67.51-15.77s10.71-2.92,7.04-16.84c0,0-.88-7.39-7.26-7.59,0,0,12.95-5.98,11.01-16.08-1.94-10.1-9.42-9.62-9.42-9.62,0,0,12.22-3.7,10.4-15.09-1.82-11.39-8.5-11.1-8.5-11.1,0,0,14.22-4.16,10.03-16.69-4.19-12.52-16.41-8.83-16.41-8.83l-48.02,11.2-42.09,9.83c-9.86,2.3-17.31,10.39-18.8,20.4Z" fill="#ad2446"/>
          <path d="m352.33,135.77s14.29-14.19,18.85-29.11c3.31-10.83,2.49-22.83,2.49-22.83-.13-.57-1.25-5.66-2.16-9.82-.75-3.41,1.34-6.77,4.71-7.68,7.09-1.91,19.89,1.61,24.3,14.51,6.57,19.25,2.35,32.77,2.47,38.72l.11,5.95-50.77,10.27Z" fill="#ad2446"/>
          <rect x="307.26" y="141.32" width="48.42" height="98.38" transform="translate(-34.64 80.38) rotate(-13.15)" fill="#ad2446"/>
          <path d="m366.24,232.91c.1-.02-4.82-21.49-11-47.94-6.18-26.46-11.27-47.89-11.37-47.86-.1.02,4.82,21.49,11,47.95,6.18,26.45,11.27,47.88,11.37,47.86Z" fill="#263238"/>
          <path d="m319.08,243.92c.1-.02-4.82-21.49-11-47.94-6.18-26.46-11.27-47.89-11.37-47.86-.1.02,4.82,21.49,11,47.95,6.18,26.45,11.27,47.88,11.37,47.86Z" fill="#263238"/>
          <path d="m332.34,162.92c1.14,4.87-1.89,9.75-6.76,10.88-4.87,1.14-9.75-1.89-10.88-6.76-1.14-4.87,1.89-9.75,6.76-10.88,4.87-1.14,9.75,1.89,10.88,6.76Z" fill="#fff"/>
          <path d="m413.06,120.18c-.02-.1-5.18,1.02-11.53,2.5-6.34,1.48-11.46,2.76-11.44,2.87.02.1,5.18-1.02,11.53-2.5,6.34-1.48,11.46-2.76,11.44-2.87Z" fill="#263238"/>
          <path d="m455.57,163.49c-.02-.1-3.33.58-7.38,1.53-4.05.95-7.32,1.8-7.3,1.9.02.1,3.33-.58,7.38-1.53,4.05-.95,7.32-1.8,7.3-1.9Z" fill="#263238"/>
          <path d="m457.29,136.62c-.02-.1-4.71.9-10.46,2.25-5.75,1.34-10.4,2.52-10.37,2.62.02.1,4.71-.9,10.46-2.25,5.75-1.34,10.4-2.52,10.37-2.62Z" fill="#263238"/>
          <path d="m455.89,188.38c-.02-.1-4.71.9-10.46,2.25-5.75,1.34-10.4,2.52-10.37,2.62.02.1,4.71-.9,10.46-2.25,5.75-1.34,10.4-2.52,10.37-2.62Z" fill="#263238"/>
          <g fill="none" opacity=".3">
            <path d="m376.63,71.07c-1.47,1.37-1.64,3.69-1.08,5.61.56,1.93,1.7,3.62,2.58,5.43,1.93,4,2.49,8.64,1.58,12.98-.28,1.33-.65,2.86.2,3.92,1.2,1.5,3.64.66,5.16-.51,5.76-4.44,8.53-12.43,6.76-19.49-.75-2.97-2.3-5.83-4.76-7.66-2.46-1.83-6.25-3.49-10.43-.28" fill="#fff"/>
          </g>
          <g fill="none" opacity=".3">
            <path d="m454.45,113.23c-1.66-.32-3.35.1-4.99.51-9.5,2.41-19,4.82-28.5,7.24-3.11.79-8.94,1.49-9,4.66h0c-.63,1.73.69,3.69,2.39,4.4,1.7.71,3.63.49,5.45.2,3.81-.61,7.57-1.5,11.33-2.39,7.54-1.8,15.11-3.66,22.27-6.64,1.06-.44,2.14-.92,3-1.69.86-.77,1.49-1.87,1.41-3.02-.11-1.68-1.71-2.96-3.37-3.28Z" fill="#fff"/>
          </g>
          <path d="m333.38,142.41c-.02-.1-6.63,1.35-14.76,3.25-8.13,1.9-14.7,3.52-14.67,3.62.02.1,6.63-1.35,14.76-3.25,8.13-1.9,14.7-3.52,14.67-3.62Z" fill="#fff"/>
          <path d="m460.59,153.26s.09-.19.19-.56c.1-.36.19-.91.24-1.58.06-.68.03-1.49-.09-2.38-.14-.89-.37-1.85-.75-2.82-.39-.96-.89-1.83-1.4-2.56-.53-.73-1.07-1.33-1.58-1.78-.5-.45-.94-.79-1.27-.98-.32-.2-.51-.3-.52-.27-.04.06.66.51,1.6,1.44.47.46.98,1.07,1.48,1.79.49.73.96,1.57,1.34,2.5.37.94.61,1.87.76,2.73.13.86.19,1.65.16,2.32-.03,1.33-.23,2.14-.16,2.15Z" fill="#fff"/>
          <path d="m461.91,127.36s.46-.4.89-1.27c.43-.86.79-2.19.69-3.67-.1-1.48-.63-2.76-1.17-3.55-.54-.8-1.02-1.17-1.05-1.14-.05.05.36.47.82,1.28.46.8.92,2.02,1.02,3.44.09,1.41-.21,2.68-.56,3.54-.35.86-.7,1.34-.64,1.38Z" fill="#fff"/>
          <path d="m458.34,181.16s.62-.34,1.27-1.25c.65-.89,1.28-2.4,1.18-4.13-.11-1.73-.92-3.15-1.67-3.95-.76-.83-1.4-1.12-1.41-1.09-.04.05.53.43,1.21,1.26.67.82,1.4,2.18,1.5,3.8.1,1.62-.46,3.06-1.02,3.95-.57.91-1.09,1.35-1.04,1.4Z" fill="#fff"/>
          <path d="m454.06,206.15s.44-.44.85-1.34c.42-.9.77-2.26.71-3.78-.07-1.52-.54-2.85-1.03-3.7-.49-.86-.94-1.29-.97-1.26-.05.04.32.52.73,1.39.42.86.82,2.14.89,3.6.06,1.46-.24,2.77-.58,3.66-.34.9-.66,1.41-.61,1.44Z" fill="#fff"/>
          <path d="m401.04,103.46s.12-.38.28-1.09c.08-.35.17-.79.24-1.3.07-.51.18-1.09.23-1.74.15-1.29.21-2.84.17-4.56-.07-1.72-.25-3.6-.62-5.55-.39-1.95-.92-3.77-1.5-5.39-.6-1.61-1.24-3.02-1.86-4.17-.29-.58-.6-1.08-.86-1.52-.26-.45-.5-.82-.71-1.11-.41-.6-.65-.92-.67-.91s.17.37.54.99c.19.31.42.69.65,1.14.24.45.54.95.81,1.54.58,1.15,1.19,2.56,1.77,4.16.56,1.61,1.07,3.41,1.46,5.34.36,1.93.56,3.8.64,5.5.06,1.7.03,3.24-.09,4.52-.03.64-.12,1.22-.17,1.73-.05.51-.12.95-.18,1.3-.11.71-.16,1.11-.14,1.12Z" fill="#fff"/>
        </g>
      </g>
      <g>
        <path d="m293.38,216.5s3.71-2.87,6.46-2.99c2.75-.12,6.34.96,7.06.6.72-.36,2.39-1.93,3.47-.61,1.08,1.33,2.39,6.11-3.35,7.43h-3.95s.48,3.95,1.44,5.5c.96,1.56,14.35,18.42,14.35,18.42,0,0,1.67,1.67.84,3.35-.84,1.67-4.43.72-4.43.72,0,0-2.51,2.27-5.38,1.2-2.87-1.08-4.07-1.91-4.07-1.91,0,0-3.11,2.51-6.46,0-3.35-2.51-14.52-16.51-14.52-16.51l3.99-15.67,4.55.48Z" fill="#ae7461"/>
        <path d="m281.75,207.24l11.63,9.26-8.54,15.19-17.03-6.18s.49-17.94,13.94-18.27Z" fill="#ae7461"/>
      </g>
      <g>
        <path d="m463.09,186.56s-.37-4.16-2.69-3.31c-2.33.86-3.31,5.76-3.31,5.76l6-2.45Z" fill="#ae7461"/>
        <path d="m454.77,190.67s4.04-4.53,9.67-4.16c5.63.37,2.08,5.14,2.08,5.14,0,0,4.17,2.57,1.1,6.24l-.49.98s3.55,1.35-.12,5.14c0,0,1.35,2.45-.49,4.29-1.84,1.84-6.43-.61-6.43-.61,0,0-4.22.98-4.59-.73-.37-1.71.61-2.94.98-3.18s2.57-1.1,2.57-1.1c0,0-4.9.61-5.02-.61-.12-1.22-.61-2.57,3.06-3.8l1.96-.52s-5.08.16-5.11-1.07c-.03-1.22-.28-1.71,1.56-2.57,1.84-.86,3.31-1.84,3.31-1.84,0,0-4.78.98-4.04-1.59Z" fill="#ae7461"/>
        <path d="m453.87,195.45c.09.14,2.39-2.09,6.06-3.1,3.66-1.06,6.78-.36,6.79-.53.01-.05-.73-.31-2-.43-1.26-.12-3.05-.05-4.92.47-1.87.53-3.43,1.41-4.44,2.17-1.01.77-1.52,1.37-1.48,1.41Z" fill="#6f4439"/>
        <path d="m454.43,202.45s-.12-.15-.24-.44c-.12-.28-.16-.74.01-1.27.17-.53.5-1.13,1.11-1.54.6-.43,1.38-.73,2.24-.93,3.48-.8,6.42-.61,6.42-.77,0-.06-.72-.19-1.91-.21-1.19-.02-2.84.08-4.62.49-.89.21-1.74.55-2.4,1.05-.69.49-1.04,1.22-1.18,1.82-.15.61-.04,1.16.16,1.45.2.3.4.37.41.35Z" fill="#6f4439"/>
        <path d="m456.49,207.83s-.18-.11-.43-.34c-.24-.23-.55-.65-.61-1.25-.06-.59.09-1.34.72-1.82.6-.48,1.52-.81,2.4-1.11,1.83-.51,3.63-.28,4.91-.26,1.29.05,2.09-.04,2.09-.11,0-.07-.79-.1-2.07-.24-1.26-.11-3.09-.42-5.07.13-.96.33-1.84.65-2.56,1.24-.35.3-.61.7-.72,1.1-.1.4-.11.78-.05,1.13.12.69.53,1.14.84,1.35.32.21.54.22.55.19Z" fill="#6f4439"/>
        <path d="m454.69,190.86s.11-.15.36-.38c.24-.23.62-.55,1.11-.9.99-.69,2.42-1.66,4.15-2.23,1.78-.56,3.44-.88,4.63-.67,1.18.18,1.84.62,1.88.54.03-.03-.56-.6-1.82-.89-1.26-.32-3.04-.03-4.84.54-3.66,1.31-5.78,3.84-5.48,4Z" fill="#6f4439"/>
      </g>
    </g>
  </g>
</svg>