<?xml version="1.0" encoding="UTF-8"?>
<svg id="Layer_2" data-name="Layer 2" xmlns="http://www.w3.org/2000/svg" xmlns:xlink="http://www.w3.org/1999/xlink" viewBox="0 0 668.69 470.44">
  <defs>
    <clipPath id="clippath">
      <rect x="273.74" y="124.96" width="34.36" height="26.68" fill="none"/>
    </clipPath>
    <clipPath id="clippath-1">
      <rect x="309.35" y="124.96" width="34.36" height="26.68" fill="none"/>
    </clipPath>
    <clipPath id="clippath-2">
      <rect x="347.55" y="124.96" width="34.36" height="26.68" fill="none"/>
    </clipPath>
    <clipPath id="clippath-3">
      <rect x="182.11" y="157.93" width="27.12" height="35.43" fill="none"/>
    </clipPath>
    <clipPath id="clippath-4">
      <rect x="137.25" y="209.54" width="34.99" height="8.43" fill="none"/>
    </clipPath>
  </defs>
  <g id="Plant">
    <g>
      <path d="m49.46,231.37s-8.12-.63-7.36,17.62c.25,9.36,1.12,18.69,2.58,27.94,0,0,0,4.03-3.34,3.21s-9.06-4.72-11.96-1.76c-2.89,2.96-1.95,7.74,2.08,13.21,4.03,5.47,12.59,17.93,13.09,18.88s1.01,3.21-1.2,3.02c-2.2-.19-17.18-5.29-19.19,1.95-2.01,7.24,11.7,20.77,13.15,22.28s1.51,2.45.94,3.34-5.47-1.26-9.75-2.52c-4.28-1.26-9.57-1.95-10.38,2.33-.82,4.28,5.22,16.74,27.75,29.95l10.89,5.41,10.26-6.29c21.08-15.35,25.8-28.44,24.6-32.6s-6.29-2.96-10.51-1.26c-4.22,1.7-8.81,4.34-9.5,3.52s-.69-1.83.63-3.46,13.53-16.49,10.82-23.47-17.05-.44-19.26,0-2.08-1.64-1.45-2.83,7.61-14.35,11.08-20.2c3.46-5.85,4.03-10.63.69-13.4s-8.62,1.89-11.64,2.96-3.71-2.89-3.71-2.89c.62-9.32.62-18.68,0-28-1.07-18.25-9.31-16.74-9.31-16.74" fill="#e9e9e9"/>
      <path d="m50.09,247.67c.03.12.03.25,0,.38v5.41c0,3.78.57,9.19.94,15.86.76,13.34,1.57,31.84,2.52,52.23s1.7,38.95,2.33,52.29c.38,6.67.63,12.08.82,15.86v5.41c.04.12.04.26,0,.38v-5.79c0-3.71-.57-9.12-.94-15.8-.76-13.4-1.64-31.9-2.52-52.29-.88-20.39-1.7-38.89-2.39-52.29-.31-6.67-.63-12.08-.82-15.86v-5.79" fill="#dedfde"/>
      <path d="m37.44,284.23l.63.57,1.76,1.64c1.38,1.38,3.34,3.4,5.41,5.66l5.29,5.79,1.64,1.76.57.69-.69-.57-1.7-1.64c-1.45-1.45-3.34-3.52-5.41-5.73-2.08-2.2-3.9-4.22-5.35-5.79l-1.57-1.76c-.38-.38-.63-.63-.57-.63" fill="#dedfde"/>
      <path d="m53.74,299.96s3.9-4.22,8.87-9.25c4.97-5.03,9.06-9.06,9.12-9s-3.9,4.22-8.87,9.25-9.06,9.06-9.12,9" fill="#dedfde"/>
      <path d="m53.74,331.36l.76-.44,2.14-1.2c1.76-1.01,4.28-2.39,6.92-4.03s5.03-3.21,6.73-4.34l2.01-1.38.82-.44-.69.57-1.95,1.51c-1.7,1.2-4.03,2.77-6.73,4.4s-5.16,3.02-6.98,3.96l-2.14,1.07c-.57,0-.82.38-.88.31" fill="#dedfde"/>
      <path d="m35.81,320.41h.76l1.95,1.13,6.29,3.71,6.29,3.84,1.89,1.2.63.5-.69-.38c-.5,0-1.2-.57-2.01-1.07l-6.29-3.71-6.29-3.84-1.89-1.26-.69-.44" fill="#dedfde"/>
      <path d="m32.22,348.1l1.01.5,2.52,1.38,8.24,4.72,8.18,4.85,2.45,1.51.88.57s-.38,0-1.01-.44l-2.52-1.38-8.24-4.72-8.18-4.85-2.45-1.51-.88-.63" fill="#dedfde"/>
      <path d="m55,361.19l.94-.63,2.64-1.64c2.2-1.38,5.29-3.21,8.62-5.41,3.33-2.2,6.29-4.22,8.43-5.66l2.52-1.76.94-.63-.82.76-2.45,1.83c-2.14,1.57-5.03,3.65-8.37,5.85s-6.29,4.03-8.75,5.29l-2.71,1.51-1.01.5" fill="#dedfde"/>
      <polygon points="71.36 379.88 41.34 379.88 51.16 453.95 61.54 453.95 71.36 379.88" fill="#dedfde"/>
      <path d="m42.85,389.01h0c.2.21.43.38.69.5,1.07.36,2.25.22,3.21-.38,1.19-.99,2.47-1.85,3.84-2.58,1.79-.63,3.75-.63,5.54,0,1.82.6,3.55,1.42,5.16,2.45,1.32.87,2.71,1.63,4.15,2.27.97.46,2.01.76,3.08.88h1.2c-1.43-.27-2.82-.69-4.15-1.26-1.41-.7-2.77-1.48-4.09-2.33-1.62-1.06-3.38-1.91-5.22-2.52-1.87-.69-3.92-.69-5.79,0-.8.31-1.55.76-2.2,1.32-.53.48-1.1.92-1.7,1.32-.86.59-1.95.78-2.96.5-.69,0-.88-.63-.94-.57" fill="#f4f4f5"/>
      <path d="m43.99,402.66c.2-.3.43-.57.69-.82.65-.7,1.48-1.22,2.39-1.51,1.33-.49,2.74-.7,4.15-.63,1.75.12,3.5.35,5.22.69,1.77.25,3.57.25,5.35,0,1.45-.21,2.87-.62,4.22-1.2.87-.45,1.71-.95,2.52-1.51.3-.22.57-.48.82-.76-1.1.72-2.26,1.36-3.46,1.89-1.31.59-2.72.95-4.15,1.07-1.73.28-3.49.28-5.22,0-1.75-.33-3.51-.54-5.29-.63-1.46-.07-2.93.19-4.28.76-.94.33-1.77.92-2.39,1.7,0,0-.38.5-.5.63s0,0,0,0" fill="#f4f4f5"/>
      <path d="m67.9,409.96l-.82-.44c-.79-.3-1.61-.5-2.45-.57-1.25-.15-2.52-.15-3.78,0-1.38,0-2.89.63-4.47.94-1.46.34-2.96.51-4.47.5-1.23-.05-2.44-.31-3.59-.76-1.01-.49-1.91-1.17-2.64-2.01l.5.76c.56.66,1.24,1.19,2.01,1.57,1.15.51,2.39.81,3.65.88,1.55.04,3.09-.13,4.59-.5l4.47-.94c1.21-.14,2.44-.14,3.65,0,1.14.04,2.26.25,3.34.63" fill="#f4f4f5"/>
      <path d="m46.63,420.22c.94-.32,1.96-.32,2.89,0,1.04.28,2.05.66,3.02,1.13,1.24.62,2.58,1,3.96,1.13,2.51.21,5.02-.39,7.17-1.7.66-.39,1.27-.86,1.82-1.38l.5-.63c-.77.63-1.59,1.2-2.45,1.7-2.12,1.19-4.56,1.72-6.98,1.51-2.36-.57-4.69-1.26-6.98-2.08-.74-.18-1.52-.18-2.27,0-.27.08-.5.24-.69.44" fill="#f4f4f5"/>
      <path d="m48.27,434.44c.87.04,1.73-.14,2.52-.5,1.51-.5,3.4-1.64,5.54-2.52,1.02-.43,2.11-.66,3.21-.69.9,0,1.79.21,2.58.63.72.38,1.35.92,1.82,1.57.02-.21.02-.42,0-.63-.38-.52-.87-.96-1.45-1.26-.83-.47-1.76-.73-2.71-.76-1.17.02-2.32.26-3.4.69-2.2.88-4.03,2.08-5.47,2.64-.78.31-1.58.59-2.39.82" fill="#f4f4f5"/>
      <path d="m49.78,441.05c.59.31,1.23.52,1.89.63,1.55.39,3.13.67,4.72.82,1.61.12,3.23.12,4.85,0,.65.09,1.3.09,1.95,0,0,0-3.02,0-6.73-.38s-6.67-1.07-6.67-.94" fill="#f4f4f5"/>
      <rect x="595.33" y="29.49" width="10.19" height="50.85" transform="translate(-.3 3.35) rotate(-.32)" fill="#dedfde"/>
      <rect x="506.53" y="29.84" width="26.43" height="28.07" transform="translate(-.22 2.72) rotate(-.3)" fill="#e9e9e9"/>
      <rect x="532.84" y="29.76" width="26.43" height="28.07" transform="translate(-.22 2.86) rotate(-.3)" fill="#f4f4f5"/>
      <path d="m506.45,37.68h52.8v-.57c-17.62,0-35.24,0-52.8.38" fill="#dedfde"/>
      <rect x="490.31" y="57.26" width="48.08" height="22.84" transform="translate(-.36 2.78) rotate(-.31)" fill="#e9e9e9"/>
      <rect x="538.13" y="57.07" width="48.08" height="22.84" transform="translate(-.36 3.04) rotate(-.31)" fill="#f4f4f5"/>
      <path d="m489.96,63.98c31.9.38,63.93,0,95.84-.44m0-.57c-31.9,0-63.93,0-95.84.57" fill="#dedfde"/>
      <rect x="472.02" y="80.53" width="186.14" height="8.18" fill="#dedfde"/>
      <rect x="502.48" y="84.43" width="7.55" height="27.94" fill="#dedfde"/>
      <rect x="615.31" y="84.43" width="7.55" height="27.94" fill="#dedfde"/>
      <rect x="605.41" y="10.55" width="10.19" height="69.91" transform="translate(-.24 3.41) rotate(-.32)" fill="#e9e9e9"/>
      <rect x="652.55" y=".08" width="15.86" height="56.64" transform="translate(-.25 6.61) rotate(-.57)" fill="#f4f4f5"/>
      <path d="m630.92,34.66c-2.64.16-5.29.16-7.93,0-2.64.16-5.29.16-7.93,0,2.64-.22,5.29-.22,7.93,0,2.64-.22,5.29-.22,7.93,0" fill="#dedfde"/>
      <path d="m630.92,32.27c-2.64.16-5.29.16-7.93,0-2.64.16-5.29.16-7.93,0,2.64-.16,5.29-.16,7.93,0,2.64-.16,5.29-.16,7.93,0" fill="#dedfde"/>
      <path d="m630.92,71.85c-2.64.16-5.29.16-7.93,0-2.64.16-5.29.16-7.93,0,2.64-.16,5.29-.16,7.93,0,2.64-.16,5.29-.16,7.93,0" fill="#dedfde"/>
      <path d="m630.92,69.46c-2.64.22-5.29.22-7.93,0-2.64.22-5.29.22-7.93,0,2.64-.16,5.29-.16,7.93,0,2.64-.16,5.29-.16,7.93,0" fill="#dedfde"/>
      <path d="m623.24,64.3c-.42-8.51-.42-17.04,0-25.55v25.17" fill="#dedfde"/>
      <rect x="631.11" y="37.62" width="17.24" height="42.73" fill="#e9e9e9"/>
      <path d="m612.73,22.64c.03,1.63-1.26,2.99-2.89,3.02-1.63.03-2.99-1.26-3.02-2.89-.03-1.63,1.26-2.99,2.89-3.02.02,0,.04,0,.06,0,1.61,0,2.92,1.29,2.96,2.89" fill="#dedfde"/>
      <rect x="608.89" y="30.69" width="1.82" height="41.6" fill="#dedfde"/>
      <rect x="20.45" y="12.26" width="108.3" height="156.94" fill="#dedfde"/>
      <rect x="15.04" y="12.26" width="108.3" height="156.94" fill="#f4f4f5"/>
      <rect x="28.44" y="29.25" width="81.37" height="122.96" fill="#fff"/>
      <path d="m109.81,152.21c.01-.21.01-.42,0-.63V29.44H28.57v122.96h59.22H28.44V29.44h81.81v122.9" fill="#dedfde"/>
      <path d="m123.53,12.26c-.53,1.01-1.16,1.96-1.89,2.83-1.26,1.7-3.08,3.96-5.1,6.29s-3.96,4.66-5.35,6.29c-.71.9-1.51,1.73-2.39,2.45.62-.95,1.32-1.86,2.08-2.71l5.22-6.29,5.16-6.29c.69-.91,1.45-1.78,2.27-2.58" fill="#dedfde"/>
      <path d="m110.38,151.83c4.06,6.43,8.83,12.38,14.22,17.75" fill="#fff"/>
      <path d="m124.41,169.58c-.89-.67-1.71-1.43-2.45-2.27-1.9-2-3.68-4.1-5.35-6.29-1.71-1.99-3.29-4.09-4.72-6.29-.64-.92-1.21-1.89-1.7-2.89.76.81,1.43,1.7,2.01,2.64,1.2,1.7,2.89,3.96,4.85,6.29s3.84,4.59,5.16,6.29c.8.78,1.53,1.62,2.2,2.52" fill="#dedfde"/>
      <path d="m14.98,169.07l14.16-17.49" fill="#fff"/>
      <path d="m29.14,151.58c-2.13,3.09-4.42,6.08-6.86,8.94-2.27,2.99-4.71,5.85-7.3,8.56,2.12-3.1,4.41-6.08,6.86-8.94,2.29-2.97,4.72-5.83,7.3-8.56" fill="#dedfde"/>
      <path d="m14.98,12.26c2.43,2.63,4.72,5.38,6.86,8.24,2.27,2.74,4.38,5.62,6.29,8.62-2.43-2.63-4.72-5.38-6.86-8.24-2.25-2.76-4.35-5.64-6.29-8.62" fill="#dedfde"/>
      <rect x="57.2" y="54.23" width="27.25" height="77.34" fill="#dedfde"/>
      <rect x="400.41" y="314.75" width="189.22" height="87.28" fill="#f4f4f5"/>
      <path d="m585.11,397.94h-180.41v-78.6h180.41v78.6Zm-179.22-1.2h178.02v-76.21h-177.77l-.25,76.21Z" fill="#dedfde"/>
      <rect x="589.64" y="314.75" width="46.19" height="87.28" fill="#dedfde"/>
      <path d="m405.32,343.7h179.16m0-.5h-179.16" fill="#dedfde"/>
      <path d="m495.5,343.45c.44-7.9.44-15.82,0-23.72h-.5c-.5,7.9-.5,15.82,0,23.72h.38" fill="#dedfde"/>
      <path d="m543.7,331.55c.22,1.34-.69,2.6-2.03,2.81-1.34.22-2.6-.69-2.81-2.03-.04-.26-.04-.52,0-.78.22-1.34,1.48-2.25,2.81-2.03,1.04.17,1.86.99,2.03,2.03" fill="#dedfde"/>
      <path d="m449.68,331.55c.03,1.36-1.04,2.48-2.39,2.52-1.36.03-2.48-1.04-2.52-2.39-.03-1.36,1.04-2.48,2.39-2.52.02,0,.04,0,.06,0,1.33,0,2.42,1.06,2.45,2.39" fill="#dedfde"/>
      <path d="m497.32,358.61c.22,1.34-.69,2.6-2.03,2.81-1.34.22-2.6-.69-2.81-2.03-.04-.26-.04-.52,0-.78.22-1.34,1.48-2.25,2.81-2.03,1.04.17,1.86.99,2.03,2.03" fill="#dedfde"/>
      <polygon points="423 402.03 413.31 456.78 418.79 456.78 436.72 402.03 423 402.03" fill="#dedfde"/>
      <polygon points="576.23 402.03 584.35 456.91 578.88 456.91 562.51 402.03 576.23 402.03" fill="#dedfde"/>
      <polygon points="612.79 402.03 622.04 456.91 616.57 456.91 599.08 402.03 612.79 402.03" fill="#dedfde"/>
      <path d="m497.19,383.34c-.03,1.34-1.11,2.42-2.45,2.45-1.36,0-2.45-1.1-2.45-2.45h0c-.04-1.32,1.01-2.42,2.33-2.45.04,0,.09,0,.13,0,1.36,0,2.45,1.1,2.45,2.45h0" fill="#dedfde"/>
      <path d="m405.32,370.69h179.16m0-.5h-179.16" fill="#dedfde"/>
      <polygon points="242.08 423.24 242.08 456.46 290.6 456.46 344.09 456.46 344.09 423.24 242.08 423.24" fill="#f4f4f5"/>
      <polygon points="237.8 413.99 237.8 423.3 347.68 423.3 347.68 413.99 290.6 413.99 237.8 413.99" fill="#dedfde"/>
      <polygon points="292.74 456.46 344.09 456.46 344.09 423.24 347.68 423.24 347.68 413.99 290.6 413.99 290.6 422.42 292.74 456.46" fill="#dedfde"/>
      <rect x="256.37" y="428.59" width="20.7" height="4.97" fill="#dedfde"/>
      <rect x="253.73" y="439.85" width="26.56" height="10.57" fill="#fff"/>
      <polygon points="257.75 380.89 257.75 414.05 306.27 414.05 359.82 414.05 359.82 380.89 257.75 380.89" fill="#f4f4f5"/>
      <polygon points="253.54 371.57 253.54 380.89 363.35 380.89 363.35 371.57 306.27 371.57 253.54 371.57" fill="#dedfde"/>
      <polygon points="308.41 414.05 359.82 414.05 359.82 380.89 363.35 380.89 363.35 371.57 306.27 371.57 306.27 380.01 308.41 414.05" fill="#dedfde"/>
      <rect x="272.04" y="386.24" width="20.7" height="4.97" fill="#dedfde"/>
      <rect x="269.39" y="397.44" width="26.56" height="10.51" fill="#fff"/>
      <path d="m565.91,250.69c1.85-1.11,3.84-1.96,5.92-2.52l1.2-5.85h9.82l1.38,5.73c2.19.5,4.31,1.28,6.29,2.33l4.91-3.21,7.11,6.8-3.08,5.1c1.12,1.82,1.97,3.79,2.52,5.85l5.85,1.2v9.82l-5.73,1.38c-.5,2.19-1.28,4.31-2.33,6.29l3.21,4.97-6.8,7.05-5.1-3.08c-1.82,1.12-3.79,1.97-5.85,2.52l-1.2,5.85h-9.82l-1.38-5.73c-2.19-.5-4.31-1.28-6.29-2.33l-4.97,3.21-7.05-6.8,3.08-5.1c-1.12-1.82-1.97-3.79-2.52-5.85l-5.85-1.2v-9.82l5.73-1.38c.5-2.19,1.28-4.31,2.33-6.29l-3.21-4.97,6.8-7.05,5.03,3.08Zm5.29,13.09c-4.1,4.01-4.18,10.58-.17,14.68.06.06.11.11.17.17,4.03,4.17,10.69,4.29,14.86.26,4.17-4.03,4.29-10.69.26-14.86-.17-.17-.34-.34-.52-.5-4.01-4.1-10.58-4.18-14.68-.17-.06.06-.11.11-.17.17" fill="#393838"/>
      <path d="m255.11,254.21c3.19-1.92,6.62-3.4,10.19-4.4l2.14-10.13h17.05l2.52,10.01c3.6.91,7.07,2.28,10.32,4.09l8.68-5.66,12.27,11.89-5.35,8.81c1.93,3.21,3.43,6.66,4.47,10.26l10.07,2.08.31,17.12-10.01,2.45c-.9,3.63-2.27,7.12-4.09,10.38l5.66,8.62-11.89,12.59-8.81-5.35c-3.21,1.92-6.66,3.4-10.26,4.4l-2.08,10.13h-17.12l-2.45-10.07c-3.63-.88-7.13-2.25-10.38-4.09l-8.62,5.73-12.59-11.89,5.35-8.87c-1.92-3.19-3.4-6.61-4.41-10.19l-10.13-2.14v-17.05l10.07-2.45c.87-3.64,2.24-7.13,4.09-10.38l-5.66-8.68,11.83-12.59,8.81,5.41Zm9.12,22.78c-7.02,7.28-6.81,18.87.47,25.89,7.28,7.02,18.87,6.81,25.89-.47,7.01-7.27,6.81-18.83-.44-25.86-7.26-7.04-18.86-6.86-25.89.41-.01.01-.02.02-.03.03" fill="#5b9cd5"/>
      <path d="m362.84,153.84c1.57-.95,3.26-1.67,5.03-2.14l1.01-4.97h8.31l1.2,4.91c1.76.42,3.45,1.08,5.03,1.95l4.22-2.77,6.29,5.79-2.58,4.34c.93,1.55,1.65,3.23,2.14,4.97l4.91,1.01v8.31l-4.91,1.2c-.42,1.76-1.08,3.45-1.95,5.03l2.71,4.22-5.79,6.29-4.28-2.58c-1.54.96-3.22,1.68-4.97,2.14l-1.01,4.97h-8.31l-1.2-4.91c-1.77-.43-3.49-1.09-5.1-1.95l-4.15,2.77-6.29-5.79,2.64-4.34c-.95-1.55-1.69-3.22-2.2-4.97l-4.91-1.01v-8.31l4.91-1.2c.4-1.77,1.05-3.46,1.95-5.03l-2.77-4.22,5.79-6.29,4.28,2.58Zm4.47,11.08c-3.5,3.48-3.53,9.13-.05,12.64,3.48,3.5,9.13,3.53,12.64.05,3.5-3.48,3.53-9.13.05-12.64-.02-.02-.03-.03-.05-.05-3.5-3.42-9.09-3.42-12.59,0" fill="#f4f4f5"/>
      <path d="m414,177.13c2.75-1.62,5.69-2.89,8.75-3.78l1.76-8.62h14.6l2.08,8.56c3.1.75,6.08,1.92,8.87,3.46l7.36-4.85,10.51,10.13-4.59,7.55c1.66,2.73,2.95,5.67,3.84,8.75l8.62,1.76v14.6l-8.56,2.08c-.77,3.1-1.96,6.09-3.52,8.87l4.85,7.36-10.13,10.51-7.55-4.59c-2.7,1.67-5.63,2.97-8.68,3.84l-1.82,8.62h-14.6l-2.08-8.56c-3.1-.78-6.08-1.97-8.87-3.52l-7.36,4.85-10.45-10.13,4.53-7.55c-1.63-2.72-2.9-5.64-3.78-8.68l-8.62-1.83v-14.54l8.56-2.14c.75-3.08,1.92-6.04,3.46-8.81l-4.85-7.43,10.13-10.45,7.55,4.53Zm7.8,19.44c-5.98,6.2-5.81,16.08.4,22.07,6.2,5.98,16.08,5.81,22.07-.4,5.98-6.2,5.81-16.06-.38-22.05-6.19-6-16.07-5.84-22.07.36,0,0-.01.01-.02.02" fill="#e8b936"/>
      <path d="m421.11,102.49c1.36-.81,2.82-1.44,4.34-1.89l.94-4.34h7.3l1.01,4.28c1.56.38,3.06.98,4.47,1.76l3.65-2.39,5.22,5.03-2.27,3.78c.81,1.36,1.44,2.82,1.89,4.34l4.34.94v7.24l-4.28,1.07c-.37,1.55-.97,3.03-1.76,4.4l2.45,3.71-5.1,5.22-3.78-2.27c-1.36.81-2.82,1.44-4.34,1.89l-.88,4.34h-7.3l-1.07-4.28c-1.55-.37-3.03-.97-4.41-1.76l-3.71,2.39-5.22-5.03,2.27-3.78c-.81-1.36-1.44-2.82-1.89-4.34l-4.34-.94v-7.24l4.28-1.07c.4-1.54.99-3.02,1.76-4.4l-2.39-3.71,5.03-5.22,3.78,2.27Zm3.9,9.69c-3.04,3.06-3.02,8,.04,11.04,3.06,3.04,8,3.02,11.04-.04,3.02-3.04,3.02-7.95,0-10.99-3.07-3.04-8.01-3.04-11.08,0" fill="#5b9cd5"/>
      <path d="m333.96,209.98c3.51-2.13,7.3-3.76,11.26-4.85l2.33-11.14,18.88-.38,2.71,11.08c3.98.98,7.81,2.48,11.39,4.47l9.5-6.29,13.53,13.09-5.85,9.69c2.12,3.52,3.75,7.31,4.85,11.26l11.14,2.33v18.88l-11.01,2.71c-.98,3.98-2.49,7.81-4.47,11.39l6.29,9.5-13.09,13.59-9.75-5.91c-3.5,2.12-7.27,3.77-11.2,4.91l-2.08,10.95h-18.88l-2.71-11.08c-4-.96-7.85-2.47-11.45-4.47l-9.5,6.29-13.53-13.09,5.73-9.13c-2.11-3.53-3.76-7.32-4.91-11.26l-11.14-2.33-.31-18.88,11.01-2.71c1.02-3.98,2.54-7.8,4.53-11.39l-6.29-9.5,13.03-13.53,10.01,5.79Z" fill="#ad2447"/>
      <rect x="335.78" y="231.81" width="10.32" height="32.28" fill="#fff"/>
      <rect x="351.2" y="239.17" width="10.32" height="24.92" fill="#fff"/>
      <rect x="365.49" y="249.31" width="10.32" height="14.79" fill="#fff"/>
      <path d="m179.03,207.71c3.52-2.12,7.31-3.77,11.26-4.91l2.27-11.14h18.88l2.71,11.08c4,.96,7.85,2.47,11.45,4.47l9.5-6.29,13.53,13.09-6.1,9.44c2.14,3.52,3.79,7.31,4.91,11.26l11.14,2.33v18.88l-11.01,2.71c-1,3.98-2.52,7.81-4.53,11.39l6.29,9.5-13.03,13.53-9.75-5.85c-3.51,2.14-7.3,3.77-11.26,4.85l-2.27,11.14-18.88.38-1.95-10.89c-4-.96-7.85-2.47-11.45-4.47l-9.5,6.29-13.53-13.09,5.92-9.69c-2.11-3.53-3.76-7.32-4.91-11.26l-11.14-2.33-.31-18.88,11.01-2.71c1-3.98,2.53-7.81,4.53-11.39l-6.29-9.57,13.03-13.53,9.5,5.66Z" fill="#e8b936"/>
      <path d="m205.96,278.94c-14.12-.06-26.56-9.32-30.65-22.84-.08-.27.08-.55.35-.62,0,0,.02,0,.03,0,.26-.05.52.08.63.31,4.88,16.39,22.13,25.71,38.51,20.83,16.39-4.88,25.71-22.13,20.83-38.51-4.88-16.39-22.13-25.71-38.51-20.83-10.5,3.13-18.57,11.58-21.21,22.21-.09.26-.36.42-.63.38-.27-.06-.44-.33-.39-.6,0-.01,0-.02,0-.03,4.27-17.13,21.63-27.55,38.76-23.28,17.13,4.27,27.55,21.63,23.28,38.76-3.55,14.23-16.34,24.22-31.01,24.23" fill="#fff"/>
      <path d="m205.77,269.19c-9.95-.04-18.68-6.66-21.4-16.24-.05-.27.11-.54.38-.63.26-.08.54.06.63.31,3.15,11.28,14.84,17.88,26.12,14.73,11.28-3.15,17.88-14.84,14.73-26.12-3.15-11.28-14.84-17.88-26.12-14.73-7.15,1.99-12.74,7.58-14.73,14.73-.09.26-.36.42-.63.38-.27-.11-.43-.4-.38-.69,3.34-11.81,15.61-18.67,27.42-15.34,11.81,3.34,18.67,15.61,15.34,27.42-2.7,9.56-11.42,16.16-21.36,16.17" fill="#fff"/>
      <path d="m205.77,251.95c-1.13.01-2.23-.34-3.15-1.01-.25-.12-.35-.42-.23-.67.12-.25.42-.35.67-.23.05.02.09.05.13.09,2.12,1.46,5.02.92,6.47-1.2,1.46-2.12.92-5.02-1.2-6.47-.79-.54-1.73-.83-2.69-.82-.77,0-1.53.2-2.2.57-.26.12-.57,0-.69-.25-.12-.26,0-.57.25-.69.81-.45,1.72-.69,2.64-.69,3.15.33,5.43,3.15,5.1,6.29-.28,2.69-2.41,4.82-5.1,5.1" fill="#fff"/>
      <polygon points="206.03 246.03 197.72 242.01 197.85 245.66 175.82 246.16 176.07 247.73 198.16 247.42 198.22 251.07 206.03 246.03" fill="#fff"/>
      <path d="m181.86,246.66h0c-.57-1.15-1.73-1.9-3.02-1.95h-7.3l3.21,2.83-2.83,3.46h6.98c1.57-.06,2.92-1.13,3.34-2.64l-.38-1.7Z" fill="#fff"/>
      <path d="m205.96,260.38c-5.97-.03-11.21-3.97-12.9-9.69-.05-.27.11-.54.38-.63.27-.08.55.08.62.35,0,0,0,.02,0,.03,1.95,6.67,8.93,10.5,15.61,8.56,6.67-1.95,10.5-8.93,8.56-15.61-1.95-6.67-8.93-10.5-15.61-8.56-4.13,1.2-7.35,4.43-8.56,8.56-.2.16-.49.16-.69,0-.26-.09-.4-.37-.31-.63,2.16-7.08,9.64-11.07,16.73-8.92,7.08,2.16,11.07,9.64,8.92,16.73-1.74,5.73-7.07,9.6-13.06,9.5" fill="#fff"/>
      <path d="m487.25,206.83c3.49-2.13,7.26-3.76,11.2-4.85l2.33-11.14,18.88-.38,2.71,11.08c4,.96,7.85,2.47,11.45,4.47l9.5-6.29,13.53,13.09-5.92,9.69c2.11,3.53,3.76,7.32,4.91,11.26l11.14,2.33.31,18.88-11.01,2.71c-1,3.98-2.53,7.81-4.53,11.39l6.29,9.5-13.03,13.59-9.75-5.91c-3.52,2.12-7.31,3.77-11.26,4.91l-2.33,11.14h-18.88l-2.71-11.08c-3.98-.98-7.81-2.48-11.39-4.47l-9.5,6.29-13.53-13.09,5.85-9.69c-2.12-3.52-3.75-7.31-4.85-11.26l-11.14-2.33-.31-18.88,11.01-2.71c.99-3.98,2.51-7.82,4.53-11.39l-6.29-9.5,13.09-13.53,9.69,6.17Z" fill="#5b9cd5"/>
      <polygon points="483.66 248.17 490.9 240.94 504.75 253.33 532.06 227.03 538.79 234.27 503.74 267.24 483.66 248.17" fill="#fff"/>
      <path d="m297.34,212.68h0l.44-.88.69-1.51c.27-.7.61-1.38,1.01-2.01l1.32-2.45,1.82-2.83c.63-1.01,1.45-2.01,2.27-3.15s1.76-2.14,2.77-3.27c1.03-1.21,2.15-2.35,3.34-3.4.58-.6,1.19-1.17,1.82-1.7l2.01-1.76,2.14-1.64,1.13-.82,1.2-.76,2.39-1.57,2.58-1.51c.88-.5,1.82-.88,2.71-1.32l2.83-1.32,2.96-1.2,3.08-1.01c4.33-1.26,8.78-2.06,13.28-2.39,4.51-.24,9.02.04,13.47.82l3.15.63,3.08.82c1.01,0,2.01.63,2.96.94s1.95.63,2.89,1.07l2.71,1.13,2.58,1.32,1.26.63c.42.19.82.42,1.2.69l2.39,1.32,2.14,1.51c.69.5,1.45.94,2.08,1.45s2.58,1.95,3.71,3.02,2.2,1.95,3.08,2.96c.95.88,1.83,1.83,2.64,2.83l2.14,2.58,1.64,2.27,1.26,1.89.82,1.38.5.88h0c-.23-.24-.42-.52-.57-.82,0-.38-.57-.82-.88-1.38-.39-.64-.83-1.25-1.32-1.83l-1.64-2.27c-.63-.82-1.38-1.64-2.2-2.52-.81-.99-1.67-1.94-2.58-2.83-.94-.94-2.08-1.89-3.15-2.89s-2.45-1.95-3.71-2.96-1.32-.94-2.08-1.45l-2.14-1.45-2.33-1.32-1.2-.69-1.26-.63-2.58-1.26-2.71-1.13-2.83-1.01c-1.01,0-1.95-.69-2.96-.94l-3.08-.82-3.15-.63c-4.41-.72-8.88-1-13.34-.82-4.44.33-8.82,1.14-13.09,2.39l-3.08,1.01-2.89,1.13c-.97.39-1.91.83-2.83,1.32-.94.44-1.82.82-2.71,1.32l-2.58,1.45-2.39,1.57-1.2.76-1.07.82-2.2,1.64-1.95,1.7c-.63.57-1.32,1.07-1.89,1.64s-2.33,2.2-3.27,3.4-2.01,2.14-2.83,3.27c-.82.98-1.57,2.01-2.27,3.08-.63.94-1.32,1.89-1.82,2.77l-1.38,2.39c-.39.65-.75,1.32-1.07,2.01,0,.57-.5,1.07-.76,1.45l-.44.94h0" fill="#2e353a"/>
      <path d="m318.54,178.76c.38-.29.78-.54,1.2-.76,1.07-.71,2.18-1.34,3.34-1.89,3.8-1.92,7.81-3.4,11.96-4.4,4.13-.93,8.35-1.39,12.59-1.38h3.9c.46-.08.93-.08,1.38,0h-5.29c-8.45.16-16.77,2.11-24.42,5.73-1.51.69-2.64,1.32-3.46,1.76l-1.26.57" fill="#2e353a"/>
      <path d="m565.03,283.1h0l-.44.94c0,.38-.44.88-.69,1.51-.29.67-.62,1.33-1.01,1.95l-1.32,2.52-1.82,2.77c-.63,1.07-1.45,2.01-2.27,3.15s-1.76,2.14-2.77,3.27c-1.05,1.22-2.16,2.37-3.34,3.46l-1.82,1.7-2.01,1.7-2.14,1.64-1.13.82-1.2.82-2.39,1.57-2.58,1.45-2.71,1.38c-.92.47-1.87.89-2.83,1.26l-2.96,1.2-3.08,1.01c-4.32,1.29-8.78,2.09-13.28,2.39-4.51.24-9.02-.04-13.47-.82l-3.15-.63-3.08-.82c-1.01,0-2.01-.63-2.96-.94-.99-.29-1.96-.65-2.89-1.07l-2.71-1.13-2.58-1.26-1.26-.63-1.2-.69-2.39-1.38-2.14-1.45c-.72-.47-1.41-.97-2.08-1.51-1.26-1.01-2.58-1.95-3.71-2.96s-2.2-1.95-3.08-2.96-1.89-1.89-2.64-2.83l-2.14-2.58-1.64-2.33c-.5-.63-.88-1.26-1.26-1.83s-.57-1.07-.82-1.45l-.5-.88h0c.22.25.41.53.57.82l.88,1.38c.41.65.85,1.28,1.32,1.89l1.64,2.2c.63.82,1.38,1.64,2.2,2.58.81.97,1.67,1.89,2.58,2.77.94,1.01,2.08,1.89,3.15,2.89s2.45,1.95,3.71,2.96,1.32.94,2.08,1.45l2.14,1.45,2.33,1.32,1.2.69,1.26.63,2.58,1.26,2.71,1.13c.94.44,1.89.69,2.83,1.07.97.35,1.96.65,2.96.88l3.08.82,3.15.63c4.4.79,8.88,1.06,13.34.82,4.44-.3,8.83-1.11,13.09-2.39l3.08-1.01,2.89-1.13c1.01-.38,1.95-.88,2.83-1.26l2.71-1.38,2.58-1.45,2.39-1.57,1.2-.76,1.07-.82,2.2-1.64,1.95-1.64,1.89-1.7c1.13-1.2,2.33-2.2,3.27-3.4s2.01-2.14,2.83-3.27,1.64-2.01,2.27-3.02l1.82-2.77c.5-.94,1.01-1.7,1.38-2.45.4-.65.76-1.32,1.07-2.01.31-.57.5-1.07.76-1.45l.44-.88h0" fill="#2e353a"/>
      <path d="m544.58,320.1l-1.2.82c-1.07.71-2.18,1.34-3.34,1.89-3.81,1.94-7.85,3.39-12.02,4.34-4.13.95-8.35,1.44-12.59,1.45h-5.22,5.22c8.47-.15,16.82-2.11,24.48-5.73l3.4-1.76,1.32-.63" fill="#2e353a"/>
      <path d="m258.13,280.83c-.02.1-.02.21,0,.31-.15.28-.27.58-.38.88l-.69,1.51c-.27.7-.61,1.38-1.01,2.01l-1.38,2.45c-.5.88-1.13,1.83-1.82,2.83s-1.45,2.01-2.27,3.15c-.86,1.14-1.79,2.23-2.77,3.27-1.03,1.19-2.12,2.33-3.27,3.4-.6.6-1.23,1.17-1.89,1.7l-2.01,1.76-2.14,1.64-1.13.82-1.13.76-2.45,1.57-2.58,1.51c-.82.5-1.76.88-2.71,1.38s-1.82.88-2.83,1.26l-2.96,1.2-3.08,1.01c-4.3,1.29-8.73,2.09-13.21,2.39-4.51.24-9.02-.03-13.47-.82l-3.21-.63-3.08-.82c-1.01,0-1.95-.63-2.96-.94s-1.95-.63-2.83-1.07l-2.71-1.13-2.64-1.26c-.4-.25-.82-.46-1.26-.63l-1.2-.76-2.33-1.32-2.2-1.51c-.71-.42-1.38-.91-2.01-1.45-1.3-.92-2.54-1.93-3.71-3.02-1.13-1.01-2.2-1.95-3.15-2.96-.93-.87-1.81-1.8-2.64-2.77l-2.08-2.58-1.7-2.33c-.45-.59-.85-1.23-1.2-1.89l-.88-1.38-.5-.88h0l.57.82c0,.38.5.88.88,1.38.37.64.79,1.25,1.26,1.83l1.7,2.27c.63.82,1.38,1.64,2.14,2.52s1.7,1.83,2.64,2.83,2.01,1.89,3.15,2.89,2.39,1.95,3.65,2.96l2.08,1.45,2.2,1.45,2.33,1.32c.38.27.78.5,1.2.69l1.26.63,2.58,1.26,2.71,1.13c.88.38,1.89.69,2.83,1.01s1.95.69,2.96.94l3.02.82,3.15.63c4.41.72,8.88.99,13.34.82,4.46-.33,8.87-1.13,13.15-2.39l3.02-1.01,2.96-1.13c1.01-.38,1.89-.88,2.83-1.32s1.82-.82,2.64-1.32l2.58-1.45,2.39-1.57,1.2-.76,1.13-.82,2.14-1.64,2.01-1.7,1.82-1.64c1.17-1.07,2.29-2.2,3.34-3.4.98-1.04,1.9-2.14,2.77-3.27.82-.98,1.57-2.01,2.27-3.08.69-.94,1.32-1.89,1.89-2.77s.94-1.7,1.38-2.39.76-1.38,1.07-2.01l.69-1.45.44-.94h0" fill="#2e353a"/>
      <path d="m237.3,317.83l-1.13.82-3.4,1.89c-7.62,3.85-16.06,5.82-24.6,5.73-1.28.08-2.56.08-3.84,0h-1.45,5.29c4.24-.03,8.46-.54,12.59-1.51,4.1-.96,8.09-2.35,11.89-4.15,1.51-.69,2.64-1.32,3.46-1.76l1.26-.63" fill="#2e353a"/>
      <path d="m476.62,155.79h-206.84c-9.66,0-17.49-7.83-17.49-17.49s7.83-17.49,17.49-17.49h206.84c9.66,0,17.49,7.83,17.49,17.49s-7.83,17.49-17.49,17.49" fill="#f9fafa"/>
      <path d="m476.62,155.79h1.38c3.47-.29,6.78-1.6,9.5-3.78,2.28-1.84,4.08-4.22,5.22-6.92.61-1.62,1.01-3.31,1.2-5.03.18-1.92.06-3.85-.38-5.73-1.06-4.25-3.66-7.95-7.3-10.38-2.01-1.34-4.29-2.24-6.67-2.64-2.58-.16-5.16-.16-7.74,0h-202.06c-9.52.01-17.23,7.74-17.22,17.26,0,4.1,1.47,8.06,4.13,11.18,2.78,3.26,6.69,5.35,10.95,5.85h188.41-188.34c-4.43-.57-8.46-2.82-11.26-6.29-6.36-7.5-5.43-18.74,2.07-25.1,3.19-2.7,7.22-4.2,11.4-4.22h202.06c2.58-.16,5.16-.16,7.74,0,2.43.41,4.75,1.34,6.8,2.71,3.72,2.47,6.37,6.24,7.43,10.57.84,3.63.53,7.44-.88,10.89-1.17,2.74-3.01,5.14-5.35,6.98-1.71,1.32-3.62,2.34-5.66,3.02-1.28.35-2.58.58-3.9.69h-1.38" fill="#2e353a"/>
      <path d="m385.37,151.64h-115.54c-7.37-.02-13.33-6-13.31-13.37.02-7.35,5.97-13.3,13.31-13.31h115.54c7.37.02,13.33,6,13.31,13.37-.02,7.35-5.97,13.3-13.31,13.31" fill="#393838"/>
      <g fill="none" opacity=".4">
        <g clip-path="url(#clippath)" fill="none">
          <polygon points="273.74 151.58 290.35 124.9 308.1 124.9 291.86 151.58 273.74 151.58" fill="#fff"/>
        </g>
      </g>
      <g fill="none" opacity=".4">
        <g clip-path="url(#clippath-1)" fill="none">
          <polygon points="309.35 151.58 325.97 124.9 343.71 124.9 327.48 151.58 309.35 151.58" fill="#fff"/>
        </g>
      </g>
      <g fill="none" opacity=".4">
        <g clip-path="url(#clippath-2)" fill="none">
          <polygon points="347.61 151.58 364.16 124.9 381.91 124.9 365.67 151.58 347.61 151.58" fill="#fff"/>
        </g>
      </g>
      <path d="m346.04,109.61c0,2.01-1.51,3.27-3.96,3.27h-1.82v2.52h-2.08v-9.06h3.9c2.45,0,3.96,1.26,3.96,3.27m-2.14,0c0-1.01-.63-1.57-1.95-1.57h-1.7v3.15h1.7c1.32,0,1.95-.57,1.95-1.57" fill="#2e353a"/>
      <path d="m353.34,115.39l-1.76-2.52h-2.08v2.52h-2.08v-9.06h3.9c2.45,0,3.96,1.26,3.96,3.27.06,1.27-.7,2.44-1.89,2.89l2.01,2.89h-2.08Zm-2.01-7.36h-1.82v3.15h1.7c1.32,0,1.95-.57,1.95-1.57s-.63-1.57-1.95-1.57" fill="#2e353a"/>
      <path d="m356.49,110.86c-.17-2.74,1.91-5.1,4.65-5.28,2.74-.17,5.1,1.91,5.28,4.65.17,2.74-1.91,5.1-4.65,5.28-.1,0-.2,0-.3,0-2.57.17-4.79-1.77-4.96-4.33,0-.11-.01-.22-.01-.32m7.8,0c0-1.56-1.27-2.83-2.83-2.83s-2.83,1.27-2.83,2.83,1.27,2.83,2.83,2.83,2.83-1.27,2.83-2.83" fill="#2e353a"/>
      <path d="m367.44,110.86c-.04-2.57,2.01-4.69,4.59-4.73.11,0,.22,0,.32,0,1.44-.06,2.83.54,3.78,1.64l-1.38,1.26c-.53-.71-1.38-1.11-2.27-1.07-1.6,0-2.89,1.3-2.89,2.89s1.3,2.9,2.89,2.9h0c.88,0,1.71-.39,2.27-1.07l1.38,1.26c-.97,1.05-2.35,1.62-3.78,1.57-2.57.14-4.76-1.83-4.9-4.4,0-.09,0-.17,0-.26" fill="#2e353a"/>
      <polygon points="384.55 113.7 384.55 115.4 377.57 115.4 377.57 106.33 384.43 106.33 384.43 107.97 379.65 107.97 379.65 109.98 383.86 109.98 383.86 111.62 379.65 111.62 379.65 113.7 384.55 113.7" fill="#2e353a"/>
      <path d="m385.5,114.51l.69-1.57c.91.57,1.95.89,3.02.94,1.26,0,1.76-.44,1.76-1.01,0-1.7-5.29-.5-5.29-3.9,0-1.51,1.26-2.83,3.84-2.83,1.1,0,2.19.27,3.15.82l-.63,1.57c-.78-.42-1.64-.65-2.52-.69-1.26,0-1.76.44-1.76,1.01,0,1.7,5.29.57,5.29,3.9,0,1.51-1.26,2.77-3.84,2.77-1.31.06-2.61-.29-3.71-1.01" fill="#2e353a"/>
      <path d="m393.55,114.51l.69-1.57c.9.59,1.94.92,3.02.94,1.26,0,1.76-.44,1.76-1.01,0-1.7-5.29-.5-5.29-3.9,0-1.51,1.2-2.83,3.78-2.83,1.12-.02,2.23.26,3.21.82l-.69,1.57c-.77-.43-1.63-.67-2.52-.69-1.26,0-1.7.44-1.7,1.01,0,1.7,5.29.57,5.29,3.9,0,1.51-1.26,2.77-3.84,2.77-1.31.06-2.61-.29-3.71-1.01" fill="#2e353a"/>
      <path d="m15.42,431.11l10.07-21.52,23.47,13.47-12.21,19.7c-4.57.93-9.32.61-13.72-.94-3.35-2.91-5.96-6.58-7.61-10.7" fill="#eabb9c"/>
      <path d="m35.55,444.95l1.2-2.01c-8.21-1.39-15.72-5.49-21.33-11.64l-8.05,14.72,44.05,24.42c2.08-4.34-16.17-25.17-16.17-25.17" fill="#5b9cd5"/>
      <path d="m7.36,446.02l2.01-3.59,41.85,24.79s1.51,1.95.5,3.21l-44.36-24.42Z" fill="#2e353a"/>
      <path d="m36.37,445.07h-2.71c-1.45,0-2.52.69-2.64.5s.82-1.26,2.58-1.38,2.96.88,2.77,1.01" fill="#2e353a"/>
      <path d="m39.96,449.61s-1.2,0-2.45.57-1.95,1.38-2.14,1.26,0-1.45,1.82-2.01,2.89,0,2.77,0" fill="#2e353a"/>
      <path d="m39.58,456.59s0-1.32,1.26-2.2,2.52-.76,2.45-.57-.94.57-1.95,1.26-1.57,1.64-1.76,1.51" fill="#2e353a"/>
      <path d="m17.87,442.05c-.32.62-1.08.86-1.7.54-.02-.01-.04-.02-.07-.04-.64-.35-.87-1.16-.52-1.8l.02-.03c.38-.62,1.18-.84,1.82-.5.62.38.82,1.19.45,1.81,0,0,0,0,0,.01" fill="#2e353a"/>
      <path d="m121.2,440.04l11.64-24.54,23.66.38-12.15,23.91c-3.61,2.99-7.96,4.97-12.59,5.73-3.89-.76-7.46-2.67-10.26-5.47" fill="#eabb9c"/>
      <path d="m144.23,442.18v-2.39c-7.71,2.65-16.1,2.52-23.72-.38-.84,1.5-1.29,3.19-1.32,4.91v12.59l52.04,1.01c0-4.97-26.93-15.48-26.93-15.48" fill="#5b9cd5"/>
      <path d="m119.12,456.65v-4.22l49.96,2.52s2.33,1.07,2.01,2.71l-51.98-1.01Z" fill="#2e353a"/>
      <path d="m145.11,441.93s-1.32.38-2.58,1.13-1.95,1.89-2.2,1.76,0-1.57,1.76-2.52,3.08-.63,3.02-.38" fill="#2e353a"/>
      <path d="m150.52,444.32s-1.07.63-1.95,1.7-1.2,2.2-1.45,2.2c-.31-.99-.02-2.07.76-2.77,1.13-1.32,2.64-1.38,2.64-1.13" fill="#2e353a"/>
      <path d="m153.48,450.86s-.57-1.2,0-2.58,1.89-1.89,1.95-1.7-.63.94-1.2,2.08-.63,2.2-.88,2.2" fill="#2e353a"/>
      <path d="m126.8,448.03c-.04.76-.68,1.35-1.45,1.32-.76-.04-1.35-.68-1.32-1.45.04-.76.68-1.35,1.44-1.32.75.07,1.32.69,1.32,1.45" fill="#2e353a"/>
      <path d="m257.38,114.07c4.17-.78,7.53-3.89,8.62-7.99,0-.44,0-.94.57-1.2.39-.13.81-.13,1.2,0,2.21-.06,4.3-1.02,5.79-2.64-.42-5.41,2.67-10.48,7.68-12.59-.19-3.47-2.49-6.47-5.79-7.55,1.78-1.17,2.55-3.39,1.89-5.41-.65-1.97-1.96-3.66-3.71-4.78-2.06-1.93-5.04-2.52-7.68-1.51.42-1.67-.23-3.42-1.64-4.4-3.74-3.09-9.24-2.76-12.59.76-.73-1.59-1.91-2.92-3.4-3.84-1.57-.84-3.51-.56-4.78.69-.16-1.73-1.24-3.25-2.83-3.96-1-.74-2.21-1.14-3.46-1.13-1.28.03-2.41.86-2.83,2.08-1.93-1.85-5-1.78-6.85.15-1.49,1.55-1.77,3.9-.7,5.76-2.13.13-4.05,1.34-5.1,3.21-1.12,1.95-1.12,4.35,0,6.29-.94-.38-2.01.69-2.01,1.7.08,1.05.67,1.99,1.57,2.52l-5.85,9.12c-1.38,1.92-2.44,4.04-3.15,6.29-.67,2.25-.28,4.69,1.07,6.61" fill="#2e353a"/>
      <path d="m262.98,105.26c4.18-8.44,1.49-18.67-6.29-23.98l-26.24-11.01-2.52,3.96-32.66,50.85,18,26.93,13.59-16.61c7.39,2.46,15.52-.07,20.2-6.29,6.05-7.44,11.4-15.42,15.98-23.85" fill="#eabb9c"/>
      <path d="m255.11,111.87c-.54.85-1.67,1.1-2.52.57-.86-.46-1.19-1.52-.73-2.38.01-.02.03-.05.04-.07.56-.82,1.66-1.07,2.52-.57.86.49,1.17,1.58.69,2.45" fill="#2e353a"/>
      <path d="m257.44,109.04s-.88-1.57-2.58-2.71-3.4-1.07-3.46-1.38.38-.38,1.2-.44c1.05,0,2.08.31,2.96.88.86.58,1.52,1.42,1.89,2.39v1.26" fill="#2e353a"/>
      <path d="m239.32,102.81c-.67.8-1.86.9-2.66.23-.62-.52-.84-1.37-.55-2.12.56-.82,1.66-1.07,2.52-.57.86.49,1.17,1.58.69,2.45" fill="#2e353a"/>
      <path d="m240.7,98.91c-.31,0-.88-1.57-2.58-2.71s-3.4-1.07-3.46-1.38.38-.38,1.2-.44c1.05,0,2.08.31,2.96.88.86.58,1.52,1.42,1.89,2.39v1.26" fill="#2e353a"/>
      <path d="m238.75,114.89c1.06.27,2.08.69,3.02,1.26.44,0,.94.44,1.2,0,.33-.41.53-.92.57-1.45,0-1.32.57-2.64.88-4.09.67-3.5,1.6-6.95,2.77-10.32-.35,3.55-1,7.07-1.95,10.51,0,1.45-.63,2.77-.94,4.09-.09.69-.4,1.33-.88,1.83-.35.19-.78.19-1.13,0-.27-.07-.53-.2-.76-.38-.98-.49-1.91-1.08-2.77-1.76" fill="#2e353a"/>
      <path d="m226.79,135.34c-5.72-3.68-10.3-8.89-13.21-15.04-.61,7.7,3.77,14.92,10.89,17.93l2.33-2.89Z" fill="#d69771"/>
      <path d="m235.41,118.42c-.14-1.23-.87-2.31-1.95-2.89-.83-.31-1.75-.31-2.58,0-.84.29-1.42,1.06-1.45,1.95.14.97.87,1.75,1.82,1.95.98.19,1.98.19,2.96,0,.27.03.55.03.82,0,0,0,.44-.38.38-.63" fill="#d69771"/>
      <path d="m233.09,112.75s-.88,2.01,0,4.34,2.71,3.34,2.58,3.65-.69,0-1.51-.5c-1.05-.68-1.82-1.7-2.2-2.89-.38-1.17-.26-2.44.31-3.52.38-.82.88-1.13,1.01-1.07" fill="#2e353a"/>
      <path d="m245.17,93.24c-.44.38-1.95-.94-4.09-2.01s-4.03-1.57-4.03-2.14.57-.5,1.51-.57c1.21.03,2.39.33,3.46.88,1.08.54,2.01,1.34,2.71,2.33.5.76.63,1.32.44,1.51" fill="#2e353a"/>
      <path d="m260.02,103.88c-.5,0-1.38-.94-2.77-1.89s-2.71-1.45-2.71-2.01.44-.5,1.2-.5c.98-.02,1.93.29,2.71.88.8.54,1.4,1.34,1.7,2.27v1.26" fill="#2e353a"/>
      <path d="m267.26,88.08c-.95,3.77-4.78,6.07-8.55,5.12-1.87-.47-3.46-1.68-4.41-3.35.16,1.37-.73,2.65-2.08,2.96-1.31.25-2.66-.02-3.78-.76-2.44-1.45-4.13-3.88-4.66-6.67-1.56,1.81-3.92,2.73-6.29,2.45-2.26-.19-4.3-1.46-5.47-3.4.57,2.72-.58,5.51-2.89,7.05-2.38,1.38-5.35,1.21-7.55-.44-2.13-1.8-2.93-4.73-2.01-7.36-1.2-1.87-1.5-4.18-.82-6.29.79-2.13,2.5-3.8,4.66-4.53-.95-1.25-1.14-2.91-.5-4.34.64-1.41,1.64-2.63,2.89-3.52,2.91-2.42,6.67-3.58,10.45-3.21,3.79.53,6.89,3.29,7.87,6.98-.07.76.49,1.43,1.25,1.5.29.03.57-.04.82-.18,2.43-.83,5.04-.98,7.55-.44,3.01,1.06,4.89,4.06,4.53,7.24,3.12-1.61,6.92-1,9.38,1.51,2.15,2.73,1.67,6.69-1.06,8.84-.04.03-.09.07-.13.1" fill="#2e353a"/>
      <path d="m224.28,89.97c-1.78,2.39-3.9,4.51-6.29,6.29-.88.9-2.16,1.3-3.4,1.07-1.04-.53-1.63-1.67-1.45-2.83.21-1.12.68-2.18,1.38-3.08,2.35-3.29,4.91-6.43,7.68-9.38" fill="#2e353a"/>
      <path d="m220.37,90.16s-4.66-6.29-8.81,0c-1.94,2.36-1.6,5.85.77,7.79.62.51,1.35.88,2.13,1.08l5.92-8.81" fill="#eabb9c"/>
      <path d="m214.14,95.38h-.38c-.33-.09-.62-.29-.82-.57-.43-1.07-.26-2.29.44-3.21.32-.53.78-.96,1.32-1.26.43-.22.95-.22,1.38,0,.29.13.47.44.44.76h.38c.03-.19.03-.38,0-.57-.07-.26-.26-.46-.5-.57-.55-.3-1.21-.3-1.76,0-.61.36-1.12.86-1.51,1.45-.74,1.13-.74,2.58,0,3.71.27.31.66.49,1.07.5.34,0,.46,0,.38,0" fill="#d69771"/>
      <path d="m244.29,83.99h0l.5.44c.66.58,1.4,1.07,2.2,1.45.56.27,1.15.47,1.76.57.73.16,1.48.16,2.2,0,.83-.2,1.61-.58,2.27-1.13.76-.61,1.25-1.49,1.38-2.45h-.31c.77,1.94,2.14,3.6,3.9,4.72.99.6,2.08,1.02,3.21,1.26.58.1,1.18.1,1.76,0,.64-.07,1.25-.31,1.76-.69.56-.46,1.01-1.04,1.32-1.7.31-.61.56-1.24.76-1.89.22-.65.35-1.33.38-2.01.09-.69-.17-1.37-.69-1.83h0c.83,1.02,1.99,1.73,3.27,2.01,1.13.32,2.33.32,3.46,0,.98-.35,1.84-.98,2.45-1.83,1.45-1.77,1.74-4.23.76-6.29-.17-.41-.4-.79-.69-1.13,0,0,0,.38.57,1.2.38,1.17.38,2.42,0,3.59-.19.84-.56,1.63-1.07,2.33-.62.77-1.45,1.33-2.39,1.64-1.07.32-2.2.32-3.27,0-1.2-.29-2.28-.95-3.08-1.89h0c.43.41.66.98.63,1.57-.06.64-.19,1.27-.38,1.89-.33,1.3-1.03,2.49-2.01,3.4-.93.66-2.12.85-3.21.5-1.09-.2-2.14-.6-3.08-1.2-1.7-1.08-3.02-2.66-3.78-4.53v-.63.63c-.13.9-.58,1.73-1.26,2.33-.63.5-1.36.87-2.14,1.07-.68.16-1.39.16-2.08,0-.61-.1-1.21-.29-1.76-.57-.78-.36-1.52-.8-2.2-1.32l-.76-.57" fill="#fff"/>
      <path d="m265.05,93.87c-.02.15-.02.29,0,.44.28.42.67.75,1.13.94.66.41,1.43.59,2.2.5.46-.06.89-.28,1.2-.63.28-.46.28-1.05,0-1.51h0c1.13,1.29,2.76,2.02,4.47,2.01.5.09,1.01.09,1.51,0h.5c-.67.06-1.34.06-2.01,0-1.6-.07-3.1-.8-4.15-2.01h0l-1.2-1.38.88,1.57c.22.32.22.75,0,1.07-.26.3-.61.51-1.01.57-.69.05-1.39-.08-2.01-.38-.56-.34-1.09-.74-1.57-1.2" fill="#fff"/>
      <path d="m250.83,104.26h1.38c1.14.02,2.24.35,3.21.94.95.57,1.77,1.35,2.39,2.27.44.76.63,1.26.69,1.26-.08-.49-.25-.96-.5-1.38-1.11-2.15-3.37-3.48-5.79-3.4-.46-.06-.92-.06-1.38,0" fill="#d69771"/>
      <path d="m234.6,93.43h1.13c.89.01,1.77.27,2.52.76.79.44,1.46,1.07,1.95,1.83.38.57.5,1.01.57,1.01s0-.5-.38-1.13c-.44-.85-1.12-1.55-1.95-2.01-.82-.48-1.75-.74-2.71-.76-.76,0-1.2,0-1.13,0" fill="#d69771"/>
      <path d="m231.2,112.44h1.38c.76,0,1.38.63,1.45.5-.34-.43-.8-.73-1.32-.88-.37-.14-.77-.14-1.13,0h-.38" fill="#d69771"/>
      <path d="m229.44,112.56s.5-.31,1.13-.69l1.07-.69s-.63,0-1.26.38-1.01.94-.94,1.01" fill="#d69771"/>
      <path d="m209.05,94.57h-1.45c-1.35.23-2.6.82-3.65,1.7-1.57,1.35-2.42,3.35-2.33,5.41.11,2.6,1.74,4.89,4.15,5.85,1.24.44,2.6.44,3.84,0,1.19-.31,2.29-.89,3.21-1.7,1.6-1.31,2.51-3.28,2.45-5.35-.02-1.36-.51-2.67-1.38-3.71-.3-.4-.69-.72-1.13-.94,0,0,.38.38.88,1.07.73,1.05,1.13,2.3,1.13,3.59-.07,3.72-3.15,6.67-6.86,6.6-.64-.01-1.27-.12-1.88-.31-2.08-.92-3.5-2.9-3.71-5.16-.12-1.9.62-3.75,2.01-5.03.96-.85,2.1-1.48,3.34-1.83h1.38" fill="#4d5b65"/>
      <path d="m101.5,217.97c-18.88,14.41-21.46,37.38-22.78,50.34-1.32,12.96-11.45,65.82-11.45,65.82,0,0-21.27,33.04-28.95,47.07-7.68,14.03-22.91,43.29-22.91,43.29l25.55,15.8s45.87-62.42,53.93-74.76,49.21-116.04,49.21-116.04l-42.6-31.53Z" fill="#393838"/>
      <path d="m162.17,252.07c1.32,2.45,35.18,86.02,34.3,94.39s-43.11,94.39-43.11,94.39l-31.46-13.21,32.09-71.23.88-9.82-29.89-56.64,9.69-41.78,27.5,3.9Z" fill="#393838"/>
      <path d="m139.95,263.02s-3.4,8.5-7.87,18.88c-4.47,10.38-8.31,18.88-8.43,18.88s3.4-8.43,7.93-18.88c4.53-10.45,8.24-18.88,8.37-18.88" fill="#4d5b65"/>
      <path d="m167.01,349.3c-1.94.53-3.98.53-5.92,0-1.98-.4-3.81-1.34-5.29-2.71,1.72.9,3.54,1.62,5.41,2.14,1.9.42,3.84.61,5.79.57" fill="#4d5b65"/>
      <path d="m165.44,357.42s-2.27-.69-5.16-1.2-5.29-.57-5.35-.69c1.79-.34,3.62-.34,5.41,0,1.8.26,3.53.85,5.1,1.76" fill="#393838"/>
      <path d="m109.75,233.57l-.63.57c-.57.46-1.18.86-1.82,1.2-1.96,1.25-4.08,2.24-6.29,2.96-2.33.69-4.74,1.09-7.17,1.2h-3.15,3.02c2.37-.18,4.71-.62,6.98-1.32,2.29-.7,4.5-1.63,6.61-2.77,1.64-.88,2.58-1.51,2.64-1.45" fill="#4d5b65"/>
      <polygon points="219.37 148.43 246.68 183.67 303.94 207.14 297.84 219.42 224.59 194.37 200.61 145.22 219.37 148.43" fill="#4d5b65"/>
      <polygon points="219.37 148.43 246.68 183.67 303.94 207.14 297.84 219.42 224.59 194.37 200.61 145.22 219.37 148.43" fill="#91233f"/>
      <path d="m192.75,127.54c-1.15-1.19-1.15-3.08,0-4.28l3.71-4.22c.52-.66,1.46-.79,2.14-.31,5.16,3.78,25.17,18.88,25.17,23.03s-8.43,9.69-8.43,9.69l-22.59-23.91Z" fill="#ad2447"/>
      <path d="m183.12,151.7s36.62,50.34,46.13,56.64,69.22,14.1,69.22,14.1l2.33-17.75-57.77-18.5s-37.76-55.57-38.7-57.2c-4.32-4.48-10.41-6.79-16.61-6.29-8.18,1.07-12.59,14.03-9.5,20.45,1.07,2.39,4.66,9.06,4.66,9.06" fill="#ad2447"/>
      <path d="m193,124.2c-7.25-2.51-15.3-.6-20.64,4.91-5.41,5.03-54.87,74.38-58.4,79.04l-14.22,9.82c23.79,21.84,42.22,40.15,67.58,46.5l13.21-42.79,40.59-36.94-28.13-60.54Z" fill="#ad2447"/>
      <path d="m175.76,148.43l.38.5.94,1.38c.82,1.26,2.08,3.02,3.59,5.16,3.02,4.34,7.43,10.19,12.59,16.49s9.88,11.83,13.34,15.86l4.09,4.72,1.13,1.32v.5l-.44-.44-1.13-1.2-4.22-4.66c-3.52-3.96-8.37-9.5-13.53-15.8-5.16-6.29-9.5-12.15-12.59-16.55-1.51-2.2-2.64-4.03-3.46-5.29s-.63-1.07-.88-1.51v-.5" fill="#2e353a"/>
      <path d="m297.59,206.39h-.88l-3.21-1.01-12.08-4.03-41.41-13.97h0c-3.78-5.54-7.8-11.45-11.89-17.56-6.29-9.44-12.59-18.38-17.93-26.56l-7.8-11.58c-.58-.9-1.21-1.76-1.89-2.58-.31-.4-.67-.76-1.07-1.07-.44,0-.76-.69-1.2-.94-1.56-1.11-3.34-1.89-5.22-2.27-3.29-.53-6.66.07-9.57,1.7-2.19,1.25-4.01,3.05-5.29,5.22-.44.82-.8,1.69-1.07,2.58-.23.63-.4,1.29-.5,1.95-.03.54-.03,1.09,0,1.64,0-1.24.2-2.47.57-3.65.22-.9.56-1.77,1.01-2.58,1.25-2.24,3.07-4.11,5.29-5.41,2.97-1.7,6.43-2.35,9.82-1.83,1.94.38,3.78,1.15,5.41,2.27l1.2,1.01c.43.32.83.68,1.2,1.07.69.82,1.26,1.76,1.89,2.64,2.45,3.65,5.1,7.49,7.8,11.58l18,26.49,11.83,17.56h0l41.41,14.1,12.02,4.15,3.21,1.13h.82" fill="#2e353a"/>
      <path d="m200.61,183.67l-.57.76c-.51.6-1.05,1.17-1.64,1.7-3.88,3.55-8.53,6.16-13.59,7.61-.77.23-1.54.42-2.33.57h-.88s1.2-.38,3.08-.94c2.46-.84,4.84-1.9,7.11-3.15,2.24-1.28,4.34-2.78,6.29-4.47,1.51-1.26,2.39-2.2,2.45-2.14" fill="#2e353a"/>
      <path d="m177.02,214.26h-1.76c-1.13,0-2.83,0-4.91.31-5.39.14-10.78-.21-16.11-1.07-5.33-.86-10.57-2.19-15.67-3.96l-4.53-1.83-1.64-.82,1.7.63,4.59,1.64c5.09,1.7,10.31,2.98,15.61,3.84,5.31.79,10.68,1.19,16.05,1.2h6.67" fill="#2e353a"/>
      <path d="m178.46,208.03c-.93.38-1.9.64-2.89.76-2.35.37-4.73.52-7.11.44-2.38-.11-4.74-.45-7.05-1.01-.96-.19-1.89-.5-2.77-.94l2.89.57c2.3.46,4.64.73,6.98.82,2.32.18,4.66.18,6.98,0,.98-.18,1.97-.31,2.96-.38" fill="#2e353a"/>
      <g fill="none" opacity=".2">
        <g clip-path="url(#clippath-3)" fill="none">
          <path d="m182.11,157.93l16.36,27.75c-4.07,3.01-8.46,5.56-13.09,7.61,5.2-1.48,10.27-3.37,15.17-5.66l8.62,3.9-27.06-33.6Z"/>
        </g>
      </g>
      <g fill="none" opacity=".2">
        <g clip-path="url(#clippath-4)" fill="none">
          <path d="m172.23,214.44c-5.81,3.01-12.41,4.13-18.88,3.21-6.17-.8-11.89-3.66-16.24-8.12,0,0,13.34,3.59,18.5,4.22s16.49.69,16.49.69"/>
        </g>
      </g>
      <path d="m117.68,220.67c-1.79.58-3.52,1.34-5.16,2.27-1.38.92-2.61,2.05-3.65,3.34h0l.5-.5v.63h0c.89-1.47,2.09-2.71,3.52-3.65,1.6-1.15,3.51-1.79,5.47-1.83" fill="#2e353a"/>
      <path d="m131.2,231.69c-.86,1.59-2.01,3-3.4,4.15-1.26,1.3-2.76,2.34-4.41,3.08,0,0,1.95-1.45,4.03-3.46s3.65-3.9,3.78-3.78" fill="#2e353a"/>
      <path d="m145.49,243.71c-.71,1.72-1.74,3.3-3.02,4.66-1.17,1.45-2.6,2.66-4.22,3.59,0,0,1.82-1.64,3.78-3.96s3.34-4.4,3.46-4.28" fill="#2e353a"/>
      <path d="m160.72,249.68c-.05,1.84-.5,3.64-1.32,5.29-.69,1.71-1.75,3.26-3.08,4.53,0,0,1.38-2.01,2.58-4.72.69-1.67,1.3-3.37,1.82-5.1" fill="#2e353a"/>
      <path d="m196.59,125.59s0-.44.38-1.07c.45-.76,1.08-1.41,1.82-1.89.74-.45,1.55-.79,2.39-1.01h1.07s-1.57.57-3.21,1.57c-.94.71-1.76,1.56-2.45,2.52" fill="#2e353a"/>
      <path d="m203.76,132.64c.35-1.24,1.1-2.32,2.14-3.08.91-.89,2.08-1.48,3.34-1.7,0,0-1.45.82-2.96,2.14-.9.82-1.74,1.71-2.52,2.64" fill="#2e353a"/>
      <path d="m217.86,135.34c-.71,1.62-1.74,3.07-3.02,4.28-1.18,1.3-2.64,2.32-4.28,2.96,0,0,1.89-1.32,3.9-3.34,2.01-2.01,3.21-3.96,3.4-3.9" fill="#2e353a"/>
      <path d="m296.83,207.14l8.24-11.33,6.29-1.38,12.96-2.45s1.51.94-.38,3.27l-1.07.88h5.16c.08,1.62-.84,3.12-2.33,3.78l-8.68,2.52-3.27.94c3.09.28,6.2.15,9.25-.38,1.44-.5,2.95-.75,4.47-.76.94.93.95,2.44.02,3.38,0,0-.01.01-.02.02-2.48,1.53-5.28,2.47-8.18,2.77-1.88.24-3.77.37-5.66.38,1.43.82,3.07,1.22,4.72,1.13h6.29s0,2.83-1.64,3.4c-3.24.35-6.5.47-9.75.38l-2.2,1.2c-2.39,2.62-5.05,4.98-7.93,7.05-2.01.88-7.43,2.45-7.43,2.45l1.13-17.24Z" fill="#eabb9c"/>
      <path d="m323.76,196.01c-.6.42-1.25.74-1.95.94-1.68.57-3.41.99-5.16,1.26-1.75.26-3.52.39-5.29.38h-2.14s3.34,0,7.36-.57,7.11-1.83,7.17-1.7" fill="#d69771"/>
      <path d="m430.3,415c-12.78-14.98-22.95-31.99-30.08-50.34-8.24-25.17-4.34-22.21-4.34-22.21,5.66,12.51,12.2,24.6,19.57,36.18,8.43,11.77,23.47,29.07,23.47,29.07l-8.62,7.3Z" fill="#e8b936"/>
      <path d="m434.64,346.4c-.43-.59-1.25-.72-1.85-.3-.36.26-.56.68-.55,1.11,2.3,14.22,3.67,28.58,4.09,42.98v24.16h9.12s-1.64-36.06-3.71-47.07c-1.33-7.28-3.72-14.32-7.11-20.89" fill="#5b9cd5"/>
      <path d="m439.55,411.47c3.81-8.62,6.34-17.76,7.49-27.12.29-8.97-.57-17.94-2.58-26.68-.72-4.16-1.1-8.37-1.13-12.59.07-1.21,1.11-2.14,2.32-2.08.73.04,1.39.44,1.77,1.07,2.17,3.98,3.86,8.21,5.03,12.59,2.2,11.45,4.72,17.18,2.83,28-2.2,9.42-5.19,18.64-8.94,27.56l-6.8-.75Z" fill="#e8b936"/>
      <path d="m447.8,412.23s23.91-51.48,25.61-59.15c1.74-8.35,4.42-16.48,7.99-24.23,1.22,7.1.28,14.4-2.71,20.95-4.28,10.63-22.72,64-22.72,64h-8.18" fill="#ad2447"/>
      <path d="m436.97,409.9l-.69-.5-1.82-1.38c-2.19-1.78-4.29-3.67-6.29-5.66-6.74-6.66-12.57-14.17-17.37-22.34-4.77-8.18-8.75-16.8-11.89-25.74-1.2-3.4-2.08-6.29-2.64-8.12s-.5-1.76-.63-2.27v-.82l.31.76c0,.57.38,1.32.69,2.27s1.57,4.66,2.83,8.05c3.17,8.89,7.17,17.47,11.96,25.61,4.75,8.13,10.52,15.62,17.18,22.28,1.99,2.04,4.09,3.97,6.29,5.79l1.76,1.51.63.57" fill="#2e353a"/>
      <path d="m439.55,385.17v-1.51c0-1.07,0-2.45-.44-4.15-.38-3.46-.94-8.24-1.82-13.53s-1.76-10.07-2.52-13.47c-.38-1.64-.63-3.02-.88-4.09-.06-.48-.06-.97,0-1.45.18.47.33.95.44,1.45l1.07,4.03c.82,3.4,1.82,8.12,2.64,13.47.82,5.35,1.38,10.07,1.7,13.59v4.15c.08.5.08,1.01,0,1.51" fill="#2e353a"/>
      <path d="m445.22,343.38v.63l.76,1.95c0,.82.63,1.83,1.01,3.02.45,1.37.82,2.75,1.13,4.15,0,.76.44,1.57.63,2.45s.31,1.7.5,2.64.63,3.78.94,5.85c.48,4.53.67,9.1.57,13.66-.17,4.56-.7,9.11-1.57,13.59-.44,2.08-.82,4.03-1.32,5.79s-.44,1.83-.69,2.64c-.3.76-.55,1.54-.76,2.33-.5,1.57-1.07,2.89-1.51,4.03s-.82,2.2-1.2,3.02l-.88,1.83v.63-.63l.76-1.89c0-.82.76-1.83,1.13-3.02s.94-2.52,1.38-4.03l.76-2.39c0-.82.44-1.7.69-2.58s.82-3.78,1.26-5.79c.82-4.47,1.33-8.99,1.51-13.53.11-4.54-.08-9.08-.57-13.59,0-2.08-.44-4.03-.82-5.85s-.31-1.83-.5-2.64-.38-1.64-.57-2.45-.76-2.89-1.07-4.09l-.94-3.08c-.25-.64-.46-1.29-.63-1.95v-.69" fill="#2e353a"/>
      <path d="m481.08,329.79h0v.69c0,.31,0,1.45-.44,2.52-.5,2.27-1.26,5.41-2.45,9.31-1.2,3.9-2.83,8.37-4.78,13.4s-4.15,10.38-6.29,16.17c-2.14,5.79-3.84,11.39-5.41,16.55s-3.02,9.69-4.41,13.47c-1.11,3-2.37,5.94-3.78,8.81-.5,1.01-.94,1.83-1.26,2.33v.57h0v-.63l1.13-2.33c.94-2.08,2.27-5.03,3.59-8.87,1.32-3.84,2.83-8.37,4.34-13.53,1.51-5.16,3.21-10.76,5.35-16.55s4.41-11.2,6.29-16.17,3.65-9.5,4.91-13.34,2.01-6.98,2.58-9.19c0-1.13.38-1.95.57-2.58v-.63h0" fill="#2e353a"/>
      <path d="m407.21,318.46c-.85-.77-2.16-.7-2.93.15-.47.52-.65,1.25-.47,1.93.81,2.65,1.82,5.24,3.02,7.74,3.27,6.98,12.96,32.16,17.49,45.94s10.89,39.52,10.89,39.52l9.69-1.57s-8.87-42.29-17.49-57.52c-6.98-12.27-13.91-29.95-20.2-36.18" fill="#ad2447"/>
      <path d="m426.97,382.84l.5,1.13c0,.82.69,1.89,1.07,3.27.94,2.77,2.01,6.29,3.08,10.89,1.07,4.59,2.01,8.18,2.64,11.01,0,1.32.57,2.45.76,3.34s0,1.26,0,1.26c-.17-.38-.29-.78-.38-1.2,0-.88-.57-1.95-.88-3.27l-2.77-11.01c-1.13-4.28-2.14-8.12-2.96-10.89l-.94-3.34c0-.76-.38-1.2-.31-1.2" fill="#2e353a"/>
      <path d="m440.06,412.98h0v-.76c0-.25,0-1.7-.38-2.96-.38-2.52-1.01-6.29-2.08-10.7-1.21-5.22-2.73-10.37-4.53-15.42-1.95-5.73-4.47-11.96-7.3-18.38-5.66-12.59-11.33-24.16-15.1-32.53-1.89-4.22-3.34-7.61-4.28-10.01l-1.13-2.71c.02-.25.02-.5,0-.76h0l.31.69,1.2,2.71c1.01,2.39,2.52,5.73,4.41,9.94,3.84,8.31,9.57,19.63,15.29,32.47,2.83,6.29,5.29,12.59,7.24,18.38,1.78,5.09,3.27,10.28,4.47,15.54,1.01,4.47,1.57,8.18,1.89,10.76v2.89c.03.27.03.55,0,.82h0" fill="#2e353a"/>
      <path d="m444.9,412.23c-.05-.52-.05-1.05,0-1.57,0-1.2-.44-2.64-.76-4.47-.69-3.78-1.7-8.94-3.15-14.54-1.45-5.6-3.08-10.63-4.34-14.22l-1.51-4.28c-.25-.5-.42-1.03-.5-1.57l.69,1.51c.38,1.01,1.01,2.45,1.64,4.22,1.78,4.65,3.3,9.4,4.53,14.22,1.04,4.76,1.84,9.57,2.39,14.41.31,1.89.5,3.4.63,4.47.07.54.07,1.09,0,1.64" fill="#2e353a"/>
      <rect x="427.03" y="410.78" width="37.76" height="46" fill="#d67160"/>
      <rect x="427.03" y="410.78" width="37.76" height="46" fill="#4e4d4e"/>
      <rect x="419.23" y="410.78" width="33.48" height="46" fill="#393838"/>
    </g>
  </g>
</svg>