<?xml version="1.0" encoding="UTF-8"?>
<svg id="Layer_2" data-name="Layer 2" xmlns="http://www.w3.org/2000/svg" xmlns:xlink="http://www.w3.org/1999/xlink" viewBox="0 0 468.13 446.37">
  <defs>
    <clipPath id="clippath">
      <rect x="222.01" y="267.57" width="56.57" height="19.15" fill="none"/>
    </clipPath>
    <clipPath id="clippath-1">
      <rect x="260.11" y="184.96" width="23.85" height="15.76" fill="none"/>
    </clipPath>
    <clipPath id="clippath-2">
      <rect x="94.62" y="275.92" width="32.57" height="44.1" fill="none"/>
    </clipPath>
    <clipPath id="clippath-3">
      <rect x="140.39" y="268.2" width="44.99" height="45.72" fill="none"/>
    </clipPath>
  </defs>
  <g id="Plant">
    <rect x="27.97" y="245.7" width="53.18" height="200.2" fill="#f4f4f5"/>
    <rect x="316.06" y="312.3" width="53.18" height="132.51" fill="#f4f4f5"/>
    <rect x="397.26" y="208.13" width="53.18" height="236.68" fill="#f4f4f5"/>
    <rect x="225.98" y="216.69" width="53.18" height="228.07" fill="#f4f4f5"/>
    <rect x="119.3" y="152.13" width="53.18" height="292.67" fill="#f4f4f5"/>
    <path d="m397.26,21.4l-.78.78-2.35,2.24-8.98,8.82-33.4,32.57-113.25,110.17h0l-27.66-33.19-71.5-85.12h.42l-61.53,92.48-17.54,26.09-4.64,6.94-1.2,1.77-.42.63.37-.63c.31-.42.68-.99,1.2-1.83l4.59-6.94c4.02-6.16,9.92-15.08,17.38-26.09l61.37-92.95h0l71.08,85.12,27.71,33.19h-.42l113.35-110.01c14.2-13.83,25.62-24.89,33.51-32.51l9.03-8.72,2.35-2.24c.26-.27.54-.51.83-.73" fill="#e9e9e9"/>
    <path d="m149.78,57.51c0,5.45-4.42,9.86-9.86,9.86s-9.86-4.42-9.86-9.86c0-5.45,4.42-9.86,9.86-9.86s9.86,4.42,9.86,9.86h0" fill="#e9e9e9"/>
    <path d="m64.4,185.69c0,5.45-4.42,9.86-9.86,9.86s-9.86-4.42-9.86-9.86c0-5.45,4.42-9.86,9.86-9.86s9.86,4.42,9.86,9.86h0" fill="#e9e9e9"/>
    <path d="m248.26,175.82c0,5.45-4.42,9.86-9.86,9.86s-9.86-4.42-9.86-9.86c0-5.45,4.42-9.86,9.86-9.86s9.86,4.42,9.86,9.86h0" fill="#e9e9e9"/>
    <path d="m412.14,17.59c0,5.45-4.42,9.86-9.86,9.86s-9.86-4.42-9.86-9.86c0-5.45,4.42-9.86,9.86-9.86,5.42-.03,9.83,4.34,9.86,9.76,0,.04,0,.07,0,.11" fill="#e9e9e9"/>
    <path d="m41.12,37.21c2.38-1.44,4.94-2.54,7.62-3.29l1.62-7.57h12.73l1.83,7.51c2.71.67,5.33,1.68,7.78,3.03l6.42-4.23,9.19,8.87-3.97,6.63c1.45,2.37,2.55,4.94,3.29,7.62l7.57,1.57v12.79l-7.46,1.83c-.67,2.7-1.71,5.3-3.08,7.72l4.23,6.47-8.87,9.19-6.58-4.02c-2.37,1.46-4.94,2.59-7.62,3.34l-1.57,7.57h-12.79l-1.83-7.51c-2.71-.66-5.33-1.68-7.78-3.03l-6.42,4.23-9.19-8.87,3.97-6.58c-1.42-2.41-2.52-4.99-3.29-7.67l-7.57-1.57v-12.73l7.46-1.88c.69-2.69,1.73-5.29,3.08-7.72l-4.23-6.47,8.87-9.19,6.58,3.97Zm6.84,17.01c-5.23,5.45-5.05,14.1.39,19.33,5.45,5.23,14.1,5.05,19.33-.39,5.22-5.44,5.06-14.07-.36-19.31-5.43-5.25-14.09-5.1-19.33.34,0,0-.02.02-.03.03" fill="#e8b936"/>
    <path d="m251.81,14.14c2.97-1.79,6.16-3.18,9.5-4.12l1.93-9.39,15.66-.26,2.3,9.29c3.37.84,6.62,2.12,9.65,3.81l7.99-5.22,11.43,11.01-4.96,8.25c1.78,2.96,3.16,6.13,4.12,9.45l9.39,1.98.26,15.66-9.34,2.3c-.8,3.36-2.07,6.59-3.76,9.6l5.22,8.04-11.06,11.38-8.19-5.22c-2.95,1.8-6.12,3.19-9.45,4.12l-1.98,9.39h-15.66l-2.3-9.29c-3.35-.85-6.58-2.13-9.6-3.81l-8.04,5.22-11.43-11.01,5.22-8.19c-1.79-2.97-3.18-6.16-4.12-9.5l-9.39-1.93-.31-15.66,9.34-2.3c.84-3.37,2.12-6.62,3.81-9.65l-5.22-7.99,11.01-11.43,7.99,5.48Zm8.45,20.88c-6.53,6.76-6.34,17.53.42,24.06,6.76,6.53,17.53,6.34,24.06-.42,6.53-6.76,6.34-17.53-.42-24.06-6.77-6.5-17.52-6.31-24.06.42" fill="#5b9cd5"/>
    <path d="m102.19,5.69c1.23-.77,2.57-1.35,3.97-1.72l.83-3.97h6.68l.94,3.91c1.42.34,2.79.87,4.07,1.57l3.39-2.19,4.8,4.64-2.09,3.44c.78,1.24,1.36,2.6,1.72,4.02l3.97.78v6.68l-3.91.99c-.36,1.42-.91,2.79-1.62,4.07l2.24,3.34-4.64,4.85-3.44-2.14c-1.25.77-2.6,1.37-4.02,1.77l-.83,3.91h-6.68l-.94-3.97c-1.43-.32-2.8-.85-4.07-1.57l-3.34,2.19-4.85-4.64,2.14-3.44c-.76-1.24-1.36-2.57-1.77-3.97l-3.91-.84v-6.68l3.91-.99c.37-1.4.91-2.75,1.62-4.02l-2.19-3.39,4.64-4.8,3.39,2.14Zm3.55,8.92c-2.79,2.8-2.78,7.32.01,10.11,2.8,2.79,7.32,2.78,10.11-.01,2.78-2.79,2.78-7.31,0-10.1-2.79-2.8-7.32-2.8-10.11-.01,0,0,0,0-.01.01" fill="#ad2447"/>
    <path d="m413.39,75.83c1.63-1.01,3.38-1.8,5.22-2.35l1.1-5.22h9.03l1.3,5.22c1.83.49,3.59,1.23,5.22,2.19l4.59-3.03,6.47,6.31-2.82,4.64c1.01,1.63,1.8,3.38,2.35,5.22l5.22,1.1v9.03l-5.22,1.3c-.5,1.82-1.22,3.57-2.14,5.22l2.97,4.54-6.26,6.52-4.7-2.82c-1.62,1.02-3.38,1.81-5.22,2.35l-1.15,5.22h-9.03l-1.3-5.22c-1.92-.48-3.76-1.22-5.48-2.19l-4.54,3.03-6.52-6.31,2.82-4.64c-.97-1.65-1.76-3.4-2.35-5.22l-5.22-1.1v-9.03l5.22-1.3c.48-1.83,1.2-3.58,2.14-5.22l-2.97-4.59,6.26-6.47,5.01,2.82Zm4.85,12.06c-3.48,4.08-2.99,10.21,1.09,13.68,3.72,3.18,9.23,3.08,12.85-.22,3.96-3.62,4.23-9.76.62-13.71-3.62-3.96-9.76-4.23-13.71-.62-.3.27-.58.56-.84.87" fill="#f4f4f5"/>
    <path d="m306.35,446.16h82.41c1.44.04,2.64-1.1,2.67-2.54,0-.11,0-.22-.01-.33l-4.07-58.35c-.11-1.42-1.29-2.51-2.71-2.5h-75.62c-1.46,0-2.66,1.15-2.71,2.61l-2.66,58.4c-.06,1.5,1.11,2.76,2.61,2.82.04,0,.07,0,.11,0" fill="#393838"/>
    <path d="m318.56,383.95v.26l.37.63,1.62,2.5c1.41,2.14,3.44,5.22,6.16,8.98,3.18,4.39,6.86,8.4,10.96,11.95,2.44,2.01,5.08,3.76,7.88,5.22,3.02,1.69,6.36,2.74,9.81,3.08,3.46.23,6.93-.36,10.12-1.72,2.96-1.25,5.74-2.9,8.25-4.91,4.18-3.48,7.53-7.85,9.81-12.79,1.53-3.3,2.52-6.82,2.92-10.44v-4.02h0c.02.26.02.52,0,.78.02.42.02.84,0,1.25v1.67c-1.18,9.01-5.78,17.23-12.84,22.96-2.46,2.01-5.2,3.64-8.14,4.85-3.13,1.32-6.53,1.89-9.92,1.67-3.39-.33-6.67-1.34-9.65-2.97-2.77-1.49-5.39-3.24-7.83-5.22-4-3.39-7.63-7.19-10.86-11.33-2.77-3.71-4.85-6.78-6.26-8.92l-1.67-2.45-.47-.63h0" fill="#4d5b65"/>
    <path d="m352.69,416.78c0,2.08,1.67,3.78,3.76,3.81,2.1,0,3.81-1.71,3.81-3.81-.03-2.08-1.73-3.76-3.81-3.76s-3.76,1.68-3.76,3.76" fill="#4d5b65"/>
    <path d="m330.56,370.59c1.69-1.37,3.78-2.16,5.95-2.24,5.42-.57,10.88.52,15.66,3.13,4.44,2.73,7.94,6.75,10.02,11.53l-2.92,3.13c-1.14-4.86-4.04-9.12-8.14-11.95-3.97-2.81-8.87-3.97-13.67-3.24-1.31.17-2.56.6-3.71,1.25-1.79,1.07-2.57,3.25-1.88,5.22.22,2.17,1.1,4.23,2.5,5.9h-4.85c-.68-2.13-1.05-4.34-1.1-6.58-.05-2.24.82-4.41,2.4-6" fill="#2e353a"/>
    <rect x="216.64" y="415.58" width="31.21" height="12.32" fill="#f9fafa"/>
    <rect x="215.33" y="413.44" width="98.06" height="2.56" fill="#8c223f"/>
    <rect x="215.8" y="427.32" width="97.65" height="2.56" fill="#8c223f"/>
    <polygon points="247.84 414.07 248 429.41 313.39 429.41 313.39 414.07 247.84 414.07" fill="#ad2447"/>
    <path d="m263.71,421.74c-.14,1.95-1.85,3.42-3.8,3.28-1.95-.14-3.42-1.85-3.28-3.8.14-1.87,1.71-3.31,3.58-3.29,2.02.08,3.58,1.79,3.5,3.8,0,0,0,0,0,0" fill="#2e353a"/>
    <path d="m260.21,426.12c-2.41.17-4.51-1.64-4.69-4.06-.17-2.42,1.64-4.51,4.06-4.69,2.41-.17,4.51,1.64,4.69,4.06,0,.1.01.2.01.3.06,2.32-1.75,4.27-4.07,4.38m0-7.67c-1.81-.17-3.41,1.15-3.59,2.96s1.15,3.41,2.96,3.59c1.81.17,3.41-1.15,3.59-2.96,0-.1.01-.2.01-.3.06-1.72-1.26-3.18-2.97-3.29" fill="#dedfde"/>
    <path d="m245.5,424.87s-6.42.31-14.35.31-14.35,0-14.35-.31,6.42,0,14.35,0h14.35" fill="#2e353a"/>
    <path d="m245.5,422.73h-28.7s6.42-.31,14.35-.31,14.35,0,14.35.31" fill="#2e353a"/>
    <path d="m245.5,420.59h-28.7s6.42-.31,14.35-.31,14.35,0,14.35.31" fill="#2e353a"/>
    <path d="m245.5,418.45h-28.7s6.42-.31,14.35-.31,14.35,0,14.35.31" fill="#2e353a"/>
    <rect x="276.65" y="417.35" width="29.49" height="8.19" fill="#fff"/>
    <path d="m281.25,424.71c-.3-1.07-.41-2.18-.31-3.29-.09-1.09.01-2.18.31-3.24.18,1.07.18,2.16,0,3.24.18,1.09.18,2.2,0,3.29" fill="#dedfde"/>
    <path d="m285.16,424.71c-.3-1.07-.41-2.18-.31-3.29-.09-1.09.01-2.18.31-3.24.18,1.07.18,2.16,0,3.24.18,1.09.18,2.2,0,3.29" fill="#dedfde"/>
    <path d="m289.02,424.71c-.18-1.09-.18-2.2,0-3.29-.18-1.07-.18-2.16,0-3.24.3,1.05.4,2.15.31,3.24.09,1.11-.01,2.22-.31,3.29" fill="#dedfde"/>
    <path d="m292.94,424.71c-.18-1.09-.18-2.2,0-3.29-.18-1.07-.18-2.16,0-3.24.3,1.05.4,2.15.31,3.24.09,1.11-.01,2.22-.31,3.29" fill="#dedfde"/>
    <path d="m296.85,424.71c-.3-1.07-.41-2.18-.31-3.29-.09-1.09.01-2.18.31-3.24.26,1.06.35,2.15.26,3.24.09,1.1,0,2.21-.26,3.29" fill="#dedfde"/>
    <path d="m300.71,424.71c-.18-1.09-.18-2.2,0-3.29-.18-1.07-.18-2.16,0-3.24.3,1.05.4,2.15.31,3.24.09,1.11-.01,2.22-.31,3.29" fill="#dedfde"/>
    <rect x="220.76" y="431.55" width="31.21" height="12.32" fill="#f9fafa"/>
    <rect x="219.45" y="429.46" width="98.06" height="2.56" fill="#528db6"/>
    <rect x="219.92" y="443.34" width="97.65" height="2.56" fill="#528db6"/>
    <polygon points="252.02 430.09 252.18 445.43 317.57 445.43 317.57 430.09 252.02 430.09" fill="#5b9cd5"/>
    <path d="m267.89,437.71c-.14,1.95-1.85,3.42-3.8,3.28-1.95-.14-3.42-1.85-3.28-3.8.14-1.85,1.67-3.28,3.53-3.29,2.03.08,3.61,1.78,3.55,3.81" fill="#2e353a"/>
    <path d="m264.6,442.09c-2.41.17-4.51-1.64-4.69-4.06-.17-2.42,1.64-4.51,4.06-4.69,2.41-.17,4.51,1.64,4.69,4.06,0,.1.01.2.01.3.09,2.33-1.73,4.3-4.07,4.38h0m0-7.62c-1.81-.17-3.41,1.15-3.59,2.96-.17,1.81,1.15,3.41,2.96,3.59,1.81.17,3.41-1.15,3.59-2.96.01-.12.02-.23.01-.35.09-1.7-1.22-3.15-2.92-3.23-.02,0-.04,0-.06,0" fill="#dedfde"/>
    <path d="m249.62,440.84s-6.42.31-14.3.31-14.35,0-14.35-.31,6.42,0,14.35,0h14.3" fill="#2e353a"/>
    <path d="m249.62,438.7s-6.42.31-14.3.31-14.35,0-14.35-.31,6.42,0,14.35,0h14.3" fill="#2e353a"/>
    <path d="m249.62,436.56s-6.42.31-14.3.31-14.35,0-14.35-.31,6.42,0,14.35,0h14.3" fill="#2e353a"/>
    <path d="m249.62,434.42s-6.42.31-14.3.31-14.35,0-14.35-.31,6.42,0,14.35,0h14.3" fill="#2e353a"/>
    <rect x="280.83" y="433.32" width="29.49" height="8.19" fill="#fff"/>
    <path d="m285.47,440.73c-.42-2.17-.42-4.4,0-6.58.35,2.18.35,4.4,0,6.58" fill="#dedfde"/>
    <path d="m289.28,440.73c-.35-2.18-.35-4.4,0-6.58.42,2.17.42,4.4,0,6.58" fill="#dedfde"/>
    <path d="m293.2,440.73c-.42-2.17-.42-4.4,0-6.58.35,2.18.35,4.4,0,6.58" fill="#dedfde"/>
    <path d="m297.11,440.73c-.42-2.17-.42-4.4,0-6.58.35,2.18.35,4.4,0,6.58" fill="#dedfde"/>
    <path d="m301.13,440.73c-.35-2.18-.35-4.4,0-6.58.42,2.17.42,4.4,0,6.58" fill="#dedfde"/>
    <path d="m304.89,440.73c-.42-2.17-.42-4.4,0-6.58.35,2.18.35,4.4,0,6.58" fill="#dedfde"/>
    <path d="m188.19,136.53l-8.09-1.62c-15.09,8.44-34.17,3.05-42.62-12.04-8.44-15.09-3.06-34.17,12.04-42.62,15.09-8.44,34.17-3.05,42.62,12.04,2.56,4.57,3.93,9.72,3.98,14.96.11,7.49-2.51,14.76-7.36,20.46h0l-.57,8.82Z" fill="#fff"/>
    <path d="m188.19,136.53v-2.3c0-.73,0-3.71.37-6.52h0c3.28-3.89,5.54-8.53,6.58-13.52,1.57-7.06.61-14.45-2.71-20.88-1.92-3.7-4.55-7-7.72-9.71-3.45-2.92-7.49-5.05-11.85-6.26-4.65-1.23-9.52-1.39-14.25-.47-4.97.96-9.62,3.15-13.52,6.37-1.94,1.53-3.69,3.28-5.22,5.22-.73,1.04-1.46,2.09-2.09,3.18l-.89,1.67-.42.84-.37.84c-1.87,4.49-2.68,9.35-2.35,14.2.28,4.56,1.58,9.01,3.81,12.99,2.05,3.68,4.82,6.91,8.14,9.5,2.98,2.36,6.38,4.13,10.02,5.22l2.5.68,2.56.42c1.57.21,3.16.3,4.75.26,5.09-.08,10.07-1.43,14.51-3.91h0l5.95,1.25,1.57.37h.57-.52l-1.57-.31-6.05-1.15h0c-4.45,2.53-9.45,3.92-14.56,4.07-1.61.15-3.24.15-4.85,0-.83,0-1.72,0-2.56-.42l-2.61-.63c-7.84-2.43-14.44-7.8-18.42-14.98-2.32-4.02-3.68-8.52-3.97-13.15-.29-4.94.55-9.89,2.45-14.46l.31-.89.47-.84c.26-.57.56-1.13.89-1.67.63-1.12,1.33-2.2,2.09-3.24,1.51-2.08,3.26-3.97,5.22-5.64,3.99-3.26,8.72-5.48,13.78-6.47,4.8-.9,9.74-.72,14.46.52,4.45,1.2,8.57,3.4,12.06,6.42,6.27,5.25,10.24,12.74,11.06,20.88.35,3.37.15,6.77-.57,10.07-1.1,5.01-3.41,9.67-6.73,13.57h0c0,2.87-.42,5.22-.52,6.63v1.67c-.01.17-.01.35,0,.52" fill="#2e353a"/>
    <polygon points="150.88 109.54 154.79 105.32 162.88 112.05 177.81 96.71 181.72 100.62 162.57 119.93 150.88 109.54" fill="#e8b936"/>
    <path d="m406.24,83.76h-25.57l-74.32,44.88c.31.42,9.08,6.78,20.61,15.03l-107.98,198.79-90.65-40.03-80.01,143.83h43.73l55.11-100.72,82.93,38.41,35.18,4.23,95.14-220.65,20.88,14.98h25.57s-7.46-62.63-7.46-63.04,6.58-35.8,6.58-35.8" fill="#d67160"/>
    <path d="m406.24,83.76h-25.57l-74.32,44.88c.31.42,9.08,6.78,20.61,15.03l-107.98,198.79-90.65-40.03-80.01,143.83h43.73l55.11-100.72,82.93,38.41,35.18,4.23,95.14-220.65,20.88,14.98h25.57s-7.46-62.63-7.46-63.04,6.58-35.8,6.58-35.8" fill="#8c223f"/>
    <polygon points="74.21 446.37 154.53 301.34 244.61 342.46 360.73 128.65 395.28 146.81 265.28 388.29 173.06 345.65 117.95 446.37 74.21 446.37" fill="#ad2447"/>
    <path d="m331.66,128.65c.83,1.25,75.47,53.96,75.47,53.96l-.89-98.85-74.58,44.88Z" fill="#ad2447"/>
    <path d="m351.6,144.04h-25.52s5.69-.26,12.79-.26,12.73,0,12.73.26" fill="#2e353a"/>
    <path d="m159.7,233.6s-1.51.68-1.77-1.41,4.07-6.37,5.22-7.72c1.48-1.17,3.47-1.45,5.22-.73,3.87.43,7.67,1.33,11.32,2.66,2.35,1.51,6,9.19,6.73,9.55s23.12,1.51,23.12,1.51l-.94,18.32c-8.88-1.55-17.61-3.86-26.09-6.89-4.33-2.71-3.76-3.81-5.22-6.31s-2.56-5.22-2.56-5.22l-2.04-.31-3.29,1.83s-.42,4.64-3.65,4.54l-1.62-.84s-1.04,1.2-2.24-.68-.99-2.3-.99-2.3c0,0-1.3,1.62-2.66-.37s1.36-5.58,1.36-5.58" fill="#9e7363"/>
    <path d="m183.81,241.37h-.73c-.92-.03-1.82-.3-2.61-.78-1.24-.71-2.22-1.78-2.82-3.08-.71-1.65-1.1-3.42-1.15-5.22h.37c-1.65.74-3.42,1.14-5.22,1.2-1.25.05-2.5-.1-3.71-.42-.62-.1-1.2-.37-1.67-.78-.27-.3-.27-.75,0-1.04.21-.24.48-.42.78-.52,2.04-.84,3.86-1.46,5.22-1.93,1.23-.39,2.49-.72,3.76-.99h1.41l-1.36.42-3.71,1.2c-1.51.52-3.34,1.15-5.22,1.98-.23.08-.44.2-.63.37-.07.15-.07.32,0,.47.42.34.93.56,1.46.63,1.17.26,2.36.38,3.55.37,1.66-.07,3.29-.46,4.8-1.15h.31v.37c-.03,1.79.32,3.58,1.04,5.22.52,1.24,1.41,2.28,2.56,2.97.72.51,1.57.8,2.45.84h.99" fill="#65463d"/>
    <path d="m172.48,228.8c-.65.37-1.4.51-2.14.42h-2.24c-.9,0-1.75.43-2.3,1.15-1.17,1.3-2.62,2.34-4.23,3.03-.63.33-1.32.52-2.04.57.61-.35,1.23-.67,1.88-.94,1.51-.75,2.88-1.78,4.02-3.03.33-.4.74-.72,1.2-.94.44-.22.92-.33,1.41-.31.78-.06,1.57-.06,2.35,0,.69.08,1.39.08,2.09,0" fill="#65463d"/>
    <path d="m167.89,233.7c-.58,1.53-1.58,2.86-2.87,3.86-1.16,1.13-2.63,1.9-4.23,2.19,1.35-.8,2.66-1.67,3.91-2.61,1.93-1.67,3.03-3.55,3.18-3.44" fill="#65463d"/>
    <path d="m168.67,236.52c-.09,1.31-.61,2.55-1.46,3.55-.73,1.11-1.76,1.98-2.97,2.5,0,0,1.3-1.1,2.56-2.82,1.25-1.72,1.72-3.29,1.88-3.24" fill="#65463d"/>
    <polygon points="236.21 197.9 216.22 233.96 185.17 233.44 182.82 252.07 214.86 259.95 228.06 245.44 236.21 197.9" fill="#dedfde"/>
    <path d="m218.67,240.12s-.37-1.51-1.04-3.18-1.57-2.87-1.46-2.97c1.69,1.59,2.6,3.84,2.5,6.16" fill="#2e353a"/>
    <path d="m243.72,134.02c-2.87.31-5.44-1.76-5.75-4.63-.26-2.37,1.12-4.61,3.35-5.45-1.59-1.68-2-4.16-1.04-6.26,1.07-2.07,3.32-3.26,5.64-2.97.14-2.18,1.38-4.15,3.29-5.22,1.98-1.1,4.39-1.1,6.37,0,2.54-2.2,6.27-2.35,8.98-.37,2.83-.53,5.56,1.34,6.09,4.17.31,1.64-.19,3.33-1.34,4.54" fill="#2e353a"/>
    <path d="m265.8,113.98h-1.2c-11.56.23-20.98,9.33-21.61,20.88-.68,10.7-1.25,22.55-1.04,28.23.29,6.88,5.45,12.56,12.26,13.52l-.73,14.25,1.41,10.86,27.35-12.32,1.57-51.72c.78-12.32-5.69-23.12-18.06-23.59" fill="#9e7363"/>
    <path d="m254.16,176.45c5.58-.06,11.02-1.75,15.66-4.85-2.83,5.91-9.17,9.29-15.66,8.35v-3.5Z" fill="#65463d"/>
    <path d="m246.91,146.86c0,.92.75,1.67,1.67,1.67.89.03,1.64-.67,1.67-1.56h0c0-.9-.72-1.64-1.62-1.67-.89-.06-1.66.62-1.72,1.51,0,.02,0,.04,0,.06" fill="#2e353a"/>
    <path d="m245.7,140.65s1.46-.73,3.29-.78,3.18.89,3.39.63,0-.47-.73-.89c-.81-.53-1.75-.8-2.71-.78-.94.02-1.85.33-2.61.89-.57.47-.73.89-.63.94" fill="#2e353a"/>
    <path d="m262.3,146.49c.03.91.76,1.64,1.67,1.67.89,0,1.62-.72,1.62-1.61,0-.89-.72-1.62-1.61-1.62h-.01c-.89-.06-1.66.62-1.72,1.51,0,.02,0,.04,0,.06" fill="#2e353a"/>
    <path d="m263.61,140.65s1.51-.73,3.34-.78,3.13.89,3.34.63,0-.47-.73-.89c-.79-.52-1.72-.79-2.66-.78-.95.05-1.87.35-2.66.89-.52.47-.73.84-.63.94" fill="#2e353a"/>
    <path d="m257.29,154.17c-.96-.3-1.97-.46-2.97-.47-.47,0-.94,0-.99-.47s0-.84,0-1.36l1.3-3.6c1.24-3.02,2.22-6.15,2.92-9.34-1.44,2.93-2.66,5.97-3.65,9.08-.45,1.25-.87,2.45-1.25,3.6-.22.59-.22,1.24,0,1.83.12.35.42.61.78.68.26.04.52.04.78,0,1.01.12,2.02.12,3.03,0" fill="#2e353a"/>
    <path d="m261.88,133.55c0,.42,1.83,0,3.76,0h3.71c.16,0,0-.68-.99-1.04-.9-.39-1.89-.57-2.87-.52-.98.05-1.94.35-2.77.89-.68.47-.94.89-.83,1.15" fill="#2e353a"/>
    <path d="m245.44,132.98c.42.42,1.93,0,3.71,0h3.71c.37,0,0-.63-.78-.99-.94-.47-1.98-.68-3.03-.63-1.04.03-2.04.34-2.92.89-.63.42-.83.89-.68,1.04" fill="#2e353a"/>
    <path d="m244.09,129.32s2.97-7.51,6.52-9.29c3.55-1.77,6.26,2.5,10.44,1.3,4.18-1.2,8.25-3.34,12.53,0s2.56,5.9,2.97,11.17c1.57,21.35,5.58,27.29,6.47,17.22,0-1.1,3.13-2.04,3.5-6.73.69-6.02.33-12.11-1.04-18-1.31-3.63-3.81-6.7-7.1-8.72-5.8-3.45-12.66-4.71-19.31-3.55-5.22.68-15.66,7.15-15.08,16.44" fill="#2e353a"/>
    <path d="m282.13,149.16c.03-1.79,1.49-3.22,3.28-3.19.05,0,.11,0,.16,0,2.19,0,4.7,1.36,4.64,5.95.22,3.37-2.34,6.27-5.7,6.49-.87.06-1.73-.07-2.54-.38v-8.87" fill="#9e7363"/>
    <path d="m283.8,155h.37c.33.14.71.14,1.04,0,1.08-.66,1.72-1.86,1.67-3.13.02-.7-.11-1.39-.37-2.04-.17-.5-.55-.9-1.04-1.1-.33-.09-.68.06-.83.37-.06.13-.06.28,0,.42v-.47c.02-.21.14-.4.31-.52.25-.11.53-.11.78,0,.68.13,1.23.6,1.46,1.25.32.7.48,1.47.47,2.24.06,1.49-.79,2.87-2.14,3.5-.4.19-.86.19-1.25,0-.26,0-.31-.42-.26-.42" fill="#65463d"/>
    <path d="m281.72,133.45c-.99.83-2.18,1.4-3.44,1.67-1.3.19-2.56-.58-2.97-1.83,0-.57,0-1.2-.31-1.67s-1.3-.31-1.98,0c-2.69-.16-4.99-1.97-5.79-4.54-.64.91-1.86,1.18-2.82.63-.75-.44-1.42-1-1.98-1.67-.65-.9-1.71-1.41-2.82-1.36-.55.21-1.13.35-1.72.42-1.1,0-1.62-1.3-1.83-2.35s-.31-2.3-1.25-2.87-1.93,0-2.87,0-2.24,0-2.5-.99c-.1-.53,0-1.07.31-1.51,1.32-2.05,3.87-2.91,6.16-2.09,1.02-3.78,4.92-6.03,8.7-5.01,1.85.5,3.41,1.72,4.35,3.39,2.88-2.74,7.44-2.62,10.18.26.59.62,1.07,1.35,1.4,2.14,2.76-.82,5.67.76,6.48,3.53.39,1.33.24,2.77-.43,3.99,1.55.71,2.61,2.17,2.82,3.86.1,1.55-1.08,2.89-2.63,2.99-.18.01-.37,0-.55-.02.67,1.37.23,3.02-1.04,3.86-1.33.72-2.99.37-3.91-.84" fill="#2e353a"/>
    <path d="m255.31,117.48h0c.01.14.01.28,0,.42.09.55.29,1.08.57,1.57.49.75,1.13,1.39,1.88,1.88.98.67,2.16.98,3.34.89h0c-.31.72-.31,1.53,0,2.24.37.72.85,1.39,1.41,1.98.29.32.6.62.94.89.39.26.84.42,1.3.47.97.12,1.93-.25,2.56-.99h0c.24,1.7,1.21,3.21,2.66,4.12.76.58,1.7.87,2.66.84.9-.07,1.78-.28,2.61-.63h0c.42.97,1.08,1.82,1.93,2.45.8.66,1.85.93,2.87.73,1.73-.4,3.05-1.8,3.34-3.55h0c.87.43,1.87.54,2.82.31.69-.14,1.34-.44,1.88-.89.36-.27.66-.61.89-.99v-.42c-.31.5-.7.94-1.15,1.3-.56.4-1.2.68-1.88.84-.91.19-1.85.04-2.66-.42h0c-.34,1.62-1.58,2.9-3.18,3.29-.93.21-1.9-.04-2.61-.68-.8-.59-1.43-1.38-1.83-2.3h0c-.79.34-1.64.53-2.5.57-.89.02-1.76-.24-2.5-.73-1.33-.93-2.24-2.36-2.5-3.97v-.37.31c-.58.65-1.43.98-2.3.89-.41-.06-.8-.2-1.15-.42-.3-.25-.58-.53-.83-.84-.55-.56-1.03-1.19-1.41-1.88-.28-.65-.28-1.39,0-2.04h0c-1.12.07-2.24-.22-3.18-.84-.75-.43-1.37-1.04-1.83-1.77-.4-.62-.68-1.31-.83-2.04" fill="#4d5b65"/>
    <path d="m257.81,160.38c0-.31,2.04,0,3.76-1.36s1.93-3.6,2.24-3.6,0,.57,0,1.46c-.18,1.19-.79,2.27-1.72,3.03-.86.74-2,1.1-3.13.99-.89,0-1.3-.37-1.25-.52" fill="#2e353a"/>
    <path d="m199.99,275.19l15.66-17.01,12.89-39.04c2.66-6.78,4.91-15.66,8.09-21.82,1.6-3.14,4.24-5.63,7.46-7.05l5.48-2.45,3.29-5.22c-1.88,11.85,14.72,13.26,32.3-1.41,0,0,5.85,3.91,14.04,10.75,3.88,2.74,6.77,6.66,8.25,11.17,2.45,8.92-8.14,35.33-19.68,60.23-3.44,7.41-19.94,40.76-19.94,40.76l-5.9,4.33s-52.19-15.66-57.04-24.53l-4.91-8.72Z" fill="#e8b936"/>
    <path d="m208.55,265.01l.47-.47,1.3-1.41,4.96-5.22h0c.94-2.97,2.09-6.58,3.39-10.44s2.66-8.4,4.02-13.05c2.66-9.08,5.22-17.38,7.46-23.17,1.1-2.87,2.14-5.22,2.92-6.78l.89-1.77.31-.63v.68c0,.68-.47,1.1-.83,1.83-.68,1.62-1.67,3.91-2.71,6.84-2.24,5.79-4.64,14.04-7.31,23.17-1.36,4.64-2.71,9.08-4.07,12.99l-3.55,10.44h0l-5.22,5.22-1.41,1.3c-.31.31-.52.47-.52.42" fill="#2e353a"/>
    <polygon points="256.61 200.04 238.5 274.25 219.71 283.59 219.71 265.43 252.28 198.42 256.61 200.04" fill="#ad2447"/>
    <g fill="none" opacity=".3">
      <g clip-path="url(#clippath)" fill="none">
        <path d="m221.96,267.57c5.07,2.1,9.87,4.8,14.3,8.04,4.43,3.24,9.15,6.07,14.09,8.45,4.99,2.37,10.58,3.15,16.02,2.24,5.5-1,10.1-4.77,12.16-9.97l-56.57-8.77Z"/>
      </g>
    </g>
    <polygon points="249.41 187.62 254 180.52 255.83 190.23 260.42 185.01 283.33 174.31 287.3 182.82 262.04 197.74 254.99 197.22 249.88 191.17 249.41 187.62" fill="#e8b936"/>
    <path d="m249.36,187.62c.17.47.29.96.37,1.46,0,1.1.47,2.35.78,3.71h-.47c.37-.73.78-1.46,1.25-2.3s1.3-2.35,1.93-3.39v-.42.47c.37,1.15.57,2.09.78,2.77.05.36.05.73,0,1.1-.19-.31-.35-.65-.47-.99,0-.68-.52-1.62-.99-2.71h.42l-1.83,3.44-1.3,2.3-.31.57v-.68c-.4-1.71-.61-3.46-.63-5.22" fill="#2e353a"/>
    <path d="m257.08,191.17l-2.92-.37c-.78.89-2.71,2.71-3.5,3.6h0c.31,1.93.68,3.86,1.04,5.85,1.63-.11,3.26.01,4.85.37.94-1.72,1.67-2.97,2.66-4.7l-2.14-4.75Z" fill="#8c223f"/>
    <path d="m262.04,300.61c-.83-.69-1.62-1.44-2.35-2.24-1.46-1.41-3.5-3.34-5.9-5.22-2.03-1.64-4.15-3.16-6.37-4.54-.95-.54-1.86-1.15-2.71-1.83l.78.37c.74.34,1.45.72,2.14,1.15,4.56,2.67,8.71,5.99,12.32,9.86l1.57,1.77.52.73" fill="#2e353a"/>
    <polygon points="257.34 191.79 260.53 190.18 261.62 195.81 258.96 196.07 257.34 191.79" fill="#ad2447"/>
    <g fill="none" opacity=".3">
      <g clip-path="url(#clippath-1)" fill="none">
        <polygon points="260.11 187.88 260.11 200.72 283.91 184.96 261.78 197.9 260.11 187.88"/>
      </g>
    </g>
    <path d="m287.25,182.82l-1.36,1.04-4.02,2.56c-3.39,2.09-8.25,4.64-13.52,7.67-2.24,1.3-4.33,2.56-6.21,3.86h-.31v-.37c-.68-3.91-1.3-7.31-1.83-9.86h.31l-2.56,2.35-.94.78.83-.94,2.4-2.45h0v.31c.52,2.56,1.2,5.9,2.04,9.81h-.42c1.95-1.29,4.04-2.59,6.26-3.91,5.22-3.03,10.44-5.53,13.62-7.51l4.07-2.4c.45-.35.94-.65,1.46-.89" fill="#2e353a"/>
    <polygon points="254.21 191.9 252.85 188.61 250.66 192.68 251.6 194.14 254.21 191.9" fill="#ad2447"/>
    <path d="m257.87,191.43s-1.51,1.93-3.24,4.38-2.92,4.59-3.03,4.54c.62-1.72,1.5-3.34,2.61-4.8.97-1.57,2.21-2.97,3.65-4.12" fill="#2e353a"/>
    <path d="m256.25,200.82c-.83.13-1.68.13-2.5,0-.83-.05-1.64-.24-2.4-.57.82-.2,1.68-.2,2.5,0,.85.08,1.67.35,2.4.78" fill="#2e353a"/>
    <path d="m136.11,246.96h0l-15.08-42.59c-.28-.88.21-1.82,1.09-2.1.05-.02.11-.03.17-.04l34.81-9.08c.87-.18,1.74.31,2.04,1.15l15.66,48.01,49.16,32.3-2.35,2.4-12.58-3.08-72.91-26.98Z" fill="#4d5b65"/>
    <path d="m221.75,277.02h0l-.73-.47-2.71-1.77-9.97-6.63-32.83-22.08-2.61-1.77h0c-4.59-13.99-8.77-26.51-11.74-35.54l-3.5-10.44c-.42-1.25-.68-2.19-.94-2.92.01-.24.01-.49,0-.73h0v.78l1.04,2.87,3.6,10.44c3.08,9.08,7.25,21.55,11.95,35.54h0l2.61,1.77,32.72,22.18,9.86,6.78,2.66,1.88.68.47h0" fill="#2e353a"/>
    <path d="m142.11,246.07s6.84-.57,15.29-.99c8.45-.42,15.34-.63,15.34-.47s-6.84.57-15.29.99-15.34.63-15.34.47" fill="#2e353a"/>
    <path d="m147.69,221.75c.57,1.93,0,3.76-.78,4.07s-2.35-.99-2.97-2.92,0-3.76.78-4.07,2.35.99,2.97,2.92" fill="#dedfde"/>
    <path d="m190.59,236.94s-1.3.63-1.51-1.46,4.23-4.54,5.9-5.58c2.27-.63,4.67-.63,6.94,0,3.66.85,7.02,2.65,9.76,5.22,1.83,2.14,3.03,7.67,3.71,8.19s22.91,9.29,22.91,9.29l-5.22,17.64c-8.36-3.53-16.41-7.76-24.06-12.63-2.18-1.8-3.44-4.48-3.44-7.31l-1.3-5.69-1.93-.78-3.6,1.04c-.33.89-.81,1.72-1.41,2.45-1.07,1.17-2.89,1.24-4.06.17-.06-.05-.12-.11-.17-.17-1.15.34-2.36-.31-2.71-1.46-.18-.7-.18-1.44,0-2.14,0,0-1.67.37-1.67-1.72.19-1.7.82-3.32,1.83-4.7" fill="#9e7363"/>
    <path d="m201.97,239.23c-.62.16-1.24.26-1.88.31-1.49.32-2.88,1.02-4.02,2.04-1.15.99-2.02,2.27-2.5,3.71-.42,1.15-.47,1.88-.52,1.88s0-.78,0-1.98c.44-1.55,1.31-2.94,2.5-4.02,1.22-1.07,2.73-1.75,4.33-1.98.63-.15,1.3-.15,1.93,0" fill="#65463d"/>
    <path d="m200.51,235.48h-2.04c-1.59.4-3.03,1.23-4.18,2.4-1.13,1.19-2.13,2.51-2.97,3.91-.35.61-.73,1.21-1.15,1.77,0,0,0-.78.83-1.93.73-1.53,1.72-2.93,2.92-4.12,1.19-1.27,2.77-2.11,4.49-2.4.68-.21,1.41-.21,2.09,0" fill="#65463d"/>
    <path d="m200.2,231.35h-1.77c-1.37.31-2.67.9-3.81,1.72-1.15.89-2.22,1.88-3.18,2.97-.73.78-1.2,1.3-1.25,1.25.25-.55.58-1.07.99-1.51.89-1.18,1.95-2.24,3.13-3.13,1.2-.89,2.6-1.46,4.07-1.67.6-.18,1.23-.18,1.83,0" fill="#65463d"/>
    <path d="m295.18,191.32c6.31,1.66,10.93,7.07,11.59,13.57,1.83,9.76-20.56,55.84-24.69,65.91-3.26,7.99-11.16,13.1-19.78,12.79-5.64,0-45.25-18.74-45.25-18.74l5.79-19.83,35.23,10.44,13.93-39.25" fill="#e8b936"/>
    <path d="m272.01,215.96c.01.24.01.49,0,.73l-.73,2.04c-.63,1.77-1.51,4.44-2.71,7.83l-10.12,28.7h0l-35.23-10.44h.31c-1.88,6.42-3.81,13.15-5.79,20.14v-.31c9.24,4.28,19.15,8.77,29.43,13.15,4.23,1.72,8.35,3.44,12.58,4.8l1.57.42,1.57.31c1.08.08,2.16.08,3.24,0,2.11-.28,4.16-.86,6.11-1.72,3.83-1.71,7-4.63,9.03-8.3.94-1.77,1.67-3.71,2.5-5.53l2.45-5.22c6.52-14.35,12.26-27.29,16.44-38.46,1.69-5.08,2.93-10.3,3.71-15.61.16-1.13.16-2.27,0-3.39-.2-1.02-.46-2.03-.78-3.03-.53-1.85-1.34-3.61-2.4-5.22-1.45-2.11-3.45-3.77-5.79-4.8-.6-.29-1.23-.52-1.88-.68h-.63.68l1.88.63c2.38,1,4.43,2.67,5.9,4.8,1.1,1.59,1.93,3.36,2.45,5.22.36,1,.64,2.03.83,3.08.13,1.14.13,2.3,0,3.44-.99,5.35-2.49,10.59-4.49,15.66-4.07,11.22-9.81,24.16-16.28,38.52l-2.45,5.22c-.83,1.83-1.57,3.76-2.56,5.58-2.07,3.76-5.32,6.75-9.24,8.51-1.98.92-4.1,1.51-6.26,1.77-1.09.08-2.19.08-3.29,0l-1.72-.31-1.57-.47c-4.28-1.36-8.4-3.08-12.63-4.8-10.44-4.38-20.2-8.87-29.43-13.15h0c2.04-6.94,3.97-13.67,5.85-20.09h0l35.23,10.44h0c4.33-12.11,7.88-21.92,10.44-28.7,1.25-3.34,2.19-6,2.82-7.78.37-.89.57-1.57.78-2.04v-.68" fill="#2e353a"/>
    <path d="m263.66,269.97s-.68-3.5-2.24-7.57-3.5-7.1-3.34-7.2c.51.6.97,1.24,1.36,1.93.98,1.66,1.8,3.41,2.45,5.22.66,1.69,1.19,3.44,1.57,5.22.08.78.08,1.57,0,2.35" fill="#2e353a"/>
    <path d="m292.73,191.38s-1.3.52-3.29,1.57c-1.16.57-2.28,1.23-3.34,1.98-1.3.93-2.54,1.94-3.71,3.03-1.12,1.13-2.16,2.34-3.13,3.6-.75,1.07-1.43,2.19-2.04,3.34-1.1,1.93-1.51,3.29-1.62,3.24s0-.37,0-.94c.26-.85.59-1.67.99-2.45,1.32-2.66,3.09-5.08,5.22-7.15,1.18-1.14,2.45-2.17,3.81-3.08,1.1-.72,2.26-1.36,3.44-1.93.81-.38,1.65-.7,2.5-.94h.94" fill="#2e353a"/>
    <path d="m73.12,335.99l-19.05-23.8s73.59-60.64,80.58-64.97c7.72-5,17.19-6.53,26.09-4.23,10.12,3.44,27.29,15.29,33.61,19.15s61.43,37.94,67.38,46.29c0,0-12,21.66-19.83,25.31-6.16,2.82-23.85-1.41-34.24-7.72-10.39-6.31-57.83-46.97-57.83-46.97l-76.72,56.94Z" fill="#393838"/>
    <path d="m80.21,363.86l25.68,18.42,49.47-80.58,49.94,22.75-33.61-56.1s-27.09.31-31.31,0c-5.48-.63-15.66,7.99-20.88,18.53-4.75,9.13-39.3,77.14-39.3,77.14" fill="#393838"/>
    <path d="m189.13,318.09s-11.38-11.43-25.21-25.73-24.89-26.09-24.79-26.09,11.38,11.38,25.21,25.68c13.83,14.3,24.89,26.09,24.79,26.09" fill="#4d5b65"/>
    <g fill="none" opacity=".3">
      <g clip-path="url(#clippath-2)" fill="none">
        <path d="m94.62,320.02s22.13-41.39,32.57-44.1c-8.03,10.8-14.77,22.5-20.09,34.86l-12.47,9.24Z"/>
      </g>
    </g>
    <path d="m143.83,271.12c-.93-.3-1.9-.49-2.87-.57-2.69-.15-5.38.42-7.78,1.67-3.51,1.91-6.52,4.63-8.77,7.93-2.86,3.99-5.49,8.13-7.88,12.42-5.22,9.19-8.87,17.85-11.95,23.95-1.51,3.08-2.82,5.53-3.76,7.25l-1.04,1.93-.42.63.31-.68.99-1.98c.83-1.72,2.09-4.18,3.55-7.31,3.03-6.16,6.84-14.82,11.9-24.01,2.37-4.31,5.01-8.48,7.88-12.47,2.31-3.36,5.41-6.1,9.03-7.99,2.45-1.24,5.19-1.78,7.93-1.57.99.1,1.96.36,2.87.78" fill="#4d5b65"/>
    <path d="m92.79,348.88l-14.04,26.09s-31.31-3.71-34.18.99l50.99,26.09,21.19-40.92-23.95-12.26Z" fill="#e8b936"/>
    <path d="m95.66,380.72c2.04,1.88-.73,5.22-2.87,3.34-.88-.84-.91-2.23-.08-3.11.84-.88,2.23-.91,3.11-.08" fill="#dedfde"/>
    <path d="m95.56,401.91l1.98-4.23-49.63-23.43s-2.77,0-3.34,1.57l50.99,26.09Z" fill="#4d5b65"/>
    <path d="m78.02,374.14s1.1.99,1.93,2.4.89,2.82,1.2,2.82c1.41-.84-1.67-6.05-3.13-5.22" fill="#fff"/>
    <path d="m71.5,373.62s.68,1.15.99,2.66,0,2.71,0,2.82c1.62-.31.37-5.9-1.25-5.22" fill="#fff"/>
    <path d="m65.24,378.47c1.41,0,1.62-5.22,0-5.22v5.22" fill="#fff"/>
    <path d="m81.57,368.35s5.22,2.87,5.22,3.03c.78-1.2-4.49-4.28-5.22-3.03" fill="#fff"/>
    <path d="m73.69,302.43l-24.16,17.01s-26.46-17.27-31.05-14.25l34.13,45.98,36.17-28.49-15.08-20.25Z" fill="#e8b936"/>
    <path d="m62.1,332.39c.48,1.12-.05,2.42-1.17,2.9-1.12.48-2.42-.05-2.9-1.17h0c-1.15-2.87,3.34-4.44,4.12-1.51" fill="#dedfde"/>
    <path d="m52.61,351.39l3.65-2.92-34.13-43s-2.4-1.36-3.65,0l34.13,45.93Z" fill="#4d5b65"/>
    <path d="m49.21,318.72s.52,1.36.63,3.03-.42,2.92,0,3.08c1.67,0,1.2-6.21-.47-6.11" fill="#fff"/>
    <g fill="none" opacity=".3">
      <g clip-path="url(#clippath-3)" fill="none">
        <path d="m185.37,313.92s-28.13-21.4-34.86-29.7c-4-4.92-7.4-10.3-10.12-16.02l44.99,45.72Z"/>
      </g>
    </g>
  </g>
</svg>