<svg width="100" height="100" viewBox="0 0 100 100" fill="none" xmlns="http://www.w3.org/2000/svg">
<g clip-path="url(#clip0_48_1783)">
<path d="M97.1934 16.2939C97.1934 12.5184 96.5495 8.81309 95.2792 5.28047C94.8362 4.04922 93.4714 3.37402 92.2368 3.77715C90.4827 4.34961 88.2761 3.3166 85.9405 2.22285C83.7159 1.18086 81.194 0 78.539 0C75.8839 0 73.3618 1.18086 71.137 2.22266C68.8017 3.31621 66.5958 4.34922 64.8407 3.77695C63.6058 3.37461 62.2409 4.04922 61.7985 5.28066C60.5284 8.8127 59.8843 12.5182 59.8843 16.2939C59.8843 16.8457 59.9028 17.3916 59.9306 17.934C55.2005 16.0072 50.0315 14.9414 44.6175 14.9414C22.163 14.9414 3.89482 33.2096 3.89482 55.6641C3.89482 60.7984 4.8542 65.7115 6.59639 70.2397L3.64854 73.1875C2.52861 74.3076 2.52861 76.1303 3.64854 77.2506L25.5565 99.1584C26.0991 99.7012 26.8208 100 27.5882 100C28.3556 100 29.077 99.7012 29.6198 99.1584L33.8419 94.9363C37.2755 95.8801 40.8882 96.3867 44.6173 96.3867C48.3464 96.3867 51.9591 95.8801 55.3927 94.9363L59.6147 99.1582C60.1573 99.701 60.879 99.9998 61.6464 99.9998C62.4138 99.9998 63.1352 99.701 63.678 99.1582L72.0679 90.7684C72.6399 90.1963 72.6399 89.2687 72.0679 88.6969C71.4956 88.1248 70.5683 88.1248 69.9962 88.6969L61.6464 97.0467L54.006 89.4063L75.8341 67.5783L83.4743 75.2187L74.8298 83.8631C74.2577 84.4352 74.2577 85.3627 74.8298 85.9346C75.402 86.5066 76.3294 86.5066 76.9015 85.9346L85.5858 77.2502C86.1284 76.7074 86.4274 75.9859 86.4274 75.2186C86.4274 74.451 86.1286 73.7295 85.5858 73.1869L82.6382 70.2393C84.3804 65.7111 85.3397 60.798 85.3397 55.6637C85.3397 50.7215 84.4501 45.9846 82.83 41.5984C92.1239 35.6758 97.1934 26.8072 97.1934 16.2939ZM27.5884 97.0469L5.76025 75.2189L13.4005 67.5787L35.2286 89.4066L27.5884 97.0469ZM42.6847 39.9936H45.5759L48.3048 42.7225C48.8411 43.259 49.1274 43.9723 49.1106 44.7311C49.094 45.4891 48.7753 46.19 48.2134 46.7045C47.1435 47.6836 45.3954 47.6025 44.3167 46.5234L34.6335 36.8402C33.5599 35.7664 33.5599 34.0195 34.6333 32.9457C35.0374 32.5418 35.5368 32.2922 36.0595 32.193C36.0558 32.2619 36.0489 32.3301 36.0489 32.3998V33.3578C36.0489 37.0168 39.0257 39.9936 42.6847 39.9936ZM38.9786 33.3578V32.3998C38.9786 31.9348 39.3571 31.5564 39.822 31.5564H47.3546C48.338 31.5564 49.2249 32.0785 49.7132 32.8895L45.5384 37.0643H42.6847C40.6411 37.0639 38.9786 35.4014 38.9786 33.3578ZM43.4438 49.7938C43.9696 50.3195 44.256 51.0187 44.2503 51.7625C44.2444 52.5062 43.947 53.201 43.413 53.7186C42.3395 54.7588 40.6062 54.7453 39.5495 53.6883L28.6675 42.8062H28.6673C28.1472 42.2861 27.8606 41.5945 27.8606 40.859C27.8606 40.1234 28.1472 39.4318 28.6675 38.9117C29.1874 38.3916 29.879 38.1053 30.6147 38.1053C31.3503 38.1053 32.0419 38.3916 32.5618 38.9117L43.4438 49.7938ZM35.53 53.8121C36.056 54.3381 36.3423 55.0373 36.3364 55.7811C36.3308 56.5248 36.0333 57.2193 35.4991 57.7371C34.4257 58.7775 32.6925 58.7637 31.6356 57.7068L24.5272 50.5984L22.7013 48.7725C22.1812 48.2523 21.8948 47.5607 21.8948 46.8252C21.8948 46.0896 22.1812 45.398 22.7013 44.8779C23.2382 44.341 23.9435 44.0727 24.6487 44.0727C25.3536 44.0727 26.0587 44.3408 26.5954 44.8773L26.596 44.8779L35.53 53.8121ZM22.4536 52.668L27.2144 57.4287C27.7395 57.9545 28.0257 58.6533 28.0198 59.3963C28.014 60.14 27.7165 60.8348 27.1825 61.3523C26.1089 62.3926 24.3759 62.3791 23.319 61.3221L18.561 56.5641C17.4874 55.4902 17.4874 53.7434 18.5608 52.6695C19.0978 52.1326 19.803 51.8643 20.5083 51.8643C21.2126 51.8647 21.9169 52.1324 22.4536 52.668ZM25.2671 65.0484C26.6958 65.0484 28.1255 64.5186 29.2216 63.4562C30.0081 62.6939 30.5442 61.7451 30.7923 60.7066C31.654 61.1895 32.6185 61.4328 33.5837 61.4328C35.0124 61.4328 36.4419 60.9029 37.538 59.8406C38.3696 59.0348 38.9228 58.0207 39.1495 56.9123C39.8925 57.2463 40.6946 57.4145 41.4974 57.4145C42.9261 57.4145 44.3558 56.8846 45.4519 55.8223C46.5542 54.7539 47.1679 53.3203 47.1798 51.7853C47.1837 51.2771 47.1202 50.7793 46.9958 50.301C48.1536 50.1795 49.2759 49.7037 50.1915 48.8654C51.3487 47.8061 52.005 46.3607 52.0396 44.7959C52.0739 43.2303 51.4831 41.7582 50.3761 40.6512L48.2353 38.5104L52.9112 33.8344C53.9854 32.7609 55.7323 32.7607 56.8058 33.8344C57.8782 34.9068 57.8794 36.6512 56.8097 37.7252C56.8085 37.7264 56.8073 37.7275 56.806 37.7289C56.2339 38.301 56.2339 39.2285 56.8061 39.8004C57.378 40.3725 58.3056 40.3723 58.8776 39.8004C59.9511 38.7268 61.6983 38.7268 62.7718 39.8004C63.8442 40.8729 63.8454 42.6172 62.7755 43.6912C62.7743 43.6924 62.7731 43.6936 62.772 43.6949H62.7718C62.1997 44.267 62.1997 45.1945 62.7718 45.7664C63.3438 46.3385 64.2714 46.3385 64.8433 45.7664C65.3636 45.2461 66.055 44.9598 66.7907 44.9598C67.5263 44.9598 68.2179 45.2461 68.7378 45.7662C69.8116 46.84 69.8116 48.5871 68.7378 49.6607C68.1657 50.2328 68.1657 51.1603 68.7378 51.7322C69.3099 52.3043 70.2374 52.3043 70.8093 51.7322C71.3421 51.1996 72.0448 50.9125 72.8032 50.9262C73.5558 50.9387 74.2544 51.2494 74.7702 51.801C75.7722 52.8719 75.7073 54.6232 74.6257 55.7049L64.1155 66.215C63.5434 66.7871 63.5434 67.7147 64.1155 68.2865C64.6878 68.8586 65.6151 68.8586 66.1872 68.2865L68.7511 65.7236L71.1485 68.1211L55.603 83.6666L47.196 75.2596C48.3917 74.8408 49.6647 74.6398 50.9497 74.6877L53.7374 74.7906C56.1931 74.883 58.6163 74.2844 60.7522 73.0639C61.4548 72.6625 61.6989 71.7676 61.2974 71.0652C60.896 70.3627 60.0009 70.1188 59.2989 70.5199C57.638 71.4689 55.7503 71.9338 53.8458 71.8627L51.0581 71.7598C47.4142 71.623 43.8446 73.0266 41.2661 75.6051L33.4185 83.4527L18.3554 68.3898L22.4421 64.3031C23.3122 64.799 24.2892 65.0484 25.2671 65.0484ZM44.6175 93.457C41.7456 93.457 38.9499 93.1287 36.2601 92.5184L37.3403 91.4381C37.8829 90.8955 38.1819 90.1738 38.1819 89.4064C38.1819 88.6389 37.8831 87.9174 37.3403 87.3748L35.4901 85.5246L43.338 77.6768C43.6966 77.318 44.081 76.99 44.4851 76.6914L53.5315 85.7379L51.8946 87.3748C50.7749 88.4949 50.7749 90.3176 51.8948 91.4379L52.9751 92.5182C50.2851 93.1287 47.4894 93.457 44.6175 93.457ZM82.4104 55.6641C82.4104 59.966 81.6866 64.1018 80.3563 67.9576L77.8659 65.4672C77.3233 64.9244 76.6017 64.6256 75.8343 64.6256C75.0669 64.6256 74.3452 64.9244 73.8026 65.4672L73.2202 66.0496L70.8227 63.6521L76.6981 57.7768C78.8843 55.5904 78.9798 52.0119 76.9106 49.8C75.8476 48.6633 74.4063 48.023 72.8528 47.9971C72.7231 47.9947 72.5936 47.9971 72.4649 48.0035C72.5433 46.4531 71.9917 44.8764 70.8102 43.6947C69.7368 42.6213 68.3095 42.0301 66.7915 42.0301C66.6935 42.0301 66.5958 42.0326 66.4987 42.0375C66.577 40.4871 66.0257 38.9102 64.844 37.7287C63.6616 36.5463 62.085 35.9957 60.5325 36.0742C60.6118 34.5229 60.0602 32.9449 58.8778 31.7627C56.9915 29.8764 54.0987 29.5969 51.9126 30.9223C50.8638 29.5129 49.1927 28.6268 47.355 28.6268H39.8224C39.014 28.6268 38.2659 28.8846 37.6511 29.3191C35.8634 28.9781 33.9435 29.493 32.562 30.874C31.3804 32.0557 30.8294 33.6324 30.9079 35.183C30.8106 35.1781 30.713 35.1754 30.6149 35.1754C29.0968 35.1754 27.6694 35.7666 26.5962 36.84C25.5226 37.9135 24.9313 39.3408 24.9313 40.859C24.9313 40.957 24.9341 41.0547 24.939 41.152C23.3886 41.0734 21.8118 41.6246 20.6302 42.8062C19.5565 43.8797 18.9655 45.307 18.9655 46.8252C18.9655 47.5996 19.1202 48.35 19.4134 49.0422C18.3415 49.2512 17.3185 49.7697 16.4897 50.5982C14.2739 52.8143 14.2739 56.4199 16.4897 58.6359L20.2284 62.3746L16.2843 66.3188L15.4327 65.4672C14.8901 64.9244 14.1685 64.6256 13.4011 64.6256C12.6337 64.6256 11.9122 64.9244 11.3696 65.4672L8.8792 67.9576C7.54912 64.1018 6.82529 59.966 6.82529 55.6641C6.82529 34.825 23.7792 17.8711 44.6183 17.8711C50.2048 17.8711 55.5099 19.0936 60.286 21.2789C61.8224 30.6887 67.7694 38.4389 77.4212 43.4232C77.7714 43.6041 78.1556 43.6947 78.5397 43.6947C78.9237 43.6947 79.3079 43.6043 79.6577 43.4234C79.8618 43.318 80.0606 43.2088 80.2612 43.101C81.6509 47.0334 82.4104 51.2613 82.4104 55.6641ZM78.539 40.7023C73.6913 38.1596 69.8772 34.8813 67.1999 30.9551C64.2895 26.6867 62.8138 21.7541 62.8138 16.2939C62.8138 13.0082 63.3491 9.78203 64.4061 6.69668C67.1022 7.34707 69.7827 6.09199 72.3792 4.87598C74.4227 3.91914 76.5356 2.92969 78.539 2.92969C80.5421 2.92969 82.655 3.91914 84.6983 4.87598C87.295 6.09219 89.9757 7.34727 92.6716 6.69668C93.7284 9.78184 94.2638 13.0084 94.2638 16.2939C94.2638 21.7541 92.788 26.6867 89.8776 30.9551C87.2005 34.8811 83.3864 38.1596 78.539 40.7023Z" fill="#6610F2"/>
<path d="M88.6475 18.195C89.4195 17.9534 89.8494 17.1315 89.6078 16.3595C88.0859 11.497 83.6377 8.22998 78.5389 8.22998C72.1441 8.22998 66.9414 13.4325 66.9414 19.8272C66.9414 26.222 72.1441 31.4245 78.5389 31.4245C83.2836 31.4245 87.5025 28.5823 89.2869 24.1835C89.591 23.4339 89.2299 22.5796 88.4801 22.2755C87.7301 21.971 86.876 22.3325 86.5719 23.0821C85.2381 26.37 82.0848 28.4946 78.5387 28.4946C73.7592 28.4946 69.8709 24.6063 69.8709 19.8271C69.8709 15.0478 73.7592 11.1595 78.5387 11.1595C82.3498 11.1595 85.6744 13.6009 86.8117 17.2345C87.0535 18.0067 87.8762 18.4366 88.6475 18.195Z" fill="#6610F2"/>
<path d="M82.3769 16.2655L77.8535 20.7891L74.7 17.6356C74.1277 17.0635 73.2003 17.0635 72.6283 17.6356C72.0562 18.2077 72.0562 19.1352 72.6283 19.7071L76.8175 23.8963C77.1037 24.1823 77.4787 24.3254 77.8535 24.3254C78.2283 24.3254 78.6033 24.1825 78.8894 23.8963L84.4488 18.337C85.0208 17.7649 85.0208 16.8374 84.4488 16.2655C83.8765 15.6934 82.9492 15.6934 82.3769 16.2655Z" fill="#6610F2"/>
</g>
<defs>
<clipPath id="clip0_48_1783">
<rect width="100" height="100" fill="white"/>
</clipPath>
</defs>
</svg>
