<svg width="100" height="100" viewBox="0 0 100 100" fill="none" xmlns="http://www.w3.org/2000/svg">
<path d="M87.3799 28.8604L73.7154 18.3012C72.808 17.5996 71.6084 17.4762 70.5852 17.9789C69.5525 18.4861 68.9115 19.5141 68.9121 20.6605V25.3727C64.3125 25.9795 59.8865 27.7188 56.09 30.3939V19.8221H60.5588C61.7057 19.8221 62.7332 19.1809 63.2402 18.1484C63.7424 17.1256 63.6187 15.9264 62.9178 15.0189L52.3582 1.3541C51.7893 0.617773 50.9297 0.195312 49.9996 0.195312C49.0697 0.195312 48.21 0.617578 47.641 1.35391L37.0818 15.0186C36.3803 15.9262 36.2568 17.1258 36.7598 18.149C37.267 19.1811 38.2937 19.8217 39.4395 19.8217H39.4414H43.9096V30.3936C40.1131 27.7184 35.6871 25.9791 31.0875 25.3723V20.6611C31.0883 19.5139 30.4475 18.4859 29.415 17.9787C28.3916 17.4758 27.1922 17.599 26.2844 18.3008L12.6195 28.8602C11.8832 29.4293 11.4609 30.2889 11.4609 31.2187C11.4609 32.1484 11.8832 33.008 12.6197 33.5771L26.2846 44.1363C27.192 44.8377 28.3914 44.9613 29.4145 44.4586C30.4469 43.9516 31.0879 42.924 31.0875 41.7773V37.734C34.7818 38.5873 38.0635 40.6902 40.4125 43.7104C36.4395 46.6535 33.858 51.3738 33.858 56.6869C33.858 62.7477 37.2174 68.0363 42.1701 70.7959C30.2287 74.2074 21.4619 85.2197 21.4619 98.2414C21.4619 99.1043 22.1615 99.8039 23.0244 99.8039H76.9752C77.8381 99.8039 78.5377 99.1043 78.5377 98.2414C78.5377 85.2197 69.7709 74.2074 57.8297 70.7959C62.7824 68.0363 66.1418 62.7477 66.1418 56.6869C66.1418 51.3738 63.5605 46.6533 59.5871 43.7102C61.9363 40.6898 65.218 38.5871 68.9121 37.7338V41.7773C68.9117 42.9244 69.5527 43.952 70.5852 44.459C71.6078 44.9613 72.8076 44.8381 73.7152 44.1367L87.3799 33.5775C88.1164 33.0084 88.5387 32.149 88.5387 31.2191C88.5387 30.2893 88.1164 29.4295 87.3799 28.8604ZM53.55 73.0779L49.9998 77.4045L46.4494 73.0779C47.61 72.915 48.7949 72.8293 49.9998 72.8293C51.2047 72.8293 52.3895 72.915 53.55 73.0779ZM60.7459 75.2158L58.9103 84.051L52.291 79.5387L56.9924 73.8092C58.2885 74.1809 59.5428 74.6522 60.7459 75.2158ZM43.0068 73.8094L47.7084 79.5389L41.0889 84.0512L39.2533 75.216C40.4564 74.6521 41.7107 74.1809 43.0068 73.8094ZM75.365 96.6797H24.6342C25.1432 88.3209 29.7123 81.042 36.3887 76.791L38.148 85.2596C38.3369 86.1695 38.9396 86.8912 39.8014 87.2391C40.1393 87.3754 40.4885 87.443 40.8344 87.443C41.3701 87.443 41.8984 87.2811 42.3654 86.9631L49.9996 81.7588L57.6342 86.9631C58.101 87.2809 58.6289 87.4426 59.1646 87.4426C59.5105 87.4426 59.8598 87.3752 60.1973 87.2387C61.0594 86.8908 61.6621 86.1691 61.851 85.2594L63.6104 76.7906C70.2869 81.0418 74.8559 88.3207 75.365 96.6797ZM63.0166 56.6875C63.0166 63.865 57.1773 69.7043 49.9998 69.7043C42.8223 69.7043 36.983 63.865 36.983 56.6875C36.983 49.51 42.8223 43.6707 49.9998 43.6707C57.1773 43.6707 63.0166 49.5102 63.0166 56.6875ZM72.0371 41.4842V35.8771C72.0371 35.4303 71.8459 35.0049 71.5115 34.7082C71.1771 34.4117 70.7314 34.2734 70.2883 34.3258C64.9266 34.9701 60.1176 37.7766 56.89 42.0938C54.799 41.1025 52.4635 40.5457 49.9998 40.5457C47.5361 40.5457 45.2006 41.1025 43.1096 42.0939C39.8818 37.7766 35.073 34.9701 29.7111 34.3258C29.2682 34.2732 28.8223 34.4117 28.4879 34.7082C28.1535 35.0049 27.9623 35.4303 27.9623 35.8771V41.4842L14.6779 31.2187L27.9623 20.9533V26.7777C27.9623 27.5924 28.5883 28.2705 29.4004 28.3354C34.9396 28.7777 40.277 31.0715 44.4287 34.7943C44.8877 35.2055 45.5453 35.309 46.109 35.0576C46.6719 34.8062 47.0344 34.2475 47.0344 33.6309V18.2594C47.0344 17.3965 46.3348 16.6969 45.4719 16.6969H39.7344L49.9996 3.4125L60.265 16.6969H54.5273C53.6645 16.6969 52.9648 17.3965 52.9648 18.2594V33.6309C52.9648 34.2475 53.3273 34.8062 53.8902 35.0576C54.4535 35.309 55.1113 35.2057 55.5705 34.7943C59.7227 31.0715 65.0598 28.7777 70.5988 28.3354C71.4109 28.2705 72.0369 27.5926 72.0369 26.7777V20.9533L85.3213 31.2187L72.0371 41.4842Z" fill="#6610F2"/>
</svg>
