<svg width="100" height="100" viewBox="0 0 100 100" fill="none" xmlns="http://www.w3.org/2000/svg">
<path d="M92.1875 37.6094V34.4844C92.1885 33.8371 92.059 33.1963 91.8066 32.6003C91.5542 32.0043 91.1842 31.4653 90.7188 31.0156C90.2484 30.57 89.6937 30.2229 89.0873 29.9949C88.4808 29.7668 87.8349 29.6623 87.1875 29.6875C81.4228 29.8435 75.6778 30.4285 70 31.4375L67.9375 31.8437C67.4947 27.459 65.4641 23.3874 62.228 20.3957C58.992 17.404 54.7738 15.6986 50.3679 15.6007C45.9619 15.5027 41.6721 17.019 38.3064 19.8639C34.9406 22.7088 32.731 26.6861 32.0938 31.0469C32.0938 31.3281 32.0938 31.5937 32.0938 31.8594C25.7391 30.5948 19.2892 29.8683 12.8125 29.6875C12.1639 29.6687 11.5182 29.78 10.9133 30.0148C10.3085 30.2496 9.75675 30.6032 9.29073 31.0546C8.82471 31.5061 8.45381 32.0463 8.19993 32.6434C7.94605 33.2405 7.81431 33.8824 7.8125 34.5312V37.6562C6.04787 38.0164 4.46188 38.9753 3.32296 40.3704C2.18404 41.7656 1.56213 43.5115 1.5625 45.3125V89.0625C1.5625 91.1345 2.3856 93.1216 3.85073 94.5868C4.57619 95.3122 5.43743 95.8877 6.38529 96.2803C7.33314 96.6729 8.34905 96.875 9.375 96.875H90.625C92.697 96.875 94.6841 96.0519 96.1493 94.5868C97.6144 93.1216 98.4375 91.1345 98.4375 89.0625V45.3125C98.4487 43.5034 97.8318 41.7466 96.6919 40.3417C95.5521 38.9369 93.96 37.9711 92.1875 37.6094ZM35.2188 31.4844C35.7156 28.2368 37.2639 25.2418 39.6261 22.9586C41.9884 20.6753 45.0343 19.2299 48.2969 18.8437C48.8625 18.7815 49.431 18.7502 50 18.75C53.6713 18.7412 57.2142 20.1004 59.9375 22.5625C61.5768 24.0275 62.8725 25.8362 63.7321 27.8597C64.5918 29.8831 64.9942 32.0714 64.9106 34.2683C64.827 36.4652 64.2595 38.6166 63.2486 40.5689C62.2377 42.5212 60.8083 44.2263 59.0625 45.5625C57.7385 46.5441 56.661 47.8203 55.9153 49.2901C55.1695 50.7599 54.7759 52.3831 54.7656 54.0312C54.7615 54.6184 54.5265 55.1804 54.1112 55.5956C53.696 56.0108 53.1341 56.2459 52.5469 56.25H51.5625V45.3125C51.5632 44.9474 51.4361 44.5936 51.2031 44.3125L45.5156 37.5H54.0313L51.2344 40.2969C50.9784 40.5958 50.8446 40.9803 50.8598 41.3735C50.875 41.7668 51.038 42.1398 51.3163 42.4181C51.5946 42.6963 51.9676 42.8593 52.3609 42.8745C52.7541 42.8897 53.1386 42.756 53.4375 42.5L58.9063 37.0312C59.1204 36.8128 59.2657 36.5364 59.3242 36.2362C59.3827 35.936 59.3518 35.6252 59.2354 35.3424C59.1189 35.0596 58.922 34.8172 58.6691 34.6452C58.4162 34.4732 58.1183 34.3793 57.8125 34.375H42.1875C41.8903 34.3745 41.5992 34.4588 41.3482 34.6179C41.0973 34.777 40.8969 35.0044 40.7706 35.2734C40.6443 35.5424 40.5973 35.8418 40.6352 36.1366C40.6731 36.4313 40.7942 36.7092 40.9844 36.9375L48.4375 45.875V56.25H47.4531C47.1584 56.25 46.8666 56.1917 46.5944 56.0784C46.3223 55.9652 46.0753 55.7992 45.8676 55.59C45.6599 55.3809 45.4957 55.1327 45.3843 54.8598C45.273 54.587 45.2167 54.2947 45.2188 54C45.2006 52.3538 44.8019 50.7342 44.0538 49.2677C43.3056 47.8013 42.2284 46.5278 40.9063 45.5469C38.7826 43.9298 37.1337 41.7705 36.1329 39.296C35.1321 36.8215 34.8163 34.1231 35.2188 31.4844ZM10.9375 34.5312C10.9394 34.2994 10.9878 34.0704 11.0798 33.8576C11.1718 33.6448 11.3055 33.4526 11.473 33.2924C11.6405 33.1322 11.8384 33.0071 12.0551 32.9247C12.2717 32.8423 12.5027 32.8041 12.7344 32.8125C19.2136 32.9925 25.6649 33.7349 32.0156 35.0312C32.195 37.5732 32.9167 40.0473 34.1322 42.287C35.3477 44.5267 37.0289 46.48 39.0625 48.0156C40.0126 48.7053 40.7894 49.6063 41.3317 50.6475C41.874 51.6888 42.167 52.8418 42.1875 54.0156C42.1873 55.4209 42.739 56.7701 43.7239 57.7725C44.7088 58.7749 46.048 59.3504 47.4531 59.375H52.5469C53.2541 59.3729 53.9539 59.2314 54.6062 58.9584C55.2586 58.6854 55.8507 58.2863 56.3486 57.7841C56.8464 57.2819 57.2403 56.6864 57.5076 56.0316C57.7749 55.3769 57.9104 54.6759 57.9063 53.9687C57.9316 52.8046 58.2271 51.6623 58.7694 50.6319C59.3117 49.6015 60.086 48.7112 61.0313 48.0312C63.0552 46.4866 64.7264 44.528 65.9335 42.2863C67.1406 40.0446 67.8558 37.5712 68.0313 35.0312L70.625 34.5156C76.1222 33.5379 81.6843 32.9686 87.2656 32.8125C87.5001 32.8004 87.7344 32.8388 87.9527 32.9251C88.1711 33.0113 88.3683 33.1434 88.5312 33.3125C88.6961 33.4728 88.8267 33.6648 88.9153 33.8769C89.0039 34.0891 89.0487 34.317 89.0469 34.5469V84.2187C89.0473 84.6614 88.877 85.0871 88.5714 85.4073C88.2658 85.7274 87.8484 85.9174 87.4062 85.9375C75.1424 86.1015 63.0056 88.4453 51.5625 92.8594V65.625H53.125C53.5394 65.625 53.9368 65.4604 54.2299 65.1673C54.5229 64.8743 54.6875 64.4769 54.6875 64.0625C54.6875 63.6481 54.5229 63.2507 54.2299 62.9576C53.9368 62.6646 53.5394 62.5 53.125 62.5H46.875C46.4606 62.5 46.0632 62.6646 45.7701 62.9576C45.4771 63.2507 45.3125 63.6481 45.3125 64.0625C45.3125 64.4769 45.4771 64.8743 45.7701 65.1673C46.0632 65.4604 46.4606 65.625 46.875 65.625H48.4375V92.875C36.9973 88.4491 24.8592 86.0998 12.5938 85.9375C12.1488 85.9213 11.7275 85.7331 11.4186 85.4125C11.1097 85.0919 10.9372 84.664 10.9375 84.2187V34.5312ZM4.6875 89.0625V45.3125C4.69022 44.3454 4.992 43.4028 5.55147 42.6139C6.11093 41.8251 6.9007 41.2286 7.8125 40.9062V84.2187C7.81962 85.4744 8.311 86.6789 9.18424 87.5813C10.0575 88.4836 11.2452 89.0142 12.5 89.0625C22.3096 89.2952 32.0409 90.8724 41.4219 93.75H9.375C8.1318 93.75 6.93951 93.2561 6.06044 92.377C5.18136 91.498 4.6875 90.3057 4.6875 89.0625ZM95.3125 89.0625C95.3125 90.3057 94.8186 91.498 93.9396 92.377C93.0605 93.2561 91.8682 93.75 90.625 93.75H58.5625C67.9485 90.871 77.6851 89.2937 87.5 89.0625C88.7548 89.0142 89.9425 88.4836 90.8158 87.5813C91.689 86.6789 92.1804 85.4744 92.1875 84.2187V40.8594C93.1069 41.1844 93.902 41.788 94.4621 42.5862C95.0222 43.3844 95.3195 44.3374 95.3125 45.3125V89.0625Z" fill="#6610F2"/>
<path d="M17.0775 42.1874C19.14 42.328 21.2181 42.5155 23.2494 42.7655H23.4369C23.8513 42.7904 24.2586 42.6496 24.5692 42.3742C24.8798 42.0987 25.0683 41.7112 25.0931 41.2968C25.118 40.8824 24.9772 40.4751 24.7018 40.1644C24.4263 39.8538 24.0388 39.6654 23.6244 39.6405C21.5463 39.3905 19.4056 39.1874 17.2963 39.0468C16.8819 39.0198 16.4737 39.1586 16.1617 39.4326C15.8496 39.7066 15.6591 40.0933 15.6322 40.5077C15.6053 40.9221 15.7441 41.3302 16.018 41.6423C16.292 41.9544 16.6787 42.1448 17.0931 42.1718L17.0775 42.1874Z" fill="#6610F2"/>
<path d="M17.0775 48.6405C20.8893 48.8892 24.686 49.3324 28.4525 49.9686H28.7181C28.9233 49.9861 29.13 49.9629 29.3262 49.9005C29.5224 49.8381 29.7045 49.7377 29.8619 49.6049C30.0193 49.4721 30.1491 49.3097 30.2437 49.1268C30.3383 48.9439 30.396 48.7441 30.4135 48.5389C30.4309 48.3338 30.4078 48.1271 30.3453 47.9309C30.2829 47.7346 30.1825 47.5526 30.0497 47.3952C29.917 47.2378 29.7545 47.108 29.5716 47.0134C29.3887 46.9188 29.189 46.8611 28.9838 46.8436C25.1138 46.187 21.2129 45.7281 17.2963 45.4686C16.8819 45.4417 16.4737 45.5805 16.1617 45.8545C15.8496 46.1284 15.6591 46.5152 15.6322 46.9296C15.6053 47.344 15.7441 47.7521 16.018 48.0642C16.292 48.3762 16.6787 48.5667 17.0931 48.5936L17.0775 48.6405Z" fill="#6610F2"/>
<path d="M15.6241 57.9218C15.5984 58.3338 15.7368 58.7393 16.0091 59.0496C16.2813 59.36 16.6654 59.5499 17.0773 59.578C25.4345 60.0901 33.701 61.5954 41.7023 64.0624C42.098 64.1867 42.5269 64.1487 42.8947 63.9568C43.2624 63.7649 43.5389 63.4347 43.6632 63.039C43.7875 62.6432 43.7495 62.2143 43.5576 61.8465C43.3657 61.4788 43.0355 61.2023 42.6398 61.078C34.4025 58.5151 25.8895 56.9415 17.2804 56.3905C17.0701 56.3778 16.8593 56.4078 16.6609 56.4787C16.4624 56.5496 16.2804 56.6598 16.1257 56.8029C15.9709 56.9459 15.8467 57.1188 15.7606 57.3111C15.6744 57.5034 15.628 57.7111 15.6241 57.9218Z" fill="#6610F2"/>
<path d="M42.6556 68.7499C34.4184 66.1871 25.9054 64.6135 17.2963 64.0624C17.0911 64.049 16.8853 64.0763 16.6906 64.1425C16.4959 64.2087 16.3162 64.3126 16.1617 64.4482C15.8496 64.7222 15.6591 65.1089 15.6322 65.5233C15.6053 65.9377 15.7441 66.3458 16.018 66.6579C16.292 66.97 16.6787 67.1604 17.0931 67.1874C25.451 67.7046 33.7175 69.2153 41.7181 71.6874C42.0846 71.7412 42.4583 71.663 42.7725 71.4669C43.0867 71.2707 43.321 70.9694 43.4336 70.6165C43.5462 70.2637 43.5298 69.8823 43.3873 69.5404C43.2448 69.1985 42.9855 68.9183 42.6556 68.7499Z" fill="#6610F2"/>
<path d="M42.6556 76.5624C34.4184 73.9994 25.9054 72.4259 17.2963 71.8749C16.8819 71.8479 16.4737 71.9867 16.1617 72.2607C15.8496 72.5347 15.6591 72.9214 15.6322 73.3358C15.6053 73.7502 15.7441 74.1583 16.018 74.4704C16.292 74.7825 16.6787 74.9729 17.0931 74.9999C25.4534 75.5791 33.7148 77.1527 41.7025 79.6874C42.1169 79.8138 42.5646 79.7704 42.947 79.5667C43.3294 79.3631 43.6152 79.0158 43.7416 78.6014C43.868 78.187 43.8246 77.7394 43.6209 77.357C43.4173 76.9746 43.07 76.6888 42.6556 76.5624Z" fill="#6610F2"/>
<path d="M57.8144 64.1561C57.9697 64.1797 58.1278 64.1797 58.2831 64.1561C66.2837 61.6839 74.5502 60.1732 82.9081 59.6561C83.3225 59.6292 83.7092 59.4387 83.9832 59.1267C84.2572 58.8146 84.396 58.4065 84.3691 57.9921C84.3421 57.5777 84.1517 57.1909 83.8396 56.917C83.5275 56.643 83.1194 56.5042 82.705 56.5311C74.0958 57.0821 65.5829 58.6557 57.3456 61.2186C57.1404 61.2494 56.9433 61.3203 56.7655 61.4273C56.5877 61.5342 56.4327 61.6752 56.3094 61.842C56.0603 62.179 55.9553 62.6011 56.0175 63.0155C56.0796 63.4299 56.3039 63.8026 56.6409 64.0517C56.9778 64.3008 57.4 64.4058 57.8144 64.3436V64.1561Z" fill="#6610F2"/>
<path d="M57.8144 71.7655C57.9697 71.7891 58.1278 71.7891 58.2831 71.7655C66.2805 69.2669 74.5471 67.73 82.9081 67.1874C83.1133 67.174 83.3139 67.1204 83.4983 67.0296C83.6828 66.9387 83.8476 66.8124 83.9832 66.6579C84.1189 66.5034 84.2228 66.3237 84.289 66.129C84.3552 65.9343 84.3824 65.7285 84.3691 65.5233C84.3557 65.3181 84.3021 65.1176 84.2112 64.9331C84.1204 64.7486 83.9941 64.5839 83.8396 64.4482C83.6851 64.3126 83.5053 64.2087 83.3107 64.1425C83.116 64.0763 82.9102 64.049 82.705 64.0624C74.0959 64.6135 65.5829 66.1871 57.3456 68.7499C56.9312 68.812 56.5585 69.0363 56.3094 69.3733C56.0603 69.7102 55.9553 70.1324 56.0175 70.5468C56.0796 70.9612 56.3039 71.3339 56.6409 71.583C56.9778 71.832 57.4 71.937 57.8144 71.8749V71.7655Z" fill="#6610F2"/>
<path d="M57.8144 79.6874C57.9697 79.711 58.1278 79.711 58.2831 79.6874C66.2837 77.2151 74.5502 75.7045 82.9081 75.1874C83.3225 75.1604 83.7092 74.97 83.9832 74.6579C84.2572 74.3458 84.396 73.9377 84.3691 73.5233C84.3421 73.1089 84.1517 72.7222 83.8396 72.4482C83.5275 72.1742 83.1194 72.0354 82.705 72.0624C74.1034 72.5524 65.5906 74.063 57.3456 76.5624C56.9312 76.6245 56.5585 76.8488 56.3094 77.1858C56.0603 77.5227 55.9553 77.9449 56.0175 78.3593C56.0796 78.7737 56.3039 79.1464 56.6409 79.3955C56.9778 79.6445 57.4 79.7495 57.8144 79.6874Z" fill="#6610F2"/>
<path d="M50 10.9375C50.4144 10.9375 50.8118 10.7729 51.1049 10.4799C51.3979 10.1868 51.5625 9.7894 51.5625 9.375V3.125C51.5625 2.7106 51.3979 2.31317 51.1049 2.02015C50.8118 1.72712 50.4144 1.5625 50 1.5625C49.5856 1.5625 49.1882 1.72712 48.8951 2.02015C48.6021 2.31317 48.4375 2.7106 48.4375 3.125V9.375C48.4375 9.7894 48.6021 10.1868 48.8951 10.4799C49.1882 10.7729 49.5856 10.9375 50 10.9375Z" fill="#6610F2"/>
<path d="M61.0481 15.5159C61.2538 15.517 61.4576 15.4776 61.648 15.3999C61.8384 15.3221 62.0115 15.2075 62.1575 15.0627L66.5794 10.6409C66.8354 10.3419 66.9691 9.95745 66.9539 9.56421C66.9388 9.17096 66.7757 8.79793 66.4975 8.51966C66.2192 8.24139 65.8462 8.07837 65.4529 8.06318C65.0597 8.04799 64.6752 8.18175 64.3763 8.43773L59.9388 12.844C59.7184 13.0625 59.5681 13.3417 59.5071 13.646C59.446 13.9503 59.477 14.2659 59.596 14.5525C59.715 14.8392 59.9167 15.0839 60.1753 15.2554C60.4339 15.427 60.7378 15.5177 61.0481 15.5159Z" fill="#6610F2"/>
<path d="M37.8445 15.0627C38.1434 15.3187 38.5279 15.4525 38.9211 15.4373C39.3144 15.4221 39.6874 15.2591 39.9657 14.9808C40.2439 14.7025 40.4069 14.3295 40.4221 13.9362C40.4373 13.543 40.3036 13.1585 40.0476 12.8596L35.6413 8.4221C35.3424 8.16612 34.9579 8.03236 34.5647 8.04755C34.1715 8.06274 33.7984 8.22576 33.5201 8.50403C33.2419 8.78231 33.0789 9.15534 33.0637 9.54858C33.0485 9.94182 33.1822 10.3263 33.4382 10.6252L37.8445 15.0627Z" fill="#6610F2"/>
</svg>
