<svg width="60" height="60" viewBox="0 0 60 60" fill="none" xmlns="http://www.w3.org/2000/svg">
<g clip-path="url(#clip0_48_2186)">
<path d="M11.0586 37.4264V26.1049C11.0586 25.3197 11.6949 24.6846 12.4801 24.6846H19.1094C19.8934 24.6846 20.5297 25.3197 20.5297 26.1049V40.0596C20.5297 45.2732 24.6922 49.5998 29.9059 49.6502C35.1711 49.7018 39.4695 45.4338 39.4695 40.1803V26.1049C39.4695 25.3197 40.1059 24.6846 40.8898 24.6846H47.5191C48.3043 24.6846 48.9406 25.3197 48.9406 26.1049V27.9881" stroke="#C73E9B" stroke-width="2" stroke-miterlimit="10" stroke-linecap="round" stroke-linejoin="round"/>
<path d="M48.9395 32.0894V40.18C48.9395 45.4101 46.8195 50.1456 43.3918 53.5733C39.9641 57.0011 35.2285 59.121 29.9984 59.121C19.9906 59.121 11.7945 51.3597 11.1055 41.5265" stroke="#C73E9B" stroke-width="2" stroke-miterlimit="10" stroke-linecap="round" stroke-linejoin="round"/>
<path d="M39.4688 34.7354H48.939" stroke="#C73E9B" stroke-width="2" stroke-miterlimit="10" stroke-linecap="round" stroke-linejoin="round"/>
<path d="M11.0586 34.7354H20.5289" stroke="#C73E9B" stroke-width="2" stroke-miterlimit="10" stroke-linecap="round" stroke-linejoin="round"/>
<path d="M41.3623 8.45508C43.4544 8.45508 45.1504 6.75909 45.1504 4.66699C45.1504 2.57489 43.4544 0.878906 41.3623 0.878906C39.2702 0.878906 37.5742 2.57489 37.5742 4.66699C37.5742 6.75909 39.2702 8.45508 41.3623 8.45508Z" stroke="#C73E9B" stroke-width="2" stroke-miterlimit="10" stroke-linecap="round" stroke-linejoin="round"/>
<path d="M37.104 15.5578H48.4684V12.2432C48.4684 10.1514 46.772 8.45508 44.6803 8.45508H38.0511C37.155 8.45508 36.3322 8.76527 35.6836 9.28605" stroke="#C73E9B" stroke-width="2" stroke-miterlimit="10" stroke-linecap="round" stroke-linejoin="round"/>
<path d="M22.4238 4.66699C22.4238 6.75914 20.7279 8.45508 18.6357 8.45508C16.5436 8.45508 14.8477 6.75914 14.8477 4.66699C14.8477 2.57484 16.5436 0.878906 18.6357 0.878906C20.7279 0.878906 22.4238 2.57484 22.4238 4.66699Z" stroke="#C73E9B" stroke-width="2" stroke-miterlimit="10" stroke-linecap="round" stroke-linejoin="round"/>
<path d="M22.8955 15.5578H11.5312V12.2432C11.5312 10.1514 13.2277 8.45508 15.3193 8.45508H21.9485C22.8446 8.45508 23.6674 8.76527 24.3161 9.28605" stroke="#C73E9B" stroke-width="2" stroke-miterlimit="10" stroke-linecap="round" stroke-linejoin="round"/>
<path d="M29.999 8.45508C32.0911 8.45508 33.7871 6.75909 33.7871 4.66699C33.7871 2.57489 32.0911 0.878906 29.999 0.878906C27.9069 0.878906 26.2109 2.57489 26.2109 4.66699C26.2109 6.75909 27.9069 8.45508 29.999 8.45508Z" stroke="#C73E9B" stroke-width="2" stroke-miterlimit="10" stroke-linecap="round" stroke-linejoin="round"/>
<path d="M32.1281 17.925H37.1039V12.2437C37.1039 10.1508 35.4082 8.45508 33.3152 8.45508H26.6871C24.5941 8.45508 22.8984 10.1508 22.8984 12.2437V17.925H28.0266" stroke="#C73E9B" stroke-width="2" stroke-miterlimit="10" stroke-linecap="round" stroke-linejoin="round"/>
<path d="M26.2109 30.2366V25.2646" stroke="#C73E9B" stroke-width="2" stroke-miterlimit="10" stroke-linecap="round" stroke-linejoin="round"/>
<path d="M30 21.7134V30.2365" stroke="#C73E9B" stroke-width="2" stroke-miterlimit="10" stroke-linecap="round" stroke-linejoin="round"/>
<path d="M33.7891 25.2646V30.2366" stroke="#C73E9B" stroke-width="2" stroke-miterlimit="10" stroke-linecap="round" stroke-linejoin="round"/>
</g>
<defs>
<clipPath id="clip0_48_2186">
<rect width="60" height="60" fill="white"/>
</clipPath>
</defs>
</svg>
