<svg width="60" height="60" viewBox="0 0 60 60" fill="none" xmlns="http://www.w3.org/2000/svg">
<g clip-path="url(#clip0_48_2209)">
<path d="M59.9878 5.59852V3.24551C59.9878 1.45594 58.5319 0 56.7422 0C54.9526 0 53.4968 1.45594 53.4968 3.24551V5.61211C53.4968 5.61598 53.4973 5.61961 53.4974 5.62348V12.3848L50.7697 15.1125H49.5439C50.133 14.1639 50.4743 13.0461 50.4743 11.8498C50.4743 8.42906 47.6913 5.64609 44.2706 5.64609C40.8499 5.64609 38.067 8.42906 38.067 11.8498C38.067 13.0461 38.4083 14.1639 38.9973 15.1124H38.7328C37.6113 15.1124 36.551 15.7063 35.966 16.6621L33.6551 20.4329L28.6654 17.3755C28.2799 17.1394 27.864 16.9938 27.4426 16.9324V15.105H27.7676C28.9046 15.105 29.8298 14.1799 29.8298 13.0427V10.6762C29.8298 9.53918 28.9046 8.6141 27.7676 8.6141H25.6671L22.5676 6.54773C22.273 6.35133 21.9302 6.2475 21.5761 6.2475C20.5907 6.2475 19.789 7.04918 19.789 8.03461V15.6844C19.789 16.6698 20.5907 17.4716 21.5761 17.4716C21.9301 17.4716 22.2728 17.3679 22.5675 17.1714L25.6671 15.105H25.6847V17.1648C25.09 17.4204 24.5654 17.8546 24.2024 18.4473C24.2023 18.4473 24.2023 18.4474 24.2023 18.4474C23.2675 19.9733 23.7483 21.9754 25.2742 22.9103L33.6373 28.0338C34.2145 28.3881 34.8953 28.496 35.5546 28.3375C35.9153 28.2507 36.2455 28.0898 36.5285 27.8674V51.6449C36.4808 51.7129 36.4348 51.7819 36.39 51.8518C35.3927 50.2887 33.6443 49.249 31.6566 49.249H31.5885C32.541 48.2428 33.1271 46.8864 33.1271 45.3947C33.1271 42.3002 30.6096 39.7826 27.515 39.7826C24.4205 39.7826 21.9029 42.3001 21.9029 45.3947C21.9029 46.8863 22.489 48.2428 23.4416 49.249H23.3734C21.3857 49.249 19.6373 50.2887 18.6401 51.8518C17.6429 50.2887 15.895 49.249 13.9077 49.249H13.839C14.7915 48.2428 15.3777 46.8864 15.3777 45.3947C15.3777 42.3002 12.8602 39.7826 9.76559 39.7826C6.67102 39.7826 4.15348 42.3001 4.15348 45.3947C4.15348 46.8863 4.73953 48.2428 5.69215 49.249H5.62395C2.52938 49.249 0.0117188 51.7665 0.0117188 54.8611V59.1209C0.0117188 59.6062 0.405117 59.9998 0.890625 59.9998H7.71445C8.19996 59.9998 8.59336 59.6062 8.59336 59.1209C8.59336 58.6355 8.19996 58.242 7.71445 58.242H5.31996V56.0443C5.31996 55.5589 4.92656 55.1654 4.44105 55.1654C3.95555 55.1654 3.56215 55.5589 3.56215 56.0443V58.2422H1.76965V54.8613C1.76965 52.736 3.49875 51.007 5.62406 51.007H13.9079C16.0325 51.007 17.7611 52.736 17.7611 54.8613V58.2422H15.9696V56.0446C15.9696 55.5592 15.5762 55.1657 15.0907 55.1657C14.6052 55.1657 14.2118 55.5592 14.2118 56.0446V58.2422H11.8161C11.3306 58.2422 10.9372 58.6357 10.9372 59.1211C10.9372 59.6065 11.3306 60 11.8161 60H43.4239C43.9095 60 44.3029 59.6065 44.3029 59.1211C44.3029 58.6357 43.9095 58.2422 43.4239 58.2422H40.8188V56.0446C40.8188 55.5592 40.4254 55.1657 39.9398 55.1657C39.4543 55.1657 39.0609 55.5592 39.0609 56.0446V58.2422H37.2693V54.8613C37.2693 52.736 38.9982 51.007 41.1236 51.007H49.4064C51.5317 51.007 53.2608 52.736 53.2608 54.8613V58.2422H51.4684V56.0446C51.4684 55.5592 51.075 55.1657 50.5895 55.1657C50.104 55.1657 49.7106 55.5592 49.7106 56.0446V58.2422H47.5255C47.04 58.2422 46.6466 58.6357 46.6466 59.1211C46.6466 59.6065 47.04 60 47.5255 60H54.1396C54.6251 60 55.0185 59.6065 55.0185 59.1211V54.8613C55.0185 52.7072 53.7979 50.8338 52.0126 49.8934V31.2715C52.0126 30.7861 51.6192 30.3926 51.1337 30.3926C50.6482 30.3926 50.2548 30.7861 50.2548 31.2715V35.9379H38.2864V25.0523C38.2864 24.6589 38.025 24.3134 37.6463 24.2065C37.2675 24.0996 36.8639 24.2575 36.6582 24.5929L35.6239 26.2793C35.5159 26.456 35.3454 26.58 35.1437 26.6285C34.9419 26.6771 34.7332 26.6441 34.556 26.5354L28.9597 23.1073L30.5142 20.5702L33.4861 22.391C33.6294 22.4788 33.7879 22.5206 33.9444 22.5206C34.24 22.5206 34.5287 22.3714 34.6945 22.1009L37.4648 17.5802C37.733 17.1423 38.2188 16.8702 38.7327 16.8702H40.6325C41.6555 17.6134 42.9122 18.0534 44.2705 18.0534C45.6287 18.0534 46.8855 17.6135 47.9084 16.8703H51.1336C51.3667 16.8703 51.5902 16.7777 51.7552 16.6129L54.9977 13.3703C55.1625 13.2055 55.2551 12.9819 55.2551 12.7488V6.49102H58.2306V13.4355C58.2306 14.0222 58.0015 14.5744 57.5856 14.9903L50.5121 22.0637C50.3474 22.2285 50.2548 22.4521 50.2548 22.6852V27.1699C50.2548 27.6553 50.6482 28.0488 51.1337 28.0488C51.6192 28.0488 52.0126 27.6553 52.0126 27.1699V23.0491L58.8287 16.2332C59.5766 15.4852 59.9884 14.4916 59.9884 13.4354V5.61211C59.9884 5.60754 59.9878 5.60309 59.9878 5.59852ZM28.072 10.6762V13.0429C28.072 13.2107 27.9355 13.3473 27.7676 13.3473H26.28V10.3719H27.7676C27.9355 10.3719 28.072 10.5084 28.072 10.6762ZM21.5926 15.7089C21.5741 15.7214 21.5468 15.7065 21.5468 15.6845V8.03473C21.5468 8.01856 21.5599 8.00543 21.5761 8.00543C21.582 8.00543 21.5876 8.00719 21.5925 8.01035L24.5222 9.96352V13.7559L21.5926 15.7089ZM5.91152 45.3949C5.91152 43.2697 7.64051 41.5406 9.76582 41.5406C11.8911 41.5406 13.6201 43.2696 13.6201 45.3949C13.6201 47.5202 11.8911 49.2492 9.76582 49.2492C7.64051 49.2492 5.91152 47.5201 5.91152 45.3949ZM23.661 45.3949C23.661 43.2697 25.39 41.5406 27.5153 41.5406C29.6406 41.5406 31.3696 43.2696 31.3696 45.3949C31.3696 47.5202 29.6406 49.2492 27.5153 49.2492C25.39 49.2492 23.661 47.5201 23.661 45.3949ZM35.511 58.2422H33.7188V56.0446C33.7188 55.5592 33.3254 55.1657 32.8399 55.1657C32.3544 55.1657 31.961 55.5592 31.961 56.0446V58.2422H23.0693V56.0446C23.0693 55.5592 22.6759 55.1657 22.1904 55.1657C21.7049 55.1657 21.3115 55.5592 21.3115 56.0446V58.2422H19.5193V54.8612C19.5193 52.736 21.2483 51.0069 23.3736 51.0069H31.6568C33.7821 51.0069 35.5111 52.7359 35.5111 54.8612V58.2422H35.511ZM38.2864 50.0221V37.6962H50.2548V42.8323C49.3221 41.0235 47.4361 39.7829 45.2646 39.7829C42.1702 39.7829 39.6525 42.3005 39.6525 45.395C39.6525 46.8866 40.2386 48.2432 41.1911 49.2493H41.1234C40.0889 49.2492 39.1195 49.5318 38.2864 50.0221ZM41.4103 45.3949C41.4103 43.2697 43.1393 41.5406 45.2646 41.5406C47.3899 41.5406 49.1189 43.2696 49.1189 45.3949C49.1189 47.5202 47.3899 49.2492 45.2646 49.2492C43.1393 49.2492 41.4103 47.5201 41.4103 45.3949ZM27.4611 22.1887L26.1926 21.4116C25.4932 20.983 25.2728 20.0653 25.7013 19.3658C26.1298 18.6664 27.0475 18.4459 27.7471 18.8745L29.0155 19.6516L27.4611 22.1887ZM39.8246 11.8498C39.8246 9.39832 41.8192 7.40391 44.2705 7.40391C46.7218 7.40391 48.7164 9.39832 48.7164 11.8498C48.7164 14.3012 46.7218 16.2956 44.2705 16.2956C41.8192 16.2956 39.8246 14.3012 39.8246 11.8498ZM55.2546 4.7332V3.24551C55.2546 2.4252 55.9219 1.75781 56.7422 1.75781C57.5625 1.75781 58.2299 2.4252 58.2299 3.24551V4.7332H55.2546Z" fill="#C73E9B"/>
<path d="M13.3047 12.7383H14.7246C15.2102 12.7383 15.6036 12.3448 15.6036 11.8594C15.6036 11.374 15.2102 10.9805 14.7246 10.9805H13.3047C12.8192 10.9805 12.4258 11.374 12.4258 11.8594C12.4258 12.3448 12.8193 12.7383 13.3047 12.7383Z" fill="#C73E9B"/>
<path d="M15.2849 8.93114C15.4565 9.10282 15.6815 9.1886 15.9064 9.1886C16.1312 9.1886 16.3562 9.10282 16.5279 8.93114C16.8712 8.5879 16.8712 8.03138 16.5278 7.68825L15.5237 6.68419C15.1807 6.34095 14.6242 6.34095 14.2809 6.68419C13.9376 7.02743 13.9376 7.58395 14.281 7.92708L15.2849 8.93114Z" fill="#C73E9B"/>
<path d="M15.285 14.7882L14.281 15.7923C13.9376 16.1355 13.9376 16.6919 14.2809 17.0351C14.4525 17.2068 14.6774 17.2926 14.9024 17.2926C15.1273 17.2926 15.3523 17.2068 15.5239 17.0351L16.5279 16.0311C16.8713 15.6878 16.8713 15.1314 16.528 14.7882C16.1848 14.445 15.6283 14.445 15.285 14.7882Z" fill="#C73E9B"/>
</g>
<defs>
<clipPath id="clip0_48_2209">
<rect width="60" height="60" fill="white"/>
</clipPath>
</defs>
</svg>
