<svg width="60" height="60" viewBox="0 0 60 60" fill="none" xmlns="http://www.w3.org/2000/svg">
<g clip-path="url(#clip0_48_2161)">
<path d="M48.7891 13.0818L45.9363 10.229L43.0835 13.0818L41.7578 11.7561L45.9363 7.57764L50.1147 11.7561L48.7891 13.0818Z" fill="#C73E9B"/>
<path d="M45 9.37207H46.875V19.6846H45V9.37207Z" fill="#C73E9B"/>
<path d="M50.625 31.8723H48.75V27.8407C55.8234 26.3969 60.6546 19.8317 59.9286 12.6489C59.203 5.46661 53.1569 0 45.9375 0C38.7181 0 32.672 5.46661 31.9464 12.6489C31.2204 19.8317 36.0516 26.3969 43.125 27.8407V31.8723H41.25V58.1223H37.5V28.1223H28.125V58.1223H24.375V35.6223H15V58.1223H11.25V44.9973H1.875V58.1223H0V59.9973H60V58.1223H50.625V31.8723ZM9.375 58.1223H3.75V46.8723H9.375V58.1223ZM22.5 58.1223H16.875V37.4973H22.5V58.1223ZM35.625 58.1223H30V29.9973H35.625V58.1223ZM33.75 14.0598C33.75 7.55493 38.8582 2.19681 45.3557 1.88644C51.8527 1.57562 57.4489 6.42242 58.0696 12.897C58.6899 19.3721 54.1164 25.1935 47.6784 26.1223L46.875 26.2376V31.8723H45V26.2376L44.1966 26.1223C38.2127 25.2338 33.7747 20.1091 33.75 14.0598ZM48.75 58.1223H43.125V33.7473H48.75V58.1223Z" fill="#C73E9B"/>
<path d="M56.25 14.0596C56.25 8.36407 51.633 3.74707 45.9375 3.74707C40.242 3.74707 35.625 8.36407 35.625 14.0596C35.625 19.7551 40.242 24.3721 45.9375 24.3721C51.6302 24.3652 56.2431 19.7523 56.25 14.0596ZM37.5 14.0596C37.5 9.39954 41.2775 5.62207 45.9375 5.62207C50.5975 5.62207 54.375 9.39954 54.375 14.0596C54.375 18.7191 50.5975 22.4971 45.9375 22.4971C41.2798 22.4916 37.505 18.7173 37.5 14.0596Z" fill="#C73E9B"/>
<path d="M13.4917 31.8721H20.0757L28.125 23.8228V26.2471H30V20.6221H24.375V22.4971H26.7993L19.2993 29.9971H12.7584L0.300781 41.4961L1.57428 42.8726L13.4917 31.8721Z" fill="#C73E9B"/>
<path d="M54.375 31.8721H60V33.7471H54.375V31.8721Z" fill="#C73E9B"/>
<path d="M54.375 35.6221H60V37.4971H54.375V35.6221Z" fill="#C73E9B"/>
<path d="M54.375 39.3721H60V41.2471H54.375V39.3721Z" fill="#C73E9B"/>
<path d="M54.375 43.1221H60V44.9971H54.375V43.1221Z" fill="#C73E9B"/>
<path d="M54.375 46.8721H60V48.7471H54.375V46.8721Z" fill="#C73E9B"/>
<path d="M54.375 50.6221H60V52.4971H54.375V50.6221Z" fill="#C73E9B"/>
<path d="M54.375 54.3721H60V56.2471H54.375V54.3721Z" fill="#C73E9B"/>
</g>
<defs>
<clipPath id="clip0_48_2161">
<rect width="60" height="60" fill="white"/>
</clipPath>
</defs>
</svg>
