<svg width="60" height="60" viewBox="0 0 60 60" fill="none" xmlns="http://www.w3.org/2000/svg">
<path d="M30.1924 14.5425C30.4811 14.5425 30.7647 14.4251 30.969 14.2208C31.1733 14.0165 31.291 13.7329 31.291 13.4438C31.291 13.1548 31.1733 12.8715 30.969 12.6673C30.7647 12.463 30.4811 12.3452 30.1924 12.3452C29.9033 12.3452 29.6197 12.463 29.4154 12.6673C29.2112 12.8715 29.0938 13.1548 29.0938 13.4438C29.0938 13.7329 29.2112 14.0165 29.4154 14.2208C29.6197 14.4251 29.9033 14.5425 30.1924 14.5425Z" fill="#C73E9B"/>
<path d="M31.0635 40.8838C30.4568 40.8838 29.9648 41.3758 29.9648 41.9824C29.9648 42.5894 30.4568 43.0811 31.0635 43.0811H31.0717C31.6784 43.0811 32.1666 42.5894 32.1666 41.9824C32.1666 41.3758 31.6705 40.8838 31.0635 40.8838Z" fill="#C73E9B"/>
<path d="M50.1171 19.0973C50.1171 18.0983 49.7281 17.1593 49.0219 16.4527C48.6738 16.1046 48.2735 15.8413 47.8464 15.6593L49.0219 14.4834C49.7281 13.7769 50.1171 12.8382 50.1171 11.8391C50.1171 10.8404 49.7281 9.90143 49.0219 9.19487C48.2563 8.42892 47.2377 8.06637 46.2324 8.10482V5.51651C46.2324 3.49228 44.5852 1.8457 42.5613 1.8457H19.581C17.5567 1.8457 15.9102 3.49228 15.9102 5.51651V20.9695C14.9234 20.0226 13.6604 19.351 12.2318 19.0929C11.3989 18.9428 10.5492 19.1677 9.90029 19.7102C9.25072 20.2519 8.87891 21.0484 8.87891 21.8944V52.6025C8.87891 53.2088 9.37054 53.7012 9.97754 53.7012C10.5842 53.7012 11.0762 53.2088 11.0762 52.6025V21.8944C11.0762 21.63 11.2221 21.4687 11.3089 21.3962C11.3961 21.3231 11.5815 21.2084 11.8411 21.2551C14.199 21.6808 15.9102 23.7288 15.9102 26.1241V39.0447C15.9102 39.3475 16.0327 39.6222 16.2319 39.8213C18.6811 42.2706 20.03 45.527 20.03 48.9908V49.9308C20.03 50.5371 20.5217 51.0294 21.1287 51.0294C21.7353 51.0294 22.2273 50.5371 22.2273 49.9308V48.9908C22.2273 48.0549 22.1418 47.1317 21.977 46.2305H40.3582C40.0224 49.8117 38.0555 53.0097 34.9529 54.933L33.1288 56.0632C32.6132 56.3825 32.4542 57.0596 32.7742 57.5756C32.9819 57.911 33.3413 58.0957 33.7087 58.0957C33.9061 58.0957 34.1063 58.0425 34.2865 57.9309L36.1102 56.8007C38.0922 55.5723 39.7388 53.8467 40.8732 51.8095C41.8286 50.0932 42.403 48.1836 42.5606 46.2305H42.5613C44.5852 46.2305 46.2324 44.5832 46.2324 42.5597V39.0406C46.252 39.0214 46.2726 39.0032 46.2918 38.9836L49.0219 36.2535C49.7281 35.547 50.1171 34.6083 50.1171 33.6096C50.1171 32.6109 49.7281 31.6715 49.0219 30.965C48.6738 30.6168 48.2735 30.3532 47.8464 30.1715L49.0219 28.9957C49.7281 28.2891 50.1171 27.3505 50.1171 26.3514C50.1171 25.3527 49.7281 24.4137 49.0219 23.7071C48.6745 23.36 48.2752 23.0967 47.8488 22.9147L49.0219 21.7416C49.7281 21.0354 50.1171 20.0961 50.1171 19.0973ZM41.0036 24.4714C41.3456 24.8137 41.7424 25.0804 42.1747 25.2655L41.0036 26.4365C40.2971 27.1431 39.9077 28.0824 39.9077 29.0812C39.9077 30.0799 40.2971 31.0192 41.0036 31.7254C41.3463 32.0684 41.7442 32.3359 42.1771 32.5209L41.0036 33.6951C40.2971 34.4013 39.9077 35.3403 39.9077 36.339C39.9077 36.8797 40.0227 37.4023 40.2397 37.8805H18.1074V14.5425H25.7979C26.4045 14.5425 26.8965 14.0508 26.8965 13.4438C26.8965 12.8375 26.4045 12.3452 25.7979 12.3452H18.1074V10.2001H42.7281L41.0036 11.925C40.2971 12.6312 39.9077 13.5702 39.9077 14.5692C39.9077 15.568 40.2971 16.507 41.0036 17.2132C41.3463 17.5562 41.7442 17.8236 42.1771 18.009L41.0036 19.1828C40.2971 19.889 39.9077 20.8284 39.9077 21.8271C39.9077 22.8258 40.2971 23.7651 41.0036 24.4714ZM47.4684 10.7484C47.7592 11.0399 47.9199 11.4272 47.9199 11.8391C47.9199 12.2511 47.7592 12.6384 47.4684 12.9299L44.7379 15.6596C44.4471 15.9511 44.0595 16.1115 43.6475 16.1115C43.2356 16.1115 42.8483 15.9511 42.5572 15.6596C42.2657 15.3685 42.105 14.9812 42.105 14.5692C42.105 14.1573 42.2657 13.7696 42.5572 13.4789L45.2869 10.7484C45.8881 10.1472 46.8665 10.1472 47.4684 10.7484ZM19.581 4.04297H42.5613C43.3736 4.04297 44.0352 4.70421 44.0352 5.51651V8.00285H18.1074V5.51651C18.1074 4.70421 18.7683 4.04297 19.581 4.04297ZM42.5613 44.0332H21.4009C20.9151 42.6249 20.2213 41.2938 19.3341 40.0781H43.6122C43.6242 40.0781 43.6359 40.0788 43.6475 40.0788C43.6596 40.0788 43.6712 40.0781 43.6833 40.0781H44.0352V42.5597C44.0352 43.372 43.3736 44.0332 42.5613 44.0332ZM47.4684 34.7L44.7379 37.4297C44.4513 37.7168 44.0705 37.8761 43.6651 37.8809H43.63C43.2249 37.8761 42.8442 37.7168 42.5572 37.4297C42.2657 37.1389 42.105 36.7513 42.105 36.3393C42.105 35.9274 42.2657 35.5401 42.5572 35.2489L45.2869 32.5188C45.5877 32.2181 45.9825 32.0681 46.3773 32.0681C46.7725 32.0681 47.1673 32.2181 47.4684 32.5188C47.7592 32.81 47.9199 33.1976 47.9199 33.6096C47.9199 34.0216 47.7592 34.4085 47.4684 34.7ZM47.4684 27.4421L44.7379 30.1719C44.4471 30.463 44.0595 30.6234 43.6475 30.6234C43.2356 30.6234 42.8483 30.463 42.5572 30.1719C42.2657 29.8808 42.105 29.4931 42.105 29.0812C42.105 28.6692 42.2657 28.2819 42.5572 27.9904L45.2869 25.2607C45.5873 24.9599 45.9825 24.8099 46.3773 24.8099C46.7721 24.8099 47.1673 24.9599 47.4677 25.2607C47.7592 25.5521 47.9199 25.9394 47.9199 26.3514C47.9199 26.7634 47.7592 27.1506 47.4684 27.4421ZM47.4684 20.1877L44.7379 22.9175C44.4471 23.209 44.0595 23.3693 43.6475 23.3693C43.2356 23.3693 42.8483 23.209 42.5572 22.9175C42.2657 22.6267 42.105 22.2391 42.105 21.8271C42.105 21.4151 42.2657 21.0278 42.5572 20.7367L45.2869 18.0066C45.8881 17.4051 46.8665 17.4051 47.4684 18.0066C47.7592 18.2977 47.9199 18.6853 47.9199 19.0973C47.9199 19.5093 47.7592 19.8962 47.4684 20.1877Z" fill="#C73E9B"/>
<path d="M31.2327 16.353C27.1757 16.353 23.875 19.6537 23.875 23.7108C23.875 27.7675 27.1757 31.0682 31.2327 31.0682C35.2901 31.0682 38.5905 27.7675 38.5905 23.7108C38.5905 19.6537 35.2895 16.353 31.2327 16.353ZM31.2327 28.8709C28.3869 28.8709 26.0723 26.5562 26.0723 23.7104C26.0723 20.8653 28.3869 18.5499 31.2327 18.5499C34.0782 18.5499 36.3932 20.8653 36.3932 23.7104C36.3932 26.5562 34.0782 28.8709 31.2327 28.8709Z" fill="#C73E9B"/>
<path d="M32.8157 21.4498L30.6253 23.6402L29.9184 22.9333C29.4892 22.5048 28.7936 22.5041 28.3648 22.9333C27.9357 23.3624 27.9357 24.058 28.3648 24.4872L29.8483 25.971C30.0543 26.177 30.3338 26.293 30.6253 26.293C30.9164 26.293 31.1959 26.177 31.4019 25.971L34.3695 23.0033C34.7984 22.5742 34.7984 21.8786 34.3695 21.4498C33.9404 21.0206 33.2448 21.0206 32.8157 21.4498Z" fill="#C73E9B"/>
<path d="M9.97754 55.8984C9.68846 55.8984 9.40488 56.0155 9.2006 56.2205C8.99632 56.4244 8.87891 56.708 8.87891 56.9971C8.87891 57.2858 8.99632 57.5697 9.2006 57.7733C9.40488 57.9783 9.68846 58.0957 9.97754 58.0957C10.2663 58.0957 10.5499 57.9783 10.7541 57.7733C10.9584 57.5697 11.0762 57.2858 11.0762 56.9971C11.0762 56.708 10.9584 56.4244 10.7541 56.2205C10.5499 56.0155 10.2663 55.8984 9.97754 55.8984Z" fill="#C73E9B"/>
</svg>
