<svg width="60" height="60" viewBox="0 0 60 60" fill="none" xmlns="http://www.w3.org/2000/svg">
<path d="M55.0292 26.2016C54.1397 26.2028 53.2787 26.5158 52.596 27.086C51.9133 27.6562 51.452 28.4477 51.2924 29.3228H45.8072C45.6434 25.5886 44.1581 22.0341 41.6164 19.2934L45.5071 15.4028C46.2798 15.9477 47.228 16.1846 48.1661 16.067C49.1043 15.9495 49.9648 15.4861 50.5792 14.7674C51.1936 14.0488 51.5177 13.1267 51.4879 12.1817C51.4582 11.2366 51.0768 10.3367 50.4185 9.65814C49.7601 8.97953 48.8722 8.57109 47.9285 8.51276C46.9848 8.45443 46.0533 8.75042 45.3164 9.34278C44.5795 9.93514 44.0902 10.7812 43.9443 11.7154C43.7985 12.6496 44.0065 13.6045 44.5277 14.3934L40.6178 18.3033C37.8615 15.7972 34.3067 14.3483 30.5839 14.2135V8.72337C31.5195 8.57827 32.3673 8.08918 32.9612 7.35186C33.5551 6.61454 33.8524 5.68208 33.7949 4.73706C33.7374 3.79204 33.3292 2.90252 32.6503 2.24264C31.9714 1.58276 31.0706 1.20006 30.1243 1.16947C29.178 1.13887 28.2544 1.46258 27.5343 2.07722C26.8142 2.69186 26.3494 3.55317 26.231 4.4925C26.1125 5.43183 26.349 6.38154 26.894 7.15569C27.4391 7.92984 28.2534 8.47267 29.1777 8.6779V14.223C25.4893 14.413 21.9848 15.8919 19.2753 18.4016L15.3878 14.5141C15.9374 13.7465 16.1807 12.8014 16.0702 11.8638C15.9597 10.9262 15.5032 10.0636 14.7901 9.44487C14.0771 8.82613 13.1588 8.49577 12.215 8.51845C11.2712 8.54114 10.3698 8.91524 9.6873 9.56754C9.00481 10.2198 8.59032 11.1034 8.52496 12.0452C8.4596 12.987 8.74809 13.9193 9.33395 14.6596C9.9198 15.3999 10.7609 15.8949 11.6925 16.0478C12.6241 16.2006 13.5792 16.0002 14.3709 15.4859L18.285 19.4C15.7745 22.1572 14.323 25.7153 14.1882 29.4418H8.72729C8.58862 28.5053 8.10539 27.6543 7.37222 27.0554C6.63906 26.4565 5.70875 26.1528 4.76343 26.2038C3.81812 26.2548 2.92587 26.6568 2.26138 27.3311C1.5969 28.0054 1.20802 28.9034 1.17089 29.8494C1.13377 30.7953 1.45106 31.7211 2.06065 32.4454C2.67024 33.1697 3.52823 33.6404 4.46664 33.7653C5.40505 33.8903 6.3563 33.6604 7.13416 33.1208C7.91201 32.5812 8.46045 31.7707 8.6721 30.848H14.1973C14.3865 34.5276 15.8587 38.0247 18.3581 40.7318L14.4927 44.5973C13.72 44.0524 12.7717 43.8155 11.8336 43.9331C10.8954 44.0506 10.0349 44.514 9.42053 45.2327C8.80612 45.9513 8.48207 46.8734 8.51179 47.8184C8.54152 48.7635 8.92289 49.6633 9.58125 50.342C10.2396 51.0206 11.1275 51.429 12.0712 51.4873C13.0149 51.5457 13.9464 51.2497 14.6833 50.6573C15.4202 50.0649 15.9095 49.2189 16.0554 48.2847C16.2013 47.3505 15.9932 46.3956 15.472 45.6067L19.3546 41.7242C22.084 44.2175 25.603 45.6721 29.2963 45.8337V51.2978C28.3664 51.473 27.5354 51.9889 26.9659 52.7446C26.3965 53.5004 26.1296 54.4414 26.2176 55.3835C26.3055 56.3257 26.742 57.2011 27.4415 57.8383C28.141 58.4755 29.0532 58.8287 29.9994 58.8287C30.9456 58.8287 31.8578 58.4755 32.5573 57.8383C33.2568 57.2011 33.6933 56.3257 33.7812 55.3835C33.8692 54.4414 33.6023 53.5004 33.0329 52.7446C32.4634 51.9889 31.6324 51.473 30.7025 51.2978V45.8337C34.4278 45.6704 37.9746 44.1919 40.7128 41.6608L44.5813 45.5293C44.0413 46.3058 43.8106 47.256 43.9344 48.1937C44.0581 49.1314 44.5274 49.9892 45.2504 50.5991C45.9734 51.209 46.898 51.527 47.8432 51.491C48.7883 51.455 49.686 51.0675 50.3605 50.4044C51.035 49.7412 51.4377 48.8503 51.4897 47.9058C51.5418 46.9614 51.2394 46.0316 50.6419 45.2983C50.0444 44.5651 49.1947 44.0813 48.2592 43.9416C47.3237 43.802 46.3698 44.0165 45.5842 44.5432L41.7046 40.664C44.1938 37.9353 45.6458 34.4192 45.8072 30.7293H51.3019C51.4401 31.4359 51.7763 32.0886 52.2714 32.6115C52.7664 33.1343 53.3998 33.5056 54.0978 33.6822C54.7958 33.8588 55.5296 33.8333 56.2137 33.6088C56.8978 33.3843 57.504 32.97 57.9616 32.4141C58.4192 31.8583 58.7095 31.1838 58.7984 30.4694C58.8874 29.7549 58.7714 29.0298 58.4641 28.3787C58.1568 27.7277 57.6707 27.1773 57.0625 26.7919C56.4544 26.4065 55.7492 26.2019 55.0292 26.2019V26.2016ZM46.0072 10.6097C46.3417 10.2752 46.768 10.0474 47.232 9.95509C47.696 9.86279 48.1769 9.91017 48.614 10.0912C49.0511 10.2723 49.4247 10.5789 49.6875 10.9722C49.9504 11.3656 50.0907 11.8281 50.0907 12.3012C50.0907 12.7743 49.9504 13.2367 49.6875 13.6301C49.4247 14.0235 49.0511 14.3301 48.614 14.5111C48.1769 14.6922 47.696 14.7395 47.232 14.6472C46.768 14.5549 46.3417 14.3271 46.0072 13.9926C45.7841 13.771 45.6071 13.5075 45.4863 13.2172C45.3655 12.9269 45.3033 12.6156 45.3033 12.3012C45.3033 11.9867 45.3655 11.6754 45.4863 11.3851C45.6071 11.0948 45.7841 10.8313 46.0072 10.6097ZM27.6074 4.97009C27.6074 4.49699 27.7477 4.03451 28.0105 3.64115C28.2733 3.24778 28.6469 2.94118 29.084 2.76014C29.5211 2.57909 30.0021 2.53172 30.4661 2.62402C30.9301 2.71631 31.3563 2.94413 31.6908 3.27866C32.0254 3.6132 32.2532 4.03942 32.3455 4.50342C32.4378 4.96743 32.3904 5.44839 32.2093 5.88548C32.0283 6.32256 31.7217 6.69615 31.3283 6.95899C30.935 7.22183 30.4725 7.36212 29.9994 7.36212C29.3652 7.3614 28.7572 7.10916 28.3088 6.66072C27.8603 6.21228 27.6081 5.60427 27.6074 4.97009ZM10.6092 13.9921C10.2747 13.6576 10.0469 13.2314 9.95456 12.7674C9.86227 12.3033 9.90964 11.8224 10.0907 11.3853C10.2717 10.9482 10.5783 10.5746 10.9717 10.3118C11.3651 10.049 11.8275 9.90867 12.3006 9.90867C12.7737 9.90867 13.2362 10.049 13.6296 10.3118C14.0229 10.5746 14.3295 10.9482 14.5106 11.3853C14.6916 11.8224 14.739 12.3033 14.6467 12.7674C14.5544 13.2314 14.3266 13.6576 13.9921 13.9921C13.771 14.2161 13.5076 14.394 13.2173 14.5154C12.9269 14.6368 12.6153 14.6993 12.3006 14.6993C11.9859 14.6993 11.6743 14.6368 11.384 14.5154C11.0936 14.394 10.8303 14.2161 10.6092 13.9921ZM4.96956 32.392C4.49646 32.392 4.03398 32.2517 3.64062 31.9888C3.24725 31.726 2.94066 31.3524 2.75961 30.9153C2.57856 30.4782 2.53119 29.9973 2.62349 29.5333C2.71579 29.0693 2.9436 28.643 3.27814 28.3085C3.61267 27.974 4.03889 27.7462 4.5029 27.6539C4.9669 27.5616 5.44786 27.6089 5.88495 27.79C6.32203 27.971 6.69562 28.2776 6.95846 28.671C7.2213 29.0644 7.36159 29.5268 7.36159 29.9999C7.36088 30.6341 7.10863 31.2421 6.66019 31.6906C6.21175 32.139 5.60374 32.3912 4.96956 32.392ZM13.9916 49.3901C13.6604 49.7221 13.239 49.9495 12.7797 50.0439C12.3204 50.1383 11.8434 50.0956 11.4082 49.9212C10.9729 49.7467 10.5985 49.4482 10.3315 49.0627C10.0646 48.6772 9.91679 48.2217 9.90659 47.7529C9.89638 47.2841 10.0242 46.8226 10.2741 46.4258C10.5241 46.0291 10.8851 45.7145 11.3124 45.5213C11.7396 45.3281 12.2143 45.2647 12.6773 45.339C13.1402 45.4134 13.5712 45.6222 13.9165 45.9394C13.9693 46.0274 14.0414 46.1021 14.1274 46.1581C14.5131 46.6162 14.7131 47.2022 14.6879 47.8005C14.6628 48.3988 14.4143 48.966 13.9916 49.3901ZM32.391 55.0298C32.3915 55.4964 32.2555 55.9531 31.9998 56.3434C31.7441 56.7338 31.3797 57.0408 30.9517 57.2267C30.5236 57.4125 30.0505 57.4691 29.5907 57.3895C29.1309 57.3099 28.7044 57.0975 28.3638 56.7784C28.0232 56.4594 27.7833 56.0478 27.6738 55.5942C27.5642 55.1405 27.5897 54.6648 27.7472 54.2255C27.9046 53.7862 28.1872 53.4025 28.5599 53.1218C28.9327 52.841 29.3795 52.6755 29.8452 52.6455C29.9464 52.6688 30.0515 52.6688 30.1527 52.6455C30.7587 52.6847 31.3272 52.9528 31.7429 53.3955C32.1586 53.8383 32.3904 54.4225 32.3914 55.0298H32.391ZM49.3896 46.0077C49.7241 46.3423 49.9519 46.7685 50.0442 47.2325C50.1365 47.6965 50.0892 48.1775 49.9081 48.6146C49.7271 49.0516 49.4205 49.4252 49.0271 49.6881C48.6337 49.9509 48.1713 50.0912 47.6982 50.0912C47.2251 50.0912 46.7626 49.9509 46.3692 49.6881C45.9759 49.4252 45.6693 49.0516 45.4882 48.6146C45.3072 48.1775 45.2598 47.6965 45.3521 47.2325C45.4444 46.7685 45.6722 46.3423 46.0067 46.0077C46.2278 45.7837 46.4912 45.6059 46.7815 45.4845C47.0719 45.3631 47.3835 45.3006 47.6982 45.3006C48.0129 45.3006 48.3245 45.3631 48.6148 45.4845C48.9052 45.6059 49.1685 45.7837 49.3896 46.0077ZM29.9994 44.4439C27.1478 44.4439 24.3602 43.5983 21.9892 42.014C19.6182 40.4298 17.7702 38.178 16.679 35.5434C15.5877 32.9089 15.3022 30.01 15.8585 27.2131C16.4148 24.4163 17.788 21.8473 19.8044 19.8309C21.8208 17.8145 24.3898 16.4414 27.1866 15.8851C29.9834 15.3287 32.8824 15.6143 35.5169 16.7055C38.1514 17.7968 40.4032 19.6448 41.9875 22.0158C43.5717 24.3868 44.4173 27.1743 44.4173 30.0259C44.413 33.8485 42.8926 37.5132 40.1897 40.2162C37.4867 42.9192 33.822 44.4396 29.9994 44.4439ZM55.0292 32.392C54.5561 32.392 54.0937 32.2517 53.7003 31.9888C53.3069 31.726 53.0003 31.3524 52.8193 30.9153C52.6382 30.4782 52.5909 29.9973 52.6832 29.5333C52.7755 29.0693 53.0033 28.643 53.3378 28.3085C53.6724 27.974 54.0986 27.7462 54.5626 27.6539C55.0266 27.5616 55.5075 27.6089 55.9446 27.79C56.3817 27.971 56.7553 28.2776 57.0181 28.671C57.281 29.0644 57.4213 29.5268 57.4213 29.9999C57.4206 30.6341 57.1683 31.2421 56.7199 31.6906C56.2714 32.139 55.6634 32.3912 55.0292 32.392Z" fill="#C73E9B"/>
<path d="M38.3967 22.5214L38.3945 22.5197C37.3797 21.3778 36.1426 20.455 34.7589 19.8078C33.3751 19.1606 31.8738 18.8027 30.3469 18.7559C30.3038 18.7508 30.2605 18.7498 30.2173 18.7528C30.1448 18.7514 30.0723 18.75 29.9995 18.75C29.9267 18.75 29.8542 18.7514 29.7817 18.7528C29.7387 18.7498 29.6955 18.7508 29.6528 18.7559C28.1256 18.8027 26.6242 19.1607 25.2402 19.808C23.8563 20.4554 22.6191 21.3784 21.6043 22.5205C21.6029 22.5217 21.6015 22.5226 21.6002 22.5238C21.554 22.5644 21.5134 22.611 21.4794 22.6622C19.7187 24.7015 18.75 27.3058 18.75 30C18.75 32.6942 19.7187 35.2985 21.4794 37.3378C21.5134 37.3891 21.554 37.4357 21.6002 37.4763C21.6015 37.4775 21.603 37.4786 21.6046 37.4797C22.6183 38.6207 23.854 39.5429 25.2362 40.1901C26.6185 40.8373 28.1181 41.1958 29.6436 41.2438C29.6733 41.2478 29.7033 41.2499 29.7333 41.2501C29.7478 41.2501 29.762 41.248 29.7764 41.2472C29.8508 41.2486 29.9253 41.25 30.0001 41.25C30.0749 41.25 30.1494 41.2486 30.2238 41.2472C30.2382 41.248 30.2524 41.2501 30.2669 41.2501C30.2969 41.2499 30.3269 41.2478 30.3566 41.2438C31.8821 41.1958 33.3817 40.8373 34.7639 40.1901C36.1462 39.543 37.3819 38.6208 38.3956 37.4798L38.3974 37.4786C38.4448 37.4374 38.4864 37.3901 38.5212 37.3379C40.2816 35.2987 41.2502 32.6945 41.2502 30.0005C41.2502 27.3065 40.2816 24.7022 38.5212 22.663C38.4862 22.6104 38.4444 22.5628 38.3967 22.5214ZM37.8939 35.8737C37.3459 35.3302 36.7428 34.8453 36.0943 34.4269C36.454 33.2163 36.6594 31.9652 36.7057 30.7031H39.8154C39.6838 32.5752 39.0168 34.37 37.8939 35.8737ZM20.1837 30.7031H23.2933C23.3397 31.9688 23.5461 33.2236 23.9078 34.4374C23.2598 34.8541 22.6565 35.3364 22.1074 35.8767C20.9831 34.3724 20.3153 32.5765 20.1837 30.7031ZM22.1073 24.1234C22.6564 24.6639 23.2597 25.1466 23.9075 25.5637C23.5461 26.7772 23.3397 28.0316 23.2933 29.2969H20.1837C20.3153 27.4236 20.9831 25.6277 22.1073 24.1234ZM30.7026 27.3328C32.1345 27.2509 33.537 26.8924 34.8326 26.2771C35.0999 27.2632 35.2562 28.2761 35.2984 29.2969H30.7026V27.3328ZM30.7026 25.9233V20.4915C32.3352 21.4876 33.5906 23.0239 34.3762 24.9356C33.2288 25.5039 31.9803 25.8395 30.7026 25.9233ZM29.2964 20.4915V25.9202C28.0201 25.8306 26.7736 25.4925 25.627 24.9248C26.4136 23.0181 27.6675 21.4853 29.2964 20.4915ZM29.2964 27.3298V29.2969H24.7006C24.743 28.2722 24.9002 27.2555 25.1694 26.2659C26.4644 26.8812 27.8654 27.2423 29.2964 27.3298ZM24.7005 30.7031H29.2964V32.6711C27.8657 32.76 26.4651 33.1213 25.17 33.7357C24.9005 32.7456 24.743 31.7284 24.7005 30.7031ZM29.2964 34.0799V39.5091C27.6668 38.5151 26.4129 36.9821 25.627 35.0754C26.7737 34.5079 28.0201 34.1698 29.2964 34.0799ZM30.7026 39.5091V34.0764C31.9804 34.1599 33.2291 34.4956 34.3765 35.0641C33.5908 36.9761 32.3354 38.5132 30.7026 39.5091ZM30.7026 32.6679V30.7031H35.2985C35.2562 31.7243 35.0998 32.7376 34.8323 33.7241C33.5366 33.1094 32.1344 32.7508 30.7026 32.6679ZM36.7057 29.2969C36.6594 28.0351 36.454 26.7843 36.0944 25.5739C36.7429 25.1552 37.346 24.6701 37.8939 24.1263C39.0167 25.63 39.6837 27.4248 39.8154 29.2969H36.7057ZM36.9723 23.0589C36.5513 23.4852 36.0917 23.8716 35.5994 24.2133C35.0478 22.9044 34.2485 21.7144 33.2456 20.7087C34.6491 21.2011 35.9231 22.0045 36.9722 23.0589H36.9723ZM26.7535 20.7087C25.7528 21.7121 24.9548 22.899 24.4033 24.2045C23.9112 23.8643 23.4511 23.4799 23.0289 23.0561C24.0777 22.003 25.351 21.2005 26.7535 20.7087ZM23.029 36.9435C23.4512 36.5196 23.9112 36.1352 24.4033 35.795C24.9548 37.1006 25.7527 38.2876 26.7534 39.2911C25.3509 38.7991 24.0777 37.9966 23.029 36.9435ZM33.2456 39.2911C34.2484 38.2855 35.0476 37.0958 35.5993 35.7872C36.0915 36.1289 36.551 36.5154 36.9719 36.9417C35.9228 37.9957 34.6489 38.7989 33.2456 39.2911Z" fill="#C73E9B"/>
</svg>
