<svg width="60" height="60" viewBox="0 0 60 60" fill="none" xmlns="http://www.w3.org/2000/svg">
<g clip-path="url(#clip0_48_2090)">
<path fill-rule="evenodd" clip-rule="evenodd" d="M22.939 34.9164H37.057C37.5214 34.9164 37.897 35.292 37.897 35.7564V59.16C37.897 59.6244 37.5214 60 37.057 60H22.939C22.4746 60 22.099 59.6244 22.099 59.16V35.7564C22.099 35.292 22.4758 34.9164 22.939 34.9164ZM48.2374 4.6572V4.1484C48.2374 3.684 48.613 3.3084 49.0774 3.3084C49.5418 3.3084 49.9174 3.684 49.9174 4.1484V4.6572C50.3146 4.7892 50.671 5.0124 50.9614 5.3028C51.4438 5.7852 51.7414 6.4512 51.7414 7.1868C51.7414 7.6512 51.3658 8.0268 50.9014 8.0268C50.437 8.0268 50.0614 7.6512 50.0614 7.1868C50.0614 6.9156 49.951 6.6696 49.7734 6.4908C49.5958 6.312 49.3498 6.2028 49.0774 6.2028C48.8062 6.2028 48.5602 6.3132 48.3814 6.4908C48.2038 6.6684 48.0934 6.9144 48.0934 7.1868C48.0934 7.9128 48.6826 8.0532 49.2706 8.1936C50.5054 8.4876 51.7414 8.7816 51.7414 10.8348C51.7414 11.5704 51.4426 12.2364 50.9614 12.7188C50.6722 13.008 50.3158 13.2312 49.9174 13.3644V13.8732C49.9174 14.3376 49.5418 14.7132 49.0774 14.7132C48.613 14.7132 48.2374 14.3376 48.2374 13.8732V13.3644C47.8402 13.2324 47.4838 13.0092 47.1934 12.7188C46.711 12.2364 46.4134 11.5704 46.4134 10.8348C46.4134 10.3704 46.789 9.9948 47.2534 9.9948C47.7178 9.9948 48.0934 10.3704 48.0934 10.8348C48.0934 11.106 48.2038 11.352 48.3814 11.5308C48.559 11.7084 48.805 11.8188 49.0774 11.8188C49.3486 11.8188 49.5946 11.7084 49.7734 11.5308C49.9522 11.3532 50.0614 11.1072 50.0614 10.8348C50.0614 10.1088 49.4722 9.9684 48.8842 9.828C47.6494 9.534 46.4134 9.24 46.4134 7.1868C46.4134 6.4512 46.711 5.7852 47.1934 5.3028C47.4838 5.0124 47.8402 4.7892 48.2374 4.6572ZM49.0774 0C46.5898 0 44.3374 1.008 42.7066 2.6388C41.0758 4.2696 40.0678 6.522 40.0678 9.0096C40.0678 11.4972 41.0758 13.7496 42.7066 15.3804C44.3374 17.0112 46.5898 18.0192 49.0774 18.0192C51.565 18.0192 53.8174 17.0112 55.4482 15.3804C57.079 13.7496 58.087 11.4972 58.087 9.0096C58.087 6.522 57.079 4.2696 55.4482 2.6388C53.8174 1.008 51.565 0 49.0774 0ZM54.2602 3.8268C52.9342 2.5008 51.1018 1.68 49.0774 1.68C47.053 1.68 45.2206 2.5008 43.8946 3.8268C42.5686 5.1528 41.7478 6.9852 41.7478 9.0096C41.7478 11.034 42.5686 12.8664 43.8946 14.1924C45.2206 15.5184 47.053 16.3392 49.0774 16.3392C51.1018 16.3392 52.9342 15.5184 54.2602 14.1924C55.5862 12.8664 56.407 11.034 56.407 9.0096C56.407 6.9852 55.5862 5.1528 54.2602 3.8268ZM29.1586 17.2188V16.71C29.1586 16.2456 29.5342 15.87 29.9986 15.87C30.463 15.87 30.8386 16.2456 30.8386 16.71V17.2188C31.2358 17.3508 31.5922 17.574 31.8826 17.8644C32.365 18.3468 32.6626 19.0128 32.6626 19.7484C32.6626 20.2128 32.287 20.5884 31.8226 20.5884C31.3582 20.5884 30.9826 20.2128 30.9826 19.7484C30.9826 19.4772 30.8722 19.2312 30.6946 19.0524C30.517 18.8736 30.271 18.7644 29.9986 18.7644C29.7274 18.7644 29.4814 18.8748 29.3026 19.0524C29.125 19.23 29.0146 19.476 29.0146 19.7484C29.0146 20.4744 29.6038 20.6148 30.1918 20.7552C31.4266 21.0492 32.6626 21.3432 32.6626 23.3964C32.6626 24.132 32.3638 24.798 31.8826 25.2804C31.5934 25.5696 31.237 25.7928 30.8386 25.926V26.4348C30.8386 26.8992 30.463 27.2748 29.9986 27.2748C29.5342 27.2748 29.1586 26.8992 29.1586 26.4348V25.926C28.7614 25.794 28.405 25.5708 28.1146 25.2804C27.6322 24.798 27.3346 24.132 27.3346 23.3964C27.3346 22.932 27.7102 22.5564 28.1746 22.5564C28.639 22.5564 29.0146 22.932 29.0146 23.3964C29.0146 23.6676 29.125 23.9136 29.3026 24.0924C29.4802 24.27 29.7262 24.3804 29.9986 24.3804C30.271 24.3804 30.5158 24.27 30.6946 24.0924C30.8722 23.9148 30.9826 23.6688 30.9826 23.3964C30.9826 22.6704 30.3934 22.53 29.8054 22.3896C28.5706 22.0956 27.3346 21.8016 27.3346 19.7484C27.3346 19.0128 27.6322 18.3468 28.1146 17.8644C28.405 17.574 28.7614 17.3508 29.1586 17.2188ZM29.9986 12.5616C27.511 12.5616 25.2586 13.5696 23.6278 15.2004C21.997 16.8312 20.989 19.0836 20.989 21.5712C20.989 24.0588 21.997 26.3112 23.6278 27.942C25.2586 29.5728 27.511 30.5808 29.9986 30.5808C32.4862 30.5808 34.7386 29.5728 36.3694 27.942C38.0002 26.3112 39.0082 24.0588 39.0082 21.5712C39.0082 19.0836 38.0002 16.8312 36.3694 15.2004C34.7386 13.5708 32.4862 12.5616 29.9986 12.5616ZM35.1814 16.3884C33.8554 15.0624 32.023 14.2416 29.9986 14.2416C27.9742 14.2416 26.1418 15.0624 24.8158 16.3884C23.4898 17.7144 22.669 19.5468 22.669 21.5712C22.669 23.5956 23.4898 25.428 24.8158 26.754C26.1418 28.08 27.9742 28.9008 29.9986 28.9008C32.023 28.9008 33.8554 28.08 35.1814 26.754C36.5074 25.428 37.3282 23.5956 37.3282 21.5712C37.3282 19.5468 36.5074 17.7144 35.1814 16.3884ZM10.0798 7.9344V7.4256C10.0798 6.9612 10.4554 6.5856 10.9198 6.5856C11.3842 6.5856 11.7598 6.9612 11.7598 7.4256V7.9344C12.157 8.0664 12.5134 8.2896 12.8038 8.58C13.2862 9.0624 13.5838 9.7284 13.5838 10.464C13.5838 10.9284 13.2082 11.304 12.7438 11.304C12.2794 11.304 11.9038 10.9284 11.9038 10.464C11.9038 10.1928 11.7934 9.9468 11.6158 9.768C11.4382 9.5904 11.1922 9.48 10.9198 9.48C10.6486 9.48 10.4026 9.5904 10.2238 9.768C10.0462 9.9456 9.93576 10.1916 9.93576 10.464C9.93576 11.19 10.525 11.3304 11.113 11.4708C12.3478 11.7648 13.5838 12.0588 13.5838 14.112C13.5838 14.8476 13.285 15.5136 12.8038 15.996C12.5146 16.2852 12.1582 16.5084 11.7598 16.6416V17.1504C11.7598 17.6148 11.3842 17.9904 10.9198 17.9904C10.4554 17.9904 10.0798 17.6148 10.0798 17.1504V16.6416C9.68256 16.5096 9.32616 16.2864 9.03576 15.996C8.55336 15.5136 8.25576 14.8476 8.25576 14.112C8.25576 13.6476 8.63136 13.272 9.09576 13.272C9.56016 13.272 9.93576 13.6476 9.93576 14.112C9.93576 14.3832 10.0462 14.6292 10.2238 14.808C10.4014 14.9856 10.6474 15.096 10.9198 15.096C11.191 15.096 11.437 14.9856 11.6158 14.808C11.7934 14.6304 11.9038 14.3844 11.9038 14.112C11.9038 13.386 11.3146 13.2456 10.7266 13.1052C9.49176 12.8112 8.25576 12.5172 8.25576 10.464C8.25576 9.7284 8.55336 9.0624 9.03576 8.58C9.32616 8.2896 9.68136 8.0664 10.0798 7.9344ZM10.9198 3.2772C8.43216 3.2772 6.17976 4.2852 4.54896 5.916C2.91816 7.5468 1.91016 9.7992 1.91016 12.2868C1.91016 14.7744 2.91816 17.0268 4.54896 18.6576C6.17976 20.2884 8.43216 21.2964 10.9198 21.2964C13.4074 21.2964 15.6598 20.2884 17.2906 18.6576C18.9214 17.0268 19.9294 14.7744 19.9294 12.2868C19.9294 9.7992 18.9214 7.5468 17.2906 5.916C15.6598 4.2852 13.4074 3.2772 10.9198 3.2772ZM16.1026 7.104C14.7766 5.778 12.9442 4.9572 10.9198 4.9572C8.89536 4.9572 7.06296 5.7768 5.73696 7.104C4.41096 8.4312 3.59016 10.2624 3.59016 12.2868C3.59016 14.3112 4.41096 16.1436 5.73696 17.4696C7.06296 18.7956 8.89536 19.6164 10.9198 19.6164C12.9442 19.6164 14.7766 18.7956 16.1026 17.4696C17.4286 16.1436 18.2494 14.3112 18.2494 12.2868C18.2482 10.2624 17.4286 8.43 16.1026 7.104ZM3.86016 25.4568H17.9782C18.4426 25.4568 18.8182 25.8324 18.8182 26.2968V59.16C18.8182 59.6244 18.4426 60 17.9782 60H3.86016C3.39576 60 3.02016 59.6244 3.02016 59.16V26.2968C3.02016 25.8324 3.39696 25.4568 3.86016 25.4568ZM17.1394 27.1368H4.70016V58.32H17.1382V27.1368H17.1394ZM56.137 60H42.0178C41.5534 60 41.1778 59.6244 41.1778 59.16V24.054C41.1778 23.5896 41.5534 23.214 42.0178 23.214H56.1358C56.6002 23.214 56.9758 23.5896 56.9758 24.054V59.16C56.977 59.6244 56.6002 60 56.137 60ZM42.8578 58.32H55.2958V24.894H42.8578V58.32ZM36.2182 36.5964H23.779V58.32H36.217V36.5964H36.2182Z" fill="#C73E9B"/>
</g>
<defs>
<clipPath id="clip0_48_2090">
<rect width="60" height="60" fill="white"/>
</clipPath>
</defs>
</svg>
