<svg width="61" height="60" viewBox="0 0 61 60" fill="none" xmlns="http://www.w3.org/2000/svg">
<g clip-path="url(#clip0_48_1875)">
<path d="M55.3823 42.0672C54.5312 41.5998 53.4625 41.9107 52.9953 42.7615C52.5279 43.6123 52.8386 44.6811 53.6895 45.1484C55.7834 46.2988 56.9844 47.574 56.9844 48.6472C56.9844 49.9598 55.1246 51.9942 49.9047 53.7676C44.7479 55.5198 37.8564 56.4846 30.5 56.4846C23.1436 56.4846 16.2521 55.5198 11.0953 53.7676C5.87539 51.9943 4.01562 49.9598 4.01562 48.6472C4.01562 47.574 5.21656 46.2988 7.31047 45.1483C8.16137 44.681 8.47215 43.6122 8.00469 42.7613C7.53723 41.9106 6.46883 41.5997 5.6177 42.0671C3.28309 43.3497 0.5 45.5325 0.5 48.6472C0.5 51.0348 2.14203 54.4388 9.9643 57.0964C15.4759 58.969 22.7689 60.0002 30.5 60.0002C38.2311 60.0002 45.5241 58.969 51.0357 57.0964C58.858 54.4388 60.5 51.0348 60.5 48.6472C60.5 45.5325 57.7169 43.3497 55.3823 42.0672Z" fill="#0195FF"/>
<path d="M17.2276 51.2264C20.7959 52.2345 25.5091 52.7897 30.4988 52.7897C35.4886 52.7897 40.2017 52.2346 43.7701 51.2264C48.1357 49.9932 50.3492 48.208 50.3492 45.9207C50.3492 43.6334 48.1357 41.8484 43.7701 40.6152C42.8009 40.3414 41.747 40.1013 40.6264 39.8965C40.0178 40.9479 39.3802 42.0301 38.7136 43.1435C39.9539 43.3296 41.1184 43.5578 42.1759 43.8272C45.3887 44.6455 46.5624 45.5667 46.8037 45.9209C46.5623 46.2751 45.3888 47.1963 42.176 48.0145C39.1351 48.789 35.2227 49.2308 31.102 49.2703C30.9024 49.2851 30.7013 49.2934 30.4988 49.2934C30.2962 49.2934 30.0952 49.2851 29.8955 49.2703C25.7749 49.2308 21.8625 48.7891 18.8216 48.0145C15.6088 47.1963 14.4351 46.275 14.1938 45.9209C14.4351 45.5667 15.6089 44.6455 18.8217 43.8272C19.8792 43.5579 21.0437 43.3296 22.2841 43.1435C21.6174 42.0302 20.9798 40.9478 20.3712 39.8965C19.2507 40.1014 18.1966 40.3414 17.2276 40.6152C12.862 41.8484 10.6484 43.6335 10.6484 45.9207C10.6484 48.208 12.862 49.9931 17.2276 51.2264Z" fill="#0195FF"/>
<path d="M30.5008 44.2774C31.5428 44.2774 32.4794 43.7522 33.0234 42.8622C35.8729 38.2002 38.9798 32.823 41.3694 27.9295C42.5646 25.4821 43.5682 23.1802 44.2702 21.165C44.982 19.1214 45.3414 17.4888 45.3414 16.3405C45.3414 8.15875 38.6827 1.5 30.5008 1.5C22.3189 1.5 15.6602 8.15875 15.6602 16.3405C15.6602 17.4888 16.0196 19.1214 16.7314 21.165C17.4334 23.1802 18.437 25.4821 19.6322 27.9295C22.0218 32.823 25.1287 38.2002 27.9782 42.8622M30.5008 44.2774L27.9782 42.8622M30.5008 44.2774C29.4588 44.2774 28.5221 43.7522 27.9782 42.8622M30.5008 44.2774L26.6983 43.6445L27.9782 42.8622M30.5008 7.15078C26.0508 7.15078 22.4328 10.7686 22.4328 15.2186C22.4328 19.6687 26.0508 23.2864 30.5008 23.2864C34.9507 23.2864 38.5688 19.6686 38.5688 15.2186C38.5688 10.7686 34.9507 7.15078 30.5008 7.15078Z" stroke="#0195FF" stroke-width="3"/>
</g>
<defs>
<clipPath id="clip0_48_1875">
<rect width="60" height="60" fill="white" transform="translate(0.5)"/>
</clipPath>
</defs>
</svg>
