<svg width="61" height="60" viewBox="0 0 61 60" fill="none" xmlns="http://www.w3.org/2000/svg">
<g clip-path="url(#clip0_48_1974)">
<path d="M34.25 60H26.75C25 60 23 58.5 23 55.5V50.25C23 47.75 21.75 45.5 19.75 43.75C15.25 40.25 13 35.25 13 29.75C13.25 20.25 21 12.75 30.25 12.5C35 12.5 39.5 14.25 42.75 17.5C46 20.75 48 25.25 48 30C48 35.25 45.75 40.25 41.5 43.5C39.25 45.25 38 48 38 50.5V56.25C38 58.25 36.25 60 34.25 60ZM30.5 15C22.5 15 15.75 21.75 15.5 29.75C15.5 34.5 17.5 39 21.25 41.75C24 44 25.5 47 25.5 50.25V55.5C25.5 56 25.5 57.5 26.75 57.5H34.25C35 57.5 35.5 57 35.5 56.25V50.5C35.5 47.25 37.25 43.75 40 41.5C43.5 38.75 45.5 34.5 45.5 30C45.5 26 44 22.25 41 19.25C38.25 16.5 34.5 15 30.5 15Z" fill="#0195FF"/>
<path d="M36.75 52.5H24.25C23.5 52.5 23 52 23 51.25C23 50.5 23.5 50 24.25 50H36.75C37.5 50 38 50.5 38 51.25C38 52 37.5 52.5 36.75 52.5Z" fill="#0195FF"/>
<path d="M30.5 7.5C29.75 7.5 29.25 7 29.25 6.25V1.25C29.25 0.5 29.75 0 30.5 0C31.25 0 31.75 0.5 31.75 1.25V6.25C31.75 7 31.25 7.5 30.5 7.5Z" fill="#0195FF"/>
<path d="M47.25 14.5C47 14.5 46.5 14.5 46.25 14.25C45.75 13.75 45.75 13 46.25 12.5L49.75 9C50.25 8.5 51 8.5 51.5 9C52 9.5 52 10.25 51.5 10.75L48 14.25C48 14.25 47.5 14.5 47.25 14.5Z" fill="#0195FF"/>
<path d="M59.25 31.25H54.25C53.5 31.25 53 30.75 53 30C53 29.25 53.5 28.75 54.25 28.75H59.25C60 28.75 60.5 29.25 60.5 30C60.5 30.75 60 31.25 59.25 31.25Z" fill="#0195FF"/>
<path d="M50.75 51.5C50.5 51.5 50 51.5 49.75 51.25L46.25 47.75C45.75 47.25 45.75 46.5 46.25 46C46.75 45.5 47.5 45.5 48 46L51.5 49.5C52 50 52 50.75 51.5 51.25C51.5 51.5 51.25 51.5 50.75 51.5Z" fill="#0195FF"/>
<path d="M10.25 51.5C10 51.5 9.5 51.5 9.25 51.25C8.75 50.75 8.75 50 9.25 49.5L12.75 46C13.25 45.5 14 45.5 14.5 46C15 46.5 15 47.25 14.5 47.75L11 51.25C10.75 51.5 10.5 51.5 10.25 51.5Z" fill="#0195FF"/>
<path d="M6.75 31.25H1.75C1 31.25 0.5 30.75 0.5 30C0.5 29.25 1 28.75 1.75 28.75H6.75C7.5 28.75 8 29.25 8 30C8 30.75 7.5 31.25 6.75 31.25Z" fill="#0195FF"/>
<path d="M13.75 14.5C13.5 14.5 13 14.5 12.75 14.25L9.25 10.5C8.75 10 8.75 9.25 9.25 8.75C9.75 8.25 10.5 8.25 11 8.75L14.5 12.25C15 12.75 15 13.5 14.5 14C14.25 14.25 14 14.5 13.75 14.5Z" fill="#0195FF"/>
<path d="M40.5 31.25C39.75 31.25 39.25 30.75 39.25 30C39.25 25.25 35.25 21.25 30.5 21.25C29.75 21.25 29.25 20.75 29.25 20C29.25 19.25 29.75 18.75 30.5 18.75C36.75 18.75 41.75 23.75 41.75 30C41.75 30.75 41.25 31.25 40.5 31.25Z" fill="#0195FF"/>
</g>
<defs>
<clipPath id="clip0_48_1974">
<rect width="60" height="60" fill="white" transform="translate(0.5)"/>
</clipPath>
</defs>
</svg>
