<svg width="61" height="60" viewBox="0 0 61 60" fill="none" xmlns="http://www.w3.org/2000/svg">
<g clip-path="url(#clip0_48_1969)">
<path d="M30.5002 10C19.4543 10 10.5 18.9543 10.5 30.0002C10.5 41.046 19.4543 50.0003 30.5002 50.0003C41.546 50.0003 50.5003 41.046 50.5003 30.0002C50.4875 18.9598 41.5405 10.0128 30.5002 10ZM30.5002 48.0003C20.5589 48.0003 12.5 39.9414 12.5 30.0002C12.5 20.0589 20.5589 12 30.5002 12C40.4414 12 48.5003 20.0589 48.5003 30.0002C48.4884 39.9364 40.4364 47.9884 30.5002 48.0003Z" fill="#0195FF"/>
<path d="M37.6157 20.1171C37.3095 20.0727 37.0412 19.8877 36.8906 19.6172L35.6647 17.4433C35.1278 16.5337 34.1436 15.9826 33.088 16.0004H27.9116C26.8555 15.983 25.8713 16.5342 25.3348 17.4442L24.1089 19.619C23.9583 19.8896 23.691 20.0745 23.3848 20.1194L19.0598 20.7602C17.5936 20.9859 16.5087 22.2429 16.5 23.7261V37.3084C16.5298 38.8218 17.779 40.0257 19.2928 40.0001H41.7068C43.2206 40.0257 44.4698 38.8218 44.4996 37.3084V23.7261C44.4918 22.242 43.406 20.9832 41.9388 20.7584L37.6157 20.1171ZM42.4996 23.7261V37.3084C42.4694 37.7172 42.116 38.0253 41.7068 38.0001H19.2928C18.8836 38.0253 18.5302 37.7172 18.5 37.3084V23.7261C18.5023 23.2313 18.8643 22.8115 19.3537 22.7364L23.6777 22.096C24.5965 21.9614 25.3998 21.4071 25.8517 20.5964L27.0766 18.422C27.262 18.145 27.5788 17.9848 27.9116 18.0004H33.088C33.4217 17.9857 33.7389 18.1478 33.9229 18.427L35.1479 20.6C35.5993 21.4112 36.4031 21.966 37.3218 22.1001L41.6459 22.7401C42.1334 22.8151 42.495 23.2326 42.4996 23.7261Z" fill="#0195FF"/>
<path d="M30.5001 22C26.6343 22 23.5 25.1338 23.5 28.9997C23.5 32.8659 26.6343 35.9998 30.5001 35.9998C34.3659 35.9998 37.5002 32.8659 37.5002 28.9997C37.4957 25.1357 34.3641 22.0041 30.5001 22ZM30.5001 33.9998C27.7389 33.9998 25.5 31.7614 25.5 28.9997C25.5 26.2384 27.7389 24 30.5001 24C33.2614 24 35.5003 26.2384 35.5003 28.9997C35.4966 31.76 33.26 33.9966 30.5001 33.9998Z" fill="#0195FF"/>
<path d="M59.1739 26.321L54.9528 24.814C54.7706 23.9534 54.5431 23.1029 54.2712 22.2661L57.1711 18.8498C57.7191 18.2039 57.8019 17.2833 57.378 16.55L55.5781 13.4399C55.1551 12.7089 54.3179 12.3221 53.4871 12.4741L49.0619 13.2811C48.4768 12.6315 47.8584 12.0131 47.2088 11.4281L48.0168 7.00287C48.1688 6.17157 47.7815 5.33478 47.05 4.9118L43.939 3.11188C43.2071 2.69028 42.2888 2.77359 41.6452 3.32108L38.2298 6.22101C37.393 5.94864 36.542 5.72113 35.681 5.53894L34.179 1.32706C33.8952 0.532837 33.1436 0.00183105 32.2999 0H28.7101C27.8642 0 27.1103 0.531464 26.826 1.32797L25.319 5.5481C24.458 5.72983 23.607 5.95779 22.7702 6.23016L19.3539 3.33023C18.7098 2.7832 17.792 2.69989 17.0601 3.12195L13.9509 4.92187C13.219 5.34439 12.8312 6.18164 12.9832 7.01294L13.7912 11.4381C13.1416 12.0232 12.5232 12.6416 11.9381 13.2912L7.51385 12.4841C6.68256 12.3317 5.84531 12.7185 5.42188 13.45L3.62698 16.5601C3.20218 17.2934 3.28549 18.2149 3.83481 18.8599L6.7352 22.2748C6.46283 23.112 6.23532 23.963 6.05313 24.8241L1.82614 26.321C1.03146 26.6071 0.500916 27.3605 0.5 28.2051V31.7999C0.499543 32.6454 1.03101 33.3994 1.82706 33.6841L6.0481 35.191C6.23029 36.0521 6.45779 36.9031 6.73016 37.7399L3.82977 41.1502C3.28046 41.7952 3.19714 42.7167 3.62195 43.45L5.42188 46.5591C5.84485 47.2906 6.68164 47.6779 7.51294 47.5259L11.9381 46.7189C12.5232 47.3685 13.1416 47.9869 13.7912 48.5719L12.9832 52.9971C12.8312 53.8284 13.2185 54.6652 13.95 55.0882L17.061 56.8881C17.7929 57.3097 18.7112 57.2264 19.3548 56.6789L22.7702 53.779C23.607 54.0514 24.458 54.2789 25.319 54.4611L26.826 58.6812C27.1125 59.4722 27.8637 59.9995 28.7051 60H32.2999C33.1454 60 33.8998 59.4685 34.1841 58.672L35.691 54.4519C36.5521 54.2702 37.4031 54.0427 38.2399 53.7698L41.6562 56.6702C42.3011 57.2145 43.2176 57.2974 43.95 56.878L47.0591 55.0781C47.7911 54.6556 48.1784 53.8184 48.0269 52.9871L47.2189 48.5619C47.8685 47.9768 48.4869 47.3584 49.0719 46.7088L53.4962 47.5159C54.3275 47.6683 55.1648 47.2815 55.5882 46.55L57.3881 43.4399C57.8116 42.7066 57.7287 41.786 57.1812 41.1401L54.2808 37.7238C54.5532 36.8875 54.7807 36.037 54.9629 35.1759L59.1848 33.669C59.9704 33.381 60.4945 32.6363 60.5 31.7999V28.2101C60.5009 27.3637 59.9704 26.6075 59.1739 26.321ZM58.5 28.2051V31.7999L53.7462 33.5001C53.4115 33.6195 53.1657 33.9079 53.0998 34.2572C52.8865 35.4012 52.5853 36.5268 52.1998 37.625C52.0817 37.9605 52.1504 38.3336 52.3811 38.605L55.6491 42.4521L53.8491 45.5621L48.8682 44.653C48.5185 44.5871 48.1605 44.7134 47.9298 44.984C47.1745 45.8629 46.3537 46.6832 45.4748 47.439C45.2057 47.6706 45.0793 48.0276 45.1429 48.3769L46.0521 53.3578L42.9429 55.1578L39.1 51.8788C38.829 51.6481 38.4559 51.579 38.1199 51.6971C37.0227 52.083 35.8966 52.3842 34.7531 52.597C34.4033 52.6625 34.1145 52.9088 33.995 53.2439L32.2999 58H28.7101L27.01 53.2462C26.8905 52.9111 26.6026 52.6648 26.2529 52.5989C25.1089 52.3865 23.9828 52.0853 22.8851 51.6989C22.5491 51.5808 22.176 51.6504 21.905 51.8811L18.058 55.1482L14.9479 53.3542L15.858 48.3719C15.9216 48.0226 15.7953 47.6656 15.5261 47.4339C14.6472 46.6782 13.8269 45.8578 13.0711 44.9789C12.8404 44.7079 12.4824 44.5816 12.1331 44.648L7.15222 45.5571L5.35687 42.447L8.6221 38.6C8.85236 38.329 8.92148 37.9555 8.80292 37.6199C8.41794 36.5213 8.11719 35.3952 7.90295 34.2508C7.83749 33.902 7.59167 33.6136 7.25705 33.4941L2.49997 31.7999V28.2001L7.25385 26.4999C7.58664 26.3814 7.832 26.0966 7.90021 25.7501C8.11398 24.6057 8.41473 23.4796 8.80017 22.381C8.91827 22.0454 8.84961 21.6724 8.6189 21.4009L5.35413 17.5548L7.15405 14.4452L12.135 15.3539C12.4843 15.4207 12.8427 15.2943 13.0729 15.0229C13.8287 14.1444 14.6495 13.3237 15.5279 12.5679C15.7975 12.3363 15.9239 11.9792 15.8598 11.6299L14.9511 6.64902L18.0598 4.85413L21.9 8.12118C22.171 8.3519 22.5441 8.42102 22.8801 8.30292C23.9778 7.91656 25.1039 7.61581 26.2478 7.40295C26.5976 7.33704 26.8855 7.09076 27.005 6.75613L28.7051 1.99997H32.2999L34.0001 6.75384C34.1195 7.08939 34.4084 7.33566 34.7581 7.40112C35.9016 7.61444 37.0272 7.91519 38.125 8.30109C38.461 8.41919 38.834 8.34961 39.105 8.1189L42.9521 4.85184L46.0621 6.64581L45.1521 11.6281C45.088 11.9774 45.2148 12.3344 45.484 12.5661C46.3629 13.3218 47.1832 14.1421 47.939 15.0211C48.1692 15.2921 48.5276 15.4184 48.8769 15.352L53.8578 14.4429L55.6578 17.5529L52.3779 21.4C52.1476 21.671 52.0785 22.0445 52.1971 22.3801C52.5825 23.4782 52.8833 24.6039 53.097 25.7478C53.1625 26.0971 53.4083 26.3855 53.7429 26.505L58.5 28.2001L58.836 27.2589L58.5 28.2051Z" fill="#0195FF"/>
</g>
<defs>
<clipPath id="clip0_48_1969">
<rect width="60" height="60" fill="white" transform="translate(0.5)"/>
</clipPath>
</defs>
</svg>
