<svg width="60" height="60" viewBox="0 0 60 60" fill="none" xmlns="http://www.w3.org/2000/svg">
<g clip-path="url(#clip0_48_2110)">
<mask id="mask0_48_2110" style="mask-type:luminance" maskUnits="userSpaceOnUse" x="0" y="0" width="60" height="60">
<path d="M0 3.8147e-06H60V60H0V3.8147e-06Z" fill="white"/>
</mask>
<g mask="url(#mask0_48_2110)">
<path d="M53.7734 33.6625V59.1211" stroke="#0195FF" stroke-width="2" stroke-miterlimit="10" stroke-linecap="round" stroke-linejoin="round"/>
<path d="M55.9023 31.0615H58.8986" stroke="#0195FF" stroke-width="2" stroke-miterlimit="10" stroke-linecap="round" stroke-linejoin="round"/>
<path d="M27.0239 31.2806C26.1104 31.9449 24.6322 31.9449 23.7188 31.2806" stroke="#0195FF" stroke-width="2" stroke-miterlimit="10" stroke-linecap="round" stroke-linejoin="round"/>
<path d="M30.5503 24.604C29.9091 23.8998 28.8761 23.8998 28.2383 24.604" stroke="#0195FF" stroke-width="2" stroke-miterlimit="10" stroke-linecap="round" stroke-linejoin="round"/>
<path d="M22.5 24.604C21.8623 23.8998 20.8291 23.8998 20.1914 24.604" stroke="#0195FF" stroke-width="2" stroke-miterlimit="10" stroke-linecap="round" stroke-linejoin="round"/>
<path d="M38.4766 31.0615H46.0701H51.6407" stroke="#0195FF" stroke-width="2" stroke-miterlimit="10" stroke-linecap="round" stroke-linejoin="round"/>
<path d="M53.7732 33.1909C54.9458 33.1909 55.9024 32.2343 55.9024 31.0616C55.9024 29.8858 54.9458 28.929 53.7732 28.929C52.6006 28.929 51.6406 29.8858 51.6406 31.0616C51.6406 32.2343 52.6006 33.1909 53.7732 33.1909Z" stroke="#0195FF" stroke-width="2" stroke-miterlimit="10" stroke-linecap="round" stroke-linejoin="round"/>
<path d="M18.3292 44.5513V34.0807C16.3427 35.6354 13.2038 36.8146 12.37 38.8775C11.4 41.2094 11.2073 44.4582 11.5329 46.9131C11.6924 48.1255 12.2671 48.2651 13.1141 47.2918C14.2965 45.9299 15.921 44.827 18.3292 44.5513Z" stroke="#0195FF" stroke-width="2" stroke-miterlimit="10" stroke-linecap="round" stroke-linejoin="round"/>
<path d="M18.3281 37.32V44.5516V59.0947" stroke="#0195FF" stroke-width="2" stroke-miterlimit="10" stroke-linecap="round" stroke-linejoin="round"/>
<path d="M2.67695 45.9833C2.27828 46.9036 2.01261 47.9266 1.90961 49.0693L1.11906 57.7161C1.01933 58.7824 1.32836 59.0815 2.50093 59.0947H18.329H32.41M12.3698 38.8779C9.57285 39.7714 6.93871 40.9608 5.00547 42.7512" stroke="#0195FF" stroke-width="2" stroke-miterlimit="10" stroke-linecap="round" stroke-linejoin="round"/>
<path d="M10.2695 59.0947V54.2016M40.4676 54.2016V59.0947" stroke="#0195FF" stroke-width="2" stroke-miterlimit="10" stroke-linecap="round" stroke-linejoin="round"/>
<path d="M32.4102 51.2984V59.0947" stroke="#0195FF" stroke-width="2" stroke-miterlimit="10" stroke-linecap="round" stroke-linejoin="round"/>
<path d="M18.3281 37.901C18.3281 41.4388 21.4971 44.3354 25.3703 44.3354C25.6028 44.3354 25.832 44.3255 26.0578 44.3056" stroke="#0195FF" stroke-width="2" stroke-miterlimit="10" stroke-linecap="round" stroke-linejoin="round"/>
<path d="M31.0469 39.3029V31.0614C31.0469 29.0184 32.7177 27.3475 34.7605 27.3475C36.8035 27.3475 38.4743 29.0184 38.4743 31.0614V39.3029C38.4743 41.3459 36.8035 43.0166 34.7605 43.0166C32.7177 43.0166 31.0469 41.3459 31.0469 39.3029Z" stroke="#0195FF" stroke-width="2" stroke-miterlimit="10" stroke-linecap="round" stroke-linejoin="round"/>
<path d="M31.0469 37.9478H38.4743" stroke="#0195FF" stroke-width="2" stroke-miterlimit="10" stroke-linecap="round" stroke-linejoin="round"/>
<path d="M43.4251 41.0538C46.3449 42.7846 48.4841 45.2625 48.8329 49.0693L49.6202 57.7163C49.7198 58.7824 49.4109 59.0815 48.2417 59.0947H32.4102" stroke="#0195FF" stroke-width="2" stroke-miterlimit="10" stroke-linecap="round" stroke-linejoin="round"/>
<path d="M36.3053 27.6864C36.4282 27.135 36.4947 26.5935 36.4947 26.0686V19.2422M14.2422 19.2422V26.0686C14.2422 30.0615 17.9958 35.0708 22.5831 36.7716C23.5896 37.1469 24.4798 37.333 25.3701 37.333C26.257 37.333 27.1472 37.1469 28.1537 36.7716C28.2235 36.7484 28.2899 36.7219 28.3596 36.6953" stroke="#0195FF" stroke-width="2" stroke-miterlimit="10" stroke-linecap="round" stroke-linejoin="round"/>
<path d="M30.3993 7.41322C26.5327 5.4699 21.7261 6.16424 18.8263 8.71869C15.0162 8.86154 14.2422 13.4024 14.2422 17.5481V19.2422C16.1124 19.5978 18.8595 18.5181 19.4939 16.5649C20.2479 14.2496 22.0053 14.7479 22.4536 15.2295C26.0012 20.0163 32.4089 21.2122 36.4947 19.2422M36.4947 19.2422C36.4947 21.8633 36.4947 21.8633 36.4947 19.2422ZM36.4947 19.2422C36.4947 15.1299 35.372 12.1037 33.6512 10.0142" stroke="#0195FF" stroke-width="2" stroke-miterlimit="10" stroke-linecap="round" stroke-linejoin="round"/>
<path d="M14.2435 19.2424H10.4766C9.82895 19.2424 9.30078 19.7706 9.30078 20.4184V24.893C9.30078 25.5407 9.82895 26.0688 10.4766 26.0688H14.2435V19.2424Z" stroke="#0195FF" stroke-width="2" stroke-miterlimit="10" stroke-linecap="round" stroke-linejoin="round"/>
<path d="M36.4961 19.2424H40.1235C40.7712 19.2424 41.2994 19.7706 41.2994 20.4184V24.893C41.2994 25.5407 40.7712 26.0688 40.1235 26.0688H36.4961V19.2424Z" stroke="#0195FF" stroke-width="2" stroke-miterlimit="10" stroke-linecap="round" stroke-linejoin="round"/>
<path d="M40.1232 19.2422V15.1795C40.1232 -3.72504 10.4766 -4.05058 10.4766 15.1795V19.2422" stroke="#0195FF" stroke-width="2" stroke-miterlimit="10" stroke-linecap="round" stroke-linejoin="round"/>
<path d="M38.476 34.7654C41.4987 36.1672 43.5949 39.23 43.5949 42.7809C43.5949 47.6608 39.6419 51.6138 34.7623 51.6138C29.8827 51.6138 25.9297 47.6608 25.9297 42.7809C25.9297 39.23 28.0258 36.1672 31.0486 34.7654" stroke="#0195FF" stroke-width="2" stroke-miterlimit="10" stroke-linecap="round" stroke-linejoin="round"/>
</g>
</g>
<defs>
<clipPath id="clip0_48_2110">
<rect width="60" height="60" fill="white"/>
</clipPath>
</defs>
</svg>
