<svg width="60" height="60" viewBox="0 0 60 60" fill="none" xmlns="http://www.w3.org/2000/svg">
<g clip-path="url(#clip0_48_1945)">
<path d="M33.5218 48.6284H8.48609C7.97129 48.6284 7.55469 49.045 7.55469 49.5598C7.55469 50.0746 7.97129 50.4912 8.48609 50.4912H33.5218C34.0366 50.4912 34.4532 50.0746 34.4532 49.5598C34.4531 49.0449 34.0365 48.6284 33.5218 48.6284Z" fill="#0195FF"/>
<path d="M33.5218 40.8027H8.48609C7.97129 40.8027 7.55469 41.2193 7.55469 41.7341C7.55469 42.2489 7.97129 42.6655 8.48609 42.6655H33.5218C34.0366 42.6655 34.4532 42.2489 34.4532 41.7341C34.4532 41.2193 34.0365 40.8027 33.5218 40.8027Z" fill="#0195FF"/>
<path d="M33.5218 32.978H8.48609C7.97129 32.978 7.55469 33.3946 7.55469 33.9094C7.55469 34.4242 7.97129 34.8408 8.48609 34.8408H33.5218C34.0366 34.8408 34.4532 34.4242 34.4532 33.9094C34.4531 33.3945 34.0365 32.978 33.5218 32.978Z" fill="#0195FF"/>
<path d="M8.48609 27.0152H19.556C20.0708 27.0152 20.4874 26.5986 20.4874 26.0837C20.4874 25.5689 20.0708 25.1523 19.556 25.1523H8.48609C7.97129 25.1523 7.55469 25.5689 7.55469 26.0837C7.55469 26.5987 7.97129 27.0152 8.48609 27.0152Z" fill="#0195FF"/>
<path d="M11.5869 17.4551H20.0438C22.2648 17.4551 24.0711 15.6479 24.0711 13.4268C24.0711 11.2057 22.2648 9.39941 20.0438 9.39941H11.5869C9.36586 9.39941 7.55859 11.2057 7.55859 13.4268C7.55859 15.6479 9.36586 17.4551 11.5869 17.4551ZM11.5869 11.2621H20.0438C21.2371 11.2621 22.2084 12.2335 22.2084 13.4268C22.2084 14.6211 21.2371 15.5924 20.0438 15.5924H11.5869C10.3927 15.5924 9.42129 14.6211 9.42129 13.4268C9.42129 12.2335 10.3927 11.2621 11.5869 11.2621Z" fill="#0195FF"/>
<path d="M47.7927 13.6769C47.518 13.4285 47.1241 13.3658 46.7885 13.5131C46.4511 13.6623 46.2337 13.9961 46.2337 14.3653V19.3432C44.645 19.4737 43.1512 19.9358 41.8079 20.6465V12.5846C41.8079 12.3734 41.7077 12.0908 41.5387 11.9224L30.0714 0.465957C29.9018 0.29627 29.6154 0.196777 29.412 0.196777H3.9207C1.86605 0.196777 0.195312 1.86764 0.195312 3.92217V56.0782C0.195312 58.1329 1.86617 59.8036 3.9207 59.8036H38.0826C40.1373 59.8036 41.808 58.1328 41.808 56.0782V32.3478C43.1131 31.4763 44.6245 30.9228 46.2338 30.7696V35.6883C46.2338 36.4971 47.1963 36.9196 47.7918 36.3768L59.4975 25.7207C59.6912 25.5442 59.8021 25.2941 59.8021 25.0322C59.8021 24.7703 59.6921 24.5201 59.4984 24.3437L47.7927 13.6769ZM30.3443 3.37631L38.6237 11.6495H32.207C31.18 11.6495 30.3443 10.8136 30.3443 9.78682V3.37631ZM38.0826 57.9409H3.9207C2.89379 57.9409 2.05801 57.105 2.05801 56.0782V3.92217C2.05801 2.89525 2.89391 2.05947 3.9207 2.05947H28.4817V9.78682C28.4817 11.8415 30.1525 13.5122 32.2071 13.5122H39.9453V21.8767C35.608 25.3796 34.4477 31.3278 36.8602 36.074C37.0194 36.3869 37.3168 36.5561 37.6933 36.5833C38.0444 36.5823 38.3655 36.384 38.5228 36.0694C38.9105 35.2968 39.392 34.5954 39.9453 33.9702V56.0781C39.9453 57.105 39.1094 57.9409 38.0826 57.9409ZM48.0965 33.5809V29.7937C48.0965 29.2788 47.6799 28.8622 47.1651 28.8622C43.2656 28.8622 39.8449 30.8706 37.8697 33.5745C36.0696 27.3199 40.7859 21.1797 47.1669 21.1667C47.6807 21.1657 48.0964 20.7492 48.0964 20.2353V16.4744L57.4873 25.0321L48.0965 33.5809Z" fill="#0195FF"/>
</g>
<defs>
<clipPath id="clip0_48_1945">
<rect width="60" height="60" fill="white"/>
</clipPath>
</defs>
</svg>
