<svg width="60" height="60" viewBox="0 0 60 60" fill="none" xmlns="http://www.w3.org/2000/svg">
<g clip-path="url(#clip0_48_1954)">
<path d="M38.2779 15.5934C39.8934 15.5934 41.2076 14.2791 41.2076 12.6637C41.2076 11.0483 39.8934 9.73389 38.2779 9.73389C36.6625 9.73389 35.3482 11.0483 35.3482 12.6637C35.3482 13.3235 35.5676 13.9328 35.9371 14.4231L31.1235 21.1498C30.8363 21.0555 30.5298 21.0037 30.2113 21.0037C29.4415 21.0037 28.7405 21.3026 28.2171 21.7899L25.0087 19.9693C25.0514 19.7705 25.0744 19.5645 25.0744 19.3532C25.0744 17.7378 23.7602 16.4235 22.1447 16.4235C20.5293 16.4235 19.215 17.7378 19.215 19.3532C19.215 19.5645 19.238 19.7705 19.2808 19.9693L16.0723 21.7899C15.5489 21.3026 14.8479 21.0038 14.0781 21.0038C12.4627 21.0038 11.1484 22.3182 11.1484 23.9336C11.1484 25.549 12.4627 26.8634 14.0781 26.8634C15.6936 26.8634 17.0078 25.549 17.0078 23.9336C17.0078 23.7223 16.9848 23.5163 16.9421 23.3176L20.1505 21.4969C20.6739 21.9842 21.3749 22.2831 22.1447 22.2831C22.9145 22.2831 23.6154 21.9842 24.1389 21.4971L27.3474 23.3177C27.3046 23.5164 27.2816 23.7224 27.2816 23.9337C27.2816 25.5492 28.5959 26.8635 30.2113 26.8635C31.8269 26.8635 33.1411 25.5492 33.1411 23.9337C33.1411 23.2738 32.9216 22.6644 32.5521 22.174L37.3657 15.4474C37.6529 15.5416 37.9594 15.5934 38.2779 15.5934ZM38.2779 11.4917C38.9241 11.4917 39.4498 12.0174 39.4498 12.6637C39.4498 13.3099 38.9241 13.8356 38.2779 13.8356C37.6318 13.8356 37.1061 13.3099 37.1061 12.6637C37.1059 12.0174 37.6316 11.4917 38.2779 11.4917ZM14.0778 25.1054C13.4316 25.1054 12.9059 24.5797 12.9059 23.9334C12.9059 23.2871 13.4316 22.7614 14.0778 22.7614C14.7239 22.7614 15.2496 23.2871 15.2496 23.9334C15.2496 24.5797 14.7239 25.1054 14.0778 25.1054ZM22.1445 20.5251C21.4983 20.5251 20.9726 19.9994 20.9726 19.3531C20.9726 18.7069 21.4983 18.1812 22.1445 18.1812C22.7907 18.1812 23.3164 18.7069 23.3164 19.3531C23.3165 19.9994 22.7907 20.5251 22.1445 20.5251ZM30.2112 25.1054C29.565 25.1054 29.0393 24.5797 29.0393 23.9334C29.0393 23.2871 29.565 22.7614 30.2112 22.7614C30.8575 22.7614 31.3832 23.2871 31.3832 23.9334C31.3832 24.5797 30.8574 25.1054 30.2112 25.1054Z" fill="white"/>
<path d="M49.0777 44.1757H42.927H9.42516H2.48613C2.08453 44.1757 1.75781 43.8489 1.75781 43.4473V7.1873C1.75781 6.7857 2.08453 6.45898 2.48613 6.45898H6.62941C7.1148 6.45898 7.50832 6.06559 7.50832 5.58008C7.50832 5.09457 7.1148 4.70117 6.62941 4.70117H2.48613C1.11527 4.70117 0 5.81645 0 7.1873V43.4473C0 44.8182 1.11527 45.9335 2.48613 45.9335H8.54625V47.8678C8.54625 48.9697 9.44273 49.8662 10.5446 49.8662H19.3424L15.201 57.9519C14.9797 58.3839 15.1505 58.9135 15.5825 59.1349C15.7107 59.2006 15.8476 59.2317 15.9825 59.2317C16.3018 59.2317 16.6099 59.0571 16.7654 58.7532L21.3173 49.8662H31.0348L35.5867 58.7532C35.7423 59.0571 36.0503 59.2317 36.3696 59.2317C36.5045 59.2317 36.6414 59.2004 36.7696 59.1349C37.2016 58.9135 37.3725 58.3839 37.1511 57.9519L33.0097 49.8662H41.8075C42.9094 49.8662 43.8059 48.9698 43.8059 47.8678V45.9335H49.0777C49.563 45.9335 49.9566 45.5401 49.9566 45.0546C49.9566 44.5691 49.563 44.1757 49.0777 44.1757ZM42.048 47.8678C42.048 48.0004 41.9401 48.1084 41.8075 48.1084H10.5446C10.412 48.1084 10.3041 48.0004 10.3041 47.8678V45.9335H42.048V47.8678Z" fill="white"/>
<path d="M10.1445 6.45895H22.1764H30.1746H49.8654C50.267 6.45895 50.5937 6.78566 50.5937 7.18727V15.544C50.5937 16.0295 50.9872 16.4229 51.4726 16.4229C51.958 16.4229 52.3515 16.0295 52.3515 15.544V7.18727C52.3515 5.81641 51.2362 4.70113 49.8654 4.70113H31.0536V2.97355C31.0536 1.75773 30.0644 0.768555 28.8485 0.768555H23.5026C22.2868 0.768555 21.2975 1.75773 21.2975 2.97355V4.70113H10.1445C9.65914 4.70113 9.26562 5.09453 9.26562 5.58004C9.26562 6.06555 9.65914 6.45895 10.1445 6.45895ZM23.0553 2.97355C23.0553 2.72699 23.2559 2.52637 23.5026 2.52637H28.8485C29.095 2.52637 29.2958 2.72699 29.2958 2.97355V4.70113H23.0554V2.97355H23.0553Z" fill="white"/>
<path d="M12.293 31.3564C11.8076 31.3564 11.4141 31.7498 11.4141 32.2354V40.0016C11.4141 40.4871 11.8076 40.8805 12.293 40.8805H15.8586C16.344 40.8805 16.7375 40.4871 16.7375 40.0016V32.2354C16.7375 31.7498 16.344 31.3564 15.8586 31.3564H12.293ZM14.9797 39.1228H13.1719V33.1144H14.9797V39.1228Z" fill="white"/>
<path d="M20.3594 26.8652C19.874 26.8652 19.4805 27.2586 19.4805 27.7441V40.0021C19.4805 40.4876 19.874 40.881 20.3594 40.881H23.925C24.4104 40.881 24.8039 40.4876 24.8039 40.0021V27.7441C24.8039 27.2586 24.4104 26.8652 23.925 26.8652H20.3594ZM23.0462 39.1232H21.2384V28.623H23.0462V39.1232Z" fill="white"/>
<path d="M28.4258 31.3564C27.9404 31.3564 27.5469 31.7498 27.5469 32.2354V40.0016C27.5469 40.4871 27.9404 40.8805 28.4258 40.8805H31.9914C32.4768 40.8805 32.8704 40.4871 32.8704 40.0016V32.2354C32.8704 31.7498 32.4768 31.3564 31.9914 31.3564H28.4258ZM31.1125 39.1228H29.3047V33.1144H31.1125V39.1228Z" fill="white"/>
<path d="M36.4922 36.543C36.0068 36.543 35.6133 36.9364 35.6133 37.4219V40.002C35.6133 40.4875 36.0068 40.8809 36.4922 40.8809H40.0579C40.5432 40.8809 40.9368 40.4875 40.9368 40.002C40.9368 39.5165 40.5432 39.1231 40.0579 39.1231H37.3711V37.4219C37.3711 36.9364 36.9776 36.543 36.4922 36.543Z" fill="white"/>
<path d="M59.5518 45.0023L54.5096 36.2688C55.787 34.9072 56.7173 33.2435 57.2141 31.3891C58.0083 28.4253 57.6007 25.3296 56.0665 22.6722C52.8994 17.1863 45.8598 15.3004 40.3743 18.4674C34.8886 21.6344 33.0025 28.674 36.1696 34.1597C37.7038 36.817 40.1811 38.7178 43.1448 39.5121C44.1346 39.7773 45.1388 39.9084 46.1366 39.9084C47.0088 39.9084 47.8758 39.8081 48.7238 39.6096L53.765 48.3433C54.3829 49.4141 55.5081 50.0133 56.6638 50.0131C57.2302 50.0131 57.804 49.8691 58.3288 49.5663C59.3596 48.9713 60 47.8619 60 46.6711C60 46.0876 59.8451 45.5107 59.5518 45.0023ZM43.5998 37.8142C41.0895 37.1415 38.9913 35.5315 37.6918 33.2808C35.0093 28.6345 36.607 22.6722 41.2531 19.9897C42.7816 19.1073 44.4518 18.6882 46.1016 18.6882C49.4666 18.6882 52.7441 20.4335 54.5441 23.5511C55.8435 25.8018 56.1888 28.4238 55.5161 30.9342C54.8434 33.4446 53.2334 35.5426 50.9827 36.8421C48.7321 38.1416 46.1102 38.4866 43.5998 37.8142ZM57.4503 48.0438C56.6941 48.4804 55.7238 48.2205 55.2875 47.4647L50.4373 39.0618C50.9234 38.8635 51.3994 38.6314 51.8618 38.3645C52.3246 38.0973 52.7629 37.7999 53.1779 37.4778L58.0294 45.881C58.1686 46.1225 58.2422 46.3958 58.2422 46.6712C58.2422 47.2358 57.9387 47.7618 57.4503 48.0438Z" fill="white"/>
<path d="M54.087 30.8919C54.7075 28.8932 54.5597 26.7533 53.6708 24.8666C53.4639 24.4274 52.9403 24.2392 52.5012 24.446C52.062 24.653 51.8737 25.1766 52.0807 25.6157C52.7818 27.104 52.8982 28.7925 52.4082 30.3706C51.9156 31.9573 50.8513 33.2889 49.4114 34.1202C47.8877 35 46.1125 35.2335 44.4131 34.7782C42.7137 34.3228 41.2931 33.2329 40.4135 31.7092C38.5975 28.5638 39.6791 24.5274 42.8245 22.7113C45.1243 21.3837 47.9784 21.5611 50.0961 23.1633C50.4833 23.4563 51.0345 23.38 51.3273 22.9928C51.6202 22.6057 51.5439 22.0545 51.1567 21.7616C48.4741 19.7318 44.8584 19.5072 41.9455 21.1889C40.0152 22.3034 38.6344 24.1029 38.0575 26.2559C37.4805 28.4088 37.7767 30.6577 38.8911 32.588C40.0056 34.5184 41.8051 35.8991 43.9581 36.4761C44.677 36.6688 45.4066 36.7641 46.1314 36.7641C47.5773 36.7641 49.0045 36.3848 50.2902 35.6425C52.1145 34.5894 53.4628 32.9024 54.087 30.8919Z" fill="white"/>
</g>
<defs>
<clipPath id="clip0_48_1954">
<rect width="60" height="60" fill="white"/>
</clipPath>
</defs>
</svg>
