<svg width="60" height="60" viewBox="0 0 60 60" fill="none" xmlns="http://www.w3.org/2000/svg">
<path d="M56.9207 35.4014H50.0371C49.494 35.4014 49.0538 35.8416 49.0538 36.3847C49.0538 36.9277 49.494 37.368 50.0371 37.368H54.5465L37.2532 54.6614L32.2942 49.7022C31.9205 49.3288 31.3184 49.317 30.9306 49.6761L24.9872 55.1792L21.4873 51.6793C21.1033 51.2954 20.4806 51.2954 20.0966 51.6793C19.7126 52.0634 19.7126 52.6861 20.0966 53.0701L24.2657 57.2391C24.4573 57.4307 24.709 57.5271 24.9612 57.5271C25.2006 57.5271 25.4404 57.4401 25.6292 57.2653L31.5726 51.7621L36.5578 56.7474C36.942 57.1313 37.5645 57.1313 37.9486 56.7474L55.9372 38.7588V43.2682C55.9372 43.8112 56.3775 44.2515 56.9206 44.2515C57.4636 44.2515 57.9039 43.8112 57.9039 43.2682V36.3846C57.904 35.8416 57.4637 35.4014 56.9207 35.4014Z" fill="white"/>
<path d="M22.0111 31.9593H29.3864H36.7617C37.3048 31.9593 37.745 31.519 37.745 30.976V19.6672C37.745 18.5828 36.8627 17.7005 35.7783 17.7005H30.3732C30.3824 17.7625 30.3817 17.8262 30.3696 17.89V15.7338C30.3696 14.6494 29.4874 13.7671 28.403 13.7671H22.9944C21.91 13.7671 21.0277 14.6494 21.0277 15.7338V23.1092H15.6191C14.5346 23.1092 13.6523 23.9915 13.6523 25.0759V30.9761C13.6523 31.5191 14.0926 31.9594 14.6357 31.9594L22.0111 31.9593ZM30.3698 19.6672H35.7784V29.9926H30.3698V19.6672ZM22.9945 15.7337H28.4031V29.9925H22.9945V15.7337ZM15.6192 25.0758H21.0278V29.9926H15.6192V25.0758Z" fill="white"/>
<path d="M25.9424 41.7934C35.9738 41.7934 44.1348 33.6324 44.1348 23.6011C44.1348 13.5699 35.9738 5.40869 25.9424 5.40869C15.9112 5.40869 7.75 13.5697 7.75 23.6011C7.75012 33.6322 15.9112 41.7934 25.9424 41.7934ZM25.9424 7.37545C34.8893 7.37545 42.1681 14.6542 42.1681 23.6011C42.1681 32.5479 34.8893 39.8267 25.9424 39.8267C16.9955 39.8267 9.71676 32.5479 9.71676 23.6011C9.71687 14.6542 16.9956 7.37545 25.9424 7.37545Z" fill="white"/>
<path d="M5.53813 59.079C6.61953 59.7035 7.80114 60.0001 8.96832 60C11.349 59.9998 13.6678 58.7653 14.9413 56.5595L20.6853 46.6106C22.3767 46.9969 24.1364 47.2017 25.9431 47.2017C38.9567 47.2017 49.544 36.6144 49.544 23.6009C49.544 10.5873 38.9567 0 25.9431 0C12.9295 0 2.34219 10.5873 2.34219 23.6009C2.34219 29.8425 4.77875 35.525 8.7493 39.7499L3.01848 49.6759C1.12075 52.9631 2.25102 57.1813 5.53813 59.079ZM25.9431 1.96676C37.8723 1.96676 47.5773 11.6718 47.5773 23.601C47.5773 35.5301 37.8723 45.2351 25.9431 45.2351C14.0139 45.2351 4.30883 35.5301 4.30883 23.601C4.30895 11.6718 14.0139 1.96676 25.9431 1.96676ZM4.7218 50.6593L10.2013 41.1687C12.6404 43.3566 15.5359 45.0446 18.7256 46.0716L13.238 55.5762C11.8825 57.924 8.86953 58.7316 6.52145 57.3759C4.1736 56.0203 3.36618 53.0073 4.7218 50.6593Z" fill="white"/>
</svg>
