<svg width="60" height="60" viewBox="0 0 60 60" fill="none" xmlns="http://www.w3.org/2000/svg">
<path d="M55.6751 31.5141H4.32819C3.81046 31.5141 3.39069 31.9338 3.39069 32.4516V35.9261C3.39069 36.3139 3.62952 36.6616 3.9914 36.801L7.79003 38.2632C8.31995 40.2929 9.12456 42.234 10.1873 44.046L8.53417 47.7682C8.37667 48.1226 8.45378 48.5373 8.728 48.8116L13.6418 53.7254C13.916 53.9996 14.3309 54.0765 14.6852 53.9193L18.4087 52.2655C20.2214 53.3283 22.1617 54.1328 24.1897 54.6621L25.6522 58.4618C25.7914 58.8237 26.1392 59.0625 26.5271 59.0625H33.476C33.8639 59.0625 34.2116 58.8237 34.3509 58.4618L35.8131 54.6633C37.8425 54.1336 39.7835 53.3289 41.5958 52.2659L45.318 53.9193C45.6724 54.0769 46.0873 53.9996 46.3615 53.7253L51.2751 48.8114C51.5494 48.5372 51.6265 48.1225 51.469 47.7681L49.8152 44.0446C50.878 42.232 51.6825 40.2919 52.2119 38.2636L56.0117 36.8011C56.3736 36.6619 56.6125 36.3141 56.6125 35.9262V32.4516C56.6126 31.9338 56.1929 31.5141 55.6751 31.5141ZM41.7198 33.3891C41.2405 39.4344 36.168 44.2071 30.0016 44.2071C23.8351 44.2071 18.7626 39.4344 18.2834 33.3891H41.7198ZM54.7376 35.2823L51.0838 36.6888C50.7954 36.7998 50.5801 37.046 50.5085 37.3466C49.9921 39.5167 49.1354 41.5828 47.9624 43.4879C47.8003 43.7511 47.7784 44.0774 47.9039 44.3599L49.4943 47.9408L45.4909 51.9443L41.9114 50.3543C41.6286 50.2287 41.3024 50.2507 41.0392 50.4129C39.1345 51.5862 37.0678 52.4429 34.8963 52.9595C34.5956 53.0311 34.3494 53.2462 34.2384 53.5348L32.8324 57.1875H27.1709L25.7645 53.5337C25.6535 53.2452 25.4073 53.03 25.1066 52.9586C22.9368 52.4422 20.8706 51.5856 18.9653 50.4124C18.7019 50.2502 18.3756 50.2284 18.0933 50.3539L14.5125 51.9443L10.509 47.9409L12.0988 44.3614C12.2243 44.0789 12.2024 43.7527 12.0402 43.4893C10.8674 41.5852 10.0106 39.5182 9.4937 37.3462C9.4221 37.0457 9.20694 36.7995 8.91843 36.6885L5.26569 35.2825V33.3891H16.4038C16.8872 40.4693 22.8008 46.0822 30.0016 46.0822C37.2023 46.0822 43.116 40.4694 43.5994 33.3892H54.7376V35.2823ZM33.0941 12.5606C32.5764 12.5606 32.1566 12.9804 32.1566 13.4981V28.9773C32.1566 29.495 32.5764 29.9148 33.0941 29.9148H37.3871C37.9049 29.9148 38.3246 29.495 38.3246 28.9773V13.4981C38.3246 12.9804 37.9049 12.5606 37.3871 12.5606H33.0941ZM36.4496 28.0398H34.0316V14.4356H36.4496V28.0398ZM42.238 15.4884C41.7203 15.4884 41.3005 15.9082 41.3005 16.4259V28.9772C41.3005 29.4949 41.7203 29.9147 42.238 29.9147H46.5312C47.0489 29.9147 47.4687 29.4949 47.4687 28.9772V16.4259C47.4687 15.9082 47.0489 15.4884 46.5312 15.4884H42.238ZM45.5937 28.0398H43.1755V17.3636H45.5937V28.0398ZM55.6751 6.92906H51.3819C50.8642 6.92906 50.4444 7.34883 50.4444 7.86656V28.9772C50.4444 29.4949 50.8642 29.9147 51.3819 29.9147H55.6751C56.1928 29.9147 56.6126 29.4949 56.6126 28.9772V7.86656C56.6126 7.34883 56.1929 6.92906 55.6751 6.92906ZM54.7376 28.0397H52.3194V8.80406H54.7376V28.0397ZM23.9502 29.9147H28.2432C28.761 29.9147 29.1807 29.4949 29.1807 28.9772V20.7411C29.1807 20.2234 28.761 19.8036 28.2432 19.8036H23.9502C23.4325 19.8036 23.0127 20.2234 23.0127 20.7411V28.9772C23.0127 29.4949 23.4323 29.9147 23.9502 29.9147ZM24.8877 21.6786H27.3057V28.0397H24.8877V21.6786ZM25.35 12.9983C25.0369 12.5859 25.1174 11.9979 25.5298 11.6848L34.6737 4.74176C34.9426 4.53738 35.3007 4.49367 35.6109 4.62703L44.2004 8.32055L50.2452 2.82129L49.2656 2.8248C49.2644 2.8248 49.2633 2.8248 49.2622 2.8248C48.746 2.8248 48.3267 2.40738 48.3247 1.8907C48.3228 1.37285 48.7411 0.951562 49.2588 0.949805L52.6752 0.9375H52.6786C52.9584 0.9375 53.2237 1.06254 53.4019 1.27852C53.5807 1.49543 53.6529 1.78102 53.5983 2.05688L52.9358 5.40832C52.8476 5.85492 52.4557 6.16406 52.0172 6.16418C51.9568 6.16418 51.8958 6.1582 51.8344 6.14613C51.3265 6.04582 50.996 5.5527 51.0964 5.04469L51.208 4.48055L45.0157 10.114C44.7437 10.3612 44.3522 10.4269 44.0146 10.2818L35.3723 6.56555L26.6637 13.1781C26.4942 13.3069 26.295 13.369 26.0974 13.369C25.8143 13.369 25.5344 13.2412 25.35 12.9983ZM4.32819 29.9148H21.25C21.516 29.9148 21.7694 29.8018 21.9472 29.604C22.125 29.4062 22.2104 29.1421 22.1821 28.8776C21.7944 25.2553 19.4055 22.3051 16.1805 21.0704C17.3105 20.1086 18.0293 18.6772 18.0293 17.0804C18.0293 14.1911 15.6785 11.8403 12.7891 11.8403C9.89964 11.8403 7.54886 14.1911 7.54886 17.0804C7.54886 18.6772 8.26757 20.1084 9.39761 21.0704C6.17261 22.305 3.78362 25.2553 3.39597 28.8776C3.36761 29.1422 3.45304 29.4062 3.63081 29.604C3.80859 29.8018 4.06218 29.9148 4.32819 29.9148ZM9.42398 17.0803C9.42398 15.2248 10.9336 13.7152 12.7892 13.7152C14.6448 13.7152 16.1544 15.2248 16.1544 17.0803C16.1544 18.9352 14.6461 20.4443 12.7916 20.4455C12.7908 20.4455 12.79 20.4455 12.7891 20.4455C12.7883 20.4455 12.7876 20.4455 12.7868 20.4455C10.9323 20.4443 9.42398 18.9353 9.42398 17.0803ZM12.7867 22.3206H12.7891H12.7916C16.3134 22.3218 19.3049 24.7164 20.134 28.0398H5.44405C6.27327 24.7162 9.26472 22.3216 12.7867 22.3206Z" fill="white"/>
</svg>
