<svg width="60" height="60" viewBox="0 0 60 60" fill="none" xmlns="http://www.w3.org/2000/svg">
<path d="M57.3379 47.1138C57.3934 47.5635 57.0739 47.9729 56.6243 48.0285L51.878 48.6145C51.8439 48.6187 51.8099 48.6209 51.7764 48.6209C51.3682 48.6209 51.0146 48.3164 50.9633 47.9009L50.3773 43.1545C50.3217 42.705 50.6412 42.2954 51.0908 42.2399C51.5405 42.184 51.9499 42.5039 52.0055 42.9536L52.3443 45.6967C55.5935 41.0911 57.3047 35.695 57.3047 30C57.3047 22.7067 54.4645 15.8498 49.3073 10.6927C44.1502 5.53547 37.2934 2.69531 30.0001 2.69531C23.7057 2.69555 17.5688 4.88391 12.7196 8.85703C12.3693 9.14414 11.8523 9.09281 11.5652 8.74242C11.2781 8.39203 11.3295 7.87523 11.6798 7.58801C16.8213 3.37523 23.3276 1.05492 30 1.05469C37.7316 1.05469 45.0004 4.06547 50.4674 9.5325C55.9345 14.9996 58.9453 22.2684 58.9453 30C58.9453 36.0812 57.1048 41.8413 53.6105 46.7475L56.4232 46.4002C56.873 46.3451 57.2823 46.6642 57.3379 47.1138ZM49.2357 34.2314C47.398 34.2314 46.2495 35.4236 45.7873 36.5391C45.3251 37.6548 45.2943 39.3101 46.5939 40.6096C47.0041 41.0198 47.2302 41.5654 47.2302 42.1458C47.2302 42.7262 47.0043 43.2717 46.5939 43.6821L43.6822 46.5938C42.8351 47.4409 41.4566 47.4409 40.6096 46.5939C39.3098 45.2941 37.6549 45.3251 36.5391 45.7871C35.4234 46.2492 34.2314 47.3978 34.2314 49.2356C34.2314 50.4336 33.2568 51.4083 32.0587 51.4083H27.9414C26.7434 51.4083 25.7687 50.4336 25.7687 49.2356C25.7687 47.3951 24.5773 46.2457 23.4622 45.7839C22.3473 45.3224 20.692 45.2924 19.3905 46.5938C18.5434 47.441 17.1649 47.441 16.3178 46.5938L13.4061 43.6821C12.9959 43.2717 12.7698 42.7262 12.7698 42.1458C12.7698 41.5654 12.9957 41.0198 13.4061 40.6095C14.7056 39.31 14.6748 37.6547 14.2126 36.5391C13.7505 35.4234 12.6019 34.2314 10.7641 34.2314C9.56613 34.2314 8.59137 33.2568 8.59137 32.0587V30.6007C8.59137 29.8171 9.22875 29.1797 10.0123 29.1797H19.5239C20.2771 29.1797 20.9002 29.7688 20.9423 30.5208C21.2133 35.3157 25.1917 39.0721 29.9998 39.0721C34.8079 39.0721 38.7864 35.3157 39.0572 30.5205C39.0995 29.7687 39.7226 29.1797 40.4756 29.1797H49.9871C50.7707 29.1797 51.408 29.8171 51.408 30.6007V32.0587C51.4084 33.2568 50.4337 34.2314 49.2357 34.2314ZM49.7678 30.8203H40.6816C40.2601 36.3841 35.6079 40.7127 30 40.7127C24.3918 40.7127 19.7393 36.3844 19.3182 30.8203H10.2322V32.0587C10.2322 32.3522 10.4709 32.5908 10.7644 32.5908C12.978 32.5908 14.8802 33.8631 15.7286 35.9113C16.577 37.9596 16.1317 40.2043 14.5664 41.7696C14.466 41.87 14.4105 42.0037 14.4105 42.1459C14.4105 42.2882 14.4659 42.4218 14.5664 42.5223L17.478 45.4339C17.6856 45.6414 18.0231 45.6415 18.2306 45.4338C19.2724 44.3919 20.6142 43.8454 21.9983 43.8454C22.6958 43.8454 23.4041 43.9842 24.0901 44.2683C26.1375 45.1163 27.4093 47.0197 27.4093 49.2357C27.4093 49.5292 27.648 49.7678 27.9414 49.7678H32.0587C32.3521 49.7678 32.5908 49.5292 32.5908 49.2357C32.5908 47.0221 33.8631 45.12 35.9113 44.2716C37.9596 43.4235 40.2043 43.8687 41.7696 45.4339C41.9771 45.6414 42.3148 45.6414 42.5222 45.4339L45.4338 42.5223C45.5343 42.4219 45.5897 42.2882 45.5897 42.1459C45.5897 42.0037 45.5344 41.87 45.4339 41.7697C43.8687 40.2043 43.4232 37.9595 44.2717 35.9113C45.1201 33.8631 47.0222 32.5908 49.2359 32.5908C49.5293 32.5908 49.768 32.3522 49.768 32.0587V30.8203H49.7678ZM23.9945 29.657C24.2636 29.3536 24.6513 29.1797 25.0586 29.1797H34.9414C35.3486 29.1797 35.7364 29.3536 36.0055 29.657C36.2745 29.9603 36.4009 30.3661 36.3523 30.7702C35.9668 33.9787 33.2359 36.3983 30 36.3983C26.764 36.3983 24.0332 33.9787 23.6476 30.7702C23.5991 30.3661 23.7255 29.9604 23.9945 29.657ZM34.7234 30.5754C34.7234 30.575 34.7234 30.5748 34.7235 30.5745V30.5743C34.7234 30.5747 34.7234 30.575 34.7234 30.5754ZM25.3126 30.8203C25.7044 33.0819 27.6771 34.7578 30.0001 34.7578C32.323 34.7578 34.2957 33.0818 34.6875 30.8203H25.3126ZM45.1861 15.9326V27.2367C45.1861 27.6898 45.5534 28.057 46.0064 28.057C46.4595 28.057 46.8267 27.6898 46.8267 27.2367V16.7529L49.3868 16.7528C49.722 16.7528 50.0235 16.5489 50.1482 16.2377C50.2729 15.9266 50.1959 15.5709 49.9535 15.3394L44.718 10.3364C44.4011 10.0334 43.9016 10.0334 43.5846 10.3364L38.3491 15.3394C38.1068 15.5709 38.0297 15.9266 38.1545 16.2377C38.2792 16.5487 38.5807 16.7528 38.9159 16.7528L41.4759 16.7529V27.2367C41.4759 27.6898 41.8432 28.057 42.2963 28.057C42.7493 28.057 43.1166 27.6898 43.1166 27.2367V15.9326C43.1166 15.4795 42.7493 15.1123 42.2963 15.1123H40.9615L44.1512 12.0641L47.3409 15.1123H46.0063C45.5532 15.1123 45.1861 15.4794 45.1861 15.9326ZM31.0348 20.3767V27.2367C31.0348 27.6898 31.402 28.057 31.8551 28.057C32.3081 28.057 32.6754 27.6898 32.6754 27.2367V21.197L35.2355 21.1969C35.5706 21.1969 35.8721 20.993 35.9968 20.6818C36.1215 20.3707 36.0445 20.015 35.8022 19.7835L30.5667 14.7805C30.2496 14.4775 29.7503 14.4775 29.4332 14.7805L24.1978 19.7835C23.9555 20.015 23.8784 20.3707 24.0032 20.6818C24.1279 20.9929 24.4294 21.1969 24.7645 21.1969L27.3246 21.197V27.2367C27.3246 27.6898 27.6919 28.057 28.1449 28.057C28.598 28.057 28.9652 27.6898 28.9652 27.2367V20.3767C28.9652 19.9236 28.598 19.5564 28.1449 19.5564H26.8103L30 16.5083L33.1897 19.5565H31.8551C31.402 19.5564 31.0348 19.9236 31.0348 20.3767ZM10.6133 25.6411L13.1734 25.6412V27.2366C13.1734 27.6896 13.5407 28.0569 13.9937 28.0569C14.4468 28.0569 14.814 27.6896 14.814 27.2366V24.8209C14.814 24.3679 14.4468 24.0006 13.9937 24.0006H12.6589L15.8487 20.9524L19.0385 24.0006H17.7039C17.2508 24.0006 16.8836 24.3679 16.8836 24.8209V27.2366C16.8836 27.6896 17.2508 28.0569 17.7039 28.0569C18.1569 28.0569 18.5242 27.6896 18.5242 27.2366V25.6412L21.0843 25.6411C21.4194 25.6411 21.7209 25.4372 21.8456 25.1261C21.9703 24.8149 21.8933 24.4593 21.651 24.2277L16.4154 19.2247C16.0984 18.9217 15.5989 18.9217 15.282 19.2247L10.0465 24.2277C9.80414 24.4593 9.72703 24.8149 9.85184 25.1261C9.97664 25.4372 10.278 25.6411 10.6133 25.6411ZM47.2804 51.1429C42.4309 55.1164 36.2939 57.3047 30 57.3047C14.9441 57.3047 2.69531 45.0558 2.69531 30C2.69531 24.298 4.4052 18.9054 7.65563 14.3014L7.99465 17.0466C8.04598 17.4621 8.39953 17.7666 8.80769 17.7666C8.84121 17.7666 8.8752 17.7645 8.9093 17.7602C9.35895 17.7047 9.6784 17.2951 9.62285 16.8456L9.0368 12.0991C9.01008 11.8832 8.89875 11.6866 8.72719 11.5528C8.55563 11.419 8.33789 11.3587 8.12203 11.3855L3.3757 11.9716C2.92605 12.0272 2.6066 12.4368 2.66215 12.8864C2.7177 13.3361 3.1275 13.6562 3.5768 13.6L6.39 13.2526C4.85379 15.4132 3.62637 17.7635 2.73422 20.2608C1.61977 23.3804 1.05469 26.6572 1.05469 30C1.05469 37.7317 4.06559 45.0004 9.53262 50.4674C14.9996 55.9344 22.2684 58.9453 30 58.9453C36.6721 58.9453 43.1782 56.625 48.3202 52.4119C48.6705 52.1248 48.7219 51.608 48.4348 51.2575C48.1477 50.9072 47.6307 50.8557 47.2804 51.1429Z" fill="white"/>
</svg>
