<?xml version="1.0" encoding="UTF-8"?>
<svg id="Layer_2" data-name="Layer 2" xmlns="http://www.w3.org/2000/svg" viewBox="0 0 69.28 69.63">
  <defs>
    <style>
      .cls-1 {
        fill: none;
        stroke: #0195ff;
        stroke-linecap: round;
        stroke-linejoin: round;
        stroke-width: 2px;
      }

      .cls-2 {
        fill: #0195ff;
        stroke-width: 0px;
      }
    </style>
  </defs>
  <g id="Layer_1-2" data-name="Layer 1">
    <g id="g7403">
      <path id="path7405" class="cls-1" d="m17.41,18.23h-2.73v-5.47h22.7v5.47h-19.96Z"/>
    </g>
    <g id="g7407">
      <g id="g7409">
        <g id="g7415">
          <path id="path7417" class="cls-1" d="m57.2,7.43h0s-3.69-6.43-3.69-6.43h-7.39l-3.69,6.4,3.69,6.32h7.39l3.69-6.28"/>
        </g>
        <g id="g7419">
          <path id="path7421" class="cls-1" d="m53.5,13.72l3.69,6.56h7.39l3.69-6.48-3.69-6.37h-7.39"/>
        </g>
        <g id="g7423">
          <path id="path7425" class="cls-1" d="m54.59,28.34c0,.75-.31,1.44-.8,1.93-.49.49-1.18.8-1.93.8-1.51,0-2.73-1.22-2.73-2.73s1.22-2.73,2.73-2.73,2.73,1.22,2.73,2.73Z"/>
        </g>
        <g id="g7427">
          <path id="path7429" class="cls-1" d="m62.8,36.55c0,1.51-1.22,2.73-2.73,2.73s-2.73-1.22-2.73-2.73c0-.75.31-1.44.8-1.93s1.18-.8,1.93-.8c1.51,0,2.73,1.22,2.73,2.73Z"/>
        </g>
        <g id="g7431">
          <path id="path7433" class="cls-1" d="m58.13,34.61l-4.34-4.34"/>
        </g>
        <g id="g7435">
          <path id="path7437" class="cls-1" d="m53.36,26.06l3.84-5.78"/>
        </g>
        <g id="g7439">
          <path id="path7441" class="cls-1" d="m38.19,3.73c0,1.51-1.22,2.73-2.73,2.73s-2.73-1.22-2.73-2.73,1.22-2.73,2.73-2.73,2.73,1.22,2.73,2.73Z"/>
        </g>
        <g id="g7443">
          <path id="path7445" class="cls-1" d="m37.87,5.01l4.55,2.39"/>
        </g>
        <g id="g7447">
          <path id="path7449" class="cls-1" d="m10.23,45.57h31.58"/>
        </g>
        <g id="g7451">
          <path id="path7453" class="cls-1" d="m28.75,34.63c0,1.51-1.22,2.73-2.73,2.73s-2.73-1.22-2.73-2.73,2.73-5.47,2.73-5.47c0,0,2.73,3.96,2.73,5.47Z"/>
        </g>
        <g id="g7455">
          <path id="path7457" class="cls-2" d="m27.39,68.27c0,.75-.61,1.37-1.37,1.37s-1.37-.61-1.37-1.37.61-1.37,1.37-1.37,1.37.61,1.37,1.37"/>
        </g>
        <g id="g7459">
          <path id="path7461" class="cls-1" d="m34.63,18.23v13.67l15.92,30.32c.31.58.49,1.24.49,1.94,0,2.27-1.84,4.1-4.1,4.1h-14.77"/>
        </g>
        <g id="g7463">
          <path id="path7465" class="cls-1" d="m19.87,68.27H5.1c-2.27,0-4.1-1.84-4.1-4.1,0-.7.18-1.37.49-1.94l15.92-30.32v-13.67"/>
        </g>
      </g>
    </g>
  </g>
</svg>