<?xml version="1.0" encoding="UTF-8"?>
<svg id="Layer_2" data-name="Layer 2" xmlns="http://www.w3.org/2000/svg" viewBox="0 0 31.27 47">
  <defs>
    <style>
      .cls-1 {
        fill: none;
        stroke: #6a26da;
        stroke-linecap: round;
        stroke-linejoin: round;
        stroke-width: 2px;
      }
    </style>
  </defs>
  <g id="Layer_1-2" data-name="Layer 1">
    <g>
      <path class="cls-1" d="m1,29.24v-8.75c0-.61.49-1.1,1.1-1.1h5.12c.61,0,1.1.49,1.1,1.1v10.78c0,4.03,3.22,7.37,7.24,7.41,4.07.04,7.39-3.26,7.39-7.32v-10.88c0-.61.49-1.1,1.1-1.1h5.12c.61,0,1.1.49,1.1,1.1v1.46"/>
      <path class="cls-1" d="m30.27,25.11v6.25c0,4.04-1.64,7.7-4.29,10.35s-6.31,4.29-10.35,4.29c-7.73,0-14.06-6-14.6-13.59"/>
      <line class="cls-1" x1="22.95" y1="27.16" x2="30.27" y2="27.16"/>
      <line class="cls-1" x1="1" y1="27.16" x2="8.32" y2="27.16"/>
      <circle class="cls-1" cx="24.41" cy="3.93" r="2.93"/>
      <path class="cls-1" d="m21.12,12.34h8.78v-2.56c0-1.62-1.31-2.93-2.93-2.93h-5.12c-.69,0-1.33.24-1.83.64"/>
      <path class="cls-1" d="m9.78,3.93c0,1.62-1.31,2.93-2.93,2.93s-2.93-1.31-2.93-2.93,1.31-2.93,2.93-2.93,2.93,1.31,2.93,2.93Z"/>
      <path class="cls-1" d="m10.15,12.34H1.37v-2.56c0-1.62,1.31-2.93,2.93-2.93h5.12c.69,0,1.33.24,1.83.64"/>
      <circle class="cls-1" cx="15.63" cy="3.93" r="2.93"/>
      <path class="cls-1" d="m17.28,14.17h3.84v-4.39c0-1.62-1.31-2.93-2.93-2.93h-5.12c-1.62,0-2.93,1.31-2.93,2.93v4.39h3.96"/>
      <g>
        <line class="cls-1" x1="12.71" y1="23.68" x2="12.71" y2="19.84"/>
        <line class="cls-1" x1="15.63" y1="17.1" x2="15.63" y2="23.68"/>
        <line class="cls-1" x1="18.56" y1="19.84" x2="18.56" y2="23.68"/>
      </g>
    </g>
  </g>
</svg>