<?xml version="1.0" encoding="UTF-8"?>
<svg id="Layer_2" data-name="Layer 2" xmlns="http://www.w3.org/2000/svg" viewBox="0 0 45.68 44.69">
  <defs>
    <style>
      .cls-1 {
        fill: none;
        stroke: #6a26da;
        stroke-linecap: round;
        stroke-linejoin: round;
        stroke-width: 2px;
      }
    </style>
  </defs>
  <g id="Layer_1-2" data-name="Layer 1">
    <g id="g6174">
      <g id="g6176">
        <g id="g6178">
          <g id="g6184">
            <path id="path6186" class="cls-1" d="m37.29,11.79h3.08c1.37,0,2.49,1.11,2.49,2.49v24.34H2.83V14.28c0-1.37,1.11-2.49,2.49-2.49h3.08"/>
          </g>
          <g id="g6188">
            <path id="path6190" class="cls-1" d="m9.38,35.54h-3.48V14.86h7.22"/>
          </g>
          <g id="g6192">
            <path id="path6194" class="cls-1" d="m32.56,14.86h7.22v20.68H12.02"/>
          </g>
          <g id="g6196">
            <path id="path6198" class="cls-1" d="m25.21,41.15h-4.74c-1.36,0-2.46-1.1-2.46-2.46v-.07h9.67v.07c0,1.36-1.1,2.46-2.46,2.46Z"/>
          </g>
          <g id="g6200">
            <path id="path6202" class="cls-1" d="m44.68,38.62H1v1.46c0,2,1.62,3.62,3.62,3.62h36.45c2,0,3.62-1.62,3.62-3.62v-1.46Z"/>
          </g>
          <g id="g6204">
            <path id="path6206" class="cls-1" d="m32.56,14.3v3.71c0,2.22-1.32,4.23-3.37,5.08-4.06,1.69-8.63,1.69-12.69,0-2.05-.85-3.37-2.86-3.37-5.08v-3.71"/>
          </g>
          <g id="g6208">
            <path id="path6210" class="cls-1" d="m28.73,3.62l8.62,4.57c1.43.76,1.43,2.81,0,3.57l-12.75,6.75c-1.1.58-2.42.58-3.53,0l-12.75-6.75c-1.43-.76-1.43-2.81,0-3.57L21.08,1.44c1.1-.58,2.42-.58,3.53,0l1.82.97"/>
          </g>
          <g id="g6212">
            <path id="path6214" class="cls-1" d="m22.84,9.97l5.67,6.47v8.76"/>
          </g>
          <g id="g6216">
            <path id="path6218" class="cls-1" d="m28.51,25.2l-1.43,2.48c-.52.89.13,2.01,1.16,2.01h.54c1.03,0,1.68-1.12,1.16-2.01l-1.43-2.48Z"/>
          </g>
          <g id="g6220">
            <path id="path6222" class="cls-1" d="m9.18,32.46h13.2"/>
          </g>
          <g id="g6224">
            <path id="path6226" class="cls-1" d="m9.18,29.69h8.82"/>
          </g>
        </g>
      </g>
    </g>
  </g>
</svg>