<?xml version="1.0" encoding="UTF-8"?>
<svg id="Layer_2" data-name="Layer 2" xmlns="http://www.w3.org/2000/svg" viewBox="0 0 40.92 43.3">
  <defs>
    <style>
      .cls-1 {
        fill: none;
        stroke-linecap: round;
        stroke-linejoin: round;
      }

      .cls-1, .cls-2 {
        stroke: #6a26da;
        stroke-width: 2px;
      }

      .cls-2 {
        fill: #6a26da;
        stroke-miterlimit: 10;
      }
    </style>
  </defs>
  <g id="Layer_1-2" data-name="Layer 1">
    <g>
      <g id="g3106">
        <g id="g3112">
          <path id="path3114" class="cls-1" d="m33.35,11.36l4.06,2.13-.78-4.52,3.28-3.2-4.54-.66-2.03-4.11-2.03,4.11-4.54.66,3.28,3.2-.78,4.52,4.06-2.13Z"/>
        </g>
      </g>
      <path id="path3118" class="cls-1" d="m25.18,11.46l-1.86,1.86"/>
      <path id="path3126" class="cls-1" d="m33.35,19.55l-1.87,1.87"/>
      <path id="path3130" class="cls-1" d="m26.11,17.26l-1.86,1.86"/>
      <g id="g3142">
        <g id="g3148">
          <path id="path3150" class="cls-2" d="m5.75,38.43c0,.49-.39.88-.88.88s-.88-.39-.88-.88.39-.88.88-.88.88.39.88.88"/>
        </g>
        <g id="g3152">
          <path id="path3154" class="cls-1" d="m8.04,40.79c4.98,2.62,11.28,1.84,15.46-2.35l9.85-9.85-5.59-5.59-9.85,9.85c-2.06,2.06-5.4,2.06-7.46,0s-2.06-5.4,0-7.46l9.85-9.85-5.59-5.59-9.85,9.85C.68,23.98-.11,30.28,2.51,35.25"/>
        </g>
      </g>
    </g>
  </g>
</svg>