<svg width="197" height="218" viewBox="0 0 197 218" fill="none" xmlns="http://www.w3.org/2000/svg">
<path d="M155 189L166.102 189L161.95 178.5L166.102 168H150.5L155 173V189Z" fill="#0460B5"/>
<path d="M42.1015 189L31 189L35.1518 178.5L31 168H46.6016L42.1015 173V189Z" fill="#0460B5"/>
<path d="M153 174H44V195H153V174Z" fill="#0460B5"/>
<path d="M58.6364 181.545C59.1818 181.818 59.6364 182.273 59.9091 182.727C60.1818 183.273 60.3636 183.909 60.3636 184.455C60.3636 185.091 60.1818 185.636 59.9091 186.182C59.6364 186.727 59.1818 187.091 58.6364 187.364C58.0909 187.636 57.4545 187.818 56.8182 187.818H54V181H56.8182C57.4545 181.091 58.0909 181.182 58.6364 181.545ZM58 186.455C58.3636 186.273 58.6364 186 58.8182 185.636C59.1818 184.909 59.1818 184 58.8182 183.273C58.6364 182.909 58.3636 182.636 58 182.455C57.6364 182.273 57.2727 182.182 56.8182 182.182H55.2727V186.727H56.8182C57.1818 186.727 57.6364 186.636 58 186.455Z" fill="white"/>
<path d="M61.4548 181.092H66.4548V182.183H62.8185V183.91H66.0912V185.001H62.8185V186.728H66.6367V187.819H61.4548V181.092Z" fill="white"/>
<path d="M71.1819 182.365C70.9092 182.274 70.5455 182.183 70.1819 182.183C69.9092 182.183 69.6364 182.274 69.4546 182.365C69.2728 182.455 69.1819 182.637 69.1819 182.819C69.1819 183.001 69.2728 183.183 69.3637 183.274C69.4546 183.365 69.6364 183.546 69.8183 183.546C70.091 183.637 70.3637 183.728 70.6364 183.819C71.0001 183.91 71.3637 184.092 71.7273 184.183C72.0001 184.365 72.2728 184.546 72.4546 184.819C72.6364 185.092 72.8183 185.455 72.7273 185.91C72.7273 186.274 72.6364 186.728 72.3637 187.001C72.091 187.274 71.8183 187.546 71.4546 187.728C71.0001 187.91 70.5455 188.001 70.091 188.001C69.5455 188.001 69.0001 187.91 68.5455 187.728C68.091 187.546 67.6364 187.274 67.1819 186.91L67.7273 185.819C68.091 186.092 68.4546 186.365 68.9092 186.546C69.2728 186.728 69.7273 186.819 70.091 186.819C70.3637 186.819 70.7273 186.728 70.9092 186.637C71.2728 186.455 71.2728 186.001 71.091 185.637L71.0001 185.546C70.8183 185.455 70.7273 185.274 70.5455 185.274C70.3637 185.183 70.091 185.092 69.7273 185.001C69.3637 184.91 69.0001 184.728 68.6364 184.637C68.3637 184.546 68.091 184.274 67.9092 184.092C67.7273 183.819 67.5455 183.455 67.6364 183.092C67.6364 182.728 67.7273 182.365 67.9092 182.092C68.1819 181.819 68.4546 181.546 68.8182 181.365C69.2728 181.183 69.7273 181.092 70.1819 181.092C70.6364 181.092 71.091 181.183 71.4546 181.274C71.8183 181.365 72.2728 181.546 72.6364 181.819L72.091 182.91C71.9092 182.637 71.5455 182.455 71.1819 182.365Z" fill="white"/>
<path d="M74.0911 181.092H75.3638V187.91H74.0911V181.092Z" fill="white"/>
<path d="M81.6367 184.455H82.7276V187.091C82.3639 187.364 81.9094 187.545 81.4548 187.727C81.0003 187.909 80.5457 188 80.0003 188C79.3639 188 78.7276 187.818 78.1821 187.545C77.6367 187.273 77.1821 186.818 76.9094 186.273C76.5457 185.727 76.4548 185.091 76.4548 184.455C76.4548 183.818 76.6367 183.182 76.9094 182.727C77.273 182.182 77.7276 181.727 78.273 181.455C78.8185 181.182 79.4548 181 80.0912 181C80.5457 181 81.0912 181.091 81.5457 181.273C82.0003 181.455 82.4548 181.636 82.7276 182L82.0003 183C81.7276 182.727 81.4548 182.545 81.0912 182.455C80.7276 182.364 80.4548 182.273 80.0912 182.273C79.6367 182.273 79.273 182.364 78.9094 182.545C77.8185 183.182 77.4548 184.636 78.0912 185.727C78.5457 186.455 79.273 186.909 80.0912 186.909C80.3639 186.909 80.5457 186.909 80.8185 186.818C81.0912 186.727 81.3639 186.636 81.5457 186.455L81.6367 184.455Z" fill="white"/>
<path d="M89.0913 181.092H90.364V187.91H89.1822L85.6367 183.183V187.91H84.364V181.092H85.6367L89.1822 185.819L89.0913 181.092Z" fill="white"/>
<path d="M96.273 187.91L95.0912 185.91H93.273V187.91H92.0002V181.092H94.8184C95.5457 181.001 96.273 181.274 96.9093 181.637C97.3639 182.092 97.6366 182.728 97.6366 183.365C97.6366 183.819 97.5457 184.274 97.273 184.728C97.0002 185.092 96.6366 185.365 96.273 185.546L97.8184 187.819L96.273 187.91ZM93.273 184.728H94.8184C95.273 184.728 95.6366 184.637 96.0002 184.365C96.273 184.092 96.3639 183.819 96.3639 183.455C96.3639 183.092 96.273 182.728 96.0002 182.546C95.6366 182.365 95.273 182.183 94.9093 182.274H93.273V184.728Z" fill="white"/>
<path d="M100.637 186.365C101 186.637 101.455 186.819 101.818 186.819C102.273 186.819 102.727 186.637 103 186.365C103.273 186.001 103.455 185.546 103.455 185.092V181.092H104.727V185.092C104.727 185.637 104.637 186.183 104.364 186.637C104.091 187.092 103.727 187.455 103.364 187.637C102.909 187.91 102.364 188.001 101.818 188.001C101.273 188.001 100.727 187.91 100.182 187.637C99.7275 187.455 99.3638 187.092 99.182 186.637C98.9093 186.183 98.8184 185.637 98.8184 185.092V181.092H100.091V185.092C100.182 185.546 100.364 186.001 100.637 186.365Z" fill="white"/>
<path d="M109.637 182.365C109.364 182.274 109 182.183 108.637 182.183C108.364 182.183 108.091 182.274 107.909 182.365C107.728 182.455 107.637 182.637 107.637 182.819C107.637 183.001 107.728 183.183 107.818 183.274C107.909 183.365 108.091 183.546 108.273 183.546C108.546 183.637 108.818 183.728 109.091 183.819C109.455 183.91 109.818 184.092 110.182 184.183C110.455 184.365 110.728 184.546 110.909 184.819C111.091 185.092 111.273 185.455 111.182 185.91C111.182 186.274 111.091 186.728 110.818 187.001C110.546 187.274 110.273 187.546 109.909 187.728C109.455 187.91 109 188.001 108.546 188.001C108 188.001 107.455 187.91 107 187.728C106.546 187.546 106.091 187.274 105.637 186.91L106.182 185.819C106.546 186.092 106.909 186.365 107.364 186.546C107.728 186.728 108.182 186.819 108.546 186.819C108.818 186.819 109.182 186.728 109.364 186.637C109.728 186.455 109.728 186.001 109.546 185.637L109.455 185.546C109.273 185.455 109.182 185.274 109 185.274C108.818 185.183 108.546 185.092 108.182 185.001C107.818 184.91 107.455 184.728 107.091 184.637C106.818 184.546 106.546 184.274 106.364 184.092C106.182 183.819 106 183.455 106.091 183.092C106.091 182.728 106.182 182.365 106.364 182.092C106.637 181.819 106.909 181.546 107.273 181.365C107.728 181.183 108.182 181.092 108.637 181.092C109.091 181.092 109.546 181.183 109.909 181.274C110.273 181.365 110.728 181.546 111.091 181.819L110.546 182.91C110.364 182.637 110 182.455 109.637 182.365Z" fill="white"/>
<path d="M112.546 181.092H113.819V184.001H117.182V181.092H118.455V187.91H117.182V185.183H113.819V187.91H112.546V181.092Z" fill="white"/>
<path d="M120.91 186.727C121 186.818 121.091 186.999 121.091 187.272C121.091 187.454 121 187.636 120.91 187.818C120.819 187.909 120.637 187.999 120.455 187.999C120.273 187.999 120.091 187.909 120 187.818C119.91 187.636 119.819 187.454 119.819 187.272C119.819 187.09 119.91 186.909 120 186.727C120.091 186.636 120.273 186.545 120.455 186.545C120.637 186.545 120.819 186.636 120.91 186.727Z" fill="white"/>
<path d="M124.545 183.728C124.182 183.728 123.818 183.909 123.545 184.182C123.273 184.455 123.182 184.909 123.182 185.273C123.182 185.728 123.273 186.091 123.545 186.364C123.818 186.637 124.182 186.819 124.545 186.819C125.091 186.819 125.636 186.637 125.909 186.182L126.727 186.819C126.454 187.182 126.182 187.455 125.818 187.637C125.364 187.819 124.909 187.909 124.454 187.909C124 187.909 123.545 187.819 123.091 187.546C122.727 187.364 122.364 187 122.182 186.637C121.727 185.819 121.727 184.728 122.182 183.909C122.364 183.546 122.727 183.182 123.091 183C123.545 182.819 124 182.637 124.454 182.637C124.909 182.637 125.364 182.728 125.727 182.909C126.091 183.091 126.364 183.273 126.636 183.637L125.909 184.364C125.636 184 125.091 183.728 124.545 183.728Z" fill="white"/>
<path d="M131.364 183C131.728 183.182 132.091 183.546 132.364 183.909C132.637 184.364 132.728 184.819 132.728 185.273C132.728 185.728 132.637 186.273 132.364 186.637C132.091 187 131.819 187.364 131.364 187.546C130.909 187.728 130.455 187.909 129.909 187.909C129.364 187.909 128.909 187.819 128.455 187.546C128.091 187.364 127.728 187 127.455 186.637C127.182 186.182 127.091 185.728 127.091 185.273C127.091 184.819 127.182 184.273 127.455 183.909C127.728 183.546 128 183.182 128.455 183C128.909 182.728 129.364 182.637 129.909 182.637C130.455 182.637 130.909 182.728 131.364 183ZM128.909 184.182C128.364 184.819 128.364 185.819 128.909 186.455C129.182 186.728 129.546 186.909 130 186.909C130.364 186.909 130.819 186.728 131.091 186.455C131.637 185.819 131.637 184.819 131.091 184.182C130.819 183.909 130.455 183.728 130 183.728C129.546 183.728 129.182 183.819 128.909 184.182Z" fill="white"/>
<path d="M142 183.181C142.364 183.545 142.546 184.09 142.546 184.636V187.909H141.273V184.999C141.273 184.636 141.182 184.363 141 184.09C140.819 183.909 140.455 183.727 140.182 183.727C139.819 183.727 139.455 183.909 139.182 184.181C138.909 184.454 138.819 184.818 138.819 185.272V187.818H137.546V184.999C137.546 184.636 137.455 184.363 137.273 184.09C137.091 183.909 136.728 183.727 136.455 183.727C136.091 183.727 135.728 183.909 135.455 184.181C135.182 184.454 135.091 184.909 135.182 185.272V187.818H133.909V182.636H135.182V183.636C135.819 182.636 137.182 182.363 138.182 182.909C138.455 183.09 138.728 183.454 138.819 183.818C139.091 182.999 139.909 182.545 140.728 182.545C141.182 182.545 141.637 182.818 142 183.181Z" fill="white"/>
<path d="M11.0833 130V120.976H14.3153V119.328H5.97925V120.976H9.21125V130H11.0833ZM20.4874 130.192C23.6714 130.192 25.9434 127.856 25.9434 124.672C25.9434 121.488 23.6714 119.152 20.4874 119.152C17.2874 119.152 15.0314 121.488 15.0314 124.672C15.0314 127.856 17.2874 130.192 20.4874 130.192ZM20.4874 128.528C18.3274 128.528 16.9514 126.864 16.9514 124.672C16.9514 122.464 18.3274 120.816 20.4874 120.816C22.6314 120.816 24.0234 122.464 24.0234 124.672C24.0234 126.864 22.6314 128.528 20.4874 128.528ZM29.6018 130V126H32.4338C34.6578 126 35.9058 124.48 35.9058 122.672C35.9058 120.848 34.6737 119.328 32.4338 119.328H27.7298V130H29.6018ZM32.1778 124.352H29.6018V120.976H32.1778C33.2338 120.976 33.9858 121.648 33.9858 122.672C33.9858 123.68 33.2338 124.352 32.1778 124.352ZM45.5888 130C48.9167 130 51.1568 127.808 51.1568 124.656C51.1568 121.536 48.9167 119.328 45.5728 119.328H41.6048V130H45.5888ZM45.5728 128.352H43.4768V120.976H45.5888C47.9568 120.976 49.2368 122.608 49.2368 124.656C49.2368 126.688 47.8928 128.352 45.5728 128.352ZM54.8361 130V119.328H52.9641V130H54.8361ZM62.2408 130.208C64.0808 130.208 65.5848 129.424 66.6248 128.256V124.272H61.5688V125.92H64.7688V127.568C64.2888 128.032 63.3288 128.528 62.2408 128.528C60.1288 128.528 58.5608 126.896 58.5608 124.672C58.5608 122.416 60.1288 120.816 62.2408 120.816C63.4248 120.816 64.4328 121.44 65.0087 122.24L66.5288 121.36C65.6808 120.144 64.3208 119.152 62.2408 119.152C59.1368 119.152 56.6408 121.312 56.6408 124.672C56.6408 128.016 59.1368 130.208 62.2408 130.208ZM70.4455 130V119.328H68.5735V130H70.4455ZM77.1301 130V120.976H80.3621V119.328H72.0261V120.976H75.2581V130H77.1301ZM90.5176 130L86.3256 119.328H83.9896L79.7976 130H81.9256L82.7096 127.936H87.6056L88.3896 130H90.5176ZM87.0776 126.288H83.2376L85.1576 121.2L87.0776 126.288ZM98.1153 130V128.352H93.4113V119.328H91.5393V130H98.1153ZM114.974 130V119.328H112.334L109.438 126.656L106.526 119.328H103.886V130H105.758V121.76L109.038 130H109.838L113.102 121.76V130H114.974ZM126.861 130L122.669 119.328H120.333L116.141 130H118.269L119.053 127.936H123.949L124.733 130H126.861ZM123.421 126.288H119.581L121.501 121.2L123.421 126.288ZM136.283 130L133.659 125.808C134.955 125.6 136.203 124.56 136.203 122.672C136.203 120.688 134.811 119.328 132.699 119.328H128.011V130H129.883V126.016H131.755L134.107 130H136.283ZM132.459 124.368H129.883V120.976H132.459C133.515 120.976 134.283 121.632 134.283 122.656C134.283 123.696 133.515 124.368 132.459 124.368ZM146.778 130L142.106 124.352L146.442 119.328H144.122L139.946 124.4V119.328H138.074V130H139.946V126.592L140.89 125.488L144.458 130H146.778ZM155.323 130V128.352H149.883V125.376H155.211V123.728H149.883V120.976H155.323V119.328H148.011V130H155.323ZM161.661 130V120.976H164.893V119.328H156.557V120.976H159.789V130H161.661ZM168.352 130V119.328H166.48V130H168.352ZM179.868 130V119.328H177.996V126.72L172.54 119.328H170.62V130H172.492V122.368L178.06 130H179.868ZM187.272 130.208C189.112 130.208 190.616 129.424 191.656 128.256V124.272H186.6V125.92H189.8V127.568C189.32 128.032 188.36 128.528 187.272 128.528C185.16 128.528 183.592 126.896 183.592 124.672C183.592 122.416 185.16 120.816 187.272 120.816C188.456 120.816 189.464 121.44 190.04 122.24L191.56 121.36C190.712 120.144 189.352 119.152 187.272 119.152C184.168 119.152 181.672 121.312 181.672 124.672C181.672 128.016 184.168 130.208 187.272 130.208ZM11.4395 148L7.2475 137.328H4.9115L0.7195 148H2.8475L3.6315 145.936H8.5275L9.3115 148H11.4395ZM7.9995 144.288H4.1595L6.0795 139.2L7.9995 144.288ZM17.1626 148.208C19.0026 148.208 20.5066 147.424 21.5466 146.256V142.272H16.4906V143.92H19.6906V145.568C19.2106 146.032 18.2506 146.528 17.1626 146.528C15.0506 146.528 13.4826 144.896 13.4826 142.672C13.4826 140.416 15.0506 138.816 17.1626 138.816C18.3466 138.816 19.3546 139.44 19.9306 140.24L21.4506 139.36C20.6026 138.144 19.2426 137.152 17.1626 137.152C14.0586 137.152 11.5626 139.312 11.5626 142.672C11.5626 146.016 14.0586 148.208 17.1626 148.208ZM30.8074 148V146.352H25.3674V143.376H30.6954V141.728H25.3674V138.976H30.8074V137.328H23.4954V148H30.8074ZM41.9778 148V137.328H40.1058V144.72L34.6498 137.328H32.7298V148H34.6018V140.368L40.1698 148H41.9778ZM49.3814 148.192C51.5254 148.192 52.8534 147.056 53.6694 145.776L52.0694 144.976C51.5574 145.856 50.5174 146.528 49.3814 146.528C47.2694 146.528 45.7014 144.896 45.7014 142.672C45.7014 140.416 47.2694 138.816 49.3814 138.816C50.5174 138.816 51.5574 139.472 52.0694 140.368L53.6534 139.536C52.8694 138.256 51.5254 137.152 49.3814 137.152C46.2294 137.152 43.7814 139.376 43.7814 142.672C43.7814 145.952 46.2294 148.192 49.3814 148.192ZM57.0236 148V137.328H55.1516V148H57.0236ZM66.6042 148V146.352H61.1643V143.376H66.4923V141.728H61.1643V138.976H66.6042V137.328H59.2923V148H66.6042ZM72.1906 148.192C75.0546 148.192 76.3186 146.656 76.3186 144.88C76.3186 140.912 70.1106 142.144 70.1106 140.144C70.1106 139.36 70.8146 138.816 71.9026 138.816C73.0226 138.816 74.1586 139.2 75.0066 140.048L76.0626 138.656C75.0866 137.696 73.7266 137.152 72.0786 137.152C69.7266 137.152 68.1906 138.512 68.1906 140.288C68.1906 144.208 74.3986 142.816 74.3986 145.056C74.3986 145.776 73.8066 146.528 72.2706 146.528C70.7826 146.528 69.6146 145.824 68.8946 145.04L67.8386 146.496C68.7986 147.488 70.2226 148.192 72.1906 148.192ZM84.0236 148V143.376H89.3516V141.728H84.0236V138.976H89.4636V137.328H82.1516V148H84.0236ZM96.1593 148.192C99.3433 148.192 101.615 145.856 101.615 142.672C101.615 139.488 99.3433 137.152 96.1593 137.152C92.9593 137.152 90.7033 139.488 90.7033 142.672C90.7033 145.856 92.9593 148.192 96.1593 148.192ZM96.1593 146.528C93.9993 146.528 92.6233 144.864 92.6233 142.672C92.6233 140.464 93.9993 138.816 96.1593 138.816C98.3033 138.816 99.6953 140.464 99.6953 142.672C99.6953 144.864 98.3033 146.528 96.1593 146.528ZM111.674 148L109.05 143.808C110.346 143.6 111.594 142.56 111.594 140.672C111.594 138.688 110.202 137.328 108.09 137.328H103.402V148H105.274V144.016H107.146L109.498 148H111.674ZM107.85 142.368H105.274V138.976H107.85C108.906 138.976 109.674 139.632 109.674 140.656C109.674 141.696 108.906 142.368 107.85 142.368ZM119.461 148V143.376H124.789V141.728H119.461V138.976H124.901V137.328H117.589V148H119.461ZM128.477 148V137.328H126.605V148H128.477ZM139.993 148V137.328H138.121V144.72L132.665 137.328H130.745V148H132.617V140.368L138.185 148H139.993ZM151.877 148L147.685 137.328H145.349L141.157 148H143.285L144.069 145.936H148.965L149.749 148H151.877ZM148.437 144.288H144.597L146.517 139.2L148.437 144.288ZM162.275 148V137.328H160.403V144.72L154.947 137.328H153.027V148H154.899V140.368L160.467 148H162.275ZM169.678 148.192C171.822 148.192 173.15 147.056 173.966 145.776L172.366 144.976C171.854 145.856 170.814 146.528 169.678 146.528C167.566 146.528 165.998 144.896 165.998 142.672C165.998 140.416 167.566 138.816 169.678 138.816C170.814 138.816 171.854 139.472 172.366 140.368L173.95 139.536C173.166 138.256 171.822 137.152 169.678 137.152C166.526 137.152 164.078 139.376 164.078 142.672C164.078 145.952 166.526 148.192 169.678 148.192ZM177.321 148V137.328H175.449V148H177.321ZM189.205 148L185.013 137.328H182.677L178.485 148H180.613L181.397 145.936H186.293L187.077 148H189.205ZM185.765 144.288H181.925L183.845 139.2L185.765 144.288ZM196.803 148V146.352H192.099V137.328H190.227V148H196.803ZM67.2063 166.192C70.0703 166.192 71.3343 164.656 71.3343 162.88C71.3343 158.912 65.1263 160.144 65.1263 158.144C65.1263 157.36 65.8303 156.816 66.9183 156.816C68.0383 156.816 69.1743 157.2 70.0223 158.048L71.0783 156.656C70.1023 155.696 68.7423 155.152 67.0943 155.152C64.7423 155.152 63.2063 156.512 63.2063 158.288C63.2063 162.208 69.4143 160.816 69.4143 163.056C69.4143 163.776 68.8223 164.528 67.2863 164.528C65.7983 164.528 64.6303 163.824 63.9103 163.04L62.8543 164.496C63.8143 165.488 65.2383 166.192 67.2063 166.192ZM80.3542 166V164.352H74.9143V161.376H80.2423V159.728H74.9143V156.976H80.3542V155.328H73.0423V166H80.3542ZM90.5486 166L87.9246 161.808C89.2206 161.6 90.4686 160.56 90.4686 158.672C90.4686 156.688 89.0766 155.328 86.9646 155.328H82.2766V166H84.1486V162.016H86.0206L88.3726 166H90.5486ZM86.7246 160.368H84.1486V156.976H86.7246C87.7806 156.976 88.5486 157.632 88.5486 158.656C88.5486 159.696 87.7806 160.368 86.7246 160.368ZM97.6069 166L101.799 155.328H99.6709L96.4389 163.952L93.2069 155.328H91.0789L95.2709 166H97.6069ZM104.821 166V155.328H102.949V166H104.821ZM112.225 166.192C114.369 166.192 115.697 165.056 116.513 163.776L114.913 162.976C114.401 163.856 113.361 164.528 112.225 164.528C110.113 164.528 108.545 162.896 108.545 160.672C108.545 158.416 110.113 156.816 112.225 156.816C113.361 156.816 114.401 157.472 114.913 158.368L116.497 157.536C115.713 156.256 114.369 155.152 112.225 155.152C109.073 155.152 106.625 157.376 106.625 160.672C106.625 163.952 109.073 166.192 112.225 166.192ZM125.307 166V164.352H119.867V161.376H125.195V159.728H119.867V156.976H125.307V155.328H117.995V166H125.307ZM130.894 166.192C133.758 166.192 135.022 164.656 135.022 162.88C135.022 158.912 128.814 160.144 128.814 158.144C128.814 157.36 129.518 156.816 130.606 156.816C131.726 156.816 132.862 157.2 133.71 158.048L134.766 156.656C133.79 155.696 132.43 155.152 130.782 155.152C128.43 155.152 126.894 156.512 126.894 158.288C126.894 162.208 133.102 160.816 133.102 163.056C133.102 163.776 132.51 164.528 130.974 164.528C129.486 164.528 128.318 163.824 127.598 163.04L126.542 164.496C127.502 165.488 128.926 166.192 130.894 166.192Z" fill="black"/>
<path d="M98.765 68.6652C98.5774 68.6652 98.5774 68.4644 98.765 68.6652L97.827 68.0628L97.6394 67.8621L75.5036 50.9968C75.5036 50.9968 75.3161 50.9968 75.3161 50.796L74.9409 50.3944L74.7533 50.1937H74.3781L68 45.375L80.5686 47.3828C81.1314 47.3828 81.319 47.5836 81.8817 47.7843C82.0693 47.7843 82.4445 47.9851 82.4445 47.9851C83.0073 48.1859 83.1949 48.3867 83.5701 48.5874C83.9453 48.7882 84.1328 48.989 84.508 49.1898C84.6956 49.3905 85.0708 49.5913 85.0708 49.7921C85.2584 49.9929 85.446 49.9929 85.6336 50.1937C86.0088 50.3944 86.1963 50.5952 86.1963 50.796C86.7591 51.3983 87.1343 52.0006 87.6971 52.4022L97.6394 67.4605L97.827 67.6613L98.765 68.6652Z" fill="#18AAD1"/>
<path d="M98.7649 91.9554L97.8269 90.3492L97.6393 90.1484L68.1875 45.375L74.5656 50.1937L75.6912 50.9968L97.8269 67.8621H98.0145L98.7649 68.4644C98.7649 68.4644 98.9525 68.4644 98.9525 68.6652L99.8904 67.8621L129.717 45.375L99.7028 90.3492L99.5153 90.55L98.7649 91.9554Z" fill="#2AD2FF"/>
<path d="M98.7649 61.0353L97.8269 59.4291L97.6393 59.2283L90.3232 48.3863L97.6393 49.9925H97.8269L98.7649 50.1933L99.7028 49.9925L106.831 48.1855L99.7028 59.4291V59.6299L98.7649 61.0353Z" fill="#18AAD1"/>
<path d="M129.905 45.1758L120.525 46.5812L116.961 47.1836C114.147 47.5851 111.521 49.1913 109.833 51.8014L99.8904 67.0605L99.7028 67.2613L98.7649 68.6667L99.8904 67.4621L100.078 67.2613L98.7649 68.6667L124.09 49.3921L129.905 45.1758Z" fill="#18AAD1"/>
<path d="M103.455 13.4521C103.455 22.2862 89.1978 26.9041 89.1978 36.3406C89.0102 38.5492 89.573 40.7577 90.5109 42.7655C90.5109 42.7655 85.0708 37.1437 85.0708 31.1204C85.0708 25.0971 90.3233 16.0622 90.3233 16.0622C90.3233 20.0777 91.8241 21.2824 93.3248 21.4831H93.5124C95.2007 21.4831 96.1387 20.0777 96.1387 18.0699C96.1387 16.0622 94.0752 14.0544 94.0752 10.0389C94.0752 6.22409 98.5774 0 98.5774 0C101.766 4.01554 103.455 8.63341 103.455 13.4521Z" fill="#2AD2FF"/>
<path d="M99.5153 45.5763C95.0131 45.5763 91.6365 41.7615 91.6365 37.1436V36.9429C91.6365 26.7032 104.955 25.6993 104.955 11.8457C105.331 12.448 108.895 17.6682 108.895 23.29C108.895 30.3172 102.704 32.1242 102.704 35.5374C102.704 36.9429 103.267 37.9468 105.143 37.9468C105.331 37.9468 105.518 37.9468 105.706 37.746C109.27 36.1398 111.709 32.5258 111.896 28.3094C111.896 28.5102 113.772 45.5763 99.5153 45.5763Z" fill="#2AD2FF"/>
<path d="M105.331 37.9468C105.518 37.9468 105.706 37.9468 105.893 37.746C104.018 38.3483 97.0767 40.1553 97.0767 34.9351C97.0767 28.5102 107.394 27.1048 107.394 21.6838C107.394 18.2706 106.644 14.8574 104.955 11.8457C105.331 12.448 108.895 17.6682 108.895 23.29C108.895 30.3172 102.704 32.1242 102.704 35.5374C102.892 36.9429 103.642 37.9468 105.331 37.9468Z" fill="#18AAD1"/>
<path d="M99.3781 17.0661C99.3781 22.0855 93.3752 21.684 93 21.4832H93.5628C95.2511 21.4832 96.189 20.0778 96.189 18.07C96.189 16.0622 94.1255 14.0544 94.1255 10.0389C94.1255 6.2241 98.6277 0 98.6277 0C97.127 2.61011 96.3766 5.42099 96.189 8.23188C96.189 12.8498 99.3781 13.2513 99.3781 17.0661Z" fill="#18AAD1"/>
<path d="M96.162 105.02L91.824 101.932H97.1479L98.9226 96.373L100.5 101.932H105.824L101.486 105.02L103.063 110.373L98.7254 107.079L94.1902 110.373L96.162 105.02Z" fill="#2AD2FF"/>
<path d="M119.338 105.02L115 101.932H120.324L122.099 96.373L123.676 101.932H129L124.662 105.02L126.239 110.373L121.901 107.079L117.366 110.373L119.338 105.02Z" fill="#2AD2FF"/>
<path d="M142.338 105.02L138 101.932H143.324L145.099 96.373L146.676 101.932H152L147.662 105.02L149.239 110.373L144.901 107.079L140.366 110.373L142.338 105.02Z" fill="#2AD2FF"/>
<path d="M72.338 105.02L68 101.932H73.3239L75.0986 96.373L76.6761 101.932H82L77.662 105.02L79.2394 110.373L74.9014 107.079L70.5634 110.373L72.338 105.02Z" fill="#2AD2FF"/>
<path d="M49.338 105.02L45 101.932H50.3239L52.0986 96.373L53.6761 101.932H59L54.662 105.02L56.2394 110.373L51.9014 107.079L47.5634 110.373L49.338 105.02Z" fill="#2AD2FF"/>
</svg>
