<svg width="512" height="512" viewBox="0 0 512 512" fill="none" xmlns="http://www.w3.org/2000/svg">
<g clip-path="url(#clip0_312_350)">
<path d="M6 308.369H199.854C193.273 341.523 197.523 375.914 211.979 406.467C226.434 437.021 250.329 462.118 280.136 478.056C309.943 493.993 344.084 499.927 377.521 494.981C410.957 490.035 441.918 474.472 465.835 450.587C527.29 389.132 527.29 289.138 465.835 227.687C448.781 210.633 428.037 197.726 405.203 189.96C382.37 182.195 358.057 179.779 334.142 182.9V100.02C334.142 98.4287 333.51 96.9025 332.385 95.7773C331.259 94.6521 329.733 94.02 328.142 94.02H275.537C273.946 94.02 272.42 94.6521 271.294 95.7773C270.169 96.9025 269.537 98.4287 269.537 100.02V206.3C263.962 209.863 258.618 213.775 253.537 218.013V158.737C253.537 157.146 252.905 155.62 251.78 154.494C250.654 153.369 249.128 152.737 247.537 152.737H194.937C193.346 152.737 191.82 153.369 190.694 154.494C189.569 155.62 188.937 157.146 188.937 158.737V296.369H172.937V129.377C172.937 127.786 172.305 126.26 171.18 125.134C170.054 124.009 168.528 123.377 166.937 123.377H114.337C112.746 123.377 111.22 124.009 110.094 125.134C108.969 126.26 108.337 127.786 108.337 129.377V296.369H92.337V188.1C92.337 186.509 91.7049 184.983 90.5796 183.857C89.4544 182.732 87.9283 182.1 86.337 182.1H33.737C32.1457 182.1 30.6196 182.732 29.4944 183.857C28.3691 184.983 27.737 186.509 27.737 188.1V296.369H6C4.4087 296.369 2.88258 297.001 1.75736 298.126C0.632141 299.252 0 300.778 0 302.369C0 303.96 0.632141 305.486 1.75736 306.612C2.88258 307.737 4.4087 308.369 6 308.369ZM251.416 236.169C277.238 210.31 311.868 195.149 348.384 193.718V224.456C320.029 225.903 293.219 237.818 273.143 257.894C253.066 277.971 241.152 304.781 239.705 333.136H208.965C210.396 296.62 225.557 261.99 251.416 236.169ZM281.627 411.892C267.237 397.502 257.437 379.168 253.467 359.209C249.497 339.249 251.535 318.561 259.322 299.759C267.11 280.958 280.298 264.888 297.219 253.582C314.14 242.276 334.033 236.241 354.384 236.241C374.735 236.241 394.628 242.276 411.549 253.582C428.47 264.888 441.658 280.958 449.446 299.759C457.233 318.561 459.271 339.249 455.301 359.209C451.331 379.168 441.531 397.502 427.141 411.892C407.829 431.159 381.664 441.98 354.384 441.98C327.104 441.98 300.939 431.159 281.627 411.892ZM208.965 345.136H239.705C241.152 373.491 253.067 400.301 273.143 420.377C293.219 440.453 320.029 452.368 348.384 453.815V484.553C311.874 483.095 277.254 467.939 251.417 442.103C225.58 416.266 210.423 381.645 208.965 345.136ZM457.351 442.1C431.529 467.959 396.899 483.119 360.384 484.551V453.815C388.739 452.368 415.549 440.453 435.625 420.377C455.701 400.301 467.616 373.491 469.063 345.136H499.8C498.369 381.65 483.209 416.279 457.351 442.1ZM499.8 333.136H469.063C467.616 304.781 455.702 277.971 435.625 257.894C415.549 237.818 388.739 225.903 360.384 224.456V193.718C396.893 195.176 431.514 210.332 457.35 236.169C483.187 262.006 498.343 296.627 499.8 333.136ZM281.537 106.017H322.142V184.91C308.008 187.835 294.344 192.695 281.537 199.352V106.017ZM200.937 164.737H241.537V229.113C223.156 247.917 209.807 271.047 202.719 296.369H200.934L200.937 164.737ZM120.337 135.377H160.942V296.369H120.33L120.337 135.377ZM39.737 194.097H80.337V296.369H39.737V194.097ZM60.037 156.474C64.4277 156.475 68.7502 155.388 72.618 153.309C76.4857 151.231 79.7781 148.227 82.2007 144.565C84.6233 140.903 86.1006 136.698 86.5005 132.325C86.9003 127.953 86.2102 123.55 84.492 119.509L123.266 91.262C126.133 93.7504 129.501 95.5943 133.142 96.669C136.783 97.7438 140.613 98.0244 144.372 97.4918C148.131 96.9592 151.731 95.6258 154.931 93.5819C158.13 91.5379 160.853 88.8309 162.916 85.644L194.877 97.285C194.432 100.885 194.728 104.538 195.748 108.018C196.768 111.499 198.49 114.734 200.807 117.525C203.125 120.315 205.989 122.601 209.224 124.242C212.459 125.884 215.995 126.845 219.615 127.068C223.236 127.291 226.863 126.77 230.275 125.537C233.686 124.305 236.809 122.387 239.451 119.902C242.094 117.417 244.199 114.417 245.638 111.088C247.077 107.758 247.819 104.169 247.818 100.542C247.822 96.97 247.101 93.4344 245.699 90.149L284.465 61.9C289.391 66.1432 295.705 68.4265 302.206 68.3149C308.706 68.2033 314.938 65.7047 319.715 61.2949C324.493 56.8851 327.481 50.8722 328.111 44.4015C328.741 37.9307 326.97 31.4542 323.133 26.2053C319.297 20.9565 313.664 17.3021 307.307 15.9382C300.951 14.5743 294.314 15.5961 288.662 18.809C283.01 22.0219 278.738 27.2015 276.658 33.3612C274.578 39.521 274.836 46.2305 277.384 52.212L238.61 80.461C235.748 77.9765 232.386 76.1344 228.751 75.0588C225.117 73.9833 221.294 73.6992 217.54 74.2258C213.787 74.7524 210.19 76.0774 206.992 78.1116C203.793 80.1457 201.068 82.8417 199 86.018L167.008 74.366C167.497 70.3211 167.05 66.2179 165.7 62.3736C164.35 58.5293 162.135 55.0469 159.224 52.1956C156.314 49.3442 152.787 47.2004 148.916 45.9297C145.045 44.6591 140.933 44.2957 136.899 44.8677C132.865 45.4396 129.017 46.9316 125.651 49.2282C122.286 51.5249 119.494 54.5647 117.491 58.1127C115.488 61.6607 114.328 65.6217 114.1 69.6897C113.872 73.7577 114.583 77.8235 116.177 81.573L77.4 109.82C74.1574 107.014 70.2837 105.035 66.1101 104.052C61.9364 103.069 57.5867 103.11 53.4326 104.173C49.2785 105.236 45.4434 107.289 42.255 110.156C39.0667 113.023 36.6197 116.62 35.1233 120.638C33.6268 124.656 33.1254 128.977 33.6617 133.232C34.198 137.486 35.7562 141.547 38.2032 145.068C40.6501 148.59 43.913 151.466 47.7133 153.452C51.5135 155.439 55.738 156.475 60.026 156.474H60.037ZM301.839 27.248C304.722 27.2478 307.539 28.1024 309.936 29.7037C312.333 31.305 314.201 33.5812 315.304 36.2443C316.408 38.9074 316.696 41.8378 316.134 44.665C315.572 47.4921 314.184 50.0891 312.145 52.1273C310.107 54.1656 307.51 55.5537 304.683 56.116C301.856 56.6783 298.925 56.3896 296.262 55.2864C293.599 54.1832 291.323 52.3151 289.722 49.9182C288.12 47.5214 287.266 44.7035 287.266 41.821C287.27 37.9573 288.807 34.2533 291.539 31.5213C294.271 28.7893 297.975 27.2525 301.839 27.248ZM221.239 85.968C224.122 85.9678 226.939 86.8224 229.336 88.4236C231.733 90.0249 233.601 92.301 234.704 94.9641C235.808 97.6271 236.096 100.557 235.534 103.385C234.972 106.212 233.584 108.809 231.546 110.847C229.508 112.885 226.911 114.273 224.084 114.836C221.257 115.398 218.326 115.11 215.663 114.007C213 112.904 210.724 111.036 209.122 108.639C207.521 106.242 206.666 103.424 206.666 100.542C206.671 96.679 208.207 92.9756 210.938 90.2436C213.669 87.5116 217.372 85.9741 221.235 85.968H221.239ZM140.639 56.608C143.521 56.608 146.339 57.4627 148.735 59.064C151.132 60.6653 153 62.9413 154.103 65.6041C155.206 68.267 155.494 71.1971 154.932 74.024C154.37 76.8509 152.982 79.4476 150.944 81.4856C148.906 83.5237 146.309 84.9117 143.482 85.474C140.655 86.0363 137.725 85.7477 135.062 84.6447C132.399 83.5417 130.123 81.6738 128.522 79.2773C126.921 76.8808 126.066 74.0632 126.066 71.181C126.07 67.3186 127.606 63.6155 130.337 60.8837C133.067 58.1519 136.77 56.6143 140.632 56.608H140.639ZM60.039 115.328C62.9209 115.33 65.7375 116.186 68.1327 117.789C70.5279 119.391 72.3942 121.668 73.4957 124.331C74.5971 126.994 74.8842 129.924 74.3207 132.751C73.7572 135.577 72.3683 138.172 70.3298 140.21C68.2912 142.247 65.6944 143.633 62.8678 144.195C60.0411 144.756 57.1114 144.467 54.4492 143.363C51.7869 142.26 49.5116 140.392 47.9108 137.996C46.3101 135.599 45.4558 132.782 45.456 129.9C45.4608 126.037 46.9977 122.333 49.7297 119.601C52.4616 116.869 56.1656 115.332 60.029 115.328H60.039ZM0 365.813C0 364.222 0.632141 362.696 1.75736 361.57C2.88258 360.445 4.4087 359.813 6 359.813H110.924C112.515 359.813 114.041 360.445 115.167 361.57C116.292 362.696 116.924 364.222 116.924 365.813C116.924 367.404 116.292 368.93 115.167 370.056C114.041 371.181 112.515 371.813 110.924 371.813H6C4.4087 371.813 2.88258 371.181 1.75736 370.056C0.632141 368.93 0 367.404 0 365.813ZM0 395.833C0 394.242 0.632141 392.716 1.75736 391.59C2.88258 390.465 4.4087 389.833 6 389.833H154.646C156.237 389.833 157.763 390.465 158.889 391.59C160.014 392.716 160.646 394.242 160.646 395.833C160.646 397.424 160.014 398.95 158.889 400.076C157.763 401.201 156.237 401.833 154.646 401.833H6C4.4087 401.833 2.88258 401.201 1.75736 400.076C0.632141 398.95 0 397.424 0 395.833ZM0 425.852C0 424.261 0.632141 422.735 1.75736 421.609C2.88258 420.484 4.4087 419.852 6 419.852H154.646C156.237 419.852 157.763 420.484 158.889 421.609C160.014 422.735 160.646 424.261 160.646 425.852C160.646 427.443 160.014 428.969 158.889 430.095C157.763 431.22 156.237 431.852 154.646 431.852H6C4.4087 431.852 2.88258 431.22 1.75736 430.095C0.632141 428.969 0 427.443 0 425.852ZM354.384 290.609C348.009 290.591 341.693 291.838 335.803 294.278C329.913 296.718 324.565 300.302 320.069 304.822C312.131 312.76 307.19 323.206 306.09 334.379C304.989 345.551 307.797 356.76 314.034 366.094C320.271 375.429 329.552 382.312 340.296 385.571C351.039 388.83 362.58 388.263 372.952 383.967C383.324 379.671 391.886 371.911 397.178 362.01C402.47 352.109 404.166 340.68 401.976 329.669C399.786 318.658 393.846 308.747 385.167 301.624C376.489 294.502 365.61 290.609 354.383 290.609H354.384ZM380.212 364.964C376.82 368.356 372.793 371.046 368.362 372.882C363.93 374.718 359.18 375.662 354.384 375.662C349.587 375.662 344.837 374.718 340.405 372.882C335.974 371.046 331.947 368.356 328.555 364.964C325.163 361.572 322.473 357.545 320.637 353.114C318.801 348.682 317.856 343.932 317.856 339.135C317.856 334.339 318.801 329.589 320.637 325.157C322.473 320.726 325.163 316.699 328.555 313.307C335.415 306.506 344.69 302.699 354.351 302.72C364.011 302.741 373.27 306.587 380.101 313.418C386.931 320.249 390.778 329.508 390.799 339.168C390.819 348.829 387.012 358.104 380.211 364.964H380.212Z" fill="white"/>
</g>
<defs>
<clipPath id="clip0_312_350">
<rect width="512" height="512" fill="white"/>
</clipPath>
</defs>
</svg>
