<svg width="512" height="512" viewBox="0 0 512 512" fill="none" xmlns="http://www.w3.org/2000/svg">
<path d="M353.057 500H146.944C121.059 500 100 478.941 100 453.057V56.944C100 31.059 121.059 10 146.944 10H353.057C378.941 10 400 31.059 400 56.944V453.057C400 478.941 378.941 500 353.057 500ZM146.944 30C132.087 30 120 42.087 120 56.944V453.057C120 467.913 132.087 480 146.944 480H353.057C367.913 480 380 467.913 380 453.057V56.944C380 42.087 367.913 30 353.057 30H146.944Z" fill="#CF0042"/>
<path d="M390 90H110C104.477 90 100 85.523 100 80C100 74.477 104.477 70 110 70H390C395.522 70 400 74.477 400 80C400 85.523 395.522 90 390 90Z" fill="#CF0042"/>
<path d="M390 440H110C104.477 440 100 435.522 100 430C100 424.478 104.477 420 110 420H390C395.522 420 400 424.478 400 430C400 435.522 395.522 440 390 440Z" fill="#CF0042"/>
<path d="M170 180C167.441 180 164.881 179.024 162.929 177.071L142.929 157.071C139.024 153.166 139.024 146.834 142.929 142.928L162.929 122.928C166.834 119.023 173.166 119.023 177.072 122.928C180.978 126.833 180.977 133.165 177.072 137.071L164.142 150L177.071 162.929C180.976 166.834 180.976 173.166 177.071 177.072C175.119 179.024 172.559 180 170 180Z" fill="#CF0042"/>
<path d="M260.001 180C257.441 180 254.882 179.024 252.93 177.071C249.025 173.166 249.025 166.834 252.93 162.928L265.858 150L252.929 137.071C249.024 133.166 249.024 126.834 252.929 122.928C256.834 119.022 263.165 119.023 267.072 122.928L287.072 142.928C290.977 146.833 290.977 153.165 287.072 157.071L267.072 177.071C265.119 179.024 262.561 180 260.001 180Z" fill="#CF0042"/>
<path d="M199.992 190.002C198.489 190.002 196.963 189.662 195.528 188.944C190.588 186.474 188.586 180.467 191.056 175.527L221.056 115.527C223.525 110.588 229.532 108.585 234.473 111.055C239.413 113.525 241.415 119.532 238.945 124.472L208.945 184.472C207.192 187.976 203.66 190.002 199.992 190.002Z" fill="#CF0042"/>
<path d="M280 250H160C154.477 250 150 245.523 150 240C150 234.477 154.477 230 160 230H280C285.522 230 290 234.477 290 240C290 245.523 285.522 250 280 250Z" fill="#CF0042"/>
<path d="M280 290H160C154.477 290 150 285.522 150 280C150 274.478 154.477 270 160 270H280C285.522 270 290 274.478 290 280C290 285.522 285.522 290 280 290Z" fill="#CF0042"/>
<path d="M340 330H160C154.477 330 150 325.522 150 320C150 314.478 154.477 310 160 310H340C345.522 310 350 314.478 350 320C350 325.522 345.522 330 340 330Z" fill="#CF0042"/>
<path d="M340 370H160C154.477 370 150 365.522 150 360C150 354.478 154.477 350 160 350H340C345.522 350 350 354.478 350 360C350 365.522 345.522 370 340 370Z" fill="#CF0042"/>
<path d="M475 90C483.284 90 490 83.2843 490 75C490 66.7157 483.284 60 475 60C466.716 60 460 66.7157 460 75C460 83.2843 466.716 90 475 90Z" fill="#CF0042"/>
<path d="M45 410C53.2843 410 60 403.284 60 395C60 386.716 53.2843 380 45 380C36.7157 380 30 386.716 30 395C30 403.284 36.7157 410 45 410Z" fill="#CF0042"/>
<path d="M20 210C25.5228 210 30 205.523 30 200C30 194.477 25.5228 190 20 190C14.4772 190 10 194.477 10 200C10 205.523 14.4772 210 20 210Z" fill="#CF0042"/>
<path d="M450 220C455.523 220 460 215.523 460 210C460 204.477 455.523 200 450 200C444.477 200 440 204.477 440 210C440 215.523 444.477 220 450 220Z" fill="#CF0042"/>
<path d="M70 100C75.5228 100 80 95.5228 80 90C80 84.4772 75.5228 80 70 80C64.4772 80 60 84.4772 60 90C60 95.5228 64.4772 100 70 100Z" fill="#CF0042"/>
<path d="M460 430C465.523 430 470 425.523 470 420C470 414.477 465.523 410 460 410C454.477 410 450 414.477 450 420C450 425.523 454.477 430 460 430Z" fill="#CF0042"/>
</svg>
