<svg width="512" height="512" viewBox="0 0 512 512" fill="none" xmlns="http://www.w3.org/2000/svg">
<path d="M399.2 248.5C402.4 256 402.4 264.5 399.2 272C406.3 269.1 412.9 265.1 418.7 260.2C412.9 255.4 406.3 251.4 399.2 248.5ZM343.9 272C340.7 264.5 340.7 256 343.9 248.5C336.8 251.4 330.3 255.4 324.4 260.3C330.3 265.2 336.8 269.1 343.9 272ZM382.9 248.9C372.8 238.8 355.5 246 355.5 260.2C355.5 274.4 372.8 281.6 382.9 271.5C389.2 265.3 389.2 255.2 382.9 248.9ZM371.6 229.1C395.3 229.1 417.6 238.7 433.9 255.3C436.6 258 436.6 262.4 433.9 265.1C399.6 300.1 343.5 300.1 309.2 265.1C306.5 262.4 306.5 258 309.2 255.3C325.6 238.7 347.9 229.1 371.6 229.1ZM381 401.7H354.8C353.2 401.7 351.8 403.1 351.8 404.7V481C351.8 482.6 353.1 484 354.8 484H388C389.6 484 390.9 482.6 390.9 481C390.9 455.5 390.9 430.1 390.9 404.7C390.9 403.1 389.6 401.7 388 401.7H381ZM362.2 387.7H381V360.1C381 356.4 383.8 353.4 387.4 353.1C396.8 351.5 406 348.5 414.6 344.1C446.3 327.8 465.7 295.1 465.7 260.3C465.7 208.3 423.5 166.2 371.5 166.2C312.4 166.2 268 220 279.1 278.1C286.4 316.8 317.4 346.9 356.3 353.2C359.7 353.8 362.2 356.7 362.2 360.1V387.7ZM395 389.2C401 391.9 405 397.9 405 404.7V481C405 490.4 397.4 498 388 498H354.8C345.4 498 337.8 490.4 337.8 481V404.7C337.8 397.8 342 391.7 348.2 389.1V365.9C328.2 361.5 309.8 351.5 295.1 336.8C279.8 321.4 270 302.6 265.8 282.8L265.1 282.2C256.5 287.4 247.1 291.2 237.3 293.7V311.4C237.3 315.3 234.2 318.4 230.3 318.4H194.5C190.6 318.4 187.5 315.3 187.5 311.4V293.7C177.7 291.2 168.3 287.4 159.7 282.2L147.2 294.7C144.5 297.4 140 297.4 137.3 294.7L112 269.3C109.3 266.6 109.3 262.1 112 259.4L124.5 246.9C119.3 238.3 115.4 228.9 113 219.1H95.3003C91.4003 219.1 88.3003 216 88.3003 212.1V176.3C88.3003 172.4 91.4003 169.3 95.3003 169.3H113C115.4 159.5 119.3 150.1 124.5 141.5L112 129C109.3 126.3 109.3 121.8 112 119.1L137.3 93.8C140 91.1 144.5 91.1 147.2 93.8L159.7 106.3C168.3 101.1 177.7 97.2 187.5 94.8V77C187.5 73.1 190.6 70 194.5 70H230.3C234.2 70 237.3 73.1 237.3 77V94.7C247.1 97.2 256.5 101 265.1 106.2L277.6 93.7C280.3 91 284.8 91 287.5 93.7L312.8 119C315.5 121.7 315.5 126.2 312.8 128.9L300.3 141.4C305.5 150 309.4 159.4 311.8 169.2H313C330.8 157.7 351.1 152 371.5 152C431.2 152 479.6 200.4 479.6 260.1C479.6 310.9 444.3 354.7 394.8 365.7V389.2H395ZM420.3 211.5C393.4 184.6 349.7 184.6 322.8 211.5C295.9 238.4 295.9 282.1 322.8 309C349.7 335.9 393.4 335.9 420.3 309C447.3 282.1 447.3 238.4 420.3 211.5ZM430.2 201.6C462.6 234 462.6 286.5 430.2 318.9C397.8 351.3 345.3 351.3 312.9 318.9C280.5 286.5 280.5 234 312.9 201.6C345.3 169.2 397.9 169.2 430.2 201.6ZM263.6 266.7C261.7 234.4 274.2 202 299.9 179.3C299.7 178.8 299.5 178.2 299.4 177.6C298.3 171.6 296.5 165.8 294.3 160.3C292 154.9 289.2 149.7 285.9 144.8C283.8 142.1 284 138.1 286.5 135.6L298 124.1L282.6 108.7L271.1 120.2C268.8 122.5 265.1 122.9 262.2 121C257.2 117.6 251.9 114.7 246.4 112.4C241 110.2 235.4 108.5 229.6 107.3C226.1 106.9 223.4 103.9 223.4 100.4V84H201.5V100C201.7 103.5 199.3 106.6 195.8 107.3C189.8 108.4 184 110.2 178.5 112.5C173.1 114.7 167.9 117.5 163 120.8C160.3 122.9 156.3 122.8 153.8 120.2L142.3 108.7L126.8 124L138.3 135.5C140.6 137.8 141 141.6 139.1 144.4C135.7 149.4 132.8 154.7 130.5 160.3C128.3 165.6 126.6 171.3 125.4 177.1C125 180.6 122 183.3 118.5 183.3H102.2V205.1H118.5C121.8 205.1 124.7 207.4 125.4 210.8C126.5 216.8 128.3 222.6 130.5 228.1C132.8 233.5 135.6 238.7 138.9 243.6C141 246.3 140.8 250.3 138.3 252.8L126.8 264.3L142.2 279.7L153.7 268.1C156 265.7 159.7 265.3 162.6 267.2C167.6 270.6 172.9 273.5 178.4 275.8C183.8 278 189.4 279.7 195.2 280.9C198.7 281.3 201.4 284.2 201.4 287.8V304.1H223.2V288C223.2 284.7 225.5 281.8 228.9 281.1C234.9 280 240.7 278.2 246.2 275.9C251.6 273.6 256.8 270.9 261.7 267.6C262.4 267.3 263 266.9 263.6 266.7ZM275.7 347.9C279.2 346.4 283.3 348.1 284.8 351.7C286.3 355.3 284.6 359.4 281 360.8L264.7 366.6C223.7 379 181.6 376.1 144.7 361.1C111.3 347.5 82.2003 324 61.9003 293L61.0003 309.4C60.8003 313.3 57.5003 316.2 53.7003 316.1C49.8003 315.9 46.9003 312.6 47.1003 308.8L49.1003 268.2C49.4003 262.8 55.4003 259.8 59.8003 262.6L93.9003 284.6C97.2003 286.7 98.1003 291 96.0003 294.3C93.9003 297.6 89.6003 298.5 86.3003 296.4L76.7003 290.2C95.2003 316.4 120.8 336.3 149.8 348.1C183.8 362 222.6 364.7 260.5 353.2L275.7 347.9ZM363.9 79C364.1 75.1 367.4 72.2 371.2 72.4C375.1 72.6 378 75.9 377.8 79.7L375.8 120.3C375.5 125.7 369.5 128.7 365.1 125.9L331 103.9C327.7 101.8 326.8 97.5 328.9 94.2C331 91 335.3 90 338.6 92.1L348.1 98.3C329.6 72.3 304.1 52.2 274.8 40.3C241.1 26.6 202.6 23.7 164.3 35.3C88.8003 58.1 40.3003 130.5 46.9003 208.4C47.2003 212.3 44.3003 215.6 40.5003 215.9C36.6003 216.2 33.3003 213.3 33.0003 209.5C29.4003 167.6 40.7003 126.6 63.5003 93.1C85.9003 60.1 119.2 34.3 160.3 21.9C201.7 9.40003 243.6 12.4 280.1 27.3C313.7 41 342.9 64.7 363.2 95.5L363.9 79ZM212.4 135.1C245 135.1 271.5 161.5 271.5 194.2C271.5 226.8 245.1 253.3 212.4 253.3C179.7 253.3 153.3 226.8 153.3 194.2C153.4 161.6 179.8 135.1 212.4 135.1ZM244.3 162.3C226.7 144.7 198.1 144.7 180.5 162.3C162.9 179.9 162.9 208.4 180.5 226.1C198.1 243.7 226.7 243.7 244.3 226.1C261.9 208.5 261.9 179.9 244.3 162.3Z" fill="white"/>
</svg>
