<svg width="512" height="512" viewBox="0 0 512 512" fill="none" xmlns="http://www.w3.org/2000/svg">
<path d="M476.055 64.806H307.146C315.688 44.292 307.88 20.062 288.133 8.66C266.681 -3.727 239.149 3.649 226.763 25.104L203.842 64.805H45.32C20.331 64.806 0 85.136 0 110.126V392.549C0 417.538 20.331 437.869 45.32 437.869H185.755C187.468 453.174 186.404 471.482 182.8 489.364H126.462C120.94 489.364 116.462 493.842 116.462 499.364C116.462 504.886 120.94 509.364 126.462 509.364H385.544C391.066 509.364 395.544 504.886 395.544 499.364C395.544 493.842 391.066 489.364 385.544 489.364H328.652C324.726 471.314 323.46 452.998 325.133 437.869H466.679C491.669 437.869 512 417.538 512 392.549V100.757C512 80.934 495.875 64.806 476.055 64.806ZM141.406 227.59L171.899 245.195L141.406 262.8V227.59ZM188.239 231.535L145.066 206.609L227.002 64.692L270.175 89.618L188.239 231.535ZM278.134 25.98C290.036 32.852 294.129 48.126 287.258 60.03L280.175 72.298L237.002 47.372L244.085 35.105C250.957 23.201 266.23 19.111 278.134 25.98ZM45.32 84.806H192.295L122.746 205.269C121.868 206.79 121.406 208.514 121.406 210.269V280.121C121.406 285.643 125.884 290.121 131.406 290.121H380.594C386.116 290.121 390.594 285.643 390.594 280.121C390.594 274.599 386.116 270.121 380.594 270.121H168.727L196.9 253.855C198.421 252.977 199.682 251.715 200.56 250.195L296.048 84.806H476.055C484.847 84.806 492 91.961 492 100.757V347.612H20V110.126C20 96.164 31.358 84.806 45.32 84.806ZM308.238 489.364H203.155C206.381 471.594 207.352 453.523 205.868 437.869H305.024C303.589 453.395 304.736 471.465 308.238 489.364ZM466.679 417.869H45.32C31.358 417.869 20 406.511 20 392.549V367.612H492V392.549C492 406.511 480.641 417.869 466.679 417.869ZM390.594 219.612C390.594 225.134 386.116 229.612 380.594 229.612H276.998C271.476 229.612 266.998 225.134 266.998 219.612C266.998 214.09 271.476 209.612 276.998 209.612H380.594C386.116 209.612 390.594 214.09 390.594 219.612Z" fill="#CF0042"/>
</svg>
