<svg width="512" height="512" viewBox="0 0 512 512" fill="none" xmlns="http://www.w3.org/2000/svg">
<path d="M480 192C480 185.635 477.471 179.53 472.971 175.029C468.47 170.529 462.365 168 456 168H448V139.68C453.028 135.194 457.053 129.697 459.81 123.548C462.567 117.4 463.995 110.738 464 104V102.112L420.944 16H91.056L48 102.112V104C48.0051 110.738 49.433 117.4 52.1902 123.548C54.9474 129.697 58.9717 135.194 64 139.68V168H56C49.6348 168 43.5303 170.529 39.0294 175.029C34.5286 179.53 32 185.635 32 192V448H16V472C16 478.365 18.5286 484.47 23.0294 488.971C27.5303 493.471 33.6348 496 40 496H472C478.365 496 484.47 493.471 488.971 488.971C493.471 484.47 496 478.365 496 472V448H480V192ZM362.752 32H411.056L447.952 105.792C447.496 114.118 443.807 121.937 437.672 127.585C431.536 133.232 423.439 136.261 415.104 136.028C406.768 135.794 398.853 132.316 393.044 126.334C387.234 120.352 383.989 112.339 384 104L362.752 32ZM346.048 32L368 105.112C367.746 113.599 364.132 121.638 357.951 127.459C351.771 133.281 343.531 136.41 335.044 136.156C326.557 135.902 318.518 132.288 312.697 126.107C306.875 119.927 303.746 111.687 304 103.2L296.8 32H346.048ZM231.24 32H280.8L288 104.376C288.056 112.863 284.739 121.025 278.777 127.066C272.816 133.106 264.699 136.532 256.212 136.588C247.725 136.644 239.563 133.327 233.522 127.365C227.482 121.404 224.056 113.287 224 104.8L231.24 32ZM215.2 32L208 104C208.147 112.487 204.917 120.685 199.021 126.79C193.124 132.896 185.043 136.409 176.556 136.556C168.069 136.703 159.871 133.473 153.766 127.577C147.66 121.68 144.147 113.599 144 105.112L165.952 32H215.2ZM100.944 32H149.248L128.336 101.704L128 104C128.011 112.339 124.766 120.352 118.956 126.334C113.147 132.316 105.232 135.794 96.8963 136.028C88.5609 136.261 80.4635 133.232 74.3282 127.585C68.193 121.937 64.5044 114.118 64.048 105.792L100.944 32ZM96 152C103.929 151.996 111.733 150.026 118.713 146.266C125.694 142.506 131.633 137.074 136 130.456C140.373 137.07 146.314 142.498 153.295 146.257C160.275 150.017 168.078 151.99 176.006 152.001C183.934 152.012 191.742 150.061 198.733 146.321C205.724 142.581 211.681 137.169 216.072 130.568C220.451 137.162 226.394 142.57 233.372 146.308C240.349 150.046 248.144 151.997 256.06 151.989C263.975 151.98 271.766 150.011 278.735 146.258C285.705 142.505 291.636 137.084 296 130.48C300.368 137.094 306.309 142.522 313.29 146.278C320.27 150.033 328.073 151.999 336 151.999C343.927 151.999 351.73 150.033 358.71 146.278C365.691 142.522 371.632 137.094 376 130.48C381.872 139.44 390.59 146.163 400.75 149.563C410.909 152.963 421.917 152.844 432 149.224V416H80V149.2C85.1346 151.039 90.546 151.986 96 152ZM48 192C48 189.878 48.8429 187.843 50.3431 186.343C51.8434 184.843 53.8783 184 56 184H64V432H448V184H456C458.122 184 460.157 184.843 461.657 186.343C463.157 187.843 464 189.878 464 192V448H48V192ZM480 472C480 474.122 479.157 476.157 477.657 477.657C476.157 479.157 474.122 480 472 480H40C37.8783 480 35.8434 479.157 34.3431 477.657C32.8429 476.157 32 474.122 32 472V464H480V472Z" fill="#CF0042"/>
<path d="M177.44 352H375.04L393.176 216H166.56L158.56 176H120V192H145.44L177.44 352ZM374.864 232L361 336H190.56L169.76 232H374.864Z" fill="#CF0042"/>
<path d="M192 376C192 380.747 193.408 385.387 196.045 389.334C198.682 393.28 202.43 396.357 206.816 398.173C211.201 399.99 216.027 400.465 220.682 399.539C225.338 398.613 229.614 396.327 232.971 392.971C236.327 389.614 238.613 385.338 239.539 380.682C240.465 376.027 239.99 371.201 238.173 366.816C236.357 362.43 233.28 358.682 229.334 356.045C225.387 353.408 220.747 352 216 352C209.635 352 203.53 354.529 199.029 359.029C194.529 363.53 192 369.635 192 376ZM216 368C217.582 368 219.129 368.469 220.445 369.348C221.76 370.227 222.786 371.477 223.391 372.939C223.997 374.4 224.155 376.009 223.846 377.561C223.538 379.113 222.776 380.538 221.657 381.657C220.538 382.776 219.113 383.538 217.561 383.846C216.009 384.155 214.4 383.997 212.939 383.391C211.477 382.786 210.227 381.76 209.348 380.445C208.469 379.129 208 377.582 208 376C208 373.878 208.843 371.843 210.343 370.343C211.843 368.843 213.878 368 216 368Z" fill="#CF0042"/>
<path d="M312 376C312 380.747 313.408 385.387 316.045 389.334C318.682 393.28 322.43 396.357 326.816 398.173C331.201 399.99 336.027 400.465 340.682 399.539C345.338 398.613 349.614 396.327 352.971 392.971C356.327 389.614 358.613 385.338 359.539 380.682C360.465 376.027 359.99 371.201 358.173 366.816C356.357 362.43 353.28 358.682 349.334 356.045C345.387 353.408 340.747 352 336 352C329.635 352 323.53 354.529 319.029 359.029C314.529 363.53 312 369.635 312 376ZM336 368C337.582 368 339.129 368.469 340.445 369.348C341.76 370.227 342.786 371.477 343.391 372.939C343.997 374.4 344.155 376.009 343.846 377.561C343.538 379.113 342.776 380.538 341.657 381.657C340.538 382.776 339.113 383.538 337.561 383.846C336.009 384.155 334.4 383.997 332.939 383.391C331.477 382.786 330.227 381.76 329.348 380.445C328.469 379.129 328 377.582 328 376C328 373.878 328.843 371.843 330.343 370.343C331.843 368.843 333.878 368 336 368Z" fill="#CF0042"/>
</svg>
