<svg width="512" height="512" viewBox="0 0 512 512" fill="none" xmlns="http://www.w3.org/2000/svg">
<g clip-path="url(#clip0_312_383)">
<path d="M49.491 145.416C49.4781 161.249 53.3898 176.838 60.8763 190.789C68.3627 204.741 79.1905 216.619 92.391 225.361C93.6856 226.18 94.7464 227.32 95.4704 228.671C96.1944 230.021 96.557 231.535 96.523 233.067V260.38C96.5301 267.278 99.273 273.891 104.15 278.769C109.027 283.647 115.639 286.391 122.537 286.4H168.3C175.198 286.392 181.811 283.649 186.689 278.771C191.567 273.893 194.31 267.28 194.318 260.382V233.067C194.284 231.535 194.647 230.021 195.371 228.671C196.095 227.32 197.155 226.18 198.45 225.361C212.271 216.192 223.479 203.596 230.98 188.803C238.481 174.009 242.017 157.524 241.245 140.956C240.473 124.387 235.418 108.302 226.574 94.2709C217.729 80.2394 205.398 68.7407 190.784 60.8972C176.169 53.0538 159.771 49.1336 143.189 49.5193C126.607 49.905 110.409 54.5834 96.1751 63.0979C81.9411 71.6124 70.1579 83.672 61.9758 98.0996C53.7937 112.527 49.4921 128.83 49.491 145.416ZM168.3 274.4H122.537C118.821 274.395 115.258 272.917 112.63 270.289C110.002 267.661 108.523 264.098 108.519 260.382V239.067H182.313V260.38C182.309 264.096 180.832 267.659 178.205 270.287C175.578 272.915 172.016 274.394 168.3 274.4ZM145.416 157.719C142.983 157.719 140.605 156.998 138.582 155.646C136.56 154.295 134.983 152.374 134.052 150.126C133.121 147.878 132.878 145.405 133.352 143.019C133.827 140.633 134.998 138.442 136.719 136.722C138.439 135.001 140.63 133.83 143.016 133.355C145.402 132.881 147.875 133.124 150.123 134.055C152.371 134.986 154.292 136.563 155.643 138.585C156.995 140.608 157.716 142.986 157.716 145.419C157.712 148.68 156.414 151.806 154.108 154.111C151.803 156.417 148.677 157.714 145.416 157.719ZM145.416 61.491C163.446 61.4932 180.996 67.3011 195.467 78.055C209.939 88.8088 220.563 103.937 225.766 121.199C230.97 138.462 230.476 156.941 224.359 173.901C218.241 190.861 206.825 205.401 191.8 215.367C187.612 218.108 184.544 222.259 183.154 227.067H151.416V168.967C157.154 167.505 162.16 163.998 165.495 159.106C168.83 154.213 170.264 148.271 169.527 142.396C168.79 136.521 165.934 131.117 161.494 127.199C157.055 123.281 151.337 121.119 145.416 121.119C139.495 121.119 133.777 123.281 129.338 127.199C124.898 131.117 122.042 136.521 121.305 142.396C120.568 148.271 122.002 154.213 125.337 159.106C128.672 163.998 133.678 167.505 139.416 168.967V227.067H107.675C106.285 222.258 103.217 218.107 99.028 215.367C84.0028 205.401 72.5863 190.861 66.4689 173.9C60.3514 156.94 59.8582 138.46 65.0623 121.197C70.2664 103.935 80.8911 88.8067 95.3633 78.0532C109.836 67.2997 127.386 61.4923 145.416 61.491ZM248.24 51.077L230.44 68.877C229.312 69.9869 227.79 70.606 226.207 70.5994C224.625 70.5928 223.109 69.961 221.989 68.8416C220.87 67.7222 220.239 66.206 220.233 64.6232C220.226 63.0404 220.846 61.5192 221.956 60.391L239.756 42.591C240.884 41.481 242.406 40.862 243.989 40.8686C245.571 40.8752 247.087 41.507 248.207 42.6264C249.326 43.7458 249.957 45.262 249.963 46.8448C249.97 48.4276 249.35 49.9488 248.24 51.077ZM259.665 151.416C258.074 151.416 256.548 150.784 255.422 149.659C254.297 148.533 253.665 147.007 253.665 145.416C253.665 143.825 254.297 142.299 255.422 141.173C256.548 140.048 258.074 139.416 259.665 139.416H284.832C286.423 139.416 287.949 140.048 289.075 141.173C290.2 142.299 290.832 143.825 290.832 145.416C290.832 147.007 290.2 148.533 289.075 149.659C287.949 150.784 286.423 151.416 284.832 151.416H259.665ZM239.756 248.241L221.956 230.441C220.846 229.313 220.226 227.792 220.233 226.209C220.239 224.626 220.87 223.11 221.989 221.99C223.109 220.871 224.625 220.239 226.207 220.233C227.79 220.226 229.312 220.845 230.44 221.955L248.24 239.75C248.805 240.305 249.254 240.967 249.561 241.697C249.869 242.427 250.029 243.21 250.033 244.002C250.036 244.794 249.882 245.579 249.581 246.312C249.279 247.044 248.836 247.71 248.276 248.27C247.716 248.83 247.05 249.274 246.318 249.575C245.586 249.877 244.801 250.031 244.009 250.027C243.217 250.024 242.433 249.864 241.703 249.557C240.973 249.249 240.312 248.801 239.756 248.236V248.241ZM42.592 239.755L60.392 221.96C60.9475 221.395 61.6094 220.947 62.3393 220.639C63.0692 220.332 63.8528 220.172 64.6448 220.169C65.4369 220.165 66.2217 220.319 66.954 220.621C67.6863 220.922 68.3517 221.366 68.9117 221.926C69.4717 222.486 69.9152 223.152 70.2168 223.884C70.5183 224.617 70.6718 225.402 70.6685 226.194C70.6652 226.986 70.5051 227.769 70.1974 228.499C69.8898 229.229 69.4407 229.891 68.876 230.446L51.076 248.246C49.9476 249.356 48.4262 249.975 46.8434 249.968C45.2606 249.962 43.7445 249.33 42.6254 248.211C41.5063 247.091 40.8749 245.575 40.8686 243.992C40.8623 242.409 41.4818 240.888 42.592 239.76V239.755ZM37.166 145.416C37.166 147.007 36.5339 148.533 35.4086 149.659C34.2834 150.784 32.7573 151.416 31.166 151.416H6C4.4087 151.416 2.88258 150.784 1.75736 149.659C0.632141 148.533 0 147.007 0 145.416C0 143.825 0.632141 142.299 1.75736 141.173C2.88258 140.048 4.4087 139.416 6 139.416H31.166C32.7573 139.416 34.2834 140.048 35.4086 141.173C36.5339 142.299 37.166 143.825 37.166 145.416ZM42.591 42.592C43.7162 41.4669 45.2423 40.8348 46.8335 40.8348C48.4247 40.8348 49.9508 41.4669 51.076 42.592L68.876 60.392C69.4407 60.9474 69.8898 61.6091 70.1974 62.339C70.5051 63.0688 70.6652 63.8524 70.6685 64.6444C70.6718 65.4364 70.5183 66.2213 70.2168 66.9537C69.9152 67.6861 69.4717 68.3516 68.9117 68.9117C68.3517 69.4718 67.6863 69.9155 66.954 70.2172C66.2217 70.5189 65.4369 70.6726 64.6448 70.6695C63.8528 70.6664 63.0692 70.5064 62.3393 70.199C61.6094 69.8915 60.9475 69.4425 60.392 68.878L42.592 51.078C42.0347 50.5209 41.5925 49.8595 41.2909 49.1315C40.9892 48.4035 40.8339 47.6232 40.8338 46.8352C40.8337 46.0472 40.9888 45.2669 41.2903 44.5388C41.5918 43.8108 42.0338 43.1492 42.591 42.592ZM145.416 37.167C143.825 37.167 142.299 36.5349 141.173 35.4096C140.048 34.2844 139.416 32.7583 139.416 31.167V6C139.416 4.4087 140.048 2.88258 141.173 1.75736C142.299 0.632141 143.825 0 145.416 0C147.007 0 148.533 0.632141 149.659 1.75736C150.784 2.88258 151.416 4.4087 151.416 6V31.167C151.416 32.7583 150.784 34.2844 149.659 35.4096C148.533 36.5349 147.007 37.167 145.416 37.167ZM418.343 111.892V196.786L433.648 181.48C434.776 180.37 436.298 179.751 437.88 179.757C439.463 179.764 440.979 180.395 442.099 181.514C443.218 182.634 443.849 184.15 443.856 185.733C443.862 187.315 443.243 188.837 442.133 189.965L416.585 215.513C415.46 216.638 413.934 217.27 412.342 217.27C410.751 217.27 409.225 216.638 408.1 215.513L382.553 189.965C381.996 189.408 381.554 188.746 381.252 188.018C380.951 187.29 380.796 186.51 380.796 185.722C380.796 184.934 380.951 184.154 381.253 183.426C381.554 182.698 381.996 182.037 382.553 181.48C383.111 180.922 383.772 180.48 384.5 180.179C385.228 179.877 386.008 179.722 386.796 179.722C387.584 179.722 388.365 179.878 389.092 180.179C389.82 180.481 390.482 180.923 391.039 181.48L406.339 196.785V117.892H314.832C313.241 117.892 311.715 117.26 310.589 116.135C309.464 115.009 308.832 113.483 308.832 111.892C308.832 110.301 309.464 108.775 310.589 107.649C311.715 106.524 313.241 105.892 314.832 105.892H412.343C413.934 105.892 415.46 106.524 416.586 107.649C417.711 108.775 418.343 110.301 418.343 111.892ZM139.416 471.119V324.884L124.116 340.184C123.563 340.757 122.9 341.214 122.168 341.529C121.436 341.843 120.649 342.009 119.852 342.016C119.056 342.022 118.266 341.871 117.528 341.569C116.791 341.267 116.121 340.822 115.558 340.258C114.994 339.695 114.549 339.025 114.247 338.288C113.945 337.55 113.794 336.76 113.8 335.964C113.807 335.167 113.973 334.38 114.287 333.648C114.602 332.916 115.059 332.253 115.632 331.7L141.179 306.152C142.304 305.027 143.83 304.395 145.421 304.395C147.012 304.395 148.538 305.027 149.663 306.152L175.205 331.7C175.778 332.253 176.235 332.916 176.55 333.648C176.864 334.38 177.03 335.167 177.036 335.964C177.043 336.76 176.892 337.55 176.59 338.288C176.288 339.025 175.843 339.695 175.279 340.258C174.716 340.822 174.046 341.267 173.309 341.569C172.571 341.871 171.781 342.022 170.985 342.016C170.188 342.009 169.401 341.843 168.669 341.529C167.937 341.214 167.274 340.757 166.721 340.184L151.416 324.884V465.119H243.971C245.562 465.119 247.088 465.751 248.214 466.876C249.339 468.002 249.971 469.528 249.971 471.119C249.971 472.71 249.339 474.236 248.214 475.362C247.088 476.487 245.562 477.119 243.971 477.119H145.416C143.825 477.119 142.299 476.487 141.173 475.362C140.048 474.236 139.416 472.71 139.416 471.119ZM488.358 294.61L455.387 261.639C454.415 260.667 453.139 260.059 451.773 259.915C450.406 259.771 449.032 260.101 447.879 260.849L424.751 275.849C419.964 273.442 415.008 271.386 409.923 269.697L404.182 242.743C403.896 241.399 403.157 240.194 402.088 239.329C401.02 238.465 399.687 237.993 398.313 237.993H351.685C350.311 237.993 348.978 238.465 347.91 239.329C346.841 240.194 346.102 241.399 345.816 242.743L340.075 269.693C334.988 271.382 330.031 273.439 325.242 275.846L302.119 260.846C300.966 260.098 299.592 259.768 298.225 259.912C296.859 260.056 295.583 260.664 294.611 261.636L261.64 294.61C260.668 295.582 260.06 296.857 259.916 298.224C259.772 299.591 260.101 300.965 260.849 302.118L275.849 325.247C273.442 330.034 271.385 334.989 269.696 340.074L242.743 345.816C241.399 346.102 240.194 346.841 239.329 347.91C238.465 348.978 237.993 350.311 237.993 351.685V398.313C237.993 399.687 238.465 401.02 239.329 402.088C240.194 403.157 241.399 403.896 242.743 404.182L269.696 409.924C271.385 415.009 273.441 419.966 275.848 424.753L260.848 447.88C260.1 449.033 259.771 450.407 259.915 451.774C260.059 453.141 260.667 454.416 261.639 455.388L294.61 488.359C295.582 489.331 296.858 489.939 298.224 490.083C299.591 490.227 300.965 489.897 302.118 489.149L325.24 474.149C330.03 476.557 334.988 478.614 340.075 480.304L345.815 507.251C346.101 508.595 346.84 509.8 347.909 510.665C348.977 511.529 350.31 512.001 351.684 512.001H398.312C399.686 512.001 401.019 511.529 402.087 510.665C403.156 509.8 403.895 508.595 404.181 507.251L409.922 480.301C415.009 478.612 419.966 476.556 424.755 474.149L447.878 489.149C449.031 489.897 450.405 490.227 451.772 490.083C453.138 489.939 454.414 489.331 455.386 488.359L488.357 455.388C489.329 454.416 489.937 453.141 490.081 451.774C490.225 450.407 489.896 449.033 489.148 447.88L474.148 424.751C476.554 419.964 478.61 415.009 480.299 409.924L507.253 404.182C508.597 403.896 509.802 403.157 510.667 402.088C511.531 401.02 512.003 399.687 512.003 398.313V351.685C512.003 350.311 511.531 348.978 510.667 347.91C509.802 346.841 508.597 346.102 507.253 345.816L480.303 340.075C478.614 334.988 476.558 330.031 474.151 325.242L489.151 302.118C489.899 300.965 490.228 299.59 490.083 298.224C489.939 296.857 489.33 295.581 488.358 294.61ZM462.174 321.651C461.586 322.558 461.253 323.606 461.212 324.686C461.17 325.766 461.421 326.837 461.938 327.786C465.247 333.866 467.905 340.278 469.87 346.915C470.176 347.95 470.755 348.884 471.547 349.617C472.339 350.35 473.314 350.856 474.37 351.082L500 356.541V393.457L474.37 398.917C473.314 399.143 472.339 399.649 471.547 400.383C470.755 401.116 470.176 402.05 469.87 403.085C467.906 409.72 465.247 416.13 461.938 422.207C461.421 423.156 461.17 424.227 461.212 425.307C461.253 426.387 461.586 427.435 462.174 428.342L476.443 450.342L450.343 476.442L428.354 462.177C427.448 461.589 426.399 461.257 425.319 461.215C424.24 461.174 423.169 461.424 422.22 461.941C416.139 465.249 409.727 467.908 403.089 469.875C402.054 470.181 401.121 470.761 400.388 471.553C399.654 472.345 399.149 473.32 398.923 474.375L393.457 500H356.541L351.083 474.377C350.857 473.321 350.351 472.346 349.618 471.554C348.885 470.762 347.951 470.183 346.916 469.877C340.278 467.911 333.866 465.252 327.785 461.942C326.836 461.425 325.765 461.174 324.685 461.216C323.605 461.257 322.557 461.59 321.65 462.178L299.662 476.443L273.562 450.343L287.829 428.35C288.417 427.444 288.75 426.395 288.791 425.316C288.833 424.236 288.582 423.165 288.066 422.216C284.758 416.137 282.099 409.726 280.134 403.09C279.828 402.055 279.249 401.121 278.457 400.388C277.665 399.655 276.69 399.149 275.634 398.923L250 393.457V356.541L275.629 351.081C276.685 350.855 277.66 350.349 278.452 349.616C279.244 348.883 279.823 347.949 280.129 346.914C282.094 340.279 284.753 333.869 288.062 327.791C288.579 326.842 288.83 325.771 288.788 324.691C288.747 323.611 288.414 322.563 287.826 321.656L273.557 299.656L299.657 273.556L321.646 287.822C322.552 288.41 323.601 288.743 324.681 288.785C325.761 288.826 326.832 288.576 327.781 288.059C333.861 284.749 340.273 282.089 346.911 280.123C347.946 279.817 348.879 279.237 349.612 278.445C350.346 277.653 350.851 276.678 351.077 275.623L356.541 250H393.457L398.916 275.63C399.142 276.686 399.648 277.661 400.382 278.453C401.115 279.245 402.049 279.824 403.084 280.13C409.72 282.095 416.13 284.754 422.208 288.063C423.157 288.579 424.228 288.829 425.308 288.787C426.387 288.745 427.435 288.413 428.342 287.826L450.336 273.557L476.436 299.657L462.174 321.651ZM375 301.334C360.43 301.334 346.188 305.654 334.074 313.748C321.96 321.842 312.518 333.347 306.942 346.808C301.366 360.268 299.907 375.08 302.749 389.369C305.591 403.659 312.607 416.785 322.909 427.087C333.211 437.39 346.337 444.406 360.627 447.248C374.916 450.091 389.728 448.632 403.188 443.057C416.649 437.482 428.154 428.04 436.249 415.926C444.343 403.812 448.664 389.57 448.664 375C448.642 355.47 440.874 336.745 427.064 322.935C413.255 309.125 394.53 301.356 375 301.334ZM375 436.664C362.804 436.664 350.881 433.048 340.74 426.272C330.599 419.496 322.696 409.865 318.028 398.598C313.361 387.33 312.14 374.931 314.519 362.969C316.898 351.007 322.771 340.019 331.395 331.395C340.019 322.771 351.007 316.898 362.969 314.519C374.931 312.14 387.33 313.361 398.598 318.028C409.865 322.696 419.496 330.599 426.272 340.74C433.048 350.881 436.664 362.804 436.664 375C436.645 391.349 430.142 407.022 418.582 418.582C407.022 430.142 391.349 436.645 375 436.664ZM409.707 365.334L362.58 338.125C360.883 337.146 358.959 336.63 357 336.63C355.041 336.631 353.117 337.146 351.421 338.126C349.724 339.105 348.316 340.514 347.336 342.21C346.357 343.907 345.841 345.831 345.841 347.79V402.207C345.833 404.169 346.344 406.098 347.322 407.799C348.3 409.5 349.709 410.912 351.408 411.893C353.107 412.874 355.035 413.389 356.997 413.385C358.959 413.381 360.885 412.859 362.58 411.872L409.707 384.664C411.404 383.685 412.812 382.276 413.792 380.579C414.772 378.883 415.287 376.958 415.287 374.999C415.287 373.04 414.772 371.115 413.792 369.419C412.812 367.722 411.404 366.313 409.707 365.334ZM357.84 400.752V349.245L402.446 375L357.84 400.752Z" fill="white"/>
</g>
<defs>
<clipPath id="clip0_312_383">
<rect width="512" height="512" fill="white"/>
</clipPath>
</defs>
</svg>
