<svg width="512" height="512" viewBox="0 0 512 512" fill="none" xmlns="http://www.w3.org/2000/svg">
<g clip-path="url(#clip0_312_295)">
<path d="M494.951 55.3H310.151C316.051 39.97 303.881 22.43 287.371 22.75H224.641C208.141 22.43 195.951 39.97 201.861 55.3H17.0506C7.59062 55.3 -0.109375 63 -0.109375 72.46V414.61C-0.109375 424.07 7.59063 431.76 17.0406 431.76H214.751V472.24H114.791C110.371 472.24 106.791 475.82 106.791 480.24C106.791 484.66 110.371 488.24 114.791 488.24H214.761H397.221C401.641 488.24 405.221 484.66 405.221 480.24C405.221 475.82 401.641 472.24 397.221 472.24H297.251V431.76H494.951C504.411 431.76 512.101 424.06 512.101 414.61V72.46C512.101 63 504.401 55.31 494.951 55.31V55.3ZM230.751 472.25V431.84H281.241V472.25H230.751ZM295.611 47C295.741 58.85 277.931 54.49 270.851 55.25C273.541 50.3 273.201 43.4 270.081 38.76C277.231 39.6 295.741 34.97 295.611 47.01V47ZM224.631 38.75H241.911C238.791 43.39 238.451 50.29 241.141 55.24H224.631C213.931 55.39 213.931 38.6 224.631 38.75ZM496.111 414.61C496.361 418 18.2106 414.59 17.0506 415.77C14.1606 415.14 15.3106 72.07 17.0506 71.31H494.961C498.511 71.01 494.831 413.49 496.111 414.61Z" fill="#CF0042"/>
<path d="M35.6699 398.23H476.33V88.83H35.6699V398.23ZM175.17 204.54C179.54 213.02 188.5 224.25 206.64 231.79C194.1 279.85 121.17 276.26 113.51 227.06C128.39 225 156.72 219.31 175.17 204.53V204.54ZM113.14 212.95C119.85 155.56 206.78 159.21 208.41 217.24C187.68 207.1 185.1 191.69 185 191.03C184.43 185.07 176.2 182.74 172.61 187.53C159.28 204.07 129.14 210.59 113.15 212.95H113.14ZM170.05 351.6C169.22 354.04 165.16 358.51 161.62 361.72C158.19 358.5 154.2 354.01 153.33 351.58L161.77 314.39L170.05 351.6ZM163.6 290.31H160.03L158.05 285.44H165.57L163.6 290.31ZM140.79 285.44L147.93 303.05C147.92 303.94 136.81 350.39 137.19 351.25C134.94 358.81 156.65 382.04 161.54 379.83C166.5 381.87 188.47 359.06 186.16 351.25C186.53 350.2 175.67 304.13 175.66 303.11L182.83 285.43C227.85 284.25 247.7 341.2 245.02 382.22H76.1899C73.3499 340.3 94.3499 282.34 140.79 285.43V285.44ZM51.6699 104.83H460.33V382.23H261.04C263.45 336.55 243.35 281.24 197.77 270.64C247.49 237.77 221.31 152.82 160.61 154.94C99.9299 152.82 73.7199 237.78 123.46 270.64C77.8699 281.26 57.7999 336.52 60.1899 382.23H51.6699V104.83Z" fill="#CF0042"/>
<path d="M322.08 204.8C342.9 204.72 342.91 173.02 322.08 172.94C301.28 173.03 301.23 204.7 322.08 204.8ZM322.08 188.8C322.08 188.8 322.15 188.83 322.08 188.94C322.07 188.94 322.04 188.94 322.03 188.92L322.07 188.8H322.08Z" fill="#CF0042"/>
<path d="M361.4 204.8C382.22 204.72 382.23 173.02 361.4 172.94C340.6 173.03 340.55 204.7 361.4 204.8ZM361.4 188.8V188.94C361.4 188.94 361.37 188.94 361.36 188.92L361.4 188.8Z" fill="#CF0042"/>
<path d="M400.73 204.8C421.55 204.72 421.56 173.02 400.73 172.94C379.93 173.03 379.88 204.7 400.73 204.8ZM400.73 188.8V188.94C400.73 188.94 400.7 188.94 400.69 188.92L400.73 188.8Z" fill="#CF0042"/>
<path d="M324.151 258.76C369.491 256.98 448.191 274.05 450.341 205.69C453.301 164.56 447.931 121.48 397.271 118.97C334.641 120.28 263.761 102.49 271.081 193.75L226.691 243.92H287.341C297.191 253.39 310.401 258.76 324.141 258.76H324.151ZM287.081 199.81C285.521 170.25 286.191 136.96 324.151 134.97C357.481 138.73 433.301 118.06 434.341 172.04C435.251 202.27 438.131 240.84 397.271 242.76H324.151C312.411 242.87 301.551 237 294.281 227.92H262.221L287.091 199.81H287.081Z" fill="#CF0042"/>
</g>
<defs>
<clipPath id="clip0_312_295">
<rect width="512" height="512" fill="white"/>
</clipPath>
</defs>
</svg>
