<svg width="512" height="512" viewBox="0 0 512 512" fill="none" xmlns="http://www.w3.org/2000/svg">
<g clip-path="url(#clip0_301_4)">
<path d="M256 0C192.971 0.0449358 132.184 23.3946 85.3333 65.5573V21.3333C85.3333 15.6754 83.0857 10.2492 79.085 6.24839C75.0842 2.24761 69.658 0 64 0C58.3421 0 52.9158 2.24761 48.9151 6.24839C44.9143 10.2492 42.6667 15.6754 42.6667 21.3333V85.3333C42.6667 102.307 49.4095 118.586 61.4118 130.588C73.4142 142.591 89.6928 149.333 106.667 149.333H170.667C176.325 149.333 181.751 147.086 185.752 143.085C189.752 139.084 192 133.658 192 128C192 122.342 189.752 116.916 185.752 112.915C181.751 108.914 176.325 106.667 170.667 106.667H106.667C105.947 106.56 105.235 106.41 104.533 106.219C139.296 71.207 185.133 49.3456 234.22 44.3662C283.307 39.3868 332.6 51.598 373.686 78.9154C414.772 106.233 445.103 146.963 459.503 194.154C473.902 241.344 471.477 292.07 452.642 337.671C433.806 383.273 399.728 420.924 356.223 444.197C312.719 467.471 262.485 474.924 214.097 465.285C165.71 455.645 122.167 429.511 90.9025 391.343C59.6379 353.175 42.5892 305.339 42.6667 256C42.6667 250.342 40.4191 244.916 36.4183 240.915C32.4175 236.914 26.9913 234.667 21.3333 234.667C15.6754 234.667 10.2492 236.914 6.24839 240.915C2.24761 244.916 0 250.342 0 256C0 306.632 15.0141 356.127 43.1438 398.226C71.2734 440.325 111.255 473.137 158.033 492.513C204.811 511.889 256.284 516.959 305.943 507.081C355.602 497.203 401.217 472.822 437.019 437.019C472.822 401.217 497.203 355.602 507.081 305.943C516.959 256.284 511.889 204.811 492.513 158.033C473.137 111.255 440.325 71.2734 398.226 43.1438C356.127 15.0141 306.632 0 256 0Z" fill="#CF0042"/>
<path d="M256 128C250.342 128 244.916 130.248 240.915 134.248C236.915 138.249 234.667 143.675 234.667 149.333V256C234.668 261.657 236.917 267.083 240.918 271.083L304.918 335.083C308.941 338.969 314.33 341.119 319.924 341.07C325.517 341.022 330.868 338.778 334.823 334.823C338.778 330.867 341.022 325.517 341.071 319.923C341.119 314.33 338.969 308.941 335.083 304.917L277.334 247.168V149.333C277.334 143.675 275.086 138.249 271.085 134.248C267.084 130.248 261.658 128 256 128Z" fill="#CF0042"/>
</g>
<defs>
<clipPath id="clip0_301_4">
<rect width="512" height="512" fill="white"/>
</clipPath>
</defs>
</svg>
