<svg width="60" height="60" viewBox="0 0 60 60" fill="none" xmlns="http://www.w3.org/2000/svg">
<g clip-path="url(#clip0_36_1384)">
<path d="M57.204 45.9768H56.5224C56.4986 45.9768 56.4776 45.9603 56.4693 45.9352C56.3338 45.5291 56.1681 45.1286 55.9763 44.7454C55.964 44.7207 55.9667 44.6937 55.9837 44.6768L56.4652 44.1952C56.8076 43.8528 56.9962 43.3973 56.9962 42.913C56.9962 42.4287 56.8081 41.9737 56.4657 41.6313L55.016 40.1816C54.6736 39.8392 54.2181 39.6506 53.7338 39.6506C53.2495 39.6506 52.7945 39.8392 52.452 40.1816L51.97 40.6632C51.9531 40.6801 51.9265 40.6833 51.9018 40.6705C51.5182 40.4791 51.1181 40.3134 50.7116 40.1779C50.6865 40.1692 50.67 40.1486 50.67 40.1248V39.4432C50.67 38.4439 49.857 37.6305 48.8573 37.6305H48.1047C47.3526 37.1132 46.5273 36.7269 45.6461 36.4815L35.0128 33.5175C34.6763 33.4237 34.3198 33.4507 34.0048 33.583C33.7526 33.2333 33.5928 32.7842 33.5928 32.3676V29.4233C34.0918 29.1015 34.5761 28.739 35.0444 28.3357C37.0713 26.5903 38.3457 24.0689 38.6158 21.3192C40.1003 21.2624 41.2905 20.037 41.2905 18.5387V16.4298C41.2905 15.4928 40.8337 14.651 40.0971 14.1429L40.2349 13.6302C40.2569 13.5483 40.2665 13.4654 40.2647 13.3844V9.40737C40.2647 8.92214 39.8715 8.52847 39.3858 8.52847C38.9005 8.52847 38.5069 8.92214 38.5069 9.40737V12.1567C34.8109 10.9097 31.0385 10.2785 27.2744 10.2785C23.5102 10.2785 19.7378 10.9097 16.0419 12.1567V7.57084C16.0419 5.58142 17.3932 3.87031 19.3286 3.40981L25.4873 1.94361C26.5108 1.70008 27.5944 1.6955 28.6207 1.93079L35.1858 3.43636C36.4406 3.72429 37.4888 4.551 38.0619 5.70455C38.2775 6.13942 38.8053 6.31658 39.2397 6.10097C39.6746 5.88491 39.8522 5.35757 39.6362 4.9227C38.8278 3.29537 37.3492 2.129 35.579 1.72297L29.0134 0.217396C27.7257 -0.0778582 26.3653 -0.0723652 25.0803 0.233876L18.9217 1.69962C16.1911 2.34964 14.2841 4.76386 14.2841 7.57084V13.3844C14.2832 13.4265 14.2855 13.4695 14.291 13.5125C14.291 13.5144 14.2914 13.5167 14.2919 13.5185C14.2923 13.5231 14.2928 13.5272 14.2933 13.5313C14.2942 13.5359 14.2951 13.5409 14.2955 13.5455C14.296 13.5469 14.296 13.5483 14.2965 13.5496C14.302 13.5821 14.3093 13.6146 14.318 13.6458L14.4521 14.1429C13.7151 14.651 13.2583 15.4933 13.2583 16.4298V18.5387C13.2583 20.037 14.4484 21.2624 15.9329 21.3192C16.203 24.0689 17.4774 26.5903 19.5044 28.3357C19.9731 28.739 20.457 29.1015 20.9559 29.4238V32.3676C20.9559 32.7842 20.7962 33.2333 20.544 33.583C20.229 33.4507 19.8724 33.4237 19.536 33.5175L8.90268 36.4815C5.84028 37.3348 3.51578 39.9111 2.98066 43.0449L2.53754 45.6408C2.45561 46.1196 2.77741 46.5737 3.25577 46.6552C3.30566 46.6639 3.35556 46.668 3.40454 46.668C3.82522 46.668 4.19692 46.3655 4.27016 45.937L4.71327 43.3406C5.13487 40.8742 6.96453 38.8468 9.37463 38.1748L14.4022 36.774L19.2503 42.3065C19.2604 42.318 19.2705 42.3294 19.2805 42.3404C19.2828 42.3431 19.2856 42.3463 19.2883 42.3491C19.297 42.3587 19.3057 42.3683 19.3149 42.3779C19.3162 42.3798 19.3176 42.3811 19.319 42.383C19.3291 42.3939 19.3396 42.4045 19.3497 42.4155C19.352 42.4177 19.3547 42.4205 19.357 42.4232L19.3831 42.4507C19.3849 42.4525 19.3872 42.4544 19.389 42.4562C19.3991 42.4672 19.4096 42.4777 19.4202 42.4882C19.4224 42.4901 19.4247 42.4924 19.427 42.4946C19.4357 42.5033 19.4444 42.512 19.4536 42.5207C19.4559 42.523 19.4582 42.5253 19.4609 42.5276C19.4714 42.5381 19.482 42.5482 19.4929 42.5583C19.4943 42.5601 19.4961 42.5615 19.4975 42.5633C19.5071 42.5716 19.5163 42.5802 19.5254 42.5889C19.5286 42.5917 19.5314 42.5944 19.5346 42.5972C19.5451 42.6073 19.5561 42.6169 19.5666 42.6265C19.5676 42.6274 19.568 42.6279 19.5689 42.6283C19.579 42.6375 19.5895 42.6466 19.6001 42.6558C19.6033 42.6585 19.606 42.6613 19.6092 42.664C19.6193 42.6727 19.6289 42.681 19.639 42.6897C19.6399 42.6906 19.6413 42.6919 19.6426 42.6929C19.6536 42.702 19.6646 42.7116 19.676 42.7208C19.6792 42.7231 19.6825 42.7258 19.6857 42.7286C19.6948 42.7359 19.7035 42.7432 19.7122 42.7501C19.715 42.7524 19.7177 42.7547 19.7204 42.7569C19.7314 42.7656 19.7424 42.7743 19.7539 42.783C19.7566 42.7853 19.7598 42.7881 19.763 42.7904C19.7713 42.7972 19.78 42.8036 19.7887 42.81C19.7923 42.8132 19.796 42.8155 19.7996 42.8187C19.8106 42.827 19.8216 42.8352 19.8326 42.8435C19.8358 42.8453 19.8385 42.8476 19.8413 42.8499C19.8504 42.8563 19.8591 42.8627 19.8683 42.8691C19.872 42.8718 19.8756 42.8746 19.8793 42.8773C19.8907 42.8851 19.9022 42.8934 19.9136 42.9016C19.9155 42.903 19.9173 42.9043 19.9196 42.9057C19.9292 42.9121 19.9393 42.919 19.9489 42.9259C19.953 42.9286 19.9571 42.9314 19.9612 42.9341C19.9704 42.94 19.9791 42.946 19.9882 42.9519C19.9914 42.9542 19.9946 42.9565 19.9978 42.9588C20.0088 42.9657 20.0198 42.973 20.0303 42.9799C20.0354 42.9831 20.04 42.9858 20.0445 42.989C20.0528 42.9941 20.0606 42.9986 20.0683 43.0037C20.0725 43.0064 20.077 43.0092 20.0812 43.0119C20.0921 43.0188 20.1031 43.0252 20.1146 43.0321C20.1192 43.0348 20.1237 43.0376 20.1283 43.0403C20.1361 43.0449 20.1439 43.0495 20.1517 43.054C20.1562 43.0572 20.1613 43.06 20.1663 43.0627C20.1773 43.0691 20.1878 43.0755 20.1988 43.0815C20.2043 43.0847 20.2093 43.0874 20.2144 43.0907C20.2217 43.0943 20.2286 43.0984 20.2359 43.1026C20.2414 43.1058 20.2473 43.1085 20.2528 43.1117C20.2611 43.1163 20.2693 43.1209 20.278 43.1254C20.2853 43.1296 20.2926 43.1332 20.3 43.1373C20.3073 43.141 20.3151 43.1451 20.3224 43.1488C20.3284 43.152 20.3343 43.1552 20.3407 43.1584C20.3467 43.1616 20.3531 43.1648 20.3595 43.168C20.3695 43.173 20.3796 43.1781 20.3897 43.1831C20.3961 43.1863 20.4025 43.1895 20.4089 43.1927C20.4158 43.1959 20.4226 43.1991 20.4291 43.2023C20.435 43.2051 20.441 43.2078 20.4474 43.2106C20.4561 43.2152 20.4652 43.2193 20.4744 43.2234C20.4822 43.2271 20.4899 43.2307 20.4982 43.2344C20.5055 43.2376 20.5128 43.2413 20.5202 43.2445C20.5247 43.2463 20.5293 43.2486 20.5339 43.2504C20.5417 43.2541 20.5494 43.2573 20.5572 43.2609C20.56 43.2619 20.5627 43.2628 20.5655 43.2641C20.5806 43.2705 20.5957 43.277 20.6112 43.2834C20.6158 43.2852 20.6204 43.287 20.625 43.2889C20.6328 43.2921 20.6401 43.2953 20.6479 43.2985C20.6529 43.3003 20.6579 43.3021 20.6625 43.3044C20.6762 43.3099 20.69 43.315 20.7037 43.3204C20.7078 43.3218 20.7115 43.3232 20.7156 43.325C20.7239 43.3278 20.7326 43.331 20.7408 43.3342C20.744 43.3356 20.7472 43.3365 20.7504 43.3378C20.7673 43.3442 20.7847 43.3502 20.8017 43.3562C20.8035 43.3566 20.8053 43.3575 20.8072 43.358C20.8163 43.3612 20.825 43.3644 20.8342 43.3671C20.8374 43.3685 20.8406 43.3694 20.8438 43.3708C20.8722 43.38 20.9005 43.3891 20.9294 43.3983C20.9317 43.3992 20.9344 43.3996 20.9367 43.4006C20.966 43.4093 20.9948 43.4179 21.0241 43.4262C21.0269 43.4266 21.0292 43.4276 21.0319 43.428C21.0617 43.4367 21.0919 43.4445 21.1221 43.4518C21.1235 43.4523 21.1253 43.4527 21.1267 43.4532C21.1368 43.4555 21.1468 43.4582 21.1564 43.4605C21.1578 43.461 21.1592 43.461 21.1606 43.4614C21.1807 43.466 21.2008 43.4706 21.221 43.4752C21.2219 43.4752 21.2224 43.4756 21.2228 43.4756C21.2333 43.4779 21.2434 43.4797 21.2535 43.482C21.2549 43.4825 21.2562 43.4825 21.2581 43.483C21.2887 43.4894 21.3194 43.4953 21.3505 43.5008C21.3524 43.5013 21.3546 43.5017 21.3569 43.5022C21.3876 43.5077 21.4178 43.5127 21.4485 43.5173C21.4508 43.5177 21.4526 43.5182 21.4544 43.5182C21.4856 43.5232 21.5172 43.5274 21.5483 43.5315C21.5497 43.5315 21.551 43.5319 21.5524 43.5319C21.5629 43.5333 21.573 43.5347 21.5835 43.5356C21.5844 43.5356 21.5849 43.5356 21.5854 43.5361C21.6069 43.5383 21.6279 43.5406 21.6494 43.5425C21.6499 43.5425 21.6504 43.5429 21.6508 43.5429C21.6613 43.5438 21.6723 43.5447 21.6829 43.5457C21.6838 43.5457 21.6847 43.5461 21.6861 43.5461C21.7176 43.5489 21.7497 43.5512 21.7813 43.553C21.7836 43.553 21.7854 43.5534 21.7872 43.5534C21.8179 43.5553 21.8486 43.5566 21.8792 43.5576C21.8824 43.558 21.8856 43.558 21.8884 43.558C21.9181 43.5589 21.9484 43.5599 21.9781 43.5599H21.9886C21.9937 43.5599 21.9992 43.5603 22.0047 43.5603C22.1099 43.5603 22.2157 43.5557 22.321 43.5461H22.3214C22.3439 43.5443 22.3663 43.542 22.3887 43.5397C22.4551 43.5328 22.521 43.5241 22.5869 43.5136C22.5888 43.5132 22.5906 43.5127 22.5924 43.5127C22.6016 43.5109 22.6107 43.5095 22.6199 43.5081C22.6222 43.5077 22.6249 43.5072 22.6272 43.5068C22.6359 43.5054 22.6451 43.5035 22.6538 43.5022C22.6565 43.5017 22.6593 43.5008 22.6625 43.5003C22.6707 43.499 22.6789 43.4976 22.6872 43.4958C22.6908 43.4953 22.6945 43.4944 22.6986 43.4939C22.706 43.4921 22.7137 43.4907 22.7215 43.4894C22.7256 43.4884 22.7293 43.4875 22.7334 43.4871C22.7412 43.4852 22.749 43.4839 22.7568 43.482C22.7604 43.4816 22.7641 43.4807 22.7677 43.4797C22.776 43.4779 22.7838 43.4765 22.792 43.4747C22.7943 43.4738 22.797 43.4733 22.7993 43.4729C22.8263 43.4669 22.8533 43.4605 22.8804 43.4537C22.8849 43.4527 22.89 43.4514 22.8945 43.4504C22.901 43.4486 22.9074 43.4472 22.9138 43.4454C22.9193 43.444 22.9248 43.4427 22.9303 43.4413C22.9362 43.4395 22.9426 43.4381 22.9486 43.4363C22.9541 43.4349 22.9595 43.4335 22.965 43.4321C22.9715 43.4303 22.9774 43.4285 22.9834 43.4271C22.9893 43.4253 22.9953 43.4234 23.0012 43.4221C23.0067 43.4202 23.0126 43.4189 23.0186 43.417C23.0241 43.4152 23.03 43.4138 23.036 43.412C23.0415 43.4102 23.0474 43.4088 23.0534 43.407C23.0598 43.4051 23.0662 43.4028 23.0726 43.401C23.0777 43.3996 23.0827 43.3978 23.0877 43.3964C23.0946 43.3941 23.1015 43.3923 23.1079 43.39C23.1129 43.3887 23.1179 43.3868 23.123 43.3854C23.1303 43.3832 23.1381 43.3804 23.1454 43.3781C23.1495 43.3768 23.1536 43.3754 23.1578 43.374C23.1697 43.3703 23.1811 43.3662 23.193 43.3621L27.2748 41.9719L31.3562 43.3621C31.3681 43.3662 31.38 43.3703 31.3919 43.374C31.3951 43.3754 31.3983 43.3763 31.402 43.3772C31.4098 43.38 31.418 43.3827 31.4263 43.3854C31.4308 43.3868 31.4354 43.3882 31.44 43.3896L31.462 43.3964C31.4665 43.3978 31.4711 43.3992 31.4762 43.4006C31.483 43.4028 31.4899 43.4047 31.4968 43.407C31.5018 43.4083 31.5073 43.4102 31.5123 43.4115C31.5187 43.4134 31.5247 43.4152 31.5311 43.417C31.537 43.4184 31.5425 43.4202 31.548 43.4216C31.554 43.4234 31.5599 43.4248 31.5659 43.4266C31.5718 43.4285 31.5778 43.4298 31.5842 43.4317C31.5897 43.4331 31.5952 43.4344 31.6007 43.4363C31.6066 43.4376 31.6126 43.4395 31.619 43.4408C31.6249 43.4427 31.6309 43.444 31.6368 43.4454C31.6428 43.4472 31.6487 43.4486 31.6542 43.45C31.6588 43.4514 31.6629 43.4523 31.6675 43.4532C31.6945 43.4601 31.722 43.4665 31.7494 43.4724C31.7517 43.4729 31.7545 43.4733 31.7572 43.4743C31.765 43.4761 31.7732 43.4775 31.781 43.4793C31.7851 43.4802 31.7888 43.4811 31.7925 43.4816C31.7998 43.4834 31.8067 43.4848 31.814 43.4862C31.8186 43.4871 31.8236 43.488 31.8286 43.4889C31.835 43.4903 31.8419 43.4916 31.8483 43.493C31.8538 43.4939 31.8588 43.4949 31.8639 43.4958C31.8703 43.4971 31.8772 43.4985 31.8836 43.4994C31.8886 43.5003 31.8941 43.5013 31.8991 43.5022C31.9055 43.5035 31.9124 43.5049 31.9193 43.5058C31.9238 43.5068 31.9284 43.5077 31.933 43.5081C31.9403 43.5095 31.9476 43.5109 31.9545 43.5118C31.9591 43.5127 31.9632 43.5132 31.9678 43.5141C31.9751 43.515 31.9824 43.5164 31.9902 43.5173C31.993 43.5177 31.9962 43.5182 31.9989 43.5187C32.0268 43.5228 32.0552 43.5269 32.0831 43.5306C32.0863 43.531 32.09 43.5315 32.0932 43.5315C32.1005 43.5324 32.1083 43.5333 32.1152 43.5342C32.1198 43.5347 32.1243 43.5356 32.1289 43.5361C32.1358 43.5365 32.1427 43.5374 32.1495 43.5383C32.1546 43.5388 32.1596 43.5393 32.1642 43.5397C32.171 43.5406 32.1774 43.5411 32.1843 43.542C32.1898 43.5425 32.1948 43.5429 32.1999 43.5434C32.2063 43.5438 32.2127 43.5447 32.2196 43.5452L32.236 43.5466C32.242 43.547 32.2484 43.5475 32.2548 43.548C32.2603 43.5484 32.2658 43.5489 32.2713 43.5493C32.2777 43.5498 32.2841 43.5502 32.2905 43.5507C32.296 43.5512 32.301 43.5516 32.3061 43.5516C32.3129 43.5521 32.3189 43.5525 32.3253 43.553C32.3322 43.5534 32.3386 43.5539 32.345 43.5539C32.35 43.5544 32.3551 43.5548 32.3605 43.5548C32.3692 43.5553 32.3784 43.5557 32.3876 43.5562C32.3912 43.5562 32.3944 43.5566 32.3976 43.5566C32.4086 43.5571 32.4201 43.5576 32.431 43.5576C32.4352 43.558 32.4393 43.558 32.4434 43.558C32.4512 43.5585 32.459 43.5585 32.4667 43.5589H32.4805C32.4878 43.5589 32.4951 43.5594 32.5025 43.5594H32.5166H32.5386H32.5446H32.5501H32.5894H32.594C32.6087 43.5589 32.6233 43.5589 32.6379 43.5585C32.6412 43.558 32.6444 43.558 32.6471 43.558C32.6604 43.5576 32.6732 43.5571 32.686 43.5566H32.6915C32.7066 43.5562 32.7213 43.5553 32.7364 43.5544H32.7428C32.756 43.5534 32.7693 43.5525 32.7826 43.5516C32.7849 43.5516 32.7872 43.5516 32.7895 43.5512C32.8197 43.5493 32.8499 43.547 32.8801 43.5443C32.8819 43.5438 32.8842 43.5438 32.8861 43.5434C32.9163 43.5406 32.9465 43.5374 32.9767 43.5338C32.9785 43.5338 32.9804 43.5333 32.9822 43.5333C33.0124 43.5296 33.0426 43.5255 33.0728 43.5209C33.0746 43.5209 33.076 43.5205 33.0779 43.5205C33.092 43.5182 33.1067 43.5159 33.1209 43.5136H33.1232C33.1387 43.5109 33.1543 43.5081 33.1699 43.5058L33.1703 43.5054C33.185 43.5031 33.2001 43.5003 33.2147 43.4976C33.2161 43.4971 33.2175 43.4971 33.2188 43.4967C33.2491 43.4907 33.2793 43.4848 33.3095 43.4784C33.3109 43.4779 33.3122 43.4779 33.3136 43.4775C33.3438 43.471 33.3736 43.4642 33.4029 43.4569C33.4047 43.4564 33.4065 43.4559 33.4084 43.4555C33.4381 43.4486 33.4679 43.4408 33.4976 43.4331C33.4985 43.4326 33.4999 43.4321 33.5013 43.4317C33.5155 43.428 33.5297 43.4239 33.5439 43.4198C33.5443 43.4198 33.5452 43.4193 33.5461 43.4193C33.5608 43.4152 33.5759 43.4106 33.5905 43.4065C33.5915 43.406 33.5924 43.4056 33.5937 43.4056C33.6075 43.401 33.6217 43.3969 33.6354 43.3928C33.6368 43.3923 33.6377 43.3919 33.6391 43.3914C33.6684 43.3822 33.6977 43.3726 33.727 43.3626C33.7283 43.3621 33.7297 43.3616 33.7306 43.3612C33.7595 43.3516 33.7883 43.341 33.8167 43.3305C33.819 43.3296 33.8213 43.3291 33.8235 43.3282C33.8515 43.3177 33.8794 43.3067 33.9073 43.2957C33.9096 43.2948 33.9114 43.2939 33.9133 43.293C33.9261 43.2879 33.9389 43.2829 33.9517 43.2774C33.9531 43.277 33.9545 43.2765 33.9554 43.2756C33.9696 43.2696 33.9833 43.2637 33.9975 43.2577C33.9989 43.2573 34.0002 43.2568 34.0016 43.2559C34.014 43.2504 34.0263 43.2454 34.0387 43.2399C34.041 43.2385 34.0433 43.2376 34.0456 43.2367C34.0588 43.2307 34.0726 43.2243 34.0858 43.2179C34.0872 43.2174 34.0881 43.217 34.0895 43.2161C34.1019 43.2106 34.1138 43.2051 34.1257 43.1991C34.1289 43.1978 34.1316 43.1964 34.1344 43.195C34.1605 43.1827 34.1865 43.1694 34.2126 43.1561C34.2154 43.1543 34.2186 43.1529 34.2223 43.1511C34.2342 43.1447 34.2465 43.1387 34.2584 43.1318C34.2593 43.1318 34.2598 43.1314 34.2607 43.1309C34.2735 43.1241 34.2863 43.1172 34.2992 43.1103C34.3019 43.1085 34.3051 43.1067 34.3083 43.1048C34.3193 43.0989 34.3298 43.0929 34.3408 43.087C34.3426 43.0856 34.3449 43.0847 34.3468 43.0833C34.3591 43.0765 34.3715 43.0691 34.3838 43.0623C34.3875 43.0604 34.3907 43.0581 34.3939 43.0563C34.4035 43.0508 34.4131 43.0449 34.4227 43.0394C34.4264 43.0371 34.4296 43.0353 34.4328 43.0334C34.4447 43.0261 34.4566 43.0188 34.4685 43.0115C34.4713 43.0096 34.4745 43.0078 34.4772 43.006C34.4868 43 34.4964 42.9941 34.5056 42.9881C34.5093 42.9858 34.5129 42.9835 34.5166 42.9812C34.5285 42.9735 34.5404 42.9657 34.5518 42.9584C34.5537 42.957 34.5555 42.9561 34.5569 42.9547C34.5679 42.9478 34.5784 42.941 34.5889 42.9336C34.5921 42.9314 34.5953 42.9295 34.5985 42.9272C34.6095 42.9199 34.62 42.9121 34.631 42.9048C34.6324 42.9039 34.6333 42.903 34.6347 42.9021C34.6461 42.8943 34.6576 42.886 34.669 42.8778C34.6727 42.875 34.6768 42.8723 34.6805 42.8696C34.6892 42.8631 34.6979 42.8572 34.7061 42.8508C34.7098 42.8485 34.713 42.8457 34.7162 42.8435C34.7272 42.8352 34.7381 42.8274 34.7487 42.8192C34.7523 42.8165 34.7565 42.8132 34.7601 42.8105C34.7684 42.8041 34.7766 42.7977 34.7848 42.7913C34.7885 42.7885 34.7917 42.7858 34.7949 42.7835C34.8059 42.7748 34.8169 42.7661 34.8274 42.7579C34.8311 42.7547 34.8343 42.7519 34.8379 42.7492C34.8457 42.7428 34.8535 42.7363 34.8613 42.7304C34.8654 42.7267 34.8691 42.7235 34.8732 42.7203C34.8837 42.7116 34.8942 42.7029 34.9048 42.6938C34.9075 42.6919 34.9098 42.6897 34.9126 42.6874C34.9212 42.68 34.9295 42.6727 34.9377 42.6654C34.9418 42.6622 34.9455 42.659 34.9496 42.6558C34.9583 42.6475 34.9675 42.6398 34.9766 42.6315C34.9794 42.6292 34.9817 42.6269 34.9844 42.6247C34.994 42.616 35.0036 42.6073 35.0128 42.5986C35.0165 42.5954 35.0201 42.5922 35.0238 42.5885C35.0325 42.5807 35.0407 42.5729 35.049 42.5651C35.0513 42.5629 35.0535 42.561 35.0563 42.5587C35.0664 42.5491 35.0764 42.5395 35.086 42.5299C35.0902 42.5262 35.0938 42.5226 35.0975 42.5189C35.1048 42.512 35.1117 42.5047 35.1185 42.4979C35.1222 42.4946 35.1259 42.491 35.1291 42.4873C35.1391 42.4777 35.1488 42.4676 35.1588 42.4576L35.1671 42.4493C35.1748 42.4415 35.1822 42.4333 35.19 42.4255C35.1932 42.4223 35.1964 42.4187 35.2 42.415C35.2096 42.4045 35.2197 42.3944 35.2293 42.3839C35.2307 42.382 35.2325 42.3802 35.2339 42.3784C35.2426 42.3692 35.2513 42.3596 35.2595 42.3505C35.2627 42.3472 35.2655 42.344 35.2682 42.3408C35.2783 42.3299 35.2879 42.3189 35.298 42.3074L40.1461 36.7745L45.1737 38.1757C45.2629 38.2004 45.3513 38.2274 45.4387 38.2558C45.1618 38.5739 44.9938 38.99 44.9938 39.4441V40.1257C44.9938 40.1495 44.9773 40.1701 44.9521 40.1788C44.5456 40.3139 44.1456 40.4796 43.7619 40.6714C43.7377 40.6838 43.7107 40.681 43.6937 40.6641L43.2117 40.1825C42.5049 39.4757 41.3551 39.4757 40.6483 40.1825L39.1985 41.6322C38.4918 42.339 38.4918 43.4894 39.1985 44.1957L39.6801 44.6777C39.697 44.6946 39.7003 44.7216 39.6874 44.7464C39.4961 45.1291 39.3304 45.5296 39.1949 45.9361C39.1866 45.9617 39.1656 45.9777 39.1418 45.9777H38.4602C37.4609 45.9777 36.6475 46.7912 36.6475 47.7905V49.8408C36.6475 50.8405 37.4609 51.6535 38.4602 51.6535H39.1418C39.1656 51.6535 39.1866 51.67 39.1949 51.6956C39.3304 52.103 39.4966 52.5035 39.6874 52.8853C39.6998 52.91 39.697 52.937 39.6801 52.954L39.1981 53.436C38.4918 54.1428 38.4918 55.2927 39.1981 55.9995L39.6192 56.4201H3.86779C3.52173 56.4201 3.1958 56.2686 2.97242 56.0045C2.74949 55.7399 2.65519 55.3929 2.71332 55.0519L3.56796 50.0481C3.6499 49.5698 3.32809 49.1157 2.84974 49.0337C2.37138 48.9523 1.91682 49.2736 1.83534 49.752L0.980706 54.7562C0.834681 55.6085 1.07134 56.4769 1.62889 57.1379C2.1869 57.7989 3.00263 58.1779 3.86779 58.1779H44.9942V58.1871C44.9942 59.1868 45.8077 59.9998 46.807 59.9998H48.8573C49.857 59.9998 50.67 59.1868 50.67 58.1871V57.5055C50.67 57.4817 50.6865 57.4611 50.7116 57.4524C51.1186 57.3169 51.5191 57.1512 51.9018 56.9598C51.927 56.947 51.9535 56.9502 51.9705 56.9672L52.452 57.4487C52.7945 57.7911 53.2495 57.9797 53.7338 57.9797C54.2181 57.9797 54.6731 57.7911 55.016 57.4487L56.4652 55.999C56.8076 55.6566 56.9962 55.2016 56.9962 54.7173C56.9962 54.233 56.8081 53.778 56.4657 53.4355L55.9837 52.9535C55.9667 52.9366 55.964 52.91 55.9763 52.8853C56.1681 52.5017 56.3338 52.1016 56.4689 51.6951C56.4776 51.67 56.4986 51.6535 56.5224 51.6535H57.204C58.2033 51.6535 59.0168 50.8401 59.0168 49.8408V47.7895C59.0168 46.7903 58.2033 45.9768 57.204 45.9768ZM27.2744 12.0363C30.9763 12.0363 34.6905 12.6808 38.3274 13.9534L38.1192 14.7279C38.0418 15.0158 37.8555 15.2539 37.5941 15.3981C37.3368 15.5404 37.0407 15.5716 36.761 15.4855C30.5268 13.5707 24.2051 13.5519 17.9691 15.4306C17.9086 15.4489 17.8482 15.4672 17.7873 15.4859C17.5081 15.5715 17.2119 15.5404 16.9542 15.3981C16.8974 15.3665 16.8439 15.3303 16.7945 15.2905C16.7803 15.279 16.7661 15.2671 16.7528 15.2552C16.7391 15.2429 16.7258 15.2305 16.713 15.2177C16.5779 15.084 16.4804 14.917 16.4296 14.7279L16.4026 14.6272L16.3362 14.3805C16.3358 14.3795 16.3358 14.3786 16.3353 14.3777L16.2213 13.9534C19.8582 12.6808 23.5725 12.0363 27.2744 12.0363ZM20.6511 27.0036C18.7926 25.4028 17.6944 23.0046 17.639 20.4233C17.6289 19.9459 17.2385 19.5637 16.7606 19.5637H16.0405C15.4756 19.5637 15.0161 19.1041 15.0161 18.5392V16.4298C15.0161 16.2847 15.0476 16.1437 15.1049 16.016C15.1067 16.0188 15.1085 16.0215 15.1104 16.0247C15.1136 16.0293 15.1168 16.0343 15.1204 16.0389C15.1241 16.0449 15.1277 16.0508 15.1319 16.0563C15.136 16.0618 15.1397 16.0678 15.1438 16.0733C15.1483 16.0801 15.1529 16.0865 15.1575 16.0934C15.1635 16.1012 15.1694 16.1094 15.1754 16.1177C15.1786 16.1227 15.1822 16.1277 15.1859 16.1323C15.19 16.1383 15.1941 16.1437 15.1982 16.1492C15.2019 16.1543 15.206 16.1593 15.2097 16.1643C15.2138 16.1698 15.2179 16.1753 15.2225 16.1808C15.2262 16.1859 15.2298 16.1904 15.2335 16.1955C15.2381 16.201 15.2422 16.2069 15.2468 16.2124C15.2504 16.217 15.2541 16.2216 15.2578 16.2266C15.2628 16.2326 15.2678 16.239 15.2729 16.2449C15.2765 16.2495 15.2802 16.2541 15.2838 16.2582C15.2912 16.2673 15.2985 16.276 15.3063 16.2852C15.3099 16.2893 15.3131 16.2934 15.3168 16.2976C15.3218 16.3035 15.3269 16.3095 15.3319 16.315C15.336 16.3195 15.3397 16.3241 15.3438 16.3287C15.3484 16.3337 15.353 16.3388 15.3575 16.3438C15.3617 16.3488 15.3662 16.3534 15.3704 16.3584C15.3749 16.3635 15.38 16.3685 15.3846 16.374C15.3887 16.3781 15.3923 16.3827 15.3965 16.3868C15.4029 16.3937 15.4088 16.4001 15.4152 16.4065C15.418 16.4092 15.4207 16.4125 15.4235 16.4152C15.4322 16.4239 15.4404 16.4331 15.4491 16.4418C15.4537 16.4463 15.4583 16.4509 15.4628 16.4555C15.4674 16.4601 15.472 16.4646 15.477 16.4692C15.4816 16.4743 15.4866 16.4788 15.4912 16.4834C15.4958 16.4875 15.5004 16.4921 15.5049 16.4967C15.51 16.5013 15.5146 16.5058 15.5196 16.5104C15.5242 16.515 15.5292 16.5196 15.5338 16.5237C15.5384 16.5283 15.5434 16.5328 15.548 16.537C15.553 16.542 15.5585 16.5466 15.564 16.5516C15.5727 16.5594 15.5814 16.5676 15.5905 16.5754C15.5951 16.5795 15.5997 16.5832 15.6038 16.5873C15.6098 16.5924 15.6153 16.5969 15.6208 16.602C15.6253 16.6052 15.6295 16.6093 15.6336 16.613C15.6391 16.6175 15.6446 16.6221 15.6501 16.6267C15.6546 16.6303 15.6597 16.634 15.6642 16.6381C15.6697 16.6427 15.6752 16.6473 15.6807 16.6519C15.6848 16.6551 15.6894 16.6587 15.6935 16.6624C15.6995 16.667 15.7054 16.6715 15.7118 16.6766C15.7155 16.6798 15.7196 16.6825 15.7238 16.6857C15.7357 16.6953 15.7476 16.7045 15.7595 16.7132C15.7631 16.7159 15.7668 16.7192 15.7704 16.7219C15.7769 16.7265 15.7833 16.7311 15.7897 16.7361C15.7938 16.7388 15.7979 16.742 15.802 16.7448C15.8084 16.7498 15.8148 16.7544 15.8213 16.759C15.8254 16.7622 15.8295 16.7649 15.8336 16.7677C15.8405 16.7727 15.8469 16.7773 15.8538 16.7819C15.8574 16.7842 15.8611 16.7869 15.8647 16.7896C15.8721 16.7942 15.8794 16.7993 15.8863 16.8043C15.8885 16.8057 15.8908 16.807 15.8927 16.8084C15.911 16.8203 15.9288 16.8322 15.9471 16.8437C15.9471 16.8441 15.9471 16.8441 15.9476 16.8441C15.9554 16.8492 15.9632 16.8542 15.9709 16.8592C15.9746 16.8611 15.9778 16.8633 15.981 16.8652C15.9888 16.8702 15.9961 16.8748 16.0039 16.8794C16.0071 16.8812 16.0108 16.883 16.014 16.8853C16.0218 16.8899 16.03 16.8949 16.0378 16.8995C16.0405 16.9009 16.0433 16.9027 16.046 16.9041C16.0652 16.9155 16.084 16.9265 16.1037 16.937C16.117 16.9444 16.1302 16.9517 16.1435 16.9586C16.1435 16.959 16.144 16.959 16.144 16.959C16.1568 16.9659 16.1696 16.9728 16.1824 16.9792C16.1833 16.9796 16.1847 16.9801 16.1856 16.9805C16.198 16.9874 16.2108 16.9938 16.2241 16.9998C16.2241 17.0002 16.2245 17.0002 16.225 17.0007C16.2515 17.0135 16.2786 17.0263 16.3051 17.0387C16.3065 17.0391 16.3079 17.0396 16.3092 17.0405C16.3207 17.0455 16.3326 17.051 16.344 17.0561C16.3463 17.057 16.3486 17.0579 16.3509 17.0588C16.3623 17.0638 16.3738 17.0689 16.3857 17.0735C16.387 17.0744 16.3889 17.0753 16.3907 17.0757C16.4163 17.0867 16.4429 17.0973 16.469 17.1073C16.4722 17.1087 16.4759 17.1096 16.4791 17.111C16.4887 17.1147 16.4987 17.1183 16.5084 17.122C16.512 17.1234 16.5157 17.1247 16.5193 17.1261C16.5294 17.1293 16.539 17.133 16.5491 17.1366C16.5523 17.1375 16.556 17.1389 16.5592 17.1398C16.572 17.1444 16.5848 17.1485 16.5976 17.1531C16.6004 17.154 16.6036 17.1549 16.6068 17.1559C16.6164 17.1591 16.626 17.1618 16.6356 17.165C16.6406 17.1668 16.6457 17.1682 16.6507 17.17C16.659 17.1723 16.6672 17.1746 16.675 17.1774C16.68 17.1787 16.6855 17.1801 16.6905 17.1815C16.6992 17.1842 16.7079 17.187 16.7171 17.1893C16.7212 17.1902 16.7253 17.1916 16.7294 17.1929C16.7418 17.1961 16.7546 17.1993 16.767 17.203C16.772 17.2039 16.7766 17.2053 16.7812 17.2067C16.7894 17.2085 16.7972 17.2103 16.8054 17.2126C16.8114 17.214 16.8173 17.2154 16.8233 17.2167L16.8453 17.2222C16.8512 17.2236 16.8572 17.2245 16.8631 17.2263C16.87 17.2277 16.8773 17.2291 16.8842 17.2309C16.8906 17.2323 16.8965 17.2337 16.9025 17.2346C16.9144 17.2373 16.9263 17.2396 16.9382 17.2419C16.9446 17.2428 16.9505 17.2442 16.957 17.2456C16.9638 17.2465 16.9707 17.2479 16.9776 17.2492C16.984 17.2506 16.9908 17.2515 16.9977 17.2529C17.0041 17.2538 17.0105 17.2552 17.0169 17.2561C17.0238 17.257 17.0302 17.2579 17.0366 17.2593C17.0439 17.2602 17.0508 17.2616 17.0581 17.2625C17.0668 17.2639 17.076 17.2653 17.0847 17.2662C17.0938 17.2675 17.1025 17.2689 17.1117 17.2698C17.1185 17.2708 17.1254 17.2717 17.1327 17.2726C17.1387 17.273 17.1451 17.274 17.151 17.2749C17.1584 17.2758 17.1657 17.2762 17.173 17.2772C17.1785 17.2776 17.184 17.2785 17.19 17.279C17.1973 17.2799 17.2051 17.2804 17.2124 17.2813C17.2179 17.2817 17.2238 17.2822 17.2298 17.2827C17.2435 17.284 17.2572 17.2849 17.271 17.2859C17.276 17.2863 17.281 17.2868 17.2865 17.2872C17.2939 17.2877 17.3016 17.2881 17.309 17.2886C17.3149 17.2886 17.3204 17.2891 17.3259 17.2895C17.3337 17.29 17.3415 17.29 17.3488 17.2904C17.3543 17.2909 17.3593 17.2909 17.3648 17.2909C17.3726 17.2914 17.3804 17.2918 17.3882 17.2918C17.3937 17.2918 17.3992 17.2923 17.4046 17.2923C17.4188 17.2927 17.4335 17.2927 17.4477 17.2927C17.4527 17.2927 17.4573 17.2932 17.4623 17.2932H17.4692C17.5603 17.2932 17.6514 17.2886 17.7425 17.2794H17.7429C17.7773 17.2762 17.812 17.2721 17.8468 17.2675C17.8478 17.2671 17.8491 17.2671 17.85 17.2671C17.861 17.2653 17.8725 17.2639 17.8835 17.2621C17.8949 17.2602 17.9063 17.2584 17.9182 17.2566H17.9196C17.9302 17.2547 17.9407 17.2529 17.9517 17.2511C17.953 17.2511 17.9544 17.2506 17.9558 17.2506C17.9663 17.2483 17.9773 17.2465 17.9878 17.2447C17.9883 17.2442 17.9887 17.2442 17.9892 17.2442C18.0002 17.2424 18.0112 17.2401 18.0226 17.2378C18.024 17.2373 18.0254 17.2373 18.0267 17.2369C18.0364 17.235 18.046 17.2328 18.0556 17.2309C18.0574 17.2305 18.0597 17.23 18.0615 17.2296C18.0835 17.225 18.105 17.2199 18.127 17.2149C18.1288 17.2144 18.1306 17.214 18.1325 17.2135C18.1412 17.2112 18.1503 17.209 18.1595 17.2067C18.1618 17.2062 18.1641 17.2057 18.1668 17.2048C18.1879 17.1993 18.2094 17.1938 18.2309 17.1879C18.2332 17.187 18.2359 17.1861 18.2387 17.1856C18.2465 17.1833 18.2547 17.181 18.2629 17.1787C18.2657 17.1778 18.2689 17.1769 18.2716 17.176C18.2822 17.1732 18.2927 17.17 18.3032 17.1664C23.3953 15.6022 28.5488 15.3765 33.6583 16.4884C33.7558 16.5095 33.8538 16.5315 33.9513 16.5534C33.9975 16.564 34.0437 16.5745 34.09 16.5855C34.1641 16.6029 34.2387 16.6203 34.3129 16.6381C34.398 16.6583 34.4832 16.6793 34.5683 16.7004C34.6237 16.7141 34.6796 16.7283 34.7354 16.7425C34.8283 16.7663 34.9212 16.7906 35.0142 16.8148C35.2147 16.8679 35.4152 16.9233 35.6157 16.9801C35.8253 17.04 36.035 17.1023 36.2442 17.1664C36.9835 17.3939 37.7648 17.3124 38.4437 16.937C38.4556 16.9306 38.4675 16.9238 38.479 16.9174C38.4831 16.9151 38.4867 16.9128 38.4909 16.9105C38.4986 16.9059 38.5069 16.9013 38.5147 16.8963C38.5188 16.894 38.5229 16.8917 38.527 16.889C38.5348 16.8849 38.5421 16.8803 38.5499 16.8757C38.554 16.873 38.5581 16.8702 38.5627 16.8675C38.5705 16.8629 38.5787 16.8579 38.5865 16.8528C38.5902 16.8505 38.5934 16.8482 38.5966 16.8464C38.6195 16.8318 38.6424 16.8171 38.6648 16.802C38.6675 16.7997 38.6708 16.7979 38.674 16.7956C38.6817 16.7901 38.69 16.7846 38.6978 16.7791C38.7014 16.7764 38.7051 16.7741 38.7087 16.7713C38.7165 16.7658 38.7239 16.7608 38.7316 16.7553C38.7353 16.7526 38.7385 16.7503 38.7422 16.7475C38.7499 16.742 38.7577 16.7361 38.7655 16.7306C38.7687 16.7283 38.7719 16.726 38.7751 16.7237C38.7857 16.7155 38.7966 16.7077 38.8072 16.6995C38.8076 16.699 38.8081 16.6986 38.8081 16.6986C38.8186 16.6903 38.8287 16.6825 38.8388 16.6747C38.8415 16.6725 38.8447 16.6697 38.8474 16.6674C38.8552 16.6615 38.8626 16.6555 38.8699 16.6496C38.8735 16.6468 38.8767 16.6436 38.8804 16.6409C38.8873 16.6354 38.8941 16.6294 38.901 16.6235C38.9047 16.6207 38.9083 16.618 38.9115 16.6148C38.9189 16.6088 38.9257 16.6029 38.9326 16.5969C38.9358 16.5942 38.939 16.5914 38.9422 16.5887C38.9623 16.5713 38.982 16.5534 39.0013 16.5356C39.0045 16.5328 39.0072 16.5301 39.0104 16.5274C39.0173 16.5209 39.0237 16.515 39.0306 16.5086C39.0338 16.5054 39.0374 16.5022 39.0406 16.499C39.047 16.4926 39.0534 16.4866 39.0594 16.4807C39.0631 16.4775 39.0663 16.4743 39.0695 16.4706C39.0763 16.4642 39.0827 16.4573 39.0896 16.4509C39.0923 16.4482 39.0951 16.4454 39.0974 16.4427C39.107 16.4335 39.1162 16.4239 39.1253 16.4143C39.1258 16.4138 39.1262 16.4134 39.1267 16.4129C39.1354 16.4038 39.1441 16.3951 39.1523 16.3859C39.1551 16.3827 39.1583 16.3795 39.161 16.3767C39.167 16.3699 39.1734 16.363 39.1793 16.3561C39.1825 16.3529 39.1853 16.3497 39.1885 16.3465C39.1944 16.3397 39.2004 16.3328 39.2063 16.3264C39.2091 16.3227 39.2123 16.3195 39.215 16.3163C39.2214 16.309 39.2278 16.3012 39.2343 16.2939C39.2365 16.2916 39.2388 16.2889 39.2411 16.2861C39.2494 16.276 39.2581 16.266 39.2663 16.2559C39.2672 16.2545 39.2686 16.2532 39.2695 16.2522C39.2768 16.2431 39.2842 16.2344 39.2915 16.2252C39.2938 16.222 39.2965 16.2188 39.2993 16.2156C39.3047 16.2083 39.3107 16.201 39.3162 16.1936C39.3189 16.19 39.3212 16.1868 39.324 16.1836C39.3295 16.1762 39.3354 16.1689 39.3409 16.1616C39.3437 16.1579 39.3459 16.1547 39.3487 16.1511C39.3546 16.1433 39.3606 16.1351 39.3665 16.1268C39.3684 16.1245 39.3702 16.1218 39.372 16.1195C39.3798 16.109 39.3876 16.098 39.3954 16.087C39.3963 16.0856 39.3972 16.0842 39.3981 16.0829C39.4045 16.0737 39.4114 16.0641 39.4178 16.0545C39.4201 16.0508 39.4224 16.0476 39.4242 16.0444C39.4297 16.0371 39.4348 16.0293 39.4398 16.0215C39.4412 16.0197 39.4425 16.0179 39.4435 16.016C39.5007 16.1442 39.5323 16.2847 39.5323 16.4298V18.5392C39.5323 19.1041 39.0727 19.5637 38.5078 19.5637H37.7877C37.3098 19.5637 36.9194 19.9459 36.9093 20.4238C36.8539 23.0046 35.7557 25.4028 33.8972 27.0036C33.3891 27.4408 32.86 27.8226 32.3111 28.148C32.2974 28.1553 32.2832 28.1627 32.269 28.1709C30.7721 29.048 29.1233 29.5103 27.3669 29.5469C27.3609 29.5469 27.355 29.5469 27.3495 29.5469C27.3243 29.5474 27.2991 29.5478 27.2739 29.5483C27.2488 29.5478 27.2236 29.5474 27.1984 29.5469C27.1924 29.5469 27.1865 29.5469 27.181 29.5469C25.4241 29.5103 23.7753 29.048 22.2789 28.1709C22.2647 28.1627 22.2505 28.1553 22.2363 28.1476C21.6879 27.8221 21.1592 27.4408 20.6511 27.0036ZM22.6258 41.6977C21.8902 41.9481 21.0846 41.7325 20.5723 41.1484L16.2804 36.2504L19.8857 35.2451L25.6146 40.6796L22.6258 41.6977ZM21.8861 34.7196C22.4006 34.0554 22.7142 33.1994 22.7142 32.3676V30.3617C24.0678 30.9431 25.5134 31.258 27.04 31.3015H27.0405C27.0629 31.302 27.0849 31.3029 27.1073 31.3034H27.1178C27.138 31.3038 27.1577 31.3043 27.1773 31.3047H27.1924C27.2163 31.3052 27.2405 31.3056 27.2648 31.3061H27.2845C27.3087 31.3056 27.3325 31.3052 27.3568 31.3047H27.3714C27.3916 31.3043 27.4113 31.3038 27.4309 31.3034H27.4419C27.4639 31.3029 27.4863 31.302 27.5088 31.3015C29.0354 31.258 30.481 30.9431 31.835 30.3617V32.3676C31.835 33.1994 32.1481 34.0554 32.6627 34.7196L27.2744 39.8314L21.8861 34.7196ZM33.9764 41.1484C33.4647 41.7325 32.6585 41.9485 31.9229 41.6977L28.9342 40.6796L34.6635 35.2451L38.2684 36.2504L33.9764 41.1484ZM57.2585 49.8403C57.2585 49.8705 57.2343 49.8952 57.2036 49.8952H56.522C55.741 49.8952 55.0494 50.3951 54.8013 51.1394C54.6923 51.4667 54.5587 51.7894 54.4039 52.098C54.0528 52.8002 54.1879 53.6434 54.7404 54.1959L55.2224 54.6779C55.227 54.6825 55.2384 54.6939 55.2384 54.7168C55.2384 54.7397 55.227 54.7511 55.2224 54.7557L53.7727 56.2054C53.7686 56.2096 53.7567 56.2219 53.7338 56.2219C53.7109 56.2219 53.6994 56.21 53.6949 56.2054L53.2133 55.7239C52.6608 55.1709 51.8171 55.0359 51.1154 55.387C50.8069 55.5417 50.4841 55.6749 50.1564 55.7843C49.4121 56.032 48.9122 56.7236 48.9122 57.505V58.1866C48.9122 58.2168 48.8875 58.2416 48.8573 58.2416H46.807C46.7763 58.2416 46.752 58.2173 46.752 58.1866V57.505C46.752 56.7236 46.2517 56.032 45.5078 55.7843C45.1801 55.6754 44.8574 55.5417 44.5488 55.3874C44.2884 55.257 44.0087 55.1938 43.7313 55.1938C43.2612 55.1938 42.7984 55.3764 42.4509 55.7239L41.9689 56.2059C41.9474 56.227 41.9126 56.227 41.8915 56.2059L40.4418 54.7557C40.4203 54.7342 40.4203 54.6994 40.4414 54.6784L40.9234 54.1963C41.4759 53.6438 41.6114 52.8006 41.2598 52.098C41.106 51.7904 40.9719 51.4676 40.863 51.1394C40.6149 50.3956 39.9232 49.8952 39.1418 49.8952H38.4602C38.43 49.8952 38.4053 49.8705 38.4053 49.8403V47.7895C38.4053 47.7593 38.43 47.7346 38.4602 47.7346H39.1418C39.9232 47.7346 40.6149 47.2347 40.8625 46.4909C40.9719 46.1631 41.1056 45.8404 41.2598 45.5319C41.6114 44.8297 41.4759 43.9865 40.9234 43.434L40.4418 42.9519C40.4203 42.9304 40.4203 42.8956 40.4414 42.8741L41.8915 41.4244C41.9126 41.4029 41.9474 41.4029 41.9689 41.4244L42.4509 41.906C43.0039 42.4589 43.8466 42.594 44.5488 42.2429C44.8578 42.0882 45.1801 41.9545 45.5078 41.8455C46.2522 41.5979 46.752 40.9062 46.752 40.1248V39.4432C46.752 39.413 46.7763 39.3883 46.807 39.3883H47.8113H47.8337H48.8573C48.8875 39.3883 48.9122 39.4126 48.9122 39.4432V40.1248C48.9122 40.9062 49.4125 41.5979 50.1564 41.8455C50.4837 41.9545 50.8064 42.0882 51.1154 42.2424C51.8176 42.594 52.6608 42.4585 53.2133 41.906L53.6953 41.4239C53.6994 41.4198 53.7113 41.4084 53.7338 41.4084C53.7567 41.4084 53.7686 41.4198 53.7727 41.4244L55.2224 42.8741C55.227 42.8787 55.2384 42.8902 55.2384 42.913C55.2384 42.9359 55.227 42.9474 55.2224 42.9519L54.7408 43.434C54.1883 43.9865 54.0528 44.8297 54.4039 45.5314C54.5587 45.8404 54.6923 46.1631 54.8013 46.4909C55.0494 47.2347 55.741 47.7346 56.5224 47.7346H57.204C57.2343 47.7346 57.259 47.7593 57.259 47.7895V49.8403H57.2585Z" fill="#C73E9B"/>
<path d="M47.8312 44.5332C45.4706 44.5332 43.5498 46.4544 43.5498 48.8151C43.5498 51.1762 45.4706 53.097 47.8312 53.097C50.1923 53.097 52.1131 51.1762 52.1131 48.8151C52.1131 46.4544 50.1923 44.5332 47.8312 44.5332ZM47.8312 51.3392C46.4396 51.3392 45.3076 50.2067 45.3076 48.8151C45.3076 47.4235 46.4396 46.291 47.8312 46.291C49.2233 46.291 50.3553 47.4235 50.3553 48.8151C50.3553 50.2067 49.2233 51.3392 47.8312 51.3392Z" fill="#C73E9B"/>
<path d="M21.902 51.8686C22.6632 51.8686 23.2826 51.2492 23.2826 50.488V48.1804C23.2826 47.4192 22.6632 46.7998 21.902 46.7998H15.1999C14.4387 46.7998 13.8193 47.4192 13.8193 48.1804V50.488C13.8193 51.2492 14.4387 51.8686 15.1999 51.8686H21.902ZM15.5771 48.5576H21.5248V50.1108H15.5771V48.5576Z" fill="#C73E9B"/>
</g>
<defs>
<clipPath id="clip0_36_1384">
<rect width="60" height="60" fill="white"/>
</clipPath>
</defs>
</svg>
