<svg width="60" height="60" viewBox="0 0 60 60" fill="none" xmlns="http://www.w3.org/2000/svg">
<g clip-path="url(#clip0_36_1369)">
<path d="M55.7877 7.59456H35.9937C36.9947 5.19057 36.0797 2.35112 33.7656 1.01495C31.2517 -0.436654 28.0253 0.427721 26.5738 2.94198L23.8877 7.59444H5.31094C2.38254 7.59456 0 9.97698 0 12.9055V46.0019C0 48.9303 2.38254 51.3129 5.31094 51.3129H21.7682C21.9689 53.1064 21.8442 55.2519 21.4219 57.3474H14.8198C14.1727 57.3474 13.6479 57.8722 13.6479 58.5193C13.6479 59.1664 14.1727 59.6912 14.8198 59.6912H45.1809C45.828 59.6912 46.3528 59.1664 46.3528 58.5193C46.3528 57.8722 45.828 57.3474 45.1809 57.3474H38.5139C38.0538 55.2322 37.9055 53.0858 38.1015 51.3129H54.6889C57.6175 51.3129 60 48.9303 60 46.0019V11.8076C60 9.48456 58.1104 7.59456 55.7877 7.59456ZM16.571 26.6708L20.1444 28.7339L16.571 30.797V26.6708ZM22.0593 27.1331L16.9999 24.2121L26.6018 7.5812L31.6611 10.5022L22.0593 27.1331ZM32.5938 3.04463C33.9886 3.84995 34.4682 5.63987 33.663 7.03487L32.833 8.47253L27.7737 5.55151L28.6037 4.11397C29.409 2.71897 31.1988 2.23967 32.5938 3.04463ZM5.31094 9.93831H22.5346L14.3843 24.0551C14.2814 24.2333 14.2273 24.4353 14.2273 24.641V32.8268C14.2273 33.4739 14.752 33.9987 15.3991 33.9987H44.6009C45.248 33.9987 45.7727 33.4739 45.7727 32.8268C45.7727 32.1797 45.248 31.6549 44.6009 31.6549H19.7727L23.0742 29.7487C23.2525 29.6458 23.4002 29.498 23.5031 29.3198L34.6931 9.93831H55.7877C56.818 9.93831 57.6562 10.7768 57.6562 11.8076V40.7359H2.34375V12.9055C2.34375 11.2693 3.67477 9.93831 5.31094 9.93831ZM36.1216 57.3474H23.8072C24.1853 55.265 24.2991 53.1473 24.1252 51.3129H35.745C35.5768 53.1323 35.7113 55.2499 36.1216 57.3474ZM54.6889 48.9691H5.31094C3.67477 48.9691 2.34375 47.6381 2.34375 46.0019V43.0796H57.6562V46.0019C57.6562 47.6381 56.3251 48.9691 54.6889 48.9691ZM45.7727 25.7359C45.7727 26.383 45.248 26.9078 44.6009 26.9078H32.4607C31.8136 26.9078 31.2888 26.383 31.2888 25.7359C31.2888 25.0888 31.8136 24.564 32.4607 24.564H44.6009C45.248 24.564 45.7727 25.0888 45.7727 25.7359Z" fill="#C73E9B"/>
</g>
<defs>
<clipPath id="clip0_36_1369">
<rect width="60" height="60" fill="white"/>
</clipPath>
</defs>
</svg>
