<svg width="60" height="60" viewBox="0 0 60 60" fill="none" xmlns="http://www.w3.org/2000/svg">
<g clip-path="url(#clip0_36_1371)">
<path d="M48.2781 37.9573C42.2931 37.9573 37.4414 42.809 37.4414 48.794C37.4414 54.7789 42.2931 59.6306 48.2781 59.6306C54.2631 59.6306 59.1148 54.7789 59.1148 48.794C59.1075 42.8118 54.2602 37.9645 48.2781 37.9573ZM48.2781 57.6603C43.3812 57.6603 39.4117 53.6909 39.4117 48.794C39.4117 43.8971 43.3812 39.9276 48.2781 39.9276C53.175 39.9276 57.1445 43.8971 57.1445 48.794C57.1392 53.6885 53.1726 57.655 48.2781 57.6603Z" fill="#C73E9B"/>
<path d="M20.6931 37.9573H11.8267V27.5285L14.7331 30.4345C15.1194 30.8082 15.7341 30.8024 16.1141 30.4224C16.4942 30.0429 16.4995 29.4281 16.1262 29.0419L11.5381 24.4538C11.1533 24.0694 10.5299 24.0694 10.145 24.4538L5.55743 29.0419C5.18415 29.4281 5.18944 30.0429 5.56946 30.4224C5.94947 30.8024 6.56375 30.8082 6.9505 30.4345L9.85641 27.5285V37.9573H0.990035C0.445989 37.9573 0.00488281 38.3984 0.00488281 38.9425V58.6455C0.00488281 59.1896 0.445989 59.6307 0.990035 59.6307H20.6931C21.2371 59.6307 21.6782 59.1896 21.6782 58.6455V38.9425C21.6782 38.3984 21.2371 37.9573 20.6931 37.9573ZM19.7079 57.6604H1.97519V39.9276H19.7079V57.6604Z" fill="#C73E9B"/>
<path d="M29.6094 6.07341C29.3617 5.8175 28.9956 5.71504 28.6512 5.80499C28.3068 5.89494 28.0379 6.16432 27.9475 6.50874C27.8575 6.85316 27.96 7.21922 28.2164 7.46648L31.1223 10.3729H21.6286C21.1019 4.60386 16.1309 0.268799 10.3436 0.532405C4.55633 0.79601 0 5.56496 0 11.358C0 17.1511 4.55633 21.92 10.3436 22.1836C16.1309 22.4472 21.1019 18.1122 21.6286 12.3432H31.1223L28.2164 15.2496C27.96 15.4968 27.8575 15.8629 27.9475 16.2073C28.0379 16.5517 28.3068 16.8206 28.6512 16.911C28.9956 17.001 29.3617 16.8985 29.6094 16.6422L34.197 12.0546C34.5818 11.6697 34.5818 11.0463 34.197 10.6615L29.6094 6.07341ZM10.842 20.2244C5.94507 20.2244 1.9756 16.2549 1.9756 11.358C1.9756 6.46112 5.94507 2.49165 10.842 2.49165C15.7389 2.49165 19.7083 6.46112 19.7083 11.358C19.7031 16.2525 15.7365 20.2191 10.842 20.2244Z" fill="#C73E9B"/>
<path d="M59.6389 10.5956L48.9003 1.82782C48.5377 1.53103 48.0162 1.53103 47.6535 1.82782L36.9154 10.5956C36.6865 10.7827 36.5537 11.0627 36.5537 11.358C36.5537 11.6534 36.6865 11.9333 36.9154 12.1205L47.2927 20.5929V32.6235L44.3868 29.7171C44.0001 29.3438 43.3858 29.3491 43.0058 29.7291C42.6258 30.1091 42.6205 30.7239 42.9938 31.1101L47.5814 35.6982C47.9662 36.0826 48.5896 36.0826 48.9744 35.6982L53.5625 31.1101C53.9358 30.7239 53.9305 30.1091 53.5505 29.7291C53.1705 29.3491 52.5557 29.3438 52.1694 29.7171L49.263 32.6235V20.5929L59.6389 12.1205C59.8674 11.9333 60.0002 11.6534 60.0002 11.358C60.0002 11.0627 59.8674 10.7827 59.6389 10.5956ZM48.2779 18.853L39.0984 11.358L48.2779 3.86307L57.4574 11.358L48.2779 18.853Z" fill="#C73E9B"/>
</g>
<defs>
<clipPath id="clip0_36_1371">
<rect width="60" height="60" fill="white"/>
</clipPath>
</defs>
</svg>
