<svg width="60" height="60" viewBox="0 0 60 60" fill="none" xmlns="http://www.w3.org/2000/svg">
<path d="M39.2346 12.3884H35.4306C32.2276 12.3884 29.6211 14.9945 29.6211 18.1979V22.0015C29.6211 23.0012 30.4345 23.8147 31.4343 23.8147H35.2379C38.4413 23.8147 41.0473 21.2086 41.0473 18.0052V14.2016C41.0473 13.2019 40.2343 12.3884 39.2346 12.3884ZM39.2895 18.0052C39.2895 20.2395 37.4722 22.0569 35.2379 22.0569H32.5714L35.9305 18.6978C36.2738 18.3549 36.2738 17.7983 35.9305 17.455C35.5871 17.1116 35.0309 17.1116 34.6876 17.455L31.3789 20.7637V18.1979C31.3789 15.964 33.1967 14.1462 35.4306 14.1462H39.2346C39.2648 14.1462 39.2895 14.171 39.2895 14.2016V18.0052Z" fill="white"/>
<path d="M52.1758 28.8972C51.6901 28.8972 51.2969 29.2904 51.2969 29.7761V42.1769C51.2969 42.6626 51.6901 43.0558 52.1758 43.0558C52.661 43.0558 53.0547 42.6626 53.0547 42.1769V29.7761C53.0547 29.2904 52.661 28.8972 52.1758 28.8972Z" fill="white"/>
<path d="M52.1759 45.3035C51.6902 45.3035 51.297 45.6967 51.297 46.1824V49.7557H23.2814C23.3949 49.2242 23.4567 48.6731 23.4567 48.1077V40.6233H24.6529V42.2264C24.6529 43.3571 25.573 44.2772 26.7036 44.2772H43.9655C45.0961 44.2772 46.0162 43.3571 46.0162 42.2264V39.3402C46.0162 38.2095 45.0961 37.2894 43.9655 37.2894H29.8192C29.9551 36.8797 30.0385 36.4462 30.0595 35.9967H45.3218C46.4525 35.9967 47.3726 35.0766 47.3726 33.9459V31.0597C47.3726 29.929 46.4525 29.0089 45.3218 29.0089H25.3473C24.2166 29.0089 23.2965 29.929 23.2965 31.0597V32.5378H20.3865C20.04 32.5378 19.7017 32.5708 19.3726 32.6312V16.5339C19.3726 16.0482 18.9789 15.655 18.4937 15.655C18.0084 15.655 17.6147 16.0482 17.6147 16.5339V24.2766H14.9501C10.5835 24.2766 7.03125 27.8288 7.03125 32.1949V59.0625C7.03125 59.5477 7.42493 59.9414 7.91016 59.9414C8.39539 59.9414 8.78906 59.5477 8.78906 59.0625V32.1949C8.78906 28.7979 11.553 26.0344 14.9501 26.0344H17.6147V33.273C15.9196 34.2398 14.7734 36.0635 14.7734 38.1509V44.2474C14.7734 44.7326 15.1671 45.1263 15.6523 45.1263C16.1375 45.1263 16.5312 44.7326 16.5312 44.2474V38.1509C16.5312 36.0251 18.2607 34.2956 20.3865 34.2956H28.0147C28.1763 34.2956 28.3076 34.427 28.3076 34.5886V35.765C28.3076 37.4748 26.917 38.8655 25.2072 38.8655H22.5778C22.0921 38.8655 21.6989 39.2592 21.6989 39.7444V48.1082C21.6989 51.4668 18.9862 54.1996 15.6523 54.1996C15.1671 54.1996 14.7734 54.5929 14.7734 55.0786V59.0629C14.7734 59.5482 15.1671 59.9418 15.6523 59.9418C16.1375 59.9418 16.5312 59.5482 16.5312 59.0629V55.9076C16.9221 55.8636 17.3035 55.789 17.6747 55.6888C18.0524 58.1273 20.1659 60 22.7087 60H47.9604C50.7692 60 53.0548 57.7148 53.0548 54.9055V46.1824C53.0548 45.6967 52.6611 45.3035 52.1759 45.3035ZM28.0147 32.5378H25.0543V31.0592C25.0543 30.8981 25.1862 30.7663 25.3473 30.7663H45.3218C45.4834 30.7663 45.6148 30.8981 45.6148 31.0592V33.9459C45.6148 34.1075 45.4834 34.2389 45.3218 34.2389H30.0334C29.8668 33.2744 29.0259 32.5378 28.0147 32.5378ZM28.7856 39.0472H43.9655C44.127 39.0472 44.2584 39.1786 44.2584 39.3402V42.2264C44.2584 42.388 44.127 42.5193 43.9655 42.5193H26.7036C26.5421 42.5193 26.4107 42.388 26.4107 42.2264V40.4722C27.3372 40.2351 28.1575 39.7311 28.7856 39.0472ZM47.9604 58.2422H22.7087C20.9019 58.2422 19.4266 56.7979 19.3748 55.003C20.8072 54.2175 21.9685 52.9948 22.6813 51.5135H51.2965V54.9055C51.297 56.7453 49.8001 58.2422 47.9604 58.2422Z" fill="white"/>
<path d="M47.9608 0H22.7092C19.9004 0 17.6152 2.28516 17.6152 5.09445V12.5285C17.6152 13.0142 18.0085 13.4074 18.4941 13.4074C18.9794 13.4074 19.373 13.0142 19.373 12.5285V9.30679H51.2975V25.7707C51.2975 26.2564 51.6907 26.6496 52.1764 26.6496C52.6616 26.6496 53.0553 26.2564 53.0553 25.7707V5.09445C53.0553 2.28516 50.7697 0 47.9608 0ZM19.373 7.54898V5.09445C19.373 3.2547 20.8695 1.75781 22.7092 1.75781H47.9608C49.8006 1.75781 51.2975 3.2547 51.2975 5.09445V7.54898H19.373Z" fill="white"/>
<path d="M35.2689 52.0376C33.7212 52.0376 32.4619 53.2969 32.4619 54.8446C32.4619 56.3928 33.7212 57.6516 35.2689 57.6516C36.8166 57.6516 38.0759 56.3928 38.0759 54.8446C38.0759 53.2969 36.8166 52.0376 35.2689 52.0376ZM35.2689 55.8938C34.6903 55.8938 34.2197 55.4232 34.2197 54.8446C34.2197 54.266 34.6903 53.7954 35.2689 53.7954C35.8475 53.7954 36.3181 54.266 36.3181 54.8446C36.3181 55.4232 35.8475 55.8938 35.2689 55.8938Z" fill="white"/>
<path d="M36.8516 4.21875H33.4248C32.9391 4.21875 32.5459 4.61243 32.5459 5.09766C32.5459 5.58289 32.9391 5.97656 33.4248 5.97656H36.8516C37.3369 5.97656 37.7305 5.58289 37.7305 5.09766C37.7305 4.61243 37.3369 4.21875 36.8516 4.21875Z" fill="white"/>
<path d="M40.6108 4.22437L39.5561 4.21338C39.5529 4.21338 39.5497 4.21338 39.5465 4.21338C39.0654 4.21338 38.6731 4.6011 38.668 5.08359C38.663 5.56882 39.0521 5.96616 39.5378 5.97119L40.5925 5.98218H40.6016C41.0827 5.98218 41.4755 5.59445 41.4805 5.11243C41.4856 4.62674 41.096 4.2294 40.6108 4.22437Z" fill="white"/>
<path d="M29.9915 4.21876C29.5058 4.2215 29.1145 4.6225 29.1172 5.10773C29.1199 5.59159 29.5127 5.98206 29.9961 5.98206H30.0007C30.4864 5.97932 30.8778 5.58381 30.875 5.09858V5.08759C30.8723 4.60236 30.4777 4.21693 29.9915 4.21876Z" fill="white"/>
<path d="M24.5264 27.8672H26.8962C27.3814 27.8672 27.7751 27.4735 27.7751 26.9883C27.7751 26.5026 27.3814 26.1094 26.8962 26.1094H24.5264C24.0411 26.1094 23.6475 26.5026 23.6475 26.9883C23.6475 27.4735 24.0411 27.8672 24.5264 27.8672Z" fill="white"/>
<path d="M40.3135 26.9883C40.3135 27.4735 40.7067 27.8672 41.1924 27.8672H46.3871C46.8723 27.8672 47.266 27.4735 47.266 26.9883C47.266 26.5026 46.8723 26.1094 46.3871 26.1094H41.1924C40.7067 26.1094 40.3135 26.5026 40.3135 26.9883Z" fill="white"/>
</svg>
