<svg width="60" height="60" viewBox="0 0 60 60" fill="none" xmlns="http://www.w3.org/2000/svg">
<g clip-path="url(#clip0_36_1345)">
<path d="M20.5116 39.6111C20.9698 40.0684 21.7118 40.0684 22.1687 39.6111C22.6269 39.1529 22.6269 38.4113 22.1687 37.954C21.7118 37.4958 20.9698 37.4958 20.5116 37.954C20.0547 38.4113 20.0547 39.1529 20.5116 39.6111Z" fill="white"/>
<path d="M25.4845 36.2962L36.6984 25.075C37.1557 24.6173 37.1557 23.8752 36.6979 23.4175C36.2397 22.9602 35.4981 22.9606 35.0404 23.4179L23.8265 34.6391C23.3687 35.0969 23.3692 35.8389 23.827 36.2967C24.2847 36.754 25.0268 36.754 25.4845 36.2962Z" fill="white"/>
<path d="M18.4594 31.7198L8.36611 41.8131C8.25396 41.9252 8.16058 42.0662 8.10061 42.2242C8.09878 42.2278 8.09695 42.2315 8.09557 42.2351C7.16356 44.7556 4.33595 52.4012 3.22358 55.4087C3.06519 55.8381 3.17094 56.321 3.49504 56.6442C3.81639 56.9656 4.29887 57.0741 4.731 56.9138C7.64605 55.8312 15.3612 52.9656 17.889 52.0267C18.0364 51.9723 18.1902 51.8766 18.3097 51.7571L28.402 41.6648L46.3963 59.7611C46.6165 59.9822 46.9154 60.1067 47.2276 60.1067H47.2285C47.5407 60.1063 47.8401 59.9813 48.0598 59.7598L59.6605 48.0511C60.1146 47.5928 60.1128 46.854 59.6568 46.3976C58.7624 45.5031 42.3735 29.1133 41.6635 28.4033C44.7236 25.3432 52.0996 17.9672 54.9126 15.1542C57.661 12.409 57.6628 7.9568 54.913 5.21021C52.166 2.46179 47.7179 2.46133 44.969 5.21021L31.7185 18.4607C31.0392 17.7813 14.7423 1.484 13.7183 0.460442C13.2624 0.00405073 12.5235 0.00221967 12.0653 0.456322L0.347445 12.0556C0.125429 12.2754 0.000459023 12.5747 1.25777e-06 12.8874C-0.000456507 13.1996 0.124056 13.4994 0.345614 13.7196L18.4594 31.7198ZM32.5471 20.9468C32.5471 20.9468 32.5471 20.9468 32.5475 20.9463C32.5475 20.9463 32.5475 20.9463 32.5475 20.9459L39.8553 13.6386L46.4842 20.2679L39.1778 27.5739C39.1778 27.5743 39.1778 27.5743 39.1773 27.5743V27.5748L17.4811 49.271L10.8522 42.6416L32.5471 20.9468ZM43.999 9.49489L50.6279 16.1242L48.1418 18.6104L41.5124 11.9815L43.999 9.49489ZM10.5277 52.2607L7.86989 49.6029L9.6593 44.7638L15.3612 50.4658L10.5277 52.2607ZM6.97496 52.0226L8.11068 53.1583L6.30709 53.828L6.97496 52.0226ZM42.7246 32.7791L37.7033 37.7994C37.2456 38.2567 37.2456 38.9988 37.7033 39.4565C38.1607 39.9143 38.9027 39.9143 39.3605 39.457L44.3817 34.4367L47.9307 37.9857L44.5671 41.3489C44.1098 41.8067 44.1098 42.5487 44.5671 43.0065C45.0248 43.4642 45.7669 43.4638 46.2246 43.0065L49.5883 39.6428L53.1378 43.1928L48.117 48.2131C47.6593 48.6704 47.6593 49.4124 48.117 49.8702C48.5743 50.328 49.3164 50.328 49.7741 49.8702L54.7954 44.8504L57.1748 47.2303C47.2793 57.1171 47.2262 57.2714 47.2262 57.2714L30.0596 40.0072L40.0064 30.0604L42.7246 32.7791ZM53.2559 6.86778C55.0879 8.69746 55.0888 11.6652 53.2554 13.4967L52.2854 14.4667L45.6561 7.83778L46.6266 6.86732C48.4581 5.03534 51.4235 5.03397 53.2559 6.86778ZM15.5004 5.5572L10.4801 10.5761C10.0228 11.0334 10.0228 11.7755 10.4801 12.2332C10.9378 12.691 11.6799 12.691 12.1376 12.2337L17.1579 7.21431L20.707 10.7638L17.3443 14.1256C16.8865 14.5834 16.8865 15.3254 17.3438 15.7832C17.8016 16.2405 18.5431 16.241 19.0014 15.7832L22.3646 12.4209L25.6774 15.7342L20.658 20.7541C20.2007 21.2118 20.2007 21.9539 20.658 22.4116C21.1158 22.8689 21.8578 22.8694 22.3156 22.4112L27.335 17.3913L30.0614 20.1178L20.1165 30.0627L2.83585 12.8901C2.83585 12.8901 2.99836 12.837 12.8856 2.94199L15.5004 5.5572Z" fill="white"/>
</g>
<defs>
<clipPath id="clip0_36_1345">
<rect width="60" height="60" fill="white"/>
</clipPath>
</defs>
</svg>
