<svg width="635" height="400" viewBox="0 0 635 400" fill="none" xmlns="http://www.w3.org/2000/svg">
<g clip-path="url(#clip0_28_3885)">
<path d="M53.6517 253.396C53.6321 256.873 50.8094 259.676 47.3322 259.657C43.8551 259.637 41.0519 256.814 41.0714 253.337C41.0909 249.86 43.9137 247.057 47.3908 247.076C50.868 247.096 53.6712 249.919 53.6517 253.396Z" fill="#E0E0E0"/>
<path d="M34.7814 245.299C41.6966 238.042 52.929 237.817 60.0103 244.967C63.2237 248.209 68.2539 243.228 65.0405 239.985C55.3122 230.179 39.3525 230.237 29.8001 240.268C26.655 243.57 31.6363 248.6 34.7814 245.299Z" fill="#E0E0E0"/>
<path d="M13.4007 216.007C22.9727 207.734 34.3906 202.528 47.1858 202.498C59.8637 202.469 72.3659 206.972 81.6546 215.694C84.9755 218.81 90.0154 213.838 86.6847 210.713C76.0482 200.721 61.7781 195.388 47.2151 195.427C32.4958 195.466 19.4076 201.483 8.40964 210.986C4.95202 213.975 9.95287 218.986 13.391 216.016L13.4007 216.007Z" fill="#E0E0E0"/>
<path d="M21.8394 232.24C28.2566 225.305 37.2425 220.959 46.7461 220.744C56.5036 220.519 65.929 224.543 72.7173 231.517C75.9014 234.789 80.9316 229.808 77.7474 226.536C69.7187 218.282 58.3398 213.408 46.7754 213.672C35.4746 213.926 24.5157 218.927 16.8484 227.219C13.7619 230.56 18.7334 235.6 21.8297 232.25L21.8394 232.24Z" fill="#E0E0E0"/>
<path d="M634.191 -28V85.6327H470.969L465.089 -27.2088L634.191 -28Z" fill="#E0E0E0"/>
<path d="M465.099 -27.2088V85.3983L628.311 85.3983V-27.2088L465.099 -27.2088Z" fill="white"/>
<path d="M629.082 86.1699H464.318V-27.9805H629.082V86.1699ZM465.871 84.6169H627.539V-26.4275H465.871V84.6267V84.6169Z" fill="#E0E0E0"/>
<path d="M610.632 -13.2123H482.768V71.4116H610.632V-13.2123Z" fill="white"/>
<path d="M610.632 -13.2123C610.632 -13.2123 610.407 -13.2026 609.997 -13.1928C609.567 -13.1928 608.962 -13.183 608.18 -13.1733C606.559 -13.1635 604.205 -13.144 601.158 -13.1244C595.014 -13.1049 586.087 -13.0658 574.805 -13.0268C552.253 -12.9779 520.343 -12.9193 482.768 -12.8412L483.139 -13.2123C483.149 12.6417 483.159 41.2892 483.169 71.4017L482.768 71.011C530.999 71.0403 575.47 71.0696 610.632 71.0892L610.309 71.4115C610.378 45.6551 610.436 24.548 610.476 9.83848C610.515 2.49347 610.534 -3.2497 610.554 -7.18592C610.573 -9.12961 610.583 -10.624 610.593 -11.6593C610.603 -12.6751 610.632 -13.2123 610.632 -13.2123C610.632 -13.2123 610.651 -12.724 610.671 -11.7277C610.671 -10.7021 610.69 -9.23705 610.71 -7.31289C610.729 -3.39621 610.759 2.32743 610.788 9.64313C610.827 24.3917 610.886 45.577 610.954 71.4115V71.7338H610.632C575.47 71.7534 531.009 71.7827 482.768 71.812H482.368V71.4115C482.377 41.2892 482.387 12.6417 482.397 -13.2123V-13.5835H482.768C520.441 -13.5054 552.448 -13.4468 575.05 -13.3979C586.292 -13.3588 595.19 -13.3198 601.314 -13.3002C604.332 -13.2807 606.657 -13.2612 608.258 -13.2514C609.02 -13.2514 609.616 -13.2319 610.036 -13.2319C610.436 -13.2319 610.622 -13.2123 610.622 -13.2123H610.632Z" fill="#E0E0E0"/>
<path d="M628.174 85.4181C622.109 80.5051 616.043 75.5824 609.978 70.6694Z" fill="white"/>
<path d="M609.978 70.6692C610.114 70.4934 614.304 73.658 619.335 77.731C624.365 81.8039 628.321 85.242 628.184 85.4178C628.047 85.5936 623.857 82.429 618.827 78.3561C613.806 74.2831 609.841 70.845 609.978 70.6692Z" fill="#E0E0E0"/>
<path d="M465.09 85.3982C464.953 85.2224 468.752 81.9797 473.587 78.1607C478.422 74.3417 482.446 71.3822 482.583 71.558C482.719 71.7338 478.92 74.9668 474.085 78.7955C469.25 82.6146 465.226 85.574 465.09 85.3982Z" fill="#E0E0E0"/>
<path d="M508.729 13.1496V41.4845L589.183 41.4845V13.1496L508.729 13.1496Z" fill="#E0E0E0"/>
<path d="M598.13 263.622C603.873 260.653 610.641 260.272 617.029 261.327C620.458 261.893 624.032 262.919 626.367 265.497C628.701 268.076 629.141 272.608 626.465 274.815C624.872 276.134 622.645 276.329 620.575 276.31C615.584 276.251 610.036 275.372 606.051 278.38C603.775 280.1 602.261 282.942 599.536 283.792C596.87 284.612 593.871 283.049 592.455 280.637C591.039 278.234 590.999 275.226 591.654 272.52C591.654 272.52 592.347 266.611 598.139 263.632L598.13 263.622Z" fill="#EBEBEB"/>
<path d="M584.963 238.198C588.48 243.218 595.307 241.558 598.472 238.491C601.636 235.424 602.974 230.99 604.195 226.751C606.979 217.071 609.782 206.923 607.711 197.068C607.096 194.118 605.992 191.188 603.922 189C601.851 186.812 598.667 185.513 595.756 186.285C592.308 187.193 590.169 190.572 588.626 193.776C584.075 203.211 581.672 213.662 581.633 224.133C581.613 229.026 582.19 234.154 584.954 238.188" fill="#EBEBEB"/>
<path d="M575.313 245.396C579.132 240.864 579.855 234.262 578.156 228.587C576.456 222.912 572.618 218.087 568.203 214.151C563.016 209.531 556.922 205.936 550.377 203.631C547.799 202.723 545.084 202.01 542.359 202.274C539.643 202.537 536.899 203.924 535.629 206.347C533.754 209.922 535.551 214.268 537.494 217.804C540.923 224.045 544.839 230.013 549.205 235.629C552.712 240.151 556.736 244.615 562.079 246.666C567.431 248.707 572.979 248.473 575.821 244.762" fill="#EBEBEB"/>
<path d="M584.729 313.914C584.797 313.914 584.905 313.103 585.051 311.628C585.217 309.968 585.413 307.888 585.657 305.407C585.95 302.789 586.331 299.673 587.054 296.274C587.776 292.885 588.909 289.222 590.374 285.501C591.888 281.799 593.725 278.439 595.873 275.753C598.012 273.048 600.493 271.094 602.828 269.971C605.152 268.818 607.243 268.349 608.688 268.144C610.143 267.998 610.954 267.881 610.964 267.812C610.964 267.744 610.143 267.734 608.649 267.773C607.164 267.871 604.996 268.252 602.545 269.365C600.083 270.459 597.446 272.442 595.209 275.196C592.953 277.941 591.039 281.379 589.505 285.139C588.021 288.929 586.907 292.631 586.214 296.089C585.52 299.546 585.208 302.691 585.002 305.338C584.807 307.985 584.729 310.124 584.69 311.599C584.661 313.074 584.67 313.894 584.739 313.904L584.729 313.914Z" fill="#E0E0E0"/>
<path d="M585.149 309.128C585.149 309.128 585.198 308.757 585.208 308.073C585.208 307.282 585.208 306.276 585.208 305.045C585.208 302.418 585.208 298.618 585.344 293.92C585.579 284.534 586.389 274.434 587.942 260.184C589.417 246.793 591.41 231.204 593.5 221.066C593.949 218.761 594.399 216.69 594.828 214.874C595.239 213.057 595.58 211.484 595.912 210.215C596.196 209.023 596.43 208.046 596.616 207.275C596.772 206.601 596.831 206.239 596.801 206.229C596.772 206.229 596.645 206.562 596.43 207.226C596.196 207.988 595.912 208.945 595.551 210.127C595.16 211.387 594.76 212.94 594.311 214.756C593.832 216.563 593.334 218.634 592.846 220.939C590.775 230.12 588.577 242.955 587.005 257.234C585.442 271.504 584.739 284.505 584.67 293.91C584.612 298.618 584.719 302.428 584.836 305.055C584.915 306.286 584.973 307.282 585.022 308.083C585.071 308.776 585.12 309.138 585.149 309.138V309.128Z" fill="#E0E0E0"/>
<path d="M585.217 284.065C585.286 284.065 585.276 282.942 585.198 280.9C585.081 278.869 584.807 275.929 584.231 272.335C583.625 268.75 582.775 264.482 581.447 259.852C580.871 257.732 579.513 252.663 576.231 245.084C571.904 234.818 566.025 226.419 560.906 221.222C559.705 219.845 558.367 218.849 557.302 217.872C556.746 217.403 556.257 216.934 555.759 216.573C555.261 216.231 554.792 215.909 554.362 215.606C552.682 214.454 551.735 213.848 551.706 213.907C551.559 214.112 555.476 216.417 560.428 221.691C565.36 226.946 571.074 235.287 575.372 245.465C577.765 250.983 579.435 255.916 580.617 260.096C581.984 264.677 582.893 268.896 583.576 272.452C584.231 276.017 584.612 278.918 584.836 280.93C585.022 282.942 585.159 284.065 585.227 284.065H585.217Z" fill="#E0E0E0"/>
<path d="M560.985 328.282L563.505 362.692H607.702L610.222 328.282H560.985Z" fill="#E0E0E0"/>
<path d="M615.486 314.715H556.716V328.282H615.486V314.715Z" fill="#E0E0E0"/>
<path d="M556.716 361.373V365.134H559.48H614.519V361.373H556.716Z" fill="#EBEBEB"/>
<path d="M562.186 371.746L559.48 365.134H612.419L609.255 371.746H562.186Z" fill="#E0E0E0"/>
<path d="M609.401 339.524C609.401 339.524 609.343 339.641 609.196 339.836C609.02 340.071 608.806 340.354 608.532 340.715C607.907 341.516 607.038 342.62 605.953 344.007L605.836 344.153L605.729 343.997C604.107 341.76 601.949 338.772 599.4 335.246H599.761C597.876 337.912 595.786 340.881 593.529 344.066L593.334 344.339L593.119 344.075C590.824 341.34 588.323 338.371 585.735 335.285H586.165C586.038 335.441 585.901 335.617 585.755 335.793C583.459 338.664 581.242 341.448 579.152 344.075L578.927 344.349L578.722 344.066C576.476 340.891 574.386 337.932 572.491 335.246L572.852 335.265C569.785 338.762 567.177 341.731 565.175 344.007L565.038 344.163L564.931 343.987C563.915 342.288 563.114 340.93 562.528 339.954C562.274 339.514 562.069 339.162 561.913 338.879C561.776 338.635 561.717 338.498 561.727 338.498C561.737 338.498 561.825 338.606 561.981 338.84C562.157 339.114 562.382 339.455 562.665 339.875C563.28 340.842 564.13 342.171 565.185 343.841L564.941 343.821C566.904 341.516 569.473 338.508 572.491 334.972L572.686 334.748L572.862 334.992C574.776 337.658 576.886 340.608 579.152 343.773H578.732C580.822 341.126 583.039 338.342 585.325 335.47C585.462 335.295 585.598 335.119 585.735 334.962L585.94 334.699L586.155 334.953C588.743 338.039 591.234 341.018 593.52 343.763L593.109 343.782C595.385 340.608 597.495 337.658 599.4 335.011L599.585 334.757L599.761 335.011C602.252 338.567 604.371 341.594 605.953 343.86H605.729C606.862 342.503 607.751 341.428 608.405 340.637C608.698 340.305 608.932 340.032 609.118 339.807C609.284 339.621 609.372 339.534 609.382 339.543L609.401 339.524Z" fill="#F5F5F5"/>
<path d="M610.837 328.047C610.837 328.203 599.761 328.321 586.097 328.321C572.432 328.321 561.356 328.194 561.356 328.047C561.356 327.901 572.432 327.774 586.097 327.774C599.761 327.774 610.837 327.901 610.837 328.047Z" fill="#F5F5F5"/>
<path d="M613.064 365.505C613.064 365.661 601.031 365.778 586.184 365.778C571.338 365.778 559.295 365.651 559.295 365.505C559.295 365.358 571.328 365.231 586.184 365.231C601.04 365.231 613.064 365.358 613.064 365.505Z" fill="#F5F5F5"/>
<path d="M15.1102 291.732V336.213H7.68701V341.038H15.1102V370.808H153.942V343.714H143.658V337.815H153.942V328.965H158.514V324.941H153.083V291.723H15.1102V291.732Z" fill="#F5F5F5"/>
<path d="M117.071 291.859V370.32H153.933V343.235H143.657V337.824L153.933 338.01V329.161H158.601L158.504 324.59L153.083 324.453V291.732L117.071 291.859Z" fill="#E0E0E0"/>
<path d="M119.698 340.403C119.698 340.676 94.5769 340.891 63.595 340.891C32.6132 340.891 7.48193 340.667 7.48193 340.403C7.48193 340.139 32.5936 339.915 63.595 339.915C94.5964 339.915 119.698 340.139 119.698 340.403Z" fill="#E0E0E0"/>
<path d="M119.698 335.89C119.698 336.164 94.5769 336.379 63.595 336.379C32.6132 336.379 7.48193 336.154 7.48193 335.89C7.48193 335.627 32.5936 335.402 63.595 335.402C94.5964 335.402 119.698 335.627 119.698 335.89Z" fill="#E0E0E0"/>
<path d="M126.907 323.73C126.907 324.004 101.785 324.218 70.8035 324.218C39.8217 324.218 14.6904 323.994 14.6904 323.73C14.6904 323.466 39.8021 323.242 70.8035 323.242C101.805 323.242 126.907 323.466 126.907 323.73Z" fill="#E0E0E0"/>
<path d="M127.6 356.861C127.6 357.134 102.479 357.349 71.4969 357.349C40.515 357.349 15.3838 357.125 15.3838 356.861C15.3838 356.597 40.4955 356.372 71.4969 356.372C102.498 356.372 127.6 356.597 127.6 356.861Z" fill="#E0E0E0"/>
<path d="M76.7805 253.454C78.5484 252.624 80.6581 253.347 81.547 255.076L138.1 365.036H245.569C249.281 365.036 252.279 368.044 252.279 371.746H132.562L75.0908 258.377C74.1629 256.551 74.9345 254.324 76.7903 253.454H76.7805Z" fill="#263238"/>
<path d="M558.904 218.605C558.904 218.741 537.035 218.858 510.058 218.858C483.081 218.858 461.212 218.741 461.212 218.605C461.212 218.468 483.081 218.351 510.058 218.351C537.035 218.351 558.904 218.468 558.904 218.605Z" fill="#263238"/>
<path d="M602.525 209.794C602.525 209.931 576.984 210.048 545.484 210.048C513.985 210.048 488.434 209.931 488.434 209.794C488.434 209.658 513.975 209.541 545.484 209.541C576.994 209.541 602.525 209.658 602.525 209.794Z" fill="#263238"/>
<path d="M366.459 248.327H131.526L168.593 56.448L402.745 59.5833L366.459 248.327Z" fill="#FAFAFA"/>
<path d="M168.593 56.448L165.517 72.3589L399.814 74.8398L402.745 59.5833L168.593 56.448Z" fill="#EBEBEB"/>
<path d="M366.459 248.327C366.459 248.327 366.674 247.135 367.104 244.859C367.534 242.574 368.178 239.204 369.008 234.799C370.688 225.989 373.16 213.057 376.305 196.57C382.614 163.615 391.649 116.449 402.54 59.5443L402.745 59.7982C335.751 58.9094 255.21 57.8448 168.593 56.702L168.847 56.4969C168.73 57.1025 168.603 57.7666 168.476 58.4308C155.193 127.163 142.651 192.047 131.761 248.375L131.536 248.102C201.431 248.151 260.142 248.18 301.38 248.209C322.008 248.239 338.271 248.258 349.376 248.268C354.934 248.278 359.192 248.287 362.074 248.297C363.509 248.297 364.603 248.307 365.346 248.307C366.078 248.307 366.459 248.317 366.459 248.317C366.459 248.317 366.098 248.317 365.365 248.327C364.633 248.327 363.548 248.327 362.122 248.336C359.251 248.336 354.992 248.356 349.464 248.366C338.368 248.375 322.116 248.405 301.507 248.424C260.24 248.454 201.48 248.493 131.536 248.532H131.263L131.312 248.258C142.183 191.93 154.704 127.046 167.978 58.3038C168.105 57.6397 168.232 56.9755 168.349 56.3699L168.388 56.1648H168.603C255.219 57.3466 335.77 58.4406 402.754 59.3489H403.008L402.96 59.6029C391.971 116.536 382.858 163.732 376.49 196.706C373.296 213.164 370.796 226.077 369.096 234.877C368.237 239.263 367.582 242.622 367.143 244.898C366.703 247.164 366.459 248.317 366.459 248.317V248.327Z" fill="#263238"/>
<path d="M273.191 224.377C273.191 224.514 251.322 224.631 224.345 224.631C197.368 224.631 175.499 224.514 175.499 224.377C175.499 224.24 197.368 224.123 224.345 224.123C251.322 224.123 273.191 224.24 273.191 224.377Z" fill="#263238"/>
<path d="M332.449 215.567C332.449 215.704 303.411 215.821 267.595 215.821C231.778 215.821 202.73 215.704 202.73 215.567C202.73 215.43 231.768 215.313 267.595 215.313C303.421 215.313 332.449 215.43 332.449 215.567Z" fill="#263238"/>
<path d="M276.473 5.41386C276.473 5.5506 254.604 5.66781 227.627 5.66781C200.65 5.66781 178.781 5.5506 178.781 5.41386C178.781 5.27712 200.65 5.15991 227.627 5.15991C254.604 5.15991 276.473 5.27712 276.473 5.41386Z" fill="#263238"/>
<path d="M227.91 130.445L245.882 111.125L257.251 130.445H227.91Z" fill="#E0E0E0"/>
<path d="M243.128 165.441L227.91 165.021L235.548 128.003L249.721 127.886L243.128 165.441Z" fill="#E0E0E0"/>
<path d="M322.321 150.448L304.349 169.768L292.98 150.448H322.321Z" fill="#E0E0E0"/>
<path d="M307.104 115.452L322.321 115.862L314.683 152.89L300.511 152.998L307.104 115.452Z" fill="#E0E0E0"/>
<path d="M314.155 97.2558C314.155 97.3925 300.383 97.5097 283.398 97.5097C266.413 97.5097 252.631 97.3925 252.631 97.2558C252.631 97.119 266.403 97.0018 283.398 97.0018C300.393 97.0018 314.155 97.119 314.155 97.2558Z" fill="#E0E0E0"/>
<path d="M246.341 174.417C246.341 174.554 240.432 174.671 233.145 174.671C225.859 174.671 219.95 174.554 219.95 174.417C219.95 174.281 225.859 174.163 233.145 174.163C240.432 174.163 246.341 174.281 246.341 174.417Z" fill="#E0E0E0"/>
<path d="M252.709 181.772C252.709 181.909 242.61 182.026 230.157 182.026C217.703 182.026 207.604 181.909 207.604 181.772C207.604 181.635 217.703 181.518 230.157 181.518C242.61 181.518 252.709 181.635 252.709 181.772Z" fill="#E0E0E0"/>
<path d="M315.181 174.417C315.181 174.554 310.297 174.671 304.281 174.671C298.264 174.671 293.38 174.554 293.38 174.417C293.38 174.281 298.264 174.163 304.281 174.163C310.297 174.163 315.181 174.281 315.181 174.417Z" fill="#E0E0E0"/>
<path d="M321.862 181.889C321.862 182.026 311.762 182.143 299.309 182.143C286.856 182.143 276.756 182.026 276.756 181.889C276.756 181.753 286.856 181.635 299.309 181.635C311.762 181.635 321.862 181.753 321.862 181.889Z" fill="#E0E0E0"/>
<path d="M398.75 37.8999C387.117 45.5672 378.991 58.3429 376.969 72.1245C375.641 81.1788 376.832 90.4187 376.236 99.5608C375.445 111.623 371.558 123.911 374.849 135.544C376.998 143.152 382.136 149.716 388.455 154.473C394.775 159.229 402.227 162.296 409.855 164.386C417.874 166.584 426.626 167.717 434.371 164.699C444.178 160.87 450.351 151.308 455.586 142.176C460.821 133.043 466.281 123.256 475.58 118.304" fill="#263238"/>
<path d="M608.757 151.484C623.798 150.995 627.354 144.92 627.354 144.92C627.354 144.92 627.119 128.892 627.295 122.465C627.49 115.521 627.129 107.277 627.295 100.85C622.421 107.355 608.034 109.66 601.256 105.187C594.467 100.713 588.138 89.6763 574.767 83.8843C561.971 78.3463 545.582 86.1796 536.518 86.1113C515.206 85.955 522.492 57.8545 502.147 51.5155C495.124 49.3276 481.587 51.7499 474.74 49.0737C464.015 44.8835 458.253 28.494 447.792 23.6787C439.538 19.889 420.766 18.6681 413.069 23.4931C405.372 28.3182 401.759 30.3009 397.529 38.3394L443.25 123.393C451.142 138.073 464.719 148.993 480.883 153.047C488.795 155.029 496.296 158.272 500.486 162.267C508.994 170.364 518.907 179.321 530.609 178.266C539.516 177.455 546.891 170.891 555.603 168.86C566.435 166.32 577.462 171.048 587.845 175.042C598.433 179.125 610.691 182.475 620.722 176.976C618.798 167.707 618.925 168.323 617 159.044C606.706 158.37 596.675 154.014 589.193 146.903C594.624 148.085 603.209 151.66 608.767 151.484H608.757Z" fill="#263238"/>
<path d="M383.904 74.0487C385.681 58.5383 396.963 39.9706 412.385 42.4027L460.186 57.1122C464.875 57.8546 468.215 62.0545 467.883 66.7819L454.179 178.442C451.611 180.737 421.322 208.388 421.322 208.388L403.341 175.463C403.341 175.463 404.132 155.752 404.112 155.879C404.112 155.879 384.402 151.562 381.599 125.415C380.212 112.405 381.941 91.288 383.904 74.0487Z" fill="#FFBE9D"/>
<path d="M389.832 94.4429C389.676 96.201 391.044 97.7736 392.87 97.9592C394.697 98.1545 396.298 96.8848 396.455 95.1364C396.611 93.3783 395.244 91.8058 393.417 91.6104C391.591 91.4151 389.979 92.6848 389.832 94.4332V94.4429Z" fill="#263238"/>
<path d="M388.25 87.3714C388.641 87.8304 391.259 86.0919 394.834 86.2774C398.408 86.4142 400.948 88.3969 401.358 87.9769C401.563 87.7914 401.182 86.9904 400.079 86.1016C398.994 85.2128 397.119 84.3142 394.882 84.2068C392.655 84.1091 390.731 84.8319 389.608 85.6133C388.465 86.4044 388.055 87.1663 388.241 87.3714H388.25Z" fill="#263238"/>
<path d="M423.842 96.5623C423.686 98.3204 425.053 99.893 426.88 100.079C428.706 100.274 430.308 99.0041 430.464 97.2558C430.621 95.4977 429.253 93.9251 427.427 93.7298C425.6 93.5345 423.989 94.8042 423.842 96.5525V96.5623Z" fill="#263238"/>
<path d="M423.93 89.2954C424.321 89.7545 426.938 88.0159 430.513 88.2015C434.088 88.3383 436.628 90.321 437.038 89.901C437.233 89.7154 436.862 88.9145 435.758 88.0159C434.674 87.1271 432.799 86.2285 430.562 86.1211C428.335 86.0234 426.411 86.7462 425.288 87.5276C424.145 88.3187 423.735 89.0806 423.92 89.2857L423.93 89.2954Z" fill="#263238"/>
<path d="M408.742 113.645C408.771 113.44 406.564 112.942 402.979 112.297C402.071 112.161 401.211 111.926 401.094 111.301C400.908 110.627 401.348 109.66 401.846 108.625C402.823 106.457 403.839 104.181 404.903 101.798C409.162 92.0791 412.297 84.0699 411.906 83.8941C411.516 83.7281 407.746 91.4638 403.477 101.192C402.452 103.585 401.465 105.88 400.528 108.058C400.127 109.084 399.473 110.227 399.873 111.623C400.088 112.317 400.733 112.854 401.309 113.04C401.885 113.245 402.403 113.284 402.852 113.333C406.476 113.714 408.722 113.841 408.742 113.645Z" fill="#263238"/>
<path d="M404.103 155.879C404.103 155.879 421.498 157.891 439.323 148.388C439.323 148.388 429.644 165.773 403.81 162.023L404.112 155.879H404.103Z" fill="#EB996E"/>
<path d="M422.445 75.465C422.748 76.4515 426.343 76.1781 430.523 76.9008C434.713 77.5357 438.034 78.9422 438.64 78.0924C438.913 77.692 438.366 76.7446 437.047 75.7288C435.739 74.7227 433.619 73.7167 431.109 73.3065C428.599 72.906 426.274 73.1893 424.711 73.7265C423.139 74.2734 422.318 74.9962 422.455 75.465H422.445Z" fill="#263238"/>
<path d="M388.739 75.1719C389.325 76.0119 391.835 75.2989 394.804 75.4064C397.773 75.4064 400.254 76.2366 400.879 75.4064C401.153 75.0059 400.801 74.1757 399.746 73.3455C398.701 72.525 396.924 71.8022 394.882 71.7632C392.841 71.7241 391.034 72.3687 389.96 73.1501C388.866 73.9315 388.485 74.752 388.739 75.1622V75.1719Z" fill="#263238"/>
<path d="M406.535 124.692C407.062 126.245 407.599 127.827 408.547 129.175C409.494 130.513 410.92 131.617 412.561 131.773C414.3 131.939 416.038 130.992 417.083 129.586C418.129 128.179 418.549 126.392 418.558 124.634C418.558 123.051 417.933 121.127 416.37 120.863C415.716 120.756 415.062 120.971 414.446 121.195C411.643 122.172 408.84 123.159 406.027 124.135" fill="#EB996E"/>
<path d="M409.494 131.637C409.553 131.383 411.321 132.203 413.919 131.305C415.179 130.865 416.575 129.947 417.396 128.443C418.216 126.948 418.461 124.897 417.767 123.051C417.611 122.592 417.357 122.162 417.113 121.781C416.8 121.42 416.859 121.44 416.507 121.479C416.165 121.557 415.608 121.781 415.159 121.938C414.69 122.104 414.231 122.26 413.772 122.426C411.975 123.051 410.344 123.598 408.967 124.038C406.212 124.917 404.474 125.366 404.405 125.171C404.337 124.975 405.939 124.184 408.605 123.061C409.934 122.494 411.526 121.85 413.303 121.147C413.753 120.971 414.202 120.795 414.671 120.609C415.159 120.434 415.54 120.238 416.204 120.062C416.527 119.984 416.986 119.955 417.425 120.16C417.855 120.355 418.109 120.668 418.304 120.922C418.646 121.43 418.949 121.947 419.154 122.534C420.014 124.839 419.662 127.319 418.578 129.126C417.474 130.963 415.706 131.949 414.222 132.311C412.717 132.692 411.438 132.525 410.637 132.272C409.826 132.018 409.455 131.715 409.494 131.637Z" fill="#263238"/>
<path d="M477.064 79.0789C476.957 79.7528 475.648 80.2705 473.255 80.29C470.891 80.2802 467.434 79.7333 463.488 77.9947C459.551 76.2756 455.117 73.3455 451.308 68.872C449.403 66.6451 447.938 64.3888 446.444 62.7968C445.711 61.9861 444.998 61.4001 444.324 60.9801C443.65 60.5894 442.947 60.3061 441.941 60.1108C439.958 59.6908 437.262 59.7689 434.225 59.6517C431.099 59.515 428.062 59.0266 425.307 58.2648C422.533 57.5127 420.013 56.5066 417.757 55.3736C415.511 54.2211 413.547 52.9318 411.858 51.6523C408.498 49.0347 406.31 46.3682 405.108 44.3464C404.493 43.3403 404.151 42.471 404.005 41.8069C403.858 41.1525 403.917 40.7032 404.181 40.4785C405.323 39.5115 409.094 42.5589 415.618 45.5184C417.259 46.2314 419.066 46.964 421.029 47.5891C423.002 48.2044 425.122 48.7416 427.368 49.1128C429.624 49.4937 431.969 49.6891 434.44 49.6793C436.979 49.6988 440.124 49.3863 443.992 50.1286C445.897 50.4998 447.977 51.2714 449.755 52.4141C451.513 53.5569 452.9 54.9341 453.984 56.2429C456.162 58.8899 457.451 61.3121 458.731 63.1093C461.251 66.7623 464.279 69.6143 467.082 71.7339C472.718 76.0022 477.328 77.5845 477.084 79.0593L477.064 79.0789Z" fill="#263238"/>
<path d="M440.691 64.3302C446.043 73.6482 449.237 84.5974 447.674 95.234C445.652 108.967 449.315 109.904 454.922 105.763C468.996 95.3609 466.164 121.147 469.748 128.365C473.646 136.198 482.993 139.714 491.705 140.554C500.408 141.394 509.316 140.281 517.862 142.127C524.924 143.65 531.409 147.118 538.266 149.403C545.123 151.689 552.946 152.685 559.363 149.355C548.326 148.866 538.491 142.469 529.71 135.749C520.939 129.029 512.275 121.596 501.687 118.392C496.384 116.79 490.523 116.214 486.148 112.805C478.861 107.131 478.744 96.4158 478.344 87.1857C478.021 79.9091 477.074 72.5445 474.134 65.8832C471.194 59.2219 466.037 53.2834 459.239 50.6853C452.441 48.0872 443.963 49.4058 439.128 54.8462" fill="#263238"/>
<path d="M459.151 103.722C459.561 103.614 475.511 101.426 472.688 116.947C469.866 132.467 454.863 126.431 454.922 125.972C454.98 125.522 459.151 103.722 459.151 103.722Z" fill="#FFBE9D"/>
<path d="M459.366 120.746C459.444 120.707 459.6 120.98 460.02 121.274C460.43 121.557 461.173 121.84 462.032 121.684C463.781 121.381 465.636 119.027 466.222 116.243C466.515 114.837 466.467 113.44 466.174 112.239C465.91 111.018 465.314 110.09 464.523 109.797C463.732 109.455 463.058 109.846 462.794 110.246C462.511 110.647 462.55 110.969 462.462 110.979C462.413 111.008 462.179 110.656 462.423 110.041C462.54 109.748 462.794 109.416 463.214 109.182C463.644 108.947 464.22 108.889 464.777 109.055C465.959 109.357 466.838 110.656 467.16 111.975C467.551 113.313 467.639 114.895 467.307 116.468C466.642 119.574 464.503 122.211 462.14 122.455C460.997 122.543 460.147 122.045 459.747 121.596C459.336 121.127 459.317 120.766 459.375 120.746H459.366Z" fill="#EB996E"/>
<path d="M449.296 29.7931C449.296 29.7931 448.602 29.4024 447.342 28.6991C446.092 27.9959 444.217 27.0778 441.795 26.2378C439.372 25.3978 436.374 24.7043 432.994 24.4894C429.625 24.2648 425.864 24.5676 422.104 25.6127C418.353 26.6968 414.993 28.3963 412.229 30.3596C409.465 32.313 407.267 34.4716 405.646 36.4544C404.015 38.4371 402.901 40.1952 402.208 41.4552C401.505 42.7054 401.163 43.4282 401.124 43.4087C401.104 43.4087 401.182 43.2133 401.329 42.8617C401.485 42.5199 401.69 41.9924 402.032 41.3575C402.677 40.0683 403.761 38.2613 405.372 36.2297C406.974 34.1981 409.172 31.9809 411.965 29.9786C414.749 27.9764 418.158 26.228 421.967 25.1243C425.796 24.0694 429.605 23.7764 433.033 24.0304C436.462 24.2745 439.49 25.0169 441.922 25.9057C444.354 26.7945 446.219 27.7712 447.45 28.5331C448.075 28.8945 448.524 29.2363 448.837 29.4512C449.149 29.6661 449.306 29.7931 449.296 29.8028V29.7931Z" fill="#455A64"/>
<path d="M627.354 129.908C627.354 129.908 624.619 130.367 619.618 130.738C617.117 130.885 614.051 131.021 610.486 130.845C608.708 130.728 606.803 130.582 604.811 130.211C602.818 129.879 600.728 129.351 598.628 128.54C596.528 127.73 594.428 126.606 592.445 125.141C590.472 123.667 588.636 121.879 586.8 119.994C584.964 118.109 583.059 116.175 580.822 114.515C578.585 112.864 576.026 111.516 573.223 110.647C571.827 110.149 570.381 109.904 568.887 109.816C567.392 109.768 565.868 109.875 564.355 110.11C561.307 110.569 558.279 111.457 555.242 112.493C552.214 113.548 549.186 114.788 546.129 116.097C543.081 117.464 539.682 118.275 536.244 118.353C529.349 118.568 522.58 116.048 517.794 111.633C512.979 107.257 509.677 101.856 505.331 97.8809C503.172 95.8883 500.799 94.2084 498.23 93.173C495.671 92.1182 492.907 91.8251 490.348 92.2744C487.779 92.6944 485.406 93.6419 483.149 94.5502C480.883 95.4586 478.705 96.3669 476.507 96.8846C474.32 97.4218 472.181 97.6562 470.149 97.6855C468.117 97.6855 466.213 97.4706 464.455 97.1581C460.948 96.4548 458.077 95.2632 455.879 94.0423C453.681 92.8214 452.167 91.5712 451.161 90.7214C450.673 90.2721 450.321 89.9205 450.077 89.6861C449.833 89.4517 449.726 89.3149 449.726 89.3149C449.726 89.3149 449.862 89.4224 450.116 89.647C450.38 89.8814 450.751 90.2135 451.23 90.6433C452.255 91.4637 453.779 92.6847 455.977 93.8763C458.165 95.0679 461.026 96.2107 464.504 96.8846C466.242 97.1874 468.127 97.3925 470.139 97.373C472.142 97.3339 474.261 97.0897 476.41 96.5427C478.568 96.0251 480.737 95.1167 482.993 94.1986C485.259 93.2902 487.642 92.3135 490.279 91.874C492.907 91.4051 495.769 91.6982 498.396 92.7726C501.033 93.8372 503.455 95.5465 505.643 97.5488C510.058 101.573 513.369 106.974 518.116 111.272C522.814 115.599 529.446 118.07 536.215 117.855C539.594 117.777 542.906 116.995 545.914 115.648C548.971 114.339 552.018 113.098 555.066 112.043C558.123 111.008 561.18 110.11 564.276 109.65C565.82 109.426 567.373 109.309 568.906 109.367C570.43 109.455 571.963 109.719 573.36 110.227C576.212 111.116 578.82 112.503 581.086 114.182C583.352 115.872 585.266 117.845 587.103 119.73C588.929 121.625 590.736 123.393 592.68 124.858C594.623 126.313 596.684 127.427 598.755 128.238C600.826 129.048 602.887 129.585 604.869 129.927C606.842 130.299 608.737 130.465 610.505 130.592C614.051 130.797 617.108 130.689 619.608 130.572C622.099 130.416 624.042 130.259 625.351 130.113C625.996 130.054 626.484 130.005 626.846 129.976C627.178 129.947 627.354 129.947 627.354 129.947V129.908Z" fill="#455A64"/>
<path d="M549.254 88.5629C549.254 88.5629 549.157 88.6606 548.942 88.8462C548.737 89.022 548.424 89.2955 547.965 89.5787C547.066 90.1745 545.631 90.9364 543.609 91.3564C541.597 91.7666 539.028 91.8447 536.176 91.1903C533.324 90.5457 530.276 89.0806 527.249 87.0197C524.201 84.9783 521.183 82.3314 517.794 79.7235C514.405 77.1547 510.517 74.5371 505.839 73.4529C503.504 72.945 501.043 72.8669 498.533 73.0915C496.023 73.2869 493.473 73.6873 490.856 73.9315C488.238 74.1855 485.503 74.2441 482.807 73.6385C480.102 73.0525 477.582 71.6655 475.433 69.8586C471.077 66.2056 468.342 61.3415 465.607 56.8974C464.23 54.6606 462.833 52.5021 461.251 50.5486C459.678 48.5952 457.891 46.8956 455.967 45.4599C452.128 42.5883 447.811 40.8106 443.641 39.9706C439.46 39.1111 435.407 39.2576 431.861 40.0195C428.306 40.7716 425.268 42.1194 422.768 43.5552C420.287 45.0301 418.353 46.6222 416.888 48.0384C415.413 49.4449 414.446 50.7049 413.782 51.5449C413.479 51.9649 413.245 52.2872 413.069 52.5314C412.903 52.756 412.815 52.8635 412.805 52.8635C412.805 52.8635 412.874 52.7365 413.02 52.5021C413.186 52.2481 413.411 51.916 413.694 51.4863C414.339 50.6268 415.286 49.3375 416.751 47.9017C418.197 46.4561 420.131 44.825 422.621 43.3111C425.122 41.8362 428.189 40.4492 431.783 39.6678C435.368 38.8669 439.47 38.7009 443.719 39.5506C447.958 40.3809 452.333 42.1683 456.24 45.0789C458.194 46.5245 460.02 48.2533 461.622 50.2361C463.234 52.2091 464.64 54.3872 466.027 56.6239C468.772 61.0778 471.497 65.893 475.755 69.4581C477.865 71.226 480.297 72.5641 482.915 73.1404C485.523 73.7362 488.209 73.6776 490.807 73.4334C493.415 73.199 495.964 72.7985 498.494 72.6032C501.023 72.3883 503.553 72.4664 505.936 72.9939C510.732 74.1171 514.659 76.7836 518.048 79.3817C521.447 82.0188 524.436 84.6755 527.454 86.7169C530.442 88.7876 533.431 90.2527 536.244 90.9168C539.047 91.5908 541.587 91.542 543.57 91.1708C545.562 90.7801 546.998 90.0671 547.906 89.5006C548.815 88.9439 549.225 88.5336 549.254 88.5727V88.5629Z" fill="#455A64"/>
<path d="M581.36 71.431C581.36 71.431 580.822 71.978 579.719 72.9157C578.605 73.8533 576.876 75.1426 574.464 76.4905C572.051 77.8286 568.906 79.1765 565.058 80.036C561.229 80.9053 556.668 81.2374 551.774 80.3876C546.891 79.5574 541.704 77.5161 536.977 74.0975C534.623 72.3785 532.406 70.298 530.433 67.8855C528.489 65.4534 526.799 62.7479 525.012 60.0326C523.215 57.3271 521.291 54.5727 518.732 52.3555C516.202 50.1188 512.92 48.7221 509.433 48.3216C505.946 47.9016 502.332 48.2923 498.718 48.81C495.105 49.3276 491.422 50.0016 487.623 50.0895C485.728 50.1774 483.833 49.9821 481.987 49.6207C481.518 49.5523 481.079 49.3667 480.629 49.2397C480.18 49.0932 479.721 48.9858 479.291 48.8002L478.022 48.1946C477.592 47.9993 477.182 47.7942 476.801 47.5207C475.199 46.5537 473.861 45.2449 472.689 43.8482C471.497 42.4612 470.53 40.9375 469.622 39.4041C467.815 36.3371 466.301 33.1921 464.474 30.3205C463.546 28.9042 462.56 27.5466 461.427 26.3354C460.274 25.1536 459.034 24.0792 457.647 23.2685C456.289 22.3895 454.805 21.8034 453.32 21.276C451.816 20.8365 450.302 20.4653 448.769 20.2993C445.721 19.9086 442.723 19.9672 439.841 20.2309C436.96 20.4848 434.196 20.9341 431.549 21.4127C428.902 21.9011 426.372 22.3992 423.969 22.9462C419.164 24.0108 414.905 25.3587 411.311 26.9117C407.736 28.494 404.894 30.34 402.813 32.147C402.315 32.6158 401.798 33.0163 401.387 33.4656C400.977 33.9149 400.586 34.3251 400.225 34.7158C399.551 35.5362 399.024 36.259 398.594 36.8353C398.223 37.4408 397.93 37.9097 397.725 38.2418C397.529 38.5543 397.412 38.7106 397.412 38.7106C397.412 38.7106 397.49 38.5348 397.676 38.2125C397.871 37.8706 398.145 37.392 398.506 36.7767C398.916 36.1809 399.444 35.4386 400.108 34.6083C400.469 34.2079 400.85 33.7879 401.26 33.3288C401.671 32.8698 402.179 32.4595 402.677 31.9809C404.747 30.1447 407.599 28.2596 411.184 26.6382C414.778 25.0559 419.056 23.6787 423.872 22.5848C426.274 22.0183 428.814 21.5104 431.461 21.0123C434.108 20.5239 436.882 20.0648 439.783 19.8011C442.674 19.5374 445.711 19.469 448.798 19.85C450.351 20.016 451.894 20.3872 453.428 20.8365C454.941 21.3639 456.465 21.9695 457.862 22.8583C459.288 23.6885 460.567 24.7922 461.749 26.0034C462.912 27.234 463.918 28.6112 464.855 30.047C466.711 32.9381 468.225 36.093 470.022 39.1306C470.921 40.6445 471.888 42.1487 473.05 43.5063C474.203 44.864 475.502 46.1337 477.045 47.0714C477.406 47.3449 477.816 47.5402 478.227 47.7258L479.448 48.3118C479.858 48.4974 480.307 48.5951 480.747 48.7416C481.186 48.8588 481.606 49.0444 482.065 49.1128C483.862 49.4644 485.718 49.65 487.584 49.5718C495.046 49.3863 502.254 46.9542 509.462 47.8137C513.028 48.2142 516.427 49.6695 519.015 51.9746C521.623 54.2601 523.566 57.0536 525.364 59.7591C527.151 62.4842 528.831 65.1897 530.745 67.5925C532.679 69.9757 534.867 72.0366 537.192 73.7459C541.861 77.1351 546.979 79.1863 551.804 80.0263C556.639 80.8955 561.161 80.583 564.96 79.7528C568.779 78.9323 571.915 77.6137 574.327 76.3049C576.74 74.9863 578.488 73.7361 579.611 72.8278C580.187 72.3882 580.588 72.0073 580.881 71.7729C581.164 71.5287 581.32 71.4213 581.32 71.4213L581.36 71.431Z" fill="#263238"/>
<path d="M618.377 169.045C618.377 169.045 618.24 169.104 617.957 169.211C617.654 169.319 617.234 169.456 616.697 169.641C616.15 169.856 615.437 169.993 614.607 170.188C613.777 170.423 612.8 170.52 611.696 170.686C609.489 170.911 606.754 170.97 603.629 170.579C600.493 170.198 596.987 169.387 593.207 168.186C589.427 166.994 585.383 165.383 581.095 163.595C576.808 161.808 572.188 159.942 567.167 158.546C562.166 157.159 556.667 156.192 551.041 156.827C548.238 157.139 545.435 157.891 542.798 159.132C540.17 160.401 537.69 162.062 535.121 163.654C532.552 165.236 529.895 166.74 526.965 167.424C524.045 168.078 520.87 167.59 518.448 165.959C515.996 164.367 514.229 162.101 512.529 159.962C510.849 157.803 509.218 155.664 507.255 153.984C503.299 150.585 498.523 148.837 494.079 147.626C489.595 146.424 485.317 145.731 481.44 144.901C477.562 144.061 474.104 143.045 471.204 141.814C468.303 140.584 465.949 139.157 464.23 137.751C462.501 136.345 461.417 134.987 460.704 134.069C460.372 133.59 460.137 133.209 459.981 132.955C459.825 132.701 459.747 132.565 459.747 132.565C459.747 132.565 459.844 132.682 460.02 132.926C460.206 133.19 460.46 133.541 460.782 134C461.514 134.899 462.618 136.227 464.357 137.595C466.086 138.962 468.42 140.349 471.311 141.55C474.202 142.752 477.65 143.738 481.518 144.549C485.386 145.35 489.674 146.024 494.196 147.216C498.669 148.417 503.524 150.165 507.567 153.623C509.589 155.342 511.24 157.51 512.92 159.659C514.609 161.788 516.368 164.015 518.722 165.539C521.056 167.102 524.045 167.561 526.858 166.936C529.68 166.281 532.298 164.806 534.857 163.224C537.416 161.642 539.907 159.962 542.583 158.673C545.279 157.413 548.141 156.651 550.993 156.328C556.716 155.684 562.264 156.68 567.304 158.087C572.363 159.503 576.983 161.388 581.271 163.195C585.559 165.002 589.573 166.623 593.334 167.834C597.084 169.055 600.571 169.885 603.677 170.286C606.783 170.696 609.499 170.667 611.696 170.471C612.79 170.325 613.767 170.237 614.587 170.022C615.418 169.846 616.131 169.719 616.678 169.524C617.215 169.358 617.635 169.241 617.947 169.143C618.231 169.065 618.387 169.026 618.387 169.026L618.377 169.045Z" fill="#455A64"/>
<path d="M404.562 93.0949C404.484 93.0949 404.571 91.7763 404.005 89.5201C403.741 88.3871 403.194 87.0489 402.354 85.6424C401.505 84.236 400.284 82.7709 398.623 81.5206C396.973 80.29 394.892 79.2449 392.489 78.8249C390.106 78.4244 387.42 78.5026 384.861 79.4695C383.572 79.9188 382.331 80.5928 381.189 81.4523C380.036 82.2923 378.991 83.3276 378.122 84.529C376.334 86.9024 375.338 89.9498 375.309 93.0949C375.338 96.24 376.344 99.2874 378.122 101.661C378.981 102.862 380.036 103.907 381.189 104.747C382.331 105.597 383.572 106.281 384.861 106.73C387.42 107.707 390.106 107.785 392.489 107.375C394.892 106.955 396.973 105.91 398.623 104.679C400.284 103.438 401.505 101.964 402.345 100.557C403.185 99.1408 403.722 97.8125 403.995 96.6795C404.571 94.4232 404.474 93.0949 404.552 93.1047C404.552 93.1047 404.562 93.1828 404.562 93.3391C404.562 93.5247 404.562 93.7591 404.552 94.0423C404.552 94.3549 404.532 94.7358 404.464 95.1851C404.405 95.6344 404.347 96.1521 404.191 96.7283C403.946 97.8809 403.429 99.2483 402.599 100.704C401.759 102.149 400.528 103.673 398.848 104.962C397.168 106.242 395.039 107.336 392.577 107.795C390.126 108.234 387.362 108.166 384.715 107.17C383.386 106.71 382.097 106.017 380.915 105.138C379.723 104.278 378.639 103.204 377.741 101.964C375.895 99.512 374.84 96.3474 374.82 93.0949C374.85 89.8424 375.895 86.6875 377.741 84.236C378.639 82.9955 379.723 81.9211 380.915 81.0616C382.097 80.1825 383.386 79.4891 384.715 79.03C387.362 78.0337 390.126 77.9751 392.577 78.4049C395.039 78.8542 397.168 79.9481 398.848 81.2374C400.528 82.5267 401.759 84.0504 402.599 85.4959C403.438 86.9513 403.956 88.3187 404.191 89.4712C404.347 90.0377 404.405 90.5652 404.464 91.0145C404.542 91.4638 404.552 91.8447 404.552 92.1572C404.552 92.4405 404.552 92.6749 404.562 92.8605C404.562 93.0167 404.562 93.0949 404.552 93.0949H404.562Z" fill="#455A64"/>
<path d="M443.074 93.0949C442.996 93.0949 443.084 91.7763 442.517 89.5201C442.253 88.3871 441.707 87.0489 440.867 85.6424C440.017 84.236 438.796 82.7709 437.135 81.5206C435.485 80.29 433.404 79.2449 431.002 78.8249C428.618 78.4244 425.932 78.5026 423.373 79.4695C422.084 79.9188 420.844 80.5928 419.701 81.4523C418.548 82.2923 417.503 83.3276 416.634 84.529C414.846 86.9024 413.85 89.9498 413.821 93.0949C413.85 96.24 414.856 99.2874 416.634 101.661C417.493 102.862 418.548 103.907 419.701 104.747C420.844 105.597 422.084 106.281 423.373 106.73C425.932 107.707 428.618 107.785 431.002 107.375C433.404 106.955 435.485 105.91 437.135 104.679C438.796 103.438 440.017 101.964 440.867 100.557C441.707 99.1408 442.244 97.8125 442.517 96.6795C443.093 94.4232 442.996 93.0949 443.074 93.1047C443.074 93.1047 443.084 93.1828 443.084 93.3391C443.084 93.5247 443.084 93.7591 443.074 94.0423C443.074 94.3549 443.054 94.7358 442.986 95.1851C442.927 95.6344 442.869 96.1521 442.713 96.7283C442.468 97.8809 441.951 99.2483 441.12 100.704C440.28 102.149 439.05 103.673 437.37 104.962C435.69 106.242 433.561 107.336 431.099 107.795C428.648 108.234 425.883 108.166 423.237 107.17C421.908 106.71 420.619 106.017 419.437 105.138C418.245 104.278 417.161 103.204 416.263 101.964C414.417 99.512 413.362 96.3474 413.342 93.0949C413.372 89.8424 414.417 86.6875 416.263 84.236C417.161 82.9955 418.245 81.9211 419.437 81.0616C420.619 80.1825 421.908 79.4891 423.237 79.03C425.883 78.0337 428.648 77.9751 431.099 78.4049C433.561 78.8542 435.69 79.9481 437.37 81.2374C439.05 82.5267 440.28 84.0504 441.12 85.4959C441.96 86.9513 442.478 88.3187 442.713 89.4712C442.869 90.0377 442.927 90.5652 442.986 91.0145C443.064 91.4638 443.074 91.8447 443.074 92.1572C443.074 92.4405 443.074 92.6749 443.084 92.8605C443.084 93.0167 443.084 93.0949 443.074 93.0949Z" fill="#455A64"/>
<path d="M413.997 89.5494C413.919 89.5884 413.606 88.9536 412.796 88.221C412.004 87.4885 410.627 86.6875 408.977 86.6387C407.326 86.5996 405.91 87.3322 405.079 88.0159C404.23 88.7094 403.888 89.3247 403.81 89.2759C403.761 89.2563 404.005 88.5531 404.835 87.7424C405.646 86.9415 407.16 86.082 408.977 86.121C410.793 86.1796 412.258 87.1075 413.03 87.9573C413.821 88.8168 414.026 89.5298 413.977 89.5396L413.997 89.5494Z" fill="#455A64"/>
<path d="M458.682 103.761C458.633 103.819 457.774 103.233 456.387 102.266C455 101.299 453.085 99.9809 450.946 98.5451C448.807 97.119 446.844 95.8591 445.428 94.9507C444.012 94.0423 443.133 93.4661 443.172 93.4075C443.201 93.3489 444.148 93.8079 445.613 94.6479C447.088 95.4781 449.081 96.699 451.23 98.1251C453.378 99.5609 455.264 100.938 456.592 101.973C457.93 103.009 458.711 103.702 458.672 103.751L458.682 103.761Z" fill="#455A64"/>
<path d="M429.586 105.597C429.586 105.597 429.234 105.685 428.589 105.714C427.945 105.734 427.007 105.685 425.874 105.45C423.627 105.001 420.531 103.585 418.324 100.743C416.126 97.9004 415.521 94.5404 415.638 92.2549C415.687 91.1023 415.872 90.1744 416.058 89.5591C416.243 88.9437 416.39 88.6117 416.409 88.6214C416.507 88.641 416.009 89.9986 415.999 92.2549C415.97 94.4818 416.615 97.6952 418.724 100.42C420.844 103.136 423.794 104.562 425.952 105.089C428.15 105.646 429.576 105.49 429.576 105.597H429.586Z" fill="white"/>
<path d="M381.052 101.68C381.052 101.68 380.788 101.583 380.368 101.299C379.948 101.016 379.382 100.547 378.776 99.8734C377.555 98.5548 376.217 96.2595 375.973 93.4563C375.739 90.6433 376.657 88.1624 377.633 86.6485C378.122 85.8769 378.6 85.3202 378.962 84.9685C379.323 84.6169 379.548 84.4509 379.567 84.4704C379.636 84.5388 378.806 85.2909 377.936 86.8341C377.067 88.348 376.247 90.741 376.471 93.4173C376.706 96.0935 377.927 98.3107 379.04 99.6488C380.163 101.016 381.101 101.622 381.042 101.7L381.052 101.68Z" fill="white"/>
<path d="M503.524 189.586C503.524 189.586 516.68 193.923 521.974 208.388C527.268 222.863 536.527 312.654 536.527 312.654C536.537 307.927 548.834 322.9 546.929 371.746H495.436L474.71 301.568L503.514 189.576L503.524 189.586Z" fill="#AD2446"/>
<path d="M387.517 177.816C385.134 177.514 361.478 185.718 357.073 193.083C352.668 200.447 330.271 275.734 330.271 275.734L279.804 283.889C279.804 283.889 261.93 283.352 263.316 301.568C264.703 319.784 267.399 333.878 275.203 339.856C283.017 345.833 291.065 348.353 295.656 346.048C299.885 343.919 299.28 338.332 299.28 338.332C299.28 338.332 342.012 347.621 351.085 339.866C360.149 332.11 387.517 177.826 387.517 177.826V177.816Z" fill="#AD2446"/>
<path d="M460.264 164.777L460.577 176.527C460.577 176.527 500.398 187.672 503.543 189.567C506.678 191.461 483.462 318.475 483.462 318.475C483.462 318.475 513.584 354.331 515.469 367.195L516.133 371.756H345.137L351.349 323.798L348.39 272.921L371.382 183.335L399.141 173.48L398.838 166.692C398.76 165.041 400.059 163.644 401.709 163.595L457.217 161.906C458.858 161.857 460.225 163.146 460.274 164.787L460.264 164.777Z" fill="#AD2446"/>
<path d="M350.499 309.372C350.499 309.372 350.499 309.274 350.499 309.089C350.48 308.874 350.46 308.601 350.441 308.268C350.372 307.507 350.275 306.452 350.158 305.114C350.031 303.746 349.845 302.066 349.728 300.113C349.611 298.159 349.376 295.942 349.288 293.491C349.191 291.029 349.015 288.343 349.005 285.452C348.985 284.007 348.937 282.512 348.946 280.969C348.966 279.426 348.995 277.843 349.025 276.222C349.21 269.727 349.669 262.577 350.675 255.144C351.711 247.711 353.166 240.698 354.777 234.398C355.197 232.826 355.617 231.302 356.018 229.808C356.428 228.323 356.907 226.907 357.317 225.52C358.128 222.746 359.065 220.216 359.866 217.892C360.257 216.729 360.657 215.626 361.068 214.6C361.468 213.565 361.839 212.588 362.191 211.68C362.875 209.843 363.539 208.3 364.076 207.03C364.594 205.79 364.994 204.804 365.287 204.1C365.414 203.788 365.512 203.534 365.59 203.329C365.658 203.153 365.688 203.065 365.678 203.055C365.678 203.055 365.619 203.133 365.541 203.299C365.453 203.495 365.336 203.739 365.189 204.042C364.877 204.735 364.437 205.702 363.89 206.933C363.334 208.193 362.63 209.726 361.927 211.553C361.566 212.461 361.175 213.438 360.765 214.463C360.345 215.489 359.925 216.583 359.524 217.755C358.704 220.08 357.747 222.609 356.916 225.383C356.487 226.77 355.998 228.186 355.588 229.671C355.178 231.156 354.758 232.689 354.318 234.262C352.687 240.571 351.203 247.604 350.167 255.056C349.161 262.518 348.712 269.678 348.556 276.193C348.536 277.824 348.517 279.406 348.507 280.959C348.507 282.502 348.565 283.997 348.585 285.452C348.614 288.353 348.81 291.049 348.927 293.51C349.034 295.971 349.298 298.189 349.435 300.142C349.581 302.096 349.796 303.766 349.952 305.133C350.118 306.471 350.245 307.526 350.333 308.278C350.382 308.61 350.421 308.884 350.451 309.099C350.48 309.284 350.499 309.372 350.509 309.372H350.499Z" fill="#263238"/>
<path d="M479.584 227.532C479.584 227.532 479.574 227.659 479.525 227.903C479.477 228.177 479.398 228.528 479.311 228.987C479.096 229.935 478.851 231.351 478.549 233.168C477.972 236.811 477.445 242.144 477.543 248.737C477.631 255.33 478.441 263.173 480.024 271.749C481.596 280.334 483.95 289.642 486.392 299.429C488.843 309.206 490.953 318.602 492.233 327.256C493.561 335.9 494.235 343.753 494.635 350.356C495.036 356.958 495.202 362.301 495.329 365.993C495.378 367.82 495.417 369.246 495.446 370.242C495.446 370.711 495.456 371.072 495.466 371.346C495.466 371.6 495.466 371.727 495.456 371.727C495.446 371.727 495.436 371.6 495.417 371.355C495.397 371.082 495.378 370.721 495.348 370.252C495.3 369.255 495.231 367.829 495.134 366.003C494.948 362.311 494.723 356.968 494.284 350.385C493.834 343.802 493.131 335.959 491.774 327.334C490.465 318.7 488.355 309.333 485.903 299.556C483.471 289.779 481.127 280.451 479.574 271.836C478.011 263.231 477.23 255.359 477.191 248.737C477.132 242.115 477.728 236.772 478.363 233.129C479.008 229.485 479.594 227.522 479.594 227.522L479.584 227.532Z" fill="#263238"/>
<path d="M460.821 177.045C460.821 177.045 460.616 177.152 460.225 177.318C459.776 177.494 459.19 177.719 458.467 178.002C456.914 178.52 454.668 179.282 451.806 179.936C448.954 180.6 445.506 181.206 441.648 181.606C437.79 182.016 433.531 182.192 429.058 182.202C424.585 182.182 420.336 182.065 416.468 181.762C412.6 181.45 409.123 180.688 406.437 179.448C403.741 178.246 401.856 176.683 400.762 175.463C400.205 174.857 399.834 174.339 399.59 173.978C399.356 173.617 399.248 173.421 399.258 173.411C399.307 173.372 399.766 174.173 400.909 175.336C402.042 176.498 403.917 177.982 406.593 179.125C409.25 180.297 412.678 181.01 416.517 181.294C420.355 181.567 424.614 181.665 429.068 181.684C433.522 181.684 437.77 181.518 441.609 181.137C445.447 180.766 448.886 180.2 451.738 179.584C454.599 178.989 456.856 178.276 458.418 177.816C459.151 177.572 459.747 177.377 460.206 177.23C460.616 177.103 460.831 177.045 460.841 177.055L460.821 177.045Z" fill="#263238"/>
<path d="M445.819 292.416C445.819 292.416 445.623 292.465 445.233 292.494C444.793 292.524 444.236 292.572 443.553 292.621C443.181 292.651 442.771 292.67 442.332 292.699C441.882 292.709 441.404 292.699 440.876 292.69C439.831 292.66 438.64 292.69 437.341 292.524C436.686 292.455 436.002 292.387 435.289 292.318C434.576 292.24 433.844 292.074 433.082 291.947C431.549 291.723 429.956 291.273 428.277 290.844C424.946 289.847 421.371 288.451 417.845 286.526C414.339 284.563 411.252 282.278 408.634 279.992C407.374 278.801 406.144 277.687 405.138 276.515C404.63 275.939 404.093 275.411 403.653 274.845C403.214 274.278 402.794 273.741 402.383 273.214C401.543 272.198 400.938 271.172 400.362 270.303C400.078 269.863 399.805 269.463 399.58 269.082C399.375 268.691 399.18 268.34 399.004 268.008C398.682 267.402 398.418 266.904 398.213 266.513C398.037 266.171 397.959 265.986 397.969 265.976C397.988 265.976 398.096 266.132 398.301 266.464C398.525 266.845 398.818 267.324 399.17 267.91C399.356 268.232 399.561 268.584 399.785 268.955C400.02 269.326 400.313 269.717 400.606 270.147C401.211 270.987 401.827 272.002 402.676 272.989C403.087 273.497 403.516 274.034 403.956 274.581C404.405 275.128 404.942 275.646 405.45 276.222C406.456 277.374 407.687 278.459 408.947 279.641C411.555 281.887 414.622 284.133 418.099 286.077C421.596 287.982 425.131 289.379 428.423 290.385C430.083 290.824 431.656 291.293 433.18 291.527C433.932 291.664 434.655 291.83 435.358 291.918C436.061 291.996 436.745 292.074 437.389 292.152C438.679 292.348 439.86 292.338 440.896 292.397C441.413 292.416 441.892 292.455 442.341 292.455C442.781 292.445 443.181 292.426 443.553 292.416C444.236 292.406 444.793 292.387 445.233 292.377C445.613 292.377 445.819 292.377 445.828 292.397L445.819 292.416Z" fill="#263238"/>
<path d="M340.293 302.389C340.205 302.389 340.058 300.767 339.58 298.189C339.101 295.61 338.212 292.084 336.718 288.372C335.214 284.661 333.407 281.506 331.961 279.318C330.516 277.13 329.49 275.861 329.558 275.802C329.588 275.782 329.861 276.075 330.35 276.642C330.838 277.199 331.492 278.039 332.254 279.123C333.788 281.272 335.663 284.436 337.187 288.187C338.691 291.938 339.541 295.512 339.931 298.13C340.127 299.439 340.244 300.503 340.273 301.236C340.312 301.969 340.322 302.379 340.283 302.389H340.293Z" fill="#263238"/>
<path d="M511.504 199.783C511.484 199.91 509.531 199.383 506.327 199.431C505.926 199.441 505.506 199.461 505.077 199.48C504.637 199.5 504.188 199.578 503.729 199.637C502.791 199.715 501.814 199.959 500.779 200.174C498.738 200.711 496.54 201.512 494.391 202.664C492.262 203.856 490.396 205.263 488.843 206.689C488.101 207.441 487.369 208.134 486.792 208.876C486.499 209.238 486.187 209.58 485.933 209.931C485.689 210.293 485.444 210.635 485.22 210.967C483.442 213.633 482.827 215.567 482.71 215.518C482.68 215.508 482.837 215.04 483.159 214.19C483.315 213.76 483.52 213.242 483.833 212.686C484.136 212.119 484.438 211.445 484.907 210.781C485.132 210.439 485.366 210.088 485.61 209.716C485.855 209.345 486.167 209.003 486.46 208.623C487.027 207.851 487.769 207.138 488.511 206.366C490.074 204.891 491.969 203.436 494.137 202.235C496.325 201.063 498.572 200.262 500.662 199.734C501.717 199.529 502.713 199.295 503.67 199.236C504.149 199.197 504.608 199.119 505.047 199.109C505.487 199.109 505.917 199.109 506.327 199.099C507.138 199.06 507.87 199.178 508.515 199.226C509.159 199.265 509.706 199.373 510.146 199.471C511.035 199.656 511.513 199.773 511.513 199.812L511.504 199.783Z" fill="#263238"/>
<path d="M345.137 371.746C345.137 371.746 345.137 371.521 345.167 371.101C345.215 370.633 345.274 370.027 345.352 369.275C345.547 367.624 345.811 365.348 346.133 362.565C346.846 356.851 347.823 349.066 348.898 340.461C349.523 335.685 350.109 331.163 350.626 327.158V327.197C350.539 321.884 350.47 317.372 350.421 314.129C350.421 312.586 350.412 311.335 350.402 310.417C350.402 310.027 350.412 309.704 350.412 309.431C350.412 309.206 350.431 309.089 350.441 309.089C350.451 309.089 350.47 309.206 350.49 309.421C350.509 309.685 350.529 310.007 350.548 310.398C350.587 311.316 350.636 312.556 350.695 314.099C350.792 317.342 350.919 321.845 351.076 327.158V327.178V327.197C350.568 331.202 349.992 335.734 349.396 340.5C348.263 349.096 347.237 356.88 346.485 362.584C346.094 365.358 345.772 367.634 345.547 369.275C345.43 370.017 345.342 370.623 345.264 371.092C345.196 371.502 345.147 371.727 345.127 371.717L345.137 371.746Z" fill="#263238"/>
<path d="M282.177 297.808C282.177 297.808 282.285 297.925 282.451 298.179C282.646 298.482 282.881 298.853 283.164 299.292C283.779 300.259 284.619 301.695 285.625 303.482C287.637 307.057 290.206 312.117 292.628 317.899C295.031 323.681 296.818 329.073 297.942 333.019C298.508 334.992 298.928 336.594 299.182 337.717C299.299 338.225 299.397 338.654 299.475 339.006C299.534 339.299 299.563 339.455 299.543 339.465C299.524 339.465 299.465 339.319 299.377 339.035C299.27 338.694 299.143 338.274 298.997 337.775C298.684 336.672 298.205 335.089 297.6 333.136C296.389 329.229 294.562 323.877 292.159 318.114C289.757 312.351 287.237 307.292 285.313 303.678C284.355 301.871 283.554 300.415 282.998 299.419C282.744 298.96 282.539 298.579 282.373 298.257C282.236 297.993 282.167 297.847 282.187 297.837L282.177 297.808Z" fill="#263238"/>
<path d="M291.964 314.646C291.954 314.744 290.431 314.539 287.96 314.617C286.729 314.646 285.264 314.793 283.662 315.066C282.06 315.369 280.322 315.799 278.563 316.434C276.805 317.088 275.194 317.87 273.768 318.661C272.361 319.481 271.15 320.302 270.183 321.073C268.239 322.597 267.204 323.73 267.136 323.662C267.106 323.642 267.351 323.339 267.819 322.822C268.054 322.558 268.337 322.245 268.708 321.913C269.07 321.581 269.47 321.171 269.958 320.79C270.906 319.979 272.117 319.11 273.533 318.251C274.959 317.42 276.6 316.61 278.388 315.945C280.185 315.301 281.953 314.871 283.584 314.598C285.215 314.344 286.709 314.236 287.95 314.246C288.575 314.226 289.141 314.275 289.63 314.305C290.128 314.324 290.548 314.373 290.89 314.432C291.583 314.529 291.954 314.598 291.954 314.637L291.964 314.646Z" fill="white"/>
<path d="M280.019 296.128C279.98 296.216 278.974 295.669 277.225 295.268C275.487 294.868 272.937 294.702 270.32 295.512C267.702 296.323 265.69 297.905 264.489 299.224C263.268 300.543 262.75 301.558 262.662 301.509C262.633 301.49 262.731 301.226 262.975 300.777C263.219 300.328 263.619 299.693 264.215 298.98C265.378 297.563 267.438 295.874 270.164 295.024C272.889 294.184 275.545 294.409 277.303 294.917C278.192 295.17 278.886 295.454 279.335 295.698C279.794 295.932 280.028 296.098 280.009 296.128H280.019Z" fill="white"/>
<path d="M297.639 334.513C297.639 334.513 297.405 334.757 296.926 335.119C296.457 335.49 295.725 335.978 294.807 336.535C292.961 337.639 290.235 338.918 287.042 339.739C283.838 340.549 280.839 340.735 278.691 340.647C277.616 340.608 276.747 340.52 276.151 340.422C275.555 340.325 275.233 340.266 275.233 340.227C275.243 340.139 276.561 340.295 278.691 340.286C280.82 340.286 283.77 340.041 286.915 339.241C290.06 338.43 292.765 337.238 294.631 336.222C296.506 335.207 297.59 334.445 297.639 334.513Z" fill="white"/>
<path d="M410.061 180.551C410.061 180.551 409.875 180.385 409.611 180.024C409.348 179.672 409.006 179.115 408.644 178.402C407.922 176.986 407.189 174.867 406.994 172.425C406.798 169.983 407.179 167.776 407.668 166.262C407.912 165.5 408.146 164.904 408.361 164.513C408.566 164.113 408.683 163.908 408.722 163.918C408.801 163.957 408.41 164.845 408.019 166.359C407.628 167.864 407.326 170.022 407.511 172.386C407.707 174.749 408.351 176.83 408.986 178.256C409.611 179.682 410.148 180.502 410.07 180.551H410.061Z" fill="white"/>
<path d="M426.821 181.665C426.821 181.665 426.626 181.489 426.343 181.098C426.059 180.717 425.698 180.131 425.297 179.379C424.506 177.875 423.696 175.638 423.403 173.05C423.119 170.462 423.422 168.088 423.862 166.457C424.077 165.637 424.301 164.982 424.497 164.552C424.682 164.113 424.809 163.888 424.838 163.898C424.926 163.927 424.545 164.904 424.213 166.535C423.871 168.166 423.637 170.471 423.911 172.991C424.194 175.511 424.936 177.709 425.63 179.223C426.323 180.737 426.899 181.606 426.821 181.655V181.665Z" fill="white"/>
<path d="M445.623 180.415C445.457 180.385 446.541 176.732 446.297 172.122C446.111 167.512 444.695 163.976 444.851 163.927C444.91 163.908 445.33 164.758 445.789 166.213C446.248 167.668 446.697 169.758 446.805 172.103C446.912 174.447 446.658 176.566 446.336 178.061C446.014 179.555 445.672 180.444 445.613 180.424L445.623 180.415Z" fill="white"/>
<path d="M309.477 314.959C309.477 314.959 309.281 314.51 309.018 313.67C308.725 312.742 308.353 311.54 307.904 310.114C306.966 307.116 305.609 302.994 303.968 298.491C302.317 293.989 300.676 289.974 299.455 287.083C298.869 285.706 298.381 284.553 298 283.655C297.658 282.844 297.482 282.385 297.521 282.375C297.551 282.356 297.785 282.786 298.186 283.577C298.586 284.358 299.133 285.511 299.787 286.946C301.096 289.808 302.796 293.813 304.447 298.325C306.097 302.838 307.396 306.989 308.256 310.017C308.686 311.531 309.008 312.761 309.213 313.621C309.418 314.48 309.516 314.949 309.486 314.959H309.477Z" fill="white"/>
<path d="M314.605 326.201C314.478 326.25 313.863 325.068 313.238 323.554C312.612 322.04 312.212 320.761 312.339 320.712C312.466 320.663 313.081 321.845 313.706 323.359C314.331 324.873 314.732 326.152 314.605 326.201Z" fill="white"/>
<path d="M341.103 333.312C341.103 333.312 341.025 333.116 340.918 332.745C340.801 332.315 340.664 331.769 340.478 331.104C340.117 329.678 339.57 327.617 338.857 325.078C337.431 320.009 335.243 313.054 332.313 305.573C329.373 298.091 326.247 291.508 323.835 286.819C322.634 284.475 321.637 282.59 320.924 281.301C320.602 280.686 320.338 280.197 320.123 279.797C319.948 279.455 319.86 279.269 319.879 279.26C319.899 279.26 320.006 279.416 320.221 279.748C320.455 280.129 320.739 280.607 321.1 281.203C321.862 282.463 322.907 284.329 324.157 286.653C326.658 291.303 329.842 297.886 332.792 305.387C335.731 312.888 337.871 319.882 339.209 324.98C339.883 327.53 340.381 329.61 340.674 331.055C340.81 331.739 340.928 332.286 341.016 332.716C341.084 333.097 341.123 333.302 341.103 333.302V333.312Z" fill="white"/>
<path d="M346.583 266.748C346.495 266.855 344.18 265.214 341.406 263.085C338.632 260.946 336.454 259.129 336.542 259.012C336.63 258.905 338.945 260.545 341.719 262.675C344.493 264.814 346.671 266.63 346.583 266.748Z" fill="white"/>
<path d="M349.845 243.755C349.787 243.882 348.8 243.55 347.638 243.013C346.476 242.476 345.587 241.939 345.645 241.812C345.704 241.685 346.69 242.017 347.853 242.554C349.015 243.091 349.904 243.628 349.845 243.755Z" fill="white"/>
<path d="M357.581 223.146C357.542 223.283 355.422 222.795 352.834 222.053C350.255 221.31 348.194 220.607 348.233 220.47C348.273 220.333 350.392 220.822 352.98 221.564C355.559 222.306 357.62 223.01 357.581 223.146Z" fill="white"/>
<path d="M389.286 199.236C389.286 199.373 381.677 199.236 372.31 198.904C362.933 198.582 355.344 198.211 355.344 198.064C355.344 197.927 362.953 198.064 372.32 198.396C381.687 198.718 389.286 199.09 389.276 199.236H389.286Z" fill="white"/>
<path d="M405.45 199.461C405.45 199.598 404.132 199.646 402.53 199.549C400.918 199.461 399.629 199.275 399.639 199.129C399.639 198.992 400.957 198.943 402.559 199.041C404.161 199.129 405.46 199.314 405.45 199.461Z" fill="white"/>
<path d="M464.943 199.256C464.943 199.392 455.459 199.363 443.767 199.187C432.066 199.011 422.592 198.758 422.592 198.611C422.592 198.474 432.076 198.504 443.777 198.679C455.469 198.855 464.953 199.109 464.953 199.256H464.943Z" fill="white"/>
<path d="M488.541 196.228C488.541 196.365 487.017 196.482 485.142 196.482C483.266 196.482 481.743 196.365 481.743 196.228C481.743 196.091 483.266 195.974 485.142 195.974C487.017 195.974 488.541 196.091 488.541 196.228Z" fill="white"/>
<path d="M507.938 193.649C507.948 193.786 506.297 194.05 504.246 194.226C502.195 194.401 500.515 194.431 500.505 194.294C500.496 194.157 502.146 193.893 504.197 193.718C506.249 193.542 507.929 193.512 507.938 193.649Z" fill="white"/>
<path d="M468.039 179.946C468.039 179.946 467.766 180.053 467.238 180.219C466.662 180.385 465.89 180.62 464.914 180.903C463.908 181.206 462.667 181.547 461.212 181.889C459.756 182.231 458.116 182.671 456.27 183.022C455.351 183.208 454.384 183.403 453.378 183.608C452.372 183.804 451.318 183.95 450.224 184.136C448.045 184.527 445.701 184.78 443.23 185.083C438.288 185.591 432.818 185.923 427.085 185.894C421.342 185.826 415.882 185.406 410.949 184.81C408.488 184.468 406.144 184.165 403.975 183.735C402.891 183.53 401.836 183.364 400.83 183.149C399.824 182.934 398.867 182.72 397.949 182.514C396.103 182.143 394.472 181.674 393.026 181.303C391.581 180.942 390.35 180.571 389.344 180.258C388.377 179.955 387.605 179.711 387.039 179.535C386.512 179.36 386.238 179.262 386.248 179.252C386.248 179.233 386.541 179.301 387.068 179.438C387.645 179.594 388.426 179.809 389.403 180.073C390.409 180.366 391.649 180.698 393.104 181.04C394.55 181.381 396.191 181.831 398.037 182.173C398.955 182.368 399.922 182.563 400.918 182.768C401.924 182.974 402.979 183.13 404.063 183.315C406.232 183.726 408.566 184.009 411.027 184.341C415.95 184.907 421.391 185.318 427.114 185.386C432.838 185.415 438.278 185.103 443.211 184.624C445.672 184.331 448.016 184.087 450.185 183.726C451.269 183.55 452.333 183.413 453.339 183.227C454.345 183.042 455.312 182.856 456.23 182.68C458.076 182.358 459.727 181.948 461.182 181.626C462.638 181.313 463.888 181.001 464.894 180.727C465.881 180.483 466.662 180.278 467.238 180.131C467.775 180.004 468.059 179.936 468.068 179.955L468.039 179.946Z" fill="white"/>
<path d="M477.543 237.778C477.543 237.778 477.435 237.797 477.23 237.797C476.996 237.797 476.693 237.807 476.312 237.817C475.472 237.817 474.28 237.827 472.776 237.836C469.709 237.836 465.255 237.817 459.766 237.729C448.788 237.573 433.609 237.192 416.868 236.391C400.137 235.551 384.929 234.857 374.107 232.738C368.696 231.751 364.408 230.491 361.497 229.515C360.042 229.026 358.929 228.606 358.176 228.294C357.825 228.147 357.542 228.03 357.327 227.942C357.131 227.864 357.043 227.815 357.043 227.805C357.043 227.805 357.151 227.825 357.346 227.893C357.571 227.971 357.854 228.069 358.216 228.196C358.977 228.479 360.101 228.87 361.566 229.329C364.486 230.247 368.774 231.449 374.175 232.386C384.968 234.408 400.166 235.043 416.897 235.883C433.629 236.684 448.797 237.114 459.776 237.368C465.236 237.475 469.67 237.573 472.776 237.631C474.28 237.661 475.472 237.69 476.312 237.709C476.693 237.719 476.996 237.729 477.23 237.739C477.435 237.749 477.543 237.758 477.543 237.768V237.778Z" fill="white"/>
<path d="M384.128 270.772C384.128 270.772 383.66 270.869 382.8 270.957C381.941 271.045 380.7 271.133 379.167 271.192C376.1 271.319 371.841 271.289 367.163 270.84C362.484 270.391 358.304 269.609 355.305 268.896C353.811 268.545 352.609 268.222 351.789 267.968C350.969 267.724 350.519 267.568 350.529 267.539C350.529 267.509 351.008 267.597 351.848 267.783C352.688 267.978 353.899 268.242 355.393 268.545C358.392 269.16 362.562 269.883 367.221 270.332C371.871 270.772 376.11 270.869 379.167 270.83C380.7 270.811 381.941 270.781 382.8 270.752C383.66 270.723 384.138 270.733 384.138 270.762L384.128 270.772Z" fill="white"/>
<path d="M397.373 270.596C397.373 270.733 396.23 270.918 394.804 271.016C393.378 271.104 392.206 271.065 392.206 270.928C392.206 270.791 393.349 270.606 394.775 270.508C396.201 270.42 397.373 270.459 397.373 270.596Z" fill="white"/>
<path d="M456.211 275.46C456.211 275.46 456.025 275.499 455.664 275.509C455.254 275.519 454.736 275.538 454.111 275.558C452.763 275.587 450.8 275.607 448.387 275.597C443.552 275.587 436.872 275.45 429.497 275.089C422.123 274.727 415.462 274.2 410.646 273.741C408.244 273.507 406.29 273.301 404.952 273.145C404.327 273.067 403.819 272.999 403.409 272.95C403.057 272.901 402.872 272.862 402.872 272.842C402.872 272.823 403.057 272.823 403.419 272.842C403.829 272.872 404.346 272.901 404.972 272.95C406.388 273.057 408.322 273.204 410.676 273.389C415.491 273.761 422.152 274.22 429.517 274.581C436.881 274.942 443.552 275.128 448.387 275.235C450.751 275.284 452.685 275.323 454.111 275.362C454.736 275.382 455.254 275.401 455.664 275.411C456.015 275.431 456.211 275.45 456.211 275.46Z" fill="white"/>
<path d="M479.106 273.497C479.125 273.634 477.123 274.014 474.632 274.327C472.142 274.649 470.12 274.796 470.1 274.659C470.081 274.522 472.083 274.141 474.574 273.829C477.064 273.507 479.086 273.36 479.106 273.497Z" fill="white"/>
<path d="M488.462 310.544C488.462 310.544 488.345 310.573 488.111 310.603C487.857 310.632 487.515 310.671 487.085 310.72C486.148 310.818 484.819 310.945 483.12 311.12C481.401 311.296 479.291 311.492 476.839 311.677C474.388 311.863 471.594 312.107 468.508 312.283C462.335 312.703 454.961 313.054 446.785 313.279C438.6 313.474 429.595 313.533 420.15 313.347C410.705 313.133 401.709 312.693 393.534 312.156C385.369 311.58 378.024 310.925 371.87 310.241C368.793 309.939 366.01 309.567 363.568 309.284C361.126 309.001 359.026 308.708 357.317 308.464C355.627 308.22 354.299 308.034 353.371 307.897C352.941 307.829 352.599 307.78 352.345 307.741C352.111 307.702 351.994 307.682 352.003 307.673C352.003 307.673 352.121 307.673 352.355 307.692C352.609 307.721 352.951 307.76 353.39 307.8C354.328 307.907 355.656 308.073 357.346 308.268C359.065 308.483 361.165 308.737 363.607 309.001C366.049 309.265 368.833 309.607 371.909 309.89C378.063 310.525 385.408 311.14 393.573 311.687C401.739 312.205 410.724 312.634 420.169 312.839C429.605 313.025 438.6 312.976 446.776 312.81C454.951 312.605 462.315 312.293 468.488 311.921C471.575 311.765 474.368 311.55 476.82 311.384C479.271 311.228 481.381 311.062 483.11 310.915C484.809 310.788 486.148 310.681 487.085 310.613C487.515 310.583 487.857 310.564 488.12 310.544C488.355 310.534 488.472 310.534 488.472 310.544H488.462Z" fill="white"/>
<path d="M421.928 354.263C421.928 354.263 421.674 354.302 421.185 354.331C420.648 354.351 419.935 354.39 419.046 354.429C417.19 354.507 414.495 354.565 411.164 354.585C404.512 354.624 395.302 354.39 385.183 353.55C375.054 352.71 365.941 351.42 359.378 350.287C356.096 349.721 353.449 349.223 351.632 348.842C350.763 348.656 350.06 348.51 349.532 348.392C349.054 348.285 348.81 348.217 348.81 348.207C348.81 348.187 349.073 348.217 349.552 348.295C350.079 348.383 350.783 348.5 351.662 348.646C353.488 348.969 356.145 349.418 359.427 349.936C365.99 350.981 375.103 352.202 385.212 353.042C395.321 353.872 404.503 354.165 411.154 354.224C414.475 354.253 417.171 354.253 419.027 354.224C419.915 354.224 420.629 354.224 421.166 354.224C421.654 354.224 421.918 354.243 421.918 354.253L421.928 354.263Z" fill="white"/>
<path d="M446.835 353.296C446.835 353.432 443.582 353.608 439.568 353.677C435.553 353.745 432.291 353.696 432.291 353.55C432.291 353.413 435.544 353.237 439.558 353.169C443.572 353.1 446.835 353.149 446.835 353.296Z" fill="white"/>
<path d="M493.717 350.932C493.717 350.932 493.278 351 492.477 351.039C491.569 351.069 490.436 351.118 489.078 351.166C486.109 351.264 482.202 351.391 477.875 351.528C473.558 351.704 469.651 351.86 466.681 351.977C465.324 352.026 464.191 352.065 463.282 352.104C462.482 352.124 462.032 352.124 462.032 352.084C462.032 352.045 462.472 351.987 463.273 351.909C464.074 351.831 465.226 351.733 466.662 351.625C469.524 351.411 473.479 351.186 477.865 351.02C482.241 350.864 486.206 350.805 489.078 350.805C490.514 350.805 491.676 350.815 492.477 350.844C493.278 350.864 493.727 350.893 493.727 350.932H493.717Z" fill="white"/>
<path d="M506.649 249.176C506.649 249.176 506.229 249.245 505.477 249.274C504.617 249.313 503.553 249.352 502.303 249.401C499.617 249.518 495.925 249.782 491.861 250.3C487.798 250.827 484.155 251.52 481.537 252.087C480.307 252.36 479.271 252.585 478.431 252.771C477.699 252.937 477.289 253.005 477.279 252.976C477.279 252.947 477.66 252.8 478.383 252.585C479.105 252.36 480.15 252.067 481.459 251.745C484.067 251.091 487.72 250.339 491.803 249.811C495.885 249.284 499.607 249.088 502.303 249.059C503.651 249.04 504.735 249.059 505.487 249.088C506.239 249.118 506.659 249.157 506.659 249.186L506.649 249.176Z" fill="white"/>
<path d="M522.492 246.021C522.492 246.168 520.304 246.256 517.638 246.617C514.971 246.969 512.832 247.457 512.793 247.311C512.754 247.184 514.864 246.471 517.569 246.109C520.275 245.748 522.492 245.885 522.492 246.012V246.021Z" fill="white"/>
<path d="M527.952 244.634C528.001 244.771 527.6 245.025 527.063 245.201C526.526 245.377 526.057 245.416 526.008 245.289C525.959 245.152 526.36 244.898 526.897 244.722C527.434 244.547 527.903 244.508 527.942 244.634H527.952Z" fill="white"/>
<path d="M522.492 215.157C522.492 215.157 521.935 215.225 520.919 215.264C519.903 215.294 518.438 215.352 516.631 215.44C513.017 215.616 508.026 216.007 502.566 216.817C497.107 217.628 492.213 218.693 488.697 219.572C486.939 220.011 485.523 220.382 484.546 220.646C483.569 220.91 483.022 221.037 483.012 220.998C483.003 220.968 483.53 220.773 484.497 220.451C485.454 220.128 486.87 219.699 488.619 219.22C492.115 218.253 497.019 217.13 502.508 216.309C507.997 215.499 513.008 215.167 516.641 215.079C518.458 215.03 519.923 215.03 520.939 215.069C521.955 215.098 522.511 215.128 522.511 215.167L522.492 215.157Z" fill="white"/>
<path d="M532.845 281.369C532.845 281.369 532.679 281.418 532.366 281.467C531.985 281.516 531.526 281.565 530.979 281.633C529.69 281.78 527.961 281.965 525.861 282.2C521.544 282.678 515.576 283.401 509.013 284.368C502.449 285.335 496.53 286.36 492.252 287.142C490.172 287.523 488.462 287.835 487.183 288.07C486.636 288.167 486.177 288.245 485.806 288.304C485.493 288.353 485.317 288.372 485.317 288.353C485.317 288.333 485.474 288.285 485.786 288.206C486.157 288.119 486.607 288.011 487.144 287.874C488.326 287.591 490.045 287.22 492.184 286.79C496.452 285.921 502.361 284.837 508.944 283.87C515.518 282.903 521.495 282.239 525.832 281.848C528 281.653 529.759 281.516 530.97 281.438C531.526 281.408 531.995 281.379 532.366 281.36C532.689 281.35 532.855 281.36 532.855 281.36L532.845 281.369Z" fill="white"/>
<path d="M510.507 319.598C510.527 319.735 506.346 320.38 501.17 321.034C495.993 321.689 491.783 322.109 491.764 321.972C491.744 321.835 495.925 321.191 501.101 320.536C506.278 319.882 510.488 319.462 510.497 319.598H510.507Z" fill="white"/>
<path d="M524.758 317.811C524.777 317.948 522.99 318.348 520.753 318.71C518.517 319.071 516.69 319.247 516.671 319.11C516.651 318.973 518.438 318.573 520.675 318.212C522.902 317.85 524.738 317.674 524.758 317.811Z" fill="white"/>
<path d="M538.334 317.792C538.334 317.928 536.889 318.046 535.101 318.046C533.314 318.046 531.868 317.928 531.868 317.792C531.868 317.655 533.314 317.538 535.101 317.538C536.889 317.538 538.334 317.655 538.334 317.792Z" fill="white"/>
<path d="M546.08 354.673C546.08 354.673 545.904 354.712 545.572 354.751C545.181 354.78 544.703 354.819 544.117 354.868C542.769 354.956 540.962 355.064 538.745 355.2C534.144 355.484 527.913 355.874 521.037 356.304C514.16 356.792 507.929 357.232 503.338 357.554C501.131 357.71 499.314 357.837 497.976 357.935C497.39 357.964 496.911 357.994 496.511 358.013C496.179 358.023 496.003 358.023 496.003 358.013C496.003 357.994 496.179 357.964 496.511 357.916C496.902 357.867 497.38 357.808 497.966 357.74C499.226 357.593 501.062 357.408 503.319 357.203C507.841 356.783 514.102 356.265 521.017 355.806C527.932 355.347 534.203 355.024 538.745 354.849C541.011 354.761 542.857 354.702 544.126 354.673C544.712 354.673 545.201 354.663 545.592 354.653C545.924 354.653 546.099 354.663 546.099 354.683L546.08 354.673Z" fill="white"/>
<path d="M207.584 301.783C207.584 301.783 218.807 298.169 232.803 298.892C246.8 299.615 263.111 297.837 263.111 297.837C272.029 306.383 274.949 317.108 275.066 328.858L216.16 322.48L207.584 301.783Z" fill="#FFBE9D"/>
<path d="M203.609 329.883C201.919 329.239 200.171 330.616 198.96 331.964C197.739 333.331 196.508 334.835 194.779 335.451L190.853 331.153L186.624 341.819C188.255 343.421 190.12 344.788 192.142 345.853C193.578 346.615 195.248 347.23 196.801 346.752C198.53 346.224 199.595 344.525 200.493 342.962C201.626 340.999 202.749 339.045 203.882 337.082C204.566 335.89 205.269 334.65 205.396 333.282C205.523 331.915 204.898 330.372 203.609 329.883Z" fill="#FFBE9D"/>
<path d="M208.014 301.588C208.014 301.588 194.232 310.661 191.761 312.019C189.29 313.377 178.194 336.887 178.194 336.887L180.236 365.505C180.236 365.505 185.51 365.202 186.985 359.302C188.46 353.403 189.085 340.364 189.085 340.364L199.194 327.51L220.028 321.278L208.014 301.578V301.588Z" fill="#FFBE9D"/>
<path d="M198.246 320.282C198.198 324.502 203.316 326.777 201.792 331.485C202.105 338.313 201.997 342.581 201.392 348.148C201.304 348.939 202.73 350.678 203.384 351.137C204.302 351.782 205.582 351.225 206.441 350.512C208.805 348.559 210.026 345.531 210.67 342.532C211.315 339.534 211.491 336.437 212.233 333.458C213.171 329.678 215.007 326.191 216.16 322.47C217.312 318.749 217.722 314.539 215.876 311.111" fill="#FFBE9D"/>
<path d="M197.602 320.663C197.602 320.663 197.944 320.79 198.452 321.21C198.96 321.63 199.604 322.353 200.171 323.388C201.343 325.449 202.027 328.682 202.222 332.208C202.437 335.744 202.33 338.947 202.222 341.262C202.163 342.415 202.105 343.352 202.046 343.997C201.988 344.642 201.949 344.993 201.91 344.993C201.87 344.993 201.851 344.632 201.851 343.987C201.851 343.226 201.851 342.317 201.861 341.253C201.88 338.947 201.929 335.754 201.714 332.237C201.519 328.731 200.904 325.586 199.849 323.554C198.843 321.484 197.524 320.731 197.592 320.663H197.602Z" fill="#EB996E"/>
<path d="M216.863 310.281C216.922 310.261 217.176 310.935 217.41 312.068C217.645 313.201 217.821 314.803 217.743 316.571C217.664 318.339 217.342 319.921 217 321.025C216.668 322.138 216.356 322.783 216.297 322.753C216.141 322.705 217.098 320.009 217.235 316.541C217.41 313.074 216.707 310.3 216.863 310.271V310.281Z" fill="#EB996E"/>
<path d="M199.038 327.49C199.038 327.49 198.804 327.871 198.315 328.487C197.749 329.18 197.036 330.05 196.186 331.085C195.248 332.198 194.174 333.478 192.982 334.894C192.377 335.607 191.742 336.359 191.078 337.131C190.433 337.902 189.749 338.723 189.388 339.661C189.095 340.618 189.017 341.712 188.909 342.708C188.812 343.714 188.733 344.7 188.665 345.628C188.528 347.465 188.392 349.135 188.284 350.59C188.167 352.006 188.03 353.139 187.903 353.931C187.776 354.722 187.62 355.142 187.591 355.132C187.552 355.122 187.64 354.692 187.708 353.911C187.776 353.13 187.854 351.987 187.923 350.571C188.001 349.125 188.089 347.445 188.196 345.609C188.255 344.671 188.323 343.694 188.411 342.669C188.528 341.643 188.577 340.608 188.909 339.494C189.329 338.42 190.042 337.6 190.697 336.818C191.361 336.047 192.006 335.314 192.621 334.601C193.842 333.214 194.945 331.954 195.903 330.87C196.801 329.883 197.553 329.043 198.149 328.379C198.686 327.803 198.999 327.49 199.028 327.51L199.038 327.49Z" fill="#EB996E"/>
<path d="M146.06 25.2122C137.231 24.6457 128.372 25.9154 119.542 25.3782C110.537 24.8312 101.727 22.409 92.7406 21.6373C83.7449 20.8657 74.0558 21.989 67.0136 27.6345C74.7688 29.4414 82.1236 32.9186 88.443 37.7631C78.4413 39.7654 68.088 38.7692 57.93 39.7264C47.772 40.6836 37.0182 44.1705 31.236 52.5801C41.14 50.2946 52.2649 55.0806 57.4123 63.8516C48.6901 72.1343 36.8326 77.0374 24.7993 77.3207C27.2021 87.7522 38.4638 93.2023 48.5436 96.8064C58.6235 100.411 70.0317 104.698 74.0167 114.632C69.9828 115.335 65.9587 116.028 61.9248 116.732C70.227 123.149 76.6832 131.598 83.3836 139.675C90.0741 147.762 97.2922 155.733 106.513 160.743C115.733 165.754 127.405 167.365 136.684 162.472L203.746 72.0952C196.704 46.6221 172.442 26.9019 146.07 25.2219L146.06 25.2122Z" fill="#EABA36"/>
<path d="M214.452 118.506C222.719 82.4966 200.23 46.6038 164.221 38.3368C128.212 30.0698 92.3192 52.5591 84.0522 88.5681C75.7852 124.577 98.2745 160.47 134.283 168.737C170.292 177.004 206.185 154.514 214.452 118.506Z" fill="#F5F5F5"/>
<path d="M210.632 101.925C210.544 85.5645 203.99 70.7378 193.392 59.8668C182.678 48.8786 167.822 41.9438 151.344 41.5726C150.875 41.5629 150.406 41.5336 149.938 41.5336C132.601 41.5336 116.983 48.8102 105.916 60.4626C95.6315 71.2945 89.3023 85.9161 89.2437 102.022C89.2437 102.091 89.2437 102.159 89.2437 102.228C89.2437 118.783 95.8756 133.776 106.62 144.735L123.136 126.87C117.071 120.434 113.34 111.77 113.34 102.228C113.34 102.149 113.34 102.071 113.34 101.993C113.398 92.8314 116.885 84.4706 122.589 78.1609C122.599 78.1512 122.609 78.1316 122.618 78.1219C129.192 70.8648 138.686 66.3034 149.244 66.3034C149.889 66.3034 150.533 66.323 151.168 66.3523C160.682 66.8504 169.199 71.0601 175.333 77.5456C181.349 83.9139 185.071 92.47 185.149 101.905C185.149 102.013 185.149 102.11 185.149 102.218C185.149 112.141 181.125 121.137 174.61 127.632L192.679 145.282C203.746 134.284 210.612 119.057 210.612 102.218C210.612 102.11 210.612 102.013 210.612 101.905L210.632 101.925Z" fill="#5B9CD5"/>
<path d="M122.628 78.1314C118.008 73.199 109.706 64.3693 105.917 60.4624L122.599 78.1607C122.599 78.1607 122.619 78.1314 122.628 78.1217V78.1314Z" fill="#FF725E"/>
<path d="M216.15 103.546C216.15 103.546 216.131 103.175 216.111 102.462C216.101 102.1 216.092 101.661 216.072 101.124C216.062 100.596 216.043 99.971 215.975 99.2775C215.916 98.5841 215.857 97.8027 215.789 96.9432C215.701 96.0836 215.564 95.146 215.437 94.1302C215.154 92.1084 214.715 89.7837 214.08 87.2052C213.396 84.6364 212.576 81.7941 211.335 78.8053C210.124 75.8067 208.639 72.6128 206.686 69.3896C202.818 62.9237 197.27 56.1647 189.71 50.3922C185.95 47.5011 181.662 44.903 176.944 42.764C172.227 40.6249 167.079 38.9059 161.58 37.9096C156.091 36.8938 150.289 36.4934 144.361 36.9622C141.391 37.138 138.403 37.6166 135.414 38.2124C132.425 38.8473 129.446 39.7068 126.487 40.7617C123.547 41.8654 120.626 43.1254 117.794 44.6491C114.971 46.1923 112.207 47.9016 109.57 49.855C106.942 51.828 104.422 53.9866 102.039 56.3405C99.6851 58.7237 97.4777 61.2925 95.4461 64.0372C93.4047 66.772 91.6173 69.7315 90.0057 72.7984C89.6248 73.5798 89.1853 74.3319 88.8434 75.1328C88.482 75.9239 88.1206 76.7249 87.769 77.516C87.1244 79.1472 86.4602 80.7685 85.923 82.4485C84.8291 85.7987 83.9207 89.2465 83.3835 92.7823C82.8268 96.3083 82.5337 99.9027 82.5142 103.526C82.5337 107.15 82.8268 110.744 83.3835 114.28C83.9305 117.816 84.8291 121.264 85.923 124.614L86.343 125.864L86.5579 126.489L86.8021 127.105C87.1244 127.925 87.4467 128.736 87.769 129.546C88.1304 130.347 88.4918 131.138 88.8434 131.93C89.1853 132.731 89.6248 133.483 90.0057 134.264C91.6173 137.331 93.4047 140.29 95.4461 143.035C97.4777 145.78 99.6851 148.348 102.039 150.732C104.422 153.086 106.942 155.254 109.579 157.227C112.217 159.18 114.99 160.899 117.803 162.433C120.636 163.957 123.556 165.217 126.496 166.32C129.456 167.365 132.435 168.225 135.424 168.87C138.422 169.465 141.401 169.944 144.37 170.12C150.299 170.579 156.111 170.178 161.59 169.172C167.089 168.186 172.237 166.457 176.954 164.318C181.672 162.169 185.95 159.581 189.72 156.69C197.28 150.917 202.828 144.158 206.696 137.692C208.649 134.469 210.143 131.265 211.345 128.277C212.576 125.288 213.406 122.446 214.089 119.877C214.724 117.298 215.164 114.974 215.447 112.952C215.574 111.936 215.711 110.998 215.799 110.139C215.867 109.279 215.926 108.498 215.984 107.804C216.053 107.111 216.062 106.496 216.082 105.958C216.101 105.431 216.111 104.982 216.121 104.62C216.141 103.907 216.16 103.536 216.16 103.536C216.16 103.536 216.16 103.907 216.15 104.62C216.15 104.982 216.131 105.421 216.121 105.958C216.121 106.486 216.102 107.111 216.043 107.804C215.994 108.508 215.935 109.289 215.867 110.149C215.779 111.008 215.652 111.946 215.525 112.962C215.252 114.993 214.812 117.318 214.187 119.906C213.513 122.475 212.693 125.327 211.462 128.325C210.261 131.334 208.776 134.537 206.823 137.77C202.964 144.256 197.407 151.044 189.837 156.836C186.067 159.737 181.779 162.345 177.042 164.504C172.315 166.652 167.148 168.391 161.639 169.387C156.14 170.413 150.309 170.813 144.361 170.354C141.382 170.178 138.383 169.7 135.375 169.104C132.376 168.469 129.378 167.61 126.408 166.555C123.459 165.451 120.529 164.191 117.686 162.658C114.854 161.114 112.08 159.395 109.423 157.432C106.786 155.459 104.246 153.281 101.853 150.917C99.4898 148.524 97.2726 145.946 95.2312 143.191C93.1801 140.447 91.3829 137.477 89.7615 134.391C89.3806 133.61 88.9411 132.848 88.5895 132.047C88.2281 131.246 87.8667 130.455 87.5053 129.654C87.183 128.833 86.8607 128.023 86.5383 127.202L86.2942 126.587L86.0793 125.962L85.6495 124.702C84.5458 121.342 83.6375 117.874 83.1002 114.329C82.5435 110.783 82.2505 107.17 82.2212 103.536C82.2505 99.9027 82.5435 96.2888 83.1002 92.753C83.6472 89.2075 84.5556 85.7401 85.6593 82.3801C86.1965 80.6904 86.8607 79.0593 87.5053 77.4281C87.8667 76.6272 88.2281 75.8263 88.5895 75.0351C88.9313 74.2342 89.3709 73.4724 89.7615 72.691C91.3829 69.6045 93.1801 66.645 95.2312 63.8906C97.2726 61.1363 99.4898 58.5577 101.853 56.1647C104.246 53.801 106.776 51.6327 109.423 49.6499C112.07 47.6867 114.854 45.9677 117.686 44.4244C120.529 42.9007 123.459 41.631 126.408 40.5273C129.378 39.4724 132.366 38.6129 135.375 37.978C138.383 37.3822 141.382 36.9036 144.361 36.7278C150.309 36.2687 156.14 36.6692 161.639 37.6948C167.148 38.691 172.315 40.4198 177.042 42.5784C181.769 44.737 186.057 47.3448 189.837 50.2457C197.417 56.0377 202.964 62.826 206.832 69.3115C208.786 72.5542 210.27 75.7579 211.472 78.7565C212.702 81.755 213.523 84.6071 214.197 87.1759C214.822 89.7642 215.262 92.0888 215.535 94.1204C215.652 95.1362 215.789 96.0739 215.877 96.9334C215.935 97.7929 215.994 98.5743 216.053 99.2775C216.111 99.971 216.131 100.596 216.131 101.124C216.141 101.651 216.15 102.1 216.16 102.462C216.17 103.175 216.17 103.546 216.17 103.546H216.15Z" fill="#263238"/>
<path d="M155.322 116.397C162.423 113.425 165.771 105.259 162.799 98.1582C159.827 91.0573 151.661 87.7101 144.56 90.6819C137.46 93.6537 134.112 101.819 137.084 108.92C140.056 116.021 148.221 119.368 155.322 116.397Z" fill="#E0E0E0"/>
<path d="M145.826 104.474C146.431 106.564 148.61 107.765 150.71 107.17L199.185 93.4075L149.157 99.4339C146.734 99.7269 145.142 102.13 145.836 104.474H145.826Z" fill="#455A64"/>
<path d="M175.147 88.8852C175.147 88.8852 175.108 88.8266 175.049 88.6996C174.981 88.5628 174.893 88.3773 174.776 88.1331C174.659 87.8889 174.522 87.5763 174.336 87.2247C174.141 86.8731 173.926 86.4629 173.672 86.0136C173.418 85.5643 173.096 85.0759 172.764 84.5387C172.412 84.0113 172.012 83.4545 171.572 82.8587C170.674 81.6867 169.56 80.4267 168.203 79.1472C165.487 76.637 161.727 74.0975 157.029 72.6422C154.685 71.9194 152.126 71.4505 149.459 71.4115C146.793 71.3626 144.019 71.685 141.284 72.398C138.549 73.1403 135.99 74.244 133.695 75.6114C131.399 76.9691 129.407 78.649 127.737 80.4462C124.387 84.0504 122.384 88.1233 121.281 91.6493C120.743 93.427 120.411 95.0776 120.206 96.5427C120.118 97.2753 120.05 97.959 120.011 98.5939C119.991 99.2287 119.952 99.805 119.952 100.323C119.962 100.84 119.972 101.299 119.981 101.71C120.001 102.11 120.04 102.442 120.05 102.716C120.069 102.979 120.079 103.184 120.099 103.341C120.099 103.478 120.108 103.556 120.099 103.556C120.099 103.556 120.079 103.487 120.069 103.341C120.05 103.184 120.03 102.979 120.001 102.716C119.972 102.442 119.923 102.11 119.903 101.7C119.884 101.299 119.874 100.831 119.855 100.313C119.845 99.7952 119.874 99.2092 119.884 98.5743C119.923 97.9394 119.981 97.2557 120.06 96.5134C120.245 95.0386 120.577 93.3781 121.105 91.5809C122.199 88.0256 124.191 83.9136 127.561 80.2606C129.241 78.4439 131.243 76.7542 133.568 75.377C135.873 73.99 138.461 72.8766 141.216 72.1245C143.98 71.4017 146.773 71.0892 149.469 71.138C152.165 71.1771 154.743 71.6557 157.107 72.3882C161.844 73.8728 165.614 76.4514 168.339 78.9909C169.687 80.2802 170.801 81.5597 171.699 82.7513C172.139 83.3471 172.53 83.9136 172.881 84.4508C173.203 84.9978 173.526 85.4861 173.77 85.9452C174.014 86.4043 174.229 86.8145 174.415 87.1759C174.59 87.5373 174.717 87.8498 174.835 88.1038C174.942 88.348 175.02 88.5335 175.079 88.6801C175.137 88.807 175.157 88.8754 175.157 88.8754L175.147 88.8852Z" fill="#263238"/>
<path d="M169.385 87.4885C169.385 87.4885 169.297 87.3908 169.15 87.1857C168.994 86.9806 168.799 86.668 168.496 86.2871C167.92 85.5155 167.031 84.4411 165.8 83.2495C164.569 82.0579 162.968 80.7686 161.014 79.6258C159.061 78.4733 156.746 77.4965 154.206 76.8812C151.657 76.2952 149.147 76.1389 146.891 76.2952C144.625 76.4514 142.622 76.8812 140.981 77.3989C139.34 77.9165 138.071 78.4733 137.211 78.903C136.772 79.1081 136.459 79.3035 136.225 79.4109C136 79.5281 135.883 79.5867 135.873 79.577C135.873 79.577 135.98 79.4988 136.195 79.3621C136.42 79.2351 136.723 79.03 137.162 78.8054C138.012 78.3463 139.282 77.7505 140.923 77.2133C142.564 76.6663 144.585 76.217 146.871 76.051C149.147 75.8849 151.696 76.0314 154.265 76.6273C156.834 77.2426 159.178 78.2486 161.131 79.4207C163.094 80.5928 164.706 81.9016 165.927 83.1225C167.148 84.3434 168.027 85.4373 168.574 86.2285C168.867 86.6192 169.053 86.9415 169.189 87.1564C169.326 87.3713 169.394 87.4885 169.385 87.4885Z" fill="#263238"/>
<path d="M141.997 143.103V145.907H130.755V143.67L136.488 138.249C137.807 136.999 138.041 136.227 138.041 135.504C138.041 134.332 137.231 133.658 135.658 133.658C134.379 133.658 133.304 134.147 132.581 135.143L130.071 133.531C131.214 131.852 133.304 130.767 135.981 130.767C139.292 130.767 141.509 132.467 141.509 135.163C141.509 136.608 141.108 137.927 139.018 139.861L135.6 143.094H141.997V143.103Z" fill="#263238"/>
<path d="M154.665 141.238C154.665 143.875 152.731 146.17 148.482 146.17C146.422 146.17 144.253 145.594 142.808 144.578L144.165 141.941C145.289 142.791 146.841 143.279 148.394 143.279C150.114 143.279 151.178 142.556 151.178 141.345C151.178 140.134 150.416 139.411 147.711 139.411H143.911L144.673 131.041H153.747V133.805H147.545L147.31 136.628H148.521C152.917 136.628 154.665 138.601 154.665 141.238Z" fill="#263238"/>
<path d="M168.349 141.209C168.349 144.246 165.859 146.161 162.714 146.161C158.611 146.161 156.062 143.592 156.062 138.786C156.062 133.639 159.168 130.777 163.651 130.777C165.224 130.777 166.757 131.138 167.793 131.793L166.513 134.323C165.683 133.766 164.726 133.58 163.729 133.58C161.239 133.58 159.647 135.045 159.539 137.897C160.408 137.028 161.668 136.579 163.212 136.579C166.083 136.579 168.33 138.405 168.33 141.209H168.349ZM165.009 141.375C165.009 140.017 164.013 139.148 162.479 139.148C160.946 139.148 159.91 140.085 159.91 141.375C159.91 142.664 160.868 143.582 162.528 143.582C163.993 143.582 165.019 142.732 165.019 141.375H165.009Z" fill="#263238"/>
<path d="M143.12 157.051V150.859L140.083 156.094H139.829L136.801 150.878V157.051H136.283V149.814H136.723L139.956 155.41L143.189 149.814H143.618V157.051H143.111H143.12Z" fill="#263238"/>
<path d="M151.373 154.355C151.373 155.967 150.221 157.1 148.707 157.1C147.73 157.1 146.92 156.612 146.49 155.791V157.061H145.992V149.384H146.509V152.89C146.939 152.08 147.75 151.62 148.707 151.62C150.231 151.62 151.373 152.734 151.373 154.365V154.355ZM150.856 154.355C150.856 152.998 149.918 152.08 148.678 152.08C147.437 152.08 146.509 152.998 146.509 154.355C146.509 155.713 147.437 156.631 148.678 156.631C149.918 156.631 150.856 155.713 150.856 154.355Z" fill="#263238"/>
<path d="M158.348 154.355C158.348 155.977 157.195 157.1 155.681 157.1C154.734 157.1 153.923 156.631 153.483 155.83V159.063H152.966V151.66H153.464V152.929C153.884 152.099 154.704 151.62 155.681 151.62C157.205 151.62 158.348 152.744 158.348 154.365V154.355ZM157.83 154.355C157.83 152.998 156.892 152.08 155.652 152.08C154.411 152.08 153.483 152.998 153.483 154.355C153.483 155.713 154.411 156.631 155.652 156.631C156.892 156.631 157.83 155.713 157.83 154.355Z" fill="#263238"/>
<path d="M159.158 156.397L159.393 155.986C159.803 156.338 160.545 156.641 161.336 156.641C162.469 156.641 162.928 156.24 162.928 155.625C162.928 154.053 159.354 155.215 159.354 153.095C159.354 152.275 160.037 151.62 161.405 151.62C162.088 151.62 162.831 151.826 163.26 152.148L163.026 152.558C162.567 152.226 161.981 152.07 161.405 152.07C160.35 152.07 159.881 152.509 159.881 153.086C159.881 154.707 163.456 153.564 163.456 155.615C163.456 156.494 162.704 157.09 161.327 157.09C160.438 157.09 159.588 156.787 159.168 156.397H159.158Z" fill="#263238"/>
<path d="M28.1103 64.9455C25.5415 61.4098 17.923 59.2219 13.6254 60.0228C11.291 60.4623 9.16172 61.5856 6.93478 62.406C4.70784 63.2265 2.20741 63.7149 0 62.8651C6.81757 69.2041 20.2574 69.9464 28.1103 64.9455Z" fill="#EABA36"/>
<path d="M622.645 371.746C622.645 371.883 487.046 372 319.801 372C152.555 372 16.9268 371.883 16.9268 371.746C16.9268 371.609 152.497 371.492 319.801 371.492C487.105 371.492 622.645 371.609 622.645 371.746Z" fill="#263238"/>
</g>
<defs>
<clipPath id="clip0_28_3885">
<rect width="634.19" height="400" fill="white"/>
</clipPath>
</defs>
</svg>
