<svg width="583" height="400" viewBox="0 0 583 400" fill="none" xmlns="http://www.w3.org/2000/svg">
<g clip-path="url(#clip0_28_5168)">
<path d="M312.853 198.2C293.798 184.858 291.96 183.143 282.323 165.282L273.17 183.977C312.37 195.016 346.198 232.065 375.695 260.141C405.903 288.89 461.733 331.236 469.92 371.128C480.779 343.649 497.55 347.193 517.127 325.058C452.077 307.073 360.259 231.373 312.863 198.19L312.853 198.2Z" fill="#EBEBEB"/>
<path d="M403.866 399.63C408.547 386.791 424.693 380.765 437.154 386.374C437.068 384.432 436.974 382.489 436.888 380.547C438.063 371.952 442.82 363.898 449.785 358.734C456.749 353.56 465.836 351.343 474.402 352.708C475.141 343.099 485.166 335.282 494.67 336.931C493.078 330.127 495.798 322.519 501.322 318.255C506.846 313.991 514.91 313.308 521.078 316.577C530.914 310.39 544.568 311.015 553.798 318.084C563.027 325.143 567.196 338.172 563.794 349.277C578.737 360.705 584.129 382.991 576.065 399.981" fill="#EBEBEB"/>
<path d="M261.439 178.462L287.677 160.61C297.086 159.369 302.118 168.674 301.72 175.373C305.709 173.307 310.987 174.103 314.18 177.268C317.374 180.433 318.217 185.711 316.18 189.71C321.543 189.975 326.015 195.518 325.143 200.815C324.272 206.112 318.264 209.93 313.1 208.462C309.689 207.495 306.913 204.671 303.397 204.273C300.09 203.894 297.001 205.733 293.836 206.747C285.972 209.258 276.979 206.434 271.048 200.692C265.116 194.95 262.036 186.696 261.449 178.462H261.439Z" fill="#EBEBEB"/>
<path d="M278.277 167.262C281.328 168.105 284.209 169.565 286.701 171.526C288.331 172.805 287.355 175.43 285.289 175.364H285.232C288.426 177.581 291.467 180.016 294.338 182.641C296.177 184.318 294.926 187.36 292.443 187.265C282.721 186.867 273.142 182.878 266.139 176.112L278.277 167.272V167.262Z" fill="#E0E0E0"/>
<path d="M231.487 169.46C231.487 169.46 231.487 169.565 231.487 169.669C231.914 181.779 237.836 193.036 247.548 200.284L253.641 204.833L254.266 186.46L231.487 169.46Z" fill="#E0E0E0"/>
<path d="M257.27 134.903C257.27 134.903 257.365 134.875 257.469 134.846C269.039 131.852 281.347 134.287 290.927 141.432L296.935 145.914L279.736 151.665L257.27 134.903Z" fill="#E0E0E0"/>
<path d="M184.725 107.67C186.763 104.932 197.593 105.188 212.887 109.329C227.953 113.403 238.29 120.747 238.29 120.747L289.127 158.677L279.13 172.076L273.34 179.836L263.344 193.234L217.217 158.81C212.707 155.446 208.518 151.675 204.728 147.515C201.469 143.943 197.678 139.347 194.334 134.192C185.739 120.955 182.688 110.399 184.735 107.67" fill="#F5F5F5"/>
<path d="M255.346 186.715C255.394 186.753 261.193 179.163 268.3 169.754C275.406 160.345 281.12 152.698 281.073 152.66C281.025 152.622 275.226 160.212 268.119 169.621C261.013 179.021 255.299 186.677 255.346 186.715Z" fill="#E0E0E0"/>
<path d="M257.005 187.71C257.052 187.748 262.851 180.158 269.958 170.749C277.064 161.34 282.778 153.693 282.731 153.655C282.683 153.617 276.884 161.207 269.778 170.616C262.671 180.016 256.957 187.672 257.005 187.71Z" fill="#E0E0E0"/>
<path d="M258.606 188.952C258.654 188.989 264.453 181.4 271.559 171.99C278.666 162.581 284.38 154.934 284.332 154.897C284.285 154.859 278.486 162.448 271.379 171.858C264.273 181.257 258.559 188.914 258.606 188.952Z" fill="#E0E0E0"/>
<path d="M260.207 190.193C260.255 190.231 266.054 182.641 273.16 173.232C280.267 163.822 285.981 156.176 285.933 156.138C285.886 156.1 280.087 163.69 272.98 173.099C265.874 182.499 260.16 190.155 260.207 190.193Z" fill="#E0E0E0"/>
<path d="M261.818 191.434C261.866 191.472 267.665 183.882 274.771 174.473C281.878 165.064 287.592 157.417 287.544 157.379C287.497 157.341 281.698 164.931 274.591 174.34C267.485 183.74 261.771 191.396 261.818 191.434Z" fill="#E0E0E0"/>
<path d="M244.364 152.281C244.364 152.281 244.431 152.357 244.573 152.499C244.715 152.641 244.942 152.812 245.236 153.058C245.814 153.532 246.676 154.186 247.738 154.991C249.86 156.602 252.826 158.8 256.114 161.198C259.402 163.604 262.387 165.755 264.566 167.309C265.637 168.067 266.518 168.693 267.143 169.138C267.437 169.337 267.674 169.498 267.854 169.621C268.015 169.735 268.11 169.783 268.11 169.783C268.11 169.783 268.034 169.707 267.882 169.584C267.712 169.451 267.485 169.28 267.2 169.062C266.584 168.598 265.722 167.963 264.661 167.177C262.491 165.585 259.525 163.415 256.256 161.008C252.978 158.611 250.012 156.441 247.842 154.849C246.781 154.072 245.918 153.428 245.302 152.973C245.009 152.746 244.762 152.584 244.62 152.452C244.468 152.329 244.383 152.262 244.383 152.272L244.364 152.281Z" fill="#E0E0E0"/>
<path d="M231.487 169.46C231.534 169.498 237.305 161.861 244.374 152.404C251.443 142.948 257.128 135.254 257.081 135.216C257.033 135.178 251.263 142.815 244.194 152.272C237.125 161.728 231.44 169.422 231.487 169.46Z" fill="#E0E0E0"/>
<path d="M259.061 167.556C259.061 167.556 258.938 167.556 258.758 167.651C258.578 167.745 258.331 167.963 258.18 168.323C258.028 168.664 258 169.205 258.331 169.621C258.635 170.029 259.231 170.323 259.838 170.162C260.435 169.991 260.804 169.441 260.861 168.93C260.928 168.399 260.634 167.954 260.331 167.736C260.018 167.508 259.696 167.452 259.487 167.452C259.279 167.452 259.165 167.508 259.175 167.527C259.175 167.546 259.288 167.527 259.487 167.546C259.677 167.565 259.961 167.641 260.236 167.868C260.501 168.086 260.729 168.465 260.662 168.911C260.605 169.347 260.283 169.811 259.791 169.953C259.298 170.086 258.777 169.849 258.511 169.498C258.227 169.148 258.227 168.702 258.35 168.38C258.464 168.058 258.672 167.84 258.834 167.726C258.995 167.613 259.099 167.575 259.089 167.556H259.061Z" fill="#E0E0E0"/>
<path d="M249.102 160.411C249.102 160.411 248.979 160.411 248.799 160.506C248.619 160.601 248.372 160.819 248.221 161.179C248.069 161.52 248.041 162.06 248.372 162.477C248.676 162.884 249.273 163.178 249.879 163.017C250.476 162.846 250.845 162.297 250.902 161.785C250.969 161.255 250.675 160.809 250.372 160.591C250.059 160.364 249.737 160.307 249.528 160.307C249.32 160.307 249.206 160.364 249.216 160.383C249.216 160.402 249.329 160.383 249.528 160.402C249.718 160.421 250.002 160.497 250.277 160.724C250.542 160.942 250.77 161.321 250.703 161.766C250.646 162.202 250.324 162.666 249.832 162.809C249.339 162.941 248.818 162.704 248.552 162.354C248.268 162.003 248.268 161.558 248.391 161.236C248.505 160.913 248.713 160.696 248.875 160.582C249.036 160.468 249.14 160.43 249.13 160.411H249.102Z" fill="#E0E0E0"/>
<path d="M296.271 192.42C297.389 191.993 298.782 192.609 299.228 193.718C299.673 194.826 299.076 196.238 297.977 196.703C296.878 197.167 295.456 196.598 294.973 195.509C294.49 194.419 295.03 192.988 296.11 192.486" fill="#E0E0E0"/>
<path d="M208.253 137.424C210.414 143.478 217.075 146.634 223.13 144.473C229.185 142.313 232.34 135.652 230.179 129.597C228.019 123.542 221.358 120.387 215.303 122.547C209.248 124.707 206.093 131.369 208.253 137.424Z" fill="white"/>
<path d="M208.253 137.424C208.32 137.405 207.903 136.448 207.742 134.619C207.581 132.818 207.817 130.014 209.627 127.266C210.527 125.92 211.788 124.594 213.455 123.646C215.114 122.718 217.122 122.064 219.273 122.111C220.344 122.111 221.443 122.272 222.514 122.604C223.585 122.917 224.636 123.409 225.593 124.073C227.536 125.361 229.09 127.351 229.943 129.663C230.758 131.994 230.815 134.524 230.123 136.751C229.801 137.869 229.308 138.921 228.673 139.84C228.057 140.778 227.318 141.602 226.484 142.275C224.854 143.677 222.883 144.445 221.007 144.777C219.122 145.099 217.302 144.881 215.748 144.407C212.612 143.422 210.651 141.403 209.637 139.906C208.604 138.381 208.32 137.376 208.253 137.405C208.234 137.405 208.32 137.651 208.49 138.115C208.575 138.343 208.68 138.627 208.86 138.94C209.021 139.262 209.201 139.631 209.476 140.01C210.452 141.564 212.423 143.677 215.644 144.739C217.236 145.25 219.112 145.506 221.074 145.184C223.016 144.862 225.063 144.075 226.778 142.626C227.65 141.934 228.427 141.072 229.071 140.096C229.734 139.139 230.255 138.049 230.597 136.874C231.326 134.552 231.26 131.909 230.417 129.474C229.526 127.057 227.906 124.973 225.868 123.637C224.864 122.945 223.774 122.433 222.647 122.111C221.528 121.77 220.382 121.599 219.273 121.609C217.037 121.571 214.952 122.263 213.237 123.248C211.522 124.243 210.224 125.627 209.315 127.029C207.495 129.891 207.315 132.781 207.533 134.6C207.562 135.064 207.666 135.472 207.742 135.822C207.808 136.173 207.893 136.467 207.978 136.694C208.14 137.158 208.225 137.395 208.244 137.395L208.253 137.424Z" fill="#E0E0E0"/>
<path d="M184.725 107.67C186.763 104.932 197.593 105.188 212.887 109.329L194.334 134.202C185.739 120.965 182.688 110.409 184.735 107.68" fill="#E0E0E0"/>
<path d="M184.725 107.67C184.725 107.67 184.612 107.841 184.422 108.192C184.271 108.561 184.119 109.149 184.081 109.935C184.015 111.508 184.422 113.811 185.341 116.644C187.208 122.301 191.074 130.156 197.404 138.902C200.625 143.223 204.435 147.799 209.068 152.215C211.39 154.413 213.91 156.574 216.639 158.639C219.368 160.686 222.192 162.799 225.091 164.959C236.689 173.62 249.538 183.228 263.192 193.424L263.391 193.576L263.543 193.377C267.684 187.833 272.024 182.025 276.439 176.103C280.855 170.181 285.195 164.372 289.326 158.819L289.477 158.62L289.279 158.469C275.605 148.283 262.738 138.693 251.13 130.042C248.231 127.882 245.407 125.778 242.668 123.741C241.294 122.718 239.949 121.723 238.622 120.728C237.258 119.761 235.865 118.927 234.482 118.122C228.929 114.938 223.461 112.579 218.354 110.826C213.228 109.12 208.49 107.993 204.321 107.178C200.142 106.382 196.504 105.917 193.528 105.823C190.553 105.718 188.222 105.946 186.725 106.429C186.365 106.581 186.033 106.676 185.768 106.827C185.521 106.988 185.294 107.102 185.142 107.235C184.858 107.519 184.725 107.67 184.725 107.67C184.725 107.67 184.887 107.538 185.171 107.263C185.322 107.14 185.55 107.036 185.796 106.884C186.052 106.742 186.384 106.657 186.744 106.514C188.231 106.069 190.543 105.87 193.509 106.003C196.475 106.126 200.095 106.619 204.264 107.434C208.424 108.277 213.152 109.423 218.24 111.138C223.31 112.91 228.758 115.27 234.273 118.463C235.647 119.268 237.04 120.112 238.366 121.059C239.693 122.045 241.039 123.059 242.403 124.082C245.141 126.129 247.956 128.232 250.855 130.402C262.453 139.063 275.302 148.671 288.966 158.876L288.918 158.526C284.778 164.069 280.438 169.887 276.022 175.8C271.607 181.722 267.276 187.53 263.136 193.073L263.486 193.026C249.822 182.84 236.955 173.251 225.347 164.599C222.448 162.439 219.624 160.335 216.885 158.298C214.166 156.251 211.645 154.11 209.324 151.931C204.7 147.553 200.891 142.995 197.66 138.703C191.311 130.014 187.407 122.206 185.502 116.587C184.564 113.773 184.129 111.489 184.166 109.935C184.195 109.158 184.318 108.58 184.46 108.211C184.64 107.86 184.725 107.67 184.725 107.67Z" fill="#E0E0E0"/>
<path d="M220.174 142.161C220.24 142.161 220.174 141.252 219.975 139.821C219.776 138.39 219.425 136.419 218.989 134.249C218.572 132.184 218.193 130.317 217.862 128.716C217.568 127.304 217.388 126.422 217.312 126.432C217.246 126.432 217.312 127.342 217.511 128.772C217.71 130.203 218.061 132.174 218.496 134.344C218.913 136.41 219.292 138.276 219.624 139.878C219.918 141.29 220.098 142.171 220.174 142.161Z" fill="#E0E0E0"/>
<path d="M222.23 139.423C222.372 139.404 222.107 137.12 221.652 134.325C221.197 131.52 220.714 129.275 220.572 129.303C220.439 129.331 220.695 131.615 221.15 134.401C221.604 137.187 222.088 139.442 222.23 139.423Z" fill="#E0E0E0"/>
<path d="M506.429 292.851L481.859 280.883C480.163 280.059 479.452 278.012 480.286 276.306L496.849 242.289C497.674 240.593 499.72 239.882 501.426 240.716L517.013 248.306L523.021 266.613L511.015 291.268C510.191 292.964 508.144 293.675 506.438 292.841L506.429 292.851Z" fill="#EBEBEB"/>
<path d="M516.994 248.306L512.332 257.877C511.565 259.459 512.218 261.364 513.801 262.131L523.001 266.613L516.994 248.306Z" fill="#E0E0E0"/>
<path d="M510.465 256.484C510.409 256.607 507.812 255.47 504.676 253.935C501.54 252.409 499.038 251.064 499.104 250.94C499.161 250.817 501.758 251.954 504.894 253.489C508.03 255.015 510.532 256.36 510.465 256.484Z" fill="white"/>
<path d="M515.175 265.476C515.118 265.599 510.873 263.657 505.709 261.146C500.545 258.625 496.404 256.493 496.461 256.37C496.518 256.247 500.753 258.189 505.927 260.7C511.091 263.211 515.232 265.353 515.175 265.476Z" fill="white"/>
<path d="M514.654 270.82C514.597 270.943 509.982 268.821 504.344 266.073C498.706 263.325 494.196 261.004 494.253 260.88C494.31 260.757 498.924 262.88 504.562 265.628C510.191 268.366 514.711 270.697 514.654 270.82Z" fill="white"/>
<path d="M512.579 275.084C512.522 275.207 507.907 273.085 502.269 270.337C496.631 267.589 492.121 265.267 492.178 265.144C492.235 265.021 496.849 267.144 502.487 269.891C508.116 272.63 512.635 274.961 512.579 275.084Z" fill="white"/>
<path d="M510.503 279.348C510.447 279.471 505.832 277.349 500.194 274.601C494.556 271.853 490.046 269.531 490.103 269.408C490.159 269.285 494.774 271.408 500.412 274.156C506.04 276.894 510.56 279.225 510.503 279.348Z" fill="white"/>
<path d="M508.428 283.612C508.371 283.735 503.757 281.613 498.119 278.865C492.481 276.117 487.971 273.795 488.027 273.672C488.084 273.549 492.699 275.672 498.337 278.419C503.965 281.158 508.485 283.489 508.428 283.612Z" fill="white"/>
<path d="M169.062 170.588C167.916 186.952 153.693 199.28 137.291 198.133C120.889 196.987 108.533 182.792 109.679 166.428C110.826 150.064 125.049 137.736 141.451 138.883C157.853 140.029 170.209 154.224 169.062 170.588Z" fill="#F5F5F5"/>
<path d="M161.994 170.095C161.122 182.565 150.282 191.955 137.784 191.083C125.285 190.212 115.867 179.391 116.739 166.921C117.61 154.451 128.45 145.051 140.949 145.933C153.447 146.804 162.865 157.625 161.994 170.095Z" fill="#EBEBEB"/>
<path d="M162.041 169.385C161.899 169.385 161.88 168.38 161.634 166.618C161.378 164.865 160.876 162.325 159.511 159.502C158.829 158.09 157.948 156.621 156.801 155.181C155.655 153.759 154.262 152.357 152.613 151.135C151.789 150.519 150.907 149.941 149.96 149.439C149.012 148.927 148.017 148.463 146.965 148.093C145.914 147.714 144.824 147.392 143.696 147.174C142.569 146.956 141.403 146.814 140.219 146.766C139.034 146.729 137.869 146.776 136.722 146.909C135.576 147.041 134.467 147.278 133.387 147.572C132.307 147.866 131.283 148.254 130.298 148.69C129.313 149.116 128.393 149.628 127.522 150.178C125.778 151.267 124.291 152.556 123.03 153.892C121.78 155.238 120.785 156.64 119.998 157.995C118.425 160.714 117.724 163.206 117.335 164.931C116.956 166.665 116.852 167.66 116.72 167.651C116.615 167.651 116.492 166.646 116.672 164.817C116.862 163.008 117.402 160.354 118.927 157.407C119.685 155.939 120.69 154.413 121.969 152.935C123.258 151.466 124.812 150.045 126.659 148.842C127.579 148.235 128.564 147.667 129.616 147.193C130.668 146.71 131.767 146.274 132.923 145.952C134.079 145.62 135.282 145.355 136.514 145.212C137.746 145.061 139.015 145.013 140.285 145.051C141.564 145.108 142.815 145.26 144.038 145.506C145.26 145.743 146.435 146.103 147.562 146.52C148.69 146.937 149.761 147.449 150.765 148.017C151.779 148.576 152.717 149.221 153.589 149.893C155.342 151.239 156.782 152.774 157.957 154.337C159.123 155.91 159.994 157.512 160.639 159.028C161.927 162.079 162.268 164.77 162.316 166.589C162.354 168.418 162.145 169.413 162.051 169.413L162.041 169.385Z" fill="#E0E0E0"/>
<path d="M140.977 182.186L140.759 186.128L137.234 185.929L137.452 182.091C133.975 181.684 130.696 180.405 128.839 178.784L131.018 174.596C132.705 175.998 135.187 177.088 137.717 177.477L138.04 171.592C134.183 170.427 129.891 168.882 130.165 163.841C130.374 160.108 133.264 157.057 138.864 156.725L139.082 152.812L142.607 153.011L142.389 156.848C145.023 157.209 147.553 158.052 149.42 159.397L147.42 163.633C145.677 162.515 143.886 161.814 142.133 161.501L141.801 167.489C145.658 168.617 149.884 170.162 149.609 175.127C149.401 178.794 146.549 181.807 140.986 182.177L140.977 182.186ZM138.324 166.419L138.599 161.416C136.713 161.738 135.917 162.714 135.851 163.879C135.784 165.111 136.798 165.841 138.324 166.419ZM143.914 175.24C143.981 174.009 142.995 173.279 141.517 172.673L141.242 177.534C143.024 177.24 143.848 176.368 143.914 175.24Z" fill="#E0E0E0"/>
<path d="M554.802 80.722C553.93 93.2203 543.062 102.648 530.525 101.767C517.999 100.886 508.552 90.046 509.423 77.5383C510.295 65.04 521.164 55.6119 533.7 56.4931C546.226 57.3743 555.674 68.2143 554.802 80.7126V80.722Z" fill="#EABA36"/>
<path d="M549.401 80.343C548.738 89.866 540.456 97.0484 530.905 96.3756C521.353 95.7029 514.161 87.4402 514.825 77.9173C515.497 68.3944 523.779 61.212 533.321 61.8752C542.872 62.548 550.064 70.8107 549.401 80.3336V80.343Z" fill="#EBEBEB"/>
<path d="M549.438 79.8029C549.334 79.8029 549.315 79.0354 549.126 77.6899C548.936 76.3538 548.548 74.4114 547.505 72.2509C546.984 71.1707 546.312 70.0431 545.44 68.9535C544.559 67.8638 543.507 66.793 542.237 65.8644C541.612 65.4001 540.929 64.9548 540.209 64.5663C539.489 64.1778 538.731 63.8177 537.926 63.5335C537.12 63.2492 536.286 63.0028 535.424 62.8323C534.562 62.6617 533.671 62.5575 532.771 62.5196C531.871 62.4912 530.971 62.5196 530.099 62.6238C529.227 62.7186 528.374 62.9081 527.55 63.126C526.726 63.344 525.939 63.6472 525.191 63.9788C524.442 64.3105 523.731 64.699 523.068 65.1159C521.732 65.9497 520.595 66.9352 519.638 67.9491C518.681 68.9724 517.923 70.0526 517.316 71.0855C516.113 73.1606 515.573 75.0652 515.279 76.3823C514.995 77.7089 514.91 78.4669 514.805 78.4669C514.73 78.4669 514.635 77.6994 514.768 76.3065C514.91 74.923 515.327 72.8953 516.492 70.6401C517.07 69.522 517.838 68.347 518.814 67.2194C519.799 66.1013 520.983 65.0116 522.395 64.0925C523.097 63.6282 523.855 63.2018 524.65 62.8323C525.456 62.4627 526.299 62.1311 527.18 61.8847C528.062 61.6384 528.981 61.4299 529.928 61.3162C530.876 61.2025 531.833 61.1646 532.809 61.193C533.785 61.2404 534.742 61.3541 535.671 61.5341C536.599 61.7142 537.499 61.989 538.362 62.3111C539.224 62.6238 540.039 63.0218 540.806 63.4577C541.583 63.8841 542.294 64.3768 542.957 64.8885C544.293 65.9213 545.392 67.0963 546.293 68.2807C547.183 69.4841 547.856 70.7064 548.349 71.8719C549.334 74.2029 549.59 76.2591 549.628 77.652C549.656 79.0544 549.505 79.8124 549.42 79.8029H549.438Z" fill="#E0E0E0"/>
<path d="M533.349 89.5816L533.178 92.5948L530.487 92.4432L530.648 89.5058C527.995 89.1931 525.484 88.2171 524.063 86.9758L525.721 83.7731C527.01 84.8438 528.905 85.6777 530.838 85.9714L531.084 81.48C528.137 80.5893 524.859 79.4049 525.067 75.5578C525.228 72.7057 527.436 70.3747 531.71 70.1283L531.88 67.1436L534.571 67.2952L534.41 70.2326C536.419 70.5074 538.352 71.1517 539.783 72.1751L538.257 75.4062C536.931 74.5534 535.557 74.0133 534.221 73.7764L533.965 78.3531C536.912 79.2154 540.143 80.3998 539.934 84.19C539.783 86.9853 537.594 89.2973 533.349 89.5721V89.5816ZM531.321 77.5382L531.53 73.7196C530.089 73.9659 529.473 74.7145 529.426 75.6052C529.379 76.5433 530.156 77.1023 531.321 77.5477V77.5382ZM535.585 84.2848C535.642 83.3467 534.884 82.7876 533.747 82.3233L533.539 86.0378C534.903 85.8198 535.528 85.1471 535.576 84.2848H535.585Z" fill="#EABA36"/>
<path d="M295.03 246.876C296.328 255.839 290.103 264.168 281.12 265.476C272.137 266.784 263.789 260.568 262.491 251.604C261.184 242.64 267.418 234.311 276.401 233.003C285.384 231.696 293.732 237.912 295.03 246.876Z" fill="#F5F5F5"/>
<path d="M291.164 247.444C292.159 254.276 287.412 260.624 280.561 261.619C273.71 262.614 267.352 257.886 266.367 251.054C265.372 244.222 270.119 237.874 276.97 236.879C283.821 235.884 290.179 240.612 291.164 247.444Z" fill="#EBEBEB"/>
<path d="M291.098 247.056C291.022 247.065 290.89 246.534 290.558 245.615C290.217 244.696 289.639 243.389 288.577 242.024C288.047 241.342 287.393 240.65 286.607 240.006C285.82 239.371 284.901 238.774 283.868 238.31C283.347 238.073 282.807 237.864 282.238 237.703C281.67 237.542 281.073 237.4 280.466 237.324C279.86 237.248 279.225 237.201 278.59 237.21C277.955 237.229 277.311 237.286 276.667 237.4C276.022 237.523 275.397 237.684 274.791 237.883C274.184 238.092 273.616 238.348 273.066 238.632C272.516 238.916 272.005 239.248 271.531 239.598C271.048 239.949 270.612 240.328 270.204 240.726C269.39 241.522 268.736 242.394 268.215 243.256C267.703 244.128 267.324 244.999 267.059 245.824C266.528 247.472 266.443 248.903 266.433 249.879C266.433 250.855 266.49 251.405 266.424 251.424C266.367 251.433 266.177 250.903 266.064 249.898C265.95 248.903 265.931 247.406 266.405 245.634C266.642 244.753 267.002 243.805 267.523 242.858C268.044 241.92 268.717 240.963 269.579 240.101C270.005 239.665 270.47 239.248 270.981 238.859C271.493 238.471 272.033 238.111 272.621 237.798C273.208 237.485 273.824 237.201 274.478 236.974C275.132 236.746 275.804 236.566 276.496 236.443C277.188 236.32 277.889 236.263 278.571 236.244C279.263 236.235 279.936 236.282 280.59 236.377C281.253 236.471 281.888 236.623 282.494 236.803C283.11 236.983 283.688 237.22 284.238 237.485C285.337 238.006 286.303 238.67 287.118 239.371C287.933 240.082 288.596 240.84 289.118 241.588C290.169 243.085 290.672 244.497 290.908 245.473C291.145 246.459 291.155 247.018 291.098 247.027V247.056Z" fill="#E0E0E0"/>
<path d="M281.234 256.436L281.575 258.587L279.652 258.89L279.32 256.796C277.396 256.986 275.473 256.683 274.279 256.029L274.961 253.508C276.041 254.067 277.51 254.361 278.912 254.276L278.401 251.064C276.183 250.884 273.682 250.552 273.237 247.804C272.914 245.767 274.108 243.777 277.093 242.943L276.752 240.811L278.676 240.498L279.007 242.592C280.466 242.479 281.935 242.64 283.101 243.142L282.513 245.663C281.442 245.265 280.391 245.094 279.405 245.132L279.926 248.401C282.144 248.562 284.607 248.894 285.034 251.604C285.356 253.603 284.171 255.574 281.205 256.417L281.234 256.436ZM277.946 248.24L277.51 245.511C276.525 245.909 276.212 246.525 276.316 247.16C276.42 247.832 277.065 248.107 277.946 248.24ZM282.001 252.352C281.897 251.68 281.281 251.405 280.4 251.244L280.826 253.897C281.755 253.527 282.096 252.959 282.001 252.343V252.352Z" fill="#E0E0E0"/>
<path d="M9.74075 296.3V314.37C9.74075 314.862 9.34278 315.27 8.84058 315.27H7.32449C6.83176 315.27 6.42432 315.668 6.42432 316.17V316.53C6.42432 317.023 6.82229 317.43 7.32449 317.43H8.84058C9.3333 317.43 9.74075 317.828 9.74075 318.33V329.824C9.74075 330.317 10.1387 330.724 10.6409 330.724H70.839C71.3317 330.724 71.7391 330.326 71.7391 329.824V319.524C71.7391 319.031 71.3412 318.624 70.839 318.624H68.0437C67.5509 318.624 67.1435 318.226 67.1435 317.724V316.89C67.1435 316.397 67.5415 315.99 68.0437 315.99H70.839C71.3317 315.99 71.7391 315.592 71.7391 315.09V312.939C71.7391 312.446 72.1371 312.039 72.6393 312.039H72.8857C73.3784 312.039 73.7858 311.641 73.7858 311.138C73.7858 310.646 73.3879 310.238 72.8857 310.238H72.2603C71.7676 310.238 71.3601 309.84 71.3601 309.338V296.3C71.3601 295.807 70.9621 295.4 70.4599 295.4H10.6315C10.1387 295.4 9.73128 295.798 9.73128 296.3H9.74075Z" fill="#F5F5F5"/>
<path d="M55.2612 296.347V329.587C55.2612 330.08 55.6592 330.487 56.1614 330.487H70.8295C71.3223 330.487 71.7297 330.089 71.7297 329.587V319.287C71.7297 318.795 71.3317 318.387 70.8295 318.387H68.0342C67.5415 318.387 67.1341 317.989 67.1341 317.487V316.89C67.1341 316.388 67.5415 315.98 68.0437 315.99L70.8106 316.037C71.3128 316.037 71.7202 315.639 71.7202 315.137V312.996C71.7202 312.503 72.1277 312.095 72.6204 312.095H72.8857C73.3879 312.095 73.7954 311.688 73.7859 311.176V310.911C73.7669 310.428 73.3879 310.039 72.9047 310.03L72.213 310.011C71.7297 310.001 71.3412 309.603 71.3412 309.111V296.281C71.3412 295.788 70.9338 295.381 70.441 295.381L56.1614 295.428C55.6687 295.428 55.2707 295.835 55.2707 296.328L55.2612 296.347Z" fill="#E0E0E0"/>
<path d="M56.4362 317.127C56.4362 317.25 45.2172 317.345 31.3829 317.345C17.5486 317.345 6.32959 317.25 6.32959 317.127C6.32959 317.004 17.5486 316.909 31.3829 316.909C45.2172 316.909 56.4362 317.004 56.4362 317.127Z" fill="#E0E0E0"/>
<path d="M56.4362 315.109C56.4362 315.232 45.2172 315.327 31.3829 315.327C17.5486 315.327 6.32959 315.232 6.32959 315.109C6.32959 314.985 17.5486 314.891 31.3829 314.891C45.2172 314.891 56.4362 314.985 56.4362 315.109Z" fill="#E0E0E0"/>
<path d="M59.6579 309.679C59.6579 309.802 48.4388 309.897 34.6046 309.897C20.7703 309.897 9.55127 309.802 9.55127 309.679C9.55127 309.556 20.7703 309.461 34.6046 309.461C48.4388 309.461 59.6579 309.556 59.6579 309.679Z" fill="#E0E0E0"/>
<path d="M59.9704 324.48C59.9704 324.603 48.7513 324.698 34.9171 324.698C21.0828 324.698 9.86377 324.603 9.86377 324.48C9.86377 324.357 21.0828 324.262 34.9171 324.262C48.7513 324.262 59.9704 324.357 59.9704 324.48Z" fill="#E0E0E0"/>
<path d="M14.4126 330.63V348.699C14.4126 349.192 14.0147 349.6 13.5125 349.6H11.9964C11.5036 349.6 11.0962 349.998 11.0962 350.5V350.86C11.0962 351.353 11.4942 351.76 11.9964 351.76H13.5125C14.0052 351.76 14.4126 352.158 14.4126 352.66V364.154C14.4126 364.647 14.8106 365.054 15.3128 365.054H75.5108C76.0036 365.054 76.411 364.656 76.411 364.154V353.854C76.411 353.361 76.013 352.954 75.5108 352.954H72.7155C72.2228 352.954 71.8154 352.556 71.8154 352.054V351.22C71.8154 350.727 72.2133 350.32 72.7155 350.32H75.5108C76.0036 350.32 76.411 349.922 76.411 349.42V347.269C76.411 346.776 76.809 346.368 77.3112 346.368H77.5575C78.0503 346.368 78.4577 345.97 78.4577 345.468C78.4577 344.975 78.0597 344.568 77.5575 344.568H76.9322C76.4394 344.568 76.032 344.17 76.032 343.668V330.63C76.032 330.137 75.634 329.729 75.1318 329.729H15.3128C14.8201 329.729 14.4126 330.127 14.4126 330.63Z" fill="#F5F5F5"/>
<path d="M59.9424 330.677V363.917C59.9424 364.41 60.3404 364.817 60.8426 364.817H75.5107C76.0034 364.817 76.4109 364.419 76.4109 363.917V353.617C76.4109 353.124 76.0129 352.717 75.5107 352.717H72.7154C72.2227 352.717 71.8152 352.319 71.8152 351.817V351.22C71.8152 350.718 72.2227 350.31 72.7249 350.32L75.4917 350.367C75.9939 350.367 76.4014 349.969 76.4014 349.467V347.325C76.4014 346.833 76.8088 346.425 77.3016 346.425H77.5669C78.0691 346.425 78.4765 346.018 78.467 345.506V345.241C78.4481 344.758 78.0691 344.369 77.5858 344.36L76.8941 344.341C76.4109 344.331 76.0224 343.933 76.0224 343.441V330.611C76.0224 330.118 75.6149 329.71 75.1222 329.71L60.8426 329.758C60.3498 329.758 59.9519 330.165 59.9519 330.658L59.9424 330.677Z" fill="#E0E0E0"/>
<path d="M61.1173 351.457C61.1173 351.58 49.8983 351.675 36.064 351.675C22.2298 351.675 11.0107 351.58 11.0107 351.457C11.0107 351.334 22.2298 351.239 36.064 351.239C49.8983 351.239 61.1173 351.334 61.1173 351.457Z" fill="#E0E0E0"/>
<path d="M61.1173 349.448C61.1173 349.571 49.8983 349.666 36.064 349.666C22.2298 349.666 11.0107 349.571 11.0107 349.448C11.0107 349.325 22.2298 349.23 36.064 349.23C49.8983 349.23 61.1173 349.325 61.1173 349.448Z" fill="#E0E0E0"/>
<path d="M64.3297 344.009C64.3297 344.132 53.1107 344.227 39.2764 344.227C25.4422 344.227 14.2231 344.132 14.2231 344.009C14.2231 343.886 25.4422 343.791 39.2764 343.791C53.1107 343.791 64.3297 343.886 64.3297 344.009Z" fill="#E0E0E0"/>
<path d="M64.6422 358.81C64.6422 358.933 53.4232 359.028 39.5889 359.028C25.7547 359.028 14.5356 358.933 14.5356 358.81C14.5356 358.687 25.7547 358.592 39.5889 358.592C53.4232 358.592 64.6422 358.687 64.6422 358.81Z" fill="#E0E0E0"/>
<path d="M8.98294 364.495V382.565C8.98294 383.058 8.58497 383.465 8.08276 383.465H6.56668C6.07395 383.465 5.6665 383.863 5.6665 384.365V384.725C5.6665 385.218 6.06448 385.626 6.56668 385.626H8.08276C8.57549 385.626 8.98294 386.024 8.98294 386.526V398.02C8.98294 398.512 9.38091 398.92 9.88311 398.92H70.0811C70.5739 398.92 70.9813 398.522 70.9813 398.02V387.72C70.9813 387.227 70.5833 386.82 70.0811 386.82H67.2859C66.7931 386.82 66.3857 386.422 66.3857 385.919V385.086C66.3857 384.593 66.7837 384.185 67.2859 384.185H70.0811C70.5739 384.185 70.9813 383.787 70.9813 383.285V381.134C70.9813 380.642 71.3793 380.234 71.8815 380.234H72.1279C72.6206 380.234 73.028 379.836 73.028 379.334C73.028 378.841 72.6301 378.434 72.1279 378.434H71.5025C71.0097 378.434 70.6023 378.036 70.6023 377.534V364.495C70.6023 364.002 70.2043 363.595 69.7021 363.595H9.87364C9.38091 363.595 8.97346 363.993 8.97346 364.495H8.98294Z" fill="#F5F5F5"/>
<path d="M54.5127 364.552V397.792C54.5127 398.285 54.9107 398.692 55.4129 398.692H70.081C70.5737 398.692 70.9812 398.294 70.9812 397.792V387.492C70.9812 387 70.5832 386.592 70.081 386.592H67.2857C66.793 386.592 66.3855 386.194 66.3855 385.692V385.095C66.3855 384.593 66.793 384.185 67.2952 384.195L70.062 384.242C70.5642 384.242 70.9717 383.844 70.9717 383.342V381.201C70.9717 380.708 71.3791 380.3 71.8719 380.3H72.1372C72.6394 380.3 73.0468 379.893 73.0374 379.381V379.116C73.0184 378.633 72.6394 378.244 72.1561 378.235L71.4644 378.216C70.9812 378.206 70.5927 377.808 70.5927 377.316V364.486C70.5927 363.993 70.1852 363.586 69.6925 363.586L55.4129 363.633C54.9201 363.633 54.5222 364.04 54.5222 364.533L54.5127 364.552Z" fill="#E0E0E0"/>
<path d="M55.6784 385.332C55.6784 385.455 44.4593 385.55 30.6251 385.55C16.7908 385.55 5.57178 385.455 5.57178 385.332C5.57178 385.209 16.7908 385.114 30.6251 385.114C44.4593 385.114 55.6784 385.209 55.6784 385.332Z" fill="#E0E0E0"/>
<path d="M55.6784 383.314C55.6784 383.437 44.4593 383.532 30.6251 383.532C16.7908 383.532 5.57178 383.437 5.57178 383.314C5.57178 383.19 16.7908 383.096 30.6251 383.096C44.4593 383.096 55.6784 383.19 55.6784 383.314Z" fill="#E0E0E0"/>
<path d="M58.9001 377.884C58.9001 378.007 47.681 378.102 33.8468 378.102C20.0125 378.102 8.79346 378.007 8.79346 377.884C8.79346 377.761 20.0125 377.666 33.8468 377.666C47.681 377.666 58.9001 377.761 58.9001 377.884Z" fill="#E0E0E0"/>
<path d="M59.2126 392.675C59.2126 392.799 47.9935 392.893 34.1593 392.893C20.325 392.893 9.10596 392.799 9.10596 392.675C9.10596 392.552 20.325 392.457 34.1593 392.457C47.9935 392.457 59.2126 392.552 59.2126 392.675Z" fill="#E0E0E0"/>
<path d="M15.2559 194.078V212.148C15.2559 212.64 14.8579 213.048 14.3557 213.048H12.8396C12.3469 213.048 11.9395 213.446 11.9395 213.948V214.308C11.9395 214.801 12.3374 215.208 12.8396 215.208H14.3557C14.8484 215.208 15.2559 215.606 15.2559 216.108V227.602C15.2559 228.095 15.6539 228.502 16.1561 228.502H76.3541C76.8468 228.502 77.2543 228.104 77.2543 227.602V217.302C77.2543 216.81 76.8563 216.402 76.3541 216.402H73.5588C73.0661 216.402 72.6586 216.004 72.6586 215.502V214.668C72.6586 214.175 73.0566 213.768 73.5588 213.768H76.3541C76.8468 213.768 77.2543 213.37 77.2543 212.868V210.717C77.2543 210.224 77.6522 209.817 78.1544 209.817H78.4008C78.8935 209.817 79.301 209.419 79.301 208.916C79.301 208.424 78.903 208.016 78.4008 208.016H77.7754C77.2827 208.016 76.8752 207.618 76.8752 207.116V194.078C76.8752 193.585 76.4773 193.178 75.9751 193.178H16.1561C15.6633 193.178 15.2559 193.576 15.2559 194.078Z" fill="#F5F5F5"/>
<path d="M60.7856 194.135V227.375C60.7856 227.867 61.1836 228.275 61.6858 228.275H76.3539C76.8467 228.275 77.2541 227.877 77.2541 227.375V217.075C77.2541 216.582 76.8561 216.175 76.3539 216.175H73.5587C73.0659 216.175 72.6585 215.777 72.6585 215.275V214.678C72.6585 214.175 73.0659 213.768 73.5681 213.777L76.335 213.825C76.8372 213.825 77.2446 213.427 77.2446 212.925V210.783C77.2446 210.29 77.6521 209.883 78.1448 209.883H78.4101C78.9123 209.883 79.3198 209.475 79.3103 208.964V208.698C79.2913 208.215 78.9123 207.827 78.4291 207.817L77.7374 207.798C77.2541 207.789 76.8656 207.391 76.8656 206.898V194.068C76.8656 193.576 76.4582 193.168 75.9654 193.168L61.6858 193.215C61.1931 193.215 60.7951 193.623 60.7951 194.116L60.7856 194.135Z" fill="#E0E0E0"/>
<path d="M61.9606 214.914C61.9606 215.038 50.7416 215.132 36.9073 215.132C23.073 215.132 11.854 215.038 11.854 214.914C11.854 214.791 23.073 214.697 36.9073 214.697C50.7416 214.697 61.9606 214.791 61.9606 214.914Z" fill="#E0E0E0"/>
<path d="M61.9606 212.896C61.9606 213.019 50.7416 213.114 36.9073 213.114C23.073 213.114 11.854 213.019 11.854 212.896C11.854 212.773 23.073 212.678 36.9073 212.678C50.7416 212.678 61.9606 212.773 61.9606 212.896Z" fill="#E0E0E0"/>
<path d="M65.1823 207.467C65.1823 207.59 53.9633 207.685 40.129 207.685C26.2947 207.685 15.0757 207.59 15.0757 207.467C15.0757 207.344 26.2947 207.249 40.129 207.249C53.9633 207.249 65.1823 207.344 65.1823 207.467Z" fill="#E0E0E0"/>
<path d="M65.4855 222.258C65.4855 222.381 54.2665 222.476 40.4322 222.476C26.5979 222.476 15.3789 222.381 15.3789 222.258C15.3789 222.135 26.5979 222.04 40.4322 222.04C54.2665 222.04 65.4855 222.135 65.4855 222.258Z" fill="#E0E0E0"/>
<path d="M19.9366 228.408V246.477C19.9366 246.97 19.5386 247.378 19.0364 247.378H17.5203C17.0276 247.378 16.6201 247.776 16.6201 248.278V248.638C16.6201 249.131 17.0181 249.538 17.5203 249.538H19.0364C19.5291 249.538 19.9366 249.936 19.9366 250.438V261.932C19.9366 262.425 20.3345 262.832 20.8367 262.832H81.0348C81.5275 262.832 81.9349 262.434 81.9349 261.932V251.632C81.9349 251.139 81.537 250.732 81.0348 250.732H78.2395C77.7467 250.732 77.3393 250.334 77.3393 249.832V248.998C77.3393 248.505 77.7373 248.098 78.2395 248.098H81.0348C81.5275 248.098 81.9349 247.7 81.9349 247.198V245.047C81.9349 244.554 82.3329 244.146 82.8351 244.146H83.0815C83.5742 244.146 83.9816 243.748 83.9816 243.246C83.9816 242.754 83.5837 242.346 83.0815 242.346H82.4561C81.9634 242.346 81.5559 241.948 81.5559 241.446V228.408C81.5559 227.915 81.1579 227.507 80.6557 227.507H20.8367C20.344 227.507 19.9366 227.905 19.9366 228.408Z" fill="#F5F5F5"/>
<path d="M65.4663 228.464V261.705C65.4663 262.197 65.8643 262.605 66.3665 262.605H81.0346C81.5273 262.605 81.9348 262.207 81.9348 261.705V251.405C81.9348 250.912 81.5368 250.505 81.0346 250.505H78.2393C77.7466 250.505 77.3392 250.107 77.3392 249.604V249.007C77.3392 248.505 77.7466 248.098 78.2488 248.107L81.0157 248.155C81.5179 248.155 81.9253 247.757 81.9253 247.254V245.113C81.9253 244.62 82.3328 244.213 82.8255 244.213H83.0908C83.593 244.213 84.0004 243.805 83.991 243.294V243.028C83.972 242.545 83.593 242.157 83.1097 242.147L82.418 242.128C81.9348 242.119 81.5463 241.721 81.5463 241.228V228.398C81.5463 227.905 81.1388 227.498 80.6461 227.498L66.3665 227.545C65.8738 227.545 65.4758 227.953 65.4758 228.445L65.4663 228.464Z" fill="#E0E0E0"/>
<path d="M66.632 249.244C66.632 249.367 55.413 249.462 41.5787 249.462C27.7444 249.462 16.5254 249.367 16.5254 249.244C16.5254 249.121 27.7444 249.026 41.5787 249.026C55.413 249.026 66.632 249.121 66.632 249.244Z" fill="#E0E0E0"/>
<path d="M66.632 247.226C66.632 247.349 55.413 247.444 41.5787 247.444C27.7444 247.444 16.5254 247.349 16.5254 247.226C16.5254 247.103 27.7444 247.008 41.5787 247.008C55.413 247.008 66.632 247.103 66.632 247.226Z" fill="#E0E0E0"/>
<path d="M69.8537 241.797C69.8537 241.92 58.6346 242.014 44.8004 242.014C30.9661 242.014 19.7471 241.92 19.7471 241.797C19.7471 241.673 30.9661 241.579 44.8004 241.579C58.6346 241.579 69.8537 241.673 69.8537 241.797Z" fill="#E0E0E0"/>
<path d="M70.1662 256.588C70.1662 256.711 58.9471 256.806 45.1129 256.806C31.2786 256.806 20.0596 256.711 20.0596 256.588C20.0596 256.465 31.2786 256.37 45.1129 256.37C58.9471 256.37 70.1662 256.465 70.1662 256.588Z" fill="#E0E0E0"/>
<path d="M14.4976 262.273V280.343C14.4976 280.836 14.0996 281.243 13.5974 281.243H12.0813C11.5886 281.243 11.1812 281.641 11.1812 282.143V282.503C11.1812 282.996 11.5791 283.404 12.0813 283.404H13.5974C14.0901 283.404 14.4976 283.802 14.4976 284.304V295.798C14.4976 296.29 14.8956 296.698 15.3978 296.698H75.5958C76.0885 296.698 76.496 296.3 76.496 295.798V285.498C76.496 285.005 76.098 284.598 75.5958 284.598H72.8005C72.3078 284.598 71.9003 284.2 71.9003 283.697V282.864C71.9003 282.371 72.2983 281.963 72.8005 281.963H75.5958C76.0885 281.963 76.496 281.565 76.496 281.063V278.912C76.496 278.42 76.8939 278.012 77.3961 278.012H77.6425C78.1352 278.012 78.5427 277.614 78.5427 277.112C78.5427 276.619 78.1447 276.212 77.6425 276.212H77.0171C76.5244 276.212 76.1169 275.814 76.1169 275.312V262.273C76.1169 261.781 75.719 261.373 75.2168 261.373H15.3978C14.905 261.373 14.4976 261.771 14.4976 262.273Z" fill="#F5F5F5"/>
<path d="M60.0273 262.33V295.57C60.0273 296.063 60.4253 296.47 60.9275 296.47H75.5956C76.0884 296.47 76.4958 296.072 76.4958 295.57V285.27C76.4958 284.778 76.0978 284.37 75.5956 284.37H72.8004C72.3076 284.37 71.9002 283.972 71.9002 283.47V282.873C71.9002 282.371 72.3076 281.963 72.8098 281.973L75.5767 282.02C76.0789 282.02 76.4863 281.622 76.4863 281.12V278.979C76.4863 278.486 76.8938 278.078 77.3865 278.078H77.6518C78.154 278.078 78.5615 277.671 78.552 277.159V276.894C78.5331 276.411 78.154 276.022 77.6708 276.013L76.9791 275.994C76.4958 275.984 76.1073 275.586 76.1073 275.094V262.264C76.1073 261.771 75.6999 261.364 75.2071 261.364L60.9275 261.411C60.4348 261.411 60.0368 261.818 60.0368 262.311L60.0273 262.33Z" fill="#E0E0E0"/>
<path d="M61.2023 283.11C61.2023 283.233 49.9833 283.328 36.149 283.328C22.3147 283.328 11.0957 283.233 11.0957 283.11C11.0957 282.987 22.3147 282.892 36.149 282.892C49.9833 282.892 61.2023 282.987 61.2023 283.11Z" fill="#E0E0E0"/>
<path d="M61.2023 281.092C61.2023 281.215 49.9833 281.31 36.149 281.31C22.3147 281.31 11.0957 281.215 11.0957 281.092C11.0957 280.968 22.3147 280.874 36.149 280.874C49.9833 280.874 61.2023 280.968 61.2023 281.092Z" fill="#E0E0E0"/>
<path d="M64.424 275.662C64.424 275.785 53.205 275.88 39.3707 275.88C25.5364 275.88 14.3174 275.785 14.3174 275.662C14.3174 275.539 25.5364 275.444 39.3707 275.444C53.205 275.444 64.424 275.539 64.424 275.662Z" fill="#E0E0E0"/>
<path d="M64.7272 290.463C64.7272 290.586 53.5082 290.681 39.6739 290.681C25.8396 290.681 14.6206 290.586 14.6206 290.463C14.6206 290.34 25.8396 290.245 39.6739 290.245C53.5082 290.245 64.7272 290.34 64.7272 290.463Z" fill="#E0E0E0"/>
<path d="M311.764 38.0537H296.859V84.5975H311.764V38.0537Z" fill="#F5F5F5"/>
<path d="M334.012 48.6853H319.107V84.5976H334.012V48.6853Z" fill="#F5F5F5"/>
<path d="M354.612 63.2681H339.707V84.5975H354.612V63.2681Z" fill="#F5F5F5"/>
<path d="M582.015 399.574C582.015 399.697 451.717 399.801 291.022 399.801C130.326 399.801 0 399.697 0 399.574C0 399.45 130.27 399.346 291.022 399.346C451.774 399.346 582.015 399.45 582.015 399.574Z" fill="#263238"/>
<path d="M484.086 181.22C483.801 163.491 497.929 148.832 515.582 148.548C533.235 148.264 547.818 162.458 548.102 180.187C548.387 197.915 534.259 212.574 516.606 212.858C498.953 213.143 484.37 198.948 484.086 181.22ZM531.397 180.452C531.264 171.971 524.29 165.187 515.848 165.329C507.405 165.462 500.658 172.474 500.791 180.954C500.924 189.435 507.898 196.219 516.34 196.087C524.783 195.954 531.53 188.942 531.397 180.461V180.452Z" fill="#AD2446"/>
<path d="M484.086 181.219C483.801 163.491 497.929 148.832 515.582 148.548L515.848 165.329C507.405 165.462 500.658 172.474 500.791 180.954C500.924 189.435 507.898 196.219 516.34 196.077L516.606 212.858C498.953 213.143 484.37 198.948 484.086 181.219Z" fill="#5B9CD5"/>
<path d="M512.711 145.961C533.359 145.629 549.827 161.652 550.159 182.394L530.62 182.707C530.459 172.786 522.917 166.542 513.043 166.703L512.711 145.952V145.961Z" fill="#263238"/>
<path d="M238.77 60.7773C239.005 47.686 228.583 36.8826 215.492 36.6472C202.401 36.4118 191.597 46.8336 191.362 59.925C191.126 73.0163 201.548 83.8197 214.639 84.0551C227.731 84.2904 238.534 73.8686 238.77 60.7773Z" fill="#EABA36"/>
<g opacity="0.1">
<path d="M219.52 37.0683C206.661 34.6047 194.239 43.0285 191.775 55.8867C191.775 55.8867 207.998 59.7528 213.19 53.9253C218.383 48.0979 219.52 37.0778 219.52 37.0778V37.0683Z" fill="white"/>
</g>
<path d="M232.454 63.306C230.577 73.0848 221.14 79.4808 211.361 77.6046C201.582 75.7284 195.186 66.2908 197.062 56.5121C198.939 46.7333 208.376 40.3373 218.155 42.2135C227.934 44.0897 234.33 53.5273 232.454 63.306Z" fill="#FF725E"/>
<path d="M232.814 64.1399C230.966 73.786 221.652 80.0967 212.005 78.2489C202.359 76.4012 196.049 67.0868 197.896 57.4407C199.744 47.7946 209.059 41.4839 218.705 43.3316C228.351 45.1793 234.661 54.4938 232.814 64.1399Z" fill="#FF725E"/>
<path d="M232.814 64.1399C230.966 73.786 221.652 80.0967 212.005 78.2489C202.359 76.4012 196.049 67.0868 197.896 57.4407C199.744 47.7946 209.059 41.4839 218.705 43.3316C228.351 45.1793 234.661 54.4938 232.814 64.1399Z" fill="#EABA36"/>
<path d="M216.336 59.4022L217.189 54.9392H217.208C217.966 55.1761 218.733 55.5361 219.463 56.0099C220.06 56.4837 220.439 56.929 220.439 56.929L220.524 56.8059L221.519 55.3277L221.746 54.9866L221.111 54.0011L220.695 54.0959C219.813 53.4231 218.771 52.8261 217.634 52.5419L218.108 50.0877L217.463 49.3202L217.35 49.9361L216.298 49.7371L215.815 52.2387C212.299 51.907 210.281 53.5652 209.845 55.8204C209.258 58.9 211.74 60.1981 214.081 61.2688L213.228 65.6939C211.579 65.2201 210.035 64.2536 209.125 63.1639L207.704 65.2107C208.661 66.4235 210.632 67.5416 212.773 68.0912L212.413 69.9484L211.551 69.7968L212.299 70.5454L214.119 70.896L214.592 68.4134C218.136 68.7261 220.164 67.0963 220.6 64.8411C221.187 61.7616 218.657 60.4729 216.317 59.4116L216.336 59.4022ZM214.611 58.5873C213.398 57.9619 212.546 57.2986 212.745 56.2373C212.934 55.2613 213.749 54.5981 215.369 54.6549L214.611 58.5967V58.5873ZM215.076 65.9971L215.824 62.0837C217.084 62.7186 217.956 63.4103 217.748 64.4905C217.568 65.4381 216.734 66.0635 215.076 65.9971Z" fill="#FF725E"/>
<path d="M213.977 67.6648L213.503 70.1474L211.684 69.7968L212.157 67.3426C210.016 66.793 208.045 65.6844 207.088 64.4621L208.509 62.4154C209.428 63.505 210.963 64.4715 212.612 64.9453L213.465 60.5202C211.124 59.4495 208.642 58.1514 209.229 55.0718C209.665 52.8166 211.674 51.1584 215.199 51.4901L215.682 48.9885L217.501 49.3391L217.028 51.7933C218.648 52.2007 220.211 53.0061 221.263 54.0106L219.927 56.0762C218.885 55.1666 217.719 54.5507 216.573 54.1906L215.711 58.663C218.051 59.7338 220.581 61.0224 219.994 64.102C219.558 66.3572 217.53 67.987 213.986 67.6743L213.977 67.6648ZM213.977 57.8387L214.735 53.8968C213.114 53.84 212.299 54.5128 212.11 55.4793C211.901 56.5405 212.764 57.2133 213.977 57.8292V57.8387ZM217.113 63.7419C217.321 62.6617 216.44 61.9605 215.189 61.3351L214.441 65.2485C216.099 65.3149 216.933 64.6895 217.113 63.7419Z" fill="white"/>
<path d="M193.14 67.4658C193.14 67.4658 193.111 67.3995 193.064 67.2668C193.016 67.1152 192.96 66.9162 192.884 66.6793C192.808 66.4235 192.713 66.1108 192.637 65.7412C192.562 65.3717 192.448 64.9548 192.382 64.481C192.344 64.2441 192.306 63.9977 192.258 63.7419C192.221 63.4861 192.202 63.2113 192.164 62.9365C192.088 62.3774 192.078 61.7805 192.05 61.1456C192.031 59.8854 192.097 58.4925 192.306 57.0522C192.533 55.6119 192.874 54.2664 193.272 53.063C193.49 52.466 193.68 51.8975 193.907 51.3953C194.021 51.1395 194.116 50.8836 194.229 50.6562C194.343 50.4193 194.457 50.2014 194.561 49.9834C194.76 49.5476 194.997 49.1875 195.177 48.8559C195.357 48.5242 195.537 48.2494 195.689 48.0315C195.831 47.823 195.944 47.6525 196.03 47.5198C196.105 47.4061 196.153 47.3492 196.162 47.3492C196.162 47.3492 196.134 47.4156 196.058 47.5388C195.973 47.6714 195.869 47.8514 195.745 48.0599C195.603 48.2873 195.433 48.5621 195.262 48.8938C195.082 49.2254 194.864 49.5949 194.675 50.0308C194.57 50.2488 194.466 50.4667 194.353 50.7036C194.239 50.9405 194.144 51.1868 194.04 51.4427C193.812 51.9544 193.632 52.5229 193.424 53.1104C193.045 54.3043 192.704 55.6403 192.476 57.0711C192.268 58.5019 192.192 59.8759 192.211 61.1361C192.239 61.7615 192.249 62.3585 192.315 62.9081C192.344 63.1829 192.363 63.4576 192.391 63.7135C192.429 63.9693 192.467 64.2157 192.495 64.4526C192.552 64.9263 192.656 65.3433 192.723 65.7128C192.789 66.0824 192.865 66.3951 192.941 66.6509C192.998 66.8973 193.045 67.0868 193.083 67.2479C193.111 67.3805 193.13 67.4563 193.121 67.4563L193.14 67.4658Z" fill="white"/>
<path d="M210.395 57.2133C210.395 57.2133 210.167 57.0238 209.978 56.6069C209.788 56.19 209.646 55.5362 209.798 54.835C209.959 54.1338 210.376 53.6032 210.726 53.3189C211.086 53.0251 211.361 52.9304 211.371 52.9493C211.39 52.9778 211.134 53.1009 210.812 53.4136C210.489 53.7169 210.12 54.2285 209.968 54.8729C209.817 55.5267 209.93 56.1521 210.091 56.5595C210.243 56.9764 210.414 57.1944 210.395 57.2133Z" fill="white"/>
<path d="M215.644 51.1964C215.597 51.1964 215.616 50.8553 215.701 50.4478C215.777 50.0498 215.881 49.7277 215.928 49.7371C215.976 49.7371 215.957 50.0783 215.871 50.4857C215.796 50.8837 215.691 51.2058 215.644 51.1964Z" fill="white"/>
<path d="M219.842 42.0619C219.842 42.0619 219.633 42.024 219.273 41.9292C219.093 41.8818 218.875 41.825 218.619 41.7681C218.364 41.7113 218.07 41.6355 217.738 41.5881C217.407 41.5312 217.056 41.4649 216.667 41.427C216.279 41.3702 215.862 41.3512 215.426 41.3133C214.554 41.2754 213.588 41.2849 212.574 41.3796C211.57 41.4839 210.622 41.6639 209.769 41.8818C209.343 41.9955 208.945 42.0998 208.575 42.2324C208.206 42.3461 207.865 42.4788 207.552 42.602C207.239 42.7157 206.964 42.8483 206.728 42.9526C206.481 43.0568 206.282 43.1516 206.112 43.2368C205.78 43.3979 205.591 43.4832 205.581 43.4737C205.581 43.4642 205.752 43.36 206.074 43.1705C206.235 43.0757 206.434 42.962 206.68 42.8578C206.917 42.7441 207.192 42.602 207.505 42.4788C207.817 42.3461 208.149 42.2135 208.528 42.0903C208.897 41.9482 209.305 41.8439 209.731 41.7207C210.584 41.5028 211.541 41.3133 212.565 41.1996C213.578 41.1048 214.554 41.1048 215.445 41.1522C215.89 41.1901 216.307 41.2185 216.696 41.2849C217.084 41.3322 217.444 41.3986 217.776 41.4649C218.108 41.5218 218.401 41.607 218.657 41.6734C218.913 41.7397 219.131 41.806 219.311 41.8629C219.662 41.9766 219.861 42.0524 219.861 42.0619H219.842Z" fill="white"/>
<path d="M213.654 82.9678C213.654 82.9678 213.502 82.9867 213.218 82.9962C212.934 83.0057 212.526 82.9962 212.024 82.9773C211.02 82.9204 209.627 82.7309 208.149 82.2855C206.671 81.8402 205.401 81.2338 204.539 80.7221C204.103 80.4662 203.762 80.2483 203.534 80.0778C203.307 79.9167 203.184 79.8219 203.184 79.8124C203.184 79.803 203.326 79.8788 203.563 80.0209C203.8 80.1725 204.15 80.3715 204.595 80.6084C205.477 81.0822 206.737 81.6696 208.196 82.1055C209.655 82.5414 211.029 82.7593 212.024 82.8446C212.526 82.892 212.924 82.9109 213.209 82.9204C213.493 82.9299 213.645 82.9488 213.645 82.9583L213.654 82.9678Z" fill="white"/>
<path d="M353.731 166.191C355.19 171.46 352.11 176.908 346.842 178.367C341.574 179.827 336.125 176.747 334.666 171.479C333.207 166.21 336.286 160.762 341.555 159.303C346.823 157.843 352.272 160.923 353.731 166.191Z" fill="#EABA36"/>
<g opacity="0.1">
<path d="M341.555 159.303C336.286 160.762 333.207 166.21 334.666 171.479C334.666 171.479 341.45 169.925 342.313 166.779C343.175 163.633 341.555 159.303 341.555 159.303Z" fill="white"/>
</g>
<path d="M351.248 166.722C352.357 170.721 350.016 174.871 346.008 175.98C342.01 177.088 337.859 174.748 336.751 170.74C335.642 166.741 337.983 162.591 341.991 161.482C345.989 160.373 350.14 162.714 351.248 166.722Z" fill="#FF725E"/>
<path d="M351.542 166.959C352.641 170.91 350.32 174.994 346.378 176.093C342.427 177.192 338.343 174.871 337.244 170.929C336.144 166.978 338.466 162.894 342.408 161.795C346.359 160.695 350.443 163.017 351.542 166.959Z" fill="#FF725E"/>
<path d="M351.542 166.959C352.641 170.91 350.32 174.994 346.378 176.093C342.427 177.192 338.343 174.871 337.244 170.929C336.144 166.978 338.466 162.894 342.408 161.795C346.359 160.695 350.443 163.017 351.542 166.959Z" fill="#EABA36"/>
<path d="M344.502 168.247L343.99 166.419C344.322 166.371 344.673 166.362 345.033 166.4C345.345 166.466 345.563 166.561 345.563 166.561V166.495L345.667 165.755L345.686 165.585L345.269 165.329L345.137 165.443C344.682 165.357 344.18 165.32 343.706 165.424L343.431 164.419L343.052 164.258L343.119 164.514L342.692 164.637L342.976 165.661C341.602 166.191 341.157 167.177 341.413 168.105C341.764 169.366 342.929 169.394 344.009 169.356L344.511 171.166C343.801 171.289 343.052 171.223 342.512 170.976L342.36 172.009C342.948 172.284 343.886 172.341 344.786 172.142L344.995 172.9L344.644 173.004L345.061 173.146L345.8 172.938L345.516 171.924C346.899 171.384 347.354 170.398 347.098 169.47C346.748 168.21 345.563 168.2 344.492 168.229L344.502 168.247ZM343.706 168.266C343.137 168.266 342.692 168.162 342.569 167.736C342.455 167.338 342.635 166.94 343.251 166.656L343.697 168.266H343.706ZM345.251 170.948L344.805 169.347C345.393 169.347 345.847 169.451 345.971 169.896C346.075 170.285 345.885 170.673 345.251 170.957V170.948Z" fill="#FF725E"/>
<path d="M345.146 171.772L345.43 172.786L344.691 172.995L344.417 171.99C343.516 172.18 342.569 172.132 341.991 171.858L342.142 170.825C342.683 171.062 343.441 171.138 344.142 171.014L343.64 169.205C342.569 169.242 341.394 169.205 341.043 167.954C340.787 167.025 341.233 166.04 342.607 165.509L342.322 164.486L343.062 164.277L343.336 165.282C344.019 165.13 344.748 165.139 345.326 165.329L345.213 166.343C344.653 166.191 344.104 166.182 343.611 166.258L344.123 168.086C345.194 168.048 346.378 168.067 346.729 169.328C346.984 170.256 346.53 171.242 345.146 171.782V171.772ZM343.327 168.096L342.882 166.485C342.266 166.76 342.086 167.167 342.199 167.565C342.322 168.001 342.768 168.096 343.336 168.096H343.327ZM345.592 169.726C345.468 169.28 345.014 169.186 344.426 169.176L344.871 170.777C345.506 170.493 345.705 170.105 345.592 169.716V169.726Z" fill="white"/>
<path d="M337.319 175.563C337.319 175.563 337.291 175.544 337.253 175.506C337.206 175.458 337.149 175.392 337.073 175.316C336.997 175.24 336.902 175.136 336.808 175.013C336.713 174.89 336.59 174.757 336.476 174.587C336.419 174.501 336.353 174.425 336.296 174.331C336.23 174.245 336.173 174.141 336.116 174.046C335.983 173.847 335.87 173.63 335.737 173.402C335.5 172.938 335.263 172.407 335.074 171.829C334.894 171.251 334.77 170.683 334.695 170.162C334.666 169.896 334.628 169.65 334.628 169.413C334.628 169.299 334.609 169.186 334.609 169.072C334.609 168.968 334.609 168.863 334.609 168.759C334.609 168.56 334.619 168.38 334.628 168.219C334.628 168.058 334.647 167.925 334.666 167.812C334.676 167.707 334.695 167.622 334.704 167.556C334.704 167.499 334.723 167.47 334.723 167.47C334.723 167.47 334.723 167.499 334.723 167.556C334.723 167.622 334.714 167.707 334.704 167.812C334.695 167.925 334.685 168.058 334.676 168.21C334.676 168.371 334.657 168.541 334.666 168.74C334.666 168.835 334.666 168.939 334.666 169.053C334.666 169.157 334.676 169.271 334.685 169.385C334.695 169.621 334.733 169.868 334.761 170.124C334.837 170.645 334.96 171.204 335.14 171.782C335.33 172.36 335.557 172.881 335.794 173.355C335.917 173.582 336.031 173.81 336.163 173.999C336.23 174.094 336.277 174.198 336.343 174.283C336.4 174.369 336.467 174.454 336.523 174.539C336.628 174.7 336.751 174.842 336.846 174.966C336.94 175.089 337.026 175.193 337.101 175.278C337.168 175.354 337.225 175.42 337.263 175.477C337.3 175.525 337.319 175.544 337.319 175.553V175.563Z" fill="white"/>
<path d="M341.867 168.532C341.867 168.532 341.744 168.503 341.602 168.38C341.45 168.257 341.28 168.039 341.204 167.755C341.138 167.461 341.195 167.186 341.27 167.016C341.346 166.836 341.431 166.75 341.441 166.76C341.45 166.76 341.384 166.864 341.318 167.035C341.251 167.205 341.214 167.461 341.27 167.736C341.337 168.011 341.498 168.219 341.63 168.342C341.763 168.465 341.867 168.522 341.867 168.532Z" fill="white"/>
<path d="M342.72 165.301C342.72 165.301 342.644 165.177 342.606 165.016C342.559 164.855 342.54 164.713 342.559 164.713C342.578 164.713 342.635 164.836 342.673 164.997C342.72 165.158 342.739 165.301 342.72 165.301Z" fill="white"/>
<path d="M342.597 161.112C342.597 161.112 342.512 161.141 342.36 161.169C342.285 161.188 342.19 161.207 342.086 161.236C341.981 161.264 341.858 161.292 341.726 161.33C341.593 161.368 341.451 161.416 341.29 161.473C341.138 161.52 340.977 161.596 340.806 161.662C340.475 161.814 340.115 161.994 339.755 162.212C339.395 162.439 339.072 162.685 338.798 162.922C338.665 163.045 338.532 163.159 338.419 163.273C338.305 163.387 338.201 163.5 338.106 163.604C338.011 163.709 337.935 163.803 337.859 163.889C337.784 163.974 337.727 164.05 337.679 164.107C337.585 164.23 337.528 164.296 337.528 164.296C337.528 164.296 337.566 164.22 337.661 164.088C337.708 164.021 337.755 163.946 337.831 163.86C337.897 163.775 337.973 163.671 338.068 163.567C338.163 163.462 338.257 163.349 338.381 163.235C338.494 163.112 338.627 162.998 338.76 162.875C339.034 162.629 339.366 162.382 339.726 162.155C340.086 161.927 340.456 161.747 340.797 161.605C340.967 161.539 341.129 161.472 341.29 161.425C341.441 161.368 341.593 161.33 341.726 161.292C341.858 161.255 341.981 161.226 342.095 161.207C342.199 161.179 342.294 161.169 342.379 161.16C342.531 161.141 342.616 161.131 342.616 161.131L342.597 161.112Z" fill="white"/>
<path d="M347.866 177.553C347.866 177.553 347.809 177.59 347.705 177.647C347.6 177.704 347.449 177.78 347.25 177.856C346.861 178.017 346.312 178.206 345.677 178.311C345.042 178.415 344.454 178.424 344.038 178.396C343.829 178.386 343.658 178.367 343.545 178.339C343.431 178.32 343.365 178.311 343.365 178.301C343.365 178.301 343.431 178.301 343.545 178.301C343.658 178.311 343.829 178.32 344.038 178.329C344.454 178.348 345.032 178.329 345.658 178.225C346.283 178.121 346.842 177.941 347.231 177.789C347.43 177.714 347.581 177.647 347.686 177.6C347.79 177.552 347.856 177.524 347.856 177.534L347.866 177.553Z" fill="white"/>
<path d="M221.491 183.361C223.898 192.031 218.819 201.014 210.139 203.411C201.469 205.818 192.486 200.739 190.089 192.059C187.682 183.389 192.761 174.407 201.441 172.009C210.111 169.602 219.093 174.681 221.491 183.361Z" fill="#EABA36"/>
<g opacity="0.1">
<path d="M201.44 172.019C192.77 174.425 187.691 183.399 190.089 192.069C190.089 192.069 201.26 189.501 202.682 184.327C204.103 179.144 201.44 172.019 201.44 172.019Z" fill="white"/>
</g>
<path d="M217.407 184.223C219.236 190.818 215.37 197.641 208.784 199.469C202.189 201.298 195.367 197.432 193.538 190.847C191.709 184.252 195.575 177.429 202.161 175.6C208.756 173.772 215.578 177.638 217.407 184.223Z" fill="#FF725E"/>
<path d="M217.89 184.631C219.69 191.131 215.881 197.868 209.381 199.668C202.881 201.469 196.144 197.66 194.343 191.159C192.543 184.659 196.352 177.922 202.852 176.122C209.352 174.321 216.09 178.13 217.89 184.631Z" fill="#FF725E"/>
<path d="M217.89 184.631C219.69 191.131 215.881 197.868 209.381 199.668C202.881 201.469 196.144 197.66 194.343 191.159C192.543 184.659 196.352 177.922 202.852 176.122C209.352 174.321 216.09 178.13 217.89 184.631Z" fill="#EABA36"/>
<path d="M206.292 186.744L205.458 183.73C205.458 183.73 205.468 183.73 205.477 183.73C206.017 183.645 206.595 183.636 207.192 183.702C207.704 183.806 208.073 183.967 208.073 183.967V183.863L208.253 182.65L208.291 182.375L207.6 181.959L207.372 182.148C206.624 181.996 205.799 181.949 205.013 182.12L204.558 180.461L203.923 180.187L204.037 180.604L203.326 180.803L203.79 182.489C201.526 183.361 200.787 184.991 201.213 186.516C201.791 188.591 203.715 188.639 205.486 188.582L206.311 191.567C205.145 191.775 203.904 191.652 203.013 191.264L202.758 192.96C203.724 193.414 205.269 193.5 206.756 193.187L207.107 194.438L206.529 194.608L207.221 194.845L208.443 194.504L207.979 192.836C210.253 191.946 211.011 190.325 210.584 188.8C210.006 186.725 208.054 186.706 206.292 186.763V186.744ZM204.984 186.772C204.046 186.763 203.317 186.611 203.118 185.891C202.938 185.237 203.231 184.574 204.245 184.119L204.984 186.772ZM207.524 191.197L206.794 188.554C207.761 188.554 208.509 188.724 208.718 189.454C208.898 190.098 208.576 190.733 207.533 191.197H207.524Z" fill="#FF725E"/>
<path d="M207.363 192.552L207.827 194.22L206.605 194.561L206.15 192.903C204.662 193.215 203.108 193.13 202.151 192.675L202.407 190.979C203.307 191.377 204.539 191.5 205.704 191.282L204.88 188.298C203.108 188.355 201.185 188.307 200.607 186.232C200.18 184.706 200.919 183.077 203.184 182.205L202.72 180.518L203.942 180.177L204.397 181.835C205.515 181.589 206.728 181.608 207.685 181.902L207.495 183.579C206.576 183.332 205.667 183.314 204.852 183.446L205.685 186.459C207.457 186.403 209.409 186.421 209.978 188.497C210.404 190.022 209.646 191.643 207.363 192.533V192.552ZM204.368 186.507L203.629 183.854C202.615 184.308 202.312 184.972 202.502 185.626C202.701 186.346 203.43 186.488 204.368 186.507ZM208.102 189.188C207.903 188.459 207.145 188.298 206.178 188.288L206.908 190.932C207.95 190.468 208.272 189.833 208.092 189.188H208.102Z" fill="white"/>
<path d="M194.467 198.787C194.467 198.787 194.429 198.759 194.362 198.683C194.287 198.607 194.192 198.503 194.069 198.38C193.946 198.247 193.794 198.086 193.633 197.877C193.472 197.678 193.273 197.451 193.093 197.176C192.998 197.044 192.894 196.901 192.79 196.759C192.685 196.617 192.591 196.456 192.486 196.285C192.268 195.963 192.079 195.603 191.87 195.224C191.472 194.457 191.093 193.575 190.781 192.628C190.477 191.671 190.278 190.733 190.155 189.88C190.108 189.454 190.051 189.037 190.042 188.658C190.042 188.468 190.013 188.279 190.013 188.099C190.013 187.919 190.013 187.748 190.013 187.587C190.013 187.255 190.032 186.962 190.051 186.706C190.061 186.45 190.089 186.222 190.117 186.042C190.136 185.872 190.155 185.73 190.174 185.626C190.193 185.531 190.203 185.483 190.203 185.483C190.203 185.483 190.203 185.531 190.203 185.635C190.203 185.739 190.184 185.881 190.165 186.052C190.146 186.232 190.127 186.459 190.117 186.715C190.117 186.971 190.089 187.265 190.098 187.596C190.098 187.758 190.098 187.928 190.098 188.108C190.098 188.288 190.117 188.468 190.136 188.658C190.155 189.037 190.212 189.444 190.26 189.871C190.392 190.723 190.591 191.652 190.885 192.6C191.198 193.547 191.567 194.419 191.956 195.186C192.164 195.565 192.354 195.925 192.562 196.248C192.666 196.409 192.752 196.57 192.856 196.721C192.96 196.864 193.055 197.006 193.15 197.138C193.33 197.413 193.519 197.64 193.671 197.839C193.822 198.048 193.974 198.219 194.088 198.351C194.201 198.484 194.287 198.588 194.362 198.673C194.419 198.749 194.457 198.787 194.448 198.787H194.467Z" fill="white"/>
<path d="M201.961 187.208C201.961 187.208 201.762 187.161 201.516 186.962C201.27 186.763 200.985 186.403 200.862 185.929C200.749 185.446 200.843 185 200.976 184.706C201.109 184.413 201.251 184.28 201.26 184.29C201.279 184.299 201.165 184.46 201.061 184.744C200.957 185.029 200.881 185.455 200.985 185.9C201.09 186.346 201.355 186.696 201.573 186.905C201.791 187.113 201.971 187.199 201.961 187.217V187.208Z" fill="white"/>
<path d="M203.364 181.902C203.364 181.902 203.241 181.703 203.165 181.428C203.089 181.153 203.051 180.926 203.089 180.916C203.127 180.907 203.212 181.115 203.288 181.39C203.364 181.665 203.402 181.892 203.364 181.902Z" fill="white"/>
<path d="M203.156 174.994C203.156 174.994 203.023 175.032 202.767 175.089C202.644 175.117 202.492 175.146 202.312 175.193C202.132 175.24 201.933 175.278 201.715 175.354C201.497 175.42 201.26 175.487 201.005 175.582C200.749 175.667 200.483 175.781 200.209 175.894C199.659 176.141 199.062 176.434 198.475 176.804C197.887 177.173 197.357 177.581 196.902 177.969C196.674 178.168 196.456 178.358 196.276 178.547C196.077 178.737 195.916 178.917 195.755 179.087C195.594 179.249 195.471 179.419 195.357 179.552C195.234 179.684 195.139 179.817 195.063 179.912C194.912 180.111 194.817 180.225 194.808 180.225C194.808 180.225 194.874 180.101 195.026 179.883C195.092 179.779 195.187 179.647 195.3 179.504C195.414 179.362 195.537 179.192 195.689 179.021C195.84 178.851 196.002 178.661 196.201 178.472C196.39 178.273 196.598 178.083 196.826 177.875C197.281 177.477 197.821 177.069 198.408 176.69C199.005 176.321 199.602 176.017 200.161 175.781C200.446 175.667 200.711 175.563 200.967 175.477C201.223 175.383 201.469 175.316 201.687 175.259C201.905 175.193 202.113 175.155 202.293 175.117C202.473 175.079 202.625 175.051 202.758 175.032C203.013 174.994 203.156 174.975 203.156 174.985V174.994Z" fill="white"/>
<path d="M211.835 202.075C211.835 202.075 211.75 202.141 211.579 202.227C211.409 202.321 211.153 202.445 210.84 202.577C210.205 202.852 209.286 203.155 208.244 203.335C207.201 203.515 206.235 203.525 205.543 203.477C205.202 203.459 204.918 203.421 204.728 203.392C204.539 203.364 204.435 203.345 204.435 203.335C204.435 203.335 204.539 203.335 204.738 203.345C204.927 203.364 205.212 203.383 205.553 203.392C206.244 203.421 207.192 203.392 208.225 203.212C209.258 203.032 210.167 202.748 210.812 202.501C211.134 202.378 211.39 202.265 211.56 202.189C211.74 202.113 211.835 202.075 211.835 202.075Z" fill="white"/>
<path d="M310.807 276.477H253.84V399.128H310.807V276.477Z" fill="#393838"/>
<path d="M293.154 399.128C293.021 399.128 292.917 371.981 292.917 338.494C292.917 305.008 293.021 277.86 293.154 277.86C293.287 277.86 293.391 305.008 293.391 338.494C293.391 371.981 293.287 399.128 293.154 399.128Z" fill="#263238"/>
<path d="M241.295 233.231H184.328V399.128H241.295V233.231Z" fill="#EABA36"/>
<path d="M223.632 399.128C223.499 399.128 223.395 362.411 223.395 317.118C223.395 271.825 223.499 235.097 223.632 235.097C223.765 235.097 223.869 271.815 223.869 317.118C223.869 362.42 223.765 399.128 223.632 399.128Z" fill="#263238"/>
<path d="M381.096 312.181H324.129V399.128H381.096V312.181Z" fill="#AD2446"/>
<path d="M363.434 399.128C363.301 399.128 363.197 379.883 363.197 356.147C363.197 332.411 363.301 313.157 363.434 313.157C363.566 313.157 363.671 332.402 363.671 356.147C363.671 379.893 363.566 399.128 363.434 399.128Z" fill="#263238"/>
<path d="M449.851 351.684H392.884V399.128H449.851V351.684Z" fill="#5B9CD5"/>
<path d="M432.188 399.128C432.055 399.128 431.951 388.629 431.951 375.676C431.951 362.723 432.055 352.224 432.188 352.224C432.321 352.224 432.425 362.723 432.425 375.676C432.425 388.629 432.321 399.128 432.188 399.128Z" fill="#263238"/>
<path d="M519.373 368.105H462.406V399.138H519.373V368.105Z" fill="#393838"/>
<g opacity="0.3">
<path d="M519.373 368.105H501.71V399.138H519.373V368.105Z" fill="#393838"/>
</g>
<path d="M501.71 399.128C501.577 399.128 501.473 392.258 501.473 383.787C501.473 375.316 501.577 368.446 501.71 368.446C501.843 368.446 501.947 375.316 501.947 383.787C501.947 392.258 501.843 399.128 501.71 399.128Z" fill="#393838"/>
<path d="M171.773 178.699H114.806V399.1H171.773V178.699Z" fill="#5B9CD5"/>
<path d="M154.11 400C153.977 400 153.873 351.011 153.873 290.595C153.873 230.179 153.977 181.182 154.11 181.182C154.243 181.182 154.347 230.161 154.347 290.595C154.347 351.03 154.243 400 154.11 400Z" fill="#263238"/>
<path d="M102.251 133.965H45.2837V400H102.251V133.965Z" fill="#AD2446"/>
<path d="M84.588 400C84.4553 400 84.3511 341.11 84.3511 268.489C84.3511 195.869 84.4553 136.969 84.588 136.969C84.7206 136.969 84.8249 195.84 84.8249 268.489C84.8249 341.138 84.7206 400 84.588 400Z" fill="#263238"/>
<path d="M90.4947 110.354C107.053 99.1437 111.388 76.633 100.177 60.075C88.9664 43.5171 66.4557 39.1822 49.8977 50.3928C33.3398 61.6033 29.0049 84.1141 40.2155 100.672C51.426 117.23 73.9368 121.565 90.4947 110.354Z" fill="#FF725E"/>
<path opacity="0.3" d="M90.4947 110.354C107.053 99.1437 111.388 76.633 100.177 60.075C88.9664 43.5171 66.4557 39.1822 49.8977 50.3928C33.3398 61.6033 29.0049 84.1141 40.2155 100.672C51.426 117.23 73.9368 121.565 90.4947 110.354Z" fill="black"/>
<path d="M90.4986 106.361C107.057 95.1504 111.391 72.6397 100.181 56.0818C88.9703 39.5238 66.4596 35.189 49.9016 46.3995C33.3437 57.6101 29.0088 80.1208 40.2194 96.6787C51.4299 113.237 73.9407 117.572 90.4986 106.361Z" fill="#AD2446"/>
<path d="M70.1947 100.63C83.5864 100.63 94.4425 89.774 94.4425 76.3823C94.4425 62.9905 83.5864 52.1344 70.1947 52.1344C56.8029 52.1344 45.9468 62.9905 45.9468 76.3823C45.9468 89.774 56.8029 100.63 70.1947 100.63Z" fill="white"/>
<path d="M78.5854 84.7684C83.2184 80.1355 83.2184 72.624 78.5854 67.9911C73.9525 63.3582 66.441 63.3582 61.8081 67.9911C57.1752 72.624 57.1752 80.1355 61.8081 84.7684C66.441 89.4014 73.9525 89.4014 78.5854 84.7684Z" fill="#AD2446"/>
<path d="M99.3033 45.7195L98.3179 37.9969L106.183 29.5826L106.742 37.9211L99.3033 45.7195Z" fill="#455A64"/>
<path d="M116.179 39.5793L108.201 38.9255L100.204 46.6197L108.201 47.4725L116.179 39.5793Z" fill="#455A64"/>
<path opacity="0.3" d="M71.7769 76.2023L99.4644 55.0624C98.5263 53.66 97.3324 52.2482 95.9963 50.8363L71.7769 74.3167V76.2023Z" fill="black"/>
<path d="M107.462 35.846C103.226 40.1384 98.9906 44.4213 94.7645 48.7137C88.0463 55.5171 81.3282 62.3206 74.6195 69.1335C73.075 70.6969 71.5305 72.2604 69.986 73.8239C68.5173 75.3115 70.8104 77.6046 72.2791 76.117C76.5146 71.8245 80.7502 67.5416 84.9763 63.2492C91.6944 56.4458 98.4126 49.6423 105.121 42.8294C106.666 41.266 108.21 39.7025 109.755 38.139C111.223 36.6514 108.93 34.3583 107.462 35.846Z" fill="#263238"/>
<path d="M70.1947 30.9471C70.0715 30.9471 69.9673 24.0205 69.9673 15.4735C69.9673 6.92661 70.0715 0 70.1947 0C70.3179 0 70.4221 6.92661 70.4221 15.4735C70.4221 24.0205 70.3179 30.9471 70.1947 30.9471Z" fill="#263238"/>
<path d="M93.5709 14.8008C93.6751 14.8766 91.1925 18.3447 88.0466 22.5613C84.8913 26.7684 82.2571 30.1228 82.1623 30.0469C82.0581 29.9711 84.5407 26.5031 87.6866 22.2865C90.8419 18.0794 93.4761 14.725 93.5709 14.8008Z" fill="#263238"/>
<path d="M46.5342 14.0901C46.6479 14.0333 48.7894 17.7193 51.3288 22.3149C53.8683 26.92 55.8392 30.7007 55.735 30.7671C55.6307 30.8239 53.4798 27.1474 50.9403 22.5328C48.4009 17.9277 46.43 14.147 46.5342 14.0901Z" fill="#263238"/>
<path d="M432.975 108.978L439.882 108.173C442.668 110.996 446.24 113.119 450.372 114.133C462.263 117.051 474.278 109.783 477.197 97.8916C480.115 85.9998 472.848 73.9849 460.956 71.0664C449.064 68.1479 437.049 75.4157 434.131 87.3075C432.908 92.2726 433.477 97.2568 435.4 101.597L432.975 108.978Z" fill="white"/>
<path d="M432.975 108.978C432.975 108.978 433.013 108.826 433.107 108.514C433.212 108.182 433.354 107.708 433.543 107.111C433.951 105.832 434.538 103.965 435.296 101.549L435.353 101.379L435.467 101.521C435.467 101.521 435.467 101.521 435.467 101.53L435.296 101.634C434.102 98.9813 433.041 95.229 433.401 90.766C433.562 88.5488 434.121 86.1799 435.116 83.8394C436.102 81.499 437.57 79.168 439.532 77.1213C441.493 75.0746 443.957 73.3026 446.79 72.0803C449.623 70.8485 452.826 70.1662 456.133 70.2326C462.737 70.2989 469.711 73.6911 473.9 79.6512C476.013 82.6834 477.424 86.1609 477.841 89.6953C478.296 93.2297 477.889 96.7641 476.79 99.9478C475.709 103.141 473.871 105.946 471.673 108.192C469.474 110.437 466.897 112.124 464.234 113.223C458.89 115.431 453.385 115.298 449.149 113.953C444.857 112.636 441.777 110.286 439.788 108.239L439.863 108.267C437.618 108.504 435.884 108.684 434.68 108.817C434.121 108.874 433.685 108.921 433.373 108.95C433.079 108.978 432.946 108.987 432.946 108.987C432.946 108.987 433.107 108.959 433.411 108.921C433.733 108.883 434.169 108.817 434.747 108.741C435.922 108.59 437.637 108.372 439.844 108.087H439.892L439.93 108.116C441.929 110.115 444.999 112.408 449.244 113.678C453.432 114.976 458.852 115.071 464.102 112.882C466.708 111.792 469.238 110.125 471.389 107.917C473.53 105.709 475.33 102.952 476.382 99.8152C477.453 96.6882 477.841 93.2202 477.396 89.7616C476.989 86.2936 475.605 82.8919 473.53 79.9166C469.427 74.0702 462.595 70.7443 456.123 70.6684C452.883 70.6021 449.737 71.2654 446.951 72.4593C444.165 73.6532 441.74 75.3873 439.807 77.3961C437.864 79.4049 436.424 81.6885 435.438 83.991C434.443 86.2936 433.875 88.6246 433.704 90.8134C433.325 95.2101 434.33 98.9245 435.476 101.568L435.77 102.241L435.315 101.672V101.663L435.486 101.634C434.68 104.003 434.064 105.832 433.638 107.083C433.43 107.689 433.268 108.163 433.145 108.504C433.032 108.826 432.965 108.997 432.965 108.997L432.975 108.978Z" fill="#263238"/>
<path d="M444.762 93.4382L447.491 90.5102L453.11 95.1722L463.467 84.5122L466.186 87.2506L452.892 100.64L444.762 93.4382Z" fill="#AD2446"/>
<path d="M334.391 124.215C332.809 122.452 330.715 120.822 330.194 120.5C329.199 119.884 327.673 119.543 327.673 119.543C327.673 119.543 314.815 115.999 312.105 115.753C309.404 115.516 309.679 117.724 312.19 118.141C314.701 118.558 320.045 120.718 320.045 120.718C320.045 120.718 318.937 120.908 318.861 122.054C318.785 123.201 319.581 123.447 319.581 123.447C319.581 123.447 318.87 124.366 318.87 124.973C318.87 125.579 319.496 126.479 319.496 126.479C319.496 126.479 318.558 127.237 318.861 128.09C319.155 128.943 320.481 130.146 320.481 130.146C320.481 130.146 325.977 133.624 327.162 133.719C328.346 133.813 329.72 134.079 329.72 134.079L331.653 135.481L336.846 127.342C336.846 127.342 336.078 126.091 334.391 124.224V124.215Z" fill="#FFBE9D"/>
<path d="M320.036 120.671C320.036 120.671 320.519 120.841 321.145 120.974C321.77 121.097 322.282 121.173 322.291 121.135C322.291 121.097 321.808 120.965 321.183 120.832C320.557 120.709 320.046 120.633 320.036 120.671Z" fill="#EB996E"/>
<path d="M319.496 123.428C319.496 123.428 319.979 123.608 320.576 123.779C321.173 123.959 321.656 124.111 321.675 124.073C321.694 124.035 321.23 123.826 320.623 123.637C320.017 123.457 319.505 123.381 319.496 123.419V123.428Z" fill="#EB996E"/>
<path d="M319.183 126.034C319.183 126.034 319.704 126.271 320.349 126.536C320.993 126.802 321.505 127.038 321.533 127.001C321.561 126.972 321.078 126.678 320.424 126.404C319.771 126.129 319.202 125.996 319.193 126.025L319.183 126.034Z" fill="#EB996E"/>
<path d="M429.791 251.007C429.791 251.007 427.507 230 422.58 227.659C417.662 225.319 410.84 223.793 408.983 226.939C407.125 230.085 405.183 234.823 404.444 239.845C403.705 244.867 404.122 252.551 404.122 252.551L409.731 251.926C409.731 251.926 409.456 230.985 411.162 227.896C412.867 224.797 421.5 227.29 422.447 231.013C423.395 234.747 425.47 251.471 425.47 251.471L429.8 250.997L429.791 251.007Z" fill="#455A64"/>
<path d="M449.32 280.618C449.055 271.948 448.23 252.845 447.861 244.45C447.757 242.157 445.861 240.356 443.568 240.375L392.04 240.688C389.738 240.697 387.862 242.536 387.805 244.838L386.801 280.428C386.734 282.826 388.648 284.806 391.046 284.815L445.047 285.033C447.463 285.043 449.405 283.053 449.33 280.637L449.32 280.618Z" fill="#455A64"/>
<path d="M391.387 253.736C391.387 253.736 391.387 253.859 391.377 254.115C391.377 254.39 391.377 254.769 391.377 255.261C391.377 256.294 391.377 257.791 391.387 259.705C391.406 263.6 391.443 269.219 391.481 276.145C391.481 276.581 391.481 277.017 391.491 277.462C391.472 277.908 391.548 278.41 391.794 278.827C392.031 279.244 392.401 279.594 392.855 279.803C393.301 280.03 393.841 280.021 394.286 280.011C396.172 280.011 398.143 280.011 400.18 280.011C404.254 280.011 408.604 279.992 413.18 279.992C417.757 279.983 422.561 279.973 427.545 279.955C430.037 279.955 432.567 279.945 435.145 279.936C436.433 279.936 437.722 279.936 439.03 279.926H440.006C440.318 279.917 440.669 279.945 441.029 279.86C441.73 279.699 442.346 279.206 442.64 278.552C442.772 278.277 442.848 277.965 442.858 277.661C442.867 277.349 442.858 277.093 442.848 276.799C442.839 276.231 442.82 275.672 442.81 275.113C442.782 273.994 442.763 272.876 442.744 271.768C442.697 269.55 442.649 267.362 442.602 265.211C442.507 260.909 442.422 256.739 442.327 252.769V252.58L442.138 252.589C427.337 253.489 414.63 253.736 405.647 253.774C401.156 253.793 397.584 253.774 395.139 253.755C393.926 253.755 392.979 253.745 392.325 253.736C392.021 253.736 391.785 253.736 391.605 253.736C391.443 253.736 391.368 253.736 391.368 253.736C391.368 253.736 391.453 253.736 391.624 253.755C391.804 253.755 392.04 253.774 392.353 253.783C392.997 253.802 393.936 253.83 395.139 253.868C397.584 253.925 401.156 253.982 405.647 253.992C414.64 254.02 427.346 253.821 442.166 252.94L441.976 252.76C442.062 256.739 442.147 260.899 442.232 265.201C442.28 267.352 442.327 269.541 442.365 271.758C442.384 272.867 442.412 273.985 442.431 275.103C442.441 275.662 442.45 276.231 442.469 276.79C442.479 277.368 442.536 277.908 442.299 278.372C442.052 278.922 441.531 279.329 440.953 279.471C440.669 279.547 440.356 279.519 440.015 279.528H439.039C437.731 279.528 436.443 279.538 435.154 279.547C432.586 279.547 430.047 279.566 427.555 279.575C422.571 279.594 417.766 279.613 413.19 279.632C408.613 279.651 404.264 279.67 400.189 279.689C398.152 279.699 396.191 279.708 394.296 279.718C393.812 279.727 393.376 279.737 392.979 279.538C392.581 279.367 392.258 279.054 392.04 278.685C391.822 278.306 391.756 277.898 391.766 277.462C391.766 277.017 391.756 276.581 391.747 276.155C391.642 269.257 391.557 263.666 391.5 259.791C391.462 257.858 391.434 256.351 391.425 255.318C391.415 254.816 391.406 254.427 391.396 254.143C391.396 253.878 391.377 253.736 391.377 253.736H391.387Z" fill="#263238"/>
<path d="M406.197 276.6C406.197 276.6 405.875 276.6 405.297 276.477C404.728 276.344 403.856 276.041 403.07 275.245C402.274 274.459 401.677 273.123 401.819 271.502C401.819 269.882 401.81 268.044 401.8 266.007C401.8 264.993 401.791 263.922 401.781 262.813C401.715 261.714 401.971 260.577 402.7 259.668C403.402 258.758 404.539 258.123 405.761 258.047C407.012 258.009 408.338 258.019 409.684 258.009C415.066 257.962 420.979 257.915 427.185 257.867C428.673 257.848 430.123 258.663 430.862 259.914C431.25 260.53 431.449 261.24 431.478 261.951C431.487 262.69 431.497 263.429 431.506 264.159C431.525 265.618 431.534 267.058 431.553 268.47C431.553 269.171 431.572 269.873 431.572 270.564C431.572 271.247 431.62 271.948 431.544 272.573C431.373 273.862 430.587 274.999 429.545 275.624C429.023 275.946 428.436 276.145 427.848 276.221C427.27 276.278 426.636 276.259 426.048 276.269C423.66 276.297 421.433 276.325 419.396 276.354C415.35 276.42 412.062 276.468 409.76 276.506C408.642 276.534 407.76 276.553 407.144 276.562C406.86 276.572 406.642 276.581 406.462 276.591C406.311 276.591 406.235 276.61 406.235 276.61C406.235 276.61 406.311 276.619 406.472 276.629C406.642 276.629 406.87 276.629 407.154 276.638C407.779 276.638 408.66 276.638 409.779 276.648C412.081 276.648 415.369 276.629 419.415 276.619C421.452 276.61 423.679 276.591 426.067 276.581C426.673 276.562 427.261 276.6 427.905 276.534C428.54 276.458 429.175 276.24 429.734 275.899C430.871 275.226 431.724 273.995 431.913 272.602C432.008 271.891 431.942 271.228 431.951 270.536C431.951 269.844 431.942 269.153 431.932 268.442C431.923 267.03 431.913 265.599 431.894 264.13C431.894 263.401 431.876 262.652 431.866 261.913C431.838 261.136 431.62 260.359 431.193 259.686C430.388 258.322 428.815 257.431 427.185 257.45C420.979 257.517 415.066 257.573 409.684 257.621C408.338 257.64 407.04 257.64 405.742 257.678C404.415 257.772 403.203 258.455 402.454 259.44C401.677 260.416 401.412 261.686 401.488 262.794C401.506 263.903 401.516 264.974 401.525 265.988C401.554 268.015 401.582 269.854 401.601 271.484C401.601 271.891 401.601 272.279 401.649 272.658C401.705 273.037 401.781 273.398 401.923 273.729C402.179 274.392 402.558 274.923 402.975 275.331C403.818 276.145 404.709 276.43 405.297 276.534C405.894 276.629 406.216 276.581 406.216 276.581L406.197 276.6Z" fill="#263238"/>
<path d="M412.071 263.331L418.173 263.275C419.12 263.267 419.881 262.492 419.872 261.545L419.872 261.526C419.863 260.579 419.089 259.818 418.141 259.827L412.039 259.882C411.092 259.89 410.331 260.665 410.34 261.612L410.34 261.631C410.349 262.579 411.124 263.339 412.071 263.331Z" fill="#E0E0E0"/>
<path d="M412.327 218.923C412.327 218.923 410.593 220.467 409.987 221.538C409.381 222.609 408.3 227.242 408.3 227.242C408.3 227.242 409.153 228.019 410.688 225.574C412.223 223.13 412.678 221.898 412.678 221.898L412.327 218.932V218.923Z" fill="#FFBE9D"/>
<path d="M419.908 209.722L417.861 213.332L412.223 219.027L410.101 227.479C409.873 228.37 409.959 229.327 410.385 230.142C410.537 230.435 410.726 230.682 410.954 230.767C411.588 231.032 413.37 230.113 413.37 230.113C413.37 230.113 414.668 231.734 416.061 230.777C416.061 230.777 418.07 231.809 419.178 230.805C419.178 230.805 420.448 231.809 421.396 231.184C422.343 230.559 425.053 226.607 425.053 226.607L428.682 213.588L419.908 209.722Z" fill="#FFBE9D"/>
<path d="M433.193 138.485C433.193 138.485 436.774 140.797 436.964 145.554C437.106 149.107 439.769 173.165 439.541 179.637C439.304 186.109 428.284 216.753 428.284 216.753L416.118 213.086L426.645 178.822L425.603 157.322L433.202 138.485H433.193Z" fill="#EBEBEB"/>
<path d="M411.854 85.5735C411.257 84.3322 409.807 83.5647 408.433 83.7637C406.879 82.4561 404.387 82.4182 402.795 83.6784C401.62 82.9299 400.038 82.8446 398.787 83.4605C397.536 84.0764 396.646 85.3746 396.541 86.7675C395.149 86.5021 393.623 87.1939 392.922 88.4257C392.23 89.648 392.41 91.3062 393.367 92.3485C391.823 92.7844 390.761 94.4805 391.046 96.044C391.33 97.6075 392.922 98.8298 394.514 98.6972L411.096 89.3448C412.119 88.4162 412.432 86.8148 411.835 85.5735H411.854Z" fill="#263238"/>
<path d="M392.41 116.663C392.496 113.1 393.263 105.766 394.031 99.1425C394.864 92.0169 401.071 86.7201 408.301 86.9759L409.021 87.0044C416.753 87.7245 420.448 94.6322 419.52 102.269L417.34 126.356L402.388 139.84L399.128 130.308L399.65 125.456C399.65 125.456 392.249 124.054 392.41 116.663Z" fill="#FFBE9D"/>
<path d="M399.593 125.437C399.593 125.437 404.34 125.882 409.447 122.945C409.447 122.945 406.965 128.176 399.564 127.256L399.593 125.437Z" fill="#EB996E"/>
<path d="M395.973 105.557C395.935 106.116 396.38 106.609 396.958 106.657C397.546 106.704 398.048 106.297 398.086 105.747C398.124 105.188 397.679 104.695 397.101 104.648C396.513 104.6 396.011 105.008 395.973 105.557Z" fill="#263238"/>
<path d="M395.509 102.8C395.632 102.942 396.466 102.383 397.603 102.421C398.749 102.449 399.564 103.056 399.697 102.923C399.763 102.866 399.631 102.611 399.28 102.336C398.929 102.061 398.323 101.786 397.612 101.758C396.902 101.739 396.295 101.976 395.935 102.232C395.575 102.487 395.442 102.734 395.509 102.8Z" fill="#263238"/>
<path d="M406.292 106.107C406.254 106.666 406.699 107.159 407.277 107.206C407.865 107.254 408.367 106.846 408.405 106.297C408.443 105.737 407.997 105.245 407.419 105.197C406.832 105.15 406.33 105.557 406.292 106.107Z" fill="#263238"/>
<path d="M406.747 103.407C406.87 103.549 407.704 102.99 408.841 103.028C409.988 103.056 410.802 103.662 410.935 103.53C411.001 103.473 410.878 103.217 410.518 102.942C410.168 102.667 409.561 102.393 408.85 102.364C408.14 102.345 407.533 102.582 407.173 102.838C406.813 103.094 406.681 103.34 406.747 103.397V103.407Z" fill="#263238"/>
<path d="M402.303 111.669C402.303 111.603 401.601 111.461 400.455 111.271C400.161 111.233 399.886 111.167 399.848 110.968C399.792 110.759 399.924 110.447 400.076 110.115C400.379 109.423 400.692 108.703 401.014 107.936C402.321 104.837 403.279 102.288 403.155 102.232C403.032 102.184 401.867 104.648 400.559 107.746C400.246 108.514 399.943 109.243 399.649 109.935C399.526 110.257 399.327 110.627 399.46 111.063C399.526 111.281 399.744 111.451 399.924 111.499C400.114 111.565 400.275 111.574 400.417 111.584C401.573 111.688 402.293 111.717 402.303 111.65V111.669Z" fill="#263238"/>
<path d="M405.638 112.569C405.448 112.55 405.41 113.782 404.311 114.616C403.222 115.459 401.905 115.27 401.886 115.44C401.867 115.516 402.17 115.687 402.729 115.725C403.278 115.763 404.084 115.611 404.747 115.099C405.41 114.588 405.714 113.877 405.78 113.375C405.846 112.863 405.714 112.55 405.628 112.56L405.638 112.569Z" fill="#263238"/>
<path d="M406.604 98.9436C406.709 99.2563 407.855 99.152 409.191 99.3605C410.527 99.5405 411.598 99.9669 411.788 99.7016C411.873 99.569 411.693 99.2752 411.266 98.9625C410.84 98.6498 410.158 98.3466 409.362 98.2234C408.556 98.1097 407.817 98.214 407.325 98.394C406.822 98.574 406.567 98.8109 406.614 98.953L406.604 98.9436Z" fill="#263238"/>
<path d="M396.049 99.531C396.239 99.7964 397.034 99.5595 397.982 99.5784C398.93 99.5689 399.726 99.8153 399.925 99.55C400.01 99.4173 399.896 99.1615 399.555 98.9057C399.214 98.6498 398.645 98.4319 397.992 98.4319C397.338 98.4319 396.769 98.6404 396.428 98.8962C396.087 99.152 395.964 99.4079 396.049 99.5405V99.531Z" fill="#263238"/>
<path d="M394.874 95.7787C394.874 95.7787 396.996 91.221 399.28 90.226C402.047 89.0132 403.117 92.0169 405.733 91.3915C408.348 90.7661 410.992 89.6006 413.569 91.6758C416.393 93.9499 414.981 95.4281 415.047 98.7161C415.303 112.02 417.625 115.857 418.534 109.632C418.638 108.95 420.571 108.466 420.96 105.586C421.462 101.843 421.765 97.2948 421.017 94.5942C420.382 92.3201 419.15 90.7282 416.895 88.9374C413.332 86.1137 408.32 85.8768 404.899 86.1042C401.478 86.3221 394.77 89.9891 394.874 95.7882V95.7787Z" fill="#263238"/>
<path d="M418.07 109.405C418.156 108.267 419.179 107.405 420.316 107.547C421.699 107.727 423.215 108.561 423.026 111.404C422.685 116.445 417.653 115.071 417.653 114.919C417.653 114.825 417.909 111.508 418.07 109.405Z" fill="#FFBE9D"/>
<path d="M418.894 113.091C418.894 113.091 418.98 113.157 419.122 113.233C419.264 113.308 419.51 113.375 419.785 113.289C420.335 113.128 420.846 112.314 420.932 111.404C420.979 110.949 420.903 110.504 420.77 110.134C420.638 109.755 420.42 109.48 420.155 109.414C419.889 109.338 419.69 109.48 419.614 109.622C419.539 109.755 419.558 109.859 419.539 109.869C419.52 109.878 419.434 109.774 419.491 109.575C419.52 109.48 419.586 109.357 419.709 109.272C419.842 109.177 420.022 109.139 420.211 109.177C420.6 109.234 420.932 109.613 421.083 110.02C421.254 110.428 421.348 110.93 421.292 111.442C421.187 112.456 420.6 113.375 419.851 113.536C419.491 113.602 419.197 113.479 419.046 113.346C418.894 113.214 418.875 113.1 418.894 113.091Z" fill="#EB996E"/>
<path d="M418.317 99.6162C417.644 100.043 416.924 100.478 416.128 100.526C415.332 100.573 414.432 100.09 414.327 99.3035C414.28 98.9529 414.384 98.5455 414.157 98.2707C413.891 97.9391 413.37 98.0243 412.944 98.0528C411.456 98.157 409.978 97.0673 409.656 95.627C409.258 96.1766 408.377 96.1197 407.818 95.7313C407.259 95.3428 406.917 94.7363 406.482 94.2152C406.055 93.694 405.439 93.2202 404.767 93.2866C404.387 93.3245 404.027 93.5329 403.648 93.4856C402.985 93.4003 402.682 92.6138 402.606 91.9505C402.53 91.2872 402.473 90.5197 401.924 90.1407C401.412 89.7901 400.72 89.9607 400.105 90.027C399.489 90.0933 398.693 89.9228 398.56 89.3258C398.484 89.0131 398.636 88.6815 398.816 88.4161C399.65 87.2033 401.403 86.72 402.748 87.317C403.307 85.6682 404.918 84.4269 406.671 84.3038C408.424 84.1806 410.196 85.185 410.982 86.7485C412.091 85.8199 413.673 85.4693 415.076 85.8388C416.478 86.2083 417.672 87.2886 418.174 88.6436C419.425 88.3593 420.818 88.8899 421.567 89.9133C422.315 90.9461 422.372 92.4243 421.709 93.5045C422.609 94.0541 423.357 94.9827 423.339 96.025C423.32 97.0673 422.258 98.0717 421.254 97.7685C421.633 98.5929 421.254 99.692 420.449 100.118C419.634 100.545 418.515 100.242 418.042 99.4646" fill="#263238"/>
<path d="M421.642 97.7781C421.642 97.7781 421.718 98.2045 421.291 98.7351C421.083 98.9909 420.723 99.2468 420.249 99.3036C419.785 99.3605 419.226 99.2373 418.809 98.8393L419.027 98.8109C418.761 99.2373 418.411 99.6637 417.966 100.033C417.681 100.27 417.359 100.46 417.018 100.573C416.677 100.697 416.298 100.697 415.995 100.63C415.35 100.535 414.801 100.175 414.554 99.749C414.298 99.3321 414.223 98.9436 414.175 98.6877C414.128 98.4319 414.137 98.2803 414.147 98.2803C414.166 98.2803 414.204 98.4129 414.28 98.6593C414.355 98.9057 414.46 99.2657 414.715 99.6353C415.17 100.374 416.734 100.801 417.767 99.8153C418.183 99.4742 418.515 99.0667 418.78 98.6688L418.875 98.5266L418.998 98.6498C419.339 98.9815 419.813 99.1141 420.211 99.0762C420.619 99.0383 420.941 98.8393 421.149 98.6309C421.576 98.1855 421.585 97.7686 421.633 97.7875L421.642 97.7781Z" fill="#455A64"/>
<path d="M407.363 113.365C407.277 113.365 407.268 112.825 406.851 112.38C406.453 111.916 405.922 111.83 405.922 111.745C405.922 111.707 406.064 111.669 406.301 111.717C406.529 111.764 406.832 111.916 407.069 112.181C407.306 112.446 407.419 112.768 407.438 112.996C407.457 113.233 407.401 113.365 407.363 113.365Z" fill="#EB996E"/>
<path d="M407.865 111.991C407.789 112.029 407.609 111.849 407.343 111.717C407.078 111.584 406.832 111.546 406.813 111.461C406.794 111.385 407.116 111.281 407.467 111.461C407.817 111.641 407.921 111.963 407.855 111.991H407.865Z" fill="#EB996E"/>
<path d="M398.55 83.5932C398.531 83.5458 398.001 83.8774 397.593 84.7113C397.385 85.1187 397.195 85.6493 397.138 86.2653C397.072 86.8812 397.233 87.6108 397.66 88.1983C398.105 88.7857 398.702 89.1648 399.251 89.4206C399.801 89.6764 400.322 89.847 400.758 89.9891C401.63 90.2545 402.16 90.3966 402.179 90.3492C402.198 90.3018 401.687 90.0649 400.843 89.7523C400.426 89.5912 399.924 89.3922 399.403 89.1269C398.882 88.8615 398.342 88.511 397.963 87.9898C397.584 87.4686 397.432 86.8527 397.48 86.2842C397.508 85.7157 397.669 85.2135 397.83 84.8155C398.162 83.9911 398.588 83.6311 398.56 83.5932H398.55Z" fill="#E0E0E0"/>
<path d="M395.319 86.9095C395.319 86.9095 395.243 87.2317 395.385 87.7244C395.518 88.2172 395.859 88.8615 396.437 89.3921C397.015 89.9228 397.697 90.207 398.2 90.3018C398.702 90.3965 399.024 90.3397 399.024 90.3018C399.024 90.2449 398.721 90.207 398.266 90.0554C397.811 89.9038 397.214 89.6101 396.684 89.1268C396.153 88.6341 395.812 88.075 395.622 87.6392C395.433 87.2033 395.376 86.9095 395.319 86.9095Z" fill="#E0E0E0"/>
<path d="M389.993 135.292L382.678 193.765C382.318 196.608 384.896 201.781 387.672 202.483L424.674 206.51C426.92 206.898 428.739 205.174 429.004 202.909C429.933 194.978 430.568 178.311 431.705 167.452C432.965 155.484 435.258 140.266 432.482 138.106C426.645 133.567 418.316 129.436 418.316 129.436L417.7 123.997C417.7 123.997 401.203 125.901 398.389 128.337L397.081 133.596L390.003 135.282L389.993 135.292Z" fill="#EBEBEB"/>
<path d="M395.849 134.259L361.908 137.471L335.509 124.537L329.928 136.135L333.965 138.238C340.474 142.389 352.338 151.106 357.284 153.286C364.211 156.346 399.014 152.395 399.014 152.395L395.849 134.259Z" fill="#EBEBEB"/>
<path d="M386.232 153.826C386.232 153.778 387.047 153.826 388.468 153.504C389.861 153.172 391.898 152.376 393.727 150.528C395.537 148.718 397.072 145.819 397.271 142.408C397.347 140.721 397.025 138.902 396.181 137.263C395.764 136.448 395.215 135.671 394.371 135.311C393.538 134.951 392.533 134.894 391.576 134.969C383.626 135.557 376.425 136.268 371.213 136.703C368.645 136.921 366.551 137.101 365.035 137.234C364.343 137.291 363.784 137.329 363.358 137.367C362.969 137.395 362.771 137.405 362.771 137.386C362.771 137.367 362.969 137.329 363.349 137.272C363.775 137.215 364.334 137.149 365.016 137.064C366.523 136.902 368.617 136.666 371.175 136.391C376.387 135.87 383.569 135.112 391.548 134.524C392.562 134.458 393.594 134.496 394.561 134.913C395.537 135.339 396.153 136.23 396.579 137.073C397.451 138.798 397.783 140.683 397.688 142.436C397.46 145.971 395.85 148.927 393.954 150.765C392.04 152.632 389.937 153.409 388.506 153.684C387.786 153.826 387.208 153.864 386.819 153.864C386.431 153.864 386.232 153.845 386.232 153.826Z" fill="#263238"/>
<path d="M418.316 129.445C418.316 129.512 417.122 129.701 415.208 130.071C413.284 130.44 410.659 131.037 407.751 131.748C404.842 132.459 402.188 133.018 400.246 133.302C399.27 133.444 398.483 133.539 397.934 133.586C397.384 133.633 397.081 133.643 397.081 133.615C397.081 133.548 398.275 133.359 400.189 132.989C402.113 132.62 404.737 132.023 407.646 131.312C410.555 130.601 413.208 130.042 415.151 129.758C416.127 129.616 416.913 129.521 417.463 129.474C418.013 129.426 418.316 129.417 418.316 129.445Z" fill="#263238"/>
<path d="M433.543 144.18C433.543 144.18 433.543 144.407 433.505 144.824C433.458 145.288 433.401 145.895 433.325 146.662C433.154 148.311 432.918 150.604 432.633 153.418C432.065 159.123 431.383 167.025 430.899 175.762C430.653 180.13 430.482 184.299 430.369 188.089C430.321 189.984 430.274 191.785 430.227 193.471C430.189 195.158 430.189 196.731 430.094 198.171C429.99 199.612 429.8 200.91 429.459 202.018C429.127 203.127 428.673 204.027 428.189 204.671C427.716 205.335 427.213 205.733 426.872 205.989C426.512 206.216 426.323 206.33 426.313 206.311C426.256 206.254 427.147 205.894 428.047 204.567C428.492 203.913 428.919 203.032 429.213 201.943C429.516 200.853 429.686 199.574 429.772 198.152C429.847 196.731 429.829 195.158 429.848 193.471C429.866 191.785 429.895 189.984 429.942 188.08C430.037 184.29 430.198 180.111 430.435 175.743C430.918 166.997 431.657 159.094 432.302 153.39C432.624 150.538 432.918 148.235 433.135 146.643C433.249 145.885 433.335 145.279 433.401 144.815C433.467 144.398 433.505 144.18 433.524 144.18H433.543Z" fill="#263238"/>
<path d="M358.109 287.942L364.732 302.715C364.732 302.715 347.288 309.547 347.146 312.787L381.096 312.171L381.058 309.338L373.573 284.967L358.109 287.942Z" fill="#455A64"/>
<path d="M374.682 300.062C375.345 300.232 375.809 300.962 375.667 301.625C375.525 302.288 374.786 302.772 374.123 302.62C373.459 302.468 372.872 301.606 373.09 300.962C373.308 300.317 374.198 299.796 374.805 300.109" fill="#E0E0E0"/>
<path d="M381.106 312.181L381.068 309.348L348.472 311.053C348.472 311.053 346.975 311.735 347.165 312.797L381.115 312.181H381.106Z" fill="#263238"/>
<path d="M364.183 302.554C364.183 302.715 365.026 302.781 365.85 303.302C366.694 303.795 367.12 304.506 367.272 304.439C367.423 304.401 367.158 303.416 366.144 302.809C365.14 302.194 364.145 302.411 364.183 302.554Z" fill="#263238"/>
<path d="M360.648 304.089C360.61 304.25 361.34 304.515 361.908 305.207C362.505 305.88 362.657 306.638 362.828 306.628C362.979 306.647 363.083 305.681 362.344 304.837C361.624 303.984 360.648 303.937 360.639 304.089H360.648Z" fill="#263238"/>
<path d="M358.706 308.391C358.857 308.419 359.075 307.595 358.63 306.694C358.194 305.794 357.407 305.444 357.341 305.586C357.246 305.728 357.758 306.202 358.118 306.95C358.488 307.689 358.544 308.381 358.715 308.4L358.706 308.391Z" fill="#263238"/>
<path d="M362.951 298.707C363.026 298.858 363.775 298.612 364.713 298.659C365.651 298.688 366.39 298.991 366.466 298.849C366.561 298.726 365.841 298.129 364.732 298.091C363.623 298.043 362.856 298.583 362.941 298.716L362.951 298.707Z" fill="#263238"/>
<path d="M417.804 324.054L418.562 352.234L403.752 352.186L402.956 324.698L417.804 324.054Z" fill="#455A64"/>
<path d="M411.209 350.803C411.086 350.803 410.897 344.796 410.792 337.386C410.688 329.976 410.698 323.959 410.821 323.959C410.944 323.959 411.133 329.966 411.238 337.376C411.342 344.786 411.332 350.794 411.209 350.803Z" fill="#263238"/>
<path d="M403.496 343.403C403.496 343.403 403.591 343.166 403.866 342.796C404.131 342.427 404.558 341.915 405.154 341.356C405.751 340.797 406.528 340.19 407.514 339.698C408.48 339.196 409.674 338.835 410.944 338.817C413.502 338.76 415.691 339.963 416.771 341.195C417.34 341.801 417.691 342.37 417.89 342.777C418.089 343.194 418.164 343.431 418.136 343.441C418.06 343.488 417.681 342.521 416.535 341.413C415.435 340.295 413.36 339.214 410.935 339.262C408.509 339.3 406.547 340.569 405.353 341.583C404.141 342.626 403.553 343.45 403.487 343.393L403.496 343.403Z" fill="#263238"/>
<path d="M418.506 352.262L403.762 352.186L403.648 348.861L418.525 348.927L418.506 352.262Z" fill="#263238"/>
<path d="M418.979 204.709L388.26 202.018L387.748 205.392C379.921 211.664 355.531 226.655 342.938 238.925C342.938 238.925 338.286 245.416 340.143 251.12L359.833 295.76L379.883 291.136L367.65 253.243L405.268 235.675C412.583 232.965 419.169 223.736 420.732 218.449C422.068 213.92 419.188 210.508 418.989 204.709H418.979Z" fill="#263238"/>
<path d="M393.187 240.262L401.317 335.083L421.832 334.969C421.832 334.969 422.495 306.022 422.087 286.502C421.68 266.983 424.049 227.318 424.049 227.318L393.196 240.262H393.187Z" fill="#263238"/>
<path d="M418.979 204.709L428.834 205.799C428.834 205.799 429.81 225.499 429.09 227.991C428.379 230.483 423.054 240.375 423.054 240.375L393.888 248.865V226.655L418.97 204.709H418.979Z" fill="#263238"/>
<path d="M416.383 224.873C416.383 224.873 416.307 225.063 416.136 225.404C415.956 225.736 415.738 226.266 415.331 226.873C414.592 228.123 413.341 229.857 411.408 231.61C409.485 233.373 406.888 235.116 403.837 236.699C400.796 238.3 397.318 239.759 393.736 241.437C386.563 244.725 380.073 247.7 375.325 249.87C372.994 250.922 371.09 251.774 369.725 252.381C369.09 252.656 368.579 252.873 368.19 253.044C367.84 253.196 367.65 253.262 367.641 253.252C367.641 253.243 367.811 253.139 368.152 252.968C368.531 252.779 369.034 252.542 369.649 252.229C371.004 251.585 372.881 250.694 375.193 249.595C379.93 247.387 386.402 244.374 393.566 241.048C397.147 239.38 400.625 237.921 403.667 236.358C406.708 234.804 409.295 233.108 411.219 231.392C413.161 229.687 414.421 228 415.198 226.787C415.985 225.574 416.345 224.854 416.383 224.873Z" fill="#455A64"/>
<path d="M354.603 251.537C354.603 251.49 355.399 251.282 356.725 251.13C358.052 250.978 359.919 250.893 361.946 251.13C363.984 251.348 365.784 251.85 367.035 252.324C368.285 252.798 369.006 253.215 368.987 253.252C368.958 253.319 368.2 252.997 366.94 252.599C365.68 252.21 363.898 251.755 361.899 251.547C359.9 251.319 358.061 251.357 356.744 251.433C355.427 251.509 354.603 251.613 354.593 251.556L354.603 251.537Z" fill="#455A64"/>
<path d="M387.53 205.354L428.995 209.267L428.862 206.235L388.259 202.009L387.53 205.354Z" fill="#455A64"/>
<path d="M396.314 206.614C396.437 206.368 396.731 202.776 396.731 202.776L398.986 203.013L398.446 207.41L396.314 206.614Z" fill="#263238"/>
<path d="M418.06 208.926C418.183 208.68 418.477 205.088 418.477 205.088L420.732 205.325L420.192 209.722L418.06 208.926Z" fill="#263238"/>
</g>
<defs>
<clipPath id="clip0_28_5168">
<rect width="582.015" height="400" fill="white"/>
</clipPath>
</defs>
</svg>
