<svg width="65" height="65" viewBox="0 0 65 65" fill="none" xmlns="http://www.w3.org/2000/svg">
<g clip-path="url(#clip0_13_771)">
<path d="M61.1335 40.8799C61.5784 42.4559 61.8163 44.1186 61.8163 45.8371C61.8163 55.8947 53.663 64.0479 43.6055 64.0479C38.1652 64.0479 33.2819 61.6623 29.9451 57.88" stroke="white" stroke-width="2" stroke-miterlimit="10" stroke-linecap="round" stroke-linejoin="round"/>
<path d="M36.1312 15.1025C35.3774 14.7323 34.4412 14.8588 33.8142 15.4859L31.6594 17.6406C31.0748 18.2253 30.1896 18.4017 29.4336 18.0668C29.1987 17.9627 28.9609 17.8643 28.7201 17.7718C27.9482 17.475 27.4472 16.7232 27.4472 15.8963V12.8488C27.4472 11.7338 26.5433 10.8297 25.4283 10.8297H20.8289C19.7139 10.8297 18.81 11.7336 18.81 12.8488V15.8963C18.81 16.7233 18.3089 17.475 17.5372 17.7718C17.2965 17.8643 17.0585 17.9627 16.8237 18.0668C16.0677 18.4019 15.1824 18.2254 14.5978 17.6406L12.4432 15.4857C11.6547 14.6974 10.3764 14.6974 9.58786 15.4857L6.3357 18.738C5.5472 19.5264 5.5472 20.8048 6.3357 21.5933L8.49048 23.7481C9.0751 24.3327 9.25156 25.218 8.91666 25.974C8.81256 26.2088 8.71417 26.4466 8.62162 26.6874C8.3248 27.4593 7.57299 27.9603 6.74614 27.9603H3.69838C2.58335 27.9603 1.67944 28.8642 1.67944 29.9792V34.5786C1.67944 35.6936 2.58335 36.5975 3.69838 36.5975H6.74589C7.57286 36.5975 8.32455 37.0986 8.62137 37.8704C8.71392 38.1112 8.8123 38.3491 8.91641 38.5838C9.25144 39.3399 9.07497 40.225 8.49022 40.8097L6.33545 42.9645C5.54694 43.753 5.54694 45.0313 6.33545 45.8198L9.58761 49.0721C10.3761 49.8605 11.6544 49.8605 12.4429 49.0721L14.5977 46.9173C15.1823 46.3327 16.0675 46.1562 16.8236 46.4911C17.0584 46.5952 17.2962 46.6936 17.537 46.7862C18.3089 47.083 18.8099 47.8348 18.8099 48.6616V51.7091C18.8099 52.8242 19.7138 53.7282 20.8288 53.7282H25.4282C26.5432 53.7282 27.4471 52.8243 27.4471 51.7091V48.6616C27.4471 47.8347 27.9482 47.083 28.72 46.7862C28.9607 46.6936 29.1986 46.5952 29.4334 46.4911C30.122 46.1859 30.9171 46.3064 31.4954 46.7719" stroke="white" stroke-width="2" stroke-miterlimit="10" stroke-linecap="round" stroke-linejoin="round"/>
<path d="M14.3579 34.5005C15.3483 38.4224 18.899 41.3253 23.1285 41.3253C28.1246 41.3253 32.1749 37.2751 32.1749 32.2788C32.1749 27.2826 28.1247 23.2324 23.1286 23.2324C18.8992 23.2324 15.3484 26.1353 14.358 30.0572" stroke="white" stroke-width="2" stroke-miterlimit="10" stroke-linecap="round" stroke-linejoin="round"/>
<path d="M23.1288 36.693C25.5666 36.693 27.5429 34.7167 27.5429 32.2788C27.5429 29.841 25.5666 27.8647 23.1288 27.8647C20.6909 27.8647 18.7146 29.841 18.7146 32.2788C18.7146 34.7167 20.6909 36.693 23.1288 36.693Z" stroke="white" stroke-width="2" stroke-miterlimit="10" stroke-linecap="round" stroke-linejoin="round"/>
<path d="M52.5054 12.3077H43.8334C43.3649 12.3077 42.9853 11.928 42.9853 11.4597V6.50292C42.9853 3.41428 40.464 0.919649 37.3755 0.952402C36.6861 0.959766 36.1311 1.52064 36.1311 2.21013V5.45898" stroke="white" stroke-width="2" stroke-miterlimit="10" stroke-linecap="round" stroke-linejoin="round"/>
<path d="M51.4836 36.594H53.6804" stroke="white" stroke-width="2" stroke-miterlimit="10" stroke-linecap="round" stroke-linejoin="round"/>
<path d="M36.1311 9.90234V29.7582C36.1311 31.7841 37.0132 33.6032 38.4132 34.855" stroke="white" stroke-width="2" stroke-miterlimit="10" stroke-linecap="round" stroke-linejoin="round"/>
<path d="M37.0738 56.078C38.96 57.2835 41.2012 57.9824 43.6057 57.9824C50.3134 57.9824 55.7512 52.5447 55.7512 45.8369C55.7512 39.1291 50.3135 33.6915 43.6057 33.6915C36.8979 33.6915 31.4602 39.1291 31.4602 45.8369C31.4602 48.5339 32.3399 51.0253 33.8271 53.0408" stroke="white" stroke-width="2" stroke-miterlimit="10" stroke-linecap="round" stroke-linejoin="round"/>
<path d="M37.6021 45.2507L42.1957 50.5027L49.6095 42.1117" stroke="white" stroke-width="2" stroke-miterlimit="10" stroke-linecap="round" stroke-linejoin="round"/>
<path d="M61.0698 33.5583C61.0698 31.8816 59.7106 30.5225 58.034 30.5225H53.6804C52.0037 30.5225 50.6445 31.8816 50.6445 33.5583C50.6445 35.235 52.0037 36.5941 53.6804 36.5941H58.034C59.7106 36.594 61.0698 35.2348 61.0698 33.5583Z" stroke="white" stroke-width="2" stroke-miterlimit="10" stroke-linecap="round" stroke-linejoin="round"/>
<path d="M60.2851 24.4509H52.5056C50.8289 24.4509 49.4697 25.8101 49.4697 27.4867C49.4697 29.1634 50.8289 30.5226 52.5056 30.5226H60.2851C61.9618 30.5226 63.3209 29.1634 63.3209 27.4867C63.3209 25.8101 61.9618 24.4509 60.2851 24.4509Z" stroke="white" stroke-width="2" stroke-miterlimit="10" stroke-linecap="round" stroke-linejoin="round"/>
<path d="M60.2851 12.3077H52.5056C50.8289 12.3077 49.4697 13.6669 49.4697 15.3436C49.4697 17.0202 50.8289 18.3794 52.5056 18.3794H60.2851C61.9618 18.3794 63.3209 17.0202 63.3209 15.3436C63.3209 13.6669 61.9618 12.3077 60.2851 12.3077Z" stroke="white" stroke-width="2" stroke-miterlimit="10" stroke-linecap="round" stroke-linejoin="round"/>
<path d="M60.2851 18.3793H52.5056C50.8289 18.3793 49.4697 19.7384 49.4697 21.4151C49.4697 23.0918 50.8289 24.4509 52.5056 24.4509H60.2851C61.9618 24.4509 63.3209 23.0918 63.3209 21.4151C63.3209 19.7384 61.9618 18.3793 60.2851 18.3793Z" stroke="white" stroke-width="2" stroke-miterlimit="10" stroke-linecap="round" stroke-linejoin="round"/>
</g>
<defs>
<clipPath id="clip0_13_771">
<rect width="65" height="65" fill="white"/>
</clipPath>
</defs>
</svg>
