<svg width="65" height="65" viewBox="0 0 65 65" fill="none" xmlns="http://www.w3.org/2000/svg">
<g clip-path="url(#clip0_13_1188)">
<mask id="mask0_13_1188" style="mask-type:luminance" maskUnits="userSpaceOnUse" x="0" y="0" width="65" height="65">
<path d="M0 7.62939e-06H65V65H0V7.62939e-06Z" fill="white"/>
</mask>
<g mask="url(#mask0_13_1188)">
<path d="M11.6255 0.952155H33.8069C35.3356 0.952155 36.5748 2.19147 36.5748 3.72011V28.4965" stroke="white" stroke-width="2" stroke-miterlimit="10" stroke-linecap="round" stroke-linejoin="round"/>
<path d="M36.5748 47.9997V61.2799C36.5748 62.8085 35.3355 64.0478 33.8067 64.0478H3.7201C2.19146 64.0478 0.952148 62.8085 0.952148 61.2799V3.72009C0.952148 2.19144 2.19146 0.952125 3.7201 0.952125H6.2937" stroke="white" stroke-width="2" stroke-miterlimit="10" stroke-linecap="round" stroke-linejoin="round"/>
<path d="M36.5748 47.9997V53.3467H0.952148V7.45503H36.5748V28.6262" stroke="white" stroke-width="2" stroke-miterlimit="10" stroke-linecap="round" stroke-linejoin="round"/>
<path d="M21.5807 60.2957H15.9459C15.0664 60.2957 14.3535 59.5827 14.3535 58.7032C14.3535 57.8236 15.0664 57.1107 15.9459 57.1107H21.5807C22.4602 57.1107 23.1732 57.8236 23.1732 58.7032C23.1732 59.5827 22.4602 60.2957 21.5807 60.2957Z" stroke="white" stroke-width="2" stroke-miterlimit="10" stroke-linecap="round" stroke-linejoin="round"/>
<path d="M25.9218 22.6228H6.44897C5.74794 22.6228 5.17944 22.0544 5.17944 21.3533V14.5487C5.17944 13.8477 5.74794 13.2792 6.44897 13.2792H31.0779C31.7792 13.2792 32.3474 13.8477 32.3474 14.5487V20.5881" stroke="white" stroke-width="2" stroke-miterlimit="10" stroke-linecap="round" stroke-linejoin="round"/>
<path d="M26.0582 42.6353C24.3513 44.7804 21.718 46.1557 18.7634 46.1557C13.6178 46.1557 9.44629 41.9843 9.44629 36.8387C9.44629 31.6931 13.6178 27.5216 18.7634 27.5216C23.909 27.5216 28.0805 31.6931 28.0805 36.8387" stroke="white" stroke-width="2" stroke-miterlimit="10" stroke-linecap="round" stroke-linejoin="round"/>
<path d="M13.9146 37.4553L16.7361 40.2768L23.6122 33.4006" stroke="white" stroke-width="2" stroke-miterlimit="10" stroke-linecap="round" stroke-linejoin="round"/>
<path d="M61.239 49.6368C63.8021 48.2939 64.7913 45.1274 63.4485 42.5644C63.056 41.8148 62.7578 41.0194 62.5609 40.1964L62.5139 39.9995C61.6027 36.1889 60.2223 32.5061 58.404 29.0357L55.3055 23.1215C54.455 21.4982 52.4498 20.8718 50.8265 21.7221C49.5308 22.4009 48.8732 23.8153 49.0916 25.1842C48.0909 24.2252 46.5535 23.9608 45.2578 24.6396C43.9621 25.3184 43.3044 26.7328 43.523 28.1016C42.5221 27.1426 40.9847 26.8783 39.6891 27.5571C38.2317 28.3206 37.5817 30.0143 38.0786 31.5273L31.641 19.2397C30.7907 17.6166 28.7855 16.9901 27.1623 17.8405C25.539 18.6908 24.9124 20.6962 25.763 22.3194L34.8922 39.7448L35.0246 39.9975L29.7634 37.228C28.1086 36.4408 26.1289 37.1442 25.3418 38.7989V38.7991C24.5546 40.4538 25.258 42.4335 26.9128 43.2206L41.3517 50.3625C42.385 50.8736 43.2208 51.7112 43.7298 52.7455C45.0302 55.3884 48.2531 56.4402 50.8623 55.0732L56.535 52.1012" stroke="white" stroke-width="2" stroke-miterlimit="10" stroke-linecap="round" stroke-linejoin="round"/>
<path d="M38.0786 31.5273L39.7601 34.7369" stroke="white" stroke-width="2" stroke-miterlimit="10" stroke-linecap="round" stroke-linejoin="round"/>
<path d="M43.5339 28.0958L45.4512 31.7552" stroke="white" stroke-width="2" stroke-miterlimit="10" stroke-linecap="round" stroke-linejoin="round"/>
<path d="M49.0918 25.1841L51.0057 28.8374" stroke="white" stroke-width="2" stroke-miterlimit="10" stroke-linecap="round" stroke-linejoin="round"/>
</g>
</g>
<defs>
<clipPath id="clip0_13_1188">
<rect width="65" height="65" fill="white"/>
</clipPath>
</defs>
</svg>
