<svg width="65" height="65" viewBox="0 0 65 65" fill="none" xmlns="http://www.w3.org/2000/svg">
<path d="M33.5155 2.03398C32.2025 2.03398 31.0843 2.8869 30.6611 4.06128H5.07802C3.40761 4.06128 2.03114 5.43769 2.03114 7.10808V17.2644C2.01164 18.638 4.08194 18.638 4.06239 17.2644V7.10808C4.06239 6.52788 4.49778 6.09256 5.07802 6.09256H30.4726V8.12372H7.10927C6.54838 8.1238 6.0937 8.57847 6.09364 9.13937V37.5768C6.09369 38.1377 6.54838 38.5924 7.10927 38.5925H53.828C54.3889 38.5924 54.8436 38.1377 54.8436 37.5768V24.3757H56.8749V39.6081C56.8749 40.1883 56.4395 40.6238 55.8593 40.6238H5.07802C4.49778 40.6238 4.06239 40.1883 4.06239 39.6081V26.405C4.08189 25.0315 2.01159 25.0315 2.03114 26.405V39.6081C2.03114 41.2785 3.40761 42.655 5.07802 42.655H55.8593C57.5297 42.655 58.9061 41.2785 58.9061 39.6081V24.3757H59.9198C61.5902 24.3757 62.9726 22.9933 62.9726 21.3228V5.0768C62.9726 3.40641 61.5902 2.03398 59.9198 2.03398H33.5155ZM33.5155 4.0573H59.9198C60.5 4.0573 60.9414 4.4966 60.9414 5.0768V21.3228C60.9414 21.9031 60.5 22.3444 59.9198 22.3444H42.6542C42.4134 22.3434 42.18 22.4278 41.9956 22.5825L36.5584 27.246V23.3561C36.5564 22.7983 36.1046 22.3467 35.5468 22.3444H33.5155C32.9353 22.3444 32.5039 21.903 32.5039 21.3228V5.0768C32.5039 4.4966 32.9353 4.0573 33.5155 4.0573ZM41.6425 8.12173V18.28C41.6427 19.0762 42.5172 19.5626 43.1937 19.1429L51.3207 14.0667C51.9584 13.669 51.9584 12.7406 51.3207 12.3429L43.1937 7.25885C42.5846 6.87768 41.6425 7.21855 41.6425 8.12173ZM43.6738 9.95855L48.863 13.2039L43.6738 16.4432V9.95855ZM8.12489 10.1551H30.4726V21.3231C30.4726 22.9935 31.8451 24.3758 33.5155 24.3758H34.5272V29.4501C34.5221 30.3225 35.5474 30.7944 36.2073 30.2237L43.0291 24.3758H52.8124V36.5614H32.4999C32.4999 33.2031 29.7625 30.4736 26.4042 30.4736H25.3925V27.8869C26.6362 26.7698 27.4257 25.1557 27.4257 23.3582V22.3467C27.9866 22.3446 28.4395 21.8879 28.4374 21.3271V18.2821C28.4374 14.9237 25.7 12.1864 22.3417 12.1864H20.3104C16.952 12.1864 14.2227 14.9238 14.2226 18.2821V21.3271C14.2206 21.8879 14.6734 22.3444 15.2343 22.3467V23.3582C15.2342 25.1554 16.0202 26.7698 17.2635 27.8869V30.4736H16.2459C12.8876 30.4736 10.1581 33.2031 10.1581 36.5614H8.12489V10.1551ZM20.3104 14.2197H22.3417C24.6098 14.2197 26.4042 16.0139 26.4042 18.2821V19.8948L25.091 18.5815C24.7487 18.2391 24.2144 18.1861 23.8115 18.4544C23.8115 18.4544 20.8727 20.3152 18.2772 20.3152H16.2459V18.2819C16.246 16.0137 18.0422 14.2197 20.3104 14.2197ZM3.0309 20.2975C2.47077 20.3051 2.02348 20.7669 2.03114 21.3271V22.3427C2.01164 23.7163 4.08194 23.7163 4.06239 22.3427V21.3271C4.07053 20.7545 3.60346 20.2885 3.0309 20.2975ZM24.2122 20.5692L25.3925 21.7535V23.3582C25.3925 25.6264 23.5982 27.4208 21.33 27.4208C19.0618 27.4208 17.2635 25.6264 17.2635 23.3582V22.3467H18.2772C20.8813 22.3467 23.5371 21.0037 24.2122 20.5692ZM19.2987 29.097C19.935 29.3231 20.6176 29.4539 21.33 29.4539C22.0431 29.4539 22.7245 29.3235 23.3612 29.097V31.2909C23.3612 31.2909 23.0171 32.4969 21.33 32.4969C19.6429 32.4969 19.2987 31.3047 19.2987 31.3047V29.097ZM16.2459 32.4968H17.6226C17.6226 32.4968 18.499 34.528 21.33 34.528C24.161 34.528 25.0354 32.4968 25.0354 32.4968H26.4042C28.6723 32.4968 30.4686 34.2931 30.4686 36.5613H12.1914C12.1914 34.2931 13.9778 32.4968 16.2459 32.4968ZM11.1737 44.6843C8.37804 44.6843 6.08967 46.9647 6.08967 49.7604V50.7799C6.08967 51.9622 6.517 53.038 7.20051 53.9023C4.27967 54.3497 2.03516 56.8745 2.03511 59.9187V61.9519C2.03308 62.5127 2.48588 62.9692 3.04677 62.9715H19.2928C19.8568 62.9735 20.3145 62.5159 20.3124 61.9519V59.9187C20.3124 56.8755 18.0636 54.3509 15.143 53.9023C15.825 53.038 16.2499 51.9622 16.2499 50.7799V49.7604C16.2499 46.9647 13.9695 44.6843 11.1737 44.6843ZM32.5039 44.6843C29.7081 44.6843 27.4198 46.9647 27.4198 49.7604V50.7799C27.4198 51.962 27.8453 53.038 28.5286 53.9023C25.6071 54.3501 23.3573 56.8748 23.3573 59.9187V61.9519C23.3553 62.5159 23.8129 62.9736 24.3769 62.9715H40.6229C41.1869 62.9735 41.6447 62.5159 41.6425 61.9519V59.9187C41.6425 56.8758 39.3932 54.3513 36.4731 53.9023C37.1551 53.038 37.58 51.9622 37.58 50.7799V49.7604C37.58 46.9647 35.2996 44.6843 32.5039 44.6843ZM53.826 44.6843C51.0303 44.6843 48.7499 46.9647 48.7499 49.7604V50.7799C48.7499 51.9622 49.1748 53.038 49.8568 53.9023C46.9362 54.3509 44.6855 56.8755 44.6854 59.9187V61.9519C44.6834 62.5166 45.1422 62.9747 45.707 62.9715H61.953C62.517 62.9735 62.9748 62.5159 62.9726 61.9519V59.9187C62.9726 56.8745 60.7213 54.3497 57.7993 53.9023C58.4828 53.038 58.9081 51.9622 58.9081 50.7799V49.7604C58.9081 46.9647 56.6218 44.6843 53.826 44.6843ZM11.1737 46.7175C12.8793 46.7175 14.2167 48.0549 14.2167 49.7604V50.7799C14.2167 52.4855 12.8793 53.8249 11.1737 53.8249C9.46821 53.8249 8.12291 52.4855 8.12291 50.7799V49.7604C8.12291 48.0549 9.46821 46.7175 11.1737 46.7175ZM32.5039 46.7175C34.2094 46.7175 35.5468 48.0549 35.5468 49.7604V50.7799C35.5468 52.4855 34.2094 53.8249 32.5039 53.8249C30.7983 53.8249 29.451 52.4855 29.451 50.7799V49.7604C29.451 48.0549 30.7983 46.7175 32.5039 46.7175ZM53.826 46.7175C55.5316 46.7175 56.8769 48.0549 56.8769 49.7604V50.7799C56.8769 52.4855 55.5316 53.8249 53.826 53.8249C52.1205 53.8249 50.7811 52.4855 50.7811 50.7799V49.7604C50.7811 48.0549 52.1205 46.7175 53.826 46.7175ZM8.12291 55.8561H14.2167C16.4848 55.8561 18.2811 57.6505 18.2811 59.9187V60.9402H4.05842V59.9187C4.05845 57.6505 5.85474 55.8561 8.12291 55.8561ZM29.451 55.8561H35.5468C37.8149 55.8561 39.6113 57.6505 39.6113 59.9187V60.9402H25.3885V59.9187C25.3886 57.6505 27.1829 55.8561 29.451 55.8561ZM50.7811 55.8561H56.8769C59.145 55.8561 60.9414 57.6505 60.9414 59.9187V60.9402H46.7186V59.9187C46.7187 57.6505 48.513 55.8561 50.7811 55.8561Z" fill="white"/>
</svg>
