<svg width="65" height="65" viewBox="0 0 65 65" fill="none" xmlns="http://www.w3.org/2000/svg">
<g clip-path="url(#clip0_13_1031)">
<path d="M62.336 7.45902H63.4016C63.9898 7.45902 64.4671 6.9827 64.4671 6.39344V2.13115C64.4671 1.54189 63.9898 1.06557 63.4016 1.06557H59.1393C58.5511 1.06557 58.0737 1.54189 58.0737 2.13115V3.19672H36.7622V1.06557C36.7622 0.476311 36.2848 0 35.6967 0H29.3032C28.715 0 28.2376 0.476311 28.2376 1.06557V3.19672H6.92616V2.13115C6.92616 1.54189 6.44878 1.06557 5.86058 1.06557H1.59829C1.01009 1.06557 0.532715 1.54189 0.532715 2.13115V6.39344C0.532715 6.9827 1.01009 7.45902 1.59829 7.45902H2.66386V57.541H1.59829C1.01009 57.541 0.532715 58.0173 0.532715 58.6066V62.8688C0.532715 63.4581 1.01009 63.9344 1.59829 63.9344H5.86058C6.44878 63.9344 6.92616 63.4581 6.92616 62.8688V61.8033H28.2376V63.9344C28.2376 64.5237 28.715 65 29.3032 65H35.6967C36.2848 65 36.7622 64.5237 36.7622 63.9344V61.8033H58.0737V62.8688C58.0737 63.4581 58.5511 63.9344 59.1393 63.9344H63.4016C63.9898 63.9344 64.4671 63.4581 64.4671 62.8688V58.6066C64.4671 58.0173 63.9898 57.541 63.4016 57.541H62.336V32.5V7.45902ZM60.2048 3.19672H62.336V5.32787H60.2048V3.19672ZM30.3688 2.13115H34.6311V4.44344V6.39344H30.3688V4.44344V4.26229V2.13115ZM2.66386 3.19672H4.79501V5.32787H2.66386V3.19672ZM4.79501 7.45902H5.86058C6.44878 7.45902 6.92616 6.9827 6.92616 6.39344V5.32787H21.3061C13.7437 8.3168 7.7914 14.2339 4.79501 21.5992V7.45902ZM4.79501 61.8033H2.66386V59.6721H4.79501V61.8033ZM5.86058 57.541H4.79501V43.4008C7.7914 50.7661 13.7437 56.6832 21.3061 59.6721H6.92616V58.6066C6.92616 58.0173 6.44878 57.541 5.86058 57.541ZM26.3729 25.4502L30.1461 35.7628C28.7939 36.7538 28.1833 38.5439 28.7885 40.1945C29.1423 41.1631 29.853 41.9367 30.7897 42.3715C31.3076 42.6123 31.8595 42.7327 32.4136 42.7327C32.8622 42.7327 33.3108 42.6539 33.7435 42.4951C34.7131 42.1402 35.4857 41.4295 35.9204 40.4939C36.3552 39.5573 36.3999 38.5088 36.0451 37.5402C35.442 35.8896 33.8212 34.9157 32.1483 35.0307L28.373 24.7128L43.0448 36.3723C41.3122 38.7496 40.8317 41.5989 41.7715 44.1829L43.0065 47.5619L30.113 52.2781L28.8759 48.8949C27.9212 46.2875 25.6515 44.4366 22.6903 43.7929L26.3729 25.4502ZM34.0439 38.2722C34.2027 38.7059 34.1825 39.1769 33.9875 39.5957C33.7925 40.0155 33.4462 40.3341 33.0103 40.4939C32.5767 40.6516 32.1046 40.6335 31.6869 40.4375C31.2671 40.2425 30.9485 39.8961 30.7897 39.4614C30.4615 38.5642 30.9239 37.5679 31.8212 37.2397C32.0172 37.1683 32.2176 37.1331 32.4147 37.1331C33.1212 37.1342 33.7861 37.5711 34.0439 38.2722ZM30.8451 54.2814L43.7385 49.5641L46.1393 56.1302C46.0796 56.1632 46.021 56.1984 45.9613 56.2303C45.3401 56.5713 44.7103 56.8878 44.0699 57.1787C43.9879 57.216 43.9058 57.2522 43.8227 57.2884C43.7801 57.3066 43.7375 57.3247 43.6959 57.3428C43.0512 57.6241 42.398 57.883 41.7342 58.1143C41.7278 58.1164 41.7203 58.1196 41.7139 58.1217C41.6117 58.1579 41.5072 58.1899 41.4039 58.2251C40.756 58.4414 40.1007 58.6321 39.4368 58.7994C39.2951 58.8357 39.1544 58.8708 39.0127 58.9038C38.3052 59.0701 37.5902 59.2129 36.8667 59.3237C36.8315 59.329 36.7963 59.3322 36.7612 59.3375V57.541C36.7612 56.9517 36.2838 56.4754 35.6956 56.4754H31.6475L30.8451 54.2814ZM34.6311 62.8688H30.3688V60.5566V58.6066H30.9016H34.6311V60.5566V60.7377V62.8688ZM62.336 61.8033H60.2048V60.7377V59.6721H61.2704H62.336V61.8033ZM60.2048 43.4466V57.541H59.1393C58.5511 57.541 58.0737 58.0173 58.0737 58.6066V59.6721H43.6778C43.697 59.6647 43.7151 59.6551 43.7343 59.6466C44.3726 59.3908 45.0002 59.1052 45.6214 58.8037C45.7844 58.7248 45.9453 58.6449 46.1073 58.5629C46.7456 58.2389 47.3785 57.899 47.9987 57.5271C47.9998 57.5261 48.0008 57.525 48.0019 57.525C48.6434 57.1425 49.2603 56.7343 49.8645 56.3113C50.0574 56.177 50.2417 56.0353 50.4303 55.8968C50.8438 55.5931 51.2487 55.283 51.643 54.9612C51.8422 54.7982 52.0394 54.6341 52.2344 54.4668C52.6233 54.1333 52.9984 53.7891 53.3671 53.4375C53.528 53.284 53.6931 53.1338 53.8508 52.9771C54.3591 52.4688 54.8525 51.9488 55.3192 51.4086C55.3639 51.3575 55.4034 51.302 55.4471 51.2498C55.868 50.7554 56.2707 50.2482 56.6565 49.7293C56.7939 49.5438 56.9229 49.3542 57.0561 49.1666C57.3416 48.7628 57.6176 48.3536 57.8808 47.9359C58.013 47.727 58.143 47.5182 58.2687 47.3072C58.5308 46.8671 58.7791 46.4207 59.0167 45.9678C59.1126 45.7866 59.2139 45.6076 59.3055 45.4243C59.622 44.7893 59.9193 44.1446 60.1889 43.4871C60.1921 43.4733 60.1995 43.4605 60.2048 43.4466ZM47.9955 55.0007L43.7737 43.452C42.9788 41.2675 43.5499 38.8902 45.3401 36.9264C45.5394 36.7079 45.6385 36.417 45.6139 36.1229C45.5905 35.8289 45.4456 35.5582 45.2144 35.3738L26.9984 20.898C26.8268 20.2523 26.4816 18.46 27.5024 17.1611C28.6649 15.6831 31.3651 15.1429 35.3077 15.5861C39.2642 16.0401 42.0102 15.4348 43.4775 13.8024C44.6304 12.5216 44.6571 10.9168 44.4919 10.1698L42.4119 10.6323C42.414 10.6419 42.5888 11.6052 41.894 12.3788C40.9403 13.4369 38.6856 13.8216 35.5485 13.4699C30.762 12.9233 27.4939 13.7267 25.8273 15.8451C24.1437 17.9858 24.718 20.6913 24.9748 21.5875L20.3833 44.46C20.3247 44.7541 20.3918 45.0588 20.5687 45.3007C20.7466 45.5426 21.0162 45.6982 21.3146 45.7291C24.0467 46.02 26.0735 47.4415 26.8748 49.6302L29.3778 56.4754H29.3032C28.715 56.4754 28.2376 56.9517 28.2376 57.541V59.3439C14.7912 57.3225 4.79501 45.9816 4.79501 32.5C4.79501 19.0184 14.7912 7.67746 28.2376 5.65607V7.45902C28.2376 8.04828 28.715 8.52459 29.3032 8.52459H35.6967C36.2848 8.52459 36.7622 8.04828 36.7622 7.45902V5.65607C50.2087 7.67746 60.2048 19.0184 60.2048 32.5C60.2048 41.6309 55.6612 49.9434 47.9955 55.0007ZM43.6938 5.32787H58.0737V6.39344C58.0737 6.9827 58.5511 7.45902 59.1393 7.45902H60.2048V21.5992C57.2085 14.2339 51.2562 8.3168 43.6938 5.32787Z" fill="#CC0444"/>
</g>
<defs>
<clipPath id="clip0_13_1031">
<rect width="65" height="65" fill="white"/>
</clipPath>
</defs>
</svg>
