<svg width="65" height="65" viewBox="0 0 65 65" fill="none" xmlns="http://www.w3.org/2000/svg">
<path d="M57.6545 53.0016H55.3236V48.0581C56.4294 47.5782 57.0515 46.348 56.7303 45.1496L55.655 41.1341C56.4827 40.7532 57.1721 40.1273 57.6367 39.3224C58.2309 38.2941 58.3883 37.0944 58.0811 35.9468C57.6938 34.5008 56.6312 33.4128 55.3236 32.9278V22.7779C55.3236 20.0243 53.0829 17.7836 50.3293 17.7836H43.7011C43.305 10.6577 37.3826 4.98163 30.159 4.98163C22.9354 4.98163 17.0143 10.659 16.6182 17.7861H9.99121C7.2376 17.7861 4.99688 20.0268 4.99688 22.7805V53.0029H2.66602C2.2458 53.0029 1.9043 53.3444 1.9043 53.7646V56.5335C1.9043 58.4543 3.46709 60.0171 5.38789 60.0171H54.9326C56.8534 60.0171 58.4162 58.4543 58.4162 56.5335V53.7646C58.4162 53.3432 58.0747 53.0016 57.6545 53.0016ZM45.3565 48.2434L43.4484 45.1966L44.4653 44.9236C45.1852 44.7459 47.464 45.1928 49.4521 45.8326V48.2434H45.3565ZM24.1376 18.5478C24.1376 17.4395 24.2176 16.3617 24.3648 15.3347H29.3985V21.7623H24.3648C24.2163 20.734 24.1376 19.6549 24.1376 18.5478ZM36.1842 18.5478C36.1842 19.6561 36.1042 20.734 35.9569 21.761H30.9232V15.3334H35.9569C36.1042 16.3604 36.1842 17.4395 36.1842 18.5478ZM30.922 30.4865V23.2845H35.6789C34.8372 27.0842 33.0319 29.9266 30.922 30.4865ZM37.2404 23.2845H41.2293C39.9407 26.2844 37.4664 28.6597 34.3992 29.8175C34.841 29.2817 35.2523 28.6584 35.6281 27.95C36.3454 26.5954 36.8888 25.0072 37.2404 23.2845ZM30.922 13.8099V6.6079C33.0307 7.16776 34.8372 10.0102 35.6789 13.8099H30.922ZM29.3985 6.6079V13.8099H24.6416C25.4833 10.0102 27.2898 7.16776 29.3985 6.6079ZM29.3985 23.2845V30.4865C27.2898 29.9266 25.4833 27.0842 24.6416 23.2845H29.3985ZM24.6937 27.9487C25.0694 28.6571 25.4808 29.2805 25.9226 29.8162C22.8554 28.6584 20.3811 26.2844 19.0925 23.2832H23.0813C23.4317 25.0072 23.9751 26.5954 24.6937 27.9487ZM30.1603 32.1115C35.9734 32.1115 40.9437 28.4349 42.8695 23.2845H49.4508V26.8683C49.3937 26.8798 49.3353 26.8899 49.2781 26.9052C48.6408 27.0753 48.1089 27.4853 47.7775 28.0592C47.5109 28.52 47.4043 29.0418 47.4614 29.5598C46.4915 31.412 42.8772 34.9019 41.7574 35.2231L37.4893 36.367C35.4009 36.9268 34.1377 39.0076 34.6722 41.0058L35.3361 43.4865C35.5964 44.4602 36.2413 45.2677 37.1516 45.7602C37.6975 46.056 38.2979 46.2135 38.9111 46.2325L40.3622 48.2447H10.772V23.2857H17.4497C19.3769 28.4349 24.3471 32.1115 30.1603 32.1115ZM39.7021 44.6227C39.0774 44.7903 38.43 44.718 37.8777 44.4183C37.3395 44.1276 36.9599 43.6554 36.8088 43.0904L36.1448 40.6098C35.8262 39.4227 36.6069 38.1786 37.8841 37.8358L41.4451 36.8811L42.4658 40.3622L43.3456 43.6439L39.7021 44.6227ZM40.5958 45.9608L41.9098 45.6092L44.6177 49.9332C44.751 50.1465 44.7687 50.4626 44.539 50.6289C44.4387 50.7013 44.3143 50.7292 44.1898 50.7101C44.0654 50.6898 43.9575 50.6238 43.8839 50.5235L40.5958 45.9608ZM44.8475 43.3697L43.9347 39.9623C43.9334 39.9559 43.9321 39.9509 43.9296 39.9445L42.8797 36.367C44.3714 35.5062 46.6108 33.3049 47.9578 31.5402L51.562 44.9934C49.5308 44.134 46.5524 43.3596 44.8475 43.3697ZM49.0014 29.542C48.9366 29.2982 48.9709 29.0418 49.0979 28.8209C49.2248 28.6 49.4305 28.4413 49.6742 28.3766C49.7555 28.355 49.8367 28.3448 49.918 28.3448C50.083 28.3448 50.2468 28.388 50.394 28.4743C50.6149 28.6025 50.7736 28.8069 50.8384 29.0507L55.2589 45.5457C55.3947 46.0522 55.0926 46.5753 54.586 46.7111C54.0795 46.847 53.5564 46.5448 53.4206 46.0383L49.0014 29.542ZM56.6097 36.3429C56.8115 37.097 56.7087 37.8853 56.3177 38.562C56.0574 39.0127 55.6893 39.3745 55.2513 39.6284L53.79 34.1758C55.0786 34.1783 56.2605 35.0403 56.6097 36.3429ZM53.8002 22.7792V32.6523C53.6631 32.6523 53.5247 32.6574 53.3863 32.6701L52.3098 28.6546C52.1396 28.0173 51.7296 27.4853 51.1558 27.154C51.0961 27.1197 51.0352 27.0892 50.9742 27.06V22.5227C50.9742 22.1025 50.6327 21.761 50.2125 21.761H43.338C43.531 20.9688 43.6554 20.1487 43.7023 19.3096H50.3306C52.2438 19.3096 53.8002 20.866 53.8002 22.7792ZM41.765 21.761H37.4981C37.6365 20.72 37.7076 19.6434 37.7076 18.5478C37.7076 17.4522 37.6365 16.3744 37.4981 15.3347H41.765C42.0494 16.3579 42.2018 17.4357 42.2018 18.5478C42.2005 19.6599 42.0481 20.7378 41.765 21.761ZM41.2293 13.8099H37.2404C36.8888 12.0872 36.3454 10.499 35.6281 9.14442C35.2523 8.43602 34.841 7.81268 34.3992 7.27694C37.4651 8.43475 39.9395 10.81 41.2293 13.8099ZM25.9226 7.27821C25.4808 7.81395 25.0694 8.43729 24.6937 9.14569C23.9764 10.5003 23.433 12.0872 23.0813 13.8112H19.0925C20.3811 10.81 22.8554 8.43475 25.9226 7.27821ZM18.5555 15.3334H22.8224C22.684 16.3744 22.6129 17.451 22.6129 18.5466C22.6129 19.6422 22.684 20.72 22.8224 21.7598H18.5555C18.2711 20.7365 18.1188 19.6587 18.1188 18.5466C18.12 17.4345 18.2724 16.3566 18.5555 15.3334ZM6.52031 22.7792C6.52031 20.866 8.07676 19.3083 9.99121 19.3083H16.6194C16.6664 20.1487 16.7896 20.9676 16.9838 21.7598H10.0103C9.59004 21.7598 9.24853 22.1013 9.24853 22.5215V49.0039C9.24853 49.4241 9.59004 49.7656 10.0103 49.7656H41.4616L42.6499 51.4122C42.9609 51.8426 43.4205 52.1269 43.9474 52.212C44.0553 52.2298 44.1645 52.2387 44.2711 52.2387C44.6862 52.2387 45.0887 52.1092 45.4302 51.8629C46.103 51.3766 46.3734 50.5515 46.1805 49.7656H50.2138C50.634 49.7656 50.9755 49.4241 50.9755 49.0039V46.3887C51.4566 46.5905 51.873 46.7987 52.1841 47.0031C52.5307 47.6201 53.1261 48.0505 53.8015 48.2028V53.0004H6.52031V22.7792ZM56.8928 56.5322C56.8928 57.6126 56.013 58.4924 54.9326 58.4924H5.38789C4.30625 58.4924 3.42773 57.6126 3.42773 56.5322V54.5251H56.8928V56.5322ZM59.423 35.9328C59.3138 35.5266 59.555 35.1089 59.9612 34.9997L62.1372 34.417C62.5435 34.3078 62.9611 34.549 63.0703 34.9553C63.1795 35.3615 62.9383 35.7792 62.532 35.8884L60.3561 36.4711C60.29 36.4889 60.224 36.4977 60.158 36.4977C59.8216 36.4977 59.5144 36.273 59.423 35.9328ZM63.0703 39.2437C62.9789 39.584 62.6717 39.8087 62.3353 39.8087C62.2705 39.8087 62.2032 39.7998 62.1372 39.782L59.9612 39.1993C59.555 39.0901 59.3138 38.6725 59.423 38.2662C59.5321 37.86 59.9498 37.62 60.3561 37.7279L62.532 38.3106C62.937 38.4198 63.1782 38.8375 63.0703 39.2437ZM60.9261 32.3184L59.3341 33.9104C59.1855 34.059 58.99 34.1339 58.7958 34.1339C58.6016 34.1339 58.4061 34.059 58.2575 33.9104C57.9605 33.6134 57.9605 33.1309 58.2575 32.8339L59.8495 31.2419C60.1466 30.9448 60.629 30.9448 60.9273 31.2419C61.2231 31.539 61.2231 32.0214 60.9261 32.3184Z" fill="#CC0444"/>
</svg>
