<svg width="65" height="65" viewBox="0 0 65 65" fill="none" xmlns="http://www.w3.org/2000/svg">
<g clip-path="url(#clip0_13_1226)">
<path d="M64.0161 41.8905H0.984131V4.5449C0.984131 2.56063 2.59262 0.952148 4.57688 0.952148H60.4235C62.4078 0.952148 64.0162 2.56063 64.0162 4.5449L64.0161 41.8905Z" stroke="#CC0444" stroke-width="2" stroke-miterlimit="10" stroke-linecap="round" stroke-linejoin="round"/>
<path d="M60.4232 51.7793H4.57664C2.59237 51.7793 0.983887 50.1708 0.983887 48.1866V41.8905H64.0159V48.1867C64.016 50.1708 62.4075 51.7793 60.4232 51.7793Z" stroke="#CC0444" stroke-width="2" stroke-miterlimit="10" stroke-linecap="round" stroke-linejoin="round"/>
<path d="M39.3253 59.8074V64.0479H25.6743V51.7793H39.3253V55.3359" stroke="#CC0444" stroke-width="2" stroke-miterlimit="10" stroke-linecap="round" stroke-linejoin="round"/>
<path d="M21.0481 64.0282H43.9516" stroke="#CC0444" stroke-width="2" stroke-miterlimit="10" stroke-linecap="round" stroke-linejoin="round"/>
<path d="M30.5994 46.8349H34.4007" stroke="#CC0444" stroke-width="2" stroke-miterlimit="10" stroke-linecap="round" stroke-linejoin="round"/>
<path d="M32.2902 28.9392C29.7736 32.9897 25.2839 35.6866 20.1644 35.6866C12.2859 35.6866 5.89917 29.2998 5.89917 21.4213C5.89917 18.2043 6.96405 15.2362 8.76042 12.8499" stroke="#CC0444" stroke-width="2" stroke-miterlimit="10" stroke-linecap="round" stroke-linejoin="round"/>
<path d="M11.9116 9.78435C14.2412 8.12913 17.0893 7.15604 20.1646 7.15604C25.3513 7.15604 29.8914 9.924 32.3884 14.0634" stroke="#CC0444" stroke-width="2" stroke-miterlimit="10" stroke-linecap="round" stroke-linejoin="round"/>
<path d="M25.3809 17.1697V25.6729" stroke="#CC0444" stroke-width="2" stroke-miterlimit="10" stroke-linecap="round" stroke-linejoin="round"/>
<path d="M14.948 17.1697V23.0208C14.948 24.0173 15.4422 24.6881 16.282 25.2246C16.6909 25.4859 17.2075 25.672 17.8494 25.6729C18.4053 25.6736 18.8698 25.5449 19.254 25.3514C20.2325 24.8586 20.8565 24.1103 20.8565 23.0146V17.1696" stroke="#CC0444" stroke-width="2" stroke-miterlimit="10" stroke-linecap="round" stroke-linejoin="round"/>
<path d="M44.8351 35.6866C52.7136 35.6866 59.1003 29.2998 59.1003 21.4213C59.1003 13.5428 52.7136 7.15604 44.8351 7.15604C36.9566 7.15604 30.5698 13.5428 30.5698 21.4213C30.5698 29.2998 36.9566 35.6866 44.8351 35.6866Z" stroke="#CC0444" stroke-width="2" stroke-miterlimit="10" stroke-linecap="round" stroke-linejoin="round"/>
<path d="M46.8298 17.1697L52.8117 25.6729" stroke="#CC0444" stroke-width="2" stroke-miterlimit="10" stroke-linecap="round" stroke-linejoin="round"/>
<path d="M52.3907 17.1697L46.4004 25.6729" stroke="#CC0444" stroke-width="2" stroke-miterlimit="10" stroke-linecap="round" stroke-linejoin="round"/>
<path d="M36.8589 17.1697V23.0208C36.8589 24.0173 37.3531 24.6881 38.1929 25.2246C38.6018 25.4859 39.1184 25.672 39.7603 25.6729C40.3162 25.6736 40.7807 25.5449 41.1649 25.3514C42.1434 24.8586 42.7674 24.1103 42.7674 23.0146V17.1696" stroke="#CC0444" stroke-width="2" stroke-miterlimit="10" stroke-linecap="round" stroke-linejoin="round"/>
</g>
<defs>
<clipPath id="clip0_13_1226">
<rect width="65" height="65" fill="white"/>
</clipPath>
</defs>
</svg>
