<svg width="60" height="60" viewBox="0 0 60 60" fill="none" xmlns="http://www.w3.org/2000/svg">
<path d="M40.0199 44.868C39.6359 44.532 39.5879 43.956 39.9239 43.572C40.2599 43.188 40.8359 43.14 41.2199 43.476L43.1759 45.168C45.7559 42.468 50.0519 42.42 52.6919 45.06C55.2839 47.664 55.2839 51.876 52.6919 54.468C50.0879 57.06 45.8759 57.06 43.2839 54.468C41.2319 52.416 40.7399 49.248 42.1079 46.668L40.0199 44.868ZM33.6959 21.168L35.1359 23.772L38.0759 24.336C38.7599 24.468 39.1079 25.332 38.5199 25.92L36.5279 28.044L36.8999 31.02C36.9839 31.704 36.2759 32.316 35.5319 31.932L32.8919 30.696L30.1799 31.968C29.5199 32.268 28.7999 31.716 28.8839 31.032L29.2559 28.056L27.2159 25.872C26.7239 25.344 27.0119 24.48 27.7079 24.348L30.6479 23.784L32.0999 21.168C32.4359 20.52 33.3599 20.544 33.6959 21.168ZM33.7439 25.044L32.8919 23.496L32.0399 25.032C31.9079 25.26 31.6799 25.44 31.4039 25.5L29.6639 25.836L30.8039 27.06C31.0199 27.252 31.1399 27.552 31.1039 27.864L30.8879 29.616L32.4839 28.872C32.7239 28.764 32.9999 28.752 33.2639 28.872L34.8599 29.616L34.6439 27.864H34.6559C34.6199 27.6 34.7039 27.336 34.8959 27.132L36.1079 25.848L34.3679 25.512C34.1159 25.452 33.8759 25.296 33.7439 25.044ZM28.6199 38.82H37.1639C37.9559 32.436 42.3119 33.144 42.3119 26.628C42.3119 21.42 38.0879 17.196 32.8799 17.196C27.6719 17.196 23.4479 21.42 23.4479 26.628C23.4599 33.12 27.8279 32.376 28.6199 38.82ZM38.9759 39.06C40.8239 39.996 40.5119 43.092 38.2439 43.38C38.4959 44.604 37.7639 45.936 36.3599 46.128C35.6639 47.748 34.5239 49.344 32.8799 49.344C31.2359 49.344 30.0959 47.748 29.3999 46.128C27.9959 45.948 27.2759 44.604 27.5159 43.38C25.2479 43.092 24.9359 39.984 26.7839 39.06C26.0759 33.3 21.6119 33.924 21.6119 26.628C21.6119 20.412 26.6519 15.36 32.8799 15.36C39.0959 15.36 44.1479 20.4 44.1479 26.628C44.1479 33.936 39.6959 33.36 38.9759 39.06ZM37.9079 40.656H27.8759C27.4199 40.656 27.3719 41.088 27.4679 41.328C27.5279 41.46 27.6599 41.568 27.8759 41.568H37.9079C38.3639 41.568 38.4119 41.136 38.3159 40.896C38.2559 40.764 38.1239 40.656 37.9079 40.656ZM29.7599 44.304H36.0239C36.4799 44.304 36.5279 43.872 36.4319 43.632C36.3719 43.5 36.2399 43.392 36.0239 43.392H29.7599C29.3039 43.392 29.2559 43.824 29.3519 44.064C29.4119 44.208 29.5439 44.304 29.7599 44.304ZM31.4519 46.152C31.7519 46.704 32.3279 47.508 32.8919 47.508C33.4559 47.508 34.0199 46.704 34.3319 46.152H31.4519ZM21.5759 34.98C21.9359 34.62 22.5119 34.62 22.8719 34.98C23.2319 35.34 23.2319 35.916 22.8719 36.276L19.9679 39.18C19.6079 39.54 19.0319 39.54 18.6719 39.18C18.3119 38.82 18.3119 38.244 18.6719 37.884L21.5759 34.98ZM47.0759 47.832C47.0759 47.328 47.4839 46.92 47.9879 46.92C48.4919 46.92 48.8999 47.328 48.8999 47.832V48.852H49.9199C50.4239 48.852 50.8319 49.26 50.8319 49.764C50.8319 50.268 50.4239 50.676 49.9199 50.676H48.8999V51.696C48.8999 52.2 48.4919 52.608 47.9879 52.608C47.4839 52.608 47.0759 52.2 47.0759 51.696V50.676H46.0559C45.5519 50.676 45.1439 50.268 45.1439 49.764C45.1439 49.26 45.5519 48.852 46.0559 48.852H47.0759V47.832ZM51.3959 46.368C49.5119 44.484 46.4639 44.484 44.5799 46.368C42.6959 48.252 42.6959 51.3 44.5799 53.184C46.4639 55.068 49.5119 55.068 51.3959 53.184C53.2799 51.3 53.2799 48.24 51.3959 46.368ZM49.1759 8.292C49.1759 7.788 49.5839 7.368 50.0999 7.368C50.6039 7.368 51.0119 7.776 51.0119 8.292V9.312H52.0319C52.5359 9.312 52.9559 9.72 52.9559 10.224C52.9559 10.728 52.5479 11.148 52.0319 11.148H51.0119V12.168C51.0119 12.672 50.6039 13.08 50.0999 13.08C49.5959 13.08 49.1759 12.672 49.1759 12.168V11.148H48.1559C47.6519 11.148 47.2439 10.74 47.2439 10.224C47.2439 9.72 47.6519 9.312 48.1559 9.312H49.1759V8.292ZM8.98792 25.5C8.98792 24.996 9.39592 24.588 9.91192 24.588C10.4159 24.588 10.8239 24.996 10.8239 25.5V26.52H11.8439C12.3479 26.52 12.7679 26.928 12.7679 27.432C12.7679 27.936 12.3599 28.344 11.8439 28.344H10.8239V29.364C10.8239 29.868 10.4159 30.276 9.91192 30.276C9.40792 30.276 8.98792 29.868 8.98792 29.364V28.344H7.96792C7.46392 28.344 7.05592 27.936 7.05592 27.432C7.05592 26.928 7.46392 26.52 7.96792 26.52H8.98792V25.5ZM50.0879 3.576C53.7599 3.576 56.7359 6.552 56.7359 10.224C56.7359 13.896 53.7599 16.872 50.0879 16.872C48.6239 16.872 47.2679 16.404 46.1759 15.6L43.6679 18.12C43.3079 18.48 42.7319 18.48 42.3719 18.12C42.0119 17.76 42.0119 17.184 42.3719 16.824L44.8559 14.34C42.7799 11.7 43.0079 7.908 45.3839 5.532C46.5959 4.32 48.2519 3.576 50.0879 3.576ZM53.4959 6.828C51.6119 4.944 48.5639 4.944 46.6799 6.828C44.7959 8.712 44.7959 11.76 46.6799 13.644C48.5639 15.528 51.6119 15.528 53.4959 13.644C55.3799 11.76 55.3799 8.712 53.4959 6.828ZM9.91192 20.796C13.3079 20.796 16.1519 23.352 16.5239 26.7H18.5639C19.0679 26.7 19.4759 27.108 19.4759 27.612C19.4759 28.116 19.0679 28.524 18.5639 28.524H16.4759C15.9599 31.704 13.1879 34.104 9.91192 34.104C6.23992 34.104 3.26392 31.128 3.26392 27.456C3.26392 23.784 6.22792 20.796 9.91192 20.796ZM13.3079 24.036C11.4239 22.152 8.37592 22.152 6.49192 24.036C4.60792 25.92 4.60792 28.968 6.49192 30.852C8.37592 32.736 11.4239 32.736 13.3079 30.852C15.1919 28.968 15.1919 25.92 13.3079 24.036ZM51.1319 26.688C51.6359 26.688 52.0439 27.096 52.0439 27.6C52.0439 28.104 51.6359 28.512 51.1319 28.512H47.2199C46.7159 28.512 46.3079 28.104 46.3079 27.6C46.3079 27.096 46.7159 26.688 47.2199 26.688H51.1319ZM19.3439 15.36C18.9839 15 18.9839 14.424 19.3439 14.064C19.7039 13.704 20.2799 13.704 20.6399 14.064L23.3999 16.824C23.7599 17.184 23.7599 17.76 23.3999 18.12C23.0399 18.48 22.4639 18.48 22.1039 18.12L19.3439 15.36ZM31.9679 9.36C31.9679 8.856 32.3759 8.448 32.8799 8.448C33.3839 8.448 33.7919 8.856 33.7919 9.36V13.272C33.7919 13.776 33.3839 14.184 32.8799 14.184C32.3759 14.184 31.9679 13.776 31.9679 13.272V9.36Z" fill="#C73E9B"/>
</svg>
