<svg width="60" height="60" viewBox="0 0 60 60" fill="none" xmlns="http://www.w3.org/2000/svg">
<g clip-path="url(#clip0_36_1376)">
<path d="M48.1123 48.5998C43.0873 54.056 35.9436 57.1873 28.5092 57.1873C22.2561 57.1873 16.3217 55.0404 11.5686 51.0935L13.9405 51.1123H13.9498C14.4467 51.1123 14.8592 50.7091 14.8592 50.2123C14.8592 49.706 14.4561 49.3029 13.9592 49.2935L9.26233 49.2654C9.01858 49.256 8.76545 49.3685 8.5967 49.5466C8.42795 49.7341 8.3342 49.9779 8.35295 50.231L8.66233 54.9185C8.69045 55.3966 9.09358 55.7716 9.5717 55.7716H9.63733C10.1342 55.7341 10.5186 55.3029 10.4811 54.806L10.3123 52.4154C15.4123 56.681 21.7873 59.006 28.5092 59.006C36.4498 59.006 44.0905 55.6591 49.453 49.8279C49.7905 49.4623 49.7717 48.881 49.3967 48.5435C49.0311 48.206 48.4498 48.2248 48.1123 48.5998Z" fill="#C73E9B"/>
<path d="M59.8497 34.228C59.5684 33.8155 59.0059 33.703 58.584 33.9749L56.5965 35.3061C56.8684 33.7217 57.0184 32.1092 57.0184 30.4967C57.0184 27.6186 56.5871 24.7686 55.7434 22.0124C54.4684 17.9342 52.3497 14.2874 49.4528 11.1655C45.5059 6.88112 40.434 3.95612 34.7903 2.69987C34.3028 2.58737 33.8153 2.89675 33.7028 3.38425C33.5903 3.87175 33.8996 4.35925 34.3965 4.47175C39.6746 5.64362 44.4184 8.3905 48.1215 12.403C50.8403 15.328 52.8184 18.7405 54.009 22.5561C54.8059 25.1342 55.209 27.7967 55.209 30.4967C55.209 31.9592 55.0778 33.4217 54.834 34.8655L53.6622 32.8124C53.4184 32.3717 52.8559 32.2217 52.4246 32.4749C51.984 32.7186 51.834 33.2811 52.0872 33.7124L54.4028 37.7999C54.5246 38.0155 54.7403 38.1749 54.984 38.2311C55.0497 38.2499 55.1246 38.2592 55.1903 38.2592C55.3684 38.2592 55.5465 38.203 55.6965 38.1092L59.5965 35.4936C60.009 35.2124 60.1215 34.6499 59.8497 34.228Z" fill="#C73E9B"/>
<path d="M1.81875 30.4968C1.81875 27.7968 2.22188 25.1249 3.01875 22.5561C4.19063 18.8155 6.225 15.2999 8.91563 12.3936C11.7563 9.31863 15.2531 6.97488 19.1344 5.52176L17.9344 7.55613C17.6812 7.98738 17.8219 8.54988 18.2531 8.80301C18.3937 8.88738 18.5531 8.92488 18.7125 8.92488C19.0219 8.92488 19.3219 8.76551 19.5 8.47488L21.8906 4.43426C22.0219 4.21863 22.05 3.95613 21.975 3.71238C21.9 3.46863 21.7313 3.27176 21.5063 3.15926L17.2969 1.07801C16.8469 0.853006 16.3031 1.04051 16.0781 1.49051C15.8531 1.94051 16.0406 2.48426 16.4906 2.70926L18.6281 3.76863C14.4281 5.31551 10.6406 7.83738 7.575 11.1655C4.70625 14.2593 2.53125 18.0093 1.275 22.0218C0.43125 24.7686 0 27.6186 0 30.4968C0 33.3655 0.43125 36.2155 1.275 38.9718C1.39688 39.3655 1.75312 39.6093 2.14687 39.6093C2.23125 39.6093 2.325 39.5999 2.41875 39.5718C2.89687 39.4218 3.16875 38.9155 3.01875 38.4374C2.22188 35.8593 1.81875 33.1874 1.81875 30.4968Z" fill="#C73E9B"/>
<path d="M13.7434 19.6499V41.4561C13.734 41.8686 14.0153 42.253 14.4371 42.3561C14.5121 42.3749 14.5871 42.3842 14.6528 42.3842H14.6996H40.9309C41.7934 42.3842 42.5434 41.7936 42.7496 40.9592L46.1996 26.9436C46.3403 26.3811 46.209 25.7905 45.8528 25.3405C45.4965 24.8811 44.9528 24.6186 44.3809 24.6186H42.5996V22.7905C42.5996 21.6655 41.709 20.7561 40.6121 20.7561H29.0809C28.7715 20.7561 28.4809 20.6342 28.2559 20.4092L26.2684 18.478C25.6965 17.9249 24.9559 17.6155 24.1684 17.6155H15.7309C14.634 17.6155 13.7434 18.5249 13.7434 19.6499ZM44.3809 26.428L44.4371 26.503L40.9309 40.5655H15.8246L19.3403 26.4374H44.3809V26.428ZM25.0028 19.7811L26.9903 21.7124C27.5621 22.2655 28.3028 22.5749 29.0903 22.5749H40.6215C40.7153 22.5749 40.7903 22.678 40.7903 22.7905V24.6186H19.3403C18.4778 24.6186 17.7278 25.2092 17.5215 26.0436L15.5715 33.9749V19.6499C15.5715 19.528 15.6465 19.4342 15.7403 19.4342H24.1778C24.4778 19.4342 24.7684 19.5561 25.0028 19.7811Z" fill="#C73E9B"/>
<path d="M30.5158 34.4062H38.7283C39.2346 34.4062 39.6377 34.003 39.6377 33.4968C39.6377 32.9905 39.2346 32.5874 38.7283 32.5874H30.5158C30.0096 32.5874 29.6064 32.9905 29.6064 33.4968C29.6064 34.003 30.0189 34.4062 30.5158 34.4062Z" fill="#C73E9B"/>
<path d="M26.3723 38.5404H37.4535C37.9598 38.5404 38.3629 38.1373 38.3629 37.6311C38.3629 37.1248 37.9598 36.7217 37.4535 36.7217H26.3723C25.866 36.7217 25.4629 37.1248 25.4629 37.6311C25.4629 38.1373 25.8754 38.5404 26.3723 38.5404Z" fill="#C73E9B"/>
</g>
<defs>
<clipPath id="clip0_36_1376">
<rect width="60" height="60" fill="white"/>
</clipPath>
</defs>
</svg>
