<svg width="60" height="60" viewBox="0 0 60 60" fill="none" xmlns="http://www.w3.org/2000/svg">
<mask id="mask0_36_1271" style="mask-type:luminance" maskUnits="userSpaceOnUse" x="0" y="0" width="60" height="60">
<path d="M0 3.8147e-06H60V60H0V3.8147e-06Z" fill="white"/>
</mask>
<g mask="url(#mask0_36_1271)">
<path d="M1.17188 18.2021H19.558H54.553" stroke="white" stroke-width="2" stroke-miterlimit="10" stroke-linecap="round" stroke-linejoin="round"/>
<path d="M10.9575 13.2156C12.4922 13.2156 13.7445 11.9673 13.7445 10.4334C13.7445 8.89956 12.4922 7.65128 10.9575 7.65128C9.42621 7.65128 8.17383 8.89956 8.17383 10.4334C8.17383 11.9673 9.42621 13.2156 10.9575 13.2156Z" stroke="white" stroke-width="2" stroke-miterlimit="10" stroke-linecap="round" stroke-linejoin="round"/>
<path d="M35.1509 7.65104H45.6345C47.1657 7.65104 48.4181 8.90272 48.4181 10.4332C48.4181 11.9638 47.1657 13.2153 45.6345 13.2153H35.1509C33.6196 13.2153 32.3672 11.9638 32.3672 10.4332C32.3672 8.90272 33.6196 7.65104 35.1509 7.65104Z" stroke="white" stroke-width="2" stroke-miterlimit="10" stroke-linecap="round" stroke-linejoin="round"/>
<path d="M21.2358 13.2156C22.7705 13.2156 24.0228 11.9673 24.0228 10.4334C24.0228 8.89956 22.7705 7.65128 21.2358 7.65128C19.7045 7.65128 18.4521 8.89956 18.4521 10.4334C18.4521 11.9673 19.7045 13.2156 21.2358 13.2156Z" stroke="white" stroke-width="2" stroke-miterlimit="10" stroke-linecap="round" stroke-linejoin="round"/>
<path d="M19.0328 27.2162L16.6875 37.0303" stroke="white" stroke-width="2" stroke-miterlimit="10" stroke-linecap="round" stroke-linejoin="round"/>
<path d="M24.4346 36.1438L27.753 32.4186C27.8991 32.256 27.8991 31.9904 27.753 31.8278L24.4346 28.1026" stroke="white" stroke-width="2" stroke-miterlimit="10" stroke-linecap="round" stroke-linejoin="round"/>
<path d="M11.2865 36.1438L7.96809 32.4186C7.82184 32.256 7.82184 31.9904 7.96809 31.8278L11.2865 28.1026" stroke="white" stroke-width="2" stroke-miterlimit="10" stroke-linecap="round" stroke-linejoin="round"/>
<path d="M47.4043 32.3953C48.6864 32.6809 49.8856 33.1855 50.9652 33.8627L51.9252 32.9066C52.4932 32.3356 53.4266 32.3356 53.998 32.9066L55.5094 34.4173C56.0807 34.9883 56.0807 35.9213 55.5094 36.489L54.5527 37.4484C55.2271 38.5175 55.7253 39.7062 56.0144 40.9744H57.3596C58.1669 40.9744 58.8278 41.6351 58.8278 42.4385V44.58C58.8278 45.3833 58.1669 46.044 57.3596 46.044H56.0077C55.7186 47.3057 55.2204 48.4876 54.5527 49.55L55.5094 50.5062C56.0807 51.0772 56.0807 52.0102 55.5094 52.5779L53.998 54.0919C53.4266 54.6629 52.4932 54.6629 51.9252 54.0919L50.9652 53.1356C49.8989 53.8063 48.713 54.3043 47.4441 54.5932V55.9543C47.4441 56.7612 46.783 57.4219 45.9793 57.4219H43.8367C43.0327 57.4219 42.3718 56.7612 42.3718 55.9543V54.5899C41.1094 54.3043 39.9236 53.803 38.8572 53.1356L37.9006 54.0919C37.3292 54.6629 36.3959 54.6629 35.8278 54.0919L34.3131 52.5779C33.745 52.0102 33.745 51.0772 34.3131 50.5062L35.273 49.55C34.6021 48.4876 34.1038 47.3057 33.8148 46.044H32.4562C31.6491 46.044 30.9912 45.3833 30.9912 44.58V42.4385C30.9912 41.6351 31.6491 40.9744 32.4562 40.9744H33.8116C34.0971 39.7194 34.5889 38.5441 35.2498 37.485L34.2865 36.5189C33.7152 35.9511 33.7152 35.0182 34.2865 34.4472L35.7979 32.9365C36.3693 32.3654 37.3027 32.3654 37.8707 32.9365L38.824 33.8861C39.8871 33.2121 41.0696 32.7107 42.3319 32.4152V31.0641C42.3319 30.2572 42.9896 29.5965 43.7968 29.5965H45.936C46.7432 29.5965 47.4043 30.2572 47.4043 31.0641V32.3953Z" stroke="white" stroke-width="2" stroke-miterlimit="10" stroke-linecap="round" stroke-linejoin="round"/>
<path d="M44.9096 37.4716C48.2446 37.4716 50.9486 40.1742 50.9486 43.5108C50.9486 46.8442 48.2446 49.5466 44.9096 49.5466C41.5713 49.5466 38.8672 46.8442 38.8672 43.5108C38.8672 40.1742 41.5713 37.4716 44.9096 37.4716Z" stroke="white" stroke-width="2" stroke-miterlimit="10" stroke-linecap="round" stroke-linejoin="round"/>
<path d="M12.4726 46.0439H5.53664C3.13852 46.0439 1.17188 43.6968 1.17188 40.8316V7.79043C1.17188 4.92203 3.135 2.57805 5.53664 2.57805H10.5925H50.1882C52.5899 2.57805 54.553 4.92532 54.553 7.79043V33.4611M32.4565 46.0439H22.9462" stroke="white" stroke-width="2" stroke-miterlimit="10" stroke-linecap="round" stroke-linejoin="round"/>
<path d="M17.7207 46.0439H17.7439" stroke="white" stroke-width="2" stroke-miterlimit="10" stroke-linecap="round" stroke-linejoin="round"/>
</g>
</svg>
