<svg width="60" height="60" viewBox="0 0 60 60" fill="none" xmlns="http://www.w3.org/2000/svg">
<g clip-path="url(#clip0_36_1337)">
<path d="M5.91799 39.0823C5.43259 39.0823 5.03906 39.4758 5.03906 39.9612C5.03906 40.4466 5.43259 40.8401 5.91799 40.8401H13.594C14.0794 40.8401 14.4729 40.4466 14.4729 39.9612C14.4729 39.4758 14.0794 39.0823 13.594 39.0823H5.91799Z" fill="white"/>
<path d="M59.0138 45.5134L55.3131 41.8127L55.3139 12.0734C55.3139 11.2657 54.6568 10.6085 53.849 10.6085L45.3892 10.6079C42.0585 7.41984 37.3787 5.55007 32.7245 5.56577C27.8312 5.56577 23.3777 7.48348 20.0748 10.6061L11.8986 10.6053C11.4132 10.6053 11.0195 10.9987 11.0195 11.4841C11.0195 11.9696 11.4129 12.3631 11.8983 12.3632L18.4414 12.3639C17.9559 12.9591 17.5071 13.5852 17.0977 14.2386L1.75856 14.2376V12.3628L7.79668 12.3632C8.28209 12.3632 8.67561 11.9698 8.67561 11.4842C8.67561 10.9987 8.2822 10.6053 7.79668 10.6053L1.46547 10.605C0.657673 10.605 0.000585952 11.262 0.000585952 12.0698L0 44.8805C0 45.6883 0.657087 46.3454 1.46488 46.3454L13.3747 46.3462C13.8601 46.3462 14.2536 45.9528 14.2536 45.4673C14.2536 44.9817 13.8602 44.5883 13.3747 44.5883L1.75786 44.5875L1.75856 15.9955L16.1245 15.9964C15.5598 17.1638 15.1158 18.3995 14.8064 19.6872H5.97671C5.49131 19.6872 5.09779 20.0808 5.09779 20.5662V27.5976C5.09779 28.083 5.49131 28.4765 5.97671 28.4765H14.8499C15.0568 29.3006 15.3191 30.1028 15.633 30.8789H5.91812C5.43272 30.8789 5.03919 31.2724 5.03919 31.7578C5.03919 32.2432 5.43272 32.6368 5.91812 32.6368H16.4545C16.8918 33.4566 17.3886 34.2402 17.9403 34.9806H5.91812C5.43272 34.9806 5.03919 35.3741 5.03919 35.8595C5.03919 36.3449 5.43272 36.7384 5.91812 36.7384H19.4284C22.7845 40.2382 27.5044 42.4205 32.7246 42.4205C35.9478 42.4205 39.0676 41.587 41.8152 40.0262L43.5726 41.7836C43.9011 42.1121 44.3326 42.2764 44.7641 42.2764C45.1492 42.2764 45.5337 42.1447 45.8455 41.8831L48.553 44.5907L17.4764 44.5884C16.991 44.5884 16.5975 44.9819 16.5975 45.4674C16.5975 45.9529 16.9909 46.3463 17.4764 46.3463L21.3116 46.3465L20.5409 49.1579L19.0212 49.1576C16.8363 49.1576 15.0589 50.935 15.0589 53.1198V53.552C15.0589 54.0374 15.4523 54.4309 15.9377 54.4309L39.3754 54.4343H39.3755C39.6086 54.4343 39.8321 54.3417 39.997 54.177C40.1619 54.0121 40.2545 53.7886 40.2545 53.5554V53.1232C40.2545 50.9384 38.477 49.161 36.2923 49.161L34.7726 49.1606L34.0014 46.3474L50.311 46.3485L54.2449 50.2825C54.8819 50.9194 55.7288 51.2702 56.6294 51.2702C57.5301 51.2702 58.3769 50.9194 59.014 50.2825C60.3287 48.9676 60.3287 46.8283 59.0138 45.5134ZM38.4509 52.6763L16.8621 52.6732C17.0691 51.6711 17.9584 50.9154 19.0208 50.9154L36.2919 50.9188C37.3545 50.9188 38.2438 51.6744 38.4509 52.6763ZM32.9496 49.1604L22.3635 49.1583L23.1342 46.3467L32.1785 46.3474L32.9496 49.1604ZM53.556 14.241L48.3595 14.2407C47.9531 13.5899 47.5063 12.9634 47.0202 12.3659L53.556 12.3663V14.241ZM6.85564 26.7188V21.4452H14.4742C14.3584 22.2784 14.2972 23.1288 14.2972 23.9933C14.2972 24.9192 14.3666 25.8292 14.4992 26.7188H6.85564ZM16.0551 23.9933C16.0551 14.8017 23.533 7.32375 32.7246 7.32375C40.998 7.32375 47.9249 13.247 49.195 21.4081C49.2697 21.8877 49.7191 22.2164 50.1987 22.1413C50.6783 22.0667 51.0067 21.6174 50.9319 21.1377C50.6529 19.3449 50.1081 17.6146 49.3286 15.9987L53.5559 15.999L53.5553 40.055L50.6147 37.1143C50.8692 36.8115 51.0086 36.4329 51.0086 36.0327C51.0086 35.5827 50.8332 35.1595 50.5151 34.8412L48.7584 33.0846C50.0869 30.7461 50.8936 28.1288 51.0994 25.3957C51.1358 24.9117 50.773 24.4897 50.2889 24.4532C49.805 24.4177 49.383 24.7796 49.3465 25.2637C48.6962 33.8987 41.395 40.6627 32.7246 40.6627C23.533 40.6628 16.0551 33.1849 16.0551 23.9933ZM43.3354 39.0605C44.0149 38.5809 44.6659 38.0537 45.2826 37.4791C46.2247 36.6014 47.0637 35.6377 47.7927 34.605L49.2205 36.0327L44.7641 40.4891L43.3354 39.0605ZM57.7709 49.0395C57.466 49.3444 57.0605 49.5123 56.6294 49.5123C56.1982 49.5123 55.7927 49.3444 55.4878 49.0395L47.0937 40.6453L49.3767 38.3622L57.7708 46.7564C58.4002 47.3859 58.4002 48.41 57.7709 49.0395Z" fill="white"/>
<path d="M32.7243 9.07568C24.4987 9.07568 17.8066 15.7677 17.8066 23.9933C17.8066 28.7442 20.1016 33.2535 23.9454 36.0555C24.3377 36.3416 24.8875 36.2552 25.1735 35.863C25.4594 35.4707 25.3733 34.9209 24.9809 34.6349C21.5894 32.1626 19.5645 28.1843 19.5645 23.9932C19.5645 16.7369 25.468 10.8334 32.7243 10.8334C39.9806 10.8334 45.8841 16.7369 45.8841 23.9932C45.8841 31.2495 39.9806 37.153 32.7243 37.153C31.2298 37.153 29.7638 36.9047 28.3673 36.4149C27.909 36.254 27.4076 36.4954 27.247 36.9534C27.0864 37.4115 27.3275 37.913 27.7855 38.0736C29.3695 38.6292 31.031 38.9109 32.7243 38.9109C40.9499 38.9109 47.6419 32.2188 47.6419 23.9932C47.6419 15.7676 40.95 9.07568 32.7243 9.07568Z" fill="white"/>
<path d="M33.1423 21.7227C33.6277 21.7227 34.0212 21.3292 34.0212 20.8438C34.0212 20.3584 33.6277 19.9648 33.1423 19.9648H30.4883C30.0029 19.9648 29.6094 20.3584 29.6094 20.8438V27.1424C29.6094 27.6278 30.0029 28.0213 30.4883 28.0213H33.1423C33.6277 28.0213 34.0212 27.6278 34.0212 27.1424C34.0212 26.657 33.6277 26.2635 33.1423 26.2635H31.3672V24.8721H32.9466C33.432 24.8721 33.8255 24.4786 33.8255 23.9931C33.8255 23.5077 33.432 23.1142 32.9466 23.1142H31.3672V21.7227H33.1423Z" fill="white"/>
<path d="M24.7201 26.2927C24.1118 26.2927 23.5271 26.0484 23.1562 25.6391C22.8303 25.2796 22.2745 25.2522 21.9147 25.5781C21.5549 25.904 21.5277 26.4598 21.8536 26.8196C22.5626 27.6018 23.6074 28.0505 24.72 28.0505C26.1005 28.0505 27.2603 27.1665 27.4778 25.9484C27.642 25.0284 27.2288 23.8283 25.5761 23.2188C25.0451 23.0254 24.1741 22.7078 23.8431 22.5217C23.7505 22.4713 23.7104 22.3809 23.7237 22.2528C23.7421 22.0754 23.8742 21.8518 24.1904 21.7565C25.0408 21.5005 25.8371 22.1255 25.8621 22.1456C26.2338 22.4533 26.7846 22.4042 27.0955 22.034C27.4078 21.6625 27.3597 21.1081 26.9881 20.7956C26.9267 20.7441 25.463 19.5371 23.6833 20.0733C22.7417 20.3569 22.0713 21.1414 21.9749 22.0718C21.8883 22.9093 22.2819 23.6733 23.0022 24.0655C23.3643 24.2743 24.1949 24.5891 24.9676 24.868C25.1695 24.9424 25.8224 25.2182 25.7472 25.6395C25.6902 25.9606 25.2903 26.2927 24.7201 26.2927Z" fill="white"/>
<path d="M44.0911 23.9933C44.0911 21.7561 42.271 19.936 40.0338 19.936C37.7966 19.936 35.9766 21.7561 35.9766 23.9933C35.9766 26.2305 37.7966 28.0505 40.0338 28.0505C42.271 28.0505 44.0911 26.2305 44.0911 23.9933ZM37.7344 23.9933C37.7344 22.7254 38.7659 21.6939 40.0338 21.6939C41.3017 21.6939 42.3332 22.7254 42.3332 23.9933C42.3332 25.2612 41.3017 26.2927 40.0338 26.2927C38.7659 26.2927 37.7344 25.2612 37.7344 23.9933Z" fill="white"/>
</g>
<defs>
<clipPath id="clip0_36_1337">
<rect width="60" height="60" fill="white"/>
</clipPath>
</defs>
</svg>
