<svg width="60" height="60" viewBox="0 0 60 60" fill="none" xmlns="http://www.w3.org/2000/svg">
<g clip-path="url(#clip0_36_1335)">
<path fill-rule="evenodd" clip-rule="evenodd" d="M34.1014 30.9649H25.8983C25.3806 30.9649 24.9608 31.3847 24.9608 31.9024V58.125C24.9608 58.6427 25.3806 59.0625 25.8983 59.0625H34.1014C34.6192 59.0625 35.0389 58.6427 35.0389 58.125V31.9024C35.0389 31.3847 34.6192 30.9649 34.1014 30.9649ZM33.1639 57.1875H26.8358V32.8399H33.1639V57.1875ZM14.6904 39.6625H6.48727C5.96953 39.6625 5.54977 40.0822 5.54977 40.6V58.125C5.54977 58.6427 5.96953 59.0625 6.48727 59.0625H14.6904C15.2081 59.0625 15.6279 58.6427 15.6279 58.125V40.6C15.6279 40.0822 15.2081 39.6625 14.6904 39.6625ZM13.7529 57.1875H7.42477V41.5375H13.7529V57.1875ZM53.5124 22.2676H45.3093C44.7915 22.2676 44.3718 22.6874 44.3718 23.2051V58.125C44.3718 58.6427 44.7915 59.0625 45.3093 59.0625H53.5124C54.0301 59.0625 54.4499 58.6427 54.4499 58.125V23.2051C54.4499 22.6874 54.0302 22.2676 53.5124 22.2676ZM52.5749 57.1875H46.2468V24.1426H52.5749V57.1875ZM39.0509 17.2324L38.0509 16.8475C37.8908 16.3184 37.6788 15.8071 37.4173 15.3191L37.8525 14.3393C38.01 13.9849 37.9329 13.5702 37.6587 13.2959L35.9909 11.628C35.7166 11.3539 35.3018 11.2772 34.9474 11.4342L33.967 11.8697C33.4792 11.6082 32.9681 11.3963 32.4393 11.2363L32.0542 10.236C31.9148 9.87398 31.567 9.63527 31.1793 9.63527H28.8207C28.4329 9.63527 28.0852 9.8741 27.9458 10.236L27.5607 11.2363C27.0319 11.3963 26.5207 11.6082 26.033 11.8697L25.0526 11.4342C24.6982 11.2767 24.2834 11.3537 24.0091 11.6282L22.3413 13.296C22.0671 13.5702 21.99 13.9849 22.1474 14.3393L22.5827 15.3195C22.3213 15.8073 22.1093 16.3185 21.9492 16.8475L20.949 17.2324C20.5871 17.3716 20.3483 17.7195 20.3483 18.1073V20.466C20.3483 20.8539 20.5871 21.2016 20.949 21.3409L21.949 21.7257C22.1091 22.2551 22.3211 22.7664 22.5826 23.2542L22.1474 24.2341C21.9899 24.5885 22.067 25.0034 22.3412 25.2776L24.009 26.9453C24.2832 27.2195 24.698 27.2966 25.0525 27.1391L26.0327 26.7037C26.5207 26.9652 27.0318 27.1772 27.5606 27.3371L27.9457 28.3375C28.0849 28.6993 28.4327 28.9382 28.8206 28.9382H31.1793C31.5671 28.9382 31.9148 28.6993 32.0542 28.3375L32.4391 27.3374C32.9684 27.1774 33.4796 26.9653 33.9675 26.7039L34.9474 27.1391C35.3018 27.2967 35.7165 27.2196 35.9909 26.9452L37.6587 25.2773C37.9329 25.0031 38.01 24.5884 37.8525 24.234L37.4171 23.2538C37.6786 22.766 37.8906 22.255 38.0505 21.726L39.0509 21.3409C39.4129 21.2017 39.6516 20.8539 39.6516 20.466V18.1073C39.6516 17.7195 39.4127 17.3716 39.0509 17.2324ZM37.7766 19.8221L36.9333 20.1469C36.6448 20.2579 36.4296 20.5041 36.358 20.8046C36.1979 21.4772 35.9325 22.1175 35.569 22.7078C35.4069 22.9711 35.385 23.2973 35.5105 23.5799L35.8777 24.4068L35.1202 25.1643L34.2938 24.7972C34.011 24.6717 33.685 24.6936 33.4216 24.8558C32.8314 25.2193 32.1909 25.4849 31.518 25.645C31.2173 25.7164 30.9711 25.9316 30.8602 26.2201L30.5357 27.0632H29.4645L29.1397 26.2198C29.0287 25.9313 28.7825 25.716 28.4817 25.6445C27.8096 25.4848 27.1693 25.2192 26.5786 24.8556C26.3155 24.6935 25.9893 24.6717 25.7066 24.7971L24.8798 25.1643L24.1223 24.4069L24.4894 23.5804C24.6149 23.2978 24.593 22.9714 24.4308 22.7082C24.0671 22.118 23.8017 21.4775 23.6416 20.8046C23.5702 20.5039 23.3549 20.2577 23.0664 20.1468L22.2233 19.8221V18.7509L23.0665 18.4263C23.355 18.3154 23.5703 18.0691 23.6418 17.7684C23.8017 17.096 24.0671 16.4556 24.4308 15.8651C24.5929 15.6019 24.6148 15.2756 24.4894 14.9931L24.1222 14.1663L24.8797 13.4088L25.7066 13.7761C25.9891 13.9016 26.3154 13.8797 26.5786 13.7176C27.1692 13.3539 27.8095 13.0884 28.4818 12.9285C28.7825 12.857 29.0287 12.6418 29.1397 12.3533L29.4643 11.51H30.5355L30.8603 12.3533C30.9714 12.6418 31.2175 12.857 31.5182 12.9285C32.1903 13.0884 32.8307 13.354 33.4213 13.7176C33.6846 13.8797 34.0109 13.9016 34.2933 13.7761L35.1202 13.4088L35.8777 14.1663L35.5106 14.9927C35.3851 15.2753 35.407 15.6015 35.5691 15.8647C35.9327 16.4554 36.1983 17.0958 36.3584 17.7684C36.43 18.0691 36.6451 18.3154 36.9336 18.4263L37.7767 18.7509V19.8221H37.7766ZM29.9999 13.8762C27.0165 13.8762 24.5895 16.3032 24.5895 19.2866C24.5895 22.27 27.0165 24.6971 29.9999 24.6971C32.9832 24.6971 35.4103 22.27 35.4103 19.2866C35.4103 16.3032 32.9832 13.8762 29.9999 13.8762ZM29.9999 22.8221C28.0504 22.8221 26.4645 21.2361 26.4645 19.2866C26.4645 17.3372 28.0505 15.7512 29.9999 15.7512C31.9493 15.7512 33.5353 17.3372 33.5353 19.2866C33.5353 21.2361 31.9494 22.8221 29.9999 22.8221ZM53.1217 12.5161C53.2165 13.2966 53.0055 14.0108 52.5116 14.5819C52.0162 15.1545 51.2394 15.5586 50.3483 15.725V16.1034C50.3483 16.6212 49.9286 17.0409 49.4108 17.0409C48.8931 17.0409 48.4733 16.6212 48.4733 16.1034V15.7095C47.0903 15.4112 46.0316 14.4675 45.7056 13.16C45.5803 12.6577 45.8861 12.1488 46.3884 12.0236C46.8909 11.8989 47.3997 12.2041 47.5248 12.7065C47.758 13.6417 48.738 13.9568 49.5021 13.9337C50.1684 13.9179 50.8079 13.6855 51.0935 13.3552C51.2399 13.1861 51.2913 12.9969 51.2604 12.742C51.2066 12.2995 50.9314 11.7564 49.2668 11.483C46.6368 11.0511 46.0221 9.66879 45.9695 8.58504C45.8978 7.10848 46.9013 5.87086 48.4733 5.48531V5.07504C48.4733 4.5573 48.8931 4.13754 49.4108 4.13754C49.9286 4.13754 50.3483 4.5573 50.3483 5.07504V5.47699C51.3674 5.715 52.333 6.36984 52.8408 7.5791C53.0412 8.05652 52.8168 8.60602 52.3393 8.80652C51.8619 9.00703 51.3124 8.78238 51.112 8.3052C50.7158 7.36148 49.7445 7.11926 48.9575 7.2975C48.7637 7.34145 47.7991 7.60582 47.8424 8.4941C47.8538 8.73 47.8841 9.3559 49.5707 9.63281C51.7379 9.98859 52.9327 10.9588 53.1217 12.5161ZM49.4108 0.9375C44.0889 0.9375 39.7591 5.26723 39.7591 10.5892C39.7591 15.9111 44.0889 20.2409 49.4108 20.2409C54.7328 20.2409 59.0625 15.9111 59.0625 10.5892C59.0625 5.26723 54.7328 0.9375 49.4108 0.9375ZM49.4108 18.366C45.1227 18.366 41.6341 14.8773 41.6341 10.5893C41.6341 6.30129 45.1227 2.8125 49.4108 2.8125C53.6989 2.8125 57.1875 6.30117 57.1875 10.5892C57.1875 14.8772 53.6989 18.366 49.4108 18.366ZM10.5888 18.3329C5.26711 18.3329 0.9375 22.6627 0.9375 27.9844C0.9375 33.3061 5.26711 37.6357 10.5889 37.6357C15.9108 37.6357 20.2403 33.3061 20.2403 27.9844C20.2403 22.6627 15.9107 18.3329 10.5888 18.3329ZM10.5888 35.7607C6.30094 35.7607 2.8125 32.2723 2.8125 27.9844C2.8125 23.6965 6.30105 20.208 10.5889 20.208C14.8768 20.208 18.3653 23.6966 18.3653 27.9844C18.3653 32.2721 14.8768 35.7607 10.5888 35.7607ZM11.0576 28.7962L8.85633 30.0671C8.70867 30.1525 8.54754 30.1929 8.3884 30.1929C8.06438 30.1929 7.74926 30.0247 7.57559 29.724C7.31672 29.2757 7.47035 28.7023 7.91871 28.4434L9.65121 27.4431V24.2346C9.65121 23.7169 10.071 23.2971 10.5887 23.2971C11.1064 23.2971 11.5262 23.7169 11.5262 24.2346V27.9844C11.5263 28.3193 11.3476 28.6288 11.0576 28.7962ZM9.53414 21.8068C9.53414 21.2259 10.0079 20.7521 10.5888 20.7521C11.1697 20.7521 11.6435 21.2259 11.6435 21.8068C11.6435 22.3877 11.1697 22.8615 10.5888 22.8615C10.0079 22.8615 9.53414 22.3877 9.53414 21.8068ZM14.2112 24.3619C13.7993 23.95 13.7993 23.2822 14.2112 22.8703C14.6231 22.4584 15.2909 22.4584 15.7028 22.8703C16.1147 23.2822 16.1147 23.95 15.7028 24.3619C15.2909 24.7738 14.6231 24.7738 14.2112 24.3619ZM16.7664 26.9297C17.3489 26.9297 17.8211 27.4018 17.8211 27.9844C17.8211 28.5668 17.3489 29.0391 16.7664 29.0391C16.1839 29.0391 15.7117 28.5668 15.7117 27.9844C15.7117 27.4018 16.1839 26.9297 16.7664 26.9297ZM15.7029 31.6068C16.1148 32.0187 16.1148 32.6864 15.7029 33.0983C15.291 33.5102 14.6232 33.5102 14.2113 33.0983C13.7994 32.6864 13.7994 32.0187 14.2113 31.6068C14.6231 31.1948 15.291 31.1948 15.7029 31.6068ZM11.6435 34.1619C11.6435 34.7445 11.1714 35.2166 10.5888 35.2166C10.0064 35.2166 9.53414 34.7445 9.53414 34.1619C9.53414 33.5795 10.0064 33.1072 10.5888 33.1072C11.1714 33.1072 11.6435 33.5794 11.6435 34.1619ZM6.96645 31.6068C7.37836 32.0187 7.37836 32.6864 6.96645 33.0983C6.55453 33.5102 5.8868 33.5102 5.47488 33.0983C5.06297 32.6864 5.06297 32.0187 5.47488 31.6068C5.8868 31.1948 6.55465 31.1948 6.96645 31.6068ZM5.46598 27.9844C5.46598 28.5668 4.99383 29.0391 4.41129 29.0391C3.82887 29.0391 3.3566 28.5668 3.3566 27.9844C3.3566 27.402 3.82887 26.9297 4.41129 26.9297C4.99383 26.9297 5.46598 27.402 5.46598 27.9844ZM5.47488 24.362C5.06297 23.9501 5.06297 23.2823 5.47488 22.8704C5.8868 22.4585 6.55453 22.4585 6.96645 22.8704C7.37836 23.2823 7.37836 23.9501 6.96645 24.362C6.55453 24.7739 5.88668 24.7739 5.47488 24.362Z" fill="white"/>
</g>
<defs>
<clipPath id="clip0_36_1335">
<rect width="60" height="60" fill="white"/>
</clipPath>
</defs>
</svg>
