<svg width="65" height="65" viewBox="0 0 65 65" fill="none" xmlns="http://www.w3.org/2000/svg">
<g clip-path="url(#clip0_13_828)">
<path d="M30.0818 47.0407V55.0638C30.0818 57.059 31.6992 58.6763 33.6944 58.6763H50.0323L57.9964 63.7498C59.2507 64.5488 60.8928 63.6478 60.8928 62.1607V35.0342C60.8928 33.039 59.2754 31.4217 57.2802 31.4217H43.8155" stroke="white" stroke-width="2" stroke-miterlimit="10" stroke-linecap="round" stroke-linejoin="round"/>
<path d="M40.5003 36.3485H27.2413C25.2647 36.3485 23.6626 34.7462 23.6626 32.7698C23.6626 30.7934 25.2649 29.1911 27.2413 29.1911H40.5003C42.4768 29.1911 44.0789 30.7934 44.0789 32.7698C44.0789 34.7462 42.4768 36.3485 40.5003 36.3485Z" stroke="white" stroke-width="2" stroke-miterlimit="10" stroke-linecap="round" stroke-linejoin="round"/>
<path d="M4.10718 43.8688V50.6299C4.10718 52.1171 5.74932 53.018 7.00361 52.219L15.1323 47.0407H31.3057C33.3009 47.0407 34.9183 45.4233 34.9183 43.4281V42.7423" stroke="white" stroke-width="2" stroke-miterlimit="10" stroke-linecap="round" stroke-linejoin="round"/>
<path d="M22.7631 19.7859H7.71976C5.72456 19.7859 4.10718 21.4033 4.10718 23.3985V39.4253" stroke="white" stroke-width="2" stroke-miterlimit="10" stroke-linecap="round" stroke-linejoin="round"/>
<path d="M27.2812 36.3485V37.8542C27.2812 40.5539 29.4697 42.7423 32.1693 42.7423H35.5721C38.2717 42.7423 40.4601 40.5539 40.4601 37.8542V36.3485" stroke="white" stroke-width="2" stroke-miterlimit="10" stroke-linecap="round" stroke-linejoin="round"/>
<path d="M43.4306 5.29648C41.0675 2.59213 37.5757 0.899336 33.6897 0.953418C26.7557 1.05003 21.1393 6.78438 21.1799 13.7189C21.2028 17.63 22.995 21.1214 25.7964 23.434C26.9333 24.3726 27.5932 25.7684 27.5932 27.2427V29.1908" stroke="white" stroke-width="2" stroke-miterlimit="10" stroke-linecap="round" stroke-linejoin="round"/>
<path d="M40.1482 29.191V27.243C40.1482 25.7635 40.8165 24.3679 41.9563 23.4248C44.7693 21.0971 46.5616 17.5795 46.5616 13.6431C46.5616 12.0444 46.2652 10.5153 45.7256 9.10635" stroke="white" stroke-width="2" stroke-miterlimit="10" stroke-linecap="round" stroke-linejoin="round"/>
<path d="M34.707 29.191L36.8311 15.0373C37.0248 13.7474 36.0256 12.5872 34.7212 12.5872H33.02C31.7156 12.5872 30.7164 13.7474 30.9101 15.0373L33.0342 29.191" stroke="white" stroke-width="2" stroke-miterlimit="10" stroke-linecap="round" stroke-linejoin="round"/>
<path d="M11.3157 29.8492H25.1725" stroke="white" stroke-width="2" stroke-miterlimit="10" stroke-linecap="round" stroke-linejoin="round"/>
<path d="M11.3157 36.9774H27.2813" stroke="white" stroke-width="2" stroke-miterlimit="10" stroke-linecap="round" stroke-linejoin="round"/>
<path d="M38.845 41.4849H53.6844" stroke="white" stroke-width="2" stroke-miterlimit="10" stroke-linecap="round" stroke-linejoin="round"/>
<path d="M37.2903 48.613H53.6844" stroke="white" stroke-width="2" stroke-miterlimit="10" stroke-linecap="round" stroke-linejoin="round"/>
</g>
<defs>
<clipPath id="clip0_13_828">
<rect width="65" height="65" fill="white"/>
</clipPath>
</defs>
</svg>
