<svg width="65" height="65" viewBox="0 0 65 65" fill="none" xmlns="http://www.w3.org/2000/svg">
<g clip-path="url(#clip0_13_791)">
<path d="M26.8234 14.6542C26.5661 14.0019 25.829 13.6816 25.1766 13.9393C21.4943 15.3926 18.3516 17.8868 16.0885 21.1525C13.7711 24.4962 12.5464 28.4216 12.5464 32.5042C12.5464 33.2053 13.1149 33.7736 13.8158 33.7736C14.5167 33.7736 15.0852 33.2052 15.0852 32.5042C15.0852 25.304 19.4121 18.9439 26.1085 16.3012C26.7608 16.0437 27.0807 15.3065 26.8234 14.6542Z" fill="white"/>
<path d="M40.8624 31.2467C40.1613 31.2467 39.593 31.8151 39.593 32.5161C39.593 36.4359 36.4039 39.6251 32.484 39.6251C28.5641 39.6251 25.375 36.4361 25.375 32.5161C25.375 28.5963 28.5641 25.4071 32.484 25.4071C33.185 25.4071 33.7534 24.8388 33.7534 24.1377C33.7534 23.4366 33.1849 22.8683 32.484 22.8683C27.1641 22.8683 22.8362 27.1963 22.8362 32.5161C22.8362 37.836 27.1643 42.1639 32.484 42.1639C37.8037 42.1639 42.1318 37.836 42.1318 32.5161C42.1318 31.8151 41.5634 31.2467 40.8624 31.2467Z" fill="white"/>
<path d="M45.5682 31.1987C44.8672 31.1987 44.2988 31.7671 44.2988 32.4681V32.516C44.2988 33.2172 44.8673 33.7854 45.5682 33.7854C46.2691 33.7854 46.8376 33.217 46.8376 32.516V32.4681C46.8376 31.7671 46.2691 31.1987 45.5682 31.1987Z" fill="white"/>
<path d="M40.4314 42.7762C40.1954 42.5388 39.8678 42.4043 39.5339 42.4043C39.2 42.4044 38.8726 42.5389 38.6364 42.7762C38.4002 43.0124 38.2644 43.3386 38.2644 43.6738C38.2644 44.0077 38.4001 44.3352 38.6364 44.5713C38.8726 44.8075 39.1988 44.942 39.5339 44.942C39.8678 44.942 40.1954 44.8075 40.4314 44.5713C40.6675 44.3352 40.8035 44.0077 40.8035 43.6738C40.8035 43.3385 40.6676 43.0124 40.4314 42.7762Z" fill="white"/>
<path d="M60.682 46.0293C59.9528 46.0293 59.2658 46.2117 58.6627 46.5324L54.9059 42.7756C54.6678 42.5376 54.3449 42.4037 54.0082 42.4037H44.7516C44.0505 42.4037 43.4822 42.9721 43.4822 43.6731C43.4822 44.3743 44.0507 44.9426 44.7516 44.9426H53.4823L56.8677 48.328C56.5478 48.9305 56.3658 49.6168 56.3658 50.3452C56.3658 52.7252 58.3019 54.6613 60.6819 54.6613C63.0619 54.6613 64.9981 52.7252 64.9981 50.3452C64.9982 47.9653 63.0619 46.0293 60.682 46.0293ZM60.682 52.1226C59.702 52.1226 58.9048 51.3254 58.9048 50.3454C58.9048 49.3653 59.7021 48.5682 60.682 48.5682C61.662 48.5682 62.4593 49.3655 62.4593 50.3454C62.4593 51.3254 61.6619 52.1226 60.682 52.1226Z" fill="white"/>
<path d="M60.6819 10.3425C58.3019 10.3425 56.3657 12.2787 56.3657 14.6586C56.3657 15.3871 56.5478 16.0734 56.8678 16.6759L53.4824 20.0614H39.5915C37.8267 19.0524 35.8449 18.4113 33.7672 18.2227V15.928H47.1532C47.6156 15.928 48.0414 15.6767 48.2647 15.272L52.1224 8.28077C52.6457 8.50649 53.2217 8.63218 53.827 8.63218C56.207 8.63218 58.1432 6.69602 58.1432 4.31603C58.1432 1.93616 56.207 0 53.827 0C51.447 0 49.5109 1.93616 49.5109 4.31615C49.5109 5.14846 49.7483 5.92579 50.158 6.58569L46.4038 13.3891H33.7672V1.27474C33.7672 0.573574 33.1987 0.00533203 32.4978 0.00533203H26.8054C26.1044 0.00533203 25.536 0.573701 25.536 1.27474V5.20305C22.9132 5.86752 20.4159 6.90231 18.0887 8.2894L15.3216 5.52246C15.0835 5.28442 14.7605 5.15062 14.4237 5.15062C14.087 5.15062 13.7641 5.28455 13.526 5.52284L5.5022 13.5526C5.0067 14.0485 5.00683 14.8519 5.50245 15.3475L8.26635 18.1115C6.87938 20.4389 5.84459 22.9361 5.18024 25.5588H1.27136C0.570322 25.5588 0.00195312 26.1272 0.00195312 26.8282V38.18C0.00195312 38.8812 0.570449 39.4494 1.27136 39.4494H5.1805C5.84472 42.0721 6.87951 44.5693 8.2666 46.8966L5.50271 49.6606C5.00708 50.1563 5.00695 50.9596 5.50245 51.4555L13.5263 59.4853C13.7643 59.7234 14.0873 59.8574 14.424 59.8575H14.4242C14.7609 59.8575 15.0837 59.7237 15.3219 59.4857L18.0888 56.7188C20.4163 58.1058 22.9134 59.1407 25.536 59.8052V63.7273C25.536 64.4282 26.104 64.9963 26.8047 64.9967H32.4969H32.4976C32.8342 64.9967 33.157 64.8662 33.3951 64.6283C33.6332 64.3901 33.7672 64.0671 33.7672 63.7303V51.5569H46.4015L50.1595 58.4118C49.7489 59.0722 49.511 59.8504 49.511 60.6836C49.511 63.0636 51.4472 64.9997 53.8272 64.9997C56.2072 64.9997 58.1433 63.0636 58.1433 60.6836C58.1433 58.3036 56.207 56.3674 53.827 56.3674C53.2232 56.3674 52.6483 56.4925 52.126 56.7175L48.2665 49.6771C48.0437 49.2706 47.6169 49.0179 47.1534 49.0179H33.7669V45.6002C33.7669 44.899 33.1984 44.3308 32.4975 44.3308C25.9762 44.3308 20.6708 39.0254 20.6708 32.5041C20.6708 26.0617 25.8488 20.8067 32.2615 20.6804C32.3337 20.6932 32.4078 20.7011 32.4838 20.7011C37.397 20.7011 41.8486 23.7937 43.5611 28.3964C43.7513 28.9076 44.2357 29.2236 44.7509 29.2236C44.8979 29.2236 45.0476 29.1978 45.1935 29.1436C45.8506 28.8991 46.1851 28.1684 45.9406 27.5112C45.2465 25.6457 44.1806 23.986 42.8485 22.6002H54.0081C54.3447 22.6002 54.6676 22.4664 54.9058 22.2284L58.6625 18.4716C59.2656 18.7922 59.9526 18.9747 60.6819 18.9747C63.0619 18.9747 64.998 17.0385 64.998 14.6585C64.998 12.2787 63.0617 10.3425 60.6819 10.3425ZM53.827 2.53894C54.8071 2.53894 55.6042 3.3362 55.6042 4.31615C55.6042 5.2961 54.807 6.09337 53.827 6.09337C52.8471 6.09337 52.0498 5.2961 52.0498 4.31615C52.0498 3.3362 52.847 2.53894 53.827 2.53894ZM53.827 58.9066C54.8071 58.9066 55.6042 59.7039 55.6042 60.6838C55.6042 61.6638 54.8069 62.4611 53.827 62.4611C52.847 62.4611 52.0498 61.6638 52.0498 60.6838C52.0498 59.7039 52.847 58.9066 53.827 58.9066ZM31.2282 18.1942C23.8996 18.8391 18.1319 25.0109 18.1319 32.5042C18.1319 39.9975 23.8994 46.1693 31.2281 46.8142V62.4604L28.0747 62.4587V58.7988C28.0747 58.2005 27.6569 57.6834 27.0719 57.5578C24.0476 56.908 21.1945 55.7257 18.5916 54.0436C18.0891 53.7189 17.4282 53.789 17.0049 54.2122L14.4243 56.7929L8.19513 50.559L10.7735 47.9805C11.1966 47.5574 11.2669 46.8965 10.942 46.3939C9.26001 43.791 8.0777 40.9379 7.4282 37.9137C7.30252 37.3287 6.78544 36.9109 6.18711 36.9109H2.54076V28.098H6.18698C6.78544 28.098 7.30239 27.6801 7.42808 27.0952C8.0777 24.0709 9.25988 21.2179 10.9419 18.615C11.2668 18.1125 11.1964 17.4515 10.7734 17.0283L8.195 14.4499L14.4242 8.21603L17.0048 10.7967C17.428 11.22 18.089 11.2899 18.5914 10.9653C21.1942 9.28332 24.0474 8.10088 27.0718 7.45113C27.6568 7.32545 28.0746 6.80837 28.0746 6.21004V2.54427H31.228V18.1942H31.2282ZM60.6819 16.4357C59.7018 16.4357 58.9047 15.6385 58.9047 14.6585C58.9047 13.6786 59.7019 12.8813 60.6819 12.8813C61.6618 12.8813 62.4591 13.6786 62.4591 14.6585C62.4591 15.6385 61.6618 16.4357 60.6819 16.4357Z" fill="white"/>
<path d="M60.6819 28.2039C58.7435 28.2039 57.0999 29.4883 56.5565 31.2507H52.8112C52.1101 31.2507 51.5417 31.819 51.5417 32.5201C51.5417 33.2211 52.1102 33.7895 52.8112 33.7895H56.5564C57.0998 35.5517 58.7434 36.8362 60.6817 36.8362C63.0617 36.8362 64.9979 34.9 64.9979 32.5201C64.998 30.1401 63.0617 28.2039 60.6819 28.2039ZM60.6819 34.2973C59.7018 34.2973 58.9046 33.5 58.9046 32.5201C58.9046 31.5401 59.7019 30.7428 60.6819 30.7428C61.6618 30.7428 62.4591 31.5401 62.4591 32.5201C62.4591 33.5 61.6617 34.2973 60.6819 34.2973Z" fill="white"/>
</g>
<defs>
<clipPath id="clip0_13_791">
<rect width="65" height="65" fill="white"/>
</clipPath>
</defs>
</svg>
