<svg width="65" height="65" viewBox="0 0 65 65" fill="none" xmlns="http://www.w3.org/2000/svg">
<g clip-path="url(#clip0_13_961)">
<path d="M64.0464 53.5391H62.468V19.9304C62.468 16.4949 59.6729 13.6999 56.2374 13.6999H49.1411C48.6144 13.6999 48.1876 14.1267 48.1876 14.6534C48.1876 15.1802 48.6144 15.607 49.1411 15.607H56.2374C58.6214 15.607 60.5609 17.5465 60.5609 19.9304V53.5391H39.2454C38.5947 53.5391 37.9876 53.8601 37.6217 54.398L37.3358 54.8182C37.0701 55.2087 36.6295 55.4417 36.1572 55.4417H28.7155C28.2432 55.4417 27.8027 55.2087 27.5369 54.8182L27.2511 54.3981C26.8852 53.8603 26.2783 53.5391 25.6274 53.5391H4.43911V19.9304C4.43911 17.5465 6.37863 15.607 8.76264 15.607H14.904C15.4308 15.607 15.8576 15.1802 15.8576 14.6534C15.8576 14.1267 15.4308 13.6999 14.904 13.6999H8.76264C5.32718 13.6999 2.532 16.4948 2.532 19.9304V53.5391H0.953553C0.42681 53.5391 0 53.9659 0 54.4926V56.4779C0 60.0672 2.92016 62.9874 6.50946 62.9874H58.4905C62.0798 62.9874 65 60.0672 65 56.4779V54.4926C65 53.9659 64.5732 53.5391 64.0464 53.5391ZM63.0929 56.4779C63.0929 59.0156 61.0283 61.0803 58.4905 61.0803H6.50946C3.97174 61.0803 1.90711 59.0156 1.90711 56.4779V55.4462H25.6274C25.6462 55.4462 25.6638 55.4553 25.6745 55.471L25.9604 55.8912C26.5816 56.8039 27.6115 57.3488 28.7155 57.3488H36.1572C37.2613 57.3488 38.2911 56.8039 38.9123 55.8912L39.1983 55.471L39.1984 55.4708C39.2089 55.4553 39.2265 55.4462 39.2453 55.4462H63.0928V56.4779H63.0929Z" fill="white"/>
<path d="M6.60059 50.4241C6.60059 50.9509 7.0274 51.3777 7.55414 51.3777H57.4461C57.9728 51.3777 58.3996 50.9509 58.3996 50.4241V19.9304C58.3996 18.7382 57.4297 17.7682 56.2375 17.7682H49.1412C48.6145 17.7682 48.1877 18.1951 48.1877 18.7218C48.1877 19.2485 48.6145 19.6754 49.1412 19.6754H56.2375C56.3781 19.6754 56.4925 19.7897 56.4925 19.9304V49.4706H42.6601V45.5773C42.6601 43.5068 41.8538 41.5603 40.3898 40.0961L39.1483 38.8546C39.5887 38.1716 39.9298 37.4135 40.1456 36.5961C40.2799 36.0869 39.9761 35.5652 39.4669 35.4307C38.9574 35.2967 38.4362 35.6002 38.3015 36.1094C38.0805 36.9465 37.6874 37.7027 37.167 38.3453C37.1632 38.3499 37.1594 38.3543 37.1557 38.3588C36.042 39.726 34.349 40.5737 32.5001 40.5737C29.1914 40.5737 26.4995 37.8817 26.4995 34.573C26.4995 31.2643 29.1914 28.5724 32.5001 28.5724C35.0533 28.5724 37.3313 30.1928 38.1688 32.6046C38.3414 33.102 38.8841 33.3654 39.3823 33.1927C39.8798 33.02 40.143 32.4766 39.9704 31.9791C38.8668 28.8007 35.8647 26.6653 32.5001 26.6653C28.1397 26.6653 24.5923 30.2126 24.5923 34.573C24.5923 36.1488 25.0574 37.6171 25.855 38.8516L24.6104 40.0961C23.1463 41.5604 22.3401 43.5068 22.3401 45.5773V49.4706H8.50769V45.9771C8.50769 45.4504 8.08088 45.0236 7.55414 45.0236C7.0274 45.0236 6.60059 45.4504 6.60059 45.9771V50.4241ZM24.2472 45.5772C24.2472 44.0161 24.8551 42.5485 25.9591 41.4446L27.0804 40.3233C28.497 41.6593 30.4039 42.4806 32.5001 42.4806C34.5699 42.4806 36.4912 41.6737 37.9228 40.3261L39.0412 41.4445C40.1452 42.5484 40.7532 44.016 40.7532 45.577V49.4703H24.2472V45.5772Z" fill="white"/>
<path d="M7.55414 42.8635C8.08088 42.8635 8.50769 42.4367 8.50769 41.9099V19.9304C8.50769 19.7898 8.62199 19.6754 8.76261 19.6754H14.9041C15.4309 19.6754 15.8577 19.2485 15.8577 18.7218C15.8577 18.1951 15.4309 17.7682 14.9041 17.7682H8.76261C7.57041 17.7682 6.60059 18.7382 6.60059 19.9304V41.9099C6.60059 42.4365 7.0274 42.8635 7.55414 42.8635Z" fill="white"/>
<path d="M21.9099 24.65H42.135C44.4209 24.65 46.2803 22.7904 46.2803 20.5047V6.15817C46.2803 3.87231 44.4208 2.01276 42.135 2.01276H21.9099C19.6241 2.01276 17.7646 3.87244 17.7646 6.15817V8.15516C17.7646 8.6819 18.1915 9.10871 18.7182 9.10871C19.2449 9.10871 19.6718 8.6819 19.6718 8.15516V6.15817C19.6718 4.92389 20.6758 3.91986 21.9099 3.91986H42.135C43.3692 3.91986 44.3732 4.92389 44.3732 6.15817V20.5047C44.3732 21.7388 43.3692 22.7429 42.135 22.7429H21.9099C20.6758 22.7429 19.6718 21.7388 19.6718 20.5047V12.2223C19.6718 11.6955 19.2449 11.2687 18.7182 11.2687C18.1915 11.2687 17.7646 11.6955 17.7646 12.2223V20.5047C17.7646 22.7904 19.6242 24.65 21.9099 24.65Z" fill="white"/>
<path d="M29.4768 19.2419C29.9051 19.2419 30.3333 19.1275 30.7228 18.8988L36.5879 15.4528C37.348 15.006 37.8018 14.213 37.8018 13.3313C37.8018 12.4496 37.3479 11.6566 36.5879 11.2101L30.7226 7.76407C29.9525 7.31158 29.0296 7.30624 28.2543 7.75009C27.4789 8.19381 27.0161 8.99212 27.0161 9.88541V16.7774C27.0161 17.6707 27.479 18.4692 28.2543 18.9129C28.6378 19.1322 29.0574 19.2419 29.4768 19.2419ZM28.9231 9.88528C28.9231 9.59578 29.1177 9.45313 29.2014 9.4052C29.2519 9.37634 29.3524 9.33006 29.4793 9.33006C29.5626 9.33006 29.6573 9.35015 29.7565 9.40838L35.6217 12.8544C35.8681 12.9991 35.8946 13.2361 35.8946 13.3312C35.8946 13.4264 35.868 13.6634 35.6216 13.8082L29.7566 17.2542C29.5068 17.4009 29.2853 17.3052 29.2017 17.2574C29.1179 17.2095 28.9232 17.0667 28.9232 16.7772V9.88528H28.9231Z" fill="white"/>
</g>
<defs>
<clipPath id="clip0_13_961">
<rect width="65" height="65" fill="white"/>
</clipPath>
</defs>
</svg>
