<svg width="65" height="65" viewBox="0 0 65 65" fill="none" xmlns="http://www.w3.org/2000/svg">
<g clip-path="url(#clip0_13_1111)">
<path d="M51.3405 16.0819C51.5205 16.3745 51.833 16.5352 52.1528 16.5352C52.3229 16.5352 52.495 16.4895 52.6507 16.3938L57.8121 13.219C58.2599 12.9438 58.3998 12.3571 58.1241 11.9093C57.8488 11.4615 57.2622 11.3216 56.8139 11.5974L51.6529 14.7722C51.2051 15.0474 51.0653 15.6341 51.3405 16.0819Z" fill="#CC0444"/>
<path d="M64.1401 22.4082L56.5735 21.6733C56.0503 21.6217 55.5846 22.0055 55.5335 22.5287C55.483 23.0524 55.8658 23.5181 56.3895 23.5687L63.9556 24.3036C63.9873 24.3066 64.0181 24.3081 64.0488 24.3081C64.5333 24.3081 64.9479 23.9401 64.9955 23.4481C65.0461 22.925 64.6632 22.4593 64.1401 22.4082Z" fill="#CC0444"/>
<path d="M47.4773 9.43238C47.5904 9.47651 47.7074 9.49784 47.822 9.49784C48.2034 9.49784 48.5634 9.26724 48.7097 8.89035L51.4655 1.80528C51.6564 1.31532 51.4134 0.763374 50.9234 0.572945C50.4335 0.382515 49.8815 0.625015 49.6911 1.11497L46.9348 8.20004C46.7444 8.69 46.9869 9.24195 47.4773 9.43238Z" fill="#CC0444"/>
<path d="M40.7524 4.18452C40.1127 3.14856 38.7499 2.82523 37.7135 3.46495L36.5744 4.16765C36.072 4.4771 35.7209 4.96409 35.585 5.53785C35.4491 6.11212 35.5448 6.70473 35.8543 7.20659L36.5094 8.26784L21.5374 26.803L18.3755 28.7539C17.9281 29.0301 17.7893 29.6168 18.0655 30.0641C18.2455 30.3557 18.5575 30.5163 18.8768 30.5163C19.0469 30.5163 19.22 30.4707 19.3757 30.3745L21.8657 28.8382L26.7181 36.7028C26.0169 36.6572 25.3177 36.8025 24.6824 37.1288C24.671 37.1343 24.6601 37.1402 24.6487 37.1462C24.5634 37.1913 24.4786 37.2384 24.3958 37.2895L21.5488 39.0549C21.2364 39.2488 20.9482 39.4779 20.6864 39.7343C20.3695 40.0443 20.0923 40.3939 19.8681 40.7757L19.1654 41.835L18.6487 42.6126C18.6442 42.6111 18.6393 42.6096 18.6353 42.6081C18.6274 42.6047 18.6199 42.6007 18.612 42.5972C18.5718 42.5794 18.5322 42.5595 18.494 42.5382C18.4855 42.5337 18.4776 42.5293 18.4697 42.5248C18.4275 42.4995 18.3864 42.4722 18.3472 42.443C18.3388 42.437 18.3308 42.4306 18.3229 42.4241C18.2872 42.3964 18.252 42.3666 18.2187 42.3349C18.2148 42.3309 18.2103 42.3274 18.2063 42.3235C18.1706 42.2888 18.1369 42.2511 18.1047 42.2124C18.0977 42.204 18.0913 42.195 18.0844 42.1866C18.0526 42.1459 18.0224 42.1043 17.9951 42.0601L13.8805 35.3916C13.6861 35.0767 13.6261 34.7053 13.7114 34.3458C13.7967 33.9857 14.0169 33.6808 14.3313 33.4868L15.5631 32.7271C16.0105 32.4509 16.1498 31.8642 15.8736 31.4169C15.5974 30.9691 15.0107 30.8303 14.5634 31.1065L13.3316 31.8662C12.5842 32.3274 12.061 33.0519 11.8582 33.9069C11.7278 34.4588 11.7417 35.0222 11.8914 35.5533L10.9755 36.1186C9.75009 36.8749 9.36824 38.4871 10.1245 39.713L12.4483 43.4794C12.8143 44.073 13.3901 44.4881 14.069 44.6493C14.2703 44.6969 14.4736 44.7207 14.676 44.7207C15.1545 44.7207 15.6246 44.5883 16.0422 44.3304L16.9596 43.7646C17.151 43.9386 17.3608 44.0889 17.586 44.2129L14.9423 48.195L14.3189 48.6205C14.189 48.5546 14.0462 48.5129 13.8964 48.5C13.5899 48.4742 13.2924 48.5685 13.0578 48.7658L11.4173 50.1465C11.035 49.9025 10.5336 49.8985 10.1409 50.1663C10.1225 50.1792 10.1042 50.1921 10.0868 50.206L0.850982 57.4963C0.309944 57.9233 0 58.5635 0 59.2524V62.2184C0 63.4517 1.00372 64.4554 2.23705 64.4554H17.3454C18.0268 64.4554 18.6626 64.151 19.0896 63.6193L20.3422 62.0607C20.5614 61.8098 20.6547 61.4884 20.6214 61.1765L22.307 59.7577C22.4717 59.6193 22.5902 59.4418 22.6566 59.2429L26.5421 60.0394C26.5996 60.0513 26.6576 60.0577 26.7162 60.0587C26.8297 60.0607 26.9428 60.0622 27.0559 60.0622C27.9768 60.0622 28.8917 59.9689 29.8533 59.3877L33.7675 57.0565C33.833 57.0604 33.8984 57.0629 33.9634 57.0629C34.5282 57.0629 35.0846 56.9077 35.5791 56.6052L38.7236 54.683C40.1861 53.7894 40.6493 51.8722 39.7556 50.4098C39.4506 49.9099 39.0192 49.5181 38.5094 49.2603C39.0028 48.3146 39.0043 47.1397 38.4087 46.1648C37.9763 45.4571 37.2964 44.9582 36.4925 44.7569C36.6587 43.9942 36.5441 43.1695 36.1062 42.4524C35.6926 41.7745 35.0509 41.2915 34.2927 41.0738C34.5 40.2773 34.3978 39.4011 33.9361 38.6448C33.8161 38.4484 33.6758 38.2699 33.5205 38.1072L52.3869 34.0006L53.042 35.0619C53.4591 35.7378 54.1836 36.1102 54.925 36.1102C55.3203 36.1102 55.7205 36.0046 56.081 35.7819L57.2201 35.0792C57.7219 34.7693 58.0735 34.2828 58.2094 33.7085C58.3453 33.1348 58.2496 32.5421 57.9397 32.0398L40.7524 4.18452ZM15.0429 42.7098C14.8818 42.809 14.6918 42.8397 14.5083 42.7961C14.3244 42.7524 14.1686 42.6399 14.069 42.4792L11.7451 38.7127C11.5403 38.381 11.644 37.9441 11.9757 37.7388L12.7836 37.2404L15.8508 42.2109L15.0429 42.7098ZM17.6048 62.4267C17.5413 62.506 17.4471 62.5511 17.3454 62.5511H2.23705C2.05356 62.5511 1.90429 62.4019 1.90429 62.2184V59.2524C1.90429 59.1497 1.95041 59.0545 2.03075 58.991L10.6933 52.1529L18.5009 61.3119L17.6048 62.4267ZM19.5408 59.5965L12.6923 51.5623L13.7065 50.7088L20.5039 58.7867L19.5408 59.5965ZM28.8739 57.7547C28.2927 58.1063 27.7472 58.1683 26.8377 58.1564L21.9594 57.1561C21.8438 57.1323 21.7273 57.1304 21.6147 57.1487L15.6266 50.0334L16.1691 49.6629C16.1696 49.6629 16.1701 49.6624 16.1711 49.6619C16.1801 49.6555 16.189 49.6481 16.1979 49.6416C16.2182 49.6262 16.2386 49.6109 16.2574 49.5945C16.2668 49.5861 16.2758 49.5771 16.2847 49.5687C16.304 49.5509 16.3219 49.5325 16.3392 49.5132C16.3462 49.5057 16.3536 49.4978 16.3601 49.4899C16.3814 49.4641 16.4017 49.4378 16.4201 49.4105C16.4221 49.408 16.424 49.4061 16.4255 49.4036L16.43 49.3971C16.4315 49.3947 16.433 49.3922 16.4345 49.3897L21.4699 41.8057C21.4808 41.7894 21.4913 41.7725 21.5012 41.7557C21.7551 41.3168 22.1186 40.9429 22.5525 40.6736L25.3995 38.9081C25.4521 38.8754 25.5056 38.8461 25.5597 38.8189C25.584 38.8065 25.6088 38.7961 25.6331 38.7847C25.6619 38.7718 25.6901 38.7589 25.7194 38.7475C25.7526 38.7341 25.7858 38.7217 25.8201 38.7103C25.8374 38.7038 25.8553 38.6984 25.8731 38.6929C25.9148 38.68 25.9569 38.6676 25.9991 38.6572H25.9996C26.1528 38.62 26.3085 38.6017 26.4637 38.6007C26.4672 38.6007 26.4707 38.6007 26.4737 38.6007C26.5193 38.6007 26.5644 38.6027 26.6095 38.6056C26.6239 38.6071 26.6383 38.6081 26.6532 38.6096C26.6934 38.6131 26.733 38.6175 26.7727 38.6235C26.796 38.627 26.8198 38.6319 26.8436 38.6364C26.9041 38.6478 26.9641 38.6622 27.0231 38.6795C27.0459 38.686 27.0693 38.6919 27.0916 38.6989C27.1218 38.7093 27.1511 38.7207 27.1808 38.7326C27.2041 38.7415 27.2279 38.7504 27.2508 38.7604C27.28 38.7728 27.3093 38.7866 27.338 38.801C27.3599 38.8119 27.3812 38.8228 27.402 38.8342C27.4308 38.8496 27.4595 38.866 27.4878 38.8833C27.5071 38.8952 27.526 38.9076 27.5448 38.92C27.5731 38.9389 27.6014 38.9577 27.6286 38.9786C27.6455 38.991 27.6614 39.0043 27.6772 39.0172C27.7055 39.0396 27.7333 39.0619 27.7601 39.0862C27.89 39.2032 28.004 39.3381 28.0973 39.4903L28.1672 39.6049L29.1823 41.2612L30.4563 43.3401L30.7801 43.8692C30.8109 43.9193 30.8362 43.9714 30.8555 44.0254C30.915 44.1881 30.9245 44.3656 30.8823 44.5412C30.8218 44.7936 30.6626 45.0098 30.4345 45.1492L29.8617 45.4993L29.8612 45.4998C29.8216 45.5236 29.7814 45.5439 29.7397 45.5618C29.7308 45.5657 29.7219 45.5697 29.7129 45.5732C29.6718 45.59 29.6301 45.6039 29.588 45.6148C29.583 45.6163 29.5776 45.6173 29.5726 45.6183C29.5329 45.6277 29.4933 45.6347 29.4536 45.6391C29.4457 45.6401 29.4382 45.6411 29.4303 45.6421C29.3876 45.6456 29.345 45.6466 29.3028 45.6451C29.2949 45.6446 29.287 45.6441 29.279 45.6436C29.2359 45.6406 29.1932 45.6357 29.1511 45.6272C29.1506 45.6267 29.1501 45.6267 29.1496 45.6267C29.1045 45.6173 29.0608 45.6044 29.0177 45.5885C29.0137 45.5871 29.0102 45.5861 29.0063 45.5846C28.918 45.5509 28.8347 45.5032 28.7598 45.4422C28.7593 45.4422 28.7593 45.4418 28.7593 45.4418C28.7216 45.411 28.6879 45.3783 28.6567 45.3436C28.6542 45.3406 28.6517 45.3376 28.6487 45.3341C28.619 45.2994 28.5912 45.2632 28.5679 45.2245L27.6187 43.6728C27.2651 43.0946 26.7043 42.689 26.0392 42.5313C25.3579 42.3691 24.6517 42.4851 24.0516 42.8576C23.8101 43.0073 23.6485 43.2568 23.6098 43.538C23.5989 43.6193 23.5855 43.6991 23.5711 43.778C23.5602 43.8355 23.5478 43.8925 23.5349 43.9491C23.5309 43.9679 23.527 43.9872 23.5225 44.0061C23.5056 44.0775 23.4873 44.1479 23.467 44.2174C23.4665 44.2198 23.4655 44.2228 23.4645 44.2258C23.3579 44.5913 23.2081 44.93 23.0157 45.2379C23.0152 45.2384 23.0152 45.2389 23.0152 45.2394C22.6606 45.8077 22.1597 46.2883 21.5032 46.6875C21.0539 46.9607 20.911 47.5464 21.1843 47.9957C21.4575 48.445 22.0432 48.5878 22.4925 48.3146C22.9562 48.0324 23.3673 47.716 23.7268 47.3674L27.703 53.6382C28.4355 54.7743 29.7015 55.4333 31.0112 55.4333C31.0807 55.4333 31.1501 55.4299 31.2195 55.4259C31.2468 55.4755 31.2746 55.5246 31.3043 55.5737C31.4164 55.7567 31.5453 55.9253 31.6887 56.0785L28.8739 57.7547ZM29.6817 50.7544C29.6817 50.7549 29.6822 50.7554 29.6822 50.7559C29.6981 50.8006 29.7154 50.8442 29.7338 50.8883C29.7358 50.8933 29.7377 50.8987 29.7402 50.9042C29.7566 50.9439 29.7744 50.9831 29.7928 51.0222C29.7973 51.0307 29.8007 51.0401 29.8052 51.049C29.8225 51.0857 29.8419 51.1219 29.8607 51.1581C29.8667 51.169 29.8716 51.1799 29.8776 51.1903C29.9029 51.237 29.9297 51.2831 29.9574 51.3287C30.005 51.4071 30.0571 51.4819 30.1107 51.5548C30.13 51.5806 30.1498 51.6059 30.1697 51.6312C30.2049 51.6758 30.2411 51.719 30.2783 51.7616C30.3046 51.7914 30.3304 51.8221 30.3576 51.8509C30.378 51.8727 30.4003 51.8926 30.4216 51.9139C30.4985 51.9907 30.5788 52.0631 30.6631 52.1316C30.672 52.1385 30.6805 52.146 30.6894 52.1524C30.853 52.2823 31.0286 52.3949 31.2156 52.4896C31.0435 52.8135 30.9299 53.1646 30.8793 53.5261C30.2515 53.4869 29.6574 53.1561 29.3073 52.6126L24.9299 45.709C25.1327 45.29 25.2889 44.8427 25.3951 44.3661C25.463 44.3622 25.5314 44.3681 25.5989 44.384C25.7665 44.4236 25.9068 44.5243 25.9941 44.6666L26.9433 46.2183C26.9448 46.2203 26.9463 46.2223 26.9478 46.2248C26.9944 46.3007 27.0445 46.3741 27.0985 46.445C27.1382 46.497 27.1808 46.5456 27.2235 46.5942C27.2384 46.6111 27.2517 46.6295 27.2671 46.6463C27.2691 46.6547 27.2716 46.6632 27.2736 46.6716C27.2884 46.7376 27.3053 46.803 27.3241 46.868C27.3301 46.8868 27.3356 46.9057 27.341 46.9245C27.3643 46.9979 27.3891 47.0708 27.4179 47.1422C27.4204 47.1497 27.4238 47.1566 27.4268 47.1636C27.4531 47.229 27.4823 47.293 27.5136 47.3565C27.5225 47.3748 27.5314 47.3932 27.5409 47.411C27.5766 47.4804 27.6138 47.5489 27.6544 47.6163C28.0864 48.3235 28.7653 48.8214 29.5676 49.0237C29.4437 49.591 29.4784 50.1916 29.6817 50.7544ZM30.2892 39.4224L30.6091 39.227C30.8912 39.0544 31.2235 39.0024 31.5453 39.0797C31.8667 39.1576 32.1384 39.3554 32.3105 39.6376C32.6661 40.2198 32.4821 40.983 31.8999 41.3386L31.582 41.533L30.6408 39.9972L30.2892 39.4224ZM37.3852 50.8596C37.6981 50.9349 37.9624 51.1279 38.1305 51.4026C38.4767 51.9694 38.2972 52.7123 37.7303 53.0589L34.5858 54.9811C34.3333 55.1353 34.0398 55.1894 33.7506 55.1388C33.7343 55.1353 33.7174 55.1313 33.7006 55.1289C33.6921 55.1269 33.6832 55.1259 33.6748 55.1239C33.3614 55.0485 33.097 54.8556 32.9289 54.5809C32.8535 54.4574 32.8049 54.326 32.7777 54.1921C32.7772 54.1881 32.7772 54.1846 32.7762 54.1812C32.7008 53.7899 32.8268 53.3902 33.0955 53.1125C33.103 53.1051 33.1099 53.0971 33.1174 53.0902C33.1313 53.0768 33.1456 53.0639 33.16 53.051C33.1744 53.0381 33.1893 53.0252 33.2051 53.0133C33.2166 53.0039 33.2275 52.995 33.2394 52.986C33.2676 52.9652 33.2959 52.9454 33.3261 52.9265C33.3271 52.926 33.3281 52.9255 33.3286 52.925L33.9535 52.5432C34.0636 52.4921 34.1717 52.4361 34.2768 52.3721L36.6825 50.9012C36.9056 50.8179 37.1481 50.8025 37.3852 50.8596ZM35.1947 46.686C35.4506 46.5635 35.7383 46.5328 36.0179 46.6002C36.3393 46.6776 36.6111 46.8759 36.7836 47.1581C37.1392 47.7403 36.9547 48.503 36.373 48.8586L35.8067 49.2047C35.6956 49.2558 35.5865 49.3133 35.4809 49.3778L33.0876 50.8402C32.6408 51.0158 32.1379 50.9126 31.7963 50.5972C31.7958 50.5967 31.7958 50.5967 31.7958 50.5967C31.769 50.5719 31.7437 50.5467 31.7194 50.5194C31.713 50.5119 31.707 50.504 31.7006 50.4966C31.6827 50.4757 31.6648 50.4549 31.648 50.4326C31.6247 50.4013 31.6029 50.3691 31.582 50.3359C31.5612 50.3012 31.5424 50.2665 31.525 50.2308C31.5195 50.2194 31.5151 50.2079 31.5096 50.196C31.4987 50.1717 31.4878 50.1469 31.4784 50.1217C31.4734 50.1083 31.4695 50.0954 31.465 50.082C31.4571 50.0577 31.4496 50.0339 31.4432 50.0096C31.4397 49.9962 31.4362 49.9823 31.4333 49.9689C31.4278 49.9446 31.4228 49.9198 31.4184 49.8945C31.4164 49.8816 31.4144 49.8687 31.4124 49.8558C31.409 49.8301 31.4065 49.8043 31.405 49.7785C31.404 49.7661 31.403 49.7537 31.4025 49.7413C31.4015 49.7145 31.4015 49.6877 31.4025 49.6615C31.4025 49.6496 31.4025 49.6381 31.4035 49.6267C31.4045 49.5995 31.408 49.5727 31.4109 49.5459C31.4124 49.5345 31.4129 49.5231 31.4149 49.5117C31.4184 49.4879 31.4233 49.4641 31.4283 49.4403C31.4824 49.1854 31.6158 48.9468 31.825 48.7639C31.8335 48.7564 31.8409 48.7475 31.8493 48.7401C31.8612 48.7296 31.8726 48.7192 31.885 48.7093C31.9148 48.6924 31.945 48.6771 31.9743 48.6592L35.0638 46.7708C35.1084 46.7435 35.1521 46.7153 35.1947 46.686ZM33.7154 42.8873C34.0368 42.9647 34.3085 43.163 34.4811 43.4452C34.8124 43.9877 34.6745 44.6875 34.1831 45.0683C34.1513 45.0857 34.1201 45.1035 34.0889 45.1224L31.7035 46.5804C31.7115 46.5744 31.7189 46.5675 31.7268 46.561C31.7725 46.5248 31.8181 46.4881 31.8607 46.4494C31.8875 46.4256 31.9128 46.4003 31.9386 46.3756C31.9773 46.3379 32.016 46.2997 32.0527 46.2595C32.0779 46.2327 32.1017 46.2045 32.1255 46.1767C32.1598 46.136 32.1935 46.0954 32.2252 46.0532C32.2475 46.024 32.2699 45.9942 32.2912 45.9635C32.3214 45.9203 32.3502 45.8762 32.3785 45.831C32.3978 45.7998 32.4171 45.7691 32.435 45.7373C32.4623 45.6897 32.4871 45.6406 32.5114 45.5915C32.5267 45.5603 32.5431 45.53 32.557 45.4983C32.5818 45.4432 32.6036 45.3867 32.6254 45.3297C32.6353 45.3024 32.6472 45.2756 32.6567 45.2479C32.6859 45.1621 32.7122 45.0753 32.7335 44.9865C32.7539 44.9017 32.7697 44.8164 32.7821 44.7311C32.7861 44.7038 32.7881 44.6766 32.7916 44.6493C32.7985 44.5908 32.804 44.5328 32.8074 44.4742C32.8089 44.4425 32.8094 44.4108 32.8099 44.379C32.8114 44.3245 32.8109 44.2704 32.8089 44.2164C32.8079 44.1841 32.8059 44.1519 32.804 44.1197C32.8 44.0651 32.7935 44.0106 32.7866 43.9565C32.7826 43.9263 32.7792 43.896 32.7742 43.8662C32.7638 43.8048 32.7509 43.7443 32.736 43.6838C32.7311 43.6619 32.7271 43.6396 32.7216 43.6178C32.6998 43.536 32.675 43.4551 32.6458 43.3753C32.6398 43.3599 32.6329 43.3445 32.6264 43.3287C32.6056 43.2751 32.5853 43.2211 32.561 43.1685L32.7797 43.0346C33.0618 42.862 33.3941 42.81 33.7154 42.8873ZM56.3562 33.2701C56.3453 33.3158 56.3131 33.4011 56.2198 33.4586L55.0807 34.1618C54.9384 34.2496 54.7505 34.2054 54.6622 34.0626L42.6696 14.6259C42.3939 14.1786 41.8072 14.0397 41.3594 14.3155C40.9121 14.5917 40.7732 15.1783 41.0495 15.6257L51.3272 32.2828L29.2007 37.0996L23.3405 27.6014L37.5697 9.98617L38.7192 11.8498C38.9954 12.2971 39.5821 12.436 40.0294 12.1602C40.4772 11.884 40.616 11.2974 40.3398 10.8495L37.4749 6.20684C37.4174 6.11361 37.4268 6.02285 37.4377 5.97723C37.4486 5.93111 37.4809 5.84581 37.5741 5.78829L38.7132 5.08558C38.856 4.99731 39.0435 5.04194 39.1318 5.18477L56.319 33.0405C56.3765 33.1338 56.3671 33.2245 56.3562 33.2701Z" fill="#CC0444"/>
</g>
<defs>
<clipPath id="clip0_13_1111">
<rect width="65" height="65" fill="white"/>
</clipPath>
</defs>
</svg>
