<svg width="65" height="65" viewBox="0 0 65 65" fill="none" xmlns="http://www.w3.org/2000/svg">
<g clip-path="url(#clip0_13_1006)">
<path d="M62.4266 14.342L32.9141 0.0945825C32.6524 -0.0316089 32.3477 -0.0316089 32.0862 0.0945825L2.57355 14.342C2.24449 14.5008 2.0354 14.8341 2.0354 15.1995V49.8004C2.0354 50.1658 2.24449 50.499 2.57355 50.6579L32.0861 64.9053C32.2169 64.9684 32.3585 65 32.5001 65C32.6416 65 32.7832 64.9684 32.9141 64.9053L62.4266 50.6579C62.7557 50.499 62.9648 50.1658 62.9648 49.8004V15.1996C62.9648 14.834 62.7556 14.501 62.4266 14.342ZM32.5001 2.00942L59.8226 15.1995L51.9023 19.023C51.8522 18.9848 51.7992 18.9495 51.7411 18.9215L24.6042 5.82118L32.5001 2.00942ZM22.4539 6.89775L49.7366 20.0686L44.1488 22.7663L16.8774 9.60071L22.4539 6.89775ZM50.375 21.8749V31.8466L45.1555 34.3663V24.3947L50.375 21.8749ZM61.0605 49.203L33.4522 62.5308V30.0445L40.0377 26.8653C40.5112 26.6367 40.7098 26.0675 40.4811 25.5939C40.2525 25.1205 39.6833 24.9217 39.2097 25.1504L32.5001 28.3896L29.86 27.115C29.3863 26.8861 28.8172 27.0849 28.5885 27.5585C28.3599 28.032 28.5584 28.6013 29.032 28.8299L31.5479 30.0445V62.5308L3.9397 49.2027V16.7164L24.9631 26.8657C25.0966 26.9302 25.2376 26.9607 25.3764 26.9607C25.7303 26.9607 26.0703 26.7624 26.2344 26.4222C26.4631 25.9487 26.2645 25.3795 25.791 25.1508L5.17762 15.1995L14.6363 10.6332L43.238 24.441C43.2422 24.4469 43.2469 24.4521 43.2512 24.4578V35.8834C43.2512 36.2111 43.4197 36.5157 43.6972 36.69C43.8513 36.7867 44.0272 36.8356 44.2035 36.8356C44.3447 36.8356 44.4862 36.8042 44.6174 36.7409L51.7411 33.3018C52.0702 33.143 52.2793 32.8099 52.2793 32.4444V20.9558L61.0605 16.7166V49.203Z" fill="#CC0444"/>
<path d="M11.7972 45.51L7.46622 43.4193C6.99243 43.1904 6.42342 43.3892 6.19478 43.8627C5.96614 44.3362 6.16469 44.9055 6.63823 45.1341L10.9692 47.2249C11.1027 47.2894 11.2437 47.3199 11.3825 47.3199C11.7364 47.3199 12.0764 47.1216 12.2405 46.7815C12.4693 46.3078 12.2708 45.7388 11.7972 45.51Z" fill="#CC0444"/>
<path d="M15.7832 42.9155L7.47224 38.9033C6.99858 38.6746 6.42945 38.8732 6.20081 39.3469C5.97229 39.8204 6.17084 40.3896 6.64438 40.6183L14.9554 44.6305C15.0888 44.6949 15.2298 44.7255 15.3686 44.7255C15.7225 44.7255 16.0625 44.5272 16.2267 44.1871C16.4553 43.7133 16.2568 43.144 15.7832 42.9155Z" fill="#CC0444"/>
</g>
<defs>
<clipPath id="clip0_13_1006">
<rect width="65" height="65" fill="white"/>
</clipPath>
</defs>
</svg>
