<svg width="65" height="65" viewBox="0 0 65 65" fill="none" xmlns="http://www.w3.org/2000/svg">
<g clip-path="url(#clip0_13_1065)">
<path d="M52.5596 18.8843C53.2606 18.8843 53.8291 18.3159 53.8291 17.6147V3.80859C53.8291 1.70854 52.1206 0 50.0205 0H3.80957C1.70951 0 0.000976562 1.70854 0.000976562 3.80859V61.1914C0.000976562 63.2915 1.70951 65 3.80957 65H50.0205C52.1206 65 53.8291 63.2915 53.8291 61.1914V51.8385C53.8291 51.1374 53.2606 50.569 52.5596 50.569C51.8585 50.569 51.29 51.1374 51.29 51.8385V61.1914C51.29 61.8914 50.7205 62.4609 50.0205 62.4609H3.80957C3.10955 62.4609 2.54004 61.8914 2.54004 61.1914V3.80859C2.54004 3.10857 3.10955 2.53906 3.80957 2.53906H50.0205C50.7205 2.53906 51.29 3.10857 51.29 3.80859V17.6147C51.29 18.3159 51.8585 18.8843 52.5596 18.8843Z" fill="#CC0444"/>
<path d="M26.915 6.85547C20.4748 6.85547 15.2354 12.095 15.2354 18.5352C15.2354 21.8762 16.6458 24.8936 18.902 27.0244C18.9443 27.0696 18.9892 27.1124 19.0384 27.1513C21.1167 29.053 23.8826 30.2147 26.9149 30.2147C29.9472 30.2147 32.7131 29.0528 34.7915 27.1513C34.8406 27.1124 34.8855 27.0695 34.9278 27.0244C37.1843 24.8936 38.5947 21.8762 38.5947 18.5352C38.5947 12.095 33.3552 6.85547 26.915 6.85547ZM26.915 27.6758C24.842 27.6758 22.9288 26.9811 21.3937 25.8136C22.5095 23.8351 24.5917 22.5977 26.915 22.5977C29.2384 22.5977 31.3206 23.8351 32.4364 25.8136C30.9011 26.9811 28.9881 27.6758 26.915 27.6758ZM24.8838 18.0273V17.2021C24.8838 16.0822 25.7951 15.1709 26.915 15.1709C28.035 15.1709 28.9463 16.0822 28.9463 17.2021V18.0273C28.9463 19.1473 28.035 20.0586 26.915 20.0586C25.7951 20.0586 24.8838 19.1473 24.8838 18.0273ZM34.2707 23.9539C33.3344 22.5653 32.0368 21.4853 30.5303 20.8185C31.1282 20.0458 31.4854 19.0778 31.4854 18.0273V17.2021C31.4854 14.682 29.4352 12.6318 26.915 12.6318C24.3949 12.6318 22.3447 14.682 22.3447 17.2021V18.0273C22.3447 19.0778 22.7018 20.0458 23.2998 20.8185C21.7932 21.4853 20.4957 22.5653 19.5594 23.9539C18.4385 22.4364 17.7744 20.5622 17.7744 18.5352C17.7744 13.495 21.8749 9.39453 26.915 9.39453C31.9552 9.39453 36.0557 13.495 36.0557 18.5352C36.0557 20.5622 35.3916 22.4364 34.2707 23.9539Z" fill="#CC0444"/>
<path d="M33.7705 55.6055H26.915C26.214 55.6055 25.6455 56.1738 25.6455 56.875C25.6455 57.5762 26.214 58.1445 26.915 58.1445H33.7705C34.4715 58.1445 35.04 57.5762 35.04 56.875C35.04 56.1738 34.4715 55.6055 33.7705 55.6055Z" fill="#CC0444"/>
<path d="M33.7705 48.4961H15.7432C15.0421 48.4961 14.4736 49.0645 14.4736 49.7656C14.4736 50.4668 15.0421 51.0352 15.7432 51.0352H33.7705C34.4715 51.0352 35.04 50.4668 35.04 49.7656C35.04 49.0645 34.4715 48.4961 33.7705 48.4961Z" fill="#CC0444"/>
<path d="M33.7705 41.3867H15.7432C15.0421 41.3867 14.4736 41.9551 14.4736 42.6562C14.4736 43.3574 15.0421 43.9258 15.7432 43.9258H33.7705C34.4715 43.9258 35.04 43.3574 35.04 42.6562C35.04 41.9551 34.4715 41.3867 33.7705 41.3867Z" fill="#CC0444"/>
<path d="M11.2183 34.6493C10.9823 34.4132 10.6547 34.2773 10.3196 34.2773C9.98557 34.2773 9.65803 34.4132 9.42202 34.6493C9.18589 34.8854 9.05005 35.213 9.05005 35.5469C9.05005 35.8808 9.18576 36.2083 9.42202 36.4444C9.65942 36.6806 9.98557 36.8164 10.3196 36.8164C10.6547 36.8164 10.981 36.6806 11.2183 36.4444C11.4544 36.2083 11.5904 35.8808 11.5904 35.5469C11.5904 35.213 11.4545 34.8854 11.2183 34.6493Z" fill="#CC0444"/>
<path d="M11.2183 41.7587C10.981 41.5226 10.6547 41.3867 10.3196 41.3867C9.98557 41.3867 9.65942 41.5226 9.42202 41.7587C9.18589 41.9948 9.05005 42.3224 9.05005 42.6562C9.05005 42.9901 9.18576 43.3177 9.42202 43.5538C9.65942 43.7899 9.98557 43.9258 10.3196 43.9258C10.6547 43.9258 10.981 43.7899 11.2183 43.5538C11.4544 43.3177 11.5904 42.9901 11.5904 42.6562C11.5904 42.3224 11.4545 41.9948 11.2183 41.7587Z" fill="#CC0444"/>
<path d="M11.2183 48.8681C10.981 48.6319 10.6547 48.4961 10.3196 48.4961C9.98557 48.4961 9.65942 48.6319 9.42202 48.8681C9.18589 49.1042 9.05005 49.4317 9.05005 49.7656C9.05005 50.0995 9.18576 50.4271 9.42202 50.6632C9.65803 50.8993 9.98557 51.0352 10.3196 51.0352C10.6547 51.0352 10.9823 50.8993 11.2183 50.6632C11.4544 50.4271 11.5904 50.0995 11.5904 49.7656C11.5904 49.4317 11.4545 49.1042 11.2183 48.8681Z" fill="#CC0444"/>
<path d="M33.7705 34.2773H15.7432C15.0421 34.2773 14.4736 34.8457 14.4736 35.5469C14.4736 36.248 15.0421 36.8164 15.7432 36.8164H33.7705C34.4715 36.8164 35.04 36.248 35.04 35.5469C35.04 34.8457 34.4715 34.2773 33.7705 34.2773Z" fill="#CC0444"/>
<path d="M62.3341 16.5445C61.1008 15.8325 59.6639 15.6433 58.288 16.0118C56.9124 16.3805 55.7624 17.2628 55.0505 18.4962L39.0744 46.1673C38.987 46.319 38.9316 46.4872 38.9122 46.6612L37.7876 56.7342C37.7318 57.2354 37.9778 57.7223 38.4145 57.9746C38.6117 58.0883 38.8307 58.1447 39.0492 58.1447C39.3147 58.1447 39.5793 58.0615 39.8021 57.8974L47.9632 51.8869C48.1042 51.783 48.2223 51.6511 48.3098 51.4994L64.2857 23.8283C65.7558 21.2822 64.8803 18.0147 62.3341 16.5445ZM40.6329 54.1321L41.2202 48.8721L44.8945 50.9935L40.6329 54.1321ZM46.7457 49.1304L41.9081 46.3374L54.7285 24.132L59.5661 26.925L46.7457 49.1304ZM62.0868 22.5587L60.8355 24.7262L55.9979 21.9332L57.2493 19.7657C57.6223 19.1197 58.2245 18.6575 58.9451 18.4644C59.666 18.2712 60.4185 18.3705 61.0645 18.7435C61.7105 19.1165 62.1727 19.7187 62.3658 20.4393C62.5588 21.1599 62.4598 21.9126 62.0868 22.5587Z" fill="#CC0444"/>
</g>
<defs>
<clipPath id="clip0_13_1065">
<rect width="65" height="65" fill="white"/>
</clipPath>
</defs>
</svg>
