<svg width="60" height="60" viewBox="0 0 60 60" fill="none" xmlns="http://www.w3.org/2000/svg">
<g clip-path="url(#clip0_13_689)">
<path d="M59.1193 58.2388H53.4246V23.4247C53.4246 22.9384 53.0304 22.5441 52.5439 22.5441H43.1507C42.6642 22.5441 42.27 22.9384 42.27 23.4247V58.2388H35.5773V33.7574C35.5773 33.2711 35.1831 32.8767 34.6966 32.8767H25.3034C24.8169 32.8767 24.4227 33.2711 24.4227 33.7574V58.2388H17.73V38.454C17.73 37.9677 17.3358 37.5734 16.8493 37.5734H7.45605C6.96961 37.5734 6.57539 37.9677 6.57539 38.454V58.2387H0.880664C0.394219 58.2387 0 58.633 0 59.1193C0 59.6057 0.394219 60 0.880664 60H59.1193C59.6058 60 60 59.6057 60 59.1193C59.9999 58.633 59.6058 58.2388 59.1193 58.2388ZM15.9687 58.2388H8.3366V39.3347H15.9687V58.2388ZM33.8161 58.2388H26.184V34.6381H33.8161V58.2388ZM51.6634 58.2388H44.0313V24.3054H51.6634V58.2388Z" fill="#C73E9B"/>
<path d="M57.1884 0.690824C56.5948 0.166878 55.8049 -0.0772232 55.0197 0.0214487L47.5051 0.960824C46.0133 1.14727 44.9227 2.54754 45.1094 4.04086C45.298 5.54989 46.6785 6.62532 48.1896 6.43664L48.8027 6.36012C39.5794 17.0542 28.6146 22.581 20.8664 25.3586C11.2053 28.822 3.68573 29.1183 3.61249 29.1207C2.09339 29.1682 0.894793 30.4429 0.940731 31.9622C0.986199 33.4627 2.1971 34.6379 3.69768 34.6379C3.72557 34.6379 3.75358 34.6376 3.78229 34.6366C4.11663 34.6266 12.0878 34.3451 22.5896 30.603C28.4933 28.4993 34.0484 25.7066 39.1005 22.3027C39.5039 22.031 39.6105 21.4835 39.3386 21.0803C39.067 20.6768 38.5197 20.5703 38.1162 20.842C33.1864 24.1638 27.7635 26.8897 21.9984 28.944C11.7547 32.5941 4.05171 32.8664 3.72956 32.8761L3.69768 32.8766C3.15534 32.8766 2.71753 32.4516 2.70112 31.9089C2.68448 31.3593 3.11807 30.8982 3.66792 30.881C3.74479 30.8786 11.4789 30.5947 21.4607 27.0164C29.8231 24.0186 41.8388 17.8976 51.5927 5.76117C52.0783 5.15696 51.5649 4.2395 50.7972 4.33571L47.9716 4.68891C47.4817 4.7495 47.006 4.42852 46.8816 3.95016C46.7321 3.37453 47.1343 2.78203 47.7237 2.70821L55.2386 1.76883C55.8254 1.69465 56.3602 2.16891 56.3602 2.75918V10.2738C56.3602 10.8241 55.9126 11.2719 55.3621 11.2719C54.8117 11.2719 54.3641 10.8243 54.3641 10.2738V7.99571C54.3641 7.63582 54.1313 7.29926 53.7948 7.17211C53.4471 7.04075 53.0362 7.15102 52.8011 7.43883C49.512 11.469 45.7669 15.1159 41.6697 18.2781C41.2848 18.5753 41.2134 19.1283 41.5106 19.5134C41.8078 19.8984 42.361 19.9696 42.7459 19.6725C46.3148 16.918 49.623 13.8054 52.6057 10.3982C52.6708 11.8622 53.8823 13.0334 55.3623 13.0334C56.8837 13.0334 58.1216 11.7955 58.1216 10.2741V2.75942C58.1214 1.9684 57.7814 1.2143 57.1884 0.690824Z" fill="#C73E9B"/>
</g>
<defs>
<clipPath id="clip0_13_689">
<rect width="60" height="60" fill="white"/>
</clipPath>
</defs>
</svg>
