<svg width="60" height="60" viewBox="0 0 60 60" fill="none" xmlns="http://www.w3.org/2000/svg">
<g clip-path="url(#clip0_13_767)">
<path d="M25.4297 42.7735C26.0765 42.7735 26.6016 42.2484 26.6016 41.6016C26.6016 40.9548 26.0765 40.4297 25.4297 40.4297C24.7829 40.4297 24.2578 40.9548 24.2578 41.6016C24.2578 42.2484 24.7829 42.7735 25.4297 42.7735Z" fill="#C73E9B"/>
<path d="M0.460511 45.477L14.523 59.5396C14.9808 59.9973 15.7224 59.9973 16.1801 59.5396L23.9145 51.8052C24.3723 51.3474 24.3723 50.6058 23.9145 50.1481L23.5712 49.8048H40.4636C41.9472 49.8048 43.3631 49.2486 44.4549 48.2351L58.6716 34.9109C60.0326 33.647 60.4835 31.6393 59.7932 29.9154C59.2942 28.6675 58.2752 27.7126 56.9981 27.2956C55.7204 26.8776 54.3348 27.047 53.195 27.7593C53.1876 27.7639 50.0387 29.8302 50.0387 29.8302C50.0172 23.4778 46.1779 16.7038 40.893 13.6542C41.1947 13.3077 41.4318 12.8975 41.5828 12.4384C42.1876 10.5986 41.1823 8.60734 39.3398 7.99897C39.2821 7.97975 39.2244 7.96281 39.1668 7.94496L42.1834 2.52594C42.3569 2.21421 42.3794 1.84021 42.2434 1.51062C42.1079 1.18057 41.8296 0.930177 41.4867 0.830842C39.3238 0.201874 37.0757 -0.117188 34.8047 -0.117188C32.5342 -0.117188 30.2857 0.201874 28.1227 0.830385C27.7799 0.930177 27.5016 1.18012 27.3656 1.51016C27.2301 1.84021 27.2521 2.21421 27.426 2.52594L30.4427 7.94496C30.3841 7.96327 30.3255 7.98066 30.2669 7.99989C28.4272 8.60734 27.4224 10.5982 28.0271 12.4393C28.1781 12.8975 28.4171 13.3063 28.7197 13.6533C23.356 16.7482 19.5703 23.5918 19.5703 29.8829C19.5703 30.0545 19.5745 30.2239 19.58 30.3919C17.4811 30.9645 15.5297 32.0078 13.8886 33.4447L10.3272 36.5607L9.852 36.0856C9.39424 35.6278 8.65266 35.6278 8.1949 36.0856L0.460511 43.8199C0.00274644 44.2777 0.00274644 45.0193 0.460511 45.477ZM30.2147 2.71683C31.7162 2.3909 33.2543 2.22657 34.8047 2.22657C36.3552 2.22657 37.8933 2.3909 39.3952 2.71683L36.7836 7.40754C35.4671 7.22398 34.1414 7.22398 32.8263 7.40754L30.2147 2.71683ZM30.9984 10.2265C33.4031 9.43956 36.0247 9.38005 38.6078 10.2255C39.2226 10.4283 39.5582 11.093 39.3563 11.7064C39.2043 12.1683 38.7923 12.4819 38.3149 12.5098C36.0041 11.7751 33.604 11.7737 31.2941 12.5075C31.2941 12.5075 31.2941 12.5075 31.2937 12.5075C30.8121 12.4773 30.4033 12.1623 30.2532 11.7069C30.0513 11.0925 30.3868 10.4279 30.9984 10.2265ZM31.6466 14.8613C33.6786 14.1294 35.7839 14.112 37.8209 14.8119C43.2656 16.6841 47.6954 23.4449 47.6954 29.8829C47.6954 30.4285 47.661 30.9485 47.5933 31.4347L41.9605 35.1302C41.0885 34.0499 39.7669 33.3985 38.3204 33.3985H35.9766V32.0252C37.3407 31.5413 38.3204 30.2385 38.3204 28.711C38.3204 26.7723 36.7434 25.1953 34.8047 25.1953C34.1588 25.1953 33.6329 24.6698 33.6329 24.0235C33.6329 23.3771 34.1588 22.8516 34.8047 22.8516C35.2199 22.8516 35.658 23.0635 36.0723 23.4641C36.5374 23.9141 37.2794 23.9017 37.7294 23.4371C38.1794 22.972 38.167 22.2299 37.7019 21.78C37.1073 21.2041 36.5122 20.8786 35.9766 20.701V19.336C35.9766 18.6887 35.452 18.1641 34.8047 18.1641C34.1575 18.1641 33.6329 18.6887 33.6329 19.336V20.7093C32.2692 21.1931 31.2891 22.4959 31.2891 24.0235C31.2891 25.9621 32.8661 27.5391 34.8047 27.5391C35.4511 27.5391 35.9766 28.0646 35.9766 28.711C35.9766 29.3573 35.4511 29.8829 34.8047 29.8829C34.3039 29.8829 33.7638 29.5679 33.2831 28.9962C32.8666 28.5009 32.1273 28.4368 31.632 28.8533C31.1367 29.2699 31.0726 30.0092 31.4891 30.5045C32.1154 31.2497 32.8524 31.7688 33.6329 32.0307V33.3985H33.2428C32.667 33.3985 32.4083 33.0231 32.0028 32.7608C29.5267 30.905 26.4597 29.8829 23.3661 29.8829C22.8823 29.8829 22.3975 29.908 21.915 29.957C21.915 29.9323 21.9141 29.908 21.9141 29.8829C21.9141 23.535 26.2802 16.7967 31.6466 14.8613ZM15.4321 35.208C17.634 33.2799 20.4634 32.2266 23.3661 32.2266C25.9561 32.2266 28.5237 33.0822 30.5956 34.6354C30.8945 34.8102 31.7267 35.7422 33.2424 35.7422H38.3204C39.6543 35.7422 40.6641 36.8267 40.6641 38.086C40.6641 39.3783 39.6126 40.4297 38.3204 40.4297H30.1172C29.4699 40.4297 28.9453 40.9543 28.9453 41.6016C28.9453 42.2489 29.4699 42.7735 30.1172 42.7735H38.3204C40.9049 42.7735 43.0079 40.6705 43.0079 38.086C43.0079 37.8173 42.9841 37.5522 42.9392 37.2913L54.4469 29.7409C54.9944 29.4027 55.6586 29.3235 56.2702 29.523C56.8854 29.7245 57.3766 30.1845 57.617 30.786C57.9552 31.6301 57.7428 32.5754 57.0727 33.1975L42.8563 46.5212C42.2036 47.1273 41.354 47.461 40.4636 47.461H21.2274L11.9884 38.2215L15.4321 35.208ZM9.02345 38.5712L21.4289 50.9766L15.3516 57.0539L2.94617 44.6485L9.02345 38.5712Z" fill="#C73E9B"/>
</g>
<defs>
<clipPath id="clip0_13_767">
<rect width="60" height="60" fill="white"/>
</clipPath>
</defs>
</svg>
