<svg width="65" height="65" viewBox="0 0 65 65" fill="none" xmlns="http://www.w3.org/2000/svg">
<g clip-path="url(#clip0_13_902)">
<path d="M11.7394 35.1038C15.2205 35.1038 18.0528 32.2715 18.0528 28.7904C18.0528 25.3094 15.2205 22.477 11.7394 22.477C8.25835 22.477 5.42603 25.3094 5.42603 28.7904C5.42603 32.2715 8.25835 35.1038 11.7394 35.1038ZM11.7394 24.5096C14.0995 24.5096 16.0203 26.4304 16.0203 28.7904C16.0203 31.1505 14.0995 33.0713 11.7394 33.0713C9.37935 33.0713 7.45854 31.1505 7.45854 28.7904C7.45854 26.4291 9.37935 24.5096 11.7394 24.5096ZM56.4777 35.1076H50.0399C47.2914 35.1076 44.765 36.4178 43.1705 38.6001C41.3741 37.0106 39.0153 36.0433 36.4331 36.0433H33.8242C33.8204 36.0433 33.8166 36.0433 33.8127 36.0433H31.1823C31.1785 36.0433 31.1759 36.0433 31.1721 36.0433H28.567C25.9848 36.0433 23.6248 37.0119 21.8284 38.6014C20.2364 36.419 17.7087 35.1076 14.9564 35.1076H8.5186C3.82134 35.1076 -0.0012207 38.9302 -0.0012207 43.6274V49.9903C-0.0012207 51.1824 0.966162 52.1511 2.15571 52.1511H18.3841V53.9957C18.3841 55.3262 19.467 56.4091 20.7975 56.4091H44.2039C45.5343 56.4091 46.6172 55.3262 46.6172 53.9957V52.1511H62.8418C64.0339 52.1511 65.0026 51.1812 65.0026 49.9903V43.6274C65.0013 38.9289 61.1775 35.1076 56.4777 35.1076ZM33.5817 45.5355L32.5001 47.4525L31.4184 45.5355L32.1128 38.077H32.8834L33.5817 45.5355ZM17.1895 50.1173V44.1454C17.1895 43.5843 16.735 43.1285 16.1726 43.1285C15.6102 43.1285 15.1557 43.583 15.1557 44.1454V50.1173H8.31929V44.1454C8.31929 43.5843 7.86479 43.1285 7.30239 43.1285C6.73999 43.1285 6.2855 43.583 6.2855 44.1454V50.1173H2.15571C2.09097 50.1173 2.0313 50.0563 2.0313 49.9891V43.6262C2.0313 40.0499 4.94106 37.1401 8.51733 37.1401H14.9551C17.1844 37.1401 19.2208 38.2713 20.4116 40.1311C19.1382 41.8311 18.3829 43.941 18.3829 46.2249V50.1173H17.1895ZM44.5822 53.9944C44.5822 54.2001 44.4083 54.374 44.2026 54.374H38.9328V46.8546C38.9328 46.2935 38.4783 45.8377 37.9159 45.8377C37.3535 45.8377 36.899 46.2922 36.899 46.8546V54.374H28.096V46.8546C28.096 46.2935 27.6416 45.8377 27.0792 45.8377C26.5167 45.8377 26.0623 46.2922 26.0623 46.8546V54.374H20.7962C20.5906 54.374 20.4167 54.2001 20.4167 53.9944V46.2249C20.4167 44.2203 21.1466 42.382 22.3514 40.9614C22.3895 40.9246 22.4225 40.8853 22.4542 40.8434C23.9485 39.1485 26.1333 38.0758 28.5658 38.0758H30.0702L29.3643 45.6625C29.3453 45.8682 29.3897 46.0764 29.4913 46.2566L31.6139 50.0208C31.7942 50.3407 32.1319 50.5375 32.4988 50.5375C32.8657 50.5375 33.2046 50.3395 33.3849 50.0208L35.5076 46.2566C35.6091 46.0764 35.6536 45.8694 35.6345 45.6625L34.9249 38.0758H36.4318C38.8477 38.0758 41.0211 39.1333 42.5154 40.8103C42.556 40.87 42.6042 40.9246 42.6588 40.9754C43.8573 42.3947 44.5822 44.2267 44.5822 46.2249V53.9944ZM62.9688 49.9891C62.9688 50.0576 62.9091 50.1173 62.8406 50.1173H58.7108V44.1454C58.7108 43.5843 58.2563 43.1285 57.6939 43.1285C57.1315 43.1285 56.677 43.583 56.677 44.1454V50.1173H49.8393V44.1454C49.8393 43.5843 49.3848 43.1285 48.8224 43.1285C48.26 43.1285 47.8055 43.583 47.8055 44.1454V50.1173H46.6147V46.2249C46.6147 43.941 45.8581 41.8298 44.5834 40.1299C45.7768 38.2713 47.8131 37.1401 50.0386 37.1401H56.4764C60.0552 37.1401 62.9663 40.0499 62.9663 43.6262V49.9891H62.9688ZM53.2607 35.1038C56.7417 35.1038 59.5741 32.2715 59.5741 28.7904C59.5741 25.3094 56.7417 22.477 53.2607 22.477C49.7796 22.477 46.9473 25.3094 46.9473 28.7904C46.9473 32.2715 49.7796 35.1038 53.2607 35.1038ZM53.2607 24.5096C55.6208 24.5096 57.5416 26.4304 57.5416 28.7904C57.5416 31.1505 55.6208 33.0713 53.2607 33.0713C50.9006 33.0713 48.9798 31.1505 48.9798 28.7904C48.9798 26.4291 50.9006 24.5096 53.2607 24.5096ZM27.0068 27.498C27.1833 27.6948 27.3648 27.8979 27.54 28.1036C27.9462 28.5797 28.19 29.0837 28.2916 29.6524C28.2941 29.674 28.2979 29.6969 28.3017 29.7172C28.3296 29.8975 28.3449 30.0841 28.3449 30.2796V31.5098C28.3449 33.5385 29.994 35.1889 32.0214 35.1889H32.9749C35.0036 35.1889 36.654 33.5385 36.654 31.5098V30.2796C36.654 29.4366 36.9091 28.7447 37.4576 28.1036C37.6353 27.8954 37.8181 27.691 37.9946 27.493C39.1803 26.1663 40.4067 24.7939 40.4067 21.8981C40.4067 17.5373 36.8596 13.9902 32.4988 13.9902C28.1367 13.9902 24.5871 17.5373 24.5871 21.8981C24.5883 24.7978 25.8185 26.1701 27.0068 27.498ZM32.9749 33.1563H32.0214C31.115 33.1563 30.3787 32.4175 30.3787 31.5098V30.5259H34.6214V31.5098C34.6214 32.4187 33.8826 33.1563 32.9749 33.1563ZM32.5001 16.024C35.7399 16.024 38.3754 18.6596 38.3754 21.8994C38.3754 24.0195 37.5807 24.9082 36.48 26.1396C36.2959 26.3453 36.1055 26.5586 35.9138 26.7833C35.4657 27.3063 35.1343 27.8789 34.9185 28.4934H33.5169V24.2557L34.1111 23.6615C34.5084 23.2642 34.5084 22.6205 34.1111 22.2231C33.7137 21.8258 33.0701 21.8258 32.674 22.2231L32.5001 22.3971L32.3261 22.2231C31.9288 21.8258 31.2851 21.8258 30.8877 22.2231C30.4904 22.6205 30.4904 23.2642 30.8877 23.6603L31.4832 24.2557V28.4934H30.0803C29.8645 27.8802 29.5344 27.3089 29.0863 26.7833C28.8933 26.5586 28.7041 26.3466 28.5201 26.1422C27.4168 24.9107 26.6196 24.0208 26.6196 21.8994C26.6221 18.6596 29.2589 16.024 32.5001 16.024ZM31.4832 11.9476V9.60908C31.4832 9.04795 31.9376 8.59219 32.5001 8.59219C33.0625 8.59219 33.5169 9.04668 33.5169 9.60908V11.9488C33.5169 12.51 33.0625 12.9657 32.5001 12.9657C31.9376 12.9657 31.4832 12.51 31.4832 11.9476ZM38.816 15.5822C38.4186 15.1849 38.4186 14.5412 38.816 14.1451L40.4714 12.4896C40.8688 12.0923 41.5125 12.0923 41.9085 12.4896C42.3059 12.887 42.3059 13.5307 41.9085 13.9268L40.2531 15.5822C40.055 15.7803 39.7948 15.8806 39.5345 15.8806C39.2755 15.8793 39.0153 15.7803 38.816 15.5822ZM42.4506 20.8812H44.7904C45.3515 20.8812 45.8073 21.3357 45.8073 21.8981C45.8073 22.4605 45.3528 22.915 44.7904 22.915H42.4506C41.8895 22.915 41.4337 22.4605 41.4337 21.8981C41.4337 21.3357 41.8895 20.8812 42.4506 20.8812ZM23.089 13.9255C22.6929 13.5281 22.6929 12.8845 23.0903 12.4871C23.4876 12.091 24.1313 12.091 24.5274 12.4884L26.1791 14.1438C26.5751 14.5412 26.5751 15.1849 26.1778 15.5822C25.9797 15.7803 25.7195 15.8793 25.4592 15.8793C25.199 15.8793 24.9387 15.7803 24.7394 15.581L23.089 13.9255ZM19.1903 21.8981C19.1903 21.337 19.6448 20.8812 20.2072 20.8812H22.5469C23.1081 20.8812 23.5638 21.3357 23.5638 21.8981C23.5638 22.4605 23.1093 22.915 22.5469 22.915H20.2072C19.646 22.915 19.1903 22.4593 19.1903 21.8981Z" fill="white"/>
</g>
<defs>
<clipPath id="clip0_13_902">
<rect width="65" height="65" fill="white"/>
</clipPath>
</defs>
</svg>
