<svg width="65" height="65" viewBox="0 0 65 65" fill="none" xmlns="http://www.w3.org/2000/svg">
<path d="M4.0625 21.3281H2.03125V17.2656C2.03276 15.9193 2.56826 14.6285 3.52027 13.6765C4.47227 12.7245 5.76304 12.189 7.10938 12.1875H41.6406V10.1562H39.6094C39.4085 10.1563 39.2121 10.0967 39.0451 9.9851C38.8781 9.8735 38.7479 9.71488 38.671 9.52929C38.5942 9.34371 38.574 9.13949 38.6132 8.94247C38.6524 8.74546 38.7492 8.56449 38.8912 8.42245L44.9849 2.3287C45.0793 2.23439 45.1912 2.15957 45.3145 2.10853C45.4377 2.05748 45.5697 2.03121 45.7031 2.03121C45.8365 2.03121 45.9686 2.05748 46.0918 2.10853C46.215 2.15957 46.327 2.23439 46.4213 2.3287L52.5151 8.42245C52.6571 8.56449 52.7538 8.74546 52.793 8.94247C52.8322 9.13949 52.8121 9.34371 52.7352 9.52929C52.6583 9.71488 52.5282 9.8735 52.3611 9.9851C52.1941 10.0967 51.9978 10.1563 51.7969 10.1562H49.7656V12.1875H53.8281C55.1745 12.189 56.4652 12.7245 57.4172 13.6765C58.3692 14.6285 58.9047 15.9193 58.9062 17.2656V37.5781H56.875V17.2656C56.8741 16.4578 56.5527 15.6834 55.9816 15.1122C55.4104 14.541 54.6359 14.2197 53.8281 14.2187H49.7656V32.5H47.7344V9.14062C47.7344 8.87126 47.8414 8.61294 48.0318 8.42247C48.2223 8.232 48.4806 8.125 48.75 8.125H49.345L45.7031 4.48309L42.0612 8.125H42.6562C42.9256 8.125 43.1839 8.232 43.3744 8.42247C43.5649 8.61294 43.6719 8.87126 43.6719 9.14062V33.5156H41.6406V14.2187H7.10938C6.30158 14.2197 5.52714 14.541 4.95595 15.1122C4.38475 15.6834 4.06344 16.4578 4.0625 17.2656V21.3281ZM7.10938 52.8125H24.0255L21.588 60.9375H19.2969V62.9688H41.6406V60.9375H39.3495L38.0432 56.583L36.0975 57.167L37.2287 60.9375H23.7082L26.1457 52.8125H33.5156V50.7813H7.10938C6.30158 50.7803 5.52714 50.459 4.95595 49.8878C4.38475 49.3166 4.06344 48.5422 4.0625 47.7344V46.7188H32.5V44.6875H4.0625V23.3594H2.03125V47.7344C2.03276 49.0807 2.56826 50.3715 3.52027 51.3235C4.47227 52.2755 5.76304 52.811 7.10938 52.8125ZM37.5781 35.5469V19.2969H33.5156V42.6563H7.10938V40.625H11.1719V32.5C11.1719 32.2306 11.2789 31.9723 11.4693 31.7818C11.6598 31.5914 11.9181 31.4844 12.1875 31.4844H18.2812C18.5506 31.4844 18.8089 31.5914 18.9994 31.7818C19.1899 31.9723 19.2969 32.2306 19.2969 32.5V40.625H21.3281V25.3906C21.3281 25.1213 21.4351 24.8629 21.6256 24.6725C21.8161 24.482 22.0744 24.375 22.3438 24.375H28.4375C28.7069 24.375 28.9652 24.482 29.1557 24.6725C29.3461 24.8629 29.4531 25.1213 29.4531 25.3906V40.625H31.4844V18.2812C31.4844 18.0119 31.5914 17.7536 31.7818 17.5631C31.9723 17.3726 32.2306 17.2656 32.5 17.2656H38.5938C38.8631 17.2656 39.1214 17.3726 39.3119 17.5631C39.5024 17.7536 39.6094 18.0119 39.6094 18.2812V35.5469H37.5781ZM17.2656 33.5156H13.2031V40.625H17.2656V33.5156ZM27.4219 26.4062H23.3594V40.625H27.4219V26.4062ZM7.10938 16.25V18.2812H9.14062V16.25H7.10938ZM13.2031 16.25H11.1719V18.2812H13.2031V16.25ZM15.2344 16.25V18.2812H17.2656V16.25H15.2344ZM62.0759 57.7679C62.6454 58.3404 62.9662 59.1143 62.9688 59.9219C62.9691 60.3221 62.8906 60.7185 62.7376 61.0883C62.5846 61.4581 62.3602 61.7942 62.0772 62.0772C61.7942 62.3602 61.4581 62.5846 61.0883 62.7376C60.7185 62.8906 60.3221 62.9691 59.9219 62.9688C59.1153 62.9617 58.3429 62.6416 57.7679 62.0759L52.9064 57.2146C50.3493 58.7231 47.3298 59.247 44.4139 58.6883C41.4981 58.1296 38.8861 56.5265 37.0678 54.1796C35.2494 51.8327 34.3495 48.9031 34.5367 45.9401C34.724 42.9771 35.9855 40.1842 38.0848 38.0848C40.1842 35.9855 42.9771 34.724 45.9401 34.5367C48.9031 34.3495 51.8327 35.2494 54.1796 37.0678C56.5265 38.8861 58.1296 41.4981 58.6883 44.4139C59.247 47.3298 58.7231 50.3493 57.2146 52.9064L62.0759 57.7679ZM56.875 46.7188C56.875 44.71 56.2793 42.7464 55.1634 41.0762C54.0474 39.4061 52.4612 38.1043 50.6054 37.3356C48.7496 36.5669 46.7075 36.3658 44.7374 36.7576C42.7672 37.1495 40.9576 38.1168 39.5372 39.5372C38.1168 40.9576 37.1495 42.7672 36.7576 44.7374C36.3658 46.7075 36.5669 48.7496 37.3356 50.6054C38.1043 52.4612 39.4061 54.0474 41.0762 55.1634C42.7464 56.2793 44.71 56.875 46.7188 56.875C49.4114 56.8719 51.9929 55.8009 53.8969 53.8969C55.8009 51.9929 56.8719 49.4114 56.875 46.7188ZM60.6394 59.2043L56.02 54.5846C55.5819 55.1018 55.1018 55.5819 54.5846 56.02L59.2043 60.6394C59.2976 60.7377 59.4096 60.8162 59.5337 60.8705C59.6579 60.9248 59.7916 60.9536 59.9271 60.9554C60.0625 60.9572 60.197 60.9318 60.3225 60.8807C60.448 60.8297 60.562 60.7541 60.6578 60.6583C60.7536 60.5625 60.8292 60.4485 60.8802 60.323C60.9313 60.1975 60.9567 60.063 60.9549 59.9276C60.9531 59.7921 60.9243 59.6584 60.87 59.5343C60.8157 59.4101 60.7372 59.2981 60.6389 59.2048L60.6394 59.2043ZM54.8438 46.7188C54.8438 48.3257 54.3672 49.8966 53.4744 51.2328C52.5817 52.5689 51.3127 53.6103 49.8281 54.2253C48.3434 54.8402 46.7097 55.0011 45.1336 54.6876C43.5575 54.3741 42.1098 53.6003 40.9735 52.464C39.8372 51.3277 39.0634 49.88 38.7499 48.3039C38.4364 46.7278 38.5973 45.0941 39.2122 43.6094C39.8272 42.1248 40.8686 40.8558 42.2047 39.9631C43.5409 39.0703 45.1118 38.5938 46.7188 38.5938C48.8729 38.5962 50.9381 39.453 52.4613 40.9762C53.9845 42.4994 54.8413 44.5646 54.8438 46.7188ZM52.8125 46.7188C52.8125 45.5135 52.4551 44.3354 51.7855 43.3332C51.1159 42.3311 50.1642 41.5501 49.0507 41.0889C47.9372 40.6276 46.712 40.507 45.5299 40.7421C44.3478 40.9772 43.262 41.5576 42.4098 42.4098C41.5576 43.262 40.9772 44.3478 40.7421 45.5299C40.507 46.712 40.6276 47.9372 41.0889 49.0507C41.5501 50.1642 42.3311 51.1159 43.3332 51.7855C44.3354 52.4551 45.5135 52.8125 46.7188 52.8125C48.3344 52.8107 49.8833 52.1681 51.0257 51.0257C52.1681 49.8833 52.8107 48.3344 52.8125 46.7188ZM42.6562 46.7188H44.6875C44.6881 46.1802 44.9023 45.6639 45.2831 45.2831C45.6639 44.9023 46.1802 44.6881 46.7188 44.6875V42.6563C45.6417 42.6575 44.6091 43.0859 43.8475 43.8475C43.0859 44.6091 42.6575 45.6417 42.6562 46.7188ZM55.8594 8.125H57.8906C57.8888 6.50938 57.2463 4.96045 56.1038 3.81803C54.9614 2.67562 53.4125 2.03303 51.7969 2.03125V4.0625C52.8739 4.06371 53.9066 4.49211 54.6682 5.25371C55.4298 6.01532 55.8582 7.04793 55.8594 8.125Z" fill="white"/>
</svg>
