<svg width="65" height="65" viewBox="0 0 65 65" fill="none" xmlns="http://www.w3.org/2000/svg">
<g clip-path="url(#clip0_13_882)">
<path d="M64.1803 49.8041L61.9579 49.4884C61.7859 48.9431 61.5672 48.4147 61.3036 47.9077L62.6525 46.1109C62.9375 45.7312 62.9001 45.1996 62.5644 44.8638L60.1107 42.4081C59.7746 42.0718 59.2423 42.0342 58.8623 42.32L57.068 43.6693C56.5617 43.4059 56.0339 43.1872 55.4897 43.015L55.1742 40.7903C55.1076 40.3198 54.7047 39.9703 54.2297 39.9703H50.7597C50.2845 39.9703 49.8819 40.3199 49.8151 40.7903L49.4995 43.015C48.9553 43.1872 48.4277 43.4059 47.9212 43.6693L46.3658 42.4996C48.7005 39.9331 50.1508 36.7658 50.5681 33.3442H50.9719C51.4988 33.3442 51.926 32.917 51.926 32.3902C51.926 31.8633 51.4989 31.4361 50.9719 31.4361H50.692C50.6925 31.3815 50.694 31.3272 50.694 31.2726C50.694 29.792 50.5003 28.3227 50.118 26.9058C49.9808 26.3971 49.4575 26.096 48.9484 26.2332C48.4397 26.3704 48.1386 26.8941 48.2758 27.4028C48.6143 28.6578 48.7861 29.9597 48.7861 31.2726C48.7861 35.363 47.156 39.1702 44.1962 41.9929C44.1909 41.9981 44.1854 42.0033 44.1802 42.0087C44.0597 42.129 41.2208 44.9917 40.3665 47.9863C40.1779 48.6478 40.0676 49.6379 40.0031 50.5909C39.9944 50.6424 39.9893 50.695 39.9893 50.7487V50.8026C39.9533 51.3906 39.934 51.9535 39.9237 52.4038H37.2178C37.1137 51.0862 36.9423 48.4275 36.9922 45.6812C37.0189 44.207 37.1026 42.9934 37.2213 41.9952C38.461 41.8062 39.8053 41.4771 40.7608 40.9042C42.494 39.8651 42.8606 37.7579 42.1158 36.442C41.5289 35.4052 40.0886 34.5973 37.9614 35.732C36.8737 36.3121 36.1173 37.642 35.6492 39.797C35.6159 39.9501 35.5841 40.1078 35.5536 40.2697C34.9049 40.3236 34.3455 40.3442 33.9925 40.3423C33.6412 40.3437 33.0827 40.3242 32.4345 40.2705C32.404 40.1083 32.3722 39.9505 32.3389 39.7971C31.8708 37.642 31.1146 36.3123 30.0267 35.732C27.8993 34.5974 26.4591 35.4053 25.8722 36.442C25.4857 37.1246 25.3977 37.9926 25.6306 38.8234C25.8747 39.6943 26.4417 40.4332 27.2271 40.9042C28.1827 41.4771 29.5273 41.8063 30.7667 41.9953C30.8854 42.9936 30.9689 44.207 30.9957 45.6813C31.0456 48.4278 30.8742 51.0864 30.7701 52.404H28.0643C28.0363 51.1759 27.9414 49.1085 27.6213 47.9864C26.7719 45.0081 23.9299 42.1314 23.8094 42.0104C23.8037 42.0046 23.7976 41.9988 23.7918 41.993C20.8319 39.1704 19.2019 35.3632 19.2019 31.2727C19.2019 23.1091 25.8376 16.4676 33.994 16.4676C39.3604 16.4676 44.3168 19.3863 46.929 24.0848C47.1852 24.5454 47.7659 24.7112 48.2264 24.455C48.6869 24.1989 48.8527 23.6181 48.5966 23.1575C47.6187 21.3987 46.3483 19.8625 44.8679 18.5924H45.9822C46.509 18.5924 46.9362 18.1652 46.9362 17.6384C46.9362 17.1115 46.509 16.6843 45.9822 16.6843H44.7101C44.1832 16.6843 43.756 17.1114 43.756 17.6384C43.756 17.6657 43.7578 17.6926 43.7601 17.7194C41.2023 15.8747 38.1396 14.7648 34.911 14.587L31.98 14.1706C31.6919 13.1879 31.3 12.2407 30.8094 11.3424L33.0041 8.41902C33.2893 8.03931 33.2517 7.50775 32.9162 7.17196L29.251 3.50378C28.915 3.16748 28.3827 3.1299 28.0027 3.41567L25.0826 5.61133C24.1853 5.12053 23.2393 4.72837 22.2578 4.44019L21.7444 0.820117C21.6775 0.349629 21.2749 0 20.7997 0H15.6165C15.1413 0 14.7387 0.349629 14.672 0.81999L14.1584 4.44019C13.177 4.72837 12.231 5.12053 11.3336 5.61133L8.41356 3.41529C8.03372 3.12965 7.50153 3.1671 7.16523 3.5034L3.5001 7.17158C3.16456 7.5075 3.12698 8.03905 3.41212 8.41864L5.60688 11.3421C5.11634 12.2404 4.72431 13.1875 4.43625 14.1703L0.819736 14.684C0.349502 14.7511 0 15.1538 0 15.6287V20.8163C0 21.2913 0.349502 21.694 0.819863 21.7608L4.43638 22.2746C4.72431 23.2573 5.11634 24.2044 5.60701 25.1027L3.41212 28.0262C3.12711 28.4059 3.16456 28.9374 3.50022 29.2732L7.16536 32.9414C7.50128 33.2776 8.03359 33.3152 8.41369 33.0295L11.3337 30.8336C12.2312 31.3244 13.1771 31.7166 14.1586 32.0048L14.6721 35.6249C14.7389 36.0954 15.1416 36.4449 15.6166 36.4449H18.1026C18.9432 39.046 20.4223 41.4131 22.4649 43.364C22.6107 43.5123 25.0871 46.0572 25.7865 48.5094C26.1035 49.6206 26.1691 52.3848 26.1677 53.3561V53.3569V53.3576V56.55C26.1677 58.6577 27.6697 60.4205 29.6587 60.824C30.0615 62.808 31.818 64.3058 33.9178 64.3058H34.0702C36.17 64.3058 37.9265 62.808 38.3293 60.824C40.3184 60.4205 41.8204 58.6577 41.8204 56.55V55.3097L43.0317 55.4818C43.2037 56.0268 43.4224 56.5553 43.686 57.0625L42.3371 58.8593C42.052 59.239 42.0895 59.7705 42.4251 60.1063L44.8788 62.5621C45.2147 62.8983 45.7471 62.936 46.1271 62.6502L47.9215 61.3008C48.4278 61.5643 48.9554 61.783 49.4998 61.9552L49.8154 64.18C49.8822 64.6505 50.2849 65 50.7599 65H54.2301C54.7052 65 55.1079 64.6504 55.1746 64.18L55.4901 61.9553C56.0343 61.7831 56.5621 61.5644 57.0684 61.301L58.8627 62.6504C59.2427 62.9361 59.775 62.8985 60.111 62.5622L62.5648 60.1065C62.9003 59.7705 62.9379 59.239 62.6529 58.8594L61.304 57.0626C61.5674 56.5556 61.7862 56.0271 61.9583 55.4819L64.1806 55.1662C64.6509 55.0994 65.0004 54.6967 65.0004 54.2217V50.7487C65 50.2736 64.6505 49.8709 64.1803 49.8041ZM38.8592 37.4151C39.0904 37.2917 39.5251 37.0905 39.8984 37.0905C40.1272 37.0905 40.3333 37.1662 40.4551 37.3816C40.7164 37.8432 40.5858 38.7839 39.7795 39.2675C39.2189 39.6037 38.4089 39.8395 37.559 40.0029C38.0132 38.0625 38.6103 37.5479 38.8592 37.4151ZM28.2084 39.2675C27.4021 38.7839 27.2713 37.8432 27.5327 37.3816C27.6547 37.1662 27.8605 37.0905 28.0895 37.0905C28.4629 37.0905 28.8976 37.2917 29.1288 37.4151C29.3777 37.5479 29.9749 38.063 30.4293 40.0039C29.5801 39.8406 28.7701 39.6043 28.2084 39.2675ZM16.4447 34.537L15.9592 31.1134C15.9044 30.7274 15.6202 30.4134 15.2414 30.3207C14.0123 30.02 12.8407 29.5342 11.7594 28.8771C11.4259 28.6744 11.0025 28.6953 10.6906 28.93L7.92911 31.0065L5.43461 28.5101L7.51055 25.7451C7.74452 25.4334 7.76534 25.0107 7.56323 24.6774C6.90663 23.5951 6.42129 22.4226 6.12066 21.192C6.02812 20.8132 5.71429 20.5288 5.3281 20.474L1.90798 19.9881V16.4567L5.32822 15.9707C5.71429 15.9159 6.02824 15.6315 6.12079 15.2527C6.42142 14.0221 6.90676 12.8496 7.56336 11.7674C7.76547 11.4342 7.74465 11.0115 7.51067 10.6997L5.43474 7.93482L7.92924 5.43842L10.6907 7.51499C11.0026 7.7496 11.426 7.77055 11.7595 7.5678C12.8408 6.91069 14.0123 6.4251 15.2415 6.12422C15.6203 6.03154 15.9046 5.71759 15.9593 5.33152L16.4449 1.90798H19.9716L20.4572 5.3314C20.5121 5.71746 20.7962 6.03142 21.175 6.12409C22.4042 6.42497 23.5757 6.91082 24.657 7.5678C24.9906 7.77055 25.4139 7.74947 25.7258 7.51499L28.4871 5.43842L30.9816 7.93482L28.9058 10.6997C28.6717 11.0114 28.6509 11.4342 28.8531 11.7674C29.4624 12.7716 29.9222 13.8543 30.2258 14.9883C28.6496 15.3536 27.1587 15.9435 25.7875 16.7211C25.3508 12.9656 22.1543 10.0405 18.2863 10.0405C15.7521 10.0405 13.3998 11.3024 11.9939 13.4162C11.7022 13.8548 11.8212 14.447 12.26 14.7389C12.6989 15.0306 13.291 14.9115 13.5827 14.4728C14.6339 12.8921 16.3923 11.9484 18.2863 11.9484C21.3995 11.9484 23.9322 14.4837 23.9322 17.5999C23.9322 17.7147 23.928 17.8323 23.9201 17.9518C22.083 19.3468 20.5425 21.1128 19.4104 23.1376C19.0398 23.213 18.6631 23.2512 18.2862 23.2512C15.1731 23.2512 12.6403 20.716 12.6403 17.5998C12.6403 17.0729 12.2133 16.6457 11.6863 16.6457C11.1593 16.6457 10.7322 17.0729 10.7322 17.5998C10.7322 21.768 14.1209 25.1592 18.2861 25.1592C18.3413 25.1592 18.3965 25.1577 18.4516 25.1564C17.7045 27.0514 17.2938 29.1148 17.2938 31.2724C17.2938 32.3828 17.4013 33.4744 17.6094 34.5367H16.4447V34.537ZM43.6858 47.9077C43.4223 48.4148 43.2035 48.9434 43.0315 49.4884L42.004 49.6344C42.0554 49.1894 42.12 48.7948 42.2014 48.5095C42.3594 47.9554 42.6086 47.3969 42.9008 46.862L43.6858 47.9077ZM32.9036 45.6625C32.881 44.3946 32.8156 43.2382 32.7085 42.202C33.4335 42.2491 33.9339 42.251 33.9923 42.2499C34.0514 42.2492 34.5535 42.2491 35.2793 42.2019C35.172 43.2381 35.1067 44.3945 35.0841 45.6624C35.0351 48.4087 35.1947 51.0099 35.3029 52.4036H32.6848C32.7931 51.01 32.9526 48.4089 32.9036 45.6625ZM34.07 62.3978H33.9177C32.9113 62.3978 32.0456 61.7841 31.6738 60.911H36.3138C35.9422 61.7841 35.0765 62.3978 34.07 62.3978ZM39.9122 56.55C39.9122 57.9026 38.813 59.0029 37.4621 59.0029H30.5256C29.1747 59.0029 28.0757 57.9026 28.0757 56.55V54.3117H39.9123L39.9122 56.55ZM63.092 53.3934L61.0732 53.6802C60.687 53.7351 60.3732 54.0194 60.2806 54.3984C60.087 55.1908 59.7745 55.946 59.3516 56.6431C59.1495 56.9763 59.1703 57.3989 59.4043 57.7107L60.6299 59.3431L59.3468 60.6272L57.7171 59.4016C57.405 59.1669 56.9818 59.1459 56.6483 59.3488C55.952 59.7719 55.1976 60.0848 54.4059 60.2785C54.0272 60.3712 53.7429 60.6851 53.6881 61.0712L53.4016 63.092H51.5879L51.3013 61.0711C51.2465 60.685 50.9623 60.371 50.5835 60.2784C49.7916 60.0846 49.0373 59.7718 48.3411 59.3488C48.0077 59.1462 47.5843 59.1671 47.2723 59.4016L45.6424 60.6272L44.3593 59.3431L45.5849 57.7107C45.8189 57.3991 45.8397 56.9763 45.6376 56.6431C45.2147 55.9458 44.9022 55.1907 44.7086 54.3984C44.616 54.0196 44.3022 53.7351 43.916 53.6802L41.8972 53.3934V51.5766L43.916 51.2898C44.3022 51.235 44.616 50.9506 44.7086 50.5717C44.9022 49.7793 45.2147 49.0241 45.6376 48.327C45.8399 47.9937 45.8189 47.5711 45.5849 47.2593L44.3593 45.627L45.6424 44.3428L47.2723 45.5684C47.5843 45.803 48.0076 45.8239 48.3411 45.6212C49.0373 45.1981 49.7918 44.8853 50.5835 44.6916C50.9622 44.5989 51.2464 44.2849 51.3013 43.8989L51.5879 41.878H53.4016L53.6881 43.8989C53.7428 44.2849 54.0271 44.5989 54.4059 44.6916C55.1976 44.8854 55.952 45.1982 56.6483 45.6212C56.9818 45.824 57.405 45.803 57.7171 45.5684L59.3469 44.3428L60.6299 45.627L59.4043 47.2593C59.1703 47.5711 59.1495 47.9937 59.3516 48.327C59.7745 49.024 60.087 49.7792 60.2806 50.5717C60.3732 50.9505 60.687 51.235 61.0732 51.2898L63.092 51.5766V53.3934Z" fill="white"/>
<path d="M52.4948 46.8838C49.4085 46.8838 46.8975 49.3964 46.8975 52.485C46.8975 53.0118 47.3245 53.439 47.8515 53.439C48.3784 53.439 48.8056 53.0118 48.8056 52.485C48.8056 50.4485 50.4607 48.7918 52.4949 48.7918C54.5292 48.7918 56.1842 50.4485 56.1842 52.485C56.1842 54.5214 54.5292 56.1782 52.4949 56.1782C51.5927 56.1782 50.7243 55.8488 50.05 55.2508C49.6556 54.901 49.0527 54.9374 48.7032 55.3316C48.3536 55.7258 48.3898 56.3288 48.7841 56.6783C49.808 57.5863 51.1259 58.0863 52.4951 58.0863C55.5814 58.0863 58.0924 55.5736 58.0924 52.4851C58.0921 49.3964 55.5812 46.8838 52.4948 46.8838Z" fill="white"/>
<path d="M49.1623 18.5923H50.4344C50.9612 18.5923 51.3884 18.1651 51.3884 17.6382C51.3884 17.1114 50.9612 16.6842 50.4344 16.6842H49.1623C48.6355 16.6842 48.2083 17.1113 48.2083 17.6382C48.2083 18.1651 48.6353 18.5923 49.1623 18.5923Z" fill="white"/>
<path d="M57.377 19.5138C57.6918 19.7044 57.9924 19.9238 58.2706 20.1657C58.6899 20.5307 59.3492 20.4515 59.6728 20.0011C59.956 19.6069 59.889 19.0449 59.5232 18.7265C59.1628 18.4128 58.7731 18.1284 58.3649 17.8813C57.9143 17.6085 57.3276 17.7527 57.0547 18.2036C56.7819 18.6545 56.9261 19.241 57.377 19.5138Z" fill="white"/>
<path d="M53.6142 18.5923C54.0168 18.5923 54.4129 18.6085 54.8148 18.6351C55.32 18.6685 55.7765 18.2945 55.8325 17.7887C55.8905 17.265 55.5129 16.7934 54.9894 16.7355C54.5317 16.6847 54.0738 16.6843 53.6142 16.6843C53.0874 16.6843 52.6602 17.1114 52.6602 17.6384C52.6602 18.1651 53.0874 18.5923 53.6142 18.5923Z" fill="white"/>
<path d="M55.2418 31.3282C54.881 31.3951 54.5105 31.4313 54.1406 31.4356C53.6137 31.4418 53.1917 31.874 53.1978 32.4008C53.204 32.9239 53.63 33.3436 54.1515 33.3436H54.1629C54.6418 33.338 55.1217 33.291 55.5896 33.2042C56.1077 33.1081 56.4497 32.6102 56.3536 32.0922C56.2576 31.5741 55.7601 31.2316 55.2418 31.3282Z" fill="white"/>
<path d="M58.6128 29.542C58.3528 29.8038 58.0686 30.0445 57.7684 30.2575C57.3776 30.5348 57.253 31.0781 57.4857 31.4976C57.7577 31.9877 58.4144 32.1387 58.8725 31.8137C59.2616 31.5377 59.6296 31.2258 59.9663 30.8868C60.3377 30.5131 60.3356 29.9089 59.9619 29.5377C59.5881 29.1662 58.9841 29.1681 58.6128 29.542Z" fill="white"/>
<path d="M60.6558 28.4499C61.1445 28.6289 61.701 28.3705 61.8799 27.8825C62.0443 27.4339 62.1705 26.9678 62.2551 26.497C62.3483 25.9784 62.0033 25.4825 61.4847 25.3894C60.9666 25.2963 60.4702 25.6411 60.3771 26.1596C60.3119 26.5219 60.2148 26.8807 60.0882 27.2257C59.9071 27.7206 60.1611 28.2685 60.6558 28.4499Z" fill="white"/>
<path d="M59.9116 22.3699C60.0633 22.7053 60.1865 23.0562 60.2779 23.4126C60.4108 23.9308 60.9616 24.2408 61.4742 24.0901C61.9595 23.9473 62.2514 23.4278 62.1262 22.9388C62.0075 22.4757 61.8473 22.0198 61.6502 21.5838C61.4333 21.1038 60.8682 20.8904 60.3879 21.1075C59.9078 21.3247 59.6945 21.8898 59.9116 22.3699Z" fill="white"/>
<path d="M4.50295 39.359C4.01063 39.1719 3.45939 39.4192 3.27214 39.9116C3.10228 40.3583 2.9705 40.8228 2.88011 41.2924C2.7807 41.8097 3.11941 42.3099 3.63688 42.4093C3.69769 42.421 3.75824 42.4267 3.81804 42.4267C4.26631 42.4267 4.66608 42.1092 4.75381 41.6526C4.82325 41.2911 4.92481 40.9336 5.05545 40.59C5.24283 40.0974 4.9954 39.5463 4.50295 39.359Z" fill="white"/>
<path d="M7.67434 48.3338C7.36178 48.1395 7.0637 47.9166 6.78834 47.671C6.39516 47.3205 5.79201 47.355 5.44136 47.7483C5.09072 48.1416 5.12538 48.7447 5.51868 49.0953C5.87542 49.4132 6.26161 49.7021 6.66672 49.9541C7.14381 50.2508 7.79012 50.0603 8.03184 49.5544C8.23865 49.1217 8.08123 48.5869 7.67434 48.3338Z" fill="white"/>
<path d="M15.8663 49.2958H14.5942C14.0673 49.2958 13.6401 49.723 13.6401 50.2498C13.6401 50.7767 14.0673 51.2039 14.5942 51.2039H15.8663C16.3931 51.2039 16.8203 50.7767 16.8203 50.2498C16.8203 49.723 16.3932 49.2958 15.8663 49.2958Z" fill="white"/>
<path d="M20.3184 49.2958H19.0463C18.5195 49.2958 18.0923 49.723 18.0923 50.2498C18.0923 50.7767 18.5195 51.2039 19.0463 51.2039H20.3184C20.8453 51.2039 21.2725 50.7767 21.2725 50.2498C21.2725 49.723 20.8453 49.2958 20.3184 49.2958Z" fill="white"/>
<path d="M24.7706 49.2958H23.4985C22.9716 49.2958 22.5444 49.723 22.5444 50.2498C22.5444 50.7767 22.9716 51.2039 23.4985 51.2039H24.7706C25.2974 51.2039 25.7246 50.7767 25.7246 50.2498C25.7246 49.723 25.2975 49.2958 24.7706 49.2958Z" fill="white"/>
<path d="M5.17398 45.4477C5.02646 45.1103 4.90751 44.758 4.82042 44.4005C4.69575 43.8886 4.17956 43.5746 3.66768 43.6993C3.15581 43.824 2.84185 44.34 2.96652 44.852C3.07963 45.3164 3.23426 45.7742 3.42596 46.2125C3.64521 46.7139 4.2622 46.9292 4.74653 46.6733C5.18223 46.443 5.37139 45.8989 5.17398 45.4477Z" fill="white"/>
<path d="M11.4144 49.2958C11.0288 49.2958 10.6452 49.2946 10.2617 49.2473C9.73835 49.183 9.26253 49.5546 9.19816 50.0775C9.1338 50.6005 9.50539 51.0765 10.0284 51.141C10.4895 51.1978 10.9509 51.2038 11.4145 51.2038C11.9414 51.2038 12.3686 50.7766 12.3686 50.2497C12.3684 49.723 11.9412 49.2958 11.4144 49.2958Z" fill="white"/>
<path d="M5.89047 38.5652C6.13181 38.5652 6.3734 38.4742 6.55914 38.2915C6.82218 38.033 7.1091 37.7956 7.41201 37.5862C7.8453 37.2865 7.95372 36.6924 7.65398 36.259C7.35424 35.8258 6.76023 35.7171 6.32668 36.017C5.93427 36.2884 5.56243 36.5959 5.22168 36.9308C4.62627 37.5159 5.05207 38.5652 5.89047 38.5652Z" fill="white"/>
<path d="M9.95144 36.5463C10.3128 36.4837 10.6838 36.4519 11.054 36.4519C11.5809 36.4519 12.0081 36.0249 12.0081 35.4979C12.0081 34.971 11.5809 34.5438 11.054 34.5438C10.575 34.5438 10.0945 34.585 9.62593 34.6661C9.12066 34.7535 8.76722 35.2442 8.84593 35.7511C8.9268 36.2718 9.4317 36.636 9.95144 36.5463Z" fill="white"/>
</g>
<defs>
<clipPath id="clip0_13_882">
<rect width="65" height="65" fill="white"/>
</clipPath>
</defs>
</svg>
