<svg width="104" height="100" viewBox="0 0 104 100" fill="none" xmlns="http://www.w3.org/2000/svg">
<path d="M4.81641 4.28125H98.8142V95.7155H4.81641V4.28125Z" fill="#2E001E"/>
<path d="M0.542969 0.0117188V99.9912H103.086V0.0117188H0.542969ZM4.8156 4.28435H98.8134V95.7186H4.8156V4.28435Z" fill="#FF2BC2"/>
<path d="M75.0163 42.0095C74.3754 41.7104 73.5636 41.5822 72.5381 41.5822C67.1546 41.5822 63.5656 45.7267 63.5656 52.6056C63.5656 60.4673 67.2401 63.629 72.0254 63.629C73.0509 63.629 74.1617 63.5008 74.9735 63.159V42.0095H75.0163ZM55.8749 52.9474C55.8749 42.9922 62.2838 35.216 72.7945 35.216C73.6918 35.216 74.1618 35.216 75.0163 35.3015V24.1926C75.0163 23.9363 75.2299 23.7654 75.4435 23.7654H82.3225C82.6643 23.7654 82.7497 23.8936 82.7497 24.1072V63.159C82.7497 64.3126 82.7497 65.7653 82.9634 67.3462C82.9634 67.6453 82.9634 67.688 82.707 67.8162C79.118 69.5252 75.3581 70.2943 71.7691 70.2943C62.4975 70.2943 55.8749 64.569 55.8749 52.9474ZM41.3052 46.0258L53.2686 69.2261C53.4822 69.568 53.3541 69.9098 53.0122 69.9098H45.5779C45.1079 69.9098 44.8942 69.7816 44.6806 69.3543C41.9461 63.7145 39.1689 57.861 36.3063 51.7938H36.2208C33.6572 57.5191 30.8373 63.7572 28.1028 69.397C27.8892 69.7389 27.6756 69.867 27.3337 69.867H20.2412C19.8139 69.867 19.7712 69.5252 19.9848 69.2689L31.6918 46.7521L20.3694 24.3636C20.113 24.0217 20.3694 23.7227 20.6684 23.7227H28.0174C28.4446 23.7227 28.6583 23.8081 28.7864 24.1926C31.4782 29.8752 34.2127 35.4724 36.7763 41.1977H36.8617C39.3398 35.5578 42.0743 29.8752 44.6806 24.2781C44.8942 23.9363 45.0224 23.7227 45.4497 23.7227H52.3286C52.6704 23.7227 52.7986 23.979 52.585 24.3636L41.3052 46.0258Z" fill="#FF2BC2"/>
</svg>
