<svg width="101" height="100" viewBox="0 0 101 100" fill="none" xmlns="http://www.w3.org/2000/svg">
<path d="M50.3359 100C77.9502 100 100.336 77.6142 100.336 50C100.336 22.3858 77.9502 0 50.3359 0C22.7217 0 0.335938 22.3858 0.335938 50C0.335938 77.6142 22.7217 100 50.3359 100Z" fill="#23BEC7"/>
<path d="M51.5003 50.8436C52.9626 49.5591 54.1496 48.3491 55.7152 47.6896C56.6327 47.3054 57.6478 46.7606 58.5194 47.6036C59.3911 48.4466 58.8406 49.3698 58.5768 50.2759C58.0492 52.0938 57.5159 53.9174 57.0342 55.7467C56.8908 56.28 56.6499 56.8936 57.1947 57.3696C57.7395 57.8456 58.4219 57.5302 58.961 57.2549C60.9566 56.2342 62.5795 55.0242 62.3272 52.3404C62.1781 50.7347 62.3272 49.0258 63.8125 47.8788C64.3859 47.4258 65.0798 46.8982 65.8081 47.4029C66.5364 47.9075 66.0145 48.5498 65.8081 49.1233C65.1035 51.2859 64.9073 53.5819 65.2346 55.8327C65.3092 56.3374 65.2346 57.0657 65.6991 57.2492C66.3357 57.49 66.6224 56.6757 67.0296 56.3431C67.4367 56.0105 67.712 55.5403 68.0675 55.1503C69.008 54.1238 69.5241 53.3038 68.274 51.8988C66.8231 50.2759 67.2589 47.0989 68.6869 45.5907C69.079 45.1191 69.6092 44.7824 70.2029 44.6281C70.7965 44.4738 71.4236 44.5096 71.9957 44.7306C73.2401 45.1836 73.6473 46.256 73.6817 47.5118C73.7161 48.9225 73.1082 50.1612 72.6323 51.5261C74.02 51.8759 74.8802 51.096 75.6601 50.253C77.5411 48.2115 79.7202 46.9154 82.6105 47.2194C84.7036 47.4373 85.9021 48.567 85.7932 50.2128C85.752 50.5773 85.624 50.9266 85.4199 51.2314C85.2159 51.5362 84.9417 51.7876 84.6204 51.9646C84.2991 52.1415 83.94 52.2388 83.5733 52.2483C83.2067 52.2578 82.843 52.1793 82.513 52.0192C81.8592 51.6694 81.9395 51.3483 82.513 51.0157C82.7329 50.9204 82.9094 50.7465 83.008 50.5281C83.1066 50.3097 83.1203 50.0623 83.0463 49.8343C82.956 49.5616 82.7858 49.3222 82.5577 49.1474C82.3297 48.9725 82.0544 48.8702 81.7675 48.8537C80.9778 48.7363 80.1727 48.9161 79.5081 49.3584C77.4092 50.7003 76.2336 54.4278 77.2142 56.6987C77.7877 58.0635 78.8543 58.3216 79.9611 57.3524C80.5718 56.7673 81.0321 56.0433 81.303 55.2421C81.4648 54.7428 81.6945 54.2682 81.9854 53.8314C82.5073 53.1375 83.2298 52.5239 84.1359 52.8966C85.042 53.2694 84.5774 54.2098 84.4283 54.8464C83.895 57.0542 83.442 59.2047 85.3115 61.0627C85.3608 61.1078 85.4003 61.1628 85.4273 61.224C85.4542 61.2852 85.4682 61.3513 85.4682 61.4182C85.4682 61.4851 85.4542 61.5513 85.4273 61.6125C85.4003 61.6737 85.3608 61.7287 85.3115 61.7738C85.1984 61.8847 85.053 61.9567 84.8963 61.9794C84.7395 62.002 84.5797 61.9742 84.4398 61.9C83.7915 61.6725 83.1943 61.3194 82.6826 60.8608C82.1709 60.4023 81.7547 59.8473 81.4578 59.2276C81.2686 58.8147 81.1883 58.2126 80.5174 58.8033C79.9385 59.3965 79.165 59.7608 78.339 59.8293C77.513 59.8978 76.69 59.6658 76.0214 59.176C74.3928 58.1323 73.8079 56.5668 73.957 54.6916C73.9856 54.3245 74.0315 53.969 74.0774 53.5446C72.2022 53.6995 70.6768 54.1181 69.6044 55.8385C68.6743 57.2601 67.4077 58.4301 65.9171 59.2448C63.9616 60.3917 63.1988 60.0362 62.6713 57.8857C62.5967 57.5875 62.5336 57.3123 62.4189 56.7388C61.1487 57.8763 59.6943 58.7897 58.118 59.4398C55.1532 60.495 53.4328 59.1359 53.8687 55.999C54.1375 54.388 54.5817 52.8112 55.1933 51.2967C55.331 50.9239 55.6636 50.4652 55.1933 50.1497C54.8493 49.9318 54.488 50.2988 54.2185 50.5282C52.3891 52.0823 50.7777 53.8027 50.2501 56.2628C50.1276 56.9882 49.9197 57.6966 49.6308 58.3732C49.4566 58.8255 49.1363 59.2067 48.7207 59.456C48.3051 59.7054 47.818 59.8087 47.3369 59.7495C46.3047 59.566 46.9699 58.5108 46.6832 57.8628C45.5822 58.4363 44.527 59.0097 43.4374 59.5086C42.6518 59.8699 41.6253 60.1566 41.0518 59.4799C40.0941 58.333 39.4461 58.7287 38.4368 59.371C36.963 60.3115 35.2713 59.91 33.9352 58.356C33.2585 57.5703 32.9087 57.6219 32.2549 58.3216C30.9312 59.6872 29.3584 60.787 27.6214 61.5616C20.8029 64.8017 14.0992 61.1659 13.7207 53.6536C13.2734 45.1721 16.8805 38.4225 23.9684 33.7144C24.8841 33.0784 25.9295 32.6534 27.0292 32.47C28.1289 32.2865 29.2555 32.3492 30.3281 32.6535C31.5863 32.9825 32.6919 33.7368 33.4571 34.7884C34.2223 35.84 34.5999 37.1241 34.5258 38.4225C34.4423 39.6681 33.9643 40.8548 33.1611 41.8106C32.3579 42.7664 31.2712 43.4416 30.0586 43.7385C29.6514 43.8302 29.1238 43.9908 28.9117 43.6066C28.5905 43.0905 29.1009 42.7406 29.4507 42.4596C31.3661 40.8425 31.6929 38.7379 31.3317 36.4268C30.9876 34.2706 29.4507 33.399 27.4035 34.1846C25.934 34.7945 24.6378 35.7577 23.6301 36.9888C20.2434 40.731 18.1259 45.4476 17.5801 50.4652C17.3041 52.6313 17.6899 54.8304 18.6869 56.7732C20.1435 59.5545 22.6151 60.7874 25.6659 60.0649C28.08 59.4615 30.2954 58.2401 32.0944 56.5209C32.3464 56.2573 32.5433 55.946 32.6733 55.6053C32.8033 55.2645 32.8638 54.9012 32.8513 54.5367C33.27 50.1784 37.0376 46.9097 41.2468 47.2308C42.2621 47.2624 43.2293 47.6713 43.9593 48.3778C44.3062 48.7022 44.5438 49.1264 44.6394 49.5918C44.7349 50.0571 44.6836 50.5406 44.4926 50.9755C44.0854 51.9619 43.1794 52.283 42.1529 52.2314C41.9382 52.2547 41.7211 52.2245 41.521 52.1434C41.3208 52.0624 41.1439 51.933 41.0059 51.7669C40.6275 51.1934 41.35 51.1533 41.5794 50.8666C42.2217 50.0637 41.8604 49.1061 40.7593 48.8824C40.2146 48.7601 39.647 48.7848 39.115 48.9541C38.5829 49.1234 38.1054 49.4312 37.7315 49.8458C36.9518 50.6376 36.3707 51.6027 36.0358 52.6623C35.7009 53.7218 35.6217 54.8456 35.8047 55.9417C35.9193 56.7904 36.2806 57.6219 37.2154 57.8743C38.1501 58.1266 38.758 57.427 39.3314 56.7732C39.756 56.2308 40.0626 55.6058 40.2318 54.9381C40.369 54.3107 40.7097 53.7462 41.2009 53.3325C41.7744 52.8909 42.4052 52.5296 43.0819 52.9253C43.7585 53.321 43.3457 53.9862 43.3457 54.5367C43.3457 55.546 42.2561 56.7216 43.6037 57.4958C44.3263 57.9087 47.2395 55.7123 47.4688 54.6801C47.8301 53.0343 48.1226 51.3712 48.4495 49.7197C48.4897 49.1375 48.7102 48.5823 49.0803 48.1312C49.3588 47.8135 49.7277 47.5884 50.1376 47.486C50.5474 47.3835 50.9788 47.4085 51.3741 47.5577C52.24 47.919 51.8099 48.7046 51.7239 49.3698C51.678 49.7655 51.6092 50.167 51.5003 50.8436ZM70.8717 47.0244C70.7226 46.623 70.4818 46.233 69.9886 46.2846C69.4954 46.3362 69.3521 46.7893 69.3119 47.2136C69.2488 47.842 69.3348 48.4765 69.563 49.0654C69.7912 49.6542 70.1551 50.181 70.6252 50.6028C71.1667 49.4867 71.2551 48.2042 70.8717 47.0244Z" fill="white"/>
</svg>
