<svg width="104" height="100" viewBox="0 0 104 100" fill="none" xmlns="http://www.w3.org/2000/svg">
<path d="M18.9555 0.0117188H85.1813C95.222 0.0117188 103.34 8.12971 103.34 18.1704V81.8325C103.34 91.8732 95.222 99.9912 85.1813 99.9912H18.9555C8.91487 99.9912 0.796875 91.8732 0.796875 81.8325V18.1704C0.796875 8.12971 8.91487 0.0117188 18.9555 0.0117188Z" fill="#00005B"/>
<path d="M25.1523 70.0821V26.074C25.1523 25.7749 25.2805 25.604 25.5796 25.604C26.306 25.604 26.9896 25.604 27.9723 25.5613C28.9977 25.5186 30.0659 25.5186 31.2195 25.4758C32.3731 25.4331 33.6121 25.4331 34.9367 25.3904C36.2612 25.3477 37.543 25.3477 38.8248 25.3477C42.3283 25.3477 45.2337 25.7749 47.6264 26.6722C49.7627 27.3985 51.7281 28.5949 53.3517 30.1757C54.7189 31.543 55.7871 33.2093 56.4707 35.0465C57.1116 36.841 57.4534 38.6783 57.4534 40.6009C57.4534 44.2754 56.5989 47.309 54.8898 49.7016C53.1808 52.0943 50.7881 53.8888 48.0109 54.9142C45.1055 55.9824 41.901 56.3669 38.3975 56.3669C37.3721 56.3669 36.6884 56.3669 36.2612 56.3242C35.8339 56.2815 35.2357 56.2815 34.4239 56.2815V69.9966C34.4667 70.2957 34.253 70.5521 33.954 70.5948H25.6651C25.3232 70.5948 25.1523 70.4239 25.1523 70.0393V70.0821ZM34.4667 33.8929V48.2489C35.0648 48.2917 35.6203 48.3344 36.133 48.3344H38.3975C40.0638 48.3344 41.7301 48.078 43.311 47.5653C44.6783 47.1808 45.8746 46.369 46.8146 45.3008C47.7118 44.2327 48.1391 42.78 48.1391 40.9C48.1818 39.5755 47.84 38.251 47.1564 37.0974C46.43 35.9865 45.4046 35.132 44.1655 34.662C42.5847 34.0211 40.8756 33.7647 39.1238 33.8075C38.013 33.8075 37.0303 33.8075 36.2185 33.8502C35.3639 33.8075 34.7658 33.8502 34.4667 33.8929ZM63.606 36.4138H71.0831C71.5104 36.4138 71.8522 36.7128 71.9804 37.0974C72.1085 37.4392 72.194 37.781 72.2367 38.1655C72.3222 38.5928 72.4076 39.0628 72.4503 39.4901C72.4931 39.96 72.5358 40.4728 72.5358 41.0282C73.8176 39.5328 75.3557 38.2937 77.1075 37.3537C79.0729 36.2429 81.3374 35.6874 83.6019 35.6874C83.901 35.6447 84.1573 35.8583 84.2001 36.1574V44.6599C84.2001 45.0017 83.9864 45.1299 83.5164 45.1299C81.9783 45.0872 80.3974 45.2154 78.902 45.5572C77.6629 45.8135 76.4666 46.1981 75.313 46.7108C74.5012 47.0953 73.7321 47.608 73.134 48.2917V70.0821C73.134 70.5093 72.9631 70.6802 72.5785 70.6802H64.1614C63.8196 70.723 63.5205 70.5093 63.4778 70.1675V46.3263C63.4778 45.3008 63.4778 44.2327 63.4351 43.1218C63.3924 42.0109 63.3924 40.9 63.3496 39.7891C63.3496 38.8064 63.2642 37.8665 63.1787 36.8838C63.136 36.6701 63.2642 36.4565 63.4778 36.4138C63.4778 36.371 63.5633 36.371 63.606 36.4138Z" fill="#9999FF"/>
</svg>
