<svg width="100" height="100" viewBox="0 0 100 100" fill="none" xmlns="http://www.w3.org/2000/svg">
<g clip-path="url(#clip0_53_1638)">
<path d="M50.0684 27.3467C37.4834 27.3467 27.2793 37.5508 27.2793 50.1358C27.2793 62.7208 37.4834 72.9249 50.0684 72.9249C62.6534 72.9249 72.8575 62.7208 72.8575 50.1358C72.7895 37.5508 62.5854 27.3467 50.0684 27.3467Z" fill="#3880FF"/>
<path d="M82.7207 29.3876C88.4689 29.3876 93.1288 24.7277 93.1288 18.9795C93.1288 13.2312 88.4689 8.57129 82.7207 8.57129C76.9724 8.57129 72.3125 13.2312 72.3125 18.9795C72.3125 24.7277 76.9724 29.3876 82.7207 29.3876Z" fill="#3880FF"/>
<path d="M95.5102 29.3878L95.102 28.4354L94.4218 29.2517C92.7211 31.1565 90.5442 32.6531 88.1633 33.5374L87.483 33.8095L87.7551 34.4898C89.8639 39.4558 90.8844 44.7619 90.8844 50.136C90.8844 72.6531 72.585 91.0204 50 91.0204C27.415 91.0204 9.18367 72.6531 9.18367 50.136C9.18367 27.619 27.483 9.25169 50.068 9.25169C56.1905 9.25169 62.0408 10.6122 67.551 13.1973L68.1633 13.4694L68.4354 12.7891C69.4558 10.4082 71.0204 8.36734 73.0612 6.73469L73.8776 6.05442L72.9252 5.57823C65.7823 1.90476 58.0952 0 50 0C22.449 0 0 22.449 0 50C0 77.551 22.449 100 50 100C77.551 100 100 77.551 100 50C100 42.9252 98.5034 35.9864 95.5102 29.3878Z" fill="#3880FF"/>
</g>
<defs>
<clipPath id="clip0_53_1638">
<rect width="100" height="100" fill="white"/>
</clipPath>
</defs>
</svg>
