<svg width="277" height="100" viewBox="0 0 277 100" fill="none" xmlns="http://www.w3.org/2000/svg">
<g clip-path="url(#clip0_53_1602)">
<path d="M107.968 32.6098C104.858 32.6098 102.72 30.1763 102.72 27.0615C102.72 24.0438 104.955 21.6103 108.066 21.6103C111.272 21.6103 113.314 24.0438 113.314 27.0615C113.314 30.4686 111.079 32.6098 107.968 32.6098ZM112.051 95.0071H103.982V41.9546H112.051V95.0071ZM128.379 21.8044C132.655 21.0255 138.292 20.3444 145.195 20.3444C169.105 20.3444 171.049 35.7245 171.049 41.5652C171.049 58.9889 157.15 65.2196 144.028 65.2196C141.21 65.2196 138.682 65.1226 136.447 64.5385V95.0078H128.379V21.8044ZM136.446 57.8219C138.486 58.4054 141.112 58.6008 144.222 58.6008C155.886 58.6008 162.981 52.7614 162.981 42.1494C162.981 31.5392 155.4 26.8668 145.292 26.8668C141.209 26.8668 138.197 27.2562 136.447 27.6457L136.446 57.8219ZM218.189 82.3529C218.189 86.7329 218.285 91.3076 218.966 95.0071H211.579L210.802 88.1929H210.51C207.788 92.3789 202.346 96.1754 194.861 96.1754C184.753 96.1754 179.407 88.7764 179.407 81.0869C179.407 68.3337 190.487 61.4225 210.121 61.5201C210.121 57.0424 210.121 46.9188 198.068 46.9188C193.501 46.9188 188.738 48.1841 185.141 50.716L183.197 45.167C187.473 42.3441 193.402 40.6893 199.331 40.6893C214.299 40.6893 218.187 51.3001 218.187 61.8132L218.189 82.3529ZM210.219 67.4591C200.207 67.4591 187.669 68.9191 187.669 80.1134C187.669 86.9276 191.945 89.9447 196.806 89.9447C204.679 89.9447 210.219 83.9099 210.219 77.4845L210.219 67.4591ZM276.508 81.8658C276.508 86.1488 276.702 91.4053 276.896 95.0078H269.703L269.314 85.954H269.023C266.301 91.5023 260.275 96.176 251.721 96.176C239.474 96.176 229.95 85.5653 229.95 69.2115C229.95 51.3001 240.447 40.7877 252.791 40.7877C260.566 40.7877 265.814 44.5842 268.245 48.9648H268.44V17.1326H276.507L276.508 81.8658ZM268.44 63.1761C268.44 52.5654 260.955 47.3095 254.152 47.3095C244.139 47.3095 238.211 56.6537 238.211 68.8221C238.211 80.0163 243.46 89.5565 253.86 89.5565C262.607 89.5565 268.44 81.867 268.44 73.3975V63.1761ZM68.697 53.0831C68.5598 40.4276 79.0039 34.3341 79.4744 34.0392C73.5846 25.4515 64.4364 24.2864 61.1774 24.1485C53.3883 23.3703 45.9893 28.7546 42.0415 28.7597C38.0956 28.7654 31.9906 24.3069 25.5365 24.4377C17.0458 24.5712 9.23187 29.3917 4.86525 36.9937C-3.92608 52.3088 2.66406 74.9635 11.2709 87.363C15.4786 93.4245 20.4925 100.25 27.0705 99.993C33.404 99.7383 35.7929 95.8887 43.4428 95.8792C51.0959 95.8689 53.2562 99.9591 59.9517 99.8232C66.7665 99.6936 71.0757 93.6212 75.2361 87.5251C80.0502 80.4715 82.0235 73.6464 82.1416 73.2947C81.9948 73.227 68.8515 68.2092 68.697 53.0831ZM56.1251 15.965C59.6191 11.7356 61.9677 5.85791 61.3255 0C56.2981 0.204286 50.2085 3.35157 46.5977 7.57583C43.3636 11.3187 40.5304 17.3011 41.2959 23.0422C46.9003 23.4763 52.6312 20.1899 56.1251 15.965Z" fill="black"/>
</g>
<defs>
<clipPath id="clip0_53_1602">
<rect width="276.243" height="100" fill="white" transform="translate(0.679688)"/>
</clipPath>
</defs>
</svg>
