<svg width="113" height="100" viewBox="0 0 113 100" fill="none" xmlns="http://www.w3.org/2000/svg">
<path d="M33.2909 0.390625C30.2792 0.397159 27.3311 2.10686 25.8153 4.71477L2.23482 45.6763C0.742039 48.2911 0.742039 51.7092 2.23482 54.3241L25.8153 95.2861C27.3311 97.894 30.2792 99.6041 33.2909 99.6102H80.4518C83.4635 99.6037 86.4116 97.894 87.9275 95.2861L111.508 54.3241C113.001 51.7092 113 48.2911 111.508 45.6763L87.9275 4.71477C86.4116 2.10643 83.4635 0.396723 80.4518 0.390625L33.2909 0.390625ZM33.7191 24.354C33.784 24.3474 33.852 24.3474 33.9169 24.354H42.0512C42.2319 24.3598 42.4082 24.4113 42.5637 24.5036C42.7193 24.5959 42.8489 24.726 42.9406 24.8819L56.7398 49.472C56.8095 49.594 56.8539 49.729 56.8705 49.8684C56.8879 49.729 56.9323 49.594 57.002 49.472L70.7681 24.8819C70.863 24.7216 70.9978 24.5887 71.1595 24.4961C71.3211 24.4036 71.504 24.3546 71.6903 24.354H79.825C80.545 24.36 81.0847 25.2674 80.7471 25.9051L67.2773 50.0004L80.7471 74.0626C81.1165 74.7038 80.5642 75.653 79.825 75.6469H71.6903C71.5008 75.6429 71.3157 75.5889 71.1537 75.4904C70.9918 75.3918 70.8588 75.2523 70.7681 75.0858L57.002 50.4952C56.9323 50.3737 56.8879 50.2382 56.8709 50.0993C56.854 50.2388 56.8094 50.3736 56.7398 50.4957L42.9402 75.0858C42.8525 75.2476 42.7247 75.3841 42.5691 75.4823C42.4135 75.5806 42.2353 75.6372 42.0516 75.6469H33.9164C33.1772 75.6534 32.6249 74.7038 32.9943 74.0626L46.4642 50.0004L32.9943 25.9051C32.6715 25.3231 33.0657 24.4781 33.7191 24.354Z" fill="#3498DB"/>
</svg>
