<svg width="100" height="100" viewBox="0 0 100 100" fill="none" xmlns="http://www.w3.org/2000/svg">
<g clip-path="url(#clip0_18_1553)">
<path d="M22.5 19.0625C22.5 19.0625 21.6666 25.7291 24.375 25.5209C27.0834 25.3127 26.875 22.8125 26.875 22.8125C26.875 22.8125 25.2084 18.4375 22.5 19.0625Z" fill="#E8EAE8"/>
<path d="M85 24.8959L87.5 39.6875L95.625 39.2709L98.3334 39.0625L95.625 22.8125L85 24.8959Z" fill="#E8EAE8"/>
<path d="M86.0416 30.9375L86.25 32.1875C86.25 32.1875 86.6666 32.1875 87.0834 32.1875C87.5002 32.1875 87.9168 31.7709 88.125 31.7709L88.75 31.1459C88.75 31.1459 89.5834 31.9793 88.75 32.6043C87.9166 33.4377 87.0834 33.4377 87.0834 33.4377C87.0834 33.4377 86.875 34.2711 86.25 34.4793L86.4584 35.9377C86.4584 35.9377 85.8334 36.7711 84.5834 36.9793C83.3334 37.1877 82.0834 38.2293 82.0834 38.2293L82.7084 34.2709C82.7084 34.2709 83.5418 34.0625 83.9584 33.4375C84.5834 33.0209 85.4166 31.1459 86.0416 30.9375Z" fill="#FFD15C"/>
<path d="M2.7084 36.9791L13.9584 36.1457C14.5834 36.1457 15 35.5207 15 34.8957L12.7084 14.0625C12.7084 13.4375 12.0834 13.0209 11.4584 13.0209L1.0416 13.4375C0.416602 13.4375 0 14.0625 0 14.6875L1.6666 35.9375C1.6666 36.5625 2.0834 36.9791 2.7084 36.9791Z" fill="#344A5E"/>
<path d="M22.9166 25.7291C22.9166 25.3125 20.8332 25.5207 20 25.7291C19.1666 25.7291 18.5416 26.1457 18.75 26.5625C18.75 26.9791 19.375 27.1875 20.2084 26.9791C20.8334 26.7709 22.9166 25.9375 22.9166 25.7291Z" fill="#F5B54C"/>
<path d="M18.75 28.8541H17.5V27.3957H18.75C19.1666 27.3957 19.5834 26.9791 19.5834 26.5623V21.3539C19.5834 20.9373 19.1668 20.7289 18.75 20.7289H17.0834V19.0625H18.75C20 19.0625 21.0416 20.1041 21.0416 21.3541V26.5625C21.0416 27.8125 20 28.8541 18.75 28.8541Z" fill="#F05640"/>
<path d="M24.375 20.5209C24.375 20.5209 24.1666 20.5209 23.5416 20.3125C22.7082 20.1041 20.625 20.3125 20 20.5209C19.375 20.7293 18.75 21.1459 18.75 21.1459C18.75 21.1459 18.125 21.7709 18.9584 22.1875C18.9584 22.1875 17.9168 23.0209 18.9584 23.6459C18.9584 23.6459 18.125 24.0625 18.9584 24.8959C18.9584 24.8959 18.3334 25.9375 19.1668 26.3543C20.0002 26.7709 21.4584 26.3543 21.8752 26.1459C22.2918 25.9375 23.5418 25.3125 24.7918 24.8959C25.8334 24.4793 25.8334 24.2709 25.8334 24.2709L24.375 20.5209Z" fill="#FFD15C"/>
<path d="M18.9584 22.1875C19.1668 22.1875 19.375 21.9791 19.375 21.9791C19.5834 21.9791 19.5834 21.9791 19.7916 21.9791H20C20 21.9791 20 21.9791 19.7916 21.9791C19.7916 21.9791 19.5832 21.9791 19.375 21.9791C19.375 22.1875 19.1666 22.1875 18.9584 22.1875Z" fill="#F5B54C"/>
<path d="M18.9584 23.6459C19.1668 23.6459 19.1668 23.4375 19.1668 23.4375C19.1668 23.6459 19.1666 23.6459 18.9584 23.6459Z" fill="#F5B54C"/>
<path d="M19.1666 24.8959C19.375 24.8959 19.375 24.8959 19.375 24.6875C19.375 24.8959 19.1666 24.8959 19.1666 24.8959Z" fill="#F5B54C"/>
<path d="M64.375 37.1875C64.375 37.1875 68.3334 41.9791 69.1666 42.3959C70 42.8125 72.2916 42.3959 73.75 42.1875C75.2084 41.7709 81.6666 39.8959 83.75 39.8959C83.75 39.8959 83.9584 37.6043 83.75 36.1459C83.3334 34.6875 83.5416 34.0625 83.5416 34.0625C83.5416 34.0625 76.6666 35.1041 75.2082 35.7291C73.5416 36.1457 72.2916 36.3541 72.2916 36.3541C72.2916 36.3541 71.0416 36.3541 70.2082 34.8957C69.1666 33.0207 68.7498 31.7707 68.7498 31.7707L64.375 37.1875Z" fill="#67C5B8"/>
<path d="M51.875 15.9375L50.2084 14.8959C50.2084 14.8959 48.3334 15.7293 47.2918 16.1459C46.4584 16.5625 43.7502 16.7709 41.0418 16.3543C38.125 15.9375 22.5 18.8541 22.5 18.8541C22.5 18.8541 24.7916 20.7291 24.7916 22.8125C24.5832 24.8959 24.375 25.5209 23.9582 25.7291C23.9582 25.7291 28.9582 25.1041 30.4166 24.8957C31.6666 24.6873 38.5416 24.0623 40.4166 24.0623C42.2916 24.0623 47.0832 25.1039 47.7082 25.5207C48.3332 25.9373 49.3748 25.9373 49.3748 25.9373C49.3748 25.9373 56.875 17.6041 51.875 15.9375Z" fill="#67C5B8"/>
<path d="M16.6666 78.4375C16.6666 78.4375 20.625 77.3959 22.5 77.8125C24.375 78.2291 24.5834 78.2291 24.5834 78.2291L22.5 73.4375C22.5 73.4375 18.9584 72.1875 18.125 71.7709C17.2916 71.1459 17.2916 71.1459 17.2916 71.1459C17.2916 71.1459 11.875 75.1041 16.6666 78.4375Z" fill="#CED6E0"/>
<path d="M15.4166 70.7291L14.7916 70.3125L13.3332 69.8959L11.4584 73.4375L11.875 74.2709C11.875 74.2709 10 76.3543 9.1666 79.4793C8.125 82.6043 8.3332 85.7293 8.5416 86.1459C8.75 86.5625 9.1666 86.5625 9.1666 86.5625L15.4166 70.7291Z" fill="#344A5E"/>
<path d="M91.0416 81.9791L90 80.9375C90 80.9375 88.9584 80.9375 88.125 80.7291C87.2916 80.5209 83.75 76.5625 83.75 76.5625L81.875 80.9375C81.875 80.9375 83.9584 84.2709 84.375 84.8959C84.5834 85.5209 85.625 85.7293 85.625 85.7293C85.625 85.7293 91.0416 83.8541 91.0416 81.9791Z" fill="#CED6E0"/>
<path d="M86.0416 88.8541L86.6666 89.8957L90.8332 87.3957L90.625 86.5625C90.625 86.5625 95.2084 84.4791 97.0834 83.0209C98.9584 81.5625 100 79.2709 100 79.2709L99.5834 78.8543L96.25 81.3543C96.4584 81.3541 86.4584 86.9791 86.0416 88.8541Z" fill="#344A5E"/>
<path d="M41.25 47.3959C41.25 47.3959 45.625 48.0209 48.9584 49.0625C52.2918 50.1041 54.375 51.3541 54.375 51.3541C54.375 51.3541 54.7916 52.3957 55.625 52.3957C56.4584 52.3957 61.4584 53.2291 67.5 55.5207C73.5416 58.0207 74.5834 59.2707 75 60.1041C75.4166 60.9375 76.0416 63.0207 78.125 64.6875C80.2084 66.3541 80.8334 68.6459 82.9166 69.8959C85 71.1459 88.125 73.6459 88.125 73.6459C88.125 73.6459 83.5416 80.7293 81.875 81.3543C81.875 81.3543 77.0834 75.9377 76.25 75.1043C75.4166 74.2709 70 66.7709 69.375 65.7293C68.9584 65.1043 67.7084 64.8959 66.875 64.6877C66.0416 64.4793 50.8334 62.3961 50.8334 62.3961C50.8334 62.3961 49.1668 68.2295 48.3334 74.2711C47.5 80.3127 47.0834 82.3961 45 83.2295C43.125 84.2711 39.375 83.4379 37.9166 83.0211C36.4582 82.6045 21.4582 78.4377 21.4582 78.4377C21.4582 78.4377 20.8332 73.2293 21.4582 72.3961L27.0832 73.2295C27.0832 73.2295 37.4998 73.8545 38.7498 74.6879C38.7498 74.6879 38.3332 67.6045 38.7498 64.8963C39.1664 62.1879 38.9582 60.5213 38.9582 60.5213C38.9582 60.5213 35.6248 54.8963 38.3332 48.2297" fill="#425A6B"/>
<path d="M68.3334 24.6875C68.3334 24.6875 71.4584 27.3959 71.4584 28.2291C71.4584 28.8541 70.4168 32.1875 70 33.2291C69.5834 34.2707 67.0834 38.2291 66.875 39.2707C66.6666 40.3123 66.6666 40.9373 67.5 41.7707C68.3334 42.3957 71.4584 44.4791 71.4584 44.4791C71.0418 45.7291 69.375 46.5625 67.7084 47.6041L59.375 42.1875L68.3334 24.6875Z" fill="#48B9A5"/>
<path d="M68.3334 46.9791C68.3334 46.9791 66.875 47.1875 66.0418 44.6875C65.2084 42.1875 64.5834 39.0625 66.0418 36.7709C67.5002 34.4793 70.8334 30.3125 70.6252 29.4793C70.4168 28.4377 67.5002 25.3127 67.5002 25.3127H64.5836L55.625 48.0209C55.625 48.0209 60.4166 48.6459 62.2916 48.2293C63.9584 47.8125 66.25 48.0209 68.3334 46.9791Z" fill="#CED6E0"/>
<path d="M65 26.1459C65 26.1459 66.0416 29.4793 65 32.3959C64.1666 35.1043 58.9584 42.3959 58.125 43.6459C57.2916 44.8959 54.375 50.1043 54.1666 51.3543L42.2916 48.2293L51.4584 35.9375L60.4168 22.3959L63.9584 25.9375L65 26.1459Z" fill="#E8EAE8"/>
<path d="M58.125 19.2709C58.125 19.2709 57.0834 17.8125 54.7916 16.9793C52.5 15.9375 50.2084 15.3125 50.2084 15.3125C50.2084 15.3125 52.5 16.3541 52.0834 18.6459C51.6668 20.9375 49.7918 24.8959 47.7084 25.7293C47.7084 25.7293 43.125 35.1043 40 39.2709C36.875 43.4375 35.2084 48.6459 33.9584 49.6875C33.9584 49.6875 41.0418 50.1041 45 48.0209C48.9584 45.9375 57.0834 38.0209 57.7084 35.1043C58.5418 32.1877 58.5418 31.9793 58.5418 31.9793C58.5418 31.9793 60 21.1459 58.125 19.2709Z" fill="#48B9A5"/>
<path d="M71.6666 21.7709C71.25 22.1875 70.8332 21.9793 70.8332 21.9793C70.8332 21.9793 70.6248 22.1877 70.6248 22.3959C70.6248 22.6041 70.4164 23.0209 70.2082 23.0209C70.2082 23.0209 70.6248 23.2293 70.2082 23.6459C70 24.0625 69.375 24.6875 69.375 25.3125C69.375 25.9375 68.75 26.7709 68.125 26.5625C67.2916 26.3541 66.0416 25.9375 65.4166 25.9375C65.2082 25.9375 65.2082 25.9375 65 25.9375L63.9584 25.7291L62.5 24.2709L59.375 19.0625L60.4166 18.8541C60.4166 18.8541 65.8332 7.1875 71.4582 14.0625V15.3125L71.6666 18.0209C71.6666 18.0209 71.0416 18.6459 71.25 19.2709C71.4584 20.1041 72.0834 21.3541 71.6666 21.7709Z" fill="#FFD15C"/>
<path d="M64.5834 27.1875C64.5834 27.1875 64.7918 29.0625 64.7918 29.4791C64.7918 29.6875 65.0002 31.9791 65.0002 33.8541C65.2086 35.5207 65.0002 37.1875 64.5836 38.8541C64.167 40.5207 63.542 42.1875 62.7086 43.6457C61.8752 45.1041 60.8336 46.7707 60.2086 47.8123C59.5836 48.8539 58.7502 49.8957 57.917 50.7289L57.7086 50.9373C57.7086 50.9373 55.6252 50.5207 55.6252 49.4789C55.6252 49.4789 57.0836 48.2289 57.7086 46.9789C58.3336 45.7289 60.6252 42.8123 61.042 41.7705C61.4586 40.7289 63.1254 38.6455 63.3336 35.3121C63.542 32.1871 63.3336 27.1871 63.3336 27.1871C63.3336 27.1871 63.9584 26.1459 64.5834 27.1875Z" fill="#F26F5A"/>
<path d="M62.0834 25.1041C62.0834 25.1041 62.5 26.5625 63.125 27.1875C63.125 27.1875 64.375 26.7709 64.5834 27.1875L65 26.3541L63.9584 25.9375L62.0834 25.1041Z" fill="#F05640"/>
<path d="M60.8334 19.4791C60.8334 19.4791 63.3334 21.9791 63.75 23.2291C64.1666 24.4791 64.1666 26.1457 64.1666 26.1457L61.875 25.9375L58.75 21.1459C58.5416 20.9375 58.75 20.9375 60.8334 19.4791Z" fill="#F3F3F3"/>
<path d="M58.125 20.1041C58.125 20.1041 62.7084 19.8957 63.5416 19.4791C63.5416 19.4791 63.75 16.7707 64.7916 16.3541C66.0416 15.9375 65.2082 18.4375 65.2082 18.4375H66.0416C66.0416 18.4375 67.0832 17.1875 67.0832 15.9375C67.0832 15.9375 68.3332 15.7291 67.9166 14.4791C67.5 13.2291 68.9582 12.8125 69.7916 13.2291C70.4166 13.8541 71.4582 15.7291 71.4582 15.7291C71.4582 15.7291 72.4998 14.2707 72.4998 13.2291C72.2914 11.5625 68.7498 10.1041 65.8332 10.1041C63.1248 10.1041 60.6248 11.7707 59.9998 13.0207C59.375 14.2709 57.9166 17.6041 58.125 20.1041Z" fill="#425A6B"/>
<path d="M65.625 17.6041C65.8334 16.3541 65.4166 15.5207 64.7916 15.5207C64.1666 15.5207 63.5416 16.3541 63.3332 17.6041C63.1248 18.8541 63.5416 19.6875 64.1666 19.6875C64.7916 19.6875 65.4166 18.8541 65.625 17.6041Z" fill="#FFD15C"/>
<path d="M57.9166 18.6459C58.3332 18.8543 58.75 19.0625 59.1666 19.2709C60 19.8959 61.25 21.1459 61.25 21.9793C61.4584 23.2293 60 28.4377 59.5834 29.4793C59.1666 30.5209 57.5 35.3125 57.5 35.3125C57.5 35.3125 57.5 28.0209 57.7084 26.5625C57.9168 25.1041 58.125 19.4791 57.9166 18.6459Z" fill="#67C5B8"/>
<path d="M68.5416 65.1041C68.3332 64.8957 52.5 60.3125 53.75 58.6457C54.1666 58.0207 57.0834 55.5207 57.7084 54.8957C58.3334 54.2707 54.7918 57.1873 53.75 58.4373C52.7084 59.6873 53.125 58.8539 54.7916 56.1457C56.4582 53.4373 55.8332 54.0623 55.8332 54.0623C55.8332 54.0623 53.5416 57.3957 52.9166 58.6457C52.2916 59.8957 51.25 62.3957 51.25 62.3957C51.25 62.3957 66.4584 64.4791 67.2916 64.6873C67.5 64.8959 68.125 64.8959 68.5416 65.1041Z" fill="#344A5E"/>
<path d="M84.5834 84.8959C84.5834 84.8959 88.75 84.6875 89.5834 80.7293C89.5834 80.7293 93.75 80.7293 94.375 80.7293C95 80.7293 96.6666 80.3127 97.0834 79.8959C97.5 79.2709 98.9584 77.8125 99.7918 78.8543C99.7918 78.8543 98.3334 81.3543 96.8752 82.3959C95.4168 83.4375 90.4168 85.7293 89.7918 86.1459C89.1668 86.5625 86.0418 88.6459 86.0418 88.6459C86.0418 88.6459 84.1666 86.5625 84.5834 84.8959Z" fill="#425A6B"/>
<path d="M18.125 71.7709C18.125 71.7709 16.0416 73.4375 16.0416 75.1043C16.0416 76.7711 17.2916 78.6459 17.2916 78.6459C17.2916 78.6459 14.1666 80.1043 13.3332 80.9375C12.4998 81.7707 11.0416 83.4375 10.8332 84.6875C10.6248 85.7291 10.2082 86.7709 9.1666 86.3541C9.1666 86.3541 8.5416 83.6457 9.1666 81.3541C9.7916 79.0625 11.0416 76.1457 11.875 75.1041C12.9166 74.0625 14.1666 70.5207 14.7916 70.1041C14.7916 70.1041 17.5 70.1041 18.125 71.7709Z" fill="#425A6B"/>
<path d="M16.875 12.6041L18.3334 35.7291C18.3334 35.7291 17.7084 37.3957 10.625 36.5625L9.375 12.6041C9.375 12.6041 16.875 11.9791 16.875 12.6041Z" fill="#425A6B"/>
</g>
<defs>
<clipPath id="clip0_18_1553">
<rect width="100" height="100" fill="white"/>
</clipPath>
</defs>
</svg>
