<svg width="100" height="100" viewBox="0 0 100 100" fill="none" xmlns="http://www.w3.org/2000/svg">
<g clip-path="url(#clip0_18_1472)">
<path d="M97.9157 83.1298H67.1357C66.5475 83.1298 66.0704 82.6529 66.0704 82.0645V77.1363C66.0704 76.5478 66.5473 76.071 67.1357 76.071H97.9157C98.5039 76.071 98.981 76.5478 98.981 77.1363V82.0645C98.981 82.6527 98.5041 83.1298 97.9157 83.1298Z" fill="url(#paint0_linear_18_1472)"/>
<path d="M94.0084 83.1298H71.043C70.5322 83.1298 70.1179 82.7157 70.1179 82.2047V76.9961C70.1179 76.4851 70.532 76.071 71.043 76.071H94.0084C94.5192 76.071 94.9335 76.4851 94.9335 76.9961V82.2047C94.9335 82.7155 94.5194 83.1298 94.0084 83.1298Z" fill="url(#paint1_linear_18_1472)"/>
<path d="M86.4798 83.1298H78.5716C78.2635 83.1298 78.0137 82.88 78.0137 82.572V76.6288C78.0137 76.3208 78.2635 76.071 78.5716 76.071H86.4798C86.7879 76.071 87.0377 76.3208 87.0377 76.6288V82.572C87.0377 82.88 86.7879 83.1298 86.4798 83.1298Z" fill="url(#paint2_linear_18_1472)"/>
<path d="M68.0647 76.9298C67.4765 76.9298 66.9994 77.4067 66.9994 77.9951V82.9233C66.9994 82.9918 67.0065 83.0584 67.0188 83.1231C67.0573 83.1273 67.0963 83.1298 67.1359 83.1298H97.9157C98.5039 83.1298 98.981 82.6529 98.981 82.0645V77.1363C98.981 77.0678 98.9739 77.0012 98.9616 76.9365C98.9232 76.9324 98.8841 76.9298 98.8445 76.9298H68.0647Z" fill="url(#paint3_linear_18_1472)"/>
<path d="M97.9157 76.071H67.1357C66.5475 76.071 66.0704 75.5941 66.0704 75.0057V70.0775C66.0704 69.489 66.5473 69.0122 67.1357 69.0122H97.9157C98.5039 69.0122 98.981 69.489 98.981 70.0775V75.0057C98.981 75.5939 98.5041 76.071 97.9157 76.071Z" fill="url(#paint4_linear_18_1472)"/>
<path d="M94.0084 76.071H71.043C70.5322 76.071 70.1179 75.6569 70.1179 75.1459V69.9373C70.1179 69.4265 70.532 69.0122 71.043 69.0122H94.0084C94.5192 69.0122 94.9335 69.4263 94.9335 69.9373V75.1461C94.9335 75.6569 94.5194 76.071 94.0084 76.071Z" fill="url(#paint5_linear_18_1472)"/>
<path d="M86.4798 76.071H78.5716C78.2635 76.071 78.0137 75.8212 78.0137 75.5131V69.57C78.0137 69.262 78.2635 69.0122 78.5716 69.0122H86.4798C86.7879 69.0122 87.0377 69.262 87.0377 69.57V75.5131C87.0377 75.8212 86.7879 76.071 86.4798 76.071Z" fill="url(#paint6_linear_18_1472)"/>
<path d="M68.0647 69.871C67.4765 69.871 66.9994 70.3478 66.9994 70.9363V75.8645C66.9994 75.9329 67.0065 75.9994 67.0188 76.0643C67.0573 76.0686 67.0963 76.071 67.1359 76.071H97.9157C98.5039 76.071 98.981 75.5941 98.981 75.0057V70.0775C98.981 70.009 98.9739 69.9426 98.9616 69.8777C98.9232 69.8733 98.8841 69.871 98.8445 69.871H68.0647Z" fill="url(#paint7_linear_18_1472)"/>
<path d="M97.9157 69.0122H67.1357C66.5475 69.0122 66.0704 68.5353 66.0704 67.9469V63.0186C66.0704 62.4302 66.5473 61.9533 67.1357 61.9533H97.9157C98.5039 61.9533 98.981 62.4302 98.981 63.0186V67.9469C98.981 68.5353 98.5041 69.0122 97.9157 69.0122Z" fill="url(#paint8_linear_18_1472)"/>
<path d="M94.0084 69.0122H71.043C70.5322 69.0122 70.1179 68.598 70.1179 68.0871V62.8784C70.1179 62.3676 70.532 61.9533 71.043 61.9533H94.0084C94.5192 61.9533 94.9335 62.3675 94.9335 62.8784V68.0871C94.9335 68.598 94.5194 69.0122 94.0084 69.0122Z" fill="url(#paint9_linear_18_1472)"/>
<path d="M86.4798 69.0122H78.5716C78.2635 69.0122 78.0137 68.7624 78.0137 68.4543V62.5112C78.0137 62.2031 78.2635 61.9533 78.5716 61.9533H86.4798C86.7879 61.9533 87.0377 62.2031 87.0377 62.5112V68.4543C87.0377 68.7624 86.7879 69.0122 86.4798 69.0122Z" fill="url(#paint10_linear_18_1472)"/>
<path d="M68.0647 62.8122C67.4765 62.8122 66.9994 63.289 66.9994 63.8775V68.8057C66.9994 68.8741 67.0065 68.9408 67.0188 69.0055C67.0573 69.0096 67.0963 69.0122 67.1359 69.0122H97.9157C98.5039 69.0122 98.981 68.5353 98.981 67.9469V63.0186C98.981 62.9502 98.9739 62.8835 98.9616 62.8188C98.9232 62.8147 98.8841 62.8122 98.8445 62.8122H68.0647Z" fill="url(#paint11_linear_18_1472)"/>
<path d="M97.9157 61.9533H67.1357C66.5475 61.9533 66.0704 61.4765 66.0704 60.888V55.9598C66.0704 55.3714 66.5473 54.8945 67.1357 54.8945H97.9157C98.5039 54.8945 98.981 55.3714 98.981 55.9598V60.888C98.981 61.4765 98.5041 61.9533 97.9157 61.9533Z" fill="url(#paint12_linear_18_1472)"/>
<path d="M94.0084 61.9533H71.043C70.5322 61.9533 70.1179 61.5392 70.1179 61.0282V55.8196C70.1179 55.3088 70.532 54.8945 71.043 54.8945H94.0084C94.5192 54.8945 94.9335 55.3086 94.9335 55.8196V61.0284C94.9335 61.5392 94.5194 61.9533 94.0084 61.9533Z" fill="url(#paint13_linear_18_1472)"/>
<path d="M86.4798 61.9533H78.5716C78.2635 61.9533 78.0137 61.7035 78.0137 61.3955V55.4524C78.0137 55.1443 78.2635 54.8945 78.5716 54.8945H86.4798C86.7879 54.8945 87.0377 55.1443 87.0377 55.4524V61.3955C87.0377 61.7035 86.7879 61.9533 86.4798 61.9533Z" fill="url(#paint14_linear_18_1472)"/>
<path d="M68.0647 55.7533C67.4765 55.7533 66.9994 56.2302 66.9994 56.8186V61.7469C66.9994 61.8153 67.0065 61.882 67.0188 61.9467C67.0573 61.951 67.0963 61.9533 67.1359 61.9533H97.9157C98.5039 61.9533 98.981 61.4765 98.981 60.888V55.9598C98.981 55.8914 98.9739 55.8249 98.9616 55.76C98.9232 55.7557 98.8841 55.7533 98.8445 55.7533H68.0647Z" fill="url(#paint15_linear_18_1472)"/>
<path d="M97.9157 54.8945H67.1357C66.5475 54.8945 66.0704 54.4176 66.0704 53.8292V48.901C66.0704 48.3125 66.5473 47.8357 67.1357 47.8357H97.9157C98.5039 47.8357 98.981 48.3125 98.981 48.901V53.8292C98.981 54.4176 98.5041 54.8945 97.9157 54.8945Z" fill="url(#paint16_linear_18_1472)"/>
<path d="M94.0084 54.8945H71.043C70.5322 54.8945 70.1179 54.4804 70.1179 53.9694V48.7608C70.1179 48.2498 70.532 47.8357 71.043 47.8357H94.0084C94.5192 47.8357 94.9335 48.2498 94.9335 48.7608V53.9694C94.9335 54.4804 94.5194 54.8945 94.0084 54.8945Z" fill="url(#paint17_linear_18_1472)"/>
<path d="M86.4798 54.8945H78.5716C78.2635 54.8945 78.0137 54.6447 78.0137 54.3367V48.3935C78.0137 48.0855 78.2635 47.8357 78.5716 47.8357H86.4798C86.7879 47.8357 87.0377 48.0855 87.0377 48.3935V54.3367C87.0377 54.6449 86.7879 54.8945 86.4798 54.8945Z" fill="url(#paint18_linear_18_1472)"/>
<path d="M68.0647 48.6945C67.4765 48.6945 66.9994 49.1714 66.9994 49.7598V54.688C66.9994 54.7565 67.0065 54.8231 67.0188 54.8878C67.0573 54.892 67.0963 54.8945 67.1359 54.8945H97.9157C98.5039 54.8945 98.981 54.4176 98.981 53.8292V48.901C98.981 48.8325 98.9739 48.7659 98.9616 48.7012C98.9232 48.6971 98.8841 48.6945 98.8445 48.6945H68.0647Z" fill="url(#paint19_linear_18_1472)"/>
<path d="M97.9157 47.8357H67.1357C66.5475 47.8357 66.0704 47.3588 66.0704 46.7704V41.8422C66.0704 41.2537 66.5473 40.7769 67.1357 40.7769H97.9157C98.5039 40.7769 98.981 41.2537 98.981 41.8422V46.7704C98.981 47.3588 98.5041 47.8357 97.9157 47.8357Z" fill="url(#paint20_linear_18_1472)"/>
<path d="M94.0084 47.8357H71.043C70.5322 47.8357 70.1179 47.4216 70.1179 46.9106V41.702C70.1179 41.1912 70.532 40.7769 71.043 40.7769H94.0084C94.5192 40.7769 94.9335 41.191 94.9335 41.702V46.9106C94.9335 47.4216 94.5194 47.8357 94.0084 47.8357Z" fill="url(#paint21_linear_18_1472)"/>
<path d="M86.4798 47.8357H78.5716C78.2635 47.8357 78.0137 47.5859 78.0137 47.2778V41.3347C78.0137 41.0267 78.2635 40.7769 78.5716 40.7769H86.4798C86.7879 40.7769 87.0377 41.0267 87.0377 41.3347V47.2778C87.0377 47.5861 86.7879 47.8357 86.4798 47.8357Z" fill="url(#paint22_linear_18_1472)"/>
<path d="M68.0647 41.6357C67.4765 41.6357 66.9994 42.1125 66.9994 42.701V47.6292C66.9994 47.6976 67.0065 47.7641 67.0188 47.829C67.0573 47.8331 67.0963 47.8357 67.1359 47.8357H97.9157C98.5039 47.8357 98.981 47.3588 98.981 46.7704V41.8422C98.981 41.7737 98.9739 41.7073 98.9616 41.6424C98.9232 41.6382 98.8841 41.6357 98.8445 41.6357H68.0647Z" fill="url(#paint23_linear_18_1472)"/>
<path d="M97.9157 40.7771H67.1357C66.5475 40.7771 66.0704 40.3002 66.0704 39.7118V34.7835C66.0704 34.1951 66.5473 33.7182 67.1357 33.7182H97.9157C98.5039 33.7182 98.981 34.1951 98.981 34.7835V39.7118C98.981 40.3 98.5041 40.7771 97.9157 40.7771Z" fill="url(#paint24_linear_18_1472)"/>
<path d="M94.0084 40.7771H71.043C70.5322 40.7771 70.1179 40.3629 70.1179 39.852V34.6431C70.1179 34.1324 70.532 33.718 71.043 33.718H94.0084C94.5192 33.718 94.9335 34.1322 94.9335 34.6431V39.8518C94.9335 40.3627 94.5194 40.7771 94.0084 40.7771Z" fill="url(#paint25_linear_18_1472)"/>
<path d="M86.4798 40.7771H78.5716C78.2635 40.7771 78.0137 40.5273 78.0137 40.2192V34.2761C78.0137 33.968 78.2635 33.7182 78.5716 33.7182H86.4798C86.7879 33.7182 87.0377 33.968 87.0377 34.2761V40.2192C87.0377 40.5273 86.7879 40.7771 86.4798 40.7771Z" fill="url(#paint26_linear_18_1472)"/>
<path d="M68.0647 34.5769C67.4765 34.5769 66.9994 35.0537 66.9994 35.6422V40.5704C66.9994 40.6388 67.0065 40.7055 67.0188 40.7702C67.0573 40.7743 67.0963 40.7769 67.1359 40.7769H97.9157C98.5039 40.7769 98.981 40.3 98.981 39.7116V34.7833C98.981 34.7149 98.9739 34.6482 98.9616 34.5835C98.9232 34.5794 98.8841 34.5769 98.8445 34.5769H68.0647Z" fill="url(#paint27_linear_18_1472)"/>
<path d="M97.9157 33.7182H67.1357C66.5475 33.7182 66.0704 33.2414 66.0704 32.6529V27.7247C66.0704 27.1363 66.5473 26.6594 67.1357 26.6594H97.9157C98.5039 26.6594 98.981 27.1363 98.981 27.7247V32.6529C98.981 33.2412 98.5041 33.7182 97.9157 33.7182Z" fill="url(#paint28_linear_18_1472)"/>
<path d="M94.0084 33.7182H71.043C70.5322 33.7182 70.1179 33.3041 70.1179 32.7931V27.5845C70.1179 27.0737 70.532 26.6594 71.043 26.6594H94.0084C94.5192 26.6594 94.9335 27.0735 94.9335 27.5845V32.7931C94.9335 33.3041 94.5194 33.7182 94.0084 33.7182Z" fill="url(#paint29_linear_18_1472)"/>
<path d="M86.4798 33.7182H78.5716C78.2635 33.7182 78.0137 33.4684 78.0137 33.1604V27.2173C78.0137 26.9092 78.2635 26.6594 78.5716 26.6594H86.4798C86.7879 26.6594 87.0377 26.9092 87.0377 27.2173V33.1604C87.0377 33.4684 86.7879 33.7182 86.4798 33.7182Z" fill="url(#paint30_linear_18_1472)"/>
<path d="M68.0647 27.5182C67.4765 27.5182 66.9994 27.9951 66.9994 28.5835V33.5118C66.9994 33.5802 67.0065 33.6467 67.0188 33.7116C67.0573 33.7157 67.0963 33.7182 67.1359 33.7182H97.9157C98.5039 33.7182 98.981 33.2414 98.981 32.6529V27.7247C98.981 27.6563 98.9739 27.5896 98.9616 27.5249C98.9232 27.5208 98.8841 27.5182 98.8445 27.5182H68.0647Z" fill="url(#paint31_linear_18_1472)"/>
<path d="M81.9006 52.4849L79.072 37.6508C76.9621 26.5861 67.2874 18.5818 56.0233 18.5818H45.4108C34.1467 18.5818 24.472 26.5861 22.3621 37.6508L20.7584 46.0612C19.2172 54.1435 16.7537 62.0506 13.0694 69.4077C11.9921 71.5586 11.4265 74.01 11.5325 76.6033C11.839 84.1063 18.4423 90.5624 25.9502 90.7092C26.0053 90.7102 26.0602 90.711 26.1151 90.7116C29.5214 90.741 32.801 92.0684 35.1898 94.4969C37.8596 97.211 41.5733 98.8943 45.6818 98.8943C50.6678 98.8943 55.0737 96.4155 57.7372 92.6235C58.5947 91.4028 60.001 90.709 61.4929 90.712H61.5188C62.1598 90.712 62.7896 90.6645 63.4051 90.5731C64.5659 90.4012 65.7402 90.6975 66.6984 91.3751C69.29 93.2082 72.499 94.2259 75.9535 94.051C83.3465 93.6769 89.3771 87.7588 89.8794 80.3735C90.0602 77.7163 89.5345 75.1977 88.4722 72.9855C85.3541 66.4926 83.2496 59.56 81.9006 52.4849Z" fill="url(#paint32_radial_18_1472)"/>
<path d="M26.2451 90.7118C34.3776 90.7118 40.9704 84.119 40.9704 75.9865C40.9704 67.8539 34.3776 61.2612 26.2451 61.2612C18.1125 61.2612 11.5198 67.8539 11.5198 75.9865C11.5198 84.119 18.1125 90.7118 26.2451 90.7118Z" fill="url(#paint33_linear_18_1472)"/>
<path d="M45.6818 98.8941C53.8143 98.8941 60.4071 92.3014 60.4071 84.1688C60.4071 76.0363 53.8143 69.4435 45.6818 69.4435C37.5492 69.4435 30.9565 76.0363 30.9565 84.1688C30.9565 92.3014 37.5492 98.8941 45.6818 98.8941Z" fill="url(#paint34_linear_18_1472)"/>
<path d="M75.189 94.0704C83.3216 94.0704 89.9143 87.4777 89.9143 79.3451C89.9143 71.2125 83.3216 64.6198 75.189 64.6198C67.0565 64.6198 60.4637 71.2125 60.4637 79.3451C60.4637 87.4777 67.0565 94.0704 75.189 94.0704Z" fill="url(#paint35_linear_18_1472)"/>
<path d="M89.8792 80.3735C90.06 77.7163 89.5343 75.1977 88.472 72.9855C85.3539 66.4926 83.2496 59.56 81.9006 52.4847L79.072 37.6506C78.3065 33.6357 76.541 30.0273 74.069 27.0543C69.9776 23.6667 64.7404 21.6633 59.1051 21.6633H48.4924C37.2284 21.6633 27.5535 29.6676 25.4437 40.7324L23.84 49.1427C22.2988 57.2251 19.8353 65.1322 16.151 72.489C15.0737 74.64 14.508 77.0914 14.6139 79.6847C14.7345 82.6367 15.8327 85.4243 17.5743 87.7316C19.971 89.5367 22.8847 90.6488 25.95 90.7088C26.0051 90.7098 26.06 90.7106 26.1149 90.7112C29.5212 90.7406 32.801 92.068 35.1898 94.4965C37.8596 97.2106 41.5733 98.8939 45.6818 98.8939C50.6678 98.8939 55.0737 96.4151 57.7373 92.6231C58.5947 91.4024 60.001 90.7086 61.4929 90.7116H61.5188C62.1598 90.7116 62.7896 90.6641 63.4051 90.5727C64.5659 90.4008 65.7402 90.6971 66.6984 91.3747C69.29 93.2078 72.499 94.2255 75.9535 94.0506C83.3463 93.6769 89.3771 87.7588 89.8792 80.3735Z" fill="url(#paint36_linear_18_1472)"/>
<path d="M59.2724 35.9159C58.2063 35.5861 57.1933 35.3486 56.2339 35.2022C55.7712 35.1314 55.3037 35.0741 54.8326 35.029C54.8286 35.0269 54.8249 35.0247 54.8212 35.0225L52.6626 32.7869C52.2363 32.5086 51.7739 32.3686 51.2767 32.3686C50.7077 32.3686 50.228 32.5012 49.8375 32.7643C49.4461 33.0282 49.2512 33.3416 49.2512 33.7029V35.0871C46.1596 35.5218 43.6096 36.6637 41.6024 38.5118C39.5941 40.3598 38.5908 42.8959 38.5908 46.1208C38.5908 47.4359 38.8216 48.6353 39.2835 49.7188C39.7451 50.8031 40.2782 51.691 40.8829 52.3839L49.2514 60.76V65.7363C47.8655 65.488 46.3547 64.7859 44.7208 63.6308C43.0857 62.4765 41.9306 61.8984 41.2559 61.8984C40.2965 61.8984 39.4522 62.3965 38.7239 63.391C37.9953 64.3863 37.6314 65.3816 37.6314 66.3761C37.6314 67.6722 38.2673 68.8694 39.5369 69.9684L60.4047 90.8363C60.7577 90.7537 61.1228 90.7112 61.4933 90.712H61.5192C62.1602 90.712 62.79 90.6645 63.4055 90.5731C64.5663 90.4012 65.7406 90.6974 66.6988 91.3751C69.2904 93.2082 72.4994 94.2259 75.9539 94.051C83.3469 93.6769 89.3775 87.7588 89.8798 80.3735C90.0606 77.7163 89.5349 75.1976 88.4726 72.9855C86.3026 68.4667 84.6247 63.7345 83.3494 58.8898L61.8575 37.3984C61.1994 36.7396 60.3384 36.2457 59.2724 35.9159Z" fill="url(#paint37_linear_18_1472)"/>
<path d="M63.1369 57.6878C62.6918 56.551 62.159 55.6088 61.5377 54.8627C60.9153 54.1165 60.0892 53.4061 59.0588 52.7306C58.0279 52.0559 57.1043 51.5406 56.2871 51.1849C55.4694 50.83 54.4749 50.4212 53.3024 49.9588V42.1765C54.5814 42.2831 55.8159 42.6386 57.0069 43.2425C58.1971 43.8473 59.0408 44.1488 59.5388 44.1488C60.569 44.1488 61.3778 43.6431 61.9641 42.6322C62.5504 41.621 62.8435 40.6449 62.8435 39.7055C62.8435 38.8269 62.5147 38.0582 61.8575 37.3984C61.1994 36.7396 60.3384 36.2459 59.2724 35.9159C58.2063 35.5861 57.1933 35.3486 56.2339 35.2022C55.2745 35.0555 54.2967 34.9639 53.3024 34.9273V33.6971C53.3024 33.3688 53.089 33.0657 52.6626 32.7867C52.2363 32.5084 51.7739 32.3686 51.2767 32.3686C50.7077 32.3686 50.228 32.5012 49.8375 32.7643C49.4461 33.0282 49.2512 33.3416 49.2512 33.7029V35.0871C46.1596 35.5218 43.6096 36.6637 41.6024 38.5118C39.5941 40.3598 38.5908 42.8959 38.5908 46.1208C38.5908 47.4359 38.8214 48.6353 39.2835 49.7188C39.7451 50.8031 40.2782 51.691 40.8829 52.3839C41.4867 53.0769 42.3396 53.7524 43.4414 54.4094C44.5424 55.0675 45.4671 55.5555 46.2131 55.8751C46.9594 56.1949 47.9722 56.6039 49.2514 57.1012V65.7363C47.8655 65.488 46.3547 64.7859 44.7208 63.6308C43.0857 62.4765 41.9306 61.8984 41.2559 61.8984C40.2965 61.8984 39.4522 62.3965 38.7239 63.391C37.9953 64.3863 37.6314 65.3816 37.6314 66.3761C37.6314 68.1176 38.7775 69.6808 41.0694 71.0669C43.3616 72.4527 46.0882 73.199 49.2514 73.3055V74.638C49.2514 75.0286 49.4465 75.3659 49.8377 75.6508C50.2282 75.9347 50.7078 76.0773 51.2769 76.0773C51.7739 76.0773 52.2365 75.9257 52.6627 75.6241C53.0894 75.3218 53.3026 74.9927 53.3026 74.638V73.0922C56.5008 72.5592 59.05 71.2982 60.9514 69.3076C62.8522 67.3178 63.8031 64.7061 63.8031 61.472C63.8029 60.0863 63.5808 58.8253 63.1369 57.6878ZM49.7843 48.6794C47.5098 47.72 46.3728 46.6006 46.3728 45.3214C46.3728 43.7939 47.5096 42.7986 49.7843 42.3363V48.6794ZM52.7692 65.6831V58.5406C54.9363 59.5716 56.0208 60.8325 56.0208 62.3251C56.0208 64.0665 54.9363 65.1859 52.7692 65.6831Z" fill="url(#paint38_linear_18_1472)"/>
<path d="M57.9494 18.5816H43.4845L36.9037 5.96588C35.9322 4.10353 37.0414 1.83255 39.1075 1.45372L43.4171 0.663527C48.2435 -0.221375 53.1906 -0.221375 58.0169 0.663527L62.3265 1.45372C64.3926 1.83255 65.5018 4.10333 64.5302 5.96588L57.9494 18.5816Z" fill="url(#paint39_linear_18_1472)"/>
<path d="M53.1223 18.5816H48.3116L46.1229 5.96588C45.7998 4.10353 46.1688 1.83255 46.8559 1.45372L48.2892 0.663527C49.8943 -0.221375 51.5396 -0.221375 53.1449 0.663527L54.5782 1.45372C55.2655 1.83255 55.6343 4.10333 55.3112 5.96588L53.1223 18.5816Z" fill="url(#paint40_linear_18_1472)"/>
<path d="M64.313 2.72333C64.5949 3.12451 64.453 3.68353 64.0155 3.90529C61.9632 4.94902 59.5363 4.94902 57.4841 3.90529L55.6698 2.98411C53.6177 1.94039 51.1906 1.94039 49.1384 2.98411L47.3265 3.90529C45.2741 4.94902 42.8473 4.94902 40.7949 3.90529L38.8971 2.94C38.2322 2.60176 38.3561 1.59608 39.0892 1.45843C39.0955 1.45725 39.1016 1.45608 39.1079 1.4549L43.4175 0.663134C48.243 -0.220395 53.191 -0.220395 58.0167 0.663134L62.3263 1.4549C63.1773 1.61 63.8649 2.08608 64.313 2.72333Z" fill="url(#paint41_linear_18_1472)"/>
<path d="M64.5721 4.49157C64.669 4.25647 64.7392 4.01529 64.7908 3.77215C64.5074 2.64 63.5998 1.68725 62.3267 1.45372L58.017 0.663527C53.1906 -0.221375 48.2435 -0.221375 43.4172 0.663527L40.2029 1.25294C39.8002 2.21784 39.7488 3.4147 40.1927 4.49157L46 18.5816H57.9496L61.8343 11.1343L64.5721 4.49157Z" fill="url(#paint42_linear_18_1472)"/>
<path d="M50.7171 19.9959C47.5816 19.9959 44.6137 19.7933 42.1816 19.419C41.3806 19.2957 40.8433 18.5322 41.0049 17.738C41.1551 16.9996 41.8567 16.508 42.6016 16.6222C44.8859 16.9724 47.7594 17.1684 50.7171 17.1684C53.6745 17.1684 56.548 16.9724 58.8325 16.6222C59.5774 16.508 60.279 16.9994 60.4292 17.738C60.5908 18.5322 60.0535 19.2959 59.2525 19.419C56.8204 19.7933 53.8525 19.9959 50.7171 19.9959Z" fill="url(#paint43_linear_18_1472)"/>
<path d="M33.8959 58.4645C33.7835 57.9965 33.3666 57.6473 32.8643 57.6473H28.957H21.4284H17.8308C16.5398 61.679 14.9676 65.6167 13.0692 69.4075C11.9919 71.5584 11.4262 74.0098 11.5321 76.6031C11.8386 84.1061 18.4421 90.5622 25.95 90.709C26.0051 90.71 26.06 90.7108 26.1149 90.7114C29.5212 90.7408 32.801 92.0682 35.1898 94.4967C37.8596 97.2108 41.5733 98.8941 45.6817 98.8941C50.6678 98.8941 55.0737 96.4153 57.7372 92.6233C58.5947 91.4026 60.001 90.7088 61.4929 90.7118H61.5188C62.1598 90.7118 62.7896 90.6643 63.4051 90.5729C64.5659 90.401 65.7402 90.6973 66.6984 91.3749C66.8084 91.4528 66.921 91.5271 67.0333 91.6018L33.8959 58.4645Z" fill="url(#paint44_linear_18_1472)"/>
<path d="M32.8643 100H2.08434C1.4961 100 1.01904 99.5231 1.01904 98.9347V94.0065C1.01904 93.418 1.49591 92.9412 2.08434 92.9412H32.8643C33.4526 92.9412 33.9296 93.418 33.9296 94.0065V98.9347C33.9296 99.5231 33.4526 100 32.8643 100Z" fill="url(#paint45_linear_18_1472)"/>
<path d="M28.9571 100H5.99157C5.48058 100 5.06647 99.5859 5.06647 99.0749V93.8663C5.06647 93.3555 5.48058 92.9412 5.99157 92.9412H28.9571C29.4678 92.9412 29.8822 93.3553 29.8822 93.8663V99.0749C29.8822 99.5859 29.468 100 28.9571 100Z" fill="url(#paint46_linear_18_1472)"/>
<path d="M21.4284 100H13.5202C13.2121 100 12.9623 99.7502 12.9623 99.4422V93.499C12.9623 93.191 13.2121 92.9412 13.5202 92.9412H21.4284C21.7365 92.9412 21.9863 93.191 21.9863 93.499V99.4422C21.9863 99.7502 21.7365 100 21.4284 100Z" fill="url(#paint47_linear_18_1472)"/>
<path d="M3.01311 93.8C2.42468 93.8 1.94781 94.2769 1.94781 94.8653V99.7935C1.94781 99.862 1.95487 99.9286 1.96723 99.9933C2.00566 99.9975 2.04468 100 2.08429 100H32.8643C33.4527 100 33.9296 99.5231 33.9296 98.9347V94.0065C33.9296 93.938 33.9225 93.8714 33.9102 93.8067C33.8717 93.8026 33.8327 93.8 33.7931 93.8H3.01311Z" fill="url(#paint48_linear_18_1472)"/>
<path d="M32.8643 92.9412H2.08434C1.4961 92.9412 1.01904 92.4643 1.01904 91.8759V86.9477C1.01904 86.3592 1.49591 85.8824 2.08434 85.8824H32.8643C33.4526 85.8824 33.9296 86.3592 33.9296 86.9477V91.8759C33.9296 92.4643 33.4526 92.9412 32.8643 92.9412Z" fill="url(#paint49_linear_18_1472)"/>
<path d="M28.9571 92.9412H5.99157C5.48058 92.9412 5.06647 92.5271 5.06647 92.0161V86.8073C5.06647 86.2965 5.48058 85.8822 5.99157 85.8822H28.9571C29.4678 85.8822 29.8822 86.2963 29.8822 86.8073V92.0161C29.8822 92.5271 29.468 92.9412 28.9571 92.9412Z" fill="url(#paint50_linear_18_1472)"/>
<path d="M21.4284 92.9412H13.5202C13.2121 92.9412 12.9623 92.6914 12.9623 92.3833V86.4402C12.9623 86.1322 13.2121 85.8824 13.5202 85.8824H21.4284C21.7365 85.8824 21.9863 86.1322 21.9863 86.4402V92.3833C21.9863 92.6914 21.7365 92.9412 21.4284 92.9412Z" fill="url(#paint51_linear_18_1472)"/>
<path d="M3.01311 86.7412C2.42468 86.7412 1.94781 87.218 1.94781 87.8065V92.7347C1.94781 92.8031 1.95487 92.8696 1.96723 92.9345C2.00566 92.9388 2.04468 92.9412 2.08429 92.9412H32.8643C33.4527 92.9412 33.9296 92.4643 33.9296 91.8759V86.9477C33.9296 86.8792 33.9225 86.8126 33.9102 86.7478C33.8717 86.7435 33.8327 86.7412 33.7931 86.7412H3.01311Z" fill="url(#paint52_linear_18_1472)"/>
<path d="M32.8643 85.8824H2.08434C1.4961 85.8824 1.01904 85.4055 1.01904 84.8171V79.8888C1.01904 79.3006 1.49591 78.8235 2.08434 78.8235H32.8643C33.4526 78.8235 33.9296 79.3004 33.9296 79.8888V84.8171C33.9296 85.4055 33.4526 85.8824 32.8643 85.8824Z" fill="url(#paint53_linear_18_1472)"/>
<path d="M28.9571 85.8824H5.99157C5.48058 85.8824 5.06647 85.4682 5.06647 84.9573V79.7486C5.06647 79.2376 5.48058 78.8235 5.99157 78.8235H28.9571C29.4678 78.8235 29.8822 79.2376 29.8822 79.7486V84.9573C29.8822 85.4682 29.468 85.8824 28.9571 85.8824Z" fill="url(#paint54_linear_18_1472)"/>
<path d="M21.4284 85.8824H13.5202C13.2121 85.8824 12.9623 85.6326 12.9623 85.3245V79.3814C12.9623 79.0733 13.2121 78.8235 13.5202 78.8235H21.4284C21.7365 78.8235 21.9863 79.0733 21.9863 79.3814V85.3245C21.9863 85.6327 21.7365 85.8824 21.4284 85.8824Z" fill="url(#paint55_linear_18_1472)"/>
<path d="M3.01311 79.6824C2.42468 79.6824 1.94781 80.1592 1.94781 80.7476V85.6759C1.94781 85.7443 1.95487 85.811 1.96723 85.8757C2.00566 85.8798 2.04468 85.8824 2.08429 85.8824H32.8643C33.4527 85.8824 33.9296 85.4055 33.9296 84.8171V79.8888C33.9296 79.8204 33.9225 79.7539 33.9102 79.689C33.8717 79.6849 33.8327 79.6824 33.7931 79.6824H3.01311Z" fill="url(#paint56_linear_18_1472)"/>
<path d="M32.8643 78.8235H2.08434C1.4961 78.8235 1.01904 78.3467 1.01904 77.7582V72.83C1.01904 72.2416 1.49591 71.7647 2.08434 71.7647H32.8643C33.4526 71.7647 33.9296 72.2416 33.9296 72.83V77.7582C33.9296 78.3467 33.4526 78.8235 32.8643 78.8235Z" fill="url(#paint57_linear_18_1472)"/>
<path d="M28.9571 78.8235H5.99157C5.48058 78.8235 5.06647 78.4094 5.06647 77.8984V72.6896C5.06647 72.1788 5.48058 71.7645 5.99157 71.7645H28.9571C29.4678 71.7645 29.8822 72.1786 29.8822 72.6896V77.8984C29.8822 78.4094 29.468 78.8235 28.9571 78.8235Z" fill="url(#paint58_linear_18_1472)"/>
<path d="M21.4284 78.8235H13.5202C13.2121 78.8235 12.9623 78.5737 12.9623 78.2657V72.3226C12.9623 72.0145 13.2121 71.7647 13.5202 71.7647H21.4284C21.7365 71.7647 21.9863 72.0145 21.9863 72.3226V78.2657C21.9863 78.5739 21.7365 78.8235 21.4284 78.8235Z" fill="url(#paint59_linear_18_1472)"/>
<path d="M3.01311 72.6235C2.42468 72.6235 1.94781 73.1004 1.94781 73.6888V78.6171C1.94781 78.6855 1.95487 78.752 1.96723 78.8169C2.00566 78.8212 2.04468 78.8235 2.08429 78.8235H32.8643C33.4527 78.8235 33.9296 78.3467 33.9296 77.7582V72.83C33.9296 72.7616 33.9225 72.6951 33.9102 72.6302C33.8717 72.6259 33.8327 72.6235 33.7931 72.6235H3.01311Z" fill="url(#paint60_linear_18_1472)"/>
<path d="M32.8643 71.7649H2.08434C1.4961 71.7649 1.01904 71.288 1.01904 70.6996V65.7714C1.01904 65.1831 1.49591 64.7061 2.08434 64.7061H32.8643C33.4526 64.7061 33.9296 65.1829 33.9296 65.7714V70.6996C33.9296 71.2878 33.4526 71.7649 32.8643 71.7649Z" fill="url(#paint61_linear_18_1472)"/>
<path d="M28.9571 71.7649H5.99157C5.48058 71.7649 5.06647 71.3508 5.06647 70.8398V65.6312C5.06647 65.1204 5.48058 64.7061 5.99157 64.7061H28.9571C29.4678 64.7061 29.8822 65.1202 29.8822 65.6312V70.8398C29.8822 71.3506 29.468 71.7649 28.9571 71.7649Z" fill="url(#paint62_linear_18_1472)"/>
<path d="M21.4284 71.7649H13.5202C13.2121 71.7649 12.9623 71.5151 12.9623 71.2071V65.2639C12.9623 64.9559 13.2121 64.7061 13.5202 64.7061H21.4284C21.7365 64.7061 21.9863 64.9559 21.9863 65.2639V71.2071C21.9863 71.5151 21.7365 71.7649 21.4284 71.7649Z" fill="url(#paint63_linear_18_1472)"/>
<path d="M3.01311 65.5647C2.42468 65.5647 1.94781 66.0416 1.94781 66.63V71.5582C1.94781 71.6267 1.95487 71.6933 1.96723 71.758C2.00566 71.7622 2.04468 71.7647 2.08429 71.7647H32.8643C33.4527 71.7647 33.9296 71.2878 33.9296 70.6994V65.7712C33.9296 65.7028 33.9225 65.6363 33.9102 65.5714C33.8717 65.5673 33.8327 65.5647 33.7931 65.5647H3.01311Z" fill="url(#paint64_linear_18_1472)"/>
<path d="M32.8643 64.7061H2.08434C1.4961 64.7061 1.01904 64.2292 1.01904 63.6408V58.7126C1.01904 58.1241 1.49591 57.6473 2.08434 57.6473H32.8643C33.4526 57.6473 33.9296 58.1241 33.9296 58.7126V63.6408C33.9296 64.229 33.4526 64.7061 32.8643 64.7061Z" fill="url(#paint65_linear_18_1472)"/>
<path d="M28.9571 64.7061H5.99157C5.48058 64.7061 5.06647 64.292 5.06647 63.781V58.5722C5.06647 58.0614 5.48058 57.6471 5.99157 57.6471H28.9571C29.4678 57.6471 29.8822 58.0612 29.8822 58.5722V63.781C29.8822 64.292 29.468 64.7061 28.9571 64.7061Z" fill="url(#paint66_linear_18_1472)"/>
<path d="M21.4284 64.7061H13.5202C13.2121 64.7061 12.9623 64.4563 12.9623 64.1482V58.2051C12.9623 57.8971 13.2121 57.6473 13.5202 57.6473H21.4284C21.7365 57.6473 21.9863 57.8971 21.9863 58.2051V64.1482C21.9863 64.4563 21.7365 64.7061 21.4284 64.7061Z" fill="url(#paint67_linear_18_1472)"/>
<path d="M3.01311 58.5061C2.42468 58.5061 1.94781 58.9829 1.94781 59.5714V64.4996C1.94781 64.568 1.95487 64.6345 1.96723 64.6994C2.00566 64.7035 2.04468 64.7061 2.08429 64.7061H32.8643C33.4527 64.7061 33.9296 64.2292 33.9296 63.6408V58.7126C33.9296 58.6441 33.9225 58.5777 33.9102 58.5128C33.8717 58.5086 33.8327 58.5061 33.7931 58.5061H3.01311Z" fill="url(#paint68_linear_18_1472)"/>
<path d="M90.579 100H59.799C59.2106 100 58.7337 99.5231 58.7337 98.9347V94.0065C58.7337 93.418 59.2106 92.9412 59.799 92.9412H90.579C91.1673 92.9412 91.6443 93.418 91.6443 94.0065V98.9347C91.6443 99.5231 91.1673 100 90.579 100Z" fill="url(#paint69_linear_18_1472)"/>
<path d="M86.6718 100H63.7063C63.1955 100 62.7812 99.5859 62.7812 99.0749V93.8663C62.7812 93.3555 63.1953 92.9412 63.7063 92.9412H86.6718C87.1826 92.9412 87.5969 93.3553 87.5969 93.8663V99.0749C87.5969 99.5859 87.1826 100 86.6718 100Z" fill="url(#paint70_linear_18_1472)"/>
<path d="M79.1431 100H71.2349C70.9269 100 70.6771 99.7502 70.6771 99.4422V93.499C70.6771 93.191 70.9269 92.9412 71.2349 92.9412H79.1431C79.4512 92.9412 79.701 93.191 79.701 93.499V99.4422C79.701 99.7502 79.4512 100 79.1431 100Z" fill="url(#paint71_linear_18_1472)"/>
<path d="M60.7278 93.8C60.1396 93.8 59.6625 94.2769 59.6625 94.8653V99.7935C59.6625 99.862 59.6696 99.9286 59.6819 99.9933C59.7204 99.9975 59.7594 100 59.799 100H90.579C91.1672 100 91.6443 99.5231 91.6443 98.9347V94.0065C91.6443 93.938 91.6372 93.8714 91.6249 93.8067C91.5865 93.8026 91.5474 93.8 91.5078 93.8H60.7278Z" fill="url(#paint72_linear_18_1472)"/>
<path d="M90.579 92.9412H59.799C59.2106 92.9412 58.7337 92.4643 58.7337 91.8759V86.9477C58.7337 86.3592 59.2106 85.8824 59.799 85.8824H90.579C91.1673 85.8824 91.6443 86.3592 91.6443 86.9477V91.8759C91.6443 92.4643 91.1673 92.9412 90.579 92.9412Z" fill="url(#paint73_linear_18_1472)"/>
<path d="M86.6718 92.9412H63.7063C63.1955 92.9412 62.7812 92.5271 62.7812 92.0161V86.8073C62.7812 86.2965 63.1953 85.8822 63.7063 85.8822H86.6718C87.1826 85.8822 87.5969 86.2963 87.5969 86.8073V92.0161C87.5969 92.5271 87.1826 92.9412 86.6718 92.9412Z" fill="url(#paint74_linear_18_1472)"/>
<path d="M79.1431 92.9412H71.2349C70.9269 92.9412 70.6771 92.6914 70.6771 92.3833V86.4402C70.6771 86.1322 70.9269 85.8824 71.2349 85.8824H79.1431C79.4512 85.8824 79.701 86.1322 79.701 86.4402V92.3833C79.701 92.6914 79.4512 92.9412 79.1431 92.9412Z" fill="url(#paint75_linear_18_1472)"/>
<path d="M60.7278 86.7412C60.1396 86.7412 59.6625 87.218 59.6625 87.8065V92.7347C59.6625 92.8031 59.6696 92.8696 59.6819 92.9345C59.7204 92.9388 59.7594 92.9412 59.799 92.9412H90.579C91.1672 92.9412 91.6443 92.4643 91.6443 91.8759V86.9477C91.6443 86.8792 91.6372 86.8126 91.6249 86.7478C91.5865 86.7435 91.5474 86.7412 91.5078 86.7412H60.7278Z" fill="url(#paint76_linear_18_1472)"/>
<path d="M18.2461 41.1135C15.3022 43.032 12.7904 45.5588 10.8882 48.5151C10.4604 49.1798 9.47334 49.178 9.04805 48.5118C7.15668 45.5488 4.65413 43.0127 1.71726 41.0835C1.0653 40.6553 1.06707 39.6818 1.7206 39.2559C4.66452 37.3375 7.17628 34.8106 9.07844 31.8545C9.50609 31.1898 10.4933 31.1916 10.9186 31.8578C12.81 34.8208 15.3126 37.3569 18.2496 39.2861C18.9014 39.7141 18.8996 40.6878 18.2461 41.1135Z" fill="url(#paint77_linear_18_1472)"/>
<path d="M29.9723 14.41C27.8906 15.7667 26.1143 17.5535 24.7692 19.6441C24.4667 20.1141 23.7686 20.1129 23.4678 19.6418C22.1304 17.5465 20.3606 15.7531 18.2837 14.3888C17.8227 14.0861 17.8239 13.3974 18.2861 13.0963C20.3678 11.7396 22.1441 9.95274 23.4892 7.86216C23.7918 7.39216 24.4898 7.39333 24.7906 7.86451C26.128 9.9598 27.8978 11.7531 29.9747 13.1174C30.4357 13.4204 30.4345 14.1088 29.9723 14.41Z" fill="url(#paint78_linear_18_1472)"/>
<path d="M86.5155 19.2384C84.4337 20.5951 82.6575 22.382 81.3124 24.4725C81.0098 24.9425 80.3118 24.9414 80.011 24.4702C78.6735 22.3749 76.9037 20.5816 74.8269 19.2173C74.3659 18.9145 74.3671 18.2259 74.8292 17.9247C76.911 16.568 78.6873 14.7812 80.0324 12.6906C80.3349 12.2206 81.033 12.2218 81.3337 12.6929C82.6714 14.7882 84.441 16.5816 86.5179 17.9459C86.9788 18.2488 86.9777 18.9373 86.5155 19.2384Z" fill="url(#paint79_linear_18_1472)"/>
</g>
<defs>
<linearGradient id="paint0_linear_18_1472" x1="82.5257" y1="76.2165" x2="82.5257" y2="85.3684" gradientUnits="userSpaceOnUse">
<stop stop-color="#E4F2FF"/>
<stop offset="1" stop-color="#B2CBFF"/>
</linearGradient>
<linearGradient id="paint1_linear_18_1472" x1="82.5257" y1="76.349" x2="82.5257" y2="91.7408" gradientUnits="userSpaceOnUse">
<stop stop-color="#3F3CED" stop-opacity="0"/>
<stop offset="0.2796" stop-color="#3C3DE4" stop-opacity="0.28"/>
<stop offset="0.7305" stop-color="#3541CC" stop-opacity="0.731"/>
<stop offset="1" stop-color="#2F43BB"/>
</linearGradient>
<linearGradient id="paint2_linear_18_1472" x1="82.5257" y1="76.349" x2="82.5257" y2="91.7408" gradientUnits="userSpaceOnUse">
<stop stop-color="#3F3CED" stop-opacity="0"/>
<stop offset="0.2796" stop-color="#3C3DE4" stop-opacity="0.28"/>
<stop offset="0.7305" stop-color="#3541CC" stop-opacity="0.731"/>
<stop offset="1" stop-color="#2F43BB"/>
</linearGradient>
<linearGradient id="paint3_linear_18_1472" x1="82.4879" y1="78.8149" x2="78.8384" y2="69.99" gradientUnits="userSpaceOnUse">
<stop stop-color="white" stop-opacity="0"/>
<stop offset="1" stop-color="white"/>
</linearGradient>
<linearGradient id="paint4_linear_18_1472" x1="82.5257" y1="69.1577" x2="82.5257" y2="78.3096" gradientUnits="userSpaceOnUse">
<stop stop-color="#E4F2FF"/>
<stop offset="1" stop-color="#B2CBFF"/>
</linearGradient>
<linearGradient id="paint5_linear_18_1472" x1="82.5257" y1="69.2904" x2="82.5257" y2="84.682" gradientUnits="userSpaceOnUse">
<stop stop-color="#3F3CED" stop-opacity="0"/>
<stop offset="0.2796" stop-color="#3C3DE4" stop-opacity="0.28"/>
<stop offset="0.7305" stop-color="#3541CC" stop-opacity="0.731"/>
<stop offset="1" stop-color="#2F43BB"/>
</linearGradient>
<linearGradient id="paint6_linear_18_1472" x1="82.5257" y1="69.2904" x2="82.5257" y2="84.682" gradientUnits="userSpaceOnUse">
<stop stop-color="#3F3CED" stop-opacity="0"/>
<stop offset="0.2796" stop-color="#3C3DE4" stop-opacity="0.28"/>
<stop offset="0.7305" stop-color="#3541CC" stop-opacity="0.731"/>
<stop offset="1" stop-color="#2F43BB"/>
</linearGradient>
<linearGradient id="paint7_linear_18_1472" x1="82.4879" y1="71.7561" x2="78.8384" y2="62.9312" gradientUnits="userSpaceOnUse">
<stop stop-color="white" stop-opacity="0"/>
<stop offset="1" stop-color="white"/>
</linearGradient>
<linearGradient id="paint8_linear_18_1472" x1="82.5257" y1="62.0988" x2="82.5257" y2="71.2508" gradientUnits="userSpaceOnUse">
<stop stop-color="#E4F2FF"/>
<stop offset="1" stop-color="#B2CBFF"/>
</linearGradient>
<linearGradient id="paint9_linear_18_1472" x1="82.5257" y1="62.2316" x2="82.5257" y2="77.6231" gradientUnits="userSpaceOnUse">
<stop stop-color="#3F3CED" stop-opacity="0"/>
<stop offset="0.2796" stop-color="#3C3DE4" stop-opacity="0.28"/>
<stop offset="0.7305" stop-color="#3541CC" stop-opacity="0.731"/>
<stop offset="1" stop-color="#2F43BB"/>
</linearGradient>
<linearGradient id="paint10_linear_18_1472" x1="82.5257" y1="62.2316" x2="82.5257" y2="77.6231" gradientUnits="userSpaceOnUse">
<stop stop-color="#3F3CED" stop-opacity="0"/>
<stop offset="0.2796" stop-color="#3C3DE4" stop-opacity="0.28"/>
<stop offset="0.7305" stop-color="#3541CC" stop-opacity="0.731"/>
<stop offset="1" stop-color="#2F43BB"/>
</linearGradient>
<linearGradient id="paint11_linear_18_1472" x1="82.4879" y1="64.6973" x2="78.8384" y2="55.8724" gradientUnits="userSpaceOnUse">
<stop stop-color="white" stop-opacity="0"/>
<stop offset="1" stop-color="white"/>
</linearGradient>
<linearGradient id="paint12_linear_18_1472" x1="82.5257" y1="55.04" x2="82.5257" y2="64.192" gradientUnits="userSpaceOnUse">
<stop stop-color="#E4F2FF"/>
<stop offset="1" stop-color="#B2CBFF"/>
</linearGradient>
<linearGradient id="paint13_linear_18_1472" x1="82.5257" y1="55.1728" x2="82.5257" y2="70.5643" gradientUnits="userSpaceOnUse">
<stop stop-color="#3F3CED" stop-opacity="0"/>
<stop offset="0.2796" stop-color="#3C3DE4" stop-opacity="0.28"/>
<stop offset="0.7305" stop-color="#3541CC" stop-opacity="0.731"/>
<stop offset="1" stop-color="#2F43BB"/>
</linearGradient>
<linearGradient id="paint14_linear_18_1472" x1="82.5257" y1="55.1728" x2="82.5257" y2="70.5643" gradientUnits="userSpaceOnUse">
<stop stop-color="#3F3CED" stop-opacity="0"/>
<stop offset="0.2796" stop-color="#3C3DE4" stop-opacity="0.28"/>
<stop offset="0.7305" stop-color="#3541CC" stop-opacity="0.731"/>
<stop offset="1" stop-color="#2F43BB"/>
</linearGradient>
<linearGradient id="paint15_linear_18_1472" x1="82.4879" y1="57.6384" x2="78.8384" y2="48.8137" gradientUnits="userSpaceOnUse">
<stop stop-color="white" stop-opacity="0"/>
<stop offset="1" stop-color="white"/>
</linearGradient>
<linearGradient id="paint16_linear_18_1472" x1="82.5257" y1="47.9812" x2="82.5257" y2="57.1331" gradientUnits="userSpaceOnUse">
<stop stop-color="#E4F2FF"/>
<stop offset="1" stop-color="#B2CBFF"/>
</linearGradient>
<linearGradient id="paint17_linear_18_1472" x1="82.5257" y1="48.1139" x2="82.5257" y2="63.5055" gradientUnits="userSpaceOnUse">
<stop stop-color="#3F3CED" stop-opacity="0"/>
<stop offset="0.2796" stop-color="#3C3DE4" stop-opacity="0.28"/>
<stop offset="0.7305" stop-color="#3541CC" stop-opacity="0.731"/>
<stop offset="1" stop-color="#2F43BB"/>
</linearGradient>
<linearGradient id="paint18_linear_18_1472" x1="82.5257" y1="48.1139" x2="82.5257" y2="63.5055" gradientUnits="userSpaceOnUse">
<stop stop-color="#3F3CED" stop-opacity="0"/>
<stop offset="0.2796" stop-color="#3C3DE4" stop-opacity="0.28"/>
<stop offset="0.7305" stop-color="#3541CC" stop-opacity="0.731"/>
<stop offset="1" stop-color="#2F43BB"/>
</linearGradient>
<linearGradient id="paint19_linear_18_1472" x1="82.4879" y1="50.5796" x2="78.8384" y2="41.7549" gradientUnits="userSpaceOnUse">
<stop stop-color="white" stop-opacity="0"/>
<stop offset="1" stop-color="white"/>
</linearGradient>
<linearGradient id="paint20_linear_18_1472" x1="82.5257" y1="40.9224" x2="82.5257" y2="50.0745" gradientUnits="userSpaceOnUse">
<stop stop-color="#E4F2FF"/>
<stop offset="1" stop-color="#B2CBFF"/>
</linearGradient>
<linearGradient id="paint21_linear_18_1472" x1="82.5257" y1="41.0551" x2="82.5257" y2="56.4469" gradientUnits="userSpaceOnUse">
<stop stop-color="#3F3CED" stop-opacity="0"/>
<stop offset="0.2796" stop-color="#3C3DE4" stop-opacity="0.28"/>
<stop offset="0.7305" stop-color="#3541CC" stop-opacity="0.731"/>
<stop offset="1" stop-color="#2F43BB"/>
</linearGradient>
<linearGradient id="paint22_linear_18_1472" x1="82.5257" y1="41.0551" x2="82.5257" y2="56.4469" gradientUnits="userSpaceOnUse">
<stop stop-color="#3F3CED" stop-opacity="0"/>
<stop offset="0.2796" stop-color="#3C3DE4" stop-opacity="0.28"/>
<stop offset="0.7305" stop-color="#3541CC" stop-opacity="0.731"/>
<stop offset="1" stop-color="#2F43BB"/>
</linearGradient>
<linearGradient id="paint23_linear_18_1472" x1="82.4879" y1="43.5208" x2="78.8384" y2="34.6961" gradientUnits="userSpaceOnUse">
<stop stop-color="white" stop-opacity="0"/>
<stop offset="1" stop-color="white"/>
</linearGradient>
<linearGradient id="paint24_linear_18_1472" x1="82.5257" y1="33.8637" x2="82.5257" y2="43.0157" gradientUnits="userSpaceOnUse">
<stop stop-color="#E4F2FF"/>
<stop offset="1" stop-color="#B2CBFF"/>
</linearGradient>
<linearGradient id="paint25_linear_18_1472" x1="82.5257" y1="33.9963" x2="82.5257" y2="49.388" gradientUnits="userSpaceOnUse">
<stop stop-color="#3F3CED" stop-opacity="0"/>
<stop offset="0.2796" stop-color="#3C3DE4" stop-opacity="0.28"/>
<stop offset="0.7305" stop-color="#3541CC" stop-opacity="0.731"/>
<stop offset="1" stop-color="#2F43BB"/>
</linearGradient>
<linearGradient id="paint26_linear_18_1472" x1="82.5257" y1="33.9963" x2="82.5257" y2="49.388" gradientUnits="userSpaceOnUse">
<stop stop-color="#3F3CED" stop-opacity="0"/>
<stop offset="0.2796" stop-color="#3C3DE4" stop-opacity="0.28"/>
<stop offset="0.7305" stop-color="#3541CC" stop-opacity="0.731"/>
<stop offset="1" stop-color="#2F43BB"/>
</linearGradient>
<linearGradient id="paint27_linear_18_1472" x1="82.4879" y1="36.4622" x2="78.8384" y2="27.6372" gradientUnits="userSpaceOnUse">
<stop stop-color="white" stop-opacity="0"/>
<stop offset="1" stop-color="white"/>
</linearGradient>
<linearGradient id="paint28_linear_18_1472" x1="82.5257" y1="26.8049" x2="82.5257" y2="35.9569" gradientUnits="userSpaceOnUse">
<stop stop-color="#E4F2FF"/>
<stop offset="1" stop-color="#B2CBFF"/>
</linearGradient>
<linearGradient id="paint29_linear_18_1472" x1="82.5257" y1="26.9376" x2="82.5257" y2="42.3292" gradientUnits="userSpaceOnUse">
<stop stop-color="#3F3CED" stop-opacity="0"/>
<stop offset="0.2796" stop-color="#3C3DE4" stop-opacity="0.28"/>
<stop offset="0.7305" stop-color="#3541CC" stop-opacity="0.731"/>
<stop offset="1" stop-color="#2F43BB"/>
</linearGradient>
<linearGradient id="paint30_linear_18_1472" x1="82.5257" y1="26.9376" x2="82.5257" y2="42.3292" gradientUnits="userSpaceOnUse">
<stop stop-color="#3F3CED" stop-opacity="0"/>
<stop offset="0.2796" stop-color="#3C3DE4" stop-opacity="0.28"/>
<stop offset="0.7305" stop-color="#3541CC" stop-opacity="0.731"/>
<stop offset="1" stop-color="#2F43BB"/>
</linearGradient>
<linearGradient id="paint31_linear_18_1472" x1="82.4879" y1="29.4033" x2="78.8384" y2="20.5784" gradientUnits="userSpaceOnUse">
<stop stop-color="white" stop-opacity="0"/>
<stop offset="1" stop-color="white"/>
</linearGradient>
<radialGradient id="paint32_radial_18_1472" cx="0" cy="0" r="1" gradientUnits="userSpaceOnUse" gradientTransform="translate(38.9359 40.5939) scale(66.1916 66.1916)">
<stop stop-color="#4AB272"/>
<stop offset="0.3386" stop-color="#47B071"/>
<stop offset="0.5502" stop-color="#3FA870"/>
<stop offset="0.727" stop-color="#309B6D"/>
<stop offset="0.8837" stop-color="#1C8869"/>
<stop offset="1" stop-color="#077565"/>
</radialGradient>
<linearGradient id="paint33_linear_18_1472" x1="26.398" y1="71.2188" x2="24.2776" y2="137.308" gradientUnits="userSpaceOnUse">
<stop stop-color="#005A01" stop-opacity="0"/>
<stop offset="1" stop-color="#005A01"/>
</linearGradient>
<linearGradient id="paint34_linear_18_1472" x1="45.7004" y1="84.2398" x2="55.1255" y2="120.212" gradientUnits="userSpaceOnUse">
<stop stop-color="#005A01" stop-opacity="0"/>
<stop offset="1" stop-color="#005A01"/>
</linearGradient>
<linearGradient id="paint35_linear_18_1472" x1="74.8621" y1="83.5333" x2="71.4065" y2="127.831" gradientUnits="userSpaceOnUse">
<stop stop-color="#005A01" stop-opacity="0"/>
<stop offset="1" stop-color="#005A01"/>
</linearGradient>
<linearGradient id="paint36_linear_18_1472" x1="46.1186" y1="57.6661" x2="1.82156" y2="-21.5031" gradientUnits="userSpaceOnUse">
<stop stop-color="#91F27F" stop-opacity="0"/>
<stop offset="1" stop-color="#FFED82"/>
</linearGradient>
<linearGradient id="paint37_linear_18_1472" x1="77.0186" y1="72.9971" x2="20.8859" y2="41.2357" gradientUnits="userSpaceOnUse">
<stop stop-color="#005A01" stop-opacity="0"/>
<stop offset="1" stop-color="#005A01"/>
</linearGradient>
<linearGradient id="paint38_linear_18_1472" x1="44.2845" y1="48.1467" x2="75.0316" y2="74.6527" gradientUnits="userSpaceOnUse">
<stop stop-color="#FFC738"/>
<stop offset="0.1876" stop-color="#FDBF3C"/>
<stop offset="0.4837" stop-color="#F7A848"/>
<stop offset="0.8493" stop-color="#ED835B"/>
<stop offset="1" stop-color="#E97264"/>
</linearGradient>
<linearGradient id="paint39_linear_18_1472" x1="47.1692" y1="-2.97589" x2="57.5367" y2="18.9371" gradientUnits="userSpaceOnUse">
<stop stop-color="#4AB272"/>
<stop offset="0.3386" stop-color="#47B071"/>
<stop offset="0.5502" stop-color="#3FA870"/>
<stop offset="0.727" stop-color="#309B6D"/>
<stop offset="0.8837" stop-color="#1C8869"/>
<stop offset="1" stop-color="#077565"/>
</linearGradient>
<linearGradient id="paint40_linear_18_1472" x1="50.5745" y1="8.59117" x2="64.5547" y2="30.2684" gradientUnits="userSpaceOnUse">
<stop stop-color="#005A01" stop-opacity="0"/>
<stop offset="1" stop-color="#005A01"/>
</linearGradient>
<linearGradient id="paint41_linear_18_1472" x1="51.2596" y1="0.731566" x2="51.9665" y2="7.68235" gradientUnits="userSpaceOnUse">
<stop stop-color="#005A01" stop-opacity="0"/>
<stop offset="1" stop-color="#005A01"/>
</linearGradient>
<linearGradient id="paint42_linear_18_1472" x1="48.1927" y1="9.2847" x2="21.4494" y2="8.81353" gradientUnits="userSpaceOnUse">
<stop stop-color="#91F27F" stop-opacity="0"/>
<stop offset="1" stop-color="#FFED82"/>
</linearGradient>
<linearGradient id="paint43_linear_18_1472" x1="50.7171" y1="17.1888" x2="50.7171" y2="20.521" gradientUnits="userSpaceOnUse">
<stop stop-color="#FFC738"/>
<stop offset="0.1876" stop-color="#FDBF3C"/>
<stop offset="0.4837" stop-color="#F7A848"/>
<stop offset="0.8493" stop-color="#ED835B"/>
<stop offset="1" stop-color="#E97264"/>
</linearGradient>
<linearGradient id="paint44_linear_18_1472" x1="48.1315" y1="79.0329" x2="27.3968" y2="77.3051" gradientUnits="userSpaceOnUse">
<stop stop-color="#005A01" stop-opacity="0"/>
<stop offset="1" stop-color="#005A01"/>
</linearGradient>
<linearGradient id="paint45_linear_18_1472" x1="17.4743" y1="93.0867" x2="17.4743" y2="102.239" gradientUnits="userSpaceOnUse">
<stop stop-color="#FFD945"/>
<stop offset="0.3043" stop-color="#FFCD3E"/>
<stop offset="0.8558" stop-color="#FFAD2B"/>
<stop offset="1" stop-color="#FFA325"/>
</linearGradient>
<linearGradient id="paint46_linear_18_1472" x1="17.4743" y1="93.2194" x2="17.4743" y2="108.611" gradientUnits="userSpaceOnUse">
<stop stop-color="#E87264" stop-opacity="0"/>
<stop offset="1" stop-color="#FF7044"/>
</linearGradient>
<linearGradient id="paint47_linear_18_1472" x1="17.4743" y1="93.2194" x2="17.4743" y2="108.611" gradientUnits="userSpaceOnUse">
<stop stop-color="#E87264" stop-opacity="0"/>
<stop offset="1" stop-color="#FF7044"/>
</linearGradient>
<linearGradient id="paint48_linear_18_1472" x1="17.4362" y1="95.6851" x2="13.787" y2="86.8602" gradientUnits="userSpaceOnUse">
<stop stop-color="#FFD945" stop-opacity="0"/>
<stop offset="1" stop-color="#FBED21"/>
</linearGradient>
<linearGradient id="paint49_linear_18_1472" x1="17.4743" y1="86.0278" x2="17.4743" y2="95.1798" gradientUnits="userSpaceOnUse">
<stop stop-color="#FFD945"/>
<stop offset="0.3043" stop-color="#FFCD3E"/>
<stop offset="0.8558" stop-color="#FFAD2B"/>
<stop offset="1" stop-color="#FFA325"/>
</linearGradient>
<linearGradient id="paint50_linear_18_1472" x1="17.4743" y1="86.1606" x2="17.4743" y2="101.552" gradientUnits="userSpaceOnUse">
<stop stop-color="#E87264" stop-opacity="0"/>
<stop offset="1" stop-color="#FF7044"/>
</linearGradient>
<linearGradient id="paint51_linear_18_1472" x1="17.4743" y1="86.1606" x2="17.4743" y2="101.552" gradientUnits="userSpaceOnUse">
<stop stop-color="#E87264" stop-opacity="0"/>
<stop offset="1" stop-color="#FF7044"/>
</linearGradient>
<linearGradient id="paint52_linear_18_1472" x1="17.4362" y1="88.6263" x2="13.787" y2="79.8016" gradientUnits="userSpaceOnUse">
<stop stop-color="#FFD945" stop-opacity="0"/>
<stop offset="1" stop-color="#FBED21"/>
</linearGradient>
<linearGradient id="paint53_linear_18_1472" x1="17.4743" y1="78.969" x2="17.4743" y2="88.121" gradientUnits="userSpaceOnUse">
<stop stop-color="#FFD945"/>
<stop offset="0.3043" stop-color="#FFCD3E"/>
<stop offset="0.8558" stop-color="#FFAD2B"/>
<stop offset="1" stop-color="#FFA325"/>
</linearGradient>
<linearGradient id="paint54_linear_18_1472" x1="17.4743" y1="79.1018" x2="17.4743" y2="94.4933" gradientUnits="userSpaceOnUse">
<stop stop-color="#E87264" stop-opacity="0"/>
<stop offset="1" stop-color="#FF7044"/>
</linearGradient>
<linearGradient id="paint55_linear_18_1472" x1="17.4743" y1="79.1018" x2="17.4743" y2="94.4933" gradientUnits="userSpaceOnUse">
<stop stop-color="#E87264" stop-opacity="0"/>
<stop offset="1" stop-color="#FF7044"/>
</linearGradient>
<linearGradient id="paint56_linear_18_1472" x1="17.4362" y1="81.5675" x2="13.787" y2="72.7428" gradientUnits="userSpaceOnUse">
<stop stop-color="#FFD945" stop-opacity="0"/>
<stop offset="1" stop-color="#FBED21"/>
</linearGradient>
<linearGradient id="paint57_linear_18_1472" x1="17.4743" y1="71.9102" x2="17.4743" y2="81.0624" gradientUnits="userSpaceOnUse">
<stop stop-color="#FFD945"/>
<stop offset="0.3043" stop-color="#FFCD3E"/>
<stop offset="0.8558" stop-color="#FFAD2B"/>
<stop offset="1" stop-color="#FFA325"/>
</linearGradient>
<linearGradient id="paint58_linear_18_1472" x1="17.4743" y1="72.0429" x2="17.4743" y2="87.4347" gradientUnits="userSpaceOnUse">
<stop stop-color="#E87264" stop-opacity="0"/>
<stop offset="1" stop-color="#FF7044"/>
</linearGradient>
<linearGradient id="paint59_linear_18_1472" x1="17.4743" y1="72.0429" x2="17.4743" y2="87.4347" gradientUnits="userSpaceOnUse">
<stop stop-color="#E87264" stop-opacity="0"/>
<stop offset="1" stop-color="#FF7044"/>
</linearGradient>
<linearGradient id="paint60_linear_18_1472" x1="17.4362" y1="74.5086" x2="13.787" y2="65.6839" gradientUnits="userSpaceOnUse">
<stop stop-color="#FFD945" stop-opacity="0"/>
<stop offset="1" stop-color="#FBED21"/>
</linearGradient>
<linearGradient id="paint61_linear_18_1472" x1="17.4743" y1="64.8516" x2="17.4743" y2="74.0035" gradientUnits="userSpaceOnUse">
<stop stop-color="#FFD945"/>
<stop offset="0.3043" stop-color="#FFCD3E"/>
<stop offset="0.8558" stop-color="#FFAD2B"/>
<stop offset="1" stop-color="#FFA325"/>
</linearGradient>
<linearGradient id="paint62_linear_18_1472" x1="17.4743" y1="64.9841" x2="17.4743" y2="80.3759" gradientUnits="userSpaceOnUse">
<stop stop-color="#E87264" stop-opacity="0"/>
<stop offset="1" stop-color="#FF7044"/>
</linearGradient>
<linearGradient id="paint63_linear_18_1472" x1="17.4743" y1="64.9841" x2="17.4743" y2="80.3759" gradientUnits="userSpaceOnUse">
<stop stop-color="#E87264" stop-opacity="0"/>
<stop offset="1" stop-color="#FF7044"/>
</linearGradient>
<linearGradient id="paint64_linear_18_1472" x1="17.4362" y1="67.45" x2="13.787" y2="58.6251" gradientUnits="userSpaceOnUse">
<stop stop-color="#FFD945" stop-opacity="0"/>
<stop offset="1" stop-color="#FBED21"/>
</linearGradient>
<linearGradient id="paint65_linear_18_1472" x1="17.4743" y1="57.7928" x2="17.4743" y2="66.9447" gradientUnits="userSpaceOnUse">
<stop stop-color="#FFD945"/>
<stop offset="0.3043" stop-color="#FFCD3E"/>
<stop offset="0.8558" stop-color="#FFAD2B"/>
<stop offset="1" stop-color="#FFA325"/>
</linearGradient>
<linearGradient id="paint66_linear_18_1472" x1="17.4743" y1="57.9253" x2="17.4743" y2="73.3171" gradientUnits="userSpaceOnUse">
<stop stop-color="#E87264" stop-opacity="0"/>
<stop offset="1" stop-color="#FF7044"/>
</linearGradient>
<linearGradient id="paint67_linear_18_1472" x1="17.4743" y1="57.9253" x2="17.4743" y2="73.3171" gradientUnits="userSpaceOnUse">
<stop stop-color="#E87264" stop-opacity="0"/>
<stop offset="1" stop-color="#FF7044"/>
</linearGradient>
<linearGradient id="paint68_linear_18_1472" x1="17.4362" y1="60.3912" x2="13.787" y2="51.5663" gradientUnits="userSpaceOnUse">
<stop stop-color="#FFD945" stop-opacity="0"/>
<stop offset="1" stop-color="#FBED21"/>
</linearGradient>
<linearGradient id="paint69_linear_18_1472" x1="75.189" y1="93.0867" x2="75.189" y2="102.239" gradientUnits="userSpaceOnUse">
<stop stop-color="#FFD945"/>
<stop offset="0.3043" stop-color="#FFCD3E"/>
<stop offset="0.8558" stop-color="#FFAD2B"/>
<stop offset="1" stop-color="#FFA325"/>
</linearGradient>
<linearGradient id="paint70_linear_18_1472" x1="75.189" y1="93.2194" x2="75.189" y2="108.611" gradientUnits="userSpaceOnUse">
<stop stop-color="#E87264" stop-opacity="0"/>
<stop offset="1" stop-color="#FF7044"/>
</linearGradient>
<linearGradient id="paint71_linear_18_1472" x1="75.189" y1="93.2194" x2="75.189" y2="108.611" gradientUnits="userSpaceOnUse">
<stop stop-color="#E87264" stop-opacity="0"/>
<stop offset="1" stop-color="#FF7044"/>
</linearGradient>
<linearGradient id="paint72_linear_18_1472" x1="75.151" y1="95.6851" x2="71.5018" y2="86.8602" gradientUnits="userSpaceOnUse">
<stop stop-color="#FFD945" stop-opacity="0"/>
<stop offset="1" stop-color="#FBED21"/>
</linearGradient>
<linearGradient id="paint73_linear_18_1472" x1="75.189" y1="86.0278" x2="75.189" y2="95.1798" gradientUnits="userSpaceOnUse">
<stop stop-color="#FFD945"/>
<stop offset="0.3043" stop-color="#FFCD3E"/>
<stop offset="0.8558" stop-color="#FFAD2B"/>
<stop offset="1" stop-color="#FFA325"/>
</linearGradient>
<linearGradient id="paint74_linear_18_1472" x1="75.189" y1="86.1606" x2="75.189" y2="101.552" gradientUnits="userSpaceOnUse">
<stop stop-color="#E87264" stop-opacity="0"/>
<stop offset="1" stop-color="#FF7044"/>
</linearGradient>
<linearGradient id="paint75_linear_18_1472" x1="75.189" y1="86.1606" x2="75.189" y2="101.552" gradientUnits="userSpaceOnUse">
<stop stop-color="#E87264" stop-opacity="0"/>
<stop offset="1" stop-color="#FF7044"/>
</linearGradient>
<linearGradient id="paint76_linear_18_1472" x1="75.151" y1="88.6263" x2="71.5018" y2="79.8016" gradientUnits="userSpaceOnUse">
<stop stop-color="#FFD945" stop-opacity="0"/>
<stop offset="1" stop-color="#FBED21"/>
</linearGradient>
<linearGradient id="paint77_linear_18_1472" x1="7.12194" y1="36.3661" x2="16.3842" y2="48.7676" gradientUnits="userSpaceOnUse">
<stop stop-color="#FFD945"/>
<stop offset="0.3043" stop-color="#FFCD3E"/>
<stop offset="0.8558" stop-color="#FFAD2B"/>
<stop offset="1" stop-color="#FFA325"/>
</linearGradient>
<linearGradient id="paint78_linear_18_1472" x1="22.1087" y1="11.0562" x2="28.6586" y2="19.826" gradientUnits="userSpaceOnUse">
<stop stop-color="#FFD945"/>
<stop offset="0.3043" stop-color="#FFCD3E"/>
<stop offset="0.8558" stop-color="#FFAD2B"/>
<stop offset="1" stop-color="#FFA325"/>
</linearGradient>
<linearGradient id="paint79_linear_18_1472" x1="78.6508" y1="15.8959" x2="85.2009" y2="24.6657" gradientUnits="userSpaceOnUse">
<stop stop-color="#FFD945"/>
<stop offset="0.3043" stop-color="#FFCD3E"/>
<stop offset="0.8558" stop-color="#FFAD2B"/>
<stop offset="1" stop-color="#FFA325"/>
</linearGradient>
<clipPath id="clip0_18_1472">
<rect width="100" height="100" fill="white"/>
</clipPath>
</defs>
</svg>
