<svg width="100" height="100" viewBox="0 0 100 100" fill="none" xmlns="http://www.w3.org/2000/svg">
<g clip-path="url(#clip0_18_1635)">
<path d="M100 50C100 77.6143 77.6143 100 50 100C46.9328 100 43.9303 99.7238 41.0156 99.1949C40.3582 99.0756 39.2578 97.4893 38.6096 97.3445C26.1771 94.5687 17.5869 87.7285 10.551 77.5973C10.1547 77.0266 8.12187 77.3365 7.74922 76.749C2.8418 69.0137 0 59.8387 0 50C0 22.3857 22.3857 0 50 0C77.6143 0 100 22.3857 100 50Z" fill="#2740B1"/>
<path d="M87.9822 52.665C87.9822 71.8816 72.4041 87.4598 53.1875 87.4598C33.9709 87.4598 18.393 71.8816 18.393 52.665C18.393 33.4484 33.9711 17.8703 53.1875 17.8703C72.4039 17.8703 87.9822 33.4484 87.9822 52.665Z" fill="#314DCA"/>
<path d="M62.4678 84.5029C63.5465 84.5029 64.4209 85.3773 64.4209 86.4561V90.2293C64.4209 91.308 63.5465 92.1824 62.4678 92.1824C61.3891 92.1824 60.5146 91.308 60.5146 90.2293V86.4561C60.5146 85.3773 61.3891 84.5029 62.4678 84.5029ZM66.7709 85.4475L69.4391 88.1156C70.2018 88.8783 71.4385 88.8783 72.2012 88.1156C72.9639 87.3529 72.9639 86.1162 72.2012 85.3535L69.533 82.6854C68.7703 81.9227 67.5336 81.9227 66.7709 82.6854C66.0082 83.4481 66.0082 84.6848 66.7709 85.4475ZM52.7344 88.1156C53.4971 88.8783 54.7338 88.8783 55.4965 88.1156L58.1647 85.4475C58.9273 84.6848 58.9273 83.4481 58.1647 82.6854C57.402 81.9227 56.1652 81.9227 55.4025 82.6854L52.7344 85.3535C51.9717 86.1162 51.9717 87.3527 52.7344 88.1156Z" fill="#6C7FD9"/>
<path d="M41.0156 78.125V99.1949C26.8072 96.617 14.6902 88.0348 7.38849 76.1719H39.0625C40.1412 76.1719 41.0156 77.0463 41.0156 78.125ZM39.0625 11.7188H7.30157C6.22286 11.7188 5.34845 12.5934 5.34845 13.6719V45.433C5.34845 46.5117 6.22286 47.3861 7.30157 47.3861H39.0625C40.1412 47.3861 41.0156 46.5117 41.0156 45.433V13.6719C41.0156 12.5932 40.1412 11.7188 39.0625 11.7188Z" fill="#FF3980"/>
<path d="M16.292 79.6779L9.52928 81.2373C8.47811 81.4797 7.42967 80.824 7.18729 79.773L0.0503757 48.824C-0.192007 47.773 0.463657 46.7244 1.51463 46.482L8.27733 44.9227C9.3285 44.6803 10.3769 45.3359 10.6193 46.3869L17.756 77.3357C17.9986 78.3869 17.3431 79.4353 16.292 79.6779Z" fill="#FF3980"/>
<path d="M40.4781 74.1006L14.8 80.0219C13.7488 80.2643 12.7004 79.6086 12.458 78.5576L5.32128 47.6086C5.0789 46.5576 5.73456 45.509 6.78554 45.2666L32.4637 39.3453C33.5148 39.1029 34.5633 39.7586 34.8057 40.8096L41.9424 71.7584C42.1848 72.8096 41.5293 73.8582 40.4781 74.1006Z" fill="#FF5E95"/>
<path d="M11.5234 20.2096C11.5234 19.1309 12.3979 18.2564 13.4766 18.2564H30.6641C31.7428 18.2564 32.6172 19.1309 32.6172 20.2096C32.6172 21.2883 31.7428 22.1627 30.6641 22.1627H13.4766C12.3979 22.1627 11.5234 21.2883 11.5234 20.2096ZM30.6641 26.0689H13.4766C12.3979 26.0689 11.5234 26.9434 11.5234 28.0221C11.5234 29.1008 12.3979 29.9752 13.4766 29.9752H30.6641C31.7428 29.9752 32.6172 29.1008 32.6172 28.0221C32.6172 26.9434 31.7428 26.0689 30.6641 26.0689ZM21.1719 33.8814H13.4766C12.3979 33.8814 11.5234 34.7559 11.5234 35.8346C11.5234 36.9133 12.3979 37.7877 13.4766 37.7877H21.1719C22.2506 37.7877 23.125 36.9133 23.125 35.8346C23.125 34.7559 22.2506 33.8814 21.1719 33.8814Z" fill="#FFA2C3"/>
<path d="M56.1963 13.6719V45.433C56.1963 46.5117 55.3219 47.3861 54.2432 47.3861H46.8754C45.7967 47.3861 44.9223 46.5117 44.9223 45.433V13.6719C44.9223 12.5934 45.7967 11.7188 46.8754 11.7188H54.2432C55.3217 11.7188 56.1963 12.5934 56.1963 13.6719Z" fill="#FFAA00"/>
<path d="M80.5892 13.6719V45.433C80.5892 46.5117 79.7148 47.3861 78.6361 47.3861H52.9631C51.8844 47.3861 51.0099 46.5117 51.0099 45.433V13.6719C51.0099 12.5932 51.8844 11.7188 52.9631 11.7188H78.6363C79.7148 11.7188 80.5892 12.5932 80.5892 13.6719Z" fill="#FFB509"/>
<path d="M61.6547 43.4877L57.9016 75.0264C57.774 76.0975 56.8025 76.8625 55.7313 76.7352L48.3867 75.8611C47.3156 75.7336 46.5506 74.7621 46.6781 73.6908L50.4313 42.1521C50.5588 41.0811 51.5303 40.316 52.6016 40.4434L59.9461 41.3174C61.0172 41.4449 61.7822 42.4166 61.6547 43.4877Z" fill="#FFC143"/>
<path d="M85.8488 46.3668L82.0957 77.9055C81.9682 78.9766 80.9967 79.7416 79.9254 79.6143L54.9512 76.6422C53.8801 76.5148 53.115 75.5432 53.2426 74.4721L56.9957 42.9334C57.1233 41.8623 58.0947 41.0973 59.166 41.2246L84.1404 44.1967C85.2113 44.324 85.9764 45.2959 85.8488 46.3668Z" fill="#FFCD6B"/>
<path d="M65.2809 61.4863C65.1936 62.5615 64.251 63.3621 63.176 63.2748L55.5059 62.6514C54.4307 62.5641 53.6301 61.6217 53.7174 60.5465C53.8047 59.4715 54.7473 58.6707 55.8223 58.758L63.4924 59.3813C64.5676 59.4686 65.3684 60.4111 65.2809 61.4863ZM73.5863 52.3635L56.4553 50.9713C55.3801 50.8838 54.4377 51.6846 54.3504 52.7598C54.2631 53.835 55.0637 54.7773 56.1389 54.8647L73.2699 56.257C74.3451 56.3443 75.2875 55.5438 75.3748 54.4686C75.4621 53.3934 74.6613 52.4508 73.5863 52.3635Z" fill="#FF9500"/>
<path d="M70.7904 10.2547L68.2176 41.9115C68.1303 42.9867 67.1877 43.7873 66.1127 43.7L59.0217 43.1236C57.9465 43.0363 57.1459 42.0939 57.2332 41.0188L59.8061 9.36191C59.8934 8.28691 60.8359 7.48613 61.9109 7.57344L69.002 8.1498C70.077 8.23711 70.8777 9.17969 70.7904 10.2547Z" fill="#009B5E"/>
<path d="M95.3563 12.2514L92.7832 43.9082C92.6959 44.9834 91.7533 45.784 90.6783 45.6967L65.7691 43.6721C64.6939 43.5848 63.8934 42.6424 63.9807 41.5672L66.5535 9.91035C66.6408 8.83515 67.5834 8.03457 68.6584 8.12187L93.5678 10.1465C94.6428 10.2338 95.4436 11.1762 95.3563 12.2514Z" fill="#00B972"/>
<path d="M76.2947 1.95313V33.7143C76.2947 34.793 75.4203 35.6674 74.3416 35.6674H66.2857C65.207 35.6674 64.3326 34.793 64.3326 33.7143V1.95313C64.3326 0.874609 65.207 0 66.2857 0H74.3416C75.4203 0 76.2947 0.874609 76.2947 1.95313Z" fill="#00D683"/>
<path d="M100 1.95313V33.7143C100 34.793 99.1256 35.6674 98.0469 35.6674H72.7684C71.6897 35.6674 70.8152 34.793 70.8152 33.7143V1.95313C70.8152 0.874414 71.6897 0 72.7684 0H98.0469C99.1256 0 100 0.874414 100 1.95313Z" fill="#00E294"/>
<path d="M95.5217 11.7801L81.3113 25.9902C80.9299 26.3717 80.4301 26.5623 79.9303 26.5623C79.4305 26.5623 78.9307 26.3715 78.5492 25.9902L69.4207 16.8617C68.658 16.099 68.658 14.8623 69.4207 14.0996C70.1836 13.3369 71.4199 13.3369 72.183 14.0996L79.9305 21.8471L92.7598 9.01777C93.5227 8.25508 94.759 8.25508 95.5221 9.01777C96.2846 9.78086 96.2846 11.0174 95.5217 11.7801Z" fill="#007E4B"/>
<path d="M24.5611 69.8996C24.7291 70.7768 24.1543 71.624 23.2772 71.792C22.4 71.96 21.5527 71.3852 21.3846 70.508C21.2164 69.6309 21.7914 68.7836 22.6686 68.6154C23.5457 68.4477 24.393 69.0225 24.5611 69.8996ZM26.5172 53.3063C25.6871 49.9309 22.3514 47.7459 18.9219 48.3311C15.5918 48.8998 13.2094 51.8688 13.3803 55.2361C13.3957 55.5441 13.4332 55.8553 13.4916 56.1605C13.644 56.9551 14.4117 57.476 15.2059 57.3236C16.0004 57.1715 16.5211 56.4039 16.369 55.6094C16.3359 55.4371 16.3149 55.2619 16.3061 55.0885C16.2104 53.2016 17.5471 51.5379 19.415 51.2189C21.3387 50.8906 23.207 52.1148 23.6721 54.0059C23.9203 55.0152 23.7492 56.0514 23.1899 56.9234C22.6303 57.7963 21.7621 58.3842 20.7455 58.5789C20.3639 58.6522 20.027 58.8736 19.809 59.1951C19.5908 59.5166 19.5094 59.9115 19.5824 60.2932L20.6065 65.6383C20.7408 66.3398 21.3547 66.8279 22.0436 66.8277C22.135 66.8277 22.2275 66.8191 22.3207 66.8014C23.1152 66.6492 23.6359 65.8816 23.4838 65.0871L22.7045 61.0189C23.9043 60.4939 24.9404 59.6205 25.6559 58.5047C26.6533 56.9498 26.959 55.1035 26.5172 53.3063Z" fill="#FFF5F5"/>
</g>
<defs>
<clipPath id="clip0_18_1635">
<rect width="100" height="100" fill="white"/>
</clipPath>
</defs>
</svg>
