<svg width="100" height="100" viewBox="0 0 100 100" fill="none" xmlns="http://www.w3.org/2000/svg">
<g clip-path="url(#clip0_18_1679)">
<path d="M69.0264 52.1268V71.9602L69.1797 71.9978C70.3732 72.2908 71.2066 73.3529 71.2066 74.5809C71.2066 75.0666 71.1627 75.5641 71.0758 76.0592L70.9656 76.6867L84.7803 62.8721C86.6332 61.0193 89.0967 59.9988 91.717 59.9988C92.3959 59.9988 93.0641 60.0687 93.7141 60.2025V55.6152C93.7141 51.726 90.5611 48.573 86.6719 48.573H68.0287C68.6613 49.6094 69.0264 50.8262 69.0264 52.1268Z" fill="#8AC9FE"/>
<path d="M86.6719 48.5728H83.284C84.5566 49.8471 85.3436 51.6062 85.3436 53.5492V62.3543C87.1189 60.8316 89.3535 59.9988 91.7172 59.9988C92.3961 59.9988 93.0643 60.0687 93.7143 60.2025V55.6152C93.7141 51.7258 90.5611 48.5728 86.6719 48.5728Z" fill="#60B7FF"/>
<path d="M77.6627 42.9824C82.6924 42.9824 86.7697 38.9051 86.7697 33.8754C86.7697 28.8457 82.6924 24.7684 77.6627 24.7684C72.633 24.7684 68.5557 28.8457 68.5557 33.8754C68.5557 38.9051 72.633 42.9824 77.6627 42.9824Z" fill="#FFCEBF"/>
<path d="M77.6627 24.7684C77.5145 24.7684 77.3672 24.7725 77.2207 24.7795C79.2172 26.45 80.4877 28.9594 80.4877 31.7662C80.4877 36.6477 76.6469 40.6314 71.8225 40.8621C73.4035 42.1852 75.4397 42.9826 77.6625 42.9826C82.6922 42.9826 86.7695 38.9053 86.7695 33.8756C86.7695 28.8459 82.6924 24.7684 77.6627 24.7684Z" fill="#FFB09E"/>
<path d="M24.2184 75.1371C25.2168 75.1371 26.0293 75.9494 26.0293 76.948V81.8496L31.6031 76.2758V52.1268C31.6031 50.8262 31.9682 49.6092 32.601 48.5728H13.9576C10.0684 48.5728 6.91544 51.7258 6.91544 55.615V75.1371H24.2184Z" fill="#8AC9FE"/>
<path d="M25.3838 48.5728C24.7512 49.6094 24.3859 50.8262 24.3859 52.1268V75.1455C25.3061 75.2305 26.0291 76.0061 26.0291 76.9478V81.8494L31.6029 76.2756V52.1268C31.6029 50.8262 31.968 49.6092 32.6008 48.5728H25.3838Z" fill="#60B7FF"/>
<path d="M22.9666 42.9824C27.9963 42.9824 32.0736 38.9051 32.0736 33.8754C32.0736 28.8457 27.9963 24.7684 22.9666 24.7684C17.9369 24.7684 13.8596 28.8457 13.8596 33.8754C13.8596 38.9051 17.9369 42.9824 22.9666 42.9824Z" fill="#FFCEBF"/>
<path d="M33.2262 74.6527C34.9898 72.8893 37.3346 71.918 39.8285 71.918H68.5439C68.7807 71.918 69.009 71.9519 69.2277 72.0103V52.1268C69.2277 48.2375 66.0748 45.0846 62.1855 45.0846H38.4441C34.5549 45.0846 31.4019 48.2375 31.4019 52.1268V76.477L33.2262 74.6527Z" fill="#26A6FE"/>
<path d="M62.1045 71.918H68.5438C68.7805 71.918 69.0088 71.9519 69.2276 72.0103V52.1268C69.2276 48.2375 66.0746 45.0846 62.1854 45.0846H60.0565C61.3221 46.3578 62.1045 48.1119 62.1045 50.049V71.918Z" fill="#0593FC"/>
<path d="M39.8285 71.918H39.9898V58.0055C39.9898 57.1965 39.334 56.5406 38.525 56.5406C37.716 56.5406 37.0602 57.1965 37.0602 58.0055V72.3342C37.9451 72.0607 38.8756 71.918 39.8285 71.918Z" fill="#0593FC"/>
<path d="M63.5693 71.918V58.0055C63.5693 57.1965 62.9135 56.5406 62.1045 56.5406C61.2955 56.5406 60.6396 57.1965 60.6396 58.0055V71.918H63.5693Z" fill="#0182FC"/>
<path d="M98.7963 62.7297C94.8867 58.8201 88.5478 58.8201 84.6381 62.7297L71.274 76.0938C71.3604 75.6022 71.4078 75.0971 71.4078 74.5807C71.4078 72.9988 70.1256 71.7166 68.5437 71.7166H39.8285C37.2988 71.7166 34.8727 72.7215 33.084 74.5104L26.0293 81.5649V96.5162H66.2533C69.1787 96.5162 71.9844 95.3541 74.0529 93.2856L98.7963 68.5422C100.401 66.9371 100.401 64.335 98.7963 62.7297Z" fill="#FFB09E"/>
<path d="M50.3146 38.599C56.241 38.599 61.0453 33.7947 61.0453 27.8684C61.0453 21.942 56.241 17.1377 50.3146 17.1377C44.3883 17.1377 39.584 21.942 39.584 27.8684C39.584 33.7947 44.3883 38.599 50.3146 38.599Z" fill="#FFCEBF"/>
<path d="M50.3147 17.1377C50.3072 17.1377 50.3 17.1383 50.2928 17.1383C52.9981 19.0865 54.7609 22.2611 54.7609 25.8494C54.7609 31.7684 49.9684 36.5676 44.0522 36.5795C45.8148 37.8488 47.9766 38.599 50.3145 38.599C56.2408 38.599 61.0451 33.7947 61.0451 27.8684C61.0451 21.942 56.241 17.1377 50.3147 17.1377Z" fill="#FFB09E"/>
<path d="M98.7963 62.7297C95.7529 59.6863 91.2379 59.0129 87.5422 60.7076C88.5941 61.19 89.5799 61.8633 90.4463 62.7297C92.0514 64.3348 92.0514 66.9371 90.4463 68.5422L62.4721 96.5164H66.2533C69.1787 96.5164 71.9844 95.3543 74.0529 93.2858L98.7963 68.5424C100.401 66.9371 100.401 64.335 98.7963 62.7297Z" fill="#F89580"/>
<path d="M68.5437 71.7168H64.9838C64.3303 75.8756 62.793 79.0566 58.4506 79.0566H47.6562C46.4894 79.0566 45.5435 80.0025 45.5435 81.1693C45.5435 82.3361 46.4894 83.282 47.6562 83.282H62.7066C67.5228 83.282 71.4252 79.3689 71.4076 74.5486C71.4021 72.9797 70.1125 71.7168 68.5437 71.7168Z" fill="#F89580"/>
<path d="M24.2184 99.7356H2.01211C0.900781 99.7356 0 98.8348 0 97.7234V76.9481C0 75.8367 0.900781 74.9359 2.01211 74.9359H24.2184C25.3297 74.9359 26.2305 75.8367 26.2305 76.9481V97.7236C26.2305 98.8348 25.3295 99.7356 24.2184 99.7356Z" fill="#A2E62E"/>
<path d="M24.2184 74.9359H17.8068V91.4274C17.8068 92.5387 16.9061 93.4395 15.7947 93.4395H0V97.7234C0 98.8348 0.900781 99.7356 2.01211 99.7356H24.2184C25.3297 99.7356 26.2305 98.8348 26.2305 97.7234V76.9481C26.2305 75.8367 25.3295 74.9359 24.2184 74.9359Z" fill="#97D729"/>
<path d="M22.9666 24.7684C22.8184 24.7684 22.6711 24.7725 22.5246 24.7795C24.5211 26.45 25.7916 28.9594 25.7916 31.7662C25.7916 36.6477 21.9508 40.6314 17.1264 40.8621C18.7074 42.1852 20.7436 42.9826 22.9664 42.9826C27.9961 42.9826 32.0734 38.9053 32.0734 33.8756C32.0734 28.8459 27.9963 24.7684 22.9666 24.7684Z" fill="#FFB09E"/>
<path d="M74.8197 19.8865C74.2352 19.8865 73.683 19.5344 73.4563 18.9574C71.6492 14.3627 68.5408 10.44 64.4674 7.61347C60.3006 4.72226 55.4066 3.19394 50.3148 3.19394C45.2231 3.19394 40.3291 4.72226 36.1623 7.61347C32.0889 10.4398 28.9807 14.3625 27.1734 18.9574C26.8772 19.7102 26.0272 20.0805 25.274 19.7844C24.5213 19.4883 24.151 18.6379 24.4471 17.885C26.4672 12.7486 29.9406 8.36445 34.4922 5.20644C39.1518 1.97324 44.6232 0.264252 50.3148 0.264252C56.0064 0.264252 61.4779 1.97324 66.1375 5.20644C70.6889 8.36445 74.1625 12.7486 76.1826 17.885C76.4787 18.6377 76.1084 19.4881 75.3557 19.7844C75.1793 19.8537 74.9981 19.8865 74.8197 19.8865Z" fill="#8AC9FE"/>
</g>
<defs>
<clipPath id="clip0_18_1679">
<rect width="100" height="100" fill="white"/>
</clipPath>
</defs>
</svg>
