<svg width="100" height="100" viewBox="0 0 100 100" fill="none" xmlns="http://www.w3.org/2000/svg">
<path d="M63.074 12.2348L97.9836 72.7002C99.2639 74.9176 100 77.4883 100 80.2326C100 88.5666 93.2437 95.3232 84.9094 95.3232H50L37.9275 50L50 4.67695C55.5898 4.67695 60.4662 7.71855 63.074 12.2348Z" fill="#3B4145"/>
<path d="M36.926 12.2348L2.01621 72.7002C0.736133 74.9176 0 77.4883 0 80.2326C0 88.5666 6.75625 95.3232 15.0906 95.3232H50V4.67695C44.4102 4.67695 39.5338 7.71855 36.926 12.2348Z" fill="#525A61"/>
<path d="M92.7564 75.7184L57.8471 15.2535C56.2736 12.5271 53.3844 10.8068 50.2596 10.7184L80.1168 89.2877H84.9096C89.9016 89.2877 93.9639 85.2256 93.9639 80.2334C93.9639 78.6479 93.5453 77.0865 92.7564 75.7184Z" fill="#FFB751"/>
<path d="M86.8854 75.7184C87.5674 77.0865 87.9275 78.6479 87.9275 80.2334C87.9275 85.2254 84.4246 89.2877 80.1166 89.2877H15.0906C10.0986 89.2877 6.03633 85.2254 6.03633 80.2334C6.03633 78.6479 6.45489 77.0865 7.24356 75.7184L42.1529 15.2535C43.7707 12.4527 46.7768 10.7123 50 10.7123C50.0865 10.7123 50.1731 10.7143 50.2596 10.7184C52.9416 10.823 55.4186 12.5393 56.7686 15.2535L86.8854 75.7184Z" fill="#FFD764"/>
<path d="M50 69.1662V79.2266C52.7787 79.2266 55.0303 76.975 55.0303 74.1963C55.0303 71.4178 52.7787 69.1662 50 69.1662Z" fill="#3B4145"/>
<path d="M50 69.1662C50.5553 69.1662 51.0061 71.4178 51.0061 74.1965C51.0061 76.9752 50.5553 79.2268 50 79.2268C47.2213 79.2268 44.9697 76.9752 44.9697 74.1965C44.9697 71.4178 47.2213 69.1662 50 69.1662Z" fill="#525A61"/>
<path d="M50 25.9074V63.1309C52.7787 63.1309 55.0303 60.8773 55.0303 58.1006V30.9377C55.0303 28.159 52.7787 25.9074 50 25.9074Z" fill="#3B4145"/>
<path d="M50 25.9074C50.5553 25.9074 51.0061 28.159 51.0061 30.9377V58.1006C51.0061 60.8772 50.5553 63.1309 50 63.1309C47.2213 63.1309 44.9697 60.8773 44.9697 58.1006V30.9377C44.9697 28.159 47.2213 25.9074 50 25.9074Z" fill="#525A61"/>
</svg>
